<?xml version="1.0" ?>
<svg height="1024" version="1.1" width="1024" xmlns="http://www.w3.org/2000/svg">
  <defs/>
  <g>
    <path d="M 314.6429443359375 346.2615051269531 C 310.2291564941406 348.7572937011719 311.5036315917969 359.95050048828125 314.024658203125 364.1047668457031 C 315.7396240234375 371.44879150390625 321.1147766113281 375.68511962890625 341.9686584472656 385.6766357421875 C 427.2752685546875 425.6592712402344 500.42108154296875 466.1221923828125 561.2319946289062 501.9029846191406 C 577.5802001953125 512.930908203125 589.9728393554688 517.62158203125 592.8049926757812 517.921875 C 607.0338745117188 521.79296875 609.33837890625 520.3184814453125 615.4522094726562 512.8886108398438 C 615.3980102539062 511.8739013671875 622.8779296875 499.5867614746094 621.5490112304688 489.1698913574219 C 619.8729248046875 474.4488830566406 612.0570678710938 458.9984436035156 600.8787841796875 441.2675476074219 C 575.0761108398438 402.6151123046875 490.997314453125 372.5915832519531 344.17755126953125 349.443603515625 C 327.6763610839844 346.953125 321.267333984375 346.4388122558594 318.29168701171875 344.7115478515625 C 314.7049255371094 346.2763366699219 320.0271301269531 343.4514465332031 314.6429443359375 346.2615051269531" fill="rgb(0, 0, 0)" opacity="0.99917626" stroke-width="1.0"/>
  </g>
</svg>
