<?xml version="1.0" ?>
<svg height="1024" version="1.1" width="1024" xmlns="http://www.w3.org/2000/svg">
  <defs/>
  <g>
    <path d="M 547.2960815429688 92.55714416503906 C 542.6124877929688 94.57891082763672 536.4349365234375 98.95854187011719 536.2952270507812 101.2718734741211 C 534.1563720703125 104.27693939208984 535.5225830078125 114.03656768798828 543.253173828125 126.09835052490234 C 551.3369750976562 142.01974487304688 554.7484741210938 149.65444946289062 557.9904174804688 158.89077758789062 L 560.9401245117188 170.76901245117188 L 561.294677734375 208.37466430664062 C 561.3281860351562 259.1163330078125 560.0223388671875 328.0233154296875 557.306640625 380.9066467285156 C 556.1536865234375 412.5143127441406 553.1062622070312 461.2309875488281 552.324462890625 473.80462646484375 C 552.2172241210938 482.5903015136719 551.2464599609375 477.65185546875 553.3966064453125 479.0157470703125 C 553.23974609375 477.6219482421875 566.9755249023438 475.99761962890625 570.3497924804688 474.6881408691406 C 589.1486206054688 470.7608337402344 600.8834838867188 468.3517761230469 598.1198120117188 468.86346435546875 C 597.4573364257812 473.7071838378906 599.517578125 455.54034423828125 602.0189208984375 432.8315124511719 C 617.1405029296875 297.1973876953125 631.2675170898438 201.47525024414062 644.1104125976562 151.68630981445312 C 645.008544921875 145.9840087890625 649.6162719726562 142.209228515625 639.2456665039062 130.4849090576172 C 628.9111328125 120.31717681884766 603.1566772460938 104.09558868408203 577.6832275390625 95.52442169189453 C 564.0389404296875 91.16451263427734 559.6140747070312 89.67646789550781 547.2960815429688 92.55714416503906" fill="rgb(0, 0, 0)" opacity="1.0" stroke-width="1.0"/>
  </g>
</svg>
