<?xml version="1.0" ?>
<svg height="1024" version="1.1" width="1024" xmlns="http://www.w3.org/2000/svg">
  <defs/>
  <g>
    <path d="M 398.9389953613281 285.49139404296875 C 394.82928466796875 290.3067626953125 396.63336181640625 292.19500732421875 397.1368103027344 288.5595703125 C 389.4494934082031 298.69110107421875 396.99615478515625 311.99310302734375 415.1455383300781 337.08203125 C 430.567626953125 359.9760437011719 443.3758850097656 378.7344665527344 452.9195556640625 394.337158203125 C 461.1301574707031 407.7189636230469 466.72442626953125 415.3946533203125 475.08843994140625 418.2612609863281 C 480.3243103027344 421.19482421875 490.87860107421875 421.9949645996094 500.33770751953125 412.162109375 C 503.70159912109375 411.4787902832031 503.87420654296875 406.52545166015625 505.7018737792969 402.9192199707031 C 510.3031921386719 387.75946044921875 509.4873046875 359.88592529296875 508.0786437988281 355.1767578125 C 505.9388732910156 347.7754211425781 499.77008056640625 337.8466796875 489.2259521484375 328.39849853515625 C 482.0097961425781 321.1510314941406 480.6641845703125 321.3209228515625 453.23565673828125 305.1461181640625 C 425.47808837890625 289.2878112792969 417.6309814453125 281.2593078613281 395.98828125 283.3354187011719 C 407.7937927246094 282.0614929199219 397.6856689453125 284.93963623046875 398.9389953613281 285.49139404296875" fill="rgb(0, 0, 0)" opacity="1.0" stroke-width="1.0"/>
  </g>
</svg>
