<?xml version="1.0" ?>
<svg height="1024" version="1.1" width="1024" xmlns="http://www.w3.org/2000/svg">
  <defs/>
  <g>
    <path d="M 684.711669921875 72.83061218261719 C 677.2691040039062 76.6358413696289 675.2012939453125 82.09864807128906 675.966552734375 95.11026000976562 C 678.6683349609375 106.8085708618164 676.3060302734375 113.59638977050781 674.263671875 120.83773040771484 C 668.3814697265625 135.9863739013672 633.6688232421875 188.52978515625 597.620361328125 234.45870971679688 C 589.64794921875 245.3092803955078 584.5906372070312 250.29290771484375 585.4909057617188 254.03831481933594 C 583.96240234375 255.41310119628906 588.6511840820312 264.03155517578125 589.2329711914062 263.0760498046875 C 605.4873657226562 263.3836669921875 610.3597412109375 254.24916076660156 618.6541748046875 248.32644653320312 C 677.3787231445312 198.11495971679688 736.818115234375 152.8274383544922 756.6716918945312 142.669921875 C 758.4745483398438 142.3468475341797 766.10888671875 136.71751403808594 765.3776245117188 132.1940155029297 C 768.5352783203125 121.79735565185547 740.9674072265625 91.63965606689453 727.6786499023438 84.52642059326172 C 709.5892333984375 72.95814514160156 691.6085205078125 70.82977294921875 684.711669921875 72.83061218261719" fill="rgb(0, 0, 0)" opacity="0.9993569" stroke-width="1.0"/>
  </g>
</svg>
