<?xml version="1.0" ?>
<svg height="1024" version="1.1" width="1024" xmlns="http://www.w3.org/2000/svg">
  <defs/>
  <g>
    <path d="M 776.9013671875 198.3307647705078 C 772.8521728515625 203.12155151367188 770.2586059570312 207.8077850341797 769.6508178710938 220.49342346191406 C 766.6061401367188 243.44886779785156 766.1232299804688 245.56051635742188 755.3241577148438 260.573486328125 C 732.0905151367188 293.6613464355469 695.4760131835938 336.7313232421875 657.2987060546875 377.116943359375 C 651.9571533203125 383.1082763671875 648.0631713867188 385.6280212402344 647.2327270507812 389.74810791015625 C 645.2762451171875 392.5067138671875 645.662841796875 401.1271057128906 649.3770141601562 402.9587707519531 C 645.19775390625 402.3785705566406 653.5620727539062 404.72100830078125 660.8800659179688 401.87750244140625 C 664.883056640625 401.8437805175781 671.594970703125 395.5547180175781 683.3963012695312 387.1643371582031 C 713.5958862304688 364.8062744140625 718.154052734375 361.7003173828125 738.3312377929688 347.0971984863281 C 788.9734497070312 311.2725830078125 827.0454711914062 286.67572021484375 845.7711791992188 276.7773132324219 C 861.4596557617188 271.6640930175781 861.7007446289062 264.0970153808594 859.61181640625 257.89117431640625 C 853.4224853515625 240.4827423095703 846.4015502929688 233.32301330566406 832.7448120117188 218.9837646484375 C 820.3179931640625 207.69696044921875 809.0731811523438 200.6659393310547 792.30029296875 196.76803588867188 C 776.1905517578125 194.52450561523438 781.3148193359375 197.28167724609375 776.9013671875 198.3307647705078" fill="rgb(0, 0, 0)" opacity="0.99996275" stroke-width="1.0"/>
  </g>
</svg>
