<?xml version="1.0" ?>
<svg height="1024" version="1.1" width="1024" xmlns="http://www.w3.org/2000/svg">
  <defs/>
  <g>
    <path d="M 464.27899169921875 67.1697006225586 C 455.5016174316406 69.035400390625 456.637451171875 74.96047973632812 456.5970153808594 73.32286834716797 C 456.7364501953125 70.0811996459961 452.7661437988281 79.3812026977539 456.5596923828125 91.56729888916016 C 458.1432800292969 106.58210754394531 454.06805419921875 119.5240707397461 440.5368347167969 143.85313415527344 C 411.2036437988281 198.1001739501953 352.57635498046875 263.856689453125 259.99505615234375 344.6289978027344 C 251.3192596435547 351.8348083496094 247.7943878173828 355.68646240234375 243.77391052246094 357.6554260253906 C 237.1533966064453 362.6034851074219 232.16395568847656 366.9390869140625 231.8656768798828 372.9380187988281 C 232.94668579101562 370.95709228515625 230.83197021484375 376.6839294433594 237.8645477294922 378.64984130859375 C 265.9873046875 383.1824951171875 326.6131286621094 340.60382080078125 411.1700439453125 260.2239685058594 C 418.062744140625 253.29962158203125 429.5360107421875 243.4360809326172 435.50225830078125 238.64146423339844 C 442.351806640625 233.79273986816406 444.5980224609375 229.0617218017578 454.3050537109375 217.9586181640625 C 480.568603515625 187.7056884765625 502.1768493652344 165.59848022460938 523.337646484375 150.8277587890625 C 531.5603637695312 145.11563110351562 533.8588256835938 139.3680419921875 533.4577026367188 132.74066162109375 C 531.9806518554688 124.4903793334961 532.1141967773438 126.03878021240234 529.3270874023438 119.10344696044922 C 519.912353515625 100.80052185058594 496.9840393066406 77.2807846069336 477.0138854980469 69.4527816772461 C 465.5036315917969 66.1178970336914 474.7336730957031 67.35120391845703 464.27899169921875 67.1697006225586" fill="rgb(0, 0, 0)" opacity="0.99905014" stroke-width="1.0"/>
  </g>
</svg>
