<?xml version="1.0" ?>
<svg height="1024" version="1.1" width="1024" xmlns="http://www.w3.org/2000/svg">
  <defs/>
  <g>
    <path d="M 634.8548583984375 626.830810546875 C 630.685302734375 633.7916259765625 633.1752319335938 643.9663696289062 637.5919799804688 652.0761108398438 C 638.5794067382812 653.8587036132812 647.8823852539062 664.021728515625 654.2672119140625 672.043701171875 C 677.854736328125 700.8829345703125 703.6004638671875 735.5293579101562 731.5759887695312 776.9533081054688 C 742.01171875 792.6372680664062 747.9927368164062 800.6781005859375 759.0110473632812 807.4427490234375 C 761.7357788085938 809.34033203125 770.8992919921875 806.4136962890625 772.8726196289062 804.0684204101562 C 779.5186767578125 799.6889038085938 783.4302978515625 794.3553466796875 784.2636108398438 782.3906860351562 C 786.6058349609375 775.640380859375 782.3104248046875 741.2546997070312 781.8750610351562 743.1002807617188 C 774.319091796875 711.6082153320312 733.150634765625 675.0873413085938 656.169189453125 632.589111328125 C 646.509521484375 627.2881469726562 639.436279296875 623.3140258789062 639.0386962890625 623.9677734375 C 632.0927734375 626.5910034179688 638.4024047851562 623.412109375 634.8548583984375 626.830810546875" fill="rgb(0, 0, 0)" opacity="0.99990654" stroke-width="1.0"/>
  </g>
</svg>
