<?xml version="1.0" ?>
<svg height="1024" version="1.1" width="1024" xmlns="http://www.w3.org/2000/svg">
  <defs/>
  <g>
    <path d="M 326.34765625 639.5968627929688 C 316.4812316894531 645.9322509765625 320.9393310546875 642.961181640625 309.38690185546875 661.69384765625 C 293.265869140625 688.5317993164062 279.4764099121094 707.3343505859375 258.829345703125 732.4201049804688 C 252.73193359375 739.1727905273438 246.74673461914062 745.78125 244.8204803466797 751.5384521484375 C 238.8436737060547 762.213134765625 236.8277587890625 777.59619140625 240.80874633789062 794.73583984375 C 244.46336364746094 809.7335205078125 248.734619140625 809.0990600585938 257.7884826660156 809.6898193359375 C 266.5611267089844 807.8429565429688 268.1759948730469 807.3214721679688 277.20977783203125 801.51953125 C 304.4861145019531 782.8440551757812 322.92742919921875 754.0780029296875 333.64215087890625 711.145263671875 C 338.926025390625 689.0720825195312 340.7889404296875 679.650390625 341.4493103027344 662.881103515625 L 340.99420166015625 648.309814453125 L 338.3441162109375 643.67529296875 C 336.20452880859375 642.8536376953125 332.4820251464844 634.225830078125 332.3858337402344 643.9953002929688 C 336.0867919921875 634.34130859375 329.4722900390625 639.4754028320312 326.34765625 639.5968627929688" fill="rgb(0, 0, 0)" opacity="0.9988213" stroke-width="1.0"/>
  </g>
</svg>
