<?xml version="1.0" ?>
<svg height="1024" version="1.1" width="1024" xmlns="http://www.w3.org/2000/svg">
  <defs/>
  <g>
    <path d="M 444.8887634277344 507.83721923828125 C 437.4936218261719 509.31732177734375 438.02593994140625 515.3401489257812 438.6872863769531 510.18267822265625 C 436.2222595214844 516.331298828125 435.2784729003906 520.9215698242188 442.5606994628906 531.40673828125 C 453.30731201171875 549.9556884765625 461.19244384765625 568.5091552734375 463.05230712890625 595.6831665039062 C 462.1894836425781 607.7667846679688 466.3741760253906 683.6693725585938 463.2161560058594 753.5012817382812 C 461.56982421875 789.2808227539062 458.1797790527344 811.0523681640625 453.1278076171875 822.0589599609375 C 448.86541748046875 826.66748046875 452.7146301269531 827.5952758789062 434.1275939941406 826.032958984375 C 422.49981689453125 824.4353637695312 406.55133056640625 822.1654052734375 376.8095397949219 816.1309204101562 C 361.9608459472656 814.034423828125 350.3629150390625 808.1871337890625 349.79290771484375 816.9056396484375 C 351.6080017089844 824.6175537109375 355.9957275390625 826.810546875 362.6094970703125 832.3572387695312 C 404.1315002441406 867.3916625976562 437.1631164550781 898.3920288085938 455.63665771484375 923.653564453125 C 463.5412902832031 935.5596313476562 471.9286804199219 938.9697875976562 482.4889221191406 932.6912231445312 C 485.1943664550781 931.650634765625 499.7392578125 917.1124877929688 505.34771728515625 903.6284790039062 C 517.6546630859375 880.4969482421875 521.1903076171875 840.9138793945312 517.7196655273438 816.7371826171875 C 515.623046875 789.6890258789062 513.64892578125 746.6503295898438 512.7130737304688 689.6491088867188 C 511.243896484375 602.442138671875 512.74853515625 628.7149047851562 512.942626953125 616.1725463867188 C 514.3446655273438 598.8399658203125 518.7587890625 583.0475463867188 523.7097778320312 571.4993286132812 C 529.6962890625 559.4492797851562 528.2811279296875 548.9368896484375 515.8009033203125 540.093505859375 C 489.8489990234375 518.0886840820312 454.5711975097656 503.4860534667969 444.8887634277344 507.83721923828125" fill="rgb(0, 0, 0)" opacity="1.0" stroke-width="1.0"/>
  </g>
</svg>
