<?xml version="1.0" ?>
<svg height="1024" version="1.1" width="1024" xmlns="http://www.w3.org/2000/svg">
  <defs/>
  <g>
    <path d="M 541.6494750976562 193.21473693847656 C 536.6744995117188 197.45965576171875 541.7926635742188 209.83609008789062 543.5083618164062 210.89894104003906 C 549.056884765625 220.80751037597656 553.5748901367188 247.85748291015625 553.848876953125 315.240478515625 C 554.5346069335938 347.3686828613281 554.8847045898438 334.0523681640625 556.5968017578125 346.8177185058594 C 563.6661376953125 376.659912109375 583.7483520507812 395.1529846191406 614.4706420898438 406.1280822753906 C 646.8154907226562 417.4755859375 692.9490356445312 419.7115478515625 748.704345703125 413.3983459472656 C 771.7894897460938 410.9395446777344 786.544677734375 405.3926696777344 791.8403930664062 398.3349609375 C 799.8446044921875 389.25274658203125 793.2078857421875 379.511962890625 773.3953247070312 366.8330383300781 C 754.8678588867188 356.09039306640625 747.4907836914062 350.8194885253906 732.1611328125 352.205810546875 C 733.4418334960938 351.92474365234375 719.1201171875 355.5752868652344 713.6343383789062 360.8233642578125 C 708.5943603515625 363.6629638671875 699.5250854492188 368.3883972167969 692.5855712890625 369.5254821777344 C 677.8365478515625 374.1114501953125 658.1428833007812 373.6653747558594 636.9904174804688 370.6863708496094 C 613.1045532226562 366.04962158203125 608.8392333984375 360.20245361328125 603.2607421875 346.5461120605469 C 598.5753784179688 331.5812683105469 597.0021362304688 326.2515563964844 597.8457641601562 306.00714111328125 C 598.0776977539062 288.3418273925781 603.6817626953125 264.4984436035156 611.863037109375 247.98794555664062 C 614.817626953125 242.34414672851562 616.0557250976562 233.29583740234375 612.72412109375 224.81309509277344 C 606.587890625 214.17161560058594 609.1690673828125 217.6223602294922 597.31298828125 208.99325561523438 C 572.1856689453125 191.12948608398438 548.2135620117188 185.5886688232422 541.6494750976562 193.21473693847656" fill="rgb(0, 0, 0)" opacity="0.9999026" stroke-width="1.0"/>
  </g>
</svg>
