<?xml version="1.0" ?>
<svg height="1024" version="1.1" width="1024" xmlns="http://www.w3.org/2000/svg">
  <defs/>
  <g>
    <path d="M 542.034912109375 209.43075561523438 Q 552.171630859375 219.19146728515625 553.82861328125 298.2710876464844 Q 553.156494140625 340.6591491699219 558.1161499023438 352.3326416015625 Q 570.6845092773438 394.7983703613281 625.5614624023438 409.5462951660156 Q 672.7367553710938 421.9241027832031 749.2059326171875 413.3009338378906 Q 780.1412353515625 409.90557861328125 790.4285278320312 399.9556884765625 Q 801.0523071289062 389.861083984375 787.6080932617188 377.34002685546875 Q 766.9110107421875 360.6346740722656 746.535888671875 353.012451171875 Q 731.0953979492188 348.4814453125 713.1406860351562 360.9750061035156 Q 683.7978515625 379.1676025390625 633.0183715820312 369.8196105957031 Q 610.7418212890625 365.72119140625 605.1693725585938 350.9168395996094 Q 588.6961059570312 313.9377746582031 607.423828125 257.35693359375 Q 616.314208984375 239.88316345214844 614.447021484375 236.96060180664062 Q 619.4902954101562 215.69219970703125 568.9366455078125 193.3512725830078 Q 531.1729736328125 181.85421752929688 542.034912109375 209.43075561523438" fill="rgb(0, 0, 0)" opacity="1.0" stroke-width="1.0"/>
  </g>
</svg>
