<?xml version="1.0" ?>
<svg height="1024" version="1.1" width="1024" xmlns="http://www.w3.org/2000/svg">
  <defs/>
  <g>
    <path d="M 409.5377502441406 226.44081115722656 C 410.49859619140625 221.094970703125 407.97906494140625 223.2359619140625 407.9549865722656 238.28749084472656 C 407.190673828125 264.0751037597656 399.2445068359375 291.3273620605469 385.8353576660156 318.88177490234375 C 366.2995910644531 358.2289123535156 336.2767028808594 398.41998291015625 291.8554382324219 444.098388671875 C 272.6588134765625 464.0699157714844 270.4189453125 462.82012939453125 269.97015380859375 471.428466796875 C 267.7715148925781 474.78851318359375 271.99053955078125 475.1723937988281 282.1752014160156 471.3977966308594 C 298.1507568359375 466.4239196777344 320.1944274902344 453.67047119140625 338.5527038574219 438.4504699707031 C 357.7495422363281 423.85675048828125 386.3088073730469 394.01641845703125 403.24212646484375 373.13323974609375 C 417.0830383300781 356.97027587890625 440.06890869140625 326.7373352050781 447.2452087402344 315.7915954589844 C 448.816650390625 312.86102294921875 454.0888671875 306.0220031738281 458.2723388671875 300.0853576660156 C 468.5307312011719 287.7145690917969 470.9071350097656 287.2310485839844 470.3230285644531 278.61322021484375 C 469.7405700683594 275.0363464355469 456.61590576171875 251.0816192626953 445.4023742675781 239.53506469726562 C 438.5956115722656 233.3496551513672 440.2619934082031 233.6593780517578 428.4789123535156 228.73922729492188 C 414.2708740234375 221.57550048828125 409.41949462890625 219.66580200195312 409.5377502441406 226.44081115722656" fill="rgb(0, 0, 0)" opacity="0.9999335" stroke-width="1.0"/>
  </g>
</svg>
