<?xml version="1.0" ?>
<svg height="1024" version="1.1" width="1024" xmlns="http://www.w3.org/2000/svg">
  <defs/>
  <g>
    <path d="M 307.3111267089844 125.90309143066406 C 305.0511169433594 125.93338775634766 286.8628234863281 132.4879913330078 273.4287414550781 140.62635803222656 C 266.7066650390625 144.7126922607422 236.70541381835938 155.08689880371094 208.67825317382812 161.8269500732422 C 190.13189697265625 167.03517150878906 197.94149780273438 163.13192749023438 188.3634490966797 167.98814392089844 C 172.97100830078125 177.98583984375 188.49327087402344 196.3716278076172 205.23199462890625 196.45806884765625 C 211.24314880371094 197.62435913085938 220.8852996826172 193.69332885742188 252.51515197753906 184.2298583984375 C 272.596435546875 177.83123779296875 291.8938903808594 172.688232421875 288.0719299316406 173.10513305664062 C 313.07281494140625 168.26736450195312 323.2334289550781 181.4474639892578 324.9412841796875 216.92576599121094 C 324.48291015625 222.44017028808594 327.4735412597656 296.53692626953125 328.2413635253906 405.4947204589844 C 328.97930908203125 532.0183715820312 326.06707763671875 629.7009887695312 319.89862060546875 711.7180786132812 C 317.96240234375 733.5202026367188 319.3598327636719 739.343994140625 312.6097106933594 758.5167236328125 L 310.0866394042969 762.8850708007812 L 298.7645263671875 762.670166015625 C 250.3792724609375 760.884521484375 240.2714080810547 761.5115356445312 244.04962158203125 760.4519653320312 C 242.3714599609375 760.9727783203125 230.1885223388672 755.1411743164062 225.32693481445312 760.9994506835938 C 224.92935180664062 767.0328979492188 222.55738830566406 762.44091796875 233.9644317626953 772.1215209960938 C 245.61827087402344 782.041259765625 282.4796447753906 817.933837890625 298.6304016113281 837.69580078125 C 312.7984313964844 853.4264526367188 312.13134765625 854.0767822265625 324.8495788574219 861.7921142578125 C 333.5909118652344 866.2711791992188 339.6034240722656 865.1454467773438 351.059326171875 853.9933471679688 C 365.40911865234375 839.4295043945312 379.2509765625 813.9327392578125 383.90850830078125 783.8557739257812 C 387.18536376953125 758.554931640625 386.38653564453125 764.5379638671875 383.5451354980469 695.615234375 C 377.7010192871094 556.3431396484375 373.9781188964844 419.09490966796875 375.9856262207031 326.8687438964844 C 377.3632507324219 243.83511352539062 383.01605224609375 202.8333740234375 390.44451904296875 189.18991088867188 C 397.7401428222656 176.96566772460938 397.7661437988281 168.78965759277344 391.13720703125 159.96075439453125 C 380.74163818359375 150.9382781982422 362.87689208984375 138.79554748535156 336.1465759277344 127.74002075195312 C 328.3489074707031 123.837890625 319.7032165527344 122.66548156738281 307.3111267089844 125.90309143066406" fill="rgb(0, 0, 0)" opacity="1.0" stroke-width="1.0"/>
  </g>
</svg>
