<?xml version="1.0" ?>
<svg height="1024" version="1.1" width="1024" xmlns="http://www.w3.org/2000/svg">
  <defs/>
  <g>
    <path d="M 430.10382080078125 212.40133666992188 C 397.5723876953125 217.52993774414062 288.93572998046875 243.78128051757812 281.9813537597656 245.9060821533203 C 261.0143737792969 252.18136596679688 250.65367126464844 257.4592590332031 246.60235595703125 261.2646179199219 C 235.7632293701172 272.2735290527344 238.59423828125 283.885009765625 240.02755737304688 283.50042724609375 C 242.15048217773438 291.546875 252.82327270507812 291.5050964355469 258.9429016113281 288.086181640625 C 262.6229248046875 286.9694519042969 263.879150390625 283.847900390625 266.0881042480469 283.44866943359375 C 280.79656982421875 275.51629638671875 316.6446838378906 266.77508544921875 365.5351867675781 256.29913330078125 C 394.5290222167969 250.72547912597656 410.0326232910156 244.8730926513672 416.41729736328125 254.85794067382812 C 430.7142639160156 272.9266662597656 424.5251159667969 283.1750793457031 421.8576965332031 302.0225830078125 C 409.4660339355469 369.85565185546875 400.2512512207031 411.5133056640625 390.055419921875 433.6390075683594 C 389.98443603515625 433.8224182128906 383.8741760253906 445.33837890625 383.1338195800781 443.4811096191406 C 379.9154357910156 449.6614685058594 371.0502624511719 461.8500671386719 373.224365234375 463.9913024902344 C 371.2823791503906 462.87249755859375 384.0016174316406 480.950927734375 392.2051086425781 488.6565246582031 C 398.9093017578125 496.2367858886719 409.8266296386719 500.4793395996094 409.3558044433594 499.8590393066406 C 416.3205871582031 501.7147521972656 426.2536315917969 489.83160400390625 429.17327880859375 483.7009582519531 C 437.758544921875 463.39044189453125 449.2987976074219 418.8822021484375 467.2669982910156 333.2303771972656 C 471.6674499511719 309.2284851074219 477.2151794433594 294.92462158203125 492.67877197265625 275.05462646484375 C 500.5168762207031 265.8850402832031 505.6966552734375 262.0133972167969 498.95745849609375 249.812255859375 C 495.35009765625 243.66111755371094 481.1783752441406 231.2477264404297 456.03369140625 216.66259765625 C 443.2042541503906 210.12811279296875 449.37408447265625 209.39784240722656 430.10382080078125 212.40133666992188" fill="rgb(0, 0, 0)" opacity="1.0" stroke-width="1.0"/>
  </g>
</svg>
