<?xml version="1.0" ?>
<svg height="1024" version="1.1" width="1024" xmlns="http://www.w3.org/2000/svg">
  <defs/>
  <g>
    <path d="M 377.8675231933594 543.7086181640625 C 369.4675598144531 545.9465942382812 363.8776550292969 547.7667236328125 348.2440490722656 554.1234130859375 C 343.68865966796875 557.5357055664062 330.44683837890625 559.5928344726562 284.1590881347656 571.8955078125 C 214.42425537109375 589.7386474609375 212.5741424560547 589.9661865234375 207.7279510498047 592.5859985351562 C 197.0415496826172 597.0089111328125 198.45904541015625 602.5822143554688 204.9636993408203 605.647705078125 C 206.5373992919922 607.6150512695312 206.37466430664062 607.2661743164062 215.88348388671875 611.2260131835938 C 217.54910278320312 612.635009765625 219.07009887695312 610.77685546875 222.20465087890625 613.3263549804688 C 239.97537231445312 622.740966796875 254.1978759765625 619.14892578125 280.1851806640625 610.425537109375 C 308.8028869628906 601.0076293945312 335.2761535644531 593.4365234375 347.1824035644531 591.3532104492188 C 357.8146667480469 588.8435668945312 372.15350341796875 587.7095947265625 371.5301208496094 590.1368408203125 C 371.77978515625 588.101806640625 376.12969970703125 596.0023193359375 375.0074768066406 595.0396118164062 C 381.5748596191406 610.8944091796875 377.6358642578125 632.8948974609375 368.97900390625 683.7975463867188 C 359.1766662597656 735.4562377929688 345.2920837402344 773.1270141601562 332.0597839355469 787.030029296875 C 324.7295227050781 795.38818359375 313.30487060546875 801.9732055664062 299.70660400390625 798.6477661132812 C 301.2411193847656 798.9602661132812 294.4095764160156 797.1098022460938 266.7443542480469 784.739013671875 C 249.03013610839844 775.55712890625 246.3386993408203 776.9591064453125 244.52450561523438 778.7831420898438 C 243.3873748779297 780.4114990234375 245.85475158691406 789.7904663085938 258.0862731933594 802.0679321289062 C 277.3209533691406 825.1614379882812 291.3254089355469 843.6785278320312 302.29498291015625 861.5149536132812 C 307.60797119140625 871.3939819335938 315.4388732910156 875.9572143554688 323.59344482421875 876.6594848632812 C 332.5619812011719 876.19921875 339.073486328125 871.0769653320312 353.4051513671875 857.5292358398438 C 378.9442138671875 830.1201171875 395.71539306640625 792.4133911132812 409.99774169921875 737.6288452148438 C 412.4907531738281 726.1793212890625 415.1810607910156 717.4944458007812 417.18035888671875 701.5628051757812 C 427.0687255859375 638.6583862304688 435.53076171875 607.0827026367188 446.23431396484375 592.6688232421875 C 453.92718505859375 585.5127563476562 454.9872131347656 577.7382202148438 453.130126953125 575.612548828125 C 452.0564880371094 571.747314453125 452.5226135253906 571.4550170898438 446.2662353515625 566.6143188476562 C 441.2618103027344 562.5770874023438 423.3104248046875 553.20556640625 410.67193603515625 547.7914428710938 C 401.8300476074219 544.7433471679688 399.0287170410156 541.2955322265625 390.7557373046875 541.6311645507812 C 388.0757141113281 541.984619140625 379.60626220703125 542.8451538085938 377.8675231933594 543.7086181640625" fill="rgb(0, 0, 0)" opacity="1.0" stroke-width="1.0"/>
  </g>
</svg>
