<?xml version="1.0" ?>
<svg height="1024" version="1.1" width="1024" xmlns="http://www.w3.org/2000/svg">
  <defs/>
  <g>
    <path d="M 185.72125244140625 231.07012939453125 C 180.235595703125 235.5081787109375 179.5786590576172 240.80201721191406 182.8262939453125 248.6658477783203 C 188.12953186035156 255.6575469970703 193.07382202148438 266.1355895996094 195.63720703125 276.1627502441406 C 201.35618591308594 295.2751770019531 203.78489685058594 323.8998107910156 202.8145294189453 361.2852478027344 C 201.5561981201172 462.54840087890625 192.0243377685547 541.900634765625 174.96070861816406 609.7666625976562 C 164.71694946289062 646.623779296875 135.6818389892578 718.7280883789062 92.37104034423828 801.0717163085938 C 82.58924102783203 820.357421875 72.61602020263672 837.6412353515625 75.08087158203125 836.4242553710938 C 73.69976806640625 844.8421020507812 82.52896118164062 844.9060668945312 90.4593505859375 839.8673706054688 C 100.72554016113281 834.3726196289062 118.05909729003906 816.5883178710938 136.10255432128906 788.919189453125 C 169.05767822265625 739.300537109375 192.033203125 695.7026977539062 208.04971313476562 643.244384765625 C 213.9718475341797 624.44873046875 217.86831665039062 614.0454711914062 223.8454132080078 590.806640625 C 225.3659210205078 587.8240356445312 243.1269073486328 496.5299377441406 243.77427673339844 493.37481689453125 C 250.20765686035156 448.5719299316406 250.77606201171875 416.4173889160156 255.38084411621094 352.7784118652344 C 257.4485168457031 310.5137023925781 259.0489501953125 296.8349914550781 260.17596435546875 290.884033203125 C 264.6093444824219 268.8677978515625 263.6480407714844 263.19317626953125 262.86578369140625 259.7835388183594 C 254.1703643798828 250.3143768310547 231.2139434814453 238.091796875 207.01412963867188 230.38552856445312 C 198.27328491210938 228.1241455078125 189.91766357421875 227.47201538085938 185.72125244140625 231.07012939453125" fill="rgb(0, 0, 0)" opacity="0.99882567" stroke-width="1.0"/>
  </g>
</svg>
