<?xml version="1.0" ?>
<svg height="1024" version="1.1" width="1024" xmlns="http://www.w3.org/2000/svg">
  <defs/>
  <g>
    <path d="M 314.305908203125 63.26515197753906 C 312.7066345214844 65.95954132080078 308.81365966796875 65.62039184570312 311.70440673828125 75.28230285644531 C 314.8828125 79.04377746582031 314.11358642578125 88.4519271850586 309.062255859375 101.84769439697266 C 302.9512023925781 121.71210479736328 278.3578186035156 170.00021362304688 246.4842987060547 224.24168395996094 C 231.2074432373047 249.52137756347656 227.6565704345703 257.1614685058594 227.5087432861328 261.42254638671875 C 228.16444396972656 262.2882080078125 227.51467895507812 264.6978759765625 236.3037872314453 259.2743835449219 C 247.26559448242188 251.22657775878906 272.5697021484375 229.17041015625 330.91015625 170.925537109375 C 363.10760498046875 140.3313751220703 360.7503356933594 137.06564331054688 385.26361083984375 120.07575225830078 C 395.7315979003906 113.93749237060547 400.5039978027344 108.2094955444336 400.4891662597656 100.35667419433594 C 398.5965576171875 97.27085876464844 401.9886779785156 101.52334594726562 397.972412109375 93.69454956054688 C 391.01214599609375 82.29473876953125 348.3774719238281 60.22758865356445 324.8058166503906 60.79899978637695 C 318.1763000488281 61.536441802978516 326.43902587890625 59.71101379394531 314.305908203125 63.26515197753906" fill="rgb(0, 0, 0)" opacity="0.9989609" stroke-width="1.0"/>
  </g>
</svg>
