<?xml version="1.0" ?>
<svg height="1024" version="1.1" width="1024" xmlns="http://www.w3.org/2000/svg">
  <defs/>
  <g>
    <path d="M 629.1026611328125 355.8443908691406 C 630.1666259765625 354.8457336425781 620.604736328125 358.2298889160156 623.378662109375 368.3536071777344 C 625.1829833984375 369.80426025390625 621.3359375 366.0160217285156 627.1192626953125 375.5702209472656 C 634.636962890625 388.679443359375 637.6200561523438 416.0047607421875 637.3696899414062 452.8056335449219 C 635.1898193359375 522.4135131835938 633.8115234375 510.0431823730469 627.7745361328125 573.4021606445312 C 618.4464111328125 646.46728515625 616.3349609375 682.4469604492188 617.4446411132812 694.0856323242188 C 617.3109130859375 705.3764038085938 623.2020263671875 705.7055053710938 623.5095825195312 706.9825439453125 C 633.6182250976562 707.2538452148438 632.4002685546875 704.5211791992188 636.1978759765625 699.025634765625 C 647.7586059570312 676.8909301757812 659.7122192382812 624.9943237304688 673.3466186523438 549.76806640625 C 689.2193603515625 461.6828308105469 693.7571411132812 434.8916931152344 705.385498046875 412.2627868652344 C 710.50390625 400.8058776855469 708.3191528320312 392.3744812011719 694.548583984375 379.94183349609375 C 685.2566528320312 370.6250305175781 668.8124389648438 360.35394287109375 660.1094360351562 356.8610534667969 C 651.3290405273438 353.6531982421875 640.48291015625 352.2941589355469 629.1026611328125 355.8443908691406" fill="rgb(0, 0, 0)" opacity="1.0" stroke-width="1.0"/>
  </g>
</svg>
