<?xml version="1.0" ?>
<svg height="1024" version="1.1" width="1024" xmlns="http://www.w3.org/2000/svg">
  <defs/>
  <g>
    <path d="M 588.072509765625 77.85206604003906 C 580.94580078125 80.41488647460938 578.55224609375 85.08456420898438 579.654296875 92.28474426269531 C 580.6422729492188 92.3224868774414 578.4987182617188 93.6143569946289 584.5952758789062 103.8678207397461 C 591.31494140625 114.81175994873047 591.0787353515625 138.31365966796875 586.746826171875 156.2792510986328 C 576.673095703125 206.05108642578125 539.896484375 284.79595947265625 477.5816650390625 389.13861083984375 C 472.0132141113281 397.9362487792969 467.1794738769531 407.72674560546875 460.70635986328125 416.1040954589844 C 460.6753234863281 418.9441833496094 452.70013427734375 423.0195007324219 459.6129455566406 430.5081787109375 C 460.0157775878906 427.824462890625 459.14459228515625 431.9330749511719 466.74188232421875 430.18865966796875 C 483.0224304199219 426.5914306640625 509.8500671386719 397.3348693847656 545.5288696289062 346.5295104980469 C 589.1448974609375 284.48272705078125 600.0924682617188 266.6200866699219 632.1910400390625 202.94757080078125 C 648.3204345703125 167.7122802734375 654.5185546875 158.29808044433594 662.5555419921875 147.33755493164062 C 672.3212890625 136.33090209960938 671.84521484375 130.04641723632812 669.7748413085938 121.287109375 C 667.6740112304688 110.70201110839844 639.2490844726562 90.37411499023438 630.18017578125 86.7668228149414 C 616.7659912109375 80.3262710571289 599.3814086914062 75.86782836914062 591.4318237304688 77.15678405761719 C 588.2434692382812 76.80667114257812 591.6617431640625 77.83279418945312 588.072509765625 77.85206604003906" fill="rgb(0, 0, 0)" opacity="0.9989677" stroke-width="1.0"/>
  </g>
</svg>
