<?xml version="1.0" ?>
<svg height="1024" version="1.1" width="1024" xmlns="http://www.w3.org/2000/svg">
  <defs/>
  <g>
    <path d="M 773.7753295898438 237.35153198242188 C 749.3385009765625 242.19068908691406 723.8197631835938 251.4456329345703 684.41796875 266.4053955078125 C 665.9637451171875 274.2959289550781 665.6307983398438 273.4566345214844 641.1192016601562 280.3617858886719 C 595.0321044921875 292.99200439453125 558.9454956054688 303.7857360839844 557.50927734375 304.69793701171875 C 544.739501953125 310.0321044921875 547.0996704101562 313.9995422363281 547.6366577148438 314.29022216796875 C 549.960693359375 320.7825012207031 564.2931518554688 324.2589111328125 561.0374145507812 324.78668212890625 C 587.8043823242188 334.8287353515625 617.9215698242188 337.308349609375 664.19189453125 325.525146484375 C 668.4465942382812 324.5533142089844 779.74560546875 289.92608642578125 801.0156860351562 283.4261169433594 C 814.1231079101562 278.4254150390625 825.8923950195312 274.803466796875 830.5971069335938 270.3203430175781 C 834.3048706054688 265.8656005859375 837.7056884765625 258.6330871582031 832.8370971679688 252.1971893310547 C 828.4505004882812 246.3076171875 820.0839233398438 241.64356994628906 803.1195678710938 237.7257080078125 C 781.8112182617188 233.47366333007812 778.0154418945312 237.5815887451172 773.7753295898438 237.35153198242188" fill="rgb(0, 0, 0)" opacity="0.99893284" stroke-width="1.0"/>
  </g>
</svg>
