<?xml version="1.0" ?>
<svg height="1024" version="1.1" width="1024" xmlns="http://www.w3.org/2000/svg">
  <defs/>
  <g>
    <path d="M 497.58477783203125 455.45697021484375 Q 513.2356567382812 494.2944030761719 512.792724609375 518.187255859375 Q 514.6903686523438 522.0421142578125 508.55938720703125 595.3988647460938 Q 502.7127990722656 730.3942260742188 514.7509765625 760.03369140625 Q 524.9354248046875 793.9331665039062 549.7688598632812 814.5541381835938 Q 578.9644165039062 836.7371215820312 642.4489135742188 848.8001098632812 L 687.345947265625 855.538330078125 L 748.4159545898438 860.00634765625 L 811.6483154296875 861.156982421875 Q 908.8219604492188 860.4119262695312 947.3690185546875 842.57666015625 Q 977.6112060546875 831.589599609375 973.7096557617188 806.3663940429688 L 967.0786743164062 776.7891845703125 Q 958.3564453125 727.42431640625 956.868408203125 656.812255859375 Q 948.9151611328125 630.591796875 939.7127685546875 648.3416137695312 L 926.0136108398438 710.249755859375 Q 910.7042846679688 771.4345092773438 899.8064575195312 780.043701171875 Q 881.739013671875 796.6635131835938 838.405029296875 804.5670776367188 Q 790.191650390625 813.553466796875 709.7122192382812 811.0385131835938 Q 636.3390502929688 804.7101440429688 600.6090698242188 790.87451171875 Q 577.0099487304688 780.9824829101562 561.54833984375 761.308837890625 Q 550.3805541992188 738.9405517578125 546.77734375 707.6399536132812 Q 541.9801025390625 662.5682983398438 552.5267333984375 598.2965698242188 Q 563.9732055664062 532.8654174804688 570.5531005859375 523.9972534179688 Q 583.783203125 496.82659912109375 569.6746826171875 480.6219787597656 Q 526.78515625 444.1693420410156 506.8251647949219 444.44708251953125 L 497.58477783203125 455.45697021484375" fill="rgb(0, 0, 0)" opacity="0.9992669" stroke-width="1.0"/>
  </g>
</svg>
