<?xml version="1.0" ?>
<svg height="1024" version="1.1" width="1024" xmlns="http://www.w3.org/2000/svg">
  <defs/>
  <g>
    <path d="M 775.4229125976562 441.61224365234375 Q 755.0291137695312 464.5610046386719 665.9896240234375 504.089111328125 L 551.9668579101562 548.9996948242188 Q 482.2747497558594 573.1703491210938 426.457275390625 588.5746459960938 Q 403.60943603515625 598.8525390625 460.98797607421875 616.782470703125 Q 486.55743408203125 621.4227294921875 505.74774169921875 606.0281372070312 L 728.2925415039062 505.9466857910156 Q 762.4143676757812 492.4163513183594 751.8753662109375 495.57745361328125 Q 786.5867309570312 484.213134765625 780.268310546875 519.9258422851562 Q 765.9208984375 596.474365234375 753.45068359375 638.2477416992188 Q 745.6026611328125 659.166259765625 714.2551879882812 645.1329956054688 Q 652.55322265625 621.0140991210938 686.9757080078125 654.5377807617188 Q 719.4271850585938 685.7547607421875 749.5894165039062 711.6878051757812 Q 765.4408569335938 722.8382568359375 779.6757202148438 700.6713256835938 Q 803.7439575195312 668.8327026367188 813.5322265625 622.6362915039062 Q 826.6329956054688 551.3551635742188 830.6956787109375 532.6265258789062 Q 842.8152465820312 502.02349853515625 863.9015502929688 480.0730895996094 Q 888.5132446289062 452.4041748046875 789.872314453125 436.4936828613281 L 775.4229125976562 441.61224365234375" fill="rgb(0, 0, 0)" opacity="0.997465" stroke-width="1.0"/>
  </g>
</svg>
