<?xml version="1.0" ?>
<svg height="1024" version="1.1" width="1024" xmlns="http://www.w3.org/2000/svg">
  <defs/>
  <g>
    <path d="M 567.6160888671875 583.9007568359375 C 557.4190673828125 586.383056640625 559.171875 602.0152587890625 563.7704467773438 610.8623046875 C 567.883056640625 623.291015625 572.0230712890625 644.04931640625 573.1438598632812 670.0364379882812 C 574.8717041015625 699.7601928710938 572.90283203125 741.3388061523438 567.6326904296875 790.6537475585938 C 565.1934814453125 805.5693969726562 564.1553344726562 818.0131225585938 571.9892578125 834.4030151367188 C 577.0817260742188 845.1370849609375 586.6669311523438 856.5460205078125 588.7122802734375 857.873779296875 C 598.738525390625 862.32080078125 604.8156127929688 851.3782958984375 611.4969482421875 836.6026000976562 C 617.9517822265625 819.3596801757812 620.64501953125 806.8757934570312 618.3558349609375 775.1998291015625 C 616.7588500976562 706.9711303710938 621.0965576171875 668.763427734375 625.8710327148438 631.4526977539062 C 630.656982421875 615.0189819335938 624.3515014648438 606.3512573242188 614.6069946289062 601.4559936523438 C 584.3285522460938 581.9498901367188 579.0123291015625 579.5386962890625 567.6160888671875 583.9007568359375" fill="rgb(0, 0, 0)" opacity="0.9985245" stroke-width="1.0"/>
  </g>
</svg>
