<?xml version="1.0" ?>
<svg height="1024" version="1.1" width="1024" xmlns="http://www.w3.org/2000/svg">
  <defs/>
  <g>
    <path d="M 251.9466094970703 560.79638671875 C 249.63491821289062 560.6409301757812 249.62489318847656 566.1898803710938 249.37796020507812 562.4661865234375 C 246.04603576660156 569.6129150390625 252.50148010253906 577.1005859375 252.50172424316406 579.1304931640625 C 264.5354919433594 605.75537109375 272.1625671386719 633.4735107421875 279.68475341796875 669.7922973632812 C 281.2132263183594 685.461669921875 286.9898986816406 693.6094360351562 293.723876953125 700.9597778320312 C 298.6854553222656 707.3084106445312 303.6840515136719 708.5804443359375 301.0619201660156 707.8623657226562 C 310.2303161621094 710.6397705078125 308.9530029296875 703.0662231445312 311.6932067871094 685.677978515625 C 312.4346008300781 696.13330078125 311.8661193847656 665.5828247070312 307.03643798828125 639.6427612304688 C 304.7962341308594 620.971435546875 301.34002685546875 599.7265625 300.7291259765625 580.4368286132812 C 300.246337890625 575.3341674804688 299.5976867675781 571.3275756835938 286.75177001953125 566.9852905273438 C 274.7342224121094 561.19091796875 254.51248168945312 557.8834838867188 251.9466094970703 560.79638671875" fill="rgb(0, 0, 0)" opacity="0.99853367" stroke-width="1.0"/>
  </g>
</svg>
