<?xml version="1.0" ?>
<svg height="1024" version="1.1" width="1024" xmlns="http://www.w3.org/2000/svg">
  <defs/>
  <g>
    <path d="M 459.83953857421875 347.58984375 C 336.0425720214844 373.4548034667969 315.40985107421875 378.5794677734375 273.5078430175781 384.0543212890625 C 205.23809814453125 394.1602783203125 156.8173370361328 400.52593994140625 123.5277328491211 404.263916015625 C 101.1668472290039 406.8768005371094 98.63478088378906 405.2408752441406 91.87064361572266 411.6271057128906 C 85.13619232177734 420.8416442871094 91.10659790039062 430.8624267578125 106.89092254638672 440.9903259277344 C 120.30866241455078 449.4676208496094 138.93902587890625 454.40875244140625 160.86817932128906 453.8813171386719 C 183.36593627929688 452.363525390625 188.48269653320312 450.67706298828125 206.62509155273438 444.8650207519531 C 239.29644775390625 435.28369140625 262.5746154785156 428.8220520019531 300.2117614746094 419.6743469238281 C 324.2997131347656 414.0728759765625 342.8177795410156 408.91412353515625 338.6697082519531 410.68780517578125 C 347.4860534667969 406.2872009277344 374.2519836425781 400.18450927734375 393.3238220214844 396.83636474609375 C 428.94976806640625 390.0185241699219 481.4776611328125 382.8534851074219 548.4619140625 374.75250244140625 C 569.5172119140625 372.4996337890625 582.4793701171875 370.75677490234375 581.1338500976562 370.54010009765625 C 589.3107299804688 367.7149658203125 590.4215087890625 362.9526062011719 587.498779296875 354.688720703125 C 581.6232299804688 340.4265441894531 555.7101440429688 333.62274169921875 540.9189453125 332.51544189453125 C 527.0961303710938 332.23834228515625 527.123046875 333.5174865722656 459.83953857421875 347.58984375" fill="rgb(0, 0, 0)" opacity="1.0" stroke-width="1.0"/>
  </g>
</svg>
