<?xml version="1.0" ?>
<svg height="1024" version="1.1" width="1024" xmlns="http://www.w3.org/2000/svg">
  <defs/>
  <g>
    <path d="M 504.3468322753906 436.8260803222656 Q 342.7935485839844 470.7893981933594 196.96780395507812 503.5023193359375 Q 174.10446166992188 509.4307861328125 178.78604125976562 524.6211547851562 Q 185.4603729248047 538.0574951171875 202.35374450683594 537.535400390625 L 289.94915771484375 513.8281860351562 Q 392.34246826171875 490.8322448730469 455.0421142578125 480.9057922363281 Q 494.3249816894531 474.31494140625 503.38934326171875 503.8784484863281 Q 511.05267333984375 509.2564697265625 501.39532470703125 561.8875732421875 Q 485.81842041015625 699.3860473632812 454.1305236816406 735.1663208007812 Q 470.0036315917969 764.7872924804688 497.6410217285156 777.261474609375 Q 517.7545166015625 772.4468383789062 527.010009765625 738.7207641601562 L 536.4537963867188 701.49755859375 Q 554.4678344726562 610.22509765625 560.6071166992188 566.584228515625 Q 567.8173828125 533.1971435546875 594.4071044921875 504.4176025390625 Q 604.95361328125 490.8335876464844 588.2110595703125 476.3734436035156 Q 566.9241943359375 458.0075378417969 529.1539306640625 436.5978698730469 L 504.3468322753906 436.8260803222656" fill="rgb(0, 0, 0)" opacity="0.9988455" stroke-width="1.0"/>
  </g>
</svg>
