<?xml version="1.0" ?>
<svg height="1024" version="1.1" width="1024" xmlns="http://www.w3.org/2000/svg">
  <defs/>
  <g>
    <path d="M 383.74359130859375 527.9976806640625 C 386.5824890136719 526.6296997070312 379.0744934082031 529.3765258789062 374.29571533203125 533.7886352539062 C 354.8623046875 545.615478515625 347.4493713378906 547.791015625 308.5245666503906 557.9575805664062 C 275.90228271484375 567.044677734375 277.1964111328125 565.4567260742188 270.8387451171875 570.4181518554688 C 261.7401123046875 579.2145385742188 275.12823486328125 590.1922607421875 292.0435791015625 587.029052734375 C 289.13970947265625 588.9359130859375 293.59307861328125 586.8104858398438 300.8348693847656 585.14892578125 C 318.21966552734375 578.1573486328125 353.82830810546875 572.56884765625 365.30938720703125 569.8501586914062 C 388.3547668457031 566.6669311523438 387.0658264160156 573.1478271484375 384.9391784667969 599.60595703125 C 383.8510437011719 602.6701049804688 382.5133361816406 618.7876586914062 380.8420715332031 624.0315551757812 C 378.3257751464844 640.6857299804688 374.6567687988281 646.8421020507812 381.00830078125 655.3432006835938 C 385.63629150390625 660.3702392578125 392.6576843261719 661.5325927734375 401.081787109375 658.6739501953125 C 408.0902099609375 656.0672607421875 413.8656921386719 650.6080932617188 416.1146240234375 646.2069702148438 C 417.9126281738281 644.4761962890625 420.3664855957031 638.1870727539062 423.99786376953125 624.9845581054688 C 429.7343444824219 607.1805419921875 436.63250732421875 594.0711669921875 442.7590637207031 586.39453125 C 452.1020812988281 577.5059814453125 455.7388610839844 565.7013549804688 452.908935546875 560.2089233398438 C 451.110107421875 555.3158569335938 445.0632019042969 549.9478759765625 443.37933349609375 550.2146606445312 C 427.3516845703125 542.7302856445312 422.8661193847656 539.0535278320312 416.9950866699219 536.0151977539062 C 411.97869873046875 532.003173828125 401.1434020996094 525.9102172851562 403.2887268066406 527.9055786132812 C 396.5594787597656 525.1864013671875 387.8338623046875 525.1155395507812 383.74359130859375 527.9976806640625" fill="rgb(0, 0, 0)" opacity="0.99877566" stroke-width="1.0"/>
  </g>
</svg>
