<?xml version="1.0" ?>
<svg height="1024" version="1.1" width="1024" xmlns="http://www.w3.org/2000/svg">
  <defs/>
  <g>
    <path d="M 145.7107696533203 493.1680908203125 C 140.31573486328125 493.7259826660156 135.8369140625 502.403076171875 138.1615447998047 506.134765625 C 137.3294219970703 506.53558349609375 139.14028930664062 511.8870849609375 142.9149169921875 520.29931640625 C 162.32801818847656 569.0216674804688 176.20303344726562 626.2507934570312 186.38970947265625 698.9309692382812 C 187.9359893798828 706.87744140625 189.55747985839844 727.334228515625 190.08660888671875 726.2801513671875 C 190.49351501464844 755.2432250976562 199.30397033691406 776.7596435546875 213.38189697265625 793.64697265625 C 222.87181091308594 806.1084594726562 229.26007080078125 808.175048828125 234.1990509033203 800.57080078125 C 237.41273498535156 792.61083984375 241.24050903320312 770.5697021484375 239.90798950195312 769.8328247070312 C 240.61590576171875 745.554443359375 238.6174774169922 730.1841430664062 229.20921325683594 671.6666870117188 C 219.21002197265625 605.7096557617188 214.86581420898438 575.3045043945312 210.88035583496094 544.2258911132812 C 210.28268432617188 535.1694946289062 206.76040649414062 511.3782653808594 205.6912078857422 514.6717529296875 C 207.12217712402344 510.3391418457031 188.69374084472656 501.0092468261719 164.49746704101562 496.406982421875 C 146.36952209472656 493.4834899902344 159.84727478027344 493.93218994140625 145.7107696533203 493.1680908203125" fill="rgb(0, 0, 0)" opacity="0.99904704" stroke-width="1.0"/>
  </g>
</svg>
