<?xml version="1.0" ?>
<svg height="1024" version="1.1" width="1024" xmlns="http://www.w3.org/2000/svg">
  <defs/>
  <g>
    <path d="M 542.1403198242188 96.02774810791016 C 536.9861450195312 97.08548736572266 536.3213500976562 106.46522521972656 538.7728881835938 116.38727569580078 C 536.9566650390625 108.32149505615234 539.4923706054688 117.22381591796875 541.9954833984375 118.91755676269531 C 551.1881103515625 128.00218200683594 551.6160278320312 127.93672943115234 584.905517578125 148.9582977294922 C 597.2521362304688 157.44815063476562 615.1434326171875 170.0200653076172 626.8599243164062 178.89736938476562 C 643.8807983398438 191.38204956054688 645.3526000976562 193.54034423828125 659.41845703125 198.10459899902344 C 674.7063598632812 201.0652618408203 678.8847045898438 197.41311645507812 683.2554931640625 188.4264678955078 C 684.53857421875 186.71435546875 685.5409545898438 181.9994659423828 685.6231689453125 177.6138458251953 C 685.8814697265625 165.1265106201172 676.5784912109375 140.24615478515625 671.5013427734375 134.52398681640625 C 657.9523315429688 117.70767974853516 628.8069458007812 106.07707214355469 578.4027709960938 97.63066864013672 C 556.3569946289062 94.38407135009766 553.0924682617188 93.84949493408203 542.1403198242188 96.02774810791016" fill="rgb(0, 0, 0)" opacity="0.99903464" stroke-width="1.0"/>
  </g>
</svg>
