<?xml version="1.0" ?>
<svg height="1024" version="1.1" width="1024" xmlns="http://www.w3.org/2000/svg">
  <defs/>
  <g>
    <path d="M 677.346435546875 540.653564453125 Q 692.0275268554688 588.8150024414062 690.579345703125 617.717041015625 Q 681.2164306640625 760.7183837890625 693.4257202148438 823.547119140625 Q 700.3086547851562 863.65478515625 720.3068237304688 875.9337768554688 Q 745.3480224609375 895.7354125976562 782.15576171875 902.7684326171875 Q 812.5798950195312 908.798095703125 855.3046875 904.6238403320312 Q 908.714599609375 898.4036254882812 926.1521606445312 887.479248046875 Q 975.2879638671875 865.9486694335938 964.4563598632812 840.1829223632812 Q 955.7532958984375 820.1116943359375 947.7450561523438 789.238525390625 Q 934.0010375976562 735.4131469726562 926.3235473632812 694.5424194335938 Q 918.5685424804688 676.387451171875 912.6800537109375 695.0443725585938 Q 896.5269165039062 788.4518432617188 880.5580444335938 827.47705078125 Q 875.7207641601562 844.9814453125 835.8080444335938 849.0761108398438 Q 793.688232421875 853.3312377929688 758.9368286132812 837.7765502929688 Q 736.3960571289062 827.7638549804688 730.6439208984375 795.0612182617188 Q 721.0162353515625 752.3523559570312 729.9474487304688 669.8836669921875 Q 735.734619140625 620.4215698242188 744.6111450195312 571.6817016601562 Q 731.4278564453125 537.4950561523438 688.0091552734375 530.1950073242188 L 677.346435546875 540.653564453125" fill="rgb(0, 0, 0)" opacity="0.9987504" stroke-width="1.0"/>
  </g>
</svg>
