<?xml version="1.0" ?>
<svg height="1024" version="1.1" width="1024" xmlns="http://www.w3.org/2000/svg">
  <defs/>
  <g>
    <path d="M 379.8420715332031 639.0967407226562 C 379.4550476074219 638.3350830078125 376.3665771484375 639.802490234375 354.0867004394531 645.5537109375 C 328.9739074707031 653.0980834960938 303.6048583984375 660.53076171875 299.55206298828125 663.0823364257812 C 293.732177734375 665.9881591796875 287.12432861328125 671.1251831054688 289.2417297363281 676.55126953125 C 291.71624755859375 679.9473876953125 295.7107238769531 684.0177001953125 314.2691955566406 685.1978759765625 C 314.63134765625 685.9984741210938 322.82135009765625 685.4037475585938 338.04449462890625 680.698486328125 C 357.3896789550781 676.1629638671875 390.65606689453125 670.2916870117188 434.21624755859375 665.3063354492188 C 441.5017395019531 663.6419067382812 437.097412109375 665.2346801757812 442.2471008300781 662.0095825195312 C 443.3974609375 658.6360473632812 443.50860595703125 662.178955078125 444.94354248046875 655.7698974609375 C 445.6681823730469 653.1889038085938 436.7950744628906 646.2369384765625 427.8013610839844 642.064453125 C 417.0859069824219 636.6964721679688 425.3091735839844 638.2545166015625 400.9420471191406 638.38134765625 C 427.8774108886719 638.2481079101562 380.6170349121094 638.386962890625 379.8420715332031 639.0967407226562" fill="rgb(0, 0, 0)" opacity="0.99818546" stroke-width="1.0"/>
  </g>
</svg>
