<?xml version="1.0" ?>
<svg height="1024" version="1.1" width="1024" xmlns="http://www.w3.org/2000/svg">
  <defs/>
  <g>
    <path d="M 642.517822265625 455.520263671875 C 635.969970703125 458.0111083984375 634.6668701171875 463.210205078125 634.7386474609375 478.2776184082031 C 633.7000732421875 492.0231628417969 631.4193725585938 502.6659851074219 626.8449096679688 517.518798828125 C 616.157470703125 547.9899291992188 597.2240600585938 578.0640869140625 569.7294921875 609.4819946289062 C 551.9542236328125 630.1895141601562 514.9154052734375 665.1290893554688 507.252685546875 669.6170654296875 C 488.8061828613281 682.6363525390625 459.7373046875 708.2124633789062 457.58795166015625 709.0779418945312 C 455.62994384765625 713.0709228515625 453.5552978515625 716.8374633789062 454.5614318847656 714.832763671875 C 454.7472229003906 718.926025390625 454.3480224609375 718.6953125 457.6174011230469 720.1900024414062 C 476.4521789550781 720.060302734375 500.3453063964844 712.0414428710938 525.4119262695312 696.20263671875 C 535.6171875 690.688720703125 553.6973266601562 677.0866088867188 567.2932739257812 665.6098022460938 C 584.54736328125 651.58984375 625.4437255859375 611.60107421875 630.2459716796875 603.120849609375 C 639.653076171875 589.859619140625 657.9613647460938 567.75244140625 693.1207885742188 528.9915771484375 C 705.0619506835938 514.5851440429688 711.8440551757812 513.120849609375 707.1507568359375 498.3027648925781 C 704.2521362304688 494.0342102050781 706.3923950195312 493.6767272949219 694.3367919921875 482.0886535644531 C 684.0877075195312 471.970947265625 672.36572265625 463.2210998535156 665.1386108398438 460.3709411621094 C 656.5620727539062 455.2029724121094 645.4013671875 454.2698974609375 642.517822265625 455.520263671875" fill="rgb(0, 0, 0)" opacity="0.9987883" stroke-width="1.0"/>
  </g>
</svg>
