<?xml version="1.0" ?>
<svg height="1024" version="1.1" width="1024" xmlns="http://www.w3.org/2000/svg">
  <defs/>
  <g>
    <path d="M 474.517822265625 426.7247619628906 Q 455.3575134277344 432.7869873046875 472.5887756347656 450.12054443359375 Q 560.630615234375 518.6705322265625 582.2792358398438 570.8873901367188 Q 621.1805419921875 621.70458984375 620.5333862304688 689.6148071289062 Q 620.8133544921875 736.3365478515625 609.3443603515625 785.75146484375 Q 599.059814453125 835.9925537109375 587.1831665039062 847.2360229492188 Q 583.5953369140625 853.0151977539062 556.4400634765625 850.571533203125 Q 532.13671875 849.1715087890625 489.69879150390625 841.5603637695312 Q 458.0675354003906 836.0391235351562 482.57452392578125 864.1339721679688 L 526.1585083007812 902.0867309570312 Q 560.2711791992188 936.3114624023438 569.69921875 951.895751953125 Q 593.412841796875 979.1470336914062 624.2756958007812 947.377197265625 Q 637.9149169921875 933.4578857421875 652.4193725585938 887.9176635742188 Q 671.2594604492188 826.609375 671.0386352539062 747.9915771484375 Q 673.1849975585938 705.4933471679688 658.5702514648438 641.338134765625 Q 650.7918090820312 603.1642456054688 640.7572631835938 590.9140625 Q 603.5216674804688 526.39013671875 589.8594970703125 507.21380615234375 Q 552.3999633789062 462.4771728515625 519.89697265625 443.23046875 Q 490.3675537109375 423.6102600097656 474.517822265625 426.7247619628906" fill="rgb(0, 0, 0)" opacity="0.9985444" stroke-width="1.0"/>
  </g>
</svg>
