<?xml version="1.0" ?>
<svg height="1024" version="1.1" width="1024" xmlns="http://www.w3.org/2000/svg">
  <defs/>
  <g>
    <path d="M 498.795166015625 456.4197692871094 C 490.3183898925781 459.4497985839844 492.7137756347656 464.59796142578125 490.28173828125 465.9964599609375 C 489.6869201660156 475.1513671875 485.2933654785156 487.43536376953125 478.5195007324219 500.1778259277344 C 468.4357604980469 519.3116455078125 447.0675048828125 547.7627563476562 413.7355651855469 580.93798828125 C 391.75506591796875 602.5806884765625 378.50555419921875 614.768310546875 349.60174560546875 639.6607055664062 C 343.8508605957031 643.9109497070312 339.0140686035156 648.0325927734375 339.8982238769531 650.205810546875 C 341.8138427734375 652.598388671875 354.75030517578125 651.84375 370.31280517578125 647.3895874023438 C 403.2894592285156 637.2931518554688 443.45660400390625 609.6776733398438 491.5863952636719 560.5238647460938 C 509.74163818359375 543.1800537109375 533.1520385742188 514.1561279296875 538.4796752929688 508.66021728515625 C 548.5856323242188 498.1084899902344 540.4957885742188 480.62237548828125 525.3145141601562 467.5636901855469 C 514.462890625 458.69793701171875 506.2257385253906 455.3320007324219 498.795166015625 456.4197692871094" fill="rgb(0, 0, 0)" opacity="0.9989719" stroke-width="1.0"/>
  </g>
</svg>
