<?xml version="1.0" ?>
<svg height="1024" version="1.1" width="1024" xmlns="http://www.w3.org/2000/svg">
  <defs/>
  <g>
    <path d="M 443.0350646972656 122.02969360351562 C 443.32147216796875 122.8009033203125 440.09521484375 124.44561004638672 440.3759765625 133.37522888183594 C 438.4063415527344 135.331298828125 440.3927001953125 144.289794921875 465.3150329589844 166.5526885986328 C 473.4194641113281 173.3448944091797 489.5609436035156 192.3463897705078 495.0724792480469 198.5777587890625 C 498.544677734375 202.82191467285156 500.06402587890625 206.02684020996094 507.0777893066406 211.74440002441406 C 513.294677734375 217.58367919921875 527.598388671875 222.28782653808594 534.09619140625 219.01913452148438 C 538.3592529296875 217.99729919433594 542.1572875976562 212.09988403320312 544.6123657226562 208.24403381347656 C 549.6417236328125 193.35536193847656 543.86767578125 172.3737030029297 543.0398559570312 165.0953826904297 C 539.5542602539062 152.73101806640625 528.9775390625 145.13670349121094 519.2285766601562 140.1852569580078 C 513.4349975585938 136.6747589111328 478.48590087890625 124.67316436767578 467.8123474121094 123.06705474853516 C 459.2745056152344 120.28360748291016 443.7633972167969 119.21662902832031 443.0350646972656 122.02969360351562" fill="rgb(0, 0, 0)" opacity="0.9998621" stroke-width="1.0"/>
  </g>
</svg>
