<?xml version="1.0" ?>
<svg height="1024" version="1.1" width="1024" xmlns="http://www.w3.org/2000/svg">
  <defs/>
  <g>
    <path d="M 475.0535888671875 426.4752197265625 C 468.1220703125 427.9833984375 463.2245178222656 431.91607666015625 464.7259826660156 439.1697998046875 C 464.7833557128906 441.3023681640625 471.11773681640625 450.5827331542969 477.7405090332031 453.0387878417969 C 477.8170166015625 453.05303955078125 493.754638671875 467.2102355957031 510.9617919921875 483.0178527832031 C 547.501953125 513.9556884765625 558.8798217773438 528.4127197265625 580.9151000976562 567.21728515625 C 605.0574951171875 605.7774658203125 606.9029541015625 610.5250854492188 614.1200561523438 635.51513671875 C 618.9852294921875 654.7393798828125 619.88232421875 668.9444580078125 620.6585083007812 685.4671630859375 C 620.732421875 724.3549194335938 616.9098510742188 753.1849975585938 607.843505859375 792.6920166015625 C 599.78564453125 829.1978759765625 591.5090942382812 847.1998291015625 582.5123291015625 850.17919921875 C 572.6336669921875 853.4999389648438 532.3069458007812 848.5719604492188 509.68548583984375 845.0833129882812 C 495.263671875 841.3216552734375 477.1050109863281 840.1173706054688 476.5979919433594 841.380126953125 C 468.85748291015625 841.7351684570312 471.5000915527344 849.161376953125 478.3951721191406 859.2677612304688 C 484.53448486328125 867.880126953125 488.6662902832031 868.8565673828125 499.8327941894531 879.268798828125 C 521.2637329101562 896.6536254882812 549.33544921875 924.5159301757812 561.4757080078125 940.7656860351562 C 570.9642333984375 952.3905639648438 570.843994140625 955.345703125 581.0519409179688 961.40087890625 C 581.9775390625 962.849853515625 592.754638671875 964.8821411132812 588.3179931640625 964.2981567382812 C 601.4678344726562 965.255615234375 610.271484375 960.3152465820312 620.4530639648438 951.174560546875 C 633.420166015625 937.232666015625 632.3309326171875 937.3217163085938 639.2847900390625 923.0042724609375 C 661.9413452148438 871.97900390625 672.1445922851562 810.677001953125 671.1224975585938 734.858154296875 C 670.3015747070312 697.6405639648438 669.1548461914062 701.2510375976562 666.7033081054688 683.8073120117188 C 660.0181884765625 643.4762573242188 654.4732055664062 621.1541748046875 649.00244140625 606.0160522460938 C 649.8903198242188 605.0226440429688 635.898681640625 582.8334350585938 621.1375732421875 557.3430786132812 C 594.5177612304688 513.7299194335938 599.8955078125 517.93994140625 571.1998291015625 486.1295471191406 C 543.8839111328125 456.4722595214844 510.2255859375 434.0599670410156 487.5340270996094 427.1388854980469 C 474.0660705566406 425.22222900390625 476.40777587890625 427.298583984375 475.0535888671875 426.4752197265625" fill="rgb(0, 0, 0)" opacity="0.99886936" stroke-width="1.0"/>
  </g>
</svg>
