<?xml version="1.0" ?>
<svg height="1024" version="1.1" width="1024" xmlns="http://www.w3.org/2000/svg">
  <defs/>
  <g>
    <path d="M 595.8081665039062 50.32044219970703 C 587.3156127929688 54.741641998291016 586.622314453125 66.28385925292969 593.0184936523438 79.09264373779297 C 598.462646484375 93.5932388305664 602.3167114257812 103.77115631103516 601.2899169921875 113.8403549194336 C 600.58935546875 115.36407470703125 584.6704711914062 216.48739624023438 580.65380859375 235.5880889892578 C 577.486328125 250.64193725585938 575.640625 260.3587646484375 575.6754150390625 264.182373046875 C 574.01220703125 287.6372985839844 569.138671875 312.6944885253906 560.9107055664062 341.290771484375 C 557.1621704101562 353.1761779785156 552.3424072265625 365.5885009765625 563.7547607421875 371.1585388183594 C 569.0093383789062 373.1778564453125 582.2072143554688 371.9494323730469 591.9533081054688 359.3131408691406 C 598.765869140625 351.92083740234375 613.3536376953125 314.0553894042969 622.6755981445312 264.8614196777344 C 624.9110717773438 251.4181365966797 627.2035522460938 246.73818969726562 631.8604736328125 229.97885131835938 C 636.7457275390625 212.78379821777344 639.1251220703125 207.16639709472656 639.2339477539062 203.79586791992188 C 642.75 179.95114135742188 653.2958984375 153.04641723632812 667.63427734375 123.8931884765625 C 679.8731079101562 100.85679626464844 678.2904052734375 105.56785583496094 676.185302734375 95.87673950195312 C 670.7670288085938 84.0101089477539 643.4461059570312 64.18570709228516 622.9242553710938 53.76996612548828 C 611.8994750976562 48.210330963134766 604.0969848632812 45.7616081237793 595.8081665039062 50.32044219970703" fill="rgb(0, 0, 0)" opacity="0.9997667" stroke-width="1.0"/>
  </g>
</svg>
