<?xml version="1.0" ?>
<svg height="1024" version="1.1" width="1024" xmlns="http://www.w3.org/2000/svg">
  <defs/>
  <g>
    <path d="M 462.13775634765625 369.2099609375 C 400.4607849121094 381.5074462890625 369.0901794433594 386.83843994140625 369.2764892578125 388.0768737792969 C 358.2359619140625 393.27520751953125 352.9363098144531 401.0931091308594 354.7621765136719 411.9544677734375 C 357.7278137207031 417.4812316894531 362.2611389160156 421.86517333984375 373.7337951660156 420.4450988769531 C 423.603515625 410.92803955078125 443.77386474609375 405.9502868652344 466.033203125 403.31866455078125 C 482.28668212890625 400.6966247558594 575.7354736328125 390.1425476074219 601.1821899414062 387.39312744140625 C 623.7799682617188 385.52392578125 620.5473022460938 384.782470703125 625.2625122070312 381.0857849121094 C 628.0758666992188 377.45843505859375 627.6258544921875 374.7431640625 622.6040649414062 369.0523681640625 C 622.5205688476562 368.3736572265625 608.6824951171875 357.53857421875 608.079345703125 356.5450439453125 L 599.2431030273438 351.04461669921875 L 559.556640625 351.0388488769531 L 557.4955444335938 350.5498352050781 L 462.13775634765625 369.2099609375" fill="rgb(0, 0, 0)" opacity="0.9990352" stroke-width="1.0"/>
  </g>
</svg>
