<?xml version="1.0" ?>
<svg height="1024" version="1.1" width="1024" xmlns="http://www.w3.org/2000/svg">
  <defs/>
  <g>
    <path d="M 764.6965942382812 182.91043090820312 C 754.7468872070312 183.01095581054688 734.7415161132812 188.71450805664062 712.9860229492188 192.4171600341797 C 692.4669799804688 196.96453857421875 669.5560302734375 201.0026092529297 656.0164794921875 203.2042999267578 C 641.3255004882812 205.1877899169922 630.4385986328125 207.94326782226562 613.3222045898438 211.49659729003906 C 583.8619384765625 218.9508514404297 553.2400512695312 222.6849822998047 471.52874755859375 236.01712036132812 C 409.1239929199219 245.8694305419922 349.5914001464844 255.49546813964844 334.51934814453125 258.20672607421875 C 328.6260681152344 259.4103698730469 281.2991638183594 266.9314270019531 235.3733367919922 274.0534362792969 C 190.16531372070312 281.1040954589844 151.3996124267578 287.39862060546875 149.75486755371094 287.4562683105469 C 145.133544921875 288.50390625 139.30462646484375 289.455322265625 143.8480682373047 298.94970703125 C 141.823486328125 296.4156188964844 142.5765838623047 296.5094909667969 147.91896057128906 302.8351745605469 C 160.7050018310547 315.7851257324219 177.23655700683594 323.6067199707031 199.6938934326172 321.21710205078125 C 202.42001342773438 321.4262390136719 220.16073608398438 317.3560791015625 222.93605041503906 317.14337158203125 C 244.1589813232422 307.1223449707031 276.6722717285156 301.8768005371094 312.4768981933594 298.80743408203125 C 329.1386413574219 298.2885437011719 326.5238037109375 297.2476806640625 357.554931640625 290.4861145019531 C 364.5404052734375 287.84356689453125 376.9895935058594 287.01995849609375 468.8824768066406 273.9290771484375 C 524.522216796875 266.4013366699219 578.2814331054688 258.39410400390625 604.61474609375 255.5757598876953 C 611.941162109375 253.24290466308594 780.2882080078125 241.14035034179688 798.7406005859375 238.94186401367188 C 849.9541625976562 239.2166748046875 862.9541015625 232.70770263671875 861.4696044921875 225.47259521484375 C 862.9539794921875 221.20782470703125 861.2332153320312 215.05418395996094 852.8944091796875 207.59976196289062 C 846.84912109375 200.29942321777344 819.2296142578125 187.4754180908203 802.4240112304688 184.913330078125 C 785.6671752929688 180.70233154296875 761.0111083984375 182.7218475341797 764.6965942382812 182.91043090820312" fill="rgb(0, 0, 0)" opacity="0.99994034" stroke-width="1.0"/>
  </g>
</svg>
