<?xml version="1.0" ?>
<svg height="1024" version="1.1" width="1024" xmlns="http://www.w3.org/2000/svg">
  <defs/>
  <g>
    <path d="M 294.8421630859375 132.17599487304688 C 287.8065490722656 133.65725708007812 271.091552734375 139.31411743164062 271.95550537109375 143.731689453125 C 270.6961669921875 143.94163513183594 269.77978515625 150.7891082763672 279.31292724609375 158.4468994140625 C 285.5483093261719 164.8716583251953 287.9278259277344 168.3422393798828 294.0108947753906 180.80172729492188 C 305.65936279296875 204.2367401123047 320.7310791015625 261.2427673339844 329.3017883300781 329.64825439453125 C 333.8590087890625 360.7757873535156 338.785400390625 391.57818603515625 343.6140441894531 407.7230224609375 C 345.88623046875 422.94989013671875 351.4509582519531 435.7709045410156 356.4379577636719 442.9399719238281 C 357.8647766113281 446.95947265625 361.9621887207031 448.2108154296875 363.86016845703125 449.0830078125 C 367.4931640625 449.81744384765625 373.1759033203125 444.4352111816406 374.8172607421875 435.3612060546875 C 378.5005798339844 414.9873962402344 373.87017822265625 334.06402587890625 369.25482177734375 296.44158935546875 C 367.8887023925781 290.82720947265625 366.8105773925781 269.8738098144531 366.59429931640625 272.0573425292969 C 365.2132263183594 256.2388916015625 365.7498779296875 255.76495361328125 364.01629638671875 248.5810089111328 C 360.3358459472656 229.6444854736328 359.3910827636719 212.9477081298828 360.82806396484375 190.00721740722656 C 361.7223205566406 190.02996826171875 360.0626525878906 169.02908325195312 362.36773681640625 172.82545471191406 C 360.80792236328125 172.0679168701172 364.6297912597656 166.27944946289062 361.2689208984375 157.64617919921875 C 355.7153015136719 149.374755859375 346.8529968261719 143.6671905517578 325.8904113769531 136.04583740234375 C 309.4949035644531 129.7310791015625 306.07916259765625 131.3245086669922 294.8421630859375 132.17599487304688" fill="rgb(0, 0, 0)" opacity="0.99957836" stroke-width="1.0"/>
  </g>
</svg>
