<?xml version="1.0" ?>
<svg height="1024" version="1.1" width="1024" xmlns="http://www.w3.org/2000/svg">
  <defs/>
  <g>
    <path d="M 800.314453125 436.08575439453125 L 743.1056518554688 449.4966735839844 L 578.1802368164062 469.5444641113281 L 421.24481201171875 494.9437255859375 L 395.38531494140625 502.47308349609375 Q 281.08038330078125 520.7393798828125 177.85525512695312 537.8345336914062 Q 157.63743591308594 566.5946044921875 192.41122436523438 577.3408813476562 Q 252.5940704345703 559.54296875 299.13671875 552.3346557617188 L 622.0965576171875 506.3400573730469 L 698.9718627929688 498.2012939453125 Q 796.5276489257812 490.1877136230469 791.495849609375 492.68853759765625 Q 808.6473999023438 493.7972412109375 809.642333984375 527.4851684570312 L 811.8987426757812 602.7528076171875 Q 813.6106567382812 749.3982543945312 796.33984375 826.3438720703125 Q 791.0651245117188 849.2810668945312 765.538330078125 841.176025390625 Q 742.1351928710938 835.4055786132812 702.4873046875 819.334716796875 Q 684.8231201171875 822.557861328125 733.3893432617188 869.657470703125 Q 777.9960327148438 920.7177734375 783.4567260742188 936.3458251953125 Q 802.9214477539062 963.1235961914062 823.2731323242188 934.231689453125 Q 844.3392333984375 908.6174926757812 857.4492797851562 815.9288940429688 L 866.3610229492188 725.1468505859375 Q 869.8157348632812 615.2025756835938 873.5098266601562 527.2196655273438 Q 891.76904296875 475.8712463378906 893.885009765625 483.791015625 Q 872.6707153320312 456.86468505859375 814.3932495117188 436.76824951171875 L 800.314453125 436.08575439453125" fill="rgb(0, 0, 0)" opacity="0.9975185" stroke-width="1.0"/>
  </g>
</svg>
