<?xml version="1.0" ?>
<svg height="1024" version="1.1" width="1024" xmlns="http://www.w3.org/2000/svg">
  <defs/>
  <g>
    <path d="M 301.3428039550781 57.59221267700195 C 290.6039733886719 60.53017044067383 283.4974365234375 63.738304138183594 282.1621398925781 67.065185546875 C 280.4046630859375 68.22312927246094 279.8413391113281 73.66480255126953 283.2483825683594 77.65959930419922 C 281.83868408203125 76.68814086914062 285.4577941894531 81.81916046142578 289.79400634765625 85.85360717773438 C 300.19158935546875 97.93352508544922 309.1311340332031 115.86393737792969 314.85137939453125 136.906494140625 C 318.1422119140625 146.7593994140625 327.0122375488281 195.67201232910156 331.7514953613281 236.9324188232422 C 333.1804504394531 247.23989868164062 335.18212890625 262.58770751953125 336.55474853515625 271.9676208496094 C 338.202880859375 287.2317199707031 338.260986328125 278.9620361328125 340.2153625488281 310.5016174316406 C 340.7314453125 320.53900146484375 341.80322265625 325.3516845703125 342.7102966308594 333.6377258300781 C 343.960205078125 337.2986145019531 344.38677978515625 348.9880065917969 345.3935241699219 364.32769775390625 C 346.3154602050781 381.177978515625 346.0046081542969 376.8665466308594 348.9810791015625 392.031982421875 C 355.5977478027344 424.87432861328125 359.0107421875 436.0945739746094 362.3935852050781 437.8592529296875 C 365.0810546875 439.9290771484375 367.5279235839844 442.7676696777344 373.0848693847656 439.0060119628906 C 376.57440185546875 434.4991760253906 379.97857666015625 428.2220764160156 381.7947082519531 414.1098937988281 C 383.6351623535156 405.1565856933594 384.83746337890625 373.29248046875 381.6966552734375 347.0916748046875 C 379.9744567871094 334.8530578613281 379.6848449707031 328.9177551269531 379.2829284667969 311.5491638183594 C 378.1466064453125 291.4111022949219 377.8651123046875 275.45745849609375 376.2434387207031 258.24725341796875 C 375.2615051269531 243.90721130371094 374.8361511230469 235.0743865966797 373.71533203125 212.11317443847656 C 373.1825866699219 209.04957580566406 373.76788330078125 203.80728149414062 371.8575439453125 187.70350646972656 C 370.84515380859375 186.9279022216797 371.13287353515625 172.89857482910156 370.04156494140625 142.19802856445312 C 370.14892578125 117.19750213623047 370.9430236816406 112.74186706542969 371.7782897949219 105.0157241821289 C 373.8441162109375 102.66741943359375 374.8171691894531 85.09490203857422 372.3960266113281 94.93302917480469 C 376.25628662109375 91.16349029541016 369.8387145996094 80.50223541259766 367.3075866699219 79.87236785888672 C 362.4116516113281 74.92887878417969 341.5718994140625 65.0544204711914 332.9326477050781 62.3472900390625 C 313.6007385253906 54.26120376586914 306.90240478515625 57.69109344482422 301.3428039550781 57.59221267700195" fill="rgb(0, 0, 0)" opacity="0.9992703" stroke-width="1.0"/>
  </g>
</svg>
