<?xml version="1.0" ?>
<svg height="1024" version="1.1" width="1024" xmlns="http://www.w3.org/2000/svg">
  <defs/>
  <g>
    <path d="M 415.6394348144531 126.20249938964844 C 400.82891845703125 127.79379272460938 390.98760986328125 131.01455688476562 375.95916748046875 135.75604248046875 C 372.2964172363281 137.8142852783203 358.73175048828125 141.5184326171875 337.1434631347656 148.3358917236328 C 314.7555847167969 155.9606475830078 314.875244140625 154.84271240234375 228.57656860351562 170.1366424560547 C 209.5735626220703 173.2501678466797 196.11875915527344 175.11544799804688 193.00592041015625 176.92462158203125 C 186.97557067871094 177.8052978515625 181.40972900390625 183.61972045898438 186.31275939941406 187.82357788085938 C 187.3824005126953 191.5887451171875 199.58702087402344 198.1479034423828 211.95553588867188 201.7348175048828 C 217.59274291992188 202.08306884765625 220.46734619140625 205.44618225097656 249.3849639892578 205.35557556152344 C 271.3426818847656 204.36325073242188 273.8036193847656 203.62110900878906 293.8414306640625 200.6742401123047 C 304.0020751953125 198.42384338378906 326.4846496582031 194.33677673339844 359.98956298828125 186.3705596923828 C 375.52191162109375 183.4224395751953 392.2187805175781 178.37074279785156 425.7230529785156 172.2748260498047 C 435.2468566894531 170.77122497558594 462.3392639160156 162.6378936767578 469.34136962890625 159.09747314453125 C 476.2291259765625 154.28530883789062 479.385986328125 148.86239624023438 474.1394958496094 141.68267822265625 C 470.8231506347656 138.0567169189453 464.5626220703125 133.1811065673828 452.7188415527344 129.37840270996094 C 443.29425048828125 125.64167022705078 438.5529479980469 125.54146575927734 435.5061340332031 125.37408447265625 C 428.3104248046875 124.91703796386719 412.6622314453125 125.789794921875 415.6394348144531 126.20249938964844" fill="rgb(0, 0, 0)" opacity="0.99994063" stroke-width="1.0"/>
  </g>
</svg>
