<?xml version="1.0" ?>
<svg height="1024" version="1.1" width="1024" xmlns="http://www.w3.org/2000/svg">
  <defs/>
  <g>
    <path d="M 698.029541015625 209.18533325195312 C 695.3757934570312 210.060791015625 692.8714599609375 209.9400177001953 684.2069091796875 215.08639526367188 C 673.8685302734375 222.75216674804688 663.9898681640625 225.7549591064453 633.243896484375 233.6708221435547 C 597.6422729492188 242.06109619140625 529.8759765625 258.4533996582031 511.7350158691406 261.4461669921875 C 468.765625 270.28399658203125 357.70684814453125 286.10784912109375 301.46453857421875 292.05682373046875 C 284.8780822753906 293.18218994140625 277.1874084472656 294.5048522949219 275.0925598144531 302.9486999511719 C 276.4329833984375 303.1138610839844 273.4452819824219 298.31732177734375 276.62384033203125 307.73681640625 C 281.6373596191406 314.2554931640625 284.0813903808594 315.25921630859375 293.469482421875 318.72503662109375 C 307.1746826171875 320.8191833496094 300.3723449707031 320.1584167480469 332.62384033203125 318.374267578125 C 361.60223388671875 316.9242858886719 357.51123046875 316.38250732421875 408.385009765625 309.0107421875 C 499.5589904785156 295.4064636230469 569.0960083007812 284.9197082519531 582.8868408203125 282.9918212890625 C 640.2363891601562 274.6400451660156 677.3950805664062 272.0166015625 685.7169189453125 276.4612731933594 C 687.4710083007812 275.76568603515625 695.0393676757812 285.87969970703125 696.6232299804688 303.431396484375 C 698.7835083007812 318.68609619140625 698.1532592773438 330.513916015625 691.7400512695312 398.6201171875 C 681.5953369140625 493.2801208496094 660.980712890625 557.8961791992188 639.8567504882812 577.8120727539062 C 632.1112670898438 585.2400512695312 626.0575561523438 587.8994140625 616.1605834960938 588.0576782226562 C 603.1718139648438 587.61767578125 593.6936645507812 584.5079956054688 574.3477783203125 576.3934326171875 C 562.719482421875 570.87353515625 562.362060546875 569.4815063476562 549.2108154296875 569.063232421875 C 548.4591674804688 569.5592651367188 546.9561767578125 569.2981567382812 546.55224609375 573.9152221679688 C 552.8721313476562 591.7661743164062 554.1129760742188 587.7572021484375 563.0275268554688 599.6207275390625 C 585.1964111328125 625.2843017578125 605.9989624023438 654.6793823242188 616.031494140625 673.364990234375 C 617.331787109375 678.2633666992188 633.8486328125 692.3922729492188 647.3587036132812 688.3028564453125 C 656.043212890625 686.919189453125 660.58056640625 680.9194946289062 673.3790893554688 669.9420776367188 C 701.9408569335938 643.984130859375 721.6646118164062 609.2928466796875 735.3397216796875 563.9537353515625 C 745.6525268554688 531.9691162109375 754.5408325195312 463.870361328125 759.9268188476562 366.75628662109375 C 760.675048828125 345.7247009277344 762.5875854492188 330.5030212402344 764.9216918945312 318.37286376953125 C 768.7182006835938 297.9597473144531 778.2750244140625 274.0133972167969 785.6654052734375 268.1778259277344 C 791.10400390625 261.9602966308594 793.0435791015625 254.3900604248047 789.5037231445312 247.7698211669922 C 785.737548828125 242.0211944580078 766.8731079101562 230.4007568359375 734.8696899414062 217.05995178222656 C 716.0711059570312 208.7346954345703 712.7359619140625 206.57540893554688 698.029541015625 209.18533325195312" fill="rgb(0, 0, 0)" opacity="0.99955887" stroke-width="1.0"/>
  </g>
</svg>
