<?xml version="1.0" ?>
<svg height="1024" version="1.1" width="1024" xmlns="http://www.w3.org/2000/svg">
  <defs/>
  <g>
    <path d="M 244.9782257080078 276.1485900878906 C 239.322998046875 277.83294677734375 236.80462646484375 289.3067321777344 243.17015075683594 311.0096740722656 C 252.964111328125 353.606689453125 250.9797821044922 362.4481506347656 248.6123809814453 394.11517333984375 C 240.41513061523438 501.23382568359375 237.0003204345703 719.7210693359375 243.4569091796875 770.5919189453125 C 243.34768676757812 784.7544555664062 251.04815673828125 819.6180419921875 253.5699005126953 825.5116577148438 C 263.2149658203125 852.6535034179688 285.24200439453125 873.9255981445312 318.967041015625 892.2631225585938 C 357.6915588378906 913.0037231445312 411.92291259765625 927.3790893554688 482.7104797363281 934.63720703125 C 527.6807250976562 939.29541015625 605.7220458984375 942.2373046875 649.0270385742188 937.7374877929688 C 672.3841552734375 935.9837646484375 725.831298828125 928.595703125 744.5042114257812 924.1624755859375 C 807.9976806640625 911.4832763671875 871.0709228515625 887.4669189453125 926.5973510742188 855.4367065429688 C 938.8204956054688 848.114501953125 945.7145385742188 846.3372802734375 951.8223876953125 831.823486328125 C 953.1331787109375 824.9506225585938 954.0521240234375 817.9225463867188 948.9432983398438 805.947509765625 C 944.433349609375 791.9935302734375 938.941650390625 770.0894775390625 935.2066650390625 747.3296508789062 C 930.4286499023438 722.0360717773438 924.700439453125 683.2632446289062 922.8627319335938 669.6846923828125 C 923.264404296875 660.362060546875 920.17822265625 654.6070556640625 921.1199951171875 658.5910034179688 C 920.92626953125 652.9437255859375 914.9470825195312 647.46826171875 916.2056884765625 649.6072998046875 C 911.132080078125 645.21044921875 907.4060668945312 653.8518676757812 906.5003051757812 660.7227172851562 C 902.0371704101562 676.4776000976562 881.9346923828125 736.9752197265625 866.4373168945312 771.866455078125 C 855.7279052734375 795.4466552734375 851.4028930664062 803.5496215820312 842.4912109375 810.0819702148438 C 805.9603271484375 843.9132690429688 715.8856201171875 871.3543090820312 616.813232421875 881.482177734375 C 576.1064453125 885.2438354492188 538.20166015625 885.1118774414062 503.12005615234375 881.8126220703125 C 450.6983947753906 876.4657592773438 409.1572265625 865.7047729492188 372.2704162597656 852.2811889648438 C 347.11737060546875 841.0546264648438 322.6986083984375 826.1124267578125 307.4571228027344 807.0026245117188 C 283.6240539550781 778.0054931640625 275.90203857421875 717.5881958007812 283.9495544433594 624.3397827148438 C 285.7398986816406 598.547607421875 288.8139953613281 557.99560546875 291.03277587890625 522.950927734375 C 298.70458984375 403.64837646484375 303.68255615234375 339.6728820800781 306.25738525390625 326.2944030761719 C 308.6567687988281 324.3217468261719 309.1025695800781 301.1171569824219 309.1769714355469 312.615966796875 C 309.03497314453125 300.3265380859375 305.0741271972656 300.7698059082031 299.4740905761719 297.0784912109375 C 293.45428466796875 293.968994140625 290.0677490234375 292.2853698730469 286.50738525390625 289.89556884765625 C 275.533203125 282.38482666015625 265.466796875 277.04541015625 262.7935485839844 276.8526306152344 C 253.9864044189453 273.6678771972656 245.45603942871094 275.51904296875 244.9782257080078 276.1485900878906" fill="rgb(0, 0, 0)" opacity="1.0" stroke-width="1.0"/>
  </g>
</svg>
