<?xml version="1.0" ?>
<svg height="1024" version="1.1" width="1024" xmlns="http://www.w3.org/2000/svg">
  <defs/>
  <g>
    <path d="M 320.01971435546875 48.5475959777832 C 318.757080078125 51.61128616333008 314.71722412109375 51.770751953125 314.4367980957031 60.04339599609375 C 315.24615478515625 66.53530883789062 317.2050476074219 68.37248992919922 319.7435302734375 74.79884338378906 C 322.4636535644531 78.7084732055664 327.6660461425781 92.4675064086914 328.968017578125 98.39688110351562 C 328.59759521484375 94.1751480102539 331.63922119140625 135.7494659423828 332.1723327636719 204.26829528808594 C 332.66357421875 264.47991943359375 329.572021484375 262.8512878417969 338.7093200683594 272.18328857421875 C 349.51214599609375 278.43231201171875 363.98095703125 266.5701599121094 367.74383544921875 252.29666137695312 C 368.7155456542969 249.86036682128906 371.2413024902344 231.9434356689453 374.4089050292969 210.96836853027344 C 377.52056884765625 191.36935424804688 380.8155822753906 167.99432373046875 382.9111633300781 158.52365112304688 C 383.49224853515625 155.5380096435547 384.8424377441406 148.4799346923828 385.73101806640625 140.4016876220703 C 388.23577880859375 120.7165756225586 392.39202880859375 108.40411376953125 397.4540710449219 96.75287628173828 C 401.1467590332031 91.17444610595703 401.7389221191406 88.20854187011719 400.73858642578125 88.9027328491211 C 401.9451599121094 76.72429656982422 364.6598205566406 54.74560546875 342.02996826171875 48.32005310058594 C 335.1953125 46.6675910949707 330.4283752441406 44.271183013916016 320.01971435546875 48.5475959777832" fill="rgb(0, 0, 0)" opacity="1.0" stroke-width="1.0"/>
  </g>
</svg>
