<?xml version="1.0" ?>
<svg height="1024" version="1.1" width="1024" xmlns="http://www.w3.org/2000/svg">
  <defs/>
  <g>
    <path d="M 213.6854248046875 441.81121826171875 C 206.9744110107422 440.4518127441406 207.77455139160156 455.3544006347656 208.35629272460938 453.0455017089844 C 208.14772033691406 459.86920166015625 202.21102905273438 473.22100830078125 186.32688903808594 494.773681640625 C 180.3209686279297 504.5858459472656 174.4010009765625 510.8733825683594 161.87582397460938 523.7972412109375 C 154.73318481445312 530.7030639648438 141.3329315185547 542.8447875976562 137.7958526611328 546.2036743164062 C 129.66656494140625 553.0501098632812 123.65299224853516 558.4547119140625 126.00157165527344 555.5689697265625 C 115.04106140136719 568.9509887695312 135.5675048828125 563.1756591796875 161.6370086669922 549.8604125976562 C 195.22860717773438 532.7255249023438 229.890380859375 505.8438415527344 256.0260314941406 482.8530578613281 C 259.4491271972656 478.9432373046875 267.5627746582031 471.39398193359375 270.0306091308594 469.54364013671875 C 271.92138671875 469.69744873046875 279.7759094238281 460.19793701171875 277.267578125 456.8580017089844 C 280.556396484375 457.41009521484375 273.13763427734375 450.24847412109375 261.7542419433594 445.4951171875 C 262.32275390625 444.421630859375 235.6922149658203 441.0772399902344 238.2434539794922 441.25225830078125 C 212.5579376220703 439.1824951171875 208.1465301513672 442.302978515625 213.6854248046875 441.81121826171875" fill="rgb(0, 0, 0)" opacity="0.998387" stroke-width="1.0"/>
  </g>
</svg>
