<?xml version="1.0" ?>
<svg height="1024" version="1.1" width="1024" xmlns="http://www.w3.org/2000/svg">
  <defs/>
  <g>
    <path d="M 772.1168823242188 290.6327819824219 C 757.39892578125 295.32318115234375 744.8143310546875 299.5133361816406 719.007568359375 312.6809387207031 C 701.5903930664062 321.0850830078125 700.595458984375 322.4140930175781 683.8572998046875 328.05743408203125 C 634.1832275390625 345.5610046386719 608.2842407226562 354.6636657714844 573.7023315429688 364.4310607910156 C 571.3743286132812 364.1895751953125 560.9895629882812 369.4292907714844 561.479248046875 370.15533447265625 C 555.392333984375 375.0591735839844 555.5108032226562 378.9850158691406 559.0776977539062 380.9866638183594 C 564.1694946289062 385.6857604980469 571.0693969726562 384.92095947265625 575.99267578125 387.3133544921875 C 581.3919677734375 387.7551574707031 584.2759399414062 389.91070556640625 599.09033203125 390.00408935546875 C 611.3115844726562 389.33575439453125 616.482666015625 388.72015380859375 627.5646362304688 385.76812744140625 C 651.2520141601562 381.0643005371094 656.4798583984375 377.12396240234375 673.8417358398438 368.27783203125 C 693.8322143554688 358.5506896972656 710.208984375 350.65386962890625 720.6002807617188 348.0276794433594 C 727.3570556640625 345.7728271484375 741.6691284179688 347.81005859375 745.8063354492188 355.1430358886719 C 752.2578735351562 364.9886169433594 748.6829223632812 373.835693359375 745.9745483398438 395.7650451660156 C 733.5549926757812 472.99505615234375 719.740234375 531.7996215820312 701.5403442382812 573.7876586914062 C 699.4869995117188 580.794677734375 673.1688842773438 629.1530151367188 672.1478881835938 631.6656494140625 C 654.2166748046875 659.3897094726562 639.9697265625 677.4710693359375 621.3822631835938 696.5606689453125 C 595.0447998046875 723.8350830078125 560.829345703125 748.6696166992188 524.2081909179688 766.4835815429688 C 510.57318115234375 773.8033447265625 501.0713806152344 773.9556274414062 517.2835693359375 783.5929565429688 C 520.3531494140625 786.982421875 526.6231689453125 788.3034057617188 543.5965576171875 788.1077270507812 C 582.4595336914062 785.08642578125 612.130615234375 771.9638671875 647.14404296875 743.0444946289062 C 663.3082885742188 729.3366088867188 681.19287109375 711.2019653320312 700.6070556640625 686.9240112304688 C 702.5480346679688 686.9031372070312 735.3196411132812 631.151611328125 738.12841796875 624.4782104492188 C 763.8584594726562 569.2345581054688 784.2586669921875 505.5722961425781 806.5142211914062 416.239013671875 C 815.9086303710938 377.4192199707031 816.845458984375 363.0782470703125 842.6219482421875 331.2119445800781 C 847.8248291015625 324.1507873535156 848.8075561523438 315.71734619140625 846.02001953125 312.1227722167969 C 844.541259765625 306.4328918457031 838.44921875 304.10650634765625 833.1398315429688 300.8982849121094 C 817.869873046875 293.0321960449219 797.5384521484375 289.1280212402344 785.568603515625 287.41925048828125 C 789.0029907226562 288.1314392089844 780.6791381835938 287.7157897949219 772.1168823242188 290.6327819824219" fill="rgb(0, 0, 0)" opacity="0.99906904" stroke-width="1.0"/>
  </g>
</svg>
