<?xml version="1.0" ?>
<svg height="1024" version="1.1" width="1024" xmlns="http://www.w3.org/2000/svg">
  <defs/>
  <g>
    <path d="M 552.1364135742188 444.99481201171875 C 545.6885375976562 446.7662353515625 545.143798828125 448.0669250488281 544.2517700195312 448.9244079589844 C 541.3545532226562 453.29302978515625 544.8374633789062 458.5943298339844 551.7461547851562 462.9145812988281 C 569.544189453125 475.3374938964844 582.4111328125 488.45977783203125 592.6614990234375 502.3080749511719 C 594.848388671875 504.6432800292969 604.7116088867188 519.6857299804688 610.162841796875 530.50439453125 C 637.4590454101562 576.7799682617188 683.7400512695312 648.9522705078125 749.1428833007812 741.6328125 C 797.9002075195312 810.2030029296875 793.020751953125 808.4483642578125 811.0517578125 819.6436157226562 C 825.6834716796875 825.5191040039062 824.6461181640625 824.6278076171875 855.0442504882812 825.8760986328125 C 935.2180786132812 828.464111328125 981.4938354492188 826.5836181640625 992.2382202148438 821.196533203125 C 1000.3677978515625 818.77880859375 998.335693359375 814.5731201171875 998.0497436523438 816.7203369140625 C 1001.5547485351562 808.4759521484375 987.813232421875 804.477783203125 980.8580932617188 801.2044067382812 C 919.8068237304688 773.89599609375 866.9334106445312 743.6336669921875 819.9247436523438 708.3231811523438 C 767.7144775390625 669.1277465820312 723.3892822265625 624.9674682617188 651.1214599609375 526.5172119140625 C 625.5983276367188 493.0131530761719 602.4176025390625 462.6534423828125 605.369140625 466.08795166015625 C 598.482177734375 453.2713317871094 589.8060302734375 448.4467468261719 584.1282348632812 446.6352844238281 C 578.7327270507812 444.236083984375 565.0612182617188 443.21466064453125 552.1364135742188 444.99481201171875" fill="rgb(0, 0, 0)" opacity="0.9999992" stroke-width="1.0"/>
  </g>
</svg>
