<?xml version="1.0" ?>
<svg height="1024" version="1.1" width="1024" xmlns="http://www.w3.org/2000/svg">
  <defs/>
  <g>
    <path d="M 155.76150512695312 246.50018310546875 C 152.10108947753906 248.00042724609375 148.81214904785156 257.79925537109375 151.64735412597656 250.42210388183594 C 150.16627502441406 255.08984375 148.28343200683594 260.5785827636719 149.2144012451172 261.8107604980469 C 150.65570068359375 273.26885986328125 147.7825164794922 285.60968017578125 147.94129943847656 284.3562316894531 C 143.2818145751953 304.6772155761719 129.5609130859375 324.2607421875 110.09510803222656 345.81939697265625 C 103.68238067626953 350.8253479003906 99.53002166748047 362.1526184082031 99.91033172607422 376.24139404296875 C 101.17385864257812 389.81219482421875 101.913818359375 391.32568359375 105.35133361816406 400.11798095703125 C 111.15633392333984 415.7247314453125 113.93781280517578 421.4301452636719 119.55860137939453 426.509765625 C 124.15398406982422 431.35980224609375 128.89404296875 429.4338684082031 129.74172973632812 430.7603454589844 C 129.59693908691406 428.9264831542969 136.43077087402344 430.7221374511719 142.85768127441406 418.1420593261719 C 152.74441528320312 404.8034362792969 168.6068572998047 367.1945495605469 169.35812377929688 362.1019287109375 C 174.2308349609375 342.6917724609375 180.73597717285156 323.213134765625 186.38673400878906 310.65789794921875 C 185.90780639648438 308.96636962890625 192.775146484375 297.6983337402344 191.76309204101562 291.4769592285156 C 192.13160705566406 289.8246154785156 176.12083435058594 259.0140380859375 170.3919219970703 253.55711364746094 C 166.17401123046875 248.06871032714844 157.68426513671875 244.36248779296875 155.76150512695312 246.50018310546875" fill="rgb(0, 0, 0)" opacity="0.999383" stroke-width="1.0"/>
  </g>
</svg>
