<?xml version="1.0" ?>
<svg height="1024" version="1.1" width="1024" xmlns="http://www.w3.org/2000/svg">
  <defs/>
  <g>
    <path d="M 501.5755615234375 222.11895751953125 C 477.2439270019531 224.81802368164062 477.9143371582031 225.35606384277344 457.4608459472656 229.6647491455078 C 443.1584167480469 233.96371459960938 449.2510070800781 231.4136199951172 442.1900329589844 232.9210205078125 C 421.674072265625 235.093994140625 408.7572326660156 238.08506774902344 391.154541015625 241.697998046875 C 362.83978271484375 248.8245086669922 333.0345458984375 255.14036560058594 314.3023681640625 258.2430114746094 C 304.8228454589844 260.37127685546875 285.5670166015625 263.865234375 270.7759094238281 267.7807312011719 C 257.3327331542969 271.406005859375 239.51681518554688 275.1436767578125 228.8260955810547 277.7189025878906 C 180.58465576171875 288.8492431640625 172.84925842285156 290.5319519042969 165.81619262695312 298.99072265625 C 164.84669494628906 305.15478515625 171.31504821777344 307.99542236328125 185.58489990234375 310.936279296875 C 205.13453674316406 318.2669372558594 241.7916717529297 308.0499267578125 243.22564697265625 306.5936279296875 C 284.4429931640625 291.1162414550781 331.8670654296875 279.2696533203125 385.4636535644531 268.98077392578125 C 417.5079345703125 262.6173095703125 479.3804016113281 253.2576904296875 471.5365905761719 253.8868408203125 C 495.7987976074219 250.81097412109375 489.9594421386719 254.65182495117188 494.5395202636719 256.6366271972656 C 497.74072265625 261.3363952636719 498.205078125 262.081298828125 498.2252502441406 268.6159973144531 C 498.5582275390625 265.3070373535156 493.3046875 284.1694641113281 486.7604675292969 305.02471923828125 C 478.97607421875 330.93231201171875 475.595703125 342.04254150390625 476.1396484375 341.1249084472656 C 482.1015625 343.35870361328125 496.7106018066406 336.44879150390625 507.3175964355469 328.1435546875 C 531.442626953125 311.7187194824219 561.3317260742188 295.1632995605469 591.0101318359375 289.505615234375 C 601.4612426757812 285.9354248046875 608.2183227539062 283.4336242675781 609.888916015625 278.34130859375 C 607.1611938476562 280.0962219238281 611.2355346679688 278.66522216796875 609.4835205078125 275.8712158203125 C 604.53857421875 268.2196350097656 586.763671875 255.1588897705078 562.7517700195312 239.1473846435547 C 543.9247436523438 226.32595825195312 540.38671875 223.45858764648438 535.6528930664062 223.49012756347656 C 533.520263671875 221.98623657226562 521.2958984375 220.3021697998047 501.5755615234375 222.11895751953125" fill="rgb(0, 0, 0)" opacity="0.999817" stroke-width="1.0"/>
  </g>
</svg>
