<?xml version="1.0" ?>
<svg height="1024" version="1.1" width="1024" xmlns="http://www.w3.org/2000/svg">
  <defs/>
  <g>
    <path d="M 726.5103149414062 391.5550537109375 C 708.1359252929688 394.5679626464844 669.4514770507812 404.7510986328125 633.1475830078125 416.1696472167969 C 620.1668090820312 420.7523193359375 565.9443359375 432.53814697265625 528.0918579101562 438.25543212890625 C 507.94464111328125 440.89837646484375 499.23590087890625 443.88092041015625 496.5876159667969 447.91571044921875 C 493.808349609375 451.8597717285156 495.93243408203125 456.09674072265625 510.5442199707031 463.9715881347656 C 533.1837768554688 477.197265625 563.7282104492188 480.0617980957031 597.3145751953125 470.0430908203125 C 596.9558715820312 469.7820129394531 619.864501953125 464.7231750488281 643.0975952148438 459.508544921875 C 665.7494506835938 454.3627624511719 697.6416625976562 447.04150390625 713.9912719726562 443.3133239746094 C 774.7747192382812 430.29962158203125 783.1548461914062 423.6959533691406 783.9321899414062 415.86322021484375 C 785.9178466796875 408.7752685546875 781.3634643554688 403.4420166015625 772.5645141601562 398.6368713378906 C 748.0864868164062 387.814208984375 744.1801147460938 389.04217529296875 726.5103149414062 391.5550537109375" fill="rgb(0, 0, 0)" opacity="0.99998367" stroke-width="1.0"/>
  </g>
</svg>
