<?xml version="1.0" ?>
<svg height="1024" version="1.1" width="1024" xmlns="http://www.w3.org/2000/svg">
  <defs/>
  <g>
    <path d="M 858.6944580078125 502.4460754394531 C 851.1724243164062 505.0151672363281 836.5343627929688 508.1300354003906 818.795166015625 512.1624755859375 C 783.6192626953125 521.2020874023438 719.2413940429688 532.4653930664062 717.4407958984375 533.836669921875 C 701.8057861328125 534.5227661132812 687.9213256835938 537.3567504882812 680.5 539.9684448242188 C 673.4381103515625 541.0990600585938 572.0004272460938 558.7844848632812 480.67529296875 573.0503540039062 C 433.0880432128906 580.5526123046875 441.1796875 579.0076904296875 437.0748291015625 580.7611083984375 C 428.7656555175781 583.5490112304688 431.666748046875 591.4497680664062 440.69635009765625 599.3447265625 C 452.74981689453125 610.4141845703125 466.54962158203125 614.7505493164062 482.6372375488281 615.7449340820312 C 494.97430419921875 615.9761352539062 500.0955505371094 613.7308349609375 516.099853515625 609.252685546875 C 589.8255615234375 588.4813232421875 653.0625 576.4395141601562 710.901123046875 572.4683227539062 C 718.2218017578125 572.0623779296875 729.067138671875 571.2716674804688 748.400634765625 568.7969970703125 C 791.1669311523438 563.4724731445312 854.5927124023438 559.78564453125 913.6696166992188 558.587890625 C 943.8938598632812 557.6981201171875 947.6244506835938 558.9938354492188 960.5037841796875 555.13720703125 C 968.0226440429688 551.6996459960938 970.5128173828125 547.434814453125 967.6007080078125 537.7134399414062 C 962.7911376953125 528.9931640625 958.3264770507812 524.8867797851562 943.2435302734375 517.1046752929688 C 921.028076171875 505.4725341796875 901.5928955078125 501.2646789550781 884.8633422851562 500.63800048828125 C 862.7278442382812 500.260986328125 857.8872680664062 503.9457092285156 858.6944580078125 502.4460754394531" fill="rgb(0, 0, 0)" opacity="0.9988887" stroke-width="1.0"/>
  </g>
</svg>
