<?xml version="1.0" ?>
<svg height="1024" version="1.1" width="1024" xmlns="http://www.w3.org/2000/svg">
  <defs/>
  <g>
    <path d="M 695.1401977539062 465.2719421386719 C 691.0189208984375 467.3257751464844 689.1148071289062 472.9239196777344 693.4021606445312 481.8403015136719 C 710.5947265625 508.10272216796875 716.409423828125 533.2889404296875 716.6494750976562 552.3865966796875 C 721.2310180664062 557.8905029296875 723.0289306640625 794.9637451171875 716.0390625 818.9801635742188 C 711.6729125976562 829.013671875 711.5145263671875 827.4122924804688 705.688720703125 832.6390380859375 C 695.3148193359375 839.4105834960938 692.2833862304688 835.24462890625 668.309814453125 829.1594848632812 C 652.8491821289062 824.6289672851562 633.9344482421875 819.1350708007812 625.3471069335938 816.4424438476562 C 619.2999877929688 814.6570434570312 606.740234375 810.5678100585938 609.7725219726562 812.6973266601562 C 604.2172241210938 811.1126708984375 601.3024291992188 814.9010620117188 603.5968627929688 821.4887084960938 C 606.725341796875 829.3680419921875 613.552734375 833.24267578125 620.8672485351562 840.3562622070312 C 658.8172607421875 875.5400390625 690.8361206054688 910.1406860351562 705.9441528320312 933.6389770507812 C 719.2828979492188 956.2177124023438 733.3201904296875 953.7653198242188 746.84814453125 937.0625 C 772.2492065429688 909.6444702148438 777.48095703125 869.9268188476562 777.9984130859375 838.472900390625 C 771.05322265625 757.2689208984375 771.2798461914062 593.0022583007812 770.974853515625 590.1903686523438 C 771.4509887695312 566.27490234375 773.128662109375 566.4448852539062 780.30126953125 538.0955200195312 C 783.8530883789062 522.5850830078125 788.1676635742188 517.6825561523438 781.5332641601562 505.000732421875 C 777.8435668945312 496.8592834472656 754.1022338867188 479.7216491699219 736.5162353515625 472.02423095703125 C 715.9198608398438 463.5832214355469 703.0515747070312 459.9795227050781 695.1401977539062 465.2719421386719" fill="rgb(0, 0, 0)" opacity="0.99920136" stroke-width="1.0"/>
  </g>
</svg>
