<?xml version="1.0" ?>
<svg height="1024" version="1.1" width="1024" xmlns="http://www.w3.org/2000/svg">
  <defs/>
  <g>
    <path d="M 632.1925659179688 798.0415649414062 C 644.4251708984375 795.5155029296875 624.8027954101562 798.4695434570312 610.2674560546875 801.7955932617188 C 537.4689331054688 815.28125 489.9998474121094 823.060302734375 429.291748046875 831.0453491210938 C 402.4535217285156 834.7827758789062 398.8690490722656 832.9530029296875 387.3414611816406 842.6829223632812 C 376.318115234375 855.0971069335938 379.6573791503906 868.9359130859375 394.07440185546875 872.5126342773438 C 392.9217834472656 873.0726318359375 410.2181091308594 873.503662109375 423.4634704589844 870.9281616210938 C 467.5498046875 862.850341796875 545.5903930664062 855.163818359375 622.0023193359375 850.2862548828125 C 621.669677734375 849.8369140625 624.3223266601562 850.534423828125 643.50537109375 848.8438720703125 C 649.1669311523438 848.5509643554688 666.0409545898438 847.4385986328125 678.1122436523438 846.7623901367188 C 692.72314453125 845.5088500976562 702.6447143554688 847.338134765625 706.3272705078125 837.0787963867188 C 707.5786743164062 835.6824340820312 707.5203247070312 830.6351928710938 700.9376220703125 824.3375854492188 C 695.6502685546875 817.8856201171875 675.133056640625 803.0188598632812 667.0199584960938 798.7145385742188 C 655.9432983398438 794.9622802734375 660.7667236328125 797.3505249023438 652.941650390625 795.57763671875 C 637.7832641601562 795.3609008789062 630.463623046875 798.5843505859375 632.1925659179688 798.0415649414062" fill="rgb(0, 0, 0)" opacity="0.9994713" stroke-width="1.0"/>
  </g>
</svg>
