<?xml version="1.0" ?>
<svg height="1024" version="1.1" width="1024" xmlns="http://www.w3.org/2000/svg">
  <defs/>
  <g>
    <path d="M 628.241455078125 611.1268310546875 C 624.0418701171875 611.560302734375 614.6795654296875 612.966552734375 606.025146484375 616.8423461914062 C 563.9970092773438 633.785400390625 497.5221252441406 650.3706665039062 437.0340881347656 660.9666748046875 C 406.15673828125 666.6115112304688 399.6847839355469 665.8031616210938 389.6570129394531 673.3930053710938 C 382.0408020019531 679.4258422851562 383.9407958984375 690.5317993164062 402.5609436035156 694.9902954101562 C 415.42041015625 697.1737670898438 424.6662902832031 701.0441284179688 453.2119140625 695.0836791992188 C 461.7227783203125 692.0968627929688 479.1644592285156 688.9951782226562 499.05859375 685.677978515625 C 532.0674438476562 679.5650024414062 559.5549926757812 674.4190063476562 594.3768920898438 667.6763916015625 C 610.1787719726562 664.9756469726562 626.2130126953125 658.641845703125 635.2747192382812 670.4395141601562 C 643.1751098632812 682.3419189453125 641.1535034179688 695.9865112304688 637.0185546875 712.1934814453125 C 631.2968139648438 737.8812866210938 623.2471923828125 769.4086303710938 616.749755859375 791.3497314453125 C 613.9306030273438 802.3817749023438 611.675048828125 803.94091796875 614.7601928710938 813.0182495117188 C 619.9649047851562 820.5735473632812 628.8917236328125 824.2728271484375 643.9279174804688 823.1390380859375 C 653.1856079101562 821.6904296875 650.975341796875 821.4009399414062 658.3885498046875 819.191650390625 C 674.2196655273438 810.848876953125 673.1443481445312 802.9486694335938 680.0997924804688 786.9119262695312 C 689.4063720703125 762.74658203125 699.3954467773438 742.792236328125 710.0492553710938 726.7382202148438 C 717.2799072265625 716.1567993164062 727.6668090820312 703.3245849609375 738.6231079101562 696.5233154296875 C 747.48779296875 686.6566772460938 752.6744995117188 675.008544921875 746.9730224609375 663.3626708984375 C 743.2029418945312 654.8082275390625 742.5907592773438 655.1934814453125 725.4468994140625 643.1109619140625 C 689.0134887695312 618.717529296875 656.5770263671875 607.7249755859375 628.241455078125 611.1268310546875" fill="rgb(0, 0, 0)" opacity="0.9989317" stroke-width="1.0"/>
  </g>
</svg>
