<?xml version="1.0" ?>
<svg height="1024" version="1.1" width="1024" xmlns="http://www.w3.org/2000/svg">
  <defs/>
  <g>
    <path d="M 340.7988586425781 357.1165771484375 C 334.37646484375 361.72442626953125 327.70379638671875 365.612548828125 338.007080078125 380.0136413574219 C 341.9632873535156 389.260498046875 352.88909912109375 418.4847106933594 357.408203125 443.586181640625 C 362.1560974121094 467.2298278808594 363.31512451171875 478.8890380859375 364.7049255371094 567.7114868164062 C 365.81109619140625 695.6290283203125 355.6307373046875 782.2067260742188 338.40631103515625 842.29833984375 C 332.3433532714844 862.0095825195312 332.6881408691406 867.9717407226562 331.65191650390625 874.7800903320312 C 331.91815185546875 885.695068359375 332.19329833984375 890.480224609375 337.0091552734375 903.8974609375 C 344.28814697265625 926.9398803710938 352.6483154296875 941.3578491210938 360.953369140625 948.0853881835938 C 366.80938720703125 951.643310546875 369.4866027832031 950.8923950195312 373.8227844238281 947.9500732421875 C 382.3040466308594 939.3362426757812 388.2762145996094 927.8260498046875 394.1039123535156 906.659423828125 C 397.6192932128906 894.0738525390625 400.36761474609375 879.5877075195312 403.0533752441406 857.2393188476562 L 406.12933349609375 833.6571655273438 L 407.2093505859375 767.52978515625 C 408.6371765136719 666.8626098632812 407.4022216796875 634.4913330078125 409.0507507324219 557.5396728515625 C 408.49505615234375 512.5906372070312 410.3714599609375 467.2084045410156 411.44525146484375 457.9891357421875 C 411.9228210449219 446.0361633300781 411.9149169921875 444.4763488769531 415.37060546875 417.9758605957031 C 418.049072265625 394.34814453125 417.7273254394531 395.9647521972656 406.155517578125 386.38421630859375 C 395.639404296875 375.2886657714844 375.8041687011719 364.1205139160156 359.1576232910156 358.9397888183594 C 351.09381103515625 356.5327453613281 349.3675231933594 354.4148864746094 340.7988586425781 357.1165771484375" fill="rgb(0, 0, 0)" opacity="0.99904484" stroke-width="1.0"/>
  </g>
</svg>
