<?xml version="1.0" ?>
<svg height="1024" version="1.1" width="1024" xmlns="http://www.w3.org/2000/svg">
  <defs/>
  <g>
    <path d="M 542.0708618164062 93.3132095336914 C 533.7092895507812 93.498291015625 533.244384765625 101.95343780517578 536.3682861328125 107.65303802490234 C 539.201904296875 111.69146728515625 541.65869140625 119.990234375 539.968505859375 132.8912811279297 C 539.297119140625 149.24095153808594 529.9696655273438 180.5098876953125 508.06884765625 227.3286590576172 C 497.3443298339844 249.0809326171875 505.72979736328125 235.6534881591797 489.8995056152344 254.0172882080078 C 482.33099365234375 264.39630126953125 475.8611145019531 265.3604431152344 474.59552001953125 276.5146484375 C 476.1460876464844 284.0458068847656 481.0281982421875 292.751953125 487.0771789550781 300.5418701171875 C 493.2542419433594 309.2480773925781 499.97711181640625 308.16412353515625 508.8656311035156 301.6349792480469 C 518.8947143554688 296.6489562988281 527.9468383789062 292.8162536621094 541.8990478515625 288.4059753417969 C 561.3692016601562 282.3387145996094 565.3153686523438 281.0528869628906 573.2125244140625 281.1879577636719 C 591.69580078125 280.2135925292969 604.6913452148438 273.92803955078125 604.48828125 268.2516174316406 C 602.9216918945312 262.0906066894531 592.9364013671875 261.252197265625 549.6571044921875 261.6163635253906 C 536.6331787109375 262.3341979980469 523.4365844726562 262.8758239746094 525.20458984375 253.9268341064453 C 525.9560546875 252.73939514160156 556.1829833984375 193.66555786132812 582.3119506835938 153.73712158203125 C 591.4172973632812 139.0240936279297 597.4854125976562 132.36241149902344 593.6826782226562 126.57968139648438 C 593.490234375 122.25054168701172 590.572998046875 120.47421264648438 588.7332153320312 118.1849365234375 C 580.3765258789062 108.70729064941406 563.9021606445312 99.86903381347656 556.5667114257812 94.94598388671875 C 549.3965454101562 92.4225845336914 544.044921875 92.29716491699219 542.0708618164062 93.3132095336914" fill="rgb(0, 0, 0)" opacity="0.99872404" stroke-width="1.0"/>
  </g>
</svg>
