<?xml version="1.0" ?>
<svg height="1024" version="1.1" width="1024" xmlns="http://www.w3.org/2000/svg">
  <defs/>
  <g>
    <path d="M 796.73779296875 516.6694946289062 C 793.4071044921875 518.1390991210938 793.0787963867188 523.1287841796875 792.8478393554688 530.9198608398438 C 792.4107055664062 540.433837890625 786.0248413085938 554.7448120117188 777.1212768554688 574.3109741210938 C 764.2205810546875 600.4717407226562 757.9987182617188 609.2208862304688 739.9852294921875 630.5440063476562 C 709.256103515625 667.744873046875 690.6201171875 687.174072265625 681.2081909179688 693.150390625 C 671.4837646484375 698.0585327148438 669.2916259765625 704.312744140625 668.8778686523438 709.4484252929688 C 669.0283203125 716.9508056640625 672.67822265625 724.0136108398438 689.2255859375 736.8812255859375 C 690.5291748046875 741.0321044921875 700.4688110351562 743.1123046875 701.1760864257812 738.1837158203125 C 700.1914672851562 739.7376098632812 695.97509765625 743.3186645507812 704.6209106445312 738.5624389648438 C 731.2239990234375 722.114013671875 769.4727783203125 706.0250244140625 805.9906616210938 696.7811279296875 C 823.9569091796875 692.7470092773438 829.515869140625 689.0609130859375 830.0855712890625 686.8200073242188 C 832.0911254882812 686.5801391601562 830.9141845703125 680.3755493164062 819.391357421875 679.960205078125 C 810.2836303710938 678.0742797851562 780.7695922851562 682.60302734375 743.8616333007812 688.6942138671875 C 735.2288818359375 691.4374389648438 728.5743408203125 691.5791015625 729.55908203125 689.4742431640625 C 726.524169921875 690.468994140625 731.1759033203125 681.68408203125 731.310791015625 682.7125244140625 C 738.3883666992188 673.2412109375 763.8504028320312 645.3958740234375 787.599365234375 620.8585815429688 C 796.5700073242188 611.3593139648438 803.7451782226562 604.9227905273438 809.9334716796875 596.6008911132812 C 821.3278198242188 583.8619995117188 830.1370849609375 574.6825561523438 841.7693481445312 565.63134765625 C 846.9195556640625 561.5016479492188 849.4979248046875 558.8609008789062 849.6265869140625 554.5677490234375 C 848.2959594726562 556.52880859375 852.5518188476562 556.3712768554688 847.5791625976562 549.4149780273438 C 843.881591796875 539.2933959960938 826.546875 524.506591796875 810.52978515625 517.0213012695312 C 802.0362548828125 512.7957153320312 796.7990112304688 515.83837890625 796.73779296875 516.6694946289062" fill="rgb(0, 0, 0)" opacity="0.99945474" stroke-width="1.0"/>
  </g>
</svg>
