<?xml version="1.0" ?>
<svg height="1024" version="1.1" width="1024" xmlns="http://www.w3.org/2000/svg">
  <defs/>
  <g>
    <path d="M 829.7434692382812 420.15313720703125 C 804.8704223632812 419.37530517578125 785.2555541992188 426.85321044921875 778.3720703125 426.99945068359375 C 671.6988525390625 448.151123046875 517.692138671875 475.21624755859375 449.50592041015625 485.4817810058594 C 447.5115661621094 486.8283996582031 447.53460693359375 484.1320495605469 441.755859375 487.9686584472656 C 444.0975646972656 487.6837463378906 432.9782409667969 492.73883056640625 442.56298828125 489.08856201171875 C 428.5737609863281 491.09527587890625 443.183349609375 494.13995361328125 441.7675476074219 495.7308044433594 C 452.28094482421875 505.39019775390625 463.0178527832031 507.6824951171875 472.3017578125 509.6669006347656 C 494.4324951171875 512.4229125976562 505.89251708984375 510.97882080078125 581.9609985351562 496.2308349609375 C 619.825927734375 489.3836364746094 658.5703735351562 482.67626953125 700.0358276367188 476.3849792480469 C 719.3743286132812 473.4956359863281 731.4989624023438 471.8277282714844 744.4121704101562 469.2538757324219 C 774.9584350585938 463.337890625 812.896484375 457.50054931640625 849.1780395507812 453.25018310546875 C 861.6024780273438 452.1230773925781 862.2252807617188 451.6476135253906 866.280517578125 450.67132568359375 C 875.786376953125 447.58367919921875 877.0279541015625 441.31707763671875 866.436767578125 431.64605712890625 C 859.236083984375 424.2221374511719 840.8627319335938 419.66766357421875 831.89990234375 419.8205871582031 C 811.5682373046875 419.182373046875 809.0259399414062 423.432861328125 829.7434692382812 420.15313720703125" fill="rgb(0, 0, 0)" opacity="0.99919575" stroke-width="1.0"/>
  </g>
</svg>
