<?xml version="1.0" ?>
<svg height="1024" version="1.1" width="1024" xmlns="http://www.w3.org/2000/svg">
  <defs/>
  <g>
    <path d="M 699.3903198242188 462.6270446777344 C 700.8655395507812 456.8785400390625 696.4251708984375 459.3570861816406 702.8756713867188 478.4291076660156 C 708.3175659179688 502.2182922363281 704.148193359375 511.3244323730469 695.8495483398438 535.9820556640625 C 688.9524536132812 554.24072265625 676.793701171875 575.8042602539062 659.526123046875 591.4669799804688 C 650.5997924804688 599.8438110351562 649.428955078125 607.463134765625 650.852294921875 614.5031127929688 C 653.3281860351562 624.497314453125 665.09765625 639.5077514648438 671.1482543945312 636.8969116210938 C 669.1842041015625 638.2692260742188 678.7694091796875 634.6907958984375 680.7304077148438 632.8885498046875 C 686.055908203125 630.35400390625 698.294189453125 625.5834350585938 709.6004028320312 622.348876953125 C 721.4601440429688 618.5875854492188 757.4998168945312 609.4342651367188 756.7841796875 611.0910034179688 C 766.7955322265625 608.7601928710938 779.3623657226562 605.9755249023438 783.4036865234375 601.1625366210938 L 784.8290405273438 599.9910278320312 L 784.4576416015625 597.7159423828125 C 780.2003173828125 593.2396850585938 770.02392578125 593.87548828125 747.5480346679688 594.2833862304688 C 707.8004760742188 595.1332397460938 700.1669311523438 598.9285888671875 697.094970703125 590.4528198242188 C 697.9803466796875 589.8992919921875 695.5347290039062 594.8092651367188 698.8984985351562 585.0912475585938 C 697.3436889648438 587.7977905273438 711.1190185546875 566.675048828125 727.28369140625 542.4705810546875 L 755.5633544921875 499.8410949707031 L 755.6331176757812 496.52838134765625 C 753.3794555664062 490.3670349121094 742.8333129882812 480.8479919433594 728.3731689453125 471.68865966796875 C 705.5811767578125 455.9284973144531 699.0866088867188 452.9378967285156 699.3903198242188 462.6270446777344" fill="rgb(0, 0, 0)" opacity="1.0" stroke-width="1.0"/>
  </g>
</svg>
