<?xml version="1.0" ?>
<svg height="1024" version="1.1" width="1024" xmlns="http://www.w3.org/2000/svg">
  <defs/>
  <g>
    <path d="M 394.6188659667969 115.36866760253906 Q 370.2373046875 112.98211669921875 382.4284973144531 139.5878143310547 Q 400.77777099609375 170.95855712890625 401.5893859863281 279.1304931640625 L 402.64306640625 433.418212890625 L 397.9884338378906 572.7655639648438 Q 387.71221923828125 746.7462158203125 382.0736083984375 759.89501953125 Q 375.40606689453125 785.6293334960938 349.9507141113281 821.4632568359375 Q 361.8575439453125 890.3234252929688 390.8168029785156 876.3806762695312 Q 408.4090576171875 865.470458984375 432.4123840332031 854.5863037109375 Q 482.9330139160156 832.7177734375 539.5480346679688 822.76025390625 Q 600.735595703125 810.4319458007812 721.377685546875 811.4529418945312 Q 814.4126586914062 812.4266357421875 929.4558715820312 821.04296875 Q 972.8078002929688 822.2755126953125 948.3033447265625 789.3950805664062 Q 921.3343505859375 757.4176025390625 894.1053466796875 759.8248291015625 L 719.37841796875 775.2324829101562 L 598.3082275390625 778.4189453125 Q 519.14794921875 783.3350219726562 470.36712646484375 790.7322998046875 Q 423.2228698730469 796.982421875 435.6341857910156 745.4171752929688 L 444.74395751953125 270.9458923339844 Q 447.25225830078125 182.04283142089844 451.86151123046875 163.77056884765625 Q 457.114501953125 140.9550018310547 393.84356689453125 115.01129913330078 L 394.6188659667969 115.36866760253906" fill="rgb(0, 0, 0)" opacity="1.0" stroke-width="1.0"/>
  </g>
</svg>
