<?xml version="1.0" ?>
<svg height="1024" version="1.1" width="1024" xmlns="http://www.w3.org/2000/svg">
  <defs/>
  <g>
    <path d="M 807.9149169921875 158.62646484375 C 810.0684204101562 153.51284790039062 805.2572021484375 161.6292724609375 805.850341796875 167.13580322265625 C 806.917236328125 176.6452178955078 801.39501953125 190.88607788085938 790.7044067382812 212.4868927001953 C 767.54931640625 256.6177062988281 765.2639770507812 257.9884948730469 726.1378173828125 306.23828125 C 697.9270629882812 340.27288818359375 681.8035278320312 356.5823974609375 670.0869140625 364.6055603027344 C 655.9242553710938 371.6485290527344 659.2339477539062 379.4538269042969 657.6835327148438 378.0223083496094 C 657.6948852539062 389.5463562011719 658.8239135742188 393.5506591796875 676.2921142578125 408.447998046875 C 683.2047729492188 416.6579284667969 688.8662109375 413.19512939453125 698.0146484375 407.1114196777344 C 721.551025390625 391.779052734375 757.3724365234375 376.1468200683594 793.5878295898438 366.1293029785156 C 816.3252563476562 359.8192138671875 818.085693359375 357.923095703125 819.6422119140625 354.16839599609375 C 817.8446655273438 351.3465270996094 812.7619018554688 350.4613952636719 796.4124755859375 350.6307373046875 C 768.7435302734375 352.08038330078125 757.8311157226562 354.7156066894531 735.084716796875 359.91436767578125 C 719.1322631835938 364.25250244140625 724.8316650390625 362.93426513671875 718.6744384765625 362.39129638671875 C 717.4391479492188 360.8147888183594 716.3455810546875 359.5249328613281 721.9728393554688 351.3335266113281 C 725.5270385742188 346.8590393066406 764.322998046875 299.5697021484375 790.107666015625 270.4327392578125 C 818.4603881835938 237.8819580078125 839.6241455078125 216.2471466064453 853.1378784179688 206.05894470214844 C 865.2951049804688 197.95399475097656 862.9469604492188 192.41400146484375 858.599609375 185.6278839111328 C 851.8662719726562 174.82020568847656 839.2432250976562 165.7486572265625 824.5507202148438 158.14854431152344 C 814.5210571289062 153.78546142578125 811.4354858398438 153.66424560546875 807.9149169921875 158.62646484375" fill="rgb(0, 0, 0)" opacity="0.9987913" stroke-width="1.0"/>
  </g>
</svg>
