<?xml version="1.0" ?>
<svg height="1024" version="1.1" width="1024" xmlns="http://www.w3.org/2000/svg">
  <defs/>
  <g>
    <path d="M 420.65509033203125 210.98402404785156 C 419.57635498046875 212.24867248535156 419.9082336425781 209.205078125 413.46783447265625 215.748046875 C 409.11669921875 219.38417053222656 409.4117126464844 226.6988525390625 414.3460998535156 234.5443115234375 C 421.4228210449219 245.75485229492188 426.25604248046875 262.69873046875 429.4369201660156 288.7070617675781 C 431.67626953125 319.3875427246094 431.0426330566406 310.61212158203125 429.01617431640625 333.65570068359375 C 418.4940185546875 449.9134826660156 408.1874694824219 532.2154541015625 396.88623046875 583.1575317382812 C 394.1439208984375 598.1466064453125 382.0164489746094 636.0700073242188 374.5393981933594 656.6060180664062 C 355.0374755859375 708.5943603515625 319.2059631347656 778.6309814453125 271.7259826660156 858.5836791992188 C 257.17095947265625 882.822998046875 253.29360961914062 887.8954467773438 256.2512512207031 894.5081176757812 C 256.73260498046875 892.7739868164062 255.6896209716797 896.0046997070312 261.0882568359375 895.2994995117188 C 278.5233459472656 893.4317016601562 306.4344787597656 863.2774658203125 346.1405334472656 805.3660278320312 C 371.29266357421875 769.4273681640625 379.62646484375 752.7942504882812 397.42779541015625 716.4099731445312 C 435.4576721191406 633.6808471679688 462.9062805175781 518.803955078125 478.5097351074219 374.13836669921875 C 479.3054504394531 370.0912170410156 483.5212707519531 326.8351745605469 482.5145263671875 330.6369323730469 C 484.6908874511719 300.4103088378906 488.775634765625 275.7760314941406 495.7560119628906 264.4266052246094 C 500.216796875 252.1962432861328 499.8001403808594 252.58787536621094 495.68408203125 247.49949645996094 C 494.4070129394531 247.17576599121094 477.015869140625 232.440673828125 471.539306640625 229.71800231933594 C 463.0269470214844 223.7633514404297 441.4882507324219 213.38458251953125 437.1046447753906 212.4013671875 C 431.5528564453125 210.1710968017578 429.0860595703125 209.8986358642578 420.65509033203125 210.98402404785156" fill="rgb(0, 0, 0)" opacity="0.99902314" stroke-width="1.0"/>
  </g>
</svg>
