<?xml version="1.0" ?>
<svg height="1024" version="1.1" width="1024" xmlns="http://www.w3.org/2000/svg">
  <defs/>
  <g>
    <path d="M 702.9718627929688 426.7596435546875 C 699.3340454101562 427.9459228515625 647.6392822265625 442.7303161621094 622.9609375 451.77789306640625 C 595.9122314453125 461.3990478515625 591.2083740234375 462.59454345703125 591.5519409179688 465.0456237792969 C 590.3421630859375 469.5771789550781 598.0714721679688 474.7918395996094 603.1558837890625 478.1947021484375 C 610.38720703125 479.80084228515625 619.483642578125 479.5382995605469 628.7354736328125 476.8790283203125 C 627.8599243164062 476.4732666015625 644.3417358398438 473.681884765625 646.6749877929688 473.03399658203125 C 653.5062255859375 472.6474914550781 672.9994506835938 467.93170166015625 694.65625 463.35479736328125 C 713.5623779296875 458.973876953125 723.0325927734375 457.2221374511719 740.2747802734375 454.30340576171875 C 755.8882446289062 453.0962829589844 764.810791015625 448.5567626953125 763.1987915039062 443.3181457519531 C 763.5284423828125 438.2448425292969 753.1478881835938 427.73248291015625 736.4810791015625 424.9731140136719 C 730.9509887695312 423.2186279296875 719.639404296875 422.8231201171875 702.9718627929688 426.7596435546875" fill="rgb(0, 0, 0)" opacity="0.99853456" stroke-width="1.0"/>
  </g>
</svg>
