<?xml version="1.0" ?>
<svg height="1024" version="1.1" width="1024" xmlns="http://www.w3.org/2000/svg">
  <defs/>
  <g>
    <path d="M 635.2575073242188 340.62884521484375 C 631.1611328125 344.8203430175781 630.9185180664062 349.9046630859375 636.8366088867188 364.7746276855469 C 644.9420776367188 384.060302734375 653.194580078125 411.0199890136719 654.6387939453125 434.59954833984375 C 655.2874755859375 423.123291015625 654.7737426757812 553.855224609375 655.0972290039062 545.6455078125 C 652.2351684570312 597.306640625 654.0811767578125 643.4933471679688 651.9872436523438 701.0730590820312 C 652.0379638671875 791.8242797851562 651.761962890625 805.9857788085938 652.330810546875 807.854248046875 C 654.0888061523438 816.36328125 659.4675903320312 821.6412963867188 666.656494140625 822.507080078125 C 678.8648071289062 824.7215576171875 690.9638061523438 813.9928588867188 692.1895141601562 802.8924560546875 C 693.862060546875 803.6260375976562 692.1512451171875 790.1881103515625 694.194091796875 718.5134887695312 C 696.3306274414062 669.8863525390625 693.2210693359375 684.2328491210938 697.0396118164062 589.3633422851562 C 696.6710815429688 592.747314453125 699.1390380859375 547.6451416015625 699.1019287109375 509.2171936035156 C 701.45751953125 445.76324462890625 702.7073974609375 400.1090393066406 704.8057861328125 398.9685974121094 C 711.999755859375 376.84375 700.1041259765625 372.74554443359375 691.9078979492188 365.5660095214844 C 674.2950439453125 351.6842346191406 660.1112060546875 343.5250549316406 651.5438232421875 340.76654052734375 C 635.7606201171875 336.5108642578125 637.6912231445312 341.3714599609375 635.2575073242188 340.62884521484375" fill="rgb(0, 0, 0)" opacity="1.0" stroke-width="1.0"/>
  </g>
</svg>
