<?xml version="1.0" ?>
<svg height="1024" version="1.1" width="1024" xmlns="http://www.w3.org/2000/svg">
  <defs/>
  <g>
    <path d="M 801.3704833984375 299.4488220214844 C 772.6962280273438 303.11920166015625 720.533447265625 313.0238342285156 638.8106689453125 331.6339416503906 C 603.9274291992188 339.40130615234375 575.6213989257812 345.3700866699219 543.9999389648438 350.5973815917969 C 527.6240234375 354.18743896484375 525.0573120117188 352.02557373046875 517.9804077148438 358.89520263671875 C 514.1643676757812 367.62408447265625 524.4644165039062 376.56378173828125 538.9825439453125 380.185302734375 C 549.0323486328125 381.0589599609375 549.5853881835938 380.9885559082031 563.165771484375 377.02056884765625 C 583.4503173828125 370.7578125 599.8756103515625 366.82269287109375 633.3706665039062 360.2586669921875 C 651.0816650390625 356.6429138183594 670.3572998046875 352.8262939453125 682.7195434570312 349.9278259277344 C 719.161865234375 341.21624755859375 748.9694213867188 336.87261962890625 762.59521484375 336.39111328125 C 781.8406372070312 334.8753967285156 790.5726928710938 337.71435546875 794.8284912109375 340.4922180175781 C 799.8694458007812 346.79547119140625 808.0439453125 356.9274597167969 806.962646484375 372.3869934082031 C 806.763671875 373.78265380859375 799.291748046875 435.14019775390625 791.1484985351562 476.35626220703125 C 785.1165161132812 507.3053283691406 779.0151977539062 528.9903564453125 771.9979248046875 533.9505004882812 C 768.7816772460938 539.9290771484375 762.0908813476562 550.7660522460938 763.0271606445312 553.541015625 C 762.8502197265625 553.641357421875 773.0386962890625 567.6231079101562 781.9697875976562 575.7116088867188 C 785.614013671875 579.16650390625 792.2839965820312 584.5543823242188 796.8375854492188 585.9506225585938 C 799.9002075195312 588.5523071289062 803.9552612304688 587.842041015625 806.4454956054688 586.854248046875 C 809.4942016601562 585.5801391601562 813.600341796875 581.8043823242188 818.27392578125 574.1392822265625 C 825.9525756835938 561.8721313476562 837.1351928710938 508.8765563964844 849.649169921875 428.3173828125 C 852.3292846679688 416.6379089355469 850.9987182617188 411.1986083984375 855.743896484375 397.5429992675781 C 858.9072265625 387.751708984375 866.4697265625 372.0060119628906 875.6712646484375 361.2361755371094 C 880.623291015625 354.716796875 882.4603881835938 353.907470703125 882.97021484375 350.8981018066406 C 884.774658203125 348.41510009765625 884.936767578125 340.28973388671875 881.7060546875 337.562744140625 C 882.9046630859375 334.6112060546875 867.3037719726562 322.3626403808594 840.8389282226562 306.3608703613281 L 827.5625610351562 298.5602722167969 L 821.5927124023438 297.9103698730469 C 806.2853393554688 298.20599365234375 806.75341796875 299.535888671875 801.3704833984375 299.4488220214844" fill="rgb(0, 0, 0)" opacity="0.9998953" stroke-width="1.0"/>
  </g>
</svg>
