<?xml version="1.0" ?>
<svg height="1024" version="1.1" width="1024" xmlns="http://www.w3.org/2000/svg">
  <defs/>
  <g>
    <path d="M 302.8081359863281 197.92819213867188 C 300.7589111328125 200.31149291992188 297.04510498046875 199.16053771972656 285.0354309082031 209.24957275390625 C 270.8277587890625 220.94927978515625 250.53994750976562 230.17625427246094 223.6567840576172 239.74386596679688 C 195.05609130859375 249.3374786376953 167.1985321044922 255.5997772216797 148.7051544189453 255.41757202148438 L 137.26870727539062 254.77066040039062 L 130.3594970703125 256.7342224121094 C 121.43636322021484 266.26837158203125 126.37931060791016 271.46954345703125 143.83078002929688 280.3254089355469 C 154.78521728515625 285.5684814453125 164.87416076660156 289.30181884765625 179.6494140625 290.2981262207031 C 184.4828338623047 289.6783447265625 190.91116333007812 290.35595703125 196.9888916015625 287.092041015625 C 219.65151977539062 283.2357482910156 244.09735107421875 274.5216979980469 266.8519592285156 264.4000244140625 C 287.7919921875 254.36209106445312 286.72125244140625 258.0479431152344 288.0868835449219 263.3145751953125 C 288.2685546875 280.0101318359375 275.2438049316406 318.0199279785156 237.75299072265625 400.65264892578125 C 232.81787109375 411.14056396484375 232.56695556640625 414.0563659667969 229.31068420410156 420.763671875 C 226.5670928955078 425.05279541015625 219.79766845703125 437.89617919921875 209.47769165039062 446.58770751953125 C 196.96295166015625 456.58319091796875 196.74685668945312 464.7785949707031 199.2042236328125 471.8775329589844 C 204.5242919921875 488.4811706542969 215.33274841308594 497.09893798828125 226.65122985839844 494.2735900878906 C 222.3377227783203 496.2975769042969 234.84970092773438 492.57794189453125 234.44570922851562 491.73883056640625 C 245.09112548828125 485.2287292480469 263.3231506347656 478.9199523925781 272.9670104980469 475.9861145019531 C 288.4866027832031 471.8308410644531 301.60205078125 472.2172546386719 308.8809814453125 476.5623779296875 C 309.0386962890625 477.2301025390625 312.4123229980469 478.54791259765625 315.2931213378906 481.7257995605469 C 314.4804382324219 483.5274658203125 319.3200378417969 481.8646240234375 316.88995361328125 501.2183837890625 C 317.5790100097656 492.6922912597656 317.005859375 504.2734069824219 315.1232604980469 508.6667175292969 C 315.0913391113281 512.4502563476562 310.63677978515625 522.8289794921875 307.71588134765625 536.0409545898438 C 299.83245849609375 566.8180541992188 293.9839172363281 586.5985717773438 285.4308166503906 609.2164916992188 C 284.6288757324219 613.2570190429688 262.4631042480469 657.8648071289062 260.9413757324219 659.5887451171875 C 231.32815551757812 705.547607421875 192.92263793945312 744.08154296875 139.12677001953125 784.8080444335938 C 123.57061004638672 796.6231079101562 91.2554931640625 818.7201538085938 72.927490234375 829.8028564453125 C 67.95429992675781 832.803466796875 60.96906661987305 840.0489501953125 65.9875259399414 844.6180419921875 C 70.843017578125 849.1581420898438 91.82662963867188 843.2848510742188 132.9307403564453 822.6542358398438 C 182.57229614257812 798.2649536132812 223.7128448486328 769.69482421875 255.27203369140625 738.7518920898438 C 278.3884582519531 716.5406494140625 307.7284851074219 670.9378662109375 331.4210205078125 617.1728515625 C 344.20770263671875 589.2371826171875 364.1677551269531 545.704833984375 372.03582763671875 529.5543823242188 C 377.21649169921875 517.1720581054688 383.8720397949219 509.84722900390625 394.423095703125 501.1644287109375 C 401.8181457519531 495.29425048828125 404.3700866699219 492.8327941894531 399.7214050292969 478.672607421875 C 399.65081787109375 477.0312805175781 395.8481750488281 472.212158203125 385.35992431640625 465.15692138671875 C 368.2277526855469 453.5519104003906 349.5570068359375 444.6092834472656 351.1177673339844 444.8081970214844 C 342.14276123046875 441.4137268066406 317.99310302734375 444.10467529296875 290.1917724609375 449.201171875 C 283.7152099609375 449.2525939941406 279.4720153808594 453.77606201171875 270.1158447265625 450.0564880371094 C 270.36688232421875 448.4355163574219 265.6493225097656 451.4084777832031 266.6281433105469 437.46466064453125 C 268.67822265625 425.1814880371094 274.45880126953125 404.3790588378906 289.4580993652344 375.83978271484375 C 321.86669921875 311.2339782714844 348.90472412109375 272.5335998535156 368.9236145019531 258.6253662109375 C 384.9671325683594 249.2724609375 383.00860595703125 244.4922332763672 384.7051086425781 243.66943359375 C 386.5879821777344 228.0535125732422 375.2240295410156 222.59324645996094 360.1077575683594 213.1307373046875 C 346.25299072265625 205.09799194335938 334.7771301269531 200.6803436279297 322.10186767578125 197.42037963867188 C 315.11602783203125 196.23831176757812 315.73797607421875 195.25839233398438 302.8081359863281 197.92819213867188" fill="rgb(0, 0, 0)" opacity="1.0" stroke-width="1.0"/>
  </g>
</svg>
