<?xml version="1.0" ?>
<svg height="1024" version="1.1" width="1024" xmlns="http://www.w3.org/2000/svg">
  <defs/>
  <g>
    <path d="M 453.43701171875 379.2569885253906 C 443.31988525390625 383.3151550292969 440.52239990234375 388.90484619140625 454.6932067871094 408.39422607421875 C 463.7209777832031 420.6305847167969 469.2259826660156 435.7263488769531 472.6405944824219 450.9198913574219 C 475.91778564453125 469.82110595703125 478.9737548828125 507.0697937011719 477.02752685546875 536.3846435546875 C 475.34521484375 565.6215209960938 469.490234375 592.0143432617188 458.593505859375 613.0531005859375 C 445.626953125 634.2628173828125 451.94842529296875 636.0767822265625 454.6451416015625 643.8995971679688 C 461.12176513671875 655.46728515625 463.5361633300781 658.5584106445312 474.57684326171875 667.63623046875 C 480.5621337890625 671.2382202148438 485.5991516113281 680.0362548828125 502.5085754394531 666.381103515625 C 542.5482788085938 638.7766723632812 605.1697998046875 622.3716430664062 692.0220947265625 616.857666015625 C 713.3255004882812 615.4614868164062 788.8676147460938 612.9412841796875 826.975830078125 617.378662109375 C 839.40283203125 619.9829711914062 854.0365600585938 618.30859375 856.058349609375 612.4639892578125 C 860.091064453125 608.8900756835938 856.8836669921875 595.7079467773438 845.5521850585938 586.3533935546875 C 838.06689453125 579.321044921875 808.46826171875 561.841064453125 807.3528442382812 563.8141479492188 C 796.3248901367188 559.4219360351562 760.8643188476562 561.2993774414062 734.3291015625 565.0274047851562 C 726.4754638671875 565.8167114257812 710.3385009765625 568.5250854492188 718.291015625 566.2330322265625 C 701.1560668945312 566.1218872070312 696.2568359375 568.3158569335938 689.4286499023438 568.7271118164062 C 674.7233276367188 571.435546875 657.0064086914062 574.3924560546875 630.4981689453125 578.43896484375 C 583.0225219726562 585.7144775390625 563.123779296875 589.6692504882812 536.1981811523438 596.2276000976562 L 531.634521484375 597.7633666992188 L 527.9989013671875 598.0771484375 C 523.4576416015625 596.1341552734375 520.0276489257812 590.9466552734375 519.8407592773438 589.9092407226562 C 519.9066772460938 590.2528076171875 516.8091430664062 583.5606689453125 517.9795532226562 574.6550903320312 C 518.477294921875 519.934326171875 520.3731689453125 462.77447509765625 525.7818603515625 435.8404235839844 C 527.5528564453125 425.15631103515625 530.1278686523438 420.8822937011719 524.535888671875 410.7072448730469 C 519.677490234375 403.85650634765625 500.4938049316406 389.2490539550781 479.0453186035156 382.42059326171875 C 462.8918762207031 377.6413879394531 461.57373046875 377.31109619140625 453.43701171875 379.2569885253906" fill="rgb(0, 0, 0)" opacity="0.9991707" stroke-width="1.0"/>
  </g>
</svg>
