<?xml version="1.0" ?>
<svg height="1024" version="1.1" width="1024" xmlns="http://www.w3.org/2000/svg">
  <defs/>
  <g>
    <path d="M 157.59458923339844 583.1302490234375 C 137.7313232421875 586.6408081054688 136.15969848632812 586.0341796875 131.69615173339844 593.6555786132812 C 130.5264129638672 602.2440185546875 133.15635681152344 600.7446899414062 134.29312133789062 603.6968994140625 C 142.3251953125 611.608154296875 146.45361328125 611.9893798828125 159.70709228515625 612.280517578125 C 192.16461181640625 614.6982421875 223.3917999267578 625.1405639648438 262.04052734375 647.46484375 C 270.5240173339844 652.8531494140625 285.9212646484375 661.2149047851562 293.6667785644531 666.1239624023438 C 327.54473876953125 684.9794921875 339.2890319824219 691.755859375 355.8738708496094 704.3798828125 C 426.574462890625 755.0252075195312 517.3793334960938 809.2495727539062 633.2943115234375 869.8648681640625 C 680.3135986328125 894.1383666992188 691.4739990234375 899.8611450195312 691.3360595703125 899.5366821289062 C 717.9796142578125 906.6318359375 772.7803955078125 897.9155883789062 836.8094482421875 882.1376342773438 C 881.93408203125 870.92431640625 933.6556396484375 855.5326538085938 935.3977661132812 854.8455810546875 C 943.4313354492188 849.97705078125 948.0198974609375 845.56884765625 950.1971435546875 840.179931640625 C 953.612548828125 832.2282104492188 948.7928466796875 828.9287109375 932.9296264648438 828.7473754882812 C 929.3723754882812 829.6533813476562 922.4816284179688 827.9813842773438 904.7041625976562 826.0047607421875 C 871.9092407226562 822.16455078125 827.1586303710938 818.4837646484375 784.8103637695312 816.6420288085938 C 751.3652954101562 815.8480224609375 720.0076293945312 811.6471557617188 684.8108520507812 804.771728515625 C 581.7415771484375 783.5383911132812 475.2015075683594 737.7185668945312 358.1860656738281 662.8778686523438 C 329.819580078125 644.6514282226562 339.841796875 649.781982421875 316.8046875 637.5361328125 C 302.5626525878906 629.3936157226562 285.2046813964844 619.9261474609375 277.90313720703125 615.3692016601562 C 249.77886962890625 597.5607299804688 222.49998474121094 588.057373046875 201.78439331054688 584.548583984375 C 188.31324768066406 582.2117309570312 175.8168487548828 581.446044921875 157.59458923339844 583.1302490234375" fill="rgb(0, 0, 0)" opacity="0.99920976" stroke-width="1.0"/>
  </g>
</svg>
