<?xml version="1.0" ?>
<svg height="1024" version="1.1" width="1024" xmlns="http://www.w3.org/2000/svg">
  <defs/>
  <g>
    <path d="M 292.55804443359375 203.40478515625 Q 268.866943359375 223.3727569580078 235.4790802001953 235.40765380859375 Q 170.83790588378906 259.14691162109375 137.8949432373047 254.64085388183594 Q 121.1757583618164 258.1443176269531 128.23373413085938 270.96929931640625 Q 156.73182678222656 290.6590881347656 183.3824920654297 290.1221618652344 Q 229.3058319091797 282.6177673339844 279.5389099121094 258.67376708984375 Q 298.1194763183594 250.06143188476562 275.72137451171875 311.52703857421875 L 257.2029113769531 356.63739013671875 Q 223.48574829101562 436.557861328125 215.05918884277344 441.6805419921875 Q 190.50733947753906 459.2398681640625 201.21826171875 476.4119873046875 Q 210.726318359375 499.49200439453125 230.80105590820312 493.5101318359375 Q 258.7552795410156 478.0863037109375 284.68280029296875 473.5091552734375 Q 322.9537048339844 469.6801452636719 316.972412109375 500.616455078125 Q 304.65740966796875 551.6279907226562 289.3921813964844 599.1292114257812 Q 268.9095764160156 650.7955322265625 249.37440490722656 676.4900512695312 Q 209.35360717773438 732.4495849609375 137.4336700439453 786.1412353515625 Q 103.15814208984375 811.3047485351562 68.11717224121094 832.887451171875 Q 54.8003044128418 852.2688598632812 87.38580322265625 842.8297119140625 Q 124.34467315673828 828.8939208984375 168.07693481445312 803.94482421875 Q 222.42724609375 772.2313842773438 259.7503662109375 734.2191162109375 Q 287.7035827636719 704.8599853515625 320.0307922363281 642.1058959960938 Q 352.8666076660156 569.0264892578125 380.7196960449219 511.8589782714844 Q 417.19696044921875 490.47021484375 391.696533203125 469.592041015625 Q 366.25494384765625 452.0263671875 347.80718994140625 443.6710510253906 Q 327.1326904296875 441.7877502441406 278.4154052734375 451.30267333984375 Q 255.5484619140625 455.7353515625 277.3429870605469 401.44427490234375 Q 306.2827453613281 337.2786560058594 341.1605529785156 287.67938232421875 Q 361.86224365234375 260.5655517578125 376.6845397949219 253.923583984375 Q 398.3087463378906 234.8566131591797 364.024658203125 215.63917541503906 Q 314.6473693847656 185.32908630371094 292.55804443359375 203.40478515625" fill="rgb(0, 0, 0)" opacity="0.9990565" stroke-width="1.0"/>
  </g>
</svg>
