<?xml version="1.0" ?>
<svg height="1024" version="1.1" width="1024" xmlns="http://www.w3.org/2000/svg">
  <defs/>
  <g>
    <path d="M 462.4053649902344 377.9174499511719 Q 433.66180419921875 379.32293701171875 452.48919677734375 405.37689208984375 Q 467.1050720214844 423.77850341796875 473.1605224609375 453.7596435546875 Q 483.6565856933594 533.434326171875 469.3606872558594 585.0493774414062 Q 465.09173583984375 601.9827880859375 449.7559509277344 629.9369506835938 Q 459.2865905761719 664.66943359375 489.3744812011719 674.9796752929688 Q 526.550048828125 648.896728515625 560.459716796875 639.0791015625 Q 619.103515625 619.672119140625 713.1303100585938 615.7982788085938 Q 801.973388671875 612.9310913085938 835.2177734375 618.6414794921875 Q 870.2655029296875 619.2998046875 850.8123779296875 590.9652709960938 Q 814.5179443359375 558.4172973632812 783.2167358398438 560.9625244140625 Q 660.6466674804688 568.178955078125 527.8148193359375 597.9228515625 Q 517.1621704101562 592.4299926757812 517.6165161132812 577.6165161132812 L 520.337890625 481.53839111328125 Q 525.496337890625 430.3545837402344 528.7986450195312 419.50177001953125 Q 517.4570922851562 391.9980773925781 461.78753662109375 377.5069580078125 L 462.4053649902344 377.9174499511719" fill="rgb(0, 0, 0)" opacity="1.0" stroke-width="1.0"/>
  </g>
</svg>
