<?xml version="1.0" ?>
<svg height="1024" version="1.1" width="1024" xmlns="http://www.w3.org/2000/svg">
  <defs/>
  <g>
    <path d="M 755.3929443359375 657.2315673828125 C 751.6543579101562 659.9517822265625 749.1710205078125 662.3232421875 748.46826171875 673.687744140625 C 743.77490234375 705.5603637695312 723.8389892578125 737.8707275390625 686.7410278320312 774.2012939453125 C 658.05224609375 801.8505859375 621.034423828125 830.593017578125 571.1243286132812 862.4260864257812 C 544.0029907226562 880.7693481445312 479.6517333984375 913.3665771484375 408.2554016113281 946.9933471679688 C 405.4044494628906 948.5947265625 396.60430908203125 950.9290161132812 400.7769470214844 953.3487548828125 C 399.517333984375 949.2469482421875 398.0727233886719 953.6104125976562 403.2218017578125 956.7786865234375 C 411.2079772949219 957.8114013671875 433.9203796386719 959.0001831054688 463.1912536621094 952.0086669921875 C 509.95654296875 941.6914672851562 566.0785522460938 914.796142578125 626.4769897460938 875.7454223632812 C 672.9859008789062 846.005859375 725.2978515625 806.503662109375 777.5884399414062 763.1591796875 C 794.541015625 748.5264282226562 799.7890625 744.9093627929688 812.0908813476562 736.6348876953125 C 818.76953125 732.85009765625 821.44970703125 729.1597900390625 822.0652465820312 718.9166259765625 C 820.0228881835938 703.92578125 814.5867309570312 694.4278564453125 799.3755493164062 678.7169799804688 C 789.640380859375 669.04248046875 778.2655029296875 662.2094116210938 769.18603515625 659.3531494140625 C 752.3935546875 653.89697265625 757.8446655273438 659.4961547851562 755.3929443359375 657.2315673828125" fill="rgb(0, 0, 0)" opacity="1.0" stroke-width="1.0"/>
  </g>
</svg>
