<?xml version="1.0" ?>
<svg height="1024" version="1.1" width="1024" xmlns="http://www.w3.org/2000/svg">
  <defs/>
  <g>
    <path d="M 774.4989013671875 410.62255859375 C 775.795654296875 410.96881103515625 770.6094970703125 412.27642822265625 773.8359375 426.909423828125 C 772.794677734375 416.34027099609375 771.7828979492188 426.4521179199219 775.0651245117188 428.27313232421875 C 779.1104736328125 434.2252502441406 784.4393920898438 439.6319885253906 803.9459228515625 452.6152648925781 C 820.47119140625 464.7623596191406 850.1201782226562 487.28863525390625 871.2521362304688 503.9989929199219 C 887.111572265625 516.3861694335938 891.6092529296875 522.941650390625 908.8945922851562 520.8883666992188 C 905.8733520507812 520.7547607421875 916.0825805664062 519.4625244140625 916.5482788085938 515.99853515625 C 923.3873291015625 508.7619323730469 923.7611694335938 496.4168395996094 918.263916015625 477.2257385253906 C 913.54248046875 462.1910400390625 912.7474975585938 457.0418395996094 898.2056884765625 444.1792297363281 C 885.0783081054688 435.0875244140625 874.7075805664062 429.0887145996094 862.8541870117188 426.0970764160156 C 808.3494873046875 409.1623840332031 778.57421875 403.4076843261719 774.4989013671875 410.62255859375" fill="rgb(0, 0, 0)" opacity="0.9992959" stroke-width="1.0"/>
  </g>
</svg>
