<?xml version="1.0" ?>
<svg height="1024" version="1.1" width="1024" xmlns="http://www.w3.org/2000/svg">
  <defs/>
  <g>
    <path d="M 588.3453369140625 378.4783630371094 C 587.2191772460938 374.8871765136719 587.4365234375 394.9510803222656 589.383544921875 399.0487060546875 C 595.207763671875 410.8262939453125 599.876220703125 441.08831787109375 598.3019409179688 506.2585754394531 L 597.5521240234375 522.3828735351562 L 600.9232177734375 534.324462890625 C 607.5232543945312 550.10205078125 620.6683959960938 569.0660400390625 623.640625 568.5689697265625 C 629.405517578125 571.21630859375 632.7642822265625 559.681640625 636.7344970703125 539.2752685546875 C 638.6138305664062 532.9339599609375 640.3243408203125 518.5139770507812 643.1633911132812 471.1710205078125 C 644.7122802734375 448.465576171875 644.23046875 449.1156005859375 647.0878295898438 426.4514465332031 C 650.4074096679688 410.62841796875 647.9005126953125 407.3861083984375 646.0558471679688 403.0935974121094 C 641.5068359375 395.05584716796875 635.8955688476562 393.2492980957031 615.8558959960938 382.8019104003906 C 599.3505859375 374.4688415527344 589.6534423828125 370.7583923339844 588.3453369140625 378.4783630371094" fill="rgb(0, 0, 0)" opacity="1.0" stroke-width="1.0"/>
  </g>
</svg>
