<?xml version="1.0" ?>
<svg height="1024" version="1.1" width="1024" xmlns="http://www.w3.org/2000/svg">
  <defs/>
  <g>
    <path d="M 610.6005859375 52.92045974731445 C 609.8380737304688 51.961666107177734 598.1095581054688 57.00505447387695 599.1724243164062 58.81816482543945 C 598.0771484375 58.600894927978516 596.3433227539062 63.00520706176758 598.2950439453125 67.60419464111328 C 602.0891723632812 77.26459503173828 600.272216796875 89.28355407714844 599.6716918945312 89.78529357910156 C 598.4659423828125 104.73267364501953 586.9269409179688 137.7438201904297 567.4692993164062 177.0397186279297 C 547.3135986328125 214.61276245117188 546.333251953125 224.1239776611328 546.9085693359375 224.7820281982422 C 549.0642700195312 230.50025939941406 553.5401000976562 228.29518127441406 559.7395629882812 225.94674682617188 C 574.2060546875 216.9340362548828 576.9089965820312 213.8864288330078 598.659423828125 187.2821502685547 C 636.7745971679688 141.9867401123047 660.1681518554688 115.09805297851562 677.5761108398438 101.35799407958984 C 686.0422973632812 94.33828735351562 688.0034790039062 86.84126281738281 683.715087890625 80.47677612304688 C 682.739501953125 76.71430969238281 678.3690795898438 72.93927001953125 667.1531982421875 66.90054321289062 C 649.6338500976562 57.868568420410156 620.1576538085938 49.88361740112305 610.6005859375 52.92045974731445" fill="rgb(0, 0, 0)" opacity="1.0" stroke-width="1.0"/>
  </g>
</svg>
