<?xml version="1.0" ?>
<svg height="1024" version="1.1" width="1024" xmlns="http://www.w3.org/2000/svg">
  <defs/>
  <g>
    <path d="M 469.1430358886719 220.6842803955078 C 460.728515625 221.36038208007812 457.2215270996094 224.25405883789062 459.0755615234375 232.95323181152344 C 459.1419372558594 231.93453979492188 460.6653747558594 239.6952362060547 466.5947265625 248.21429443359375 C 486.0400390625 281.4004821777344 500.2263488769531 320.1332092285156 512.7501831054688 365.05328369140625 C 515.8115844726562 381.1040344238281 522.3746948242188 393.1955261230469 533.1146850585938 403.1909484863281 C 541.4201049804688 410.416748046875 544.0748291015625 412.84149169921875 547.2684936523438 412.56280517578125 C 544.0900268554688 412.4465637207031 550.083251953125 414.41778564453125 552.0819702148438 411.571044921875 C 557.07470703125 406.3513488769531 555.604248046875 371.3164978027344 543.0107421875 327.98150634765625 C 538.8648681640625 312.19512939453125 530.4755859375 276.75018310546875 527.5259399414062 260.5334167480469 C 525.2733154296875 244.69700622558594 523.7791748046875 241.9089813232422 521.7798461914062 236.23318481445312 C 518.3597412109375 230.87088012695312 513.9132080078125 224.7285614013672 502.8718566894531 222.7872772216797 C 494.2220764160156 220.2872772216797 473.6908264160156 221.29428100585938 469.1430358886719 220.6842803955078" fill="rgb(0, 0, 0)" opacity="1.0" stroke-width="1.0"/>
  </g>
</svg>
