<?xml version="1.0" ?>
<svg height="1024" version="1.1" width="1024" xmlns="http://www.w3.org/2000/svg">
  <defs/>
  <g>
    <path d="M 697.8925170898438 443.6673583984375 C 692.9920654296875 447.6330261230469 694.426513671875 453.9039001464844 693.283935546875 458.4140625 C 688.4907836914062 485.4516296386719 642.145263671875 540.2633666992188 589.916748046875 576.2351684570312 C 562.5540161132812 595.5042724609375 520.130126953125 619.4237670898438 474.6277160644531 642.3985595703125 C 461.0621643066406 648.6480712890625 454.515625 653.2396850585938 451.5521240234375 652.4351196289062 C 451.3591613769531 656.503662109375 451.9666748046875 655.4996337890625 455.23828125 658.2236328125 C 450.1777648925781 656.9651489257812 463.6275939941406 660.4905395507812 485.7392883300781 656.6590576171875 C 510.1071472167969 652.151123046875 536.4105224609375 642.6278076171875 567.9496459960938 627.114501953125 C 587.7250366210938 617.5416870117188 610.7037963867188 604.044189453125 610.4107055664062 604.5464477539062 C 616.091064453125 599.3652954101562 618.67431640625 598.5615234375 615.4318237304688 600.3318481445312 C 635.3496704101562 590.5188598632812 677.9532470703125 557.5963745117188 717.046875 524.2738037109375 C 726.0117797851562 516.1929931640625 733.8087158203125 510.1036071777344 741.779541015625 504.8351135253906 C 744.5873413085938 502.4232482910156 744.5120239257812 504.6642150878906 749.6580810546875 498.5090637207031 C 752.0940551757812 493.5294494628906 751.6344604492188 486.6036376953125 746.48779296875 478.03753662109375 C 737.353271484375 459.66973876953125 723.909423828125 448.2765808105469 706.9742431640625 444.0902404785156 C 697.1879272460938 440.9771728515625 698.5222778320312 445.5429992675781 697.8925170898438 443.6673583984375" fill="rgb(0, 0, 0)" opacity="0.9998674" stroke-width="1.0"/>
  </g>
</svg>
