<?xml version="1.0" ?>
<svg height="1024" version="1.1" width="1024" xmlns="http://www.w3.org/2000/svg">
  <defs/>
  <g>
    <path d="M 738.4042358398438 360.86871337890625 C 714.142578125 364.3614196777344 713.217529296875 367.2704162597656 695.8909912109375 370.58990478515625 C 684.3847045898438 373.8250732421875 657.5091552734375 380.8158874511719 647.5379028320312 384.8613586425781 C 640.5743408203125 386.71142578125 577.1671752929688 401.6216735839844 491.9504699707031 420.07159423828125 C 468.6160583496094 425.3310546875 447.936767578125 429.14788818359375 452.17926025390625 429.29449462890625 C 445.72052001953125 430.2893371582031 448.8871154785156 436.07012939453125 446.8160095214844 431.26519775390625 C 448.1448669433594 433.0882873535156 447.0971374511719 436.8011474609375 452.4741516113281 441.2088928222656 C 459.88433837890625 448.79998779296875 475.0337219238281 454.3005676269531 491.8902587890625 453.08953857421875 C 495.0406799316406 453.2365417480469 497.2036437988281 451.69415283203125 521.168701171875 443.7413635253906 C 575.5149536132812 425.2557373046875 633.073486328125 412.42510986328125 684.0648803710938 405.749755859375 C 720.1198120117188 400.8123779296875 756.4146118164062 398.30462646484375 795.671875 398.0710144042969 C 805.806884765625 398.0798034667969 812.1602783203125 392.0011901855469 811.4157104492188 390.5813293457031 C 817.910400390625 382.3409423828125 797.9636840820312 368.2886047363281 783.1453247070312 364.3758239746094 C 771.0586547851562 359.4840393066406 750.350341796875 358.95269775390625 738.4042358398438 360.86871337890625" fill="rgb(0, 0, 0)" opacity="0.9984137" stroke-width="1.0"/>
  </g>
</svg>
