<?xml version="1.0" ?>
<svg height="1024" version="1.1" width="1024" xmlns="http://www.w3.org/2000/svg">
  <defs/>
  <g>
    <path d="M 724.675048828125 437.9029541015625 C 723.4864501953125 438.3927001953125 715.0694580078125 441.892822265625 707.2132568359375 445.08135986328125 C 645.7476806640625 469.20184326171875 576.0237426757812 486.7337951660156 490.94085693359375 497.2551574707031 C 474.62054443359375 500.31329345703125 462.92889404296875 497.26654052734375 463.89154052734375 509.01580810546875 C 463.39825439453125 504.9002990722656 465.5900573730469 514.4340209960938 466.19305419921875 511.2679443359375 C 466.6416015625 515.6234130859375 480.97039794921875 521.1505126953125 489.85479736328125 523.4485473632812 C 499.44415283203125 526.3277587890625 516.1575317382812 525.7091674804688 530.1878662109375 521.0265502929688 C 532.7303466796875 520.2078857421875 569.4483642578125 512.4314575195312 670.9540405273438 490.7547302246094 C 683.9567260742188 487.89013671875 696.9659423828125 485.4723205566406 704.7637329101562 483.36676025390625 C 713.5369873046875 482.3078918457031 719.1714477539062 482.33355712890625 723.6016235351562 485.3916320800781 C 726.8824462890625 486.94903564453125 733.7593383789062 494.08819580078125 733.5814208984375 504.6661071777344 C 735.6275634765625 507.0088195800781 723.3877563476562 561.5753784179688 713.4120483398438 595.1250610351562 C 708.6895751953125 610.03564453125 709.4020385742188 607.0142822265625 708.771484375 615.8731689453125 C 710.0044555664062 632.2022094726562 731.7600708007812 640.6748046875 744.6751708984375 627.7794799804688 C 749.4196166992188 623.2572631835938 749.2573852539062 620.9220581054688 754.37158203125 606.3698120117188 C 769.9553833007812 558.6361694335938 785.197998046875 528.2443237304688 803.6196899414062 509.60028076171875 C 816.0924682617188 499.95013427734375 820.6463012695312 488.9781494140625 814.1182861328125 477.8379211425781 C 812.0388793945312 473.7079772949219 813.7924194335938 473.0786437988281 785.1842041015625 456.7490234375 C 774.939697265625 451.2844543457031 762.7448120117188 445.2752380371094 754.616455078125 441.4673156738281 C 746.8521728515625 437.68743896484375 744.9224243164062 438.1752014160156 740.02490234375 436.8669128417969 C 725.4700927734375 436.03350830078125 725.4779663085938 439.6046142578125 724.675048828125 437.9029541015625" fill="rgb(0, 0, 0)" opacity="0.9992919" stroke-width="1.0"/>
  </g>
</svg>
