<?xml version="1.0" ?>
<svg height="1024" version="1.1" width="1024" xmlns="http://www.w3.org/2000/svg">
  <defs/>
  <g>
    <path d="M 714.3382568359375 280.71044921875 C 697.4468994140625 281.3274230957031 680.76806640625 286.6092834472656 627.8734130859375 300.7548828125 C 591.3509521484375 310.57379150390625 545.552978515625 322.4383850097656 523.2782592773438 328.1835632324219 C 500.9735107421875 333.9014587402344 483.88836669921875 338.66534423828125 486.4848937988281 337.4703674316406 C 477.6557922363281 340.2802734375 480.8319091796875 341.49700927734375 481.5802307128906 339.7286376953125 C 474.28387451171875 343.39288330078125 486.2882995605469 352.3372802734375 491.1606750488281 354.76837158203125 C 494.1188659667969 356.35577392578125 500.1580505371094 358.48162841796875 510.37567138671875 358.03997802734375 C 518.3401489257812 357.2622985839844 518.1227416992188 357.96826171875 544.091552734375 350.9774169921875 C 552.4219360351562 349.2738037109375 569.4074096679688 344.7841491699219 589.0325927734375 341.3947448730469 C 595.530517578125 340.41302490234375 615.659423828125 335.36151123046875 632.5878295898438 331.4380798339844 C 671.306396484375 322.1396179199219 700.6643676757812 315.9400329589844 723.259033203125 311.3251953125 C 751.5634155273438 306.2685852050781 750.1915893554688 306.3569030761719 756.6920166015625 302.71575927734375 C 758.0106811523438 303.3471374511719 760.3064575195312 297.1487121582031 758.6508178710938 297.1973571777344 C 757.8067626953125 292.9289855957031 748.5654907226562 285.3038330078125 735.4630126953125 281.622802734375 C 727.9725952148438 278.1874694824219 704.1676025390625 281.4151916503906 714.3382568359375 280.71044921875" fill="rgb(0, 0, 0)" opacity="1.0" stroke-width="1.0"/>
  </g>
</svg>
