<?xml version="1.0" ?>
<svg height="1024" version="1.1" width="1024" xmlns="http://www.w3.org/2000/svg">
  <defs/>
  <g>
    <path d="M 811.5841674804688 660.6001586914062 C 812.1256713867188 661.5956420898438 808.6179809570312 663.2885131835938 808.9671020507812 672.2987060546875 C 808.4310302734375 678.7606201171875 809.0206298828125 678.6238403320312 811.7184448242188 682.4053955078125 C 812.7042846679688 685.5031127929688 828.1771850585938 700.2128295898438 843.8203735351562 710.9859008789062 C 863.0914916992188 724.8785400390625 881.125244140625 739.9088745117188 898.2880249023438 754.822021484375 C 910.5510864257812 766.8673706054688 918.6185913085938 769.711669921875 927.2905883789062 770.1372680664062 C 940.2188110351562 770.2428588867188 934.6163940429688 769.6871948242188 940.3954467773438 767.749755859375 C 947.3842163085938 763.4239501953125 950.374755859375 753.1692504882812 949.7647094726562 750.208984375 C 951.6283569335938 738.4524536132812 944.2222290039062 716.37158203125 941.3593139648438 709.3667602539062 C 935.0709228515625 695.3079223632812 919.1265869140625 685.0261840820312 895.9369506835938 676.35595703125 C 874.7032470703125 668.1836547851562 836.3451538085938 660.614013671875 822.2324829101562 659.5089721679688 C 809.98583984375 659.12548828125 813.361328125 662.3753662109375 811.5841674804688 660.6001586914062" fill="rgb(0, 0, 0)" opacity="0.9989455" stroke-width="1.0"/>
  </g>
</svg>
