<?xml version="1.0" ?>
<svg height="1024" version="1.1" width="1024" xmlns="http://www.w3.org/2000/svg">
  <defs/>
  <g>
    <path d="M 386.3907775878906 435.36669921875 C 370.42523193359375 444.51434326171875 358.9745178222656 452.6585998535156 341.4698486328125 463.6539611816406 C 332.089111328125 470.290771484375 308.8886413574219 484.814208984375 291.54302978515625 495.722900390625 C 228.34353637695312 535.1495361328125 177.03187561035156 569.966796875 131.50889587402344 602.2962036132812 C 112.38004302978516 616.5944213867188 88.42088317871094 629.910888671875 68.2464370727539 638.9238891601562 C 55.92820739746094 643.1754760742188 48.95465087890625 650.8681030273438 49.99699401855469 657.3589477539062 C 49.758602142333984 664.775146484375 60.21027755737305 677.391357421875 73.94621276855469 683.2230224609375 C 82.44739532470703 688.9113159179688 106.73505401611328 696.1126708984375 104.1924819946289 695.5891723632812 C 123.5418930053711 700.6078491210938 125.7308578491211 690.8292236328125 136.209228515625 680.197998046875 C 165.14451599121094 648.4114990234375 236.38302612304688 581.0565185546875 298.8609619140625 528.3349609375 C 316.73077392578125 513.44140625 331.1274108886719 501.14501953125 335.65008544921875 496.5214538574219 C 339.8021240234375 493.746826171875 345.0015869140625 488.38531494140625 360.5445251464844 478.63079833984375 C 372.1924133300781 471.884521484375 379.4986877441406 465.61968994140625 383.845947265625 460.84222412109375 C 393.0492248535156 450.06195068359375 400.6757507324219 436.24542236328125 393.22564697265625 434.51287841796875 C 385.5735168457031 433.0245361328125 389.4874267578125 435.8878479003906 386.3907775878906 435.36669921875" fill="rgb(0, 0, 0)" opacity="0.9989115" stroke-width="1.0"/>
  </g>
</svg>
