<?xml version="1.0" ?>
<svg height="1024" version="1.1" width="1024" xmlns="http://www.w3.org/2000/svg">
  <defs/>
  <g>
    <path d="M 468.0473327636719 181.51089477539062 C 467.1691589355469 181.07858276367188 463.01776123046875 186.1566619873047 464.131591796875 194.9673309326172 C 464.8478698730469 195.5830841064453 465.0141296386719 204.86505126953125 468.5365905761719 208.35073852539062 C 481.05548095703125 234.97142028808594 485.9621276855469 262.62457275390625 486.1639099121094 312.9676818847656 C 490.1105651855469 415.4493103027344 488.644287109375 518.5056762695312 484.98870849609375 598.3003540039062 C 482.87384033203125 652.5548095703125 476.2745056152344 742.5228881835938 473.9428405761719 770.6093139648438 C 470.9372253417969 791.4292602539062 464.4815368652344 814.9290161132812 448.71832275390625 839.1550903320312 C 441.6002197265625 849.097900390625 438.1498718261719 859.3816528320312 441.2199401855469 874.0304565429688 C 440.5484313964844 879.4845581054688 453.805419921875 913.952392578125 468.54541015625 917.7232666015625 C 473.27484130859375 919.160888671875 480.0704650878906 917.3721923828125 488.24139404296875 911.1799926757812 C 501.7189636230469 902.3740234375 523.4468994140625 892.3742065429688 541.05224609375 885.2454833984375 C 570.9122314453125 873.0991821289062 620.179443359375 860.6729736328125 649.3922119140625 857.8788452148438 C 698.7070922851562 851.1989135742188 774.1256103515625 848.8033447265625 851.711181640625 850.745361328125 L 928.9439697265625 852.0228881835938 L 938.0016479492188 849.5941772460938 C 939.9439086914062 846.5374145507812 946.786376953125 845.54638671875 944.5344848632812 839.0955200195312 C 946.2025756835938 840.7880249023438 943.4081420898438 830.2965087890625 936.3222045898438 822.486328125 C 930.5941772460938 815.7394409179688 916.0768432617188 802.1957397460938 908.718017578125 800.2453002929688 C 890.9763793945312 795.2892456054688 860.68408203125 795.7821655273438 824.681396484375 801.0830688476562 C 764.959716796875 808.6309814453125 785.8204345703125 806.46044921875 741.6677856445312 809.6614990234375 C 646.1258544921875 816.5048217773438 584.3330078125 822.0900268554688 555.7249755859375 826.5638427734375 C 543.3421630859375 829.137451171875 534.65576171875 826.9638061523438 530.4151611328125 818.5504150390625 C 528.069580078125 815.4955444335938 523.2393188476562 800.4892578125 526.8341064453125 780.4815673828125 C 529.4527587890625 700.1397094726562 533.7091674804688 526.2667846679688 536.2525634765625 368.21453857421875 C 537.756103515625 301.636962890625 536.0966186523438 279.573486328125 544.8966064453125 231.06053161621094 C 544.9407958984375 224.67242431640625 547.9813842773438 219.27413940429688 539.5675659179688 211.7832794189453 C 536.8555297851562 211.0640869140625 512.1513671875 192.05722045898438 499.4272766113281 187.81199645996094 C 487.3487243652344 181.40029907226562 484.6364440917969 180.0460968017578 476.8170471191406 178.60931396484375 C 473.0815734863281 178.52769470214844 470.943359375 178.81381225585938 468.0473327636719 181.51089477539062" fill="rgb(0, 0, 0)" opacity="0.99933845" stroke-width="1.0"/>
  </g>
</svg>
