<?xml version="1.0" ?>
<svg height="1024" version="1.1" width="1024" xmlns="http://www.w3.org/2000/svg">
  <defs/>
  <g>
    <path d="M 827.5706787109375 142.53041076660156 C 800.3269653320312 146.5466766357422 781.6654052734375 150.53517150878906 743.1017456054688 162.5501251220703 C 703.5088500976562 173.84632873535156 720.2386474609375 170.77671813964844 679.7506713867188 178.0553436279297 C 611.041015625 190.63467407226562 559.4154052734375 199.27748107910156 534.7867431640625 203.0489501953125 C 519.8360595703125 204.3488006591797 516.0210571289062 207.26329040527344 514.6468505859375 208.93443298339844 C 507.9095458984375 214.6826629638672 511.29742431640625 225.68797302246094 525.24365234375 232.8966064453125 C 540.442138671875 238.93539428710938 536.793701171875 236.6640625 575.7020263671875 236.93426513671875 L 604.2110595703125 236.380615234375 L 670.3438110351562 223.2476806640625 C 813.85302734375 194.6964569091797 879.6215209960938 178.78846740722656 877.0552368164062 175.93716430664062 C 891.355712890625 165.49632263183594 879.0252685546875 151.42799377441406 856.7363891601562 144.24197387695312 C 849.5164794921875 141.85177612304688 847.3002319335938 141.57196044921875 840.5142211914062 141.69053649902344 C 832.3765258789062 141.70394897460938 819.3184814453125 143.40301513671875 827.5706787109375 142.53041076660156" fill="rgb(0, 0, 0)" opacity="1.0" stroke-width="1.0"/>
  </g>
</svg>
