<?xml version="1.0" ?>
<svg height="1024" version="1.1" width="1024" xmlns="http://www.w3.org/2000/svg">
  <defs/>
  <g>
    <path d="M 260.8542175292969 67.35720825195312 C 251.09048461914062 67.9754409790039 244.96435546875 73.13448333740234 247.01576232910156 83.74803924560547 C 245.96676635742188 81.70247650146484 248.65591430664062 90.23320770263672 257.2215576171875 101.1951904296875 C 267.2008361816406 116.31026458740234 274.7292785644531 132.29580688476562 275.86444091796875 154.6886749267578 C 276.9314880371094 414.0038757324219 274.01055908203125 286.5545654296875 273.4951477050781 433.1805114746094 C 271.63427734375 563.6614990234375 269.48492431640625 507.9190673828125 269.9361572265625 616.6997680664062 C 269.30157470703125 702.71484375 269.07574462890625 745.6975708007812 268.83642578125 744.1157836914062 C 267.6466064453125 756.4108276367188 263.5165100097656 766.6486206054688 260.8890380859375 768.9937744140625 C 254.92428588867188 776.7872314453125 254.22605895996094 775.2140502929688 251.17141723632812 775.17822265625 C 247.2012176513672 775.1486206054688 246.9117431640625 775.1412963867188 237.9628143310547 773.0579223632812 C 225.0223388671875 770.8803100585938 193.052490234375 758.9260864257812 193.0011444091797 759.33251953125 C 176.7066192626953 751.22216796875 169.4324493408203 748.4274291992188 164.5852813720703 750.9381713867188 C 163.98526000976562 752.3148193359375 161.7386474609375 750.0691528320312 163.1566925048828 752.1306762695312 C 161.36134338378906 757.3197021484375 168.20962524414062 765.7300415039062 184.2172088623047 781.3781127929688 C 209.51199340820312 807.1023559570312 224.42298889160156 825.4634399414062 235.36282348632812 840.9112548828125 C 244.11087036132812 854.6211547851562 244.77438354492188 855.2083740234375 251.85488891601562 871.7260131835938 C 255.81056213378906 880.5809326171875 260.0860290527344 887.2687377929688 262.2303466796875 889.71337890625 C 266.5895690917969 896.698974609375 274.8591613769531 902.3109130859375 278.9559020996094 901.9734497070312 C 282.8701171875 902.18408203125 288.78326416015625 899.3408813476562 293.1156311035156 894.5350952148438 C 299.841552734375 885.229736328125 309.6344909667969 875.1497192382812 312.54541015625 864.2394409179688 C 321.70068359375 840.863525390625 328.67791748046875 806.1590576171875 331.1195373535156 766.0706176757812 C 332.026123046875 743.8136596679688 332.5046691894531 758.5769653320312 330.5145263671875 721.5155029296875 C 324.01800537109375 584.08154296875 321.4764404296875 505.92620849609375 323.9555358886719 394.677001953125 C 326.8675231933594 280.9501037597656 326.73773193359375 296.63079833984375 333.045166015625 232.3272705078125 C 338.7591552734375 174.56185913085938 345.08477783203125 134.998046875 347.19158935546875 131.891357421875 C 358.49810791015625 110.86802673339844 346.16180419921875 96.72858428955078 318.30474853515625 84.63038635253906 C 314.9160461425781 83.38373565673828 308.8855285644531 80.56350708007812 302.60943603515625 76.86857604980469 C 287.8748474121094 69.23666381835938 270.6237487792969 63.87485885620117 260.8542175292969 67.35720825195312" fill="rgb(0, 0, 0)" opacity="0.9994386" stroke-width="1.0"/>
  </g>
</svg>
