<?xml version="1.0" ?>
<svg height="1024" version="1.1" width="1024" xmlns="http://www.w3.org/2000/svg">
  <defs/>
  <g>
    <path d="M 475.0281982421875 178.55087280273438 Q 458.3970642089844 180.7395477294922 466.6795959472656 205.5388641357422 Q 485.1300354003906 236.969482421875 486.27313232421875 304.3133239746094 L 488.9259338378906 433.5051574707031 L 486.67901611328125 564.6547241210938 Q 477.79315185546875 750.2893676757812 471.42303466796875 786.2245483398438 Q 463.3765563964844 818.9014282226562 439.4383850097656 854.5818481445312 Q 441.4852294921875 907.3939208984375 473.5673522949219 919.89892578125 Q 514.4973754882812 894.2840576171875 551.4237670898438 881.3770141601562 Q 608.5187377929688 860.9053955078125 672.0810546875 855.1798095703125 L 717.446533203125 851.974853515625 Q 784.79248046875 848.2521362304688 926.707275390625 852.2490234375 Q 961.2979736328125 847.3152465820312 930.6764526367188 816.5958862304688 Q 913.5751342773438 798.6776123046875 898.393798828125 797.9033203125 L 871.1258544921875 796.561279296875 Q 727.3781127929688 811.2693481445312 539.695556640625 826.560546875 Q 526.522216796875 822.5310668945312 525.5656127929688 796.886474609375 L 528.4002685546875 746.0104370117188 L 537.8917846679688 298.16302490234375 Q 537.2236328125 277.4017028808594 546.5253295898438 218.39891052246094 Q 518.5720825195312 194.1525421142578 480.39794921875 179.00306701660156 L 475.0281982421875 178.55087280273438" fill="rgb(0, 0, 0)" opacity="0.997351" stroke-width="1.0"/>
  </g>
</svg>
