<?xml version="1.0" ?>
<svg height="1024" version="1.1" width="1024" xmlns="http://www.w3.org/2000/svg">
  <defs/>
  <g>
    <path d="M 812.75830078125 363.4793701171875 Q 754.6566772460938 385.4459533691406 616.8251953125 406.4899597167969 Q 599.109375 409.6993713378906 596.8088989257812 421.3104248046875 Q 596.6317749023438 435.6963195800781 613.0469970703125 438.35455322265625 Q 726.03662109375 415.583984375 770.4891967773438 403.0563049316406 Q 835.6312255859375 386.3893737792969 839.6632080078125 404.4817199707031 L 844.1365966796875 424.17431640625 Q 849.9861450195312 571.038818359375 832.9989013671875 570.9630737304688 Q 826.2642822265625 570.8729858398438 768.4119262695312 570.3099365234375 Q 811.561279296875 612.9215087890625 837.0669555664062 648.14208984375 Q 847.7545776367188 657.7938842773438 860.7203369140625 655.0305786132812 Q 871.9552612304688 654.8923950195312 879.9461059570312 637.230712890625 Q 901.4463500976562 595.0682983398438 900.9496459960938 550.9080200195312 Q 891.5625610351562 415.3038330078125 906.1767578125 390.719482421875 Q 912.2122192382812 380.5122985839844 851.0693969726562 355.5907287597656 Q 836.6622314453125 347.9547424316406 812.75830078125 363.4793701171875" fill="rgb(0, 0, 0)" opacity="1.0" stroke-width="1.0"/>
  </g>
</svg>
