<?xml version="1.0" ?>
<svg height="1024" version="1.1" width="1024" xmlns="http://www.w3.org/2000/svg">
  <defs/>
  <g>
    <path d="M 574.0062866210938 394.7093505859375 C 560.9559326171875 396.87255859375 566.8175659179688 407.6732177734375 567.8770751953125 407.908935546875 C 577.137451171875 423.22723388671875 582.2539672851562 439.3988952636719 584.8853759765625 460.6495666503906 C 587.8064575195312 483.27142333984375 586.2705688476562 502.8673400878906 585.4323120117188 516.7898559570312 C 583.4404907226562 535.3060913085938 578.47998046875 559.6329956054688 578.301025390625 562.7752075195312 C 570.5007934570312 575.902587890625 569.59033203125 589.92431640625 569.5931396484375 589.1183471679688 C 568.6552734375 606.5885009765625 574.1909790039062 622.24365234375 588.5330200195312 636.7115478515625 C 590.1200561523438 637.8248291015625 592.6162109375 646.1810913085938 598.7788696289062 645.1123657226562 C 606.02001953125 645.2960815429688 617.3938598632812 626.4288330078125 621.4310913085938 601.2706298828125 C 625.76220703125 570.0098266601562 623.1224975585938 575.231689453125 623.5914916992188 452.68341064453125 L 624.4832153320312 418.8888854980469 L 622.3062133789062 413.16534423828125 C 606.3553466796875 399.65179443359375 608.5386962890625 400.1160888671875 597.080810546875 396.2862243652344 C 588.571533203125 393.62518310546875 576.4273681640625 393.3479919433594 574.0062866210938 394.7093505859375" fill="rgb(0, 0, 0)" opacity="1.0" stroke-width="1.0"/>
  </g>
</svg>
