<?xml version="1.0" ?>
<svg height="1024" version="1.1" width="1024" xmlns="http://www.w3.org/2000/svg">
  <defs/>
  <g>
    <path d="M 677.2804565429688 244.962890625 C 671.0527954101562 245.90557861328125 667.6613159179688 251.3416290283203 667.788330078125 259.0236511230469 C 667.8773803710938 255.37527465820312 668.030029296875 258.8606262207031 672.0527954101562 264.51898193359375 C 678.947021484375 278.337890625 681.7578735351562 286.6062316894531 685.3239135742188 302.13836669921875 C 690.8580322265625 328.6423645019531 692.374755859375 353.4645080566406 691.9782104492188 393.1332092285156 C 691.85888671875 618.2720336914062 694.29833984375 735.3466796875 699.785888671875 772.4374389648438 C 701.7442626953125 782.0739135742188 704.479248046875 791.0823974609375 710.6040649414062 793.4716186523438 C 712.695068359375 794.2244873046875 714.3873901367188 793.8588256835938 714.697021484375 792.5614624023438 C 719.6982421875 791.3912353515625 724.8687744140625 785.8710327148438 726.8718872070312 776.8748168945312 C 732.7815551757812 764.6830444335938 738.649658203125 677.5877685546875 736.4094848632812 474.87054443359375 C 737.8805541992188 363.3408203125 734.870849609375 354.9863586425781 745.0739135742188 295.73651123046875 C 749.5093383789062 283.65625 745.1181640625 270.98944091796875 740.1204833984375 266.54193115234375 C 735.51025390625 262.4595031738281 715.7894287109375 250.4975128173828 708.6195678710938 247.49942016601562 C 695.327880859375 241.14231872558594 686.5410766601562 240.61563110351562 677.2804565429688 244.962890625" fill="rgb(0, 0, 0)" opacity="1.0" stroke-width="1.0"/>
  </g>
</svg>
