<?xml version="1.0" ?>
<svg height="1024" version="1.1" width="1024" xmlns="http://www.w3.org/2000/svg">
  <defs/>
  <g>
    <path d="M 542.4344482421875 380.9872741699219 C 534.7424926757812 381.5972595214844 537.137451171875 390.5650634765625 537.5547485351562 389.704345703125 C 542.3653564453125 399.929443359375 540.2050170898438 413.9316101074219 536.28759765625 425.6400146484375 C 531.6660766601562 439.9132995605469 517.8441162109375 467.205810546875 505.8142395019531 486.76483154296875 C 494.2421875 506.46600341796875 489.78857421875 512.067626953125 471.7474060058594 527.2095947265625 C 451.4867248535156 541.7125854492188 451.5460510253906 547.2296752929688 463.1831359863281 571.040283203125 C 466.29150390625 575.1839599609375 470.1636657714844 590.4246215820312 486.3009338378906 580.7295532226562 C 502.26031494140625 573.4310913085938 537.6513061523438 565.7525634765625 591.7889404296875 558.1366577148438 C 595.5780029296875 558.2041015625 617.2616577148438 553.8128051757812 610.4216918945312 555.2286376953125 C 626.1254272460938 551.010009765625 632.6961669921875 545.8623046875 627.7683715820312 542.0075073242188 C 619.025634765625 537.6206665039062 610.0652465820312 539.482177734375 575.8408813476562 537.6148681640625 C 522.5969848632812 536.5435180664062 516.044921875 537.3838500976562 525.4088745117188 537.2184448242188 C 509.8319091796875 536.6585083007812 513.119140625 528.3631591796875 521.0757446289062 521.8091430664062 C 521.69775390625 519.6954956054688 530.189697265625 510.2199401855469 535.6080932617188 503.49737548828125 C 549.0740966796875 486.68450927734375 564.0505981445312 469.77838134765625 581.2885131835938 451.8453063964844 C 591.9392700195312 440.31646728515625 604.23388671875 431.0653991699219 598.4638671875 422.3983154296875 C 599.1436767578125 425.4349365234375 597.1484985351562 416.2906188964844 598.56689453125 422.46722412109375 C 591.5203857421875 408.3402404785156 565.80126953125 388.38043212890625 567.2283935546875 387.80548095703125 C 558.5939331054688 380.55780029296875 553.979736328125 379.6781005859375 542.4344482421875 380.9872741699219" fill="rgb(0, 0, 0)" opacity="0.9995526" stroke-width="1.0"/>
  </g>
</svg>
