<?xml version="1.0" ?>
<svg height="1024" version="1.1" width="1024" xmlns="http://www.w3.org/2000/svg">
  <defs/>
  <g>
    <path d="M 533.646484375 329.9750061035156 C 503.111083984375 332.9540100097656 394.1321105957031 355.27972412109375 391.47869873046875 355.4795837402344 C 376.6234130859375 359.8385314941406 370.7548828125 364.6664123535156 372.29095458984375 369.7316589355469 C 374.5649108886719 374.2615051269531 372.7539978027344 370.7157287597656 376.8492736816406 374.307373046875 C 381.0008850097656 374.557373046875 377.5127258300781 377.55853271484375 405.90057373046875 376.96502685546875 C 414.02032470703125 377.2434387207031 411.4951171875 376.6549987792969 441.9791564941406 372.4210510253906 C 481.4027099609375 366.52362060546875 520.935302734375 361.8610534667969 554.9918823242188 358.8004455566406 C 574.1524047851562 357.52923583984375 581.0990600585938 354.65545654296875 582.27099609375 353.120849609375 C 588.8604125976562 348.6019592285156 584.7871704101562 339.5235900878906 567.2239379882812 331.7807922363281 C 554.7905883789062 326.9980163574219 563.4573364257812 328.0597839355469 554.7952270507812 327.7463684082031 C 558.715576171875 327.29034423828125 539.4493408203125 328.5301513671875 533.646484375 329.9750061035156" fill="rgb(0, 0, 0)" opacity="0.9995959" stroke-width="1.0"/>
  </g>
</svg>
