<?xml version="1.0" ?>
<svg height="1024" version="1.1" width="1024" xmlns="http://www.w3.org/2000/svg">
  <defs/>
  <g>
    <path d="M 594.625732421875 131.00204467773438 C 604.6507568359375 128.42333984375 590.5985107421875 131.95516967773438 589.9608764648438 131.1409912109375 C 582.4669189453125 133.06109619140625 580.6620483398438 132.3961944580078 564.0166625976562 138.02926635742188 C 557.587646484375 140.4093780517578 567.0863647460938 137.46092224121094 547.3448486328125 140.9564971923828 C 496.1719665527344 149.6509552001953 358.4794006347656 177.76390075683594 361.758056640625 176.75230407714844 C 345.5690002441406 180.4403533935547 340.4187316894531 190.4818115234375 342.4328308105469 199.131103515625 C 345.1552734375 207.2394256591797 353.9793701171875 211.69549560546875 368.3783264160156 207.72520446777344 C 371.8417053222656 207.2547149658203 386.6286315917969 202.560791015625 387.0134582519531 202.81130981445312 C 418.77349853515625 194.70504760742188 472.4263610839844 183.23011779785156 534.5916748046875 173.0616912841797 C 567.47412109375 167.16958618164062 582.6987915039062 165.18276977539062 596.7308959960938 173.56492614746094 C 606.9517822265625 184.32232666015625 604.30517578125 187.63336181640625 603.97998046875 198.5343017578125 C 604.85888671875 192.9290313720703 593.2254028320312 261.6690673828125 587.4929809570312 283.9551086425781 C 581.2913208007812 311.0049133300781 577.8692016601562 321.8756103515625 567.4488525390625 327.4344787597656 C 551.1243896484375 337.0096130371094 552.39892578125 340.4752197265625 554.6476440429688 345.1560363769531 C 554.33837890625 345.33416748046875 572.98046875 370.8563537597656 576.8287963867188 373.6432189941406 C 582.586669921875 379.4403076171875 589.76318359375 384.063232421875 590.9133911132812 384.4874267578125 C 594.2116088867188 385.7679748535156 596.0690307617188 387.44354248046875 600.94677734375 385.7357177734375 C 606.815185546875 384.6872863769531 616.2219848632812 372.2019348144531 616.4259643554688 370.39312744140625 C 624.8380126953125 352.25921630859375 633.8125 321.4397888183594 646.9404907226562 271.4024353027344 C 650.3065795898438 257.3681945800781 652.7377319335938 247.05458068847656 655.854736328125 239.18336486816406 C 661.317138671875 224.13389587402344 670.084228515625 208.2828369140625 682.2115478515625 194.8027801513672 C 692.0506591796875 184.8852996826172 688.1072387695312 180.80615234375 686.2112426757812 174.4149627685547 C 678.9276123046875 162.1747589111328 652.3978271484375 144.457763671875 630.6002807617188 131.74468994140625 C 629.368896484375 130.56431579589844 620.9053955078125 129.53759765625 619.95556640625 128.74342346191406 C 601.6922607421875 128.34466552734375 598.4197998046875 130.093505859375 594.625732421875 131.00204467773438" fill="rgb(0, 0, 0)" opacity="0.9995118" stroke-width="1.0"/>
  </g>
</svg>
