<?xml version="1.0" ?>
<svg height="1024" version="1.1" width="1024" xmlns="http://www.w3.org/2000/svg">
  <defs/>
  <g>
    <path d="M 404.7926330566406 459.5524597167969 C 399.57415771484375 459.54156494140625 397.3944396972656 470.2823486328125 398.3798522949219 478.048828125 C 397.04815673828125 490.5429992675781 392.39532470703125 504.14996337890625 369.0113830566406 546.1505126953125 C 358.469970703125 567.0758056640625 357.7223815917969 566.0335693359375 326.3441467285156 604.746337890625 C 292.14361572265625 645.3154296875 265.8481750488281 675.2025756835938 251.79534912109375 683.3095092773438 C 244.583984375 685.7113037109375 239.7620849609375 694.296142578125 240.0546875 700.9721069335938 C 239.18417358398438 707.7642822265625 244.38462829589844 714.4483642578125 252.58352661132812 722.9214477539062 C 265.2611389160156 731.875 266.6959533691406 742.6060180664062 285.203857421875 728.9944458007812 C 320.97265625 706.7716674804688 362.1738586425781 690.2211303710938 409.25897216796875 676.9937133789062 C 426.8430480957031 672.619140625 433.0563049316406 669.7320556640625 435.7359619140625 663.896240234375 C 434.584228515625 657.4417114257812 420.6545715332031 655.7883911132812 399.234375 660.881591796875 C 385.1066589355469 663.06591796875 347.7290344238281 670.451171875 328.3834533691406 675.0894165039062 C 316.70330810546875 678.2330932617188 307.8594970703125 681.2666015625 307.3597106933594 674.909423828125 C 311.4616394042969 679.4427490234375 307.8505554199219 675.4979858398438 308.05059814453125 674.7782592773438 C 310.9254150390625 668.00390625 310.8858337402344 668.665771484375 333.80517578125 640.9902954101562 C 382.0788269042969 582.8954467773438 422.85595703125 540.17822265625 449.5802307128906 519.5013427734375 C 462.45904541015625 509.0114440917969 462.79248046875 506.8155822753906 459.781494140625 497.56268310546875 C 453.3490295410156 484.2951354980469 432.5237121582031 468.64739990234375 419.8829650878906 462.52081298828125 C 409.981689453125 457.94189453125 403.7726745605469 458.8211669921875 404.7926330566406 459.5524597167969" fill="rgb(0, 0, 0)" opacity="0.99954027" stroke-width="1.0"/>
  </g>
</svg>
