<?xml version="1.0" ?>
<svg height="1024" version="1.1" width="1024" xmlns="http://www.w3.org/2000/svg">
  <defs/>
  <g>
    <path d="M 648.354248046875 437.1434326171875 C 646.6981201171875 439.422119140625 645.3555908203125 442.6282043457031 645.1041259765625 449.4400939941406 C 645.1558837890625 469.2878112792969 639.1549072265625 484.84429931640625 624.4779052734375 514.775634765625 C 613.386962890625 538.5870971679688 604.3765258789062 552.2901000976562 585.5465087890625 575.0684204101562 C 552.1132202148438 617.0528564453125 529.423095703125 641.9915161132812 514.2395629882812 654.5835571289062 C 502.95831298828125 661.2821044921875 500.3730163574219 669.2830200195312 502.03338623046875 674.1591796875 C 501.75335693359375 682.045166015625 507.3064270019531 687.733154296875 513.9300537109375 695.6746215820312 C 524.1276245117188 705.19140625 528.8081665039062 710.166259765625 534.9221801757812 709.3692626953125 C 536.5726318359375 709.6153564453125 542.4889526367188 709.032958984375 552.3108520507812 701.8234252929688 C 574.0818481445312 688.4220581054688 602.617919921875 675.6725463867188 628.5955200195312 667.6232299804688 C 644.0431518554688 662.3341674804688 673.2294311523438 654.6983032226562 672.5474243164062 656.12060546875 C 688.29345703125 653.8490600585938 693.931884765625 650.0527954101562 692.1834106445312 645.2702026367188 C 693.6915893554688 648.1694946289062 689.545166015625 642.2579956054688 686.0740966796875 642.3565673828125 C 685.6664428710938 642.0811767578125 681.7401733398438 639.5952758789062 661.1358642578125 640.0828247070312 C 640.9239501953125 640.7474365234375 617.5449829101562 643.2626953125 596.0134887695312 647.6461791992188 C 577.8213500976562 651.8526611328125 571.1480102539062 651.8931884765625 570.8163452148438 649.0059204101562 C 569.576171875 650.05078125 569.0545043945312 645.1604614257812 575.9368896484375 636.484130859375 C 580.2215576171875 631.8740234375 674.5527954101562 524.8672485351562 695.2030639648438 502.6936950683594 C 703.865478515625 492.9927673339844 709.8064575195312 487.37152099609375 710.5069580078125 484.1889343261719 C 713.372802734375 478.323974609375 709.0122680664062 469.3580627441406 694.963134765625 455.99481201171875 C 680.2000732421875 443.88897705078125 668.4002685546875 435.9296875 655.9388427734375 435.3385925292969 C 651.4547729492188 433.9294738769531 648.22412109375 436.212890625 648.354248046875 437.1434326171875" fill="rgb(0, 0, 0)" opacity="1.0" stroke-width="1.0"/>
  </g>
</svg>
