<?xml version="1.0" ?>
<svg height="1024" version="1.1" width="1024" xmlns="http://www.w3.org/2000/svg">
  <defs/>
  <g>
    <path d="M 304.0343322753906 165.21734619140625 C 303.00091552734375 165.6604461669922 298.6612243652344 169.51177978515625 300.00775146484375 174.14834594726562 C 298.9014587402344 172.32867431640625 304.0438537597656 189.77291870117188 306.5997619628906 193.0301971435547 C 314.5331115722656 209.8913116455078 322.1480712890625 229.70069885253906 326.52679443359375 244.2177276611328 C 334.4079284667969 267.03790283203125 344.188720703125 306.2040710449219 349.34619140625 335.080322265625 C 352.9517822265625 350.1120300292969 350.7756042480469 345.76593017578125 354.334228515625 359.65850830078125 C 358.822021484375 376.99688720703125 368.7812194824219 393.6277160644531 378.44122314453125 400.027099609375 C 381.0428466796875 402.7328186035156 388.17706298828125 404.59735107421875 389.7423095703125 399.6802978515625 C 393.5116882324219 398.1171569824219 394.3768615722656 384.7194519042969 393.98828125 354.3056335449219 C 393.56005859375 354.7352294921875 392.1418762207031 334.0689392089844 379.3369445800781 278.1454772949219 C 377.69000244140625 273.23114013671875 362.3251037597656 179.68435668945312 361.94012451171875 178.42916870117188 C 361.28973388671875 175.96510314941406 349.0906982421875 170.86770629882812 323.73260498046875 166.43141174316406 C 312.0788269042969 164.39996337890625 310.4595947265625 162.71849060058594 304.0343322753906 165.21734619140625" fill="rgb(0, 0, 0)" opacity="1.0" stroke-width="1.0"/>
  </g>
</svg>
