<?xml version="1.0" ?>
<svg height="1024" version="1.1" width="1024" xmlns="http://www.w3.org/2000/svg">
  <defs/>
  <g>
    <path d="M 587.4600830078125 143.24830627441406 C 577.2484741210938 147.96287536621094 578.19482421875 145.67152404785156 562.613037109375 151.22891235351562 C 557.0039672851562 152.4606475830078 531.2206420898438 160.97845458984375 510.5857238769531 167.65647888183594 C 475.8954162597656 178.5535888671875 474.7997131347656 181.25160217285156 437.58135986328125 185.6998748779297 C 422.7904052734375 188.3564453125 413.09234619140625 191.83444213867188 413.23675537109375 194.57838439941406 C 409.4297790527344 198.48880004882812 419.981201171875 203.88787841796875 426.9832763671875 205.44252014160156 C 443.48260498046875 214.69857788085938 472.1065979003906 211.7529754638672 516.172119140625 205.2308807373047 C 548.6832275390625 200.48744201660156 552.8652954101562 200.588134765625 558.13720703125 202.81227111816406 C 560.4898681640625 208.09567260742188 559.3148193359375 208.77879333496094 553.5575561523438 226.63107299804688 C 538.6565551757812 268.1863708496094 523.7332763671875 298.56658935546875 502.31195068359375 330.8675842285156 C 485.7818603515625 353.4140930175781 484.4476318359375 357.44244384765625 487.1307373046875 362.2080993652344 C 493.0040283203125 367.5183410644531 509.0338134765625 361.731689453125 522.01953125 351.0110168457031 C 522.3873901367188 351.43023681640625 531.6424560546875 341.838623046875 536.2236938476562 333.3576965332031 C 572.14501953125 283.54791259765625 612.1398315429688 244.70631408691406 660.0429077148438 210.79653930664062 C 673.4291381835938 201.57688903808594 676.126953125 200.53062438964844 678.743408203125 192.3734130859375 C 678.6476440429688 182.26544189453125 679.6519165039062 181.30255126953125 637.1188354492188 154.78274536132812 C 626.1224975585938 149.01837158203125 616.9202270507812 142.2091522216797 613.3876342773438 141.5884246826172 C 606.1751708984375 138.9821014404297 594.4529418945312 138.6426239013672 587.4600830078125 143.24830627441406" fill="rgb(0, 0, 0)" opacity="0.9995235" stroke-width="1.0"/>
  </g>
</svg>
