<?xml version="1.0" ?>
<svg height="1024" version="1.1" width="1024" xmlns="http://www.w3.org/2000/svg">
  <defs/>
  <g>
    <path d="M 672.8030395507812 300.11822509765625 C 669.5133666992188 298.7528991699219 658.2091064453125 304.2073059082031 637.47314453125 311.0660705566406 C 596.1334838867188 325.0096740722656 551.7941284179688 337.1100158691406 518.3071899414062 343.4200439453125 C 459.8957214355469 355.2565612792969 396.4994812011719 364.77069091796875 333.581298828125 371.12274169921875 C 317.641357421875 372.5127868652344 301.8822937011719 374.4910888671875 308.16754150390625 374.7376708984375 C 297.6612854003906 376.8736877441406 294.85504150390625 389.8598327636719 295.9551086425781 393.6169738769531 C 296.1432189941406 405.2281799316406 305.9484558105469 412.60894775390625 314.06378173828125 413.2307434082031 C 321.6715393066406 413.0474548339844 322.363037109375 411.8424377441406 333.01861572265625 409.3488464355469 C 345.00299072265625 404.8741760253906 343.84613037109375 406.388916015625 362.5851135253906 402.8559875488281 C 395.5501403808594 397.5785217285156 409.7871398925781 395.08941650390625 460.7368469238281 386.963623046875 C 486.5093688964844 382.7595520019531 504.35662841796875 380.31781005859375 516.410888671875 377.4057312011719 C 534.941162109375 373.261962890625 570.3695678710938 365.96722412109375 601.4578247070312 360.8617858886719 C 627.9757690429688 356.1162109375 636.234375 354.9284362792969 645.5487060546875 354.971923828125 C 655.9365234375 355.19964599609375 660.9684448242188 356.3710021972656 666.7100219726562 358.97869873046875 C 672.0021362304688 363.125 676.4781494140625 364.01715087890625 676.1051635742188 374.919921875 C 676.9627685546875 377.2433166503906 673.3635864257812 395.3887634277344 669.4652709960938 407.5225524902344 C 665.7622680664062 420.7829895019531 646.8820190429688 472.12591552734375 645.9286499023438 475.2413024902344 C 639.070556640625 486.3248596191406 642.8956298828125 489.73834228515625 641.4635620117188 490.07684326171875 C 643.3062133789062 496.73779296875 646.000244140625 501.66119384765625 656.6385498046875 506.4294128417969 C 671.7748413085938 511.05328369140625 663.9365844726562 507.1791687011719 668.4891357421875 509.14727783203125 C 676.3807983398438 509.9171142578125 689.8424682617188 505.5104064941406 683.6763916015625 507.4075622558594 C 697.2014770507812 502.79803466796875 699.3097534179688 495.3726501464844 705.1868286132812 483.5321044921875 C 727.2586669921875 439.5595397949219 748.9791259765625 410.53546142578125 771.1053466796875 398.3997497558594 C 779.3067016601562 395.8094177246094 796.8541870117188 377.9632263183594 784.2643432617188 358.8249816894531 C 784.2740478515625 354.39483642578125 758.0768432617188 333.7997741699219 717.1820678710938 310.36065673828125 C 704.1771850585938 302.32122802734375 695.1590576171875 297.74847412109375 678.4271240234375 298.78118896484375 C 672.36572265625 299.7005310058594 669.7024536132812 299.5465087890625 672.8030395507812 300.11822509765625" fill="rgb(0, 0, 0)" opacity="0.9992406" stroke-width="1.0"/>
  </g>
</svg>
