<?xml version="1.0" ?>
<svg height="1024" version="1.1" width="1024" xmlns="http://www.w3.org/2000/svg">
  <defs/>
  <g>
    <path d="M 537.9852905273438 564.3587036132812 C 535.2694091796875 566.1775512695312 529.953857421875 567.4359741210938 530.6891479492188 574.5261840820312 C 529.92724609375 575.1156616210938 533.5626220703125 589.6952514648438 537.1121826171875 607.3446044921875 C 549.3148803710938 667.4508666992188 545.0889282226562 662.4613037109375 545.73779296875 682.038330078125 C 544.05615234375 778.6021728515625 545.6251831054688 808.8998413085938 552.3167724609375 835.6435546875 C 554.40185546875 849.9785766601562 562.9168090820312 864.8965454101562 575.2492065429688 875.71337890625 C 599.3795166015625 898.1076049804688 635.7080688476562 912.9843139648438 682.7989501953125 917.5521240234375 C 704.2525634765625 919.813720703125 728.5717163085938 919.947998046875 753.5838623046875 918.2332153320312 C 788.8374633789062 916.0445556640625 829.7774658203125 906.21484375 846.9924926757812 898.973876953125 C 868.4154663085938 890.3807373046875 891.34130859375 877.2620849609375 909.6489868164062 863.8719482421875 C 917.7993774414062 858.3937377929688 920.3864135742188 849.3775024414062 919.7432250976562 846.7057495117188 C 920.3443603515625 839.180908203125 917.264404296875 833.9716186523438 914.9991455078125 828.4635620117188 C 906.7841796875 809.6660766601562 898.1514892578125 759.6491088867188 893.7943115234375 733.762451171875 C 894.7540893554688 724.6443481445312 886.93212890625 711.585205078125 883.1585083007812 720.391845703125 C 882.6720581054688 718.7018432617188 841.9404296875 816.2745971679688 838.4126586914062 827.9260864257812 C 837.8558349609375 830.2528076171875 824.4669799804688 841.123046875 822.0272216796875 841.3013305664062 C 806.6044311523438 851.0736694335938 778.2484130859375 859.5751953125 756.5589599609375 862.4275512695312 C 734.0161743164062 865.588134765625 713.2669067382812 865.2936401367188 689.17919921875 862.79541015625 C 676.7822265625 860.8792724609375 658.9642944335938 858.0942993164062 644.8224487304688 853.4279174804688 C 623.602783203125 847.1575317382812 606.1839599609375 834.5656127929688 599.4749145507812 818.7315063476562 C 593.3601684570312 805.67529296875 585.92236328125 784.1756591796875 586.2085571289062 751.1613159179688 C 586.4290771484375 746.5381469726562 588.2901000976562 682.083740234375 598.4620971679688 622.99365234375 C 603.9713745117188 593.9080200195312 599.322998046875 591.7652587890625 588.3497314453125 582.5950317382812 C 581.6868286132812 574.6795654296875 551.4315185546875 560.8533935546875 547.64892578125 563.9714965820312 C 549.5528564453125 563.5992431640625 547.076904296875 562.34765625 537.9852905273438 564.3587036132812" fill="rgb(0, 0, 0)" opacity="1.0" stroke-width="1.0"/>
  </g>
</svg>
