<?xml version="1.0" ?>
<svg height="1024" version="1.1" width="1024" xmlns="http://www.w3.org/2000/svg">
  <defs/>
  <g>
    <path d="M 238.6416473388672 570.5607299804688 C 234.84608459472656 571.8253173828125 229.82749938964844 576.9666748046875 232.46957397460938 586.0311889648438 C 230.76806640625 579.9605712890625 233.33956909179688 587.4288940429688 236.1705780029297 592.6965942382812 C 248.70849609375 620.4962158203125 256.11114501953125 648.6775512695312 260.2861022949219 685.8120727539062 C 262.895263671875 717.234375 263.15338134765625 743.7313232421875 259.5436706542969 767.5269165039062 C 254.89340209960938 793.382568359375 242.48716735839844 816.4188232421875 221.00936889648438 841.0001831054688 C 216.0501708984375 845.2882690429688 214.6190948486328 848.04296875 210.93775939941406 858.3577880859375 C 206.72247314453125 877.71728515625 213.6522674560547 882.0712890625 213.03147888183594 885.7335815429688 C 223.356201171875 914.0865478515625 232.34823608398438 924.7498779296875 245.8856964111328 919.4793090820312 C 245.20941162109375 920.5100708007812 252.62034606933594 915.1031494140625 260.1209411621094 905.776611328125 C 279.944091796875 886.3443603515625 315.8685302734375 861.7041015625 383.1995544433594 820.805419921875 C 414.889892578125 801.7736206054688 447.6868591308594 782.692626953125 450.18792724609375 781.3557739257812 C 461.0699768066406 776.4940795898438 469.1648864746094 770.2847900390625 468.6907958984375 769.340576171875 C 472.0055847167969 767.8051147460938 473.57586669921875 763.6156005859375 473.22967529296875 758.0407104492188 C 473.28643798828125 760.7978515625 473.11553955078125 753.5177612304688 465.7340393066406 755.3023681640625 C 456.6163635253906 756.6880493164062 419.6210632324219 769.6748657226562 360.8117980957031 791.7797241210938 C 336.8597717285156 800.4934692382812 318.4053039550781 808.7021484375 312.96630859375 807.97998046875 C 309.06732177734375 808.4673461914062 305.7767028808594 806.1909790039062 303.88330078125 799.6033935546875 C 305.33905029296875 790.9392700195312 302.1761474609375 808.283447265625 305.7453918457031 775.5731811523438 C 308.86260986328125 736.888916015625 310.6769104003906 712.8129272460938 309.8379211425781 671.5264892578125 C 310.05157470703125 634.5634155273438 309.4682312011719 605.768798828125 307.7279357910156 603.7858276367188 C 309.9289245605469 606.6242065429688 304.770751953125 600.7576293945312 301.6850891113281 598.5349731445312 C 274.715576171875 574.599609375 247.9881591796875 564.4769897460938 238.6416473388672 570.5607299804688" fill="rgb(0, 0, 0)" opacity="0.9999408" stroke-width="1.0"/>
  </g>
</svg>
