<?xml version="1.0" ?>
<svg height="1024" version="1.1" width="1024" xmlns="http://www.w3.org/2000/svg">
  <defs/>
  <g>
    <path d="M 417.0016174316406 45.009891510009766 L 415.54632568359375 48.47343063354492 L 416.5098876953125 66.53364562988281 C 416.92132568359375 97.55938720703125 409.451416015625 129.33912658691406 393.1748352050781 162.80148315429688 C 371.2109375 208.96458435058594 340.0927429199219 245.20574951171875 319.96875 265.9453430175781 C 309.3271484375 272.12890625 289.3976135253906 292.5081481933594 274.72259521484375 311.50665283203125 C 267.9085693359375 317.97296142578125 267.072509765625 324.1936950683594 267.2008056640625 327.859619140625 C 269.16448974609375 329.7644958496094 267.3559875488281 332.7848205566406 287.003662109375 327.4054260253906 C 323.62884521484375 317.1969909667969 368.9821472167969 280.0710754394531 416.3937683105469 220.62380981445312 C 427.7088928222656 207.1158905029297 442.17657470703125 185.69039916992188 443.7132873535156 184.05734252929688 C 446.75958251953125 175.7994842529297 470.295654296875 142.9957733154297 493.2101745605469 112.43293762207031 C 505.3599853515625 95.19658660888672 505.5912170410156 98.929443359375 506.30303955078125 88.13880157470703 C 503.7550964355469 76.28583526611328 497.5669250488281 72.06998443603516 480.84893798828125 59.989742279052734 C 459.98779296875 46.290122985839844 444.1448059082031 39.68526077270508 426.9768981933594 39.85953903198242 C 427.4033508300781 40.384456634521484 420.1752014160156 38.34634780883789 417.0016174316406 45.009891510009766" fill="rgb(0, 0, 0)" opacity="0.99911666" stroke-width="1.0"/>
  </g>
</svg>
