<?xml version="1.0" ?>
<svg height="1024" version="1.1" width="1024" xmlns="http://www.w3.org/2000/svg">
  <defs/>
  <g>
    <path d="M 742.7420654296875 564.81787109375 C 740.0429077148438 568.2515869140625 741.4999389648438 566.298828125 738.4345092773438 577.9356079101562 C 738.3289184570312 582.2091064453125 733.7086181640625 592.85107421875 725.5444946289062 601.7432861328125 C 715.4539794921875 614.9658813476562 693.2332763671875 632.9534912109375 660.6328735351562 653.8385009765625 C 619.3455810546875 680.3617553710938 583.4781494140625 703.5093383789062 576.1181030273438 710.918701171875 C 570.3455200195312 715.2981567382812 566.2787475585938 721.3375854492188 568.7741088867188 722.1675415039062 C 572.2675170898438 725.9046020507812 589.1685180664062 719.8470458984375 636.9002075195312 704.4256591796875 C 661.7160034179688 695.6271362304688 674.5664672851562 691.106201171875 698.6323852539062 680.1702270507812 C 745.3912963867188 659.3455200195312 774.1357421875 649.8355712890625 793.7168579101562 646.1559448242188 C 803.6057739257812 645.2101440429688 809.3112182617188 641.7023315429688 809.9713134765625 639.9241333007812 C 811.5142822265625 637.0880126953125 814.63623046875 635.3007202148438 812.856201171875 626.926025390625 C 812.68701171875 621.0197143554688 814.1619262695312 623.518310546875 809.3160400390625 612.8659057617188 C 802.0965576171875 599.4242553710938 791.0811157226562 586.2699584960938 773.3622436523438 573.4945678710938 C 759.253173828125 562.271484375 748.1348266601562 560.7352905273438 742.7420654296875 564.81787109375" fill="rgb(0, 0, 0)" opacity="1.0" stroke-width="1.0"/>
  </g>
</svg>
