<?xml version="1.0" ?>
<svg height="1024" version="1.1" width="1024" xmlns="http://www.w3.org/2000/svg">
  <defs/>
  <g>
    <path d="M 246.30673217773438 361.66131591796875 C 236.8079071044922 363.6067199707031 237.41799926757812 364.5309143066406 235.36216735839844 368.0168762207031 C 234.39471435546875 376.2172546386719 236.1950225830078 377.74920654296875 245.30764770507812 392.68438720703125 C 268.1768493652344 430.1119079589844 284.1113586425781 466.8534240722656 300.4079895019531 522.3086547851562 C 306.5627746582031 545.9674072265625 312.63372802734375 556.2425537109375 322.8115539550781 567.6869506835938 C 341.91522216796875 587.1773071289062 352.9293518066406 587.2860717773438 354.18560791015625 566.3209228515625 C 355.1869201660156 561.4991455078125 355.8298034667969 566.0579223632812 350.8455810546875 537.3101806640625 C 349.47625732421875 525.371826171875 343.11724853515625 501.23516845703125 336.1042785644531 469.3439636230469 C 316.7911682128906 384.0531311035156 313.582763671875 373.2250061035156 314.271484375 373.3966369628906 C 310.38006591796875 369.2940368652344 297.3909912109375 367.0437927246094 277.0223083496094 363.7806396484375 C 251.81805419921875 360.933837890625 260.1259765625 360.350341796875 246.30673217773438 361.66131591796875" fill="rgb(0, 0, 0)" opacity="1.0" stroke-width="1.0"/>
  </g>
</svg>
