<?xml version="1.0" ?>
<svg height="1024" version="1.1" width="1024" xmlns="http://www.w3.org/2000/svg">
  <defs/>
  <g>
    <path d="M 727.5831298828125 490.6218566894531 C 675.71435546875 513.0692138671875 607.1890869140625 534.6395874023438 516.4751586914062 555.5023193359375 C 500.324462890625 558.6007690429688 496.1757507324219 561.9942626953125 497.8692626953125 561.7367553710938 C 495.3190002441406 563.7813720703125 501.1260070800781 567.8031616210938 507.7975769042969 572.7860107421875 C 521.4061279296875 585.6646118164062 534.5418090820312 589.8593139648438 546.6317138671875 587.07763671875 C 552.7611694335938 587.201171875 563.7870483398438 580.697998046875 575.2457275390625 576.7525634765625 C 628.425537109375 554.6842651367188 707.3023681640625 534.9299926757812 710.712158203125 535.73828125 C 729.5646362304688 533.6831665039062 723.5510864257812 538.7930908203125 726.839111328125 538.0623168945312 C 738.687255859375 550.8728637695312 731.5475463867188 553.1036376953125 733.32861328125 559.8136596679688 C 730.704345703125 564.1142578125 723.72265625 588.9752197265625 714.5381469726562 609.2952270507812 C 709.3486328125 623.9800415039062 703.1055908203125 627.2025146484375 709.2205810546875 635.2554931640625 C 712.6023559570312 636.4379272460938 713.7936401367188 637.0426025390625 721.1663208007812 629.725830078125 C 724.9794311523438 626.1182861328125 756.8579711914062 602.168701171875 769.1533813476562 593.7894897460938 C 797.4237060546875 573.3630981445312 830.0836791992188 553.156982421875 843.205322265625 549.3350830078125 C 852.0919799804688 547.9578857421875 850.592529296875 535.5381469726562 848.1937866210938 533.5741577148438 C 847.759033203125 530.429931640625 838.999267578125 521.7804565429688 824.4796752929688 516.3070068359375 C 779.8329467773438 492.4364013671875 759.0027465820312 485.5810852050781 747.47900390625 484.5748291015625 L 740.8877563476562 484.74456787109375 L 727.5831298828125 490.6218566894531" fill="rgb(0, 0, 0)" opacity="1.0" stroke-width="1.0"/>
  </g>
</svg>
