<?xml version="1.0" ?>
<svg height="1024" version="1.1" width="1024" xmlns="http://www.w3.org/2000/svg">
  <defs/>
  <g>
    <path d="M 333.8180847167969 704.47412109375 C 330.76446533203125 705.399658203125 300.74444580078125 735.661376953125 246.9274444580078 791.1527099609375 C 227.9686279296875 810.353271484375 210.72251892089844 829.1356201171875 207.5025634765625 830.5546264648438 C 201.58602905273438 835.8045654296875 187.33148193359375 843.5549926757812 183.44845581054688 845.2263793945312 C 174.28955078125 845.6405639648438 171.36497497558594 854.8695678710938 172.23777770996094 866.4927368164062 C 174.5015106201172 909.0851440429688 183.76412963867188 937.6734008789062 200.0286865234375 953.37158203125 C 203.60845947265625 955.33447265625 205.27398681640625 962.8432006835938 216.90658569335938 962.0379028320312 C 221.22564697265625 962.4602661132812 226.33538818359375 956.52001953125 230.1951141357422 937.5509643554688 C 231.55355834960938 931.67431640625 238.48814392089844 913.2653198242188 245.13565063476562 899.8130493164062 C 257.9566955566406 869.7935180664062 307.3342590332031 775.5676879882812 328.3403625488281 737.7672119140625 C 339.579345703125 716.5297241210938 346.47235107421875 713.205078125 338.823486328125 701.6865844726562 C 344.4506530761719 712.8010864257812 341.49957275390625 699.4111328125 333.8180847167969 704.47412109375" fill="rgb(0, 0, 0)" opacity="0.9991078" stroke-width="1.0"/>
  </g>
</svg>
