<?xml version="1.0" ?>
<svg height="1024" version="1.1" width="1024" xmlns="http://www.w3.org/2000/svg">
  <defs/>
  <g>
    <path d="M 554.8191528320312 611.0698852539062 C 545.5831909179688 613.1378784179688 542.7532958984375 619.2985229492188 548.1212768554688 634.67578125 C 548.6859130859375 636.348388671875 551.4978637695312 649.05224609375 550.8824462890625 661.8533325195312 C 550.4979858398438 673.0859375 549.0 686.6168823242188 543.36083984375 707.653076171875 C 540.0078125 720.879150390625 532.523193359375 742.5889282226562 524.7509155273438 761.5910034179688 C 516.8387451171875 780.8782958984375 517.19091796875 780.684326171875 503.69671630859375 801.8692626953125 C 472.56781005859375 849.4266357421875 427.1653137207031 888.3309326171875 369.802734375 916.4013061523438 C 354.5370178222656 923.3744506835938 348.05059814453125 926.4034423828125 352.35760498046875 931.2722778320312 C 358.4748840332031 933.2371215820312 351.1212158203125 933.2599487304688 368.23272705078125 933.2752075195312 C 398.9259948730469 932.5604858398438 433.49725341796875 920.3885498046875 473.3797607421875 897.2701416015625 C 498.646728515625 883.320556640625 515.9940795898438 868.9178466796875 533.6124267578125 843.4276123046875 C 559.1143188476562 812.94189453125 573.4959716796875 785.2592163085938 586.4447631835938 747.3749389648438 C 599.4664306640625 709.9789428710938 609.24951171875 687.6598510742188 621.3526000976562 671.1749267578125 C 630.0086059570312 661.27392578125 626.6597290039062 651.7059936523438 619.3991088867188 647.4561157226562 C 596.30419921875 622.5431518554688 575.3672485351562 608.7560424804688 557.9098510742188 611.0653076171875 C 566.7466430664062 609.4976196289062 551.6910400390625 612.1030883789062 554.8191528320312 611.0698852539062" fill="rgb(0, 0, 0)" opacity="0.9991818" stroke-width="1.0"/>
  </g>
</svg>
