<?xml version="1.0" ?>
<svg height="1024" version="1.1" width="1024" xmlns="http://www.w3.org/2000/svg">
  <defs/>
  <g>
    <path d="M 486.4421081542969 445.19097900390625 C 484.20343017578125 446.889892578125 483.1750183105469 445.500244140625 480.632080078125 449.9891662597656 C 479.02655029296875 457.31085205078125 480.7732849121094 457.4704284667969 482.094482421875 466.8962707519531 C 486.2637634277344 487.437255859375 483.8086853027344 509.230224609375 480.6385803222656 522.0908813476562 C 473.17864990234375 559.90283203125 447.28582763671875 606.543212890625 413.3936767578125 648.045166015625 C 401.8475646972656 661.41748046875 390.0831604003906 678.7969970703125 391.2171630859375 679.742431640625 C 387.70745849609375 688.844970703125 393.740234375 688.3925170898438 408.0281066894531 682.6780395507812 C 420.16552734375 676.701416015625 432.2363586425781 667.0099487304688 449.5920715332031 649.594970703125 C 477.5204162597656 622.2308349609375 500.8381042480469 591.525146484375 517.182861328125 558.3510131835938 C 530.3250732421875 533.738037109375 540.2273559570312 515.8743286132812 550.133056640625 499.2154541015625 C 560.8893432617188 481.1841735839844 557.0911865234375 488.7851257324219 558.6290283203125 480.53179931640625 C 555.5648803710938 468.3027648925781 548.3135986328125 465.4232177734375 529.0397338867188 454.7699890136719 C 511.28302001953125 446.2174987792969 497.2983703613281 442.0669250488281 486.4421081542969 445.19097900390625" fill="rgb(0, 0, 0)" opacity="1.0" stroke-width="1.0"/>
  </g>
</svg>
