<?xml version="1.0" ?>
<svg height="1024" version="1.1" width="1024" xmlns="http://www.w3.org/2000/svg">
  <defs/>
  <g>
    <path d="M 371.3277587890625 376.12188720703125 C 367.97418212890625 374.20654296875 365.2014465332031 387.2503662109375 366.0909118652344 382.82562255859375 C 366.9526672363281 388.7742919921875 364.2932434082031 391.17352294921875 361.6854553222656 395.6561584472656 C 349.37701416015625 411.3960876464844 315.0609130859375 435.3875427246094 262.46881103515625 466.0770263671875 C 253.9890594482422 471.1562194824219 245.50001525878906 475.434326171875 241.3544921875 478.6718444824219 C 230.38656616210938 486.12445068359375 228.2407989501953 492.7457580566406 235.20806884765625 495.00042724609375 C 247.26986694335938 496.3945617675781 253.9517059326172 491.1300964355469 274.4136962890625 485.00537109375 C 316.0271301269531 472.1078186035156 307.3197021484375 474.53289794921875 351.2129211425781 457.51611328125 C 399.9602355957031 438.3042907714844 430.1875 427.1625061035156 435.0210876464844 425.96954345703125 C 448.5052490234375 425.0224609375 451.1302795410156 419.8841247558594 451.6143493652344 416.8809814453125 C 451.9169006347656 406.31268310546875 444.26373291015625 401.8417663574219 426.15618896484375 390.37640380859375 C 408.1576843261719 379.14556884765625 389.8764343261719 373.6499938964844 381.3863220214844 373.6909484863281 C 368.45123291015625 372.5597839355469 369.0142822265625 376.8291015625 371.3277587890625 376.12188720703125" fill="rgb(0, 0, 0)" opacity="0.99860144" stroke-width="1.0"/>
  </g>
</svg>
