<?xml version="1.0" ?>
<svg height="1024" version="1.1" width="1024" xmlns="http://www.w3.org/2000/svg">
  <defs/>
  <g>
    <path d="M 277.74114990234375 463.75244140625 C 270.09820556640625 464.423828125 268.4554443359375 474.0057678222656 280.78631591796875 487.0576477050781 C 286.7904052734375 494.37127685546875 291.7541198730469 502.50048828125 294.81201171875 515.6295166015625 C 296.1936340332031 523.993408203125 297.9673767089844 534.6397094726562 296.9641418457031 542.74365234375 C 297.6810607910156 578.6821899414062 298.2620544433594 605.3359375 297.9152526855469 646.01171875 C 297.2861633300781 702.8667602539062 294.85498046875 736.1273803710938 290.887939453125 760.1730346679688 C 287.8739318847656 778.0040283203125 283.84423828125 792.1010131835938 278.5970458984375 800.5084838867188 C 270.6886901855469 814.477783203125 269.48431396484375 820.8843383789062 271.15203857421875 833.3015747070312 C 274.2154235839844 842.725830078125 281.503662109375 867.5652465820312 298.6220703125 878.0977172851562 C 305.8221435546875 883.9678955078125 312.33380126953125 880.935791015625 318.7521667480469 869.5567626953125 C 334.8333740234375 844.654052734375 363.5918884277344 808.0047607421875 405.4417419433594 757.3831176757812 C 419.7102966308594 740.52783203125 428.8931884765625 728.8453369140625 425.8764953613281 724.0716552734375 C 425.0928649902344 722.8212280273438 418.3038330078125 724.222900390625 416.1453552246094 726.052734375 C 414.5325622558594 726.0064086914062 403.2818603515625 733.2634887695312 390.7933349609375 740.5081176757812 C 366.2873840332031 755.4873046875 343.322021484375 768.5422973632812 339.2008056640625 770.1595458984375 C 334.1145324707031 773.913818359375 332.5279235839844 770.4269409179688 334.1820983886719 770.1527709960938 C 333.4983825683594 772.3829345703125 331.7256774902344 767.7164306640625 330.0403137207031 761.8560791015625 C 328.72906494140625 753.7225952148438 328.8339538574219 769.0258178710938 329.8685302734375 708.7662963867188 C 332.198974609375 613.2107543945312 335.2271423339844 558.7054443359375 339.6581726074219 528.0828247070312 C 341.6845703125 515.6240234375 344.1487731933594 508.291748046875 338.2333068847656 499.14788818359375 C 337.7051086425781 496.735107421875 320.72357177734375 480.4317626953125 307.0860290527344 472.8431091308594 C 295.2148742675781 464.4312438964844 280.142822265625 461.9451599121094 277.74114990234375 463.75244140625" fill="rgb(0, 0, 0)" opacity="0.9989493" stroke-width="1.0"/>
  </g>
</svg>
