<?xml version="1.0" ?>
<svg height="1024" version="1.1" width="1024" xmlns="http://www.w3.org/2000/svg">
  <defs/>
  <g>
    <path d="M 633.5480346679688 487.362548828125 C 621.9852905273438 488.37078857421875 625.762451171875 491.2607421875 625.375 487.8921203613281 C 624.6563110351562 492.60089111328125 629.8773803710938 495.3439025878906 635.6546020507812 500.8343200683594 C 649.2347412109375 511.2515563964844 660.6396484375 523.2431030273438 665.8985595703125 530.812255859375 C 672.536865234375 538.274658203125 678.8026123046875 549.8916625976562 687.7933959960938 564.625732421875 C 749.069091796875 668.449951171875 815.280029296875 767.5757446289062 826.1240234375 780.4022827148438 C 833.63818359375 787.86083984375 841.8273315429688 792.4829711914062 853.8056030273438 793.9183349609375 C 865.240234375 794.2523803710938 932.1036376953125 798.3853149414062 973.1973266601562 795.7672729492188 C 981.860595703125 794.205810546875 987.1481323242188 790.3410034179688 987.3684692382812 786.8865356445312 C 984.7340698242188 780.7931518554688 984.72314453125 782.9322509765625 960.8330078125 770.2138061523438 C 911.45556640625 745.134033203125 874.8316650390625 723.2901000976562 849.7457275390625 704.6004028320312 C 819.621337890625 682.4661865234375 769.0753784179688 625.6513061523438 717.021484375 553.9668579101562 C 701.0326538085938 532.4359130859375 681.446533203125 504.3499450683594 681.6224365234375 504.48919677734375 C 675.5751953125 489.6153869628906 662.1619873046875 486.9488830566406 658.633544921875 486.99163818359375 C 638.53662109375 483.4715270996094 643.425537109375 487.93988037109375 633.5480346679688 487.362548828125" fill="rgb(0, 0, 0)" opacity="0.9997203" stroke-width="1.0"/>
  </g>
</svg>
