<?xml version="1.0" ?>
<svg height="1024" version="1.1" width="1024" xmlns="http://www.w3.org/2000/svg">
  <defs/>
  <g>
    <path d="M 580.4899291992188 426.3984069824219 C 576.403076171875 431.2374267578125 575.8018188476562 437.90447998046875 586.7539672851562 460.2042541503906 C 598.080810546875 488.41949462890625 596.7693481445312 499.39849853515625 597.220703125 523.7581176757812 C 598.4603881835938 605.23828125 597.6632080078125 637.297607421875 596.21142578125 683.9892578125 C 593.94140625 731.0884399414062 591.8355712890625 758.9570922851562 586.3394165039062 786.9727172851562 C 584.2484130859375 803.5685424804688 578.878173828125 816.5568237304688 574.9595336914062 823.8787841796875 C 564.9496459960938 838.870849609375 564.2537231445312 853.3524169921875 568.4686279296875 863.9930419921875 C 574.6031494140625 883.4302368164062 584.2604370117188 896.7857666015625 592.82177734375 902.1063232421875 C 603.5230712890625 910.1195678710938 608.737548828125 900.4622802734375 617.171875 888.65234375 C 634.032470703125 865.95556640625 660.6611328125 834.5922241210938 698.7201538085938 791.6512451171875 C 722.25439453125 765.0125732421875 724.6758422851562 764.06005859375 730.8207397460938 753.017822265625 C 733.77294921875 745.106201171875 730.90869140625 746.8236694335938 729.8182983398438 745.1574096679688 C 722.1773071289062 745.2090454101562 718.14306640625 748.1068115234375 689.9956665039062 765.2610473632812 C 659.29931640625 783.9179077148438 637.7084350585938 795.9741821289062 635.43212890625 795.7974853515625 C 631.7841796875 798.8306274414062 628.1982421875 795.6748657226562 626.0744018554688 787.6390380859375 C 625.7316284179688 777.4801025390625 623.8193359375 812.7247924804688 626.8204345703125 687.6614990234375 C 629.8174438476562 571.7774658203125 634.759033203125 511.67486572265625 639.5714721679688 484.8722839355469 C 643.4675903320312 474.6828308105469 642.8544311523438 464.26397705078125 637.3656616210938 457.9644470214844 C 639.2730712890625 458.7667236328125 623.41015625 443.32647705078125 617.7716674804688 439.8410949707031 C 603.309814453125 428.6944580078125 598.1697387695312 427.4353332519531 591.7119140625 425.20672607421875 C 579.9719848632812 423.8539733886719 582.634033203125 427.0815734863281 580.4899291992188 426.3984069824219" fill="rgb(0, 0, 0)" opacity="0.99894637" stroke-width="1.0"/>
  </g>
</svg>
