<?xml version="1.0" ?>
<svg height="1024" version="1.1" width="1024" xmlns="http://www.w3.org/2000/svg">
  <defs/>
  <g>
    <path d="M 645.2697143554688 650.6823120117188 C 645.8844604492188 658.2736206054688 643.4080200195312 650.1068725585938 647.2146606445312 664.985107421875 C 653.601318359375 684.896240234375 656.8519897460938 706.8194580078125 657.2267456054688 737.7291259765625 C 656.6332397460938 759.9300537109375 657.9342651367188 749.337158203125 654.7341918945312 770.2587280273438 C 647.38916015625 818.8478393554688 646.0623779296875 826.7283325195312 649.5816040039062 836.0577392578125 C 654.3109741210938 843.7997436523438 662.7307739257812 836.8692626953125 669.0966796875 825.1057739257812 C 672.8319091796875 819.3883056640625 695.556396484375 748.2723999023438 700.9853515625 732.0451049804688 C 704.2599487304688 718.3995971679688 712.8260498046875 696.9646606445312 715.2433471679688 694.201416015625 C 719.0469970703125 687.0542602539062 719.2794189453125 682.116455078125 716.8511962890625 684.1204833984375 C 719.4513549804688 684.234375 717.677978515625 679.246826171875 713.6703491210938 676.7614135742188 C 705.1380615234375 667.8995971679688 695.9754638671875 663.1174926757812 680.7078247070312 656.5836181640625 C 657.0269165039062 646.1371459960938 647.8092651367188 643.8179321289062 645.2697143554688 650.6823120117188" fill="rgb(0, 0, 0)" opacity="0.99971294" stroke-width="1.0"/>
  </g>
</svg>
