<?xml version="1.0" ?>
<svg height="1024" version="1.1" width="1024" xmlns="http://www.w3.org/2000/svg">
  <defs/>
  <g>
    <path d="M 525.4524536132812 335.85595703125 C 521.4322509765625 336.5775451660156 522.3975830078125 349.15869140625 525.3363647460938 354.1559143066406 C 530.113525390625 366.1628112792969 530.503173828125 379.6787109375 527.0692138671875 392.201171875 C 527.6801147460938 392.3882751464844 519.7892456054688 410.4474792480469 512.8778686523438 420.0132141113281 C 507.830810546875 429.0802001953125 496.32391357421875 441.73248291015625 487.5603942871094 447.6770935058594 C 483.38201904296875 451.31854248046875 478.8497619628906 454.59246826171875 476.3695068359375 459.8838806152344 C 476.2004089355469 458.59063720703125 472.3080139160156 465.4722900390625 473.9649658203125 470.9039611816406 C 474.0715026855469 478.3536071777344 478.14697265625 487.1142578125 487.4919128417969 495.4277038574219 C 495.6787414550781 504.19512939453125 506.45819091796875 503.9811096191406 515.7737426757812 496.0323486328125 C 538.7652587890625 477.2381286621094 572.9305419921875 459.2432861328125 614.4840087890625 442.3270568847656 C 636.1387329101562 434.126708984375 637.2315673828125 433.5511474609375 655.7628784179688 431.12762451171875 C 676.0517578125 430.69921875 684.8746948242188 435.7829284667969 689.4668579101562 448.4956970214844 C 695.1576538085938 462.279052734375 685.4778442382812 500.924560546875 667.4682006835938 526.9976806640625 C 660.5318603515625 538.056640625 648.3475341796875 549.593017578125 640.995361328125 553.63720703125 C 636.0618896484375 556.66162109375 632.8914794921875 556.2946166992188 628.6351318359375 556.3154296875 C 610.1947631835938 554.93212890625 580.2427368164062 545.5240478515625 560.5620727539062 538.6468505859375 C 544.1611328125 529.1516723632812 547.0206298828125 542.8778076171875 547.5538940429688 534.6774291992188 C 545.1578979492188 544.9113159179688 550.4209594726562 546.799560546875 560.94091796875 560.1088256835938 C 574.6839599609375 576.7036743164062 591.609375 598.6263427734375 601.3048706054688 613.4420776367188 C 607.5048828125 622.1448974609375 608.6395263671875 624.4775390625 616.1121215820312 629.4959716796875 C 623.5382080078125 632.5216674804688 633.7901611328125 631.4363403320312 647.6126098632812 624.8302612304688 C 662.760986328125 616.3504638671875 682.4795532226562 596.4827270507812 698.3825073242188 569.4738159179688 C 714.36376953125 543.8785400390625 729.476318359375 505.14483642578125 733.1179809570312 493.5062255859375 C 735.9630737304688 473.2347412109375 741.9019165039062 460.61395263671875 747.9357299804688 453.51275634765625 C 759.9666748046875 439.31683349609375 751.8289794921875 430.24609375 735.8017578125 419.4654541015625 C 725.9096069335938 412.3474426269531 702.5670776367188 400.6106872558594 699.5911254882812 400.2897644042969 C 693.044677734375 397.77130126953125 689.2300415039062 397.4720153808594 680.525634765625 397.5056457519531 C 669.2735595703125 398.79119873046875 676.4796142578125 397.2761535644531 639.9676513671875 410.6741638183594 C 602.8779296875 424.04095458984375 561.5927124023438 437.07598876953125 561.0298461914062 437.4621276855469 L 555.2186889648438 437.3417663574219 L 553.4552001953125 434.0216979980469 C 554.2880859375 426.85931396484375 553.44677734375 429.4969177246094 562.8026733398438 414.6813659667969 C 568.4326782226562 405.4367370605469 574.3182373046875 397.35430908203125 575.4447631835938 395.0406799316406 C 584.6384887695312 381.3786926269531 587.5819091796875 382.7149658203125 588.5751953125 369.883056640625 C 585.9556884765625 359.0041809082031 585.7189331054688 360.00518798828125 574.8633422851562 352.5379638671875 C 570.0613403320312 350.42645263671875 565.8270874023438 346.7390441894531 558.649169921875 342.3449401855469 C 549.1498413085938 337.5093078613281 543.7247924804688 334.0678405761719 534.192626953125 332.7257385253906 C 531.3550415039062 332.53271484375 524.705810546875 333.57720947265625 525.4524536132812 335.85595703125" fill="rgb(0, 0, 0)" opacity="1.0" stroke-width="1.0"/>
  </g>
</svg>
