<?xml version="1.0" ?>
<svg height="1024" version="1.1" width="1024" xmlns="http://www.w3.org/2000/svg">
  <defs/>
  <g>
    <path d="M 847.2845458984375 789.9879150390625 C 854.1945190429688 788.7218017578125 843.0695190429688 791.21337890625 842.3163452148438 790.7865600585938 C 838.4251708984375 792.0184326171875 827.0771484375 793.6172485351562 834.9094848632812 794.202880859375 C 833.2990112304688 791.6825561523438 818.5792846679688 794.765869140625 809.1073608398438 796.91943359375 C 794.5011596679688 799.2509765625 747.7636108398438 807.3499145507812 738.7886962890625 807.2125854492188 C 716.4210815429688 809.6080932617188 703.9960327148438 811.0223388671875 669.4652099609375 816.5513916015625 C 671.3134765625 815.6517333984375 642.4716186523438 820.4110107421875 648.669921875 818.4832153320312 C 628.0886840820312 820.16845703125 615.8517456054688 820.4188232421875 587.8749389648438 826.31640625 C 602.839111328125 824.5947265625 595.5502319335938 824.6649780273438 583.7319946289062 826.0846557617188 C 565.7351684570312 827.0736694335938 535.1436157226562 831.0511474609375 516.6134033203125 833.5711059570312 C 505.4598388671875 835.627685546875 492.3796691894531 835.9680786132812 478.4519348144531 837.6661376953125 C 439.7155456542969 840.7230834960938 400.466796875 844.5947265625 376.8777770996094 847.5013427734375 C 367.6503601074219 848.2261962890625 358.2419738769531 848.7572631835938 361.5265808105469 857.7868041992188 C 366.3397216796875 867.0455932617188 373.17938232421875 872.1709594726562 382.85009765625 878.1261596679688 C 394.07513427734375 884.7356567382812 412.9726867675781 889.4803466796875 425.0279235839844 886.9886474609375 C 420.4603271484375 888.1882934570312 438.2231750488281 884.1714477539062 445.47576904296875 882.17724609375 C 561.4373779296875 855.1477661132812 708.0138549804688 843.18359375 892.4710693359375 846.9649047851562 C 935.7254028320312 847.1824951171875 937.2012939453125 849.4241943359375 950.008056640625 846.7717895507812 C 953.1124877929688 844.8397216796875 958.8681030273438 844.8225708007812 958.9188232421875 835.1668701171875 C 957.9810791015625 829.4273681640625 953.5911865234375 818.6085205078125 937.4291381835938 809.8465576171875 C 920.3659057617188 798.9932861328125 911.5277709960938 796.06689453125 895.3739624023438 791.61669921875 C 882.3502807617188 789.1657104492188 874.7928466796875 787.1363525390625 860.0162353515625 791.1973266601562 C 888.0111694335938 788.4517211914062 865.7919311523438 787.2257080078125 847.2845458984375 789.9879150390625" fill="rgb(0, 0, 0)" opacity="0.99830943" stroke-width="1.0"/>
  </g>
</svg>
