<?xml version="1.0" ?>
<svg height="1024" version="1.1" width="1024" xmlns="http://www.w3.org/2000/svg">
  <defs/>
  <g>
    <path d="M 687.5350341796875 106.550048828125 C 675.2229614257812 102.13935852050781 669.3006591796875 104.51910400390625 672.8792114257812 104.59080505371094 C 666.7554931640625 103.2587890625 661.1116333007812 108.99488830566406 663.284912109375 121.61446380615234 C 661.0435180664062 135.3437957763672 658.9173583984375 135.55380249023438 643.773193359375 151.87664794921875 C 634.546630859375 160.80340576171875 625.033935546875 169.4548797607422 618.2604370117188 175.0040740966797 C 595.1047973632812 194.72592163085938 561.600830078125 218.40052795410156 530.2273559570312 237.93394470214844 C 520.6787719726562 244.02786254882812 511.0724792480469 249.77606201171875 511.0748596191406 249.81410217285156 C 510.7995910644531 250.7675018310547 507.4312744140625 257.1669921875 512.995849609375 259.83551025390625 C 512.3152465820312 259.4062805175781 507.0344543457031 260.8161315917969 518.5972290039062 259.35577392578125 C 533.5465698242188 257.2401123046875 561.017333984375 245.89048767089844 600.2750854492188 226.37583923339844 C 634.1061401367188 209.4722900390625 664.3479614257812 193.2039031982422 665.5756225585938 191.6448516845703 C 691.4551391601562 173.3785400390625 725.1975708007812 160.47262573242188 744.4896850585938 154.06103515625 C 757.0814208984375 152.6542205810547 761.1620483398438 146.99884033203125 759.8614501953125 139.48277282714844 C 757.2807006835938 131.8427734375 752.427734375 126.82701873779297 744.3555908203125 123.56060028076172 C 719.6065063476562 110.49182891845703 699.060546875 104.21570587158203 684.9850463867188 103.47079467773438 C 665.7108764648438 102.31696319580078 672.8172607421875 107.2043228149414 687.5350341796875 106.550048828125" fill="rgb(0, 0, 0)" opacity="0.99897945" stroke-width="1.0"/>
  </g>
</svg>
