<?xml version="1.0" ?>
<svg height="1024" version="1.1" width="1024" xmlns="http://www.w3.org/2000/svg">
  <defs/>
  <g>
    <path d="M 818.8927612304688 642.7446899414062 C 808.1670532226562 644.751953125 803.6098022460938 649.6248779296875 807.0050048828125 659.8768920898438 C 806.0205688476562 659.9462280273438 811.8480834960938 664.3440551757812 809.2144775390625 662.9519653320312 C 815.9609985351562 670.8462524414062 821.5892333984375 692.141357421875 825.2843017578125 722.7578125 C 829.54248046875 759.5322265625 827.3895263671875 747.3587646484375 826.0735473632812 786.7736206054688 C 823.06396484375 800.3668823242188 823.06982421875 810.1210327148438 824.619384765625 824.6514892578125 C 826.906982421875 834.98388671875 828.9568481445312 843.0185546875 835.3485107421875 854.595947265625 C 842.4293823242188 867.8676147460938 848.9067993164062 874.9639282226562 856.9066772460938 866.6622924804688 C 856.091552734375 865.948486328125 862.7462158203125 862.216064453125 866.3155517578125 849.892578125 C 868.96826171875 843.0337524414062 873.9190673828125 821.864013671875 869.9598388671875 775.1910400390625 C 871.2361450195312 750.6107788085938 872.84912109375 711.3650512695312 878.5186767578125 690.7503051757812 C 882.2384643554688 678.3648681640625 879.5028076171875 673.0465698242188 873.9940185546875 665.8792114257812 C 862.0089721679688 658.46240234375 830.70361328125 643.2771606445312 824.8920288085938 642.5535278320312 C 837.059814453125 644.463134765625 819.7818603515625 641.4978637695312 818.8927612304688 642.7446899414062" fill="rgb(0, 0, 0)" opacity="0.9987473" stroke-width="1.0"/>
  </g>
</svg>
