<?xml version="1.0" ?>
<svg height="1024" version="1.1" width="1024" xmlns="http://www.w3.org/2000/svg">
  <defs/>
  <g>
    <path d="M 487.0914611816406 689.8068237304688 C 485.5489501953125 692.7357788085938 482.47021484375 696.0391845703125 488.2702331542969 711.0785522460938 C 497.4881591796875 738.3928833007812 498.1819763183594 761.17333984375 488.49591064453125 793.6021728515625 C 484.87799072265625 804.6343994140625 480.4954833984375 814.3602294921875 471.2206115722656 824.052978515625 C 463.636474609375 831.4087524414062 460.59222412109375 840.4161987304688 461.4864501953125 843.960693359375 C 461.0934753417969 848.1785278320312 464.9320373535156 853.4635009765625 473.7106018066406 863.361083984375 C 486.3800964355469 875.0629272460938 490.9985046386719 877.7525634765625 499.505126953125 878.5488891601562 C 502.7378845214844 878.4782104492188 507.7740478515625 878.2384033203125 512.2454223632812 872.4754028320312 C 522.7610473632812 863.2764282226562 536.4107055664062 856.4812622070312 559.947265625 846.82666015625 C 595.8267211914062 832.5664672851562 661.7235717773438 813.8665771484375 738.2904052734375 796.3882446289062 C 769.029052734375 789.1885986328125 777.7875366210938 787.6258544921875 794.2897338867188 785.8697509765625 C 813.8157958984375 784.2744140625 816.73779296875 787.1551513671875 819.1595458984375 786.8717651367188 C 822.9282836914062 789.40087890625 822.0885009765625 786.0494384765625 828.6674194335938 787.29150390625 C 838.0777587890625 786.72021484375 843.4111328125 783.1275024414062 846.9786376953125 777.1061401367188 C 853.1851806640625 764.5602416992188 847.565673828125 749.675537109375 831.2860717773438 749.71630859375 C 813.8658447265625 751.4386596679688 754.2616577148438 759.3477172851562 704.8095092773438 769.6209106445312 C 633.3441162109375 785.4846801757812 603.6752319335938 789.9828491210938 560.1015014648438 804.0123291015625 C 555.0234985351562 804.9876098632812 549.3853149414062 809.5672607421875 541.0172729492188 805.9426879882812 C 537.79931640625 798.7079467773438 537.7061157226562 803.5 542.9086303710938 778.9364624023438 C 548.6751098632812 751.8106079101562 549.2449340820312 733.1685791015625 544.4994506835938 722.7731323242188 C 540.9360961914062 717.79833984375 528.7819213867188 705.0928344726562 516.4909057617188 696.56396484375 C 506.3177185058594 689.1393432617188 504.0915832519531 688.4669189453125 497.5329895019531 686.5523681640625 C 492.04986572265625 686.44189453125 490.3587951660156 686.2787475585938 487.0914611816406 689.8068237304688" fill="rgb(0, 0, 0)" opacity="0.9988362" stroke-width="1.0"/>
  </g>
</svg>
