<?xml version="1.0" ?>
<svg height="1024" version="1.1" width="1024" xmlns="http://www.w3.org/2000/svg">
  <defs/>
  <g>
    <path d="M 463.8435974121094 149.39353942871094 C 451.0377197265625 149.18121337890625 431.8510437011719 154.29751586914062 422.576171875 155.32525634765625 C 404.7018127441406 158.26499938964844 390.42236328125 161.0092315673828 364.4244689941406 163.79238891601562 C 344.5746154785156 166.60760498046875 321.5771179199219 169.42642211914062 304.89300537109375 172.1659698486328 C 300.3304443359375 172.2928009033203 267.62310791015625 178.08648681640625 255.88894653320312 179.34495544433594 C 250.95550537109375 179.467529296875 226.66702270507812 182.0184326171875 205.9012908935547 178.9773406982422 C 197.32806396484375 178.42025756835938 191.96725463867188 177.87294006347656 191.89093017578125 181.2008514404297 C 195.4812469482422 196.01791381835938 217.6090087890625 214.6427001953125 237.57212829589844 225.3639678955078 C 246.75521850585938 230.65383911132812 261.1787414550781 231.8683319091797 263.6312561035156 230.4781036376953 C 265.7991638183594 231.50924682617188 291.8010559082031 223.07977294921875 331.7210693359375 212.00747680664062 C 398.31573486328125 192.8050079345703 420.2029113769531 186.80348205566406 449.8608093261719 179.28660583496094 C 461.4213562011719 176.1141815185547 456.0188903808594 178.8719024658203 465.2547912597656 173.2124481201172 C 476.61053466796875 166.36837768554688 479.3380126953125 165.3998260498047 478.7217712402344 160.99301147460938 C 479.30511474609375 158.04151916503906 471.9272766113281 151.62332153320312 470.1183166503906 151.71536254882812 C 462.3526306152344 145.8482666015625 448.38427734375 152.49874877929688 463.8435974121094 149.39353942871094" fill="rgb(0, 0, 0)" opacity="1.0" stroke-width="1.0"/>
  </g>
</svg>
