<?xml version="1.0" ?>
<svg height="1024" version="1.1" width="1024" xmlns="http://www.w3.org/2000/svg">
  <defs/>
  <g>
    <path d="M 403.97247314453125 376.8879089355469 C 401.16278076171875 375.2737731933594 380.4319763183594 382.98944091796875 357.0081481933594 389.274169921875 C 339.9593811035156 395.6492614746094 306.66131591796875 401.5289001464844 244.10638427734375 413.13323974609375 C 210.3885955810547 418.41546630859375 207.50413513183594 419.2188415527344 200.58944702148438 424.6522521972656 C 200.8837890625 426.0462646484375 199.20765686035156 425.88702392578125 201.85406494140625 429.5180358886719 C 203.00193786621094 435.4198303222656 242.53172302246094 448.8447265625 271.7505798339844 445.7304992675781 C 272.0532531738281 446.6670837402344 303.2232666015625 441.360107421875 364.0773010253906 428.75408935546875 C 394.1628112792969 422.59393310546875 448.79754638671875 408.10931396484375 459.4239501953125 403.8638916015625 C 468.0423889160156 401.8771057128906 468.2994079589844 395.8519592285156 467.04620361328125 392.9302673339844 C 466.5672302246094 389.04608154296875 465.42462158203125 389.58123779296875 461.8407287597656 386.43017578125 C 449.57574462890625 381.19915771484375 431.6885986328125 376.6006164550781 416.3807067871094 375.894775390625 C 411.1949462890625 375.8078308105469 403.2867126464844 375.8731384277344 403.97247314453125 376.8879089355469" fill="rgb(0, 0, 0)" opacity="0.99859846" stroke-width="1.0"/>
  </g>
</svg>
