<?xml version="1.0" ?>
<svg height="1024" version="1.1" width="1024" xmlns="http://www.w3.org/2000/svg">
  <defs/>
  <g>
    <path d="M 319.24639892578125 254.41993713378906 C 316.943359375 255.082763671875 308.5987548828125 262.05126953125 315.0567626953125 271.1956787109375 C 313.29156494140625 269.7946472167969 317.7215270996094 276.7168273925781 322.1642761230469 283.3907165527344 C 328.4136962890625 292.3809814453125 332.5807800292969 299.9637756347656 332.0341491699219 300.3484802246094 C 333.670166015625 308.0451354980469 334.9010009765625 328.51422119140625 336.49169921875 365.68359375 C 337.47314453125 377.24609375 339.4935607910156 432.7200012207031 338.8100280761719 451.1179504394531 C 338.8036193847656 508.52838134765625 334.6952209472656 511.2835388183594 344.8439636230469 519.1791381835938 C 350.4540100097656 522.5947265625 361.9256896972656 521.9492797851562 370.6905212402344 512.5215454101562 C 378.29290771484375 502.4776916503906 378.5740051269531 501.5417785644531 379.9275817871094 479.52130126953125 C 381.947509765625 461.1152648925781 383.68597412109375 439.284912109375 388.9526062011719 402.484130859375 C 389.702880859375 391.9552001953125 392.6820373535156 381.55084228515625 392.1154479980469 369.830078125 C 394.2613220214844 343.6660461425781 397.0331726074219 332.28857421875 404.6776428222656 306.23443603515625 L 410.3014831542969 291.6956787109375 L 409.0469665527344 286.1396179199219 C 403.5248718261719 277.4338073730469 379.1925964355469 263.1111755371094 356.2193298339844 255.52859497070312 C 345.2165222167969 251.81410217285156 332.7082824707031 250.32382202148438 319.24639892578125 254.41993713378906" fill="rgb(0, 0, 0)" opacity="0.9998953" stroke-width="1.0"/>
  </g>
</svg>
