<?xml version="1.0" ?>
<svg height="1024" version="1.1" width="1024" xmlns="http://www.w3.org/2000/svg">
  <defs/>
  <g>
    <path d="M 731.3104248046875 125.67220306396484 C 724.7608642578125 125.85564422607422 706.3577270507812 128.13348388671875 693.0104370117188 131.8852996826172 C 675.4307861328125 136.20465087890625 683.8177490234375 133.15072631835938 674.3909301757812 134.59194946289062 C 669.8988037109375 134.30711364746094 641.632568359375 138.80787658691406 644.4002075195312 139.40744018554688 C 641.6241455078125 139.90493774414062 590.8167724609375 147.49871826171875 584.880615234375 148.30801391601562 C 574.771240234375 147.95811462402344 550.5383911132812 153.64523315429688 552.7650146484375 152.52114868164062 C 537.6156005859375 155.52694702148438 542.8302612304688 162.47509765625 554.9679565429688 170.26795959472656 C 565.21337890625 177.18194580078125 565.2008666992188 177.2266845703125 581.1696166992188 183.2932891845703 C 603.9658203125 192.3856658935547 604.494873046875 191.6477813720703 620.9896850585938 183.41653442382812 C 636.0742797851562 175.82420349121094 660.0962524414062 171.16680908203125 690.91455078125 169.96084594726562 C 708.7994384765625 168.75338745117188 750.59765625 169.19444274902344 789.1306762695312 172.44699096679688 C 801.376953125 173.29049682617188 806.4441528320312 174.30372619628906 811.2328491210938 169.38922119140625 C 810.96826171875 168.11239624023438 812.3938598632812 170.58255004882812 813.0155639648438 163.1032257080078 C 812.7094116210938 148.65472412109375 808.0416259765625 143.93971252441406 800.2755126953125 139.79702758789062 C 790.4801635742188 133.28829956054688 782.6485595703125 131.1466522216797 769.2152099609375 127.55084991455078 C 766.033935546875 127.71766662597656 756.4974365234375 123.84761810302734 731.3104248046875 125.67220306396484" fill="rgb(0, 0, 0)" opacity="1.0" stroke-width="1.0"/>
  </g>
</svg>
