<?xml version="1.0" ?>
<svg height="1024" version="1.1" width="1024" xmlns="http://www.w3.org/2000/svg">
  <defs/>
  <g>
    <path d="M 441.50372314453125 479.69366455078125 C 423.5862121582031 481.6995849609375 407.1025085449219 484.9627380371094 386.4479064941406 490.9028015136719 C 325.57818603515625 506.7604675292969 343.0478515625 501.8264465332031 242.13368225097656 518.2887573242188 C 186.5872039794922 527.1263427734375 140.0904998779297 534.5745849609375 134.82398986816406 535.193115234375 C 125.93413543701172 538.0756225585938 123.64769744873047 541.6209716796875 132.72911071777344 549.773681640625 C 135.98204040527344 553.1565551757812 159.0743865966797 565.9442138671875 174.19467163085938 568.4476928710938 C 169.09042358398438 568.5353393554688 193.6168670654297 572.0918579101562 199.24887084960938 567.7136840820312 C 229.71932983398438 557.651123046875 356.91729736328125 537.2438354492188 484.3912353515625 518.4090576171875 C 509.7731628417969 514.07177734375 505.90863037109375 518.1881713867188 517.36083984375 507.88043212890625 C 521.14111328125 504.9857177734375 519.9374389648438 496.7959289550781 505.5101623535156 489.4536437988281 C 484.9413146972656 481.3166198730469 475.357177734375 477.2872619628906 441.50372314453125 479.69366455078125" fill="rgb(0, 0, 0)" opacity="1.0" stroke-width="1.0"/>
  </g>
</svg>
