<?xml version="1.0" ?>
<svg height="1024" version="1.1" width="1024" xmlns="http://www.w3.org/2000/svg">
  <defs/>
  <g>
    <path d="M 601.3846435546875 44.13658142089844 C 590.5399780273438 46.138214111328125 589.2877197265625 54.055023193359375 593.8574829101562 61.59988784790039 C 601.0791625976562 78.32950592041016 598.5701904296875 107.50015258789062 581.5515747070312 168.29945373535156 C 577.2088012695312 185.71176147460938 571.3634643554688 204.66748046875 569.6785278320312 211.53433227539062 C 560.7857055664062 244.3010711669922 559.066162109375 250.4742889404297 563.1276245117188 256.46807861328125 C 563.614990234375 255.36700439453125 564.3432006835938 258.7877502441406 572.3174438476562 254.04795837402344 C 578.8076782226562 252.4924774169922 606.1600341796875 215.73399353027344 632.2685546875 158.373779296875 C 646.9010620117188 127.2134017944336 647.7600708007812 125.30208587646484 663.20849609375 104.27230072021484 C 666.0509643554688 101.06927490234375 670.339111328125 93.31107330322266 669.4436645507812 94.14514923095703 C 672.2676391601562 88.9788818359375 669.343994140625 84.33193969726562 668.4824829101562 83.49264526367188 C 660.1581420898438 68.02750396728516 638.9439086914062 53.70042419433594 624.62744140625 45.80659484863281 C 617.0347290039062 42.25164031982422 608.3973999023438 42.29770278930664 601.3846435546875 44.13658142089844" fill="rgb(0, 0, 0)" opacity="0.9990041" stroke-width="1.0"/>
  </g>
</svg>
