<?xml version="1.0" ?>
<svg height="1024" version="1.1" width="1024" xmlns="http://www.w3.org/2000/svg">
  <defs/>
  <g>
    <path d="M 664.7875366210938 488.0707702636719 C 668.0480346679688 492.0447998046875 665.8908081054688 486.7543640136719 665.5927734375 489.89337158203125 C 668.3668823242188 494.59588623046875 685.2303466796875 506.1673278808594 711.1378784179688 519.7098999023438 C 733.7723388671875 531.3002319335938 752.4214477539062 542.8956909179688 781.4052734375 561.9542846679688 C 793.5410766601562 569.500244140625 805.0437622070312 578.5906372070312 810.9649047851562 580.38427734375 C 818.7850952148438 584.7531127929688 829.7139892578125 586.822021484375 828.436767578125 585.5894775390625 C 836.4072265625 585.9515380859375 842.3160400390625 575.1044311523438 841.9446411132812 569.848388671875 C 843.5345458984375 559.2802124023438 831.6572265625 537.509765625 825.775634765625 530.247802734375 C 811.7300415039062 514.3851928710938 780.765869140625 500.7398681640625 723.14013671875 490.1961669921875 C 699.1840209960938 485.1136779785156 700.3482666015625 485.97882080078125 685.637939453125 484.5773010253906 C 673.412841796875 484.49908447265625 667.3189697265625 484.202880859375 664.7875366210938 488.0707702636719" fill="rgb(0, 0, 0)" opacity="0.9987829" stroke-width="1.0"/>
  </g>
</svg>
