<?xml version="1.0" ?>
<svg height="1024" version="1.1" width="1024" xmlns="http://www.w3.org/2000/svg">
  <defs/>
  <g>
    <path d="M 645.3720703125 594.6488647460938 C 640.0967407226562 596.1394653320312 635.6385498046875 600.6790771484375 639.373291015625 605.881591796875 C 637.306396484375 599.8271484375 638.6388549804688 607.5944213867188 641.30712890625 610.1735229492188 C 651.0441284179688 627.7664794921875 654.269287109375 645.0513305664062 653.2916870117188 671.8551025390625 C 652.6014404296875 690.1002197265625 649.0056762695312 715.6056518554688 641.3876953125 746.3231201171875 C 636.0613403320312 768.8992309570312 617.4036865234375 806.0704345703125 595.9315185546875 830.592041015625 C 578.3078002929688 851.6961669921875 561.1154174804688 867.2041015625 536.3984985351562 884.4850463867188 C 509.312255859375 902.46142578125 491.0701599121094 916.6388549804688 494.0268249511719 913.9552001953125 C 484.7596130371094 920.7643432617188 496.05731201171875 922.7116088867188 502.3778381347656 921.9768676757812 C 543.0424194335938 919.249267578125 579.484375 899.2679443359375 624.90771484375 859.013916015625 C 645.0764770507812 840.6029052734375 662.8050537109375 818.0808715820312 674.820068359375 794.3357543945312 C 677.560546875 790.437255859375 682.9849243164062 776.3290405273438 685.3797607421875 772.028564453125 L 693.9323120117188 752.94677734375 L 704.4771118164062 707.7288208007812 C 713.6552124023438 665.2569580078125 720.4796142578125 642.189453125 727.0037231445312 631.7420043945312 C 728.126953125 628.8810424804688 731.4532470703125 623.4839477539062 723.5518798828125 617.0225219726562 C 720.1876220703125 615.8102416992188 700.0868530273438 601.8041381835938 690.1347045898438 598.5821533203125 C 689.7066040039062 597.5167236328125 675.3267822265625 593.041748046875 677.2426147460938 593.9497680664062 C 665.0127563476562 590.3404541015625 655.0557861328125 590.9222412109375 645.3720703125 594.6488647460938" fill="rgb(0, 0, 0)" opacity="0.99901485" stroke-width="1.0"/>
  </g>
</svg>
