<?xml version="1.0" ?>
<svg height="1024" version="1.1" width="1024" xmlns="http://www.w3.org/2000/svg">
  <defs/>
  <g>
    <path d="M 388.1614990234375 219.17669677734375 C 384.3471984863281 218.94346618652344 381.4810791015625 226.8594207763672 383.3306884765625 229.4863739013672 C 382.4779968261719 229.77183532714844 384.16650390625 234.63546752929688 390.9532165527344 243.8283233642578 C 409.0715026855469 270.5149841308594 423.9786682128906 304.5388488769531 439.1351013183594 350.6534729003906 C 444.1927795410156 366.9830627441406 448.0843811035156 375.4502258300781 458.00860595703125 385.9798278808594 C 468.18780517578125 395.44659423828125 480.2571105957031 402.6645202636719 481.0818176269531 388.5441589355469 C 482.9151306152344 392.59033203125 481.40594482421875 358.1586608886719 476.1699523925781 339.7139892578125 C 466.9583740234375 308.1083984375 450.6175537109375 244.294677734375 448.11962890625 237.3348388671875 C 446.058349609375 228.70814514160156 442.26409912109375 224.3945770263672 444.4862365722656 226.64625549316406 C 442.61016845703125 222.9140625 432.0152587890625 220.6216278076172 408.1541748046875 218.6099395751953 C 399.00341796875 218.54537963867188 389.93988037109375 216.24459838867188 388.1614990234375 219.17669677734375" fill="rgb(0, 0, 0)" opacity="0.9989485" stroke-width="1.0"/>
  </g>
</svg>
