<?xml version="1.0" ?>
<svg height="1024" version="1.1" width="1024" xmlns="http://www.w3.org/2000/svg">
  <defs/>
  <g>
    <path d="M 783.8150634765625 385.0182800292969 C 772.2595825195312 385.29302978515625 750.8114013671875 390.1347351074219 737.2650146484375 394.0179443359375 C 727.1630859375 397.3660888671875 719.0109252929688 400.225830078125 700.469482421875 404.1163635253906 C 688.0667114257812 407.5018310546875 669.3079833984375 412.1049499511719 659.760498046875 414.9727478027344 C 647.1326904296875 418.31719970703125 635.5853271484375 422.0067138671875 622.5025024414062 424.1675109863281 C 615.5604858398438 426.16326904296875 599.4463500976562 429.45037841796875 582.8828735351562 434.3598327636719 C 570.584716796875 438.1138610839844 516.4383544921875 448.64410400390625 516.4732666015625 449.0202331542969 C 487.3692321777344 449.04827880859375 364.4321594238281 470.76885986328125 363.4765930175781 470.6553955078125 C 350.0392150878906 473.8658752441406 350.2013244628906 480.0621337890625 361.1516418457031 488.2402038574219 C 367.62054443359375 492.2121276855469 373.0916748046875 497.0862121582031 388.2051086425781 501.6134338378906 C 389.0276184082031 501.44000244140625 394.955078125 503.904541015625 403.8584289550781 504.0955505371094 C 418.8628234863281 504.2556457519531 421.91650390625 503.3712158203125 442.38800048828125 497.8003845214844 C 454.96588134765625 494.73406982421875 466.79693603515625 492.1391296386719 482.2698974609375 489.3656005859375 C 494.2075500488281 487.7730407714844 514.1097412109375 482.6329650878906 538.8585815429688 477.1769104003906 C 589.76904296875 464.7791442871094 627.8770751953125 457.9779968261719 724.2993774414062 440.5949401855469 C 757.881591796875 434.88629150390625 829.810791015625 422.3797912597656 831.5049438476562 422.0759582519531 C 844.5751342773438 422.60150146484375 848.5125732421875 412.5213623046875 850.0668334960938 412.04986572265625 C 849.9847412109375 408.0011901855469 846.1514282226562 402.441650390625 844.450439453125 401.4337463378906 C 834.9049682617188 393.08587646484375 819.953125 386.56573486328125 807.1853637695312 385.4486389160156 C 801.8319091796875 383.9406433105469 781.454345703125 384.4271240234375 777.5955810546875 386.4474792480469 C 798.0007934570312 387.74365234375 796.2073364257812 386.32916259765625 783.8150634765625 385.0182800292969" fill="rgb(0, 0, 0)" opacity="0.99953204" stroke-width="1.0"/>
  </g>
</svg>
