<?xml version="1.0" ?>
<svg height="1024" version="1.1" width="1024" xmlns="http://www.w3.org/2000/svg">
  <defs/>
  <g>
    <path d="M 672.031494140625 504.29425048828125 C 674.0938720703125 505.1706848144531 669.3643188476562 504.6765441894531 663.1121826171875 509.4158935546875 C 657.5725708007812 512.805419921875 622.3948974609375 522.175537109375 560.6243286132812 535.9970092773438 C 541.2315063476562 540.5284423828125 529.3191528320312 542.3982543945312 526.3477172851562 544.890625 C 512.7188110351562 551.6153564453125 517.7709350585938 566.9144287109375 538.7571411132812 568.314208984375 C 553.5675048828125 567.8651123046875 551.6216430664062 565.5576782226562 568.8946533203125 562.4522094726562 C 610.9002685546875 551.8419799804688 659.7559814453125 546.24609375 660.5885009765625 548.2692260742188 C 669.8120727539062 549.42333984375 671.5840454101562 561.590576171875 671.0692749023438 589.5148315429688 C 669.4050903320312 633.234375 664.2598876953125 633.790771484375 659.1896362304688 642.151611328125 C 647.9028930664062 655.2929077148438 636.2542724609375 654.6049194335938 623.333984375 651.1050415039062 C 605.2196655273438 647.6878662109375 598.1693725585938 645.5716552734375 596.0990600585938 645.4905395507812 C 588.5635375976562 644.7949829101562 591.9345703125 653.6535034179688 605.2523193359375 666.5252685546875 C 620.7337646484375 683.0269165039062 629.5881958007812 693.2560424804688 639.4176025390625 708.353515625 C 642.6155395507812 714.0676879882812 647.8876953125 718.3533935546875 653.5880737304688 717.8900756835938 C 655.724609375 718.7470703125 665.9962158203125 710.3030395507812 670.2807006835938 706.44482421875 C 686.8593139648438 688.8406372070312 698.4970703125 661.1634521484375 709.6292724609375 619.7784423828125 C 711.234375 611.9468994140625 716.4010620117188 593.9891357421875 715.0120239257812 593.1876831054688 C 716.5325317382812 573.1954345703125 720.1995849609375 565.3074340820312 728.1631469726562 551.8328247070312 C 736.3231201171875 541.2595825195312 737.2862548828125 540.2286987304688 737.1856079101562 531.2095336914062 C 737.6146850585938 537.2836303710938 737.0891723632812 531.779296875 735.5032958984375 530.7431640625 C 729.6915283203125 524.09130859375 693.8607788085938 508.3160705566406 688.048828125 505.69000244140625 C 676.263427734375 502.05108642578125 673.4022827148438 506.07183837890625 672.031494140625 504.29425048828125" fill="rgb(0, 0, 0)" opacity="1.0" stroke-width="1.0"/>
  </g>
</svg>
