<?xml version="1.0" ?>
<svg height="1024" version="1.1" width="1024" xmlns="http://www.w3.org/2000/svg">
  <defs/>
  <g>
    <path d="M 716.580078125 53.11078643798828 C 702.6602172851562 54.0888671875 686.3678588867188 58.266029357910156 676.5075073242188 60.652740478515625 C 626.7290649414062 76.19996643066406 571.5510864257812 86.59709930419922 491.73956298828125 98.15086364746094 C 468.7912902832031 101.2408447265625 454.7765197753906 102.92414855957031 458.1124267578125 103.15467071533203 C 451.3978576660156 104.2558364868164 448.4387512207031 108.25532531738281 449.4812316894531 109.44450378417969 C 446.4154357910156 115.70625305175781 471.8624572753906 131.17481994628906 486.3953552246094 135.90965270996094 C 506.9112243652344 141.3460693359375 507.4425964355469 138.34983825683594 542.5420532226562 131.10475158691406 C 584.3596801757812 120.76359558105469 596.2595825195312 118.6644058227539 628.0841674804688 112.66761779785156 C 651.2644653320312 108.62535858154297 682.8350219726562 102.57281494140625 681.1085815429688 101.96624755859375 C 685.4977416992188 100.44218444824219 720.33642578125 95.54191589355469 750.4512329101562 92.14048767089844 C 764.5751953125 89.8828353881836 772.8734130859375 90.5810317993164 776.4384765625 88.63288116455078 C 780.4340209960938 85.53239440917969 780.044921875 87.11469268798828 785.0025024414062 80.09831237792969 C 786.3764038085938 67.44056701660156 759.5093994140625 54.79948806762695 743.38720703125 53.46066665649414 C 726.2647094726562 51.02167892456055 746.1043090820312 54.011905670166016 734.674560546875 52.61235427856445 C 725.7210083007812 52.54923629760742 728.3279418945312 52.19932556152344 716.580078125 53.11078643798828" fill="rgb(0, 0, 0)" opacity="0.99893457" stroke-width="1.0"/>
  </g>
</svg>
