<?xml version="1.0" ?>
<svg height="1024" version="1.1" width="1024" xmlns="http://www.w3.org/2000/svg">
  <defs/>
  <g>
    <path d="M 771.4620971679688 155.49757385253906 C 771.0210571289062 155.67303466796875 752.555908203125 158.94712829589844 746.4418334960938 160.04161071777344 C 738.7528686523438 162.18594360351562 724.6522216796875 165.0336456298828 719.4661865234375 165.38055419921875 C 705.0751342773438 167.48248291015625 707.2985229492188 167.69509887695312 696.48681640625 169.9942169189453 C 695.819580078125 170.9824676513672 679.8673095703125 173.41586303710938 662.6077880859375 176.97714233398438 C 610.0020751953125 186.3688201904297 604.9829711914062 187.6348419189453 567.8880615234375 196.3977508544922 C 549.197998046875 200.98214721679688 516.7457275390625 208.05894470214844 492.28802490234375 213.1157684326172 C 466.8293151855469 219.11703491210938 445.7881774902344 222.53990173339844 444.4100036621094 223.31634521484375 C 430.6250305175781 224.57081604003906 424.8830261230469 233.6934814453125 425.3089599609375 239.03086853027344 C 423.3742980957031 246.01409912109375 429.71954345703125 256.84716796875 438.1647033691406 258.9237060546875 C 444.6640930175781 260.7627868652344 448.7029724121094 260.3142395019531 457.5596923828125 256.4487609863281 C 468.1177062988281 251.8750457763672 490.59326171875 245.57904052734375 515.275146484375 239.60317993164062 C 533.4481201171875 235.38624572753906 540.1949462890625 234.2172088623047 555.1940307617188 229.95327758789062 C 601.3069458007812 217.5334930419922 616.31591796875 215.30738830566406 688.28173828125 201.61697387695312 C 734.703125 192.5503692626953 768.187744140625 189.59771728515625 778.4244384765625 193.44107055664062 C 785.6117553710938 194.33172607421875 790.4185180664062 196.0154266357422 784.201416015625 218.72540283203125 C 783.3418579101562 220.9627227783203 762.3286743164062 287.1340026855469 751.7151489257812 309.39276123046875 C 744.2064819335938 326.577392578125 742.2279052734375 328.78717041015625 747.9390258789062 336.20672607421875 C 747.2570190429688 336.08953857421875 749.5680541992188 335.3917541503906 749.4290161132812 339.11932373046875 C 751.6417236328125 347.7083435058594 756.3277587890625 351.3555603027344 760.7709350585938 351.9391784667969 C 777.0110473632812 353.7242736816406 803.11376953125 314.3644714355469 812.1281127929688 299.8494873046875 C 824.099853515625 268.7673645019531 842.5059204101562 245.4052734375 863.1265258789062 230.39016723632812 C 873.6094360351562 223.25563049316406 873.2202758789062 218.97653198242188 874.6802978515625 217.54995727539062 C 876.5645751953125 211.23880004882812 872.56201171875 202.01478576660156 865.8269653320312 197.12139892578125 C 853.472900390625 183.79319763183594 814.5252075195312 159.55953979492188 808.6453247070312 156.12962341308594 C 795.24755859375 151.7311553955078 782.2484130859375 154.66209411621094 771.4620971679688 155.49757385253906" fill="rgb(0, 0, 0)" opacity="0.999042" stroke-width="1.0"/>
  </g>
</svg>
