<?xml version="1.0" ?>
<svg height="1024" version="1.1" width="1024" xmlns="http://www.w3.org/2000/svg">
  <defs/>
  <g>
    <path d="M 690.8486328125 40.62738037109375 C 693.5142822265625 34.796932220458984 689.5701293945312 41.80006790161133 692.309326171875 47.82854080200195 C 699.5484619140625 66.62390899658203 685.4126586914062 105.85455322265625 653.4699096679688 161.09835815429688 C 638.0953369140625 188.15232849121094 635.0762329101562 192.79977416992188 614.11572265625 211.7460174560547 C 600.6712646484375 221.55667114257812 599.0346069335938 226.83692932128906 597.5213012695312 230.76541137695312 C 594.2595825195312 246.76992797851562 611.6148071289062 267.34759521484375 616.517578125 267.9612731933594 C 620.0480346679688 269.2087097167969 623.6817626953125 268.8645324707031 627.5960693359375 266.61920166015625 C 640.885986328125 260.36590576171875 663.40673828125 254.5476531982422 723.7506713867188 245.66873168945312 C 725.6212768554688 245.87681579589844 742.0325927734375 241.9722900390625 739.5704956054688 241.81991577148438 C 745.8084106445312 239.5950927734375 750.338134765625 236.57077026367188 751.099365234375 234.421142578125 C 752.728515625 228.48797607421875 743.3582763671875 226.75674438476562 721.8204345703125 226.64559936523438 C 662.5809326171875 223.9075469970703 658.9270629882812 223.71551513671875 655.2530517578125 219.14041137695312 C 654.5986328125 218.8100128173828 652.7565307617188 215.26673889160156 660.4053344726562 207.62538146972656 C 659.3452758789062 208.60302734375 666.9850463867188 197.7293243408203 675.3712768554688 185.8633575439453 C 693.5592041015625 160.4620361328125 708.2220458984375 141.14898681640625 726.5952758789062 119.22510528564453 C 735.1090087890625 108.85874938964844 743.4844970703125 99.5158920288086 745.6227416992188 96.90836334228516 C 748.4445190429688 93.09319305419922 753.4722900390625 84.50584411621094 752.7138671875 82.70643615722656 C 754.7869262695312 76.89689636230469 746.9255981445312 67.20249938964844 734.3956909179688 54.598419189453125 C 720.0462646484375 40.095458984375 712.6439819335938 35.20995330810547 698.8756713867188 35.78663635253906 C 696.8788452148438 37.08853530883789 693.72216796875 34.71433639526367 690.8486328125 40.62738037109375" fill="rgb(0, 0, 0)" opacity="0.9999594" stroke-width="1.0"/>
  </g>
</svg>
