<?xml version="1.0" ?>
<svg height="1024" version="1.1" width="1024" xmlns="http://www.w3.org/2000/svg">
  <defs/>
  <g>
    <path d="M 553.3483276367188 163.9406280517578 C 541.5648193359375 166.54452514648438 543.0761108398438 165.63597106933594 522.1354370117188 174.1387176513672 C 472.122314453125 192.04684448242188 482.4399108886719 189.08309936523438 426.6458740234375 199.84527587890625 C 398.9998474121094 203.67930603027344 389.2309875488281 208.271240234375 394.19427490234375 215.42420959472656 C 400.2625427246094 220.69313049316406 404.59063720703125 222.67666625976562 419.0135803222656 227.26858520507812 C 434.4710693359375 230.99411010742188 446.9490051269531 231.3415985107422 466.4488830566406 227.38026428222656 C 469.94989013671875 226.1529541015625 572.733642578125 199.54994201660156 576.6787109375 198.15049743652344 C 595.16015625 192.0782928466797 601.9371337890625 189.76646423339844 602.8189086914062 185.2299346923828 C 604.1603393554688 185.1719970703125 606.0309448242188 180.50428771972656 602.239990234375 175.73806762695312 C 597.4010620117188 170.14674377441406 588.4257202148438 166.43995666503906 573.3837280273438 163.74668884277344 C 569.9953002929688 164.28631591796875 570.8984985351562 162.30746459960938 553.3483276367188 163.9406280517578" fill="rgb(0, 0, 0)" opacity="1.0" stroke-width="1.0"/>
  </g>
</svg>
