<?xml version="1.0" ?>
<svg height="1024" version="1.1" width="1024" xmlns="http://www.w3.org/2000/svg">
  <defs/>
  <g>
    <path d="M 766.4165649414062 146.51431274414062 C 762.2053833007812 145.0345001220703 760.391845703125 157.33555603027344 761.067138671875 162.90602111816406 C 760.1947021484375 170.63795471191406 759.9207763671875 174.53457641601562 755.9938354492188 183.86978149414062 C 751.2784423828125 198.8567352294922 726.1984252929688 243.8568115234375 705.3931274414062 267.80145263671875 C 666.3271484375 316.8892517089844 639.6685791015625 344.6375427246094 624.3344116210938 354.48114013671875 C 614.4911499023438 359.07562255859375 610.5697021484375 366.997802734375 611.0757446289062 373.330810546875 C 610.5062255859375 382.2898254394531 616.7683715820312 391.9422607421875 631.9899291992188 403.8200378417969 C 636.1635131835938 408.67083740234375 641.2257080078125 408.505615234375 642.2291259765625 408.2314147949219 C 647.6539306640625 407.98797607421875 651.276611328125 404.0341796875 654.352294921875 402.5149230957031 C 688.27392578125 382.98388671875 728.5294189453125 367.18780517578125 783.2901000976562 353.0711669921875 C 797.6674194335938 349.7253112792969 810.0305786132812 345.9523010253906 807.6578979492188 346.28179931640625 C 819.7044677734375 341.5837097167969 818.86767578125 335.6995544433594 800.4619750976562 334.63128662109375 C 774.9110717773438 335.52789306640625 743.6542358398438 339.4051513671875 709.023193359375 346.6011657714844 C 682.1591186523438 351.76336669921875 678.765380859375 356.06549072265625 676.6520385742188 344.9819030761719 C 678.4476318359375 356.5779113769531 678.3955688476562 355.6380615234375 678.33740234375 347.1934509277344 C 681.555419921875 340.2382507324219 715.1387939453125 302.19964599609375 751.5872802734375 265.05157470703125 C 765.6431274414062 250.89593505859375 776.3267211914062 239.11279296875 782.805908203125 231.64891052246094 C 794.4298706054688 219.59510803222656 803.17578125 210.97422790527344 813.0230102539062 203.27040100097656 C 822.0853881835938 196.0608673095703 827.3844604492188 192.29429626464844 820.7098999023438 181.5619354248047 C 815.4103393554688 169.81890869140625 795.2105102539062 153.6880645751953 785.4656982421875 149.126953125 C 773.2711181640625 143.13851928710938 763.9585571289062 144.80064392089844 766.4165649414062 146.51431274414062" fill="rgb(0, 0, 0)" opacity="0.99888456" stroke-width="1.0"/>
  </g>
</svg>
