<?xml version="1.0" ?>
<svg height="1024" version="1.1" width="1024" xmlns="http://www.w3.org/2000/svg">
  <defs/>
  <g>
    <path d="M 125.2565689086914 205.08013916015625 C 119.85502624511719 206.8350067138672 121.81165313720703 206.03099060058594 117.57061767578125 211.6933135986328 C 116.99677276611328 221.2573699951172 119.33441162109375 223.98008728027344 126.7706069946289 239.98275756835938 C 146.29794311523438 279.4829406738281 163.5277557373047 335.62890625 172.95298767089844 380.50213623046875 C 174.90179443359375 394.1650390625 182.08236694335938 410.468017578125 191.53897094726562 419.39080810546875 C 202.89849853515625 431.29107666015625 211.6493682861328 435.26287841796875 214.62005615234375 426.8485412597656 C 219.86268615722656 414.5960998535156 220.3289794921875 399.1296691894531 207.28199768066406 337.5077209472656 C 204.08934020996094 320.9143371582031 197.4840850830078 291.41314697265625 193.37716674804688 269.7054748535156 C 188.80780029296875 248.28370666503906 184.44976806640625 223.75791931152344 182.5131378173828 219.84422302246094 C 181.490234375 221.7721710205078 183.27096557617188 217.57870483398438 178.6668701171875 216.0771484375 C 165.18663024902344 209.19143676757812 126.56593322753906 205.1082305908203 125.2565689086914 205.08013916015625" fill="rgb(0, 0, 0)" opacity="0.9999567" stroke-width="1.0"/>
  </g>
</svg>
