<?xml version="1.0" ?>
<svg height="1024" version="1.1" width="1024" xmlns="http://www.w3.org/2000/svg">
  <defs/>
  <g>
    <path d="M 361.06939697265625 639.044189453125 C 345.7327880859375 644.2542114257812 329.87042236328125 650.4332275390625 310.6444396972656 657.9867553710938 C 299.4914245605469 663.7852172851562 258.498291015625 676.06103515625 256.90814208984375 677.1976928710938 C 231.55516052246094 682.2604370117188 211.1583251953125 689.3118286132812 192.58816528320312 695.8424072265625 C 176.6547393798828 700.6083374023438 169.723388671875 704.3275146484375 155.65402221679688 706.989013671875 C 149.78628540039062 708.823486328125 137.79306030273438 711.7610473632812 118.95081329345703 718.7671508789062 C 110.88589477539062 722.5226440429688 97.14981079101562 725.0894775390625 78.24781799316406 725.1072387695312 C 61.62537384033203 724.6423950195312 62.75102615356445 725.3681030273438 57.97528076171875 726.6598510742188 C 51.08687210083008 730.8448486328125 49.3318977355957 735.6424560546875 52.62592315673828 746.9708862304688 C 54.139888763427734 751.0768432617188 55.267547607421875 753.0540161132812 59.70439147949219 757.5006713867188 C 66.93319702148438 763.7802734375 81.48749542236328 774.0272827148438 100.86610412597656 784.8035278320312 C 114.27851104736328 791.7906494140625 113.65795135498047 793.1572875976562 118.9024658203125 792.0828857421875 C 117.67504119873047 793.8461303710938 134.07908630371094 789.7491455078125 142.00682067871094 782.502685546875 C 148.59298706054688 777.8773803710938 162.37515258789062 769.3859252929688 161.50953674316406 770.2742919921875 C 187.22195434570312 754.4373168945312 249.76612854003906 722.9236450195312 308.4696960449219 695.1880493164062 C 358.0417785644531 671.1124267578125 364.9055480957031 671.1658325195312 385.49560546875 655.728271484375 C 384.0443115234375 656.8773193359375 389.6238098144531 651.8103637695312 392.90936279296875 650.5743408203125 C 398.95751953125 646.0049438476562 403.3175964355469 642.919677734375 404.2173156738281 634.7684326171875 C 400.32696533203125 633.0962524414062 399.6955871582031 630.5106201171875 386.5869445800781 630.8973999023438 C 387.1872863769531 630.2183227539062 384.2641296386719 631.2124633789062 361.06939697265625 639.044189453125" fill="rgb(0, 0, 0)" opacity="0.99906844" stroke-width="1.0"/>
  </g>
</svg>
