<?xml version="1.0" ?>
<svg height="1024" version="1.1" width="1024" xmlns="http://www.w3.org/2000/svg">
  <defs/>
  <g>
    <path d="M 874.2124633789062 457.3539733886719 L 848.4345092773438 466.7413024902344 Q 663.6400146484375 497.6217956542969 505.9156799316406 530.5277709960938 Q 481.93603515625 536.7048950195312 486.4187927246094 556.3621826171875 Q 492.6756286621094 572.4472045898438 508.66015625 572.1048583984375 L 614.1204833984375 546.432373046875 Q 740.7529296875 520.8804321289062 838.638916015625 504.8654479980469 Q 881.8515014648438 515.087890625 883.1885375976562 548.6856079101562 L 884.868896484375 591.69140625 L 883.365478515625 644.78173828125 Q 876.956787109375 731.4476318359375 871.2109985351562 770.2839965820312 Q 869.3026123046875 783.1056518554688 813.0060424804688 772.7846069335938 Q 772.7803344726562 765.8960571289062 814.1504516601562 802.9177856445312 Q 856.9993286132812 833.880126953125 875.91796875 867.203369140625 Q 895.88427734375 878.6691284179688 907.0280151367188 866.6991577148438 Q 922.2266235351562 851.2808837890625 932.2066650390625 813.7245483398438 Q 944.7442626953125 767.2584228515625 944.8071899414062 721.6259155273438 Q 929.4434814453125 542.6016845703125 944.316162109375 512.94384765625 Q 956.3872680664062 498.4346008300781 945.1446533203125 487.2993469238281 Q 929.3974609375 476.1117248535156 886.9080810546875 458.0099792480469 L 874.2124633789062 457.3539733886719" fill="rgb(0, 0, 0)" opacity="0.9980789" stroke-width="1.0"/>
  </g>
</svg>
