<?xml version="1.0" ?>
<svg height="1024" version="1.1" width="1024" xmlns="http://www.w3.org/2000/svg">
  <defs/>
  <g>
    <path d="M 243.56443786621094 371.4828186035156 C 239.669677734375 370.8775329589844 238.99685668945312 377.9472351074219 240.27024841308594 380.0774841308594 C 239.11459350585938 379.35491943359375 241.89813232421875 386.3090515136719 243.54879760742188 389.89239501953125 C 250.20941162109375 403.28704833984375 253.2802734375 425.26202392578125 256.34417724609375 472.1031494140625 C 258.4542541503906 520.5768432617188 257.9903259277344 499.91656494140625 257.62353515625 553.1674194335938 C 256.69964599609375 705.4002075195312 256.9698486328125 672.7218627929688 257.55316162109375 682.6000366210938 C 259.3192138671875 691.6226806640625 266.6135559082031 694.250244140625 272.13604736328125 693.5633544921875 C 279.419921875 693.5926513671875 290.9718933105469 686.364501953125 295.8311462402344 675.7214965820312 C 300.3609924316406 666.6340942382812 298.4070739746094 664.8908081054688 301.7787780761719 602.958984375 C 301.9624328613281 594.9650268554688 304.0356750488281 564.3479614257812 305.1286926269531 543.6965942382812 C 305.7331848144531 535.2940063476562 307.2483215332031 504.31243896484375 307.75628662109375 492.09759521484375 C 308.2441711425781 492.1886901855469 308.5153503417969 471.13482666015625 309.8655700683594 458.403564453125 C 311.92987060546875 430.543212890625 312.5696716308594 423.9717712402344 311.38238525390625 409.4360656738281 L 310.2871398925781 405.3768615722656 L 305.803955078125 401.1620788574219 C 292.8492126464844 389.77056884765625 290.7088317871094 387.8533020019531 274.4955139160156 380.3284606933594 C 263.01788330078125 373.9259033203125 248.58778381347656 368.2544860839844 242.96487426757812 370.9841003417969 C 260.3793029785156 375.2994079589844 239.585693359375 367.98162841796875 243.56443786621094 371.4828186035156" fill="rgb(0, 0, 0)" opacity="1.0" stroke-width="1.0"/>
  </g>
</svg>
