<?xml version="1.0" ?>
<svg height="1024" version="1.1" width="1024" xmlns="http://www.w3.org/2000/svg">
  <defs/>
  <g>
    <path d="M 570.495849609375 603.7049560546875 C 565.5745239257812 608.4404296875 565.8011474609375 614.5396728515625 573.7385864257812 629.2767333984375 C 586.7993774414062 654.7340698242188 599.7767333984375 696.2479248046875 607.5988159179688 739.5798950195312 C 608.2025146484375 734.204345703125 606.5543823242188 751.5403442382812 616.1910400390625 768.12939453125 C 620.4332885742188 776.228271484375 630.9698486328125 787.5042724609375 635.81005859375 787.7721557617188 C 640.099609375 789.56982421875 642.7908935546875 785.4612426757812 646.0201416015625 771.8378295898438 C 648.1381225585938 763.0674438476562 644.910888671875 722.8987426757812 642.7872924804688 714.9530639648438 C 636.0023803710938 672.3815307617188 633.784423828125 654.4175415039062 632.14794921875 639.14697265625 C 631.0610961914062 618.3564453125 631.8582153320312 621.8991088867188 627.9047241210938 616.125244140625 C 628.114013671875 615.173828125 610.0099487304688 607.590087890625 588.28076171875 603.8363647460938 C 576.6491088867188 601.105712890625 571.047119140625 601.0911254882812 570.495849609375 603.7049560546875" fill="rgb(0, 0, 0)" opacity="0.9995011" stroke-width="1.0"/>
  </g>
</svg>
