<?xml version="1.0" ?>
<svg height="1024" version="1.1" width="1024" xmlns="http://www.w3.org/2000/svg">
  <defs/>
  <g>
    <path d="M 739.6236572265625 573.04248046875 C 728.1674194335938 575.0980834960938 718.0430297851562 578.4198608398438 698.2566528320312 587.9478149414062 C 700.10498046875 587.5547485351562 659.8928833007812 598.51171875 623.6834716796875 607.4163208007812 C 604.0855712890625 612.1893920898438 607.1721801757812 611.7054443359375 602.0081787109375 615.0948486328125 C 597.6057739257812 619.164306640625 597.754150390625 624.8487548828125 602.54931640625 629.28466796875 C 609.3621215820312 635.7972412109375 622.5421142578125 637.326416015625 633.2003784179688 632.2824096679688 C 643.799560546875 627.3269653320312 707.4913330078125 615.7798461914062 713.2448120117188 614.686279296875 C 724.6715698242188 614.6217041015625 727.108642578125 616.8812255859375 730.0422973632812 620.1416015625 C 736.598876953125 629.0475463867188 733.986572265625 629.3243408203125 721.4817504882812 685.591552734375 C 715.856201171875 706.7283935546875 712.566162109375 719.228759765625 713.1201171875 719.2303466796875 C 712.2610473632812 733.1287231445312 723.8480834960938 738.7271118164062 733.57861328125 737.7847900390625 C 746.8856811523438 736.9674682617188 755.3870849609375 728.339111328125 758.4569702148438 717.1192626953125 C 757.5494995117188 717.7745361328125 762.5541381835938 702.5833129882812 765.4774780273438 693.776123046875 C 775.2352905273438 663.7380981445312 783.6453247070312 646.6123046875 796.0676879882812 632.7554931640625 C 802.8674926757812 626.2227783203125 805.8236083984375 618.0416259765625 805.4093017578125 616.4541015625 C 805.6516723632812 608.6914672851562 803.093017578125 605.1533203125 796.9768676757812 600.6170654296875 C 795.1659545898438 599.3048095703125 755.1146850585938 572.7786865234375 755.4685668945312 573.745849609375 C 741.6072387695312 574.1093139648438 748.272705078125 576.7868041992188 756.791259765625 574.2509765625 C 750.62109375 571.5806884765625 745.1514892578125 572.5277709960938 739.6236572265625 573.04248046875" fill="rgb(0, 0, 0)" opacity="0.99902874" stroke-width="1.0"/>
  </g>
</svg>
