<?xml version="1.0" ?>
<svg height="1024" version="1.1" width="1024" xmlns="http://www.w3.org/2000/svg">
  <defs/>
  <g>
    <path d="M 117.5804443359375 488.4109802246094 C 102.33043670654297 490.9689636230469 105.42190551757812 507.5557861328125 115.05876159667969 519.0542602539062 C 124.29927062988281 533.2615966796875 131.65663146972656 546.6585693359375 136.68157958984375 559.8218994140625 C 138.7940216064453 561.231689453125 144.04823303222656 590.7577514648438 153.4022216796875 634.9004516601562 C 161.7105255126953 673.607177734375 168.8125457763672 707.268310546875 168.81198120117188 708.2708740234375 C 171.01683044433594 712.0580444335938 172.04428100585938 714.6796875 175.3631134033203 717.2487182617188 C 185.27732849121094 726.5615844726562 203.61978149414062 717.9376831054688 204.19635009765625 697.9940795898438 C 205.23272705078125 698.7484741210938 202.30654907226562 678.697509765625 199.2561492919922 654.3286743164062 C 193.3617401123047 607.5618286132812 190.32554626464844 578.0538330078125 188.0960693359375 547.095703125 C 189.08160400390625 520.23779296875 181.29005432128906 510.24212646484375 163.64686584472656 502.3043212890625 C 140.94532775878906 491.190185546875 122.67898559570312 486.3668212890625 117.5804443359375 488.4109802246094" fill="rgb(0, 0, 0)" opacity="0.99856746" stroke-width="1.0"/>
  </g>
</svg>
