<?xml version="1.0" ?>
<svg height="1024" version="1.1" width="1024" xmlns="http://www.w3.org/2000/svg">
  <defs/>
  <g>
    <path d="M 867.8323974609375 459.1685485839844 C 873.3384399414062 458.2624206542969 866.91455078125 459.01513671875 863.489990234375 461.197265625 C 857.4375610351562 465.2030334472656 831.0276489257812 470.7066955566406 777.6036987304688 478.7564392089844 C 744.7037963867188 483.35968017578125 718.0916748046875 488.60614013671875 703.2728881835938 491.8954772949219 C 684.518310546875 496.3799743652344 653.6128540039062 501.7320251464844 660.474609375 501.3262023925781 C 625.0596313476562 504.92041015625 640.772216796875 504.3479919433594 629.2459106445312 505.6820373535156 C 626.5296630859375 507.40771484375 619.4623413085938 508.43267822265625 597.4439086914062 512.3009643554688 C 546.8306884765625 520.6921997070312 496.6125183105469 532.6887817382812 496.8894958496094 533.7295532226562 C 477.2933654785156 543.4762573242188 486.1087646484375 568.2897338867188 502.8320617675781 571.6839599609375 C 506.4288024902344 573.3637084960938 531.7021484375 568.89208984375 529.4905395507812 567.273681640625 C 566.341552734375 556.131103515625 674.6123046875 532.694580078125 807.5736083984375 510.1122131347656 C 829.8261108398438 505.9794006347656 842.7132568359375 502.876708984375 855.161865234375 509.9877014160156 C 859.4489135742188 512.9427490234375 860.620849609375 515.3423461914062 862.1349487304688 514.5640258789062 C 872.7189331054688 519.18017578125 880.7880859375 529.6160888671875 881.9234619140625 541.780517578125 C 882.7301025390625 542.5469360351562 883.7200317382812 556.555908203125 883.8455810546875 563.1348266601562 C 886.1190185546875 606.9464111328125 883.2288818359375 657.202880859375 877.5689086914062 715.7089233398438 C 876.3629760742188 728.8723754882812 873.8959350585938 749.4044799804688 872.7960205078125 757.832275390625 C 873.5595092773438 765.0463256835938 870.9348754882812 771.25732421875 867.60400390625 774.4046020507812 C 859.3795776367188 779.517333984375 856.6065063476562 778.291015625 834.5534057617188 775.6981811523438 C 818.3736572265625 774.7899169921875 798.9054565429688 769.0827026367188 793.4232788085938 773.8291015625 C 791.6300048828125 779.4273681640625 793.1103515625 771.9010620117188 794.6574096679688 781.4871215820312 C 799.7042236328125 789.2584228515625 803.2822875976562 794.1734008789062 820.8745727539062 808.040283203125 C 843.9930419921875 825.2432250976562 861.4189453125 843.6718139648438 873.080810546875 862.4097290039062 C 874.9605102539062 863.1079711914062 873.1297607421875 868.9844360351562 888.855224609375 872.4225463867188 C 897.6215209960938 873.1176147460938 904.3641967773438 874.2796630859375 916.6499633789062 853.720458984375 C 929.3468017578125 834.3919677734375 941.5637817382812 781.453369140625 943.7504272460938 748.045166015625 C 945.7161865234375 713.8905029296875 944.8729248046875 727.568603515625 943.100830078125 700.3983154296875 C 934.5657958984375 594.0211181640625 934.8416748046875 528.4144897460938 944.8841552734375 512.1775512695312 C 948.1879272460938 507.8328857421875 950.156494140625 504.7951354980469 947.5709228515625 506.95050048828125 C 951.20263671875 504.5262145996094 951.7320556640625 495.4512634277344 947.9509887695312 490.7103576660156 C 947.59912109375 487.80517578125 938.4569702148438 481.9923095703125 916.2742309570312 471.209228515625 C 890.02880859375 459.5216979980469 886.403564453125 454.81072998046875 867.8323974609375 459.1685485839844" fill="rgb(0, 0, 0)" opacity="0.99934465" stroke-width="1.0"/>
  </g>
</svg>
