<?xml version="1.0" ?>
<svg height="1024" version="1.1" width="1024" xmlns="http://www.w3.org/2000/svg">
  <defs/>
  <g>
    <path d="M 640.4411010742188 162.79171752929688 C 633.7357177734375 169.14306640625 633.1533813476562 170.1429443359375 632.882568359375 173.17135620117188 C 630.7423095703125 176.87525939941406 636.475341796875 190.81378173828125 638.6981201171875 191.5487518310547 C 646.9630126953125 204.82713317871094 652.4124755859375 215.037841796875 654.39599609375 226.5543670654297 C 654.6237182617188 223.7664794921875 655.2107543945312 238.75831604003906 655.9688720703125 252.2119598388672 C 659.5006713867188 324.6601257324219 659.160400390625 407.43017578125 655.8168334960938 481.9586181640625 C 654.9470825195312 508.905029296875 654.38916015625 504.3480529785156 655.9252319335938 511.3833312988281 C 657.5567016601562 514.369873046875 660.0849609375 518.335693359375 662.057373046875 518.7153930664062 C 670.8389282226562 525.1419067382812 689.4866333007812 517.2381591796875 693.3944702148438 497.78375244140625 C 693.29541015625 501.0219421386719 695.8888549804688 476.0302429199219 698.3208618164062 452.1266784667969 C 711.1773071289062 329.8550720214844 722.2479248046875 242.7134552001953 729.621337890625 213.52859497070312 C 728.6698608398438 211.58033752441406 734.7171020507812 206.76190185546875 727.7800903320312 197.58432006835938 C 722.933837890625 187.86654663085938 687.8314208984375 168.37330627441406 666.8927612304688 162.5519256591797 C 649.3807983398438 158.75770568847656 648.9080200195312 159.0205841064453 640.4411010742188 162.79171752929688" fill="rgb(0, 0, 0)" opacity="0.99970865" stroke-width="1.0"/>
  </g>
</svg>
