<?xml version="1.0" ?>
<svg height="1024" version="1.1" width="1024" xmlns="http://www.w3.org/2000/svg">
  <defs/>
  <g>
    <path d="M 448.22589111328125 505.5682067871094 C 445.09716796875 507.29193115234375 443.1712341308594 514.0112915039062 443.8570251464844 518.3115844726562 C 444.0567932128906 529.4046020507812 446.2902526855469 528.0259399414062 450.5534973144531 539.649169921875 C 455.79864501953125 550.1737670898438 459.9678039550781 564.5458984375 462.19866943359375 574.8012084960938 C 466.22894287109375 595.3378295898438 464.7871398925781 598.8933715820312 464.93719482421875 632.999267578125 C 463.9358825683594 669.8854370117188 462.0777893066406 705.162841796875 456.3186340332031 743.8623046875 C 452.3459167480469 769.9739990234375 450.31787109375 777.2415771484375 456.7200927734375 797.1234741210938 C 460.9403991699219 806.3817138671875 463.927978515625 812.3285522460938 473.38201904296875 822.0606689453125 C 481.42315673828125 829.4775390625 494.5733947753906 840.86083984375 498.4214172363281 833.2467651367188 C 500.8927001953125 827.6055297851562 502.9317321777344 828.6431274414062 503.9681396484375 825.8490600585938 C 511.2127685546875 814.9507446289062 513.9996337890625 783.013916015625 512.0264892578125 726.466064453125 C 512.0235595703125 669.6736450195312 512.6992797851562 598.8012084960938 515.1025390625 569.609375 C 517.0455322265625 547.188720703125 516.8121337890625 545.592041015625 502.9942932128906 532.9793701171875 C 491.1031188964844 521.4739990234375 487.4231872558594 518.4008178710938 473.0796813964844 510.34222412109375 C 460.2769470214844 504.6142883300781 450.6438293457031 501.2724304199219 448.22589111328125 505.5682067871094" fill="rgb(0, 0, 0)" opacity="0.99916834" stroke-width="1.0"/>
  </g>
</svg>
