<?xml version="1.0" ?>
<svg height="1024" version="1.1" width="1024" xmlns="http://www.w3.org/2000/svg">
  <defs/>
  <g>
    <path d="M 326.8102111816406 162.20504760742188 C 318.22857666015625 164.0111541748047 304.4490051269531 169.84434509277344 289.1717529296875 178.4652557373047 C 281.89166259765625 181.7218780517578 230.05764770507812 200.3357696533203 189.71484375 209.8043670654297 C 169.89486694335938 215.09320068359375 172.25112915039062 213.63597106933594 164.70591735839844 217.18426513671875 C 152.7498779296875 225.07994079589844 157.29054260253906 240.27001953125 169.7305908203125 243.910400390625 C 174.60501098632812 246.4131622314453 183.55227661132812 245.6265869140625 192.1496124267578 241.12538146972656 C 204.78834533691406 235.86463928222656 298.8846740722656 213.98509216308594 299.8868103027344 213.58070373535156 C 319.0353088378906 210.60577392578125 320.56103515625 216.70982360839844 323.0585021972656 218.4495391845703 C 324.7035217285156 223.08541870117188 325.53070068359375 219.50494384765625 324.2384338378906 232.22903442382812 C 323.345947265625 243.3177032470703 318.5122375488281 267.26617431640625 310.3546142578125 303.72393798828125 C 305.3353576660156 328.5754699707031 300.0152587890625 342.2051086425781 303.0578308105469 344.3050231933594 C 303.1034851074219 347.7161865234375 306.3864440917969 353.2356262207031 311.9801025390625 355.3987731933594 C 314.4397888183594 356.71307373046875 322.9626159667969 359.30963134765625 324.9574279785156 357.9868469238281 C 332.974609375 358.96331787109375 337.77056884765625 355.7999572753906 341.2613220214844 354.8312072753906 C 343.4549560546875 353.7437744140625 349.0693054199219 350.7288818359375 351.15240478515625 347.54107666015625 C 357.0732727050781 340.7313232421875 355.8223571777344 340.08111572265625 362.8889465332031 315.1186218261719 C 373.4850158691406 278.18487548828125 386.0938720703125 249.78836059570312 399.80548095703125 236.2138671875 C 412.68414306640625 222.99566650390625 416.1907653808594 210.37413024902344 412.6396789550781 203.36952209472656 C 411.3755187988281 199.5146026611328 408.8204345703125 197.8660888671875 407.25433349609375 195.54220581054688 C 402.7599182128906 192.2796630859375 353.71923828125 161.98492431640625 352.07476806640625 161.555419921875 C 342.5933837890625 158.62530517578125 334.93536376953125 159.72462463378906 326.8102111816406 162.20504760742188" fill="rgb(0, 0, 0)" opacity="0.99985826" stroke-width="1.0"/>
  </g>
</svg>
