<?xml version="1.0" ?>
<svg height="1024" version="1.1" width="1024" xmlns="http://www.w3.org/2000/svg">
  <defs/>
  <g>
    <path d="M 657.4769287109375 269.626953125 C 653.784912109375 273.31463623046875 656.3797607421875 279.5437927246094 659.6815185546875 290.4769287109375 C 665.6554565429688 304.9069519042969 667.4141235351562 326.60772705078125 666.9883422851562 399.2032165527344 C 669.948486328125 480.5540466308594 665.0042114257812 475.9129333496094 671.5466918945312 488.7467956542969 C 677.6339111328125 496.7599182128906 687.3692626953125 496.3146057128906 695.3028564453125 485.8422546386719 C 701.0748901367188 474.6524658203125 699.5384521484375 476.18603515625 701.9163208007812 428.1109313964844 C 703.2263793945312 404.885498046875 704.8401489257812 373.031005859375 704.2127075195312 375.6617431640625 C 704.7315673828125 369.57476806640625 705.4913330078125 351.89703369140625 708.1303100585938 333.1786193847656 C 710.5498046875 301.69525146484375 713.3851318359375 309.8090515136719 708.8173217773438 297.9202880859375 C 706.278076171875 295.11065673828125 698.9075317382812 287.0260314941406 683.1671752929688 279.330078125 C 667.5020751953125 269.8305358886719 658.3190307617188 267.355224609375 657.4769287109375 269.626953125" fill="rgb(0, 0, 0)" opacity="0.99916804" stroke-width="1.0"/>
  </g>
</svg>
