<?xml version="1.0" ?>
<svg height="1024" version="1.1" width="1024" xmlns="http://www.w3.org/2000/svg">
  <defs/>
  <g>
    <path d="M 731.526611328125 310.5384521484375 C 715.7403564453125 311.93304443359375 707.6630859375 314.6923828125 685.8323974609375 321.1075439453125 C 669.866943359375 326.1070861816406 651.8408813476562 330.7998046875 640.6676635742188 334.1326599121094 C 617.68408203125 341.0357971191406 600.56689453125 346.9775390625 603.3328857421875 345.6479187011719 C 595.0279541015625 348.15704345703125 602.2207641601562 355.9042663574219 605.4202270507812 357.4007568359375 L 610.04248046875 361.2608337402344 L 628.8860473632812 360.8922119140625 C 623.4238891601562 361.03546142578125 643.594482421875 360.42388916015625 660.9878540039062 359.32562255859375 C 667.993408203125 359.3747253417969 667.7201538085938 358.7839050292969 707.8648681640625 351.7698059082031 C 716.6710815429688 349.0538635253906 746.3673095703125 344.46942138671875 748.9951782226562 344.3274841308594 C 763.2589721679688 342.12017822265625 763.3156127929688 343.20086669921875 773.2847900390625 341.1513366699219 C 777.0073852539062 338.4524230957031 781.8717651367188 339.04644775390625 783.3177490234375 332.9902648925781 C 783.3893432617188 325.96044921875 769.4921875 313.75421142578125 752.8670654296875 310.90863037109375 C 748.4550170898438 312.1308288574219 759.7221069335938 308.3056945800781 731.526611328125 310.5384521484375" fill="rgb(0, 0, 0)" opacity="0.99869895" stroke-width="1.0"/>
  </g>
</svg>
