<?xml version="1.0" ?>
<svg height="1024" version="1.1" width="1024" xmlns="http://www.w3.org/2000/svg">
  <defs/>
  <g>
    <path d="M 722.8119506835938 385.7893981933594 C 708.8012084960938 386.3552551269531 698.4904174804688 390.9710388183594 624.1177978515625 412.8465881347656 C 603.6085815429688 419.2405700683594 605.0228881835938 417.657470703125 604.0782470703125 420.60205078125 C 602.505615234375 421.8544006347656 603.7631225585938 425.5690612792969 611.15673828125 430.9530334472656 L 615.65087890625 433.8849792480469 L 624.0770874023438 434.4029541015625 C 657.7158813476562 433.2068176269531 667.0095825195312 433.52008056640625 721.7705688476562 423.1916198730469 C 726.1759643554688 422.6551818847656 738.0188598632812 420.31683349609375 746.0390625 419.71533203125 C 755.1342163085938 418.3887634277344 763.123291015625 419.0455627441406 771.2554321289062 416.199462890625 C 772.531494140625 415.1371154785156 779.5521240234375 413.3504333496094 778.822021484375 408.1850891113281 C 780.170654296875 405.1052551269531 769.5560913085938 390.90545654296875 748.8528442382812 386.8824462890625 C 741.050048828125 384.336181640625 724.5735473632812 384.98028564453125 722.8119506835938 385.7893981933594" fill="rgb(0, 0, 0)" opacity="0.9981057" stroke-width="1.0"/>
  </g>
</svg>
