<?xml version="1.0" ?>
<svg height="1024" version="1.1" width="1024" xmlns="http://www.w3.org/2000/svg">
  <defs/>
  <g>
    <path d="M 525.6194458007812 198.35977172851562 C 521.8489990234375 201.04920959472656 522.2753295898438 208.54786682128906 526.3416748046875 215.83071899414062 C 529.8450317382812 229.66354370117188 524.6712646484375 252.87770080566406 503.0646057128906 294.9825134277344 C 487.2146301269531 327.8989562988281 461.7961730957031 366.1514587402344 442.2379150390625 392.73052978515625 C 435.1830139160156 403.5179748535156 427.55694580078125 405.5057067871094 435.2444152832031 402.2593078613281 C 430.8998107910156 405.321044921875 430.4903259277344 413.1850280761719 435.98345947265625 412.23876953125 C 447.16436767578125 412.673583984375 468.8840026855469 394.5124206542969 496.1724548339844 361.6792907714844 C 514.8057250976562 339.34832763671875 545.4454956054688 296.9803161621094 558.8237915039062 275.7952880859375 C 565.354736328125 264.6459045410156 570.9767456054688 256.1947326660156 578.7078247070312 248.12205505371094 C 583.109130859375 244.1781463623047 586.3096313476562 236.75424194335938 581.61669921875 228.05191040039062 C 579.6813354492188 222.99436950683594 560.2232666015625 203.1880645751953 540.6965942382812 198.798583984375 C 529.407470703125 195.7632598876953 529.8447875976562 197.51438903808594 525.6194458007812 198.35977172851562" fill="rgb(0, 0, 0)" opacity="0.9988323" stroke-width="1.0"/>
  </g>
</svg>
