<?xml version="1.0" ?>
<svg height="1024" version="1.1" width="1024" xmlns="http://www.w3.org/2000/svg">
  <defs/>
  <g>
    <path d="M 258.8130798339844 137.39015197753906 C 248.68614196777344 140.7779083251953 244.4702911376953 151.52340698242188 253.68508911132812 164.18931579589844 C 265.4293212890625 183.70864868164062 270.5707092285156 214.11920166015625 267.9751892089844 254.42245483398438 C 264.5669860839844 296.19879150390625 255.8508758544922 374.14593505859375 246.2318878173828 430.4673767089844 C 232.31822204589844 516.05078125 210.82374572753906 597.924560546875 189.24905395507812 645.886474609375 C 173.24217224121094 683.8567504882812 147.44483947753906 733.8653564453125 121.75198364257812 777.1043090820312 C 104.09476470947266 807.8494873046875 72.48638153076172 857.6716918945312 58.112545013427734 878.6720581054688 C 48.798492431640625 889.6192016601562 50.81880187988281 896.9805297851562 53.611209869384766 898.0951538085938 C 57.09333801269531 899.6646728515625 65.85653686523438 896.74853515625 69.73441314697266 894.9649047851562 C 86.79425048828125 887.6443481445312 109.7381820678711 864.1937866210938 137.95655822753906 827.0753173828125 C 189.56983947753906 756.1664428710938 218.93905639648438 705.7762451171875 249.50746154785156 625.647705078125 C 282.96710205078125 538.8314819335938 306.313720703125 439.0832214355469 318.36456298828125 329.9970397949219 C 325.5358581542969 261.59844970703125 332.3164367675781 225.83595275878906 341.4861755371094 196.83444213867188 C 345.3368225097656 183.0243377685547 345.7713317871094 184.02760314941406 338.1990966796875 176.01025390625 C 333.6752624511719 173.03109741210938 311.5012512207031 153.00367736816406 295.2152099609375 144.9697265625 C 283.53131103515625 138.22784423828125 270.4405517578125 134.2711639404297 258.8130798339844 137.39015197753906" fill="rgb(0, 0, 0)" opacity="0.9996297" stroke-width="1.0"/>
  </g>
</svg>
