<?xml version="1.0" ?>
<svg height="1024" version="1.1" width="1024" xmlns="http://www.w3.org/2000/svg">
  <defs/>
  <g>
    <path d="M 469.8997802734375 33.39950942993164 C 460.0714111328125 34.84572982788086 454.7456359863281 36.65224838256836 458.58392333984375 48.88397216796875 C 459.9814147949219 55.0520133972168 463.7775573730469 60.8365478515625 486.2055969238281 71.88752746582031 C 495.73944091796875 76.08003997802734 506.2803955078125 82.87757873535156 521.013916015625 91.11691284179688 C 536.5806884765625 100.15788269042969 552.8899536132812 109.93860626220703 557.0590209960938 112.16647338867188 C 562.6498413085938 114.90926361083984 568.459716796875 116.0707778930664 574.0587158203125 116.31786346435547 C 587.4912719726562 114.3573226928711 586.5736083984375 113.91863250732422 589.7520141601562 109.83901977539062 C 593.9374389648438 103.35089874267578 593.9387817382812 94.22160339355469 590.237548828125 83.62076568603516 C 586.308837890625 72.92890167236328 579.9580688476562 58.978519439697266 575.0631713867188 54.506736755371094 C 569.8941040039062 49.71236801147461 562.0263061523438 43.47404861450195 545.989013671875 39.374515533447266 C 540.0010986328125 36.661075592041016 478.9093017578125 30.489046096801758 469.8997802734375 33.39950942993164" fill="rgb(0, 0, 0)" opacity="0.9988799" stroke-width="1.0"/>
  </g>
</svg>
