<?xml version="1.0" ?>
<svg height="1024" version="1.1" width="1024" xmlns="http://www.w3.org/2000/svg">
  <defs/>
  <g>
    <path d="M 732.566650390625 99.4835205078125 C 709.8433227539062 102.08248901367188 674.5801391601562 110.34442901611328 636.8875732421875 120.34840393066406 C 638.3096313476562 120.88822937011719 589.7119750976562 130.072998046875 548.69775390625 137.53082275390625 C 470.06378173828125 151.60031127929688 392.2523193359375 162.44229125976562 334.75225830078125 165.22756958007812 C 332.9774169921875 166.26014709472656 315.8473205566406 171.0826416015625 314.6375732421875 173.19332885742188 C 307.1458740234375 180.462158203125 317.5699462890625 186.3071746826172 325.7608337402344 190.3206787109375 C 351.61273193359375 199.7932586669922 390.5842590332031 203.68643188476562 456.3345642089844 196.49131774902344 C 480.58135986328125 193.04598999023438 667.5616455078125 163.44334411621094 724.9061889648438 151.74581909179688 C 787.783203125 140.07687377929688 794.4335327148438 135.7304229736328 798.0362548828125 130.17959594726562 C 803.4042358398438 122.67483520507812 794.3662109375 110.77930450439453 778.6611938476562 104.0565414428711 C 762.6802368164062 97.93476104736328 759.7789306640625 96.41126251220703 732.566650390625 99.4835205078125" fill="rgb(0, 0, 0)" opacity="1.0" stroke-width="1.0"/>
  </g>
</svg>
