<?xml version="1.0" ?>
<svg height="1024" version="1.1" width="1024" xmlns="http://www.w3.org/2000/svg">
  <defs/>
  <g>
    <path d="M 669.1824951171875 268.4124450683594 C 662.6327514648438 271.7158203125 662.7098999023438 278.7438659667969 665.8057861328125 291.43914794921875 C 668.0639038085938 296.56768798828125 669.20263671875 296.1120910644531 668.949462890625 349.8291015625 C 668.544921875 365.75 667.9373779296875 396.8245849609375 666.6339111328125 429.2941589355469 C 666.3261108398438 450.952880859375 664.2454833984375 454.7545166015625 669.6834106445312 462.8872375488281 C 679.8139038085938 471.62982177734375 694.0108642578125 462.26654052734375 700.7098388671875 449.1738586425781 C 704.6870727539062 439.3580627441406 703.4256591796875 438.95697021484375 709.1513061523438 390.19366455078125 C 714.5492553710938 336.3370666503906 717.693603515625 331.3720397949219 712.0087890625 308.7950744628906 C 708.8961181640625 300.77117919921875 708.2971801757812 299.12432861328125 704.63525390625 293.18804931640625 C 698.4246826171875 285.1361999511719 688.8634033203125 273.99688720703125 678.7752685546875 269.61993408203125 C 673.6424560546875 266.7713623046875 668.220458984375 269.034423828125 669.1824951171875 268.4124450683594" fill="rgb(0, 0, 0)" opacity="0.9986515" stroke-width="1.0"/>
  </g>
</svg>
