<?xml version="1.0" ?>
<svg height="1024" version="1.1" width="1024" xmlns="http://www.w3.org/2000/svg">
  <defs/>
  <g>
    <path d="M 432.6595764160156 372.211669921875 C 425.3435974121094 373.6180725097656 413.58270263671875 375.19610595703125 393.18255615234375 380.3827209472656 C 392.2030334472656 381.0482177734375 380.5543212890625 383.8216857910156 376.0080871582031 383.74066162109375 C 354.533203125 386.44549560546875 338.870361328125 389.7972717285156 320.68096923828125 395.3941955566406 C 312.1790466308594 399.1273498535156 298.6011047363281 400.90283203125 282.8080749511719 405.1009521484375 C 277.734375 405.48291015625 249.04563903808594 412.8115539550781 219.7528533935547 419.75421142578125 C 175.73428344726562 431.05108642578125 170.81973266601562 431.29156494140625 164.94273376464844 435.18408203125 C 158.6134796142578 439.6819763183594 157.33078002929688 444.0861511230469 156.49388122558594 448.84613037109375 C 157.33912658691406 454.00067138671875 157.458251953125 454.6746520996094 160.35980224609375 458.2818298339844 C 164.7766876220703 463.55364990234375 174.45188903808594 464.3726806640625 183.21160888671875 460.26617431640625 C 186.00892639160156 458.21209716796875 195.88836669921875 456.7905578613281 196.87185668945312 455.89678955078125 C 223.7589569091797 448.1214294433594 265.8329772949219 437.1720275878906 273.1884765625 435.69775390625 C 298.52166748046875 430.973388671875 298.0894470214844 430.6927490234375 313.69610595703125 426.2756042480469 C 373.4894714355469 409.51690673828125 415.7862243652344 404.2106018066406 428.7527160644531 414.4727783203125 C 432.803955078125 418.464599609375 440.5168151855469 425.11309814453125 437.0117492675781 445.40472412109375 C 437.6331481933594 441.93109130859375 423.8460693359375 512.0346069335938 414.5506591796875 548.6487426757812 C 405.9981384277344 581.9467163085938 399.5440368652344 599.1002197265625 392.7707214355469 604.2482299804688 C 390.3902893066406 605.9024658203125 386.9200439453125 608.8922119140625 384.04107666015625 608.9110717773438 C 385.9283752441406 607.833251953125 371.97711181640625 617.330322265625 375.2296142578125 620.447021484375 C 374.0160827636719 620.5747680664062 389.37957763671875 644.3088989257812 395.97955322265625 650.7034912109375 C 400.493896484375 656.8313598632812 406.1555480957031 658.659912109375 406.2283020019531 659.8782958984375 C 409.917236328125 661.5740356445312 415.0782165527344 664.658447265625 422.573486328125 660.2841186523438 C 427.18524169921875 658.0327758789062 433.7645263671875 650.1328735351562 437.63079833984375 641.8125 C 448.6542663574219 618.3428955078125 460.0057373046875 574.0836791992188 476.22430419921875 501.0464782714844 C 481.00506591796875 473.402099609375 489.57696533203125 454.0824890136719 504.2046813964844 439.97821044921875 C 508.3387756347656 433.8927001953125 516.5361328125 429.50830078125 515.1404418945312 420.6333312988281 C 514.6212158203125 415.2687072753906 507.3098449707031 405.7236022949219 488.8145446777344 392.0857238769531 C 472.8622131347656 380.040283203125 458.2165222167969 372.4185791015625 460.3587951660156 373.0744934082031 C 451.8760681152344 369.3427734375 431.5357360839844 372.85479736328125 432.6595764160156 372.211669921875" fill="rgb(0, 0, 0)" opacity="0.9988508" stroke-width="1.0"/>
  </g>
</svg>
