<?xml version="1.0" ?>
<svg height="1024" version="1.1" width="1024" xmlns="http://www.w3.org/2000/svg">
  <defs/>
  <g>
    <path d="M 691.3150634765625 47.86783981323242 C 681.2845458984375 51.78806686401367 681.2647705078125 57.71138000488281 683.4208984375 64.20452117919922 C 683.97265625 72.16889190673828 682.69970703125 80.80992126464844 677.8761596679688 93.12749481201172 C 678.8726806640625 92.50972747802734 671.5598754882812 109.03816986083984 666.0419311523438 119.59370422363281 C 658.3931274414062 135.8231201171875 655.4165649414062 137.75767517089844 625.47265625 182.32298278808594 C 605.4730224609375 211.51560974121094 588.4783935546875 235.89126586914062 586.8480834960938 239.2030029296875 C 586.346435546875 243.46673583984375 585.58544921875 245.0499267578125 587.5071411132812 238.73399353027344 C 581.8748168945312 249.41232299804688 585.3134155273438 251.20790100097656 591.713134765625 248.29269409179688 C 590.2703857421875 249.22174072265625 597.0455932617188 246.27713012695312 601.0661010742188 242.49591064453125 C 604.8973388671875 241.2093505859375 627.9869384765625 219.44790649414062 655.041259765625 195.3226318359375 C 736.5059204101562 122.19647216796875 731.3316040039062 125.50727081298828 758.043701171875 107.61798095703125 C 774.5236206054688 97.56867980957031 773.1538696289062 89.22663879394531 764.3131713867188 80.35393524169922 C 754.2091064453125 68.01094055175781 743.7050170898438 62.06770324707031 722.8068237304688 54.11968994140625 C 705.1047973632812 46.27648162841797 695.4922485351562 45.965980529785156 691.3150634765625 47.86783981323242" fill="rgb(0, 0, 0)" opacity="0.9998686" stroke-width="1.0"/>
  </g>
</svg>
