<?xml version="1.0" ?>
<svg height="1024" version="1.1" width="1024" xmlns="http://www.w3.org/2000/svg">
  <defs/>
  <g>
    <path d="M 402.0975341796875 512.40380859375 C 399.05584716796875 512.049560546875 388.8923034667969 515.6968994140625 377.718505859375 518.958984375 C 349.4523620605469 527.6566162109375 305.8454284667969 538.0003051757812 264.88226318359375 544.8043212890625 C 260.81597900390625 545.1156616210938 259.8329162597656 544.96533203125 246.44126892089844 550.8550415039062 C 233.2591094970703 559.3029174804688 244.86280822753906 567.6726684570312 263.92938232421875 571.8197021484375 C 283.7140808105469 574.3392944335938 273.4506530761719 575.185302734375 301.8751220703125 569.187255859375 C 346.389404296875 560.5697631835938 393.9741516113281 552.7164306640625 442.4751892089844 546.4369506835938 C 458.682373046875 544.3233032226562 457.54876708984375 545.2564086914062 461.0041809082031 543.4243774414062 C 465.92230224609375 538.9447631835938 464.6433410644531 532.841064453125 455.7754821777344 526.0289916992188 C 441.6247863769531 515.3583374023438 444.2887268066406 518.4049682617188 431.63916015625 516.0291748046875 C 405.09991455078125 511.8004455566406 404.4914245605469 511.5528564453125 402.0975341796875 512.40380859375" fill="rgb(0, 0, 0)" opacity="1.0" stroke-width="1.0"/>
  </g>
</svg>
