<?xml version="1.0" ?>
<svg height="1024" version="1.1" width="1024" xmlns="http://www.w3.org/2000/svg">
  <defs/>
  <g>
    <path d="M 229.298828125 669.3722534179688 C 225.29444885253906 671.126220703125 226.70285034179688 682.7205810546875 233.41860961914062 699.4846801757812 C 238.39706420898438 713.7175903320312 242.6731719970703 728.9388427734375 243.42771911621094 754.4010009765625 C 244.98976135253906 785.712158203125 237.12228393554688 831.847900390625 224.19940185546875 851.49169921875 C 216.59588623046875 862.315185546875 215.8219451904297 867.299072265625 214.70635986328125 876.4913330078125 C 213.92233276367188 889.7901611328125 221.3629913330078 909.8013916015625 228.03733825683594 917.6544799804688 C 231.53138732910156 922.82763671875 241.09371948242188 929.8961791992188 243.9652557373047 929.4781494140625 C 248.56309509277344 929.2455444335938 252.0711212158203 926.7005615234375 258.4476623535156 918.0357666015625 C 279.26409912109375 893.4902954101562 320.2309265136719 853.79833984375 373.03924560546875 806.0787353515625 C 401.82147216796875 781.2202758789062 408.05059814453125 772.9525756835938 405.59674072265625 770.7789916992188 C 406.34576416015625 767.1234130859375 398.6640625 766.7256469726562 408.1733703613281 768.2387084960938 C 395.5334777832031 765.6525268554688 391.6524353027344 770.4536743164062 364.6835632324219 785.599853515625 C 315.3475036621094 813.9658813476562 285.0839538574219 829.6071166992188 279.30377197265625 829.0689697265625 C 275.7762145996094 827.5720825195312 273.1688537597656 823.7080078125 272.9648742675781 812.4482421875 C 272.8656311035156 812.4497680664062 278.9090881347656 749.3134765625 283.23370361328125 730.7058715820312 C 286.0685119628906 717.1815795898438 287.39599609375 714.454833984375 284.77374267578125 705.4844360351562 C 283.2939453125 699.7112426757812 270.576171875 685.0020141601562 263.7874450683594 680.72705078125 C 259.1053466796875 676.7990112304688 239.18576049804688 668.8616943359375 238.81690979003906 668.8884887695312 C 228.47557067871094 666.3497314453125 228.05911254882812 670.890380859375 229.298828125 669.3722534179688" fill="rgb(0, 0, 0)" opacity="0.99892914" stroke-width="1.0"/>
  </g>
</svg>
