<?xml version="1.0" ?>
<svg height="1024" version="1.1" width="1024" xmlns="http://www.w3.org/2000/svg">
  <defs/>
  <g>
    <path d="M 415.62664794921875 242.66818237304688 C 402.95172119140625 244.55422973632812 398.4590759277344 247.12831115722656 392.1876525878906 248.49334716796875 C 385.5863952636719 250.56703186035156 367.31451416015625 255.717529296875 352.319091796875 259.2008972167969 C 345.47650146484375 261.2095642089844 327.50244140625 265.888916015625 317.24383544921875 269.2272033691406 C 304.72137451171875 272.4085388183594 311.4654846191406 271.1919860839844 297.1195983886719 273.7548828125 C 265.3631896972656 278.5994567871094 231.9075927734375 287.98101806640625 223.35751342773438 291.1923828125 C 217.4999542236328 294.818359375 213.18148803710938 296.60809326171875 212.3807373046875 301.4309387207031 C 211.01382446289062 305.36212158203125 218.17628479003906 305.44482421875 212.4420928955078 304.2683410644531 C 223.4420166015625 310.9112854003906 229.53500366210938 307.9520568847656 277.8895263671875 299.6368408203125 C 294.4656677246094 296.682373046875 322.82476806640625 291.9346618652344 340.6868896484375 288.6750793457031 C 448.7120666503906 269.7413024902344 471.2800598144531 265.6749572753906 469.6764831542969 266.1397705078125 C 468.2133483886719 264.8695983886719 479.9236755371094 267.2684326171875 468.0817565917969 255.78221130371094 C 467.8224182128906 251.94248962402344 467.6495361328125 258.3029479980469 465.2023010253906 250.54347229003906 C 459.8166198730469 243.60206604003906 439.49896240234375 237.82667541503906 415.62664794921875 242.66818237304688" fill="rgb(0, 0, 0)" opacity="1.0" stroke-width="1.0"/>
  </g>
</svg>
