<?xml version="1.0" ?>
<svg height="1024" version="1.1" width="1024" xmlns="http://www.w3.org/2000/svg">
  <defs/>
  <g>
    <path d="M 823.287353515625 569.0935668945312 Q 779.5596313476562 571.8375244140625 623.4852294921875 595.3648071289062 Q 597.1281127929688 603.9984741210938 594.89599609375 581.1679077148438 Q 587.2418212890625 572.2263793945312 580.1725463867188 587.3663940429688 Q 573.9614868164062 604.0457153320312 574.4169921875 625.0249633789062 Q 576.4087524414062 652.3565673828125 589.8111572265625 646.1188354492188 Q 639.3822631835938 616.1727294921875 732.7594604492188 604.722900390625 Q 785.4200439453125 598.0281372070312 868.9530029296875 597.8653564453125 Q 898.0405883789062 600.8316650390625 894.1073608398438 629.0407104492188 Q 885.3173217773438 688.0853271484375 872.7864379882812 746.87158203125 Q 854.9485473632812 828.0840454101562 836.9692993164062 858.0172119140625 Q 829.064697265625 877.0842895507812 800.56298828125 874.6812133789062 Q 715.8395385742188 844.61083984375 740.3953247070312 870.9121704101562 Q 767.3125 898.8955078125 782.6224975585938 918.4590454101562 Q 797.4190673828125 936.5422973632812 808.6732788085938 960.681640625 Q 819.273681640625 972.6060791015625 860.0660400390625 941.0189208984375 Q 886.9918212890625 918.7591552734375 899.0721435546875 877.8826293945312 L 926.7732543945312 754.1590576171875 Q 942.7363891601562 645.1887817382812 967.4242553710938 613.0552978515625 Q 985.1744995117188 588.7017211914062 905.0791625976562 547.5488891601562 Q 897.3570556640625 541.3783569335938 823.287353515625 569.0935668945312" fill="rgb(0, 0, 0)" opacity="0.99841785" stroke-width="1.0"/>
  </g>
</svg>
