<?xml version="1.0" ?>
<svg height="1024" version="1.1" width="1024" xmlns="http://www.w3.org/2000/svg">
  <defs/>
  <g>
    <path d="M 257.418212890625 562.3929443359375 C 254.00404357910156 562.0873413085938 251.83912658691406 568.13232421875 247.65003967285156 585.5718383789062 C 241.9810791015625 611.1959838867188 233.60427856445312 627.3370361328125 220.6834716796875 647.5589599609375 C 206.33290100097656 669.4735107421875 185.2200469970703 694.2095947265625 157.6027069091797 719.9251708984375 C 136.7830810546875 740.201416015625 99.27867126464844 769.8222045898438 94.41543579101562 773.5421752929688 C 86.78609466552734 776.4118041992188 85.13532257080078 780.9160766601562 88.9931869506836 784.6256713867188 C 90.61713409423828 787.4647216796875 96.17219543457031 784.5575561523438 94.80644226074219 785.8403930664062 C 116.0615463256836 783.403076171875 149.57781982421875 763.3151245117188 192.51402282714844 729.0526123046875 C 223.81753540039062 704.1776733398438 250.5866241455078 680.2157592773438 260.3023681640625 664.8057861328125 C 269.8616027832031 653.42626953125 278.39959716796875 643.5912475585938 289.340087890625 635.1641235351562 C 294.7059631347656 631.1844482421875 299.3345031738281 629.868408203125 298.024658203125 623.083984375 C 297.8883361816406 625.4893798828125 299.2740173339844 630.44775390625 299.3766174316406 616.168212890625 C 298.2954406738281 608.1118774414062 290.6732177734375 589.0652465820312 275.248046875 575.1504516601562 C 263.06884765625 562.68505859375 258.50762939453125 561.6737670898438 257.418212890625 562.3929443359375" fill="rgb(0, 0, 0)" opacity="0.99964744" stroke-width="1.0"/>
  </g>
</svg>
