<?xml version="1.0" ?>
<svg height="1024" version="1.1" width="1024" xmlns="http://www.w3.org/2000/svg">
  <defs/>
  <g>
    <path d="M 348.6148681640625 646.803955078125 C 345.47918701171875 647.9558715820312 345.17755126953125 656.0343017578125 347.70599365234375 660.9542236328125 C 354.375732421875 672.0965576171875 360.0104064941406 674.704833984375 386.38775634765625 697.2125854492188 C 427.604248046875 731.7760620117188 454.56890869140625 754.1917114257812 468.1217346191406 771.0371704101562 C 480.68011474609375 783.628173828125 490.168701171875 786.8399658203125 496.6129150390625 781.9129638671875 C 502.0455322265625 778.5057983398438 503.56005859375 773.814453125 503.9896545410156 766.156982421875 C 504.8529968261719 757.6769409179688 499.1445007324219 735.78955078125 498.3316955566406 735.57421875 C 493.2054748535156 721.88720703125 464.26422119140625 703.1724853515625 428.1631774902344 684.6405639648438 C 415.42498779296875 679.1695556640625 414.8321838378906 677.2289428710938 404.2685546875 670.5767211914062 C 404.4205017089844 670.8159790039062 356.7514953613281 647.9422607421875 351.8688659667969 646.1619873046875 C 346.9286804199219 647.1594848632812 347.818359375 644.8543090820312 348.6148681640625 646.803955078125" fill="rgb(0, 0, 0)" opacity="0.99987406" stroke-width="1.0"/>
  </g>
</svg>
