<?xml version="1.0" ?>
<svg height="1024" version="1.1" width="1024" xmlns="http://www.w3.org/2000/svg">
  <defs/>
  <g>
    <path d="M 378.98065185546875 133.50338745117188 C 378.3275451660156 138.74484252929688 376.7845458984375 138.25778198242188 385.06915283203125 150.33685302734375 C 391.75860595703125 159.35667419433594 392.0824279785156 181.29322814941406 382.36578369140625 225.57183837890625 C 379.963134765625 239.67361450195312 374.9458312988281 259.12957763671875 376.47076416015625 259.48907470703125 C 375.2218933105469 264.3134460449219 376.6617126464844 273.78924560546875 385.4309997558594 269.9610595703125 C 389.302978515625 267.729736328125 395.6629943847656 262.0066833496094 398.745361328125 255.6588592529297 C 401.7645263671875 251.8415985107422 406.06103515625 239.78070068359375 412.2827453613281 224.03689575195312 C 419.81549072265625 205.77688598632812 418.7724304199219 204.9217071533203 429.14813232421875 187.27838134765625 C 433.77166748046875 178.80641174316406 439.8599853515625 169.28892517089844 437.9272766113281 167.12057495117188 C 438.71124267578125 165.75772094726562 431.240478515625 153.90440368652344 416.1898498535156 146.9285430908203 C 415.2771301269531 146.67604064941406 387.9226379394531 135.74278259277344 384.8534851074219 135.98953247070312 C 379.2299499511719 133.30506896972656 378.4352722167969 139.14385986328125 378.98065185546875 133.50338745117188" fill="rgb(0, 0, 0)" opacity="0.99816084" stroke-width="1.0"/>
  </g>
</svg>
