<?xml version="1.0" ?>
<svg height="1024" version="1.1" width="1024" xmlns="http://www.w3.org/2000/svg">
  <defs/>
  <g>
    <path d="M 481.6430969238281 235.57032775878906 C 469.2543029785156 238.87210083007812 468.4110412597656 243.33126831054688 467.6968078613281 248.781005859375 C 467.5992431640625 248.28587341308594 468.71783447265625 253.62838745117188 470.7829895019531 257.1570129394531 C 477.7252197265625 263.14617919921875 482.6499938964844 281.43603515625 484.3340759277344 305.2326965332031 C 485.4482421875 324.3948669433594 487.351806640625 452.6399841308594 487.8403015136719 623.9530029296875 L 487.97857666015625 752.071044921875 L 487.4416809082031 763.8562622070312 C 484.8079528808594 793.1735229492188 478.06768798828125 797.3591918945312 477.6905822753906 800.3646240234375 C 474.170166015625 802.7072143554688 471.34344482421875 803.4166259765625 466.6175231933594 804.004638671875 C 450.0355224609375 805.17626953125 441.515625 801.4684448242188 402.15191650390625 791.6361083984375 C 366.9445495605469 782.7880859375 366.64263916015625 781.197021484375 361.97174072265625 783.8377685546875 C 359.94219970703125 786.2651977539062 361.74530029296875 789.6436767578125 361.3659973144531 791.09033203125 C 364.0914001464844 800.89306640625 371.2437438964844 804.4772338867188 392.7392578125 821.1636352539062 C 428.3358459472656 849.3350830078125 460.635498046875 876.28271484375 484.09686279296875 898.6919555664062 C 491.7366638183594 904.7998046875 489.69525146484375 905.9651489257812 498.7138671875 908.7504272460938 C 511.84490966796875 908.3348999023438 519.459716796875 898.4292602539062 532.4932250976562 874.475830078125 C 541.94482421875 856.4797973632812 548.5430908203125 835.70849609375 551.03369140625 817.6279907226562 C 556.3399047851562 784.3709716796875 553.0239868164062 774.5636596679688 551.7269287109375 723.7465209960938 C 547.9774780273438 627.5765380859375 545.4139404296875 522.4354248046875 545.4498291015625 448.367431640625 C 545.1178588867188 375.2951965332031 549.421875 311.296875 548.8973999023438 313.1788635253906 C 550.4030151367188 299.5154724121094 554.0237426757812 284.3703308105469 552.5308227539062 280.4473876953125 C 553.1737670898438 281.88275146484375 552.0208129882812 270.52288818359375 550.7334594726562 268.28021240234375 C 545.8388671875 257.91748046875 539.9257202148438 255.65252685546875 524.8965454101562 244.50204467773438 C 516.251220703125 238.65133666992188 503.2009582519531 235.6094970703125 495.7226257324219 235.0291748046875 C 480.53985595703125 234.94131469726562 493.1729736328125 234.14013671875 481.6430969238281 235.57032775878906" fill="rgb(0, 0, 0)" opacity="0.9990515" stroke-width="1.0"/>
  </g>
</svg>
