<?xml version="1.0" ?>
<svg height="1024" version="1.1" width="1024" xmlns="http://www.w3.org/2000/svg">
  <defs/>
  <g>
    <path d="M 478.2195129394531 216.89840698242188 C 475.2600402832031 218.07196044921875 470.7951354980469 221.6015625 470.5793151855469 223.8386993408203 C 469.4443359375 224.69520568847656 466.6773376464844 233.3766632080078 468.7649230957031 243.4191131591797 C 470.40765380859375 259.17059326171875 467.4222106933594 268.9985656738281 466.8321533203125 274.0999450683594 C 463.4729309082031 293.57159423828125 452.39080810546875 323.58892822265625 448.51129150390625 332.2399597167969 C 448.11297607421875 332.27197265625 444.5969543457031 340.7345886230469 444.4980163574219 342.0106201171875 C 431.14691162109375 376.3520812988281 397.62274169921875 451.2935791015625 372.2630615234375 495.9622497558594 C 345.4977722167969 544.6084594726562 317.37628173828125 586.9212036132812 287.9889221191406 620.4447631835938 C 244.8341827392578 671.1809692382812 189.62889099121094 723.1660766601562 132.7706756591797 768.7935791015625 C 120.31348419189453 779.5042114257812 114.83900451660156 782.1972045898438 115.09934997558594 782.3046875 C 105.14921569824219 790.9821166992188 102.99789428710938 798.6351928710938 110.16130828857422 800.1905517578125 C 108.0376968383789 799.8792724609375 117.77706146240234 802.9851684570312 129.38816833496094 799.52880859375 C 146.13629150390625 794.33984375 157.10313415527344 786.9949340820312 174.58154296875 776.7508544921875 C 178.42718505859375 773.2965087890625 187.02806091308594 768.6707763671875 193.55360412597656 765.0132446289062 C 217.04920959472656 751.75439453125 245.36846923828125 731.4707641601562 269.1355285644531 710.3257446289062 C 293.12640380859375 690.0444946289062 326.4107666015625 655.1500854492188 350.25714111328125 624.9356079101562 C 399.55938720703125 564.2896118164062 453.0903625488281 475.03302001953125 488.4040222167969 397.4970703125 C 494.1382141113281 383.2917175292969 518.6116333007812 336.5244140625 528.1392822265625 318.7960205078125 C 531.64453125 312.8067626953125 536.6283569335938 303.1583251953125 538.7091064453125 302.5852355957031 C 545.4837646484375 294.9892578125 549.596435546875 287.0121154785156 548.0299682617188 276.2668762207031 C 546.1471557617188 271.49981689453125 538.3038330078125 255.39239501953125 518.0958251953125 235.8888397216797 C 512.3998413085938 230.58370971679688 507.04547119140625 224.7151336669922 502.95355224609375 222.97634887695312 C 493.8046569824219 216.424072265625 483.2178955078125 214.47784423828125 478.2195129394531 216.89840698242188" fill="rgb(0, 0, 0)" opacity="0.9989865" stroke-width="1.0"/>
  </g>
</svg>
