<?xml version="1.0" ?>
<svg height="1024" version="1.1" width="1024" xmlns="http://www.w3.org/2000/svg">
  <defs/>
  <g>
    <path d="M 663.523681640625 383.9265441894531 C 665.3082275390625 383.92724609375 669.2024536132812 379.77569580078125 661.0125732421875 384.8145751953125 C 650.1707153320312 387.05841064453125 615.1968994140625 392.7786560058594 574.4192504882812 392.47802734375 C 553.4755859375 392.0962219238281 532.7029418945312 390.97296142578125 501.61993408203125 386.22161865234375 C 486.5408020019531 382.68133544921875 473.7100830078125 384.75115966796875 466.7066650390625 393.0121154785156 C 460.61456298828125 398.9016418457031 464.6454772949219 409.2880859375 472.5255432128906 412.5067138671875 C 468.53253173828125 412.0535583496094 489.3080749511719 419.8893127441406 496.4438171386719 421.2972717285156 C 529.99658203125 430.2016906738281 577.6416625976562 433.8428649902344 639.7601928710938 433.95819091796875 C 657.6383666992188 432.48675537109375 661.466796875 435.1529541015625 667.8779296875 438.7380676269531 C 678.1423950195312 446.095703125 681.6680908203125 466.0674743652344 668.2783203125 499.08984375 C 668.0171508789062 498.4158630371094 666.2051391601562 508.3941650390625 661.8785400390625 525.7135009765625 C 649.2539672851562 578.5340576171875 637.1607055664062 622.56787109375 624.999755859375 657.6298828125 C 611.0131225585938 699.9074096679688 588.86376953125 744.452392578125 575.1146240234375 759.574951171875 C 570.7672729492188 765.2958374023438 560.807861328125 772.6957397460938 556.7533569335938 776.2815551757812 C 544.079345703125 785.12890625 529.1727905273438 787.28466796875 507.4038391113281 778.4446411132812 C 500.2818298339844 774.9295043945312 497.17669677734375 774.7979736328125 484.9339599609375 770.3603515625 C 473.0885314941406 766.1065673828125 459.5188293457031 761.3760986328125 450.7344055175781 757.71044921875 C 429.4159240722656 749.5137939453125 426.84814453125 745.9417114257812 414.0982971191406 746.8291015625 C 411.7249755859375 748.0958862304688 409.0000915527344 746.4186401367188 412.1783142089844 754.8528442382812 C 411.8507080078125 755.8755493164062 416.8809509277344 764.9906005859375 430.3312683105469 774.36083984375 C 463.60986328125 807.8990478515625 490.0210876464844 840.1740112304688 501.0435485839844 857.8971557617188 C 507.42596435546875 869.8120727539062 512.4722900390625 873.4370727539062 517.1495361328125 876.718017578125 C 520.1366577148438 877.5761108398438 520.9405517578125 879.5739135742188 531.3005981445312 880.0531005859375 C 544.0427856445312 879.505615234375 553.1607666015625 875.8837890625 569.9990234375 867.3688354492188 C 590.8402709960938 856.0496826171875 620.0242309570312 822.9757080078125 640.5490112304688 778.611328125 C 660.516357421875 737.3646850585938 685.279052734375 664.63427734375 717.0858154296875 557.1805419921875 C 728.103271484375 516.7540893554688 740.96630859375 495.96075439453125 755.0955810546875 480.8521423339844 C 766.1364135742188 472.5375061035156 768.9144897460938 468.5506591796875 771.66259765625 463.0655822753906 C 774.1690063476562 459.7501525878906 774.6404418945312 449.4853820800781 772.9520874023438 448.4123840332031 C 769.310546875 439.7277526855469 757.6821899414062 428.49462890625 732.7322387695312 409.3847961425781 C 712.9209594726562 395.4739990234375 698.6527099609375 384.21356201171875 692.210693359375 383.02593994140625 C 687.0472412109375 380.37640380859375 674.4818115234375 378.1992492675781 663.523681640625 383.9265441894531" fill="rgb(0, 0, 0)" opacity="0.999722" stroke-width="1.0"/>
  </g>
</svg>
