<?xml version="1.0" ?>
<svg height="1024" version="1.1" width="1024" xmlns="http://www.w3.org/2000/svg">
  <defs/>
  <g>
    <path d="M 777.259765625 149.84498596191406 C 779.079345703125 148.97537231445312 762.7883911132812 151.43759155273438 754.1211547851562 154.45333862304688 C 738.3939819335938 157.79991149902344 646.9693603515625 173.68121337890625 558.57421875 185.9923858642578 C 467.2112121582031 199.2689208984375 335.20672607421875 216.31350708007812 213.3225860595703 230.46510314941406 C 180.96307373046875 234.3631591796875 154.1209716796875 237.33250427246094 159.9011993408203 236.48284912109375 C 148.06871032714844 239.21205139160156 150.99647521972656 246.9778594970703 160.31619262695312 257.2530822753906 C 171.92520141601562 268.7003479003906 183.8992919921875 276.5220947265625 200.91932678222656 280.6762390136719 C 206.05398559570312 280.72021484375 201.33718872070312 282.3665466308594 218.97991943359375 282.2735290527344 C 232.94190979003906 281.68060302734375 233.4036865234375 280.6778869628906 253.85427856445312 275.6604919433594 C 318.33740234375 259.5010986328125 389.6865539550781 246.69822692871094 464.5788879394531 238.06114196777344 C 474.6529541015625 237.67337036132812 520.9331665039062 232.26004028320312 537.1103515625 230.58059692382812 C 585.416748046875 225.7783203125 663.2481689453125 222.64794921875 786.3693237304688 222.00930786132812 C 866.6570434570312 221.673828125 870.253173828125 222.8754425048828 879.3198852539062 220.15989685058594 C 890.5731201171875 216.9790802001953 894.3258056640625 208.75119018554688 892.5057373046875 201.1136474609375 C 889.9989624023438 190.8265380859375 875.0499877929688 179.42123413085938 851.8942260742188 166.7022247314453 C 825.524169921875 152.12261962890625 796.215087890625 147.043701171875 777.259765625 149.84498596191406" fill="rgb(0, 0, 0)" opacity="0.9997537" stroke-width="1.0"/>
  </g>
</svg>
