<?xml version="1.0" ?>
<svg height="1024" version="1.1" width="1024" xmlns="http://www.w3.org/2000/svg">
  <defs/>
  <g>
    <path d="M 504.49249267578125 195.93846130371094 Q 480.6908264160156 188.927734375 477.9361572265625 216.76016235351562 Q 482.2635498046875 250.6361541748047 465.1234130859375 302.1997985839844 L 451.8561706542969 324.2222900390625 Q 418.529052734375 369.2586975097656 382.5595397949219 424.2714538574219 Q 377.93902587890625 442.1993408203125 424.2724914550781 475.10772705078125 Q 450.5059509277344 478.4259338378906 469.0663146972656 465.6803894042969 Q 560.6395874023438 446.831298828125 669.45849609375 423.42938232421875 Q 707.1187133789062 418.92620849609375 696.4778442382812 460.6292419433594 Q 688.2721557617188 490.24169921875 672.7766723632812 549.5748901367188 L 650.1917724609375 623.1038208007812 Q 616.5576782226562 720.0156860351562 589.7164306640625 751.986328125 Q 563.3787841796875 787.78466796875 531.9529418945312 771.8499145507812 Q 503.0567321777344 754.8589477539062 461.7254333496094 723.947265625 Q 435.7298278808594 708.9172973632812 449.79241943359375 740.7359008789062 Q 464.8588562011719 762.5360717773438 486.36138916015625 806.0415649414062 Q 503.6716613769531 841.1458129882812 512.1944580078125 868.9284057617188 Q 524.8892211914062 902.1761474609375 576.5267333984375 877.4793701171875 Q 598.30224609375 867.2450561523438 627.3644409179688 828.6828002929688 Q 655.5944213867188 791.2088012695312 691.1370849609375 696.7109985351562 Q 727.795654296875 596.490234375 755.7412109375 508.6924133300781 Q 771.263427734375 470.6437683105469 796.9320068359375 447.3973693847656 Q 820.0353393554688 424.4184875488281 781.6455688476562 399.3486328125 Q 736.0762329101562 368.42633056640625 713.4898071289062 360.2381286621094 Q 693.8287353515625 355.4843444824219 676.5186157226562 366.33184814453125 Q 601.6969604492188 399.0577087402344 497.283935546875 401.86859130859375 Q 468.51171875 409.47161865234375 473.61956787109375 390.8759765625 Q 515.3807983398438 335.7446594238281 562.409912109375 277.99578857421875 Q 568.3274536132812 264.59130859375 556.0825805664062 244.52700805664062 Q 541.133056640625 222.51747131347656 513.622802734375 200.16575622558594 L 504.49249267578125 195.93846130371094" fill="rgb(0, 0, 0)" opacity="0.9997748" stroke-width="1.0"/>
  </g>
</svg>
