<?xml version="1.0" ?>
<svg height="1024" version="1.1" width="1024" xmlns="http://www.w3.org/2000/svg">
  <defs/>
  <g>
    <path d="M 531.2607421875 375.6888427734375 C 522.6583251953125 376.7945556640625 521.3519287109375 383.5946960449219 524.4517211914062 389.2978515625 C 532.015625 401.78045654296875 539.720458984375 405.3114013671875 560.3602905273438 418.0066223144531 C 605.1543579101562 446.15093994140625 647.8128662109375 475.3982849121094 691.7103271484375 507.17626953125 C 707.8687133789062 518.658447265625 719.6709594726562 528.2706909179688 722.6663208007812 530.1825561523438 C 732.7825927734375 537.7697143554688 741.7483520507812 540.133056640625 749.2218627929688 541.150146484375 C 758.9886474609375 539.9857788085938 762.8338012695312 534.4873657226562 767.2952880859375 523.5364990234375 C 768.780029296875 514.4110717773438 768.1760864257812 510.7112731933594 765.0861206054688 498.3450012207031 C 760.6932983398438 484.991943359375 752.5813598632812 468.1691589355469 747.8738403320312 461.0815734863281 C 724.2708129882812 426.0493469238281 663.7960205078125 399.03570556640625 565.6915283203125 380.0199890136719 C 541.2672119140625 375.3483581542969 535.5076293945312 374.47430419921875 531.2607421875 375.6888427734375" fill="rgb(0, 0, 0)" opacity="0.99935627" stroke-width="1.0"/>
  </g>
</svg>
