<?xml version="1.0" ?>
<svg height="1024" version="1.1" width="1024" xmlns="http://www.w3.org/2000/svg">
  <defs/>
  <g>
    <path d="M 449.63824462890625 99.03288269042969 C 440.45831298828125 101.75517272949219 429.7900085449219 110.35707092285156 432.2529296875 108.91968536376953 C 427.93255615234375 113.71871948242188 430.45159912109375 112.65338134765625 429.3747863769531 113.80644989013672 C 427.6537170410156 118.07318115234375 428.4132995605469 124.79938507080078 432.98406982421875 131.5556640625 C 449.1553649902344 155.13072204589844 458.15045166015625 192.01901245117188 461.0940246582031 238.1043243408203 C 462.4554443359375 269.44830322265625 461.79443359375 285.6452331542969 462.08599853515625 318.44500732421875 C 461.89410400390625 397.36761474609375 463.376220703125 586.4156494140625 465.09271240234375 707.1419067382812 C 466.2242126464844 777.7305297851562 465.11541748046875 774.414794921875 468.2348327636719 781.669677734375 C 472.668212890625 788.4403686523438 480.8998718261719 793.930419921875 496.6383056640625 791.2933349609375 C 496.77557373046875 790.7647094726562 502.918701171875 790.1845703125 501.8084411621094 789.6400146484375 C 511.2982177734375 787.0260009765625 518.3392944335938 778.0032958984375 519.8573608398438 770.0032348632812 C 520.03662109375 771.3316650390625 523.2257690429688 585.5153198242188 525.0160522460938 451.930419921875 C 524.4872436523438 334.0061340332031 528.2147216796875 284.2277526855469 531.7742309570312 246.59767150878906 C 535.1871337890625 210.89756774902344 541.8829956054688 178.6615447998047 544.163818359375 175.9122772216797 C 551.8541870117188 159.01806640625 549.5870361328125 148.05274963378906 539.9229125976562 138.97474670410156 C 525.31982421875 127.78872680664062 495.7051696777344 108.12909698486328 468.5868225097656 99.1893081665039 C 462.51751708984375 97.0338363647461 458.5498352050781 96.6092758178711 449.63824462890625 99.03288269042969" fill="rgb(0, 0, 0)" opacity="0.999951" stroke-width="1.0"/>
  </g>
</svg>
