<?xml version="1.0" ?>
<svg height="1024" version="1.1" width="1024" xmlns="http://www.w3.org/2000/svg">
  <defs/>
  <g>
    <path d="M 481.4747009277344 74.63795471191406 C 475.87139892578125 76.22054290771484 471.8726806640625 81.04590606689453 472.4829406738281 87.74483489990234 C 473.812744140625 93.19109344482422 470.8527526855469 88.37169647216797 480.67010498046875 106.47349548339844 C 492.6693115234375 129.41964721679688 500.2513122558594 155.93853759765625 502.6622009277344 186.3896484375 C 503.7110290527344 221.81500244140625 503.76251220703125 303.8778076171875 500.5511779785156 376.7610168457031 C 495.791015625 458.7161560058594 485.2300109863281 561.1171875 470.823974609375 615.5031127929688 C 470.7578125 622.3281860351562 450.6338195800781 671.7557373046875 445.96636962890625 680.20947265625 C 413.49639892578125 744.4614868164062 353.73388671875 789.8184204101562 244.91978454589844 833.7499389648438 C 220.26419067382812 843.787841796875 189.1027069091797 854.7930297851562 160.87704467773438 863.7871704101562 C 147.92709350585938 867.534423828125 142.749267578125 869.4719848632812 140.5057830810547 871.9088134765625 C 138.72128295898438 872.0431518554688 139.27503967285156 876.2908325195312 139.81448364257812 872.2592163085938 C 134.3231964111328 877.4036865234375 142.7772979736328 881.1157836914062 146.28407287597656 881.471435546875 C 160.15626525878906 887.19140625 188.61373901367188 885.9822998046875 235.606689453125 874.9307861328125 C 279.9168395996094 866.4039916992188 313.0928039550781 854.8696899414062 343.93170166015625 840.1477661132812 C 400.366455078125 812.93017578125 449.48272705078125 771.7308959960938 482.94390869140625 721.3502197265625 C 486.18072509765625 717.5980834960938 508.7867431640625 670.7435302734375 510.8577575683594 665.397216796875 C 528.2596435546875 617.1531372070312 538.4503173828125 564.288818359375 542.1995239257812 500.4114685058594 C 544.3004760742188 468.7202453613281 547.6963500976562 421.3311767578125 551.5872802734375 384.60748291015625 C 552.9219360351562 365.18438720703125 557.2005004882812 317.1731262207031 556.1668701171875 313.8298645019531 C 557.9168090820312 245.5315704345703 568.3995361328125 190.84686279296875 586.9077758789062 148.0957794189453 C 593.0586547851562 134.8102569580078 593.4757080078125 131.07684326171875 591.9738159179688 122.66106414794922 C 590.9791870117188 120.22181701660156 587.7210083007812 112.10845184326172 583.82763671875 110.24836730957031 C 559.6279907226562 89.09861755371094 503.77850341796875 67.46745300292969 481.4747009277344 74.63795471191406" fill="rgb(0, 0, 0)" opacity="0.99985784" stroke-width="1.0"/>
  </g>
</svg>
