<?xml version="1.0" ?>
<svg height="1024" version="1.1" width="1024" xmlns="http://www.w3.org/2000/svg">
  <defs/>
  <g>
    <path d="M 366.8661804199219 133.64488220214844 C 358.7920227050781 135.24850463867188 354.99609375 140.1134033203125 353.7823486328125 142.5470733642578 C 349.2900695800781 147.97293090820312 350.0021057128906 155.4906005859375 359.30169677734375 163.26687622070312 C 374.4348449707031 180.5671844482422 387.5224609375 205.7161102294922 388.2379150390625 257.087646484375 C 387.03826904296875 280.2166442871094 391.7089538574219 307.2578430175781 387.4154357910156 468.5009765625 C 385.7628173828125 540.511962890625 385.66998291015625 546.4491577148438 386.59722900390625 600.2432861328125 C 388.77813720703125 684.2584228515625 393.1929931640625 727.5975952148438 400.90234375 760.7866821289062 C 407.10845947265625 780.89111328125 407.51739501953125 782.330078125 415.58978271484375 790.5396728515625 C 439.4798278808594 815.0614013671875 486.5038146972656 830.5623779296875 559.43359375 835.230224609375 C 603.7589721679688 837.5411376953125 639.478271484375 837.3494873046875 675.342041015625 834.5770874023438 C 716.0447387695312 831.2559814453125 751.2759399414062 823.4835205078125 777.8280639648438 813.1974487304688 C 790.837646484375 807.4375610351562 793.5745239257812 806.961181640625 793.0030517578125 806.1773681640625 C 805.02294921875 797.6319580078125 805.5122680664062 788.6732788085938 802.212646484375 781.3768920898438 C 799.7572021484375 773.2017211914062 791.1283569335938 763.7984619140625 780.826904296875 758.87890625 C 760.9674682617188 748.9423217773438 745.9141235351562 744.8736572265625 732.0848999023438 745.5414428710938 C 720.8170166015625 746.91748046875 717.24560546875 745.2230224609375 703.05224609375 755.8485107421875 C 682.6737060546875 767.84619140625 636.9959716796875 776.5789794921875 554.9492797851562 781.347412109375 C 523.8256225585938 783.45947265625 492.8110046386719 779.4331665039062 471.44073486328125 768.2435302734375 C 460.7293701171875 762.5036010742188 450.1047668457031 752.6295166015625 447.5516357421875 745.2785034179688 C 434.58489990234375 718.2217407226562 429.912841796875 655.2064208984375 431.87615966796875 562.0097045898438 C 432.9732666015625 529.2545166015625 433.43438720703125 507.168212890625 434.1392822265625 470.4375915527344 C 436.1265563964844 323.52850341796875 447.2557678222656 245.42724609375 462.941162109375 217.31016540527344 C 471.6500244140625 203.74363708496094 471.2332458496094 193.63819885253906 469.9691467285156 189.31228637695312 C 469.0181579589844 183.45562744140625 464.9789733886719 176.93858337402344 457.44879150390625 170.01792907714844 C 445.6170654296875 160.9559326171875 412.7513427734375 139.21372985839844 392.84674072265625 134.7079315185547 C 387.9558410644531 133.87673950195312 372.9984436035156 131.0650634765625 366.8661804199219 133.64488220214844" fill="rgb(0, 0, 0)" opacity="1.0" stroke-width="1.0"/>
  </g>
</svg>
