<?xml version="1.0" ?>
<svg height="1024" version="1.1" width="1024" xmlns="http://www.w3.org/2000/svg">
  <defs/>
  <g>
    <path d="M 831.9700317382812 727.1174926757812 C 834.8222045898438 726.1069946289062 824.3899536132812 727.8714599609375 814.316162109375 730.5591430664062 C 801.177978515625 733.6723022460938 724.8142700195312 745.6517944335938 652.9927978515625 753.4619140625 C 595.3619384765625 760.2523193359375 484.54595947265625 770.49267578125 450.8211669921875 773.1952514648438 C 399.94635009765625 776.5682983398438 332.07177734375 782.5838623046875 306.3980712890625 786.4129638671875 C 264.2063903808594 791.764892578125 234.09571838378906 793.5994873046875 179.83999633789062 794.3638305664062 C 130.37725830078125 794.6566772460938 128.89813232421875 791.3930053710938 121.43865203857422 801.051025390625 C 117.69071197509766 809.3452758789062 120.9584732055664 818.29736328125 130.80616760253906 829.333251953125 C 141.9210205078125 841.3198852539062 162.8355255126953 852.8667602539062 178.12132263183594 857.01806640625 C 197.34841918945312 863.076171875 220.26951599121094 863.6441040039062 244.1943359375 856.3179321289062 C 279.26824951171875 848.16650390625 328.9764099121094 839.3573608398438 408.7949523925781 829.9393920898438 C 466.8883972167969 822.1616821289062 515.6617431640625 818.5078735351562 535.7666015625 817.8283081054688 C 567.4652099609375 817.2361450195312 594.8466186523438 815.03759765625 617.6116333007812 813.4450073242188 C 656.5634155273438 809.77880859375 681.8548583984375 808.8387451171875 706.177978515625 807.8698120117188 C 773.975341796875 805.9081420898438 838.6494140625 809.3796997070312 896.0891723632812 816.9476928710938 C 917.0968017578125 819.8391723632812 924.1754760742188 821.2083740234375 936.7095336914062 817.6744995117188 C 948.1727294921875 813.9619140625 950.1500244140625 800.3804321289062 947.3667602539062 794.7319946289062 C 946.5491333007812 788.3259887695312 932.7848510742188 777.3556518554688 922.1185913085938 768.611083984375 C 899.939208984375 750.6248168945312 864.7490234375 730.6995239257812 854.546630859375 727.4886474609375 C 846.7508544921875 724.8975830078125 831.6204223632812 726.4031372070312 831.9700317382812 727.1174926757812" fill="rgb(0, 0, 0)" opacity="1.0" stroke-width="1.0"/>
  </g>
</svg>
