<?xml version="1.0" ?>
<svg height="1024" version="1.1" width="1024" xmlns="http://www.w3.org/2000/svg">
  <defs/>
  <g>
    <path d="M 772.6151123046875 384.6647644042969 C 768.5398559570312 385.44830322265625 763.0681762695312 386.6219787597656 764.01025390625 386.09320068359375 C 764.2474975585938 386.17962646484375 753.8688354492188 388.44891357421875 740.2171020507812 392.94964599609375 C 707.4518432617188 402.5784912109375 627.10107421875 424.4033203125 507.1476745605469 455.9278259277344 C 477.5460205078125 463.6670227050781 449.7906188964844 471.31512451171875 447.54241943359375 471.507080078125 C 447.6462707519531 470.6864929199219 437.4571838378906 473.9036560058594 435.2247619628906 475.3504333496094 C 437.08245849609375 475.7271728515625 421.29473876953125 478.8918762207031 404.3079528808594 482.31817626953125 C 361.2332763671875 491.3145751953125 317.4398498535156 501.8521728515625 285.2684326171875 509.95733642578125 C 240.1972198486328 522.3734741210938 227.21109008789062 525.145263671875 202.99911499023438 530.1634521484375 C 178.5392608642578 535.1389770507812 144.56605529785156 541.0657958984375 118.09676361083984 544.7694091796875 C 100.67371368408203 547.2540283203125 94.88810729980469 548.632568359375 96.78372955322266 547.9130249023438 C 90.61009216308594 551.2142944335938 88.60250854492188 553.282958984375 87.95658111572266 561.0755004882812 C 89.21930694580078 570.8899536132812 97.1191177368164 578.4401245117188 110.92377471923828 586.8939819335938 C 120.47297668457031 592.5877075195312 144.0928192138672 600.9725952148438 161.48355102539062 605.5316772460938 C 169.04144287109375 608.9556884765625 180.7818145751953 608.7011108398438 195.02964782714844 599.517333984375 C 232.02035522460938 581.7266235351562 297.6294250488281 560.3782348632812 381.1553649902344 538.317138671875 C 394.908447265625 534.7020263671875 418.5459899902344 528.7802124023438 433.45831298828125 524.7974243164062 C 495.72198486328125 507.6051940917969 541.4009399414062 497.3304748535156 582.8556518554688 489.2540283203125 C 671.4624633789062 471.83984375 758.5723266601562 461.4846496582031 849.267333984375 457.5340576171875 C 868.5836791992188 456.8664855957031 884.9088134765625 457.8039245605469 893.7200317382812 448.8936462402344 C 895.3505859375 446.7817077636719 897.669189453125 441.4456481933594 896.564208984375 434.0978698730469 C 894.267333984375 425.17144775390625 889.5545654296875 421.3741149902344 878.2247924804688 414.32659912109375 C 856.7515869140625 400.52679443359375 834.0015258789062 390.7819519042969 812.598388671875 386.4726867675781 C 801.5892333984375 384.2605285644531 788.3640747070312 383.17572021484375 772.6151123046875 384.6647644042969" fill="rgb(0, 0, 0)" opacity="0.99922055" stroke-width="1.0"/>
  </g>
</svg>
