<?xml version="1.0" ?>
<svg height="1024" version="1.1" width="1024" xmlns="http://www.w3.org/2000/svg">
  <defs/>
  <g>
    <path d="M 715.203369140625 280.5707092285156 C 690.6583862304688 282.6188659667969 691.2073974609375 284.23724365234375 621.0953979492188 305.68609619140625 C 561.8060913085938 324.71112060546875 519.3925170898438 336.7322692871094 491.0955505371094 341.75689697265625 C 490.46026611328125 342.1252746582031 473.8504638671875 345.63836669921875 457.85467529296875 349.0306396484375 C 396.5431823730469 361.3463134765625 338.4120788574219 369.8453063964844 269.5228576660156 376.6959533691406 C 238.82534790039062 379.49615478515625 234.8260040283203 379.62567138671875 224.88868713378906 383.8916931152344 C 214.0946502685547 389.07025146484375 219.7682647705078 398.222412109375 240.26609802246094 408.2207946777344 C 254.18719482421875 415.4013977050781 274.1904602050781 420.5118103027344 288.2101745605469 421.78857421875 C 322.100341796875 424.6321105957031 335.02813720703125 419.9985656738281 368.30816650390625 414.00921630859375 C 387.02215576171875 410.28472900390625 417.54833984375 404.3834228515625 438.9338684082031 400.4241943359375 C 460.55230712890625 396.41748046875 508.1381530761719 387.6231994628906 542.359130859375 380.94873046875 C 576.7633666992188 374.0584716796875 619.521240234375 366.1086730957031 637.5979614257812 362.5627136230469 C 691.1707153320312 352.5455017089844 688.92626953125 353.2366638183594 724.0968627929688 344.7553405761719 C 772.9557495117188 331.7266540527344 782.99169921875 326.5223388671875 787.3873901367188 316.99456787109375 C 792.556396484375 305.1004638671875 779.101806640625 294.1026916503906 755.621826171875 285.8317565917969 C 743.7581176757812 280.8739013671875 726.4199829101562 280.161376953125 715.203369140625 280.5707092285156" fill="rgb(0, 0, 0)" opacity="1.0" stroke-width="1.0"/>
  </g>
</svg>
