<?xml version="1.0" ?>
<svg height="1024" version="1.1" width="1024" xmlns="http://www.w3.org/2000/svg">
  <defs/>
  <g>
    <path d="M 801.9969482421875 117.0274429321289 C 801.8308715820312 117.12640380859375 784.7794799804688 119.78418731689453 784.0360107421875 121.2627182006836 C 773.7941284179688 123.67571258544922 706.1151123046875 136.04290771484375 635.7437133789062 145.9347686767578 C 569.9439086914062 155.3855743408203 506.468994140625 163.853271484375 405.6402282714844 175.3616485595703 C 237.28924560546875 195.10743713378906 154.9125518798828 203.82647705078125 129.79405212402344 204.91346740722656 C 108.64730834960938 203.7315216064453 104.74978637695312 207.02735900878906 101.77519989013672 211.09153747558594 C 95.88758087158203 221.9154815673828 104.95323944091797 235.13832092285156 122.39061737060547 247.63894653320312 C 131.69085693359375 254.56666564941406 152.00311279296875 263.7372741699219 169.8026885986328 270.2090148925781 C 175.73284912109375 272.5876770019531 184.8866729736328 274.454833984375 203.49441528320312 266.8021240234375 C 213.6405487060547 262.59228515625 240.62356567382812 256.8085021972656 271.7574768066406 250.9993133544922 C 286.65545654296875 248.68638610839844 300.1224670410156 245.7293701171875 311.1376037597656 242.73440551757812 C 368.0567321777344 229.9873504638672 415.7680969238281 221.8490447998047 493.2347106933594 214.5795135498047 C 604.591796875 203.9700164794922 692.7326049804688 197.2201690673828 758.3175048828125 194.82870483398438 C 775.0170288085938 194.2766571044922 809.3626708984375 193.486083984375 829.0907592773438 195.1160125732422 C 842.6786499023438 195.21340942382812 873.4742431640625 196.88027954101562 909.5704345703125 196.438720703125 L 918.718994140625 196.12657165527344 L 925.9028930664062 195.2933807373047 C 931.6271362304688 191.5599822998047 928.5352172851562 192.74520874023438 930.6270751953125 188.05584716796875 C 932.7950439453125 178.37574768066406 929.3568115234375 170.8334503173828 921.4074096679688 163.57373046875 C 896.32080078125 141.7520294189453 867.7672119140625 124.30145263671875 838.4699096679688 118.30599975585938 C 825.2017822265625 116.40436553955078 818.821044921875 115.07905578613281 801.9969482421875 117.0274429321289" fill="rgb(0, 0, 0)" opacity="0.9992848" stroke-width="1.0"/>
  </g>
</svg>
