<?xml version="1.0" ?>
<svg height="1024" version="1.1" width="1024" xmlns="http://www.w3.org/2000/svg">
  <defs/>
  <g>
    <path d="M 501.22711181640625 73.8351058959961 Q 464.446044921875 69.76375579833984 474.863037109375 96.21501922607422 Q 503.3138427734375 142.804443359375 503.4940490722656 207.9148406982422 L 502.17449951171875 353.35748291015625 L 494.627685546875 459.65673828125 L 485.6061096191406 536.8641357421875 Q 472.834716796875 623.90234375 459.6473083496094 647.4463500976562 Q 444.88214111328125 691.1376953125 416.8802795410156 724.1362915039062 Q 397.7642822265625 748.593017578125 356.663818359375 777.2213134765625 L 325.9356689453125 796.0073852539062 Q 249.57357788085938 837.0162963867188 147.42288208007812 867.883544921875 Q 133.02122497558594 874.4590454101562 140.66586303710938 879.4644165039062 Q 156.42344665527344 887.3853759765625 189.36911010742188 883.548583984375 Q 264.07049560546875 871.98974609375 313.8583068847656 853.153076171875 Q 372.4828186035156 830.4205932617188 417.5205993652344 793.22021484375 Q 455.6133728027344 761.8649291992188 481.6155090332031 723.3815307617188 Q 515.6224365234375 666.8796997070312 528.6035766601562 604.1688842773438 L 537.2661743164062 557.3189697265625 Q 554.2064208984375 360.63946533203125 559.4223022460938 258.8212890625 Q 568.930419921875 183.57510375976562 591.635498046875 137.2705841064453 Q 603.4879150390625 104.55677032470703 514.610107421875 76.14283752441406 L 501.22711181640625 73.8351058959961" fill="rgb(0, 0, 0)" opacity="1.0" stroke-width="1.0"/>
  </g>
</svg>
