<?xml version="1.0" ?>
<svg height="1024" version="1.1" width="1024" xmlns="http://www.w3.org/2000/svg">
  <defs/>
  <g>
    <path d="M 367.2411804199219 133.07408142089844 Q 341.86517333984375 142.9024200439453 356.7576904296875 161.71131896972656 Q 390.6089172363281 188.4176025390625 389.59490966796875 290.6505432128906 L 386.0822448730469 566.3103637695312 Q 387.75177001953125 722.6439208984375 403.71881103515625 769.7819213867188 Q 407.30047607421875 788.090087890625 432.8087158203125 804.2215576171875 Q 459.0569763183594 820.9851684570312 508.53594970703125 829.6596069335938 Q 563.5681762695312 838.5595703125 642.7022094726562 836.4117431640625 Q 704.6128540039062 834.3477783203125 748.6317138671875 822.494873046875 Q 799.7676391601562 809.05078125 803.0951538085938 794.3048706054688 Q 807.203369140625 776.9679565429688 785.1964111328125 761.2379150390625 Q 739.4750366210938 736.0349731445312 708.8292236328125 751.1470336914062 Q 696.910888671875 763.9985961914062 643.4473876953125 772.869873046875 Q 581.4889526367188 781.075439453125 536.5904541015625 781.9754028320312 Q 479.91632080078125 780.5836791992188 456.3370361328125 757.2532348632812 Q 437.6278381347656 742.61474609375 433.21661376953125 664.6566162109375 Q 428.8644104003906 638.0176391601562 436.04022216796875 398.4143981933594 Q 442.2496032714844 247.44415283203125 465.7043151855469 212.40000915527344 Q 484.4344177246094 180.21466064453125 433.1806945800781 154.1053924560547 Q 396.85137939453125 129.52374267578125 367.2411804199219 133.07408142089844" fill="rgb(0, 0, 0)" opacity="1.0" stroke-width="1.0"/>
  </g>
</svg>
