<?xml version="1.0" ?>
<svg height="1024" version="1.1" width="1024" xmlns="http://www.w3.org/2000/svg">
  <defs/>
  <g>
    <path d="M 605.1961059570312 426.6837463378906 C 577.4109497070312 429.716552734375 569.4605712890625 431.6544189453125 502.2394714355469 445.29144287109375 C 458.03619384765625 454.200439453125 401.82696533203125 465.0811462402344 376.00653076171875 470.0286560058594 C 348.4576721191406 475.2108154296875 324.70361328125 480.0641784667969 325.0863342285156 479.7509765625 C 320.2147521972656 481.4607238769531 320.40093994140625 481.996826171875 318.1983337402344 483.400390625 C 317.45025634765625 488.3749084472656 316.24639892578125 485.72943115234375 318.3053283691406 491.72357177734375 C 320.43524169921875 497.1596374511719 329.14996337890625 506.17266845703125 333.6204528808594 509.1327819824219 C 352.1302795410156 521.9259033203125 379.19598388671875 518.0337524414062 407.59185791015625 514.1176147460938 C 489.7780456542969 503.9028625488281 586.3635864257812 492.65863037109375 665.0470581054688 485.8897705078125 C 689.1074829101562 483.51025390625 695.6270751953125 483.0851745605469 700.3683471679688 480.71514892578125 C 707.0032348632812 478.3961486816406 712.6717529296875 474.8166809082031 711.8875732421875 467.1044006347656 C 708.3468627929688 452.2359924316406 684.7415771484375 433.8493957519531 652.8607177734375 427.2566223144531 C 633.1661987304688 424.8832092285156 626.2626953125 425.2020263671875 605.1961059570312 426.6837463378906" fill="rgb(0, 0, 0)" opacity="0.9988739" stroke-width="1.0"/>
  </g>
</svg>
