<?xml version="1.0" ?>
<svg height="1024" version="1.1" width="1024" xmlns="http://www.w3.org/2000/svg">
  <defs/>
  <g>
    <path d="M 664.9873046875 176.12612915039062 C 637.5562744140625 178.40402221679688 606.826416015625 185.25299072265625 563.1338500976562 198.31100463867188 C 536.3930053710938 204.2842254638672 421.7543640136719 226.24977111816406 336.8486022949219 232.17715454101562 C 325.0179138183594 232.96627807617188 316.879150390625 233.6087646484375 312.04156494140625 235.4148406982422 C 307.1710510253906 236.04336547851562 300.0756530761719 239.7916259765625 300.25616455078125 244.747802734375 C 299.2667236328125 247.01429748535156 306.21807861328125 257.7345275878906 316.65045166015625 262.30517578125 C 350.56103515625 278.8267822265625 383.7650146484375 284.8123779296875 421.5281677246094 278.3330383300781 C 423.9241638183594 277.5376892089844 460.0245361328125 271.85565185546875 499.0595397949219 265.83892822265625 C 678.7717895507812 236.83563232421875 682.1527099609375 237.19674682617188 719.6787109375 226.61651611328125 C 727.5170288085938 223.3220977783203 728.2152709960938 223.07066345214844 730.9833374023438 219.9769287109375 C 741.3250122070312 206.71466064453125 735.8444213867188 197.77545166015625 718.7243041992188 188.15304565429688 C 697.5029296875 178.22482299804688 688.8795166015625 176.35073852539062 679.0037231445312 176.1051483154297 C 666.1336669921875 175.17303466796875 646.6643676757812 178.84906005859375 664.9873046875 176.12612915039062" fill="rgb(0, 0, 0)" opacity="1.0" stroke-width="1.0"/>
  </g>
</svg>
