<?xml version="1.0" ?>
<svg height="1024" version="1.1" width="1024" xmlns="http://www.w3.org/2000/svg">
  <defs/>
  <g>
    <path d="M 667.3218994140625 189.502197265625 L 551.2960815429688 219.54237365722656 L 468.87042236328125 234.1357421875 Q 383.5035400390625 245.3844451904297 322.0159912109375 243.8769073486328 Q 294.60186767578125 250.79347229003906 340.5460510253906 282.4848327636719 Q 359.0246887207031 293.66131591796875 387.762939453125 288.4983825683594 Q 555.2405395507812 251.63140869140625 627.48291015625 244.55001831054688 Q 677.2593383789062 237.55076599121094 682.068115234375 250.6383819580078 Q 687.90673828125 264.9273376464844 680.9464111328125 295.9047546386719 Q 640.1922607421875 537.2205200195312 594.4866333007812 773.2935180664062 Q 618.5927734375 799.3335571289062 656.3530883789062 770.2390747070312 Q 675.0433959960938 660.455810546875 698.5242919921875 541.7468872070312 Q 726.1367797851562 403.41632080078125 748.9125366210938 322.1767883300781 Q 775.530517578125 279.00445556640625 780.1471557617188 276.85418701171875 Q 798.1615600585938 250.23007202148438 720.3597412109375 199.4012451171875 Q 706.3331909179688 180.8155517578125 667.3218994140625 189.502197265625" fill="rgb(0, 0, 0)" opacity="0.9985677" stroke-width="1.0"/>
  </g>
</svg>
