<?xml version="1.0" ?>
<svg height="1024" version="1.1" width="1024" xmlns="http://www.w3.org/2000/svg">
  <defs/>
  <g>
    <path d="M 295.4014587402344 328.8155517578125 Q 255.24282836914062 312.4492492675781 258.352294921875 338.05548095703125 Q 270.7108459472656 362.03826904296875 267.8406066894531 407.1706237792969 Q 262.8096923828125 461.8353271484375 251.28451538085938 502.0641784667969 Q 226.4392852783203 534.1685180664062 220.02645874023438 540.6229858398438 Q 200.78878784179688 564.5671997070312 260.7506103515625 599.6827392578125 Q 292.237548828125 582.523681640625 318.4690246582031 572.1084594726562 Q 393.6541748046875 543.4097290039062 507.62860107421875 525.6090087890625 Q 594.5645751953125 512.5119018554688 647.9378662109375 509.0873718261719 Q 704.2440795898438 505.1831970214844 697.60302734375 566.5293579101562 Q 697.0878295898438 574.8350830078125 680.7806396484375 649.2062377929688 L 660.4462280273438 722.6866455078125 Q 642.5714721679688 779.1171264648438 636.9254150390625 794.9390258789062 Q 625.3394775390625 820.0401000976562 605.1527709960938 830.9405517578125 Q 559.8433837890625 821.578125 498.4067687988281 797.684326171875 Q 483.3609313964844 797.4683227539062 498.5287780761719 819.57763671875 Q 547.8740844726562 872.9561157226562 567.7843627929688 918.4917602539062 Q 584.5433959960938 948.8692016601562 607.1054077148438 937.7464599609375 Q 638.9170532226562 918.0242309570312 659.2726440429688 896.5651245117188 Q 686.2587280273438 869.03173828125 698.6503295898438 835.50537109375 L 713.9435424804688 776.0953979492188 Q 738.6651611328125 662.1824951171875 754.7088012695312 583.1796875 Q 765.9344482421875 552.0889892578125 796.9030151367188 518.9697265625 Q 757.0612182617188 480.2469482421875 702.333740234375 463.3540344238281 Q 587.569580078125 480.3486022949219 459.4259033203125 502.072509765625 Q 399.3890686035156 511.8598937988281 298.93841552734375 535.3966064453125 Q 294.0341491699219 528.78076171875 309.8610534667969 456.98272705078125 Q 318.1440124511719 413.2613525390625 334.568115234375 372.9324035644531 Q 340.710205078125 346.1046447753906 278.16571044921875 321.2206726074219 L 295.4014587402344 328.8155517578125" fill="rgb(0, 0, 0)" opacity="0.9999227" stroke-width="1.0"/>
  </g>
</svg>
