<?xml version="1.0" ?>
<svg height="1024" version="1.1" width="1024" xmlns="http://www.w3.org/2000/svg">
  <defs/>
  <g>
    <path d="M 469.6819763183594 66.50074005126953 C 466.22052001953125 65.51483917236328 459.5235290527344 72.36624145507812 460.8257751464844 70.74845886230469 C 455.5003662109375 77.31726837158203 458.2052307128906 83.76165771484375 464.56927490234375 95.25601196289062 C 470.9591369628906 103.38306427001953 474.253662109375 116.91464233398438 475.7922058105469 131.52899169921875 C 480.0445861816406 178.47317504882812 472.51214599609375 252.76271057128906 464.2991638183594 307.3426208496094 C 462.3233947753906 316.8351135253906 459.8287048339844 333.2685241699219 458.7567443847656 345.60504150390625 C 456.9447021484375 354.4595642089844 444.4524230957031 425.0220642089844 436.0805969238281 452.1606140136719 C 428.81524658203125 484.01898193359375 412.3936767578125 532.3685913085938 404.47235107421875 552.5697631835938 C 395.8625183105469 573.4432983398438 391.7883605957031 582.6091918945312 386.1137390136719 587.6104736328125 C 361.8616943359375 611.6504516601562 359.8138732910156 635.8413696289062 378.4066162109375 662.28271484375 C 381.7193298339844 667.6397094726562 387.58599853515625 673.641845703125 406.00860595703125 660.9971313476562 C 446.9737854003906 637.0299072265625 503.7652893066406 623.7689208984375 577.6470336914062 617.50048828125 C 604.112548828125 615.697265625 643.9390258789062 612.4649658203125 644.1315307617188 617.8059692382812 C 644.261962890625 617.3535766601562 632.44287109375 643.4700927734375 600.4367065429688 713.5474243164062 C 576.163330078125 766.3787231445312 555.7349853515625 812.1770629882812 556.7161865234375 809.0820922851562 C 551.2659301757812 823.3005981445312 551.507080078125 829.4240112304688 554.2252807617188 833.9895629882812 C 556.5426025390625 836.1856079101562 560.3096923828125 838.9149169921875 568.5797729492188 832.29443359375 C 574.8306884765625 828.169921875 609.6909790039062 785.6478271484375 664.5800170898438 712.6514282226562 C 692.9908447265625 672.7779541015625 717.74365234375 651.6538696289062 732.3327026367188 644.8261108398438 C 758.8147583007812 632.9052124023438 761.4066772460938 619.997802734375 744.3750610351562 603.477783203125 C 725.8477783203125 587.082275390625 702.62451171875 571.1287841796875 686.7327270507812 565.5958251953125 C 682.2348022460938 564.337646484375 674.9500732421875 562.9165649414062 669.8201904296875 563.5325927734375 C 663.4286499023438 563.2345581054688 648.7787475585938 565.7528686523438 630.451904296875 574.8268432617188 C 621.9672241210938 577.3565063476562 563.1610717773438 592.0361328125 521.8275146484375 597.6826171875 C 492.0641784667969 602.5104370117188 464.9569396972656 602.62060546875 465.1018371582031 604.1572265625 C 451.8690490722656 605.8978881835938 450.4104919433594 595.9359130859375 450.8011779785156 588.068115234375 C 451.3894348144531 581.96533203125 460.2915344238281 534.2752685546875 471.35205078125 488.0657043457031 C 475.3434143066406 473.5464782714844 479.1240539550781 453.4214782714844 482.8096923828125 435.8145751953125 C 492.0802307128906 390.4632568359375 498.14080810546875 363.2913818359375 506.9364318847656 325.8955383300781 C 512.2589721679688 305.3455810546875 517.4563598632812 281.3995666503906 522.2937622070312 258.4341735839844 C 536.751708984375 189.17906188964844 547.0902709960938 158.6035614013672 559.9085693359375 139.20375061035156 C 567.390869140625 129.41360473632812 568.453369140625 126.60994720458984 568.015380859375 121.78217315673828 C 568.2622680664062 115.44737243652344 562.8976440429688 107.15499877929688 551.2022094726562 99.66083526611328 C 530.8721923828125 86.03797149658203 490.99957275390625 68.98198699951172 480.3772888183594 65.9897232055664 C 465.1814880371094 64.35881805419922 471.4613342285156 66.65078735351562 479.56951904296875 70.12782287597656 C 489.9603271484375 67.45411682128906 468.477783203125 64.79261016845703 469.6819763183594 66.50074005126953" fill="rgb(0, 0, 0)" opacity="0.9993804" stroke-width="1.0"/>
  </g>
</svg>
