<?xml version="1.0" ?>
<svg height="1024" version="1.1" width="1024" xmlns="http://www.w3.org/2000/svg">
  <defs/>
  <g>
    <path d="M 550.2037963867188 201.17953491210938 C 548.6253051757812 200.87310791015625 545.6663818359375 214.0695037841797 547.9611206054688 216.4802703857422 C 548.336181640625 231.7164306640625 545.3150634765625 235.58326721191406 545.5792236328125 239.08120727539062 C 540.0757446289062 262.3841857910156 528.4041748046875 287.2956237792969 512.0773315429688 313.86358642578125 C 503.18780517578125 330.3762512207031 464.77593994140625 381.1993713378906 463.8352355957031 383.2917175292969 C 457.0929260253906 389.47607421875 451.1756286621094 397.3542175292969 448.2377624511719 400.5588684082031 C 389.1387023925781 473.41558837890625 281.03350830078125 557.9559936523438 133.82220458984375 649.8089599609375 C 101.14863586425781 670.669189453125 106.1898422241211 664.7781982421875 107.05191802978516 669.7731323242188 C 113.42430877685547 674.15869140625 110.49397277832031 673.1116943359375 125.43804168701172 672.1730346679688 C 151.55104064941406 668.5123901367188 177.90277099609375 659.05810546875 212.42697143554688 642.1891479492188 C 243.2313995361328 626.9700317382812 276.41729736328125 607.8128051757812 321.48638916015625 577.6290893554688 C 353.4167785644531 556.7225952148438 350.87506103515625 557.8113403320312 406.9924621582031 507.7018737792969 C 468.56982421875 453.37921142578125 498.1350402832031 422.4134216308594 547.488525390625 362.76263427734375 C 587.4612426757812 314.4382629394531 617.638916015625 282.072265625 624.6378173828125 277.6404724121094 C 632.1022338867188 274.66412353515625 636.6175537109375 263.63519287109375 629.1343383789062 250.1809539794922 C 623.2362060546875 238.423095703125 601.450439453125 213.74415588378906 588.7916870117188 210.60276794433594 C 583.5222778320312 210.2528839111328 579.3017578125 206.360595703125 572.8504638671875 204.0558624267578 C 561.529052734375 198.02320861816406 553.48779296875 195.7054443359375 550.2037963867188 201.17953491210938" fill="rgb(0, 0, 0)" opacity="1.0" stroke-width="1.0"/>
  </g>
</svg>
