<?xml version="1.0" ?>
<svg height="1024" version="1.1" width="1024" xmlns="http://www.w3.org/2000/svg">
  <defs/>
  <g>
    <path d="M 464.300048828125 167.25732421875 C 461.9620361328125 169.35894775390625 458.64996337890625 168.43202209472656 456.364013671875 177.6483154296875 C 456.3984375 181.00888061523438 454.7702941894531 178.7172393798828 457.80865478515625 190.93873596191406 C 460.3357849121094 200.8149871826172 463.15863037109375 222.60821533203125 464.3798522949219 239.30348205566406 C 468.6978454589844 305.93359375 468.2364501953125 325.86383056640625 467.06719970703125 388.15447998046875 C 466.1558837890625 500.7200622558594 465.3584289550781 505.99359130859375 466.717041015625 507.0931701660156 C 472.2641906738281 527.2288818359375 502.812255859375 521.9585571289062 510.52734375 503.3328857421875 C 513.1931762695312 500.4759826660156 513.1301879882812 489.3891296386719 514.4404296875 454.4173583984375 C 516.2869873046875 420.30999755859375 517.4214477539062 393.8202209472656 521.164794921875 344.2416687011719 C 521.3170166015625 338.96051025390625 522.7891235351562 323.8524169921875 523.2882080078125 309.9725036621094 C 525.646728515625 256.2005615234375 528.0250854492188 227.4138946533203 529.7916259765625 223.50723266601562 C 533.4819946289062 213.82028198242188 529.8912353515625 202.3536376953125 526.1784057617188 197.6729278564453 C 523.471923828125 190.7895050048828 510.2015686035156 179.5266571044922 501.9432067871094 174.31903076171875 C 489.096435546875 166.5751953125 475.0711364746094 163.4664306640625 464.300048828125 167.25732421875" fill="rgb(0, 0, 0)" opacity="0.99955666" stroke-width="1.0"/>
  </g>
</svg>
