<?xml version="1.0" ?>
<svg height="1024" version="1.1" width="1024" xmlns="http://www.w3.org/2000/svg">
  <defs/>
  <g>
    <path d="M 240.634765625 326.3995361328125 C 230.9578399658203 329.8984069824219 230.74838256835938 338.5683898925781 238.2788848876953 353.5794982910156 C 249.8323211669922 376.6521301269531 251.35589599609375 400.71728515625 248.02220153808594 425.9640808105469 C 240.76214599609375 503.0365905761719 223.73326110839844 553.7374267578125 196.46202087402344 589.1137084960938 C 187.7945556640625 599.5178833007812 185.16311645507812 607.5626220703125 186.36329650878906 614.3330688476562 C 190.3494873046875 626.8919067382812 195.36451721191406 637.7362670898438 207.824462890625 650.2261962890625 C 218.65884399414062 661.6317138671875 222.60301208496094 662.133056640625 228.58285522460938 662.7120361328125 C 233.55313110351562 662.0906982421875 238.50372314453125 661.0953979492188 251.1294708251953 651.2944946289062 C 279.6037292480469 630.0894165039062 333.69281005859375 611.1837158203125 410.2759704589844 595.8450317382812 C 473.6175537109375 582.6866455078125 535.5383911132812 576.2532348632812 629.958740234375 577.8283081054688 C 644.7437133789062 577.821533203125 662.1851806640625 582.1306762695312 672.1666870117188 571.718994140625 C 675.0800170898438 569.0155029296875 675.9217529296875 563.3486328125 670.4722900390625 554.2168579101562 C 667.391357421875 548.7620849609375 656.1096801757812 538.3455810546875 635.1768798828125 527.3034057617188 C 620.9088745117188 518.701171875 616.5884399414062 516.9969482421875 600.52294921875 516.0413208007812 C 582.1055297851562 515.9632568359375 567.8201293945312 518.7498168945312 550.3908081054688 522.5930786132812 C 540.3164672851562 525.0993041992188 534.5474853515625 527.1146240234375 533.66259765625 526.0667724609375 C 521.338134765625 527.4986572265625 515.054443359375 526.5667114257812 499.46142578125 531.8881225585938 C 501.3735046386719 532.6275634765625 476.02239990234375 537.0098876953125 453.7167663574219 541.3723754882812 C 412.1932067871094 548.8340454101562 385.6095886230469 555.16162109375 360.78729248046875 561.2461547851562 C 337.8795166015625 567.039794921875 302.6197509765625 577.1082153320312 287.2229919433594 582.2720947265625 C 276.9439697265625 586.8390502929688 274.5062255859375 585.2617797851562 273.1981201171875 583.1759643554688 C 267.40032958984375 578.8466796875 266.7075500488281 569.3148193359375 269.7398681640625 559.3770751953125 C 272.7261657714844 549.1597900390625 274.7333679199219 534.9495239257812 278.2083740234375 520.35009765625 C 290.65948486328125 462.1315002441406 302.6105651855469 417.7038879394531 312.3751525878906 397.2547302246094 C 318.27520751953125 385.5605163574219 316.1499328613281 385.5281982421875 317.0809020996094 383.4526672363281 C 315.96734619140625 380.5184631347656 317.79107666015625 379.5994567871094 312.6878356933594 371.4120178222656 C 303.07244873046875 358.913818359375 294.13897705078125 349.06048583984375 277.84320068359375 338.1036682128906 C 257.3018798828125 324.9515380859375 248.16229248046875 322.3674011230469 240.634765625 326.3995361328125" fill="rgb(0, 0, 0)" opacity="1.0" stroke-width="1.0"/>
  </g>
</svg>
