<?xml version="1.0" ?>
<svg height="1024" version="1.1" width="1024" xmlns="http://www.w3.org/2000/svg">
  <defs/>
  <g>
    <path d="M 520.8682861328125 346.9840087890625 C 524.9129638671875 344.9318542480469 506.93463134765625 350.1952819824219 501.9054260253906 352.91259765625 C 481.9464111328125 359.97882080078125 449.7283020019531 368.5717468261719 397.6792907714844 374.66485595703125 C 404.13751220703125 374.2187194824219 380.57769775390625 380.1766052246094 375.13800048828125 383.4573059082031 C 380.7911071777344 382.7796630859375 369.1385192871094 383.2407531738281 376.6958923339844 387.9810791015625 C 376.0597839355469 388.46429443359375 400.0784606933594 398.67913818359375 406.8466491699219 400.07855224609375 C 432.70611572265625 407.0881042480469 474.34710693359375 404.99407958984375 529.392822265625 391.5687255859375 C 580.8743896484375 379.6693115234375 582.8914794921875 378.0856628417969 584.0237426757812 378.25885009765625 C 586.18408203125 374.10137939453125 590.6980590820312 371.9749450683594 586.8270263671875 362.6131286621094 C 580.9068603515625 355.7160949707031 571.5101318359375 351.3834228515625 559.6428833007812 347.9140930175781 C 549.6533203125 343.9228515625 529.4505004882812 344.50579833984375 520.8682861328125 346.9840087890625" fill="rgb(0, 0, 0)" opacity="1.0" stroke-width="1.0"/>
  </g>
</svg>
