<?xml version="1.0" ?>
<svg height="1024" version="1.1" width="1024" xmlns="http://www.w3.org/2000/svg">
  <defs/>
  <g>
    <path d="M 651.4232788085938 214.29124450683594 C 634.264892578125 215.58758544921875 623.4483642578125 220.91357421875 611.81298828125 223.04660034179688 C 505.2297058105469 252.01828002929688 479.0188903808594 257.497314453125 404.3415222167969 265.30767822265625 C 383.06121826171875 267.38897705078125 346.538818359375 270.9200744628906 302.6834716796875 272.7317810058594 C 287.4004821777344 273.1277160644531 274.7506408691406 276.90264892578125 273.9386291503906 281.2291259765625 C 268.5733947753906 291.0526123046875 298.5615234375 307.9937744140625 324.31536865234375 314.44110107421875 C 332.2638854980469 316.57965087890625 340.49713134765625 317.98480224609375 350.0168762207031 318.1255798339844 C 358.5592041015625 318.859619140625 372.91357421875 317.9781188964844 390.80291748046875 314.5800476074219 C 402.25677490234375 312.80792236328125 420.7374572753906 309.7913818359375 431.50537109375 308.4068603515625 C 488.0371398925781 301.2015686035156 505.1128845214844 298.123046875 546.6091918945312 292.2104797363281 C 567.7229614257812 288.91082763671875 602.7176513671875 283.7267150878906 622.2793579101562 281.0286560058594 C 711.0952758789062 268.65582275390625 729.4121704101562 259.91357421875 727.8408203125 245.01524353027344 C 727.7903442382812 232.48309326171875 699.4437255859375 219.3923797607422 678.1417236328125 215.43350219726562 C 664.5148315429688 212.8520050048828 654.3594360351562 214.4876708984375 651.4232788085938 214.29124450683594" fill="rgb(0, 0, 0)" opacity="0.9995407" stroke-width="1.0"/>
  </g>
</svg>
