<?xml version="1.0" ?>
<svg height="1024" version="1.1" width="1024" xmlns="http://www.w3.org/2000/svg">
  <defs/>
  <g>
    <path d="M 669.7755126953125 286.2431335449219 C 672.9922485351562 284.2768249511719 649.3917236328125 290.1885070800781 645.2891845703125 292.7221374511719 C 640.4686279296875 293.6817321777344 590.3074340820312 308.2165832519531 584.329833984375 309.349853515625 C 570.3765258789062 311.91058349609375 554.1033325195312 315.15667724609375 531.3841552734375 317.2469482421875 C 510.2939147949219 318.9075622558594 503.8832702636719 321.77581787109375 500.7158508300781 328.1131896972656 C 497.9444580078125 337.57769775390625 510.5543518066406 345.0775451660156 536.099853515625 351.4522705078125 C 558.5669555664062 356.9840087890625 575.8530883789062 357.0743103027344 600.6944580078125 352.6787414550781 C 609.5540771484375 349.82257080078125 631.7877197265625 346.11505126953125 667.7507934570312 338.50408935546875 C 712.481201171875 330.2639465332031 735.8579711914062 325.3397521972656 740.1053466796875 319.6330871582031 C 740.5612182617188 319.9443054199219 746.5193481445312 314.0286560058594 745.008056640625 307.5766906738281 C 740.6885375976562 298.7346496582031 734.3746337890625 293.43963623046875 713.1845703125 286.8487243652344 C 703.7625732421875 283.3797912597656 682.4580688476562 283.0868225097656 669.7755126953125 286.2431335449219" fill="rgb(0, 0, 0)" opacity="1.0" stroke-width="1.0"/>
  </g>
</svg>
