<?xml version="1.0" ?>
<svg height="1024" version="1.1" width="1024" xmlns="http://www.w3.org/2000/svg">
  <defs/>
  <g>
    <path d="M 624.8817749023438 239.5483856201172 C 616.251220703125 242.00242614746094 611.2931518554688 250.40072631835938 617.0604858398438 262.53485107421875 C 626.2285766601562 282.17657470703125 632.7720336914062 326.41851806640625 634.2421264648438 399.6639404296875 C 636.635009765625 474.47454833984375 630.2020263671875 642.00732421875 621.35009765625 728.1527709960938 C 618.8191528320312 755.0421752929688 615.1773071289062 780.5473022460938 613.0325927734375 783.6234741210938 C 607.97119140625 803.9177856445312 610.0342407226562 813.614990234375 612.8675537109375 826.134765625 C 618.287841796875 848.0635986328125 633.2551879882812 871.2164306640625 656.4574584960938 895.44189453125 C 665.8667602539062 904.0834350585938 661.8095703125 903.8689575195312 670.4263916015625 902.4259643554688 C 677.294921875 900.1841430664062 681.7626342773438 891.3790893554688 682.4368286132812 887.140869140625 C 690.3757934570312 867.263916015625 693.4754638671875 841.180419921875 691.2387084960938 823.3237915039062 C 691.2056274414062 825.6729125976562 689.2844848632812 778.849853515625 687.0482788085938 723.22265625 C 682.192626953125 594.9995727539062 680.89306640625 524.48046875 680.484130859375 458.3316955566406 C 680.0499877929688 374.1424560546875 682.0355224609375 338.5525817871094 684.6359252929688 304.5852966308594 C 687.1278076171875 278.7048645019531 688.633544921875 282.8691101074219 683.399169921875 273.2198486328125 C 680.4890747070312 266.4669494628906 665.2184448242188 247.87240600585938 660.0709228515625 245.72140502929688 C 650.5869140625 239.18795776367188 634.72900390625 235.6920928955078 624.8817749023438 239.5483856201172" fill="rgb(0, 0, 0)" opacity="0.99985" stroke-width="1.0"/>
  </g>
</svg>
