<?xml version="1.0" ?>
<svg height="1024" version="1.1" width="1024" xmlns="http://www.w3.org/2000/svg">
  <defs/>
  <g>
    <path d="M 710.4171752929688 138.18373107910156 C 707.1464233398438 138.69635009765625 698.1536254882812 139.98849487304688 688.5714721679688 142.6144561767578 C 672.1082763671875 146.04119873046875 612.7597045898438 157.1405792236328 574.2982177734375 162.95054626464844 C 472.9827575683594 179.6255340576172 353.990234375 193.56427001953125 235.28106689453125 203.982177734375 C 219.87863159179688 204.60328674316406 213.35531616210938 207.75543212890625 216.13946533203125 214.8582763671875 C 218.3739776611328 224.27752685546875 245.82542419433594 241.98362731933594 263.67181396484375 249.15145874023438 C 286.6546936035156 256.7496643066406 291.9668273925781 252.4019775390625 313.32861328125 249.5559844970703 C 400.33868408203125 235.16452026367188 533.3944702148438 215.64984130859375 554.550537109375 213.2173309326172 C 579.2271728515625 210.6412811279297 591.6939086914062 209.3868408203125 585.1480712890625 209.82278442382812 C 606.74658203125 204.75790405273438 687.1598510742188 197.85342407226562 769.1480102539062 191.49966430664062 C 796.61962890625 189.10057067871094 790.5440673828125 190.71359252929688 796.2734985351562 189.0084991455078 C 803.2987670898438 187.01345825195312 809.9706420898438 178.82594299316406 810.9305419921875 177.91883850097656 C 812.1902465820312 164.02537536621094 788.8764038085938 149.73333740234375 763.2757568359375 141.14883422851562 C 745.0437622070312 136.9371795654297 736.1697998046875 135.46058654785156 710.4171752929688 138.18373107910156" fill="rgb(0, 0, 0)" opacity="1.0" stroke-width="1.0"/>
  </g>
</svg>
