<?xml version="1.0" ?>
<svg height="1024" version="1.1" width="1024" xmlns="http://www.w3.org/2000/svg">
  <defs/>
  <g>
    <path d="M 428.4290466308594 261.1990966796875 C 424.96588134765625 265.42578125 423.8329162597656 273.35528564453125 426.5228576660156 282.99749755859375 C 430.03973388671875 298.344482421875 431.81597900390625 313.286376953125 431.31170654296875 341.96728515625 C 430.2569580078125 367.4053649902344 427.5215759277344 400.8915100097656 416.2832336425781 460.6744079589844 C 408.1075134277344 508.0788269042969 404.1989440917969 527.6409912109375 390.9371643066406 594.576904296875 C 385.4736022949219 622.1332397460938 375.1566467285156 675.2962646484375 367.8443298339844 714.1744995117188 C 353.0581970214844 793.3615112304688 352.26495361328125 787.1790161132812 357.6371154785156 796.3847045898438 C 369.18182373046875 807.57763671875 394.2005615234375 800.8499145507812 401.659912109375 782.5369873046875 C 402.0905456542969 783.9295043945312 406.08441162109375 762.2479858398438 410.4609680175781 739.0348510742188 C 421.3423767089844 682.2760620117188 436.919189453125 604.4157104492188 451.5778503417969 535.1571044921875 C 458.510009765625 501.7589416503906 464.069091796875 476.69207763671875 463.94696044921875 476.20758056640625 C 476.8910217285156 405.3249206542969 487.8733215332031 354.23590087890625 495.0498046875 334.5075378417969 C 496.17462158203125 333.1551513671875 501.9234924316406 319.3253173828125 498.41571044921875 314.90460205078125 C 500.8184509277344 317.7707824707031 498.6783752441406 309.1705627441406 492.1816711425781 301.7167053222656 C 484.06005859375 289.3890075683594 466.63812255859375 271.67059326171875 454.33587646484375 263.58294677734375 C 451.4956359863281 261.5052490234375 439.2803955078125 255.52593994140625 434.47528076171875 258.1353759765625 C 435.74810791015625 257.3061218261719 432.206298828125 257.5204772949219 428.4290466308594 261.1990966796875" fill="rgb(0, 0, 0)" opacity="0.99935347" stroke-width="1.0"/>
  </g>
</svg>
