<?xml version="1.0" ?>
<svg height="1024" version="1.1" width="1024" xmlns="http://www.w3.org/2000/svg">
  <defs/>
  <g>
    <path d="M 705.366943359375 82.95906066894531 C 706.4827880859375 82.09320831298828 679.70361328125 85.97103118896484 673.2640380859375 88.7122573852539 C 652.6138916015625 93.83013916015625 557.235107421875 111.70115661621094 486.7268981933594 122.9215316772461 C 414.17645263671875 134.7230682373047 322.5982971191406 146.68812561035156 287.8211975097656 149.670654296875 C 281.9371643066406 149.31201171875 246.9618682861328 154.79095458984375 243.69085693359375 155.9817657470703 C 235.67344665527344 158.23854064941406 232.59469604492188 162.52896118164062 236.57232666015625 169.49989318847656 C 241.06822204589844 176.94802856445312 266.6524658203125 195.43655395507812 284.89483642578125 201.58950805664062 C 307.9923400878906 209.83200073242188 315.6264343261719 202.17982482910156 324.56829833984375 201.84820556640625 C 348.28924560546875 196.76193237304688 427.318603515625 183.25244140625 454.075439453125 179.55775451660156 C 471.4778137207031 177.1561737060547 490.15692138671875 174.69068908691406 502.7475891113281 172.15235900878906 C 560.3904418945312 162.5648956298828 637.7982177734375 152.26712036132812 743.2282104492188 139.83348083496094 C 761.957275390625 137.8714141845703 777.294677734375 135.6743621826172 776.1508178710938 136.13998413085938 C 781.694091796875 137.88731384277344 789.789794921875 133.9239044189453 788.7081909179688 133.69412231445312 C 793.3750610351562 131.99351501464844 800.5623168945312 121.81243133544922 798.8316650390625 120.81332397460938 C 799.5228881835938 116.396484375 793.5460815429688 108.90314483642578 786.6474609375 104.02664184570312 C 778.3557739257812 97.63407897949219 760.9803466796875 88.08160400390625 748.340576171875 85.77281951904297 C 737.1567993164062 82.63320922851562 720.1918334960938 81.04988861083984 705.366943359375 82.95906066894531" fill="rgb(0, 0, 0)" opacity="0.99997616" stroke-width="1.0"/>
  </g>
</svg>
