<?xml version="1.0" ?>
<svg height="1024" version="1.1" width="1024" xmlns="http://www.w3.org/2000/svg">
  <defs/>
  <g>
    <path d="M 514.3256225585938 469.7109680175781 C 496.99542236328125 471.4987487792969 489.1159973144531 473.4658508300781 473.72943115234375 477.3525390625 C 460.0898132324219 482.65966796875 454.81658935546875 482.0019836425781 439.5437316894531 485.6873779296875 C 401.63909912109375 492.3852233886719 418.9256896972656 490.5916442871094 393.0782470703125 491.877197265625 C 337.4562683105469 494.69793701171875 257.6927795410156 501.1207275390625 268.55218505859375 501.2843322753906 C 244.3099365234375 504.1754455566406 255.7143096923828 518.7578125 272.5644226074219 526.6380615234375 C 293.25445556640625 537.9257202148438 321.13494873046875 543.69384765625 340.9927673339844 543.1299438476562 C 340.4580993652344 544.1156616210938 375.0321960449219 542.1220092773438 367.8541259765625 541.1297607421875 C 374.3601989746094 541.8313598632812 374.3487548828125 539.1868896484375 401.851318359375 539.0823364257812 C 419.3401794433594 536.6162719726562 439.10498046875 535.51953125 497.3265686035156 526.2863159179688 C 587.7761840820312 513.2257690429688 585.19140625 512.2415161132812 582.6886596679688 513.9825439453125 C 598.8011474609375 502.5739440917969 590.7312622070312 489.6849670410156 569.1895141601562 479.2568664550781 C 558.3687133789062 474.37652587890625 542.592041015625 470.0471496582031 538.51708984375 470.4178466796875 C 528.0385131835938 468.6593322753906 515.477294921875 469.99774169921875 514.3256225585938 469.7109680175781" fill="rgb(0, 0, 0)" opacity="0.99910975" stroke-width="1.0"/>
  </g>
</svg>
