<?xml version="1.0" ?>
<svg height="1024" version="1.1" width="1024" xmlns="http://www.w3.org/2000/svg">
  <defs/>
  <g>
    <path d="M 838.3007202148438 726.3634643554688 C 833.413330078125 728.4041748046875 771.9901733398438 738.108154296875 731.2933959960938 743.8799438476562 C 692.33740234375 749.5711059570312 685.2298583984375 750.2001953125 597.6173095703125 756.9458618164062 C 566.3035278320312 759.167724609375 529.9412841796875 762.2167358398438 512.3203735351562 763.7263793945312 C 499.4156799316406 764.9779663085938 485.6358642578125 766.322998046875 468.2850341796875 767.1190185546875 C 447.9596862792969 768.7123413085938 422.56695556640625 770.8311157226562 405.8561706542969 772.6555786132812 C 397.8197021484375 773.9100341796875 352.4582824707031 777.64501953125 337.65386962890625 778.35888671875 C 326.6588134765625 778.2806396484375 289.03436279296875 781.3096923828125 290.0540771484375 781.83935546875 C 245.11570739746094 787.7140502929688 192.5778045654297 790.2569580078125 140.28701782226562 790.25146484375 C 95.2635498046875 790.6079711914062 97.66192626953125 788.4945068359375 91.08053588867188 792.6770629882812 C 86.060791015625 796.847412109375 84.0816879272461 803.9385375976562 88.42491149902344 811.5365600585938 C 94.32137298583984 823.989990234375 114.1612777709961 837.430908203125 132.11508178710938 846.515625 C 144.41696166992188 852.015380859375 151.1497802734375 853.796142578125 162.96092224121094 855.3773193359375 C 169.10235595703125 855.5537109375 178.2140655517578 855.1904296875 187.22390747070312 851.9011840820312 C 214.63868713378906 843.829833984375 273.02764892578125 834.5108642578125 361.79461669921875 822.5767822265625 C 420.99090576171875 814.6893310546875 471.315185546875 809.8580322265625 540.52001953125 806.2899780273438 C 564.956787109375 804.871337890625 593.3651123046875 803.0108642578125 616.01025390625 801.3971557617188 C 666.9933471679688 797.7415161132812 679.77734375 797.150390625 728.76318359375 796.5966186523438 C 790.0302124023438 796.6099243164062 848.4176025390625 800.4577026367188 907.7958984375 808.241943359375 C 935.581298828125 812.5718994140625 946.8829956054688 813.0865478515625 953.345947265625 802.0413208007812 C 957.903564453125 792.04443359375 955.8857421875 785.0060424804688 944.2298583984375 774.4808349609375 C 927.0817260742188 758.2315063476562 906.2549438476562 743.1199951171875 880.3192138671875 730.0786743164062 L 868.7986450195312 724.9356079101562 L 855.1542358398438 723.3662719726562 C 860.2726440429688 724.3051147460938 851.8311767578125 723.1433715820312 838.3007202148438 726.3634643554688" fill="rgb(0, 0, 0)" opacity="1.0" stroke-width="1.0"/>
  </g>
</svg>
