<?xml version="1.0" ?>
<svg height="1024" version="1.1" width="1024" xmlns="http://www.w3.org/2000/svg">
  <defs/>
  <g>
    <path d="M 629.0675048828125 121.45378875732422 C 621.2329711914062 123.5129623413086 603.4507446289062 127.56588745117188 570.8070068359375 139.8756561279297 C 546.8073120117188 145.96380615234375 454.07830810546875 168.66802978515625 395.33294677734375 176.0450439453125 C 373.5140075683594 179.3117218017578 377.01202392578125 177.79931640625 369.2384338378906 183.16268920898438 C 362.2176513671875 192.2758331298828 367.914794921875 203.33059692382812 376.57696533203125 210.1183319091797 C 384.8253173828125 215.354248046875 393.70947265625 216.99818420410156 406.260986328125 211.89999389648438 C 413.028564453125 209.86563110351562 449.7950134277344 201.19802856445312 492.8820495605469 191.4987030029297 C 563.6939086914062 175.8800506591797 605.7069702148438 169.28721618652344 621.4146728515625 168.5481719970703 C 633.4981079101562 168.73341369628906 638.0621948242188 173.0232696533203 639.0517578125 176.30206298828125 C 642.7098999023438 183.8296661376953 645.2772827148438 194.04263305664062 646.0293579101562 211.24603271484375 C 646.2808227539062 239.66458129882812 642.1964721679688 561.4569702148438 636.7705078125 725.7854614257812 C 636.220458984375 759.0270385742188 634.1713256835938 757.9415893554688 640.7525634765625 767.189208984375 C 658.174560546875 782.1985473632812 692.1051635742188 771.1671752929688 693.4895629882812 752.432373046875 C 694.3241577148438 760.6417236328125 693.8729858398438 721.2037353515625 694.2106323242188 662.6165771484375 C 695.4856567382812 485.7001953125 699.5419921875 373.0566711425781 706.9476318359375 297.6689453125 C 710.6554565429688 259.0985107421875 714.9426879882812 236.55941772460938 720.1649780273438 221.29257202148438 C 720.3525390625 221.60325622558594 726.0265502929688 207.60633850097656 728.166259765625 200.73275756835938 C 732.5477905273438 188.88975524902344 735.2804565429688 182.20458984375 737.0432739257812 178.8905792236328 C 736.003662109375 177.27915954589844 730.9613037109375 168.5063018798828 720.4312744140625 159.60812377929688 C 708.2525024414062 148.27806091308594 680.7669067382812 130.14227294921875 668.51611328125 123.66299438476562 C 659.9837646484375 118.28923034667969 663.3932495117188 120.08635711669922 655.244873046875 118.68748474121094 C 640.9263305664062 118.14254760742188 631.4108276367188 121.77977752685547 629.0675048828125 121.45378875732422" fill="rgb(0, 0, 0)" opacity="0.9991818" stroke-width="1.0"/>
  </g>
</svg>
