<?xml version="1.0" ?>
<svg height="1024" version="1.1" width="1024" xmlns="http://www.w3.org/2000/svg">
  <defs/>
  <g>
    <path d="M 674.810791015625 244.4579620361328 C 656.7213745117188 246.40505981445312 625.7280883789062 253.5485382080078 584.2398681640625 268.3174743652344 C 551.0712890625 279.5711975097656 465.9102478027344 298.7286682128906 413.8419189453125 304.67694091796875 C 407.4787902832031 304.7189025878906 386.6938171386719 311.0140686035156 386.8377685546875 310.5339050292969 C 379.9598388671875 313.51910400390625 376.5252685546875 315.7326965332031 379.980224609375 320.9189147949219 C 380.5700378417969 322.5316162109375 385.78436279296875 326.37689208984375 393.7440490722656 329.96807861328125 C 412.45654296875 339.4334716796875 431.47918701171875 344.9394226074219 457.0378112792969 344.5809631347656 C 476.0657043457031 343.5700988769531 475.9458312988281 343.4138488769531 513.650634765625 334.61224365234375 C 560.1803588867188 323.98040771484375 591.5502319335938 316.81707763671875 619.476318359375 310.83074951171875 C 634.4785766601562 307.2723693847656 653.147216796875 303.4300231933594 662.1995239257812 301.61639404296875 C 702.1353149414062 292.7408142089844 719.0970458984375 287.175048828125 725.8350219726562 282.19134521484375 C 735.371826171875 273.224609375 735.6385498046875 267.7076110839844 726.3489990234375 258.5948486328125 C 719.7625732421875 253.3917236328125 713.1065063476562 250.02610778808594 700.1495971679688 246.65220642089844 C 691.9720458984375 243.67477416992188 684.4761352539062 243.68771362304688 674.810791015625 244.4579620361328" fill="rgb(0, 0, 0)" opacity="1.0" stroke-width="1.0"/>
  </g>
</svg>
