<?xml version="1.0" ?>
<svg height="1024" version="1.1" width="1024" xmlns="http://www.w3.org/2000/svg">
  <defs/>
  <g>
    <path d="M 564.6689453125 206.32470703125 C 563.989501953125 208.18067932128906 559.2184448242188 210.44541931152344 560.0208740234375 231.32789611816406 C 559.9032592773438 243.56935119628906 557.076904296875 262.88653564453125 552.1832885742188 279.9635925292969 C 550.8746337890625 287.7209167480469 549.055908203125 289.1325378417969 538.8953857421875 310.22039794921875 C 520.4395141601562 344.7617492675781 506.82354736328125 370.1718444824219 489.5384521484375 392.0571594238281 C 476.60321044921875 411.1392822265625 468.4732666015625 422.4261779785156 466.6854248046875 423.47540283203125 C 464.3571472167969 425.7967224121094 461.4084167480469 430.515380859375 462.1618347167969 428.9773864746094 C 412.4947814941406 495.3994140625 364.6942443847656 543.9544677734375 291.57568359375 603.00537109375 C 251.7332305908203 635.139892578125 188.94268798828125 680.9049072265625 127.224609375 723.707275390625 C 103.04832458496094 741.2877197265625 105.30371856689453 736.26025390625 106.95429229736328 741.3277587890625 C 108.23709106445312 741.4488525390625 112.54669952392578 745.3919067382812 114.50313568115234 743.668212890625 C 119.25154113769531 744.5745239257812 140.3875732421875 739.1389770507812 155.20591735839844 731.9788818359375 C 193.94436645507812 718.0890502929688 305.5282897949219 650.8069458007812 331.6139831542969 630.5843505859375 C 385.90643310546875 587.1563110351562 426.7102966308594 547.7791137695312 471.3969421386719 497.64447021484375 C 488.94573974609375 476.9730224609375 541.0227661132812 415.9277038574219 561.0114135742188 388.27996826171875 C 612.525634765625 321.3271484375 633.86083984375 294.6995849609375 643.8035888671875 284.9682922363281 C 652.5111694335938 280.3459777832031 651.8633422851562 273.8202819824219 652.4028930664062 273.2610168457031 C 652.659423828125 258.5137634277344 643.1159057617188 241.6449737548828 621.2029418945312 226.59970092773438 C 623.4861450195312 226.58990478515625 590.6942138671875 210.06040954589844 589.4061279296875 208.69427490234375 C 580.2297973632812 205.0640411376953 572.084228515625 200.5730438232422 564.6689453125 206.32470703125" fill="rgb(0, 0, 0)" opacity="1.0" stroke-width="1.0"/>
  </g>
</svg>
