<?xml version="1.0" ?>
<svg height="1024" version="1.1" width="1024" xmlns="http://www.w3.org/2000/svg">
  <defs/>
  <g>
    <path d="M 623.5767822265625 469.5156555175781 C 618.09423828125 476.73236083984375 620.2444458007812 479.625244140625 620.8070068359375 486.7232971191406 C 624.9195556640625 500.5476989746094 631.6063842773438 501.9406433105469 650.3828735351562 517.3485717773438 C 711.60400390625 565.38232421875 780.3150024414062 625.895263671875 846.68017578125 688.9413452148438 C 861.4964599609375 703.527099609375 869.501953125 710.595703125 881.4927978515625 714.9962768554688 C 883.0940551757812 716.4700317382812 890.572265625 717.1239624023438 897.9459228515625 708.9786376953125 C 906.0087890625 700.02294921875 910.977294921875 688.6145629882812 899.1561889648438 651.2953491210938 C 894.516845703125 635.1300048828125 885.277587890625 620.734130859375 869.7890014648438 605.509765625 C 830.0150756835938 566.4158325195312 755.6723022460938 524.6693725585938 645.7293701171875 477.24603271484375 C 634.4501953125 472.4844665527344 623.3001708984375 468.1334228515625 628.5161743164062 469.3092346191406 C 621.1830444335938 469.0610046386719 627.5519409179688 469.24493408203125 623.5767822265625 469.5156555175781" fill="rgb(0, 0, 0)" opacity="1.0" stroke-width="1.0"/>
  </g>
</svg>
