<?xml version="1.0" ?>
<svg height="1024" version="1.1" width="1024" xmlns="http://www.w3.org/2000/svg">
  <defs/>
  <g>
    <path d="M 703.4373168945312 285.8025817871094 Q 597.2625732421875 316.4061584472656 508.1832580566406 330.77587890625 Q 484.8172607421875 340.0713195800781 490.07733154296875 357.26141357421875 Q 494.1990051269531 370.4088439941406 539.1490478515625 367.3482666015625 L 588.6419067382812 355.00244140625 Q 688.0194702148438 336.2265319824219 697.9461669921875 336.1527099609375 Q 728.0557250976562 335.4310607910156 734.0347900390625 404.0218811035156 L 733.9622192382812 468.84246826171875 Q 731.8353271484375 645.7374877929688 713.4939575195312 728.4976196289062 Q 697.9222412109375 811.8101806640625 677.8348388671875 844.0938720703125 Q 665.406005859375 865.6000366210938 651.8528442382812 860.5222778320312 Q 627.0147094726562 853.702880859375 575.760498046875 828.958251953125 Q 522.1657104492188 804.5723266601562 550.6331787109375 839.4506225585938 Q 571.9097900390625 861.9548950195312 601.1292114257812 901.6507568359375 Q 620.149169921875 929.9742431640625 630.4126586914062 949.0186767578125 Q 655.1409912109375 990.7510986328125 688.0361938476562 960.9466552734375 Q 715.5479125976562 937.9329223632812 739.1139526367188 881.0551147460938 Q 762.0750122070312 831.6188354492188 772.2740478515625 762.0253295898438 L 782.6195068359375 683.0686645507812 Q 794.7481079101562 556.3267211914062 801.2706298828125 441.68353271484375 Q 806.4754638671875 380.8194274902344 830.7904052734375 353.25299072265625 Q 845.8890380859375 323.09368896484375 747.4284057617188 286.73797607421875 Q 720.3871459960938 279.2323913574219 703.4373168945312 285.8025817871094" fill="rgb(0, 0, 0)" opacity="0.99903923" stroke-width="1.0"/>
  </g>
</svg>
