<?xml version="1.0" ?>
<svg height="1024" version="1.1" width="1024" xmlns="http://www.w3.org/2000/svg">
  <defs/>
  <g>
    <path d="M 783.130126953125 374.4573059082031 C 755.7254638671875 382.1929931640625 671.0462646484375 399.8509826660156 634.1529541015625 404.4322814941406 C 620.7135620117188 406.28955078125 593.280517578125 409.420654296875 580.7098388671875 411.4140319824219 C 564.7026977539062 413.14593505859375 536.438720703125 417.6395263671875 508.450439453125 421.4552307128906 C 481.5677185058594 425.8355407714844 460.9777526855469 427.838134765625 415.8224792480469 432.94793701171875 C 371.48980712890625 437.8988342285156 331.0040588378906 443.016357421875 295.5851745605469 449.1603088378906 C 253.64588928222656 456.8160705566406 203.00132751464844 461.2768249511719 144.90943908691406 463.4938659667969 C 128.5269775390625 463.97515869140625 126.16471862792969 463.38714599609375 119.84117126464844 469.7089538574219 C 122.21929168701172 468.88958740234375 115.68605041503906 473.9945983886719 118.60295867919922 480.910400390625 C 118.8211441040039 489.5436706542969 143.6375274658203 512.3300170898438 182.48988342285156 524.9328002929688 C 186.78871154785156 527.7125244140625 197.0341339111328 527.692138671875 210.84396362304688 522.2050170898438 C 217.52317810058594 519.23291015625 239.59393310546875 513.5252075195312 272.2105712890625 507.3191833496094 C 287.7270812988281 504.10986328125 301.44366455078125 502.006591796875 314.0309753417969 497.91778564453125 C 351.8013610839844 488.7790222167969 374.9391784667969 483.6195068359375 449.0668029785156 473.1901550292969 C 466.6192932128906 469.99407958984375 480.2959899902344 468.8712158203125 476.13031005859375 468.8544921875 C 483.4611511230469 467.8317565917969 482.6585998535156 466.2626953125 499.1645202636719 466.13677978515625 C 529.3297729492188 463.7566833496094 565.5947875976562 460.5357360839844 609.1693115234375 454.9604187011719 C 690.8372192382812 444.21148681640625 777.8106689453125 442.3961181640625 860.7913208007812 449.43243408203125 C 886.1360473632812 451.8974609375 899.0224609375 452.1308898925781 899.65380859375 433.229736328125 C 898.3096313476562 426.09832763671875 896.351806640625 421.73150634765625 882.752685546875 411.2900390625 C 865.8604125976562 396.9136047363281 837.4886474609375 380.8827209472656 817.2383422851562 372.8104248046875 C 808.3528442382812 370.1017761230469 799.2382202148438 369.3302917480469 783.130126953125 374.4573059082031" fill="rgb(0, 0, 0)" opacity="0.99928087" stroke-width="1.0"/>
  </g>
</svg>
