<?xml version="1.0" ?>
<svg height="1024" version="1.1" width="1024" xmlns="http://www.w3.org/2000/svg">
  <defs/>
  <g>
    <path d="M 688.1229858398438 290.02874755859375 C 639.3930053710938 304.1583557128906 579.2085571289062 318.20806884765625 533.9820556640625 326.30548095703125 C 515.0498657226562 329.5928649902344 505.4585266113281 331.155517578125 503.5592346191406 332.940673828125 C 487.14569091796875 339.95294189453125 483.60577392578125 358.1197204589844 497.68450927734375 364.3706359863281 C 498.9728088378906 366.7322082519531 528.3169555664062 369.8504638671875 541.5577392578125 366.80670166015625 C 552.6807861328125 365.0653381347656 555.8778076171875 362.23779296875 557.1614990234375 362.86920166015625 C 574.0233154296875 357.8153076171875 618.2620849609375 348.6905517578125 678.9078369140625 338.78436279296875 C 701.6951293945312 334.26434326171875 710.3751831054688 335.144775390625 718.3450927734375 347.3049621582031 C 723.8085327148438 354.8705749511719 729.8722534179688 368.2853698730469 732.1813354492188 388.3088073730469 C 735.3432006835938 394.1396789550781 734.3607788085938 515.8215942382812 730.4585571289062 581.220947265625 C 727.1909790039062 636.5341796875 723.1739501953125 678.8897094726562 717.7897338867188 705.2546997070312 C 703.2556762695312 790.390625 687.2785034179688 836.5076904296875 669.3507690429688 855.5736083984375 C 662.4746704101562 861.7879028320312 662.2745971679688 860.131591796875 660.8428344726562 861.4920043945312 C 649.0794677734375 861.6043701171875 626.7485961914062 852.7451171875 588.6472778320312 834.985107421875 C 562.4393920898438 821.8644409179688 544.0950317382812 817.5650634765625 543.1409912109375 818.5550537109375 C 539.1223754882812 820.3472290039062 542.3286743164062 828.6522216796875 544.9710693359375 831.7314453125 C 542.322021484375 830.0713500976562 552.7456665039062 841.7117919921875 562.0865478515625 852.3011474609375 C 588.6337280273438 883.1455688476562 608.7622680664062 911.0265502929688 623.52490234375 936.9424438476562 C 631.0974731445312 951.9866333007812 639.4313354492188 962.1712036132812 642.3192138671875 964.19873046875 C 654.8388671875 975.7754516601562 663.4706420898438 975.956298828125 676.759765625 968.9345703125 C 705.4940185546875 953.1077880859375 731.6456298828125 908.213134765625 755.7402954101562 837.8442993164062 C 771.9501953125 790.0460815429688 786.665771484375 672.0101928710938 798.531494140625 484.8296203613281 C 801.28125 435.6145324707031 802.3973999023438 429.6962585449219 805.9800415039062 408.90411376953125 C 810.4607543945312 387.3926696777344 816.4238891601562 371.7828674316406 824.6981811523438 362.1661376953125 C 835.2859497070312 349.341552734375 835.384765625 337.27294921875 821.998046875 324.5197448730469 C 817.688232421875 320.2203369140625 776.4788208007812 295.9161376953125 754.205810546875 289.1666259765625 C 744.5565795898438 285.1515197753906 729.6126098632812 282.5943603515625 721.5961303710938 282.5995178222656 C 708.6843872070312 283.46173095703125 711.6062622070312 283.6322937011719 688.1229858398438 290.02874755859375" fill="rgb(0, 0, 0)" opacity="0.99932194" stroke-width="1.0"/>
  </g>
</svg>
