<?xml version="1.0" ?>
<svg height="1024" version="1.1" width="1024" xmlns="http://www.w3.org/2000/svg">
  <defs/>
  <g>
    <path d="M 348.6363220214844 275.0893249511719 C 342.37139892578125 276.8855895996094 338.67535400390625 284.1620178222656 344.7247314453125 295.1384582519531 C 356.617431640625 318.8018798828125 362.2028503417969 355.5540771484375 363.0242919921875 408.2637939453125 C 363.96142578125 448.523193359375 359.9724426269531 523.33056640625 355.4652404785156 550.6554565429688 C 345.5185241699219 616.0094604492188 322.5889892578125 674.9378662109375 285.645263671875 730.280517578125 C 265.59527587890625 759.7047729492188 243.92474365234375 786.1061401367188 212.7638397216797 815.874267578125 C 199.109130859375 828.3175048828125 188.8037109375 837.5188598632812 187.67942810058594 841.4391479492188 C 184.8570098876953 844.29931640625 186.15696716308594 848.4166259765625 189.27450561523438 849.6956176757812 C 194.14356994628906 850.4419555664062 205.7405242919922 849.6707763671875 213.150146484375 846.8121948242188 C 227.27371215820312 842.5347290039062 245.8721923828125 831.0679931640625 264.83154296875 814.812255859375 C 339.7349548339844 753.1473999023438 384.82232666015625 673.8318481445312 402.39190673828125 565.649658203125 C 413.7966003417969 505.4662170410156 419.62945556640625 448.8437194824219 423.557861328125 364.864013671875 C 423.77960205078125 349.59918212890625 424.92681884765625 357.9262390136719 429.010009765625 324.25054931640625 C 432.7172546386719 310.68365478515625 429.2693786621094 311.48211669921875 430.6038513183594 313.35479736328125 C 431.0633239746094 305.7519836425781 425.9678649902344 300.08050537109375 421.9133605957031 297.0579528808594 C 407.7172546386719 287.7264404296875 390.2210388183594 280.7552490234375 374.6557922363281 276.01043701171875 C 361.2470703125 272.77301025390625 351.6844177246094 272.9764404296875 348.6363220214844 275.0893249511719" fill="rgb(0, 0, 0)" opacity="1.0" stroke-width="1.0"/>
  </g>
</svg>
