<?xml version="1.0" ?>
<svg height="1024" version="1.1" width="1024" xmlns="http://www.w3.org/2000/svg">
  <defs/>
  <g>
    <path d="M 445.6770935058594 299.1330871582031 C 442.56341552734375 301.3155822753906 442.6141052246094 302.18609619140625 440.8383483886719 310.0588073730469 C 440.3254089355469 319.3788146972656 441.96807861328125 329.451904296875 450.2853698730469 344.736328125 C 456.6567687988281 355.7109375 462.06939697265625 371.4572448730469 464.1131896972656 384.0184020996094 C 463.84765625 389.1360778808594 467.8702087402344 453.9731750488281 466.7799072265625 470.0455627441406 C 465.7214660644531 513.391845703125 460.7311706542969 556.4609985351562 452.9775390625 597.8397216796875 C 448.9570007324219 617.49755859375 446.5785217285156 625.9052734375 451.20849609375 652.8984375 C 453.8726501464844 669.4170532226562 456.9749755859375 673.4234619140625 464.11920166015625 691.3706665039062 C 472.89599609375 708.2559204101562 476.4289855957031 712.3233032226562 481.6739501953125 715.7217407226562 C 499.477294921875 725.1082763671875 508.147216796875 705.0094604492188 516.3193969726562 669.0584106445312 C 522.8228759765625 633.5944213867188 520.955322265625 619.1588745117188 520.1406860351562 571.387451171875 C 519.4389038085938 531.7737426757812 518.3131713867188 489.2501525878906 518.881591796875 430.4018249511719 L 520.33837890625 372.2008056640625 L 517.5269165039062 358.3431701660156 C 513.2155151367188 348.1550598144531 508.5812072753906 340.6845703125 495.66015625 328.8764953613281 C 472.7918395996094 305.5714111328125 458.0963134765625 296.3181457519531 455.4162902832031 296.9119567871094 C 450.68609619140625 297.2971496582031 451.94305419921875 295.5600891113281 445.6770935058594 299.1330871582031" fill="rgb(0, 0, 0)" opacity="1.0" stroke-width="1.0"/>
  </g>
</svg>
