<?xml version="1.0" ?>
<svg height="1024" version="1.1" width="1024" xmlns="http://www.w3.org/2000/svg">
  <defs/>
  <g>
    <path d="M 478.3995666503906 65.20647430419922 Q 445.66339111328125 66.57353210449219 465.6971740722656 96.9326171875 Q 481.00885009765625 116.39311218261719 475.7178649902344 202.82012939453125 L 471.0190734863281 259.903076171875 L 456.1165466308594 362.0203857421875 L 439.4198913574219 441.7269592285156 L 421.3424987792969 504.7015380859375 Q 395.7533264160156 582.1693115234375 385.7153015136719 588.0045776367188 Q 350.9420471191406 622.9036254882812 377.4930419921875 660.6885375976562 Q 383.9234619140625 674.013427734375 400.5304260253906 664.525634765625 Q 436.47503662109375 640.9368896484375 500.68341064453125 627.7406005859375 Q 585.2254638671875 612.8746337890625 645.0380249023438 615.59326171875 Q 596.410888671875 722.44970703125 553.9041748046875 815.799072265625 Q 547.7064819335938 846.5349731445312 570.3831176757812 831.3754272460938 L 594.7693481445312 803.0867309570312 Q 651.61865234375 730.602783203125 686.241455078125 684.0034790039062 Q 720.9845581054688 647.264404296875 736.2943115234375 643.1023559570312 Q 774.4407348632812 624.3527221679688 734.3951416015625 595.2220458984375 Q 694.2841186523438 563.07763671875 674.6307983398438 563.547119140625 Q 655.5679931640625 562.0904541015625 628.1150512695312 575.9349365234375 L 556.9393310546875 591.9660034179688 Q 503.76568603515625 601.71630859375 458.3096008300781 604.0233154296875 Q 448.37664794921875 600.6504516601562 451.50152587890625 582.6596069335938 L 459.4371643066406 540.9486694335938 L 530.5502319335938 220.396240234375 Q 546.7183227539062 153.45980834960938 563.8053588867188 133.97341918945312 Q 578.0751953125 114.50614166259766 544.57275390625 95.5278091430664 Q 511.56463623046875 76.57762908935547 478.3995666503906 65.20647430419922" fill="rgb(0, 0, 0)" opacity="0.99856806" stroke-width="1.0"/>
  </g>
</svg>
