<?xml version="1.0" ?>
<svg height="1024" version="1.1" width="1024" xmlns="http://www.w3.org/2000/svg">
  <defs/>
  <g>
    <path d="M 835.9238891601562 735.0418090820312 C 837.6475830078125 736.0670776367188 829.3543090820312 735.59716796875 822.6708984375 738.5328369140625 C 801.4044799804688 742.7996826171875 743.2723999023438 752.1367797851562 701.1937255859375 756.3125 C 664.4082641601562 760.9179077148438 664.5594482421875 758.2888793945312 658.610107421875 761.346435546875 C 671.5201416015625 759.79052734375 615.0140991210938 763.9658813476562 591.0389404296875 765.3109130859375 C 493.0411682128906 769.6177978515625 414.3634033203125 776.8046264648438 376.085693359375 780.3272705078125 C 353.097900390625 781.587890625 363.8962707519531 781.9857788085938 348.9836120605469 782.084716796875 C 334.4176330566406 781.8714599609375 312.71014404296875 783.6898193359375 302.70947265625 785.0274047851562 C 272.92486572265625 787.84765625 232.4124755859375 790.287109375 189.04702758789062 790.2277221679688 C 131.6283721923828 790.9521484375 126.10981750488281 788.8001708984375 118.6089859008789 790.6124267578125 C 110.53884887695312 793.7671508789062 109.33546447753906 801.6737670898438 112.97992706298828 811.3204956054688 C 119.92389678955078 826.66357421875 146.89035034179688 844.4561157226562 170.48373413085938 850.6619873046875 C 185.5306396484375 854.6051635742188 198.82118225097656 854.8434448242188 216.3160858154297 851.0275268554688 C 241.75363159179688 844.5117797851562 277.7048034667969 838.9140014648438 328.9898681640625 832.5193481445312 C 420.427734375 821.2031860351562 476.8258361816406 816.4445190429688 530.4390258789062 814.5872192382812 C 551.87060546875 814.3058471679688 596.1021728515625 812.321044921875 623.957275390625 810.0614013671875 C 664.7996826171875 808.3660888671875 695.2901000976562 807.4761962890625 750.216796875 808.7542114257812 C 805.57080078125 810.738037109375 846.8978271484375 813.9456787109375 901.419921875 820.97802734375 C 919.9271850585938 823.5604858398438 938.2635498046875 826.916015625 943.1633911132812 810.6891479492188 C 942.798583984375 814.9417724609375 944.4740600585938 803.9188232421875 943.0947265625 802.752197265625 C 943.28857421875 796.0274658203125 929.6040649414062 784.6593017578125 915.7900390625 773.0452270507812 C 897.7789306640625 757.527587890625 866.1749877929688 739.647705078125 861.2238159179688 737.6763916015625 C 847.7669677734375 732.0722045898438 834.3026733398438 736.1023559570312 835.9238891601562 735.0418090820312" fill="rgb(0, 0, 0)" opacity="1.0" stroke-width="1.0"/>
  </g>
</svg>
