<?xml version="1.0" ?>
<svg height="1024" version="1.1" width="1024" xmlns="http://www.w3.org/2000/svg">
  <defs/>
  <g>
    <path d="M 385.6468811035156 82.87820434570312 Q 349.98126220703125 78.05755615234375 372.2657470703125 114.65751647949219 Q 378.5455322265625 124.71276092529297 368.6466979980469 223.726806640625 L 358.86663818359375 309.12921142578125 Q 335.6700134277344 463.5198059082031 324.6593017578125 469.4771423339844 Q 281.7685241699219 511.6667785644531 294.7264709472656 525.38525390625 Q 328.97137451171875 563.5926513671875 347.57135009765625 559.3568115234375 Q 389.4287414550781 532.9808959960938 467.08807373046875 512.8242797851562 L 520.1132202148438 500.7060546875 L 586.3399658203125 489.2294616699219 Q 697.7086791992188 473.71270751953125 708.5413208007812 475.5009765625 Q 749.0032958984375 476.8761901855469 744.6459350585938 537.1115112304688 L 730.113525390625 612.8642578125 Q 706.59814453125 711.17041015625 683.3718872070312 777.8528442382812 Q 669.262451171875 805.2636108398438 651.1668090820312 812.9215087890625 Q 593.1524658203125 804.1228637695312 548.9835815429688 788.7008666992188 Q 536.809814453125 790.8944702148438 548.9775390625 808.6866455078125 Q 589.69482421875 849.8923950195312 614.7571411132812 907.2251586914062 Q 632.0462646484375 934.3562622070312 653.9849243164062 924.8909301757812 Q 683.7044677734375 907.6578979492188 705.4600830078125 885.6257934570312 Q 731.3938598632812 859.697265625 747.0604858398438 824.5916748046875 L 761.9307250976562 763.4539184570312 Q 787.6233520507812 642.6715698242188 809.8699951171875 531.5464477539062 Q 847.8329467773438 484.9129943847656 842.6402587890625 480.4353942871094 Q 834.0149536132812 465.18597412109375 773.8052978515625 434.0397033691406 Q 757.177734375 426.36627197265625 722.25 429.256103515625 L 553.980712890625 456.7698974609375 Q 478.7782897949219 471.68902587890625 377.0736083984375 495.2723083496094 L 387.4625549316406 404.98077392578125 L 401.8038024902344 306.2283630371094 L 417.1457214355469 227.445068359375 Q 431.234130859375 168.31924438476562 443.26055908203125 134.83169555664062 Q 451.0417785644531 111.086181640625 399.89825439453125 86.67195892333984 L 385.6468811035156 82.87820434570312" fill="rgb(0, 0, 0)" opacity="0.9982788" stroke-width="1.0"/>
  </g>
</svg>
