<?xml version="1.0" ?>
<svg height="1024" version="1.1" width="1024" xmlns="http://www.w3.org/2000/svg">
  <defs/>
  <g>
    <path d="M 827.998291015625 174.87135314941406 C 834.8912963867188 173.04322814941406 825.7470703125 174.4573974609375 815.2346801757812 177.98826599121094 C 795.0982055664062 182.8897705078125 746.5398559570312 191.50498962402344 682.2587280273438 200.51622009277344 C 635.7360229492188 206.92127990722656 552.56640625 217.79786682128906 545.6053466796875 217.73037719726562 C 478.3004150390625 223.5672607421875 417.1436767578125 230.84628295898438 340.4334716796875 242.07220458984375 C 280.15423583984375 251.93846130371094 235.2491912841797 255.14755249023438 172.92108154296875 257.2742614746094 C 144.2943115234375 258.09637451171875 142.79881286621094 257.63128662109375 137.05116271972656 259.2509765625 C 129.43087768554688 262.2456970214844 130.1641845703125 266.4068908691406 128.97084045410156 270.69537353515625 C 129.77735900878906 277.6058654785156 132.35328674316406 283.69073486328125 141.6389923095703 292.425048828125 C 151.08018493652344 301.3183288574219 163.99021911621094 309.2247314453125 175.62252807617188 313.4815979003906 C 187.19496154785156 317.435791015625 195.90658569335938 319.2518615722656 212.2583465576172 319.4302673339844 C 223.2490692138672 318.554931640625 227.27456665039062 319.06573486328125 256.11297607421875 310.75732421875 C 283.8311462402344 304.1639709472656 306.9771728515625 298.881103515625 338.7096252441406 294.6190490722656 C 346.74383544921875 293.798828125 358.9336242675781 291.0451354980469 376.1268310546875 287.904541015625 C 438.230712890625 275.33990478515625 514.516357421875 267.4888916015625 594.4926147460938 261.4643859863281 C 610.4772338867188 260.6893310546875 621.1196899414062 259.4995422363281 640.4481811523438 257.7037048339844 C 660.2754516601562 256.2593994140625 685.6547241210938 253.27542114257812 691.715576171875 253.03709411621094 C 755.1159057617188 248.26380920410156 823.6172485351562 250.45570373535156 902.4073486328125 256.62689208984375 C 913.1611328125 257.45452880859375 921.833984375 259.0989990234375 931.6156616210938 255.9973907470703 C 937.6152954101562 252.08428955078125 934.1170654296875 256.22747802734375 939.0914306640625 249.39878845214844 C 942.1417236328125 241.72157287597656 942.8102416992188 241.70460510253906 940.272705078125 233.8490447998047 C 937.8619384765625 224.26705932617188 896.9115600585938 193.81834411621094 859.8037719726562 177.3834686279297 C 851.0438232421875 173.1614990234375 853.393310546875 174.39479064941406 844.6226196289062 173.03514099121094 C 833.8330078125 172.5071258544922 825.2616577148438 174.8059539794922 827.998291015625 174.87135314941406" fill="rgb(0, 0, 0)" opacity="0.9994702" stroke-width="1.0"/>
  </g>
</svg>
