<?xml version="1.0" ?>
<svg height="1024" version="1.1" width="1024" xmlns="http://www.w3.org/2000/svg">
  <defs/>
  <g>
    <path d="M 266.4515380859375 322.8293762207031 C 260.6854553222656 323.8654479980469 257.8381652832031 329.00616455078125 258.06402587890625 333.8084716796875 C 258.0484924316406 339.96978759765625 261.375 342.10675048828125 261.5098876953125 346.22882080078125 C 260.5726318359375 342.3135986328125 263.5246887207031 349.4701843261719 264.9148254394531 355.98272705078125 C 266.4592590332031 363.8648376464844 267.3899841308594 365.38226318359375 268.5170593261719 387.170654296875 C 268.5084228515625 405.4211120605469 266.69012451171875 425.958984375 261.2097473144531 457.9093933105469 C 255.90554809570312 485.1592712402344 252.18008422851562 501.0927429199219 252.3558807373047 497.7674255371094 C 246.19781494140625 510.90167236328125 235.19859313964844 522.5443115234375 223.59104919433594 536.3388061523438 C 221.8094940185547 537.327880859375 219.26260375976562 542.1434936523438 218.24696350097656 543.3377075195312 C 215.89170837402344 550.453369140625 213.50511169433594 554.7858276367188 217.8731689453125 564.2852783203125 C 221.4381866455078 571.044921875 250.3136749267578 595.1397094726562 252.66477966308594 595.673095703125 C 261.6011657714844 600.2319946289062 268.510986328125 596.0390014648438 274.2842712402344 593.2916870117188 C 280.93536376953125 587.8800048828125 289.8489074707031 585.3026123046875 293.2050476074219 582.9361572265625 C 350.94061279296875 555.9180908203125 438.5314025878906 534.0048828125 554.5972290039062 518.85400390625 C 640.312744140625 508.8247375488281 680.5209350585938 500.19146728515625 692.093994140625 527.31884765625 C 702.3753051757812 546.3785400390625 697.9927978515625 568.1952514648438 693.4813842773438 589.0777587890625 C 681.6878051757812 651.4305419921875 665.8934936523438 707.0520629882812 645.223876953125 770.2466430664062 C 636.9810791015625 794.6404418945312 637.3551635742188 797.671142578125 624.9160766601562 814.3916015625 C 613.7296142578125 827.0073852539062 605.368408203125 830.2609252929688 607.0187377929688 830.4395141601562 C 591.644775390625 831.2344970703125 524.4244995117188 807.393798828125 511.0932922363281 803.0440063476562 C 485.1143493652344 788.6127319335938 486.4657897949219 806.9473876953125 502.4765319824219 824.1126098632812 C 529.5145263671875 853.671142578125 551.0676879882812 883.5624389648438 564.158935546875 910.617431640625 C 573.3648071289062 932.7141723632812 585.3049926757812 940.2708129882812 594.5913696289062 940.961669921875 C 603.76953125 940.0210571289062 605.8015747070312 939.1703491210938 619.0664672851562 930.0760498046875 C 647.657470703125 910.595947265625 669.2572021484375 889.342529296875 685.283447265625 863.2134399414062 C 696.4806518554688 844.6377563476562 697.478271484375 840.3175048828125 708.4637451171875 797.9337158203125 C 716.7658081054688 764.09375 729.5601806640625 706.10693359375 743.9656372070312 634.8887329101562 C 752.2816772460938 593.95751953125 752.7675170898438 591.2512817382812 757.1663208007812 577.8734130859375 C 763.1547241210938 562.4340209960938 769.300537109375 550.1688232421875 779.9022216796875 540.0755004882812 C 789.3218383789062 530.5875854492188 792.8265991210938 523.9602661132812 792.0234375 517.5044555664062 C 791.5270385742188 513.9060668945312 790.8924560546875 513.20361328125 787.5932006835938 509.6556396484375 C 780.6787109375 503.1657409667969 775.7620849609375 501.21051025390625 770.0972290039062 496.4818115234375 C 754.6885375976562 486.8912048339844 726.4210205078125 469.9921875 719.7604370117188 468.4502258300781 C 700.3269653320312 463.03155517578125 673.047607421875 464.5966491699219 629.5421752929688 475.0570373535156 C 630.2965087890625 475.0279541015625 632.59912109375 475.5247802734375 610.0699462890625 478.05682373046875 C 572.7988891601562 483.1672668457031 559.723388671875 484.7719421386719 481.7905578613281 498.3750915527344 C 412.10540771484375 509.7925109863281 370.8816223144531 518.3290405273438 319.8216247558594 531.1017456054688 C 313.59417724609375 533.124755859375 301.64593505859375 532.4762573242188 302.7716064453125 531.6859130859375 C 295.8414001464844 530.780029296875 296.2230224609375 524.2164916992188 297.9642333984375 520.4595336914062 C 299.5728759765625 511.6412048339844 301.488525390625 498.40362548828125 302.66436767578125 492.9082336425781 C 310.4689636230469 449.6285705566406 320.13873291015625 406.8290100097656 332.6377258300781 378.57635498046875 C 336.8418273925781 366.39349365234375 335.098876953125 357.49969482421875 325.4147644042969 348.42816162109375 C 317.8623046875 341.519775390625 310.79217529296875 336.3126525878906 301.3800354003906 331.40338134765625 C 285.26025390625 323.6612548828125 271.1766052246094 321.11932373046875 266.4515380859375 322.8293762207031" fill="rgb(0, 0, 0)" opacity="0.99998355" stroke-width="1.0"/>
  </g>
</svg>
