<?xml version="1.0" ?>
<svg height="1024" version="1.1" width="1024" xmlns="http://www.w3.org/2000/svg">
  <defs/>
  <g>
    <path d="M 652.5517578125 578.8942260742188 C 651.240478515625 578.4361572265625 647.7772827148438 578.9547729492188 624.7454223632812 584.25927734375 C 617.0678100585938 585.4743041992188 595.3034057617188 590.2182006835938 576.1769409179688 593.2512817382812 C 547.50048828125 598.12353515625 542.7999877929688 599.8180541992188 523.05322265625 604.171875 C 507.8347473144531 607.460205078125 489.41168212890625 611.6023559570312 476.6029357910156 614.1221923828125 C 469.8136291503906 616.2855224609375 471.11578369140625 613.4148559570312 465.9417724609375 618.9730224609375 C 458.5843505859375 627.6827392578125 457.28582763671875 638.3878784179688 464.10418701171875 651.3101806640625 C 468.5259704589844 661.1029052734375 484.3320617675781 679.2542724609375 489.6728515625 679.8533325195312 C 496.7763671875 682.1561279296875 504.0849609375 678.300048828125 510.8721618652344 672.96728515625 C 526.0388793945312 660.6530151367188 541.3973999023438 653.3131713867188 562.7893676757812 645.53955078125 C 594.5933227539062 634.5136108398438 638.03369140625 625.385498046875 687.6910400390625 619.626708984375 C 706.0975952148438 616.9385375976562 712.489013671875 618.6832885742188 719.2431640625 612.5236206054688 C 719.3736572265625 612.7881469726562 720.7986450195312 611.5779418945312 720.908203125 606.1278686523438 C 719.9678344726562 597.4562377929688 709.9646606445312 587.7965087890625 694.1693725585938 578.3604125976562 C 688.5380859375 576.911376953125 705.169921875 576.1538696289062 652.5517578125 578.8942260742188" fill="rgb(0, 0, 0)" opacity="1.0" stroke-width="1.0"/>
  </g>
</svg>
