<?xml version="1.0" ?>
<svg height="1024" version="1.1" width="1024" xmlns="http://www.w3.org/2000/svg">
  <defs/>
  <g>
    <path d="M 680.5260009765625 802.8500366210938 C 613.4140014648438 815.1084594726562 429.98358154296875 836.603271484375 268.0897521972656 853.73828125 C 254.74310302734375 855.3895874023438 224.2051239013672 858.2218017578125 231.66038513183594 858.2611083984375 C 224.05543518066406 858.8181762695312 226.16970825195312 865.1990966796875 225.0862579345703 865.0623779296875 C 227.30328369140625 874.1351318359375 239.42156982421875 885.3753662109375 250.8829803466797 892.454345703125 C 262.86785888671875 899.3001098632812 274.7874450683594 902.9091186523438 289.1614685058594 903.0934448242188 C 298.6919860839844 903.102294921875 302.09552001953125 901.3687744140625 315.72430419921875 898.787353515625 C 384.0390930175781 884.5761108398438 462.4960021972656 876.3499145507812 549.4712524414062 873.0548706054688 C 606.1881103515625 871.0525512695312 662.3027954101562 871.1619873046875 720.951416015625 873.010986328125 C 758.3360595703125 872.9960327148438 763.5692749023438 877.7938232421875 779.0965576171875 872.6802978515625 C 788.7549438476562 868.2411499023438 789.7319946289062 859.0628051757812 785.6792602539062 851.5361328125 C 782.8804931640625 845.1369018554688 776.9179077148438 839.986328125 763.2534790039062 830.0908813476562 C 730.1574096679688 806.7833862304688 703.7333374023438 799.3705444335938 680.5260009765625 802.8500366210938" fill="rgb(0, 0, 0)" opacity="1.0" stroke-width="1.0"/>
  </g>
</svg>
