<?xml version="1.0" ?>
<svg height="1024" version="1.1" width="1024" xmlns="http://www.w3.org/2000/svg">
  <defs/>
  <g>
    <path d="M 794.0789794921875 361.977783203125 C 796.7470092773438 361.699951171875 794.9158935546875 361.1878356933594 782.7080688476562 365.350830078125 C 757.5703735351562 372.2635192871094 718.3966674804688 377.763916015625 652.34423828125 382.7579650878906 C 586.7042236328125 388.123046875 544.6871337890625 392.5101623535156 489.3735046386719 400.1838073730469 C 469.4002990722656 403.5301513671875 453.5860595703125 404.7543029785156 457.9334716796875 404.9336853027344 C 430.7485046386719 406.91949462890625 409.857421875 410.2381591796875 389.0690612792969 414.62664794921875 C 341.6133728027344 423.76446533203125 278.9689636230469 434.0884094238281 231.19822692871094 439.94708251953125 C 222.14988708496094 441.0816650390625 216.58554077148438 441.6690368652344 212.3972625732422 445.6697692871094 C 205.82180786132812 452.34991455078125 209.4334259033203 466.5060119628906 218.006103515625 473.3656921386719 C 222.2502899169922 478.3411560058594 233.37054443359375 483.289306640625 243.651611328125 479.0404357910156 C 240.9049530029297 481.9753723144531 245.81175231933594 476.420166015625 248.6374053955078 475.4686584472656 C 268.2909240722656 465.1225891113281 324.9055480957031 455.5489501953125 424.2745056152344 445.46771240234375 C 465.76983642578125 441.4871520996094 503.3100891113281 436.576171875 509.10272216796875 436.29913330078125 C 542.0560302734375 430.6766357421875 593.798095703125 426.9192810058594 652.5404052734375 423.41229248046875 C 705.82763671875 420.5032958984375 769.1041259765625 417.9535217285156 770.7432861328125 417.9281005859375 C 785.6909790039062 419.3817443847656 789.4771118164062 423.5031433105469 794.2084350585938 429.6773681640625 C 799.3812866210938 443.80078125 800.0226440429688 451.180908203125 800.2722778320312 501.63201904296875 C 801.0247802734375 599.2810668945312 794.9884033203125 681.050048828125 782.868408203125 741.8897094726562 C 778.0684204101562 763.876220703125 776.0005493164062 779.9478759765625 760.07373046875 789.5769653320312 C 744.0997314453125 797.4149169921875 732.414794921875 791.1188354492188 712.6123657226562 786.950439453125 C 696.0750732421875 782.9735107421875 677.64306640625 777.7384033203125 675.9678955078125 776.95849609375 C 669.988037109375 774.5182495117188 663.0867309570312 772.7722778320312 661.6212768554688 777.4628295898438 C 659.7202758789062 775.6631469726562 661.4927368164062 788.0759887695312 665.5449829101562 794.2443237304688 C 668.19384765625 800.0576782226562 672.1913452148438 804.5330810546875 680.1092529296875 813.3523559570312 C 714.1334838867188 852.8563842773438 738.2621459960938 885.2976684570312 750.2747192382812 908.869140625 C 759.6824340820312 931.7077026367188 774.6693725585938 938.5820922851562 789.4313354492188 924.8005981445312 C 798.4982299804688 918.7130737304688 813.7470703125 892.4803466796875 821.5756225585938 872.1730346679688 C 835.2217407226562 837.9644165039062 846.4085083007812 791.1192016601562 855.5014038085938 732.4448852539062 C 860.5607299804688 698.9066772460938 863.4324951171875 677.8605346679688 866.8005981445312 637.8787231445312 C 875.9903564453125 536.95263671875 882.7177124023438 485.2646484375 888.7854614257812 457.06256103515625 C 891.4457397460938 446.1526794433594 893.2000122070312 440.98260498046875 896.4689331054688 437.9342041015625 C 904.5223388671875 428.89556884765625 906.8466186523438 419.1759948730469 905.1849975585938 420.7677917480469 C 907.0823974609375 416.49932861328125 904.90380859375 413.92041015625 900.0684814453125 410.33831787109375 C 899.178955078125 411.0650329589844 899.359619140625 410.1167297363281 893.4588012695312 404.6180725097656 C 878.8116455078125 392.4595947265625 867.6328125 385.455078125 839.2908325195312 372.0220947265625 C 824.4332275390625 362.0760498046875 819.527099609375 363.09930419921875 818.1435546875 362.1109619140625 C 804.1637573242188 359.9339294433594 803.3475952148438 360.6336669921875 794.0789794921875 361.977783203125" fill="rgb(0, 0, 0)" opacity="0.9993863" stroke-width="1.0"/>
  </g>
</svg>
