<?xml version="1.0" ?>
<svg height="1024" version="1.1" width="1024" xmlns="http://www.w3.org/2000/svg">
  <defs/>
  <g>
    <path d="M 638.9602661132812 127.5206069946289 C 640.5213623046875 125.45491790771484 631.1500244140625 129.1473388671875 632.0980834960938 131.06578063964844 C 630.637939453125 131.13739013671875 629.332275390625 136.509033203125 632.1351318359375 144.06338500976562 C 636.8173828125 153.6549072265625 635.724609375 162.18214416503906 636.022216796875 166.0880584716797 C 634.4120483398438 181.457275390625 634.5149536132812 182.02780151367188 628.1484985351562 204.90956115722656 C 620.1315307617188 231.27915954589844 605.1015014648438 267.20904541015625 583.1654663085938 311.4058532714844 C 554.8558959960938 366.4891357421875 550.031005859375 376.87347412109375 531.7908935546875 398.5541687011719 C 525.8651123046875 406.57965087890625 500.73651123046875 431.82745361328125 495.82342529296875 434.2194519042969 C 485.23291015625 442.6959228515625 481.46319580078125 448.9703674316406 480.77471923828125 458.1755065917969 C 482.74810791015625 470.02093505859375 491.3537902832031 486.7401123046875 500.56060791015625 497.58795166015625 C 507.2007141113281 502.43304443359375 511.230224609375 505.5395812988281 524.18115234375 500.7016296386719 C 534.58935546875 494.70684814453125 569.854736328125 484.9514465332031 601.19921875 479.2314758300781 C 631.0615844726562 473.207763671875 652.1820678710938 470.3688049316406 655.6622924804688 469.3495178222656 C 664.8302612304688 471.78466796875 681.1853637695312 465.7913513183594 684.0859375 462.9004211425781 C 683.727783203125 464.362548828125 693.175048828125 457.03009033203125 691.2689819335938 458.7118225097656 C 698.6541748046875 451.8505859375 697.8773193359375 447.82867431640625 695.75634765625 445.0570068359375 C 688.7227783203125 440.859619140625 689.856201171875 442.2782287597656 630.337890625 441.997802734375 C 570.0117797851562 441.935791015625 578.9459228515625 442.353515625 567.0494384765625 440.3260498046875 C 559.93310546875 436.65081787109375 557.700927734375 434.9006042480469 561.0364990234375 426.28118896484375 C 564.30810546875 421.1729736328125 569.7175903320312 413.1041564941406 578.2921752929688 397.9246520996094 C 621.7515869140625 324.9779968261719 660.138671875 267.35894775390625 703.7608032226562 210.5782012939453 C 716.4293212890625 195.4041748046875 717.4231567382812 189.806396484375 717.520751953125 186.03372192382812 C 715.4600219726562 173.55474853515625 703.165283203125 160.76646423339844 679.4086303710938 141.22850036621094 C 667.9811401367188 132.5299072265625 663.4486083984375 125.93009185791016 645.9979248046875 125.6407699584961 C 647.8615112304688 125.7303237915039 635.1699829101562 126.75164794921875 638.9602661132812 127.5206069946289" fill="rgb(0, 0, 0)" opacity="0.99985665" stroke-width="1.0"/>
  </g>
</svg>
