<?xml version="1.0" ?>
<svg height="1024" version="1.1" width="1024" xmlns="http://www.w3.org/2000/svg">
  <defs/>
  <g>
    <path d="M 783.4799194335938 364.99951171875 Q 750.85595703125 376.5065002441406 583.36181640625 388.3693542480469 L 411.3315124511719 410.16845703125 Q 318.68304443359375 428.9358215332031 217.6907501220703 441.7842102050781 Q 198.99685668945312 453.70208740234375 219.40000915527344 475.0549011230469 Q 234.72833251953125 488.0787353515625 258.37786865234375 469.9288024902344 L 327.6194152832031 456.4217224121094 L 588.8345947265625 427.00531005859375 L 758.2316284179688 418.0837097167969 Q 783.3648681640625 416.7498779296875 790.1119995117188 425.2256774902344 Q 800.3228759765625 430.84075927734375 800.1830444335938 482.3075866699219 L 800.1555786132812 551.7535400390625 Q 797.1127319335938 689.6658325195312 777.2604370117188 766.226806640625 Q 767.32177734375 796.0243530273438 739.1129150390625 793.1278686523438 Q 702.780517578125 785.3853759765625 669.5014038085938 774.7928466796875 Q 651.9547729492188 771.9700927734375 669.9539184570312 801.9794921875 Q 692.8734130859375 826.9931030273438 722.64990234375 865.8623046875 Q 745.93310546875 897.7008056640625 753.5472412109375 916.0641479492188 Q 770.8837890625 945.5394287109375 794.51708984375 920.161376953125 Q 813.034912109375 897.5408325195312 826.1651000976562 859.8215942382812 Q 849.0575561523438 796.4871826171875 864.3803100585938 666.7626342773438 Q 876.0610961914062 520.6014404296875 890.6722412109375 446.1259765625 Q 909.6817626953125 422.05535888671875 905.3551025390625 415.51055908203125 Q 881.5673217773438 390.7986145019531 839.3081665039062 372.2784118652344 Q 814.3700561523438 353.9817199707031 783.4799194335938 364.99951171875" fill="rgb(0, 0, 0)" opacity="0.9999735" stroke-width="1.0"/>
  </g>
</svg>
