<?xml version="1.0" ?>
<svg height="1024" version="1.1" width="1024" xmlns="http://www.w3.org/2000/svg">
  <defs/>
  <g>
    <path d="M 629.189453125 132.26332092285156 Q 638.0867309570312 158.61080932617188 635.5882568359375 171.37261962890625 Q 629.0780639648438 220.1186065673828 585.9615478515625 304.777587890625 Q 544.7466430664062 398.0927429199219 495.81097412109375 433.97149658203125 Q 475.1432800292969 450.4522399902344 483.6069641113281 467.82513427734375 Q 500.4031982421875 510.6219177246094 520.6732177734375 501.8357238769531 Q 546.4527587890625 490.18475341796875 593.2245483398438 480.77008056640625 Q 646.5777587890625 469.7280578613281 673.5474853515625 468.3966979980469 Q 709.9105834960938 451.97509765625 690.540771484375 442.1416015625 Q 650.2676391601562 441.8415832519531 583.6824951171875 442.033935546875 Q 555.9614868164062 441.8434143066406 560.1192016601562 428.64666748046875 Q 590.1253662109375 377.26416015625 622.5144653320312 326.1933288574219 Q 667.6066284179688 256.5599365234375 714.7788696289062 196.14810180664062 Q 727.4031982421875 178.4368133544922 678.99755859375 141.19224548339844 Q 651.5983276367188 115.24559020996094 629.189453125 132.26332092285156" fill="rgb(0, 0, 0)" opacity="1.0" stroke-width="1.0"/>
  </g>
</svg>
