<?xml version="1.0" ?>
<svg height="1024" version="1.1" width="1024" xmlns="http://www.w3.org/2000/svg">
  <defs/>
  <g>
    <path d="M 606.7359619140625 429.9316711425781 C 601.2210083007812 434.554443359375 601.5679931640625 447.97479248046875 607.3992309570312 462.4641418457031 C 608.7640991210938 466.4341735839844 613.5904541015625 474.8749084472656 631.7899169921875 505.0660400390625 C 675.2767944335938 576.3151245117188 725.520263671875 644.3026123046875 779.6179809570312 703.0386962890625 C 795.1220703125 719.9906616210938 799.9736328125 724.8179931640625 812.9091796875 731.21630859375 C 823.8272705078125 734.9498901367188 824.7597045898438 734.7114868164062 845.6832275390625 732.10498046875 C 870.3646240234375 729.5123901367188 898.8232421875 726.29150390625 923.3318481445312 724.5652465820312 C 939.9473876953125 722.8324584960938 948.92724609375 723.3486938476562 957.5718994140625 720.7630004882812 C 964.8154296875 718.118408203125 966.082763671875 714.2783203125 960.5549926757812 709.1395263671875 C 956.6869506835938 705.455078125 948.0487670898438 700.4683837890625 920.7726440429688 688.174072265625 C 851.7463989257812 656.093017578125 803.7752075195312 630.0365600585938 775.6742553710938 607.5322265625 C 765.2348022460938 599.21728515625 732.9806518554688 567.9230346679688 711.7052612304688 545.4060668945312 C 681.8153076171875 513.6813354492188 659.010986328125 486.7927551269531 632.8118896484375 453.5279541015625 C 617.0361938476562 432.3006896972656 615.2954711914062 430.3023986816406 608.7433471679688 428.92449951171875 C 605.035888671875 431.4727783203125 611.6868286132812 428.7595520019531 606.7359619140625 429.9316711425781" fill="rgb(0, 0, 0)" opacity="0.9998512" stroke-width="1.0"/>
  </g>
</svg>
