<?xml version="1.0" ?>
<svg height="1024" version="1.1" width="1024" xmlns="http://www.w3.org/2000/svg">
  <defs/>
  <g>
    <path d="M 541.2957153320312 129.13955688476562 C 536.667236328125 128.70822143554688 529.9814453125 138.69078063964844 533.6558837890625 153.90447998046875 L 531.912109375 164.36953735351562 L 528.1021728515625 173.07032775878906 C 510.2833557128906 209.08326721191406 455.25274658203125 264.60589599609375 357.53167724609375 346.071044921875 C 334.0863342285156 364.5523681640625 329.0611877441406 370.5978088378906 332.3603210449219 377.66815185546875 C 335.6521301269531 377.3603210449219 329.71929931640625 378.9859619140625 339.838623046875 379.46868896484375 C 346.69317626953125 379.43780517578125 352.9537658691406 377.39703369140625 374.2998352050781 365.2447509765625 C 445.7237548828125 327.1087951660156 513.6917724609375 284.0592346191406 557.1903686523438 248.62486267089844 C 579.0411376953125 231.33059692382812 635.0003051757812 196.2185821533203 659.0681762695312 187.28207397460938 C 666.7803344726562 185.6614532470703 678.2261962890625 176.75111389160156 675.6497802734375 172.1298828125 C 677.7061157226562 162.72962951660156 664.9456787109375 150.2934112548828 655.8204345703125 147.40113830566406 C 641.5469360351562 141.8262176513672 614.2951049804688 135.1122589111328 585.0867919921875 130.65208435058594 C 570.2105712890625 128.79006958007812 558.014892578125 124.9614486694336 541.2957153320312 129.13955688476562" fill="rgb(0, 0, 0)" opacity="1.0" stroke-width="1.0"/>
  </g>
</svg>
