<?xml version="1.0" ?>
<svg height="1024" version="1.1" width="1024" xmlns="http://www.w3.org/2000/svg">
  <defs/>
  <g>
    <path d="M 489.6913757324219 553.1099853515625 C 481.6289367675781 555.189697265625 478.10784912109375 557.6298828125 474.69012451171875 563.0857543945312 C 474.2146911621094 564.8101806640625 470.3196105957031 566.6030883789062 470.8583068847656 579.7813720703125 C 468.95806884765625 601.0660400390625 464.7017517089844 615.1727294921875 454.6461181640625 636.8212890625 C 437.7236328125 670.5516357421875 413.0369567871094 703.2428588867188 375.86785888671875 741.0543212890625 C 359.9095153808594 758.1045532226562 340.5405578613281 771.9512939453125 321.9737854003906 783.1701049804688 C 309.73187255859375 790.5186767578125 287.26300048828125 803.056396484375 271.6134338378906 808.3997802734375 C 261.8250732421875 813.5728759765625 255.36611938476562 816.8021850585938 251.34075927734375 823.1718139648438 C 242.52272033691406 847.6690063476562 264.9527587890625 888.2758178710938 274.51348876953125 895.1046142578125 C 285.41448974609375 904.6670532226562 296.56805419921875 902.6158447265625 308.3009948730469 895.7177734375 C 365.22113037109375 865.4110107421875 448.2873229980469 839.0104370117188 555.949462890625 814.9378051757812 C 600.58642578125 804.902099609375 671.3013916015625 791.3981323242188 684.2564086914062 789.5317993164062 C 708.4186401367188 787.3440551757812 706.4527587890625 784.8170166015625 709.3005981445312 784.0724487304688 C 720.6953735351562 775.4046630859375 706.1211547851562 763.3624877929688 686.2839965820312 763.7626342773438 C 676.8125610351562 764.2174072265625 517.436767578125 783.4314575195312 420.0918884277344 796.8973388671875 C 390.1698303222656 800.6900024414062 378.029052734375 804.0696411132812 383.6293029785156 792.1138916015625 C 383.5710754394531 792.355712890625 424.829833984375 743.9674072265625 463.8070068359375 701.2147216796875 C 490.7790832519531 671.4430541992188 531.4484252929688 628.5402221679688 554.5722045898438 611.3043823242188 C 557.0057983398438 609.21337890625 564.4666137695312 603.275634765625 566.8316040039062 597.7830200195312 C 572.0422973632812 590.5626220703125 564.8441772460938 577.2802734375 539.7260131835938 565.3605346679688 C 519.9718627929688 553.3980712890625 502.44781494140625 550.6371459960938 489.6913757324219 553.1099853515625" fill="rgb(0, 0, 0)" opacity="0.9992967" stroke-width="1.0"/>
  </g>
</svg>
