<?xml version="1.0" ?>
<svg height="1024" version="1.1" width="1024" xmlns="http://www.w3.org/2000/svg">
  <defs/>
  <g>
    <path d="M 343.02587890625 229.16404724121094 C 339.63934326171875 229.36581420898438 333.84857177734375 237.2622833251953 336.430419921875 244.60775756835938 C 335.9097595214844 246.23794555664062 338.6982727050781 253.70814514160156 342.0549621582031 261.2846374511719 C 358.6661071777344 302.57421875 371.6036682128906 346.15576171875 378.8514404296875 395.7138366699219 C 382.34771728515625 416.28875732421875 384.5876159667969 510.0601806640625 383.8282165527344 681.2967529296875 C 383.3938903808594 788.0147705078125 382.6197204589844 805.8961791992188 383.2259521484375 807.91455078125 C 385.2245178222656 819.590576171875 394.39398193359375 824.7236328125 404.6430969238281 824.5619506835938 C 412.8011169433594 824.1151123046875 418.4216613769531 821.77978515625 424.6285095214844 814.7991943359375 C 430.3526306152344 803.805908203125 428.8873596191406 812.7107543945312 428.2763977050781 757.3176879882812 C 427.365478515625 721.2630615234375 426.2527160644531 656.1488647460938 425.8725280761719 588.4503173828125 C 425.15789794921875 438.0914306640625 428.4006042480469 355.4771728515625 434.49761962890625 313.8877258300781 C 437.3231201171875 297.20635986328125 438.9138488769531 284.7452392578125 431.08758544921875 271.12823486328125 C 428.8131103515625 263.22222900390625 399.10089111328125 240.75535583496094 372.12786865234375 231.66360473632812 C 358.61480712890625 225.37557983398438 348.2392578125 225.1519317626953 343.02587890625 229.16404724121094" fill="rgb(0, 0, 0)" opacity="1.0" stroke-width="1.0"/>
  </g>
</svg>
