<?xml version="1.0" ?>
<svg height="1024" version="1.1" width="1024" xmlns="http://www.w3.org/2000/svg">
  <defs/>
  <g>
    <path d="M 309.9373779296875 150.99960327148438 C 304.760009765625 153.5106658935547 303.57867431640625 158.72825622558594 306.7381286621094 169.19439697265625 C 308.35943603515625 171.29940795898438 311.00714111328125 182.10475158691406 309.4801025390625 190.76361083984375 C 310.1567687988281 193.81739807128906 306.42510986328125 214.93507385253906 299.72857666015625 232.08616638183594 C 288.6097106933594 265.5161437988281 262.0777893066406 317.3974914550781 233.666259765625 366.24237060546875 C 220.82852172851562 388.4908447265625 202.37330627441406 409.2858581542969 180.98231506347656 428.42034912109375 C 170.12217712402344 437.92010498046875 161.7164764404297 441.8502197265625 158.88011169433594 454.9345397949219 C 161.80921936035156 451.8407287597656 158.53672790527344 451.3095397949219 158.8292694091797 455.8682556152344 C 158.7345428466797 460.0350341796875 163.65069580078125 475.4138488769531 170.0059356689453 484.70721435546875 C 179.5803985595703 502.0591125488281 188.65121459960938 503.9378662109375 200.56710815429688 498.2148132324219 C 225.7306365966797 486.10809326171875 268.194580078125 477.4051208496094 334.53912353515625 469.0771789550781 C 361.11822509765625 465.99176025390625 361.0524597167969 465.929443359375 371.1182556152344 462.02325439453125 C 385.1468200683594 455.3478698730469 388.5495910644531 448.27618408203125 382.5834045410156 444.4738464355469 C 374.2687072753906 441.1702880859375 385.4168701171875 442.1440124511719 300.2471618652344 442.00531005859375 C 250.35337829589844 441.7407531738281 251.0803985595703 443.1097717285156 239.48109436035156 439.0578918457031 C 232.199462890625 433.109619140625 237.4070281982422 427.7071838378906 240.1872100830078 423.12908935546875 C 243.38522338867188 419.5291442871094 248.18955993652344 410.7562561035156 254.37734985351562 401.2056579589844 C 289.27081298828125 345.1927795410156 332.0414733886719 284.3394470214844 367.4395751953125 240.57952880859375 C 382.0092468261719 221.6796875 388.8687744140625 217.389404296875 387.2176818847656 207.0478057861328 C 385.6748046875 200.9163055419922 383.1002502441406 194.69219970703125 371.42645263671875 182.25201416015625 C 359.7203674316406 170.7609100341797 340.6014404296875 154.87037658691406 335.6551513671875 153.9104766845703 C 330.9210510253906 151.27890014648438 325.42633056640625 150.4937286376953 319.9057312011719 149.70816040039062 C 310.8247375488281 150.0751953125 310.7921142578125 150.78512573242188 309.9373779296875 150.99960327148438" fill="rgb(0, 0, 0)" opacity="0.9991911" stroke-width="1.0"/>
  </g>
</svg>
