<?xml version="1.0" ?>
<svg height="1024" version="1.1" width="1024" xmlns="http://www.w3.org/2000/svg">
  <defs/>
  <g>
    <path d="M 273.5050048828125 180.0703125 C 264.5816650390625 182.84451293945312 256.02490234375 186.49754333496094 258.8798828125 197.8944549560547 C 258.0863342285156 197.84579467773438 260.0968017578125 203.2093963623047 264.3968200683594 209.6543731689453 C 273.7395935058594 227.0793914794922 277.763671875 246.8680877685547 279.8795471191406 269.1603698730469 C 283.5459899902344 311.0984191894531 277.7807922363281 367.2276306152344 265.0892639160156 430.4919128417969 C 260.2012023925781 450.6319274902344 256.67291259765625 464.3563232421875 251.78379821777344 475.9600524902344 C 221.77456665039062 553.9881591796875 161.21609497070312 630.1604614257812 73.42800903320312 704.5045166015625 C 58.047515869140625 717.4444580078125 59.46063995361328 715.8755493164062 55.55475997924805 722.3744506835938 C 54.0796012878418 730.918701171875 75.79985809326172 727.0155639648438 104.85753631591797 714.5028076171875 C 125.6359634399414 706.2080688476562 159.71075439453125 685.8781127929688 181.9864959716797 667.0296630859375 C 194.74038696289062 657.3042602539062 226.4855499267578 625.5482177734375 236.79019165039062 612.2161254882812 C 260.629638671875 583.1936645507812 282.2928161621094 545.1719970703125 300.24090576171875 502.4635314941406 C 320.2799987792969 454.4141845703125 315.9799499511719 456.0267639160156 330.29986572265625 381.7518005371094 C 337.8979187011719 338.08587646484375 345.2479248046875 299.2520446777344 344.280517578125 302.17913818359375 C 346.3539123535156 281.1612243652344 350.8262023925781 259.6920471191406 361.5881652832031 234.3413543701172 C 365.1948547363281 225.57745361328125 365.6965026855469 215.59771728515625 356.2444152832031 209.2624053955078 C 352.3103332519531 207.9157257080078 329.81793212890625 191.11631774902344 305.1648254394531 183.08570861816406 C 295.4526062011719 179.78761291503906 284.33013916015625 177.9735565185547 273.5050048828125 180.0703125" fill="rgb(0, 0, 0)" opacity="0.9991462" stroke-width="1.0"/>
  </g>
</svg>
