<?xml version="1.0" ?>
<svg height="1024" version="1.1" width="1024" xmlns="http://www.w3.org/2000/svg">
  <defs/>
  <g>
    <path d="M 454.8927307128906 66.15068817138672 Q 461.74066162109375 91.65684509277344 457.892333984375 117.3135986328125 Q 453.68438720703125 160.643798828125 423.3497314453125 253.71116638183594 L 393.3290710449219 335.7189025878906 L 365.46258544921875 406.02294921875 Q 334.7919921875 475.1258544921875 307.08062744140625 511.8953552246094 Q 289.9229431152344 534.878173828125 272.0010070800781 549.5677490234375 Q 251.52383422851562 569.9554443359375 263.7017517089844 611.6427612304688 Q 269.43035888671875 635.6958618164062 281.4691467285156 634.8794555664062 L 404.2768249511719 602.3406372070312 L 581.703369140625 576.5924072265625 Q 671.2804565429688 566.2614135742188 709.4457397460938 564.6407470703125 Q 769.91259765625 560.3411254882812 748.75830078125 534.9559326171875 Q 731.132080078125 514.6992797851562 711.2887573242188 508.01611328125 Q 684.6889038085938 501.39251708984375 620.3103637695312 512.8387451171875 L 516.5089111328125 534.870361328125 Q 378.53521728515625 557.503173828125 351.62579345703125 558.8470458984375 L 489.47222900390625 227.9551239013672 Q 526.9596557617188 144.1969757080078 556.9483032226562 123.11907958984375 Q 567.8157958984375 109.14342498779297 503.8943786621094 66.82196044921875 Q 448.8427734375 33.63678741455078 454.8927307128906 66.15068817138672" fill="rgb(0, 0, 0)" opacity="0.9996124" stroke-width="1.0"/>
  </g>
</svg>
