<?xml version="1.0" ?>
<svg height="1024" version="1.1" width="1024" xmlns="http://www.w3.org/2000/svg">
  <defs/>
  <g>
    <path d="M 736.458984375 218.49368286132812 C 739.321533203125 217.2065887451172 735.2476196289062 219.4585723876953 737.059814453125 218.34005737304688 C 727.4814453125 219.51416015625 712.9230346679688 223.93760681152344 693.8963623046875 229.59107971191406 C 588.9219970703125 259.8486022949219 511.5084533691406 278.12445068359375 435.1405944824219 289.8153991699219 C 395.1414489746094 297.2384033203125 285.9748229980469 307.5160827636719 208.99462890625 312.5915222167969 C 196.5221710205078 313.4537353515625 187.55764770507812 314.56781005859375 182.180419921875 317.5552673339844 C 180.53457641601562 318.1554870605469 177.17340087890625 320.1517639160156 176.99940490722656 322.4005126953125 C 176.1387176513672 324.9287414550781 175.3756561279297 322.3018798828125 177.27467346191406 328.12249755859375 C 183.75987243652344 338.7071838378906 198.51220703125 347.1614990234375 218.55882263183594 353.0614013671875 C 246.90359497070312 360.633056640625 282.20849609375 361.0632019042969 325.4954528808594 354.73321533203125 C 337.3290100097656 352.8837585449219 351.1872863769531 350.7580261230469 363.49700927734375 348.9923400878906 C 413.27838134765625 343.0937805175781 442.3760681152344 338.42364501953125 501.6196594238281 328.3858642578125 C 571.0473022460938 316.95892333984375 600.8048706054688 312.05517578125 680.8760375976562 299.67535400390625 C 730.8779296875 292.48358154296875 776.7911987304688 281.6832580566406 798.0718383789062 275.5335998535156 C 813.58447265625 270.5270690917969 818.824462890625 268.5669860839844 823.655517578125 263.4548034667969 C 834.488525390625 249.9114227294922 825.8439331054688 235.57424926757812 797.9231567382812 225.340576171875 C 797.1572265625 224.71206665039062 777.3487548828125 218.5114288330078 779.2967529296875 219.86668395996094 C 775.5684814453125 218.2132568359375 753.826416015625 215.6181640625 736.458984375 218.49368286132812" fill="rgb(0, 0, 0)" opacity="0.99938446" stroke-width="1.0"/>
  </g>
</svg>
