<?xml version="1.0" ?>
<svg height="1024" version="1.1" width="1024" xmlns="http://www.w3.org/2000/svg">
  <defs/>
  <g>
    <path d="M 848.2609252929688 469.2315368652344 C 849.5022583007812 468.8238830566406 833.2349853515625 473.6705017089844 827.2355346679688 475.9493103027344 C 795.39892578125 485.7133483886719 755.8419799804688 494.41229248046875 708.6871337890625 499.8982238769531 C 655.8359985351562 506.698974609375 577.6290283203125 517.2034301757812 517.459716796875 526.6679077148438 C 496.8829650878906 530.2333374023438 475.1213073730469 532.5057983398438 457.38720703125 534.864990234375 C 391.7256774902344 543.5346069335938 340.18707275390625 551.09033203125 278.4105224609375 562.0160522460938 C 213.1277618408203 573.6508178710938 153.3226318359375 580.8345336914062 101.70137786865234 582.595458984375 C 85.79108428955078 583.365478515625 87.31378173828125 582.594970703125 84.14715576171875 584.2711791992188 C 79.21845245361328 585.2662963867188 76.25240325927734 589.9421997070312 75.80201721191406 595.6281127929688 C 77.70933532714844 608.2534790039062 86.47681427001953 615.3772583007812 102.0162353515625 626.558349609375 C 116.37554931640625 635.67919921875 119.73968505859375 637.1302490234375 134.36790466308594 642.5556640625 C 136.26316833496094 643.31494140625 146.29737854003906 645.1858520507812 156.50965881347656 645.201171875 C 170.77999877929688 643.3721313476562 164.8387451171875 644.7057495117188 178.29103088378906 640.542236328125 C 215.28184509277344 625.6862182617188 240.02774047851562 619.0140380859375 269.0745849609375 611.1029052734375 C 327.4168395996094 596.4744873046875 388.5697937011719 584.2692260742188 491.36297607421875 571.4305419921875 C 514.0618286132812 568.125 538.0697631835938 565.5140991210938 556.0808715820312 562.2962646484375 C 675.7376098632812 544.080810546875 784.6865234375 539.4049682617188 897.0189819335938 546.2438354492188 C 935.005615234375 549.0640258789062 938.548828125 549.9766845703125 952.333984375 547.9738159179688 C 965.7992553710938 544.5494384765625 964.598876953125 540.9644775390625 966.6124267578125 532.4358520507812 C 965.18505859375 526.1244506835938 967.5682373046875 528.4931030273438 963.1512451171875 521.8804931640625 C 960.1104125976562 516.8095092773438 946.04638671875 505.3948974609375 932.278076171875 496.2503967285156 C 914.5909423828125 484.2135925292969 893.35302734375 474.35089111328125 879.1004028320312 468.6812744140625 C 868.382080078125 465.6004638671875 861.8588256835938 466.16412353515625 848.2609252929688 469.2315368652344" fill="rgb(0, 0, 0)" opacity="0.9991671" stroke-width="1.0"/>
  </g>
</svg>
