<?xml version="1.0" ?>
<svg height="1024" version="1.1" width="1024" xmlns="http://www.w3.org/2000/svg">
  <defs/>
  <g>
    <path d="M 185.7531280517578 479.15655517578125 C 181.05043029785156 483.89117431640625 182.05380249023438 500.1077575683594 182.22166442871094 494.0533142089844 C 183.2493896484375 500.423095703125 192.0902099609375 512.990478515625 208.8060760498047 529.7692260742188 C 228.18849182128906 550.3552856445312 247.53370666503906 572.1795043945312 265.8787536621094 594.4817504882812 C 280.5640869140625 612.1873779296875 287.2146911621094 618.8341064453125 303.5484619140625 620.2218627929688 C 311.9166564941406 618.2440795898438 317.4637756347656 615.705322265625 322.4183044433594 603.5596923828125 C 327.5410461425781 588.822998046875 322.7743225097656 557.5553588867188 319.48614501953125 551.6493530273438 C 312.58319091796875 536.7330932617188 297.0671691894531 523.9817504882812 277.9239501953125 512.3775634765625 C 263.08831787109375 503.31378173828125 240.78094482421875 492.70294189453125 220.05990600585938 484.63287353515625 C 204.1012725830078 477.9757080078125 198.91566467285156 477.00634765625 191.04246520996094 476.41278076171875 L 187.53053283691406 476.9815368652344 L 185.7531280517578 479.15655517578125" fill="rgb(0, 0, 0)" opacity="0.999099" stroke-width="1.0"/>
  </g>
</svg>
