<?xml version="1.0" ?>
<svg height="1024" version="1.1" width="1024" xmlns="http://www.w3.org/2000/svg">
  <defs/>
  <g>
    <path d="M 619.2448120117188 71.99217224121094 C 614.6830444335938 73.85674285888672 609.2384033203125 77.16532135009766 607.9207153320312 87.23464965820312 C 606.854736328125 91.85122680664062 606.25439453125 96.83638763427734 595.4205322265625 107.62446594238281 C 566.3427124023438 135.42953491210938 482.138916015625 171.47402954101562 321.7617492675781 217.0873565673828 C 316.3939208984375 219.56182861328125 314.5641784667969 216.38966369628906 311.38372802734375 225.7306671142578 C 310.457275390625 229.23321533203125 312.76885986328125 231.75860595703125 312.687255859375 231.46185302734375 L 314.3790588378906 233.34336853027344 L 333.1761169433594 231.00843811035156 C 355.5107727050781 228.3270263671875 404.3009033203125 221.45806884765625 474.4014892578125 211.6972198486328 C 480.07550048828125 210.87142944335938 544.7411499023438 197.7831573486328 546.2150268554688 196.3098907470703 C 615.7202758789062 174.4948272705078 674.2412109375 162.91903686523438 704.6510620117188 162.9517364501953 C 716.7290649414062 163.69720458984375 721.580322265625 159.63427734375 723.9536743164062 158.3547821044922 C 728.3430786132812 152.63389587402344 728.1447143554688 142.97726440429688 722.28369140625 135.71249389648438 C 721.4715576171875 132.08624267578125 704.808349609375 116.8706283569336 681.842041015625 101.82294464111328 C 644.5423583984375 77.95362091064453 634.9414672851562 73.39360809326172 619.2448120117188 71.99217224121094" fill="rgb(0, 0, 0)" opacity="0.99926627" stroke-width="1.0"/>
  </g>
</svg>
