<?xml version="1.0" ?>
<svg height="1024" version="1.1" width="1024" xmlns="http://www.w3.org/2000/svg">
  <defs/>
  <g>
    <path d="M 266.158447265625 247.8805694580078 Q 237.08428955078125 255.89352416992188 256.7934265136719 275.7071228027344 Q 269.73602294921875 286.79547119140625 281.5020751953125 366.4220275878906 L 288.6952819824219 421.9389953613281 L 302.13226318359375 565.3728637695312 Q 308.65667724609375 668.6292114257812 293.08380126953125 763.9486083984375 Q 288.1510009765625 794.6781005859375 273.48052978515625 807.56884765625 Q 250.4688262939453 834.6896362304688 288.79388427734375 862.0380859375 Q 309.5339660644531 881.4964599609375 327.8856506347656 862.0152587890625 Q 344.51470947265625 842.4800415039062 382.3716735839844 830.3599853515625 Q 431.4258728027344 813.0023803710938 532.4204711914062 803.941650390625 L 599.7667236328125 799.5023193359375 Q 770.2652587890625 794.331298828125 803.597412109375 798.9385986328125 Q 849.8547973632812 803.0940551757812 849.96875 781.0849609375 Q 848.0704956054688 771.2589721679688 834.6901245117188 760.57470703125 Q 791.0614013671875 730.0785522460938 761.251708984375 730.5816650390625 Q 574.8766479492188 757.2023315429688 409.16949462890625 785.125244140625 Q 357.0146789550781 793.179931640625 356.31103515625 774.3507690429688 L 347.34967041015625 545.3804321289062 Q 341.2085876464844 299.6937255859375 343.62420654296875 296.86480712890625 Q 357.1538391113281 272.469482421875 322.5693359375 261.8898010253906 Q 288.0611267089844 246.9124755859375 266.158447265625 247.8805694580078" fill="rgb(0, 0, 0)" opacity="0.9984111" stroke-width="1.0"/>
  </g>
</svg>
