<?xml version="1.0" ?>
<svg height="1024" version="1.1" width="1024" xmlns="http://www.w3.org/2000/svg">
  <defs/>
  <g>
    <path d="M 577.492431640625 91.64657592773438 C 567.8287963867188 93.85089111328125 559.2327270507812 99.20365905761719 562.0736083984375 108.85324096679688 C 563.992919921875 114.32450866699219 563.0177001953125 113.53279876708984 571.7943115234375 124.52415466308594 C 588.3671875 146.80038452148438 596.9547729492188 166.78460693359375 596.2186279296875 189.59036254882812 C 594.3998413085938 224.77279663085938 590.433837890625 283.1847839355469 581.128173828125 337.98736572265625 C 574.3218383789062 380.5848388671875 557.1137084960938 449.54669189453125 543.69482421875 484.2412414550781 C 517.6949462890625 555.1981201171875 479.23358154296875 617.59521484375 428.0087585449219 671.9037475585938 C 411.2410888671875 689.345703125 412.4051208496094 688.564208984375 385.2173767089844 710.85107421875 C 364.3188171386719 728.902587890625 351.559814453125 738.4115600585938 352.9585876464844 738.8048706054688 C 351.8678283691406 742.2955322265625 355.1805114746094 744.1961669921875 367.9055480957031 745.0311279296875 C 393.6661682128906 745.0750122070312 426.9325866699219 728.9088745117188 465.5438537597656 696.30615234375 C 481.9032897949219 683.0897216796875 517.937744140625 647.8853759765625 526.521728515625 636.6835327148438 C 549.49560546875 607.874755859375 553.8187866210938 600.727294921875 572.1148681640625 564.6453247070312 C 610.3660888671875 484.49072265625 633.2041015625 409.9670715332031 648.9392700195312 307.52142333984375 C 658.972412109375 235.3759002685547 668.9878540039062 194.55178833007812 683.522216796875 163.59591674804688 C 687.1661987304688 157.5152130126953 688.2799072265625 146.79217529296875 677.8497314453125 139.2758331298828 C 661.2109375 121.93627166748047 624.5823364257812 102.4137191772461 608.3963012695312 95.6217041015625 C 595.5408325195312 91.23181915283203 588.2039794921875 90.2689437866211 577.492431640625 91.64657592773438" fill="rgb(0, 0, 0)" opacity="1.0" stroke-width="1.0"/>
  </g>
</svg>
