<?xml version="1.0" ?>
<svg height="1024" version="1.1" width="1024" xmlns="http://www.w3.org/2000/svg">
  <defs/>
  <g>
    <path d="M 261.7038879394531 249.23687744140625 C 259.0909423828125 248.7933807373047 249.03521728515625 256.3583984375 250.0997314453125 257.57733154296875 C 246.84727478027344 259.4604187011719 249.0381622314453 267.3334655761719 255.5454559326172 274.6837463378906 C 263.23406982421875 280.48193359375 269.421142578125 299.58892822265625 275.10638427734375 328.81597900390625 C 282.16241455078125 364.3290710449219 289.9681701660156 428.29327392578125 293.8744812011719 477.4239807128906 C 295.53997802734375 499.9017333984375 296.1529846191406 509.5600891113281 297.488525390625 516.5934448242188 C 301.5789489746094 554.9097900390625 304.3978271484375 584.5407104492188 303.9919738769531 638.5405883789062 C 303.5208435058594 669.3856201171875 301.2176818847656 710.5533447265625 294.8972473144531 752.3862915039062 C 291.3226623535156 777.8566284179688 287.334228515625 790.8818359375 277.9792175292969 802.9691772460938 C 267.0794677734375 813.2559814453125 263.09954833984375 824.5576171875 265.4863586425781 832.4539184570312 C 264.974365234375 834.3541259765625 269.9197692871094 846.0443725585938 278.1930847167969 853.3053588867188 C 285.2635803222656 860.3925170898438 299.76580810546875 870.0773315429688 299.44189453125 869.5966796875 C 309.322998046875 873.6188354492188 310.1698913574219 871.36962890625 315.7247009277344 870.68505859375 C 319.01031494140625 869.5971069335938 327.9087829589844 863.2933349609375 328.4377746582031 861.0009155273438 C 337.33111572265625 851.8480224609375 339.1052551269531 851.4432983398438 344.587646484375 847.4678344726562 C 397.6151123046875 813.5961303710938 525.5790405273438 796.9271850585938 734.0487670898438 797.0484619140625 C 763.4359741210938 796.2052001953125 793.7840576171875 797.60107421875 800.0292358398438 798.6166381835938 C 826.0114135742188 801.1740112304688 840.7872314453125 798.8861083984375 847.6314697265625 789.7111206054688 C 851.7562255859375 782.2972412109375 850.3270263671875 777.5473022460938 842.9901733398438 768.1460571289062 C 828.289794921875 753.0903930664062 789.2476806640625 731.3659057617188 766.3001098632812 730.6452026367188 C 766.5059204101562 730.314453125 756.2257690429688 731.4347534179688 722.5938110351562 735.9769287109375 C 666.3369140625 744.190185546875 484.85638427734375 771.9527587890625 451.73681640625 778.1488037109375 C 413.0456237792969 785.0291748046875 392.8361511230469 787.5258178710938 375.2265625 787.442138671875 L 368.7066650390625 786.8026733398438 L 365.0920715332031 785.9580688476562 C 356.9140930175781 783.3088989257812 352.5009460449219 767.55615234375 354.1668701171875 721.0166015625 C 354.2070007324219 690.9140014648438 352.25640869140625 656.9964599609375 352.06341552734375 654.059814453125 C 346.371826171875 583.0969848632812 344.8558654785156 407.8795471191406 344.189697265625 401.0379333496094 C 340.59222412109375 296.53424072265625 344.67413330078125 295.05560302734375 344.5481262207031 294.694580078125 C 347.37542724609375 289.3986511230469 349.1067199707031 280.1463623046875 344.2142639160156 274.6499938964844 C 343.49688720703125 272.4879150390625 338.3260803222656 267.6128845214844 323.7958679199219 262.3217468261719 C 293.1064453125 249.3502197265625 270.1221008300781 245.45437622070312 261.7038879394531 249.23687744140625" fill="rgb(0, 0, 0)" opacity="0.9991925" stroke-width="1.0"/>
  </g>
</svg>
