<?xml version="1.0" ?>
<svg height="1024" version="1.1" width="1024" xmlns="http://www.w3.org/2000/svg">
  <defs/>
  <g>
    <path d="M 453.3318786621094 218.5513153076172 C 445.4992980957031 222.00711059570312 445.6579895019531 227.56153869628906 452.5489501953125 219.2423858642578 C 443.4080810546875 222.67498779296875 447.58380126953125 233.38735961914062 453.4600830078125 252.7167205810547 C 457.36456298828125 264.8891906738281 461.1023864746094 280.1512145996094 462.78875732421875 284.9764404296875 C 463.1395568847656 291.42724609375 466.0623474121094 291.1795654296875 464.7330627441406 311.79229736328125 C 463.6418762207031 340.9568786621094 461.85992431640625 352.1585998535156 459.4150390625 374.51666259765625 C 455.23895263671875 403.8090515136719 448.1205749511719 452.1921691894531 444.1310119628906 465.714111328125 C 424.4366455078125 547.2967529296875 376.4329833984375 618.5515747070312 302.7990417480469 674.8759765625 C 295.24847412109375 680.5573120117188 287.2521057128906 686.8764038085938 287.07843017578125 688.015869140625 C 279.2034912109375 695.64306640625 282.9971923828125 693.8536376953125 281.5117492675781 695.0726318359375 C 280.729736328125 699.7860107421875 285.5171203613281 702.4658813476562 300.6615905761719 702.037841796875 C 324.2532958984375 700.6863403320312 353.5490417480469 685.887451171875 388.7864074707031 657.5955200195312 C 414.69830322265625 636.812255859375 435.185791015625 615.6010131835938 451.0435485839844 592.4322509765625 C 458.6567687988281 582.9046020507812 470.2274475097656 558.5369873046875 479.29339599609375 537.6209716796875 C 483.2050476074219 529.6654052734375 485.5042724609375 521.2575073242188 491.2327575683594 504.1915283203125 C 504.2193908691406 466.0827941894531 517.3666381835938 411.1651306152344 520.7020263671875 390.8631896972656 C 527.1140747070312 348.5912170410156 536.671875 312.7059631347656 543.086181640625 288.861328125 C 546.9495239257812 278.1760559082031 547.3150024414062 268.0422058105469 536.3175659179688 257.6972961425781 C 536.9744873046875 257.5385437011719 511.5982360839844 239.78797912597656 494.9081726074219 232.3190460205078 C 475.62908935546875 223.1195526123047 464.824462890625 217.4447021484375 453.3318786621094 218.5513153076172" fill="rgb(0, 0, 0)" opacity="0.9991967" stroke-width="1.0"/>
  </g>
</svg>
