<?xml version="1.0" ?>
<svg height="1024" version="1.1" width="1024" xmlns="http://www.w3.org/2000/svg">
  <defs/>
  <g>
    <path d="M 330.6371765136719 412.853759765625 Q 280.8612060546875 437.1246032714844 139.0186004638672 452.80291748046875 Q 125.05845642089844 458.5030822753906 135.15965270996094 469.2237548828125 Q 150.90335083007812 479.5273742675781 172.9910125732422 486.8829650878906 Q 194.18753051757812 493.9114074707031 211.27166748046875 489.9877014160156 Q 274.5196228027344 469.06719970703125 320.76416015625 457.1251220703125 Q 347.65972900390625 450.0065612792969 327.2250061035156 492.02252197265625 L 298.1466979980469 552.44580078125 Q 256.7460021972656 632.7708740234375 201.46791076660156 687.6915283203125 Q 163.86737060546875 726.3162231445312 109.87769317626953 766.8428344726562 Q 96.19203186035156 782.1680297851562 126.45127868652344 774.45166015625 Q 187.0182342529297 748.8754272460938 236.1497802734375 708.475341796875 Q 295.1460266113281 664.1480102539062 346.72479248046875 581.5253295898438 Q 380.4620056152344 522.5550537109375 428.2655944824219 438.4849548339844 Q 421.5552978515625 424.5700378417969 380.92327880859375 410.00128173828125 Q 363.2185363769531 399.9934997558594 330.6371765136719 412.853759765625" fill="rgb(0, 0, 0)" opacity="0.9978149" stroke-width="1.0"/>
  </g>
</svg>
