<?xml version="1.0" ?>
<svg height="1024" version="1.1" width="1024" xmlns="http://www.w3.org/2000/svg">
  <defs/>
  <g>
    <path d="M 453.4775695800781 171.37680053710938 C 453.21759033203125 170.70834350585938 448.6465148925781 178.80020141601562 449.84967041015625 179.58294677734375 C 449.5838623046875 182.37657165527344 450.3048400878906 186.5379180908203 455.8759765625 196.30943298339844 C 470.4040222167969 222.67355346679688 480.59552001953125 286.2336730957031 484.0584411621094 394.3616027832031 C 485.88641357421875 458.195556640625 486.9798583984375 477.52801513671875 484.2875061035156 530.4738159179688 C 481.8748474121094 567.723876953125 478.01922607421875 590.6464233398438 470.9844665527344 611.5187377929688 C 466.73614501953125 619.3553466796875 468.5870056152344 623.745361328125 468.33905029296875 622.153564453125 C 470.119140625 626.5941772460938 476.5390319824219 630.3582153320312 490.9384460449219 630.426025390625 C 518.2073364257812 629.4635009765625 548.91259765625 615.5653686523438 540.9384155273438 600.0108642578125 C 537.4268188476562 599.2238159179688 534.868408203125 590.1656494140625 535.5228271484375 589.147705078125 C 534.8344116210938 594.5272216796875 534.6171875 568.9690551757812 534.1876220703125 547.758544921875 C 533.5488891601562 524.3997192382812 532.489501953125 496.2165222167969 532.4462280273438 497.77099609375 C 532.4706420898438 489.9068908691406 531.245361328125 479.706298828125 530.5496215820312 442.04669189453125 C 530.0433349609375 414.0935974121094 528.4994506835938 383.5963439941406 528.5457763671875 379.82098388671875 C 527.4609375 353.2999267578125 523.8973999023438 250.41921997070312 524.6580810546875 229.59957885742188 C 524.29541015625 210.6215057373047 528.7909545898438 215.7822265625 523.638671875 203.67503356933594 C 518.9857177734375 194.74266052246094 509.7840881347656 187.73829650878906 484.8892517089844 176.25311279296875 C 473.02520751953125 170.43089294433594 462.0765380859375 165.98983764648438 453.4775695800781 171.37680053710938" fill="rgb(0, 0, 0)" opacity="0.9993299" stroke-width="1.0"/>
  </g>
</svg>
