<?xml version="1.0" ?>
<svg height="1024" version="1.1" width="1024" xmlns="http://www.w3.org/2000/svg">
  <defs/>
  <g>
    <path d="M 592.7820434570312 460.5596618652344 C 587.2133178710938 463.7571105957031 587.7777099609375 470.69635009765625 587.1659545898438 467.3316955566406 C 586.744873046875 478.3732604980469 586.810302734375 474.23333740234375 589.9303588867188 488.1231384277344 C 595.858642578125 513.3519897460938 598.8004150390625 537.8634033203125 597.6609497070312 559.8749389648438 C 596.814453125 580.2652587890625 591.3916015625 627.6644287109375 581.5275268554688 698.7589111328125 C 578.3983764648438 721.9502563476562 574.7308959960938 742.8556518554688 575.92919921875 742.8367919921875 C 577.0205688476562 757.9981079101562 595.9263305664062 762.3028564453125 612.1502685546875 749.82080078125 C 622.3733520507812 739.8969116210938 621.3422241210938 734.5465698242188 626.048828125 709.9094848632812 C 635.6361694335938 656.89990234375 643.3247680664062 619.880859375 650.446533203125 592.4471435546875 C 654.7799682617188 573.7977294921875 659.56640625 559.018798828125 664.2945556640625 546.1697998046875 C 668.468994140625 537.5560913085938 671.25927734375 525.853759765625 670.8510131835938 522.4715576171875 C 670.8176879882812 514.8667602539062 670.0506591796875 512.8233642578125 667.844970703125 506.1952209472656 C 659.9227905273438 492.0108947753906 635.8517456054688 469.47552490234375 617.3506469726562 462.1029968261719 C 608.8308715820312 458.3999328613281 599.5748901367188 457.0057067871094 592.7820434570312 460.5596618652344" fill="rgb(0, 0, 0)" opacity="0.99975324" stroke-width="1.0"/>
  </g>
</svg>
