<?xml version="1.0" ?>
<svg height="1024" version="1.1" width="1024" xmlns="http://www.w3.org/2000/svg">
  <defs/>
  <g>
    <path d="M 783.1282958984375 361.2881774902344 C 782.68896484375 362.3331604003906 780.2330322265625 363.3252868652344 778.0880737304688 366.4380187988281 C 778.421142578125 367.0447082519531 772.8488159179688 375.3845520019531 777.1466064453125 390.0792236328125 C 776.6221313476562 413.56494140625 770.331298828125 419.8604431152344 753.56201171875 445.8503112792969 C 733.2323608398438 476.4814758300781 709.002685546875 509.98687744140625 671.1648559570312 558.5249633789062 C 662.6010131835938 569.3207397460938 664.5816650390625 569.1617431640625 663.66845703125 570.198974609375 C 662.4419555664062 579.522705078125 669.9595336914062 581.4791259765625 664.78662109375 580.9010620117188 C 684.7728271484375 582.3799438476562 687.0097045898438 575.2067260742188 702.0485229492188 564.2417602539062 C 776.4048461914062 503.3817138671875 842.49658203125 455.9785461425781 863.8590087890625 444.3047180175781 C 876.2760009765625 439.8955383300781 880.3861083984375 434.08929443359375 879.9449462890625 428.4791259765625 C 880.8197021484375 423.856201171875 868.6415405273438 404.84210205078125 853.728271484375 389.7158203125 C 837.7745361328125 372.24786376953125 819.71923828125 362.9919128417969 802.1776733398438 360.03802490234375 C 792.1436157226562 358.9852294921875 791.476318359375 358.1333923339844 783.1282958984375 361.2881774902344" fill="rgb(0, 0, 0)" opacity="0.99937886" stroke-width="1.0"/>
  </g>
</svg>
