<?xml version="1.0" ?>
<svg height="1024" version="1.1" width="1024" xmlns="http://www.w3.org/2000/svg">
  <defs/>
  <g>
    <path d="M 708.5301513671875 283.047119140625 C 702.3182373046875 287.361083984375 703.7046508789062 291.7247619628906 703.4490966796875 294.8146667480469 C 704.2245483398438 297.1299743652344 703.3870239257812 309.0482177734375 702.771240234375 307.61328125 C 699.6764526367188 323.2109375 687.778564453125 341.09063720703125 671.0301513671875 361.3284912109375 C 658.9833984375 375.3427429199219 649.1213989257812 385.1922912597656 599.5026245117188 434.1445007324219 C 578.0969848632812 455.75933837890625 562.3639526367188 469.3832092285156 558.08642578125 476.24993896484375 C 550.0120849609375 486.83868408203125 556.66552734375 489.5435485839844 575.2228393554688 479.9511413574219 C 596.0167846679688 469.6878356933594 715.0935668945312 399.0711975097656 735.96875 385.7771301269531 C 742.931884765625 379.8734130859375 765.761474609375 368.4305725097656 775.2332153320312 365.6015930175781 C 790.76806640625 360.0814208984375 796.7937622070312 354.2367858886719 796.2997436523438 344.2500305175781 C 796.7557983398438 341.753662109375 793.739501953125 334.62591552734375 787.3828735351562 327.59521484375 C 776.8281860351562 314.2568359375 754.8527221679688 296.7056579589844 740.2940673828125 289.6961364746094 C 725.5189208984375 282.10113525390625 716.4224243164062 280.5874328613281 708.5301513671875 283.047119140625" fill="rgb(0, 0, 0)" opacity="0.9997051" stroke-width="1.0"/>
  </g>
</svg>
