<?xml version="1.0" ?>
<svg height="1024" version="1.1" width="1024" xmlns="http://www.w3.org/2000/svg">
  <defs/>
  <g>
    <path d="M 529.25390625 433.1219177246094 C 525.02490234375 440.2456359863281 531.7709350585938 465.4639587402344 543.9501953125 482.93914794921875 C 546.7938842773438 487.0559997558594 593.48779296875 543.468994140625 619.4856567382812 573.5338745117188 C 718.0283813476562 688.4757080078125 780.6885986328125 748.1917724609375 804.4180908203125 747.1155395507812 C 805.8433837890625 748.1009521484375 842.41650390625 740.7266235351562 942.634521484375 721.171875 C 955.3106079101562 719.25048828125 961.9806518554688 715.6365356445312 963.9197998046875 712.718994140625 C 965.4200439453125 706.5298461914062 950.3040161132812 698.2830810546875 920.7822875976562 688.3946533203125 C 829.1497192382812 656.9389038085938 769.5928344726562 632.15576171875 736.5731811523438 611.7536010742188 C 712.7988891601562 596.8070068359375 613.4813232421875 511.0027770996094 566.3063354492188 465.48870849609375 C 546.7030639648438 445.02728271484375 534.1417846679688 431.5077819824219 533.8074340820312 433.1754150390625 C 530.440185546875 431.7559814453125 530.10546875 433.3624267578125 529.25390625 433.1219177246094" fill="rgb(0, 0, 0)" opacity="1.0" stroke-width="1.0"/>
  </g>
</svg>
