<?xml version="1.0" ?>
<svg height="1024" version="1.1" width="1024" xmlns="http://www.w3.org/2000/svg">
  <defs/>
  <g>
    <path d="M 459.0575866699219 50.40665054321289 C 453.71038818359375 54.08726501464844 452.4931335449219 59.6613655090332 457.98602294921875 79.81295776367188 C 460.3627014160156 96.43624114990234 458.91900634765625 113.09565734863281 456.7236022949219 126.90087127685547 C 446.49810791015625 189.99383544921875 422.4699401855469 261.71160888671875 376.5267333984375 378.4290771484375 C 351.97515869140625 441.4388427734375 323.9217529296875 492.6229248046875 298.3031311035156 523.0586547851562 C 293.58203125 528.658203125 286.4756774902344 537.1221313476562 278.3224792480469 544.1280517578125 C 266.98431396484375 553.7999877929688 262.16357421875 559.6397705078125 259.65277099609375 575.4869384765625 C 258.84771728515625 584.5888671875 258.6607360839844 591.7368774414062 262.7154846191406 608.5516967773438 C 267.9389953613281 626.7494506835938 271.0494384765625 635.171142578125 283.81890869140625 635.4197998046875 C 290.15374755859375 634.603515625 292.9737548828125 632.5618896484375 305.10247802734375 628.9569091796875 C 355.6221923828125 612.4105834960938 431.0599365234375 595.6299438476562 555.796142578125 580.6312255859375 C 624.1463012695312 571.1088256835938 660.7388916015625 567.8096923828125 688.5664672851562 565.9924926757812 C 721.2919311523438 564.1626586914062 726.5270385742188 562.8295288085938 738.9747314453125 560.0236206054688 C 749.1337890625 556.7904052734375 754.286865234375 552.8323974609375 754.0081176757812 548.1516723632812 C 754.5936279296875 539.307861328125 744.5698852539062 527.5565185546875 728.0825805664062 516.60107421875 C 716.2735595703125 507.9734802246094 705.3212890625 504.617431640625 675.8712768554688 505.8843994140625 C 656.5529174804688 506.3263854980469 623.8218994140625 511.69769287109375 587.5845336914062 519.46435546875 C 555.9346313476562 527.4078369140625 495.84112548828125 539.3262329101562 470.06732177734375 542.2193603515625 C 450.2377014160156 545.4824829101562 418.7684631347656 550.2067260742188 399.2606201171875 553.2223510742188 C 367.9051208496094 558.1691284179688 355.49267578125 560.3309936523438 352.7662048339844 554.961669921875 C 352.72979736328125 556.2069702148438 356.0027160644531 547.6911010742188 398.528076171875 446.4226989746094 C 423.78533935546875 386.2810363769531 448.8533935546875 326.82196044921875 455.0932312011719 310.0202331542969 C 477.4002380371094 253.5832061767578 500.9742126464844 201.562744140625 517.8436889648438 171.56591796875 C 526.5919799804688 156.533447265625 535.8472900390625 141.72886657714844 543.52001953125 136.33094787597656 C 557.7197875976562 124.65342712402344 558.5857543945312 118.46839141845703 557.3015747070312 112.28221130371094 C 553.8605346679688 104.23945617675781 554.14111328125 106.01449584960938 542.8240966796875 96.1953353881836 C 509.7489013671875 68.20065307617188 483.03948974609375 52.23636245727539 465.3095397949219 50.23339080810547 C 457.8465270996094 49.37309265136719 461.4510498046875 51.272037506103516 459.0575866699219 50.40665054321289" fill="rgb(0, 0, 0)" opacity="0.99979675" stroke-width="1.0"/>
  </g>
</svg>
