<?xml version="1.0" ?>
<svg height="1024" version="1.1" width="1024" xmlns="http://www.w3.org/2000/svg">
  <defs/>
  <g>
    <path d="M 658.9757080078125 650.9269409179688 C 657.06298828125 652.9984130859375 653.550048828125 662.5252685546875 658.3251342773438 674.4869384765625 C 661.4329833984375 683.1655883789062 667.7943725585938 687.4452514648438 688.2261352539062 707.2481079101562 C 717.75634765625 735.7504272460938 755.3897094726562 774.7454223632812 791.3840942382812 814.2471313476562 C 803.9984130859375 828.16943359375 815.5811157226562 841.157470703125 817.8269653320312 841.6007690429688 C 826.6138305664062 850.1897583007812 837.9849853515625 854.83203125 838.9910278320312 854.9588012695312 C 849.7481079101562 855.3816528320312 853.6323852539062 849.0339965820312 861.21826171875 839.9252319335938 C 859.4740600585938 838.6109619140625 864.931884765625 838.7954711914062 864.355224609375 817.996826171875 C 863.7586669921875 810.2174682617188 863.640625 803.4859619140625 857.7390747070312 782.8718872070312 C 855.53125 773.5040893554688 853.6854248046875 765.300048828125 844.0245971679688 752.8880615234375 C 820.7426147460938 721.9918212890625 766.4574584960938 690.2420043945312 683.9964599609375 657.3198852539062 C 671.1959228515625 652.400146484375 662.5913696289062 648.432861328125 662.9342651367188 649.2151489257812 C 656.7247924804688 650.4940185546875 661.668701171875 651.165283203125 658.9757080078125 650.9269409179688" fill="rgb(0, 0, 0)" opacity="0.9990937" stroke-width="1.0"/>
  </g>
</svg>
