<?xml version="1.0" ?>
<svg height="1024" version="1.1" width="1024" xmlns="http://www.w3.org/2000/svg">
  <defs/>
  <g>
    <path d="M 687.0756225585938 778.4299926757812 C 605.5601196289062 791.939453125 444.0425109863281 811.8836669921875 281.05096435546875 828.3658447265625 C 264.0292663574219 830.3614501953125 235.89239501953125 832.8327026367188 217.76898193359375 834.9422607421875 C 207.6237030029297 836.6331787109375 194.64195251464844 834.644287109375 193.0359649658203 842.8826293945312 C 192.08676147460938 850.034912109375 204.9100799560547 865.8704223632812 225.7599334716797 875.6464233398438 C 235.7711181640625 879.0555419921875 243.58140563964844 882.4282836914062 257.9035339355469 883.5039672851562 C 274.4442443847656 883.465576171875 272.33477783203125 882.5314331054688 300.0777587890625 876.867919921875 C 399.3815612792969 856.8734741210938 501.0021057128906 847.4760131835938 610.916015625 847.2555541992188 C 661.887451171875 847.31884765625 700.6363525390625 848.8429565429688 744.2872924804688 851.4967041015625 C 763.41748046875 853.0247192382812 776.688232421875 853.4395141601562 774.8547973632812 852.7120971679688 C 792.2196044921875 852.0299072265625 799.663330078125 841.7886352539062 794.2393798828125 829.106201171875 C 788.2239990234375 818.7666625976562 783.4868774414062 816.1441650390625 766.6522216796875 803.86376953125 C 733.5839233398438 781.7676391601562 708.411376953125 775.666259765625 687.0756225585938 778.4299926757812" fill="rgb(0, 0, 0)" opacity="0.9991816" stroke-width="1.0"/>
  </g>
</svg>
