<?xml version="1.0" ?>
<svg height="1024" version="1.1" width="1024" xmlns="http://www.w3.org/2000/svg">
  <defs/>
  <g>
    <path d="M 809.4173583984375 759.38427734375 C 808.4952392578125 759.4720458984375 795.9486694335938 762.368896484375 791.930419921875 765.1607666015625 C 789.193359375 765.2723999023438 773.4385375976562 768.056884765625 656.076904296875 781.8059692382812 C 590.239501953125 789.8665771484375 580.745849609375 789.622802734375 559.23828125 791.9690551757812 C 519.8426513671875 792.9783935546875 508.6521911621094 794.5006103515625 496.50384521484375 795.60498046875 C 475.45001220703125 798.420654296875 489.1032409667969 796.6749267578125 468.30450439453125 797.7101440429688 C 449.5187072753906 798.7493286132812 420.291748046875 800.1807250976562 426.08099365234375 800.361083984375 C 407.9082336425781 801.4013671875 384.80352783203125 804.574951171875 371.3374328613281 804.3648681640625 C 343.6645202636719 805.1683349609375 319.0677795410156 807.255126953125 304.2812194824219 809.8529663085938 C 267.10858154296875 814.5679931640625 235.6066131591797 816.3375244140625 186.5189666748047 816.7623901367188 C 128.42965698242188 816.75341796875 128.28207397460938 814.1547241210938 121.78298950195312 818.9404907226562 C 121.03706359863281 818.6725463867188 116.99568939208984 824.1763916015625 117.01166534423828 829.635986328125 C 116.5359115600586 838.7391967773438 127.51022338867188 851.7862548828125 144.77099609375 863.2056274414062 C 162.78858947753906 874.989013671875 178.02540588378906 882.12255859375 195.27230834960938 883.6911010742188 C 212.48004150390625 884.8423461914062 215.13473510742188 881.4895629882812 228.1399688720703 879.0917358398438 C 266.1348876953125 869.9256591796875 322.708251953125 861.3699340820312 399.03118896484375 852.9541625976562 C 449.0824279785156 847.0258178710938 493.6025695800781 843.9302368164062 524.3800048828125 842.8251953125 C 574.1161499023438 841.6302490234375 601.4487915039062 839.3555297851562 631.4232788085938 837.25732421875 C 684.8233032226562 833.736572265625 734.7924194335938 834.0515747070312 783.9559936523438 836.9408569335938 C 814.3636474609375 838.7035522460938 848.2495727539062 841.9633178710938 876.6482543945312 845.6465454101562 C 900.57177734375 848.5547485351562 912.3736572265625 852.0244140625 923.2484741210938 845.6154174804688 C 927.4295654296875 843.5828247070312 932.0623168945312 830.6844482421875 928.3283081054688 824.4144897460938 C 928.1701049804688 819.7123413085938 911.5013427734375 804.4762573242188 899.0897827148438 793.9472045898438 C 867.3092651367188 767.7265625 836.7987060546875 754.4044799804688 809.4173583984375 759.38427734375" fill="rgb(0, 0, 0)" opacity="0.9997633" stroke-width="1.0"/>
  </g>
</svg>
