<?xml version="1.0" ?>
<svg height="1024" version="1.1" width="1024" xmlns="http://www.w3.org/2000/svg">
  <defs/>
  <g>
    <path d="M 160.64382934570312 417.4902038574219 C 156.76971435546875 418.85064697265625 153.81427001953125 435.0312194824219 163.7545928955078 449.9375915527344 C 180.48451232910156 480.70770263671875 188.93563842773438 510.75762939453125 191.0662078857422 535.4956665039062 C 191.47012329101562 542.9675903320312 192.6143798828125 562.15380859375 193.2616729736328 579.9335327148438 C 194.89163208007812 638.5155639648438 193.04855346679688 694.375244140625 187.45806884765625 753.2182006835938 C 185.6155242919922 769.2086181640625 189.158203125 788.6146240234375 199.08584594726562 802.2314453125 C 209.86524963378906 819.0507202148438 231.24038696289062 837.635009765625 239.90924072265625 836.2465209960938 C 245.06393432617188 834.9324951171875 243.66842651367188 835.2067260742188 246.50660705566406 828.019775390625 C 250.39723205566406 827.0934448242188 253.49375915527344 816.1618041992188 254.9242401123047 800.497802734375 C 257.1195983886719 790.7472534179688 257.65234375 776.6015625 257.2142028808594 763.1475830078125 C 256.85540771484375 743.649658203125 255.40798950195312 727.4876098632812 253.47293090820312 705.7267456054688 C 249.96987915039062 673.119140625 245.0342254638672 579.1036376953125 244.22454833984375 496.71246337890625 C 243.7647247314453 458.6163635253906 244.82064819335938 460.0238037109375 237.68240356445312 451.2872619628906 C 228.85304260253906 445.0060729980469 208.4584197998047 430.01483154296875 192.6128387451172 422.68280029296875 C 185.37405395507812 418.54779052734375 168.63124084472656 414.239990234375 167.6768035888672 414.0569152832031 C 163.3422088623047 412.80950927734375 158.8741455078125 417.5868835449219 160.64382934570312 417.4902038574219" fill="rgb(0, 0, 0)" opacity="0.9993997" stroke-width="1.0"/>
  </g>
</svg>
