<?xml version="1.0" ?>
<svg height="1024" version="1.1" width="1024" xmlns="http://www.w3.org/2000/svg">
  <defs/>
  <g>
    <path d="M 435.04351806640625 289.3940734863281 Q 412.4178771972656 295.6961364746094 428.03515625 311.0483093261719 Q 450.88629150390625 327.359375 463.6868896484375 355.6432189941406 Q 492.3440856933594 442.1845703125 495.2830505371094 514.6978149414062 Q 499.89996337890625 609.7052001953125 478.7786560058594 668.1214599609375 Q 466.9798889160156 691.5343017578125 435.47259521484375 686.3511352539062 Q 373.6729736328125 672.7462768554688 375.8663635253906 673.2135620117188 Q 362.3549499511719 678.3897094726562 396.3948059082031 704.0700073242188 Q 431.0799560546875 735.168701171875 440.7097473144531 758.4254760742188 Q 457.238037109375 784.7908325195312 483.58746337890625 766.2188110351562 Q 512.9533081054688 744.3609619140625 524.3793334960938 722.6344604492188 Q 538.984375 697.2299194335938 546.0794677734375 657.3842163085938 Q 556.0946044921875 602.4140625 550.03955078125 514.4563598632812 Q 538.2068481445312 402.5312194824219 519.520751953125 355.15264892578125 Q 510.0030517578125 327.2281494140625 483.11370849609375 305.2547607421875 Q 454.2152404785156 288.2099304199219 435.04351806640625 289.3940734863281" fill="rgb(0, 0, 0)" opacity="0.9990719" stroke-width="1.0"/>
  </g>
</svg>
