<?xml version='1.0' encoding='utf-8'?>
<svg xmlns="http://www.w3.org/2000/svg" version="1.1" viewBox="0 0 1024 1024"><g transform="scale(1, -1) translate(0, -900)"><path d="M 519 53 Q 517 149 517 156 L 529 400 L 530 439 Q 531 469 533 518 Q 546 730 559 778 Q 563 793 539 808 Q 508 829 464 837 Q 445 841 433 830 Q 429 825 429 821 Q 428 812 443 790 Q 465 757 466 733 Q 470 664 470 600 L 465 397 Q 461 363 457 296 Q 455 262 443 216 Q 439 171 439 129 Q 437 25 447 -3 Q 462 -58 490 -75 Q 498 -76 502 -71 Q 517 -56 519 53 Z" fill="black" /></g></svg>