<?xml version='1.0' encoding='utf-8'?>
<svg xmlns="http://www.w3.org/2000/svg" version="1.1" viewBox="0 0 1024 1024"><g transform="scale(1, -1) translate(0, -900)"><path d="M 218 288 Q 219 288 220 288 Q 238 276 266 285 Q 368 319 373 309 Q 382 296 376 260 Q 363 164 339 122 Q 323 97 301 101 Q 277 110 257 120 Q 236 129 250 107 Q 287 65 305 34 Q 321 15 339 30 Q 390 67 415 184 Q 430 289 447 308 Q 457 318 452 328 Q 445 338 399 357 Q 386 363 342 343 Q 284 328 225 313 C 196 306 190 298 218 288 Z" fill="black" /></g></svg>