<?xml version='1.0' encoding='utf-8'?>
<svg xmlns="http://www.w3.org/2000/svg" version="1.1" viewBox="0 0 1024 1024"><g transform="scale(1, -1) translate(0, -900)"><path d="M 225 313 Q 238 376 244 408 L 247 431 Q 251 473 253 513 L 255 540 Q 258 604 261 613 C 265 640 265 640 257 645 Q 253 649 249 651 L 236 658 Q 199 676 187 670 Q 177 663 183 651 Q 202 627 203 562 Q 203 394 173 283 Q 146 199 81 77 Q 77 70 75 65 Q 74 55 83 57 Q 114 64 178 181 Q 187 202 198 226 Q 208 256 218 288 L 225 313 Z" fill="black" /></g></svg>