<?xml version='1.0' encoding='utf-8'?>
<svg xmlns="http://www.w3.org/2000/svg" version="1.1" viewBox="0 0 1024 1024"><g transform="scale(1, -1) translate(0, -900)"><path d="M 346 523 Q 355 475 360 465 Q 367 455 374 462 Q 386 478 383 538 L 380 568 Q 379 595 378 619 L 375 660 Q 374 687 372 712 Q 371 715 371 716 L 370 762 Q 370 783 372 795 Q 378 813 365 822 Q 350 832 324 841 Q 305 847 285 836 Q 275 829 289 815 Q 310 791 319 746 L 326 706 Q 330 679 334 646 L 339 610 Q 340 582 344 558 L 346 523 Z" fill="black" /></g></svg>