<?xml version='1.0' encoding='utf-8'?>
<svg xmlns="http://www.w3.org/2000/svg" version="1.1" viewBox="0 0 1024 1024"><g transform="scale(1, -1) translate(0, -900)"><path d="M 291 607 Q 287 610 282 613 Q 258 630 243 623 Q 237 617 241 597 Q 253 553 250 524 Q 243 438 241 321 Q 237 131 249 93 Q 255 51 296 22 Q 383 -41 606 -40 Q 651 -39 690 -33 Q 826 -17 941 53 Q 960 69 949 94 Q 937 129 923 229 Q 923 245 916 251 Q 909 255 906 237 Q 872 131 851 98 Q 819 63 735 40 Q 538 -12 374 47 Q 312 74 296 112 Q 274 161 284 276 Q 285 288 288 331 Q 302 551 306 572 Q 308 578 308 580 C 310 598 310 598 291 607 Z" fill="black" /></g></svg>