<?xml version='1.0' encoding='utf-8'?>
<svg xmlns="http://www.w3.org/2000/svg" version="1.1" viewBox="0 0 1024 1024"><g transform="scale(1, -1) translate(0, -900)"><path d="M 332 645 Q 296 639 254 628 Q 192 614 190 613 C 161 606 156 594 186 589 Q 197 585 215 587 Q 222 588 237 591 Q 312 621 455 643 Q 479 648 488 647 L 490 647 Q 500 640 498 632 L 476 559 Q 480 557 489 561 Q 494 563 499 566 Q 542 597 580 608 Q 610 614 610 623 Q 606 633 546 672 Q 534 682 494 677 Q 474 675 449 668 Q 416 665 369 653 L 332 645 Z" fill="black" /></g></svg>