<?xml version='1.0' encoding='utf-8'?>
<svg xmlns="http://www.w3.org/2000/svg" version="1.1" viewBox="0 0 1024 1024"><g transform="scale(1, -1) translate(0, -900)"><path d="M 270 347 Q 270 263 269 158 Q 267 133 255 125 Q 252 123 225 130 L 192 141 Q 169 153 165 149 Q 162 149 163 145 Q 164 138 182 121 Q 237 65 249 35 Q 263 1 278 -2 Q 288 -3 298 12 Q 305 20 310 29 Q 329 74 332 151 Q 325 278 323 392 L 323 424 Q 323 473 325 548 L 327 604 Q 339 739 347 768 Q 359 788 339 804 L 324 813 Q 325 812 310 819 Q 279 837 261 833 Q 244 831 247 815 L 253 804 L 254 803 Q 276 774 276 741 L 276 582 L 274 534 Q 274 472 272 392 L 270 347 Z" fill="black" /></g></svg>