<?xml version='1.0' encoding='utf-8'?>
<svg xmlns="http://www.w3.org/2000/svg" version="1.1" viewBox="0 0 1024 1024"><g transform="scale(1, -1) translate(0, -900)"><path d="M 710 425 Q 701 443 674 459 Q 664 465 651 465 Q 645 462 645 447 Q 645 427 630 397 Q 623 381 612 361 L 600 343 Q 534 259 512 244 Q 499 235 502 225 Q 502 214 523 196 Q 530 189 539 191 Q 543 192 546 194 Q 594 226 670 244 L 674 244 C 704 249 695 261 665 260 Q 625 259 590 251 Q 569 246 570 253 Q 571 258 579 267 Q 703 407 706 409 Q 714 417 710 425 Z" fill="black" /></g></svg>