<?xml version='1.0' encoding='utf-8'?>
<svg xmlns="http://www.w3.org/2000/svg" version="1.1" viewBox="0 0 1024 1024"><g transform="scale(1, -1) translate(0, -900)"><path d="M 524 549 Q 533 530 527 507 Q 512 470 486 451 Q 471 439 474 428 Q 475 415 489 403 Q 499 394 512 401 Q 549 432 618 459 Q 657 475 679 465 Q 695 455 690 429 Q 684 395 664 368 Q 649 349 636 344 Q 620 341 561 361 Q 548 368 547 362 Q 546 356 556 346 Q 586 310 606 280 Q 613 270 622 269 Q 635 268 651 277 Q 699 310 733 406 Q 737 434 749 448 Q 758 458 750 469 Q 738 482 704 498 Q 689 505 671 501 Q 631 485 562 463 Q 550 460 555 473 Q 576 507 583 515 Q 593 527 585 540 Q 578 546 570 550 C 546 568 516 578 524 549 Z" fill="black" /></g></svg>