<?xml version='1.0' encoding='utf-8'?>
<svg xmlns="http://www.w3.org/2000/svg" version="1.1" viewBox="0 0 1024 1024"><g transform="scale(1, -1) translate(0, -900)"><path d="M 480 484 Q 525 466 640 466 Q 664 469 673 456 Q 683 437 668 400 Q 634 252 605 192 Q 583 143 564 130 Q 540 105 502 124 Q 469 134 427 152 Q 409 156 411 149 Q 412 139 431 125 Q 476 79 500 44 Q 512 20 530 20 Q 546 19 576 36 Q 613 64 640 120 Q 671 184 721 356 Q 734 398 756 420 Q 775 433 774 448 Q 773 464 704 511 Q 682 526 660 515 Q 579 500 494 515 C 464 519 451 493 480 484 Z" fill="black" /></g></svg>