<?xml version='1.0' encoding='utf-8'?>
<svg xmlns="http://www.w3.org/2000/svg" version="1.1" viewBox="0 0 1024 1024"><g transform="scale(1, -1) translate(0, -900)"><path d="M 510 533 Q 532 530 550 535 Q 575 544 689 563 Q 708 566 715 557 Q 734 535 734 484 Q 735 324 722 220 Q 697 58 662 39 Q 650 35 574 72 Q 544 84 542 81 Q 538 74 553 58 Q 604 1 629 -47 Q 648 -78 667 -73 Q 716 -58 758 69 Q 783 156 800 439 Q 804 512 824 537 Q 843 559 819 578 Q 741 627 706 615 Q 603 585 513 570 C 483 565 480 533 510 533 Z" fill="black" /></g></svg>