<?xml version='1.0' encoding='utf-8'?>
<svg xmlns="http://www.w3.org/2000/svg" version="1.1" viewBox="0 0 1024 1024"><g transform="scale(1, -1) translate(0, -900)"><path d="M 279 310 Q 387 367 643 391 Q 674 392 686 382 Q 705 360 695 319 Q 679 228 638 108 Q 628 83 607 70 Q 598 67 511 97 Q 493 107 491 98 Q 490 88 508 70 Q 551 21 568 -19 Q 587 -53 613 -34 Q 671 3 695 55 Q 710 95 750 295 Q 759 341 781 361 Q 797 377 790 388 Q 778 401 728 428 Q 701 443 626 424 Q 569 417 513 407 L 466 399 Q 387 386 316 368 Q 292 365 298 380 Q 314 479 332 520 Q 339 536 329 548 Q 313 564 296 571 Q 272 581 263 576 Q 254 570 261 556 Q 279 514 253 403 Q 246 388 221 361 Q 211 346 219 334 Q 229 322 250 306 Q 262 297 279 310 Z" fill="black" /></g></svg>