<?xml version='1.0' encoding='utf-8'?>
<svg xmlns="http://www.w3.org/2000/svg" version="1.1" viewBox="0 0 1024 1024"><g transform="scale(1, -1) translate(0, -900)"><path d="M 360 348 Q 453 399 692 424 Q 720 427 731 417 Q 752 395 742 350 Q 727 256 686 129 Q 676 102 654 88 Q 645 85 563 106 Q 544 116 543 106 Q 542 96 562 78 Q 599 32 614 -6 Q 635 -40 662 -20 Q 720 16 746 73 Q 759 115 801 325 Q 808 374 831 396 Q 847 412 840 424 Q 828 437 776 465 Q 746 480 669 461 Q 548 446 398 409 Q 373 406 379 422 Q 388 504 398 568 L 402 593 Q 420 699 441 758 Q 448 776 438 788 Q 420 804 403 812 Q 378 821 369 816 Q 359 810 367 796 Q 376 780 375 758 Q 365 595 335 456 Q 334 438 299 402 Q 287 386 296 373 Q 306 360 330 344 Q 342 335 360 348 Z" fill="black" /></g></svg>