<?xml version='1.0' encoding='utf-8'?>
<svg xmlns="http://www.w3.org/2000/svg" version="1.1" viewBox="0 0 1024 1024"><g transform="scale(1, -1) translate(0, -900)"><path d="M 509 92 Q 567 95 622 99 Q 772 111 921 90 Q 946 86 952 96 Q 961 109 948 122 Q 918 152 874 173 Q 859 180 832 172 Q 763 160 694 151 L 636 146 Q 540 139 487 134 Q 435 131 394 126 L 345 122 Q 311 121 288 118 Q 213 108 102 110 Q 89 111 86 99 Q 85 86 104 71 Q 152 35 187 48 Q 226 60 389 81 Q 446 88 509 92 Z" fill="black" /></g></svg>