<?xml version='1.0' encoding='utf-8'?>
<svg xmlns="http://www.w3.org/2000/svg" version="1.1" viewBox="0 0 1024 1024"><g transform="scale(1, -1) translate(0, -900)"><path d="M 511 464 Q 568 474 768 482 Q 784 482 791 474 Q 800 467 800 424 Q 803 243 779 140 Q 770 103 738 107 Q 707 114 679 122 Q 663 129 661 122 Q 660 113 671 97 Q 738 21 754 -17 Q 764 -33 776 -32 Q 792 -29 807 -2 Q 844 58 864 231 Q 882 439 894 459 Q 915 483 899 490 Q 881 509 839 528 Q 814 546 784 535 Q 750 525 662 518 Q 583 512 520 504 L 455 495 Q 418 492 387 485 Q 303 469 223 459 C 193 455 216 410 244 421 Q 259 439 449 457 L 511 464 Z" fill="black" /></g></svg>