<?xml version='1.0' encoding='utf-8'?>
<svg xmlns="http://www.w3.org/2000/svg" version="1.1" viewBox="0 0 1024 1024"><g transform="scale(1, -1) translate(0, -900)"><path d="M 560 320 Q 645 332 704 335 Q 752 338 754 351 Q 755 367 721 388 Q 691 406 560 374 L 505 363 Q 445 354 375 343 Q 354 340 353 345 L 444 562 L 465 615 Q 520 747 544 764 Q 566 782 553 795 Q 492 849 462 850 Q 450 849 457 824 Q 470 775 409 606 L 389 554 Q 334 403 275 353 Q 248 331 267 278 Q 274 259 293 267 Q 369 294 506 313 L 560 320 Z" fill="black" /></g></svg>