<?xml version='1.0' encoding='utf-8'?>
<svg xmlns="http://www.w3.org/2000/svg" version="1.1" viewBox="0 0 1024 1024"><g transform="scale(1, -1) translate(0, -900)"><path d="M 540 462 Q 525 553 501 577 L 488 591 Q 475 601 457 607 Q 438 614 428 608 Q 415 601 428 589 Q 462 564 471 520 Q 496 441 496 359 Q 497 280 478 230 Q 465 208 434 214 Q 406 220 380 226 Q 370 229 373 218 Q 377 211 394 198 Q 430 167 441 141 Q 451 125 466 126 Q 479 127 505 152 Q 565 209 549 398 Q 548 407 547 413 L 540 462 Z" fill="black" /></g></svg>