<?xml version='1.0' encoding='utf-8'?>
<svg xmlns="http://www.w3.org/2000/svg" version="1.1" viewBox="0 0 1024 1024"><g transform="scale(1, -1) translate(0, -900)"><path d="M 661 430 Q 564 309 536 297 Q 520 290 523 273 Q 523 258 550 235 Q 560 222 577 233 Q 655 272 782 294 Q 803 295 807 305 Q 811 315 789 314 Q 722 313 636 300 Q 590 288 622 322 Q 662 374 758 476 Q 789 515 817 537 Q 830 547 825 558 Q 815 579 780 600 Q 762 610 753 608 Q 741 605 743 589 Q 746 547 683 458 L 661 430 Z" fill="black" /></g></svg>