<?xml version='1.0' encoding='utf-8'?>
<svg xmlns="http://www.w3.org/2000/svg" version="1.1" viewBox="0 0 1024 1024"><g transform="scale(1, -1) translate(0, -900)"><path d="M 602 487 Q 659 491 745 497 Q 761 497 766 489 Q 776 482 777 439 Q 787 258 767 153 Q 758 111 723 115 Q 677 125 633 132 Q 617 136 617 129 Q 617 122 630 109 Q 724 43 750 8 Q 760 -8 772 -6 Q 788 -3 801 25 Q 835 88 846 279 Q 849 457 863 481 Q 882 505 867 510 Q 851 528 809 545 Q 784 561 756 550 Q 723 540 641 532 Q 625 531 608 528 L 550 522 Q 471 515 413 503 L 363 494 Q 302 484 243 473 C 213 468 221 426 250 434 Q 292 449 352 456 Q 353 457 357 456 L 405 463 Q 481 476 546 483 L 602 487 Z" fill="black" /></g></svg>