<?xml version='1.0' encoding='utf-8'?>
<svg xmlns="http://www.w3.org/2000/svg" version="1.1" viewBox="0 0 1024 1024"><g transform="scale(1, -1) translate(0, -900)"><path d="M 483 250 Q 476 -26 499 -68 Q 515 -84 525 -61 Q 543 -19 542 256 L 542 303 Q 542 372 542 441 L 542 496 Q 542 568 545 622 L 546 676 Q 549 766 569 796 Q 576 812 555 830 Q 528 851 482 862 Q 461 868 447 853 Q 437 844 450 831 Q 481 804 484 766 Q 484 723 484 661 L 485 611 Q 485 556 485 484 L 485 431 Q 485 329 484 295 L 483 250 Z" fill="black" /></g></svg>