<?xml version='1.0' encoding='utf-8'?>
<svg xmlns="http://www.w3.org/2000/svg" version="1.1" viewBox="0 0 1024 1024"><g transform="scale(1, -1) translate(0, -900)"><path d="M 486 224 Q 486 -34 504 -60 Q 519 -76 528 -54 Q 546 -14 544 229 L 543 267 Q 543 304 543 346 Q 542 374 542 402 L 542 439 Q 542 482 543 520 L 543 558 Q 543 625 545 673 L 547 706 Q 547 748 567 782 Q 574 798 554 815 Q 527 836 483 846 Q 462 852 449 837 Q 439 828 452 816 Q 483 791 486 753 Q 486 728 486 697 L 487 666 Q 487 615 487 549 L 487 515 Q 487 478 487 433 L 487 398 Q 487 319 487 259 L 486 224 Z" fill="black" /></g></svg>