<?xml version='1.0' encoding='utf-8'?>
<svg xmlns="http://www.w3.org/2000/svg" version="1.1" viewBox="0 0 1024 1024"><g transform="scale(1, -1) translate(0, -900)"><path d="M 710 569 Q 743 632 773 649 Q 795 670 769 689 Q 747 710 722 727 Q 709 739 638 719 Q 613 718 547 706 L 486 697 Q 449 693 412 686 Q 360 679 321 674 C 291 670 306 631 335 638 Q 336 639 339 639 Q 418 658 462 663 Q 472 664 487 666 L 545 673 Q 599 680 669 684 Q 685 685 690 678 Q 696 660 659 578 C 647 551 696 543 710 569 Z" fill="black" /></g></svg>