<?xml version='1.0' encoding='utf-8'?>
<svg xmlns="http://www.w3.org/2000/svg" version="1.1" viewBox="0 0 1024 1024"><g transform="scale(1, -1) translate(0, -900)"><path d="M 477 550 Q 544 572 594 579 Q 616 583 622 578 Q 626 571 621 554 Q 497 139 642 65 Q 678 44 746 35 Q 884 22 968 74 Q 987 84 980 107 Q 964 165 961 251 Q 960 270 954 269 Q 948 270 942 251 Q 908 149 879 125 Q 861 109 804 103 Q 740 96 687 113 Q 642 128 628 160 Q 606 200 615 289 Q 628 386 674 503 Q 693 554 726 581 Q 742 594 741 607 Q 740 619 670 651 Q 655 661 637 646 Q 588 612 505 591 Q 493 588 482 584 L 428 571 Q 367 558 308 541 Q 262 531 188 530 Q 173 531 176 516 Q 179 503 206 487 Q 237 469 275 485 Q 354 513 421 534 L 477 550 Z" fill="black" /></g></svg>