<?xml version='1.0' encoding='utf-8'?>
<svg xmlns="http://www.w3.org/2000/svg" version="1.1" viewBox="0 0 1024 1024"><g transform="scale(1, -1) translate(0, -900)"><path d="M 600 488 Q 610 488 701 513 Q 723 517 728 506 Q 740 479 751 279 Q 757 110 745 89 Q 741 83 720 87 Q 696 91 672 95 Q 651 101 652 91 Q 707 43 738 7 Q 751 -12 769 -17 Q 779 -21 787 -10 Q 829 44 825 99 Q 786 447 810 497 Q 822 518 809 528 Q 787 547 747 562 Q 728 569 711 561 Q 678 542 658 535 Q 633 526 581 519 C 551 515 571 482 600 488 Z" fill="black" /></g></svg>