<?xml version='1.0' encoding='utf-8'?>
<svg xmlns="http://www.w3.org/2000/svg" version="1.1" viewBox="0 0 1024 1024"><g transform="scale(1, -1) translate(0, -900)"><path d="M 475 530 Q 459 529 443 525 Q 298 504 216 507 Q 194 510 192 497 Q 191 485 216 468 Q 247 446 277 454 Q 368 479 460 496 L 527 509 Q 612 525 699 534 Q 727 535 733 521 Q 742 502 738 454 Q 725 276 692 181 Q 674 121 655 103 Q 642 88 613 96 Q 571 109 533 121 Q 508 128 526 105 Q 581 50 612 6 Q 624 -19 648 -11 Q 670 -7 696 23 Q 772 101 798 406 Q 804 473 829 514 Q 848 539 838 551 Q 819 573 778 591 Q 748 606 717 591 Q 641 563 542 542 L 475 530 Z" fill="black" /></g></svg>