<?xml version='1.0' encoding='utf-8'?>
<svg xmlns="http://www.w3.org/2000/svg" version="1.1" viewBox="0 0 1024 1024"><g transform="scale(1, -1) translate(0, -900)"><path d="M 460 496 Q 367 331 357 314 Q 353 311 350 305 Q 263 187 115 58 Q 108 54 104 47 Q 98 37 110 35 Q 143 32 266 135 Q 308 172 349 220 Q 449 341 527 509 L 542 542 Q 558 582 574 622 Q 614 725 630 751 Q 643 764 639 780 Q 627 804 598 828 Q 580 846 565 844 Q 550 840 553 823 Q 563 786 552 735 Q 540 704 528 664 Q 503 594 475 530 L 460 496 Z" fill="black" /></g></svg>