<?xml version='1.0' encoding='utf-8'?>
<svg xmlns="http://www.w3.org/2000/svg" version="1.1" viewBox="0 0 1024 1024"><g transform="scale(1, -1) translate(0, -900)"><path d="M 938 87 Q 911 144 892 245 Q 888 261 881 268 Q 872 275 869 258 Q 862 200 851 153 Q 847 122 822 102 Q 782 63 598 65 Q 528 72 501 86 Q 479 101 465 129 Q 447 171 459 399 L 463 448 Q 467 524 478 560 Q 487 582 456 605 Q 432 621 412 631 C 386 646 359 642 372 615 Q 403 552 405 547 Q 408 511 409 438 L 409 390 Q 402 140 420 102 Q 427 84 442 68 Q 503 -1 734 8 Q 837 12 915 46 Q 952 59 938 87 Z" fill="black" /></g></svg>