<?xml version='1.0' encoding='utf-8'?>
<svg xmlns="http://www.w3.org/2000/svg" version="1.1" viewBox="0 0 1024 1024"><g transform="scale(1, -1) translate(0, -900)"><path d="M 393 622 Q 402 621 413 628 Q 468 647 609 673 Q 622 674 630 668 Q 639 664 639 649 Q 638 612 622 546 Q 616 515 587 521 Q 553 527 524 532 Q 506 535 511 525 Q 512 513 543 490 Q 580 456 601 419 Q 608 409 618 412 Q 625 413 643 436 Q 668 467 677 507 Q 701 642 718 656 Q 730 669 723 681 Q 713 694 669 717 Q 654 726 603 710 Q 561 710 398 662 C 369 654 364 614 393 622 Z" fill="black" /></g></svg>