<?xml version='1.0' encoding='utf-8'?>
<svg xmlns="http://www.w3.org/2000/svg" version="1.1" viewBox="0 0 1024 1024"><g transform="scale(1, -1) translate(0, -900)"><path d="M 727 196 Q 574 180 407 145 Q 391 139 386 144 Q 382 153 397 172 Q 644 446 695 491 Q 713 501 707 518 Q 701 536 644 574 Q 625 587 611 584 Q 593 580 597 551 Q 603 515 574 472 Q 498 343 376 218 Q 342 178 273 142 Q 252 129 256 114 Q 260 92 290 62 Q 302 46 321 58 Q 390 107 741 166 Q 742 166 744 166 C 774 171 757 199 727 196 Z" fill="black" /></g></svg>