<?xml version='1.0' encoding='utf-8'?>
<svg xmlns="http://www.w3.org/2000/svg" version="1.1" viewBox="0 0 1024 1024"><g transform="scale(1, -1) translate(0, -900)"><path d="M 859 368 Q 850 387 838 445 Q 838 458 833 461 Q 829 464 824 451 Q 800 390 785 370 Q 779 363 760 357 Q 720 348 679 366 Q 664 373 659 384 Q 646 414 651 458 L 652 480 Q 655 511 662 547 Q 666 563 655 571 Q 645 583 624 590 Q 614 594 606 589 Q 600 586 605 570 Q 615 537 614 505 Q 608 349 650 326 Q 660 320 678 313 Q 778 282 854 336 Q 869 348 859 368 Z" fill="black" /></g></svg>