<?xml version='1.0' encoding='utf-8'?>
<svg xmlns="http://www.w3.org/2000/svg" version="1.1" viewBox="0 0 1024 1024"><g transform="scale(1, -1) translate(0, -900)"><path d="M 531 344 Q 531 554 538 621 L 544 659 Q 547 672 551 684 Q 560 700 557 713 Q 551 722 510 747 C 485 763 439 758 454 732 Q 481 692 483 649 L 484 615 Q 487 459 486 377 L 484 281 Q 478 137 469 86 Q 448 7 469 -38 Q 470 -45 475 -54 Q 482 -72 490 -75 Q 497 -82 504 -73 Q 511 -69 522 -48 Q 532 -23 531 9 Q 530 46 531 298 L 531 344 Z" fill="black" /></g></svg>