<?xml version='1.0' encoding='utf-8'?>
<svg xmlns="http://www.w3.org/2000/svg" version="1.1" viewBox="0 0 1024 1024"><g transform="scale(1, -1) translate(0, -900)"><path d="M 433 77 Q 520 5 815 40 Q 861 47 896 59 Q 926 66 934 81 Q 938 91 928 114 Q 903 177 889 315 Q 885 331 876 337 Q 870 340 867 325 Q 857 252 845 188 Q 835 134 806 113 Q 790 103 703 94 Q 613 87 544 95 Q 490 102 470 115 Q 418 146 407 267 Q 404 312 403 424 L 404 457 Q 408 560 428 614 Q 435 633 425 647 Q 410 660 370 676 Q 336 686 325 676 Q 316 667 332 645 Q 354 615 355 566 Q 355 508 356 443 L 357 408 Q 357 174 389 125 Q 404 100 433 77 Z" fill="black" /></g></svg>