<?xml version='1.0' encoding='utf-8'?>
<svg xmlns="http://www.w3.org/2000/svg" version="1.1" viewBox="0 0 1024 1024"><g transform="scale(1, -1) translate(0, -900)"><path d="M 667 715 Q 686 690 685 633 Q 682 455 663 341 Q 644 245 617 177 Q 604 149 591 143 Q 582 139 471 169 Q 440 178 438 173 Q 434 166 453 152 Q 519 103 556 58 Q 577 24 597 29 Q 651 44 698 183 Q 726 277 748 585 Q 752 666 775 692 Q 796 716 770 736 Q 688 791 648 778 Q 425 724 266 713 Q 256 714 254 706 Q 251 697 264 691 Q 315 666 352 677 Q 398 692 616 726 Q 653 730 667 715 Z" fill="black" /></g></svg>