<?xml version='1.0' encoding='utf-8'?>
<svg xmlns="http://www.w3.org/2000/svg" version="1.1" viewBox="0 0 1024 1024"><g transform="scale(1, -1) translate(0, -900)"><path d="M 323 369 Q 375 396 449 430 L 496 452 Q 562 485 644 523 Q 663 532 669 520 Q 676 505 625 342 Q 615 291 580 308 Q 559 315 539 321 Q 523 324 527 315 Q 531 303 597 238 Q 619 208 640 231 Q 683 277 698 347 Q 714 407 729 467 Q 741 506 774 539 Q 789 555 771 569 Q 752 582 696 595 Q 674 599 660 586 Q 620 549 541 509 Q 519 499 498 486 L 451 463 Q 391 436 327 409 L 270 385 Q 158 340 92 320 Q 77 317 77 307 Q 76 300 122 285 Q 152 276 176 292 Q 198 307 271 343 L 323 369 Z" fill="black" /></g></svg>