<?xml version='1.0' encoding='utf-8'?>
<svg xmlns="http://www.w3.org/2000/svg" version="1.1" viewBox="0 0 1024 1024"><g transform="scale(1, -1) translate(0, -900)"><path d="M 403 424 Q 512 464 680 519 Q 705 523 708 509 Q 714 497 671 370 Q 658 318 624 336 Q 599 345 575 353 Q 559 356 563 347 Q 569 334 641 266 Q 663 235 684 258 Q 721 300 750 395 Q 771 486 817 525 Q 833 541 816 556 Q 795 571 740 586 Q 719 593 703 579 Q 634 530 404 457 L 356 443 Q 341 440 330 436 Q 183 396 104 381 Q 89 381 87 370 Q 86 363 130 343 Q 158 330 184 344 Q 218 360 357 408 L 403 424 Z" fill="black" /></g></svg>