<?xml version='1.0' encoding='utf-8'?>
<svg xmlns="http://www.w3.org/2000/svg" version="1.1" viewBox="0 0 1024 1024"><g transform="scale(1, -1) translate(0, -900)"><path d="M 451 505 Q 520 527 570 535 Q 592 539 598 534 Q 602 527 598 511 Q 490 112 639 36 Q 676 18 741 10 Q 877 -3 968 54 Q 989 66 980 90 Q 961 156 954 255 Q 953 274 946 273 Q 940 273 935 254 Q 925 212 913 164 Q 903 127 879 104 Q 860 86 800 80 Q 733 70 679 89 Q 631 104 616 136 Q 594 173 602 259 Q 612 350 654 464 Q 673 512 702 538 Q 718 551 717 564 Q 716 576 646 607 Q 631 617 613 602 Q 568 572 456 539 L 396 523 Q 335 510 278 493 Q 232 483 156 482 Q 141 483 144 467 Q 147 455 174 439 Q 205 421 243 437 Q 321 465 388 486 L 451 505 Z" fill="black" /></g></svg>