<?xml version='1.0' encoding='utf-8'?>
<svg xmlns="http://www.w3.org/2000/svg" version="1.1" viewBox="0 0 1024 1024"><g transform="scale(1, -1) translate(0, -900)"><path d="M 472 -11 Q 478 -39 485 -49 Q 491 -56 499 -54 Q 514 -45 523 20 Q 535 123 532 224 Q 529 267 531 375 L 531 410 Q 531 480 534 568 L 534 604 Q 534 671 551 757 Q 555 776 539 787 Q 505 811 487 814 Q 474 820 456 810 Q 446 801 454 789 Q 484 741 484 647 Q 483 622 483 593 L 482 559 Q 481 489 478 405 L 477 369 Q 464 71 472 -11 Z" fill="black" /></g></svg>