<?xml version='1.0' encoding='utf-8'?>
<svg xmlns="http://www.w3.org/2000/svg" version="1.1" viewBox="0 0 1024 1024"><g transform="scale(1, -1) translate(0, -900)"><path d="M 576 747 Q 592 733 598 711 Q 610 670 602 523 Q 576 110 635 50 Q 686 -2 791 -3 Q 914 -10 959 32 Q 977 47 960 78 Q 941 134 937 204 Q 937 214 930 223 Q 920 229 914 206 Q 907 188 904 174 Q 870 85 858 73 Q 853 68 840 65 Q 815 57 776 57 Q 719 59 692 71 Q 672 80 662 103 Q 635 167 649 426 Q 659 653 686 696 Q 689 703 690 710 Q 691 746 612 770 Q 608 772 606 772 Q 585 775 577 766 Q 568 757 576 747 Z" fill="black" /></g></svg>