<?xml version='1.0' encoding='utf-8'?>
<svg xmlns="http://www.w3.org/2000/svg" version="1.1" viewBox="0 0 1024 1024"><g transform="scale(1, -1) translate(0, -900)"><path d="M 531 287 Q 534 299 538 311 L 547 354 Q 547 414 572 539 Q 576 563 587 588 Q 594 601 584 609 Q 565 628 525 646 Q 501 658 482 651 Q 460 644 477 624 Q 508 590 506 556 Q 505 430 488 347 Q 487 346 487 345 L 479 305 Q 440 167 304 88 Q 261 64 197 35 Q 182 31 179 26 Q 173 20 190 16 Q 208 15 271 31 Q 317 41 384 79 Q 435 107 466 148 Q 500 191 522 257 L 531 287 Z" fill="black" /></g></svg>