<?xml version='1.0' encoding='utf-8'?>
<svg xmlns="http://www.w3.org/2000/svg" version="1.1" viewBox="0 0 1024 1024"><g transform="scale(1, -1) translate(0, -900)"><path d="M 325 579 Q 335 592 480 615 L 521 622 Q 657 649 684 635 Q 696 628 690 592 Q 667 457 657 427 Q 649 410 655 392 Q 662 376 674 378 Q 688 379 696 396 Q 710 417 733 521 Q 749 577 785 608 Q 804 625 787 641 Q 766 657 715 684 Q 700 692 632 674 Q 585 671 523 657 L 478 649 L 310 615 C 281 609 298 566 325 579 Z" fill="black" /></g></svg>