<?xml version='1.0' encoding='utf-8'?>
<svg xmlns="http://www.w3.org/2000/svg" version="1.1" viewBox="0 0 1024 1024"><g transform="scale(1, -1) translate(0, -900)"><path d="M 977 37 Q 993 53 973 84 Q 951 139 940 212 Q 939 222 931 232 Q 919 238 917 212 Q 910 187 902 142 Q 895 100 883 83 Q 876 70 851 65 Q 752 41 687 66 Q 651 78 639 119 Q 618 186 633 421 Q 645 644 672 686 Q 690 731 597 760 Q 594 761 592 761 Q 571 765 563 756 Q 554 746 562 736 Q 584 715 586 640 Q 571 199 589 108 Q 598 62 642 31 Q 721 -20 893 3 Q 902 6 911 7 Q 957 19 977 37 Z" fill="black" /></g></svg>