<?xml version='1.0' encoding='utf-8'?>
<svg xmlns="http://www.w3.org/2000/svg" version="1.1" viewBox="0 0 1024 1024"><g transform="scale(1, -1) translate(0, -900)"><path d="M 206 270 Q 187 270 186 265 Q 184 243 198 237 L 220 227 Q 255 216 314 231 Q 476 273 487 263 Q 490 261 482 255 Q 282 120 287 53 Q 288 33 322 11 Q 398 -37 571 -33 L 735 -29 Q 808 -27 916 2 Q 953 13 941 38 Q 919 84 910 141 Q 908 155 902 161 Q 892 169 887 150 Q 880 120 862 73 Q 857 57 821 47 Q 736 24 594 25 Q 526 25 445 32 Q 367 45 353 76 Q 343 112 433 173 Q 472 200 572 244 Q 590 253 620 261 Q 643 269 647 272 Q 656 282 635 293 Q 562 329 517 315 Q 480 302 409 289 Q 339 276 206 270 Z" fill="black" /></g></svg>