<?xml version='1.0' encoding='utf-8'?>
<svg xmlns="http://www.w3.org/2000/svg" version="1.1" viewBox="0 0 1024 1024"><g transform="scale(1, -1) translate(0, -900)"><path d="M 384 329 Q 397 313 409 306 Q 419 299 432 318 Q 444 340 470 456 Q 477 484 497 506 Q 507 516 498 529 Q 485 544 447 566 Q 434 572 367 556 Q 357 556 346 550 L 307 541 Q 301 541 202 517 C 173 510 194 476 222 488 Q 250 503 385 527 Q 407 531 415 524 Q 425 511 424 497 Q 402 371 388 360 C 375 338 375 338 384 329 Z" fill="black" /></g></svg>