<?xml version='1.0' encoding='utf-8'?>
<svg xmlns="http://www.w3.org/2000/svg" version="1.1" viewBox="0 0 1024 1024"><g transform="scale(1, -1) translate(0, -900)"><path d="M 600 707 Q 610 682 601 524 Q 573 113 638 58 Q 669 34 708 27 Q 744 18 790 18 Q 865 15 904 26 Q 947 38 965 54 Q 981 67 965 97 Q 947 149 942 215 Q 942 225 935 235 Q 925 242 919 218 Q 909 193 895 152 Q 877 89 842 82 Q 805 72 743 75 Q 707 76 689 84 Q 659 97 655 127 Q 634 194 649 429 Q 661 652 688 694 Q 706 739 613 768 Q 610 769 608 769 Q 587 773 579 764 Q 570 754 578 744 Q 593 731 600 707 Z" fill="black" /></g></svg>