<?xml version='1.0' encoding='utf-8'?>
<svg xmlns="http://www.w3.org/2000/svg" version="1.1" viewBox="0 0 1024 1024"><g transform="scale(1, -1) translate(0, -900)"><path d="M 503 548 Q 407 532 309 526 Q 291 525 293 515 Q 294 506 314 500 Q 339 487 377 498 Q 420 505 466 513 L 514 521 Q 571 531 631 541 Q 664 548 676 534 Q 691 519 687 489 Q 683 465 677 441 L 667 395 Q 655 352 644 314 C 636 285 690 281 696 310 Q 706 362 717 396 L 736 450 Q 745 481 779 512 Q 797 531 781 551 Q 702 611 646 584 Q 580 565 519 550 L 503 548 Z" fill="black" /></g></svg>