<?xml version='1.0' encoding='utf-8'?>
<svg xmlns="http://www.w3.org/2000/svg" version="1.1" viewBox="0 0 1024 1024"><g transform="scale(1, -1) translate(0, -900)"><path d="M 506 563 Q 475 585 461 588 Q 448 591 448 567 Q 449 549 471 533 Q 513 497 525 417 Q 544 180 506 126 Q 505 126 505 124 Q 493 114 469 123 Q 430 130 383 141 Q 364 148 363 140 Q 363 137 456 50 Q 480 28 496 -3 Q 506 -13 518 -8 Q 534 -1 563 42 Q 614 127 585 436 Q 581 464 577 485 Q 568 528 526 549 L 506 563 Z" fill="black" /></g></svg>