<?xml version='1.0' encoding='utf-8'?>
<svg xmlns="http://www.w3.org/2000/svg" version="1.1" viewBox="0 0 1024 1024"><g transform="scale(1, -1) translate(0, -900)"><path d="M 644 356 Q 761 368 903 355 Q 928 352 934 361 Q 941 374 929 387 Q 898 415 853 436 Q 838 443 811 434 Q 754 422 644 405 L 589 399 Q 526 396 406 379 L 353 372 Q 319 371 296 366 Q 226 356 121 354 Q 106 354 105 342 Q 105 329 124 314 Q 163 284 213 296 Q 234 302 341 321 L 398 331 Q 446 340 589 351 L 644 356 Z" fill="black" /></g></svg>