<?xml version='1.0' encoding='utf-8'?>
<svg xmlns="http://www.w3.org/2000/svg" version="1.1" viewBox="0 0 1024 1024"><g transform="scale(1, -1) translate(0, -900)"><path d="M 641 177 Q 678 360 738 416 Q 759 438 741 459 Q 722 475 661 505 Q 640 514 614 505 Q 545 481 482 468 L 428 460 Q 355 450 280 446 Q 261 446 262 434 Q 265 424 286 416 Q 314 401 357 413 Q 388 417 419 421 L 472 429 Q 527 439 584 446 Q 614 452 625 440 Q 643 421 637 384 Q 615 266 585 174 C 576 145 635 148 641 177 Z" fill="black" /></g></svg>