<?xml version='1.0' encoding='utf-8'?>
<svg xmlns="http://www.w3.org/2000/svg" version="1.1" viewBox="0 0 1024 1024"><g transform="scale(1, -1) translate(0, -900)"><path d="M 357 262 Q 420 302 545 322 Q 585 332 609 324 Q 633 317 635 276 Q 622 185 575 118 Q 556 87 538 81 Q 516 74 487 84 Q 454 91 430 98 Q 411 107 410 98 Q 410 91 424 78 Q 472 32 502 -8 Q 514 -21 525 -21 Q 543 -21 563 -7 Q 638 53 680 195 Q 701 288 712 302 Q 725 315 715 330 Q 696 349 653 369 Q 631 379 604 371 Q 568 361 541 355 Q 492 348 430 339 Q 402 335 415 363 Q 439 411 448 421 Q 461 437 449 454 Q 440 461 428 466 C 404 484 361 484 368 455 Q 380 443 373 404 Q 358 356 323 327 Q 304 308 308 292 Q 311 276 329 261 Q 342 249 357 262 Z" fill="black" /></g></svg>