<?xml version='1.0' encoding='utf-8'?>
<svg xmlns="http://www.w3.org/2000/svg" version="1.1" viewBox="0 0 1024 1024"><g transform="scale(1, -1) translate(0, -900)"><path d="M 238 471 Q 228 478 212 482 Q 196 488 182 477 Q 175 471 189 456 Q 214 425 218 366 Q 225 305 210 283 Q 204 267 217 250 Q 233 231 245 239 Q 270 263 343 284 Q 365 291 373 284 Q 389 268 378 82 C 376 52 435 55 435 85 Q 432 250 453 282 Q 466 294 457 305 Q 444 321 397 336 Q 385 342 364 328 Q 330 313 280 300 Q 267 296 264 313 Q 264 334 263 441 C 263 459 263 459 238 471 Z" fill="black" /></g></svg>