<?xml version='1.0' encoding='utf-8'?>
<svg xmlns="http://www.w3.org/2000/svg" version="1.1" viewBox="0 0 1024 1024"><g transform="scale(1, -1) translate(0, -900)"><path d="M 786 360 Q 805 432 849 475 Q 874 497 858 513 Q 831 538 783 555 Q 761 565 742 557 Q 714 547 651 531 Q 632 525 631 547 Q 644 670 654 694 Q 663 718 646 729 Q 636 736 627 743 C 603 761 569 764 576 735 Q 589 692 584 594 Q 583 548 567 521 Q 557 502 581 476 Q 594 460 612 471 Q 646 498 724 511 Q 746 515 755 501 Q 765 483 742 400 Q 735 378 729 354 C 721 325 777 331 786 360 Z" fill="black" /></g></svg>