<?xml version='1.0' encoding='utf-8'?>
<svg xmlns="http://www.w3.org/2000/svg" version="1.1" viewBox="0 0 1024 1024"><g transform="scale(1, -1) translate(0, -900)"><path d="M 669 76 Q 679 52 700 13 Q 709 -6 719 -4 Q 735 -1 744 25 Q 781 101 784 203 Q 791 266 796 340 Q 800 391 825 423 Q 843 445 829 458 Q 805 480 756 502 Q 735 512 701 499 Q 608 469 502 451 Q 408 439 273 432 C 243 430 275 384 304 391 Q 332 400 470 417 L 511 423 Q 584 436 671 447 Q 711 454 726 435 Q 736 419 737 400 Q 737 265 712 133 Q 711 111 701 108 Q 697 104 670 121 Q 663 125 660 123 C 644 130 656 103 669 76 Z" fill="black" /></g></svg>