<?xml version='1.0' encoding='utf-8'?>
<svg xmlns="http://www.w3.org/2000/svg" version="1.1" viewBox="0 0 1024 1024"><g transform="scale(1, -1) translate(0, -900)"><path d="M 322 655 Q 332 643 339 581 L 339 542 Q 340 526 340 505 Q 339 496 339 486 L 339 454 Q 338 394 336 386 Q 332 361 316 366 Q 300 370 259 378 Q 246 382 244 377 Q 243 371 256 362 Q 310 331 331 304 Q 340 288 347 286 Q 354 283 358 287 Q 385 314 379 395 Q 378 402 378 474 L 379 501 Q 379 532 379 552 L 382 597 Q 383 615 389 622 Q 398 632 393 641 Q 389 651 369 662 Q 366 663 364 663 C 337 675 309 682 322 655 Z" fill="black" /></g></svg>