<?xml version='1.0' encoding='utf-8'?>
<svg xmlns="http://www.w3.org/2000/svg" version="1.1" viewBox="0 0 1024 1024"><g transform="scale(1, -1) translate(0, -900)"><path d="M 566 475 Q 594 535 607 582 L 614 611 Q 614 626 625 649 Q 632 659 628 670 Q 606 700 590 699 C 563 706 563 706 565 696 Q 564 693 566 689 Q 575 674 564 595 L 558 565 Q 557 561 556 556 Q 547 520 534 490 L 520 462 Q 493 420 471 388 Q 468 385 466 382 C 447 358 457 352 478 373 Q 541 436 545 441 L 566 475 Z" fill="black" /></g></svg>