<?xml version='1.0' encoding='utf-8'?>
<svg xmlns="http://www.w3.org/2000/svg" version="1.1" viewBox="0 0 1024 1024"><g transform="scale(1, -1) translate(0, -900)"><path d="M 658 386 Q 674 361 688 353 Q 698 346 714 366 Q 730 391 765 526 Q 775 557 798 581 Q 811 593 801 607 Q 785 625 744 652 Q 725 662 709 657 Q 669 647 613 640 Q 541 631 451 619 Q 385 609 330 601 C 300 597 312 559 341 566 Q 341 567 344 567 Q 455 592 649 614 Q 689 617 706 603 Q 719 593 715 572 Q 685 434 670 417 C 657 390 656 389 658 386 Z" fill="black" /></g></svg>