<?xml version='1.0' encoding='utf-8'?>
<svg xmlns="http://www.w3.org/2000/svg" version="1.1" viewBox="0 0 1024 1024"><g transform="scale(1, -1) translate(0, -900)"><path d="M 622 384 Q 631 505 642 586 Q 645 607 655 619 Q 664 629 656 642 Q 649 649 615 671 Q 605 678 588 672 Q 554 659 503 647 Q 461 640 409 637 C 379 635 399 610 429 612 Q 436 611 448 614 Q 539 635 577 639 Q 593 640 597 636 Q 601 629 600 613 Q 599 601 598 588 L 597 573 Q 596 542 594 512 L 594 498 Q 590 434 587 380 C 585 350 620 354 622 384 Z" fill="black" /></g></svg>