<?xml version='1.0' encoding='utf-8'?>
<svg xmlns="http://www.w3.org/2000/svg" version="1.1" viewBox="0 0 1024 1024"><g transform="scale(1, -1) translate(0, -900)"><path d="M 208 633 L 213 710 Q 205 719 176 733 Q 123 757 108 739 Q 95 733 112 711 Q 128 693 136 547 Q 149 198 108 103 Q 103 94 94 86 Q 70 65 85 45 Q 92 25 110 12 Q 129 -4 149 12 Q 161 25 198 39 Q 288 71 450 80 Q 511 85 587 86 Q 759 86 866 73 Q 921 66 923 90 Q 923 109 883 133 Q 843 157 819 156 Q 815 156 808 155 Q 597 148 367 120 Q 204 92 196 103 Q 189 110 194 237 Q 194 454 208 633 Z" fill="black" /></g></svg>