<?xml version='1.0' encoding='utf-8'?>
<svg xmlns="http://www.w3.org/2000/svg" version="1.1" viewBox="0 0 1024 1024"><g transform="scale(1, -1) translate(0, -900)"><path d="M 609 110 Q 610 109 613 105 Q 632 74 649 65 Q 659 58 674 78 Q 687 100 715 219 Q 725 249 747 272 Q 760 284 749 298 Q 734 314 694 340 Q 678 349 612 334 Q 558 331 367 295 C 338 289 346 255 375 263 Q 375 264 376 264 Q 461 286 611 303 Q 642 306 655 295 Q 668 286 664 268 Q 643 145 633 134 C 621 106 600 123 609 110 Z" fill="black" /></g></svg>