<?xml version='1.0' encoding='utf-8'?>
<svg xmlns="http://www.w3.org/2000/svg" version="1.1" viewBox="0 0 1024 1024"><g transform="scale(1, -1) translate(0, -900)"><path d="M 572 517 Q 615 533 654 546 Q 667 550 675 541 Q 682 534 676 510 Q 618 188 638 118 Q 662 45 829 46 Q 902 49 954 70 Q 979 80 970 103 Q 951 143 946 242 Q 945 264 940 273 Q 933 280 928 261 Q 918 215 901 163 Q 894 121 852 112 Q 810 99 749 104 Q 707 108 695 126 Q 661 175 724 453 Q 734 495 765 526 Q 793 551 771 570 Q 755 586 720 603 Q 693 615 679 603 Q 658 590 577 556 L 514 532 Q 438 510 356 492 Q 343 491 338 484 Q 331 475 346 468 Q 389 441 421 456 Q 466 475 508 492 L 572 517 Z" fill="black" /></g></svg>