<?xml version='1.0' encoding='utf-8'?>
<svg xmlns="http://www.w3.org/2000/svg" version="1.1" viewBox="0 0 1024 1024"><g transform="scale(1, -1) translate(0, -900)"><path d="M 294 278 Q 260 279 261 271 Q 254 253 282 238 Q 312 214 330 216 Q 351 216 382 232 Q 581 310 605 279 Q 612 263 597 240 Q 585 222 560 165 Q 515 77 497 63 Q 463 30 475 -20 Q 478 -42 488 -48 Q 498 -54 512 -42 Q 548 -15 632 184 Q 659 244 694 266 Q 704 275 706 286 Q 707 299 671 324 Q 634 348 617 350 Q 608 349 599 343 Q 488 292 294 278 Z" fill="black" /></g></svg>