<?xml version='1.0' encoding='utf-8'?>
<svg xmlns="http://www.w3.org/2000/svg" version="1.1" viewBox="0 0 1024 1024"><g transform="scale(1, -1) translate(0, -900)"><path d="M 404 362 Q 437 380 557 405 Q 567 406 573 402 Q 582 398 581 382 Q 578 345 560 279 Q 553 248 525 256 Q 483 265 451 272 Q 435 275 439 265 Q 440 255 469 235 Q 511 202 536 165 Q 542 155 552 158 Q 559 159 576 180 Q 597 207 616 267 Q 637 370 656 386 Q 668 396 662 409 Q 653 422 614 447 Q 599 457 541 442 Q 535 442 384 404 C 355 397 377 350 404 362 Z" fill="black" /></g></svg>