<?xml version='1.0' encoding='utf-8'?>
<svg xmlns="http://www.w3.org/2000/svg" version="1.1" viewBox="0 0 1024 1024"><g transform="scale(1, -1) translate(0, -900)"><path d="M 566 625 Q 647 649 704 658 Q 726 661 732 651 Q 741 644 728 591 Q 700 488 667 452 Q 657 439 659 431 Q 660 421 673 411 Q 683 405 696 412 Q 723 427 788 431 Q 807 435 818 427 Q 831 417 831 378 Q 831 230 765 129 Q 747 101 720 107 Q 689 119 656 133 Q 634 140 648 117 Q 685 68 709 24 Q 719 -4 746 10 Q 824 53 849 146 Q 868 212 887 357 Q 891 382 903 400 Q 915 416 901 431 Q 850 477 775 459 Q 723 456 721 460 Q 721 461 721 462 Q 722 481 759 552 Q 799 624 818 640 Q 842 656 836 671 Q 827 690 769 713 Q 751 720 727 708 Q 696 692 537 655 Q 491 645 455 647 Q 434 648 439 634 Q 443 624 476 613 Q 494 607 525 614 L 566 625 Z" fill="black" /></g></svg>