<?xml version='1.0' encoding='utf-8'?>
<svg xmlns="http://www.w3.org/2000/svg" version="1.1" viewBox="0 0 1024 1024"><g transform="scale(1, -1) translate(0, -900)"><path d="M 699 476 Q 699 338 699 121 Q 698 96 685 87 Q 678 84 602 101 Q 565 116 567 104 Q 568 95 591 78 Q 663 17 680 -17 Q 701 -57 719 -58 Q 735 -59 753 -19 Q 775 33 773 120 Q 758 301 758 482 L 758 532 Q 752 667 778 757 Q 797 793 732 818 Q 693 839 671 830 Q 650 823 669 796 Q 694 765 696 725 Q 697 706 699 520 L 699 476 Z" fill="black" /></g></svg>