<?xml version='1.0' encoding='utf-8'?>
<svg xmlns="http://www.w3.org/2000/svg" version="1.1" viewBox="0 0 1024 1024"><g transform="scale(1, -1) translate(0, -900)"><path d="M 559 236 Q 514 152 364 90 Q 351 84 349 79 Q 350 75 362 73 Q 380 69 423 82 Q 496 98 549 146 Q 573 168 591 195 L 614 235 Q 615 242 620 250 Q 642 311 648 398 Q 652 453 657 505 L 660 552 Q 672 712 698 764 Q 705 779 694 791 Q 672 810 631 823 Q 606 830 596 824 Q 586 817 593 804 Q 615 765 618 716 Q 619 626 613 539 L 610 494 Q 598 344 577 275 L 559 236 Z" fill="black" /></g></svg>