<?xml version='1.0' encoding='utf-8'?>
<svg xmlns="http://www.w3.org/2000/svg" version="1.1" viewBox="0 0 1024 1024"><g transform="scale(1, -1) translate(0, -900)"><path d="M 824 263 Q 727 253 643 234 L 597 225 Q 527 212 467 193 Q 445 187 450 214 Q 456 274 463 337 Q 467 362 456 377 Q 440 396 414 409 Q 402 416 391 413 Q 381 409 388 388 Q 416 324 407 261 Q 400 200 375 174 Q 356 155 363 140 Q 376 124 393 113 Q 408 104 418 113 Q 458 159 705 209 Q 798 228 820 220 C 850 217 854 266 824 263 Z" fill="black" /></g></svg>