<?xml version='1.0' encoding='utf-8'?>
<svg xmlns="http://www.w3.org/2000/svg" version="1.1" viewBox="0 0 1024 1024"><g transform="scale(1, -1) translate(0, -900)"><path d="M 427 373 Q 412 370 410 362 Q 409 355 417 351 Q 451 344 484 353 Q 557 381 584 390 Q 606 394 609 387 Q 609 386 596 357 Q 398 114 486 36 Q 487 36 490 33 Q 521 5 592 -11 Q 757 -47 932 28 Q 965 44 955 69 Q 930 129 911 228 Q 905 241 898 241 Q 892 241 888 224 Q 884 190 879 150 Q 872 95 832 72 Q 790 48 692 45 Q 595 41 558 58 Q 524 74 513 108 Q 497 183 627 317 Q 666 359 705 376 Q 730 388 721 401 Q 714 417 663 445 Q 644 457 616 443 Q 516 391 427 373 Z" fill="black" /></g></svg>