<?xml version='1.0' encoding='utf-8'?>
<svg xmlns="http://www.w3.org/2000/svg" version="1.1" viewBox="0 0 1024 1024"><g transform="scale(1, -1) translate(0, -900)"><path d="M 784 185 Q 660 170 526 141 Q 511 137 507 141 Q 504 147 514 161 Q 674 369 709 404 Q 724 414 717 430 Q 710 443 657 473 Q 639 483 628 479 Q 613 473 618 449 Q 636 386 480 190 Q 453 160 407 131 Q 391 118 394 105 Q 398 86 427 61 Q 439 48 454 60 Q 517 105 795 155 Q 796 156 800 155 C 830 159 814 189 784 185 Z" fill="black" /></g></svg>