<?xml version='1.0' encoding='utf-8'?>
<svg xmlns="http://www.w3.org/2000/svg" version="1.1" viewBox="0 0 1024 1024"><g transform="scale(1, -1) translate(0, -900)"><path d="M 689 551 Q 688 552 690 552 Q 771 580 828 594 Q 841 595 844 592 Q 857 576 854 529 Q 850 402 823 344 Q 813 319 791 319 Q 760 329 733 341 Q 711 348 727 327 Q 778 285 802 252 Q 826 233 842 254 Q 870 279 886 323 Q 905 374 903 521 Q 903 573 917 601 Q 927 613 920 622 Q 911 631 865 646 Q 847 652 832 639 Q 814 627 685 587 C 656 578 661 540 689 551 Z" fill="black" /></g></svg>