<?xml version='1.0' encoding='utf-8'?>
<svg xmlns="http://www.w3.org/2000/svg" version="1.1" viewBox="0 0 1024 1024"><g transform="scale(1, -1) translate(0, -900)"><path d="M 422 458 Q 422 524 426 549 Q 430 562 420 574 Q 395 596 372 607 Q 353 614 344 608 Q 334 601 343 586 Q 394 481 364 260 Q 355 221 323 179 Q 311 163 319 140 Q 329 112 343 101 Q 356 92 368 110 Q 383 137 519 248 Q 538 261 544 270 Q 548 280 538 280 Q 535 280 429 233 Q 416 226 414 239 Q 421 341 422 425 L 422 458 Z" fill="black" /></g></svg>