<?xml version='1.0' encoding='utf-8'?>
<svg xmlns="http://www.w3.org/2000/svg" version="1.1" viewBox="0 0 1024 1024"><g transform="scale(1, -1) translate(0, -900)"><path d="M 518 333 Q 600 357 667 367 Q 688 370 692 364 Q 705 345 696 297 Q 680 162 647 104 Q 631 76 606 79 Q 575 92 547 108 Q 523 118 538 92 Q 589 40 612 -1 Q 634 -25 655 -3 Q 689 22 712 67 Q 739 119 754 281 Q 758 338 778 366 Q 791 379 784 390 Q 774 402 720 425 Q 698 434 678 419 Q 656 406 565 383 Q 474 358 397 351 Q 378 350 376 340 Q 375 333 400 320 Q 427 304 448 312 Q 464 318 482 322 L 518 333 Z" fill="black" /></g></svg>