<?xml version='1.0' encoding='utf-8'?>
<svg xmlns="http://www.w3.org/2000/svg" version="1.1" viewBox="0 0 1024 1024"><g transform="scale(1, -1) translate(0, -900)"><path d="M 624 412 Q 645 403 696 393 Q 726 386 737 370 Q 752 340 692 177 Q 662 102 631 91 Q 613 85 559 113 Q 519 132 514 126 Q 507 116 526 103 Q 583 55 594 12 Q 600 -7 612 -14 Q 627 -21 664 3 Q 710 37 747 142 Q 802 325 818 337 Q 833 343 834 353 Q 837 363 811 392 Q 775 428 712 428 Q 673 435 643 445 C 614 454 596 422 624 412 Z" fill="black" /></g></svg>