<?xml version='1.0' encoding='utf-8'?>
<svg xmlns="http://www.w3.org/2000/svg" version="1.1" viewBox="0 0 1024 1024"><g transform="scale(1, -1) translate(0, -900)"><path d="M 954 47 Q 985 62 969 92 Q 944 141 932 221 Q 928 243 922 248 Q 912 252 910 237 Q 892 117 873 98 Q 857 85 814 80 Q 712 73 656 145 Q 619 217 664 369 Q 682 418 711 440 Q 739 462 708 474 Q 692 483 656 495 Q 631 504 583 473 Q 516 445 488 436 C 460 426 472 403 501 410 Q 609 435 611 434 Q 617 425 602 314 Q 575 119 663 62 Q 739 7 841 13 Q 899 20 954 47 Z" fill="black" /></g></svg>