<?xml version='1.0' encoding='utf-8'?>
<svg xmlns="http://www.w3.org/2000/svg" version="1.1" viewBox="0 0 1024 1024"><g transform="scale(1, -1) translate(0, -900)"><path d="M 534 639 Q 546 611 548 531 L 546 501 Q 543 456 535 392 L 529 354 Q 495 173 355 52 Q 325 31 318 17 Q 315 10 328 10 Q 370 7 454 89 Q 503 138 533 195 Q 561 255 578 338 Q 579 350 582 361 L 589 402 Q 596 451 603 508 L 605 539 Q 606 560 609 580 Q 613 601 617 613 Q 624 634 602 645 Q 596 649 591 651 C 565 666 526 668 534 639 Z" fill="black" /></g></svg>