<?xml version='1.0' encoding='utf-8'?>
<svg xmlns="http://www.w3.org/2000/svg" version="1.1" viewBox="0 0 1024 1024"><g transform="scale(1, -1) translate(0, -900)"><path d="M 757 425 Q 767 483 777 522 L 794 574 Q 803 613 839 648 Q 858 670 840 689 Q 821 704 761 730 Q 742 737 717 728 Q 606 680 451 662 Q 435 661 436 650 Q 439 641 458 635 Q 485 625 520 637 Q 527 638 534 639 L 591 651 Q 643 664 698 675 Q 720 681 730 671 Q 748 655 744 619 Q 740 591 733 562 L 725 519 Q 713 470 701 425 C 693 396 752 395 757 425 Z" fill="black" /></g></svg>