<?xml version='1.0' encoding='utf-8'?>
<svg xmlns="http://www.w3.org/2000/svg" version="1.1" viewBox="0 0 1024 1024"><g transform="scale(1, -1) translate(0, -900)"><path d="M 641 181 Q 681 244 719 340 Q 731 371 752 392 Q 771 410 757 424 Q 742 437 708 448 Q 683 455 654 440 Q 630 430 602 418 L 558 402 Q 513 389 446 376 Q 430 375 426 366 Q 422 357 443 351 Q 483 338 536 358 Q 621 392 637 392 Q 659 391 655 366 Q 636 279 599 218 L 577 185 Q 505 97 360 53 Q 345 47 358 39 Q 365 33 411 37 Q 522 46 613 144 L 641 181 Z" fill="black" /></g></svg>