<?xml version='1.0' encoding='utf-8'?>
<svg xmlns="http://www.w3.org/2000/svg" version="1.1" viewBox="0 0 1024 1024"><g transform="scale(1, -1) translate(0, -900)"><path d="M 639 236 Q 709 77 824 -5 Q 893 -57 925 -54 Q 947 -48 938 -17 Q 934 32 939 172 Q 940 197 931 199 Q 928 199 880 107 Q 861 70 834 80 Q 824 86 812 94 Q 731 164 681 270 L 661 317 Q 631 398 612 471 L 599 520 Q 572 643 577 721 Q 587 770 520 789 Q 477 804 455 793 Q 433 783 446 761 Q 504 718 508 678 Q 527 578 549 496 L 561 451 Q 586 358 620 279 L 639 236 Z" fill="black" /></g></svg>