<?xml version='1.0' encoding='utf-8'?>
<svg xmlns="http://www.w3.org/2000/svg" version="1.1" viewBox="0 0 1024 1024"><g transform="scale(1, -1) translate(0, -900)"><path d="M 612 495 Q 612 502 613 510 L 613 556 Q 613 680 631 748 Q 646 773 620 792 Q 604 804 574 821 Q 550 837 529 822 Q 525 816 531 801 Q 565 752 566 701 Q 567 628 570 546 L 568 418 Q 565 193 556 140 Q 534 40 551 -4 Q 554 -11 559 -22 Q 566 -40 574 -43 Q 581 -50 588 -42 Q 615 -18 614 41 Q 613 87 612 442 L 612 495 Z" fill="black" /></g></svg>