<?xml version='1.0' encoding='utf-8'?>
<svg xmlns="http://www.w3.org/2000/svg" version="1.1" viewBox="0 0 1024 1024"><g transform="scale(1, -1) translate(0, -900)"><path d="M 630 358 Q 807 389 829 372 Q 836 365 835 352 Q 810 217 796 200 Q 786 185 771 191 Q 737 198 700 207 Q 672 210 692 191 Q 758 137 785 98 Q 792 85 805 91 Q 832 109 856 185 Q 890 320 909 338 Q 925 360 919 368 Q 912 381 858 417 Q 839 433 823 427 Q 792 417 736 408 Q 676 401 629 393 L 578 385 Q 508 375 473 364 Q 418 351 377 346 Q 353 342 349 332 Q 348 325 365 315 Q 399 293 433 307 Q 482 326 577 348 L 630 358 Z" fill="black" /></g></svg>