<?xml version='1.0' encoding='utf-8'?>
<svg xmlns="http://www.w3.org/2000/svg" version="1.1" viewBox="0 0 1024 1024"><g transform="scale(1, -1) translate(0, -900)"><path d="M 629 393 Q 629 433 629 482 L 629 524 Q 629 561 629 601 L 629 650 Q 629 705 643 780 Q 646 799 631 809 Q 597 831 580 834 Q 567 838 550 829 Q 541 820 549 809 Q 576 749 578 738 Q 581 714 581 638 L 581 592 Q 581 555 580 512 L 580 472 Q 579 432 578 385 L 577 348 Q 567 5 593 -33 Q 600 -40 607 -38 Q 622 -29 629 34 Q 639 139 634 241 Q 631 278 630 358 L 629 393 Z" fill="black" /></g></svg>