<?xml version='1.0' encoding='utf-8'?>
<svg xmlns="http://www.w3.org/2000/svg" version="1.1" viewBox="0 0 1024 1024"><g transform="scale(1, -1) translate(0, -900)"><path d="M 652 126 Q 520 105 383 82 Q 373 79 370 83 Q 369 86 375 93 Q 469 205 504 234 Q 520 249 511 259 Q 504 268 485 275 C 458 288 428 297 425 267 Q 425 201 346 119 Q 321 94 276 72 Q 245 60 245 49 Q 244 30 253 8 Q 263 -14 278 -21 Q 285 -25 298 -19 Q 394 38 638 99 Q 653 103 668 105 C 698 110 682 131 652 126 Z" fill="black" /></g></svg>