<?xml version='1.0' encoding='utf-8'?>
<svg xmlns="http://www.w3.org/2000/svg" version="1.1" viewBox="0 0 1024 1024"><g transform="scale(1, -1) translate(0, -900)"><path d="M 679 94 Q 712 131 778 220 Q 809 259 829 268 Q 851 278 851 289 Q 852 301 835 314 Q 813 332 788 344 Q 763 354 726 336 Q 654 314 605 310 Q 580 304 586 331 Q 593 374 603 419 L 612 463 Q 624 524 637 587 L 648 643 Q 669 745 686 768 Q 699 784 679 798 Q 657 814 612 830 Q 596 836 588 828 Q 579 821 594 800 Q 613 769 598 629 L 592 578 Q 591 571 590 561 Q 583 512 570 457 L 558 412 Q 536 334 518 316 Q 494 289 516 248 Q 523 238 542 251 Q 596 285 715 296 Q 740 299 740 294 Q 740 290 660 107 C 648 80 660 71 679 94 Z" fill="black" /></g></svg>