<?xml version='1.0' encoding='utf-8'?>
<svg xmlns="http://www.w3.org/2000/svg" version="1.1" viewBox="0 0 1024 1024"><g transform="scale(1, -1) translate(0, -900)"><path d="M 473 688 Q 461 698 434 712 Q 412 725 403 717 Q 396 710 403 693 Q 422 656 424 588 Q 434 162 383 79 Q 373 63 382 41 Q 391 19 401 9 Q 413 0 430 14 Q 491 54 582 73 Q 687 92 889 92 Q 914 91 915 104 Q 914 119 884 140 Q 868 153 750 131 Q 471 98 467 102 Q 464 108 465 117 Q 472 318 477 572 Q 477 623 484 659 C 487 679 487 679 473 688 Z" fill="black" /></g></svg>