<?xml version='1.0' encoding='utf-8'?>
<svg xmlns="http://www.w3.org/2000/svg" version="1.1" viewBox="0 0 1024 1024"><g transform="scale(1, -1) translate(0, -900)"><path d="M 822 87 Q 812 114 799 194 Q 799 209 793 214 Q 787 217 782 201 Q 752 116 734 91 Q 721 75 679 64 Q 586 43 506 76 Q 475 92 467 112 Q 440 164 472 335 C 477 364 477 364 457 376 Q 447 385 430 391 Q 417 395 409 390 Q 402 386 408 369 Q 420 330 417 293 Q 407 136 420 93 Q 424 66 448 45 Q 532 -27 711 3 Q 720 6 731 8 Q 773 21 814 50 Q 833 63 822 87 Z" fill="black" /></g></svg>