<?xml version='1.0' encoding='utf-8'?>
<svg xmlns="http://www.w3.org/2000/svg" version="1.1" viewBox="0 0 1024 1024"><g transform="scale(1, -1) translate(0, -900)"><path d="M 588 378 Q 612 429 642 503 L 655 540 Q 668 582 681 624 Q 708 720 719 741 Q 731 754 726 769 Q 713 790 682 810 Q 666 825 651 822 Q 638 818 641 802 Q 656 763 642 701 Q 612 581 593 526 L 580 490 Q 520 312 324 98 Q 317 92 314 86 Q 310 76 321 76 Q 354 76 460 185 Q 488 216 517 256 Q 548 302 577 356 L 588 378 Z" fill="black" /></g></svg>