<?xml version='1.0' encoding='utf-8'?>
<svg xmlns="http://www.w3.org/2000/svg" version="1.1" viewBox="0 0 1024 1024"><g transform="scale(1, -1) translate(0, -900)"><path d="M 525 265 Q 529 304 539 345 Q 543 364 532 375 Q 519 390 493 400 Q 480 404 470 399 Q 463 395 468 376 Q 481 333 477 293 Q 465 131 478 86 Q 482 64 503 43 Q 573 -15 735 5 Q 750 8 767 12 Q 807 22 846 49 Q 865 65 851 93 Q 836 121 814 209 Q 813 225 805 230 Q 798 233 795 215 Q 771 121 754 90 Q 724 57 628 62 Q 591 65 562 77 Q 537 90 529 106 Q 514 143 522 242 L 525 265 Z" fill="black" /></g></svg>