<?xml version='1.0' encoding='utf-8'?>
<svg xmlns="http://www.w3.org/2000/svg" version="1.1" viewBox="0 0 1024 1024"><g transform="scale(1, -1) translate(0, -900)"><path d="M 642 503 Q 700 516 764 524 Q 786 525 791 515 Q 800 496 797 449 Q 787 274 754 181 Q 738 123 718 105 Q 706 92 679 99 Q 642 109 609 121 Q 584 128 601 105 Q 652 53 679 12 Q 689 -10 713 -4 Q 734 -1 759 29 Q 831 105 854 403 Q 860 469 883 508 Q 902 532 891 543 Q 873 564 835 580 Q 807 593 777 580 Q 723 558 655 540 L 593 526 Q 577 525 560 520 Q 445 499 379 500 Q 358 501 357 490 Q 356 480 380 464 Q 408 445 436 453 Q 508 475 580 490 L 642 503 Z" fill="black" /></g></svg>