<?xml version='1.0' encoding='utf-8'?>
<svg xmlns="http://www.w3.org/2000/svg" version="1.1" viewBox="0 0 1024 1024"><g transform="scale(1, -1) translate(0, -900)"><path d="M 544 438 Q 545 469 547 498 L 547 524 Q 550 693 559 725 Q 566 744 552 760 Q 527 779 499 786 Q 468 795 457 780 Q 448 768 463 754 Q 482 735 489 691 Q 499 615 497 431 L 497 393 Q 491 108 451 57 Q 438 38 449 15 Q 462 -7 482 -15 Q 494 -24 507 -5 Q 526 25 628 119 Q 658 140 661 151 Q 662 158 656 160 Q 653 161 551 105 Q 530 87 529 116 Q 535 249 541 387 L 544 438 Z" fill="black" /></g></svg>