<?xml version='1.0' encoding='utf-8'?>
<svg xmlns="http://www.w3.org/2000/svg" version="1.1" viewBox="0 0 1024 1024"><g transform="scale(1, -1) translate(0, -900)"><path d="M 931 119 Q 912 162 896 238 Q 893 254 885 258 Q 878 262 875 242 Q 865 149 851 132 Q 820 102 705 98 Q 641 99 613 110 Q 589 123 584 139 Q 574 164 574 228 L 576 251 Q 582 321 597 354 Q 609 385 590 401 Q 539 440 524 435 Q 509 429 516 412 Q 535 375 532 319 Q 525 139 550 103 Q 577 66 652 55 Q 710 46 800 49 Q 882 53 914 70 Q 945 88 931 119 Z" fill="black" /></g></svg>