<?xml version='1.0' encoding='utf-8'?>
<svg xmlns="http://www.w3.org/2000/svg" version="1.1" viewBox="0 0 1024 1024"><g transform="scale(1, -1) translate(0, -900)"><path d="M 403 429 Q 418 383 404 298 Q 401 259 368 214 Q 347 187 388 146 Q 391 145 394 141 Q 407 132 420 149 Q 463 219 602 372 Q 615 385 617 394 Q 618 401 611 399 Q 599 395 478 287 Q 468 280 462 282 Q 459 283 459 293 Q 455 453 457 471 Q 460 489 448 497 Q 435 507 391 517 Q 375 518 369 514 Q 362 507 375 489 Q 394 464 403 429 Z" fill="black" /></g></svg>