<?xml version='1.0' encoding='utf-8'?>
<svg xmlns="http://www.w3.org/2000/svg" version="1.1" viewBox="0 0 1024 1024"><g transform="scale(1, -1) translate(0, -900)"><path d="M 444 691 Q 419 691 420 678 Q 421 666 445 650 Q 478 629 521 642 Q 761 720 769 661 Q 770 630 767 526 Q 763 310 767 175 Q 771 76 762 65 Q 758 58 748 56 Q 738 56 675 66 Q 662 70 659 63 Q 658 56 685 36 Q 728 5 758 -26 Q 783 -54 794 -50 Q 804 -49 813 -31 Q 840 21 836 63 Q 796 595 849 658 Q 856 670 855 675 Q 856 687 824 710 Q 781 740 768 741 Q 756 741 741 736 Q 698 721 602 705 Q 511 692 444 691 Z" fill="black" /></g></svg>