<?xml version='1.0' encoding='utf-8'?>
<svg xmlns="http://www.w3.org/2000/svg" version="1.1" viewBox="0 0 1024 1024"><g transform="scale(1, -1) translate(0, -900)"><path d="M 421 512 Q 316 493 313 491 Q 297 491 297 482 Q 297 475 316 464 Q 338 451 359 460 Q 386 470 415 478 L 470 493 Q 494 500 521 505 Q 533 506 535 502 Q 542 489 541 450 Q 535 314 511 240 Q 499 194 485 180 Q 475 170 454 176 Q 424 186 398 196 Q 377 203 391 184 Q 431 138 454 104 Q 461 85 481 89 Q 497 92 518 116 Q 575 177 590 414 Q 593 466 612 498 Q 625 517 617 525 Q 604 541 572 553 Q 550 563 527 551 Q 505 541 477 529 L 421 512 Z" fill="black" /></g></svg>