<?xml version='1.0' encoding='utf-8'?>
<svg xmlns="http://www.w3.org/2000/svg" version="1.1" viewBox="0 0 1024 1024"><g transform="scale(1, -1) translate(0, -900)"><path d="M 465 584 Q 450 594 414 603 Q 396 606 391 600 Q 384 593 396 574 Q 426 531 431 407 Q 430 389 431 365 Q 428 208 371 137 Q 358 124 367 102 Q 377 72 393 59 Q 406 49 419 66 Q 459 121 587 240 Q 603 252 604 262 Q 607 269 599 267 Q 590 266 489 204 Q 480 200 478 202 Q 471 206 472 222 Q 476 519 481 551 Q 482 563 480 570 C 480 577 480 577 465 584 Z" fill="black" /></g></svg>