<?xml version='1.0' encoding='utf-8'?>
<svg xmlns="http://www.w3.org/2000/svg" version="1.1" viewBox="0 0 1024 1024"><g transform="scale(1, -1) translate(0, -900)"><path d="M 645 391 Q 660 307 751 177 Q 781 138 820 107 Q 874 67 909 59 Q 937 59 934 94 Q 924 128 932 290 Q 932 303 926 305 Q 920 306 916 292 Q 903 255 891 218 Q 875 170 858 170 Q 840 171 807 207 Q 771 241 741 294 Q 714 342 690 404 L 677 449 Q 658 521 678 576 Q 688 606 623 635 C 596 648 577 644 591 618 Q 610 590 616 545 Q 622 487 633 434 L 645 391 Z" fill="black" /></g></svg>