<?xml version='1.0' encoding='utf-8'?>
<svg xmlns="http://www.w3.org/2000/svg" version="1.1" viewBox="0 0 1024 1024"><g transform="scale(1, -1) translate(0, -900)"><path d="M 567 365 Q 546 214 415 110 Q 382 88 338 60 Q 325 54 322 50 Q 318 43 333 42 Q 348 42 402 63 Q 439 76 496 117 Q 538 147 563 188 Q 596 240 612 317 L 619 355 Q 620 364 622 373 L 628 416 Q 635 480 639 543 L 640 593 Q 644 723 662 778 Q 666 791 658 798 Q 639 814 602 828 Q 580 837 563 831 Q 544 822 560 805 Q 588 777 590 745 Q 591 657 588 578 L 586 531 Q 582 464 573 404 L 567 365 Z" fill="black" /></g></svg>