<?xml version='1.0' encoding='utf-8'?>
<svg xmlns="http://www.w3.org/2000/svg" version="1.1" viewBox="0 0 1024 1024"><g transform="scale(1, -1) translate(0, -900)"><path d="M 496 545 Q 535 527 563 537 Q 593 547 729 576 Q 753 580 762 570 Q 781 548 781 497 Q 785 338 772 236 Q 747 77 714 57 Q 704 51 607 81 Q 592 88 590 81 Q 586 74 603 60 Q 655 15 683 -26 Q 702 -56 720 -51 Q 736 -47 757 -18 Q 788 19 808 90 Q 830 175 845 454 Q 846 527 866 551 Q 882 572 861 589 Q 783 635 735 615 Q 635 587 511 564 C 482 558 467 554 496 545 Z" fill="black" /></g></svg>