<?xml version='1.0' encoding='utf-8'?>
<svg xmlns="http://www.w3.org/2000/svg" version="1.1" viewBox="0 0 1024 1024"><g transform="scale(1, -1) translate(0, -900)"><path d="M 506 611 Q 507 562 508 513 L 507 484 Q 506 457 505 430 Q 504 409 501 387 L 498 353 Q 479 206 417 116 Q 366 56 367 54 Q 370 50 380 52 Q 390 49 417 67 Q 514 122 540 329 Q 541 347 544 365 L 546 397 Q 547 424 548 452 Q 548 473 548 493 L 549 522 Q 549 574 551 624 L 552 659 Q 552 695 568 738 Q 574 751 564 761 Q 542 777 506 786 Q 482 790 475 784 Q 466 777 474 766 Q 498 732 504 647 L 506 611 Z" fill="black" /></g></svg>