<?xml version='1.0' encoding='utf-8'?>
<svg xmlns="http://www.w3.org/2000/svg" version="1.1" viewBox="0 0 1024 1024"><g transform="scale(1, -1) translate(0, -900)"><path d="M 601 471 Q 650 526 702 593 Q 721 621 756 647 Q 771 657 766 667 Q 765 677 704 701 Q 692 708 647 689 Q 593 670 512 654 C 483 648 469 645 498 636 Q 523 618 627 644 Q 643 648 650 641 Q 653 634 642 617 Q 611 560 564 503 L 541 476 Q 454 382 310 274 Q 295 262 310 261 Q 352 261 469 349 Q 521 397 575 444 L 601 471 Z" fill="black" /></g></svg>