<?xml version='1.0' encoding='utf-8'?>
<svg xmlns="http://www.w3.org/2000/svg" version="1.1" viewBox="0 0 1024 1024"><g transform="scale(1, -1) translate(0, -900)"><path d="M 625 121 Q 679 81 754 9 Q 779 -13 797 -15 Q 819 -16 821 4 Q 822 26 796 75 Q 784 106 655 166 L 607 188 Q 567 207 535 218 Q 510 224 524 249 Q 543 295 556 324 L 575 364 Q 575 365 576 366 Q 585 391 596 408 Q 606 415 602 425 Q 595 440 556 467 Q 543 476 533 471 Q 520 467 528 451 Q 537 430 519 356 L 507 317 Q 491 274 474 245 Q 464 227 467 214 Q 468 204 487 200 Q 530 185 575 156 Q 578 155 580 152 L 625 121 Z" fill="black" /></g></svg>