<?xml version='1.0' encoding='utf-8'?>
<svg xmlns="http://www.w3.org/2000/svg" version="1.1" viewBox="0 0 1024 1024"><g transform="scale(1, -1) translate(0, -900)"><path d="M 498 362 Q 507 414 515 461 L 518 483 Q 524 526 537 558 Q 547 579 504 615 C 482 635 455 643 462 614 Q 462 611 464 606 Q 497 498 416 204 Q 406 158 358 116 Q 331 89 361 43 Q 362 42 364 39 Q 376 29 390 44 Q 409 68 568 153 Q 589 162 595 170 Q 601 179 591 181 Q 579 182 468 149 Q 452 145 454 158 Q 476 254 493 337 L 498 362 Z" fill="black" /></g></svg>