<?xml version='1.0' encoding='utf-8'?>
<svg xmlns="http://www.w3.org/2000/svg" version="1.1" viewBox="0 0 1024 1024"><g transform="scale(1, -1) translate(0, -900)"><path d="M 421 654 Q 439 657 710 714 Q 725 718 735 708 Q 742 696 741 677 Q 707 136 914 34 Q 915 33 920 31 Q 957 12 977 24 Q 989 30 984 51 Q 974 138 977 230 Q 978 242 973 249 Q 966 256 962 239 Q 943 169 927 138 Q 909 105 888 130 Q 836 169 806 284 Q 773 404 789 617 Q 793 659 834 703 Q 849 718 831 732 Q 818 745 762 771 Q 741 783 722 766 Q 665 727 404 683 C 374 678 392 648 421 654 Z" fill="black" /></g></svg>