<?xml version='1.0' encoding='utf-8'?>
<svg xmlns="http://www.w3.org/2000/svg" version="1.1" viewBox="0 0 1024 1024"><g transform="scale(1, -1) translate(0, -900)"><path d="M 515 461 Q 539 457 646 486 Q 659 490 664 485 Q 670 476 654 348 Q 614 62 814 3 Q 827 0 844 -2 Q 890 -6 939 5 Q 973 15 962 51 Q 943 105 940 187 Q 940 211 934 215 Q 925 221 921 206 Q 893 89 871 72 Q 855 65 822 70 Q 738 85 712 150 Q 664 235 712 410 Q 730 465 764 493 Q 791 515 760 528 Q 744 537 708 548 Q 683 557 635 525 Q 559 492 518 483 C 489 475 485 459 515 461 Z" fill="black" /></g></svg>