<?xml version='1.0' encoding='utf-8'?>
<svg xmlns="http://www.w3.org/2000/svg" version="1.1" viewBox="0 0 1024 1024"><g transform="scale(1, -1) translate(0, -900)"><path d="M 557 299 Q 596 341 659 417 L 698 466 Q 732 512 760 555 Q 800 618 825 647 Q 834 657 827 674 Q 797 731 764 734 Q 748 735 751 713 Q 766 635 664 492 Q 651 476 636 454 L 602 411 Q 571 374 531 331 Q 528 330 526 326 L 491 290 Q 404 205 300 121 Q 293 117 292 109 Q 291 103 298 104 Q 332 104 456 204 Q 459 208 495 238 L 557 299 Z" fill="black" /></g></svg>