<?xml version='1.0' encoding='utf-8'?>
<svg xmlns="http://www.w3.org/2000/svg" version="1.1" viewBox="0 0 1024 1024"><g transform="scale(1, -1) translate(0, -900)"><path d="M 873 74 Q 857 113 843 182 Q 840 198 833 202 Q 826 206 823 187 Q 810 102 796 87 Q 772 59 661 54 Q 601 54 575 63 Q 553 75 547 89 Q 541 110 539 173 L 541 195 Q 545 241 556 266 Q 563 287 557 299 L 526 326 Q 496 345 485 342 Q 472 336 479 320 Q 486 307 491 290 L 495 238 Q 495 82 515 55 Q 521 45 533 36 Q 579 0 750 7 Q 826 11 857 28 Q 885 44 873 74 Z" fill="black" /></g></svg>