<?xml version='1.0' encoding='utf-8'?>
<svg xmlns="http://www.w3.org/2000/svg" version="1.1" viewBox="0 0 1024 1024"><g transform="scale(1, -1) translate(0, -900)"><path d="M 658 426 Q 673 690 700 731 Q 707 752 690 765 Q 663 790 627 800 Q 608 804 601 795 Q 592 786 599 777 Q 618 758 622 711 Q 601 177 639 114 Q 681 53 803 47 Q 929 41 972 80 Q 991 96 971 129 Q 949 187 943 262 Q 942 272 934 280 Q 924 284 922 262 Q 915 234 907 189 Q 900 144 889 126 Q 883 114 860 110 Q 779 89 712 116 Q 679 128 666 171 Q 650 225 657 408 L 658 426 Z" fill="black" /></g></svg>