<?xml version='1.0' encoding='utf-8'?>
<svg xmlns="http://www.w3.org/2000/svg" version="1.1" viewBox="0 0 1024 1024"><g transform="scale(1, -1) translate(0, -900)"><path d="M 504 460 Q 514 460 526 463 Q 580 475 632 486 Q 654 490 658 479 Q 670 449 682 248 Q 689 80 677 53 Q 673 46 650 51 Q 623 52 595 56 Q 574 60 577 51 Q 638 9 675 -23 Q 690 -41 705 -45 Q 715 -48 722 -38 Q 761 16 754 69 Q 715 423 735 467 Q 735 470 737 471 Q 749 490 736 501 Q 714 519 677 533 Q 658 540 642 532 Q 582 501 494 490 C 464 486 474 456 504 460 Z" fill="black" /></g></svg>