<?xml version='1.0' encoding='utf-8'?>
<svg xmlns="http://www.w3.org/2000/svg" version="1.1" viewBox="0 0 1024 1024"><g transform="scale(1, -1) translate(0, -900)"><path d="M 514 401 Q 514 629 521 699 L 529 748 Q 532 764 537 779 Q 547 795 543 810 Q 536 820 476 857 Q 451 875 429 858 Q 423 852 430 836 Q 464 784 466 731 L 468 688 Q 471 565 468 469 L 466 359 Q 462 167 443 90 Q 425 29 449 -30 Q 450 -34 453 -40 Q 460 -59 469 -63 Q 476 -70 483 -61 Q 492 -57 503 -34 Q 513 -7 512 26 Q 511 69 513 367 L 514 401 Z" fill="black" /></g></svg>