<?xml version='1.0' encoding='utf-8'?>
<svg xmlns="http://www.w3.org/2000/svg" version="1.1" viewBox="0 0 1024 1024"><g transform="scale(1, -1) translate(0, -900)"><path d="M 980 118 Q 965 169 961 254 Q 960 269 953 274 Q 946 278 942 260 Q 923 154 908 136 Q 887 117 813 116 Q 771 117 753 125 Q 723 143 723 249 Q 727 331 742 372 Q 752 400 736 415 Q 690 449 675 445 Q 662 441 669 424 Q 687 390 684 340 Q 678 136 711 102 Q 729 87 772 77 Q 812 68 879 67 Q 939 66 963 77 Q 990 90 980 118 Z" fill="black" /></g></svg>