<?xml version='1.0' encoding='utf-8'?>
<svg xmlns="http://www.w3.org/2000/svg" version="1.1" viewBox="0 0 1024 1024"><g transform="scale(1, -1) translate(0, -900)"><path d="M 624 449 Q 624 507 624 574 L 624 621 Q 625 712 643 776 Q 653 792 649 805 Q 642 815 586 849 Q 562 865 541 850 Q 537 844 543 829 Q 579 777 580 722 Q 581 667 583 607 L 584 564 Q 584 480 583 440 L 581 338 Q 581 161 555 64 Q 543 22 571 -38 Q 578 -56 586 -59 Q 593 -66 600 -57 Q 607 -53 618 -32 Q 627 -7 626 25 Q 625 68 624 375 L 624 449 Z" fill="black" /></g></svg>