<?xml version='1.0' encoding='utf-8'?>
<svg xmlns="http://www.w3.org/2000/svg" version="1.1" viewBox="0 0 1024 1024"><g transform="scale(1, -1) translate(0, -900)"><path d="M 561 429 Q 576 429 688 460 Q 709 464 714 455 Q 726 428 737 241 Q 746 81 734 63 Q 730 57 711 60 Q 686 66 659 71 Q 640 77 640 67 Q 695 21 728 -15 Q 741 -34 757 -38 Q 767 -42 774 -32 Q 813 17 811 73 Q 766 397 792 446 Q 802 465 791 476 Q 769 494 731 507 Q 712 514 657 485 Q 603 466 551 458 C 521 453 531 424 561 429 Z" fill="black" /></g></svg>