<?xml version='1.0' encoding='utf-8'?>
<svg xmlns="http://www.w3.org/2000/svg" version="1.1" viewBox="0 0 1024 1024"><g transform="scale(1, -1) translate(0, -900)"><path d="M 466 157 Q 512 190 608 209 Q 639 218 658 213 Q 677 207 680 175 Q 670 109 633 61 Q 617 36 601 30 Q 583 26 515 42 Q 499 49 498 42 Q 498 36 510 25 Q 547 -11 571 -43 Q 581 -53 590 -53 Q 603 -53 620 -42 Q 689 12 728 151 Q 731 179 742 195 Q 754 205 744 218 Q 729 233 694 249 Q 676 256 654 250 Q 626 241 603 237 Q 569 230 526 223 Q 508 220 517 237 Q 539 274 549 283 Q 561 296 552 310 Q 542 319 526 325 C 499 339 479 346 485 317 Q 486 316 488 313 Q 497 289 467 238 Q 460 228 439 213 Q 423 198 426 184 Q 427 171 442 157 Q 454 147 466 157 Z" fill="black" /></g></svg>