<?xml version='1.0' encoding='utf-8'?>
<svg xmlns="http://www.w3.org/2000/svg" version="1.1" viewBox="0 0 1024 1024"><g transform="scale(1, -1) translate(0, -900)"><path d="M 621 402 Q 634 398 650 394 Q 675 395 718 414 Q 745 421 755 413 Q 762 406 735 346 Q 674 199 516 83 Q 440 26 328 -18 Q 318 -22 318 -28 Q 318 -34 327 -34 Q 477 -38 653 127 Q 660 137 671 146 Q 740 219 811 339 Q 833 370 864 389 Q 883 396 883 407 Q 884 423 852 444 Q 812 474 796 475 Q 783 475 769 467 L 652 435 C 623 427 592 410 621 402 Z" fill="black" /></g></svg>