<?xml version='1.0' encoding='utf-8'?>
<svg xmlns="http://www.w3.org/2000/svg" version="1.1" viewBox="0 0 1024 1024"><g transform="scale(1, -1) translate(0, -900)"><path d="M 547 349 Q 611 358 687 360 Q 706 359 715 347 Q 722 340 717 326 Q 708 97 691 66 Q 687 56 674 58 Q 646 62 616 67 Q 588 70 608 51 Q 672 2 699 -36 Q 712 -52 728 -40 Q 747 -21 757 10 Q 770 43 772 224 Q 771 291 792 324 Q 807 345 801 352 Q 794 365 744 397 Q 726 412 680 396 Q 560 381 269 334 C 239 329 270 288 298 298 Q 329 310 379 321 L 403 326 Q 443 341 505 344 L 547 349 Z" fill="black" /></g></svg>