<?xml version='1.0' encoding='utf-8'?>
<svg xmlns="http://www.w3.org/2000/svg" version="1.1" viewBox="0 0 1024 1024"><g transform="scale(1, -1) translate(0, -900)"><path d="M 538 315 Q 516 171 412 99 Q 369 71 307 42 Q 294 35 293 31 Q 294 27 306 26 Q 324 22 367 35 Q 442 54 494 105 Q 563 168 585 303 L 590 361 Q 590 365 591 369 Q 598 486 605 594 L 609 644 Q 609 683 637 758 Q 644 773 633 784 Q 611 803 572 815 Q 547 822 537 815 Q 528 808 535 796 Q 563 748 560 630 L 560 584 Q 557 467 543 354 L 538 315 Z" fill="black" /></g></svg>