<?xml version='1.0' encoding='utf-8'?>
<svg xmlns="http://www.w3.org/2000/svg" version="1.1" viewBox="0 0 1024 1024"><g transform="scale(1, -1) translate(0, -900)"><path d="M 653 460 Q 762 331 859 326 Q 883 330 875 360 Q 865 390 856 525 Q 855 535 850 537 Q 846 537 844 526 Q 834 493 826 462 Q 816 420 801 420 Q 767 419 693 491 L 665 524 Q 634 563 608 609 L 586 650 Q 553 728 564 783 Q 567 802 528 820 Q 489 838 479 833 Q 467 827 473 811 Q 498 789 509 744 Q 525 683 547 632 L 566 592 Q 590 544 627 493 L 653 460 Z" fill="black" /></g></svg>