<?xml version='1.0' encoding='utf-8'?>
<svg xmlns="http://www.w3.org/2000/svg" version="1.1" viewBox="0 0 1024 1024"><g transform="scale(1, -1) translate(0, -900)"><path d="M 588 569 Q 622 579 674 590 Q 720 600 731 599 Q 749 589 746 581 Q 747 577 743 564 Q 724 497 729 493 Q 736 490 750 503 Q 795 543 835 560 Q 866 576 865 583 Q 864 593 793 633 Q 772 648 685 623 Q 646 617 598 603 L 542 590 Q 517 586 494 579 Q 461 572 428 564 C 399 557 400 544 429 535 Q 450 525 472 533 Q 500 545 531 553 L 588 569 Z" fill="black" /></g></svg>