<?xml version='1.0' encoding='utf-8'?>
<svg xmlns="http://www.w3.org/2000/svg" version="1.1" viewBox="0 0 1024 1024"><g transform="scale(1, -1) translate(0, -900)"><path d="M 515 549 Q 502 564 482 573 Q 463 583 459 573 Q 455 564 461 555 Q 477 524 472 489 Q 462 428 445 371 L 433 334 Q 405 250 358 208 Q 339 195 342 179 Q 346 164 363 147 Q 378 131 400 149 Q 460 188 651 173 Q 664 173 680 170 L 745 160 Q 788 153 833 140 Q 849 133 863 139 Q 875 143 870 157 Q 863 176 844 189 Q 831 205 804 205 Q 786 205 751 207 L 689 211 Q 593 215 443 205 Q 427 204 433 223 Q 454 280 476 341 L 487 376 Q 523 502 525 519 C 529 537 529 537 515 549 Z" fill="black" /></g></svg>