<?xml version='1.0' encoding='utf-8'?>
<svg xmlns="http://www.w3.org/2000/svg" version="1.1" viewBox="0 0 1024 1024"><g transform="scale(1, -1) translate(0, -900)"><path d="M 710 137 Q 604 125 495 110 Q 488 109 485 111 Q 484 114 488 120 Q 554 217 580 241 Q 593 254 585 263 Q 578 270 561 276 C 534 288 504 297 509 267 Q 509 264 511 258 Q 515 240 501 210 Q 485 174 455 138 Q 437 117 402 97 Q 377 87 376 77 Q 375 61 384 43 Q 393 24 405 19 Q 412 16 423 21 Q 496 67 721 119 C 750 126 740 140 710 137 Z" fill="black" /></g></svg>