<?xml version='1.0' encoding='utf-8'?>
<svg xmlns="http://www.w3.org/2000/svg" version="1.1" viewBox="0 0 1024 1024"><g transform="scale(1, -1) translate(0, -900)"><path d="M 617 136 Q 654 188 689 266 Q 702 294 723 311 Q 742 326 730 339 Q 717 352 687 365 Q 665 372 637 361 Q 604 349 561 338 Q 516 328 444 321 Q 431 321 425 314 Q 421 307 439 299 Q 475 284 523 298 Q 604 320 618 320 Q 640 316 633 293 Q 614 220 581 168 L 556 138 Q 487 66 357 32 Q 342 28 354 19 Q 360 15 403 17 Q 505 26 587 102 L 617 136 Z" fill="black" /></g></svg>