<?xml version='1.0' encoding='utf-8'?>
<svg xmlns="http://www.w3.org/2000/svg" version="1.1" viewBox="0 0 1024 1024"><g transform="scale(1, -1) translate(0, -900)"><path d="M 478 421 Q 511 414 695 441 Q 786 454 796 440 Q 808 421 808 278 Q 805 167 777 111 Q 767 86 751 81 Q 739 77 673 98 Q 663 102 663 96 Q 662 92 674 82 Q 716 36 734 4 Q 744 -15 757 -15 Q 773 -14 790 4 Q 847 55 862 172 Q 872 254 880 377 Q 880 405 897 424 Q 910 437 909 447 Q 908 454 887 469 Q 859 488 823 500 Q 799 507 729 486 Q 713 483 694 478 Q 678 475 485 444 C 455 439 448 422 478 421 Z" fill="black" /></g></svg>