<?xml version='1.0' encoding='utf-8'?>
<svg xmlns="http://www.w3.org/2000/svg" version="1.1" viewBox="0 0 1024 1024"><g transform="scale(1, -1) translate(0, -900)"><path d="M 722 367 Q 726 348 740 348 Q 756 349 766 365 Q 781 381 813 465 Q 835 519 877 548 Q 899 564 883 582 Q 865 601 813 635 Q 797 647 720 630 Q 696 630 621 615 L 568 605 Q 546 604 527 598 Q 460 585 410 578 C 380 574 409 533 437 545 Q 446 555 569 576 L 619 584 Q 754 609 774 597 Q 784 590 775 555 Q 771 540 723 396 C 716 376 716 376 722 367 Z" fill="black" /></g></svg>