<?xml version='1.0' encoding='utf-8'?>
<svg xmlns="http://www.w3.org/2000/svg" version="1.1" viewBox="0 0 1024 1024"><g transform="scale(1, -1) translate(0, -900)"><path d="M 521 468 Q 521 496 524 524 Q 528 546 523 556 Q 516 566 485 582 C 459 597 450 597 458 568 Q 467 549 473 458 L 474 419 Q 474 373 475 310 L 475 270 Q 478 123 468 111 Q 465 110 407 122 Q 397 126 397 120 Q 397 114 405 105 Q 447 59 474 23 Q 484 16 495 28 Q 525 70 527 164 Q 520 260 519 298 L 519 330 Q 518 382 519 430 L 521 468 Z" fill="black" /></g></svg>