<?xml version='1.0' encoding='utf-8'?>
<svg xmlns="http://www.w3.org/2000/svg" version="1.1" viewBox="0 0 1024 1024"><g transform="scale(1, -1) translate(0, -900)"><path d="M 600 388 Q 599 464 602 538 L 604 593 Q 604 680 623 745 Q 639 775 584 797 Q 550 816 531 809 Q 513 802 530 779 Q 551 752 552 718 Q 553 702 554 576 L 553 526 Q 552 373 550 96 Q 549 71 536 61 Q 530 58 457 71 Q 424 83 427 73 Q 428 66 448 51 Q 514 2 531 -28 Q 550 -62 566 -63 Q 581 -64 595 -29 Q 613 17 610 90 Q 603 217 601 342 L 600 388 Z" fill="black" /></g></svg>