<?xml version='1.0' encoding='utf-8'?>
<svg xmlns="http://www.w3.org/2000/svg" version="1.1" viewBox="0 0 1024 1024"><g transform="scale(1, -1) translate(0, -900)"><path d="M 713 640 Q 623 628 528 607 Q 518 603 515 606 Q 512 610 518 619 Q 618 758 640 781 Q 652 791 646 803 Q 639 815 592 838 Q 576 845 566 841 Q 554 835 560 815 Q 581 752 477 633 Q 456 614 428 593 Q 415 581 418 570 Q 424 554 448 534 Q 458 524 472 534 Q 517 568 717 614 Q 724 615 733 618 C 762 625 743 644 713 640 Z" fill="black" /></g></svg>