<?xml version='1.0' encoding='utf-8'?>
<svg xmlns="http://www.w3.org/2000/svg" version="1.1" viewBox="0 0 1024 1024"><g transform="scale(1, -1) translate(0, -900)"><path d="M 479 478 Q 503 487 580 503 L 626 514 Q 756 547 773 531 Q 783 524 788 474 Q 804 306 797 114 Q 797 86 787 78 Q 774 68 708 82 Q 692 83 694 75 Q 695 68 707 63 Q 767 21 798 -11 Q 819 -29 830 -27 Q 842 -23 852 4 Q 865 47 864 110 Q 836 473 854 512 Q 864 533 855 543 Q 845 556 800 579 Q 782 588 705 564 Q 543 528 465 516 C 435 511 450 469 479 478 Z" fill="black" /></g></svg>