<?xml version='1.0' encoding='utf-8'?>
<svg xmlns="http://www.w3.org/2000/svg" version="1.1" viewBox="0 0 1024 1024"><g transform="scale(1, -1) translate(0, -900)"><path d="M 624 129 Q 624 186 625 238 L 626 285 Q 627 346 629 400 L 630 437 Q 631 479 632 518 L 633 558 Q 634 580 635 595 Q 642 614 632 625 Q 617 638 604 648 C 581 667 545 666 558 639 Q 565 624 573 611 Q 579 590 581 542 L 582 508 Q 582 478 581 426 L 581 394 Q 580 343 579 275 L 579 231 Q 578 182 578 124 C 578 94 624 99 624 129 Z" fill="black" /></g></svg>