<?xml version='1.0' encoding='utf-8'?>
<svg xmlns="http://www.w3.org/2000/svg" version="1.1" viewBox="0 0 1024 1024"><g transform="scale(1, -1) translate(0, -900)"><path d="M 724 448 Q 725 447 726 444 Q 730 428 744 429 Q 757 430 766 445 Q 779 461 804 543 Q 822 595 859 626 Q 878 642 862 658 Q 844 676 793 703 Q 780 712 715 698 Q 688 695 639 686 L 590 677 Q 568 674 547 669 Q 486 656 445 651 C 415 647 444 611 473 617 Q 477 617 484 618 Q 521 631 591 642 L 637 649 Q 739 670 761 658 Q 771 652 764 620 Q 746 533 725 472 C 720 456 720 456 724 448 Z" fill="black" /></g></svg>