<?xml version='1.0' encoding='utf-8'?>
<svg xmlns="http://www.w3.org/2000/svg" version="1.1" viewBox="0 0 1024 1024"><g transform="scale(1, -1) translate(0, -900)"><path d="M 303 379 Q 304 380 310 381 Q 350 390 390 400 Q 406 404 412 395 Q 416 385 418 367 Q 428 198 424 95 Q 423 73 416 64 Q 410 60 357 71 Q 341 77 341 68 Q 384 28 408 -2 Q 420 -18 433 -22 Q 440 -26 447 -17 Q 483 25 481 70 Q 459 352 477 386 Q 487 402 477 411 Q 458 427 428 439 Q 412 446 399 439 Q 368 423 348 416 Q 329 410 293 404 C 263 399 274 372 303 379 Z" fill="black" /></g></svg>