<?xml version='1.0' encoding='utf-8'?>
<svg xmlns="http://www.w3.org/2000/svg" version="1.1" viewBox="0 0 1024 1024"><g transform="scale(1, -1) translate(0, -900)"><path d="M 723 636 Q 632 624 536 602 Q 526 599 523 602 Q 522 606 526 615 Q 623 747 644 769 Q 656 779 650 791 Q 643 803 596 826 Q 580 833 570 829 Q 558 823 564 803 Q 582 748 493 638 Q 471 614 436 589 Q 423 577 426 567 Q 432 551 456 530 Q 466 520 480 530 Q 525 563 728 611 Q 731 612 739 613 C 768 619 753 640 723 636 Z" fill="black" /></g></svg>