<?xml version='1.0' encoding='utf-8'?>
<svg xmlns="http://www.w3.org/2000/svg" version="1.1" viewBox="0 0 1024 1024"><g transform="scale(1, -1) translate(0, -900)"><path d="M 558 442 Q 571 482 581 520 L 592 561 Q 599 600 608 637 L 617 685 Q 630 752 637 767 Q 647 782 641 796 Q 625 815 594 833 Q 575 846 561 842 Q 548 835 554 820 Q 572 790 566 731 Q 562 707 558 680 Q 557 676 556 670 L 549 625 Q 542 588 533 549 L 524 508 Q 512 471 501 432 L 487 394 Q 424 244 305 95 Q 299 89 297 83 Q 293 71 305 73 Q 321 73 369 124 Q 472 220 545 406 L 558 442 Z" fill="black" /></g></svg>