<?xml version='1.0' encoding='utf-8'?>
<svg xmlns="http://www.w3.org/2000/svg" version="1.1" viewBox="0 0 1024 1024"><g transform="scale(1, -1) translate(0, -900)"><path d="M 705 457 Q 744 463 800 469 Q 812 470 817 464 Q 826 457 826 415 Q 833 238 811 138 Q 804 102 773 106 Q 742 112 712 115 Q 699 119 698 113 Q 697 106 708 95 Q 777 40 795 12 Q 805 -4 816 -1 Q 831 2 843 29 Q 879 92 886 290 Q 886 428 900 457 Q 916 479 903 483 Q 887 498 851 513 Q 829 526 804 516 Q 779 507 717 498 Q 713 498 708 496 L 659 488 Q 601 481 555 468 L 514 457 Q 462 447 414 435 C 385 428 403 389 431 400 Q 456 413 508 422 Q 509 423 511 422 L 550 430 Q 608 443 658 451 L 705 457 Z" fill="black" /></g></svg>