<?xml version='1.0' encoding='utf-8'?>
<svg xmlns="http://www.w3.org/2000/svg" version="1.1" viewBox="0 0 1024 1024"><g transform="scale(1, -1) translate(0, -900)"><path d="M 423 511 Q 432 514 491 530 Q 507 536 512 527 Q 521 497 526 303 Q 526 141 516 122 Q 512 116 494 121 Q 473 124 453 127 Q 435 131 437 124 Q 483 85 509 56 Q 521 40 534 37 Q 541 33 549 42 Q 582 81 581 130 Q 556 478 577 517 Q 587 533 576 543 Q 558 558 527 570 Q 509 576 462 550 Q 441 543 406 535 C 377 528 394 503 423 511 Z" fill="black" /></g></svg>