<?xml version='1.0' encoding='utf-8'?>
<svg xmlns="http://www.w3.org/2000/svg" version="1.1" viewBox="0 0 1024 1024"><g transform="scale(1, -1) translate(0, -900)"><path d="M 771 111 Q 747 117 722 122 Q 703 129 704 120 Q 756 74 785 39 Q 798 21 812 17 Q 821 13 829 23 Q 866 72 865 121 Q 826 496 853 543 Q 863 562 852 571 Q 831 589 796 601 Q 778 608 764 600 Q 737 584 721 577 Q 702 570 667 563 C 638 557 654 526 683 534 Q 692 535 756 556 Q 775 562 780 552 Q 786 537 789 514 Q 805 286 800 148 Q 800 124 793 113 Q 789 109 771 111 Z" fill="black" /></g></svg>