<?xml version='1.0' encoding='utf-8'?>
<svg xmlns="http://www.w3.org/2000/svg" version="1.1" viewBox="0 0 1024 1024"><g transform="scale(1, -1) translate(0, -900)"><path d="M 664 59 Q 633 65 602 71 Q 590 74 591 66 Q 592 60 602 53 Q 669 -4 695 -39 Q 710 -55 724 -42 Q 757 -8 756 58 Q 753 85 750 260 Q 749 261 749 263 L 753 309 Q 754 325 761 337 Q 770 355 754 367 Q 729 388 701 398 Q 683 404 676 397 Q 670 390 680 376 Q 702 339 700 298 L 701 256 Q 705 78 686 62 Q 679 55 664 59 Z" fill="black" /></g></svg>