<?xml version='1.0' encoding='utf-8'?>
<svg xmlns="http://www.w3.org/2000/svg" version="1.1" viewBox="0 0 1024 1024"><g transform="scale(1, -1) translate(0, -900)"><path d="M 700 72 Q 669 73 639 76 Q 626 77 628 70 Q 629 63 641 56 Q 714 1 742 -34 Q 758 -50 773 -35 Q 809 2 802 76 Q 798 121 791 391 L 790 432 Q 790 478 801 510 Q 810 529 792 543 Q 765 565 734 574 Q 715 581 706 573 Q 700 566 711 550 Q 736 510 736 465 Q 737 443 738 421 L 739 385 Q 751 94 725 75 Q 716 68 700 72 Z" fill="black" /></g></svg>