<?xml version='1.0' encoding='utf-8'?>
<svg xmlns="http://www.w3.org/2000/svg" version="1.1" viewBox="0 0 1024 1024"><g transform="scale(1, -1) translate(0, -900)"><path d="M 463 132 Q 453 98 477 37 Q 484 21 491 17 Q 497 11 504 18 Q 511 22 521 43 Q 530 65 529 95 Q 528 137 533 520 Q 534 599 549 653 Q 556 666 554 680 Q 548 689 495 721 Q 473 737 454 722 Q 450 718 455 703 Q 482 663 483 623 Q 484 589 484 551 L 485 516 Q 485 447 484 420 L 484 384 Q 483 347 483 306 L 483 278 Q 483 203 463 132 Z" fill="black" /></g></svg>