<?xml version='1.0' encoding='utf-8'?>
<svg xmlns="http://www.w3.org/2000/svg" version="1.1" viewBox="0 0 1024 1024"><g transform="scale(1, -1) translate(0, -900)"><path d="M 697 287 Q 697 339 697 403 L 697 431 Q 697 489 698 555 L 699 584 Q 699 681 716 746 Q 726 762 722 776 Q 715 786 657 821 Q 632 837 611 822 Q 605 816 612 800 Q 646 751 647 692 Q 663 242 625 96 Q 615 54 642 -9 Q 649 -28 657 -31 Q 664 -38 671 -29 Q 680 -25 690 -3 Q 700 24 699 56 Q 698 87 697 252 L 697 287 Z" fill="black" /></g></svg>