<?xml version='1.0' encoding='utf-8'?>
<svg xmlns="http://www.w3.org/2000/svg" version="1.1" viewBox="0 0 1024 1024"><g transform="scale(1, -1) translate(0, -900)"><path d="M 525 483 Q 538 517 552 556 L 564 595 Q 570 614 576 636 Q 579 649 583 661 L 597 706 Q 613 758 630 780 Q 640 796 634 808 Q 616 836 570 846 Q 554 852 538 843 Q 528 833 538 823 Q 557 804 559 781 Q 563 760 546 693 L 534 651 Q 519 596 514 583 L 500 543 Q 487 509 472 475 L 454 436 Q 397 331 284 201 Q 275 185 286 184 Q 290 183 303 191 Q 438 285 509 447 L 525 483 Z" fill="black" /></g></svg>