<?xml version='1.0' encoding='utf-8'?>
<svg xmlns="http://www.w3.org/2000/svg" version="1.1" viewBox="0 0 1024 1024"><g transform="scale(1, -1) translate(0, -900)"><path d="M 657 174 Q 672 155 685 150 Q 695 143 707 163 Q 719 185 738 306 Q 745 334 764 356 Q 776 368 765 380 Q 750 393 712 415 Q 697 421 634 406 Q 619 406 598 399 L 550 390 Q 499 384 441 368 C 412 360 416 328 445 337 Q 485 350 548 361 L 594 368 Q 616 372 642 376 Q 670 380 679 370 Q 691 358 689 344 Q 676 215 661 203 C 650 182 650 182 657 174 Z" fill="black" /></g></svg>