<?xml version='1.0' encoding='utf-8'?>
<svg xmlns="http://www.w3.org/2000/svg" version="1.1" viewBox="0 0 1024 1024"><g transform="scale(1, -1) translate(0, -900)"><path d="M 629 466 Q 644 472 802 484 Q 815 485 819 478 Q 829 472 831 428 Q 844 244 825 137 Q 819 106 792 107 Q 764 114 736 118 Q 723 124 722 117 Q 721 110 731 98 Q 795 37 813 5 Q 823 -11 835 -8 Q 850 -4 862 24 Q 884 66 889 114 Q 901 180 897 409 Q 897 451 908 473 Q 924 495 910 500 Q 894 515 857 530 Q 833 543 808 533 Q 783 524 718 516 Q 670 512 630 503 L 584 496 Q 545 490 514 482 Q 456 469 399 459 C 369 454 386 415 415 424 Q 476 445 586 459 L 629 466 Z" fill="black" /></g></svg>