<?xml version='1.0' encoding='utf-8'?>
<svg xmlns="http://www.w3.org/2000/svg" version="1.1" viewBox="0 0 1024 1024"><g transform="scale(1, -1) translate(0, -900)"><path d="M 633 527 Q 664 566 696 619 Q 712 647 740 665 Q 756 672 756 683 Q 756 696 726 714 Q 690 738 676 738 Q 664 738 652 729 Q 564 690 531 685 Q 528 685 527 684 C 498 677 479 665 508 658 Q 547 643 606 674 Q 628 686 641 677 Q 647 673 627 625 Q 612 592 589 560 L 570 535 Q 492 445 377 400 C 349 389 348 387 378 387 Q 498 383 611 501 L 633 527 Z" fill="black" /></g></svg>