<?xml version='1.0' encoding='utf-8'?>
<svg xmlns="http://www.w3.org/2000/svg" version="1.1" viewBox="0 0 1024 1024"><g transform="scale(1, -1) translate(0, -900)"><path d="M 649 368 Q 662 429 682 612 Q 684 647 693 674 L 706 711 Q 710 725 701 735 Q 693 741 679 751 Q 622 788 593 778 Q 568 770 587 749 Q 619 714 619 677 Q 617 502 593 392 Q 560 214 443 94 L 376 36 Q 361 29 359 24 Q 359 22 358 22 Q 357 16 373 16 Q 416 16 517 100 Q 594 171 639 327 Q 637 328 639 328 L 649 368 Z" fill="black" /></g></svg>