<?xml version='1.0' encoding='utf-8'?>
<svg xmlns="http://www.w3.org/2000/svg" version="1.1" viewBox="0 0 1024 1024"><g transform="scale(1, -1) translate(0, -900)"><path d="M 458 308 Q 509 371 521 412 L 537 449 Q 537 452 539 453 Q 552 487 561 521 L 570 565 Q 591 754 606 790 Q 615 809 597 816 Q 549 849 522 837 Q 509 833 516 817 Q 555 754 523 564 Q 522 560 521 554 L 511 511 Q 510 508 509 503 Q 499 472 485 440 L 467 403 Q 389 273 295 209 Q 282 196 266 184 Q 253 174 266 172 Q 281 173 314 189 Q 383 226 433 281 Q 434 282 436 284 L 458 308 Z" fill="black" /></g></svg>