<?xml version='1.0' encoding='utf-8'?>
<svg xmlns="http://www.w3.org/2000/svg" version="1.1" viewBox="0 0 1024 1024"><g transform="scale(1, -1) translate(0, -900)"><path d="M 821 60 Q 811 85 795 162 Q 795 177 789 182 Q 783 185 779 169 Q 751 87 733 62 Q 720 46 682 37 Q 594 15 524 43 Q 496 56 489 73 Q 468 118 494 265 Q 494 268 495 269 C 500 293 500 293 475 300 Q 468 304 458 308 C 432 323 429 313 436 284 Q 445 253 443 221 Q 436 92 446 56 Q 450 32 472 13 Q 493 -3 534 -17 Q 690 -59 815 22 Q 833 35 821 60 Z" fill="black" /></g></svg>