<?xml version='1.0' encoding='utf-8'?>
<svg xmlns="http://www.w3.org/2000/svg" version="1.1" viewBox="0 0 1024 1024"><g transform="scale(1, -1) translate(0, -900)"><path d="M 464 397 Q 465 400 466 402 Q 484 486 492 568 L 495 600 Q 498 633 502 662 Q 503 692 512 707 C 517 722 517 722 495 737 Q 456 767 434 760 Q 422 753 429 740 Q 445 715 447 653 Q 426 434 409 363 Q 400 336 392 309 Q 353 204 270 73 Q 266 67 264 61 Q 261 51 271 53 Q 307 60 386 191 Q 398 216 412 243 Q 437 304 458 373 L 464 397 Z" fill="black" /></g></svg>