<?xml version='1.0' encoding='utf-8'?>
<svg xmlns="http://www.w3.org/2000/svg" version="1.1" viewBox="0 0 1024 1024"><g transform="scale(1, -1) translate(0, -900)"><path d="M 988 104 Q 973 135 953 229 Q 952 245 945 250 Q 938 253 934 235 Q 909 135 891 103 Q 860 69 768 74 Q 731 77 703 89 Q 678 102 670 119 Q 643 174 672 360 Q 678 382 649 397 C 625 415 599 423 607 394 Q 607 391 609 385 Q 622 348 619 313 Q 610 147 625 100 Q 629 76 651 55 Q 738 -14 901 20 Q 904 21 907 22 Q 944 32 982 60 Q 1003 76 988 104 Z" fill="black" /></g></svg>