<?xml version='1.0' encoding='utf-8'?>
<svg xmlns="http://www.w3.org/2000/svg" version="1.1" viewBox="0 0 1024 1024"><g transform="scale(1, -1) translate(0, -900)"><path d="M 712 403 Q 730 369 757 394 Q 775 412 789 472 Q 811 596 845 636 Q 861 654 848 671 Q 830 690 800 712 Q 784 719 766 715 Q 705 694 635 687 Q 613 686 618 675 Q 622 665 639 658 Q 655 655 723 669 Q 751 675 762 668 Q 772 661 765 628 Q 758 597 751 566 L 745 537 Q 736 497 728 460 Q 724 435 707 436 Q 706 437 705 436 C 691 432 695 428 712 403 Z" fill="black" /></g></svg>