<?xml version='1.0' encoding='utf-8'?>
<svg xmlns="http://www.w3.org/2000/svg" version="1.1" viewBox="0 0 1024 1024"><g transform="scale(1, -1) translate(0, -900)"><path d="M 692 484 Q 710 460 725 453 Q 735 446 750 467 Q 763 494 788 636 Q 795 666 818 691 Q 830 703 819 716 Q 803 732 761 757 Q 746 763 661 746 Q 660 746 536 724 Q 481 714 433 705 C 404 699 427 666 456 675 Q 471 682 559 697 L 585 701 Q 705 726 723 710 Q 736 694 735 679 Q 717 538 703 516 C 692 488 691 485 692 484 Z" fill="black" /></g></svg>