<?xml version='1.0' encoding='utf-8'?>
<svg xmlns="http://www.w3.org/2000/svg" version="1.1" viewBox="0 0 1024 1024"><g transform="scale(1, -1) translate(0, -900)"><path d="M 691 379 Q 691 375 694 368 Q 698 352 712 353 Q 725 354 734 369 Q 747 385 770 463 Q 786 515 823 545 Q 842 561 826 577 Q 808 595 758 621 Q 743 630 674 613 Q 658 613 611 602 L 573 594 Q 554 591 540 587 Q 494 577 462 571 C 433 565 447 531 476 537 Q 483 537 489 539 Q 550 560 691 580 Q 716 583 725 579 Q 735 572 729 541 Q 707 426 696 403 Q 695 403 695 402 C 689 386 689 386 691 379 Z" fill="black" /></g></svg>