<?xml version='1.0' encoding='utf-8'?>
<svg xmlns="http://www.w3.org/2000/svg" version="1.1" viewBox="0 0 1024 1024"><g transform="scale(1, -1) translate(0, -900)"><path d="M 625 310 Q 742 332 759 320 Q 778 313 781 285 Q 787 213 774 83 Q 774 58 751 59 Q 714 62 686 65 Q 670 66 675 57 Q 678 48 706 32 Q 749 5 777 -27 Q 790 -37 803 -30 Q 812 -24 825 11 Q 847 65 840 145 Q 828 301 841 322 Q 851 335 843 346 Q 831 356 790 373 Q 771 380 756 371 Q 734 362 671 351 Q 580 335 511 317 Q 450 304 404 296 C 374 291 388 249 416 258 Q 473 277 481 279 L 503 284 Q 539 294 590 303 L 625 310 Z" fill="black" /></g></svg>