<?xml version='1.0' encoding='utf-8'?>
<svg xmlns="http://www.w3.org/2000/svg" version="1.1" viewBox="0 0 1024 1024"><g transform="scale(1, -1) translate(0, -900)"><path d="M 621 373 Q 621 425 621 476 L 621 511 Q 622 538 622 565 Q 621 572 621 580 L 621 618 Q 621 655 624 662 Q 627 674 618 681 Q 608 691 585 701 C 558 715 551 718 559 697 Q 559 694 562 689 Q 569 676 571 649 Q 571 627 572 604 L 573 571 Q 573 537 573 501 L 574 470 Q 574 418 573 365 L 572 285 Q 572 144 561 34 Q 558 -8 583 -41 Q 596 -56 605 -38 Q 632 14 625 59 Q 622 102 621 299 L 621 373 Z" fill="black" /></g></svg>