<?xml version='1.0' encoding='utf-8'?>
<svg xmlns="http://www.w3.org/2000/svg" version="1.1" viewBox="0 0 1024 1024"><g transform="scale(1, -1) translate(0, -900)"><path d="M 713 470 Q 726 449 741 442 Q 751 435 764 454 Q 774 470 797 560 Q 804 585 824 607 Q 836 617 826 629 Q 813 644 777 666 Q 764 672 702 657 Q 663 650 617 638 Q 586 631 559 624 C 530 617 544 586 572 597 Q 572 598 574 599 Q 625 615 717 632 Q 736 636 743 629 Q 753 619 751 608 Q 735 512 723 499 C 710 474 710 474 713 470 Z" fill="black" /></g></svg>