<?xml version='1.0' encoding='utf-8'?>
<svg xmlns="http://www.w3.org/2000/svg" version="1.1" viewBox="0 0 1024 1024"><g transform="scale(1, -1) translate(0, -900)"><path d="M 727 31 Q 715 28 653 54 Q 643 58 643 52 Q 642 48 653 38 Q 690 -8 706 -40 Q 715 -59 727 -60 Q 746 -61 763 -43 Q 826 8 847 136 Q 862 224 871 358 Q 872 389 891 411 Q 904 424 903 433 Q 902 440 883 455 Q 856 474 820 486 Q 799 493 724 470 Q 711 469 696 463 Q 606 442 487 423 C 457 418 445 415 474 407 Q 504 392 554 403 Q 779 440 794 432 Q 795 432 797 430 Q 807 400 801 245 Q 788 119 758 61 Q 745 33 727 31 Z" fill="black" /></g></svg>