<?xml version='1.0' encoding='utf-8'?>
<svg xmlns="http://www.w3.org/2000/svg" version="1.1" viewBox="0 0 1024 1024"><g transform="scale(1, -1) translate(0, -900)"><path d="M 679 349 Q 787 367 805 348 Q 812 339 808 325 Q 815 117 801 86 Q 798 76 785 78 Q 755 81 723 84 Q 696 84 716 69 Q 786 24 815 -10 Q 828 -25 842 -12 Q 858 7 866 36 Q 876 67 867 235 Q 863 296 880 329 Q 893 348 888 357 Q 881 369 830 399 Q 812 412 797 406 Q 769 396 719 385 Q 571 366 515 351 Q 473 341 441 337 C 411 333 446 290 475 299 Q 481 300 489 303 Q 508 310 537 319 L 563 326 Q 593 338 650 344 L 679 349 Z" fill="black" /></g></svg>