<?xml version='1.0' encoding='utf-8'?>
<svg xmlns="http://www.w3.org/2000/svg" version="1.1" viewBox="0 0 1024 1024"><g transform="scale(1, -1) translate(0, -900)"><path d="M 666 546 Q 685 518 701 510 Q 711 503 725 522 Q 738 546 764 672 Q 771 700 793 723 Q 805 735 794 747 Q 779 763 740 786 Q 725 792 659 777 Q 656 777 555 754 Q 521 747 492 740 C 463 733 473 697 501 708 Q 501 709 502 710 Q 563 729 673 747 Q 697 751 705 743 Q 718 730 715 715 Q 694 589 682 570 C 671 542 662 551 666 546 Z" fill="black" /></g></svg>