<?xml version='1.0' encoding='utf-8'?>
<svg xmlns="http://www.w3.org/2000/svg" version="1.1" viewBox="0 0 1024 1024"><g transform="scale(1, -1) translate(0, -900)"><path d="M 691 209 Q 681 196 671 181 Q 625 130 507 90 Q 494 86 503 78 Q 510 74 537 79 Q 616 89 662 115 Q 693 134 721 168 L 748 210 Q 782 268 806 358 Q 812 391 829 409 Q 844 422 826 437 Q 805 452 773 462 Q 752 469 733 457 Q 687 432 624 419 Q 599 415 589 409 Q 580 402 598 394 Q 623 382 659 395 Q 693 404 727 414 Q 748 421 748 397 Q 748 330 712 247 L 691 209 Z" fill="black" /></g></svg>