<?xml version='1.0' encoding='utf-8'?>
<svg xmlns="http://www.w3.org/2000/svg" version="1.1" viewBox="0 0 1024 1024"><g transform="scale(1, -1) translate(0, -900)"><path d="M 666 143 Q 717 153 861 143 Q 880 142 889 152 Q 895 161 877 172 Q 820 211 773 195 Q 670 180 666 178 L 614 171 Q 542 162 473 148 Q 448 141 455 163 Q 470 203 481 219 Q 491 228 486 238 Q 480 248 450 265 Q 434 275 424 269 Q 414 262 422 249 Q 431 227 418 177 Q 414 159 390 139 Q 380 130 382 118 Q 383 108 398 94 Q 410 85 423 96 Q 483 126 614 139 L 666 143 Z" fill="black" /></g></svg>