<?xml version='1.0' encoding='utf-8'?>
<svg xmlns="http://www.w3.org/2000/svg" version="1.1" viewBox="0 0 1024 1024"><g transform="scale(1, -1) translate(0, -900)"><path d="M 666 641 Q 672 722 689 760 Q 701 787 683 802 Q 638 838 624 834 Q 611 830 617 813 Q 633 779 629 729 Q 620 504 650 472 Q 668 454 716 444 Q 759 435 828 434 Q 889 433 915 445 Q 943 458 932 487 Q 919 524 909 591 Q 908 604 901 610 Q 894 614 890 596 Q 872 517 859 504 Q 841 483 759 482 Q 714 483 695 492 Q 679 501 676 512 Q 664 543 664 621 L 666 641 Z" fill="black" /></g></svg>