<?xml version='1.0' encoding='utf-8'?>
<svg xmlns="http://www.w3.org/2000/svg" version="1.1" viewBox="0 0 1024 1024"><g transform="scale(1, -1) translate(0, -900)"><path d="M 794 458 Q 801 500 810 526 L 826 569 Q 826 570 827 570 Q 839 597 855 612 Q 870 631 855 647 Q 839 659 789 680 Q 773 686 752 677 Q 713 661 678 648 L 627 634 Q 575 621 520 612 Q 505 611 507 602 Q 510 595 526 591 Q 548 582 578 594 Q 602 601 627 605 L 677 618 Q 755 639 764 631 Q 777 619 774 595 Q 770 574 767 554 L 760 521 Q 753 490 745 458 C 738 429 789 428 794 458 Z" fill="black" /></g></svg>