<?xml version='1.0' encoding='utf-8'?>
<svg xmlns="http://www.w3.org/2000/svg" version="1.1" viewBox="0 0 1024 1024"><g transform="scale(1, -1) translate(0, -900)"><path d="M 641 647 Q 684 657 723 659 Q 742 660 746 654 Q 756 635 743 589 Q 713 462 675 408 Q 656 380 631 386 Q 609 393 590 400 Q 568 409 583 386 Q 617 347 634 317 Q 653 293 675 311 Q 709 332 735 372 Q 765 420 793 570 Q 803 622 823 648 Q 836 658 830 669 Q 823 679 777 704 Q 759 713 740 702 Q 686 674 502 659 C 472 656 452 646 479 632 Q 491 625 501 621 C 507 618 507 618 530 624 Q 567 634 604 641 L 641 647 Z" fill="black" /></g></svg>