<?xml version='1.0' encoding='utf-8'?>
<svg xmlns="http://www.w3.org/2000/svg" version="1.1" viewBox="0 0 1024 1024"><g transform="scale(1, -1) translate(0, -900)"><path d="M 623 346 Q 803 376 826 352 Q 833 343 829 329 Q 825 130 811 101 Q 807 89 792 93 Q 758 97 720 104 Q 692 105 712 88 Q 788 39 820 0 Q 833 -16 846 -4 Q 864 14 873 42 Q 883 72 886 237 Q 885 298 904 329 Q 920 350 913 358 Q 906 371 854 404 Q 835 419 819 412 Q 791 402 737 392 Q 673 385 623 378 L 583 372 Q 517 365 482 355 Q 437 345 403 340 C 373 335 384 293 414 298 Q 427 297 440 302 Q 488 320 582 340 L 623 346 Z" fill="black" /></g></svg>