<?xml version='1.0' encoding='utf-8'?>
<svg xmlns="http://www.w3.org/2000/svg" version="1.1" viewBox="0 0 1024 1024"><g transform="scale(1, -1) translate(0, -900)"><path d="M 753 209 Q 754 196 763 182 Q 776 154 786 154 Q 801 155 817 188 Q 832 215 830 236 Q 818 329 820 473 Q 819 515 842 551 Q 854 567 845 577 Q 817 602 768 624 Q 752 630 728 621 Q 686 605 633 592 L 592 585 Q 535 576 487 572 C 457 569 487 535 516 541 Q 517 542 522 542 Q 631 567 712 579 Q 740 585 748 570 Q 766 548 765 475 Q 766 297 758 242 L 753 209 Z" fill="black" /></g></svg>