<?xml version='1.0' encoding='utf-8'?>
<svg xmlns="http://www.w3.org/2000/svg" version="1.1" viewBox="0 0 1024 1024"><g transform="scale(1, -1) translate(0, -900)"><path d="M 699 482 Q 718 454 737 445 Q 747 438 763 460 Q 778 487 804 631 Q 813 662 835 687 Q 848 700 836 714 Q 820 730 777 756 Q 761 763 689 745 Q 679 744 668 741 Q 620 732 464 698 C 435 692 441 658 470 667 Q 507 680 567 691 L 609 699 Q 721 726 738 710 Q 751 694 750 677 Q 728 521 710 507 C 697 485 697 485 699 482 Z" fill="black" /></g></svg>