<?xml version='1.0' encoding='utf-8'?>
<svg xmlns="http://www.w3.org/2000/svg" version="1.1" viewBox="0 0 1024 1024"><g transform="scale(1, -1) translate(0, -900)"><path d="M 584 47 Q 636 14 707 -42 Q 732 -61 750 -61 Q 771 -61 771 -41 Q 771 -22 742 24 Q 726 51 622 89 L 574 108 Q 519 129 481 138 Q 462 142 472 161 Q 494 204 510 233 L 531 270 Q 546 301 556 312 Q 566 319 563 329 Q 559 342 522 372 Q 512 381 500 378 Q 487 375 494 359 Q 503 337 494 313 Q 485 288 477 264 L 461 226 Q 442 186 424 161 Q 414 143 417 131 Q 420 121 437 117 Q 488 105 539 74 L 584 47 Z" fill="black" /></g></svg>