<?xml version='1.0' encoding='utf-8'?>
<svg xmlns="http://www.w3.org/2000/svg" version="1.1" viewBox="0 0 1024 1024"><g transform="scale(1, -1) translate(0, -900)"><path d="M 511 362 Q 511 278 420 153 Q 399 128 321 63 Q 308 53 304 48 Q 303 41 312 41 Q 351 38 425 103 Q 506 178 542 303 Q 548 324 558 371 L 566 410 Q 572 441 578 476 L 584 515 Q 584 516 593 548 Q 600 566 582 576 Q 570 583 560 589 C 534 604 510 609 520 581 Q 521 581 522 579 Q 531 557 532 500 L 529 468 Q 525 438 518 397 L 511 362 Z" fill="black" /></g></svg>