<?xml version='1.0' encoding='utf-8'?>
<svg xmlns="http://www.w3.org/2000/svg" version="1.1" viewBox="0 0 1024 1024"><g transform="scale(1, -1) translate(0, -900)"><path d="M 661 388 Q 680 357 697 349 Q 707 342 722 362 Q 737 387 767 527 Q 776 557 799 582 Q 812 594 800 608 Q 785 624 743 649 Q 725 658 646 638 Q 610 638 486 607 Q 482 607 480 605 L 454 599 Q 435 598 421 594 C 392 588 406 550 434 560 Q 440 566 520 581 L 560 589 Q 690 619 707 603 Q 720 587 717 571 Q 692 424 673 409 C 661 389 661 389 661 388 Z" fill="black" /></g></svg>