<?xml version='1.0' encoding='utf-8'?>
<svg xmlns="http://www.w3.org/2000/svg" version="1.1" viewBox="0 0 1024 1024"><g transform="scale(1, -1) translate(0, -900)"><path d="M 479 503 L 479 504 Q 466 519 442 532 Q 427 542 416 539 Q 406 535 411 522 Q 444 480 382 280 Q 376 267 372 253 Q 344 187 287 109 Q 283 105 280 100 Q 279 91 287 92 Q 321 99 387 198 Q 388 202 391 205 Q 401 227 413 250 L 421 270 Q 436 310 450 359 L 456 388 Q 459 403 462 416 Q 466 438 470 459 Q 471 468 474 476 C 480 502 480 502 479 503 Z" fill="black" /></g></svg>