<?xml version='1.0' encoding='utf-8'?>
<svg xmlns="http://www.w3.org/2000/svg" version="1.1" viewBox="0 0 1024 1024"><g transform="scale(1, -1) translate(0, -900)"><path d="M 575 438 Q 575 363 587 346 Q 597 334 605 351 Q 612 367 616 446 L 617 486 Q 617 508 618 533 L 618 572 Q 618 573 619 574 Q 619 602 620 627 L 621 659 Q 621 698 624 727 L 627 772 Q 627 799 640 819 Q 646 831 630 843 Q 611 859 577 867 Q 562 871 552 860 Q 545 854 554 844 Q 572 831 573 809 Q 573 787 574 757 L 574 715 Q 574 685 575 648 L 575 617 Q 575 589 576 558 L 576 524 Q 575 494 574 471 L 575 438 Z" fill="black" /></g></svg>