<?xml version='1.0' encoding='utf-8'?>
<svg xmlns="http://www.w3.org/2000/svg" version="1.1" viewBox="0 0 1024 1024"><g transform="scale(1, -1) translate(0, -900)"><path d="M 668 49 Q 637 53 607 59 Q 594 62 595 54 Q 596 47 607 39 Q 677 -22 701 -60 Q 716 -78 732 -63 Q 769 -24 768 47 Q 765 74 760 259 Q 759 277 761 292 L 770 336 Q 770 339 772 341 Q 782 360 764 374 Q 737 396 706 407 Q 687 414 678 406 Q 672 399 683 383 Q 699 356 703 325 L 705 287 Q 709 154 705 81 Q 704 59 692 51 Q 682 44 668 49 Z" fill="black" /></g></svg>