<?xml version='1.0' encoding='utf-8'?>
<svg xmlns="http://www.w3.org/2000/svg" version="1.1" viewBox="0 0 1024 1024"><g transform="scale(1, -1) translate(0, -900)"><path d="M 768 480 Q 831 489 873 487 Q 892 487 892 497 Q 893 507 863 522 Q 838 537 798 521 Q 792 521 770 515 L 732 508 Q 711 505 692 501 Q 670 494 660 497 Q 650 501 652 512 Q 656 533 663 554 Q 670 573 655 590 Q 631 617 614 617 Q 598 618 604 601 Q 626 558 618 518 Q 611 502 607 499 Q 597 484 604 472 Q 616 451 626 450 Q 633 450 652 458 Q 685 468 731 475 L 768 480 Z" fill="black" /></g></svg>