<?xml version='1.0' encoding='utf-8'?>
<svg xmlns="http://www.w3.org/2000/svg" version="1.1" viewBox="0 0 1024 1024"><g transform="scale(1, -1) translate(0, -900)"><path d="M 589 621 Q 733 654 768 650 Q 784 644 782 634 Q 782 633 753 561 Q 746 548 751 544 Q 758 541 774 552 Q 823 589 864 604 Q 898 616 897 625 Q 894 634 830 680 Q 808 696 733 681 Q 730 681 603 657 L 547 646 Q 531 645 516 641 Q 477 634 440 628 C 410 623 408 616 435 603 Q 462 587 488 594 Q 509 601 533 608 L 589 621 Z" fill="black" /></g></svg>