<?xml version='1.0' encoding='utf-8'?>
<svg xmlns="http://www.w3.org/2000/svg" version="1.1" viewBox="0 0 1024 1024"><g transform="scale(1, -1) translate(0, -900)"><path d="M 648 358 Q 745 377 766 366 Q 779 359 779 330 Q 792 185 784 71 Q 783 49 769 44 Q 760 41 710 57 Q 698 61 698 53 Q 698 44 713 34 Q 746 1 771 -32 Q 784 -48 800 -49 Q 815 -46 834 -4 Q 856 39 853 83 Q 846 189 840 285 Q 837 322 853 354 Q 866 369 852 384 Q 834 400 795 414 Q 777 423 721 401 Q 535 365 514 362 C 484 357 498 334 528 337 Q 541 337 559 341 Q 583 347 606 350 L 648 358 Z" fill="black" /></g></svg>