<?xml version='1.0' encoding='utf-8'?>
<svg xmlns="http://www.w3.org/2000/svg" version="1.1" viewBox="0 0 1024 1024"><g transform="scale(1, -1) translate(0, -900)"><path d="M 523 466 Q 535 496 548 530 L 560 568 Q 566 593 575 621 Q 576 630 579 638 L 593 684 Q 608 733 621 753 Q 631 768 625 778 Q 610 803 564 813 Q 549 819 534 810 Q 524 800 534 791 Q 550 775 554 754 Q 557 735 543 674 L 532 630 Q 531 623 528 614 Q 521 587 512 560 L 499 522 Q 486 489 473 458 L 456 420 Q 393 315 316 224 Q 307 209 318 208 Q 322 207 334 215 Q 442 290 508 431 L 523 466 Z" fill="black" /></g></svg>