<?xml version='1.0' encoding='utf-8'?>
<svg xmlns="http://www.w3.org/2000/svg" version="1.1" viewBox="0 0 1024 1024"><g transform="scale(1, -1) translate(0, -900)"><path d="M 430 340 Q 458 398 483 489 Q 492 517 507 535 Q 523 551 509 563 Q 496 573 466 579 Q 444 583 420 567 Q 399 557 371 546 Q 343 534 294 524 Q 281 523 277 516 Q 273 509 291 503 Q 325 493 370 509 Q 400 525 406 527 Q 431 528 429 501 Q 416 423 393 369 L 373 330 Q 334 267 251 227 C 224 213 221 207 251 209 Q 336 209 404 296 L 430 340 Z" fill="black" /></g></svg>