<?xml version='1.0' encoding='utf-8'?>
<svg xmlns="http://www.w3.org/2000/svg" version="1.1" viewBox="0 0 1024 1024"><g transform="scale(1, -1) translate(0, -900)"><path d="M 965 59 Q 946 105 931 187 Q 928 202 921 206 Q 914 210 911 191 Q 902 89 888 71 Q 863 40 751 35 Q 690 34 664 43 Q 642 53 636 69 Q 609 135 640 248 Q 652 296 648 304 Q 642 317 610 335 C 585 351 558 358 569 330 Q 569 329 571 325 Q 590 288 585 236 Q 581 95 590 66 Q 599 35 622 16 Q 671 -17 842 -10 Q 920 -4 950 12 Q 978 28 965 59 Z" fill="black" /></g></svg>