<?xml version='1.0' encoding='utf-8'?>
<svg xmlns="http://www.w3.org/2000/svg" version="1.1" viewBox="0 0 1024 1024"><g transform="scale(1, -1) translate(0, -900)"><path d="M 733 44 Q 760 13 779 -18 Q 788 -34 797 -32 Q 810 -31 823 -3 Q 838 30 834 70 Q 827 137 817 263 Q 816 288 828 307 Q 835 319 828 327 Q 812 343 767 361 Q 752 368 739 360 Q 711 344 663 329 Q 662 329 659 328 C 630 319 604 281 633 289 L 633 289 Q 645 295 737 317 Q 749 320 757 315 Q 772 297 773 73 Q 773 72 773 70 Q 770 61 761 59 C 739 39 728 50 733 44 Z" fill="black" /></g></svg>