<?xml version='1.0' encoding='utf-8'?>
<svg xmlns="http://www.w3.org/2000/svg" version="1.1" viewBox="0 0 1024 1024"><g transform="scale(1, -1) translate(0, -900)"><path d="M 628 397 Q 629 428 630 456 L 631 488 Q 632 519 634 548 L 635 584 Q 635 606 635 629 L 636 658 Q 637 686 639 713 L 644 755 Q 645 774 649 789 Q 655 811 658 828 Q 662 838 642 853 Q 608 871 584 875 Q 568 878 560 870 Q 553 863 561 848 Q 588 806 589 741 L 591 703 Q 591 678 592 649 L 592 620 Q 592 595 592 569 L 592 538 Q 591 510 590 478 L 590 447 Q 589 419 588 387 C 587 357 627 367 628 397 Z" fill="black" /></g></svg>