<?xml version='1.0' encoding='utf-8'?>
<svg xmlns="http://www.w3.org/2000/svg" version="1.1" viewBox="0 0 1024 1024"><g transform="scale(1, -1) translate(0, -900)"><path d="M 569 117 Q 494 51 368 18 Q 356 15 366 7 Q 372 3 414 5 Q 516 14 599 87 L 626 117 Q 663 166 698 240 Q 711 265 729 281 Q 748 294 737 307 Q 725 319 698 330 Q 677 339 652 328 Q 630 319 598 312 Q 576 308 541 302 C 511 297 508 270 538 271 Q 560 270 590 276 Q 626 289 632 290 Q 653 289 648 266 Q 630 197 592 144 L 569 117 Z" fill="black" /></g></svg>