<?xml version='1.0' encoding='utf-8'?>
<svg xmlns="http://www.w3.org/2000/svg" version="1.1" viewBox="0 0 1024 1024"><g transform="scale(1, -1) translate(0, -900)"><path d="M 675 285 Q 724 295 770 298 Q 794 299 798 293 Q 808 272 793 224 Q 760 89 719 34 Q 697 3 669 11 Q 650 17 631 24 Q 607 34 623 8 Q 657 -35 671 -66 Q 692 -93 715 -74 Q 752 -52 780 -9 Q 814 40 848 201 Q 860 258 883 284 Q 896 296 891 307 Q 882 319 833 345 Q 814 355 794 343 Q 767 330 666 313 Q 579 297 505 292 C 475 290 454 276 481 264 Q 502 249 524 254 L 552 260 Q 598 270 644 279 L 675 285 Z" fill="black" /></g></svg>