<?xml version='1.0' encoding='utf-8'?>
<svg xmlns="http://www.w3.org/2000/svg" version="1.1" viewBox="0 0 1024 1024"><g transform="scale(1, -1) translate(0, -900)"><path d="M 792 263 Q 834 190 841 188 Q 851 188 861 211 Q 877 256 875 310 Q 868 544 877 569 Q 886 591 874 600 Q 867 610 830 628 Q 812 637 775 623 Q 735 607 688 597 Q 663 591 634 584 L 611 580 Q 604 580 595 578 C 565 574 582 544 611 550 Q 618 551 631 554 Q 692 576 774 587 Q 799 590 806 582 Q 816 570 813 383 Q 813 316 806 303 Q 802 293 788 296 Q 782 297 782 296 C 773 295 777 289 792 263 Z" fill="black" /></g></svg>