<?xml version='1.0' encoding='utf-8'?>
<svg xmlns="http://www.w3.org/2000/svg" version="1.1" viewBox="0 0 1024 1024"><g transform="scale(1, -1) translate(0, -900)"><path d="M 643 67 Q 643 104 643 137 L 644 178 Q 644 208 645 235 L 646 270 Q 646 303 647 333 L 647 366 Q 648 406 649 442 Q 649 446 649 451 L 651 482 Q 658 501 648 511 Q 632 526 617 535 C 592 552 561 552 575 525 Q 593 492 596 471 L 598 442 Q 599 426 599 356 L 599 326 Q 599 298 599 261 L 599 227 Q 599 199 599 167 L 599 130 Q 599 99 599 63 C 599 33 643 37 643 67 Z" fill="black" /></g></svg>