<?xml version='1.0' encoding='utf-8'?>
<svg xmlns="http://www.w3.org/2000/svg" version="1.1" viewBox="0 0 1024 1024"><g transform="scale(1, -1) translate(0, -900)"><path d="M 524 394 Q 530 410 536 422 Q 543 435 535 445 Q 525 458 514 464 C 493 485 478 485 480 455 Q 490 422 463 322 Q 460 307 430 276 Q 420 263 427 252 Q 434 242 454 226 Q 464 217 480 228 Q 567 279 790 303 Q 812 306 823 296 Q 841 278 834 242 Q 809 56 767 25 Q 754 21 691 49 Q 678 56 675 50 Q 674 41 689 26 Q 723 -14 735 -49 Q 751 -77 775 -61 Q 824 -30 835 -4 Q 850 27 889 228 Q 896 268 914 287 Q 929 303 922 313 Q 910 325 862 347 Q 837 359 809 351 Q 770 341 725 334 Q 616 315 518 289 Q 497 276 495 292 Q 505 337 515 369 L 524 394 Z" fill="black" /></g></svg>