<?xml version='1.0' encoding='utf-8'?>
<svg xmlns="http://www.w3.org/2000/svg" version="1.1" viewBox="0 0 1024 1024"><g transform="scale(1, -1) translate(0, -900)"><path d="M 683 531 Q 696 512 709 506 Q 719 499 732 518 Q 742 537 764 631 L 778 675 Q 785 690 796 702 Q 808 712 797 725 Q 784 738 746 761 Q 731 767 670 750 Q 642 747 623 739 L 573 727 Q 555 724 541 719 Q 498 709 464 700 C 435 692 449 662 478 671 Q 517 684 575 698 L 620 710 Q 695 732 715 720 Q 727 711 724 694 Q 720 676 717 660 L 711 625 Q 701 582 697 571 Q 693 562 686 559 C 672 544 672 544 683 531 Z" fill="black" /></g></svg>