<?xml version='1.0' encoding='utf-8'?>
<svg xmlns="http://www.w3.org/2000/svg" version="1.1" viewBox="0 0 1024 1024"><g transform="scale(1, -1) translate(0, -900)"><path d="M 703 492 Q 703 491 704 490 Q 708 477 719 476 Q 735 479 763 532 Q 779 575 810 600 Q 826 613 814 626 Q 799 642 757 666 Q 745 673 683 660 Q 665 660 623 651 L 592 646 Q 559 642 531 635 Q 470 623 429 618 C 399 614 422 588 452 590 Q 459 589 468 591 Q 504 604 565 613 L 594 617 Q 708 641 730 629 Q 736 625 731 606 Q 716 534 705 516 C 698 500 698 500 703 492 Z" fill="black" /></g></svg>