<?xml version='1.0' encoding='utf-8'?>
<svg xmlns="http://www.w3.org/2000/svg" version="1.1" viewBox="0 0 1024 1024"><g transform="scale(1, -1) translate(0, -900)"><path d="M 399 257 Q 432 279 730 301 Q 751 302 763 291 Q 779 285 781 261 Q 784 201 771 94 Q 770 69 746 68 Q 715 71 691 73 Q 675 74 679 65 Q 682 55 712 34 Q 749 4 771 -28 Q 781 -38 794 -33 Q 803 -29 817 4 Q 838 47 839 136 Q 836 271 849 290 Q 859 303 851 314 Q 839 324 797 342 Q 778 349 762 340 Q 738 333 670 326 Q 573 316 500 303 Q 433 294 386 288 C 356 284 371 247 399 257 Z" fill="black" /></g></svg>