<?xml version='1.0' encoding='utf-8'?>
<svg xmlns="http://www.w3.org/2000/svg" version="1.1" viewBox="0 0 1024 1024"><g transform="scale(1, -1) translate(0, -900)"><path d="M 638 323 Q 593 398 538 428 C 512 444 498 426 521 406 Q 536 394 548 381 L 585 336 Q 591 326 598 315 L 621 262 Q 642 187 611 87 Q 601 54 590 51 Q 584 48 516 56 Q 489 62 488 56 Q 487 49 499 36 Q 551 -10 572 -42 Q 585 -61 599 -57 Q 615 -56 633 -33 Q 652 0 666 58 Q 682 139 677 191 Q 673 227 667 253 L 647 307 L 638 323 Z" fill="black" /></g></svg>