<?xml version='1.0' encoding='utf-8'?>
<svg xmlns="http://www.w3.org/2000/svg" version="1.1" viewBox="0 0 1024 1024"><g transform="scale(1, -1) translate(0, -900)"><path d="M 430 419 Q 466 452 487 487 Q 497 508 510 528 Q 535 574 550 629 L 555 652 Q 555 653 556 654 Q 557 663 560 671 L 572 719 Q 572 722 573 723 Q 580 759 597 790 Q 607 808 591 818 Q 545 855 519 847 Q 504 843 510 828 Q 525 798 513 705 L 505 658 Q 445 448 288 361 Q 272 351 256 340 Q 243 331 255 328 Q 304 324 398 392 L 430 419 Z" fill="black" /></g></svg>