<?xml version='1.0' encoding='utf-8'?>
<svg xmlns="http://www.w3.org/2000/svg" version="1.1" viewBox="0 0 1024 1024"><g transform="scale(1, -1) translate(0, -900)"><path d="M 688 269 Q 704 241 721 234 Q 731 227 745 246 Q 758 267 786 379 Q 793 407 816 431 Q 828 443 817 456 Q 804 472 764 496 Q 746 505 671 487 Q 664 487 525 461 Q 471 451 425 443 C 395 438 425 406 454 415 Q 491 427 547 436 L 587 443 Q 713 465 728 452 Q 738 439 737 426 Q 716 308 701 292 C 688 268 688 270 688 269 Z" fill="black" /></g></svg>