<?xml version='1.0' encoding='utf-8'?>
<svg xmlns="http://www.w3.org/2000/svg" version="1.1" viewBox="0 0 1024 1024"><g transform="scale(1, -1) translate(0, -900)"><path d="M 609 64 Q 609 104 610 141 L 611 185 Q 611 224 612 259 L 613 288 Q 613 316 614 343 L 616 383 Q 616 390 617 395 Q 623 413 614 422 Q 601 435 587 443 C 562 459 535 463 547 436 Q 551 426 558 414 Q 564 398 565 369 L 566 336 Q 566 315 566 279 L 567 252 Q 567 219 567 175 L 567 135 Q 567 101 567 59 C 567 29 609 34 609 64 Z" fill="black" /></g></svg>