<?xml version='1.0' encoding='utf-8'?>
<svg xmlns="http://www.w3.org/2000/svg" version="1.1" viewBox="0 0 1024 1024"><g transform="scale(1, -1) translate(0, -900)"><path d="M 738 599 Q 765 606 853 604 Q 869 603 875 612 Q 879 619 865 627 Q 817 657 768 638 Q 759 638 746 633 L 702 624 Q 677 620 655 613 Q 631 606 638 626 Q 645 660 652 673 Q 659 680 655 688 Q 649 695 624 706 Q 611 712 604 707 Q 597 700 604 690 Q 622 656 598 613 Q 582 598 583 585 Q 586 578 598 568 Q 608 562 617 571 Q 660 592 695 593 L 738 599 Z" fill="black" /></g></svg>