<?xml version='1.0' encoding='utf-8'?>
<svg xmlns="http://www.w3.org/2000/svg" version="1.1" viewBox="0 0 1024 1024"><g transform="scale(1, -1) translate(0, -900)"><path d="M 650 54 Q 678 20 697 -13 Q 706 -29 717 -29 Q 732 -28 746 5 Q 762 41 759 85 Q 752 143 743 254 Q 742 282 757 304 Q 764 317 756 326 Q 738 344 689 365 Q 671 374 657 364 Q 585 330 476 311 C 446 306 461 277 491 282 Q 507 283 646 316 Q 667 320 677 313 Q 689 298 691 89 L 691 87 Q 688 78 681 75 C 664 50 641 66 650 54 Z" fill="black" /></g></svg>