<?xml version='1.0' encoding='utf-8'?>
<svg xmlns="http://www.w3.org/2000/svg" version="1.1" viewBox="0 0 1024 1024"><g transform="scale(1, -1) translate(0, -900)"><path d="M 659 55 Q 690 18 711 -17 Q 718 -33 729 -32 Q 744 -31 757 -1 Q 773 33 770 75 Q 764 133 757 242 Q 756 270 770 290 Q 777 303 769 311 Q 751 329 704 349 Q 688 356 673 348 Q 628 327 506 297 C 477 290 485 261 515 266 Q 542 269 663 301 Q 684 305 695 298 Q 720 273 705 79 L 705 77 Q 702 65 693 66 C 671 46 649 67 659 55 Z" fill="black" /></g></svg>