<?xml version='1.0' encoding='utf-8'?>
<svg xmlns="http://www.w3.org/2000/svg" version="1.1" viewBox="0 0 1024 1024"><g transform="scale(1, -1) translate(0, -900)"><path d="M 688 481 Q 689 477 691 470 Q 695 457 707 457 Q 720 458 727 471 Q 737 484 759 553 Q 775 599 808 626 Q 826 639 812 654 Q 796 670 751 694 Q 738 703 676 689 Q 643 689 523 666 Q 468 656 432 651 C 402 647 428 615 457 622 Q 493 632 555 642 L 590 648 Q 701 669 720 656 Q 729 652 724 624 Q 705 534 695 507 C 687 483 687 483 688 481 Z" fill="black" /></g></svg>