<?xml version='1.0' encoding='utf-8'?>
<svg xmlns="http://www.w3.org/2000/svg" version="1.1" viewBox="0 0 1024 1024"><g transform="scale(1, -1) translate(0, -900)"><path d="M 714 131 Q 766 20 852 -38 Q 916 -71 933 -58 Q 949 -49 942 -18 Q 935 9 927 109 Q 927 127 922 130 Q 919 131 915 115 Q 896 37 879 23 Q 872 20 847 36 Q 787 84 747 157 L 729 197 Q 705 248 694 318 L 690 359 Q 689 389 693 406 Q 700 428 663 445 Q 635 460 619 456 Q 604 453 614 432 Q 638 398 646 342 L 654 307 Q 672 226 700 164 L 714 131 Z" fill="black" /></g></svg>