<?xml version='1.0' encoding='utf-8'?>
<svg xmlns="http://www.w3.org/2000/svg" version="1.1" viewBox="0 0 1024 1024"><g transform="scale(1, -1) translate(0, -900)"><path d="M 722 29 Q 732 4 757 -48 Q 764 -64 775 -64 Q 790 -61 799 -37 Q 823 11 838 157 Q 842 203 865 231 Q 881 250 869 263 Q 848 284 804 304 Q 786 314 755 303 Q 638 261 446 245 C 416 242 442 202 471 209 Q 474 212 575 229 L 616 236 Q 757 264 774 248 Q 781 244 781 226 Q 782 141 766 58 Q 765 43 759 42 L 757 42 C 743 15 710 57 722 29 Z" fill="black" /></g></svg>