<?xml version='1.0' encoding='utf-8'?>
<svg xmlns="http://www.w3.org/2000/svg" version="1.1" viewBox="0 0 1024 1024"><g transform="scale(1, -1) translate(0, -900)"><path d="M 678 336 Q 679 335 680 331 Q 684 316 695 317 Q 708 318 715 331 Q 725 341 745 393 Q 761 439 795 466 Q 813 479 798 495 Q 782 511 737 536 Q 725 545 663 531 Q 552 516 534 512 Q 533 512 532 511 L 525 510 Q 509 509 495 505 Q 435 493 397 488 C 367 484 381 454 411 457 Q 418 456 426 458 Q 463 471 530 480 L 573 487 Q 687 508 708 496 Q 715 492 710 468 Q 691 386 683 365 C 675 341 675 341 678 336 Z" fill="black" /></g></svg>