<?xml version='1.0' encoding='utf-8'?>
<svg xmlns="http://www.w3.org/2000/svg" version="1.1" viewBox="0 0 1024 1024"><g transform="scale(1, -1) translate(0, -900)"><path d="M 326 383 Q 335 379 370 378 Q 484 409 490 395 Q 496 383 495 350 Q 494 232 474 167 Q 464 127 452 114 Q 442 105 373 117 Q 354 121 368 105 Q 405 68 425 39 Q 434 23 450 28 Q 465 31 482 52 Q 530 106 544 318 Q 545 364 563 393 Q 575 409 568 416 Q 556 429 530 441 Q 515 448 455 427 Q 407 412 339 399 C 310 393 297 388 326 383 Z" fill="black" /></g></svg>