<?xml version='1.0' encoding='utf-8'?>
<svg xmlns="http://www.w3.org/2000/svg" version="1.1" viewBox="0 0 1024 1024"><g transform="scale(1, -1) translate(0, -900)"><path d="M 647 262 Q 704 269 770 272 Q 789 271 796 261 Q 803 254 799 242 Q 790 88 778 66 Q 774 57 763 60 Q 738 64 710 70 Q 685 74 703 56 Q 760 8 782 -27 Q 792 -40 804 -31 Q 829 -7 843 101 Q 847 212 867 239 Q 880 258 876 265 Q 869 277 823 307 Q 807 320 792 315 Q 765 305 718 298 Q 585 285 513 272 L 480 266 Q 470 265 465 263 Q 413 251 373 248 C 343 245 368 205 397 211 Q 407 211 418 214 Q 440 224 478 232 L 502 238 Q 547 253 604 257 L 647 262 Z" fill="black" /></g></svg>