<?xml version='1.0' encoding='utf-8'?>
<svg xmlns="http://www.w3.org/2000/svg" version="1.1" viewBox="0 0 1024 1024"><g transform="scale(1, -1) translate(0, -900)"><path d="M 637 430 Q 638 457 640 483 L 642 519 Q 643 549 645 578 L 646 601 Q 647 638 649 673 L 650 707 Q 650 729 667 806 Q 671 818 650 832 Q 614 851 590 855 Q 574 858 566 849 Q 559 842 567 827 Q 592 793 592 768 Q 593 731 595 691 L 597 660 Q 597 629 598 593 L 598 570 Q 597 540 597 508 L 597 476 Q 596 451 595 421 C 594 391 636 400 637 430 Z" fill="black" /></g></svg>