<?xml version='1.0' encoding='utf-8'?>
<svg xmlns="http://www.w3.org/2000/svg" version="1.1" viewBox="0 0 1024 1024"><g transform="scale(1, -1) translate(0, -900)"><path d="M 391 408 Q 407 402 426 407 Q 508 437 766 480 Q 821 487 838 485 Q 851 482 851 474 Q 851 473 822 412 Q 813 399 819 396 Q 826 393 842 402 Q 890 432 929 440 Q 960 447 961 456 Q 958 465 897 512 Q 881 527 858 525 Q 801 515 736 501 L 690 493 Q 621 483 526 464 L 489 457 Q 486 458 483 457 Q 437 447 391 440 C 361 435 361 413 391 408 Z" fill="black" /></g></svg>