<?xml version='1.0' encoding='utf-8'?>
<svg xmlns="http://www.w3.org/2000/svg" version="1.1" viewBox="0 0 1024 1024"><g transform="scale(1, -1) translate(0, -900)"><path d="M 601 55 Q 591 48 580 38 Q 528 4 394 -25 Q 381 -26 387 -34 Q 393 -40 417 -41 Q 504 -34 554 -18 Q 599 -2 633 29 L 668 65 Q 692 96 710 138 Q 720 166 738 178 Q 751 188 739 202 Q 724 218 698 232 Q 682 239 663 233 Q 621 211 563 203 Q 553 203 547 201 C 517 197 506 195 534 184 Q 535 184 538 182 Q 560 170 593 180 L 655 194 Q 667 198 669 185 Q 669 140 629 85 L 601 55 Z" fill="black" /></g></svg>