<?xml version='1.0' encoding='utf-8'?>
<svg xmlns="http://www.w3.org/2000/svg" version="1.1" viewBox="0 0 1024 1024"><g transform="scale(1, -1) translate(0, -900)"><path d="M 750 36 Q 778 2 798 -30 Q 807 -46 817 -45 Q 832 -44 845 -13 Q 860 21 856 64 Q 829 272 851 305 Q 858 315 850 324 Q 834 340 788 360 Q 772 367 759 359 Q 728 341 676 327 Q 670 326 668 324 C 597 301 589 266 642 286 Q 751 328 775 315 L 776 314 Q 795 299 793 126 Q 794 80 791 64 Q 787 48 770 55 C 740 53 736 53 750 36 Z" fill="black" /></g></svg>