<?xml version='1.0' encoding='utf-8'?>
<svg xmlns="http://www.w3.org/2000/svg" version="1.1" viewBox="0 0 1024 1024"><g transform="scale(1, -1) translate(0, -900)"><path d="M 715 274 Q 715 273 716 270 Q 720 257 731 256 Q 743 257 750 270 Q 759 279 779 328 Q 795 371 826 396 Q 842 409 830 422 Q 815 438 773 462 Q 761 469 686 454 Q 659 454 526 428 Q 468 418 427 411 C 397 406 407 379 437 382 Q 444 381 452 383 Q 488 395 547 405 L 584 411 Q 725 439 746 425 Q 753 421 747 398 Q 729 317 717 296 C 711 282 711 282 715 274 Z" fill="black" /></g></svg>