<?xml version='1.0' encoding='utf-8'?>
<svg xmlns="http://www.w3.org/2000/svg" version="1.1" viewBox="0 0 1024 1024"><g transform="scale(1, -1) translate(0, -900)"><path d="M 403 620 Q 422 607 464 614 Q 590 653 776 667 Q 788 667 795 666 Q 805 659 802 652 Q 803 646 799 640 Q 775 583 779 580 Q 786 577 802 587 Q 848 615 886 622 Q 916 629 916 637 Q 913 646 853 691 Q 832 709 757 693 Q 688 686 602 670 L 567 664 Q 533 660 496 654 Q 453 645 407 640 Q 403 640 400 638 C 372 633 375 631 403 620 Z" fill="black" /></g></svg>