<?xml version='1.0' encoding='utf-8'?>
<svg xmlns="http://www.w3.org/2000/svg" version="1.1" viewBox="0 0 1024 1024"><g transform="scale(1, -1) translate(0, -900)"><path d="M 979 84 Q 954 144 939 247 Q 936 265 930 272 Q 920 279 916 262 Q 903 201 887 155 Q 880 124 852 105 Q 825 78 707 87 Q 641 96 622 132 Q 595 201 620 515 Q 627 621 641 666 Q 653 697 566 747 Q 547 760 526 749 Q 513 742 536 711 Q 564 671 565 570 Q 565 489 557 329 Q 542 128 591 71 Q 630 32 708 20 Q 753 16 816 16 Q 895 17 953 42 Q 993 54 979 84 Z" fill="black" /></g></svg>