<?xml version='1.0' encoding='utf-8'?>
<svg xmlns="http://www.w3.org/2000/svg" version="1.1" viewBox="0 0 1024 1024"><g transform="scale(1, -1) translate(0, -900)"><path d="M 557 434 Q 632 450 666 451 C 696 453 704 493 674 489 Q 466 464 311 417 Q 286 410 291 439 Q 294 508 298 578 Q 301 603 289 618 Q 271 636 245 648 Q 233 654 222 651 Q 212 645 221 626 Q 255 559 247 491 Q 243 425 218 395 Q 199 376 207 362 Q 220 346 238 335 Q 253 328 263 336 Q 282 358 376 388 L 417 400 Q 462 415 512 425 L 557 434 Z" fill="black" /></g></svg>