<?xml version='1.0' encoding='utf-8'?>
<svg xmlns="http://www.w3.org/2000/svg" version="1.1" viewBox="0 0 1024 1024"><g transform="scale(1, -1) translate(0, -900)"><path d="M 966 138 Q 950 172 930 280 Q 929 296 921 302 Q 914 306 910 286 Q 885 174 864 137 Q 825 94 700 102 Q 651 106 613 124 Q 579 142 570 164 Q 543 228 580 431 Q 589 464 542 484 C 516 499 497 507 504 478 Q 504 474 507 463 Q 520 420 516 378 Q 503 194 517 143 Q 521 113 548 89 Q 639 10 843 41 Q 853 44 865 46 Q 913 59 959 91 Q 981 109 966 138 Z" fill="black" /></g></svg>