<?xml version='1.0' encoding='utf-8'?>
<svg xmlns="http://www.w3.org/2000/svg" version="1.1" viewBox="0 0 1024 1024"><g transform="scale(1, -1) translate(0, -900)"><path d="M 962 51 Q 940 109 929 210 Q 926 229 918 234 Q 908 240 905 217 Q 889 93 870 69 Q 840 35 713 30 Q 644 30 614 41 Q 587 54 582 71 Q 570 104 573 190 Q 580 286 600 329 Q 615 363 593 383 Q 568 402 550 412 C 525 428 497 437 506 408 Q 528 339 526 299 Q 517 283 521 142 Q 521 43 564 10 Q 619 -32 817 -25 Q 907 -21 942 -2 Q 976 16 962 51 Z" fill="black" /></g></svg>