<?xml version='1.0' encoding='utf-8'?>
<svg xmlns="http://www.w3.org/2000/svg" version="1.1" viewBox="0 0 1024 1024"><g transform="scale(1, -1) translate(0, -900)"><path d="M 937 76 Q 916 122 900 205 Q 897 221 890 226 Q 880 230 878 210 Q 868 108 853 89 Q 826 61 709 56 Q 645 57 618 68 Q 594 80 589 96 Q 576 129 577 214 Q 584 308 602 351 Q 615 382 595 401 Q 543 441 526 437 Q 510 430 518 412 Q 539 373 533 315 Q 527 131 538 93 Q 547 59 572 39 Q 621 0 804 4 Q 886 8 919 25 Q 952 43 937 76 Z" fill="black" /></g></svg>