<?xml version='1.0' encoding='utf-8'?>
<svg xmlns="http://www.w3.org/2000/svg" version="1.1" viewBox="0 0 1024 1024"><g transform="scale(1, -1) translate(0, -900)"><path d="M 220 358 L 274 374 L 336 385 Q 343 387 349 389 Q 408 407 461 417 Q 476 420 476 427 Q 476 441 459 447 Q 435 457 410 451 L 341 426 L 277 414 Q 235 404 220 403 Q 203 400 169 390 Q 151 384 149 390 Q 139 397 145 417 Q 155 468 164 492 Q 171 510 172 519 L 172 523 Q 171 536 163 539 Q 141 564 109 576 Q 102 579 93 578 Q 74 574 88 547 Q 108 517 105 472 Q 104 453 102 443 Q 98 421 74 390 Q 70 384 69 378 Q 60 351 94 322 Q 108 310 125 325 Q 145 335 163 341 Q 173 346 220 358 Z" fill="black" /></g></svg>