<?xml version='1.0' encoding='utf-8'?>
<svg xmlns="http://www.w3.org/2000/svg" version="1.1" viewBox="0 0 1024 1024"><g transform="scale(1, -1) translate(0, -900)"><path d="M 647 423 Q 637 421 624 421 Q 588 417 576 414 Q 557 408 554 414 Q 551 416 557 428 Q 567 451 568 453 Q 568 458 570 465 Q 576 509 587 532 Q 588 533 589 543 Q 589 545 588 547 Q 588 560 580 563 Q 559 587 525 600 Q 518 603 510 602 Q 490 598 506 570 Q 524 541 521 496 Q 521 476 519 466 Q 515 445 492 414 Q 486 408 485 402 Q 476 374 512 346 Q 525 333 543 349 Q 564 365 588 372 L 637 384 L 694 397 Q 757 408 811 414 L 904 421 Q 925 423 928 431 Q 933 441 917 453 Q 862 488 823 468 Q 811 465 706 442 L 647 423 Z" fill="black" /></g></svg>