<?xml version='1.0' encoding='utf-8'?>
<svg xmlns="http://www.w3.org/2000/svg" version="1.1" viewBox="0 0 1024 1024"><g transform="scale(1, -1) translate(0, -900)"><path d="M 945 43 Q 926 94 912 181 Q 909 197 902 202 Q 893 206 890 186 Q 877 78 862 58 Q 829 22 695 21 Q 622 22 590 35 Q 562 50 556 68 Q 537 131 562 223 Q 572 281 573 284 Q 563 300 532 318 C 507 335 472 341 484 313 Q 484 312 486 308 Q 507 268 502 211 Q 498 90 506 65 Q 516 26 543 5 Q 603 -38 800 -31 Q 891 -27 927 -8 Q 958 10 945 43 Z" fill="black" /></g></svg>