<?xml version='1.0' encoding='utf-8'?>
<svg xmlns="http://www.w3.org/2000/svg" version="1.1" viewBox="0 0 1024 1024"><g transform="scale(1, -1) translate(0, -900)"><path d="M 255 609 Q 245 616 213 623 Q 200 624 195 619 Q 191 615 200 600 Q 239 555 232 440 Q 231 434 229 427 Q 222 399 194 368 Q 184 359 189 342 Q 196 320 206 310 Q 216 303 226 313 Q 263 347 371 413 Q 384 419 388 426 Q 389 430 385 431 Q 378 432 293 411 Q 286 410 284 412 Q 281 413 280 422 Q 265 576 266 592 C 266 604 266 604 255 609 Z" fill="black" /></g></svg>