<?xml version='1.0' encoding='utf-8'?>
<svg xmlns="http://www.w3.org/2000/svg" version="1.1" viewBox="0 0 1024 1024"><g transform="scale(1, -1) translate(0, -900)"><path d="M 552 409 Q 561 393 572 376 Q 585 354 593 356 Q 600 357 610 376 Q 614 386 620 470 Q 620 620 637 651 Q 647 667 640 677 Q 633 687 587 702 Q 565 709 549 700 Q 500 678 457 667 L 441 663 Q 440 663 437 661 C 408 652 416 630 445 637 Q 556 665 558 665 Q 562 664 567 660 Q 583 644 571 455 Q 572 439 564 436 C 551 411 551 411 552 409 Z" fill="black" /></g></svg>