<?xml version='1.0' encoding='utf-8'?>
<svg xmlns="http://www.w3.org/2000/svg" version="1.1" viewBox="0 0 1024 1024"><g transform="scale(1, -1) translate(0, -900)"><path d="M 537 586 Q 506 579 474 570 Q 458 566 453 572 Q 446 582 449 671 Q 450 693 457 707 Q 469 725 452 733 Q 436 743 417 752 Q 399 761 387 749 Q 354 722 259 705 C 230 699 249 663 278 672 Q 383 706 395 701 L 396 700 Q 403 696 404 671 Q 405 577 401 555 Q 400 540 414 523 Q 424 510 432 508 Q 441 507 451 519 Q 481 558 576 560 Q 592 560 594 563 Q 595 573 577 586 Q 576 587 573 588 L 537 586 Z" fill="black" /></g></svg>