<?xml version='1.0' encoding='utf-8'?>
<svg xmlns="http://www.w3.org/2000/svg" version="1.1" viewBox="0 0 1024 1024"><g transform="scale(1, -1) translate(0, -900)"><path d="M 415 162 Q 360 152 295 131 Q 270 121 286 142 Q 329 203 430 324 Q 457 358 481 379 Q 491 389 486 398 Q 476 416 446 434 Q 430 443 422 440 Q 412 437 414 422 Q 415 394 371 312 L 356 288 Q 355 287 353 284 Q 244 133 213 116 Q 200 109 203 95 Q 204 82 229 64 Q 239 54 253 64 Q 325 115 424 145 C 453 154 444 168 415 162 Z" fill="black" /></g></svg>