<?xml version='1.0' encoding='utf-8'?>
<svg xmlns="http://www.w3.org/2000/svg" version="1.1" viewBox="0 0 1024 1024"><g transform="scale(1, -1) translate(0, -900)"><path d="M 518 238 Q 576 241 630 247 Q 795 259 926 245 Q 950 242 956 251 Q 963 264 951 276 Q 923 304 879 324 Q 864 330 838 322 Q 765 306 689 296 Q 682 296 675 294 L 615 288 Q 540 281 498 276 Q 443 272 398 266 L 347 260 Q 322 259 301 256 Q 228 244 118 244 Q 105 244 103 233 Q 102 220 121 206 Q 137 193 168 181 Q 180 177 197 185 Q 215 191 293 204 Q 393 226 518 238 Z" fill="black" /></g></svg>