<?xml version='1.0' encoding='utf-8'?>
<svg xmlns="http://www.w3.org/2000/svg" version="1.1" viewBox="0 0 1024 1024"><g transform="scale(1, -1) translate(0, -900)"><path d="M 876 671 Q 866 684 848 729 Q 847 742 841 746 Q 835 747 832 733 Q 802 667 771 654 Q 620 630 601 685 Q 595 700 595 726 L 596 742 Q 597 773 606 809 Q 610 825 600 834 Q 588 846 567 854 Q 557 858 548 854 Q 542 850 547 834 Q 557 800 555 765 Q 549 660 581 629 Q 653 571 795 599 Q 799 602 805 602 Q 839 612 871 636 Q 887 649 876 671 Z" fill="black" /></g></svg>