<?xml version='1.0' encoding='utf-8'?>
<svg xmlns="http://www.w3.org/2000/svg" version="1.1" viewBox="0 0 1024 1024"><g transform="scale(1, -1) translate(0, -900)"><path d="M 270 51 Q 274 30 280 22 Q 284 18 290 19 Q 302 25 308 73 Q 312 122 314 246 L 315 288 Q 315 322 316 367 L 318 397 Q 318 419 320 443 Q 320 446 320 448 L 324 483 Q 325 498 329 509 Q 332 522 321 531 Q 305 541 294 547 C 268 562 240 563 255 537 Q 256 536 258 533 Q 262 526 266 518 Q 275 500 276 471 L 276 440 Q 275 416 274 387 L 274 360 Q 273 321 272 276 L 271 235 Q 264 133 270 51 Z" fill="black" /></g></svg>