<?xml version='1.0' encoding='utf-8'?>
<svg xmlns="http://www.w3.org/2000/svg" version="1.1" viewBox="0 0 1024 1024"><g transform="scale(1, -1) translate(0, -900)"><path d="M 528 587 Q 699 620 718 601 Q 731 594 736 536 Q 752 341 743 120 Q 742 87 730 79 Q 715 69 639 86 Q 621 90 622 79 Q 623 70 638 64 Q 705 15 741 -24 Q 765 -45 778 -42 Q 791 -39 804 -7 Q 820 42 819 114 Q 800 403 800 510 Q 800 553 812 580 Q 825 605 814 617 Q 801 633 749 660 Q 727 670 706 665 Q 649 646 532 622 L 475 612 Q 378 597 279 588 C 249 585 266 536 295 542 Q 302 542 310 544 Q 385 562 471 577 L 528 587 Z" fill="black" /></g></svg>