<?xml version='1.0' encoding='utf-8'?>
<svg xmlns="http://www.w3.org/2000/svg" version="1.1" viewBox="0 0 1024 1024"><g transform="scale(1, -1) translate(0, -900)"><path d="M 539 293 Q 539 119 522 52 Q 504 22 535 -45 Q 541 -61 548 -63 Q 554 -69 560 -62 Q 567 -58 576 -39 Q 583 -17 583 10 Q 580 41 578 243 L 578 284 Q 578 291 578 298 L 578 338 Q 578 372 578 410 L 578 444 Q 578 453 578 461 Q 577 500 580 532 L 584 566 Q 587 585 592 602 Q 599 615 597 628 Q 591 635 554 657 C 528 673 487 674 503 648 Q 531 608 535 564 Q 535 560 535 554 L 536 523 Q 536 483 539 438 L 539 406 Q 539 369 539 330 L 539 293 Z" fill="black" /></g></svg>