<?xml version='1.0' encoding='utf-8'?>
<svg xmlns="http://www.w3.org/2000/svg" version="1.1" viewBox="0 0 1024 1024"><g transform="scale(1, -1) translate(0, -900)"><path d="M 512 340 Q 540 434 555 566 L 557 595 Q 560 622 563 646 Q 564 682 572 688 C 578 705 578 705 561 716 Q 548 726 529 735 Q 513 745 501 740 Q 491 734 496 722 Q 517 692 513 635 Q 492 398 454 293 Q 420 202 330 60 Q 326 54 324 48 Q 321 39 331 41 Q 367 48 444 177 Q 457 202 471 229 Q 490 271 505 317 L 512 340 Z" fill="black" /></g></svg>