<?xml version='1.0' encoding='utf-8'?>
<svg xmlns="http://www.w3.org/2000/svg" version="1.1" viewBox="0 0 1024 1024"><g transform="scale(1, -1) translate(0, -900)"><path d="M 719 428 Q 782 440 930 429 Q 951 428 956 435 Q 962 447 951 457 Q 891 508 828 489 Q 780 479 734 467 L 672 457 Q 620 450 578 444 L 539 438 Q 491 435 439 424 L 404 419 Q 343 413 305 405 Q 230 392 118 386 Q 106 386 106 376 Q 105 366 122 353 Q 137 343 164 333 Q 174 329 189 337 Q 207 344 286 360 Q 341 376 404 386 L 438 392 Q 504 405 539 406 L 578 410 Q 630 419 667 422 L 719 428 Z" fill="black" /></g></svg>