<?xml version='1.0' encoding='utf-8'?>
<svg xmlns="http://www.w3.org/2000/svg" version="1.1" viewBox="0 0 1024 1024"><g transform="scale(1, -1) translate(0, -900)"><path d="M 735 461 Q 736 307 730 137 Q 729 97 714 85 Q 701 76 637 89 Q 621 93 622 83 Q 623 76 636 69 Q 694 26 724 -8 Q 745 -27 757 -25 Q 770 -22 781 6 Q 797 52 795 117 Q 785 325 781 461 L 780 508 Q 777 680 793 710 Q 805 731 794 743 Q 784 758 737 782 Q 716 794 634 770 Q 453 734 307 724 C 277 722 295 677 324 684 Q 333 690 392 697 L 427 704 Q 479 716 539 723 L 580 728 Q 623 735 672 740 Q 694 744 706 730 Q 722 721 727 650 Q 731 578 734 503 L 735 461 Z" fill="black" /></g></svg>