<?xml version='1.0' encoding='utf-8'?>
<svg xmlns="http://www.w3.org/2000/svg" version="1.1" viewBox="0 0 1024 1024"><g transform="scale(1, -1) translate(0, -900)"><path d="M 610 423 Q 646 429 733 429 L 786 430 Q 883 424 936 417 Q 960 413 966 422 Q 975 435 963 447 Q 935 475 891 497 Q 879 501 786 484 L 733 476 Q 690 476 613 466 L 563 462 Q 496 461 460 453 L 412 450 Q 346 447 304 440 L 256 436 Q 189 432 99 432 Q 86 433 84 422 Q 83 409 101 394 Q 117 381 148 368 Q 158 364 177 371 Q 192 377 251 385 L 299 393 Q 351 403 412 409 L 459 414 Q 492 420 561 420 L 610 423 Z" fill="black" /></g></svg>