<?xml version='1.0' encoding='utf-8'?>
<svg xmlns="http://www.w3.org/2000/svg" version="1.1" viewBox="0 0 1024 1024"><g transform="scale(1, -1) translate(0, -900)"><path d="M 281 296 Q 278 297 276 296 Q 200 283 85 280 Q 72 280 70 268 Q 70 256 89 242 Q 105 229 137 218 Q 147 214 166 222 Q 184 229 264 244 Q 268 245 276 246 L 327 258 Q 510 280 694 304 L 750 308 Q 760 314 923 301 Q 947 300 953 308 Q 960 321 948 333 Q 882 393 811 372 Q 780 366 748 358 L 694 349 Q 685 348 679 347 Q 579 335 518 326 L 474 320 Q 386 313 329 303 L 281 296 Z" fill="black" /></g></svg>