<?xml version='1.0' encoding='utf-8'?>
<svg xmlns="http://www.w3.org/2000/svg" version="1.1" viewBox="0 0 1024 1024"><g transform="scale(1, -1) translate(0, -900)"><path d="M 478 624 Q 402 611 323 600 C 293 596 313 555 343 560 Q 350 559 365 562 Q 417 578 479 590 L 531 601 Q 579 611 632 620 Q 656 627 668 614 Q 681 607 686 545 Q 692 451 694 349 L 694 304 Q 694 76 676 64 Q 657 52 570 78 Q 552 81 554 71 Q 555 64 569 57 Q 645 6 687 -34 Q 709 -55 722 -52 Q 735 -48 746 -19 Q 762 29 761 98 Q 754 218 750 308 L 748 358 Q 741 553 757 592 Q 770 614 759 627 Q 747 642 698 667 Q 679 676 658 671 Q 616 658 532 635 L 478 624 Z" fill="black" /></g></svg>