<?xml version='1.0' encoding='utf-8'?>
<svg xmlns="http://www.w3.org/2000/svg" version="1.1" viewBox="0 0 1024 1024"><g transform="scale(1, -1) translate(0, -900)"><path d="M 298 640 Q 308 641 317 643 Q 479 685 676 716 Q 698 720 708 708 Q 723 699 729 633 Q 748 408 740 152 Q 740 115 726 104 Q 708 91 619 107 Q 600 110 603 99 Q 604 90 619 85 Q 700 36 742 -3 Q 767 -25 782 -22 Q 795 -18 807 15 Q 823 67 820 143 Q 784 633 807 683 Q 820 707 808 720 Q 796 736 744 762 Q 720 774 657 752 Q 458 704 286 681 C 256 677 269 634 298 640 Z" fill="black" /></g></svg>