<?xml version='1.0' encoding='utf-8'?>
<svg xmlns="http://www.w3.org/2000/svg" version="1.1" viewBox="0 0 1024 1024"><g transform="scale(1, -1) translate(0, -900)"><path d="M 460 453 Q 460 655 475 681 Q 487 700 475 709 Q 456 727 421 742 Q 403 749 389 742 Q 361 726 344 719 Q 328 715 302 708 C 273 700 286 671 315 679 Q 316 680 319 681 Q 350 688 380 698 Q 398 704 403 694 Q 415 663 412 450 L 412 409 Q 406 154 392 133 Q 388 129 372 132 Q 345 142 318 153 Q 300 160 300 152 Q 352 97 378 59 Q 390 40 404 35 Q 413 31 421 40 Q 463 88 463 151 Q 459 262 459 414 L 460 453 Z" fill="black" /></g></svg>