<?xml version='1.0' encoding='utf-8'?>
<svg xmlns="http://www.w3.org/2000/svg" version="1.1" viewBox="0 0 1024 1024"><g transform="scale(1, -1) translate(0, -900)"><path d="M 561 420 Q 552 249 447 31 Q 443 24 442 18 Q 441 8 451 10 Q 481 20 547 153 Q 560 184 572 220 Q 599 310 610 423 L 613 466 Q 616 524 615 582 Q 611 687 618 702 C 621 722 621 722 595 733 Q 582 740 564 745 Q 545 754 532 747 Q 522 738 529 726 Q 548 698 557 653 Q 557 631 560 602 Q 564 529 563 462 L 561 420 Z" fill="black" /></g></svg>