<?xml version='1.0' encoding='utf-8'?>
<svg xmlns="http://www.w3.org/2000/svg" version="1.1" viewBox="0 0 1024 1024"><g transform="scale(1, -1) translate(0, -900)"><path d="M 478 747 Q 451 744 427 739 Q 348 726 293 718 C 263 714 279 670 308 679 Q 309 680 314 681 Q 375 700 480 715 L 537 724 Q 712 749 737 735 Q 747 728 739 694 Q 705 570 691 545 C 680 520 680 520 684 512 Q 685 511 686 507 Q 690 488 704 488 Q 720 489 730 505 Q 745 521 777 605 Q 799 660 842 691 Q 864 707 847 726 Q 828 747 775 779 Q 760 789 686 776 Q 548 758 539 756 L 478 747 Z" fill="black" /></g></svg>