<?xml version='1.0' encoding='utf-8'?>
<svg xmlns="http://www.w3.org/2000/svg" version="1.1" viewBox="0 0 1024 1024"><g transform="scale(1, -1) translate(0, -900)"><path d="M 934 42 Q 921 72 901 158 Q 900 174 893 178 Q 887 181 883 164 Q 858 70 841 41 Q 799 -1 674 2 Q 626 3 590 17 Q 557 30 550 50 Q 535 83 559 195 Q 565 222 519 243 Q 507 247 499 243 Q 492 239 497 222 Q 507 185 505 150 Q 498 59 505 33 Q 509 8 533 -13 Q 614 -76 800 -48 Q 816 -44 836 -40 Q 882 -27 929 2 Q 947 18 934 42 Z" fill="black" /></g></svg>