<?xml version='1.0' encoding='utf-8'?>
<svg xmlns="http://www.w3.org/2000/svg" version="1.1" viewBox="0 0 1024 1024"><g transform="scale(1, -1) translate(0, -900)"><path d="M 516 361 Q 503 129 521 66 Q 527 39 551 17 Q 635 -52 815 -24 L 851 -16 Q 896 -3 940 28 Q 961 46 946 74 Q 930 108 910 216 Q 909 232 901 238 Q 894 242 890 222 Q 865 108 844 72 Q 811 30 693 35 Q 648 36 613 52 Q 582 67 573 87 Q 534 160 576 414 Q 582 447 529 467 Q 516 471 506 466 Q 499 462 504 443 Q 519 401 516 361 Z" fill="black" /></g></svg>