<?xml version='1.0' encoding='utf-8'?>
<svg xmlns="http://www.w3.org/2000/svg" version="1.1" viewBox="0 0 1024 1024"><g transform="scale(1, -1) translate(0, -900)"><path d="M 379 175 Q 487 199 670 203 L 726 204 Q 763 205 805 206 Q 835 205 861 206 Q 882 206 887 215 Q 893 227 876 241 Q 816 286 752 267 Q 737 266 722 261 L 669 251 Q 611 244 542 231 L 499 225 Q 441 218 380 210 L 338 205 Q 250 195 157 183 Q 135 182 151 163 Q 166 148 184 143 Q 206 137 223 142 Q 275 157 334 167 L 379 175 Z" fill="black" /></g></svg>