<?xml version='1.0' encoding='utf-8'?>
<svg xmlns="http://www.w3.org/2000/svg" version="1.1" viewBox="0 0 1024 1024"><g transform="scale(1, -1) translate(0, -900)"><path d="M 387 308 Q 471 353 680 366 Q 705 367 714 359 Q 733 340 727 301 Q 702 102 661 70 Q 649 64 566 94 Q 550 103 547 94 Q 546 84 565 67 Q 608 18 625 -21 Q 644 -52 668 -33 Q 720 1 732 28 Q 750 68 788 276 Q 795 319 815 339 Q 831 355 824 367 Q 793 398 749 413 Q 731 419 655 405 Q 568 399 427 367 Q 400 363 406 380 Q 416 447 426 496 L 434 529 Q 441 565 452 588 Q 459 604 449 616 Q 433 632 416 639 Q 392 649 383 644 Q 374 638 380 625 Q 401 588 365 413 Q 362 397 328 361 Q 316 346 325 333 Q 335 321 357 305 Q 369 295 387 308 Z" fill="black" /></g></svg>