<?xml version='1.0' encoding='utf-8'?>
<svg xmlns="http://www.w3.org/2000/svg" version="1.1" viewBox="0 0 1024 1024"><g transform="scale(1, -1) translate(0, -900)"><path d="M 298 727 Q 299 728 302 729 Q 408 759 644 783 Q 687 786 701 777 Q 711 770 706 738 Q 684 617 674 592 Q 665 571 672 553 Q 678 535 692 537 Q 708 538 716 555 Q 729 571 753 650 Q 772 708 813 741 Q 835 760 816 777 Q 797 796 740 826 Q 725 835 641 819 Q 524 809 407 785 Q 329 772 278 766 C 248 762 269 718 298 727 Z" fill="black" /></g></svg>