<?xml version='1.0' encoding='utf-8'?>
<svg xmlns="http://www.w3.org/2000/svg" version="1.1" viewBox="0 0 1024 1024"><g transform="scale(1, -1) translate(0, -900)"><path d="M 649 313 Q 674 364 699 377 Q 715 393 702 411 Q 687 424 640 450 Q 624 457 603 451 Q 551 432 505 420 L 475 413 Q 468 413 460 411 Q 379 396 296 387 C 266 384 278 353 308 358 Q 317 359 329 362 Q 374 371 421 379 L 452 385 Q 510 397 569 407 Q 600 414 612 401 Q 618 395 616 382 Q 607 342 596 311 C 586 283 635 286 649 313 Z" fill="black" /></g></svg>