<?xml version='1.0' encoding='utf-8'?>
<svg xmlns="http://www.w3.org/2000/svg" version="1.1" viewBox="0 0 1024 1024"><g transform="scale(1, -1) translate(0, -900)"><path d="M 505 610 Q 658 638 700 635 Q 715 625 712 618 Q 712 615 681 545 Q 675 532 681 529 Q 688 525 703 536 Q 754 573 797 586 Q 831 598 831 606 Q 830 616 763 663 Q 741 679 669 664 Q 561 649 513 639 L 451 629 Q 417 625 379 618 Q 331 609 284 604 C 254 601 256 590 283 578 Q 307 563 332 570 Q 384 588 442 598 L 505 610 Z" fill="black" /></g></svg>