<?xml version='1.0' encoding='utf-8'?>
<svg xmlns="http://www.w3.org/2000/svg" version="1.1" viewBox="0 0 1024 1024"><g transform="scale(1, -1) translate(0, -900)"><path d="M 400 396 Q 416 388 425 382 L 480 341 Q 492 330 506 314 L 534 256 Q 536 249 537 241 Q 548 180 529 104 Q 514 46 498 37 Q 485 29 404 39 Q 381 45 378 39 Q 374 31 390 18 Q 459 -25 486 -57 Q 500 -74 515 -69 Q 533 -63 547 -43 Q 582 4 592 98 Q 604 198 578 270 L 553 321 Q 507 383 425 416 C 397 428 374 410 400 396 Z" fill="black" /></g></svg>