<?xml version='1.0' encoding='utf-8'?>
<svg xmlns="http://www.w3.org/2000/svg" version="1.1" viewBox="0 0 1024 1024"><g transform="scale(1, -1) translate(0, -900)"><path d="M 711 249 Q 711 253 716 259 Q 755 347 791 492 Q 800 525 817 550 Q 825 559 827 566 Q 831 591 766 601 Q 739 606 711 586 Q 619 541 511 518 Q 496 515 492 508 L 492 506 Q 491 500 509 494 Q 525 488 543 489 Q 578 490 637 517 Q 682 537 696 537 Q 726 537 723 505 Q 704 366 668 294 L 645 247 Q 582 145 472 95 Q 459 86 472 80 Q 476 74 519 76 Q 604 88 682 198 L 711 249 Z" fill="black" /></g></svg>