<?xml version='1.0' encoding='utf-8'?>
<svg xmlns="http://www.w3.org/2000/svg" version="1.1" viewBox="0 0 1024 1024"><g transform="scale(1, -1) translate(0, -900)"><path d="M 548 358 Q 508 439 415 470 Q 408 473 401 474 C 372 483 355 473 381 458 Q 384 455 390 452 Q 409 443 426 432 L 471 397 Q 492 376 496 363 L 517 300 Q 526 222 506 135 Q 494 87 479 78 Q 470 74 385 89 Q 367 98 364 88 Q 363 81 375 68 Q 439 19 465 -15 Q 478 -34 495 -30 Q 549 0 570 139 Q 580 238 568 294 L 548 358 Z" fill="black" /></g></svg>