<?xml version='1.0' encoding='utf-8'?>
<svg xmlns="http://www.w3.org/2000/svg" version="1.1" viewBox="0 0 1024 1024"><g transform="scale(1, -1) translate(0, -900)"><path d="M 547 343 Q 616 352 661 354 Q 701 355 704 367 Q 705 380 676 399 Q 657 411 549 389 L 501 379 Q 453 372 398 364 Q 383 363 382 366 Q 381 369 387 381 Q 412 429 453 514 L 476 562 Q 495 611 518 628 Q 537 641 527 653 Q 479 704 453 703 Q 443 703 448 682 Q 454 649 419 552 L 401 505 Q 362 409 318 375 Q 297 360 310 314 Q 314 298 331 304 Q 394 325 501 337 L 547 343 Z" fill="black" /></g></svg>