<?xml version='1.0' encoding='utf-8'?>
<svg xmlns="http://www.w3.org/2000/svg" version="1.1" viewBox="0 0 1024 1024"><g transform="scale(1, -1) translate(0, -900)"><path d="M 450 471 Q 481 538 505 610 L 513 639 Q 535 718 560 758 Q 569 768 561 780 Q 516 841 472 838 Q 450 834 462 812 Q 484 775 478 742 Q 465 681 451 629 L 442 598 Q 351 355 234 255 Q 183 209 84 152 Q 69 146 66 142 Q 62 136 78 134 Q 91 131 147 155 Q 187 171 255 219 Q 294 247 328 285 L 354 316 Q 394 368 434 442 L 450 471 Z" fill="black" /></g></svg>