<?xml version='1.0' encoding='utf-8'?>
<svg xmlns="http://www.w3.org/2000/svg" version="1.1" viewBox="0 0 1024 1024"><g transform="scale(1, -1) translate(0, -900)"><path d="M 649 339 Q 649 336 651 332 Q 655 316 668 316 Q 681 317 689 331 Q 699 341 720 390 Q 736 439 773 467 Q 792 482 777 497 Q 761 513 713 541 Q 700 550 625 533 Q 580 530 518 516 L 488 512 Q 446 506 410 497 Q 335 481 281 474 C 251 470 277 430 305 441 Q 332 456 442 473 L 485 481 Q 656 514 682 500 Q 689 496 684 471 Q 665 392 655 368 L 649 339 Z" fill="black" /></g></svg>