<?xml version='1.0' encoding='utf-8'?>
<svg xmlns="http://www.w3.org/2000/svg" version="1.1" viewBox="0 0 1024 1024"><g transform="scale(1, -1) translate(0, -900)"><path d="M 515 227 Q 603 248 619 233 Q 629 226 629 197 Q 629 169 630 134 Q 631 109 623 98 Q 617 88 596 93 Q 580 96 562 99 Q 549 103 543 97 Q 539 93 553 83 Q 599 46 626 16 Q 636 6 651 11 Q 661 14 669 35 Q 685 69 684 110 Q 680 201 690 231 Q 697 246 690 254 Q 671 267 639 279 Q 623 286 608 280 Q 575 265 516 254 L 464 244 Q 418 238 360 232 C 330 229 335 196 365 200 Q 369 200 375 201 Q 424 211 465 218 L 515 227 Z" fill="black" /></g></svg>