<?xml version='1.0' encoding='utf-8'?>
<svg xmlns="http://www.w3.org/2000/svg" version="1.1" viewBox="0 0 1024 1024"><g transform="scale(1, -1) translate(0, -900)"><path d="M 531 470 Q 559 533 590 587 Q 603 608 598 615 Q 594 630 549 655 C 523 670 492 674 504 647 Q 516 635 515 596 Q 509 533 456 391 Q 440 343 398 294 Q 380 276 383 263 Q 390 244 408 227 Q 421 217 433 226 Q 478 254 630 292 Q 646 296 661 300 C 690 308 698 331 668 326 Q 568 310 486 296 Q 447 290 465 317 Q 490 383 518 442 L 531 470 Z" fill="black" /></g></svg>