<?xml version='1.0' encoding='utf-8'?>
<svg xmlns="http://www.w3.org/2000/svg" version="1.1" viewBox="0 0 1024 1024"><g transform="scale(1, -1) translate(0, -900)"><path d="M 970 109 Q 952 158 943 244 Q 942 260 934 266 Q 925 272 921 250 Q 902 147 886 128 Q 859 98 751 100 Q 693 103 667 113 Q 645 125 641 140 Q 628 174 628 265 Q 635 365 654 411 Q 667 442 647 460 Q 625 476 610 486 C 585 503 553 505 567 479 Q 589 457 586 383 Q 580 371 583 217 Q 583 97 648 69 Q 712 45 840 44 Q 919 45 950 60 Q 983 76 970 109 Z" fill="black" /></g></svg>