<?xml version='1.0' encoding='utf-8'?>
<svg xmlns="http://www.w3.org/2000/svg" version="1.1" viewBox="0 0 1024 1024"><g transform="scale(1, -1) translate(0, -900)"><path d="M 518 488 Q 530 470 540 416 L 544 388 Q 548 348 552 302 L 554 264 Q 558 120 531 73 Q 528 67 522 65 Q 510 61 416 80 Q 409 80 406 77 Q 405 73 413 65 Q 479 11 513 -29 Q 523 -42 532 -40 Q 542 -39 563 -20 Q 609 25 610 152 Q 609 198 605 269 Q 604 270 604 271 L 602 313 Q 598 374 595 396 L 591 424 Q 588 482 577 489 Q 568 495 561 498 C 535 513 505 515 518 488 Z" fill="black" /></g></svg>