<?xml version='1.0' encoding='utf-8'?>
<svg xmlns="http://www.w3.org/2000/svg" version="1.1" viewBox="0 0 1024 1024"><g transform="scale(1, -1) translate(0, -900)"><path d="M 661 348 Q 820 364 825 367 Q 828 370 829 373 Q 830 389 799 408 Q 775 423 663 398 L 607 388 Q 564 382 517 375 Q 495 372 492 377 L 560 561 L 577 608 Q 613 728 645 757 Q 664 773 651 786 Q 596 834 565 833 Q 555 832 562 809 Q 575 761 526 599 L 510 551 Q 468 428 419 383 Q 392 362 413 311 Q 420 295 438 301 Q 516 334 607 341 L 661 348 Z" fill="black" /></g></svg>