<?xml version='1.0' encoding='utf-8'?>
<svg xmlns="http://www.w3.org/2000/svg" version="1.1" viewBox="0 0 1024 1024"><g transform="scale(1, -1) translate(0, -900)"><path d="M 965 83 Q 950 114 933 204 Q 932 220 925 226 Q 919 230 914 211 Q 886 114 867 83 Q 854 70 818 60 Q 736 42 669 65 Q 642 77 636 93 Q 612 147 645 327 Q 654 360 604 378 C 577 391 571 394 575 374 Q 574 370 578 357 Q 591 317 587 277 Q 574 118 587 74 Q 591 52 612 32 Q 687 -31 859 0 Q 868 3 878 4 Q 918 16 958 41 Q 977 57 965 83 Z" fill="black" /></g></svg>