<?xml version='1.0' encoding='utf-8'?>
<svg xmlns="http://www.w3.org/2000/svg" version="1.1" viewBox="0 0 1024 1024"><g transform="scale(1, -1) translate(0, -900)"><path d="M 754 216 Q 681 207 600 190 Q 593 187 589 190 Q 588 193 592 203 Q 677 342 697 366 Q 707 376 701 387 Q 694 397 649 415 Q 634 421 625 417 Q 615 410 621 392 Q 642 343 553 212 Q 535 194 509 173 Q 497 163 501 152 Q 507 137 531 120 Q 541 111 553 121 Q 589 151 760 192 Q 761 193 766 194 C 795 202 784 220 754 216 Z" fill="black" /></g></svg>