<?xml version='1.0' encoding='utf-8'?>
<svg xmlns="http://www.w3.org/2000/svg" version="1.1" viewBox="0 0 1024 1024"><g transform="scale(1, -1) translate(0, -900)"><path d="M 581 597 Q 582 634 586 668 L 589 712 Q 593 752 608 801 Q 611 811 592 825 Q 559 844 537 848 Q 521 851 514 843 Q 507 836 514 822 Q 539 783 539 758 Q 539 730 540 699 L 540 658 Q 540 624 539 586 L 538 554 Q 537 526 536 493 L 534 462 Q 531 428 530 392 C 529 362 568 369 569 399 Q 570 433 573 468 L 575 499 Q 576 532 579 563 L 581 597 Z" fill="black" /></g></svg>