<?xml version='1.0' encoding='utf-8'?>
<svg xmlns="http://www.w3.org/2000/svg" version="1.1" viewBox="0 0 1024 1024"><g transform="scale(1, -1) translate(0, -900)"><path d="M 710 184 Q 767 76 848 10 Q 914 -39 945 -38 Q 967 -32 958 -3 Q 948 42 934 173 Q 933 198 922 199 Q 901 145 878 89 Q 863 88 836 109 Q 784 158 743 227 L 715 284 Q 679 369 641 541 L 632 591 Q 617 678 625 760 Q 635 802 580 821 Q 544 836 525 827 Q 504 820 515 801 Q 563 761 564 727 Q 576 645 589 574 L 598 529 Q 629 367 687 233 L 710 184 Z" fill="black" /></g></svg>