<?xml version='1.0' encoding='utf-8'?>
<svg xmlns="http://www.w3.org/2000/svg" version="1.1" viewBox="0 0 1024 1024"><g transform="scale(1, -1) translate(0, -900)"><path d="M 615 694 Q 622 728 639 763 Q 645 773 637 782 Q 621 800 587 818 Q 568 830 550 826 Q 531 820 544 802 Q 569 771 565 740 Q 562 710 558 681 L 551 636 Q 545 602 538 569 L 526 528 Q 517 500 507 471 L 491 431 Q 427 314 339 245 Q 318 230 293 212 Q 280 206 278 202 Q 274 195 289 195 Q 299 194 345 216 Q 378 229 429 272 Q 448 288 465 306 L 470 312 Q 518 376 547 441 L 564 480 Q 574 510 583 540 L 594 582 Q 600 612 607 647 L 615 694 Z" fill="black" /></g></svg>