<?xml version='1.0' encoding='utf-8'?>
<svg xmlns="http://www.w3.org/2000/svg" version="1.1" viewBox="0 0 1024 1024"><g transform="scale(1, -1) translate(0, -900)"><path d="M 700 420 Q 718 396 733 390 Q 743 383 756 403 Q 769 428 791 561 Q 798 589 819 614 Q 831 627 819 639 Q 804 654 763 677 Q 744 684 729 678 Q 698 669 656 661 Q 601 651 532 636 Q 483 624 442 616 C 413 610 430 578 459 586 Q 541 611 686 635 Q 717 641 729 630 Q 742 615 740 601 Q 725 457 707 445 C 695 425 695 425 700 420 Z" fill="black" /></g></svg>