<?xml version='1.0' encoding='utf-8'?>
<svg xmlns="http://www.w3.org/2000/svg" version="1.1" viewBox="0 0 1024 1024"><g transform="scale(1, -1) translate(0, -900)"><path d="M 970 80 Q 992 89 984 112 Q 969 164 964 237 Q 961 277 953 284 Q 944 288 941 276 Q 905 152 866 122 Q 844 107 791 102 Q 721 96 682 108 Q 642 118 626 139 Q 610 158 603 191 Q 594 231 608 375 Q 621 522 647 617 Q 657 662 696 694 Q 712 713 694 728 Q 670 747 617 766 Q 595 772 576 760 Q 501 708 395 691 C 366 685 377 647 406 654 Q 427 657 555 696 Q 568 702 576 698 Q 580 694 581 679 Q 547 261 549 216 Q 549 27 798 35 Q 819 38 842 40 Q 906 49 970 80 Z" fill="black" /></g></svg>