<?xml version='1.0' encoding='utf-8'?>
<svg xmlns="http://www.w3.org/2000/svg" version="1.1" viewBox="0 0 1024 1024"><g transform="scale(1, -1) translate(0, -900)"><path d="M 948 16 Q 987 31 971 70 Q 941 131 929 231 Q 926 259 918 264 Q 908 268 906 252 Q 897 108 876 86 Q 866 82 842 84 Q 790 93 767 140 Q 733 189 726 282 Q 719 375 738 476 Q 754 552 795 589 Q 823 614 789 625 Q 773 632 734 643 Q 710 650 661 616 Q 591 585 589 583 C 562 570 568 546 597 554 Q 621 560 672 576 Q 685 580 692 574 Q 702 559 687 400 Q 657 75 836 14 Q 852 10 874 7 Q 911 6 948 16 Z" fill="black" /></g></svg>