<?xml version='1.0' encoding='utf-8'?>
<svg xmlns="http://www.w3.org/2000/svg" version="1.1" viewBox="0 0 1024 1024"><g transform="scale(1, -1) translate(0, -900)"><path d="M 371 271 Q 384 272 398 279 Q 434 289 472 297 Q 490 303 495 295 Q 501 291 497 270 Q 467 105 520 32 Q 574 -22 669 -35 Q 708 -38 757 -36 Q 842 -30 913 7 Q 935 20 924 46 Q 896 110 889 183 Q 885 192 879 192 Q 876 192 869 178 Q 845 73 822 52 Q 759 16 614 36 Q 583 43 565 62 Q 543 81 536 125 Q 524 191 552 245 Q 561 272 578 285 Q 612 310 534 342 Q 509 354 493 344 Q 456 323 362 303 C 333 296 342 263 371 271 Z" fill="black" /></g></svg>