<?xml version='1.0' encoding='utf-8'?>
<svg xmlns="http://www.w3.org/2000/svg" version="1.1" viewBox="0 0 1024 1024"><g transform="scale(1, -1) translate(0, -900)"><path d="M 645 580 Q 646 581 651 582 Q 697 597 742 613 Q 749 613 753 610 Q 753 609 747 553 Q 695 322 737 164 Q 738 161 740 156 Q 795 -16 974 -13 Q 992 -12 995 -3 Q 1004 9 992 39 Q 979 82 974 159 Q 973 172 966 179 Q 959 186 955 167 Q 937 67 920 59 Q 910 55 900 57 Q 869 61 839 95 Q 758 176 767 342 Q 770 534 852 610 Q 865 617 854 629 Q 842 645 807 661 Q 774 674 760 666 Q 705 633 624 610 C 595 601 617 571 645 580 Z" fill="black" /></g></svg>