<?xml version='1.0' encoding='utf-8'?>
<svg xmlns="http://www.w3.org/2000/svg" version="1.1" viewBox="0 0 1024 1024"><g transform="scale(1, -1) translate(0, -900)"><path d="M 357 370 Q 388 389 448 400 Q 575 425 708 428 Q 736 432 749 420 Q 759 410 750 371 Q 731 290 715 269 Q 705 257 680 262 Q 652 269 625 277 Q 610 281 611 275 Q 610 271 619 262 Q 665 213 682 180 Q 689 161 707 169 Q 759 193 771 234 Q 787 283 800 341 Q 809 377 827 406 Q 840 421 829 433 Q 813 452 778 475 Q 759 487 731 476 Q 673 454 621 451 Q 545 447 392 423 Q 367 419 366 440 Q 367 498 369 559 Q 369 617 380 651 C 386 680 386 680 378 686 Q 375 689 373 691 L 360 699 Q 351 706 338 711 Q 320 718 311 709 Q 305 705 313 692 Q 325 668 321 516 Q 321 459 308 410 Q 302 389 318 374 Q 337 356 357 370 Z" fill="black" /></g></svg>