<?xml version='1.0' encoding='utf-8'?>
<svg xmlns="http://www.w3.org/2000/svg" version="1.1" viewBox="0 0 1024 1024"><g transform="scale(1, -1) translate(0, -900)"><path d="M 340 553 Q 364 584 390 625 L 401 644 Q 431 704 462 727 Q 475 734 476 742 Q 476 754 451 769 Q 420 790 407 790 Q 397 790 386 783 Q 316 761 291 756 Q 258 757 256 751 Q 255 748 260 743 Q 273 731 299 726 Q 317 727 349 743 Q 370 750 379 743 Q 385 739 365 688 Q 310 517 110 424 Q 101 420 102 416 Q 103 412 109 412 Q 220 419 327 537 L 340 553 Z" fill="black" /></g></svg>