<?xml version='1.0' encoding='utf-8'?>
<svg xmlns="http://www.w3.org/2000/svg" version="1.1" viewBox="0 0 1024 1024"><g transform="scale(1, -1) translate(0, -900)"><path d="M 827 194 Q 508 173 268 114 Q 237 107 244 142 Q 251 239 257 342 Q 261 370 248 388 Q 229 407 199 423 Q 184 430 172 426 Q 159 420 170 398 Q 213 310 202 219 Q 195 132 161 94 Q 139 73 147 56 Q 160 37 181 24 Q 197 14 209 24 Q 224 40 264 57 Q 436 108 616 135 Q 781 160 816 145 Q 817 146 820 146 C 850 142 857 196 827 194 Z" fill="black" /></g></svg>