<?xml version='1.0' encoding='utf-8'?>
<svg xmlns="http://www.w3.org/2000/svg" version="1.1" viewBox="0 0 1024 1024"><g transform="scale(1, -1) translate(0, -900)"><path d="M 734 90 Q 747 65 754 42 Q 755 29 768 25 Q 778 24 797 45 Q 824 70 828 113 Q 847 207 865 316 Q 869 341 893 368 Q 908 384 894 401 Q 878 414 829 444 Q 808 456 787 446 Q 702 433 659 425 Q 635 422 637 448 Q 643 572 659 683 Q 660 705 687 733 Q 700 748 684 762 Q 663 781 622 799 Q 610 805 597 795 Q 555 773 517 763 Q 468 753 387 744 C 357 740 385 706 414 712 Q 558 743 580 746 Q 590 747 595 740 Q 596 737 591 598 Q 579 444 571 422 Q 555 397 582 377 L 584 375 Q 591 369 610 378 Q 763 423 794 393 Q 807 378 801 342 Q 788 186 769 141 Q 760 113 750 118 Q 747 119 743 121 C 726 108 726 108 734 90 Z" fill="black" /></g></svg>