<?xml version='1.0' encoding='utf-8'?>
<svg xmlns="http://www.w3.org/2000/svg" version="1.1" viewBox="0 0 1024 1024"><g transform="scale(1, -1) translate(0, -900)"><path d="M 807 218 Q 494 205 256 153 Q 225 146 233 182 Q 240 276 248 374 Q 252 402 239 419 Q 220 440 191 455 Q 178 462 165 459 Q 152 453 162 431 Q 202 343 190 256 Q 183 172 149 134 Q 127 115 134 97 Q 147 78 168 64 Q 184 54 196 64 Q 211 80 252 95 Q 427 141 609 166 Q 757 185 800 174 C 830 170 837 219 807 218 Z" fill="black" /></g></svg>