<?xml version='1.0' encoding='utf-8'?>
<svg xmlns="http://www.w3.org/2000/svg" version="1.1" viewBox="0 0 1024 1024"><g transform="scale(1, -1) translate(0, -900)"><path d="M 753 149 Q 632 142 526 126 L 491 121 Q 388 108 300 86 Q 273 79 279 111 Q 282 168 286 226 Q 289 251 277 266 Q 259 284 234 296 Q 221 302 210 299 Q 200 293 209 274 Q 239 214 232 153 Q 228 95 206 67 Q 187 49 194 34 Q 206 18 224 6 Q 239 -1 249 7 Q 295 55 586 99 Q 703 117 741 108 C 771 105 783 151 753 149 Z" fill="black" /></g></svg>