<?xml version='1.0' encoding='utf-8'?>
<svg xmlns="http://www.w3.org/2000/svg" version="1.1" viewBox="0 0 1024 1024"><g transform="scale(1, -1) translate(0, -900)"><path d="M 484 621 Q 599 646 707 656 Q 732 657 737 645 Q 746 623 739 568 Q 715 366 671 259 Q 649 192 625 172 Q 612 160 586 169 Q 552 179 521 192 Q 496 201 513 177 Q 559 122 582 81 Q 592 59 614 64 Q 638 67 668 99 Q 755 187 792 517 Q 799 590 829 634 Q 848 659 838 671 Q 820 693 779 711 Q 751 727 719 713 Q 622 677 474 655 Q 347 637 273 640 Q 248 644 248 630 Q 247 618 272 600 Q 303 576 335 586 Q 389 601 442 611 L 484 621 Z" fill="black" /></g></svg>