<?xml version='1.0' encoding='utf-8'?>
<svg xmlns="http://www.w3.org/2000/svg" version="1.1" viewBox="0 0 1024 1024"><g transform="scale(1, -1) translate(0, -900)"><path d="M 238 602 Q 464 671 489 651 Q 502 644 506 585 Q 519 386 508 161 Q 508 127 495 118 Q 480 108 408 126 Q 392 127 394 119 Q 395 112 407 107 Q 471 64 506 29 Q 525 10 538 13 Q 550 16 560 43 Q 575 86 573 149 Q 549 590 569 631 Q 579 652 570 662 Q 560 677 515 698 Q 496 707 434 687 Q 334 660 225 639 C 196 633 209 593 238 602 Z" fill="black" /></g></svg>