<?xml version='1.0' encoding='utf-8'?>
<svg xmlns="http://www.w3.org/2000/svg" version="1.1" viewBox="0 0 1024 1024"><g transform="scale(1, -1) translate(0, -900)"><path d="M 294 483 Q 330 464 381 487 Q 411 508 429 495 Q 438 489 417 424 Q 363 205 124 64 Q 105 55 106 48 Q 107 44 115 44 Q 226 51 350 192 Q 369 216 391 244 Q 439 314 486 428 Q 502 458 530 478 Q 546 487 546 497 Q 545 510 513 528 Q 474 550 459 551 Q 447 550 435 541 Q 371 513 320 506 Q 314 507 310 506 C 280 503 265 492 294 483 Z" fill="black" /></g></svg>