<?xml version='1.0' encoding='utf-8'?>
<svg xmlns="http://www.w3.org/2000/svg" version="1.1" viewBox="0 0 1024 1024"><g transform="scale(1, -1) translate(0, -900)"><path d="M 260 691 Q 260 692 262 692 Q 311 702 360 714 Q 379 720 385 709 Q 407 648 387 235 Q 378 157 374 150 Q 370 144 351 149 Q 326 156 299 165 Q 280 174 280 164 Q 332 110 361 72 Q 374 53 389 47 Q 398 43 407 52 Q 449 100 450 154 Q 443 329 448 613 Q 447 671 461 696 Q 474 715 462 726 Q 440 745 404 760 Q 386 767 370 760 Q 333 741 310 733 Q 286 726 245 720 C 215 715 231 684 260 691 Z" fill="black" /></g></svg>