<?xml version='1.0' encoding='utf-8'?>
<svg xmlns="http://www.w3.org/2000/svg" version="1.1" viewBox="0 0 1024 1024"><g transform="scale(1, -1) translate(0, -900)"><path d="M 254 380 Q 260 380 268 382 Q 302 398 388 424 Q 395 425 401 422 Q 413 418 412 399 Q 412 356 395 277 Q 394 258 374 260 Q 335 275 305 286 Q 292 290 295 282 Q 296 273 317 253 Q 357 219 382 180 Q 389 171 400 175 Q 407 178 421 199 Q 439 226 453 310 Q 465 400 476 411 Q 486 421 481 431 Q 474 443 439 465 Q 424 475 372 458 Q 369 458 239 421 C 210 413 225 374 254 380 Z" fill="black" /></g></svg>