<?xml version='1.0' encoding='utf-8'?>
<svg xmlns="http://www.w3.org/2000/svg" version="1.1" viewBox="0 0 1024 1024"><g transform="scale(1, -1) translate(0, -900)"><path d="M 601 460 Q 617 463 636 464 Q 652 465 653 473 Q 654 486 637 495 Q 618 505 600 504 L 559 496 Q 519 490 485 482 L 441 472 Q 401 466 367 458 L 327 450 Q 285 444 259 439 L 216 434 Q 152 427 102 422 Q 89 421 86 413 Q 83 403 97 391 Q 131 364 189 378 Q 198 381 209 383 L 253 395 Q 290 405 325 414 L 366 423 Q 384 430 439 436 L 482 443 Q 518 450 560 455 L 601 460 Z" fill="black" /></g></svg>