<?xml version='1.0' encoding='utf-8'?>
<svg xmlns="http://www.w3.org/2000/svg" version="1.1" viewBox="0 0 1024 1024"><g transform="scale(1, -1) translate(0, -900)"><path d="M 367 458 Q 367 665 382 690 Q 392 706 382 714 Q 366 729 337 741 Q 321 750 280 726 Q 277 726 253 718 C 224 709 243 688 272 696 Q 287 700 302 705 Q 317 709 321 701 Q 327 685 329 658 Q 329 544 327 450 L 325 414 Q 316 239 311 230 Q 308 226 297 229 Q 281 236 263 244 Q 250 253 248 245 Q 279 199 294 167 Q 303 151 314 146 Q 321 142 328 149 Q 364 186 368 226 Q 365 311 366 423 L 367 458 Z" fill="black" /></g></svg>