<?xml version='1.0' encoding='utf-8'?>
<svg xmlns="http://www.w3.org/2000/svg" version="1.1" viewBox="0 0 1024 1024"><g transform="scale(1, -1) translate(0, -900)"><path d="M 528 163 Q 509 167 489 171 Q 473 177 473 168 Q 516 128 540 98 Q 552 82 565 78 Q 572 74 580 83 Q 610 120 612 186 Q 605 301 601 460 L 600 504 Q 596 676 608 701 Q 618 717 608 726 Q 589 742 558 754 Q 542 760 529 753 Q 510 740 496 734 Q 486 730 467 723 C 439 712 461 687 489 699 Q 505 706 523 713 Q 539 719 544 711 Q 551 692 554 662 Q 557 574 559 496 L 560 455 Q 561 187 548 164 Q 544 160 528 163 Z" fill="black" /></g></svg>