<?xml version='1.0' encoding='utf-8'?>
<svg xmlns="http://www.w3.org/2000/svg" version="1.1" viewBox="0 0 1024 1024"><g transform="scale(1, -1) translate(0, -900)"><path d="M 223 554 Q 265 541 270 541 Q 276 547 374 573 Q 473 598 481 589 Q 490 576 486 543 Q 480 449 460 406 Q 447 379 423 382 Q 405 386 390 392 Q 368 401 383 378 Q 416 339 431 311 Q 449 292 464 309 Q 512 346 529 442 Q 544 571 558 593 Q 568 605 563 614 Q 554 624 507 642 Q 489 649 472 636 Q 453 623 376 603 Q 303 582 240 573 C 210 568 194 563 223 554 Z" fill="black" /></g></svg>