<?xml version='1.0' encoding='utf-8'?>
<svg xmlns="http://www.w3.org/2000/svg" version="1.1" viewBox="0 0 1024 1024"><g transform="scale(1, -1) translate(0, -900)"><path d="M 397 520 Q 436 569 476 639 Q 492 666 519 683 Q 534 690 534 699 Q 534 712 506 729 Q 472 753 458 753 Q 446 752 435 744 Q 309 705 234 699 Q 197 699 195 691 Q 194 687 200 682 Q 246 645 396 696 Q 417 702 425 696 Q 431 692 411 644 Q 339 461 115 369 Q 105 365 106 360 Q 107 356 114 355 Q 234 351 363 481 Q 370 490 379 499 L 397 520 Z" fill="black" /></g></svg>