<?xml version='1.0' encoding='utf-8'?>
<svg xmlns="http://www.w3.org/2000/svg" version="1.1" viewBox="0 0 1024 1024"><g transform="scale(1, -1) translate(0, -900)"><path d="M 373 341 Q 367 185 348 110 Q 336 98 339 60 Q 339 47 358 5 Q 364 -11 371 -15 Q 377 -21 384 -14 Q 391 -10 401 10 Q 411 34 410 63 Q 409 100 414 348 L 415 379 Q 415 422 417 469 L 418 511 Q 418 559 420 606 L 422 653 Q 426 710 440 753 Q 449 766 446 780 Q 439 789 387 821 Q 365 837 346 823 Q 342 819 347 804 Q 380 755 380 705 Q 380 674 380 640 L 380 597 Q 380 519 379 502 L 377 461 Q 376 418 374 371 L 373 341 Z" fill="black" /></g></svg>