<?xml version='1.0' encoding='utf-8'?>
<svg xmlns="http://www.w3.org/2000/svg" version="1.1" viewBox="0 0 1024 1024"><g transform="scale(1, -1) translate(0, -900)"><path d="M 434 274 Q 510 292 570 297 Q 589 298 593 292 Q 603 279 596 241 Q 584 138 559 94 Q 540 60 509 66 Q 487 70 468 77 Q 443 86 460 60 Q 500 18 517 -14 Q 536 -36 554 -19 Q 618 21 651 184 Q 657 257 683 290 Q 696 303 691 315 Q 681 327 628 352 Q 607 362 587 349 Q 563 336 477 319 Q 389 300 315 298 Q 314 298 313 297 C 283 295 280 294 295 283 Q 299 277 316 268 Q 340 252 361 258 Q 377 262 396 266 L 434 274 Z" fill="black" /></g></svg>