<?xml version='1.0' encoding='utf-8'?>
<svg xmlns="http://www.w3.org/2000/svg" version="1.1" viewBox="0 0 1024 1024"><g transform="scale(1, -1) translate(0, -900)"><path d="M 431 394 Q 462 400 495 403 Q 520 407 524 391 Q 527 265 512 248 Q 506 245 465 249 Q 452 253 449 249 Q 446 245 455 236 Q 495 202 520 178 Q 533 166 544 178 Q 572 212 570 255 Q 567 351 577 396 Q 581 412 572 421 Q 548 443 532 452 Q 522 456 513 449 Q 507 443 432 424 L 388 416 Q 354 412 295 401 C 265 396 271 363 300 369 Q 379 385 388 386 L 431 394 Z" fill="black" /></g></svg>