<?xml version='1.0' encoding='utf-8'?>
<svg xmlns="http://www.w3.org/2000/svg" version="1.1" viewBox="0 0 1024 1024"><g transform="scale(1, -1) translate(0, -900)"><path d="M 275 321 Q 314 330 373 341 L 414 348 Q 448 355 484 358 Q 512 359 514 341 Q 523 220 510 204 Q 503 198 455 203 Q 439 206 437 201 Q 434 197 445 187 Q 493 153 521 125 Q 536 113 548 127 Q 570 158 572 221 Q 566 296 574 348 Q 578 367 568 377 Q 541 399 524 409 Q 511 415 503 406 Q 497 399 415 379 L 374 371 Q 334 367 269 355 C 239 350 246 314 275 321 Z" fill="black" /></g></svg>