<?xml version='1.0' encoding='utf-8'?>
<svg xmlns="http://www.w3.org/2000/svg" version="1.1" viewBox="0 0 1024 1024"><g transform="scale(1, -1) translate(0, -900)"><path d="M 327 121 Q 296 128 265 138 Q 255 142 255 135 Q 255 128 264 121 Q 328 61 349 25 Q 361 9 376 22 Q 409 52 409 139 Q 406 200 409 390 Q 408 393 408 394 L 411 434 Q 412 450 419 463 Q 428 479 412 492 Q 390 511 363 521 Q 347 527 339 520 Q 333 514 343 500 Q 361 467 362 424 L 362 387 Q 363 135 345 122 Q 338 118 327 121 Z" fill="black" /></g></svg>