<?xml version='1.0' encoding='utf-8'?>
<svg xmlns="http://www.w3.org/2000/svg" version="1.1" viewBox="0 0 1024 1024"><g transform="scale(1, -1) translate(0, -900)"><path d="M 255 177 Q 292 208 372 230 Q 403 240 423 235 Q 444 231 447 198 Q 440 131 405 78 Q 389 54 376 49 Q 360 43 287 65 Q 271 72 270 66 Q 270 60 281 49 Q 321 10 346 -25 Q 356 -37 366 -36 Q 381 -37 398 -25 Q 464 32 496 176 Q 497 204 509 221 Q 519 233 510 244 Q 494 259 458 273 Q 440 280 370 259 Q 343 252 313 245 Q 306 244 309 252 Q 340 297 353 306 Q 366 316 358 332 Q 351 341 337 348 C 313 366 300 366 296 336 Q 299 309 264 262 Q 254 250 229 236 Q 213 221 214 206 Q 215 193 230 178 Q 242 166 255 177 Z" fill="black" /></g></svg>