<?xml version='1.0' encoding='utf-8'?>
<svg xmlns="http://www.w3.org/2000/svg" version="1.1" viewBox="0 0 1024 1024"><g transform="scale(1, -1) translate(0, -900)"><path d="M 334 565 Q 437 602 491 599 C 521 599 527 635 497 632 Q 440 626 393 615 L 355 607 Q 306 597 265 584 Q 249 580 253 599 Q 265 671 256 683 Q 243 699 223 711 Q 213 715 204 715 Q 194 711 201 694 Q 217 657 210 619 Q 206 583 191 568 Q 175 553 181 541 Q 191 528 206 518 Q 218 511 226 519 Q 247 540 306 556 L 334 565 Z" fill="black" /></g></svg>