<?xml version='1.0' encoding='utf-8'?>
<svg xmlns="http://www.w3.org/2000/svg" version="1.1" viewBox="0 0 1024 1024"><g transform="scale(1, -1) translate(0, -900)"><path d="M 327 310 Q 320 153 307 110 Q 298 74 330 27 Q 340 9 347 6 Q 357 5 363 17 Q 375 47 371 75 Q 367 238 368 376 L 369 407 Q 369 452 370 486 L 372 522 Q 373 550 378 567 Q 379 579 373 584 Q 352 603 336 611 C 311 627 300 633 311 606 Q 310 603 315 596 Q 322 584 330 511 L 331 479 Q 331 443 330 400 L 327 310 Z" fill="black" /></g></svg>