<?xml version='1.0' encoding='utf-8'?>
<svg xmlns="http://www.w3.org/2000/svg" version="1.1" viewBox="0 0 1024 1024"><g transform="scale(1, -1) translate(0, -900)"><path d="M 326 290 Q 326 209 301 117 Q 289 77 315 14 Q 322 -4 330 -7 Q 336 -14 344 -5 Q 351 -1 362 20 Q 372 45 371 77 Q 370 123 377 499 L 377 528 Q 378 571 379 630 L 384 682 Q 388 724 398 756 Q 408 771 404 785 Q 397 795 342 829 Q 318 847 297 831 Q 293 825 298 810 Q 331 761 331 713 Q 331 691 332 667 L 333 620 Q 333 536 332 520 L 332 491 Q 331 443 328 392 L 326 290 Z" fill="black" /></g></svg>