<?xml version='1.0' encoding='utf-8'?>
<svg xmlns="http://www.w3.org/2000/svg" version="1.1" viewBox="0 0 1024 1024"><g transform="scale(1, -1) translate(0, -900)"><path d="M 368 376 Q 476 400 504 395 Q 516 395 522 385 Q 531 370 507 275 Q 506 265 493 264 Q 465 271 431 281 Q 406 288 424 266 Q 476 220 487 196 Q 494 183 506 186 Q 518 186 532 198 Q 550 220 561 262 Q 570 338 597 368 Q 612 387 600 398 Q 576 419 543 436 Q 531 442 463 425 Q 433 422 369 407 L 330 400 Q 269 390 232 377 Q 208 373 196 372 Q 190 373 191 385 Q 201 434 211 453 C 222 481 222 482 218 486 Q 205 502 182 516 Q 172 523 163 516 Q 156 512 162 496 Q 171 474 162 441 Q 144 387 128 367 Q 118 354 126 339 Q 133 317 146 309 Q 155 305 175 319 Q 215 355 310 366 L 368 376 Z" fill="black" /></g></svg>