<?xml version='1.0' encoding='utf-8'?>
<svg xmlns="http://www.w3.org/2000/svg" version="1.1" viewBox="0 0 1024 1024"><g transform="scale(1, -1) translate(0, -900)"><path d="M 377 499 Q 422 509 468 513 Q 493 516 495 499 Q 498 405 484 393 Q 472 384 423 388 Q 407 389 405 385 Q 402 379 414 371 Q 465 338 495 313 Q 508 301 520 314 Q 547 345 547 417 Q 547 472 555 502 Q 559 521 550 530 Q 525 554 508 564 Q 495 570 487 562 Q 480 552 377 528 L 332 520 Q 283 513 192 498 C 162 493 193 455 221 466 Q 227 473 332 491 L 377 499 Z" fill="black" /></g></svg>