<?xml version='1.0' encoding='utf-8'?>
<svg xmlns="http://www.w3.org/2000/svg" version="1.1" viewBox="0 0 1024 1024"><g transform="scale(1, -1) translate(0, -900)"><path d="M 616 496 Q 629 502 620 517 Q 605 535 586 544 Q 574 550 551 539 Q 488 511 477 542 Q 461 566 471 638 Q 472 683 514 729 Q 532 745 514 759 Q 489 778 463 790 Q 453 794 435 784 Q 372 756 317 742 C 288 734 310 696 338 707 Q 341 708 345 710 Q 420 740 426 738 Q 433 735 433 720 Q 420 558 430 528 Q 436 506 454 494 Q 482 478 536 479 Q 588 480 616 496 Z" fill="black" /></g></svg>