<?xml version='1.0' encoding='utf-8'?>
<svg xmlns="http://www.w3.org/2000/svg" version="1.1" viewBox="0 0 1024 1024"><g transform="scale(1, -1) translate(0, -900)"><path d="M 377 336 Q 377 335 379 330 Q 389 296 387 261 Q 380 144 390 112 Q 397 75 431 44 Q 545 -43 791 -13 Q 819 -7 851 0 Q 915 19 976 61 Q 995 79 980 105 Q 965 132 942 214 Q 941 230 933 234 Q 926 237 924 219 Q 905 129 888 101 Q 864 71 794 54 Q 721 36 633 41 Q 557 45 499 70 Q 447 97 433 129 Q 414 168 438 305 Q 444 327 417 341 C 395 362 370 365 377 336 Z" fill="black" /></g></svg>