<?xml version='1.0' encoding='utf-8'?>
<svg xmlns="http://www.w3.org/2000/svg" version="1.1" viewBox="0 0 1024 1024"><g transform="scale(1, -1) translate(0, -900)"><path d="M 273 488 Q 303 492 403 515 Q 422 519 428 509 Q 437 479 445 284 Q 448 115 435 94 Q 434 93 363 96 Q 344 100 345 91 Q 400 54 432 23 Q 445 5 461 2 Q 470 -2 477 8 Q 513 62 510 109 Q 476 451 502 499 Q 512 518 501 527 Q 480 545 446 559 Q 428 566 413 559 Q 389 547 372 539 L 334 526 Q 306 522 265 516 C 235 512 243 483 273 488 Z" fill="black" /></g></svg>