<?xml version='1.0' encoding='utf-8'?>
<svg xmlns="http://www.w3.org/2000/svg" version="1.1" viewBox="0 0 1024 1024"><g transform="scale(1, -1) translate(0, -900)"><path d="M 427 318 Q 428 315 431 311 Q 444 281 454 282 Q 469 283 485 316 Q 501 343 499 363 Q 486 463 489 619 Q 489 664 514 702 Q 524 718 516 728 Q 488 750 441 769 Q 425 773 403 765 Q 351 737 238 711 C 209 704 222 668 249 681 Q 258 691 393 726 Q 414 732 422 722 Q 440 698 438 620 Q 438 398 425 356 Q 424 356 424 355 C 419 334 419 334 427 318 Z" fill="black" /></g></svg>