<?xml version='1.0' encoding='utf-8'?>
<svg xmlns="http://www.w3.org/2000/svg" version="1.1" viewBox="0 0 1024 1024"><g transform="scale(1, -1) translate(0, -900)"><path d="M 406 375 Q 439 379 472 381 Q 485 381 487 374 Q 491 364 489 332 Q 479 218 456 159 Q 444 122 432 110 Q 420 97 395 105 Q 365 112 338 121 Q 317 127 332 107 Q 372 64 395 29 Q 402 10 422 15 Q 437 16 456 36 Q 511 88 541 293 Q 548 339 567 365 Q 583 383 575 392 Q 562 408 532 424 Q 511 437 487 428 Q 370 386 252 389 C 222 389 211 387 236 370 Q 239 369 244 364 Q 251 358 261 355 L 291 356 Q 327 365 363 369 L 406 375 Z" fill="black" /></g></svg>