<?xml version='1.0' encoding='utf-8'?>
<svg xmlns="http://www.w3.org/2000/svg" version="1.1" viewBox="0 0 1024 1024"><g transform="scale(1, -1) translate(0, -900)"><path d="M 438 462 Q 414 486 398 487 Q 386 490 380 485 Q 371 478 382 466 Q 401 432 401 402 Q 410 195 382 157 Q 370 136 379 115 Q 389 85 406 74 Q 416 67 428 85 Q 459 125 565 225 Q 581 238 582 246 Q 583 259 564 248 Q 461 185 449 189 Q 442 193 442 212 Q 441 387 449 432 Q 449 435 449 437 C 450 451 450 451 438 462 Z" fill="black" /></g></svg>