<?xml version='1.0' encoding='utf-8'?>
<svg xmlns="http://www.w3.org/2000/svg" version="1.1" viewBox="0 0 1024 1024"><g transform="scale(1, -1) translate(0, -900)"><path d="M 368 739 Q 375 755 386 765 Q 398 775 392 791 Q 382 813 365 825 Q 346 841 334 834 Q 324 830 330 815 Q 342 781 288 669 Q 269 639 245 628 Q 229 619 229 600 Q 232 581 242 569 Q 246 560 262 568 Q 296 584 438 615 Q 439 616 443 615 C 473 619 481 636 451 634 Q 393 631 329 625 Q 307 621 317 642 Q 342 687 360 722 L 368 739 Z" fill="black" /></g></svg>