<?xml version='1.0' encoding='utf-8'?>
<svg xmlns="http://www.w3.org/2000/svg" version="1.1" viewBox="0 0 1024 1024"><g transform="scale(1, -1) translate(0, -900)"><path d="M 428 519 Q 450 549 489 609 Q 532 676 576 716 Q 594 726 582 740 Q 569 752 531 772 Q 515 778 500 768 Q 491 764 417 746 Q 395 742 368 739 C 338 735 335 735 360 722 Q 369 715 388 711 Q 398 710 465 720 Q 474 721 476 718 Q 482 714 476 699 Q 463 665 451 634 L 443 615 Q 421 563 405 529 Q 401 520 398 513 C 386 485 410 495 428 519 Z" fill="black" /></g></svg>