<?xml version='1.0' encoding='utf-8'?>
<svg xmlns="http://www.w3.org/2000/svg" version="1.1" viewBox="0 0 1024 1024"><g transform="scale(1, -1) translate(0, -900)"><path d="M 252 398 Q 271 480 279 560 L 283 595 Q 286 626 290 655 Q 291 685 300 701 C 305 716 305 716 286 730 Q 273 742 252 751 Q 233 761 220 757 Q 208 750 215 736 Q 236 706 232 647 Q 214 431 182 322 Q 178 309 173 295 Q 134 187 47 54 Q 41 48 40 42 Q 37 32 48 33 Q 75 39 155 154 Q 174 187 194 227 Q 227 300 249 386 L 252 398 Z" fill="black" /></g></svg>