<?xml version='1.0' encoding='utf-8'?>
<svg xmlns="http://www.w3.org/2000/svg" version="1.1" viewBox="0 0 1024 1024"><g transform="scale(1, -1) translate(0, -900)"><path d="M 403 309 Q 403 552 408 593 L 413 630 Q 414 643 419 654 Q 426 667 424 679 Q 418 688 372 715 C 346 731 316 728 331 702 Q 359 660 361 617 L 362 584 Q 365 470 363 372 L 362 277 Q 362 168 342 92 Q 333 56 355 3 Q 361 -12 368 -15 Q 374 -21 380 -14 Q 387 -10 396 9 Q 403 31 403 58 Q 402 89 402 284 L 403 309 Z" fill="black" /></g></svg>