<?xml version='1.0' encoding='utf-8'?>
<svg xmlns="http://www.w3.org/2000/svg" version="1.1" viewBox="0 0 1024 1024"><g transform="scale(1, -1) translate(0, -900)"><path d="M 404 348 Q 405 379 408 408 L 410 448 Q 413 502 413 510 L 417 551 Q 418 569 422 579 Q 429 597 418 607 Q 405 619 380 631 Q 361 638 340 630 Q 330 623 342 609 Q 363 572 363 535 L 366 499 Q 367 471 367 437 L 367 400 Q 367 369 366 341 L 365 302 Q 365 277 373 259 Q 377 249 386 254 Q 396 263 402 309 L 404 348 Z" fill="black" /></g></svg>