<?xml version='1.0' encoding='utf-8'?>
<svg xmlns="http://www.w3.org/2000/svg" version="1.1" viewBox="0 0 1024 1024"><g transform="scale(1, -1) translate(0, -900)"><path d="M 177 362 Q 184 362 194 367 Q 273 389 469 412 Q 485 413 497 404 Q 513 397 515 371 Q 518 308 501 193 Q 501 172 481 173 Q 459 174 441 176 Q 428 177 431 170 Q 432 161 457 145 Q 484 121 500 95 Q 510 85 523 91 Q 530 95 544 127 Q 562 163 563 255 Q 559 385 571 404 Q 580 414 573 425 Q 563 435 526 451 Q 514 457 469 444 L 420 437 Q 419 438 416 437 Q 382 433 353 426 L 319 421 Q 292 417 269 412 Q 263 411 260 410 L 222 404 Q 189 401 166 397 C 136 393 148 354 177 362 Z" fill="black" /></g></svg>