<?xml version='1.0' encoding='utf-8'?>
<svg xmlns="http://www.w3.org/2000/svg" version="1.1" viewBox="0 0 1024 1024"><g transform="scale(1, -1) translate(0, -900)"><path d="M 352 766 Q 337 721 309 693 Q 302 686 301 678 Q 300 669 319 654 Q 344 636 380 600 Q 392 585 401 588 Q 413 589 417 604 Q 421 623 415 636 Q 406 654 341 669 Q 331 672 331 677 Q 331 686 365 716 Q 390 738 400 743 Q 409 746 411 751 Q 415 764 400 785 Q 387 804 372 809 Q 357 813 352 808 Q 349 805 352 797 Q 359 785 352 766 Z" fill="black" /></g></svg>