<?xml version='1.0' encoding='utf-8'?>
<svg xmlns="http://www.w3.org/2000/svg" version="1.1" viewBox="0 0 1024 1024"><g transform="scale(1, -1) translate(0, -900)"><path d="M 348 211 Q 342 103 334 78 Q 325 42 357 -5 Q 367 -23 375 -26 Q 387 -27 391 -15 Q 401 15 399 43 Q 395 158 394 260 L 394 296 Q 394 326 395 357 L 395 389 Q 395 423 397 447 L 400 482 Q 400 510 397 513 Q 384 525 372 531 C 347 547 325 552 338 525 Q 351 504 352 468 L 353 438 Q 353 413 353 380 L 353 350 Q 353 322 353 289 L 348 211 Z" fill="black" /></g></svg>