<?xml version='1.0' encoding='utf-8'?>
<svg xmlns="http://www.w3.org/2000/svg" version="1.1" viewBox="0 0 1024 1024"><g transform="scale(1, -1) translate(0, -900)"><path d="M 514 494 Q 514 491 516 487 Q 520 472 531 473 Q 549 476 579 532 Q 595 578 629 605 Q 647 618 633 633 Q 617 649 573 675 Q 561 684 484 667 Q 474 667 467 664 L 420 657 Q 383 653 350 644 L 306 635 Q 252 626 216 620 C 186 615 199 593 229 591 Q 242 588 254 591 Q 276 598 311 606 L 350 614 Q 380 621 418 626 L 462 633 Q 522 649 544 637 Q 551 633 546 611 Q 536 572 516 511 L 514 494 Z" fill="black" /></g></svg>