<?xml version='1.0' encoding='utf-8'?>
<svg xmlns="http://www.w3.org/2000/svg" version="1.1" viewBox="0 0 1024 1024"><g transform="scale(1, -1) translate(0, -900)"><path d="M 491 734 Q 531 747 565 755 Q 575 756 578 753 Q 585 744 582 719 Q 578 649 563 617 Q 550 593 530 596 Q 509 602 491 609 Q 472 615 486 597 Q 520 563 537 537 Q 550 522 563 535 Q 611 571 627 705 Q 631 739 643 756 Q 652 766 647 774 Q 640 781 600 797 Q 584 803 570 792 Q 524 762 413 746 Q 400 745 398 738 Q 397 732 416 724 Q 435 714 449 720 Q 456 724 467 726 L 491 734 Z" fill="black" /></g></svg>