<?xml version='1.0' encoding='utf-8'?>
<svg xmlns="http://www.w3.org/2000/svg" version="1.1" viewBox="0 0 1024 1024"><g transform="scale(1, -1) translate(0, -900)"><path d="M 495 283 Q 583 302 655 309 Q 682 310 687 303 Q 697 285 687 244 Q 668 129 635 79 Q 616 46 587 53 Q 562 60 539 69 Q 514 76 532 53 Q 574 10 593 -23 Q 612 -47 633 -29 Q 666 -8 690 31 Q 718 77 744 223 Q 753 274 772 299 Q 787 312 780 323 Q 771 335 718 361 Q 706 368 695 364 L 681 362 Q 611 329 424 306 Q 370 300 323 299 Q 304 299 301 290 Q 300 281 324 268 Q 349 250 371 257 Q 411 267 451 275 L 495 283 Z" fill="black" /></g></svg>