<?xml version='1.0' encoding='utf-8'?>
<svg xmlns="http://www.w3.org/2000/svg" version="1.1" viewBox="0 0 1024 1024"><g transform="scale(1, -1) translate(0, -900)"><path d="M 370 542 Q 370 491 388 478 Q 430 451 516 472 Q 516 473 519 473 Q 538 480 558 493 Q 568 503 560 518 Q 551 531 538 572 Q 537 582 532 585 Q 528 588 526 576 Q 510 530 500 515 Q 494 509 480 505 Q 441 495 420 502 Q 410 505 407 511 Q 401 523 402 550 L 405 592 Q 406 599 408 607 Q 412 620 403 626 Q 394 635 378 641 Q 369 644 364 640 Q 360 637 363 625 Q 370 603 371 580 L 370 542 Z" fill="black" /></g></svg>