<?xml version='1.0' encoding='utf-8'?>
<svg xmlns="http://www.w3.org/2000/svg" version="1.1" viewBox="0 0 1024 1024"><g transform="scale(1, -1) translate(0, -900)"><path d="M 440 113 Q 465 147 491 192 Q 504 219 524 234 Q 543 247 531 261 Q 519 273 491 286 Q 469 293 444 283 Q 413 270 373 258 Q 331 246 263 237 Q 250 236 245 229 Q 241 222 259 215 Q 295 202 343 217 Q 413 242 426 241 Q 442 241 440 223 Q 424 171 396 133 L 365 98 Q 296 46 181 18 Q 168 17 178 7 Q 182 3 223 5 Q 323 14 403 74 L 440 113 Z" fill="black" /></g></svg>