<?xml version='1.0' encoding='utf-8'?>
<svg xmlns="http://www.w3.org/2000/svg" version="1.1" viewBox="0 0 1024 1024"><g transform="scale(1, -1) translate(0, -900)"><path d="M 461 296 Q 476 274 489 267 Q 498 260 510 277 Q 522 295 547 393 Q 554 418 573 439 Q 583 449 575 460 Q 562 473 527 496 Q 512 502 452 488 Q 446 488 239 448 C 210 442 227 409 255 420 Q 261 426 345 442 L 378 448 Q 414 455 459 462 Q 487 466 496 457 Q 506 447 504 435 Q 486 345 475 321 C 465 293 458 300 461 296 Z" fill="black" /></g></svg>