<?xml version='1.0' encoding='utf-8'?>
<svg xmlns="http://www.w3.org/2000/svg" version="1.1" viewBox="0 0 1024 1024"><g transform="scale(1, -1) translate(0, -900)"><path d="M 663 516 Q 721 529 780 538 Q 798 539 802 531 Q 809 515 805 470 Q 792 305 758 219 Q 742 165 723 148 Q 711 138 688 145 Q 652 158 619 172 Q 597 179 612 158 Q 658 106 683 65 Q 693 43 715 49 Q 734 50 759 78 Q 829 150 857 426 Q 863 487 886 524 Q 902 545 894 555 Q 878 574 842 589 Q 817 602 790 590 Q 739 569 672 551 L 615 539 Q 521 521 467 521 Q 448 522 447 512 Q 446 502 468 488 Q 495 470 520 479 Q 560 492 605 502 L 663 516 Z" fill="black" /></g></svg>