<?xml version='1.0' encoding='utf-8'?>
<svg xmlns="http://www.w3.org/2000/svg" version="1.1" viewBox="0 0 1024 1024"><g transform="scale(1, -1) translate(0, -900)"><path d="M 321 297 Q 355 307 388 311 Q 407 314 411 308 Q 421 290 411 246 Q 390 122 356 69 Q 341 44 320 49 Q 301 58 286 66 Q 265 78 276 53 Q 307 8 320 -24 Q 339 -46 360 -28 Q 391 -6 415 34 Q 442 82 462 229 Q 469 281 488 306 Q 501 319 495 329 Q 486 339 436 362 Q 417 371 397 358 Q 382 349 337 336 L 272 319 Q 202 303 142 298 Q 124 297 121 288 Q 120 279 144 268 Q 169 252 189 260 Q 225 272 262 281 L 321 297 Z" fill="black" /></g></svg>