<?xml version='1.0' encoding='utf-8'?>
<svg xmlns="http://www.w3.org/2000/svg" version="1.1" viewBox="0 0 1024 1024"><g transform="scale(1, -1) translate(0, -900)"><path d="M 595 482 Q 538 251 387 111 Q 327 65 270 16 Q 255 4 270 2 Q 288 2 329 21 Q 414 67 478 134 Q 550 203 583 278 Q 596 312 611 344 Q 641 416 654 495 L 659 535 Q 659 589 682 697 Q 688 730 700 759 Q 710 781 690 791 Q 668 807 649 813 Q 621 828 598 818 Q 582 812 591 794 Q 615 754 614 707 Q 615 673 613 635 Q 613 583 603 523 L 595 482 Z" fill="black" /></g></svg>