<?xml version='1.0' encoding='utf-8'?>
<svg xmlns="http://www.w3.org/2000/svg" version="1.1" viewBox="0 0 1024 1024"><g transform="scale(1, -1) translate(0, -900)"><path d="M 303 466 Q 304 466 305 465 Q 320 461 366 460 Q 390 459 400 447 Q 418 425 376 280 Q 355 214 328 200 Q 313 197 273 218 Q 239 236 234 230 Q 228 221 244 210 Q 286 171 298 132 Q 302 116 314 110 Q 326 106 358 126 Q 392 153 416 222 Q 428 267 441 331 Q 453 409 475 430 Q 485 437 485 445 Q 486 454 461 475 Q 428 500 375 493 Q 339 493 318 496 C 288 499 274 472 303 466 Z" fill="black" /></g></svg>