<?xml version='1.0' encoding='utf-8'?>
<svg xmlns="http://www.w3.org/2000/svg" version="1.1" viewBox="0 0 1024 1024"><g transform="scale(1, -1) translate(0, -900)"><path d="M 564 279 Q 622 292 680 300 Q 696 301 701 293 Q 705 283 705 255 Q 699 156 681 104 Q 671 71 661 60 Q 648 47 619 55 Q 585 64 553 73 Q 528 80 546 57 Q 592 6 618 -32 Q 628 -54 650 -48 Q 663 -47 683 -29 Q 735 17 768 214 Q 775 257 793 282 Q 811 304 802 315 Q 786 334 749 352 Q 722 365 694 354 Q 646 335 582 317 L 510 301 Q 420 285 371 285 Q 352 286 351 276 Q 350 266 372 252 Q 399 234 424 243 Q 458 253 495 262 L 564 279 Z" fill="black" /></g></svg>