<?xml version='1.0' encoding='utf-8'?>
<svg xmlns="http://www.w3.org/2000/svg" version="1.1" viewBox="0 0 1024 1024"><g transform="scale(1, -1) translate(0, -900)"><path d="M 698 332 Q 744 345 784 352 Q 803 355 808 349 Q 821 327 809 274 Q 784 123 745 59 Q 732 35 710 39 Q 686 54 667 69 Q 645 84 655 55 Q 692 -3 707 -44 Q 731 -69 754 -48 Q 791 -21 816 27 Q 846 84 865 257 Q 872 318 893 348 Q 906 361 900 372 Q 890 384 837 406 Q 816 415 797 401 Q 776 389 707 369 L 647 354 Q 583 341 529 334 Q 511 333 509 323 Q 508 316 532 304 Q 557 289 577 297 Q 608 307 639 316 L 698 332 Z" fill="black" /></g></svg>