<?xml version='1.0' encoding='utf-8'?>
<svg xmlns="http://www.w3.org/2000/svg" version="1.1" viewBox="0 0 1024 1024"><g transform="scale(1, -1) translate(0, -900)"><path d="M 392 461 Q 411 449 434 431 Q 449 421 457 421 Q 464 422 468 432 Q 472 442 463 467 Q 453 497 423 502 L 379 518 Q 351 528 308 542 Q 295 546 293 559 Q 309 590 324 624 L 341 662 Q 380 767 399 785 Q 411 801 407 813 Q 397 829 361 856 Q 346 868 331 863 Q 321 859 327 844 Q 346 808 297 656 L 282 614 Q 281 613 281 609 Q 271 582 256 563 Q 249 542 267 527 Q 315 511 354 484 L 392 461 Z" fill="black" /></g></svg>