<?xml version='1.0' encoding='utf-8'?>
<svg xmlns="http://www.w3.org/2000/svg" version="1.1" viewBox="0 0 1024 1024"><g transform="scale(1, -1) translate(0, -900)"><path d="M 688 471 Q 740 487 794 495 Q 809 496 812 489 Q 819 474 816 432 Q 804 281 775 200 Q 760 151 743 134 Q 731 121 705 129 Q 666 141 632 153 Q 608 160 625 138 Q 674 86 702 46 Q 712 24 735 30 Q 754 33 777 58 Q 844 127 872 389 Q 878 447 900 481 Q 916 503 908 513 Q 892 532 856 547 Q 831 560 804 547 Q 758 525 696 507 L 634 492 Q 564 477 522 475 Q 503 476 503 466 Q 502 456 524 444 Q 551 428 574 437 Q 598 446 625 453 L 688 471 Z" fill="black" /></g></svg>