<?xml version='1.0' encoding='utf-8'?>
<svg xmlns="http://www.w3.org/2000/svg" version="1.1" viewBox="0 0 1024 1024"><g transform="scale(1, -1) translate(0, -900)"><path d="M 632 502 Q 556 486 514 485 Q 495 486 494 475 Q 493 465 516 452 Q 544 436 568 444 Q 593 453 622 460 L 684 477 Q 727 487 771 495 Q 784 496 788 490 Q 795 474 791 430 Q 778 271 746 187 Q 730 135 712 118 Q 699 105 671 112 Q 638 121 608 129 Q 584 136 601 114 Q 647 66 672 29 Q 682 8 703 14 Q 722 17 747 43 Q 816 118 846 385 Q 853 446 876 481 Q 892 503 883 514 Q 867 533 831 548 Q 806 561 778 548 Q 741 532 693 517 L 632 502 Z" fill="black" /></g></svg>