<?xml version='1.0' encoding='utf-8'?>
<svg xmlns="http://www.w3.org/2000/svg" version="1.1" viewBox="0 0 1024 1024"><g transform="scale(1, -1) translate(0, -900)"><path d="M 429 236 Q 344 212 255 187 Q 248 184 247 186 Q 246 189 251 196 Q 335 314 368 344 Q 383 360 373 369 Q 363 381 331 386 C 302 392 284 396 286 377 Q 285 373 287 363 Q 299 297 197 195 Q 128 152 132 133 Q 133 121 144 105 Q 157 86 171 81 Q 180 78 190 86 Q 253 140 423 212 Q 432 216 440 218 C 468 228 458 244 429 236 Z" fill="black" /></g></svg>