<?xml version='1.0' encoding='utf-8'?>
<svg xmlns="http://www.w3.org/2000/svg" version="1.1" viewBox="0 0 1024 1024"><g transform="scale(1, -1) translate(0, -900)"><path d="M 679 550 Q 736 617 769 675 Q 784 699 806 714 Q 819 721 820 729 Q 820 741 794 755 Q 764 774 751 775 Q 741 775 731 768 Q 638 734 566 727 Q 533 726 532 718 Q 531 715 537 711 Q 576 681 698 724 Q 716 730 723 724 Q 727 720 711 678 Q 690 627 644 576 L 619 551 Q 567 506 498 476 Q 489 472 490 468 Q 491 464 497 464 Q 560 461 646 521 L 679 550 Z" fill="black" /></g></svg>