<?xml version='1.0' encoding='utf-8'?>
<svg xmlns="http://www.w3.org/2000/svg" version="1.1" viewBox="0 0 1024 1024"><g transform="scale(1, -1) translate(0, -900)"><path d="M 639 502 Q 552 486 503 486 Q 482 489 482 477 Q 481 467 504 452 Q 532 433 558 442 Q 592 452 629 462 L 691 476 Q 746 489 800 497 Q 816 498 820 490 Q 827 474 823 429 Q 807 269 775 184 Q 759 130 740 114 Q 727 101 700 109 Q 669 116 640 125 Q 616 132 633 110 Q 678 62 701 25 Q 711 4 731 10 Q 750 13 775 39 Q 844 109 877 384 Q 884 445 908 481 Q 926 503 916 514 Q 900 533 862 550 Q 835 563 808 550 Q 762 532 700 516 L 639 502 Z" fill="black" /></g></svg>