<?xml version='1.0' encoding='utf-8'?>
<svg xmlns="http://www.w3.org/2000/svg" version="1.1" viewBox="0 0 1024 1024"><g transform="scale(1, -1) translate(0, -900)"><path d="M 625 453 Q 580 273 489 145 Q 462 102 433 61 Q 427 54 425 48 Q 421 35 433 37 Q 469 43 562 170 Q 581 201 601 235 Q 646 323 688 471 L 696 507 Q 714 654 734 713 Q 734 719 737 724 Q 747 740 741 755 Q 723 774 689 792 Q 668 805 654 800 Q 641 793 647 777 Q 665 752 661 681 Q 658 663 657 641 Q 648 563 634 492 L 625 453 Z" fill="black" /></g></svg>