<?xml version='1.0' encoding='utf-8'?>
<svg xmlns="http://www.w3.org/2000/svg" version="1.1" viewBox="0 0 1024 1024"><g transform="scale(1, -1) translate(0, -900)"><path d="M 399 390 Q 415 380 454 375 Q 478 372 487 359 Q 500 332 453 208 Q 428 153 404 142 Q 391 142 352 163 Q 319 182 314 178 Q 308 171 323 157 Q 360 120 369 76 Q 373 60 383 53 Q 395 47 428 65 Q 462 89 495 161 Q 543 318 560 335 Q 570 341 572 349 Q 573 358 551 381 Q 523 408 471 407 Q 429 413 408 417 C 378 422 372 402 399 390 Z" fill="black" /></g></svg>