<?xml version='1.0' encoding='utf-8'?>
<svg xmlns="http://www.w3.org/2000/svg" version="1.1" viewBox="0 0 1024 1024"><g transform="scale(1, -1) translate(0, -900)"><path d="M 509 278 Q 573 294 628 300 Q 653 303 658 295 Q 668 279 658 237 Q 636 122 604 74 Q 585 44 557 51 Q 524 64 495 80 Q 471 90 487 64 Q 538 12 560 -27 Q 579 -51 600 -33 Q 633 -14 657 26 Q 687 71 714 215 Q 724 266 744 290 Q 757 303 752 314 Q 742 327 689 352 Q 668 362 647 349 Q 619 334 521 313 L 457 300 Q 381 287 314 283 Q 295 283 292 273 Q 291 266 316 252 Q 341 236 363 242 Q 406 255 447 264 L 509 278 Z" fill="black" /></g></svg>