<?xml version='1.0' encoding='utf-8'?>
<svg xmlns="http://www.w3.org/2000/svg" version="1.1" viewBox="0 0 1024 1024"><g transform="scale(1, -1) translate(0, -900)"><path d="M 720 449 Q 769 464 821 472 Q 836 473 839 467 Q 846 451 841 407 Q 825 250 792 166 Q 774 114 756 98 Q 746 88 724 97 Q 685 116 652 134 Q 630 144 643 121 Q 689 60 713 15 Q 722 -10 746 -6 Q 765 -5 790 22 Q 862 92 895 361 Q 902 422 927 456 Q 943 478 935 489 Q 919 508 883 523 Q 858 536 830 524 Q 787 505 729 488 L 668 472 Q 599 459 558 457 Q 539 458 538 447 Q 537 437 560 424 Q 588 408 612 417 Q 633 424 658 431 L 720 449 Z" fill="black" /></g></svg>