<?xml version='1.0' encoding='utf-8'?>
<svg xmlns="http://www.w3.org/2000/svg" version="1.1" viewBox="0 0 1024 1024"><g transform="scale(1, -1) translate(0, -900)"><path d="M 713 497 Q 750 509 803 525 Q 822 532 832 523 Q 844 510 838 477 Q 828 303 805 230 Q 790 172 770 153 Q 754 138 732 153 Q 716 160 696 171 Q 680 181 679 173 Q 678 163 692 144 Q 720 98 735 64 Q 741 42 755 39 Q 774 39 802 65 Q 836 102 855 167 Q 876 242 896 436 Q 902 484 921 511 Q 937 527 932 542 Q 925 558 849 585 Q 825 594 807 578 Q 759 554 720 538 L 662 521 Q 608 511 538 503 Q 520 503 517 498 Q 513 491 527 481 Q 552 463 655 482 L 713 497 Z" fill="black" /></g></svg>