<?xml version='1.0' encoding='utf-8'?>
<svg xmlns="http://www.w3.org/2000/svg" version="1.1" viewBox="0 0 1024 1024"><g transform="scale(1, -1) translate(0, -900)"><path d="M 655 497 Q 576 482 530 481 Q 511 482 511 472 Q 510 462 532 448 Q 559 430 584 440 Q 615 450 646 457 L 707 471 Q 750 481 795 487 Q 808 488 813 481 Q 820 465 817 423 Q 807 270 778 189 Q 763 138 747 123 Q 735 111 711 119 Q 680 129 652 140 Q 630 147 644 125 Q 687 74 710 35 Q 719 13 740 18 Q 759 21 782 47 Q 851 116 873 380 Q 879 440 901 474 Q 917 496 908 507 Q 892 526 855 541 Q 830 554 802 541 Q 765 525 715 510 L 655 497 Z" fill="black" /></g></svg>