<?xml version='1.0' encoding='utf-8'?>
<svg xmlns="http://www.w3.org/2000/svg" version="1.1" viewBox="0 0 1024 1024"><g transform="scale(1, -1) translate(0, -900)"><path d="M 619 635 Q 674 657 691 647 Q 703 640 694 617 Q 667 476 715 424 L 718 421 Q 740 397 812 365 Q 852 344 878 347 Q 900 347 905 357 Q 912 367 907 414 Q 903 442 903 529 Q 903 544 893 550 Q 889 554 884 542 Q 859 460 844 441 Q 837 423 802 429 Q 777 436 750 461 Q 728 482 724 509 Q 715 566 758 613 Q 765 623 778 633 Q 803 657 750 691 Q 723 710 705 698 Q 686 685 627 665 L 574 651 Q 528 642 486 637 Q 470 638 464 631 Q 461 627 468 619 Q 483 604 567 621 L 619 635 Z" fill="black" /></g></svg>