<?xml version='1.0' encoding='utf-8'?>
<svg xmlns="http://www.w3.org/2000/svg" version="1.1" viewBox="0 0 1024 1024"><g transform="scale(1, -1) translate(0, -900)"><path d="M 571 520 Q 595 566 619 635 L 627 665 Q 646 755 652 767 Q 661 779 656 791 Q 643 807 618 821 Q 602 831 591 828 Q 581 824 585 811 Q 595 783 590 742 Q 589 739 589 736 Q 583 691 574 651 L 567 621 Q 557 587 535 536 L 518 505 Q 485 453 464 422 Q 460 418 457 412 Q 454 403 463 404 Q 487 404 546 481 L 571 520 Z" fill="black" /></g></svg>