<?xml version='1.0' encoding='utf-8'?>
<svg xmlns="http://www.w3.org/2000/svg" version="1.1" viewBox="0 0 1024 1024"><g transform="scale(1, -1) translate(0, -900)"><path d="M 740 490 Q 786 503 833 509 Q 846 510 850 504 Q 857 486 853 440 Q 837 274 804 184 Q 786 129 767 112 Q 757 102 734 110 Q 712 117 691 123 Q 669 132 683 110 Q 717 64 734 29 Q 741 10 759 13 Q 778 14 804 43 Q 876 116 904 396 Q 910 459 934 495 Q 950 517 941 526 Q 925 545 891 559 Q 866 572 840 560 Q 801 544 749 528 L 688 513 Q 621 500 582 499 Q 563 500 563 490 Q 562 481 584 468 Q 609 452 634 461 Q 655 468 679 474 L 740 490 Z" fill="black" /></g></svg>