<?xml version='1.0' encoding='utf-8'?>
<svg xmlns="http://www.w3.org/2000/svg" version="1.1" viewBox="0 0 1024 1024"><g transform="scale(1, -1) translate(0, -900)"><path d="M 281 484 Q 331 498 390 510 Q 402 514 411 512 Q 429 506 433 455 Q 433 453 434 451 Q 443 333 437 204 Q 435 178 427 172 Q 416 165 367 183 Q 350 189 350 179 Q 350 172 363 163 Q 408 112 427 80 Q 445 62 458 63 Q 472 63 484 92 Q 502 134 502 229 Q 488 445 505 482 Q 514 498 509 510 Q 502 527 450 552 Q 444 555 437 557 Q 423 559 379 545 Q 259 510 141 488 C 112 482 120 447 149 453 Q 150 453 233 471 L 281 484 Z" fill="black" /></g></svg>