<?xml version='1.0' encoding='utf-8'?>
<svg xmlns="http://www.w3.org/2000/svg" version="1.1" viewBox="0 0 1024 1024"><g transform="scale(1, -1) translate(0, -900)"><path d="M 490 247 Q 574 263 646 271 Q 680 274 685 263 Q 694 248 684 212 Q 663 109 634 67 Q 610 33 579 42 Q 552 52 529 64 Q 502 74 519 47 Q 562 -4 580 -41 Q 596 -66 618 -50 Q 687 -16 735 148 Q 753 227 779 253 Q 795 266 788 280 Q 778 295 720 326 Q 696 338 673 324 Q 636 305 510 283 L 437 270 Q 328 254 235 252 Q 213 252 210 241 Q 207 231 236 216 Q 266 195 290 203 Q 359 221 423 233 L 490 247 Z" fill="black" /></g></svg>