<?xml version='1.0' encoding='utf-8'?>
<svg xmlns="http://www.w3.org/2000/svg" version="1.1" viewBox="0 0 1024 1024"><g transform="scale(1, -1) translate(0, -900)"><path d="M 711 472 Q 748 479 785 484 Q 795 485 798 479 Q 804 467 799 434 Q 786 316 760 253 Q 747 213 733 202 Q 721 192 699 200 Q 678 206 658 211 Q 637 220 651 198 Q 682 155 698 122 Q 704 104 721 107 Q 737 108 757 128 Q 815 180 850 393 Q 857 441 878 468 Q 894 487 886 496 Q 873 512 842 528 Q 820 541 796 531 Q 762 518 719 506 L 667 496 Q 612 487 579 487 Q 563 488 563 480 Q 562 473 580 460 Q 602 445 622 452 Q 638 456 658 461 L 711 472 Z" fill="black" /></g></svg>