<?xml version='1.0' encoding='utf-8'?>
<svg xmlns="http://www.w3.org/2000/svg" version="1.1" viewBox="0 0 1024 1024"><g transform="scale(1, -1) translate(0, -900)"><path d="M 966 90 Q 956 123 947 218 Q 947 233 941 238 Q 935 241 930 225 Q 899 126 878 96 Q 853 66 778 50 Q 604 14 469 74 Q 414 102 402 136 Q 381 184 413 340 Q 417 359 397 375 C 381 400 346 398 353 369 L 354 367 Q 364 331 361 298 Q 343 121 378 73 Q 408 31 498 1 Q 708 -62 906 24 Q 931 37 958 53 Q 977 66 966 90 Z" fill="black" /></g></svg>