<?xml version='1.0' encoding='utf-8'?>
<svg xmlns="http://www.w3.org/2000/svg" version="1.1" viewBox="0 0 1024 1024"><g transform="scale(1, -1) translate(0, -900)"><path d="M 513 602 Q 663 632 689 617 Q 701 611 696 576 Q 677 444 665 418 Q 659 399 665 383 Q 671 367 684 369 Q 697 372 705 386 Q 718 407 740 504 Q 755 558 791 589 Q 810 605 793 621 Q 774 637 723 663 Q 708 670 636 654 Q 588 650 554 641 L 523 636 Q 477 629 436 619 Q 373 607 329 599 C 299 594 311 556 340 565 Q 389 581 476 596 L 513 602 Z" fill="black" /></g></svg>