<?xml version='1.0' encoding='utf-8'?>
<svg xmlns="http://www.w3.org/2000/svg" version="1.1" viewBox="0 0 1024 1024"><g transform="scale(1, -1) translate(0, -900)"><path d="M 734 458 Q 777 468 822 472 Q 835 473 839 467 Q 846 449 843 402 Q 830 230 798 139 Q 782 82 762 64 Q 752 54 730 62 Q 708 69 687 75 Q 665 84 679 62 Q 713 16 731 -20 Q 738 -39 756 -35 Q 777 -32 801 -4 Q 873 71 895 358 Q 899 422 923 460 Q 939 481 930 490 Q 915 508 882 522 Q 858 535 833 523 Q 794 507 741 493 L 679 480 Q 616 470 579 468 Q 563 469 562 461 Q 561 452 580 440 Q 602 425 625 432 Q 647 439 673 444 L 734 458 Z" fill="black" /></g></svg>