<?xml version='1.0' encoding='utf-8'?>
<svg xmlns="http://www.w3.org/2000/svg" version="1.1" viewBox="0 0 1024 1024"><g transform="scale(1, -1) translate(0, -900)"><path d="M 380 153 Q 380 196 381 237 L 382 279 Q 382 318 384 353 L 385 390 Q 386 421 387 450 L 388 486 Q 388 516 389 544 L 390 572 Q 391 614 392 640 L 394 670 Q 394 677 395 683 Q 402 702 392 713 Q 376 729 361 737 C 336 754 308 752 319 724 Q 338 679 341 659 L 343 630 Q 343 597 343 561 L 342 533 Q 342 508 342 472 L 341 440 Q 340 412 339 377 L 338 344 Q 337 307 336 264 L 335 227 Q 334 187 334 140 C 334 110 380 123 380 153 Z" fill="black" /></g></svg>