<?xml version='1.0' encoding='utf-8'?>
<svg xmlns="http://www.w3.org/2000/svg" version="1.1" viewBox="0 0 1024 1024"><g transform="scale(1, -1) translate(0, -900)"><path d="M 703 475 Q 742 484 782 488 Q 797 489 800 482 Q 807 466 806 424 Q 800 270 774 188 Q 761 137 745 121 Q 735 109 710 115 Q 679 124 651 133 Q 629 140 645 119 Q 688 71 712 35 Q 722 14 742 21 Q 760 24 782 51 Q 846 120 860 384 Q 864 442 884 478 Q 900 499 891 508 Q 875 526 841 540 Q 816 552 791 540 Q 754 525 708 512 L 653 499 Q 569 483 519 482 Q 501 483 501 474 Q 500 465 520 452 Q 545 436 567 444 Q 607 456 647 463 L 703 475 Z" fill="black" /></g></svg>