<?xml version='1.0' encoding='utf-8'?>
<svg xmlns="http://www.w3.org/2000/svg" version="1.1" viewBox="0 0 1024 1024"><g transform="scale(1, -1) translate(0, -900)"><path d="M 442 363 Q 455 341 468 334 Q 478 327 493 345 Q 506 364 541 478 Q 550 506 572 529 Q 584 539 574 553 Q 561 569 521 594 Q 505 603 440 584 Q 418 583 390 572 L 343 561 Q 319 557 296 550 Q 256 540 221 532 C 192 525 210 493 238 503 Q 280 519 342 533 L 389 544 Q 468 566 489 553 Q 499 543 496 526 Q 468 409 453 394 C 438 369 438 369 442 363 Z" fill="black" /></g></svg>