<?xml version='1.0' encoding='utf-8'?>
<svg xmlns="http://www.w3.org/2000/svg" version="1.1" viewBox="0 0 1024 1024"><g transform="scale(1, -1) translate(0, -900)"><path d="M 724 472 Q 767 482 811 489 Q 826 490 830 484 Q 837 466 833 422 Q 817 257 783 171 Q 767 116 747 100 Q 737 90 712 97 Q 682 106 655 116 Q 633 123 648 102 Q 688 53 710 16 Q 719 -3 739 1 Q 758 2 783 30 Q 855 103 883 377 Q 890 440 914 475 Q 930 494 921 505 Q 906 523 874 537 Q 850 550 825 538 Q 785 522 731 504 L 673 491 Q 592 475 546 472 Q 530 473 529 464 Q 528 457 548 444 Q 572 429 593 437 Q 629 449 667 458 L 724 472 Z" fill="black" /></g></svg>