<?xml version='1.0' encoding='utf-8'?>
<svg xmlns="http://www.w3.org/2000/svg" version="1.1" viewBox="0 0 1024 1024"><g transform="scale(1, -1) translate(0, -900)"><path d="M 378 610 Q 368 640 357 648 L 341 661 Q 331 668 315 670 Q 299 674 290 668 Q 280 661 293 652 Q 324 636 337 600 L 337 598 L 346 561 Q 352 504 341 477 Q 332 459 309 463 Q 284 466 262 470 Q 253 471 257 463 Q 261 457 276 448 Q 307 423 319 403 Q 329 390 341 393 Q 351 394 371 417 Q 407 465 389 563 Q 388 566 388 569 L 378 610 Z" fill="black" /></g></svg>