<?xml version='1.0' encoding='utf-8'?>
<svg xmlns="http://www.w3.org/2000/svg" version="1.1" viewBox="0 0 1024 1024"><g transform="scale(1, -1) translate(0, -900)"><path d="M 697 482 Q 737 492 778 496 Q 791 497 795 490 Q 804 474 801 430 Q 794 270 765 183 Q 750 129 733 113 Q 723 101 699 108 Q 668 118 639 128 Q 617 135 632 114 Q 675 65 699 28 Q 709 7 729 13 Q 748 16 771 43 Q 837 118 855 388 Q 859 449 880 485 Q 896 506 887 516 Q 871 534 837 548 Q 812 560 787 548 Q 750 533 703 518 L 648 506 Q 645 506 643 505 Q 567 490 523 490 Q 505 491 505 482 Q 504 472 524 460 Q 549 444 571 452 Q 605 462 642 470 L 697 482 Z" fill="black" /></g></svg>