<?xml version='1.0' encoding='utf-8'?>
<svg xmlns="http://www.w3.org/2000/svg" version="1.1" viewBox="0 0 1024 1024"><g transform="scale(1, -1) translate(0, -900)"><path d="M 220 516 Q 219 517 217 518 Q 208 525 196 529 Q 187 533 177 529 Q 171 525 176 514 Q 177 507 181 501 Q 200 456 190 291 Q 177 213 192 184 Q 196 177 203 169 Q 213 157 222 168 Q 226 175 230 184 L 233 217 Q 234 236 235 292 L 235 318 Q 235 357 235 384 L 236 413 Q 236 452 239 490 C 240 503 240 503 220 516 Z" fill="black" /></g></svg>