<?xml version='1.0' encoding='utf-8'?>
<svg xmlns="http://www.w3.org/2000/svg" version="1.1" viewBox="0 0 1024 1024"><g transform="scale(1, -1) translate(0, -900)"><path d="M 527 224 Q 576 237 621 243 Q 646 246 651 238 Q 660 225 652 188 Q 637 86 611 43 Q 592 12 564 17 Q 545 21 527 28 Q 503 38 519 13 Q 553 -29 569 -59 Q 587 -81 605 -65 Q 662 -29 693 86 Q 718 215 737 235 Q 750 248 743 259 Q 734 271 682 294 Q 661 304 641 291 Q 619 278 548 259 L 462 239 Q 380 223 310 218 Q 292 217 289 208 Q 288 201 312 188 Q 337 172 357 180 Q 403 193 447 205 L 527 224 Z" fill="black" /></g></svg>