<?xml version='1.0' encoding='utf-8'?>
<svg xmlns="http://www.w3.org/2000/svg" version="1.1" viewBox="0 0 1024 1024"><g transform="scale(1, -1) translate(0, -900)"><path d="M 435 211 Q 436 207 440 201 Q 453 173 462 174 Q 475 175 491 207 Q 506 232 504 251 Q 494 329 497 448 Q 497 482 516 512 Q 526 528 518 537 Q 491 559 446 576 Q 431 580 410 572 Q 343 539 220 516 C 191 510 210 481 239 490 Q 320 517 397 535 Q 419 542 428 530 Q 441 512 442 451 Q 443 279 434 245 Q 433 242 432 238 L 435 211 Z" fill="black" /></g></svg>