<?xml version='1.0' encoding='utf-8'?>
<svg xmlns="http://www.w3.org/2000/svg" version="1.1" viewBox="0 0 1024 1024"><g transform="scale(1, -1) translate(0, -900)"><path d="M 591 479 Q 606 451 620 442 Q 630 435 645 452 Q 658 468 690 558 Q 700 586 724 607 Q 737 617 727 631 Q 714 647 676 675 Q 661 684 586 669 Q 577 669 443 649 Q 394 640 352 634 C 322 630 333 595 362 603 Q 361 604 364 604 Q 448 625 597 642 Q 630 646 640 634 Q 647 624 645 612 Q 618 507 602 500 C 588 483 588 483 591 479 Z" fill="black" /></g></svg>