<?xml version='1.0' encoding='utf-8'?>
<svg xmlns="http://www.w3.org/2000/svg" version="1.1" viewBox="0 0 1024 1024"><g transform="scale(1, -1) translate(0, -900)"><path d="M 742 476 Q 785 486 830 492 Q 845 493 848 486 Q 855 467 851 419 Q 835 241 798 147 Q 779 89 760 70 Q 748 60 726 68 Q 701 75 680 83 Q 658 93 671 69 Q 707 20 725 -17 Q 732 -36 751 -34 Q 772 -31 798 -2 Q 874 76 904 372 Q 911 439 936 477 Q 952 498 944 507 Q 929 526 895 541 Q 871 554 845 543 Q 805 525 749 510 L 692 496 Q 613 481 566 480 Q 550 481 549 472 Q 549 465 568 452 Q 592 437 613 445 Q 647 455 686 464 L 742 476 Z" fill="black" /></g></svg>