<?xml version='1.0' encoding='utf-8'?>
<svg xmlns="http://www.w3.org/2000/svg" version="1.1" viewBox="0 0 1024 1024"><g transform="scale(1, -1) translate(0, -900)"><path d="M 494 272 Q 546 282 594 286 Q 619 287 623 280 Q 633 262 624 219 Q 605 98 573 45 Q 552 11 523 18 Q 504 22 489 28 Q 462 38 480 11 Q 514 -35 527 -67 Q 548 -92 569 -73 Q 603 -51 630 -9 Q 660 40 687 196 Q 696 251 717 276 Q 730 289 725 301 Q 715 314 661 340 Q 639 350 619 337 Q 592 324 505 305 L 439 293 Q 357 280 287 278 Q 269 277 266 269 Q 265 260 288 248 Q 312 232 333 238 Q 384 251 431 259 L 494 272 Z" fill="black" /></g></svg>