<?xml version='1.0' encoding='utf-8'?>
<svg xmlns="http://www.w3.org/2000/svg" version="1.1" viewBox="0 0 1024 1024"><g transform="scale(1, -1) translate(0, -900)"><path d="M 696 417 Q 739 426 781 430 Q 794 431 796 425 Q 803 409 801 370 Q 791 223 764 146 Q 751 97 734 82 Q 724 70 699 77 Q 674 83 650 89 Q 629 95 644 75 Q 681 33 702 0 Q 709 -18 728 -13 Q 746 -10 768 14 Q 829 84 852 330 Q 856 385 877 419 Q 892 438 884 447 Q 871 463 838 477 Q 816 489 792 478 Q 755 463 703 450 L 648 438 Q 587 428 551 427 Q 535 428 535 420 Q 534 411 552 400 Q 574 385 594 393 Q 616 400 641 404 L 696 417 Z" fill="black" /></g></svg>