<?xml version='1.0' encoding='utf-8'?>
<svg xmlns="http://www.w3.org/2000/svg" version="1.1" viewBox="0 0 1024 1024"><g transform="scale(1, -1) translate(0, -900)"><path d="M 485 771 Q 469 728 439 689 Q 432 679 435 669 Q 438 659 452 651 Q 480 633 506 611 Q 521 599 532 601 Q 542 604 542 622 Q 541 641 529 653 Q 522 660 489 663 Q 476 664 468 673 Q 464 679 471 690 Q 487 706 515 742 Q 530 761 543 770 Q 556 777 550 791 Q 540 819 521 832 Q 509 839 500 837 Q 490 836 495 821 Q 499 800 485 771 Z" fill="black" /></g></svg>