<?xml version='1.0' encoding='utf-8'?>
<svg xmlns="http://www.w3.org/2000/svg" version="1.1" viewBox="0 0 1024 1024"><g transform="scale(1, -1) translate(0, -900)"><path d="M 456 364 Q 468 345 481 338 Q 490 331 504 349 Q 516 368 543 467 Q 550 495 571 516 Q 581 526 572 539 Q 559 554 522 576 Q 507 583 443 566 Q 422 565 305 533 Q 265 523 230 514 C 201 507 213 475 241 485 Q 280 500 338 514 L 374 523 Q 470 550 491 536 Q 501 529 498 513 Q 474 399 458 391 C 447 376 447 376 456 364 Z" fill="black" /></g></svg>