<?xml version='1.0' encoding='utf-8'?>
<svg xmlns="http://www.w3.org/2000/svg" version="1.1" viewBox="0 0 1024 1024"><g transform="scale(1, -1) translate(0, -900)"><path d="M 233 755 Q 221 706 183 655 Q 176 645 175 637 Q 175 627 197 612 Q 222 596 256 565 Q 271 549 280 553 Q 293 554 297 572 Q 301 594 292 607 Q 288 617 270 625 Q 254 629 219 632 Q 209 633 208 639 Q 208 655 271 719 Q 281 729 289 734 Q 317 746 284 781 Q 268 800 251 805 Q 235 808 229 802 Q 226 798 231 790 Q 238 777 233 755 Z" fill="black" /></g></svg>