<?xml version='1.0' encoding='utf-8'?>
<svg xmlns="http://www.w3.org/2000/svg" version="1.1" viewBox="0 0 1024 1024"><g transform="scale(1, -1) translate(0, -900)"><path d="M 385 220 Q 385 236 386 251 L 387 287 Q 387 318 388 351 L 388 380 Q 389 414 391 438 L 395 478 Q 395 509 375 522 L 374 523 C 353 544 330 543 338 514 Q 344 499 348 465 L 349 429 Q 349 402 348 369 L 347 342 Q 346 312 346 277 L 341 199 Q 332 70 323 46 Q 314 10 346 -37 Q 356 -55 363 -58 Q 373 -59 379 -47 Q 391 -17 388 11 Q 385 110 385 198 L 385 220 Z" fill="black" /></g></svg>