<?xml version='1.0' encoding='utf-8'?>
<svg xmlns="http://www.w3.org/2000/svg" version="1.1" viewBox="0 0 1024 1024"><g transform="scale(1, -1) translate(0, -900)"><path d="M 728 476 Q 768 486 811 491 Q 824 492 828 486 Q 837 468 835 422 Q 828 251 798 160 Q 783 102 765 85 Q 756 76 695 91 Q 673 100 687 78 Q 721 33 738 0 Q 744 -19 762 -15 Q 781 -12 805 18 Q 874 91 887 380 Q 891 444 912 482 Q 928 501 919 510 Q 904 526 873 540 Q 851 552 826 540 Q 786 522 733 507 L 676 492 Q 609 479 570 477 Q 555 478 555 470 Q 554 463 572 453 Q 593 440 612 446 Q 640 456 671 462 L 728 476 Z" fill="black" /></g></svg>