<?xml version='1.0' encoding='utf-8'?>
<svg xmlns="http://www.w3.org/2000/svg" version="1.1" viewBox="0 0 1024 1024"><g transform="scale(1, -1) translate(0, -900)"><path d="M 365 245 Q 365 270 365 292 L 366 325 Q 366 353 367 380 L 367 412 Q 368 488 370 556 L 370 580 Q 371 611 372 640 L 373 673 Q 376 731 373 735 Q 361 747 350 753 C 325 770 297 770 311 743 Q 317 730 324 719 Q 330 698 331 665 L 332 634 Q 332 613 331 573 L 331 549 Q 330 492 329 403 L 328 374 Q 327 346 326 315 L 325 285 Q 325 264 325 239 C 325 209 365 215 365 245 Z" fill="black" /></g></svg>