<?xml version='1.0' encoding='utf-8'?>
<svg xmlns="http://www.w3.org/2000/svg" version="1.1" viewBox="0 0 1024 1024"><g transform="scale(1, -1) translate(0, -900)"><path d="M 489 354 Q 502 330 517 323 Q 526 316 539 333 Q 549 351 577 448 Q 584 473 604 494 Q 614 504 606 515 Q 593 530 559 551 Q 544 558 478 542 Q 475 542 474 541 Q 380 520 313 506 C 284 500 292 467 320 477 Q 332 483 384 493 L 414 500 Q 513 524 528 513 Q 538 506 535 491 Q 513 382 497 373 C 486 359 486 359 489 354 Z" fill="black" /></g></svg>