<?xml version='1.0' encoding='utf-8'?>
<svg xmlns="http://www.w3.org/2000/svg" version="1.1" viewBox="0 0 1024 1024"><g transform="scale(1, -1) translate(0, -900)"><path d="M 448 393 Q 463 371 477 362 Q 486 355 500 373 Q 512 392 539 491 Q 546 518 568 539 Q 578 549 570 561 Q 557 576 521 600 Q 506 606 427 590 Q 421 590 370 580 L 331 573 Q 328 573 195 549 C 165 544 183 516 212 524 Q 260 537 331 549 L 370 556 Q 464 577 487 561 Q 497 554 494 538 Q 475 441 466 427 Q 462 417 451 415 C 438 406 438 406 448 393 Z" fill="black" /></g></svg>