<?xml version='1.0' encoding='utf-8'?>
<svg xmlns="http://www.w3.org/2000/svg" version="1.1" viewBox="0 0 1024 1024"><g transform="scale(1, -1) translate(0, -900)"><path d="M 394 328 Q 410 334 428 337 Q 435 338 438 336 Q 445 324 440 293 Q 430 208 410 171 Q 398 149 379 151 Q 363 154 350 158 Q 334 162 346 147 Q 374 122 386 101 Q 402 86 415 99 Q 464 135 478 283 Q 482 319 494 337 Q 503 347 498 354 Q 491 361 456 375 Q 441 381 428 371 Q 421 367 403 359 L 357 345 Q 333 341 313 336 Q 301 335 300 329 Q 299 323 316 316 Q 332 306 347 312 Q 348 313 352 314 L 394 328 Z" fill="black" /></g></svg>