<?xml version='1.0' encoding='utf-8'?>
<svg xmlns="http://www.w3.org/2000/svg" version="1.1" viewBox="0 0 1024 1024"><g transform="scale(1, -1) translate(0, -900)"><path d="M 327 620 Q 354 629 379 633 Q 394 636 397 631 Q 403 622 399 600 Q 393 536 378 508 Q 363 483 340 487 Q 321 491 303 497 Q 284 503 298 485 Q 332 454 347 430 Q 359 415 372 426 Q 420 459 443 582 Q 450 615 462 629 Q 472 639 467 648 Q 460 657 419 675 Q 403 682 387 671 Q 374 664 337 651 L 285 637 Q 233 624 190 619 Q 175 618 173 611 Q 172 605 192 596 Q 211 584 227 591 Q 251 600 276 606 L 327 620 Z" fill="black" /></g></svg>