<?xml version='1.0' encoding='utf-8'?>
<svg xmlns="http://www.w3.org/2000/svg" version="1.1" viewBox="0 0 1024 1024"><g transform="scale(1, -1) translate(0, -900)"><path d="M 948 85 Q 947 97 930 115 Q 905 143 841 235 Q 837 241 833 241 Q 830 241 831 235 Q 840 190 847 140 Q 851 119 836 110 Q 820 95 737 110 Q 652 129 623 226 Q 607 259 604 261 Q 601 264 599 264 Q 586 273 579 266 Q 575 262 581 247 Q 587 231 600 189 Q 627 93 709 60 Q 712 59 718 56 Q 851 13 938 69 Q 950 75 948 85 Z" fill="black" /></g></svg>