<?xml version='1.0' encoding='utf-8'?>
<svg xmlns="http://www.w3.org/2000/svg" version="1.1" viewBox="0 0 1024 1024"><g transform="scale(1, -1) translate(0, -900)"><path d="M 380 609 Q 420 590 452 598 Q 489 610 665 635 Q 695 639 706 625 Q 725 603 727 548 Q 731 380 718 271 Q 693 97 657 81 Q 654 78 547 95 Q 537 96 534 93 Q 531 86 549 73 Q 598 34 627 -2 Q 649 -33 667 -28 Q 683 -24 705 7 Q 736 47 757 122 Q 779 212 789 506 Q 790 582 811 608 Q 829 629 806 647 Q 734 692 684 680 Q 543 646 393 628 C 363 624 352 619 380 609 Z" fill="black" /></g></svg>