<?xml version='1.0' encoding='utf-8'?>
<svg xmlns="http://www.w3.org/2000/svg" version="1.1" viewBox="0 0 1024 1024"><g transform="scale(1, -1) translate(0, -900)"><path d="M 753 450 Q 801 462 848 467 Q 861 468 865 461 Q 872 445 869 400 Q 859 238 828 153 Q 812 99 795 83 Q 785 76 768 83 Q 743 96 719 109 Q 698 121 709 96 Q 745 41 761 -1 Q 767 -23 788 -22 Q 807 -19 832 8 Q 901 84 925 356 Q 929 417 953 454 Q 969 473 960 483 Q 947 501 914 515 Q 892 528 866 517 Q 821 498 757 480 L 704 467 Q 638 455 598 453 Q 583 454 583 446 Q 583 439 600 428 Q 621 415 640 422 Q 668 431 699 438 L 753 450 Z" fill="black" /></g></svg>