<?xml version='1.0' encoding='utf-8'?>
<svg xmlns="http://www.w3.org/2000/svg" version="1.1" viewBox="0 0 1024 1024"><g transform="scale(1, -1) translate(0, -900)"><path d="M 376 611 Q 421 590 452 598 Q 489 608 660 631 Q 688 635 700 621 Q 721 599 723 545 Q 732 379 722 269 Q 703 98 668 79 Q 658 76 565 113 Q 553 117 549 113 Q 545 106 562 89 Q 611 32 635 -16 Q 657 -47 676 -42 Q 692 -38 715 -6 Q 746 34 767 111 Q 789 202 797 500 Q 798 578 818 604 Q 837 626 812 645 Q 740 693 684 680 Q 543 646 389 628 C 359 624 348 621 376 611 Z" fill="black" /></g></svg>