<?xml version='1.0' encoding='utf-8'?>
<svg xmlns="http://www.w3.org/2000/svg" version="1.1" viewBox="0 0 1024 1024"><g transform="scale(1, -1) translate(0, -900)"><path d="M 320 572 Q 321 571 325 570 Q 374 548 410 558 Q 458 574 681 614 Q 718 620 733 603 Q 752 579 751 526 Q 750 357 731 249 Q 697 78 663 61 Q 657 58 563 85 Q 553 89 550 85 Q 546 78 562 64 Q 607 19 630 -21 Q 649 -52 668 -48 Q 722 -33 764 98 Q 791 188 812 480 Q 816 556 837 582 Q 856 604 832 624 Q 751 676 714 664 Q 521 613 338 592 C 308 588 292 582 320 572 Z" fill="black" /></g></svg>