<?xml version='1.0' encoding='utf-8'?>
<svg xmlns="http://www.w3.org/2000/svg" version="1.1" viewBox="0 0 1024 1024"><g transform="scale(1, -1) translate(0, -900)"><path d="M 618 69 Q 600 63 500 91 Q 490 92 491 88 Q 491 84 502 76 Q 557 33 585 1 Q 600 -20 614 -17 Q 636 -20 659 3 Q 741 66 768 228 Q 789 339 803 508 Q 804 547 830 575 Q 843 588 843 597 Q 842 606 822 620 Q 795 642 758 654 Q 737 663 667 643 Q 642 639 608 630 Q 460 599 343 588 C 313 585 294 569 324 564 Q 327 564 329 563 Q 366 553 409 561 Q 521 576 608 591 Q 726 609 739 593 Q 757 551 728 317 Q 707 185 661 107 Q 642 70 618 69 Z" fill="black" /></g></svg>