<?xml version='1.0' encoding='utf-8'?>
<svg xmlns="http://www.w3.org/2000/svg" version="1.1" viewBox="0 0 1024 1024"><g transform="scale(1, -1) translate(0, -900)"><path d="M 946 94 Q 933 128 920 228 Q 920 244 913 250 Q 907 254 902 236 Q 869 130 848 97 Q 817 63 732 40 Q 536 -11 373 47 Q 310 75 295 112 Q 274 160 283 276 L 287 310 Q 293 362 304 421 Q 304 422 304 423 C 308 444 308 444 294 452 Q 282 464 262 471 Q 249 475 241 471 Q 234 467 239 449 Q 252 410 248 373 Q 230 154 248 93 Q 254 54 292 23 Q 382 -41 603 -40 Q 697 -37 786 -14 Q 862 7 938 53 Q 957 68 946 94 Z" fill="black" /></g></svg>