<?xml version='1.0' encoding='utf-8'?>
<svg xmlns="http://www.w3.org/2000/svg" version="1.1" viewBox="0 0 1024 1024"><g transform="scale(1, -1) translate(0, -900)"><path d="M 346 614 Q 394 605 625 653 Q 742 677 755 659 Q 779 620 776 359 Q 770 173 723 76 Q 705 33 677 22 Q 659 21 570 62 Q 560 66 559 59 Q 558 55 570 44 Q 627 -16 652 -58 Q 665 -85 683 -84 Q 710 -80 735 -50 Q 774 -11 798 50 Q 829 126 836 231 Q 846 364 845 566 Q 844 611 868 644 Q 884 660 882 670 Q 879 680 856 695 Q 823 717 780 729 Q 753 736 696 715 Q 495 667 373 643 C 344 637 316 614 346 614 Z" fill="black" /></g></svg>