<?xml version='1.0' encoding='utf-8'?>
<svg xmlns="http://www.w3.org/2000/svg" version="1.1" viewBox="0 0 1024 1024"><g transform="scale(1, -1) translate(0, -900)"><path d="M 900 123 Q 878 190 867 308 Q 864 327 857 336 Q 848 343 844 326 Q 831 256 816 202 Q 810 165 779 142 Q 730 94 515 96 Q 431 103 401 121 Q 374 137 357 170 Q 339 213 346 360 L 347 381 Q 353 556 369 614 Q 378 636 345 660 Q 318 678 295 690 Q 276 703 257 691 Q 244 684 267 654 Q 294 617 295 567 Q 299 507 296 326 Q 289 158 330 111 Q 330 96 386 69 Q 462 32 669 40 Q 789 44 877 85 Q 913 95 900 123 Z" fill="black" /></g></svg>