<?xml version='1.0' encoding='utf-8'?>
<svg xmlns="http://www.w3.org/2000/svg" version="1.1" viewBox="0 0 1024 1024"><g transform="scale(1, -1) translate(0, -900)"><path d="M 239 181 Q 261 203 311 223 Q 339 232 356 229 Q 375 225 378 195 Q 371 134 339 86 Q 326 67 314 61 Q 299 58 241 77 Q 228 84 227 78 Q 226 72 236 62 Q 266 26 286 -4 Q 293 -16 303 -15 Q 316 -16 333 -6 Q 393 46 422 175 Q 423 200 433 215 Q 443 225 433 236 Q 420 249 388 262 Q 379 266 309 249 Q 300 246 290 241 Q 272 238 280 256 Q 301 299 309 309 Q 319 321 310 333 Q 309 334 307 335 C 296 363 254 353 255 323 Q 261 296 238 257 Q 232 245 212 229 Q 199 216 202 202 Q 205 190 218 179 Q 228 172 239 181 Z" fill="black" /></g></svg>