<?xml version='1.0' encoding='utf-8'?>
<svg xmlns="http://www.w3.org/2000/svg" version="1.1" viewBox="0 0 1024 1024"><g transform="scale(1, -1) translate(0, -900)"><path d="M 334 658 Q 377 636 410 645 Q 459 661 691 693 Q 730 697 745 680 Q 767 655 767 593 Q 768 401 751 278 Q 717 83 678 64 Q 672 61 582 78 Q 572 79 570 77 Q 567 70 583 60 Q 626 24 652 -9 Q 676 -43 696 -36 Q 753 -17 791 130 Q 813 230 816 552 Q 815 636 836 665 Q 854 684 831 702 Q 759 750 727 737 Q 532 692 351 678 C 321 675 306 668 334 658 Z" fill="black" /></g></svg>