<?xml version='1.0' encoding='utf-8'?>
<svg xmlns="http://www.w3.org/2000/svg" version="1.1" viewBox="0 0 1024 1024"><g transform="scale(1, -1) translate(0, -900)"><path d="M 906 249 Q 919 259 907 284 Q 894 324 892 377 Q 893 387 886 395 Q 877 402 872 381 Q 830 290 809 281 Q 808 282 807 281 Q 752 266 705 286 Q 675 301 670 347 Q 666 396 667 449 L 668 477 Q 675 669 699 706 Q 706 725 689 739 Q 664 761 628 770 Q 612 774 603 766 Q 596 757 602 749 Q 623 728 624 672 Q 624 642 623 591 Q 616 383 631 315 Q 646 252 713 231 Q 740 224 775 222 Q 832 218 861 226 Q 892 236 906 249 Z" fill="black" /></g></svg>