<?xml version='1.0' encoding='utf-8'?>
<svg xmlns="http://www.w3.org/2000/svg" version="1.1" viewBox="0 0 1024 1024"><g transform="scale(1, -1) translate(0, -900)"><path d="M 941 98 Q 959 114 939 146 Q 917 201 908 276 Q 907 286 899 296 Q 887 302 885 277 Q 852 150 846 141 Q 839 128 807 122 Q 698 94 614 117 Q 572 129 559 171 Q 549 204 551 355 L 554 413 Q 572 663 596 697 Q 605 721 585 735 Q 555 763 516 773 Q 495 777 487 768 Q 478 758 486 748 Q 501 735 508 711 Q 512 687 505 539 Q 501 448 499 365 L 499 317 Q 502 148 535 108 Q 545 96 566 84 Q 654 38 846 62 Q 856 65 866 67 Q 918 80 941 98 Z" fill="black" /></g></svg>