<?xml version='1.0' encoding='utf-8'?>
<svg xmlns="http://www.w3.org/2000/svg" version="1.1" viewBox="0 0 1024 1024"><g transform="scale(1, -1) translate(0, -900)"><path d="M 293 741 Q 248 765 227 767 Q 214 768 206 761 Q 196 754 211 737 Q 235 707 235 336 Q 220 87 189 60 Q 168 42 181 24 Q 187 8 203 -5 Q 218 -17 238 -3 Q 277 43 586 56 Q 773 60 837 52 Q 862 48 875 54 Q 885 61 886 68 Q 886 83 850 105 Q 816 126 796 125 Q 753 124 416 82 Q 287 60 277 75 Q 271 81 276 198 Q 276 411 294 672 Q 294 684 296 691 C 299 721 300 738 293 741 Z" fill="black" /></g></svg>