<?xml version='1.0' encoding='utf-8'?>
<svg xmlns="http://www.w3.org/2000/svg" version="1.1" viewBox="0 0 1024 1024"><g transform="scale(1, -1) translate(0, -900)"><path d="M 665 481 Q 677 485 693 491 Q 709 497 716 491 Q 720 487 717 472 Q 698 259 764 192 Q 822 134 874 143 Q 887 146 884 162 Q 877 217 889 311 Q 890 324 887 326 Q 883 326 876 315 Q 866 290 852 256 Q 843 231 827 221 Q 821 217 807 226 Q 756 259 754 326 Q 751 369 769 438 Q 776 469 790 485 Q 811 500 808 510 Q 805 523 756 544 Q 740 554 725 540 Q 706 530 669 514 L 623 497 Q 572 484 542 481 Q 523 480 535 469 Q 562 448 611 465 Q 614 466 620 467 L 665 481 Z" fill="black" /></g></svg>