<?xml version='1.0' encoding='utf-8'?>
<svg xmlns="http://www.w3.org/2000/svg" version="1.1" viewBox="0 0 1024 1024"><g transform="scale(1, -1) translate(0, -900)"><path d="M 282 712 Q 242 734 224 735 Q 211 738 202 730 Q 192 723 207 705 Q 235 669 224 302 Q 209 80 177 53 Q 156 35 169 17 Q 175 1 191 -13 Q 206 -26 225 -12 Q 264 36 574 46 Q 761 49 825 40 Q 873 33 874 56 Q 873 71 839 93 Q 805 114 784 113 Q 741 112 404 73 Q 275 52 266 66 Q 257 75 266 207 Q 266 321 288 630 Q 291 667 294 679 Q 295 680 295 682 C 298 704 298 704 282 712 Z" fill="black" /></g></svg>