<?xml version='1.0' encoding='utf-8'?>
<svg xmlns="http://www.w3.org/2000/svg" version="1.1" viewBox="0 0 1024 1024"><g transform="scale(1, -1) translate(0, -900)"><path d="M 529 365 L 549 508 L 553 561 L 568 610 Q 577 626 564 639 Q 545 657 513 669 Q 466 687 454 675 Q 447 670 448 662 Q 449 658 465 635 Q 496 591 495 547 L 494 495 L 470 316 Q 452 274 431 253 Q 399 219 314 178 Q 298 172 298 169 Q 298 167 301 165 Q 323 151 392 169 Q 441 188 485 243 Q 511 296 514 321 L 529 365 Z" fill="black" /></g></svg>