<?xml version='1.0' encoding='utf-8'?>
<svg xmlns="http://www.w3.org/2000/svg" version="1.1" viewBox="0 0 1024 1024"><g transform="scale(1, -1) translate(0, -900)"><path d="M 914 86 Q 913 98 888 119 Q 851 149 819 149 Q 783 148 427 112 Q 294 93 285 108 Q 278 114 283 235 Q 283 278 284 344 Q 290 653 301 692 C 305 718 305 718 286 727 Q 246 750 227 750 Q 214 753 205 744 Q 195 737 210 718 Q 231 692 235 416 Q 237 188 201 104 Q 198 102 190 93 Q 169 74 182 55 Q 188 35 205 24 Q 220 12 242 25 Q 296 91 737 79 Q 806 78 872 69 Q 890 67 902 73 Q 914 79 914 86 Z" fill="black" /></g></svg>