<?xml version='1.0' encoding='utf-8'?>
<svg xmlns="http://www.w3.org/2000/svg" version="1.1" viewBox="0 0 1024 1024"><g transform="scale(1, -1) translate(0, -900)"><path d="M 481 359 Q 506 366 533 368 Q 558 371 550 382 Q 543 392 528 398 Q 515 404 482 390 L 442 381 Q 382 369 381 370 Q 380 371 381 381 Q 403 442 437 516 L 458 563 Q 471 588 479 595 Q 489 605 475 621 Q 453 643 436 654 Q 426 661 417 658 Q 410 655 415 637 Q 419 618 404 545 L 392 504 Q 356 402 324 368 Q 311 355 315 342 Q 322 326 331 317 Q 338 310 347 313 Q 374 328 442 349 L 481 359 Z" fill="black" /></g></svg>