<?xml version='1.0' encoding='utf-8'?>
<svg xmlns="http://www.w3.org/2000/svg" version="1.1" viewBox="0 0 1024 1024"><g transform="scale(1, -1) translate(0, -900)"><path d="M 482 390 Q 485 435 482 438 Q 464 453 450 460 Q 440 463 434 457 Q 430 456 435 447 Q 441 438 442 381 L 442 349 Q 441 313 439 276 L 436 238 Q 435 228 433 217 Q 433 199 430 191 Q 421 163 448 124 Q 457 109 463 106 Q 472 105 475 115 Q 485 140 482 163 Q 481 214 480 260 L 480 292 Q 480 325 481 359 L 482 390 Z" fill="black" /></g></svg>