<?xml version='1.0' encoding='utf-8'?>
<svg xmlns="http://www.w3.org/2000/svg" version="1.1" viewBox="0 0 1024 1024"><g transform="scale(1, -1) translate(0, -900)"><path d="M 820 129 Q 774 128 419 86 Q 292 65 274 78 Q 265 88 275 211 Q 275 376 297 640 Q 298 697 304 717 C 308 747 308 748 301 752 Q 256 777 236 780 Q 223 781 214 774 Q 204 767 218 749 Q 249 710 236 343 Q 221 96 186 65 Q 164 47 177 29 Q 183 13 199 0 Q 214 -12 236 3 Q 323 72 770 62 Q 828 61 861 56 Q 886 52 899 58 Q 909 65 910 72 Q 909 87 874 109 Q 840 130 820 129 Z" fill="black" /></g></svg>