<?xml version='1.0' encoding='utf-8'?>
<svg xmlns="http://www.w3.org/2000/svg" version="1.1" viewBox="0 0 1024 1024"><g transform="scale(1, -1) translate(0, -900)"><path d="M 681 512 Q 697 518 723 524 Q 733 528 739 523 Q 745 516 732 407 Q 702 170 857 133 L 860 132 Q 885 128 910 135 Q 943 142 934 176 Q 919 219 918 288 Q 918 307 913 311 Q 906 317 901 303 Q 865 210 854 201 Q 850 197 836 201 Q 803 210 785 243 Q 745 313 786 461 Q 802 509 829 530 Q 854 551 826 562 Q 811 569 779 579 Q 757 588 737 573 Q 718 561 684 546 L 639 529 Q 606 519 576 516 Q 557 517 567 507 Q 585 492 637 501 L 681 512 Z" fill="black" /></g></svg>