<?xml version='1.0' encoding='utf-8'?>
<svg xmlns="http://www.w3.org/2000/svg" version="1.1" viewBox="0 0 1024 1024"><g transform="scale(1, -1) translate(0, -900)"><path d="M 282 792 Q 236 817 214 820 Q 201 821 192 814 Q 182 807 196 788 Q 223 755 219 409 Q 216 145 177 33 Q 170 21 163 14 Q 141 -5 154 -24 Q 160 -42 177 -55 Q 193 -70 212 -54 Q 251 -6 564 5 Q 633 14 802 4 Q 839 3 863 -2 Q 914 -9 915 15 Q 914 30 878 54 Q 842 75 821 75 Q 775 74 406 34 Q 267 12 256 28 Q 244 40 255 169 Q 255 235 274 564 Q 278 724 287 759 C 291 788 291 788 282 792 Z" fill="black" /></g></svg>