<?xml version='1.0' encoding='utf-8'?>
<svg xmlns="http://www.w3.org/2000/svg" version="1.1" viewBox="0 0 1024 1024"><g transform="scale(1, -1) translate(0, -900)"><path d="M 663 306 Q 663 357 663 429 L 663 451 Q 663 502 663 552 L 663 573 Q 664 616 674 647 Q 681 660 678 671 Q 672 678 627 705 Q 608 718 591 706 Q 587 702 592 689 Q 616 656 616 613 Q 619 304 616 270 Q 612 252 608 232 Q 601 204 621 149 Q 627 136 633 133 Q 639 127 644 134 Q 651 138 659 155 Q 665 173 663 287 L 663 306 Z" fill="black" /></g></svg>