<?xml version='1.0' encoding='utf-8'?>
<svg xmlns="http://www.w3.org/2000/svg" version="1.1" viewBox="0 0 1024 1024"><g transform="scale(1, -1) translate(0, -900)"><path d="M 471 345 Q 483 329 494 323 Q 501 317 512 333 Q 522 349 542 435 Q 546 457 564 478 Q 573 488 564 498 Q 552 510 519 528 Q 506 534 450 516 Q 443 516 432 511 L 398 502 Q 385 501 308 477 C 279 468 297 439 325 450 Q 355 462 398 473 L 432 482 Q 483 497 496 489 Q 505 482 503 469 Q 488 376 475 366 C 466 351 466 351 471 345 Z" fill="black" /></g></svg>