<?xml version='1.0' encoding='utf-8'?>
<svg xmlns="http://www.w3.org/2000/svg" version="1.1" viewBox="0 0 1024 1024"><g transform="scale(1, -1) translate(0, -900)"><path d="M 303 750 Q 300 753 298 754 Q 255 778 237 779 Q 225 780 217 774 Q 207 767 221 750 Q 251 708 237 320 Q 222 62 187 32 Q 168 16 179 -2 Q 185 -18 200 -31 Q 215 -44 232 -30 Q 295 36 742 25 Q 805 24 838 18 Q 884 11 885 33 Q 884 48 851 69 Q 820 88 799 88 Q 756 87 413 50 Q 281 31 272 45 Q 263 54 272 194 Q 272 338 295 637 Q 298 697 303 718 C 307 748 307 748 303 750 Z" fill="black" /></g></svg>