<?xml version='1.0' encoding='utf-8'?>
<svg xmlns="http://www.w3.org/2000/svg" version="1.1" viewBox="0 0 1024 1024"><g transform="scale(1, -1) translate(0, -900)"><path d="M 889 351 Q 870 394 855 471 Q 852 486 845 490 Q 838 494 835 475 Q 826 381 813 363 Q 794 345 717 347 Q 677 350 658 358 Q 643 367 640 377 Q 616 455 642 578 Q 648 609 657 628 Q 673 665 620 696 C 595 713 569 720 580 692 Q 580 691 582 686 Q 601 649 594 597 Q 584 413 594 375 Q 598 350 616 334 Q 652 298 785 295 Q 846 292 871 303 Q 902 319 889 351 Z" fill="black" /></g></svg>