<?xml version='1.0' encoding='utf-8'?>
<svg xmlns="http://www.w3.org/2000/svg" version="1.1" viewBox="0 0 1024 1024"><g transform="scale(1, -1) translate(0, -900)"><path d="M 511 348 Q 526 381 538 401 Q 545 408 543 415 Q 539 425 514 444 C 491 463 481 469 486 439 Q 495 415 470 342 L 456 308 Q 431 265 434 251 Q 437 244 451 241 Q 499 232 523 216 L 560 197 Q 597 178 648 141 Q 670 128 684 129 Q 700 130 699 146 Q 698 162 671 197 Q 658 218 592 234 L 549 246 Q 512 256 485 260 Q 469 263 477 277 Q 487 299 495 316 L 511 348 Z" fill="black" /></g></svg>