<?xml version='1.0' encoding='utf-8'?>
<svg xmlns="http://www.w3.org/2000/svg" version="1.1" viewBox="0 0 1024 1024"><g transform="scale(1, -1) translate(0, -900)"><path d="M 288 761 Q 261 788 220 792 Q 207 793 198 787 Q 188 780 202 762 Q 229 729 215 342 Q 197 86 161 58 Q 139 40 151 21 Q 157 5 172 -9 Q 184 -18 210 -6 Q 291 57 715 36 Q 802 33 843 25 Q 868 19 881 26 Q 893 32 893 39 Q 893 54 859 78 Q 825 100 805 100 Q 759 99 398 71 Q 260 55 251 69 Q 242 78 252 206 Q 252 305 280 642 Q 283 715 289 735 C 292 758 292 758 288 761 Z" fill="black" /></g></svg>