<?xml version='1.0' encoding='utf-8'?>
<svg xmlns="http://www.w3.org/2000/svg" version="1.1" viewBox="0 0 1024 1024"><g transform="scale(1, -1) translate(0, -900)"><path d="M 678 430 Q 772 437 891 426 Q 915 423 921 432 Q 928 445 916 457 Q 886 484 842 503 Q 829 509 802 500 Q 762 487 707 481 Q 692 480 679 477 L 637 472 Q 498 457 395 442 L 351 436 Q 326 435 304 430 Q 213 417 145 416 Q 132 416 130 404 Q 130 392 149 378 Q 165 365 198 354 Q 208 353 226 359 Q 296 386 350 392 L 393 400 Q 481 416 636 428 L 678 430 Z" fill="black" /></g></svg>