<?xml version='1.0' encoding='utf-8'?>
<svg xmlns="http://www.w3.org/2000/svg" version="1.1" viewBox="0 0 1024 1024"><g transform="scale(1, -1) translate(0, -900)"><path d="M 734 450 Q 785 459 939 443 Q 964 439 970 449 Q 977 462 965 475 Q 895 538 824 518 Q 778 509 734 501 L 692 495 Q 592 486 528 476 L 487 471 Q 402 465 345 457 L 294 452 Q 290 452 285 451 Q 209 439 93 438 Q 80 438 78 426 Q 77 413 96 398 Q 114 385 146 373 Q 158 369 176 377 Q 203 386 291 400 L 341 410 Q 405 423 483 430 L 528 434 Q 651 446 692 447 L 734 450 Z" fill="black" /></g></svg>