<?xml version='1.0' encoding='utf-8'?>
<svg xmlns="http://www.w3.org/2000/svg" version="1.1" viewBox="0 0 1024 1024"><g transform="scale(1, -1) translate(0, -900)"><path d="M 786 397 Q 786 398 787 400 Q 791 464 814 503 Q 830 525 821 536 Q 805 555 768 570 Q 741 583 714 569 Q 674 553 622 538 L 566 525 Q 446 506 411 505 Q 392 506 391 496 Q 390 486 412 472 Q 439 454 464 463 Q 512 478 559 488 L 614 499 Q 660 509 706 515 Q 722 516 726 508 Q 735 490 732 444 Q 722 273 692 182 Q 676 124 658 107 Q 646 94 620 101 Q 584 111 552 121 Q 528 128 545 106 Q 594 57 621 17 Q 631 -5 653 2 Q 674 6 698 35 Q 765 107 784 367 L 786 397 Z" fill="black" /></g></svg>