<?xml version='1.0' encoding='utf-8'?>
<svg xmlns="http://www.w3.org/2000/svg" version="1.1" viewBox="0 0 1024 1024"><g transform="scale(1, -1) translate(0, -900)"><path d="M 768 408 Q 846 408 938 397 Q 962 394 968 403 Q 975 416 963 428 Q 935 456 891 476 Q 876 482 850 474 Q 814 464 768 456 L 721 451 Q 658 447 603 439 L 556 434 Q 498 430 449 422 L 407 417 Q 358 413 314 406 L 261 400 Q 161 388 86 388 Q 73 388 71 377 Q 70 364 89 350 Q 129 317 165 329 Q 195 341 256 355 L 309 367 Q 348 374 406 381 L 448 386 Q 496 393 556 397 L 603 401 Q 664 410 720 408 L 768 408 Z" fill="black" /></g></svg>