<?xml version='1.0' encoding='utf-8'?>
<svg xmlns="http://www.w3.org/2000/svg" version="1.1" viewBox="0 0 1024 1024"><g transform="scale(1, -1) translate(0, -900)"><path d="M 884 440 Q 868 480 858 549 Q 857 565 850 570 Q 841 574 837 555 Q 818 473 804 458 Q 780 433 678 428 Q 623 429 598 438 Q 577 448 572 463 Q 563 488 561 540 L 560 583 Q 560 662 584 732 Q 602 768 582 785 Q 533 824 516 820 Q 501 814 508 797 Q 527 760 522 704 Q 518 610 517 549 L 518 515 Q 518 440 554 411 Q 603 375 762 377 Q 837 378 866 394 Q 896 409 884 440 Z" fill="black" /></g></svg>