<?xml version='1.0' encoding='utf-8'?>
<svg xmlns="http://www.w3.org/2000/svg" version="1.1" viewBox="0 0 1024 1024"><g transform="scale(1, -1) translate(0, -900)"><path d="M 481 332 Q 478 -31 491 -59 Q 492 -63 495 -67 Q 511 -85 521 -61 Q 540 -18 541 337 L 541 380 Q 541 443 543 495 L 544 547 Q 545 655 551 716 Q 552 752 571 781 Q 578 799 557 816 Q 529 838 481 850 Q 459 857 445 841 Q 433 831 448 818 Q 479 791 481 754 Q 482 673 482 532 L 482 485 Q 482 430 481 372 L 481 332 Z" fill="black" /></g></svg>