<?xml version='1.0' encoding='utf-8'?>
<svg xmlns="http://www.w3.org/2000/svg" version="1.1" viewBox="0 0 1024 1024"><g transform="scale(1, -1) translate(0, -900)"><path d="M 398 349 Q 450 359 512 364 Q 570 368 624 374 Q 631 375 641 375 L 687 378 Q 762 387 923 375 Q 948 372 954 381 Q 961 394 949 407 Q 918 435 873 456 Q 858 463 831 454 Q 761 439 688 427 L 641 422 Q 443 401 403 396 L 348 389 Q 314 388 290 383 Q 215 371 105 370 Q 90 370 89 358 Q 89 345 108 330 Q 126 317 158 305 Q 170 301 188 309 Q 206 316 284 329 Q 312 336 345 341 L 398 349 Z" fill="black" /></g></svg>