<?xml version='1.0' encoding='utf-8'?>
<svg xmlns="http://www.w3.org/2000/svg" version="1.1" viewBox="0 0 1024 1024"><g transform="scale(1, -1) translate(0, -900)"><path d="M 594 474 Q 661 480 775 484 Q 793 484 799 475 Q 809 468 809 421 Q 812 228 785 117 Q 776 78 743 83 Q 706 90 673 95 Q 658 101 658 93 Q 657 86 669 73 Q 745 12 765 -21 Q 775 -37 787 -35 Q 803 -34 818 -4 Q 857 65 870 256 Q 879 443 892 465 Q 911 487 896 493 Q 880 511 840 529 Q 815 545 788 535 Q 752 525 660 518 Q 555 511 472 500 L 428 494 Q 398 491 372 486 Q 284 470 199 459 C 169 455 200 417 229 424 Q 322 452 558 471 L 594 474 Z" fill="black" /></g></svg>