<?xml version='1.0' encoding='utf-8'?>
<svg xmlns="http://www.w3.org/2000/svg" version="1.1" viewBox="0 0 1024 1024"><g transform="scale(1, -1) translate(0, -900)"><path d="M 645 389 Q 651 371 664 373 Q 679 374 687 390 Q 700 406 724 489 Q 742 543 780 574 Q 799 590 783 607 Q 764 625 712 653 Q 696 663 627 646 Q 617 646 538 632 L 514 628 Q 459 621 411 609 Q 353 597 309 589 C 280 584 292 546 321 555 Q 369 571 451 586 L 510 597 Q 652 622 676 610 Q 686 604 680 571 Q 659 451 645 422 C 637 399 637 399 645 389 Z" fill="black" /></g></svg>