<?xml version='1.0' encoding='utf-8'?>
<svg xmlns="http://www.w3.org/2000/svg" version="1.1" viewBox="0 0 1024 1024"><g transform="scale(1, -1) translate(0, -900)"><path d="M 564 443 Q 564 389 574 370 Q 586 358 594 375 Q 600 393 604 451 L 606 487 Q 606 509 608 535 L 609 572 Q 609 596 611 619 L 613 651 Q 614 688 617 717 L 620 757 Q 626 794 634 804 Q 640 817 623 830 Q 604 846 568 855 Q 552 859 542 848 Q 533 841 544 832 Q 560 819 562 799 Q 562 775 562 740 L 563 703 Q 563 675 563 639 L 564 608 Q 564 580 564 556 L 564 525 Q 564 500 563 473 L 564 443 Z" fill="black" /></g></svg>