<?xml version='1.0' encoding='utf-8'?>
<svg xmlns="http://www.w3.org/2000/svg" version="1.1" viewBox="0 0 1024 1024"><g transform="scale(1, -1) translate(0, -900)"><path d="M 481 -30 Q 487 -55 494 -65 Q 500 -72 507 -70 Q 522 -61 528 0 Q 534 70 530 228 L 530 269 Q 530 315 530 375 L 531 411 Q 531 441 532 473 Q 532 477 532 480 L 535 521 Q 538 542 542 558 Q 545 576 530 585 Q 520 592 510 597 C 484 612 435 612 451 586 Q 455 576 462 568 Q 475 546 476 505 L 476 470 Q 476 439 476 401 L 476 368 Q 476 319 476 262 L 476 223 Q 476 10 481 -30 Z" fill="black" /></g></svg>