<?xml version='1.0' encoding='utf-8'?>
<svg xmlns="http://www.w3.org/2000/svg" version="1.1" viewBox="0 0 1024 1024"><g transform="scale(1, -1) translate(0, -900)"><path d="M 913 103 Q 900 131 884 216 Q 884 232 877 238 Q 871 242 866 223 Q 835 132 816 104 Q 795 82 740 65 Q 608 29 503 66 Q 461 84 451 108 Q 424 165 453 351 C 457 375 457 375 432 387 Q 423 394 410 399 Q 397 403 389 398 Q 382 394 388 376 Q 401 339 398 301 Q 389 135 403 89 Q 409 58 438 35 Q 532 -34 747 -3 Q 772 3 798 9 Q 853 25 906 62 Q 925 77 913 103 Z" fill="black" /></g></svg>