<?xml version='1.0' encoding='utf-8'?>
<svg xmlns="http://www.w3.org/2000/svg" version="1.1" viewBox="0 0 1024 1024"><g transform="scale(1, -1) translate(0, -900)"><path d="M 226 686 Q 214 696 191 708 Q 169 720 161 713 Q 154 706 161 690 Q 179 654 179 589 Q 182 390 161 206 Q 158 167 136 131 Q 126 116 135 96 Q 144 74 154 66 Q 164 59 181 71 Q 263 134 523 147 Q 545 147 546 158 Q 545 173 517 190 Q 502 202 472 193 Q 423 183 383 175 L 341 168 Q 290 164 232 148 Q 222 145 217 148 Q 211 149 211 166 Q 215 245 219 331 L 220 349 Q 221 401 225 456 L 226 478 Q 229 626 236 653 C 239 677 239 677 226 686 Z" fill="black" /></g></svg>