<?xml version='1.0' encoding='utf-8'?>
<svg xmlns="http://www.w3.org/2000/svg" version="1.1" viewBox="0 0 1024 1024"><g transform="scale(1, -1) translate(0, -900)"><path d="M 666 579 Q 747 607 805 618 Q 818 621 821 617 Q 834 599 828 552 Q 818 420 787 362 Q 774 335 751 338 Q 723 348 698 360 Q 676 369 691 346 Q 737 301 759 267 Q 783 245 801 266 Q 832 291 851 336 Q 873 387 880 540 Q 881 594 898 622 Q 908 635 903 644 Q 894 654 846 671 Q 827 678 809 665 Q 773 641 651 615 C 622 609 638 569 666 579 Z" fill="black" /></g></svg>