<?xml version='1.0' encoding='utf-8'?>
<svg xmlns="http://www.w3.org/2000/svg" version="1.1" viewBox="0 0 1024 1024"><g transform="scale(1, -1) translate(0, -900)"><path d="M 437 363 Q 443 362 452 365 Q 617 416 628 402 Q 635 392 630 367 Q 620 297 601 265 Q 583 237 558 243 Q 534 249 513 257 Q 491 264 507 243 Q 546 207 564 179 Q 576 163 591 173 Q 639 200 672 320 Q 676 369 701 398 Q 713 408 708 418 Q 701 428 654 450 Q 636 459 619 447 Q 576 423 423 399 C 393 394 407 358 437 363 Z" fill="black" /></g></svg>