<?xml version='1.0' encoding='utf-8'?>
<svg xmlns="http://www.w3.org/2000/svg" version="1.1" viewBox="0 0 1024 1024"><g transform="scale(1, -1) translate(0, -900)"><path d="M 655 596 Q 734 623 794 634 Q 809 635 812 632 Q 825 617 821 575 Q 818 460 795 408 Q 779 374 750 375 Q 728 378 708 383 Q 681 389 702 365 Q 745 326 766 296 Q 788 275 806 296 Q 836 321 855 363 Q 877 412 883 561 Q 886 613 902 640 Q 914 653 906 664 Q 896 674 842 694 Q 821 701 802 686 Q 771 665 636 632 C 607 625 627 586 655 596 Z" fill="black" /></g></svg>