<?xml version='1.0' encoding='utf-8'?>
<svg xmlns="http://www.w3.org/2000/svg" version="1.1" viewBox="0 0 1024 1024"><g transform="scale(1, -1) translate(0, -900)"><path d="M 369 285 Q 375 60 383 44 Q 392 22 412 7 Q 466 -33 650 -29 Q 735 -26 768 -9 Q 796 6 786 35 Q 770 78 762 150 Q 761 165 753 170 Q 746 174 742 156 Q 723 68 710 53 Q 677 17 553 20 Q 484 23 454 34 Q 429 47 423 65 Q 416 90 416 154 Q 420 224 435 257 Q 439 267 439 277 C 445 304 442 305 413 313 Q 406 319 398 323 C 375 342 368 315 369 285 Z" fill="black" /></g></svg>