<?xml version='1.0' encoding='utf-8'?>
<svg xmlns="http://www.w3.org/2000/svg" version="1.1" viewBox="0 0 1024 1024"><g transform="scale(1, -1) translate(0, -900)"><path d="M 397 335 Q 387 334 249 257 Q 234 250 234 263 Q 240 356 241 438 L 242 475 Q 242 523 242 566 L 241 597 Q 241 666 245 689 C 247 713 247 713 233 724 Q 211 743 192 751 Q 173 758 164 752 Q 154 745 163 729 Q 214 618 186 304 Q 183 253 143 203 Q 131 187 139 164 Q 149 136 163 124 Q 176 117 189 134 Q 211 170 404 312 Q 408 316 412 318 C 436 336 424 347 397 335 Z" fill="black" /></g></svg>