<?xml version='1.0' encoding='utf-8'?>
<svg xmlns="http://www.w3.org/2000/svg" version="1.1" viewBox="0 0 1024 1024"><g transform="scale(1, -1) translate(0, -900)"><path d="M 680 552 Q 756 580 813 591 Q 826 592 829 589 Q 842 573 839 528 Q 838 404 812 346 Q 799 315 774 317 Q 746 323 722 330 Q 698 336 717 314 Q 765 275 789 244 Q 813 223 830 245 Q 858 272 876 316 Q 895 368 895 518 Q 895 572 910 599 Q 920 612 913 621 Q 904 631 855 646 Q 836 653 820 639 Q 783 614 662 585 C 633 578 652 542 680 552 Z" fill="black" /></g></svg>