<?xml version='1.0' encoding='utf-8'?>
<svg xmlns="http://www.w3.org/2000/svg" version="1.1" viewBox="0 0 1024 1024"><g transform="scale(1, -1) translate(0, -900)"><path d="M 439 277 Q 467 290 546 311 Q 553 312 558 310 Q 565 306 565 293 Q 564 263 551 208 Q 545 183 521 188 Q 490 194 466 199 Q 451 202 455 193 Q 456 184 481 166 Q 512 138 531 107 Q 535 98 545 100 Q 551 101 565 119 Q 587 144 595 176 Q 619 285 632 295 Q 642 304 638 315 Q 631 327 596 350 Q 581 359 413 313 C 384 305 411 265 439 277 Z" fill="black" /></g></svg>