<?xml version='1.0' encoding='utf-8'?>
<svg xmlns="http://www.w3.org/2000/svg" version="1.1" viewBox="0 0 1024 1024"><g transform="scale(1, -1) translate(0, -900)"><path d="M 895 90 Q 882 121 864 217 Q 864 233 857 238 Q 851 241 847 224 Q 820 122 802 91 Q 751 34 591 42 Q 530 46 482 66 Q 439 87 428 113 Q 401 170 437 363 C 442 388 442 388 423 399 Q 410 409 394 415 Q 381 419 372 415 Q 365 411 370 393 Q 383 353 379 313 Q 366 141 379 94 Q 383 63 413 37 Q 507 -38 716 -13 Q 747 -9 778 -1 Q 833 14 888 49 Q 907 65 895 90 Z" fill="black" /></g></svg>