<?xml version='1.0' encoding='utf-8'?>
<svg xmlns="http://www.w3.org/2000/svg" version="1.1" viewBox="0 0 1024 1024"><g transform="scale(1, -1) translate(0, -900)"><path d="M 402 410 Q 398 410 273 340 Q 257 330 247 335 Q 235 336 237 363 Q 243 457 246 513 L 246 535 Q 246 536 247 536 Q 246 579 250 614 Q 251 621 250 626 C 250 636 250 636 238 644 Q 216 660 194 669 Q 175 676 165 670 Q 155 663 169 642 Q 217 570 185 337 Q 178 310 159 280 Q 146 258 156 246 Q 166 233 194 221 Q 212 214 225 233 Q 247 279 368 360 Q 387 373 400 386 C 422 406 429 423 402 410 Z" fill="black" /></g></svg>