<?xml version='1.0' encoding='utf-8'?>
<svg xmlns="http://www.w3.org/2000/svg" version="1.1" viewBox="0 0 1024 1024"><g transform="scale(1, -1) translate(0, -900)"><path d="M 545 343 Q 544 343 544 342 Q 504 314 459 284 Q 444 271 443 291 Q 446 357 448 425 L 449 450 Q 450 493 452 539 L 453 569 Q 453 632 462 650 C 466 665 466 665 450 674 Q 431 687 411 692 Q 386 699 376 687 Q 369 677 381 666 Q 423 629 405 324 Q 402 314 402 302 Q 398 263 380 242 Q 370 226 379 208 Q 391 190 407 184 Q 416 177 427 193 Q 437 211 555 327 C 576 348 569 360 545 343 Z" fill="black" /></g></svg>