<?xml version='1.0' encoding='utf-8'?>
<svg xmlns="http://www.w3.org/2000/svg" version="1.1" viewBox="0 0 1024 1024"><g transform="scale(1, -1) translate(0, -900)"><path d="M 399 254 Q 400 255 406 256 Q 497 281 561 292 Q 574 293 578 289 Q 582 282 581 264 Q 578 212 567 188 Q 548 161 524 167 Q 499 177 478 188 Q 456 197 470 174 Q 509 131 526 97 Q 536 81 550 91 Q 598 113 633 239 Q 642 270 656 284 Q 668 296 662 306 Q 655 316 606 340 Q 587 350 569 338 Q 551 328 485 313 Q 428 300 379 293 C 349 289 370 246 399 254 Z" fill="black" /></g></svg>