<?xml version='1.0' encoding='utf-8'?>
<svg xmlns="http://www.w3.org/2000/svg" version="1.1" viewBox="0 0 1024 1024"><g transform="scale(1, -1) translate(0, -900)"><path d="M 305 411 Q 280 399 225 369 Q 218 365 215 368 Q 211 371 211 383 Q 211 608 216 636 C 217 649 217 649 209 655 Q 209 656 208 657 Q 198 667 158 677 Q 143 680 138 675 Q 132 669 142 652 Q 185 600 168 426 Q 159 360 122 314 Q 112 304 118 284 Q 125 259 139 247 Q 149 240 162 252 Q 196 298 304 390 C 327 410 332 424 305 411 Z" fill="black" /></g></svg>