<?xml version='1.0' encoding='utf-8'?>
<svg xmlns="http://www.w3.org/2000/svg" version="1.1" viewBox="0 0 1024 1024"><g transform="scale(1, -1) translate(0, -900)"><path d="M 575 343 Q 576 358 580 371 L 586 415 Q 586 427 588 438 Q 591 510 609 559 Q 615 571 606 579 Q 587 597 550 613 Q 528 623 510 618 Q 488 611 505 591 Q 533 560 534 528 Q 534 461 528 405 L 523 361 Q 504 199 405 116 Q 365 79 275 32 Q 262 26 258 22 Q 254 16 270 14 Q 283 13 338 31 Q 377 43 433 80 Q 535 149 568 306 L 575 343 Z" fill="black" /></g></svg>