<?xml version='1.0' encoding='utf-8'?>
<svg xmlns="http://www.w3.org/2000/svg" version="1.1" viewBox="0 0 1024 1024"><g transform="scale(1, -1) translate(0, -900)"><path d="M 593 369 Q 594 397 598 413 Q 601 425 594 431 Q 572 450 553 460 Q 541 464 532 457 Q 526 454 533 444 Q 539 435 544 361 L 543 321 Q 542 288 541 247 Q 540 237 539 225 L 537 187 Q 528 85 522 71 Q 513 34 545 -16 Q 555 -34 564 -38 Q 574 -39 580 -27 Q 593 4 589 34 Q 588 118 588 192 L 588 232 Q 588 290 591 327 L 593 369 Z" fill="black" /></g></svg>