<?xml version='1.0' encoding='utf-8'?>
<svg xmlns="http://www.w3.org/2000/svg" version="1.1" viewBox="0 0 1024 1024"><g transform="scale(1, -1) translate(0, -900)"><path d="M 578 415 Q 648 431 717 440 Q 736 441 742 432 Q 749 419 746 380 Q 736 242 709 169 Q 696 123 680 109 Q 667 96 639 103 Q 602 113 569 125 Q 544 132 561 109 Q 610 57 638 16 Q 648 -6 671 0 Q 689 1 711 26 Q 775 87 805 336 Q 812 391 834 423 Q 853 447 842 458 Q 826 477 786 495 Q 758 508 729 496 Q 668 471 587 451 L 526 438 Q 420 420 359 420 Q 337 421 337 410 Q 336 400 360 384 Q 390 365 416 374 Q 467 389 517 400 L 578 415 Z" fill="black" /></g></svg>