<?xml version='1.0' encoding='utf-8'?>
<svg xmlns="http://www.w3.org/2000/svg" version="1.1" viewBox="0 0 1024 1024"><g transform="scale(1, -1) translate(0, -900)"><path d="M 940 110 Q 919 177 912 291 Q 911 309 902 314 Q 893 320 889 298 Q 873 156 853 129 Q 810 83 631 88 Q 534 95 493 112 Q 457 133 450 157 Q 437 197 440 297 Q 450 409 473 459 Q 476 466 478 474 C 487 497 487 497 468 511 Q 414 554 397 551 Q 381 545 388 526 Q 407 484 400 424 Q 382 172 410 121 Q 440 63 556 42 Q 635 29 761 31 Q 873 35 919 58 Q 953 74 940 110 Z" fill="black" /></g></svg>