<?xml version='1.0' encoding='utf-8'?>
<svg xmlns="http://www.w3.org/2000/svg" version="1.1" viewBox="0 0 1024 1024"><g transform="scale(1, -1) translate(0, -900)"><path d="M 591 327 Q 756 345 759 347 Q 762 350 763 352 Q 764 365 737 382 Q 715 397 593 369 L 544 361 Q 495 354 439 346 Q 424 345 424 348 Q 423 351 429 362 Q 459 419 512 526 L 534 572 Q 556 620 577 634 Q 595 647 586 658 Q 541 706 516 706 Q 507 706 511 686 Q 517 655 482 563 L 462 517 Q 417 399 363 357 Q 342 342 355 299 Q 359 286 374 290 Q 435 311 543 321 L 591 327 Z" fill="black" /></g></svg>