<?xml version='1.0' encoding='utf-8'?>
<svg xmlns="http://www.w3.org/2000/svg" version="1.1" viewBox="0 0 1024 1024"><g transform="scale(1, -1) translate(0, -900)"><path d="M 652 364 Q 667 345 681 337 Q 691 330 706 351 Q 718 372 742 483 Q 751 514 773 538 Q 786 550 774 563 Q 759 579 717 604 Q 701 613 637 597 Q 595 597 483 569 L 462 565 Q 438 562 418 558 C 388 553 412 519 441 527 Q 516 548 642 564 Q 670 568 679 558 Q 689 546 688 533 Q 672 404 651 395 C 638 379 638 379 652 364 Z" fill="black" /></g></svg>