<?xml version='1.0' encoding='utf-8'?>
<svg xmlns="http://www.w3.org/2000/svg" version="1.1" viewBox="0 0 1024 1024"><g transform="scale(1, -1) translate(0, -900)"><path d="M 628 66 Q 656 29 677 -4 Q 686 -22 697 -21 Q 712 -20 727 12 Q 743 49 740 93 Q 734 145 726 246 Q 725 274 741 296 Q 750 308 741 317 Q 723 336 674 359 Q 658 368 643 359 Q 565 325 449 311 C 419 307 432 277 462 281 Q 495 284 626 311 Q 648 315 661 306 Q 671 296 673 105 Q 672 101 672 95 Q 669 86 664 83 C 651 56 611 88 628 66 Z" fill="black" /></g></svg>