<?xml version='1.0' encoding='utf-8'?>
<svg xmlns="http://www.w3.org/2000/svg" version="1.1" viewBox="0 0 1024 1024"><g transform="scale(1, -1) translate(0, -900)"><path d="M 673 500 Q 674 497 675 494 Q 679 481 691 481 Q 704 482 711 496 Q 718 505 737 553 Q 752 601 786 628 Q 802 643 788 657 Q 772 673 726 697 Q 711 706 647 691 Q 632 691 520 670 Q 483 663 456 658 C 427 653 438 617 467 625 Q 530 643 664 658 Q 688 659 696 655 Q 703 651 699 628 Q 686 549 678 528 C 671 505 671 505 673 500 Z" fill="black" /></g></svg>