<?xml version='1.0' encoding='utf-8'?>
<svg xmlns="http://www.w3.org/2000/svg" version="1.1" viewBox="0 0 1024 1024"><g transform="scale(1, -1) translate(0, -900)"><path d="M 650 219 Q 668 220 689 223 Q 818 235 917 225 Q 938 224 943 230 Q 950 242 939 252 Q 912 276 874 293 Q 862 297 840 291 Q 783 278 725 269 Q 676 265 639 258 L 587 252 Q 578 255 427 233 Q 372 224 287 222 Q 275 222 274 212 Q 274 202 290 189 Q 305 179 332 168 Q 342 165 357 172 Q 370 176 430 188 Q 505 206 598 214 L 650 219 Z" fill="black" /></g></svg>