<?xml version='1.0' encoding='utf-8'?>
<svg xmlns="http://www.w3.org/2000/svg" version="1.1" viewBox="0 0 1024 1024"><g transform="scale(1, -1) translate(0, -900)"><path d="M 749 278 Q 775 327 798 339 Q 811 351 808 365 L 807 367 Q 800 382 772 398 Q 722 429 679 412 Q 636 398 595 387 L 541 377 Q 472 368 402 361 C 372 358 385 326 414 332 Q 473 345 543 353 L 593 361 Q 602 363 668 374 Q 682 377 691 376 Q 715 374 713 351 Q 713 347 711 341 Q 700 306 696 287 C 689 258 734 252 749 278 Z" fill="black" /></g></svg>