<?xml version='1.0' encoding='utf-8'?>
<svg xmlns="http://www.w3.org/2000/svg" version="1.1" viewBox="0 0 1024 1024"><g transform="scale(1, -1) translate(0, -900)"><path d="M 552 110 Q 474 40 329 6 Q 316 5 326 -5 Q 332 -9 376 -7 Q 499 3 586 82 L 614 114 Q 642 151 671 204 Q 684 229 705 244 Q 724 257 714 270 Q 704 283 675 297 Q 654 306 628 296 Q 603 287 570 279 Q 548 275 514 270 C 484 266 463 245 493 241 Q 518 235 554 243 Q 600 258 608 258 Q 627 254 620 235 Q 604 180 574 138 L 552 110 Z" fill="black" /></g></svg>