<?xml version='1.0' encoding='utf-8'?>
<svg xmlns="http://www.w3.org/2000/svg" version="1.1" viewBox="0 0 1024 1024"><g transform="scale(1, -1) translate(0, -900)"><path d="M 425 254 Q 464 266 490 267 C 520 269 529 299 499 295 Q 463 291 432 283 L 384 273 Q 353 266 325 256 Q 315 255 318 267 Q 330 330 325 341 Q 315 354 298 365 Q 291 369 283 369 Q 276 366 279 352 Q 292 319 284 287 Q 278 256 265 244 Q 252 231 257 221 Q 264 211 277 202 Q 287 196 294 202 Q 306 218 378 240 L 425 254 Z" fill="black" /></g></svg>