<?xml version='1.0' encoding='utf-8'?>
<svg xmlns="http://www.w3.org/2000/svg" version="1.1" viewBox="0 0 1024 1024"><g transform="scale(1, -1) translate(0, -900)"><path d="M 588 184 Q 588 218 590 237 L 590 269 L 593 351 L 593 361 L 595 387 Q 600 400 597 408 Q 592 419 563 439 C 539 457 510 463 521 435 Q 540 385 541 379 L 541 377 L 543 353 Q 544 325 544 261 L 544 233 Q 543 188 543 174 L 543 137 Q 542 98 542 91 L 542 57 L 542 -7 C 542 -37 584 -34 584 -4 Q 584 6 585 61 L 585 98 Q 585 126 587 143 L 588 184 Z" fill="black" /></g></svg>