<?xml version='1.0' encoding='utf-8'?>
<svg xmlns="http://www.w3.org/2000/svg" version="1.1" viewBox="0 0 1024 1024"><g transform="scale(1, -1) translate(0, -900)"><path d="M 649 547 Q 651 547 800 566 Q 805 565 811 570 Q 828 580 809 592 L 798 599 Q 764 623 666 593 Q 664 593 662 592 C 633 584 616 579 606 578 Q 603 580 598 578 L 494 559 L 450 553 Q 429 553 321 540 Q 304 537 306 529 L 310 524 Q 341 492 365 496 Q 368 496 373 498 Q 412 508 459 514 L 497 521 Q 563 535 602 540 L 649 547 Z" fill="black" /></g></svg>