<?xml version='1.0' encoding='utf-8'?>
<svg xmlns="http://www.w3.org/2000/svg" version="1.1" viewBox="0 0 1024 1024"><g transform="scale(1, -1) translate(0, -900)"><path d="M 761 433 Q 764 318 769 114 Q 769 95 759 87 Q 749 80 720 87 Q 689 94 657 101 Q 624 111 627 101 Q 628 94 650 80 Q 729 31 751 1 Q 776 -35 794 -34 Q 809 -35 822 1 Q 837 47 832 119 Q 814 281 811 443 L 811 488 Q 812 573 824 618 Q 840 649 784 669 Q 750 687 731 679 Q 713 672 730 650 Q 752 623 755 589 Q 756 576 760 475 L 761 433 Z" fill="black" /></g></svg>