<?xml version='1.0' encoding='utf-8'?>
<svg xmlns="http://www.w3.org/2000/svg" version="1.1" viewBox="0 0 1024 1024"><g transform="scale(1, -1) translate(0, -900)"><path d="M 450 242 Q 444 242 355 188 Q 348 184 347 190 Q 353 260 357 322 L 358 348 Q 359 391 361 431 L 362 461 Q 365 498 369 537 C 370 548 370 548 352 562 Q 336 575 323 582 Q 307 589 300 583 C 289 583 289 583 297 562 Q 336 478 307 227 Q 306 182 269 138 Q 248 111 287 70 Q 299 63 309 78 Q 324 106 456 222 Q 457 223 460 225 C 483 244 477 255 450 242 Z" fill="black" /></g></svg>