<?xml version='1.0' encoding='utf-8'?>
<svg xmlns="http://www.w3.org/2000/svg" version="1.1" viewBox="0 0 1024 1024"><g transform="scale(1, -1) translate(0, -900)"><path d="M 466 361 Q 466 395 468 431 L 469 481 Q 473 536 485 576 Q 492 589 490 600 Q 484 609 438 638 Q 419 653 401 639 Q 397 635 401 622 Q 426 585 427 546 Q 427 509 427 466 L 424 329 Q 415 148 412 126 Q 388 42 412 -2 Q 412 -3 413 -5 Q 417 -20 425 -23 Q 429 -29 436 -22 Q 458 -7 460 47 Q 459 80 465 329 L 466 361 Z" fill="black" /></g></svg>