<?xml version='1.0' encoding='utf-8'?>
<svg xmlns="http://www.w3.org/2000/svg" version="1.1" viewBox="0 0 1024 1024"><g transform="scale(1, -1) translate(0, -900)"><path d="M 573 138 Q 574 196 575 246 L 576 276 Q 576 304 578 330 L 579 365 Q 580 389 581 410 L 583 445 Q 583 446 584 447 Q 590 463 582 473 Q 566 488 550 497 C 525 513 499 518 513 491 L 514 490 Q 530 457 531 430 L 532 401 Q 532 385 532 355 L 532 324 Q 532 302 532 271 L 532 240 Q 532 192 532 129 C 532 99 572 108 573 138 Z" fill="black" /></g></svg>