<?xml version='1.0' encoding='utf-8'?>
<svg xmlns="http://www.w3.org/2000/svg" version="1.1" viewBox="0 0 1024 1024"><g transform="scale(1, -1) translate(0, -900)"><path d="M 337 341 Q 346 341 426 358 Q 439 361 447 353 Q 451 349 452 330 Q 455 189 447 104 Q 446 79 437 69 Q 434 68 377 75 Q 359 79 361 72 Q 404 33 429 5 Q 439 -11 453 -16 Q 460 -20 468 -11 Q 504 31 504 76 Q 491 304 511 340 Q 521 356 512 365 Q 496 381 464 396 Q 449 403 437 398 Q 395 374 327 366 C 297 362 307 337 337 341 Z" fill="black" /></g></svg>