<?xml version='1.0' encoding='utf-8'?>
<svg xmlns="http://www.w3.org/2000/svg" version="1.1" viewBox="0 0 1024 1024"><g transform="scale(1, -1) translate(0, -900)"><path d="M 656 339 Q 671 317 685 310 Q 695 303 709 322 Q 719 338 745 431 Q 754 459 776 483 Q 789 493 778 507 Q 765 523 724 548 Q 709 555 636 541 Q 627 540 619 538 Q 514 525 410 503 C 381 497 394 465 423 472 Q 460 482 513 491 L 550 497 Q 670 518 688 504 Q 698 497 695 482 Q 677 374 661 366 C 649 349 649 349 656 339 Z" fill="black" /></g></svg>