<?xml version='1.0' encoding='utf-8'?>
<svg xmlns="http://www.w3.org/2000/svg" version="1.1" viewBox="0 0 1024 1024"><g transform="scale(1, -1) translate(0, -900)"><path d="M 653 140 Q 518 121 378 100 Q 368 99 365 101 Q 362 105 370 114 Q 485 267 530 305 Q 546 320 537 331 Q 527 343 497 351 C 469 361 446 369 447 346 Q 446 340 448 329 Q 454 257 331 132 Q 304 111 266 89 Q 221 71 239 28 Q 240 27 242 22 Q 252 0 268 -7 Q 277 -11 289 -5 Q 403 61 657 116 Q 661 117 667 118 C 696 124 683 144 653 140 Z" fill="black" /></g></svg>