<?xml version='1.0' encoding='utf-8'?>
<svg xmlns="http://www.w3.org/2000/svg" version="1.1" viewBox="0 0 1024 1024"><g transform="scale(1, -1) translate(0, -900)"><path d="M 462 594 Q 519 609 632 632 C 661 638 643 660 613 655 Q 505 639 389 609 Q 377 605 373 608 Q 372 612 380 622 Q 510 755 537 776 Q 552 783 547 798 Q 543 811 498 842 Q 482 852 472 850 Q 459 846 461 824 Q 470 752 335 637 Q 313 622 285 606 Q 270 596 273 584 Q 276 566 299 543 Q 309 531 324 541 Q 357 566 414 580 L 462 594 Z" fill="black" /></g></svg>