<?xml version='1.0' encoding='utf-8'?>
<svg xmlns="http://www.w3.org/2000/svg" version="1.1" viewBox="0 0 1024 1024"><g transform="scale(1, -1) translate(0, -900)"><path d="M 532 313 Q 539 325 549 337 Q 616 430 658 564 Q 673 612 708 643 Q 730 662 711 678 Q 686 696 653 704 Q 626 716 551 686 Q 404 646 283 635 Q 262 635 258 629 Q 254 616 280 599 Q 311 578 384 603 Q 568 658 589 652 Q 601 652 601 632 Q 568 473 491 354 L 468 322 Q 438 288 405 254 Q 317 175 148 91 Q 130 82 140 76 Q 147 72 175 81 Q 400 151 503 276 L 532 313 Z" fill="black" /></g></svg>