<?xml version='1.0' encoding='utf-8'?>
<svg xmlns="http://www.w3.org/2000/svg" version="1.1" viewBox="0 0 1024 1024"><g transform="scale(1, -1) translate(0, -900)"><path d="M 481 595 Q 532 607 657 628 C 687 633 671 652 641 649 Q 526 639 403 613 Q 390 609 386 613 Q 385 617 392 626 Q 507 750 531 770 Q 544 779 539 792 Q 535 805 490 832 Q 474 842 465 839 Q 452 835 455 814 Q 468 751 348 640 Q 327 625 300 609 Q 285 599 288 588 Q 292 570 315 549 Q 325 537 338 547 Q 386 580 445 586 L 481 595 Z" fill="black" /></g></svg>