<?xml version='1.0' encoding='utf-8'?>
<svg xmlns="http://www.w3.org/2000/svg" version="1.1" viewBox="0 0 1024 1024"><g transform="scale(1, -1) translate(0, -900)"><path d="M 647 461 Q 651 448 664 448 Q 677 449 686 464 Q 696 474 720 527 Q 739 578 777 606 Q 796 621 781 638 Q 765 656 715 685 Q 702 694 615 678 Q 587 678 526 666 L 480 659 Q 455 656 431 651 Q 361 639 314 633 C 284 629 306 595 335 601 Q 339 601 345 602 Q 393 618 480 629 L 525 636 Q 660 657 681 644 Q 688 638 683 613 Q 659 519 647 494 C 637 470 637 470 647 461 Z" fill="black" /></g></svg>