<?xml version='1.0' encoding='utf-8'?>
<svg xmlns="http://www.w3.org/2000/svg" version="1.1" viewBox="0 0 1024 1024"><g transform="scale(1, -1) translate(0, -900)"><path d="M 557 267 Q 647 391 698 598 Q 705 635 726 655 Q 742 671 723 688 Q 701 704 663 718 Q 641 725 617 712 Q 508 660 355 642 Q 327 638 315 631 Q 306 624 326 613 Q 354 600 395 615 Q 504 639 610 663 Q 632 670 634 645 Q 634 588 605 479 Q 575 382 519 302 L 493 268 Q 487 264 483 256 Q 393 165 165 91 Q 149 87 159 78 Q 168 72 198 78 Q 345 97 431 146 Q 482 177 526 227 L 557 267 Z" fill="black" /></g></svg>