<?xml version='1.0' encoding='utf-8'?>
<svg xmlns="http://www.w3.org/2000/svg" version="1.1" viewBox="0 0 1024 1024"><g transform="scale(1, -1) translate(0, -900)"><path d="M 488 585 Q 397 486 202 400 Q 192 394 194 391 Q 194 388 198 386 Q 204 384 241 384 Q 261 384 263 384 Q 299 400 331 415 Q 470 480 525 549 L 559 582 Q 605 635 645 710 Q 662 741 686 757 Q 725 784 649 819 Q 638 825 623 824 Q 610 823 556 808 Q 445 776 326 772 Q 317 772 310 768 Q 296 761 310 753 L 319 747 Q 341 738 365 737 Q 392 737 453 753 Q 525 770 570 770 Q 590 770 586 751 Q 582 737 578 725 Q 555 661 517 614 L 488 585 Z" fill="black" /></g></svg>