<?xml version='1.0' encoding='utf-8'?>
<svg xmlns="http://www.w3.org/2000/svg" version="1.1" viewBox="0 0 1024 1024"><g transform="scale(1, -1) translate(0, -900)"><path d="M 473 510 Q 587 543 779 546 Q 804 543 815 552 Q 822 559 815 572 Q 808 585 762 607 Q 735 619 670 600 Q 589 587 493 560 L 432 542 Q 377 529 326 510 Q 310 503 306 508 Q 300 512 305 525 Q 324 598 336 620 Q 345 633 333 648 Q 315 673 284 689 Q 271 696 260 688 Q 253 684 262 664 Q 277 633 270 591 Q 257 530 228 503 Q 213 487 219 473 Q 228 451 247 431 Q 260 418 280 433 Q 328 473 412 495 L 473 510 Z" fill="black" /></g></svg>