<?xml version='1.0' encoding='utf-8'?>
<svg xmlns="http://www.w3.org/2000/svg" version="1.1" viewBox="0 0 1024 1024"><g transform="scale(1, -1) translate(0, -900)"><path d="M 587 187 Q 627 242 656 324 Q 666 361 688 380 Q 706 395 687 412 Q 665 431 629 447 Q 607 456 582 445 Q 524 411 440 395 Q 425 394 415 390 C 386 384 376 377 404 368 Q 405 367 410 365 Q 440 352 482 367 Q 530 380 576 393 Q 592 400 595 381 Q 595 314 544 224 L 521 193 Q 503 172 482 152 Q 415 100 243 55 Q 225 52 235 42 Q 242 35 275 37 Q 387 47 452 74 Q 512 101 558 152 L 587 187 Z" fill="black" /></g></svg>