<?xml version='1.0' encoding='utf-8'?>
<svg xmlns="http://www.w3.org/2000/svg" version="1.1" viewBox="0 0 1024 1024"><g transform="scale(1, -1) translate(0, -900)"><path d="M 363 150 Q 387 198 402 235 L 417 286 Q 425 310 445 329 Q 465 343 449 355 Q 447 357 445 357 Q 415 374 414 374 Q 386 386 353 370 Q 269 342 169 334 Q 157 334 149 322 Q 147 318 153 314 Q 164 308 175 304 Q 212 294 280 315 Q 322 327 331 326 Q 353 327 358 314 Q 363 301 353 256 Q 340 196 324 180 L 300 139 Q 228 39 86 -8 Q 85 -8 84 -10 Q 76 -16 86 -18 Q 87 -20 90 -20 Q 115 -29 159 -20 Q 255 3 333 104 L 363 150 Z" fill="black" /></g></svg>