<?xml version='1.0' encoding='utf-8'?>
<svg xmlns="http://www.w3.org/2000/svg" version="1.1" viewBox="0 0 1024 1024"><g transform="scale(1, -1) translate(0, -900)"><path d="M 537 206 Q 429 113 290 64 Q 262 58 264 53 Q 265 40 339 57 Q 469 87 573 163 L 618 204 Q 687 280 712 379 Q 728 425 754 446 Q 758 450 758 460 Q 755 484 698 514 Q 676 523 648 510 Q 638 503 606 493 Q 572 484 600 539 Q 622 579 668 665 Q 684 690 702 701 Q 723 711 727 722 Q 731 737 686 764 Q 632 794 594 772 Q 422 717 259 712 Q 234 712 235 700 Q 236 690 269 677 Q 302 665 376 685 L 419 694 Q 483 707 584 725 Q 605 729 609 718 Q 615 697 559 563 Q 540 535 521 515 Q 505 497 513 480 Q 520 464 532 454 Q 542 447 550 447 Q 557 447 573 455 Q 582 461 609 466 Q 642 466 653 452 Q 663 439 648 395 Q 624 296 573 243 L 537 206 Z" fill="black" /></g></svg>