<?xml version='1.0' encoding='utf-8'?>
<svg xmlns="http://www.w3.org/2000/svg" version="1.1" viewBox="0 0 1024 1024"><g transform="scale(1, -1) translate(0, -900)"><path d="M 682 268 Q 757 400 789 531 Q 798 577 828 610 Q 847 629 828 643 Q 803 656 771 662 Q 750 668 676 639 Q 586 615 510 604 Q 491 604 487 599 Q 483 586 507 571 Q 535 553 601 575 Q 700 612 712 609 Q 728 609 728 583 Q 703 417 645 312 L 619 270 Q 580 206 453 115 Q 440 105 448 100 Q 455 97 478 110 Q 589 158 651 225 L 682 268 Z" fill="black" /></g></svg>