<?xml version='1.0' encoding='utf-8'?>
<svg xmlns="http://www.w3.org/2000/svg" version="1.1" viewBox="0 0 1024 1024"><g transform="scale(1, -1) translate(0, -900)"><path d="M 361 302 Q 398 383 434 504 Q 444 534 463 554 Q 481 570 467 583 Q 454 595 421 604 Q 397 610 371 594 Q 290 564 188 554 Q 173 554 168 547 Q 164 540 183 531 Q 220 515 272 530 Q 339 552 350 551 Q 380 552 377 520 Q 358 411 323 335 L 299 290 Q 227 179 86 128 Q 74 121 86 116 Q 92 109 137 112 Q 245 127 332 251 L 361 302 Z" fill="black" /></g></svg>