<?xml version='1.0' encoding='utf-8'?>
<svg xmlns="http://www.w3.org/2000/svg" version="1.1" viewBox="0 0 1024 1024"><g transform="scale(1, -1) translate(0, -900)"><path d="M 551 142 Q 597 200 627 292 Q 637 326 659 343 Q 675 356 658 374 Q 639 392 605 407 Q 583 416 561 406 Q 488 372 388 363 Q 360 362 348 355 Q 339 348 358 338 Q 385 323 424 335 Q 488 347 552 359 Q 571 366 571 344 Q 571 256 510 172 L 487 143 Q 474 131 462 118 Q 396 66 230 22 Q 214 19 223 10 Q 230 3 260 5 Q 368 17 431 43 Q 482 65 523 108 L 551 142 Z" fill="black" /></g></svg>