<?xml version='1.0' encoding='utf-8'?>
<svg xmlns="http://www.w3.org/2000/svg" version="1.1" viewBox="0 0 1024 1024"><g transform="scale(1, -1) translate(0, -900)"><path d="M 723 242 Q 777 338 800 427 Q 810 470 839 500 Q 857 518 839 531 Q 817 544 786 550 Q 765 556 689 527 Q 631 509 553 499 Q 535 499 531 494 Q 528 482 551 467 Q 578 451 640 472 Q 721 503 731 502 Q 744 502 744 479 Q 728 365 687 284 L 664 243 Q 612 164 489 82 Q 476 73 484 68 Q 491 65 513 76 Q 595 107 646 147 Q 670 166 694 198 L 723 242 Z" fill="black" /></g></svg>