<?xml version='1.0' encoding='utf-8'?>
<svg xmlns="http://www.w3.org/2000/svg" version="1.1" viewBox="0 0 1024 1024"><g transform="scale(1, -1) translate(0, -900)"><path d="M 280 305 Q 250 166 195 94 Q 161 54 111 11 Q 99 2 100 -2 Q 101 -6 113 -4 Q 126 -8 160 9 Q 299 72 330 320 L 335 367 Q 336 388 338 409 Q 339 430 340 449 L 343 497 Q 352 702 375 751 Q 382 766 373 777 Q 351 796 312 807 Q 287 814 279 807 Q 270 800 277 788 Q 299 751 302 705 Q 306 590 299 481 L 295 437 Q 294 413 291 388 Q 290 372 287 353 L 280 305 Z" fill="black" /></g></svg>