<?xml version='1.0' encoding='utf-8'?>
<svg xmlns="http://www.w3.org/2000/svg" version="1.1" viewBox="0 0 1024 1024"><g transform="scale(1, -1) translate(0, -900)"><path d="M 557 131 Q 602 183 642 258 Q 660 288 683 305 Q 705 321 693 337 Q 680 352 647 367 Q 623 379 546 353 Q 444 328 325 321 Q 309 320 303 312 Q 299 305 319 295 Q 359 277 416 292 Q 546 323 568 319 Q 589 318 584 295 Q 559 217 515 163 L 487 134 Q 402 53 206 12 Q 190 9 202 -1 Q 209 -5 266 -3 Q 338 1 420 36 Q 478 61 524 98 L 557 131 Z" fill="black" /></g></svg>