<?xml version='1.0' encoding='utf-8'?>
<svg xmlns="http://www.w3.org/2000/svg" version="1.1" viewBox="0 0 1024 1024"><g transform="scale(1, -1) translate(0, -900)"><path d="M 564 415 Q 564 416 565 417 Q 574 540 584 568 C 588 583 588 583 576 589 Q 575 590 574 590 Q 523 617 500 607 Q 487 600 496 587 Q 538 530 508 337 Q 507 331 506 325 Q 472 174 344 69 Q 331 56 317 43 Q 307 33 318 32 Q 331 33 363 50 Q 420 84 459 132 Q 498 174 529 250 Q 539 283 551 315 L 556 339 Q 560 363 563 387 L 564 415 Z" fill="black" /></g></svg>