<?xml version='1.0' encoding='utf-8'?>
<svg xmlns="http://www.w3.org/2000/svg" version="1.1" viewBox="0 0 1024 1024"><g transform="scale(1, -1) translate(0, -900)"><path d="M 511 545 Q 541 591 576 666 Q 585 685 594 696 Q 607 706 599 715 Q 590 725 557 736 Q 539 745 488 723 Q 446 710 373 701 Q 363 701 361 693 Q 360 687 374 680 Q 414 661 438 669 Q 505 693 511 693 Q 524 690 514 667 Q 492 612 472 571 L 452 536 Q 448 532 445 525 Q 411 473 349 421 Q 336 409 345 408 Q 381 404 469 490 Q 469 493 482 505 L 511 545 Z" fill="black" /></g></svg>