<?xml version='1.0' encoding='utf-8'?>
<svg xmlns="http://www.w3.org/2000/svg" version="1.1" viewBox="0 0 1024 1024"><g transform="scale(1, -1) translate(0, -900)"><path d="M 467 206 Q 500 252 539 320 Q 549 339 560 348 Q 573 358 565 367 Q 558 377 525 391 Q 504 401 488 393 Q 469 383 435 374 Q 395 367 338 361 Q 326 361 325 353 Q 324 347 338 340 Q 378 319 402 328 Q 472 350 479 350 Q 489 346 478 327 Q 451 273 426 232 L 402 195 Q 344 122 250 56 Q 237 46 245 43 Q 287 37 391 123 Q 412 142 433 163 L 467 206 Z" fill="black" /></g></svg>