<?xml version='1.0' encoding='utf-8'?>
<svg xmlns="http://www.w3.org/2000/svg" version="1.1" viewBox="0 0 1024 1024"><g transform="scale(1, -1) translate(0, -900)"><path d="M 712 177 Q 760 267 787 356 Q 790 361 792 367 Q 801 384 819 404 Q 829 414 826 421.5 Q 823 429 806 439 Q 766 462 731 443 Q 729 441 673 421 Q 645 412 602 404 Q 578 400 574 394 Q 572 390 577 386 Q 580 384 584 382 Q 615 367 668 384 Q 680 400 715 403 Q 737 402 731 378 Q 702 289 677 210 L 647 172 Q 588 112 478 75 Q 469 73 471 69 L 473 65 Q 478 61 510 61 Q 589 61 676 137 L 712 177 Z" fill="black" /></g></svg>