<?xml version='1.0' encoding='utf-8'?>
<svg xmlns="http://www.w3.org/2000/svg" version="1.1" viewBox="0 0 1024 1024"><g transform="scale(1, -1) translate(0, -900)"><path d="M 239 447 Q 269 425 323 439 Q 456 482 673 507 Q 724 514 740 512 Q 762 502 760 491 Q 761 487 756 473 Q 726 403 733 397 Q 740 393 757 406 Q 811 446 855 461 Q 892 474 891 483 Q 890 493 813 547 Q 791 563 767 558 Q 692 545 601 529 Q 507 516 360 490 Q 303 480 247 473 Q 243 473 241 471 C 211 466 212 460 239 447 Z" fill="black" /></g></svg>