<?xml version='1.0' encoding='utf-8'?>
<svg xmlns="http://www.w3.org/2000/svg" version="1.1" viewBox="0 0 1024 1024"><g transform="scale(1, -1) translate(0, -900)"><path d="M 668 123 Q 708 205 712 214 Q 724 274 745 292 Q 760 305 742 320 Q 723 336 690 347 Q 669 353 649 342 Q 604 317 540 306 Q 515 303 505 297 Q 498 291 514 282 Q 539 269 575 282 Q 609 289 642 299 Q 664 306 663 282 Q 663 222 629 156 L 608 124 Q 581 84 472 46 Q 457 42 467 34 Q 474 30 501 34 Q 565 41 603 61 Q 622 71 640 88 L 668 123 Z" fill="black" /></g></svg>