<?xml version='1.0' encoding='utf-8'?>
<svg xmlns="http://www.w3.org/2000/svg" version="1.1" viewBox="0 0 1024 1024"><g transform="scale(1, -1) translate(0, -900)"><path d="M 656 463 Q 657 462 659 457 Q 678 415 708 442 Q 730 461 736 484 Q 772 622 802 654 Q 820 673 807 692 Q 788 714 757 739 Q 739 749 720 744 Q 665 726 601 721 Q 577 720 582 708 Q 586 696 604 688 Q 620 685 682 695 Q 706 699 714 693 Q 721 687 715 659 Q 709 637 704 615 L 697 583 Q 675 499 667 492 C 654 467 654 467 656 463 Z" fill="black" /></g></svg>