<?xml version='1.0' encoding='utf-8'?>
<svg xmlns="http://www.w3.org/2000/svg" version="1.1" viewBox="0 0 1024 1024"><g transform="scale(1, -1) translate(0, -900)"><path d="M 502 359 Q 593 381 673 392 Q 707 396 713 385 Q 725 364 713 314 Q 686 173 648 114 Q 627 80 598 87 Q 558 100 524 117 Q 499 126 516 100 Q 576 48 604 7 Q 626 -20 650 1 Q 687 26 714 72 Q 745 126 772 294 Q 781 352 803 382 Q 819 397 811 409 Q 801 422 740 452 Q 716 462 693 448 Q 656 427 517 399 L 455 385 Q 349 366 258 362 Q 236 361 232 349 Q 229 339 260 324 Q 291 303 317 312 Q 378 330 439 344 L 502 359 Z" fill="black" /></g></svg>