<?xml version='1.0' encoding='utf-8'?>
<svg xmlns="http://www.w3.org/2000/svg" version="1.1" viewBox="0 0 1024 1024"><g transform="scale(1, -1) translate(0, -900)"><path d="M 641 57 Q 626 56 549 97 Q 539 101 539 96 Q 538 92 549 81 Q 595 26 616 -14 Q 628 -39 643 -39 Q 665 -40 688 -16 Q 767 50 788 218 Q 804 330 810 504 Q 811 543 835 573 Q 850 588 848 597 Q 847 606 825 621 Q 795 643 756 655 Q 734 662 646 636 Q 631 633 614 628 Q 497 601 369 583 C 339 579 322 568 352 564 Q 391 552 483 565 Q 556 575 619 587 Q 721 605 734 590 Q 750 556 740 344 Q 728 187 683 99 Q 665 59 641 57 Z" fill="black" /></g></svg>