<?xml version='1.0' encoding='utf-8'?>
<svg xmlns="http://www.w3.org/2000/svg" version="1.1" viewBox="0 0 1024 1024"><g transform="scale(1, -1) translate(0, -900)"><path d="M 545 131 Q 594 188 640 275 Q 658 305 682 322 Q 704 337 693 354 Q 680 369 647 386 Q 622 396 590 386 Q 559 376 522 367 L 478 358 Q 426 351 353 347 Q 337 347 332 340 Q 328 333 347 323 Q 386 305 440 318 Q 548 343 567 341 Q 589 334 578 312 Q 548 212 502 165 L 476 138 Q 389 59 202 17 Q 186 13 198 3 Q 205 -1 263 0 Q 335 4 417 42 Q 469 64 514 100 L 545 131 Z" fill="black" /></g></svg>