<?xml version='1.0' encoding='utf-8'?>
<svg xmlns="http://www.w3.org/2000/svg" version="1.1" viewBox="0 0 1024 1024"><g transform="scale(1, -1) translate(0, -900)"><path d="M 600 613 Q 685 632 769 640 Q 785 641 789 633 Q 799 614 795 560 Q 782 368 746 267 Q 727 203 707 183 Q 694 171 670 180 Q 634 193 601 207 Q 576 217 592 192 Q 641 134 667 89 Q 677 64 701 69 Q 723 73 751 105 Q 832 189 854 512 Q 860 584 885 626 Q 904 650 894 661 Q 876 682 837 699 Q 809 712 780 699 Q 713 672 607 653 Q 516 637 463 638 Q 444 641 442 629 Q 441 619 464 604 Q 492 585 518 594 Q 537 600 559 604 L 600 613 Z" fill="black" /></g></svg>