<?xml version='1.0' encoding='utf-8'?>
<svg xmlns="http://www.w3.org/2000/svg" version="1.1" viewBox="0 0 1024 1024"><g transform="scale(1, -1) translate(0, -900)"><path d="M 494 704 Q 588 723 665 730 Q 696 733 702 723 Q 712 704 701 658 Q 676 528 640 475 Q 621 444 593 450 Q 562 463 535 476 Q 511 486 527 460 Q 575 411 597 373 Q 618 348 639 367 Q 673 389 700 432 Q 731 481 758 637 Q 767 692 788 718 Q 804 731 797 744 Q 787 757 730 787 Q 708 797 685 784 Q 649 765 517 743 Q 384 718 271 716 Q 249 716 246 705 Q 243 695 272 680 Q 300 659 326 667 Q 390 683 448 694 L 494 704 Z" fill="black" /></g></svg>