<?xml version='1.0' encoding='utf-8'?>
<svg xmlns="http://www.w3.org/2000/svg" version="1.1" viewBox="0 0 1024 1024"><g transform="scale(1, -1) translate(0, -900)"><path d="M 629 656 Q 635 657 642 659 Q 718 687 774 700 Q 787 703 790 699 Q 803 683 798 636 Q 792 509 765 451 Q 749 414 717 418 Q 686 425 657 434 Q 629 441 650 416 Q 705 370 732 334 Q 757 312 776 333 Q 809 360 830 406 Q 855 460 863 620 Q 866 677 884 706 Q 896 721 889 732 Q 879 742 821 763 Q 799 770 779 755 Q 746 730 610 696 C 581 689 600 648 629 656 Z" fill="black" /></g></svg>