<?xml version='1.0' encoding='utf-8'?>
<svg xmlns="http://www.w3.org/2000/svg" version="1.1" viewBox="0 0 1024 1024"><g transform="scale(1, -1) translate(0, -900)"><path d="M 773 477 Q 671 461 595 434 Q 573 428 578 453 Q 584 529 590 607 Q 593 634 582 649 Q 564 668 537 682 Q 524 688 513 685 Q 501 679 510 659 Q 544 586 535 512 Q 528 442 500 409 Q 481 388 490 374 Q 503 358 523 346 Q 539 339 549 348 Q 576 381 706 420 Q 757 433 769 431 Q 770 432 773 432 C 803 435 803 482 773 477 Z" fill="black" /></g></svg>