<?xml version='1.0' encoding='utf-8'?>
<svg xmlns="http://www.w3.org/2000/svg" version="1.1" viewBox="0 0 1024 1024"><g transform="scale(1, -1) translate(0, -900)"><path d="M 479 411 Q 473 294 455 241 Q 454 240 454 239 L 439 205 Q 414 166 376 135 Q 309 83 158 34 Q 143 28 142 24 Q 142 20 155 16 Q 180 13 239 28 Q 341 50 411 104 Q 448 134 475 171 L 494 205 Q 527 292 528 416 L 529 456 Q 530 538 533 614 L 534 647 Q 534 713 558 773 Q 565 791 554 803 Q 529 822 486 834 Q 458 841 448 833 Q 438 826 447 811 Q 474 771 478 720 Q 479 680 482 639 L 483 607 Q 484 528 481 448 L 479 411 Z" fill="black" /></g></svg>