<?xml version='1.0' encoding='utf-8'?>
<svg xmlns="http://www.w3.org/2000/svg" version="1.1" viewBox="0 0 1024 1024"><g transform="scale(1, -1) translate(0, -900)"><path d="M 633 292 Q 643 308 656 326 Q 719 419 758 553 Q 771 599 804 630 Q 825 649 806 663 Q 781 679 750 688 Q 726 697 643 666 Q 544 638 434 626 Q 415 626 410 620 Q 406 607 431 591 Q 462 572 530 595 Q 672 641 688 637 Q 701 637 701 616 Q 671 457 596 333 L 566 292 Q 544 267 520 240 Q 439 161 283 78 Q 267 71 276 64 Q 283 60 309 70 Q 510 139 599 246 L 633 292 Z" fill="black" /></g></svg>