<?xml version='1.0' encoding='utf-8'?>
<svg xmlns="http://www.w3.org/2000/svg" version="1.1" viewBox="0 0 1024 1024"><g transform="scale(1, -1) translate(0, -900)"><path d="M 295 714 Q 249 739 230 740 Q 217 741 208 733 Q 198 726 213 708 Q 238 677 237 405 Q 237 177 203 97 Q 197 88 192 82 Q 170 63 184 44 Q 190 26 207 14 Q 223 -1 242 15 Q 249 24 314 48 Q 405 70 575 78 Q 749 85 809 77 Q 836 73 848 81 Q 860 88 860 95 Q 859 111 822 133 Q 785 154 764 152 Q 724 151 411 106 Q 293 84 283 96 Q 277 102 282 232 Q 282 415 299 627 Q 300 663 304 676 C 307 706 308 708 295 714 Z" fill="black" /></g></svg>