<?xml version='1.0' encoding='utf-8'?>
<svg xmlns="http://www.w3.org/2000/svg" version="1.1" viewBox="0 0 1024 1024"><g transform="scale(1, -1) translate(0, -900)"><path d="M 545 488 Q 591 548 641 623 Q 660 651 690 670 Q 706 677 708 687 Q 708 702 678 722 Q 641 749 626 750 Q 613 750 601 742 Q 499 709 446 703 Q 445 704 443 703 C 413 699 396 681 425 675 Q 468 657 555 690 Q 577 696 586 688 Q 593 684 568 632 Q 543 577 502 524 L 479 496 Q 326 310 84 225 Q 74 221 74 216 Q 74 212 82 210 Q 257 206 459 393 Q 463 399 470 404 Q 494 429 519 457 L 545 488 Z" fill="black" /></g></svg>