<?xml version='1.0' encoding='utf-8'?>
<svg xmlns="http://www.w3.org/2000/svg" version="1.1" viewBox="0 0 1024 1024"><g transform="scale(1, -1) translate(0, -900)"><path d="M 318 591 Q 321 576 328 462 Q 328 456 330 449 Q 339 412 382 404 Q 437 388 525 398 Q 566 401 602 405 Q 729 419 733 441 Q 738 453 729 462 Q 713 470 692 476 Q 643 488 618 469 Q 579 445 426 437 Q 384 445 377 453 Q 371 459 376 491 Q 382 535 392 554 Q 400 570 390 581 Q 378 594 368 602 C 346 622 314 621 318 591 Z" fill="black" /></g></svg>