<?xml version='1.0' encoding='utf-8'?>
<svg xmlns="http://www.w3.org/2000/svg" version="1.1" viewBox="0 0 1024 1024"><g transform="scale(1, -1) translate(0, -900)"><path d="M 825 640 Q 835 616 828 555 Q 800 330 752 212 Q 727 139 701 117 Q 688 101 657 110 Q 620 120 585 130 Q 560 136 578 114 Q 629 62 657 23 Q 667 1 690 8 Q 715 11 748 47 Q 841 137 878 502 Q 887 583 917 630 Q 936 655 926 666 Q 908 687 869 703 Q 841 718 811 704 Q 738 673 625 652 Q 528 633 471 633 Q 449 636 448 623 Q 447 613 472 596 Q 503 575 531 586 Q 673 629 803 648 Q 821 649 825 640 Z" fill="black" /></g></svg>