<?xml version='1.0' encoding='utf-8'?>
<svg xmlns="http://www.w3.org/2000/svg" version="1.1" viewBox="0 0 1024 1024"><g transform="scale(1, -1) translate(0, -900)"><path d="M 541 438 Q 623 450 705 455 Q 745 464 751 437 Q 763 265 743 242 Q 734 233 666 237 Q 648 238 645 233 Q 642 227 656 217 Q 720 180 761 151 Q 777 138 791 154 Q 816 190 817 272 Q 811 389 820 446 Q 824 470 812 481 Q 781 509 758 522 Q 742 529 732 517 Q 716 496 541 471 L 481 463 Q 403 456 271 441 C 241 438 256 393 286 397 Q 295 397 306 399 Q 394 418 481 429 L 541 438 Z" fill="black" /></g></svg>