<?xml version='1.0' encoding='utf-8'?>
<svg xmlns="http://www.w3.org/2000/svg" version="1.1" viewBox="0 0 1024 1024"><g transform="scale(1, -1) translate(0, -900)"><path d="M 681 503 Q 682 355 684 103 Q 684 78 671 69 Q 659 60 631 69 Q 597 76 566 83 Q 527 96 531 84 Q 532 75 557 59 Q 641 1 663 -33 Q 688 -73 709 -74 Q 725 -75 741 -34 Q 760 18 756 104 Q 740 306 739 509 L 739 556 Q 739 686 758 753 Q 777 789 712 814 Q 672 835 650 826 Q 631 819 649 792 Q 674 761 677 721 Q 678 702 681 544 L 681 503 Z" fill="black" /></g></svg>