<?xml version='1.0' encoding='utf-8'?>
<svg xmlns="http://www.w3.org/2000/svg" version="1.1" viewBox="0 0 1024 1024"><g transform="scale(1, -1) translate(0, -900)"><path d="M 701 420 Q 720 441 740 634 Q 750 689 786 724 Q 804 743 786 757 Q 765 773 710 795 Q 695 804 637 784 Q 621 784 537 758 Q 494 745 466 740 Q 448 739 446 733 Q 442 727 461 717 Q 497 701 519 709 Q 561 725 658 743 Q 674 744 682 742 Q 698 735 694 683 Q 675 493 662 453 Q 656 426 666 414 C 676 386 688 393 701 420 Z" fill="black" /></g></svg>