<?xml version='1.0' encoding='utf-8'?>
<svg xmlns="http://www.w3.org/2000/svg" version="1.1" viewBox="0 0 1024 1024"><g transform="scale(1, -1) translate(0, -900)"><path d="M 563 398 Q 564 411 568 426 L 574 470 Q 578 516 582 563 Q 585 677 608 741 Q 615 754 604 762 Q 585 781 544 797 Q 520 807 502 802 Q 480 793 497 774 Q 528 741 528 707 Q 528 565 514 457 L 507 412 Q 504 399 502 383 Q 487 295 454 232 Q 432 186 392 145 Q 355 105 275 50 Q 262 43 258 39 Q 254 32 271 31 Q 284 30 335 52 Q 372 67 426 108 Q 520 183 553 352 L 563 398 Z" fill="black" /></g></svg>