<?xml version='1.0' encoding='utf-8'?>
<svg xmlns="http://www.w3.org/2000/svg" version="1.1" viewBox="0 0 1024 1024"><g transform="scale(1, -1) translate(0, -900)"><path d="M 369 274 Q 387 313 423 409 L 434 446 Q 447 492 462 545 L 470 578 Q 471 591 476 603 Q 483 622 488 635 Q 498 654 479 670 Q 464 682 453 689 C 429 706 400 710 406 681 L 407 680 Q 416 653 408 570 L 402 538 Q 392 496 376 437 L 364 399 Q 306 212 144 103 Q 89 70 84 63 Q 80 56 93 54 Q 135 44 236 116 Q 308 170 345 230 L 369 274 Z" fill="black" /></g></svg>