<?xml version='1.0' encoding='utf-8'?>
<svg xmlns="http://www.w3.org/2000/svg" version="1.1" viewBox="0 0 1024 1024"><g transform="scale(1, -1) translate(0, -900)"><path d="M 676 485 Q 685 531 694 563 L 709 611 Q 724 660 760 693 Q 779 715 761 736 Q 742 752 680 779 Q 658 788 633 778 Q 503 727 315 710 Q 296 709 297 697 Q 301 687 322 680 Q 352 667 393 679 Q 397 680 406 681 L 453 689 Q 529 705 607 719 Q 635 725 646 713 Q 662 698 659 665 Q 653 634 648 602 L 639 561 Q 629 519 619 480 C 612 451 670 456 676 485 Z" fill="black" /></g></svg>