<?xml version='1.0' encoding='utf-8'?>
<svg xmlns="http://www.w3.org/2000/svg" version="1.1" viewBox="0 0 1024 1024"><g transform="scale(1, -1) translate(0, -900)"><path d="M 996 188 Q 980 216 955 304 Q 954 322 945 326 Q 938 330 935 310 Q 913 213 895 183 Q 876 155 812 137 Q 746 119 665 124 Q 595 128 539 153 Q 490 178 474 210 Q 444 268 449 395 L 450 417 Q 453 499 468 595 C 472 619 472 619 454 630 Q 441 643 416 651 Q 400 655 391 650 Q 384 646 390 625 Q 406 579 404 536 Q 394 262 419 186 Q 426 149 462 117 Q 579 27 815 63 Q 843 69 873 77 Q 934 96 992 140 Q 1014 159 996 188 Z" fill="black" /></g></svg>