<?xml version='1.0' encoding='utf-8'?>
<svg xmlns="http://www.w3.org/2000/svg" version="1.1" viewBox="0 0 1024 1024"><g transform="scale(1, -1) translate(0, -900)"><path d="M 978 45 Q 957 103 949 204 Q 948 220 941 228 Q 934 235 928 219 Q 913 161 897 115 Q 890 84 862 67 Q 829 36 698 44 Q 646 50 628 61 Q 612 71 602 93 Q 583 136 582 293 L 583 334 Q 587 458 594 546 L 598 599 Q 604 693 617 739 Q 627 761 596 784 Q 571 802 549 814 Q 530 827 512 816 Q 500 809 521 780 Q 546 744 546 697 Q 547 658 545 583 L 543 534 Q 539 458 534 349 Q 533 336 531 323 L 529 280 Q 517 103 577 32 Q 625 -25 810 -18 Q 892 -17 955 10 Q 989 19 978 45 Z" fill="black" /></g></svg>