<?xml version='1.0' encoding='utf-8'?>
<svg xmlns="http://www.w3.org/2000/svg" version="1.1" viewBox="0 0 1024 1024"><g transform="scale(1, -1) translate(0, -900)"><path d="M 626 177 Q 674 246 716 352 Q 729 383 751 403 Q 772 419 758 434 Q 745 447 710 460 Q 685 469 655 453 Q 633 444 610 435 L 567 421 Q 522 409 459 400 Q 443 399 439 390 Q 435 383 455 375 Q 495 362 548 379 Q 623 407 636 407 Q 658 404 653 380 Q 623 253 586 214 L 561 182 Q 480 92 317 45 Q 301 41 314 31 Q 321 25 373 28 Q 494 40 596 140 L 626 177 Z" fill="black" /></g></svg>