<?xml version='1.0' encoding='utf-8'?>
<svg xmlns="http://www.w3.org/2000/svg" version="1.1" viewBox="0 0 1024 1024"><g transform="scale(1, -1) translate(0, -900)"><path d="M 536 367 Q 555 368 564 360 Q 576 345 572 305 Q 568 212 546 149 Q 533 110 520 96 Q 511 86 486 94 Q 455 104 428 113 Q 412 119 414 108 Q 417 95 431 83 Q 470 46 491 13 Q 509 -9 530 5 Q 600 65 607 128 Q 638 335 640 337 Q 641 343 645 347 Q 655 365 644 375 Q 631 391 600 405 Q 576 415 516 394 Q 452 382 450 382 Q 446 386 470 485 Q 471 491 472 495 C 477 515 477 515 456 529 Q 447 538 427 547 Q 414 557 406 550 Q 396 543 406 530 Q 425 499 415 449 Q 403 383 376 358 Q 364 345 369 332 Q 376 319 387 311 Q 397 304 416 320 Q 461 366 536 367 Z" fill="black" /></g></svg>