<?xml version='1.0' encoding='utf-8'?>
<svg xmlns="http://www.w3.org/2000/svg" version="1.1" viewBox="0 0 1024 1024"><g transform="scale(1, -1) translate(0, -900)"><path d="M 682 349 Q 713 427 740 453 Q 762 466 755 477 Q 745 493 690 520 Q 672 530 647 517 Q 613 501 568 497 Q 477 484 333 457 Q 317 453 319 472 Q 322 530 333 567 Q 343 586 333 595 Q 314 611 280 622 Q 264 626 258 622 Q 246 612 257 598 Q 282 558 274 514 Q 271 478 248 452 Q 232 437 239 420 Q 248 404 269 391 Q 279 382 296 393 Q 354 432 417 437 L 467 448 Q 530 460 610 466 Q 637 466 644 455 Q 654 445 642 420 Q 632 384 621 352 Q 618 345 618 339 C 610 310 670 321 682 349 Z" fill="black" /></g></svg>