<?xml version='1.0' encoding='utf-8'?>
<svg xmlns="http://www.w3.org/2000/svg" version="1.1" viewBox="0 0 1024 1024"><g transform="scale(1, -1) translate(0, -900)"><path d="M 744 488 Q 789 497 912 495 Q 934 494 943 506 Q 949 516 928 528 Q 865 570 810 546 Q 779 540 746 532 L 688 521 Q 607 505 532 485 Q 504 475 512 500 Q 527 567 541 592 Q 551 602 545 613 Q 539 623 504 641 Q 486 650 475 644 Q 465 634 474 621 Q 489 587 469 514 Q 466 493 441 469 Q 431 459 433 446 Q 436 434 453 420 Q 468 413 480 424 Q 546 460 648 474 L 744 488 Z" fill="black" /></g></svg>