<?xml version='1.0' encoding='utf-8'?>
<svg xmlns="http://www.w3.org/2000/svg" version="1.1" viewBox="0 0 1024 1024"><g transform="scale(1, -1) translate(0, -900)"><path d="M 650 395 Q 684 509 728 542 Q 747 561 731 581 Q 713 596 658 624 Q 639 633 615 624 Q 554 602 496 588 L 440 578 Q 379 568 316 563 Q 298 562 299 552 Q 302 542 322 536 Q 349 523 387 534 Q 409 538 431 541 L 486 551 Q 538 561 590 570 Q 615 574 626 564 Q 638 551 634 526 Q 616 448 594 387 C 584 359 641 366 650 395 Z" fill="black" /></g></svg>