<?xml version='1.0' encoding='utf-8'?>
<svg xmlns="http://www.w3.org/2000/svg" version="1.1" viewBox="0 0 1024 1024"><g transform="scale(1, -1) translate(0, -900)"><path d="M 984 87 Q 1000 103 982 132 Q 963 184 955 254 Q 955 266 947 275 Q 935 282 931 256 Q 886 127 870 119 Q 864 118 858 116 Q 785 95 735 114 Q 711 120 699 149 Q 681 212 697 444 Q 709 664 738 703 Q 753 746 665 779 Q 659 780 654 782 Q 633 786 624 776 Q 615 766 623 756 Q 639 741 646 718 Q 650 693 643 536 Q 625 239 648 138 Q 654 99 692 78 Q 753 41 910 59 Q 917 62 926 63 Q 966 73 984 87 Z" fill="black" /></g></svg>