<?xml version='1.0' encoding='utf-8'?>
<svg xmlns="http://www.w3.org/2000/svg" version="1.1" viewBox="0 0 1024 1024"><g transform="scale(1, -1) translate(0, -900)"><path d="M 620 421 Q 624 482 629 539 L 633 593 Q 634 696 665 762 Q 672 777 661 788 Q 639 807 600 819 Q 575 826 565 820 Q 556 813 563 800 Q 585 763 587 715 Q 588 648 586 581 L 583 530 Q 579 472 573 413 L 568 373 Q 546 205 433 124 Q 400 102 358 78 Q 345 71 345 67 Q 346 63 357 62 Q 373 58 413 72 Q 543 111 593 256 Q 606 299 613 353 L 620 421 Z" fill="black" /></g></svg>