<?xml version='1.0' encoding='utf-8'?>
<svg xmlns="http://www.w3.org/2000/svg" version="1.1" viewBox="0 0 1024 1024"><g transform="scale(1, -1) translate(0, -900)"><path d="M 567 515 Q 555 525 537 532 Q 524 536 514 531 Q 507 527 512 508 Q 525 465 522 425 Q 504 200 522 138 Q 526 110 552 86 Q 646 10 838 40 Q 848 43 860 45 Q 906 58 952 89 Q 971 105 958 131 Q 945 159 925 242 Q 924 258 917 262 Q 911 265 907 248 Q 882 158 865 130 Q 829 84 703 96 Q 654 100 617 118 Q 583 136 573 158 Q 540 234 583 477 Q 583 480 583 481 C 586 503 586 503 567 515 Z" fill="black" /></g></svg>