<?xml version='1.0' encoding='utf-8'?>
<svg xmlns="http://www.w3.org/2000/svg" version="1.1" viewBox="0 0 1024 1024"><g transform="scale(1, -1) translate(0, -900)"><path d="M 468 702 Q 458 712 426 728 Q 404 741 395 732 Q 388 725 395 709 Q 414 672 416 604 Q 423 360 402 134 Q 399 92 375 55 Q 365 39 374 17 Q 383 -5 394 -15 Q 404 -24 423 -10 Q 484 32 575 50 Q 681 71 885 72 Q 910 71 911 84 Q 910 99 880 119 Q 864 132 831 125 Q 734 107 657 98 Q 578 94 485 73 Q 470 69 464 75 Q 457 76 456 95 Q 465 309 468 582 Q 468 633 474 665 C 478 695 478 696 468 702 Z" fill="black" /></g></svg>