<?xml version='1.0' encoding='utf-8'?>
<svg xmlns="http://www.w3.org/2000/svg" version="1.1" viewBox="0 0 1024 1024"><g transform="scale(1, -1) translate(0, -900)"><path d="M 441 433 Q 426 432 423 424 Q 422 417 429 412 Q 463 402 496 408 Q 575 430 603 436 Q 625 439 627 431 Q 631 421 616 406 Q 451 231 443 140 Q 446 100 476 73 Q 548 4 733 3 Q 833 2 951 47 Q 984 62 975 86 Q 953 150 942 256 Q 938 269 930 269 Q 924 269 919 253 Q 913 216 906 175 Q 896 118 853 95 Q 805 70 696 71 Q 588 71 548 92 Q 511 111 500 149 Q 491 230 636 357 Q 679 397 722 412 Q 747 422 741 436 Q 734 452 686 484 Q 668 497 640 487 Q 534 444 441 433 Z" fill="black" /></g></svg>