<?xml version='1.0' encoding='utf-8'?>
<svg xmlns="http://www.w3.org/2000/svg" version="1.1" viewBox="0 0 1024 1024"><g transform="scale(1, -1) translate(0, -900)"><path d="M 644 571 Q 696 581 756 590 Q 781 597 794 583 Q 807 576 811 520 Q 824 330 814 116 Q 814 85 802 75 Q 786 68 722 95 Q 706 101 706 91 Q 706 84 718 76 Q 775 22 803 -16 Q 824 -37 836 -35 Q 849 -32 861 -4 Q 877 39 880 105 Q 867 393 868 499 Q 868 539 879 563 Q 892 585 881 597 Q 871 612 822 636 Q 803 646 783 640 Q 740 627 647 605 L 601 597 Q 523 585 444 576 C 414 572 436 529 465 535 Q 471 535 480 537 Q 535 550 600 563 L 644 571 Z" fill="black" /></g></svg>