<?xml version='1.0' encoding='utf-8'?>
<svg xmlns="http://www.w3.org/2000/svg" version="1.1" viewBox="0 0 1024 1024"><g transform="scale(1, -1) translate(0, -900)"><path d="M 627 415 Q 634 451 644 571 L 647 605 Q 653 704 675 754 Q 682 767 671 778 Q 650 796 613 807 Q 589 814 581 807 Q 572 801 579 789 Q 600 755 602 709 Q 603 652 601 597 L 600 563 Q 588 380 539 318 Q 515 293 476 266 Q 464 259 465 254 Q 466 250 477 251 Q 486 248 510 257 Q 588 284 620 384 Q 620 387 621 388 L 627 415 Z" fill="black" /></g></svg>