<?xml version='1.0' encoding='utf-8'?>
<svg xmlns="http://www.w3.org/2000/svg" version="1.1" viewBox="0 0 1024 1024"><g transform="scale(1, -1) translate(0, -900)"><path d="M 654 213 Q 647 191 660 169 Q 673 141 682 142 Q 695 143 711 175 Q 726 200 724 220 Q 714 299 716 422 Q 716 458 736 488 Q 746 504 739 515 Q 711 540 662 562 Q 646 568 621 559 Q 480 502 341 505 C 311 505 330 468 360 473 Q 364 474 368 474 Q 443 487 500 498 Q 620 523 646 506 Q 656 484 660 425 Q 664 247 654 213 Z" fill="black" /></g></svg>