<?xml version='1.0' encoding='utf-8'?>
<svg xmlns="http://www.w3.org/2000/svg" version="1.1" viewBox="0 0 1024 1024"><g transform="scale(1, -1) translate(0, -900)"><path d="M 517 639 Q 517 640 519 640 Q 565 659 684 685 Q 694 686 702 682 Q 712 678 711 661 Q 708 621 689 548 Q 685 520 659 526 Q 628 530 602 536 Q 587 537 591 529 Q 592 519 619 500 Q 652 472 671 439 Q 678 430 688 433 Q 695 434 711 457 Q 730 481 751 568 Q 763 656 779 670 Q 789 680 784 691 Q 775 703 739 724 Q 723 734 707 727 Q 694 723 655 714 Q 600 701 558 689 Q 530 682 505 675 C 476 667 489 628 517 639 Z" fill="black" /></g></svg>