<?xml version='1.0' encoding='utf-8'?>
<svg xmlns="http://www.w3.org/2000/svg" version="1.1" viewBox="0 0 1024 1024"><g transform="scale(1, -1) translate(0, -900)"><path d="M 665 397 Q 705 407 747 415 Q 760 416 763 410 Q 770 397 768 362 Q 762 233 739 165 Q 727 122 714 108 Q 702 95 675 101 Q 644 107 615 114 Q 593 118 610 99 Q 655 56 679 21 Q 689 2 708 9 Q 724 10 745 34 Q 802 91 824 323 Q 828 375 847 405 Q 863 426 854 436 Q 838 454 803 467 Q 778 480 752 466 Q 718 451 674 437 L 615 421 Q 545 405 505 403 Q 486 404 487 394 Q 486 384 508 372 Q 535 356 558 366 Q 580 373 606 381 L 665 397 Z" fill="black" /></g></svg>