<?xml version='1.0' encoding='utf-8'?>
<svg xmlns="http://www.w3.org/2000/svg" version="1.1" viewBox="0 0 1024 1024"><g transform="scale(1, -1) translate(0, -900)"><path d="M 516 693 Q 503 705 482 712 Q 460 719 457 709 Q 453 699 461 689 Q 483 658 482 619 Q 476 528 461 443 L 452 397 Q 433 303 393 249 Q 359 210 362 197 Q 368 181 389 164 Q 408 148 429 169 Q 492 211 696 197 Q 699 197 705 196 L 764 188 Q 813 182 864 168 Q 883 161 896 167 Q 909 171 904 187 Q 897 208 875 222 Q 860 240 831 238 Q 812 238 773 240 L 715 242 Q 621 245 476 231 Q 454 228 460 256 Q 479 328 497 408 L 506 449 Q 536 608 536 658 C 537 680 537 680 516 693 Z" fill="black" /></g></svg>