<?xml version='1.0' encoding='utf-8'?>
<svg xmlns="http://www.w3.org/2000/svg" version="1.1" viewBox="0 0 1024 1024"><g transform="scale(1, -1) translate(0, -900)"><path d="M 323 708 Q 333 708 345 710 Q 691 779 720 746 Q 736 737 742 664 Q 761 421 749 145 Q 748 103 733 93 Q 717 83 642 105 Q 626 109 626 99 Q 627 92 640 84 Q 707 33 741 -5 Q 763 -26 776 -23 Q 789 -20 801 10 Q 817 56 817 126 Q 796 514 798 659 Q 799 702 811 727 Q 824 751 813 764 Q 801 780 750 806 Q 723 818 674 802 Q 494 768 304 754 C 274 752 293 704 323 708 Z" fill="black" /></g></svg>