<?xml version='1.0' encoding='utf-8'?>
<svg xmlns="http://www.w3.org/2000/svg" version="1.1" viewBox="0 0 1024 1024"><g transform="scale(1, -1) translate(0, -900)"><path d="M 959 82 Q 940 137 927 233 Q 926 249 917 254 Q 910 258 906 238 Q 896 120 879 97 Q 849 61 714 60 Q 641 61 610 74 Q 582 87 576 106 Q 558 161 569 248 L 572 271 Q 578 326 592 354 Q 605 384 586 401 Q 537 440 520 436 Q 505 430 512 413 Q 531 376 526 320 Q 516 116 541 72 Q 569 30 655 16 Q 718 6 817 11 Q 907 15 942 34 Q 973 50 959 82 Z" fill="black" /></g></svg>