<?xml version='1.0' encoding='utf-8'?>
<svg xmlns="http://www.w3.org/2000/svg" version="1.1" viewBox="0 0 1024 1024"><g transform="scale(1, -1) translate(0, -900)"><path d="M 798 495 Q 802 631 816 664 Q 829 689 818 696 Q 811 709 750 746 Q 732 761 680 736 Q 596 712 516 693 C 487 686 507 653 536 658 Q 552 658 575 666 Q 702 703 723 690 Q 736 683 738 654 Q 739 561 737 484 L 736 441 Q 730 327 715 242 L 705 196 Q 678 87 648 64 Q 641 58 600 69 Q 569 79 550 84 Q 535 85 540 73 Q 544 64 564 52 Q 615 12 639 -22 Q 667 -50 687 -32 Q 735 28 764 188 L 773 240 Q 788 334 795 444 L 798 495 Z" fill="black" /></g></svg>