<?xml version='1.0' encoding='utf-8'?>
<svg xmlns="http://www.w3.org/2000/svg" version="1.1" viewBox="0 0 1024 1024"><g transform="scale(1, -1) translate(0, -900)"><path d="M 683 431 Q 683 626 708 692 Q 714 723 707 732 Q 703 736 700 738 Q 672 763 633 771 Q 614 775 605 765 Q 598 756 605 746 Q 627 725 631 664 Q 631 267 650 185 Q 660 142 697 117 Q 760 77 900 95 Q 907 98 915 99 Q 952 111 967 126 Q 982 142 962 169 Q 940 217 928 281 Q 927 291 919 300 Q 909 304 906 281 Q 876 170 876 169 Q 872 159 854 155 Q 794 134 735 155 Q 710 164 697 197 Q 682 242 682 411 L 683 431 Z" fill="black" /></g></svg>