<?xml version='1.0' encoding='utf-8'?>
<svg xmlns="http://www.w3.org/2000/svg" version="1.1" viewBox="0 0 1024 1024"><g transform="scale(1, -1) translate(0, -900)"><path d="M 664 101 Q 642 108 614 116 Q 601 120 601 112 Q 601 103 611 92 Q 674 34 714 -14 Q 727 -24 742 -7 Q 790 51 785 137 Q 779 434 785 535 Q 786 572 790 608 Q 797 639 790 650 Q 781 663 752 679 C 727 695 691 704 702 676 Q 703 669 710 656 Q 722 629 721 585 Q 722 452 717 145 Q 716 111 704 99 Q 692 92 664 101 Z" fill="black" /></g></svg>