<?xml version='1.0' encoding='utf-8'?>
<svg xmlns="http://www.w3.org/2000/svg" version="1.1" viewBox="0 0 1024 1024"><g transform="scale(1, -1) translate(0, -900)"><path d="M 739 423 Q 740 422 743 418 Q 765 384 785 376 Q 797 369 812 392 Q 831 429 859 626 Q 868 660 893 689 Q 906 702 894 718 Q 876 736 829 763 Q 807 773 789 765 Q 750 756 700 749 Q 633 739 547 725 Q 492 716 444 709 C 414 705 430 666 459 673 Q 507 685 573 695 L 625 703 Q 769 724 787 708 Q 806 686 803 665 Q 779 485 765 454 C 756 425 728 439 739 423 Z" fill="black" /></g></svg>