<?xml version='1.0' encoding='utf-8'?>
<svg xmlns="http://www.w3.org/2000/svg" version="1.1" viewBox="0 0 1024 1024"><g transform="scale(1, -1) translate(0, -900)"><path d="M 622 397 Q 628 175 585 107 Q 582 100 573 96 Q 563 93 469 104 Q 460 105 458 101 Q 457 97 466 88 Q 530 36 564 -4 Q 574 -17 583 -15 Q 598 -14 624 13 Q 649 35 662 74 Q 681 114 683 175 Q 686 239 675 399 Q 674 403 674 405 L 671 445 Q 664 547 658 577 Q 652 622 651 656 Q 650 677 638 684 Q 613 700 592 706 C 564 717 548 722 565 698 Q 566 695 572 690 Q 591 663 599 624 Q 615 536 620 436 L 622 397 Z" fill="black" /></g></svg>