<?xml version='1.0' encoding='utf-8'?>
<svg xmlns="http://www.w3.org/2000/svg" version="1.1" viewBox="0 0 1024 1024"><g transform="scale(1, -1) translate(0, -900)"><path d="M 547 391 Q 617 412 670 419 Q 683 420 685 417 Q 692 407 691 379 Q 690 301 675 266 Q 662 238 636 240 Q 611 246 590 254 Q 568 260 584 239 Q 627 200 647 171 Q 663 155 677 169 Q 728 205 744 349 Q 744 397 762 422 Q 772 434 767 443 Q 758 453 712 471 Q 693 478 677 465 Q 647 446 532 425 C 503 419 518 383 547 391 Z" fill="black" /></g></svg>