<?xml version='1.0' encoding='utf-8'?>
<svg xmlns="http://www.w3.org/2000/svg" version="1.1" viewBox="0 0 1024 1024"><g transform="scale(1, -1) translate(0, -900)"><path d="M 600 404 Q 594 2 605 -27 Q 606 -33 610 -37 Q 616 -44 623 -42 Q 641 -30 644 25 Q 653 113 651 201 Q 648 255 649 411 L 649 447 Q 649 496 651 556 L 654 602 Q 654 615 664 659 Q 667 677 653 686 Q 637 696 625 703 C 599 718 561 723 573 695 Q 600 632 603 614 Q 603 602 603 587 L 603 547 Q 602 498 601 438 L 600 404 Z" fill="black" /></g></svg>