<?xml version='1.0' encoding='utf-8'?>
<svg xmlns="http://www.w3.org/2000/svg" version="1.1" viewBox="0 0 1024 1024"><g transform="scale(1, -1) translate(0, -900)"><path d="M 957 101 Q 945 134 935 231 Q 936 247 929 254 Q 923 258 916 239 Q 879 139 855 109 Q 833 82 771 66 Q 624 30 506 80 Q 460 102 447 132 Q 426 177 435 262 L 438 296 Q 442 344 453 397 Q 453 400 454 402 C 457 418 457 418 442 428 Q 430 440 410 447 Q 397 451 389 446 Q 382 442 388 425 Q 400 386 397 349 Q 384 165 400 113 Q 406 77 438 48 Q 547 -39 774 -9 Q 801 -3 830 3 Q 890 19 947 59 Q 969 74 957 101 Z" fill="black" /></g></svg>