<?xml version='1.0' encoding='utf-8'?>
<svg xmlns="http://www.w3.org/2000/svg" version="1.1" viewBox="0 0 1024 1024"><g transform="scale(1, -1) translate(0, -900)"><path d="M 704 478 Q 743 487 783 491 Q 808 495 812 478 Q 821 343 804 324 Q 794 321 761 332 Q 748 336 745 333 Q 741 329 750 319 Q 787 282 808 254 Q 821 241 833 254 Q 864 287 862 335 Q 856 435 866 484 Q 869 502 860 510 Q 836 531 820 540 Q 808 544 801 536 Q 795 529 707 507 Q 704 507 704 506 L 655 497 Q 615 491 556 481 C 526 476 541 443 570 450 Q 585 454 655 469 L 704 478 Z" fill="black" /></g></svg>