<?xml version='1.0' encoding='utf-8'?>
<svg xmlns="http://www.w3.org/2000/svg" version="1.1" viewBox="0 0 1024 1024"><g transform="scale(1, -1) translate(0, -900)"><path d="M 630 417 Q 630 543 645 572 Q 658 591 646 601 Q 624 620 588 636 Q 567 645 520 619 Q 454 604 431 600 Q 415 599 424 590 Q 433 580 447 574 Q 466 568 490 575 Q 517 582 544 591 Q 563 595 569 585 Q 579 552 577 300 Q 571 95 556 71 Q 552 68 467 83 Q 448 89 449 79 Q 513 30 549 -5 Q 562 -24 578 -28 Q 587 -32 595 -22 Q 632 21 633 98 Q 629 209 629 365 L 630 417 Z" fill="black" /></g></svg>