<?xml version='1.0' encoding='utf-8'?>
<svg xmlns="http://www.w3.org/2000/svg" version="1.1" viewBox="0 0 1024 1024"><g transform="scale(1, -1) translate(0, -900)"><path d="M 441 489 Q 468 529 496 579 Q 512 604 538 620 Q 553 627 554 635 Q 554 648 528 664 Q 495 688 482 688 Q 472 688 460 681 Q 370 654 333 653 Q 332 654 330 653 C 300 651 284 637 313 630 Q 352 614 420 638 Q 442 644 450 637 Q 457 633 435 583 Q 422 550 400 516 L 379 484 Q 375 480 373 476 Q 265 328 83 252 Q 73 248 74 244 Q 75 240 82 240 Q 200 236 352 380 Q 386 416 418 457 L 441 489 Z" fill="black" /></g></svg>