<?xml version='1.0' encoding='utf-8'?>
<svg xmlns="http://www.w3.org/2000/svg" version="1.1" viewBox="0 0 1024 1024"><g transform="scale(1, -1) translate(0, -900)"><path d="M 466 305 Q 465 223 464 118 Q 464 96 451 86 Q 442 82 385 94 Q 352 107 355 97 Q 356 90 376 74 Q 434 23 448 -4 Q 464 -37 479 -39 Q 494 -40 509 -5 Q 528 40 526 114 Q 519 229 517 342 L 516 373 Q 515 449 518 524 L 520 581 Q 520 585 521 587 Q 525 675 539 721 Q 555 751 500 773 Q 466 792 447 785 Q 429 778 445 756 Q 467 728 468 694 Q 469 679 469 559 L 469 509 Q 468 442 466 346 L 466 305 Z" fill="black" /></g></svg>