<?xml version='1.0' encoding='utf-8'?>
<svg xmlns="http://www.w3.org/2000/svg" version="1.1" viewBox="0 0 1024 1024"><g transform="scale(1, -1) translate(0, -900)"><path d="M 456 446 Q 480 453 513 465 Q 529 471 537 463 Q 546 451 541 425 Q 528 271 507 205 Q 492 153 474 137 Q 458 118 430 131 Q 411 137 385 147 Q 370 151 371 145 Q 372 135 387 123 Q 420 86 437 58 Q 444 39 459 38 Q 475 39 501 61 Q 532 92 549 150 Q 568 216 590 387 Q 597 429 614 453 Q 627 466 623 480 Q 619 493 552 517 Q 533 524 516 511 Q 488 496 466 485 L 407 466 Q 323 454 322 451 Q 318 444 331 437 Q 349 427 398 431 L 456 446 Z" fill="black" /></g></svg>