<?xml version='1.0' encoding='utf-8'?>
<svg xmlns="http://www.w3.org/2000/svg" version="1.1" viewBox="0 0 1024 1024"><g transform="scale(1, -1) translate(0, -900)"><path d="M 534 475 Q 440 367 254 230 Q 239 218 254 217 Q 294 217 424 311 Q 511 384 566 441 L 592 469 Q 650 533 710 613 Q 729 641 764 668 Q 779 678 773 687 Q 772 697 712 721 Q 697 730 645 704 Q 584 686 523 673 C 494 666 473 649 503 647 Q 521 638 627 662 Q 648 672 658 661 Q 661 654 650 637 Q 611 570 556 501 L 534 475 Z" fill="black" /></g></svg>