<?xml version='1.0' encoding='utf-8'?>
<svg xmlns="http://www.w3.org/2000/svg" version="1.1" viewBox="0 0 1024 1024"><g transform="scale(1, -1) translate(0, -900)"><path d="M 402 404 Q 424 405 442 413 Q 532 443 542 433 Q 548 429 544 407 Q 514 263 523 186 Q 523 102 598 36 Q 659 -9 799 0 Q 881 6 947 42 Q 969 55 959 80 Q 931 161 933 250 Q 929 259 923 260 Q 919 260 912 246 Q 882 120 855 92 Q 792 56 664 73 Q 634 79 618 95 Q 584 122 573 186 Q 560 253 584 343 Q 599 397 629 425 Q 662 449 581 484 Q 554 494 538 484 Q 498 459 387 434 C 358 427 373 398 402 404 Z" fill="black" /></g></svg>