<?xml version='1.0' encoding='utf-8'?>
<svg xmlns="http://www.w3.org/2000/svg" version="1.1" viewBox="0 0 1024 1024"><g transform="scale(1, -1) translate(0, -900)"><path d="M 483 430 Q 392 283 367 269 Q 354 259 357 244 Q 358 231 387 212 Q 399 199 414 213 Q 459 249 549 283 Q 568 287 571 297 Q 574 307 553 304 Q 513 298 461 285 Q 421 269 446 303 Q 482 364 569 488 Q 594 528 618 553 Q 630 565 623 574 Q 610 593 575 609 Q 557 618 548 614 Q 538 610 542 594 Q 548 555 499 458 L 483 430 Z" fill="black" /></g></svg>