<?xml version='1.0' encoding='utf-8'?>
<svg xmlns="http://www.w3.org/2000/svg" version="1.1" viewBox="0 0 1024 1024"><g transform="scale(1, -1) translate(0, -900)"><path d="M 583 434 Q 632 450 714 469 Q 723 472 731 475 C 759 485 743 501 713 496 Q 617 481 517 455 Q 507 451 503 454 Q 502 457 507 466 Q 603 595 624 617 Q 636 626 630 639 Q 624 649 590 667 C 564 682 536 686 542 657 Q 543 656 544 651 Q 557 603 488 508 Q 466 474 417 441 Q 404 429 407 418 Q 411 402 437 382 Q 447 372 461 382 Q 491 409 548 424 L 583 434 Z" fill="black" /></g></svg>