<?xml version='1.0' encoding='utf-8'?>
<svg xmlns="http://www.w3.org/2000/svg" version="1.1" viewBox="0 0 1024 1024"><g transform="scale(1, -1) translate(0, -900)"><path d="M 944 118 Q 928 146 902 234 Q 901 250 893 254 Q 886 257 884 239 Q 868 142 852 111 Q 819 75 717 80 Q 677 83 646 96 Q 618 109 611 128 Q 590 170 602 287 L 607 327 Q 611 357 617 389 Q 621 407 610 417 Q 600 427 584 434 C 558 449 544 449 551 420 Q 551 419 552 417 Q 564 375 559 316 L 557 279 Q 547 104 590 65 Q 680 -4 854 33 Q 855 34 860 35 Q 900 47 940 74 Q 959 92 944 118 Z" fill="black" /></g></svg>