<?xml version='1.0' encoding='utf-8'?>
<svg xmlns="http://www.w3.org/2000/svg" version="1.1" viewBox="0 0 1024 1024"><g transform="scale(1, -1) translate(0, -900)"><path d="M 576 279 Q 577 292 580 304 L 582 334 Q 583 347 584 362 Q 584 390 585 416 L 586 452 Q 587 498 590 543 L 591 577 Q 592 620 595 659 L 598 701 Q 601 726 623 785 Q 630 800 619 812 Q 597 831 555 843 Q 530 850 520 842 Q 510 835 518 822 Q 542 785 545 735 Q 545 713 546 691 L 547 649 Q 547 609 546 567 L 546 534 Q 545 489 542 443 L 539 409 Q 535 376 534 340 Q 533 333 532 325 L 528 295 Q 507 172 447 110 Q 392 55 275 2 Q 262 -4 261 -9 Q 262 -13 274 -14 Q 293 -18 342 -2 Q 424 20 482 75 Q 548 138 569 238 L 576 279 Z" fill="black" /></g></svg>