<?xml version='1.0' encoding='utf-8'?>
<svg xmlns="http://www.w3.org/2000/svg" version="1.1" viewBox="0 0 1024 1024"><g transform="scale(1, -1) translate(0, -900)"><path d="M 580 304 Q 634 314 715 323 Q 760 330 777 327 Q 790 327 796 315 Q 803 299 775 232 Q 772 220 760 222 Q 735 229 703 240 Q 678 249 695 224 Q 740 175 747 150 Q 753 137 766 137 Q 779 136 795 148 Q 816 167 840 235 Q 855 277 872 294 Q 888 313 877 324 Q 853 348 820 368 Q 810 377 730 359 Q 655 350 582 334 L 532 325 Q 490 319 461 310 Q 436 306 423 305 Q 417 306 418 318 Q 427 354 448 394 C 456 410 456 410 433 427 Q 423 437 409 445 Q 399 452 389 446 Q 382 442 388 425 Q 397 400 385 367 Q 367 319 351 302 Q 341 287 349 272 Q 356 247 368 240 Q 378 234 400 250 Q 436 277 528 295 L 580 304 Z" fill="black" /></g></svg>