<?xml version='1.0' encoding='utf-8'?>
<svg xmlns="http://www.w3.org/2000/svg" version="1.1" viewBox="0 0 1024 1024"><g transform="scale(1, -1) translate(0, -900)"><path d="M 668 177 Q 737 54 833 -18 Q 897 -61 926 -59 Q 945 -53 936 -25 Q 932 27 935 176 Q 935 198 927 198 Q 920 198 915 178 Q 899 133 883 95 Q 870 56 855 56 Q 842 55 812 76 Q 731 149 697 217 L 674 262 Q 622 373 582 545 L 572 592 Q 554 686 559 762 Q 569 807 508 825 Q 469 838 449 829 Q 427 820 440 800 Q 492 760 496 724 Q 511 645 527 577 L 537 535 Q 586 337 647 217 L 668 177 Z" fill="black" /></g></svg>