<?xml version='1.0' encoding='utf-8'?>
<svg xmlns="http://www.w3.org/2000/svg" version="1.1" viewBox="0 0 1024 1024"><g transform="scale(1, -1) translate(0, -900)"><path d="M 755 161 Q 765 136 788 85 Q 797 67 807 68 Q 823 71 833 96 Q 864 160 885 351 Q 891 402 914 434 Q 933 455 919 469 Q 897 491 847 513 Q 828 523 793 511 Q 739 495 683 480 L 646 471 Q 630 471 570 459 L 523 454 Q 456 450 373 444 C 343 442 381 400 411 403 Q 420 402 429 404 Q 469 411 520 420 L 565 427 Q 602 434 644 440 L 683 446 Q 798 468 818 448 Q 842 399 802 201 Q 801 182 792 180 Q 789 179 777 183 C 749 176 749 176 755 161 Z" fill="black" /></g></svg>