<?xml version='1.0' encoding='utf-8'?>
<svg xmlns="http://www.w3.org/2000/svg" version="1.1" viewBox="0 0 1024 1024"><g transform="scale(1, -1) translate(0, -900)"><path d="M 541 194 Q 545 231 553 270 C 559 299 560 307 538 321 Q 529 330 514 335 Q 501 339 493 335 Q 486 331 491 313 Q 495 298 498 283 L 498 220 Q 489 97 500 61 Q 504 39 525 19 Q 609 -45 792 -11 Q 795 -10 799 -9 Q 841 3 882 29 Q 903 47 887 73 Q 872 103 850 193 Q 849 209 841 214 Q 834 217 831 199 Q 807 100 790 70 Q 757 34 652 37 Q 612 38 581 51 Q 554 63 547 79 Q 534 112 539 172 L 541 194 Z" fill="black" /></g></svg>