<?xml version='1.0' encoding='utf-8'?>
<svg xmlns="http://www.w3.org/2000/svg" version="1.1" viewBox="0 0 1024 1024"><g transform="scale(1, -1) translate(0, -900)"><path d="M 800 395 Q 807 450 818 489 L 831 533 Q 844 581 876 613 Q 892 634 875 652 Q 857 665 800 687 Q 781 694 759 684 Q 660 638 530 616 Q 514 615 516 604 Q 520 597 538 591 Q 560 584 593 593 L 641 605 Q 764 638 773 630 Q 791 614 787 581 Q 783 550 777 521 L 770 484 Q 760 438 750 396 C 743 367 796 365 800 395 Z" fill="black" /></g></svg>