<?xml version='1.0' encoding='utf-8'?>
<svg xmlns="http://www.w3.org/2000/svg" version="1.1" viewBox="0 0 1024 1024"><g transform="scale(1, -1) translate(0, -900)"><path d="M 610 459 Q 609 419 602 361 L 598 323 Q 573 127 422 -4 Q 391 -29 386 -39 Q 385 -46 396 -46 Q 412 -47 434 -33 Q 488 1 520 35 Q 614 131 647 323 Q 647 327 649 332 L 654 372 Q 658 418 664 470 L 667 500 Q 667 516 669 531 Q 673 552 676 563 Q 683 584 662 594 Q 650 601 641 605 C 614 619 582 621 593 593 Q 611 560 611 490 L 610 459 Z" fill="black" /></g></svg>