<?xml version='1.0' encoding='utf-8'?>
<svg xmlns="http://www.w3.org/2000/svg" version="1.1" viewBox="0 0 1024 1024"><g transform="scale(1, -1) translate(0, -900)"><path d="M 671 458 Q 671 473 672 486 L 672 532 Q 672 676 691 748 Q 704 775 680 792 Q 664 804 634 821 Q 610 837 589 822 Q 585 818 591 801 Q 624 753 625 682 Q 625 603 628 522 L 624 380 Q 624 197 609 127 Q 590 49 610 -1 Q 611 -7 615 -14 Q 622 -32 630 -35 Q 637 -42 644 -33 Q 651 -29 662 -8 Q 672 17 670 49 Q 669 92 671 415 L 671 458 Z" fill="black" /></g></svg>