<?xml version='1.0' encoding='utf-8'?>
<svg xmlns="http://www.w3.org/2000/svg" version="1.1" viewBox="0 0 1024 1024"><g transform="scale(1, -1) translate(0, -900)"><path d="M 228 352 Q 238 351 253 356 Q 382 404 771 426 Q 786 427 792 418 Q 801 411 799 368 Q 792 187 762 84 Q 752 50 723 56 Q 692 66 662 77 Q 647 84 646 78 Q 645 71 653 55 Q 717 -21 733 -59 Q 743 -75 753 -74 Q 769 -73 785 -46 Q 824 9 850 182 Q 871 380 888 404 Q 909 428 893 435 Q 877 454 834 474 Q 807 492 778 481 Q 745 471 662 461 L 605 455 Q 557 451 516 444 L 485 440 Q 433 436 392 425 L 347 416 Q 280 403 214 394 C 184 390 199 346 228 352 Z" fill="black" /></g></svg>