<?xml version='1.0' encoding='utf-8'?>
<svg xmlns="http://www.w3.org/2000/svg" version="1.1" viewBox="0 0 1024 1024"><g transform="scale(1, -1) translate(0, -900)"><path d="M 575 436 Q 576 452 580 466 Q 581 473 581 479 C 582 484 582 484 571 493 Q 549 512 529 522 Q 511 529 502 524 Q 492 517 501 502 Q 546 412 517 146 Q 508 110 482 73 Q 472 57 479 35 Q 491 10 504 -2 Q 517 -9 528 8 Q 541 38 672 167 Q 688 180 692 190 Q 696 200 686 199 Q 673 199 573 131 Q 567 127 565 132 Q 574 234 574 422 L 575 436 Z" fill="black" /></g></svg>