<?xml version='1.0' encoding='utf-8'?>
<svg xmlns="http://www.w3.org/2000/svg" version="1.1" viewBox="0 0 1024 1024"><g transform="scale(1, -1) translate(0, -900)"><path d="M 701 177 Q 747 83 827 13 Q 884 -38 912 -38 Q 931 -34 926 -6 Q 922 39 927 170 Q 927 194 919 195 Q 910 195 880 111 Q 864 72 836 89 Q 827 95 818 104 Q 770 152 733 216 L 707 268 Q 673 346 653 446 L 642 492 Q 603 675 620 779 Q 632 816 580 837 Q 547 852 529 844 Q 510 838 519 820 Q 562 781 562 750 Q 580 594 602 482 L 611 440 Q 627 349 678 227 L 701 177 Z" fill="black" /></g></svg>