<?xml version='1.0' encoding='utf-8'?>
<svg xmlns="http://www.w3.org/2000/svg" version="1.1" viewBox="0 0 1024 1024"><g transform="scale(1, -1) translate(0, -900)"><path d="M 617 348 Q 666 336 739 361 Q 761 365 769 359 Q 776 353 751 305 Q 628 53 312 -51 Q 302 -55 302 -60 Q 302 -64 310 -65 Q 430 -77 605 50 Q 633 74 664 102 Q 739 174 819 295 Q 838 322 867 338 Q 883 345 885 354 Q 886 367 858 388 Q 824 415 808 416 Q 796 417 784 409 Q 706 390 646 379 C 617 373 587 352 617 348 Z" fill="black" /></g></svg>