<?xml version='1.0' encoding='utf-8'?>
<svg xmlns="http://www.w3.org/2000/svg" version="1.1" viewBox="0 0 1024 1024"><g transform="scale(1, -1) translate(0, -900)"><path d="M 908 486 Q 895 517 885 570 Q 884 585 877 590 Q 870 594 866 576 Q 847 515 835 504 Q 828 497 809 491 Q 743 476 700 492 Q 672 508 669 611 L 669 635 Q 673 722 690 764 Q 700 792 684 807 Q 638 841 623 837 Q 610 833 617 816 Q 635 782 631 732 Q 625 498 658 470 Q 674 455 714 445 Q 838 421 891 445 Q 919 458 908 486 Z" fill="black" /></g></svg>