<?xml version='1.0' encoding='utf-8'?>
<svg xmlns="http://www.w3.org/2000/svg" version="1.1" viewBox="0 0 1024 1024"><g transform="scale(1, -1) translate(0, -900)"><path d="M 765 629 Q 704 623 653 614 L 613 607 Q 561 598 516 584 Q 497 580 501 603 Q 504 633 508 664 Q 511 686 501 699 Q 488 715 465 727 Q 455 731 445 730 Q 435 726 443 709 Q 462 667 456 625 Q 452 585 436 567 Q 420 551 426 539 Q 436 524 452 515 Q 465 508 474 515 Q 502 552 713 591 Q 756 598 768 593 C 798 589 795 632 765 629 Z" fill="black" /></g></svg>