<?xml version='1.0' encoding='utf-8'?>
<svg xmlns="http://www.w3.org/2000/svg" version="1.1" viewBox="0 0 1024 1024"><g transform="scale(1, -1) translate(0, -900)"><path d="M 568 392 Q 613 371 700 410 Q 722 417 732 411 Q 739 407 720 352 Q 702 297 667 243 L 640 203 Q 541 67 371 -18 Q 361 -22 362 -28 Q 363 -32 371 -32 Q 480 -32 619 99 Q 646 127 674 161 Q 732 234 789 351 Q 805 381 832 400 Q 848 409 848 418 Q 847 431 817 449 Q 780 471 764 472 Q 752 471 740 462 Q 653 423 596 417 Q 592 417 589 416 C 559 412 539 400 568 392 Z" fill="black" /></g></svg>