<?xml version='1.0' encoding='utf-8'?>
<svg xmlns="http://www.w3.org/2000/svg" version="1.1" viewBox="0 0 1024 1024"><g transform="scale(1, -1) translate(0, -900)"><path d="M 480 705 Q 468 715 442 728 Q 420 741 410 732 Q 403 725 411 708 Q 430 671 433 603 Q 440 374 422 162 Q 418 120 393 82 Q 383 66 392 44 Q 399 20 411 11 Q 421 2 440 16 Q 501 55 594 70 Q 700 86 903 79 Q 928 78 930 90 Q 931 106 900 129 Q 884 142 763 125 Q 583 115 506 101 Q 473 97 479 150 Q 485 345 486 586 Q 485 638 491 671 C 494 696 494 696 480 705 Z" fill="black" /></g></svg>