<?xml version='1.0' encoding='utf-8'?>
<svg xmlns="http://www.w3.org/2000/svg" version="1.1" viewBox="0 0 1024 1024"><g transform="scale(1, -1) translate(0, -900)"><path d="M 479 645 Q 479 646 480 647 Q 479 680 483 706 Q 487 722 477 730 Q 455 748 432 756 Q 416 762 406 757 Q 396 750 409 732 Q 451 669 424 496 Q 415 474 399 445 Q 387 426 396 414 Q 405 401 430 391 Q 446 384 458 401 Q 473 432 551 486 Q 579 502 590 521 Q 597 531 589 532 Q 586 532 496 495 Q 486 491 480 494 Q 471 495 473 515 Q 477 578 478 618 L 479 645 Z" fill="black" /></g></svg>