<?xml version='1.0' encoding='utf-8'?>
<svg xmlns="http://www.w3.org/2000/svg" version="1.1" viewBox="0 0 1024 1024"><g transform="scale(1, -1) translate(0, -900)"><path d="M 919 461 Q 901 506 890 583 Q 889 598 881 602 Q 874 606 871 588 Q 859 491 846 474 Q 831 453 747 449 Q 702 450 684 457 Q 668 464 663 476 Q 653 503 648 558 L 647 603 Q 650 706 670 756 Q 680 784 664 799 Q 618 833 604 830 Q 591 824 597 809 Q 615 775 611 724 Q 608 631 610 571 L 611 538 Q 612 457 644 432 Q 680 402 818 404 Q 879 405 904 418 Q 931 433 919 461 Z" fill="black" /></g></svg>