<?xml version='1.0' encoding='utf-8'?>
<svg xmlns="http://www.w3.org/2000/svg" version="1.1" viewBox="0 0 1024 1024"><g transform="scale(1, -1) translate(0, -900)"><path d="M 453 695 Q 435 708 419 715 Q 400 722 390 716 Q 378 709 389 693 Q 449 576 416 193 Q 413 141 370 88 Q 357 72 365 47 Q 377 19 390 6 Q 403 -3 417 15 Q 435 45 593 159 Q 614 172 620 181 Q 624 191 614 193 Q 596 193 486 141 Q 467 132 467 150 Q 474 297 474 420 L 473 447 Q 472 493 471 536 L 471 558 Q 468 612 476 655 Q 477 659 477 662 C 479 678 478 679 453 695 Z" fill="black" /></g></svg>