<?xml version='1.0' encoding='utf-8'?>
<svg xmlns="http://www.w3.org/2000/svg" version="1.1" viewBox="0 0 1024 1024"><g transform="scale(1, -1) translate(0, -900)"><path d="M 718 658 Q 625 648 525 626 Q 515 622 511 625 Q 510 629 515 638 Q 611 764 631 784 Q 644 794 637 807 Q 631 819 584 842 Q 568 849 559 846 Q 546 840 552 820 Q 567 760 474 653 Q 453 634 424 614 Q 411 602 414 591 Q 418 575 444 555 Q 454 545 467 554 Q 515 587 717 630 Q 727 633 735 636 C 763 646 748 661 718 658 Z" fill="black" /></g></svg>