<?xml version='1.0' encoding='utf-8'?>
<svg xmlns="http://www.w3.org/2000/svg" version="1.1" viewBox="0 0 1024 1024"><g transform="scale(1, -1) translate(0, -900)"><path d="M 473 289 Q 483 267 483 243 Q 487 150 480 119 Q 476 88 464 70 Q 451 48 461 24 Q 474 -10 492 -21 Q 504 -28 516 -8 Q 543 32 637 137 Q 655 153 655 162 Q 656 175 635 162 Q 601 141 563 118 Q 545 105 536 109 Q 529 113 528 131 Q 531 246 536 275 Q 540 296 526 308 Q 510 323 497 330 C 472 346 462 317 473 289 Z" fill="black" /></g></svg>