<?xml version='1.0' encoding='utf-8'?>
<svg xmlns="http://www.w3.org/2000/svg" version="1.1" viewBox="0 0 1024 1024"><g transform="scale(1, -1) translate(0, -900)"><path d="M 755 71 Q 742 70 676 105 Q 667 109 667 104 Q 666 100 676 90 Q 716 41 734 7 Q 744 -14 757 -14 Q 778 -15 797 7 Q 867 68 883 215 Q 896 315 900 469 Q 900 503 921 531 Q 933 544 931 552 Q 930 559 911 571 Q 886 590 851 598 Q 826 605 810 596 Q 797 590 764 578 Q 719 562 688 554 Q 678 553 671 548 C 642 539 627 521 657 522 Q 684 519 785 543 Q 828 552 832 546 Q 854 504 836 282 Q 824 180 791 108 Q 775 74 755 71 Z" fill="black" /></g></svg>