<?xml version='1.0' encoding='utf-8'?>
<svg xmlns="http://www.w3.org/2000/svg" version="1.1" viewBox="0 0 1024 1024"><g transform="scale(1, -1) translate(0, -900)"><path d="M 595 596 Q 628 606 669 613 Q 709 622 720 621 Q 736 611 735 604 Q 735 594 712 537 Q 708 524 713 521 Q 720 518 734 529 Q 780 566 819 579 Q 850 592 850 599 Q 849 608 781 652 Q 760 667 672 645 Q 647 644 603 630 L 548 618 Q 526 615 504 609 Q 474 602 447 597 C 418 591 418 573 447 566 Q 466 559 488 564 Q 510 574 538 581 L 595 596 Z" fill="black" /></g></svg>