<?xml version='1.0' encoding='utf-8'?>
<svg xmlns="http://www.w3.org/2000/svg" version="1.1" viewBox="0 0 1024 1024"><g transform="scale(1, -1) translate(0, -900)"><path d="M 529 452 Q 574 461 704 486 Q 725 490 730 480 Q 740 444 748 247 Q 751 70 738 49 Q 732 45 651 56 Q 630 60 633 51 Q 697 6 734 -26 Q 749 -45 764 -49 Q 774 -52 782 -42 Q 819 13 816 64 Q 780 419 807 469 Q 820 488 807 499 Q 785 518 748 533 Q 730 540 714 532 Q 675 513 650 503 L 608 492 Q 569 486 514 481 C 484 478 500 446 529 452 Z" fill="black" /></g></svg>