<?xml version='1.0' encoding='utf-8'?>
<svg xmlns="http://www.w3.org/2000/svg" version="1.1" viewBox="0 0 1024 1024"><g transform="scale(1, -1) translate(0, -900)"><path d="M 683 234 Q 740 83 833 -3 Q 891 -55 922 -55 Q 943 -51 936 -22 Q 933 24 942 158 Q 943 182 935 183 Q 934 183 889 98 Q 871 61 846 76 Q 836 82 825 92 Q 768 155 719 263 L 703 312 Q 696 339 665 489 L 658 530 Q 639 681 655 767 Q 668 810 612 833 Q 576 849 555 843 Q 534 836 544 816 Q 590 773 590 737 Q 600 613 615 516 L 621 478 Q 636 375 669 275 L 683 234 Z" fill="black" /></g></svg>