<?xml version='1.0' encoding='utf-8'?>
<svg xmlns="http://www.w3.org/2000/svg" version="1.1" viewBox="0 0 1024 1024"><g transform="scale(1, -1) translate(0, -900)"><path d="M 733 413 Q 751 382 768 372 Q 778 362 798 386 Q 820 420 872 606 Q 884 640 911 667 Q 927 680 914 696 Q 898 715 852 747 Q 833 757 774 744 Q 762 743 573 708 Q 503 695 447 685 C 417 680 447 642 476 651 Q 476 652 478 652 Q 521 665 581 676 L 630 685 Q 789 718 809 699 Q 825 677 819 656 Q 774 482 758 457 Q 754 447 741 442 C 724 427 724 427 733 413 Z" fill="black" /></g></svg>