<?xml version='1.0' encoding='utf-8'?>
<svg xmlns="http://www.w3.org/2000/svg" version="1.1" viewBox="0 0 1024 1024"><g transform="scale(1, -1) translate(0, -900)"><path d="M 645 232 Q 630 271 619 280 L 607 289 Q 600 293 591 297 Q 572 304 563 299 Q 551 295 563 282 Q 590 260 598 226 L 604 189 Q 616 80 586 21 Q 573 5 550 15 Q 522 28 495 40 Q 486 44 488 34 Q 491 27 506 12 Q 537 -25 546 -52 Q 553 -68 567 -68 Q 579 -68 604 -49 Q 629 -30 643 4 Q 659 58 657 133 Q 656 167 652 194 L 645 232 Z" fill="black" /></g></svg>