<?xml version='1.0' encoding='utf-8'?>
<svg xmlns="http://www.w3.org/2000/svg" version="1.1" viewBox="0 0 1024 1024"><g transform="scale(1, -1) translate(0, -900)"><path d="M 581 210 Q 581 69 597 43 Q 610 30 619 49 Q 631 76 634 220 L 634 259 Q 635 296 635 339 L 635 382 Q 635 424 635 467 L 635 499 Q 636 563 638 612 L 639 650 Q 642 752 660 781 Q 667 796 648 810 Q 626 829 585 839 Q 567 843 556 831 Q 546 824 558 812 Q 585 790 587 756 Q 587 710 587 640 L 587 603 Q 587 552 587 489 L 587 457 Q 587 415 585 364 L 585 327 Q 584 279 582 244 L 581 210 Z" fill="black" /></g></svg>