<?xml version='1.0' encoding='utf-8'?>
<svg xmlns="http://www.w3.org/2000/svg" version="1.1" viewBox="0 0 1024 1024"><g transform="scale(1, -1) translate(0, -900)"><path d="M 635 467 Q 680 477 728 485 Q 750 491 762 478 Q 772 472 776 425 Q 789 265 780 83 Q 779 56 769 49 Q 756 39 689 50 Q 673 53 674 43 Q 675 36 688 30 Q 749 -12 781 -45 Q 802 -64 815 -62 Q 827 -58 838 -30 Q 853 16 851 81 Q 830 417 846 454 Q 859 478 849 491 Q 839 506 791 529 Q 772 538 753 533 Q 714 520 635 499 L 587 489 Q 523 479 457 468 C 427 463 450 420 479 429 Q 491 435 587 457 L 635 467 Z" fill="black" /></g></svg>