<?xml version='1.0' encoding='utf-8'?>
<svg xmlns="http://www.w3.org/2000/svg" version="1.1" viewBox="0 0 1024 1024"><g transform="scale(1, -1) translate(0, -900)"><path d="M 726 628 Q 597 619 511 592 Q 480 585 497 609 Q 510 631 552 681 Q 616 760 628 769 Q 638 776 642 785 Q 646 798 625 815 Q 588 842 560 842 Q 545 842 538 836 Q 535 829 545 819 Q 579 776 444 603 Q 387 570 402 523 Q 411 499 425 500 Q 431 501 447 512 Q 535 572 702 599 Q 711 600 720 601 Q 730 602 742 604 C 772 608 756 630 726 628 Z" fill="black" /></g></svg>