<?xml version='1.0' encoding='utf-8'?>
<svg xmlns="http://www.w3.org/2000/svg" version="1.1" viewBox="0 0 1024 1024"><g transform="scale(1, -1) translate(0, -900)"><path d="M 655 120 Q 698 178 736 266 Q 749 294 770 310 Q 789 325 777 338 Q 765 351 735 364 Q 713 373 685 361 Q 658 351 623 341 Q 598 335 563 329 C 533 324 505 302 535 298 Q 566 291 607 302 Q 656 320 666 320 Q 687 316 680 294 Q 658 209 618 152 L 591 120 Q 518 41 357 -1 Q 344 -5 354 -13 Q 361 -17 410 -15 Q 471 -11 543 27 Q 586 49 622 83 L 655 120 Z" fill="black" /></g></svg>