<?xml version='1.0' encoding='utf-8'?>
<svg xmlns="http://www.w3.org/2000/svg" version="1.1" viewBox="0 0 1024 1024"><g transform="scale(1, -1) translate(0, -900)"><path d="M 453 379 Q 425 378 426 371 Q 422 356 446 345 Q 473 329 487 332 Q 503 333 526 348 Q 670 426 694 403 Q 694 400 658 350 Q 627 311 615 305 Q 585 286 588 240 Q 588 221 596 216 Q 603 210 616 218 Q 643 233 719 351 Q 738 384 764 394 Q 771 398 773 405 Q 774 417 744 438 Q 713 459 698 460 Q 691 460 683 455 Q 614 413 453 379 Z" fill="black" /></g></svg>