<?xml version='1.0' encoding='utf-8'?>
<svg xmlns="http://www.w3.org/2000/svg" version="1.1" viewBox="0 0 1024 1024"><g transform="scale(1, -1) translate(0, -900)"><path d="M 723 341 Q 735 387 746 416 L 764 457 Q 780 490 800 505 Q 816 524 802 541 Q 729 602 672 570 Q 626 555 586 544 L 533 533 Q 469 523 400 515 Q 384 514 386 505 Q 389 498 406 491 Q 430 481 463 491 Q 497 498 535 505 L 583 514 Q 691 541 706 527 Q 718 514 704 447 L 696 413 Q 684 376 673 340 C 664 311 715 312 723 341 Z" fill="black" /></g></svg>