<?xml version='1.0' encoding='utf-8'?>
<svg xmlns="http://www.w3.org/2000/svg" version="1.1" viewBox="0 0 1024 1024"><g transform="scale(1, -1) translate(0, -900)"><path d="M 535 505 Q 535 468 534 423 L 533 394 Q 533 390 533 382 Q 532 343 529 310 L 526 276 Q 526 237 532 219 Q 538 209 546 214 Q 561 226 565 281 L 568 317 Q 571 360 575 400 L 577 428 Q 578 459 581 490 Q 582 503 583 514 L 586 544 Q 589 569 593 584 Q 602 602 591 613 Q 578 626 551 639 Q 532 648 510 639 Q 500 632 512 617 Q 533 583 533 533 L 535 505 Z" fill="black" /></g></svg>