<?xml version='1.0' encoding='utf-8'?>
<svg xmlns="http://www.w3.org/2000/svg" version="1.1" viewBox="0 0 1024 1024"><g transform="scale(1, -1) translate(0, -900)"><path d="M 656 359 Q 693 366 733 372 Q 760 373 761 355 Q 770 201 753 178 Q 747 174 700 178 Q 684 182 681 177 Q 678 171 689 161 Q 735 124 764 95 Q 779 82 792 96 Q 819 130 820 205 Q 814 307 824 362 Q 828 381 817 391 Q 790 415 772 424 Q 759 430 750 421 Q 744 414 660 390 L 602 376 Q 556 369 477 353 C 448 347 478 312 506 322 Q 524 331 602 347 L 656 359 Z" fill="black" /></g></svg>