<?xml version='1.0' encoding='utf-8'?>
<svg xmlns="http://www.w3.org/2000/svg" version="1.1" viewBox="0 0 1024 1024"><g transform="scale(1, -1) translate(0, -900)"><path d="M 731 399 Q 759 495 796 521 Q 814 542 798 561 Q 780 574 724 601 Q 705 610 681 600 Q 639 584 603 572 L 545 558 Q 496 548 447 542 Q 431 541 432 530 Q 435 521 454 515 Q 481 505 516 517 Q 528 520 540 521 L 594 532 Q 630 539 667 547 Q 686 551 694 543 Q 704 533 702 510 Q 689 444 673 391 C 665 362 722 370 731 399 Z" fill="black" /></g></svg>