<?xml version='1.0' encoding='utf-8'?>
<svg xmlns="http://www.w3.org/2000/svg" version="1.1" viewBox="0 0 1024 1024"><g transform="scale(1, -1) translate(0, -900)"><path d="M 662 117 Q 698 166 730 239 Q 743 267 765 285 Q 784 300 772 314 Q 759 327 728 340 Q 706 349 677 336 Q 652 326 620 317 Q 593 310 557 304 C 527 299 504 282 533 276 Q 567 266 611 278 Q 650 294 658 295 Q 679 291 670 267 Q 654 198 622 149 L 599 119 Q 533 44 397 8 Q 382 4 394 -5 Q 400 -9 443 -7 Q 551 2 633 82 L 662 117 Z" fill="black" /></g></svg>