<?xml version='1.0' encoding='utf-8'?>
<svg xmlns="http://www.w3.org/2000/svg" version="1.1" viewBox="0 0 1024 1024"><g transform="scale(1, -1) translate(0, -900)"><path d="M 639 123 Q 681 184 718 278 Q 731 308 750 327 Q 769 343 755 357 Q 742 369 710 380 Q 691 386 606 350 Q 510 323 470 316 Q 455 315 451 306 Q 447 299 467 291 Q 507 278 560 297 Q 627 325 640 325 Q 662 328 661 304 Q 640 216 601 155 Q 600 155 600 154 L 578 125 Q 503 38 348 -4 Q 335 -8 346 -17 Q 353 -21 400 -19 Q 511 -10 612 89 L 639 123 Z" fill="black" /></g></svg>