<?xml version='1.0' encoding='utf-8'?>
<svg xmlns="http://www.w3.org/2000/svg" version="1.1" viewBox="0 0 1024 1024"><g transform="scale(1, -1) translate(0, -900)"><path d="M 599 293 Q 645 305 685 309 Q 704 310 707 305 Q 716 292 711 259 Q 701 165 677 123 Q 658 89 629 95 Q 601 102 575 110 Q 550 117 569 93 Q 615 53 638 20 Q 656 -1 673 15 Q 701 34 723 69 Q 747 109 769 237 Q 776 282 793 304 Q 806 317 800 327 Q 790 339 740 361 Q 719 371 700 357 Q 679 347 610 329 L 546 314 Q 488 304 438 300 Q 422 299 418 291 Q 417 284 440 272 Q 464 257 483 264 Q 508 271 538 278 L 599 293 Z" fill="black" /></g></svg>