<?xml version='1.0' encoding='utf-8'?>
<svg xmlns="http://www.w3.org/2000/svg" version="1.1" viewBox="0 0 1024 1024"><g transform="scale(1, -1) translate(0, -900)"><path d="M 941 74 Q 923 116 911 190 Q 908 206 901 210 Q 894 214 891 195 Q 878 104 865 87 Q 837 57 713 52 Q 646 53 618 64 Q 593 77 587 93 Q 571 135 578 233 L 585 274 Q 586 290 593 302 Q 603 330 585 347 Q 536 381 521 378 Q 508 371 515 355 Q 534 321 532 267 Q 531 264 531 260 L 531 221 Q 532 115 541 89 Q 550 55 575 36 Q 626 -3 810 5 Q 892 9 925 28 Q 953 44 941 74 Z" fill="black" /></g></svg>