<?xml version='1.0' encoding='utf-8'?>
<svg xmlns="http://www.w3.org/2000/svg" version="1.1" viewBox="0 0 1024 1024"><g transform="scale(1, -1) translate(0, -900)"><path d="M 734 538 Q 741 539 745 541 Q 853 589 863 580 Q 873 565 869 526 Q 862 417 837 369 Q 824 344 803 347 Q 785 354 770 362 Q 748 374 761 348 Q 792 302 806 269 Q 825 248 843 267 Q 871 289 891 328 Q 913 374 924 511 Q 928 560 944 584 Q 954 597 949 606 Q 939 616 889 634 Q 870 640 852 626 Q 840 617 791 599 Q 751 583 719 574 C 690 565 706 528 734 538 Z" fill="black" /></g></svg>