<?xml version='1.0' encoding='utf-8'?>
<svg xmlns="http://www.w3.org/2000/svg" version="1.1" viewBox="0 0 1024 1024"><g transform="scale(1, -1) translate(0, -900)"><path d="M 537 517 Q 549 547 557 578 L 566 620 Q 575 674 579 692 L 587 735 Q 591 765 605 790 Q 614 809 597 818 Q 546 854 520 844 Q 507 840 513 824 Q 531 791 526 723 L 524 683 Q 520 649 511 608 L 501 568 Q 495 544 480 510 L 462 472 Q 390 352 263 269 Q 250 259 263 256 Q 278 256 313 271 Q 377 301 424 347 Q 478 393 520 482 L 537 517 Z" fill="black" /></g></svg>