<?xml version='1.0' encoding='utf-8'?>
<svg xmlns="http://www.w3.org/2000/svg" version="1.1" viewBox="0 0 1024 1024"><g transform="scale(1, -1) translate(0, -900)"><path d="M 702 487 Q 718 465 733 457 Q 743 450 759 471 Q 775 499 809 650 Q 818 681 842 706 Q 855 719 844 733 Q 828 751 785 778 Q 766 788 749 781 Q 719 774 683 768 Q 634 759 570 748 Q 518 738 478 730 C 449 724 472 690 500 699 Q 527 712 707 736 Q 735 740 745 731 Q 758 713 756 696 Q 728 540 711 522 C 697 495 696 494 702 487 Z" fill="black" /></g></svg>