<?xml version='1.0' encoding='utf-8'?>
<svg xmlns="http://www.w3.org/2000/svg" version="1.1" viewBox="0 0 1024 1024"><g transform="scale(1, -1) translate(0, -900)"><path d="M 535 399 Q 566 406 596 410 Q 621 414 624 398 Q 633 272 616 252 Q 609 248 565 251 Q 552 254 548 249 Q 547 245 556 236 Q 599 205 626 181 Q 639 171 649 183 Q 673 213 673 286 Q 667 355 678 404 Q 681 422 672 430 Q 648 451 631 459 Q 621 463 612 456 Q 608 449 536 430 L 493 421 Q 463 417 420 407 C 391 400 399 366 428 375 Q 455 384 493 390 L 535 399 Z" fill="black" /></g></svg>