<?xml version='1.0' encoding='utf-8'?>
<svg xmlns="http://www.w3.org/2000/svg" version="1.1" viewBox="0 0 1024 1024"><g transform="scale(1, -1) translate(0, -900)"><path d="M 824 421 Q 814 436 799 482 Q 798 494 792 497 Q 788 500 785 487 Q 766 435 755 418 Q 748 411 728 405 Q 689 393 648 405 Q 635 409 631 418 Q 625 433 624 472 L 629 512 Q 630 530 636 549 Q 640 564 630 572 Q 620 582 601 590 Q 591 593 583 589 Q 579 586 582 572 Q 588 551 589 500 L 588 463 Q 585 397 607 379 Q 665 342 771 368 Q 796 375 821 391 Q 834 403 824 421 Z" fill="black" /></g></svg>