<?xml version='1.0' encoding='utf-8'?>
<svg xmlns="http://www.w3.org/2000/svg" version="1.1" viewBox="0 0 1024 1024"><g transform="scale(1, -1) translate(0, -900)"><path d="M 533 371 Q 540 372 555 377 Q 676 407 697 399 Q 709 393 708 366 Q 724 200 717 71 Q 716 44 701 39 Q 691 35 634 46 Q 621 49 622 40 Q 623 33 639 23 Q 675 -7 702 -39 Q 718 -55 733 -53 Q 749 -49 769 -2 Q 793 46 788 93 Q 778 208 769 315 Q 765 357 782 390 Q 794 406 779 420 Q 761 436 722 448 Q 700 458 683 446 Q 667 439 634 427 Q 564 408 526 399 C 497 392 504 363 533 371 Z" fill="black" /></g></svg>