<?xml version='1.0' encoding='utf-8'?>
<svg xmlns="http://www.w3.org/2000/svg" version="1.1" viewBox="0 0 1024 1024"><g transform="scale(1, -1) translate(0, -900)"><path d="M 773 367 Q 819 368 872 368 Q 935 365 942 375 Q 948 385 932 399 Q 880 438 813 422 Q 801 421 788 416 L 733 407 Q 682 400 628 392 L 580 385 Q 534 381 486 374 L 444 369 Q 386 365 324 356 Q 305 355 318 339 Q 331 326 348 321 Q 367 315 383 319 Q 414 328 451 335 L 489 342 Q 528 348 580 354 L 627 360 Q 669 364 726 366 L 773 367 Z" fill="black" /></g></svg>