<?xml version='1.0' encoding='utf-8'?>
<svg xmlns="http://www.w3.org/2000/svg" version="1.1" viewBox="0 0 1024 1024"><g transform="scale(1, -1) translate(0, -900)"><path d="M 483 669 Q 483 670 485 670 Q 597 700 736 722 Q 760 726 772 714 Q 788 705 793 636 Q 812 404 800 138 Q 800 99 785 89 Q 773 80 714 93 Q 698 97 698 87 Q 699 80 712 72 Q 766 26 793 -9 Q 815 -30 828 -27 Q 841 -24 853 6 Q 869 52 869 122 Q 848 491 850 627 Q 850 667 862 692 Q 875 714 864 727 Q 852 743 803 767 Q 782 779 712 757 Q 586 727 458 710 C 428 706 454 661 483 669 Z" fill="black" /></g></svg>