<?xml version='1.0' encoding='utf-8'?>
<svg xmlns="http://www.w3.org/2000/svg" version="1.1" viewBox="0 0 1024 1024"><g transform="scale(1, -1) translate(0, -900)"><path d="M 727 466 Q 727 494 728 521 L 728 570 Q 728 571 729 571 Q 729 668 746 735 Q 755 750 752 763 Q 745 772 691 805 Q 667 821 648 806 Q 642 802 649 786 Q 683 737 684 688 Q 685 627 687 557 L 685 401 Q 682 197 677 163 Q 671 123 661 84 Q 649 42 676 -15 Q 683 -31 691 -35 Q 697 -42 704 -33 Q 711 -29 721 -8 Q 731 16 729 46 Q 728 89 727 410 L 727 466 Z" fill="black" /></g></svg>