<?xml version='1.0' encoding='utf-8'?>
<svg xmlns="http://www.w3.org/2000/svg" version="1.1" viewBox="0 0 1024 1024"><g transform="scale(1, -1) translate(0, -900)"><path d="M 818 553 Q 824 109 803 76 Q 799 70 779 74 Q 752 81 724 90 Q 703 97 704 87 Q 762 32 792 -6 Q 805 -27 822 -32 Q 832 -36 840 -26 Q 885 29 883 82 Q 870 311 868 683 Q 867 746 882 772 Q 895 793 882 804 Q 860 823 821 840 Q 802 847 786 841 Q 728 811 645 802 C 615 798 628 764 657 770 Q 717 782 772 792 Q 791 795 799 783 Q 814 770 814 721 Q 815 646 818 576 L 818 553 Z" fill="black" /></g></svg>