<?xml version='1.0' encoding='utf-8'?>
<svg xmlns="http://www.w3.org/2000/svg" version="1.1" viewBox="0 0 1024 1024"><g transform="scale(1, -1) translate(0, -900)"><path d="M 310 444 Q 311 445 318 446 Q 475 482 668 506 Q 690 510 703 498 Q 713 492 718 441 Q 734 272 727 77 Q 727 49 717 40 Q 701 30 625 46 Q 609 49 610 39 Q 611 32 624 26 Q 693 -17 729 -53 Q 751 -72 763 -69 Q 776 -66 786 -37 Q 801 9 798 74 Q 770 434 786 472 Q 799 500 790 512 Q 780 527 732 550 Q 713 559 694 554 Q 654 541 578 524 L 540 516 Q 530 516 520 513 Q 411 494 297 484 C 267 481 281 437 310 444 Z" fill="black" /></g></svg>