<?xml version='1.0' encoding='utf-8'?>
<svg xmlns="http://www.w3.org/2000/svg" version="1.1" viewBox="0 0 1024 1024"><g transform="scale(1, -1) translate(0, -900)"><path d="M 461 417 Q 461 454 463 494 L 464 541 Q 464 641 483 711 Q 496 732 473 751 Q 458 761 432 778 Q 411 793 392 779 Q 388 775 393 760 Q 423 715 423 670 Q 424 604 425 528 L 420 382 Q 411 192 407 170 Q 385 79 398 47 Q 401 37 406 24 Q 413 8 420 5 Q 424 -1 432 6 Q 439 10 449 30 Q 458 52 457 81 Q 456 118 461 387 L 461 417 Z" fill="black" /></g></svg>