<?xml version='1.0' encoding='utf-8'?>
<svg xmlns="http://www.w3.org/2000/svg" version="1.1" viewBox="0 0 1024 1024"><g transform="scale(1, -1) translate(0, -900)"><path d="M 708 41 Q 692 38 609 74 Q 599 78 599 72 Q 598 68 610 57 Q 661 5 684 -33 Q 697 -57 712 -55 Q 737 -56 759 -29 Q 840 47 856 226 Q 866 347 866 532 Q 865 574 888 607 Q 901 622 901 631 Q 898 640 878 653 Q 850 672 811 683 Q 789 690 719 666 Q 704 663 686 657 Q 565 626 474 612 C 444 607 433 604 462 596 Q 489 578 549 593 Q 631 606 693 619 Q 784 635 791 615 Q 797 597 801 552 Q 816 228 751 87 Q 733 44 708 41 Z" fill="black" /></g></svg>