<?xml version='1.0' encoding='utf-8'?>
<svg xmlns="http://www.w3.org/2000/svg" version="1.1" viewBox="0 0 1024 1024"><g transform="scale(1, -1) translate(0, -900)"><path d="M 744 176 Q 783 234 816 328 Q 829 358 848 377 Q 867 393 854 407 Q 841 420 808 431 Q 784 438 756 424 Q 731 414 694 403 Q 658 393 599 385 Q 586 384 581 378 Q 577 371 595 363 Q 631 350 679 363 Q 728 382 738 382 Q 763 378 754 351 Q 739 273 706 213 L 681 177 Q 620 108 512 73 Q 497 67 510 59 Q 516 55 555 57 Q 637 64 711 137 L 744 176 Z" fill="black" /></g></svg>