<?xml version='1.0' encoding='utf-8'?>
<svg xmlns="http://www.w3.org/2000/svg" version="1.1" viewBox="0 0 1024 1024"><g transform="scale(1, -1) translate(0, -900)"><path d="M 497 271 Q 493 210 475 136 Q 459 76 499 22 Q 512 6 524 21 Q 545 49 543 178 Q 547 638 551 668 Q 555 692 550 701 Q 541 723 498 739 Q 486 745 473 739 Q 466 735 472 720 Q 476 704 482 689 Q 498 656 501 590 Q 502 574 502 556 L 503 521 Q 503 479 502 427 L 501 391 Q 500 351 499 302 Q 498 302 498 300 L 497 271 Z" fill="black" /></g></svg>