<?xml version='1.0' encoding='utf-8'?>
<svg xmlns="http://www.w3.org/2000/svg" version="1.1" viewBox="0 0 1024 1024"><g transform="scale(1, -1) translate(0, -900)"><path d="M 840 340 Q 841 343 843 345 Q 859 393 900 429 Q 925 448 911 464 Q 887 489 843 508 Q 824 518 804 512 Q 786 503 745 489 Q 723 483 724 506 Q 731 618 739 641 Q 746 665 729 675 Q 717 684 707 690 C 682 707 652 710 661 681 Q 676 642 676 547 Q 676 504 663 479 Q 653 460 677 436 Q 690 421 707 432 Q 731 454 787 468 Q 808 469 814 456 Q 821 440 795 366 Q 789 350 784 333 C 775 304 828 313 840 340 Z" fill="black" /></g></svg>