<?xml version='1.0' encoding='utf-8'?>
<svg xmlns="http://www.w3.org/2000/svg" version="1.1" viewBox="0 0 1024 1024"><g transform="scale(1, -1) translate(0, -900)"><path d="M 521 411 Q 542 415 564 418 Q 592 419 583 433 Q 574 445 559 451 Q 544 457 523 447 L 479 435 Q 388 417 386 418 Q 385 419 387 430 Q 415 506 456 599 L 480 652 Q 480 653 481 653 Q 511 722 525 734 Q 537 746 521 764 Q 497 789 479 801 Q 466 808 457 806 Q 450 802 455 782 Q 461 754 428 634 L 412 586 Q 358 451 323 416 Q 308 401 313 387 Q 320 368 330 359 Q 339 350 348 355 Q 411 391 479 401 L 521 411 Z" fill="black" /></g></svg>