<?xml version='1.0' encoding='utf-8'?>
<svg xmlns="http://www.w3.org/2000/svg" version="1.1" viewBox="0 0 1024 1024"><g transform="scale(1, -1) translate(0, -900)"><path d="M 428 314 Q 424 131 419 110 Q 415 85 398 90 Q 380 97 336 108 Q 320 115 316 109 Q 315 102 330 89 Q 394 37 409 8 Q 419 -11 429 -16 Q 439 -19 442 -15 Q 475 24 474 122 Q 473 141 476 352 L 476 383 Q 476 417 479 529 L 480 579 Q 481 717 496 737 Q 508 750 502 762 Q 495 777 471 789 Q 431 808 416 803 Q 397 796 412 779 Q 428 760 430 717 Q 433 680 433 559 L 432 515 Q 432 434 429 355 L 428 314 Z" fill="black" /></g></svg>