<?xml version='1.0' encoding='utf-8'?>
<svg xmlns="http://www.w3.org/2000/svg" version="1.1" viewBox="0 0 1024 1024"><g transform="scale(1, -1) translate(0, -900)"><path d="M 459 282 Q 555 337 589 448 L 598 485 Q 605 522 613 569 L 618 606 Q 619 618 621 630 Q 625 645 627 654 Q 634 670 617 679 Q 608 685 601 688 C 575 702 549 708 562 681 Q 563 681 564 679 Q 576 655 572 592 L 570 561 Q 561 497 556 477 L 545 442 Q 506 349 435 292 Q 423 283 421 278 Q 420 278 420 277 C 400 255 433 266 459 282 Z" fill="black" /></g></svg>