<?xml version='1.0' encoding='utf-8'?>
<svg xmlns="http://www.w3.org/2000/svg" version="1.1" viewBox="0 0 1024 1024"><g transform="scale(1, -1) translate(0, -900)"><path d="M 779 126 Q 809 89 829 55 Q 838 39 849 39 Q 864 40 879 72 Q 895 109 891 153 Q 884 243 875 410 Q 874 438 888 460 Q 897 472 888 482 Q 870 500 821 521 Q 803 528 789 520 Q 744 498 638 472 C 608 465 579 429 629 438 Q 644 439 779 472 Q 798 476 809 469 Q 839 439 824 165 Q 823 161 823 155 Q 819 145 812 143 C 795 118 767 141 779 126 Z" fill="black" /></g></svg>