<?xml version='1.0' encoding='utf-8'?>
<svg xmlns="http://www.w3.org/2000/svg" version="1.1" viewBox="0 0 1024 1024"><g transform="scale(1, -1) translate(0, -900)"><path d="M 748 392 Q 783 347 800 361 Q 802 363 809 372 Q 823 400 846 529 Q 853 560 876 585 Q 888 597 877 610 Q 860 626 819 651 Q 804 657 790 655 L 727 639 L 711 635 Q 666 627 529 597 Q 510 592 498 590 C 469 584 486 552 515 561 Q 549 572 602 582 L 653 593 Q 764 620 782 604 Q 795 588 793 574 Q 774 436 760 420 C 748 393 748 393 748 392 Z" fill="black" /></g></svg>