<?xml version='1.0' encoding='utf-8'?>
<svg xmlns="http://www.w3.org/2000/svg" version="1.1" viewBox="0 0 1024 1024"><g transform="scale(1, -1) translate(0, -900)"><path d="M 809 555 Q 809 547 815 539 Q 820 535 826 535 Q 841 536 857 565 Q 865 581 875 608 Q 891 655 926 682 Q 945 696 929 710 Q 913 727 866 753 Q 855 761 793 748 Q 707 740 604 717 L 495 701 C 465 697 490 660 519 667 Q 522 667 541 673 Q 560 678 591 684 L 615 688 Q 653 697 708 704 L 744 709 Q 813 723 839 710 Q 851 706 827 625 Q 817 590 813 580 L 809 555 Z" fill="black" /></g></svg>