<?xml version='1.0' encoding='utf-8'?>
<svg xmlns="http://www.w3.org/2000/svg" version="1.1" viewBox="0 0 1024 1024"><g transform="scale(1, -1) translate(0, -900)"><path d="M 709 163 Q 754 224 783 320 Q 790 353 809 368 Q 824 381 807 396 Q 788 412 757 425 Q 738 432 717 422 Q 695 412 671 402 L 626 388 Q 599 382 572 378 Q 547 375 537 369 Q 530 362 546 354 Q 571 341 607 354 Q 659 366 710 379 Q 728 385 729 365 Q 729 281 674 195 L 651 164 Q 594 98 429 49 Q 414 46 423 38 Q 430 32 457 35 Q 553 47 609 73 Q 646 92 679 126 L 709 163 Z" fill="black" /></g></svg>