<?xml version='1.0' encoding='utf-8'?>
<svg xmlns="http://www.w3.org/2000/svg" version="1.1" viewBox="0 0 1024 1024"><g transform="scale(1, -1) translate(0, -900)"><path d="M 633 -25 Q 641 -65 657 -63 Q 684 -47 680 188 Q 679 202 678 239 L 678 280 Q 677 341 677 383 L 678 415 Q 678 430 679 468 L 679 484 L 684 521 Q 690 557 690 562 Q 688 572 672 582 Q 666 585 653 593 C 627 608 586 607 602 582 Q 613 570 623 541 Q 627 523 628 509 L 629 476 L 629 404 L 629 376 L 629 274 L 628 233 Q 628 12 633 -25 Z" fill="black" /></g></svg>