<?xml version='1.0' encoding='utf-8'?>
<svg xmlns="http://www.w3.org/2000/svg" version="1.1" viewBox="0 0 1024 1024"><g transform="scale(1, -1) translate(0, -900)"><path d="M 514 398 Q 565 407 616 411 Q 643 412 644 394 Q 647 325 640 317 Q 630 308 575 312 Q 559 313 557 309 Q 554 303 566 295 Q 618 264 652 237 Q 665 225 677 239 Q 698 269 700 322 Q 700 380 704 399 Q 708 418 699 427 Q 674 451 656 461 Q 644 467 635 459 Q 628 449 523 427 Q 519 427 515 425 L 463 418 Q 417 412 343 402 C 313 398 322 365 352 369 Q 356 369 364 370 Q 413 382 463 390 L 514 398 Z" fill="black" /></g></svg>