<?xml version='1.0' encoding='utf-8'?>
<svg xmlns="http://www.w3.org/2000/svg" version="1.1" viewBox="0 0 1024 1024"><g transform="scale(1, -1) translate(0, -900)"><path d="M 490 528 Q 721 570 775 560 Q 791 550 790 542 Q 790 539 762 471 Q 755 458 761 453 Q 768 449 786 461 Q 841 495 887 507 Q 924 517 924 526 Q 923 536 847 592 Q 826 608 801 604 Q 696 589 556 568 L 520 563 Q 441 553 343 536 Q 288 529 232 521 C 202 517 198 485 228 483 Q 247 477 302 490 Q 413 521 445 521 L 490 528 Z" fill="black" /></g></svg>