<?xml version='1.0' encoding='utf-8'?>
<svg xmlns="http://www.w3.org/2000/svg" version="1.1" viewBox="0 0 1024 1024"><g transform="scale(1, -1) translate(0, -900)"><path d="M 566 13 Q 572 -12 578 -21 Q 584 -28 591 -26 Q 609 -14 612 41 Q 622 146 619 248 Q 615 306 616 475 L 616 511 Q 616 542 616 575 L 617 604 Q 616 638 618 674 Q 618 678 618 681 L 620 715 Q 620 727 632 787 Q 635 805 621 814 Q 590 836 574 838 Q 561 842 546 834 Q 537 827 545 816 Q 551 803 558 791 Q 574 761 575 718 Q 575 711 575 702 L 575 672 Q 574 638 574 597 L 574 567 Q 573 536 572 501 L 571 466 Q 559 82 566 13 Z" fill="black" /></g></svg>