<?xml version='1.0' encoding='utf-8'?>
<svg xmlns="http://www.w3.org/2000/svg" version="1.1" viewBox="0 0 1024 1024"><g transform="scale(1, -1) translate(0, -900)"><path d="M 628 244 Q 628 304 629 358 L 629 394 Q 629 448 631 496 L 631 532 Q 632 574 633 613 L 634 650 Q 635 675 636 691 Q 643 710 633 721 Q 620 733 608 741 C 584 759 545 758 559 732 Q 566 719 573 707 Q 582 683 582 634 L 583 604 Q 583 574 582 521 L 582 491 Q 582 446 582 386 L 582 351 Q 582 297 582 233 C 582 203 628 214 628 244 Z" fill="black" /></g></svg>