<?xml version='1.0' encoding='utf-8'?>
<svg xmlns="http://www.w3.org/2000/svg" version="1.1" viewBox="0 0 1024 1024"><g transform="scale(1, -1) translate(0, -900)"><path d="M 611 498 Q 765 529 810 526 Q 823 513 820 506 Q 820 503 804 442 Q 798 429 805 425 Q 812 422 827 434 Q 873 471 912 484 Q 945 497 943 504 Q 942 513 872 556 Q 851 571 734 546 Q 683 540 669 535 L 638 529 Q 577 522 496 505 Q 453 498 411 491 C 381 486 381 470 410 462 Q 429 453 450 459 Q 504 477 562 489 L 611 498 Z" fill="black" /></g></svg>