<?xml version='1.0' encoding='utf-8'?>
<svg xmlns="http://www.w3.org/2000/svg" version="1.1" viewBox="0 0 1024 1024"><g transform="scale(1, -1) translate(0, -900)"><path d="M 430 195 Q 503 240 587 327 L 610 353 Q 692 458 712 469 Q 727 475 728 483 Q 729 495 704 513 Q 674 537 661 538 Q 651 539 639 532 Q 594 517 533 502 C 504 495 478 481 508 476 Q 542 464 600 489 Q 619 492 625 486 Q 629 482 609 442 Q 593 411 569 380 L 550 358 Q 463 271 431 248 Q 343 185 227 151 Q 218 150 218 144 Q 218 140 225 139 Q 295 130 404 182 L 430 195 Z" fill="black" /></g></svg>