<?xml version='1.0' encoding='utf-8'?>
<svg xmlns="http://www.w3.org/2000/svg" version="1.1" viewBox="0 0 1024 1024"><g transform="scale(1, -1) translate(0, -900)"><path d="M 634 348 Q 671 354 711 356 Q 741 357 742 337 Q 748 216 734 200 Q 728 196 679 195 Q 663 198 661 193 Q 658 187 670 179 Q 718 146 747 121 Q 762 109 773 123 Q 795 157 797 222 Q 794 306 802 344 Q 806 363 796 372 Q 771 396 752 406 Q 740 412 731 403 Q 725 396 635 377 L 585 370 Q 542 366 474 358 C 444 355 460 319 490 324 Q 494 324 500 325 Q 542 335 584 340 L 634 348 Z" fill="black" /></g></svg>