<?xml version='1.0' encoding='utf-8'?>
<svg xmlns="http://www.w3.org/2000/svg" version="1.1" viewBox="0 0 1024 1024"><g transform="scale(1, -1) translate(0, -900)"><path d="M 742 537 Q 746 568 754 590 L 771 635 Q 781 660 797 675 Q 813 694 798 710 Q 780 722 729 744 Q 711 751 691 741 Q 654 726 620 715 L 575 702 Q 509 689 440 679 Q 424 678 426 668 Q 429 661 446 655 Q 470 645 503 657 Q 539 664 575 672 L 618 681 Q 643 688 672 693 Q 694 699 703 690 Q 713 681 709 622 L 704 586 Q 700 558 693 532 C 686 503 737 507 742 537 Z" fill="black" /></g></svg>