<?xml version='1.0' encoding='utf-8'?>
<svg xmlns="http://www.w3.org/2000/svg" version="1.1" viewBox="0 0 1024 1024"><g transform="scale(1, -1) translate(0, -900)"><path d="M 389 369 Q 390 365 396 355 Q 423 321 428 216 Q 427 213 428 207 Q 428 102 381 40 Q 360 19 395 -23 Q 398 -26 402 -30 Q 414 -37 426 -24 Q 460 27 569 134 Q 582 144 584 154 Q 585 160 580 159 Q 573 158 486 102 Q 479 98 476 100 Q 472 103 472 114 Q 471 313 474 336 Q 478 352 466 361 Q 456 370 425 378 C 396 386 377 392 389 369 Z" fill="black" /></g></svg>