<?xml version='1.0' encoding='utf-8'?>
<svg xmlns="http://www.w3.org/2000/svg" version="1.1" viewBox="0 0 1024 1024"><g transform="scale(1, -1) translate(0, -900)"><path d="M 660 454 Q 708 461 794 470 Q 807 471 812 465 Q 822 458 822 410 Q 828 214 803 101 Q 796 68 769 72 Q 741 78 716 82 Q 703 88 702 81 Q 701 74 711 61 Q 772 0 787 -31 Q 799 -47 810 -44 Q 826 -41 839 -12 Q 876 57 884 273 Q 884 426 899 456 Q 915 475 901 481 Q 886 496 851 510 Q 829 523 805 513 Q 780 504 711 494 Q 630 484 568 470 L 523 460 Q 510 459 499 455 Q 444 442 388 430 C 359 424 376 393 404 402 Q 455 423 628 449 L 660 454 Z" fill="black" /></g></svg>