<?xml version='1.0' encoding='utf-8'?>
<svg xmlns="http://www.w3.org/2000/svg" version="1.1" viewBox="0 0 1024 1024"><g transform="scale(1, -1) translate(0, -900)"><path d="M 509 254 Q 749 275 854 265 Q 918 262 924 267 Q 931 280 919 292 Q 891 320 847 340 Q 832 346 806 338 Q 736 323 665 314 Q 631 311 602 307 L 572 304 Q 541 303 518 298 L 476 293 Q 359 283 299 275 Q 229 265 126 264 Q 113 264 111 253 Q 110 240 129 226 Q 145 213 176 201 Q 188 197 205 205 Q 221 211 295 223 Q 391 244 509 254 Z" fill="black" /></g></svg>