<?xml version='1.0' encoding='utf-8'?>
<svg xmlns="http://www.w3.org/2000/svg" version="1.1" viewBox="0 0 1024 1024"><g transform="scale(1, -1) translate(0, -900)"><path d="M 704 528 Q 719 509 733 501 Q 743 494 758 515 Q 773 540 801 683 Q 810 714 833 738 Q 846 751 835 764 Q 819 780 777 807 Q 762 816 687 800 Q 656 800 426 763 C 396 758 415 723 444 730 Q 443 731 446 731 Q 492 741 557 751 L 599 756 Q 642 763 693 767 Q 727 771 738 758 Q 751 742 749 727 Q 730 594 718 573 Q 714 561 700 559 Q 696 559 695 557 C 683 552 684 550 704 528 Z" fill="black" /></g></svg>