<?xml version='1.0' encoding='utf-8'?>
<svg xmlns="http://www.w3.org/2000/svg" version="1.1" viewBox="0 0 1024 1024"><g transform="scale(1, -1) translate(0, -900)"><path d="M 674 34 Q 704 -3 724 -39 Q 734 -58 745 -57 Q 761 -56 777 -22 Q 795 15 792 62 Q 785 125 779 241 Q 778 272 794 294 Q 803 307 794 316 Q 775 335 723 359 Q 705 368 690 359 Q 633 332 497 303 C 468 297 437 260 492 269 Q 510 270 673 309 Q 698 313 711 305 Q 738 268 720 65 Q 716 49 703 53 C 677 39 672 36 674 34 Z" fill="black" /></g></svg>