<?xml version='1.0' encoding='utf-8'?>
<svg xmlns="http://www.w3.org/2000/svg" version="1.1" viewBox="0 0 1024 1024"><g transform="scale(1, -1) translate(0, -900)"><path d="M 726 144 Q 796 45 803 38 Q 896 -61 942 -64 Q 963 -60 957 -30 Q 953 16 959 148 Q 960 173 951 175 Q 948 175 907 92 Q 891 55 863 71 Q 854 77 843 86 Q 797 132 758 193 L 730 245 Q 676 356 643 541 L 635 588 Q 619 699 628 775 Q 640 817 584 837 Q 550 852 529 844 Q 510 837 519 818 Q 565 778 566 743 Q 578 652 592 574 L 600 530 Q 634 337 702 193 L 726 144 Z" fill="black" /></g></svg>