<?xml version='1.0' encoding='utf-8'?>
<svg xmlns="http://www.w3.org/2000/svg" version="1.1" viewBox="0 0 1024 1024"><g transform="scale(1, -1) translate(0, -900)"><path d="M 427 702 Q 434 683 412 501 Q 373 258 256 88 Q 229 43 200 3 Q 194 -4 192 -10 Q 189 -20 200 -19 Q 230 -13 313 97 Q 340 136 366 184 Q 441 340 472 550 L 477 587 Q 481 617 486 644 Q 489 665 497 689 C 503 710 503 710 490 721 Q 477 736 451 748 Q 432 760 419 755 Q 406 748 412 734 Q 418 725 425 707 Q 424 707 425 706 Q 425 705 427 702 Z" fill="black" /></g></svg>