<?xml version='1.0' encoding='utf-8'?>
<svg xmlns="http://www.w3.org/2000/svg" version="1.1" viewBox="0 0 1024 1024"><g transform="scale(1, -1) translate(0, -900)"><path d="M 616 404 Q 739 423 777 424 Q 790 424 795 417 Q 807 393 801 251 Q 795 145 764 85 Q 754 60 737 57 Q 725 54 661 74 Q 651 78 651 72 Q 650 68 662 58 Q 701 13 717 -19 Q 727 -38 739 -39 Q 755 -40 772 -23 Q 830 20 852 142 Q 865 224 876 348 Q 877 376 895 398 Q 908 411 908 420 Q 907 429 887 442 Q 859 463 822 474 Q 798 483 744 464 Q 725 461 700 454 Q 585 430 498 420 C 468 416 461 415 481 407 Q 484 403 496 399 Q 529 390 566 398 Q 572 399 578 399 L 616 404 Z" fill="black" /></g></svg>