<?xml version='1.0' encoding='utf-8'?>
<svg xmlns="http://www.w3.org/2000/svg" version="1.1" viewBox="0 0 1024 1024"><g transform="scale(1, -1) translate(0, -900)"><path d="M 518 376 L 660 406 Q 682 410 687 399 Q 705 354 706 82 Q 703 70 699 62 Q 695 56 677 60 Q 656 64 636 69 Q 615 78 616 67 Q 662 16 687 -21 Q 700 -40 717 -47 Q 726 -51 735 -41 Q 780 10 779 66 Q 743 336 769 388 Q 782 409 769 419 Q 747 438 707 454 Q 688 461 672 454 Q 602 418 493 406 C 463 402 489 370 518 376 Z" fill="black" /></g></svg>