<?xml version='1.0' encoding='utf-8'?>
<svg xmlns="http://www.w3.org/2000/svg" version="1.1" viewBox="0 0 1024 1024"><g transform="scale(1, -1) translate(0, -900)"><path d="M 658 271 Q 728 278 815 281 Q 834 278 841 268 Q 847 261 842 248 Q 829 88 814 67 Q 810 57 798 61 Q 776 65 752 69 Q 724 75 743 55 Q 795 1 815 -35 Q 825 -50 838 -41 Q 868 -17 885 96 Q 895 216 917 242 Q 933 261 927 269 Q 920 282 872 315 Q 854 330 839 324 Q 811 315 760 308 Q 610 295 523 282 L 482 275 Q 466 274 453 270 Q 396 260 354 254 C 324 250 346 205 375 214 Q 381 215 389 218 Q 420 230 466 240 L 496 246 Q 541 259 619 267 L 658 271 Z" fill="black" /></g></svg>