<?xml version='1.0' encoding='utf-8'?>
<svg xmlns="http://www.w3.org/2000/svg" version="1.1" viewBox="0 0 1024 1024"><g transform="scale(1, -1) translate(0, -900)"><path d="M 562 738 Q 571 750 583 762 Q 608 778 592 799 Q 570 830 549 838 Q 534 842 526 838 Q 519 832 525 820 Q 546 778 460 671 Q 427 638 424 637 Q 402 630 395 616 Q 388 589 392 578 Q 398 562 412 571 Q 424 584 612 611 C 642 615 653 630 623 633 Q 610 636 587 634 Q 520 630 481 630 Q 475 633 476 637 Q 476 640 550 725 L 562 738 Z" fill="black" /></g></svg>