<?xml version='1.0' encoding='utf-8'?>
<svg xmlns="http://www.w3.org/2000/svg" version="1.1" viewBox="0 0 1024 1024"><g transform="scale(1, -1) translate(0, -900)"><path d="M 724 512 Q 724 508 726 504 Q 730 488 744 489 Q 757 490 766 505 Q 781 526 806 623 Q 824 675 860 705 Q 879 721 864 737 Q 845 755 795 782 Q 780 791 700 774 Q 664 774 534 747 Q 468 735 427 729 C 397 724 422 691 451 697 Q 455 697 461 698 Q 498 710 561 720 L 601 726 Q 739 751 761 739 Q 771 732 766 696 Q 744 588 725 531 L 724 512 Z" fill="black" /></g></svg>