<?xml version='1.0' encoding='utf-8'?>
<svg xmlns="http://www.w3.org/2000/svg" version="1.1" viewBox="0 0 1024 1024"><g transform="scale(1, -1) translate(0, -900)"><path d="M 449 301 Q 456 314 444 325 Q 426 344 398 355 Q 385 359 378 352 Q 372 348 382 332 Q 398 307 396 270 Q 395 183 364 140 Q 354 127 358 116 Q 365 98 380 84 Q 390 74 407 86 Q 488 137 679 129 Q 694 129 712 127 Q 733 123 742 129 Q 748 135 743 146 Q 737 158 702 179 Q 683 191 611 179 Q 596 186 442 152 Q 432 148 430 152 Q 423 158 427 174 Q 439 273 449 301 Z" fill="black" /></g></svg>