<?xml version='1.0' encoding='utf-8'?>
<svg xmlns="http://www.w3.org/2000/svg" version="1.1" viewBox="0 0 1024 1024"><g transform="scale(1, -1) translate(0, -900)"><path d="M 653 522 Q 687 510 713 519 Q 732 528 825 551 Q 841 555 848 548 Q 864 526 865 477 Q 865 222 813 85 Q 803 61 791 56 Q 782 50 703 66 Q 693 69 690 65 Q 687 58 703 46 Q 740 9 760 -24 Q 778 -52 795 -48 Q 843 -33 882 86 Q 906 167 925 435 Q 928 505 947 528 Q 963 547 942 564 Q 876 607 845 596 Q 799 580 667 544 C 638 536 624 529 653 522 Z" fill="black" /></g></svg>