<?xml version='1.0' encoding='utf-8'?>
<svg xmlns="http://www.w3.org/2000/svg" version="1.1" viewBox="0 0 1024 1024"><g transform="scale(1, -1) translate(0, -900)"><path d="M 757 330 Q 773 305 789 297 Q 799 290 814 310 Q 830 337 865 482 Q 875 512 897 535 Q 910 547 899 560 Q 884 576 844 603 Q 825 612 810 606 Q 776 597 732 589 Q 674 579 599 564 Q 551 554 508 545 C 479 539 500 507 529 516 Q 565 528 617 538 L 658 546 Q 704 556 761 565 Q 795 572 807 560 Q 820 544 817 527 Q 789 391 777 370 Q 773 361 763 356 C 748 342 748 342 757 330 Z" fill="black" /></g></svg>