<?xml version='1.0' encoding='utf-8'?>
<svg xmlns="http://www.w3.org/2000/svg" version="1.1" viewBox="0 0 1024 1024"><g transform="scale(1, -1) translate(0, -900)"><path d="M 640 360 Q 640 359 641 357 Q 647 341 660 341 Q 675 342 683 358 Q 696 374 721 452 Q 740 507 778 537 Q 799 553 782 570 Q 764 588 712 617 Q 694 626 637 612 Q 624 612 308 554 C 278 549 291 512 320 521 Q 366 537 447 551 L 507 561 Q 654 586 676 575 Q 686 568 680 536 Q 655 418 644 393 Q 643 393 643 392 C 634 369 634 369 640 360 Z" fill="black" /></g></svg>