<?xml version='1.0' encoding='utf-8'?>
<svg xmlns="http://www.w3.org/2000/svg" version="1.1" viewBox="0 0 1024 1024"><g transform="scale(1, -1) translate(0, -900)"><path d="M 300 254 Q 310 255 319 262 Q 427 284 692 293 Q 716 293 729 280 Q 745 273 748 247 Q 749 183 732 66 Q 731 35 702 37 Q 668 38 640 41 Q 621 42 627 33 Q 631 21 663 2 Q 703 -29 728 -63 Q 740 -75 754 -68 Q 763 -64 779 -30 Q 806 19 807 72 Q 804 252 823 279 Q 835 292 825 305 Q 813 318 765 338 Q 746 345 727 336 Q 699 329 621 324 Q 285 294 279 292 C 249 289 272 244 300 254 Z" fill="black" /></g></svg>