<?xml version='1.0' encoding='utf-8'?>
<svg xmlns="http://www.w3.org/2000/svg" version="1.1" viewBox="0 0 1024 1024"><g transform="scale(1, -1) translate(0, -900)"><path d="M 614 84 Q 672 48 759 -21 Q 784 -42 802 -41 Q 823 -41 823 -21 Q 823 -2 794 44 Q 782 66 753 79 Q 692 106 643 125 L 595 143 Q 555 158 525 165 Q 503 169 514 192 Q 530 229 542 256 L 559 294 Q 560 297 561 298 Q 570 323 580 338 Q 589 345 585 355 Q 579 368 540 394 Q 530 403 519 398 Q 506 394 514 379 Q 524 357 518 333 Q 512 309 506 288 L 495 250 Q 482 213 466 188 Q 457 170 460 158 Q 464 148 481 145 Q 523 135 568 109 L 614 84 Z" fill="black" /></g></svg>