<?xml version='1.0' encoding='utf-8'?>
<svg xmlns="http://www.w3.org/2000/svg" version="1.1" viewBox="0 0 1024 1024"><g transform="scale(1, -1) translate(0, -900)"><path d="M 641 124 Q 672 170 704 233 Q 719 258 738 273 Q 757 286 747 300 Q 735 312 708 325 Q 686 335 660 324 Q 633 315 597 307 Q 566 301 519 296 C 489 293 477 274 507 270 Q 537 263 574 271 Q 631 287 640 286 Q 659 282 653 262 Q 635 201 605 153 L 575 116 Q 503 41 341 3 Q 328 -1 338 -9 Q 344 -13 391 -11 Q 451 -7 519 26 Q 568 48 606 84 L 641 124 Z" fill="black" /></g></svg>