<?xml version='1.0' encoding='utf-8'?>
<svg xmlns="http://www.w3.org/2000/svg" version="1.1" viewBox="0 0 1024 1024"><g transform="scale(1, -1) translate(0, -900)"><path d="M 465 197 Q 468 210 472 222 Q 478 247 484 276 L 488 296 Q 492 324 499 356 L 502 382 Q 503 395 506 410 Q 515 437 515 443 C 519 459 519 459 498 471 Q 461 493 447 493 Q 428 492 441 469 Q 471 408 425 218 Q 410 173 384 121 Q 351 55 269 -4 Q 256 -14 252 -20 Q 249 -27 260 -27 Q 299 -30 366 32 Q 429 89 457 172 L 465 197 Z" fill="black" /></g></svg>