<?xml version='1.0' encoding='utf-8'?>
<svg xmlns="http://www.w3.org/2000/svg" version="1.1" viewBox="0 0 1024 1024"><g transform="scale(1, -1) translate(0, -900)"><path d="M 789 81 Q 799 108 808 134 Q 824 180 859 212 Q 881 234 853 254 Q 828 276 801 292 Q 785 305 761 296 Q 728 286 679 279 Q 592 269 493 253 Q 447 246 410 241 C 380 237 394 200 423 207 Q 463 217 494 221 L 520 226 Q 529 229 622 238 L 668 242 Q 702 246 746 249 Q 762 250 766 242 Q 781 215 728 74 C 718 46 779 53 789 81 Z" fill="black" /></g></svg>