<?xml version='1.0' encoding='utf-8'?>
<svg xmlns="http://www.w3.org/2000/svg" version="1.1" viewBox="0 0 1024 1024"><g transform="scale(1, -1) translate(0, -900)"><path d="M 500 315 Q 552 331 563 329 C 593 331 602 370 573 364 Q 534 357 502 347 L 452 333 Q 415 323 384 309 Q 374 308 376 320 Q 388 399 383 408 Q 371 423 352 434 Q 343 440 334 438 Q 325 435 331 419 Q 346 382 338 343 Q 332 307 317 292 Q 302 277 309 266 Q 319 254 333 246 Q 339 243 355 250 Q 376 272 448 296 L 500 315 Z" fill="black" /></g></svg>