<?xml version='1.0' encoding='utf-8'?>
<svg xmlns="http://www.w3.org/2000/svg" version="1.1" viewBox="0 0 1024 1024"><g transform="scale(1, -1) translate(0, -900)"><path d="M 749 605 Q 758 608 828 628 Q 847 634 853 624 Q 881 549 868 147 Q 864 74 857 63 Q 853 57 835 61 Q 810 68 783 77 Q 764 86 764 76 Q 816 22 845 -16 Q 858 -35 873 -40 Q 882 -44 891 -35 Q 933 13 933 67 Q 921 242 919 529 Q 916 587 930 613 Q 942 632 930 642 Q 908 661 871 675 Q 852 684 806 658 Q 776 646 731 636 C 702 629 720 596 749 605 Z" fill="black" /></g></svg>