<?xml version='1.0' encoding='utf-8'?>
<svg xmlns="http://www.w3.org/2000/svg" version="1.1" viewBox="0 0 1024 1024"><g transform="scale(1, -1) translate(0, -900)"><path d="M 503 263 Q 546 291 691 315 Q 826 337 849 316 Q 861 306 848 262 Q 812 82 777 37 Q 767 24 741 28 Q 710 37 682 45 Q 666 51 666 43 Q 666 37 675 29 Q 724 -26 741 -63 Q 748 -85 768 -75 Q 835 -48 856 26 Q 884 122 906 228 Q 916 268 936 301 Q 951 317 938 331 Q 920 353 881 377 Q 859 390 829 379 Q 780 358 735 354 Q 671 347 541 323 Q 514 313 510 338 C 488 359 476 250 503 263 Z" fill="black" /></g></svg>