<?xml version='1.0' encoding='utf-8'?>
<svg xmlns="http://www.w3.org/2000/svg" version="1.1" viewBox="0 0 1024 1024"><g transform="scale(1, -1) translate(0, -900)"><path d="M 725 401 Q 726 398 728 394 Q 746 357 773 381 Q 791 399 804 441 Q 835 574 869 611 Q 885 627 874 646 Q 858 667 827 689 Q 811 699 794 694 Q 743 681 684 678 Q 663 678 667 668 Q 671 658 686 649 Q 696 646 757 650 Q 779 651 785 646 Q 794 639 787 608 Q 783 589 777 570 L 769 537 Q 757 491 747 448 Q 743 432 733 426 C 720 412 720 412 725 401 Z" fill="black" /></g></svg>