<?xml version='1.0' encoding='utf-8'?>
<svg xmlns="http://www.w3.org/2000/svg" version="1.1" viewBox="0 0 1024 1024"><g transform="scale(1, -1) translate(0, -900)"><path d="M 632 663 Q 657 688 684 723 Q 700 744 721 756 Q 733 760 734 768 Q 735 778 713 793 Q 688 814 676 815 Q 667 815 657 809 Q 545 773 473 766 Q 442 765 440 758 Q 439 755 445 751 Q 484 721 626 768 Q 639 771 644 766 Q 648 762 631 734 Q 616 709 586 678 L 555 651 Q 488 608 427 590 Q 418 589 418 584 Q 418 580 424 580 Q 499 564 596 631 L 632 663 Z" fill="black" /></g></svg>