<?xml version='1.0' encoding='utf-8'?>
<svg xmlns="http://www.w3.org/2000/svg" version="1.1" viewBox="0 0 1024 1024"><g transform="scale(1, -1) translate(0, -900)"><path d="M 571 295 Q 525 285 466 276 Q 451 275 447 266 Q 443 259 463 251 Q 503 238 556 256 Q 641 287 656 286 Q 674 286 671 268 Q 647 187 599 128 L 574 102 Q 487 23 306 -16 Q 291 -19 302 -29 Q 309 -33 364 -31 Q 433 -27 512 8 Q 564 32 608 67 L 638 96 Q 684 151 727 234 Q 742 262 763 280 Q 784 295 771 309 Q 758 322 727 336 Q 703 346 675 333 Q 647 321 613 308 L 571 295 Z" fill="black" /></g></svg>