<?xml version='1.0' encoding='utf-8'?>
<svg xmlns="http://www.w3.org/2000/svg" version="1.1" viewBox="0 0 1024 1024"><g transform="scale(1, -1) translate(0, -900)"><path d="M 506 262 Q 542 331 562 372 L 579 412 Q 589 439 599 464 Q 603 480 610 494 L 626 537 Q 630 547 637 558 Q 649 570 645 583 Q 635 601 614 618 C 592 638 569 640 572 610 Q 578 577 568 541 Q 564 532 562 522 L 549 481 Q 536 441 522 404 L 504 362 Q 503 361 502 356 Q 429 194 272 51 Q 266 47 263 41 Q 259 31 268 31 Q 299 28 399 122 Q 420 144 442 170 Q 470 206 496 247 L 506 262 Z" fill="black" /></g></svg>