<?xml version='1.0' encoding='utf-8'?>
<svg xmlns="http://www.w3.org/2000/svg" version="1.1" viewBox="0 0 1024 1024"><g transform="scale(1, -1) translate(0, -900)"><path d="M 563 730 Q 541 730 542 719 Q 543 709 564 695 Q 589 677 626 688 Q 716 730 795 729 Q 816 729 820 698 Q 820 664 818 562 Q 814 334 820 191 Q 824 86 815 74 Q 811 65 799 65 Q 787 64 714 78 Q 701 81 699 75 Q 698 68 724 50 Q 773 20 807 -11 Q 837 -39 848 -35 Q 858 -34 865 -16 Q 889 32 886 73 Q 853 427 870 608 Q 873 683 894 702 Q 901 714 901 720 Q 901 730 871 751 Q 823 784 798 774 Q 690 735 563 730 Z" fill="black" /></g></svg>