<?xml version='1.0' encoding='utf-8'?>
<svg xmlns="http://www.w3.org/2000/svg" version="1.1" viewBox="0 0 1024 1024"><g transform="scale(1, -1) translate(0, -900)"><path d="M 436 324 Q 445 324 455 328 Q 581 379 801 394 Q 817 394 827 384 Q 834 377 830 362 Q 840 137 826 104 Q 825 98 814 100 Q 783 107 750 114 Q 725 117 743 100 Q 812 51 840 13 Q 855 -2 868 12 Q 884 31 892 62 Q 901 95 888 269 Q 881 333 899 367 Q 912 386 906 394 Q 899 404 850 433 Q 834 446 799 432 Q 517 383 415 360 C 386 354 407 316 436 324 Z" fill="black" /></g></svg>