<?xml version='1.0' encoding='utf-8'?>
<svg xmlns="http://www.w3.org/2000/svg" version="1.1" viewBox="0 0 1024 1024"><g transform="scale(1, -1) translate(0, -900)"><path d="M 661 526 Q 677 498 693 490 Q 702 483 717 501 Q 732 523 763 647 Q 773 675 795 698 Q 807 708 797 722 Q 784 738 744 763 Q 726 772 664 757 Q 616 757 505 729 Q 501 729 498 727 L 467 721 Q 460 721 449 719 C 419 716 438 677 466 687 Q 466 688 468 689 Q 541 708 671 726 Q 699 730 708 720 Q 720 707 717 692 Q 687 562 673 549 C 660 527 660 527 661 526 Z" fill="black" /></g></svg>