<?xml version='1.0' encoding='utf-8'?>
<svg xmlns="http://www.w3.org/2000/svg" version="1.1" viewBox="0 0 1024 1024"><g transform="scale(1, -1) translate(0, -900)"><path d="M 719 42 Q 692 49 664 58 Q 643 65 644 55 Q 701 1 732 -38 Q 745 -59 761 -65 Q 771 -69 780 -59 Q 825 -8 826 47 Q 808 338 833 381 Q 846 400 834 412 Q 812 431 774 448 Q 753 457 707 432 Q 655 414 590 405 Q 574 404 584 394 Q 593 384 608 378 Q 626 374 729 401 Q 748 408 754 397 Q 770 352 757 97 Q 747 45 745 42 Q 739 36 719 42 Z" fill="black" /></g></svg>