<?xml version='1.0' encoding='utf-8'?>
<svg xmlns="http://www.w3.org/2000/svg" version="1.1" viewBox="0 0 1024 1024"><g transform="scale(1, -1) translate(0, -900)"><path d="M 631 592 Q 700 614 727 603 C 756 596 759 640 729 637 Q 680 633 634 625 L 589 618 Q 543 611 502 598 Q 484 594 489 615 Q 501 672 492 687 Q 479 703 459 715 Q 449 721 440 719 Q 431 715 437 699 Q 450 665 445 631 Q 441 598 427 584 Q 411 571 417 557 Q 426 544 441 534 Q 451 527 461 534 Q 479 556 589 582 L 631 592 Z" fill="black" /></g></svg>