<?xml version='1.0' encoding='utf-8'?>
<svg xmlns="http://www.w3.org/2000/svg" version="1.1" viewBox="0 0 1024 1024"><g transform="scale(1, -1) translate(0, -900)"><path d="M 458 36 Q 436 40 413 43 Q 395 47 397 40 Q 446 1 474 -28 Q 484 -44 498 -49 Q 505 -52 513 -43 Q 549 -1 547 44 Q 534 312 556 348 Q 566 364 557 374 Q 539 390 508 404 Q 493 411 480 405 Q 432 381 351 373 Q 338 373 346 365 Q 352 355 365 350 Q 377 347 470 366 Q 486 370 491 361 Q 506 324 493 99 Q 487 45 481 36 Q 475 32 458 36 Z" fill="black" /></g></svg>