<?xml version='1.0' encoding='utf-8'?>
<svg xmlns="http://www.w3.org/2000/svg" version="1.1" viewBox="0 0 1024 1024"><g transform="scale(1, -1) translate(0, -900)"><path d="M 681 545 Q 606 536 527 518 Q 518 515 515 518 Q 514 521 520 527 Q 607 612 624 626 Q 637 633 632 645 Q 628 657 588 683 Q 575 693 565 690 Q 553 686 556 667 Q 565 603 455 525 Q 446 521 437 515 Q 424 506 426 496 Q 429 480 450 460 Q 459 450 471 458 Q 514 486 688 521 Q 692 522 696 523 C 725 530 711 549 681 545 Z" fill="black" /></g></svg>