<?xml version='1.0' encoding='utf-8'?>
<svg xmlns="http://www.w3.org/2000/svg" version="1.1" viewBox="0 0 1024 1024"><g transform="scale(1, -1) translate(0, -900)"><path d="M 339 487 Q 426 506 440 493 Q 447 487 445 474 Q 449 215 432 176 Q 429 169 420 171 Q 395 175 369 179 Q 345 180 362 166 Q 420 126 444 94 Q 460 78 474 93 Q 492 115 499 148 Q 509 182 495 371 Q 488 441 506 477 Q 518 496 512 502 Q 505 512 460 537 Q 445 549 403 532 Q 385 528 362 521 Q 314 512 139 468 C 110 461 132 423 160 433 Q 167 434 176 438 Q 191 445 213 453 L 234 461 Q 265 473 306 480 L 339 487 Z" fill="black" /></g></svg>