<?xml version='1.0' encoding='utf-8'?>
<svg xmlns="http://www.w3.org/2000/svg" version="1.1" viewBox="0 0 1024 1024"><g transform="scale(1, -1) translate(0, -900)"><path d="M 678 151 Q 633 93 558 64 Q 545 58 558 52 Q 562 48 592 50 Q 649 56 705 112 L 736 152 Q 736 153 737 153 Q 767 204 792 285 Q 802 316 821 335 Q 839 353 825 365 Q 810 375 778 385 Q 754 391 728 375 Q 706 365 676 355 Q 645 345 595 337 Q 582 336 577 329 Q 573 322 591 315 Q 627 302 675 317 Q 703 333 710 333 Q 738 332 732 302 Q 720 235 699 189 L 678 151 Z" fill="black" /></g></svg>