<?xml version='1.0' encoding='utf-8'?>
<svg xmlns="http://www.w3.org/2000/svg" version="1.1" viewBox="0 0 1024 1024"><g transform="scale(1, -1) translate(0, -900)"><path d="M 701 181 Q 689 135 679 114 Q 669 98 647 105 Q 583 118 586 122 Q 558 129 580 105 Q 614 71 640 36 Q 659 11 676 20 Q 736 51 761 175 L 769 224 Q 773 266 784 367 L 789 414 Q 798 493 812 509 Q 830 531 817 543 Q 795 564 760 576 Q 744 583 723 576 Q 680 563 648 555 Q 617 548 570 542 C 540 538 552 507 582 511 Q 601 511 703 538 Q 722 542 734 535 Q 749 523 737 406 L 734 366 Q 724 281 712 226 L 701 181 Z" fill="black" /></g></svg>