<?xml version='1.0' encoding='utf-8'?>
<svg xmlns="http://www.w3.org/2000/svg" version="1.1" viewBox="0 0 1024 1024"><g transform="scale(1, -1) translate(0, -900)"><path d="M 572 561 Q 746 595 780 588 Q 795 578 792 570 Q 792 566 769 505 Q 763 492 769 489 Q 776 485 791 496 Q 839 530 879 541 Q 912 551 911 559 Q 910 569 844 616 Q 820 634 716 613 Q 683 612 621 599 L 582 594 Q 545 590 503 582 Q 461 575 421 572 C 391 569 398 550 427 541 Q 446 532 468 537 Q 502 549 542 556 L 572 561 Z" fill="black" /></g></svg>