<?xml version='1.0' encoding='utf-8'?>
<svg xmlns="http://www.w3.org/2000/svg" version="1.1" viewBox="0 0 1024 1024"><g transform="scale(1, -1) translate(0, -900)"><path d="M 732 236 Q 733 232 738 226 Q 753 198 762 198 Q 777 199 792 233 Q 808 258 805 280 Q 778 490 815 547 Q 825 563 817 574 Q 789 599 739 619 Q 723 623 699 615 Q 671 602 637 592 L 597 582 Q 548 572 508 565 C 478 560 491 533 521 535 Q 530 534 539 536 Q 710 582 721 565 Q 736 547 736 484 Q 740 316 732 276 L 732 236 Z" fill="black" /></g></svg>