<?xml version='1.0' encoding='utf-8'?>
<svg xmlns="http://www.w3.org/2000/svg" version="1.1" viewBox="0 0 1024 1024"><g transform="scale(1, -1) translate(0, -900)"><path d="M 601 392 Q 549 392 507 392 Q 488 392 498 403 Q 549 454 594 490 Q 609 503 608 510 Q 608 523 579 556 Q 576 560 572 561 C 549 580 537 586 542 556 L 543 555 Q 552 521 480 437 Q 467 418 440 403 Q 422 393 422 381 Q 425 365 435 346 Q 444 336 456 341 Q 483 354 574 368 Q 575 369 577 368 C 607 371 631 392 601 392 Z" fill="black" /></g></svg>