<?xml version='1.0' encoding='utf-8'?>
<svg xmlns="http://www.w3.org/2000/svg" version="1.1" viewBox="0 0 1024 1024"><g transform="scale(1, -1) translate(0, -900)"><path d="M 761 175 Q 798 171 838 159 Q 854 153 868 159 Q 880 163 875 177 Q 868 196 848 209 Q 835 225 808 223 Q 795 223 769 224 L 712 226 Q 633 227 510 214 Q 494 213 500 232 Q 519 284 539 342 L 550 382 Q 581 496 582 511 C 586 530 586 530 570 542 Q 557 555 538 565 Q 531 569 525 568 C 500 578 500 578 512 555 Q 513 551 517 546 Q 535 515 529 480 Q 520 426 508 377 L 495 332 Q 467 256 426 215 Q 407 202 410 186 Q 414 171 432 154 Q 448 139 469 157 Q 523 193 696 182 Q 697 182 701 181 L 761 175 Z" fill="black" /></g></svg>