<?xml version='1.0' encoding='utf-8'?>
<svg xmlns="http://www.w3.org/2000/svg" version="1.1" viewBox="0 0 1024 1024"><g transform="scale(1, -1) translate(0, -900)"><path d="M 749 439 Q 794 440 951 441 Q 970 441 975 450 Q 979 460 964 474 Q 909 517 851 498 Q 812 492 766 483 L 710 473 Q 688 472 580 455 L 535 449 Q 489 445 441 437 L 397 432 Q 331 426 264 417 Q 245 416 259 399 Q 272 386 290 380 Q 309 376 325 379 Q 365 389 408 398 L 447 406 Q 489 416 535 419 L 579 425 Q 631 432 701 436 L 749 439 Z" fill="black" /></g></svg>