<?xml version='1.0' encoding='utf-8'?>
<svg xmlns="http://www.w3.org/2000/svg" version="1.1" viewBox="0 0 1024 1024"><g transform="scale(1, -1) translate(0, -900)"><path d="M 686 539 Q 723 549 768 557 Q 787 561 797 552 Q 804 548 809 512 Q 819 391 816 253 Q 817 234 809 228 Q 800 219 750 222 Q 737 223 738 215 Q 739 209 750 205 Q 798 172 822 147 Q 841 131 852 134 Q 862 137 871 162 Q 883 201 879 257 Q 857 507 871 535 Q 881 554 871 563 Q 862 576 822 595 Q 803 604 744 584 Q 632 557 557 544 C 527 539 545 503 574 511 Q 587 515 644 529 L 686 539 Z" fill="black" /></g></svg>