<?xml version='1.0' encoding='utf-8'?>
<svg xmlns="http://www.w3.org/2000/svg" version="1.1" viewBox="0 0 1024 1024"><g transform="scale(1, -1) translate(0, -900)"><path d="M 527 292 Q 548 335 566 379 Q 566 382 567 384 L 584 428 Q 590 440 596 450 Q 608 460 604 475 Q 594 494 568 515 Q 564 519 559 522 C 535 541 523 544 529 515 Q 529 514 530 511 Q 539 484 523 431 Q 520 424 517 414 L 503 370 Q 443 214 314 84 Q 310 80 305 75 Q 298 71 295 65 Q 291 55 300 55 Q 327 54 413 129 Q 426 144 441 159 Q 477 202 509 257 Q 509 258 510 259 L 527 292 Z" fill="black" /></g></svg>