<?xml version='1.0' encoding='utf-8'?>
<svg xmlns="http://www.w3.org/2000/svg" version="1.1" viewBox="0 0 1024 1024"><g transform="scale(1, -1) translate(0, -900)"><path d="M 673 586 Q 673 585 674 584 Q 678 568 692 569 Q 705 570 714 585 Q 727 601 752 679 Q 770 730 807 758 Q 826 774 810 790 Q 794 806 744 835 Q 729 844 654 828 Q 629 828 499 802 Q 441 790 401 785 C 371 781 391 744 420 753 Q 450 763 511 774 L 574 785 Q 691 806 709 796 Q 719 789 713 758 Q 689 644 675 616 C 667 595 667 595 673 586 Z" fill="black" /></g></svg>