<?xml version='1.0' encoding='utf-8'?>
<svg xmlns="http://www.w3.org/2000/svg" version="1.1" viewBox="0 0 1024 1024"><g transform="scale(1, -1) translate(0, -900)"><path d="M 424 405 Q 452 401 461 385 Q 473 363 433 197 Q 412 122 383 108 Q 374 105 335 117 Q 302 130 298 126 Q 294 117 309 107 Q 345 80 358 42 Q 362 27 374 22 Q 386 18 415 38 Q 466 86 493 255 Q 505 343 529 360 Q 539 364 540 372 Q 541 381 520 404 Q 493 431 447 432 Q 438 435 433 435 C 403 440 391 412 420 406 L 424 405 Z" fill="black" /></g></svg>