<?xml version='1.0' encoding='utf-8'?>
<svg xmlns="http://www.w3.org/2000/svg" version="1.1" viewBox="0 0 1024 1024"><g transform="scale(1, -1) translate(0, -900)"><path d="M 751 207 Q 790 129 855 69 Q 913 23 942 23 Q 961 27 954 55 Q 950 104 955 244 Q 954 266 947 266 Q 941 266 935 247 Q 920 207 907 174 Q 894 140 881 139 Q 848 139 783 248 L 759 296 Q 702 440 690 615 L 686 663 Q 686 733 693 774 Q 706 814 652 837 Q 618 853 597 846 Q 578 840 586 820 Q 632 778 631 744 Q 635 695 640 648 L 646 605 Q 673 389 731 250 L 751 207 Z" fill="black" /></g></svg>