<?xml version='1.0' encoding='utf-8'?>
<svg xmlns="http://www.w3.org/2000/svg" version="1.1" viewBox="0 0 1024 1024"><g transform="scale(1, -1) translate(0, -900)"><path d="M 449 322 Q 449 343 450 365 L 450 398 Q 450 444 451 495 L 452 525 Q 452 562 453 601 L 454 648 Q 457 712 472 759 Q 479 772 477 786 Q 471 793 420 825 Q 399 841 380 827 Q 376 823 381 808 Q 415 759 415 708 Q 415 674 416 634 L 417 591 Q 417 555 417 516 L 416 487 Q 415 441 413 390 L 411 287 Q 411 184 385 92 Q 375 56 398 0 Q 405 -16 412 -19 Q 418 -25 424 -18 Q 431 -14 441 6 Q 450 28 449 57 Q 448 91 449 298 L 449 322 Z" fill="black" /></g></svg>