<?xml version='1.0' encoding='utf-8'?>
<svg xmlns="http://www.w3.org/2000/svg" version="1.1" viewBox="0 0 1024 1024"><g transform="scale(1, -1) translate(0, -900)"><path d="M 631 444 Q 689 457 756 466 Q 774 470 782 459 Q 792 455 795 408 Q 805 257 796 84 Q 795 59 786 51 Q 774 44 722 60 Q 706 64 706 55 Q 706 48 718 40 Q 764 -6 788 -41 Q 807 -62 821 -59 Q 833 -58 845 -29 Q 866 23 861 161 Q 848 392 867 434 Q 880 455 870 466 Q 860 481 815 504 Q 797 514 779 509 Q 749 500 696 486 L 675 481 Q 660 480 645 475 Q 563 460 476 449 C 446 445 454 409 484 414 Q 490 414 497 415 Q 540 427 590 436 L 631 444 Z" fill="black" /></g></svg>