<?xml version='1.0' encoding='utf-8'?>
<svg xmlns="http://www.w3.org/2000/svg" version="1.1" viewBox="0 0 1024 1024"><g transform="scale(1, -1) translate(0, -900)"><path d="M 586 250 Q 595 271 606 282 Q 616 289 613 298 Q 609 310 582 332 C 559 352 548 358 549 328 Q 555 309 531 243 L 515 207 Q 485 153 486 143 Q 487 133 505 130 Q 551 118 602 92 Q 603 92 605 90 L 652 65 Q 715 28 806 -44 Q 830 -63 846 -63 Q 865 -62 866 -43 Q 866 -24 839 19 Q 826 44 681 102 L 632 120 Q 583 139 547 149 Q 528 153 539 171 Q 552 196 564 214 L 586 250 Z" fill="black" /></g></svg>