<?xml version='1.0' encoding='utf-8'?>
<svg xmlns="http://www.w3.org/2000/svg" version="1.1" viewBox="0 0 1024 1024"><g transform="scale(1, -1) translate(0, -900)"><path d="M 534 294 L 438 242 Q 428 235 425 246 Q 433 357 435 424 L 435 452 Q 436 513 436 539 L 436 566 Q 436 629 440 653 C 442 676 442 676 432 684 Q 388 720 374 709 Q 365 704 372 690 Q 419 597 386 280 Q 386 239 352 196 Q 344 186 347 171 Q 350 147 368 131 Q 378 124 388 139 Q 404 167 547 276 C 571 294 560 308 534 294 Z" fill="black" /></g></svg>