<?xml version='1.0' encoding='utf-8'?>
<svg xmlns="http://www.w3.org/2000/svg" version="1.1" viewBox="0 0 1024 1024"><g transform="scale(1, -1) translate(0, -900)"><path d="M 770 267 Q 758 83 792 45 Q 806 33 819 24 Q 857 0 899 10 Q 925 16 929 16 Q 956 24 982 45 Q 1002 60 986 84 Q 973 112 954 187 Q 953 200 947 206 Q 940 206 937 192 Q 918 107 904 82 Q 898 74 877 69 L 862 65 Q 858 65 837 76 Q 804 97 804 164 Q 806 203 809 237 L 821 310 Q 824 329 815 336 Q 812 339 809 341 Q 781 363 762 357 Q 757 352 760 339 Q 772 303 770 267 Z" fill="black" /></g></svg>