<?xml version='1.0' encoding='utf-8'?>
<svg xmlns="http://www.w3.org/2000/svg" version="1.1" viewBox="0 0 1024 1024"><g transform="scale(1, -1) translate(0, -900)"><path d="M 777 629 Q 823 633 880 636 Q 937 636 944 645 Q 948 655 934 665 Q 886 698 826 677 Q 808 674 790 668 L 724 654 Q 640 642 633 636 L 589 629 Q 544 622 501 614 L 460 607 Q 418 603 377 594 Q 361 591 373 579 Q 385 569 399 565 Q 415 561 428 565 Q 447 572 469 577 L 508 587 Q 545 597 590 604 L 632 612 Q 669 619 719 624 L 777 629 Z" fill="black" /></g></svg>