<?xml version='1.0' encoding='utf-8'?>
<svg xmlns="http://www.w3.org/2000/svg" version="1.1" viewBox="0 0 1024 1024"><g transform="scale(1, -1) translate(0, -900)"><path d="M 746 400 Q 746 399 747 397 Q 751 381 764 380 Q 777 381 786 396 Q 802 412 831 499 Q 850 551 888 579 Q 907 595 892 611 Q 874 629 824 658 Q 812 667 726 650 Q 702 647 692 644 L 649 637 Q 600 630 557 620 L 520 611 Q 456 599 409 592 C 379 587 403 549 432 557 Q 436 558 440 559 Q 471 569 522 580 L 558 587 Q 597 596 646 603 L 689 610 Q 714 614 742 618 Q 779 622 793 615 Q 803 608 795 576 Q 764 455 751 431 Q 750 430 749 427 C 741 409 741 409 746 400 Z" fill="black" /></g></svg>