<?xml version='1.0' encoding='utf-8'?>
<svg xmlns="http://www.w3.org/2000/svg" version="1.1" viewBox="0 0 1024 1024"><g transform="scale(1, -1) translate(0, -900)"><path d="M 661 27 Q 686 -7 706 -40 Q 713 -56 725 -56 Q 740 -55 756 -24 Q 772 12 771 56 Q 765 120 761 241 Q 760 269 775 289 Q 784 301 775 310 Q 759 328 711 350 Q 695 359 681 350 Q 626 325 491 295 C 462 288 474 260 503 268 Q 513 271 531 275 Q 601 291 661 306 Q 685 312 697 303 Q 721 279 702 60 Q 698 41 680 50 C 650 49 645 49 661 27 Z" fill="black" /></g></svg>