<?xml version='1.0' encoding='utf-8'?>
<svg xmlns="http://www.w3.org/2000/svg" version="1.1" viewBox="0 0 1024 1024"><g transform="scale(1, -1) translate(0, -900)"><path d="M 629 462 Q 630 496 631 528 L 632 560 Q 632 587 632 612 L 633 636 Q 633 673 633 708 L 636 737 Q 639 759 642 776 Q 648 800 651 817 Q 654 827 634 841 Q 600 859 576 862 Q 560 865 552 857 Q 545 850 554 835 Q 582 795 583 767 Q 584 748 585 725 L 586 697 Q 587 664 589 629 L 590 604 Q 590 579 590 550 L 590 521 Q 590 490 590 455 L 589 429 Q 589 398 588 364 C 587 334 628 340 628 370 Q 628 404 629 437 L 629 462 Z" fill="black" /></g></svg>