<?xml version='1.0' encoding='utf-8'?>
<svg xmlns="http://www.w3.org/2000/svg" version="1.1" viewBox="0 0 1024 1024"><g transform="scale(1, -1) translate(0, -900)"><path d="M 750 240 Q 783 297 805 381 Q 811 415 829 432 Q 842 447 825 460 Q 806 475 773 486 Q 752 492 732 480 Q 692 455 632 443 Q 607 439 597 433 Q 588 426 606 418 Q 631 406 667 419 Q 697 428 727 437 Q 746 444 748 421 Q 748 354 712 276 L 692 239 Q 646 167 504 118 Q 489 114 499 106 Q 506 102 533 106 Q 612 116 660 142 Q 694 161 723 199 L 750 240 Z" fill="black" /></g></svg>