<?xml version='1.0' encoding='utf-8'?>
<svg xmlns="http://www.w3.org/2000/svg" version="1.1" viewBox="0 0 1024 1024"><g transform="scale(1, -1) translate(0, -900)"><path d="M 602 -3 Q 624 -34 642 -64 Q 649 -80 661 -81 Q 676 -80 692 -49 Q 710 -12 701 89 Q 692 183 712 208 Q 721 221 712 230 Q 694 249 645 273 Q 627 283 612 274 Q 531 241 383 227 C 353 224 367 192 397 195 Q 434 198 591 225 Q 618 229 632 219 Q 644 207 642 81 Q 642 47 639 36 Q 635 17 617 26 L 616 26 C 586 26 585 22 602 -3 Z" fill="black" /></g></svg>