<?xml version='1.0' encoding='utf-8'?>
<svg xmlns="http://www.w3.org/2000/svg" version="1.1" viewBox="0 0 1024 1024"><g transform="scale(1, -1) translate(0, -900)"><path d="M 643 103 Q 755 -24 878 -43 Q 882 -42 887 -43 Q 911 -39 902 -8 Q 892 22 888 160 Q 888 172 882 173 Q 878 173 874 161 Q 861 127 850 96 Q 834 53 819 53 Q 780 50 709 112 Q 697 124 685 136 L 650 174 Q 602 231 583 280 L 571 321 Q 567 340 569 358 Q 570 379 528 392 Q 486 407 475 400 Q 465 393 473 376 Q 501 355 517 311 Q 518 308 519 305 L 535 268 Q 574 187 613 139 L 643 103 Z" fill="black" /></g></svg>