<?xml version='1.0' encoding='utf-8'?>
<svg xmlns="http://www.w3.org/2000/svg" version="1.1" viewBox="0 0 1024 1024"><g transform="scale(1, -1) translate(0, -900)"><path d="M 795 418 Q 785 431 767 475 Q 766 487 760 489 Q 756 492 754 478 Q 730 406 700 399 Q 657 387 616 401 Q 601 408 597 418 Q 591 430 590 455 L 591 491 Q 592 509 596 528 Q 599 541 589 549 Q 579 559 561 565 Q 551 568 545 564 Q 539 560 544 547 Q 553 523 554 480 L 554 445 Q 555 394 579 373 Q 636 330 741 358 Q 742 359 745 359 Q 770 368 793 387 Q 806 400 795 418 Z" fill="black" /></g></svg>