<?xml version='1.0' encoding='utf-8'?>
<svg xmlns="http://www.w3.org/2000/svg" version="1.1" viewBox="0 0 1024 1024"><g transform="scale(1, -1) translate(0, -900)"><path d="M 739 392 Q 739 419 740 446 L 742 490 Q 746 527 754 557 Q 761 570 759 581 Q 753 588 706 617 Q 687 632 669 618 Q 665 614 670 601 Q 695 565 696 528 Q 696 504 697 478 L 698 334 Q 695 157 690 127 Q 675 40 677 32 Q 683 11 692 -9 Q 698 -25 705 -27 Q 709 -33 716 -26 Q 723 -22 731 -4 Q 740 17 739 43 Q 738 77 739 336 L 739 392 Z" fill="black" /></g></svg>