<?xml version='1.0' encoding='utf-8'?>
<svg xmlns="http://www.w3.org/2000/svg" version="1.1" viewBox="0 0 1024 1024"><g transform="scale(1, -1) translate(0, -900)"><path d="M 519 99 Q 558 39 564 36 Q 573 36 580 57 Q 592 90 582 217 Q 573 292 581 321 Q 588 339 577 347 Q 570 356 539 369 Q 527 375 460 350 Q 447 349 427 340 C 399 329 373 311 403 310 L 404 308 Q 414 308 427 312 Q 505 342 520 328 Q 526 322 532 188 Q 535 142 530 132 Q 526 125 519 125 C 507 117 507 117 519 99 Z" fill="black" /></g></svg>