<?xml version='1.0' encoding='utf-8'?>
<svg xmlns="http://www.w3.org/2000/svg" version="1.1" viewBox="0 0 1024 1024"><g transform="scale(1, -1) translate(0, -900)"><path d="M 644 410 Q 684 416 737 417 L 785 418 Q 836 421 951 421 Q 970 421 975 430 Q 979 440 964 454 Q 909 497 849 478 Q 831 475 813 471 L 749 459 Q 700 453 645 444 L 594 436 Q 548 432 500 424 L 454 418 Q 387 411 320 401 Q 299 400 315 383 Q 328 370 346 364 Q 365 360 382 364 Q 421 374 465 383 L 504 390 Q 544 399 589 403 Q 590 404 594 403 L 644 410 Z" fill="black" /></g></svg>