<?xml version='1.0' encoding='utf-8'?>
<svg xmlns="http://www.w3.org/2000/svg" version="1.1" viewBox="0 0 1024 1024"><g transform="scale(1, -1) translate(0, -900)"><path d="M 528 298 Q 538 320 548 335 Q 557 342 554 351 Q 550 364 514 390 Q 504 399 494 396 Q 481 393 488 378 Q 497 354 475 292 L 462 260 Q 452 236 440 219 Q 431 203 434 191 Q 435 181 452 178 Q 518 160 572 126 L 613 101 Q 671 64 753 -3 Q 777 -22 793 -22 Q 812 -22 814 -4 Q 814 15 787 59 Q 775 86 644 139 L 599 158 Q 538 185 495 196 Q 474 200 486 220 Q 499 248 510 266 L 528 298 Z" fill="black" /></g></svg>