<?xml version='1.0' encoding='utf-8'?>
<svg xmlns="http://www.w3.org/2000/svg" version="1.1" viewBox="0 0 1024 1024"><g transform="scale(1, -1) translate(0, -900)"><path d="M 448 504 Q 448 480 447 416 L 447 376 L 447 284 C 447 254 488 264 488 294 Q 488 355 489 384 L 489 425 Q 489 476 491 512 L 491 549 Q 492 603 493 629 L 493 666 Q 493 668 494 668 Q 495 686 495 698 Q 496 731 488 741 L 470 755 C 446 773 414 776 427 749 L 439 723 Q 447 701 448 651 L 449 619 Q 449 606 448 539 L 448 504 Z" fill="black" /></g></svg>