<?xml version='1.0' encoding='utf-8'?>
<svg xmlns="http://www.w3.org/2000/svg" version="1.1" viewBox="0 0 1024 1024"><g transform="scale(1, -1) translate(0, -900)"><path d="M 535 521 Q 550 500 561 496 Q 573 492 586 510 Q 601 538 625 692 Q 631 713 643 729 L 659 749 Q 666 759 657 770 Q 641 786 601 809 Q 587 814 515 801 L 343 762 C 314 755 334 724 363 733 Q 392 743 427 749 L 470 755 Q 512 764 527 766 Q 555 770 565 761 Q 582 753 578 729 Q 557 571 541 557 C 527 531 527 531 535 521 Z" fill="black" /></g></svg>