<?xml version='1.0' encoding='utf-8'?>
<svg xmlns="http://www.w3.org/2000/svg" version="1.1" viewBox="0 0 1024 1024"><g transform="scale(1, -1) translate(0, -900)"><path d="M 520 348 Q 533 329 545 322 Q 554 316 566 333 Q 579 354 606 465 Q 613 490 633 509 Q 643 519 635 530 Q 623 543 589 566 Q 579 570 511 559 Q 501 559 477 552 L 438 545 Q 426 544 417 541 Q 384 534 359 529 C 330 523 336 492 365 501 Q 365 502 366 502 Q 424 518 527 534 Q 549 538 557 530 Q 567 517 565 504 Q 541 384 528 374 C 516 353 516 353 520 348 Z" fill="black" /></g></svg>