<?xml version='1.0' encoding='utf-8'?>
<svg xmlns="http://www.w3.org/2000/svg" version="1.1" viewBox="0 0 1024 1024"><g transform="scale(1, -1) translate(0, -900)"><path d="M 757 173 Q 758 177 762 180 Q 792 232 818 316 Q 828 344 847 363 Q 863 379 851 391 Q 838 401 808 412 Q 784 418 759 403 Q 693 379 616 372 Q 603 372 598 365 Q 594 359 611 351 Q 645 338 690 349 Q 733 365 741 365 Q 768 362 761 332 Q 749 262 723 209 L 702 175 L 702 174 Q 660 120 586 90 C 559 78 557 71 587 73 Q 662 73 730 139 L 757 173 Z" fill="black" /></g></svg>