<?xml version='1.0' encoding='utf-8'?>
<svg xmlns="http://www.w3.org/2000/svg" version="1.1" viewBox="0 0 1024 1024"><g transform="scale(1, -1) translate(0, -900)"><path d="M 574 262 Q 562 42 588 -3 L 589 -5 Q 602 -18 611 1 Q 627 49 626 273 L 625 308 L 625 494 L 625 532 Q 625 566 626 596 L 626 628 Q 626 668 628 700 L 629 733 Q 629 770 649 805 Q 656 820 636 835 Q 614 853 573 863 Q 555 867 544 854 Q 534 847 546 836 Q 576 811 578 775 Q 578 750 578 718 L 578 687 Q 577 656 578 617 L 577 585 Q 577 554 577 519 L 577 484 Q 577 376 575 297 L 574 262 Z" fill="black" /></g></svg>