<?xml version='1.0' encoding='utf-8'?>
<svg xmlns="http://www.w3.org/2000/svg" version="1.1" viewBox="0 0 1024 1024"><g transform="scale(1, -1) translate(0, -900)"><path d="M 779 445 Q 804 448 832 449 Q 892 453 897 461 Q 901 471 886 483 Q 826 519 790 501 L 737 487 Q 700 480 660 469 L 622 461 Q 592 460 552 446 L 509 438 Q 475 434 442 425 L 395 417 Q 362 413 330 405 Q 311 401 326 387 Q 339 375 356 372 Q 366 371 400 376 L 443 389 Q 474 399 512 406 L 552 414 Q 559 418 621 427 L 657 432 Q 691 438 732 441 L 779 445 Z" fill="black" /></g></svg>