<?xml version='1.0' encoding='utf-8'?>
<svg xmlns="http://www.w3.org/2000/svg" version="1.1" viewBox="0 0 1024 1024"><g transform="scale(1, -1) translate(0, -900)"><path d="M 410 365 Q 410 361 412 354 Q 416 341 427 341 Q 439 342 446 354 Q 458 367 480 440 Q 495 483 526 508 Q 542 521 528 535 Q 513 550 471 573 Q 458 582 385 562 Q 370 562 246 529 Q 162 510 136 509 C 106 506 143 473 172 480 Q 178 480 184 482 Q 218 495 279 510 L 313 517 Q 425 545 446 537 Q 455 531 449 504 Q 427 414 417 388 L 410 365 Z" fill="black" /></g></svg>