<?xml version='1.0' encoding='utf-8'?>
<svg xmlns="http://www.w3.org/2000/svg" version="1.1" viewBox="0 0 1024 1024"><g transform="scale(1, -1) translate(0, -900)"><path d="M 622 252 Q 638 230 653 222 Q 663 215 677 234 Q 687 252 711 348 Q 718 376 741 400 Q 753 412 742 425 Q 727 440 687 464 Q 672 470 606 455 Q 603 455 602 454 Q 452 421 430 417 Q 429 417 429 416 C 400 409 435 377 463 388 Q 472 397 623 423 Q 645 426 653 419 Q 662 409 661 397 Q 649 310 636 285 C 625 257 622 253 622 252 Z" fill="black" /></g></svg>