<?xml version='1.0' encoding='utf-8'?>
<svg xmlns="http://www.w3.org/2000/svg" version="1.1" viewBox="0 0 1024 1024"><g transform="scale(1, -1) translate(0, -900)"><path d="M 810 500 Q 825 545 858 577 Q 877 595 867 607 Q 846 626 810 641 Q 794 650 778 644 Q 753 634 699 621 Q 687 617 687 630 Q 699 691 705 703 Q 714 721 701 731 Q 691 741 681 748 C 657 767 640 771 646 742 Q 653 717 647 658 Q 644 630 634 614 Q 625 599 644 578 Q 654 565 669 573 Q 697 595 765 607 Q 781 608 787 598 Q 793 588 767 507 C 758 478 800 472 810 500 Z" fill="black" /></g></svg>