<?xml version='1.0' encoding='utf-8'?>
<svg xmlns="http://www.w3.org/2000/svg" version="1.1" viewBox="0 0 1024 1024"><g transform="scale(1, -1) translate(0, -900)"><path d="M 426 574 Q 416 583 400 590 Q 387 596 373 587 Q 366 583 378 569 Q 394 545 394 500 Q 397 454 383 440 Q 379 425 388 410 Q 401 392 412 399 Q 433 418 492 437 Q 511 444 518 438 Q 530 429 521 335 C 518 305 571 313 572 343 Q 575 419 587 435 Q 599 445 590 455 Q 580 468 539 482 Q 529 486 511 475 Q 435 439 432 460 Q 435 526 439 545 C 442 562 442 562 426 574 Z" fill="black" /></g></svg>