<?xml version='1.0' encoding='utf-8'?>
<svg xmlns="http://www.w3.org/2000/svg" version="1.1" viewBox="0 0 1024 1024"><g transform="scale(1, -1) translate(0, -900)"><path d="M 756 420 Q 755 413 758 404 Q 762 388 776 389 Q 789 390 798 404 Q 811 420 838 499 Q 856 551 894 579 Q 913 595 897 611 Q 881 629 831 657 Q 816 666 739 650 Q 699 650 544 618 Q 438 597 403 602 Q 396 603 388 604 C 358 608 413 560 443 565 Q 450 564 457 566 Q 502 581 579 594 L 616 600 Q 770 630 797 615 Q 807 609 800 578 Q 772 463 761 439 L 756 420 Z" fill="black" /></g></svg>