<?xml version='1.0' encoding='utf-8'?>
<svg xmlns="http://www.w3.org/2000/svg" version="1.1" viewBox="0 0 1024 1024"><g transform="scale(1, -1) translate(0, -900)"><path d="M 636 42 Q 664 5 685 -28 Q 694 -46 705 -45 Q 720 -44 735 -12 Q 750 22 744 104 Q 726 221 748 252 Q 757 264 748 273 Q 730 292 681 314 Q 665 321 650 313 Q 596 289 494 268 C 465 262 475 233 505 237 Q 524 238 643 264 Q 659 268 669 262 Q 679 253 681 80 Q 680 76 680 71 Q 676 59 668 59 C 646 38 630 50 636 42 Z" fill="black" /></g></svg>