<?xml version='1.0' encoding='utf-8'?>
<svg xmlns="http://www.w3.org/2000/svg" version="1.1" viewBox="0 0 1024 1024"><g transform="scale(1, -1) translate(0, -900)"><path d="M 535 250 Q 569 262 582 261 C 612 263 620 296 590 291 Q 562 287 540 279 L 495 267 Q 455 257 424 242 Q 421 243 423 245 Q 450 311 446 323 Q 439 338 425 351 Q 418 358 410 358 Q 403 357 404 342 Q 410 305 396 274 Q 384 243 367 232 Q 354 222 358 211 Q 365 199 377 191 Q 387 185 394 190 Q 409 205 490 235 L 535 250 Z" fill="black" /></g></svg>