<?xml version='1.0' encoding='utf-8'?>
<svg xmlns="http://www.w3.org/2000/svg" version="1.1" viewBox="0 0 1024 1024"><g transform="scale(1, -1) translate(0, -900)"><path d="M 705 455 Q 705 451 707 447 Q 711 432 724 433 Q 737 434 744 448 Q 754 461 776 522 Q 792 571 827 601 Q 846 616 830 631 Q 814 647 764 673 Q 751 682 679 665 Q 673 665 617 654 L 588 648 Q 551 644 519 634 Q 467 622 430 616 C 400 611 418 569 446 581 Q 455 590 559 609 L 598 617 Q 715 642 735 631 Q 742 625 738 599 Q 717 505 709 482 L 705 455 Z" fill="black" /></g></svg>