<?xml version='1.0' encoding='utf-8'?>
<svg xmlns="http://www.w3.org/2000/svg" version="1.1" viewBox="0 0 1024 1024"><g transform="scale(1, -1) translate(0, -900)"><path d="M 652 150 Q 601 144 546 132 Q 540 131 538 132 Q 535 135 539 145 Q 563 197 581 234 L 595 262 Q 613 299 621 310 Q 628 319 622 328 Q 618 335 597 341 C 569 351 538 358 550 331 Q 551 330 553 326 Q 562 308 549 255 L 540 225 Q 509 149 469 112 Q 459 102 464 93 Q 470 80 491 67 Q 501 60 510 70 Q 525 85 665 131 C 693 140 682 154 652 150 Z" fill="black" /></g></svg>