<?xml version='1.0' encoding='utf-8'?>
<svg xmlns="http://www.w3.org/2000/svg" version="1.1" viewBox="0 0 1024 1024"><g transform="scale(1, -1) translate(0, -900)"><path d="M 408 152 Q 418 162 422 175 Q 428 209 393 251 Q 366 290 425 359 Q 432 369 440 376 Q 459 392 442 407 Q 423 420 392 434 Q 371 444 327 408 Q 261 375 251 376 Q 244 376 243 371 Q 242 367 250 363 Q 283 351 350 380 Q 356 384 364 377 Q 379 359 361 330 Q 324 285 358 238 Q 391 183 386 154 C 385 124 389 128 408 152 Z" fill="black" /></g></svg>