<?xml version='1.0' encoding='utf-8'?>
<svg xmlns="http://www.w3.org/2000/svg" version="1.1" viewBox="0 0 1024 1024"><g transform="scale(1, -1) translate(0, -900)"><path d="M 735 154 Q 781 40 880 -31 Q 908 -50 923 -50 Q 936 -51 943 -39 Q 950 -29 939 11 Q 930 72 934 174 Q 935 202 927 203 Q 920 203 912 179 Q 890 52 865 65 Q 835 84 800 136 Q 782 163 766 195 L 743 248 Q 716 311 685 442 Q 684 445 684 446 L 679 488 Q 679 492 679 497 Q 685 522 680 532 Q 674 541 651 552 Q 629 562 616 563 Q 604 562 604 561 Q 583 554 603 533 Q 615 527 629 475 L 640 439 Q 641 438 642 434 Q 670 304 715 199 L 735 154 Z" fill="black" /></g></svg>