<?xml version='1.0' encoding='utf-8'?>
<svg xmlns="http://www.w3.org/2000/svg" version="1.1" viewBox="0 0 1024 1024"><g transform="scale(1, -1) translate(0, -900)"><path d="M 701 548 Q 702 547 703 544 Q 707 528 720 528 Q 733 529 741 543 Q 751 556 776 618 Q 794 666 829 691 Q 847 706 833 721 Q 817 737 771 764 Q 759 773 677 756 Q 670 756 657 752 L 610 745 Q 570 739 536 731 L 490 721 Q 438 711 399 704 C 369 699 385 666 414 675 Q 450 687 493 696 L 536 704 Q 567 711 609 719 L 654 726 Q 717 742 739 729 Q 748 723 741 697 Q 716 597 706 576 Q 705 576 705 575 C 697 556 697 556 701 548 Z" fill="black" /></g></svg>