<?xml version='1.0' encoding='utf-8'?>
<svg xmlns="http://www.w3.org/2000/svg" version="1.1" viewBox="0 0 1024 1024"><g transform="scale(1, -1) translate(0, -900)"><path d="M 576 81 Q 516 23 346 -16 Q 331 -17 339 -26 Q 346 -33 372 -33 Q 466 -26 520 -6 Q 569 12 608 49 L 637 81 Q 667 118 688 171 Q 700 202 720 215 Q 736 227 721 243 Q 705 261 675 276 Q 656 286 635 278 Q 592 257 530 252 Q 526 252 523 250 C 493 245 477 237 506 228 Q 528 216 562 225 Q 593 229 625 236 Q 641 240 641 222 Q 641 171 599 109 L 576 81 Z" fill="black" /></g></svg>