<?xml version='1.0' encoding='utf-8'?>
<svg xmlns="http://www.w3.org/2000/svg" version="1.1" viewBox="0 0 1024 1024"><g transform="scale(1, -1) translate(0, -900)"><path d="M 722 44 Q 732 19 760 -35 Q 769 -54 779 -52 Q 795 -49 804 -23 Q 825 19 841 180 Q 847 226 869 253 Q 885 271 875 284 Q 856 305 811 326 Q 795 336 763 326 Q 696 304 619 289 Q 553 280 455 273 C 425 271 449 235 478 242 Q 496 248 583 260 L 623 266 Q 753 293 773 275 Q 780 271 781 252 Q 782 164 768 77 Q 767 61 760 60 Q 759 59 752 60 C 728 43 720 48 722 44 Z" fill="black" /></g></svg>