<?xml version='1.0' encoding='utf-8'?>
<svg xmlns="http://www.w3.org/2000/svg" version="1.1" viewBox="0 0 1024 1024"><g transform="scale(1, -1) translate(0, -900)"><path d="M 448 394 Q 475 412 513 416 C 543 420 543 457 514 448 Q 480 438 450 426 L 407 410 Q 379 400 356 386 Q 349 385 351 393 Q 363 468 358 476 Q 348 491 329 502 Q 320 506 313 506 Q 304 502 309 488 Q 322 451 315 416 Q 309 382 295 368 Q 282 353 288 343 Q 298 333 311 325 Q 321 321 329 327 Q 344 345 405 373 L 448 394 Z" fill="black" /></g></svg>