<?xml version='1.0' encoding='utf-8'?>
<svg xmlns="http://www.w3.org/2000/svg" version="1.1" viewBox="0 0 1024 1024"><g transform="scale(1, -1) translate(0, -900)"><path d="M 405 373 Q 390 211 369 179 Q 356 158 367 137 Q 380 118 399 110 Q 409 103 421 121 Q 436 154 524 262 Q 549 286 549 295 Q 550 302 544 304 Q 541 304 446 228 Q 440 219 436 230 Q 442 311 448 394 L 450 426 Q 454 507 461 588 L 464 635 Q 468 740 475 760 Q 482 778 469 792 Q 447 811 421 818 Q 391 827 381 813 Q 374 803 387 789 Q 414 762 414 612 L 414 570 Q 411 498 407 410 L 405 373 Z" fill="black" /></g></svg>