<?xml version='1.0' encoding='utf-8'?>
<svg xmlns="http://www.w3.org/2000/svg" version="1.1" viewBox="0 0 1024 1024"><g transform="scale(1, -1) translate(0, -900)"><path d="M 740 166 Q 741 162 746 154 Q 761 126 770 126 Q 785 127 800 161 Q 813 186 809 236 Q 794 395 819 436 Q 829 452 822 462 Q 794 486 745 506 Q 729 512 706 503 Q 631 470 506 456 C 476 452 490 423 520 426 Q 527 426 536 427 Q 627 449 694 461 Q 718 465 725 453 Q 738 437 740 383 Q 747 229 739 199 L 737 193 L 740 166 Z" fill="black" /></g></svg>