<?xml version='1.0' encoding='utf-8'?>
<svg xmlns="http://www.w3.org/2000/svg" version="1.1" viewBox="0 0 1024 1024"><g transform="scale(1, -1) translate(0, -900)"><path d="M 666 221 Q 730 230 806 232 Q 824 229 830 219 Q 836 212 831 199 Q 824 72 814 54 Q 810 45 798 49 Q 773 55 744 61 Q 716 67 735 47 Q 793 -8 817 -48 Q 824 -60 836 -52 Q 860 -33 876 55 Q 885 169 906 195 Q 921 214 915 221 Q 908 234 862 265 Q 844 280 830 274 Q 803 264 753 257 Q 618 244 543 231 L 505 224 Q 447 215 388 204 C 358 199 383 159 412 167 Q 421 168 430 171 Q 455 181 496 190 L 527 197 Q 558 207 625 216 L 666 221 Z" fill="black" /></g></svg>