<?xml version='1.0' encoding='utf-8'?>
<svg xmlns="http://www.w3.org/2000/svg" version="1.1" viewBox="0 0 1024 1024"><g transform="scale(1, -1) translate(0, -900)"><path d="M 626 636 Q 752 666 796 662 Q 812 652 810 645 Q 810 641 788 581 Q 784 568 789 565 Q 796 561 810 573 Q 856 607 895 619 Q 926 631 925 638 Q 924 647 858 692 Q 836 707 755 689 Q 689 680 629 666 L 583 658 Q 550 654 515 646 Q 473 637 431 632 Q 430 632 429 631 C 399 626 404 616 432 605 Q 456 592 480 599 Q 528 615 579 627 Q 580 628 585 627 L 626 636 Z" fill="black" /></g></svg>