<?xml version='1.0' encoding='utf-8'?>
<svg xmlns="http://www.w3.org/2000/svg" version="1.1" viewBox="0 0 1024 1024"><g transform="scale(1, -1) translate(0, -900)"><path d="M 643 78 Q 680 118 716 177 Q 732 202 752 218 Q 771 231 761 245 Q 749 258 721 272 Q 700 282 627 255 Q 528 234 491 229 Q 478 228 473 222 Q 469 215 487 207 Q 523 194 571 208 Q 641 230 654 230 Q 669 227 664 211 Q 646 151 604 105 L 577 80 Q 505 25 362 -5 Q 347 -8 358 -17 Q 364 -21 410 -19 Q 468 -15 535 11 Q 575 26 609 49 L 643 78 Z" fill="black" /></g></svg>