<?xml version='1.0' encoding='utf-8'?>
<svg xmlns="http://www.w3.org/2000/svg" version="1.1" viewBox="0 0 1024 1024"><g transform="scale(1, -1) translate(0, -900)"><path d="M 658 365 Q 659 364 660 361 Q 664 348 675 349 Q 687 350 693 363 Q 703 375 721 436 Q 734 481 765 507 Q 781 520 767 534 Q 751 547 708 570 Q 695 579 635 561 Q 614 561 516 536 Q 464 523 431 518 Q 430 518 427 517 C 398 512 433 484 462 491 Q 538 510 543 511 L 573 518 Q 669 539 682 532 Q 689 528 686 502 Q 670 418 662 394 C 655 370 655 370 658 365 Z" fill="black" /></g></svg>