<?xml version='1.0' encoding='utf-8'?>
<svg xmlns="http://www.w3.org/2000/svg" version="1.1" viewBox="0 0 1024 1024"><g transform="scale(1, -1) translate(0, -900)"><path d="M 390 221 Q 556 275 792 281 Q 813 280 821 269 Q 828 262 824 246 Q 814 68 800 42 Q 797 33 785 37 Q 761 41 736 46 Q 708 50 727 31 Q 784 -23 806 -60 Q 816 -75 830 -64 Q 846 -48 857 -23 Q 869 5 878 159 Q 879 216 899 244 Q 915 263 909 272 Q 902 285 851 320 Q 832 335 816 329 Q 788 319 734 311 Q 532 295 456 277 Q 399 267 356 262 C 326 258 361 212 390 221 Z" fill="black" /></g></svg>