<?xml version='1.0' encoding='utf-8'?>
<svg xmlns="http://www.w3.org/2000/svg" version="1.1" viewBox="0 0 1024 1024"><g transform="scale(1, -1) translate(0, -900)"><path d="M 831 152 Q 593 125 415 73 Q 390 66 395 95 Q 399 189 405 286 Q 409 311 397 326 Q 379 344 354 357 Q 341 361 330 359 Q 320 355 329 334 Q 369 252 359 168 Q 353 89 322 52 Q 303 33 311 18 Q 324 2 342 -9 Q 357 -16 367 -8 Q 379 7 415 22 Q 539 65 672 93 Q 793 118 820 108 Q 821 109 824 109 C 854 107 861 155 831 152 Z" fill="black" /></g></svg>