<?xml version='1.0' encoding='utf-8'?>
<svg xmlns="http://www.w3.org/2000/svg" version="1.1" viewBox="0 0 1024 1024"><g transform="scale(1, -1) translate(0, -900)"><path d="M 646 8 Q 676 -29 697 -64 Q 706 -82 717 -81 Q 732 -80 747 -48 Q 762 -14 756 68 Q 738 222 760 252 Q 769 264 760 273 Q 742 292 693 313 Q 677 322 662 313 Q 623 295 481 260 C 452 253 464 224 493 230 Q 662 267 675 265 Q 678 265 681 262 Q 697 249 695 91 Q 696 48 692 35 Q 688 22 678 23 C 655 4 641 15 646 8 Z" fill="black" /></g></svg>