<?xml version='1.0' encoding='utf-8'?>
<svg xmlns="http://www.w3.org/2000/svg" version="1.1" viewBox="0 0 1024 1024"><g transform="scale(1, -1) translate(0, -900)"><path d="M 373 367 Q 403 373 455 390 Q 468 394 476 388 Q 482 381 482 360 Q 489 191 484 88 Q 483 63 476 53 Q 473 52 421 55 Q 403 59 405 52 Q 447 15 469 -12 Q 481 -28 494 -32 Q 501 -35 509 -26 Q 543 14 542 62 Q 520 341 540 377 Q 550 393 539 402 Q 521 418 490 429 Q 475 436 463 430 Q 438 414 419 407 Q 400 400 365 392 C 336 385 344 360 373 367 Z" fill="black" /></g></svg>