<?xml version='1.0' encoding='utf-8'?>
<svg xmlns="http://www.w3.org/2000/svg" version="1.1" viewBox="0 0 1024 1024"><g transform="scale(1, -1) translate(0, -900)"><path d="M 213 448 Q 237 436 274 443 Q 424 485 731 506 Q 785 510 803 505 Q 819 499 816 490 Q 795 447 773 401 L 775 400 Q 784 396 801 406 Q 858 440 904 449 Q 941 456 941 466 Q 940 476 872 533 Q 854 549 828 549 Q 785 545 735 537 L 691 532 Q 358 501 327 489 L 291 485 Q 255 482 220 478 C 190 475 184 456 213 448 Z" fill="black" /></g></svg>