<?xml version='1.0' encoding='utf-8'?>
<svg xmlns="http://www.w3.org/2000/svg" version="1.1" viewBox="0 0 1024 1024"><g transform="scale(1, -1) translate(0, -900)"><path d="M 554 494 Q 551 494 551 493 Q 520 477 486 461 Q 476 457 471 459 Q 461 460 462 483 Q 463 520 465 549 L 465 571 Q 466 605 467 628 L 467 654 Q 467 678 471 703 C 473 716 473 716 459 725 Q 443 737 427 742 Q 412 746 404 743 Q 395 736 407 721 Q 443 673 426 475 Q 422 447 402 416 Q 392 400 400 389 Q 407 379 429 370 Q 442 364 453 379 Q 466 409 541 461 Q 554 470 565 479 C 589 497 581 507 554 494 Z" fill="black" /></g></svg>