<?xml version='1.0' encoding='utf-8'?>
<svg xmlns="http://www.w3.org/2000/svg" version="1.1" viewBox="0 0 1024 1024"><g transform="scale(1, -1) translate(0, -900)"><path d="M 334 494 Q 297 491 255 481 Q 231 474 247 492 Q 277 529 346 602 Q 371 633 394 650 Q 404 659 400 667 Q 391 683 364 701 Q 351 710 342 708 Q 333 705 335 692 Q 335 674 306 619 L 293 598 Q 289 595 287 589 Q 206 484 180 472 Q 167 465 170 452 Q 171 440 192 423 Q 201 413 214 423 Q 259 454 328 476 C 356 485 364 497 334 494 Z" fill="black" /></g></svg>