<?xml version='1.0' encoding='utf-8'?>
<svg xmlns="http://www.w3.org/2000/svg" version="1.1" viewBox="0 0 1024 1024"><g transform="scale(1, -1) translate(0, -900)"><path d="M 760 394 L 762 468 L 762 498 Q 763 523 764 546 L 765 575 Q 765 599 765 621 L 766 649 L 768 699 L 772 743 Q 773 759 776 772 Q 782 794 785 810 Q 788 820 769 834 Q 735 850 713 855 Q 697 858 690 849 Q 683 842 691 828 Q 718 791 718 765 Q 719 746 720 724 L 721 685 Q 721 663 722 638 L 722 610 Q 723 586 723 560 L 723 537 Q 723 513 722 487 L 722 460 Q 722 423 721 384 C 720 354 759 364 760 394 Z" fill="black" /></g></svg>