<?xml version='1.0' encoding='utf-8'?>
<svg xmlns="http://www.w3.org/2000/svg" version="1.1" viewBox="0 0 1024 1024"><g transform="scale(1, -1) translate(0, -900)"><path d="M 824 480 Q 837 461 849 455 Q 858 448 870 465 Q 880 481 903 569 Q 910 594 929 615 Q 939 625 930 637 Q 917 650 882 671 Q 869 677 809 660 Q 800 660 766 649 L 722 638 Q 710 637 701 633 Q 661 621 627 613 C 598 606 616 573 643 586 Q 649 593 722 610 L 765 621 Q 835 642 853 633 Q 863 626 860 612 Q 842 516 829 505 C 818 487 818 487 824 480 Z" fill="black" /></g></svg>