<?xml version='1.0' encoding='utf-8'?>
<svg xmlns="http://www.w3.org/2000/svg" version="1.1" viewBox="0 0 1024 1024"><g transform="scale(1, -1) translate(0, -900)"><path d="M 485 161 Q 457 149 406 122 Q 399 118 395 121 Q 392 124 391 220 L 391 241 Q 391 269 392 291 L 393 311 Q 393 347 394 361 C 395 385 395 385 391 388 Q 390 389 389 390 Q 380 399 345 408 Q 332 409 327 406 Q 323 402 331 386 Q 352 358 357 267 Q 356 254 357 237 Q 357 128 310 75 Q 301 65 307 48 Q 314 26 325 15 Q 335 8 345 19 Q 382 62 494 148 C 518 166 512 173 485 161 Z" fill="black" /></g></svg>