<?xml version='1.0' encoding='utf-8'?>
<svg xmlns="http://www.w3.org/2000/svg" version="1.1" viewBox="0 0 1024 1024"><g transform="scale(1, -1) translate(0, -900)"><path d="M 650 437 Q 644 424 605 350 Q 601 346 600 342 Q 599 335 605 336 Q 623 336 671 413 Q 671 416 673 417 L 690 452 Q 709 500 720 565 L 724 595 Q 727 631 732 643 Q 738 653 733 662 Q 721 674 700 684 Q 687 691 678 688 Q 671 684 675 673 Q 687 652 682 581 L 678 547 Q 677 541 677 534 Q 671 497 661 465 Q 660 465 660 464 L 650 437 Z" fill="black" /></g></svg>