<?xml version='1.0' encoding='utf-8'?>
<svg xmlns="http://www.w3.org/2000/svg" version="1.1" viewBox="0 0 1024 1024"><g transform="scale(1, -1) translate(0, -900)"><path d="M 720 565 Q 768 586 774 582 Q 781 578 778 564 Q 735 324 905 293 Q 966 293 970 294 Q 989 306 976 334 Q 955 364 937 401 Q 930 423 924 429 Q 917 433 916 420 Q 913 359 904 345 Q 891 339 877 346 Q 852 353 832 375 Q 802 405 805 480 Q 806 541 847 581 Q 859 590 854 598 Q 847 608 804 625 Q 791 629 780 622 Q 761 610 724 595 L 682 581 Q 636 566 595 563 Q 583 562 589 550 Q 593 541 612 535 Q 630 528 648 535 Q 661 542 678 547 L 720 565 Z" fill="black" /></g></svg>