<?xml version='1.0' encoding='utf-8'?>
<svg xmlns="http://www.w3.org/2000/svg" version="1.1" viewBox="0 0 1024 1024"><g transform="scale(1, -1) translate(0, -900)"><path d="M 709 72 Q 740 32 764 -6 Q 776 -25 788 -25 Q 807 -24 824 16 Q 843 59 839 114 Q 824 301 814 645 Q 813 684 832 711 Q 842 727 832 739 Q 808 764 743 792 Q 721 802 702 791 Q 606 757 461 739 Q 331 724 265 724 C 235 723 241 679 271 682 Q 302 682 646 732 Q 704 739 730 716 Q 775 662 759 159 Q 758 134 756 115 Q 752 97 735 100 C 715 77 708 73 709 72 Z" fill="black" /></g></svg>