<?xml version='1.0' encoding='utf-8'?>
<svg xmlns="http://www.w3.org/2000/svg" version="1.1" viewBox="0 0 1024 1024"><g transform="scale(1, -1) translate(0, -900)"><path d="M 731 85 Q 758 52 779 9 Q 789 -15 805 -14 Q 818 -13 828 9 Q 861 61 840 247 Q 822 650 846 685 Q 847 688 851 691 Q 863 704 863 713 Q 862 726 829 750 Q 771 792 728 777 Q 707 774 673 768 Q 522 755 340 726 Q 303 722 268 723 C 238 723 260 675 289 680 Q 301 681 318 685 Q 331 689 453 707 Q 606 729 722 734 Q 747 735 753 723 Q 777 695 775 402 Q 776 224 778 181 Q 781 135 770 116 Q 766 103 760 102 Q 754 102 740 107 C 720 100 720 100 731 85 Z" fill="black" /></g></svg>