<?xml version='1.0' encoding='utf-8'?>
<svg xmlns="http://www.w3.org/2000/svg" version="1.1" viewBox="0 0 1024 1024"><g transform="scale(1, -1) translate(0, -900)"><path d="M 700 179 Q 712 151 734 106 Q 744 87 755 88 Q 773 91 783 120 Q 832 220 837 355 Q 846 439 854 536 Q 858 596 886 632 Q 907 657 891 673 Q 864 698 807 723 Q 783 735 744 720 Q 626 684 492 666 Q 374 653 201 650 C 171 649 213 593 242 599 Q 260 608 706 659 Q 757 666 776 642 Q 789 620 789 596 Q 788 418 752 245 Q 748 214 736 212 Q 733 211 727 212 C 706 191 698 183 700 179 Z" fill="black" /></g></svg>