<?xml version='1.0' encoding='utf-8'?>
<svg xmlns="http://www.w3.org/2000/svg" version="1.1" viewBox="0 0 1024 1024"><g transform="scale(1, -1) translate(0, -900)"><path d="M 305 632 Q 296 642 262 660 Q 250 666 237 661 Q 230 655 235 641 Q 235 635 240 623 L 241 621 Q 241 620 242 618 Q 242 617 244 613 Q 278 541 246 206 Q 239 163 226 112 Q 207 48 248 -2 Q 258 -17 272 -3 Q 279 9 284 21 L 290 62 Q 294 95 295 143 Q 310 560 314 587 Q 314 590 314 592 C 316 622 316 623 305 632 Z" fill="black" /></g></svg>