<?xml version='1.0' encoding='utf-8'?>
<svg xmlns="http://www.w3.org/2000/svg" version="1.1" viewBox="0 0 1024 1024"><g transform="scale(1, -1) translate(0, -900)"><path d="M 717 200 Q 732 151 739 143 Q 746 131 756 132 Q 768 133 780 152 Q 822 206 870 461 Q 880 527 903 564 Q 916 579 914 589 Q 915 605 874 643 Q 825 691 790 679 Q 784 679 778 677 Q 756 673 680 666 Q 451 647 302 616 Q 220 604 181 600 C 151 597 189 543 218 552 Q 222 553 236 558 Q 294 576 370 589 L 410 596 Q 485 611 523 611 L 589 618 Q 686 630 773 631 Q 798 632 810 616 Q 825 603 823 571 Q 820 493 784 354 Q 759 245 748 231 Q 747 227 739 225 Q 733 226 726 230 C 709 223 709 223 717 200 Z" fill="black" /></g></svg>