<?xml version='1.0' encoding='utf-8'?>
<svg xmlns="http://www.w3.org/2000/svg" version="1.1" viewBox="0 0 1024 1024"><g transform="scale(1, -1) translate(0, -900)"><path d="M 728 76 Q 732 69 741 58 Q 757 34 771 8 Q 781 -14 797 -14 Q 810 -13 819 9 Q 850 63 828 255 Q 804 672 825 706 Q 828 712 832 716 Q 844 729 843 738 Q 842 751 809 774 Q 755 811 742 809 Q 732 809 724 805 Q 706 798 653 790 Q 499 774 316 743 Q 288 740 262 740 C 232 739 244 689 273 696 Q 282 697 294 702 Q 307 706 431 726 Q 585 750 702 757 Q 727 758 733 746 Q 757 722 761 413 Q 765 226 767 183 Q 771 134 761 115 Q 757 102 751 102 C 739 75 721 86 728 76 Z" fill="black" /></g></svg>