<?xml version='1.0' encoding='utf-8'?>
<svg xmlns="http://www.w3.org/2000/svg" version="1.1" viewBox="0 0 1024 1024"><g transform="scale(1, -1) translate(0, -900)"><path d="M 471 484 Q 501 577 514 593 Q 527 612 520 624 Q 508 642 467 668 Q 449 680 434 673 Q 421 667 430 652 Q 448 621 421 476 L 412 442 Q 382 363 381 359 Q 372 337 392 322 Q 438 298 477 268 L 508 244 Q 542 217 588 174 Q 603 161 612 160 Q 619 160 625 170 Q 631 180 625 209 Q 618 239 541 279 L 503 299 Q 475 315 438 332 Q 422 339 422 357 Q 441 403 459 450 L 471 484 Z" fill="black" /></g></svg>