<?xml version='1.0' encoding='utf-8'?>
<svg xmlns="http://www.w3.org/2000/svg" version="1.1" viewBox="0 0 1024 1024"><g transform="scale(1, -1) translate(0, -900)"><path d="M 719 87 Q 743 56 759 21 Q 769 -3 785 -2 Q 798 -1 808 21 Q 841 73 820 263 Q 802 675 826 710 Q 827 714 831 716 Q 843 731 842 740 Q 841 753 807 776 Q 752 813 737 812 Q 727 812 718 808 Q 700 801 645 792 Q 491 776 305 745 Q 275 741 246 742 C 216 741 233 688 262 695 Q 272 696 286 701 Q 301 705 425 726 Q 582 750 701 757 Q 726 758 733 746 Q 757 718 755 419 Q 756 238 758 194 Q 761 128 743 115 C 732 87 710 100 719 87 Z" fill="black" /></g></svg>