<?xml version='1.0' encoding='utf-8'?>
<svg xmlns="http://www.w3.org/2000/svg" version="1.1" viewBox="0 0 1024 1024"><g transform="scale(1, -1) translate(0, -900)"><path d="M 558 532 Q 564 539 631 544 Q 643 544 648 539 Q 657 518 633 383 Q 615 287 579 233 Q 564 211 550 210 Q 538 209 476 230 Q 467 233 467 228 Q 466 224 476 216 Q 509 176 523 148 Q 530 130 541 130 Q 557 127 573 141 Q 633 178 662 285 Q 684 358 705 472 Q 709 497 728 515 Q 740 525 739 534 Q 738 541 722 553 Q 700 572 669 583 Q 651 592 579 569 Q 569 568 560 564 Q 524 555 391 528 C 362 522 344 511 374 508 Q 395 505 416 505 L 445 509 Q 488 519 529 526 L 558 532 Z" fill="black" /></g></svg>