<?xml version='1.0' encoding='utf-8'?>
<svg xmlns="http://www.w3.org/2000/svg" version="1.1" viewBox="0 0 1024 1024"><g transform="scale(1, -1) translate(0, -900)"><path d="M 709 48 Q 743 5 769 -37 Q 779 -58 792 -57 Q 811 -56 828 -17 Q 849 28 844 81 Q 832 249 825 557 Q 824 594 843 620 Q 853 635 843 647 Q 821 669 759 698 Q 737 708 719 697 Q 607 655 371 626 L 346 624 Q 324 624 306 623 C 276 622 288 579 318 584 Q 693 645 707 644 Q 729 641 744 629 Q 760 614 769 490 Q 776 372 770 217 Q 771 114 761 83 Q 757 61 735 71 Q 732 72 729 74 C 699 69 694 68 709 48 Z" fill="black" /></g></svg>