<?xml version='1.0' encoding='utf-8'?>
<svg xmlns="http://www.w3.org/2000/svg" version="1.1" viewBox="0 0 1024 1024"><g transform="scale(1, -1) translate(0, -900)"><path d="M 735 64 Q 756 43 781 -6 Q 791 -27 805 -26 Q 818 -25 825 -5 Q 855 46 831 238 Q 801 667 825 696 Q 826 700 830 702 Q 840 717 840 724 Q 839 737 807 758 Q 753 795 709 781 Q 690 777 656 770 Q 506 754 327 723 Q 299 719 272 720 C 242 719 256 669 285 676 Q 294 677 306 682 Q 319 686 441 707 Q 592 729 708 738 Q 733 739 739 727 Q 764 702 769 392 Q 775 205 777 160 Q 780 126 766 82 C 759 53 717 88 735 64 Z" fill="black" /></g></svg>