<?xml version='1.0' encoding='utf-8'?>
<svg xmlns="http://www.w3.org/2000/svg" version="1.1" viewBox="0 0 1024 1024"><g transform="scale(1, -1) translate(0, -900)"><path d="M 729 68 Q 751 40 775 -4 Q 785 -26 801 -26 Q 814 -25 823 -3 Q 854 51 832 241 Q 808 652 829 686 Q 832 692 836 696 Q 848 709 847 718 Q 846 731 813 754 Q 755 796 712 781 Q 691 777 657 771 Q 503 756 317 726 Q 289 723 260 723 C 230 722 246 674 275 680 Q 521 728 706 738 Q 731 739 737 726 Q 755 708 764 444 L 764 425 Q 764 374 771 170 Q 774 119 759 92 C 751 63 713 91 729 68 Z" fill="black" /></g></svg>