<?xml version='1.0' encoding='utf-8'?>
<svg xmlns="http://www.w3.org/2000/svg" version="1.1" viewBox="0 0 1024 1024"><g transform="scale(1, -1) translate(0, -900)"><path d="M 707 94 Q 743 45 758 10 Q 768 -15 785 -14 Q 800 -13 809 9 Q 842 66 825 252 Q 813 666 835 693 Q 838 699 842 703 Q 854 719 853 729 Q 852 744 814 768 Q 753 808 737 806 Q 725 805 717 801 Q 698 792 637 782 Q 489 766 310 734 Q 276 730 244 731 C 214 730 234 671 263 677 Q 279 677 304 685 Q 317 689 439 710 Q 592 734 708 742 Q 733 743 739 732 Q 763 704 758 409 Q 758 229 759 187 Q 760 141 751 122 Q 745 109 741 108 C 729 81 690 118 707 94 Z" fill="black" /></g></svg>