<?xml version='1.0' encoding='utf-8'?>
<svg xmlns="http://www.w3.org/2000/svg" version="1.1" viewBox="0 0 1024 1024"><g transform="scale(1, -1) translate(0, -900)"><path d="M 726 86 Q 747 62 774 10 Q 784 -15 801 -14 Q 816 -13 825 10 Q 858 65 837 254 Q 821 662 839 694 Q 842 700 846 704 Q 858 719 858 727 Q 857 740 823 764 Q 760 807 717 791 Q 696 788 664 783 Q 507 767 318 735 Q 288 731 261 732 C 231 731 242 681 271 688 Q 281 689 294 694 Q 309 698 434 719 Q 591 741 712 749 Q 737 752 744 738 Q 766 716 768 412 Q 769 231 772 188 Q 775 140 765 121 Q 761 108 754 107 L 753 107 C 739 80 717 99 726 86 Z" fill="black" /></g></svg>