<?xml version='1.0' encoding='utf-8'?>
<svg xmlns="http://www.w3.org/2000/svg" version="1.1" viewBox="0 0 1024 1024"><g transform="scale(1, -1) translate(0, -900)"><path d="M 713 82 Q 746 43 766 -2 Q 776 -27 793 -26 Q 808 -25 817 -3 Q 850 54 830 243 Q 812 661 837 691 Q 838 695 842 697 Q 855 712 854 721 Q 853 734 818 759 Q 761 798 747 796 Q 737 796 728 792 Q 709 785 653 777 Q 502 762 320 733 Q 286 729 254 730 C 224 730 251 676 280 683 Q 289 684 302 689 Q 317 693 439 712 Q 592 734 709 740 Q 734 741 740 729 Q 764 701 762 402 Q 763 219 765 176 Q 766 131 754 102 C 747 73 695 106 713 82 Z" fill="black" /></g></svg>