<?xml version='1.0' encoding='utf-8'?>
<svg xmlns="http://www.w3.org/2000/svg" version="1.1" viewBox="0 0 1024 1024"><g transform="scale(1, -1) translate(0, -900)"><path d="M 751 76 Q 772 55 799 4 Q 809 -20 825 -18 Q 838 -17 847 5 Q 877 62 852 247 Q 822 661 841 685 Q 844 692 849 697 Q 861 712 860 720 Q 859 733 825 756 Q 767 795 724 781 Q 703 777 668 770 Q 517 754 335 723 Q 307 720 282 720 C 252 719 256 670 285 676 Q 297 676 314 682 Q 327 686 450 706 Q 601 730 718 737 Q 743 738 749 726 Q 774 701 782 401 Q 789 220 792 177 Q 796 117 780 98 C 771 69 735 96 751 76 Z" fill="black" /></g></svg>