<?xml version='1.0' encoding='utf-8'?>
<svg xmlns="http://www.w3.org/2000/svg" version="1.1" viewBox="0 0 1024 1024"><g transform="scale(1, -1) translate(0, -900)"><path d="M 725 87 Q 746 57 764 24 Q 774 2 789 2 Q 802 3 811 24 Q 841 78 819 270 Q 795 696 820 734 Q 821 738 825 740 Q 835 755 836 763 Q 835 776 800 799 Q 734 841 697 823 Q 676 819 641 812 Q 490 796 308 765 Q 278 761 250 762 C 220 761 237 708 266 715 Q 276 716 290 721 Q 305 725 427 746 Q 581 770 699 777 Q 724 778 730 766 Q 755 738 756 428 Q 760 239 762 195 Q 766 146 755 126 Q 751 113 747 113 C 736 85 718 98 725 87 Z" fill="black" /></g></svg>