<?xml version='1.0' encoding='utf-8'?>
<svg xmlns="http://www.w3.org/2000/svg" version="1.1" viewBox="0 0 1024 1024"><g transform="scale(1, -1) translate(0, -900)"><path d="M 550 441 Q 510 498 460 518 C 433 531 413 518 438 502 Q 445 498 452 493 L 497 454 Q 504 447 511 437 L 537 383 Q 550 331 532 260 Q 525 230 516 226 Q 510 223 446 230 Q 433 234 432 228 Q 431 221 441 211 Q 484 171 502 146 Q 514 130 527 133 Q 543 137 557 160 Q 573 191 581 242 Q 590 312 583 354 L 574 390 Q 568 412 559 428 L 550 441 Z" fill="black" /></g></svg>