<?xml version='1.0' encoding='utf-8'?>
<svg xmlns="http://www.w3.org/2000/svg" version="1.1" viewBox="0 0 1024 1024"><g transform="scale(1, -1) translate(0, -900)"><path d="M 727 74 Q 752 44 778 -7 Q 788 -31 805 -30 Q 820 -29 829 -6 Q 860 48 840 238 Q 816 652 842 684 Q 843 688 847 691 Q 860 707 859 716 Q 858 731 821 755 Q 763 795 747 792 Q 735 792 727 788 Q 708 779 649 770 Q 501 757 323 727 Q 286 723 253 724 C 223 724 245 669 275 674 Q 288 673 311 680 Q 324 684 446 703 Q 597 725 713 731 Q 738 732 744 720 Q 765 696 769 413 Q 769 340 775 171 Q 778 125 768 105 Q 764 92 757 91 L 756 91 C 742 64 715 90 727 74 Z" fill="black" /></g></svg>