<?xml version='1.0' encoding='utf-8'?>
<svg xmlns="http://www.w3.org/2000/svg" version="1.1" viewBox="0 0 1024 1024"><g transform="scale(1, -1) translate(0, -900)"><path d="M 740 48 Q 758 30 776 -12 Q 786 -34 801 -34 Q 814 -33 823 -12 Q 854 40 834 239 Q 818 675 837 708 Q 840 714 844 718 Q 854 731 855 740 Q 854 753 821 775 Q 758 817 727 802 Q 708 798 669 791 Q 509 776 319 746 Q 283 742 250 743 C 220 742 234 695 264 700 Q 276 700 294 705 Q 309 709 436 729 Q 596 753 718 759 Q 743 760 750 747 Q 775 717 773 400 Q 774 207 776 161 Q 780 110 768 90 Q 764 77 758 77 C 745 50 738 51 740 48 Z" fill="black" /></g></svg>