<?xml version='1.0' encoding='utf-8'?>
<svg xmlns="http://www.w3.org/2000/svg" version="1.1" viewBox="0 0 1024 1024"><g transform="scale(1, -1) translate(0, -900)"><path d="M 739 61 Q 763 28 779 -4 Q 789 -26 805 -26 Q 818 -25 828 -3 Q 859 54 837 246 Q 819 676 837 706 Q 840 712 844 715 Q 856 730 855 738 Q 855 751 821 774 Q 761 816 721 802 Q 702 798 665 792 Q 506 779 316 750 Q 283 746 254 747 C 224 746 234 698 263 704 Q 273 704 290 709 Q 305 713 432 732 Q 591 753 713 758 Q 738 759 745 746 Q 770 721 771 407 Q 775 217 777 173 Q 780 124 769 103 Q 765 90 759 90 L 758 90 C 745 63 736 65 739 61 Z" fill="black" /></g></svg>