<?xml version='1.0' encoding='utf-8'?>
<svg xmlns="http://www.w3.org/2000/svg" version="1.1" viewBox="0 0 1024 1024"><g transform="scale(1, -1) translate(0, -900)"><path d="M 459 459 Q 574 492 596 483 Q 606 479 607 456 Q 619 332 612 234 Q 611 215 600 210 Q 590 207 540 221 Q 530 224 530 217 Q 531 210 544 201 Q 575 173 599 145 Q 612 130 627 131 Q 640 134 655 170 Q 674 207 672 245 Q 665 335 659 418 Q 656 451 670 477 Q 680 490 668 502 Q 652 515 618 527 Q 599 536 584 525 Q 569 518 543 509 Q 473 490 442 482 C 413 474 430 451 459 459 Z" fill="black" /></g></svg>