<?xml version='1.0' encoding='utf-8'?>
<svg xmlns="http://www.w3.org/2000/svg" version="1.1" viewBox="0 0 1024 1024"><g transform="scale(1, -1) translate(0, -900)"><path d="M 483 189 Q 487 170 492 162 Q 496 158 502 159 Q 508 162 512 173 Q 518 191 523 282 L 524 316 Q 524 347 522 380 L 521 414 Q 521 442 522 476 L 522 500 Q 522 530 523 563 L 524 600 Q 527 630 533 651 Q 534 664 524 672 Q 499 688 488 691 Q 478 695 466 687 Q 459 681 464 673 Q 482 643 483 591 L 483 556 Q 483 528 482 493 L 482 470 Q 481 439 480 402 L 480 373 Q 480 340 479 304 L 479 275 Q 479 217 483 189 Z" fill="black" /></g></svg>