<?xml version='1.0' encoding='utf-8'?>
<svg xmlns="http://www.w3.org/2000/svg" version="1.1" viewBox="0 0 1024 1024"><g transform="scale(1, -1) translate(0, -900)"><path d="M 522 476 Q 604 489 624 480 Q 634 476 638 453 Q 648 332 640 237 Q 639 218 628 215 Q 619 211 568 217 Q 558 218 558 212 Q 559 205 573 198 Q 604 173 628 147 Q 641 134 654 135 Q 667 138 683 173 Q 702 209 700 246 Q 696 334 690 415 Q 689 446 702 472 Q 712 485 700 499 Q 684 514 650 526 Q 635 533 578 513 Q 544 507 522 500 L 482 493 Q 413 483 378 477 C 348 472 359 448 389 453 Q 398 454 407 456 Q 447 465 482 470 L 522 476 Z" fill="black" /></g></svg>