<?xml version='1.0' encoding='utf-8'?>
<svg xmlns="http://www.w3.org/2000/svg" version="1.1" viewBox="0 0 1024 1024"><g transform="scale(1, -1) translate(0, -900)"><path d="M 539 370 Q 623 380 640 367 Q 652 363 654 345 Q 658 302 651 224 Q 652 205 634 205 Q 613 206 598 207 Q 583 210 587 201 Q 588 192 613 173 Q 638 148 653 120 Q 662 113 671 117 Q 678 121 689 145 Q 707 179 706 219 Q 703 349 714 367 Q 723 377 716 388 Q 706 397 669 412 Q 653 418 639 409 Q 620 405 568 400 Q 493 393 436 383 Q 384 377 347 373 C 317 370 324 335 352 345 Q 359 345 369 351 Q 385 355 410 358 L 419 359 Q 452 365 503 368 L 539 370 Z" fill="black" /></g></svg>