<?xml version='1.0' encoding='utf-8'?>
<svg xmlns="http://www.w3.org/2000/svg" version="1.1" viewBox="0 0 1024 1024"><g transform="scale(1, -1) translate(0, -900)"><path d="M 750 68 Q 771 47 795 -3 Q 805 -27 821 -26 Q 834 -25 844 -3 Q 877 57 853 252 Q 829 693 853 728 Q 854 734 859 737 Q 871 752 870 760 Q 869 773 834 797 Q 779 834 764 831 Q 754 831 745 827 Q 727 820 672 810 Q 510 791 317 755 Q 281 751 248 751 C 218 750 239 697 268 704 Q 278 705 295 710 Q 310 716 440 739 Q 603 767 728 777 Q 755 778 761 765 Q 788 738 788 416 Q 791 220 793 175 Q 797 124 786 103 Q 782 90 776 90 C 764 63 740 82 750 68 Z" fill="black" /></g></svg>