<?xml version='1.0' encoding='utf-8'?>
<svg xmlns="http://www.w3.org/2000/svg" version="1.1" viewBox="0 0 1024 1024"><g transform="scale(1, -1) translate(0, -900)"><path d="M 716 44 Q 741 13 763 -31 Q 773 -55 789 -54 Q 802 -53 812 -31 Q 845 23 823 232 Q 799 688 826 729 Q 827 732 831 735 Q 843 748 843 757 Q 842 770 809 794 Q 751 836 708 821 Q 687 817 653 811 Q 490 796 294 766 Q 263 762 233 763 C 203 762 219 714 248 720 Q 266 726 413 749 Q 420 750 429 751 L 463 756 Q 593 775 700 779 Q 727 780 733 767 Q 758 734 759 421 Q 759 274 763 150 Q 766 96 754 76 Q 750 63 744 62 Q 740 62 734 63 C 716 44 716 44 716 44 Z" fill="black" /></g></svg>