<?xml version='1.0' encoding='utf-8'?>
<svg xmlns="http://www.w3.org/2000/svg" version="1.1" viewBox="0 0 1024 1024"><g transform="scale(1, -1) translate(0, -900)"><path d="M 509 186 Q 552 196 661 191 Q 680 190 686 200 Q 692 207 675 218 Q 630 251 579 234 Q 516 224 510 221 L 467 213 Q 424 206 383 195 Q 358 188 366 209 Q 375 237 381 248 Q 390 257 385 265 Q 379 274 351 287 Q 336 294 328 289 Q 319 282 327 270 Q 351 231 314 189 Q 299 183 302 164 Q 305 155 319 144 Q 329 137 340 147 Q 388 171 468 179 L 509 186 Z" fill="black" /></g></svg>