<?xml version='1.0' encoding='utf-8'?>
<svg xmlns="http://www.w3.org/2000/svg" version="1.1" viewBox="0 0 1024 1024"><g transform="scale(1, -1) translate(0, -900)"><path d="M 739 50 Q 763 17 776 -12 Q 786 -34 801 -34 Q 814 -33 823 -12 Q 854 40 834 240 Q 818 684 838 715 Q 839 719 844 723 Q 856 738 855 746 Q 854 759 820 783 Q 757 828 718 808 Q 697 804 661 798 Q 502 785 312 756 Q 272 752 235 753 C 205 753 234 701 263 707 Q 273 707 290 712 Q 306 716 434 735 Q 594 757 717 762 Q 744 763 750 750 Q 772 723 773 346 L 773 329 Q 774 199 776 161 Q 780 110 768 90 Q 764 77 758 77 Q 754 77 747 78 C 731 63 731 63 739 50 Z" fill="black" /></g></svg>