<?xml version='1.0' encoding='utf-8'?>
<svg xmlns="http://www.w3.org/2000/svg" version="1.1" viewBox="0 0 1024 1024"><g transform="scale(1, -1) translate(0, -900)"><path d="M 248 271 Q 317 283 383 347 L 401 364 Q 422 386 453 442 L 470 477 Q 483 507 490 538 L 499 577 Q 511 649 529 684 Q 536 699 524 706 Q 487 736 464 729 Q 454 726 458 713 Q 476 671 457 571 Q 456 570 456 567 L 447 529 Q 444 519 425 470 L 405 433 Q 351 352 269 298 Q 259 291 249 283 C 227 266 227 266 248 271 Z" fill="black" /></g></svg>