<?xml version='1.0' encoding='utf-8'?>
<svg xmlns="http://www.w3.org/2000/svg" version="1.1" viewBox="0 0 1024 1024"><g transform="scale(1, -1) translate(0, -900)"><path d="M 436 321 Q 488 339 527 345 Q 536 346 537 344 Q 541 340 541 328 Q 542 294 538 278 Q 526 257 507 260 Q 489 264 474 269 Q 458 273 470 258 Q 500 231 514 209 Q 521 199 531 206 Q 562 225 581 313 Q 585 335 594 345 Q 601 354 598 361 Q 592 368 557 382 Q 544 388 532 378 Q 514 366 430 347 C 401 340 408 311 436 321 Z" fill="black" /></g></svg>