<?xml version='1.0' encoding='utf-8'?>
<svg xmlns="http://www.w3.org/2000/svg" version="1.1" viewBox="0 0 1024 1024"><g transform="scale(1, -1) translate(0, -900)"><path d="M 443 762 Q 453 744 457 711 L 459 674 Q 459 658 459 629 L 459 602 Q 459 584 459 561 L 459 527 Q 459 508 459 486 L 459 458 Q 459 433 459 401 C 459 371 502 380 502 410 Q 502 438 503 463 L 503 495 Q 504 516 505 536 L 506 574 Q 506 593 506 611 L 507 640 Q 508 664 510 686 L 514 728 Q 518 744 510 752 Q 501 761 492 768 C 469 787 431 789 443 762 Z" fill="black" /></g></svg>