<?xml version='1.0' encoding='utf-8'?>
<svg xmlns="http://www.w3.org/2000/svg" version="1.1" viewBox="0 0 1024 1024"><g transform="scale(1, -1) translate(0, -900)"><path d="M 729 36 Q 759 -9 769 -30 Q 779 -55 797 -54 Q 812 -53 822 -29 Q 858 31 833 239 Q 809 701 836 734 Q 837 738 842 742 Q 855 758 854 767 Q 853 780 817 806 Q 760 846 745 844 Q 733 844 726 840 Q 707 833 649 824 Q 487 808 293 777 Q 260 773 230 774 C 200 773 229 721 258 729 Q 313 747 443 762 L 492 768 Q 607 784 702 789 Q 729 790 735 777 Q 762 744 762 412 Q 765 208 767 161 Q 771 109 759 87 Q 755 72 748 72 C 735 45 728 38 729 36 Z" fill="black" /></g></svg>