<?xml version='1.0' encoding='utf-8'?>
<svg xmlns="http://www.w3.org/2000/svg" version="1.1" viewBox="0 0 1024 1024"><g transform="scale(1, -1) translate(0, -900)"><path d="M 862 733 Q 860 747 819 776 Q 778 804 760 804 Q 755 804 741 800 Q 719 792 670 786 Q 542 772 376 745 Q 296 732 253 734 Q 248 734 243 735 C 213 735 249 684 278 690 L 394 713 Q 555 743 719 753 Q 745 754 752 741 Q 776 715 778 400 Q 782 208 784 166 Q 787 118 774 92 Q 770 82 766 82 L 762 82 C 747 56 736 67 741 61 Q 759 41 779 1 Q 792 -26 802 -31 Q 807 -34 811 -34 Q 825 -33 835 -12 Q 866 46 844 239 Q 826 678 844 701 Q 845 707 851 710 Q 860 725 862 733 Z" fill="black" /></g></svg>