<?xml version='1.0' encoding='utf-8'?>
<svg xmlns="http://www.w3.org/2000/svg" version="1.1" viewBox="0 0 1024 1024"><g transform="scale(1, -1) translate(0, -900)"><path d="M 557 498 Q 614 564 666 662 Q 682 693 706 710 Q 728 726 716 742 Q 703 757 670 773 Q 646 783 561 755 Q 446 728 349 722 Q 333 721 326 713 Q 322 704 343 695 Q 386 676 445 693 Q 568 724 589 722 Q 610 722 608 699 Q 575 600 515 529 L 488 503 Q 374 400 135 352 Q 119 349 130 339 Q 140 333 208 336 Q 295 342 395 385 Q 468 416 526 466 L 557 498 Z" fill="black" /></g></svg>