<?xml version='1.0' encoding='utf-8'?>
<svg xmlns="http://www.w3.org/2000/svg" version="1.1" viewBox="0 0 1024 1024"><g transform="scale(1, -1) translate(0, -900)"><path d="M 955 120 Q 940 156 925 263 Q 925 281 917 286 Q 910 290 905 271 Q 874 157 853 122 Q 835 101 785 88 Q 668 58 572 99 Q 535 118 524 141 Q 494 205 529 412 C 533 437 533 437 520 446 Q 507 459 486 467 Q 473 471 464 466 Q 457 462 462 444 Q 475 404 472 365 Q 459 175 475 121 Q 479 91 508 66 Q 595 -10 806 18 Q 825 22 847 27 Q 898 42 947 76 Q 969 92 955 120 Z" fill="black" /></g></svg>