<?xml version='1.0' encoding='utf-8'?>
<svg xmlns="http://www.w3.org/2000/svg" version="1.1" viewBox="0 0 1024 1024"><g transform="scale(1, -1) translate(0, -900)"><path d="M 511 292 Q 559 329 656 355 Q 693 367 717 361 Q 742 354 746 315 Q 740 201 690 112 Q 674 85 659 78 Q 637 69 561 94 Q 543 101 542 94 Q 542 87 555 75 Q 598 30 628 -10 Q 640 -23 651 -22 Q 669 -23 689 -8 Q 741 44 765 108 Q 789 172 805 294 Q 806 327 818 347 Q 831 362 819 375 Q 800 391 757 408 Q 735 417 709 406 Q 675 393 650 387 Q 619 380 578 370 Q 556 366 565 388 Q 596 458 611 475 Q 624 491 612 506 Q 602 513 588 520 C 563 536 528 537 535 508 Q 547 496 539 459 Q 518 390 476 354 Q 460 335 463 320 Q 466 304 484 290 Q 497 278 511 292 Z" fill="black" /></g></svg>