<?xml version='1.0' encoding='utf-8'?>
<svg xmlns="http://www.w3.org/2000/svg" version="1.1" viewBox="0 0 1024 1024"><g transform="scale(1, -1) translate(0, -900)"><path d="M 638 216 Q 539 125 428 85 Q 403 78 404 73 Q 405 61 473 79 Q 578 106 670 175 L 709 214 Q 769 286 792 379 Q 804 421 826 441 Q 832 445 830 454 Q 827 475 774 500 Q 755 507 729 495 Q 719 488 685 476 Q 655 467 678 517 Q 699 560 742 651 Q 755 676 771 686 Q 789 696 793 707 Q 796 720 753 742 Q 705 767 666 744 Q 611 708 447 683 Q 443 683 441 682 Q 419 681 420 669 Q 421 659 453 651 Q 468 647 491 649 L 536 660 Q 539 663 663 700 Q 681 706 685 697 Q 694 673 639 537 Q 623 509 608 491 Q 593 475 601 459 Q 610 444 621 436 Q 630 430 637 431 Q 644 432 657 440 Q 711 464 734 442 Q 744 432 734 394 Q 710 292 669 251 L 638 216 Z" fill="black" /></g></svg>