<?xml version='1.0' encoding='utf-8'?>
<svg xmlns="http://www.w3.org/2000/svg" version="1.1" viewBox="0 0 1024 1024"><g transform="scale(1, -1) translate(0, -900)"><path d="M 751 107 Q 735 83 718 87 Q 684 94 636 107 Q 620 110 619 106 Q 620 102 638 88 Q 681 54 710 9 Q 720 -7 731 -10 Q 738 -11 757 4 Q 812 53 847 130 Q 881 206 911 416 Q 917 443 930 454 Q 943 466 930 482 Q 914 497 884 515 Q 862 528 835 520 Q 807 513 780 507 Q 758 503 671 488 Q 581 475 565 471 Q 555 464 550 474 Q 551 496 657 629 Q 711 693 734 700 Q 750 707 750 714 Q 751 723 744 728 Q 722 750 693 762 Q 674 772 640 758 Q 517 719 443 721 Q 427 721 424 716 Q 421 710 427 702 Q 434 690 451 681 Q 467 671 488 675 Q 656 721 660 711 Q 657 692 544 530 Q 541 529 540 526 Q 519 498 490 473 Q 469 461 482 424 Q 485 414 514 422 Q 524 426 537 428 L 574 438 Q 616 450 674 460 L 721 467 Q 785 477 820 478 Q 842 478 846 467 Q 865 368 799 190 Q 796 187 796 184 Q 783 144 751 107 Z" fill="black" /></g></svg>