<?xml version='1.0' encoding='utf-8'?>
<svg xmlns="http://www.w3.org/2000/svg" version="1.1" viewBox="0 0 1024 1024"><g transform="scale(1, -1) translate(0, -900)"><path d="M 467 534 Q 533 550 588 556 Q 607 557 611 552 Q 618 542 614 518 Q 608 448 592 417 Q 574 386 547 391 Q 523 395 502 402 Q 480 408 496 387 Q 536 353 556 324 Q 569 308 584 319 Q 635 350 662 470 Q 668 527 689 550 Q 699 560 695 571 Q 686 581 641 602 Q 623 609 606 599 Q 584 586 499 568 Q 414 549 343 545 Q 327 545 325 537 Q 324 530 344 520 Q 365 507 382 513 Q 407 520 435 526 L 467 534 Z" fill="black" /></g></svg>