<?xml version='1.0' encoding='utf-8'?>
<svg xmlns="http://www.w3.org/2000/svg" version="1.1" viewBox="0 0 1024 1024"><g transform="scale(1, -1) translate(0, -900)"><path d="M 520 546 Q 559 530 588 539 Q 616 549 753 574 Q 775 578 785 568 Q 807 540 796 357 Q 786 206 746 103 Q 736 79 723 74 Q 716 70 615 92 Q 596 98 594 93 Q 591 86 608 73 Q 660 30 689 -9 Q 708 -39 725 -34 Q 740 -31 762 -4 Q 793 32 816 99 Q 841 181 864 452 Q 868 522 889 546 Q 907 567 884 585 Q 806 637 755 616 Q 653 592 538 570 C 509 564 491 554 520 546 Z" fill="black" /></g></svg>