<?xml version='1.0' encoding='utf-8'?>
<svg xmlns="http://www.w3.org/2000/svg" version="1.1" viewBox="0 0 1024 1024"><g transform="scale(1, -1) translate(0, -900)"><path d="M 717 393 Q 718 99 702 66 Q 699 63 616 75 Q 594 81 597 71 Q 658 22 695 -14 Q 710 -33 726 -39 Q 736 -42 744 -32 Q 787 22 783 78 Q 774 211 770 397 L 769 445 Q 765 667 780 695 Q 793 716 780 727 Q 758 746 719 762 Q 700 769 683 761 Q 617 725 522 715 C 492 711 526 679 555 686 Q 556 687 561 688 Q 618 700 673 713 Q 694 717 699 707 Q 712 671 717 435 L 717 393 Z" fill="black" /></g></svg>