<?xml version='1.0' encoding='utf-8'?>
<svg xmlns="http://www.w3.org/2000/svg" version="1.1" viewBox="0 0 1024 1024"><g transform="scale(1, -1) translate(0, -900)"><path d="M 306 583 Q 307 596 308 606 Q 308 645 314 675 Q 318 694 308 704 Q 283 723 258 734 Q 239 741 228 736 Q 215 729 231 708 Q 270 645 243 452 Q 236 415 208 374 Q 195 352 204 339 Q 214 324 242 311 Q 261 302 275 322 Q 294 362 400 428 Q 431 446 446 466 Q 453 479 444 479 Q 438 479 324 430 Q 309 423 303 428 Q 293 429 295 453 Q 299 508 303 548 L 306 583 Z" fill="black" /></g></svg>