<?xml version='1.0' encoding='utf-8'?>
<svg xmlns="http://www.w3.org/2000/svg" version="1.1" viewBox="0 0 1024 1024"><g transform="scale(1, -1) translate(0, -900)"><path d="M 621 561 Q 628 682 655 747 Q 662 762 652 774 Q 628 795 586 807 Q 559 814 550 808 Q 540 801 548 787 Q 572 747 573 697 Q 574 624 571 550 L 570 515 Q 563 392 555 362 L 549 321 Q 528 194 450 108 Q 407 69 338 28 Q 325 21 324 15 Q 325 11 338 11 Q 354 7 395 21 Q 531 66 580 223 Q 590 257 597 296 L 606 369 Q 607 382 609 395 Q 613 462 619 525 L 621 561 Z" fill="black" /></g></svg>