<?xml version='1.0' encoding='utf-8'?>
<svg xmlns="http://www.w3.org/2000/svg" version="1.1" viewBox="0 0 1024 1024"><g transform="scale(1, -1) translate(0, -900)"><path d="M 582 589 Q 589 701 601 739 Q 608 760 579 781 Q 554 797 534 808 Q 515 820 498 809 Q 488 803 508 776 Q 530 746 536 650 Q 536 422 550 398 Q 586 335 766 343 Q 836 346 886 368 Q 920 378 907 405 Q 886 448 869 526 Q 866 539 861 544 Q 852 551 849 535 Q 837 490 824 456 Q 817 434 796 420 Q 771 396 664 401 Q 622 404 606 414 Q 593 421 585 439 Q 573 469 580 564 L 582 589 Z" fill="black" /></g></svg>