<?xml version='1.0' encoding='utf-8'?>
<svg xmlns="http://www.w3.org/2000/svg" version="1.1" viewBox="0 0 1024 1024"><g transform="scale(1, -1) translate(0, -900)"><path d="M 769 396 Q 793 486 828 517 Q 844 538 829 556 Q 811 569 755 595 Q 736 602 713 593 Q 667 574 621 561 L 571 550 Q 505 537 440 530 Q 422 529 424 518 Q 427 511 446 503 Q 471 493 508 504 Q 539 510 570 515 L 619 525 Q 655 532 692 540 Q 716 546 725 536 Q 735 527 735 506 Q 726 439 713 386 C 706 357 761 367 769 396 Z" fill="black" /></g></svg>