<?xml version='1.0' encoding='utf-8'?>
<svg xmlns="http://www.w3.org/2000/svg" version="1.1" viewBox="0 0 1024 1024"><g transform="scale(1, -1) translate(0, -900)"><path d="M 694 421 Q 736 433 778 440 Q 791 441 794 436 Q 801 423 799 385 Q 795 249 771 175 Q 761 129 745 115 Q 735 103 710 110 Q 679 119 652 128 Q 628 135 645 114 Q 688 65 711 26 Q 721 4 741 10 Q 759 13 779 37 Q 840 103 858 345 Q 862 399 882 431 Q 898 453 888 463 Q 872 481 836 495 Q 811 507 784 494 Q 750 478 702 462 L 644 445 Q 575 430 537 427 Q 518 428 519 418 Q 518 408 540 396 Q 567 380 590 390 Q 612 399 636 404 L 694 421 Z" fill="black" /></g></svg>