<?xml version='1.0' encoding='utf-8'?>
<svg xmlns="http://www.w3.org/2000/svg" version="1.1" viewBox="0 0 1024 1024"><g transform="scale(1, -1) translate(0, -900)"><path d="M 667 181 Q 701 242 732 335 Q 742 363 761 381 Q 779 397 766 409 Q 753 419 723 430 Q 705 436 638 410 L 595 398 Q 562 392 515 388 Q 502 388 498 381 Q 494 374 511 367 Q 545 354 591 366 Q 646 385 657 384 Q 682 381 676 354 Q 660 275 633 218 L 611 181 Q 550 96 431 55 Q 418 51 430 44 Q 436 38 474 41 Q 561 51 640 142 L 667 181 Z" fill="black" /></g></svg>