<?xml version='1.0' encoding='utf-8'?>
<svg xmlns="http://www.w3.org/2000/svg" version="1.1" viewBox="0 0 1024 1024"><g transform="scale(1, -1) translate(0, -900)"><path d="M 604 307 Q 598 -35 616 -64 Q 631 -80 640 -59 Q 658 -17 657 315 L 657 351 Q 657 403 658 449 L 658 492 Q 658 541 659 583 L 660 621 Q 663 741 685 776 Q 692 792 672 808 Q 647 827 604 839 Q 585 843 572 830 Q 562 821 574 809 Q 605 784 607 747 Q 607 693 606 611 L 605 575 Q 605 530 605 477 L 605 440 Q 605 392 604 341 L 604 307 Z" fill="black" /></g></svg>