<?xml version='1.0' encoding='utf-8'?>
<svg xmlns="http://www.w3.org/2000/svg" version="1.1" viewBox="0 0 1024 1024"><g transform="scale(1, -1) translate(0, -900)"><path d="M 952 120 Q 939 145 917 221 Q 916 237 909 242 Q 902 245 898 227 Q 873 145 855 119 Q 842 103 802 92 Q 712 70 639 97 Q 611 110 603 128 Q 587 161 592 243 L 595 269 Q 599 315 609 365 Q 613 383 602 393 Q 589 406 566 415 Q 553 419 545 414 Q 538 410 544 393 Q 556 354 553 317 Q 543 154 556 109 Q 560 85 583 65 Q 667 -1 849 34 Q 855 35 862 37 Q 905 50 946 77 Q 965 93 952 120 Z" fill="black" /></g></svg>