<?xml version='1.0' encoding='utf-8'?>
<svg xmlns="http://www.w3.org/2000/svg" version="1.1" viewBox="0 0 1024 1024"><g transform="scale(1, -1) translate(0, -900)"><path d="M 657 429 Q 699 255 812 136 Q 824 124 839 112 Q 893 73 927 66 Q 952 67 950 100 Q 941 134 948 283 Q 948 296 942 297 Q 936 298 933 285 Q 920 251 909 218 Q 894 175 879 174 Q 860 177 826 213 Q 789 250 758 305 Q 728 359 700 443 L 690 489 Q 681 553 698 599 Q 705 621 648 657 C 623 674 600 668 613 641 Q 631 613 635 569 Q 639 520 648 473 L 657 429 Z" fill="black" /></g></svg>