<?xml version='1.0' encoding='utf-8'?>
<svg xmlns="http://www.w3.org/2000/svg" version="1.1" viewBox="0 0 1024 1024"><g transform="scale(1, -1) translate(0, -900)"><path d="M 538 711 Q 525 724 503 732 Q 481 741 477 730 Q 473 720 481 710 Q 503 679 500 640 Q 493 555 476 474 L 466 429 Q 456 390 446 352 Q 430 304 387 259 Q 368 243 371 226 Q 377 210 397 192 Q 416 176 438 197 Q 495 236 684 225 Q 694 225 709 222 L 766 215 Q 803 211 840 200 Q 859 193 873 199 Q 886 203 880 219 Q 873 240 851 254 Q 836 269 775 270 L 719 271 Q 629 275 483 260 Q 462 257 469 283 Q 491 356 512 439 L 521 480 Q 555 642 556 678 C 558 698 558 698 538 711 Z" fill="black" /></g></svg>