<?xml version='1.0' encoding='utf-8'?>
<svg xmlns="http://www.w3.org/2000/svg" version="1.1" viewBox="0 0 1024 1024"><g transform="scale(1, -1) translate(0, -900)"><path d="M 797 521 Q 801 650 814 679 Q 827 701 817 709 Q 810 721 754 756 Q 739 768 675 743 Q 633 733 538 711 C 509 704 527 670 556 678 Q 568 679 583 685 Q 709 718 726 705 Q 739 698 741 670 Q 742 583 741 511 L 739 465 Q 736 366 719 271 L 709 222 Q 679 120 657 101 Q 648 98 617 116 Q 593 129 577 138 Q 564 142 567 130 Q 568 120 586 106 Q 629 57 648 20 Q 676 -7 694 11 Q 733 59 766 215 L 775 270 Q 788 361 795 467 L 797 521 Z" fill="black" /></g></svg>