<?xml version='1.0' encoding='utf-8'?>
<svg xmlns="http://www.w3.org/2000/svg" version="1.1" viewBox="0 0 1024 1024"><g transform="scale(1, -1) translate(0, -900)"><path d="M 490 614 Q 474 623 442 630 Q 424 633 418 627 Q 411 620 424 601 Q 454 559 460 448 Q 460 256 420 188 Q 411 178 402 165 Q 390 152 399 129 Q 409 101 425 87 Q 438 77 451 94 Q 491 149 619 268 Q 635 280 636 290 Q 639 297 631 295 Q 622 295 521 232 Q 512 228 509 230 Q 502 234 504 251 Q 505 548 510 580 Q 511 592 508 599 C 507 607 507 607 490 614 Z" fill="black" /></g></svg>