<?xml version='1.0' encoding='utf-8'?>
<svg xmlns="http://www.w3.org/2000/svg" version="1.1" viewBox="0 0 1024 1024"><g transform="scale(1, -1) translate(0, -900)"><path d="M 877 408 Q 861 448 850 516 Q 847 529 841 534 Q 834 538 831 520 Q 821 436 808 421 Q 784 393 686 388 Q 631 387 608 396 Q 587 405 583 419 Q 576 435 576 470 L 578 506 Q 582 552 593 575 Q 603 602 586 616 Q 565 631 551 638 C 525 653 508 661 520 633 Q 520 630 523 625 Q 541 592 537 544 Q 536 507 536 478 L 536 452 Q 539 394 570 371 Q 612 340 767 348 Q 836 352 863 368 Q 888 381 877 408 Z" fill="black" /></g></svg>