<?xml version='1.0' encoding='utf-8'?>
<svg xmlns="http://www.w3.org/2000/svg" version="1.1" viewBox="0 0 1024 1024"><g transform="scale(1, -1) translate(0, -900)"><path d="M 424 425 Q 343 415 256 397 Q 247 394 244 397 Q 243 400 248 408 Q 342 511 363 529 Q 375 536 370 549 Q 366 562 322 587 Q 307 596 298 593 Q 285 589 289 568 Q 304 513 202 418 Q 184 405 162 391 Q 147 381 150 370 Q 154 354 177 333 Q 186 323 199 332 Q 238 362 429 401 Q 432 402 436 402 C 466 407 454 429 424 425 Z" fill="black" /></g></svg>