<?xml version='1.0' encoding='utf-8'?>
<svg xmlns="http://www.w3.org/2000/svg" version="1.1" viewBox="0 0 1024 1024"><g transform="scale(1, -1) translate(0, -900)"><path d="M 900 510 Q 915 517 905 533 Q 889 552 869 561 Q 856 567 832 556 Q 795 537 749 535 Q 719 535 709 555 Q 693 579 701 651 Q 702 694 741 742 Q 759 758 740 773 Q 715 792 687 804 Q 677 810 658 799 Q 592 769 534 758 C 505 752 526 712 555 721 Q 564 722 620 745 Q 642 752 649 750 Q 659 746 657 729 Q 656 677 653 630 Q 646 575 660 539 Q 669 512 694 497 Q 731 479 799 484 Q 866 490 900 510 Z" fill="black" /></g></svg>