<?xml version='1.0' encoding='utf-8'?>
<svg xmlns="http://www.w3.org/2000/svg" version="1.1" viewBox="0 0 1024 1024"><g transform="scale(1, -1) translate(0, -900)"><path d="M 594 443 Q 672 468 750 484 C 779 490 762 512 732 507 Q 629 491 521 463 Q 509 459 506 462 Q 505 465 510 474 Q 607 595 627 614 Q 640 624 634 637 Q 628 649 587 671 C 561 686 537 691 543 662 Q 543 658 545 653 Q 563 589 458 482 Q 398 440 409 418 Q 416 406 436 389 Q 446 379 461 389 Q 498 419 558 433 L 594 443 Z" fill="black" /></g></svg>