<?xml version='1.0' encoding='utf-8'?>
<svg xmlns="http://www.w3.org/2000/svg" version="1.1" viewBox="0 0 1024 1024"><g transform="scale(1, -1) translate(0, -900)"><path d="M 631 426 Q 739 272 857 244 Q 858 244 862 243 Q 887 244 883 277 Q 876 308 883 450 Q 884 463 878 465 Q 872 466 868 453 Q 852 422 839 390 Q 820 350 805 350 Q 786 351 747 381 Q 710 409 676 452 L 650 487 Q 625 524 604 566 Q 600 573 596 580 L 577 627 Q 556 691 568 744 Q 572 763 532 785 Q 492 804 481 800 Q 469 794 475 777 Q 499 752 509 705 Q 521 656 536 610 L 554 565 Q 578 508 610 458 L 631 426 Z" fill="black" /></g></svg>