<?xml version='1.0' encoding='utf-8'?>
<svg xmlns="http://www.w3.org/2000/svg" version="1.1" viewBox="0 0 1024 1024"><g transform="scale(1, -1) translate(0, -900)"><path d="M 342 761 Q 326 773 312 779 Q 293 786 284 780 Q 274 774 283 758 Q 328 668 304 444 Q 300 395 259 343 Q 247 327 255 304 Q 265 276 279 265 Q 292 256 304 274 Q 319 301 455 412 Q 474 425 480 434 Q 484 444 474 444 Q 471 444 365 397 Q 352 390 351 403 Q 355 470 358 530 L 359 553 Q 360 595 360 632 L 360 654 Q 363 693 367 731 C 368 743 367 744 342 761 Z" fill="black" /></g></svg>