<?xml version='1.0' encoding='utf-8'?>
<svg xmlns="http://www.w3.org/2000/svg" version="1.1" viewBox="0 0 1024 1024"><g transform="scale(1, -1) translate(0, -900)"><path d="M 488 456 Q 488 457 488 458 L 488 488 Q 487 534 485 578 L 484 610 Q 483 650 489 684 C 492 710 492 710 480 719 Q 456 738 436 747 Q 417 754 408 747 Q 398 740 407 725 Q 468 605 433 176 Q 430 125 389 75 Q 377 59 385 36 Q 395 9 409 -3 Q 422 -10 434 6 Q 452 34 606 148 Q 627 161 632 170 Q 636 180 626 180 Q 608 180 499 127 Q 481 120 481 136 Q 488 290 488 421 L 488 456 Z" fill="black" /></g></svg>