<?xml version='1.0' encoding='utf-8'?>
<svg xmlns="http://www.w3.org/2000/svg" version="1.1" viewBox="0 0 1024 1024"><g transform="scale(1, -1) translate(0, -900)"><path d="M 416 433 Q 355 429 317 424 Q 256 415 162 416 Q 149 417 147 405 Q 146 393 165 378 Q 181 365 212 353 Q 222 349 241 357 Q 286 370 413 386 Q 500 402 723 408 Q 811 404 858 397 Q 880 394 887 403 Q 894 416 883 428 Q 855 456 811 476 Q 796 483 771 475 Q 708 462 645 454 Q 612 453 585 448 L 545 445 Q 509 445 457 437 L 416 433 Z" fill="black" /></g></svg>