<?xml version='1.0' encoding='utf-8'?>
<svg xmlns="http://www.w3.org/2000/svg" version="1.1" viewBox="0 0 1024 1024"><g transform="scale(1, -1) translate(0, -900)"><path d="M 456 177 Q 463 182 468 188 Q 504 223 460 286 Q 435 335 484 400 Q 486 404 490 409 Q 507 424 492 437 Q 476 449 447 459 Q 430 466 398 441 Q 341 412 329 412 Q 323 413 321 408 Q 321 404 327 400 Q 357 388 408 410 Q 416 413 423 402 Q 441 386 425 363 Q 402 333 418 294 L 443 244 Q 452 221 448 204 Q 447 198 439 182 C 426 155 433 157 456 177 Z" fill="black" /></g></svg>