<?xml version='1.0' encoding='utf-8'?>
<svg xmlns="http://www.w3.org/2000/svg" version="1.1" viewBox="0 0 1024 1024"><g transform="scale(1, -1) translate(0, -900)"><path d="M 492 326 L 493 325 Q 500 312 490 285 Q 474 249 442 227 Q 426 211 427 196 Q 428 183 444 168 Q 456 156 469 168 Q 529 210 632 223 Q 684 227 688 180 Q 678 113 644 62 Q 628 37 612 30 Q 591 24 520 46 Q 504 53 502 46 Q 502 40 514 28 Q 554 -12 581 -47 Q 591 -59 600 -58 Q 616 -59 634 -47 Q 695 4 734 134 Q 752 198 755 202 Q 767 215 756 227 Q 741 243 703 260 Q 688 269 619 251 Q 573 242 534 236 Q 515 233 525 250 Q 547 286 557 293 Q 570 306 560 321 Q 551 328 539 336 C 515 353 488 356 492 326 Z" fill="black" /></g></svg>