<?xml version='1.0' encoding='utf-8'?>
<svg xmlns="http://www.w3.org/2000/svg" version="1.1" viewBox="0 0 1024 1024"><g transform="scale(1, -1) translate(0, -900)"><path d="M 512 326 Q 499 339 479 346 Q 466 350 459 346 Q 452 342 457 325 Q 469 288 466 253 Q 459 130 469 96 Q 473 68 500 44 Q 596 -28 795 4 Q 810 7 826 11 Q 875 26 923 58 Q 941 71 929 96 Q 917 124 904 210 Q 904 225 897 230 Q 891 233 887 217 Q 859 126 841 98 Q 823 77 773 64 Q 661 37 561 74 Q 524 92 514 114 Q 493 159 517 292 C 522 319 522 319 512 326 Z" fill="black" /></g></svg>