<?xml version='1.0' encoding='utf-8'?>
<svg xmlns="http://www.w3.org/2000/svg" version="1.1" viewBox="0 0 1024 1024"><g transform="scale(1, -1) translate(0, -900)"><path d="M 520 188 Q 471 119 325 49 Q 313 45 310 41 Q 306 37 320 34 Q 336 33 394 51 Q 436 63 495 98 Q 532 123 557 152 L 579 185 Q 606 239 619 355 L 622 390 Q 625 427 626 463 L 626 502 Q 626 533 626 558 Q 625 565 626 573 L 629 607 Q 632 632 639 656 Q 643 666 635 673 Q 620 686 592 695 C 564 706 519 709 539 686 Q 540 682 546 677 Q 573 652 575 624 Q 575 611 576 598 L 577 566 Q 578 526 578 489 L 578 456 Q 577 417 574 381 L 571 348 Q 570 339 569 329 Q 565 268 539 220 L 520 188 Z" fill="black" /></g></svg>