<?xml version='1.0' encoding='utf-8'?>
<svg xmlns="http://www.w3.org/2000/svg" version="1.1" viewBox="0 0 1024 1024"><g transform="scale(1, -1) translate(0, -900)"><path d="M 564 376 L 563 314 L 563 276 Q 563 229 563 220 L 561 184 Q 561 -65 572 -89 Q 577 -105 589 -102 Q 608 -90 610 -35 Q 614 14 615 190 L 615 227 Q 615 249 617 285 L 618 325 Q 618 361 620 385 L 624 420 L 629 448 Q 633 466 619 476 Q 606 485 596 490 Q 564 508 544 496 Q 541 494 541 492 Q 537 485 547 466 Q 563 433 564 408 L 564 376 Z" fill="black" /></g></svg>