<?xml version='1.0' encoding='utf-8'?>
<svg xmlns="http://www.w3.org/2000/svg" version="1.1" viewBox="0 0 1024 1024"><g transform="scale(1, -1) translate(0, -900)"><path d="M 707 365 Q 726 331 744 321 Q 754 312 771 334 Q 787 359 822 497 Q 832 528 857 554 Q 870 567 859 581 Q 844 599 800 627 Q 784 636 707 620 Q 668 616 629 607 L 576 598 Q 563 598 550 595 Q 481 582 427 575 C 397 571 427 537 457 542 Q 461 542 468 543 Q 513 556 577 566 L 626 573 Q 744 595 760 579 Q 773 563 770 547 Q 743 414 727 390 C 714 363 702 373 707 365 Z" fill="black" /></g></svg>