<?xml version='1.0' encoding='utf-8'?>
<svg xmlns="http://www.w3.org/2000/svg" version="1.1" viewBox="0 0 1024 1024"><g transform="scale(1, -1) translate(0, -900)"><path d="M 357 417 Q 355 412 363 411 Q 470 441 604 572 L 627 598 Q 746 727 758 733 Q 773 744 768 753 Q 766 761 710 788 Q 702 794 676 786 L 647 776 Q 574 762 563 760 C 534 754 518 750 546 739 Q 547 737 549 737 Q 570 725 616 735 Q 646 741 652 738 Q 662 733 654 719 L 647 708 Q 621 664 586 622 L 566 600 Q 555 586 541 574 Q 457 492 374 434 Q 357 421 357 417 Z" fill="black" /></g></svg>