<?xml version='1.0' encoding='utf-8'?>
<svg xmlns="http://www.w3.org/2000/svg" version="1.1" viewBox="0 0 1024 1024"><g transform="scale(1, -1) translate(0, -900)"><path d="M 697 169 Q 731 85 819 8 Q 880 -41 909 -40 Q 930 -36 922 -7 Q 916 39 916 171 Q 915 193 907 195 Q 904 195 869 110 Q 854 71 824 90 Q 817 96 809 102 Q 766 148 732 206 L 706 256 Q 661 365 637 519 L 630 565 Q 615 679 627 755 Q 640 795 584 817 Q 550 833 529 825 Q 510 818 519 799 Q 565 757 565 724 Q 575 630 588 551 L 595 508 Q 625 340 677 213 L 697 169 Z" fill="black" /></g></svg>