<?xml version='1.0' encoding='utf-8'?>
<svg xmlns="http://www.w3.org/2000/svg" version="1.1" viewBox="0 0 1024 1024"><g transform="scale(1, -1) translate(0, -900)"><path d="M 745 442 Q 763 414 780 404 Q 792 394 810 418 Q 829 446 871 607 Q 881 641 909 668 Q 925 681 912 698 Q 896 717 849 748 Q 830 758 772 745 Q 765 745 582 713 Q 533 704 493 698 C 463 693 473 652 502 660 Q 544 672 601 681 L 652 690 Q 787 717 805 699 Q 818 680 815 661 Q 776 489 756 476 C 740 451 739 450 745 442 Z" fill="black" /></g></svg>