<?xml version='1.0' encoding='utf-8'?>
<svg xmlns="http://www.w3.org/2000/svg" version="1.1" viewBox="0 0 1024 1024"><g transform="scale(1, -1) translate(0, -900)"><path d="M 444 323 Q 451 322 459 325 Q 523 349 531 342 Q 538 335 537 311 Q 538 248 526 219 Q 513 194 491 195 Q 473 199 457 205 Q 436 212 451 191 Q 485 155 500 129 Q 513 114 526 126 Q 565 157 583 249 Q 587 325 604 347 Q 613 357 608 365 Q 601 374 559 388 Q 543 394 528 382 Q 513 372 449 353 C 420 344 414 320 444 323 Z" fill="black" /></g></svg>