<?xml version='1.0' encoding='utf-8'?>
<svg xmlns="http://www.w3.org/2000/svg" version="1.1" viewBox="0 0 1024 1024"><g transform="scale(1, -1) translate(0, -900)"><path d="M 630 490 Q 777 526 794 511 Q 806 505 809 455 Q 822 286 812 95 Q 812 67 801 59 Q 788 52 726 72 Q 710 76 710 67 Q 710 60 723 52 Q 777 3 805 -34 Q 824 -53 838 -51 Q 850 -50 862 -21 Q 878 24 880 89 Q 867 336 868 427 Q 868 466 879 489 Q 891 511 880 522 Q 870 537 823 560 Q 801 572 743 551 Q 628 520 474 496 C 444 491 466 450 495 457 Q 498 457 588 480 L 630 490 Z" fill="black" /></g></svg>