<?xml version='1.0' encoding='utf-8'?>
<svg xmlns="http://www.w3.org/2000/svg" version="1.1" viewBox="0 0 1024 1024"><g transform="scale(1, -1) translate(0, -900)"><path d="M 660 135 Q 661 195 663 250 L 664 300 Q 665 369 667 431 L 668 470 Q 669 510 670 547 L 671 586 Q 671 592 675 643 Q 684 667 652 690 C 629 710 588 708 601 681 Q 607 668 614 656 Q 620 634 622 571 L 622 538 Q 621 508 620 459 L 620 424 Q 619 367 617 289 L 616 242 Q 615 190 614 129 C 614 99 659 105 660 135 Z" fill="black" /></g></svg>