<?xml version='1.0' encoding='utf-8'?>
<svg xmlns="http://www.w3.org/2000/svg" version="1.1" viewBox="0 0 1024 1024"><g transform="scale(1, -1) translate(0, -900)"><path d="M 482 204 Q 495 183 509 162 Q 525 137 533 140 Q 545 141 559 175 Q 569 205 566 332 Q 557 593 577 633 Q 587 652 578 662 Q 571 672 518 686 Q 493 693 476 682 Q 430 654 390 640 C 362 629 381 606 410 615 Q 429 619 471 638 Q 490 647 499 641 Q 512 628 513 577 Q 516 366 506 249 Q 509 227 492 228 C 476 214 476 214 482 204 Z" fill="black" /></g></svg>