<?xml version='1.0' encoding='utf-8'?>
<svg xmlns="http://www.w3.org/2000/svg" version="1.1" viewBox="0 0 1024 1024"><g transform="scale(1, -1) translate(0, -900)"><path d="M 570 194 Q 570 56 585 31 Q 598 18 606 36 Q 618 66 621 203 L 621 242 Q 622 273 622 309 L 622 348 Q 622 387 622 427 L 622 453 Q 622 520 623 574 L 624 613 Q 627 749 646 779 Q 653 794 635 808 Q 613 824 574 835 Q 558 839 546 827 Q 536 820 548 809 Q 575 785 577 753 Q 577 695 577 604 L 576 566 Q 576 511 576 443 L 575 417 Q 574 371 573 333 L 573 299 Q 572 259 571 228 L 570 194 Z" fill="black" /></g></svg>