<?xml version='1.0' encoding='utf-8'?>
<svg xmlns="http://www.w3.org/2000/svg" version="1.1" viewBox="0 0 1024 1024"><g transform="scale(1, -1) translate(0, -900)"><path d="M 433 440 Q 423 453 398 464 Q 385 471 369 462 Q 362 458 374 442 Q 396 403 392 337 Q 391 267 369 246 Q 363 230 374 213 Q 390 194 401 201 Q 423 223 490 246 Q 509 253 516 248 Q 523 242 523 221 Q 520 128 511 69 C 507 39 566 45 567 75 Q 573 222 593 244 Q 606 256 597 266 Q 584 282 540 296 Q 530 302 510 288 Q 479 275 433 259 Q 426 258 425 267 Q 431 384 440 410 Q 440 411 441 411 C 446 428 446 428 433 440 Z" fill="black" /></g></svg>