<?xml version='1.0' encoding='utf-8'?>
<svg xmlns="http://www.w3.org/2000/svg" version="1.1" viewBox="0 0 1024 1024"><g transform="scale(1, -1) translate(0, -900)"><path d="M 652 465 Q 695 475 744 484 Q 769 491 782 479 Q 791 475 793 436 Q 800 307 790 161 Q 789 139 781 134 Q 772 121 708 117 Q 692 117 694 108 Q 697 101 710 97 Q 771 66 803 39 Q 825 21 838 24 Q 850 28 860 57 Q 873 103 868 169 Q 850 421 865 455 Q 878 479 868 492 Q 856 507 809 530 Q 790 540 770 535 Q 731 522 656 501 L 603 489 Q 533 476 463 465 C 433 460 451 419 481 424 Q 488 424 501 427 Q 547 440 601 453 L 652 465 Z" fill="black" /></g></svg>