<?xml version='1.0' encoding='utf-8'?>
<svg xmlns="http://www.w3.org/2000/svg" version="1.1" viewBox="0 0 1024 1024"><g transform="scale(1, -1) translate(0, -900)"><path d="M 841 293 Q 862 395 899 435 Q 920 457 905 470 Q 880 489 837 503 Q 818 510 800 502 Q 775 492 719 476 Q 703 472 703 489 Q 713 610 723 633 Q 730 654 715 663 Q 705 672 695 678 C 671 696 645 700 653 671 Q 668 632 662 535 Q 661 490 646 466 Q 637 448 659 427 Q 672 414 687 423 Q 717 447 789 462 Q 828 469 806 350 Q 800 326 795 298 C 789 269 835 264 841 293 Z" fill="black" /></g></svg>