<?xml version='1.0' encoding='utf-8'?>
<svg xmlns="http://www.w3.org/2000/svg" version="1.1" viewBox="0 0 1024 1024"><g transform="scale(1, -1) translate(0, -900)"><path d="M 559 439 Q 535 379 498 324 Q 494 320 492 315 Q 491 306 498 308 Q 523 314 578 395 Q 578 398 581 400 Q 591 422 601 445 L 614 484 Q 624 520 631 555 L 637 594 Q 638 598 639 600 Q 640 610 644 618 Q 651 628 646 639 Q 639 648 627 655 C 602 672 575 675 586 647 Q 587 646 589 641 Q 592 638 590 592 Q 589 586 589 580 L 585 548 Q 584 523 571 474 L 559 439 Z" fill="black" /></g></svg>