<?xml version='1.0' encoding='utf-8'?>
<svg xmlns="http://www.w3.org/2000/svg" version="1.1" viewBox="0 0 1024 1024"><g transform="scale(1, -1) translate(0, -900)"><path d="M 726 463 Q 726 459 729 452 Q 735 436 748 437 Q 761 438 769 454 Q 782 470 804 552 Q 820 604 857 635 Q 876 651 860 667 Q 841 683 791 710 Q 778 717 710 704 Q 668 704 528 669 L 506 665 Q 488 665 469 660 C 440 654 454 636 484 632 Q 503 628 517 631 Q 542 640 586 647 L 627 655 Q 736 676 757 666 Q 767 660 762 629 Q 744 529 734 495 L 726 463 Z" fill="black" /></g></svg>