<?xml version='1.0' encoding='utf-8'?>
<svg xmlns="http://www.w3.org/2000/svg" version="1.1" viewBox="0 0 1024 1024"><g transform="scale(1, -1) translate(0, -900)"><path d="M 433 356 Q 503 455 548 575 L 564 621 Q 564 622 565 623 Q 596 717 616 747 Q 626 760 621 771 Q 609 795 558 812 Q 543 818 527 809 Q 517 800 525 789 Q 541 773 543 753 Q 547 726 513 621 Q 512 617 509 611 L 493 563 Q 463 487 427 425 Q 387 358 293 257 Q 283 241 294 240 Q 298 239 311 247 Q 351 271 407 326 L 433 356 Z" fill="black" /></g></svg>