<?xml version='1.0' encoding='utf-8'?>
<svg xmlns="http://www.w3.org/2000/svg" version="1.1" viewBox="0 0 1024 1024"><g transform="scale(1, -1) translate(0, -900)"><path d="M 934 60 Q 918 100 906 170 Q 905 185 897 190 Q 890 194 886 175 Q 870 91 857 76 Q 832 48 722 47 Q 664 48 638 59 Q 605 77 594 162 L 592 192 Q 591 211 590 234 Q 590 246 590 256 L 592 291 Q 593 325 598 353 L 603 382 Q 606 398 612 410 Q 624 438 605 455 Q 556 489 542 486 Q 527 480 535 464 Q 554 428 551 375 Q 550 374 550 371 L 550 343 Q 550 309 550 277 L 550 247 Q 550 213 551 183 L 553 155 Q 560 59 596 32 Q 641 -7 810 -2 Q 886 -1 916 15 Q 946 30 934 60 Z" fill="black" /></g></svg>