<?xml version='1.0' encoding='utf-8'?>
<svg xmlns="http://www.w3.org/2000/svg" version="1.1" viewBox="0 0 1024 1024"><g transform="scale(1, -1) translate(0, -900)"><path d="M 640 65 Q 641 123 642 177 L 643 220 Q 644 302 646 378 L 647 410 Q 648 494 651 568 L 654 612 Q 654 622 655 629 Q 662 651 652 663 Q 627 687 603 699 C 577 714 540 713 557 689 Q 558 692 581 651 Q 582 648 585 644 Q 591 626 593 598 L 594 558 Q 595 522 593 403 L 593 370 Q 592 301 590 208 L 589 169 Q 588 120 587 59 C 586 29 639 35 640 65 Z" fill="black" /></g></svg>