<?xml version='1.0' encoding='utf-8'?>
<svg xmlns="http://www.w3.org/2000/svg" version="1.1" viewBox="0 0 1024 1024"><g transform="scale(1, -1) translate(0, -900)"><path d="M 659 543 Q 743 576 749 573 Q 755 569 755 552 Q 701 237 770 143 Q 843 23 949 22 Q 950 23 955 23 Q 973 26 969 48 Q 956 99 955 191 Q 955 206 951 206 Q 947 206 940 193 Q 915 117 902 109 Q 893 102 868 117 Q 778 174 776 288 Q 770 366 800 483 Q 813 538 837 564 Q 861 582 858 593 Q 854 609 798 633 Q 779 643 762 628 Q 731 609 664 582 L 607 563 Q 564 553 537 549 Q 513 546 529 534 Q 556 515 603 524 L 659 543 Z" fill="black" /></g></svg>