<?xml version='1.0' encoding='utf-8'?>
<svg xmlns="http://www.w3.org/2000/svg" version="1.1" viewBox="0 0 1024 1024"><g transform="scale(1, -1) translate(0, -900)"><path d="M 574 511 Q 584 542 592 573 L 600 615 Q 601 627 609 676 L 617 720 Q 620 760 637 797 Q 646 815 629 823 Q 580 857 554 847 Q 541 843 548 827 Q 566 794 563 708 L 560 667 Q 557 637 550 604 L 541 563 Q 529 524 521 501 L 504 463 Q 434 331 325 260 Q 309 247 295 236 Q 282 226 294 224 Q 309 224 342 239 Q 409 273 458 323 Q 513 375 540 431 Q 549 453 559 474 L 574 511 Z" fill="black" /></g></svg>