<?xml version='1.0' encoding='utf-8'?>
<svg xmlns="http://www.w3.org/2000/svg" version="1.1" viewBox="0 0 1024 1024"><g transform="scale(1, -1) translate(0, -900)"><path d="M 661 171 Q 674 149 689 142 Q 698 135 712 154 Q 725 175 752 292 Q 759 319 780 341 Q 792 351 782 364 Q 769 379 731 402 Q 710 411 603 382 L 550 371 Q 544 371 449 351 C 420 345 434 309 462 320 Q 468 326 550 343 L 598 353 Q 626 360 662 365 Q 690 369 699 360 Q 709 347 707 334 Q 686 214 671 198 C 658 175 658 175 661 171 Z" fill="black" /></g></svg>