<?xml version='1.0' encoding='utf-8'?>
<svg xmlns="http://www.w3.org/2000/svg" version="1.1" viewBox="0 0 1024 1024"><g transform="scale(1, -1) translate(0, -900)"><path d="M 646 378 Q 682 382 729 385 L 774 388 Q 828 391 940 391 Q 959 391 963 399 Q 967 409 953 423 Q 899 462 840 445 Q 816 441 791 435 L 739 425 Q 696 421 647 410 L 593 403 Q 553 399 513 392 L 469 386 Q 417 382 363 373 Q 344 370 358 355 Q 371 342 388 337 Q 407 333 423 337 Q 448 344 477 350 L 516 358 Q 552 367 593 370 L 646 378 Z" fill="black" /></g></svg>