<?xml version='1.0' encoding='utf-8'?>
<svg xmlns="http://www.w3.org/2000/svg" version="1.1" viewBox="0 0 1024 1024"><g transform="scale(1, -1) translate(0, -900)"><path d="M 680 347 Q 686 350 694 351 Q 745 361 765 361 C 795 363 797 395 767 392 Q 722 388 682 379 L 636 370 Q 593 363 555 350 Q 539 346 543 365 Q 555 444 547 456 Q 535 471 516 482 Q 506 486 498 485 Q 489 482 495 466 Q 511 427 505 388 Q 501 351 484 335 Q 469 322 475 310 Q 485 297 498 288 Q 510 282 518 289 Q 542 313 637 336 L 680 347 Z" fill="black" /></g></svg>