<?xml version='1.0' encoding='utf-8'?>
<svg xmlns="http://www.w3.org/2000/svg" version="1.1" viewBox="0 0 1024 1024"><g transform="scale(1, -1) translate(0, -900)"><path d="M 708 412 Q 707 413 711 413 Q 756 422 782 422 Q 795 422 801 416 Q 810 392 796 253 Q 784 160 750 93 Q 737 68 721 67 Q 706 63 625 87 Q 615 90 615 84 Q 615 80 626 71 Q 672 28 693 -5 Q 705 -24 717 -23 Q 733 -26 751 -10 Q 811 30 837 147 Q 855 225 871 346 Q 874 373 893 393 Q 906 406 905 413 Q 904 422 886 435 Q 861 456 826 467 Q 805 474 715 449 Q 711 449 708 447 Q 656 435 523 411 C 493 406 478 395 508 391 Q 521 388 536 387 L 568 389 Q 571 393 656 403 L 708 412 Z" fill="black" /></g></svg>