<?xml version='1.0' encoding='utf-8'?>
<svg xmlns="http://www.w3.org/2000/svg" version="1.1" viewBox="0 0 1024 1024"><g transform="scale(1, -1) translate(0, -900)"><path d="M 725 690 Q 728 691 780 709 Q 801 713 806 703 Q 822 655 830 364 Q 831 124 819 101 Q 815 95 794 100 Q 767 104 739 111 Q 720 117 721 107 Q 779 61 812 24 Q 825 5 841 1 Q 851 -3 859 8 Q 898 53 896 112 Q 872 389 872 639 Q 872 675 883 694 Q 895 713 883 724 Q 861 742 824 756 Q 808 762 751 734 Q 733 728 703 721 C 674 714 697 680 725 690 Z" fill="black" /></g></svg>