<?xml version='1.0' encoding='utf-8'?>
<svg xmlns="http://www.w3.org/2000/svg" version="1.1" viewBox="0 0 1024 1024"><g transform="scale(1, -1) translate(0, -900)"><path d="M 230 755 Q 221 762 205 771 Q 187 781 180 775 Q 173 769 180 755 Q 210 691 174 391 Q 168 370 155 348 Q 148 335 155 317 Q 162 298 171 291 Q 181 284 195 295 Q 253 346 445 366 Q 466 367 466 377 Q 465 390 438 405 Q 423 415 366 397 L 327 387 Q 306 387 235 365 Q 228 364 224 365 Q 220 366 220 377 Q 223 420 226 465 L 227 490 Q 228 535 233 580 L 234 607 Q 237 694 245 725 C 248 743 248 743 230 755 Z" fill="black" /></g></svg>