<?xml version='1.0' encoding='utf-8'?>
<svg xmlns="http://www.w3.org/2000/svg" version="1.1" viewBox="0 0 1024 1024"><g transform="scale(1, -1) translate(0, -900)"><path d="M 702 605 Q 717 599 747 596 Q 782 593 792 586 Q 813 572 792 514 Q 782 486 769 465 Q 747 427 729 421 Q 723 417 707 419 L 688 423 Q 653 439 646 435 Q 645 435 645 433 Q 638 423 657 412 Q 686 382 692 347 Q 700 310 736 325 Q 774 340 806 390 Q 821 417 850 488 Q 870 541 883 551 Q 896 555 896 564 Q 894 579 876 599 Q 835 639 782 629 Q 732 633 727 635 C 697 640 673 613 702 605 Z" fill="black" /></g></svg>