<?xml version='1.0' encoding='utf-8'?>
<svg xmlns="http://www.w3.org/2000/svg" version="1.1" viewBox="0 0 1024 1024"><g transform="scale(1, -1) translate(0, -900)"><path d="M 957 81 Q 944 109 924 196 Q 923 209 917 214 Q 911 217 908 201 Q 890 108 874 78 Q 850 48 757 53 Q 723 56 696 67 Q 672 79 666 94 Q 648 136 675 271 Q 681 298 635 319 Q 623 323 615 319 Q 608 315 613 298 Q 625 261 621 226 Q 611 109 621 77 Q 625 56 644 38 Q 707 -16 853 4 Q 866 7 881 10 Q 918 20 953 43 Q 971 58 957 81 Z" fill="black" /></g></svg>