<?xml version='1.0' encoding='utf-8'?>
<svg xmlns="http://www.w3.org/2000/svg" version="1.1" viewBox="0 0 1024 1024"><g transform="scale(1, -1) translate(0, -900)"><path d="M 259 677 Q 292 684 325 699 Q 340 706 348 698 Q 352 695 347 683 Q 326 613 331 600 Q 331 597 335 593 Q 374 541 366 526 Q 362 516 339 517 Q 312 518 283 516 Q 261 515 287 504 Q 338 485 386 458 Q 396 448 406 458 Q 416 465 421 485 Q 425 501 413 532 Q 400 566 374 592 Q 353 616 366 634 Q 400 686 420 698 Q 438 710 428 722 Q 415 738 381 755 Q 362 762 348 751 Q 302 718 254 706 C 225 698 230 670 259 677 Z" fill="black" /></g></svg>