<?xml version='1.0' encoding='utf-8'?>
<svg xmlns="http://www.w3.org/2000/svg" version="1.1" viewBox="0 0 1024 1024"><g transform="scale(1, -1) translate(0, -900)"><path d="M 401 509 Q 431 515 459 515 Q 486 516 478 529 Q 471 541 456 548 Q 441 554 402 540 L 355 531 Q 315 525 271 517 Q 261 516 259 518 Q 258 519 260 527 Q 290 591 334 668 L 360 714 Q 381 751 392 758 Q 405 768 391 787 Q 370 812 354 826 Q 342 833 334 832 Q 325 829 329 809 Q 335 788 305 702 L 287 660 Q 257 573 199 519 Q 184 506 188 493 Q 192 474 201 465 Q 208 456 218 460 Q 272 487 356 501 L 401 509 Z" fill="black" /></g></svg>