<?xml version='1.0' encoding='utf-8'?>
<svg xmlns="http://www.w3.org/2000/svg" version="1.1" viewBox="0 0 1024 1024"><g transform="scale(1, -1) translate(0, -900)"><path d="M 720 399 Q 735 377 749 369 Q 759 362 774 382 Q 787 401 817 510 Q 827 540 850 564 Q 863 576 852 590 Q 837 606 796 633 Q 777 643 761 637 Q 727 630 687 622 L 637 614 Q 603 610 567 602 L 518 593 Q 472 586 433 579 C 403 574 417 542 447 547 Q 451 547 458 548 Q 486 555 522 563 L 566 571 Q 597 578 636 584 L 683 591 Q 695 594 711 595 Q 747 599 758 587 Q 768 574 766 562 Q 747 459 737 442 Q 733 433 723 428 C 709 414 709 414 720 399 Z" fill="black" /></g></svg>