<?xml version='1.0' encoding='utf-8'?>
<svg xmlns="http://www.w3.org/2000/svg" version="1.1" viewBox="0 0 1024 1024"><g transform="scale(1, -1) translate(0, -900)"><path d="M 742 186 Q 775 229 799 326 Q 805 360 823 378 Q 838 391 820 406 Q 799 421 766 432 Q 745 438 725 426 Q 667 396 585 386 Q 572 385 563 382 C 534 376 533 366 562 360 Q 586 351 619 361 Q 668 371 718 383 Q 740 390 741 364 Q 741 291 703 220 L 678 181 Q 677 181 677 180 Q 641 141 558 107 C 530 95 527 83 557 88 Q 561 89 573 91 Q 667 106 708 145 L 742 186 Z" fill="black" /></g></svg>