<?xml version='1.0' encoding='utf-8'?>
<svg xmlns="http://www.w3.org/2000/svg" version="1.1" viewBox="0 0 1024 1024"><g transform="scale(1, -1) translate(0, -900)"><path d="M 444 329 Q 447 677 454 709 C 456 731 456 731 440 740 Q 428 749 406 760 Q 385 770 377 763 Q 370 756 377 741 Q 396 705 398 641 Q 408 370 387 118 Q 384 78 359 41 Q 349 26 358 5 Q 367 -17 377 -26 Q 387 -35 405 -22 Q 471 18 568 35 Q 680 53 895 44 Q 920 43 922 55 Q 922 71 893 92 Q 877 105 843 99 Q 740 86 656 79 Q 571 76 470 59 Q 439 55 439 84 Q 442 196 444 324 L 444 329 Z" fill="black" /></g></svg>