<?xml version='1.0' encoding='utf-8'?>
<svg xmlns="http://www.w3.org/2000/svg" version="1.1" viewBox="0 0 1024 1024"><g transform="scale(1, -1) translate(0, -900)"><path d="M 761 346 Q 815 350 883 351 Q 932 351 939 358 Q 943 368 930 377 Q 887 410 833 393 Q 800 387 761 378 L 701 368 Q 692 368 626 357 L 585 351 Q 521 342 453 333 Q 446 333 444 329 C 440 328 440 328 444 324 Q 459 309 473 304 Q 489 300 501 304 Q 535 314 574 321 L 611 328 Q 630 332 653 335 Q 672 339 696 340 L 761 346 Z" fill="black" /></g></svg>