<?xml version='1.0' encoding='utf-8'?>
<svg xmlns="http://www.w3.org/2000/svg" version="1.1" viewBox="0 0 1024 1024"><g transform="scale(1, -1) translate(0, -900)"><path d="M 432 242 Q 448 217 448 177 Q 449 83 418 35 Q 397 13 436 -23 Q 446 -33 463 -21 Q 512 15 670 35 Q 761 45 876 36 Q 898 33 907 39 Q 914 45 909 57 Q 903 69 865 91 Q 841 106 782 92 Q 647 82 504 50 Q 489 46 487 50 Q 480 56 483 73 Q 493 181 504 212 Q 510 225 497 237 Q 487 247 475 254 C 451 272 419 269 432 242 Z" fill="black" /></g></svg>