<?xml version='1.0' encoding='utf-8'?>
<svg xmlns="http://www.w3.org/2000/svg" version="1.1" viewBox="0 0 1024 1024"><g transform="scale(1, -1) translate(0, -900)"><path d="M 687 354 Q 729 369 793 365 Q 809 365 813 358 Q 817 349 812 320 Q 793 199 766 135 Q 748 95 732 73 Q 719 54 703 52 Q 690 49 622 77 Q 612 81 611 76 Q 610 72 620 61 Q 654 12 668 -21 Q 675 -42 688 -43 Q 725 -46 772 11 Q 820 75 881 284 Q 887 309 906 323 Q 921 335 921 344 Q 915 375 843 407 Q 819 419 744 399 Q 729 398 715 393 Q 595 369 506 364 C 476 362 460 351 489 345 Q 496 342 523 338 L 560 338 Q 560 339 650 349 L 687 354 Z" fill="black" /></g></svg>