<?xml version='1.0' encoding='utf-8'?>
<svg xmlns="http://www.w3.org/2000/svg" version="1.1" viewBox="0 0 1024 1024"><g transform="scale(1, -1) translate(0, -900)"><path d="M 693 65 Q 721 31 741 -1 Q 750 -17 761 -17 Q 776 -16 790 17 Q 806 54 802 98 Q 793 161 784 278 Q 781 306 796 328 Q 803 341 795 350 Q 777 366 727 387 Q 711 394 696 386 Q 662 365 605 348 Q 592 345 581 341 C 510 319 518 293 547 299 Q 557 299 690 338 Q 708 342 718 337 Q 733 316 734 116 Q 733 107 733 99 Q 729 84 716 86 C 690 72 688 71 693 65 Z" fill="black" /></g></svg>