<?xml version='1.0' encoding='utf-8'?>
<svg xmlns="http://www.w3.org/2000/svg" version="1.1" viewBox="0 0 1024 1024"><g transform="scale(1, -1) translate(0, -900)"><path d="M 626 544 Q 648 363 704 225 L 725 178 Q 759 100 833 34 Q 891 -14 919 -14 Q 938 -10 932 18 Q 928 67 931 212 Q 931 234 923 234 Q 916 234 910 214 Q 897 174 885 139 Q 873 105 860 103 Q 848 103 825 124 Q 788 166 757 219 L 732 272 Q 686 392 668 555 L 664 601 Q 660 683 668 732 Q 681 771 628 793 Q 594 809 575 802 Q 556 795 565 777 Q 608 735 608 703 Q 614 642 621 586 L 626 544 Z" fill="black" /></g></svg>