<?xml version='1.0' encoding='utf-8'?>
<svg xmlns="http://www.w3.org/2000/svg" version="1.1" viewBox="0 0 1024 1024"><g transform="scale(1, -1) translate(0, -900)"><path d="M 757 608 Q 756 601 759 591 Q 763 576 776 577 Q 789 578 797 592 Q 806 599 826 646 Q 842 695 878 724 Q 897 739 882 754 Q 866 770 817 797 Q 802 806 728 790 Q 695 790 556 761 Q 489 748 446 741 C 416 736 436 705 466 709 Q 473 708 481 710 Q 509 720 552 728 L 571 732 Q 605 739 651 746 L 683 751 Q 770 766 786 755 Q 793 751 789 728 Q 771 650 763 628 L 757 608 Z" fill="black" /></g></svg>