<?xml version='1.0' encoding='utf-8'?>
<svg xmlns="http://www.w3.org/2000/svg" version="1.1" viewBox="0 0 1024 1024"><g transform="scale(1, -1) translate(0, -900)"><path d="M 431 319 Q 443 377 450 434 Q 456 498 463 517 Q 464 521 465 524 C 469 539 469 539 458 548 Q 445 561 421 571 Q 403 581 391 577 Q 381 570 386 558 Q 398 542 400 479 Q 399 472 399 461 Q 393 320 357 221 Q 324 128 262 37 Q 258 30 256 25 Q 253 15 263 17 Q 297 24 359 125 Q 369 144 380 165 Q 386 178 426 298 L 431 319 Z" fill="black" /></g></svg>