<?xml version='1.0' encoding='utf-8'?>
<svg xmlns="http://www.w3.org/2000/svg" version="1.1" viewBox="0 0 1024 1024"><g transform="scale(1, -1) translate(0, -900)"><path d="M 582 382 Q 582 378 585 370 Q 597 333 593 298 Q 580 135 593 89 Q 597 64 619 43 Q 707 -29 886 5 Q 889 6 893 7 Q 933 17 974 46 Q 993 62 978 88 Q 965 112 941 187 Q 940 202 933 206 Q 927 209 924 192 Q 905 110 891 83 Q 858 44 750 53 Q 708 57 675 72 Q 647 87 638 106 Q 614 157 647 343 Q 653 370 613 388 C 587 403 574 411 582 382 Z" fill="black" /></g></svg>