<?xml version='1.0' encoding='utf-8'?>
<svg xmlns="http://www.w3.org/2000/svg" version="1.1" viewBox="0 0 1024 1024"><g transform="scale(1, -1) translate(0, -900)"><path d="M 583 468 Q 593 505 601 542 L 609 586 Q 610 605 614 624 Q 632 726 640 746 Q 646 756 637 765 Q 621 781 587 797 Q 568 807 551 802 Q 532 796 546 779 Q 571 749 570 720 Q 566 638 556 573 L 549 532 Q 543 504 531 459 L 516 420 Q 473 336 388 271 Q 369 259 348 244 C 323 227 321 217 349 227 Q 491 273 553 387 Q 562 408 571 430 L 583 468 Z" fill="black" /></g></svg>