<?xml version='1.0' encoding='utf-8'?>
<svg xmlns="http://www.w3.org/2000/svg" version="1.1" viewBox="0 0 1024 1024"><g transform="scale(1, -1) translate(0, -900)"><path d="M 761 49 Q 733 56 703 63 Q 684 69 685 59 Q 743 13 778 -22 Q 791 -41 805 -45 Q 814 -49 822 -39 Q 856 9 858 75 Q 837 399 860 442 Q 872 461 860 470 Q 841 488 806 503 Q 788 510 773 503 Q 728 476 651 467 Q 636 466 645 458 Q 652 448 666 442 Q 684 439 763 459 Q 782 463 787 454 Q 794 430 799 234 Q 799 74 785 50 Q 781 44 761 49 Z" fill="black" /></g></svg>