<?xml version='1.0' encoding='utf-8'?>
<svg xmlns="http://www.w3.org/2000/svg" version="1.1" viewBox="0 0 1024 1024"><g transform="scale(1, -1) translate(0, -900)"><path d="M 490 68 Q 463 74 437 79 Q 419 83 421 76 Q 475 36 506 4 Q 516 -12 530 -16 Q 537 -20 545 -11 Q 578 28 578 91 Q 560 368 584 409 Q 594 425 585 434 Q 567 450 536 464 Q 521 470 469 447 Q 445 440 395 433 Q 382 432 389 425 Q 396 415 409 411 Q 430 407 498 425 Q 514 429 519 420 Q 534 381 523 119 Q 514 71 512 68 Q 508 64 490 68 Z" fill="black" /></g></svg>