<?xml version='1.0' encoding='utf-8'?>
<svg xmlns="http://www.w3.org/2000/svg" version="1.1" viewBox="0 0 1024 1024"><g transform="scale(1, -1) translate(0, -900)"><path d="M 777 336 Q 787 385 799 416 L 818 458 Q 830 482 845 494 Q 860 513 846 529 Q 830 541 780 562 Q 762 569 742 560 Q 703 544 668 531 L 617 517 Q 559 504 499 495 Q 483 494 486 484 Q 489 477 506 471 Q 530 461 563 474 Q 588 481 618 486 L 664 496 Q 695 505 726 511 Q 747 517 755 509 Q 767 497 764 472 Q 761 459 759 446 L 752 412 Q 742 372 731 335 C 723 306 771 307 777 336 Z" fill="black" /></g></svg>