<?xml version='1.0' encoding='utf-8'?>
<svg xmlns="http://www.w3.org/2000/svg" version="1.1" viewBox="0 0 1024 1024"><g transform="scale(1, -1) translate(0, -900)"><path d="M 410 382 Q 397 381 404 373 Q 413 363 426 359 Q 435 358 516 380 Q 529 386 537 380 Q 543 374 542 355 Q 546 201 538 109 Q 537 84 528 72 Q 525 71 470 75 Q 451 81 453 72 Q 496 32 519 3 Q 531 -13 545 -19 Q 552 -22 561 -13 Q 600 38 598 79 Q 583 331 603 365 Q 613 383 604 392 Q 585 408 553 422 Q 537 429 524 423 Q 499 407 483 400 Q 461 390 410 382 Z" fill="black" /></g></svg>