<?xml version='1.0' encoding='utf-8'?>
<svg xmlns="http://www.w3.org/2000/svg" version="1.1" viewBox="0 0 1024 1024"><g transform="scale(1, -1) translate(0, -900)"><path d="M 653 399 Q 640 398 648 389 Q 657 379 671 375 Q 689 372 784 403 Q 797 409 807 402 Q 814 396 814 373 Q 820 190 812 81 Q 811 56 802 45 Q 798 39 779 44 Q 754 51 726 58 Q 707 65 708 56 Q 763 7 792 -29 Q 805 -47 819 -52 Q 828 -56 836 -47 Q 873 -2 875 64 Q 854 349 877 388 Q 889 407 877 416 Q 858 434 823 447 Q 802 456 746 421 Q 716 411 653 399 Z" fill="black" /></g></svg>