<?xml version='1.0' encoding='utf-8'?>
<svg xmlns="http://www.w3.org/2000/svg" version="1.1" viewBox="0 0 1024 1024"><g transform="scale(1, -1) translate(0, -900)"><path d="M 510 269 Q 555 299 691 318 Q 824 340 845 321 Q 857 311 845 267 Q 817 84 783 38 Q 773 25 748 27 Q 721 33 698 37 Q 682 41 683 35 Q 683 29 691 22 Q 737 -27 753 -59 Q 760 -80 779 -70 Q 846 -37 860 34 Q 884 130 902 237 Q 909 276 929 308 Q 942 324 930 337 Q 912 359 874 381 Q 852 394 824 381 Q 778 362 733 357 Q 672 350 547 326 Q 520 317 516 341 C 494 361 483 255 510 269 Z" fill="black" /></g></svg>