<?xml version='1.0' encoding='utf-8'?>
<svg xmlns="http://www.w3.org/2000/svg" version="1.1" viewBox="0 0 1024 1024"><g transform="scale(1, -1) translate(0, -900)"><path d="M 668 401 Q 669 426 674 452 Q 678 468 667 476 Q 657 486 636 494 Q 624 497 618 492 Q 612 489 617 474 Q 626 447 627 384 Q 626 383 627 381 Q 624 285 657 255 Q 733 195 858 232 Q 888 242 915 264 Q 931 277 921 298 Q 911 316 895 372 Q 895 385 889 390 Q 883 393 880 378 Q 856 317 842 298 Q 835 288 809 281 Q 752 266 700 286 Q 681 296 675 308 Q 666 324 666 378 L 668 401 Z" fill="black" /></g></svg>