<?xml version='1.0' encoding='utf-8'?>
<svg xmlns="http://www.w3.org/2000/svg" version="1.1" viewBox="0 0 1024 1024"><g transform="scale(1, -1) translate(0, -900)"><path d="M 431 463 Q 444 444 457 438 Q 466 431 480 450 Q 490 466 516 564 Q 523 591 544 613 Q 556 623 545 636 Q 532 651 494 673 Q 479 680 407 661 Q 398 661 382 655 L 342 647 Q 318 644 229 621 C 200 614 218 584 246 593 Q 283 606 342 619 L 381 627 Q 448 642 463 632 Q 473 625 470 610 Q 451 502 433 490 C 422 475 422 475 431 463 Z" fill="black" /></g></svg>