<?xml version='1.0' encoding='utf-8'?>
<svg xmlns="http://www.w3.org/2000/svg" version="1.1" viewBox="0 0 1024 1024"><g transform="scale(1, -1) translate(0, -900)"><path d="M 684 513 Q 684 512 685 507 Q 688 492 699 492 Q 712 493 720 505 Q 727 509 747 540 Q 765 586 799 611 Q 818 624 804 639 Q 788 655 745 682 Q 729 692 666 673 Q 645 672 629 665 L 580 655 Q 529 645 488 632 L 441 619 Q 389 607 354 601 Q 338 600 336 595 Q 333 591 349 580 Q 382 565 401 574 Q 419 581 445 589 L 486 601 Q 525 613 579 625 L 622 634 Q 698 655 721 645 Q 725 641 720 622 Q 699 558 691 540 L 684 513 Z" fill="black" /></g></svg>