<?xml version='1.0' encoding='utf-8'?>
<svg xmlns="http://www.w3.org/2000/svg" version="1.1" viewBox="0 0 1024 1024"><g transform="scale(1, -1) translate(0, -900)"><path d="M 590 490 Q 617 554 630 616 L 637 652 Q 638 665 642 677 Q 658 768 659 769 Q 658 770 658 771 Q 645 787 617 800 Q 601 810 589 806 Q 579 800 583 788 Q 599 758 584 638 L 578 597 Q 568 548 551 506 L 538 474 Q 514 423 467 351 Q 463 347 460 340 Q 457 331 467 332 Q 498 339 563 436 Q 566 443 570 449 L 590 490 Z" fill="black" /></g></svg>