<?xml version='1.0' encoding='utf-8'?>
<svg xmlns="http://www.w3.org/2000/svg" version="1.1" viewBox="0 0 1024 1024"><g transform="scale(1, -1) translate(0, -900)"><path d="M 765 429 Q 772 463 780 485 L 800 530 Q 807 543 817 550 Q 830 568 817 583 Q 747 628 698 603 Q 680 597 664 589 L 613 575 Q 570 565 524 558 Q 509 557 511 547 Q 512 540 530 535 Q 552 526 584 537 Q 597 541 614 543 L 658 553 Q 680 559 707 564 Q 723 568 729 562 Q 739 555 738 535 Q 737 525 735 514 L 731 479 Q 727 454 722 431 C 716 402 759 400 765 429 Z" fill="black" /></g></svg>