<?xml version='1.0' encoding='utf-8'?>
<svg xmlns="http://www.w3.org/2000/svg" version="1.1" viewBox="0 0 1024 1024"><g transform="scale(1, -1) translate(0, -900)"><path d="M 648 618 Q 669 628 691 639 Q 718 652 724 649 Q 731 646 730 631 Q 688 457 732 374 Q 769 290 884 266 Q 938 256 960 264 Q 979 271 972 298 Q 959 347 951 403 Q 950 433 944 440 Q 938 447 932 432 Q 907 350 888 333 Q 870 326 851 334 Q 820 344 792 373 Q 750 415 757 513 Q 760 601 813 647 Q 826 659 821 668 Q 814 681 762 701 Q 747 707 733 697 Q 708 679 652 658 L 605 641 Q 568 631 537 627 Q 524 624 531 612 Q 535 602 558 595 Q 579 589 602 596 L 648 618 Z" fill="black" /></g></svg>