<?xml version='1.0' encoding='utf-8'?>
<svg xmlns="http://www.w3.org/2000/svg" version="1.1" viewBox="0 0 1024 1024"><g transform="scale(1, -1) translate(0, -900)"><path d="M 780 485 Q 819 489 867 492 Q 885 492 901 493 Q 917 494 920 501 Q 924 511 910 521 Q 864 551 803 531 Q 800 531 800 530 L 735 514 Q 705 510 671 501 Q 664 500 656 498 L 613 489 Q 543 477 465 462 Q 449 459 461 447 Q 473 437 487 433 Q 503 430 516 434 Q 562 450 613 460 L 656 468 Q 687 475 731 479 L 780 485 Z" fill="black" /></g></svg>