<?xml version='1.0' encoding='utf-8'?>
<svg xmlns="http://www.w3.org/2000/svg" version="1.1" viewBox="0 0 1024 1024"><g transform="scale(1, -1) translate(0, -900)"><path d="M 654 293 Q 738 312 758 303 Q 768 300 773 277 Q 783 144 776 41 Q 775 20 763 16 Q 753 15 701 32 Q 691 36 690 29 Q 691 22 704 11 Q 737 -20 762 -52 Q 775 -68 791 -68 Q 804 -65 822 -26 Q 843 13 839 52 Q 835 148 828 236 Q 825 270 840 298 Q 852 314 838 327 Q 820 342 783 354 Q 762 364 745 352 Q 723 342 679 329 Q 666 326 654 322 L 609 312 Q 542 299 509 291 C 480 284 494 262 524 266 Q 537 267 554 271 Q 582 278 608 283 L 654 293 Z" fill="black" /></g></svg>