<?xml version='1.0' encoding='utf-8'?>
<svg xmlns="http://www.w3.org/2000/svg" version="1.1" viewBox="0 0 1024 1024"><g transform="scale(1, -1) translate(0, -900)"><path d="M 581 445 Q 594 426 609 417 Q 619 410 634 430 Q 646 446 673 538 Q 683 568 706 591 Q 719 603 708 616 Q 693 632 653 659 Q 631 671 593 657 L 571 653 Q 523 647 436 630 Q 390 621 351 615 C 321 610 338 574 367 583 Q 367 584 368 584 Q 443 605 576 622 Q 606 626 615 616 Q 624 606 622 594 Q 606 504 597 490 Q 594 478 577 475 C 563 468 563 468 581 445 Z" fill="black" /></g></svg>