<?xml version='1.0' encoding='utf-8'?>
<svg xmlns="http://www.w3.org/2000/svg" version="1.1" viewBox="0 0 1024 1024"><g transform="scale(1, -1) translate(0, -900)"><path d="M 789 598 Q 795 667 815 692 Q 825 704 821 712 Q 812 722 768 742 Q 752 749 734 739 Q 718 729 655 715 Q 592 700 539 697 Q 523 697 521 689 Q 520 682 540 672 Q 561 659 578 665 Q 590 669 603 670 L 641 680 Q 687 690 725 695 Q 738 696 742 692 Q 751 679 744 641 Q 731 538 706 494 Q 691 469 669 473 Q 653 477 637 484 Q 616 493 630 471 Q 661 434 674 406 Q 692 387 709 402 Q 763 441 785 573 L 789 598 Z" fill="black" /></g></svg>