<?xml version='1.0' encoding='utf-8'?>
<svg xmlns="http://www.w3.org/2000/svg" version="1.1" viewBox="0 0 1024 1024"><g transform="scale(1, -1) translate(0, -900)"><path d="M 226 693 Q 262 700 299 719 Q 314 728 323 719 Q 327 715 317 700 Q 299 672 283 643 Q 271 622 292 587 Q 340 517 329 499 Q 325 492 308 495 Q 289 499 268 499 Q 246 500 270 486 Q 312 459 350 427 Q 365 417 375 429 Q 388 439 393 463 Q 402 514 337 585 Q 286 622 331 658 Q 371 706 392 716 Q 411 726 402 740 Q 390 758 355 778 Q 336 787 323 776 Q 277 737 214 723 C 185 716 197 686 226 693 Z" fill="black" /></g></svg>