<?xml version='1.0' encoding='utf-8'?>
<svg xmlns="http://www.w3.org/2000/svg" version="1.1" viewBox="0 0 1024 1024"><g transform="scale(1, -1) translate(0, -900)"><path d="M 669 513 Q 606 576 573 585 C 545 596 531 586 556 570 L 575 558 L 618 522 Q 628 512 637 498 L 657 446 Q 663 410 652 351 Q 645 326 638 321 Q 631 317 615 317 Q 558 329 556 320 Q 555 313 566 303 Q 609 266 627 241 Q 639 225 653 229 Q 666 233 680 255 Q 693 285 700 333 Q 707 399 699 438 Q 695 454 691 467 C 677 516 687 495 669 513 Z" fill="black" /></g></svg>