<?xml version='1.0' encoding='utf-8'?>
<svg xmlns="http://www.w3.org/2000/svg" version="1.1" viewBox="0 0 1024 1024"><g transform="scale(1, -1) translate(0, -900)"><path d="M 765 395 Q 765 394 766 392 Q 770 376 784 377 Q 797 378 806 392 Q 822 411 850 507 Q 868 559 906 589 Q 925 605 910 621 Q 892 639 841 667 Q 823 679 759 661 Q 675 655 548 628 Q 466 612 412 607 C 382 604 413 570 443 573 Q 452 572 460 574 Q 506 589 583 601 L 621 607 Q 784 635 809 623 Q 819 616 812 581 Q 779 449 766 421 C 759 403 759 403 765 395 Z" fill="black" /></g></svg>