<?xml version='1.0' encoding='utf-8'?>
<svg xmlns="http://www.w3.org/2000/svg" version="1.1" viewBox="0 0 1024 1024"><g transform="scale(1, -1) translate(0, -900)"><path d="M 674 47 Q 701 13 721 -20 Q 730 -38 741 -37 Q 756 -36 771 -4 Q 787 33 784 77 Q 778 129 770 230 Q 769 258 785 280 Q 794 292 785 301 Q 767 320 718 343 Q 702 352 687 343 Q 635 319 510 298 C 480 293 503 265 533 269 Q 542 269 675 294 Q 694 298 705 290 Q 715 280 717 89 Q 716 85 716 79 Q 712 60 694 69 Q 690 72 685 74 C 658 86 656 71 674 47 Z" fill="black" /></g></svg>