<?xml version='1.0' encoding='utf-8'?>
<svg xmlns="http://www.w3.org/2000/svg" version="1.1" viewBox="0 0 1024 1024"><g transform="scale(1, -1) translate(0, -900)"><path d="M 619 596 Q 631 571 643 562 Q 653 552 672 570 Q 688 588 738 695 Q 751 725 779 746 Q 794 756 784 773 Q 771 792 732 824 Q 714 836 654 825 Q 581 819 303 781 C 273 777 295 743 324 749 Q 381 762 460 774 L 497 778 Q 558 788 633 795 Q 678 799 692 784 Q 699 769 695 757 Q 656 654 644 639 Q 638 629 626 628 C 607 617 607 617 619 596 Z" fill="black" /></g></svg>