<?xml version='1.0' encoding='utf-8'?>
<svg xmlns="http://www.w3.org/2000/svg" version="1.1" viewBox="0 0 1024 1024"><g transform="scale(1, -1) translate(0, -900)"><path d="M 251 692 Q 281 698 312 711 Q 325 718 332 711 Q 332 710 310 654 Q 298 636 322 594 Q 335 569 342 551 Q 346 538 340 531 Q 336 524 320 527 Q 301 531 279 530 Q 257 533 281 518 Q 320 493 355 462 Q 365 452 377 461 Q 389 468 395 489 Q 408 537 353 604 Q 352 607 350 608 Q 326 641 367 678 Q 386 702 401 708 Q 419 718 410 731 Q 398 747 365 766 Q 343 775 309 746 Q 272 728 232 719 C 203 712 222 685 251 692 Z" fill="black" /></g></svg>