<?xml version='1.0' encoding='utf-8'?>
<svg xmlns="http://www.w3.org/2000/svg" version="1.1" viewBox="0 0 1024 1024"><g transform="scale(1, -1) translate(0, -900)"><path d="M 554 477 Q 704 507 726 497 Q 739 491 739 465 Q 749 375 747 305 Q 746 290 738 288 Q 728 285 677 297 Q 665 300 666 292 Q 667 285 681 276 Q 715 248 740 218 Q 753 203 769 205 Q 779 206 792 237 Q 810 270 801 365 Q 794 464 806 487 Q 816 502 804 514 Q 788 529 752 541 Q 733 551 716 540 Q 698 533 665 524 Q 583 508 542 501 C 512 496 525 471 554 477 Z" fill="black" /></g></svg>