<?xml version='1.0' encoding='utf-8'?>
<svg xmlns="http://www.w3.org/2000/svg" version="1.1" viewBox="0 0 1024 1024"><g transform="scale(1, -1) translate(0, -900)"><path d="M 716 68 Q 726 40 755 -15 Q 764 -34 775 -32 Q 791 -29 801 -1 Q 829 53 832 125 Q 836 170 842 222 Q 846 273 870 303 Q 888 324 875 338 Q 853 360 804 381 Q 785 391 750 379 Q 680 352 598 334 Q 525 321 418 310 C 388 307 421 269 451 274 Q 457 274 463 275 Q 566 299 728 329 Q 758 333 769 322 Q 778 318 778 297 Q 779 200 764 104 Q 763 88 756 86 Q 752 85 744 87 C 717 75 714 74 716 68 Z" fill="black" /></g></svg>