<?xml version='1.0' encoding='utf-8'?>
<svg xmlns="http://www.w3.org/2000/svg" version="1.1" viewBox="0 0 1024 1024"><g transform="scale(1, -1) translate(0, -900)"><path d="M 413 518 Q 423 505 433 499 Q 442 492 455 509 Q 462 521 485 588 Q 492 613 512 634 Q 522 644 513 656 Q 501 669 466 691 Q 454 697 381 679 Q 377 679 373 676 L 329 666 Q 311 663 295 658 Q 262 649 237 643 C 208 636 219 602 247 614 Q 247 615 248 615 Q 279 627 330 638 L 373 648 Q 389 652 407 656 Q 429 660 437 653 Q 444 646 442 637 Q 429 570 423 560 Q 420 551 406 547 C 393 541 393 541 413 518 Z" fill="black" /></g></svg>