<?xml version='1.0' encoding='utf-8'?>
<svg xmlns="http://www.w3.org/2000/svg" version="1.1" viewBox="0 0 1024 1024"><g transform="scale(1, -1) translate(0, -900)"><path d="M 455 375 Q 406 365 363 351 L 325 339 Q 282 326 248 310 Q 235 306 237 322 Q 241 371 236 381 Q 226 393 209 401 C 183 415 169 422 181 394 Q 181 393 183 389 Q 210 332 181 292 Q 168 276 173 264 Q 183 252 198 244 Q 210 240 217 246 Q 239 277 385 326 Q 434 344 450 340 Q 456 343 462 346 C 489 359 484 381 455 375 Z" fill="black" /></g></svg>