<?xml version='1.0' encoding='utf-8'?>
<svg xmlns="http://www.w3.org/2000/svg" version="1.1" viewBox="0 0 1024 1024"><g transform="scale(1, -1) translate(0, -900)"><path d="M 363 351 Q 364 397 366 439 L 367 473 Q 367 492 369 511 L 370 548 Q 370 564 371 581 L 372 610 Q 372 629 373 648 L 373 676 Q 373 679 374 681 Q 375 697 377 712 L 384 757 Q 388 775 392 787 Q 395 797 376 811 Q 345 827 322 831 Q 307 834 300 826 Q 293 819 301 805 Q 326 766 328 739 L 329 701 Q 329 685 329 666 L 330 638 Q 330 620 331 601 L 331 572 Q 331 556 330 537 L 330 505 Q 329 486 329 465 L 328 431 Q 327 388 325 339 C 324 309 362 321 363 351 Z" fill="black" /></g></svg>