<?xml version='1.0' encoding='utf-8'?>
<svg xmlns="http://www.w3.org/2000/svg" version="1.1" viewBox="0 0 1024 1024"><g transform="scale(1, -1) translate(0, -900)"><path d="M 728 423 Q 765 486 799 587 Q 809 614 827 631 Q 843 647 832 659 Q 819 669 790 679 Q 768 685 744 672 Q 722 662 693 652 Q 663 642 614 635 Q 602 634 598 628 Q 595 621 611 615 Q 644 603 686 617 Q 722 633 728 634 Q 750 630 743 606 Q 728 528 692 456 L 670 422 Q 604 344 495 307 Q 482 303 494 295 Q 500 291 538 293 Q 623 300 700 385 L 728 423 Z" fill="black" /></g></svg>