<?xml version='1.0' encoding='utf-8'?>
<svg xmlns="http://www.w3.org/2000/svg" version="1.1" viewBox="0 0 1024 1024"><g transform="scale(1, -1) translate(0, -900)"><path d="M 515 237 Q 515 402 517 406 Q 524 430 523 433 Q 522 436 520 437 Q 507 449 478 458 Q 466 464 419 445 Q 365 432 341 424 C 312 415 319 400 349 404 Q 457 419 459 419 Q 468 416 470 399 Q 474 323 471 264 Q 470 252 463 250 Q 457 246 422 241 Q 413 242 414 236 Q 415 232 428 226 Q 450 210 466 191 Q 475 182 484 183 Q 493 184 504 209 L 504 210 L 515 237 Z" fill="black" /></g></svg>