<?xml version='1.0' encoding='utf-8'?>
<svg xmlns="http://www.w3.org/2000/svg" version="1.1" viewBox="0 0 1024 1024"><g transform="scale(1, -1) translate(0, -900)"><path d="M 601 604 Q 614 582 628 573 Q 638 566 654 585 Q 667 603 701 705 Q 711 735 736 757 Q 749 767 739 782 Q 726 798 686 827 Q 668 837 604 823 Q 583 822 448 801 Q 366 788 318 791 C 288 792 339 749 368 756 Q 411 766 472 776 L 514 781 Q 625 802 646 785 Q 656 776 653 761 Q 629 661 620 647 Q 616 638 605 633 C 590 620 590 620 601 604 Z" fill="black" /></g></svg>