<?xml version='1.0' encoding='utf-8'?>
<svg xmlns="http://www.w3.org/2000/svg" version="1.1" viewBox="0 0 1024 1024"><g transform="scale(1, -1) translate(0, -900)"><path d="M 729 532 Q 733 520 743 520 Q 755 521 785 555 Q 801 598 834 622 Q 850 635 837 649 Q 824 665 782 689 Q 770 698 701 682 Q 607 664 542 647 Q 476 631 402 624 C 372 621 424 593 454 595 Q 464 594 475 597 Q 497 606 531 614 L 547 618 Q 584 630 638 640 L 668 646 Q 740 661 758 654 Q 762 650 758 634 Q 740 576 734 563 Q 731 560 730 555 L 729 532 Z" fill="black" /></g></svg>