<?xml version='1.0' encoding='utf-8'?>
<svg xmlns="http://www.w3.org/2000/svg" version="1.1" viewBox="0 0 1024 1024"><g transform="scale(1, -1) translate(0, -900)"><path d="M 749 613 Q 770 658 787 667 Q 797 673 796 680 Q 795 687 761 710 Q 746 720 733 713 Q 690 700 625 686 Q 607 683 610 701 Q 616 735 621 758 L 625 776 Q 629 801 635 812 Q 644 831 623 842 Q 589 858 578 853 Q 568 849 577 837 Q 586 824 583 736 Q 584 706 569 681 Q 562 669 577 655 Q 590 642 599 651 Q 630 670 701 677 Q 720 683 727 675 Q 731 669 725 654 Q 719 639 712 623 Q 711 619 709 614 C 699 586 736 586 749 613 Z" fill="black" /></g></svg>