<?xml version='1.0' encoding='utf-8'?>
<svg xmlns="http://www.w3.org/2000/svg" version="1.1" viewBox="0 0 1024 1024"><g transform="scale(1, -1) translate(0, -900)"><path d="M 270 453 Q 282 453 298 458 Q 383 479 396 474 Q 403 471 406 455 Q 413 361 408 287 Q 407 272 399 269 Q 390 266 343 273 Q 333 274 334 268 Q 335 262 347 257 Q 375 235 397 213 Q 409 203 421 204 Q 430 205 443 233 Q 458 260 454 337 Q 447 448 459 471 Q 468 483 456 493 Q 443 505 413 514 Q 397 521 384 511 Q 372 505 349 497 Q 289 479 263 472 C 234 464 240 450 270 453 Z" fill="black" /></g></svg>