<?xml version='1.0' encoding='utf-8'?>
<svg xmlns="http://www.w3.org/2000/svg" version="1.1" viewBox="0 0 1024 1024"><g transform="scale(1, -1) translate(0, -900)"><path d="M 585 380 Q 584 393 583 434 L 584 451 Q 585 475 588 500 L 590 522 Q 591 543 595 564 C 598 584 598 584 588 590 Q 578 600 561 605 Q 551 608 545 604 Q 539 601 544 587 Q 554 557 554 529 Q 547 307 589 269 Q 589 257 656 237 Q 821 198 936 284 Q 952 297 941 318 Q 931 340 915 408 Q 915 421 909 426 Q 905 429 900 414 Q 878 341 862 318 Q 849 302 810 289 Q 720 264 641 293 Q 599 311 588 360 L 585 380 Z" fill="black" /></g></svg>