<?xml version='1.0' encoding='utf-8'?>
<svg xmlns="http://www.w3.org/2000/svg" version="1.1" viewBox="0 0 1024 1024"><g transform="scale(1, -1) translate(0, -900)"><path d="M 535 412 Q 718 436 872 423 Q 897 420 903 430 Q 910 443 898 456 Q 867 484 821 504 Q 806 510 779 501 Q 713 485 645 475 Q 581 468 536 461 L 482 454 Q 473 457 297 431 Q 231 421 132 418 Q 119 417 117 406 Q 116 393 136 378 Q 154 365 186 353 Q 198 349 216 358 Q 232 364 302 377 Q 383 396 482 407 L 535 412 Z" fill="black" /></g></svg>