<?xml version='1.0' encoding='utf-8'?>
<svg xmlns="http://www.w3.org/2000/svg" version="1.1" viewBox="0 0 1024 1024"><g transform="scale(1, -1) translate(0, -900)"><path d="M 706 413 Q 727 416 788 434 Q 804 438 812 429 Q 819 422 820 396 Q 833 197 829 76 Q 828 49 820 37 Q 816 31 795 35 Q 770 39 743 44 Q 724 48 725 39 Q 783 -4 815 -36 Q 828 -54 843 -58 Q 852 -61 860 -51 Q 897 0 891 79 Q 864 382 885 419 Q 897 438 885 447 Q 864 465 829 478 Q 808 487 768 462 Q 744 452 693 442 C 664 436 677 407 706 413 Z" fill="black" /></g></svg>