<?xml version='1.0' encoding='utf-8'?>
<svg xmlns="http://www.w3.org/2000/svg" version="1.1" viewBox="0 0 1024 1024"><g transform="scale(1, -1) translate(0, -900)"><path d="M 627 666 Q 766 696 803 689 Q 813 682 810 674 Q 810 673 785 609 Q 778 596 783 592 Q 790 589 806 600 Q 854 634 893 645 Q 926 655 925 664 Q 922 673 860 715 Q 839 733 757 714 Q 676 704 628 692 L 584 684 Q 548 680 510 671 Q 467 662 423 656 C 393 652 393 640 422 633 Q 443 623 494 636 Q 540 649 585 658 L 627 666 Z" fill="black" /></g></svg>