<?xml version='1.0' encoding='utf-8'?>
<svg xmlns="http://www.w3.org/2000/svg" version="1.1" viewBox="0 0 1024 1024"><g transform="scale(1, -1) translate(0, -900)"><path d="M 594 483 Q 762 511 802 504 Q 821 500 819 488 Q 819 487 778 407 Q 768 392 775 388 Q 784 384 802 396 Q 860 435 910 447 Q 950 457 949 468 Q 946 478 874 536 Q 855 552 828 551 Q 743 538 636 521 Q 528 506 359 479 Q 298 469 237 460 C 207 456 205 435 234 426 Q 258 414 283 421 Q 335 437 389 449 L 426 456 Q 445 465 557 478 L 594 483 Z" fill="black" /></g></svg>