<?xml version='1.0' encoding='utf-8'?>
<svg xmlns="http://www.w3.org/2000/svg" version="1.1" viewBox="0 0 1024 1024"><g transform="scale(1, -1) translate(0, -900)"><path d="M 441 316 Q 457 317 470 324 Q 539 349 549 339 Q 555 333 551 311 Q 530 134 573 70 Q 619 -14 772 -9 Q 838 -6 893 22 Q 915 35 904 62 Q 873 138 869 223 Q 866 232 859 232 Q 856 232 849 218 Q 833 110 818 84 Q 808 69 780 62 Q 746 55 683 60 Q 649 63 632 80 Q 607 99 595 148 Q 576 229 612 302 Q 619 320 631 332 Q 664 356 585 387 Q 560 397 545 387 Q 511 366 418 345 C 389 338 412 308 441 316 Z" fill="black" /></g></svg>