<?xml version='1.0' encoding='utf-8'?>
<svg xmlns="http://www.w3.org/2000/svg" version="1.1" viewBox="0 0 1024 1024"><g transform="scale(1, -1) translate(0, -900)"><path d="M 283 274 Q 273 280 258 283 Q 243 287 232 277 Q 226 273 239 260 Q 257 241 263 202 Q 270 162 261 148 Q 257 135 268 120 Q 284 104 293 111 Q 312 132 372 152 Q 391 159 398 153 Q 410 144 402 15 C 400 -15 450 -11 451 19 Q 454 133 467 151 Q 479 161 470 171 Q 458 184 418 197 Q 408 201 390 190 Q 362 177 322 164 Q 309 160 307 175 Q 304 229 304 244 Q 303 245 305 245 C 306 264 306 264 283 274 Z" fill="black" /></g></svg>