<?xml version='1.0' encoding='utf-8'?>
<svg xmlns="http://www.w3.org/2000/svg" version="1.1" viewBox="0 0 1024 1024"><g transform="scale(1, -1) translate(0, -900)"><path d="M 353 289 Q 393 361 432 464 Q 447 494 472 513 Q 487 523 486 532 Q 485 545 454 560 Q 417 581 402 579 Q 390 578 380 569 Q 307 536 266 531 Q 263 531 261 529 C 232 522 217 510 247 505 Q 283 493 330 516 Q 360 537 376 525 Q 385 521 367 458 Q 354 392 312 319 L 293 285 Q 209 158 73 70 Q 66 64 66 60 Q 67 56 75 57 Q 195 72 328 249 Q 331 255 334 258 L 353 289 Z" fill="black" /></g></svg>