<?xml version='1.0' encoding='utf-8'?>
<svg xmlns="http://www.w3.org/2000/svg" version="1.1" viewBox="0 0 1024 1024"><g transform="scale(1, -1) translate(0, -900)"><path d="M 532 526 Q 575 575 625 643 Q 644 670 672 686 Q 688 693 689 702 Q 689 715 662 734 Q 628 761 613 762 Q 601 762 589 755 Q 526 733 429 712 C 400 705 372 689 402 684 Q 447 668 548 704 Q 567 708 574 701 Q 578 697 557 655 Q 529 606 486 556 L 463 531 Q 334 402 152 348 Q 142 345 142 340 Q 142 336 150 334 Q 297 319 471 467 Q 474 471 503 497 L 532 526 Z" fill="black" /></g></svg>