<?xml version='1.0' encoding='utf-8'?>
<svg xmlns="http://www.w3.org/2000/svg" version="1.1" viewBox="0 0 1024 1024"><g transform="scale(1, -1) translate(0, -900)"><path d="M 285 292 Q 420 365 522 474 L 546 503 Q 589 558 636 627 Q 654 652 680 669 Q 695 676 696 684 Q 696 697 669 715 Q 636 739 622 740 Q 612 740 600 733 Q 533 712 421 692 C 391 687 365 664 395 662 Q 462 653 560 685 Q 579 689 587 683 Q 591 679 571 636 Q 546 584 506 532 L 484 506 Q 345 341 127 268 Q 117 265 118 260 Q 118 256 126 255 Q 168 252 256 278 L 285 292 Z" fill="black" /></g></svg>