<?xml version='1.0' encoding='utf-8'?>
<svg xmlns="http://www.w3.org/2000/svg" version="1.1" viewBox="0 0 1024 1024"><g transform="scale(1, -1) translate(0, -900)"><path d="M 443 570 Q 461 602 487 662 Q 514 722 527 739 Q 530 743 531 745 Q 536 758 514 778 Q 496 792 482 800 Q 461 808 443 799 Q 431 792 441 780 Q 455 762 452 743 Q 451 727 426 661 Q 398 582 365 529 L 343 499 Q 311 459 259 406 Q 249 392 259 388 Q 264 386 284 398 Q 319 419 344 441 L 372 468 L 394 495 L 418 527 L 419 529 L 443 570 Z" fill="black" /></g></svg>