<?xml version='1.0' encoding='utf-8'?>
<svg xmlns="http://www.w3.org/2000/svg" version="1.1" viewBox="0 0 1024 1024"><g transform="scale(1, -1) translate(0, -900)"><path d="M 588 144 Q 624 190 656 254 Q 672 284 696 301 Q 718 316 706 332 Q 693 347 661 362 Q 637 371 554 345 Q 485 333 445 327 C 415 322 398 315 426 305 Q 427 305 431 303 Q 470 285 524 299 Q 573 317 583 316 Q 605 312 597 289 Q 578 225 544 175 L 515 140 Q 439 58 254 16 Q 238 13 250 3 Q 257 -1 309 1 Q 376 5 451 39 Q 506 63 551 102 L 588 144 Z" fill="black" /></g></svg>