<?xml version='1.0' encoding='utf-8'?>
<svg xmlns="http://www.w3.org/2000/svg" version="1.1" viewBox="0 0 1024 1024"><g transform="scale(1, -1) translate(0, -900)"><path d="M 581 116 Q 620 164 656 234 Q 672 262 694 278 Q 715 291 703 307 Q 691 320 661 336 Q 637 346 608 336 Q 575 326 532 315 Q 492 308 427 302 C 397 299 379 291 407 281 Q 408 281 411 279 Q 448 263 499 275 Q 572 294 586 293 Q 607 289 599 267 Q 577 197 540 146 L 516 118 Q 435 37 262 0 Q 247 -4 258 -13 Q 265 -17 316 -15 Q 380 -11 455 22 Q 509 46 551 83 L 581 116 Z" fill="black" /></g></svg>