<?xml version='1.0' encoding='utf-8'?>
<svg xmlns="http://www.w3.org/2000/svg" version="1.1" viewBox="0 0 1024 1024"><g transform="scale(1, -1) translate(0, -900)"><path d="M 483 126 Q 483 -42 498 -65 Q 504 -72 511 -70 Q 527 -60 531 -5 Q 534 26 535 133 L 534 173 Q 534 203 535 242 L 536 276 Q 536 303 537 333 L 539 372 Q 540 378 541 382 Q 544 400 547 413 Q 550 429 536 439 Q 505 460 491 462 Q 479 466 464 458 Q 455 451 463 441 Q 481 395 482 359 L 483 324 Q 483 297 483 265 L 483 232 Q 483 201 483 166 L 483 126 Z" fill="black" /></g></svg>