<?xml version='1.0' encoding='utf-8'?>
<svg xmlns="http://www.w3.org/2000/svg" version="1.1" viewBox="0 0 1024 1024"><g transform="scale(1, -1) translate(0, -900)"><path d="M 486 295 Q 463 261 441 236 Q 351 136 157 42 Q 141 35 149 27 Q 157 24 182 33 Q 312 74 396 125 Q 459 167 518 244 Q 519 245 519 246 L 550 288 Q 608 374 645 490 Q 658 534 690 561 Q 710 577 694 592 Q 633 637 588 615 Q 582 610 515 589 L 443 570 C 414 562 389 530 419 529 Q 427 527 439 527 Q 470 526 537 557 Q 578 574 585 572 Q 588 572 589 557 Q 564 439 525 359 L 512 335 L 486 295 Z" fill="black" /></g></svg>