<?xml version='1.0' encoding='utf-8'?>
<svg xmlns="http://www.w3.org/2000/svg" version="1.1" viewBox="0 0 1024 1024"><g transform="scale(1, -1) translate(0, -900)"><path d="M 296 636 Q 458 678 639 696 Q 655 697 664 690 Q 667 687 668 656 Q 614 245 772 81 Q 826 15 914 -13 Q 930 -20 941 -9 Q 948 -2 945 16 Q 938 88 935 211 Q 935 224 929 229 Q 922 233 918 219 Q 888 114 876 102 Q 870 93 846 105 Q 794 127 755 209 Q 680 369 718 598 Q 722 643 752 677 Q 770 689 759 701 Q 747 720 714 745 Q 695 760 669 749 Q 648 739 611 731 Q 374 688 283 672 C 253 667 267 629 296 636 Z" fill="black" /></g></svg>