<?xml version='1.0' encoding='utf-8'?>
<svg xmlns="http://www.w3.org/2000/svg" version="1.1" viewBox="0 0 1024 1024"><g transform="scale(1, -1) translate(0, -900)"><path d="M 596 547 Q 602 547 609 549 Q 696 577 758 589 Q 773 592 775 587 Q 785 574 778 537 Q 765 437 739 393 Q 726 368 703 373 Q 681 383 662 395 Q 641 405 653 381 Q 689 335 704 300 Q 722 281 739 296 Q 767 315 788 350 Q 810 390 830 519 Q 836 565 853 586 Q 865 599 859 609 Q 850 621 799 642 Q 780 651 761 638 Q 718 611 583 588 C 553 583 567 541 596 547 Z" fill="black" /></g></svg>