<?xml version='1.0' encoding='utf-8'?>
<svg xmlns="http://www.w3.org/2000/svg" version="1.1" viewBox="0 0 1024 1024"><g transform="scale(1, -1) translate(0, -900)"><path d="M 583 588 Q 570 600 548 607 Q 535 611 525 606 Q 518 602 523 582 Q 538 539 535 497 Q 519 206 544 126 Q 551 96 577 71 Q 665 -5 854 22 Q 872 25 891 30 Q 937 43 982 78 Q 1001 94 986 121 Q 970 146 946 227 Q 945 242 937 246 Q 931 249 928 232 Q 913 144 899 115 Q 886 94 840 83 Q 737 61 645 104 Q 608 123 597 148 Q 552 241 596 547 C 600 577 600 578 583 588 Z" fill="black" /></g></svg>