<?xml version='1.0' encoding='utf-8'?>
<svg xmlns="http://www.w3.org/2000/svg" version="1.1" viewBox="0 0 1024 1024"><g transform="scale(1, -1) translate(0, -900)"><path d="M 692 339 Q 719 327 756 339 Q 799 357 814 348 Q 821 342 798 285 Q 723 90 499 -15 Q 489 -19 490 -24 Q 491 -28 498 -28 Q 624 -28 757 120 Q 760 124 764 128 Q 813 186 863 283 Q 881 310 907 327 Q 923 334 924 344 Q 924 357 895 375 Q 861 400 846 400 Q 836 400 823 392 Q 730 368 714 365 C 685 358 663 347 692 339 Z" fill="black" /></g></svg>