<?xml version='1.0' encoding='utf-8'?>
<svg xmlns="http://www.w3.org/2000/svg" version="1.1" viewBox="0 0 1024 1024"><g transform="scale(1, -1) translate(0, -900)"><path d="M 664 494 Q 668 481 680 480 Q 695 480 729 521 Q 750 569 787 593 Q 806 606 793 623 Q 778 641 733 671 Q 718 681 633 667 Q 582 667 423 640 Q 351 628 302 622 C 272 618 289 580 318 588 Q 318 589 321 589 Q 355 599 408 608 L 430 612 Q 481 622 549 629 L 592 634 Q 677 649 702 634 Q 708 630 702 611 Q 680 542 671 529 Q 667 523 664 516 C 656 502 656 502 664 494 Z" fill="black" /></g></svg>