<?xml version='1.0' encoding='utf-8'?>
<svg xmlns="http://www.w3.org/2000/svg" version="1.1" viewBox="0 0 1024 1024"><g transform="scale(1, -1) translate(0, -900)"><path d="M 645 217 Q 709 295 762 443 Q 774 471 794 490 Q 813 506 800 519 Q 787 532 756 543 Q 732 550 705 537 Q 681 528 648 519 Q 626 515 595 508 C 566 502 547 477 577 476 Q 604 472 639 481 Q 678 496 685 496 Q 710 493 703 466 Q 673 328 605 249 L 575 219 Q 491 155 392 124 Q 379 120 390 111 Q 397 105 444 109 Q 526 118 610 185 L 645 217 Z" fill="black" /></g></svg>