<?xml version='1.0' encoding='utf-8'?>
<svg xmlns="http://www.w3.org/2000/svg" version="1.1" viewBox="0 0 1024 1024"><g transform="scale(1, -1) translate(0, -900)"><path d="M 334 118 Q 321 114 249 127 Q 239 130 240 124 Q 239 120 251 112 Q 294 73 313 44 Q 323 26 336 28 Q 355 27 374 47 Q 441 102 460 246 Q 473 343 479 489 Q 479 523 500 548 Q 513 563 511 571 Q 510 578 490 591 Q 462 610 426 619 Q 404 625 343 601 Q 339 601 334 598 Q 277 580 218 562 C 189 553 173 536 203 540 Q 299 553 396 567 Q 403 568 406 565 Q 427 526 409 301 Q 394 205 368 153 Q 353 120 334 118 Z" fill="black" /></g></svg>