<?xml version='1.0' encoding='utf-8'?>
<svg xmlns="http://www.w3.org/2000/svg" version="1.1" viewBox="0 0 1024 1024"><g transform="scale(1, -1) translate(0, -900)"><path d="M 366 299 Q 366 332 367 364 L 368 401 Q 368 446 369 491 L 370 531 Q 370 559 371 587 Q 371 593 371 597 L 371 636 Q 371 690 370 692 Q 364 698 357 702 C 337 724 313 725 319 696 Q 323 684 324 664 Q 324 645 324 623 L 325 589 Q 325 555 325 518 L 324 485 Q 323 439 322 392 L 320 296 Q 308 71 315 57 Q 319 47 328 34 Q 338 21 349 37 Q 367 73 368 134 Q 367 162 366 275 L 366 299 Z" fill="black" /></g></svg>