<?xml version='1.0' encoding='utf-8'?>
<svg xmlns="http://www.w3.org/2000/svg" version="1.1" viewBox="0 0 1024 1024"><g transform="scale(1, -1) translate(0, -900)"><path d="M 502 466 Q 503 479 507 492 L 513 536 Q 513 650 538 734 L 547 782 Q 546 785 544 786 Q 525 805 485 822 Q 461 832 442 827 Q 420 820 437 799 Q 468 766 467 732 Q 464 617 453 526 L 447 483 Q 414 297 352 204 Q 283 116 144 33 Q 129 27 126 23 Q 122 16 139 14 Q 187 11 302 85 Q 363 133 389 162 L 409 188 Q 460 269 494 419 L 502 466 Z" fill="black" /></g></svg>