<?xml version='1.0' encoding='utf-8'?>
<svg xmlns="http://www.w3.org/2000/svg" version="1.1" viewBox="0 0 1024 1024"><g transform="scale(1, -1) translate(0, -900)"><path d="M 491 390 Q 491 391 492 391 L 496 432 Q 497 444 508 569 L 513 621 Q 516 720 543 771 Q 552 787 541 801 Q 516 822 473 835 Q 446 842 436 836 Q 426 829 434 815 Q 458 773 460 722 Q 461 667 459 611 L 456 560 Q 452 491 444 425 L 439 384 Q 411 224 332 146 Q 265 80 120 19 Q 105 12 105 8 Q 106 4 118 2 Q 142 -4 198 13 Q 294 35 364 101 Q 451 180 484 342 L 491 390 Z" fill="black" /></g></svg>