<?xml version='1.0' encoding='utf-8'?>
<svg xmlns="http://www.w3.org/2000/svg" version="1.1" viewBox="0 0 1024 1024"><g transform="scale(1, -1) translate(0, -900)"><path d="M 486 318 Q 489 348 492 405 L 493 439 Q 494 488 498 534 L 500 568 Q 501 608 505 645 L 508 686 Q 512 725 536 775 Q 543 790 532 802 Q 508 823 466 835 Q 439 842 430 835 Q 420 828 428 814 Q 452 774 454 724 Q 454 702 455 677 L 455 637 Q 455 598 453 558 L 452 525 Q 451 479 447 430 L 444 398 Q 440 362 437 324 Q 436 317 435 309 L 431 283 Q 406 147 336 86 Q 275 29 140 -22 Q 127 -28 125 -32 Q 126 -36 138 -39 Q 160 -43 215 -28 Q 306 -6 372 50 Q 444 113 475 235 L 481 269 Q 482 279 483 291 L 486 318 Z" fill="black" /></g></svg>