<?xml version='1.0' encoding='utf-8'?>
<svg xmlns="http://www.w3.org/2000/svg" version="1.1" viewBox="0 0 1024 1024"><g transform="scale(1, -1) translate(0, -900)"><path d="M 483 291 Q 697 327 738 319 Q 750 318 755 307 Q 761 292 733 220 Q 729 207 714 209 Q 686 216 651 228 Q 626 237 643 213 Q 694 161 704 137 Q 710 124 723 125 Q 736 124 750 136 Q 769 154 786 193 Q 801 256 830 285 Q 846 304 836 315 Q 814 339 780 360 Q 767 370 748 364 Q 700 351 603 337 Q 539 328 486 318 L 435 309 Q 369 299 325 286 Q 298 282 286 282 Q 279 283 281 295 Q 290 340 309 374 C 316 389 315 389 291 407 Q 282 416 268 424 Q 258 431 249 425 Q 242 421 248 404 Q 258 379 247 346 Q 231 295 214 277 Q 204 262 212 247 Q 221 222 233 216 Q 242 210 264 226 Q 313 268 431 283 L 483 291 Z" fill="black" /></g></svg>