<?xml version='1.0' encoding='utf-8'?>
<svg xmlns="http://www.w3.org/2000/svg" version="1.1" viewBox="0 0 1024 1024"><g transform="scale(1, -1) translate(0, -900)"><path d="M 464 289 Q 525 308 578 316 Q 603 320 608 313 Q 620 294 610 246 Q 591 113 557 55 Q 538 22 509 27 Q 482 34 459 42 Q 434 49 453 25 Q 498 -15 519 -48 Q 541 -73 562 -52 Q 596 -27 620 17 Q 648 69 667 228 Q 674 285 693 313 Q 706 326 699 337 Q 690 347 637 370 Q 616 379 596 365 Q 571 349 475 323 L 416 307 Q 338 289 273 282 Q 255 281 252 271 Q 251 264 276 252 Q 301 237 321 245 Q 364 260 405 271 L 464 289 Z" fill="black" /></g></svg>