<?xml version='1.0' encoding='utf-8'?>
<svg xmlns="http://www.w3.org/2000/svg" version="1.1" viewBox="0 0 1024 1024"><g transform="scale(1, -1) translate(0, -900)"><path d="M 521 357 Q 522 364 524 370 L 529 412 Q 538 553 540 564 L 543 617 Q 546 725 571 769 Q 578 787 568 799 Q 544 818 502 831 Q 475 838 466 831 Q 456 824 464 810 Q 489 770 491 720 Q 492 662 492 602 L 490 553 Q 487 496 478 403 L 471 362 Q 441 224 370 160 Q 301 94 152 35 Q 139 28 137 24 Q 138 20 150 17 Q 174 13 232 29 Q 331 53 402 117 Q 480 186 513 319 L 521 357 Z" fill="black" /></g></svg>