<?xml version='1.0' encoding='utf-8'?>
<svg xmlns="http://www.w3.org/2000/svg" version="1.1" viewBox="0 0 1024 1024"><g transform="scale(1, -1) translate(0, -900)"><path d="M 536 77 Q 496 90 455 103 Q 442 106 443 98 Q 443 91 454 82 Q 533 9 561 -34 Q 576 -53 592 -38 Q 629 -5 630 84 Q 627 139 625 340 Q 624 341 625 341 L 628 397 Q 631 413 636 425 Q 646 444 628 458 Q 601 480 570 491 Q 551 498 542 490 Q 536 483 547 467 Q 569 428 570 383 L 571 334 Q 577 96 557 79 Q 548 72 536 77 Z" fill="black" /></g></svg>