<?xml version='1.0' encoding='utf-8'?>
<svg xmlns="http://www.w3.org/2000/svg" version="1.1" viewBox="0 0 1024 1024"><g transform="scale(1, -1) translate(0, -900)"><path d="M 350 437 Q 346 441 339 445 C 323 470 296 439 300 409 Q 316 315 284 82 Q 277 57 260 31 Q 242 7 271 -29 Q 271 -30 274 -33 Q 284 -42 301 -30 Q 419 48 764 36 Q 789 35 790 47 Q 790 63 761 84 Q 745 97 711 91 Q 614 76 536 70 Q 457 67 363 50 Q 347 46 341 52 Q 337 53 337 64 Q 346 193 352 356 Q 352 389 357 408 C 361 438 361 438 350 437 Z" fill="black" /></g></svg>