<?xml version='1.0' encoding='utf-8'?>
<svg xmlns="http://www.w3.org/2000/svg" version="1.1" viewBox="0 0 1024 1024"><g transform="scale(1, -1) translate(0, -900)"><path d="M 478 -47 Q 484 -72 490 -81 Q 496 -88 503 -86 Q 521 -74 524 -19 Q 530 38 529 94 Q 528 119 528 181 L 529 224 Q 529 258 531 301 L 532 348 Q 535 367 540 387 Q 543 405 529 414 Q 498 436 482 438 Q 469 442 454 434 Q 445 427 453 416 Q 471 370 472 333 L 473 291 Q 473 255 473 213 L 473 174 Q 474 135 474 90 Q 474 -13 478 -47 Z" fill="black" /></g></svg>