<?xml version='1.0' encoding='utf-8'?>
<svg xmlns="http://www.w3.org/2000/svg" version="1.1" viewBox="0 0 1024 1024"><g transform="scale(1, -1) translate(0, -900)"><path d="M 505 80 Q 388 -28 228 -72 Q 218 -75 218 -80 Q 218 -84 226 -86 Q 290 -96 406 -47 Q 490 -5 543 43 Q 607 101 680 199 Q 699 226 726 242 Q 742 249 743 258 Q 744 271 717 290 Q 683 315 668 317 Q 658 318 646 311 Q 592 287 536 271 C 507 262 475 247 504 240 Q 517 236 536 233 Q 561 236 604 259 Q 623 262 629 256 Q 633 252 612 212 Q 584 160 527 102 L 505 80 Z" fill="black" /></g></svg>