<?xml version='1.0' encoding='utf-8'?>
<svg xmlns="http://www.w3.org/2000/svg" version="1.1" viewBox="0 0 1024 1024"><g transform="scale(1, -1) translate(0, -900)"><path d="M 346 428 Q 345 401 343 377 Q 344 350 352 331 Q 358 321 366 326 Q 385 347 386 439 Q 386 443 387 446 L 388 483 Q 389 522 391 557 L 392 602 Q 393 638 394 673 L 397 720 Q 398 753 404 771 Q 413 790 400 801 Q 385 814 359 827 Q 338 834 316 826 Q 306 819 318 803 Q 339 764 344 733 Q 344 718 346 703 L 349 663 Q 350 629 350 588 L 350 546 Q 350 503 348 472 L 346 428 Z" fill="black" /></g></svg>