<?xml version='1.0' encoding='utf-8'?>
<svg xmlns="http://www.w3.org/2000/svg" version="1.1" viewBox="0 0 1024 1024"><g transform="scale(1, -1) translate(0, -900)"><path d="M 642 375 Q 530 365 396 337 Q 392 336 395 339 Q 453 382 585 467 Q 625 495 656 508 Q 671 514 668 525 Q 664 547 637 576 Q 624 591 614 591 Q 604 590 601 575 Q 592 533 497 455 Q 496 455 495 454 L 458 428 Q 332 340 314 334 Q 298 330 298 315 Q 297 302 317 277 Q 324 262 342 271 Q 471 331 656 356 C 686 360 672 378 642 375 Z" fill="black" /></g></svg>