<?xml version='1.0' encoding='utf-8'?>
<svg xmlns="http://www.w3.org/2000/svg" version="1.1" viewBox="0 0 1024 1024"><g transform="scale(1, -1) translate(0, -900)"><path d="M 248 358 Q 275 282 241 42 Q 234 17 217 -7 Q 199 -29 227 -65 Q 227 -66 230 -69 Q 240 -78 256 -67 Q 322 -25 421 -9 Q 533 9 750 1 Q 778 0 779 13 Q 779 29 748 53 Q 732 68 694 61 Q 588 46 505 39 Q 420 36 319 19 Q 303 15 296 21 Q 292 22 291 32 Q 297 147 299 294 Q 300 324 304 343 Q 307 353 298 365 Q 291 372 276 380 C 252 397 241 387 248 358 Z" fill="black" /></g></svg>