<?xml version='1.0' encoding='utf-8'?>
<svg xmlns="http://www.w3.org/2000/svg" version="1.1" viewBox="0 0 1024 1024"><g transform="scale(1, -1) translate(0, -900)"><path d="M 673 325 Q 674 324 676 321 Q 689 293 698 294 Q 711 295 727 327 Q 742 351 741 371 Q 726 501 752 540 Q 767 565 719 593 Q 701 605 679 615 Q 663 622 639 613 Q 608 603 574 592 L 539 584 Q 488 575 470 572 L 434 569 Q 376 566 329 567 C 299 567 326 531 356 535 Q 362 535 368 536 Q 401 542 432 545 L 467 550 Q 503 557 539 561 L 572 565 Q 642 574 661 559 Q 679 523 673 378 Q 669 354 668 351 C 666 338 666 338 673 325 Z" fill="black" /></g></svg>