<?xml version='1.0' encoding='utf-8'?>
<svg xmlns="http://www.w3.org/2000/svg" version="1.1" viewBox="0 0 1024 1024"><g transform="scale(1, -1) translate(0, -900)"><path d="M 339 668 Q 346 668 354 669 Q 516 705 633 721 Q 675 728 687 706 Q 703 685 701 616 Q 701 418 690 381 Q 683 357 695 335 Q 708 305 718 306 Q 733 307 749 340 Q 765 365 764 387 Q 754 475 759 612 Q 759 652 782 686 Q 794 702 785 714 Q 757 741 705 763 Q 689 770 663 761 Q 576 727 409 708 L 396 706 Q 356 703 321 702 C 291 701 309 664 339 668 Z" fill="black" /></g></svg>