<?xml version='1.0' encoding='utf-8'?>
<svg xmlns="http://www.w3.org/2000/svg" version="1.1" viewBox="0 0 1024 1024"><g transform="scale(1, -1) translate(0, -900)"><path d="M 688 447 Q 757 456 931 443 Q 956 440 962 449 Q 969 462 957 475 Q 926 503 881 524 Q 866 531 839 522 Q 767 507 695 496 L 617 486 Q 461 471 445 467 L 390 461 Q 314 454 268 447 Q 189 435 73 434 Q 60 434 57 422 Q 57 409 76 394 Q 94 381 126 369 Q 138 365 156 373 Q 205 392 375 416 L 427 423 Q 448 426 606 440 L 688 447 Z" fill="black" /></g></svg>