<?xml version='1.0' encoding='utf-8'?>
<svg xmlns="http://www.w3.org/2000/svg" version="1.1" viewBox="0 0 1024 1024"><g transform="scale(1, -1) translate(0, -900)"><path d="M 445 467 Q 485 576 514 665 Q 526 705 540 732 Q 562 757 524 789 Q 478 825 449 826 Q 433 827 429 815 Q 425 806 434 798 Q 455 774 453 731 Q 441 625 390 461 L 375 416 Q 348 338 337 327 Q 313 309 331 280 Q 340 270 356 274 Q 393 283 491 221 L 535 192 Q 637 132 757 11 Q 776 -8 789 -7 Q 805 -6 805 17 Q 804 54 773 100 Q 755 127 701 153 Q 599 213 569 230 L 519 256 Q 395 320 393 327 Q 393 333 427 423 L 445 467 Z" fill="black" /></g></svg>