<?xml version='1.0' encoding='utf-8'?>
<svg xmlns="http://www.w3.org/2000/svg" version="1.1" viewBox="0 0 1024 1024"><g transform="scale(1, -1) translate(0, -900)"><path d="M 629 -5 Q 636 -29 654 -67 Q 661 -85 671 -84 Q 686 -83 696 -58 Q 720 -16 741 120 Q 748 166 770 193 Q 786 212 776 225 Q 757 246 713 267 Q 695 277 664 268 Q 532 225 307 212 C 277 210 308 170 337 176 Q 349 180 465 198 L 500 203 Q 561 213 637 224 Q 668 227 681 214 Q 688 210 687 193 Q 686 114 667 37 Q 666 24 660 22 Q 656 19 632 36 Q 622 43 618 36 C 615 37 619 23 629 -5 Z" fill="black" /></g></svg>