<?xml version='1.0' encoding='utf-8'?>
<svg xmlns="http://www.w3.org/2000/svg" version="1.1" viewBox="0 0 1024 1024"><g transform="scale(1, -1) translate(0, -900)"><path d="M 614 583 Q 704 613 764 626 Q 785 630 791 621 Q 800 614 784 562 Q 753 462 719 429 Q 709 417 710 408 Q 713 398 724 388 Q 734 381 747 388 Q 790 415 826 406 Q 847 396 847 351 Q 844 212 783 121 Q 762 88 731 96 Q 698 106 664 118 Q 640 122 657 101 Q 699 55 727 13 Q 739 -12 762 2 Q 832 41 862 129 Q 881 192 902 328 Q 906 353 919 371 Q 932 389 918 403 Q 903 418 859 438 Q 841 444 788 429 Q 775 428 774 437 Q 775 455 815 523 Q 857 592 876 606 Q 900 621 895 637 Q 886 656 829 681 Q 813 687 787 676 Q 754 658 594 615 Q 548 602 510 603 Q 489 603 494 590 Q 498 580 532 569 Q 553 566 581 572 L 614 583 Z" fill="black" /></g></svg>