<?xml version='1.0' encoding='utf-8'?>
<svg xmlns="http://www.w3.org/2000/svg" version="1.1" viewBox="0 0 1024 1024"><g transform="scale(1, -1) translate(0, -900)"><path d="M 533 363 Q 564 381 621 408 L 667 432 Q 712 456 770 483 Q 789 490 795 478 Q 801 468 762 304 Q 755 270 732 281 Q 713 293 693 303 Q 680 307 682 300 Q 685 288 735 215 Q 754 187 774 208 Q 814 248 828 312 Q 841 372 852 432 Q 862 469 891 500 Q 904 516 887 528 Q 868 540 817 549 Q 798 553 784 539 Q 759 515 707 489 Q 689 482 672 471 L 626 449 Q 545 415 542 412 L 486 390 Q 443 374 414 365 Q 401 364 399 353 Q 398 346 441 333 Q 463 327 484 335 L 533 363 Z" fill="black" /></g></svg>