<?xml version='1.0' encoding='utf-8'?>
<svg xmlns="http://www.w3.org/2000/svg" version="1.1" viewBox="0 0 1024 1024"><g transform="scale(1, -1) translate(0, -900)"><path d="M 277 195 Q 267 182 258 167 Q 231 130 182 95 Q 170 86 154 76 Q 139 66 124 55 Q 111 46 123 44 Q 136 43 170 55 Q 221 76 259 109 Q 293 137 314 167 L 340 213 Q 374 283 383 327 Q 398 411 416 445 Q 426 461 410 471 Q 367 507 340 498 Q 327 494 333 480 Q 337 473 339 464 L 343 437 Q 343 332 298 232 L 277 195 Z" fill="black" /></g></svg>