<?xml version='1.0' encoding='utf-8'?>
<svg xmlns="http://www.w3.org/2000/svg" version="1.1" viewBox="0 0 1024 1024"><g transform="scale(1, -1) translate(0, -900)"><path d="M 310 498 Q 328 574 344 652 Q 353 700 370 726 Q 382 748 375 760 Q 360 778 313 804 Q 292 816 275 807 Q 263 800 273 783 Q 304 740 264 489 L 255 444 Q 240 368 219 327 Q 210 303 232 287 Q 278 265 316 235 L 355 206 Q 425 149 431 148 Q 440 149 445 160 Q 452 172 444 202 Q 435 235 384 257 L 341 276 Q 316 288 283 300 Q 262 309 263 328 Q 282 392 299 457 L 310 498 Z" fill="black" /></g></svg>