<?xml version='1.0' encoding='utf-8'?>
<svg xmlns="http://www.w3.org/2000/svg" version="1.1" viewBox="0 0 1024 1024"><g transform="scale(1, -1) translate(0, -900)"><path d="M 293 507 Q 318 592 339 678 Q 349 727 369 753 Q 382 775 375 789 Q 360 808 312 837 Q 291 850 274 841 Q 261 834 271 817 Q 307 763 245 498 L 233 451 Q 232 448 232 444 Q 220 396 198 360 Q 188 336 210 319 Q 256 294 296 261 L 332 231 Q 369 201 418 153 Q 434 137 444 136 Q 454 136 460 147 Q 467 159 461 191 Q 455 219 432 235 Q 410 251 364 276 L 321 299 Q 296 314 264 329 Q 242 339 245 360 Q 263 412 279 464 L 293 507 Z" fill="black" /></g></svg>