<?xml version='1.0' encoding='utf-8'?>
<svg xmlns="http://www.w3.org/2000/svg" version="1.1" viewBox="0 0 1024 1024"><g transform="scale(1, -1) translate(0, -900)"><path d="M 321 152 Q 405 86 411 84 Q 420 85 425 96 Q 432 108 424 138 Q 415 169 349 201 L 305 221 Q 278 234 243 248 Q 222 257 223 276 Q 242 337 259 400 L 270 441 Q 295 540 315 641 Q 324 687 342 713 Q 354 735 346 748 Q 333 766 285 792 Q 264 804 248 795 Q 235 788 245 771 Q 281 723 227 433 L 217 387 Q 204 320 179 275 Q 170 251 192 235 Q 241 213 282 181 L 321 152 Z" fill="black" /></g></svg>