<?xml version='1.0' encoding='utf-8'?>
<svg xmlns="http://www.w3.org/2000/svg" version="1.1" viewBox="0 0 1024 1024"><g transform="scale(1, -1) translate(0, -900)"><path d="M 294 233 Q 287 226 281 217 Q 250 180 196 143 Q 183 134 165 124 Q 149 114 133 104 Q 120 95 131 92 Q 212 86 327 199 Q 328 200 330 202 L 361 247 Q 406 322 421 385 Q 449 488 463 510 Q 473 526 458 537 Q 416 576 387 569 Q 374 565 378 550 Q 387 531 387 507 L 385 481 Q 384 469 382 455 Q 375 376 319 270 L 294 233 Z" fill="black" /></g></svg>