<?xml version='1.0' encoding='utf-8'?>
<svg xmlns="http://www.w3.org/2000/svg" version="1.1" viewBox="0 0 1024 1024"><g transform="scale(1, -1) translate(0, -900)"><path d="M 541 359 Q 531 182 549 123 Q 553 95 578 71 Q 671 -2 851 23 Q 864 26 880 29 Q 925 41 970 72 Q 991 87 977 115 Q 964 146 948 244 Q 948 260 941 266 Q 935 270 930 251 Q 900 149 880 117 Q 865 99 824 89 Q 728 68 644 105 Q 611 123 602 144 Q 571 210 590 374 L 596 420 Q 602 469 612 523 Q 618 542 605 554 Q 592 569 569 578 C 543 593 528 590 537 561 Q 549 549 550 475 Q 547 469 544 406 L 541 359 Z" fill="black" /></g></svg>