<?xml version='1.0' encoding='utf-8'?>
<svg xmlns="http://www.w3.org/2000/svg" version="1.1" viewBox="0 0 1024 1024"><g transform="scale(1, -1) translate(0, -900)"><path d="M 970 169 Q 958 202 947 300 Q 948 316 941 322 Q 935 326 929 308 Q 895 205 873 174 Q 857 155 807 142 Q 695 114 602 150 Q 566 166 557 189 Q 529 246 561 415 C 566 442 566 442 550 451 Q 540 460 523 466 Q 513 470 504 466 Q 498 462 503 446 Q 513 412 511 377 Q 501 217 514 172 Q 518 144 545 119 Q 635 46 828 74 Q 846 77 866 82 Q 915 95 962 128 Q 981 143 970 169 Z" fill="black" /></g></svg>