<?xml version='1.0' encoding='utf-8'?>
<svg xmlns="http://www.w3.org/2000/svg" version="1.1" viewBox="0 0 1024 1024"><g transform="scale(1, -1) translate(0, -900)"><path d="M 444 329 Q 456 359 478 388 Q 488 395 485 406 Q 479 422 440 453 Q 428 463 416 459 Q 403 456 410 439 Q 419 409 387 323 L 369 279 Q 353 243 335 219 Q 325 200 327 186 Q 330 176 349 171 Q 424 155 479 120 L 527 93 Q 591 54 683 -14 Q 711 -36 730 -35 Q 752 -34 753 -12 Q 752 10 720 59 Q 705 84 673 95 Q 612 120 561 140 L 511 158 Q 444 183 397 194 Q 375 198 387 219 Q 406 258 422 286 L 444 329 Z" fill="black" /></g></svg>