<?xml version='1.0' encoding='utf-8'?>
<svg xmlns="http://www.w3.org/2000/svg" version="1.1" viewBox="0 0 1024 1024"><g transform="scale(1, -1) translate(0, -900)"><path d="M 629 306 Q 758 322 922 305 Q 946 302 952 311 Q 959 324 947 336 Q 919 364 875 384 Q 860 390 834 382 Q 828 382 644 350 L 568 342 Q 472 335 444 329 L 387 323 Q 324 319 285 312 Q 210 302 98 300 Q 85 300 83 289 Q 82 276 101 262 Q 117 249 149 237 Q 159 233 177 241 Q 217 256 369 279 L 422 286 Q 471 295 569 300 L 629 306 Z" fill="black" /></g></svg>