<?xml version='1.0' encoding='utf-8'?>
<svg xmlns="http://www.w3.org/2000/svg" version="1.1" viewBox="0 0 1024 1024"><g transform="scale(1, -1) translate(0, -900)"><path d="M 315 628 Q 334 609 337 564 Q 334 516 315 493 Q 300 472 334 443 Q 344 434 358 446 Q 439 506 668 493 Q 678 493 692 491 Q 711 488 719 493 Q 725 497 720 508 Q 716 518 683 538 Q 665 548 644 544 Q 619 540 585 537 Q 488 530 394 510 Q 382 506 381 510 Q 377 513 378 522 Q 382 582 388 599 Q 392 612 381 622 Q 374 629 364 635 C 340 653 297 652 315 628 Z" fill="black" /></g></svg>