<?xml version='1.0' encoding='utf-8'?>
<svg xmlns="http://www.w3.org/2000/svg" version="1.1" viewBox="0 0 1024 1024"><g transform="scale(1, -1) translate(0, -900)"><path d="M 295 457 Q 325 557 350 658 Q 360 707 381 733 Q 394 755 387 769 Q 372 788 324 817 Q 303 830 286 822 Q 273 815 283 797 Q 316 748 249 447 L 236 399 Q 235 395 234 388 Q 221 333 194 292 Q 184 268 206 251 Q 258 223 302 187 L 341 155 Q 375 127 418 84 Q 434 69 445 67 Q 454 68 460 79 Q 467 91 461 123 Q 455 151 432 167 Q 411 180 371 203 L 327 226 Q 299 242 260 261 Q 239 271 241 292 Q 262 353 282 415 L 295 457 Z" fill="black" /></g></svg>