<?xml version='1.0' encoding='utf-8'?>
<svg xmlns="http://www.w3.org/2000/svg" version="1.1" viewBox="0 0 1024 1024"><g transform="scale(1, -1) translate(0, -900)"><path d="M 300 473 Q 322 557 340 642 Q 349 691 368 718 Q 380 742 372 755 Q 357 773 308 801 Q 286 813 269 803 Q 256 796 267 779 Q 300 733 253 464 L 243 418 Q 225 351 210 319 Q 200 297 221 279 Q 266 252 304 219 L 338 189 Q 371 161 413 114 Q 429 98 439 96 Q 448 96 455 108 Q 462 118 458 151 Q 452 188 370 234 L 330 256 Q 305 271 275 287 Q 253 299 256 321 Q 272 376 289 432 L 300 473 Z" fill="black" /></g></svg>