<?xml version='1.0' encoding='utf-8'?>
<svg xmlns="http://www.w3.org/2000/svg" version="1.1" viewBox="0 0 1024 1024"><g transform="scale(1, -1) translate(0, -900)"><path d="M 301 493 Q 323 562 345 632 Q 357 678 377 703 Q 390 724 384 737 Q 371 756 325 785 Q 306 798 289 791 Q 276 784 285 768 Q 312 726 253 484 L 240 438 Q 212 353 196 328 Q 186 306 207 288 Q 258 260 301 226 L 338 197 Q 372 170 416 129 Q 432 114 442 113 Q 451 113 456 124 Q 463 136 457 166 Q 450 202 369 242 L 326 264 Q 296 280 258 298 Q 239 308 240 326 Q 264 387 287 451 L 301 493 Z" fill="black" /></g></svg>