<?xml version='1.0' encoding='utf-8'?>
<svg xmlns="http://www.w3.org/2000/svg" version="1.1" viewBox="0 0 1024 1024"><g transform="scale(1, -1) translate(0, -900)"><path d="M 327 250 Q 357 225 396 186 Q 412 170 421 169 Q 430 169 436 180 Q 443 192 437 222 Q 431 250 409 264 Q 391 276 356 295 L 317 315 Q 295 328 266 341 Q 245 351 247 372 Q 263 421 278 471 L 290 512 Q 314 600 334 688 Q 343 736 361 761 Q 373 783 366 796 Q 353 814 305 840 Q 284 853 268 843 Q 255 836 265 820 Q 298 771 245 504 L 235 459 Q 235 426 203 371 Q 193 349 231 322 Q 264 303 293 278 L 327 250 Z" fill="black" /></g></svg>