<?xml version='1.0' encoding='utf-8'?>
<svg xmlns="http://www.w3.org/2000/svg" version="1.1" viewBox="0 0 1024 1024"><g transform="scale(1, -1) translate(0, -900)"><path d="M 723 412 Q 747 437 767 617 Q 779 672 814 706 Q 832 725 814 739 Q 795 755 740 777 Q 725 784 665 766 Q 644 766 561 741 Q 515 728 486 723 Q 470 722 467 716 Q 463 712 481 700 Q 515 684 536 693 Q 581 709 685 728 Q 703 729 710 727 Q 726 720 721 671 Q 703 490 691 453 Q 682 426 698 409 C 709 388 709 388 723 412 Z" fill="black" /></g></svg>