<?xml version='1.0' encoding='utf-8'?>
<svg xmlns="http://www.w3.org/2000/svg" version="1.1" viewBox="0 0 1024 1024"><g transform="scale(1, -1) translate(0, -900)"><path d="M 698 409 Q 652 403 585 389 Q 561 385 561 405 Q 564 567 580 605 Q 586 621 579 632 Q 563 648 539 659 Q 523 666 514 658 Q 507 654 515 642 Q 533 603 514 412 Q 510 396 506 378 Q 500 359 514 343 Q 533 327 552 339 Q 571 352 610 360 Q 691 379 776 385 Q 807 386 819 374 Q 829 362 816 321 Q 807 252 793 179 Q 784 124 758 87 Q 748 75 724 78 Q 690 87 662 94 Q 646 98 647 91 Q 647 85 656 78 Q 710 27 729 -8 Q 738 -27 756 -18 Q 820 18 834 88 Q 855 185 871 294 Q 878 330 898 360 Q 911 376 899 388 Q 883 409 847 430 Q 826 442 798 430 Q 762 417 729 413 Q 725 413 723 412 L 698 409 Z" fill="black" /></g></svg>