<?xml version='1.0' encoding='utf-8'?>
<svg xmlns="http://www.w3.org/2000/svg" version="1.1" viewBox="0 0 1024 1024"><g transform="scale(1, -1) translate(0, -900)"><path d="M 304 224 Q 294 212 284 198 Q 253 159 199 123 Q 186 114 169 105 Q 153 95 137 84 Q 124 75 135 72 Q 195 66 282 137 Q 319 165 343 196 L 375 247 Q 414 325 423 365 Q 442 455 464 490 Q 474 508 458 517 Q 416 556 387 549 Q 374 545 378 530 Q 385 515 386 499 L 386 469 Q 385 453 382 435 Q 376 360 330 266 L 304 224 Z" fill="black" /></g></svg>