<?xml version='1.0' encoding='utf-8'?>
<svg xmlns="http://www.w3.org/2000/svg" version="1.1" viewBox="0 0 1024 1024"><g transform="scale(1, -1) translate(0, -900)"><path d="M 354 214 Q 421 151 424 150 Q 433 150 439 161 Q 446 171 442 202 Q 436 238 386 265 L 344 290 Q 316 308 277 328 Q 256 338 259 360 Q 272 400 286 442 L 298 482 Q 323 572 345 664 Q 354 712 373 737 Q 385 759 378 771 Q 363 790 317 816 Q 296 829 280 820 Q 267 813 277 796 Q 313 742 253 473 L 243 431 Q 233 391 215 359 Q 205 337 225 320 Q 277 289 317 249 Q 318 249 319 247 L 354 214 Z" fill="black" /></g></svg>