<?xml version='1.0' encoding='utf-8'?>
<svg xmlns="http://www.w3.org/2000/svg" version="1.1" viewBox="0 0 1024 1024"><g transform="scale(1, -1) translate(0, -900)"><path d="M 331 200 Q 359 179 395 147 Q 411 134 420 134 Q 429 134 434 145 Q 440 155 432 185 Q 423 215 359 245 L 319 262 Q 295 272 265 285 Q 246 292 246 311 Q 268 377 287 444 L 298 483 Q 320 571 341 662 Q 350 708 367 732 Q 379 753 372 765 Q 359 781 314 808 Q 295 820 278 811 Q 266 804 276 789 Q 309 743 255 474 L 246 432 Q 242 417 239 402 Q 227 350 204 311 Q 195 289 216 272 Q 259 253 296 225 L 331 200 Z" fill="black" /></g></svg>