<?xml version='1.0' encoding='utf-8'?>
<svg xmlns="http://www.w3.org/2000/svg" version="1.1" viewBox="0 0 1024 1024"><g transform="scale(1, -1) translate(0, -900)"><path d="M 698 189 Q 735 250 770 340 Q 783 368 802 388 Q 821 404 808 418 Q 795 430 763 441 Q 738 448 711 434 Q 693 427 674 419 L 630 405 Q 587 395 526 385 Q 513 384 509 377 Q 505 370 523 363 Q 559 350 607 366 Q 680 393 694 392 Q 716 388 709 364 Q 690 283 659 225 L 632 185 Q 566 104 432 64 Q 417 60 430 51 Q 436 47 480 49 Q 579 58 664 145 L 698 189 Z" fill="black" /></g></svg>