<?xml version='1.0' encoding='utf-8'?>
<svg xmlns="http://www.w3.org/2000/svg" version="1.1" viewBox="0 0 1024 1024"><g transform="scale(1, -1) translate(0, -900)"><path d="M 296 225 Q 235 156 203 133 Q 196 130 189 124 Q 159 105 129 86 Q 116 79 127 75 Q 140 74 173 84 Q 227 103 269 138 Q 308 166 331 200 L 359 245 Q 398 323 405 347 Q 408 392 436 458 Q 440 473 449 485 Q 459 501 445 511 Q 402 547 379 540 Q 366 537 371 523 Q 375 513 378 500 L 379 471 Q 378 452 374 429 Q 362 338 319 262 L 296 225 Z" fill="black" /></g></svg>