<?xml version='1.0' encoding='utf-8'?>
<svg xmlns="http://www.w3.org/2000/svg" version="1.1" viewBox="0 0 1024 1024"><g transform="scale(1, -1) translate(0, -900)"><path d="M 472 242 Q 441 242 442 235 Q 435 219 462 206 Q 490 185 507 188 Q 522 188 543 201 Q 679 264 701 243 Q 708 230 694 211 Q 684 196 662 149 Q 625 77 609 65 Q 576 40 588 -11 Q 591 -30 600 -36 Q 609 -40 622 -30 Q 650 -12 729 164 Q 750 213 782 234 Q 791 241 792 251 Q 793 264 760 285 Q 726 307 710 308 Q 701 307 694 301 Q 598 259 472 242 Z" fill="black" /></g></svg>