<?xml version='1.0' encoding='utf-8'?>
<svg xmlns="http://www.w3.org/2000/svg" version="1.1" viewBox="0 0 1024 1024"><g transform="scale(1, -1) translate(0, -900)"><path d="M 245 451 Q 270 547 293 644 Q 302 692 321 717 Q 333 739 326 751 Q 311 770 265 796 Q 244 809 228 800 Q 215 793 225 776 Q 261 724 201 442 L 191 397 Q 190 394 190 389 Q 178 338 155 299 Q 145 277 166 260 Q 209 236 245 205 L 279 176 Q 309 151 347 110 Q 363 95 373 93 Q 382 94 387 104 Q 394 114 389 146 Q 383 180 308 221 L 269 242 Q 247 255 218 269 Q 197 279 199 300 Q 217 355 233 410 L 245 451 Z" fill="black" /></g></svg>