<?xml version='1.0' encoding='utf-8'?>
<svg xmlns="http://www.w3.org/2000/svg" version="1.1" viewBox="0 0 1024 1024"><g transform="scale(1, -1) translate(0, -900)"><path d="M 392 326 Q 350 323 282 315 Q 174 301 98 301 Q 85 301 83 290 Q 82 281 90 272 L 94 270 Q 137 229 177 242 Q 276 278 377 287 L 429 294 Q 500 303 595 310 L 660 314 Q 706 330 917 308 Q 963 308 967 312 Q 972 320 968 329 Q 966 333 962 337 Q 939 363 890 385 Q 880 390 864 387 Q 858 386 853 384 Q 841 381 670 357 L 598 349 Q 516 341 449 332 L 392 326 Z" fill="black" /></g></svg>