<?xml version='1.0' encoding='utf-8'?>
<svg xmlns="http://www.w3.org/2000/svg" version="1.1" viewBox="0 0 1024 1024"><g transform="scale(1, -1) translate(0, -900)"><path d="M 476 130 L 431 102 Q 367 67 237 40 Q 233 38 233 37 Q 223 33 239 27 Q 406 0 527 102 L 566 145 Q 568 151 574 155 Q 613 206 638 265 Q 655 306 660 314 C 673 341 678 350 670 357 Q 661 369 639 377 Q 618 390 604 388 Q 590 386 593 373 Q 598 350 598 349 L 595 310 Q 574 225 515 168 Q 514 167 514 165 L 476 130 Z" fill="black" /></g></svg>