<?xml version='1.0' encoding='utf-8'?>
<svg xmlns="http://www.w3.org/2000/svg" version="1.1" viewBox="0 0 1024 1024"><g transform="scale(1, -1) translate(0, -900)"><path d="M 667 177 Q 734 132 821 54 Q 839 38 849 37 Q 859 38 865 50 Q 872 63 864 96 Q 857 126 832 140 Q 792 168 696 217 L 654 238 Q 624 254 590 270 Q 568 280 569 301 Q 579 335 590 368 L 602 406 Q 633 512 659 624 Q 669 676 688 703 Q 701 727 694 741 Q 678 760 627 789 Q 605 802 587 793 Q 574 786 584 767 Q 624 713 557 401 L 546 360 Q 536 327 521 300 Q 511 275 534 257 Q 583 233 628 204 L 667 177 Z" fill="black" /></g></svg>