<?xml version='1.0' encoding='utf-8'?>
<svg xmlns="http://www.w3.org/2000/svg" version="1.1" viewBox="0 0 1024 1024"><g transform="scale(1, -1) translate(0, -900)"><path d="M 294 147 Q 319 119 349 79 Q 364 63 373 60 Q 382 59 389 69 Q 396 79 396 110 Q 393 146 325 194 L 288 220 Q 263 239 231 260 Q 210 273 215 296 Q 227 336 239 376 L 251 419 Q 279 528 303 641 Q 312 687 330 713 Q 342 735 334 748 Q 321 766 273 792 Q 252 804 236 795 Q 223 788 233 771 Q 272 717 209 409 L 198 362 Q 188 325 171 295 Q 161 274 179 257 Q 225 223 263 180 L 294 147 Z" fill="black" /></g></svg>