<?xml version='1.0' encoding='utf-8'?>
<svg xmlns="http://www.w3.org/2000/svg" version="1.1" viewBox="0 0 1024 1024"><g transform="scale(1, -1) translate(0, -900)"><path d="M 361 541 Q 306 534 265 520 Q 249 516 253 535 Q 257 584 263 636 Q 267 658 257 671 Q 244 687 221 699 Q 211 705 201 702 Q 191 698 199 681 Q 223 627 215 574 Q 209 522 188 500 Q 172 484 180 470 Q 190 457 207 448 Q 220 441 228 449 Q 255 488 341 502 Q 345 503 349 502 Q 355 505 361 507 C 389 518 391 545 361 541 Z" fill="black" /></g></svg>