<?xml version='1.0' encoding='utf-8'?>
<svg xmlns="http://www.w3.org/2000/svg" version="1.1" viewBox="0 0 1024 1024"><g transform="scale(1, -1) translate(0, -900)"><path d="M 604 515 Q 621 488 637 478 Q 645 472 655 480 Q 666 490 676 512 Q 689 538 719 647 Q 724 662 731 674 Q 738 686 757 705 Q 766 715 763 724 Q 758 743 698 780 Q 674 794 610 774 Q 589 772 517 759 Q 355 727 343 725 C 314 719 330 683 359 690 L 361 690 Q 459 717 610 739 Q 626 742 637 741 Q 670 736 666 708 Q 633 555 612 545 C 597 525 597 525 604 515 Z" fill="black" /></g></svg>