<?xml version='1.0' encoding='utf-8'?>
<svg xmlns="http://www.w3.org/2000/svg" version="1.1" viewBox="0 0 1024 1024"><g transform="scale(1, -1) translate(0, -900)"><path d="M 972 88 Q 987 103 969 130 Q 948 178 939 242 Q 938 252 930 260 Q 920 264 918 242 Q 890 137 889 135 Q 885 125 868 121 Q 840 112 802 117 Q 774 118 755 128 Q 719 144 712 202 Q 702 296 705 408 L 706 430 Q 713 622 734 652 Q 741 674 722 686 Q 695 711 659 719 Q 640 722 632 713 Q 625 704 632 695 Q 653 677 656 606 Q 656 225 672 164 Q 681 119 718 89 Q 776 44 905 57 Q 915 60 924 61 Q 958 71 972 88 Z" fill="black" /></g></svg>