<?xml version='1.0' encoding='utf-8'?>
<svg xmlns="http://www.w3.org/2000/svg" version="1.1" viewBox="0 0 1024 1024"><g transform="scale(1, -1) translate(0, -900)"><path d="M 335 196 Q 359 177 388 148 Q 404 135 414 133 Q 423 133 428 144 Q 435 156 429 186 Q 420 219 366 246 L 322 267 Q 297 280 262 295 Q 243 304 243 323 Q 262 381 281 439 L 293 479 Q 317 567 339 656 Q 349 704 368 728 Q 381 750 373 763 Q 360 781 313 809 Q 292 821 276 812 Q 263 805 273 789 Q 306 741 248 471 L 238 428 Q 235 421 234 411 Q 222 362 199 323 Q 189 301 211 283 Q 259 258 297 226 L 335 196 Z" fill="black" /></g></svg>