<?xml version='1.0' encoding='utf-8'?>
<svg xmlns="http://www.w3.org/2000/svg" version="1.1" viewBox="0 0 1024 1024"><g transform="scale(1, -1) translate(0, -900)"><path d="M 286 485 Q 308 564 327 644 Q 337 692 356 716 Q 368 738 361 751 Q 348 769 301 797 Q 282 809 264 801 Q 251 794 261 777 Q 294 729 239 476 L 228 429 Q 212 357 187 315 Q 177 293 199 275 Q 242 253 278 223 L 315 193 Q 339 174 368 144 Q 384 131 394 129 Q 403 129 408 140 Q 415 152 409 182 Q 400 215 346 242 L 301 263 Q 279 273 250 286 Q 231 296 232 315 Q 254 378 273 442 L 286 485 Z" fill="black" /></g></svg>