<?xml version='1.0' encoding='utf-8'?>
<svg xmlns="http://www.w3.org/2000/svg" version="1.1" viewBox="0 0 1024 1024"><g transform="scale(1, -1) translate(0, -900)"><path d="M 685 395 Q 691 389 739 383 Q 781 377 780 335 Q 779 326 776 311 Q 755 167 706 100 Q 696 87 681 82 Q 666 81 631 104 Q 595 128 590 122 Q 583 115 598 99 Q 638 48 643 9 Q 647 -9 658 -16 Q 671 -23 708 -3 Q 753 28 779 101 Q 795 153 814 225 Q 833 319 858 337 Q 870 343 872 352 Q 873 362 848 388 Q 803 427 762 417 Q 749 417 726 421 Q 713 424 702 426 C 673 432 657 405 685 395 Z" fill="black" /></g></svg>