<?xml version='1.0' encoding='utf-8'?>
<svg xmlns="http://www.w3.org/2000/svg" version="1.1" viewBox="0 0 1024 1024"><g transform="scale(1, -1) translate(0, -900)"><path d="M 277 199 Q 229 142 196 116 Q 193 115 190 111 Q 181 104 132 72 Q 119 63 131 60 Q 209 54 308 160 Q 311 166 316 170 L 347 220 Q 348 224 351 226 Q 372 262 405 387 Q 409 417 425 442 Q 435 460 419 470 Q 374 506 347 500 Q 332 496 338 480 Q 344 468 347 456 L 347 426 Q 346 413 345 396 Q 342 327 302 240 L 277 199 Z" fill="black" /></g></svg>