<?xml version='1.0' encoding='utf-8'?>
<svg xmlns="http://www.w3.org/2000/svg" version="1.1" viewBox="0 0 1024 1024"><g transform="scale(1, -1) translate(0, -900)"><path d="M 963 102 Q 945 142 931 213 Q 930 229 921 234 Q 914 238 910 218 Q 897 133 883 117 Q 859 87 753 87 Q 695 88 671 97 Q 649 107 644 123 Q 629 163 639 264 L 644 296 Q 648 333 660 354 Q 673 384 654 401 Q 605 440 588 436 Q 573 430 580 413 Q 599 376 594 320 Q 585 124 610 87 Q 631 56 703 43 Q 755 34 840 37 Q 916 38 946 54 Q 977 70 963 102 Z" fill="black" /></g></svg>