<?xml version='1.0' encoding='utf-8'?>
<svg xmlns="http://www.w3.org/2000/svg" version="1.1" viewBox="0 0 1024 1024"><g transform="scale(1, -1) translate(0, -900)"><path d="M 295 487 Q 316 560 334 632 Q 344 678 363 704 Q 376 726 369 738 Q 356 757 309 785 Q 290 797 272 789 Q 259 782 269 765 Q 299 720 247 478 L 237 431 Q 209 338 195 316 Q 185 294 206 276 Q 257 248 298 211 L 333 182 Q 360 160 392 126 Q 408 111 417 109 Q 426 110 432 121 Q 439 131 433 162 Q 429 190 406 204 Q 390 214 363 230 L 323 252 Q 295 268 258 285 Q 239 295 240 315 Q 262 379 282 444 L 295 487 Z" fill="black" /></g></svg>