<?xml version='1.0' encoding='utf-8'?>
<svg xmlns="http://www.w3.org/2000/svg" version="1.1" viewBox="0 0 1024 1024"><g transform="scale(1, -1) translate(0, -900)"><path d="M 317 164 Q 344 137 378 97 Q 393 81 403 79 Q 410 78 418 89 Q 425 99 423 130 Q 417 166 351 207 L 312 231 Q 290 246 261 262 Q 240 275 244 295 Q 262 347 280 403 L 292 444 Q 317 529 339 616 Q 349 664 367 688 Q 380 710 373 723 Q 360 741 313 769 Q 294 781 276 773 Q 263 766 273 749 Q 306 698 246 432 L 235 387 Q 234 384 234 380 Q 221 332 199 296 Q 189 274 208 257 Q 251 229 285 195 L 317 164 Z" fill="black" /></g></svg>