<?xml version='1.0' encoding='utf-8'?>
<svg xmlns="http://www.w3.org/2000/svg" version="1.1" viewBox="0 0 1024 1024"><g transform="scale(1, -1) translate(0, -900)"><path d="M 299 163 Q 327 141 360 108 Q 376 95 386 93 Q 395 93 400 104 Q 407 116 401 146 Q 392 177 331 210 L 288 231 Q 263 244 230 258 Q 211 268 211 288 Q 232 349 251 413 L 262 454 Q 284 539 305 624 Q 314 672 332 696 Q 345 718 338 731 Q 323 749 277 776 Q 256 789 240 780 Q 227 773 237 756 Q 270 707 217 446 L 207 401 Q 203 389 201 375 Q 189 326 167 287 Q 157 265 179 247 Q 225 223 263 192 L 299 163 Z" fill="black" /></g></svg>