<?xml version='1.0' encoding='utf-8'?>
<svg xmlns="http://www.w3.org/2000/svg" version="1.1" viewBox="0 0 1024 1024"><g transform="scale(1, -1) translate(0, -900)"><path d="M 536 99 Q 609 59 721 -24 Q 749 -45 766 -44 Q 788 -43 788 -22 Q 788 -1 757 46 Q 744 68 712 80 Q 633 114 569 138 L 518 156 Q 464 177 423 186 Q 401 190 413 211 Q 429 248 443 274 L 459 308 Q 477 350 494 375 Q 504 382 501 392 Q 495 407 458 434 C 434 452 419 457 425 428 Q 437 401 420 344 Q 414 323 407 303 L 394 269 Q 379 233 363 210 Q 353 191 356 178 Q 359 168 377 164 Q 429 152 484 124 L 536 99 Z" fill="black" /></g></svg>