<?xml version='1.0' encoding='utf-8'?>
<svg xmlns="http://www.w3.org/2000/svg" version="1.1" viewBox="0 0 1024 1024"><g transform="scale(1, -1) translate(0, -900)"><path d="M 656 457 Q 666 494 675 519 L 695 562 Q 708 584 722 596 Q 738 615 724 632 Q 654 689 591 658 Q 558 646 526 636 L 481 626 Q 414 613 344 605 Q 328 604 329 594 Q 332 585 350 579 Q 375 569 410 580 Q 444 587 481 594 L 525 602 Q 615 626 628 613 Q 638 603 636 579 Q 633 566 631 552 L 624 517 Q 617 486 608 457 C 599 428 648 428 656 457 Z" fill="black" /></g></svg>