<?xml version='1.0' encoding='utf-8'?>
<svg xmlns="http://www.w3.org/2000/svg" version="1.1" viewBox="0 0 1024 1024"><g transform="scale(1, -1) translate(0, -900)"><path d="M 526 636 Q 527 675 530 712 L 536 756 Q 537 766 539 775 Q 545 794 548 809 Q 552 819 533 834 Q 499 852 477 855 Q 461 859 454 850 Q 447 843 455 829 Q 479 795 478 771 Q 478 758 479 743 L 480 703 Q 481 666 481 626 L 481 594 Q 481 564 480 531 L 480 504 Q 479 470 477 431 C 476 401 515 408 516 438 Q 517 474 520 509 L 522 536 Q 523 570 525 602 L 526 636 Z" fill="black" /></g></svg>