<?xml version='1.0' encoding='utf-8'?>
<svg xmlns="http://www.w3.org/2000/svg" version="1.1" viewBox="0 0 1024 1024"><g transform="scale(1, -1) translate(0, -900)"><path d="M 279 221 Q 272 214 266 204 Q 238 170 187 135 Q 175 126 159 118 Q 143 108 129 98 Q 116 91 127 87 Q 199 81 310 191 Q 311 192 313 194 L 342 236 Q 346 246 354 255 Q 382 303 395 361 Q 414 448 434 478 Q 444 494 429 503 Q 386 539 363 532 Q 350 529 355 515 Q 362 499 363 481 L 361 451 Q 360 441 359 426 Q 350 336 302 256 L 279 221 Z" fill="black" /></g></svg>