<?xml version='1.0' encoding='utf-8'?>
<svg xmlns="http://www.w3.org/2000/svg" version="1.1" viewBox="0 0 1024 1024"><g transform="scale(1, -1) translate(0, -900)"><path d="M 667 424 Q 784 454 816 449 Q 829 449 835 437 Q 841 424 806 299 Q 802 283 786 286 Q 756 293 720 301 Q 693 308 713 284 Q 768 235 779 209 Q 786 196 800 198 Q 813 198 828 211 Q 858 247 874 318 Q 884 384 915 417 Q 931 436 919 449 Q 894 473 859 494 Q 847 503 771 482 Q 735 476 667 459 L 622 449 Q 517 427 512 426 Q 505 427 506 441 Q 515 510 526 530 Q 532 540 531 547 C 533 554 533 554 517 565 Q 504 578 482 587 Q 470 594 462 586 Q 455 580 463 563 Q 476 538 468 503 Q 455 439 438 415 Q 428 399 438 384 Q 448 359 462 352 Q 472 348 494 365 Q 513 384 569 402 Q 579 406 597 408 L 667 424 Z" fill="black" /></g></svg>