<?xml version='1.0' encoding='utf-8'?>
<svg xmlns="http://www.w3.org/2000/svg" version="1.1" viewBox="0 0 1024 1024"><g transform="scale(1, -1) translate(0, -900)"><path d="M 574 696 Q 559 709 538 718 Q 519 725 516 716 Q 512 707 519 699 Q 538 671 537 637 Q 530 541 513 452 L 505 413 Q 483 305 452 259 Q 409 211 424 190 Q 428 183 439 174 Q 455 161 475 178 Q 532 215 720 197 Q 732 197 744 194 L 800 186 Q 849 179 898 162 Q 914 155 926 160 Q 938 164 933 178 Q 927 196 909 209 Q 896 224 871 224 Q 852 224 807 228 L 753 233 Q 662 237 517 231 Q 496 230 503 254 Q 525 333 544 420 L 551 457 Q 570 554 583 661 C 586 688 586 688 574 696 Z" fill="black" /></g></svg>