<?xml version='1.0' encoding='utf-8'?>
<svg xmlns="http://www.w3.org/2000/svg" version="1.1" viewBox="0 0 1024 1024"><g transform="scale(1, -1) translate(0, -900)"><path d="M 313 194 Q 347 169 390 129 Q 406 116 415 114 Q 424 115 429 125 Q 435 135 429 165 Q 422 192 401 204 Q 382 217 342 236 L 302 256 Q 277 269 244 283 Q 225 292 227 310 Q 246 367 265 424 L 278 465 Q 306 559 329 654 Q 339 699 357 723 Q 370 744 363 756 Q 350 772 306 800 Q 287 813 271 804 Q 258 798 268 782 Q 301 731 235 456 L 224 412 Q 197 333 184 311 Q 175 289 195 273 Q 241 251 279 221 L 313 194 Z" fill="black" /></g></svg>