<?xml version='1.0' encoding='utf-8'?>
<svg xmlns="http://www.w3.org/2000/svg" version="1.1" viewBox="0 0 1024 1024"><g transform="scale(1, -1) translate(0, -900)"><path d="M 831 493 Q 835 637 848 666 Q 861 688 850 696 Q 843 708 787 742 Q 772 754 709 729 Q 636 708 574 696 C 545 690 553 657 583 661 Q 601 660 627 669 Q 745 702 763 689 Q 776 682 778 653 Q 779 560 777 484 L 776 445 Q 770 324 753 233 L 744 194 Q 722 92 690 67 Q 684 66 593 99 Q 580 102 584 90 Q 587 81 604 70 Q 656 25 682 -10 Q 710 -38 728 -19 Q 768 32 800 186 L 807 228 Q 819 297 829 445 L 831 493 Z" fill="black" /></g></svg>