<?xml version='1.0' encoding='utf-8'?>
<svg xmlns="http://www.w3.org/2000/svg" version="1.1" viewBox="0 0 1024 1024"><g transform="scale(1, -1) translate(0, -900)"><path d="M 293 197 Q 324 172 366 130 Q 381 117 390 115 Q 399 115 404 126 Q 411 136 405 166 Q 399 199 324 238 L 287 258 Q 262 271 232 286 Q 213 296 215 314 Q 242 386 267 460 L 280 500 Q 302 573 322 646 Q 332 691 352 714 Q 365 735 358 747 Q 345 765 302 793 Q 283 805 267 798 Q 254 791 264 775 Q 289 732 234 492 L 223 448 Q 216 426 211 402 Q 196 353 173 315 Q 163 293 183 277 Q 226 253 262 223 L 293 197 Z" fill="black" /></g></svg>