<?xml version='1.0' encoding='utf-8'?>
<svg xmlns="http://www.w3.org/2000/svg" version="1.1" viewBox="0 0 1024 1024"><g transform="scale(1, -1) translate(0, -900)"><path d="M 725 429 Q 764 433 811 434 L 858 436 Q 883 437 913 438 Q 976 438 983 447 Q 989 457 973 471 Q 921 510 859 492 Q 858 492 857 491 L 809 481 Q 769 475 726 466 L 679 458 Q 648 455 595 444 L 550 438 Q 511 434 472 427 L 425 420 Q 397 419 367 413 Q 348 410 362 395 Q 383 374 421 376 L 467 388 Q 507 398 550 405 L 595 413 Q 629 422 677 424 L 725 429 Z" fill="black" /></g></svg>