<?xml version='1.0' encoding='utf-8'?>
<svg xmlns="http://www.w3.org/2000/svg" version="1.1" viewBox="0 0 1024 1024"><g transform="scale(1, -1) translate(0, -900)"><path d="M 295 461 Q 320 558 344 656 Q 354 704 372 728 Q 385 750 377 763 Q 364 781 317 808 Q 296 821 280 812 Q 267 805 277 789 Q 311 738 251 452 L 240 406 Q 231 346 199 291 Q 189 269 211 251 Q 263 226 305 192 L 340 164 Q 365 145 397 115 Q 413 102 423 100 Q 432 101 437 112 Q 443 124 436 154 Q 427 187 372 213 L 331 233 Q 301 246 263 263 Q 242 272 243 292 Q 264 355 283 419 L 295 461 Z" fill="black" /></g></svg>