<?xml version='1.0' encoding='utf-8'?>
<svg xmlns="http://www.w3.org/2000/svg" version="1.1" viewBox="0 0 1024 1024"><g transform="scale(1, -1) translate(0, -900)"><path d="M 335 184 Q 426 121 429 119 Q 438 120 442 132 Q 448 144 439 174 Q 430 204 366 231 L 321 249 Q 293 261 255 274 Q 236 281 235 300 Q 253 355 270 410 L 282 450 Q 309 546 332 644 Q 342 692 360 716 Q 373 738 365 751 Q 352 769 305 797 Q 284 809 268 800 Q 255 793 265 777 Q 299 726 239 442 L 229 398 Q 202 320 191 299 Q 182 275 205 259 Q 254 238 296 210 L 335 184 Z" fill="black" /></g></svg>