<?xml version='1.0' encoding='utf-8'?>
<svg xmlns="http://www.w3.org/2000/svg" version="1.1" viewBox="0 0 1024 1024"><g transform="scale(1, -1) translate(0, -900)"><path d="M 342 149 Q 366 127 395 95 Q 411 79 420 78 Q 429 78 435 89 Q 442 99 438 130 Q 432 163 373 197 L 330 221 Q 305 236 273 252 Q 254 262 255 284 Q 274 342 292 401 L 304 439 Q 328 527 348 616 Q 358 664 376 688 Q 389 710 382 723 Q 367 742 321 769 Q 300 781 284 772 Q 271 765 281 749 Q 315 698 258 430 L 249 389 Q 240 331 211 283 Q 201 262 233 236 Q 272 212 306 181 L 342 149 Z" fill="black" /></g></svg>