<?xml version='1.0' encoding='utf-8'?>
<svg xmlns="http://www.w3.org/2000/svg" version="1.1" viewBox="0 0 1024 1024"><g transform="scale(1, -1) translate(0, -900)"><path d="M 645 381 Q 645 393 646 403 L 646 445 Q 646 494 647 550 L 648 599 Q 649 689 667 752 Q 676 768 673 781 Q 666 791 610 825 Q 586 841 565 826 Q 561 822 567 805 Q 601 754 603 702 Q 604 647 605 585 L 607 539 Q 606 488 604 434 L 601 308 Q 601 157 576 64 Q 564 25 591 -38 Q 598 -56 606 -59 Q 613 -66 620 -57 Q 627 -53 638 -32 Q 648 -7 646 25 Q 645 65 645 330 L 645 381 Z" fill="black" /></g></svg>