<?xml version='1.0' encoding='utf-8'?>
<svg xmlns="http://www.w3.org/2000/svg" version="1.1" viewBox="0 0 1024 1024"><g transform="scale(1, -1) translate(0, -900)"><path d="M 269 488 Q 293 579 314 672 Q 323 720 341 745 Q 353 767 346 780 Q 333 798 285 824 Q 264 837 248 827 Q 235 820 245 804 Q 278 755 225 480 L 215 434 Q 185 347 179 335 Q 169 313 189 296 Q 240 266 279 228 L 315 196 Q 384 132 388 130 Q 397 130 403 141 Q 410 151 406 182 Q 400 215 345 247 L 303 271 Q 276 286 241 304 Q 222 314 223 336 Q 241 391 257 447 L 269 488 Z" fill="black" /></g></svg>