<?xml version='1.0' encoding='utf-8'?>
<svg xmlns="http://www.w3.org/2000/svg" version="1.1" viewBox="0 0 1024 1024"><g transform="scale(1, -1) translate(0, -900)"><path d="M 253 480 Q 271 559 286 641 Q 292 684 308 708 Q 318 729 311 740 Q 298 756 254 779 Q 235 789 220 780 Q 210 773 219 759 Q 252 717 212 472 L 205 430 Q 198 369 172 321 Q 165 300 184 286 Q 224 264 258 236 L 292 209 Q 362 154 364 152 Q 371 152 377 162 Q 383 172 377 201 Q 370 231 319 255 L 279 274 Q 258 284 231 296 Q 212 305 213 323 Q 229 381 244 442 L 253 480 Z" fill="black" /></g></svg>