<?xml version='1.0' encoding='utf-8'?>
<svg xmlns="http://www.w3.org/2000/svg" version="1.1" viewBox="0 0 1024 1024"><g transform="scale(1, -1) translate(0, -900)"><path d="M 710 398 Q 710 593 746 714 Q 753 753 754 756 Q 750 763 743 768 Q 715 795 677 804 Q 658 808 650 799 Q 641 790 649 781 Q 662 768 670 745 Q 674 718 667 555 Q 643 138 699 75 Q 735 27 835 22 Q 943 10 985 50 Q 1004 65 987 96 Q 971 150 969 220 Q 970 230 962 239 Q 952 246 947 223 Q 902 97 882 87 Q 879 87 877 86 Q 808 70 757 96 Q 732 108 719 145 Q 704 196 709 376 L 710 398 Z" fill="black" /></g></svg>