<?xml version='1.0' encoding='utf-8'?>
<svg xmlns="http://www.w3.org/2000/svg" version="1.1" viewBox="0 0 1024 1024"><g transform="scale(1, -1) translate(0, -900)"><path d="M 318 210 Q 323 220 329 231 Q 357 282 378 370 Q 393 427 403.5 443 Q 414 459 398 468 Q 359 502 335 498 Q 321 496 323 483 Q 323 482 331 458 L 331 429 L 330 412 Q 327 341 298 269 L 278 229 L 254 190 Q 220 157 198 135 L 163 104 Q 116 74 104 67 Q 103 65 102 65 Q 94 57 104 55 Q 137 53 176 73 Q 220 95 289 164 L 318 210 Z" fill="black" /></g></svg>