<?xml version='1.0' encoding='utf-8'?>
<svg xmlns="http://www.w3.org/2000/svg" version="1.1" viewBox="0 0 1024 1024"><g transform="scale(1, -1) translate(0, -900)"><path d="M 545 496 Q 587 472 643 433 Q 659 423 668 422 Q 675 423 680 434 Q 684 444 675 472 Q 663 503 578 533 L 533 549 Q 505 561 464 573 Q 448 577 446 593 Q 459 621 472 650 L 485 682 Q 512 769 530 789 Q 542 808 536 820 Q 524 836 483 864 Q 465 877 450 869 Q 437 863 446 848 Q 467 815 434 676 L 426 645 Q 414 606 406 595 Q 397 573 419 557 Q 465 541 506 518 L 545 496 Z" fill="black" /></g></svg>