<?xml version='1.0' encoding='utf-8'?>
<svg xmlns="http://www.w3.org/2000/svg" version="1.1" viewBox="0 0 1024 1024"><g transform="scale(1, -1) translate(0, -900)"><path d="M 896 81 Q 883 105 861 181 Q 860 197 853 202 Q 846 205 842 187 Q 815 105 798 78 Q 788 66 756 57 Q 684 39 625 58 Q 603 68 597 81 Q 579 120 586 165 L 587 183 Q 591 234 602 293 Q 603 299 603 303 C 606 320 604 321 576 332 Q 570 336 563 338 Q 553 342 544 338 Q 538 334 543 318 Q 544 309 547 299 L 550 248 Q 543 104 554 64 Q 558 43 577 26 Q 658 -34 818 3 Q 855 13 890 38 Q 911 54 896 81 Z" fill="black" /></g></svg>