<?xml version='1.0' encoding='utf-8'?>
<svg xmlns="http://www.w3.org/2000/svg" version="1.1" viewBox="0 0 1024 1024"><g transform="scale(1, -1) translate(0, -900)"><path d="M 612 255 Q 618 280 622 308 L 626 336 Q 630 376 633 418 L 634 450 Q 635 490 638 527 L 640 557 Q 641 593 644 626 L 646 669 Q 646 708 671 782 Q 678 795 668 806 Q 646 824 609 835 Q 585 842 577 835 Q 568 828 575 816 Q 597 782 599 737 Q 600 698 600 658 L 600 617 Q 599 581 597 545 L 596 517 Q 593 480 590 440 L 587 410 Q 583 370 576 326 L 570 298 Q 543 187 485 103 Q 443 55 379 6 Q 369 -1 368 -6 Q 369 -10 381 -9 Q 396 -13 434 6 Q 557 54 606 227 L 612 255 Z" fill="black" /></g></svg>