<?xml version='1.0' encoding='utf-8'?>
<svg xmlns="http://www.w3.org/2000/svg" version="1.1" viewBox="0 0 1024 1024"><g transform="scale(1, -1) translate(0, -900)"><path d="M 384 89 Q 386 89 388 90 Q 404 97 401 124 Q 400 138 398 145 Q 387 178 318 210 L 278 229 L 227 252 Q 208 261 208 280 L 245 404 L 255 443 L 263 474 L 301 639 Q 310 670 321 688 Q 335 710 327 723 Q 318 739 267 766 Q 247 777 232 772 Q 218 766 221 755 Q 225 749 229 741 Q 255 672 209 433 L 201 392 Q 199 385 196 368 Q 190 337 180 312 L 164 278 Q 157 265 165 253 Q 170 243 185 235 Q 225 213 254 190 L 289 164 Q 306 151 351 110 Q 374 89 384 89 Z" fill="black" /></g></svg>