<?xml version='1.0' encoding='utf-8'?>
<svg xmlns="http://www.w3.org/2000/svg" version="1.1" viewBox="0 0 1024 1024"><g transform="scale(1, -1) translate(0, -900)"><path d="M 278 462 Q 300 553 319 647 Q 326 692 344 716 Q 356 738 348 749 Q 335 767 289 792 Q 270 802 254 794 Q 242 787 252 772 Q 282 730 236 453 L 228 414 Q 212 333 188 290 Q 179 268 199 253 Q 239 231 272 204 L 305 177 Q 389 108 391 106 Q 398 107 404 117 Q 411 127 405 157 Q 398 190 334 221 L 294 241 Q 273 251 248 263 Q 229 272 230 291 Q 249 358 268 426 L 278 462 Z" fill="black" /></g></svg>