<?xml version='1.0' encoding='utf-8'?>
<svg xmlns="http://www.w3.org/2000/svg" version="1.1" viewBox="0 0 1024 1024"><g transform="scale(1, -1) translate(0, -900)"><path d="M 260 422 Q 285 512 308 604 Q 318 652 336 676 Q 349 698 342 711 Q 327 729 281 756 Q 260 769 244 760 Q 231 753 241 737 Q 274 688 217 414 L 206 369 Q 194 326 175 291 Q 166 269 188 251 Q 236 229 277 198 L 316 169 Q 401 102 407 100 Q 416 101 421 112 Q 428 124 420 154 Q 411 187 346 217 L 301 237 Q 274 250 239 264 Q 220 273 219 292 Q 234 337 248 381 L 260 422 Z" fill="black" /></g></svg>