<?xml version='1.0' encoding='utf-8'?>
<svg xmlns="http://www.w3.org/2000/svg" version="1.1" viewBox="0 0 1024 1024"><g transform="scale(1, -1) translate(0, -900)"><path d="M 336 53 Q 367 31 408 -5 Q 421 -17 430 -17 Q 437 -17 442 -7 Q 446 2 441 27 Q 435 49 416 60 Q 400 70 367 87 L 325 107 Q 297 122 259 138 Q 244 145 244 159 Q 260 198 277 238 L 292 276 Q 323 373 342 394 Q 352 412 348 422 Q 338 438 301 463 Q 285 475 271 469 Q 261 463 267 450 Q 285 414 248 269 L 236 228 Q 212 168 208 162 Q 199 143 217 128 Q 262 106 300 79 L 336 53 Z" fill="black" /></g></svg>