<?xml version='1.0' encoding='utf-8'?>
<svg xmlns="http://www.w3.org/2000/svg" version="1.1" viewBox="0 0 1024 1024"><g transform="scale(1, -1) translate(0, -900)"><path d="M 519 662 Q 515 665 510 669 Q 468 698 455 693 Q 445 690 447 677 L 451 667 Q 469 631 469 566 Q 479 134 425 52 Q 416 37 423 16 Q 431 -6 443 -18 Q 453 -26 472 -12 Q 508 12 549 26 Q 653 63 892 63 Q 918 63 918 75 Q 918 92 887 112 Q 875 123 847 121 L 835 119 Q 757 105 698 96 L 651 92 Q 592 88 531 74 Q 506 67 506 94 L 512 259 L 514 291 Q 514 365 517 429 L 517 460 Q 521 613 527 632 C 530 655 530 655 519 662 Z" fill="black" /></g></svg>