<?xml version='1.0' encoding='utf-8'?>
<svg xmlns="http://www.w3.org/2000/svg" version="1.1" viewBox="0 0 1024 1024"><g transform="scale(1, -1) translate(0, -900)"><path d="M 301 473 Q 322 552 341 632 Q 350 680 368 704 Q 381 726 374 739 Q 359 757 313 784 Q 292 797 276 788 Q 263 781 273 764 Q 303 719 255 463 L 245 418 Q 218 322 203 295 Q 193 273 213 256 Q 255 231 291 198 L 325 166 Q 355 139 391 100 Q 406 84 416 82 Q 423 82 431 93 Q 438 103 434 134 Q 428 168 354 212 L 315 235 Q 293 248 265 263 Q 244 275 247 296 Q 269 363 289 431 L 301 473 Z" fill="black" /></g></svg>