<?xml version='1.0' encoding='utf-8'?>
<svg xmlns="http://www.w3.org/2000/svg" version="1.1" viewBox="0 0 1024 1024"><g transform="scale(1, -1) translate(0, -900)"><path d="M 622 308 Q 769 335 798 331 Q 808 330 813 321 Q 819 308 794 249 Q 790 236 775 238 Q 753 242 726 249 Q 704 256 719 235 Q 761 193 768 173 Q 774 163 785 164 Q 795 163 809 174 Q 821 184 850 246 Q 863 285 880 301 Q 895 317 885 328 Q 864 349 835 368 Q 825 375 754 359 Q 706 353 626 336 L 576 326 Q 537 319 511 311 Q 490 307 479 306 Q 473 307 474 318 Q 487 369 498 383 Q 501 387 503 392 C 510 404 510 404 486 421 Q 477 428 467 435 Q 458 442 449 437 Q 442 433 448 417 Q 455 395 446 366 Q 430 320 414 303 Q 404 290 412 276 Q 419 254 430 248 Q 437 244 458 256 Q 497 287 570 298 L 622 308 Z" fill="black" /></g></svg>