<?xml version='1.0' encoding='utf-8'?>
<svg xmlns="http://www.w3.org/2000/svg" version="1.1" viewBox="0 0 1024 1024"><g transform="scale(1, -1) translate(0, -900)"><path d="M 283 458 L 333 634 Q 343 683 364 708 Q 377 730 370 744 Q 357 763 308 793 Q 287 806 270 798 Q 257 791 266 774 Q 297 725 235 450 L 224 404 Q 214 352 183 300 Q 173 275 196 258 Q 245 236 287 203 L 325 176 Q 353 155 387 125 Q 405 112 415 110 Q 424 111 430 123 Q 436 135 428 167 Q 419 201 357 227 L 313 246 Q 285 258 249 272 Q 228 279 229 300 Q 250 358 269 416 L 283 458 Z" fill="black" /></g></svg>