<?xml version='1.0' encoding='utf-8'?>
<svg xmlns="http://www.w3.org/2000/svg" version="1.1" viewBox="0 0 1024 1024"><g transform="scale(1, -1) translate(0, -900)"><path d="M 279 475 Q 300 547 318 620 Q 328 666 347 692 Q 360 714 353 726 Q 340 745 293 773 Q 274 786 256 777 Q 243 770 253 753 Q 283 708 231 465 L 220 417 Q 211 369 183 320 Q 173 296 195 279 Q 240 257 276 226 L 313 197 Q 340 176 372 144 Q 388 131 398 129 Q 407 129 412 140 Q 419 152 413 182 Q 404 215 342 246 L 300 266 Q 276 278 246 291 Q 227 300 228 319 Q 247 376 266 433 L 279 475 Z" fill="black" /></g></svg>