<?xml version='1.0' encoding='utf-8'?>
<svg xmlns="http://www.w3.org/2000/svg" version="1.1" viewBox="0 0 1024 1024"><g transform="scale(1, -1) translate(0, -900)"><path d="M 960 85 Q 947 113 928 198 Q 928 214 921 218 Q 915 221 911 204 Q 889 113 872 84 Q 842 56 758 58 Q 724 59 699 69 Q 677 79 670 94 Q 649 139 679 283 Q 685 310 645 328 C 619 343 610 348 615 323 Q 614 319 617 310 Q 629 273 625 238 Q 615 112 625 77 Q 628 56 647 39 Q 726 -21 877 13 Q 880 14 883 14 Q 920 24 955 47 Q 971 62 960 85 Z" fill="black" /></g></svg>