<?xml version='1.0' encoding='utf-8'?>
<svg xmlns="http://www.w3.org/2000/svg" version="1.1" viewBox="0 0 1024 1024"><g transform="scale(1, -1) translate(0, -900)"><path d="M 362 255 Q 347 221 333 197 Q 326 181 328 171 Q 329 162 345 160 Q 387 147 425 117 L 459 92 Q 483 73 514 45 Q 535 26 550 27 Q 568 27 568 44 Q 569 60 545 100 Q 533 121 493 137 L 452 153 Q 410 171 383 176 Q 364 180 374 199 Q 390 238 402 266 L 416 298 Q 431 337 444 356 Q 451 363 449 370 Q 445 380 421 397 C 397 415 381 422 388 393 L 389 392 Q 398 368 374 291 L 362 255 Z" fill="black" /></g></svg>