<?xml version='1.0' encoding='utf-8'?>
<svg xmlns="http://www.w3.org/2000/svg" version="1.1" viewBox="0 0 1024 1024"><g transform="scale(1, -1) translate(0, -900)"><path d="M 258 476 Q 283 564 304 654 Q 313 700 331 723 Q 343 744 336 756 Q 323 774 278 800 Q 259 812 242 803 Q 230 796 240 781 Q 273 733 215 466 L 203 416 Q 202 413 202 409 Q 190 360 168 323 Q 159 301 179 285 Q 222 263 259 234 L 295 207 Q 326 183 366 145 Q 382 132 391 130 Q 400 131 405 141 Q 411 151 405 181 Q 396 217 323 250 L 283 269 Q 258 281 228 295 Q 209 304 210 323 Q 228 377 245 431 L 258 476 Z" fill="black" /></g></svg>