<?xml version='1.0' encoding='utf-8'?>
<svg xmlns="http://www.w3.org/2000/svg" version="1.1" viewBox="0 0 1024 1024"><g transform="scale(1, -1) translate(0, -900)"><path d="M 645 261 Q 760 273 897 253 Q 921 249 927 258 Q 934 271 923 283 Q 895 311 851 332 Q 838 339 811 331 Q 709 313 490 295 Q 487 295 485 294 L 431 290 Q 349 286 303 279 Q 234 270 131 272 Q 118 273 116 262 Q 115 249 133 234 Q 149 221 180 209 Q 190 205 209 212 Q 281 233 415 245 L 461 249 Q 480 252 574 257 L 645 261 Z" fill="black" /></g></svg>