<?xml version='1.0' encoding='utf-8'?>
<svg xmlns="http://www.w3.org/2000/svg" version="1.1" viewBox="0 0 1024 1024"><g transform="scale(1, -1) translate(0, -900)"><path d="M 301 185 Q 326 166 356 136 Q 372 121 382 121 Q 391 121 397 132 Q 403 144 397 174 Q 388 207 333 233 L 289 254 Q 265 266 234 279 Q 215 288 216 307 Q 237 367 256 428 L 268 468 Q 292 553 314 640 Q 324 686 343 712 Q 356 734 349 746 Q 336 765 289 793 Q 270 805 252 797 Q 239 790 249 773 Q 280 727 222 459 L 212 415 Q 191 343 171 308 Q 161 284 183 267 Q 226 245 264 215 L 301 185 Z" fill="black" /></g></svg>