<?xml version='1.0' encoding='utf-8'?>
<svg xmlns="http://www.w3.org/2000/svg" version="1.1" viewBox="0 0 1024 1024"><g transform="scale(1, -1) translate(0, -900)"><path d="M 264 453 Q 286 538 307 628 Q 316 676 334 701 Q 346 723 338 736 Q 325 754 277 780 Q 256 792 240 783 Q 227 776 237 760 Q 273 709 219 444 L 209 399 Q 199 362 183 331 Q 173 309 195 292 Q 244 265 285 231 L 323 201 Q 350 179 384 145 Q 400 130 410 129 Q 419 129 424 140 Q 431 152 425 182 Q 418 218 353 248 L 308 271 Q 281 286 246 302 Q 225 312 227 332 Q 240 372 252 413 L 264 453 Z" fill="black" /></g></svg>