<?xml version='1.0' encoding='utf-8'?>
<svg xmlns="http://www.w3.org/2000/svg" version="1.1" viewBox="0 0 1024 1024"><g transform="scale(1, -1) translate(0, -900)"><path d="M 282 438 Q 306 526 326 616 Q 335 664 353 689 Q 365 711 358 724 Q 343 742 297 768 Q 276 781 260 771 Q 247 764 257 748 Q 290 699 237 428 L 227 382 Q 218 331 195 295 Q 183 270 232 241 Q 265 222 294 198 L 330 169 Q 355 150 384 120 Q 400 107 410 105 Q 419 105 424 116 Q 431 128 425 158 Q 416 192 360 219 L 319 239 Q 292 252 258 267 Q 239 276 239 296 Q 255 345 270 397 L 282 438 Z" fill="black" /></g></svg>