<?xml version='1.0' encoding='utf-8'?>
<svg xmlns="http://www.w3.org/2000/svg" version="1.1" viewBox="0 0 1024 1024"><g transform="scale(1, -1) translate(0, -900)"><path d="M 485 294 Q 506 328 506 330 Q 502 343 466 371 Q 456 380 446 377 Q 434 374 440 359 Q 446 340 431 290 L 415 245 Q 396 202 377 176 Q 367 160 370 147 Q 373 137 389 134 Q 464 118 497 93 L 541 69 Q 602 35 686 -29 Q 711 -48 728 -47 Q 747 -46 747 -27 Q 747 -8 718 34 Q 705 59 571 108 L 525 125 Q 470 146 431 154 Q 412 158 422 176 Q 446 222 461 249 L 485 294 Z" fill="black" /></g></svg>