<?xml version='1.0' encoding='utf-8'?>
<svg xmlns="http://www.w3.org/2000/svg" version="1.1" viewBox="0 0 1024 1024"><g transform="scale(1, -1) translate(0, -900)"><path d="M 662 486 Q 774 374 861 372 Q 883 376 875 405 Q 865 432 852 557 Q 851 567 846 569 Q 842 569 840 557 Q 831 527 823 499 Q 813 460 800 460 Q 770 459 705 513 L 674 545 Q 643 579 614 620 L 592 660 Q 561 726 568 771 Q 569 790 532 804 Q 495 819 484 814 Q 474 807 480 792 Q 505 771 519 730 Q 535 684 554 643 L 574 603 Q 616 540 636 516 L 662 486 Z" fill="black" /></g></svg>