<?xml version='1.0' encoding='utf-8'?>
<svg xmlns="http://www.w3.org/2000/svg" version="1.1" viewBox="0 0 1024 1024"><g transform="scale(1, -1) translate(0, -900)"><path d="M 304 565 Q 291 578 268 587 Q 249 599 236 594 Q 224 587 231 573 Q 249 537 245 499 Q 244 486 243 468 Q 230 236 131 77 Q 112 43 91 10 Q 87 4 84 -2 Q 81 -12 92 -11 Q 125 -5 201 113 Q 210 131 220 148 Q 244 200 262 260 L 268 282 Q 289 364 305 497 Q 308 513 312 529 Q 312 530 313 531 C 319 554 319 554 304 565 Z" fill="black" /></g></svg>