<?xml version='1.0' encoding='utf-8'?>
<svg xmlns="http://www.w3.org/2000/svg" version="1.1" viewBox="0 0 1024 1024"><g transform="scale(1, -1) translate(0, -900)"><path d="M 465 285 Q 469 306 493 334 Q 503 341 500 352 Q 496 365 457 396 Q 445 406 434 403 Q 421 399 428 383 Q 437 359 428 335 Q 418 307 409 280 L 390 234 Q 374 198 356 174 Q 346 156 348 143 Q 351 133 368 128 Q 456 106 479 83 L 531 54 Q 597 14 688 -59 Q 715 -81 733 -80 Q 755 -79 755 -59 Q 755 -37 725 10 Q 712 34 682 46 Q 618 74 565 96 L 511 117 Q 456 139 415 149 Q 394 153 406 174 Q 425 214 441 241 L 465 285 Z" fill="black" /></g></svg>