<?xml version='1.0' encoding='utf-8'?>
<svg xmlns="http://www.w3.org/2000/svg" version="1.1" viewBox="0 0 1024 1024"><g transform="scale(1, -1) translate(0, -900)"><path d="M 285 260 Q 233 187 185 152 Q 181 151 178 147 Q 133 122 125 113 Q 122 107 133 105 Q 167 99 239 146 Q 297 188 319 229 L 347 281 Q 351 294 358 306 Q 386 370 412 472 Q 419 490 424 499 Q 433 517 416 530 Q 379 561 364 562 Q 345 562 355 539 Q 359 527 360 512 L 358 483 L 358 481 Q 349 393 307 303 L 285 260 Z" fill="black" /></g></svg>