<?xml version='1.0' encoding='utf-8'?>
<svg xmlns="http://www.w3.org/2000/svg" version="1.1" viewBox="0 0 1024 1024"><g transform="scale(1, -1) translate(0, -900)"><path d="M 763 390 Q 778 368 793 361 Q 803 352 819 375 Q 835 403 869 558 Q 878 589 902 614 Q 915 627 904 641 Q 888 659 845 686 Q 826 696 765 680 Q 734 679 602 653 Q 547 643 501 636 C 471 631 491 595 520 603 Q 519 604 522 604 Q 561 614 613 624 L 662 631 Q 786 656 805 639 Q 820 621 816 604 Q 791 459 778 437 Q 774 427 762 422 C 747 409 747 409 763 390 Z" fill="black" /></g></svg>