<?xml version='1.0' encoding='utf-8'?>
<svg xmlns="http://www.w3.org/2000/svg" version="1.1" viewBox="0 0 1024 1024"><g transform="scale(1, -1) translate(0, -900)"><path d="M 274 449 Q 301 545 324 644 Q 334 692 352 716 Q 365 738 358 751 Q 343 770 297 797 Q 276 809 260 800 Q 247 793 257 777 Q 293 723 230 440 L 219 392 Q 207 347 187 311 Q 177 289 197 272 Q 243 244 279 208 L 315 175 Q 337 154 363 124 Q 378 108 388 106 Q 395 106 403 117 Q 410 127 406 158 Q 400 191 348 223 L 304 249 Q 279 262 249 279 Q 228 291 231 312 Q 247 358 261 406 L 274 449 Z" fill="black" /></g></svg>