<?xml version='1.0' encoding='utf-8'?>
<svg xmlns="http://www.w3.org/2000/svg" version="1.1" viewBox="0 0 1024 1024"><g transform="scale(1, -1) translate(0, -900)"><path d="M 264 442 Q 286 539 306 641 Q 313 689 331 714 Q 343 736 335 749 Q 320 765 272 792 Q 251 802 235 794 Q 223 787 234 770 Q 273 716 221 432 L 211 385 Q 201 339 182 302 Q 173 280 193 264 Q 235 239 270 208 L 304 178 Q 332 153 367 115 Q 383 99 392 98 Q 401 98 407 109 Q 414 119 410 150 Q 404 183 334 223 L 294 246 Q 272 259 245 272 Q 224 284 227 305 Q 240 351 253 399 L 264 442 Z" fill="black" /></g></svg>