<?xml version='1.0' encoding='utf-8'?>
<svg xmlns="http://www.w3.org/2000/svg" version="1.1" viewBox="0 0 1024 1024"><g transform="scale(1, -1) translate(0, -900)"><path d="M 736 625 Q 746 626 763 634 Q 791 644 815 653 Q 819 657 831 650 Q 843 643 835 620 Q 805 530 799 519 Q 793 504 794 497 Q 794 485 814 479 Q 904 407 912 315 Q 912 293 897 278 Q 882 271 856 278 Q 816 290 782 298 Q 775 301 775 293 Q 776 286 790 275 Q 860 233 879 201 Q 886 188 898 185 Q 908 184 924 194 Q 964 240 968 298 Q 974 391 855 489 Q 821 507 868 575 Q 892 618 919 634 Q 947 650 922 668 Q 885 696 864 706 Q 848 712 832 702 Q 817 689 735 658 Q 734 658 734 657 C 706 646 707 616 736 625 Z" fill="black" /></g></svg>