<?xml version='1.0' encoding='utf-8'?>
<svg xmlns="http://www.w3.org/2000/svg" version="1.1" viewBox="0 0 1024 1024"><g transform="scale(1, -1) translate(0, -900)"><path d="M 339 208 Q 330 224 277 255 L 242 274 Q 223 286 198 298 Q 179 308 181 327 Q 200 393 218 460 L 228 499 Q 273 709 283 721 Q 296 749 291 759 Q 278 775 234 799 Q 215 809 200 801 Q 190 794 199 780 Q 229 738 186 488 L 178 445 Q 162 364 140 325 Q 131 306 150 290 Q 189 268 220 239 L 250 213 Q 275 191 307 156 Q 320 143 330 141 Q 337 141 343 151 Q 350 161 346 189 Q 345 193 343 197 L 339 208 Z" fill="black" /></g></svg>