<?xml version='1.0' encoding='utf-8'?>
<svg xmlns="http://www.w3.org/2000/svg" version="1.1" viewBox="0 0 1024 1024"><g transform="scale(1, -1) translate(0, -900)"><path d="M 468 624 Q 543 648 559 639 Q 572 630 572 589 Q 573 408 557 320 Q 547 245 535 220 Q 528 207 512 212 Q 454 225 456 229 Q 432 236 451 215 Q 484 184 508 150 Q 529 128 544 139 Q 601 181 613 325 Q 616 386 615 451 Q 612 602 626 623 Q 641 642 629 652 Q 610 668 578 677 Q 563 683 498 660 Q 446 645 393 639 Q 375 639 386 628 Q 401 613 435 616 L 468 624 Z" fill="black" /></g></svg>