<?xml version='1.0' encoding='utf-8'?>
<svg xmlns="http://www.w3.org/2000/svg" version="1.1" viewBox="0 0 1024 1024"><g transform="scale(1, -1) translate(0, -900)"><path d="M 288 464 Q 310 552 330 643 Q 339 688 356 712 Q 366 733 360 745 Q 347 763 301 788 Q 282 798 266 790 Q 254 783 264 768 Q 297 726 246 455 L 236 408 Q 224 345 200 302 Q 191 280 211 265 Q 257 241 295 210 L 332 180 Q 360 158 394 125 Q 410 112 419 110 Q 426 111 433 121 Q 439 131 433 162 Q 426 193 359 227 L 318 247 Q 293 260 260 275 Q 241 284 242 303 Q 260 361 277 422 L 288 464 Z" fill="black" /></g></svg>