<?xml version='1.0' encoding='utf-8'?>
<svg xmlns="http://www.w3.org/2000/svg" version="1.1" viewBox="0 0 1024 1024"><g transform="scale(1, -1) translate(0, -900)"><path d="M 733 228 Q 761 146 800 91 Q 846 18 888 -20 Q 919 -47 936 -48 Q 951 -51 961 -37 Q 970 -27 962 22 Q 953 70 957 153 Q 961 184 951 187 Q 942 188 932 160 Q 905 79 888 89 Q 831 126 772 273 L 753 328 Q 723 436 714 491 L 707 531 Q 677 714 687 790 Q 702 829 679 847 Q 672 851 664 857 Q 642 873 626 876 Q 611 876 611 875 Q 586 871 606 844 Q 618 832 635 723 Q 642 620 659 512 L 666 476 Q 676 394 717 273 L 733 228 Z" fill="black" /></g></svg>