<?xml version='1.0' encoding='utf-8'?>
<svg xmlns="http://www.w3.org/2000/svg" version="1.1" viewBox="0 0 1024 1024"><g transform="scale(1, -1) translate(0, -900)"><path d="M 276 477 Q 304 580 326 684 Q 335 732 353 757 Q 365 779 358 792 Q 343 810 297 836 Q 276 849 260 839 Q 247 832 257 816 Q 293 764 233 467 L 222 421 Q 222 387 187 323 Q 178 302 210 277 Q 249 253 285 224 L 321 193 Q 352 166 391 126 Q 407 111 417 109 Q 426 110 432 121 Q 439 131 433 162 Q 427 198 351 238 L 309 262 Q 282 277 250 293 Q 229 303 231 324 Q 249 379 265 436 L 276 477 Z" fill="black" /></g></svg>