<?xml version='1.0' encoding='utf-8'?>
<svg xmlns="http://www.w3.org/2000/svg" version="1.1" viewBox="0 0 1024 1024"><g transform="scale(1, -1) translate(0, -900)"><path d="M 654 344 Q 706 354 781 363 Q 824 370 842 367 Q 854 366 859 355 Q 863 343 826 236 Q 822 223 809 226 Q 785 233 755 243 Q 730 253 746 228 Q 788 179 795 155 Q 801 142 814 142 Q 826 141 842 151 Q 866 175 889 238 Q 905 307 933 332 Q 949 350 939 362 Q 917 386 884 407 Q 871 417 810 402 Q 747 393 655 375 L 609 367 Q 606 367 606 365 Q 602 366 596 364 Q 559 358 533 350 Q 505 346 491 346 Q 484 347 487 361 Q 497 419 507 435 L 507 436 C 515 458 515 458 504 466 Q 489 479 468 491 Q 458 498 448 491 Q 441 487 449 470 Q 459 446 451 412 Q 436 360 421 339 Q 411 324 420 309 Q 429 285 441 279 Q 451 275 472 290 Q 512 323 581 332 L 654 344 Z" fill="black" /></g></svg>