<?xml version='1.0' encoding='utf-8'?>
<svg xmlns="http://www.w3.org/2000/svg" version="1.1" viewBox="0 0 1024 1024"><g transform="scale(1, -1) translate(0, -900)"><path d="M 509 447 Q 515 474 538 626 Q 542 657 549 669 C 554 682 554 682 542 691 Q 527 704 505 716 Q 487 726 475 722 Q 465 715 470 703 Q 488 669 482 597 Q 481 593 481 588 Q 463 393 395 247 L 386 229 Q 367 198 348 164 Q 326 127 303 92 Q 299 86 296 81 Q 293 71 303 73 Q 337 80 409 188 Q 425 215 441 244 Q 474 313 504 423 L 509 447 Z" fill="black" /></g></svg>