<?xml version='1.0' encoding='utf-8'?>
<svg xmlns="http://www.w3.org/2000/svg" version="1.1" viewBox="0 0 1024 1024"><g transform="scale(1, -1) translate(0, -900)"><path d="M 348 323 Q 378 377 392 437 Q 413 530 430 558 Q 440 574 425 583 Q 382 619 359 612 Q 346 608 351 594 Q 358 578 360 560 L 358 533 Q 346 431 307 342 L 284 303 Q 272 288 261 272 Q 231 235 179 200 Q 167 191 150 182 Q 135 172 120 162 Q 108 155 119 151 Q 132 150 165 161 Q 217 180 258 215 Q 295 243 319 275 L 348 323 Z" fill="black" /></g></svg>