<?xml version='1.0' encoding='utf-8'?>
<svg xmlns="http://www.w3.org/2000/svg" version="1.1" viewBox="0 0 1024 1024"><g transform="scale(1, -1) translate(0, -900)"><path d="M 259 469 Q 281 550 299 632 Q 308 680 326 705 Q 338 727 330 740 Q 317 758 269 784 Q 248 796 232 787 Q 219 780 229 764 Q 262 716 214 461 L 205 419 Q 204 418 204 414 Q 194 369 175 335 Q 165 313 186 296 Q 234 268 271 233 L 304 205 Q 371 142 377 141 Q 386 142 392 153 Q 399 163 393 194 Q 387 227 335 255 L 296 276 Q 271 289 238 305 Q 217 315 219 336 Q 234 382 248 431 L 259 469 Z" fill="black" /></g></svg>