<?xml version='1.0' encoding='utf-8'?>
<svg xmlns="http://www.w3.org/2000/svg" version="1.1" viewBox="0 0 1024 1024"><g transform="scale(1, -1) translate(0, -900)"><path d="M 580 440 Q 590 441 603 444 Q 667 459 732 473 Q 753 477 758 467 Q 779 412 779 165 Q 779 107 771 93 Q 767 87 746 92 Q 724 95 699 99 Q 680 105 681 95 Q 733 50 764 16 Q 777 -3 793 -7 Q 803 -11 811 -1 Q 850 48 848 104 Q 809 407 835 458 Q 848 477 835 488 Q 813 506 776 520 Q 757 527 742 519 Q 675 483 572 470 C 542 466 550 435 580 440 Z" fill="black" /></g></svg>