<?xml version='1.0' encoding='utf-8'?>
<svg xmlns="http://www.w3.org/2000/svg" version="1.1" viewBox="0 0 1024 1024"><g transform="scale(1, -1) translate(0, -900)"><path d="M 254 442 Q 279 541 302 640 Q 311 688 329 713 Q 341 735 334 747 Q 319 766 273 792 Q 252 805 236 796 Q 223 789 233 772 Q 269 720 209 431 L 198 381 Q 186 327 163 287 Q 150 260 195 236 Q 234 212 270 181 L 306 151 Q 340 123 383 78 Q 399 63 409 61 Q 418 62 424 73 Q 431 83 425 114 Q 421 142 398 157 Q 376 173 333 198 L 291 221 Q 263 237 226 257 Q 205 267 207 288 Q 223 342 240 396 L 254 442 Z" fill="black" /></g></svg>