<?xml version='1.0' encoding='utf-8'?>
<svg xmlns="http://www.w3.org/2000/svg" version="1.1" viewBox="0 0 1024 1024"><g transform="scale(1, -1) translate(0, -900)"><path d="M 666 234 Q 667 238 669 244 L 677 285 Q 680 330 692 349 Q 699 356 693 366 Q 687 373 659 384 Q 655 385 653 387 C 626 399 596 409 607 381 Q 608 378 611 373 Q 623 331 620 275 L 614 236 Q 593 118 518 58 Q 484 27 392 -19 Q 368 -32 397 -31 Q 413 -32 449 -21 Q 494 -9 532 13 Q 568 32 596 70 Q 632 116 656 194 L 666 234 Z" fill="black" /></g></svg>