<?xml version='1.0' encoding='utf-8'?>
<svg xmlns="http://www.w3.org/2000/svg" version="1.1" viewBox="0 0 1024 1024"><g transform="scale(1, -1) translate(0, -900)"><path d="M 245 451 Q 270 554 292 659 Q 299 704 317 728 Q 327 750 321 762 Q 306 778 261 803 Q 242 815 226 806 Q 214 799 224 783 Q 260 735 205 442 L 197 398 Q 185 346 164 306 Q 154 284 174 269 Q 213 248 246 221 L 282 192 Q 316 165 361 119 Q 377 104 386 103 Q 393 103 400 114 Q 407 124 401 154 Q 395 188 310 232 L 268 255 Q 247 265 224 278 Q 205 288 206 308 Q 221 360 235 411 L 245 451 Z" fill="black" /></g></svg>