<?xml version='1.0' encoding='utf-8'?>
<svg xmlns="http://www.w3.org/2000/svg" version="1.1" viewBox="0 0 1024 1024"><g transform="scale(1, -1) translate(0, -900)"><path d="M 465 298 Q 492 347 499 356 Q 509 363 506 373 Q 502 386 469 413 L 452 422 Q 448 423 444 422 Q 431 419 438 403 Q 445 381 437 357 Q 425 323 414 293 L 397 255 Q 360 189 361 179 Q 362 169 380 165 Q 426 152 477 122 Q 478 122 479 120 L 527 92 Q 590 52 678 -24 Q 703 -45 720 -45 Q 741 -45 742 -25 Q 742 -6 715 41 Q 702 71 557 132 L 509 153 Q 460 174 425 184 Q 404 188 416 208 Q 432 239 445 261 L 465 298 Z" fill="black" /></g></svg>