<?xml version='1.0' encoding='utf-8'?>
<svg xmlns="http://www.w3.org/2000/svg" version="1.1" viewBox="0 0 1024 1024"><g transform="scale(1, -1) translate(0, -900)"><path d="M 255 497 Q 276 579 294 663 Q 301 708 320 732 Q 330 753 324 765 Q 311 783 265 808 Q 246 818 230 811 Q 218 804 228 788 Q 259 746 212 488 L 203 442 Q 185 367 164 326 Q 155 304 175 289 Q 214 268 246 242 L 282 213 Q 348 156 355 154 Q 362 155 369 165 Q 375 175 369 205 Q 362 239 312 260 L 270 279 Q 251 289 224 299 Q 205 308 206 327 Q 225 391 244 456 L 255 497 Z" fill="black" /></g></svg>