<?xml version='1.0' encoding='utf-8'?>
<svg xmlns="http://www.w3.org/2000/svg" version="1.1" viewBox="0 0 1024 1024"><g transform="scale(1, -1) translate(0, -900)"><path d="M 664 408 Q 796 433 812 416 Q 821 412 823 374 Q 830 250 823 108 Q 822 87 814 82 Q 796 69 708 90 Q 692 91 694 83 Q 695 76 708 71 Q 786 28 827 -8 Q 848 -27 860 -24 Q 872 -20 882 7 Q 895 50 894 113 Q 882 276 882 336 Q 883 373 894 395 Q 906 414 896 426 Q 886 441 842 464 Q 823 473 805 469 Q 762 456 668 437 L 617 429 Q 551 422 484 415 C 454 412 466 371 495 377 Q 552 390 616 400 L 664 408 Z" fill="black" /></g></svg>