<?xml version='1.0' encoding='utf-8'?>
<svg xmlns="http://www.w3.org/2000/svg" version="1.1" viewBox="0 0 1024 1024"><g transform="scale(1, -1) translate(0, -900)"><path d="M 248 479 Q 269 560 287 643 Q 294 688 312 712 Q 324 734 316 745 Q 303 763 257 788 Q 238 798 222 790 Q 210 783 220 768 Q 251 723 205 469 L 196 425 Q 169 343 164 334 Q 154 313 174 297 Q 217 270 250 237 L 280 208 Q 334 154 341 152 Q 348 151 355 162 Q 362 172 358 202 Q 352 232 311 256 L 274 277 Q 252 290 223 304 Q 204 314 206 335 Q 222 387 237 439 L 248 479 Z" fill="black" /></g></svg>