<?xml version='1.0' encoding='utf-8'?>
<svg xmlns="http://www.w3.org/2000/svg" version="1.1" viewBox="0 0 1024 1024"><g transform="scale(1, -1) translate(0, -900)"><path d="M 766 98 Q 776 73 796 29 Q 805 11 815 12 Q 831 13 841 40 Q 868 88 888 251 Q 894 300 917 329 Q 935 348 923 362 Q 901 384 855 406 Q 836 416 803 405 Q 647 350 501 349 C 471 348 494 307 524 309 Q 534 308 543 310 Q 637 329 786 355 Q 811 361 823 348 Q 844 312 809 142 Q 808 126 801 124 Q 798 123 792 125 C 767 109 762 107 766 98 Z" fill="black" /></g></svg>