<?xml version='1.0' encoding='utf-8'?>
<svg xmlns="http://www.w3.org/2000/svg" version="1.1" viewBox="0 0 1024 1024"><g transform="scale(1, -1) translate(0, -900)"><path d="M 702 627 Q 751 631 808 631 Q 880 628 887 639 Q 891 649 877 663 Q 826 702 760 683 Q 741 680 720 675 L 652 663 Q 592 656 523 642 L 476 636 Q 427 630 375 622 L 331 617 Q 256 608 175 597 Q 156 594 170 579 Q 183 566 200 561 Q 219 557 235 561 Q 284 576 339 586 L 382 594 Q 466 610 477 608 L 522 614 Q 577 621 645 625 L 702 627 Z" fill="black" /></g></svg>