<?xml version='1.0' encoding='utf-8'?>
<svg xmlns="http://www.w3.org/2000/svg" version="1.1" viewBox="0 0 1024 1024"><g transform="scale(1, -1) translate(0, -900)"><path d="M 280 448 Q 308 551 330 655 Q 337 700 356 724 Q 366 745 360 757 Q 347 775 301 800 Q 282 810 266 803 Q 254 796 264 780 Q 300 732 240 441 L 231 399 Q 219 354 200 318 Q 190 297 210 281 Q 256 254 293 222 L 328 191 Q 359 164 397 124 Q 412 109 421 107 Q 430 107 435 118 Q 442 128 438 158 Q 434 183 412 198 Q 393 211 356 234 L 316 257 Q 291 272 260 289 Q 241 299 242 319 Q 255 364 269 409 L 280 448 Z" fill="black" /></g></svg>