<?xml version='1.0' encoding='utf-8'?>
<svg xmlns="http://www.w3.org/2000/svg" version="1.1" viewBox="0 0 1024 1024"><g transform="scale(1, -1) translate(0, -900)"><path d="M 517 447 Q 518 486 519 524 L 521 563 Q 521 588 522 614 L 523 642 Q 524 664 525 685 Q 526 701 527 714 L 531 743 Q 534 762 544 799 Q 547 809 526 824 Q 492 843 466 847 Q 450 850 442 841 Q 435 834 443 818 Q 473 776 473 734 L 474 706 Q 475 672 476 636 L 477 608 Q 477 581 477 553 L 477 517 Q 476 480 476 440 L 475 414 Q 474 372 472 328 C 471 298 512 303 513 333 Q 514 378 517 421 L 517 447 Z" fill="black" /></g></svg>