<?xml version='1.0' encoding='utf-8'?>
<svg xmlns="http://www.w3.org/2000/svg" version="1.1" viewBox="0 0 1024 1024"><g transform="scale(1, -1) translate(0, -900)"><path d="M 666 411 Q 666 412 669 413 Q 721 435 759 446 Q 768 447 770 446 Q 777 436 774 412 Q 770 343 755 313 Q 743 291 723 293 Q 707 297 691 304 Q 673 311 685 292 Q 716 258 729 233 Q 742 218 755 231 Q 801 264 819 397 Q 823 431 835 447 Q 844 457 839 466 Q 832 473 791 488 Q 775 494 761 483 Q 751 476 709 460 Q 682 451 659 444 C 630 435 639 398 666 411 Z" fill="black" /></g></svg>