<?xml version='1.0' encoding='utf-8'?>
<svg xmlns="http://www.w3.org/2000/svg" version="1.1" viewBox="0 0 1024 1024"><g transform="scale(1, -1) translate(0, -900)"><path d="M 654 244 Q 765 250 920 242 Q 941 242 946 251 Q 952 263 935 278 Q 881 320 843 312 Q 767 299 654 283 L 597 276 Q 561 273 522 268 Q 494 265 465 262 L 411 256 Q 278 246 130 231 Q 108 230 123 211 Q 138 196 156 190 Q 178 183 195 188 Q 288 212 392 223 L 443 229 Q 450 230 459 231 Q 519 238 595 241 L 654 244 Z" fill="black" /></g></svg>