<?xml version='1.0' encoding='utf-8'?>
<svg xmlns="http://www.w3.org/2000/svg" version="1.1" viewBox="0 0 1024 1024"><g transform="scale(1, -1) translate(0, -900)"><path d="M 272 221 Q 218 137 138 85 Q 122 75 108 63 Q 95 54 107 52 Q 120 51 154 64 Q 208 88 248 125 Q 287 156 308 192 L 338 247 Q 365 299 376 362 Q 391 455 409 489 Q 419 507 403 515 Q 387 528 372 534 Q 350 547 332 541 Q 319 537 325 523 Q 338 498 336 469 L 335 442 Q 334 436 334 428 Q 333 377 296 265 L 272 221 Z" fill="black" /></g></svg>