<?xml version='1.0' encoding='utf-8'?>
<svg xmlns="http://www.w3.org/2000/svg" version="1.1" viewBox="0 0 1024 1024"><g transform="scale(1, -1) translate(0, -900)"><path d="M 643 448 Q 643 449 644 449 Q 671 482 694 535 Q 704 557 720 571 Q 735 583 725 593 Q 715 603 691 612 Q 673 619 652 609 Q 634 602 611 594 L 575 583 Q 499 571 496 567 Q 493 561 507 556 Q 535 546 573 557 Q 628 576 638 576 Q 654 573 650 556 Q 638 510 617 477 Q 614 474 612 470 L 591 447 Q 543 411 479 393 Q 469 390 478 383 Q 508 368 585 405 Q 601 412 615 423 L 643 448 Z" fill="black" /></g></svg>