<?xml version='1.0' encoding='utf-8'?>
<svg xmlns="http://www.w3.org/2000/svg" version="1.1" viewBox="0 0 1024 1024"><g transform="scale(1, -1) translate(0, -900)"><path d="M 491 283 Q 485 279 485 273 C 475 254 501 254 506 224 Q 509 211 509 195 Q 510 107 503 76 Q 499 46 487 30 Q 475 8 484 -14 Q 497 -45 514 -57 Q 526 -64 537 -45 Q 568 1 674 118 Q 690 134 691 142 Q 691 155 672 142 Q 566 66 557 68 Q 550 72 549 87 Q 555 196 561 225 Q 565 249 540 268 C 518 288 499 306 491 283 Z" fill="black" /></g></svg>