<?xml version='1.0' encoding='utf-8'?>
<svg xmlns="http://www.w3.org/2000/svg" version="1.1" viewBox="0 0 1024 1024"><g transform="scale(1, -1) translate(0, -900)"><path d="M 746 375 L 746 376 Q 755 413 762 439 L 779 485 Q 792 512 808 526 Q 824 544 809 561 Q 793 573 741 596 Q 723 603 703 594 Q 658 575 619 564 L 574 553 Q 519 543 464 535 Q 448 534 450 525 Q 453 518 470 511 Q 494 501 527 512 Q 548 516 573 521 L 618 530 Q 651 539 686 545 Q 705 549 714 542 Q 726 532 718 473 L 712 436 Q 705 405 698 375 C 691 346 739 346 746 375 Z" fill="black" /></g></svg>