<?xml version='1.0' encoding='utf-8'?>
<svg xmlns="http://www.w3.org/2000/svg" version="1.1" viewBox="0 0 1024 1024"><g transform="scale(1, -1) translate(0, -900)"><path d="M 611 115 Q 611 161 612 204 L 612 232 Q 612 277 614 318 L 615 354 Q 615 390 616 423 L 616 454 Q 616 488 618 519 Q 618 525 618 530 L 619 564 Q 620 609 623 643 L 625 688 Q 628 745 637 769 Q 647 788 635 800 Q 601 825 574 834 Q 561 837 547 826 Q 543 819 547 808 Q 574 763 576 674 L 576 632 Q 575 593 574 553 L 573 521 Q 572 485 572 447 L 572 417 Q 571 383 571 345 L 570 311 Q 569 229 568 138 C 568 108 611 85 611 115 Z" fill="black" /></g></svg>