<?xml version='1.0' encoding='utf-8'?>
<svg xmlns="http://www.w3.org/2000/svg" version="1.1" viewBox="0 0 1024 1024"><g transform="scale(1, -1) translate(0, -900)"><path d="M 256 211 Q 249 204 242 194 Q 211 157 158 121 Q 145 112 128 103 Q 112 93 97 83 Q 84 76 95 72 Q 108 71 143 81 Q 197 100 239 135 Q 270 159 292 185 L 322 230 Q 361 290 378 361 Q 406 464 419 484 Q 429 500 414 510 Q 368 547 345 540 Q 332 537 336 522 Q 343 506 345 486 L 343 456 Q 331 333 280 249 L 256 211 Z" fill="black" /></g></svg>