<?xml version='1.0' encoding='utf-8'?>
<svg xmlns="http://www.w3.org/2000/svg" version="1.1" viewBox="0 0 1024 1024"><g transform="scale(1, -1) translate(0, -900)"><path d="M 507 680 Q 491 693 476 701 Q 460 707 453 702 Q 443 696 451 683 Q 487 614 470 454 Q 466 414 431 372 Q 421 360 426 341 Q 433 319 444 308 Q 454 301 466 315 Q 482 337 618 426 Q 634 436 639 443 Q 643 450 635 452 Q 629 452 524 411 Q 508 405 508 420 Q 518 526 516 607 Q 515 632 519 652 Q 520 659 520 664 C 521 670 521 670 507 680 Z" fill="black" /></g></svg>