<?xml version='1.0' encoding='utf-8'?>
<svg xmlns="http://www.w3.org/2000/svg" version="1.1" viewBox="0 0 1024 1024"><g transform="scale(1, -1) translate(0, -900)"><path d="M 262 470 Q 286 554 307 640 Q 317 688 336 712 Q 348 734 341 747 Q 328 765 281 793 Q 262 806 244 797 Q 231 790 241 773 Q 274 725 216 461 L 205 415 Q 189 343 163 299 Q 154 277 176 259 Q 219 238 256 211 L 292 185 Q 322 163 361 127 Q 377 114 387 112 Q 396 113 401 124 Q 408 136 400 166 Q 391 200 322 230 L 280 249 Q 256 259 227 272 Q 208 281 208 299 Q 230 363 250 428 L 262 470 Z" fill="black" /></g></svg>