<?xml version='1.0' encoding='utf-8'?>
<svg xmlns="http://www.w3.org/2000/svg" version="1.1" viewBox="0 0 1024 1024"><g transform="scale(1, -1) translate(0, -900)"><path d="M 484 445 Q 477 460 452 471 Q 439 478 426 470 Q 419 467 429 452 Q 448 418 443 357 Q 440 296 420 277 Q 414 264 423 248 Q 436 229 446 235 Q 468 253 532 266 Q 551 272 559 264 Q 574 252 554 108 C 550 78 603 83 604 113 Q 607 233 628 257 Q 640 267 632 277 Q 622 292 582 307 Q 572 313 554 302 Q 523 292 481 284 Q 471 283 471 295 Q 481 394 488 419 C 492 436 492 436 484 445 Z" fill="black" /></g></svg>