<?xml version='1.0' encoding='utf-8'?>
<svg xmlns="http://www.w3.org/2000/svg" version="1.1" viewBox="0 0 1024 1024"><g transform="scale(1, -1) translate(0, -900)"><path d="M 683 346 Q 722 356 744 357 Q 766 360 773 352 Q 783 345 783 315 Q 782 285 783 249 Q 783 224 775 212 Q 772 208 727 207 Q 712 211 707 205 Q 703 201 717 191 Q 754 154 777 126 Q 787 114 803 119 Q 813 123 822 145 Q 840 179 839 222 Q 838 318 847 349 Q 854 364 847 372 Q 828 385 795 398 Q 777 405 763 399 Q 736 386 684 374 L 634 363 Q 600 359 559 352 C 529 347 538 310 566 320 Q 575 326 635 335 L 683 346 Z" fill="black" /></g></svg>