<?xml version='1.0' encoding='utf-8'?>
<svg xmlns="http://www.w3.org/2000/svg" version="1.1" viewBox="0 0 1024 1024"><g transform="scale(1, -1) translate(0, -900)"><path d="M 881 332 Q 908 422 938 454 Q 959 476 945 488 Q 920 509 877 523 Q 858 532 841 523 Q 816 513 760 499 Q 744 495 744 512 Q 757 612 766 632 Q 773 653 759 663 Q 749 670 741 677 C 718 696 691 698 698 669 Q 720 585 692 500 Q 676 476 699 451 Q 711 438 726 447 Q 756 471 829 484 Q 868 491 850 403 Q 847 394 836 340 C 830 311 872 303 881 332 Z" fill="black" /></g></svg>