<?xml version='1.0' encoding='utf-8'?>
<svg xmlns="http://www.w3.org/2000/svg" version="1.1" viewBox="0 0 1024 1024"><g transform="scale(1, -1) translate(0, -900)"><path d="M 617 268 Q 770 280 906 265 Q 930 262 936 271 Q 943 284 931 296 Q 903 324 859 344 Q 844 350 819 342 Q 746 327 672 317 Q 644 316 618 311 L 545 304 Q 494 303 471 296 L 413 291 Q 335 285 290 279 Q 218 269 110 268 Q 97 268 95 257 Q 94 245 113 230 Q 129 217 160 205 Q 170 201 189 209 Q 243 227 395 246 L 447 253 Q 471 257 547 262 L 617 268 Z" fill="black" /></g></svg>