<?xml version='1.0' encoding='utf-8'?>
<svg xmlns="http://www.w3.org/2000/svg" version="1.1" viewBox="0 0 1024 1024"><g transform="scale(1, -1) translate(0, -900)"><path d="M 669 25 Q 670 53 672 228 L 672 269 Q 671 318 671 383 L 672 417 Q 672 436 673 455 Q 673 468 673 479 L 679 518 Q 680 525 682 532 Q 685 548 672 556 Q 653 569 640 574 C 613 587 584 592 597 565 Q 597 559 611 540 Q 618 524 622 501 L 623 470 Q 623 442 623 407 L 623 377 Q 623 325 623 263 L 623 223 Q 623 -5 637 -31 Q 637 -32 639 -34 Q 643 -40 651 -38 Q 666 -29 669 25 Z" fill="black" /></g></svg>