<?xml version='1.0' encoding='utf-8'?>
<svg xmlns="http://www.w3.org/2000/svg" version="1.1" viewBox="0 0 1024 1024"><g transform="scale(1, -1) translate(0, -900)"><path d="M 317 176 Q 393 109 398 107 Q 405 107 412 117 Q 419 127 413 158 Q 407 189 346 222 L 306 243 Q 282 256 252 270 Q 233 280 234 299 Q 250 353 267 408 L 277 444 Q 302 540 325 638 Q 334 684 351 708 Q 363 729 356 741 Q 343 757 298 784 Q 279 796 262 787 Q 250 780 260 764 Q 296 716 236 436 L 228 396 Q 200 312 192 298 Q 182 277 203 261 Q 246 236 284 204 L 317 176 Z" fill="black" /></g></svg>