<?xml version='1.0' encoding='utf-8'?>
<svg xmlns="http://www.w3.org/2000/svg" version="1.1" viewBox="0 0 1024 1024"><g transform="scale(1, -1) translate(0, -900)"><path d="M 767 393 Q 767 389 770 382 Q 776 367 788 369 Q 801 370 807 385 Q 820 401 839 483 Q 852 534 887 564 Q 905 580 889 595 Q 870 611 821 635 Q 806 644 742 626 Q 724 626 585 597 Q 521 582 479 577 Q 478 577 476 576 C 446 571 483 539 512 545 Q 519 545 525 547 Q 553 557 597 565 L 640 574 Q 763 601 791 590 Q 801 584 796 553 Q 780 444 770 417 L 767 393 Z" fill="black" /></g></svg>