<?xml version='1.0' encoding='utf-8'?>
<svg xmlns="http://www.w3.org/2000/svg" version="1.1" viewBox="0 0 1024 1024"><g transform="scale(1, -1) translate(0, -900)"><path d="M 732 250 Q 750 225 765 218 Q 775 211 789 231 Q 802 256 826 388 Q 833 416 853 440 Q 865 452 854 464 Q 841 480 800 502 Q 779 509 711 490 Q 702 490 668 481 L 621 471 Q 615 471 512 448 C 483 441 493 409 522 418 Q 562 431 621 442 L 667 452 Q 751 471 765 459 Q 778 444 776 429 Q 758 291 743 276 C 731 252 731 252 732 250 Z" fill="black" /></g></svg>