<?xml version='1.0' encoding='utf-8'?>
<svg xmlns="http://www.w3.org/2000/svg" version="1.1" viewBox="0 0 1024 1024"><g transform="scale(1, -1) translate(0, -900)"><path d="M 256 450 Q 278 538 299 628 Q 308 676 326 701 Q 338 723 330 736 Q 317 754 269 780 Q 248 792 232 783 Q 219 776 229 760 Q 265 708 211 440 L 203 400 Q 202 399 202 395 Q 192 347 171 311 Q 161 287 183 271 Q 220 253 252 229 L 288 202 Q 316 181 353 147 Q 369 134 379 132 Q 388 133 393 144 Q 399 156 392 186 Q 383 217 319 248 L 277 266 Q 259 275 235 284 Q 214 293 215 312 Q 231 363 246 414 L 256 450 Z" fill="black" /></g></svg>