<?xml version='1.0' encoding='utf-8'?>
<svg xmlns="http://www.w3.org/2000/svg" version="1.1" viewBox="0 0 1024 1024"><g transform="scale(1, -1) translate(0, -900)"><path d="M 623 -10 Q 629 -32 635 -42 Q 639 -48 647 -46 Q 662 -37 665 17 Q 671 86 667 242 L 667 277 Q 667 308 667 347 L 667 381 Q 667 415 667 452 L 668 481 Q 668 511 678 560 Q 681 576 668 584 Q 638 603 624 606 Q 612 610 598 602 Q 591 595 597 585 Q 619 534 621 471 L 621 442 Q 622 408 622 368 L 621 339 Q 620 305 620 267 L 619 237 Q 619 30 623 -10 Z" fill="black" /></g></svg>