<?xml version='1.0' encoding='utf-8'?>
<svg xmlns="http://www.w3.org/2000/svg" version="1.1" viewBox="0 0 1024 1024"><g transform="scale(1, -1) translate(0, -900)"><path d="M 277 475 Q 296 548 314 624 Q 323 672 341 697 Q 353 719 346 732 Q 333 750 285 776 Q 264 789 248 779 Q 235 772 245 756 Q 275 711 231 468 L 221 420 Q 203 344 183 307 Q 173 285 194 268 Q 239 243 277 212 L 314 181 Q 345 156 384 117 Q 400 102 409 101 Q 418 101 424 112 Q 431 124 425 154 Q 419 182 397 196 Q 379 209 343 228 L 300 250 Q 275 263 246 277 Q 225 287 227 308 Q 246 369 266 433 L 277 475 Z" fill="black" /></g></svg>