<?xml version='1.0' encoding='utf-8'?>
<svg xmlns="http://www.w3.org/2000/svg" version="1.1" viewBox="0 0 1024 1024"><g transform="scale(1, -1) translate(0, -900)"><path d="M 237 489 Q 265 583 289 678 Q 299 723 317 747 Q 330 766 323 780 Q 310 796 266 824 Q 247 837 231 828 Q 218 822 228 806 Q 261 757 194 481 L 183 436 Q 158 361 144 339 Q 135 317 157 300 Q 205 279 244 250 L 278 226 Q 365 163 369 161 Q 376 162 382 173 Q 388 183 380 213 Q 371 246 308 271 L 267 288 Q 240 300 205 313 Q 186 320 187 338 Q 206 393 224 448 L 237 489 Z" fill="black" /></g></svg>