<?xml version='1.0' encoding='utf-8'?>
<svg xmlns="http://www.w3.org/2000/svg" version="1.1" viewBox="0 0 1024 1024"><g transform="scale(1, -1) translate(0, -900)"><path d="M 452 264 Q 471 304 481 317 Q 491 324 487 333 Q 483 346 445 375 Q 435 385 424 381 Q 411 377 418 362 Q 428 334 400 260 L 384 220 Q 372 195 360 177 Q 350 159 353 146 Q 356 136 373 133 Q 424 120 480 92 Q 481 92 481 91 L 526 68 Q 596 28 703 -54 Q 728 -73 746 -73 Q 767 -73 767 -53 Q 767 -34 738 12 Q 717 45 561 103 L 512 122 Q 457 144 417 154 Q 396 158 407 178 Q 420 205 431 225 L 452 264 Z" fill="black" /></g></svg>