<?xml version='1.0' encoding='utf-8'?>
<svg xmlns="http://www.w3.org/2000/svg" version="1.1" viewBox="0 0 1024 1024"><g transform="scale(1, -1) translate(0, -900)"><path d="M 292 155 Q 320 127 356 86 Q 371 70 379 68 Q 388 68 394 78 Q 401 88 399 118 Q 393 151 319 199 L 280 224 Q 258 239 231 255 Q 210 267 213 288 L 237 380 L 245 417 Q 269 520 287 627 Q 294 673 310 697 Q 320 719 313 731 Q 300 747 253 771 Q 234 781 218 772 Q 205 765 216 750 Q 252 702 207 411 L 200 370 Q 190 324 171 285 Q 162 266 181 250 Q 224 222 259 188 L 292 155 Z" fill="black" /></g></svg>