<?xml version='1.0' encoding='utf-8'?>
<svg xmlns="http://www.w3.org/2000/svg" version="1.1" viewBox="0 0 1024 1024"><g transform="scale(1, -1) translate(0, -900)"><path d="M 278 491 Q 300 579 321 670 Q 330 716 347 740 Q 359 761 352 773 Q 339 789 294 816 Q 275 826 258 819 Q 246 812 256 796 Q 289 753 235 482 L 226 437 Q 198 353 192 342 Q 183 320 203 305 Q 272 269 282 249 L 316 221 Q 361 181 371 178 Q 378 179 385 189 Q 391 199 385 229 Q 378 263 347 274 L 306 293 Q 284 303 252 315 Q 233 324 234 343 Q 250 395 266 450 L 278 491 Z" fill="black" /></g></svg>