<?xml version='1.0' encoding='utf-8'?>
<svg xmlns="http://www.w3.org/2000/svg" version="1.1" viewBox="0 0 1024 1024"><g transform="scale(1, -1) translate(0, -900)"><path d="M 679 125 Q 716 176 750 254 Q 763 282 784 301 Q 803 316 791 330 Q 778 343 747 356 Q 723 363 696 351 Q 668 341 631 332 Q 595 325 538 318 C 508 314 499 304 528 295 Q 564 279 615 291 Q 664 309 674 308 Q 699 307 693 280 Q 675 208 643 158 Q 642 158 642 157 L 619 128 Q 556 62 432 28 Q 419 24 430 15 Q 436 11 477 13 Q 568 20 650 93 L 679 125 Z" fill="black" /></g></svg>