<?xml version='1.0' encoding='utf-8'?>
<svg xmlns="http://www.w3.org/2000/svg" version="1.1" viewBox="0 0 1024 1024"><g transform="scale(1, -1) translate(0, -900)"><path d="M 476 345 Q 647 403 814 417 Q 833 416 842 406 Q 849 399 844 385 Q 850 132 833 94 Q 829 84 816 85 Q 788 86 759 88 Q 731 88 753 73 Q 819 31 847 -2 Q 863 -18 878 -3 Q 897 19 905 52 Q 915 88 903 280 Q 897 352 916 389 Q 929 408 923 416 Q 916 428 867 456 Q 849 469 835 462 Q 811 453 773 443 L 718 434 Q 678 430 648 423 L 619 418 Q 582 414 555 405 L 517 396 Q 484 389 459 382 C 430 374 448 336 476 345 Z" fill="black" /></g></svg>