<?xml version='1.0' encoding='utf-8'?>
<svg xmlns="http://www.w3.org/2000/svg" version="1.1" viewBox="0 0 1024 1024"><g transform="scale(1, -1) translate(0, -900)"><path d="M 472 225 Q 473 228 473 230 Q 474 248 477 261 Q 481 271 473 281 Q 454 300 437 308 Q 422 315 415 310 Q 406 306 413 293 Q 440 235 428 134 Q 425 94 393 55 Q 383 43 389 25 Q 396 3 407 -6 Q 417 -13 427 1 Q 442 26 573 126 Q 588 136 592 143 Q 595 150 587 151 Q 574 151 474 96 Q 465 92 464 100 Q 470 154 472 198 L 472 225 Z" fill="black" /></g></svg>