<?xml version='1.0' encoding='utf-8'?>
<svg xmlns="http://www.w3.org/2000/svg" version="1.1" viewBox="0 0 1024 1024"><g transform="scale(1, -1) translate(0, -900)"><path d="M 957 52 Q 945 80 932 166 Q 932 181 925 186 Q 919 189 915 173 Q 887 82 869 55 Q 862 43 835 37 Q 774 25 721 52 Q 700 64 694 79 Q 679 109 683 197 L 685 215 Q 688 254 696 296 Q 700 312 689 322 Q 676 335 655 342 Q 642 346 635 342 Q 628 338 633 321 Q 646 284 643 249 Q 636 101 648 60 Q 654 38 672 18 Q 744 -49 884 -22 Q 885 -21 889 -21 Q 920 -11 950 13 Q 969 26 957 52 Z" fill="black" /></g></svg>