<?xml version='1.0' encoding='utf-8'?>
<svg xmlns="http://www.w3.org/2000/svg" version="1.1" viewBox="0 0 1024 1024"><g transform="scale(1, -1) translate(0, -900)"><path d="M 307 225 Q 380 165 384 164 Q 391 164 397 174 Q 403 184 397 213 Q 390 243 335 269 L 297 287 Q 275 299 243 312 Q 224 321 225 338 Q 244 396 261 455 L 273 495 Q 294 573 312 653 Q 321 696 337 719 Q 349 738 342 750 Q 329 766 286 791 Q 268 803 253 795 Q 241 788 250 773 Q 280 731 232 489 L 222 445 Q 203 367 185 338 Q 176 317 196 302 Q 239 280 274 251 L 307 225 Z" fill="black" /></g></svg>