<?xml version='1.0' encoding='utf-8'?>
<svg xmlns="http://www.w3.org/2000/svg" version="1.1" viewBox="0 0 1024 1024"><g transform="scale(1, -1) translate(0, -900)"><path d="M 706 354 Q 716 335 725 316 Q 741 289 749 292 Q 758 293 770 314 Q 777 330 789 454 Q 801 610 817 629 Q 830 648 821 660 Q 814 672 761 691 Q 736 701 716 692 Q 637 664 569 650 L 547 646 Q 532 645 520 643 C 490 639 511 609 540 616 Q 543 617 549 618 Q 601 630 662 647 Q 717 662 736 644 Q 743 637 742 605 Q 739 478 730 408 Q 731 381 709 387 Q 705 388 701 387 C 689 387 692 381 706 354 Z" fill="black" /></g></svg>