<?xml version='1.0' encoding='utf-8'?>
<svg xmlns="http://www.w3.org/2000/svg" version="1.1" viewBox="0 0 1024 1024"><g transform="scale(1, -1) translate(0, -900)"><path d="M 309 185 Q 372 133 374 131 Q 383 131 388 141 Q 395 151 389 182 Q 383 210 340 234 L 299 254 Q 274 267 240 282 Q 221 292 222 311 Q 238 359 253 408 L 265 449 Q 290 539 312 630 Q 321 676 339 699 Q 351 721 344 732 Q 331 750 286 776 Q 267 788 250 779 Q 238 772 248 757 Q 281 706 223 440 L 213 397 Q 201 346 180 311 Q 170 290 209 262 Q 242 244 276 213 L 309 185 Z" fill="black" /></g></svg>