<?xml version='1.0' encoding='utf-8'?>
<svg xmlns="http://www.w3.org/2000/svg" version="1.1" viewBox="0 0 1024 1024"><g transform="scale(1, -1) translate(0, -900)"><path d="M 658 566 Q 665 570 675 570 Q 742 585 756 580 C 786 577 784 614 754 611 Q 705 607 660 597 L 618 589 Q 570 580 531 566 Q 516 563 520 580 Q 532 659 527 668 Q 515 683 496 694 Q 487 700 478 698 Q 469 695 475 679 Q 490 642 482 603 Q 476 567 461 552 Q 445 539 451 527 Q 461 514 474 505 Q 480 502 496 508 Q 518 529 617 555 L 658 566 Z" fill="black" /></g></svg>