<?xml version='1.0' encoding='utf-8'?>
<svg xmlns="http://www.w3.org/2000/svg" version="1.1" viewBox="0 0 1024 1024"><g transform="scale(1, -1) translate(0, -900)"><path d="M 576 277 Q 592 323 609 343 Q 618 350 615 359 Q 609 372 574 398 Q 564 407 553 403 Q 541 399 548 385 Q 557 363 550 341 Q 540 302 529 270 L 513 229 Q 480 163 481 155 Q 484 145 500 142 Q 540 129 580 104 L 621 79 Q 673 45 748 -22 Q 772 -41 788 -42 Q 807 -43 809 -24 Q 810 -5 784 40 Q 772 67 651 117 L 609 135 Q 572 151 543 160 Q 521 164 533 185 Q 546 215 557 237 L 576 277 Z" fill="black" /></g></svg>