<?xml version='1.0' encoding='utf-8'?>
<svg xmlns="http://www.w3.org/2000/svg" version="1.1" viewBox="0 0 1024 1024"><g transform="scale(1, -1) translate(0, -900)"><path d="M 500 324 Q 614 375 821 390 Q 834 390 849 381 Q 859 372 859 355 Q 860 339 839 194 Q 823 107 803 76 Q 793 58 773 62 L 717 82 Q 701 89 696 85 Q 693 81 707 67 Q 765 -9 769 -32 Q 773 -42 783 -43 Q 799 -46 832 -15 Q 863 16 872 54 Q 920 348 944 367 Q 951 374 952 381 Q 953 388 920 411 Q 884 435 859 430 Q 714 415 689 406 L 648 400 Q 596 393 563 382 Q 529 376 527 399 C 505 419 472 313 500 324 Z" fill="black" /></g></svg>