<?xml version='1.0' encoding='utf-8'?>
<svg xmlns="http://www.w3.org/2000/svg" version="1.1" viewBox="0 0 1024 1024"><g transform="scale(1, -1) translate(0, -900)"><path d="M 257 436 Q 279 526 299 617 Q 308 663 326 689 Q 338 711 330 724 Q 317 742 269 768 Q 248 780 232 771 Q 219 764 229 747 Q 265 696 212 426 L 203 380 Q 191 317 167 275 Q 157 253 179 235 Q 222 214 258 186 L 295 157 Q 322 136 356 104 Q 372 89 383 88 Q 392 89 397 100 Q 403 112 396 142 Q 390 175 323 206 L 282 224 Q 260 234 230 247 Q 211 256 211 276 Q 230 336 246 396 L 257 436 Z" fill="black" /></g></svg>