<?xml version='1.0' encoding='utf-8'?>
<svg xmlns="http://www.w3.org/2000/svg" version="1.1" viewBox="0 0 1024 1024"><g transform="scale(1, -1) translate(0, -900)"><path d="M 287 215 Q 324 182 337 179 Q 344 180 350 190 Q 354 200 348 229 Q 339 259 313 268 L 271 285 Q 250 294 219 305 Q 200 312 201 331 Q 217 386 232 443 L 243 486 Q 292 708 299 717 Q 309 750 307 755 Q 294 771 250 795 Q 231 805 216 797 Q 206 790 215 776 Q 245 733 203 476 L 193 428 Q 175 356 160 329 Q 153 308 173 293 Q 227 268 250 244 L 287 215 Z" fill="black" /></g></svg>