<?xml version='1.0' encoding='utf-8'?>
<svg xmlns="http://www.w3.org/2000/svg" version="1.1" viewBox="0 0 1024 1024"><g transform="scale(1, -1) translate(0, -900)"><path d="M 670 362 L 670 363 Q 666 369 661 373 L 649 385 Q 618 418 553 446 C 526 458 504 441 531 427 Q 541 423 552 416 L 595 386 Q 611 373 623 357 L 651 304 Q 670 229 643 126 Q 631 83 618 75 Q 608 71 550 84 Q 510 97 508 88 Q 507 81 518 68 Q 576 16 599 -17 Q 612 -38 630 -33 Q 684 -6 704 122 Q 716 216 700 297 L 670 362 Z" fill="black" /></g></svg>