<?xml version='1.0' encoding='utf-8'?>
<svg xmlns="http://www.w3.org/2000/svg" version="1.1" viewBox="0 0 1024 1024"><g transform="scale(1, -1) translate(0, -900)"><path d="M 774 191 Q 771 62 763 57 Q 750 50 688 68 Q 673 72 674 63 Q 674 56 686 50 Q 741 7 769 -27 Q 787 -46 799 -43 Q 809 -42 821 -15 Q 836 25 836 85 Q 832 146 829 192 L 826 241 Q 823 331 836 356 Q 851 384 801 413 Q 794 417 786 422 Q 768 429 751 426 Q 723 416 670 403 L 622 393 Q 570 386 520 377 C 490 372 502 336 531 342 Q 535 342 541 343 Q 578 353 622 362 L 669 372 Q 696 378 728 383 Q 749 387 759 376 Q 768 370 773 232 L 774 191 Z" fill="black" /></g></svg>