<?xml version='1.0' encoding='utf-8'?>
<svg xmlns="http://www.w3.org/2000/svg" version="1.1" viewBox="0 0 1024 1024"><g transform="scale(1, -1) translate(0, -900)"><path d="M 310 172 Q 338 150 374 114 Q 390 99 398 98 Q 407 99 412 109 Q 419 119 413 149 Q 406 180 337 217 L 298 238 Q 273 251 240 266 Q 221 276 222 295 Q 238 349 255 404 L 266 442 Q 291 539 313 638 Q 322 684 339 708 Q 351 729 344 741 Q 331 757 286 784 Q 267 796 250 787 Q 238 780 248 764 Q 284 718 224 434 L 215 392 Q 214 389 214 384 Q 202 333 180 294 Q 170 272 191 257 Q 237 232 276 200 L 310 172 Z" fill="black" /></g></svg>