<?xml version='1.0' encoding='utf-8'?>
<svg xmlns="http://www.w3.org/2000/svg" version="1.1" viewBox="0 0 1024 1024"><g transform="scale(1, -1) translate(0, -900)"><path d="M 265 177 Q 287 158 314 130 Q 329 117 338 115 Q 347 115 352 126 Q 359 136 353 166 Q 347 199 293 224 L 255 243 Q 236 253 208 266 Q 189 276 190 296 Q 206 353 221 410 L 232 450 Q 256 550 276 655 Q 283 700 301 724 Q 311 746 305 758 Q 292 774 245 799 Q 226 811 210 802 Q 198 795 208 779 Q 244 733 191 442 L 183 397 Q 182 393 181 387 Q 171 335 147 294 Q 138 272 159 257 Q 199 235 233 204 L 265 177 Z" fill="black" /></g></svg>