<?xml version='1.0' encoding='utf-8'?>
<svg xmlns="http://www.w3.org/2000/svg" version="1.1" viewBox="0 0 1024 1024"><g transform="scale(1, -1) translate(0, -900)"><path d="M 765 336 Q 772 370 779 401 L 793 448 Q 803 473 823 495 Q 839 514 815 529 Q 793 545 769 557 Q 754 567 735 557 Q 716 550 662 535 L 619 527 Q 586 521 555 512 L 513 502 Q 468 493 438 489 Q 426 489 425 482 Q 424 476 443 466 Q 462 453 487 463 Q 500 467 514 471 L 553 482 Q 571 489 620 495 L 662 502 Q 692 508 728 513 Q 740 514 744 509 Q 754 494 745 438 L 738 398 Q 731 370 723 336 C 716 307 759 307 765 336 Z" fill="black" /></g></svg>