<?xml version='1.0' encoding='utf-8'?>
<svg xmlns="http://www.w3.org/2000/svg" version="1.1" viewBox="0 0 1024 1024"><g transform="scale(1, -1) translate(0, -900)"><path d="M 279 170 Q 349 119 353 117 Q 360 118 366 129 Q 372 139 364 169 Q 355 202 307 219 L 267 234 Q 246 243 217 253 Q 198 260 198 279 Q 217 343 236 409 L 248 452 Q 270 543 290 635 Q 297 680 316 704 Q 326 725 320 737 Q 307 755 261 780 Q 242 790 226 783 Q 214 776 224 760 Q 255 718 205 442 L 195 394 Q 168 301 156 278 Q 147 256 169 240 Q 209 221 245 195 L 279 170 Z" fill="black" /></g></svg>