<?xml version='1.0' encoding='utf-8'?>
<svg xmlns="http://www.w3.org/2000/svg" version="1.1" viewBox="0 0 1024 1024"><g transform="scale(1, -1) translate(0, -900)"><path d="M 663 269 Q 663 279 663 287 L 663 322 Q 663 356 663 391 L 663 423 Q 663 457 663 493 Q 662 497 662 502 L 662 535 Q 662 575 664 583 Q 667 593 659 599 Q 650 606 635 614 C 609 629 603 633 609 607 L 610 606 Q 613 600 619 527 L 620 495 Q 621 456 622 415 L 622 384 Q 622 350 622 314 L 622 283 Q 622 87 613 4 Q 610 -35 633 -62 Q 643 -75 652 -59 Q 671 -19 666 59 Q 665 96 664 150 Q 664 190 663 229 L 663 269 Z" fill="black" /></g></svg>