<?xml version='1.0' encoding='utf-8'?>
<svg xmlns="http://www.w3.org/2000/svg" version="1.1" viewBox="0 0 1024 1024"><g transform="scale(1, -1) translate(0, -900)"><path d="M 779 401 Q 821 405 870 405 Q 925 405 932 414 Q 936 424 921 436 Q 869 470 808 452 Q 801 451 793 448 L 745 438 Q 705 432 663 423 L 622 415 Q 586 411 549 403 L 514 397 Q 456 390 394 379 Q 376 378 390 363 Q 403 351 418 347 Q 436 343 450 347 Q 480 357 514 364 L 548 371 Q 581 380 617 384 Q 618 385 622 384 L 663 391 Q 694 395 738 398 L 779 401 Z" fill="black" /></g></svg>