<?xml version='1.0' encoding='utf-8'?>
<svg xmlns="http://www.w3.org/2000/svg" version="1.1" viewBox="0 0 1024 1024"><g transform="scale(1, -1) translate(0, -900)"><path d="M 664 287 Q 680 293 778 317 C 807 324 799 336 769 332 Q 682 322 576 299 Q 569 296 574 302 Q 616 336 710 403 Q 746 431 775 446 Q 788 453 785 464 Q 781 485 753 511 Q 740 523 730 523 Q 720 522 718 507 Q 712 474 647 408 L 625 389 Q 516 299 496 293 Q 481 286 482 273 Q 481 260 503 237 Q 510 224 527 233 Q 576 261 625 276 L 664 287 Z" fill="black" /></g></svg>