<?xml version='1.0' encoding='utf-8'?>
<svg xmlns="http://www.w3.org/2000/svg" version="1.1" viewBox="0 0 1024 1024"><g transform="scale(1, -1) translate(0, -900)"><path d="M 243 450 Q 265 529 283 612 Q 292 660 310 685 Q 322 707 314 720 Q 301 738 253 764 Q 232 776 216 767 Q 203 760 213 744 Q 246 696 198 442 L 188 398 Q 188 368 159 315 Q 147 291 192 262 Q 220 244 247 220 L 280 192 Q 307 170 339 134 Q 355 119 365 117 Q 374 118 379 128 Q 386 138 381 170 Q 375 204 310 239 L 270 260 Q 249 272 222 285 Q 201 295 203 316 Q 218 364 232 412 L 243 450 Z" fill="black" /></g></svg>