<?xml version='1.0' encoding='utf-8'?>
<svg xmlns="http://www.w3.org/2000/svg" version="1.1" viewBox="0 0 1024 1024"><g transform="scale(1, -1) translate(0, -900)"><path d="M 775 491 Q 790 466 805 458 Q 814 451 829 469 Q 839 484 867 566 Q 876 596 899 618 Q 912 630 902 643 Q 889 659 848 686 Q 829 696 814 690 Q 780 683 730 678 L 680 671 Q 643 668 602 662 L 559 657 Q 510 651 471 647 C 441 644 455 611 485 614 Q 489 614 494 614 Q 524 621 564 627 L 603 633 Q 637 639 678 642 L 724 647 Q 742 650 762 650 Q 799 654 811 640 Q 820 630 818 621 Q 799 522 783 515 C 770 498 770 498 775 491 Z" fill="black" /></g></svg>