<?xml version='1.0' encoding='utf-8'?>
<svg xmlns="http://www.w3.org/2000/svg" version="1.1" viewBox="0 0 1024 1024"><g transform="scale(1, -1) translate(0, -900)"><path d="M 260 245 Q 194 161 130 126 Q 115 116 100 106 Q 88 99 99 95 Q 112 94 145 105 Q 197 126 237 160 Q 271 185 294 216 L 323 264 Q 324 268 328 271 Q 352 313 385 443 Q 391 474 406 502 Q 416 518 401 527 Q 358 563 335 555 Q 322 552 327 538 Q 333 525 335 511 L 335 484 Q 334 468 332 446 Q 326 362 283 284 L 260 245 Z" fill="black" /></g></svg>