<?xml version='1.0' encoding='utf-8'?>
<svg xmlns="http://www.w3.org/2000/svg" version="1.1" viewBox="0 0 1024 1024"><g transform="scale(1, -1) translate(0, -900)"><path d="M 315 215 Q 339 196 368 168 Q 384 153 395 152 Q 402 153 409 164 Q 415 176 409 206 Q 400 239 347 263 L 304 283 Q 282 293 250 307 Q 231 316 231 335 Q 246 380 261 424 L 273 464 Q 298 549 320 636 Q 329 684 348 708 Q 360 730 353 743 Q 340 761 293 788 Q 272 801 256 792 Q 243 785 253 769 Q 289 715 228 456 L 218 412 Q 208 369 187 335 Q 177 313 199 295 Q 242 273 279 244 L 315 215 Z" fill="black" /></g></svg>