<?xml version='1.0' encoding='utf-8'?>
<svg xmlns="http://www.w3.org/2000/svg" version="1.1" viewBox="0 0 1024 1024"><g transform="scale(1, -1) translate(0, -900)"><path d="M 256 224 Q 247 212 238 198 Q 207 150 147 112 Q 129 100 113 91 Q 97 82 93 77 Q 90 71 101 69 Q 140 63 211 113 Q 259 147 290 191 L 317 240 Q 354 310 393 460 Q 400 478 404 487 Q 413 505 396 518 Q 359 549 344 550 Q 325 550 335 527 Q 341 508 340 485 L 336 456 Q 330 411 304 328 Q 294 297 278 264 L 256 224 Z" fill="black" /></g></svg>