<?xml version='1.0' encoding='utf-8'?>
<svg xmlns="http://www.w3.org/2000/svg" version="1.1" viewBox="0 0 1024 1024"><g transform="scale(1, -1) translate(0, -900)"><path d="M 511 430 Q 510 431 513 431 Q 777 498 801 476 Q 811 470 814 424 Q 826 270 818 94 Q 818 69 808 61 Q 795 54 737 79 Q 721 83 722 75 Q 722 68 733 60 Q 784 11 808 -26 Q 827 -45 839 -44 Q 851 -41 863 -15 Q 879 27 882 89 Q 869 312 870 396 Q 871 432 882 454 Q 892 473 883 484 Q 874 499 830 521 Q 814 530 795 525 Q 755 512 673 493 L 662 491 Q 577 476 487 464 C 457 460 482 422 511 430 Z" fill="black" /></g></svg>