<?xml version='1.0' encoding='utf-8'?>
<svg xmlns="http://www.w3.org/2000/svg" version="1.1" viewBox="0 0 1024 1024"><g transform="scale(1, -1) translate(0, -900)"><path d="M 537 404 Q 543 423 550 436 Q 557 451 549 461 Q 534 476 521 483 L 519 483 C 495 500 485 504 489 474 Q 502 443 477 341 Q 474 325 443 294 Q 431 281 439 269 Q 448 257 468 242 Q 478 233 494 244 Q 587 289 802 303 Q 854 306 844 245 Q 817 71 783 48 Q 773 42 708 62 Q 692 69 691 62 Q 690 53 707 38 Q 738 1 749 -30 Q 764 -58 786 -42 Q 840 -9 863 53 Q 866 65 902 226 Q 909 263 928 280 Q 943 296 936 306 Q 924 319 876 344 Q 851 357 779 342 Q 572 312 534 302 Q 512 293 511 310 Q 518 346 527 373 L 537 404 Z" fill="black" /></g></svg>