<?xml version='1.0' encoding='utf-8'?>
<svg xmlns="http://www.w3.org/2000/svg" version="1.1" viewBox="0 0 1024 1024"><g transform="scale(1, -1) translate(0, -900)"><path d="M 486 247 Q 505 287 519 304 Q 529 311 526 321 Q 522 334 494 357 C 471 377 451 381 457 352 L 458 351 Q 465 329 457 305 Q 445 271 434 242 L 418 204 Q 402 171 385 149 Q 375 131 377 119 Q 380 109 397 105 Q 460 90 491 68 L 537 42 Q 589 11 660 -43 Q 687 -62 703 -61 Q 724 -60 724 -41 Q 723 -20 693 24 Q 678 51 574 85 L 528 101 Q 477 120 441 127 Q 422 131 432 148 Q 451 185 466 212 L 486 247 Z" fill="black" /></g></svg>