<?xml version='1.0' encoding='utf-8'?>
<svg xmlns="http://www.w3.org/2000/svg" version="1.1" viewBox="0 0 1024 1024"><g transform="scale(1, -1) translate(0, -900)"><path d="M 718 283 Q 731 261 745 254 Q 754 247 768 265 Q 778 281 806 375 Q 815 403 836 424 Q 848 434 838 447 Q 825 462 788 486 Q 773 493 707 479 Q 698 479 601 460 Q 559 451 526 446 C 496 441 507 411 537 416 Q 541 416 546 417 Q 735 465 754 445 Q 763 435 761 423 Q 743 333 735 319 Q 731 310 722 307 C 709 296 709 296 718 283 Z" fill="black" /></g></svg>