<?xml version='1.0' encoding='utf-8'?>
<svg xmlns="http://www.w3.org/2000/svg" version="1.1" viewBox="0 0 1024 1024"><g transform="scale(1, -1) translate(0, -900)"><path d="M 409 491 L 410 491 Q 401 500 385 507 Q 366 520 349 515 Q 336 511 341 498 Q 344 491 347 482 L 350 454 Q 350 355 297 255 L 273 217 Q 210 142 161 117 Q 146 107 132 98 Q 120 91 131 87 Q 144 86 175 97 Q 224 116 261 147 Q 286 166 305 189 L 335 235 Q 365 290 398 409 Q 402 439 418 464 Q 427 480 413 488 Q 412 489 409 491 Z" fill="black" /></g></svg>