<?xml version='1.0' encoding='utf-8'?>
<svg xmlns="http://www.w3.org/2000/svg" version="1.1" viewBox="0 0 1024 1024"><g transform="scale(1, -1) translate(0, -900)"><path d="M 272 463 Q 291 539 309 618 Q 318 664 335 688 Q 347 709 340 721 Q 327 737 282 764 Q 263 774 246 767 Q 234 760 244 744 Q 275 702 228 452 L 218 407 Q 206 350 184 310 Q 174 289 194 273 Q 237 248 273 217 L 305 189 Q 380 125 382 123 Q 389 123 396 134 Q 403 144 397 174 Q 391 204 335 235 L 297 255 Q 275 268 244 282 Q 225 292 226 311 Q 244 366 260 421 L 272 463 Z" fill="black" /></g></svg>