<?xml version='1.0' encoding='utf-8'?>
<svg xmlns="http://www.w3.org/2000/svg" version="1.1" viewBox="0 0 1024 1024"><g transform="scale(1, -1) translate(0, -900)"><path d="M 258 512 Q 306 695 315 706 Q 328 730 322 744 Q 307 762 261 788 Q 240 801 224 791 Q 211 784 221 768 Q 251 723 210 503 L 201 456 Q 188 404 171 371 Q 161 349 182 332 Q 228 307 265 275 L 301 245 Q 326 223 360 189 Q 376 174 385 173 Q 394 173 400 184 Q 407 196 401 226 Q 395 259 329 293 L 286 315 Q 264 327 234 341 Q 213 351 215 372 Q 231 421 246 471 L 258 512 Z" fill="black" /></g></svg>