<?xml version='1.0' encoding='utf-8'?>
<svg xmlns="http://www.w3.org/2000/svg" version="1.1" viewBox="0 0 1024 1024"><g transform="scale(1, -1) translate(0, -900)"><path d="M 210 448 Q 231 542 248 639 Q 255 681 270 703 Q 280 722 273 733 Q 260 748 219 770 Q 201 780 187 772 Q 177 765 185 752 Q 218 707 173 441 L 167 404 Q 163 389 161 373 Q 151 321 129 281 Q 122 262 139 247 Q 179 225 211 195 L 239 170 Q 264 148 293 117 Q 306 104 315 102 Q 322 102 328 112 Q 334 121 330 148 Q 324 179 264 211 L 231 229 Q 210 241 184 254 Q 165 264 168 282 Q 186 348 202 414 L 210 448 Z" fill="black" /></g></svg>