<?xml version='1.0' encoding='utf-8'?>
<svg xmlns="http://www.w3.org/2000/svg" version="1.1" viewBox="0 0 1024 1024"><g transform="scale(1, -1) translate(0, -900)"><path d="M 236 424 Q 261 518 284 613 Q 293 656 309 679 Q 321 698 314 710 Q 301 726 258 751 Q 240 763 225 755 Q 213 748 222 733 Q 255 685 196 415 L 185 367 Q 175 319 153 282 Q 144 260 165 245 Q 219 218 240 198 L 275 171 Q 312 138 325 135 Q 332 136 338 146 Q 342 156 336 185 Q 329 209 308 221 Q 307 222 304 222 L 264 239 Q 243 248 211 258 Q 193 265 193 282 Q 209 331 224 381 L 236 424 Z" fill="black" /></g></svg>