<?xml version='1.0' encoding='utf-8'?>
<svg xmlns="http://www.w3.org/2000/svg" version="1.1" viewBox="0 0 1024 1024"><g transform="scale(1, -1) translate(0, -900)"><path d="M 757 49 Q 767 27 789 -17 Q 798 -33 807 -32 Q 820 -29 829 -6 Q 856 52 858 128 Q 862 176 867 231 Q 871 277 892 304 Q 908 323 896 335 Q 875 354 831 374 Q 815 383 783 371 Q 651 328 448 316 C 418 314 452 279 482 281 Q 492 280 504 282 Q 606 301 764 324 Q 792 328 804 316 Q 828 274 798 87 Q 797 69 789 68 Q 788 67 783 68 C 762 47 755 54 757 49 Z" fill="black" /></g></svg>