<?xml version='1.0' encoding='utf-8'?>
<svg xmlns="http://www.w3.org/2000/svg" version="1.1" viewBox="0 0 1024 1024"><g transform="scale(1, -1) translate(0, -900)"><path d="M 257 467 Q 279 545 299 624 Q 309 672 328 696 Q 340 718 333 731 Q 320 749 273 777 Q 254 790 236 781 Q 223 774 233 757 Q 266 709 210 457 L 198 408 Q 197 404 196 397 Q 184 351 163 315 Q 153 293 173 276 Q 222 248 262 210 L 298 177 Q 326 150 363 111 Q 379 96 388 94 Q 397 94 403 105 Q 410 115 406 146 Q 402 174 380 189 Q 361 202 326 225 L 284 250 Q 257 266 225 284 Q 206 294 208 315 Q 226 367 243 422 L 257 467 Z" fill="black" /></g></svg>