<?xml version='1.0' encoding='utf-8'?>
<svg xmlns="http://www.w3.org/2000/svg" version="1.1" viewBox="0 0 1024 1024"><g transform="scale(1, -1) translate(0, -900)"><path d="M 797 384 Q 846 394 891 400 Q 901 399 909 411 Q 910 421 889 431 Q 853 452 808 433 L 754 418 Q 718 409 681 399 L 638 388 Q 607 382 580 376 L 537 368 Q 495 364 483 360 L 443 354 Q 418 351 395 347 Q 368 343 390 327 Q 423 303 449 311 L 486 320 Q 511 327 539 332 L 580 341 Q 605 348 637 354 L 678 363 Q 708 370 745 376 Q 746 377 749 376 L 797 384 Z" fill="black" /></g></svg>