<?xml version='1.0' encoding='utf-8'?>
<svg xmlns="http://www.w3.org/2000/svg" version="1.1" viewBox="0 0 1024 1024"><g transform="scale(1, -1) translate(0, -900)"><path d="M 880 538 Q 896 115 873 75 Q 867 68 846 73 Q 818 77 788 83 Q 766 89 769 79 Q 832 30 867 -6 Q 882 -25 898 -30 Q 908 -34 916 -23 Q 958 29 954 87 Q 938 301 930 648 Q 927 709 941 736 Q 954 757 941 768 Q 917 787 879 802 Q 860 809 844 802 Q 796 774 720 760 C 691 754 719 720 748 728 Q 781 737 833 752 Q 851 756 860 746 Q 873 733 879 566 L 880 538 Z" fill="black" /></g></svg>