<?xml version='1.0' encoding='utf-8'?>
<svg xmlns="http://www.w3.org/2000/svg" version="1.1" viewBox="0 0 1024 1024"><g transform="scale(1, -1) translate(0, -900)"><path d="M 752 363 Q 768 338 785 329 Q 795 322 810 343 Q 822 362 848 471 Q 857 501 879 525 Q 892 537 880 550 Q 865 566 824 591 Q 805 601 790 595 Q 760 585 716 577 Q 661 567 589 552 Q 540 540 496 532 C 467 526 483 493 512 502 Q 549 514 604 525 L 660 536 Q 768 561 787 547 Q 799 538 796 522 Q 780 416 765 393 C 753 366 752 363 752 363 Z" fill="black" /></g></svg>