<?xml version='1.0' encoding='utf-8'?>
<svg xmlns="http://www.w3.org/2000/svg" version="1.1" viewBox="0 0 1024 1024"><g transform="scale(1, -1) translate(0, -900)"><path d="M 624 227 Q 615 -34 638 -69 Q 644 -76 651 -74 Q 667 -64 671 -9 Q 672 19 674 234 L 674 271 Q 674 308 675 354 L 676 389 Q 676 405 677 424 Q 677 439 678 450 L 684 490 Q 685 496 687 501 Q 690 519 676 527 Q 669 533 660 536 C 634 551 588 550 604 525 Q 608 518 613 511 Q 622 495 624 470 L 625 439 Q 625 411 625 378 L 625 347 Q 625 310 624 265 L 624 227 Z" fill="black" /></g></svg>