<?xml version='1.0' encoding='utf-8'?>
<svg xmlns="http://www.w3.org/2000/svg" version="1.1" viewBox="0 0 1024 1024"><g transform="scale(1, -1) translate(0, -900)"><path d="M 266 474 Q 284 562 298 651 Q 304 697 319 722 Q 329 744 322 756 Q 307 772 261 795 Q 240 805 225 795 Q 213 788 225 773 Q 262 725 224 464 L 217 417 Q 211 366 191 329 Q 182 308 210 286 Q 243 262 270 234 L 301 202 Q 322 180 348 147 Q 361 131 371 129 Q 378 128 386 138 Q 393 148 391 178 Q 387 214 328 249 L 291 273 Q 272 285 250 298 Q 229 311 233 333 Q 246 382 257 432 L 266 474 Z" fill="black" /></g></svg>