<?xml version='1.0' encoding='utf-8'?>
<svg xmlns="http://www.w3.org/2000/svg" version="1.1" viewBox="0 0 1024 1024"><g transform="scale(1, -1) translate(0, -900)"><path d="M 635 248 Q 635 245 637 241 Q 650 204 648 169 Q 641 43 653 8 Q 657 -14 677 -31 Q 755 -91 910 -56 L 916 -54 Q 952 -44 986 -18 Q 1005 -3 993 23 Q 980 51 964 136 Q 964 152 957 158 Q 951 162 946 143 Q 915 52 896 24 Q 886 11 854 3 Q 785 -15 726 4 Q 704 14 697 27 Q 676 70 700 216 Q 706 241 673 256 C 648 272 626 277 635 248 Z" fill="black" /></g></svg>