<?xml version='1.0' encoding='utf-8'?>
<svg xmlns="http://www.w3.org/2000/svg" version="1.1" viewBox="0 0 1024 1024"><g transform="scale(1, -1) translate(0, -900)"><path d="M 264 532 Q 264 533 265 535 Q 272 562 278 588 L 283 613 Q 284 623 287 634 Q 293 682 301 697 C 306 709 306 709 290 722 Q 280 732 262 740 Q 247 750 236 746 Q 226 740 231 729 Q 262 689 215 515 Q 212 506 209 496 Q 188 438 142 370 Q 138 364 136 360 Q 135 350 142 352 Q 175 359 228 447 Q 228 451 231 453 Q 244 480 256 510 L 264 532 Z" fill="black" /></g></svg>