<?xml version='1.0' encoding='utf-8'?>
<svg xmlns="http://www.w3.org/2000/svg" version="1.1" viewBox="0 0 1024 1024"><g transform="scale(1, -1) translate(0, -900)"><path d="M 255 464 Q 276 552 293 641 Q 300 687 319 714 Q 329 736 323 749 Q 308 765 260 792 Q 239 804 223 794 Q 211 787 222 771 Q 256 720 210 454 L 201 406 Q 189 346 167 303 Q 157 281 178 264 Q 221 242 256 212 L 290 185 Q 321 160 364 117 Q 380 102 390 101 Q 397 101 404 112 Q 411 124 405 154 Q 398 190 318 229 L 279 249 Q 257 261 230 274 Q 209 284 211 304 Q 227 362 244 421 L 255 464 Z" fill="black" /></g></svg>