<?xml version='1.0' encoding='utf-8'?>
<svg xmlns="http://www.w3.org/2000/svg" version="1.1" viewBox="0 0 1024 1024"><g transform="scale(1, -1) translate(0, -900)"><path d="M 719 121 Q 732 105 745 98 Q 755 91 767 110 Q 777 129 800 229 Q 807 256 827 277 Q 837 289 828 300 Q 815 315 777 337 Q 762 343 698 329 Q 692 329 594 310 Q 554 303 522 297 C 493 292 513 262 542 269 Q 602 285 711 301 Q 735 304 743 296 Q 753 286 751 273 Q 738 177 731 162 Q 727 153 718 149 C 704 137 704 137 719 121 Z" fill="black" /></g></svg>