<?xml version='1.0' encoding='utf-8'?>
<svg xmlns="http://www.w3.org/2000/svg" version="1.1" viewBox="0 0 1024 1024"><g transform="scale(1, -1) translate(0, -900)"><path d="M 380 147 Q 374 177 350 190 Q 334 200 303 213 L 262 231 Q 240 241 211 252 Q 190 261 191 280 Q 210 344 228 410 L 240 454 Q 264 551 284 648 Q 291 696 310 721 Q 322 743 314 756 Q 301 774 253 800 Q 232 812 216 803 Q 203 796 213 779 Q 249 728 196 444 L 186 395 Q 176 331 147 279 Q 138 255 160 239 Q 202 220 237 193 L 271 168 Q 302 146 341 111 Q 357 98 368 96 Q 375 97 381 108 Q 385 117 383 136 L 380 147 Z" fill="black" /></g></svg>