<?xml version='1.0' encoding='utf-8'?>
<svg xmlns="http://www.w3.org/2000/svg" version="1.1" viewBox="0 0 1024 1024"><g transform="scale(1, -1) translate(0, -900)"><path d="M 734 633 Q 746 614 757 607 Q 764 600 779 616 Q 789 629 814 700 Q 823 727 844 748 Q 854 758 846 771 Q 833 786 796 810 Q 778 817 710 801 Q 685 798 456 757 C 426 752 437 713 465 723 Q 468 727 541 741 L 565 745 Q 601 754 646 760 L 684 767 Q 748 779 767 765 Q 774 759 772 748 Q 753 664 738 658 C 726 644 726 644 734 633 Z" fill="black" /></g></svg>