<?xml version='1.0' encoding='utf-8'?>
<svg xmlns="http://www.w3.org/2000/svg" version="1.1" viewBox="0 0 1024 1024"><g transform="scale(1, -1) translate(0, -900)"><path d="M 761 148 Q 762 141 769 132 Q 782 105 790 106 Q 803 107 817 137 Q 826 155 827 197 Q 811 353 838 390 Q 847 405 840 413 Q 815 435 773 453 Q 760 457 738 451 Q 701 435 650 424 Q 643 423 635 420 L 574 411 Q 564 411 553 409 C 523 406 553 351 577 369 Q 604 397 727 414 Q 746 418 754 407 Q 766 392 766 343 Q 770 201 763 173 Q 762 172 762 170 C 759 153 759 153 761 148 Z" fill="black" /></g></svg>