<?xml version='1.0' encoding='utf-8'?>
<svg xmlns="http://www.w3.org/2000/svg" version="1.1" viewBox="0 0 1024 1024"><g transform="scale(1, -1) translate(0, -900)"><path d="M 252 425 Q 271 524 287 625 Q 293 673 309 699 Q 319 721 312 734 Q 296 752 248 775 Q 227 785 211 776 Q 198 769 210 752 Q 247 707 209 415 L 202 369 Q 202 333 174 274 Q 164 253 204 223 Q 229 204 253 180 L 284 149 Q 309 124 342 85 Q 357 69 366 67 Q 375 66 382 77 Q 389 87 387 118 Q 383 146 362 162 Q 346 175 313 196 L 276 218 Q 258 230 236 242 Q 214 255 218 277 Q 231 331 243 384 L 252 425 Z" fill="black" /></g></svg>