<?xml version='1.0' encoding='utf-8'?>
<svg xmlns="http://www.w3.org/2000/svg" version="1.1" viewBox="0 0 1024 1024"><g transform="scale(1, -1) translate(0, -900)"><path d="M 329 481 Q 329 478 331 473 Q 337 460 347 461 Q 359 462 365 476 Q 378 495 396 584 Q 409 630 440 656 Q 456 671 441 684 Q 425 697 382 719 Q 369 726 312 713 Q 258 707 215 695 Q 178 688 151 682 C 122 676 142 650 172 654 Q 178 654 184 655 Q 205 662 240 668 L 275 673 Q 341 685 354 679 Q 364 675 359 643 Q 341 526 331 500 L 329 481 Z" fill="black" /></g></svg>