<?xml version='1.0' encoding='utf-8'?>
<svg xmlns="http://www.w3.org/2000/svg" version="1.1" viewBox="0 0 1024 1024"><g transform="scale(1, -1) translate(0, -900)"><path d="M 483 109 Q 482 108 482 107 Q 457 74 415 49 Q 403 42 392 34 Q 382 28 391 26 Q 431 22 510 89 Q 510 90 511 91 L 536 128 Q 560 168 579 244 Q 583 263 593 281 Q 600 294 589 300 Q 556 328 538 322 Q 528 319 533 308 Q 537 299 538 289 L 538 271 Q 537 262 537 251 Q 534 215 518 171 Q 511 155 503 139 L 483 109 Z" fill="black" /></g></svg>