<?xml version='1.0' encoding='utf-8'?>
<svg xmlns="http://www.w3.org/2000/svg" version="1.1" viewBox="0 0 1024 1024"><g transform="scale(1, -1) translate(0, -900)"><path d="M 215 357 Q 152 344 99 341 Q 83 341 81 333 Q 80 326 100 316 Q 121 303 138 309 Q 174 319 207 326 L 255 337 Q 282 344 309 347 Q 325 348 329 344 Q 336 331 329 300 Q 314 212 290 176 Q 277 152 256 157 Q 237 164 219 172 Q 201 179 213 160 Q 244 126 258 98 Q 273 82 288 94 Q 339 127 367 256 Q 373 316 394 341 Q 404 351 399 360 Q 392 370 351 389 Q 335 396 318 387 Q 305 380 264 369 L 215 357 Z" fill="black" /></g></svg>