<?xml version='1.0' encoding='utf-8'?>
<svg xmlns="http://www.w3.org/2000/svg" version="1.1" viewBox="0 0 1024 1024"><g transform="scale(1, -1) translate(0, -900)"><path d="M 824 498 Q 824 494 827 486 Q 831 473 843 473 Q 856 474 862 488 Q 878 512 903 625 Q 916 673 950 701 Q 968 716 952 730 Q 936 745 890 769 Q 878 776 817 763 Q 799 763 694 742 Q 651 735 618 729 C 588 724 610 690 639 697 Q 679 707 719 714 L 751 719 Q 839 738 860 727 Q 872 720 865 683 Q 835 524 826 513 C 822 504 822 504 824 498 Z" fill="black" /></g></svg>