<?xml version='1.0' encoding='utf-8'?>
<svg xmlns="http://www.w3.org/2000/svg" version="1.1" viewBox="0 0 1024 1024"><g transform="scale(1, -1) translate(0, -900)"><path d="M 484 281 Q 511 356 518 364 Q 528 379 523 388 Q 514 401 487 419 C 462 436 442 441 453 413 Q 453 412 455 409 Q 468 387 446 276 L 436 239 Q 418 185 410 172 Q 403 154 420 143 Q 453 131 483 109 L 511 91 Q 524 84 539 71 Q 552 62 559 63 Q 565 64 567 72 Q 571 79 564 100 Q 557 119 541 126 Q 538 127 536 128 L 503 139 Q 484 146 454 154 Q 441 158 441 170 Q 457 210 474 251 L 484 281 Z" fill="black" /></g></svg>