<?xml version='1.0' encoding='utf-8'?>
<svg xmlns="http://www.w3.org/2000/svg" version="1.1" viewBox="0 0 1024 1024"><g transform="scale(1, -1) translate(0, -900)"><path d="M 255 215 Q 306 170 311 168 Q 318 169 324 179 Q 331 189 325 217 Q 319 245 285 263 L 247 282 Q 225 292 194 307 Q 175 316 177 335 Q 193 386 207 437 L 217 476 Q 236 555 254 637 Q 261 680 278 703 Q 288 724 282 735 Q 269 751 226 775 Q 207 785 192 777 Q 182 771 191 756 Q 221 714 177 467 L 168 424 Q 140 340 137 334 Q 128 313 147 298 Q 195 271 224 242 L 255 215 Z" fill="black" /></g></svg>