<?xml version='1.0' encoding='utf-8'?>
<svg xmlns="http://www.w3.org/2000/svg" version="1.1" viewBox="0 0 1024 1024"><g transform="scale(1, -1) translate(0, -900)"><path d="M 722 4 Q 732 -18 753 -61 Q 760 -77 770 -76 Q 785 -73 793 -50 Q 808 -17 821 100 Q 821 148 848 184 Q 864 202 853 213 Q 834 232 793 251 Q 777 261 747 251 Q 638 215 491 206 C 461 204 475 168 505 173 Q 508 173 514 174 Q 550 181 597 188 L 640 194 Q 748 215 761 200 Q 767 197 768 181 Q 769 109 759 38 Q 759 25 754 24 Q 751 23 743 25 C 717 15 717 15 722 4 Z" fill="black" /></g></svg>