<?xml version='1.0' encoding='utf-8'?>
<svg xmlns="http://www.w3.org/2000/svg" version="1.1" viewBox="0 0 1024 1024"><g transform="scale(1, -1) translate(0, -900)"><path d="M 255 430 Q 285 542 308 659 Q 315 704 332 728 Q 344 750 336 762 Q 323 778 277 803 Q 258 815 242 806 Q 230 799 240 783 Q 259 758 253 694 Q 244 555 216 422 L 207 381 Q 197 342 180 310 Q 170 291 188 274 Q 228 244 261 209 L 292 175 Q 317 148 348 108 Q 361 92 370 89 Q 377 88 385 98 Q 392 108 392 138 Q 391 171 321 219 L 283 246 Q 264 261 238 277 Q 217 290 222 312 Q 234 352 245 391 L 255 430 Z" fill="black" /></g></svg>