<?xml version='1.0' encoding='utf-8'?>
<svg xmlns="http://www.w3.org/2000/svg" version="1.1" viewBox="0 0 1024 1024"><g transform="scale(1, -1) translate(0, -900)"><path d="M 657 652 Q 787 679 826 675 Q 839 671 839 665 Q 839 662 803 604 Q 796 594 801 588 Q 807 584 822 593 Q 873 618 913 625 Q 947 632 947 639 Q 946 648 886 699 Q 865 718 794 703 Q 709 693 659 681 L 619 674 Q 585 670 547 663 Q 505 656 463 651 Q 459 651 459 650 C 429 645 439 631 468 622 Q 489 613 510 618 Q 558 634 609 644 Q 613 645 620 646 L 657 652 Z" fill="black" /></g></svg>