<?xml version='1.0' encoding='utf-8'?>
<svg xmlns="http://www.w3.org/2000/svg" version="1.1" viewBox="0 0 1024 1024"><g transform="scale(1, -1) translate(0, -900)"><path d="M 229 419 Q 254 531 274 645 Q 281 688 296 712 Q 306 733 299 744 Q 286 760 242 783 Q 223 793 208 784 Q 198 777 207 763 Q 243 715 192 410 L 183 366 Q 173 324 156 289 Q 149 268 167 254 Q 206 232 237 204 L 270 176 Q 319 127 331 124 Q 338 125 344 135 Q 351 145 345 173 Q 339 203 296 224 L 258 242 Q 240 252 214 263 Q 195 273 197 291 Q 209 336 220 380 L 229 419 Z" fill="black" /></g></svg>