<?xml version='1.0' encoding='utf-8'?>
<svg xmlns="http://www.w3.org/2000/svg" version="1.1" viewBox="0 0 1024 1024"><g transform="scale(1, -1) translate(0, -900)"><path d="M 529 573 Q 505 588 486 592 Q 474 596 466 591 Q 462 587 474 574 Q 495 544 508 451 L 513 407 Q 541 169 492 90 Q 489 83 482 81 Q 467 77 356 100 Q 349 100 346 97 Q 345 93 354 85 Q 429 30 470 -13 Q 483 -26 492 -24 Q 505 -23 527 -1 Q 575 44 576 136 Q 583 239 562 411 L 557 457 Q 551 505 549 542 Q 549 554 544 561 L 529 573 Z" fill="black" /></g></svg>