<?xml version='1.0' encoding='utf-8'?>
<svg xmlns="http://www.w3.org/2000/svg" version="1.1" viewBox="0 0 1024 1024"><g transform="scale(1, -1) translate(0, -900)"><path d="M 541 536 Q 577 555 663 625 Q 700 656 724 662 Q 766 675 769 692 Q 772 704 732 747 Q 696 787 684 785 Q 678 788 665 783 Q 599 759 341 723 Q 305 723 286 726 Q 265 733 257 719 Q 253 712 262 699 Q 272 683 300 664 Q 322 645 334 646 Q 344 645 367 659 Q 425 698 602 728 Q 651 740 657 735 Q 663 731 662 723 Q 661 714 542 568 Q 530 558 524 548 C 504 525 515 521 541 536 Z" fill="black" /></g></svg>