<?xml version='1.0' encoding='utf-8'?>
<svg xmlns="http://www.w3.org/2000/svg" version="1.1" viewBox="0 0 1024 1024"><g transform="scale(1, -1) translate(0, -900)"><path d="M 508 451 Q 499 452 299 429 Q 227 419 121 418 Q 108 418 106 406 Q 105 393 124 378 Q 142 365 174 353 Q 186 349 204 357 Q 222 363 297 375 Q 393 397 513 407 L 562 411 Q 769 430 888 417 Q 937 417 940 418 Q 940 421 942 421 Q 949 434 937 447 Q 864 513 800 491 Q 739 479 675 469 Q 605 463 557 457 L 508 451 Z" fill="black" /></g></svg>