<?xml version='1.0' encoding='utf-8'?>
<svg xmlns="http://www.w3.org/2000/svg" version="1.1" viewBox="0 0 1024 1024"><g transform="scale(1, -1) translate(0, -900)"><path d="M 536 548 Q 573 570 653 632 Q 690 663 715 670 Q 757 682 760 700 Q 763 710 724 754 Q 688 794 675 792 Q 671 796 657 790 Q 612 772 328 728 Q 285 725 261 730 Q 242 737 233 723 Q 229 716 238 703 Q 248 687 276 668 Q 298 650 310 650 Q 322 649 344 663 Q 404 705 613 740 Q 644 746 649 743 Q 655 739 654 731 Q 653 719 530 576 Q 523 569 518 563 C 498 541 511 532 536 548 Z" fill="black" /></g></svg>