<?xml version='1.0' encoding='utf-8'?>
<svg xmlns="http://www.w3.org/2000/svg" version="1.1" viewBox="0 0 1024 1024"><g transform="scale(1, -1) translate(0, -900)"><path d="M 455 235 Q 462 254 471 268 Q 478 275 476 284 Q 470 297 433 321 Q 423 330 413 325 Q 400 321 408 307 Q 417 286 403 229 L 393 196 Q 384 174 375 158 Q 366 142 370 130 Q 373 120 389 118 Q 434 108 482 83 L 525 61 Q 594 24 698 -56 Q 722 -75 739 -75 Q 758 -74 759 -55 Q 758 -36 731 7 Q 713 37 551 97 L 506 114 Q 463 130 431 138 Q 409 142 420 162 Q 430 184 438 201 L 455 235 Z" fill="black" /></g></svg>