<?xml version='1.0' encoding='utf-8'?>
<svg xmlns="http://www.w3.org/2000/svg" version="1.1" viewBox="0 0 1024 1024"><g transform="scale(1, -1) translate(0, -900)"><path d="M 526 318 Q 463 355 401 401 Q 275 497 215 487 Q 208 487 201 484 Q 191 480 197 470 Q 203 461 214 461 Q 266 458 327 418 Q 361 396 398 369 Q 461 315 527 269 L 581 233 Q 590 229 599 222 Q 726 140 765 136 Q 831 136 956 165 Q 968 171 971 179 Q 974 188 953 189 Q 878 205 795 214 Q 696 229 580 288 L 526 318 Z" fill="black" /></g></svg>