<?xml version='1.0' encoding='utf-8'?>
<svg xmlns="http://www.w3.org/2000/svg" version="1.1" viewBox="0 0 1024 1024"><g transform="scale(1, -1) translate(0, -900)"><path d="M 954 51 Q 976 67 956 106 Q 937 173 935 258 Q 935 270 927 279 Q 917 286 911 261 Q 901 228 886 174 Q 873 122 858 102 Q 854 89 830 84 Q 793 74 743 78 Q 706 79 681 90 Q 648 102 635 145 Q 614 214 626 447 Q 635 669 663 712 Q 679 758 589 786 Q 583 789 578 789 Q 557 793 548 783 Q 539 773 547 763 Q 563 748 571 725 Q 575 698 571 540 Q 559 228 583 133 Q 592 84 637 50 Q 706 -4 869 15 Q 881 18 893 20 Q 936 32 954 51 Z" fill="black" /></g></svg>