<?xml version='1.0' encoding='utf-8'?>
<svg xmlns="http://www.w3.org/2000/svg" version="1.1" viewBox="0 0 1024 1024"><g transform="scale(1, -1) translate(0, -900)"><path d="M 362 423 Q 344 487 326 503 L 311 515 Q 301 522 289 526 Q 270 533 260 528 Q 247 522 260 509 Q 294 482 302 439 Q 308 417 314 394 L 322 354 Q 349 195 311 98 Q 298 76 266 83 Q 235 90 208 98 Q 198 101 201 90 Q 205 83 223 70 Q 260 36 273 10 Q 282 -8 297 -6 Q 310 -5 337 20 Q 412 93 376 359 Q 373 375 370 389 L 362 423 Z" fill="black" /></g></svg>