<?xml version='1.0' encoding='utf-8'?>
<svg xmlns="http://www.w3.org/2000/svg" version="1.1" viewBox="0 0 1024 1024"><g transform="scale(1, -1) translate(0, -900)"><path d="M 680 340 Q 668 389 649 412 L 633 426 Q 621 433 607 439 Q 586 446 576 440 Q 563 433 576 420 Q 612 393 620 348 Q 621 339 625 329 L 633 292 Q 654 142 622 64 Q 607 43 579 52 Q 546 62 516 73 Q 506 77 509 66 Q 513 57 531 43 Q 570 4 581 -24 Q 590 -42 606 -41 Q 619 -40 648 -15 Q 723 57 689 296 Q 688 299 688 300 L 680 340 Z" fill="black" /></g></svg>