<?xml version='1.0' encoding='utf-8'?>
<svg xmlns="http://www.w3.org/2000/svg" version="1.1" viewBox="0 0 1024 1024"><g transform="scale(1, -1) translate(0, -900)"><path d="M 330 679 Q 369 787 382 802 Q 392 820 388 830 Q 378 846 341 871 Q 325 883 311 877 Q 301 871 307 858 Q 325 824 287 672 L 276 634 Q 275 631 274 628 Q 265 601 252 582 Q 245 561 264 547 Q 295 537 322 522 L 359 502 Q 387 487 423 462 Q 439 453 446 453 Q 453 454 456 465 Q 460 475 451 499 Q 441 523 391 539 L 347 551 Q 328 558 304 563 Q 291 567 288 579 Q 303 612 316 645 L 330 679 Z" fill="black" /></g></svg>