<?xml version='1.0' encoding='utf-8'?>
<svg xmlns="http://www.w3.org/2000/svg" version="1.1" viewBox="0 0 1024 1024"><g transform="scale(1, -1) translate(0, -900)"><path d="M 689 593 Q 720 639 747 706 Q 757 731 775 749 Q 791 764 780 775 Q 768 785 740 796 Q 718 803 694 790 Q 672 778 639 766 Q 608 754 553 743 Q 541 742 538 735 Q 534 728 551 723 Q 584 713 626 729 Q 672 751 681 751 Q 699 748 693 729 Q 678 666 651 621 L 626 586 Q 569 526 472 499 Q 459 495 470 487 Q 474 483 510 486 Q 591 493 657 555 L 689 593 Z" fill="black" /></g></svg>