<?xml version='1.0' encoding='utf-8'?>
<svg xmlns="http://www.w3.org/2000/svg" version="1.1" viewBox="0 0 1024 1024"><g transform="scale(1, -1) translate(0, -900)"><path d="M 485 543 Q 527 522 545 529 Q 756 596 772 577 Q 782 559 775 515 Q 759 392 728 340 Q 712 310 686 315 Q 667 321 651 327 Q 627 337 642 312 Q 676 269 691 236 Q 712 212 732 232 Q 765 254 787 297 Q 814 346 832 497 Q 839 551 858 577 Q 871 590 864 601 Q 854 613 801 635 Q 780 644 761 630 Q 739 617 655 595 Q 573 573 503 566 C 473 563 458 555 485 543 Z" fill="black" /></g></svg>