<?xml version='1.0' encoding='utf-8'?>
<svg xmlns="http://www.w3.org/2000/svg" version="1.1" viewBox="0 0 1024 1024"><g transform="scale(1, -1) translate(0, -900)"><path d="M 311 408 Q 301 486 269 523 L 256 536 Q 249 543 239 548 Q 229 555 223 547 Q 219 543 226 529 Q 254 468 264 384 L 267 343 Q 267 336 268 327 Q 272 260 260 199 Q 251 141 236 127 Q 230 124 141 156 Q 131 160 124 157 Q 118 156 133 142 Q 190 84 221 37 Q 237 18 256 25 Q 280 35 301 91 Q 329 193 314 374 L 311 408 Z" fill="black" /></g></svg>