<?xml version='1.0' encoding='utf-8'?>
<svg xmlns="http://www.w3.org/2000/svg" version="1.1" viewBox="0 0 1024 1024"><g transform="scale(1, -1) translate(0, -900)"><path d="M 936 101 Q 923 132 904 222 Q 904 238 897 242 Q 891 245 887 228 Q 865 131 848 100 Q 805 46 651 49 Q 593 50 546 70 Q 504 89 493 115 Q 472 157 477 270 L 480 299 Q 483 348 491 399 C 494 420 494 420 486 425 Q 473 438 451 446 Q 438 450 431 445 Q 424 442 429 425 Q 442 388 440 353 Q 427 101 473 51 Q 488 29 565 4 Q 781 -44 931 63 Q 947 78 936 101 Z" fill="black" /></g></svg>