<?xml version='1.0' encoding='utf-8'?>
<svg xmlns="http://www.w3.org/2000/svg" version="1.1" viewBox="0 0 1024 1024"><g transform="scale(1, -1) translate(0, -900)"><path d="M 349 89 Q 342 82 336 73 Q 309 42 262 14 Q 252 7 237 0 Q 221 -9 206 -18 Q 193 -25 204 -29 Q 276 -36 373 50 Q 377 56 384 62 L 412 99 Q 415 105 420 110 Q 448 150 463 202 Q 482 274 503 304 Q 513 320 500 330 Q 461 369 435 363 Q 422 360 426 346 Q 430 336 431 325 L 431 297 Q 430 284 426 267 Q 414 186 371 120 L 349 89 Z" fill="black" /></g></svg>