<?xml version='1.0' encoding='utf-8'?>
<svg xmlns="http://www.w3.org/2000/svg" version="1.1" viewBox="0 0 1024 1024"><g transform="scale(1, -1) translate(0, -900)"><path d="M 652 347 Q 670 359 790 385 C 819 391 802 407 772 403 Q 688 393 590 369 Q 571 365 584 379 Q 740 524 791 555 Q 806 562 801 575 Q 794 597 762 623 Q 746 636 736 634 Q 724 633 724 616 Q 723 592 682 534 L 662 510 Q 518 369 499 362 Q 483 355 485 339 Q 485 326 509 301 Q 519 288 536 298 Q 573 319 611 333 L 652 347 Z" fill="black" /></g></svg>