<?xml version='1.0' encoding='utf-8'?>
<svg xmlns="http://www.w3.org/2000/svg" version="1.1" viewBox="0 0 1024 1024"><g transform="scale(1, -1) translate(0, -900)"><path d="M 384 62 Q 415 38 458 -1 Q 473 -14 481 -15 Q 488 -14 493 -4 Q 499 5 493 32 Q 487 56 468 67 Q 449 80 412 99 L 371 120 Q 346 133 313 148 Q 297 155 298 171 Q 323 223 348 279 L 363 316 Q 385 379 404 398 Q 417 416 412 427 Q 402 445 365 473 Q 349 486 333 479 Q 321 475 328 460 Q 343 430 312 309 L 299 268 Q 275 196 259 175 Q 249 156 268 139 Q 311 117 349 89 L 384 62 Z" fill="black" /></g></svg>