<?xml version='1.0' encoding='utf-8'?>
<svg xmlns="http://www.w3.org/2000/svg" version="1.1" viewBox="0 0 1024 1024"><g transform="scale(1, -1) translate(0, -900)"><path d="M 623 287 Q 657 386 676 487 L 682 522 Q 688 567 693 610 Q 702 710 710 731 Q 719 746 711 759 Q 695 777 663 791 Q 644 801 630 797 Q 618 790 625 776 Q 649 736 642 652 Q 641 645 641 636 Q 637 569 627 506 L 622 473 Q 619 463 618 452 Q 603 377 582 314 L 567 274 Q 515 148 435 31 Q 431 24 428 18 Q 425 8 436 9 Q 467 15 552 140 Q 576 188 603 236 L 623 287 Z" fill="black" /></g></svg>