<?xml version='1.0' encoding='utf-8'?>
<svg xmlns="http://www.w3.org/2000/svg" version="1.1" viewBox="0 0 1024 1024"><g transform="scale(1, -1) translate(0, -900)"><path d="M 762 218 Q 756 245 725 260 L 711 266 Q 710 267 707 268 Q 688 274 679 268 Q 669 261 681 250 Q 703 235 715 210 L 724 180 Q 742 90 717 40 Q 705 24 682 31 Q 663 35 643 41 Q 633 45 636 34 Q 639 28 651 16 Q 676 -15 683 -36 Q 692 -52 706 -50 Q 718 -49 741 -28 Q 763 -6 775 28 Q 785 71 779 133 Q 776 163 771 185 L 762 218 Z" fill="black" /></g></svg>