<?xml version='1.0' encoding='utf-8'?>
<svg xmlns="http://www.w3.org/2000/svg" version="1.1" viewBox="0 0 1024 1024"><g transform="scale(1, -1) translate(0, -900)"><path d="M 159 505 Q 160 544 163 584 C 164 592 164 592 152 602 Q 136 617 120 624 Q 105 630 99 624 Q 90 620 98 607 Q 132 538 117 377 Q 116 338 83 298 Q 74 286 80 268 Q 89 246 99 237 Q 109 231 119 244 Q 129 265 233 350 Q 236 353 240 355 C 264 373 270 383 241 374 Q 232 374 166 340 Q 156 334 154 345 Q 158 421 159 484 L 159 505 Z" fill="black" /></g></svg>