<?xml version='1.0' encoding='utf-8'?>
<svg xmlns="http://www.w3.org/2000/svg" version="1.1" viewBox="0 0 1024 1024"><g transform="scale(1, -1) translate(0, -900)"><path d="M 365 560 Q 369 561 375 563 Q 415 579 445 588 Q 452 589 454 588 Q 464 575 462 537 Q 461 434 441 387 Q 434 365 415 366 Q 399 370 383 377 Q 365 383 377 365 Q 410 334 425 310 Q 444 294 458 312 Q 503 358 505 486 Q 499 565 514 596 Q 521 606 516 613 Q 509 620 471 631 Q 455 635 443 625 Q 436 618 402 605 Q 377 595 356 588 C 328 578 337 551 365 560 Z" fill="black" /></g></svg>