<?xml version='1.0' encoding='utf-8'?>
<svg xmlns="http://www.w3.org/2000/svg" version="1.1" viewBox="0 0 1024 1024"><g transform="scale(1, -1) translate(0, -900)"><path d="M 189 430 Q 217 414 245 421 Q 440 481 716 504 Q 780 511 801 508 Q 817 505 816 495 Q 794 450 770 405 L 771 404 Q 778 400 797 410 Q 855 443 902 451 Q 941 458 941 469 Q 938 479 870 537 Q 851 555 825 553 Q 779 546 729 538 L 670 529 Q 543 514 331 479 L 294 472 Q 243 466 194 459 C 164 455 161 441 189 430 Z" fill="black" /></g></svg>