<?xml version='1.0' encoding='utf-8'?>
<svg xmlns="http://www.w3.org/2000/svg" version="1.1" viewBox="0 0 1024 1024"><g transform="scale(1, -1) translate(0, -900)"><path d="M 941 17 Q 975 29 962 52 Q 932 110 916 200 Q 910 219 902 223 Q 893 227 891 210 Q 882 107 854 78 Q 845 62 794 53 Q 659 29 611 72 Q 583 106 578 162 Q 574 216 604 290 Q 631 360 669 384 Q 700 406 669 426 Q 647 442 626 456 Q 602 471 583 459 Q 558 450 450 416 L 387 398 Q 257 362 200 352 Q 181 349 180 334 Q 180 324 214 311 Q 247 299 290 322 Q 327 343 380 361 L 441 381 Q 546 420 573 404 Q 589 394 580 365 Q 493 142 569 44 Q 597 14 648 -3 Q 702 -18 800 -12 Q 891 -5 941 17 Z" fill="black" /></g></svg>