<?xml version='1.0' encoding='utf-8'?>
<svg xmlns="http://www.w3.org/2000/svg" version="1.1" viewBox="0 0 1024 1024"><g transform="scale(1, -1) translate(0, -900)"><path d="M 374 69 Q 398 35 445 19 Q 503 0 633 3 Q 831 12 852 46 Q 859 59 849 80 Q 827 134 811 217 Q 805 236 796 240 Q 789 244 784 223 Q 754 105 739 94 Q 730 84 697 76 Q 589 54 521 57 Q 440 63 407 109 Q 391 139 397 261 L 398 285 Q 404 379 416 426 Q 423 448 399 464 Q 353 498 340 491 Q 327 484 337 466 Q 353 427 350 355 Q 349 300 348 236 Q 345 116 374 69 Z" fill="black" /></g></svg>