<?xml version='1.0' encoding='utf-8'?>
<svg xmlns="http://www.w3.org/2000/svg" version="1.1" viewBox="0 0 1024 1024"><g transform="scale(1, -1) translate(0, -900)"><path d="M 936 73 Q 917 122 907 209 Q 906 225 898 230 Q 889 234 886 215 Q 871 109 856 90 Q 816 48 659 46 Q 572 49 535 64 Q 504 80 496 103 Q 477 157 486 254 L 491 294 Q 495 337 508 362 Q 521 392 502 409 Q 477 428 459 437 C 433 453 416 455 426 427 Q 426 426 428 421 Q 446 385 441 282 L 440 244 Q 439 130 448 100 Q 458 57 490 34 Q 559 -15 777 -2 Q 877 4 918 26 Q 948 42 936 73 Z" fill="black" /></g></svg>