<?xml version='1.0' encoding='utf-8'?>
<svg xmlns="http://www.w3.org/2000/svg" version="1.1" viewBox="0 0 1024 1024"><g transform="scale(1, -1) translate(0, -900)"><path d="M 530 56 Q 487 68 443 79 Q 430 82 431 74 Q 432 67 443 58 Q 531 -14 563 -58 Q 579 -77 596 -61 Q 635 -22 633 54 Q 629 103 627 404 L 626 444 Q 625 493 638 527 Q 648 548 629 562 Q 601 584 568 595 Q 549 602 539 594 Q 533 587 545 570 Q 570 528 569 481 Q 569 459 570 436 L 571 400 Q 577 76 554 59 Q 545 52 530 56 Z" fill="black" /></g></svg>