<?xml version='1.0' encoding='utf-8'?>
<svg xmlns="http://www.w3.org/2000/svg" version="1.1" viewBox="0 0 1024 1024"><g transform="scale(1, -1) translate(0, -900)"><path d="M 478 486 Q 496 459 508 367 L 512 329 Q 519 127 495 67 Q 492 61 488 54 Q 485 47 479 45 Q 467 42 377 71 Q 368 72 366 69 Q 365 65 372 56 Q 436 -2 468 -47 Q 478 -62 487 -60 Q 499 -59 519 -40 Q 564 2 568 84 Q 571 126 562 333 L 559 374 L 547 476 Q 544 479 541 481 Q 528 488 518 494 C 492 509 465 513 478 486 Z" fill="black" /></g></svg>