<?xml version='1.0' encoding='utf-8'?>
<svg xmlns="http://www.w3.org/2000/svg" version="1.1" viewBox="0 0 1024 1024"><g transform="scale(1, -1) translate(0, -900)"><path d="M 532 145 Q 607 96 718 -4 Q 748 -31 768 -31 Q 793 -32 795 -8 Q 796 16 765 72 Q 752 100 718 115 Q 631 160 563 191 L 513 213 Q 465 235 429 246 Q 401 253 417 280 Q 429 308 439 332 L 458 373 Q 494 460 514 489 Q 524 498 521 509 Q 514 525 469 557 Q 456 567 443 563 Q 428 559 437 540 Q 455 503 404 367 L 386 324 Q 373 297 360 277 Q 348 256 352 241 Q 355 229 375 225 Q 427 209 483 175 L 532 145 Z" fill="black" /></g></svg>