<?xml version='1.0' encoding='utf-8'?>
<svg xmlns="http://www.w3.org/2000/svg" version="1.1" viewBox="0 0 1024 1024"><g transform="scale(1, -1) translate(0, -900)"><path d="M 948 69 Q 929 124 919 217 Q 918 233 909 238 Q 902 242 898 223 Q 885 106 867 85 Q 836 51 708 50 Q 638 51 608 63 Q 583 76 576 95 Q 557 162 581 257 Q 585 278 592 290 Q 611 335 545 365 C 519 379 498 385 509 357 Q 530 312 526 256 Q 519 94 545 53 Q 573 19 651 6 Q 712 -4 809 0 Q 896 4 930 22 Q 960 38 948 69 Z" fill="black" /></g></svg>