<?xml version='1.0' encoding='utf-8'?>
<svg xmlns="http://www.w3.org/2000/svg" version="1.1" viewBox="0 0 1024 1024"><g transform="scale(1, -1) translate(0, -900)"><path d="M 565 398 Q 634 423 685 433 Q 697 434 699 431 Q 706 422 703 396 Q 699 326 683 293 Q 667 265 641 268 Q 619 274 598 281 Q 576 288 591 266 Q 631 229 649 200 Q 662 184 677 196 Q 722 224 749 337 Q 758 409 777 431 Q 787 441 782 451 Q 775 461 729 479 Q 711 486 695 474 Q 668 453 553 428 C 524 421 537 388 565 398 Z" fill="black" /></g></svg>