<?xml version='1.0' encoding='utf-8'?>
<svg xmlns="http://www.w3.org/2000/svg" version="1.1" viewBox="0 0 1024 1024"><g transform="scale(1, -1) translate(0, -900)"><path d="M 642 215 Q 643 211 645 205 Q 651 189 664 189 Q 679 190 687 206 Q 703 228 733 336 Q 752 391 792 424 Q 813 440 795 458 Q 776 477 722 506 Q 709 515 636 501 Q 576 497 536 488 L 480 480 Q 449 477 420 471 Q 341 458 288 452 C 258 448 295 406 324 415 Q 376 433 481 444 L 535 451 Q 661 472 687 458 Q 699 451 691 412 Q 663 274 649 243 C 640 219 640 219 642 215 Z" fill="black" /></g></svg>