<?xml version='1.0' encoding='utf-8'?>
<svg xmlns="http://www.w3.org/2000/svg" version="1.1" viewBox="0 0 1024 1024"><g transform="scale(1, -1) translate(0, -900)"><path d="M 940 106 Q 924 131 898 214 Q 897 230 889 234 Q 882 237 880 219 Q 862 128 848 99 Q 812 53 689 61 Q 643 62 605 79 Q 571 95 563 116 Q 530 179 565 398 C 568 417 568 417 553 428 Q 543 440 522 447 Q 509 451 501 446 Q 494 442 500 424 Q 513 387 510 349 Q 498 151 515 97 Q 521 70 545 48 Q 633 -22 819 11 Q 832 14 847 18 Q 892 31 936 62 Q 955 80 940 106 Z" fill="black" /></g></svg>