<?xml version='1.0' encoding='utf-8'?>
<svg xmlns="http://www.w3.org/2000/svg" version="1.1" viewBox="0 0 1024 1024"><g transform="scale(1, -1) translate(0, -900)"><path d="M 369 534 Q 335 555 317 555 Q 305 558 297 550 Q 287 544 300 527 Q 321 502 316 291 Q 315 200 298 106 Q 291 51 272 37 Q 253 21 264 3 Q 270 -13 284 -25 Q 299 -38 317 -24 Q 371 33 724 23 Q 826 22 841 25 Q 844 29 845 33 Q 845 48 811 69 Q 778 88 759 87 Q 732 87 569 66 L 519 60 Q 492 59 463 54 Q 363 38 356 49 Q 349 56 354 99 Q 357 121 359 173 Q 359 180 359 199 L 361 222 Q 362 259 368 322 L 370 353 Q 371 366 373 379 Q 379 493 387 508 C 390 523 390 523 369 534 Z" fill="black" /></g></svg>