<?xml version='1.0' encoding='utf-8'?>
<svg xmlns="http://www.w3.org/2000/svg" version="1.1" viewBox="0 0 1024 1024"><g transform="scale(1, -1) translate(0, -900)"><path d="M 511 317 Q 557 330 623 343 Q 638 347 648 353 C 675 365 666 375 636 370 Q 530 354 415 325 Q 405 321 401 324 Q 400 327 405 333 Q 495 426 514 440 Q 527 447 522 461 Q 518 470 493 487 C 469 505 441 508 441 478 Q 447 439 392 377 Q 367 346 319 319 Q 306 309 308 299 Q 312 283 334 262 Q 343 250 356 260 Q 392 288 472 307 L 511 317 Z" fill="black" /></g></svg>