<?xml version='1.0' encoding='utf-8'?>
<svg xmlns="http://www.w3.org/2000/svg" version="1.1" viewBox="0 0 1024 1024"><g transform="scale(1, -1) translate(0, -900)"><path d="M 385 375 Q 403 375 588 410 Q 610 414 615 403 Q 634 351 635 111 Q 635 57 626 42 Q 622 36 601 40 Q 570 49 536 58 Q 515 65 516 55 Q 580 0 617 -40 Q 630 -59 647 -65 Q 657 -69 666 -58 Q 708 -10 707 50 Q 671 341 697 392 Q 710 413 697 423 Q 675 442 636 459 Q 617 466 600 458 Q 549 433 516 424 L 479 415 Q 437 409 376 405 C 346 403 355 371 385 375 Z" fill="black" /></g></svg>