<?xml version='1.0' encoding='utf-8'?>
<svg xmlns="http://www.w3.org/2000/svg" version="1.1" viewBox="0 0 1024 1024"><g transform="scale(1, -1) translate(0, -900)"><path d="M 455 285 Q 455 286 456 286 Q 468 310 479 324 Q 489 331 486 340 Q 482 355 446 384 Q 445 385 444 385 C 421 404 410 411 416 382 Q 415 378 418 372 Q 425 350 417 325 Q 408 301 400 279 L 384 243 Q 371 216 357 197 Q 347 181 349 167 Q 350 157 369 153 Q 420 140 476 111 Q 477 111 479 109 L 527 83 Q 597 43 699 -37 Q 724 -58 742 -57 Q 763 -57 763 -37 Q 763 -18 734 28 Q 722 50 693 63 Q 617 97 556 122 L 507 141 Q 452 163 413 173 Q 394 177 404 196 Q 420 227 434 249 L 455 285 Z" fill="black" /></g></svg>