<?xml version='1.0' encoding='utf-8'?>
<svg xmlns="http://www.w3.org/2000/svg" version="1.1" viewBox="0 0 1024 1024"><g transform="scale(1, -1) translate(0, -900)"><path d="M 706 99 Q 609 92 523 77 L 488 71 Q 412 59 349 42 Q 330 38 336 61 Q 340 85 346 109 Q 352 134 342 148 Q 329 167 304 182 Q 294 189 283 187 Q 273 183 278 164 Q 294 122 285 82 Q 278 45 262 28 Q 243 12 249 -4 Q 259 -20 276 -31 Q 285 -37 309 -25 Q 330 -6 460 25 Q 658 77 705 59 Q 706 60 711 60 C 741 57 736 101 706 99 Z" fill="black" /></g></svg>