<?xml version='1.0' encoding='utf-8'?>
<svg xmlns="http://www.w3.org/2000/svg" version="1.1" viewBox="0 0 1024 1024"><g transform="scale(1, -1) translate(0, -900)"><path d="M 602 375 Q 615 356 629 349 Q 639 342 654 362 Q 669 384 699 510 Q 708 540 730 564 Q 743 576 732 589 Q 717 605 677 631 Q 658 641 642 635 Q 612 628 573 621 Q 521 612 455 600 Q 394 587 347 581 Q 344 581 343 579 C 314 573 356 545 385 553 Q 419 563 471 572 L 512 579 Q 626 600 639 588 Q 651 573 648 559 Q 626 441 616 422 Q 612 410 597 408 Q 593 408 592 406 C 580 402 583 398 602 375 Z" fill="black" /></g></svg>