<?xml version='1.0' encoding='utf-8'?>
<svg xmlns="http://www.w3.org/2000/svg" version="1.1" viewBox="0 0 1024 1024"><g transform="scale(1, -1) translate(0, -900)"><path d="M 635 382 Q 635 433 636 486 L 640 533 Q 644 563 651 586 Q 658 599 656 611 Q 650 620 601 649 Q 580 664 562 650 Q 558 646 564 632 Q 592 592 592 551 Q 592 535 593 518 L 594 475 Q 594 424 595 373 L 593 268 Q 593 121 574 52 Q 565 13 587 -37 Q 593 -53 600 -55 Q 606 -61 612 -54 Q 619 -50 628 -31 Q 635 -9 635 18 Q 634 52 634 305 L 635 382 Z" fill="black" /></g></svg>