<?xml version='1.0' encoding='utf-8'?>
<svg xmlns="http://www.w3.org/2000/svg" version="1.1" viewBox="0 0 1024 1024"><g transform="scale(1, -1) translate(0, -900)"><path d="M 650 21 Q 660 -7 683 -57 Q 692 -76 703 -76 Q 721 -73 732 -45 Q 760 7 781 164 Q 788 216 815 248 Q 834 269 822 284 Q 800 309 750 333 Q 729 345 693 334 Q 602 306 499 290 Q 408 280 272 275 C 242 274 283 228 312 234 Q 312 235 313 235 Q 379 247 464 258 L 505 264 Q 574 274 658 285 Q 695 289 710 272 Q 731 232 697 65 Q 696 50 689 48 Q 686 48 662 61 Q 658 64 653 65 C 628 77 639 49 650 21 Z" fill="black" /></g></svg>