<?xml version='1.0' encoding='utf-8'?>
<svg xmlns="http://www.w3.org/2000/svg" version="1.1" viewBox="0 0 1024 1024"><g transform="scale(1, -1) translate(0, -900)"><path d="M 530 282 Q 740 312 766 284 Q 773 277 769 261 Q 768 93 755 69 Q 751 59 738 62 Q 710 66 680 71 Q 652 74 672 55 Q 736 6 764 -32 Q 774 -45 787 -36 Q 814 -8 822 81 Q 826 234 844 261 Q 860 282 854 290 Q 845 303 795 337 Q 777 352 728 335 Q 671 329 530 311 L 489 306 Q 410 299 367 288 Q 307 276 262 271 C 232 267 255 222 284 229 Q 293 230 304 233 Q 365 254 476 275 Q 482 276 489 276 L 530 282 Z" fill="black" /></g></svg>