<?xml version='1.0' encoding='utf-8'?>
<svg xmlns="http://www.w3.org/2000/svg" version="1.1" viewBox="0 0 1024 1024"><g transform="scale(1, -1) translate(0, -900)"><path d="M 629 103 Q 663 145 685 207 Q 694 237 712 251 Q 727 263 712 278 Q 696 294 666 307 Q 648 314 628 306 Q 576 281 504 272 Q 480 271 470 265 Q 463 259 478 250 Q 500 237 536 248 Q 579 257 620 266 Q 636 270 637 253 Q 637 201 593 132 L 570 104 Q 563 98 557 92 Q 511 55 389 24 Q 376 23 383 14 Q 390 8 415 9 Q 494 16 541 35 Q 572 48 599 71 L 629 103 Z" fill="black" /></g></svg>