<?xml version='1.0' encoding='utf-8'?>
<svg xmlns="http://www.w3.org/2000/svg" version="1.1" viewBox="0 0 1024 1024"><g transform="scale(1, -1) translate(0, -900)"><path d="M 319 295 Q 225 288 126 279 Q 104 278 119 259 Q 134 244 152 238 Q 174 231 190 236 Q 493 308 896 287 Q 897 288 900 287 Q 921 286 926 295 Q 932 307 915 322 Q 857 367 801 352 Q 756 346 703 336 L 646 329 Q 600 325 552 318 L 525 315 Q 518 316 510 314 Q 485 313 459 308 L 439 306 Q 396 303 352 298 L 319 295 Z" fill="black" /></g></svg>