<?xml version='1.0' encoding='utf-8'?>
<svg xmlns="http://www.w3.org/2000/svg" version="1.1" viewBox="0 0 1024 1024"><g transform="scale(1, -1) translate(0, -900)"><path d="M 378 653 Q 369 663 356 670 Q 346 674 338 674 Q 329 670 335 655 Q 354 609 349 561 L 344 530 Q 337 488 316 468 Q 300 455 306 443 Q 313 430 327 420 Q 333 416 352 423 Q 380 447 517 463 Q 568 469 583 465 C 613 462 604 495 574 495 Q 534 495 499 491 L 460 487 Q 423 484 389 477 Q 370 473 375 497 Q 376 516 380 534 L 384 564 Q 387 589 391 613 Q 392 620 392 625 C 393 639 393 639 378 653 Z" fill="black" /></g></svg>