<?xml version='1.0' encoding='utf-8'?>
<svg xmlns="http://www.w3.org/2000/svg" version="1.1" viewBox="0 0 1024 1024"><g transform="scale(1, -1) translate(0, -900)"><path d="M 442 156 Q 494 171 537 175 Q 550 176 552 173 Q 558 164 554 140 Q 547 76 532 47 Q 513 19 487 25 Q 465 32 447 40 Q 423 50 438 25 Q 474 -18 489 -49 Q 501 -67 517 -55 Q 574 -22 609 115 Q 619 151 634 167 Q 640 174 642 179 C 648 187 648 188 622 203 Q 607 213 585 223 Q 570 232 532 215 Q 427 185 363 183 Q 354 183 350 180 C 339 178 339 178 344 173 Q 343 167 364 156 Q 386 141 404 147 Q 405 148 408 148 L 442 156 Z" fill="black" /></g></svg>