<?xml version='1.0' encoding='utf-8'?>
<svg xmlns="http://www.w3.org/2000/svg" version="1.1" viewBox="0 0 1024 1024"><g transform="scale(1, -1) translate(0, -900)"><path d="M 501 247 Q 501 243 504 237 Q 516 198 513 161 Q 507 58 516 29 Q 520 1 548 -24 Q 639 -99 840 -66 Q 853 -63 870 -59 Q 919 -44 966 -11 Q 987 5 971 34 Q 956 59 934 137 Q 933 153 925 158 Q 918 161 915 143 Q 890 58 874 30 Q 858 11 809 -1 Q 758 -14 699 -10 Q 647 -9 607 9 Q 571 25 563 48 Q 545 85 569 209 Q 575 234 541 252 C 517 270 493 276 501 247 Z" fill="black" /></g></svg>