<?xml version='1.0' encoding='utf-8'?>
<svg xmlns="http://www.w3.org/2000/svg" version="1.1" viewBox="0 0 1024 1024"><g transform="scale(1, -1) translate(0, -900)"><path d="M 376 361 Q 440 379 554 393 Q 579 397 587 388 Q 597 376 595 365 Q 580 271 568 244 C 558 216 549 225 553 219 Q 569 194 585 186 Q 595 179 607 198 Q 619 217 642 320 Q 649 347 670 369 Q 674 373 675 378 C 683 390 660 404 635 420 Q 628 424 621 429 Q 606 435 540 421 Q 534 421 433 402 Q 387 392 350 387 C 320 383 347 353 376 361 Z" fill="black" /></g></svg>