<?xml version='1.0' encoding='utf-8'?>
<svg xmlns="http://www.w3.org/2000/svg" version="1.1" viewBox="0 0 1024 1024"><g transform="scale(1, -1) translate(0, -900)"><path d="M 600 533 Q 603 526 611 524 Q 621 524 630 534 Q 636 537 654 558 Q 672 598 703 618 Q 719 628 708 643 Q 695 658 659 683 Q 649 692 580 679 Q 571 679 324 635 C 294 630 317 594 344 606 Q 348 612 411 624 L 433 628 Q 464 635 506 642 L 537 647 Q 618 662 635 652 Q 639 648 634 633 Q 612 576 605 565 Q 601 561 600 554 C 593 539 593 539 600 533 Z" fill="black" /></g></svg>