<?xml version='1.0' encoding='utf-8'?>
<svg xmlns="http://www.w3.org/2000/svg" version="1.1" viewBox="0 0 1024 1024"><g transform="scale(1, -1) translate(0, -900)"><path d="M 344 262 Q 350 256 364 248 Q 389 229 413 235 Q 719 298 734 270 Q 744 254 737 210 Q 722 89 692 36 Q 670 -1 638 6 Q 619 9 602 13 Q 574 23 593 -5 Q 630 -48 647 -82 Q 669 -107 690 -87 Q 724 -65 750 -21 Q 778 30 803 186 Q 812 241 832 268 Q 847 283 840 295 Q 830 308 772 337 Q 750 347 727 334 Q 696 318 579 301 Q 464 282 367 282 C 337 282 319 279 344 262 Z" fill="black" /></g></svg>