<?xml version='1.0' encoding='utf-8'?>
<svg xmlns="http://www.w3.org/2000/svg" version="1.1" viewBox="0 0 1024 1024"><g transform="scale(1, -1) translate(0, -900)"><path d="M 575 60 Q 536 67 499 76 Q 486 77 487 70 Q 488 63 499 55 Q 580 -9 610 -49 Q 625 -65 641 -51 Q 677 -14 676 58 Q 672 152 671 292 L 678 339 Q 679 349 684 356 Q 693 375 676 390 Q 649 412 618 423 Q 599 430 591 423 Q 584 416 595 400 Q 613 369 615 332 L 616 287 Q 620 163 614 94 Q 613 70 600 62 Q 590 55 575 60 Z" fill="black" /></g></svg>