<?xml version='1.0' encoding='utf-8'?>
<svg xmlns="http://www.w3.org/2000/svg" version="1.1" viewBox="0 0 1024 1024"><g transform="scale(1, -1) translate(0, -900)"><path d="M 720 522 Q 721 383 724 145 Q 724 123 711 113 Q 702 109 615 121 Q 579 131 583 120 Q 586 113 607 100 Q 683 51 705 21 Q 730 -13 748 -13 Q 763 -13 776 23 Q 792 71 787 146 Q 771 338 771 530 L 772 582 Q 772 688 789 747 Q 805 778 748 802 Q 714 820 693 813 Q 674 806 692 782 Q 714 754 716 719 Q 717 703 720 570 L 720 522 Z" fill="black" /></g></svg>