<?xml version='1.0' encoding='utf-8'?>
<svg xmlns="http://www.w3.org/2000/svg" version="1.1" viewBox="0 0 1024 1024"><g transform="scale(1, -1) translate(0, -900)"><path d="M 277 316 Q 287 317 302 322 Q 381 341 394 336 Q 403 330 401 309 Q 407 173 395 68 Q 394 46 381 43 Q 372 39 320 45 Q 310 46 310 40 Q 311 33 325 26 Q 356 1 379 -25 Q 392 -38 405 -37 Q 418 -36 436 3 Q 458 42 457 81 Q 453 177 451 265 Q 450 299 465 327 Q 475 340 463 352 Q 447 365 415 377 Q 400 384 350 362 Q 296 346 267 338 C 238 330 248 310 277 316 Z" fill="black" /></g></svg>