<?xml version='1.0' encoding='utf-8'?>
<svg xmlns="http://www.w3.org/2000/svg" version="1.1" viewBox="0 0 1024 1024"><g transform="scale(1, -1) translate(0, -900)"><path d="M 586 520 Q 587 372 588 117 Q 587 93 575 84 Q 565 75 537 82 Q 506 88 476 93 Q 439 103 443 92 Q 444 85 468 70 Q 547 19 568 -12 Q 593 -49 611 -48 Q 627 -49 641 -11 Q 657 38 653 117 Q 638 322 639 526 L 640 576 Q 640 687 658 753 Q 677 786 616 810 Q 579 829 559 821 Q 540 814 557 789 Q 581 761 583 724 Q 584 708 586 569 L 586 520 Z" fill="black" /></g></svg>