<?xml version='1.0' encoding='utf-8'?>
<svg xmlns="http://www.w3.org/2000/svg" version="1.1" viewBox="0 0 1024 1024"><g transform="scale(1, -1) translate(0, -900)"><path d="M 339 375 Q 335 213 325 159 Q 307 69 321 32 Q 324 25 328 14 Q 335 -4 343 -7 Q 349 -14 356 -5 Q 363 -1 373 19 Q 379 34 382 176 Q 382 402 386 407 Q 385 408 384 408 Q 385 484 387 577 Q 388 671 406 734 Q 415 749 411 762 Q 405 772 350 805 Q 328 821 307 806 Q 303 802 309 786 Q 340 740 341 692 Q 342 629 343 556 L 343 526 Q 342 466 340 402 L 339 375 Z" fill="black" /></g></svg>