<?xml version='1.0' encoding='utf-8'?>
<svg xmlns="http://www.w3.org/2000/svg" version="1.1" viewBox="0 0 1024 1024"><g transform="scale(1, -1) translate(0, -900)"><path d="M 727 462 Q 728 329 731 110 Q 730 86 718 78 Q 708 72 621 99 Q 588 111 591 101 Q 592 94 612 79 Q 688 24 708 -8 Q 730 -45 749 -47 Q 764 -47 778 -12 Q 796 34 793 107 Q 777 288 776 469 L 776 513 Q 776 658 792 714 Q 808 744 752 765 Q 718 783 699 776 Q 681 769 698 746 Q 720 721 722 686 Q 723 667 727 501 L 727 462 Z" fill="black" /></g></svg>