<?xml version='1.0' encoding='utf-8'?>
<svg xmlns="http://www.w3.org/2000/svg" version="1.1" viewBox="0 0 1024 1024"><g transform="scale(1, -1) translate(0, -900)"><path d="M 472 435 Q 468 381 479 351 Q 485 339 494 346 Q 512 361 514 444 L 515 484 Q 516 512 517 539 L 518 577 Q 519 599 520 620 L 521 654 Q 522 672 523 688 Q 523 704 524 720 L 527 765 Q 528 796 534 813 Q 541 832 530 844 Q 514 857 486 870 Q 464 879 442 869 Q 430 862 445 846 Q 472 795 473 752 L 476 711 Q 477 681 477 646 L 478 613 Q 478 591 478 564 L 477 530 Q 476 500 474 471 L 472 435 Z" fill="black" /></g></svg>