<?xml version='1.0' encoding='utf-8'?>
<svg xmlns="http://www.w3.org/2000/svg" version="1.1" viewBox="0 0 1024 1024"><g transform="scale(1, -1) translate(0, -900)"><path d="M 702 430 Q 703 424 708 418 Q 718 394 726 395 Q 738 396 751 422 Q 760 435 760 479 Q 751 591 773 617 Q 782 630 775 638 Q 753 659 713 676 Q 700 680 681 673 Q 656 664 541 638 L 517 635 Q 504 635 489 632 C 459 628 483 602 512 609 Q 602 630 668 641 Q 690 645 698 633 Q 707 623 707 584 Q 708 475 703 454 Q 702 453 702 452 C 699 436 699 436 702 430 Z" fill="black" /></g></svg>