<?xml version='1.0' encoding='utf-8'?>
<svg xmlns="http://www.w3.org/2000/svg" version="1.1" viewBox="0 0 1024 1024"><g transform="scale(1, -1) translate(0, -900)"><path d="M 725 448 Q 726 307 728 90 Q 727 65 714 56 Q 705 49 624 61 Q 587 71 591 60 Q 594 53 616 38 Q 689 -11 710 -41 Q 734 -75 751 -76 Q 767 -77 781 -39 Q 797 10 793 89 Q 778 273 777 457 L 776 501 Q 776 679 795 749 Q 813 783 752 806 Q 715 825 695 817 Q 676 810 693 785 Q 717 757 719 720 Q 722 698 724 489 L 725 448 Z" fill="black" /></g></svg>