<?xml version='1.0' encoding='utf-8'?>
<svg xmlns="http://www.w3.org/2000/svg" version="1.1" viewBox="0 0 1024 1024"><g transform="scale(1, -1) translate(0, -900)"><path d="M 637 358 Q 656 333 673 325 Q 683 318 698 340 Q 711 368 733 516 Q 740 546 762 570 Q 775 583 763 596 Q 748 612 707 635 Q 691 642 624 627 Q 588 621 573 618 L 538 612 Q 507 608 473 601 L 436 595 Q 387 588 346 579 C 317 573 336 547 365 553 Q 396 560 435 568 L 470 575 Q 500 582 536 586 L 567 591 Q 651 609 668 590 Q 683 574 681 557 Q 663 410 650 388 C 640 360 635 360 637 358 Z" fill="black" /></g></svg>