<?xml version='1.0' encoding='utf-8'?>
<svg xmlns="http://www.w3.org/2000/svg" version="1.1" viewBox="0 0 1024 1024"><g transform="scale(1, -1) translate(0, -900)"><path d="M 327 413 Q 336 420 338 434 Q 342 462 306 505 Q 278 541 346 601 Q 365 614 351 629 Q 335 642 308 656 Q 292 668 277 656 Q 255 641 225 633 Q 186 620 174 622 Q 168 623 166 620 Q 165 616 171 611 Q 198 596 264 613 Q 273 614 279 604 Q 291 591 277 571 Q 267 559 259 540 Q 255 524 290 469 Q 308 432 309 415 Q 308 414 308 413 C 309 391 309 391 327 413 Z" fill="black" /></g></svg>