<?xml version='1.0' encoding='utf-8'?>
<svg xmlns="http://www.w3.org/2000/svg" version="1.1" viewBox="0 0 1024 1024"><g transform="scale(1, -1) translate(0, -900)"><path d="M 417 712 Q 513 736 586 745 Q 607 749 613 742 Q 617 733 610 717 Q 585 647 558 619 Q 548 612 551 598 Q 555 576 566 569 Q 578 563 590 572 Q 645 603 700 607 Q 727 611 735 599 Q 744 586 742 562 Q 739 498 718 446 Q 712 428 697 421 Q 684 417 607 439 Q 579 449 603 423 Q 642 380 669 343 Q 685 324 704 334 Q 753 361 777 433 Q 804 554 821 578 Q 837 594 825 607 Q 812 619 772 640 Q 748 647 728 640 Q 655 622 636 626 Q 617 627 629 651 Q 663 715 692 736 Q 719 749 712 763 Q 708 775 656 798 Q 638 807 621 798 Q 543 762 273 732 Q 263 733 261 727 Q 258 720 285 700 Q 310 681 340 694 Q 362 700 385 705 L 417 712 Z" fill="black" /></g></svg>