<?xml version='1.0' encoding='utf-8'?>
<svg xmlns="http://www.w3.org/2000/svg" version="1.1" viewBox="0 0 1024 1024"><g transform="scale(1, -1) translate(0, -900)"><path d="M 237 394 Q 246 394 270 402 Q 395 444 770 466 Q 786 466 793 458 Q 802 452 801 410 Q 802 232 778 132 Q 769 92 735 98 Q 662 114 661 114 Q 661 113 660 110 Q 659 109 661 104 Q 664 92 694 57 Q 739 6 752 -24 Q 759 -37 768 -39 Q 786 -43 804 -10 Q 829 27 843 80 Q 860 155 879 379 Q 884 423 898 445 Q 918 469 902 476 Q 884 494 839 515 Q 830 521 824 525 Q 812 529 789 525 Q 713 510 659 503 Q 580 496 510 484 L 463 478 Q 423 474 394 467 Q 308 449 225 437 C 195 432 208 387 237 394 Z" fill="black" /></g></svg>