<?xml version='1.0' encoding='utf-8'?>
<svg xmlns="http://www.w3.org/2000/svg" version="1.1" viewBox="0 0 1024 1024"><g transform="scale(1, -1) translate(0, -900)"><path d="M 952 91 Q 931 146 920 239 Q 919 257 910 262 Q 900 268 897 245 Q 881 130 864 108 Q 834 72 698 71 Q 625 72 594 85 Q 567 98 561 117 Q 548 151 550 241 Q 556 338 575 384 Q 588 417 568 436 Q 513 478 497 474 Q 481 467 488 448 Q 510 408 504 347 Q 497 154 508 114 Q 518 77 546 54 Q 606 9 804 16 Q 895 20 932 39 Q 966 55 952 91 Z" fill="black" /></g></svg>