<?xml version='1.0' encoding='utf-8'?>
<svg xmlns="http://www.w3.org/2000/svg" version="1.1" viewBox="0 0 1024 1024"><g transform="scale(1, -1) translate(0, -900)"><path d="M 363 361 Q 345 145 363 86 Q 367 53 399 27 Q 507 -48 742 -18 Q 770 -12 800 -5 Q 861 11 922 49 Q 943 67 926 95 Q 911 122 886 205 Q 885 221 877 226 Q 870 229 867 210 Q 846 119 829 89 Q 772 26 594 32 Q 524 33 471 55 Q 425 77 412 105 Q 379 178 422 411 Q 428 442 378 463 Q 365 467 356 463 Q 349 459 354 440 Q 367 400 363 361 Z" fill="black" /></g></svg>