<?xml version='1.0' encoding='utf-8'?>
<svg xmlns="http://www.w3.org/2000/svg" version="1.1" viewBox="0 0 1024 1024"><g transform="scale(1, -1) translate(0, -900)"><path d="M 949 132 Q 937 160 924 246 Q 924 261 917 266 Q 911 269 907 253 Q 879 162 861 134 Q 834 103 760 82 Q 589 37 445 89 Q 390 114 375 148 Q 338 226 381 473 Q 387 503 338 523 Q 325 527 317 522 Q 310 518 316 501 Q 328 462 325 425 Q 309 193 328 129 Q 334 93 368 65 Q 480 -10 723 16 Q 766 22 809 33 Q 876 52 943 95 Q 961 108 949 132 Z" fill="black" /></g></svg>