<?xml version='1.0' encoding='utf-8'?>
<svg xmlns="http://www.w3.org/2000/svg" version="1.1" viewBox="0 0 1024 1024"><g transform="scale(1, -1) translate(0, -900)"><path d="M 327 442 Q 303 178 324 105 Q 328 71 364 43 Q 476 -32 729 -6 Q 774 0 818 11 Q 888 30 959 71 Q 977 81 967 105 Q 957 135 950 222 Q 951 237 945 241 Q 941 245 934 229 Q 900 139 879 112 Q 851 81 771 60 Q 689 38 590 40 Q 506 41 442 65 Q 384 90 372 123 Q 333 208 384 489 Q 390 519 342 539 Q 329 543 321 539 Q 314 535 319 517 Q 331 478 327 442 Z" fill="black" /></g></svg>