<?xml version='1.0' encoding='utf-8'?>
<svg xmlns="http://www.w3.org/2000/svg" version="1.1" viewBox="0 0 1024 1024"><g transform="scale(1, -1) translate(0, -900)"><path d="M 698 538 Q 767 550 922 533 Q 946 530 952 539 Q 959 552 948 564 Q 884 625 810 605 Q 761 596 712 586 L 651 578 Q 482 563 479 559 L 421 553 Q 330 544 279 537 Q 203 525 90 524 Q 77 524 75 513 Q 74 500 93 486 Q 109 473 141 462 Q 151 458 169 465 Q 188 472 268 486 Q 337 502 419 512 L 475 519 Q 487 522 501 522 Q 559 526 616 532 Q 628 533 642 534 L 698 538 Z" fill="black" /></g></svg>