<?xml version='1.0' encoding='utf-8'?>
<svg xmlns="http://www.w3.org/2000/svg" version="1.1" viewBox="0 0 1024 1024"><g transform="scale(1, -1) translate(0, -900)"><path d="M 676 430 Q 686 494 698 538 L 712 586 Q 730 649 769 686 Q 788 708 771 731 Q 750 747 687 777 Q 665 787 638 776 Q 500 728 300 714 Q 281 713 282 702 Q 285 692 306 684 Q 334 669 377 682 Q 383 683 389 683 L 455 693 Q 531 706 608 718 Q 638 724 649 711 Q 668 693 664 654 Q 658 615 651 578 L 642 534 Q 632 482 619 436 C 611 407 671 400 676 430 Z" fill="black" /></g></svg>