<?xml version='1.0' encoding='utf-8'?>
<svg xmlns="http://www.w3.org/2000/svg" version="1.1" viewBox="0 0 1024 1024"><g transform="scale(1, -1) translate(0, -900)"><path d="M 668 256 Q 660 227 681 196 Q 694 178 700 178 Q 713 179 729 208 Q 748 240 747 265 Q 737 331 738 441 Q 738 468 755 497 Q 763 514 760 521 L 759 525 Q 729 551 680 570 Q 664 577 631 564 Q 572 543 566 541 Q 496 517 412 514 C 382 512 395 479 425 484 Q 429 484 543 508 Q 637 532 657 519 Q 672 489 673 363 Q 674 282 668 256 Z" fill="black" /></g></svg>