<?xml version='1.0' encoding='utf-8'?>
<svg xmlns="http://www.w3.org/2000/svg" version="1.1" viewBox="0 0 1024 1024"><g transform="scale(1, -1) translate(0, -900)"><path d="M 937 34 Q 968 44 957 65 Q 932 117 918 193 Q 914 211 906 215 Q 899 219 895 203 Q 886 116 859 93 Q 852 80 808 73 Q 696 57 654 94 Q 627 124 622 172 Q 616 220 640 287 Q 662 351 695 373 Q 723 395 694 412 Q 675 425 655 439 Q 633 452 615 440 Q 594 434 512 409 L 451 393 Q 366 371 325 365 Q 307 362 306 349 Q 306 340 336 328 Q 367 315 406 336 Q 422 345 446 353 L 504 372 Q 586 402 606 388 Q 621 381 614 354 Q 575 243 577 174 Q 581 108 615 70 Q 637 43 681 26 Q 727 11 813 13 Q 894 17 937 34 Z" fill="black" /></g></svg>