<?xml version='1.0' encoding='utf-8'?>
<svg xmlns="http://www.w3.org/2000/svg" version="1.1" viewBox="0 0 1024 1024"><g transform="scale(1, -1) translate(0, -900)"><path d="M 707 46 Q 694 45 634 81 Q 624 85 623 80 Q 622 76 631 64 Q 670 10 684 -26 Q 691 -48 706 -50 Q 725 -51 744 -33 Q 814 21 838 159 Q 854 253 867 399 Q 868 432 890 456 Q 905 471 904 480 Q 903 489 881 504 Q 853 526 813 539 Q 789 548 707 524 Q 419 473 352 467 C 322 463 314 449 344 444 Q 347 444 349 443 Q 386 433 429 441 Q 768 486 781 482 Q 785 481 789 475 Q 801 448 791 276 Q 779 155 740 78 Q 725 47 707 46 Z" fill="black" /></g></svg>