<?xml version='1.0' encoding='utf-8'?>
<svg xmlns="http://www.w3.org/2000/svg" version="1.1" viewBox="0 0 1024 1024"><g transform="scale(1, -1) translate(0, -900)"><path d="M 485 269 Q 488 226 411 140 Q 389 115 344 91 Q 316 82 316 72 Q 313 56 322 35 Q 331 16 343 10 Q 350 6 361 11 Q 481 74 700 110 Q 701 110 703 110 C 733 114 719 134 689 131 Q 568 118 441 101 Q 431 98 428 102 Q 427 105 432 112 Q 520 224 554 252 Q 567 265 560 273 Q 559 276 554 278 C 541 305 488 299 485 269 Z" fill="black" /></g></svg>