<?xml version='1.0' encoding='utf-8'?>
<svg xmlns="http://www.w3.org/2000/svg" version="1.1" viewBox="0 0 1024 1024"><g transform="scale(1, -1) translate(0, -900)"><path d="M 960 109 Q 942 155 931 237 Q 930 253 922 258 Q 913 262 910 243 Q 894 143 880 126 Q 850 98 741 100 Q 680 104 655 115 Q 633 127 628 143 Q 613 182 612 282 Q 612 295 613 306 L 615 327 Q 619 406 637 446 Q 649 477 630 494 Q 579 531 564 527 Q 549 521 556 504 Q 575 467 572 411 Q 563 143 599 98 Q 627 70 688 57 Q 743 47 830 46 Q 909 46 941 61 Q 972 77 960 109 Z" fill="black" /></g></svg>