<?xml version='1.0' encoding='utf-8'?>
<svg xmlns="http://www.w3.org/2000/svg" version="1.1" viewBox="0 0 1024 1024"><g transform="scale(1, -1) translate(0, -900)"><path d="M 403 324 Q 403 360 409 387 Q 413 400 405 411 Q 383 432 363 443 Q 345 450 337 445 Q 327 439 335 424 Q 368 349 348 208 Q 344 162 304 117 Q 292 104 299 82 Q 306 57 319 45 Q 331 38 342 52 Q 360 79 508 183 Q 527 193 532 202 Q 536 211 527 212 Q 514 212 403 162 Q 390 155 390 168 Q 397 238 401 298 L 403 324 Z" fill="black" /></g></svg>