<?xml version='1.0' encoding='utf-8'?>
<svg xmlns="http://www.w3.org/2000/svg" version="1.1" viewBox="0 0 1024 1024"><g transform="scale(1, -1) translate(0, -900)"><path d="M 557 309 Q 612 324 705 343 C 734 349 718 368 688 363 Q 580 347 465 316 Q 453 312 449 315 Q 448 318 454 324 Q 545 414 565 428 Q 578 435 573 448 Q 569 458 540 478 C 516 496 494 499 493 469 Q 499 429 442 369 Q 417 338 368 312 Q 355 302 357 291 Q 360 275 382 254 Q 391 244 404 252 Q 447 285 521 300 L 557 309 Z" fill="black" /></g></svg>