<?xml version='1.0' encoding='utf-8'?>
<svg xmlns="http://www.w3.org/2000/svg" version="1.1" viewBox="0 0 1024 1024"><g transform="scale(1, -1) translate(0, -900)"><path d="M 454 292 Q 494 304 542 311 L 583 318 Q 599 324 684 333 L 730 340 Q 799 350 913 347 Q 935 346 939 355 Q 946 367 934 377 Q 906 401 864 416 Q 851 420 828 412 Q 783 400 738 389 L 686 378 Q 622 369 583 361 L 539 353 Q 488 346 453 339 L 408 330 Q 357 321 281 314 C 254 311 254 311 273 295 Q 286 277 334 261 Q 344 258 361 267 Q 370 271 410 280 L 454 292 Z" fill="black" /></g></svg>