<?xml version='1.0' encoding='utf-8'?>
<svg xmlns="http://www.w3.org/2000/svg" version="1.1" viewBox="0 0 1024 1024"><g transform="scale(1, -1) translate(0, -900)"><path d="M 613 341 Q 677 359 732 357 C 762 357 764 391 734 388 Q 671 382 615 372 L 559 363 Q 498 354 446 338 Q 428 334 433 355 Q 445 421 436 435 Q 423 451 403 463 Q 393 467 384 467 Q 374 463 381 446 Q 396 410 390 374 Q 386 340 371 324 Q 355 309 360 297 Q 370 284 384 274 Q 393 268 412 280 Q 442 302 559 329 L 613 341 Z" fill="black" /></g></svg>