<?xml version='1.0' encoding='utf-8'?>
<svg xmlns="http://www.w3.org/2000/svg" version="1.1" viewBox="0 0 1024 1024"><g transform="scale(1, -1) translate(0, -900)"><path d="M 574 305 Q 685 327 703 311 Q 716 301 715 263 Q 714 226 713 181 Q 713 148 702 135 Q 696 122 669 124 Q 647 127 624 129 Q 608 132 603 125 Q 599 121 615 111 Q 670 74 704 43 Q 717 30 735 36 Q 747 40 757 67 Q 776 107 775 158 Q 771 270 781 308 Q 788 323 782 332 Q 718 374 676 354 Q 636 342 577 330 L 515 319 Q 449 310 364 304 C 334 302 356 267 386 272 Q 458 285 515 295 L 574 305 Z" fill="black" /></g></svg>