<?xml version='1.0' encoding='utf-8'?>
<svg xmlns="http://www.w3.org/2000/svg" version="1.1" viewBox="0 0 1024 1024"><g transform="scale(1, -1) translate(0, -900)"><path d="M 295 415 Q 320 502 335 589 L 337 601 Q 343 638 349 670 Q 356 709 362 714 C 370 735 370 735 354 748 Q 338 763 314 776 Q 295 789 280 785 Q 267 778 272 762 Q 291 735 286 678 Q 258 480 233 393 Q 218 348 202 309 Q 150 191 57 68 Q 51 61 49 55 Q 45 43 57 45 Q 94 51 184 173 Q 203 203 223 236 Q 260 306 287 390 L 295 415 Z" fill="black" /></g></svg>