<?xml version='1.0' encoding='utf-8'?>
<svg xmlns="http://www.w3.org/2000/svg" version="1.1" viewBox="0 0 1024 1024"><g transform="scale(1, -1) translate(0, -900)"><path d="M 779 127 Q 685 121 603 108 L 559 101 Q 480 91 411 72 Q 395 69 401 89 Q 408 123 418 159 Q 425 181 416 196 Q 404 215 382 230 Q 372 237 362 236 Q 352 233 357 214 Q 370 166 359 121 Q 349 78 328 61 Q 309 45 315 32 Q 325 16 341 4 Q 353 -5 363 3 Q 406 42 642 81 Q 751 99 775 89 Q 776 90 780 89 C 810 84 809 129 779 127 Z" fill="black" /></g></svg>