<?xml version='1.0' encoding='utf-8'?>
<svg xmlns="http://www.w3.org/2000/svg" version="1.1" viewBox="0 0 1024 1024"><g transform="scale(1, -1) translate(0, -900)"><path d="M 472 379 Q 488 379 636 407 Q 660 410 664 397 Q 668 387 672 370 Q 691 205 692 105 Q 692 71 683 57 Q 680 54 596 57 Q 574 61 577 51 Q 644 9 683 -22 Q 699 -41 715 -44 Q 725 -48 733 -36 Q 772 18 765 76 Q 723 344 748 390 Q 761 411 747 422 Q 725 441 684 456 Q 665 463 648 455 Q 608 436 583 427 L 547 419 Q 513 415 463 409 C 433 405 442 375 472 379 Z" fill="black" /></g></svg>