<?xml version='1.0' encoding='utf-8'?>
<svg xmlns="http://www.w3.org/2000/svg" version="1.1" viewBox="0 0 1024 1024"><g transform="scale(1, -1) translate(0, -900)"><path d="M 688 159 Q 719 208 748 279 Q 761 307 781 325 Q 800 341 787 354 Q 774 367 744 378 Q 720 385 693 373 Q 672 366 647 357 L 611 348 Q 509 332 509 330 Q 505 323 523 315 Q 557 300 607 313 Q 662 332 674 332 Q 698 328 691 303 Q 676 239 650 191 L 629 159 Q 569 89 456 56 Q 443 52 454 43 Q 458 39 497 41 Q 585 50 660 123 L 688 159 Z" fill="black" /></g></svg>