<?xml version='1.0' encoding='utf-8'?>
<svg xmlns="http://www.w3.org/2000/svg" version="1.1" viewBox="0 0 1024 1024"><g transform="scale(1, -1) translate(0, -900)"><path d="M 655 377 Q 722 389 806 394 Q 825 393 834 383 Q 840 376 836 362 Q 837 128 822 95 Q 819 85 807 88 Q 776 92 743 99 Q 716 100 736 84 Q 805 35 834 -2 Q 849 -18 863 -4 Q 882 15 890 48 Q 900 82 893 262 Q 889 329 908 364 Q 921 383 915 391 Q 908 403 860 432 Q 842 445 828 439 Q 801 429 753 419 Q 698 412 656 405 L 604 397 Q 537 387 503 377 Q 472 370 445 365 C 416 359 430 316 458 327 Q 457 328 459 328 Q 507 347 597 367 Q 600 368 605 368 L 655 377 Z" fill="black" /></g></svg>