<?xml version='1.0' encoding='utf-8'?>
<svg xmlns="http://www.w3.org/2000/svg" version="1.1" viewBox="0 0 1024 1024"><g transform="scale(1, -1) translate(0, -900)"><path d="M 526 298 Q 575 347 615 385 L 659 429 Q 720 492 740 513 Q 768 546 795 558 Q 810 564 810 574 Q 809 581 798 588 Q 767 607 739 613 Q 723 616 716 599 Q 698 542 582 414 L 546 375 Q 509 338 463 294 L 430 262 Q 414 249 399 233 Q 306 149 171 57 Q 164 53 165 49 Q 166 46 174 47 Q 247 69 282 95 Q 358 147 437 215 L 526 298 Z" fill="black" /></g></svg>