<?xml version='1.0' encoding='utf-8'?>
<svg xmlns="http://www.w3.org/2000/svg" version="1.1" viewBox="0 0 1024 1024"><g transform="scale(1, -1) translate(0, -900)"><path d="M 563 299 Q 600 309 642 316 L 679 322 Q 710 329 752 332 L 792 336 Q 841 342 901 344 Q 953 344 960 353 Q 964 363 950 373 Q 902 404 844 385 Q 823 381 798 374 L 756 364 Q 684 355 678 349 L 641 342 Q 602 336 563 328 L 521 321 Q 485 317 449 310 Q 433 307 445 295 Q 457 285 471 281 Q 481 278 522 288 L 563 299 Z" fill="black" /></g></svg>