<?xml version='1.0' encoding='utf-8'?>
<svg xmlns="http://www.w3.org/2000/svg" version="1.1" viewBox="0 0 1024 1024"><g transform="scale(1, -1) translate(0, -900)"><path d="M 522 288 Q 525 114 499 69 Q 478 62 504 18 Q 507 14 511 9 Q 520 2 535 13 Q 629 76 898 73 Q 920 72 920 83 Q 920 96 895 114 Q 882 126 851 120 Q 778 107 718 101 Q 657 98 585 85 Q 573 82 569 86 Q 565 87 564 97 Q 564 190 563 299 L 563 328 Q 563 433 561 435 Q 560 436 559 438 Q 550 445 525 457 Q 509 466 501 460 Q 497 454 502 442 Q 520 411 521 321 L 522 288 Z" fill="black" /></g></svg>