<?xml version='1.0' encoding='utf-8'?>
<svg xmlns="http://www.w3.org/2000/svg" version="1.1" viewBox="0 0 1024 1024"><g transform="scale(1, -1) translate(0, -900)"><path d="M 523 280 Q 453 271 415 261 Q 360 249 321 244 C 291 240 312 195 341 202 Q 351 203 360 206 Q 417 227 523 249 L 562 256 Q 653 271 764 275 Q 783 274 792 263 Q 799 256 794 241 Q 787 96 776 76 Q 772 67 760 71 Q 733 75 705 82 Q 675 86 695 66 Q 756 9 781 -30 Q 791 -43 803 -35 Q 830 -11 845 98 Q 849 209 873 238 Q 888 259 882 267 Q 875 280 823 314 Q 805 329 756 312 Q 593 291 562 285 L 523 280 Z" fill="black" /></g></svg>