<?xml version='1.0' encoding='utf-8'?>
<svg xmlns="http://www.w3.org/2000/svg" version="1.1" viewBox="0 0 1024 1024"><g transform="scale(1, -1) translate(0, -900)"><path d="M 379 422 Q 455 449 462 445 Q 466 441 461 429 Q 451 404 442 379 Q 432 360 443 344 Q 479 287 470 272 Q 464 265 445 268 Q 420 272 394 274 Q 375 275 396 264 Q 442 240 484 211 Q 494 201 503 210 Q 513 217 519 235 Q 531 280 479 340 Q 458 368 489 406 Q 510 437 524 446 Q 539 456 531 467 Q 519 480 488 496 Q 472 502 461 492 Q 424 458 367 445 C 338 437 351 412 379 422 Z" fill="black" /></g></svg>