<?xml version='1.0' encoding='utf-8'?>
<svg xmlns="http://www.w3.org/2000/svg" version="1.1" viewBox="0 0 1024 1024"><g transform="scale(1, -1) translate(0, -900)"><path d="M 720 338 Q 733 314 748 305 Q 758 296 776 316 Q 789 332 824 424 Q 834 455 860 479 Q 875 491 864 506 Q 849 524 808 554 Q 787 566 715 548 Q 640 539 595 529 L 569 526 Q 532 522 494 515 Q 419 502 358 493 C 328 489 340 449 369 458 Q 402 470 521 490 L 552 495 Q 738 532 768 509 Q 778 500 774 486 Q 750 396 741 383 Q 735 370 721 369 C 706 360 706 360 720 338 Z" fill="black" /></g></svg>