<?xml version='1.0' encoding='utf-8'?>
<svg xmlns="http://www.w3.org/2000/svg" version="1.1" viewBox="0 0 1024 1024"><g transform="scale(1, -1) translate(0, -900)"><path d="M 330 806 Q 317 818 295 827 Q 276 839 263 834 Q 250 827 257 813 Q 276 786 272 709 Q 247 481 212 380 Q 206 367 202 352 Q 151 226 63 103 Q 59 96 56 90 Q 53 80 64 81 Q 95 87 179 205 Q 200 239 222 280 Q 300 442 322 651 Q 323 660 323 667 L 327 690 Q 328 709 332 726 Q 335 759 344 774 C 350 792 350 792 330 806 Z" fill="black" /></g></svg>