<?xml version='1.0' encoding='utf-8'?>
<svg xmlns="http://www.w3.org/2000/svg" version="1.1" viewBox="0 0 1024 1024"><g transform="scale(1, -1) translate(0, -900)"><path d="M 705 114 Q 730 148 754 192 Q 767 216 787 229 Q 805 241 795 254 Q 785 266 759 279 Q 740 288 714 279 Q 693 272 666 265 Q 645 261 615 256 C 585 251 569 234 599 230 Q 627 224 662 231 Q 690 243 695 243 Q 713 239 706 220 Q 691 172 667 137 L 644 109 Q 581 48 449 18 Q 436 15 446 7 Q 450 4 491 6 Q 540 9 598 34 Q 641 52 675 81 L 705 114 Z" fill="black" /></g></svg>