<?xml version='1.0' encoding='utf-8'?>
<svg xmlns="http://www.w3.org/2000/svg" version="1.1" viewBox="0 0 1024 1024"><g transform="scale(1, -1) translate(0, -900)"><path d="M 629 20 Q 666 -5 720 -50 Q 742 -69 759 -68 Q 778 -68 778 -50 Q 778 -31 752 9 Q 737 34 668 58 L 624 74 Q 587 87 561 93 Q 542 97 552 115 Q 574 158 586 181 L 604 217 Q 608 227 615 233 Q 624 240 621 248 Q 617 261 583 286 Q 573 293 564 291 Q 552 288 559 274 Q 566 253 559 232 Q 555 222 552 210 L 539 173 Q 524 136 509 114 Q 500 98 503 87 Q 506 78 521 75 Q 543 69 591 44 L 629 20 Z" fill="black" /></g></svg>