<?xml version='1.0' encoding='utf-8'?>
<svg xmlns="http://www.w3.org/2000/svg" version="1.1" viewBox="0 0 1024 1024"><g transform="scale(1, -1) translate(0, -900)"><path d="M 570 382 Q 571 407 573 431 L 574 460 Q 574 482 576 503 L 577 531 Q 577 538 578 545 Q 581 570 584 590 L 590 616 Q 591 622 593 626 Q 596 636 579 648 Q 549 664 528 667 Q 515 670 508 663 Q 501 656 509 644 Q 525 622 528 602 L 530 578 Q 531 551 533 523 L 533 496 Q 533 474 534 450 L 534 424 Q 534 400 533 375 L 533 353 Q 532 322 531 289 C 530 259 565 265 566 295 Q 567 328 569 359 L 570 382 Z" fill="black" /></g></svg>