<?xml version='1.0' encoding='utf-8'?>
<svg xmlns="http://www.w3.org/2000/svg" version="1.1" viewBox="0 0 1024 1024"><g transform="scale(1, -1) translate(0, -900)"><path d="M 727 520 Q 772 524 828 526 Q 888 529 892 536 Q 896 546 882 556 Q 833 589 778 571 Q 762 568 744 563 L 683 550 Q 581 532 577 531 L 533 523 Q 488 517 441 508 L 401 501 Q 367 497 333 491 Q 317 488 330 475 Q 357 451 394 463 Q 400 466 410 467 L 447 477 Q 487 489 533 496 L 576 503 Q 616 512 676 515 L 727 520 Z" fill="black" /></g></svg>