<?xml version='1.0' encoding='utf-8'?>
<svg xmlns="http://www.w3.org/2000/svg" version="1.1" viewBox="0 0 1024 1024"><g transform="scale(1, -1) translate(0, -900)"><path d="M 601 197 Q 605 206 612 212 Q 619 218 618 226 Q 614 236 585 261 Q 579 267 574 266 L 565 265 Q 558 262 563 251 Q 567 236 552 190 L 538 157 Q 510 103 510 96 Q 511 87 526 85 Q 559 79 594 63 L 635 45 Q 686 20 759 -30 Q 781 -45 795 -43 Q 811 -42 811 -26 Q 810 -10 783 25 Q 770 47 665 77 L 619 90 Q 586 100 561 104 Q 548 105 554 119 Q 570 147 582 165 L 601 197 Z" fill="black" /></g></svg>