<?xml version='1.0' encoding='utf-8'?>
<svg xmlns="http://www.w3.org/2000/svg" version="1.1" viewBox="0 0 1024 1024"><g transform="scale(1, -1) translate(0, -900)"><path d="M 353 758 Q 337 774 310 788 Q 291 801 277 796 Q 264 789 270 774 Q 288 747 283 679 Q 280 664 279 645 Q 261 467 205 331 Q 160 229 65 96 Q 59 89 57 83 Q 53 71 64 73 Q 100 79 187 198 Q 206 226 225 260 Q 304 417 333 607 L 337 635 Q 341 660 346 685 Q 349 704 355 724 Q 355 725 356 726 C 363 750 363 750 353 758 Z" fill="black" /></g></svg>