<?xml version='1.0' encoding='utf-8'?>
<svg xmlns="http://www.w3.org/2000/svg" version="1.1" viewBox="0 0 1024 1024"><g transform="scale(1, -1) translate(0, -900)"><path d="M 518 200 Q 533 227 533 228 Q 529 238 508 255 C 485 275 471 279 472 249 Q 475 231 465 194 L 450 156 Q 423 98 424 91 Q 425 81 442 79 Q 479 72 520 54 L 568 31 Q 625 3 710 -57 Q 735 -73 750 -73 Q 769 -72 768 -53 Q 767 -35 738 4 Q 722 28 599 66 L 552 81 Q 512 94 481 100 Q 465 103 473 119 Q 488 146 498 162 L 518 200 Z" fill="black" /></g></svg>