<?xml version='1.0' encoding='utf-8'?>
<svg xmlns="http://www.w3.org/2000/svg" version="1.1" viewBox="0 0 1024 1024"><g transform="scale(1, -1) translate(0, -900)"><path d="M 651 445 Q 664 426 677 419 Q 686 412 698 429 Q 708 444 727 520 L 744 563 Q 750 572 757 579 Q 767 589 758 601 Q 745 614 710 636 Q 697 642 620 622 Q 614 622 590 616 L 528 602 L 422 579 C 393 573 407 540 435 551 Q 472 566 530 578 L 584 590 Q 662 608 681 597 Q 690 590 688 576 Q 685 563 683 550 L 676 515 Q 666 476 657 469 C 646 452 646 452 651 445 Z" fill="black" /></g></svg>