<?xml version='1.0' encoding='utf-8'?>
<svg xmlns="http://www.w3.org/2000/svg" version="1.1" viewBox="0 0 1024 1024"><g transform="scale(1, -1) translate(0, -900)"><path d="M 351 792 Q 336 807 310 820 Q 291 832 277 827 Q 264 820 271 805 Q 289 778 289 727 Q 264 499 229 379 Q 220 355 212 331 Q 164 214 68 76 Q 62 69 60 63 Q 57 51 68 53 Q 104 59 194 190 Q 213 221 232 257 Q 281 365 307 470 L 314 502 Q 335 619 337 644 L 342 674 Q 345 696 348 715 Q 352 757 359 762 C 365 781 365 781 351 792 Z" fill="black" /></g></svg>