<?xml version='1.0' encoding='utf-8'?>
<svg xmlns="http://www.w3.org/2000/svg" version="1.1" viewBox="0 0 1024 1024"><g transform="scale(1, -1) translate(0, -900)"><path d="M 545 334 Q 561 338 580 339 Q 707 355 740 344 C 770 339 778 391 748 390 Q 642 387 545 376 L 484 370 Q 384 360 296 340 Q 271 336 279 366 Q 289 429 302 495 Q 309 523 298 541 Q 258 592 227 588 Q 214 584 222 560 Q 247 488 232 420 Q 219 354 190 327 Q 166 308 174 290 Q 187 271 206 256 Q 222 246 234 254 Q 267 288 484 325 L 545 334 Z" fill="black" /></g></svg>