<?xml version='1.0' encoding='utf-8'?>
<svg xmlns="http://www.w3.org/2000/svg" version="1.1" viewBox="0 0 1024 1024"><g transform="scale(1, -1) translate(0, -900)"><path d="M 489 303 Q 601 340 643 330 C 673 327 680 378 650 373 Q 565 360 490 342 L 438 330 Q 356 312 289 287 Q 271 283 276 304 Q 283 355 292 407 Q 298 432 287 448 Q 272 467 247 482 Q 235 489 224 487 Q 212 483 220 463 Q 244 403 232 346 Q 223 291 199 267 Q 180 249 188 234 Q 200 218 218 207 Q 233 198 243 207 Q 270 237 436 288 L 489 303 Z" fill="black" /></g></svg>