<?xml version='1.0' encoding='utf-8'?>
<svg xmlns="http://www.w3.org/2000/svg" version="1.1" viewBox="0 0 1024 1024"><g transform="scale(1, -1) translate(0, -900)"><path d="M 796 244 Q 657 232 536 209 L 488 200 Q 379 182 284 155 Q 256 148 263 180 Q 267 253 272 329 Q 275 357 263 373 Q 220 416 190 409 Q 178 403 188 382 Q 224 309 215 236 Q 211 166 182 133 Q 161 112 170 96 Q 183 78 203 66 Q 219 57 230 67 Q 243 83 283 99 Q 440 151 606 182 Q 757 210 789 197 C 819 193 826 247 796 244 Z" fill="black" /></g></svg>