<?xml version='1.0' encoding='utf-8'?>
<svg xmlns="http://www.w3.org/2000/svg" version="1.1" viewBox="0 0 1024 1024"><g transform="scale(1, -1) translate(0, -900)"><path d="M 479 425 Q 464 424 462 415 Q 461 408 469 404 Q 503 395 536 404 Q 564 414 591 423 Q 613 429 616 422 Q 622 412 609 395 Q 470 206 474 108 Q 478 71 507 47 Q 579 -14 747 -9 Q 840 -6 948 40 Q 979 53 971 77 Q 952 138 942 239 Q 938 252 930 253 Q 924 253 919 237 Q 912 201 903 162 Q 891 105 848 85 Q 806 61 708 59 Q 611 58 573 75 Q 539 91 529 125 Q 510 206 636 349 Q 675 395 714 415 Q 739 427 731 440 Q 724 456 672 482 Q 653 494 625 480 Q 549 440 479 425 Z" fill="black" /></g></svg>