<?xml version='1.0' encoding='utf-8'?>
<svg xmlns="http://www.w3.org/2000/svg" version="1.1" viewBox="0 0 1024 1024"><g transform="scale(1, -1) translate(0, -900)"><path d="M 965 184 Q 947 215 923 316 Q 922 334 913 338 Q 906 342 903 322 Q 881 213 863 178 Q 817 129 680 131 Q 628 132 586 147 Q 549 163 540 185 Q 510 246 544 449 C 549 479 549 480 541 486 Q 540 487 539 488 Q 526 501 502 511 Q 489 515 480 510 Q 473 506 478 488 Q 491 448 488 409 Q 475 219 491 165 Q 495 138 522 116 Q 612 49 826 82 Q 841 86 858 90 Q 910 105 960 137 Q 981 156 965 184 Z" fill="black" /></g></svg>