<?xml version='1.0' encoding='utf-8'?>
<svg xmlns="http://www.w3.org/2000/svg" version="1.1" viewBox="0 0 1024 1024"><g transform="scale(1, -1) translate(0, -900)"><path d="M 878 255 Q 805 246 743 232 L 696 222 Q 638 210 590 194 Q 568 188 573 214 Q 580 287 587 365 Q 591 390 580 405 Q 564 424 538 437 Q 526 444 515 441 Q 505 437 512 416 Q 545 344 534 272 Q 527 203 499 173 Q 480 154 488 140 Q 500 124 518 112 Q 533 105 543 113 Q 576 150 767 198 Q 849 217 869 211 Q 870 212 872 212 C 902 211 908 259 878 255 Z" fill="black" /></g></svg>