<?xml version='1.0' encoding='utf-8'?>
<svg xmlns="http://www.w3.org/2000/svg" version="1.1" viewBox="0 0 1024 1024"><g transform="scale(1, -1) translate(0, -900)"><path d="M 383 350 Q 337 340 294 326 L 251 312 Q 208 300 170 283 Q 154 279 157 298 Q 161 349 166 402 Q 169 426 159 439 Q 143 455 120 467 Q 108 473 99 470 Q 89 466 97 448 Q 122 393 116 337 Q 112 283 90 259 Q 74 241 82 228 Q 94 215 111 205 Q 124 199 134 208 Q 162 247 301 290 Q 344 311 383 312 C 413 314 412 357 383 350 Z" fill="black" /></g></svg>