<?xml version='1.0' encoding='utf-8'?>
<svg xmlns="http://www.w3.org/2000/svg" version="1.1" viewBox="0 0 1024 1024"><g transform="scale(1, -1) translate(0, -900)"><path d="M 692 382 Q 693 267 693 110 Q 693 76 682 63 Q 670 56 641 63 Q 616 70 584 76 Q 572 79 573 72 Q 574 65 585 55 Q 654 6 697 -35 Q 709 -44 722 -28 Q 761 29 755 104 Q 743 335 745 464 L 746 505 Q 746 565 752 623 Q 758 650 752 660 Q 743 672 715 687 C 689 703 664 707 673 678 Q 689 627 690 606 Q 690 551 691 494 L 692 382 Z" fill="black" /></g></svg>