<?xml version='1.0' encoding='utf-8'?>
<svg xmlns="http://www.w3.org/2000/svg" version="1.1" viewBox="0 0 1024 1024"><g transform="scale(1, -1) translate(0, -900)"><path d="M 685 639 Q 598 635 522 622 L 482 616 Q 404 606 339 588 Q 320 584 326 607 Q 330 637 337 668 Q 341 690 333 705 Q 320 723 297 737 Q 287 744 277 742 Q 267 738 273 719 Q 289 676 280 633 Q 273 593 255 575 Q 236 559 243 545 Q 253 529 269 518 Q 282 511 292 518 Q 329 557 557 593 Q 660 609 682 601 C 712 597 715 641 685 639 Z" fill="black" /></g></svg>