<?xml version='1.0' encoding='utf-8'?>
<svg xmlns="http://www.w3.org/2000/svg" version="1.1" viewBox="0 0 1024 1024"><g transform="scale(1, -1) translate(0, -900)"><path d="M 481 613 Q 515 623 551 628 Q 636 643 657 637 C 687 634 693 676 663 674 Q 587 670 520 657 L 481 651 Q 414 641 355 624 Q 336 621 342 642 Q 346 667 353 692 Q 357 714 349 729 Q 336 747 313 761 Q 303 768 293 766 Q 283 763 289 744 Q 304 704 295 664 Q 288 627 271 611 Q 253 595 260 581 Q 270 566 286 555 Q 298 546 310 556 Q 334 580 457 608 L 481 613 Z" fill="black" /></g></svg>