<?xml version='1.0' encoding='utf-8'?>
<svg xmlns="http://www.w3.org/2000/svg" version="1.1" viewBox="0 0 1024 1024"><g transform="scale(1, -1) translate(0, -900)"><path d="M 546 118 Q 444 33 303 -6 Q 278 -10 279 -15 Q 280 -25 346 -15 Q 481 13 579 83 L 620 119 Q 672 173 695 248 Q 707 288 728 308 Q 732 312 731 320 Q 728 339 677 363 Q 658 370 634 358 Q 621 349 575 339 Q 553 335 574 368 Q 637 455 653 463 Q 671 470 675 480 Q 679 492 641 516 Q 598 543 561 523 Q 476 484 297 459 Q 279 459 265 457 Q 244 456 245 445 Q 246 436 276 427 Q 306 417 369 438 Q 370 439 372 439 L 411 449 Q 468 464 558 483 Q 571 486 574 480 Q 577 467 541 393 Q 525 369 508 353 Q 493 340 500 324 Q 506 311 516 302 Q 523 295 531 295 Q 537 296 550 302 Q 563 309 605 315 Q 630 316 639 307 Q 648 297 638 263 Q 616 191 579 150 L 546 118 Z" fill="black" /></g></svg>