<?xml version='1.0' encoding='utf-8'?>
<svg xmlns="http://www.w3.org/2000/svg" version="1.1" viewBox="0 0 1024 1024"><g transform="scale(1, -1) translate(0, -900)"><path d="M 383 633 Q 390 633 401 638 Q 459 659 609 685 Q 622 686 631 680 Q 643 674 641 655 Q 637 609 614 528 Q 610 503 586 508 Q 558 514 534 519 Q 519 523 523 513 Q 524 503 549 482 Q 579 451 594 420 Q 601 410 613 412 Q 641 424 668 497 Q 692 653 711 670 Q 721 680 715 692 Q 706 704 667 726 Q 654 735 603 720 Q 576 719 451 688 Q 408 679 377 674 C 347 669 354 625 383 633 Z" fill="black" /></g></svg>