<?xml version='1.0' encoding='utf-8'?>
<svg xmlns="http://www.w3.org/2000/svg" version="1.1" viewBox="0 0 1024 1024"><g transform="scale(1, -1) translate(0, -900)"><path d="M 419 521 Q 492 543 553 553 Q 572 556 575 550 Q 582 538 578 508 Q 571 424 550 387 Q 534 359 508 364 Q 484 374 463 387 Q 441 399 454 372 Q 493 321 510 284 Q 526 265 542 279 Q 602 313 633 470 Q 643 527 661 547 Q 674 560 667 571 Q 658 581 607 604 Q 586 613 568 600 Q 546 587 463 566 Q 381 544 309 536 Q 293 535 290 526 Q 289 519 312 508 Q 336 493 355 501 Q 368 505 385 510 L 419 521 Z" fill="black" /></g></svg>