<?xml version='1.0' encoding='utf-8'?>
<svg xmlns="http://www.w3.org/2000/svg" version="1.1" viewBox="0 0 1024 1024"><g transform="scale(1, -1) translate(0, -900)"><path d="M 447 332 Q 493 350 608 360 Q 737 378 768 362 Q 781 352 780 334 Q 783 318 759 178 Q 743 94 723 63 Q 713 38 686 40 Q 652 49 617 56 Q 599 62 596 57 Q 593 51 609 41 Q 687 -31 694 -54 Q 698 -64 708 -64 Q 724 -67 757 -34 Q 787 0 795 40 Q 846 331 870 347 Q 879 354 878 362 Q 879 369 845 395 Q 803 420 782 416 Q 737 407 723 407 Q 630 406 488 379 Q 439 373 404 363 Q 370 356 366 380 Q 362 404 368 526 Q 375 614 383 633 C 394 690 386 671 360 686 Q 332 708 315 708 Q 302 708 299 698 Q 296 688 305 680 Q 320 656 322 638 Q 334 491 305 358 Q 299 346 300 336 Q 303 326 315 316 Q 330 303 336 302 Q 346 305 363 309 Q 372 316 413 325 L 447 332 Z" fill="black" /></g></svg>