<?xml version='1.0' encoding='utf-8'?>
<svg xmlns="http://www.w3.org/2000/svg" version="1.1" viewBox="0 0 1024 1024"><g transform="scale(1, -1) translate(0, -900)"><path d="M 712 412 Q 705 388 719 366 Q 732 338 742 338 Q 757 339 773 372 Q 786 399 786 420 Q 774 511 776 654 Q 776 696 798 731 Q 808 747 801 757 Q 773 781 725 802 Q 709 806 686 799 Q 611 765 494 751 C 464 747 481 717 511 722 Q 515 722 520 723 Q 569 733 608 742 Q 687 761 705 750 Q 717 725 721 656 Q 724 451 712 412 Z" fill="black" /></g></svg>