<?xml version='1.0' encoding='utf-8'?>
<svg xmlns="http://www.w3.org/2000/svg" version="1.1" viewBox="0 0 1024 1024"><g transform="scale(1, -1) translate(0, -900)"><path d="M 363 365 Q 320 358 282 344 L 238 330 Q 198 317 164 302 Q 148 296 150 317 Q 153 363 156 412 Q 159 437 148 451 Q 132 467 107 480 Q 94 484 84 482 Q 74 478 83 458 Q 110 406 104 351 Q 100 299 80 275 Q 64 256 72 242 Q 85 229 103 219 Q 118 212 127 222 Q 146 252 284 304 Q 338 323 351 320 Q 354 321 357 323 C 386 329 393 370 363 365 Z" fill="black" /></g></svg>