<?xml version='1.0' encoding='utf-8'?>
<svg xmlns="http://www.w3.org/2000/svg" version="1.1" viewBox="0 0 1024 1024"><g transform="scale(1, -1) translate(0, -900)"><path d="M 284 680 Q 503 723 679 743 Q 710 749 724 732 Q 740 723 746 654 Q 767 420 759 153 Q 759 114 744 103 Q 726 94 652 124 Q 634 130 634 118 Q 634 111 648 101 Q 715 43 747 -2 Q 771 -24 785 -22 Q 800 -19 813 13 Q 832 64 832 139 Q 810 503 810 638 Q 810 684 823 711 Q 836 736 825 750 Q 812 768 757 795 Q 735 805 712 800 Q 562 754 270 728 C 240 725 255 674 284 680 Z" fill="black" /></g></svg>