<?xml version='1.0' encoding='utf-8'?>
<svg xmlns="http://www.w3.org/2000/svg" version="1.1" viewBox="0 0 1024 1024"><g transform="scale(1, -1) translate(0, -900)"><path d="M 718 78 Q 705 74 629 98 Q 619 102 619 96 Q 618 92 630 82 Q 675 36 694 2 Q 704 -19 718 -18 Q 740 -19 761 3 Q 839 64 862 223 Q 880 331 889 495 Q 890 532 914 560 Q 927 573 926 583 Q 925 590 905 605 Q 877 624 841 636 Q 817 645 745 618 Q 735 617 726 613 Q 681 601 560 574 C 531 567 516 549 546 550 Q 567 547 666 563 Q 805 590 816 581 Q 840 536 810 282 Q 791 177 758 116 Q 740 79 718 78 Z" fill="black" /></g></svg>