<?xml version='1.0' encoding='utf-8'?>
<svg xmlns="http://www.w3.org/2000/svg" version="1.1" viewBox="0 0 1024 1024"><g transform="scale(1, -1) translate(0, -900)"><path d="M 585 550 Q 588 546 591 539 Q 687 365 818 300 Q 893 270 910 287 Q 926 297 916 332 Q 906 362 892 475 Q 891 494 886 498 Q 882 499 878 480 Q 856 389 838 373 Q 829 367 799 383 Q 697 440 628 562 L 605 606 Q 556 714 559 786 Q 563 811 519 825 Q 483 837 468 831 Q 452 825 466 802 Q 496 771 508 731 Q 533 658 565 592 L 585 550 Z" fill="black" /></g></svg>