<?xml version='1.0' encoding='utf-8'?>
<svg xmlns="http://www.w3.org/2000/svg" version="1.1" viewBox="0 0 1024 1024"><g transform="scale(1, -1) translate(0, -900)"><path d="M 359 363 Q 314 354 278 341 L 234 327 Q 191 314 156 298 Q 140 294 143 312 Q 147 364 151 420 Q 155 445 144 458 Q 128 476 103 488 Q 91 494 81 491 Q 71 487 79 467 Q 106 410 99 352 Q 95 297 72 272 Q 56 253 64 239 Q 77 224 95 215 Q 110 208 119 218 Q 150 264 317 314 Q 344 321 353 320 C 383 323 388 369 359 363 Z" fill="black" /></g></svg>