<?xml version='1.0' encoding='utf-8'?>
<svg xmlns="http://www.w3.org/2000/svg" version="1.1" viewBox="0 0 1024 1024"><g transform="scale(1, -1) translate(0, -900)"><path d="M 630 374 Q 623 -31 646 -61 Q 652 -68 659 -66 Q 674 -57 680 4 Q 689 92 685 178 Q 682 230 681 381 L 681 424 Q 681 473 682 528 L 684 570 Q 684 591 694 634 Q 697 652 682 661 Q 667 671 657 676 C 631 691 587 693 600 666 Q 601 665 603 662 Q 627 605 629 589 Q 629 573 630 554 L 631 519 Q 631 470 631 411 L 630 374 Z" fill="black" /></g></svg>