<?xml version='1.0' encoding='utf-8'?>
<svg xmlns="http://www.w3.org/2000/svg" version="1.1" viewBox="0 0 1024 1024"><g transform="scale(1, -1) translate(0, -900)"><path d="M 724 125 Q 624 119 539 106 L 496 99 Q 420 89 355 72 Q 330 66 337 95 Q 341 129 347 165 Q 351 192 341 208 Q 325 227 298 243 Q 285 250 274 247 Q 262 243 270 221 Q 291 172 283 123 Q 276 75 257 55 Q 236 36 244 21 Q 256 3 274 -9 Q 289 -19 300 -10 Q 337 32 584 73 Q 693 89 716 80 Q 717 81 719 80 C 749 76 754 127 724 125 Z" fill="black" /></g></svg>