<?xml version='1.0' encoding='utf-8'?>
<svg xmlns="http://www.w3.org/2000/svg" version="1.1" viewBox="0 0 1024 1024"><g transform="scale(1, -1) translate(0, -900)"><path d="M 350 286 Q 310 277 277 266 L 235 252 Q 192 239 156 222 Q 143 218 146 234 Q 153 289 160 346 Q 164 371 155 385 Q 139 403 116 417 Q 104 424 94 421 Q 84 417 91 398 Q 115 337 105 279 Q 96 222 73 198 Q 55 179 64 166 Q 77 150 94 141 Q 109 134 118 143 Q 142 182 311 237 Q 330 243 344 244 C 374 248 379 293 350 286 Z" fill="black" /></g></svg>