<?xml version='1.0' encoding='utf-8'?>
<svg xmlns="http://www.w3.org/2000/svg" version="1.1" viewBox="0 0 1024 1024"><g transform="scale(1, -1) translate(0, -900)"><path d="M 736 136 Q 628 127 535 109 L 499 104 Q 417 91 345 70 Q 326 67 333 88 Q 340 125 349 165 Q 355 189 346 204 Q 333 223 309 238 Q 299 245 287 244 Q 277 240 282 221 Q 300 170 288 122 Q 278 76 258 56 Q 239 40 245 25 Q 255 9 272 -3 Q 285 -12 296 -3 Q 329 31 607 87 Q 707 105 733 95 Q 734 96 737 95 C 767 90 766 139 736 136 Z" fill="black" /></g></svg>