<?xml version='1.0' encoding='utf-8'?>
<svg xmlns="http://www.w3.org/2000/svg" version="1.1" viewBox="0 0 1024 1024"><g transform="scale(1, -1) translate(0, -900)"><path d="M 639 362 Q 663 266 772 120 Q 806 78 853 46 Q 917 4 956 -3 Q 987 -2 981 38 Q 966 72 947 235 Q 946 251 937 253 Q 930 253 927 236 Q 920 199 912 162 Q 903 114 887 112 Q 868 113 831 145 Q 791 178 756 230 Q 714 290 681 374 L 669 417 Q 662 484 670 514 Q 674 533 636 556 Q 635 557 632 558 C 607 575 562 575 579 550 Q 601 525 610 478 Q 617 439 627 403 L 639 362 Z" fill="black" /></g></svg>