<?xml version='1.0' encoding='utf-8'?>
<svg xmlns="http://www.w3.org/2000/svg" version="1.1" viewBox="0 0 1024 1024"><g transform="scale(1, -1) translate(0, -900)"><path d="M 689 692 Q 632 692 552 676 L 515 670 Q 428 661 390 645 Q 384 642 381 645 Q 380 648 390 703 Q 391 742 345 763 Q 341 766 336 766 Q 323 769 319 765 Q 315 759 325 739 Q 350 682 313 624 Q 310 620 306 616 Q 294 607 296 599 Q 299 592 314 578 Q 327 566 335 566 Q 341 566 346 571 Q 364 610 683 660 Q 684 660 689 660 C 719 663 719 693 689 692 Z" fill="black" /></g></svg>