<?xml version='1.0' encoding='utf-8'?>
<svg xmlns="http://www.w3.org/2000/svg" version="1.1" viewBox="0 0 1024 1024"><g transform="scale(1, -1) translate(0, -900)"><path d="M 474 717 Q 458 729 444 735 Q 425 742 416 737 Q 406 730 415 715 Q 476 580 421 184 Q 411 145 378 105 Q 365 89 372 66 Q 382 38 395 26 Q 408 17 421 34 Q 440 64 602 177 Q 621 189 628 198 Q 632 208 622 208 Q 607 208 488 154 Q 472 147 471 162 Q 489 370 489 535 L 489 568 Q 489 572 489 576 Q 488 631 497 676 Q 498 682 498 687 C 500 700 499 701 474 717 Z" fill="black" /></g></svg>