<?xml version='1.0' encoding='utf-8'?>
<svg xmlns="http://www.w3.org/2000/svg" version="1.1" viewBox="0 0 1024 1024"><g transform="scale(1, -1) translate(0, -900)"><path d="M 653 577 Q 693 626 734 703 Q 750 731 776 748 Q 792 755 791 765 Q 791 778 763 794 Q 729 816 714 817 Q 702 816 691 808 Q 583 771 510 764 Q 473 763 470 755 Q 469 751 476 746 Q 519 712 652 760 Q 674 767 682 760 Q 688 756 669 706 Q 665 697 613 609 L 592 582 Q 514 498 407 449 Q 397 445 398 440 Q 399 436 406 436 Q 509 433 626 547 L 653 577 Z" fill="black" /></g></svg>