<?xml version='1.0' encoding='utf-8'?>
<svg xmlns="http://www.w3.org/2000/svg" version="1.1" viewBox="0 0 1024 1024"><g transform="scale(1, -1) translate(0, -900)"><path d="M 618 463 Q 691 484 746 491 Q 759 492 761 488 Q 774 472 769 428 Q 762 305 734 251 Q 722 226 702 228 Q 674 241 650 255 Q 628 265 641 241 Q 687 192 708 154 Q 730 135 747 154 Q 777 179 795 221 Q 817 270 821 416 Q 822 468 839 494 Q 849 507 843 515 Q 836 525 788 543 Q 770 550 753 537 Q 738 528 613 498 C 584 491 589 455 618 463 Z" fill="black" /></g></svg>