<?xml version='1.0' encoding='utf-8'?>
<svg xmlns="http://www.w3.org/2000/svg" version="1.1" viewBox="0 0 1024 1024"><g transform="scale(1, -1) translate(0, -900)"><path d="M 391 287 Q 355 274 280 241 Q 270 237 267 241 Q 263 242 263 253 Q 264 419 267 437 Q 268 444 267 449 C 267 456 267 456 254 464 Q 244 473 210 482 Q 195 485 190 480 Q 184 474 194 457 Q 230 406 214 279 Q 199 225 167 193 Q 157 183 162 164 Q 169 139 181 126 Q 191 117 204 130 Q 252 176 387 264 C 412 280 419 298 391 287 Z" fill="black" /></g></svg>