<?xml version='1.0' encoding='utf-8'?>
<svg xmlns="http://www.w3.org/2000/svg" version="1.1" viewBox="0 0 1024 1024"><g transform="scale(1, -1) translate(0, -900)"><path d="M 694 659 Q 603 652 525 637 L 486 632 Q 410 620 343 601 Q 324 597 330 619 Q 334 647 341 676 Q 345 698 337 713 Q 324 731 301 745 Q 291 752 281 750 Q 271 746 277 728 Q 293 685 284 643 Q 277 603 259 587 Q 241 571 248 557 Q 258 541 274 531 Q 286 522 298 532 Q 334 568 564 611 Q 667 629 689 620 C 719 615 724 661 694 659 Z" fill="black" /></g></svg>