<?xml version='1.0' encoding='utf-8'?>
<svg xmlns="http://www.w3.org/2000/svg" version="1.1" viewBox="0 0 1024 1024"><g transform="scale(1, -1) translate(0, -900)"><path d="M 344 375 Q 301 365 265 352 L 224 337 Q 184 324 153 309 Q 143 306 145 319 Q 151 356 158 397 Q 162 419 154 434 Q 120 473 96 469 Q 86 465 93 447 Q 112 398 102 351 Q 95 305 75 286 Q 59 268 67 255 Q 79 242 96 232 Q 109 225 118 234 Q 148 274 279 318 Q 324 336 338 333 Q 339 334 341 334 C 371 336 373 382 344 375 Z" fill="black" /></g></svg>