<?xml version='1.0' encoding='utf-8'?>
<svg xmlns="http://www.w3.org/2000/svg" version="1.1" viewBox="0 0 1024 1024"><g transform="scale(1, -1) translate(0, -900)"><path d="M 520 659 Q 527 659 537 661 Q 780 728 804 702 Q 819 693 824 627 Q 840 405 829 153 Q 828 116 814 105 Q 801 96 734 116 Q 718 120 718 111 Q 719 104 732 96 Q 790 45 820 8 Q 842 -13 855 -10 Q 868 -7 880 22 Q 896 68 897 138 Q 881 486 882 614 Q 882 656 894 680 Q 907 702 896 715 Q 884 731 835 755 Q 814 767 739 744 Q 631 720 499 700 C 469 695 491 653 520 659 Z" fill="black" /></g></svg>