<?xml version='1.0' encoding='utf-8'?>
<svg xmlns="http://www.w3.org/2000/svg" version="1.1" viewBox="0 0 1024 1024"><g transform="scale(1, -1) translate(0, -900)"><path d="M 518 477 Q 519 504 528 523 Q 535 539 521 552 Q 502 568 480 577 C 453 590 439 588 451 560 Q 469 527 470 467 L 471 421 Q 471 343 470 278 L 469 243 Q 466 177 463 126 Q 462 110 453 104 Q 447 100 393 110 Q 383 113 383 107 Q 383 100 392 93 Q 438 38 455 6 Q 468 -10 483 2 Q 516 32 517 114 Q 514 159 515 275 L 515 303 Q 515 361 516 435 L 518 477 Z" fill="black" /></g></svg>