<?xml version='1.0' encoding='utf-8'?>
<svg xmlns="http://www.w3.org/2000/svg" version="1.1" viewBox="0 0 1024 1024"><g transform="scale(1, -1) translate(0, -900)"><path d="M 541 53 Q 510 62 472 72 Q 460 75 461 68 Q 462 61 472 52 Q 545 1 594 -41 Q 604 -48 618 -34 Q 648 15 648 99 Q 639 207 639 265 L 639 308 Q 639 348 640 388 L 642 422 Q 642 429 643 434 Q 647 459 642 469 Q 635 479 608 494 C 582 510 558 516 567 487 Q 583 436 585 414 L 585 381 Q 586 347 587 298 L 588 259 Q 588 190 590 97 Q 590 64 580 52 Q 570 45 541 53 Z" fill="black" /></g></svg>