<?xml version='1.0' encoding='utf-8'?>
<svg xmlns="http://www.w3.org/2000/svg" version="1.1" viewBox="0 0 1024 1024"><g transform="scale(1, -1) translate(0, -900)"><path d="M 347 384 Q 305 377 270 366 L 227 353 Q 191 346 161 332 Q 142 326 146 349 Q 149 400 152 452 Q 155 477 144 491 Q 128 507 103 520 Q 90 524 81 522 Q 71 518 79 498 Q 107 443 101 386 Q 97 332 76 307 Q 60 288 68 275 Q 80 260 98 250 Q 113 243 122 253 Q 147 287 277 328 Q 323 344 339 341 C 369 342 377 389 347 384 Z" fill="black" /></g></svg>