<?xml version='1.0' encoding='utf-8'?>
<svg xmlns="http://www.w3.org/2000/svg" version="1.1" viewBox="0 0 1024 1024"><g transform="scale(1, -1) translate(0, -900)"><path d="M 546 -27 Q 552 -52 558 -61 Q 564 -68 571 -66 Q 589 -54 592 1 Q 598 64 595 182 L 595 219 Q 595 247 596 281 L 597 322 Q 597 347 598 376 L 603 419 Q 604 432 608 443 Q 611 461 597 470 Q 566 492 550 494 Q 537 498 522 490 Q 513 483 521 472 Q 540 439 541 404 L 541 365 Q 541 340 541 310 L 541 273 Q 541 245 541 211 L 541 175 Q 542 150 542 121 Q 541 10 546 -27 Z" fill="black" /></g></svg>