<?xml version='1.0' encoding='utf-8'?>
<svg xmlns="http://www.w3.org/2000/svg" version="1.1" viewBox="0 0 1024 1024"><g transform="scale(1, -1) translate(0, -900)"><path d="M 365 275 Q 399 299 576 329 Q 750 360 787 338 Q 802 328 800 307 Q 801 294 783 165 Q 768 89 752 61 Q 742 31 710 31 Q 683 35 655 37 Q 636 43 632 37 Q 629 31 647 20 Q 717 -49 723 -72 Q 729 -82 740 -83 Q 758 -84 793 -47 Q 826 -10 833 36 Q 878 307 900 322 Q 910 331 909 339 Q 910 348 872 375 Q 835 397 827 399 Q 814 400 785 393 Q 764 389 737 387 Q 682 386 593 369 Q 479 353 411 336 Q 372 320 363 347 C 338 364 338 262 365 275 Z" fill="black" /></g></svg>