<?xml version='1.0' encoding='utf-8'?>
<svg xmlns="http://www.w3.org/2000/svg" version="1.1" viewBox="0 0 1024 1024"><g transform="scale(1, -1) translate(0, -900)"><path d="M 610 589 Q 700 694 732 715 Q 747 724 742 733 Q 741 743 685 769 Q 667 781 648 769 Q 632 762 607 755 Q 573 751 542 745 C 512 740 499 735 527 724 Q 549 709 606 722 Q 625 726 632 717 Q 635 710 620 689 Q 598 652 567 613 L 548 590 Q 458 500 356 426 C 335 411 335 411 354 413 Q 423 413 578 556 Q 581 560 584 562 Q 584 563 585 563 L 610 589 Z" fill="black" /></g></svg>