<?xml version='1.0' encoding='utf-8'?>
<svg xmlns="http://www.w3.org/2000/svg" version="1.1" viewBox="0 0 1024 1024"><g transform="scale(1, -1) translate(0, -900)"><path d="M 612 370 Q 612 369 613 366 Q 625 329 621 294 Q 603 93 645 50 Q 718 -11 882 13 Q 891 16 900 17 Q 939 27 976 53 Q 995 68 983 93 Q 971 120 956 201 Q 956 217 949 222 Q 943 225 938 208 Q 910 123 890 96 Q 878 81 844 73 Q 763 55 698 81 Q 673 94 666 110 Q 642 162 675 339 Q 679 357 657 375 C 637 398 604 399 612 370 Z" fill="black" /></g></svg>