<?xml version='1.0' encoding='utf-8'?>
<svg xmlns="http://www.w3.org/2000/svg" version="1.1" viewBox="0 0 1024 1024"><g transform="scale(1, -1) translate(0, -900)"><path d="M 594 521 Q 600 509 612 509 Q 628 510 637 526 Q 647 535 670 585 Q 689 640 730 671 Q 752 687 735 705 Q 716 724 663 754 Q 644 766 573 745 Q 537 745 413 704 L 390 697 Q 377 696 366 693 C 337 687 349 652 378 659 Q 385 659 393 662 Q 454 686 593 715 Q 618 719 627 715 Q 634 709 629 683 Q 617 628 593 557 C 584 530 584 530 594 521 Z" fill="black" /></g></svg>