<?xml version='1.0' encoding='utf-8'?>
<svg xmlns="http://www.w3.org/2000/svg" version="1.1" viewBox="0 0 1024 1024"><g transform="scale(1, -1) translate(0, -900)"><path d="M 499 741 Q 498 742 497 742 Q 488 749 476 753 Q 467 757 457 752 Q 451 748 457 737 Q 457 736 458 733 Q 458 732 460 728 Q 460 727 463 721 Q 490 670 478 466 Q 466 376 469 368 Q 478 341 496 323 C 504 314 504 314 511 330 Q 520 345 520 360 L 521 389 Q 522 411 519 480 L 519 503 Q 518 549 518 584 L 518 605 Q 517 690 519 699 Q 519 706 519 711 C 519 728 519 728 499 741 Z" fill="black" /></g></svg>