<?xml version='1.0' encoding='utf-8'?>
<svg xmlns="http://www.w3.org/2000/svg" version="1.1" viewBox="0 0 1024 1024"><g transform="scale(1, -1) translate(0, -900)"><path d="M 734 659 Q 649 641 561 614 Q 551 610 548 613 Q 545 617 552 627 Q 663 772 687 796 Q 699 806 693 818 Q 687 831 641 854 Q 625 863 615 859 Q 602 853 607 833 Q 628 772 512 640 Q 491 621 463 601 Q 450 589 453 579 Q 457 563 482 542 Q 492 532 506 542 Q 548 578 753 637 Q 754 638 758 638 C 787 646 763 665 734 659 Z" fill="black" /></g></svg>