<?xml version='1.0' encoding='utf-8'?>
<svg xmlns="http://www.w3.org/2000/svg" version="1.1" viewBox="0 0 1024 1024"><g transform="scale(1, -1) translate(0, -900)"><path d="M 632 285 Q 638 331 646 586 L 648 632 Q 648 710 672 770 Q 679 788 669 800 Q 644 819 602 830 Q 575 837 566 829 Q 556 822 565 808 Q 590 769 594 719 Q 595 670 597 620 L 598 578 Q 598 272 540 171 Q 521 141 494 115 Q 433 57 296 3 Q 283 -4 281 -8 Q 282 -12 294 -15 Q 316 -19 372 -2 Q 465 22 529 80 Q 604 146 625 249 L 632 285 Z" fill="black" /></g></svg>