<?xml version='1.0' encoding='utf-8'?>
<svg xmlns="http://www.w3.org/2000/svg" version="1.1" viewBox="0 0 1024 1024"><g transform="scale(1, -1) translate(0, -900)"><path d="M 690 153 Q 723 205 752 279 Q 765 307 786 324 Q 805 339 793 353 Q 780 366 750 379 Q 732 385 662 364 Q 635 361 609 353 C 580 345 551 317 581 317 Q 603 316 631 321 Q 670 334 677 335 Q 702 331 694 303 Q 678 237 653 188 L 632 154 Q 566 66 428 28 Q 415 24 426 15 Q 432 11 473 13 Q 581 22 663 115 L 690 153 Z" fill="black" /></g></svg>