<?xml version='1.0' encoding='utf-8'?>
<svg xmlns="http://www.w3.org/2000/svg" version="1.1" viewBox="0 0 1024 1024"><g transform="scale(1, -1) translate(0, -900)"><path d="M 334 341 Q 297 332 262 320 L 218 305 Q 178 293 147 278 Q 132 274 134 292 Q 135 340 138 390 Q 139 412 130 424 Q 115 439 92 450 Q 82 454 72 452 Q 63 448 71 430 Q 98 379 93 327 Q 90 278 72 253 Q 56 237 65 224 Q 77 211 93 203 Q 106 197 115 206 Q 134 236 270 287 Q 307 302 327 303 C 357 307 363 348 334 341 Z" fill="black" /></g></svg>