<?xml version='1.0' encoding='utf-8'?>
<svg xmlns="http://www.w3.org/2000/svg" version="1.1" viewBox="0 0 1024 1024"><g transform="scale(1, -1) translate(0, -900)"><path d="M 643 292 Q 701 308 750 313 Q 772 316 776 309 Q 783 293 774 256 Q 752 150 721 107 Q 703 82 680 88 Q 653 103 630 118 Q 608 131 620 104 Q 660 50 676 12 Q 692 -10 713 5 Q 773 41 811 168 Q 838 282 857 302 Q 870 315 865 326 Q 856 339 803 366 Q 782 376 761 363 Q 737 350 655 332 L 600 321 Q 530 309 471 305 Q 450 304 447 294 Q 446 285 472 272 Q 499 254 522 262 Q 556 272 588 279 L 643 292 Z" fill="black" /></g></svg>