<?xml version='1.0' encoding='utf-8'?>
<svg xmlns="http://www.w3.org/2000/svg" version="1.1" viewBox="0 0 1024 1024"><g transform="scale(1, -1) translate(0, -900)"><path d="M 602 305 Q 602 176 576 85 Q 564 43 591 -18 Q 598 -36 606 -39 Q 613 -46 620 -37 Q 627 -33 638 -12 Q 648 13 647 45 Q 646 82 648 330 L 648 418 Q 649 496 651 587 Q 651 611 652 633 L 656 681 Q 660 723 671 756 Q 680 771 677 785 Q 670 795 614 829 Q 590 845 569 830 Q 565 826 570 810 Q 604 759 605 667 L 606 622 Q 607 568 605 410 L 602 305 Z" fill="black" /></g></svg>