<?xml version='1.0' encoding='utf-8'?>
<svg xmlns="http://www.w3.org/2000/svg" version="1.1" viewBox="0 0 1024 1024"><g transform="scale(1, -1) translate(0, -900)"><path d="M 577 202 Q 581 236 589 254 Q 599 284 581 299 Q 532 333 517 329 Q 504 323 511 307 Q 530 273 528 219 Q 527 59 556 18 Q 592 -27 664 -45 Q 719 -58 811 -50 Q 887 -41 915 -21 Q 945 -8 934 23 Q 918 66 910 142 Q 909 157 901 162 Q 894 166 890 148 Q 872 57 858 41 Q 851 22 818 16 Q 775 7 716 10 Q 647 14 617 28 Q 590 43 583 61 Q 567 101 575 181 L 577 202 Z" fill="black" /></g></svg>