<?xml version='1.0' encoding='utf-8'?>
<svg xmlns="http://www.w3.org/2000/svg" version="1.1" viewBox="0 0 1024 1024"><g transform="scale(1, -1) translate(0, -900)"><path d="M 331 404 Q 288 391 253 374 L 213 356 Q 174 340 144 322 Q 132 318 134 332 Q 135 378 138 426 Q 139 448 130 460 Q 115 475 92 486 Q 82 490 72 488 Q 63 484 71 466 Q 96 417 93 365 Q 90 316 72 293 Q 59 275 67 264 Q 79 251 96 244 Q 109 240 117 248 Q 147 296 294 354 Q 313 361 322 361 Q 323 362 325 363 C 354 371 360 413 331 404 Z" fill="black" /></g></svg>