<?xml version='1.0' encoding='utf-8'?>
<svg xmlns="http://www.w3.org/2000/svg" version="1.1" viewBox="0 0 1024 1024"><g transform="scale(1, -1) translate(0, -900)"><path d="M 701 698 Q 616 694 542 681 L 503 675 Q 433 665 373 650 Q 357 647 362 667 Q 368 692 374 718 Q 380 740 372 753 Q 359 771 339 785 Q 329 792 320 790 Q 310 787 315 769 Q 328 729 318 691 Q 311 654 294 639 Q 276 626 282 612 Q 291 596 306 586 Q 313 580 331 588 Q 374 621 586 656 Q 662 669 694 665 C 724 663 731 700 701 698 Z" fill="black" /></g></svg>