<?xml version='1.0' encoding='utf-8'?>
<svg xmlns="http://www.w3.org/2000/svg" version="1.1" viewBox="0 0 1024 1024"><g transform="scale(1, -1) translate(0, -900)"><path d="M 696 697 Q 608 691 531 678 L 489 672 Q 413 662 347 644 Q 328 640 334 662 Q 338 689 345 716 Q 349 738 341 753 Q 328 771 305 785 Q 295 792 285 790 Q 275 786 281 768 Q 296 726 287 686 Q 280 647 263 631 Q 245 615 251 601 Q 261 586 277 575 Q 290 566 300 574 Q 339 614 581 653 Q 657 666 693 664 C 723 664 726 699 696 697 Z" fill="black" /></g></svg>