<?xml version='1.0' encoding='utf-8'?>
<svg xmlns="http://www.w3.org/2000/svg" version="1.1" viewBox="0 0 1024 1024"><g transform="scale(1, -1) translate(0, -900)"><path d="M 690 295 Q 697 299 708 300 Q 766 315 787 311 C 817 309 820 347 790 343 Q 738 337 691 327 L 642 316 Q 599 307 562 294 Q 549 293 553 308 Q 565 371 559 384 Q 547 399 528 411 Q 519 415 511 415 Q 502 412 507 396 Q 520 360 513 327 Q 507 294 493 281 Q 477 266 484 255 Q 493 242 506 234 Q 515 230 533 240 Q 551 256 643 283 L 690 295 Z" fill="black" /></g></svg>