<?xml version='1.0' encoding='utf-8'?>
<svg xmlns="http://www.w3.org/2000/svg" version="1.1" viewBox="0 0 1024 1024"><g transform="scale(1, -1) translate(0, -900)"><path d="M 688 680 Q 634 680 532 662 L 494 656 Q 394 643 366 630 Q 359 627 357 630 Q 357 631 363 684 Q 367 721 318 747 Q 312 750 306 751 Q 293 754 287 750 Q 283 744 294 723 Q 324 657 278 600 Q 266 590 267 582 Q 270 575 285 560 Q 300 547 308 547 Q 315 547 321 553 Q 339 587 563 629 Q 573 633 688 646 C 718 649 718 681 688 680 Z" fill="black" /></g></svg>