<?xml version='1.0' encoding='utf-8'?>
<svg xmlns="http://www.w3.org/2000/svg" version="1.1" viewBox="0 0 1024 1024"><g transform="scale(1, -1) translate(0, -900)"><path d="M 607 386 Q 611 350 614 308 L 616 275 Q 619 124 591 73 Q 590 67 583 65 Q 574 61 497 72 Q 488 72 486 69 Q 485 65 493 57 Q 547 8 575 -29 Q 585 -42 591 -40 Q 603 -39 623 -20 Q 665 16 669 101 Q 673 149 667 269 Q 666 276 666 281 L 664 318 Q 660 370 658 393 L 654 425 Q 653 446 653 462 Q 653 481 641 489 Q 626 498 613 504 C 586 518 559 522 575 497 Q 590 482 603 418 L 607 386 Z" fill="black" /></g></svg>