<?xml version='1.0' encoding='utf-8'?>
<svg xmlns="http://www.w3.org/2000/svg" version="1.1" viewBox="0 0 1024 1024"><g transform="scale(1, -1) translate(0, -900)"><path d="M 675 168 Q 690 146 705 138 Q 715 131 729 150 Q 742 171 770 287 Q 777 315 799 339 Q 812 351 801 364 Q 786 380 747 403 Q 734 409 654 392 Q 644 392 622 385 L 574 375 Q 559 375 459 352 C 430 345 447 312 476 321 Q 515 334 572 344 L 618 354 Q 697 373 713 359 Q 723 346 721 333 Q 697 201 681 194 C 669 176 669 176 675 168 Z" fill="black" /></g></svg>