<?xml version='1.0' encoding='utf-8'?>
<svg xmlns="http://www.w3.org/2000/svg" version="1.1" viewBox="0 0 1024 1024"><g transform="scale(1, -1) translate(0, -900)"><path d="M 634 497 Q 641 500 650 502 Q 696 514 741 527 Q 760 534 767 523 Q 791 454 782 138 Q 776 69 771 59 Q 767 53 747 58 Q 717 65 688 74 Q 667 81 668 71 Q 726 17 760 -23 Q 773 -42 790 -48 Q 800 -52 809 -42 Q 852 7 851 66 Q 821 459 847 511 Q 860 532 847 542 Q 825 561 786 576 Q 764 585 712 554 Q 670 539 613 528 C 584 522 605 489 634 497 Z" fill="black" /></g></svg>