<?xml version='1.0' encoding='utf-8'?>
<svg xmlns="http://www.w3.org/2000/svg" version="1.1" viewBox="0 0 1024 1024"><g transform="scale(1, -1) translate(0, -900)"><path d="M 569 155 Q 572 43 609 11 Q 679 -49 833 -24 Q 843 -21 856 -18 Q 893 -8 929 19 Q 947 32 935 56 Q 922 86 908 175 Q 907 190 901 194 Q 895 197 891 181 Q 869 87 851 56 Q 841 41 808 32 Q 729 13 664 42 Q 616 67 608 160 L 608 197 Q 608 228 610 260 L 613 294 Q 614 324 618 354 L 622 385 Q 625 410 630 434 Q 634 452 622 461 Q 609 474 586 483 Q 573 487 565 482 Q 558 478 564 460 Q 573 433 574 375 L 572 344 Q 571 313 570 282 L 569 253 Q 568 219 568 187 L 569 155 Z" fill="black" /></g></svg>