<?xml version='1.0' encoding='utf-8'?>
<svg xmlns="http://www.w3.org/2000/svg" version="1.1" viewBox="0 0 1024 1024"><g transform="scale(1, -1) translate(0, -900)"><path d="M 349 360 Q 307 350 274 337 L 231 322 Q 192 309 161 293 Q 148 289 150 306 Q 154 352 158 402 Q 161 426 151 439 Q 135 455 112 467 Q 100 473 91 470 Q 81 466 89 448 Q 114 396 107 342 Q 103 290 82 267 Q 66 249 75 236 Q 87 223 104 214 Q 116 210 132 223 Q 168 259 285 302 Q 328 320 346 320 C 376 324 378 367 349 360 Z" fill="black" /></g></svg>