<?xml version='1.0' encoding='utf-8'?>
<svg xmlns="http://www.w3.org/2000/svg" version="1.1" viewBox="0 0 1024 1024"><g transform="scale(1, -1) translate(0, -900)"><path d="M 376 297 Q 409 304 439 306 Q 467 307 459 321 Q 450 333 435 340 Q 420 346 378 331 L 333 321 Q 236 305 235 304 Q 234 305 235 313 Q 263 373 306 445 L 335 495 Q 357 532 369 540 Q 382 550 368 570 Q 346 597 329 611 Q 317 620 310 618 C 301 621 301 621 302 612 Q 301 606 303 594 Q 306 569 275 480 L 256 436 L 256 435 Q 205 335 171 305 Q 155 292 159 277 Q 163 258 173 248 Q 180 238 191 242 Q 242 270 332 288 L 376 297 Z" fill="black" /></g></svg>