<?xml version='1.0' encoding='utf-8'?>
<svg xmlns="http://www.w3.org/2000/svg" version="1.1" viewBox="0 0 1024 1024"><g transform="scale(1, -1) translate(0, -900)"><path d="M 671 682 Q 590 676 522 665 L 481 658 Q 405 648 341 630 Q 325 629 330 647 Q 336 672 342 698 Q 348 720 340 733 Q 327 751 307 765 Q 297 772 288 770 Q 278 767 283 749 Q 296 709 286 671 Q 279 634 262 619 Q 244 604 250 591 Q 259 576 274 566 Q 284 560 303 571 Q 345 602 559 639 Q 640 652 670 649 C 700 648 701 684 671 682 Z" fill="black" /></g></svg>