<?xml version='1.0' encoding='utf-8'?>
<svg xmlns="http://www.w3.org/2000/svg" version="1.1" viewBox="0 0 1024 1024"><g transform="scale(1, -1) translate(0, -900)"><path d="M 548 460 Q 587 310 642 192 L 662 153 Q 728 36 814 -22 Q 875 -64 902 -60 Q 921 -54 912 -28 Q 903 18 897 151 Q 896 173 886 174 Q 880 173 875 152 Q 865 115 855 83 Q 846 49 834 48 Q 824 47 802 61 Q 733 116 695 186 L 671 234 Q 617 360 595 468 L 588 515 Q 587 531 587 549 Q 594 589 540 601 Q 506 611 488 601 Q 470 592 482 576 Q 524 546 537 501 L 548 460 Z" fill="black" /></g></svg>