<?xml version='1.0' encoding='utf-8'?>
<svg xmlns="http://www.w3.org/2000/svg" version="1.1" viewBox="0 0 1024 1024"><g transform="scale(1, -1) translate(0, -900)"><path d="M 604 296 Q 623 265 641 257 Q 651 248 667 271 Q 682 295 713 426 Q 722 457 746 483 Q 759 496 748 511 Q 732 529 688 555 Q 670 564 574 543 Q 565 543 427 517 Q 373 507 328 499 C 298 494 315 456 344 464 Q 396 480 471 492 L 512 499 Q 552 508 600 513 Q 637 519 648 506 Q 661 491 658 476 Q 634 332 615 320 C 602 300 602 300 604 296 Z" fill="black" /></g></svg>