<?xml version='1.0' encoding='utf-8'?>
<svg xmlns="http://www.w3.org/2000/svg" version="1.1" viewBox="0 0 1024 1024"><g transform="scale(1, -1) translate(0, -900)"><path d="M 925 397 Q 915 419 903 488 Q 903 501 897 506 Q 893 509 888 494 Q 863 421 847 399 Q 838 389 812 382 Q 746 369 703 389 Q 684 399 678 411 Q 669 433 680 506 Q 687 531 644 545 Q 634 549 627 545 Q 621 541 626 527 Q 638 496 636 465 Q 633 387 662 357 Q 726 305 854 328 Q 857 331 863 331 Q 891 341 919 364 Q 935 376 925 397 Z" fill="black" /></g></svg>