<?xml version='1.0' encoding='utf-8'?>
<svg xmlns="http://www.w3.org/2000/svg" version="1.1" viewBox="0 0 1024 1024"><g transform="scale(1, -1) translate(0, -900)"><path d="M 668 131 Q 717 97 786 39 Q 811 18 829 19 Q 850 19 850 39 Q 851 58 823 105 Q 810 130 700 174 L 653 193 Q 607 212 573 221 Q 552 225 564 245 Q 583 281 596 304 L 617 341 Q 617 342 618 342 Q 628 366 640 380 Q 650 387 647 397 Q 643 410 610 436 C 587 455 567 461 576 432 Q 576 431 578 427 Q 587 405 578 381 Q 569 356 561 333 L 545 295 Q 530 265 516 245 Q 506 227 509 215 Q 510 205 528 201 Q 603 180 623 159 L 668 131 Z" fill="black" /></g></svg>