<?xml version='1.0' encoding='utf-8'?>
<svg xmlns="http://www.w3.org/2000/svg" version="1.1" viewBox="0 0 1024 1024"><g transform="scale(1, -1) translate(0, -900)"><path d="M 897 363 Q 884 387 873 430 Q 872 442 865 446 Q 858 450 856 434 Q 843 382 835 374 Q 829 367 815 362 Q 758 350 728 359 Q 718 365 714 372 Q 707 391 709 441 Q 709 448 710 453 L 712 472 Q 716 503 725 521 Q 735 543 720 557 Q 681 587 669 583 Q 657 579 663 565 Q 679 537 675 494 Q 669 362 693 340 Q 724 319 822 317 Q 867 318 885 327 Q 907 340 897 363 Z" fill="black" /></g></svg>