<?xml version='1.0' encoding='utf-8'?>
<svg xmlns="http://www.w3.org/2000/svg" version="1.1" viewBox="0 0 1024 1024"><g transform="scale(1, -1) translate(0, -900)"><path d="M 370 69 Q 398 38 405 20 Q 412 -2 423 -5 Q 433 -6 447 19 Q 463 53 464 110 Q 457 233 460 354 L 461 396 Q 461 399 462 400 Q 466 467 476 501 Q 489 523 448 541 Q 423 556 408 550 Q 395 546 406 528 Q 422 507 423 482 Q 423 472 421 387 L 420 347 Q 419 259 414 111 Q 414 96 406 91 Q 405 91 403 90 C 385 66 361 80 370 69 Z" fill="black" /></g></svg>