<?xml version='1.0' encoding='utf-8'?>
<svg xmlns="http://www.w3.org/2000/svg" version="1.1" viewBox="0 0 1024 1024"><g transform="scale(1, -1) translate(0, -900)"><path d="M 318 363 Q 281 356 246 343 L 203 328 Q 166 316 135 302 Q 120 298 122 316 Q 123 365 126 418 Q 127 440 118 452 Q 103 467 80 478 Q 70 482 60 480 Q 51 476 59 458 Q 87 406 81 353 Q 80 301 60 277 Q 44 261 53 248 Q 65 235 81 227 Q 94 221 103 230 Q 122 260 258 311 Q 295 324 314 327 C 343 333 347 369 318 363 Z" fill="black" /></g></svg>