<?xml version='1.0' encoding='utf-8'?>
<svg xmlns="http://www.w3.org/2000/svg" version="1.1" viewBox="0 0 1024 1024"><g transform="scale(1, -1) translate(0, -900)"><path d="M 618 68 Q 661 34 721 -22 Q 745 -44 762 -44 Q 783 -45 784 -26 Q 785 -5 760 42 Q 748 66 650 113 L 604 134 Q 562 153 533 162 Q 508 168 522 192 Q 535 220 544 237 L 560 273 Q 566 286 572 294 Q 581 301 577 311 Q 571 324 532 350 Q 522 359 510 354 Q 498 350 506 335 Q 515 313 504 267 L 494 231 Q 467 165 468 158 Q 471 148 487 145 Q 515 136 577 98 L 618 68 Z" fill="black" /></g></svg>