<?xml version='1.0' encoding='utf-8'?>
<svg xmlns="http://www.w3.org/2000/svg" version="1.1" viewBox="0 0 1024 1024"><g transform="scale(1, -1) translate(0, -900)"><path d="M 417 292 Q 360 112 201 25 Q 185 15 169 4 Q 156 -5 167 -8 Q 227 -14 323 63 Q 365 93 409 158 Q 458 251 472 300 L 481 335 Q 488 360 495 383 Q 496 393 499 401 L 516 444 Q 517 448 520 450 Q 530 468 514 477 Q 501 490 489 496 C 464 513 431 515 436 485 Q 440 472 442 425 L 438 391 Q 438 376 426 324 L 417 292 Z" fill="black" /></g></svg>