<?xml version='1.0' encoding='utf-8'?>
<svg xmlns="http://www.w3.org/2000/svg" version="1.1" viewBox="0 0 1024 1024"><g transform="scale(1, -1) translate(0, -900)"><path d="M 421 627 Q 478 643 541 652 Q 638 668 659 658 C 688 652 695 697 665 695 Q 583 691 512 679 L 476 674 Q 398 664 333 646 Q 317 645 323 662 Q 336 726 332 737 Q 319 755 299 769 Q 289 776 280 775 Q 270 772 275 754 Q 296 676 254 636 Q 236 621 242 608 Q 251 593 266 582 Q 278 575 287 581 Q 305 599 393 620 L 421 627 Z" fill="black" /></g></svg>