<?xml version='1.0' encoding='utf-8'?>
<svg xmlns="http://www.w3.org/2000/svg" version="1.1" viewBox="0 0 1024 1024"><g transform="scale(1, -1) translate(0, -900)"><path d="M 362 384 Q 319 377 282 366 L 239 355 Q 202 345 169 332 Q 151 326 154 348 Q 155 390 158 434 Q 159 456 150 468 Q 135 483 112 494 Q 102 498 92 496 Q 83 492 91 474 Q 116 428 112 378 Q 109 332 92 310 Q 76 292 84 280 Q 96 267 112 258 Q 125 252 133 260 Q 155 290 289 333 Q 343 348 358 346 C 388 347 392 389 362 384 Z" fill="black" /></g></svg>