<?xml version='1.0' encoding='utf-8'?>
<svg xmlns="http://www.w3.org/2000/svg" version="1.1" viewBox="0 0 1024 1024"><g transform="scale(1, -1) translate(0, -900)"><path d="M 314 389 Q 280 382 250 371 L 207 356 Q 171 346 143 331 Q 128 325 130 344 Q 131 384 134 426 Q 135 448 126 460 Q 111 475 88 486 Q 78 490 68 488 Q 59 484 67 466 Q 92 420 87 372 Q 86 327 68 306 Q 53 288 61 276 Q 73 263 89 255 Q 99 251 115 264 Q 149 301 272 342 Q 305 354 317 351 C 347 351 343 395 314 389 Z" fill="black" /></g></svg>