<?xml version='1.0' encoding='utf-8'?>
<svg xmlns="http://www.w3.org/2000/svg" version="1.1" viewBox="0 0 1024 1024"><g transform="scale(1, -1) translate(0, -900)"><path d="M 215 346 Q 175 336 144 321 Q 129 317 133 335 Q 137 387 143 440 Q 147 462 137 475 Q 124 491 101 503 Q 91 507 81 506 Q 71 502 79 485 Q 104 430 95 375 Q 89 323 68 300 Q 52 282 60 270 Q 72 257 88 248 Q 95 245 116 257 Q 143 284 266 326 Q 320 344 335 341 C 365 342 363 385 334 379 Q 292 370 257 359 L 215 346 Z" fill="black" /></g></svg>