<?xml version='1.0' encoding='utf-8'?>
<svg xmlns="http://www.w3.org/2000/svg" version="1.1" viewBox="0 0 1024 1024"><g transform="scale(1, -1) translate(0, -900)"><path d="M 402 225 Q 412 209 424 202 Q 434 195 449 213 Q 462 229 493 326 Q 502 354 524 376 Q 537 388 527 401 Q 514 417 475 442 Q 459 451 379 432 Q 367 432 344 425 L 300 417 Q 278 414 259 409 Q 216 399 182 393 C 152 388 163 353 192 361 Q 235 374 301 387 L 343 396 Q 421 414 440 401 Q 450 392 447 378 Q 425 285 416 271 Q 412 264 403 259 C 387 245 387 245 402 225 Z" fill="black" /></g></svg>