<?xml version='1.0' encoding='utf-8'?>
<svg xmlns="http://www.w3.org/2000/svg" version="1.1" viewBox="0 0 1024 1024"><g transform="scale(1, -1) translate(0, -900)"><path d="M 332 394 Q 292 384 256 369 L 217 354 Q 177 341 146 324 Q 136 321 137 334 Q 141 376 147 420 Q 151 442 141 455 Q 128 471 105 483 Q 95 489 86 487 Q 76 483 83 465 Q 105 416 97 367 Q 91 321 72 300 Q 57 282 65 270 Q 77 257 94 249 Q 107 243 115 252 Q 149 300 293 347 Q 318 357 328 355 Q 329 356 332 357 C 362 362 361 402 332 394 Z" fill="black" /></g></svg>