<?xml version='1.0' encoding='utf-8'?>
<svg xmlns="http://www.w3.org/2000/svg" version="1.1" viewBox="0 0 1024 1024"><g transform="scale(1, -1) translate(0, -900)"><path d="M 765 145 Q 807 154 917 149 Q 936 148 944 158 Q 950 167 932 177 Q 886 213 829 196 Q 816 193 803 190 Q 784 189 765 183 L 717 174 Q 683 170 650 160 Q 625 151 632 174 Q 644 217 654 234 Q 663 243 658 252 Q 652 261 622 276 Q 607 283 598 278 Q 588 271 597 259 Q 607 237 596 186 Q 592 168 571 149 Q 562 140 564 128 Q 565 118 581 107 Q 593 100 604 110 Q 650 134 717 140 L 765 145 Z" fill="black" /></g></svg>