<?xml version='1.0' encoding='utf-8'?>
<svg xmlns="http://www.w3.org/2000/svg" version="1.1" viewBox="0 0 1024 1024"><g transform="scale(1, -1) translate(0, -900)"><path d="M 428 387 Q 450 426 475 469 L 483 485 Q 483 488 485 488 Q 522 566 562 663 Q 563 669 568 675 L 576 689 Q 586 707 602 723 Q 614 736 608 744 Q 604 751 544 763 Q 525 769 510 753 Q 477 731 398 713 Q 382 710 393 698 Q 418 680 477 703 Q 501 713 511 705 Q 518 693 471 569 L 461 542 Q 389 383 291 246 Q 281 233 294 235 Q 337 253 422 378 Q 422 381 424 381 L 428 387 Z" fill="black" /></g></svg>