<?xml version='1.0' encoding='utf-8'?>
<svg xmlns="http://www.w3.org/2000/svg" version="1.1" viewBox="0 0 1024 1024"><g transform="scale(1, -1) translate(0, -900)"><path d="M 419 176 Q 449 185 466 186 C 496 189 505 220 475 215 Q 448 211 424 204 L 383 194 Q 352 187 325 177 Q 318 177 321 184 Q 340 242 335 256 Q 328 269 311 282 Q 304 288 297 288 Q 288 287 292 272 Q 299 238 289 207 Q 280 177 266 166 Q 253 154 257 144 Q 264 134 277 125 Q 286 118 294 124 Q 309 142 376 162 L 419 176 Z" fill="black" /></g></svg>