<?xml version='1.0' encoding='utf-8'?>
<svg xmlns="http://www.w3.org/2000/svg" version="1.1" viewBox="0 0 1024 1024"><g transform="scale(1, -1) translate(0, -900)"><path d="M 739 653 Q 740 650 741 646 Q 745 633 755 632 Q 771 635 800 687 Q 816 730 849 754 Q 865 767 853 781 Q 840 797 797 821 Q 785 830 722 817 Q 604 804 545 791 Q 490 781 450 775 C 420 770 433 738 462 746 Q 483 752 537 763 L 559 766 Q 593 773 639 779 L 675 784 Q 747 797 769 786 Q 776 782 771 762 Q 753 696 745 678 C 737 657 737 657 739 653 Z" fill="black" /></g></svg>