<?xml version='1.0' encoding='utf-8'?>
<svg xmlns="http://www.w3.org/2000/svg" version="1.1" viewBox="0 0 1024 1024"><g transform="scale(1, -1) translate(0, -900)"><path d="M 274 256 Q 277 132 252 55 Q 248 45 243 44 Q 233 41 203 47 Q 175 57 169 52 Q 166 46 175 34 Q 205 3 223 -27 Q 239 -52 250 -52 Q 254 -55 268 -41 Q 340 47 315 316 Q 311 352 303 381 Q 296 406 288 424 L 265 467 Q 229 515 185 536 Q 173 543 168 533 Q 164 520 169 502 Q 176 483 193 478 Q 214 469 236 429 L 253 390 Q 262 359 266 339 L 274 256 Z" fill="black" /></g></svg>