<?xml version='1.0' encoding='utf-8'?>
<svg xmlns="http://www.w3.org/2000/svg" version="1.1" viewBox="0 0 1024 1024"><g transform="scale(1, -1) translate(0, -900)"><path d="M 601 281 Q 674 288 759 289 Q 778 288 786 278 Q 793 271 789 257 Q 776 88 762 64 Q 756 52 742 56 Q 714 59 683 63 Q 656 64 676 48 Q 739 2 765 -33 Q 775 -46 788 -38 Q 816 -11 830 89 Q 840 225 860 252 Q 876 271 870 280 Q 863 293 815 325 Q 797 340 782 334 Q 754 324 704 317 Q 460 298 368 278 Q 301 266 249 261 C 219 258 238 217 268 222 Q 280 221 293 225 Q 332 238 391 251 L 417 256 Q 478 272 564 278 L 601 281 Z" fill="black" /></g></svg>