<?xml version='1.0' encoding='utf-8'?>
<svg xmlns="http://www.w3.org/2000/svg" version="1.1" viewBox="0 0 1024 1024"><g transform="scale(1, -1) translate(0, -900)"><path d="M 310 348 Q 276 341 246 331 L 204 318 Q 170 308 142 295 Q 126 291 130 309 Q 140 426 131 439 Q 115 455 92 467 Q 82 473 71 470 Q 61 466 69 448 Q 93 396 86 344 Q 82 295 62 272 Q 46 253 54 241 Q 67 226 84 218 Q 97 211 106 220 Q 136 262 269 300 Q 296 307 305 306 Q 306 307 309 308 C 339 313 339 354 310 348 Z" fill="black" /></g></svg>