<?xml version='1.0' encoding='utf-8'?>
<svg xmlns="http://www.w3.org/2000/svg" version="1.1" viewBox="0 0 1024 1024"><g transform="scale(1, -1) translate(0, -900)"><path d="M 376 666 Q 458 690 547 704 Q 632 716 649 708 C 678 702 687 744 657 743 Q 591 742 533 732 L 495 727 Q 425 718 367 704 Q 351 703 357 720 Q 367 771 363 782 Q 351 798 332 812 Q 323 819 314 818 Q 304 815 309 798 Q 330 731 292 695 Q 274 682 280 669 Q 289 654 303 644 Q 313 637 323 643 Q 329 650 346 656 L 376 666 Z" fill="black" /></g></svg>