<?xml version='1.0' encoding='utf-8'?>
<svg xmlns="http://www.w3.org/2000/svg" version="1.1" viewBox="0 0 1024 1024"><g transform="scale(1, -1) translate(0, -900)"><path d="M 974 65 Q 961 86 941 149 Q 940 162 932 166 Q 928 167 925 153 Q 909 83 896 60 Q 863 29 767 31 Q 730 32 702 43 Q 677 55 672 70 Q 656 109 682 228 Q 688 253 649 270 Q 639 274 631 270 Q 627 267 629 253 Q 639 220 635 190 Q 625 85 632 55 Q 635 36 654 20 Q 729 -34 884 -6 Q 890 -3 896 -3 Q 933 6 972 28 Q 988 43 974 65 Z" fill="black" /></g></svg>