<?xml version='1.0' encoding='utf-8'?>
<svg xmlns="http://www.w3.org/2000/svg" version="1.1" viewBox="0 0 1024 1024"><g transform="scale(1, -1) translate(0, -900)"><path d="M 584 297 Q 583 293 582 286 Q 552 169 470 55 Q 466 51 464 46 Q 463 39 470 40 Q 480 40 508 71 Q 589 146 624 303 L 631 333 Q 634 349 637 366 Q 638 378 640 389 L 647 423 Q 654 447 653 452 Q 629 477 616 478 C 588 489 582 492 590 473 Q 590 472 592 467 Q 604 446 600 411 L 597 383 Q 593 353 588 324 L 584 297 Z" fill="black" /></g></svg>