<?xml version='1.0' encoding='utf-8'?>
<svg xmlns="http://www.w3.org/2000/svg" version="1.1" viewBox="0 0 1024 1024"><g transform="scale(1, -1) translate(0, -900)"><path d="M 709 313 Q 709 307 712 301 Q 716 288 727 289 Q 739 290 745 303 Q 757 319 777 396 Q 790 441 821 467 Q 837 480 823 494 Q 808 509 765 530 Q 752 537 698 524 Q 680 524 567 498 Q 564 498 561 497 L 537 491 Q 513 487 497 483 C 468 476 493 445 521 455 Q 548 465 590 473 L 616 478 Q 719 502 738 492 Q 747 486 742 458 Q 726 370 716 339 L 709 313 Z" fill="black" /></g></svg>