<?xml version='1.0' encoding='utf-8'?>
<svg xmlns="http://www.w3.org/2000/svg" version="1.1" viewBox="0 0 1024 1024"><g transform="scale(1, -1) translate(0, -900)"><path d="M 789 171 Q 790 162 797 152 Q 810 125 818 126 Q 831 127 846 157 Q 855 175 856 218 Q 841 387 870 430 Q 879 445 872 453 Q 847 474 804 492 Q 791 496 770 488 Q 758 484 653 451 L 631 447 Q 618 446 607 444 C 577 440 593 405 621 417 Q 648 432 759 452 Q 778 458 786 447 Q 799 431 798 377 Q 799 230 792 196 L 789 171 Z" fill="black" /></g></svg>