<?xml version='1.0' encoding='utf-8'?>
<svg xmlns="http://www.w3.org/2000/svg" version="1.1" viewBox="0 0 1024 1024"><g transform="scale(1, -1) translate(0, -900)"><path d="M 480 616 Q 462 547 418 492 Q 408 483 407 474 Q 407 464 430 444 Q 464 419 511 366 Q 524 347 536 349 Q 551 350 557 368 Q 564 392 557 407 Q 548 429 460 461 Q 439 471 450 489 Q 457 502 493 543 Q 527 583 542 593 Q 552 597 555 604 Q 559 620 537 644 Q 518 666 500 671 Q 481 674 475 668 Q 472 664 478 654 Q 487 641 480 616 Z" fill="black" /></g></svg>