<?xml version='1.0' encoding='utf-8'?>
<svg xmlns="http://www.w3.org/2000/svg" version="1.1" viewBox="0 0 1024 1024"><g transform="scale(1, -1) translate(0, -900)"><path d="M 311 589 Q 295 528 248 471 Q 236 459 235 451 Q 234 441 257 420 Q 294 390 343 331 Q 356 312 367 314 Q 382 314 389 332 Q 396 356 390 371 Q 380 396 289 434 Q 268 446 279 465 Q 285 477 322 517 Q 359 554 372 565 Q 384 569 386 576 Q 390 592 369 616 Q 351 638 332 644 Q 314 648 308 642 Q 305 638 310 628 Q 317 613 311 589 Z" fill="black" /></g></svg>