<?xml version='1.0' encoding='utf-8'?>
<svg xmlns="http://www.w3.org/2000/svg" version="1.1" viewBox="0 0 1024 1024"><g transform="scale(1, -1) translate(0, -900)"><path d="M 319 188 Q 328 195 331 210 Q 337 249 296 321 Q 266 379 342 469 Q 346 476 353 481 Q 375 500 354 516 Q 335 532 299 545 Q 277 558 258 540 Q 227 513 183 495 Q 126 467 107 469 Q 100 469 98 464 Q 97 460 105 455 Q 145 437 253 486 Q 260 490 269 482 Q 291 457 267 427 Q 215 376 258 303 Q 297 224 293 190 C 294 160 302 163 319 188 Z" fill="black" /></g></svg>