<?xml version='1.0' encoding='utf-8'?>
<svg xmlns="http://www.w3.org/2000/svg" version="1.1" viewBox="0 0 1024 1024"><g transform="scale(1, -1) translate(0, -900)"><path d="M 553 384 Q 602 418 703 438 Q 743 448 766 441 Q 791 432 793 392 Q 781 250 716 139 Q 700 114 685 108 Q 670 104 597 125 Q 581 134 578 126 Q 577 119 590 106 Q 627 61 650 22 Q 660 7 673 7 Q 691 6 713 19 Q 774 80 802 154 Q 830 227 851 369 Q 854 403 867 423 Q 880 436 869 450 Q 850 469 808 487 Q 786 497 759 487 Q 725 475 698 470 Q 665 464 624 458 Q 597 454 610 479 Q 661 596 682 623 Q 695 638 683 654 Q 668 666 643 675 C 616 688 599 696 603 666 Q 616 624 594 555 Q 587 536 578 515 Q 565 487 521 447 Q 503 429 506 413 Q 509 398 526 383 Q 539 371 553 384 Z" fill="black" /></g></svg>