<?xml version='1.0' encoding='utf-8'?>
<svg xmlns="http://www.w3.org/2000/svg" version="1.1" viewBox="0 0 1024 1024"><g transform="scale(1, -1) translate(0, -900)"><path d="M 647 368 Q 651 358 664 357 Q 677 358 686 373 Q 696 385 717 443 Q 735 495 773 525 Q 792 541 776 557 Q 758 575 708 602 Q 692 612 632 599 Q 524 592 424 573 Q 319 557 279 561 C 249 562 291 520 321 524 Q 328 523 337 525 Q 386 540 471 549 L 510 553 Q 646 574 673 559 Q 680 555 676 527 Q 657 427 648 407 Q 644 400 643 393 C 636 375 636 375 647 368 Z" fill="black" /></g></svg>