<?xml version='1.0' encoding='utf-8'?>
<svg xmlns="http://www.w3.org/2000/svg" version="1.1" viewBox="0 0 1024 1024"><g transform="scale(1, -1) translate(0, -900)"><path d="M 499 277 Q 503 290 496 299 Q 478 315 460 324 Q 447 331 438 327 Q 428 321 438 305 Q 474 245 426 46 Q 419 30 407 10 Q 397 -6 405 -16 Q 412 -26 434 -36 Q 447 -42 458 -27 Q 465 0 523 53 Q 545 69 552 87 Q 556 97 550 96 Q 541 96 486 52 Q 479 46 475 48 Q 465 51 469 72 Q 484 166 490 213 Q 491 250 499 277 Z" fill="black" /></g></svg>