<?xml version='1.0' encoding='utf-8'?>
<svg xmlns="http://www.w3.org/2000/svg" version="1.1" viewBox="0 0 1024 1024"><g transform="scale(1, -1) translate(0, -900)"><path d="M 906 154 Q 885 220 876 330 Q 875 349 866 354 Q 856 360 852 337 Q 834 199 815 174 Q 755 108 523 111 Q 394 115 339 137 Q 291 162 281 195 Q 254 280 284 406 Q 288 437 299 457 C 309 485 309 485 295 496 Q 292 500 289 503 Q 232 546 215 542 Q 197 535 206 516 Q 228 473 222 410 Q 215 223 234 169 Q 273 78 432 58 Q 532 46 689 58 Q 831 68 885 101 Q 919 117 906 154 Z" fill="black" /></g></svg>