<?xml version='1.0' encoding='utf-8'?>
<svg xmlns="http://www.w3.org/2000/svg" version="1.1" viewBox="0 0 1024 1024"><g transform="scale(1, -1) translate(0, -900)"><path d="M 324 536 Q 351 578 384 633 Q 394 654 405 664 Q 418 674 411 683 Q 402 695 368 708 Q 347 718 308 699 Q 239 677 149 666 Q 136 666 136 658 Q 135 651 149 644 Q 192 623 218 633 Q 312 664 321 664 Q 331 660 320 641 Q 271 538 227 489 Q 181 434 99 377 Q 84 367 94 363 Q 103 362 122 369 Q 195 400 255 455 Q 280 477 308 514 L 324 536 Z" fill="black" /></g></svg>