<?xml version='1.0' encoding='utf-8'?>
<svg xmlns="http://www.w3.org/2000/svg" version="1.1" viewBox="0 0 1024 1024"><g transform="scale(1, -1) translate(0, -900)"><path d="M 540 646 Q 547 649 558 652 Q 616 670 671 691 Q 681 692 685 688 Q 691 681 688 667 Q 595 34 954 42 Q 957 43 962 43 Q 978 43 982 52 Q 989 64 979 92 Q 969 140 972 221 Q 972 234 966 243 Q 959 250 953 231 Q 931 155 917 131 Q 911 121 903 119 Q 893 115 882 115 Q 849 118 815 150 Q 728 225 719 404 Q 715 494 736 586 Q 749 652 789 693 Q 801 702 789 713 Q 776 729 738 744 Q 704 757 689 747 Q 625 707 528 679 C 499 670 511 637 540 646 Z" fill="black" /></g></svg>