<?xml version='1.0' encoding='utf-8'?>
<svg xmlns="http://www.w3.org/2000/svg" version="1.1" viewBox="0 0 1024 1024"><g transform="scale(1, -1) translate(0, -900)"><path d="M 326 134 Q 411 68 662 78 Q 813 84 895 113 Q 923 119 931 134 Q 937 144 926 165 Q 904 210 888 308 Q 884 324 876 329 Q 870 332 867 317 Q 854 263 843 218 Q 833 178 809 164 Q 787 151 672 140 Q 554 130 461 141 Q 391 151 364 169 Q 328 193 318 237 Q 305 301 312 439 Q 312 442 312 443 L 314 473 Q 321 591 344 651 C 353 680 354 684 346 689 L 346 690 Q 333 703 295 720 Q 262 732 252 722 Q 243 715 257 693 Q 278 662 276 615 Q 270 482 264 330 Q 255 198 326 134 Z" fill="black" /></g></svg>