<?xml version='1.0' encoding='utf-8'?>
<svg xmlns="http://www.w3.org/2000/svg" version="1.1" viewBox="0 0 1024 1024"><g transform="scale(1, -1) translate(0, -900)"><path d="M 905 136 Q 883 196 869 299 Q 866 317 858 322 Q 848 328 845 305 Q 832 176 814 153 Q 759 93 527 91 Q 400 95 347 118 Q 299 143 290 175 Q 275 215 276 323 Q 280 387 290 432 L 299 473 Q 302 486 308 497 Q 323 531 301 551 Q 244 596 227 591 Q 209 584 218 565 Q 240 522 233 459 Q 220 195 249 136 Q 289 58 438 40 Q 537 28 691 39 Q 830 49 885 81 Q 921 100 905 136 Z" fill="black" /></g></svg>