<?xml version='1.0' encoding='utf-8'?>
<svg xmlns="http://www.w3.org/2000/svg" version="1.1" viewBox="0 0 1024 1024"><g transform="scale(1, -1) translate(0, -900)"><path d="M 377 183 Q 376 193 368 199 Q 322 233 308 230 Q 295 224 301 209 Q 310 191 314 164 Q 314 29 323 15 Q 330 0 348 -12 Q 420 -64 646 -37 Q 746 -21 786 -1 Q 813 15 798 44 Q 777 84 760 156 Q 756 171 749 174 Q 742 178 740 159 Q 736 69 725 52 Q 671 1 419 10 Q 406 11 396 13 Q 363 22 359 36 Q 346 85 369 147 L 377 183 Z" fill="black" /></g></svg>