<?xml version='1.0' encoding='utf-8'?>
<svg xmlns="http://www.w3.org/2000/svg" version="1.1" viewBox="0 0 1024 1024"><g transform="scale(1, -1) translate(0, -900)"><path d="M 789 72 Q 776 97 753 178 Q 752 194 745 198 Q 739 201 735 183 Q 713 96 697 69 Q 679 50 631 37 Q 580 24 519 27 Q 467 28 427 45 Q 393 61 383 83 Q 368 116 374 188 L 377 221 Q 381 264 392 313 Q 393 320 393 325 C 396 344 396 344 373 351 Q 364 357 354 361 C 329 377 323 364 329 335 Q 339 301 336 266 Q 318 65 360 22 Q 369 4 440 -17 Q 630 -62 778 26 Q 779 29 784 30 Q 803 46 789 72 Z" fill="black" /></g></svg>