<?xml version='1.0' encoding='utf-8'?>
<svg xmlns="http://www.w3.org/2000/svg" version="1.1" viewBox="0 0 1024 1024"><g transform="scale(1, -1) translate(0, -900)"><path d="M 697 526 Q 743 536 789 540 Q 819 544 822 525 Q 837 354 814 328 Q 805 322 746 333 Q 728 337 725 333 Q 722 327 733 318 Q 790 279 825 249 Q 840 236 852 251 Q 877 284 878 362 Q 872 473 882 532 Q 886 553 876 561 Q 848 585 830 595 Q 817 599 809 591 Q 802 581 698 557 L 642 547 Q 593 540 511 528 C 481 524 508 483 536 493 Q 540 499 642 517 L 697 526 Z" fill="black" /></g></svg>