<?xml version='1.0' encoding='utf-8'?>
<svg xmlns="http://www.w3.org/2000/svg" version="1.1" viewBox="0 0 1024 1024"><g transform="scale(1, -1) translate(0, -900)"><path d="M 582 430 Q 640 440 697 444 Q 728 445 730 425 Q 739 266 717 245 Q 711 244 653 263 Q 637 270 633 265 Q 629 259 639 247 Q 691 196 721 158 Q 737 142 752 157 Q 791 199 789 254 Q 786 383 797 431 Q 801 453 791 462 Q 763 489 743 500 Q 730 507 719 497 Q 712 487 595 463 Q 589 463 583 461 L 524 452 Q 472 446 388 436 C 358 432 367 399 397 400 Q 407 399 421 401 Q 472 413 524 421 L 582 430 Z" fill="black" /></g></svg>