<?xml version='1.0' encoding='utf-8'?>
<svg xmlns="http://www.w3.org/2000/svg" version="1.1" viewBox="0 0 1024 1024"><g transform="scale(1, -1) translate(0, -900)"><path d="M 541 504 Q 611 514 679 518 Q 715 522 717 498 Q 726 324 704 299 Q 695 295 638 302 Q 620 306 617 301 Q 613 295 626 284 Q 681 241 715 207 Q 731 192 746 208 Q 779 247 779 328 Q 773 440 787 505 Q 791 527 780 539 Q 750 567 729 579 Q 714 586 704 576 Q 698 567 542 536 L 484 528 Q 420 522 312 511 C 282 508 295 467 325 470 Q 332 470 342 471 Q 414 487 484 496 L 541 504 Z" fill="black" /></g></svg>