<?xml version='1.0' encoding='utf-8'?>
<svg xmlns="http://www.w3.org/2000/svg" version="1.1" viewBox="0 0 1024 1024"><g transform="scale(1, -1) translate(0, -900)"><path d="M 369 445 Q 429 544 465 625 L 481 665 Q 511 740 525 761 Q 538 774 534 789 Q 522 813 494 836 Q 478 852 463 852 Q 448 848 451 831 Q 460 810 447 752 Q 440 733 432 709 Q 422 682 412 656 L 396 614 Q 320 452 240 360 Q 170 287 119 242 Q 112 236 108 230 Q 102 220 114 219 Q 147 216 257 310 Q 281 332 305 359 Q 323 381 341 406 L 369 445 Z" fill="black" /></g></svg>