<?xml version='1.0' encoding='utf-8'?>
<svg xmlns="http://www.w3.org/2000/svg" version="1.1" viewBox="0 0 1024 1024"><g transform="scale(1, -1) translate(0, -900)"><path d="M 517 556 Q 508 569 494 614 Q 494 626 488 629 Q 484 632 481 619 Q 459 570 447 555 Q 440 545 417 539 Q 366 524 320 541 Q 302 548 298 559 Q 289 575 288 605 L 288 635 Q 289 669 297 710 L 297 711 C 300 726 300 726 288 734 Q 278 744 260 749 Q 250 753 243 748 Q 237 745 242 730 Q 254 699 253 669 Q 250 527 293 504 Q 303 498 322 493 Q 433 468 513 527 Q 526 537 517 556 Z" fill="black" /></g></svg>