<?xml version='1.0' encoding='utf-8'?>
<svg xmlns="http://www.w3.org/2000/svg" version="1.1" viewBox="0 0 1024 1024"><g transform="scale(1, -1) translate(0, -900)"><path d="M 542 555 Q 593 562 656 568 Q 677 569 689 558 Q 707 552 711 526 Q 718 462 711 341 Q 712 313 686 313 Q 649 314 620 317 Q 601 318 607 309 Q 611 297 643 278 Q 689 247 717 212 Q 730 202 743 209 Q 771 228 784 319 Q 785 337 785 354 Q 770 540 785 563 Q 797 578 787 590 Q 774 602 724 620 Q 702 627 685 617 Q 660 610 591 601 Q 566 598 543 594 L 481 583 Q 447 579 418 573 Q 349 561 300 555 C 270 551 285 502 313 513 Q 323 514 334 522 Q 385 535 481 548 L 542 555 Z" fill="black" /></g></svg>