<?xml version='1.0' encoding='utf-8'?>
<svg xmlns="http://www.w3.org/2000/svg" version="1.1" viewBox="0 0 1024 1024"><g transform="scale(1, -1) translate(0, -900)"><path d="M 538 481 Q 601 491 665 496 Q 698 497 699 476 Q 708 305 689 284 Q 674 272 613 284 Q 597 287 593 281 Q 590 275 603 266 Q 664 227 703 197 Q 719 184 732 199 Q 759 236 760 314 Q 754 420 765 484 Q 769 505 759 515 Q 731 540 711 552 Q 698 559 687 549 Q 680 540 538 510 L 483 502 Q 425 496 327 484 C 297 480 309 445 339 448 Q 346 447 357 449 Q 421 462 483 472 L 538 481 Z" fill="black" /></g></svg>