<?xml version='1.0' encoding='utf-8'?>
<svg xmlns="http://www.w3.org/2000/svg" version="1.1" viewBox="0 0 1024 1024"><g transform="scale(1, -1) translate(0, -900)"><path d="M 811 581 Q 801 597 787 645 Q 786 658 781 661 Q 777 664 772 650 Q 750 598 737 581 Q 730 571 706 565 Q 652 550 606 570 Q 587 579 582 591 Q 573 609 572 637 L 572 664 Q 573 701 581 746 C 584 762 584 762 569 772 Q 559 781 544 785 Q 534 789 527 784 Q 521 781 526 766 Q 538 735 537 705 Q 534 570 560 545 Q 573 532 610 518 Q 727 485 806 549 Q 821 561 811 581 Z" fill="black" /></g></svg>