<?xml version='1.0' encoding='utf-8'?>
<svg xmlns="http://www.w3.org/2000/svg" version="1.1" viewBox="0 0 1024 1024"><g transform="scale(1, -1) translate(0, -900)"><path d="M 639 344 Q 801 378 825 360 Q 832 354 831 341 Q 806 209 792 192 Q 786 182 773 188 Q 748 195 720 204 Q 692 211 710 190 Q 762 130 781 90 Q 788 77 801 83 Q 828 101 855 187 Q 882 304 905 326 Q 921 347 915 356 Q 908 369 854 405 Q 835 421 819 415 Q 788 405 732 396 Q 680 389 639 382 L 588 374 Q 551 368 528 361 Q 485 351 454 346 Q 429 342 425 332 Q 424 325 441 315 Q 475 293 509 306 Q 537 319 587 331 L 639 344 Z" fill="black" /></g></svg>