<?xml version='1.0' encoding='utf-8'?>
<svg xmlns="http://www.w3.org/2000/svg" version="1.1" viewBox="0 0 1024 1024"><g transform="scale(1, -1) translate(0, -900)"><path d="M 287 376 Q 288 375 292 372 Q 338 341 367 317 Q 380 307 390 319 Q 411 346 412 417 Q 406 501 415 545 Q 416 563 408 571 Q 383 592 366 601 Q 354 605 346 597 Q 342 591 291 576 L 243 566 Q 212 562 159 551 C 130 545 140 515 170 518 Q 179 518 189 520 Q 214 527 243 533 L 290 542 Q 308 546 329 548 Q 356 555 361 538 Q 370 406 355 388 Q 349 384 301 387 Q 291 390 287 387 C 272 387 272 387 287 376 Z" fill="black" /></g></svg>