<?xml version='1.0' encoding='utf-8'?>
<svg xmlns="http://www.w3.org/2000/svg" version="1.1" viewBox="0 0 1024 1024"><g transform="scale(1, -1) translate(0, -900)"><path d="M 271 503 Q 302 510 333 513 Q 358 520 364 502 Q 373 376 356 356 Q 350 353 313 357 Q 300 361 296 357 Q 295 353 303 343 Q 340 310 363 286 Q 376 274 387 286 Q 411 314 413 390 Q 407 459 418 508 Q 421 527 412 535 Q 387 556 370 565 Q 358 569 351 561 Q 345 555 271 535 L 225 525 Q 188 521 132 510 C 103 504 113 475 143 478 Q 150 478 161 480 Q 192 489 225 494 L 271 503 Z" fill="black" /></g></svg>