<?xml version='1.0' encoding='utf-8'?>
<svg xmlns="http://www.w3.org/2000/svg" version="1.1" viewBox="0 0 1024 1024"><g transform="scale(1, -1) translate(0, -900)"><path d="M 559 370 Q 686 388 703 370 Q 710 363 707 349 Q 710 201 700 179 Q 696 169 685 172 Q 652 176 617 183 Q 593 184 611 169 Q 681 126 711 91 Q 721 79 731 89 Q 758 117 759 262 Q 759 331 772 351 Q 785 370 779 377 Q 772 389 726 418 Q 710 431 695 425 Q 670 415 621 406 Q 588 403 561 399 L 498 391 Q 440 385 410 377 Q 377 370 352 365 C 323 359 342 316 370 327 Q 400 342 498 361 L 559 370 Z" fill="black" /></g></svg>