<?xml version='1.0' encoding='utf-8'?>
<svg xmlns="http://www.w3.org/2000/svg" version="1.1" viewBox="0 0 1024 1024"><g transform="scale(1, -1) translate(0, -900)"><path d="M 675 481 Q 718 488 762 492 Q 795 496 798 474 Q 810 327 792 306 Q 783 297 720 301 Q 704 302 701 297 Q 698 291 711 283 Q 772 250 809 223 Q 825 211 836 226 Q 857 259 859 324 Q 853 436 861 483 Q 864 504 854 513 Q 826 538 806 548 Q 793 554 783 545 Q 777 536 678 516 Q 675 516 675 515 L 626 507 Q 581 503 509 492 C 479 488 494 452 524 456 Q 530 456 537 457 Q 580 467 626 474 L 675 481 Z" fill="black" /></g></svg>