<?xml version='1.0' encoding='utf-8'?>
<svg xmlns="http://www.w3.org/2000/svg" version="1.1" viewBox="0 0 1024 1024"><g transform="scale(1, -1) translate(0, -900)"><path d="M 708 160 Q 747 217 773 304 Q 780 337 798 354 Q 813 367 796 382 Q 777 397 745 409 Q 724 416 705 405 Q 683 395 660 385 L 621 373 Q 534 355 533 353 Q 524 346 542 338 Q 567 326 603 338 Q 651 350 698 362 Q 717 369 718 348 Q 718 270 671 193 L 648 160 Q 585 97 456 57 Q 443 53 451 46 Q 458 40 485 44 Q 617 60 678 123 L 708 160 Z" fill="black" /></g></svg>