<?xml version='1.0' encoding='utf-8'?>
<svg xmlns="http://www.w3.org/2000/svg" version="1.1" viewBox="0 0 1024 1024"><g transform="scale(1, -1) translate(0, -900)"><path d="M 310 537 Q 340 543 371 544 Q 398 548 401 530 Q 410 389 391 368 Q 382 362 341 370 Q 328 373 325 369 Q 322 365 332 356 Q 375 323 400 298 Q 413 286 424 298 Q 448 331 449 393 Q 443 480 454 536 Q 458 554 449 562 Q 424 584 408 593 Q 398 597 389 590 Q 383 583 310 567 L 269 559 Q 232 555 165 545 C 135 541 156 508 185 515 Q 227 525 269 531 L 310 537 Z" fill="black" /></g></svg>