<?xml version='1.0' encoding='utf-8'?>
<svg xmlns="http://www.w3.org/2000/svg" version="1.1" viewBox="0 0 1024 1024"><g transform="scale(1, -1) translate(0, -900)"><path d="M 273 543 Q 321 555 331 548 Q 344 544 347 524 Q 353 475 347 384 Q 347 365 329 365 Q 302 368 281 372 Q 268 373 271 366 Q 272 357 297 341 Q 330 316 350 287 Q 360 280 369 284 Q 376 288 386 314 Q 399 344 400 421 Q 393 526 404 546 Q 413 556 407 565 Q 398 575 364 592 Q 354 598 293 582 Q 287 582 274 577 L 233 568 Q 218 567 205 562 Q 172 555 149 550 C 120 544 130 507 159 515 Q 165 516 171 518 Q 192 527 233 534 L 273 543 Z" fill="black" /></g></svg>