<?xml version='1.0' encoding='utf-8'?>
<svg xmlns="http://www.w3.org/2000/svg" version="1.1" viewBox="0 0 1024 1024"><g transform="scale(1, -1) translate(0, -900)"><path d="M 544 406 Q 595 413 645 417 Q 676 416 677 394 Q 683 247 665 227 Q 655 224 606 236 Q 590 242 585 237 Q 581 231 592 219 Q 641 171 671 136 Q 687 120 703 135 Q 742 177 739 232 Q 736 346 746 401 Q 750 423 740 433 Q 712 461 692 472 Q 679 479 668 469 Q 661 460 552 439 Q 549 439 547 438 L 489 430 Q 440 426 359 416 C 329 412 351 373 380 379 Q 425 388 489 398 L 544 406 Z" fill="black" /></g></svg>