<?xml version='1.0' encoding='utf-8'?>
<svg xmlns="http://www.w3.org/2000/svg" version="1.1" viewBox="0 0 1024 1024"><g transform="scale(1, -1) translate(0, -900)"><path d="M 276 349 Q 282 342 296 332 Q 329 304 349 275 Q 359 266 369 272 Q 376 276 387 303 Q 402 334 402 420 Q 395 523 408 541 Q 417 551 411 561 Q 402 571 367 587 Q 352 594 339 587 Q 326 583 291 574 Q 282 573 277 570 L 235 559 Q 214 556 144 535 C 115 526 136 487 163 501 Q 170 510 235 524 L 276 535 Q 324 551 335 544 Q 348 540 351 518 Q 355 466 347 373 Q 348 354 331 354 Q 303 358 281 363 Q 278 364 276 363 C 257 366 257 366 276 349 Z" fill="black" /></g></svg>