<?xml version='1.0' encoding='utf-8'?>
<svg xmlns="http://www.w3.org/2000/svg" version="1.1" viewBox="0 0 1024 1024"><g transform="scale(1, -1) translate(0, -900)"><path d="M 524 326 Q 602 336 681 340 Q 717 341 718 318 Q 727 180 712 163 Q 702 156 638 167 Q 620 171 617 165 Q 613 159 626 148 Q 687 105 724 71 Q 742 56 755 72 Q 783 111 785 181 Q 779 278 788 326 Q 792 348 781 359 Q 751 387 731 398 Q 716 405 706 395 Q 696 383 553 359 Q 541 358 526 355 L 464 348 Q 395 342 287 332 C 257 329 278 291 308 294 Q 317 293 327 295 Q 396 308 465 318 L 524 326 Z" fill="black" /></g></svg>