<?xml version='1.0' encoding='utf-8'?>
<svg xmlns="http://www.w3.org/2000/svg" version="1.1" viewBox="0 0 1024 1024"><g transform="scale(1, -1) translate(0, -900)"><path d="M 540 352 Q 591 359 644 363 Q 675 364 676 343 Q 685 208 666 187 Q 657 181 600 200 Q 584 206 581 201 Q 577 195 588 185 Q 640 139 672 104 Q 688 89 701 104 Q 732 137 733 219 Q 733 318 739 349 Q 743 370 733 379 Q 706 404 688 415 Q 675 422 666 412 Q 659 403 553 384 Q 547 384 541 382 L 485 375 Q 433 371 350 361 C 320 357 339 324 369 328 L 486 344 L 540 352 Z" fill="black" /></g></svg>