<?xml version='1.0' encoding='utf-8'?>
<svg xmlns="http://www.w3.org/2000/svg" version="1.1" viewBox="0 0 1024 1024"><g transform="scale(1, -1) translate(0, -900)"><path d="M 522 498 Q 747 537 796 528 Q 814 519 812 512 Q 812 506 774 432 Q 767 417 773 413 Q 780 409 799 420 Q 860 459 910 470 Q 950 480 950 490 Q 949 502 871 561 Q 849 579 823 574 Q 607 544 560 535 L 533 532 Q 457 522 360 506 Q 300 496 240 489 C 210 485 208 463 237 454 Q 262 441 289 448 Q 421 488 464 489 L 522 498 Z" fill="black" /></g></svg>