<?xml version='1.0' encoding='utf-8'?>
<svg xmlns="http://www.w3.org/2000/svg" version="1.1" viewBox="0 0 1024 1024"><g transform="scale(1, -1) translate(0, -900)"><path d="M 300 361 L 301 361 Q 353 333 385 309 Q 398 299 407 312 Q 428 340 428 405 Q 422 498 431 545 Q 434 563 425 571 Q 400 590 384 600 Q 372 604 365 596 Q 361 592 302 575 L 260 567 Q 226 563 174 553 C 145 547 153 519 183 522 Q 192 522 202 524 Q 230 531 260 537 L 302 544 Q 324 548 347 551 Q 374 555 377 538 Q 386 397 371 380 Q 359 370 311 376 Q 304 376 300 376 C 270 377 273 375 300 361 Z" fill="black" /></g></svg>