<?xml version='1.0' encoding='utf-8'?>
<svg xmlns="http://www.w3.org/2000/svg" version="1.1" viewBox="0 0 1024 1024"><g transform="scale(1, -1) translate(0, -900)"><path d="M 678 483 Q 732 495 761 498 Q 789 502 797 493 Q 807 484 809 453 Q 808 422 809 384 Q 810 356 801 345 Q 798 339 745 339 Q 729 343 723 337 Q 719 333 734 321 Q 779 281 804 249 Q 816 236 832 242 Q 842 246 852 269 Q 871 306 871 353 Q 870 456 880 490 Q 887 506 880 516 Q 808 564 768 539 Q 732 526 679 515 L 624 504 Q 573 495 508 487 C 478 483 501 443 530 451 Q 539 455 624 472 L 678 483 Z" fill="black" /></g></svg>