<?xml version='1.0' encoding='utf-8'?>
<svg xmlns="http://www.w3.org/2000/svg" version="1.1" viewBox="0 0 1024 1024"><g transform="scale(1, -1) translate(0, -900)"><path d="M 304 367 Q 305 366 308 364 Q 354 333 383 309 Q 396 299 406 311 Q 427 338 428 408 Q 422 505 431 553 Q 434 569 425 578 Q 401 597 385 606 Q 373 610 366 602 Q 362 598 305 580 L 263 570 Q 230 564 176 553 C 147 547 162 515 191 523 Q 197 526 263 541 L 304 550 Q 326 556 351 559 Q 375 562 377 546 Q 389 405 371 380 Q 365 376 317 379 Q 307 382 304 379 C 286 379 286 379 304 367 Z" fill="black" /></g></svg>