<?xml version='1.0' encoding='utf-8'?>
<svg xmlns="http://www.w3.org/2000/svg" version="1.1" viewBox="0 0 1024 1024"><g transform="scale(1, -1) translate(0, -900)"><path d="M 238 104 Q 229 65 253 9 Q 260 -7 267 -11 Q 273 -17 280 -10 Q 287 -6 297 15 Q 306 37 305 68 Q 304 105 304 367 L 304 379 Q 304 455 304 550 L 305 580 Q 306 664 321 721 Q 330 736 327 748 Q 320 757 267 789 Q 245 805 226 790 Q 222 786 227 771 Q 258 725 260 678 Q 261 627 263 570 L 263 541 Q 263 226 249 150 Q 243 128 238 104 Z" fill="black" /></g></svg>