<?xml version='1.0' encoding='utf-8'?>
<svg xmlns="http://www.w3.org/2000/svg" version="1.1" viewBox="0 0 1024 1024"><g transform="scale(1, -1) translate(0, -900)"><path d="M 533 353 Q 581 360 629 364 Q 662 368 664 347 Q 673 221 657 202 Q 648 195 587 203 Q 569 206 565 201 Q 562 195 574 186 Q 634 149 671 119 Q 686 106 698 121 Q 723 152 724 219 Q 718 306 728 354 Q 732 375 721 384 Q 693 409 674 420 Q 661 426 651 417 Q 644 407 536 385 Q 535 385 534 384 L 476 376 Q 425 372 343 360 C 313 356 327 322 357 324 Q 366 323 377 325 Q 426 337 477 344 L 533 353 Z" fill="black" /></g></svg>