<?xml version='1.0' encoding='utf-8'?>
<svg xmlns="http://www.w3.org/2000/svg" version="1.1" viewBox="0 0 1024 1024"><g transform="scale(1, -1) translate(0, -900)"><path d="M 531 658 Q 574 665 625 670 L 673 675 Q 739 682 796 687 Q 806 686 816 698 Q 817 710 795 721 Q 756 743 695 725 Q 692 725 692 724 L 633 711 Q 630 711 533 693 L 488 685 Q 442 679 397 674 L 348 670 Q 293 666 234 660 Q 206 659 226 640 Q 236 630 251 621 Q 264 612 286 618 Q 320 625 358 630 L 399 637 Q 441 644 488 651 L 531 658 Z" fill="black" /></g></svg>