<?xml version='1.0' encoding='utf-8'?>
<svg xmlns="http://www.w3.org/2000/svg" version="1.1" viewBox="0 0 1024 1024"><g transform="scale(1, -1) translate(0, -900)"><path d="M 272 584 Q 272 587 273 589 Q 273 689 291 756 Q 300 772 297 785 Q 290 795 234 829 Q 210 845 189 830 Q 185 826 191 809 Q 225 760 226 709 Q 227 645 228 571 L 228 540 Q 225 237 217 172 Q 195 52 195 49 Q 195 34 215 -10 Q 222 -28 230 -31 Q 237 -38 244 -29 Q 251 -25 262 -4 Q 272 21 270 53 Q 269 104 272 553 L 272 584 Z" fill="black" /></g></svg>