<?xml version='1.0' encoding='utf-8'?>
<svg xmlns="http://www.w3.org/2000/svg" version="1.1" viewBox="0 0 1024 1024"><g transform="scale(1, -1) translate(0, -900)"><path d="M 526 311 Q 637 335 650 323 Q 662 313 661 279 Q 660 245 658 202 Q 657 171 647 159 Q 640 149 618 155 Q 567 164 563 161 Q 559 157 573 145 Q 619 102 647 68 Q 659 55 677 60 Q 687 64 698 89 Q 719 128 718 176 Q 717 282 729 319 Q 736 335 729 344 Q 659 390 620 367 Q 584 354 527 343 L 468 331 Q 414 322 349 315 C 319 312 331 274 361 278 Q 368 278 379 280 Q 425 290 468 299 L 526 311 Z" fill="black" /></g></svg>