<?xml version='1.0' encoding='utf-8'?>
<svg xmlns="http://www.w3.org/2000/svg" version="1.1" viewBox="0 0 1024 1024"><g transform="scale(1, -1) translate(0, -900)"><path d="M 672 55 Q 641 62 610 71 Q 598 74 599 66 Q 599 60 609 52 Q 673 -9 696 -46 Q 709 -62 725 -49 Q 761 -16 760 50 Q 751 218 757 265 L 764 307 Q 765 314 769 321 Q 776 337 761 351 Q 737 372 709 382 Q 693 389 684 381 Q 678 375 688 360 Q 704 329 707 295 L 707 258 Q 710 144 704 82 Q 703 63 692 56 Q 685 50 672 55 Z" fill="black" /></g></svg>