<?xml version='1.0' encoding='utf-8'?>
<svg xmlns="http://www.w3.org/2000/svg" version="1.1" viewBox="0 0 1024 1024"><g transform="scale(1, -1) translate(0, -900)"><path d="M 210 129 Q 198 90 223 27 Q 230 8 238 5 Q 244 -2 252 7 Q 279 23 280 89 Q 279 125 285 378 L 285 392 Q 286 462 288 544 L 289 579 Q 289 583 290 585 Q 291 676 310 739 Q 319 755 316 768 Q 309 778 254 813 Q 230 831 209 815 Q 205 811 210 794 Q 241 748 241 701 Q 241 640 242 569 L 242 536 Q 238 409 234 271 Q 230 198 210 129 Z" fill="black" /></g></svg>