<?xml version='1.0' encoding='utf-8'?>
<svg xmlns="http://www.w3.org/2000/svg" version="1.1" viewBox="0 0 1024 1024"><g transform="scale(1, -1) translate(0, -900)"><path d="M 285 378 Q 333 344 361 318 Q 374 306 385 319 Q 406 347 408 410 Q 402 500 411 545 Q 414 563 404 571 Q 379 592 362 601 Q 350 605 343 597 Q 339 593 289 579 L 242 569 Q 212 565 159 555 C 130 550 142 515 171 522 Q 204 531 242 536 L 288 544 Q 306 548 325 549 Q 352 556 357 538 Q 366 406 351 388 Q 344 382 297 390 Q 290 391 285 392 C 260 396 261 395 285 378 Z" fill="black" /></g></svg>