<?xml version='1.0' encoding='utf-8'?>
<svg xmlns="http://www.w3.org/2000/svg" version="1.1" viewBox="0 0 1024 1024"><g transform="scale(1, -1) translate(0, -900)"><path d="M 423 433 Q 423 550 428 566 Q 435 581 427 590 Q 361 627 325 605 Q 303 596 272 584 L 228 571 Q 186 561 135 549 C 106 542 117 503 145 514 Q 163 523 228 540 L 272 553 Q 302 563 322 567 Q 344 574 353 567 Q 363 560 364 529 Q 364 499 365 462 Q 366 437 358 424 Q 352 415 332 421 Q 322 421 311 422 Q 296 426 291 421 Q 287 417 301 406 Q 340 369 361 338 Q 373 326 388 332 Q 398 336 407 358 Q 419 383 422 412 L 423 433 Z" fill="black" /></g></svg>