<?xml version='1.0' encoding='utf-8'?>
<svg xmlns="http://www.w3.org/2000/svg" version="1.1" viewBox="0 0 1024 1024"><g transform="scale(1, -1) translate(0, -900)"><path d="M 502 428 Q 733 470 787 460 Q 805 451 800 440 Q 800 436 769 360 Q 759 344 767 340 Q 777 336 795 350 Q 853 390 901 405 Q 941 417 939 427 Q 936 439 860 493 Q 839 511 812 507 Q 673 489 355 438 Q 291 426 227 420 Q 221 420 218 419 C 188 416 193 408 220 394 Q 251 372 283 381 Q 359 403 441 419 Q 442 420 446 420 L 502 428 Z" fill="black" /></g></svg>