<?xml version='1.0' encoding='utf-8'?>
<svg xmlns="http://www.w3.org/2000/svg" version="1.1" viewBox="0 0 1024 1024"><g transform="scale(1, -1) translate(0, -900)"><path d="M 304 446 Q 301 442 300 437 Q 267 362 183 292 Q 170 280 167 275 Q 166 269 176 269 Q 212 269 283 340 Q 325 383 360 462 L 373 506 Q 379 531 385 559 Q 385 563 386 566 L 392 609 Q 395 637 399 666 L 403 714 Q 403 736 413 798 Q 419 816 400 825 Q 357 847 344 846 Q 326 843 340 823 Q 358 790 356 699 L 353 655 Q 350 628 347 595 L 340 555 Q 333 525 321 491 L 304 446 Z" fill="black" /></g></svg>