<?xml version='1.0' encoding='utf-8'?>
<svg xmlns="http://www.w3.org/2000/svg" version="1.1" viewBox="0 0 1024 1024"><g transform="scale(1, -1) translate(0, -900)"><path d="M 647 688 Q 643 592 667 566 Q 701 529 799 530 Q 842 533 859 543 Q 884 556 874 582 Q 861 613 853 667 Q 852 680 845 686 Q 838 690 835 673 Q 816 609 805 598 Q 798 589 743 585 Q 715 585 704 589 Q 694 593 691 598 Q 678 640 688 693 L 696 738 Q 700 757 707 770 Q 717 795 702 811 Q 659 845 646 842 Q 633 838 639 822 Q 648 804 649 727 L 647 688 Z" fill="black" /></g></svg>