<?xml version='1.0' encoding='utf-8'?>
<svg xmlns="http://www.w3.org/2000/svg" version="1.1" viewBox="0 0 1024 1024"><g transform="scale(1, -1) translate(0, -900)"><path d="M 533 705 Q 540 704 549 706 Q 612 725 756 741 Q 781 744 790 738 Q 800 732 795 699 Q 774 576 763 552 Q 756 534 762 519 Q 768 503 780 505 Q 793 506 800 521 Q 813 540 836 630 Q 851 681 886 711 Q 905 727 888 741 Q 872 757 822 783 Q 810 790 742 777 Q 720 777 602 753 Q 556 744 526 739 C 496 734 503 702 533 705 Z" fill="black" /></g></svg>