<?xml version='1.0' encoding='utf-8'?>
<svg xmlns="http://www.w3.org/2000/svg" version="1.1" viewBox="0 0 1024 1024"><g transform="scale(1, -1) translate(0, -900)"><path d="M 269 363 Q 270 362 276 356 Q 322 325 351 301 Q 364 291 374 303 Q 395 330 396 401 Q 390 485 399 529 Q 400 547 392 555 Q 367 576 350 585 Q 338 589 330 581 Q 326 575 273 560 L 227 550 Q 196 546 143 535 C 114 529 124 499 154 502 Q 163 502 173 504 Q 198 511 227 517 L 272 526 Q 291 530 313 532 Q 340 539 345 522 Q 354 390 339 372 Q 333 368 285 371 Q 272 374 269 370 C 261 369 261 369 269 363 Z" fill="black" /></g></svg>