<?xml version='1.0' encoding='utf-8'?>
<svg xmlns="http://www.w3.org/2000/svg" version="1.1" viewBox="0 0 1024 1024"><g transform="scale(1, -1) translate(0, -900)"><path d="M 782 86 Q 792 61 816 13 Q 825 -5 835 -4 Q 851 -1 860 25 Q 887 80 903 239 Q 907 288 931 318 Q 949 337 936 352 Q 914 374 867 394 Q 848 404 815 393 Q 742 368 659 350 Q 589 340 488 331 C 458 328 475 289 505 293 Q 512 293 519 294 Q 567 304 630 315 L 671 323 Q 726 333 793 344 Q 823 350 835 335 Q 856 301 826 126 Q 825 110 818 108 Q 815 107 807 109 C 780 95 778 94 782 86 Z" fill="black" /></g></svg>