<?xml version='1.0' encoding='utf-8'?>
<svg xmlns="http://www.w3.org/2000/svg" version="1.1" viewBox="0 0 1024 1024"><g transform="scale(1, -1) translate(0, -900)"><path d="M 230 112 Q 220 76 244 14 Q 251 -4 259 -7 Q 265 -14 272 -5 Q 279 -1 289 19 Q 299 44 298 74 Q 297 122 302 547 L 302 581 Q 302 584 303 586 Q 304 682 322 746 Q 331 761 327 774 Q 320 784 267 817 Q 243 833 224 818 Q 218 814 225 798 Q 256 752 258 703 Q 258 642 260 572 L 260 539 Q 256 406 254 259 Q 250 183 230 112 Z" fill="black" /></g></svg>