<?xml version='1.0' encoding='utf-8'?>
<svg xmlns="http://www.w3.org/2000/svg" version="1.1" viewBox="0 0 1024 1024"><g transform="scale(1, -1) translate(0, -900)"><path d="M 766 645 Q 785 696 805 710 Q 829 734 808 749 Q 789 761 765 780 Q 747 792 728 782 Q 697 766 661 755 L 605 742 Q 562 736 505 731 Q 493 732 495 725 Q 496 719 509 711 Q 528 701 562 707 Q 580 711 601 715 L 653 726 Q 669 730 685 733 Q 724 740 732 725 Q 738 719 729 692 Q 720 665 710 634 C 701 605 755 617 766 645 Z" fill="black" /></g></svg>