<?xml version='1.0' encoding='utf-8'?>
<svg xmlns="http://www.w3.org/2000/svg" version="1.1" viewBox="0 0 1024 1024"><g transform="scale(1, -1) translate(0, -900)"><path d="M 668 168 Q 749 180 886 175 Q 907 174 914 185 Q 920 194 901 205 Q 844 242 792 223 Q 767 219 740 213 Q 704 209 669 202 L 617 193 Q 556 184 496 169 Q 472 162 479 183 Q 494 223 505 239 Q 515 248 510 258 Q 504 268 474 285 Q 458 295 448 289 Q 438 282 446 269 Q 455 247 442 197 Q 438 178 414 159 Q 405 149 406 137 Q 407 127 423 114 Q 436 105 448 116 Q 508 146 617 161 L 668 168 Z" fill="black" /></g></svg>