<?xml version='1.0' encoding='utf-8'?>
<svg xmlns="http://www.w3.org/2000/svg" version="1.1" viewBox="0 0 1024 1024"><g transform="scale(1, -1) translate(0, -900)"><path d="M 198 89 Q 188 52 212 -10 Q 219 -28 227 -31 Q 233 -38 240 -29 Q 267 -13 267 50 Q 266 90 270 373 L 270 388 Q 270 460 273 544 L 274 579 Q 275 669 293 730 Q 302 745 299 758 Q 292 768 238 801 Q 216 817 195 803 Q 191 799 197 783 Q 228 734 230 686 Q 230 631 231 569 L 231 536 Q 231 535 232 533 Q 228 391 224 237 Q 220 159 198 89 Z" fill="black" /></g></svg>