<?xml version='1.0' encoding='utf-8'?>
<svg xmlns="http://www.w3.org/2000/svg" version="1.1" viewBox="0 0 1024 1024"><g transform="scale(1, -1) translate(0, -900)"><path d="M 302 547 Q 357 562 370 553 Q 382 549 384 532 Q 388 490 384 413 Q 384 391 363 391 Q 338 391 317 392 Q 304 393 307 386 Q 310 377 335 363 Q 366 341 385 315 Q 394 308 403 312 Q 431 334 436 405 Q 436 540 444 553 Q 453 563 446 573 Q 436 583 400 599 Q 391 603 331 588 Q 324 588 302 581 L 260 572 Q 244 571 229 565 Q 195 558 171 553 C 142 547 150 510 179 518 Q 186 518 195 522 Q 217 531 260 539 L 302 547 Z" fill="black" /></g></svg>