<?xml version='1.0' encoding='utf-8'?>
<svg xmlns="http://www.w3.org/2000/svg" version="1.1" viewBox="0 0 1024 1024"><g transform="scale(1, -1) translate(0, -900)"><path d="M 535 287 Q 572 293 610 294 Q 638 295 640 275 Q 649 176 638 162 Q 626 153 574 160 Q 559 161 557 157 Q 554 153 566 144 Q 618 113 652 87 Q 665 77 676 90 Q 697 118 697 184 Q 691 247 697 283 Q 701 302 691 310 Q 666 332 649 342 Q 639 346 630 338 Q 623 331 537 315 L 480 307 Q 438 303 372 295 C 342 291 353 261 383 264 Q 390 264 398 265 Q 438 274 480 279 L 535 287 Z" fill="black" /></g></svg>