<?xml version='1.0' encoding='utf-8'?>
<svg xmlns="http://www.w3.org/2000/svg" version="1.1" viewBox="0 0 1024 1024"><g transform="scale(1, -1) translate(0, -900)"><path d="M 702 608 Q 715 586 728 578 Q 738 571 753 588 Q 766 606 800 706 Q 810 734 832 756 Q 845 766 835 780 Q 822 796 784 823 Q 768 832 700 817 Q 694 817 589 797 Q 549 790 515 783 C 486 777 501 742 530 751 Q 529 752 532 752 Q 598 771 714 787 Q 739 791 748 782 Q 757 769 754 758 Q 726 644 710 636 C 696 618 696 618 702 608 Z" fill="black" /></g></svg>