<?xml version='1.0' encoding='utf-8'?>
<svg xmlns="http://www.w3.org/2000/svg" version="1.1" viewBox="0 0 1024 1024"><g transform="scale(1, -1) translate(0, -900)"><path d="M 677 141 Q 713 184 745 246 Q 760 274 782 291 Q 803 304 791 320 Q 779 333 748 349 Q 730 358 654 332 Q 561 308 507 301 Q 494 300 489 293 Q 485 286 503 279 Q 539 266 587 281 Q 663 306 678 305 Q 694 298 685 281 Q 666 220 634 174 L 610 144 Q 535 69 374 32 Q 358 29 370 19 Q 377 15 425 17 Q 486 21 555 51 Q 606 73 646 107 L 677 141 Z" fill="black" /></g></svg>