<?xml version='1.0' encoding='utf-8'?>
<svg xmlns="http://www.w3.org/2000/svg" version="1.1" viewBox="0 0 1024 1024"><g transform="scale(1, -1) translate(0, -900)"><path d="M 273 546 Q 300 553 328 555 Q 353 556 356 540 Q 365 423 350 406 Q 346 403 306 402 Q 291 406 289 401 Q 286 397 297 387 Q 337 356 361 331 Q 374 319 386 333 Q 408 363 410 423 Q 404 496 412 547 Q 416 565 406 573 Q 381 595 364 604 Q 352 608 345 600 Q 341 594 274 577 L 226 567 Q 193 563 145 553 C 116 547 126 515 155 522 Q 191 531 226 538 L 273 546 Z" fill="black" /></g></svg>