<?xml version='1.0' encoding='utf-8'?>
<svg xmlns="http://www.w3.org/2000/svg" version="1.1" viewBox="0 0 1024 1024"><g transform="scale(1, -1) translate(0, -900)"><path d="M 769 392 Q 782 370 796 362 Q 806 353 822 373 Q 832 383 860 449 Q 870 477 894 499 Q 907 509 897 524 Q 884 540 846 568 Q 828 580 767 564 Q 752 564 598 538 Q 534 528 482 520 C 452 515 467 488 497 492 Q 503 492 510 493 Q 534 500 565 505 L 589 510 Q 626 519 672 525 L 711 531 Q 733 535 760 538 Q 796 542 807 530 Q 813 521 811 513 Q 790 429 776 423 C 761 404 761 404 769 392 Z" fill="black" /></g></svg>