<?xml version='1.0' encoding='utf-8'?>
<svg xmlns="http://www.w3.org/2000/svg" version="1.1" viewBox="0 0 1024 1024"><g transform="scale(1, -1) translate(0, -900)"><path d="M 270 573 Q 331 591 343 584 Q 358 580 360 557 Q 364 503 355 405 Q 356 389 341 387 Q 314 394 293 399 Q 280 402 283 394 Q 284 385 306 366 Q 339 338 357 307 Q 367 298 378 304 Q 385 308 396 336 Q 409 366 411 441 Q 404 562 416 581 Q 425 591 419 601 Q 410 611 375 627 Q 360 634 347 628 Q 334 622 297 614 L 271 608 L 225 595 Q 210 594 147 576 C 118 568 125 532 154 540 Q 160 540 167 543 Q 188 552 225 562 L 270 573 Z" fill="black" /></g></svg>