<?xml version='1.0' encoding='utf-8'?>
<svg xmlns="http://www.w3.org/2000/svg" version="1.1" viewBox="0 0 1024 1024"><g transform="scale(1, -1) translate(0, -900)"><path d="M 735 286 Q 781 201 832 185 Q 832 186 833 185 Q 842 184 847 192 Q 846 253 843 316 Q 844 335 839 335 Q 835 336 829 320 Q 814 257 799 266 Q 784 276 756 320 L 735 362 Q 714 407 692 525 L 687 563 Q 686 576 687 586 Q 694 610 671 625 Q 658 634 648 634 Q 641 634 640 633 Q 625 629 637 615 Q 643 612 657 552 L 663 517 Q 678 412 718 323 L 735 286 Z" fill="black" /></g></svg>