<?xml version='1.0' encoding='utf-8'?>
<svg xmlns="http://www.w3.org/2000/svg" version="1.1" viewBox="0 0 1024 1024"><g transform="scale(1, -1) translate(0, -900)"><path d="M 272 528 Q 300 535 328 538 Q 352 541 354 525 Q 357 414 344 403 Q 341 402 306 401 Q 293 405 289 401 Q 285 397 295 386 Q 329 353 350 328 Q 363 315 375 328 Q 406 361 404 403 Q 401 488 411 529 Q 414 548 405 556 Q 380 578 364 587 Q 352 591 344 584 Q 340 578 273 559 L 229 549 Q 196 545 141 533 C 112 527 126 498 156 503 Q 162 503 170 505 Q 198 514 228 519 L 272 528 Z" fill="black" /></g></svg>