<?xml version='1.0' encoding='utf-8'?>
<svg xmlns="http://www.w3.org/2000/svg" version="1.1" viewBox="0 0 1024 1024"><g transform="scale(1, -1) translate(0, -900)"><path d="M 279 524 Q 324 542 336 536 Q 348 532 350 513 Q 354 468 348 385 Q 349 369 332 368 Q 313 369 296 371 Q 284 372 287 366 Q 288 359 310 342 Q 335 318 349 294 Q 358 287 367 291 Q 374 295 384 319 Q 397 350 399 418 Q 395 518 405 534 Q 414 544 408 553 Q 399 563 365 578 Q 352 585 338 578 Q 326 574 294 564 Q 287 563 280 560 L 237 547 Q 228 546 166 526 C 137 517 143 480 171 489 Q 177 490 184 493 Q 202 502 237 512 L 279 524 Z" fill="black" /></g></svg>