<?xml version='1.0' encoding='utf-8'?>
<svg xmlns="http://www.w3.org/2000/svg" version="1.1" viewBox="0 0 1024 1024"><g transform="scale(1, -1) translate(0, -900)"><path d="M 814 100 Q 845 61 868 24 Q 878 6 889 7 Q 905 8 920 42 Q 938 81 934 127 Q 922 293 916 598 Q 915 629 931 652 Q 941 665 931 675 Q 912 694 858 719 Q 840 728 824 718 Q 754 690 645 671 Q 534 653 487 652 C 457 650 462 616 492 620 Q 507 619 784 669 Q 826 676 846 660 Q 862 647 871 524 Q 877 410 871 259 Q 871 159 862 129 Q 858 116 848 116 C 832 91 801 117 814 100 Z" fill="black" /></g></svg>