<?xml version='1.0' encoding='utf-8'?>
<svg xmlns="http://www.w3.org/2000/svg" version="1.1" viewBox="0 0 1024 1024"><g transform="scale(1, -1) translate(0, -900)"><path d="M 198 132 Q 188 96 212 34 Q 219 16 227 13 Q 233 6 240 14 Q 267 38 266 94 Q 265 130 269 391 L 269 398 Q 269 467 271 548 L 272 580 Q 273 668 290 726 Q 297 741 295 754 Q 288 764 234 797 Q 212 813 191 799 Q 187 793 193 779 Q 223 733 224 688 Q 224 633 226 570 L 226 539 Q 223 412 221 270 Q 217 198 198 132 Z" fill="black" /></g></svg>