<?xml version='1.0' encoding='utf-8'?>
<svg xmlns="http://www.w3.org/2000/svg" version="1.1" viewBox="0 0 1024 1024"><g transform="scale(1, -1) translate(0, -900)"><path d="M 613 250 Q 619 278 625 310 L 632 350 Q 633 363 637 369 Q 644 375 638 384 Q 634 391 607 401 C 579 412 551 422 561 394 Q 561 393 563 390 Q 573 362 573 337 L 571 300 Q 568 270 563 243 L 553 209 Q 514 103 424 45 Q 399 30 367 12 Q 345 0 372 1 Q 388 0 419 11 Q 459 21 494 44 Q 560 83 600 201 Q 600 205 602 210 L 613 250 Z" fill="black" /></g></svg>