<?xml version='1.0' encoding='utf-8'?>
<svg xmlns="http://www.w3.org/2000/svg" version="1.1" viewBox="0 0 1024 1024"><g transform="scale(1, -1) translate(0, -900)"><path d="M 216 577 Q 225 581 320 602 L 355 610 Q 392 620 416 622 Q 440 626 447 620 Q 459 611 459 578 Q 459 547 460 506 Q 461 478 451 466 Q 447 457 428 461 Q 392 465 387 461 Q 383 457 396 449 Q 433 418 456 393 Q 468 383 483 389 Q 492 393 499 415 Q 515 451 511 493 Q 502 587 510 620 Q 516 633 509 640 Q 491 650 462 661 Q 446 668 434 661 Q 406 648 357 635 L 320 627 Q 274 617 211 608 C 181 604 187 569 216 577 Z" fill="black" /></g></svg>