<?xml version='1.0' encoding='utf-8'?>
<svg xmlns="http://www.w3.org/2000/svg" version="1.1" viewBox="0 0 1024 1024"><g transform="scale(1, -1) translate(0, -900)"><path d="M 199 117 Q 187 74 213 18 Q 219 0 227 -3 Q 233 -9 240 -1 Q 247 3 258 23 Q 268 48 267 78 Q 266 126 276 556 L 277 591 Q 280 673 297 730 Q 306 745 303 758 Q 296 768 242 801 Q 220 817 199 803 Q 195 799 200 783 Q 231 737 232 690 Q 232 638 232 579 L 232 546 Q 232 545 233 543 Q 229 407 224 259 Q 220 186 199 117 Z" fill="black" /></g></svg>