<?xml version='1.0' encoding='utf-8'?>
<svg xmlns="http://www.w3.org/2000/svg" version="1.1" viewBox="0 0 1024 1024"><g transform="scale(1, -1) translate(0, -900)"><path d="M 276 556 Q 321 571 335 563 Q 348 559 349 539 Q 353 490 341 401 Q 341 382 322 382 Q 304 383 289 383 Q 276 386 279 378 Q 280 369 304 352 Q 326 328 340 303 Q 349 296 359 300 Q 387 318 396 389 Q 396 545 407 560 Q 416 570 410 579 Q 401 589 367 606 Q 358 610 294 595 Q 290 595 277 591 L 232 579 Q 190 570 147 557 C 118 549 129 507 155 521 Q 164 531 232 546 L 276 556 Z" fill="black" /></g></svg>