<?xml version='1.0' encoding='utf-8'?>
<svg xmlns="http://www.w3.org/2000/svg" version="1.1" viewBox="0 0 1024 1024"><g transform="scale(1, -1) translate(0, -900)"><path d="M 706 34 Q 716 9 740 -39 Q 749 -57 759 -56 Q 775 -53 784 -27 Q 806 16 823 167 Q 829 213 852 242 Q 868 261 858 274 Q 837 296 793 317 Q 775 327 743 317 Q 632 281 454 264 C 424 261 445 224 474 230 Q 516 239 571 248 L 613 254 Q 661 264 719 272 Q 744 276 756 264 Q 777 231 749 72 Q 748 57 742 56 Q 739 55 731 57 C 703 45 702 44 706 34 Z" fill="black" /></g></svg>