<?xml version='1.0' encoding='utf-8'?>
<svg xmlns="http://www.w3.org/2000/svg" version="1.1" viewBox="0 0 1024 1024"><g transform="scale(1, -1) translate(0, -900)"><path d="M 740 264 Q 756 237 773 230 Q 783 223 797 242 Q 809 263 835 375 Q 842 405 865 428 Q 877 440 866 452 Q 853 468 812 492 Q 796 499 715 482 Q 712 482 593 460 Q 541 450 498 442 C 469 436 492 404 521 412 Q 521 413 524 413 Q 558 423 610 432 L 656 440 Q 693 447 737 453 Q 767 457 776 447 Q 788 434 785 422 Q 773 346 755 290 C 746 261 735 271 740 264 Z" fill="black" /></g></svg>