<?xml version='1.0' encoding='utf-8'?>
<svg xmlns="http://www.w3.org/2000/svg" version="1.1" viewBox="0 0 1024 1024"><g transform="scale(1, -1) translate(0, -900)"><path d="M 527 300 Q 576 310 605 314 Q 633 317 642 307 Q 655 298 656 265 Q 656 231 659 191 Q 660 161 651 148 Q 645 135 619 140 Q 568 140 567 137 Q 563 133 579 122 Q 628 83 658 53 Q 671 40 688 47 Q 698 51 708 76 Q 726 116 723 165 Q 716 271 725 308 Q 732 324 724 334 Q 649 379 618 358 Q 585 345 531 332 L 459 316 Q 401 307 327 299 C 297 296 310 261 340 263 Q 350 262 363 265 Q 417 278 461 286 L 527 300 Z" fill="black" /></g></svg>