<?xml version='1.0' encoding='utf-8'?>
<svg xmlns="http://www.w3.org/2000/svg" version="1.1" viewBox="0 0 1024 1024"><g transform="scale(1, -1) translate(0, -900)"><path d="M 730 692 Q 731 625 730 581 Q 729 560 718 552 Q 714 549 645 552 Q 633 553 636 547 Q 637 540 647 534 Q 711 488 733 458 Q 746 443 760 457 Q 782 484 784 560 Q 781 591 776 698 L 774 738 Q 775 772 784 796 Q 791 812 777 824 Q 753 843 726 852 Q 710 858 703 851 Q 697 845 707 831 Q 728 797 727 758 Q 727 742 728 727 L 730 692 Z" fill="black" /></g></svg>