<?xml version='1.0' encoding='utf-8'?>
<svg xmlns="http://www.w3.org/2000/svg" version="1.1" viewBox="0 0 1024 1024"><g transform="scale(1, -1) translate(0, -900)"><path d="M 586 317 Q 602 292 617 283 Q 626 276 638 293 Q 648 306 670 380 Q 677 405 697 426 Q 707 436 699 448 Q 686 461 651 484 Q 638 490 565 474 Q 555 474 457 453 L 435 448 Q 408 444 387 439 C 358 433 367 402 396 411 Q 463 432 584 450 Q 609 454 620 445 Q 629 439 626 428 Q 614 359 603 338 C 592 310 581 325 586 317 Z" fill="black" /></g></svg>