<?xml version='1.0' encoding='utf-8'?>
<svg xmlns="http://www.w3.org/2000/svg" version="1.1" viewBox="0 0 1024 1024"><g transform="scale(1, -1) translate(0, -900)"><path d="M 233 581 Q 233 239 203 126 Q 191 116 195 79 Q 195 63 214 21 Q 220 5 227 1 Q 233 -5 240 2 Q 247 6 257 26 Q 267 50 266 79 Q 265 119 269 417 L 270 433 Q 270 506 272 591 L 273 618 Q 274 703 292 761 Q 301 774 298 788 Q 291 797 239 829 Q 217 845 198 831 Q 194 827 199 812 Q 232 763 232 714 Q 232 665 233 608 L 233 581 Z" fill="black" /></g></svg>