<?xml version='1.0' encoding='utf-8'?>
<svg xmlns="http://www.w3.org/2000/svg" version="1.1" viewBox="0 0 1024 1024"><g transform="scale(1, -1) translate(0, -900)"><path d="M 712 129 Q 561 120 379 90 Q 336 80 367 111 Q 455 214 660 418 Q 702 461 737 486 Q 753 496 747 510 Q 737 537 697 565 Q 678 580 665 577 Q 652 574 653 554 Q 650 497 550 371 L 528 343 Q 527 342 526 341 Q 307 104 263 88 Q 244 78 245 60 Q 245 42 275 13 Q 287 -3 308 9 Q 482 81 725 106 C 755 109 742 131 712 129 Z" fill="black" /></g></svg>