<?xml version='1.0' encoding='utf-8'?>
<svg xmlns="http://www.w3.org/2000/svg" version="1.1" viewBox="0 0 1024 1024"><g transform="scale(1, -1) translate(0, -900)"><path d="M 683 469 Q 734 481 787 488 Q 803 489 808 481 Q 815 465 811 421 Q 798 262 765 179 Q 749 127 731 110 Q 719 97 694 104 Q 658 114 626 125 Q 605 131 621 111 Q 667 65 693 29 Q 703 8 723 15 Q 742 18 766 44 Q 832 111 860 379 Q 866 439 888 474 Q 904 495 895 504 Q 880 522 846 536 Q 822 549 797 537 Q 751 518 690 502 L 628 489 Q 540 471 487 471 Q 468 472 468 463 Q 467 453 488 440 Q 513 424 537 431 Q 577 444 620 454 L 683 469 Z" fill="black" /></g></svg>