<?xml version='1.0' encoding='utf-8'?>
<svg xmlns="http://www.w3.org/2000/svg" version="1.1" viewBox="0 0 1024 1024"><g transform="scale(1, -1) translate(0, -900)"><path d="M 508 -43 Q 514 -71 521 -81 Q 527 -88 535 -86 Q 550 -77 559 -12 Q 569 78 567 166 Q 566 205 566 300 L 566 347 Q 566 414 569 502 L 570 547 Q 571 580 583 630 Q 587 649 571 659 Q 553 672 540 678 C 514 693 469 694 483 668 Q 483 664 499 640 Q 512 613 513 535 L 513 494 Q 512 425 511 341 L 510 297 Q 498 66 508 -43 Z" fill="black" /></g></svg>