<?xml version='1.0' encoding='utf-8'?>
<svg xmlns="http://www.w3.org/2000/svg" version="1.1" viewBox="0 0 1024 1024"><g transform="scale(1, -1) translate(0, -900)"><path d="M 443 256 Q 355 241 251 211 Q 218 199 240 227 Q 301 308 444 470 Q 481 516 512 541 Q 528 553 521 566 Q 508 590 468 615 Q 449 627 437 624 Q 424 620 426 601 Q 427 559 360 449 L 340 420 Q 339 419 338 417 Q 182 215 143 196 Q 125 186 128 167 Q 129 151 161 126 Q 174 110 193 125 Q 290 186 455 234 C 484 243 473 261 443 256 Z" fill="black" /></g></svg>