<?xml version='1.0' encoding='utf-8'?>
<svg xmlns="http://www.w3.org/2000/svg" version="1.1" viewBox="0 0 1024 1024"><g transform="scale(1, -1) translate(0, -900)"><path d="M 357 366 Q 358 365 359 362 Q 363 349 375 349 Q 388 350 395 364 Q 408 380 429 465 Q 444 511 476 539 Q 492 552 478 567 Q 462 582 417 605 Q 404 614 346 597 Q 339 597 305 588 L 266 579 Q 256 579 184 558 C 155 550 165 515 193 527 Q 229 545 364 569 Q 382 572 389 568 Q 399 562 393 531 Q 371 416 360 393 Q 359 393 359 392 C 352 375 352 375 357 366 Z" fill="black" /></g></svg>