<?xml version='1.0' encoding='utf-8'?>
<svg xmlns="http://www.w3.org/2000/svg" version="1.1" viewBox="0 0 1024 1024"><g transform="scale(1, -1) translate(0, -900)"><path d="M 961 100 Q 939 152 924 241 Q 921 257 914 262 Q 905 266 902 246 Q 892 134 878 114 Q 854 87 753 90 Q 699 93 676 103 Q 657 115 652 128 Q 636 168 634 269 Q 635 293 637 314 L 639 341 Q 643 402 659 436 Q 672 467 651 485 Q 599 525 582 520 Q 566 513 574 496 Q 596 456 591 399 Q 585 120 622 83 Q 667 38 838 34 Q 911 34 942 48 Q 976 66 961 100 Z" fill="black" /></g></svg>