<?xml version='1.0' encoding='utf-8'?>
<svg xmlns="http://www.w3.org/2000/svg" version="1.1" viewBox="0 0 1024 1024"><g transform="scale(1, -1) translate(0, -900)"><path d="M 920 73 Q 902 122 892 207 Q 891 225 882 230 Q 873 236 869 214 Q 848 111 832 93 Q 798 54 652 49 Q 573 50 538 63 Q 507 78 501 97 Q 483 145 482 272 L 484 292 Q 491 395 511 444 Q 524 478 504 496 Q 449 538 432 533 Q 416 527 424 508 Q 446 468 440 407 Q 431 113 460 64 Q 484 15 588 0 Q 657 -10 765 -4 Q 862 2 901 23 Q 932 39 920 73 Z" fill="black" /></g></svg>