<?xml version='1.0' encoding='utf-8'?>
<svg xmlns="http://www.w3.org/2000/svg" version="1.1" viewBox="0 0 1024 1024"><g transform="scale(1, -1) translate(0, -900)"><path d="M 585 403 Q 585 413 586 425 L 588 471 Q 591 514 601 545 Q 608 558 606 572 Q 600 581 547 613 Q 525 629 506 614 Q 502 610 507 595 Q 532 558 534 519 Q 534 491 535 459 L 536 359 Q 533 136 526 97 Q 505 25 522 -25 Q 525 -34 529 -43 Q 536 -59 543 -63 Q 549 -69 556 -62 Q 563 -58 573 -37 Q 582 -15 581 15 Q 580 52 584 354 L 585 403 Z" fill="black" /></g></svg>