<?xml version='1.0' encoding='utf-8'?>
<svg xmlns="http://www.w3.org/2000/svg" version="1.1" viewBox="0 0 1024 1024"><g transform="scale(1, -1) translate(0, -900)"><path d="M 598 158 Q 637 207 673 278 Q 689 306 711 324 Q 733 339 721 354 Q 708 369 676 384 Q 652 394 623 382 Q 593 372 560 362 L 522 353 Q 476 344 408 338 Q 393 338 388 331 Q 384 324 403 315 Q 440 299 492 314 Q 586 341 602 339 Q 621 333 613 313 Q 592 243 556 192 L 529 159 Q 445 75 270 36 Q 254 33 266 23 Q 273 19 325 21 Q 392 25 467 59 Q 522 84 565 121 L 598 158 Z" fill="black" /></g></svg>