<?xml version='1.0' encoding='utf-8'?>
<svg xmlns="http://www.w3.org/2000/svg" version="1.1" viewBox="0 0 1024 1024"><g transform="scale(1, -1) translate(0, -900)"><path d="M 603 302 Q 664 309 707 311 Q 744 312 747 324 Q 748 337 721 354 Q 694 370 605 346 L 556 337 Q 508 330 455 322 Q 439 321 437 324 Q 437 325 503 475 L 524 522 Q 537 553 551 563 Q 569 576 558 587 Q 513 632 487 632 Q 477 632 483 612 Q 489 582 468 512 L 453 466 Q 417 364 375 332 Q 354 317 368 272 Q 372 257 389 263 Q 452 285 555 297 L 603 302 Z" fill="black" /></g></svg>