<?xml version='1.0' encoding='utf-8'?>
<svg xmlns="http://www.w3.org/2000/svg" version="1.1" viewBox="0 0 1024 1024"><g transform="scale(1, -1) translate(0, -900)"><path d="M 697 72 Q 707 47 732 -7 Q 741 -25 751 -24 Q 767 -21 777 5 Q 811 71 816 159 Q 823 214 830 279 Q 834 330 857 362 Q 875 383 862 397 Q 838 419 789 440 Q 770 450 735 437 Q 668 412 595 393 L 547 383 Q 472 371 368 361 C 338 358 375 313 404 320 Q 456 333 548 350 L 594 359 Q 649 372 716 383 Q 747 390 762 375 Q 771 360 771 344 Q 770 226 746 110 Q 743 91 735 88 Q 731 85 714 95 C 685 101 685 100 697 72 Z" fill="black" /></g></svg>