<?xml version='1.0' encoding='utf-8'?>
<svg xmlns="http://www.w3.org/2000/svg" version="1.1" viewBox="0 0 1024 1024"><g transform="scale(1, -1) translate(0, -900)"><path d="M 457 501 Q 481 486 500 492 Q 666 537 678 521 Q 688 508 682 471 Q 672 369 647 325 Q 631 297 607 301 Q 588 308 570 316 Q 548 326 562 301 Q 598 258 612 226 Q 631 205 648 222 Q 702 259 728 389 Q 737 492 760 522 Q 772 535 766 544 Q 757 554 709 576 Q 690 585 671 572 Q 626 548 481 528 C 451 524 430 514 457 501 Z" fill="black" /></g></svg>