<?xml version='1.0' encoding='utf-8'?>
<svg xmlns="http://www.w3.org/2000/svg" version="1.1" viewBox="0 0 1024 1024"><g transform="scale(1, -1) translate(0, -900)"><path d="M 605 346 Q 606 371 610 385 Q 613 397 606 403 Q 584 422 565 432 Q 553 436 544 429 Q 538 426 545 416 Q 551 407 556 337 L 555 297 Q 554 266 553 226 Q 552 211 551 197 L 547 154 Q 532 33 538 11 Q 544 -13 557 -32 Q 567 -50 576 -54 Q 586 -55 592 -43 Q 605 -12 601 18 Q 600 91 600 159 L 601 204 Q 601 280 603 302 L 605 346 Z" fill="black" /></g></svg>