<?xml version='1.0' encoding='utf-8'?>
<svg xmlns="http://www.w3.org/2000/svg" version="1.1" viewBox="0 0 1024 1024"><g transform="scale(1, -1) translate(0, -900)"><path d="M 889 108 Q 876 136 857 224 Q 856 240 849 246 Q 843 250 838 231 Q 810 137 791 108 Q 770 83 709 66 Q 565 30 450 77 Q 404 99 391 128 Q 372 167 378 229 L 380 258 Q 383 307 393 362 Q 394 366 394 369 C 397 384 397 384 380 394 Q 368 404 350 411 Q 337 415 329 410 Q 322 406 328 388 Q 341 351 338 313 Q 329 153 343 109 Q 350 75 382 46 Q 493 -41 732 -2 Q 748 2 768 7 Q 826 25 882 65 Q 903 81 889 108 Z" fill="black" /></g></svg>