<?xml version='1.0' encoding='utf-8'?>
<svg xmlns="http://www.w3.org/2000/svg" version="1.1" viewBox="0 0 1024 1024"><g transform="scale(1, -1) translate(0, -900)"><path d="M 498 481 Q 497 441 494 402 L 491 374 Q 487 331 480 293 Q 479 292 479 288 L 471 252 Q 432 110 305 21 Q 232 -24 230 -26 Q 226 -32 241 -34 Q 254 -35 306 -15 Q 343 -2 397 37 Q 478 97 515 223 Q 516 232 519 241 L 533 300 Q 540 340 544 382 L 547 410 Q 547 419 548 427 Q 549 455 553 480 Q 553 487 553 493 L 559 528 Q 563 547 571 566 Q 575 578 567 585 Q 516 631 477 621 Q 458 614 473 596 Q 500 568 500 537 Q 499 527 499 514 L 498 481 Z" fill="black" /></g></svg>