<?xml version='1.0' encoding='utf-8'?>
<svg xmlns="http://www.w3.org/2000/svg" version="1.1" viewBox="0 0 1024 1024"><g transform="scale(1, -1) translate(0, -900)"><path d="M 615 124 Q 648 170 670 235 Q 679 266 697 282 Q 713 295 697 310 Q 678 326 648 339 Q 629 346 609 337 Q 560 310 492 298 Q 485 298 478 295 C 449 289 439 280 468 273 Q 492 263 527 274 Q 564 284 602 294 Q 618 301 619 283 Q 619 225 578 155 L 555 124 Q 542 108 526 93 Q 471 50 329 13 Q 314 10 323 2 Q 330 -4 357 -3 Q 519 15 586 89 L 615 124 Z" fill="black" /></g></svg>