<?xml version='1.0' encoding='utf-8'?>
<svg xmlns="http://www.w3.org/2000/svg" version="1.1" viewBox="0 0 1024 1024"><g transform="scale(1, -1) translate(0, -900)"><path d="M 478 295 Q 496 338 514 394 L 526 433 Q 554 526 574 555 Q 584 568 578 579 Q 569 603 522 614 Q 509 618 494 611 Q 484 604 493 593 Q 509 577 511 557 Q 515 530 483 425 Q 482 422 481 419 L 468 381 Q 437 296 400 229 Q 360 162 269 59 Q 260 46 269 44 Q 273 43 285 50 Q 372 107 443 226 L 448 234 Q 463 265 468 273 L 478 295 Z" fill="black" /></g></svg>