<?xml version='1.0' encoding='utf-8'?>
<svg xmlns="http://www.w3.org/2000/svg" version="1.1" viewBox="0 0 1024 1024"><g transform="scale(1, -1) translate(0, -900)"><path d="M 677 275 Q 690 253 704 245 Q 714 236 732 257 Q 747 279 783 396 Q 793 427 819 452 Q 832 465 822 479 Q 806 498 764 526 Q 743 536 728 532 Q 694 522 645 515 Q 620 511 590 506 L 544 498 Q 525 497 506 492 Q 445 480 396 473 C 366 469 391 433 420 440 Q 469 453 544 466 L 590 474 Q 702 495 724 480 Q 737 470 732 452 Q 705 340 695 322 Q 689 310 673 307 C 659 300 660 300 677 275 Z" fill="black" /></g></svg>