<?xml version='1.0' encoding='utf-8'?>
<svg xmlns="http://www.w3.org/2000/svg" version="1.1" viewBox="0 0 1024 1024"><g transform="scale(1, -1) translate(0, -900)"><path d="M 589 128 Q 626 174 660 238 Q 676 268 699 285 Q 721 300 708 316 Q 695 329 663 345 Q 638 355 608 343 Q 577 331 536 319 Q 493 307 424 300 Q 408 299 403 291 Q 399 284 419 275 Q 459 259 512 275 Q 576 297 588 297 Q 607 294 601 274 Q 580 207 545 159 L 519 129 Q 435 48 266 12 Q 250 9 262 -1 Q 269 -5 320 -3 Q 384 1 459 33 Q 514 57 558 94 L 589 128 Z" fill="black" /></g></svg>