<?xml version='1.0' encoding='utf-8'?>
<svg xmlns="http://www.w3.org/2000/svg" version="1.1" viewBox="0 0 1024 1024"><g transform="scale(1, -1) translate(0, -900)"><path d="M 379 327 Q 451 393 507 513 L 525 555 Q 538 582 553 607 Q 560 617 555 626 Q 549 636 521 652 Q 500 664 491 662 Q 478 659 480 644 Q 484 596 467 545 L 450 502 Q 411 421 334 343 Q 333 343 333 342 Q 332 342 331 341 Q 330 341 333 342 Q 332 343 327 336 Q 288 305 227 251 C 215 240 215 240 222 240 Q 221 240 223 239 Q 247 230 346 301 L 379 327 Z" fill="black" /></g></svg>