<?xml version='1.0' encoding='utf-8'?>
<svg xmlns="http://www.w3.org/2000/svg" version="1.1" viewBox="0 0 1024 1024"><g transform="scale(1, -1) translate(0, -900)"><path d="M 674 360 Q 687 341 701 334 Q 711 327 725 346 Q 738 367 768 483 Q 778 511 800 534 Q 812 546 802 559 Q 789 575 749 600 Q 733 609 662 594 Q 611 594 495 571 Q 486 570 480 567 L 450 563 Q 396 559 387 555 C 358 549 402 519 431 527 Q 431 528 432 528 Q 475 538 535 547 L 563 550 Q 698 571 712 556 Q 722 543 720 529 Q 695 399 677 389 C 665 371 665 371 674 360 Z" fill="black" /></g></svg>