<?xml version='1.0' encoding='utf-8'?>
<svg xmlns="http://www.w3.org/2000/svg" version="1.1" viewBox="0 0 1024 1024"><g transform="scale(1, -1) translate(0, -900)"><path d="M 693 378 Q 700 418 711 446 L 728 490 Q 728 491 729 492 Q 742 522 761 539 Q 777 558 763 575 Q 747 588 694 611 Q 676 618 655 609 Q 607 590 565 577 L 509 563 Q 448 551 384 543 Q 368 542 370 532 Q 373 525 390 519 Q 414 509 447 521 Q 478 528 510 534 L 563 545 Q 654 569 667 558 Q 682 543 669 480 L 662 443 Q 653 409 644 376 C 636 347 687 349 693 378 Z" fill="black" /></g></svg>