<?xml version='1.0' encoding='utf-8'?>
<svg xmlns="http://www.w3.org/2000/svg" version="1.1" viewBox="0 0 1024 1024"><g transform="scale(1, -1) translate(0, -900)"><path d="M 569 321 Q 669 348 687 331 Q 709 319 707 62 Q 707 44 700 39 Q 690 30 635 38 Q 620 39 622 31 Q 623 24 635 20 Q 686 -17 712 -45 Q 731 -63 742 -60 Q 754 -57 763 -31 Q 776 11 773 70 Q 749 283 765 314 Q 775 333 766 344 Q 756 357 713 377 Q 697 386 679 381 Q 643 369 569 350 L 522 341 Q 464 331 406 322 C 376 317 384 279 413 286 Q 420 287 425 288 Q 471 301 522 311 L 569 321 Z" fill="black" /></g></svg>