<?xml version='1.0' encoding='utf-8'?>
<svg xmlns="http://www.w3.org/2000/svg" version="1.1" viewBox="0 0 1024 1024"><g transform="scale(1, -1) translate(0, -900)"><path d="M 626 147 Q 638 132 649 126 Q 659 119 673 138 Q 683 154 709 247 Q 718 275 740 299 Q 753 309 742 323 Q 727 339 688 364 Q 670 371 607 357 Q 588 357 561 348 L 502 339 Q 475 338 392 319 C 363 312 372 279 401 287 Q 443 299 500 309 L 552 317 Q 642 332 652 320 Q 662 310 660 298 Q 644 208 637 194 Q 633 184 619 181 Q 615 181 615 179 C 602 173 606 169 626 147 Z" fill="black" /></g></svg>