<?xml version='1.0' encoding='utf-8'?>
<svg xmlns="http://www.w3.org/2000/svg" version="1.1" viewBox="0 0 1024 1024"><g transform="scale(1, -1) translate(0, -900)"><path d="M 515 346 Q 484 286 432 242 Q 420 235 417 230 Q 416 224 424 224 Q 448 221 496 260 Q 535 296 557 351 L 567 384 Q 574 412 582 449 L 589 487 Q 589 488 590 490 Q 594 505 596 513 Q 602 526 588 536 Q 573 546 563 550 C 536 563 526 568 535 547 Q 535 544 539 538 Q 546 520 543 475 L 540 443 Q 537 428 535 409 Q 532 394 527 377 L 515 346 Z" fill="black" /></g></svg>