<?xml version='1.0' encoding='utf-8'?>
<svg xmlns="http://www.w3.org/2000/svg" version="1.1" viewBox="0 0 1024 1024"><g transform="scale(1, -1) translate(0, -900)"><path d="M 562 271 Q 562 296 561 322 L 561 358 Q 560 400 561 433 L 561 464 Q 561 516 563 545 L 565 577 Q 566 598 573 606 Q 585 619 579 631 Q 572 644 547 658 Q 507 676 492 670 Q 473 663 488 646 Q 500 631 509 563 L 510 534 Q 511 504 512 457 L 513 427 Q 513 393 513 349 L 514 316 Q 514 84 510 62 Q 504 29 484 36 Q 466 39 423 43 Q 407 47 404 41 Q 403 34 421 23 Q 490 -19 505 -44 Q 515 -63 527 -67 Q 537 -70 540 -66 Q 574 -24 564 74 Q 563 90 562 236 L 562 271 Z" fill="black" /></g></svg>