<?xml version='1.0' encoding='utf-8'?>
<svg xmlns="http://www.w3.org/2000/svg" version="1.1" viewBox="0 0 1024 1024"><g transform="scale(1, -1) translate(0, -900)"><path d="M 697 453 Q 706 490 715 512 L 738 558 Q 745 571 755 577 Q 771 595 757 612 Q 741 625 689 648 Q 673 655 651 647 Q 615 632 581 622 L 521 607 Q 458 594 392 587 Q 376 586 378 577 Q 381 570 398 563 Q 422 553 455 564 Q 489 571 525 577 L 574 586 Q 602 593 631 598 Q 653 604 662 595 Q 672 585 668 544 L 661 508 Q 655 484 651 461 C 645 432 690 424 697 453 Z" fill="black" /></g></svg>