<?xml version='1.0' encoding='utf-8'?>
<svg xmlns="http://www.w3.org/2000/svg" version="1.1" viewBox="0 0 1024 1024"><g transform="scale(1, -1) translate(0, -900)"><path d="M 313 487 Q 317 518 321 549 Q 330 637 337 659 Q 338 663 339 665 C 344 686 344 686 328 697 Q 313 710 291 719 Q 272 731 259 726 Q 246 719 253 704 Q 275 674 268 587 Q 267 583 267 577 Q 258 409 208 263 Q 160 143 79 23 Q 75 16 72 10 Q 69 0 80 1 Q 110 7 189 122 Q 210 155 229 194 Q 284 314 310 467 L 313 487 Z" fill="black" /></g></svg>