<?xml version='1.0' encoding='utf-8'?>
<svg xmlns="http://www.w3.org/2000/svg" version="1.1" viewBox="0 0 1024 1024"><g transform="scale(1, -1) translate(0, -900)"><path d="M 566 49 Q 569 89 571 129 L 572 166 Q 572 214 570 224 L 569 261 Q 569 286 569 321 L 569 350 Q 569 378 569 408 L 569 442 Q 569 469 570 498 L 570 527 Q 570 539 574 586 L 581 622 Q 581 625 582 627 Q 585 643 572 652 Q 542 671 528 674 Q 516 678 502 670 Q 495 663 501 653 Q 505 643 512 634 Q 518 622 521 607 L 525 577 Q 525 552 525 520 L 525 490 Q 524 463 525 433 L 524 402 Q 523 374 522 341 L 522 311 Q 521 281 521 247 L 521 215 Q 521 185 520 152 L 519 120 Q 519 12 535 -9 Q 539 -16 547 -14 Q 559 -5 566 49 Z" fill="black" /></g></svg>