<?xml version='1.0' encoding='utf-8'?>
<svg xmlns="http://www.w3.org/2000/svg" version="1.1" viewBox="0 0 1024 1024"><g transform="scale(1, -1) translate(0, -900)"><path d="M 751 72 Q 781 35 802 0 Q 809 -18 821 -17 Q 836 -16 851 16 Q 867 52 865 96 Q 843 426 868 458 Q 877 470 868 479 Q 852 497 803 519 Q 787 526 773 519 Q 727 495 617 472 C 588 466 600 435 629 442 Q 642 445 663 450 Q 715 462 762 473 Q 780 477 789 470 Q 814 449 804 190 Q 803 120 797 99 Q 793 83 779 87 C 753 72 750 73 751 72 Z" fill="black" /></g></svg>