<?xml version='1.0' encoding='utf-8'?>
<svg xmlns="http://www.w3.org/2000/svg" version="1.1" viewBox="0 0 1024 1024"><g transform="scale(1, -1) translate(0, -900)"><path d="M 450 311 Q 451 351 454 398 L 455 443 Q 459 500 472 540 Q 479 552 478 564 Q 472 571 426 602 Q 407 617 389 604 Q 385 600 389 587 Q 413 550 413 514 Q 413 474 412 428 L 407 304 Q 400 145 397 127 Q 378 34 378 30 Q 378 23 393 -17 Q 397 -32 405 -35 Q 409 -41 416 -34 Q 440 -19 441 35 Q 441 66 449 287 L 450 311 Z" fill="black" /></g></svg>