<?xml version='1.0' encoding='utf-8'?>
<svg xmlns="http://www.w3.org/2000/svg" version="1.1" viewBox="0 0 1024 1024"><g transform="scale(1, -1) translate(0, -900)"><path d="M 668 106 Q 662 102 658 96 Q 609 53 481 17 Q 466 13 475 6 Q 482 0 507 3 Q 636 16 696 73 L 727 109 Q 769 160 793 239 Q 800 270 817 285 Q 830 298 815 311 Q 797 326 768 337 Q 749 344 730 334 Q 687 307 622 294 Q 600 291 589 284 Q 582 277 598 270 Q 622 260 656 272 Q 690 282 726 293 Q 739 300 742 283 Q 742 216 694 137 L 668 106 Z" fill="black" /></g></svg>