<?xml version='1.0' encoding='utf-8'?>
<svg xmlns="http://www.w3.org/2000/svg" version="1.1" viewBox="0 0 1024 1024"><g transform="scale(1, -1) translate(0, -900)"><path d="M 723 335 Q 762 338 858 338 Q 874 339 879 346 Q 883 356 869 368 Q 821 404 758 386 Q 749 385 740 382 L 684 372 Q 642 366 595 357 L 553 351 Q 516 347 480 340 L 445 335 Q 370 328 290 315 Q 272 314 286 299 Q 298 287 314 282 Q 332 278 345 282 Q 391 295 445 305 L 479 311 Q 521 320 553 321 L 596 327 Q 632 331 678 333 L 723 335 Z" fill="black" /></g></svg>