<?xml version='1.0' encoding='utf-8'?>
<svg xmlns="http://www.w3.org/2000/svg" version="1.1" viewBox="0 0 1024 1024"><g transform="scale(1, -1) translate(0, -900)"><path d="M 490 263 Q 487 262 484 260 Q 439 239 389 214 Q 376 207 376 220 Q 379 284 380 341 L 381 363 Q 381 397 381 426 L 381 450 Q 380 481 384 505 Q 385 511 384 515 C 385 524 385 524 363 538 Q 351 547 340 552 Q 324 558 316 553 Q 307 547 315 535 Q 358 447 333 232 Q 326 202 300 171 Q 290 158 296 139 Q 305 117 316 106 Q 326 99 337 114 Q 353 139 499 245 L 500 245 C 525 262 517 276 490 263 Z" fill="black" /></g></svg>