<?xml version='1.0' encoding='utf-8'?>
<svg xmlns="http://www.w3.org/2000/svg" version="1.1" viewBox="0 0 1024 1024"><g transform="scale(1, -1) translate(0, -900)"><path d="M 580 588 Q 535 582 498 573 L 452 565 Q 343 552 341 548 Q 338 544 354 533 Q 385 515 405 522 Q 426 529 457 535 L 498 543 Q 531 550 577 556 L 624 562 Q 699 577 720 565 Q 724 561 721 544 Q 705 489 697 470 L 690 443 Q 690 439 692 435 Q 696 420 707 420 Q 720 421 728 434 Q 734 437 751 461 Q 769 507 804 533 Q 822 546 808 562 Q 792 578 748 605 Q 733 614 673 601 Q 640 598 631 595 L 580 588 Z" fill="black" /></g></svg>