<?xml version='1.0' encoding='utf-8'?>
<svg xmlns="http://www.w3.org/2000/svg" version="1.1" viewBox="0 0 1024 1024"><g transform="scale(1, -1) translate(0, -900)"><path d="M 468 183 Q 419 162 368 136 Q 355 129 354 142 Q 361 229 364 303 L 365 333 Q 366 367 367 399 L 366 428 Q 366 458 373 489 C 375 502 375 502 359 515 Q 343 530 327 537 Q 311 544 303 539 Q 293 533 301 519 Q 343 431 314 179 Q 310 136 274 92 Q 264 79 269 58 Q 278 34 290 23 Q 300 16 312 31 Q 328 59 479 163 C 504 180 495 195 468 183 Z" fill="black" /></g></svg>