<?xml version='1.0' encoding='utf-8'?>
<svg xmlns="http://www.w3.org/2000/svg" version="1.1" viewBox="0 0 1024 1024"><g transform="scale(1, -1) translate(0, -900)"><path d="M 567 94 Q 480 7 359 -29 Q 350 -30 350 -35 Q 350 -39 357 -41 Q 483 -56 604 63 L 634 93 Q 659 123 690 163 Q 708 187 733 201 Q 748 205 749 215 Q 750 227 725 245 Q 695 270 682 271 Q 672 271 661 266 Q 649 262 531 237 Q 525 237 521 237 C 491 234 476 232 503 218 Q 513 209 538 205 Q 566 204 620 222 Q 639 226 646 219 Q 650 215 629 174 Q 614 147 591 120 L 567 94 Z" fill="black" /></g></svg>