<?xml version='1.0' encoding='utf-8'?>
<svg xmlns="http://www.w3.org/2000/svg" version="1.1" viewBox="0 0 1024 1024"><g transform="scale(1, -1) translate(0, -900)"><path d="M 594 460 Q 594 517 593 517 Q 587 523 581 526 C 560 548 537 549 544 520 Q 548 510 550 491 Q 550 473 551 453 L 552 419 Q 552 386 553 351 L 553 321 Q 553 290 553 255 L 553 216 Q 553 125 545 -4 Q 542 -43 565 -70 Q 575 -83 584 -67 Q 599 -36 600 29 Q 597 66 597 126 Q 597 160 596 193 L 596 264 Q 596 295 596 327 L 595 357 Q 595 391 595 424 Q 594 425 595 425 L 594 460 Z" fill="black" /></g></svg>