<?xml version='1.0' encoding='utf-8'?>
<svg xmlns="http://www.w3.org/2000/svg" version="1.1" viewBox="0 0 1024 1024"><g transform="scale(1, -1) translate(0, -900)"><path d="M 674 314 Q 675 313 677 310 Q 687 286 694 287 Q 706 287 720 313 Q 733 332 732 350 Q 720 476 748 512 Q 758 525 751 535 Q 726 557 684 576 Q 671 582 650 575 Q 604 556 542 545 Q 526 544 512 539 L 482 535 Q 454 534 428 531 C 398 528 415 499 445 502 Q 451 502 458 503 Q 561 527 637 538 Q 664 544 672 529 Q 688 507 676 359 Q 673 353 672 344 C 668 326 668 326 674 314 Z" fill="black" /></g></svg>