<?xml version='1.0' encoding='utf-8'?>
<svg xmlns="http://www.w3.org/2000/svg" version="1.1" viewBox="0 0 1024 1024"><g transform="scale(1, -1) translate(0, -900)"><path d="M 707 270 Q 716 304 723 335 L 740 382 Q 749 401 763 414 Q 781 436 755 450 Q 733 466 708 479 Q 693 489 674 480 Q 649 470 608 463 Q 601 462 594 460 L 551 453 Q 517 449 486 440 L 442 431 Q 393 422 359 418 Q 346 419 345 412 Q 342 405 363 394 Q 382 381 409 389 Q 427 395 445 398 L 484 407 Q 508 414 552 419 L 595 425 Q 626 429 665 434 Q 677 435 681 429 Q 688 419 684 372 L 678 333 Q 672 308 665 277 C 658 248 699 241 707 270 Z" fill="black" /></g></svg>