<?xml version='1.0' encoding='utf-8'?>
<svg xmlns="http://www.w3.org/2000/svg" version="1.1" viewBox="0 0 1024 1024"><g transform="scale(1, -1) translate(0, -900)"><path d="M 437 250 Q 446 247 467 244 Q 489 240 497 227 Q 509 203 464 102 Q 446 60 425 51 Q 410 45 373 62 Q 342 75 338 70 Q 334 63 349 52 Q 386 19 397 -10 Q 401 -23 410 -30 Q 422 -34 450 -16 Q 495 18 527 133 Q 542 184 561 202 Q 571 206 572 214 Q 573 221 554 244 Q 529 271 481 271 Q 472 274 461 275 Q 460 276 455 276 C 425 280 408 257 437 250 Z" fill="black" /></g></svg>