<?xml version='1.0' encoding='utf-8'?>
<svg xmlns="http://www.w3.org/2000/svg" version="1.1" viewBox="0 0 1024 1024"><g transform="scale(1, -1) translate(0, -900)"><path d="M 832 216 Q 820 206 745 210 Q 702 213 703 205 Q 706 198 722 189 Q 809 150 827 127 Q 837 114 849 113 Q 861 114 874 127 Q 905 170 904 223 Q 901 301 787 384 Q 756 405 781 434 Q 806 467 825 487 Q 844 514 872 525 Q 903 543 876 563 Q 837 597 813 608 Q 795 615 779 604 Q 760 586 663 550 Q 660 549 658 548 C 630 537 657 505 683 519 Q 746 556 773 548 L 775 547 Q 785 540 776 520 Q 719 400 720 395 Q 719 382 742 373 Q 829 321 840 247 Q 840 225 832 216 Z" fill="black" /></g></svg>