<?xml version='1.0' encoding='utf-8'?>
<svg xmlns="http://www.w3.org/2000/svg" version="1.1" viewBox="0 0 1024 1024"><g transform="scale(1, -1) translate(0, -900)"><path d="M 668 488 L 669 487 Q 672 472 683 472 Q 704 475 737 544 Q 756 590 790 614 Q 809 627 795 642 Q 780 658 737 686 Q 722 695 661 682 Q 625 682 505 657 Q 448 645 413 641 C 383 637 402 602 431 609 Q 501 627 524 630 L 559 636 Q 605 646 670 653 Q 698 654 708 650 Q 715 644 708 621 Q 684 537 671 515 C 663 497 663 497 668 488 Z" fill="black" /></g></svg>