<?xml version='1.0' encoding='utf-8'?>
<svg xmlns="http://www.w3.org/2000/svg" version="1.1" viewBox="0 0 1024 1024"><g transform="scale(1, -1) translate(0, -900)"><path d="M 482 274 Q 498 249 513 242 Q 522 236 534 254 Q 544 273 566 374 Q 573 399 591 419 Q 601 429 592 441 Q 579 454 544 474 Q 531 480 475 466 Q 465 466 446 458 L 410 451 Q 398 450 388 446 Q 357 439 332 433 C 303 426 320 399 349 408 Q 398 424 487 439 Q 505 442 513 436 Q 523 429 521 414 Q 506 309 498 299 C 487 271 478 280 482 274 Z" fill="black" /></g></svg>