<?xml version='1.0' encoding='utf-8'?>
<svg xmlns="http://www.w3.org/2000/svg" version="1.1" viewBox="0 0 1024 1024"><g transform="scale(1, -1) translate(0, -900)"><path d="M 689 536 Q 704 539 768 558 Q 784 561 794 552 Q 804 542 805 508 Q 820 237 812 73 Q 812 51 805 40 Q 802 37 743 49 Q 724 58 724 48 Q 769 -4 793 -39 Q 806 -58 821 -63 Q 830 -67 838 -58 Q 881 -13 880 44 Q 867 201 860 457 Q 857 515 871 541 Q 883 560 871 571 Q 849 590 812 604 Q 791 613 748 588 Q 726 578 676 568 C 647 562 660 529 689 536 Z" fill="black" /></g></svg>