<?xml version='1.0' encoding='utf-8'?>
<svg xmlns="http://www.w3.org/2000/svg" version="1.1" viewBox="0 0 1024 1024"><g transform="scale(1, -1) translate(0, -900)"><path d="M 235 343 Q 236 352 241 360 Q 253 408 283 594 Q 289 631 293 635 C 299 653 299 653 285 663 Q 270 676 248 688 Q 229 698 216 694 Q 204 687 210 674 Q 229 640 223 569 Q 222 565 222 560 Q 210 397 165 282 Q 131 198 47 70 Q 43 63 40 58 Q 37 48 48 49 Q 81 53 160 172 Q 173 194 186 218 Q 208 266 228 320 L 235 343 Z" fill="black" /></g></svg>