<?xml version='1.0' encoding='utf-8'?>
<svg xmlns="http://www.w3.org/2000/svg" version="1.1" viewBox="0 0 1024 1024"><g transform="scale(1, -1) translate(0, -900)"><path d="M 761 416 Q 762 295 768 77 Q 768 58 758 49 Q 752 46 681 59 Q 648 71 651 61 Q 652 54 672 39 Q 738 -10 755 -40 Q 774 -74 790 -75 Q 805 -75 818 -40 Q 834 6 832 80 Q 813 252 811 426 L 811 472 Q 812 554 824 598 Q 840 629 784 649 Q 750 667 731 659 Q 713 652 730 630 Q 752 603 755 569 Q 756 556 759 457 L 761 416 Z" fill="black" /></g></svg>