<?xml version='1.0' encoding='utf-8'?>
<svg xmlns="http://www.w3.org/2000/svg" version="1.1" viewBox="0 0 1024 1024"><g transform="scale(1, -1) translate(0, -900)"><path d="M 549 193 Q 540 379 552 407 Q 561 423 553 431 Q 546 441 513 458 Q 500 465 486 461 Q 467 454 426 443 L 403 438 Q 363 432 322 425 C 292 420 303 386 331 396 Q 334 400 379 409 L 418 418 Q 478 434 491 423 Q 500 419 502 381 Q 511 257 503 114 Q 502 93 495 87 Q 488 80 440 81 Q 427 82 429 76 Q 430 70 440 67 Q 483 42 507 20 Q 523 7 531 9 Q 540 12 547 32 Q 557 65 555 112 Q 552 146 550 177 L 549 193 Z" fill="black" /></g></svg>