<?xml version='1.0' encoding='utf-8'?>
<svg xmlns="http://www.w3.org/2000/svg" version="1.1" viewBox="0 0 1024 1024"><g transform="scale(1, -1) translate(0, -900)"><path d="M 580 409 Q 581 410 586 412 Q 599 418 611 424 Q 624 430 630 428 Q 636 425 635 415 Q 631 333 632 326 Q 636 307 654 295 Q 679 282 727 284 Q 773 285 798 300 Q 808 304 802 315 Q 792 328 777 335 Q 768 339 752 332 Q 727 319 693 320 Q 672 320 666 335 Q 660 347 669 380 Q 673 401 693 420 Q 706 430 694 441 Q 678 456 658 465 Q 651 469 638 462 Q 602 444 574 437 C 545 429 553 396 580 409 Z" fill="black" /></g></svg>