<?xml version='1.0' encoding='utf-8'?>
<svg xmlns="http://www.w3.org/2000/svg" version="1.1" viewBox="0 0 1024 1024"><g transform="scale(1, -1) translate(0, -900)"><path d="M 372 307 Q 365 317 348 327 Q 338 336 331 331 Q 322 327 330 315 Q 340 293 330 263 Q 317 223 299 207 Q 289 197 291 186 Q 295 176 304 168 Q 311 161 328 173 Q 355 201 399 201 Q 415 201 421 193 Q 439 166 408 87 Q 393 56 380 44 Q 373 37 352 46 Q 330 52 314 57 Q 301 63 302 54 Q 303 44 315 32 Q 340 5 353 -20 Q 365 -38 382 -28 Q 424 0 442 49 Q 473 161 485 175 Q 495 190 487 198 Q 478 213 454 227 Q 435 237 391 224 Q 361 221 361 220 Q 360 221 361 228 Q 368 247 377 273 Q 378 277 379 279 C 384 295 384 295 372 307 Z" fill="black" /></g></svg>