<?xml version='1.0' encoding='utf-8'?>
<svg xmlns="http://www.w3.org/2000/svg" version="1.1" viewBox="0 0 1024 1024"><g transform="scale(1, -1) translate(0, -900)"><path d="M 658 147 Q 673 122 688 113 Q 698 106 714 126 Q 727 144 757 246 Q 766 276 789 300 Q 802 312 792 326 Q 777 342 736 369 Q 717 379 650 362 Q 620 359 575 350 L 525 341 Q 503 340 481 335 Q 420 323 370 315 C 340 310 378 280 407 287 Q 455 300 526 312 L 573 320 Q 678 338 698 324 Q 708 315 706 300 Q 684 186 666 174 C 653 155 653 155 658 147 Z" fill="black" /></g></svg>