<?xml version='1.0' encoding='utf-8'?>
<svg xmlns="http://www.w3.org/2000/svg" version="1.1" viewBox="0 0 1024 1024"><g transform="scale(1, -1) translate(0, -900)"><path d="M 619 79 Q 612 73 606 66 Q 567 35 469 8 Q 456 5 463 -2 Q 469 -8 494 -6 Q 560 1 598 16 Q 629 31 654 56 L 685 93 Q 704 123 718 163 Q 725 191 741 206 Q 754 216 739 230 Q 723 243 695 254 Q 677 261 660 251 Q 621 226 564 210 Q 542 206 533 199 Q 526 192 542 186 Q 563 179 657 212 Q 669 219 671 205 Q 671 159 642 112 L 619 79 Z" fill="black" /></g></svg>