<?xml version='1.0' encoding='utf-8'?>
<svg xmlns="http://www.w3.org/2000/svg" version="1.1" viewBox="0 0 1024 1024"><g transform="scale(1, -1) translate(0, -900)"><path d="M 672 353 Q 673 352 675 348 Q 681 335 691 337 Q 703 340 708 353 Q 718 369 731 446 Q 741 492 771 520 Q 787 535 772 548 Q 756 561 710 581 Q 701 585 636 572 Q 600 572 486 547 Q 434 537 397 531 C 367 526 381 498 411 502 Q 418 502 424 503 Q 491 524 645 541 Q 672 544 682 538 Q 692 534 689 505 Q 680 411 674 382 C 670 357 670 357 672 353 Z" fill="black" /></g></svg>