<?xml version='1.0' encoding='utf-8'?>
<svg xmlns="http://www.w3.org/2000/svg" version="1.1" viewBox="0 0 1024 1024"><g transform="scale(1, -1) translate(0, -900)"><path d="M 616 -11 Q 629 -33 641 -59 Q 651 -78 660 -80 Q 670 -80 679 -59 Q 692 -20 688 92 Q 685 125 694 149 Q 701 168 691 177 Q 684 187 651 202 Q 636 209 601 198 Q 570 186 533 178 Q 502 171 460 163 C 431 157 434 137 464 138 Q 476 137 494 142 Q 542 158 604 165 Q 623 166 629 160 Q 632 157 633 62 Q 633 29 630 23 Q 626 14 614 17 C 601 15 601 15 616 -11 Z" fill="black" /></g></svg>