<?xml version='1.0' encoding='utf-8'?>
<svg xmlns="http://www.w3.org/2000/svg" version="1.1" viewBox="0 0 1024 1024"><g transform="scale(1, -1) translate(0, -900)"><path d="M 557 560 Q 726 594 764 590 Q 777 586 775 579 Q 775 576 750 524 Q 741 511 747 508 Q 754 505 770 514 Q 816 539 854 545 Q 884 549 884 558 Q 883 568 823 615 Q 807 630 784 628 Q 732 619 667 607 Q 633 603 589 594 L 557 589 Q 526 585 496 579 Q 456 570 417 565 C 387 561 399 536 429 534 Q 444 531 460 535 Q 491 545 527 553 L 557 560 Z" fill="black" /></g></svg>