<?xml version='1.0' encoding='utf-8'?>
<svg xmlns="http://www.w3.org/2000/svg" version="1.1" viewBox="0 0 1024 1024"><g transform="scale(1, -1) translate(0, -900)"><path d="M 537 453 Q 538 414 556 400 Q 607 366 695 392 Q 716 398 736 413 Q 746 422 739 436 Q 732 446 721 481 Q 721 491 716 493 Q 713 494 710 485 Q 688 433 661 424 Q 621 415 591 424 Q 579 428 576 436 Q 572 446 571 462 L 573 495 Q 574 511 578 529 Q 581 542 572 549 Q 565 556 557 560 C 532 576 515 580 527 553 Q 536 544 537 484 L 537 453 Z" fill="black" /></g></svg>