<?xml version='1.0' encoding='utf-8'?>
<svg xmlns="http://www.w3.org/2000/svg" version="1.1" viewBox="0 0 1024 1024"><g transform="scale(1, -1) translate(0, -900)"><path d="M 626 697 Q 629 760 646 782 Q 653 798 634 813 Q 610 832 568 843 Q 550 849 538 835 Q 528 828 540 815 Q 565 794 566 764 Q 566 730 566 683 L 566 650 Q 565 616 565 575 L 565 544 Q 565 513 565 477 Q 564 476 564 474 L 564 440 Q 563 406 562 375 L 562 340 Q 561 309 560 283 Q 559 282 559 277 L 559 241 Q 559 123 573 104 Q 586 88 595 109 Q 605 134 612 248 L 613 286 Q 613 314 614 349 L 614 386 Q 614 416 616 448 L 616 486 Q 617 522 619 552 L 621 583 Q 622 626 624 661 L 626 697 Z" fill="black" /></g></svg>