<?xml version='1.0' encoding='utf-8'?>
<svg xmlns="http://www.w3.org/2000/svg" version="1.1" viewBox="0 0 1024 1024"><g transform="scale(1, -1) translate(0, -900)"><path d="M 741 501 Q 750 541 759 566 L 778 613 Q 791 638 807 653 Q 823 672 808 689 Q 792 702 739 725 Q 721 732 700 724 Q 661 708 626 697 L 566 683 Q 508 671 448 665 Q 432 664 433 654 Q 436 645 454 639 Q 479 629 514 640 Q 539 646 566 650 L 624 661 Q 699 680 712 669 Q 724 659 715 601 L 708 562 Q 701 532 694 504 C 687 475 734 472 741 501 Z" fill="black" /></g></svg>