<?xml version='1.0' encoding='utf-8'?>
<svg xmlns="http://www.w3.org/2000/svg" version="1.1" viewBox="0 0 1024 1024"><g transform="scale(1, -1) translate(0, -900)"><path d="M 657 265 Q 756 272 889 254 Q 914 251 920 260 Q 929 273 916 286 Q 886 316 842 337 Q 827 344 800 336 Q 730 323 658 315 L 594 309 Q 488 303 420 295 L 352 290 Q 316 289 291 285 Q 222 276 118 278 Q 105 279 102 267 Q 101 254 120 239 Q 162 208 209 218 Q 227 224 351 241 L 412 249 Q 421 250 596 262 L 657 265 Z" fill="black" /></g></svg>