<?xml version='1.0' encoding='utf-8'?>
<svg xmlns="http://www.w3.org/2000/svg" version="1.1" viewBox="0 0 1024 1024"><g transform="scale(1, -1) translate(0, -900)"><path d="M 529 521 Q 637 124 844 -28 Q 877 -52 893 -52 Q 908 -53 916 -40 Q 925 -30 914 18 Q 908 79 917 189 Q 921 220 911 223 Q 902 224 892 196 Q 858 79 832 79 Q 751 119 660 305 Q 648 329 639 353 Q 611 416 578 532 L 562 591 Q 532 690 533 752 Q 542 794 514 808 Q 507 812 500 815 Q 475 828 460 828 Q 447 827 446 826 Q 422 817 445 794 Q 463 791 507 603 Q 510 590 514 575 L 529 521 Z" fill="black" /></g></svg>