<?xml version='1.0' encoding='utf-8'?>
<svg xmlns="http://www.w3.org/2000/svg" version="1.1" viewBox="0 0 1024 1024"><g transform="scale(1, -1) translate(0, -900)"><path d="M 320 336 Q 413 388 642 408 Q 669 411 679 401 Q 698 379 688 335 Q 672 244 627 119 Q 617 94 595 80 Q 577 74 479 107 Q 460 116 459 106 Q 458 96 479 78 Q 531 29 553 -13 Q 572 -47 601 -28 Q 661 11 686 62 Q 702 107 746 310 Q 755 359 778 379 Q 794 395 787 407 Q 775 420 723 449 Q 696 464 614 445 Q 437 417 358 396 Q 336 395 341 408 Q 362 495 379 534 C 389 562 390 564 376 574 Q 363 589 348 596 Q 323 606 314 603 Q 304 597 310 583 Q 331 541 297 437 Q 290 421 261 392 Q 249 377 258 364 Q 268 351 289 334 Q 301 324 320 336 Z" fill="black" /></g></svg>