<?xml version='1.0' encoding='utf-8'?>
<svg xmlns="http://www.w3.org/2000/svg" version="1.1" viewBox="0 0 1024 1024"><g transform="scale(1, -1) translate(0, -900)"><path d="M 247 563 Q 254 563 264 568 Q 295 580 357 592 L 390 598 Q 459 616 473 605 Q 486 601 488 582 Q 494 536 487 449 Q 488 428 468 428 Q 446 428 428 428 Q 415 429 419 422 Q 422 415 446 401 Q 473 380 490 358 Q 500 351 509 355 Q 536 376 540 453 Q 536 597 541 607 Q 550 617 543 626 Q 534 635 500 649 Q 491 652 420 635 Q 408 635 392 628 L 357 620 Q 332 616 310 610 Q 267 600 236 594 C 207 588 218 554 247 563 Z" fill="black" /></g></svg>