<?xml version='1.0' encoding='utf-8'?>
<svg xmlns="http://www.w3.org/2000/svg" version="1.1" viewBox="0 0 1024 1024"><g transform="scale(1, -1) translate(0, -900)"><path d="M 955 180 Q 946 210 942 297 Q 943 313 937 318 Q 933 322 926 306 Q 889 216 868 189 Q 849 167 797 153 Q 676 125 571 169 Q 531 190 519 216 Q 492 270 508 415 L 515 465 Q 518 496 525 529 Q 529 547 518 557 Q 505 570 482 579 Q 469 583 461 578 Q 454 574 460 557 Q 472 518 466 446 L 463 392 Q 456 247 472 197 Q 476 166 505 140 Q 601 59 805 88 Q 824 91 845 96 Q 897 111 946 145 Q 965 157 955 180 Z" fill="black" /></g></svg>