<?xml version='1.0' encoding='utf-8'?>
<svg xmlns="http://www.w3.org/2000/svg" version="1.1" viewBox="0 0 1024 1024"><g transform="scale(1, -1) translate(0, -900)"><path d="M 595 350 Q 724 377 764 369 Q 779 369 785 356 Q 792 341 759 221 Q 755 205 739 207 Q 706 214 666 225 Q 636 234 658 207 Q 719 152 732 123 Q 739 108 754 111 Q 769 110 785 125 Q 812 156 828 214 Q 843 299 875 334 Q 893 356 879 370 Q 851 395 812 418 Q 796 428 775 422 Q 726 407 623 390 Q 608 389 595 384 L 546 376 Q 485 366 436 354 L 388 343 Q 357 337 333 330 Q 305 323 291 323 Q 284 324 284 338 Q 303 414 318 434 Q 321 438 323 443 C 332 461 332 461 309 479 Q 296 492 278 503 Q 266 512 255 504 Q 246 500 254 479 Q 264 451 251 412 Q 227 343 206 318 Q 193 302 204 283 Q 214 255 227 247 Q 237 241 264 259 Q 294 286 383 310 L 432 321 Q 477 331 544 341 L 595 350 Z" fill="black" /></g></svg>