<?xml version='1.0' encoding='utf-8'?>
<svg xmlns="http://www.w3.org/2000/svg" version="1.1" viewBox="0 0 1024 1024"><g transform="scale(1, -1) translate(0, -900)"><path d="M 449 657 Q 450 682 468 727 Q 475 740 464 751 Q 442 769 405 778 Q 381 784 373 778 Q 364 771 372 759 Q 399 719 399 646 L 401 613 Q 402 553 400 493 L 399 460 Q 398 438 396 415 Q 393 381 388 343 L 383 310 Q 365 148 237 27 Q 227 18 228 14 Q 229 10 240 12 Q 253 8 283 27 Q 403 85 432 321 L 436 354 Q 439 394 441 437 Q 441 453 442 468 L 443 501 Q 444 565 448 625 L 449 657 Z" fill="black" /></g></svg>