<?xml version='1.0' encoding='utf-8'?>
<svg xmlns="http://www.w3.org/2000/svg" version="1.1" viewBox="0 0 1024 1024"><g transform="scale(1, -1) translate(0, -900)"><path d="M 256 354 Q 275 355 284 347 Q 296 334 293 293 Q 284 143 245 103 Q 238 94 214 101 Q 186 111 164 120 Q 148 127 150 116 Q 151 103 164 89 Q 195 52 212 20 Q 230 -5 254 9 Q 320 61 327 125 Q 337 188 350 285 Q 351 310 364 335 Q 374 353 364 363 Q 351 379 319 393 Q 295 403 224 375 Q 188 366 187 367 Q 183 371 188 384 Q 222 478 228 491 C 235 508 235 508 216 523 Q 207 533 188 545 Q 176 555 167 550 Q 157 544 166 530 Q 182 494 166 442 Q 145 375 113 350 Q 100 337 105 323 Q 112 310 122 301 Q 132 292 152 308 Q 197 353 256 354 Z" fill="black" /></g></svg>