<?xml version='1.0' encoding='utf-8'?>
<svg xmlns="http://www.w3.org/2000/svg" version="1.1" viewBox="0 0 1024 1024"><g transform="scale(1, -1) translate(0, -900)"><path d="M 301 379 Q 322 380 331 371 Q 344 356 339 314 Q 333 202 306 126 Q 296 89 283 76 Q 276 67 252 74 Q 225 86 204 95 Q 188 102 189 92 Q 190 79 202 63 Q 230 23 245 -11 Q 263 -39 290 -25 Q 366 38 376 115 Q 386 190 399 306 Q 400 333 415 358 Q 425 377 415 387 Q 402 405 368 419 Q 344 429 257 401 Q 215 392 213 395 Q 207 399 212 413 Q 225 462 241 522 C 248 550 248 550 240 557 Q 233 570 198 588 Q 185 598 176 591 Q 166 584 176 570 Q 198 533 184 476 Q 168 400 135 372 Q 122 357 127 344 Q 134 331 146 322 Q 156 315 176 331 Q 198 353 227 363 Q 276 379 301 379 Z" fill="black" /></g></svg>