<?xml version='1.0' encoding='utf-8'?>
<svg xmlns="http://www.w3.org/2000/svg" version="1.1" viewBox="0 0 1024 1024"><g transform="scale(1, -1) translate(0, -900)"><path d="M 541 -2 Q 547 -27 554 -37 Q 560 -44 567 -42 Q 582 -32 589 27 Q 599 133 597 238 Q 596 274 595 350 L 595 384 Q 595 433 595 493 L 596 534 Q 596 589 597 651 L 598 687 Q 598 714 613 785 Q 616 804 602 813 Q 568 835 553 838 Q 540 842 524 834 Q 515 825 522 815 Q 556 752 552 679 L 552 644 Q 551 589 550 524 L 549 486 Q 548 434 546 376 L 544 341 Q 535 73 541 -2 Z" fill="black" /></g></svg>