<?xml version='1.0' encoding='utf-8'?>
<svg xmlns="http://www.w3.org/2000/svg" version="1.1" viewBox="0 0 1024 1024"><g transform="scale(1, -1) translate(0, -900)"><path d="M 305 360 Q 326 361 334 352 Q 344 336 340 296 Q 331 205 308 145 Q 292 105 277 89 Q 267 79 241 89 Q 205 102 177 112 Q 159 119 162 108 Q 165 95 179 81 Q 221 41 245 4 Q 261 -18 284 -5 Q 356 47 368 115 Q 408 323 411 326 Q 414 332 417 336 Q 429 355 418 365 Q 405 383 373 398 Q 348 410 331 402 Q 309 396 236 377 Q 224 376 221 379 Q 217 383 242 487 Q 243 491 243 494 C 248 516 248 516 233 528 Q 223 540 198 552 Q 185 562 176 555 Q 166 548 176 534 Q 195 501 185 449 Q 172 382 143 355 Q 130 342 135 327 Q 142 314 154 306 Q 164 299 183 314 Q 205 336 233 345 Q 279 361 305 360 Z" fill="black" /></g></svg>