<?xml version='1.0' encoding='utf-8'?>
<svg xmlns="http://www.w3.org/2000/svg" version="1.1" viewBox="0 0 1024 1024"><g transform="scale(1, -1) translate(0, -900)"><path d="M 280 369 Q 299 370 307 362 Q 317 349 314 311 Q 304 211 278 144 Q 263 105 249 91 Q 240 81 215 90 Q 184 100 160 108 Q 144 115 146 104 Q 147 91 162 78 Q 199 42 218 10 Q 234 -12 256 1 Q 331 58 341 126 Q 354 193 371 300 Q 372 325 386 349 Q 396 367 386 377 Q 373 393 343 408 Q 321 418 241 390 Q 204 381 201 383 Q 197 387 219 498 Q 220 502 220 506 C 224 526 224 526 212 535 Q 202 547 175 559 Q 162 568 153 560 Q 143 553 155 540 Q 176 509 166 455 Q 156 385 128 357 Q 116 344 122 330 Q 129 318 140 311 Q 150 304 168 320 Q 213 368 280 369 Z" fill="black" /></g></svg>