<?xml version='1.0' encoding='utf-8'?>
<svg xmlns="http://www.w3.org/2000/svg" version="1.1" viewBox="0 0 1024 1024"><g transform="scale(1, -1) translate(0, -900)"><path d="M 709 177 Q 706 177 625 137 Q 612 130 611 142 Q 629 349 626 508 Q 625 533 627 554 L 628 572 Q 629 585 633 596 Q 637 611 628 622 Q 604 644 582 653 C 556 667 535 665 548 638 Q 549 637 551 634 Q 575 585 577 525 Q 587 392 564 184 Q 561 135 520 83 Q 508 67 515 44 Q 525 16 539 5 Q 552 -4 565 14 Q 578 41 712 151 Q 716 155 721 158 C 744 177 736 189 709 177 Z" fill="black" /></g></svg>