<?xml version='1.0' encoding='utf-8'?>
<svg xmlns="http://www.w3.org/2000/svg" version="1.1" viewBox="0 0 1024 1024"><g transform="scale(1, -1) translate(0, -900)"><path d="M 284 369 Q 303 370 311 362 Q 321 349 317 311 Q 307 211 279 144 Q 264 105 250 92 Q 241 83 217 92 Q 190 101 168 108 Q 152 115 154 104 Q 155 91 169 78 Q 200 42 217 11 Q 233 -13 256 1 Q 331 55 342 125 Q 382 336 385 339 Q 386 345 390 349 Q 400 367 390 376 Q 377 394 347 408 Q 323 418 251 392 Q 203 380 202 382 Q 196 388 225 497 Q 226 504 227 510 C 231 529 231 529 215 540 Q 205 550 183 559 Q 170 569 162 562 Q 152 555 162 542 Q 183 508 171 455 Q 158 385 128 359 Q 116 344 121 332 Q 128 319 140 311 Q 150 304 168 320 Q 216 368 284 369 Z" fill="black" /></g></svg>