<?xml version='1.0' encoding='utf-8'?>
<svg xmlns="http://www.w3.org/2000/svg" version="1.1" viewBox="0 0 1024 1024"><g transform="scale(1, -1) translate(0, -900)"><path d="M 450 508 Q 466 548 479 593 L 493 641 Q 520 732 536 757 Q 548 776 531 787 Q 483 830 455 822 Q 440 819 445 802 Q 467 751 435 628 L 422 583 Q 403 529 388 498 L 365 456 Q 278 323 153 263 Q 135 253 117 241 Q 102 232 115 229 Q 208 223 349 352 Q 364 368 377 385 L 386 396 Q 387 400 392 404 Q 396 416 429 467 L 450 508 Z" fill="black" /></g></svg>