<?xml version='1.0' encoding='utf-8'?>
<svg xmlns="http://www.w3.org/2000/svg" version="1.1" viewBox="0 0 1024 1024"><g transform="scale(1, -1) translate(0, -900)"><path d="M 709 600 Q 742 637 772 698 Q 785 725 806 742 Q 825 755 814 770 Q 802 783 772 796 Q 750 805 722 793 Q 695 784 661 775 Q 627 766 568 761 Q 555 761 549 754 Q 545 747 563 739 Q 597 724 647 736 Q 693 752 701 753 Q 723 749 716 726 Q 706 683 669 627 L 643 600 Q 597 560 505 535 Q 492 532 502 523 Q 506 520 541 522 Q 584 525 635 548 Q 656 558 675 571 L 709 600 Z" fill="black" /></g></svg>