<?xml version='1.0' encoding='utf-8'?>
<svg xmlns="http://www.w3.org/2000/svg" version="1.1" viewBox="0 0 1024 1024"><g transform="scale(1, -1) translate(0, -900)"><path d="M 337 682 Q 355 754 372 772 Q 382 788 377 800 Q 367 815 328 839 Q 312 849 298 843 Q 288 837 295 823 Q 314 796 290 676 L 282 639 Q 273 606 263 589 Q 256 568 276 555 Q 313 545 345 527 L 384 507 Q 409 494 440 473 Q 455 464 463 465 Q 470 466 473 477 Q 476 487 466 510 Q 457 534 419 545 L 373 558 Q 348 565 316 572 Q 301 575 300 588 Q 313 618 324 648 L 337 682 Z" fill="black" /></g></svg>