<?xml version='1.0' encoding='utf-8'?>
<svg xmlns="http://www.w3.org/2000/svg" version="1.1" viewBox="0 0 1024 1024"><g transform="scale(1, -1) translate(0, -900)"><path d="M 338 130 Q 408 173 549 195 Q 583 205 604 200 Q 626 193 629 158 Q 619 94 583 45 Q 565 23 550 17 Q 538 14 461 43 Q 445 53 443 46 Q 442 40 452 26 Q 489 -20 511 -62 Q 520 -77 531 -77 Q 549 -80 569 -68 Q 635 -20 680 120 Q 680 153 698 180 Q 710 192 700 205 Q 684 221 645 239 Q 630 246 557 229 Q 481 214 403 202 Q 372 195 385 226 Q 403 275 411 283 C 422 304 422 304 399 313 Q 384 320 362 326 Q 343 330 333 323 Q 324 316 337 299 Q 362 266 317 199 Q 311 193 304 186 Q 289 168 293 154 Q 297 139 313 127 Q 326 117 338 130 Z" fill="black" /></g></svg>