<?xml version='1.0' encoding='utf-8'?>
<svg xmlns="http://www.w3.org/2000/svg" version="1.1" viewBox="0 0 1024 1024"><g transform="scale(1, -1) translate(0, -900)"><path d="M 742 458 Q 763 459 772 451 Q 784 436 781 395 Q 777 232 741 121 Q 731 85 719 71 Q 712 62 689 68 Q 652 81 623 93 Q 608 99 610 89 Q 613 76 626 64 Q 669 27 692 -9 Q 710 -31 731 -17 Q 768 19 796 62 Q 821 90 823 158 Q 829 249 835 390 Q 836 415 849 438 Q 859 456 849 465 Q 836 481 806 494 Q 782 504 768 495 Q 737 488 624 467 Q 606 466 601 471 Q 598 474 616 551 Q 617 557 618 561 C 622 581 622 581 606 592 Q 596 602 576 611 Q 564 620 556 613 Q 546 607 556 594 Q 572 569 563 526 Q 553 471 530 450 Q 518 437 523 425 Q 530 413 539 406 Q 549 399 566 413 Q 602 440 640 448 Q 709 463 742 458 Z" fill="black" /></g></svg>