<?xml version='1.0' encoding='utf-8'?>
<svg xmlns="http://www.w3.org/2000/svg" version="1.1" viewBox="0 0 1024 1024"><g transform="scale(1, -1) translate(0, -900)"><path d="M 228 585 Q 218 594 200 604 Q 187 614 178 608 Q 168 602 178 588 Q 197 551 183 496 Q 164 423 133 396 Q 120 383 124 370 Q 131 357 141 348 Q 151 341 170 356 Q 215 404 272 393 Q 279 392 285 386 Q 297 370 292 330 Q 286 234 263 169 Q 250 132 237 117 Q 230 108 205 116 Q 184 120 168 124 Q 152 131 154 120 Q 155 107 169 94 Q 193 63 205 35 Q 223 11 245 25 Q 315 82 325 149 Q 356 356 358 358 Q 359 364 365 370 Q 375 389 366 398 Q 353 416 322 430 Q 298 440 283 434 Q 273 430 218 415 Q 211 414 208 416 Q 202 420 208 434 Q 221 482 239 540 Q 240 547 242 554 C 247 572 247 572 228 585 Z" fill="black" /></g></svg>