<?xml version='1.0' encoding='utf-8'?>
<svg xmlns="http://www.w3.org/2000/svg" version="1.1" viewBox="0 0 1024 1024"><g transform="scale(1, -1) translate(0, -900)"><path d="M 778 589 Q 762 538 729 491 Q 719 481 722 468 Q 723 458 740 447 Q 792 404 837 356 Q 852 340 865 339 Q 878 340 881 361 Q 884 383 872 398 Q 862 422 784 452 Q 766 458 759 470 Q 753 480 766 493 Q 784 512 815 557 Q 831 579 847 590 Q 860 599 854 616 Q 841 649 817 662 Q 804 669 793 667 Q 783 666 788 647 Q 795 625 778 589 Z" fill="black" /></g></svg>