<?xml version='1.0' encoding='utf-8'?>
<svg xmlns="http://www.w3.org/2000/svg" version="1.1" viewBox="0 0 1024 1024"><g transform="scale(1, -1) translate(0, -900)"><path d="M 611 587 Q 581 584 552 578 Q 494 568 444 562 C 414 558 440 525 469 532 Q 506 542 557 549 L 605 557 Q 743 582 759 564 Q 769 549 768 536 Q 744 409 727 391 C 714 367 714 367 716 364 Q 732 339 749 329 Q 759 322 774 342 Q 787 364 818 486 Q 828 516 851 539 Q 864 551 853 565 Q 838 581 798 608 Q 783 615 709 601 Q 697 601 635 590 L 611 587 Z" fill="black" /></g></svg>