<?xml version='1.0' encoding='utf-8'?>
<svg xmlns="http://www.w3.org/2000/svg" version="1.1" viewBox="0 0 1024 1024"><g transform="scale(1, -1) translate(0, -900)"><path d="M 629 526 Q 681 545 765 567 Q 780 571 790 578 C 817 591 805 602 776 596 Q 668 575 553 539 Q 543 535 538 537 Q 535 541 543 553 Q 667 715 695 742 Q 708 752 702 765 Q 696 778 648 803 Q 632 812 621 808 Q 608 804 613 781 Q 631 712 501 566 Q 479 547 450 526 Q 435 514 439 503 Q 443 487 470 465 Q 480 455 494 465 Q 527 495 594 514 L 629 526 Z" fill="black" /></g></svg>