<?xml version='1.0' encoding='utf-8'?>
<svg xmlns="http://www.w3.org/2000/svg" version="1.1" viewBox="0 0 1024 1024"><g transform="scale(1, -1) translate(0, -900)"><path d="M 493 558 Q 478 477 441 431 Q 432 422 431 414 Q 430 404 452 386 Q 483 358 525 305 Q 537 286 548 287 Q 561 287 569 304 Q 576 326 571 341 Q 565 362 481 401 Q 453 417 501 476 Q 504 482 509 487 Q 540 530 553 541 Q 563 545 565 552 Q 568 568 545 589 Q 526 608 508 612 Q 490 613 485 607 Q 482 603 488 594 Q 498 581 493 558 Z" fill="black" /></g></svg>