<?xml version='1.0' encoding='utf-8'?>
<svg xmlns="http://www.w3.org/2000/svg" version="1.1" viewBox="0 0 1024 1024"><g transform="scale(1, -1) translate(0, -900)"><path d="M 507 238 Q 519 219 542 184 Q 549 171 558 173 Q 570 177 575 198 Q 596 261 586 434 Q 586 476 603 501 Q 616 517 606 527 Q 588 543 551 556 Q 539 562 466 534 Q 463 534 447 529 L 424 523 Q 411 522 397 518 C 368 511 395 487 424 493 L 511 512 Q 520 513 524 510 Q 552 467 540 278 Q 540 260 533 258 Q 532 257 526 257 C 504 243 504 243 507 238 Z" fill="black" /></g></svg>