<?xml version='1.0' encoding='utf-8'?>
<svg xmlns="http://www.w3.org/2000/svg" version="1.1" viewBox="0 0 1024 1024"><g transform="scale(1, -1) translate(0, -900)"><path d="M 905 498 Q 918 502 911 517 Q 898 535 882 544 Q 872 551 849 542 Q 818 529 777 531 Q 752 532 744 551 Q 732 572 743 630 Q 746 667 781 703 Q 797 716 782 730 Q 760 748 736 758 Q 726 762 710 753 Q 668 734 609 716 C 580 707 595 673 623 683 Q 644 690 679 706 Q 695 713 701 712 Q 708 709 708 697 Q 693 543 713 514 Q 717 508 727 501 Q 758 483 817 482 Q 875 483 905 498 Z" fill="black" /></g></svg>