<?xml version='1.0' encoding='utf-8'?>
<svg xmlns="http://www.w3.org/2000/svg" version="1.1" viewBox="0 0 1024 1024"><g transform="scale(1, -1) translate(0, -900)"><path d="M 759 406 Q 781 409 790 399 Q 803 383 799 341 Q 795 227 771 149 Q 761 113 748 99 Q 741 90 717 96 Q 687 108 664 116 Q 648 123 650 112 Q 651 99 665 86 Q 699 49 717 15 Q 736 -10 759 5 Q 831 71 839 145 Q 860 362 865 371 Q 866 378 871 384 Q 881 403 871 412 Q 858 430 826 443 Q 802 453 786 445 Q 767 441 708 428 Q 698 427 695 430 Q 691 433 693 444 Q 699 483 707 530 Q 708 539 709 546 C 712 564 712 564 690 576 Q 680 583 663 590 Q 650 599 641 592 Q 631 585 643 572 Q 662 544 654 494 Q 644 430 620 405 Q 608 392 613 379 Q 620 366 630 359 Q 640 352 658 367 Q 700 410 759 406 Z" fill="black" /></g></svg>