<?xml version='1.0' encoding='utf-8'?>
<svg xmlns="http://www.w3.org/2000/svg" version="1.1" viewBox="0 0 1024 1024"><g transform="scale(1, -1) translate(0, -900)"><path d="M 199 536 Q 189 546 164 559 Q 151 568 144 561 Q 134 555 144 542 Q 165 508 153 455 Q 138 385 110 358 Q 98 345 103 332 Q 110 320 121 313 Q 131 306 148 321 Q 200 381 266 368 Q 272 367 277 362 Q 287 349 284 313 Q 277 213 251 144 Q 238 108 226 95 Q 219 88 196 94 Q 168 107 143 116 Q 128 123 130 113 Q 131 100 144 87 Q 177 50 194 17 Q 210 -7 233 6 Q 263 31 287 61 Q 306 82 313 132 Q 325 199 339 304 Q 340 329 353 351 Q 363 369 353 378 Q 340 394 310 407 Q 289 416 232 393 Q 181 381 180 381 Q 174 385 179 398 Q 188 443 204 503 C 210 528 210 528 199 536 Z" fill="black" /></g></svg>