<?xml version='1.0' encoding='utf-8'?>
<svg xmlns="http://www.w3.org/2000/svg" version="1.1" viewBox="0 0 1024 1024"><g transform="scale(1, -1) translate(0, -900)"><path d="M 694 481 Q 710 457 725 450 Q 735 443 749 462 Q 761 481 786 583 Q 793 611 816 635 Q 828 647 817 660 Q 802 676 763 699 Q 745 706 678 689 Q 663 689 473 646 C 444 639 455 606 484 615 Q 518 627 568 636 L 602 644 Q 710 669 729 655 Q 739 648 737 632 Q 721 533 712 518 Q 708 508 695 505 C 682 497 682 497 694 481 Z" fill="black" /></g></svg>