<?xml version='1.0' encoding='utf-8'?>
<svg xmlns="http://www.w3.org/2000/svg" version="1.1" viewBox="0 0 1024 1024"><g transform="scale(1, -1) translate(0, -900)"><path d="M 195 565 Q 186 575 164 588 Q 152 597 144 591 Q 134 585 144 572 Q 160 542 148 495 Q 132 434 106 412 Q 94 399 99 386 Q 106 373 115 366 Q 125 359 143 373 Q 192 419 251 416 Q 272 416 281 409 Q 291 394 288 357 Q 278 258 252 191 Q 239 154 225 140 Q 216 131 146 152 Q 128 158 130 149 Q 133 136 146 124 Q 179 93 197 62 Q 213 41 232 54 Q 301 108 317 196 Q 347 379 357 395 Q 367 411 358 421 Q 345 437 316 452 Q 294 462 280 455 Q 265 449 192 429 Q 180 428 177 431 Q 173 434 177 445 Q 198 524 204 534 C 211 552 211 552 195 565 Z" fill="black" /></g></svg>