<?xml version='1.0' encoding='utf-8'?>
<svg xmlns="http://www.w3.org/2000/svg" version="1.1" viewBox="0 0 1024 1024"><g transform="scale(1, -1) translate(0, -900)"><path d="M 640 479 Q 698 491 764 501 Q 786 505 797 494 Q 807 490 812 441 Q 825 279 820 96 Q 820 68 810 61 Q 797 51 724 62 Q 708 63 710 55 Q 711 48 724 43 Q 788 4 824 -28 Q 843 -46 856 -43 Q 868 -40 877 -12 Q 890 31 888 94 Q 860 434 879 476 Q 889 497 879 507 Q 869 522 824 543 Q 805 552 788 547 Q 740 531 640 507 L 604 500 Q 517 485 427 474 C 397 470 428 428 457 437 Q 463 443 604 472 L 640 479 Z" fill="black" /></g></svg>