<?xml version='1.0' encoding='utf-8'?>
<svg xmlns="http://www.w3.org/2000/svg" version="1.1" viewBox="0 0 1024 1024"><g transform="scale(1, -1) translate(0, -900)"><path d="M 392 262 Q 382 277 369 284 Q 350 294 340 292 Q 331 289 336 275 Q 351 209 293 158 Q 280 145 288 132 Q 295 120 315 103 Q 325 93 343 104 Q 427 149 636 162 Q 678 165 670 123 Q 648 17 624 2 Q 615 -4 524 8 Q 508 14 507 6 Q 506 -4 527 -16 Q 563 -47 579 -76 Q 586 -98 606 -90 Q 657 -71 685 -9 Q 688 0 692 7 Q 740 125 756 134 Q 772 150 766 160 Q 756 173 708 201 Q 681 217 614 202 Q 442 177 383 163 Q 364 154 364 169 Q 380 212 394 231 C 405 249 405 249 392 262 Z" fill="black" /></g></svg>