<?xml version='1.0' encoding='utf-8'?>
<svg xmlns="http://www.w3.org/2000/svg" version="1.1" viewBox="0 0 1024 1024"><g transform="scale(1, -1) translate(0, -900)"><path d="M 680 125 Q 696 97 713 90 Q 723 83 737 102 Q 749 121 774 227 Q 783 257 804 280 Q 816 290 805 304 Q 792 320 751 344 Q 733 353 663 333 Q 653 333 543 309 Q 503 299 468 293 C 438 288 451 253 480 261 Q 513 271 559 281 L 594 288 Q 697 313 717 299 Q 727 292 725 275 Q 706 155 688 146 C 676 131 676 131 680 125 Z" fill="black" /></g></svg>