<?xml version='1.0' encoding='utf-8'?>
<svg xmlns="http://www.w3.org/2000/svg" version="1.1" viewBox="0 0 1024 1024"><g transform="scale(1, -1) translate(0, -900)"><path d="M 646 335 Q 664 365 665 430 L 667 471 Q 670 508 673 543 L 676 584 Q 676 620 680 657 L 683 703 Q 687 748 693 770 Q 703 789 690 802 Q 674 817 646 831 Q 624 840 600 831 Q 588 822 602 806 Q 623 767 629 691 L 630 648 Q 630 614 629 573 L 628 535 Q 628 531 628 526 Q 627 495 624 465 L 622 426 Q 616 345 631 330 C 637 317 637 317 646 335 Z" fill="black" /></g></svg>