<?xml version='1.0' encoding='utf-8'?>
<svg xmlns="http://www.w3.org/2000/svg" version="1.1" viewBox="0 0 1024 1024"><g transform="scale(1, -1) translate(0, -900)"><path d="M 480 731 Q 508 767 520 776 Q 532 783 526 796 Q 522 806 479 829 Q 464 836 455 834 Q 443 828 448 810 Q 463 756 378 669 Q 357 653 330 636 Q 317 626 320 616 Q 323 600 345 580 Q 354 570 367 578 Q 394 596 553 610 Q 556 611 559 610 C 589 612 604 629 574 633 L 573 634 Q 503 640 422 640 Q 415 639 413 642 Q 412 645 416 652 Q 447 692 471 720 L 480 731 Z" fill="black" /></g></svg>