<?xml version='1.0' encoding='utf-8'?>
<svg xmlns="http://www.w3.org/2000/svg" version="1.1" viewBox="0 0 1024 1024"><g transform="scale(1, -1) translate(0, -900)"><path d="M 527 229 Q 527 263 527 298 L 527 329 Q 527 356 528 375 L 530 408 Q 530 448 521 457 Q 517 460 513 462 C 491 483 465 484 475 456 Q 484 438 486 397 L 488 368 Q 488 347 488 322 L 488 293 Q 488 263 488 227 Q 487 226 487 225 L 485 156 Q 470 -10 478 -31 Q 484 -47 494 -62 Q 504 -78 511 -82 Q 521 -83 526 -71 Q 536 -43 533 -16 Q 529 87 527 179 L 527 229 Z" fill="black" /></g></svg>