<?xml version='1.0' encoding='utf-8'?>
<svg xmlns="http://www.w3.org/2000/svg" version="1.1" viewBox="0 0 1024 1024"><g transform="scale(1, -1) translate(0, -900)"><path d="M 933 93 Q 923 121 911 208 Q 911 221 905 226 Q 901 229 896 214 Q 871 123 854 95 Q 838 74 775 76 Q 751 77 732 85 Q 716 92 711 104 Q 687 152 696 258 L 697 276 Q 701 336 713 402 Q 717 420 706 429 Q 693 442 670 451 Q 657 455 649 450 Q 642 446 648 428 Q 661 391 658 353 Q 642 91 682 53 Q 745 2 872 33 Q 900 40 928 61 Q 944 73 933 93 Z" fill="black" /></g></svg>