<?xml version='1.0' encoding='utf-8'?>
<svg xmlns="http://www.w3.org/2000/svg" version="1.1" viewBox="0 0 1024 1024"><g transform="scale(1, -1) translate(0, -900)"><path d="M 468 734 Q 496 767 508 775 Q 521 784 516 796 Q 510 809 466 836 Q 450 845 440 842 Q 427 838 431 816 Q 446 750 329 641 Q 307 625 276 608 Q 260 598 263 587 Q 266 571 288 547 Q 298 535 312 544 Q 346 562 497 567 Q 525 567 535 578 Q 548 590 520 592 Q 451 602 375 608 Q 368 608 366 610 Q 365 614 371 623 Q 425 687 459 724 L 468 734 Z" fill="black" /></g></svg>