<?xml version='1.0' encoding='utf-8'?>
<svg xmlns="http://www.w3.org/2000/svg" version="1.1" viewBox="0 0 1024 1024"><g transform="scale(1, -1) translate(0, -900)"><path d="M 535 537 Q 559 558 616 618 Q 665 670 711 700 Q 730 710 718 724 Q 705 737 668 761 Q 652 768 636 759 Q 626 755 540 737 Q 515 733 480 731 C 460 730 460 730 471 720 Q 481 707 505 703 Q 517 702 599 712 Q 609 713 612 710 Q 616 706 609 694 Q 590 661 574 633 L 559 610 Q 511 538 511 533 C 497 506 513 517 535 537 Z" fill="black" /></g></svg>