<?xml version='1.0' encoding='utf-8'?>
<svg xmlns="http://www.w3.org/2000/svg" version="1.1" viewBox="0 0 1024 1024"><g transform="scale(1, -1) translate(0, -900)"><path d="M 607 308 Q 620 286 633 278 Q 640 271 656 288 Q 668 304 699 399 Q 708 426 730 447 Q 742 457 733 471 Q 720 487 683 511 Q 668 520 586 503 Q 577 503 458 482 Q 409 473 368 467 C 338 463 352 424 380 435 Q 384 441 475 456 L 513 462 Q 630 483 650 470 Q 660 461 656 447 Q 629 344 617 334 C 604 312 604 312 607 308 Z" fill="black" /></g></svg>