<?xml version='1.0' encoding='utf-8'?>
<svg xmlns="http://www.w3.org/2000/svg" version="1.1" viewBox="0 0 1024 1024"><g transform="scale(1, -1) translate(0, -900)"><path d="M 256 308 Q 256 341 262 365 Q 266 381 256 390 Q 234 408 213 417 Q 197 424 186 419 Q 176 412 189 393 Q 222 341 194 136 Q 185 112 169 86 Q 156 67 166 55 Q 175 42 199 31 Q 215 24 228 41 Q 241 72 316 129 Q 344 145 355 165 Q 362 175 353 176 Q 344 176 265 135 Q 255 129 250 133 Q 240 134 243 156 Q 250 229 254 275 L 256 308 Z" fill="black" /></g></svg>