<?xml version='1.0' encoding='utf-8'?>
<svg xmlns="http://www.w3.org/2000/svg" version="1.1" viewBox="0 0 1024 1024"><g transform="scale(1, -1) translate(0, -900)"><path d="M 100 218 Q 86 218 84 207 L 84 205 Q 86 189 110 172 Q 143 146 177 155 Q 251 182 355 192 L 412 198 Q 483 206 608 212 L 663 214 Q 664 215 668 215 Q 782 220 935 198 Q 960 194 965 203 Q 973 216 962 227 Q 935 256 890 278 Q 876 284 851 276 L 666 254 L 608 250 Q 514 245 422 235 L 357 231 Q 337 230 294 226 Q 171 216 100 218 Z" fill="black" /></g></svg>