<?xml version='1.0' encoding='utf-8'?>
<svg xmlns="http://www.w3.org/2000/svg" version="1.1" viewBox="0 0 1024 1024"><g transform="scale(1, -1) translate(0, -900)"><path d="M 638 460 Q 680 475 737 482 C 767 486 761 496 731 494 Q 670 490 597 475 Q 593 474 596 478 Q 692 550 739 572 Q 749 576 747 584 Q 744 599 726 617 Q 717 627 710 627 Q 703 626 701 616 Q 698 588 645 546 L 628 533 Q 556 476 542 474 Q 532 470 531 460 Q 530 451 544 435 Q 550 426 561 432 Q 586 445 614 453 L 638 460 Z" fill="black" /></g></svg>