<?xml version='1.0' encoding='utf-8'?>
<svg xmlns="http://www.w3.org/2000/svg" version="1.1" viewBox="0 0 1024 1024"><g transform="scale(1, -1) translate(0, -900)"><path d="M 487 794 Q 490 798 495 801 Q 508 813 507 818 Q 506 830 480 857 Q 470 869 455 868 Q 446 867 449 855 Q 455 831 394 746 Q 385 739 373 730 Q 357 721 358 711 Q 359 696 369 682 Q 376 672 387 677 Q 420 690 524 700 Q 537 701 549 703 C 579 707 590 720 560 720 Q 490 720 432 720 Q 413 721 423 733 Q 447 760 471 780 L 487 794 Z" fill="black" /></g></svg>