<?xml version='1.0' encoding='utf-8'?>
<svg xmlns="http://www.w3.org/2000/svg" version="1.1" viewBox="0 0 1024 1024"><g transform="scale(1, -1) translate(0, -900)"><path d="M 645 676 Q 646 682 647 687 Q 661 743 678 759 L 710 782 Q 728 802 712 821 Q 698 835 641 864 Q 631 868 623 868 Q 613 870 582 859 Q 486 827 332 817 Q 316 817 318 808 Q 318 802 329 794 Q 359 778 398 790 Q 488 802 575 815 Q 581 815 586 815 Q 623 815 617 764 Q 615 743 607 723 Q 590 683 586 668 C 577 640 639 647 645 676 Z" fill="black" /></g></svg>