<?xml version='1.0' encoding='utf-8'?>
<svg xmlns="http://www.w3.org/2000/svg" version="1.1" viewBox="0 0 1024 1024"><g transform="scale(1, -1) translate(0, -900)"><path d="M 670 469 Q 708 480 744 484 C 774 488 767 498 737 496 Q 674 492 600 476 Q 596 476 598 478 Q 607 485 626 498 Q 731 568 757 578 Q 760 579 761 581 Q 771 591 755 613 Q 740 633 729 633 Q 723 633 720 623 Q 714 598 643 539 L 622 525 Q 534 469 534 463 Q 533 454 546 437 Q 547 435 549 434 Q 553 429 566 435 Q 612 454 647 463 L 670 469 Z" fill="black" /></g></svg>