<?xml version='1.0' encoding='utf-8'?>
<svg xmlns="http://www.w3.org/2000/svg" version="1.1" viewBox="0 0 1024 1024"><g transform="scale(1, -1) translate(0, -900)"><path d="M 661 211 Q 769 221 925 201 Q 947 197 954 206 Q 963 219 951 231 Q 923 259 879 281 Q 866 287 839 280 Q 763 265 685 257 Q 672 256 664 255 L 605 250 Q 467 243 421 235 L 355 230 Q 315 229 287 224 Q 211 214 99 216 Q 86 217 84 206 Q 83 193 101 178 Q 117 165 148 152 Q 158 148 177 156 Q 195 162 275 173 Q 311 180 353 186 L 409 193 Q 490 203 606 207 L 661 211 Z" fill="black" /></g></svg>