<?xml version='1.0' encoding='utf-8'?>
<svg xmlns="http://www.w3.org/2000/svg" version="1.1" viewBox="0 0 1024 1024"><g transform="scale(1, -1) translate(0, -900)"><path d="M 266 342 Q 276 216 263 120 Q 259 94 254 70 Q 253 65 153 96 Q 139 98 141 90 Q 143 83 153 77 Q 231 20 260 -16 Q 274 -32 289 -18 Q 318 22 314 83 Q 310 129 310 349 L 316 398 Q 318 416 321 427 Q 325 443 314 455 Q 275 483 255 486 Q 245 488 239 484 Q 234 476 241 466 Q 257 441 260 425 Q 263 409 264 384 L 266 342 Z" fill="black" /></g></svg>