<?xml version='1.0' encoding='utf-8'?>
<svg xmlns="http://www.w3.org/2000/svg" version="1.1" viewBox="0 0 1024 1024"><g transform="scale(1, -1) translate(0, -900)"><path d="M 521 408 Q 522 463 524 528 L 525 574 Q 525 682 544 749 Q 553 762 550 776 Q 543 785 491 817 Q 469 833 450 819 Q 446 815 451 800 Q 481 755 481 686 Q 481 623 481 560 L 477 414 Q 473 257 457 190 Q 438 147 465 77 Q 472 61 479 57 Q 485 51 492 58 Q 499 62 509 82 Q 519 106 518 135 Q 517 168 521 383 L 521 408 Z" fill="black" /></g></svg>