<?xml version='1.0' encoding='utf-8'?>
<svg xmlns="http://www.w3.org/2000/svg" version="1.1" viewBox="0 0 1024 1024"><g transform="scale(1, -1) translate(0, -900)"><path d="M 454 443 Q 451 187 434 161 Q 430 157 412 161 Q 384 168 354 178 Q 335 185 336 176 Q 393 125 424 88 Q 437 69 451 65 Q 460 61 468 70 Q 508 116 507 167 Q 503 285 502 449 L 502 496 Q 498 694 516 726 Q 528 744 516 754 Q 497 772 461 786 Q 445 793 429 786 Q 371 756 293 746 C 263 741 286 714 315 720 Q 367 730 419 743 Q 438 747 443 738 Q 456 699 454 486 L 454 443 Z" fill="black" /></g></svg>