<?xml version='1.0' encoding='utf-8'?>
<svg xmlns="http://www.w3.org/2000/svg" version="1.1" viewBox="0 0 1024 1024"><g transform="scale(1, -1) translate(0, -900)"><path d="M 586 405 Q 579 424 569 478 Q 570 490 564 493 Q 560 496 556 484 Q 531 426 517 408 Q 510 401 494 396 Q 449 386 425 393 Q 413 397 410 403 Q 404 416 404 457 L 408 493 Q 409 506 412 521 Q 416 536 406 544 Q 396 554 376 561 Q 366 565 359 561 Q 353 557 358 543 Q 368 512 367 481 Q 366 480 366 479 L 366 446 Q 366 383 386 364 Q 440 331 537 357 Q 559 364 581 380 Q 594 389 586 405 Z" fill="black" /></g></svg>