<?xml version='1.0' encoding='utf-8'?>
<svg xmlns="http://www.w3.org/2000/svg" version="1.1" viewBox="0 0 1024 1024"><g transform="scale(1, -1) translate(0, -900)"><path d="M 618 409 Q 631 396 710 391 Q 747 388 749 354 Q 748 344 746 328 Q 721 190 673 123 Q 663 111 649 106 Q 634 103 592 124 Q 555 143 550 138 Q 543 129 561 115 Q 603 73 612 32 Q 616 14 629 7 Q 642 0 678 22 Q 720 53 755 147 Q 813 339 828 353 Q 840 359 841 368 Q 842 378 816 403 Q 777 436 727 427 Q 678 427 630 438 C 601 444 591 421 618 409 Z" fill="black" /></g></svg>