<?xml version='1.0' encoding='utf-8'?>
<svg xmlns="http://www.w3.org/2000/svg" version="1.1" viewBox="0 0 1024 1024"><g transform="scale(1, -1) translate(0, -900)"><path d="M 807 547 Q 837 604 858 617 Q 877 639 852 656 Q 828 675 803 690 Q 788 702 766 692 Q 741 682 702 674 Q 696 674 694 672 L 649 663 Q 606 656 565 644 L 522 634 Q 485 627 458 624 Q 445 624 443 616 Q 442 609 463 598 Q 482 585 512 594 Q 516 595 523 597 L 564 609 Q 592 619 649 626 L 694 633 Q 724 639 759 643 Q 771 644 775 639 Q 781 627 755 552 C 745 524 793 521 807 547 Z" fill="black" /></g></svg>