<?xml version='1.0' encoding='utf-8'?>
<svg xmlns="http://www.w3.org/2000/svg" version="1.1" viewBox="0 0 1024 1024"><g transform="scale(1, -1) translate(0, -900)"><path d="M 702 471 Q 759 489 806 496 Q 821 497 824 494 Q 837 473 829 423 Q 813 281 777 218 Q 762 190 738 194 Q 713 203 690 213 Q 668 220 683 198 Q 726 155 746 123 Q 771 101 790 122 Q 824 149 845 194 Q 870 249 880 410 Q 884 468 902 497 Q 912 509 907 518 Q 898 528 850 547 Q 831 554 814 542 Q 796 532 728 513 Q 661 494 601 487 Q 585 486 583 477 Q 582 470 604 460 Q 626 447 644 454 Q 654 458 668 461 L 702 471 Z" fill="black" /></g></svg>