<?xml version='1.0' encoding='utf-8'?>
<svg xmlns="http://www.w3.org/2000/svg" version="1.1" viewBox="0 0 1024 1024"><g transform="scale(1, -1) translate(0, -900)"><path d="M 903 510 Q 919 516 909 532 Q 893 551 874 562 Q 861 569 836 558 Q 797 539 747 540 Q 716 540 706 563 Q 693 585 703 653 Q 704 693 744 736 Q 762 752 744 767 Q 719 788 690 799 Q 678 805 661 793 Q 592 760 519 743 C 490 736 518 693 545 707 Q 552 714 634 742 Q 644 746 651 745 Q 660 742 659 727 Q 656 678 652 634 Q 645 582 657 548 Q 664 520 690 504 Q 727 483 798 486 Q 868 490 903 510 Z" fill="black" /></g></svg>