<?xml version='1.0' encoding='utf-8'?>
<svg xmlns="http://www.w3.org/2000/svg" version="1.1" viewBox="0 0 1024 1024"><g transform="scale(1, -1) translate(0, -900)"><path d="M 621 164 Q 572 95 439 50 Q 426 44 435 38 Q 442 34 469 39 Q 548 49 596 76 Q 626 95 651 124 L 679 165 Q 712 198 742 326 Q 748 360 766 377 Q 781 392 762 405 Q 743 420 709 431 Q 688 437 669 425 Q 651 416 633 408 L 591 394 Q 555 385 516 378 Q 494 377 484 370 C 464 364 464 364 482 358 Q 515 343 551 355 Q 606 368 663 382 Q 684 389 684 365 Q 684 281 643 202 L 621 164 Z" fill="black" /></g></svg>