<?xml version='1.0' encoding='utf-8'?>
<svg xmlns="http://www.w3.org/2000/svg" version="1.1" viewBox="0 0 1024 1024"><g transform="scale(1, -1) translate(0, -900)"><path d="M 771 579 Q 823 585 918 584 Q 936 585 940 593 Q 944 603 929 615 Q 872 657 802 630 Q 798 630 794 628 L 730 615 Q 693 609 650 601 Q 637 600 627 597 L 574 589 Q 495 577 407 564 Q 388 563 402 547 Q 415 535 431 530 Q 450 526 464 530 Q 516 546 573 555 L 626 564 Q 627 565 629 565 Q 668 572 720 575 L 771 579 Z" fill="black" /></g></svg>