<?xml version='1.0' encoding='utf-8'?>
<svg xmlns="http://www.w3.org/2000/svg" version="1.1" viewBox="0 0 1024 1024"><g transform="scale(1, -1) translate(0, -900)"><path d="M 491 735 Q 475 748 459 756 Q 440 763 430 757 Q 420 750 429 733 Q 496 592 443 156 Q 433 116 398 73 Q 385 57 393 32 Q 403 4 417 -9 Q 430 -18 444 0 Q 462 28 621 140 Q 642 152 647 161 Q 653 171 642 173 Q 629 173 515 124 Q 496 115 496 134 Q 506 302 508 442 L 509 488 Q 508 537 508 582 L 507 606 Q 507 673 517 704 C 519 715 516 718 491 735 Z" fill="black" /></g></svg>