<?xml version='1.0' encoding='utf-8'?>
<svg xmlns="http://www.w3.org/2000/svg" version="1.1" viewBox="0 0 1024 1024"><g transform="scale(1, -1) translate(0, -900)"><path d="M 658 43 Q 627 47 595 52 Q 582 53 583 46 Q 584 39 596 31 Q 668 -27 695 -65 Q 711 -81 726 -67 Q 757 -34 758 50 Q 746 185 746 352 L 753 405 Q 754 412 757 418 Q 766 437 748 451 Q 721 473 690 482 Q 671 489 662 481 Q 656 474 667 458 Q 686 427 691 390 L 693 346 Q 700 171 695 77 Q 694 55 682 46 Q 673 39 658 43 Z" fill="black" /></g></svg>