<?xml version='1.0' encoding='utf-8'?>
<svg xmlns="http://www.w3.org/2000/svg" version="1.1" viewBox="0 0 1024 1024"><g transform="scale(1, -1) translate(0, -900)"><path d="M 517 586 Q 551 571 599 579 Q 764 618 784 597 Q 803 576 805 526 Q 815 370 806 269 Q 787 110 756 91 Q 750 88 669 98 Q 656 101 653 97 Q 650 90 669 74 Q 706 32 723 -4 Q 744 -34 761 -29 Q 777 -25 798 5 Q 828 42 848 114 Q 870 201 881 482 Q 882 555 902 580 Q 921 602 896 620 Q 868 639 809 659 Q 797 663 783 657 Q 690 630 530 603 C 500 598 488 594 517 586 Z" fill="black" /></g></svg>