<?xml version='1.0' encoding='utf-8'?>
<svg xmlns="http://www.w3.org/2000/svg" version="1.1" viewBox="0 0 1024 1024"><g transform="scale(1, -1) translate(0, -900)"><path d="M 585 578 Q 576 538 555 498 Q 546 486 549 475 Q 552 465 568 453 Q 596 428 619 398 Q 635 382 649 381 Q 662 382 665 405 Q 666 427 655 444 Q 649 453 615 460 Q 594 464 586 479 Q 580 489 594 504 Q 604 517 626 547 Q 642 572 656 585 Q 669 595 662 612 Q 644 646 619 657 Q 604 664 593 660 Q 583 657 589 639 Q 599 615 585 578 Z" fill="black" /></g></svg>