<?xml version='1.0' encoding='utf-8'?>
<svg xmlns="http://www.w3.org/2000/svg" version="1.1" viewBox="0 0 1024 1024"><g transform="scale(1, -1) translate(0, -900)"><path d="M 539 421 Q 609 455 729 477 C 758 483 744 500 714 496 Q 623 483 519 457 Q 509 454 515 462 Q 689 616 756 652 Q 771 659 767 671 Q 760 693 731 719 Q 718 732 707 731 Q 697 730 695 714 Q 692 683 626 608 L 598 580 Q 459 459 434 449 Q 419 442 420 428 Q 420 415 442 392 Q 451 379 468 388 Q 484 398 504 406 L 539 421 Z" fill="black" /></g></svg>