<?xml version='1.0' encoding='utf-8'?>
<svg xmlns="http://www.w3.org/2000/svg" version="1.1" viewBox="0 0 1024 1024"><g transform="scale(1, -1) translate(0, -900)"><path d="M 653 166 Q 687 218 720 294 Q 733 322 754 340 Q 773 355 762 369 Q 749 382 718 394 Q 694 403 667 390 Q 642 380 607 370 Q 586 366 559 359 C 530 352 505 325 535 324 Q 563 320 599 330 Q 639 346 646 347 Q 668 346 664 322 Q 645 252 615 199 L 592 165 Q 516 72 345 27 Q 332 23 342 15 Q 349 11 397 13 Q 458 17 529 55 Q 581 83 623 127 L 653 166 Z" fill="black" /></g></svg>