<?xml version='1.0' encoding='utf-8'?>
<svg xmlns="http://www.w3.org/2000/svg" version="1.1" viewBox="0 0 1024 1024"><g transform="scale(1, -1) translate(0, -900)"><path d="M 720 270 Q 720 322 720 382 L 720 414 Q 720 472 721 536 L 721 568 Q 721 569 722 569 Q 721 669 739 736 Q 748 752 745 765 Q 738 775 682 809 Q 658 825 637 810 Q 633 804 639 789 Q 669 747 676 649 Q 682 223 660 112 Q 642 37 650 17 Q 668 -46 682 -51 Q 689 -58 696 -49 Q 703 -45 714 -24 Q 723 1 722 33 Q 721 64 720 240 L 720 270 Z" fill="black" /></g></svg>