<?xml version='1.0' encoding='utf-8'?>
<svg xmlns="http://www.w3.org/2000/svg" version="1.1" viewBox="0 0 1024 1024"><g transform="scale(1, -1) translate(0, -900)"><path d="M 662 435 Q 678 410 693 402 Q 702 395 717 414 Q 732 436 764 567 Q 773 595 794 617 Q 806 627 796 641 Q 783 657 744 681 Q 729 688 671 673 Q 665 673 571 650 Q 531 640 498 633 C 469 627 487 597 516 604 Q 519 604 526 606 Q 581 625 680 643 Q 699 647 709 640 Q 722 630 718 611 Q 693 490 682 471 Q 679 467 677 463 C 662 437 662 435 662 435 Z" fill="black" /></g></svg>