<?xml version='1.0' encoding='utf-8'?>
<svg xmlns="http://www.w3.org/2000/svg" version="1.1" viewBox="0 0 1024 1024"><g transform="scale(1, -1) translate(0, -900)"><path d="M 616 153 Q 550 72 420 35 Q 407 31 418 23 Q 424 19 464 21 Q 566 30 647 118 L 674 155 Q 705 206 735 278 Q 747 305 766 321 Q 785 336 772 349 Q 760 361 731 372 Q 709 379 684 367 Q 659 358 624 349 Q 602 345 573 340 C 543 335 532 307 562 308 Q 581 307 606 313 Q 655 329 665 329 Q 687 325 680 301 Q 665 235 638 186 L 616 153 Z" fill="black" /></g></svg>