<?xml version='1.0' encoding='utf-8'?>
<svg xmlns="http://www.w3.org/2000/svg" version="1.1" viewBox="0 0 1024 1024"><g transform="scale(1, -1) translate(0, -900)"><path d="M 640 392 Q 640 507 640 623 L 642 671 Q 645 735 659 784 Q 669 800 665 813 Q 658 823 602 857 Q 578 873 557 858 Q 553 852 559 837 Q 596 785 597 730 Q 597 696 598 659 L 599 614 Q 599 589 601 561 Q 600 501 599 439 L 598 334 Q 594 180 584 121 Q 562 28 579 -16 Q 582 -23 587 -34 Q 594 -52 602 -55 Q 609 -62 616 -53 Q 623 -49 634 -28 Q 643 -3 642 29 Q 641 71 640 352 L 640 392 Z" fill="black" /></g></svg>