<?xml version='1.0' encoding='utf-8'?>
<svg xmlns="http://www.w3.org/2000/svg" version="1.1" viewBox="0 0 1024 1024"><g transform="scale(1, -1) translate(0, -900)"><path d="M 717 439 Q 723 426 736 425 Q 751 426 759 442 Q 772 458 800 540 Q 818 594 857 624 Q 878 640 861 657 Q 842 675 791 704 Q 773 716 696 695 Q 663 695 547 666 Q 538 665 530 661 L 495 653 Q 483 652 473 650 C 443 646 457 604 485 614 Q 485 615 489 616 Q 559 640 717 665 Q 745 668 756 663 Q 766 656 759 624 Q 741 543 716 467 C 709 446 709 446 717 439 Z" fill="black" /></g></svg>