<?xml version='1.0' encoding='utf-8'?>
<svg xmlns="http://www.w3.org/2000/svg" version="1.1" viewBox="0 0 1024 1024"><g transform="scale(1, -1) translate(0, -900)"><path d="M 572 319 Q 584 329 712 354 Q 716 355 722 356 C 751 362 742 375 712 372 Q 624 365 517 341 Q 508 340 514 345 Q 557 379 656 448 Q 693 476 722 490 Q 735 496 733 507 Q 727 529 701 555 Q 688 568 678 567 Q 668 567 666 551 Q 660 512 584 445 Q 583 445 582 444 L 560 426 Q 452 342 436 337 Q 423 331 422 317 Q 421 304 442 282 Q 449 269 466 277 Q 502 296 541 309 L 572 319 Z" fill="black" /></g></svg>