<?xml version='1.0' encoding='utf-8'?>
<svg xmlns="http://www.w3.org/2000/svg" version="1.1" viewBox="0 0 1024 1024"><g transform="scale(1, -1) translate(0, -900)"><path d="M 736 62 Q 764 25 785 -8 Q 794 -26 805 -25 Q 820 -24 835 8 Q 851 45 848 89 Q 841 179 834 346 Q 833 374 849 394 Q 858 406 849 415 Q 833 434 785 456 Q 769 465 754 457 Q 721 442 675 430 L 638 423 Q 566 411 549 421 C 520 427 559 383 589 386 Q 604 386 740 410 Q 759 414 769 406 Q 799 376 780 91 Q 776 75 760 80 C 732 69 731 69 736 62 Z" fill="black" /></g></svg>