<?xml version='1.0' encoding='utf-8'?>
<svg xmlns="http://www.w3.org/2000/svg" version="1.1" viewBox="0 0 1024 1024"><g transform="scale(1, -1) translate(0, -900)"><path d="M 406 304 Q 407 305 410 306 Q 423 315 434 323 Q 458 333 465 327 Q 475 321 468 297 Q 474 212 458 144 Q 448 120 483 84 Q 492 77 498 82 Q 504 88 511 106 Q 536 149 593 223 Q 600 232 598 238 Q 597 244 589 236 Q 559 211 531 184 Q 503 156 505 194 Q 499 299 528 331 Q 538 338 530 349 Q 521 361 492 374 Q 482 378 470 369 Q 445 354 388 338 C 359 330 381 288 406 304 Z" fill="black" /></g></svg>