<?xml version='1.0' encoding='utf-8'?>
<svg xmlns="http://www.w3.org/2000/svg" version="1.1" viewBox="0 0 1024 1024"><g transform="scale(1, -1) translate(0, -900)"><path d="M 447 551 Q 416 541 390 529 Q 388 528 386 528 Q 379 529 381 539 Q 383 549 385 568 Q 392 641 384 655 L 380 659 Q 359 686 335 684 Q 328 680 331 667 Q 341 636 341 615 Q 342 594 341 576 Q 337 531 319 505 Q 312 494 314 486 Q 318 474 331 466 Q 351 456 359 465 Q 375 487 460 521 Q 528 548 545 546 C 575 548 580 586 551 580 Q 519 574 484 563 L 447 551 Z" fill="black" /></g></svg>