<?xml version='1.0' encoding='utf-8'?>
<svg xmlns="http://www.w3.org/2000/svg" version="1.1" viewBox="0 0 1024 1024"><g transform="scale(1, -1) translate(0, -900)"><path d="M 512 304 Q 449 294 376 272 Q 369 271 373 275 Q 407 308 488 372 Q 516 397 540 411 Q 550 417 547 426 Q 543 442 518 463 Q 508 473 499 472 Q 490 471 490 458 Q 487 433 441 378 L 421 358 Q 325 270 310 264 Q 298 258 299 247 Q 299 237 317 218 Q 324 208 337 216 Q 377 241 418 256 L 442 264 Q 478 279 519 289 C 548 296 542 309 512 304 Z" fill="black" /></g></svg>