<?xml version='1.0' encoding='utf-8'?>
<svg xmlns="http://www.w3.org/2000/svg" version="1.1" viewBox="0 0 1024 1024"><g transform="scale(1, -1) translate(0, -900)"><path d="M 701 470 Q 701 466 706 459 Q 729 379 694 263 L 672 215 Q 616 146 591 123 Q 559 100 501 69 Q 487 61 493 59 Q 496 57 507 57 L 511 57 Q 561 56 635 102 Q 669 121 696 159 L 703 169 L 729 218 Q 760 288 772 370 Q 780 419 787 435 Q 794 441 788 452 Q 786 455 776 459 Q 744 476 731 478 C 702 487 693 490 701 470 Z" fill="black" /></g></svg>