<?xml version='1.0' encoding='utf-8'?>
<svg xmlns="http://www.w3.org/2000/svg" version="1.1" viewBox="0 0 1024 1024"><g transform="scale(1, -1) translate(0, -900)"><path d="M 469 260 Q 475 257 490 252 Q 515 243 522 228 Q 529 210 489 116 Q 473 82 457 77 Q 450 77 425 95 Q 400 117 395 114 Q 388 108 399 94 Q 423 49 421 22 Q 422 7 431 1 Q 441 -6 472 7 Q 515 32 542 107 Q 554 176 583 197 Q 593 200 595 208 Q 598 215 580 240 Q 561 265 511 275 Q 504 278 494 281 Q 490 282 487 284 C 459 295 441 271 469 260 Z" fill="black" /></g></svg>