<?xml version='1.0' encoding='utf-8'?>
<svg xmlns="http://www.w3.org/2000/svg" version="1.1" viewBox="0 0 1024 1024"><g transform="scale(1, -1) translate(0, -900)"><path d="M 863 228 Q 859 243 834 262 Q 797 290 698 391 Q 691 398 685 398 Q 682 397 684 389 Q 708 338 732 281 Q 742 257 728 241 Q 689 208 550 226 Q 441 244 397 323 Q 370 377 355 435 Q 348 463 324 476 Q 306 486 299 478 Q 295 474 302 454 Q 312 429 335 363 Q 372 224 476 178 Q 495 171 521 163 Q 710 115 851 212 Q 866 221 863 228 Z" fill="black" /></g></svg>