<?xml version='1.0' encoding='utf-8'?>
<svg xmlns="http://www.w3.org/2000/svg" version="1.1" viewBox="0 0 1024 1024"><g transform="scale(1, -1) translate(0, -900)"><path d="M 449 578 Q 433 577 430 568 Q 429 561 437 556 Q 471 546 507 552 Q 565 565 595 573 Q 619 579 621 571 Q 628 558 609 535 Q 413 279 408 162 Q 408 159 408 156 Q 412 113 444 86 Q 523 13 718 15 Q 824 16 948 66 Q 982 82 973 108 Q 948 175 931 288 Q 925 301 918 301 Q 912 301 908 283 Q 902 244 897 202 Q 890 141 845 115 Q 794 88 677 88 Q 562 88 517 110 Q 477 132 466 172 Q 441 275 616 472 Q 670 533 723 560 Q 750 570 741 585 Q 734 601 682 632 Q 663 645 634 632 Q 535 589 449 578 Z" fill="black" /></g></svg>