<?xml version='1.0' encoding='utf-8'?>
<svg xmlns="http://www.w3.org/2000/svg" version="1.1" viewBox="0 0 1024 1024"><g transform="scale(1, -1) translate(0, -900)"><path d="M 431 175 Q 548 88 749 123 Q 752 124 756 125 Q 792 135 833 159 Q 849 166 846 173 Q 843 186 823 206 Q 792 234 710 333 Q 703 342 697 342 Q 694 341 695 333 Q 708 285 722 232 Q 726 210 713 197 Q 673 172 544 196 Q 505 206 478 219 L 430 254 Q 382 305 353 430 Q 346 460 324 472 Q 306 482 299 474 Q 295 470 301 450 Q 311 425 332 353 Q 353 263 392 214 L 431 175 Z" fill="black" /></g></svg>