<?xml version='1.0' encoding='utf-8'?>
<svg xmlns="http://www.w3.org/2000/svg" version="1.1" viewBox="0 0 1024 1024"><g transform="scale(1, -1) translate(0, -900)"><path d="M 767 449 Q 751 491 738 563 Q 737 578 729 582 Q 722 586 719 568 Q 707 478 694 462 Q 664 423 510 413 Q 429 413 393 425 Q 362 440 355 460 Q 352 472 356 503 Q 360 534 370 552 Q 371 559 373 565 C 380 585 379 585 354 602 Q 315 630 304 626 Q 291 620 297 605 Q 315 571 311 520 Q 307 451 330 421 Q 357 381 451 371 Q 518 364 622 375 Q 716 384 752 406 Q 780 421 767 449 Z" fill="black" /></g></svg>