<?xml version='1.0' encoding='utf-8'?>
<svg xmlns="http://www.w3.org/2000/svg" version="1.1" viewBox="0 0 1024 1024"><g transform="scale(1, -1) translate(0, -900)"><path d="M 614 396 Q 618 432 624 466 L 628 512 Q 629 528 630 543 Q 633 657 656 721 Q 663 734 652 742 Q 633 761 592 777 Q 568 787 550 782 Q 528 773 545 754 Q 576 721 576 687 Q 576 584 568 498 L 563 452 Q 539 218 416 94 Q 385 64 334 27 Q 321 20 318 15 Q 314 8 331 7 Q 397 7 511 120 Q 527 141 542 162 Q 581 234 605 349 L 614 396 Z" fill="black" /></g></svg>