<?xml version='1.0' encoding='utf-8'?>
<svg xmlns="http://www.w3.org/2000/svg" version="1.1" viewBox="0 0 1024 1024"><g transform="scale(1, -1) translate(0, -900)"><path d="M 516 519 Q 658 108 870 -27 Q 906 -49 923 -47 Q 939 -47 947 -32 Q 954 -20 939 29 Q 923 83 918 188 Q 918 222 907 223 Q 898 223 891 193 Q 873 79 848 85 Q 803 107 734 195 Q 644 310 568 531 L 550 586 Q 513 697 511 747 Q 518 792 490 804 Q 483 808 473 812 Q 446 824 431 823 Q 416 822 416 820 Q 392 810 417 786 Q 430 783 498 576 Q 498 573 500 569 L 516 519 Z" fill="black" /></g></svg>