<?xml version='1.0' encoding='utf-8'?>
<svg xmlns="http://www.w3.org/2000/svg" version="1.1" viewBox="0 0 1024 1024"><g transform="scale(1, -1) translate(0, -900)"><path d="M 855 88 Q 849 98 827 112 Q 793 131 698 205 Q 691 211 685 210 Q 682 209 685 201 Q 706 165 728 123 Q 737 107 727 93 Q 714 81 669 76 Q 605 69 538 79 Q 433 97 402 163 Q 386 203 376 244 Q 372 272 352 284 Q 336 294 329 287 Q 326 286 350 194 Q 369 103 419 63 Q 536 -21 740 18 Q 756 22 772 27 Q 806 37 844 69 Q 857 78 855 88 Z" fill="black" /></g></svg>