<?xml version='1.0' encoding='utf-8'?>
<svg xmlns="http://www.w3.org/2000/svg" version="1.1" viewBox="0 0 1024 1024"><g transform="scale(1, -1) translate(0, -900)"><path d="M 488 441 Q 488 356 501 335 Q 514 322 522 340 Q 531 358 534 447 L 536 480 Q 537 510 538 547 Q 539 595 540 633 L 542 667 Q 546 757 559 772 Q 565 785 547 800 Q 525 816 486 827 Q 470 831 458 819 Q 448 812 460 801 Q 476 788 479 768 Q 480 728 483 657 L 484 624 Q 485 603 486 579 Q 487 513 487 472 L 488 441 Z" fill="black" /></g></svg>