<?xml version='1.0' encoding='utf-8'?>
<svg xmlns="http://www.w3.org/2000/svg" version="1.1" viewBox="0 0 1024 1024"><g transform="scale(1, -1) translate(0, -900)"><path d="M 867 81 Q 861 93 840 106 Q 806 127 715 200 Q 708 207 701 206 Q 698 205 701 197 Q 717 160 735 118 Q 742 102 732 90 Q 716 75 668 69 Q 598 60 528 71 Q 423 89 393 157 Q 378 194 370 235 Q 367 263 348 275 Q 332 287 325 280 Q 324 280 342 188 Q 357 100 404 58 Q 512 -23 708 4 Q 744 10 779 20 Q 815 30 855 63 Q 870 72 867 81 Z" fill="black" /></g></svg>