<?xml version='1.0' encoding='utf-8'?>
<svg xmlns="http://www.w3.org/2000/svg" version="1.1" viewBox="0 0 1024 1024"><g transform="scale(1, -1) translate(0, -900)"><path d="M 616 345 Q 613 -18 624 -48 Q 625 -51 628 -56 Q 643 -72 652 -51 Q 668 -2 669 353 L 669 393 Q 669 478 671 545 L 672 580 Q 673 656 677 705 Q 678 739 697 768 Q 704 784 684 800 Q 659 819 616 831 Q 597 835 583 822 Q 573 813 586 801 Q 616 776 618 740 Q 618 676 618 571 L 617 536 Q 617 472 617 394 Q 616 390 616 383 L 616 345 Z" fill="black" /></g></svg>