<?xml version='1.0' encoding='utf-8'?>
<svg xmlns="http://www.w3.org/2000/svg" version="1.1" viewBox="0 0 1024 1024"><g transform="scale(1, -1) translate(0, -900)"><path d="M 708 190 Q 605 174 495 147 Q 485 143 481 146 Q 478 150 484 161 Q 586 312 608 338 Q 620 350 613 363 Q 606 376 554 398 Q 536 405 526 400 Q 513 393 520 372 Q 542 309 443 179 Q 421 155 387 129 Q 372 116 377 104 Q 384 86 411 66 Q 423 56 437 67 Q 482 106 703 159 Q 715 163 724 167 C 752 178 738 195 708 190 Z" fill="black" /></g></svg>