<?xml version='1.0' encoding='utf-8'?>
<svg xmlns="http://www.w3.org/2000/svg" version="1.1" viewBox="0 0 1024 1024"><g transform="scale(1, -1) translate(0, -900)"><path d="M 979 81 Q 964 111 942 201 Q 941 217 933 222 Q 926 225 923 207 Q 899 110 882 78 Q 858 45 758 48 Q 721 49 692 63 Q 667 76 659 92 Q 629 150 661 358 Q 667 386 618 407 Q 605 411 597 406 Q 590 402 596 384 Q 609 347 606 309 Q 596 123 611 73 Q 615 49 638 29 Q 722 -37 892 -4 Q 893 -3 898 -2 Q 937 10 974 37 Q 995 53 979 81 Z" fill="black" /></g></svg>