<?xml version='1.0' encoding='utf-8'?>
<svg xmlns="http://www.w3.org/2000/svg" version="1.1" viewBox="0 0 1024 1024"><g transform="scale(1, -1) translate(0, -900)"><path d="M 555 537 Q 552 455 543 372 L 539 334 Q 518 181 434 103 Q 394 70 334 35 Q 321 28 321 23 Q 322 19 334 19 Q 350 15 389 29 Q 524 72 566 218 Q 576 251 582 290 L 588 336 Q 588 340 589 343 L 592 379 Q 598 466 603 547 L 606 587 Q 609 648 634 729 Q 641 744 631 755 Q 607 774 567 787 Q 542 794 532 787 Q 522 780 530 767 Q 552 728 555 679 Q 556 627 556 575 L 555 537 Z" fill="black" /></g></svg>