<?xml version='1.0' encoding='utf-8'?>
<svg xmlns="http://www.w3.org/2000/svg" version="1.1" viewBox="0 0 1024 1024"><g transform="scale(1, -1) translate(0, -900)"><path d="M 959 102 Q 940 154 927 241 Q 926 257 917 262 Q 910 266 906 246 Q 894 137 879 117 Q 857 92 759 91 Q 707 94 684 103 Q 665 113 660 126 Q 650 156 652 230 Q 659 312 676 350 Q 689 380 670 397 Q 624 433 607 432 C 588 438 591 429 600 400 Q 615 366 610 316 Q 601 129 626 92 Q 642 65 711 49 Q 760 39 841 39 Q 913 40 941 54 Q 972 70 959 102 Z" fill="black" /></g></svg>