<?xml version='1.0' encoding='utf-8'?>
<svg xmlns="http://www.w3.org/2000/svg" version="1.1" viewBox="0 0 1024 1024"><g transform="scale(1, -1) translate(0, -900)"><path d="M 628 565 Q 716 592 740 588 Q 756 579 755 572 Q 755 566 724 493 Q 720 480 725 477 Q 732 474 745 485 Q 794 527 837 544 Q 871 560 870 567 Q 869 577 801 620 Q 780 635 691 612 Q 649 603 632 598 L 577 585 Q 550 581 524 573 Q 494 566 465 560 C 436 554 439 536 468 529 Q 487 522 508 528 Q 539 541 574 551 L 628 565 Z" fill="black" /></g></svg>