<?xml version='1.0' encoding='utf-8'?>
<svg xmlns="http://www.w3.org/2000/svg" version="1.1" viewBox="0 0 1024 1024"><g transform="scale(1, -1) translate(0, -900)"><path d="M 428 397 Q 415 396 419 382 Q 423 370 446 360 Q 464 351 538 369 Q 698 415 711 408 Q 720 401 713 383 Q 635 34 888 -8 Q 946 -17 971 -8 Q 992 -1 983 28 Q 967 89 961 157 Q 960 188 953 196 Q 946 203 940 187 Q 915 84 893 62 Q 874 53 853 62 Q 817 72 787 103 Q 739 151 743 255 Q 746 352 800 403 Q 815 413 809 424 Q 802 437 749 462 Q 733 469 719 459 Q 673 434 562 412 Q 489 397 428 397 Z" fill="black" /></g></svg>