<?xml version='1.0' encoding='utf-8'?>
<svg xmlns="http://www.w3.org/2000/svg" version="1.1" viewBox="0 0 1024 1024"><g transform="scale(1, -1) translate(0, -900)"><path d="M 435 430 Q 471 484 500 572 L 518 638 Q 518 671 540 731 Q 544 747 553 762 Q 560 772 552 781 Q 536 800 504 818 Q 485 831 467 827 Q 446 823 460 803 Q 484 772 480 741 Q 473 677 461 627 L 450 582 Q 449 581 449 578 Q 407 428 266 352 Q 205 325 202 321 Q 198 317 213 313 Q 249 304 354 357 Q 379 370 423 414 L 435 430 Z" fill="black" /></g></svg>