<?xml version='1.0' encoding='utf-8'?>
<svg xmlns="http://www.w3.org/2000/svg" version="1.1" viewBox="0 0 1024 1024"><g transform="scale(1, -1) translate(0, -900)"><path d="M 586 663 Q 601 672 675 675 Q 690 675 696 668 Q 708 629 675 485 Q 653 419 640 400 Q 628 381 615 380 Q 605 379 549 409 Q 540 413 539 408 Q 538 404 547 393 Q 578 344 590 311 Q 596 292 608 290 Q 621 286 637 299 Q 695 332 742 502 Q 770 628 782 637 Q 783 640 787 642 Q 800 655 800 663 Q 794 690 720 720 Q 699 729 615 704 Q 603 703 592 699 Q 520 683 381 660 C 351 655 335 645 365 640 Q 366 640 368 639 Q 384 635 405 635 L 448 640 Q 500 649 547 656 L 586 663 Z" fill="black" /></g></svg>