<?xml version='1.0' encoding='utf-8'?>
<svg xmlns="http://www.w3.org/2000/svg" version="1.1" viewBox="0 0 1024 1024"><g transform="scale(1, -1) translate(0, -900)"><path d="M 504 355 Q 505 356 508 357 Q 590 384 651 394 Q 664 395 667 392 Q 673 385 670 362 Q 666 301 653 273 Q 637 245 611 250 Q 587 259 566 268 Q 544 277 558 254 Q 598 212 616 180 Q 628 164 642 175 Q 687 202 717 316 Q 730 376 744 390 Q 756 402 750 411 Q 743 421 695 443 Q 685 447 628 427 Q 547 403 492 394 C 462 389 476 345 504 355 Z" fill="black" /></g></svg>