<?xml version='1.0' encoding='utf-8'?>
<svg xmlns="http://www.w3.org/2000/svg" version="1.1" viewBox="0 0 1024 1024"><g transform="scale(1, -1) translate(0, -900)"><path d="M 545 435 Q 551 694 558 715 Q 565 734 551 749 Q 526 767 500 774 Q 469 781 459 767 Q 452 755 465 743 Q 484 725 490 682 Q 502 606 500 427 L 500 387 Q 500 111 458 56 Q 445 37 457 15 Q 470 -4 489 -13 Q 501 -20 513 -2 Q 534 32 643 139 Q 671 161 673 171 Q 674 178 668 180 Q 667 180 550 106 Q 534 90 532 113 Q 538 243 543 380 L 545 435 Z" fill="black" /></g></svg>