<?xml version='1.0' encoding='utf-8'?>
<svg xmlns="http://www.w3.org/2000/svg" version="1.1" viewBox="0 0 1024 1024"><g transform="scale(1, -1) translate(0, -900)"><path d="M 844 109 Q 829 134 806 214 Q 805 230 797 234 Q 790 237 788 219 Q 767 132 752 104 Q 721 67 611 72 Q 569 75 536 90 Q 508 105 499 124 Q 472 179 504 355 C 509 382 509 382 492 394 Q 465 418 448 412 C 434 414 434 414 437 401 Q 437 397 440 389 Q 452 350 449 313 Q 439 150 452 105 Q 456 80 479 58 Q 569 -11 745 22 Q 751 23 758 25 Q 800 37 840 65 Q 859 83 844 109 Z" fill="black" /></g></svg>