<?xml version='1.0' encoding='utf-8'?>
<svg xmlns="http://www.w3.org/2000/svg" version="1.1" viewBox="0 0 1024 1024"><g transform="scale(1, -1) translate(0, -900)"><path d="M 867 87 Q 860 97 839 108 Q 806 124 714 185 Q 707 192 701 190 Q 698 189 701 182 Q 720 151 739 114 Q 746 99 739 88 Q 726 75 680 70 Q 613 63 543 72 Q 432 90 401 150 Q 383 184 372 224 Q 366 249 348 260 Q 332 269 326 262 Q 322 258 328 241 Q 335 225 350 176 Q 375 71 469 31 Q 487 25 511 17 Q 704 -34 832 47 Q 842 56 856 67 Q 869 76 867 87 Z" fill="black" /></g></svg>