<?xml version='1.0' encoding='utf-8'?>
<svg xmlns="http://www.w3.org/2000/svg" version="1.1" viewBox="0 0 1024 1024"><g transform="scale(1, -1) translate(0, -900)"><path d="M 307 272 Q 308 381 311 553 L 311 584 Q 311 585 312 586 Q 313 677 331 740 Q 340 755 337 769 Q 330 779 274 813 Q 250 829 229 814 Q 225 810 230 794 Q 260 748 262 683 Q 262 275 253 206 Q 246 170 236 132 Q 224 90 251 30 Q 258 12 266 9 Q 272 2 280 11 Q 287 15 298 36 Q 308 61 307 93 Q 306 120 307 258 L 307 272 Z" fill="black" /></g></svg>