<?xml version='1.0' encoding='utf-8'?>
<svg xmlns="http://www.w3.org/2000/svg" version="1.1" viewBox="0 0 1024 1024"><g transform="scale(1, -1) translate(0, -900)"><path d="M 714 489 Q 757 577 766 604 Q 782 664 796 676 Q 809 689 792 704 Q 773 717 740 729 Q 719 735 700 724 Q 657 697 595 683 Q 571 679 560 673 Q 553 666 570 658 Q 595 646 631 660 Q 662 670 695 680 Q 714 687 715 666 Q 715 599 674 519 L 652 486 Q 597 432 496 398 Q 481 394 491 386 Q 498 382 525 386 Q 598 395 640 417 Q 662 430 684 451 L 714 489 Z" fill="black" /></g></svg>