<?xml version='1.0' encoding='utf-8'?>
<svg xmlns="http://www.w3.org/2000/svg" version="1.1" viewBox="0 0 1024 1024"><g transform="scale(1, -1) translate(0, -900)"><path d="M 744 144 Q 775 104 799 65 Q 809 46 820 47 Q 838 48 854 84 Q 873 124 869 173 Q 860 270 853 453 Q 852 487 869 510 Q 879 523 869 535 Q 848 556 792 580 Q 773 590 757 580 Q 715 561 587 530 L 560 526 Q 541 525 529 521 C 499 516 519 482 549 487 Q 564 488 740 524 Q 767 530 780 519 Q 810 492 793 175 Q 790 165 781 162 C 765 137 730 162 744 144 Z" fill="black" /></g></svg>