<?xml version='1.0' encoding='utf-8'?>
<svg xmlns="http://www.w3.org/2000/svg" version="1.1" viewBox="0 0 1024 1024"><g transform="scale(1, -1) translate(0, -900)"><path d="M 551 339 Q 521 222 462 162 Q 413 117 329 71 Q 317 64 317 59 Q 318 55 329 54 Q 348 50 391 67 Q 539 112 586 273 Q 590 292 596 313 L 606 383 Q 610 413 611 446 Q 612 498 615 547 L 616 582 Q 617 699 643 772 Q 650 785 638 797 Q 616 816 576 826 Q 551 833 541 826 Q 532 819 540 806 Q 564 769 567 722 Q 571 646 570 573 L 569 539 Q 568 481 563 423 Q 562 401 558 377 L 551 339 Z" fill="black" /></g></svg>