<?xml version='1.0' encoding='utf-8'?>
<svg xmlns="http://www.w3.org/2000/svg" version="1.1" viewBox="0 0 1024 1024"><g transform="scale(1, -1) translate(0, -900)"><path d="M 623 443 Q 624 442 626 438 Q 648 401 668 392 Q 681 383 698 407 Q 719 444 759 648 Q 769 684 796 712 Q 812 725 798 742 Q 780 761 732 791 Q 711 801 619 780 Q 595 779 417 747 Q 350 734 293 725 C 263 720 285 682 314 689 Q 378 705 470 721 L 510 727 Q 564 739 628 746 Q 674 752 688 736 Q 707 714 703 691 Q 669 504 653 476 Q 649 466 639 461 C 623 442 623 444 623 443 Z" fill="black" /></g></svg>