<?xml version='1.0' encoding='utf-8'?>
<svg xmlns="http://www.w3.org/2000/svg" version="1.1" viewBox="0 0 1024 1024"><g transform="scale(1, -1) translate(0, -900)"><path d="M 670 343 Q 689 313 708 304 Q 721 295 737 320 Q 758 357 793 553 Q 803 587 828 613 Q 841 626 829 642 Q 813 661 766 688 Q 744 698 681 679 Q 654 676 533 646 Q 488 636 450 627 C 421 620 446 589 475 598 Q 551 622 681 645 Q 712 651 722 641 Q 741 619 737 597 Q 706 416 691 388 Q 687 375 671 371 C 657 362 657 362 670 343 Z" fill="black" /></g></svg>