<?xml version='1.0' encoding='utf-8'?>
<svg xmlns="http://www.w3.org/2000/svg" version="1.1" viewBox="0 0 1024 1024"><g transform="scale(1, -1) translate(0, -900)"><path d="M 669 633 Q 530 614 380 580 Q 364 576 359 580 Q 358 584 365 594 Q 500 729 528 750 Q 544 759 538 774 Q 534 790 483 824 Q 467 836 454 832 Q 438 828 442 804 Q 451 723 315 613 Q 291 595 260 578 Q 242 566 245 553 Q 249 534 275 507 Q 285 494 302 504 Q 374 553 686 604 Q 690 605 695 606 C 724 611 699 637 669 633 Z" fill="black" /></g></svg>