<?xml version='1.0' encoding='utf-8'?>
<svg xmlns="http://www.w3.org/2000/svg" version="1.1" viewBox="0 0 1024 1024"><g transform="scale(1, -1) translate(0, -900)"><path d="M 654 365 Q 757 389 790 385 Q 803 384 810 373 Q 819 352 785 258 Q 781 242 765 245 Q 738 249 705 257 Q 677 264 697 239 Q 748 190 757 165 Q 764 150 779 153 Q 792 152 808 166 Q 833 193 848 242 Q 864 323 894 351 Q 912 372 899 385 Q 872 410 835 432 Q 822 441 741 420 Q 684 411 654 401 L 608 392 Q 566 385 535 375 L 493 364 Q 477 361 467 357 Q 439 351 424 351 Q 417 352 418 367 Q 430 430 441 440 C 449 458 449 458 428 473 Q 415 486 394 496 Q 382 503 372 496 Q 363 490 373 472 Q 385 447 375 408 Q 360 360 345 342 Q 335 326 345 309 Q 355 282 369 275 Q 379 271 403 288 Q 431 312 490 329 L 534 341 Q 564 348 607 356 L 654 365 Z" fill="black" /></g></svg>