<?xml version='1.0' encoding='utf-8'?>
<svg xmlns="http://www.w3.org/2000/svg" version="1.1" viewBox="0 0 1024 1024"><g transform="scale(1, -1) translate(0, -900)"><path d="M 951 106 Q 933 149 919 225 Q 918 241 909 246 Q 902 250 898 230 Q 885 139 871 121 Q 841 90 714 88 Q 645 91 616 103 Q 591 116 585 134 Q 575 164 576 237 L 577 255 Q 584 339 603 377 Q 616 407 598 425 Q 549 465 533 461 Q 517 455 524 438 Q 543 399 537 344 Q 525 140 551 98 Q 569 62 657 46 Q 718 36 813 38 Q 898 39 933 58 Q 964 74 951 106 Z" fill="black" /></g></svg>