<?xml version='1.0' encoding='utf-8'?>
<svg xmlns="http://www.w3.org/2000/svg" version="1.1" viewBox="0 0 1024 1024"><g transform="scale(1, -1) translate(0, -900)"><path d="M 646 517 Q 691 572 737 655 Q 753 682 778 700 Q 793 707 793 716 Q 793 729 764 745 Q 730 767 716 767 Q 704 767 693 758 Q 668 748 601 727 Q 531 708 509 705 Q 472 704 470 694 Q 469 690 476 686 Q 522 653 657 708 Q 676 714 684 708 Q 690 704 672 659 Q 651 605 605 547 L 579 515 Q 491 418 359 361 Q 349 357 350 352 Q 351 348 358 347 Q 475 347 608 474 Q 611 477 614 480 L 646 517 Z" fill="black" /></g></svg>