<?xml version='1.0' encoding='utf-8'?>
<svg xmlns="http://www.w3.org/2000/svg" version="1.1" viewBox="0 0 1024 1024"><g transform="scale(1, -1) translate(0, -900)"><path d="M 883 452 Q 871 474 852 541 Q 851 554 845 558 Q 839 559 837 545 Q 818 472 805 449 Q 778 416 687 422 Q 653 423 624 436 Q 582 457 580 528 Q 581 589 593 666 C 597 693 597 693 587 700 Q 575 712 555 718 Q 543 722 536 717 Q 530 714 535 698 Q 547 662 545 629 Q 536 449 569 412 Q 585 396 630 379 Q 780 340 879 416 Q 895 429 883 452 Z" fill="black" /></g></svg>