<?xml version='1.0' encoding='utf-8'?>
<svg xmlns="http://www.w3.org/2000/svg" version="1.1" viewBox="0 0 1024 1024"><g transform="scale(1, -1) translate(0, -900)"><path d="M 758 523 Q 795 599 814 614 Q 833 636 806 653 Q 781 672 755 686 Q 739 696 718 687 Q 694 677 658 668 Q 655 668 655 667 L 611 657 Q 575 650 540 640 L 494 628 Q 455 619 430 616 Q 417 616 415 608 Q 414 601 435 590 Q 448 581 496 590 L 539 604 Q 572 613 611 620 L 654 628 Q 679 632 713 638 Q 723 639 728 634 Q 735 619 710 538 C 701 509 745 496 758 523 Z" fill="black" /></g></svg>