<?xml version='1.0' encoding='utf-8'?>
<svg xmlns="http://www.w3.org/2000/svg" version="1.1" viewBox="0 0 1024 1024"><g transform="scale(1, -1) translate(0, -900)"><path d="M 423 29 Q 538 -47 745 -39 L 770 -38 L 790 -35 Q 869 -21 874 8 L 874 12 Q 872 24 830 48 Q 757 104 703 161 Q 690 173 685 171 L 682 169 Q 680 163 698 123 L 723 71 Q 723 42 721 37 Q 715 27 682 29 L 678 29 Q 637 29 602 32 Q 402 51 363 194 Q 357 221 344 227 Q 331 235 324 233 Q 316 231 317 220 Q 317 204 325 173 Q 353 80 423 29 Z" fill="black" /></g></svg>