<?xml version='1.0' encoding='utf-8'?>
<svg xmlns="http://www.w3.org/2000/svg" version="1.1" viewBox="0 0 1024 1024"><g transform="scale(1, -1) translate(0, -900)"><path d="M 563 96 Q 551 54 579 -6 Q 586 -24 594 -27 Q 601 -34 608 -25 Q 615 -21 626 0 Q 635 25 634 57 Q 633 99 633 426 L 633 473 Q 633 488 633 502 L 633 547 Q 633 658 651 728 Q 664 755 640 772 Q 624 784 594 801 Q 570 817 549 802 Q 545 796 551 781 Q 584 733 585 686 Q 586 617 588 539 L 587 416 Q 586 332 586 242 Q 582 166 563 96 Z" fill="black" /></g></svg>