<?xml version='1.0' encoding='utf-8'?>
<svg xmlns="http://www.w3.org/2000/svg" version="1.1" viewBox="0 0 1024 1024"><g transform="scale(1, -1) translate(0, -900)"><path d="M 588 676 Q 603 686 684 690 Q 702 690 707 684 Q 710 675 710 657 Q 709 618 684 510 Q 662 439 645 415 Q 631 396 618 394 Q 610 393 581 404 L 551 415 Q 541 418 541 414 Q 541 412 545 406 Q 574 366 591 323 Q 594 315 598 310 Q 610 295 641 314 Q 670 333 690 363 Q 728 425 774 618 Q 778 635 796 655 Q 809 670 809 676 Q 809 682 801 690 Q 776 713 731 733 Q 710 743 636 723 Q 603 715 589 711 L 392 676 C 362 671 341 653 371 651 L 406 649 L 445 653 L 552 670 L 588 676 Z" fill="black" /></g></svg>