<?xml version='1.0' encoding='utf-8'?>
<svg xmlns="http://www.w3.org/2000/svg" version="1.1" viewBox="0 0 1024 1024"><g transform="scale(1, -1) translate(0, -900)"><path d="M 398 488 Q 435 548 480 643 Q 490 664 500 675 Q 513 685 505 695 Q 496 705 461 717 Q 439 726 393 704 Q 320 683 225 670 Q 212 670 212 661 Q 211 655 225 648 Q 268 627 294 638 Q 403 672 413 672 Q 426 669 416 645 Q 388 572 359 520 L 338 484 Q 271 391 198 329 Q 185 317 194 315 Q 204 314 222 324 Q 292 361 353 428 Q 360 437 369 447 L 398 488 Z" fill="black" /></g></svg>