<?xml version='1.0' encoding='utf-8'?>
<svg xmlns="http://www.w3.org/2000/svg" version="1.1" viewBox="0 0 1024 1024"><g transform="scale(1, -1) translate(0, -900)"><path d="M 679 627 Q 680 540 681 384 Q 680 371 673 365 Q 670 364 606 362 Q 576 369 579 361 Q 580 354 600 344 Q 657 307 673 285 Q 691 258 704 259 Q 717 258 728 289 Q 741 329 736 393 Q 724 514 724 634 L 725 680 Q 729 732 738 763 Q 753 790 704 809 Q 674 825 657 819 Q 642 813 656 793 Q 675 769 677 740 Q 678 731 679 669 L 679 627 Z" fill="black" /></g></svg>