<?xml version='1.0' encoding='utf-8'?>
<svg xmlns="http://www.w3.org/2000/svg" version="1.1" viewBox="0 0 1024 1024"><g transform="scale(1, -1) translate(0, -900)"><path d="M 984 105 Q 966 148 955 225 Q 954 241 946 246 Q 937 250 934 231 Q 918 138 904 122 Q 880 95 775 101 Q 720 105 696 116 Q 660 141 662 250 Q 668 335 684 374 Q 697 405 678 421 Q 659 436 645 444 C 620 461 591 465 602 437 Q 602 436 604 432 Q 623 395 619 340 Q 613 174 624 140 Q 630 109 651 89 Q 694 49 859 45 Q 934 44 964 57 Q 995 72 984 105 Z" fill="black" /></g></svg>