<?xml version='1.0' encoding='utf-8'?>
<svg xmlns="http://www.w3.org/2000/svg" version="1.1" viewBox="0 0 1024 1024"><g transform="scale(1, -1) translate(0, -900)"><path d="M 653 633 Q 699 646 740 653 Q 756 656 760 651 Q 769 636 762 598 Q 749 492 723 446 Q 708 419 685 423 Q 657 435 634 448 Q 612 457 626 434 Q 669 388 689 352 Q 708 331 725 348 Q 779 387 802 502 Q 823 634 837 651 Q 850 664 843 674 Q 834 684 784 707 Q 763 714 745 702 Q 726 690 653 672 Q 580 651 517 646 Q 499 645 497 636 Q 496 627 520 616 Q 545 600 565 608 Q 587 615 612 622 L 653 633 Z" fill="black" /></g></svg>