<?xml version='1.0' encoding='utf-8'?>
<svg xmlns="http://www.w3.org/2000/svg" version="1.1" viewBox="0 0 1024 1024"><g transform="scale(1, -1) translate(0, -900)"><path d="M 356 410 Q 356 347 367 318 Q 374 308 382 314 Q 397 332 398 429 L 398 466 Q 398 506 398 542 L 398 590 Q 398 620 398 650 L 399 702 Q 400 727 404 742 Q 411 761 399 773 Q 383 786 354 798 Q 332 805 310 795 Q 300 786 314 772 Q 344 721 344 681 L 349 636 Q 352 606 353 570 L 355 528 Q 355 491 356 452 L 356 410 Z" fill="black" /></g></svg>