<?xml version='1.0' encoding='utf-8'?>
<svg xmlns="http://www.w3.org/2000/svg" version="1.1" viewBox="0 0 1024 1024"><g transform="scale(1, -1) translate(0, -900)"><path d="M 556 578 Q 617 588 688 591 Q 707 590 715 579 Q 722 572 717 558 Q 708 428 697 409 Q 693 397 678 401 Q 650 405 621 411 Q 591 414 612 394 Q 675 340 699 302 Q 708 289 720 297 Q 747 318 764 421 Q 774 527 795 552 Q 811 574 805 581 Q 798 594 746 629 Q 727 644 712 637 Q 682 627 629 619 Q 484 603 410 587 L 379 580 Q 375 580 374 579 Q 326 569 292 564 C 262 559 282 516 311 523 Q 321 523 332 527 Q 357 537 396 547 L 425 554 Q 464 569 519 573 L 556 578 Z" fill="black" /></g></svg>