<?xml version='1.0' encoding='utf-8'?>
<svg xmlns="http://www.w3.org/2000/svg" version="1.1" viewBox="0 0 1024 1024"><g transform="scale(1, -1) translate(0, -900)"><path d="M 586 346 Q 604 328 631 276 Q 644 257 660 270 Q 694 297 702 430 Q 712 628 732 664 Q 745 686 725 700 Q 698 722 662 737 Q 647 746 603 730 Q 429 694 406 690 L 376 686 Q 363 686 350 683 C 320 679 356 637 385 646 Q 384 647 386 647 Q 608 710 640 690 Q 650 684 652 659 Q 653 523 634 380 Q 633 370 618 369 C 595 349 584 349 586 346 Z" fill="black" /></g></svg>