<?xml version='1.0' encoding='utf-8'?>
<svg xmlns="http://www.w3.org/2000/svg" version="1.1" viewBox="0 0 1024 1024"><g transform="scale(1, -1) translate(0, -900)"><path d="M 490 618 Q 577 648 760 680 Q 778 683 786 673 Q 799 666 805 601 Q 821 387 811 142 Q 811 106 797 96 Q 784 89 719 108 Q 701 112 702 103 Q 703 94 716 87 Q 773 35 802 -5 Q 824 -27 838 -24 Q 851 -21 864 9 Q 883 58 883 130 Q 865 460 867 582 Q 868 622 880 646 Q 893 668 882 680 Q 872 696 823 721 Q 801 733 740 712 Q 599 673 458 653 C 428 649 461 609 490 618 Z" fill="black" /></g></svg>