<?xml version='1.0' encoding='utf-8'?>
<svg xmlns="http://www.w3.org/2000/svg" version="1.1" viewBox="0 0 1024 1024"><g transform="scale(1, -1) translate(0, -900)"><path d="M 448 285 Q 464 295 485 308 Q 549 348 609 420 Q 622 438 638 457 L 665 495 Q 696 544 731 607 Q 749 638 777 657 Q 795 666 794 676 Q 794 691 762 709 Q 723 734 708 734 Q 695 733 683 724 Q 614 697 562 681 C 533 672 512 654 542 650 Q 578 638 640 670 Q 662 677 673 671 Q 680 665 658 610 Q 643 570 617 528 L 596 495 Q 491 336 296 250 Q 293 249 292 248 C 265 235 262 232 292 235 Q 343 235 430 275 L 448 285 Z" fill="black" /></g></svg>