<?xml version='1.0' encoding='utf-8'?>
<svg xmlns="http://www.w3.org/2000/svg" version="1.1" viewBox="0 0 1024 1024"><g transform="scale(1, -1) translate(0, -900)"><path d="M 912 85 Q 893 142 883 237 Q 882 253 873 258 Q 866 262 862 243 Q 849 123 831 101 Q 795 64 646 59 Q 564 60 529 75 Q 498 90 492 111 Q 485 133 486 190 Q 492 253 505 282 Q 506 289 509 295 C 516 316 516 316 500 328 Q 499 329 498 330 Q 447 367 432 363 Q 417 357 424 340 Q 445 303 440 247 Q 434 105 464 65 Q 491 26 583 14 Q 652 4 759 11 Q 856 17 894 38 Q 924 54 912 85 Z" fill="black" /></g></svg>