<?xml version='1.0' encoding='utf-8'?>
<svg xmlns="http://www.w3.org/2000/svg" version="1.1" viewBox="0 0 1024 1024"><g transform="scale(1, -1) translate(0, -900)"><path d="M 354 754 Q 332 773 312 783 Q 293 790 284 784 Q 274 777 283 762 Q 337 654 304 420 Q 294 380 263 339 Q 250 323 258 300 Q 268 272 282 261 Q 295 252 307 270 Q 322 295 451 400 Q 470 413 476 422 Q 480 432 470 432 Q 467 432 370 392 Q 354 385 354 399 Q 358 466 360 525 L 360 543 Q 361 583 361 620 L 361 643 Q 361 703 364 720 C 366 744 366 744 354 754 Z" fill="black" /></g></svg>