<?xml version='1.0' encoding='utf-8'?>
<svg xmlns="http://www.w3.org/2000/svg" version="1.1" viewBox="0 0 1024 1024"><g transform="scale(1, -1) translate(0, -900)"><path d="M 493 590 Q 638 620 655 603 Q 662 600 665 569 Q 683 344 664 327 Q 651 317 587 326 Q 572 327 574 319 Q 575 312 587 308 Q 645 271 677 242 Q 696 224 708 227 Q 718 231 728 257 Q 741 299 730 432 Q 718 556 733 587 Q 743 606 734 617 Q 724 630 680 652 Q 662 661 590 641 Q 469 613 314 595 C 284 591 298 552 328 557 Q 332 557 339 558 Q 393 571 453 583 L 493 590 Z" fill="black" /></g></svg>