<?xml version='1.0' encoding='utf-8'?>
<svg xmlns="http://www.w3.org/2000/svg" version="1.1" viewBox="0 0 1024 1024"><g transform="scale(1, -1) translate(0, -900)"><path d="M 471 293 Q 475 274 480 266 Q 484 262 490 263 Q 499 267 508 315 Q 511 346 512 376 L 512 414 Q 513 439 515 476 L 517 515 Q 517 516 518 518 Q 519 533 524 554 Q 527 567 516 576 Q 503 586 493 590 C 466 603 439 610 453 583 Q 454 582 456 578 Q 457 574 461 569 Q 467 557 468 500 L 469 466 Q 469 438 469 404 L 469 370 Q 469 313 471 293 Z" fill="black" /></g></svg>