<?xml version='1.0' encoding='utf-8'?>
<svg xmlns="http://www.w3.org/2000/svg" version="1.1" viewBox="0 0 1024 1024"><g transform="scale(1, -1) translate(0, -900)"><path d="M 585 283 Q 585 124 567 56 Q 558 20 582 -36 Q 589 -52 596 -55 Q 602 -61 608 -54 Q 615 -50 624 -30 Q 633 -8 632 21 Q 631 57 630 357 L 630 389 Q 630 456 634 496 L 638 531 Q 639 544 644 556 Q 653 569 650 582 Q 643 591 602 614 C 576 629 537 629 553 603 Q 580 566 581 515 L 582 485 Q 583 448 586 407 Q 585 394 585 378 L 585 283 Z" fill="black" /></g></svg>