<?xml version='1.0' encoding='utf-8'?>
<svg xmlns="http://www.w3.org/2000/svg" version="1.1" viewBox="0 0 1024 1024"><g transform="scale(1, -1) translate(0, -900)"><path d="M 477 447 Q 464 460 442 466 Q 429 470 421 465 Q 414 461 420 444 Q 433 405 432 368 Q 425 154 443 96 Q 450 63 481 36 Q 584 -39 800 -9 Q 825 -3 853 4 Q 908 22 962 61 Q 983 80 966 107 Q 951 132 926 209 Q 925 225 917 230 Q 910 233 907 214 Q 885 129 869 101 Q 821 41 660 46 Q 597 47 548 68 Q 502 89 490 117 Q 466 163 471 266 L 473 297 Q 476 352 485 415 C 488 440 488 440 477 447 Z" fill="black" /></g></svg>