<?xml version='1.0' encoding='utf-8'?>
<svg xmlns="http://www.w3.org/2000/svg" version="1.1" viewBox="0 0 1024 1024"><g transform="scale(1, -1) translate(0, -900)"><path d="M 662 301 Q 653 325 629 340 L 618 345 Q 615 348 610 350 Q 591 357 580 352 Q 567 346 580 333 Q 599 317 610 293 L 620 258 Q 633 200 629 139 Q 626 78 608 42 Q 595 21 565 30 Q 535 40 508 49 Q 498 53 501 42 Q 504 35 521 20 Q 557 -17 567 -43 Q 576 -61 591 -59 Q 604 -59 631 -36 Q 691 18 684 169 Q 683 224 673 264 L 662 301 Z" fill="black" /></g></svg>