<?xml version='1.0' encoding='utf-8'?>
<svg xmlns="http://www.w3.org/2000/svg" version="1.1" viewBox="0 0 1024 1024"><g transform="scale(1, -1) translate(0, -900)"><path d="M 553 543 Q 540 559 518 569 Q 499 579 495 569 Q 491 560 497 551 Q 513 520 508 485 Q 498 431 484 380 L 472 341 Q 439 257 415 228 Q 376 191 379 179 Q 383 163 400 147 Q 416 131 437 149 Q 488 185 651 182 Q 690 182 716 177 L 779 170 Q 825 164 874 151 Q 890 145 904 151 Q 916 155 911 169 Q 904 188 884 201 Q 871 217 844 215 Q 825 215 784 216 L 724 218 Q 627 219 478 206 Q 463 205 469 223 Q 491 281 515 348 L 526 384 Q 544 441 560 511 C 565 532 565 532 553 543 Z" fill="black" /></g></svg>