<?xml version='1.0' encoding='utf-8'?>
<svg xmlns="http://www.w3.org/2000/svg" version="1.1" viewBox="0 0 1024 1024"><g transform="scale(1, -1) translate(0, -900)"><path d="M 581 309 Q 581 171 556 76 Q 546 36 574 -30 Q 581 -48 589 -51 Q 596 -58 603 -49 Q 612 -45 622 -23 Q 632 4 630 36 Q 627 76 625 330 L 625 369 Q 625 382 625 395 L 625 426 Q 624 475 624 530 L 624 559 Q 624 587 624 616 Q 623 640 624 662 L 626 709 Q 630 758 641 798 Q 650 814 647 828 Q 640 838 581 872 Q 556 890 535 873 Q 529 867 537 852 Q 574 798 576 744 Q 576 720 577 694 L 579 650 Q 580 601 581 550 L 581 522 Q 581 471 581 418 L 581 309 Z" fill="black" /></g></svg>