<?xml version='1.0' encoding='utf-8'?>
<svg xmlns="http://www.w3.org/2000/svg" version="1.1" viewBox="0 0 1024 1024"><g transform="scale(1, -1) translate(0, -900)"><path d="M 709 428 Q 727 398 744 389 Q 756 379 773 402 Q 792 435 835 612 Q 845 646 871 672 Q 886 685 874 701 Q 858 720 812 749 Q 790 759 773 752 Q 736 745 690 736 Q 627 726 548 711 Q 490 699 442 691 C 412 686 439 647 468 656 Q 505 669 559 677 L 603 686 Q 655 696 722 705 Q 759 711 770 698 Q 786 677 782 658 Q 742 472 722 457 C 707 432 707 432 709 428 Z" fill="black" /></g></svg>