<?xml version='1.0' encoding='utf-8'?>
<svg xmlns="http://www.w3.org/2000/svg" version="1.1" viewBox="0 0 1024 1024"><g transform="scale(1, -1) translate(0, -900)"><path d="M 661 321 L 672 306 L 710 251 Q 718 237 727 237 Q 741 238 755 263 Q 778 304 776 357 Q 776 362 776 365 Q 766 455 760 621 Q 759 649 774 674 Q 783 688 782 694 Q 772 715 703 747 Q 684 758 667 747 Q 592 719 415 692 L 388 688 Q 345 686 316 684 C 286 682 304 647 334 651 Q 345 652 358 654 Q 435 666 456 669 L 474 672 Q 606 697 635 700 Q 668 703 686 688 Q 705 673 705 466 L 705 445 Q 705 386 700 367 Q 696 350 682 354 Q 680 355 670 360 Q 636 377 633 370 C 625 372 644 345 661 321 Z" fill="black" /></g></svg>