<?xml version='1.0' encoding='utf-8'?>
<svg xmlns="http://www.w3.org/2000/svg" version="1.1" viewBox="0 0 1024 1024"><g transform="scale(1, -1) translate(0, -900)"><path d="M 444 398 Q 451 399 460 404 Q 523 422 529 418 Q 533 414 531 397 Q 521 271 598 252 Q 634 242 685 244 Q 731 247 768 268 Q 786 280 776 300 Q 751 346 744 398 Q 740 405 736 405 Q 733 405 728 394 Q 716 316 696 302 Q 617 278 589 305 Q 579 314 574 335 Q 570 356 579 386 Q 583 402 593 412 Q 606 421 596 432 Q 584 445 558 455 Q 539 462 526 455 Q 501 440 439 423 C 410 415 416 388 444 398 Z" fill="black" /></g></svg>