<?xml version='1.0' encoding='utf-8'?>
<svg xmlns="http://www.w3.org/2000/svg" version="1.1" viewBox="0 0 1024 1024"><g transform="scale(1, -1) translate(0, -900)"><path d="M 456 16 Q 553 -43 725 -31 Q 747 -29 755 -28 Q 809 -24 858 0 L 864 3 Q 906 26 870 51 L 846 67 Q 804 96 773 123 Q 759 136 725 170 Q 715 181 710 178 L 708 176 Q 705 172 719 136 L 739 88 Q 748 63 745 54 Q 741 35 698 34 Q 531 23 502 52 Q 486 69 464 76 Q 437 87 433 90 Q 406 107 385 167 Q 376 192 363 196 Q 356 200 349 200 Q 337 202 337 188 L 349 149 Q 378 61 456 16 Z" fill="black" /></g></svg>