<?xml version='1.0' encoding='utf-8'?>
<svg xmlns="http://www.w3.org/2000/svg" version="1.1" viewBox="0 0 1024 1024"><g transform="scale(1, -1) translate(0, -900)"><path d="M 751 616 Q 742 582 706 524 L 685 497 Q 636 449 589 421 Q 582 417 582 412 Q 583 408 590 408 Q 665 420 712 466 L 742 495 Q 779 544 813 619 Q 826 647 850 665 Q 863 674 863 683 Q 862 695 833 708 Q 799 727 785 727 Q 775 726 764 717 Q 656 677 624 672 Q 590 671 587 662 Q 586 658 593 654 Q 606 644 636 641 Q 670 642 729 670 Q 751 679 760 673 Q 767 669 751 616 Z" fill="black" /></g></svg>