<?xml version='1.0' encoding='utf-8'?>
<svg xmlns="http://www.w3.org/2000/svg" version="1.1" viewBox="0 0 1024 1024"><g transform="scale(1, -1) translate(0, -900)"><path d="M 291 578 Q 296 650 312 731 Q 318 741 318 756 Q 318 765 255 804 Q 239 815 223 812 Q 220 811 218 811 Q 207 808 208 796 L 211 785 Q 244 735 244 686 Q 244 651 246 529 Q 237 214 237 225 Q 233 147 210 74 Q 200 37 223 -29 Q 227 -41 233 -47 Q 245 -59 253 -49 Q 280 -33 280 33 L 284 276 Q 281 398 290 539 L 290 553 L 291 578 Z" fill="black" /></g></svg>