<?xml version='1.0' encoding='utf-8'?>
<svg xmlns="http://www.w3.org/2000/svg" version="1.1" viewBox="0 0 1024 1024"><g transform="scale(1, -1) translate(0, -900)"><path d="M 483 144 Q 473 107 497 49 Q 504 33 511 29 Q 517 23 524 30 Q 531 34 541 55 Q 550 77 549 107 Q 548 135 548 319 L 549 319 L 548 318 Q 548 317 548 319 Q 549 407 551 529 Q 551 608 565 661 Q 574 676 571 688 Q 564 697 511 729 Q 489 745 470 730 Q 466 726 471 711 Q 499 671 499 632 Q 500 595 501 551 L 502 516 Q 502 477 502 438 L 502 399 Q 501 356 501 310 L 501 281 Q 501 215 483 144 Z" fill="black" /></g></svg>