<?xml version='1.0' encoding='utf-8'?>
<svg xmlns="http://www.w3.org/2000/svg" version="1.1" viewBox="0 0 1024 1024"><g transform="scale(1, -1) translate(0, -900)"><path d="M 715 299 Q 715 350 715 408 L 715 435 Q 715 484 715 536 L 715 568 Q 715 677 732 740 Q 745 767 720 784 Q 704 796 674 813 Q 650 829 629 813 Q 625 809 631 793 Q 665 744 666 685 Q 681 232 649 98 Q 646 94 646 88 Q 637 45 663 -14 Q 670 -32 678 -35 Q 685 -42 692 -34 Q 719 -10 718 49 Q 717 82 715 266 L 715 299 Z" fill="black" /></g></svg>