<?xml version='1.0' encoding='utf-8'?>
<svg xmlns="http://www.w3.org/2000/svg" version="1.1" viewBox="0 0 1024 1024"><g transform="scale(1, -1) translate(0, -900)"><path d="M 785 548 Q 797 103 773 68 Q 769 61 748 66 Q 718 72 688 79 Q 667 85 668 75 Q 732 23 766 -13 Q 781 -32 797 -38 Q 807 -42 815 -31 Q 858 23 854 79 Q 839 311 833 687 Q 832 748 846 776 Q 858 797 845 808 Q 823 827 783 842 Q 761 851 716 826 Q 673 808 596 798 C 566 794 583 762 613 767 Q 647 771 736 794 Q 755 797 764 787 Q 779 772 778 724 Q 781 651 783 581 L 785 548 Z" fill="black" /></g></svg>