<?xml version='1.0' encoding='utf-8'?>
<svg xmlns="http://www.w3.org/2000/svg" version="1.1" viewBox="0 0 1024 1024"><g transform="scale(1, -1) translate(0, -900)"><path d="M 714 392 Q 718 377 732 377 Q 747 378 756 393 Q 768 406 793 472 Q 812 526 853 554 Q 872 570 857 587 Q 839 606 788 636 Q 773 646 710 633 Q 641 624 631 621 L 592 614 Q 579 614 477 593 C 448 587 461 550 490 559 Q 557 581 713 599 Q 741 600 752 596 Q 761 589 754 560 Q 742 508 713 421 C 707 402 707 402 714 392 Z" fill="black" /></g></svg>