<?xml version='1.0' encoding='utf-8'?>
<svg xmlns="http://www.w3.org/2000/svg" version="1.1" viewBox="0 0 1024 1024"><g transform="scale(1, -1) translate(0, -900)"><path d="M 583 259 Q 595 295 609 314 Q 618 321 614 329 Q 610 341 581 360 C 557 377 546 383 550 353 Q 559 331 537 252 L 525 218 Q 501 170 503 158 Q 506 149 521 147 Q 561 138 604 117 L 648 95 Q 709 61 801 -7 Q 825 -25 840 -24 Q 859 -23 858 -6 Q 858 13 831 53 Q 813 81 676 129 L 627 146 Q 590 159 561 166 Q 542 170 551 189 Q 560 210 567 226 L 583 259 Z" fill="black" /></g></svg>