<?xml version='1.0' encoding='utf-8'?>
<svg xmlns="http://www.w3.org/2000/svg" version="1.1" viewBox="0 0 1024 1024"><g transform="scale(1, -1) translate(0, -900)"><path d="M 542 359 Q 549 362 560 365 Q 678 393 698 385 Q 710 379 708 354 Q 721 183 712 50 Q 711 22 694 18 Q 685 17 638 36 Q 626 40 626 33 Q 626 24 640 14 Q 671 -20 695 -53 Q 708 -69 724 -70 Q 740 -67 760 -20 Q 785 28 781 76 Q 774 193 765 300 Q 761 342 779 376 Q 789 391 776 404 Q 760 419 723 432 Q 702 442 685 430 Q 669 423 638 412 Q 574 394 538 386 C 509 379 513 350 542 359 Z" fill="black" /></g></svg>