<?xml version='1.0' encoding='utf-8'?>
<svg xmlns="http://www.w3.org/2000/svg" version="1.1" viewBox="0 0 1024 1024"><g transform="scale(1, -1) translate(0, -900)"><path d="M 602 712 Q 660 725 728 732 Q 747 732 754 720 Q 770 713 777 643 Q 799 412 794 149 Q 795 110 780 100 Q 770 93 715 104 Q 697 110 698 99 Q 699 90 712 83 Q 761 34 786 -1 Q 808 -23 823 -20 Q 836 -17 849 14 Q 865 63 865 135 Q 838 496 838 631 Q 838 671 851 696 Q 864 718 853 730 Q 843 746 793 771 Q 769 783 693 761 Q 519 731 445 723 C 415 719 439 680 468 686 Q 511 696 558 704 L 602 712 Z" fill="black" /></g></svg>