<?xml version='1.0' encoding='utf-8'?>
<svg xmlns="http://www.w3.org/2000/svg" version="1.1" viewBox="0 0 1024 1024"><g transform="scale(1, -1) translate(0, -900)"><path d="M 662 411 Q 662 412 665 413 Q 713 432 748 442 Q 755 443 758 442 Q 765 432 761 407 Q 757 337 740 305 Q 727 280 706 284 Q 690 288 675 293 Q 656 299 670 281 Q 698 250 712 225 Q 725 210 739 223 Q 785 253 806 392 Q 810 426 823 443 Q 832 453 827 461 Q 820 468 779 484 Q 763 490 749 479 Q 739 472 701 458 Q 673 448 650 442 C 621 434 635 399 662 411 Z" fill="black" /></g></svg>