<?xml version='1.0' encoding='utf-8'?>
<svg xmlns="http://www.w3.org/2000/svg" version="1.1" viewBox="0 0 1024 1024"><g transform="scale(1, -1) translate(0, -900)"><path d="M 694 387 Q 793 411 812 393 Q 819 365 794 227 Q 773 122 736 68 Q 720 44 705 44 Q 695 43 637 65 Q 627 69 627 64 Q 626 60 636 49 Q 666 4 677 -26 Q 684 -45 695 -46 Q 711 -50 729 -35 Q 795 4 827 119 Q 852 197 876 318 Q 880 346 901 365 Q 916 377 915 386 Q 914 393 896 408 Q 871 430 836 443 Q 815 452 742 432 Q 729 431 715 426 Q 607 404 524 393 C 494 389 474 377 504 372 Q 505 372 508 371 Q 520 368 534 367 L 568 368 Q 580 372 657 381 L 694 387 Z" fill="black" /></g></svg>