<?xml version='1.0' encoding='utf-8'?>
<svg xmlns="http://www.w3.org/2000/svg" version="1.1" viewBox="0 0 1024 1024"><g transform="scale(1, -1) translate(0, -900)"><path d="M 660 522 Q 679 494 697 486 Q 707 479 720 499 Q 736 530 759 689 Q 766 717 786 740 Q 798 750 787 763 Q 774 778 734 801 Q 715 808 701 802 Q 679 796 649 790 Q 610 783 560 771 Q 529 764 504 759 C 475 753 490 724 519 732 Q 573 748 668 763 Q 690 766 698 759 Q 714 743 711 724 Q 692 577 677 547 C 667 519 655 529 660 522 Z" fill="black" /></g></svg>