<?xml version='1.0' encoding='utf-8'?>
<svg xmlns="http://www.w3.org/2000/svg" version="1.1" viewBox="0 0 1024 1024"><g transform="scale(1, -1) translate(0, -900)"><path d="M 503 282 Q 493 292 475 298 Q 465 302 456 298 Q 450 294 455 278 Q 465 244 463 209 Q 456 83 466 48 Q 470 24 492 6 Q 573 -57 738 -25 Q 750 -22 764 -19 Q 804 -7 845 20 Q 863 33 850 57 Q 838 76 820 136 Q 819 149 813 154 Q 807 157 804 141 Q 782 75 767 55 Q 752 39 713 28 Q 617 4 546 34 Q 516 47 509 65 Q 487 113 513 249 C 517 273 517 273 503 282 Z" fill="black" /></g></svg>