<?xml version='1.0' encoding='utf-8'?>
<svg xmlns="http://www.w3.org/2000/svg" version="1.1" viewBox="0 0 1024 1024"><g transform="scale(1, -1) translate(0, -900)"><path d="M 474 666 Q 601 699 756 722 Q 778 726 788 714 Q 803 705 808 638 Q 824 412 813 153 Q 812 116 798 105 Q 788 98 730 109 Q 714 113 714 103 Q 715 96 728 88 Q 779 42 804 8 Q 826 -13 839 -11 Q 852 -8 864 22 Q 882 68 881 138 Q 856 645 878 691 Q 891 713 880 725 Q 870 740 821 765 Q 797 777 736 756 Q 598 723 449 705 C 419 701 445 659 474 666 Z" fill="black" /></g></svg>