<?xml version='1.0' encoding='utf-8'?>
<svg xmlns="http://www.w3.org/2000/svg" version="1.1" viewBox="0 0 1024 1024"><g transform="scale(1, -1) translate(0, -900)"><path d="M 705 179 Q 736 234 765 314 Q 775 339 792 356 Q 808 371 797 382 Q 785 392 757 403 Q 736 409 712 396 Q 693 387 665 379 Q 637 370 591 363 Q 578 362 574 356 Q 571 350 587 343 Q 618 331 662 344 Q 690 359 696 359 Q 718 358 712 333 Q 699 264 672 213 L 653 180 Q 590 95 467 55 Q 455 51 466 43 Q 470 39 509 41 Q 605 50 681 143 L 705 179 Z" fill="black" /></g></svg>