<?xml version='1.0' encoding='utf-8'?>
<svg xmlns="http://www.w3.org/2000/svg" version="1.1" viewBox="0 0 1024 1024"><g transform="scale(1, -1) translate(0, -900)"><path d="M 677 67 Q 707 30 728 -7 Q 738 -26 748 -25 Q 764 -24 781 10 Q 799 47 796 94 Q 789 154 783 265 Q 782 296 797 318 Q 806 331 797 340 Q 778 359 726 382 Q 708 391 694 381 Q 621 342 515 324 C 485 319 504 289 534 294 Q 561 297 685 331 Q 704 335 715 329 Q 739 299 724 100 L 724 98 Q 720 88 715 85 C 701 59 660 89 677 67 Z" fill="black" /></g></svg>