<?xml version='1.0' encoding='utf-8'?>
<svg xmlns="http://www.w3.org/2000/svg" version="1.1" viewBox="0 0 1024 1024"><g transform="scale(1, -1) translate(0, -900)"><path d="M 436 391 Q 443 392 453 396 Q 576 444 778 462 Q 796 462 805 453 Q 812 446 809 431 Q 812 170 795 133 Q 792 124 781 127 Q 751 131 718 139 Q 693 140 711 125 Q 778 76 807 41 Q 823 25 838 39 Q 857 61 865 95 Q 875 131 864 325 Q 858 397 878 434 Q 891 453 885 461 Q 878 474 828 502 Q 809 515 795 509 Q 768 497 718 487 Q 661 480 618 472 L 575 464 Q 530 458 413 429 C 384 422 407 382 436 391 Z" fill="black" /></g></svg>