<?xml version='1.0' encoding='utf-8'?>
<svg xmlns="http://www.w3.org/2000/svg" version="1.1" viewBox="0 0 1024 1024"><g transform="scale(1, -1) translate(0, -900)"><path d="M 676 638 Q 710 645 747 650 Q 766 651 770 645 Q 780 626 768 578 Q 738 443 698 388 Q 680 360 654 365 Q 636 369 622 373 Q 600 380 615 358 Q 645 324 658 297 Q 679 272 701 291 Q 735 313 761 356 Q 791 405 817 559 Q 827 614 848 640 Q 860 652 854 661 Q 847 671 800 695 Q 782 704 764 693 Q 742 680 656 664 Q 574 646 505 643 C 475 641 462 636 488 622 Q 492 621 500 616 Q 506 612 512 609 C 524 602 524 602 545 608 Q 591 621 635 630 L 676 638 Z" fill="black" /></g></svg>