<?xml version='1.0' encoding='utf-8'?>
<svg xmlns="http://www.w3.org/2000/svg" version="1.1" viewBox="0 0 1024 1024"><g transform="scale(1, -1) translate(0, -900)"><path d="M 632 564 Q 668 467 776 385 Q 791 376 808 366 Q 863 335 896 331 Q 921 334 915 366 Q 902 391 885 518 Q 884 531 878 533 Q 871 533 869 518 Q 860 490 852 463 Q 842 427 829 427 Q 796 424 732 494 Q 687 545 672 579 L 656 616 Q 647 653 650 676 Q 651 694 616 709 L 614 709 C 587 721 558 719 573 693 Q 583 681 616 598 L 632 564 Z" fill="black" /></g></svg>