<?xml version='1.0' encoding='utf-8'?>
<svg xmlns="http://www.w3.org/2000/svg" version="1.1" viewBox="0 0 1024 1024"><g transform="scale(1, -1) translate(0, -900)"><path d="M 281 594 Q 269 603 249 608 Q 234 612 222 602 Q 215 598 229 584 Q 248 562 255 518 Q 262 473 252 457 Q 248 442 258 427 Q 273 411 283 418 Q 302 436 357 452 Q 379 459 387 451 Q 394 444 395 354 C 395 324 449 333 448 363 Q 445 427 460 449 Q 473 459 463 470 Q 451 485 408 498 Q 398 502 379 491 Q 354 481 318 471 Q 302 467 301 485 Q 295 548 297 565 C 298 584 298 584 281 594 Z" fill="black" /></g></svg>