<?xml version='1.0' encoding='utf-8'?>
<svg xmlns="http://www.w3.org/2000/svg" version="1.1" viewBox="0 0 1024 1024"><g transform="scale(1, -1) translate(0, -900)"><path d="M 735 533 Q 735 534 736 534 Q 749 574 783 607 Q 802 625 791 638 Q 769 657 731 673 Q 715 682 698 675 Q 673 665 616 648 Q 603 644 602 658 Q 611 728 617 742 Q 624 761 610 771 Q 604 775 599 780 C 576 799 546 803 553 774 Q 574 693 549 640 Q 540 622 560 600 Q 573 587 587 597 Q 615 622 686 636 Q 702 637 709 627 Q 716 614 694 551 Q 693 547 690 539 C 680 511 723 505 735 533 Z" fill="black" /></g></svg>