<?xml version='1.0' encoding='utf-8'?>
<svg xmlns="http://www.w3.org/2000/svg" version="1.1" viewBox="0 0 1024 1024"><g transform="scale(1, -1) translate(0, -900)"><path d="M 490 419 Q 491 453 495 471 Q 498 481 491 487 Q 472 505 456 512 Q 446 516 438 509 Q 434 506 439 498 Q 448 483 450 454 Q 450 435 451 409 L 451 373 Q 450 337 449 292 L 446 248 Q 440 131 430 101 Q 424 64 451 26 Q 461 10 467 6 Q 477 5 481 16 Q 491 43 489 69 Q 486 172 487 262 L 487 304 Q 487 343 488 384 L 490 419 Z" fill="black" /></g></svg>