<?xml version='1.0' encoding='utf-8'?>
<svg xmlns="http://www.w3.org/2000/svg" version="1.1" viewBox="0 0 1024 1024"><g transform="scale(1, -1) translate(0, -900)"><path d="M 608 592 Q 580 588 551 581 Q 494 569 448 561 C 418 556 440 520 469 529 Q 508 542 563 553 L 607 562 Q 749 592 767 575 Q 777 560 775 546 Q 748 417 734 401 C 721 374 720 373 723 369 Q 738 345 753 337 Q 763 330 778 350 Q 793 372 825 498 Q 834 528 857 552 Q 870 564 859 578 Q 844 594 803 621 Q 788 630 711 611 Q 681 608 637 597 L 608 592 Z" fill="black" /></g></svg>