<?xml version='1.0' encoding='utf-8'?>
<svg xmlns="http://www.w3.org/2000/svg" version="1.1" viewBox="0 0 1024 1024"><g transform="scale(1, -1) translate(0, -900)"><path d="M 488 384 Q 525 394 560 398 Q 588 399 579 413 Q 570 425 555 431 Q 543 435 490 419 L 451 409 Q 427 405 400 398 Q 385 395 383 398 Q 376 413 440 583 L 459 633 Q 492 724 507 740 Q 519 752 502 769 Q 477 793 457 804 Q 444 810 435 807 Q 428 803 434 783 Q 444 753 413 618 L 401 576 Q 353 432 320 395 Q 296 368 329 338 Q 339 329 348 335 Q 376 353 451 373 L 488 384 Z" fill="black" /></g></svg>