<?xml version='1.0' encoding='utf-8'?>
<svg xmlns="http://www.w3.org/2000/svg" version="1.1" viewBox="0 0 1024 1024"><g transform="scale(1, -1) translate(0, -900)"><path d="M 337 452 Q 336 453 338 453 Q 429 486 533 578 L 557 601 Q 659 704 672 710 Q 687 714 688 723 Q 689 735 666 754 Q 638 779 626 782 Q 616 783 604 777 Q 567 767 452 749 C 422 744 395 731 424 724 Q 466 706 564 734 Q 580 735 586 730 Q 590 726 568 692 Q 546 659 515 627 L 495 608 Q 491 605 487 600 Q 351 476 160 439 Q 150 438 150 433 Q 150 429 157 427 Q 200 417 300 439 L 337 452 Z" fill="black" /></g></svg>