<?xml version='1.0' encoding='utf-8'?>
<svg xmlns="http://www.w3.org/2000/svg" version="1.1" viewBox="0 0 1024 1024"><g transform="scale(1, -1) translate(0, -900)"><path d="M 535 770 Q 501 795 493 786 Q 489 779 490 770 Q 515 734 507 653 L 502 619 Q 496 574 471 544 Q 467 537 470 527 Q 476 514 492 501 Q 499 495 509 502 Q 540 524 636 531 Q 697 534 726 513 C 752 498 741 540 716 557 Q 665 596 636 574 Q 635 575 634 574 L 597 566 Q 563 560 534 552 Q 521 548 523 560 Q 530 597 535 625 L 541 657 Q 545 682 547 698 Q 547 725 550 741 C 552 758 552 758 535 770 Z" fill="black" /></g></svg>