<?xml version='1.0' encoding='utf-8'?>
<svg xmlns="http://www.w3.org/2000/svg" version="1.1" viewBox="0 0 1024 1024"><g transform="scale(1, -1) translate(0, -900)"><path d="M 452 704 Q 442 714 415 728 Q 393 740 385 733 Q 378 726 385 710 Q 403 674 403 609 Q 407 362 381 134 Q 377 94 352 58 Q 342 43 350 22 Q 357 0 368 -10 Q 378 -17 396 -6 Q 460 34 553 48 Q 661 64 867 56 Q 892 55 894 67 Q 894 83 865 104 Q 846 120 715 99 Q 531 87 461 75 Q 433 68 432 98 Q 445 312 453 583 Q 454 673 462 679 C 465 695 465 695 452 704 Z" fill="black" /></g></svg>