<?xml version='1.0' encoding='utf-8'?>
<svg xmlns="http://www.w3.org/2000/svg" version="1.1" viewBox="0 0 1024 1024"><g transform="scale(1, -1) translate(0, -900)"><path d="M 594 252 Q 607 233 621 226 Q 631 219 644 238 Q 656 259 681 372 Q 690 400 711 422 Q 723 434 712 446 Q 699 462 660 485 Q 648 491 566 477 Q 550 477 447 460 Q 398 451 357 446 C 327 442 341 410 371 415 Q 375 415 380 416 Q 419 425 476 433 L 517 438 Q 548 444 588 447 Q 616 450 626 440 Q 636 427 635 414 Q 614 296 602 282 C 590 257 590 257 594 252 Z" fill="black" /></g></svg>