<?xml version='1.0' encoding='utf-8'?>
<svg xmlns="http://www.w3.org/2000/svg" version="1.1" viewBox="0 0 1024 1024"><g transform="scale(1, -1) translate(0, -900)"><path d="M 696 528 Q 715 497 733 489 Q 743 482 758 503 Q 773 528 801 667 Q 810 697 833 721 Q 846 733 835 746 Q 820 762 779 789 Q 766 796 697 784 Q 687 784 677 782 Q 536 761 460 753 Q 459 753 456 752 C 426 748 461 712 489 722 Q 516 737 701 751 Q 729 754 738 743 Q 751 727 749 712 Q 734 616 714 554 C 705 525 689 538 696 528 Z" fill="black" /></g></svg>