<?xml version='1.0' encoding='utf-8'?>
<svg xmlns="http://www.w3.org/2000/svg" version="1.1" viewBox="0 0 1024 1024"><g transform="scale(1, -1) translate(0, -900)"><path d="M 753 604 Q 695 597 645 584 L 606 575 Q 561 565 524 552 Q 509 549 514 567 Q 518 595 524 626 Q 528 647 520 659 Q 507 675 487 687 Q 477 693 468 691 Q 459 688 465 671 Q 481 631 473 591 Q 467 554 451 537 Q 435 521 441 510 Q 451 497 466 487 Q 478 480 486 487 Q 513 518 670 557 Q 737 573 753 569 Q 754 570 756 570 C 786 571 783 608 753 604 Z" fill="black" /></g></svg>