<?xml version='1.0' encoding='utf-8'?>
<svg xmlns="http://www.w3.org/2000/svg" version="1.1" viewBox="0 0 1024 1024"><g transform="scale(1, -1) translate(0, -900)"><path d="M 328 473 Q 331 474 339 477 Q 412 493 425 488 Q 432 484 433 467 Q 440 364 433 285 Q 432 269 423 266 Q 416 265 379 275 Q 370 278 370 273 Q 371 266 381 259 Q 405 235 423 211 Q 433 199 444 199 Q 454 200 468 231 Q 480 256 482 312 Q 472 457 486 483 Q 495 493 484 504 Q 471 516 443 525 Q 433 529 386 512 Q 338 500 316 493 C 287 484 300 464 328 473 Z" fill="black" /></g></svg>