<?xml version='1.0' encoding='utf-8'?>
<svg xmlns="http://www.w3.org/2000/svg" version="1.1" viewBox="0 0 1024 1024"><g transform="scale(1, -1) translate(0, -900)"><path d="M 699 397 Q 700 393 702 387 Q 708 371 720 373 Q 733 374 740 389 Q 750 402 769 471 Q 784 520 818 550 Q 837 566 821 580 Q 803 596 755 621 Q 737 630 683 614 Q 664 614 578 594 Q 538 585 512 581 C 482 576 500 548 530 550 Q 537 549 546 551 Q 592 566 697 580 Q 716 581 723 579 Q 732 573 728 545 Q 710 436 700 413 C 697 403 697 403 699 397 Z" fill="black" /></g></svg>