<?xml version='1.0' encoding='utf-8'?>
<svg xmlns="http://www.w3.org/2000/svg" version="1.1" viewBox="0 0 1024 1024"><g transform="scale(1, -1) translate(0, -900)"><path d="M 518 488 Q 599 498 695 501 Q 714 500 722 489 Q 729 482 725 469 Q 719 360 710 344 Q 704 331 690 335 Q 663 336 635 340 Q 608 341 628 324 Q 688 281 713 247 Q 720 235 731 243 Q 753 261 771 362 Q 783 449 796 464 Q 811 483 805 492 Q 798 505 751 537 Q 733 550 718 545 Q 690 535 640 528 Q 573 524 519 516 L 477 511 Q 398 504 357 493 Q 305 483 265 478 C 235 474 255 430 284 438 Q 293 439 301 442 Q 356 461 458 480 Q 467 481 477 482 L 518 488 Z" fill="black" /></g></svg>