<?xml version='1.0' encoding='utf-8'?>
<svg xmlns="http://www.w3.org/2000/svg" version="1.1" viewBox="0 0 1024 1024"><g transform="scale(1, -1) translate(0, -900)"><path d="M 758 557 Q 758 553 760 548 Q 764 532 776 532 Q 789 533 797 546 Q 809 558 835 617 Q 854 666 891 692 Q 910 705 895 722 Q 879 740 833 768 Q 820 778 758 765 Q 676 758 569 735 Q 499 723 453 717 C 423 713 443 679 472 685 L 555 701 L 576 705 Q 613 714 663 720 L 700 725 Q 784 740 802 729 Q 809 723 803 697 Q 770 586 762 577 C 756 564 756 564 758 557 Z" fill="black" /></g></svg>