<?xml version='1.0' encoding='utf-8'?>
<svg xmlns="http://www.w3.org/2000/svg" version="1.1" viewBox="0 0 1024 1024"><g transform="scale(1, -1) translate(0, -900)"><path d="M 631 288 Q 640 279 695 267 Q 720 261 729 247 Q 741 219 680 92 Q 649 32 625 28 Q 610 22 571 39 Q 534 55 530 50 Q 524 41 541 29 Q 580 -5 588 -43 Q 592 -59 603 -67 Q 616 -73 650 -54 Q 707 -15 757 129 Q 782 202 804 215 Q 814 219 817 228 Q 820 238 798 264 Q 768 298 712 299 Q 670 308 650 315 C 621 324 604 302 631 288 Z" fill="black" /></g></svg>