<?xml version='1.0' encoding='utf-8'?>
<svg xmlns="http://www.w3.org/2000/svg" version="1.1" viewBox="0 0 1024 1024"><g transform="scale(1, -1) translate(0, -900)"><path d="M 685 398 L 686 396 Q 690 380 704 381 Q 717 382 726 397 Q 742 416 768 515 Q 784 567 822 596 Q 841 612 825 628 Q 807 644 757 672 Q 741 681 679 664 Q 628 658 509 625 Q 506 625 505 624 L 476 616 Q 448 610 426 605 C 397 598 413 562 441 571 Q 504 592 532 598 L 563 606 Q 701 642 726 631 Q 736 624 729 588 Q 696 438 686 427 C 678 408 678 408 685 398 Z" fill="black" /></g></svg>