<?xml version='1.0' encoding='utf-8'?>
<svg xmlns="http://www.w3.org/2000/svg" version="1.1" viewBox="0 0 1024 1024"><g transform="scale(1, -1) translate(0, -900)"><path d="M 531 375 Q 506 273 483 226 Q 438 148 397 109 Q 388 103 381 95 Q 333 59 328 51 Q 327 45 336 45 Q 373 42 447 110 Q 537 191 575 382 L 581 416 Q 585 453 592 494 L 597 534 Q 597 535 598 536 Q 602 552 605 562 Q 612 578 594 589 Q 575 601 563 606 C 536 620 519 625 532 598 Q 533 595 537 590 Q 550 560 548 521 Q 548 520 547 518 L 546 484 Q 542 453 535 406 L 531 375 Z" fill="black" /></g></svg>