<?xml version='1.0' encoding='utf-8'?>
<svg xmlns="http://www.w3.org/2000/svg" version="1.1" viewBox="0 0 1024 1024"><g transform="scale(1, -1) translate(0, -900)"><path d="M 962 96 Q 950 120 932 191 Q 931 206 925 210 Q 919 213 916 197 Q 894 119 879 95 Q 866 80 830 71 Q 749 50 679 77 Q 652 90 646 106 Q 625 151 651 299 Q 657 326 611 347 Q 598 351 591 346 Q 584 342 589 325 Q 601 288 598 253 Q 591 124 601 88 Q 605 66 625 48 Q 701 -13 875 21 Q 878 22 881 23 Q 920 33 957 60 Q 973 73 962 96 Z" fill="black" /></g></svg>