<?xml version='1.0' encoding='utf-8'?>
<svg xmlns="http://www.w3.org/2000/svg" version="1.1" viewBox="0 0 1024 1024"><g transform="scale(1, -1) translate(0, -900)"><path d="M 818 220 Q 776 216 732 206 Q 728 205 726 205 Q 725 206 727 213 Q 779 298 790 314 Q 797 323 792 331 Q 786 340 749 352 Q 736 356 729 353 Q 720 347 726 332 Q 754 280 665 193 Q 662 192 661 189 Q 651 179 655 171 Q 659 158 681 145 Q 690 138 698 148 Q 713 163 812 198 Q 819 201 826 204 C 854 216 848 223 818 220 Z" fill="black" /></g></svg>