<?xml version='1.0' encoding='utf-8'?>
<svg xmlns="http://www.w3.org/2000/svg" version="1.1" viewBox="0 0 1024 1024"><g transform="scale(1, -1) translate(0, -900)"><path d="M 608 234 Q 663 252 721 261 C 751 266 738 281 708 278 Q 632 271 542 252 Q 529 249 538 259 Q 670 368 716 392 Q 729 399 725 410 Q 719 429 693 453 Q 680 465 671 464 Q 661 463 659 449 Q 656 419 602 361 L 580 339 Q 478 254 463 248 Q 450 241 450 228 Q 449 216 470 194 Q 477 181 493 191 Q 533 210 575 224 L 608 234 Z" fill="black" /></g></svg>