<?xml version='1.0' encoding='utf-8'?>
<svg xmlns="http://www.w3.org/2000/svg" version="1.1" viewBox="0 0 1024 1024"><g transform="scale(1, -1) translate(0, -900)"><path d="M 262 603 Q 265 676 281 726 Q 290 741 287 754 Q 280 764 226 797 Q 204 813 183 799 Q 179 795 184 779 Q 215 731 216 683 Q 217 613 218 533 Q 214 394 209 242 Q 203 166 183 97 Q 171 54 197 -2 Q 203 -20 211 -23 Q 217 -30 224 -21 Q 231 -17 242 3 Q 252 28 251 58 Q 250 107 261 567 Q 261 571 261 576 L 262 603 Z" fill="black" /></g></svg>