<?xml version='1.0' encoding='utf-8'?>
<svg xmlns="http://www.w3.org/2000/svg" version="1.1" viewBox="0 0 1024 1024"><g transform="scale(1, -1) translate(0, -900)"><path d="M 626 466 Q 642 441 657 434 Q 666 427 680 446 Q 692 465 717 572 Q 724 600 745 621 Q 755 633 746 644 Q 733 659 694 681 Q 682 687 610 670 Q 604 670 493 645 Q 484 644 479 640 L 455 635 Q 442 634 431 629 C 402 620 411 592 440 601 Q 509 623 626 644 Q 654 648 663 640 Q 673 628 671 616 Q 652 505 640 492 C 627 465 625 467 626 466 Z" fill="black" /></g></svg>