<?xml version='1.0' encoding='utf-8'?>
<svg xmlns="http://www.w3.org/2000/svg" version="1.1" viewBox="0 0 1024 1024"><g transform="scale(1, -1) translate(0, -900)"><path d="M 457 464 Q 467 446 467 420 Q 466 371 448 348 Q 430 327 464 300 Q 474 291 487 302 Q 544 348 722 344 Q 764 344 768 346 Q 774 350 768 361 Q 764 371 731 389 Q 712 401 653 388 Q 581 382 515 363 Q 508 360 506 363 Q 502 366 503 376 Q 507 434 513 451 Q 517 464 507 472 Q 506 473 504 474 C 484 497 445 492 457 464 Z" fill="black" /></g></svg>