<?xml version='1.0' encoding='utf-8'?>
<svg xmlns="http://www.w3.org/2000/svg" version="1.1" viewBox="0 0 1024 1024"><g transform="scale(1, -1) translate(0, -900)"><path d="M 605 721 Q 606 758 614 804 Q 618 820 607 828 Q 597 838 576 846 Q 564 849 558 844 Q 552 841 557 826 Q 569 792 567 761 Q 564 628 591 599 Q 607 587 636 578 Q 744 553 822 610 Q 837 620 827 640 Q 820 655 806 701 Q 806 714 801 717 Q 797 721 792 707 Q 767 656 753 641 Q 746 632 725 626 Q 674 614 635 628 Q 619 635 615 644 Q 605 662 605 702 L 605 721 Z" fill="black" /></g></svg>