<?xml version='1.0' encoding='utf-8'?>
<svg xmlns="http://www.w3.org/2000/svg" version="1.1" viewBox="0 0 1024 1024"><g transform="scale(1, -1) translate(0, -900)"><path d="M 640 299 Q 640 308 640 314 L 640 353 Q 640 383 640 413 L 640 446 Q 640 474 640 504 Q 639 516 639 526 L 639 558 Q 640 586 642 592 Q 645 602 636 610 Q 629 616 616 623 C 591 639 576 646 585 617 Q 592 605 593 580 Q 593 564 593 546 L 594 517 Q 594 480 595 439 L 595 408 Q 595 377 595 344 L 594 308 Q 594 125 583 25 Q 580 -14 604 -46 Q 616 -59 625 -43 Q 650 5 643 48 Q 640 76 640 260 L 640 299 Z" fill="black" /></g></svg>