<?xml version='1.0' encoding='utf-8'?>
<svg xmlns="http://www.w3.org/2000/svg" version="1.1" viewBox="0 0 1024 1024"><g transform="scale(1, -1) translate(0, -900)"><path d="M 435 678 Q 341 663 256 635 Q 249 632 252 639 Q 267 657 308 697 Q 372 758 385 766 Q 395 772 400 779 Q 404 792 387 809 Q 354 837 328 842 Q 315 843 307 838 Q 304 831 311 822 Q 336 776 199 636 Q 157 627 167 577 L 168 574 Q 175 555 186 554 Q 190 555 205 564 Q 292 618 418 650 Q 427 653 453 657 C 483 662 465 683 435 678 Z" fill="black" /></g></svg>