<?xml version='1.0' encoding='utf-8'?>
<svg xmlns="http://www.w3.org/2000/svg" version="1.1" viewBox="0 0 1024 1024"><g transform="scale(1, -1) translate(0, -900)"><path d="M 452 597 Q 462 561 475 523 L 478 494 Q 478 458 480 421 L 480 390 Q 479 359 479 323 L 474 223 Q 473 159 453 80 Q 438 26 474 -19 Q 484 -32 495 -19 Q 513 2 513 144 Q 513 229 516 296 L 516 328 Q 516 365 518 397 L 519 427 Q 519 473 520 502 L 521 531 Q 521 544 523 547 Q 527 566 522 575 Q 519 585 500 596 Q 499 597 498 597 C 473 614 444 626 452 597 Z" fill="black" /></g></svg>