<?xml version='1.0' encoding='utf-8'?>
<svg xmlns="http://www.w3.org/2000/svg" version="1.1" viewBox="0 0 1024 1024"><g transform="scale(1, -1) translate(0, -900)"><path d="M 705 141 Q 653 90 594 67 Q 582 61 594 56 Q 598 52 628 54 Q 680 60 730 109 L 762 147 Q 798 210 826 296 Q 835 323 851 340 Q 867 356 854 367 Q 841 377 813 385 Q 791 389 768 375 Q 747 366 719 356 Q 691 347 642 339 Q 630 338 626 332 Q 623 325 639 319 Q 672 309 714 322 Q 745 338 752 338 Q 777 337 772 310 Q 757 226 729 177 L 705 141 Z" fill="black" /></g></svg>