<?xml version='1.0' encoding='utf-8'?>
<svg xmlns="http://www.w3.org/2000/svg" version="1.1" viewBox="0 0 1024 1024"><g transform="scale(1, -1) translate(0, -900)"><path d="M 545 366 Q 557 348 569 342 Q 578 336 590 354 Q 602 373 625 477 Q 631 504 650 525 Q 660 535 651 547 Q 638 560 601 582 Q 585 588 519 569 Q 510 569 500 564 L 462 555 Q 440 551 420 545 Q 381 535 348 526 C 319 518 342 489 370 499 Q 404 512 461 524 L 500 533 Q 558 549 572 540 Q 584 533 581 516 Q 563 408 550 394 C 539 373 539 373 545 366 Z" fill="black" /></g></svg>