<?xml version='1.0' encoding='utf-8'?>
<svg xmlns="http://www.w3.org/2000/svg" version="1.1" viewBox="0 0 1024 1024"><g transform="scale(1, -1) translate(0, -900)"><path d="M 246 596 Q 249 671 265 721 Q 272 734 270 748 Q 264 757 211 789 Q 189 805 170 791 Q 166 787 171 771 Q 202 725 203 677 Q 204 608 206 530 Q 202 394 199 244 Q 195 169 175 101 Q 166 64 189 5 Q 196 -11 203 -15 Q 209 -21 216 -13 Q 223 -9 233 11 Q 242 33 241 63 Q 240 112 246 564 Q 246 568 246 571 L 246 596 Z" fill="black" /></g></svg>