<?xml version='1.0' encoding='utf-8'?>
<svg xmlns="http://www.w3.org/2000/svg" version="1.1" viewBox="0 0 1024 1024"><g transform="scale(1, -1) translate(0, -900)"><path d="M 783 433 Q 814 442 846 446 Q 856 447 858 443 Q 865 427 862 386 Q 850 235 821 154 Q 806 103 790 88 Q 780 79 761 86 Q 736 95 714 103 Q 695 112 706 91 Q 740 46 759 12 Q 766 -6 784 -3 Q 802 0 824 25 Q 887 91 909 346 Q 913 403 935 437 Q 948 455 941 463 Q 928 479 898 492 Q 876 502 854 492 Q 826 479 789 467 L 736 453 Q 687 443 658 441 Q 642 442 643 434 Q 642 427 660 416 Q 678 406 730 420 L 783 433 Z" fill="black" /></g></svg>