<?xml version='1.0' encoding='utf-8'?>
<svg xmlns="http://www.w3.org/2000/svg" version="1.1" viewBox="0 0 1024 1024"><g transform="scale(1, -1) translate(0, -900)"><path d="M 543 317 Q 559 293 573 286 Q 582 280 594 298 Q 604 317 626 422 Q 632 447 651 469 Q 661 479 651 490 Q 638 503 602 524 Q 587 530 520 510 Q 517 510 504 506 L 464 496 Q 452 495 359 468 C 330 460 345 433 373 443 Q 409 456 464 469 L 504 478 Q 559 493 573 484 Q 583 477 582 460 Q 569 367 557 342 C 547 314 540 321 543 317 Z" fill="black" /></g></svg>