<?xml version='1.0' encoding='utf-8'?>
<svg xmlns="http://www.w3.org/2000/svg" version="1.1" viewBox="0 0 1024 1024"><g transform="scale(1, -1) translate(0, -900)"><path d="M 501 129 Q 501 166 501 202 L 501 240 Q 501 274 502 308 L 502 342 Q 502 369 503 395 L 504 429 Q 504 454 504 478 L 504 506 Q 505 543 506 577 L 508 619 Q 508 623 509 627 Q 515 645 506 654 Q 493 667 479 675 C 454 692 432 687 443 659 Q 459 620 462 602 L 464 566 Q 464 550 464 496 L 464 469 Q 464 447 464 418 L 464 386 Q 463 361 463 330 L 462 300 Q 461 266 461 227 L 460 191 Q 460 160 460 121 C 460 91 501 99 501 129 Z" fill="black" /></g></svg>