<?xml version='1.0' encoding='utf-8'?>
<svg xmlns="http://www.w3.org/2000/svg" version="1.1" viewBox="0 0 1024 1024"><g transform="scale(1, -1) translate(0, -900)"><path d="M 526 791 Q 492 815 485 806 Q 481 799 482 791 Q 506 755 497 664 Q 496 663 496 662 L 492 628 Q 480 571 460 548 Q 456 541 459 531 Q 465 518 481 506 Q 488 499 498 507 Q 550 546 668 546 Q 687 547 709 543 C 739 539 749 574 721 585 Q 700 600 642 585 L 639 585 L 600 576 Q 558 569 521 557 Q 511 553 511 564 Q 518 604 525 635 L 530 667 Q 536 698 538 718 Q 538 743 541 760 Q 541 761 542 762 C 545 779 545 779 526 791 Z" fill="black" /></g></svg>