<?xml version='1.0' encoding='utf-8'?>
<svg xmlns="http://www.w3.org/2000/svg" version="1.1" viewBox="0 0 1024 1024"><g transform="scale(1, -1) translate(0, -900)"><path d="M 359 508 Q 365 451 369 442 Q 375 432 382 438 Q 397 450 395 516 L 395 552 Q 395 577 395 600 L 395 641 Q 395 668 395 695 L 396 737 Q 396 759 399 770 Q 406 788 395 797 Q 382 807 356 818 Q 337 825 318 815 Q 308 808 321 795 Q 336 771 347 723 L 351 687 Q 352 660 355 627 L 357 591 Q 357 590 358 588 Q 358 564 359 542 L 359 508 Z" fill="black" /></g></svg>