<?xml version='1.0' encoding='utf-8'?>
<svg xmlns="http://www.w3.org/2000/svg" version="1.1" viewBox="0 0 1024 1024"><g transform="scale(1, -1) translate(0, -900)"><path d="M 794 667 Q 836 670 934 670 Q 950 671 955 678 Q 959 688 945 700 Q 894 737 839 719 Q 821 716 802 711 L 748 701 Q 703 697 656 686 L 610 679 Q 570 675 530 667 L 496 662 Q 441 656 382 647 Q 364 646 378 631 Q 390 619 406 615 Q 424 611 437 614 Q 462 621 492 628 L 525 635 Q 564 645 607 649 L 651 655 Q 691 662 741 664 L 794 667 Z" fill="black" /></g></svg>