<?xml version='1.0' encoding='utf-8'?>
<svg xmlns="http://www.w3.org/2000/svg" version="1.1" viewBox="0 0 1024 1024"><g transform="scale(1, -1) translate(0, -900)"><path d="M 464 685 Q 463 686 463 687 Q 453 697 422 712 Q 401 722 393 715 Q 386 708 393 692 Q 412 658 415 592 Q 427 354 410 134 Q 406 92 382 55 Q 370 39 380 17 Q 389 -5 399 -15 Q 409 -24 428 -11 Q 492 31 590 47 Q 701 65 914 57 Q 942 56 943 69 Q 943 85 912 109 Q 896 124 858 117 Q 756 104 675 96 Q 593 95 494 77 Q 479 74 472 80 Q 465 81 464 99 Q 468 307 466 571 Q 465 619 469 650 C 471 680 471 680 464 685 Z" fill="black" /></g></svg>