<?xml version='1.0' encoding='utf-8'?>
<svg xmlns="http://www.w3.org/2000/svg" version="1.1" viewBox="0 0 1024 1024"><g transform="scale(1, -1) translate(0, -900)"><path d="M 736 166 Q 737 162 741 156 Q 754 129 762 130 Q 775 131 790 161 Q 803 185 799 231 Q 787 388 814 430 Q 823 445 816 454 Q 791 476 746 493 Q 733 497 711 490 Q 651 463 518 440 C 488 435 503 401 531 412 Q 558 427 698 454 Q 720 460 730 447 Q 742 431 742 378 Q 743 227 736 197 Q 735 196 735 195 C 731 175 731 175 736 166 Z" fill="black" /></g></svg>