<?xml version='1.0' encoding='utf-8'?>
<svg xmlns="http://www.w3.org/2000/svg" version="1.1" viewBox="0 0 1024 1024"><g transform="scale(1, -1) translate(0, -900)"><path d="M 686 356 Q 658 363 629 370 Q 619 373 619 367 Q 619 360 629 353 Q 689 295 709 261 Q 722 245 736 258 Q 770 289 769 353 Q 765 392 761 602 L 760 644 Q 760 764 769 788 Q 776 804 761 817 Q 737 836 710 844 Q 694 850 686 842 Q 682 836 691 823 Q 712 789 712 750 Q 715 689 716 634 L 717 596 Q 721 371 704 358 Q 697 354 686 356 Z" fill="black" /></g></svg>