<?xml version='1.0' encoding='utf-8'?>
<svg xmlns="http://www.w3.org/2000/svg" version="1.1" viewBox="0 0 1024 1024"><g transform="scale(1, -1) translate(0, -900)"><path d="M 755 503 Q 701 434 660 402 Q 653 396 654 392 Q 655 388 663 390 Q 717 399 781 469 L 809 506 Q 849 576 870 661 Q 880 691 902 712 Q 915 722 913 731 Q 910 743 880 753 Q 843 768 829 766 Q 819 763 810 754 Q 774 732 699 702 Q 665 698 663 689 Q 662 686 669 682 Q 685 672 714 673 Q 738 677 779 704 Q 800 716 811 711 Q 818 707 810 649 Q 804 598 775 540 L 755 503 Z" fill="black" /></g></svg>