<?xml version='1.0' encoding='utf-8'?>
<svg xmlns="http://www.w3.org/2000/svg" version="1.1" viewBox="0 0 1024 1024"><g transform="scale(1, -1) translate(0, -900)"><path d="M 486 662 Q 691 704 739 699 Q 758 695 756 684 Q 756 683 734 625 Q 725 612 731 608 Q 738 605 755 615 Q 804 645 842 652 Q 875 659 874 668 Q 873 678 805 729 Q 781 750 725 736 Q 625 723 548 705 L 510 699 Q 483 696 315 664 C 286 658 303 619 333 624 Q 340 624 348 626 Q 406 645 470 659 Q 471 660 473 659 L 486 662 Z" fill="black" /></g></svg>