<?xml version='1.0' encoding='utf-8'?>
<svg xmlns="http://www.w3.org/2000/svg" version="1.1" viewBox="0 0 1024 1024"><g transform="scale(1, -1) translate(0, -900)"><path d="M 672 769 Q 657 768 655 761 Q 652 757 669 748 Q 703 735 721 744 Q 743 756 798 771 Q 807 772 811 772 Q 826 765 822 718 Q 803 544 791 509 Q 785 490 792 474 Q 799 459 812 461 Q 825 464 832 480 Q 850 513 867 661 Q 877 715 912 748 Q 928 766 911 780 Q 892 796 839 817 Q 821 826 778 807 Q 745 797 717 785 Q 690 775 672 769 Z" fill="black" /></g></svg>