<?xml version='1.0' encoding='utf-8'?>
<svg xmlns="http://www.w3.org/2000/svg" version="1.1" viewBox="0 0 1024 1024"><g transform="scale(1, -1) translate(0, -900)"><path d="M 657 308 Q 762 330 785 319 Q 797 315 799 290 Q 806 154 797 47 Q 796 26 783 22 Q 774 19 726 33 Q 714 36 714 29 Q 715 20 729 11 Q 760 -20 783 -51 Q 796 -67 811 -67 Q 824 -64 843 -25 Q 865 15 863 56 Q 859 156 856 247 Q 855 283 870 311 Q 882 326 868 340 Q 850 356 812 370 Q 791 380 773 369 Q 748 359 699 345 Q 675 341 657 335 L 614 326 Q 542 313 508 307 C 478 302 486 277 516 281 Q 529 281 550 286 Q 583 293 614 300 L 657 308 Z" fill="black" /></g></svg>