<?xml version='1.0' encoding='utf-8'?>
<svg xmlns="http://www.w3.org/2000/svg" version="1.1" viewBox="0 0 1024 1024"><g transform="scale(1, -1) translate(0, -900)"><path d="M 645 279 Q 645 318 645 355 L 645 390 Q 645 423 646 454 L 647 484 Q 647 490 648 494 Q 649 525 651 551 L 656 587 Q 657 600 662 611 Q 677 638 628 657 Q 598 673 581 667 Q 566 661 580 641 Q 601 617 601 570 L 602 540 Q 602 515 603 476 L 603 447 Q 603 419 603 381 L 603 348 Q 603 236 603 70 Q 603 49 592 42 Q 586 38 530 41 Q 500 50 503 41 Q 504 34 523 23 Q 578 -16 592 -39 Q 608 -66 621 -66 Q 634 -66 646 -36 Q 659 4 656 69 Q 649 157 646 246 L 645 279 Z" fill="black" /></g></svg>