<?xml version='1.0' encoding='utf-8'?>
<svg xmlns="http://www.w3.org/2000/svg" version="1.1" viewBox="0 0 1024 1024"><g transform="scale(1, -1) translate(0, -900)"><path d="M 683 378 Q 737 296 808 251 Q 868 212 895 216 Q 913 222 903 247 Q 893 284 878 397 Q 874 419 866 418 Q 847 370 827 319 Q 817 319 794 331 Q 749 365 711 418 L 681 468 Q 626 573 598 691 L 588 737 Q 582 767 582 803 Q 588 842 536 853 Q 503 862 486 853 Q 470 844 480 828 Q 526 797 531 768 L 543 724 L 555 683 Q 600 529 657 422 L 683 378 Z" fill="black" /></g></svg>