<?xml version='1.0' encoding='utf-8'?>
<svg xmlns="http://www.w3.org/2000/svg" version="1.1" viewBox="0 0 1024 1024"><g transform="scale(1, -1) translate(0, -900)"><path d="M 752 406 Q 759 443 768 468 L 786 513 Q 796 535 810 548 Q 825 566 810 581 Q 794 593 745 613 Q 729 619 709 610 Q 681 597 656 587 L 601 570 Q 549 558 499 550 Q 484 549 486 539 Q 489 532 506 527 Q 530 518 560 530 Q 579 536 602 540 L 651 551 Q 673 558 697 563 Q 715 569 722 561 Q 734 551 731 528 Q 730 515 726 500 L 720 464 Q 714 436 708 407 C 702 378 746 377 752 406 Z" fill="black" /></g></svg>