<?xml version='1.0' encoding='utf-8'?>
<svg xmlns="http://www.w3.org/2000/svg" version="1.1" viewBox="0 0 1024 1024"><g transform="scale(1, -1) translate(0, -900)"><path d="M 600 74 Q 625 111 649 157 Q 664 182 684 198 Q 703 210 692 224 Q 682 237 654 251 Q 632 260 606 250 Q 582 243 551 234 Q 521 227 474 223 C 444 220 430 215 458 205 Q 459 205 463 203 Q 494 190 538 200 Q 580 213 588 214 Q 606 207 595 188 Q 582 140 559 103 L 538 73 Q 472 -8 321 -41 Q 308 -44 318 -53 Q 324 -57 366 -55 Q 489 -46 574 41 L 600 74 Z" fill="black" /></g></svg>