<?xml version='1.0' encoding='utf-8'?>
<svg xmlns="http://www.w3.org/2000/svg" version="1.1" viewBox="0 0 1024 1024"><g transform="scale(1, -1) translate(0, -900)"><path d="M 234 423 Q 259 411 284 417 Q 467 469 737 494 Q 800 500 819 496 Q 832 490 829 483 Q 829 480 791 411 Q 781 396 787 392 Q 796 388 815 398 Q 875 429 922 438 Q 961 444 961 455 Q 960 465 889 523 Q 870 541 843 540 Q 768 530 681 515 L 627 508 Q 542 498 428 481 L 387 475 Q 374 474 365 472 Q 299 462 234 454 C 204 450 205 432 234 423 Z" fill="black" /></g></svg>