<?xml version='1.0' encoding='utf-8'?>
<svg xmlns="http://www.w3.org/2000/svg" version="1.1" viewBox="0 0 1024 1024"><g transform="scale(1, -1) translate(0, -900)"><path d="M 469 444 Q 500 469 668 498 Q 776 517 799 508 Q 809 501 811 487 Q 811 478 794 405 Q 781 362 770 346 Q 758 325 735 330 Q 717 333 699 335 Q 683 342 680 337 Q 677 333 691 321 Q 734 263 736 245 Q 740 236 748 235 Q 763 231 793 259 Q 821 286 831 321 Q 876 486 886 493 Q 893 500 893 506 Q 894 513 864 534 Q 828 558 774 545 Q 741 545 631 523 L 586 514 Q 538 507 506 496 Q 475 484 468 507 C 446 527 443 430 469 444 Z" fill="black" /></g></svg>