<?xml version='1.0' encoding='utf-8'?>
<svg xmlns="http://www.w3.org/2000/svg" version="1.1" viewBox="0 0 1024 1024"><g transform="scale(1, -1) translate(0, -900)"><path d="M 699 42 Q 724 11 743 -21 Q 750 -37 761 -36 Q 776 -35 789 -5 Q 805 29 802 71 Q 796 126 789 230 Q 788 258 803 279 Q 812 291 803 300 Q 787 318 738 340 Q 722 347 707 340 Q 644 313 525 298 C 495 294 507 265 537 268 Q 558 268 695 292 Q 716 295 726 287 Q 753 254 737 75 L 737 73 Q 736 66 732 63 C 723 34 681 66 699 42 Z" fill="black" /></g></svg>