<?xml version='1.0' encoding='utf-8'?>
<svg xmlns="http://www.w3.org/2000/svg" version="1.1" viewBox="0 0 1024 1024"><g transform="scale(1, -1) translate(0, -900)"><path d="M 606 196 Q 606 -62 621 -84 L 622 -85 Q 628 -92 635 -90 Q 650 -81 654 -25 Q 660 38 656 202 L 656 244 Q 656 283 657 330 L 657 367 Q 657 391 658 415 Q 658 424 658 430 L 663 473 Q 664 485 667 494 Q 670 510 657 519 Q 647 526 637 531 C 611 546 568 546 583 520 Q 587 511 593 503 Q 603 484 605 458 L 606 422 Q 606 391 606 356 L 606 324 Q 606 284 606 236 L 606 196 Z" fill="black" /></g></svg>