<?xml version='1.0' encoding='utf-8'?>
<svg xmlns="http://www.w3.org/2000/svg" version="1.1" viewBox="0 0 1024 1024"><g transform="scale(1, -1) translate(0, -900)"><path d="M 743 353 Q 753 331 762 331 Q 775 332 789 359 Q 802 381 801 399 Q 777 589 812 639 Q 821 660 817 666 Q 793 687 752 704 Q 739 708 718 702 Q 678 684 601 665 L 579 662 Q 576 662 575 662 C 545 659 556 631 586 636 Q 595 636 661 653 Q 722 669 736 660 Q 745 641 747 586 Q 747 424 738 394 Q 737 393 737 391 C 733 371 733 371 743 353 Z" fill="black" /></g></svg>