<?xml version='1.0' encoding='utf-8'?>
<svg xmlns="http://www.w3.org/2000/svg" version="1.1" viewBox="0 0 1024 1024"><g transform="scale(1, -1) translate(0, -900)"><path d="M 834 525 Q 846 99 823 66 Q 819 60 801 64 Q 780 68 760 73 Q 739 82 740 71 Q 786 19 811 -17 Q 824 -36 841 -43 Q 850 -47 859 -37 Q 904 14 903 70 Q 888 287 884 639 Q 883 700 897 728 Q 910 749 897 759 Q 875 778 835 795 Q 816 802 801 795 Q 759 770 690 757 C 661 751 675 722 705 727 Q 724 727 788 746 Q 807 750 815 739 Q 830 726 829 680 Q 832 610 834 542 L 834 525 Z" fill="black" /></g></svg>