<?xml version='1.0' encoding='utf-8'?>
<svg xmlns="http://www.w3.org/2000/svg" version="1.1" viewBox="0 0 1024 1024"><g transform="scale(1, -1) translate(0, -900)"><path d="M 668 750 Q 706 759 725 755 Q 729 755 733 754 Q 745 750 743 730 L 741 718 Q 725 621 711 595 C 704 578 704 578 710 568 Q 710 566 711 564 Q 715 550 727 551 Q 741 553 747 566 Q 757 578 777 641 Q 788 676 808 698 Q 809 700 829 717 Q 839 728 835 738 Q 829 753 770 788 Q 755 798 737 791 Q 704 783 674 778 L 672 778 L 626 770 Q 590 765 564 758 L 521 749 Q 468 741 439 733 C 410 726 422 698 451 705 L 524 723 L 564 731 Q 584 737 625 743 L 668 750 Z" fill="black" /></g></svg>