<?xml version='1.0' encoding='utf-8'?>
<svg xmlns="http://www.w3.org/2000/svg" version="1.1" viewBox="0 0 1024 1024"><g transform="scale(1, -1) translate(0, -900)"><path d="M 731 356 Q 762 313 804 280 Q 852 240 875 240 Q 891 243 886 266 Q 885 303 889 409 Q 890 428 883 430 Q 877 430 870 412 Q 858 384 847 362 Q 837 337 828 338 Q 819 337 801 350 Q 779 371 758 397 L 732 435 Q 699 495 666 615 L 655 661 Q 643 715 645 778 Q 652 811 607 825 Q 579 835 564 828 Q 548 822 557 807 Q 596 777 598 750 Q 608 695 619 648 L 629 606 Q 660 476 710 390 L 731 356 Z" fill="black" /></g></svg>