<?xml version='1.0' encoding='utf-8'?>
<svg xmlns="http://www.w3.org/2000/svg" version="1.1" viewBox="0 0 1024 1024"><g transform="scale(1, -1) translate(0, -900)"><path d="M 681 556 Q 697 529 713 522 Q 723 515 736 534 Q 748 556 774 672 Q 781 700 800 722 Q 810 732 801 745 Q 788 758 749 781 Q 731 788 719 783 Q 703 776 679 770 Q 649 761 611 750 Q 581 740 560 734 C 531 725 551 694 579 706 Q 603 718 701 741 Q 711 744 719 739 Q 732 730 728 713 Q 709 604 701 587 Q 697 578 688 574 C 676 564 676 564 681 556 Z" fill="black" /></g></svg>