<?xml version='1.0' encoding='utf-8'?>
<svg xmlns="http://www.w3.org/2000/svg" version="1.1" viewBox="0 0 1024 1024"><g transform="scale(1, -1) translate(0, -900)"><path d="M 483 592 Q 508 607 534 608 Q 547 604 547 598 Q 548 597 545 586 Q 538 567 531 547 Q 528 540 533 537 Q 537 536 545 543 Q 575 571 602 584 Q 624 594 622 600 Q 621 607 574 632 Q 556 641 506 622 L 479 613 Q 448 606 408 591 Q 389 584 369 579 Q 350 575 363 566 Q 385 553 405 560 Q 421 570 439 577 L 483 592 Z" fill="black" /></g></svg>