<?xml version='1.0' encoding='utf-8'?>
<svg xmlns="http://www.w3.org/2000/svg" version="1.1" viewBox="0 0 1024 1024"><g transform="scale(1, -1) translate(0, -900)"><path d="M 733 -15 Q 737 -37 743 -45 Q 747 -52 754 -49 Q 761 -46 766 -33 Q 778 12 779 250 Q 779 256 779 262 L 780 301 Q 780 338 782 382 L 785 423 Q 785 426 786 428 Q 789 447 792 461 Q 795 477 783 485 Q 755 504 741 506 Q 731 510 716 503 Q 709 496 714 487 Q 733 454 734 407 L 734 372 Q 734 335 733 290 L 732 254 Q 726 43 733 -15 Z" fill="black" /></g></svg>