<?xml version='1.0' encoding='utf-8'?>
<svg xmlns="http://www.w3.org/2000/svg" version="1.1" viewBox="0 0 1024 1024"><g transform="scale(1, -1) translate(0, -900)"><path d="M 430 496 Q 455 503 488 510 Q 507 516 517 506 Q 526 502 529 459 Q 538 320 528 161 Q 527 137 519 131 Q 509 124 457 133 Q 444 134 446 127 Q 446 123 456 118 Q 502 85 527 60 Q 543 45 553 47 Q 563 50 571 71 Q 583 105 581 156 Q 566 454 581 491 Q 591 507 582 516 Q 575 528 538 546 Q 523 553 508 549 Q 489 542 453 531 L 431 526 Q 388 517 339 508 C 310 503 322 466 351 475 Q 354 478 400 488 L 430 496 Z" fill="black" /></g></svg>