<?xml version='1.0' encoding='utf-8'?>
<svg xmlns="http://www.w3.org/2000/svg" version="1.1" viewBox="0 0 1024 1024"><g transform="scale(1, -1) translate(0, -900)"><path d="M 648 508 Q 712 515 725 502 Q 731 495 727 484 Q 726 363 718 345 Q 714 335 702 337 Q 680 338 657 340 Q 633 340 651 326 Q 703 290 725 262 Q 734 252 743 259 Q 764 280 773 381 Q 773 460 789 484 Q 801 500 796 507 Q 790 517 748 544 Q 733 557 721 551 Q 697 542 654 536 Q 653 536 652 534 C 647 533 632 533 602 530 Q 556 526 524 520 L 480 512 Q 468 512 459 509 Q 419 500 389 497 Q 388 497 389 496 C 359 491 378 460 408 464 Q 418 463 429 467 Q 448 474 479 481 L 519 491 Q 537 498 602 504 L 648 508 Z" fill="black" /></g></svg>