<?xml version='1.0' encoding='utf-8'?>
<svg xmlns="http://www.w3.org/2000/svg" version="1.1" viewBox="0 0 1024 1024"><g transform="scale(1, -1) translate(0, -900)"><path d="M 471 569 Q 472 568 473 566 Q 474 562 478 557 Q 484 536 480 512 L 479 481 Q 478 474 478 466 Q 472 406 432 334 Q 429 330 428 325 Q 427 318 433 320 Q 451 320 488 383 Q 488 386 490 387 Q 493 394 496 401 L 504 425 Q 505 432 509 439 Q 516 464 519 491 L 524 520 Q 524 523 525 525 Q 531 549 528 555 Q 518 567 499 575 C 472 588 458 594 471 569 Z" fill="black" /></g></svg>