<?xml version='1.0' encoding='utf-8'?>
<svg xmlns="http://www.w3.org/2000/svg" version="1.1" viewBox="0 0 1024 1024"><g transform="scale(1, -1) translate(0, -900)"><path d="M 700 576 Q 697 497 694 385 Q 693 369 684 362 Q 683 362 636 366 Q 609 378 611 369 Q 612 363 628 350 Q 671 308 682 285 Q 694 260 706 257 Q 718 256 731 284 Q 747 321 748 384 Q 742 484 743 583 L 743 623 Q 747 764 763 817 Q 778 842 732 861 Q 704 877 688 872 Q 673 866 686 847 Q 704 825 704 796 Q 705 780 701 613 L 700 576 Z" fill="black" /></g></svg>