<?xml version='1.0' encoding='utf-8'?>
<svg xmlns="http://www.w3.org/2000/svg" version="1.1" viewBox="0 0 1024 1024"><g transform="scale(1, -1) translate(0, -900)"><path d="M 653 243 Q 650 247 649 250 L 638 265 Q 610 298 559 324 C 533 338 511 322 537 306 Q 546 302 554 295 L 590 264 Q 603 249 615 230 L 633 171 Q 640 129 626 57 Q 619 24 608 19 Q 601 16 539 18 Q 526 22 524 16 Q 523 9 535 -3 Q 578 -43 595 -70 Q 608 -88 623 -84 Q 665 -66 681 41 Q 691 119 681 166 Q 678 176 676 186 L 653 243 Z" fill="black" /></g></svg>