<?xml version='1.0' encoding='utf-8'?>
<svg xmlns="http://www.w3.org/2000/svg" version="1.1" viewBox="0 0 1024 1024"><g transform="scale(1, -1) translate(0, -900)"><path d="M 598 514 Q 665 527 746 534 Q 764 533 771 523 Q 777 516 773 504 Q 774 347 763 325 Q 760 316 748 318 Q 720 322 690 327 Q 665 328 683 313 Q 747 267 774 233 Q 784 220 796 230 Q 809 245 817 268 Q 826 293 827 429 Q 826 480 841 505 Q 854 524 848 531 Q 841 541 796 569 Q 780 582 766 575 Q 741 565 695 556 Q 640 549 600 541 L 559 534 Q 499 524 470 515 Q 424 505 391 498 C 362 492 381 459 410 465 Q 420 464 432 469 Q 475 487 556 506 Q 557 507 561 507 L 598 514 Z" fill="black" /></g></svg>