<?xml version='1.0' encoding='utf-8'?>
<svg xmlns="http://www.w3.org/2000/svg" version="1.1" viewBox="0 0 1024 1024"><g transform="scale(1, -1) translate(0, -900)"><path d="M 635 82 Q 636 86 636 90 Q 614 295 635 331 Q 645 346 635 354 Q 619 370 589 382 Q 574 388 563 383 Q 541 370 525 364 Q 512 360 492 356 C 463 350 474 319 502 330 Q 503 333 554 345 Q 567 349 574 341 Q 578 337 579 320 Q 586 193 582 115 Q 581 94 574 86 Q 570 83 516 94 Q 500 100 501 92 Q 543 52 566 24 Q 576 8 588 4 Q 595 1 602 9 Q 626 34 632 63 L 635 82 Z" fill="black" /></g></svg>