<?xml version='1.0' encoding='utf-8'?>
<svg xmlns="http://www.w3.org/2000/svg" version="1.1" viewBox="0 0 1024 1024"><g transform="scale(1, -1) translate(0, -900)"><path d="M 674 238 Q 728 245 793 248 Q 811 245 817 235 Q 823 228 818 216 Q 814 83 805 64 Q 799 51 785 54 Q 761 55 735 56 Q 708 56 728 41 Q 786 -2 811 -33 Q 820 -46 831 -37 Q 855 -13 866 73 Q 870 190 890 214 Q 903 232 898 239 Q 891 251 846 281 Q 830 294 816 288 Q 791 279 743 272 Q 640 262 574 250 L 539 244 Q 517 243 501 237 Q 455 228 423 223 C 393 218 410 181 439 188 Q 446 188 456 191 Q 481 201 522 211 L 560 219 Q 581 226 637 233 L 674 238 Z" fill="black" /></g></svg>