<?xml version='1.0' encoding='utf-8'?>
<svg xmlns="http://www.w3.org/2000/svg" version="1.1" viewBox="0 0 1024 1024"><g transform="scale(1, -1) translate(0, -900)"><path d="M 433 330 Q 433 210 407 121 Q 398 87 419 32 Q 425 16 432 13 Q 438 7 444 14 Q 451 18 460 37 Q 469 59 468 86 Q 467 126 471 423 L 472 454 Q 472 503 474 559 L 474 587 Q 474 611 477 661 L 481 702 Q 485 738 494 766 Q 501 779 500 791 Q 493 800 445 830 Q 424 845 406 831 Q 402 827 407 813 Q 440 765 440 689 L 440 651 Q 440 617 440 576 L 440 551 Q 439 499 437 445 L 433 330 Z" fill="black" /></g></svg>