<?xml version='1.0' encoding='utf-8'?>
<svg xmlns="http://www.w3.org/2000/svg" version="1.1" viewBox="0 0 1024 1024"><g transform="scale(1, -1) translate(0, -900)"><path d="M 658 26 Q 685 -8 703 -41 Q 710 -57 721 -56 Q 736 -55 750 -26 Q 766 8 764 50 Q 760 126 755 265 Q 755 292 769 309 Q 776 319 769 329 Q 754 345 711 366 Q 695 373 683 366 Q 613 333 505 314 C 475 309 482 281 511 288 Q 523 291 542 296 Q 606 312 662 326 Q 684 332 696 324 Q 718 302 700 54 Q 696 38 680 44 C 651 38 649 37 658 26 Z" fill="black" /></g></svg>