<?xml version='1.0' encoding='utf-8'?>
<svg xmlns="http://www.w3.org/2000/svg" version="1.1" viewBox="0 0 1024 1024"><g transform="scale(1, -1) translate(0, -900)"><path d="M 607 52 Q 537 -2 394 -33 Q 381 -34 387 -42 Q 393 -48 417 -49 Q 504 -42 554 -26 Q 602 -8 639 26 L 672 62 Q 693 92 710 130 Q 720 158 738 170 Q 751 180 739 194 Q 724 210 698 224 Q 682 231 663 225 Q 621 203 563 195 Q 559 195 554 194 C 524 190 508 183 537 174 L 538 174 Q 560 162 593 172 L 655 186 Q 667 190 669 177 Q 669 135 634 83 L 607 52 Z" fill="black" /></g></svg>