<?xml version='1.0' encoding='utf-8'?>
<svg xmlns="http://www.w3.org/2000/svg" version="1.1" viewBox="0 0 1024 1024"><g transform="scale(1, -1) translate(0, -900)"><path d="M 831 229 Q 832 220 838 211 Q 850 186 858 186 Q 871 187 884 215 Q 897 237 896 255 Q 887 328 889 443 Q 889 476 907 504 Q 916 517 909 526 Q 885 545 845 562 Q 832 566 812 558 Q 767 536 669 515 C 640 509 646 483 675 489 Q 682 490 688 491 Q 755 512 805 524 Q 821 528 828 520 Q 841 502 841 445 Q 842 303 835 259 L 831 229 Z" fill="black" /></g></svg>