<?xml version='1.0' encoding='utf-8'?>
<svg xmlns="http://www.w3.org/2000/svg" version="1.1" viewBox="0 0 1024 1024"><g transform="scale(1, -1) translate(0, -900)"><path d="M 748 730 Q 788 742 822 747 Q 835 748 838 745 Q 844 739 844 722 Q 845 676 838 653 Q 825 628 803 630 Q 788 631 775 634 Q 756 638 771 621 Q 799 594 814 573 Q 824 560 835 570 Q 874 600 890 707 Q 894 735 903 748 Q 913 758 908 767 Q 901 776 859 792 Q 843 799 828 787 Q 812 777 753 762 Q 693 746 642 739 Q 627 738 626 731 Q 625 725 644 716 Q 663 704 679 711 Q 700 718 719 723 L 748 730 Z" fill="black" /></g></svg>