<?xml version='1.0' encoding='utf-8'?>
<svg xmlns="http://www.w3.org/2000/svg" version="1.1" viewBox="0 0 1024 1024"><g transform="scale(1, -1) translate(0, -900)"><path d="M 716 497 Q 716 496 717 493 Q 721 480 731 481 Q 744 484 771 531 Q 786 573 815 596 Q 831 609 818 622 Q 805 635 763 658 Q 753 665 680 650 Q 656 650 526 624 Q 468 614 426 607 C 396 602 421 569 450 578 Q 474 587 522 595 L 532 598 Q 568 605 617 613 L 643 616 Q 722 631 739 621 Q 745 617 741 600 Q 726 536 720 521 L 716 497 Z" fill="black" /></g></svg>