<?xml version='1.0' encoding='utf-8'?>
<svg xmlns="http://www.w3.org/2000/svg" version="1.1" viewBox="0 0 1024 1024"><g transform="scale(1, -1) translate(0, -900)"><path d="M 675 480 Q 718 495 769 503 C 799 508 787 521 757 518 Q 693 512 617 497 Q 601 493 612 505 Q 733 616 784 645 Q 796 651 792 661 Q 786 679 762 699 Q 749 709 741 709 Q 732 708 732 694 Q 729 669 678 609 L 658 589 Q 565 502 544 493 Q 531 487 532 476 Q 531 464 550 445 Q 557 433 572 442 Q 609 461 649 473 L 675 480 Z" fill="black" /></g></svg>