<?xml version='1.0' encoding='utf-8'?>
<svg xmlns="http://www.w3.org/2000/svg" version="1.1" viewBox="0 0 1024 1024"><g transform="scale(1, -1) translate(0, -900)"><path d="M 573 514 Q 574 511 577 508 Q 587 486 594 487 Q 604 488 617 512 Q 629 531 627 548 Q 603 713 635 760 Q 642 772 636 779 Q 615 797 579 811 Q 567 815 550 808 Q 522 793 464 777 C 435 769 446 748 475 754 Q 479 754 484 755 Q 556 780 565 773 Q 577 758 577 709 Q 580 570 572 542 Q 571 541 570 538 C 566 526 566 526 573 514 Z" fill="black" /></g></svg>