<?xml version='1.0' encoding='utf-8'?>
<svg xmlns="http://www.w3.org/2000/svg" version="1.1" viewBox="0 0 1024 1024"><g transform="scale(1, -1) translate(0, -900)"><path d="M 361 466 Q 421 473 494 470 Q 510 469 516 472 Q 520 476 516 485 Q 512 492 485 508 Q 470 515 410 504 Q 359 504 219 471 Q 209 467 207 470 Q 200 474 203 488 Q 210 570 220 594 Q 224 606 214 615 Q 198 633 172 641 Q 160 645 154 638 Q 150 634 158 620 Q 173 598 173 565 Q 173 493 148 458 Q 141 446 145 438 Q 152 425 166 413 Q 176 406 187 417 Q 226 447 325 461 L 361 466 Z" fill="black" /></g></svg>