<?xml version='1.0' encoding='utf-8'?>
<svg xmlns="http://www.w3.org/2000/svg" version="1.1" viewBox="0 0 1024 1024"><g transform="scale(1, -1) translate(0, -900)"><path d="M 618 173 Q 691 29 801 -51 Q 873 -97 905 -93 Q 926 -86 915 -55 Q 905 -3 894 155 Q 891 179 882 178 Q 881 178 847 72 Q 835 23 800 37 Q 790 43 778 51 Q 694 129 653 210 L 628 262 Q 582 364 542 534 L 533 578 Q 514 680 518 762 Q 528 810 464 829 Q 422 844 401 833 Q 379 823 391 802 Q 448 759 451 721 Q 467 637 485 564 L 494 523 Q 539 342 595 220 L 618 173 Z" fill="black" /></g></svg>