<?xml version='1.0' encoding='utf-8'?>
<svg xmlns="http://www.w3.org/2000/svg" version="1.1" viewBox="0 0 1024 1024"><g transform="scale(1, -1) translate(0, -900)"><path d="M 696 290 Q 697 287 700 284 Q 712 262 718 263 Q 728 264 741 289 Q 747 301 748 348 Q 742 411 755 436 Q 762 448 757 455 Q 738 473 702 488 Q 692 492 674 485 Q 635 470 529 454 C 499 449 508 431 538 433 L 546 433 Q 613 449 663 455 Q 679 459 685 449 Q 692 442 693 413 Q 699 334 695 317 Q 694 317 694 316 C 691 299 691 299 696 290 Z" fill="black" /></g></svg>