<?xml version='1.0' encoding='utf-8'?>
<svg xmlns="http://www.w3.org/2000/svg" version="1.1" viewBox="0 0 1024 1024"><g transform="scale(1, -1) translate(0, -900)"><path d="M 294 317 Q 300 316 307 318 Q 410 348 417 337 Q 424 327 422 296 Q 418 212 400 174 Q 387 149 367 153 Q 349 159 334 167 Q 312 177 325 153 Q 356 110 370 79 Q 386 61 402 77 Q 450 111 470 237 Q 482 324 494 341 Q 504 353 499 361 Q 490 371 446 389 Q 428 396 412 384 Q 391 372 298 350 C 269 343 264 314 294 317 Z" fill="black" /></g></svg>