<?xml version='1.0' encoding='utf-8'?>
<svg xmlns="http://www.w3.org/2000/svg" version="1.1" viewBox="0 0 1024 1024"><g transform="scale(1, -1) translate(0, -900)"><path d="M 676 280 Q 634 371 588 542 L 576 593 Q 554 693 559 779 Q 569 827 504 845 Q 462 858 441 848 Q 419 839 432 818 Q 487 775 492 737 Q 510 650 528 576 L 540 530 Q 577 374 645 232 L 667 189 Q 739 59 841 -16 Q 910 -64 940 -60 Q 962 -54 952 -24 Q 946 25 948 166 Q 947 190 938 191 Q 905 128 872 65 Q 853 59 822 83 Q 759 138 708 219 Q 704 226 700 232 L 676 280 Z" fill="black" /></g></svg>