<?xml version='1.0' encoding='utf-8'?>
<svg xmlns="http://www.w3.org/2000/svg" version="1.1" viewBox="0 0 1024 1024"><g transform="scale(1, -1) translate(0, -900)"><path d="M 651 163 Q 714 52 811 -18 Q 874 -70 904 -70 Q 926 -66 918 -36 Q 915 16 927 167 Q 928 194 919 195 Q 913 195 870 94 Q 855 60 834 58 Q 821 62 799 76 Q 736 128 685 207 L 656 260 Q 596 384 559 533 L 548 579 Q 527 678 530 753 Q 539 796 480 813 Q 443 826 422 816 Q 403 807 414 788 Q 466 751 469 715 Q 485 634 503 565 L 514 522 Q 559 345 625 212 L 651 163 Z" fill="black" /></g></svg>