<?xml version='1.0' encoding='utf-8'?>
<svg xmlns="http://www.w3.org/2000/svg" version="1.1" viewBox="0 0 1024 1024"><g transform="scale(1, -1) translate(0, -900)"><path d="M 682 197 Q 733 83 824 6 Q 888 -43 918 -41 Q 939 -35 931 -6 Q 924 42 924 183 Q 923 205 914 206 Q 908 205 902 185 Q 865 83 844 82 Q 831 86 812 103 Q 760 157 719 232 L 697 282 Q 669 352 652 438 Q 648 457 643 475 L 634 523 Q 610 670 623 755 Q 636 798 576 821 Q 539 837 517 829 Q 495 822 506 801 Q 555 758 557 721 Q 573 600 590 505 L 599 460 Q 624 333 663 243 L 682 197 Z" fill="black" /></g></svg>