<?xml version='1.0' encoding='utf-8'?>
<svg xmlns="http://www.w3.org/2000/svg" version="1.1" viewBox="0 0 1024 1024"><g transform="scale(1, -1) translate(0, -900)"><path d="M 632 208 Q 695 94 835 -10 Q 877 -44 902 -46 Q 924 -42 917 -12 Q 916 34 930 169 Q 931 197 923 199 Q 916 199 904 176 Q 886 140 871 111 Q 856 81 844 82 Q 831 79 800 99 Q 743 144 667 250 L 639 301 Q 591 391 545 548 L 532 595 Q 508 691 508 767 Q 515 810 456 825 Q 419 837 398 826 Q 379 817 391 798 Q 443 761 448 727 Q 467 648 486 579 L 499 536 Q 544 385 606 256 L 632 208 Z" fill="black" /></g></svg>