<?xml version='1.0' encoding='utf-8'?>
<svg xmlns="http://www.w3.org/2000/svg" version="1.1" viewBox="0 0 1024 1024"><g transform="scale(1, -1) translate(0, -900)"><path d="M 573 527 Q 574 526 578 524 Q 666 460 741 435 Q 837 410 864 421 Q 874 425 861 452 Q 854 468 842 510 Q 843 544 831 557 Q 822 567 819 550 Q 791 492 764 485 Q 689 485 609 553 L 576 580 Q 542 610 508 651 L 479 687 Q 434 759 428 791 Q 424 825 376 827 Q 322 833 299 818 Q 292 814 294 803 Q 295 796 308 788 Q 348 782 435 662 Q 436 661 439 658 L 467 626 Q 503 587 542 553 L 573 527 Z" fill="black" /></g></svg>