<?xml version='1.0' encoding='utf-8'?>
<svg xmlns="http://www.w3.org/2000/svg" version="1.1" viewBox="0 0 1024 1024"><g transform="scale(1, -1) translate(0, -900)"><path d="M 656 188 Q 734 59 842 -20 Q 929 -66 952 -49 Q 974 -39 966 4 Q 956 35 944 154 Q 944 179 937 182 Q 933 183 927 162 Q 900 77 881 62 Q 865 55 822 88 Q 738 155 690 228 L 659 280 Q 595 398 563 539 L 553 587 Q 531 707 550 783 Q 560 811 511 838 Q 472 859 452 854 Q 431 851 444 821 Q 472 778 479 729 Q 492 650 510 573 L 521 529 Q 567 358 630 236 L 656 188 Z" fill="black" /></g></svg>