<?xml version='1.0' encoding='utf-8'?>
<svg xmlns="http://www.w3.org/2000/svg" version="1.1" viewBox="0 0 1024 1024"><g transform="scale(1, -1) translate(0, -900)"><path d="M 699 227 Q 756 101 850 29 Q 911 -19 941 -18 Q 960 -12 953 16 Q 949 64 955 203 Q 955 225 947 227 Q 943 227 903 135 Q 885 90 856 108 Q 847 114 838 121 Q 771 187 732 264 L 712 311 Q 685 377 654 507 L 644 559 Q 623 668 631 747 Q 643 790 584 809 Q 547 824 527 815 Q 506 808 517 787 Q 566 747 569 712 Q 584 618 601 539 L 611 491 Q 642 356 681 267 L 699 227 Z" fill="black" /></g></svg>