<?xml version='1.0' encoding='utf-8'?>
<svg xmlns="http://www.w3.org/2000/svg" version="1.1" viewBox="0 0 1024 1024"><g transform="scale(1, -1) translate(0, -900)"><path d="M 368 341 Q 383 320 397 314 Q 407 307 421 327 Q 433 348 456 460 Q 463 488 484 513 Q 496 525 485 537 Q 470 553 430 575 Q 412 584 358 566 Q 354 566 338 561 L 298 550 Q 241 538 204 526 C 175 517 188 484 217 493 Q 274 512 369 533 Q 390 537 397 530 Q 407 518 406 505 Q 388 382 373 370 C 361 350 361 350 368 341 Z" fill="black" /></g></svg>