<?xml version='1.0' encoding='utf-8'?>
<svg xmlns="http://www.w3.org/2000/svg" version="1.1" viewBox="0 0 1024 1024"><g transform="scale(1, -1) translate(0, -900)"><path d="M 645 196 Q 720 64 817 -8 Q 883 -53 912 -50 Q 933 -44 923 -15 Q 919 31 926 163 Q 927 185 919 186 Q 912 186 906 166 Q 887 129 869 98 Q 853 67 840 67 Q 827 66 798 87 Q 729 150 676 237 L 648 295 Q 594 421 556 602 L 547 654 Q 540 712 543 767 Q 553 815 488 833 Q 446 846 425 836 Q 403 827 416 806 Q 473 763 476 725 Q 485 680 495 638 L 505 593 Q 553 395 618 249 L 645 196 Z" fill="black" /></g></svg>