<?xml version='1.0' encoding='utf-8'?>
<svg xmlns="http://www.w3.org/2000/svg" version="1.1" viewBox="0 0 1024 1024"><g transform="scale(1, -1) translate(0, -900)"><path d="M 705 176 Q 750 85 832 19 Q 889 -33 918 -33 Q 937 -29 932 -1 Q 932 48 949 193 Q 950 217 943 219 Q 937 219 892 123 Q 871 77 843 95 Q 834 101 825 108 Q 779 153 741 214 L 715 264 Q 673 363 650 475 L 640 522 Q 616 639 625 736 Q 635 776 580 797 Q 544 812 525 803 Q 506 796 515 777 Q 563 737 564 703 Q 580 591 597 503 L 607 459 Q 637 321 682 225 L 705 176 Z" fill="black" /></g></svg>