<?xml version='1.0' encoding='utf-8'?>
<svg xmlns="http://www.w3.org/2000/svg" version="1.1" viewBox="0 0 1024 1024"><g transform="scale(1, -1) translate(0, -900)"><path d="M 257 406 Q 261 406 268 408 Q 326 430 370 440 Q 380 441 382 439 Q 388 433 387 413 Q 387 359 377 335 Q 362 307 339 311 Q 321 315 305 321 Q 284 328 299 307 Q 332 273 347 245 Q 357 232 371 242 Q 413 272 436 383 Q 436 417 455 441 Q 465 453 460 461 Q 451 470 408 487 Q 396 491 348 469 Q 279 447 247 438 C 218 430 228 399 257 406 Z" fill="black" /></g></svg>