<?xml version='1.0' encoding='utf-8'?>
<svg xmlns="http://www.w3.org/2000/svg" version="1.1" viewBox="0 0 1024 1024"><g transform="scale(1, -1) translate(0, -900)"><path d="M 583 101 Q 689 -10 797 -38 Q 872 -60 886 -42 Q 902 -30 888 1 Q 879 32 871 143 Q 871 162 866 166 Q 862 167 857 149 Q 818 37 789 36 Q 701 51 624 127 L 588 165 Q 537 228 516 270 L 499 309 Q 492 331 490 346 Q 489 371 443 377 Q 406 381 392 372 Q 376 363 395 344 Q 425 323 445 293 L 467 256 Q 507 195 551 138 L 583 101 Z" fill="black" /></g></svg>