<?xml version='1.0' encoding='utf-8'?>
<svg xmlns="http://www.w3.org/2000/svg" version="1.1" viewBox="0 0 1024 1024"><g transform="scale(1, -1) translate(0, -900)"><path d="M 527 172 Q 514 202 500 291 Q 499 306 493 310 Q 487 313 483 297 Q 461 203 443 172 Q 418 144 338 149 Q 307 152 281 163 Q 259 175 253 189 Q 228 243 257 406 C 261 429 261 429 247 438 Q 238 447 217 454 C 191 465 192 461 199 432 Q 209 399 207 365 Q 192 155 249 121 Q 264 114 285 105 Q 423 63 521 135 Q 539 148 527 172 Z" fill="black" /></g></svg>