<?xml version='1.0' encoding='utf-8'?>
<svg xmlns="http://www.w3.org/2000/svg" version="1.1" viewBox="0 0 1024 1024"><g transform="scale(1, -1) translate(0, -900)"><path d="M 692 192 Q 756 68 854 -7 Q 912 -55 941 -55 Q 960 -51 954 -23 Q 951 26 959 166 Q 959 190 951 191 Q 947 191 908 97 Q 890 54 860 70 Q 851 76 839 84 Q 776 141 726 223 Q 723 227 721 232 L 696 281 Q 639 407 599 599 L 591 651 Q 579 714 585 788 Q 595 828 540 845 Q 506 858 486 849 Q 467 842 478 824 Q 524 787 527 754 Q 537 693 549 638 L 559 592 Q 604 375 669 239 L 692 192 Z" fill="black" /></g></svg>