<?xml version='1.0' encoding='utf-8'?>
<svg xmlns="http://www.w3.org/2000/svg" version="1.1" viewBox="0 0 1024 1024"><g transform="scale(1, -1) translate(0, -900)"><path d="M 398 102 Q 414 77 428 50 Q 438 29 448 28 Q 458 28 467 50 Q 480 93 475 184 Q 466 293 476 324 Q 483 343 471 352 Q 464 362 429 377 Q 413 384 377 370 Q 346 357 309 345 Q 278 336 240 327 C 211 320 222 294 251 300 Q 261 301 273 305 Q 390 354 408 334 Q 417 325 417 193 Q 418 145 413 136 Q 410 132 406 129 C 393 110 393 110 398 102 Z" fill="black" /></g></svg>