<?xml version='1.0' encoding='utf-8'?>
<svg xmlns="http://www.w3.org/2000/svg" version="1.1" viewBox="0 0 1024 1024"><g transform="scale(1, -1) translate(0, -900)"><path d="M 698 205 Q 752 73 841 -8 Q 902 -54 932 -52 Q 951 -46 944 -19 Q 937 23 932 145 Q 931 166 923 166 Q 917 166 887 91 Q 871 58 849 71 Q 839 77 828 87 Q 777 144 739 221 Q 735 230 731 238 L 714 285 Q 689 358 672 465 L 664 511 Q 643 643 660 740 Q 673 782 616 805 Q 580 821 559 814 Q 538 807 548 787 Q 594 744 595 709 Q 607 588 622 494 L 630 451 Q 646 343 683 246 L 698 205 Z" fill="black" /></g></svg>