<?xml version='1.0' encoding='utf-8'?>
<svg xmlns="http://www.w3.org/2000/svg" version="1.1" viewBox="0 0 1024 1024"><g transform="scale(1, -1) translate(0, -900)"><path d="M 230 219 Q 239 249 248 278 L 257 313 Q 263 341 268 367 Q 268 370 268 372 L 274 400 Q 275 427 289 452 C 295 466 295 466 277 481 Q 247 508 231 507 C 206 514 206 514 215 489 Q 227 464 224 424 Q 206 267 166 172 Q 130 96 64 3 Q 60 -3 57 -8 Q 54 -17 63 -16 Q 105 -7 180 109 Q 181 113 184 117 Q 202 151 218 189 L 230 219 Z" fill="black" /></g></svg>