<?xml version='1.0' encoding='utf-8'?>
<svg xmlns="http://www.w3.org/2000/svg" version="1.1" viewBox="0 0 1024 1024"><g transform="scale(1, -1) translate(0, -900)"><path d="M 279 663 Q 345 688 398 699 Q 411 703 416 698 Q 420 692 416 680 Q 392 613 366 586 Q 356 579 359 567 Q 363 548 373 541 Q 383 535 394 544 Q 428 566 464 571 Q 480 575 487 568 Q 496 555 495 530 Q 494 466 473 413 Q 469 394 453 388 Q 444 385 389 395 Q 367 402 386 382 Q 413 354 433 327 Q 449 311 466 321 Q 509 351 527 417 Q 548 537 559 555 Q 572 568 562 579 Q 550 589 517 606 Q 498 613 480 605 Q 444 592 435 592 Q 419 593 428 613 Q 459 677 487 697 Q 509 710 503 720 Q 499 730 454 749 Q 441 755 384 729 Q 267 695 176 676 Q 167 676 166 671 Q 163 664 188 649 Q 213 636 236 648 Q 240 649 246 651 L 279 663 Z" fill="black" /></g></svg>