<?xml version='1.0' encoding='utf-8'?>
<svg xmlns="http://www.w3.org/2000/svg" version="1.1" viewBox="0 0 1024 1024"><g transform="scale(1, -1) translate(0, -900)"><path d="M 664 214 Q 721 78 813 -4 Q 877 -50 906 -49 Q 927 -43 918 -15 Q 911 34 905 180 Q 904 202 894 202 Q 891 202 861 107 Q 849 65 825 74 Q 813 80 798 94 Q 747 148 697 247 L 677 300 Q 653 367 622 542 L 616 587 Q 601 693 616 784 Q 629 826 572 849 Q 536 865 515 858 Q 494 851 504 831 Q 552 788 551 753 Q 561 656 573 574 L 579 535 Q 601 385 647 259 L 664 214 Z" fill="black" /></g></svg>