<?xml version='1.0' encoding='utf-8'?>
<svg xmlns="http://www.w3.org/2000/svg" version="1.1" viewBox="0 0 1024 1024"><g transform="scale(1, -1) translate(0, -900)"><path d="M 704 202 Q 746 94 823 19 Q 881 -35 911 -35 Q 933 -31 926 -2 Q 922 44 927 178 Q 927 202 919 203 Q 915 203 878 120 Q 860 84 839 97 Q 830 103 821 113 Q 776 164 741 239 L 724 288 Q 703 351 686 470 L 680 518 Q 667 635 684 717 Q 699 757 644 781 Q 610 797 589 792 Q 570 786 578 766 Q 621 723 620 689 Q 627 584 637 500 L 643 453 Q 655 347 690 243 L 704 202 Z" fill="black" /></g></svg>