<?xml version='1.0' encoding='utf-8'?>
<svg xmlns="http://www.w3.org/2000/svg" version="1.1" viewBox="0 0 1024 1024"><g transform="scale(1, -1) translate(0, -900)"><path d="M 693 174 Q 738 71 815 1 Q 879 -51 910 -51 Q 932 -47 924 -16 Q 917 32 916 170 Q 915 194 906 195 Q 900 194 894 172 Q 852 70 835 80 Q 823 86 808 100 Q 765 148 731 211 L 709 259 Q 681 335 665 436 Q 664 437 664 439 L 655 485 Q 631 644 648 749 Q 663 792 604 817 Q 567 835 545 827 Q 523 820 534 799 Q 582 754 581 718 Q 593 573 610 467 L 619 421 Q 638 307 675 219 L 693 174 Z" fill="black" /></g></svg>