<?xml version='1.0' encoding='utf-8'?>
<svg xmlns="http://www.w3.org/2000/svg" version="1.1" viewBox="0 0 1024 1024"><g transform="scale(1, -1) translate(0, -900)"><path d="M 705 208 Q 753 78 839 -5 Q 902 -54 931 -53 Q 952 -49 944 -19 Q 935 17 921 123 Q 920 147 910 146 Q 904 145 899 124 Q 874 70 862 70 Q 849 74 829 93 Q 780 151 743 231 Q 740 237 738 242 L 718 302 Q 700 359 686 459 L 680 504 Q 659 664 680 757 Q 695 797 640 821 Q 606 837 585 832 Q 566 826 574 806 Q 617 763 616 729 Q 625 593 639 489 L 645 446 Q 657 350 687 262 L 705 208 Z" fill="black" /></g></svg>