<?xml version='1.0' encoding='utf-8'?>
<svg xmlns="http://www.w3.org/2000/svg" version="1.1" viewBox="0 0 1024 1024"><g transform="scale(1, -1) translate(0, -900)"><path d="M 712 211 Q 769 81 851 9 Q 909 -40 938 -39 Q 959 -35 951 -7 Q 947 36 951 163 Q 951 185 943 186 Q 936 186 930 166 Q 915 135 902 107 Q 889 79 879 79 Q 866 79 841 102 Q 789 157 749 237 Q 748 240 746 242 L 725 298 Q 707 349 679 487 L 671 531 Q 650 666 666 762 Q 679 802 624 825 Q 590 841 569 834 Q 550 827 558 808 Q 604 765 603 732 Q 615 611 631 517 L 638 474 Q 659 348 693 261 L 712 211 Z" fill="black" /></g></svg>