<?xml version='1.0' encoding='utf-8'?>
<svg xmlns="http://www.w3.org/2000/svg" version="1.1" viewBox="0 0 1024 1024"><g transform="scale(1, -1) translate(0, -900)"><path d="M 730 160 Q 778 46 859 -31 Q 920 -77 950 -75 Q 969 -71 961 -42 Q 955 3 955 134 Q 954 153 947 154 Q 919 100 890 44 Q 875 40 846 66 Q 800 120 765 192 L 744 247 Q 705 359 705 417 L 698 463 Q 676 631 695 733 Q 711 776 652 801 Q 615 819 594 812 Q 572 805 581 784 Q 629 738 628 702 Q 638 554 655 445 L 663 402 Q 679 305 713 207 L 730 160 Z" fill="black" /></g></svg>