<?xml version='1.0' encoding='utf-8'?>
<svg xmlns="http://www.w3.org/2000/svg" version="1.1" viewBox="0 0 1024 1024"><g transform="scale(1, -1) translate(0, -900)"><path d="M 449 349 Q 453 340 463 341 Q 473 342 478 354 Q 485 363 499 410 Q 509 450 536 475 Q 549 488 536 499 Q 523 511 483 529 Q 471 535 414 519 Q 390 519 298 494 Q 261 485 236 480 C 207 474 219 442 247 452 Q 280 464 331 474 L 364 481 Q 443 502 461 492 Q 468 488 465 468 Q 453 380 447 373 C 441 355 441 355 449 349 Z" fill="black" /></g></svg>