<?xml version='1.0' encoding='utf-8'?>
<svg xmlns="http://www.w3.org/2000/svg" version="1.1" viewBox="0 0 1024 1024"><g transform="scale(1, -1) translate(0, -900)"><path d="M 687 187 Q 739 67 833 -17 Q 896 -66 926 -64 Q 947 -60 939 -30 Q 932 19 932 163 Q 931 185 922 186 Q 916 185 910 165 Q 874 60 854 58 Q 841 62 820 80 Q 765 138 723 219 Q 722 222 720 224 L 697 282 Q 652 402 629 587 L 625 630 Q 619 708 628 761 Q 641 803 584 825 Q 548 841 527 833 Q 506 826 516 806 Q 564 763 564 729 Q 570 674 578 621 L 583 583 Q 614 373 667 237 L 687 187 Z" fill="black" /></g></svg>