<?xml version='1.0' encoding='utf-8'?>
<svg xmlns="http://www.w3.org/2000/svg" version="1.1" viewBox="0 0 1024 1024"><g transform="scale(1, -1) translate(0, -900)"><path d="M 559 266 Q 569 251 639 238 Q 675 231 675 194 Q 672 185 669 168 Q 645 78 603 35 Q 596 28 585 26 Q 573 20 536 38 Q 499 60 494 54 Q 487 45 504 31 Q 540 -9 544 -47 Q 547 -65 559 -72 Q 572 -79 609 -61 Q 663 -25 705 88 Q 714 154 752 185 Q 765 189 767 200 Q 770 210 746 237 Q 713 271 654 272 Q 600 282 577 291 C 549 300 535 283 559 266 Z" fill="black" /></g></svg>