<?xml version='1.0' encoding='utf-8'?>
<svg xmlns="http://www.w3.org/2000/svg" version="1.1" viewBox="0 0 1024 1024"><g transform="scale(1, -1) translate(0, -900)"><path d="M 311 344 Q 332 402 348 459 L 355 485 Q 362 516 372 544 Q 376 563 384 579 Q 387 583 389 587 C 398 604 398 604 377 622 Q 365 635 347 646 Q 329 659 316 656 Q 303 652 307 636 Q 319 609 313 558 Q 261 332 207 229 Q 147 126 55 22 Q 48 16 46 10 Q 42 0 53 0 Q 86 0 179 106 Q 200 131 220 160 Q 262 224 296 303 L 311 344 Z" fill="black" /></g></svg>