<?xml version='1.0' encoding='utf-8'?>
<svg xmlns="http://www.w3.org/2000/svg" version="1.1" viewBox="0 0 1024 1024"><g transform="scale(1, -1) translate(0, -900)"><path d="M 434 49 Q 409 53 385 59 Q 367 63 369 56 Q 420 16 449 -16 Q 461 -32 474 -36 Q 481 -39 489 -31 Q 525 11 523 57 Q 505 340 528 376 Q 538 392 528 402 Q 510 418 480 431 Q 465 437 419 415 Q 398 408 355 401 Q 342 400 349 393 Q 356 383 369 379 Q 387 375 442 392 Q 458 396 463 388 Q 467 378 469 359 Q 473 188 466 84 Q 465 59 456 49 Q 452 45 434 49 Z" fill="black" /></g></svg>