<?xml version='1.0' encoding='utf-8'?>
<svg xmlns="http://www.w3.org/2000/svg" version="1.1" viewBox="0 0 1024 1024"><g transform="scale(1, -1) translate(0, -900)"><path d="M 312 347 Q 313 348 314 350 Q 333 411 347 472 L 353 501 Q 354 508 356 515 Q 368 590 378 611 C 386 634 386 634 373 645 Q 358 660 335 672 Q 316 685 303 681 Q 290 675 296 660 Q 311 627 304 570 Q 273 384 248 318 Q 241 299 233 280 Q 191 186 109 78 Q 103 72 101 66 Q 97 56 108 57 Q 123 57 164 101 Q 233 161 291 292 L 312 347 Z" fill="black" /></g></svg>