<?xml version='1.0' encoding='utf-8'?>
<svg xmlns="http://www.w3.org/2000/svg" version="1.1" viewBox="0 0 1024 1024"><g transform="scale(1, -1) translate(0, -900)"><path d="M 539 471 Q 540 341 545 136 Q 545 114 533 104 Q 523 95 496 102 Q 465 108 436 113 Q 399 123 403 112 Q 404 105 428 90 Q 507 39 528 8 Q 553 -29 571 -28 Q 587 -28 601 10 Q 617 59 612 138 Q 593 340 592 544 L 591 589 Q 591 688 607 746 Q 625 779 564 802 Q 527 821 507 812 Q 488 805 506 781 Q 530 753 532 715 Q 533 699 537 580 L 539 471 Z" fill="black" /></g></svg>