<?xml version='1.0' encoding='utf-8'?>
<svg xmlns="http://www.w3.org/2000/svg" version="1.1" viewBox="0 0 1024 1024"><g transform="scale(1, -1) translate(0, -900)"><path d="M 329 314 Q 328 239 327 146 Q 326 124 314 115 Q 311 112 252 116 Q 221 126 223 117 Q 224 110 244 96 Q 299 53 313 27 Q 329 -3 343 -4 Q 356 -5 370 29 Q 386 72 385 142 Q 379 245 378 347 L 377 379 Q 377 443 379 505 L 381 560 Q 381 671 401 735 Q 417 763 364 785 Q 333 803 313 797 Q 297 790 311 769 Q 332 742 333 710 Q 334 692 333 541 L 332 492 Q 331 432 329 354 L 329 314 Z" fill="black" /></g></svg>