<?xml version='1.0' encoding='utf-8'?>
<svg xmlns="http://www.w3.org/2000/svg" version="1.1" viewBox="0 0 1024 1024"><g transform="scale(1, -1) translate(0, -900)"><path d="M 527 385 Q 536 154 492 78 Q 488 69 479 66 Q 467 62 376 87 Q 369 88 366 85 Q 365 81 373 73 Q 437 19 470 -22 Q 482 -35 489 -33 Q 505 -32 532 -3 Q 590 57 589 171 Q 590 237 575 389 L 571 429 Q 562 519 555 563 L 547 611 Q 541 650 540 680 Q 540 699 528 706 Q 515 713 502 718 C 475 730 454 737 468 711 Q 486 687 506 600 L 513 554 Q 520 493 525 422 L 527 385 Z" fill="black" /></g></svg>