<?xml version='1.0' encoding='utf-8'?>
<svg xmlns="http://www.w3.org/2000/svg" version="1.1" viewBox="0 0 1024 1024"><g transform="scale(1, -1) translate(0, -900)"><path d="M 892 70 Q 879 91 854 158 Q 853 174 845 178 Q 838 181 836 163 Q 814 87 800 63 Q 778 38 715 20 Q 574 -20 449 25 Q 401 47 390 75 Q 378 99 377 160 L 379 191 Q 380 236 390 286 L 389 317 Q 383 330 351 342 Q 338 346 331 342 Q 324 338 329 321 Q 342 284 339 249 Q 332 98 344 56 Q 351 23 382 -3 Q 484 -73 697 -47 Q 734 -41 772 -31 Q 830 -13 889 26 Q 908 44 892 70 Z" fill="black" /></g></svg>