<?xml version='1.0' encoding='utf-8'?>
<svg xmlns="http://www.w3.org/2000/svg" version="1.1" viewBox="0 0 1024 1024"><g transform="scale(1, -1) translate(0, -900)"><path d="M 246 306 Q 243 221 242 111 Q 241 89 228 80 Q 222 74 154 87 Q 120 99 123 88 Q 124 81 145 66 Q 208 14 223 -14 Q 242 -48 257 -49 Q 272 -50 288 -15 Q 307 31 306 109 Q 300 227 300 344 L 300 373 Q 300 431 303 487 L 305 543 Q 305 642 327 718 Q 346 749 288 773 Q 254 792 233 786 Q 215 780 231 756 Q 253 728 254 692 Q 255 674 252 523 L 251 473 Q 250 418 247 345 L 246 306 Z" fill="black" /></g></svg>