<?xml version='1.0' encoding='utf-8'?>
<svg xmlns="http://www.w3.org/2000/svg" version="1.1" viewBox="0 0 1024 1024"><g transform="scale(1, -1) translate(0, -900)"><path d="M 305 308 Q 304 226 304 125 Q 303 100 290 91 Q 283 85 221 89 Q 188 99 191 88 Q 192 81 214 68 Q 274 25 290 0 Q 309 -30 323 -30 Q 336 -31 350 4 Q 366 49 363 122 L 354 376 Q 353 449 356 521 L 358 579 Q 358 684 378 753 Q 396 783 340 805 Q 306 824 287 817 Q 269 811 285 788 Q 307 760 308 727 Q 309 709 309 558 L 308 506 Q 307 439 306 347 L 305 308 Z" fill="black" /></g></svg>