<?xml version='1.0' encoding='utf-8'?>
<svg xmlns="http://www.w3.org/2000/svg" version="1.1" viewBox="0 0 1024 1024"><g transform="scale(1, -1) translate(0, -900)"><path d="M 569 606 Q 657 631 716 642 Q 737 646 743 637 Q 752 630 736 576 Q 702 471 668 437 Q 656 424 659 416 Q 660 406 673 396 Q 682 389 696 396 Q 730 417 797 417 Q 827 417 827 363 Q 824 209 754 105 Q 735 72 703 80 Q 666 92 628 106 Q 604 110 621 89 Q 667 40 699 -3 Q 711 -28 734 -14 Q 812 31 841 124 Q 860 191 883 340 Q 886 365 898 383 Q 911 401 897 414 Q 882 429 838 449 Q 822 453 798 447 Q 765 441 735 439 Q 722 438 722 445 Q 723 464 765 535 Q 808 607 828 622 Q 852 637 847 652 Q 838 673 781 696 Q 765 703 739 692 Q 706 676 547 636 Q 501 626 462 627 Q 443 628 446 614 Q 450 604 484 593 Q 502 589 531 594 L 569 606 Z" fill="black" /></g></svg>