<?xml version='1.0' encoding='utf-8'?>
<svg xmlns="http://www.w3.org/2000/svg" version="1.1" viewBox="0 0 1024 1024"><g transform="scale(1, -1) translate(0, -900)"><path d="M 294 302 L 292 132 Q 292 110 278 100 Q 273 98 207 110 Q 172 123 175 112 Q 176 105 207 80 Q 253 41 268 20 Q 272 14 274 7 Q 310 -58 335 -6 Q 336 -2 339 5 Q 359 53 357 129 Q 351 243 347 341 L 347 374 Q 346 443 349 519 L 349 576 Q 361 720 369 746 Q 387 777 329 800 Q 295 818 274 811 Q 257 805 272 782 Q 289 760 293 735 Q 298 711 297 597 Q 297 574 297 557 L 297 505 Q 296 437 294 347 L 294 302 Z" fill="black" /></g></svg>