<?xml version='1.0' encoding='utf-8'?>
<svg xmlns="http://www.w3.org/2000/svg" version="1.1" viewBox="0 0 1024 1024"><g transform="scale(1, -1) translate(0, -900)"><path d="M 302 319 Q 301 226 299 109 Q 298 84 284 75 Q 281 72 214 76 Q 180 86 183 76 Q 184 69 206 54 Q 267 6 283 -21 Q 301 -52 316 -53 Q 331 -54 346 -18 Q 364 28 361 105 Q 354 231 353 356 L 353 387 Q 353 463 356 538 L 358 595 Q 358 691 380 766 Q 398 797 340 821 Q 306 840 285 834 Q 267 827 283 803 Q 305 775 306 740 Q 307 721 306 577 L 306 526 Q 305 456 303 360 L 302 319 Z" fill="black" /></g></svg>