<?xml version='1.0' encoding='utf-8'?>
<svg xmlns="http://www.w3.org/2000/svg" version="1.1" viewBox="0 0 1024 1024"><g transform="scale(1, -1) translate(0, -900)"><path d="M 967 118 Q 954 149 936 245 Q 936 261 929 266 Q 923 269 919 252 Q 892 150 874 119 Q 861 100 820 90 Q 727 69 642 106 Q 609 124 599 146 Q 569 206 582 345 L 585 388 Q 589 437 599 492 Q 603 511 591 521 Q 579 531 561 540 C 535 556 519 552 528 523 Q 543 508 538 376 L 537 332 Q 531 121 581 72 Q 677 -6 847 26 Q 860 29 875 32 Q 918 45 960 77 Q 979 92 967 118 Z" fill="black" /></g></svg>