<?xml version='1.0' encoding='utf-8'?>
<svg xmlns="http://www.w3.org/2000/svg" version="1.1" viewBox="0 0 1024 1024"><g transform="scale(1, -1) translate(0, -900)"><path d="M 267 320 Q 266 230 265 117 Q 265 95 252 85 Q 248 82 181 91 Q 148 103 151 93 Q 152 86 172 71 Q 233 22 249 -5 Q 267 -38 282 -39 Q 297 -40 311 -5 Q 329 41 326 114 Q 319 240 317 365 L 317 397 Q 316 466 319 535 L 320 590 Q 320 594 321 596 Q 325 683 338 729 Q 356 759 300 781 Q 266 800 247 793 Q 229 786 245 763 Q 267 736 268 702 Q 269 686 269 566 L 269 518 Q 268 454 267 364 L 267 320 Z" fill="black" /></g></svg>