<?xml version='1.0' encoding='utf-8'?>
<svg xmlns="http://www.w3.org/2000/svg" version="1.1" viewBox="0 0 1024 1024"><g transform="scale(1, -1) translate(0, -900)"><path d="M 433 365 Q 420 362 417 354 Q 416 347 424 343 Q 458 339 515 358 Q 599 397 606 384 Q 612 374 599 357 Q 467 159 475 67 Q 479 31 506 9 Q 569 -48 736 -46 Q 824 -45 928 0 Q 961 16 951 41 Q 926 99 907 196 Q 901 209 894 209 Q 888 209 884 192 Q 880 158 874 121 Q 867 67 828 45 Q 788 24 696 23 Q 605 22 570 39 Q 539 55 529 86 Q 507 161 628 312 Q 665 358 703 381 Q 728 394 718 407 Q 709 422 658 446 Q 637 456 611 441 Q 518 386 433 365 Z" fill="black" /></g></svg>