<?xml version='1.0' encoding='utf-8'?>
<svg xmlns="http://www.w3.org/2000/svg" version="1.1" viewBox="0 0 1024 1024"><g transform="scale(1, -1) translate(0, -900)"><path d="M 285 356 Q 284 256 283 123 Q 282 99 270 91 Q 264 87 188 100 Q 157 110 159 101 Q 160 94 180 80 Q 246 34 264 5 Q 283 -26 300 -28 Q 313 -28 327 5 Q 343 48 340 119 Q 331 255 331 392 L 331 425 Q 330 486 333 545 L 335 601 Q 335 602 336 603 Q 340 687 353 731 Q 369 759 316 781 Q 285 799 265 792 Q 249 786 264 764 Q 283 739 286 706 Q 287 691 287 579 L 287 530 Q 286 473 285 397 L 285 356 Z" fill="black" /></g></svg>