<?xml version='1.0' encoding='utf-8'?>
<svg xmlns="http://www.w3.org/2000/svg" version="1.1" viewBox="0 0 1024 1024"><g transform="scale(1, -1) translate(0, -900)"><path d="M 305 372 Q 301 275 300 147 Q 299 125 286 115 Q 276 108 248 118 Q 217 127 188 135 Q 157 147 159 137 Q 160 130 180 116 Q 253 64 273 33 Q 297 -4 314 -4 Q 327 -5 342 28 Q 358 71 358 142 Q 351 275 352 407 L 353 437 Q 353 501 357 566 L 360 622 Q 360 697 380 762 Q 396 790 344 813 Q 313 832 293 825 Q 277 819 291 797 Q 312 772 312 738 Q 313 722 311 602 L 310 553 Q 309 493 306 411 L 305 372 Z" fill="black" /></g></svg>