<?xml version='1.0' encoding='utf-8'?>
<svg xmlns="http://www.w3.org/2000/svg" version="1.1" viewBox="0 0 1024 1024"><g transform="scale(1, -1) translate(0, -900)"><path d="M 280 331 Q 277 240 276 122 Q 275 98 261 89 Q 252 82 229 89 Q 202 95 177 100 Q 144 110 147 100 Q 148 93 169 79 Q 236 30 254 0 Q 275 -34 291 -35 Q 304 -36 320 -1 Q 338 44 335 117 Q 329 243 329 368 L 329 400 Q 329 470 333 538 L 336 595 Q 348 727 358 756 Q 374 786 320 809 Q 287 828 267 822 Q 251 815 265 792 Q 286 765 287 731 Q 288 715 286 577 L 285 526 Q 284 462 281 373 L 280 331 Z" fill="black" /></g></svg>