<?xml version='1.0' encoding='utf-8'?>
<svg xmlns="http://www.w3.org/2000/svg" version="1.1" viewBox="0 0 1024 1024"><g transform="scale(1, -1) translate(0, -900)"><path d="M 276 325 Q 275 237 273 128 Q 272 104 259 95 Q 253 92 193 105 Q 160 118 163 109 Q 164 102 183 86 Q 241 34 255 5 Q 271 -29 286 -31 Q 299 -32 316 3 Q 335 48 335 122 Q 328 243 326 362 L 326 393 Q 325 463 328 530 L 330 589 Q 342 727 350 753 Q 368 783 312 805 Q 278 824 259 817 Q 241 811 257 788 Q 279 760 280 727 Q 281 709 280 568 L 279 514 Q 278 450 276 365 L 276 325 Z" fill="black" /></g></svg>