<?xml version='1.0' encoding='utf-8'?>
<svg xmlns="http://www.w3.org/2000/svg" version="1.1" viewBox="0 0 1024 1024"><g transform="scale(1, -1) translate(0, -900)"><path d="M 659 682 Q 643 683 647 672 Q 654 659 676 649 Q 692 640 736 654 Q 835 696 849 648 Q 853 630 856 595 Q 869 379 853 135 Q 852 99 838 89 Q 822 79 741 98 Q 725 101 726 91 Q 727 84 740 78 Q 810 32 849 -5 Q 870 -24 882 -22 Q 895 -19 906 10 Q 922 55 920 121 Q 901 601 924 645 Q 936 667 926 678 Q 916 694 868 718 Q 847 727 789 710 Q 671 685 659 682 Z" fill="black" /></g></svg>