<?xml version='1.0' encoding='utf-8'?>
<svg xmlns="http://www.w3.org/2000/svg" version="1.1" viewBox="0 0 1024 1024"><g transform="scale(1, -1) translate(0, -900)"><path d="M 637 382 Q 638 388 639 393 L 642 432 Q 646 495 653 555 L 658 607 Q 661 716 692 769 Q 699 784 689 795 Q 667 814 628 828 Q 603 835 593 829 Q 584 822 591 809 Q 613 772 614 724 Q 614 660 611 595 L 608 544 Q 604 483 595 423 L 590 384 Q 569 231 481 158 Q 447 133 398 106 Q 385 99 385 95 Q 386 91 397 90 Q 412 86 448 98 Q 571 131 614 262 Q 624 296 631 337 L 637 382 Z" fill="black" /></g></svg>