<?xml version='1.0' encoding='utf-8'?>
<svg xmlns="http://www.w3.org/2000/svg" version="1.1" viewBox="0 0 1024 1024"><g transform="scale(1, -1) translate(0, -900)"><path d="M 487 436 Q 487 535 492 558 Q 496 571 487 583 Q 463 604 441 614 Q 423 621 414 616 Q 404 609 413 594 Q 458 504 429 238 Q 420 202 393 165 Q 383 149 390 127 Q 400 102 414 90 Q 427 83 439 100 Q 452 131 595 263 Q 613 276 616 286 Q 620 296 610 296 Q 598 296 486 222 Q 479 218 477 224 Q 484 326 487 410 L 487 436 Z" fill="black" /></g></svg>