<?xml version='1.0' encoding='utf-8'?>
<svg xmlns="http://www.w3.org/2000/svg" version="1.1" viewBox="0 0 1024 1024"><g transform="scale(1, -1) translate(0, -900)"><path d="M 308 340 Q 307 249 305 132 Q 304 108 291 99 Q 288 95 221 94 Q 187 103 191 93 Q 194 86 215 73 Q 275 31 292 7 Q 311 -21 325 -22 Q 338 -23 352 12 Q 368 58 363 130 Q 356 254 356 378 L 356 408 Q 356 469 358 530 L 360 585 Q 367 721 382 768 Q 398 799 344 821 Q 310 840 291 833 Q 273 827 289 804 Q 311 777 312 743 Q 313 724 312 568 L 311 519 Q 310 459 308 380 L 308 340 Z" fill="black" /></g></svg>