<?xml version='1.0' encoding='utf-8'?>
<svg xmlns="http://www.w3.org/2000/svg" version="1.1" viewBox="0 0 1024 1024"><g transform="scale(1, -1) translate(0, -900)"><path d="M 973 90 Q 955 132 943 206 Q 940 222 933 226 Q 926 230 923 211 Q 910 120 897 103 Q 873 76 772 72 Q 717 73 694 81 Q 673 91 668 105 Q 658 133 659 209 Q 666 290 682 329 Q 695 357 676 374 Q 630 411 614 407 Q 599 401 607 385 Q 625 349 620 296 Q 611 104 636 71 Q 655 41 725 31 Q 776 24 856 26 Q 929 29 957 44 Q 985 60 973 90 Z" fill="black" /></g></svg>