<?xml version='1.0' encoding='utf-8'?>
<svg xmlns="http://www.w3.org/2000/svg" version="1.1" viewBox="0 0 1024 1024"><g transform="scale(1, -1) translate(0, -900)"><path d="M 651 209 Q 581 115 463 73 Q 450 66 462 60 Q 468 53 510 57 Q 603 67 681 162 L 713 207 Q 755 285 792 406 Q 802 437 821 459 Q 840 478 824 491 Q 809 503 774 511 Q 753 515 683 481 Q 578 447 553 440 C 524 431 520 418 550 414 Q 590 404 640 424 Q 695 451 705 451 Q 730 452 729 424 Q 711 321 675 249 L 651 209 Z" fill="black" /></g></svg>