<?xml version='1.0' encoding='utf-8'?>
<svg xmlns="http://www.w3.org/2000/svg" version="1.1" viewBox="0 0 1024 1024"><g transform="scale(1, -1) translate(0, -900)"><path d="M 679 180 Q 716 219 765 344 Q 778 375 801 395 Q 822 413 807 427 Q 794 440 759 453 Q 734 462 703 446 Q 678 437 650 427 L 606 413 Q 555 401 479 392 Q 464 391 459 383 Q 455 376 475 367 Q 515 352 568 369 Q 665 400 684 400 Q 709 397 702 371 Q 680 272 638 216 L 614 185 Q 548 113 413 73 Q 397 69 410 59 Q 417 55 462 57 Q 555 64 647 145 L 679 180 Z" fill="black" /></g></svg>