<?xml version='1.0' encoding='utf-8'?>
<svg xmlns="http://www.w3.org/2000/svg" version="1.1" viewBox="0 0 1024 1024"><g transform="scale(1, -1) translate(0, -900)"><path d="M 338 421 Q 338 485 341 548 L 343 606 Q 343 607 344 607 Q 348 695 362 741 Q 380 771 324 793 Q 290 812 271 805 Q 253 799 269 776 Q 291 748 292 715 Q 293 700 292 585 L 291 533 Q 290 472 288 389 L 287 341 Q 286 259 284 153 Q 283 131 271 123 Q 262 117 209 130 Q 176 143 179 133 Q 180 126 199 110 Q 254 59 268 32 Q 284 -1 298 -3 Q 313 -4 328 31 Q 347 76 347 150 Q 340 265 339 382 L 338 421 Z" fill="black" /></g></svg>