<?xml version='1.0' encoding='utf-8'?>
<svg xmlns="http://www.w3.org/2000/svg" version="1.1" viewBox="0 0 1024 1024"><g transform="scale(1, -1) translate(0, -900)"><path d="M 543 324 Q 539 361 536 404 L 532 441 Q 525 499 522 520 Q 521 521 521 523 L 516 565 Q 513 605 510 609 L 496 623 Q 471 639 450 644 Q 438 648 430 642 Q 426 639 438 625 Q 456 601 467 549 L 474 512 Q 480 472 484 425 L 487 391 Q 490 340 491 311 L 492 269 Q 493 130 461 75 Q 458 68 450 65 Q 443 62 357 75 Q 348 76 346 73 Q 345 69 353 61 Q 411 9 443 -29 Q 453 -42 460 -40 Q 475 -39 499 -14 Q 556 46 551 204 Q 548 237 546 280 L 543 324 Z" fill="black" /></g></svg>