<?xml version='1.0' encoding='utf-8'?>
<svg xmlns="http://www.w3.org/2000/svg" version="1.1" viewBox="0 0 1024 1024"><g transform="scale(1, -1) translate(0, -900)"><path d="M 646 235 Q 712 97 808 11 Q 887 -38 910 -23 Q 931 -14 926 26 Q 919 65 919 204 Q 920 226 914 230 Q 910 231 903 212 Q 870 86 842 84 Q 782 102 707 223 Q 695 245 682 269 L 660 321 Q 621 417 609 508 L 602 554 Q 590 683 611 747 Q 623 774 579 801 Q 545 825 526 821 Q 505 820 515 792 Q 539 749 541 703 Q 548 619 561 539 L 569 495 Q 588 384 626 286 L 646 235 Z" fill="black" /></g></svg>