<?xml version='1.0' encoding='utf-8'?>
<svg xmlns="http://www.w3.org/2000/svg" version="1.1" viewBox="0 0 1024 1024"><g transform="scale(1, -1) translate(0, -900)"><path d="M 602 400 Q 710 436 741 443 Q 753 446 756 442 Q 763 432 761 406 Q 757 331 741 298 Q 726 268 700 272 Q 675 278 654 286 Q 632 292 648 271 Q 690 234 710 203 Q 725 187 739 200 Q 793 237 814 388 Q 820 425 834 444 Q 844 457 838 466 Q 829 476 781 494 Q 762 501 745 489 Q 717 468 591 438 C 562 431 574 391 602 400 Z" fill="black" /></g></svg>