<?xml version='1.0' encoding='utf-8'?>
<svg xmlns="http://www.w3.org/2000/svg" version="1.1" viewBox="0 0 1024 1024"><g transform="scale(1, -1) translate(0, -900)"><path d="M 301 315 Q 300 224 298 112 Q 298 87 284 78 Q 280 74 209 87 Q 176 99 179 89 Q 180 82 200 67 Q 263 16 279 -12 Q 298 -46 313 -47 Q 328 -48 342 -13 Q 361 33 359 106 Q 352 230 350 354 L 350 387 Q 349 454 352 522 L 353 577 Q 359 718 374 765 Q 392 795 336 817 Q 302 836 283 829 Q 265 822 281 800 Q 303 772 304 738 Q 305 719 304 559 L 304 510 Q 303 444 301 358 L 301 315 Z" fill="black" /></g></svg>