<?xml version='1.0' encoding='utf-8'?>
<svg xmlns="http://www.w3.org/2000/svg" version="1.1" viewBox="0 0 1024 1024"><g transform="scale(1, -1) translate(0, -900)"><path d="M 287 334 Q 286 246 284 137 Q 283 113 271 104 Q 267 101 202 110 Q 168 123 171 112 Q 172 105 193 89 Q 253 38 268 9 Q 284 -24 300 -25 Q 316 -26 331 9 Q 350 57 349 133 Q 342 256 340 378 L 340 413 Q 340 477 342 541 L 344 599 Q 344 687 364 759 Q 382 790 324 813 Q 290 832 269 826 Q 251 819 267 795 Q 289 767 291 731 Q 292 715 291 576 L 290 525 Q 289 462 287 379 L 287 334 Z" fill="black" /></g></svg>