<?xml version='1.0' encoding='utf-8'?>
<svg xmlns="http://www.w3.org/2000/svg" version="1.1" viewBox="0 0 1024 1024"><g transform="scale(1, -1) translate(0, -900)"><path d="M 273 332 Q 272 250 270 149 Q 269 127 257 117 Q 254 116 193 119 Q 160 131 163 121 Q 164 114 184 99 Q 241 53 255 26 Q 271 -5 286 -7 Q 301 -8 315 27 Q 333 72 331 146 Q 325 257 324 367 L 324 399 Q 324 465 327 529 L 329 585 Q 329 682 350 752 Q 366 783 312 805 Q 278 824 259 817 Q 241 811 257 788 Q 279 761 279 727 Q 280 711 279 565 L 278 515 Q 277 454 274 373 L 273 332 Z" fill="black" /></g></svg>