<?xml version='1.0' encoding='utf-8'?>
<svg xmlns="http://www.w3.org/2000/svg" version="1.1" viewBox="0 0 1024 1024"><g transform="scale(1, -1) translate(0, -900)"><path d="M 274 332 Q 273 244 270 135 Q 269 111 256 102 Q 247 98 189 110 Q 156 123 159 113 Q 160 106 180 90 Q 238 39 252 12 Q 268 -21 283 -23 Q 298 -24 313 11 Q 332 56 331 129 Q 325 253 326 375 L 326 412 Q 326 479 330 544 L 332 599 Q 332 690 354 764 Q 370 794 316 817 Q 283 836 263 830 Q 247 823 261 800 Q 282 773 283 739 Q 284 721 281 576 L 280 528 Q 279 465 276 381 L 274 332 Z" fill="black" /></g></svg>