<?xml version='1.0' encoding='utf-8'?>
<svg xmlns="http://www.w3.org/2000/svg" version="1.1" viewBox="0 0 1024 1024"><g transform="scale(1, -1) translate(0, -900)"><path d="M 471 577 Q 449 598 434 599 Q 422 602 416 597 Q 407 590 418 578 Q 437 544 437 514 Q 441 408 434 373 Q 431 345 420 328 Q 408 307 418 287 Q 430 256 446 246 Q 456 239 468 258 Q 496 300 595 408 Q 611 423 611 430 Q 611 443 593 431 Q 494 362 485 365 Q 479 368 478 384 Q 479 511 485 544 Q 486 554 484 562 C 484 566 484 566 471 577 Z" fill="black" /></g></svg>