<?xml version='1.0' encoding='utf-8'?>
<svg xmlns="http://www.w3.org/2000/svg" version="1.1" viewBox="0 0 1024 1024"><g transform="scale(1, -1) translate(0, -900)"><path d="M 655 181 Q 700 241 739 335 Q 752 365 773 383 Q 792 399 780 413 Q 767 426 734 438 Q 709 447 682 433 Q 651 420 611 408 Q 571 395 503 387 Q 488 386 484 378 Q 480 371 499 363 Q 536 350 588 365 Q 651 389 663 389 Q 685 386 679 362 Q 657 271 616 215 L 592 186 Q 520 114 393 80 Q 378 76 390 67 Q 397 63 441 65 Q 498 69 563 105 Q 596 123 623 148 L 655 181 Z" fill="black" /></g></svg>