<?xml version='1.0' encoding='utf-8'?>
<svg xmlns="http://www.w3.org/2000/svg" version="1.1" viewBox="0 0 1024 1024"><g transform="scale(1, -1) translate(0, -900)"><path d="M 316 92 Q 316 110 316 127 Q 309 241 307 354 L 307 386 Q 306 447 308 507 L 310 564 Q 310 678 329 739 Q 345 767 292 789 Q 261 807 241 800 Q 225 794 240 772 Q 259 747 262 714 Q 263 696 262 546 L 262 495 Q 261 437 260 359 L 259 316 Q 258 234 258 131 Q 258 109 245 99 Q 236 93 214 100 Q 189 106 164 111 Q 133 123 135 113 Q 136 106 156 92 Q 220 43 238 14 Q 257 -19 274 -20 Q 287 -21 302 13 Q 311 38 314 73 L 316 92 Z" fill="black" /></g></svg>