<?xml version='1.0' encoding='utf-8'?>
<svg xmlns="http://www.w3.org/2000/svg" version="1.1" viewBox="0 0 1024 1024"><g transform="scale(1, -1) translate(0, -900)"><path d="M 551 382 Q 572 383 589 394 Q 608 403 630 411 Q 646 418 652 411 Q 658 407 656 387 Q 629 255 639 186 Q 639 120 704 53 Q 749 17 854 21 Q 915 22 966 48 Q 991 64 977 92 Q 946 162 938 242 Q 934 252 928 252 Q 924 252 917 237 Q 898 117 875 102 Q 836 81 752 94 Q 737 98 730 107 Q 700 132 689 190 Q 677 250 700 331 Q 713 379 741 405 Q 774 432 691 462 Q 664 472 648 461 Q 617 439 533 412 C 505 402 522 375 551 382 Z" fill="black" /></g></svg>