<?xml version='1.0' encoding='utf-8'?>
<svg xmlns="http://www.w3.org/2000/svg" version="1.1" viewBox="0 0 1024 1024"><g transform="scale(1, -1) translate(0, -900)"><path d="M 903 499 Q 918 505 908 521 Q 893 540 875 549 Q 862 556 839 545 Q 808 529 767 531 Q 742 531 733 549 Q 721 571 733 632 Q 736 671 773 708 Q 791 724 773 738 Q 749 757 722 769 Q 712 775 694 764 Q 640 736 569 716 C 540 708 543 671 572 679 Q 581 680 660 710 Q 678 720 684 717 Q 691 716 692 701 Q 679 560 686 537 Q 693 512 715 497 Q 746 478 810 480 Q 871 481 903 499 Z" fill="black" /></g></svg>