<?xml version='1.0' encoding='utf-8'?>
<svg xmlns="http://www.w3.org/2000/svg" version="1.1" viewBox="0 0 1024 1024"><g transform="scale(1, -1) translate(0, -900)"><path d="M 288 333 Q 287 245 285 134 Q 284 112 272 102 Q 262 96 237 105 Q 209 114 181 122 Q 148 135 151 125 Q 152 118 172 102 Q 242 47 261 15 Q 282 -22 300 -23 Q 313 -24 329 11 Q 348 56 347 130 Q 340 251 339 373 L 338 401 Q 338 468 341 536 L 343 598 Q 343 599 344 599 Q 348 687 362 733 Q 380 763 324 785 Q 290 804 271 797 Q 253 791 269 768 Q 291 740 292 707 Q 293 692 292 577 L 291 523 Q 290 459 288 372 L 288 333 Z" fill="black" /></g></svg>