<?xml version='1.0' encoding='utf-8'?>
<svg xmlns="http://www.w3.org/2000/svg" version="1.1" viewBox="0 0 1024 1024"><g transform="scale(1, -1) translate(0, -900)"><path d="M 288 352 Q 287 273 285 177 Q 284 155 271 146 Q 267 142 204 145 Q 173 155 175 145 Q 176 138 197 125 Q 255 82 270 58 Q 288 30 302 28 Q 315 28 329 61 Q 345 104 341 174 Q 335 280 335 387 L 335 422 Q 335 489 338 554 L 340 614 Q 340 713 360 778 Q 376 806 324 829 Q 293 848 273 841 Q 257 835 271 813 Q 292 786 293 754 Q 294 738 293 594 L 292 540 Q 291 479 289 398 L 288 352 Z" fill="black" /></g></svg>