<?xml version='1.0' encoding='utf-8'?>
<svg xmlns="http://www.w3.org/2000/svg" version="1.1" viewBox="0 0 1024 1024"><g transform="scale(1, -1) translate(0, -900)"><path d="M 765 461 Q 792 471 817 477 Q 829 480 832 476 Q 844 457 835 409 Q 817 274 784 216 Q 771 192 751 195 Q 730 202 712 212 Q 693 219 705 199 Q 741 160 756 131 Q 778 109 797 130 Q 828 155 848 198 Q 872 247 881 398 Q 884 452 901 478 Q 911 490 905 498 Q 898 507 854 522 Q 838 529 822 517 Q 810 508 771 494 L 725 478 Q 683 465 648 459 Q 635 458 633 450 Q 632 443 652 436 Q 673 426 688 433 Q 703 440 719 445 L 765 461 Z" fill="black" /></g></svg>