<?xml version='1.0' encoding='utf-8'?>
<svg xmlns="http://www.w3.org/2000/svg" version="1.1" viewBox="0 0 1024 1024"><g transform="scale(1, -1) translate(0, -900)"><path d="M 690 86 Q 724 128 785 212 Q 816 251 835 260 Q 857 270 858 281 Q 858 293 842 305 Q 820 323 795 335 Q 770 345 733 326 Q 669 305 625 299 Q 601 292 607 321 Q 616 373 627 426 L 635 470 Q 645 525 657 579 L 667 631 Q 686 745 708 770 Q 721 786 701 801 Q 677 819 630 835 Q 614 841 605 833 Q 596 826 611 803 Q 635 770 616 616 L 610 569 Q 609 565 609 558 Q 603 513 592 462 L 582 418 Q 558 328 537 306 Q 510 273 536 236 Q 543 224 563 239 Q 612 273 723 286 Q 748 290 747 285 Q 747 279 667 103 C 655 76 671 62 690 86 Z" fill="black" /></g></svg>