<?xml version='1.0' encoding='utf-8'?>
<svg xmlns="http://www.w3.org/2000/svg" version="1.1" viewBox="0 0 1024 1024"><g transform="scale(1, -1) translate(0, -900)"><path d="M 531 674 L 531 675 Q 521 685 490 700 Q 469 710 461 703 Q 454 696 462 680 Q 481 646 483 581 Q 493 364 478 162 Q 477 122 453 84 Q 443 68 452 47 Q 461 25 472 17 Q 482 10 500 22 Q 552 59 634 79 Q 728 98 909 104 Q 934 104 935 116 Q 934 132 904 151 Q 886 166 780 142 Q 534 108 534 110 Q 531 114 531 125 Q 535 320 534 565 Q 533 611 537 642 C 539 668 539 668 531 674 Z" fill="black" /></g></svg>