<?xml version='1.0' encoding='utf-8'?>
<svg xmlns="http://www.w3.org/2000/svg" version="1.1" viewBox="0 0 1024 1024"><g transform="scale(1, -1) translate(0, -900)"><path d="M 932 73 Q 914 116 903 193 Q 902 209 894 214 Q 885 218 882 199 Q 866 106 851 89 Q 833 68 743 64 Q 695 65 674 73 Q 656 83 652 95 Q 645 120 647 183 Q 653 253 668 286 Q 681 316 662 333 Q 613 372 596 368 Q 595 368 595 367 C 580 369 580 369 589 342 Q 605 306 602 252 Q 595 90 620 57 Q 645 32 697 22 Q 745 12 819 13 Q 886 13 914 26 Q 944 42 932 73 Z" fill="black" /></g></svg>