<?xml version='1.0' encoding='utf-8'?>
<svg xmlns="http://www.w3.org/2000/svg" version="1.1" viewBox="0 0 1024 1024"><g transform="scale(1, -1) translate(0, -900)"><path d="M 533 266 Q 537 309 545 354 Q 549 372 538 381 Q 525 394 502 403 Q 489 407 481 402 Q 474 398 480 380 Q 493 343 490 305 Q 481 139 495 93 Q 499 71 520 53 Q 583 -1 736 22 Q 754 25 772 30 Q 809 42 847 67 Q 863 83 851 106 Q 838 134 817 219 Q 816 234 809 238 Q 803 241 800 224 Q 779 133 763 103 Q 736 70 640 72 Q 603 73 575 85 Q 550 97 543 112 Q 525 149 530 239 L 533 266 Z" fill="black" /></g></svg>