<?xml version='1.0' encoding='utf-8'?>
<svg xmlns="http://www.w3.org/2000/svg" version="1.1" viewBox="0 0 1024 1024"><g transform="scale(1, -1) translate(0, -900)"><path d="M 293 104 Q 286 228 285 350 L 284 377 Q 284 450 287 520 L 288 571 Q 294 704 309 747 Q 325 775 272 797 Q 241 815 221 809 Q 205 802 220 780 Q 239 755 241 722 Q 242 704 242 551 L 241 507 Q 240 440 238 350 L 238 311 Q 237 221 235 110 Q 234 85 221 76 Q 214 73 144 90 Q 113 103 115 93 Q 116 86 135 71 Q 198 20 213 -9 Q 232 -43 247 -44 Q 262 -45 276 -12 Q 289 24 292 77 L 293 104 Z" fill="black" /></g></svg>