<?xml version='1.0' encoding='utf-8'?>
<svg xmlns="http://www.w3.org/2000/svg" version="1.1" viewBox="0 0 1024 1024"><g transform="scale(1, -1) translate(0, -900)"><path d="M 639 181 Q 582 109 432 61 Q 419 57 427 50 Q 434 44 461 49 Q 603 67 669 143 L 698 182 Q 735 242 762 333 Q 768 366 786 382 Q 801 395 783 410 Q 764 425 732 436 Q 713 443 692 432 Q 673 422 653 413 L 611 398 Q 517 377 512 373 Q 505 366 522 358 Q 547 346 583 360 Q 635 375 687 389 Q 705 396 706 375 Q 706 297 663 217 L 639 181 Z" fill="black" /></g></svg>