<?xml version='1.0' encoding='utf-8'?>
<svg xmlns="http://www.w3.org/2000/svg" version="1.1" viewBox="0 0 1024 1024"><g transform="scale(1, -1) translate(0, -900)"><path d="M 536 89 Q 617 89 689 159 L 720 199 Q 748 248 776 323 Q 786 353 806 371 Q 825 387 812 401 Q 799 413 766 423 Q 742 430 716 415 Q 641 390 551 382 C 521 379 520 357 550 353 Q 583 346 623 355 Q 684 374 694 373 Q 722 373 719 342 Q 706 275 683 229 L 660 193 Q 644 171 622 155 Q 585 127 539 109 C 511 97 506 87 536 89 Z" fill="black" /></g></svg>