<?xml version='1.0' encoding='utf-8'?>
<svg xmlns="http://www.w3.org/2000/svg" version="1.1" viewBox="0 0 1024 1024"><g transform="scale(1, -1) translate(0, -900)"><path d="M 891 82 Q 878 110 860 193 Q 860 209 853 214 Q 847 217 843 200 Q 816 110 798 82 Q 783 66 744 56 Q 651 34 576 63 Q 546 78 539 95 Q 512 149 546 330 C 551 360 551 360 537 369 Q 525 379 506 387 Q 493 391 485 387 Q 478 383 483 365 Q 496 326 492 290 Q 479 124 492 77 Q 496 53 518 33 Q 611 -33 786 0 Q 792 1 799 3 Q 842 13 884 42 Q 903 57 891 82 Z" fill="black" /></g></svg>