<?xml version='1.0' encoding='utf-8'?>
<svg xmlns="http://www.w3.org/2000/svg" version="1.1" viewBox="0 0 1024 1024"><g transform="scale(1, -1) translate(0, -900)"><path d="M 268 330 Q 267 245 264 140 Q 263 116 250 107 Q 249 107 184 111 Q 153 123 155 113 Q 156 106 176 92 Q 233 46 247 20 Q 263 -11 278 -12 Q 291 -13 306 20 Q 322 63 322 134 Q 316 252 316 368 L 316 403 Q 316 467 319 530 L 322 589 Q 328 721 344 770 Q 360 798 308 821 Q 277 840 257 833 Q 241 827 255 805 Q 276 778 276 746 Q 277 727 275 570 L 274 517 Q 273 456 270 375 L 268 330 Z" fill="black" /></g></svg>