<?xml version='1.0' encoding='utf-8'?>
<svg xmlns="http://www.w3.org/2000/svg" version="1.1" viewBox="0 0 1024 1024"><g transform="scale(1, -1) translate(0, -900)"><path d="M 546 330 Q 549 331 551 331 Q 584 347 671 369 Q 678 370 685 367 Q 695 363 694 346 Q 693 306 676 233 Q 673 211 652 215 Q 624 221 601 227 Q 588 230 591 222 Q 592 213 615 195 Q 645 167 662 137 Q 669 128 678 131 Q 685 132 699 154 Q 712 172 728 232 Q 741 343 755 355 Q 765 364 761 374 Q 754 384 721 406 Q 709 415 656 400 Q 650 400 537 369 C 508 361 518 320 546 330 Z" fill="black" /></g></svg>