<?xml version='1.0' encoding='utf-8'?>
<svg xmlns="http://www.w3.org/2000/svg" version="1.1" viewBox="0 0 1024 1024"><g transform="scale(1, -1) translate(0, -900)"><path d="M 284 349 Q 283 252 281 126 Q 280 104 268 94 Q 262 91 185 110 Q 152 123 155 112 Q 156 105 176 90 Q 243 36 259 6 Q 278 -30 296 -31 Q 309 -32 325 3 Q 344 48 343 122 Q 336 255 334 387 L 334 420 Q 334 481 337 540 L 339 597 Q 339 598 340 599 Q 344 687 358 733 Q 376 763 320 785 Q 286 804 267 797 Q 249 791 265 768 Q 287 740 288 707 Q 289 692 288 575 L 287 524 Q 286 467 285 391 L 284 349 Z" fill="black" /></g></svg>