<?xml version='1.0' encoding='utf-8'?>
<svg xmlns="http://www.w3.org/2000/svg" version="1.1" viewBox="0 0 1024 1024"><g transform="scale(1, -1) translate(0, -900)"><path d="M 281 324 Q 278 240 277 135 Q 276 111 264 103 Q 260 100 193 114 Q 160 127 163 117 Q 164 110 183 94 Q 244 42 258 13 Q 274 -21 291 -23 Q 304 -24 320 11 Q 339 56 339 130 Q 332 248 332 364 L 332 397 Q 332 454 334 508 L 336 566 Q 343 701 358 744 Q 374 775 320 797 Q 286 816 267 809 Q 249 803 265 780 Q 287 753 287 719 Q 288 700 286 545 L 285 494 Q 284 439 282 366 L 281 324 Z" fill="black" /></g></svg>