<?xml version='1.0' encoding='utf-8'?>
<svg xmlns="http://www.w3.org/2000/svg" version="1.1" viewBox="0 0 1024 1024"><g transform="scale(1, -1) translate(0, -900)"><path d="M 287 337 Q 286 246 286 129 Q 285 105 273 97 Q 267 93 201 100 Q 168 110 171 101 Q 172 94 193 79 Q 254 33 270 6 Q 289 -25 304 -27 Q 317 -27 332 7 Q 350 53 346 126 Q 339 250 337 373 L 337 403 Q 336 467 338 531 L 340 588 Q 340 678 358 741 Q 376 771 320 793 Q 286 812 267 805 Q 249 798 265 775 Q 287 748 288 714 Q 289 698 290 569 L 289 518 Q 288 458 287 377 L 287 337 Z" fill="black" /></g></svg>