<?xml version='1.0' encoding='utf-8'?>
<svg xmlns="http://www.w3.org/2000/svg" version="1.1" viewBox="0 0 1024 1024"><g transform="scale(1, -1) translate(0, -900)"><path d="M 255 323 Q 254 241 253 141 Q 252 117 240 109 Q 234 106 182 124 Q 154 139 154 129 Q 155 122 172 107 Q 223 55 234 26 Q 247 -5 261 -9 Q 274 -10 290 21 Q 309 63 311 131 Q 304 246 302 360 L 302 393 Q 301 466 304 537 L 305 590 Q 314 722 323 749 Q 339 777 288 797 Q 257 813 239 808 Q 223 802 238 781 Q 257 756 259 725 Q 260 709 259 573 L 259 526 Q 258 459 256 366 L 255 323 Z" fill="black" /></g></svg>