<?xml version='1.0' encoding='utf-8'?>
<svg xmlns="http://www.w3.org/2000/svg" version="1.1" viewBox="0 0 1024 1024"><g transform="scale(1, -1) translate(0, -900)"><path d="M 614 -35 Q 618 -60 626 -69 Q 632 -76 639 -74 Q 655 -64 659 -7 Q 668 75 666 158 Q 663 206 663 341 L 663 377 Q 663 423 664 479 L 666 519 Q 669 564 676 588 Q 679 604 665 614 Q 653 621 644 627 C 619 643 572 644 587 618 Q 593 606 600 596 Q 613 571 614 503 L 614 469 Q 614 423 614 366 L 613 333 Q 613 -27 614 -35 Z" fill="black" /></g></svg>