<?xml version='1.0' encoding='utf-8'?>
<svg xmlns="http://www.w3.org/2000/svg" version="1.1" viewBox="0 0 1024 1024"><g transform="scale(1, -1) translate(0, -900)"><path d="M 300 314 Q 299 233 297 133 Q 296 109 283 100 Q 282 100 232 104 Q 201 120 202 109 Q 203 102 222 85 Q 271 34 281 7 Q 294 -24 307 -27 Q 322 -28 338 6 Q 357 51 359 126 Q 353 241 352 355 L 352 384 Q 352 457 355 529 L 357 587 Q 357 683 378 752 Q 394 783 340 805 Q 306 824 287 817 Q 269 811 285 788 Q 307 761 307 727 Q 308 709 307 564 L 306 513 Q 305 446 301 355 L 300 314 Z" fill="black" /></g></svg>