<?xml version='1.0' encoding='utf-8'?>
<svg xmlns="http://www.w3.org/2000/svg" version="1.1" viewBox="0 0 1024 1024"><g transform="scale(1, -1) translate(0, -900)"><path d="M 642 356 Q 676 218 778 100 Q 803 73 835 49 Q 887 15 922 8 Q 947 9 943 42 Q 933 76 936 231 Q 936 244 930 245 Q 924 245 921 233 Q 911 196 900 159 Q 887 111 869 111 Q 853 112 818 144 Q 782 175 751 226 Q 702 304 683 369 L 675 409 Q 668 460 679 495 Q 685 519 627 548 C 601 563 576 566 591 540 Q 591 539 593 534 Q 614 507 620 462 Q 624 428 632 394 L 642 356 Z" fill="black" /></g></svg>