<?xml version='1.0' encoding='utf-8'?>
<svg xmlns="http://www.w3.org/2000/svg" version="1.1" viewBox="0 0 1024 1024"><g transform="scale(1, -1) translate(0, -900)"><path d="M 479 678 Q 457 697 437 706 Q 419 713 410 707 Q 400 701 409 686 Q 464 574 427 196 Q 426 147 386 98 Q 374 83 382 61 Q 392 34 405 24 Q 418 17 430 33 Q 446 63 601 185 Q 620 197 624 206 Q 628 216 618 216 Q 606 216 486 151 Q 473 144 473 156 Q 486 361 483 523 L 482 546 Q 482 550 482 555 Q 481 607 487 648 C 490 670 490 670 479 678 Z" fill="black" /></g></svg>