<?xml version='1.0' encoding='utf-8'?>
<svg xmlns="http://www.w3.org/2000/svg" version="1.1" viewBox="0 0 1024 1024"><g transform="scale(1, -1) translate(0, -900)"><path d="M 767 302 Q 789 269 809 260 Q 821 253 836 276 Q 854 310 882 486 Q 891 520 915 548 Q 930 561 916 577 Q 900 595 852 622 Q 837 629 749 610 Q 713 606 687 597 L 631 587 Q 612 584 593 580 Q 533 567 484 559 C 454 554 485 515 514 524 Q 560 539 631 551 L 686 561 Q 794 583 811 568 Q 827 549 825 529 Q 800 346 783 328 C 770 301 765 305 767 302 Z" fill="black" /></g></svg>