<?xml version='1.0' encoding='utf-8'?>
<svg xmlns="http://www.w3.org/2000/svg" version="1.1" viewBox="0 0 1024 1024"><g transform="scale(1, -1) translate(0, -900)"><path d="M 537 665 Q 522 678 500 688 Q 479 695 476 686 Q 472 676 479 667 Q 500 636 497 599 Q 488 505 470 420 L 461 378 Q 433 278 409 243 Q 366 195 369 183 Q 373 167 393 150 Q 411 135 432 155 Q 495 194 685 179 Q 697 179 713 176 L 768 168 Q 817 161 868 146 Q 886 139 899 145 Q 912 149 907 164 Q 900 183 880 198 Q 865 214 838 214 Q 819 214 776 216 L 723 220 Q 626 224 477 214 Q 456 211 464 237 Q 486 309 505 388 L 514 427 Q 532 520 549 630 C 553 654 553 654 537 665 Z" fill="black" /></g></svg>