<?xml version='1.0' encoding='utf-8'?>
<svg xmlns="http://www.w3.org/2000/svg" version="1.1" viewBox="0 0 1024 1024"><g transform="scale(1, -1) translate(0, -900)"><path d="M 278 364 Q 277 285 275 186 Q 274 164 261 156 Q 254 150 196 163 Q 165 175 167 165 Q 168 158 187 143 Q 244 95 258 69 Q 274 38 288 36 Q 301 35 316 68 Q 334 111 333 182 Q 327 291 327 399 L 327 435 Q 326 502 330 568 L 333 626 Q 333 708 352 770 Q 368 798 316 821 Q 285 840 265 833 Q 249 827 263 805 Q 284 778 285 746 Q 286 730 284 606 L 283 554 Q 282 493 279 410 L 278 364 Z" fill="black" /></g></svg>