<?xml version='1.0' encoding='utf-8'?>
<svg xmlns="http://www.w3.org/2000/svg" version="1.1" viewBox="0 0 1024 1024"><g transform="scale(1, -1) translate(0, -900)"><path d="M 264 370 Q 263 265 262 127 Q 262 102 248 92 Q 242 89 180 102 Q 149 115 151 105 Q 152 98 171 83 Q 229 34 244 6 Q 260 -25 275 -28 Q 288 -29 304 4 Q 322 47 320 119 Q 311 264 310 409 L 310 441 Q 310 496 312 549 L 314 606 Q 314 717 333 779 Q 349 807 296 829 Q 263 847 245 840 Q 229 834 244 812 Q 263 787 266 753 Q 267 735 267 588 L 266 537 Q 265 482 264 412 L 264 370 Z" fill="black" /></g></svg>