<?xml version='1.0' encoding='utf-8'?>
<svg xmlns="http://www.w3.org/2000/svg" version="1.1" viewBox="0 0 1024 1024"><g transform="scale(1, -1) translate(0, -900)"><path d="M 279 314 Q 276 230 275 127 Q 274 102 261 94 Q 255 91 193 99 Q 160 111 163 101 Q 164 94 184 79 Q 242 30 257 3 Q 275 -28 289 -31 Q 304 -32 318 3 Q 337 48 335 121 Q 329 235 329 347 L 329 381 Q 329 445 332 510 L 334 565 Q 340 701 358 760 Q 374 790 320 813 Q 287 832 267 826 Q 251 819 265 796 Q 286 769 287 735 Q 288 716 285 546 L 284 498 Q 283 437 280 357 L 279 314 Z" fill="black" /></g></svg>