<?xml version='1.0' encoding='utf-8'?>
<svg xmlns="http://www.w3.org/2000/svg" version="1.1" viewBox="0 0 1024 1024"><g transform="scale(1, -1) translate(0, -900)"><path d="M 562 652 Q 562 685 579 727 Q 585 740 575 750 Q 554 766 518 774 Q 496 778 488 773 Q 481 766 488 755 Q 509 725 516 641 L 518 605 Q 519 556 520 506 L 520 474 Q 519 440 517 406 Q 516 393 515 377 L 512 348 Q 497 221 444 141 Q 420 110 385 74 Q 375 65 376 62 Q 377 58 388 60 Q 398 57 426 73 Q 540 133 556 357 L 558 386 Q 558 399 559 482 L 560 513 Q 560 567 561 616 L 562 652 Z" fill="black" /></g></svg>