<?xml version='1.0' encoding='utf-8'?>
<svg xmlns="http://www.w3.org/2000/svg" version="1.1" viewBox="0 0 1024 1024"><g transform="scale(1, -1) translate(0, -900)"><path d="M 289 329 Q 289 239 289 125 Q 288 103 276 93 Q 267 86 244 93 Q 219 99 193 104 Q 160 114 163 104 Q 164 97 185 83 Q 252 34 270 4 Q 291 -30 307 -31 Q 320 -31 335 3 Q 353 49 350 122 Q 341 246 339 369 L 339 397 Q 338 466 340 534 L 341 589 Q 341 677 359 737 Q 375 768 320 789 Q 286 808 267 801 Q 249 794 266 771 Q 287 744 289 710 Q 290 694 290 569 L 290 519 Q 290 455 289 368 L 289 329 Z" fill="black" /></g></svg>