<?xml version='1.0' encoding='utf-8'?>
<svg xmlns="http://www.w3.org/2000/svg" version="1.1" viewBox="0 0 1024 1024"><g transform="scale(1, -1) translate(0, -900)"><path d="M 672 103 Q 706 54 712 29 Q 719 -4 732 -9 Q 747 -12 765 22 Q 789 67 794 142 Q 784 286 783 429 L 783 484 Q 783 628 803 697 Q 819 727 764 749 Q 730 768 711 761 Q 693 754 709 731 Q 731 704 733 670 Q 734 651 732 471 L 731 423 Q 730 314 727 150 Q 726 129 715 121 Q 712 121 693 126 C 663 130 655 128 672 103 Z" fill="black" /></g></svg>