<?xml version='1.0' encoding='utf-8'?>
<svg xmlns="http://www.w3.org/2000/svg" version="1.1" viewBox="0 0 1024 1024"><g transform="scale(1, -1) translate(0, -900)"><path d="M 276 329 Q 273 236 272 119 Q 271 95 258 87 Q 252 84 176 96 Q 145 106 147 97 Q 148 90 168 76 Q 234 30 252 1 Q 271 -30 288 -32 Q 301 -32 315 1 Q 331 44 329 114 Q 323 241 323 366 L 323 394 Q 323 455 326 517 L 328 574 Q 328 670 348 734 Q 364 762 312 785 Q 281 804 261 797 Q 245 791 259 769 Q 280 742 281 710 Q 282 694 280 555 L 280 504 Q 279 446 277 368 L 276 329 Z" fill="black" /></g></svg>