<?xml version='1.0' encoding='utf-8'?>
<svg xmlns="http://www.w3.org/2000/svg" version="1.1" viewBox="0 0 1024 1024"><g transform="scale(1, -1) translate(0, -900)"><path d="M 746 451 Q 768 460 789 465 Q 802 468 804 464 Q 814 449 808 410 Q 798 301 771 252 Q 759 230 739 232 Q 723 236 708 244 Q 689 251 701 231 Q 731 194 744 167 Q 763 148 780 165 Q 837 213 852 364 Q 858 445 873 467 Q 883 477 877 486 Q 870 495 826 510 Q 810 517 794 504 Q 784 497 752 484 L 704 468 Q 661 455 624 447 Q 611 446 609 438 Q 608 431 628 424 Q 649 414 664 421 Q 680 428 698 434 L 746 451 Z" fill="black" /></g></svg>