<?xml version='1.0' encoding='utf-8'?>
<svg xmlns="http://www.w3.org/2000/svg" version="1.1" viewBox="0 0 1024 1024"><g transform="scale(1, -1) translate(0, -900)"><path d="M 256 346 Q 255 261 253 154 Q 252 132 240 123 Q 234 120 173 133 Q 140 146 143 137 Q 144 130 163 114 Q 221 62 235 33 Q 251 -1 266 -3 Q 279 -4 296 30 Q 315 76 315 149 Q 308 272 308 394 L 308 424 Q 308 485 311 545 L 313 599 Q 314 609 315 619 Q 319 707 334 752 Q 350 783 296 805 Q 262 824 243 818 Q 225 811 241 788 Q 263 761 263 727 Q 264 711 262 579 L 261 530 Q 260 470 257 391 L 256 346 Z" fill="black" /></g></svg>