<?xml version='1.0' encoding='utf-8'?>
<svg xmlns="http://www.w3.org/2000/svg" version="1.1" viewBox="0 0 1024 1024"><g transform="scale(1, -1) translate(0, -900)"><path d="M 606 -24 Q 613 -54 620 -65 Q 627 -72 635 -70 Q 653 -61 660 9 Q 669 108 665 304 L 664 346 Q 664 389 665 443 L 665 493 Q 665 694 682 790 Q 686 811 669 822 Q 632 847 614 849 Q 599 855 581 845 Q 571 835 579 823 Q 606 760 610 743 Q 610 524 609 478 L 609 432 Q 608 386 606 336 L 605 296 Q 595 70 606 -24 Z" fill="black" /></g></svg>