<?xml version='1.0' encoding='utf-8'?>
<svg xmlns="http://www.w3.org/2000/svg" version="1.1" viewBox="0 0 1024 1024"><g transform="scale(1, -1) translate(0, -900)"><path d="M 539 428 Q 539 509 549 551 Q 556 564 553 576 Q 547 585 497 613 Q 476 626 458 613 Q 454 609 460 595 Q 482 564 484 533 Q 488 487 491 433 Q 491 427 491 419 L 491 371 Q 494 212 488 168 Q 473 108 499 54 Q 505 39 512 36 Q 518 32 524 38 Q 539 47 544 87 L 544 123 Q 543 157 541 261 L 540 293 Q 539 335 539 385 L 539 428 Z" fill="black" /></g></svg>