<?xml version='1.0' encoding='utf-8'?>
<svg xmlns="http://www.w3.org/2000/svg" version="1.1" viewBox="0 0 1024 1024"><g transform="scale(1, -1) translate(0, -900)"><path d="M 618 355 Q 691 374 754 382 Q 779 385 785 377 Q 797 356 786 306 Q 761 165 723 106 Q 704 73 675 79 Q 650 86 628 96 Q 603 106 620 80 Q 662 34 681 -2 Q 703 -27 726 -7 Q 763 18 790 64 Q 821 118 845 286 Q 854 346 875 374 Q 888 387 882 400 Q 872 413 816 438 Q 794 448 772 434 Q 744 418 632 393 Q 629 393 629 392 L 568 378 Q 492 365 426 361 Q 407 360 403 350 Q 402 341 428 328 Q 456 310 478 318 Q 518 330 559 340 L 618 355 Z" fill="black" /></g></svg>