<?xml version='1.0' encoding='utf-8'?>
<svg xmlns="http://www.w3.org/2000/svg" version="1.1" viewBox="0 0 1024 1024"><g transform="scale(1, -1) translate(0, -900)"><path d="M 566 468 Q 566 594 571 628 C 573 653 573 653 559 662 Q 547 672 522 684 Q 500 696 490 688 Q 483 681 491 664 Q 536 579 507 187 Q 498 111 479 80 Q 469 64 479 42 Q 488 20 499 10 Q 511 1 528 15 Q 619 85 905 98 Q 932 98 932 111 Q 931 127 899 147 Q 881 162 782 138 Q 569 105 568 104 Q 561 105 561 122 Q 562 198 563 283 L 564 308 Q 565 371 566 436 L 566 468 Z" fill="black" /></g></svg>