<?xml version='1.0' encoding='utf-8'?>
<svg xmlns="http://www.w3.org/2000/svg" version="1.1" viewBox="0 0 1024 1024"><g transform="scale(1, -1) translate(0, -900)"><path d="M 242 312 Q 241 227 239 120 Q 238 96 226 87 Q 225 87 160 91 Q 129 103 131 93 Q 132 86 152 72 Q 209 26 223 0 Q 239 -31 254 -32 Q 267 -33 282 1 Q 298 44 297 115 Q 290 233 289 352 L 289 384 Q 288 451 291 517 L 293 571 Q 293 682 313 747 Q 329 775 276 797 Q 245 815 225 809 Q 209 802 224 780 Q 243 755 245 722 Q 246 703 245 550 L 245 503 Q 244 439 242 356 L 242 312 Z" fill="black" /></g></svg>