<?xml version='1.0' encoding='utf-8'?>
<svg xmlns="http://www.w3.org/2000/svg" version="1.1" viewBox="0 0 1024 1024"><g transform="scale(1, -1) translate(0, -900)"><path d="M 738 143 Q 750 118 775 72 Q 785 54 795 56 Q 811 60 819 86 Q 853 162 853 264 Q 857 328 860 400 Q 864 449 886 479 Q 902 498 890 512 Q 868 533 821 552 Q 802 562 770 549 Q 706 524 581 498 L 554 494 Q 536 493 520 491 C 490 488 517 447 546 455 Q 556 461 756 499 Q 778 503 788 493 Q 821 439 784 193 Q 783 177 777 170 C 768 141 725 170 738 143 Z" fill="black" /></g></svg>