<?xml version='1.0' encoding='utf-8'?>
<svg xmlns="http://www.w3.org/2000/svg" version="1.1" viewBox="0 0 1024 1024"><g transform="scale(1, -1) translate(0, -900)"><path d="M 519 329 Q 506 143 522 92 Q 528 62 553 37 Q 632 -38 822 -17 L 858 -9 Q 904 4 948 36 Q 967 52 953 80 Q 938 108 917 194 Q 916 210 909 214 Q 903 217 899 199 Q 877 108 861 78 Q 846 59 802 48 Q 756 38 698 43 Q 592 52 565 109 Q 538 167 570 373 Q 576 401 531 418 Q 521 422 512 418 Q 506 414 511 398 Q 521 364 519 329 Z" fill="black" /></g></svg>