<?xml version='1.0' encoding='utf-8'?>
<svg xmlns="http://www.w3.org/2000/svg" version="1.1" viewBox="0 0 1024 1024"><g transform="scale(1, -1) translate(0, -900)"><path d="M 669 387 Q 763 412 795 413 C 825 416 836 450 806 446 Q 733 436 669 419 L 627 409 Q 563 393 508 373 Q 492 369 497 387 Q 509 466 500 479 Q 487 495 467 507 Q 457 511 448 510 Q 438 506 445 490 Q 461 450 455 410 Q 451 373 434 356 Q 419 340 426 329 Q 436 316 450 306 Q 463 300 471 307 Q 495 335 627 374 L 669 387 Z" fill="black" /></g></svg>