<?xml version='1.0' encoding='utf-8'?>
<svg xmlns="http://www.w3.org/2000/svg" version="1.1" viewBox="0 0 1024 1024"><g transform="scale(1, -1) translate(0, -900)"><path d="M 563 381 Q 581 429 598 503 L 608 551 Q 623 666 640 716 Q 650 731 642 745 Q 626 764 594 780 Q 575 793 561 788 Q 548 781 554 766 Q 572 738 568 677 Q 565 661 563 640 Q 557 588 549 538 L 540 489 Q 501 309 357 104 Q 351 97 348 91 Q 345 79 356 81 Q 390 88 477 204 Q 513 261 523 284 L 533 307 Q 543 331 554 355 L 563 381 Z" fill="black" /></g></svg>