<?xml version='1.0' encoding='utf-8'?>
<svg xmlns="http://www.w3.org/2000/svg" version="1.1" viewBox="0 0 1024 1024"><g transform="scale(1, -1) translate(0, -900)"><path d="M 636 -16 Q 642 -43 649 -53 Q 655 -60 663 -58 Q 678 -49 685 14 Q 695 105 692 196 Q 689 233 688 321 L 688 364 Q 688 403 689 449 L 690 497 Q 690 533 691 575 L 694 624 Q 698 652 703 672 Q 706 691 691 700 Q 678 709 668 714 C 642 729 594 732 607 705 Q 634 651 637 619 Q 636 618 637 614 Q 637 611 637 607 L 637 566 Q 637 527 637 483 L 636 440 Q 635 400 635 356 L 634 313 Q 628 63 636 -16 Z" fill="black" /></g></svg>