<?xml version='1.0' encoding='utf-8'?>
<svg xmlns="http://www.w3.org/2000/svg" version="1.1" viewBox="0 0 1024 1024"><g transform="scale(1, -1) translate(0, -900)"><path d="M 279 333 Q 276 246 274 137 Q 273 112 259 103 Q 253 100 197 113 Q 166 126 167 117 Q 168 110 186 93 Q 241 41 255 13 Q 270 -20 285 -23 Q 298 -24 315 10 Q 334 56 335 129 Q 329 250 329 372 L 329 403 Q 329 464 332 525 L 335 583 Q 341 719 358 772 Q 374 802 320 825 Q 287 844 267 838 Q 251 831 265 808 Q 286 781 287 747 Q 288 728 285 563 L 284 513 Q 283 452 280 374 L 279 333 Z" fill="black" /></g></svg>