<?xml version='1.0' encoding='utf-8'?>
<svg xmlns="http://www.w3.org/2000/svg" version="1.1" viewBox="0 0 1024 1024"><g transform="scale(1, -1) translate(0, -900)"><path d="M 291 360 Q 264 189 160 78 Q 141 57 123 40 Q 108 27 106 20 Q 105 13 116 14 Q 153 14 235 102 Q 319 198 340 363 Q 340 367 341 371 L 347 422 Q 351 468 353 523 L 354 574 Q 354 601 359 637 Q 365 658 343 668 Q 327 675 314 680 C 286 691 258 693 272 666 Q 288 650 299 557 L 300 512 Q 299 470 296 411 L 291 360 Z" fill="black" /></g></svg>