<?xml version='1.0' encoding='utf-8'?>
<svg xmlns="http://www.w3.org/2000/svg" version="1.1" viewBox="0 0 1024 1024"><g transform="scale(1, -1) translate(0, -900)"><path d="M 704 473 Q 646 460 614 459 Q 598 460 598 451 Q 597 444 616 432 Q 638 419 658 426 Q 676 432 697 437 L 750 451 Q 783 460 819 465 Q 829 466 832 461 Q 839 448 836 410 Q 827 274 802 201 Q 789 156 774 142 Q 764 130 739 137 Q 715 141 694 145 Q 673 151 688 131 Q 725 91 743 60 Q 750 42 768 47 Q 784 48 806 73 Q 866 133 888 371 Q 892 423 913 454 Q 928 473 919 483 Q 906 499 874 512 Q 852 524 827 513 Q 796 500 754 486 L 704 473 Z" fill="black" /></g></svg>