<?xml version='1.0' encoding='utf-8'?>
<svg xmlns="http://www.w3.org/2000/svg" version="1.1" viewBox="0 0 1024 1024"><g transform="scale(1, -1) translate(0, -900)"><path d="M 601 620 Q 688 645 758 657 Q 779 660 783 653 Q 793 640 786 603 Q 774 503 749 459 Q 731 428 702 432 Q 675 439 651 449 Q 626 456 644 433 Q 689 390 710 356 Q 728 335 746 351 Q 800 387 829 504 Q 856 636 869 652 Q 882 665 876 676 Q 866 688 814 710 Q 792 720 773 706 Q 749 691 659 669 Q 568 644 489 638 Q 471 637 469 627 Q 468 620 492 608 Q 517 592 537 601 Q 553 607 571 611 L 601 620 Z" fill="black" /></g></svg>