<?xml version='1.0' encoding='utf-8'?>
<svg xmlns="http://www.w3.org/2000/svg" version="1.1" viewBox="0 0 1024 1024"><g transform="scale(1, -1) translate(0, -900)"><path d="M 632 160 Q 625 153 618 143 Q 566 91 429 50 Q 413 46 423 38 Q 430 32 459 36 Q 594 51 663 119 L 696 161 Q 739 221 766 317 Q 773 351 793 368 Q 809 383 790 398 Q 771 414 737 427 Q 715 434 694 423 Q 645 395 573 383 Q 567 383 563 381 C 534 375 524 355 554 355 Q 575 349 688 378 Q 707 385 708 362 Q 708 286 658 196 L 632 160 Z" fill="black" /></g></svg>