<?xml version='1.0' encoding='utf-8'?>
<svg xmlns="http://www.w3.org/2000/svg" version="1.1" viewBox="0 0 1024 1024"><g transform="scale(1, -1) translate(0, -900)"><path d="M 299 344 Q 296 253 295 137 Q 294 113 281 104 Q 274 98 216 111 Q 185 123 187 113 Q 188 106 207 91 Q 264 43 278 17 Q 294 -14 308 -16 Q 321 -17 336 16 Q 354 59 353 130 Q 346 256 346 381 L 346 412 Q 346 473 349 533 L 351 592 Q 358 730 372 771 Q 388 799 336 821 Q 305 840 285 833 Q 269 827 283 805 Q 304 778 305 746 Q 306 727 304 572 L 303 519 Q 302 461 300 384 L 299 344 Z" fill="black" /></g></svg>