<?xml version='1.0' encoding='utf-8'?>
<svg xmlns="http://www.w3.org/2000/svg" version="1.1" viewBox="0 0 1024 1024"><g transform="scale(1, -1) translate(0, -900)"><path d="M 272 367 Q 271 271 270 147 Q 269 125 257 116 Q 250 109 228 114 Q 204 118 181 120 Q 148 130 151 120 Q 152 113 173 100 Q 237 54 254 26 Q 273 -5 289 -6 Q 302 -7 317 28 Q 333 73 330 146 Q 321 276 321 407 L 321 439 Q 320 497 323 556 L 325 613 Q 329 694 342 737 Q 360 767 304 789 Q 270 808 251 801 Q 233 794 249 771 Q 271 744 272 710 Q 273 697 274 595 L 273 543 Q 273 488 272 411 L 272 367 Z" fill="black" /></g></svg>