<?xml version='1.0' encoding='utf-8'?>
<svg xmlns="http://www.w3.org/2000/svg" version="1.1" viewBox="0 0 1024 1024"><g transform="scale(1, -1) translate(0, -900)"><path d="M 507 518 Q 508 517 514 514 Q 559 493 590 503 Q 621 515 769 541 Q 793 545 803 534 Q 819 513 820 466 Q 821 226 772 84 Q 762 60 751 55 Q 744 52 670 82 Q 652 88 650 85 Q 646 78 661 62 Q 698 11 716 -31 Q 734 -59 751 -56 Q 799 -41 840 75 Q 865 156 887 421 Q 891 490 911 512 Q 930 534 906 553 Q 825 607 771 584 Q 636 548 520 533 C 490 529 484 528 507 518 Z" fill="black" /></g></svg>