<?xml version='1.0' encoding='utf-8'?>
<svg xmlns="http://www.w3.org/2000/svg" version="1.1" viewBox="0 0 1024 1024"><g transform="scale(1, -1) translate(0, -900)"><path d="M 292 333 Q 291 237 288 115 Q 287 90 274 81 Q 268 77 201 84 Q 168 94 171 85 Q 172 78 193 63 Q 254 17 270 -10 Q 289 -41 304 -43 Q 317 -43 332 -9 Q 350 37 347 109 Q 340 242 341 374 L 341 405 Q 341 472 345 538 L 348 596 Q 348 690 370 764 Q 386 794 332 817 Q 299 836 279 830 Q 263 823 277 800 Q 298 773 299 739 Q 300 721 298 576 L 297 524 Q 296 460 293 373 L 292 333 Z" fill="black" /></g></svg>