<?xml version='1.0' encoding='utf-8'?>
<svg xmlns="http://www.w3.org/2000/svg" version="1.1" viewBox="0 0 1024 1024"><g transform="scale(1, -1) translate(0, -900)"><path d="M 282 339 Q 281 245 279 125 Q 278 101 265 92 Q 261 89 192 103 Q 161 115 163 105 Q 164 98 183 83 Q 244 34 259 6 Q 277 -27 292 -28 Q 305 -29 320 4 Q 338 47 337 119 Q 330 249 329 378 L 329 410 Q 329 479 332 547 L 334 604 Q 334 689 353 751 Q 369 779 316 801 Q 285 819 265 813 Q 249 806 264 784 Q 283 759 285 726 Q 286 710 286 585 L 285 534 Q 284 470 283 382 L 282 339 Z" fill="black" /></g></svg>