<?xml version='1.0' encoding='utf-8'?>
<svg xmlns="http://www.w3.org/2000/svg" version="1.1" viewBox="0 0 1024 1024"><g transform="scale(1, -1) translate(0, -900)"><path d="M 510 433 Q 471 355 463 344 Q 451 344 447 320 Q 443 311 459 274 Q 466 258 483 266 Q 546 297 650 317 L 704 327 Q 863 354 865 354 Q 868 357 869 360 Q 870 373 840 390 Q 813 405 701 370 L 650 359 Q 604 350 552 339 Q 530 335 527 340 Q 526 344 555 442 L 564 473 Q 574 516 590 567 L 603 616 Q 636 757 663 783 Q 679 799 666 810 Q 608 849 584 846 Q 575 843 584 823 Q 599 775 561 607 L 549 558 Q 536 509 521 463 L 510 433 Z" fill="black" /></g></svg>