<?xml version='1.0' encoding='utf-8'?>
<svg xmlns="http://www.w3.org/2000/svg" version="1.1" viewBox="0 0 1024 1024"><g transform="scale(1, -1) translate(0, -900)"><path d="M 583 528 Q 590 580 596 630 Q 602 711 610 744 Q 619 759 612 772 Q 594 788 563 803 Q 544 813 530 809 Q 518 802 525 787 Q 547 753 544 696 Q 543 678 542 657 Q 538 584 529 516 L 521 469 Q 485 294 408 171 Q 384 128 359 87 Q 353 80 352 74 Q 349 64 360 65 Q 390 71 469 190 Q 488 224 509 265 Q 551 359 571 466 L 583 528 Z" fill="black" /></g></svg>