<?xml version='1.0' encoding='utf-8'?>
<svg xmlns="http://www.w3.org/2000/svg" version="1.1" viewBox="0 0 1024 1024"><g transform="scale(1, -1) translate(0, -900)"><path d="M 280 340 Q 279 252 276 143 Q 275 121 262 112 Q 258 109 181 117 Q 148 127 151 116 Q 152 109 174 96 Q 240 50 257 22 Q 278 -9 293 -10 Q 308 -11 322 23 Q 338 69 336 141 Q 330 261 330 379 L 330 411 Q 330 480 334 548 L 337 603 Q 337 675 358 744 Q 374 774 320 797 Q 286 816 267 810 Q 249 803 265 780 Q 286 753 287 719 Q 288 703 286 583 L 285 535 Q 284 471 281 381 L 280 340 Z" fill="black" /></g></svg>