<?xml version='1.0' encoding='utf-8'?>
<svg xmlns="http://www.w3.org/2000/svg" version="1.1" viewBox="0 0 1024 1024"><g transform="scale(1, -1) translate(0, -900)"><path d="M 650 317 Q 651 83 635 57 Q 631 51 611 56 Q 589 60 566 66 Q 547 73 548 64 Q 597 18 624 -16 Q 637 -35 651 -40 Q 660 -44 668 -35 Q 705 10 707 76 Q 701 175 704 327 L 701 370 Q 702 419 715 441 Q 725 459 715 469 Q 696 487 661 501 Q 643 508 629 502 Q 589 480 564 473 L 521 463 Q 490 459 450 455 Q 435 454 444 445 Q 453 435 467 430 Q 485 426 507 433 Q 508 434 510 433 L 555 442 Q 586 451 620 458 Q 638 464 643 455 Q 644 449 650 359 L 650 317 Z" fill="black" /></g></svg>