<?xml version='1.0' encoding='utf-8'?>
<svg xmlns="http://www.w3.org/2000/svg" version="1.1" viewBox="0 0 1024 1024"><g transform="scale(1, -1) translate(0, -900)"><path d="M 680 172 Q 714 226 737 304 Q 744 338 763 356 Q 779 369 761 385 Q 740 401 708 414 Q 687 421 666 410 Q 620 385 560 370 C 531 362 514 331 544 336 Q 556 336 660 364 Q 679 371 680 350 Q 680 284 641 209 L 619 172 Q 606 156 591 139 Q 539 90 405 50 Q 389 46 399 38 Q 406 32 435 36 Q 583 54 651 132 L 680 172 Z" fill="black" /></g></svg>