<?xml version='1.0' encoding='utf-8'?>
<svg xmlns="http://www.w3.org/2000/svg" version="1.1" viewBox="0 0 1024 1024"><g transform="scale(1, -1) translate(0, -900)"><path d="M 270 323 Q 269 244 267 147 Q 266 125 254 115 Q 253 115 192 119 Q 161 131 163 121 Q 164 114 183 100 Q 238 54 252 28 Q 267 -3 281 -4 Q 294 -5 309 28 Q 327 71 325 142 Q 319 254 319 364 L 319 399 Q 319 463 322 525 L 324 582 Q 324 673 344 738 Q 360 766 308 789 Q 277 808 257 801 Q 241 795 255 773 Q 276 746 277 714 Q 278 698 276 563 L 275 513 Q 274 452 271 368 L 270 323 Z" fill="black" /></g></svg>