<?xml version='1.0' encoding='utf-8'?>
<svg xmlns="http://www.w3.org/2000/svg" version="1.1" viewBox="0 0 1024 1024"><g transform="scale(1, -1) translate(0, -900)"><path d="M 603 487 Q 681 511 824 513 Q 843 512 851 518 Q 857 522 851 534 Q 845 544 810 561 Q 792 570 712 550 Q 696 550 615 527 L 559 512 Q 525 503 491 491 Q 479 485 477 489 Q 473 493 476 504 Q 492 568 501 587 Q 508 600 498 611 Q 482 633 456 646 Q 443 652 435 645 Q 429 641 437 624 Q 450 597 445 561 Q 435 507 410 484 Q 398 471 403 459 Q 410 441 427 426 Q 439 416 454 428 Q 487 458 548 473 L 603 487 Z" fill="black" /></g></svg>