<?xml version='1.0' encoding='utf-8'?>
<svg xmlns="http://www.w3.org/2000/svg" version="1.1" viewBox="0 0 1024 1024"><g transform="scale(1, -1) translate(0, -900)"><path d="M 663 534 Q 703 583 744 655 Q 762 682 787 699 Q 803 706 803 715 Q 803 728 775 745 Q 741 769 726 769 Q 716 769 704 761 Q 589 725 510 719 Q 473 719 470 711 Q 469 707 476 702 Q 521 666 664 713 Q 685 719 693 713 Q 700 709 679 660 Q 670 638 622 565 L 602 539 Q 512 440 387 389 Q 377 385 378 380 Q 379 376 386 375 Q 500 371 631 499 Q 634 502 637 505 L 663 534 Z" fill="black" /></g></svg>