<?xml version='1.0' encoding='utf-8'?>
<svg xmlns="http://www.w3.org/2000/svg" version="1.1" viewBox="0 0 1024 1024"><g transform="scale(1, -1) translate(0, -900)"><path d="M 616 504 Q 677 170 846 31 Q 904 -18 934 -18 Q 953 -14 947 15 Q 943 64 947 210 Q 947 234 939 235 Q 933 235 899 138 Q 884 93 857 108 Q 848 114 836 122 Q 707 251 659 507 Q 658 511 657 516 L 649 559 Q 631 661 639 750 Q 649 790 596 809 Q 562 822 543 815 Q 524 808 533 790 Q 579 751 580 719 Q 593 623 608 544 L 616 504 Z" fill="black" /></g></svg>