<?xml version='1.0' encoding='utf-8'?>
<svg xmlns="http://www.w3.org/2000/svg" version="1.1" viewBox="0 0 1024 1024"><g transform="scale(1, -1) translate(0, -900)"><path d="M 284 351 Q 283 257 280 135 Q 279 113 266 104 Q 257 97 233 103 Q 205 107 177 113 Q 144 123 147 113 Q 148 106 170 92 Q 240 44 259 15 Q 281 -19 297 -18 Q 312 -19 326 15 Q 342 61 340 133 Q 333 263 334 392 L 335 423 Q 335 487 339 549 L 342 604 Q 348 689 362 732 Q 378 762 324 785 Q 290 804 271 798 Q 253 791 269 768 Q 290 741 291 707 Q 292 692 290 585 L 289 536 Q 288 476 285 392 L 284 351 Z" fill="black" /></g></svg>