<?xml version='1.0' encoding='utf-8'?>
<svg xmlns="http://www.w3.org/2000/svg" version="1.1" viewBox="0 0 1024 1024"><g transform="scale(1, -1) translate(0, -900)"><path d="M 560 370 Q 585 431 603 487 L 615 527 Q 630 585 641 644 Q 651 717 664 751 Q 674 764 668 778 Q 653 797 623 812 Q 605 825 593 821 Q 580 814 586 801 Q 602 773 597 720 Q 578 587 559 512 L 548 473 Q 500 314 369 146 Q 363 139 361 134 Q 357 124 368 125 Q 395 125 482 234 Q 498 258 515 284 L 527 304 Q 534 320 544 336 L 560 370 Z" fill="black" /></g></svg>