<?xml version='1.0' encoding='utf-8'?>
<svg xmlns="http://www.w3.org/2000/svg" version="1.1" viewBox="0 0 1024 1024"><g transform="scale(1, -1) translate(0, -900)"><path d="M 293 347 Q 290 251 288 129 Q 287 105 274 96 Q 268 93 205 96 Q 172 106 175 97 Q 176 90 197 76 Q 257 30 272 5 Q 290 -26 305 -27 Q 318 -27 333 7 Q 351 53 348 125 Q 341 258 342 389 L 342 417 Q 343 478 346 539 L 349 597 Q 349 678 370 748 Q 386 778 332 801 Q 299 820 279 814 Q 261 807 277 784 Q 298 757 299 723 Q 300 707 298 576 L 297 524 Q 296 464 293 386 L 293 347 Z" fill="black" /></g></svg>