<?xml version='1.0' encoding='utf-8'?>
<svg xmlns="http://www.w3.org/2000/svg" version="1.1" viewBox="0 0 1024 1024"><g transform="scale(1, -1) translate(0, -900)"><path d="M 267 319 Q 266 234 263 125 Q 262 103 249 94 Q 243 91 181 99 Q 148 111 151 101 Q 152 94 172 79 Q 230 30 245 3 Q 263 -28 277 -31 Q 292 -32 306 3 Q 325 48 324 121 Q 317 242 318 361 L 318 391 Q 318 452 322 514 L 324 568 Q 340 709 346 724 Q 362 754 308 777 Q 274 796 255 790 Q 237 783 253 760 Q 274 733 275 699 Q 276 683 274 549 L 273 501 Q 272 441 269 362 L 267 319 Z" fill="black" /></g></svg>