<?xml version='1.0' encoding='utf-8'?>
<svg xmlns="http://www.w3.org/2000/svg" version="1.1" viewBox="0 0 1024 1024"><g transform="scale(1, -1) translate(0, -900)"><path d="M 274 337 Q 271 244 267 125 Q 266 101 253 93 Q 247 89 183 106 Q 153 119 155 109 Q 156 102 174 87 Q 232 35 246 7 Q 262 -26 278 -28 Q 291 -29 307 4 Q 326 47 326 118 Q 322 248 322 378 L 323 409 Q 323 455 326 498 L 329 556 Q 335 685 352 738 Q 368 766 316 789 Q 285 808 266 801 Q 248 795 263 773 Q 282 748 284 714 Q 285 695 281 538 L 279 486 Q 278 438 275 378 L 274 337 Z" fill="black" /></g></svg>