<?xml version='1.0' encoding='utf-8'?>
<svg xmlns="http://www.w3.org/2000/svg" version="1.1" viewBox="0 0 1024 1024"><g transform="scale(1, -1) translate(0, -900)"><path d="M 586 359 Q 625 343 699 372 Q 724 382 736 374 Q 745 368 722 306 Q 661 96 427 -30 Q 417 -34 418 -40 Q 419 -44 427 -44 Q 559 -37 691 129 Q 692 133 697 137 Q 743 203 792 307 Q 808 338 836 357 Q 852 366 852 375 Q 852 390 821 406 Q 784 431 767 430 Q 755 430 743 421 Q 683 400 609 386 C 580 380 557 366 586 359 Z" fill="black" /></g></svg>