<?xml version='1.0' encoding='utf-8'?>
<svg xmlns="http://www.w3.org/2000/svg" version="1.1" viewBox="0 0 1024 1024"><g transform="scale(1, -1) translate(0, -900)"><path d="M 334 219 Q 331 306 331 391 L 330 419 Q 330 486 333 553 L 335 609 Q 335 691 354 757 Q 372 787 316 809 Q 282 828 263 821 Q 245 815 261 792 Q 283 764 284 731 Q 285 715 283 591 L 283 542 Q 282 478 279 389 L 278 350 Q 277 259 275 145 Q 274 121 262 113 Q 256 110 200 128 Q 169 144 170 133 Q 171 126 189 108 Q 244 53 256 23 Q 269 -11 285 -14 Q 300 -15 316 18 Q 340 72 335 197 L 334 219 Z" fill="black" /></g></svg>