<?xml version='1.0' encoding='utf-8'?>
<svg xmlns="http://www.w3.org/2000/svg" version="1.1" viewBox="0 0 1024 1024"><g transform="scale(1, -1) translate(0, -900)"><path d="M 265 298 Q 264 216 262 114 Q 261 90 249 82 Q 243 79 181 87 Q 148 99 151 89 Q 152 82 172 67 Q 230 18 245 -9 Q 263 -40 277 -43 Q 292 -44 306 -9 Q 325 36 323 110 Q 317 225 316 339 L 316 369 Q 316 441 319 511 L 321 569 Q 321 666 342 736 Q 358 767 304 789 Q 270 808 251 801 Q 233 795 249 772 Q 271 745 271 711 Q 272 693 271 548 L 270 497 Q 269 430 266 340 L 265 298 Z" fill="black" /></g></svg>