<?xml version='1.0' encoding='utf-8'?>
<svg xmlns="http://www.w3.org/2000/svg" version="1.1" viewBox="0 0 1024 1024"><g transform="scale(1, -1) translate(0, -900)"><path d="M 697 379 Q 716 352 733 345 Q 743 338 758 359 Q 771 386 796 524 Q 803 555 824 580 Q 836 593 824 606 Q 808 622 765 645 Q 746 652 731 647 Q 701 637 658 626 Q 630 619 599 611 L 554 598 Q 544 597 534 594 Q 482 581 438 569 C 409 561 431 524 458 537 Q 467 546 560 568 L 603 579 Q 642 589 688 600 Q 719 607 731 597 Q 744 582 743 566 Q 727 440 712 410 C 702 382 695 382 697 379 Z" fill="black" /></g></svg>