<?xml version='1.0' encoding='utf-8'?>
<svg xmlns="http://www.w3.org/2000/svg" version="1.1" viewBox="0 0 1024 1024"><g transform="scale(1, -1) translate(0, -900)"><path d="M 581 328 Q 623 433 632 446 Q 641 453 637 463 Q 631 476 592 502 Q 582 511 570 506 Q 558 502 566 487 Q 581 456 538 324 L 523 286 Q 511 258 498 236 Q 489 218 492 206 Q 495 196 512 193 Q 557 180 616 144 L 658 117 Q 713 80 790 13 Q 815 -9 831 -9 Q 853 -9 853 11 Q 854 30 827 77 Q 814 104 687 160 L 643 179 Q 594 201 557 212 Q 533 216 546 240 Q 556 268 566 292 L 581 328 Z" fill="black" /></g></svg>