<?xml version='1.0' encoding='utf-8'?>
<svg xmlns="http://www.w3.org/2000/svg" version="1.1" viewBox="0 0 1024 1024"><g transform="scale(1, -1) translate(0, -900)"><path d="M 497 464 Q 540 545 565 615 L 580 662 Q 580 663 581 665 Q 609 755 628 783 Q 638 796 632 805 Q 614 833 572 842 Q 557 848 542 840 Q 532 831 541 821 Q 557 805 559 787 Q 563 762 533 662 Q 532 658 529 651 L 514 605 Q 487 533 456 477 Q 419 413 333 316 Q 323 301 334 300 Q 338 299 350 307 Q 425 358 482 440 L 497 464 Z" fill="black" /></g></svg>