<?xml version='1.0' encoding='utf-8'?>
<svg xmlns="http://www.w3.org/2000/svg" version="1.1" viewBox="0 0 1024 1024"><g transform="scale(1, -1) translate(0, -900)"><path d="M 748 306 Q 808 309 882 307 Q 906 306 926 306 Q 945 305 950 314 Q 956 324 940 338 Q 885 380 821 363 Q 785 357 742 349 L 681 341 Q 641 340 581 328 L 538 324 Q 456 317 364 305 Q 345 304 359 287 Q 372 274 389 268 Q 410 262 425 266 Q 471 278 523 286 L 566 292 Q 585 296 608 297 Q 642 301 686 304 L 748 306 Z" fill="black" /></g></svg>