<?xml version='1.0' encoding='utf-8'?>
<svg xmlns="http://www.w3.org/2000/svg" version="1.1" viewBox="0 0 1024 1024"><g transform="scale(1, -1) translate(0, -900)"><path d="M 497 170 Q 536 198 619 214 Q 653 221 672 215 Q 693 208 693 174 Q 683 105 647 54 Q 631 32 618 27 Q 597 23 531 52 Q 516 61 515 54 Q 514 48 524 36 Q 561 -7 584 -45 Q 593 -58 603 -58 Q 619 -59 637 -49 Q 701 2 739 140 Q 749 185 757 196 Q 769 206 759 219 Q 744 235 709 252 Q 694 259 619 242 Q 592 238 558 232 Q 533 228 545 253 Q 561 283 568 289 Q 578 302 568 316 Q 564 320 556 323 C 535 344 501 341 505 311 Q 511 299 506 275 Q 494 242 469 223 Q 454 208 457 194 Q 458 181 474 168 Q 484 159 497 170 Z" fill="black" /></g></svg>