<?xml version='1.0' encoding='utf-8'?>
<svg xmlns="http://www.w3.org/2000/svg" version="1.1" viewBox="0 0 1024 1024"><g transform="scale(1, -1) translate(0, -900)"><path d="M 878 515 Q 863 551 853 612 Q 852 625 845 630 Q 838 634 835 617 Q 820 542 808 529 Q 778 496 668 492 Q 607 491 579 500 Q 555 512 549 527 Q 542 543 539 577 L 538 596 Q 538 669 551 704 Q 560 731 543 745 Q 498 776 485 771 Q 472 765 479 751 Q 498 720 497 671 Q 497 512 532 481 Q 553 460 619 451 Q 674 445 758 452 Q 834 458 863 476 Q 888 489 878 515 Z" fill="black" /></g></svg>