<?xml version='1.0' encoding='utf-8'?>
<svg xmlns="http://www.w3.org/2000/svg" version="1.1" viewBox="0 0 1024 1024"><g transform="scale(1, -1) translate(0, -900)"><path d="M 634 725 Q 694 741 741 748 Q 757 749 760 745 Q 767 735 761 707 Q 749 631 729 599 Q 708 568 680 575 Q 664 576 651 581 Q 627 588 644 566 Q 672 530 684 504 Q 697 485 714 497 Q 759 519 793 607 Q 826 724 841 738 Q 854 750 848 760 Q 841 772 791 796 Q 772 806 753 794 Q 690 761 535 748 Q 517 748 515 739 Q 514 732 536 720 Q 558 704 578 711 Q 585 714 596 716 L 634 725 Z" fill="black" /></g></svg>