<?xml version='1.0' encoding='utf-8'?>
<svg xmlns="http://www.w3.org/2000/svg" version="1.1" viewBox="0 0 1024 1024"><g transform="scale(1, -1) translate(0, -900)"><path d="M 250 345 Q 249 257 245 144 Q 244 120 231 112 Q 225 109 172 121 Q 141 134 142 125 Q 143 118 162 101 Q 216 49 227 21 Q 240 -12 256 -15 Q 269 -16 286 18 Q 307 63 308 137 Q 302 261 302 383 L 302 414 Q 303 493 307 572 L 309 626 Q 309 629 310 631 Q 316 719 330 764 Q 346 794 292 817 Q 259 836 239 830 Q 221 823 237 800 Q 258 773 259 739 Q 260 723 258 605 L 257 557 Q 256 487 252 386 L 250 345 Z" fill="black" /></g></svg>