<?xml version='1.0' encoding='utf-8'?>
<svg xmlns="http://www.w3.org/2000/svg" version="1.1" viewBox="0 0 1024 1024"><g transform="scale(1, -1) translate(0, -900)"><path d="M 507 204 Q 508 81 487 41 Q 486 37 479 34 Q 464 28 372 44 Q 365 44 362 41 Q 361 37 370 30 Q 434 -19 470 -56 Q 482 -68 489 -65 Q 499 -65 517 -47 Q 559 -8 559 108 Q 558 148 555 208 L 552 251 Q 548 294 546 318 L 541 363 Q 540 379 540 392 Q 540 411 528 417 Q 516 424 506 429 C 480 443 456 448 469 421 Q 479 406 492 352 L 498 311 Q 502 280 504 244 L 507 204 Z" fill="black" /></g></svg>