<?xml version='1.0' encoding='utf-8'?>
<svg xmlns="http://www.w3.org/2000/svg" version="1.1" viewBox="0 0 1024 1024"><g transform="scale(1, -1) translate(0, -900)"><path d="M 468 332 Q 455 331 451 323 Q 450 316 457 312 Q 490 302 521 308 Q 575 327 602 332 Q 624 335 625 327 Q 629 320 617 307 Q 485 166 481 88 Q 484 54 510 31 Q 576 -26 735 -23 Q 822 -22 923 21 Q 954 39 944 63 Q 917 115 895 202 Q 889 214 882 213 Q 876 212 874 196 Q 870 166 867 132 Q 861 86 828 64 Q 789 42 699 39 Q 611 36 576 52 Q 545 67 535 98 Q 526 161 646 266 Q 682 299 716 310 Q 741 319 734 333 Q 728 348 682 378 Q 664 391 637 381 Q 547 341 468 332 Z" fill="black" /></g></svg>