<?xml version='1.0' encoding='utf-8'?>
<svg xmlns="http://www.w3.org/2000/svg" version="1.1" viewBox="0 0 1024 1024"><g transform="scale(1, -1) translate(0, -900)"><path d="M 262 335 Q 261 250 259 140 Q 258 118 245 109 Q 239 103 165 116 Q 132 126 135 116 Q 136 109 157 95 Q 223 47 240 19 Q 259 -14 276 -15 Q 289 -15 304 19 Q 322 65 319 137 Q 313 257 313 375 L 313 408 Q 313 478 316 545 L 318 602 Q 318 603 319 603 Q 323 691 338 736 Q 354 767 300 789 Q 266 808 247 802 Q 229 795 245 772 Q 267 745 267 711 Q 268 696 267 582 L 266 530 Q 265 466 263 378 L 262 335 Z" fill="black" /></g></svg>