<?xml version='1.0' encoding='utf-8'?>
<svg xmlns="http://www.w3.org/2000/svg" version="1.1" viewBox="0 0 1024 1024"><g transform="scale(1, -1) translate(0, -900)"><path d="M 275 335 Q 274 248 271 139 Q 270 115 257 106 Q 256 106 193 110 Q 160 123 163 113 Q 164 106 184 90 Q 239 41 254 15 Q 270 -16 284 -19 Q 299 -20 314 15 Q 333 60 332 133 Q 326 257 326 379 L 326 413 Q 326 483 330 554 L 332 610 Q 333 620 334 631 Q 340 719 354 764 Q 370 794 316 817 Q 283 836 263 830 Q 245 823 261 800 Q 282 773 283 739 Q 284 723 282 592 L 281 540 Q 280 473 276 380 L 275 335 Z" fill="black" /></g></svg>