<?xml version='1.0' encoding='utf-8'?>
<svg xmlns="http://www.w3.org/2000/svg" version="1.1" viewBox="0 0 1024 1024"><g transform="scale(1, -1) translate(0, -900)"><path d="M 799 315 Q 806 364 817 397 L 837 449 Q 850 477 867 492 Q 883 511 867 529 Q 851 542 796 566 Q 778 573 756 564 Q 698 542 645 527 L 616 521 Q 549 508 484 501 Q 468 500 469 490 Q 472 481 490 475 Q 515 465 550 476 Q 562 479 577 481 L 612 488 Q 756 521 768 509 Q 781 496 779 469 Q 776 453 774 436 L 767 394 Q 760 357 752 323 C 745 294 794 285 799 315 Z" fill="black" /></g></svg>