<?xml version='1.0' encoding='utf-8'?>
<svg xmlns="http://www.w3.org/2000/svg" version="1.1" viewBox="0 0 1024 1024"><g transform="scale(1, -1) translate(0, -900)"><path d="M 499 163 Q 499 75 482 44 Q 481 40 475 38 Q 466 35 376 51 Q 369 52 366 49 Q 365 45 373 37 Q 434 -12 467 -51 Q 477 -63 485 -61 Q 494 -61 510 -45 Q 547 -11 548 67 Q 548 104 547 168 L 545 208 Q 544 248 541 270 L 537 313 Q 533 364 509 374 Q 506 375 504 376 C 478 391 457 393 468 365 Q 477 347 487 300 L 492 261 Q 496 219 497 201 L 499 163 Z" fill="black" /></g></svg>