<?xml version='1.0' encoding='utf-8'?>
<svg xmlns="http://www.w3.org/2000/svg" version="1.1" viewBox="0 0 1024 1024"><g transform="scale(1, -1) translate(0, -900)"><path d="M 254 398 Q 253 304 251 178 Q 250 156 238 146 Q 234 145 170 158 Q 142 171 143 161 Q 144 154 162 140 Q 217 91 232 64 Q 248 33 262 31 Q 275 30 290 62 Q 306 102 307 171 Q 300 304 299 438 L 299 466 Q 299 520 302 573 L 304 628 Q 320 767 323 773 Q 339 801 288 821 Q 257 839 240 832 Q 224 826 238 805 Q 257 780 258 749 Q 259 733 258 608 L 257 559 Q 256 507 255 437 L 254 398 Z" fill="black" /></g></svg>