<?xml version='1.0' encoding='utf-8'?>
<svg xmlns="http://www.w3.org/2000/svg" version="1.1" viewBox="0 0 1024 1024"><g transform="scale(1, -1) translate(0, -900)"><path d="M 454 177 Q 470 187 479 205 Q 491 238 458 285 Q 433 334 482 398 Q 485 404 489 407 Q 505 423 490 435 Q 474 447 445 457 Q 429 464 397 440 Q 340 410 328 410 Q 322 411 321 406 Q 320 402 326 399 Q 356 386 406 408 Q 415 411 422 400 Q 440 385 424 362 Q 393 323 432 264 Q 438 252 442 243 Q 454 210 439 184 Q 438 183 437 181 C 423 155 430 159 454 177 Z" fill="black" /></g></svg>