<?xml version='1.0' encoding='utf-8'?>
<svg xmlns="http://www.w3.org/2000/svg" version="1.1" viewBox="0 0 1024 1024"><g transform="scale(1, -1) translate(0, -900)"><path d="M 265 362 Q 264 268 262 143 Q 261 121 249 112 Q 242 109 180 122 Q 149 135 151 125 Q 152 118 171 103 Q 229 54 244 26 Q 260 -5 275 -8 Q 288 -9 304 24 Q 322 67 321 138 Q 314 273 313 407 L 313 436 Q 313 493 316 547 L 318 604 Q 318 605 319 607 Q 323 691 337 735 Q 353 763 300 785 Q 269 803 249 797 Q 233 790 247 769 Q 268 742 269 710 Q 270 695 269 587 L 268 534 Q 267 479 265 402 L 265 362 Z" fill="black" /></g></svg>