<?xml version='1.0' encoding='utf-8'?>
<svg xmlns="http://www.w3.org/2000/svg" version="1.1" viewBox="0 0 1024 1024"><g transform="scale(1, -1) translate(0, -900)"><path d="M 612 376 Q 616 339 621 295 L 623 259 Q 629 100 603 54 Q 602 48 595 46 Q 586 43 500 59 Q 493 60 490 57 Q 489 53 497 45 Q 557 -4 588 -43 Q 598 -56 605 -53 Q 617 -52 636 -33 Q 678 6 679 120 Q 678 169 672 256 Q 671 260 671 264 L 667 304 Q 661 362 659 383 L 654 414 Q 653 433 652 448 Q 652 467 640 474 Q 624 483 612 488 C 585 501 560 506 577 481 Q 593 465 607 406 L 612 376 Z" fill="black" /></g></svg>