<?xml version='1.0' encoding='utf-8'?>
<svg xmlns="http://www.w3.org/2000/svg" version="1.1" viewBox="0 0 1024 1024"><g transform="scale(1, -1) translate(0, -900)"><path d="M 278 349 Q 277 253 274 131 Q 273 107 260 98 Q 251 95 191 116 Q 161 131 162 121 Q 163 114 181 98 Q 239 43 252 13 Q 267 -21 282 -24 Q 297 -25 312 8 Q 331 51 333 122 Q 326 254 326 386 L 326 417 Q 326 484 330 550 L 333 605 Q 333 689 352 750 Q 368 778 316 801 Q 285 820 265 813 Q 249 807 263 785 Q 284 758 285 726 Q 286 710 284 586 L 283 538 Q 282 475 279 390 L 278 349 Z" fill="black" /></g></svg>