<?xml version='1.0' encoding='utf-8'?>
<svg xmlns="http://www.w3.org/2000/svg" version="1.1" viewBox="0 0 1024 1024"><g transform="scale(1, -1) translate(0, -900)"><path d="M 739 498 Q 740 392 740 217 Q 739 199 730 192 Q 724 188 655 200 Q 624 210 627 201 Q 628 194 647 181 Q 710 136 726 110 Q 745 79 759 79 Q 772 79 785 111 Q 801 153 797 220 Q 785 364 784 507 L 784 554 Q 784 635 800 689 Q 815 717 764 737 Q 733 753 715 747 Q 699 741 714 720 Q 733 695 736 664 Q 737 651 738 541 L 739 498 Z" fill="black" /></g></svg>