<?xml version='1.0' encoding='utf-8'?>
<svg xmlns="http://www.w3.org/2000/svg" version="1.1" viewBox="0 0 1024 1024"><g transform="scale(1, -1) translate(0, -900)"><path d="M 421 378 Q 396 291 333 192 Q 329 188 328 183 Q 327 174 334 176 Q 359 182 413 267 Q 422 282 431 300 Q 450 346 466 401 L 473 432 Q 480 469 485 505 L 489 546 Q 492 574 498 595 Q 505 605 499 616 Q 489 626 471 636 C 445 652 427 656 436 627 Q 445 614 445 530 L 442 494 Q 439 466 435 439 Q 432 429 430 416 L 421 378 Z" fill="black" /></g></svg>