<?xml version='1.0' encoding='utf-8'?>
<svg xmlns="http://www.w3.org/2000/svg" version="1.1" viewBox="0 0 1024 1024"><g transform="scale(1, -1) translate(0, -900)"><path d="M 735 642 Q 745 645 758 650 Q 807 671 819 665 Q 829 658 821 636 Q 773 516 773 514 Q 772 502 794 494 Q 876 431 881 353 Q 881 332 869 320 Q 857 310 832 314 Q 795 320 762 323 Q 755 324 755 317 Q 758 310 772 300 Q 839 264 857 236 Q 864 223 876 221 Q 886 221 901 232 Q 938 275 942 328 Q 945 412 837 504 Q 807 522 829 553 Q 853 586 869 607 Q 887 634 911 645 Q 941 661 915 681 Q 878 712 855 723 Q 839 730 822 720 Q 798 701 716 672 C 688 662 707 632 735 642 Z" fill="black" /></g></svg>