<?xml version='1.0' encoding='utf-8'?>
<svg xmlns="http://www.w3.org/2000/svg" version="1.1" viewBox="0 0 1024 1024"><g transform="scale(1, -1) translate(0, -900)"><path d="M 281 371 Q 280 280 277 161 Q 276 139 264 130 Q 260 127 195 145 Q 165 158 167 149 Q 168 142 185 126 Q 243 74 257 44 Q 273 10 288 8 Q 301 7 317 40 Q 336 83 337 154 Q 330 283 329 410 L 329 443 Q 329 498 332 550 L 333 602 Q 334 612 335 623 Q 339 707 353 751 Q 369 779 316 801 Q 285 819 265 813 Q 249 806 263 785 Q 284 758 285 726 Q 286 710 285 585 L 284 537 Q 283 483 281 413 L 281 371 Z" fill="black" /></g></svg>