<?xml version='1.0' encoding='utf-8'?>
<svg xmlns="http://www.w3.org/2000/svg" version="1.1" viewBox="0 0 1024 1024"><g transform="scale(1, -1) translate(0, -900)"><path d="M 471 636 Q 540 660 557 650 Q 569 641 569 603 Q 572 339 535 250 Q 528 234 506 238 Q 446 242 449 247 Q 422 251 445 232 Q 479 207 507 177 Q 526 155 541 165 Q 613 216 614 483 Q 614 613 628 632 Q 643 654 631 664 Q 609 682 575 691 Q 559 697 541 689 Q 468 662 377 648 Q 358 649 370 636 Q 385 618 436 627 L 471 636 Z" fill="black" /></g></svg>