<?xml version='1.0' encoding='utf-8'?>
<svg xmlns="http://www.w3.org/2000/svg" version="1.1" viewBox="0 0 1024 1024"><g transform="scale(1, -1) translate(0, -900)"><path d="M 521 179 Q 528 79 507 43 Q 506 39 501 36 Q 483 30 392 40 Q 385 40 382 37 Q 381 33 390 25 Q 457 -21 494 -59 Q 506 -71 513 -68 Q 522 -68 538 -52 Q 583 -15 573 157 Q 572 170 572 182 L 568 223 Q 564 271 562 288 L 558 335 Q 558 356 545 365 Q 529 375 515 381 C 488 394 462 397 479 372 Q 492 359 501 320 L 510 279 Q 514 251 517 216 L 521 179 Z" fill="black" /></g></svg>