<?xml version='1.0' encoding='utf-8'?>
<svg xmlns="http://www.w3.org/2000/svg" version="1.1" viewBox="0 0 1024 1024"><g transform="scale(1, -1) translate(0, -900)"><path d="M 258 326 Q 255 241 253 137 Q 252 113 239 104 Q 236 104 184 112 Q 153 128 154 117 Q 155 110 174 93 Q 225 41 236 13 Q 249 -20 262 -22 Q 277 -23 293 10 Q 314 55 315 129 Q 309 246 309 363 L 310 398 Q 309 468 313 539 L 315 597 Q 324 723 338 768 Q 354 798 300 821 Q 267 840 247 834 Q 231 827 245 804 Q 266 777 267 743 Q 268 725 265 575 L 264 525 Q 263 458 259 370 L 258 326 Z" fill="black" /></g></svg>