<?xml version='1.0' encoding='utf-8'?>
<svg xmlns="http://www.w3.org/2000/svg" version="1.1" viewBox="0 0 1024 1024"><g transform="scale(1, -1) translate(0, -900)"><path d="M 506 443 Q 521 525 528 644 Q 529 660 534 676 Q 535 679 535 680 C 540 700 540 700 528 708 Q 513 721 488 731 Q 469 741 458 735 Q 446 728 453 715 Q 469 694 471 630 Q 470 621 470 610 Q 470 469 434 346 Q 401 244 338 142 Q 334 135 331 129 Q 330 119 339 121 Q 373 127 442 252 Q 449 270 459 288 Q 484 348 500 418 L 506 443 Z" fill="black" /></g></svg>