<?xml version='1.0' encoding='utf-8'?>
<svg xmlns="http://www.w3.org/2000/svg" version="1.1" viewBox="0 0 1024 1024"><g transform="scale(1, -1) translate(0, -900)"><path d="M 268 323 Q 265 241 264 137 Q 263 113 250 105 Q 244 101 185 104 Q 152 114 155 104 Q 156 97 177 83 Q 235 38 249 12 Q 265 -18 280 -19 Q 295 -20 309 15 Q 325 61 324 133 Q 318 248 318 363 L 318 394 Q 318 458 321 519 L 323 573 Q 330 702 346 752 Q 362 782 308 805 Q 275 824 255 818 Q 237 811 253 788 Q 274 761 275 727 Q 276 709 274 553 L 273 506 Q 272 445 269 365 L 268 323 Z" fill="black" /></g></svg>