<?xml version='1.0' encoding='utf-8'?>
<svg xmlns="http://www.w3.org/2000/svg" version="1.1" viewBox="0 0 1024 1024"><g transform="scale(1, -1) translate(0, -900)"><path d="M 253 336 Q 252 239 250 117 Q 249 92 236 82 L 173 86 Q 140 99 143 89 Q 144 82 164 66 Q 219 17 234 -9 Q 250 -40 264 -43 Q 279 -44 294 -9 Q 312 36 311 110 Q 304 242 302 373 L 302 404 Q 302 470 304 534 L 305 587 Q 311 731 326 777 Q 344 807 288 829 Q 254 848 235 841 Q 217 834 233 812 Q 255 784 256 750 Q 257 731 256 568 L 256 520 Q 255 457 253 376 L 253 336 Z" fill="black" /></g></svg>