<?xml version='1.0' encoding='utf-8'?>
<svg xmlns="http://www.w3.org/2000/svg" version="1.1" viewBox="0 0 1024 1024"><g transform="scale(1, -1) translate(0, -900)"><path d="M 279 339 Q 276 248 274 131 Q 273 107 260 99 Q 254 95 217 94 Q 184 107 187 97 Q 188 90 207 74 Q 253 28 263 4 Q 273 -24 287 -27 Q 300 -28 317 6 Q 336 52 336 125 Q 329 255 330 385 L 330 416 Q 331 465 333 514 L 335 568 Q 342 698 358 748 Q 374 778 320 801 Q 287 820 267 814 Q 249 807 265 784 Q 286 757 287 723 Q 288 705 285 552 L 284 499 Q 283 447 280 380 L 279 339 Z" fill="black" /></g></svg>