<?xml version='1.0' encoding='utf-8'?>
<svg xmlns="http://www.w3.org/2000/svg" version="1.1" viewBox="0 0 1024 1024"><g transform="scale(1, -1) translate(0, -900)"><path d="M 264 351 Q 263 257 263 134 Q 262 112 250 103 Q 243 97 165 106 Q 132 115 135 105 Q 138 98 159 85 Q 226 40 246 13 Q 268 -18 284 -18 Q 297 -19 311 16 Q 327 62 322 134 Q 313 266 313 397 L 313 430 Q 312 479 314 525 L 316 583 Q 316 664 334 725 Q 352 755 296 777 Q 262 796 243 789 Q 225 782 241 759 Q 263 732 264 698 Q 265 682 266 562 L 266 509 Q 265 460 265 397 L 264 351 Z" fill="black" /></g></svg>