<?xml version='1.0' encoding='utf-8'?>
<svg xmlns="http://www.w3.org/2000/svg" version="1.1" viewBox="0 0 1024 1024"><g transform="scale(1, -1) translate(0, -900)"><path d="M 275 349 Q 272 249 271 118 Q 270 94 257 85 Q 248 81 180 102 Q 149 115 151 105 Q 152 98 170 83 Q 233 31 248 0 Q 266 -34 282 -36 Q 295 -37 311 -4 Q 329 39 329 110 Q 322 249 322 388 L 322 419 Q 323 483 326 545 L 329 601 Q 329 677 349 742 Q 365 772 312 793 Q 281 812 261 805 Q 245 799 259 777 Q 280 750 281 718 Q 282 702 280 579 L 280 531 Q 279 470 276 389 L 275 349 Z" fill="black" /></g></svg>