<?xml version='1.0' encoding='utf-8'?>
<svg xmlns="http://www.w3.org/2000/svg" version="1.1" viewBox="0 0 1024 1024"><g transform="scale(1, -1) translate(0, -900)"><path d="M 275 353 Q 274 262 274 143 Q 273 121 261 112 Q 255 108 177 120 Q 144 130 147 121 Q 148 114 169 100 Q 236 51 255 23 Q 277 -10 293 -10 Q 306 -11 321 24 Q 337 69 334 142 Q 327 269 325 395 L 325 426 Q 324 481 326 536 L 328 596 Q 328 674 346 737 Q 364 767 308 789 Q 274 808 255 801 Q 237 794 253 771 Q 275 744 276 710 Q 277 695 278 576 L 277 522 Q 276 467 275 394 L 275 353 Z" fill="black" /></g></svg>