<?xml version='1.0' encoding='utf-8'?>
<svg xmlns="http://www.w3.org/2000/svg" version="1.1" viewBox="0 0 1024 1024"><g transform="scale(1, -1) translate(0, -900)"><path d="M 758 116 Q 795 71 822 30 Q 832 11 844 11 Q 862 12 879 50 Q 898 93 892 143 Q 879 294 868 574 Q 867 608 885 632 Q 895 647 885 658 Q 864 680 806 705 Q 787 715 769 705 Q 639 651 478 645 C 448 643 463 607 493 610 Q 520 609 739 650 Q 773 656 791 642 Q 831 608 814 155 Q 813 151 813 145 Q 810 135 805 131 C 796 102 739 139 758 116 Z" fill="black" /></g></svg>