<?xml version='1.0' encoding='utf-8'?>
<svg xmlns="http://www.w3.org/2000/svg" version="1.1" viewBox="0 0 1024 1024"><g transform="scale(1, -1) translate(0, -900)"><path d="M 279 347 Q 278 260 276 151 Q 275 129 263 119 Q 254 116 193 133 Q 160 146 163 137 Q 164 130 183 113 Q 243 59 257 30 Q 273 -4 289 -7 Q 304 -8 319 26 Q 338 72 339 146 Q 332 266 331 384 L 330 416 Q 330 483 333 551 L 335 603 Q 335 691 354 757 Q 372 787 316 809 Q 282 828 263 821 Q 245 815 261 792 Q 283 764 284 731 Q 285 715 284 586 L 283 540 Q 282 477 280 390 L 279 347 Z" fill="black" /></g></svg>