<?xml version='1.0' encoding='utf-8'?>
<svg xmlns="http://www.w3.org/2000/svg" version="1.1" viewBox="0 0 1024 1024"><g transform="scale(1, -1) translate(0, -900)"><path d="M 769 430 Q 779 481 788 515 L 803 562 Q 819 604 844 625 Q 862 646 846 664 Q 764 721 711 695 Q 623 665 512 654 Q 494 653 496 643 Q 499 634 518 627 Q 536 620 561 621 L 597 629 Q 657 639 717 649 Q 733 653 741 645 Q 754 632 752 604 Q 748 577 743 551 L 736 512 Q 726 469 716 429 C 709 400 763 401 769 430 Z" fill="black" /></g></svg>