<?xml version='1.0' encoding='utf-8'?>
<svg xmlns="http://www.w3.org/2000/svg" version="1.1" viewBox="0 0 1024 1024"><g transform="scale(1, -1) translate(0, -900)"><path d="M 540 259 Q 564 301 583 366 L 595 404 Q 605 447 617 498 L 623 533 Q 624 543 627 553 Q 633 571 636 581 Q 643 599 626 611 Q 610 623 597 629 C 571 644 549 649 561 621 Q 576 606 569 525 L 564 489 Q 555 435 545 396 L 534 359 Q 483 218 367 144 Q 352 134 348 128 Q 345 122 356 121 Q 413 118 507 216 Q 508 217 510 219 L 540 259 Z" fill="black" /></g></svg>