<?xml version='1.0' encoding='utf-8'?>
<svg xmlns="http://www.w3.org/2000/svg" version="1.1" viewBox="0 0 1024 1024"><g transform="scale(1, -1) translate(0, -900)"><path d="M 573 452 Q 591 452 733 485 Q 754 491 759 479 Q 769 445 774 261 Q 775 101 763 80 Q 759 74 740 79 Q 721 82 700 85 Q 679 94 680 83 Q 726 34 752 -2 Q 765 -21 781 -28 Q 791 -32 800 -22 Q 848 32 840 117 Q 813 423 840 467 Q 853 488 840 498 Q 818 517 779 533 Q 760 540 743 533 Q 668 494 563 482 C 533 478 543 448 573 452 Z" fill="black" /></g></svg>