<?xml version='1.0' encoding='utf-8'?>
<svg xmlns="http://www.w3.org/2000/svg" version="1.1" viewBox="0 0 1024 1024"><g transform="scale(1, -1) translate(0, -900)"><path d="M 538 439 Q 556 442 692 470 Q 714 474 719 463 Q 731 436 738 249 Q 744 89 729 65 Q 725 59 652 68 Q 630 72 633 63 Q 691 18 724 -15 Q 739 -34 755 -39 Q 765 -43 773 -32 Q 816 22 810 79 Q 779 403 799 448 Q 799 451 801 452 Q 814 473 801 483 Q 779 502 739 518 Q 720 525 704 518 Q 670 502 647 492 L 609 481 Q 576 475 527 470 C 497 467 509 433 538 439 Z" fill="black" /></g></svg>