<?xml version='1.0' encoding='utf-8'?>
<svg xmlns="http://www.w3.org/2000/svg" version="1.1" viewBox="0 0 1024 1024"><g transform="scale(1, -1) translate(0, -900)"><path d="M 463 362 Q 418 352 382 347 Q 367 346 366 339 Q 365 333 384 324 Q 403 312 419 319 Q 435 325 453 329 L 504 343 Q 532 352 557 355 Q 570 356 573 353 Q 582 338 574 300 Q 556 194 528 150 Q 512 123 488 128 Q 466 135 445 144 Q 424 151 438 131 Q 475 92 493 62 Q 509 43 528 58 Q 583 97 611 220 Q 626 325 646 351 Q 656 361 651 370 Q 644 380 601 399 Q 585 406 568 395 Q 555 388 516 376 L 463 362 Z" fill="black" /></g></svg>