<?xml version='1.0' encoding='utf-8'?>
<svg xmlns="http://www.w3.org/2000/svg" version="1.1" viewBox="0 0 1024 1024"><g transform="scale(1, -1) translate(0, -900)"><path d="M 596 203 Q 593 55 612 23 Q 627 8 635 29 Q 647 56 651 216 L 651 258 Q 652 292 652 333 L 652 374 Q 652 413 652 453 L 652 482 Q 652 540 654 586 L 655 626 Q 656 761 679 795 Q 686 810 666 825 Q 642 844 600 855 Q 582 859 570 846 Q 560 839 572 827 Q 600 802 602 769 Q 602 711 602 615 L 602 576 Q 602 530 602 472 L 601 442 Q 600 396 600 356 L 599 319 Q 598 276 597 241 L 596 203 Z" fill="black" /></g></svg>