<?xml version='1.0' encoding='utf-8'?>
<svg xmlns="http://www.w3.org/2000/svg" version="1.1" viewBox="0 0 1024 1024"><g transform="scale(1, -1) translate(0, -900)"><path d="M 723 548 Q 738 526 752 517 Q 762 508 779 530 Q 794 551 826 669 Q 836 700 861 725 Q 876 737 864 752 Q 849 770 807 798 Q 788 808 770 802 Q 745 798 708 793 Q 662 787 601 779 Q 546 770 504 766 Q 503 766 503 765 C 473 760 497 730 527 733 Q 533 733 541 734 Q 610 749 730 759 Q 755 760 764 752 Q 776 739 773 724 Q 748 594 729 582 C 714 560 714 560 723 548 Z" fill="black" /></g></svg>