<?xml version='1.0' encoding='utf-8'?>
<svg xmlns="http://www.w3.org/2000/svg" version="1.1" viewBox="0 0 1024 1024"><g transform="scale(1, -1) translate(0, -900)"><path d="M 607 276 Q 661 289 706 294 Q 728 295 731 289 Q 741 276 735 238 Q 722 136 697 91 Q 678 57 649 63 Q 621 70 595 78 Q 570 85 589 61 Q 635 21 658 -12 Q 677 -33 695 -16 Q 764 29 792 218 Q 799 264 817 288 Q 830 301 824 311 Q 815 323 764 346 Q 745 355 725 342 Q 701 329 618 311 L 562 299 Q 493 289 435 284 Q 417 284 415 275 Q 414 268 436 256 Q 458 240 478 247 Q 515 257 551 264 L 607 276 Z" fill="black" /></g></svg>