<?xml version='1.0' encoding='utf-8'?>
<svg xmlns="http://www.w3.org/2000/svg" version="1.1" viewBox="0 0 1024 1024"><g transform="scale(1, -1) translate(0, -900)"><path d="M 267 342 Q 264 248 263 130 Q 262 106 249 97 Q 243 91 173 104 Q 140 114 143 105 Q 144 98 165 83 Q 228 35 244 7 Q 263 -26 279 -27 Q 292 -28 308 7 Q 326 53 323 126 Q 316 256 316 385 L 316 414 Q 316 472 319 529 L 321 586 Q 321 682 342 752 Q 358 783 304 805 Q 270 824 251 817 Q 233 811 249 788 Q 271 761 271 727 Q 272 709 271 566 L 270 515 Q 269 457 267 381 L 267 342 Z" fill="black" /></g></svg>