<?xml version='1.0' encoding='utf-8'?>
<svg xmlns="http://www.w3.org/2000/svg" version="1.1" viewBox="0 0 1024 1024"><g transform="scale(1, -1) translate(0, -900)"><path d="M 282 339 Q 281 251 278 137 Q 277 115 265 105 Q 261 102 193 111 Q 160 123 163 113 Q 164 106 184 91 Q 245 42 261 15 Q 279 -18 294 -19 Q 309 -20 323 15 Q 341 60 339 134 Q 332 258 332 383 L 332 413 Q 332 465 335 518 L 337 572 Q 337 669 358 740 Q 374 771 320 793 Q 286 812 267 805 Q 249 799 265 776 Q 287 749 287 715 Q 288 699 287 555 L 286 505 Q 285 450 283 380 L 282 339 Z" fill="black" /></g></svg>