<?xml version='1.0' encoding='utf-8'?>
<svg xmlns="http://www.w3.org/2000/svg" version="1.1" viewBox="0 0 1024 1024"><g transform="scale(1, -1) translate(0, -900)"><path d="M 281 366 Q 277 269 274 145 Q 273 121 259 112 Q 255 109 216 112 Q 185 127 186 117 Q 187 110 206 93 Q 249 44 259 18 Q 269 -12 283 -15 Q 296 -16 314 18 Q 333 63 336 137 Q 330 275 331 411 L 332 446 Q 332 501 336 553 L 338 603 Q 347 732 362 776 Q 378 806 324 829 Q 291 848 271 842 Q 253 836 269 813 Q 290 785 291 751 Q 292 733 288 584 L 287 540 Q 286 483 282 410 L 281 366 Z" fill="black" /></g></svg>