<?xml version='1.0' encoding='utf-8'?>
<svg xmlns="http://www.w3.org/2000/svg" version="1.1" viewBox="0 0 1024 1024"><g transform="scale(1, -1) translate(0, -900)"><path d="M 288 354 Q 287 257 285 131 Q 285 107 272 98 Q 263 92 243 99 Q 219 105 197 110 Q 164 123 167 113 Q 168 106 188 90 Q 249 38 266 9 Q 284 -25 300 -27 Q 313 -28 329 7 Q 348 52 347 126 Q 340 262 338 397 L 338 428 Q 338 483 340 535 L 342 589 Q 342 692 362 761 Q 380 791 324 813 Q 290 832 271 825 Q 253 818 269 796 Q 291 768 292 735 Q 293 717 292 575 L 291 521 Q 290 466 289 394 L 288 354 Z" fill="black" /></g></svg>