<?xml version='1.0' encoding='utf-8'?>
<svg xmlns="http://www.w3.org/2000/svg" version="1.1" viewBox="0 0 1024 1024"><g transform="scale(1, -1) translate(0, -900)"><path d="M 263 327 Q 262 239 259 130 Q 258 106 245 98 Q 241 97 180 119 Q 149 135 150 125 Q 151 118 168 100 Q 225 40 237 9 Q 252 -27 267 -30 Q 282 -31 299 2 Q 320 47 323 122 Q 316 246 314 369 L 314 402 Q 314 454 316 504 L 318 560 Q 318 668 338 737 Q 356 767 300 789 Q 266 808 247 801 Q 229 795 245 772 Q 267 744 268 711 Q 269 693 267 540 L 266 490 Q 265 438 263 371 L 263 327 Z" fill="black" /></g></svg>