<?xml version='1.0' encoding='utf-8'?>
<svg xmlns="http://www.w3.org/2000/svg" version="1.1" viewBox="0 0 1024 1024"><g transform="scale(1, -1) translate(0, -900)"><path d="M 534 627 Q 567 645 703 674 Q 710 675 717 672 Q 727 666 727 648 Q 726 603 705 525 Q 701 500 676 504 Q 648 508 626 512 Q 611 513 615 505 Q 616 496 642 478 Q 672 451 688 422 Q 695 412 706 416 Q 713 417 729 441 Q 748 468 761 527 Q 774 639 793 660 Q 803 670 798 681 Q 791 693 754 715 Q 739 724 693 710 Q 659 706 577 681 Q 543 674 521 668 C 492 661 507 615 534 627 Z" fill="black" /></g></svg>