<?xml version='1.0' encoding='utf-8'?>
<svg xmlns="http://www.w3.org/2000/svg" version="1.1" viewBox="0 0 1024 1024"><g transform="scale(1, -1) translate(0, -900)"><path d="M 538 249 Q 541 249 545 250 Q 606 268 649 274 Q 659 275 660 272 Q 664 268 666 251 Q 669 208 663 188 Q 650 161 626 164 Q 610 165 596 170 Q 577 174 591 156 Q 622 126 636 103 Q 646 90 658 100 Q 694 124 715 235 Q 719 262 730 275 Q 739 285 734 294 Q 727 301 685 319 Q 669 325 655 314 Q 619 293 522 279 C 492 275 509 243 538 249 Z" fill="black" /></g></svg>