<?xml version='1.0' encoding='utf-8'?>
<svg xmlns="http://www.w3.org/2000/svg" version="1.1" viewBox="0 0 1024 1024"><g transform="scale(1, -1) translate(0, -900)"><path d="M 255 353 Q 252 265 251 154 Q 250 132 238 123 Q 232 119 168 131 Q 137 143 139 133 Q 140 126 159 112 Q 219 64 233 37 Q 251 6 265 4 Q 278 3 293 36 Q 311 79 309 150 Q 303 268 303 388 L 303 420 Q 303 487 307 552 L 309 605 Q 309 606 310 607 Q 314 691 328 734 Q 344 762 292 785 Q 261 804 241 797 Q 225 791 239 769 Q 260 742 261 710 Q 262 695 261 588 L 260 541 Q 259 480 256 394 L 255 353 Z" fill="black" /></g></svg>