<?xml version='1.0' encoding='utf-8'?>
<svg xmlns="http://www.w3.org/2000/svg" version="1.1" viewBox="0 0 1024 1024"><g transform="scale(1, -1) translate(0, -900)"><path d="M 266 341 Q 265 253 264 141 Q 263 119 251 110 Q 242 106 185 118 Q 152 131 155 121 Q 156 114 176 98 Q 234 47 248 20 Q 264 -13 279 -15 Q 294 -16 309 19 Q 328 64 326 138 Q 319 261 317 382 L 317 414 Q 316 472 318 530 L 320 585 Q 320 670 338 733 Q 356 763 300 785 Q 266 804 247 797 Q 229 790 245 767 Q 267 740 268 706 Q 269 690 269 563 L 269 515 Q 268 460 267 384 L 266 341 Z" fill="black" /></g></svg>