<?xml version='1.0' encoding='utf-8'?>
<svg xmlns="http://www.w3.org/2000/svg" version="1.1" viewBox="0 0 1024 1024"><g transform="scale(1, -1) translate(0, -900)"><path d="M 267 336 Q 266 248 263 138 Q 262 114 249 105 Q 246 105 193 103 Q 160 115 163 105 Q 164 98 184 83 Q 236 37 250 12 Q 265 -16 278 -19 Q 293 -20 307 15 Q 325 60 323 134 Q 316 257 316 378 L 316 412 Q 316 464 318 516 L 320 568 Q 326 713 342 764 Q 358 795 304 817 Q 270 836 251 829 Q 233 823 249 800 Q 271 773 271 739 Q 272 720 271 549 L 270 504 Q 269 449 267 380 L 267 336 Z" fill="black" /></g></svg>