<?xml version='1.0' encoding='utf-8'?>
<svg xmlns="http://www.w3.org/2000/svg" version="1.1" viewBox="0 0 1024 1024"><g transform="scale(1, -1) translate(0, -900)"><path d="M 500 290 Q 540 359 565 419 L 577 456 Q 589 493 600 532 L 608 569 Q 615 606 620 644 Q 635 746 652 784 Q 658 794 650 803 Q 634 821 599 838 Q 580 848 562 844 Q 543 838 556 820 Q 581 789 579 759 Q 572 644 553 558 L 545 522 Q 535 485 523 446 L 509 407 Q 463 292 362 193 Q 355 186 347 178 Q 335 171 333 166 Q 329 159 345 160 Q 375 160 482 266 L 500 290 Z" fill="black" /></g></svg>