<?xml version='1.0' encoding='utf-8'?>
<svg xmlns="http://www.w3.org/2000/svg" version="1.1" viewBox="0 0 1024 1024"><g transform="scale(1, -1) translate(0, -900)"><path d="M 701 427 Q 702 426 704 424 Q 723 393 741 385 Q 751 378 766 399 Q 779 424 806 563 Q 815 594 837 619 Q 850 632 838 645 Q 822 661 780 686 Q 765 693 684 675 Q 681 675 568 653 Q 540 647 516 642 L 487 636 Q 477 636 468 634 C 438 631 464 597 493 603 Q 499 603 506 605 Q 540 615 590 623 L 631 631 Q 727 652 743 638 Q 756 622 754 607 Q 733 463 718 447 C 705 421 697 433 701 427 Z" fill="black" /></g></svg>