<?xml version='1.0' encoding='utf-8'?>
<svg xmlns="http://www.w3.org/2000/svg" version="1.1" viewBox="0 0 1024 1024"><g transform="scale(1, -1) translate(0, -900)"><path d="M 267 336 Q 266 251 264 143 Q 263 119 250 111 Q 244 107 172 120 Q 141 130 143 121 Q 144 114 164 100 Q 228 52 244 25 Q 263 -6 279 -8 Q 292 -9 306 25 Q 324 68 321 138 Q 315 258 315 377 L 315 409 Q 315 475 318 540 L 320 597 Q 336 738 340 746 Q 356 774 304 797 Q 273 816 253 809 Q 237 803 251 781 Q 272 754 273 722 Q 274 706 272 578 L 272 528 Q 271 464 268 378 L 267 336 Z" fill="black" /></g></svg>