<?xml version='1.0' encoding='utf-8'?>
<svg xmlns="http://www.w3.org/2000/svg" version="1.1" viewBox="0 0 1024 1024"><g transform="scale(1, -1) translate(0, -900)"><path d="M 257 323 Q 254 235 253 125 Q 252 103 239 94 Q 236 90 180 89 Q 149 99 151 89 Q 152 82 173 69 Q 227 29 241 5 Q 257 -23 270 -23 Q 283 -24 297 9 Q 313 52 309 122 Q 303 243 303 363 L 303 395 Q 303 453 306 507 L 308 562 Q 308 665 328 730 Q 344 758 292 781 Q 261 800 241 793 Q 225 787 239 765 Q 260 738 261 706 Q 262 690 261 543 L 260 494 Q 259 439 257 365 L 257 323 Z" fill="black" /></g></svg>