<?xml version='1.0' encoding='utf-8'?>
<svg xmlns="http://www.w3.org/2000/svg" version="1.1" viewBox="0 0 1024 1024"><g transform="scale(1, -1) translate(0, -900)"><path d="M 647 389 Q 684 396 733 397 L 781 400 Q 821 403 925 404 Q 943 405 947 413 Q 951 423 937 435 Q 888 472 826 454 Q 813 453 799 448 L 741 437 Q 696 430 647 420 L 597 412 Q 555 408 512 400 L 465 393 Q 419 389 371 380 Q 352 379 366 363 Q 379 351 395 346 Q 414 342 428 346 Q 449 353 474 358 L 514 367 Q 553 377 597 381 L 647 389 Z" fill="black" /></g></svg>