<?xml version='1.0' encoding='utf-8'?>
<svg xmlns="http://www.w3.org/2000/svg" version="1.1" viewBox="0 0 1024 1024"><g transform="scale(1, -1) translate(0, -900)"><path d="M 243 316 Q 242 240 240 148 Q 239 126 227 118 Q 221 112 152 121 Q 121 131 123 121 Q 124 114 145 101 Q 206 58 223 31 Q 242 1 257 0 Q 270 0 284 33 Q 300 76 297 146 Q 291 249 291 354 L 291 388 Q 290 458 294 530 L 297 585 Q 297 669 316 730 Q 332 758 280 781 Q 249 800 229 793 Q 213 787 227 765 Q 248 738 249 706 Q 250 690 248 565 L 248 517 Q 247 451 244 362 L 243 316 Z" fill="black" /></g></svg>