<?xml version='1.0' encoding='utf-8'?>
<svg xmlns="http://www.w3.org/2000/svg" version="1.1" viewBox="0 0 1024 1024"><g transform="scale(1, -1) translate(0, -900)"><path d="M 505 199 Q 527 238 547 293 Q 556 315 571 330 Q 586 343 575 353 Q 565 362 540 371 Q 521 375 500 365 Q 481 356 452 348 Q 424 339 378 333 Q 368 332 364 327 Q 361 321 375 316 Q 403 306 441 316 Q 478 332 486 332 Q 505 331 501 310 Q 489 258 471 219 L 449 184 Q 404 129 319 102 Q 309 98 318 92 Q 322 88 351 90 Q 420 99 478 160 L 505 199 Z" fill="black" /></g></svg>