<?xml version='1.0' encoding='utf-8'?>
<svg xmlns="http://www.w3.org/2000/svg" version="1.1" viewBox="0 0 1024 1024"><g transform="scale(1, -1) translate(0, -900)"><path d="M 274 399 Q 273 294 272 158 Q 271 133 258 124 Q 255 124 196 136 Q 165 151 166 141 Q 167 134 186 117 Q 241 62 254 34 Q 267 0 283 -3 Q 298 -4 314 30 Q 333 76 334 150 Q 324 298 324 445 L 324 475 Q 324 523 326 570 L 327 625 Q 336 766 347 797 Q 363 827 308 849 Q 274 868 255 861 Q 237 854 253 831 Q 275 804 276 770 Q 277 752 277 603 L 277 555 Q 276 506 275 441 L 274 399 Z" fill="black" /></g></svg>