<?xml version='1.0' encoding='utf-8'?>
<svg xmlns="http://www.w3.org/2000/svg" version="1.1" viewBox="0 0 1024 1024"><g transform="scale(1, -1) translate(0, -900)"><path d="M 630 321 Q 733 336 749 324 Q 765 320 769 294 Q 776 233 768 119 Q 769 94 746 94 Q 719 93 698 93 Q 682 94 687 85 Q 691 76 719 60 Q 753 36 774 9 Q 787 -1 798 6 Q 819 24 833 100 Q 834 119 833 139 Q 815 302 830 328 Q 839 340 831 350 Q 821 360 779 376 Q 761 382 747 373 Q 725 366 665 358 Q 580 345 515 330 Q 457 320 413 313 C 383 308 399 271 428 280 Q 464 292 478 294 L 507 301 Q 543 307 593 313 L 630 321 Z" fill="black" /></g></svg>