<?xml version='1.0' encoding='utf-8'?>
<svg xmlns="http://www.w3.org/2000/svg" version="1.1" viewBox="0 0 1024 1024"><g transform="scale(1, -1) translate(0, -900)"><path d="M 249 323 Q 246 238 246 131 Q 245 109 233 99 L 170 113 Q 142 126 142 117 Q 143 110 161 95 Q 215 44 227 17 Q 242 -14 256 -17 Q 269 -18 284 13 Q 302 55 303 123 Q 296 244 295 363 L 295 395 Q 295 459 298 523 L 299 573 Q 306 700 319 741 Q 335 769 284 789 Q 253 807 235 800 Q 219 794 234 773 Q 253 748 254 717 Q 255 699 254 555 L 253 508 Q 252 447 250 367 L 249 323 Z" fill="black" /></g></svg>