<?xml version='1.0' encoding='utf-8'?>
<svg xmlns="http://www.w3.org/2000/svg" version="1.1" viewBox="0 0 1024 1024"><g transform="scale(1, -1) translate(0, -900)"><path d="M 739 544 Q 764 583 786 627 Q 801 660 811 669 Q 821 679 816 689 Q 810 698 762 714 Q 752 718 732 706 Q 702 690 627 673 Q 615 670 626 659 Q 636 649 664 657 Q 730 679 736 670 Q 740 663 729 629 Q 723 601 701 564 L 682 534 Q 651 485 599 435 Q 580 422 597 424 Q 646 428 713 508 Q 713 509 714 509 L 739 544 Z" fill="black" /></g></svg>