<?xml version='1.0' encoding='utf-8'?>
<svg xmlns="http://www.w3.org/2000/svg" version="1.1" viewBox="0 0 1024 1024"><g transform="scale(1, -1) translate(0, -900)"><path d="M 728 167 Q 759 219 790 297 Q 802 322 820 339 Q 836 352 825 365 Q 815 375 786 386 Q 765 393 741 381 Q 720 372 691 365 Q 663 356 615 351 Q 603 350 599 344 Q 595 338 611 331 Q 642 318 686 330 Q 717 343 724 344 Q 745 341 739 319 Q 723 249 695 198 L 673 166 Q 610 91 487 55 Q 475 51 486 43 Q 490 39 530 41 Q 621 50 700 131 L 728 167 Z" fill="black" /></g></svg>