<?xml version='1.0' encoding='utf-8'?>
<svg xmlns="http://www.w3.org/2000/svg" version="1.1" viewBox="0 0 1024 1024"><g transform="scale(1, -1) translate(0, -900)"><path d="M 683 212 Q 626 206 576 193 L 537 185 Q 492 176 454 162 Q 444 161 448 173 Q 461 233 458 242 Q 448 258 429 272 Q 420 278 412 277 Q 403 276 407 258 Q 417 224 408 193 Q 401 163 386 151 Q 370 138 376 126 Q 385 113 398 103 Q 408 96 417 103 Q 447 133 600 168 Q 667 184 683 179 Q 684 180 686 179 C 716 176 713 215 683 212 Z" fill="black" /></g></svg>