<?xml version='1.0' encoding='utf-8'?>
<svg xmlns="http://www.w3.org/2000/svg" version="1.1" viewBox="0 0 1024 1024"><g transform="scale(1, -1) translate(0, -900)"><path d="M 279 326 Q 278 235 274 121 Q 273 96 259 88 Q 253 85 203 103 Q 173 119 174 109 Q 175 102 192 85 Q 241 30 253 1 Q 265 -32 279 -35 Q 292 -36 310 -5 Q 331 38 334 110 Q 328 240 329 370 L 329 400 Q 329 461 332 521 L 334 578 Q 340 714 356 762 Q 372 790 320 813 Q 289 832 269 825 Q 253 819 267 797 Q 288 770 288 738 Q 289 719 286 560 L 285 507 Q 284 446 281 367 L 279 326 Z" fill="black" /></g></svg>