<?xml version='1.0' encoding='utf-8'?>
<svg xmlns="http://www.w3.org/2000/svg" version="1.1" viewBox="0 0 1024 1024"><g transform="scale(1, -1) translate(0, -900)"><path d="M 516 170 Q 517 70 500 39 Q 499 35 494 33 Q 482 29 388 36 Q 381 36 378 33 Q 377 29 386 21 Q 450 -25 485 -63 Q 497 -75 504 -72 Q 513 -72 529 -56 Q 568 -23 568 58 Q 568 98 567 174 L 565 210 Q 564 261 560 279 L 557 324 Q 557 349 545 357 Q 529 367 514 373 C 487 386 466 389 481 363 Q 494 344 501 310 L 508 271 Q 511 240 514 202 L 516 170 Z" fill="black" /></g></svg>