<?xml version='1.0' encoding='utf-8'?>
<svg xmlns="http://www.w3.org/2000/svg" version="1.1" viewBox="0 0 1024 1024"><g transform="scale(1, -1) translate(0, -900)"><path d="M 284 347 Q 281 259 281 148 Q 280 124 267 115 Q 258 109 205 122 Q 172 135 175 125 Q 176 118 195 102 Q 250 51 264 24 Q 280 -9 294 -11 Q 309 -12 324 23 Q 343 68 343 142 Q 336 263 334 384 L 334 417 Q 333 487 336 555 L 338 609 Q 338 712 358 781 Q 376 811 320 833 Q 286 852 267 845 Q 249 839 265 816 Q 287 788 288 755 Q 289 737 288 589 L 287 541 Q 286 477 284 391 L 284 347 Z" fill="black" /></g></svg>