<?xml version='1.0' encoding='utf-8'?>
<svg xmlns="http://www.w3.org/2000/svg" version="1.1" viewBox="0 0 1024 1024"><g transform="scale(1, -1) translate(0, -900)"><path d="M 735 90 Q 748 71 763 29 Q 772 10 788 20 Q 821 38 844 155 Q 877 327 899 357 Q 912 376 898 390 Q 843 445 804 432 Q 690 420 664 420 Q 655 420 654 410 Q 654 401 668 392 Q 690 380 746 388 Q 809 401 822 392 Q 831 386 829 363 Q 823 320 815 276 L 809 247 Q 796 186 779 121 Q 775 109 757 113 C 727 109 724 109 735 90 Z" fill="black" /></g></svg>