<?xml version='1.0' encoding='utf-8'?>
<svg xmlns="http://www.w3.org/2000/svg" version="1.1" viewBox="0 0 1024 1024"><g transform="scale(1, -1) translate(0, -900)"><path d="M 498 136 Q 489 97 511 47 Q 517 31 524 29 Q 530 23 536 30 Q 543 34 552 53 Q 559 75 559 102 Q 558 144 561 529 Q 561 608 575 662 Q 582 675 580 687 Q 574 696 525 725 Q 504 740 486 726 Q 482 722 488 708 Q 515 668 516 629 Q 517 592 518 549 L 519 513 Q 519 446 518 415 L 518 382 Q 517 342 517 299 L 517 272 Q 517 205 498 136 Z" fill="black" /></g></svg>