<?xml version='1.0' encoding='utf-8'?>
<svg xmlns="http://www.w3.org/2000/svg" version="1.1" viewBox="0 0 1024 1024"><g transform="scale(1, -1) translate(0, -900)"><path d="M 325 112 Q 326 131 326 154 Q 320 269 321 384 L 321 417 Q 321 486 325 553 L 328 611 Q 328 686 348 750 Q 364 778 312 801 Q 281 820 262 813 Q 244 807 259 785 Q 280 760 280 726 Q 281 711 279 590 L 278 540 Q 277 476 273 386 L 272 343 Q 271 261 268 158 Q 267 136 255 127 Q 249 123 176 136 Q 145 146 147 137 Q 148 130 168 116 Q 232 68 248 41 Q 267 10 283 8 Q 296 7 310 40 Q 319 62 323 93 L 325 112 Z" fill="black" /></g></svg>