<?xml version='1.0' encoding='utf-8'?>
<svg xmlns="http://www.w3.org/2000/svg" version="1.1" viewBox="0 0 1024 1024"><g transform="scale(1, -1) translate(0, -900)"><path d="M 706 215 Q 757 293 796 419 Q 805 446 821 463 Q 837 478 824 489 Q 811 499 783 507 Q 765 510 698 479 Q 677 473 654 465 C 626 455 604 437 634 436 Q 664 433 698 445 Q 720 458 725 460 Q 747 459 742 435 Q 721 324 673 246 L 645 211 Q 585 151 494 119 Q 484 113 494 108 Q 498 102 538 105 Q 607 114 673 178 L 706 215 Z" fill="black" /></g></svg>