<?xml version='1.0' encoding='utf-8'?>
<svg xmlns="http://www.w3.org/2000/svg" version="1.1" viewBox="0 0 1024 1024"><g transform="scale(1, -1) translate(0, -900)"><path d="M 254 335 Q 251 254 251 149 Q 250 127 238 119 Q 232 116 180 119 Q 149 131 151 121 Q 152 114 172 100 Q 224 55 237 31 Q 253 3 266 0 Q 279 -1 294 32 Q 310 75 309 146 Q 303 264 304 382 L 304 419 Q 304 471 307 522 L 309 576 Q 309 652 328 714 Q 344 742 292 765 Q 261 784 241 777 Q 225 771 239 749 Q 260 722 261 690 Q 262 675 260 558 L 259 509 Q 258 457 256 385 L 254 335 Z" fill="black" /></g></svg>