<?xml version='1.0' encoding='utf-8'?>
<svg xmlns="http://www.w3.org/2000/svg" version="1.1" viewBox="0 0 1024 1024"><g transform="scale(1, -1) translate(0, -900)"><path d="M 721 283 Q 721 337 721 401 L 721 424 Q 721 482 721 547 L 720 574 Q 719 667 736 728 Q 745 744 742 757 Q 735 767 678 801 Q 654 817 633 801 Q 629 797 635 780 Q 668 734 670 685 Q 673 615 676 533 Q 675 392 676 239 Q 673 163 654 92 Q 644 50 671 -10 Q 678 -28 686 -31 Q 693 -38 700 -30 Q 727 -8 725 53 Q 724 84 722 254 L 721 283 Z" fill="black" /></g></svg>