<?xml version='1.0' encoding='utf-8'?>
<svg xmlns="http://www.w3.org/2000/svg" version="1.1" viewBox="0 0 1024 1024"><g transform="scale(1, -1) translate(0, -900)"><path d="M 616 368 Q 616 337 617 295 L 618 259 Q 619 183 621 78 Q 621 42 610 28 Q 598 19 567 27 Q 548 31 524 33 Q 512 34 513 28 Q 514 21 525 12 Q 588 -33 627 -68 Q 639 -77 652 -60 Q 691 -6 683 72 Q 673 195 673 267 L 672 306 Q 672 343 674 378 L 675 411 Q 675 418 676 423 Q 682 451 676 460 Q 666 473 628 493 C 602 508 588 515 596 487 Q 595 480 603 465 Q 615 441 615 401 L 616 368 Z" fill="black" /></g></svg>