<?xml version='1.0' encoding='utf-8'?>
<svg xmlns="http://www.w3.org/2000/svg" version="1.1" viewBox="0 0 1024 1024"><g transform="scale(1, -1) translate(0, -900)"><path d="M 717 316 Q 726 320 739 322 Q 788 334 811 333 C 841 334 841 367 811 363 Q 762 357 718 348 L 671 338 Q 629 331 595 318 Q 580 315 585 332 Q 597 395 591 408 Q 579 423 560 435 Q 551 439 543 439 Q 534 436 539 420 Q 552 384 545 351 Q 539 318 525 305 Q 509 292 515 279 Q 525 266 538 257 Q 548 251 557 257 Q 579 281 672 304 L 717 316 Z" fill="black" /></g></svg>