<?xml version='1.0' encoding='utf-8'?>
<svg xmlns="http://www.w3.org/2000/svg" version="1.1" viewBox="0 0 1024 1024"><g transform="scale(1, -1) translate(0, -900)"><path d="M 255 347 Q 252 259 251 147 Q 250 125 237 116 Q 231 113 168 126 Q 137 139 139 129 Q 140 122 159 107 Q 217 58 232 30 Q 248 -1 263 -4 Q 276 -5 292 28 Q 310 71 309 142 Q 303 265 303 386 L 303 417 Q 303 484 307 551 L 309 607 Q 309 680 328 742 Q 344 770 292 793 Q 261 812 241 805 Q 225 799 239 777 Q 260 750 261 718 Q 262 703 260 590 L 260 538 Q 259 475 256 389 L 255 347 Z" fill="black" /></g></svg>