<?xml version='1.0' encoding='utf-8'?>
<svg xmlns="http://www.w3.org/2000/svg" version="1.1" viewBox="0 0 1024 1024"><g transform="scale(1, -1) translate(0, -900)"><path d="M 292 549 Q 331 559 373 566 L 415 573 Q 443 579 472 581 Q 493 582 494 568 Q 497 517 490 508 Q 480 502 439 513 Q 427 517 424 513 Q 423 509 430 501 Q 472 470 496 446 Q 506 436 517 446 Q 538 470 538 539 Q 538 551 541 572 Q 544 587 537 594 Q 518 613 503 621 Q 493 625 487 618 Q 481 612 415 596 L 374 588 Q 337 584 273 574 C 243 569 263 542 292 549 Z" fill="black" /></g></svg>