<?xml version='1.0' encoding='utf-8'?>
<svg xmlns="http://www.w3.org/2000/svg" version="1.1" viewBox="0 0 1024 1024"><g transform="scale(1, -1) translate(0, -900)"><path d="M 281 357 Q 280 263 277 143 Q 276 121 263 111 Q 257 108 197 121 Q 164 134 167 125 Q 168 118 187 102 Q 245 50 259 21 Q 275 -13 290 -15 Q 303 -16 320 18 Q 339 64 339 138 Q 332 268 332 397 L 332 428 Q 332 495 336 561 L 338 615 Q 338 690 358 756 Q 374 787 320 809 Q 286 828 267 821 Q 249 815 265 792 Q 287 765 287 731 Q 288 715 287 596 L 286 548 Q 285 485 282 398 L 281 357 Z" fill="black" /></g></svg>