<?xml version='1.0' encoding='utf-8'?>
<svg xmlns="http://www.w3.org/2000/svg" version="1.1" viewBox="0 0 1024 1024"><g transform="scale(1, -1) translate(0, -900)"><path d="M 514 179 Q 515 76 495 37 Q 494 33 488 30 Q 476 30 400 62 Q 393 63 390 61 Q 389 57 395 49 Q 450 -12 479 -56 Q 489 -69 496 -69 Q 506 -69 523 -53 Q 562 -20 563 106 Q 563 139 562 183 L 559 225 Q 558 268 555 287 L 552 328 Q 546 371 527 381 Q 524 382 522 383 C 497 400 470 401 483 374 Q 495 355 501 318 L 506 281 Q 510 253 512 220 L 514 179 Z" fill="black" /></g></svg>