<?xml version='1.0' encoding='utf-8'?>
<svg xmlns="http://www.w3.org/2000/svg" version="1.1" viewBox="0 0 1024 1024"><g transform="scale(1, -1) translate(0, -900)"><path d="M 373 566 Q 373 458 384 438 Q 388 434 394 435 Q 403 441 410 484 Q 414 530 415 573 L 415 596 Q 415 615 416 645 L 416 679 Q 416 700 418 723 L 420 762 Q 421 777 422 785 Q 425 798 427 809 Q 430 822 419 829 Q 395 845 385 847 Q 375 851 364 844 Q 357 838 362 831 Q 375 804 376 752 L 376 716 Q 376 695 375 670 L 375 637 Q 374 615 374 588 L 373 566 Z" fill="black" /></g></svg>