<?xml version='1.0' encoding='utf-8'?>
<svg xmlns="http://www.w3.org/2000/svg" version="1.1" viewBox="0 0 1024 1024"><g transform="scale(1, -1) translate(0, -900)"><path d="M 256 334 Q 255 246 253 135 Q 252 111 239 103 Q 230 97 177 110 Q 144 123 147 113 Q 148 106 167 90 Q 222 39 236 12 Q 252 -21 266 -23 Q 281 -24 296 11 Q 315 56 315 130 Q 308 254 306 379 L 306 411 Q 306 468 308 524 L 310 582 Q 310 688 330 757 Q 348 787 292 809 Q 258 828 239 821 Q 221 815 237 792 Q 259 764 260 731 Q 261 713 260 558 L 259 507 Q 258 450 256 376 L 256 334 Z" fill="black" /></g></svg>