<?xml version='1.0' encoding='utf-8'?>
<svg xmlns="http://www.w3.org/2000/svg" version="1.1" viewBox="0 0 1024 1024"><g transform="scale(1, -1) translate(0, -900)"><path d="M 491 594 Q 525 581 551 589 Q 584 601 735 629 Q 760 633 771 622 Q 792 600 793 544 Q 800 372 788 260 Q 763 85 729 65 Q 722 62 642 89 Q 632 92 630 89 Q 626 83 641 69 Q 683 26 703 -12 Q 725 -43 744 -36 Q 760 -32 781 0 Q 811 42 830 117 Q 849 208 849 505 Q 848 581 867 608 Q 883 627 861 644 Q 840 657 782 677 Q 773 678 761 674 Q 662 644 509 617 C 479 612 462 601 491 594 Z" fill="black" /></g></svg>