<?xml version='1.0' encoding='utf-8'?>
<svg xmlns="http://www.w3.org/2000/svg" version="1.1" viewBox="0 0 1024 1024"><g transform="scale(1, -1) translate(0, -900)"><path d="M 693 180 Q 693 176 695 170 Q 699 157 711 157 Q 724 158 731 172 Q 743 188 765 265 Q 780 313 813 340 Q 829 355 815 369 Q 799 384 753 408 Q 741 415 676 402 Q 667 402 620 392 L 577 384 Q 556 383 537 377 Q 497 368 465 362 C 436 356 448 317 476 329 Q 485 338 576 352 L 616 359 Q 709 377 724 367 Q 734 363 728 333 Q 707 233 698 205 L 693 180 Z" fill="black" /></g></svg>