<?xml version='1.0' encoding='utf-8'?>
<svg xmlns="http://www.w3.org/2000/svg" version="1.1" viewBox="0 0 1024 1024"><g transform="scale(1, -1) translate(0, -900)"><path d="M 282 334 Q 281 247 279 139 Q 278 114 264 105 Q 258 102 200 114 Q 169 127 171 117 Q 172 110 190 95 Q 247 46 260 18 Q 276 -13 290 -16 Q 305 -17 319 16 Q 337 59 337 131 Q 330 251 329 369 L 328 399 Q 328 469 330 539 L 332 596 Q 338 741 353 787 Q 369 815 316 837 Q 285 855 265 849 Q 249 842 264 820 Q 283 795 285 762 Q 286 743 285 576 L 285 526 Q 284 460 282 374 L 282 334 Z" fill="black" /></g></svg>