<?xml version='1.0' encoding='utf-8'?>
<svg xmlns="http://www.w3.org/2000/svg" version="1.1" viewBox="0 0 1024 1024"><g transform="scale(1, -1) translate(0, -900)"><path d="M 257 355 Q 257 273 257 170 Q 256 148 244 140 Q 240 137 172 151 Q 141 163 143 153 Q 144 146 163 131 Q 224 82 239 54 Q 257 21 272 20 Q 285 19 300 53 Q 318 96 316 167 Q 309 279 306 393 L 306 422 Q 305 485 307 547 L 308 604 Q 308 682 325 743 Q 341 771 288 793 Q 255 811 237 804 Q 221 798 236 776 Q 257 751 258 717 Q 259 702 259 583 L 259 532 Q 258 474 258 395 L 257 355 Z" fill="black" /></g></svg>