<?xml version='1.0' encoding='utf-8'?>
<svg xmlns="http://www.w3.org/2000/svg" version="1.1" viewBox="0 0 1024 1024"><g transform="scale(1, -1) translate(0, -900)"><path d="M 687 66 Q 714 32 733 0 Q 742 -18 753 -17 Q 768 -16 783 16 Q 799 53 796 97 Q 790 152 782 258 Q 781 286 796 308 Q 805 320 796 329 Q 778 348 729 370 Q 713 377 698 369 Q 635 339 512 319 C 482 314 492 285 522 289 Q 538 290 567 297 Q 703 327 717 318 Q 727 305 729 109 Q 726 100 724 91 C 716 62 669 90 687 66 Z" fill="black" /></g></svg>