<?xml version='1.0' encoding='utf-8'?>
<svg xmlns="http://www.w3.org/2000/svg" version="1.1" viewBox="0 0 1024 1024"><g transform="scale(1, -1) translate(0, -900)"><path d="M 599 358 Q 611 359 627 363 Q 727 384 744 376 Q 756 372 757 346 Q 770 192 762 71 Q 761 46 746 42 Q 734 38 669 50 Q 657 51 658 44 Q 659 37 675 28 Q 714 -2 743 -33 Q 759 -49 776 -46 Q 791 -43 810 1 Q 832 44 829 90 Q 822 198 814 297 Q 810 337 827 368 Q 839 383 825 397 Q 807 412 769 425 Q 748 435 731 423 Q 716 416 688 408 Q 624 392 592 385 C 563 378 569 353 599 358 Z" fill="black" /></g></svg>