<?xml version='1.0' encoding='utf-8'?>
<svg xmlns="http://www.w3.org/2000/svg" version="1.1" viewBox="0 0 1024 1024"><g transform="scale(1, -1) translate(0, -900)"><path d="M 261 330 Q 260 242 258 131 Q 257 109 245 100 Q 238 97 176 110 Q 145 123 147 113 Q 148 106 167 91 Q 225 42 240 14 Q 256 -17 271 -20 Q 284 -21 300 12 Q 318 55 317 126 Q 310 246 309 365 L 309 397 Q 309 458 312 520 L 313 573 Q 329 717 333 723 Q 349 751 296 773 Q 265 791 245 785 Q 229 778 243 757 Q 264 730 265 698 Q 266 682 265 554 L 264 507 Q 263 449 261 372 L 261 330 Z" fill="black" /></g></svg>