<?xml version='1.0' encoding='utf-8'?>
<svg xmlns="http://www.w3.org/2000/svg" version="1.1" viewBox="0 0 1024 1024"><g transform="scale(1, -1) translate(0, -900)"><path d="M 277 332 Q 276 236 276 114 Q 275 89 262 80 Q 256 77 209 85 Q 178 98 179 89 Q 180 82 198 65 Q 250 14 261 -13 Q 274 -44 288 -47 Q 303 -48 318 -13 Q 337 32 338 106 Q 329 236 327 366 L 326 392 Q 325 459 327 527 L 328 583 Q 335 733 347 769 Q 363 800 308 821 Q 274 840 255 833 Q 237 826 254 803 Q 275 776 277 742 Q 278 723 279 566 L 279 515 Q 278 451 277 368 L 277 332 Z" fill="black" /></g></svg>