<?xml version='1.0' encoding='utf-8'?>
<svg xmlns="http://www.w3.org/2000/svg" version="1.1" viewBox="0 0 1024 1024"><g transform="scale(1, -1) translate(0, -900)"><path d="M 786 102 Q 795 93 814 54 Q 823 33 837 34 Q 849 35 857 54 Q 884 106 868 260 Q 850 612 876 643 Q 886 656 886 666 Q 885 678 853 697 Q 801 728 789 726 Q 779 726 773 722 Q 757 715 707 705 Q 613 690 500 665 Q 475 661 453 660 C 423 657 453 609 482 617 Q 494 618 510 625 Q 591 652 772 674 Q 788 675 793 668 Q 814 640 811 392 Q 812 239 813 203 Q 816 163 807 147 Q 803 135 798 135 Q 791 134 783 139 Q 780 140 777 141 C 761 141 770 127 786 102 Z" fill="black" /></g></svg>