<?xml version='1.0' encoding='utf-8'?>
<svg xmlns="http://www.w3.org/2000/svg" version="1.1" viewBox="0 0 1024 1024"><g transform="scale(1, -1) translate(0, -900)"><path d="M 714 98 Q 665 110 618 123 Q 606 126 607 118 Q 608 111 619 104 Q 712 37 746 -6 Q 762 -22 777 -8 Q 807 28 807 113 Q 803 171 798 366 L 797 407 Q 796 456 795 513 L 795 559 Q 796 590 804 612 Q 813 631 795 643 Q 773 662 748 670 C 720 682 697 680 714 655 Q 741 628 742 548 Q 742 547 743 541 L 745 499 Q 746 445 749 395 L 750 357 Q 754 116 736 101 Q 727 94 714 98 Z" fill="black" /></g></svg>