<?xml version='1.0' encoding='utf-8'?>
<svg xmlns="http://www.w3.org/2000/svg" version="1.1" viewBox="0 0 1024 1024"><g transform="scale(1, -1) translate(0, -900)"><path d="M 687 190 Q 694 102 675 63 Q 674 59 668 56 Q 659 53 568 64 Q 561 64 558 61 Q 557 57 566 49 Q 629 0 663 -38 Q 675 -51 682 -48 Q 691 -48 707 -32 Q 741 4 742 98 Q 741 135 738 197 L 735 238 Q 731 284 728 303 L 723 345 Q 722 352 722 359 Q 722 378 709 385 Q 690 397 675 402 C 647 414 627 414 644 390 Q 663 369 669 328 L 676 291 Q 680 263 684 228 L 687 190 Z" fill="black" /></g></svg>