<?xml version='1.0' encoding='utf-8'?>
<svg xmlns="http://www.w3.org/2000/svg" version="1.1" viewBox="0 0 1024 1024"><g transform="scale(1, -1) translate(0, -900)"><path d="M 304 150 Q 297 271 297 392 L 297 422 Q 297 483 300 544 L 302 598 Q 302 682 321 743 Q 337 771 284 793 Q 253 811 233 805 Q 217 798 231 777 Q 252 750 253 718 Q 254 702 253 579 L 252 530 Q 251 470 249 390 L 249 351 Q 248 263 246 151 Q 245 129 233 120 Q 226 114 205 120 Q 183 126 160 131 Q 129 143 131 133 Q 132 126 151 111 Q 212 62 227 34 Q 245 1 260 0 Q 273 -1 288 32 Q 304 75 305 141 L 304 150 Z" fill="black" /></g></svg>