<?xml version='1.0' encoding='utf-8'?>
<svg xmlns="http://www.w3.org/2000/svg" version="1.1" viewBox="0 0 1024 1024"><g transform="scale(1, -1) translate(0, -900)"><path d="M 730 591 Q 800 636 821 628 Q 831 622 825 601 Q 783 483 785 476 Q 785 463 806 458 Q 899 379 894 295 Q 893 276 880 265 Q 864 258 840 262 Q 800 272 766 279 Q 759 280 759 273 Q 760 266 775 255 Q 844 215 862 182 Q 869 169 881 166 Q 893 165 907 175 Q 949 220 954 276 Q 963 364 849 468 Q 804 490 872 573 Q 890 603 914 617 Q 942 636 915 653 Q 875 681 851 689 Q 833 693 818 682 Q 803 664 718 623 Q 714 622 713 620 C 686 606 704 575 730 591 Z" fill="black" /></g></svg>