<?xml version='1.0' encoding='utf-8'?>
<svg xmlns="http://www.w3.org/2000/svg" version="1.1" viewBox="0 0 1024 1024"><g transform="scale(1, -1) translate(0, -900)"><path d="M 601 354 Q 601 314 601 267 L 600 225 Q 591 -30 614 -65 Q 620 -72 627 -70 Q 640 -61 647 -5 Q 648 25 650 232 L 650 276 Q 650 315 650 363 L 651 394 Q 652 416 653 438 Q 653 453 654 464 L 660 504 Q 661 511 663 517 Q 666 535 652 543 Q 633 556 619 562 C 592 576 562 580 575 553 Q 575 546 589 527 Q 598 511 600 488 L 602 456 Q 602 423 601 384 L 601 354 Z" fill="black" /></g></svg>