<?xml version='1.0' encoding='utf-8'?>
<svg xmlns="http://www.w3.org/2000/svg" version="1.1" viewBox="0 0 1024 1024"><g transform="scale(1, -1) translate(0, -900)"><path d="M 522 556 Q 525 505 512 480 Q 511 476 507 474 Q 492 468 403 484 Q 396 484 394 481 Q 393 477 401 470 Q 465 425 501 390 Q 513 378 519 381 Q 526 382 540 395 Q 574 422 568 561 L 565 600 Q 562 637 560 657 L 555 700 Q 555 709 555 715 Q 554 731 543 738 Q 533 745 521 749 C 493 761 469 764 487 740 Q 502 725 507 688 L 514 649 Q 517 631 519 611 Q 519 602 520 592 L 522 556 Z" fill="black" /></g></svg>