<?xml version='1.0' encoding='utf-8'?>
<svg xmlns="http://www.w3.org/2000/svg" version="1.1" viewBox="0 0 1024 1024"><g transform="scale(1, -1) translate(0, -900)"><path d="M 254 328 Q 251 249 248 152 Q 247 130 235 121 Q 232 121 176 135 Q 145 151 146 141 Q 147 134 165 116 Q 217 61 229 31 Q 242 -3 256 -6 Q 271 -7 288 26 Q 309 71 312 145 Q 308 259 308 372 L 308 406 Q 309 473 313 540 L 315 594 Q 316 603 317 611 Q 323 699 337 744 Q 355 774 300 797 Q 267 816 247 810 Q 229 804 245 781 Q 266 753 267 719 Q 268 703 264 574 L 262 527 Q 259 463 256 375 L 254 328 Z" fill="black" /></g></svg>