<?xml version='1.0' encoding='utf-8'?>
<svg xmlns="http://www.w3.org/2000/svg" version="1.1" viewBox="0 0 1024 1024"><g transform="scale(1, -1) translate(0, -900)"><path d="M 624 275 Q 563 263 510 260 Q 494 260 491 251 Q 490 244 512 232 Q 534 216 554 224 Q 585 233 616 240 L 672 253 Q 715 263 754 268 Q 773 269 776 264 Q 785 251 777 216 Q 761 120 735 79 Q 717 51 692 57 Q 670 66 650 75 Q 628 85 642 61 Q 678 16 694 -17 Q 710 -38 728 -23 Q 779 7 810 107 Q 841 242 858 259 Q 871 272 865 282 Q 856 292 807 317 Q 788 326 769 314 Q 750 304 685 288 L 624 275 Z" fill="black" /></g></svg>