<?xml version='1.0' encoding='utf-8'?>
<svg xmlns="http://www.w3.org/2000/svg" version="1.1" viewBox="0 0 1024 1024"><g transform="scale(1, -1) translate(0, -900)"><path d="M 495 330 Q 501 352 507 380 L 514 423 Q 523 489 527 496 Q 533 502 528 510 Q 522 519 491 529 C 463 539 451 543 457 519 Q 458 518 459 516 Q 465 476 463 407 L 457 367 Q 456 363 456 358 Q 432 241 330 167 Q 318 160 306 151 Q 305 151 304 150 C 290 140 290 140 305 141 Q 383 141 445 218 Q 451 227 457 236 Q 473 264 488 307 L 495 330 Z" fill="black" /></g></svg>