<?xml version='1.0' encoding='utf-8'?>
<svg xmlns="http://www.w3.org/2000/svg" version="1.1" viewBox="0 0 1024 1024"><g transform="scale(1, -1) translate(0, -900)"><path d="M 764 394 Q 765 393 766 388 Q 770 372 784 373 Q 797 374 806 389 Q 819 404 843 479 Q 861 531 898 560 Q 917 576 901 592 Q 883 608 834 636 Q 819 645 745 627 Q 730 627 652 610 L 611 602 Q 583 598 558 590 Q 489 574 443 566 C 413 561 436 527 465 534 Q 471 534 477 536 Q 525 554 612 571 L 652 579 Q 784 606 801 595 Q 811 589 805 559 Q 780 445 769 423 Q 768 423 768 422 C 760 402 760 402 764 394 Z" fill="black" /></g></svg>