<?xml version='1.0' encoding='utf-8'?>
<svg xmlns="http://www.w3.org/2000/svg" version="1.1" viewBox="0 0 1024 1024"><g transform="scale(1, -1) translate(0, -900)"><path d="M 544 771 Q 523 796 506 794 Q 496 791 501 774 Q 519 713 508 654 L 498 616 Q 482 564 456 539 Q 440 526 444 513 Q 453 498 467 488 Q 476 482 495 493 Q 541 527 679 543 Q 692 546 704 545 C 734 546 750 578 720 577 Q 677 576 638 569 L 600 564 Q 563 558 530 549 Q 515 548 521 564 Q 527 595 534 624 L 541 659 Q 556 734 558 740 C 561 753 561 753 544 771 Z" fill="black" /></g></svg>