<?xml version='1.0' encoding='utf-8'?>
<svg xmlns="http://www.w3.org/2000/svg" version="1.1" viewBox="0 0 1024 1024"><g transform="scale(1, -1) translate(0, -900)"><path d="M 251 352 Q 250 259 249 141 Q 249 119 236 109 Q 229 106 167 122 Q 137 135 139 125 Q 140 118 158 103 Q 216 51 230 23 Q 246 -10 262 -12 Q 275 -13 290 20 Q 309 63 308 135 Q 301 265 299 394 L 299 423 Q 299 492 301 558 L 303 613 Q 303 700 321 759 Q 337 787 284 809 Q 253 827 233 820 Q 217 814 232 792 Q 251 767 254 734 Q 255 718 254 593 L 254 545 Q 253 481 251 393 L 251 352 Z" fill="black" /></g></svg>