<?xml version='1.0' encoding='utf-8'?>
<svg xmlns="http://www.w3.org/2000/svg" version="1.1" viewBox="0 0 1024 1024"><g transform="scale(1, -1) translate(0, -900)"><path d="M 266 338 Q 266 253 266 148 Q 265 126 253 116 Q 250 113 181 117 Q 148 127 151 116 Q 152 109 174 96 Q 235 51 252 25 Q 271 -6 286 -6 Q 299 -7 314 28 Q 330 74 326 146 Q 317 263 315 380 L 314 411 Q 313 477 315 540 L 317 599 Q 317 690 335 753 Q 351 783 296 805 Q 262 824 243 817 Q 225 810 241 787 Q 263 760 265 726 Q 266 710 267 577 L 267 525 Q 266 464 266 381 L 266 338 Z" fill="black" /></g></svg>