<?xml version='1.0' encoding='utf-8'?>
<svg xmlns="http://www.w3.org/2000/svg" version="1.1" viewBox="0 0 1024 1024"><g transform="scale(1, -1) translate(0, -900)"><path d="M 559 611 Q 605 626 692 644 Q 696 645 703 647 C 732 654 716 671 686 668 Q 611 661 531 643 Q 524 640 520 643 Q 519 646 523 653 Q 608 762 625 780 Q 637 789 631 800 Q 625 812 582 833 Q 567 840 559 837 Q 547 831 552 813 Q 567 762 486 668 Q 467 650 440 632 Q 427 622 431 611 Q 435 596 458 578 Q 468 568 480 578 Q 496 588 538 605 L 559 611 Z" fill="black" /></g></svg>