<?xml version='1.0' encoding='utf-8'?>
<svg xmlns="http://www.w3.org/2000/svg" version="1.1" viewBox="0 0 1024 1024"><g transform="scale(1, -1) translate(0, -900)"><path d="M 258 352 Q 257 270 257 170 Q 256 146 244 137 L 191 141 Q 161 154 163 145 Q 164 138 182 123 Q 231 74 243 49 Q 256 18 269 16 Q 282 15 298 48 Q 317 91 316 163 Q 309 278 307 393 L 307 426 Q 306 477 308 526 L 309 577 Q 313 742 329 787 Q 345 815 292 837 Q 261 855 241 848 Q 225 842 240 820 Q 259 795 262 762 Q 263 743 262 559 L 261 513 Q 260 461 259 395 L 258 352 Z" fill="black" /></g></svg>