<?xml version='1.0' encoding='utf-8'?>
<svg xmlns="http://www.w3.org/2000/svg" version="1.1" viewBox="0 0 1024 1024"><g transform="scale(1, -1) translate(0, -900)"><path d="M 264 342 Q 261 245 259 122 Q 258 97 245 89 Q 239 85 175 102 Q 145 115 147 105 Q 148 98 166 83 Q 224 31 238 3 Q 254 -30 270 -32 Q 283 -33 299 0 Q 317 43 318 114 Q 311 247 312 381 L 312 409 Q 313 470 316 532 L 318 586 Q 327 709 340 750 Q 356 778 304 801 Q 273 820 253 813 Q 237 807 251 785 Q 272 758 272 726 Q 273 708 270 567 L 269 519 Q 268 459 265 381 L 264 342 Z" fill="black" /></g></svg>