<?xml version='1.0' encoding='utf-8'?>
<svg xmlns="http://www.w3.org/2000/svg" version="1.1" viewBox="0 0 1024 1024"><g transform="scale(1, -1) translate(0, -900)"><path d="M 642 578 Q 727 600 760 597 Q 776 591 776 584 Q 777 581 772 570 Q 742 513 749 509 Q 755 505 767 515 Q 810 546 846 557 Q 876 567 875 574 Q 874 581 816 624 Q 798 639 731 623 Q 671 614 650 607 L 622 602 Q 570 593 507 579 Q 470 572 430 565 Q 405 562 421 549 Q 449 527 476 536 Q 548 563 587 568 L 642 578 Z" fill="black" /></g></svg>