<?xml version='1.0' encoding='utf-8'?>
<svg xmlns="http://www.w3.org/2000/svg" version="1.1" viewBox="0 0 1024 1024"><g transform="scale(1, -1) translate(0, -900)"><path d="M 612 675 Q 621 732 638 769 Q 644 779 636 787 Q 620 805 588 822 Q 569 832 552 829 Q 533 823 546 805 Q 570 775 567 746 Q 563 703 557 662 L 551 622 Q 545 586 538 553 L 527 514 Q 517 480 506 447 L 490 408 Q 448 308 343 213 Q 331 206 329 202 Q 325 195 341 196 Q 387 196 483 309 Q 495 325 507 344 Q 526 378 546 422 L 560 458 Q 572 492 582 528 L 592 568 Q 599 601 604 634 L 612 675 Z" fill="black" /></g></svg>