<?xml version='1.0' encoding='utf-8'?>
<svg xmlns="http://www.w3.org/2000/svg" version="1.1" viewBox="0 0 1024 1024"><g transform="scale(1, -1) translate(0, -900)"><path d="M 267 332 Q 266 247 264 139 Q 263 115 250 107 Q 247 104 188 108 Q 157 118 159 109 Q 160 102 180 88 Q 235 45 249 19 Q 265 -11 279 -12 Q 292 -13 306 21 Q 324 64 321 134 Q 315 254 315 372 L 315 403 Q 315 473 318 542 L 320 594 Q 321 604 322 615 Q 326 699 340 742 Q 356 770 304 793 Q 273 812 253 805 Q 237 799 251 777 Q 272 750 273 718 Q 274 702 272 573 L 272 528 Q 271 464 268 373 L 267 332 Z" fill="black" /></g></svg>