<?xml version='1.0' encoding='utf-8'?>
<svg xmlns="http://www.w3.org/2000/svg" version="1.1" viewBox="0 0 1024 1024"><g transform="scale(1, -1) translate(0, -900)"><path d="M 440 369 Q 452 370 465 376 Q 516 386 524 383 Q 531 380 532 364 Q 542 217 533 102 Q 532 80 518 75 Q 509 74 464 92 Q 454 95 454 89 Q 455 82 466 74 Q 494 46 515 19 Q 528 4 541 5 Q 554 8 572 47 Q 593 87 590 128 Q 583 227 577 316 Q 574 352 589 381 Q 598 393 586 404 Q 571 416 540 425 Q 528 431 431 391 C 403 380 411 362 440 369 Z" fill="black" /></g></svg>