<?xml version='1.0' encoding='utf-8'?>
<svg xmlns="http://www.w3.org/2000/svg" version="1.1" viewBox="0 0 1024 1024"><g transform="scale(1, -1) translate(0, -900)"><path d="M 675 521 Q 688 503 701 497 Q 711 490 726 510 Q 741 535 771 670 Q 780 700 802 723 Q 815 735 804 748 Q 789 764 749 789 Q 730 799 715 792 Q 693 786 663 780 Q 623 773 573 761 Q 534 752 504 746 C 475 740 500 711 529 719 Q 584 735 682 751 Q 704 755 711 748 Q 724 732 721 717 Q 696 572 677 557 C 663 535 663 535 675 521 Z" fill="black" /></g></svg>