<?xml version='1.0' encoding='utf-8'?>
<svg xmlns="http://www.w3.org/2000/svg" version="1.1" viewBox="0 0 1024 1024"><g transform="scale(1, -1) translate(0, -900)"><path d="M 271 349 Q 268 252 267 128 Q 266 103 252 94 Q 245 90 181 102 Q 148 115 151 105 Q 152 98 172 82 Q 233 33 248 4 Q 264 -29 280 -31 Q 295 -32 310 3 Q 328 48 327 122 Q 320 255 320 389 L 320 422 Q 320 483 323 545 L 324 601 Q 331 731 346 776 Q 362 807 308 829 Q 274 848 255 841 Q 237 835 253 812 Q 275 785 276 751 Q 277 732 275 581 L 274 530 Q 273 469 271 390 L 271 349 Z" fill="black" /></g></svg>