<?xml version='1.0' encoding='utf-8'?>
<svg xmlns="http://www.w3.org/2000/svg" version="1.1" viewBox="0 0 1024 1024"><g transform="scale(1, -1) translate(0, -900)"><path d="M 270 342 Q 269 243 266 116 Q 265 92 251 83 L 177 97 Q 144 110 147 101 Q 148 94 167 78 Q 230 23 244 -6 Q 262 -40 278 -43 Q 293 -44 308 -10 Q 327 36 327 110 Q 320 246 320 381 L 320 410 Q 320 468 323 525 L 325 579 Q 325 675 346 744 Q 364 775 308 798 Q 274 816 255 809 Q 237 803 253 780 Q 275 753 276 719 Q 277 701 275 564 L 274 511 Q 273 456 271 382 L 270 342 Z" fill="black" /></g></svg>