<?xml version='1.0' encoding='utf-8'?>
<svg xmlns="http://www.w3.org/2000/svg" version="1.1" viewBox="0 0 1024 1024"><g transform="scale(1, -1) translate(0, -900)"><path d="M 271 393 Q 270 299 268 178 Q 267 156 255 146 Q 249 143 199 156 Q 169 171 170 161 Q 171 154 189 138 Q 240 86 252 59 Q 265 28 279 24 Q 292 23 308 56 Q 327 99 328 171 Q 319 304 319 436 L 319 469 Q 318 529 321 587 L 323 640 Q 323 724 341 783 Q 357 811 304 833 Q 273 851 253 844 Q 237 838 252 816 Q 271 791 274 758 Q 275 742 274 621 L 274 574 Q 273 516 271 435 L 271 393 Z" fill="black" /></g></svg>