<?xml version='1.0' encoding='utf-8'?>
<svg xmlns="http://www.w3.org/2000/svg" version="1.1" viewBox="0 0 1024 1024"><g transform="scale(1, -1) translate(0, -900)"><path d="M 289 357 Q 288 269 286 155 Q 285 133 273 124 Q 266 121 204 134 Q 173 147 175 137 Q 176 130 195 115 Q 253 66 268 38 Q 284 7 299 4 Q 312 3 328 36 Q 346 79 345 150 Q 338 274 337 398 L 337 432 Q 337 489 340 545 L 341 598 Q 342 608 343 619 Q 347 703 361 747 Q 377 775 324 797 Q 293 815 273 809 Q 257 802 271 781 Q 292 754 293 722 Q 294 706 293 581 L 292 534 Q 291 477 289 402 L 289 357 Z" fill="black" /></g></svg>