<?xml version='1.0' encoding='utf-8'?>
<svg xmlns="http://www.w3.org/2000/svg" version="1.1" viewBox="0 0 1024 1024"><g transform="scale(1, -1) translate(0, -900)"><path d="M 265 316 Q 264 234 262 130 Q 261 108 248 98 Q 239 94 181 106 Q 148 119 151 109 Q 152 102 172 86 Q 230 35 244 8 Q 260 -25 275 -27 Q 290 -28 305 7 Q 324 52 323 126 Q 316 243 316 359 L 316 391 Q 316 452 319 514 L 321 568 Q 321 665 342 736 Q 358 767 304 789 Q 270 808 251 801 Q 233 795 249 772 Q 271 745 271 711 Q 272 695 271 549 L 270 501 Q 269 440 266 360 L 265 316 Z" fill="black" /></g></svg>