<?xml version='1.0' encoding='utf-8'?>
<svg xmlns="http://www.w3.org/2000/svg" version="1.1" viewBox="0 0 1024 1024"><g transform="scale(1, -1) translate(0, -900)"><path d="M 254 308 Q 253 223 253 115 Q 252 91 239 82 Q 233 78 169 90 Q 136 103 139 93 Q 140 86 160 70 Q 221 21 236 -8 Q 252 -41 268 -43 Q 283 -44 298 -9 Q 316 37 314 110 Q 307 230 304 349 L 304 381 Q 303 442 305 504 L 306 559 Q 312 703 327 749 Q 343 779 288 801 Q 254 820 235 813 Q 217 806 234 783 Q 255 756 256 722 Q 257 703 257 537 L 257 489 Q 256 429 255 352 L 254 308 Z" fill="black" /></g></svg>