<?xml version='1.0' encoding='utf-8'?>
<svg xmlns="http://www.w3.org/2000/svg" version="1.1" viewBox="0 0 1024 1024"><g transform="scale(1, -1) translate(0, -900)"><path d="M 258 335 Q 255 251 253 148 Q 252 124 239 115 Q 233 112 180 115 Q 149 127 151 117 Q 152 110 172 96 Q 224 51 237 27 Q 253 -1 266 -4 Q 279 -5 294 28 Q 312 71 310 142 Q 306 257 306 372 L 306 406 Q 306 473 310 541 L 313 595 Q 320 718 336 766 Q 352 794 300 817 Q 269 836 250 829 Q 232 823 247 801 Q 266 776 268 742 Q 269 724 266 576 L 264 528 Q 263 464 259 378 L 258 335 Z" fill="black" /></g></svg>