<?xml version='1.0' encoding='utf-8'?>
<svg xmlns="http://www.w3.org/2000/svg" version="1.1" viewBox="0 0 1024 1024"><g transform="scale(1, -1) translate(0, -900)"><path d="M 702 337 Q 721 349 803 349 Q 821 349 824 342 Q 830 321 808 198 Q 787 111 753 58 Q 740 39 725 36 Q 715 33 649 50 Q 639 54 639 48 Q 638 44 649 34 Q 682 -6 696 -36 Q 703 -54 714 -54 Q 750 -57 794 2 Q 836 62 890 273 Q 894 298 913 312 Q 926 324 926 332 Q 920 362 851 390 Q 829 399 746 378 Q 736 377 724 373 Q 627 352 515 340 C 485 337 468 326 497 320 Q 498 320 500 319 Q 521 313 545 314 L 581 318 Q 629 325 672 332 L 702 337 Z" fill="black" /></g></svg>