<?xml version='1.0' encoding='utf-8'?>
<svg xmlns="http://www.w3.org/2000/svg" version="1.1" viewBox="0 0 1024 1024"><g transform="scale(1, -1) translate(0, -900)"><path d="M 821 334 Q 846 464 875 515 Q 885 525 880 537 Q 873 552 814 576 Q 798 583 785 578 Q 716 560 643 542 L 616 536 Q 546 523 471 507 C 442 501 465 467 494 476 Q 494 477 495 477 Q 567 498 643 515 L 674 523 Q 768 545 785 537 Q 794 531 793 510 Q 789 470 780 420 L 773 377 Q 769 352 763 324 C 757 295 815 305 821 334 Z" fill="black" /></g></svg>