<?xml version='1.0' encoding='utf-8'?>
<svg xmlns="http://www.w3.org/2000/svg" version="1.1" viewBox="0 0 1024 1024"><g transform="scale(1, -1) translate(0, -900)"><path d="M 224 318 Q 223 236 222 132 Q 221 110 209 100 Q 203 97 148 106 Q 117 119 119 109 Q 120 102 139 87 Q 193 39 206 13 Q 221 -18 235 -20 Q 248 -21 264 12 Q 282 55 281 126 Q 274 241 273 356 L 273 384 Q 272 457 275 528 L 277 580 Q 289 713 297 739 Q 313 767 260 789 Q 229 807 209 801 Q 193 794 208 772 Q 227 747 229 714 Q 230 698 229 559 L 228 515 Q 227 448 225 357 L 224 318 Z" fill="black" /></g></svg>