<?xml version='1.0' encoding='utf-8'?>
<svg xmlns="http://www.w3.org/2000/svg" version="1.1" viewBox="0 0 1024 1024"><g transform="scale(1, -1) translate(0, -900)"><path d="M 479 610 Q 479 665 482 682 Q 486 694 478 702 Q 459 720 440 728 Q 425 734 419 729 Q 410 723 417 711 Q 450 644 437 521 Q 434 482 402 443 Q 392 431 398 413 Q 405 391 416 382 Q 426 375 436 389 Q 452 411 584 503 Q 600 512 603 519 Q 607 526 599 528 Q 589 528 489 482 Q 474 476 475 489 Q 479 541 479 586 L 479 610 Z" fill="black" /></g></svg>