<?xml version='1.0' encoding='utf-8'?>
<svg xmlns="http://www.w3.org/2000/svg" version="1.1" viewBox="0 0 1024 1024"><g transform="scale(1, -1) translate(0, -900)"><path d="M 275 352 Q 272 261 271 143 Q 270 121 258 111 Q 257 111 192 115 Q 161 127 163 117 Q 164 110 184 96 Q 241 50 255 24 Q 271 -7 286 -8 Q 299 -9 314 24 Q 330 67 329 138 Q 322 265 323 392 L 323 420 Q 323 478 326 537 L 328 591 Q 328 685 348 750 Q 364 778 312 801 Q 281 820 261 813 Q 245 807 259 785 Q 280 758 281 726 Q 282 710 280 574 L 279 524 Q 278 466 276 391 L 275 352 Z" fill="black" /></g></svg>