<?xml version='1.0' encoding='utf-8'?>
<svg xmlns="http://www.w3.org/2000/svg" version="1.1" viewBox="0 0 1024 1024"><g transform="scale(1, -1) translate(0, -900)"><path d="M 250 314 Q 249 230 247 126 Q 246 101 232 92 Q 229 91 180 94 Q 149 107 151 97 Q 152 90 171 75 Q 220 29 232 4 Q 245 -26 259 -28 Q 272 -29 287 4 Q 306 47 305 119 Q 298 237 297 355 L 296 388 Q 296 455 298 520 L 300 574 Q 306 718 321 763 Q 337 791 284 813 Q 253 831 233 825 Q 217 818 232 796 Q 251 771 253 738 Q 254 719 253 553 L 253 504 Q 252 440 250 357 L 250 314 Z" fill="black" /></g></svg>