<?xml version='1.0' encoding='utf-8'?>
<svg xmlns="http://www.w3.org/2000/svg" version="1.1" viewBox="0 0 1024 1024"><g transform="scale(1, -1) translate(0, -900)"><path d="M 277 333 Q 276 246 276 137 Q 275 113 263 105 Q 253 98 232 105 Q 207 111 183 116 Q 152 126 155 117 Q 156 110 175 97 Q 239 51 256 23 Q 275 -8 291 -9 Q 304 -10 317 22 Q 333 64 331 131 Q 324 251 322 370 L 322 402 Q 321 460 323 519 L 325 575 Q 325 677 343 741 Q 359 769 308 789 Q 277 805 259 800 Q 243 794 258 773 Q 277 748 279 717 Q 280 701 280 555 L 279 506 Q 278 449 277 375 L 277 333 Z" fill="black" /></g></svg>