<?xml version='1.0' encoding='utf-8'?>
<svg xmlns="http://www.w3.org/2000/svg" version="1.1" viewBox="0 0 1024 1024"><g transform="scale(1, -1) translate(0, -900)"><path d="M 616 418 Q 739 439 777 436 Q 790 436 795 429 Q 807 405 801 254 Q 795 146 762 79 Q 750 51 733 49 Q 721 48 657 74 Q 647 78 647 72 Q 646 68 657 57 Q 697 8 713 -25 Q 722 -47 735 -47 Q 753 -48 770 -31 Q 833 20 851 143 Q 866 228 875 358 Q 876 388 895 410 Q 908 423 908 432 Q 907 441 887 454 Q 859 476 823 487 Q 796 496 777 487 Q 755 480 700 468 Q 624 452 571 445 Q 532 441 505 436 C 475 431 460 424 489 417 Q 516 405 569 414 Q 572 414 576 414 L 616 418 Z" fill="black" /></g></svg>