<?xml version='1.0' encoding='utf-8'?>
<svg xmlns="http://www.w3.org/2000/svg" version="1.1" viewBox="0 0 1024 1024"><g transform="scale(1, -1) translate(0, -900)"><path d="M 464 270 Q 468 283 458 292 Q 442 308 416 317 Q 404 320 398 313 Q 394 309 402 295 Q 418 273 418 240 Q 417 179 396 149 Q 386 137 391 128 Q 397 112 411 100 Q 420 91 433 102 Q 490 139 626 140 Q 671 141 727 135 Q 746 131 754 137 Q 760 141 756 152 Q 752 162 720 182 Q 702 192 680 189 Q 659 185 630 184 Q 546 178 466 162 Q 456 159 455 162 Q 449 166 451 178 Q 457 250 464 270 Z" fill="black" /></g></svg>