<?xml version='1.0' encoding='utf-8'?>
<svg xmlns="http://www.w3.org/2000/svg" version="1.1" viewBox="0 0 1024 1024"><g transform="scale(1, -1) translate(0, -900)"><path d="M 266 341 Q 265 256 263 152 Q 262 128 249 120 Q 242 114 184 127 Q 153 139 155 129 Q 156 122 175 107 Q 232 59 246 33 Q 262 2 276 0 Q 289 -1 304 32 Q 322 75 321 146 Q 315 264 315 380 L 315 412 Q 314 485 318 559 L 320 613 Q 321 623 322 635 Q 326 719 340 762 Q 356 790 304 813 Q 273 832 253 825 Q 237 819 251 797 Q 272 770 273 738 Q 274 722 272 594 L 271 546 Q 270 479 267 384 L 266 341 Z" fill="black" /></g></svg>