<?xml version='1.0' encoding='utf-8'?>
<svg xmlns="http://www.w3.org/2000/svg" version="1.1" viewBox="0 0 1024 1024"><g transform="scale(1, -1) translate(0, -900)"><path d="M 468 587 Q 474 454 461 430 Q 451 412 461 398 Q 477 376 489 376 Q 496 376 517 387 Q 659 427 800 420 Q 822 419 822 430 Q 823 442 790 459 Q 765 475 749 467 Q 728 461 705 456 Q 635 446 563 434 Q 533 427 521 435 Q 509 441 514 455 Q 511 524 512 595 L 513 630 Q 514 648 515 664 Q 519 689 498 707 Q 464 734 442 731 Q 423 730 433 710 Q 463 668 466 625 L 468 587 Z" fill="black" /></g></svg>