<?xml version='1.0' encoding='utf-8'?>
<svg xmlns="http://www.w3.org/2000/svg" version="1.1" viewBox="0 0 1024 1024"><g transform="scale(1, -1) translate(0, -900)"><path d="M 278 345 Q 277 254 275 138 Q 274 116 262 107 Q 256 104 192 112 Q 161 122 163 113 Q 164 106 184 92 Q 244 46 259 20 Q 275 -11 291 -12 Q 304 -13 318 21 Q 334 64 333 134 Q 326 257 325 379 L 325 410 Q 325 474 328 538 L 330 592 Q 330 673 349 735 Q 365 763 312 785 Q 281 803 261 797 Q 245 790 260 769 Q 279 742 281 710 Q 282 694 281 572 L 281 525 Q 280 465 278 385 L 278 345 Z" fill="black" /></g></svg>