<?xml version='1.0' encoding='utf-8'?>
<svg xmlns="http://www.w3.org/2000/svg" version="1.1" viewBox="0 0 1024 1024"><g transform="scale(1, -1) translate(0, -900)"><path d="M 413 297 Q 413 204 395 175 Q 376 139 416 102 Q 417 101 422 97 Q 432 91 442 109 Q 463 146 537 241 Q 550 256 551 263 Q 551 275 534 262 Q 506 243 475 220 Q 462 210 457 213 Q 451 214 450 228 Q 451 274 452 309 L 455 358 Q 458 413 455 418 Q 448 425 439 433 C 417 453 385 454 396 426 Q 411 395 413 340 L 413 297 Z" fill="black" /></g></svg>