<?xml version='1.0' encoding='utf-8'?>
<svg xmlns="http://www.w3.org/2000/svg" version="1.1" viewBox="0 0 1024 1024"><g transform="scale(1, -1) translate(0, -900)"><path d="M 232 371 Q 231 280 230 162 Q 230 140 217 131 Q 211 127 140 140 Q 109 150 111 141 Q 112 134 132 120 Q 196 72 212 45 Q 231 14 247 12 Q 260 11 274 45 Q 290 88 288 159 Q 281 286 279 414 L 279 444 Q 279 499 281 555 L 283 608 Q 283 696 301 755 Q 317 783 264 805 Q 233 823 213 816 Q 197 810 212 788 Q 231 763 234 730 Q 235 714 235 588 L 234 540 Q 233 486 232 414 L 232 371 Z" fill="black" /></g></svg>