<?xml version='1.0' encoding='utf-8'?>
<svg xmlns="http://www.w3.org/2000/svg" version="1.1" viewBox="0 0 1024 1024"><g transform="scale(1, -1) translate(0, -900)"><path d="M 224 309 Q 223 230 222 131 Q 221 109 209 99 Q 206 98 154 106 Q 126 119 127 109 Q 128 102 145 88 Q 194 40 207 15 Q 220 -15 233 -17 Q 246 -18 261 14 Q 279 54 279 123 Q 272 235 270 348 L 270 381 Q 269 444 271 505 L 272 559 Q 278 703 291 745 Q 307 773 256 793 Q 225 809 207 804 Q 191 798 206 777 Q 225 752 227 721 Q 228 702 227 539 L 226 489 Q 225 429 224 353 L 224 309 Z" fill="black" /></g></svg>