<?xml version='1.0' encoding='utf-8'?>
<svg xmlns="http://www.w3.org/2000/svg" version="1.1" viewBox="0 0 1024 1024"><g transform="scale(1, -1) translate(0, -900)"><path d="M 706 127 Q 719 108 733 102 Q 743 95 757 114 Q 770 136 795 256 Q 804 284 825 308 Q 838 320 827 333 Q 812 349 772 373 Q 757 379 683 364 Q 677 364 577 345 Q 532 336 495 330 C 465 325 491 292 520 300 Q 586 318 703 333 Q 728 336 736 327 Q 748 314 746 300 Q 728 188 719 170 Q 715 158 702 156 C 689 148 689 148 706 127 Z" fill="black" /></g></svg>