<?xml version='1.0' encoding='utf-8'?>
<svg xmlns="http://www.w3.org/2000/svg" version="1.1" viewBox="0 0 1024 1024"><g transform="scale(1, -1) translate(0, -900)"><path d="M 934 306 Q 921 343 912 410 Q 911 422 905 426 Q 899 430 896 414 Q 883 333 872 319 Q 856 301 776 297 Q 734 298 716 305 Q 700 314 697 324 Q 682 372 704 422 Q 713 450 683 466 C 659 483 628 488 640 461 Q 655 434 655 393 Q 655 291 699 273 Q 714 267 739 262 Q 778 255 841 257 Q 898 258 920 270 Q 942 282 934 306 Z" fill="black" /></g></svg>