<?xml version='1.0' encoding='utf-8'?>
<svg xmlns="http://www.w3.org/2000/svg" version="1.1" viewBox="0 0 1024 1024"><g transform="scale(1, -1) translate(0, -900)"><path d="M 268 327 Q 267 243 264 138 Q 263 116 251 108 Q 242 105 185 121 Q 154 134 155 125 Q 156 118 174 101 Q 232 47 245 18 Q 261 -16 276 -19 Q 291 -20 306 14 Q 327 60 327 133 Q 320 253 321 372 L 321 403 Q 321 464 324 523 L 326 576 Q 326 654 346 720 Q 362 751 308 773 Q 274 792 255 786 Q 237 779 253 756 Q 275 729 275 695 Q 276 679 274 558 L 273 510 Q 272 450 269 369 L 268 327 Z" fill="black" /></g></svg>