<?xml version='1.0' encoding='utf-8'?>
<svg xmlns="http://www.w3.org/2000/svg" version="1.1" viewBox="0 0 1024 1024"><g transform="scale(1, -1) translate(0, -900)"><path d="M 274 352 Q 271 264 270 153 Q 269 131 256 122 Q 252 119 195 133 Q 165 146 166 137 Q 167 130 185 114 Q 239 62 251 35 Q 266 4 280 0 Q 293 -1 309 32 Q 328 75 329 146 Q 322 270 323 394 L 323 421 Q 323 484 326 546 L 328 598 Q 328 694 348 758 Q 364 786 312 809 Q 281 828 261 821 Q 245 815 259 793 Q 280 766 281 734 Q 282 718 280 581 L 279 533 Q 278 472 275 392 L 274 352 Z" fill="black" /></g></svg>