<?xml version='1.0' encoding='utf-8'?>
<svg xmlns="http://www.w3.org/2000/svg" version="1.1" viewBox="0 0 1024 1024"><g transform="scale(1, -1) translate(0, -900)"><path d="M 454 536 Q 475 526 523 540 Q 650 582 785 593 Q 795 594 802 593 Q 818 583 815 575 Q 809 542 803 506 L 805 505 Q 812 502 825 514 Q 867 545 902 556 Q 930 566 930 573 Q 929 582 862 624 Q 841 637 746 616 Q 736 616 688 605 L 650 598 Q 598 591 532 576 Q 492 569 450 562 Q 449 562 450 561 C 421 554 425 543 454 536 Z" fill="black" /></g></svg>