<?xml version='1.0' encoding='utf-8'?>
<svg xmlns="http://www.w3.org/2000/svg" version="1.1" viewBox="0 0 1024 1024"><g transform="scale(1, -1) translate(0, -900)"><path d="M 839 259 Q 836 94 828 81 Q 822 74 803 79 Q 772 85 739 92 Q 720 96 721 87 Q 787 41 823 8 Q 836 -10 851 -14 Q 861 -17 868 -7 Q 905 41 901 93 Q 864 612 890 659 Q 902 678 890 688 Q 869 706 834 720 Q 816 727 801 719 Q 741 686 643 679 Q 628 678 637 670 Q 644 660 658 654 Q 677 650 791 675 Q 812 679 816 668 Q 834 619 839 279 L 839 259 Z" fill="black" /></g></svg>