<?xml version='1.0' encoding='utf-8'?>
<svg xmlns="http://www.w3.org/2000/svg" version="1.1" viewBox="0 0 1024 1024"><g transform="scale(1, -1) translate(0, -900)"><path d="M 248 360 Q 247 266 246 144 Q 245 120 232 112 Q 223 108 166 129 Q 138 142 139 133 Q 139 126 156 111 Q 213 59 225 30 Q 241 -3 255 -5 Q 268 -6 283 25 Q 302 67 303 135 Q 296 268 294 402 L 294 431 Q 293 485 295 537 L 297 589 Q 304 721 315 753 Q 331 781 280 801 Q 249 817 231 812 Q 215 806 230 785 Q 249 760 251 729 Q 252 711 251 570 L 251 524 Q 250 470 249 400 L 248 360 Z" fill="black" /></g></svg>