<?xml version='1.0' encoding='utf-8'?>
<svg xmlns="http://www.w3.org/2000/svg" version="1.1" viewBox="0 0 1024 1024"><g transform="scale(1, -1) translate(0, -900)"><path d="M 264 351 Q 263 263 261 153 Q 260 131 248 122 Q 247 122 189 126 Q 156 139 159 129 Q 160 122 179 106 Q 234 57 246 30 Q 261 -1 275 -3 Q 290 -4 305 31 Q 324 76 323 150 Q 316 271 315 393 L 314 422 Q 314 482 317 540 L 319 596 Q 319 675 338 741 Q 356 771 300 793 Q 266 812 247 805 Q 229 799 245 776 Q 267 748 268 715 Q 269 699 268 578 L 267 526 Q 266 468 264 392 L 264 351 Z" fill="black" /></g></svg>