<?xml version='1.0' encoding='utf-8'?>
<svg xmlns="http://www.w3.org/2000/svg" version="1.1" viewBox="0 0 1024 1024"><g transform="scale(1, -1) translate(0, -900)"><path d="M 628 214 Q 646 210 679 204 Q 701 198 710 185 Q 720 163 677 78 Q 656 44 641 40 Q 626 34 581 53 Q 547 68 542 62 Q 538 53 554 42 Q 594 11 607 -28 Q 611 -44 622 -50 Q 634 -56 667 -37 Q 716 0 748 96 Q 766 145 782 157 Q 792 161 794 170 Q 795 179 775 203 Q 748 234 693 235 Q 663 238 652 242 C 623 249 599 220 628 214 Z" fill="black" /></g></svg>