<?xml version='1.0' encoding='utf-8'?>
<svg xmlns="http://www.w3.org/2000/svg" version="1.1" viewBox="0 0 1024 1024"><g transform="scale(1, -1) translate(0, -900)"><path d="M 311 593 Q 324 725 332 746 Q 348 774 296 797 Q 265 816 245 809 Q 229 803 243 781 Q 264 756 264 722 Q 265 706 262 575 L 261 525 Q 260 464 258 380 L 257 334 Q 256 241 252 124 Q 251 100 238 91 Q 232 87 164 99 Q 133 111 135 101 Q 136 94 156 80 Q 217 32 233 5 Q 251 -26 266 -28 Q 279 -29 294 4 Q 310 47 310 118 Q 304 247 305 375 L 305 409 Q 305 475 308 539 L 311 593 Z" fill="black" /></g></svg>