<?xml version='1.0' encoding='utf-8'?>
<svg xmlns="http://www.w3.org/2000/svg" version="1.1" viewBox="0 0 1024 1024"><g transform="scale(1, -1) translate(0, -900)"><path d="M 274 331 Q 271 237 270 114 Q 269 89 256 80 Q 250 77 192 90 Q 161 103 163 93 Q 164 86 182 71 Q 239 22 252 -6 Q 268 -37 282 -40 Q 297 -41 311 -8 Q 329 35 329 107 Q 322 240 321 371 L 321 402 Q 321 466 323 529 L 325 584 Q 337 717 345 743 Q 361 771 308 793 Q 277 811 257 805 Q 241 798 256 776 Q 275 751 277 718 Q 278 700 277 563 L 277 514 Q 276 453 274 371 L 274 331 Z" fill="black" /></g></svg>