<?xml version='1.0' encoding='utf-8'?>
<svg xmlns="http://www.w3.org/2000/svg" version="1.1" viewBox="0 0 1024 1024"><g transform="scale(1, -1) translate(0, -900)"><path d="M 452 437 Q 482 419 510 427 Q 616 469 780 492 Q 816 498 829 497 Q 848 493 846 483 Q 846 480 809 405 Q 802 392 807 388 Q 814 385 830 396 Q 882 435 926 449 Q 962 461 961 471 Q 958 481 892 528 Q 868 549 761 522 Q 739 519 678 504 L 641 497 Q 595 490 544 478 Q 501 468 458 461 Q 455 461 454 460 C 425 454 425 450 452 437 Z" fill="black" /></g></svg>