<?xml version='1.0' encoding='utf-8'?>
<svg xmlns="http://www.w3.org/2000/svg" version="1.1" viewBox="0 0 1024 1024"><g transform="scale(1, -1) translate(0, -900)"><path d="M 523 337 Q 460 198 351 88 Q 345 82 342 77 Q 338 67 348 67 Q 378 67 466 158 Q 481 176 496 195 Q 550 268 581 349 L 596 386 Q 608 420 619 453 Q 620 462 624 470 L 639 514 Q 655 556 655 561 Q 645 574 629 588 C 607 609 582 606 583 576 Q 587 564 576 509 Q 575 503 573 496 L 563 457 Q 550 415 537 375 L 523 337 Z" fill="black" /></g></svg>