<?xml version='1.0' encoding='utf-8'?>
<svg xmlns="http://www.w3.org/2000/svg" version="1.1" viewBox="0 0 1024 1024"><g transform="scale(1, -1) translate(0, -900)"><path d="M 261 350 Q 260 265 258 156 Q 257 134 245 125 Q 236 121 172 138 Q 141 151 143 141 Q 144 134 162 119 Q 223 67 238 39 Q 254 6 271 4 Q 284 3 299 36 Q 318 79 317 150 Q 310 271 309 391 L 309 424 Q 309 481 311 536 L 313 592 Q 328 733 333 747 Q 349 775 296 797 Q 265 815 245 809 Q 229 802 243 781 Q 264 754 265 722 Q 266 706 265 574 L 264 525 Q 263 468 261 393 L 261 350 Z" fill="black" /></g></svg>