<?xml version='1.0' encoding='utf-8'?>
<svg xmlns="http://www.w3.org/2000/svg" version="1.1" viewBox="0 0 1024 1024"><g transform="scale(1, -1) translate(0, -900)"><path d="M 588 441 Q 588 393 599 378 Q 609 366 617 383 Q 620 393 625 448 L 626 484 Q 627 503 628 526 L 629 561 Q 629 586 630 613 L 631 645 Q 631 682 634 712 L 636 756 Q 642 793 648 803 Q 654 816 638 828 Q 619 843 585 851 Q 570 855 560 844 Q 553 837 562 828 Q 578 815 580 796 Q 581 774 582 739 L 583 700 Q 583 670 584 633 L 585 602 Q 585 571 586 546 L 586 516 Q 587 503 587 491 Q 586 481 586 470 L 588 441 Z" fill="black" /></g></svg>