<?xml version='1.0' encoding='utf-8'?>
<svg xmlns="http://www.w3.org/2000/svg" version="1.1" viewBox="0 0 1024 1024"><g transform="scale(1, -1) translate(0, -900)"><path d="M 630 613 Q 727 638 748 630 Q 758 624 754 594 Q 738 482 729 459 Q 723 441 730 426 Q 736 411 748 413 Q 761 416 767 430 Q 779 446 796 523 Q 809 574 843 604 Q 859 620 844 634 Q 826 649 777 672 Q 762 679 691 659 Q 673 659 631 645 L 584 633 Q 565 630 549 624 Q 494 609 458 601 C 429 594 453 564 482 572 Q 488 573 491 574 Q 525 587 585 602 L 630 613 Z" fill="black" /></g></svg>