<?xml version='1.0' encoding='utf-8'?>
<svg xmlns="http://www.w3.org/2000/svg" version="1.1" viewBox="0 0 1024 1024"><g transform="scale(1, -1) translate(0, -900)"><path d="M 252 329 Q 252 242 252 135 Q 251 111 239 102 Q 230 98 173 110 Q 140 123 143 113 Q 144 106 164 90 Q 222 39 236 12 Q 252 -21 267 -23 Q 282 -24 297 11 Q 315 57 314 130 Q 305 251 303 373 L 303 405 Q 302 478 304 549 L 305 603 Q 305 687 323 749 Q 339 780 284 801 Q 250 820 231 813 Q 213 806 229 783 Q 251 756 253 722 Q 254 706 254 582 L 254 534 Q 253 467 253 372 L 252 329 Z" fill="black" /></g></svg>