<?xml version='1.0' encoding='utf-8'?>
<svg xmlns="http://www.w3.org/2000/svg" version="1.1" viewBox="0 0 1024 1024"><g transform="scale(1, -1) translate(0, -900)"><path d="M 752 441 Q 753 440 754 438 Q 770 401 797 424 Q 810 436 828 478 Q 861 601 891 631 Q 907 647 895 664 Q 880 683 852 705 Q 837 714 821 710 Q 769 692 707 686 Q 686 685 690 675 Q 694 665 710 658 Q 728 654 784 668 Q 808 672 816 667 Q 823 660 816 633 Q 810 615 805 596 L 795 560 Q 773 479 764 470 C 750 445 750 445 752 441 Z" fill="black" /></g></svg>