<?xml version='1.0' encoding='utf-8'?>
<svg xmlns="http://www.w3.org/2000/svg" version="1.1" viewBox="0 0 1024 1024"><g transform="scale(1, -1) translate(0, -900)"><path d="M 661 548 Q 662 579 664 586 Q 667 596 659 603 Q 652 609 640 615 C 614 631 600 637 610 609 Q 617 599 618 575 Q 618 557 618 537 L 619 507 Q 619 473 620 437 L 621 406 Q 621 375 621 340 L 620 303 Q 620 123 609 24 Q 606 -15 629 -42 Q 639 -55 648 -40 Q 669 2 663 79 Q 663 103 662 274 L 662 348 Q 662 379 662 411 L 662 444 Q 662 472 662 499 Q 661 508 661 515 L 661 548 Z" fill="black" /></g></svg>