<?xml version='1.0' encoding='utf-8'?>
<svg xmlns="http://www.w3.org/2000/svg" version="1.1" viewBox="0 0 1024 1024"><g transform="scale(1, -1) translate(0, -900)"><path d="M 275 329 Q 274 232 271 110 Q 270 85 257 77 Q 251 74 200 82 Q 169 95 171 85 Q 172 78 190 63 Q 242 14 254 -11 Q 269 -42 282 -44 Q 295 -45 311 -12 Q 329 31 329 102 Q 322 235 322 368 L 322 399 Q 322 457 325 512 L 327 568 Q 334 703 348 743 Q 364 771 312 793 Q 281 812 261 805 Q 245 799 259 777 Q 280 750 281 718 Q 282 700 280 551 L 279 500 Q 278 442 276 368 L 275 329 Z" fill="black" /></g></svg>