<?xml version='1.0' encoding='utf-8'?>
<svg xmlns="http://www.w3.org/2000/svg" version="1.1" viewBox="0 0 1024 1024"><g transform="scale(1, -1) translate(0, -900)"><path d="M 520 433 Q 520 466 520 498 L 520 523 Q 520 527 521 530 Q 520 557 520 580 L 522 604 Q 525 634 533 659 C 539 678 539 678 519 691 Q 507 700 491 706 Q 475 710 467 703 Q 463 699 469 688 Q 482 661 484 483 Q 484 398 471 344 Q 465 323 480 309 Q 499 293 518 304 C 525 307 523 343 522 373 Q 521 389 521 406 L 520 433 Z" fill="black" /></g></svg>