<?xml version='1.0' encoding='utf-8'?>
<svg xmlns="http://www.w3.org/2000/svg" version="1.1" viewBox="0 0 1024 1024"><g transform="scale(1, -1) translate(0, -900)"><path d="M 701 525 L 702 524 Q 706 508 720 508 Q 733 509 742 524 Q 752 534 776 587 Q 794 636 831 664 Q 850 680 835 695 Q 819 713 770 741 Q 752 753 694 734 Q 679 734 580 707 Q 574 706 571 704 L 549 698 Q 533 695 519 691 C 490 684 504 651 533 659 Q 539 660 543 661 Q 592 680 709 704 Q 730 708 738 704 Q 745 700 740 673 Q 716 579 706 559 Q 705 558 704 555 C 695 535 695 535 701 525 Z" fill="black" /></g></svg>