<?xml version='1.0' encoding='utf-8'?>
<svg xmlns="http://www.w3.org/2000/svg" version="1.1" viewBox="0 0 1024 1024"><g transform="scale(1, -1) translate(0, -900)"><path d="M 267 329 Q 263 239 263 125 Q 262 101 249 92 Q 242 86 184 99 Q 153 111 155 101 Q 156 94 175 79 Q 232 31 246 5 Q 262 -26 276 -28 Q 289 -29 304 4 Q 322 47 321 118 Q 314 245 314 371 L 314 404 Q 314 467 317 528 L 320 584 Q 320 683 341 750 Q 357 780 304 801 Q 273 820 253 813 Q 237 807 251 785 Q 272 758 273 726 Q 274 708 272 564 L 271 514 Q 270 453 267 373 L 267 329 Z" fill="black" /></g></svg>