<?xml version='1.0' encoding='utf-8'?>
<svg xmlns="http://www.w3.org/2000/svg" version="1.1" viewBox="0 0 1024 1024"><g transform="scale(1, -1) translate(0, -900)"><path d="M 754 356 Q 764 393 773 419 L 796 468 Q 809 490 823 501 Q 839 519 825 535 Q 809 548 761 571 Q 743 578 723 571 Q 690 558 661 548 L 618 537 Q 602 536 551 522 L 507 515 Q 471 511 436 507 Q 420 506 422 497 Q 425 490 442 483 Q 466 473 499 483 Q 503 484 509 484 L 549 493 Q 583 500 619 507 L 661 515 Q 721 530 734 519 Q 746 506 736 456 L 726 417 Q 719 387 709 359 C 699 331 746 327 754 356 Z" fill="black" /></g></svg>