<?xml version='1.0' encoding='utf-8'?>
<svg xmlns="http://www.w3.org/2000/svg" version="1.1" viewBox="0 0 1024 1024"><g transform="scale(1, -1) translate(0, -900)"><path d="M 672 650 Q 691 672 715 703 Q 728 724 750 737 Q 763 743 763 750 Q 764 760 742 775 Q 715 794 703 795 Q 694 795 685 789 Q 562 752 525 747 Q 494 746 492 738 Q 491 735 497 731 Q 534 703 654 748 Q 667 751 673 746 Q 677 742 661 712 Q 648 688 626 665 Q 625 665 625 664 L 596 636 Q 548 596 478 575 Q 471 572 470 568 Q 470 564 476 564 Q 557 555 636 616 L 672 650 Z" fill="black" /></g></svg>