<?xml version='1.0' encoding='utf-8'?>
<svg xmlns="http://www.w3.org/2000/svg" version="1.1" viewBox="0 0 1024 1024"><g transform="scale(1, -1) translate(0, -900)"><path d="M 718 595 Q 725 598 736 601 Q 770 613 805 625 Q 821 634 827 626 Q 851 562 838 187 Q 835 94 827 80 Q 823 76 807 79 Q 780 88 754 97 Q 736 104 736 96 Q 788 44 815 6 Q 827 -13 841 -18 Q 850 -22 858 -12 Q 900 36 898 84 Q 888 294 887 562 Q 887 596 898 613 Q 908 632 897 641 Q 876 657 842 671 Q 826 677 811 670 Q 783 651 764 642 Q 745 635 708 624 C 679 615 690 585 718 595 Z" fill="black" /></g></svg>