<?xml version='1.0' encoding='utf-8'?>
<svg xmlns="http://www.w3.org/2000/svg" version="1.1" viewBox="0 0 1024 1024"><g transform="scale(1, -1) translate(0, -900)"><path d="M 797 439 Q 816 442 825 433 Q 837 420 834 382 Q 831 228 799 120 Q 789 86 779 72 Q 772 65 750 69 Q 716 82 687 93 Q 672 99 674 89 Q 677 77 689 66 Q 731 30 754 -4 Q 772 -26 792 -11 Q 826 23 852 65 Q 876 93 877 157 Q 881 244 887 378 Q 887 400 899 423 Q 908 441 898 449 Q 885 464 856 476 Q 838 482 738 455 Q 704 452 702 452 Q 698 455 700 463 Q 709 538 711 538 C 715 560 715 560 699 569 Q 689 576 668 585 Q 656 592 649 586 Q 640 580 651 568 Q 667 544 662 503 Q 655 451 635 428 Q 625 415 629 404 Q 636 392 646 386 Q 656 379 671 394 Q 695 416 723 425 Q 772 441 797 439 Z" fill="black" /></g></svg>