<?xml version='1.0' encoding='utf-8'?>
<svg xmlns="http://www.w3.org/2000/svg" version="1.1" viewBox="0 0 1024 1024"><g transform="scale(1, -1) translate(0, -900)"><path d="M 434 274 Q 444 274 456 278 Q 576 326 803 339 Q 821 338 829 326 Q 836 319 832 303 Q 829 89 814 59 Q 813 55 804 58 Q 777 65 749 76 Q 721 83 738 61 Q 801 -3 824 -47 Q 837 -63 852 -50 Q 871 -31 880 -1 Q 892 30 892 206 Q 891 272 910 304 Q 926 325 919 333 Q 912 346 859 380 Q 840 395 824 388 Q 796 376 741 368 Q 563 347 495 331 Q 444 319 405 315 Q 401 315 400 314 C 370 310 405 267 434 274 Z" fill="black" /></g></svg>