<?xml version='1.0' encoding='utf-8'?>
<svg xmlns="http://www.w3.org/2000/svg" version="1.1" viewBox="0 0 1024 1024"><g transform="scale(1, -1) translate(0, -900)"><path d="M 227 360 Q 226 263 224 137 Q 223 115 210 105 Q 206 104 147 111 Q 116 123 119 113 Q 120 106 138 93 Q 193 47 207 22 Q 223 -8 237 -9 Q 250 -10 264 22 Q 280 64 279 131 Q 272 267 272 401 L 272 434 Q 272 480 274 525 L 276 579 Q 276 678 295 745 Q 311 773 260 793 Q 229 811 211 804 Q 195 798 210 777 Q 229 752 230 721 Q 231 705 231 562 L 230 513 Q 229 467 228 406 L 227 360 Z" fill="black" /></g></svg>