<?xml version='1.0' encoding='utf-8'?>
<svg xmlns="http://www.w3.org/2000/svg" version="1.1" viewBox="0 0 1024 1024"><g transform="scale(1, -1) translate(0, -900)"><path d="M 267 321 Q 266 230 265 116 Q 264 91 251 82 Q 250 82 193 86 Q 160 99 163 89 Q 164 82 183 66 Q 238 17 250 -10 Q 265 -41 279 -43 Q 294 -44 309 -9 Q 327 36 326 110 Q 319 234 316 360 L 316 393 Q 316 457 318 522 L 319 576 Q 328 714 339 749 Q 355 779 300 801 Q 266 820 247 813 Q 229 806 246 783 Q 267 756 268 722 Q 269 704 269 558 L 269 510 Q 268 447 267 365 L 267 321 Z" fill="black" /></g></svg>