<?xml version='1.0' encoding='utf-8'?>
<svg xmlns="http://www.w3.org/2000/svg" version="1.1" viewBox="0 0 1024 1024"><g transform="scale(1, -1) translate(0, -900)"><path d="M 637 483 Q 638 449 639 406 L 639 379 Q 639 367 636 310 L 634 275 Q 634 239 641 219 Q 645 209 654 214 Q 667 224 672 281 L 674 317 Q 675 351 678 384 L 680 413 Q 681 444 684 472 Q 684 484 685 494 L 688 529 Q 689 548 693 559 Q 700 575 690 586 Q 677 599 652 611 Q 633 618 612 610 Q 602 603 614 589 Q 623 571 636 515 L 637 483 Z" fill="black" /></g></svg>