<?xml version='1.0' encoding='utf-8'?>
<svg xmlns="http://www.w3.org/2000/svg" version="1.1" viewBox="0 0 1024 1024"><g transform="scale(1, -1) translate(0, -900)"><path d="M 530 391 Q 531 141 518 118 Q 514 114 499 117 Q 477 124 452 131 Q 436 135 437 128 Q 483 88 510 56 Q 520 40 533 36 Q 540 33 547 41 Q 580 86 579 123 Q 570 277 569 528 Q 568 574 578 595 Q 588 610 578 618 Q 562 633 532 644 Q 517 650 505 643 Q 483 630 468 624 Q 458 620 441 615 C 412 606 404 574 443 588 L 498 607 Q 513 611 518 604 Q 525 582 530 412 L 530 391 Z" fill="black" /></g></svg>