<?xml version='1.0' encoding='utf-8'?>
<svg xmlns="http://www.w3.org/2000/svg" version="1.1" viewBox="0 0 1024 1024"><g transform="scale(1, -1) translate(0, -900)"><path d="M 945 466 Q 958 470 951 485 Q 938 503 922 512 Q 912 519 890 510 Q 865 500 836 504 Q 817 505 812 519 Q 800 538 810 596 Q 811 630 846 668 Q 862 683 845 695 Q 823 711 798 721 Q 788 725 772 715 Q 729 691 676 672 C 648 662 656 626 684 638 Q 688 639 696 643 Q 760 673 764 673 Q 771 672 772 660 Q 763 530 768 511 Q 768 492 791 473 Q 816 457 868 455 Q 919 454 945 466 Z" fill="black" /></g></svg>