<?xml version='1.0' encoding='utf-8'?>
<svg xmlns="http://www.w3.org/2000/svg" version="1.1" viewBox="0 0 1024 1024"><g transform="scale(1, -1) translate(0, -900)"><path d="M 574 281 Q 631 302 678 312 Q 691 316 696 310 Q 700 306 695 293 Q 676 242 654 222 Q 644 215 647 203 Q 651 184 662 177 Q 672 171 684 180 Q 732 210 780 216 Q 804 220 811 210 Q 818 197 815 171 Q 806 105 779 53 Q 772 35 756 30 Q 740 24 666 47 Q 641 56 662 32 Q 699 -5 726 -40 Q 741 -59 761 -50 Q 813 -25 840 55 Q 867 167 887 191 Q 900 206 891 217 Q 837 259 803 247 Q 739 228 723 230 Q 708 231 716 249 Q 744 295 766 308 Q 788 321 783 332 Q 779 342 734 361 Q 719 368 704 360 Q 644 327 460 292 Q 451 292 450 287 Q 447 280 472 265 Q 497 252 520 263 Q 530 267 543 271 L 574 281 Z" fill="black" /></g></svg>