<?xml version='1.0' encoding='utf-8'?>
<svg xmlns="http://www.w3.org/2000/svg" version="1.1" viewBox="0 0 1024 1024"><g transform="scale(1, -1) translate(0, -900)"><path d="M 267 332 Q 264 241 263 125 Q 262 101 249 92 Q 240 89 176 106 Q 145 119 147 109 Q 148 102 166 87 Q 227 35 242 7 Q 258 -26 275 -28 Q 288 -29 303 4 Q 322 47 321 118 Q 315 245 315 373 L 315 406 Q 315 476 318 544 L 321 601 Q 321 680 340 742 Q 356 770 304 793 Q 273 812 253 805 Q 237 799 251 777 Q 272 750 273 718 Q 274 702 272 581 L 272 529 Q 271 465 268 375 L 267 332 Z" fill="black" /></g></svg>