<?xml version='1.0' encoding='utf-8'?>
<svg xmlns="http://www.w3.org/2000/svg" version="1.1" viewBox="0 0 1024 1024"><g transform="scale(1, -1) translate(0, -900)"><path d="M 703 366 Q 713 345 733 310 Q 742 294 751 297 Q 764 300 772 323 Q 802 392 801 482 Q 804 539 806 604 Q 809 647 829 676 Q 844 694 832 706 Q 813 725 769 742 Q 751 751 722 739 Q 617 700 461 684 C 431 681 450 645 480 650 Q 484 650 489 651 Q 723 705 741 686 Q 769 638 740 418 Q 739 397 730 395 Q 729 394 724 395 C 702 375 699 373 703 366 Z" fill="black" /></g></svg>