<?xml version='1.0' encoding='utf-8'?>
<svg xmlns="http://www.w3.org/2000/svg" version="1.1" viewBox="0 0 1024 1024"><g transform="scale(1, -1) translate(0, -900)"><path d="M 709 135 Q 657 78 590 51 Q 578 45 590 40 Q 594 36 625 38 Q 685 44 735 101 L 767 142 Q 798 191 830 296 Q 839 323 855 340 Q 871 356 859 367 Q 846 377 817 385 Q 795 391 772 376 Q 753 367 726 359 Q 699 350 655 343 Q 642 342 638 336 Q 635 330 651 323 Q 682 311 726 325 Q 751 338 756 339 Q 781 338 776 310 Q 763 235 740 185 Q 736 179 734 172 L 709 135 Z" fill="black" /></g></svg>