<?xml version='1.0' encoding='utf-8'?>
<svg xmlns="http://www.w3.org/2000/svg" version="1.1" viewBox="0 0 1024 1024"><g transform="scale(1, -1) translate(0, -900)"><path d="M 268 319 Q 267 226 267 111 Q 266 86 253 76 Q 247 73 185 76 Q 152 86 155 77 Q 156 70 177 56 Q 237 10 252 -15 Q 270 -46 285 -47 Q 298 -47 313 -12 Q 329 33 326 106 Q 319 230 316 355 L 316 390 Q 315 460 317 528 L 319 585 Q 326 726 339 765 Q 355 795 300 817 Q 266 836 247 829 Q 229 822 246 799 Q 267 772 268 738 Q 269 719 270 563 L 270 513 Q 269 449 268 363 L 268 319 Z" fill="black" /></g></svg>