<?xml version='1.0' encoding='utf-8'?>
<svg xmlns="http://www.w3.org/2000/svg" version="1.1" viewBox="0 0 1024 1024"><g transform="scale(1, -1) translate(0, -900)"><path d="M 550 41 Q 525 45 498 51 Q 486 54 487 46 Q 488 40 498 32 Q 556 -25 577 -58 Q 590 -74 606 -61 Q 640 -30 639 39 Q 636 67 631 238 L 631 285 Q 632 316 642 337 Q 649 355 634 368 Q 609 387 581 397 Q 563 403 556 396 Q 550 389 560 375 Q 582 339 581 298 Q 581 286 582 273 L 583 229 Q 586 129 582 69 Q 581 50 571 44 Q 564 37 550 41 Z" fill="black" /></g></svg>