<?xml version='1.0' encoding='utf-8'?>
<svg xmlns="http://www.w3.org/2000/svg" version="1.1" viewBox="0 0 1024 1024"><g transform="scale(1, -1) translate(0, -900)"><path d="M 276 327 Q 275 243 272 139 Q 271 117 258 107 Q 252 103 184 115 Q 153 127 155 117 Q 156 110 176 96 Q 237 48 253 21 Q 271 -10 286 -12 Q 299 -13 314 20 Q 330 63 330 134 Q 324 249 324 366 L 325 397 Q 325 464 328 530 L 331 587 Q 331 678 352 746 Q 368 774 316 797 Q 285 816 265 809 Q 249 803 263 781 Q 284 756 284 722 Q 285 706 283 570 L 282 517 Q 281 453 277 368 L 276 327 Z" fill="black" /></g></svg>