<?xml version='1.0' encoding='utf-8'?>
<svg xmlns="http://www.w3.org/2000/svg" version="1.1" viewBox="0 0 1024 1024"><g transform="scale(1, -1) translate(0, -900)"><path d="M 714 98 Q 665 110 618 123 Q 606 126 607 118 Q 608 111 619 104 Q 712 37 746 -6 Q 762 -22 777 -8 Q 807 28 807 113 Q 803 171 798 361 L 797 402 Q 796 447 795 497 L 794 544 Q 794 584 804 612 Q 813 631 795 643 Q 774 661 751 669 C 724 682 699 679 715 654 Q 742 627 743 527 L 745 485 Q 746 437 749 391 L 750 353 Q 754 116 736 101 Q 727 94 714 98 Z" fill="black" /></g></svg>