<?xml version='1.0' encoding='utf-8'?>
<svg xmlns="http://www.w3.org/2000/svg" version="1.1" viewBox="0 0 1024 1024"><g transform="scale(1, -1) translate(0, -900)"><path d="M 458 334 Q 485 392 509 483 Q 515 508 529 524 Q 542 540 530 549 Q 518 556 491 562 Q 479 563 410 530 Q 383 518 336 506 Q 326 505 322 498 Q 319 492 335 487 Q 366 480 405 496 Q 435 512 440 514 Q 462 517 461 494 Q 449 416 425 358 L 406 322 Q 360 258 292 225 C 265 211 263 203 293 205 Q 365 205 433 292 L 458 334 Z" fill="black" /></g></svg>