<?xml version='1.0' encoding='utf-8'?>
<svg xmlns="http://www.w3.org/2000/svg" version="1.1" viewBox="0 0 1024 1024"><g transform="scale(1, -1) translate(0, -900)"><path d="M 784 553 Q 785 549 787 542 Q 791 529 803 529 Q 816 530 823 544 Q 833 556 853 617 Q 868 666 902 693 Q 920 708 905 723 Q 889 739 841 764 Q 825 774 807 766 Q 776 760 737 756 Q 650 749 576 736 Q 509 726 464 721 C 434 718 453 684 483 688 Q 490 687 497 689 Q 522 696 558 700 L 580 704 Q 620 711 675 717 L 719 721 Q 794 731 811 719 Q 820 715 815 688 Q 800 607 786 565 L 784 553 Z" fill="black" /></g></svg>