<?xml version='1.0' encoding='utf-8'?>
<svg xmlns="http://www.w3.org/2000/svg" version="1.1" viewBox="0 0 1024 1024"><g transform="scale(1, -1) translate(0, -900)"><path d="M 273 326 Q 272 241 271 136 Q 270 112 257 103 Q 248 97 228 104 Q 203 110 180 115 Q 149 127 151 117 Q 152 110 171 96 Q 235 47 251 18 Q 270 -15 285 -16 Q 298 -17 313 16 Q 331 59 329 130 Q 322 245 321 359 L 321 393 Q 320 465 323 536 L 325 588 Q 337 721 345 747 Q 361 775 308 797 Q 277 815 257 809 Q 241 802 256 780 Q 275 755 277 722 Q 278 706 277 570 L 277 523 Q 276 457 274 368 L 273 326 Z" fill="black" /></g></svg>