<?xml version='1.0' encoding='utf-8'?>
<svg xmlns="http://www.w3.org/2000/svg" version="1.1" viewBox="0 0 1024 1024"><g transform="scale(1, -1) translate(0, -900)"><path d="M 760 135 Q 654 117 540 98 Q 533 97 530 99 Q 529 102 534 107 Q 610 198 638 220 Q 651 233 644 241 Q 635 253 605 261 C 576 270 571 272 570 257 Q 569 253 569 241 Q 575 190 482 107 Q 416 71 420 60 Q 420 48 427 30 Q 437 11 449 5 Q 456 1 468 6 Q 537 49 714 101 Q 753 110 771 117 C 799 127 790 140 760 135 Z" fill="black" /></g></svg>