<?xml version='1.0' encoding='utf-8'?>
<svg xmlns="http://www.w3.org/2000/svg" version="1.1" viewBox="0 0 1024 1024"><g transform="scale(1, -1) translate(0, -900)"><path d="M 273 327 Q 270 237 269 124 Q 268 100 255 91 Q 246 88 185 105 Q 152 118 155 109 Q 156 102 175 85 Q 235 31 249 2 Q 265 -32 281 -35 Q 296 -36 311 -2 Q 330 44 331 118 Q 324 245 324 370 L 324 400 Q 324 457 327 512 L 329 568 Q 329 670 350 740 Q 366 771 312 793 Q 278 812 259 805 Q 241 799 257 776 Q 279 749 279 715 Q 280 697 279 551 L 278 500 Q 277 442 274 367 L 273 327 Z" fill="black" /></g></svg>