<?xml version='1.0' encoding='utf-8'?>
<svg xmlns="http://www.w3.org/2000/svg" version="1.1" viewBox="0 0 1024 1024"><g transform="scale(1, -1) translate(0, -900)"><path d="M 626 540 Q 589 540 558 540 Q 533 540 546 555 Q 577 597 608 628 Q 618 640 617 645 Q 616 655 587 679 Q 586 680 584 681 C 560 699 550 704 558 675 L 559 674 Q 568 646 525 577 Q 518 562 499 547 Q 486 537 486 529 Q 489 516 499 502 Q 506 493 516 498 Q 535 508 603 520 Q 607 521 611 520 C 641 521 656 540 626 540 Z" fill="black" /></g></svg>