<?xml version='1.0' encoding='utf-8'?>
<svg xmlns="http://www.w3.org/2000/svg" version="1.1" viewBox="0 0 1024 1024"><g transform="scale(1, -1) translate(0, -900)"><path d="M 489 410 Q 576 438 780 473 Q 799 479 811 469 Q 821 463 823 417 Q 832 266 821 93 Q 820 68 810 60 Q 797 51 728 69 Q 712 72 714 63 Q 715 56 726 51 Q 787 8 818 -25 Q 837 -43 849 -40 Q 859 -39 870 -12 Q 885 28 884 88 Q 869 412 887 448 Q 897 467 888 478 Q 878 491 836 512 Q 820 521 802 516 Q 765 503 691 484 L 658 476 Q 567 458 476 445 C 446 441 460 401 489 410 Z" fill="black" /></g></svg>