<?xml version='1.0' encoding='utf-8'?>
<svg xmlns="http://www.w3.org/2000/svg" version="1.1" viewBox="0 0 1024 1024"><g transform="scale(1, -1) translate(0, -900)"><path d="M 770 115 Q 810 69 839 25 Q 849 6 860 7 Q 878 8 893 44 Q 909 86 905 134 Q 889 294 876 590 Q 875 623 891 646 Q 901 659 891 670 Q 872 691 815 715 Q 796 725 780 715 Q 710 685 599 667 Q 487 649 438 648 C 408 646 427 612 457 616 Q 469 616 738 664 Q 780 671 801 655 Q 837 625 835 262 Q 838 165 829 134 Q 825 115 805 123 Q 802 124 799 126 C 769 121 766 120 770 115 Z" fill="black" /></g></svg>