<?xml version='1.0' encoding='utf-8'?>
<svg xmlns="http://www.w3.org/2000/svg" version="1.1" viewBox="0 0 1024 1024"><g transform="scale(1, -1) translate(0, -900)"><path d="M 644 269 Q 698 284 758 294 C 788 299 774 314 744 311 Q 656 302 550 280 Q 538 277 547 286 Q 590 323 690 398 Q 724 426 751 440 Q 764 447 761 457 Q 755 476 729 502 Q 716 514 707 513 Q 697 512 696 497 Q 690 461 624 395 L 599 373 Q 494 283 472 276 Q 457 269 458 257 Q 458 244 478 222 Q 485 210 501 219 Q 556 247 610 261 L 644 269 Z" fill="black" /></g></svg>