<?xml version='1.0' encoding='utf-8'?>
<svg xmlns="http://www.w3.org/2000/svg" version="1.1" viewBox="0 0 1024 1024"><g transform="scale(1, -1) translate(0, -900)"><path d="M 591 248 Q 601 267 610 278 Q 620 285 617 294 Q 613 307 587 328 C 564 348 550 353 552 323 Q 559 298 537 240 L 521 204 Q 509 180 497 164 Q 488 148 490 135 Q 493 125 509 122 Q 551 112 596 89 L 597 89 L 644 63 Q 699 32 778 -29 Q 803 -48 820 -47 Q 839 -46 839 -27 Q 839 -8 810 34 Q 795 61 676 102 L 626 120 Q 583 135 551 142 Q 533 146 543 163 Q 559 193 571 212 L 591 248 Z" fill="black" /></g></svg>