<?xml version='1.0' encoding='utf-8'?>
<svg xmlns="http://www.w3.org/2000/svg" version="1.1" viewBox="0 0 1024 1024"><g transform="scale(1, -1) translate(0, -900)"><path d="M 259 345 Q 258 257 257 145 Q 257 121 244 112 Q 237 109 172 126 Q 141 139 143 129 Q 144 122 162 107 Q 223 55 238 27 Q 254 -6 271 -8 Q 284 -9 299 24 Q 317 67 316 139 Q 309 266 307 393 L 307 428 Q 307 488 309 545 L 310 602 Q 325 744 329 755 Q 345 783 292 805 Q 261 823 241 816 Q 225 810 240 788 Q 259 763 262 730 Q 263 714 262 582 L 262 531 Q 261 471 260 392 L 259 345 Z" fill="black" /></g></svg>