<?xml version='1.0' encoding='utf-8'?>
<svg xmlns="http://www.w3.org/2000/svg" version="1.1" viewBox="0 0 1024 1024"><g transform="scale(1, -1) translate(0, -900)"><path d="M 278 352 Q 277 261 275 147 Q 274 122 260 113 Q 254 110 196 122 Q 165 135 167 125 Q 168 118 186 103 Q 243 54 256 26 Q 272 -5 286 -8 Q 301 -9 315 24 Q 333 67 333 139 Q 326 266 325 394 L 324 424 Q 324 491 327 560 L 328 613 Q 335 749 349 791 Q 365 819 312 841 Q 281 859 261 853 Q 245 846 260 824 Q 279 799 281 766 Q 282 747 282 596 L 281 545 Q 280 481 278 393 L 278 352 Z" fill="black" /></g></svg>