<?xml version='1.0' encoding='utf-8'?>
<svg xmlns="http://www.w3.org/2000/svg" version="1.1" viewBox="0 0 1024 1024"><g transform="scale(1, -1) translate(0, -900)"><path d="M 263 333 Q 262 239 262 119 Q 261 94 248 85 Q 245 84 185 87 Q 152 99 155 89 Q 156 82 176 67 Q 233 21 247 -6 Q 263 -37 278 -39 Q 293 -40 307 -5 Q 325 41 322 114 Q 315 244 312 375 L 312 408 Q 312 475 314 541 L 315 599 Q 330 743 335 757 Q 351 787 296 809 Q 262 828 243 821 Q 225 814 242 791 Q 263 764 264 730 Q 265 714 266 578 L 265 525 Q 264 461 263 377 L 263 333 Z" fill="black" /></g></svg>