<?xml version='1.0' encoding='utf-8'?>
<svg xmlns="http://www.w3.org/2000/svg" version="1.1" viewBox="0 0 1024 1024"><g transform="scale(1, -1) translate(0, -900)"><path d="M 643 717 Q 659 724 677 730 Q 708 740 715 736 Q 722 732 718 715 Q 682 472 837 434 Q 900 421 931 432 Q 947 438 941 460 Q 928 497 921 541 Q 921 569 916 576 Q 910 583 904 568 Q 876 507 861 495 Q 848 488 833 495 Q 808 502 786 524 Q 753 557 756 630 Q 757 697 796 735 Q 809 745 803 754 Q 796 766 748 785 Q 735 791 721 782 Q 696 767 646 751 L 598 737 Q 555 728 519 726 Q 506 725 512 712 Q 516 702 537 694 Q 555 687 594 698 L 643 717 Z" fill="black" /></g></svg>