<?xml version='1.0' encoding='utf-8'?>
<svg xmlns="http://www.w3.org/2000/svg" version="1.1" viewBox="0 0 1024 1024"><g transform="scale(1, -1) translate(0, -900)"><path d="M 617 607 Q 618 616 623 625 Q 636 670 643 717 L 646 751 Q 650 799 661 823 Q 665 833 659 840 Q 613 882 580 872 Q 564 865 576 850 Q 600 825 599 798 Q 599 765 598 737 L 594 698 Q 593 694 593 687 Q 587 650 578 618 L 568 587 Q 550 527 484 452 Q 474 445 473 441 Q 469 435 483 437 Q 501 437 556 494 Q 583 525 601 567 L 617 607 Z" fill="black" /></g></svg>