<?xml version='1.0' encoding='utf-8'?>
<svg xmlns="http://www.w3.org/2000/svg" version="1.1" viewBox="0 0 1024 1024"><g transform="scale(1, -1) translate(0, -900)"><path d="M 478 654 Q 466 664 443 675 Q 424 687 415 679 Q 408 672 416 658 Q 432 624 434 562 Q 441 339 421 130 Q 418 91 394 55 Q 384 40 393 20 Q 400 -2 411 -10 Q 421 -19 438 -6 Q 552 70 872 68 Q 897 67 899 80 Q 898 95 869 116 Q 853 129 728 107 Q 545 86 498 76 Q 465 66 472 122 Q 478 309 482 541 Q 485 586 490 633 C 491 646 491 646 478 654 Z" fill="black" /></g></svg>