<?xml version='1.0' encoding='utf-8'?>
<svg xmlns="http://www.w3.org/2000/svg" version="1.1" viewBox="0 0 1024 1024"><g transform="scale(1, -1) translate(0, -900)"><path d="M 269 327 Q 268 242 268 134 Q 267 110 255 102 Q 248 98 176 105 Q 145 115 147 105 Q 148 98 169 85 Q 233 42 251 15 Q 270 -16 286 -15 Q 299 -16 313 17 Q 329 60 324 131 Q 317 248 315 364 L 315 398 Q 314 474 317 550 L 319 604 Q 319 685 337 743 Q 353 771 300 793 Q 269 811 249 804 Q 233 798 248 776 Q 267 751 270 718 Q 271 702 271 584 L 271 535 Q 270 466 269 369 L 269 327 Z" fill="black" /></g></svg>