<?xml version='1.0' encoding='utf-8'?>
<svg xmlns="http://www.w3.org/2000/svg" version="1.1" viewBox="0 0 1024 1024"><g transform="scale(1, -1) translate(0, -900)"><path d="M 716 80 Q 741 46 761 13 Q 770 -5 781 -5 Q 797 -4 813 29 Q 832 66 829 114 Q 823 165 818 261 Q 817 292 834 313 Q 843 326 834 336 Q 815 355 764 379 Q 746 389 731 380 Q 689 359 624 344 Q 602 340 584 335 L 560 331 Q 545 330 536 327 C 507 321 525 291 555 296 Q 571 297 718 329 Q 740 333 750 326 Q 774 296 757 118 Q 753 103 741 105 C 716 89 711 86 716 80 Z" fill="black" /></g></svg>