<?xml version='1.0' encoding='utf-8'?>
<svg xmlns="http://www.w3.org/2000/svg" version="1.1" viewBox="0 0 1024 1024"><g transform="scale(1, -1) translate(0, -900)"><path d="M 731 460 Q 744 438 757 430 Q 764 423 780 440 Q 790 455 819 535 Q 828 563 850 584 Q 862 594 852 608 Q 839 624 801 649 Q 783 658 769 654 Q 741 647 701 638 L 652 630 Q 621 626 586 618 L 542 610 Q 503 603 471 597 C 442 592 450 554 479 563 Q 479 564 482 564 Q 510 573 547 580 L 586 588 Q 614 595 651 600 L 695 607 Q 749 619 769 605 Q 778 598 775 586 Q 753 495 741 486 C 728 465 728 465 731 460 Z" fill="black" /></g></svg>