<?xml version='1.0' encoding='utf-8'?>
<svg xmlns="http://www.w3.org/2000/svg" version="1.1" viewBox="0 0 1024 1024"><g transform="scale(1, -1) translate(0, -900)"><path d="M 601 506 Q 605 497 615 497 Q 627 498 634 510 Q 641 517 658 560 Q 673 603 704 629 Q 720 642 707 656 Q 692 671 649 694 Q 637 701 578 688 L 551 684 Q 487 675 433 663 Q 387 653 353 647 C 323 642 334 614 364 618 Q 370 618 376 619 Q 440 640 586 659 Q 613 662 622 657 Q 628 653 624 632 Q 612 572 599 531 C 593 512 593 512 601 506 Z" fill="black" /></g></svg>