<?xml version='1.0' encoding='utf-8'?>
<svg xmlns="http://www.w3.org/2000/svg" version="1.1" viewBox="0 0 1024 1024"><g transform="scale(1, -1) translate(0, -900)"><path d="M 270 321 Q 269 233 268 122 Q 267 98 255 90 Q 248 84 184 93 Q 153 103 155 93 Q 156 86 177 73 Q 237 28 252 3 Q 270 -27 285 -28 Q 298 -28 312 5 Q 328 48 325 118 Q 318 241 317 362 L 317 395 Q 317 459 320 521 L 322 576 Q 322 657 341 719 Q 357 747 304 769 Q 273 787 253 781 Q 237 774 252 753 Q 271 726 273 694 Q 274 678 273 556 L 273 506 Q 272 446 271 365 L 270 321 Z" fill="black" /></g></svg>