<?xml version='1.0' encoding='utf-8'?>
<svg xmlns="http://www.w3.org/2000/svg" version="1.1" viewBox="0 0 1024 1024"><g transform="scale(1, -1) translate(0, -900)"><path d="M 275 368 Q 274 274 272 152 Q 271 130 258 120 Q 255 120 196 132 Q 165 147 166 137 Q 167 130 186 113 Q 241 58 254 30 Q 267 -4 283 -7 Q 298 -8 314 26 Q 333 72 335 146 Q 328 278 326 408 L 326 437 Q 326 507 329 574 L 332 631 Q 336 719 350 765 Q 368 795 312 817 Q 278 836 259 829 Q 241 823 257 800 Q 279 772 280 739 Q 281 724 280 612 L 279 560 Q 278 496 276 409 L 275 368 Z" fill="black" /></g></svg>