<?xml version='1.0' encoding='utf-8'?>
<svg xmlns="http://www.w3.org/2000/svg" version="1.1" viewBox="0 0 1024 1024"><g transform="scale(1, -1) translate(0, -900)"><path d="M 562 245 Q 575 254 609 258 C 639 262 641 289 611 284 Q 587 280 567 274 L 523 262 Q 501 256 482 248 Q 473 247 476 256 Q 488 313 484 322 Q 474 334 459 345 Q 452 349 445 348 Q 438 347 442 333 Q 452 302 445 274 Q 439 246 427 235 Q 414 223 420 214 Q 427 204 439 197 Q 448 193 454 197 Q 464 210 518 230 L 562 245 Z" fill="black" /></g></svg>