<?xml version='1.0' encoding='utf-8'?>
<svg xmlns="http://www.w3.org/2000/svg" version="1.1" viewBox="0 0 1024 1024"><g transform="scale(1, -1) translate(0, -900)"><path d="M 199 311 Q 198 233 197 138 Q 196 116 184 107 Q 180 104 121 112 Q 93 122 95 113 Q 96 106 114 94 Q 166 51 181 27 Q 197 -1 210 -2 Q 223 -3 235 28 Q 251 68 249 132 Q 243 241 242 349 L 242 375 Q 242 447 245 517 L 246 568 Q 252 686 265 731 Q 281 756 232 777 Q 202 793 186 788 Q 170 782 184 762 Q 203 738 204 708 Q 205 692 204 550 L 203 503 Q 202 437 200 347 L 199 311 Z" fill="black" /></g></svg>