<?xml version='1.0' encoding='utf-8'?>
<svg xmlns="http://www.w3.org/2000/svg" version="1.1" viewBox="0 0 1024 1024"><g transform="scale(1, -1) translate(0, -900)"><path d="M 480 194 Q 489 200 502 205 Q 562 235 638 310 L 661 337 Q 739 434 752 441 Q 767 447 769 456 Q 770 468 747 484 Q 719 506 706 508 Q 696 508 686 502 Q 667 496 622 484 Q 591 478 575 474 C 546 467 515 452 545 448 Q 582 438 649 461 Q 667 465 673 459 Q 677 455 657 416 Q 642 389 621 361 L 602 338 Q 601 338 600 336 Q 506 225 351 179 Q 342 176 342 173 Q 342 169 349 167 Q 379 166 452 183 L 480 194 Z" fill="black" /></g></svg>