<?xml version='1.0' encoding='utf-8'?>
<svg xmlns="http://www.w3.org/2000/svg" version="1.1" viewBox="0 0 1024 1024"><g transform="scale(1, -1) translate(0, -900)"><path d="M 227 333 Q 226 245 225 134 Q 224 110 211 101 Q 205 97 128 105 Q 97 115 99 105 Q 100 98 121 85 Q 188 42 206 15 Q 228 -16 243 -15 Q 256 -16 269 17 Q 285 60 281 130 Q 274 251 273 373 L 273 404 Q 272 476 275 545 L 277 596 Q 287 731 297 759 Q 313 787 260 809 Q 229 827 209 821 Q 193 814 208 792 Q 227 767 229 734 Q 230 718 230 576 L 230 530 Q 229 464 227 374 L 227 333 Z" fill="black" /></g></svg>