<?xml version='1.0' encoding='utf-8'?>
<svg xmlns="http://www.w3.org/2000/svg" version="1.1" viewBox="0 0 1024 1024"><g transform="scale(1, -1) translate(0, -900)"><path d="M 732 245 Q 825 248 926 240 Q 944 239 949 247 Q 955 257 940 271 Q 888 313 835 299 Q 787 293 726 285 L 667 278 Q 649 277 631 275 Q 609 274 590 271 L 538 266 Q 448 260 352 252 Q 333 251 347 234 Q 359 221 375 215 Q 394 209 410 213 Q 464 226 523 231 L 570 236 Q 583 239 598 239 Q 631 243 672 243 L 732 245 Z" fill="black" /></g></svg>