<?xml version='1.0' encoding='utf-8'?>
<svg xmlns="http://www.w3.org/2000/svg" version="1.1" viewBox="0 0 1024 1024"><g transform="scale(1, -1) translate(0, -900)"><path d="M 255 315 Q 254 224 251 106 Q 250 81 237 73 Q 231 70 180 78 Q 149 91 151 81 Q 152 74 170 59 Q 222 10 234 -15 Q 249 -46 262 -48 Q 275 -49 291 -16 Q 309 27 309 98 Q 302 228 303 358 L 303 392 Q 303 456 306 522 L 308 573 Q 308 670 328 735 Q 344 763 292 785 Q 261 804 241 797 Q 225 791 239 769 Q 260 742 261 710 Q 262 692 260 554 L 259 510 Q 258 446 256 360 L 255 315 Z" fill="black" /></g></svg>