<?xml version='1.0' encoding='utf-8'?>
<svg xmlns="http://www.w3.org/2000/svg" version="1.1" viewBox="0 0 1024 1024"><g transform="scale(1, -1) translate(0, -900)"><path d="M 266 338 Q 265 247 264 128 Q 263 104 250 96 Q 243 93 185 109 Q 154 122 155 113 Q 156 106 174 89 Q 232 35 245 6 Q 261 -28 276 -31 Q 291 -32 306 2 Q 325 48 326 122 Q 319 249 317 378 L 317 407 Q 316 471 318 533 L 320 588 Q 320 675 338 737 Q 356 767 300 789 Q 266 808 247 801 Q 229 794 245 771 Q 267 744 268 710 Q 269 694 269 566 L 269 519 Q 268 459 267 378 L 266 338 Z" fill="black" /></g></svg>