<?xml version='1.0' encoding='utf-8'?>
<svg xmlns="http://www.w3.org/2000/svg" version="1.1" viewBox="0 0 1024 1024"><g transform="scale(1, -1) translate(0, -900)"><path d="M 693 556 Q 706 534 721 526 Q 730 519 744 537 Q 757 558 787 672 Q 794 699 816 720 Q 828 730 818 743 Q 805 758 768 782 Q 756 788 677 774 Q 667 774 561 756 Q 507 746 465 740 C 435 736 450 709 480 712 Q 486 711 494 713 Q 527 722 574 729 L 606 734 Q 720 755 734 741 Q 744 728 742 715 Q 717 595 704 582 C 692 558 692 558 693 556 Z" fill="black" /></g></svg>