<?xml version='1.0' encoding='utf-8'?>
<svg xmlns="http://www.w3.org/2000/svg" version="1.1" viewBox="0 0 1024 1024"><g transform="scale(1, -1) translate(0, -900)"><path d="M 590 271 Q 597 284 605 292 Q 614 298 612 307 Q 608 320 576 347 Q 566 356 557 353 Q 545 350 551 336 Q 558 315 549 294 Q 543 281 538 266 L 523 231 Q 508 203 494 183 Q 485 167 487 156 Q 488 147 504 143 Q 558 125 603 95 L 642 68 Q 688 34 754 -24 Q 776 -43 792 -43 Q 811 -44 812 -26 Q 813 -8 789 34 Q 776 61 671 107 L 629 126 Q 580 148 545 159 Q 526 163 538 182 Q 557 216 570 236 L 590 271 Z" fill="black" /></g></svg>