<?xml version='1.0' encoding='utf-8'?>
<svg xmlns="http://www.w3.org/2000/svg" version="1.1" viewBox="0 0 1024 1024"><g transform="scale(1, -1) translate(0, -900)"><path d="M 219 318 Q 218 236 217 133 Q 216 109 203 100 Q 199 97 131 105 Q 100 114 103 105 Q 104 98 124 86 Q 184 43 200 17 Q 218 -13 232 -13 Q 245 -13 258 18 Q 274 60 271 127 Q 264 244 263 359 L 263 391 Q 262 461 265 530 L 267 585 Q 273 717 287 761 Q 303 789 252 809 Q 221 827 203 820 Q 187 814 202 793 Q 221 768 222 737 Q 223 719 223 569 L 222 516 Q 221 450 220 362 L 219 318 Z" fill="black" /></g></svg>