<?xml version='1.0' encoding='utf-8'?>
<svg xmlns="http://www.w3.org/2000/svg" version="1.1" viewBox="0 0 1024 1024"><g transform="scale(1, -1) translate(0, -900)"><path d="M 258 350 Q 257 262 257 149 Q 256 125 244 117 Q 238 114 180 126 Q 149 139 151 129 Q 152 122 170 107 Q 227 58 240 30 Q 256 -1 270 -4 Q 285 -5 299 28 Q 317 71 316 143 Q 309 269 306 393 L 306 424 Q 305 491 307 555 L 308 608 Q 308 693 325 755 Q 341 783 288 805 Q 255 823 237 816 Q 221 810 236 788 Q 257 763 258 729 Q 259 713 260 591 L 260 542 Q 259 479 258 393 L 258 350 Z" fill="black" /></g></svg>