<?xml version='1.0' encoding='utf-8'?>
<svg xmlns="http://www.w3.org/2000/svg" version="1.1" viewBox="0 0 1024 1024"><g transform="scale(1, -1) translate(0, -900)"><path d="M 627 260 Q 627 257 629 253 Q 642 216 640 181 Q 636 70 644 40 Q 648 18 669 -1 Q 742 -64 893 -34 Q 897 -31 904 -31 Q 938 -21 972 6 Q 991 22 976 49 Q 963 73 938 146 Q 937 162 929 166 Q 922 169 920 151 Q 899 69 884 44 Q 860 14 776 19 Q 745 20 719 32 Q 697 44 689 59 Q 671 96 692 228 Q 698 253 665 268 C 640 284 618 289 627 260 Z" fill="black" /></g></svg>