<?xml version='1.0' encoding='utf-8'?>
<svg xmlns="http://www.w3.org/2000/svg" version="1.1" viewBox="0 0 1024 1024"><g transform="scale(1, -1) translate(0, -900)"><path d="M 625 178 Q 629 82 613 52 Q 612 48 607 46 Q 595 40 512 56 Q 505 56 502 53 Q 501 49 509 41 Q 569 -7 600 -43 Q 610 -55 617 -53 Q 626 -53 640 -39 Q 674 -2 676 101 Q 673 161 673 182 L 671 219 Q 668 252 667 265 L 664 306 Q 664 330 652 338 Q 634 348 619 354 C 592 366 571 372 588 348 Q 603 333 611 292 L 618 255 Q 619 236 622 212 L 625 178 Z" fill="black" /></g></svg>