<?xml version='1.0' encoding='utf-8'?>
<svg xmlns="http://www.w3.org/2000/svg" version="1.1" viewBox="0 0 1024 1024"><g transform="scale(1, -1) translate(0, -900)"><path d="M 275 336 Q 274 243 273 126 Q 273 102 260 93 Q 251 89 232 95 Q 210 102 187 109 Q 157 122 159 113 Q 160 106 178 90 Q 238 38 253 8 Q 269 -26 285 -28 Q 298 -29 314 4 Q 333 47 332 119 Q 325 246 323 374 L 323 408 Q 322 484 325 559 L 327 613 Q 327 697 345 755 Q 361 783 308 805 Q 275 823 257 816 Q 241 810 256 788 Q 275 763 278 729 Q 279 713 278 595 L 278 547 Q 277 478 276 382 L 275 336 Z" fill="black" /></g></svg>