<?xml version='1.0' encoding='utf-8'?>
<svg xmlns="http://www.w3.org/2000/svg" version="1.1" viewBox="0 0 1024 1024"><g transform="scale(1, -1) translate(0, -900)"><path d="M 274 349 Q 273 261 272 147 Q 271 123 259 115 Q 256 115 205 118 Q 172 131 175 121 Q 176 114 195 98 Q 247 49 259 22 Q 272 -9 286 -11 Q 301 -12 316 23 Q 335 68 334 142 Q 327 266 325 390 L 325 421 Q 324 485 326 548 L 328 606 Q 328 690 346 753 Q 364 783 308 805 Q 274 824 255 817 Q 237 810 253 787 Q 275 760 276 726 Q 277 710 277 585 L 277 534 Q 276 473 275 391 L 274 349 Z" fill="black" /></g></svg>