<?xml version='1.0' encoding='utf-8'?>
<svg xmlns="http://www.w3.org/2000/svg" version="1.1" viewBox="0 0 1024 1024"><g transform="scale(1, -1) translate(0, -900)"><path d="M 712 238 Q 725 220 737 214 Q 746 207 761 226 Q 773 242 800 339 Q 809 367 831 390 Q 844 402 833 415 Q 820 431 780 456 Q 762 463 699 449 Q 687 449 564 426 Q 513 416 470 410 C 440 406 464 371 493 379 Q 529 389 578 398 L 615 404 Q 732 425 744 412 Q 754 402 751 390 Q 733 285 716 271 C 702 250 702 250 712 238 Z" fill="black" /></g></svg>