<?xml version='1.0' encoding='utf-8'?>
<svg xmlns="http://www.w3.org/2000/svg" version="1.1" viewBox="0 0 1024 1024"><g transform="scale(1, -1) translate(0, -900)"><path d="M 775 362 Q 776 359 779 355 Q 789 330 798 330 Q 811 331 824 359 Q 837 381 836 399 Q 824 528 847 559 Q 857 575 849 584 Q 822 608 777 627 Q 759 633 695 605 L 656 593 Q 614 584 613 582 L 571 575 Q 523 569 485 569 C 455 568 480 533 510 538 Q 511 538 571 549 L 610 557 Q 643 567 656 567 L 689 574 Q 747 587 766 575 Q 772 562 776 525 Q 779 416 774 394 Q 773 394 773 393 C 770 373 770 373 775 362 Z" fill="black" /></g></svg>