<?xml version='1.0' encoding='utf-8'?>
<svg xmlns="http://www.w3.org/2000/svg" version="1.1" viewBox="0 0 1024 1024"><g transform="scale(1, -1) translate(0, -900)"><path d="M 452 416 Q 519 512 566 632 L 582 676 Q 604 737 622 757 Q 632 770 627 779 Q 618 803 568 820 Q 553 827 537 819 Q 527 810 535 800 Q 548 784 550 766 Q 551 744 525 665 L 510 620 Q 486 556 457 503 L 448 487 Q 441 480 437 468 Q 397 407 309 316 Q 299 303 310 300 Q 314 299 327 306 Q 372 333 427 386 L 452 416 Z" fill="black" /></g></svg>