<?xml version='1.0' encoding='utf-8'?>
<svg xmlns="http://www.w3.org/2000/svg" version="1.1" viewBox="0 0 1024 1024"><g transform="scale(1, -1) translate(0, -900)"><path d="M 578 715 Q 579 719 577 725 Q 571 734 524 752 Q 514 756 494 745 Q 469 732 408 720 Q 395 719 405 707 Q 415 697 443 702 Q 492 714 495 707 Q 499 695 485 650 Q 476 613 446 563 L 441 555 Q 434 545 427 533 Q 382 460 303 388 Q 284 373 301 376 Q 361 379 449 491 Q 501 560 540 649 Q 553 683 565 698 C 577 717 579 713 578 715 Z" fill="black" /></g></svg>