<?xml version='1.0' encoding='utf-8'?>
<svg xmlns="http://www.w3.org/2000/svg" version="1.1" viewBox="0 0 1024 1024"><g transform="scale(1, -1) translate(0, -900)"><path d="M 606 194 Q 594 -41 618 -77 Q 624 -84 631 -82 Q 647 -72 651 -17 Q 655 31 656 201 L 656 242 Q 656 284 658 337 L 659 375 Q 659 399 660 423 Q 660 432 660 439 L 667 482 Q 668 492 671 501 Q 674 517 660 527 Q 650 534 641 539 C 616 555 571 554 586 528 Q 590 521 596 511 Q 606 495 608 468 L 609 431 Q 609 400 609 363 L 608 330 Q 608 285 607 234 L 606 194 Z" fill="black" /></g></svg>