<?xml version='1.0' encoding='utf-8'?>
<svg xmlns="http://www.w3.org/2000/svg" version="1.1" viewBox="0 0 1024 1024"><g transform="scale(1, -1) translate(0, -900)"><path d="M 223 345 Q 222 257 220 146 Q 219 124 207 115 Q 203 114 155 127 Q 125 143 126 133 Q 127 126 144 109 Q 193 55 202 28 Q 214 -3 228 -7 Q 241 -8 258 24 Q 279 67 281 138 Q 274 267 273 395 L 273 427 Q 273 488 276 547 L 278 601 Q 278 677 297 739 Q 313 767 260 789 Q 229 807 209 801 Q 193 794 208 773 Q 227 746 229 714 Q 230 699 229 581 L 228 533 Q 227 475 224 393 L 223 345 Z" fill="black" /></g></svg>