<?xml version='1.0' encoding='utf-8'?>
<svg xmlns="http://www.w3.org/2000/svg" version="1.1" viewBox="0 0 1024 1024"><g transform="scale(1, -1) translate(0, -900)"><path d="M 236 331 Q 235 247 233 142 Q 232 118 219 110 Q 213 107 163 120 Q 133 135 134 125 Q 135 118 153 102 Q 204 50 216 23 Q 229 -8 243 -12 Q 256 -13 272 20 Q 291 63 293 134 Q 286 257 285 378 L 285 411 Q 285 477 288 541 L 290 598 Q 290 682 309 743 Q 325 771 272 793 Q 241 811 221 805 Q 205 798 220 776 Q 239 751 241 718 Q 242 702 241 578 L 240 526 Q 239 462 237 376 L 236 331 Z" fill="black" /></g></svg>