<?xml version='1.0' encoding='utf-8'?>
<svg xmlns="http://www.w3.org/2000/svg" version="1.1" viewBox="0 0 1024 1024"><g transform="scale(1, -1) translate(0, -900)"><path d="M 410 323 Q 401 330 386 339 Q 376 346 368 342 Q 359 336 368 324 Q 380 302 371 268 Q 361 223 341 206 Q 331 194 334 183 Q 341 171 350 165 Q 359 158 375 172 Q 402 206 452 211 Q 468 211 473 204 Q 491 174 457 95 Q 438 59 423 47 Q 417 43 350 58 Q 337 62 339 53 Q 340 43 354 32 Q 382 5 397 -20 Q 409 -36 424 -26 Q 472 1 494 61 Q 530 175 540 189 Q 550 204 541 213 Q 531 228 506 242 Q 485 254 433 231 Q 406 224 405 224 Q 402 225 405 233 Q 417 278 423 296 C 428 311 428 311 410 323 Z" fill="black" /></g></svg>