<?xml version='1.0' encoding='utf-8'?>
<svg xmlns="http://www.w3.org/2000/svg" version="1.1" viewBox="0 0 1024 1024"><g transform="scale(1, -1) translate(0, -900)"><path d="M 419 144 Q 410 72 395 45 Q 376 27 387 12 Q 394 2 414 -6 Q 427 -13 437 1 Q 449 28 512 75 Q 534 88 543 104 Q 549 113 541 113 Q 537 113 468 77 Q 461 73 455 75 Q 446 78 448 98 Q 451 128 454 153 L 458 193 Q 459 218 462 237 Q 462 241 462 244 L 465 286 Q 469 313 463 320 Q 450 332 436 337 C 409 350 388 351 406 327 Q 424 309 424 269 L 424 233 Q 423 208 422 181 L 419 144 Z" fill="black" /></g></svg>