<?xml version='1.0' encoding='utf-8'?>
<svg xmlns="http://www.w3.org/2000/svg" version="1.1" viewBox="0 0 1024 1024"><g transform="scale(1, -1) translate(0, -900)"><path d="M 250 356 Q 249 260 247 137 Q 246 113 233 104 Q 226 98 168 111 Q 137 123 139 113 Q 140 106 159 91 Q 216 43 230 17 Q 246 -14 260 -16 Q 273 -17 288 16 Q 306 59 305 131 Q 298 266 297 400 L 297 428 Q 297 480 299 533 L 301 588 Q 301 699 321 763 Q 337 791 284 813 Q 253 831 233 825 Q 217 818 232 796 Q 251 771 253 738 Q 254 719 253 568 L 253 520 Q 252 465 251 396 L 250 356 Z" fill="black" /></g></svg>