<?xml version='1.0' encoding='utf-8'?>
<svg xmlns="http://www.w3.org/2000/svg" version="1.1" viewBox="0 0 1024 1024"><g transform="scale(1, -1) translate(0, -900)"><path d="M 812 439 Q 863 446 911 451 Q 920 450 928 460 Q 929 470 910 481 Q 882 502 825 484 L 770 471 Q 731 464 697 456 L 651 446 Q 618 442 587 436 L 544 429 Q 531 429 486 424 L 443 419 Q 415 418 384 414 Q 359 411 378 395 Q 402 374 452 380 L 490 388 Q 518 394 548 398 L 589 406 Q 617 412 651 417 L 693 423 Q 739 432 765 433 L 812 439 Z" fill="black" /></g></svg>