<?xml version='1.0' encoding='utf-8'?>
<svg xmlns="http://www.w3.org/2000/svg" version="1.1" viewBox="0 0 1024 1024"><g transform="scale(1, -1) translate(0, -900)"><path d="M 251 332 Q 250 239 248 122 Q 247 98 234 90 Q 228 86 167 99 Q 136 111 139 101 Q 140 94 158 80 Q 215 34 229 7 Q 245 -24 260 -25 Q 273 -26 287 6 Q 303 48 303 115 Q 296 242 295 370 L 295 405 Q 295 471 298 535 L 300 589 Q 312 721 319 741 Q 335 769 284 789 Q 253 807 235 800 Q 219 794 234 773 Q 253 748 254 717 Q 255 701 255 570 L 254 522 Q 253 461 251 377 L 251 332 Z" fill="black" /></g></svg>