<?xml version='1.0' encoding='utf-8'?>
<svg xmlns="http://www.w3.org/2000/svg" version="1.1" viewBox="0 0 1024 1024"><g transform="scale(1, -1) translate(0, -900)"><path d="M 305 155 Q 301 269 300 379 L 300 411 Q 300 478 303 543 L 305 598 Q 305 670 323 733 Q 339 761 288 781 Q 257 799 240 792 Q 224 786 238 765 Q 257 740 258 709 Q 259 694 259 579 L 258 529 Q 257 468 256 382 L 255 339 Q 254 251 252 140 Q 251 118 239 109 Q 230 103 155 124 Q 124 134 127 125 Q 128 118 147 105 Q 213 57 230 29 Q 249 -5 266 -5 Q 279 -6 292 26 Q 308 68 307 135 Q 306 136 307 136 L 305 155 Z" fill="black" /></g></svg>