<?xml version='1.0' encoding='utf-8'?>
<svg xmlns="http://www.w3.org/2000/svg" version="1.1" viewBox="0 0 1024 1024"><g transform="scale(1, -1) translate(0, -900)"><path d="M 720 419 Q 729 420 744 421 Q 811 425 838 441 Q 863 454 851 481 Q 835 518 822 581 Q 819 594 813 598 Q 806 602 804 585 Q 797 506 785 491 Q 763 464 664 459 Q 612 458 588 466 Q 558 481 555 526 L 554 560 Q 554 576 557 609 L 565 651 Q 566 663 571 670 Q 581 695 565 708 Q 552 718 541 724 C 516 740 497 744 506 715 Q 516 694 517 635 L 517 599 Q 516 571 517 549 L 518 514 Q 521 466 552 443 Q 589 416 704 419 L 720 419 Z" fill="black" /></g></svg>