<?xml version='1.0' encoding='utf-8'?>
<svg xmlns="http://www.w3.org/2000/svg" version="1.1" viewBox="0 0 1024 1024"><g transform="scale(1, -1) translate(0, -900)"><path d="M 708 38 Q 717 13 737 -32 Q 744 -48 755 -48 Q 770 -47 780 -21 Q 801 18 823 168 Q 827 216 851 244 Q 867 263 856 277 Q 834 298 789 318 Q 771 328 739 317 Q 622 275 453 259 C 423 256 441 218 471 221 Q 478 220 487 222 Q 529 232 583 241 L 619 248 Q 665 258 724 268 Q 749 272 761 261 Q 779 228 749 74 Q 748 61 742 58 Q 739 57 733 59 C 707 43 706 43 708 38 Z" fill="black" /></g></svg>