<?xml version='1.0' encoding='utf-8'?>
<svg xmlns="http://www.w3.org/2000/svg" version="1.1" viewBox="0 0 1024 1024"><g transform="scale(1, -1) translate(0, -900)"><path d="M 894 558 Q 884 571 867 614 Q 866 626 860 630 Q 856 631 853 618 Q 832 570 820 555 Q 813 548 792 541 Q 738 528 705 542 Q 689 548 685 557 Q 675 575 675 626 L 677 656 Q 680 692 687 731 Q 687 734 687 735 C 689 749 689 749 676 757 Q 667 764 653 769 Q 643 773 637 769 Q 631 766 636 752 Q 646 722 644 693 Q 635 530 679 507 Q 689 503 707 496 Q 816 475 890 526 Q 905 539 894 558 Z" fill="black" /></g></svg>