<?xml version='1.0' encoding='utf-8'?>
<svg xmlns="http://www.w3.org/2000/svg" version="1.1" viewBox="0 0 1024 1024"><g transform="scale(1, -1) translate(0, -900)"><path d="M 820 249 Q 813 228 825 208 Q 838 181 846 182 Q 859 183 874 213 Q 887 237 886 255 Q 862 450 898 502 Q 910 523 881 539 Q 860 552 832 564 Q 819 568 797 560 Q 766 544 725 531 Q 712 528 699 524 L 669 519 Q 666 519 664 518 C 634 513 652 485 681 493 Q 680 494 682 494 Q 803 524 814 519 Q 823 500 827 444 Q 828 281 820 249 Z" fill="black" /></g></svg>