<?xml version='1.0' encoding='utf-8'?>
<svg xmlns="http://www.w3.org/2000/svg" version="1.1" viewBox="0 0 1024 1024"><g transform="scale(1, -1) translate(0, -900)"><path d="M 256 330 Q 255 240 253 127 Q 252 103 239 95 Q 230 89 177 102 Q 144 115 147 105 Q 148 98 167 82 Q 222 31 236 4 Q 252 -29 266 -31 Q 281 -32 296 3 Q 315 48 315 122 Q 308 249 306 375 L 306 409 Q 306 461 308 514 L 310 568 Q 310 668 330 737 Q 348 767 292 789 Q 258 808 239 801 Q 221 795 237 772 Q 259 744 260 711 Q 261 693 260 547 L 259 500 Q 258 446 257 377 L 256 330 Z" fill="black" /></g></svg>