<?xml version='1.0' encoding='utf-8'?>
<svg xmlns="http://www.w3.org/2000/svg" version="1.1" viewBox="0 0 1024 1024"><g transform="scale(1, -1) translate(0, -900)"><path d="M 245 337 Q 244 256 243 156 Q 242 134 230 126 Q 224 123 166 135 Q 138 147 139 137 Q 140 130 158 116 Q 213 70 226 43 Q 241 12 255 11 Q 268 10 283 42 Q 299 84 299 151 Q 292 268 291 383 L 291 416 Q 291 477 294 537 L 296 589 Q 297 599 298 610 Q 302 691 315 733 Q 331 761 280 781 Q 249 799 231 792 Q 215 786 230 765 Q 249 740 250 709 Q 251 693 250 569 L 249 524 Q 248 464 246 383 L 245 337 Z" fill="black" /></g></svg>