<?xml version='1.0' encoding='utf-8'?>
<svg xmlns="http://www.w3.org/2000/svg" version="1.1" viewBox="0 0 1024 1024"><g transform="scale(1, -1) translate(0, -900)"><path d="M 265 341 Q 264 260 263 158 Q 262 136 250 127 Q 244 126 195 143 Q 165 159 166 149 Q 167 142 184 125 Q 233 70 245 41 Q 257 8 271 5 Q 284 4 302 36 Q 321 79 325 151 Q 318 266 316 383 L 316 416 Q 315 486 318 555 L 320 610 Q 324 692 337 735 Q 353 763 300 785 Q 269 803 249 796 Q 233 790 248 768 Q 267 743 269 710 Q 270 697 269 592 L 269 542 Q 268 478 266 386 L 265 341 Z" fill="black" /></g></svg>