<?xml version='1.0' encoding='utf-8'?>
<svg xmlns="http://www.w3.org/2000/svg" version="1.1" viewBox="0 0 1024 1024"><g transform="scale(1, -1) translate(0, -900)"><path d="M 625 624 Q 591 620 562 611 Q 510 601 472 593 C 443 587 465 550 492 562 Q 499 571 593 587 L 623 593 Q 749 617 768 607 Q 777 603 772 573 Q 753 477 742 450 L 737 424 Q 737 420 739 414 Q 743 401 755 401 Q 768 402 775 415 Q 787 431 808 505 Q 823 553 856 580 Q 874 593 859 608 Q 843 624 797 648 Q 785 657 728 642 Q 698 639 658 630 L 625 624 Z" fill="black" /></g></svg>