<?xml version='1.0' encoding='utf-8'?>
<svg xmlns="http://www.w3.org/2000/svg" version="1.1" viewBox="0 0 1024 1024"><g transform="scale(1, -1) translate(0, -900)"><path d="M 453 146 Q 472 159 478 179 Q 487 218 446 265 Q 418 304 490 360 Q 508 373 493 387 Q 477 400 450 414 Q 432 426 403 402 Q 355 372 336 374 Q 330 375 329 371 Q 328 367 334 363 Q 364 350 409 369 Q 415 372 422 365 Q 434 350 419 332 Q 380 296 415 250 Q 443 201 442 179 Q 439 163 436 145 C 433 130 433 130 453 146 Z" fill="black" /></g></svg>