<?xml version='1.0' encoding='utf-8'?>
<svg xmlns="http://www.w3.org/2000/svg" version="1.1" viewBox="0 0 1024 1024"><g transform="scale(1, -1) translate(0, -900)"><path d="M 613 -19 Q 617 -41 623 -49 Q 627 -56 634 -53 Q 641 -50 646 -37 Q 656 -1 657 115 Q 657 122 658 130 L 658 167 Q 659 197 661 235 L 664 275 Q 665 285 668 293 Q 671 309 659 317 Q 631 336 617 338 Q 607 342 592 335 Q 585 328 590 319 Q 605 286 605 264 L 606 229 Q 607 198 607 161 L 607 126 Q 608 105 608 81 Q 609 6 613 -19 Z" fill="black" /></g></svg>