<?xml version='1.0' encoding='utf-8'?>
<svg xmlns="http://www.w3.org/2000/svg" version="1.1" viewBox="0 0 1024 1024"><g transform="scale(1, -1) translate(0, -900)"><path d="M 732 361 Q 736 357 740 351 Q 774 305 819 274 Q 873 237 898 239 Q 914 245 907 268 Q 898 305 888 414 Q 887 433 878 434 Q 875 434 853 362 Q 843 331 824 341 Q 818 344 810 349 Q 782 371 759 402 L 732 441 Q 693 513 664 619 L 653 660 Q 638 726 641 770 Q 648 804 600 817 Q 570 827 554 819 Q 538 812 548 796 Q 590 766 593 739 Q 603 690 615 647 L 625 609 Q 659 480 711 395 L 732 361 Z" fill="black" /></g></svg>