<?xml version='1.0' encoding='utf-8'?>
<svg xmlns="http://www.w3.org/2000/svg" version="1.1" viewBox="0 0 1024 1024"><g transform="scale(1, -1) translate(0, -900)"><path d="M 620 -27 Q 624 -49 631 -58 Q 635 -64 642 -61 Q 649 -58 654 -45 Q 669 6 665 148 Q 664 149 664 150 L 663 181 Q 662 218 661 279 L 661 308 Q 661 335 662 364 L 662 396 Q 662 424 663 456 Q 663 463 663 471 L 666 499 Q 670 521 673 537 Q 676 553 663 561 Q 635 580 621 582 Q 611 586 596 578 Q 589 571 595 562 Q 616 514 618 494 L 618 487 L 618 462 Q 618 428 619 387 L 619 358 Q 618 331 618 301 L 617 273 Q 617 227 616 174 L 615 145 Q 615 16 620 -27 Z" fill="black" /></g></svg>