<?xml version='1.0' encoding='utf-8'?>
<svg xmlns="http://www.w3.org/2000/svg" version="1.1" viewBox="0 0 1024 1024"><g transform="scale(1, -1) translate(0, -900)"><path d="M 245 328 Q 244 240 244 132 Q 243 108 230 99 Q 227 96 187 104 Q 157 119 158 109 Q 159 102 176 85 Q 221 36 230 10 Q 240 -20 253 -23 Q 266 -24 283 8 Q 302 51 304 123 Q 295 247 293 371 L 293 401 Q 292 459 294 516 L 295 567 Q 295 693 313 759 Q 329 787 276 809 Q 243 827 225 820 Q 209 814 224 792 Q 245 767 246 733 Q 247 714 247 551 L 247 505 Q 246 447 245 370 L 245 328 Z" fill="black" /></g></svg>