<?xml version='1.0' encoding='utf-8'?>
<svg xmlns="http://www.w3.org/2000/svg" version="1.1" viewBox="0 0 1024 1024"><g transform="scale(1, -1) translate(0, -900)"><path d="M 733 286 Q 746 262 761 255 Q 768 248 783 264 Q 793 280 819 365 L 838 409 Q 844 418 852 425 Q 862 435 854 447 Q 841 460 807 483 Q 792 492 736 477 Q 730 477 613 456 Q 573 447 536 441 C 506 436 524 406 553 414 Q 584 424 634 432 L 668 439 Q 756 460 776 446 Q 786 439 783 423 Q 779 410 776 396 L 767 362 Q 752 311 743 306 C 731 289 731 289 733 286 Z" fill="black" /></g></svg>