<?xml version='1.0' encoding='utf-8'?>
<svg xmlns="http://www.w3.org/2000/svg" version="1.1" viewBox="0 0 1024 1024"><g transform="scale(1, -1) translate(0, -900)"><path d="M 755 649 Q 768 627 780 618 Q 789 609 805 628 Q 815 641 846 713 Q 856 741 879 764 Q 892 774 882 789 Q 869 805 830 832 Q 812 842 744 825 Q 734 825 569 796 Q 514 786 465 777 C 435 772 453 735 482 744 Q 510 753 549 761 L 568 765 Q 605 775 652 782 L 681 787 Q 766 809 796 790 Q 803 783 800 771 Q 781 698 774 687 Q 770 677 755 675 Q 754 676 754 675 C 741 670 741 670 755 649 Z" fill="black" /></g></svg>