<?xml version='1.0' encoding='utf-8'?>
<svg xmlns="http://www.w3.org/2000/svg" version="1.1" viewBox="0 0 1024 1024"><g transform="scale(1, -1) translate(0, -900)"><path d="M 433 178 Q 443 188 448 202 Q 454 233 420 275 Q 392 317 454 386 Q 470 401 455 412 Q 439 424 413 434 Q 395 443 383 430 Q 367 415 344 404 Q 314 389 304 389 Q 298 390 297 386 Q 296 382 303 379 Q 328 369 377 388 Q 384 391 390 383 Q 406 368 393 344 Q 381 328 375 305 Q 372 289 385 272 Q 427 209 412 176 C 404 147 414 155 433 178 Z" fill="black" /></g></svg>