<?xml version='1.0' encoding='utf-8'?>
<svg xmlns="http://www.w3.org/2000/svg" version="1.1" viewBox="0 0 1024 1024"><g transform="scale(1, -1) translate(0, -900)"><path d="M 548 394 Q 554 395 560 397 Q 665 436 815 447 Q 830 446 836 437 Q 840 431 837 421 Q 833 244 819 219 Q 816 213 807 215 Q 788 218 768 222 Q 746 225 761 210 Q 807 170 826 141 Q 836 128 848 138 Q 878 168 880 308 Q 880 398 895 421 Q 905 437 901 442 Q 895 452 858 475 Q 845 485 833 481 Q 817 474 789 468 L 743 461 Q 712 457 686 453 L 660 449 Q 635 446 616 440 L 585 433 Q 558 429 537 424 C 508 418 519 385 548 394 Z" fill="black" /></g></svg>