<?xml version='1.0' encoding='utf-8'?>
<svg xmlns="http://www.w3.org/2000/svg" version="1.1" viewBox="0 0 1024 1024"><g transform="scale(1, -1) translate(0, -900)"><path d="M 261 376 Q 260 273 260 136 Q 260 112 247 102 Q 246 102 189 106 Q 156 119 159 109 Q 160 102 179 86 Q 234 37 246 10 Q 261 -21 275 -23 Q 290 -24 305 11 Q 323 57 322 130 Q 312 275 310 420 L 310 453 Q 310 516 312 576 L 313 632 Q 313 714 331 777 Q 347 808 292 829 Q 258 848 239 841 Q 221 834 237 811 Q 259 784 261 750 Q 262 734 263 614 L 263 563 Q 262 502 261 419 L 261 376 Z" fill="black" /></g></svg>