<?xml version='1.0' encoding='utf-8'?>
<svg xmlns="http://www.w3.org/2000/svg" version="1.1" viewBox="0 0 1024 1024"><g transform="scale(1, -1) translate(0, -900)"><path d="M 588 533 Q 575 543 554 554 Q 545 557 482 543 Q 478 543 473 540 L 435 531 Q 422 530 369 513 C 340 504 350 474 377 486 Q 383 493 504 519 Q 520 522 527 517 Q 537 505 535 494 Q 520 389 511 379 C 499 351 499 351 500 350 Q 513 334 525 327 Q 534 321 545 338 Q 555 357 576 458 Q 582 483 600 502 Q 610 512 600 523 L 588 533 Z" fill="black" /></g></svg>