<?xml version='1.0' encoding='utf-8'?>
<svg xmlns="http://www.w3.org/2000/svg" version="1.1" viewBox="0 0 1024 1024"><g transform="scale(1, -1) translate(0, -900)"><path d="M 271 342 Q 268 245 267 122 Q 266 98 252 89 Q 246 86 191 98 Q 161 111 163 101 Q 164 94 182 79 Q 236 30 249 2 Q 262 -29 277 -32 Q 290 -33 306 0 Q 325 43 325 114 Q 318 250 319 384 L 319 416 Q 319 477 322 539 L 324 591 Q 324 694 344 759 Q 360 787 308 809 Q 277 828 257 821 Q 241 815 255 793 Q 276 766 277 734 Q 278 716 276 574 L 275 524 Q 274 464 272 386 L 271 342 Z" fill="black" /></g></svg>