<?xml version='1.0' encoding='utf-8'?>
<svg xmlns="http://www.w3.org/2000/svg" version="1.1" viewBox="0 0 1024 1024"><g transform="scale(1, -1) translate(0, -900)"><path d="M 258 349 Q 257 250 255 122 Q 254 97 241 88 Q 234 85 172 98 Q 141 111 143 101 Q 144 94 163 79 Q 221 30 236 2 Q 252 -29 267 -32 Q 280 -33 296 0 Q 314 43 313 115 Q 306 251 304 386 L 304 418 Q 304 493 308 567 L 310 621 Q 310 697 329 759 Q 345 787 292 809 Q 261 827 241 821 Q 225 814 240 792 Q 259 767 261 734 Q 262 718 262 602 L 261 554 Q 260 487 259 390 L 258 349 Z" fill="black" /></g></svg>