<?xml version='1.0' encoding='utf-8'?>
<svg xmlns="http://www.w3.org/2000/svg" version="1.1" viewBox="0 0 1024 1024"><g transform="scale(1, -1) translate(0, -900)"><path d="M 635 147 Q 698 162 751 166 Q 772 167 776 161 Q 782 151 777 125 Q 767 55 749 23 Q 728 -8 699 -2 Q 677 2 659 9 Q 634 16 652 -6 Q 688 -43 705 -72 Q 718 -91 734 -79 Q 785 -52 824 73 Q 836 134 857 154 Q 870 166 865 177 Q 858 189 807 215 Q 788 225 767 213 Q 743 200 654 185 Q 651 185 651 184 L 594 174 Q 536 167 487 166 Q 469 166 466 157 Q 465 150 488 136 Q 512 120 532 125 Q 554 131 580 136 L 635 147 Z" fill="black" /></g></svg>