<?xml version='1.0' encoding='utf-8'?>
<svg xmlns="http://www.w3.org/2000/svg" version="1.1" viewBox="0 0 1024 1024"><g transform="scale(1, -1) translate(0, -900)"><path d="M 239 360 Q 236 257 235 123 Q 234 98 220 89 Q 213 85 192 91 Q 170 98 147 105 Q 117 118 119 109 Q 120 102 138 86 Q 198 34 213 4 Q 229 -30 245 -32 Q 258 -33 274 0 Q 293 43 293 114 Q 286 259 286 404 L 286 435 Q 287 496 290 555 L 292 611 Q 310 758 312 763 Q 328 791 276 813 Q 245 832 225 825 Q 209 819 223 797 Q 244 770 245 738 Q 246 722 244 592 L 244 541 Q 243 481 240 401 L 239 360 Z" fill="black" /></g></svg>