<?xml version='1.0' encoding='utf-8'?>
<svg xmlns="http://www.w3.org/2000/svg" version="1.1" viewBox="0 0 1024 1024"><g transform="scale(1, -1) translate(0, -900)"><path d="M 515 176 Q 521 71 501 32 Q 500 28 494 25 Q 481 21 388 40 Q 381 40 378 37 Q 377 33 385 25 Q 451 -24 487 -63 Q 499 -76 506 -73 Q 515 -73 531 -57 Q 567 -21 568 94 Q 567 130 564 180 L 561 217 Q 557 262 554 282 L 549 326 Q 542 362 539 364 Q 524 373 510 378 C 482 390 462 395 477 369 Q 492 347 498 312 L 505 273 Q 509 245 513 210 L 515 176 Z" fill="black" /></g></svg>