<?xml version='1.0' encoding='utf-8'?>
<svg xmlns="http://www.w3.org/2000/svg" version="1.1" viewBox="0 0 1024 1024"><g transform="scale(1, -1) translate(0, -900)"><path d="M 722 30 Q 732 5 753 -40 Q 760 -56 771 -56 Q 786 -53 795 -29 Q 820 20 836 165 Q 842 211 863 239 Q 879 258 868 270 Q 847 291 803 311 Q 785 321 754 309 Q 621 261 441 246 C 411 243 439 202 468 210 Q 472 214 569 231 L 604 239 Q 664 251 733 263 Q 761 267 774 256 Q 781 252 781 234 Q 780 149 764 66 Q 763 51 756 50 Q 755 50 750 50 C 729 29 720 36 722 30 Z" fill="black" /></g></svg>