<?xml version='1.0' encoding='utf-8'?>
<svg xmlns="http://www.w3.org/2000/svg" version="1.1" viewBox="0 0 1024 1024"><g transform="scale(1, -1) translate(0, -900)"><path d="M 258 334 Q 257 243 257 128 Q 256 106 244 96 Q 235 90 215 98 Q 190 105 168 110 Q 137 123 139 113 Q 140 106 159 91 Q 222 40 237 11 Q 256 -23 271 -24 Q 286 -25 300 8 Q 318 51 316 123 Q 307 252 306 380 L 306 414 Q 305 477 307 539 L 308 596 Q 308 674 325 735 Q 341 763 288 785 Q 255 803 237 796 Q 221 790 236 768 Q 257 743 258 709 Q 259 693 260 576 L 260 527 Q 259 466 258 380 L 258 334 Z" fill="black" /></g></svg>