<?xml version='1.0' encoding='utf-8'?>
<svg xmlns="http://www.w3.org/2000/svg" version="1.1" viewBox="0 0 1024 1024"><g transform="scale(1, -1) translate(0, -900)"><path d="M 257 370 Q 254 273 251 148 Q 250 126 237 116 Q 233 113 176 122 Q 145 135 147 125 Q 148 118 167 103 Q 221 55 234 29 Q 249 -2 263 -4 Q 276 -5 292 28 Q 310 71 310 142 Q 303 278 305 416 L 305 446 Q 305 501 309 558 L 312 614 Q 312 693 332 758 Q 348 786 296 809 Q 265 828 245 821 Q 229 815 243 793 Q 264 768 264 734 Q 265 718 263 597 L 262 546 Q 261 489 258 413 L 257 370 Z" fill="black" /></g></svg>