<?xml version='1.0' encoding='utf-8'?>
<svg xmlns="http://www.w3.org/2000/svg" version="1.1" viewBox="0 0 1024 1024"><g transform="scale(1, -1) translate(0, -900)"><path d="M 251 325 Q 250 231 249 108 Q 249 86 236 76 Q 232 73 176 82 Q 145 95 147 85 Q 148 78 167 63 Q 221 15 234 -11 Q 249 -42 263 -44 Q 276 -45 292 -12 Q 310 31 308 103 Q 299 236 299 368 L 299 396 Q 299 463 302 530 L 304 580 Q 308 664 321 707 Q 337 735 284 757 Q 253 775 233 768 Q 217 762 232 740 Q 251 715 254 682 Q 255 667 254 564 L 254 517 Q 253 454 252 365 L 251 325 Z" fill="black" /></g></svg>