<?xml version='1.0' encoding='utf-8'?>
<svg xmlns="http://www.w3.org/2000/svg" version="1.1" viewBox="0 0 1024 1024"><g transform="scale(1, -1) translate(0, -900)"><path d="M 703 467 Q 704 471 709 474 Q 734 502 749 546 Q 756 571 771 584 Q 784 594 770 607 Q 755 620 731 631 Q 715 637 699 629 Q 656 607 596 598 Q 575 597 567 591 Q 560 585 574 578 Q 590 569 693 595 Q 706 599 707 584 Q 707 536 669 488 L 643 465 Q 610 444 544 427 Q 532 424 539 418 Q 545 414 566 414 Q 620 420 651 432 Q 661 436 672 442 C 689 450 689 450 703 467 Z" fill="black" /></g></svg>