<?xml version='1.0' encoding='utf-8'?>
<svg xmlns="http://www.w3.org/2000/svg" version="1.1" viewBox="0 0 1024 1024"><g transform="scale(1, -1) translate(0, -900)"><path d="M 464 434 Q 416 427 374 414 L 339 405 Q 293 395 255 379 Q 242 376 246 390 Q 252 426 246 437 Q 237 449 215 462 C 190 478 189 478 195 456 Q 195 453 197 447 Q 218 393 190 363 Q 177 350 183 339 Q 192 327 205 319 Q 215 313 223 320 Q 256 362 419 398 Q 455 407 466 404 Q 470 405 474 407 C 503 413 494 439 464 434 Z" fill="black" /></g></svg>