<?xml version='1.0' encoding='utf-8'?>
<svg xmlns="http://www.w3.org/2000/svg" version="1.1" viewBox="0 0 1024 1024"><g transform="scale(1, -1) translate(0, -900)"><path d="M 502 184 Q 506 85 488 51 Q 487 47 481 44 Q 469 41 384 56 Q 377 56 374 53 Q 373 49 381 41 Q 442 -11 474 -49 Q 486 -62 493 -60 Q 502 -60 518 -44 Q 555 -13 556 72 Q 556 112 554 188 L 551 227 Q 548 270 546 289 L 542 334 Q 542 364 529 373 Q 516 382 503 387 C 476 400 449 402 466 377 Q 481 361 487 320 L 494 281 Q 497 254 500 221 L 502 184 Z" fill="black" /></g></svg>