<?xml version='1.0' encoding='utf-8'?>
<svg xmlns="http://www.w3.org/2000/svg" version="1.1" viewBox="0 0 1024 1024"><g transform="scale(1, -1) translate(0, -900)"><path d="M 591 655 Q 754 694 798 689 Q 813 686 811 678 Q 811 677 782 616 Q 773 603 779 600 Q 786 597 802 606 Q 850 636 889 644 Q 920 651 921 660 Q 918 669 858 716 Q 840 731 818 729 Q 764 719 698 706 Q 664 700 623 692 L 587 685 Q 574 685 448 658 C 419 652 439 623 469 625 Q 478 624 490 627 Q 524 640 561 648 L 591 655 Z" fill="black" /></g></svg>