<?xml version='1.0' encoding='utf-8'?>
<svg xmlns="http://www.w3.org/2000/svg" version="1.1" viewBox="0 0 1024 1024"><g transform="scale(1, -1) translate(0, -900)"><path d="M 669 149 Q 662 149 652 147 Q 594 137 561 133 Q 554 134 553 138 Q 552 142 605 240 L 621 270 Q 622 274 625 277 Q 644 296 626 311 Q 613 324 599 330 C 573 344 544 347 560 322 Q 576 306 568 263 L 560 231 Q 526 143 507 133 Q 488 123 484 110 Q 481 85 488 76 Q 495 63 506 73 Q 518 91 660 125 Q 672 128 681 131 C 710 140 699 152 669 149 Z" fill="black" /></g></svg>