<?xml version='1.0' encoding='utf-8'?>
<svg xmlns="http://www.w3.org/2000/svg" version="1.1" viewBox="0 0 1024 1024"><g transform="scale(1, -1) translate(0, -900)"><path d="M 605 240 Q 786 270 805 250 Q 812 243 809 231 Q 802 63 790 39 Q 787 33 778 36 Q 753 42 726 49 Q 701 53 718 37 Q 773 -12 796 -48 Q 806 -61 818 -52 Q 834 -37 842 -13 Q 852 12 857 152 Q 857 204 874 229 Q 887 248 882 255 Q 875 267 829 295 Q 813 308 798 302 Q 773 292 725 284 Q 667 278 621 270 L 568 263 Q 492 248 414 233 C 385 227 396 189 425 195 Q 435 195 446 199 Q 486 215 560 231 L 605 240 Z" fill="black" /></g></svg>