<?xml version='1.0' encoding='utf-8'?>
<svg xmlns="http://www.w3.org/2000/svg" version="1.1" viewBox="0 0 1024 1024"><g transform="scale(1, -1) translate(0, -900)"><path d="M 679 265 Q 640 322 585 345 C 558 358 543 348 566 329 Q 567 326 574 322 Q 575 321 578 319 L 619 283 Q 628 273 636 261 L 662 202 Q 674 147 652 67 Q 642 36 633 32 Q 627 28 551 35 Q 538 39 536 32 Q 535 25 547 13 Q 598 -30 619 -58 Q 632 -74 645 -71 Q 663 -67 678 -43 Q 721 32 714 155 Q 705 204 703 209 L 679 265 Z" fill="black" /></g></svg>