<?xml version='1.0' encoding='utf-8'?>
<svg xmlns="http://www.w3.org/2000/svg" version="1.1" viewBox="0 0 1024 1024"><g transform="scale(1, -1) translate(0, -900)"><path d="M 267 343 Q 266 246 264 122 Q 263 98 251 89 Q 247 86 175 100 Q 144 110 147 101 Q 148 94 167 81 Q 228 35 244 7 Q 263 -24 278 -25 Q 291 -26 304 6 Q 320 48 319 115 Q 312 247 311 378 L 311 411 Q 311 481 315 548 L 317 600 Q 317 678 335 741 Q 351 769 300 789 Q 269 807 251 800 Q 235 794 250 773 Q 269 748 270 717 Q 271 701 271 580 L 270 535 Q 269 474 268 388 L 267 343 Z" fill="black" /></g></svg>