<?xml version='1.0' encoding='utf-8'?>
<svg xmlns="http://www.w3.org/2000/svg" version="1.1" viewBox="0 0 1024 1024"><g transform="scale(1, -1) translate(0, -900)"><path d="M 253 343 Q 252 249 250 129 Q 249 105 237 97 Q 231 93 177 96 Q 144 106 147 97 Q 148 90 169 75 Q 224 30 237 4 Q 253 -26 267 -27 Q 282 -28 296 7 Q 312 53 311 126 Q 304 256 302 385 L 302 414 Q 302 475 305 533 L 306 587 Q 324 743 326 745 Q 344 775 288 797 Q 254 816 235 809 Q 217 803 233 780 Q 255 752 256 719 Q 257 703 256 568 L 256 520 Q 255 462 253 382 L 253 343 Z" fill="black" /></g></svg>