<?xml version='1.0' encoding='utf-8'?>
<svg xmlns="http://www.w3.org/2000/svg" version="1.1" viewBox="0 0 1024 1024"><g transform="scale(1, -1) translate(0, -900)"><path d="M 700 319 Q 715 297 729 290 Q 738 283 752 302 Q 762 318 785 404 Q 792 432 813 453 Q 825 463 815 476 Q 802 492 764 514 Q 749 521 695 509 Q 656 509 477 470 C 448 464 458 433 487 441 Q 523 451 576 460 L 605 465 Q 642 472 692 478 Q 720 482 730 472 Q 739 462 737 452 Q 722 359 709 345 C 697 323 697 323 700 319 Z" fill="black" /></g></svg>