<?xml version='1.0' encoding='utf-8'?>
<svg xmlns="http://www.w3.org/2000/svg" version="1.1" viewBox="0 0 1024 1024"><g transform="scale(1, -1) translate(0, -900)"><path d="M 415 495 Q 445 510 471 517 Q 478 518 481 517 Q 487 510 488 491 Q 491 439 482 414 Q 473 392 455 394 Q 445 395 435 397 Q 417 403 430 385 Q 454 358 464 338 Q 476 326 486 337 Q 523 368 531 481 Q 532 509 542 523 Q 549 533 544 540 Q 537 547 498 559 Q 483 563 471 552 Q 428 522 352 504 Q 339 503 339 495 Q 338 491 356 484 Q 374 477 387 483 Q 391 486 397 487 L 415 495 Z" fill="black" /></g></svg>