<?xml version='1.0' encoding='utf-8'?>
<svg xmlns="http://www.w3.org/2000/svg" version="1.1" viewBox="0 0 1024 1024"><g transform="scale(1, -1) translate(0, -900)"><path d="M 258 359 Q 257 265 255 143 Q 255 119 242 111 Q 239 108 180 112 Q 149 122 151 113 Q 152 106 172 92 Q 227 49 241 23 Q 257 -7 271 -8 Q 284 -9 298 25 Q 314 68 313 138 Q 306 268 305 397 L 305 429 Q 305 496 308 561 L 310 618 Q 310 697 329 759 Q 345 787 292 809 Q 261 827 241 821 Q 225 814 240 792 Q 259 767 261 734 Q 262 718 262 598 L 261 548 Q 260 487 259 403 L 258 359 Z" fill="black" /></g></svg>