<?xml version='1.0' encoding='utf-8'?>
<svg xmlns="http://www.w3.org/2000/svg" version="1.1" viewBox="0 0 1024 1024"><g transform="scale(1, -1) translate(0, -900)"><path d="M 717 551 Q 708 558 685 563 Q 675 564 671 561 Q 667 557 674 545 Q 719 482 675 410 Q 669 401 660 390 Q 653 383 657 369 Q 661 350 671 342 Q 678 336 688 345 Q 712 376 784 438 Q 794 445 796 451 Q 797 455 793 454 Q 789 454 734 428 Q 730 427 728 428 Q 727 429 726 434 Q 725 521 726 531 Q 726 534 726 536 C 726 546 726 546 717 551 Z" fill="black" /></g></svg>