<?xml version='1.0' encoding='utf-8'?>
<svg xmlns="http://www.w3.org/2000/svg" version="1.1" viewBox="0 0 1024 1024"><g transform="scale(1, -1) translate(0, -900)"><path d="M 244 344 Q 243 202 242 149 Q 241 125 229 118 Q 227 118 225 117 L 182 124 Q 161 136 156 133 Q 155 132 155 129 Q 156 122 172 108 Q 218 58 227 32 Q 237 2 250 -1 Q 263 -2 276 24 Q 298 69 300 139 Q 293 261 291 382 L 291 414 L 292 519 Q 292 533 292 539 L 294 592 Q 294 706 312 768 Q 323 786 304 802 L 290 809 L 276 815 Q 248 831 231 827 Q 216 825 220 811 L 225 802 Q 245 775 248 744 L 248 575 L 247 525 Q 245 426 245 388 L 244 344 Z" fill="black" /></g></svg>