<?xml version='1.0' encoding='utf-8'?>
<svg xmlns="http://www.w3.org/2000/svg" version="1.1" viewBox="0 0 1024 1024"><g transform="scale(1, -1) translate(0, -900)"><path d="M 631 443 Q 778 576 787 579 Q 800 583 801 592 Q 800 599 790 605 Q 765 623 741 628 Q 728 631 720 617 Q 711 589 627 493 L 600 466 Q 578 447 555 423 L 530 401 Q 518 392 507 381 Q 446 326 354 267 Q 348 264 350 261 Q 350 258 357 259 Q 406 272 431 288 Q 483 319 535 361 L 582 399 Q 595 414 599 414 L 631 443 Z" fill="black" /></g></svg>