<?xml version='1.0' encoding='utf-8'?>
<svg xmlns="http://www.w3.org/2000/svg" version="1.1" viewBox="0 0 1024 1024"><g transform="scale(1, -1) translate(0, -900)"><path d="M 267 335 Q 266 241 265 121 Q 264 96 251 87 Q 242 81 189 94 Q 156 107 159 97 Q 160 90 179 74 Q 234 23 248 -4 Q 264 -37 278 -39 Q 293 -40 308 -5 Q 327 40 326 114 Q 319 246 316 376 L 316 408 Q 316 477 318 545 L 319 599 Q 328 738 339 773 Q 355 803 300 825 Q 266 844 247 837 Q 229 830 246 807 Q 267 780 268 746 Q 269 728 269 581 L 269 532 Q 268 466 267 377 L 267 335 Z" fill="black" /></g></svg>