<?xml version='1.0' encoding='utf-8'?>
<svg xmlns="http://www.w3.org/2000/svg" version="1.1" viewBox="0 0 1024 1024"><g transform="scale(1, -1) translate(0, -900)"><path d="M 244 384 Q 243 275 240 127 Q 239 103 226 94 Q 220 91 162 103 Q 134 115 135 105 Q 136 98 154 84 Q 209 38 222 11 Q 237 -20 251 -21 Q 264 -22 278 10 Q 296 52 295 119 Q 286 270 287 420 L 287 446 Q 287 501 290 557 L 292 603 Q 307 739 311 753 Q 327 781 276 801 Q 245 819 227 812 Q 211 806 226 785 Q 245 760 246 729 Q 247 713 247 592 L 246 543 Q 245 491 244 420 L 244 384 Z" fill="black" /></g></svg>