<?xml version='1.0' encoding='utf-8'?>
<svg xmlns="http://www.w3.org/2000/svg" version="1.1" viewBox="0 0 1024 1024"><g transform="scale(1, -1) translate(0, -900)"><path d="M 397 666 Q 398 703 407 747 Q 410 760 401 769 Q 391 779 373 785 Q 363 789 357 784 Q 351 781 356 768 Q 366 738 364 709 Q 358 576 395 552 Q 404 548 419 541 Q 503 514 568 561 Q 581 571 574 590 Q 567 602 553 638 Q 554 650 549 653 Q 545 656 540 643 Q 506 589 484 583 Q 453 574 420 588 Q 408 594 405 601 Q 396 619 397 654 L 397 666 Z" fill="black" /></g></svg>