<?xml version='1.0' encoding='utf-8'?>
<svg xmlns="http://www.w3.org/2000/svg" version="1.1" viewBox="0 0 1024 1024"><g transform="scale(1, -1) translate(0, -900)"><path d="M 216 338 Q 215 256 214 152 Q 213 128 201 119 Q 197 116 150 125 Q 122 138 123 129 Q 124 122 141 107 Q 189 61 199 35 Q 211 5 224 3 Q 237 2 252 34 Q 270 74 271 143 Q 264 260 262 376 L 262 400 Q 261 458 263 515 L 264 564 Q 268 718 283 765 Q 299 793 248 813 Q 217 829 199 824 Q 183 818 198 797 Q 217 772 219 741 Q 220 722 219 550 L 218 503 Q 217 446 216 374 L 216 338 Z" fill="black" /></g></svg>