<?xml version='1.0' encoding='utf-8'?>
<svg xmlns="http://www.w3.org/2000/svg" version="1.1" viewBox="0 0 1024 1024"><g transform="scale(1, -1) translate(0, -900)"><path d="M 772 196 Q 790 169 805 162 Q 815 155 827 174 Q 837 192 859 285 Q 866 312 886 333 Q 896 343 887 356 Q 874 371 836 392 Q 821 398 754 382 Q 744 382 710 373 L 664 363 Q 651 362 638 358 Q 595 348 563 342 C 534 336 546 301 574 313 Q 574 314 576 315 Q 612 327 665 337 L 709 345 Q 782 366 803 352 Q 813 345 811 330 Q 796 227 783 216 C 772 196 772 196 772 196 Z" fill="black" /></g></svg>