<?xml version='1.0' encoding='utf-8'?>
<svg xmlns="http://www.w3.org/2000/svg" version="1.1" viewBox="0 0 1024 1024"><g transform="scale(1, -1) translate(0, -900)"><path d="M 249 379 Q 248 282 248 152 Q 247 130 235 121 Q 229 117 179 120 Q 148 130 151 121 Q 152 114 171 101 Q 223 59 235 36 Q 250 8 263 7 Q 276 6 289 38 Q 305 80 303 147 Q 294 282 294 416 L 294 444 Q 293 490 295 537 L 297 589 Q 306 724 315 753 Q 331 781 280 801 Q 249 817 231 812 Q 215 806 230 785 Q 249 760 251 729 Q 252 713 252 570 L 251 524 Q 250 476 250 415 L 249 379 Z" fill="black" /></g></svg>