<?xml version='1.0' encoding='utf-8'?>
<svg xmlns="http://www.w3.org/2000/svg" version="1.1" viewBox="0 0 1024 1024"><g transform="scale(1, -1) translate(0, -900)"><path d="M 840 231 Q 840 218 849 204 Q 862 177 870 178 Q 883 179 897 209 Q 910 233 909 252 Q 882 445 918 503 Q 927 516 920 526 Q 895 547 852 564 Q 839 568 818 561 Q 805 555 700 526 L 672 521 Q 665 521 656 519 C 626 515 639 488 669 492 Q 675 492 682 493 Q 755 514 809 524 Q 828 528 834 519 Q 847 503 848 443 Q 851 292 844 252 L 840 231 Z" fill="black" /></g></svg>