<?xml version='1.0' encoding='utf-8'?>
<svg xmlns="http://www.w3.org/2000/svg" version="1.1" viewBox="0 0 1024 1024"><g transform="scale(1, -1) translate(0, -900)"><path d="M 860 568 Q 875 102 850 63 Q 846 56 824 61 Q 805 62 783 64 Q 764 68 765 59 Q 817 17 845 -13 Q 860 -32 875 -36 Q 885 -40 892 -29 Q 932 22 928 76 Q 913 293 908 645 Q 907 703 920 730 Q 933 749 920 760 Q 898 779 861 794 Q 842 801 828 794 Q 783 769 699 756 C 669 751 692 722 722 727 Q 777 736 834 746 Q 838 745 842 740 Q 854 728 859 587 L 860 568 Z" fill="black" /></g></svg>