<?xml version='1.0' encoding='utf-8'?>
<svg xmlns="http://www.w3.org/2000/svg" version="1.1" viewBox="0 0 1024 1024"><g transform="scale(1, -1) translate(0, -900)"><path d="M 230 370 Q 229 286 228 180 Q 227 158 215 149 Q 206 143 147 156 Q 116 166 119 157 Q 120 150 139 137 Q 196 92 211 66 Q 227 36 242 35 Q 255 34 268 66 Q 284 108 283 175 Q 276 293 276 409 L 276 438 Q 276 505 279 572 L 280 624 Q 296 763 299 769 Q 315 797 264 817 Q 233 835 216 828 Q 200 822 214 801 Q 233 776 234 745 Q 235 729 234 608 L 234 559 Q 233 496 231 411 L 230 370 Z" fill="black" /></g></svg>