<?xml version='1.0' encoding='utf-8'?>
<svg xmlns="http://www.w3.org/2000/svg" version="1.1" viewBox="0 0 1024 1024"><g transform="scale(1, -1) translate(0, -900)"><path d="M 746 594 Q 752 597 822 624 Q 825 625 835 621 Q 845 614 838 592 Q 817 514 799 483 Q 795 473 795 465 Q 795 453 814 443 Q 896 404 905 312 Q 905 281 891 262 Q 881 255 860 258 Q 829 264 802 267 Q 795 268 795 261 Q 796 254 811 244 Q 866 207 877 183 Q 884 170 896 169 Q 906 168 920 178 Q 957 230 961 292 Q 964 383 855 453 Q 816 474 878 555 Q 887 585 923 606 Q 950 622 926 640 Q 889 668 867 677 Q 851 683 836 673 Q 820 658 735 623 C 707 611 718 583 746 594 Z" fill="black" /></g></svg>