<?xml version='1.0' encoding='utf-8'?>
<svg xmlns="http://www.w3.org/2000/svg" version="1.1" viewBox="0 0 1024 1024"><g transform="scale(1, -1) translate(0, -900)"><path d="M 234 362 Q 231 266 229 143 Q 228 121 215 111 Q 206 107 140 119 Q 109 131 111 121 Q 112 114 132 100 Q 193 52 209 25 Q 227 -6 242 -8 Q 255 -9 270 24 Q 288 67 286 138 Q 280 270 282 400 L 283 434 Q 284 504 289 573 L 292 626 Q 298 711 312 754 Q 328 782 276 805 Q 245 824 226 817 Q 208 811 223 789 Q 242 764 244 730 Q 245 715 243 606 L 241 559 Q 238 496 236 407 L 234 362 Z" fill="black" /></g></svg>