<?xml version='1.0' encoding='utf-8'?>
<svg xmlns="http://www.w3.org/2000/svg" version="1.1" viewBox="0 0 1024 1024"><g transform="scale(1, -1) translate(0, -900)"><path d="M 231 363 Q 230 269 227 146 Q 226 124 214 114 Q 210 113 146 126 Q 118 139 119 129 Q 120 122 138 108 Q 193 59 208 32 Q 224 1 238 -1 Q 251 -2 266 30 Q 282 70 283 139 Q 276 272 276 405 L 276 438 Q 276 493 278 547 L 280 597 Q 290 729 299 753 Q 315 781 264 801 Q 233 819 215 812 Q 199 806 214 785 Q 233 760 234 729 Q 235 713 234 581 L 234 533 Q 233 478 231 406 L 231 363 Z" fill="black" /></g></svg>