<?xml version='1.0' encoding='utf-8'?>
<svg xmlns="http://www.w3.org/2000/svg" version="1.1" viewBox="0 0 1024 1024"><g transform="scale(1, -1) translate(0, -900)"><path d="M 551 493 Q 561 477 573 471 Q 580 464 593 481 Q 603 496 623 570 L 634 608 Q 641 624 654 636 Q 664 646 656 657 Q 644 670 611 690 Q 602 694 540 683 Q 531 683 518 678 L 478 669 Q 441 666 386 650 C 357 642 376 613 404 625 Q 410 632 478 642 L 516 650 Q 567 665 582 654 Q 592 647 589 632 Q 585 613 581 595 L 574 565 Q 567 537 564 528 Q 561 519 548 516 C 538 511 538 511 551 493 Z" fill="black" /></g></svg>