<?xml version='1.0' encoding='utf-8'?>
<svg xmlns="http://www.w3.org/2000/svg" version="1.1" viewBox="0 0 1024 1024"><g transform="scale(1, -1) translate(0, -900)"><path d="M 259 352 Q 258 255 257 132 Q 256 107 243 98 Q 237 95 187 108 Q 157 123 158 113 Q 159 106 177 90 Q 228 38 240 11 Q 253 -20 267 -24 Q 280 -25 296 8 Q 315 51 316 123 Q 309 256 307 388 L 307 417 Q 306 477 308 535 L 309 591 Q 315 735 329 775 Q 345 803 292 825 Q 259 843 241 836 Q 225 830 240 808 Q 259 783 262 749 Q 263 730 262 571 L 262 521 Q 261 464 260 391 L 259 352 Z" fill="black" /></g></svg>