<?xml version='1.0' encoding='utf-8'?>
<svg xmlns="http://www.w3.org/2000/svg" version="1.1" viewBox="0 0 1024 1024"><g transform="scale(1, -1) translate(0, -900)"><path d="M 287 410 Q 286 462 287 514 L 288 570 Q 288 693 305 755 Q 321 785 268 805 Q 235 823 217 816 Q 201 809 216 788 Q 237 763 238 729 Q 241 710 241 552 L 241 501 Q 241 444 241 372 L 241 331 Q 241 237 241 118 Q 241 93 228 84 Q 221 78 164 91 Q 133 103 135 93 Q 136 86 155 71 Q 212 23 226 -3 Q 242 -34 256 -36 Q 269 -37 284 -3 Q 300 40 299 111 Q 289 243 287 374 L 287 410 Z" fill="black" /></g></svg>