<?xml version='1.0' encoding='utf-8'?>
<svg xmlns="http://www.w3.org/2000/svg" version="1.1" viewBox="0 0 1024 1024"><g transform="scale(1, -1) translate(0, -900)"><path d="M 697 247 Q 700 287 707 330 Q 711 346 700 355 Q 688 367 667 374 Q 655 378 648 373 Q 642 369 647 353 Q 660 319 658 285 Q 654 149 665 111 Q 669 92 688 75 Q 769 17 903 53 Q 934 63 965 87 Q 984 103 969 129 Q 956 148 934 210 Q 933 226 925 230 Q 918 233 915 215 Q 891 145 876 124 Q 869 114 842 106 Q 782 91 733 109 Q 714 118 708 130 Q 692 161 696 231 L 697 247 Z" fill="black" /></g></svg>