<?xml version='1.0' encoding='utf-8'?>
<svg xmlns="http://www.w3.org/2000/svg" version="1.1" viewBox="0 0 1024 1024"><g transform="scale(1, -1) translate(0, -900)"><path d="M 749 645 Q 749 644 750 640 Q 751 625 763 624 Q 781 624 813 669 Q 834 712 870 735 Q 889 747 876 762 Q 863 780 821 809 Q 809 818 734 806 Q 695 806 558 781 Q 474 766 410 766 C 380 765 433 730 463 733 Q 470 732 478 734 Q 503 741 539 749 L 558 752 Q 603 762 664 769 L 703 773 Q 769 788 792 775 Q 796 771 791 752 Q 776 715 753 666 L 749 645 Z" fill="black" /></g></svg>