<?xml version='1.0' encoding='utf-8'?>
<svg xmlns="http://www.w3.org/2000/svg" version="1.1" viewBox="0 0 1024 1024"><g transform="scale(1, -1) translate(0, -900)"><path d="M 248 301 Q 248 219 248 116 Q 247 92 234 83 Q 230 80 177 89 Q 144 102 147 93 Q 148 86 167 70 Q 221 19 233 -8 Q 246 -41 261 -43 Q 276 -44 291 -9 Q 310 36 310 110 Q 303 228 299 347 L 299 383 Q 298 447 299 511 L 300 561 Q 309 705 319 737 Q 335 768 280 789 Q 246 808 227 801 Q 209 794 226 771 Q 247 744 249 710 Q 250 692 250 540 L 250 497 Q 249 433 249 349 L 248 301 Z" fill="black" /></g></svg>