<?xml version='1.0' encoding='utf-8'?>
<svg xmlns="http://www.w3.org/2000/svg" version="1.1" viewBox="0 0 1024 1024"><g transform="scale(1, -1) translate(0, -900)"><path d="M 699 -15 Q 721 -45 736 -73 Q 743 -89 753 -88 Q 766 -88 781 -60 Q 797 -27 793 51 Q 784 181 802 207 Q 811 217 803 226 Q 787 242 742 264 Q 727 271 714 264 Q 647 233 531 218 C 501 214 506 185 536 190 Q 542 190 700 220 Q 721 224 732 216 Q 745 207 739 65 Q 738 28 735 16 Q 731 1 716 7 C 687 2 687 2 699 -15 Z" fill="black" /></g></svg>