<?xml version='1.0' encoding='utf-8'?>
<svg xmlns="http://www.w3.org/2000/svg" version="1.1" viewBox="0 0 1024 1024"><g transform="scale(1, -1) translate(0, -900)"><path d="M 563 492 Q 514 483 462 467 Q 458 466 456 467 Q 455 468 459 474 Q 525 543 539 554 Q 549 560 545 570 Q 541 580 507 600 Q 495 607 488 605 Q 478 601 481 586 Q 490 531 402 468 Q 396 465 392 462 Q 382 453 383 445 Q 387 432 404 416 Q 411 409 422 416 Q 467 449 565 474 Q 566 475 571 476 C 600 485 592 498 563 492 Z" fill="black" /></g></svg>