<?xml version='1.0' encoding='utf-8'?>
<svg xmlns="http://www.w3.org/2000/svg" version="1.1" viewBox="0 0 1024 1024"><g transform="scale(1, -1) translate(0, -900)"><path d="M 623 570 Q 639 571 661 573 Q 676 573 689 574 Q 701 575 703 580 Q 706 587 696 595 Q 662 619 640 610 Q 636 610 634 608 L 581 595 Q 550 589 516 580 L 480 573 Q 449 569 419 561 L 386 554 Q 361 551 338 546 Q 326 545 336 534 Q 345 527 356 524 Q 357 524 393 529 L 425 539 Q 450 546 480 550 L 515 557 Q 540 563 574 565 L 623 570 Z" fill="black" /></g></svg>