<?xml version='1.0' encoding='utf-8'?>
<svg xmlns="http://www.w3.org/2000/svg" version="1.1" viewBox="0 0 1024 1024"><g transform="scale(1, -1) translate(0, -900)"><path d="M 451 144 Q 464 157 470 173 Q 479 198 472 222 Q 465 241 438 273 Q 428 289 431 304 Q 435 320 455 357 Q 476 387 494 404 Q 512 419 496 431 Q 480 444 451 456 Q 433 466 419 453 Q 373 408 339 406 Q 333 406 332 402 Q 331 398 338 394 Q 365 384 415 409 Q 419 413 426 409 Q 445 387 422 357 Q 404 338 392 309 Q 386 291 400 270 Q 436 209 429 158 Q 428 155 427 149 C 421 120 431 121 451 144 Z" fill="black" /></g></svg>