<?xml version='1.0' encoding='utf-8'?>
<svg xmlns="http://www.w3.org/2000/svg" version="1.1" viewBox="0 0 1024 1024"><g transform="scale(1, -1) translate(0, -900)"><path d="M 746 420 Q 746 414 748 407 Q 752 392 763 392 Q 776 393 784 406 Q 797 422 826 508 Q 842 554 876 579 Q 892 592 879 607 Q 864 622 821 647 Q 803 659 752 641 Q 719 638 664 623 L 633 616 Q 603 612 578 603 Q 523 588 483 580 C 454 574 469 542 498 551 Q 504 552 508 553 Q 545 569 612 584 L 644 591 Q 773 624 793 613 Q 802 606 794 576 Q 766 471 753 443 L 746 420 Z" fill="black" /></g></svg>