<?xml version='1.0' encoding='utf-8'?>
<svg xmlns="http://www.w3.org/2000/svg" version="1.1" viewBox="0 0 1024 1024"><g transform="scale(1, -1) translate(0, -900)"><path d="M 719 223 Q 734 198 749 190 Q 758 183 772 201 Q 784 219 811 316 Q 818 343 840 364 Q 852 374 842 387 Q 829 402 792 426 Q 777 433 715 419 Q 691 418 641 407 L 595 399 Q 571 398 482 379 C 453 373 467 343 496 351 Q 536 363 595 372 L 640 379 Q 737 400 758 385 Q 768 378 765 362 Q 744 253 729 244 C 717 226 717 226 719 223 Z" fill="black" /></g></svg>