<?xml version='1.0' encoding='utf-8'?>
<svg xmlns="http://www.w3.org/2000/svg" version="1.1" viewBox="0 0 1024 1024"><g transform="scale(1, -1) translate(0, -900)"><path d="M 502 602 L 508 622 L 515 654 Q 519 678 523 706 L 527 742 Q 527 743 528 746 Q 532 759 533 768 Q 537 781 524 789 Q 491 808 481 806 Q 468 805 477 789 Q 489 768 485 729 L 483 697 Q 482 684 480 664 Q 479 654 476 642 L 467 610 Q 437 538 390 498 Q 380 489 377 485 Q 376 481 384 480 Q 408 480 451 519 Q 478 544 497 588 L 502 602 Z" fill="black" /></g></svg>