<?xml version='1.0' encoding='utf-8'?>
<svg xmlns="http://www.w3.org/2000/svg" version="1.1" viewBox="0 0 1024 1024"><g transform="scale(1, -1) translate(0, -900)"><path d="M 255 352 Q 254 255 252 130 Q 252 106 239 97 Q 230 91 171 104 Q 140 114 143 105 Q 144 98 163 85 Q 220 40 235 14 Q 251 -16 266 -17 Q 279 -18 292 14 Q 308 56 307 123 Q 300 256 299 390 L 299 421 Q 299 485 302 546 L 304 600 Q 304 694 323 761 Q 339 789 288 809 Q 257 827 239 820 Q 223 814 238 793 Q 257 768 258 737 Q 259 721 259 584 L 258 535 Q 257 474 255 393 L 255 352 Z" fill="black" /></g></svg>