<?xml version='1.0' encoding='utf-8'?>
<svg xmlns="http://www.w3.org/2000/svg" version="1.1" viewBox="0 0 1024 1024"><g transform="scale(1, -1) translate(0, -900)"><path d="M 687 624 Q 677 603 642 568 Q 632 558 628 554 Q 627 548 636 548 Q 661 548 697 583 Q 716 604 733 635 L 745 673 Q 745 674 746 677 Q 750 699 754 727 L 758 765 Q 758 766 759 769 Q 763 784 764 793 Q 768 808 754 816 Q 717 835 706 834 Q 691 831 702 814 Q 711 799 712 750 L 711 717 Q 711 698 701 661 L 687 624 Z" fill="black" /></g></svg>