<?xml version='1.0' encoding='utf-8'?>
<svg xmlns="http://www.w3.org/2000/svg" version="1.1" viewBox="0 0 1024 1024"><g transform="scale(1, -1) translate(0, -900)"><path d="M 634 663 Q 757 690 798 686 Q 814 677 812 670 Q 812 667 808 656 Q 798 634 789 608 Q 783 596 789 593 Q 795 589 809 600 Q 855 631 892 643 Q 923 653 923 661 Q 922 670 858 714 Q 837 729 749 711 Q 701 707 635 691 L 592 684 Q 558 680 519 671 Q 477 665 432 657 C 402 652 411 637 440 631 Q 453 624 495 631 Q 532 643 594 656 L 634 663 Z" fill="black" /></g></svg>