<?xml version='1.0' encoding='utf-8'?>
<svg xmlns="http://www.w3.org/2000/svg" version="1.1" viewBox="0 0 1024 1024"><g transform="scale(1, -1) translate(0, -900)"><path d="M 211 346 Q 210 252 208 133 Q 207 109 195 101 Q 192 101 135 104 Q 104 114 107 105 Q 108 98 127 85 Q 179 42 193 17 Q 209 -11 222 -13 Q 235 -14 248 18 Q 264 60 263 127 Q 256 257 256 388 L 256 425 Q 256 492 259 558 L 261 607 Q 261 673 279 737 Q 295 765 244 785 Q 213 803 195 796 Q 179 790 194 769 Q 213 744 214 713 Q 215 698 215 587 L 214 545 Q 213 482 212 395 L 211 346 Z" fill="black" /></g></svg>