<?xml version='1.0' encoding='utf-8'?>
<svg xmlns="http://www.w3.org/2000/svg" version="1.1" viewBox="0 0 1024 1024"><g transform="scale(1, -1) translate(0, -900)"><path d="M 690 230 Q 693 217 703 216 Q 721 219 752 278 Q 768 318 799 339 Q 815 349 803 363 Q 790 378 753 402 Q 743 409 675 398 Q 660 398 618 388 L 587 383 Q 568 382 549 376 Q 503 367 467 362 C 437 358 457 329 486 335 Q 489 335 493 336 Q 526 346 587 357 L 617 362 Q 651 369 694 374 Q 719 375 727 371 Q 733 367 727 347 Q 703 272 693 254 C 685 238 685 238 690 230 Z" fill="black" /></g></svg>