<?xml version='1.0' encoding='utf-8'?>
<svg xmlns="http://www.w3.org/2000/svg" version="1.1" viewBox="0 0 1024 1024"><g transform="scale(1, -1) translate(0, -900)"><path d="M 833 528 Q 849 78 826 37 Q 822 31 802 35 Q 772 41 743 47 Q 724 53 725 43 Q 786 -6 820 -40 Q 833 -59 850 -63 Q 859 -67 867 -57 Q 906 -8 904 48 Q 880 366 880 651 Q 880 687 891 706 Q 903 725 891 736 Q 869 754 832 768 Q 813 775 768 751 Q 720 735 679 726 C 650 719 664 691 693 697 Q 717 700 788 721 Q 804 725 814 715 Q 826 703 832 552 L 833 528 Z" fill="black" /></g></svg>