<?xml version='1.0' encoding='utf-8'?>
<svg xmlns="http://www.w3.org/2000/svg" version="1.1" viewBox="0 0 1024 1024"><g transform="scale(1, -1) translate(0, -900)"><path d="M 284 461 Q 284 531 288 599 L 291 650 Q 295 732 310 776 Q 326 807 272 829 Q 238 848 219 841 Q 201 835 217 812 Q 239 785 239 751 Q 240 736 239 629 L 239 585 Q 238 522 235 432 L 234 386 Q 233 286 230 155 Q 229 131 216 123 Q 207 117 153 130 Q 120 143 123 133 Q 124 126 143 110 Q 198 59 212 32 Q 228 -1 242 -3 Q 257 -4 272 31 Q 291 76 291 150 Q 284 288 284 425 L 284 461 Z" fill="black" /></g></svg>