<?xml version='1.0' encoding='utf-8'?>
<svg xmlns="http://www.w3.org/2000/svg" version="1.1" viewBox="0 0 1024 1024"><g transform="scale(1, -1) translate(0, -900)"><path d="M 690 356 Q 690 350 693 344 Q 697 332 707 333 Q 717 334 724 346 Q 736 362 755 439 Q 768 479 798 503 Q 814 516 801 528 Q 788 541 748 563 Q 735 572 654 554 Q 633 550 620 547 Q 608 548 606 544 Q 603 540 615 532 Q 634 522 668 526 Q 713 535 719 530 Q 728 524 723 497 Q 719 478 715 461 L 711 440 Q 701 400 696 381 L 690 356 Z" fill="black" /></g></svg>