<?xml version='1.0' encoding='utf-8'?>
<svg xmlns="http://www.w3.org/2000/svg" version="1.1" viewBox="0 0 1024 1024"><g transform="scale(1, -1) translate(0, -900)"><path d="M 293 383 Q 292 464 296 542 L 298 594 Q 298 673 317 735 Q 333 763 280 785 Q 249 803 229 797 Q 213 790 228 768 Q 247 743 249 710 Q 250 694 249 572 L 248 527 Q 247 455 246 353 L 245 304 Q 244 222 242 121 Q 241 97 228 89 Q 222 86 164 98 Q 133 111 135 101 Q 136 94 154 79 Q 211 30 224 2 Q 240 -29 254 -32 Q 269 -33 283 0 Q 301 43 301 114 Q 294 229 293 343 L 293 383 Z" fill="black" /></g></svg>