<?xml version='1.0' encoding='utf-8'?>
<svg xmlns="http://www.w3.org/2000/svg" version="1.1" viewBox="0 0 1024 1024"><g transform="scale(1, -1) translate(0, -900)"><path d="M 227 307 Q 226 216 225 102 Q 224 77 210 67 Q 204 63 137 66 Q 103 75 107 65 Q 108 58 130 45 Q 193 2 209 -24 Q 228 -54 244 -54 Q 257 -55 271 -20 Q 287 25 283 98 Q 276 222 275 345 L 275 381 Q 275 468 279 553 L 281 606 Q 296 745 302 764 Q 320 795 264 817 Q 230 836 211 829 Q 193 823 209 800 Q 231 773 232 739 Q 233 721 232 585 L 231 538 Q 230 462 228 354 L 227 307 Z" fill="black" /></g></svg>