<?xml version='1.0' encoding='utf-8'?>
<svg xmlns="http://www.w3.org/2000/svg" version="1.1" viewBox="0 0 1024 1024"><g transform="scale(1, -1) translate(0, -900)"><path d="M 643 59 Q 636 -2 640 -19 Q 641 -38 660 -56 Q 732 -116 893 -88 Q 896 -87 899 -87 Q 936 -80 973 -57 Q 991 -44 979 -21 Q 969 3 955 75 Q 955 90 949 94 Q 943 97 939 81 Q 912 5 896 -19 Q 883 -31 848 -38 Q 767 -53 709 -30 Q 687 -20 682 -6 Q 673 18 694 97 Q 700 124 660 143 Q 650 147 642 144 Q 636 141 639 125 Q 648 91 643 59 Z" fill="black" /></g></svg>