<?xml version='1.0' encoding='utf-8'?>
<svg xmlns="http://www.w3.org/2000/svg" version="1.1" viewBox="0 0 1024 1024"><g transform="scale(1, -1) translate(0, -900)"><path d="M 674 61 Q 705 98 735 153 Q 750 180 771 195 Q 790 208 779 223 Q 767 236 738 250 Q 719 259 632 230 Q 509 211 504 209 Q 491 209 485 202 Q 481 195 499 187 Q 535 172 583 186 Q 656 208 670 207 Q 688 204 682 185 Q 664 127 634 87 L 606 58 Q 545 4 417 -25 Q 404 -28 414 -37 Q 420 -41 461 -39 Q 513 -35 573 -10 Q 609 5 638 27 L 674 61 Z" fill="black" /></g></svg>