<?xml version='1.0' encoding='utf-8'?>
<svg xmlns="http://www.w3.org/2000/svg" version="1.1" viewBox="0 0 1024 1024"><g transform="scale(1, -1) translate(0, -900)"><path d="M 224 341 Q 221 253 220 137 Q 219 115 206 106 Q 203 103 155 107 Q 124 119 127 109 Q 128 102 146 88 Q 195 45 206 21 Q 219 -7 232 -9 Q 245 -10 259 22 Q 275 62 275 131 Q 269 258 270 385 L 270 412 Q 270 470 273 528 L 275 575 Q 288 708 295 724 Q 311 752 260 773 Q 229 791 212 784 Q 196 778 210 757 Q 229 732 230 701 Q 231 685 229 559 L 228 514 Q 227 457 225 382 L 224 341 Z" fill="black" /></g></svg>