<?xml version='1.0' encoding='utf-8'?>
<svg xmlns="http://www.w3.org/2000/svg" version="1.1" viewBox="0 0 1024 1024"><g transform="scale(1, -1) translate(0, -900)"><path d="M 247 332 Q 244 245 243 135 Q 242 111 230 103 Q 229 103 164 107 Q 133 119 135 109 Q 136 102 156 88 Q 213 42 227 16 Q 243 -15 258 -16 Q 271 -17 286 16 Q 302 59 301 130 Q 295 251 295 371 L 295 401 Q 295 461 298 519 L 300 573 Q 300 669 320 734 Q 336 762 284 785 Q 253 804 233 797 Q 217 791 231 769 Q 252 742 253 710 Q 254 694 252 553 L 251 505 Q 250 448 248 374 L 247 332 Z" fill="black" /></g></svg>