<?xml version='1.0' encoding='utf-8'?>
<svg xmlns="http://www.w3.org/2000/svg" version="1.1" viewBox="0 0 1024 1024"><g transform="scale(1, -1) translate(0, -900)"><path d="M 618 197 Q 614 193 618 179 Q 628 143 626 110 Q 616 -4 649 -36 Q 725 -100 879 -71 Q 885 -68 891 -68 Q 927 -58 962 -34 Q 981 -19 968 6 Q 955 31 936 106 Q 936 122 929 126 Q 923 129 919 112 Q 897 30 880 5 Q 852 -25 760 -20 Q 726 -19 699 -6 Q 675 6 670 21 Q 657 48 677 153 Q 683 178 640 199 Q 636 200 634 199 C 618 205 618 205 618 197 Z" fill="black" /></g></svg>