<?xml version='1.0' encoding='utf-8'?>
<svg xmlns="http://www.w3.org/2000/svg" version="1.1" viewBox="0 0 1024 1024"><g transform="scale(1, -1) translate(0, -900)"><path d="M 251 324 Q 250 240 249 137 Q 248 113 235 104 Q 229 100 155 113 Q 124 122 127 113 Q 128 106 148 94 Q 212 49 229 22 Q 248 -9 264 -9 Q 277 -10 290 22 Q 306 64 303 131 Q 296 246 295 362 L 295 393 Q 295 468 298 541 L 300 590 Q 300 686 319 753 Q 335 781 284 801 Q 253 819 235 812 Q 219 806 234 785 Q 253 760 254 729 Q 255 713 255 573 L 254 528 Q 253 459 252 365 L 251 324 Z" fill="black" /></g></svg>