<?xml version='1.0' encoding='utf-8'?>
<svg xmlns="http://www.w3.org/2000/svg" version="1.1" viewBox="0 0 1024 1024"><g transform="scale(1, -1) translate(0, -900)"><path d="M 429 742 Q 422 746 412 752 Q 399 759 393 755 Q 389 751 393 740 Q 423 680 397 492 Q 393 477 384 462 Q 377 452 384 437 Q 390 424 397 417 Q 404 413 416 421 Q 458 458 595 476 Q 611 477 611 486 Q 610 496 589 507 Q 579 514 557 507 Q 553 506 549 504 L 520 496 Q 486 492 445 477 Q 441 476 437 476 Q 434 477 434 485 Q 434 512 435 540 L 436 557 Q 436 588 438 620 L 439 640 Q 439 694 444 718 C 446 732 446 732 429 742 Z" fill="black" /></g></svg>