<?xml version='1.0' encoding='utf-8'?>
<svg xmlns="http://www.w3.org/2000/svg" version="1.1" viewBox="0 0 1024 1024"><g transform="scale(1, -1) translate(0, -900)"><path d="M 847 518 Q 856 505 865 499 Q 872 493 884 508 Q 891 517 910 570 Q 917 592 934 609 Q 944 618 936 628 Q 926 641 895 660 Q 886 664 829 653 Q 808 653 656 617 C 627 610 637 589 667 594 Q 671 594 676 595 Q 692 601 712 605 L 727 608 Q 748 615 775 619 L 796 623 Q 853 638 868 627 Q 874 623 872 614 Q 862 562 858 553 Q 854 546 847 543 C 835 533 835 533 847 518 Z" fill="black" /></g></svg>