<?xml version='1.0' encoding='utf-8'?>
<svg xmlns="http://www.w3.org/2000/svg" version="1.1" viewBox="0 0 1024 1024"><g transform="scale(1, -1) translate(0, -900)"><path d="M 534 183 Q 583 250 628 347 Q 644 380 667 399 Q 689 417 675 433 Q 662 448 626 462 Q 599 472 567 458 Q 542 448 510 437 L 466 423 Q 405 408 312 398 Q 296 397 290 388 Q 286 379 307 371 Q 350 355 409 373 Q 524 409 546 407 Q 568 406 564 382 Q 537 286 490 219 L 466 189 Q 367 81 158 33 Q 142 29 154 19 Q 163 13 223 16 Q 301 22 388 66 Q 455 97 506 150 L 534 183 Z" fill="black" /></g></svg>