<?xml version='1.0' encoding='utf-8'?>
<svg xmlns="http://www.w3.org/2000/svg" version="1.1" viewBox="0 0 1024 1024"><g transform="scale(1, -1) translate(0, -900)"><path d="M 621 604 Q 622 620 624 637 L 626 663 Q 627 685 629 706 L 631 728 Q 632 746 634 763 L 640 798 Q 644 808 646 817 Q 649 826 633 838 Q 605 853 587 856 Q 574 857 568 852 Q 562 845 569 834 Q 584 813 584 786 L 586 756 Q 586 740 587 720 L 588 699 Q 588 678 588 656 L 589 632 Q 589 617 589 600 C 589 570 619 574 621 604 Z" fill="black" /></g></svg>