<?xml version='1.0' encoding='utf-8'?>
<svg xmlns="http://www.w3.org/2000/svg" version="1.1" viewBox="0 0 1024 1024"><g transform="scale(1, -1) translate(0, -900)"><path d="M 330 380 Q 346 373 381 363 Q 408 356 416 341 Q 426 314 374 174 Q 349 111 322 101 Q 304 95 257 117 Q 223 132 218 126 Q 214 117 230 106 Q 267 82 290 34 Q 294 16 307 10 Q 320 6 351 25 Q 402 67 444 219 Q 463 295 486 311 Q 498 315 500 323 Q 501 333 481 358 Q 451 391 400 391 Q 387 394 366 401 Q 356 405 346 408 C 318 418 302 391 330 380 Z" fill="black" /></g></svg>