<?xml version='1.0' encoding='utf-8'?>
<svg xmlns="http://www.w3.org/2000/svg" version="1.1" viewBox="0 0 1024 1024"><g transform="scale(1, -1) translate(0, -900)"><path d="M 696 241 Q 729 325 743 415 Q 747 439 752 449 Q 759 456 753 466 Q 747 473 719 484 Q 715 485 713 487 C 686 499 651 502 668 477 Q 701 444 670 315 Q 669 312 668 309 Q 664 296 658 281 L 639 239 Q 596 170 515 121 Q 493 109 464 93 Q 440 80 469 81 Q 547 78 637 152 Q 647 165 660 179 Q 664 186 670 194 L 696 241 Z" fill="black" /></g></svg>