<?xml version='1.0' encoding='utf-8'?>
<svg xmlns="http://www.w3.org/2000/svg" version="1.1" viewBox="0 0 1024 1024"><g transform="scale(1, -1) translate(0, -900)"><path d="M 310 517 Q 309 378 306 135 Q 305 113 293 104 Q 283 98 262 105 Q 237 112 212 119 Q 181 131 183 121 Q 184 114 203 99 Q 269 48 285 19 Q 304 -15 320 -16 Q 333 -17 348 17 Q 366 60 364 131 Q 354 329 357 526 L 358 572 Q 373 719 377 727 Q 393 755 340 777 Q 309 795 289 788 Q 273 782 288 760 Q 307 735 310 702 Q 311 686 311 560 L 310 517 Z" fill="black" /></g></svg>