<?xml version='1.0' encoding='utf-8'?>
<svg xmlns="http://www.w3.org/2000/svg" version="1.1" viewBox="0 0 1024 1024"><g transform="scale(1, -1) translate(0, -900)"><path d="M 307 309 Q 307 186 283 96 Q 273 62 297 1 Q 304 -15 311 -19 Q 317 -25 324 -18 Q 331 -14 341 7 Q 350 29 349 59 Q 348 99 349 392 L 349 427 Q 349 479 350 538 L 350 567 Q 350 586 353 650 L 359 698 Q 362 723 369 745 Q 378 758 374 772 Q 368 781 315 813 Q 293 829 274 814 Q 270 810 275 795 Q 308 746 309 683 L 310 641 Q 310 601 311 556 L 311 529 Q 310 475 310 418 L 307 309 Z" fill="black" /></g></svg>