<?xml version='1.0' encoding='utf-8'?>
<svg xmlns="http://www.w3.org/2000/svg" version="1.1" viewBox="0 0 1024 1024"><g transform="scale(1, -1) translate(0, -900)"><path d="M 180 411 Q 246 427 288 435 L 330 443 Q 400 456 419 448 Q 429 442 428 418 Q 438 250 425 119 Q 424 94 408 89 Q 401 88 361 100 Q 351 104 350 97 Q 350 90 363 79 Q 390 49 409 20 Q 421 5 434 4 Q 450 7 470 53 Q 495 99 492 146 Q 486 260 480 363 Q 479 405 495 437 Q 507 450 494 464 Q 478 479 443 492 Q 428 501 376 479 Q 355 473 330 465 L 289 457 Q 210 441 168 433 C 139 427 151 404 180 411 Z" fill="black" /></g></svg>