<?xml version='1.0' encoding='utf-8'?>
<svg xmlns="http://www.w3.org/2000/svg" version="1.1" viewBox="0 0 1024 1024"><g transform="scale(1, -1) translate(0, -900)"><path d="M 343 316 Q 350 309 372 304 Q 408 298 408 262 Q 405 252 403 236 Q 376 98 337 77 Q 325 73 280 87 Q 246 100 242 94 Q 238 85 254 76 Q 299 45 311 11 Q 315 -4 327 -9 Q 339 -13 368 7 Q 411 46 442 178 Q 451 236 474 258 Q 484 262 486 270 Q 487 279 467 302 Q 446 326 386 333 Q 380 334 373 336 Q 366 337 359 340 C 330 348 317 331 343 316 Z" fill="black" /></g></svg>