<?xml version='1.0' encoding='utf-8'?>
<svg xmlns="http://www.w3.org/2000/svg" version="1.1" viewBox="0 0 1024 1024"><g transform="scale(1, -1) translate(0, -900)"><path d="M 320 284 Q 335 260 349 238 Q 365 213 373 216 Q 383 217 397 249 Q 406 271 406 351 Q 391 634 414 677 Q 424 696 416 707 Q 409 717 357 734 Q 332 743 315 733 Q 245 703 185 692 C 156 686 177 658 206 666 L 286 687 Q 323 697 336 685 Q 348 673 348 626 Q 352 433 346 325 Q 347 315 344 308 C 341 278 304 309 320 284 Z" fill="black" /></g></svg>