<?xml version='1.0' encoding='utf-8'?>
<svg xmlns="http://www.w3.org/2000/svg" version="1.1" viewBox="0 0 1024 1024"><g transform="scale(1, -1) translate(0, -900)"><path d="M 281 332 Q 365 360 387 352 Q 396 348 396 328 Q 409 172 400 50 Q 399 25 385 21 Q 375 17 324 29 Q 314 30 314 24 Q 315 18 328 10 Q 359 -15 383 -42 Q 396 -55 410 -54 Q 425 -51 442 -8 Q 464 35 460 78 Q 453 183 444 278 Q 440 317 456 347 Q 465 360 453 371 Q 438 384 406 394 Q 388 401 374 391 Q 362 385 341 377 Q 298 364 273 356 C 244 347 252 323 281 332 Z" fill="black" /></g></svg>