<?xml version='1.0' encoding='utf-8'?>
<svg xmlns="http://www.w3.org/2000/svg" version="1.1" viewBox="0 0 1024 1024"><g transform="scale(1, -1) translate(0, -900)"><path d="M 716 464 Q 716 461 719 455 Q 731 433 729 409 Q 729 393 728 372 Q 727 318 705 253 Q 704 250 702 247 L 683 203 Q 670 181 655 158 Q 630 124 584 88 Q 574 81 559 70 Q 543 60 528 48 Q 515 38 527 36 Q 540 35 576 48 Q 624 67 660 100 Q 694 128 714 159 L 740 205 Q 765 251 775 307 Q 781 335 788 364 Q 792 394 806 419 Q 816 437 799 446 Q 783 459 768 466 Q 761 470 755 472 C 728 485 705 492 716 464 Z" fill="black" /></g></svg>