<?xml version='1.0' encoding='utf-8'?>
<svg xmlns="http://www.w3.org/2000/svg" version="1.1" viewBox="0 0 1024 1024"><g transform="scale(1, -1) translate(0, -900)"><path d="M 155 130 Q 119 90 48 46 Q 38 40 44 36 Q 48 35 67 41 Q 127 63 165 90 Q 193 112 221 153 L 246 196 Q 265 233 279 282 Q 286 315 308 337 Q 321 350 308 361 Q 290 371 268 375 Q 247 382 229 369 Q 213 362 185 350 Q 154 340 122 333 Q 109 333 105 328 Q 104 319 121 309 Q 143 297 190 317 Q 224 336 228 337 Q 237 337 237 324 Q 227 260 209 217 L 192 182 Q 176 155 155 130 Z" fill="black" /></g></svg>