<?xml version='1.0' encoding='utf-8'?>
<svg xmlns="http://www.w3.org/2000/svg" version="1.1" viewBox="0 0 1024 1024"><g transform="scale(1, -1) translate(0, -900)"><path d="M 642 288 Q 652 263 662 263 Q 675 264 689 291 Q 699 309 700 349 Q 693 445 711 471 Q 720 484 714 494 Q 690 515 649 534 Q 636 538 615 532 Q 543 504 395 489 C 365 486 375 459 405 463 Q 409 463 414 464 Q 520 486 596 498 Q 623 502 632 489 Q 639 479 640 444 Q 643 345 638 326 Q 637 322 635 317 C 632 308 632 308 642 288 Z" fill="black" /></g></svg>