<?xml version='1.0' encoding='utf-8'?>
<svg xmlns="http://www.w3.org/2000/svg" version="1.1" viewBox="0 0 1024 1024"><g transform="scale(1, -1) translate(0, -900)"><path d="M 498 663 Q 705 696 738 678 Q 742 674 736 656 Q 711 590 701 577 Q 691 562 693 545 Q 696 529 708 528 Q 721 527 731 540 Q 738 543 758 566 Q 780 614 820 638 Q 839 651 826 668 Q 811 687 766 719 Q 751 731 665 715 Q 640 715 594 706 L 551 702 Q 488 695 429 684 Q 344 671 284 664 C 254 660 271 624 301 627 Q 310 626 318 628 Q 376 646 476 659 L 498 663 Z" fill="black" /></g></svg>