<?xml version='1.0' encoding='utf-8'?>
<svg xmlns="http://www.w3.org/2000/svg" version="1.1" viewBox="0 0 1024 1024"><g transform="scale(1, -1) translate(0, -900)"><path d="M 337 237 Q 344 255 354 267 Q 361 273 360 281 Q 356 291 330 312 C 307 331 295 337 300 307 L 301 306 Q 307 287 289 231 L 272 188 Q 262 166 250 149 Q 241 134 244 124 Q 245 115 260 112 Q 314 96 335 75 L 373 50 Q 410 23 461 -23 Q 483 -41 497 -41 Q 515 -41 516 -25 Q 517 -7 494 32 Q 482 54 403 87 L 363 104 Q 326 120 299 128 Q 280 132 291 150 Q 304 178 316 197 L 337 237 Z" fill="black" /></g></svg>