<?xml version='1.0' encoding='utf-8'?>
<svg xmlns="http://www.w3.org/2000/svg" version="1.1" viewBox="0 0 1024 1024"><g transform="scale(1, -1) translate(0, -900)"><path d="M 377 455 Q 378 483 380 511 L 381 543 Q 381 567 382 589 L 383 619 Q 384 653 385 684 L 388 714 Q 394 765 406 808 Q 409 818 389 833 Q 355 851 332 855 Q 316 858 308 850 Q 301 843 309 828 Q 337 786 337 757 Q 338 732 338 705 L 339 676 Q 339 645 340 613 L 340 583 Q 340 558 339 532 L 339 504 Q 338 476 337 446 L 336 422 Q 335 383 332 341 C 330 311 371 320 372 350 Q 373 390 376 429 L 377 455 Z" fill="black" /></g></svg>