<?xml version='1.0' encoding='utf-8'?>
<svg xmlns="http://www.w3.org/2000/svg" version="1.1" viewBox="0 0 1024 1024"><g transform="scale(1, -1) translate(0, -900)"><path d="M 577 198 Q 581 249 593 275 Q 606 305 586 322 Q 535 359 520 355 Q 505 349 513 332 Q 532 295 529 239 Q 523 62 543 27 Q 576 -33 667 -50 Q 728 -62 826 -53 Q 911 -43 942 -22 Q 972 -7 960 23 Q 945 56 934 113 Q 933 129 926 134 Q 917 140 913 119 Q 892 53 880 43 Q 870 24 835 16 Q 693 -11 619 20 Q 591 33 584 51 Q 563 108 574 174 L 577 198 Z" fill="black" /></g></svg>