<?xml version='1.0' encoding='utf-8'?>
<svg xmlns="http://www.w3.org/2000/svg" version="1.1" viewBox="0 0 1024 1024"><g transform="scale(1, -1) translate(0, -900)"><path d="M 381 620 Q 399 624 420 628 Q 444 634 453 621 Q 468 603 460 474 Q 454 456 462 439 Q 472 418 478 419 Q 488 420 500 442 Q 509 458 509 492 Q 502 585 520 608 Q 527 621 522 630 Q 500 649 459 666 Q 446 670 427 663 Q 405 653 383 645 L 345 635 Q 336 634 328 632 Q 279 622 235 616 C 205 612 216 582 245 588 Q 248 588 252 589 Q 301 602 345 612 L 381 620 Z" fill="black" /></g></svg>