<?xml version='1.0' encoding='utf-8'?>
<svg xmlns="http://www.w3.org/2000/svg" version="1.1" viewBox="0 0 1024 1024"><g transform="scale(1, -1) translate(0, -900)"><path d="M 584 272 Q 743 290 761 271 Q 768 264 765 249 Q 746 95 732 75 Q 726 63 712 68 Q 681 75 648 82 Q 620 86 639 67 Q 703 12 729 -27 Q 738 -40 751 -33 Q 779 -9 798 73 Q 820 218 840 240 Q 856 262 850 270 Q 843 283 791 319 Q 772 335 756 329 Q 726 319 671 311 Q 502 296 413 282 L 383 276 Q 371 276 363 273 Q 309 263 267 257 C 237 253 251 207 280 213 Q 290 213 303 217 Q 337 230 390 240 L 425 248 Q 468 260 541 267 L 584 272 Z" fill="black" /></g></svg>