<?xml version='1.0' encoding='utf-8'?>
<svg xmlns="http://www.w3.org/2000/svg" version="1.1" viewBox="0 0 1024 1024"><g transform="scale(1, -1) translate(0, -900)"><path d="M 843 578 Q 859 79 832 33 Q 828 27 808 32 Q 783 36 759 39 Q 740 45 741 35 Q 796 -8 826 -39 Q 839 -57 855 -61 Q 864 -65 871 -55 Q 908 -4 905 45 Q 890 282 887 667 Q 886 722 898 747 Q 910 766 898 776 Q 877 794 842 808 Q 824 815 810 808 Q 765 783 699 772 C 670 766 689 738 718 744 Q 754 751 799 764 Q 815 767 824 757 Q 839 742 839 694 Q 840 648 842 604 L 843 578 Z" fill="black" /></g></svg>