<?xml version='1.0' encoding='utf-8'?>
<svg xmlns="http://www.w3.org/2000/svg" version="1.1" viewBox="0 0 1024 1024"><g transform="scale(1, -1) translate(0, -900)"><path d="M 719 250 Q 722 240 730 240 Q 745 243 768 288 Q 781 322 807 342 Q 820 352 810 364 Q 798 376 765 396 Q 753 403 645 382 L 615 376 Q 596 375 577 369 Q 534 360 501 355 C 471 350 495 324 523 333 Q 556 345 615 354 L 645 359 Q 721 378 743 368 Q 747 364 744 348 Q 728 287 722 275 Q 721 275 721 273 C 714 256 714 256 719 250 Z" fill="black" /></g></svg>