<?xml version='1.0' encoding='utf-8'?>
<svg xmlns="http://www.w3.org/2000/svg" version="1.1" viewBox="0 0 1024 1024"><g transform="scale(1, -1) translate(0, -900)"><path d="M 612 745 Q 596 746 600 736 Q 606 723 627 713 Q 640 704 694 718 Q 781 742 795 722 Q 810 715 815 645 Q 831 413 820 150 Q 819 111 805 100 Q 789 90 709 106 Q 693 109 694 99 Q 695 92 709 86 Q 779 43 817 7 Q 839 -12 851 -10 Q 864 -6 874 22 Q 889 68 887 134 Q 868 503 869 639 Q 870 678 882 701 Q 894 722 884 734 Q 874 749 828 773 Q 809 783 790 778 Q 768 771 718 760 Q 667 750 612 745 Z" fill="black" /></g></svg>