<?xml version='1.0' encoding='utf-8'?>
<svg xmlns="http://www.w3.org/2000/svg" version="1.1" viewBox="0 0 1024 1024"><g transform="scale(1, -1) translate(0, -900)"><path d="M 335 371 Q 335 365 336 357 Q 340 215 327 181 Q 324 169 302 172 Q 274 179 243 186 Q 233 187 231 180 Q 230 176 240 166 Q 304 117 325 86 Q 341 73 351 75 Q 361 79 372 111 Q 388 142 384 200 Q 381 315 383 380 L 384 425 Q 384 428 385 430 Q 392 469 374 488 Q 364 498 355 503 C 331 520 312 521 321 492 Q 330 470 334 411 L 335 371 Z" fill="black" /></g></svg>