<?xml version='1.0' encoding='utf-8'?>
<svg xmlns="http://www.w3.org/2000/svg" version="1.1" viewBox="0 0 1024 1024"><g transform="scale(1, -1) translate(0, -900)"><path d="M 356 376 Q 371 354 385 346 Q 395 339 408 358 Q 420 380 446 496 Q 453 524 473 546 Q 483 556 474 569 Q 461 584 422 606 Q 410 612 333 593 Q 330 593 328 591 L 287 582 Q 265 578 241 571 Q 211 564 186 558 C 157 551 169 520 198 529 Q 256 548 359 567 Q 383 571 391 564 Q 401 551 400 537 Q 381 428 373 411 Q 369 402 360 398 C 348 387 348 387 356 376 Z" fill="black" /></g></svg>