<?xml version='1.0' encoding='utf-8'?>
<svg xmlns="http://www.w3.org/2000/svg" version="1.1" viewBox="0 0 1024 1024"><g transform="scale(1, -1) translate(0, -900)"><path d="M 321 510 Q 354 519 392 526 Q 411 530 423 520 Q 433 514 436 468 Q 448 312 439 135 Q 438 108 429 101 Q 419 95 372 107 Q 357 111 358 103 Q 358 96 369 90 Q 411 48 431 18 Q 450 -1 461 2 Q 473 3 483 29 Q 499 69 500 129 Q 482 468 499 500 Q 509 519 501 530 Q 491 543 449 565 Q 433 574 415 569 Q 390 560 341 547 L 312 540 Q 251 527 191 518 C 161 513 181 473 210 482 Q 211 485 277 500 L 321 510 Z" fill="black" /></g></svg>