<?xml version='1.0' encoding='utf-8'?>
<svg xmlns="http://www.w3.org/2000/svg" version="1.1" viewBox="0 0 1024 1024"><g transform="scale(1, -1) translate(0, -900)"><path d="M 397 393 Q 437 402 474 403 Q 505 404 496 419 Q 487 432 470 440 Q 454 446 399 429 L 353 419 Q 304 410 248 399 Q 232 398 230 400 Q 224 412 316 617 L 339 668 Q 381 753 391 762 Q 404 774 388 795 Q 361 823 341 836 Q 328 843 317 841 Q 308 837 314 815 Q 321 779 285 654 L 269 606 Q 203 444 161 400 Q 145 384 150 368 Q 157 347 168 336 Q 177 327 188 332 Q 260 371 352 384 L 397 393 Z" fill="black" /></g></svg>