<?xml version='1.0' encoding='utf-8'?>
<svg xmlns="http://www.w3.org/2000/svg" version="1.1" viewBox="0 0 1024 1024"><g transform="scale(1, -1) translate(0, -900)"><path d="M 345 246 Q 336 129 327 99 Q 315 66 349 12 Q 359 -6 368 -10 Q 378 -11 384 1 Q 397 32 394 61 Q 393 170 394 268 L 394 303 Q 394 357 397 393 L 399 429 Q 400 475 406 497 Q 409 509 402 515 Q 380 534 361 544 Q 349 548 340 541 Q 334 538 341 528 Q 351 510 353 419 L 352 384 Q 351 347 349 302 Q 348 295 348 287 L 345 246 Z" fill="black" /></g></svg>