<?xml version='1.0' encoding='utf-8'?>
<svg xmlns="http://www.w3.org/2000/svg" version="1.1" viewBox="0 0 1024 1024"><g transform="scale(1, -1) translate(0, -900)"><path d="M 199 672 Q 203 685 191 699 Q 181 709 150 724 Q 129 734 121 727 Q 114 720 121 705 Q 140 669 142 605 Q 149 415 135 238 Q 134 198 112 162 Q 102 146 113 126 Q 122 105 132 97 Q 142 90 159 103 Q 231 164 464 187 Q 488 188 487 199 Q 486 212 457 229 Q 439 241 353 216 Q 262 200 205 182 Q 181 170 187 222 Q 191 388 193 597 Q 193 643 199 672 Z" fill="black" /></g></svg>