<?xml version='1.0' encoding='utf-8'?>
<svg xmlns="http://www.w3.org/2000/svg" version="1.1" viewBox="0 0 1024 1024"><g transform="scale(1, -1) translate(0, -900)"><path d="M 305 213 Q 299 167 287 120 Q 277 86 301 25 Q 308 9 315 5 Q 321 -1 328 6 Q 335 10 345 31 Q 354 53 353 83 Q 352 108 351 227 L 351 265 Q 351 304 352 349 L 352 390 Q 352 417 353 445 L 353 484 Q 353 512 353 542 L 354 575 Q 354 611 355 647 L 359 700 Q 363 740 373 773 Q 382 786 378 800 Q 372 809 319 841 Q 297 857 278 842 Q 274 838 279 823 Q 312 774 313 725 Q 313 706 314 684 L 315 635 Q 315 604 317 570 Q 316 569 316 566 L 315 534 Q 314 504 314 472 L 314 435 Q 313 407 312 378 L 311 341 Q 311 265 309 252 L 305 213 Z" fill="black" /></g></svg>