<?xml version='1.0' encoding='utf-8'?>
<svg xmlns="http://www.w3.org/2000/svg" version="1.1" viewBox="0 0 1024 1024"><g transform="scale(1, -1) translate(0, -900)"><path d="M 291 99 Q 288 198 306 220 Q 318 230 310 240 Q 300 255 259 269 Q 249 273 230 263 Q 208 256 177 247 Q 162 243 162 262 Q 158 329 160 356 L 160 384 Q 156 399 119 413 Q 106 417 93 408 Q 86 404 98 390 Q 120 363 123 310 Q 129 256 114 238 Q 110 225 118 209 Q 131 193 141 199 Q 159 214 208 227 Q 230 234 237 225 Q 246 216 242 90 C 241 60 292 69 291 99 Z" fill="black" /></g></svg>