<?xml version='1.0' encoding='utf-8'?>
<svg xmlns="http://www.w3.org/2000/svg" version="1.1" viewBox="0 0 1024 1024"><g transform="scale(1, -1) translate(0, -900)"><path d="M 383 284 Q 383 309 384 331 L 386 370 Q 386 383 388 397 Q 394 421 388 430 Q 381 440 360 452 C 335 468 308 472 319 444 Q 332 417 333 355 L 333 320 Q 333 263 333 172 Q 332 147 323 137 Q 317 134 256 151 Q 246 155 245 148 Q 245 141 253 132 Q 299 83 329 45 Q 339 36 352 50 Q 394 105 387 204 Q 386 228 384 256 L 383 284 Z" fill="black" /></g></svg>