<?xml version='1.0' encoding='utf-8'?>
<svg xmlns="http://www.w3.org/2000/svg" version="1.1" viewBox="0 0 1024 1024"><g transform="scale(1, -1) translate(0, -900)"><path d="M 519 578 Q 495 577 467 571 Q 440 562 458 584 Q 515 663 565 709 Q 574 716 569 723 Q 562 736 537 751 Q 527 757 519 755 Q 512 754 513 742 Q 514 723 495 685 L 484 665 Q 483 664 481 659 Q 421 575 401 564 Q 391 558 393 547 Q 394 537 412 523 Q 419 514 431 523 Q 467 547 523 565 Q 524 566 527 565 C 556 571 549 580 519 578 Z" fill="black" /></g></svg>