<?xml version='1.0' encoding='utf-8'?>
<svg xmlns="http://www.w3.org/2000/svg" version="1.1" viewBox="0 0 1024 1024"><g transform="scale(1, -1) translate(0, -900)"><path d="M 222 452 Q 241 445 264 450 Q 390 490 676 533 Q 767 546 791 542 Q 804 532 802 525 Q 784 479 767 430 L 769 429 Q 776 425 794 437 Q 852 476 899 489 Q 938 502 936 511 Q 935 521 860 573 Q 839 589 815 584 Q 728 571 622 551 Q 597 548 568 543 L 533 537 Q 449 525 342 505 Q 284 495 224 486 C 194 481 192 457 222 452 Z" fill="black" /></g></svg>