<?xml version='1.0' encoding='utf-8'?>
<svg xmlns="http://www.w3.org/2000/svg" version="1.1" viewBox="0 0 1024 1024"><g transform="scale(1, -1) translate(0, -900)"><path d="M 679 248 Q 700 119 669 48 Q 656 23 621 28 Q 584 35 552 42 Q 540 45 546 34 Q 550 25 571 14 Q 617 -20 633 -47 Q 643 -65 659 -62 Q 672 -61 699 -34 Q 765 35 733 257 L 724 296 Q 714 344 685 364 L 668 373 Q 664 377 655 379 Q 634 386 624 380 Q 611 373 625 360 Q 661 333 670 289 Q 670 288 671 285 L 679 248 Z" fill="black" /></g></svg>