<?xml version='1.0' encoding='utf-8'?>
<svg xmlns="http://www.w3.org/2000/svg" version="1.1" viewBox="0 0 1024 1024"><g transform="scale(1, -1) translate(0, -900)"><path d="M 307 403 Q 382 385 390 371 Q 405 344 348 192 Q 320 120 290 110 Q 275 104 233 124 Q 199 140 194 134 Q 190 125 205 114 Q 247 81 259 41 Q 263 25 274 19 Q 287 15 319 34 Q 356 64 393 160 Q 438 325 462 343 Q 472 347 475 356 Q 476 365 455 390 Q 425 421 370 421 Q 361 422 325 432 C 296 440 278 410 307 403 Z" fill="black" /></g></svg>