<?xml version='1.0' encoding='utf-8'?>
<svg xmlns="http://www.w3.org/2000/svg" version="1.1" viewBox="0 0 1024 1024"><g transform="scale(1, -1) translate(0, -900)"><path d="M 560 397 Q 560 407 562 411 Q 562 412 562 414 C 563 428 563 428 557 433 Q 551 445 501 458 Q 485 459 480 455 Q 473 448 484 431 Q 508 401 515 313 Q 515 159 485 104 Q 475 91 462 74 Q 452 64 458 43 Q 467 16 480 4 Q 492 -5 505 9 Q 545 58 667 159 Q 683 169 684 178 Q 685 184 680 183 Q 671 183 573 132 Q 566 128 562 131 Q 553 137 560 382 L 560 397 Z" fill="black" /></g></svg>