<?xml version='1.0' encoding='utf-8'?>
<svg xmlns="http://www.w3.org/2000/svg" version="1.1" viewBox="0 0 1024 1024"><g transform="scale(1, -1) translate(0, -900)"><path d="M 316 457 Q 316 415 324 395 Q 330 385 338 390 Q 351 405 356 465 L 357 502 Q 358 521 359 539 L 361 577 Q 362 596 363 613 L 364 643 Q 364 668 366 695 L 369 739 Q 370 766 375 781 Q 382 799 371 810 Q 358 823 331 835 Q 312 842 290 834 Q 280 827 292 812 Q 305 790 317 724 L 320 686 Q 320 661 321 633 L 321 603 Q 321 585 320 563 L 320 530 Q 319 511 318 492 L 316 457 Z" fill="black" /></g></svg>