<?xml version='1.0' encoding='utf-8'?>
<svg xmlns="http://www.w3.org/2000/svg" version="1.1" viewBox="0 0 1024 1024"><g transform="scale(1, -1) translate(0, -900)"><path d="M 298 413 Q 307 409 331 405 Q 356 401 366 387 Q 384 344 318 180 Q 312 167 305 157 Q 296 147 284 141 Q 274 140 253 150 Q 223 171 219 166 Q 212 159 225 146 Q 249 113 251 79 Q 254 64 264 58 Q 274 52 306 69 Q 336 90 364 150 Q 379 196 396 266 Q 411 345 434 362 Q 444 366 445 375 Q 446 384 426 406 Q 396 433 351 433 Q 330 436 310 441 C 281 448 269 422 298 413 Z" fill="black" /></g></svg>