<?xml version='1.0' encoding='utf-8'?>
<svg xmlns="http://www.w3.org/2000/svg" version="1.1" viewBox="0 0 1024 1024"><g transform="scale(1, -1) translate(0, -900)"><path d="M 300 430 Q 312 426 342 423 Q 366 419 375 407 Q 381 400 375 363 Q 369 311 347 240 Q 326 174 298 162 Q 283 158 251 174 Q 218 190 214 186 Q 210 179 224 167 Q 260 131 268 97 Q 272 82 283 76 Q 295 72 325 91 Q 370 124 399 243 Q 420 363 445 387 Q 455 391 456 400 Q 457 409 435 430 Q 402 460 357 452 Q 347 453 332 455 Q 320 456 311 458 C 281 463 271 437 300 430 Z" fill="black" /></g></svg>