<?xml version='1.0' encoding='utf-8'?>
<svg xmlns="http://www.w3.org/2000/svg" version="1.1" viewBox="0 0 1024 1024"><g transform="scale(1, -1) translate(0, -900)"><path d="M 304 392 Q 314 388 344 381 Q 372 375 381 360 Q 387 350 377 309 Q 370 257 348 190 Q 326 124 300 114 Q 288 110 241 128 Q 207 144 202 138 Q 198 129 213 118 Q 258 85 271 45 Q 277 29 287 23 Q 300 19 331 40 Q 374 77 405 192 Q 426 315 453 333 Q 463 337 465 346 Q 466 355 444 379 Q 414 410 363 410 Q 351 413 337 416 Q 330 419 322 421 C 293 430 275 401 304 392 Z" fill="black" /></g></svg>