<?xml version='1.0' encoding='utf-8'?>
<svg xmlns="http://www.w3.org/2000/svg" version="1.1" viewBox="0 0 1024 1024"><g transform="scale(1, -1) translate(0, -900)"><path d="M 973 93 Q 960 121 944 210 Q 944 226 937 230 Q 931 233 927 216 Q 902 122 885 93 Q 870 77 831 66 Q 737 44 662 73 Q 632 86 624 105 Q 608 142 607 222 L 610 263 Q 613 302 619 343 L 625 384 Q 626 397 630 411 Q 634 430 623 440 Q 611 452 593 460 C 567 476 553 477 560 448 Q 560 445 562 440 Q 572 403 572 368 L 569 328 Q 566 288 565 252 L 564 212 Q 561 77 601 42 Q 694 -25 875 13 Q 878 14 882 15 Q 925 27 967 55 Q 985 68 973 93 Z" fill="black" /></g></svg>