<?xml version='1.0' encoding='utf-8'?>
<svg xmlns="http://www.w3.org/2000/svg" version="1.1" viewBox="0 0 1024 1024"><g transform="scale(1, -1) translate(0, -900)"><path d="M 288 431 L 289 431 Q 296 425 328 419 Q 353 415 362 400 Q 366 390 357 353 Q 350 301 323 230 Q 299 164 271 152 Q 259 149 219 167 Q 186 183 182 178 Q 178 171 192 159 Q 228 126 241 88 Q 245 73 255 67 Q 267 63 297 81 Q 339 115 376 231 Q 397 349 429 373 Q 439 377 441 386 Q 442 393 422 418 Q 392 448 345 447 Q 312 456 302 458 C 273 465 260 442 288 431 Z" fill="black" /></g></svg>