<?xml version='1.0' encoding='utf-8'?>
<svg xmlns="http://www.w3.org/2000/svg" version="1.1" viewBox="0 0 1024 1024"><g transform="scale(1, -1) translate(0, -900)"><path d="M 700 351 Q 739 357 778 360 Q 809 366 813 346 Q 822 213 803 188 Q 794 185 751 193 Q 736 197 733 193 Q 729 189 740 178 Q 783 139 810 110 Q 823 97 837 110 Q 870 149 867 196 Q 864 305 873 352 Q 877 371 867 381 Q 840 406 821 416 Q 808 422 799 412 Q 793 405 700 384 L 649 375 Q 609 371 540 361 C 510 357 525 317 554 324 Q 576 331 649 342 L 700 351 Z" fill="black" /></g></svg>