<?xml version='1.0' encoding='utf-8'?>
<svg xmlns="http://www.w3.org/2000/svg" version="1.1" viewBox="0 0 1024 1024"><g transform="scale(1, -1) translate(0, -900)"><path d="M 290 402 Q 300 398 327 393 Q 352 389 361 375 Q 373 351 328 207 Q 304 141 277 131 Q 265 127 223 141 Q 190 154 186 150 Q 182 141 197 131 Q 237 100 250 65 Q 254 50 266 45 Q 278 41 307 60 Q 349 96 384 221 Q 400 329 430 350 Q 440 354 441 363 Q 442 370 421 394 Q 394 421 344 421 Q 331 424 305 430 C 276 437 261 410 290 402 Z" fill="black" /></g></svg>