<?xml version='1.0' encoding='utf-8'?>
<svg xmlns="http://www.w3.org/2000/svg" version="1.1" viewBox="0 0 1024 1024"><g transform="scale(1, -1) translate(0, -900)"><path d="M 363 613 Q 432 631 449 622 Q 459 616 456 583 Q 440 457 430 432 Q 424 416 430 401 Q 436 388 447 389 Q 460 392 466 405 Q 479 426 496 522 Q 508 570 540 598 Q 556 614 540 627 Q 524 640 477 662 Q 462 669 395 650 Q 380 650 364 643 L 321 633 Q 293 629 268 620 Q 222 608 191 601 C 162 594 185 558 211 572 Q 221 584 321 603 L 363 613 Z" fill="black" /></g></svg>