<?xml version='1.0' encoding='utf-8'?>
<svg xmlns="http://www.w3.org/2000/svg" version="1.1" viewBox="0 0 1024 1024"><g transform="scale(1, -1) translate(0, -900)"><path d="M 722 398 Q 647 388 568 368 Q 559 365 556 367 Q 555 370 559 375 Q 628 448 642 461 Q 654 468 649 480 Q 645 490 614 507 C 588 522 568 529 573 499 Q 573 498 574 496 Q 581 463 546 416 Q 524 388 481 360 Q 468 350 471 341 Q 475 326 496 308 Q 505 298 516 307 Q 556 337 734 377 Q 735 378 737 377 C 767 382 752 402 722 398 Z" fill="black" /></g></svg>