<?xml version='1.0' encoding='utf-8'?>
<svg xmlns="http://www.w3.org/2000/svg" version="1.1" viewBox="0 0 1024 1024"><g transform="scale(1, -1) translate(0, -900)"><path d="M 296 373 Q 308 369 338 368 Q 360 367 368 354 Q 383 330 339 194 Q 318 128 290 117 Q 277 114 241 129 Q 210 142 206 138 Q 202 131 216 120 Q 250 93 264 55 Q 268 42 278 36 Q 290 32 318 50 Q 366 93 399 243 Q 414 316 435 337 Q 444 341 445 349 Q 446 356 424 377 Q 387 407 355 397 Q 325 397 309 400 C 279 404 267 379 296 373 Z" fill="black" /></g></svg>