<?xml version='1.0' encoding='utf-8'?>
<svg xmlns="http://www.w3.org/2000/svg" version="1.1" viewBox="0 0 1024 1024"><g transform="scale(1, -1) translate(0, -900)"><path d="M 270 408 Q 324 399 334 385 Q 346 357 301 224 Q 277 163 252 152 Q 240 146 198 159 Q 161 172 158 166 Q 154 157 171 147 Q 213 116 224 82 Q 230 66 241 60 Q 254 56 285 78 Q 334 120 369 270 Q 384 343 407 360 Q 417 364 419 374 Q 420 383 397 406 Q 369 434 319 434 Q 292 437 287 438 C 257 442 241 414 270 408 Z" fill="black" /></g></svg>