<?xml version='1.0' encoding='utf-8'?>
<svg xmlns="http://www.w3.org/2000/svg" version="1.1" viewBox="0 0 1024 1024"><g transform="scale(1, -1) translate(0, -900)"><path d="M 297 400 Q 354 391 361 380 Q 376 355 329 218 Q 308 155 280 144 Q 268 138 230 150 Q 193 163 190 158 Q 186 149 202 139 Q 239 111 252 74 Q 258 58 269 53 Q 281 49 312 70 Q 357 109 392 241 Q 399 323 434 357 Q 444 361 446 370 Q 447 379 424 402 Q 396 429 344 428 Q 317 431 314 432 C 284 436 267 405 297 400 Z" fill="black" /></g></svg>