<?xml version='1.0' encoding='utf-8'?>
<svg xmlns="http://www.w3.org/2000/svg" version="1.1" viewBox="0 0 1024 1024"><g transform="scale(1, -1) translate(0, -900)"><path d="M 287 420 Q 294 413 316 408 Q 341 404 351 388 Q 360 364 317 224 Q 299 170 284 149 Q 275 139 262 133 Q 250 130 219 143 Q 186 159 182 154 Q 178 147 192 135 Q 225 102 233 69 Q 237 53 247 48 Q 259 42 289 62 Q 313 83 342 137 Q 358 188 378 264 Q 396 345 418 362 Q 428 366 430 374 Q 431 383 411 406 Q 390 430 330 437 Q 306 443 301 444 C 272 451 261 434 287 420 Z" fill="black" /></g></svg>