<?xml version='1.0' encoding='utf-8'?>
<svg xmlns="http://www.w3.org/2000/svg" version="1.1" viewBox="0 0 1024 1024"><g transform="scale(1, -1) translate(0, -900)"><path d="M 333 303 Q 330 303 207 230 Q 197 223 195 233 Q 202 329 204 412 L 205 437 Q 206 482 206 522 L 205 550 Q 205 619 211 650 C 213 667 213 667 197 679 Q 179 694 162 702 Q 144 709 136 703 Q 126 697 135 682 Q 183 582 152 271 Q 151 225 113 178 Q 103 163 110 142 Q 120 117 132 107 Q 145 100 156 115 Q 174 149 344 283 C 368 302 359 317 333 303 Z" fill="black" /></g></svg>