<?xml version='1.0' encoding='utf-8'?>
<svg xmlns="http://www.w3.org/2000/svg" version="1.1" viewBox="0 0 1024 1024"><g transform="scale(1, -1) translate(0, -900)"><path d="M 972 101 Q 957 128 934 210 Q 933 226 925 230 Q 918 233 916 215 Q 897 124 880 96 Q 853 66 777 72 Q 746 73 722 84 Q 700 94 695 108 Q 668 160 701 341 Q 707 371 658 391 Q 645 395 637 390 Q 630 386 636 369 Q 648 330 645 293 Q 632 85 670 51 Q 743 -9 895 24 Q 896 25 900 25 Q 934 35 969 58 Q 988 74 972 101 Z" fill="black" /></g></svg>