<?xml version='1.0' encoding='utf-8'?>
<svg xmlns="http://www.w3.org/2000/svg" version="1.1" viewBox="0 0 1024 1024"><g transform="scale(1, -1) translate(0, -900)"><path d="M 608 120 Q 641 78 665 39 Q 675 18 688 19 Q 707 20 724 59 Q 745 104 740 157 Q 728 310 721 593 Q 720 629 738 654 Q 748 669 738 681 Q 716 703 656 730 Q 635 740 617 729 Q 512 684 349 664 C 319 660 332 620 361 626 Q 410 635 590 672 Q 624 679 640 666 Q 691 615 658 164 Q 657 163 657 159 Q 653 143 640 144 C 621 121 602 128 608 120 Z" fill="black" /></g></svg>