<?xml version='1.0' encoding='utf-8'?>
<svg xmlns="http://www.w3.org/2000/svg" version="1.1" viewBox="0 0 1024 1024"><g transform="scale(1, -1) translate(0, -900)"><path d="M 327 654 Q 327 709 344 750 Q 356 778 337 795 Q 288 829 273 826 Q 260 820 267 804 Q 286 768 283 715 Q 282 583 305 548 Q 339 494 457 486 Q 536 482 658 498 Q 769 514 810 541 Q 838 557 825 586 Q 809 623 795 690 Q 792 706 785 710 Q 778 714 775 695 Q 760 613 748 599 Q 709 548 526 534 Q 426 531 383 544 Q 344 560 335 585 Q 329 601 328 634 L 327 654 Z" fill="black" /></g></svg>