<?xml version='1.0' encoding='utf-8'?>
<svg xmlns="http://www.w3.org/2000/svg" version="1.1" viewBox="0 0 1024 1024"><g transform="scale(1, -1) translate(0, -900)"><path d="M 610 518 Q 611 514 613 509 Q 619 491 632 493 Q 647 494 655 510 Q 670 531 696 628 Q 714 683 753 715 Q 774 733 756 749 Q 737 768 684 796 Q 671 805 595 791 Q 571 791 438 767 Q 380 757 341 752 C 311 748 343 706 371 716 Q 404 734 608 754 Q 636 755 647 750 Q 659 743 652 707 Q 627 580 616 548 C 608 522 608 522 610 518 Z" fill="black" /></g></svg>