<?xml version='1.0' encoding='utf-8'?>
<svg xmlns="http://www.w3.org/2000/svg" version="1.1" viewBox="0 0 1024 1024"><g transform="scale(1, -1) translate(0, -900)"><path d="M 926 73 Q 910 119 899 200 Q 898 216 890 222 Q 881 228 877 206 Q 858 109 842 91 Q 811 58 684 53 Q 615 54 585 66 Q 558 79 553 96 Q 543 124 546 197 Q 553 278 569 315 Q 582 346 563 364 Q 511 404 495 401 Q 479 395 486 377 Q 507 337 501 279 Q 492 101 515 62 Q 539 20 627 7 Q 688 -2 785 2 Q 873 6 907 25 Q 938 41 926 73 Z" fill="black" /></g></svg>