<?xml version='1.0' encoding='utf-8'?>
<svg xmlns="http://www.w3.org/2000/svg" version="1.1" viewBox="0 0 1024 1024"><g transform="scale(1, -1) translate(0, -900)"><path d="M 641 445 Q 728 460 824 457 Q 846 456 853 468 Q 859 478 839 489 Q 779 528 727 505 Q 678 496 646 487 L 597 476 Q 555 467 518 456 Q 493 446 499 470 Q 514 531 527 554 Q 537 564 532 574 Q 526 584 492 600 Q 476 610 465 604 Q 455 595 464 582 Q 477 551 459 483 Q 455 464 431 441 Q 422 431 424 419 Q 427 407 443 394 Q 456 387 469 398 Q 505 417 555 429 Q 571 433 590 436 L 641 445 Z" fill="black" /></g></svg>