<?xml version='1.0' encoding='utf-8'?>
<svg xmlns="http://www.w3.org/2000/svg" version="1.1" viewBox="0 0 1024 1024"><g transform="scale(1, -1) translate(0, -900)"><path d="M 597 50 Q 631 8 655 -31 Q 665 -50 676 -49 Q 694 -48 709 -12 Q 728 28 724 77 Q 715 162 706 317 Q 705 350 722 373 Q 732 386 721 397 Q 702 418 647 442 Q 628 452 612 442 Q 534 406 379 385 C 349 381 359 347 389 352 Q 396 352 591 389 Q 619 393 633 384 Q 663 354 648 82 L 648 79 Q 644 61 629 65 C 603 49 594 53 597 50 Z" fill="black" /></g></svg>