<?xml version='1.0' encoding='utf-8'?>
<svg xmlns="http://www.w3.org/2000/svg" version="1.1" viewBox="0 0 1024 1024"><g transform="scale(1, -1) translate(0, -900)"><path d="M 571 30 Q 599 -6 620 -40 Q 630 -58 640 -57 Q 656 -56 672 -22 Q 690 15 687 63 Q 680 124 672 237 Q 671 268 686 289 Q 695 301 686 311 Q 668 330 617 352 Q 601 361 585 352 Q 504 313 376 293 C 346 288 357 255 386 262 Q 588 307 590 307 Q 597 306 603 301 Q 615 286 616 76 Q 615 70 615 65 Q 611 50 596 52 C 569 39 566 37 571 30 Z" fill="black" /></g></svg>