<?xml version='1.0' encoding='utf-8'?>
<svg xmlns="http://www.w3.org/2000/svg" version="1.1" viewBox="0 0 1024 1024"><g transform="scale(1, -1) translate(0, -900)"><path d="M 260 225 Q 272 206 285 186 Q 301 161 309 164 Q 322 167 336 201 Q 351 240 346 288 Q 339 387 335 601 Q 335 656 350 685 Q 360 704 352 715 Q 345 725 292 740 Q 267 749 250 738 Q 190 710 141 696 C 112 687 118 663 147 669 Q 174 672 231 693 Q 261 703 272 693 Q 285 680 286 624 Q 290 398 281 273 Q 285 252 270 252 C 255 233 255 233 260 225 Z" fill="black" /></g></svg>