<?xml version='1.0' encoding='utf-8'?>
<svg xmlns="http://www.w3.org/2000/svg" version="1.1" viewBox="0 0 1024 1024"><g transform="scale(1, -1) translate(0, -900)"><path d="M 488 651 Q 552 669 600 675 Q 621 679 626 673 Q 629 669 627 660 Q 558 393 703 347 Q 728 340 764 334 Q 887 321 964 369 Q 985 381 975 405 Q 953 454 939 533 Q 936 551 930 549 Q 926 549 922 531 Q 904 437 885 415 Q 869 400 816 396 Q 758 389 711 405 Q 669 418 657 448 Q 632 503 690 634 Q 703 661 721 674 Q 736 687 734 698 Q 733 708 671 738 Q 658 747 641 734 Q 595 703 514 685 Q 504 684 496 680 L 435 666 Q 380 656 324 642 Q 281 633 210 635 Q 197 636 198 622 Q 199 610 225 596 Q 252 578 287 592 Q 362 617 427 634 L 488 651 Z" fill="black" /></g></svg>