<?xml version='1.0' encoding='utf-8'?>
<svg xmlns="http://www.w3.org/2000/svg" version="1.1" viewBox="0 0 1024 1024"><g transform="scale(1, -1) translate(0, -900)"><path d="M 403 165 Q 428 131 447 99 Q 454 83 465 84 Q 480 85 494 114 Q 510 148 508 190 Q 504 260 499 389 Q 498 417 513 436 Q 520 448 513 456 Q 497 474 450 495 Q 432 504 389 480 Q 341 464 281 450 C 252 443 269 417 299 422 Q 314 423 417 449 Q 430 453 439 447 Q 463 423 444 194 Q 440 176 423 185 C 393 184 389 184 403 165 Z" fill="black" /></g></svg>