<?xml version='1.0' encoding='utf-8'?>
<svg xmlns="http://www.w3.org/2000/svg" version="1.1" viewBox="0 0 1024 1024"><g transform="scale(1, -1) translate(0, -900)"><path d="M 700 529 Q 701 381 702 118 Q 701 93 688 84 Q 682 80 601 93 Q 568 103 571 93 Q 572 86 594 72 Q 664 24 683 -5 Q 705 -39 721 -38 Q 736 -39 749 -4 Q 765 42 761 114 Q 746 325 749 536 L 750 584 Q 750 701 767 757 Q 783 788 728 809 Q 694 828 675 820 Q 657 813 674 791 Q 696 764 697 730 Q 698 712 700 573 L 700 529 Z" fill="black" /></g></svg>