<?xml version='1.0' encoding='utf-8'?>
<svg xmlns="http://www.w3.org/2000/svg" version="1.1" viewBox="0 0 1024 1024"><g transform="scale(1, -1) translate(0, -900)"><path d="M 304 122 Q 346 53 357 56 Q 370 59 386 96 Q 402 139 396 191 Q 387 299 381 531 Q 380 592 396 623 Q 406 639 398 651 Q 391 661 342 676 Q 318 685 302 675 Q 248 651 203 640 C 174 632 188 607 217 614 Q 218 615 224 616 Q 251 622 283 631 Q 311 640 322 630 Q 338 614 338 553 Q 342 300 331 160 Q 332 150 329 143 C 326 113 288 147 304 122 Z" fill="black" /></g></svg>