<?xml version='1.0' encoding='utf-8'?>
<svg xmlns="http://www.w3.org/2000/svg" version="1.1" viewBox="0 0 1024 1024"><g transform="scale(1, -1) translate(0, -900)"><path d="M 591 506 Q 598 487 613 489 Q 629 490 638 508 Q 654 529 681 631 Q 700 691 743 725 Q 765 744 747 762 Q 726 781 668 813 Q 653 823 587 808 Q 526 802 407 776 Q 355 766 318 759 C 289 753 308 710 336 720 Q 375 739 587 768 Q 618 771 628 765 Q 641 758 634 719 Q 606 575 593 547 Q 592 544 591 541 C 582 517 582 517 591 506 Z" fill="black" /></g></svg>