<?xml version='1.0' encoding='utf-8'?>
<svg xmlns="http://www.w3.org/2000/svg" version="1.1" viewBox="0 0 1024 1024"><g transform="scale(1, -1) translate(0, -900)"><path d="M 273 174 Q 286 152 300 131 Q 316 106 325 108 Q 338 109 353 145 Q 368 182 364 232 Q 349 584 375 631 Q 387 650 377 662 Q 370 674 316 690 Q 291 700 271 689 Q 219 664 176 652 C 147 643 158 613 187 621 Q 283 648 292 642 L 293 641 Q 308 628 307 572 Q 308 346 298 223 Q 299 204 291 200 C 281 172 268 183 273 174 Z" fill="black" /></g></svg>