<?xml version='1.0' encoding='utf-8'?>
<svg xmlns="http://www.w3.org/2000/svg" version="1.1" viewBox="0 0 1024 1024"><g transform="scale(1, -1) translate(0, -900)"><path d="M 606 421 Q 649 439 740 462 Q 750 463 757 460 Q 770 453 768 430 Q 764 375 734 276 Q 730 254 710 258 Q 676 271 651 282 Q 636 286 638 277 Q 639 267 661 244 Q 695 207 715 167 Q 724 157 735 160 Q 744 163 762 189 Q 784 222 799 288 Q 817 424 835 442 Q 847 451 842 462 Q 835 475 800 500 Q 785 510 726 494 Q 708 494 598 461 C 569 452 578 410 606 421 Z" fill="black" /></g></svg>