<?xml version='1.0' encoding='utf-8'?>
<svg xmlns="http://www.w3.org/2000/svg" version="1.1" viewBox="0 0 1024 1024"><g transform="scale(1, -1) translate(0, -900)"><path d="M 289 410 Q 261 437 238 441 Q 225 442 218 438 Q 208 429 220 415 Q 248 367 243 276 Q 239 243 224 223 Q 211 199 220 175 Q 233 141 252 127 Q 264 120 277 140 Q 317 189 454 313 Q 473 329 475 337 Q 476 352 454 339 Q 313 255 301 259 Q 291 265 292 287 Q 295 360 299 378 Q 300 385 299 390 C 300 401 300 401 289 410 Z" fill="black" /></g></svg>