<?xml version='1.0' encoding='utf-8'?>
<svg xmlns="http://www.w3.org/2000/svg" version="1.1" viewBox="0 0 1024 1024"><g transform="scale(1, -1) translate(0, -900)"><path d="M 591 545 Q 607 517 624 509 Q 634 499 653 522 Q 669 546 706 676 Q 716 709 743 735 Q 756 748 745 764 Q 729 783 684 812 Q 665 822 598 807 Q 565 804 448 780 Q 397 770 353 763 C 323 758 342 717 371 726 Q 428 745 601 769 Q 632 773 642 763 Q 654 747 651 732 Q 624 608 613 589 Q 607 579 596 574 C 580 561 580 561 591 545 Z" fill="black" /></g></svg>