<?xml version='1.0' encoding='utf-8'?>
<svg xmlns="http://www.w3.org/2000/svg" version="1.1" viewBox="0 0 1024 1024"><g transform="scale(1, -1) translate(0, -900)"><path d="M 688 81 Q 678 78 621 98 Q 611 102 611 96 Q 610 92 621 81 Q 657 36 672 5 Q 679 -14 692 -15 Q 713 -16 733 7 Q 808 73 827 252 Q 837 348 842 486 Q 842 523 864 550 Q 877 565 877 573 Q 876 582 854 596 Q 826 617 788 628 Q 766 637 707 617 Q 695 616 682 611 Q 648 604 541 583 C 512 577 494 562 524 559 Q 554 550 697 569 Q 754 576 763 568 Q 787 523 770 298 Q 758 183 725 119 Q 709 83 688 81 Z" fill="black" /></g></svg>