<?xml version='1.0' encoding='utf-8'?>
<svg xmlns="http://www.w3.org/2000/svg" version="1.1" viewBox="0 0 1024 1024"><g transform="scale(1, -1) translate(0, -900)"><path d="M 276 310 Q 277 359 279 368 Q 283 386 271 395 Q 259 407 216 419 Q 200 422 193 417 Q 186 410 197 392 Q 237 335 220 196 Q 210 136 165 90 Q 153 80 159 57 Q 166 29 180 15 Q 190 5 205 19 Q 262 73 424 176 Q 440 185 444 194 Q 447 200 440 200 Q 428 200 291 143 Q 279 139 276 143 Q 272 144 273 156 Q 274 234 275 283 L 276 310 Z" fill="black" /></g></svg>