<?xml version='1.0' encoding='utf-8'?>
<svg xmlns="http://www.w3.org/2000/svg" version="1.1" viewBox="0 0 1024 1024"><g transform="scale(1, -1) translate(0, -900)"><path d="M 278 150 Q 291 129 304 109 Q 322 85 329 88 Q 342 91 357 127 Q 372 167 367 219 Q 358 322 352 549 Q 351 607 366 637 Q 376 656 368 667 Q 359 677 308 692 Q 283 701 266 689 Q 209 661 162 649 C 133 641 149 615 178 622 Q 199 626 250 644 Q 278 653 288 645 Q 304 630 304 572 Q 310 329 301 197 Q 304 178 293 175 C 281 147 275 154 278 150 Z" fill="black" /></g></svg>