<?xml version='1.0' encoding='utf-8'?>
<svg xmlns="http://www.w3.org/2000/svg" version="1.1" viewBox="0 0 1024 1024"><g transform="scale(1, -1) translate(0, -900)"><path d="M 621 495 Q 621 488 624 481 Q 630 463 644 465 Q 660 466 668 483 Q 684 504 709 602 Q 728 660 769 693 Q 791 712 773 729 Q 752 748 696 778 Q 681 788 610 774 Q 484 759 429 748 Q 371 738 328 733 C 298 729 312 692 342 695 Q 349 694 358 696 Q 437 718 615 734 Q 646 735 657 729 Q 669 722 663 685 Q 638 547 626 520 Q 625 520 625 519 L 621 495 Z" fill="black" /></g></svg>