<?xml version='1.0' encoding='utf-8'?>
<svg xmlns="http://www.w3.org/2000/svg" version="1.1" viewBox="0 0 1024 1024"><g transform="scale(1, -1) translate(0, -900)"><path d="M 631 386 Q 631 385 633 384 Q 646 377 695 369 Q 726 365 737 348 Q 752 318 700 159 Q 673 84 644 74 Q 632 68 618 69 Q 605 73 572 84 Q 529 97 526 90 Q 522 80 541 69 Q 592 38 614 -8 Q 621 -26 634 -32 Q 649 -38 684 -11 Q 729 31 767 163 Q 791 301 821 319 Q 833 325 835 335 Q 836 345 810 373 Q 770 413 719 404 Q 677 408 648 418 C 619 426 603 398 631 386 Z" fill="black" /></g></svg>