<?xml version='1.0' encoding='utf-8'?>
<svg xmlns="http://www.w3.org/2000/svg" version="1.1" viewBox="0 0 1024 1024"><g transform="scale(1, -1) translate(0, -900)"><path d="M 661 66 Q 671 38 692 -13 Q 699 -32 711 -32 Q 727 -31 740 -3 Q 776 58 786 145 Q 796 199 806 261 Q 813 315 839 348 Q 858 370 845 385 Q 821 410 769 435 Q 748 447 711 434 Q 615 404 505 387 Q 403 375 250 371 C 220 370 261 322 291 324 Q 304 323 314 325 Q 458 350 682 378 Q 722 385 738 365 Q 762 310 712 108 Q 708 89 700 87 C 686 60 650 94 661 66 Z" fill="black" /></g></svg>