<?xml version='1.0' encoding='utf-8'?>
<svg xmlns="http://www.w3.org/2000/svg" version="1.1" viewBox="0 0 1024 1024"><g transform="scale(1, -1) translate(0, -900)"><path d="M 573 17 Q 603 -22 623 -58 Q 633 -77 644 -77 Q 662 -76 678 -41 Q 697 -1 695 48 Q 671 273 700 308 Q 710 321 700 332 Q 681 353 627 378 Q 608 388 592 378 Q 522 345 375 325 C 345 321 367 288 397 292 Q 413 293 435 299 Q 510 312 574 325 Q 599 329 612 321 Q 636 300 619 52 Q 615 36 605 38 C 584 16 568 24 573 17 Z" fill="black" /></g></svg>