<?xml version='1.0' encoding='utf-8'?>
<svg xmlns="http://www.w3.org/2000/svg" version="1.1" viewBox="0 0 1024 1024"><g transform="scale(1, -1) translate(0, -900)"><path d="M 613 724 Q 617 727 625 728 Q 682 740 737 753 Q 759 757 764 746 Q 782 701 789 376 Q 790 115 778 95 Q 774 88 754 93 Q 720 103 684 114 Q 663 121 664 111 Q 731 54 769 13 Q 782 -8 799 -12 Q 809 -16 818 -6 Q 860 52 858 103 Q 842 311 834 648 Q 831 709 846 736 Q 858 757 845 768 Q 823 787 783 802 Q 764 809 747 801 Q 693 771 608 757 C 579 751 584 717 613 724 Z" fill="black" /></g></svg>