<?xml version='1.0' encoding='utf-8'?>
<svg xmlns="http://www.w3.org/2000/svg" version="1.1" viewBox="0 0 1024 1024"><g transform="scale(1, -1) translate(0, -900)"><path d="M 572 35 Q 602 -5 623 -42 Q 633 -61 644 -61 Q 662 -60 678 -25 Q 697 15 695 64 Q 689 127 683 245 Q 682 276 700 300 Q 710 313 700 324 Q 681 345 627 370 Q 608 380 592 370 Q 520 337 379 317 C 349 313 361 280 391 284 Q 400 284 574 317 Q 599 321 612 313 Q 622 303 623 107 Q 620 82 620 68 Q 616 52 602 55 C 576 40 570 37 572 35 Z" fill="black" /></g></svg>