<?xml version='1.0' encoding='utf-8'?>
<svg xmlns="http://www.w3.org/2000/svg" version="1.1" viewBox="0 0 1024 1024"><g transform="scale(1, -1) translate(0, -900)"><path d="M 619 544 Q 619 540 621 533 Q 627 517 640 517 Q 655 518 663 533 Q 676 549 703 628 Q 722 683 763 713 Q 784 729 767 747 Q 748 766 696 796 Q 681 805 610 792 Q 574 792 442 769 Q 351 756 303 760 C 273 761 333 715 363 719 Q 370 719 376 720 Q 449 741 619 755 Q 649 756 659 751 Q 669 744 662 712 Q 635 594 624 570 Q 623 570 623 569 C 616 552 616 552 619 544 Z" fill="black" /></g></svg>