<?xml version='1.0' encoding='utf-8'?>
<svg xmlns="http://www.w3.org/2000/svg" version="1.1" viewBox="0 0 1024 1024"><g transform="scale(1, -1) translate(0, -900)"><path d="M 575 318 Q 630 327 682 331 Q 700 332 703 323 Q 709 310 705 279 Q 690 162 666 102 Q 653 63 639 52 Q 626 39 595 47 Q 567 54 541 61 Q 516 68 533 45 Q 573 -4 595 -40 Q 604 -61 624 -56 Q 640 -55 661 -36 Q 722 19 764 233 Q 774 282 795 308 Q 814 329 805 340 Q 790 361 755 379 Q 730 394 701 383 Q 536 323 364 327 C 334 327 327 327 348 310 Q 357 298 375 289 C 389 279 389 279 414 285 Q 474 301 533 310 L 575 318 Z" fill="black" /></g></svg>