<?xml version='1.0' encoding='utf-8'?>
<svg xmlns="http://www.w3.org/2000/svg" version="1.1" viewBox="0 0 1024 1024"><g transform="scale(1, -1) translate(0, -900)"><path d="M 344 303 Q 371 333 430 432 Q 431 436 435 442 L 453 481 Q 469 521 480 562 L 489 605 Q 496 644 508 681 L 518 727 Q 525 755 540 781 Q 550 800 533 811 Q 484 853 453 844 Q 437 840 444 822 Q 459 786 454 714 L 449 670 Q 445 634 434 594 L 422 552 Q 404 495 393 473 L 371 430 Q 284 277 143 202 Q 127 190 108 178 Q 93 168 107 165 Q 156 162 266 235 Q 309 271 330 289 L 344 303 Z" fill="black" /></g></svg>