<?xml version='1.0' encoding='utf-8'?>
<svg xmlns="http://www.w3.org/2000/svg" version="1.1" viewBox="0 0 1024 1024"><g transform="scale(1, -1) translate(0, -900)"><path d="M 602 314 Q 602 318 603 321 Q 603 322 604 322 L 607 357 Q 610 387 612 419 Q 613 476 616 530 L 618 566 Q 619 707 648 774 Q 655 789 643 800 Q 621 819 579 831 Q 554 838 544 830 Q 534 823 542 810 Q 566 773 569 723 Q 573 638 571 554 L 570 520 Q 569 457 562 396 Q 561 374 557 351 L 551 314 Q 521 163 409 76 Q 372 48 321 19 Q 308 12 308 7 Q 309 3 322 3 Q 340 -1 385 16 Q 547 70 595 274 L 602 314 Z" fill="black" /></g></svg>