<?xml version='1.0' encoding='utf-8'?>
<svg xmlns="http://www.w3.org/2000/svg" version="1.1" viewBox="0 0 1024 1024"><g transform="scale(1, -1) translate(0, -900)"><path d="M 555 18 Q 583 -18 604 -52 Q 614 -70 624 -69 Q 640 -68 656 -34 Q 674 3 671 51 Q 664 112 656 225 Q 655 256 671 278 Q 680 291 671 301 Q 652 320 600 344 Q 582 353 567 343 Q 501 313 372 291 C 342 286 369 256 399 260 Q 415 261 439 268 Q 574 298 587 289 Q 599 271 600 64 Q 599 58 599 53 Q 595 38 581 40 C 554 26 550 24 555 18 Z" fill="black" /></g></svg>