<?xml version='1.0' encoding='utf-8'?>
<svg xmlns="http://www.w3.org/2000/svg" version="1.1" viewBox="0 0 1024 1024"><g transform="scale(1, -1) translate(0, -900)"><path d="M 610 660 Q 689 682 755 692 Q 776 695 780 689 Q 790 674 784 637 Q 774 534 748 488 Q 732 457 704 461 Q 680 468 659 477 Q 634 486 651 461 Q 693 418 711 384 Q 730 362 748 380 Q 811 422 837 583 Q 843 658 866 689 Q 879 702 872 713 Q 862 725 810 747 Q 789 756 769 742 Q 747 729 656 707 Q 566 683 490 678 Q 472 677 469 668 Q 468 659 492 648 Q 517 632 537 640 Q 553 646 574 650 L 610 660 Z" fill="black" /></g></svg>