<?xml version='1.0' encoding='utf-8'?>
<svg xmlns="http://www.w3.org/2000/svg" version="1.1" viewBox="0 0 1024 1024"><g transform="scale(1, -1) translate(0, -900)"><path d="M 284 161 Q 297 139 312 117 Q 330 93 337 96 Q 350 99 364 133 Q 379 172 373 222 Q 346 570 374 621 Q 384 640 376 651 Q 369 661 316 676 Q 291 685 274 674 Q 225 649 183 637 C 154 628 164 603 193 609 Q 214 612 263 629 Q 287 636 296 629 Q 311 616 311 560 Q 317 331 309 205 Q 312 186 300 183 C 286 158 282 164 284 161 Z" fill="black" /></g></svg>