<?xml version='1.0' encoding='utf-8'?>
<svg xmlns="http://www.w3.org/2000/svg" version="1.1" viewBox="0 0 1024 1024"><g transform="scale(1, -1) translate(0, -900)"><path d="M 297 249 Q 307 233 319 216 Q 334 194 341 196 Q 351 197 365 229 Q 371 250 373 318 Q 354 609 378 656 Q 388 672 380 683 Q 373 693 326 706 Q 304 713 288 704 Q 227 674 177 663 C 148 656 164 632 193 640 Q 194 641 197 641 Q 228 650 264 662 Q 295 672 308 663 Q 321 651 320 603 Q 324 404 316 295 Q 319 279 308 275 C 296 251 296 251 297 249 Z" fill="black" /></g></svg>