<?xml version='1.0' encoding='utf-8'?>
<svg xmlns="http://www.w3.org/2000/svg" version="1.1" viewBox="0 0 1024 1024"><g transform="scale(1, -1) translate(0, -900)"><path d="M 265 191 Q 275 173 288 155 Q 304 130 313 132 Q 325 133 339 166 Q 352 202 350 248 Q 346 339 344 541 Q 344 593 359 620 Q 371 639 362 651 Q 355 661 300 679 Q 275 689 256 678 Q 207 654 167 645 C 138 637 154 611 184 616 Q 196 617 247 630 Q 269 636 277 628 Q 290 616 290 566 Q 294 359 285 246 Q 289 221 267 224 C 250 216 250 216 265 191 Z" fill="black" /></g></svg>