<?xml version='1.0' encoding='utf-8'?>
<svg xmlns="http://www.w3.org/2000/svg" version="1.1" viewBox="0 0 1024 1024"><g transform="scale(1, -1) translate(0, -900)"><path d="M 613 408 Q 614 409 618 410 Q 694 431 748 439 Q 760 440 762 437 Q 772 424 767 388 Q 760 289 738 245 Q 723 218 700 221 Q 672 234 646 247 Q 624 257 638 233 Q 684 184 705 145 Q 724 126 740 142 Q 791 181 813 294 Q 828 418 844 439 Q 854 452 849 461 Q 840 471 793 490 Q 774 497 757 485 Q 727 467 598 443 C 569 437 584 399 613 408 Z" fill="black" /></g></svg>