<?xml version='1.0' encoding='utf-8'?>
<svg xmlns="http://www.w3.org/2000/svg" version="1.1" viewBox="0 0 1024 1024"><g transform="scale(1, -1) translate(0, -900)"><path d="M 411 443 Q 411 572 424 595 Q 437 614 424 625 Q 403 644 367 658 Q 349 665 333 658 Q 306 642 288 635 Q 263 625 206 616 Q 190 615 200 606 Q 209 596 224 590 Q 239 587 305 606 Q 342 618 349 609 Q 361 570 359 324 Q 356 120 340 97 Q 336 91 315 96 Q 285 103 255 111 Q 236 117 236 107 Q 297 58 332 21 Q 345 2 360 -3 Q 370 -7 378 3 Q 420 51 418 106 Q 411 226 411 403 L 411 443 Z" fill="black" /></g></svg>