<?xml version='1.0' encoding='utf-8'?>
<svg xmlns="http://www.w3.org/2000/svg" version="1.1" viewBox="0 0 1024 1024"><g transform="scale(1, -1) translate(0, -900)"><path d="M 948 117 Q 930 163 919 241 Q 918 257 910 262 Q 901 266 898 247 Q 882 150 867 133 Q 842 106 730 101 Q 670 102 644 112 Q 622 124 616 139 Q 604 169 605 253 L 608 287 Q 614 351 628 382 Q 641 413 622 429 Q 571 468 556 464 Q 541 458 548 441 Q 567 404 563 348 Q 556 137 583 102 Q 604 69 679 57 Q 734 48 821 51 Q 899 54 930 70 Q 960 86 948 117 Z" fill="black" /></g></svg>