<?xml version='1.0' encoding='utf-8'?>
<svg xmlns="http://www.w3.org/2000/svg" version="1.1" viewBox="0 0 1024 1024"><g transform="scale(1, -1) translate(0, -900)"><path d="M 302 186 Q 312 168 325 150 Q 341 125 349 128 Q 362 129 377 165 Q 392 202 388 252 Q 382 351 382 565 Q 382 620 397 649 Q 409 667 400 678 Q 393 690 341 705 Q 316 715 299 704 Q 247 680 200 670 C 171 663 184 633 213 641 Q 217 642 222 644 Q 249 650 281 659 Q 309 666 319 658 Q 334 643 333 589 Q 334 363 323 237 Q 324 222 317 217 C 308 188 298 192 302 186 Z" fill="black" /></g></svg>