<?xml version='1.0' encoding='utf-8'?>
<svg xmlns="http://www.w3.org/2000/svg" version="1.1" viewBox="0 0 1024 1024"><g transform="scale(1, -1) translate(0, -900)"><path d="M 886 74 L 876 74 Q 837 40 698 32 Q 619 33 585 45 Q 555 58 548 79 Q 530 133 556 227 Q 568 281 567 284 Q 564 293 533 315 C 509 333 472 339 483 311 Q 502 272 499 216 Q 492 75 514 43 Q 541 -2 637 -13 Q 704 -22 808 -14 Q 902 -7 939 15 Q 969 31 956 61 Q 937 113 927 201 Q 926 217 918 222 Q 909 226 906 207 Q 891 98 875 77 L 886 74 Z" fill="black" /></g></svg>