<?xml version='1.0' encoding='utf-8'?>
<svg xmlns="http://www.w3.org/2000/svg" version="1.1" viewBox="0 0 1024 1024"><g transform="scale(1, -1) translate(0, -900)"><path d="M 590 22 Q 653 -24 860 0 Q 888 6 911 13 Q 939 17 947 33 Q 951 42 942 64 Q 923 104 907 192 Q 904 207 896 213 Q 890 216 887 202 Q 872 153 859 111 Q 847 77 825 64 Q 786 40 671 47 Q 640 50 628 57 Q 601 73 594 107 Q 584 153 588 254 Q 592 365 612 414 Q 619 433 610 446 Q 597 459 559 476 Q 526 488 516 478 Q 507 471 521 449 Q 542 418 540 371 Q 540 274 540 164 Q 537 67 590 22 Z" fill="black" /></g></svg>