<?xml version='1.0' encoding='utf-8'?>
<svg xmlns="http://www.w3.org/2000/svg" version="1.1" viewBox="0 0 1024 1024"><g transform="scale(1, -1) translate(0, -900)"><path d="M 256 162 Q 269 141 282 121 Q 298 97 305 100 Q 318 103 332 137 Q 347 176 343 225 Q 318 573 348 626 Q 358 644 350 654 Q 343 664 294 680 Q 270 687 254 678 Q 206 656 167 645 C 138 636 148 609 177 617 Q 181 618 188 620 Q 212 626 240 635 Q 265 642 274 634 Q 289 621 288 564 Q 291 332 279 204 Q 280 197 279 191 C 278 161 240 187 256 162 Z" fill="black" /></g></svg>