<?xml version='1.0' encoding='utf-8'?>
<svg xmlns="http://www.w3.org/2000/svg" version="1.1" viewBox="0 0 1024 1024"><g transform="scale(1, -1) translate(0, -900)"><path d="M 451 448 Q 466 463 668 498 Q 713 505 797 514 Q 807 515 813 510 Q 823 503 825 457 Q 837 261 816 150 Q 810 114 780 117 Q 743 123 708 128 Q 695 132 694 125 Q 694 118 705 108 Q 783 53 805 24 Q 818 8 828 11 Q 844 15 856 44 Q 886 104 890 279 Q 886 480 897 507 Q 913 529 900 534 Q 884 549 845 563 Q 821 578 778 559 Q 558 520 500 500 L 470 493 Q 451 490 432 485 C 403 479 423 437 451 448 Z" fill="black" /></g></svg>