<?xml version='1.0' encoding='utf-8'?>
<svg xmlns="http://www.w3.org/2000/svg" version="1.1" viewBox="0 0 1024 1024"><g transform="scale(1, -1) translate(0, -900)"><path d="M 575 54 Q 606 14 628 -23 Q 638 -42 648 -41 Q 664 -40 681 -6 Q 699 31 696 78 Q 689 151 683 289 Q 682 320 698 342 Q 708 355 698 364 Q 679 383 628 407 Q 610 417 595 407 Q 520 373 382 352 C 352 347 367 314 396 320 Q 400 320 576 357 Q 601 363 615 353 Q 642 326 624 82 Q 623 78 619 73 C 611 44 557 78 575 54 Z" fill="black" /></g></svg>