<?xml version='1.0' encoding='utf-8'?>
<svg xmlns="http://www.w3.org/2000/svg" version="1.1" viewBox="0 0 1024 1024"><g transform="scale(1, -1) translate(0, -900)"><path d="M 273 201 Q 283 185 295 167 Q 310 145 317 148 Q 330 151 343 185 Q 358 224 352 272 Q 345 371 337 584 Q 336 639 351 668 Q 361 684 353 695 Q 346 705 299 718 Q 277 725 261 716 Q 222 697 189 687 C 161 677 170 655 199 661 Q 277 676 279 676 L 280 675 Q 295 660 295 605 Q 301 373 291 246 Q 292 237 290 232 C 288 202 260 222 273 201 Z" fill="black" /></g></svg>