<?xml version='1.0' encoding='utf-8'?>
<svg xmlns="http://www.w3.org/2000/svg" version="1.1" viewBox="0 0 1024 1024"><g transform="scale(1, -1) translate(0, -900)"><path d="M 613 252 Q 604 122 595 91 Q 586 55 618 4 L 620 1 Q 632 -18 640 -22 Q 652 -23 657 -10 Q 670 21 666 53 Q 663 162 663 257 L 663 300 Q 663 361 665 391 L 666 431 Q 667 462 672 479 Q 673 492 667 498 Q 643 519 624 528 Q 611 532 602 524 Q 596 521 604 511 Q 614 493 616 420 L 616 383 Q 616 344 615 293 L 613 252 Z" fill="black" /></g></svg>