<?xml version='1.0' encoding='utf-8'?>
<svg xmlns="http://www.w3.org/2000/svg" version="1.1" viewBox="0 0 1024 1024"><g transform="scale(1, -1) translate(0, -900)"><path d="M 249 178 Q 264 156 278 133 Q 294 109 301 112 Q 314 115 329 150 Q 344 189 339 239 Q 314 593 344 646 Q 354 664 346 674 Q 339 684 290 700 Q 266 707 250 698 Q 195 673 152 663 C 123 655 140 629 169 637 Q 173 638 180 640 Q 205 646 234 655 Q 261 662 270 654 Q 285 639 284 583 Q 287 346 275 216 Q 276 209 274 203 C 272 173 232 203 249 178 Z" fill="black" /></g></svg>