<?xml version='1.0' encoding='utf-8'?>
<svg xmlns="http://www.w3.org/2000/svg" version="1.1" viewBox="0 0 1024 1024"><g transform="scale(1, -1) translate(0, -900)"><path d="M 281 229 Q 291 213 303 195 Q 318 173 325 176 Q 338 179 351 213 Q 366 252 360 300 Q 353 399 345 612 Q 344 667 359 696 Q 369 712 361 723 Q 354 733 307 746 Q 285 755 269 745 Q 226 724 190 715 C 161 707 170 683 199 689 Q 283 705 286 705 L 288 703 Q 303 688 303 633 Q 309 401 299 274 Q 300 265 298 260 C 296 230 268 250 281 229 Z" fill="black" /></g></svg>