<?xml version='1.0' encoding='utf-8'?>
<svg xmlns="http://www.w3.org/2000/svg" version="1.1" viewBox="0 0 1024 1024"><g transform="scale(1, -1) translate(0, -900)"><path d="M 485 120 Q 416 56 287 26 Q 236 20 233 16 Q 226 13 235 7 Q 239 4 254 4 Q 342 0 410 21 Q 473 39 530 96 L 561 135 Q 600 213 612 249 Q 618 268 625 281 C 635 303 635 303 617 322 Q 584 359 563 356 Q 553 353 554 342 Q 555 329 556 314 L 553 277 Q 552 265 549 251 Q 540 206 515 164 Q 512 160 510 154 L 485 120 Z" fill="black" /></g></svg>