<?xml version='1.0' encoding='utf-8'?>
<svg xmlns="http://www.w3.org/2000/svg" version="1.1" viewBox="0 0 1024 1024"><g transform="scale(1, -1) translate(0, -900)"><path d="M 665 391 Q 669 397 789 408 Q 826 411 827 421 Q 828 434 802 449 Q 780 461 724 446 Q 696 439 666 431 L 616 420 Q 571 413 522 403 Q 509 402 508 405 Q 507 406 512 418 Q 534 464 574 551 L 596 600 Q 611 634 626 645 Q 642 657 633 667 Q 588 712 566 711 Q 557 711 561 692 Q 565 668 543 588 L 528 544 Q 492 447 451 411 Q 432 396 445 356 Q 449 343 464 348 Q 524 369 616 383 L 665 391 Z" fill="black" /></g></svg>