<?xml version='1.0' encoding='utf-8'?>
<svg xmlns="http://www.w3.org/2000/svg" version="1.1" viewBox="0 0 1024 1024"><g transform="scale(1, -1) translate(0, -900)"><path d="M 277 152 Q 287 136 298 121 Q 314 97 321 100 Q 333 103 348 137 Q 360 171 354 266 Q 336 569 360 614 Q 370 632 363 643 Q 356 653 307 669 Q 283 678 266 668 Q 223 647 186 639 C 157 632 166 607 196 612 Q 208 613 258 624 Q 279 628 286 622 Q 299 609 300 554 Q 304 328 295 204 Q 296 191 291 185 C 285 156 271 160 277 152 Z" fill="black" /></g></svg>