<?xml version='1.0' encoding='utf-8'?>
<svg xmlns="http://www.w3.org/2000/svg" version="1.1" viewBox="0 0 1024 1024"><g transform="scale(1, -1) translate(0, -900)"><path d="M 757 130 Q 767 105 795 52 Q 805 34 815 36 Q 831 40 839 66 Q 872 135 882 348 Q 886 399 909 430 Q 925 451 913 465 Q 889 487 840 506 Q 821 516 787 503 Q 733 484 678 469 L 644 461 Q 628 460 612 455 Q 593 452 574 449 L 536 443 Q 472 439 395 431 C 365 428 393 388 423 393 Q 424 393 532 410 L 569 417 Q 603 424 642 430 L 677 437 Q 717 444 763 451 Q 797 458 811 442 Q 839 388 805 170 Q 804 149 795 147 Q 794 146 789 147 C 769 124 751 143 757 130 Z" fill="black" /></g></svg>