<?xml version='1.0' encoding='utf-8'?>
<svg xmlns="http://www.w3.org/2000/svg" version="1.1" viewBox="0 0 1024 1024"><g transform="scale(1, -1) translate(0, -900)"><path d="M 907 461 Q 891 503 878 575 Q 877 590 869 594 Q 862 598 859 580 Q 847 490 834 474 Q 819 458 748 453 Q 709 453 693 459 Q 668 471 663 541 L 662 590 Q 666 678 682 720 Q 692 748 676 763 Q 630 797 616 793 Q 603 789 609 772 Q 627 738 623 688 Q 622 606 622 552 L 624 517 Q 627 457 653 435 Q 687 407 812 406 Q 869 407 892 418 Q 920 433 907 461 Z" fill="black" /></g></svg>