<?xml version='1.0' encoding='utf-8'?>
<svg xmlns="http://www.w3.org/2000/svg" version="1.1" viewBox="0 0 1024 1024"><g transform="scale(1, -1) translate(0, -900)"><path d="M 293 214 Q 305 195 318 177 Q 334 153 341 156 Q 353 159 367 192 Q 377 220 373 338 Q 358 629 380 666 Q 390 684 382 695 Q 375 705 326 719 Q 302 728 285 718 Q 230 691 184 680 C 155 672 167 646 196 654 Q 295 681 305 675 L 306 674 Q 319 661 320 606 Q 324 383 315 260 Q 318 242 309 239 C 299 211 288 221 293 214 Z" fill="black" /></g></svg>