<?xml version='1.0' encoding='utf-8'?>
<svg xmlns="http://www.w3.org/2000/svg" version="1.1" viewBox="0 0 1024 1024"><g transform="scale(1, -1) translate(0, -900)"><path d="M 965 73 Q 949 104 926 198 Q 925 214 917 218 Q 910 221 907 203 Q 889 101 872 68 Q 836 34 740 39 Q 701 42 672 54 Q 647 67 639 83 Q 621 125 648 257 Q 654 287 606 307 Q 593 311 585 307 Q 578 303 583 285 Q 596 246 592 210 Q 583 98 592 65 Q 596 43 617 23 Q 690 -38 856 -13 Q 868 -10 881 -7 Q 921 3 960 30 Q 979 46 965 73 Z" fill="black" /></g></svg>