<?xml version='1.0' encoding='utf-8'?>
<svg xmlns="http://www.w3.org/2000/svg" version="1.1" viewBox="0 0 1024 1024"><g transform="scale(1, -1) translate(0, -900)"><path d="M 673 585 Q 685 619 696 642 L 721 687 Q 731 703 745 711 Q 763 729 749 747 Q 676 807 624 782 Q 584 770 546 759 L 486 748 Q 413 738 337 732 Q 321 731 323 721 Q 324 714 342 707 Q 366 697 399 706 Q 442 713 487 720 L 542 729 Q 578 736 615 742 Q 643 748 653 736 Q 663 726 659 704 Q 655 691 651 676 L 641 640 Q 634 616 625 593 C 615 565 663 557 673 585 Z" fill="black" /></g></svg>