<?xml version='1.0' encoding='utf-8'?>
<svg xmlns="http://www.w3.org/2000/svg" version="1.1" viewBox="0 0 1024 1024"><g transform="scale(1, -1) translate(0, -900)"><path d="M 525 397 Q 526 425 528 453 L 530 487 Q 531 515 533 541 L 534 574 Q 535 604 537 632 L 538 659 Q 538 687 541 713 Q 541 722 542 729 L 546 759 Q 547 769 549 776 Q 556 798 559 814 Q 563 826 542 840 Q 508 859 482 863 Q 466 867 458 858 Q 451 851 459 835 Q 484 796 485 770 Q 485 760 486 748 L 487 720 Q 488 687 489 653 L 489 626 Q 489 596 489 565 L 488 535 Q 487 507 486 477 L 485 445 Q 484 418 483 389 C 482 359 524 367 525 397 Z" fill="black" /></g></svg>