<?xml version='1.0' encoding='utf-8'?>
<svg xmlns="http://www.w3.org/2000/svg" version="1.1" viewBox="0 0 1024 1024"><g transform="scale(1, -1) translate(0, -900)"><path d="M 308 240 Q 321 233 335 237 Q 407 261 415 253 Q 419 246 418 224 Q 414 166 401 141 Q 385 113 359 118 Q 335 127 314 136 Q 292 145 306 122 Q 346 80 363 49 Q 375 33 388 43 Q 431 67 461 166 Q 471 226 492 249 Q 502 259 498 269 Q 491 279 446 299 Q 437 305 395 289 Q 319 271 314 269 C 285 261 279 249 308 240 Z" fill="black" /></g></svg>