<?xml version='1.0' encoding='utf-8'?>
<svg xmlns="http://www.w3.org/2000/svg" version="1.1" viewBox="0 0 1024 1024"><g transform="scale(1, -1) translate(0, -900)"><path d="M 582 579 Q 598 554 612 545 Q 622 538 638 557 Q 653 578 687 693 Q 697 724 721 747 Q 734 759 723 773 Q 710 789 668 817 Q 649 827 633 821 Q 602 814 560 808 Q 505 799 436 788 Q 379 778 334 770 C 304 765 334 733 363 740 Q 444 761 588 779 Q 619 783 630 772 Q 640 759 638 745 Q 608 621 592 607 C 578 584 578 584 582 579 Z" fill="black" /></g></svg>