<?xml version='1.0' encoding='utf-8'?>
<svg xmlns="http://www.w3.org/2000/svg" version="1.1" viewBox="0 0 1024 1024"><g transform="scale(1, -1) translate(0, -900)"><path d="M 269 176 Q 279 160 290 145 Q 306 121 313 124 Q 325 127 340 161 Q 352 195 346 290 Q 328 593 352 638 Q 362 656 355 667 Q 348 677 299 693 Q 275 702 258 692 Q 215 671 181 663 C 152 655 161 631 191 636 Q 197 636 252 648 Q 271 652 278 646 Q 291 633 292 578 Q 296 352 287 228 Q 288 215 283 209 C 277 180 264 184 269 176 Z" fill="black" /></g></svg>