<?xml version='1.0' encoding='utf-8'?>
<svg xmlns="http://www.w3.org/2000/svg" version="1.1" viewBox="0 0 1024 1024"><g transform="scale(1, -1) translate(0, -900)"><path d="M 777 412 Q 780 496 797 518 Q 815 540 802 553 Q 778 574 741 586 Q 723 593 702 585 Q 656 567 620 557 Q 584 547 534 539 C 504 534 519 503 548 509 Q 567 510 677 545 Q 696 551 711 542 Q 724 532 723 487 Q 722 444 720 403 L 718 366 Q 712 278 703 218 L 695 175 Q 682 105 669 79 Q 659 61 636 68 Q 555 84 560 90 Q 529 97 554 72 Q 597 33 630 -9 Q 652 -37 670 -25 Q 745 23 759 167 L 765 216 Q 769 270 772 324 Q 772 346 774 367 L 777 412 Z" fill="black" /></g></svg>