<?xml version='1.0' encoding='utf-8'?>
<svg xmlns="http://www.w3.org/2000/svg" version="1.1" viewBox="0 0 1024 1024"><g transform="scale(1, -1) translate(0, -900)"><path d="M 728 409 Q 756 502 794 532 Q 810 548 797 566 Q 781 579 733 603 Q 717 610 696 603 Q 651 587 610 576 L 558 565 Q 504 558 453 551 Q 437 550 438 541 Q 441 534 458 527 Q 482 517 515 527 Q 531 530 551 533 L 600 541 Q 637 550 677 556 Q 698 560 706 551 Q 716 541 712 520 Q 696 453 678 401 C 668 373 719 380 728 409 Z" fill="black" /></g></svg>