<?xml version='1.0' encoding='utf-8'?>
<svg xmlns="http://www.w3.org/2000/svg" version="1.1" viewBox="0 0 1024 1024"><g transform="scale(1, -1) translate(0, -900)"><path d="M 496 433 Q 497 482 499 535 L 501 587 Q 501 704 524 784 Q 537 808 510 828 Q 495 840 471 854 Q 449 870 430 855 Q 426 851 431 836 Q 464 785 464 734 Q 465 659 465 574 Q 464 573 464 569 L 458 429 Q 454 350 453 264 Q 447 183 425 109 Q 415 73 438 13 Q 444 -3 451 -7 Q 457 -13 464 -6 Q 471 -2 481 18 Q 491 42 490 71 Q 490 114 496 418 L 496 433 Z" fill="black" /></g></svg>