<?xml version='1.0' encoding='utf-8'?>
<svg xmlns="http://www.w3.org/2000/svg" version="1.1" viewBox="0 0 1024 1024"><g transform="scale(1, -1) translate(0, -900)"><path d="M 256 208 Q 269 189 282 169 Q 298 145 305 148 Q 317 151 331 184 Q 341 215 337 326 Q 324 608 344 650 Q 354 668 347 679 Q 340 689 291 705 Q 267 714 250 704 Q 213 685 181 675 C 153 665 158 643 188 648 Q 266 661 269 659 L 270 658 Q 283 645 284 592 Q 288 372 279 252 Q 282 234 273 231 C 263 203 250 217 256 208 Z" fill="black" /></g></svg>