<?xml version='1.0' encoding='utf-8'?>
<svg xmlns="http://www.w3.org/2000/svg" version="1.1" viewBox="0 0 1024 1024"><g transform="scale(1, -1) translate(0, -900)"><path d="M 306 252 Q 306 259 306 266 Q 285 605 312 657 Q 322 673 315 682 Q 308 692 264 705 Q 243 712 228 704 Q 186 685 150 675 C 121 666 130 643 159 650 Q 162 651 167 652 Q 189 656 214 665 Q 238 672 246 664 Q 264 646 256 390 Q 253 303 247 237 C 244 207 208 226 224 201 Q 236 182 248 163 Q 261 141 269 144 Q 281 145 296 180 Q 303 204 306 230 L 306 252 Z" fill="black" /></g></svg>