<?xml version='1.0' encoding='utf-8'?>
<svg xmlns="http://www.w3.org/2000/svg" version="1.1" viewBox="0 0 1024 1024"><g transform="scale(1, -1) translate(0, -900)"><path d="M 583 58 Q 611 21 632 -15 Q 642 -33 652 -33 Q 668 -32 685 1 Q 704 38 701 86 Q 695 153 690 281 Q 689 312 706 333 Q 715 346 706 356 Q 687 375 636 400 Q 618 409 603 400 Q 531 367 401 348 C 371 343 390 310 419 316 Q 603 353 615 349 Q 618 348 622 345 Q 647 320 629 90 Q 623 71 606 80 Q 603 81 600 83 C 571 91 565 82 583 58 Z" fill="black" /></g></svg>