<?xml version='1.0' encoding='utf-8'?>
<svg xmlns="http://www.w3.org/2000/svg" version="1.1" viewBox="0 0 1024 1024"><g transform="scale(1, -1) translate(0, -900)"><path d="M 733 77 Q 745 53 772 7 Q 781 -9 791 -7 Q 806 -4 813 21 Q 840 91 841 291 Q 845 334 865 363 Q 880 382 868 394 Q 847 413 804 430 Q 788 439 694 404 Q 631 389 572 379 C 542 374 560 343 590 348 Q 677 364 766 381 Q 767 380 772 377 Q 800 334 776 119 Q 775 100 767 97 Q 766 96 762 97 C 740 76 730 82 733 77 Z" fill="black" /></g></svg>