<?xml version='1.0' encoding='utf-8'?>
<svg xmlns="http://www.w3.org/2000/svg" version="1.1" viewBox="0 0 1024 1024"><g transform="scale(1, -1) translate(0, -900)"><path d="M 620 239 Q 624 224 635 225 Q 648 226 656 238 Q 666 248 687 300 Q 703 348 737 374 Q 756 389 741 403 Q 725 419 679 445 Q 663 455 645 448 Q 615 441 580 436 Q 552 432 526 427 L 479 418 Q 451 415 427 409 Q 372 397 334 390 C 305 384 329 350 358 359 Q 401 374 479 387 L 526 395 Q 563 402 609 407 Q 640 410 652 404 Q 659 400 654 375 Q 632 287 623 270 Q 622 269 620 265 C 612 249 612 249 620 239 Z" fill="black" /></g></svg>