<?xml version='1.0' encoding='utf-8'?>
<svg xmlns="http://www.w3.org/2000/svg" version="1.1" viewBox="0 0 1024 1024"><g transform="scale(1, -1) translate(0, -900)"><path d="M 244 187 Q 254 169 267 152 Q 282 130 289 132 Q 302 135 317 170 Q 332 210 327 260 Q 300 612 330 668 Q 340 684 332 694 Q 325 704 278 717 Q 256 724 240 714 Q 197 690 161 679 C 133 669 148 645 176 654 Q 188 657 231 674 Q 252 681 260 675 Q 275 660 274 602 Q 277 362 265 231 Q 266 219 262 214 C 257 184 233 205 244 187 Z" fill="black" /></g></svg>