<?xml version='1.0' encoding='utf-8'?>
<svg xmlns="http://www.w3.org/2000/svg" version="1.1" viewBox="0 0 1024 1024"><g transform="scale(1, -1) translate(0, -900)"><path d="M 435 365 Q 442 361 467 357 Q 504 351 500 308 Q 497 302 497 295 Q 479 159 435 91 Q 423 76 410 70 Q 397 64 358 76 Q 325 86 322 82 Q 318 73 334 65 Q 376 38 386 7 Q 390 -6 401 -12 Q 413 -16 440 4 Q 486 46 525 215 Q 540 293 564 316 Q 574 320 575 328 Q 576 335 556 357 Q 529 384 482 383 Q 470 386 445 392 C 416 399 406 374 435 365 Z" fill="black" /></g></svg>