<?xml version='1.0' encoding='utf-8'?>
<svg xmlns="http://www.w3.org/2000/svg" version="1.1" viewBox="0 0 1024 1024"><g transform="scale(1, -1) translate(0, -900)"><path d="M 614 227 Q 610 89 647 54 Q 722 -9 887 25 L 893 27 Q 930 37 965 63 Q 983 78 970 101 Q 958 123 940 191 Q 939 206 933 210 Q 927 213 924 197 Q 902 122 887 99 Q 875 84 842 75 Q 763 57 697 83 Q 670 96 664 112 Q 643 151 652 253 L 656 295 Q 659 326 665 359 Q 669 375 659 383 Q 649 395 628 402 Q 618 406 610 401 Q 604 398 608 382 Q 620 349 615 274 L 614 227 Z" fill="black" /></g></svg>