<?xml version='1.0' encoding='utf-8'?>
<svg xmlns="http://www.w3.org/2000/svg" version="1.1" viewBox="0 0 1024 1024"><g transform="scale(1, -1) translate(0, -900)"><path d="M 415 544 Q 446 550 476 551 Q 501 552 494 565 Q 487 577 472 583 Q 457 589 418 576 L 372 565 Q 333 559 287 550 Q 277 549 275 550 Q 274 551 276 560 Q 303 618 342 689 L 367 735 Q 389 775 400 783 Q 413 793 399 811 Q 360 859 341 855 Q 334 852 337 833 Q 343 809 312 722 L 295 681 L 295 679 Q 247 582 215 551 Q 200 538 203 524 Q 209 506 217 497 Q 224 488 235 492 Q 269 511 356 532 Q 363 535 373 535 L 415 544 Z" fill="black" /></g></svg>