<?xml version='1.0' encoding='utf-8'?>
<svg xmlns="http://www.w3.org/2000/svg" version="1.1" viewBox="0 0 1024 1024"><g transform="scale(1, -1) translate(0, -900)"><path d="M 475 126 Q 474 -3 479 -48 Q 483 -72 490 -81 Q 496 -88 503 -86 Q 510 -82 515 -68 Q 521 -53 523 -21 Q 530 55 529 131 L 527 168 Q 526 193 526 228 L 526 264 Q 526 286 526 310 L 526 347 L 526 395 L 526 427 L 528 463 Q 528 473 529 482 L 534 524 Q 535 537 539 549 Q 542 567 528 575 Q 518 582 509 587 C 484 603 437 606 452 580 Q 453 579 455 576 Q 459 566 466 557 Q 476 538 478 507 L 479 471 Q 479 446 479 418 L 479 387 Q 479 362 479 335 L 479 302 Q 478 280 477 254 L 477 221 Q 476 193 476 162 L 475 126 Z" fill="black" /></g></svg>