<?xml version='1.0' encoding='utf-8'?>
<svg xmlns="http://www.w3.org/2000/svg" version="1.1" viewBox="0 0 1024 1024"><g transform="scale(1, -1) translate(0, -900)"><path d="M 595 33 Q 625 -3 645 -37 Q 654 -53 665 -53 Q 680 -52 694 -19 Q 710 17 707 61 Q 700 118 691 222 Q 690 252 705 272 Q 714 285 705 294 Q 687 312 638 334 Q 620 343 606 334 Q 522 295 388 282 C 358 279 377 249 407 253 Q 417 253 588 286 Q 613 290 625 282 Q 637 267 639 65 L 639 63 Q 635 47 620 51 C 592 40 590 39 595 33 Z" fill="black" /></g></svg>