<?xml version='1.0' encoding='utf-8'?>
<svg xmlns="http://www.w3.org/2000/svg" version="1.1" viewBox="0 0 1024 1024"><g transform="scale(1, -1) translate(0, -900)"><path d="M 366 404 Q 357 377 375 339 Q 379 327 384 325 Q 388 321 393 326 Q 411 338 411 414 Q 411 426 412 438 L 413 472 Q 413 503 415 544 L 418 576 Q 419 589 423 599 Q 429 609 427 618 Q 423 624 387 646 Q 372 658 358 647 Q 355 644 359 634 Q 366 622 372 565 L 373 535 Q 373 501 373 462 L 370 424 Q 369 414 366 404 Z" fill="black" /></g></svg>