<?xml version='1.0' encoding='utf-8'?>
<svg xmlns="http://www.w3.org/2000/svg" version="1.1" viewBox="0 0 1024 1024"><g transform="scale(1, -1) translate(0, -900)"><path d="M 734 329 Q 747 307 760 298 Q 770 289 786 308 Q 801 327 839 433 Q 849 461 873 485 Q 886 495 877 510 Q 864 528 823 556 Q 805 566 736 549 Q 724 549 659 536 L 610 528 Q 595 527 582 523 Q 530 513 488 505 C 459 499 471 462 500 471 Q 499 472 502 472 Q 545 485 610 497 L 658 506 Q 767 528 786 514 Q 796 504 792 488 Q 758 367 742 359 C 727 339 727 339 734 329 Z" fill="black" /></g></svg>