<?xml version='1.0' encoding='utf-8'?>
<svg xmlns="http://www.w3.org/2000/svg" version="1.1" viewBox="0 0 1024 1024"><g transform="scale(1, -1) translate(0, -900)"><path d="M 281 204 Q 288 191 298 177 Q 314 153 321 156 Q 333 157 347 192 Q 356 216 357 290 Q 338 614 364 662 Q 374 680 366 690 Q 359 700 310 715 Q 286 724 269 714 Q 223 690 184 680 C 155 672 164 647 193 653 Q 226 659 259 671 Q 281 678 290 670 Q 303 657 303 603 Q 306 381 296 260 Q 299 236 279 240 Q 278 241 276 240 Q 275 241 275 240 C 261 237 266 230 281 204 Z" fill="black" /></g></svg>