<?xml version='1.0' encoding='utf-8'?>
<svg xmlns="http://www.w3.org/2000/svg" version="1.1" viewBox="0 0 1024 1024"><g transform="scale(1, -1) translate(0, -900)"><path d="M 509 587 Q 576 599 668 609 Q 753 619 775 616 Q 791 606 789 599 Q 790 595 784 582 Q 771 555 758 526 Q 751 513 757 509 Q 764 505 781 516 Q 835 552 879 564 Q 916 574 915 583 Q 914 593 843 645 Q 824 661 800 657 Q 718 645 618 630 Q 516 618 355 593 Q 297 584 240 578 C 210 575 214 550 243 544 Q 262 537 284 541 Q 359 563 438 578 Q 444 579 452 580 L 509 587 Z" fill="black" /></g></svg>