<?xml version='1.0' encoding='utf-8'?>
<svg xmlns="http://www.w3.org/2000/svg" version="1.1" viewBox="0 0 1024 1024"><g transform="scale(1, -1) translate(0, -900)"><path d="M 203 177 L 223 147 Q 238 125 245 128 Q 257 131 270 164 Q 283 201 279 248 Q 272 342 266 547 Q 265 601 279 628 Q 288 644 279 655 Q 272 664 225 676 Q 203 683 187 673 Q 153 652 124 641 C 96 629 108 604 136 614 Q 143 617 153 620 Q 205 636 208 635 Q 221 622 222 568 Q 228 348 219 226 Q 220 214 215 209 C 209 180 199 183 203 177 Z" fill="black" /></g></svg>