<?xml version='1.0' encoding='utf-8'?>
<svg xmlns="http://www.w3.org/2000/svg" version="1.1" viewBox="0 0 1024 1024"><g transform="scale(1, -1) translate(0, -900)"><path d="M 603 192 Q 603 -52 613 -77 Q 614 -81 618 -85 Q 624 -92 631 -90 Q 646 -80 653 -21 Q 665 105 658 199 L 657 240 Q 657 274 657 319 L 657 353 Q 657 381 658 414 L 658 452 L 658 506 L 659 536 Q 659 578 661 597 L 667 639 Q 670 655 673 670 Q 676 688 662 697 Q 638 713 623 719 C 596 733 566 735 579 708 Q 579 701 596 676 Q 608 654 610 622 L 611 585 Q 611 558 610 528 L 610 497 Q 610 469 610 439 L 609 406 Q 608 376 607 342 L 606 311 Q 605 274 604 233 L 603 192 Z" fill="black" /></g></svg>