<?xml version='1.0' encoding='utf-8'?>
<svg xmlns="http://www.w3.org/2000/svg" version="1.1" viewBox="0 0 1024 1024"><g transform="scale(1, -1) translate(0, -900)"><path d="M 588 682 Q 589 683 591 685 Q 603 694 596 702 Q 589 712 558 722 Q 539 732 524 723 Q 509 716 482 708 Q 452 702 407 699 Q 397 699 396 692 Q 395 686 406 680 Q 443 661 464 668 Q 510 684 515 684 Q 528 683 519 659 Q 476 542 435 486 Q 396 428 330 367 C 308 346 302 339 330 350 Q 456 392 574 658 Q 575 661 576 663 L 588 682 Z" fill="black" /></g></svg>