<?xml version='1.0' encoding='utf-8'?>
<svg xmlns="http://www.w3.org/2000/svg" version="1.1" viewBox="0 0 1024 1024"><g transform="scale(1, -1) translate(0, -900)"><path d="M 565 344 Q 751 369 899 356 Q 921 353 927 362 Q 934 375 922 386 Q 858 444 795 424 Q 737 412 678 401 Q 650 398 624 394 L 547 383 Q 535 383 526 381 L 485 376 Q 382 366 327 356 Q 261 344 162 342 Q 149 342 147 331 Q 147 319 165 306 Q 181 294 211 283 Q 221 279 239 287 Q 255 293 325 306 Q 401 325 496 337 L 565 344 Z" fill="black" /></g></svg>