<?xml version='1.0' encoding='utf-8'?>
<svg xmlns="http://www.w3.org/2000/svg" version="1.1" viewBox="0 0 1024 1024"><g transform="scale(1, -1) translate(0, -900)"><path d="M 561 34 Q 592 -5 613 -40 Q 622 -58 633 -57 Q 648 -56 663 -24 Q 679 13 676 57 Q 670 106 662 198 Q 661 226 677 248 Q 686 260 677 269 Q 659 288 610 310 Q 592 319 578 310 Q 547 294 496 281 Q 492 280 489 279 C 412 258 420 232 450 237 Q 456 237 574 261 Q 589 264 597 258 Q 607 249 609 68 Q 608 64 608 59 Q 604 40 586 49 C 556 51 547 52 561 34 Z" fill="black" /></g></svg>