<?xml version='1.0' encoding='utf-8'?>
<svg xmlns="http://www.w3.org/2000/svg" version="1.1" viewBox="0 0 1024 1024"><g transform="scale(1, -1) translate(0, -900)"><path d="M 330 367 Q 317 622 336 663 Q 346 681 337 691 Q 330 701 280 714 Q 256 721 240 710 Q 200 688 165 675 C 137 664 145 636 173 646 Q 180 649 188 651 Q 207 658 232 668 Q 254 675 262 670 Q 277 657 277 601 Q 283 375 274 252 Q 277 234 266 231 C 254 204 254 204 260 195 Q 269 182 278 168 Q 294 146 301 148 Q 313 151 327 185 Q 340 222 336 271 Q 333 304 330 350 L 330 367 Z" fill="black" /></g></svg>