<?xml version='1.0' encoding='utf-8'?>
<svg xmlns="http://www.w3.org/2000/svg" version="1.1" viewBox="0 0 1024 1024"><g transform="scale(1, -1) translate(0, -900)"><path d="M 271 195 Q 281 180 290 165 Q 306 141 313 144 Q 326 145 340 181 Q 355 220 350 268 Q 329 614 356 666 Q 366 684 358 694 Q 351 704 302 720 Q 280 729 262 719 Q 213 697 173 686 C 144 677 159 655 188 661 Q 275 679 281 675 L 282 674 Q 295 661 296 604 Q 297 375 287 248 Q 288 235 283 230 C 277 201 267 201 271 195 Z" fill="black" /></g></svg>