<?xml version='1.0' encoding='utf-8'?>
<svg xmlns="http://www.w3.org/2000/svg" version="1.1" viewBox="0 0 1024 1024"><g transform="scale(1, -1) translate(0, -900)"><path d="M 246 181 Q 258 162 270 145 Q 286 121 293 124 Q 305 127 319 160 Q 329 191 325 302 Q 312 584 332 626 Q 342 644 334 655 Q 327 665 278 680 Q 254 687 237 678 Q 191 656 154 645 C 125 636 138 610 167 618 Q 171 619 176 621 Q 198 625 225 635 Q 249 642 258 634 Q 271 621 272 568 Q 276 348 267 228 Q 270 210 260 207 C 248 179 244 184 246 181 Z" fill="black" /></g></svg>