<?xml version='1.0' encoding='utf-8'?>
<svg xmlns="http://www.w3.org/2000/svg" version="1.1" viewBox="0 0 1024 1024"><g transform="scale(1, -1) translate(0, -900)"><path d="M 257 195 Q 270 174 284 153 Q 302 129 309 132 Q 322 135 336 169 Q 348 202 342 300 Q 323 606 346 649 Q 356 668 348 679 Q 341 689 288 704 Q 263 713 246 702 Q 197 677 158 665 C 130 655 132 633 162 638 Q 174 638 237 656 Q 259 663 268 657 Q 281 644 283 589 Q 289 364 281 241 Q 282 225 275 220 C 266 191 250 206 257 195 Z" fill="black" /></g></svg>