<?xml version='1.0' encoding='utf-8'?>
<svg xmlns="http://www.w3.org/2000/svg" version="1.1" viewBox="0 0 1024 1024"><g transform="scale(1, -1) translate(0, -900)"><path d="M 253 164 Q 263 148 274 133 Q 290 109 297 112 Q 310 115 324 150 Q 339 189 334 239 Q 327 339 322 557 Q 321 614 336 642 Q 346 660 338 671 Q 331 681 281 694 Q 257 703 241 692 Q 198 670 162 658 C 134 648 144 623 173 631 Q 177 632 184 634 Q 256 655 262 650 Q 277 635 276 579 Q 280 344 271 216 Q 272 206 268 199 C 263 169 245 176 253 164 Z" fill="black" /></g></svg>