<?xml version='1.0' encoding='utf-8'?>
<svg xmlns="http://www.w3.org/2000/svg" version="1.1" viewBox="0 0 1024 1024"><g transform="scale(1, -1) translate(0, -900)"><path d="M 612 624 Q 622 599 635 590 Q 644 580 663 598 Q 679 614 726 716 Q 739 744 764 767 Q 779 777 769 793 Q 756 812 717 842 Q 698 854 646 842 Q 589 836 449 812 Q 388 802 336 794 C 306 789 318 752 348 757 Q 352 757 358 758 Q 457 785 631 807 Q 665 811 681 799 Q 691 789 684 774 Q 641 662 624 654 C 607 634 607 634 612 624 Z" fill="black" /></g></svg>