<?xml version='1.0' encoding='utf-8'?>
<svg xmlns="http://www.w3.org/2000/svg" version="1.1" viewBox="0 0 1024 1024"><g transform="scale(1, -1) translate(0, -900)"><path d="M 803 248 Q 800 58 790 44 Q 786 40 771 43 Q 746 53 722 64 Q 704 74 704 64 Q 750 7 773 -31 Q 783 -50 798 -56 Q 807 -60 815 -51 Q 857 -12 859 57 Q 841 363 866 404 Q 876 423 866 432 Q 847 450 812 464 Q 794 471 781 465 Q 724 431 638 419 Q 623 418 632 409 Q 641 399 655 395 Q 668 392 772 420 Q 785 426 795 419 Q 802 412 803 269 L 803 248 Z" fill="black" /></g></svg>