<?xml version='1.0' encoding='utf-8'?>
<svg xmlns="http://www.w3.org/2000/svg" version="1.1" viewBox="0 0 1024 1024"><g transform="scale(1, -1) translate(0, -900)"><path d="M 337 381 Q 325 345 346 293 Q 352 280 358 277 Q 362 273 369 278 Q 387 294 388 373 L 388 391 L 388 434 Q 388 462 388 497 L 388 533 Q 388 555 389 579 L 390 619 Q 390 641 390 664 L 390 695 Q 390 720 392 744 L 397 787 Q 398 803 404 817 Q 411 829 408 840 Q 404 847 360 874 Q 341 887 325 875 Q 321 871 326 859 Q 350 826 350 773 L 351 734 Q 351 712 352 686 L 352 656 Q 352 631 352 602 L 351 567 Q 351 545 351 522 L 351 490 Q 351 460 345 425 L 337 381 Z" fill="black" /></g></svg>