<?xml version='1.0' encoding='utf-8'?>
<svg xmlns="http://www.w3.org/2000/svg" version="1.1" viewBox="0 0 1024 1024"><g transform="scale(1, -1) translate(0, -900)"><path d="M 445 506 Q 460 484 473 478 Q 482 471 496 490 Q 506 506 532 604 Q 539 632 560 654 Q 572 666 561 678 Q 548 693 509 715 Q 491 722 432 705 Q 402 701 390 695 L 352 686 Q 313 680 228 656 C 199 648 217 616 245 626 Q 287 642 352 656 L 390 664 Q 462 683 478 672 Q 488 665 486 649 Q 468 547 455 534 C 442 510 442 510 445 506 Z" fill="black" /></g></svg>