<?xml version='1.0' encoding='utf-8'?>
<svg xmlns="http://www.w3.org/2000/svg" version="1.1" viewBox="0 0 1024 1024"><g transform="scale(1, -1) translate(0, -900)"><path d="M 384 480 Q 383 480 382 479 Q 336 451 284 420 Q 265 405 264 429 Q 267 483 270 539 L 271 564 Q 272 592 274 622 L 274 648 Q 275 679 282 700 Q 283 704 283 706 C 287 723 287 723 266 736 Q 248 749 230 753 Q 203 760 194 747 Q 187 737 199 725 Q 241 683 223 446 Q 222 445 222 441 Q 215 401 197 379 Q 185 363 195 343 Q 207 324 224 317 Q 234 310 245 326 Q 267 357 380 453 Q 387 459 395 464 C 419 482 410 495 384 480 Z" fill="black" /></g></svg>