<?xml version='1.0' encoding='utf-8'?>
<svg xmlns="http://www.w3.org/2000/svg" version="1.1" viewBox="0 0 1024 1024"><g transform="scale(1, -1) translate(0, -900)"><path d="M 468 161 Q 472 363 472 605 Q 472 663 478 700 C 481 725 481 725 468 733 Q 458 743 430 756 Q 409 766 401 759 Q 394 752 401 737 Q 420 701 423 636 Q 435 365 414 114 Q 411 72 387 34 Q 377 18 386 -4 Q 395 -26 405 -36 Q 415 -43 434 -31 Q 554 53 912 53 Q 940 52 940 66 Q 940 82 907 105 Q 889 120 789 100 Q 726 91 674 84 Q 593 78 498 59 Q 467 53 467 91 Q 467 121 468 152 L 468 161 Z" fill="black" /></g></svg>