<?xml version='1.0' encoding='utf-8'?>
<svg xmlns="http://www.w3.org/2000/svg" version="1.1" viewBox="0 0 1024 1024"><g transform="scale(1, -1) translate(0, -900)"><path d="M 639 16 Q 667 -21 686 -56 Q 693 -72 705 -72 Q 720 -71 736 -41 Q 754 -5 752 39 Q 748 94 744 197 Q 743 225 759 246 Q 768 258 760 268 Q 742 287 694 310 Q 678 319 663 311 Q 564 271 417 258 C 387 255 409 224 439 229 Q 452 230 471 235 Q 559 251 635 265 Q 666 271 680 259 Q 695 247 688 97 Q 688 57 684 44 Q 680 31 670 32 C 648 12 634 23 639 16 Z" fill="black" /></g></svg>