<?xml version='1.0' encoding='utf-8'?>
<svg xmlns="http://www.w3.org/2000/svg" version="1.1" viewBox="0 0 1024 1024"><g transform="scale(1, -1) translate(0, -900)"><path d="M 285 161 Q 303 171 310 193 Q 322 235 278 304 Q 242 364 321 465 Q 343 484 322 501 Q 300 517 264 530 Q 242 542 200 507 Q 125 465 99 466 Q 92 467 89 461 Q 88 457 97 452 Q 137 434 213 467 Q 223 471 234 458 Q 258 436 236 406 Q 191 351 243 278 Q 270 227 269 201 Q 266 171 260 163 C 250 135 262 142 285 161 Z" fill="black" /></g></svg>