<?xml version='1.0' encoding='utf-8'?>
<svg xmlns="http://www.w3.org/2000/svg" version="1.1" viewBox="0 0 1024 1024"><g transform="scale(1, -1) translate(0, -900)"><path d="M 709 617 L 710 616 Q 714 600 728 601 Q 741 602 750 617 Q 759 624 779 671 Q 798 723 835 752 Q 854 768 838 784 Q 822 802 771 829 Q 759 838 683 824 Q 665 824 552 801 Q 507 792 475 787 C 445 782 458 749 488 753 Q 494 752 501 754 Q 562 773 703 790 Q 728 791 737 787 Q 744 783 740 758 Q 725 694 709 642 C 704 625 704 625 709 617 Z" fill="black" /></g></svg>