<?xml version='1.0' encoding='utf-8'?>
<svg xmlns="http://www.w3.org/2000/svg" version="1.1" viewBox="0 0 1024 1024"><g transform="scale(1, -1) translate(0, -900)"><path d="M 566 151 Q 566 -60 581 -88 L 582 -89 Q 588 -96 595 -94 Q 613 -82 616 -27 Q 625 61 619 158 L 619 191 Q 619 225 619 273 L 620 308 Q 620 356 621 411 L 622 437 Q 622 452 632 499 Q 635 517 621 526 Q 609 533 599 539 C 573 554 532 557 544 529 Q 565 480 567 465 Q 567 447 568 429 L 568 404 Q 568 356 568 299 L 568 266 Q 567 229 566 184 L 566 151 Z" fill="black" /></g></svg>