<?xml version='1.0' encoding='utf-8'?>
<svg xmlns="http://www.w3.org/2000/svg" version="1.1" viewBox="0 0 1024 1024"><g transform="scale(1, -1) translate(0, -900)"><path d="M 319 396 Q 310 582 328 619 Q 340 635 332 647 Q 325 657 276 674 Q 252 684 235 674 Q 184 655 141 646 C 112 639 119 615 149 619 Q 158 620 219 630 Q 246 634 254 626 Q 267 613 268 559 Q 275 340 266 220 Q 269 201 254 199 C 240 183 240 183 244 176 Q 257 157 270 136 Q 286 114 293 116 Q 305 119 319 152 Q 332 189 328 236 Q 324 291 319 385 L 319 396 Z" fill="black" /></g></svg>