<?xml version='1.0' encoding='utf-8'?>
<svg xmlns="http://www.w3.org/2000/svg" version="1.1" viewBox="0 0 1024 1024"><g transform="scale(1, -1) translate(0, -900)"><path d="M 231 200 Q 241 182 254 164 Q 270 142 277 144 Q 289 147 303 180 Q 316 217 312 264 Q 305 358 299 565 Q 298 619 312 647 Q 322 665 314 675 Q 307 685 258 699 Q 234 706 217 697 Q 181 678 151 666 C 123 654 135 635 164 641 Q 176 642 218 654 Q 233 658 238 654 Q 251 641 252 587 Q 259 368 250 248 Q 251 235 246 229 C 240 200 224 211 231 200 Z" fill="black" /></g></svg>