<?xml version='1.0' encoding='utf-8'?>
<svg xmlns="http://www.w3.org/2000/svg" version="1.1" viewBox="0 0 1024 1024"><g transform="scale(1, -1) translate(0, -900)"><path d="M 636 15 Q 667 -28 689 -67 Q 696 -85 708 -85 Q 724 -84 742 -51 Q 761 -14 760 33 Q 756 87 752 188 Q 752 219 769 242 Q 779 255 770 265 Q 752 286 699 311 Q 681 321 666 313 Q 576 277 419 264 C 389 261 407 226 437 230 Q 486 236 640 262 Q 671 266 685 254 Q 701 241 692 91 Q 692 51 688 38 Q 682 19 664 29 Q 663 30 659 32 C 630 40 619 40 636 15 Z" fill="black" /></g></svg>