<?xml version='1.0' encoding='utf-8'?>
<svg xmlns="http://www.w3.org/2000/svg" version="1.1" viewBox="0 0 1024 1024"><g transform="scale(1, -1) translate(0, -900)"><path d="M 166 710 Q 165 711 164 712 Q 155 719 141 724 Q 131 728 120 725 Q 113 721 119 708 Q 138 627 140 619 Q 139 618 140 613 Q 150 409 120 280 Q 108 225 142 181 Q 152 168 163 181 Q 175 196 175 221 L 178 254 Q 179 275 179 302 Q 180 389 181 455 L 182 487 Q 185 649 188 663 Q 189 679 187 687 C 186 697 186 697 166 710 Z" fill="black" /></g></svg>