<?xml version='1.0' encoding='utf-8'?>
<svg xmlns="http://www.w3.org/2000/svg" version="1.1" viewBox="0 0 1024 1024"><g transform="scale(1, -1) translate(0, -900)"><path d="M 685 61 Q 715 25 735 -9 Q 742 -25 753 -24 Q 768 -23 781 7 Q 797 41 794 83 Q 788 138 781 242 Q 780 270 794 289 Q 801 301 793 309 Q 777 327 730 347 Q 714 354 700 346 Q 663 327 603 311 Q 584 307 570 303 C 511 288 514 260 543 267 Q 544 267 689 301 Q 708 305 719 299 Q 744 269 729 87 L 729 85 Q 725 67 709 76 Q 705 79 697 82 C 670 95 666 84 685 61 Z" fill="black" /></g></svg>