<?xml version='1.0' encoding='utf-8'?>
<svg xmlns="http://www.w3.org/2000/svg" version="1.1" viewBox="0 0 1024 1024"><g transform="scale(1, -1) translate(0, -900)"><path d="M 239 240 Q 249 224 259 208 Q 274 186 281 188 Q 293 189 306 222 Q 315 246 316 316 Q 301 623 326 671 Q 336 687 329 698 Q 322 708 276 723 Q 254 730 237 722 Q 191 701 150 691 C 121 683 133 657 162 665 L 222 681 Q 247 688 256 680 Q 269 667 268 615 Q 269 404 258 287 Q 259 280 257 274 C 255 244 226 262 239 240 Z" fill="black" /></g></svg>