<?xml version='1.0' encoding='utf-8'?>
<svg xmlns="http://www.w3.org/2000/svg" version="1.1" viewBox="0 0 1024 1024"><g transform="scale(1, -1) translate(0, -900)"><path d="M 692 364 Q 707 342 721 334 Q 730 327 745 346 Q 757 362 784 459 Q 793 487 815 511 Q 828 523 817 536 Q 802 552 762 577 Q 747 586 667 567 Q 655 567 608 556 L 568 549 Q 549 546 532 542 Q 429 521 405 525 C 375 526 429 485 458 493 Q 501 506 568 517 L 608 525 Q 713 546 728 532 Q 737 520 735 509 Q 714 401 698 390 C 686 372 686 372 692 364 Z" fill="black" /></g></svg>