<?xml version='1.0' encoding='utf-8'?>
<svg xmlns="http://www.w3.org/2000/svg" version="1.1" viewBox="0 0 1024 1024"><g transform="scale(1, -1) translate(0, -900)"><path d="M 742 158 Q 758 133 773 126 Q 783 119 796 138 Q 808 157 833 268 Q 840 296 861 317 Q 873 327 863 341 Q 850 356 811 378 Q 796 385 741 371 Q 707 368 682 360 L 637 351 Q 616 350 535 331 C 506 324 519 294 548 302 Q 584 312 638 323 L 681 330 Q 757 351 778 336 Q 790 327 787 311 Q 768 197 754 182 C 742 159 742 159 742 158 Z" fill="black" /></g></svg>