<?xml version='1.0' encoding='utf-8'?>
<svg xmlns="http://www.w3.org/2000/svg" version="1.1" viewBox="0 0 1024 1024"><g transform="scale(1, -1) translate(0, -900)"><path d="M 605 217 Q 605 244 605 270 L 605 308 Q 605 332 606 355 L 606 386 Q 606 459 608 525 L 608 556 Q 608 589 609 620 L 611 654 Q 611 661 612 666 Q 618 682 609 691 Q 593 707 578 714 C 552 729 532 734 544 706 Q 563 661 566 646 L 568 613 Q 568 598 568 549 L 568 517 Q 567 463 567 379 L 566 350 Q 566 326 565 298 L 565 263 Q 565 239 565 210 C 565 180 605 187 605 217 Z" fill="black" /></g></svg>