<?xml version='1.0' encoding='utf-8'?>
<svg xmlns="http://www.w3.org/2000/svg" version="1.1" viewBox="0 0 1024 1024"><g transform="scale(1, -1) translate(0, -900)"><path d="M 696 115 Q 739 34 811 -22 Q 878 -62 897 -48 Q 916 -41 910 -6 Q 904 28 910 155 Q 911 174 906 178 Q 902 179 897 162 Q 858 41 831 45 Q 780 70 735 143 Q 732 147 730 151 L 708 197 Q 669 287 662 363 L 660 400 Q 660 434 666 453 Q 673 475 635 497 Q 604 515 588 511 Q 572 510 581 485 Q 600 455 611 389 L 617 357 Q 641 236 677 154 L 696 115 Z" fill="black" /></g></svg>