<?xml version='1.0' encoding='utf-8'?>
<svg xmlns="http://www.w3.org/2000/svg" version="1.1" viewBox="0 0 1024 1024"><g transform="scale(1, -1) translate(0, -900)"><path d="M 142 683 Q 130 695 111 701 Q 102 705 92 701 Q 85 697 90 686 Q 93 673 98 661 Q 126 607 108 311 Q 104 269 91 220 Q 78 168 111 129 Q 120 117 130 128 Q 142 143 142 163 Q 142 169 143 176 L 145 206 Q 146 228 146 254 Q 147 350 148 422 L 148 454 Q 151 629 154 644 Q 155 653 155 658 C 156 672 156 672 142 683 Z" fill="black" /></g></svg>