<?xml version='1.0' encoding='utf-8'?>
<svg xmlns="http://www.w3.org/2000/svg" version="1.1" viewBox="0 0 1024 1024"><g transform="scale(1, -1) translate(0, -900)"><path d="M 250 223 L 270 193 Q 286 169 293 172 Q 306 175 321 210 Q 336 250 330 301 Q 323 403 318 624 Q 317 681 332 711 Q 342 727 334 739 Q 327 749 277 763 Q 253 770 237 760 Q 192 738 155 726 C 127 716 139 690 168 699 Q 169 700 176 702 Q 198 708 225 717 Q 249 726 258 718 Q 273 703 273 646 Q 277 408 267 276 Q 271 252 250 255 C 235 246 235 246 250 223 Z" fill="black" /></g></svg>