<?xml version='1.0' encoding='utf-8'?>
<svg xmlns="http://www.w3.org/2000/svg" version="1.1" viewBox="0 0 1024 1024"><g transform="scale(1, -1) translate(0, -900)"><path d="M 697 168 Q 698 193 704 221 Q 708 236 698 244 Q 688 254 669 262 C 648 273 648 273 649 260 Q 645 257 650 243 Q 660 212 659 181 Q 655 69 664 38 Q 668 16 687 -2 Q 753 -62 896 -39 Q 900 -36 906 -36 Q 937 -26 968 -2 Q 986 10 976 33 Q 966 55 954 119 Q 955 132 949 138 Q 943 141 939 126 Q 909 59 893 38 Q 883 26 855 19 Q 791 4 731 28 Q 709 40 702 55 Q 690 80 695 146 L 697 168 Z" fill="black" /></g></svg>