<?xml version='1.0' encoding='utf-8'?>
<svg xmlns="http://www.w3.org/2000/svg" version="1.1" viewBox="0 0 1024 1024"><g transform="scale(1, -1) translate(0, -900)"><path d="M 787 298 Q 809 334 834 346 Q 849 359 838 375 Q 825 387 785 410 Q 770 419 692 390 L 647 378 Q 644 378 583 365 L 540 359 Q 512 356 485 353 Q 472 352 472 343 Q 475 336 490 331 Q 511 322 544 331 L 582 338 Q 612 345 645 351 L 686 360 Q 752 375 763 365 Q 767 361 764 350 Q 755 328 747 309 C 735 281 771 273 787 298 Z" fill="black" /></g></svg>