<?xml version='1.0' encoding='utf-8'?>
<svg xmlns="http://www.w3.org/2000/svg" version="1.1" viewBox="0 0 1024 1024"><g transform="scale(1, -1) translate(0, -900)"><path d="M 579 187 Q 654 61 773 -24 Q 852 -72 876 -56 Q 897 -46 891 -6 Q 885 31 893 167 Q 896 189 890 194 Q 886 195 878 176 Q 835 73 809 56 Q 793 49 749 81 Q 665 145 616 216 L 591 256 Q 551 323 519 407 L 506 442 Q 491 485 481 525 L 472 567 Q 462 610 458 648 L 455 683 Q 452 747 462 785 Q 471 813 423 837 Q 386 858 366 853 Q 345 849 358 821 Q 386 779 394 732 Q 398 701 406 669 L 413 635 Q 423 595 434 552 L 444 515 Q 454 473 469 431 L 480 399 Q 513 306 556 226 L 579 187 Z" fill="black" /></g></svg>