<?xml version='1.0' encoding='utf-8'?>
<svg xmlns="http://www.w3.org/2000/svg" version="1.1" viewBox="0 0 1024 1024"><g transform="scale(1, -1) translate(0, -900)"><path d="M 615 368 Q 634 335 652 324 Q 664 314 682 338 Q 700 365 742 511 Q 752 545 780 573 Q 796 586 783 603 Q 767 622 719 653 Q 698 665 614 643 Q 599 643 519 624 L 465 614 Q 449 613 432 608 Q 360 593 305 583 C 276 578 302 535 330 546 Q 339 555 467 580 L 518 590 Q 656 621 676 602 Q 689 584 686 568 Q 649 412 632 398 C 617 372 615 368 615 368 Z" fill="black" /></g></svg>