<?xml version='1.0' encoding='utf-8'?>
<svg xmlns="http://www.w3.org/2000/svg" version="1.1" viewBox="0 0 1024 1024"><g transform="scale(1, -1) translate(0, -900)"><path d="M 246 347 Q 243 350 240 350 Q 225 354 218 345 Q 214 339 224 324 Q 243 299 244 260 Q 247 179 221 137 Q 211 124 217 114 Q 224 98 242 84 Q 252 75 267 88 Q 336 139 532 135 Q 551 135 576 133 Q 595 130 605 135 Q 611 141 606 151 Q 600 163 567 182 Q 548 192 525 188 Q 503 184 472 181 Q 385 174 302 155 Q 292 152 290 155 Q 283 161 285 175 Q 289 269 298 297 Q 302 312 290 322 Q 278 332 265 340 L 246 347 Z" fill="black" /></g></svg>