<?xml version='1.0' encoding='utf-8'?>
<svg xmlns="http://www.w3.org/2000/svg" version="1.1" viewBox="0 0 1024 1024"><g transform="scale(1, -1) translate(0, -900)"><path d="M 597 421 Q 598 417 600 413 Q 607 395 620 397 Q 636 400 644 416 Q 660 440 685 554 Q 701 612 739 648 Q 760 667 741 683 Q 720 701 663 728 Q 645 737 552 708 Q 536 708 455 683 L 406 669 Q 387 665 371 659 Q 310 640 266 630 C 237 623 261 583 289 594 Q 289 595 291 595 Q 336 614 413 635 L 458 648 Q 609 690 631 679 Q 644 672 638 632 Q 613 481 600 451 Q 599 451 599 450 C 592 431 592 431 597 421 Z" fill="black" /></g></svg>