<?xml version='1.0' encoding='utf-8'?>
<svg xmlns="http://www.w3.org/2000/svg" version="1.1" viewBox="0 0 1024 1024"><g transform="scale(1, -1) translate(0, -900)"><path d="M 662 412 Q 683 378 703 368 Q 715 359 735 384 Q 759 423 806 636 Q 813 660 827 678 L 852 710 Q 860 722 851 737 Q 832 757 780 792 Q 757 804 737 798 Q 682 784 619 776 Q 511 764 427 751 Q 306 731 260 727 C 230 724 264 684 293 690 Q 357 704 482 721 Q 699 750 731 735 Q 753 718 746 688 Q 733 630 725 598 Q 700 480 686 459 Q 678 446 662 443 C 647 433 647 433 662 412 Z" fill="black" /></g></svg>