<?xml version='1.0' encoding='utf-8'?>
<svg xmlns="http://www.w3.org/2000/svg" version="1.1" viewBox="0 0 1024 1024"><g transform="scale(1, -1) translate(0, -900)"><path d="M 550 120 Q 593 169 632 238 Q 650 268 673 284 Q 695 299 684 315 Q 671 330 639 346 Q 611 359 553 336 Q 418 306 329 301 Q 313 300 307 292 Q 303 285 323 275 Q 363 257 420 272 Q 540 302 560 299 Q 579 298 575 276 Q 550 203 506 150 L 474 117 Q 383 36 179 -4 Q 163 -7 174 -17 Q 181 -21 241 -19 Q 316 -15 401 19 Q 462 43 512 82 L 550 120 Z" fill="black" /></g></svg>