<?xml version='1.0' encoding='utf-8'?>
<svg xmlns="http://www.w3.org/2000/svg" version="1.1" viewBox="0 0 1024 1024"><g transform="scale(1, -1) translate(0, -900)"><path d="M 329 470 Q 338 503 349 526 L 359 569 Q 365 603 367 636 Q 367 646 368 656 L 373 701 Q 373 705 374 708 Q 374 745 386 778 Q 393 796 377 803 Q 331 830 306 819 Q 294 813 301 800 Q 322 770 323 686 L 323 647 Q 320 607 310 556 L 298 512 Q 253 388 151 303 Q 138 290 125 278 Q 115 268 126 267 Q 139 268 169 285 Q 224 318 263 363 Q 305 409 324 456 L 329 470 Z" fill="black" /></g></svg>