<?xml version='1.0' encoding='utf-8'?>
<svg xmlns="http://www.w3.org/2000/svg" version="1.1" viewBox="0 0 1024 1024"><g transform="scale(1, -1) translate(0, -900)"><path d="M 700 391 L 701 389 Q 704 373 716 372 Q 731 372 768 421 Q 789 470 827 496 Q 848 509 833 527 Q 817 546 771 576 Q 755 588 676 572 Q 543 563 402 540 Q 309 527 248 521 C 218 518 236 477 265 483 Q 269 483 274 484 Q 317 496 380 506 L 401 509 Q 462 519 542 528 L 584 532 Q 713 550 741 533 Q 747 529 741 508 Q 717 436 705 418 C 695 399 695 399 700 391 Z" fill="black" /></g></svg>