<?xml version='1.0' encoding='utf-8'?>
<svg xmlns="http://www.w3.org/2000/svg" version="1.1" viewBox="0 0 1024 1024"><g transform="scale(1, -1) translate(0, -900)"><path d="M 388 589 Q 294 574 238 571 C 208 569 243 524 273 529 Q 283 529 292 531 Q 331 543 391 552 L 435 560 Q 481 567 542 574 L 591 580 Q 714 595 737 581 Q 747 574 739 543 Q 711 431 698 404 L 691 382 Q 690 372 693 362 Q 697 344 712 344 Q 728 345 737 362 Q 750 377 780 453 Q 801 511 844 544 Q 866 562 849 580 Q 830 601 773 633 Q 757 645 674 628 Q 625 625 596 619 L 544 612 Q 483 606 433 596 L 388 589 Z" fill="black" /></g></svg>