<?xml version='1.0' encoding='utf-8'?>
<svg xmlns="http://www.w3.org/2000/svg" version="1.1" viewBox="0 0 1024 1024"><g transform="scale(1, -1) translate(0, -900)"><path d="M 591 20 Q 621 -19 641 -55 Q 650 -73 661 -73 Q 677 -72 693 -39 Q 712 -2 710 46 Q 704 116 701 249 Q 700 280 718 302 Q 727 315 718 326 Q 699 345 646 370 Q 628 380 612 371 Q 513 329 372 317 C 342 314 357 281 387 284 Q 408 284 591 319 Q 619 325 634 313 Q 652 295 643 115 Q 643 66 638 50 Q 634 40 625 37 C 606 14 582 32 591 20 Z" fill="black" /></g></svg>