<?xml version='1.0' encoding='utf-8'?>
<svg xmlns="http://www.w3.org/2000/svg" version="1.1" viewBox="0 0 1024 1024"><g transform="scale(1, -1) translate(0, -900)"><path d="M 581 596 Q 597 571 612 561 Q 622 554 638 573 Q 651 592 683 693 Q 693 723 716 746 Q 729 756 719 771 Q 704 787 665 815 Q 650 824 576 808 Q 570 808 458 786 Q 419 779 386 772 C 357 766 366 729 394 739 Q 394 740 396 741 Q 466 760 590 778 Q 618 782 627 773 Q 636 760 634 748 Q 610 640 598 628 C 584 601 581 596 581 596 Z" fill="black" /></g></svg>