<?xml version='1.0' encoding='utf-8'?>
<svg xmlns="http://www.w3.org/2000/svg" version="1.1" viewBox="0 0 1024 1024"><g transform="scale(1, -1) translate(0, -900)"><path d="M 657 521 Q 672 572 685 601 L 710 646 Q 722 664 736 674 Q 755 692 740 711 Q 724 726 671 754 Q 652 763 630 755 Q 576 737 527 726 L 468 715 Q 395 705 317 701 Q 301 700 302 691 Q 303 682 322 675 Q 347 663 382 673 Q 425 680 469 686 L 523 694 Q 560 701 600 706 Q 628 712 638 700 Q 648 688 638 635 L 628 599 Q 618 566 608 536 C 599 507 648 492 657 521 Z" fill="black" /></g></svg>