<?xml version='1.0' encoding='utf-8'?>
<svg xmlns="http://www.w3.org/2000/svg" version="1.1" viewBox="0 0 1024 1024"><g transform="scale(1, -1) translate(0, -900)"><path d="M 614 749 Q 615 756 618 763 Q 625 782 629 798 Q 633 810 613 826 Q 579 848 553 853 Q 537 857 528 849 Q 519 842 527 826 Q 552 784 548 733 L 547 691 Q 546 654 544 612 L 542 574 Q 541 544 538 513 L 535 474 Q 531 441 528 404 C 525 374 569 380 572 410 Q 576 446 580 481 L 585 522 Q 588 552 591 580 L 596 619 Q 599 659 604 698 L 614 749 Z" fill="black" /></g></svg>