<?xml version='1.0' encoding='utf-8'?>
<svg xmlns="http://www.w3.org/2000/svg" version="1.1" viewBox="0 0 1024 1024"><g transform="scale(1, -1) translate(0, -900)"><path d="M 432 712 Q 432 731 434 739 Q 437 764 421 777 Q 396 796 367 805 Q 351 811 342 804 Q 333 797 341 781 Q 359 745 371 706 L 380 667 Q 383 642 388 589 L 391 552 Q 392 524 396 486 L 399 453 Q 400 422 403 385 C 405 355 448 361 446 391 Q 443 428 441 460 L 439 493 Q 436 529 435 560 L 433 596 Q 433 635 432 675 L 432 712 Z" fill="black" /></g></svg>