<?xml version='1.0' encoding='utf-8'?>
<svg xmlns="http://www.w3.org/2000/svg" version="1.1" viewBox="0 0 1024 1024"><g transform="scale(1, -1) translate(0, -900)"><path d="M 529 786 Q 533 792 538 794 Q 547 798 546 810 Q 545 820 534 835 Q 521 851 501 859 Q 480 869 468 868 Q 459 867 460 854 Q 461 832 451 802 Q 417 733 373 682 Q 324 621 270 577 Q 216 531 87 444 Q 77 440 88 436 Q 100 436 130 449 Q 182 467 230 495 Q 237 501 248 506 L 271 522 Q 311 553 358 594 Q 418 652 513 768 L 529 786 Z" fill="black" /></g></svg>