<?xml version='1.0' encoding='utf-8'?>
<svg xmlns="http://www.w3.org/2000/svg" version="1.1" viewBox="0 0 1024 1024"><g transform="scale(1, -1) translate(0, -900)"><path d="M 635 711 Q 641 714 744 735 Q 766 739 771 727 Q 799 639 787 208 Q 783 126 773 110 Q 769 104 746 109 Q 713 116 680 123 Q 658 129 661 119 Q 728 68 767 30 Q 780 11 798 5 Q 808 2 816 12 Q 856 63 855 122 Q 843 315 840 627 Q 839 688 853 716 Q 866 737 853 747 Q 831 766 792 783 Q 773 790 756 783 Q 698 753 617 743 C 587 738 606 704 635 711 Z" fill="black" /></g></svg>