<?xml version='1.0' encoding='utf-8'?>
<svg xmlns="http://www.w3.org/2000/svg" version="1.1" viewBox="0 0 1024 1024"><g transform="scale(1, -1) translate(0, -900)"><path d="M 398 390 Q 410 502 412 535 L 414 566 Q 417 717 420 735 C 422 758 422 758 405 766 Q 405 767 404 767 Q 353 791 337 787 Q 316 783 334 760 Q 373 697 357 455 Q 353 356 304 239 Q 271 154 155 37 Q 140 24 137 16 Q 136 9 148 10 Q 164 11 186 26 Q 246 69 281 112 Q 333 173 363 244 Q 382 296 394 361 L 398 390 Z" fill="black" /></g></svg>