<?xml version='1.0' encoding='utf-8'?>
<svg xmlns="http://www.w3.org/2000/svg" version="1.1" viewBox="0 0 1024 1024"><g transform="scale(1, -1) translate(0, -900)"><path d="M 627 347 Q 642 325 656 317 Q 666 308 683 330 Q 695 346 725 437 Q 735 468 760 492 Q 773 504 763 519 Q 748 537 706 565 Q 685 575 670 570 Q 634 561 580 555 Q 513 546 429 533 Q 360 521 306 515 C 276 511 292 476 321 482 Q 325 482 330 483 Q 385 498 467 510 L 503 515 Q 552 524 612 529 Q 649 533 664 520 Q 674 513 671 498 Q 653 407 645 394 Q 641 381 625 379 C 609 370 609 370 627 347 Z" fill="black" /></g></svg>