<?xml version='1.0' encoding='utf-8'?>
<svg xmlns="http://www.w3.org/2000/svg" version="1.1" viewBox="0 0 1024 1024"><g transform="scale(1, -1) translate(0, -900)"><path d="M 420 735 Q 429 735 609 769 Q 631 773 637 762 Q 656 713 657 390 Q 657 128 640 101 Q 634 94 612 99 Q 581 105 549 111 Q 527 117 528 107 Q 595 55 633 16 Q 649 -3 665 -9 Q 675 -13 685 -2 Q 730 53 725 113 Q 712 321 709 657 Q 708 721 723 750 Q 736 772 723 783 Q 698 804 658 820 Q 639 827 621 820 Q 569 793 536 785 Q 493 773 405 766 C 375 763 390 730 420 735 Z" fill="black" /></g></svg>