<?xml version='1.0' encoding='utf-8'?>
<svg xmlns="http://www.w3.org/2000/svg" version="1.1" viewBox="0 0 1024 1024"><g transform="scale(1, -1) translate(0, -900)"><path d="M 673 46 Q 669 89 662 169 Q 661 200 678 221 Q 688 234 679 244 Q 660 263 609 289 Q 591 298 576 289 Q 533 270 467 257 Q 409 247 379 243 C 349 239 368 209 398 212 Q 414 213 439 218 Q 505 228 561 239 Q 583 243 594 234 Q 600 230 603 187 Q 606 147 604 95 Q 604 61 601 50 Q 597 31 578 40 C 548 40 540 40 556 18 Q 584 -19 605 -55 Q 614 -73 624 -73 Q 640 -72 657 -39 Q 676 -2 673 46 Z" fill="black" /></g></svg>