<?xml version='1.0' encoding='utf-8'?>
<svg xmlns="http://www.w3.org/2000/svg" version="1.1" viewBox="0 0 1024 1024"><g transform="scale(1, -1) translate(0, -900)"><path d="M 449 456 Q 525 472 604 489 Q 625 495 630 484 Q 651 429 649 119 Q 643 50 639 43 Q 635 37 615 41 Q 587 48 559 55 Q 540 61 540 51 Q 598 2 631 -35 Q 644 -54 660 -58 Q 670 -62 678 -52 Q 717 -1 716 52 Q 680 424 707 473 Q 719 492 707 503 Q 685 522 648 536 Q 629 543 614 536 Q 542 497 427 485 C 397 481 420 450 449 456 Z" fill="black" /></g></svg>