<?xml version='1.0' encoding='utf-8'?>
<svg xmlns="http://www.w3.org/2000/svg" version="1.1" viewBox="0 0 1024 1024"><g transform="scale(1, -1) translate(0, -900)"><path d="M 342 315 Q 345 318 350 318 Q 416 336 434 331 C 464 329 467 374 437 369 Q 391 362 348 353 L 297 340 Q 248 330 206 314 Q 191 311 196 329 Q 211 425 205 438 Q 175 475 150 472 Q 140 469 147 451 Q 165 405 155 359 Q 148 316 129 298 Q 113 282 119 269 Q 129 256 145 245 Q 158 238 167 246 Q 185 268 291 301 L 342 315 Z" fill="black" /></g></svg>