<?xml version='1.0' encoding='utf-8'?>
<svg xmlns="http://www.w3.org/2000/svg" version="1.1" viewBox="0 0 1024 1024"><g transform="scale(1, -1) translate(0, -900)"><path d="M 530 108 Q 534 109 543 109 Q 618 116 684 187 L 715 226 Q 751 286 783 381 Q 795 412 815 433 Q 834 451 819 464 Q 806 476 771 486 Q 753 492 664 458 Q 546 436 543 434 Q 542 434 540 433 C 511 426 510 419 539 411 Q 576 396 628 412 Q 688 434 699 434 Q 727 431 720 401 Q 707 323 676 261 L 652 226 Q 633 202 612 184 Q 575 156 532 136 C 505 123 500 105 530 108 Z" fill="black" /></g></svg>