<?xml version='1.0' encoding='utf-8'?>
<svg xmlns="http://www.w3.org/2000/svg" version="1.1" viewBox="0 0 1024 1024"><g transform="scale(1, -1) translate(0, -900)"><path d="M 232 672 Q 238 673 246 675 Q 274 682 304 691 Q 325 695 329 684 Q 344 645 344 356 Q 344 127 329 104 Q 325 100 305 103 Q 278 110 251 118 Q 232 125 232 115 Q 287 64 318 27 Q 331 8 347 2 Q 356 -2 364 8 Q 406 56 405 111 Q 395 292 394 589 Q 393 647 407 673 Q 419 692 407 703 Q 385 722 349 737 Q 330 744 277 718 Q 250 711 227 705 C 198 697 203 665 232 672 Z" fill="black" /></g></svg>