<?xml version='1.0' encoding='utf-8'?>
<svg xmlns="http://www.w3.org/2000/svg" version="1.1" viewBox="0 0 1024 1024"><g transform="scale(1, -1) translate(0, -900)"><path d="M 552 706 Q 637 734 698 744 Q 711 745 715 742 Q 721 735 719 711 Q 716 647 702 619 Q 683 585 652 590 Q 627 594 603 602 Q 578 609 597 585 Q 640 548 662 516 Q 675 500 690 511 Q 739 539 772 660 Q 776 714 801 739 Q 813 752 807 761 Q 798 771 750 793 Q 731 800 713 789 Q 673 765 537 740 C 508 734 523 697 552 706 Z" fill="black" /></g></svg>