<?xml version='1.0' encoding='utf-8'?>
<svg xmlns="http://www.w3.org/2000/svg" version="1.1" viewBox="0 0 1024 1024"><g transform="scale(1, -1) translate(0, -900)"><path d="M 254 697 Q 264 698 328 717 Q 346 724 351 714 Q 373 653 357 262 Q 350 162 342 150 Q 338 144 320 149 Q 295 155 270 162 Q 251 169 252 160 Q 303 111 332 76 Q 344 57 359 53 Q 368 49 376 58 Q 416 110 415 155 Q 408 333 411 623 Q 410 678 423 701 Q 435 720 423 730 Q 404 748 369 761 Q 351 768 336 761 Q 300 739 238 725 C 209 718 225 690 254 697 Z" fill="black" /></g></svg>