<?xml version='1.0' encoding='utf-8'?>
<svg xmlns="http://www.w3.org/2000/svg" version="1.1" viewBox="0 0 1024 1024"><g transform="scale(1, -1) translate(0, -900)"><path d="M 406 351 Q 419 332 433 326 Q 443 319 457 338 Q 469 357 495 467 Q 502 495 524 519 Q 536 529 525 543 Q 512 558 472 582 Q 457 588 389 573 Q 382 573 349 564 L 307 556 Q 289 556 212 535 C 183 527 198 499 227 507 Q 290 526 403 544 Q 428 548 437 540 Q 447 527 446 515 Q 425 392 409 382 C 396 363 396 363 406 351 Z" fill="black" /></g></svg>