<?xml version='1.0' encoding='utf-8'?>
<svg xmlns="http://www.w3.org/2000/svg" version="1.1" viewBox="0 0 1024 1024"><g transform="scale(1, -1) translate(0, -900)"><path d="M 377 261 Q 340 245 255 198 Q 243 192 240 196 Q 233 200 234 220 Q 234 299 236 362 L 236 392 Q 237 438 239 474 L 240 504 Q 241 580 244 600 C 246 623 246 623 237 629 Q 237 630 236 631 Q 224 643 178 655 Q 160 658 155 652 Q 148 645 160 626 Q 191 580 195 455 Q 195 224 146 158 Q 137 148 128 135 Q 115 123 123 100 Q 133 70 147 57 Q 160 47 174 62 Q 226 123 387 245 C 411 263 404 274 377 261 Z" fill="black" /></g></svg>