<?xml version='1.0' encoding='utf-8'?>
<svg xmlns="http://www.w3.org/2000/svg" version="1.1" viewBox="0 0 1024 1024"><g transform="scale(1, -1) translate(0, -900)"><path d="M 220 703 Q 223 706 279 722 Q 297 728 302 718 Q 317 678 318 389 Q 315 154 302 134 Q 296 128 230 140 Q 211 144 213 136 Q 265 96 297 66 Q 310 50 323 45 Q 332 42 339 51 Q 373 96 372 145 Q 362 331 360 633 Q 359 685 370 708 Q 380 726 370 735 Q 351 751 318 764 Q 302 771 287 764 Q 262 748 246 742 Q 230 738 202 731 C 173 724 192 693 220 703 Z" fill="black" /></g></svg>