<?xml version='1.0' encoding='utf-8'?>
<svg xmlns="http://www.w3.org/2000/svg" version="1.1" viewBox="0 0 1024 1024"><g transform="scale(1, -1) translate(0, -900)"><path d="M 703 198 Q 703 204 703 209 Q 702 236 703 263 L 704 289 Q 705 320 708 353 L 710 376 Q 713 413 719 453 C 722 476 722 476 712 483 Q 700 495 679 502 Q 667 505 660 501 Q 654 497 659 481 Q 672 447 671 412 Q 659 93 709 44 Q 775 -13 910 12 Q 916 15 925 16 Q 956 26 987 50 Q 1006 66 991 91 Q 978 112 957 179 Q 956 194 949 198 Q 943 201 940 184 Q 918 111 903 88 Q 896 75 870 69 Q 809 54 756 77 Q 717 95 706 171 L 703 198 Z" fill="black" /></g></svg>