<?xml version='1.0' encoding='utf-8'?>
<svg xmlns="http://www.w3.org/2000/svg" version="1.1" viewBox="0 0 1024 1024"><g transform="scale(1, -1) translate(0, -900)"><path d="M 959 67 Q 981 82 962 119 Q 946 183 945 264 Q 946 274 938 283 Q 928 290 923 267 Q 877 123 870 111 Q 863 96 836 90 Q 740 63 671 87 Q 635 99 622 137 Q 603 194 615 428 Q 624 642 650 685 Q 666 727 578 755 Q 575 756 573 756 Q 554 760 546 751 Q 537 742 545 732 Q 564 714 568 656 Q 568 611 566 519 Q 554 222 575 126 Q 584 81 627 54 Q 708 6 888 35 Q 891 36 894 37 Q 940 50 959 67 Z" fill="black" /></g></svg>