<?xml version='1.0' encoding='utf-8'?>
<svg xmlns="http://www.w3.org/2000/svg" version="1.1" viewBox="0 0 1024 1024"><g transform="scale(1, -1) translate(0, -900)"><path d="M 524 548 Q 524 563 525 577 L 526 623 Q 529 699 545 755 Q 555 771 551 786 Q 544 796 484 833 Q 459 851 437 834 Q 431 828 438 812 Q 474 760 475 708 Q 476 663 477 614 L 478 496 Q 474 280 473 209 L 468 165 Q 462 114 448 64 Q 438 22 465 -45 Q 472 -64 481 -67 Q 488 -74 495 -65 Q 504 -61 515 -38 Q 525 -11 524 22 Q 523 47 523 172 L 523 218 Q 523 330 524 502 L 524 548 Z" fill="black" /></g></svg>