<?xml version='1.0' encoding='utf-8'?>
<svg xmlns="http://www.w3.org/2000/svg" version="1.1" viewBox="0 0 1024 1024"><g transform="scale(1, -1) translate(0, -900)"><path d="M 530 439 Q 530 500 531 568 L 532 613 Q 533 704 551 768 Q 560 784 557 797 Q 550 807 494 841 Q 470 857 449 842 Q 445 836 451 821 Q 487 769 488 714 Q 489 662 490 603 L 491 560 Q 491 512 489 433 L 487 339 Q 483 173 478 141 Q 471 99 459 56 Q 447 14 475 -46 Q 482 -64 490 -67 Q 497 -74 504 -65 Q 511 -61 522 -40 Q 532 -15 530 17 Q 529 60 529 375 L 530 439 Z" fill="black" /></g></svg>