<?xml version='1.0' encoding='utf-8'?>
<svg xmlns="http://www.w3.org/2000/svg" version="1.1" viewBox="0 0 1024 1024"><g transform="scale(1, -1) translate(0, -900)"><path d="M 525 430 Q 525 434 526 436 L 527 478 Q 527 544 528 610 L 529 651 Q 533 715 547 764 Q 556 780 553 793 Q 546 803 490 837 Q 466 853 445 838 Q 441 832 447 817 Q 483 765 484 710 Q 484 679 485 644 L 486 604 Q 486 574 488 542 Q 487 508 486 470 L 483 355 Q 479 169 474 137 Q 467 95 455 52 Q 443 10 471 -50 Q 478 -68 486 -71 Q 493 -78 500 -69 Q 507 -65 518 -44 Q 528 -19 526 13 Q 525 58 525 386 L 525 430 Z" fill="black" /></g></svg>