<?xml version='1.0' encoding='utf-8'?>
<svg xmlns="http://www.w3.org/2000/svg" version="1.1" viewBox="0 0 1024 1024"><g transform="scale(1, -1) translate(0, -900)"><path d="M 520 484 Q 520 547 521 610 L 523 663 Q 527 724 540 770 Q 550 786 546 799 Q 539 809 481 845 Q 456 863 435 846 Q 429 840 436 825 Q 473 771 474 718 Q 474 684 475 648 L 476 600 Q 479 552 476 475 L 473 370 Q 469 178 464 145 Q 440 16 441 15 Q 447 -12 462 -45 Q 469 -64 477 -67 Q 484 -74 492 -65 Q 499 -61 510 -39 Q 520 -12 519 20 Q 518 66 518 402 L 520 484 Z" fill="black" /></g></svg>