<?xml version='1.0' encoding='utf-8'?>
<svg xmlns="http://www.w3.org/2000/svg" version="1.1" viewBox="0 0 1024 1024"><g transform="scale(1, -1) translate(0, -900)"><path d="M 377 434 Q 377 471 379 511 L 380 567 Q 380 669 401 738 Q 416 763 386 783 Q 371 795 346 809 Q 324 825 303 811 Q 299 807 304 791 Q 337 743 337 695 Q 337 628 337 551 L 333 412 Q 329 336 329 251 Q 325 175 303 105 Q 291 62 317 6 Q 323 -12 331 -15 Q 337 -22 344 -13 Q 351 -9 362 11 Q 372 36 371 66 Q 370 106 376 400 L 377 434 Z" fill="black" /></g></svg>