<?xml version='1.0' encoding='utf-8'?>
<svg xmlns="http://www.w3.org/2000/svg" version="1.1" viewBox="0 0 1024 1024"><g transform="scale(1, -1) translate(0, -900)"><path d="M 534 314 Q 582 348 676 368 Q 713 378 736 372 Q 758 365 761 327 Q 751 207 693 115 Q 677 90 662 85 Q 643 79 565 109 Q 549 118 546 110 Q 546 103 558 91 Q 601 45 629 3 Q 639 -12 650 -11 Q 668 -12 688 1 Q 743 53 768 117 Q 796 181 817 305 Q 818 336 831 355 Q 844 368 833 381 Q 815 397 775 415 Q 754 425 729 415 Q 696 405 672 399 Q 641 393 599 385 Q 571 379 583 408 Q 622 520 640 546 Q 652 562 639 576 Q 632 580 622 584 C 599 603 559 602 566 573 Q 576 563 572 527 Q 559 437 506 376 Q 467 358 500 318 Q 503 315 508 311 Q 521 301 534 314 Z" fill="black" /></g></svg>