<?xml version='1.0' encoding='utf-8'?>
<svg xmlns="http://www.w3.org/2000/svg" version="1.1" viewBox="0 0 1024 1024"><g transform="scale(1, -1) translate(0, -900)"><path d="M 330 443 Q 331 486 333 534 L 334 589 Q 334 682 357 762 Q 372 787 342 807 Q 327 819 302 833 Q 280 851 259 835 Q 255 831 260 815 Q 293 766 293 715 Q 293 649 293 574 L 288 427 Q 284 343 283 253 Q 277 174 255 101 Q 243 59 269 2 Q 275 -16 283 -19 Q 289 -26 296 -17 Q 303 -13 314 7 Q 324 32 323 62 Q 323 104 330 411 L 330 443 Z" fill="black" /></g></svg>