<?xml version='1.0' encoding='utf-8'?>
<svg xmlns="http://www.w3.org/2000/svg" version="1.1" viewBox="0 0 1024 1024"><g transform="scale(1, -1) translate(0, -900)"><path d="M 362 444 Q 363 487 365 536 L 367 584 Q 367 690 388 762 Q 404 786 378 805 Q 362 817 334 834 Q 312 850 291 836 Q 287 830 292 816 Q 323 770 323 723 Q 323 654 324 577 Q 323 576 323 571 L 317 431 Q 313 365 313 294 Q 309 221 288 153 Q 275 111 301 54 Q 307 36 315 33 Q 321 27 328 35 Q 335 39 346 59 Q 356 84 355 114 Q 355 151 361 419 L 362 444 Z" fill="black" /></g></svg>