<?xml version='1.0' encoding='utf-8'?>
<svg xmlns="http://www.w3.org/2000/svg" version="1.1" viewBox="0 0 1024 1024"><g transform="scale(1, -1) translate(0, -900)"><path d="M 854 509 Q 870 515 861 532 Q 845 553 825 564 Q 812 571 786 560 Q 735 535 672 538 Q 632 538 619 568 Q 603 593 616 667 Q 619 712 661 758 Q 680 774 662 791 Q 635 813 607 825 Q 595 831 576 820 Q 495 786 411 768 C 382 761 404 721 432 731 Q 433 734 537 763 Q 558 772 565 769 Q 574 765 573 750 Q 569 695 564 648 Q 555 591 567 553 Q 576 522 606 501 Q 649 479 732 481 Q 813 485 854 509 Z" fill="black" /></g></svg>