<?xml version='1.0' encoding='utf-8'?>
<svg xmlns="http://www.w3.org/2000/svg" version="1.1" viewBox="0 0 1024 1024"><g transform="scale(1, -1) translate(0, -900)"><path d="M 339 394 Q 340 454 342 523 L 343 577 Q 343 581 344 583 Q 345 683 365 750 Q 374 765 371 778 Q 364 788 310 821 Q 288 837 267 823 Q 263 819 269 803 Q 302 752 302 702 Q 302 636 303 562 L 299 423 Q 295 335 294 238 Q 288 159 267 85 Q 255 49 280 -14 Q 287 -32 294 -35 Q 301 -42 308 -33 Q 315 -29 326 -9 Q 336 16 335 46 Q 334 86 338 364 L 339 394 Z" fill="black" /></g></svg>