<?xml version='1.0' encoding='utf-8'?>
<svg xmlns="http://www.w3.org/2000/svg" version="1.1" viewBox="0 0 1024 1024"><g transform="scale(1, -1) translate(0, -900)"><path d="M 344 399 Q 345 457 348 524 L 349 576 Q 349 681 372 758 Q 387 785 364 802 Q 346 815 312 837 Q 287 856 265 839 Q 259 835 266 817 Q 299 768 299 717 Q 300 644 300 561 Q 299 560 299 557 L 294 418 Q 290 340 290 257 Q 284 178 263 105 Q 251 62 277 -4 Q 284 -23 293 -27 Q 300 -34 307 -25 Q 316 -21 327 2 Q 337 29 338 62 Q 337 101 343 370 L 344 399 Z" fill="black" /></g></svg>