<?xml version='1.0' encoding='utf-8'?>
<svg xmlns="http://www.w3.org/2000/svg" version="1.1" viewBox="0 0 1024 1024"><g transform="scale(1, -1) translate(0, -900)"><path d="M 677 230 Q 759 354 794 482 Q 804 528 835 559 Q 854 578 835 592 Q 810 608 779 613 Q 751 622 723 605 Q 689 592 628 571 Q 561 555 489 546 Q 470 546 466 540 Q 462 527 488 511 Q 519 492 587 518 Q 707 561 721 559 Q 737 559 737 539 Q 710 374 638 267 L 612 232 Q 605 225 599 217 Q 538 150 418 78 Q 403 69 412 64 Q 419 61 443 71 Q 543 108 605 154 Q 624 169 645 190 L 677 230 Z" fill="black" /></g></svg>