<?xml version='1.0' encoding='utf-8'?>
<svg xmlns="http://www.w3.org/2000/svg" version="1.1" viewBox="0 0 1024 1024"><g transform="scale(1, -1) translate(0, -900)"><path d="M 698 438 Q 699 306 701 113 Q 700 88 687 78 Q 681 72 607 81 Q 571 91 575 80 Q 576 73 599 59 Q 666 13 685 -16 Q 707 -49 723 -49 Q 738 -50 751 -13 Q 767 35 763 110 Q 747 315 747 520 L 747 568 Q 747 712 765 775 Q 781 806 724 829 Q 688 848 669 841 Q 650 834 667 810 Q 689 782 692 747 Q 695 728 697 555 L 698 438 Z" fill="black" /></g></svg>