<?xml version='1.0' encoding='utf-8'?>
<svg xmlns="http://www.w3.org/2000/svg" version="1.1" viewBox="0 0 1024 1024"><g transform="scale(1, -1) translate(0, -900)"><path d="M 711 512 Q 712 359 713 108 Q 712 83 699 72 Q 695 71 631 84 Q 597 100 598 88 Q 599 81 620 63 Q 681 5 695 -26 Q 711 -62 728 -64 Q 744 -65 761 -28 Q 780 21 781 101 Q 765 309 764 519 L 764 563 Q 764 711 783 781 Q 801 815 740 837 Q 703 856 683 849 Q 664 842 681 817 Q 705 789 707 752 Q 710 731 711 552 L 711 512 Z" fill="black" /></g></svg>