<?xml version='1.0' encoding='utf-8'?>
<svg xmlns="http://www.w3.org/2000/svg" version="1.1" viewBox="0 0 1024 1024"><g transform="scale(1, -1) translate(0, -900)"><path d="M 579 223 Q 540 141 399 78 Q 386 72 385 67 Q 386 63 398 62 Q 414 58 454 69 Q 521 85 569 130 Q 593 152 610 180 L 635 229 Q 653 283 669 486 L 673 531 Q 679 681 710 740 Q 717 755 706 767 Q 684 786 643 799 Q 618 806 608 800 Q 598 793 605 780 Q 627 741 630 692 Q 631 604 626 517 L 623 474 Q 614 332 596 270 L 579 223 Z" fill="black" /></g></svg>