<?xml version='1.0' encoding='utf-8'?>
<svg xmlns="http://www.w3.org/2000/svg" version="1.1" viewBox="0 0 1024 1024"><g transform="scale(1, -1) translate(0, -900)"><path d="M 542 538 Q 587 587 636 651 Q 654 675 678 689 Q 693 695 693 703 Q 694 715 670 732 Q 640 756 627 757 Q 617 757 606 751 Q 509 718 440 711 Q 436 711 434 709 C 404 704 386 699 415 690 Q 460 666 569 705 Q 585 708 591 702 Q 595 698 576 663 Q 548 614 503 566 L 479 542 Q 361 425 175 371 Q 166 370 166 365 Q 166 361 173 359 Q 278 341 438 447 Q 468 471 515 511 L 542 538 Z" fill="black" /></g></svg>