<?xml version='1.0' encoding='utf-8'?>
<svg xmlns="http://www.w3.org/2000/svg" version="1.1" viewBox="0 0 1024 1024"><g transform="scale(1, -1) translate(0, -900)"><path d="M 342 402 Q 342 448 345 499 L 346 557 Q 347 575 348 593 Q 349 693 370 761 Q 380 777 377 791 Q 370 801 313 837 Q 288 856 267 840 Q 261 834 268 818 Q 301 767 301 666 Q 301 603 300 540 L 294 398 Q 290 328 289 251 Q 283 172 261 97 Q 248 55 275 -8 Q 281 -27 289 -31 Q 296 -38 304 -29 Q 311 -25 323 -3 Q 333 22 333 55 Q 333 95 341 370 L 342 402 Z" fill="black" /></g></svg>