<?xml version='1.0' encoding='utf-8'?>
<svg xmlns="http://www.w3.org/2000/svg" version="1.1" viewBox="0 0 1024 1024"><g transform="scale(1, -1) translate(0, -900)"><path d="M 960 123 Q 941 175 928 267 Q 927 285 918 290 Q 908 296 905 273 Q 889 161 872 140 Q 836 101 693 97 Q 614 98 580 111 Q 550 126 544 146 Q 517 215 538 330 Q 541 357 552 387 C 561 415 561 415 543 427 Q 542 428 541 429 Q 484 469 468 464 Q 452 457 460 438 Q 482 398 480 337 Q 480 148 505 107 Q 529 62 630 47 Q 699 38 806 44 Q 903 50 941 71 Q 974 89 960 123 Z" fill="black" /></g></svg>