<?xml version='1.0' encoding='utf-8'?>
<svg xmlns="http://www.w3.org/2000/svg" version="1.1" viewBox="0 0 1024 1024"><g transform="scale(1, -1) translate(0, -900)"><path d="M 320 407 Q 321 450 323 497 L 325 553 Q 325 673 348 750 Q 363 777 340 794 Q 322 807 288 829 Q 263 848 241 831 Q 235 827 242 809 Q 275 761 275 679 Q 275 607 275 533 L 269 381 Q 266 317 266 246 Q 262 167 239 93 Q 227 50 253 -16 Q 260 -35 269 -39 Q 276 -46 283 -37 Q 292 -33 303 -10 Q 313 17 314 50 Q 313 90 319 377 L 320 407 Z" fill="black" /></g></svg>