<?xml version='1.0' encoding='utf-8'?>
<svg xmlns="http://www.w3.org/2000/svg" version="1.1" viewBox="0 0 1024 1024"><g transform="scale(1, -1) translate(0, -900)"><path d="M 707 417 Q 743 501 771 523 Q 793 545 764 564 Q 739 585 713 601 Q 697 614 673 604 Q 639 592 588 583 Q 560 580 529 574 L 486 567 Q 441 561 394 551 Q 339 541 297 535 C 267 531 289 486 316 498 Q 323 507 420 524 Q 448 530 486 533 L 529 539 Q 586 546 659 554 Q 675 555 680 548 Q 689 530 653 423 C 644 395 695 390 707 417 Z" fill="black" /></g></svg>