<?xml version='1.0' encoding='utf-8'?>
<svg xmlns="http://www.w3.org/2000/svg" version="1.1" viewBox="0 0 1024 1024"><g transform="scale(1, -1) translate(0, -900)"><path d="M 962 46 Q 989 59 975 86 Q 951 138 943 220 Q 940 242 934 248 Q 924 252 922 237 Q 904 111 883 91 Q 870 79 835 73 Q 750 63 702 118 Q 663 187 709 345 Q 725 394 756 416 Q 783 437 753 449 Q 738 458 704 470 Q 682 479 659 463 Q 638 450 592 432 Q 571 425 552 420 C 523 412 545 391 574 397 Q 656 415 661 411 Q 667 404 651 290 Q 630 140 679 65 Q 749 -5 866 10 Q 915 19 962 46 Z" fill="black" /></g></svg>