<?xml version='1.0' encoding='utf-8'?>
<svg xmlns="http://www.w3.org/2000/svg" version="1.1" viewBox="0 0 1024 1024"><g transform="scale(1, -1) translate(0, -900)"><path d="M 336 451 Q 337 494 339 543 L 341 597 Q 342 687 362 747 Q 371 763 368 776 Q 361 786 306 821 Q 282 839 261 823 Q 257 819 262 803 Q 293 754 294 706 Q 294 648 294 581 L 290 447 Q 286 359 284 263 Q 280 187 258 117 Q 245 75 272 15 Q 278 -3 286 -7 Q 292 -14 300 -5 Q 307 -1 318 20 Q 328 45 328 76 Q 328 118 335 420 L 336 451 Z" fill="black" /></g></svg>