<?xml version='1.0' encoding='utf-8'?>
<svg xmlns="http://www.w3.org/2000/svg" version="1.1" viewBox="0 0 1024 1024"><g transform="scale(1, -1) translate(0, -900)"><path d="M 317 407 Q 318 462 320 525 L 321 579 Q 321 693 343 769 Q 358 794 331 814 Q 315 826 285 845 Q 260 863 239 847 Q 233 841 240 826 Q 274 775 274 725 Q 275 650 276 566 Q 275 565 275 563 L 270 412 Q 261 216 261 206 Q 254 155 240 105 Q 228 62 254 -1 Q 261 -20 269 -23 Q 276 -30 284 -21 Q 291 -17 303 5 Q 313 30 312 63 Q 311 103 316 372 L 317 407 Z" fill="black" /></g></svg>