<?xml version='1.0' encoding='utf-8'?>
<svg xmlns="http://www.w3.org/2000/svg" version="1.1" viewBox="0 0 1024 1024"><g transform="scale(1, -1) translate(0, -900)"><path d="M 583 30 Q 593 5 616 -47 Q 625 -65 635 -64 Q 651 -63 661 -36 Q 688 12 708 175 Q 714 224 737 253 Q 755 272 742 286 Q 721 308 674 329 Q 653 341 579 312 Q 482 285 325 266 C 295 262 316 226 346 229 Q 353 228 363 230 Q 625 293 643 272 Q 664 236 629 65 Q 628 50 621 48 Q 620 48 616 48 C 596 25 577 44 583 30 Z" fill="black" /></g></svg>