<?xml version='1.0' encoding='utf-8'?>
<svg xmlns="http://www.w3.org/2000/svg" version="1.1" viewBox="0 0 1024 1024"><g transform="scale(1, -1) translate(0, -900)"><path d="M 517 330 Q 517 340 517 349 L 517 384 Q 517 415 517 450 L 517 491 Q 517 525 517 563 L 517 598 Q 517 599 518 602 Q 518 644 520 680 L 526 730 Q 530 761 538 787 Q 547 803 544 818 Q 537 828 476 864 Q 451 883 429 865 Q 423 861 430 843 Q 469 786 469 717 L 471 671 Q 471 634 472 591 L 473 556 Q 473 519 473 480 L 472 444 Q 471 411 470 376 L 470 295 Q 470 147 444 52 Q 432 13 461 -57 Q 468 -76 477 -79 Q 484 -86 491 -77 Q 500 -73 511 -50 Q 521 -23 519 11 Q 518 51 517 291 L 517 330 Z" fill="black" /></g></svg>