<?xml version='1.0' encoding='utf-8'?>
<svg xmlns="http://www.w3.org/2000/svg" version="1.1" viewBox="0 0 1024 1024"><g transform="scale(1, -1) translate(0, -900)"><path d="M 323 405 Q 324 447 326 492 L 328 549 Q 328 670 350 743 Q 363 770 339 787 Q 323 799 294 817 Q 270 835 249 819 Q 245 815 250 799 Q 280 750 282 672 Q 282 603 282 532 L 277 398 Q 273 328 273 253 Q 267 177 246 105 Q 234 66 259 3 Q 266 -16 274 -19 Q 280 -26 288 -17 Q 295 -13 306 8 Q 316 33 316 64 Q 315 103 322 371 L 323 405 Z" fill="black" /></g></svg>