<?xml version='1.0' encoding='utf-8'?>
<svg xmlns="http://www.w3.org/2000/svg" version="1.1" viewBox="0 0 1024 1024"><g transform="scale(1, -1) translate(0, -900)"><path d="M 321 435 Q 322 477 324 523 L 325 579 Q 325 678 346 751 Q 359 778 335 795 Q 319 807 290 825 Q 266 843 245 827 Q 241 823 246 806 Q 277 758 278 711 Q 278 641 279 563 L 275 432 Q 271 354 271 270 Q 267 194 245 125 Q 235 86 259 23 Q 266 4 274 1 Q 280 -6 288 3 Q 315 19 316 85 Q 315 125 321 402 L 321 435 Z" fill="black" /></g></svg>