<?xml version='1.0' encoding='utf-8'?>
<svg xmlns="http://www.w3.org/2000/svg" version="1.1" viewBox="0 0 1024 1024"><g transform="scale(1, -1) translate(0, -900)"><path d="M 327 402 Q 328 456 331 516 L 333 574 Q 333 680 356 758 Q 366 773 363 786 Q 356 795 302 830 Q 280 846 259 832 Q 255 828 260 812 Q 293 761 293 712 Q 293 642 293 560 L 285 407 Q 281 332 280 252 Q 274 173 252 101 Q 239 59 265 2 Q 271 -16 279 -19 Q 285 -25 292 -17 Q 319 -1 320 62 Q 319 101 326 372 L 327 402 Z" fill="black" /></g></svg>