<?xml version='1.0' encoding='utf-8'?>
<svg xmlns="http://www.w3.org/2000/svg" version="1.1" viewBox="0 0 1024 1024"><g transform="scale(1, -1) translate(0, -900)"><path d="M 638 192 Q 572 113 459 72 Q 446 66 458 60 Q 464 53 505 57 Q 587 66 667 150 L 699 191 Q 757 309 782 389 Q 792 419 812 439 Q 831 455 817 469 Q 802 481 770 491 Q 745 497 718 481 Q 643 454 538 438 C 508 433 504 418 534 413 Q 571 403 619 415 Q 686 439 699 438 Q 727 437 722 407 Q 701 293 663 229 L 638 192 Z" fill="black" /></g></svg>