<?xml version='1.0' encoding='utf-8'?>
<svg xmlns="http://www.w3.org/2000/svg" version="1.1" viewBox="0 0 1024 1024"><g transform="scale(1, -1) translate(0, -900)"><path d="M 663 159 Q 575 62 451 14 Q 426 5 428 1 Q 431 -11 497 10 Q 614 43 695 117 L 733 161 Q 791 240 811 332 Q 821 374 844 394 Q 848 398 847 406 Q 844 427 791 450 Q 772 457 747 444 Q 738 435 705 423 Q 678 416 700 459 Q 778 612 797 625 Q 815 635 819 645 Q 823 658 780 681 Q 744 700 728 698 Q 716 697 691 682 Q 666 666 565 640 Q 513 627 469 622 Q 447 621 448 609 Q 449 599 481 591 Q 493 587 512 589 L 554 597 Q 567 603 691 640 Q 707 644 711 637 Q 717 619 662 481 Q 646 454 630 436 Q 617 420 624 404 Q 631 389 643 382 Q 652 375 659 376 Q 666 377 679 385 Q 688 391 717 399 Q 742 402 753 392 Q 762 382 754 347 Q 732 250 695 198 L 663 159 Z" fill="black" /></g></svg>