<?xml version='1.0' encoding='utf-8'?>
<svg xmlns="http://www.w3.org/2000/svg" version="1.1" viewBox="0 0 1024 1024"><g transform="scale(1, -1) translate(0, -900)"><path d="M 312 60 Q 313 64 313 68 Q 312 111 322 432 L 323 460 Q 324 497 326 537 L 328 595 Q 331 680 349 739 Q 359 755 356 768 Q 349 778 294 813 Q 270 831 249 816 Q 245 810 250 795 Q 281 746 281 699 Q 281 641 281 576 L 275 414 Q 271 338 270 255 Q 264 179 243 109 Q 231 67 256 7 Q 262 -11 270 -15 Q 276 -22 284 -13 Q 308 2 312 54 L 312 60 Z" fill="black" /></g></svg>