<?xml version='1.0' encoding='utf-8'?>
<svg xmlns="http://www.w3.org/2000/svg" version="1.1" viewBox="0 0 1024 1024"><g transform="scale(1, -1) translate(0, -900)"><path d="M 314 408 Q 315 460 317 518 L 319 572 Q 319 683 342 759 Q 355 786 331 803 Q 315 815 286 833 Q 262 851 241 835 Q 237 831 242 815 Q 275 766 274 717 Q 275 645 275 563 Q 274 562 274 557 L 269 421 Q 265 348 265 266 Q 259 188 238 117 Q 226 78 251 15 Q 258 -4 266 -7 Q 272 -14 280 -5 Q 287 -1 298 20 Q 308 45 308 76 Q 307 115 313 378 L 314 408 Z" fill="black" /></g></svg>