<?xml version='1.0' encoding='utf-8'?>
<svg xmlns="http://www.w3.org/2000/svg" version="1.1" viewBox="0 0 1024 1024"><g transform="scale(1, -1) translate(0, -900)"><path d="M 551 621 Q 535 636 508 647 Q 489 657 476 652 Q 464 645 471 631 Q 489 604 489 543 Q 488 536 488 527 Q 488 383 453 268 Q 423 177 358 66 Q 354 60 351 54 Q 350 44 360 46 Q 391 52 463 174 Q 470 190 480 209 Q 504 269 522 344 L 525 363 Q 529 388 534 413 L 538 438 Q 547 570 555 590 Q 558 597 558 604 C 560 614 560 614 551 621 Z" fill="black" /></g></svg>