<?xml version='1.0' encoding='utf-8'?>
<svg xmlns="http://www.w3.org/2000/svg" version="1.1" viewBox="0 0 1024 1024"><g transform="scale(1, -1) translate(0, -900)"><path d="M 317 435 Q 317 469 318 506 L 319 561 Q 319 684 339 756 Q 354 783 328 800 Q 312 812 282 829 Q 258 845 237 830 Q 233 826 238 810 Q 271 761 272 694 Q 272 621 274 545 L 271 414 Q 268 230 256 168 Q 234 81 254 31 Q 255 25 259 18 Q 266 0 274 -3 Q 280 -10 288 -1 Q 295 3 306 24 Q 316 49 315 81 Q 314 120 316 408 L 317 435 Z" fill="black" /></g></svg>