<?xml version='1.0' encoding='utf-8'?>
<svg xmlns="http://www.w3.org/2000/svg" version="1.1" viewBox="0 0 1024 1024"><g transform="scale(1, -1) translate(0, -900)"><path d="M 669 304 Q 606 297 541 282 Q 534 281 532 282 Q 531 285 534 293 Q 601 417 617 438 Q 627 450 619 460 Q 612 470 564 486 Q 548 490 539 486 Q 527 479 536 460 Q 563 405 484 293 Q 469 278 449 259 Q 437 246 442 236 Q 449 221 475 205 Q 487 196 498 208 Q 519 229 676 280 Q 679 281 684 283 C 712 293 699 308 669 304 Z" fill="black" /></g></svg>