<?xml version='1.0' encoding='utf-8'?>
<svg xmlns="http://www.w3.org/2000/svg" version="1.1" viewBox="0 0 1024 1024"><g transform="scale(1, -1) translate(0, -900)"><path d="M 643 408 Q 655 392 696 385 Q 742 378 740 336 Q 713 213 700 177 Q 673 105 646 96 Q 637 92 599 104 Q 559 125 554 118 Q 547 108 566 95 Q 602 53 610 17 Q 616 -2 628 -8 Q 641 -15 679 9 Q 715 36 745 106 Q 760 155 779 227 Q 794 315 821 331 Q 834 337 836 347 Q 837 357 812 385 Q 778 419 719 420 Q 710 421 655 436 C 626 444 619 426 643 408 Z" fill="black" /></g></svg>