<?xml version='1.0' encoding='utf-8'?>
<svg xmlns="http://www.w3.org/2000/svg" version="1.1" viewBox="0 0 1024 1024"><g transform="scale(1, -1) translate(0, -900)"><path d="M 342 466 Q 342 506 344 550 L 346 607 Q 349 686 366 740 Q 375 755 372 768 Q 365 778 310 813 Q 286 831 265 815 Q 261 811 266 794 Q 297 749 297 703 Q 297 649 297 589 L 293 426 Q 284 224 283 213 Q 259 102 260 98 Q 260 83 280 39 Q 286 20 294 17 Q 300 10 308 19 Q 335 35 336 101 Q 335 141 341 444 L 342 466 Z" fill="black" /></g></svg>