<?xml version='1.0' encoding='utf-8'?>
<svg xmlns="http://www.w3.org/2000/svg" version="1.1" viewBox="0 0 1024 1024"><g transform="scale(1, -1) translate(0, -900)"><path d="M 320 434 Q 320 473 322 514 L 323 569 Q 323 687 345 762 Q 360 787 330 807 Q 315 819 290 833 Q 268 849 247 835 Q 243 831 249 815 Q 282 766 282 716 Q 282 643 283 561 Q 282 560 282 555 L 276 396 Q 272 221 259 158 Q 238 74 252 31 Q 255 22 260 10 Q 267 -8 274 -11 Q 281 -18 288 -9 Q 295 -5 306 15 Q 316 40 315 70 Q 314 110 319 405 L 320 434 Z" fill="black" /></g></svg>