<?xml version='1.0' encoding='utf-8'?>
<svg xmlns="http://www.w3.org/2000/svg" version="1.1" viewBox="0 0 1024 1024"><g transform="scale(1, -1) translate(0, -900)"><path d="M 972 176 Q 956 221 947 299 Q 946 317 938 322 Q 929 328 924 306 Q 899 212 884 197 Q 877 187 856 180 Q 778 159 733 173 Q 717 179 713 189 Q 691 246 688 391 Q 688 412 690 430 L 692 457 Q 699 571 723 628 Q 736 661 716 680 Q 661 722 645 718 Q 629 711 636 693 Q 658 651 652 591 Q 639 254 660 186 Q 667 159 686 144 Q 725 113 865 114 Q 929 115 954 129 Q 985 144 972 176 Z" fill="black" /></g></svg>