<?xml version='1.0' encoding='utf-8'?>
<svg xmlns="http://www.w3.org/2000/svg" version="1.1" viewBox="0 0 1024 1024"><g transform="scale(1, -1) translate(0, -900)"><path d="M 325 405 Q 325 456 327 513 L 328 566 Q 328 683 349 762 Q 364 787 334 807 Q 319 819 294 833 Q 272 849 251 835 Q 247 831 253 815 Q 286 766 286 715 Q 287 642 289 558 Q 288 555 288 550 L 283 399 Q 280 215 266 150 Q 245 66 259 26 Q 262 16 268 2 Q 275 -16 283 -19 Q 289 -26 296 -17 Q 323 -1 323 62 Q 322 102 325 375 L 325 405 Z" fill="black" /></g></svg>