<?xml version='1.0' encoding='utf-8'?>
<svg xmlns="http://www.w3.org/2000/svg" version="1.1" viewBox="0 0 1024 1024"><g transform="scale(1, -1) translate(0, -900)"><path d="M 323 416 Q 323 465 325 518 L 326 573 Q 326 574 327 575 Q 328 674 346 740 Q 356 755 352 769 Q 345 779 290 813 Q 266 831 245 815 Q 241 809 246 794 Q 280 745 280 695 Q 280 631 281 557 L 278 414 Q 269 188 269 178 Q 262 133 249 89 Q 237 49 263 -14 Q 270 -32 278 -35 Q 284 -42 292 -33 Q 299 -29 310 -8 Q 320 17 319 49 Q 318 91 322 393 L 323 416 Z" fill="black" /></g></svg>