<?xml version='1.0' encoding='utf-8'?>
<svg xmlns="http://www.w3.org/2000/svg" version="1.1" viewBox="0 0 1024 1024"><g transform="scale(1, -1) translate(0, -900)"><path d="M 743 405 Q 779 414 908 412 Q 932 412 941 425 Q 947 435 925 448 Q 864 490 801 466 Q 756 457 745 452 L 691 442 Q 621 429 555 410 Q 528 400 536 424 Q 555 488 571 513 Q 583 523 577 535 Q 571 545 535 566 Q 517 578 506 571 Q 494 562 503 547 Q 522 495 481 417 Q 451 381 452 371 Q 453 358 472 344 Q 485 334 500 347 Q 566 383 667 395 L 743 405 Z" fill="black" /></g></svg>