<?xml version='1.0' encoding='utf-8'?>
<svg xmlns="http://www.w3.org/2000/svg" version="1.1" viewBox="0 0 1024 1024"><g transform="scale(1, -1) translate(0, -900)"><path d="M 517 417 Q 517 466 517 517 L 517 549 Q 518 583 518 616 Q 517 623 517 631 L 517 671 Q 517 714 520 722 Q 523 734 514 741 Q 508 745 498 751 C 474 769 451 775 459 746 Q 466 733 467 709 Q 467 684 468 658 L 469 622 Q 469 582 469 540 L 470 510 Q 470 461 469 411 L 468 341 Q 468 164 457 42 Q 454 0 479 -33 Q 492 -48 501 -30 Q 528 22 521 67 Q 518 113 517 345 L 517 417 Z" fill="black" /></g></svg>