<?xml version='1.0' encoding='utf-8'?>
<svg xmlns="http://www.w3.org/2000/svg" version="1.1" viewBox="0 0 1024 1024"><g transform="scale(1, -1) translate(0, -900)"><path d="M 685 520 Q 728 530 780 540 Q 802 546 814 534 Q 824 530 828 482 Q 841 323 833 143 Q 832 118 822 109 Q 809 99 737 117 Q 721 121 722 111 Q 723 104 736 97 Q 799 51 832 16 Q 853 -3 865 -1 Q 878 2 889 30 Q 905 76 903 141 Q 881 474 899 513 Q 911 535 900 546 Q 890 561 843 584 Q 824 594 804 588 Q 767 575 688 554 L 641 543 Q 574 531 508 520 C 478 515 494 475 523 481 Q 530 481 542 484 Q 585 497 639 509 L 685 520 Z" fill="black" /></g></svg>