<?xml version='1.0' encoding='utf-8'?>
<svg xmlns="http://www.w3.org/2000/svg" version="1.1" viewBox="0 0 1024 1024"><g transform="scale(1, -1) translate(0, -900)"><path d="M 334 401 Q 335 450 337 507 L 339 559 Q 339 667 362 743 Q 375 770 351 787 Q 335 799 306 817 Q 282 835 261 819 Q 257 815 262 799 Q 295 750 295 700 Q 295 628 296 545 L 290 407 Q 286 328 285 243 Q 279 165 258 93 Q 246 54 271 -9 Q 278 -28 286 -31 Q 292 -38 300 -29 Q 307 -25 318 -4 Q 328 21 328 52 Q 327 92 333 387 L 334 401 Z" fill="black" /></g></svg>