<?xml version='1.0' encoding='utf-8'?>
<svg xmlns="http://www.w3.org/2000/svg" version="1.1" viewBox="0 0 1024 1024"><g transform="scale(1, -1) translate(0, -900)"><path d="M 597 528 Q 618 494 636 485 Q 648 476 664 499 Q 680 524 716 668 Q 726 702 753 729 Q 768 742 755 757 Q 739 776 693 806 Q 674 815 599 800 Q 572 799 419 775 Q 314 760 275 763 C 245 764 300 714 329 722 Q 381 737 459 746 L 498 751 Q 633 772 650 754 Q 663 738 660 721 Q 630 565 610 551 C 596 529 596 529 597 528 Z" fill="black" /></g></svg>