<?xml version='1.0' encoding='utf-8'?>
<svg xmlns="http://www.w3.org/2000/svg" version="1.1" viewBox="0 0 1024 1024"><g transform="scale(1, -1) translate(0, -900)"><path d="M 322 434 Q 323 477 325 523 L 327 582 Q 327 585 328 587 Q 331 684 350 749 Q 360 765 357 779 Q 350 789 293 825 Q 268 844 247 828 Q 241 822 248 806 Q 279 757 280 708 Q 280 641 280 563 L 273 412 Q 264 216 258 177 Q 234 69 236 58 Q 236 51 255 3 Q 261 -15 269 -19 Q 276 -26 284 -17 Q 291 -13 303 9 Q 313 34 313 67 Q 313 107 321 406 L 322 434 Z" fill="black" /></g></svg>