<?xml version='1.0' encoding='utf-8'?>
<svg xmlns="http://www.w3.org/2000/svg" version="1.1" viewBox="0 0 1024 1024"><g transform="scale(1, -1) translate(0, -900)"><path d="M 673 177 Q 727 259 754 319 Q 760 350 793 379 Q 812 395 799 409 Q 786 422 754 434 Q 733 441 657 411 L 615 398 Q 572 388 507 379 Q 492 378 488 370 Q 484 363 503 355 Q 540 342 592 358 Q 668 385 683 384 Q 705 383 699 358 Q 675 265 634 211 L 608 180 Q 533 116 421 84 Q 406 80 418 71 Q 424 67 468 69 Q 561 76 637 142 L 673 177 Z" fill="black" /></g></svg>