<?xml version='1.0' encoding='utf-8'?>
<svg xmlns="http://www.w3.org/2000/svg" version="1.1" viewBox="0 0 1024 1024"><g transform="scale(1, -1) translate(0, -900)"><path d="M 342 391 Q 342 440 344 495 L 345 548 Q 345 666 365 738 Q 380 763 350 783 Q 335 795 310 809 Q 288 825 267 811 Q 263 807 269 791 Q 299 742 301 665 Q 301 599 302 532 L 297 376 Q 293 202 284 158 Q 263 62 267 50 Q 274 26 284 2 Q 291 -16 299 -19 Q 305 -26 312 -17 Q 339 -1 339 62 Q 338 99 341 358 L 342 391 Z" fill="black" /></g></svg>