<?xml version='1.0' encoding='utf-8'?>
<svg xmlns="http://www.w3.org/2000/svg" version="1.1" viewBox="0 0 1024 1024"><g transform="scale(1, -1) translate(0, -900)"><path d="M 333 446 Q 334 489 336 534 L 338 595 Q 341 683 358 741 Q 368 757 365 771 Q 358 781 301 817 Q 276 836 255 819 Q 249 815 256 798 Q 287 750 287 703 Q 287 643 287 576 L 283 425 Q 279 346 279 262 Q 273 186 253 117 Q 241 75 267 11 Q 273 -7 281 -11 Q 288 -18 296 -9 Q 303 -5 315 17 Q 325 42 325 75 Q 324 115 332 415 L 333 446 Z" fill="black" /></g></svg>