<?xml version='1.0' encoding='utf-8'?>
<svg xmlns="http://www.w3.org/2000/svg" version="1.1" viewBox="0 0 1024 1024"><g transform="scale(1, -1) translate(0, -900)"><path d="M 317 431 Q 318 479 321 532 L 323 588 Q 327 678 346 737 Q 356 752 353 766 Q 346 776 289 814 Q 265 832 243 816 Q 237 812 244 795 Q 275 747 274 699 Q 274 638 274 570 L 267 421 Q 255 205 254 202 Q 247 160 234 118 Q 221 73 247 12 Q 253 -7 261 -11 Q 268 -18 276 -9 Q 306 9 306 75 Q 306 115 316 404 L 317 431 Z" fill="black" /></g></svg>