<?xml version='1.0' encoding='utf-8'?>
<svg xmlns="http://www.w3.org/2000/svg" version="1.1" viewBox="0 0 1024 1024"><g transform="scale(1, -1) translate(0, -900)"><path d="M 898 85 Q 882 110 858 187 Q 857 202 849 206 Q 843 209 840 192 Q 824 105 811 78 Q 774 39 663 44 Q 620 45 586 60 Q 556 75 549 93 Q 525 148 557 320 C 562 347 562 347 543 357 Q 533 364 519 370 Q 509 374 500 370 Q 494 367 498 351 Q 510 315 506 281 Q 493 121 506 76 Q 510 52 532 33 Q 613 -31 790 -1 Q 799 2 810 4 Q 853 16 895 42 Q 914 60 898 85 Z" fill="black" /></g></svg>