<?xml version='1.0' encoding='utf-8'?>
<svg xmlns="http://www.w3.org/2000/svg" version="1.1" viewBox="0 0 1024 1024"><g transform="scale(1, -1) translate(0, -900)"><path d="M 329 439 Q 329 478 331 520 L 333 574 Q 334 665 353 726 Q 362 741 359 754 Q 352 764 298 797 Q 276 813 255 799 Q 251 795 256 779 Q 289 731 289 682 Q 289 624 289 556 L 285 418 Q 281 331 281 236 Q 277 160 255 89 Q 243 46 269 -10 Q 275 -28 283 -31 Q 289 -37 296 -29 Q 303 -25 314 -5 Q 324 20 323 50 Q 322 93 328 410 L 329 439 Z" fill="black" /></g></svg>