<?xml version='1.0' encoding='utf-8'?>
<svg xmlns="http://www.w3.org/2000/svg" version="1.1" viewBox="0 0 1024 1024"><g transform="scale(1, -1) translate(0, -900)"><path d="M 294 411 Q 294 460 296 516 L 297 571 Q 297 688 317 762 Q 332 787 302 807 Q 287 819 262 833 Q 240 849 219 835 Q 215 831 221 815 Q 254 766 254 716 Q 255 643 256 560 Q 255 559 255 555 L 250 400 Q 247 223 238 178 Q 232 144 222 109 Q 212 72 236 10 Q 243 -8 251 -11 Q 257 -18 264 -9 Q 291 7 291 70 Q 290 110 293 385 L 294 411 Z" fill="black" /></g></svg>