<?xml version='1.0' encoding='utf-8'?>
<svg xmlns="http://www.w3.org/2000/svg" version="1.1" viewBox="0 0 1024 1024"><g transform="scale(1, -1) translate(0, -900)"><path d="M 324 415 Q 325 460 327 509 L 329 566 Q 329 680 352 758 Q 362 773 359 786 Q 352 795 298 830 Q 276 846 255 832 Q 251 828 256 812 Q 289 763 288 712 Q 289 639 288 557 Q 287 556 287 551 L 281 410 Q 277 335 276 255 Q 270 177 248 105 Q 235 63 261 6 Q 267 -12 275 -15 Q 281 -21 288 -13 Q 315 3 316 66 Q 315 106 323 391 L 324 415 Z" fill="black" /></g></svg>