<?xml version='1.0' encoding='utf-8'?>
<svg xmlns="http://www.w3.org/2000/svg" version="1.1" viewBox="0 0 1024 1024"><g transform="scale(1, -1) translate(0, -900)"><path d="M 572 440 Q 575 704 584 737 Q 591 758 576 772 Q 551 791 523 798 Q 492 805 481 791 Q 472 779 487 765 Q 508 747 514 703 Q 526 622 526 430 L 525 389 Q 522 101 484 49 Q 471 28 483 6 Q 496 -15 516 -23 Q 528 -30 541 -12 Q 560 19 658 118 Q 686 140 689 151 Q 690 158 684 160 Q 680 161 581 99 Q 562 83 560 108 Q 564 250 569 399 L 572 440 Z" fill="black" /></g></svg>