<?xml version='1.0' encoding='utf-8'?>
<svg xmlns="http://www.w3.org/2000/svg" version="1.1" viewBox="0 0 1024 1024"><g transform="scale(1, -1) translate(0, -900)"><path d="M 519 608 Q 654 630 678 616 Q 684 612 680 592 Q 664 519 658 504 Q 651 488 655 471 Q 659 456 672 457 Q 685 458 693 472 Q 700 476 717 506 Q 735 555 771 583 Q 790 598 774 614 Q 758 630 710 658 Q 697 667 630 653 Q 576 649 521 639 L 484 633 Q 451 629 422 623 Q 358 613 315 606 C 285 601 291 567 321 572 Q 327 572 333 573 Q 387 589 484 603 L 519 608 Z" fill="black" /></g></svg>