<?xml version='1.0' encoding='utf-8'?>
<svg xmlns="http://www.w3.org/2000/svg" version="1.1" viewBox="0 0 1024 1024"><g transform="scale(1, -1) translate(0, -900)"><path d="M 643 393 Q 591 384 546 379 Q 527 378 524 369 Q 523 360 548 348 Q 575 332 595 339 Q 614 345 634 350 L 691 365 Q 739 378 781 384 Q 799 387 802 381 Q 815 362 805 311 Q 786 169 751 109 Q 738 84 715 87 Q 687 102 662 118 Q 640 130 653 104 Q 698 49 716 9 Q 740 -15 761 7 Q 795 32 818 79 Q 845 133 859 296 Q 865 354 884 383 Q 897 396 890 407 Q 880 417 827 441 Q 806 450 787 436 Q 768 426 701 407 L 643 393 Z" fill="black" /></g></svg>