<?xml version='1.0' encoding='utf-8'?>
<svg xmlns="http://www.w3.org/2000/svg" version="1.1" viewBox="0 0 1024 1024"><g transform="scale(1, -1) translate(0, -900)"><path d="M 517 658 Q 507 668 483 680 Q 464 690 455 683 Q 448 676 455 662 Q 473 628 473 566 Q 480 160 430 84 Q 420 69 428 48 Q 435 27 446 18 Q 456 11 473 22 Q 584 95 900 88 Q 925 87 926 99 Q 926 115 897 136 Q 881 149 769 131 Q 574 112 533 103 Q 508 99 507 123 Q 517 310 521 549 Q 522 627 529 633 C 532 648 532 648 517 658 Z" fill="black" /></g></svg>