<?xml version='1.0' encoding='utf-8'?>
<svg xmlns="http://www.w3.org/2000/svg" version="1.1" viewBox="0 0 1024 1024"><g transform="scale(1, -1) translate(0, -900)"><path d="M 331 434 Q 331 476 333 521 L 333 575 Q 333 576 334 577 Q 335 677 354 744 Q 364 759 360 773 Q 353 783 298 817 Q 274 835 253 819 Q 249 813 254 798 Q 288 749 288 698 Q 288 634 290 560 L 285 389 Q 281 194 269 134 Q 245 41 265 -2 Q 266 -9 271 -18 Q 278 -36 286 -39 Q 292 -46 300 -37 Q 307 -33 318 -12 Q 328 13 327 45 Q 326 87 331 398 L 331 434 Z" fill="black" /></g></svg>