<?xml version='1.0' encoding='utf-8'?>
<svg xmlns="http://www.w3.org/2000/svg" version="1.1" viewBox="0 0 1024 1024"><g transform="scale(1, -1) translate(0, -900)"><path d="M 335 438 Q 335 471 337 504 L 339 563 Q 339 678 362 755 Q 375 782 351 799 Q 335 811 306 829 Q 282 847 261 831 Q 257 827 262 811 Q 295 763 295 663 Q 295 606 294 546 L 289 404 Q 285 334 285 258 Q 279 180 258 109 Q 246 70 271 7 Q 278 -12 286 -15 Q 292 -22 300 -13 Q 307 -9 318 12 Q 328 37 328 68 Q 327 108 334 408 L 335 438 Z" fill="black" /></g></svg>