<?xml version='1.0' encoding='utf-8'?>
<svg xmlns="http://www.w3.org/2000/svg" version="1.1" viewBox="0 0 1024 1024"><g transform="scale(1, -1) translate(0, -900)"><path d="M 515 289 Q 515 296 516 303 L 519 346 Q 520 355 522 361 Q 525 373 518 379 Q 496 398 477 408 Q 465 412 456 405 Q 450 402 457 392 Q 466 377 466 335 L 465 257 Q 464 238 464 212 Q 457 74 447 51 Q 435 18 469 -36 Q 479 -54 488 -58 Q 498 -59 504 -47 Q 517 -16 514 14 Q 513 141 514 247 Q 514 250 514 251 L 515 289 Z" fill="black" /></g></svg>