<?xml version='1.0' encoding='utf-8'?>
<svg xmlns="http://www.w3.org/2000/svg" version="1.1" viewBox="0 0 1024 1024"><g transform="scale(1, -1) translate(0, -900)"><path d="M 370 389 Q 400 408 459 420 Q 583 448 712 454 Q 743 458 758 448 Q 771 438 761 393 Q 749 314 733 291 Q 729 284 714 284 Q 690 294 668 303 Q 655 310 654 303 Q 654 299 660 290 Q 694 238 705 207 Q 709 186 729 194 Q 754 201 775 216 Q 791 237 816 366 Q 823 403 841 436 Q 854 452 842 465 Q 823 484 786 506 Q 764 518 736 505 Q 681 483 628 478 Q 555 471 406 445 Q 379 439 376 460 Q 376 637 385 671 C 389 701 390 707 369 717 Q 357 726 342 731 Q 323 737 315 728 Q 309 724 317 711 Q 329 687 330 535 Q 330 472 320 429 Q 314 407 330 392 Q 351 376 370 389 Z" fill="black" /></g></svg>