<?xml version='1.0' encoding='utf-8'?>
<svg xmlns="http://www.w3.org/2000/svg" version="1.1" viewBox="0 0 1024 1024"><g transform="scale(1, -1) translate(0, -900)"><path d="M 535 540 Q 571 524 599 533 Q 626 543 752 567 Q 774 571 782 561 Q 800 542 802 492 Q 808 341 797 244 Q 775 91 745 73 Q 738 70 663 104 Q 653 108 650 105 Q 646 99 660 83 Q 697 32 715 -11 Q 734 -39 751 -34 Q 799 -19 835 102 Q 856 184 867 451 Q 868 521 887 544 Q 903 565 881 581 Q 809 626 758 608 Q 677 584 548 559 C 519 553 506 549 535 540 Z" fill="black" /></g></svg>