<?xml version='1.0' encoding='utf-8'?>
<svg xmlns="http://www.w3.org/2000/svg" version="1.1" viewBox="0 0 1024 1024"><g transform="scale(1, -1) translate(0, -900)"><path d="M 290 427 Q 291 470 293 518 L 295 575 Q 298 674 317 739 Q 327 755 324 768 Q 317 778 262 813 Q 238 831 217 816 Q 213 810 218 795 Q 251 746 250 696 Q 250 632 250 557 L 243 393 Q 239 318 238 239 Q 232 161 211 89 Q 198 46 224 -13 Q 230 -31 238 -35 Q 244 -42 252 -33 Q 259 -29 270 -8 Q 280 17 280 48 Q 280 90 289 401 L 290 427 Z" fill="black" /></g></svg>