<?xml version='1.0' encoding='utf-8'?>
<svg xmlns="http://www.w3.org/2000/svg" version="1.1" viewBox="0 0 1024 1024"><g transform="scale(1, -1) translate(0, -900)"><path d="M 500 447 Q 525 453 552 456 Q 562 457 565 452 Q 571 440 569 407 Q 563 286 542 220 Q 532 180 518 166 Q 508 156 485 162 Q 457 171 430 180 Q 409 187 424 167 Q 464 121 485 86 Q 492 67 512 71 Q 528 72 547 95 Q 601 155 622 369 Q 626 418 645 447 Q 660 466 652 474 Q 639 490 607 504 Q 585 514 562 504 Q 538 494 508 483 L 455 468 Q 395 456 362 453 Q 347 454 347 446 Q 346 439 364 428 Q 385 415 404 423 Q 426 430 448 435 L 500 447 Z" fill="black" /></g></svg>