<?xml version='1.0' encoding='utf-8'?>
<svg xmlns="http://www.w3.org/2000/svg" version="1.1" viewBox="0 0 1024 1024"><g transform="scale(1, -1) translate(0, -900)"><path d="M 628 429 Q 710 450 824 444 Q 846 443 846 454 Q 847 466 814 483 Q 790 498 734 481 Q 731 481 583 457 Q 555 450 542 455 Q 529 461 533 475 Q 532 535 533 597 L 535 636 Q 535 645 536 653 Q 540 675 521 691 Q 490 716 471 714 Q 453 713 463 695 Q 485 664 490 631 L 492 589 Q 496 474 485 453 Q 475 437 484 423 Q 497 401 510 401 Q 517 401 537 411 Q 562 418 593 424 L 628 429 Z" fill="black" /></g></svg>