<?xml version='1.0' encoding='utf-8'?>
<svg xmlns="http://www.w3.org/2000/svg" version="1.1" viewBox="0 0 1024 1024"><g transform="scale(1, -1) translate(0, -900)"><path d="M 311 470 Q 312 500 313 532 L 314 586 Q 314 589 315 591 Q 316 687 334 752 Q 344 767 340 781 Q 333 791 278 825 Q 254 843 233 827 Q 229 821 234 806 Q 267 758 267 710 Q 267 644 268 571 L 265 405 Q 256 207 256 204 Q 249 161 237 117 Q 225 77 251 14 Q 258 -4 266 -7 Q 273 -14 280 -5 Q 287 -1 298 20 Q 308 45 307 77 Q 306 117 311 432 L 311 470 Z" fill="black" /></g></svg>