<?xml version='1.0' encoding='utf-8'?>
<svg xmlns="http://www.w3.org/2000/svg" version="1.1" viewBox="0 0 1024 1024"><g transform="scale(1, -1) translate(0, -900)"><path d="M 899 110 Q 884 135 862 217 Q 861 233 853 238 Q 846 241 843 223 Q 819 133 802 105 Q 789 90 750 79 Q 659 57 588 82 Q 560 94 553 111 Q 534 150 540 229 L 542 251 Q 546 308 559 374 Q 565 393 552 403 Q 539 418 513 427 Q 500 431 490 427 Q 483 423 488 403 Q 501 361 499 321 Q 486 140 502 90 Q 506 68 528 48 Q 612 -12 782 20 Q 794 23 809 26 Q 852 39 895 66 Q 914 82 899 110 Z" fill="black" /></g></svg>