<?xml version='1.0' encoding='utf-8'?>
<svg xmlns="http://www.w3.org/2000/svg" version="1.1" viewBox="0 0 1024 1024"><g transform="scale(1, -1) translate(0, -900)"><path d="M 293 395 Q 294 447 296 506 L 297 559 Q 297 686 319 761 Q 334 786 307 806 Q 291 818 261 837 Q 236 855 215 839 Q 209 833 216 818 Q 249 769 250 688 Q 250 616 250 541 L 246 406 Q 242 334 242 257 Q 238 178 216 105 Q 204 63 230 -1 Q 237 -20 245 -23 Q 252 -30 260 -21 Q 267 -17 279 5 Q 289 30 288 63 Q 288 103 293 372 L 293 395 Z" fill="black" /></g></svg>