<?xml version='1.0' encoding='utf-8'?>
<svg xmlns="http://www.w3.org/2000/svg" version="1.1" viewBox="0 0 1024 1024"><g transform="scale(1, -1) translate(0, -900)"><path d="M 303 440 Q 303 482 305 527 L 307 584 Q 308 677 326 740 Q 336 755 332 769 Q 325 779 270 813 Q 246 831 225 815 Q 221 809 226 794 Q 259 746 259 698 Q 259 637 260 566 L 257 405 Q 248 198 248 192 Q 241 149 229 105 Q 217 65 243 2 Q 250 -16 258 -19 Q 265 -26 272 -17 Q 279 -13 290 8 Q 300 33 299 65 Q 298 105 303 410 L 303 440 Z" fill="black" /></g></svg>