<?xml version='1.0' encoding='utf-8'?>
<svg xmlns="http://www.w3.org/2000/svg" version="1.1" viewBox="0 0 1024 1024"><g transform="scale(1, -1) translate(0, -900)"><path d="M 325 383 Q 326 435 328 493 L 329 548 Q 330 567 331 588 Q 332 684 351 749 Q 361 765 357 779 Q 350 789 293 825 Q 268 843 247 827 Q 241 821 248 806 Q 279 755 281 680 Q 281 607 281 532 L 276 395 Q 273 224 264 180 Q 258 147 248 113 Q 236 71 262 7 Q 269 -12 277 -15 Q 284 -22 292 -13 Q 299 -9 311 13 Q 321 38 320 71 Q 320 108 324 353 L 325 383 Z" fill="black" /></g></svg>