<?xml version='1.0' encoding='utf-8'?>
<svg xmlns="http://www.w3.org/2000/svg" version="1.1" viewBox="0 0 1024 1024"><g transform="scale(1, -1) translate(0, -900)"><path d="M 885 436 Q 913 443 903 463 Q 882 511 872 583 Q 868 599 861 602 Q 854 606 852 592 Q 839 511 815 489 Q 809 479 779 474 Q 701 461 672 485 Q 656 506 654 539 Q 653 572 672 616 Q 690 658 713 671 Q 738 690 713 706 Q 695 719 678 731 Q 659 743 642 733 Q 624 727 551 704 L 496 688 Q 420 669 384 662 Q 368 659 368 647 Q 367 640 395 628 Q 423 618 458 637 Q 470 644 486 650 L 541 670 Q 613 700 634 688 Q 644 681 639 664 Q 591 517 637 462 Q 677 419 790 420 Q 851 423 885 436 Z" fill="black" /></g></svg>