<?xml version='1.0' encoding='utf-8'?>
<svg xmlns="http://www.w3.org/2000/svg" version="1.1" viewBox="0 0 1024 1024"><g transform="scale(1, -1) translate(0, -900)"><path d="M 668 463 Q 720 532 782 630 Q 792 651 804 661 Q 817 671 810 681 Q 801 694 766 707 Q 741 720 708 699 Q 654 677 573 661 C 544 655 524 631 553 625 Q 589 615 609 624 Q 709 661 719 661 Q 726 657 715 642 Q 669 557 624 495 L 601 465 Q 499 345 340 249 Q 324 239 334 235 Q 344 232 364 239 Q 479 285 575 366 Q 605 391 639 428 L 668 463 Z" fill="black" /></g></svg>