<?xml version='1.0' encoding='utf-8'?>
<svg xmlns="http://www.w3.org/2000/svg" version="1.1" viewBox="0 0 1024 1024"><g transform="scale(1, -1) translate(0, -900)"><path d="M 539 602 Q 612 615 689 623 Q 723 627 724 613 Q 723 597 689 540 Q 680 525 687 521 Q 694 517 708 528 Q 787 582 819 591 Q 844 595 843 610 Q 842 623 770 663 Q 748 673 721 668 Q 628 647 547 631 L 525 627 Q 509 626 494 622 Q 374 606 209 590 Q 181 587 202 564 Q 217 543 265 556 Q 356 574 449 588 L 539 602 Z" fill="black" /></g></svg>