<?xml version='1.0' encoding='utf-8'?>
<svg xmlns="http://www.w3.org/2000/svg" version="1.1" viewBox="0 0 1024 1024"><g transform="scale(1, -1) translate(0, -900)"><path d="M 323 431 Q 324 471 326 514 L 328 571 Q 329 670 350 735 Q 359 751 356 764 Q 349 774 294 809 Q 270 827 249 811 Q 245 807 250 791 Q 283 742 283 691 Q 283 627 283 554 L 277 386 Q 268 184 265 160 Q 258 120 246 81 Q 234 42 259 -21 Q 266 -40 274 -43 Q 280 -50 288 -41 Q 295 -37 306 -16 Q 316 9 316 40 Q 315 83 322 399 L 323 431 Z" fill="black" /></g></svg>