<?xml version='1.0' encoding='utf-8'?>
<svg xmlns="http://www.w3.org/2000/svg" version="1.1" viewBox="0 0 1024 1024"><g transform="scale(1, -1) translate(0, -900)"><path d="M 311 437 Q 311 482 313 531 L 314 580 Q 314 676 334 748 Q 350 772 323 792 Q 307 804 278 821 Q 254 839 233 823 Q 229 817 234 802 Q 265 754 267 707 Q 267 640 268 564 L 264 429 Q 261 228 249 168 Q 225 81 246 31 Q 247 25 251 18 Q 258 0 266 -3 Q 272 -10 280 -1 Q 287 3 298 24 Q 308 49 307 81 Q 306 121 310 406 L 311 437 Z" fill="black" /></g></svg>