<?xml version='1.0' encoding='utf-8'?>
<svg xmlns="http://www.w3.org/2000/svg" version="1.1" viewBox="0 0 1024 1024"><g transform="scale(1, -1) translate(0, -900)"><path d="M 303 436 Q 303 473 305 515 L 306 569 Q 306 668 326 744 Q 341 768 311 790 Q 295 802 270 817 Q 246 835 225 819 Q 221 813 226 798 Q 257 752 258 705 Q 259 636 260 559 Q 259 558 259 553 L 255 410 Q 252 242 242 188 Q 221 92 233 56 Q 237 44 243 30 Q 250 12 258 9 Q 264 2 272 11 Q 279 15 290 36 Q 300 61 299 93 Q 298 132 303 413 L 303 436 Z" fill="black" /></g></svg>