<?xml version='1.0' encoding='utf-8'?>
<svg xmlns="http://www.w3.org/2000/svg" version="1.1" viewBox="0 0 1024 1024"><g transform="scale(1, -1) translate(0, -900)"><path d="M 511 439 Q 511 595 521 606 C 525 624 522 626 496 640 Q 487 646 475 652 Q 456 662 447 656 Q 440 649 448 634 Q 481 565 455 203 Q 443 110 422 79 Q 412 63 420 42 Q 427 20 438 12 Q 448 3 466 16 Q 523 53 608 70 Q 705 88 896 87 Q 921 86 923 98 Q 923 114 892 136 Q 874 151 772 132 Q 508 102 507 101 Q 498 104 505 252 Q 504 258 505 262 L 506 284 Q 507 345 510 408 L 511 439 Z" fill="black" /></g></svg>