<?xml version='1.0' encoding='utf-8'?>
<svg xmlns="http://www.w3.org/2000/svg" version="1.1" viewBox="0 0 1024 1024"><g transform="scale(1, -1) translate(0, -900)"><path d="M 331 463 Q 331 505 333 550 L 334 605 Q 337 696 354 760 Q 364 775 360 789 Q 353 799 298 833 Q 274 851 253 835 Q 249 829 254 814 Q 288 765 288 715 Q 288 657 289 590 L 286 429 Q 277 201 275 184 Q 268 144 257 105 Q 245 65 271 2 Q 278 -16 286 -19 Q 292 -26 300 -17 Q 307 -13 318 8 Q 328 33 327 65 Q 326 108 331 430 L 331 463 Z" fill="black" /></g></svg>