<?xml version='1.0' encoding='utf-8'?>
<svg xmlns="http://www.w3.org/2000/svg" version="1.1" viewBox="0 0 1024 1024"><g transform="scale(1, -1) translate(0, -900)"><path d="M 745 154 Q 755 126 783 70 Q 792 51 803 52 Q 819 55 830 82 Q 864 149 870 240 Q 877 295 883 362 Q 889 413 913 444 Q 931 466 918 480 Q 894 502 845 524 Q 826 534 791 522 Q 734 500 672 484 L 619 473 Q 552 463 458 452 C 428 448 463 407 492 413 Q 496 413 502 414 Q 553 427 619 440 L 671 450 Q 717 460 771 470 Q 799 477 813 463 Q 840 412 797 193 Q 794 172 786 170 Q 783 169 773 172 C 745 161 743 160 745 154 Z" fill="black" /></g></svg>