<?xml version='1.0' encoding='utf-8'?>
<svg xmlns="http://www.w3.org/2000/svg" version="1.1" viewBox="0 0 1024 1024"><g transform="scale(1, -1) translate(0, -900)"><path d="M 320 454 Q 320 488 322 526 L 324 579 Q 325 670 344 730 Q 354 745 351 758 Q 344 768 290 802 Q 268 818 247 804 Q 243 798 248 784 Q 279 738 279 691 Q 279 631 279 563 L 273 406 Q 264 217 261 195 Q 255 158 244 121 Q 231 79 257 22 Q 263 4 271 1 Q 277 -5 284 3 Q 291 7 302 27 Q 312 52 311 82 Q 311 122 319 427 L 320 454 Z" fill="black" /></g></svg>