<?xml version='1.0' encoding='utf-8'?>
<svg xmlns="http://www.w3.org/2000/svg" version="1.1" viewBox="0 0 1024 1024"><g transform="scale(1, -1) translate(0, -900)"><path d="M 510 584 Q 500 594 455 606 Q 439 609 433 603 Q 426 597 438 579 Q 486 515 468 308 Q 464 263 454 231 Q 448 195 413 153 Q 401 141 410 120 Q 420 92 434 79 Q 447 70 460 85 Q 500 140 623 253 Q 639 265 640 274 Q 641 280 636 279 Q 626 278 527 217 Q 518 213 515 215 Q 509 218 510 235 Q 514 526 520 557 Q 520 561 520 566 C 521 578 521 578 510 584 Z" fill="black" /></g></svg>