<?xml version='1.0' encoding='utf-8'?>
<svg xmlns="http://www.w3.org/2000/svg" version="1.1" viewBox="0 0 1024 1024"><g transform="scale(1, -1) translate(0, -900)"><path d="M 663 370 Q 679 342 696 333 Q 706 323 725 345 Q 740 366 779 483 Q 789 517 817 542 Q 832 555 820 570 Q 804 589 760 620 Q 738 630 660 613 Q 600 606 535 593 L 493 587 Q 460 583 430 577 Q 307 556 280 560 C 250 560 288 513 317 521 Q 389 542 494 557 L 535 565 Q 589 574 654 582 Q 703 589 718 572 Q 728 557 725 543 Q 692 413 674 401 C 658 377 658 377 663 370 Z" fill="black" /></g></svg>