<?xml version='1.0' encoding='utf-8'?>
<svg xmlns="http://www.w3.org/2000/svg" version="1.1" viewBox="0 0 1024 1024"><g transform="scale(1, -1) translate(0, -900)"><path d="M 527 669 L 527 670 Q 517 680 487 696 Q 465 708 457 701 Q 450 694 457 678 Q 475 642 475 577 Q 478 376 457 190 Q 453 150 428 114 Q 418 99 427 77 Q 434 55 444 46 Q 454 39 473 50 Q 531 87 620 103 Q 720 119 915 112 Q 940 111 942 123 Q 942 139 913 160 Q 898 173 771 155 Q 600 143 536 131 Q 509 127 509 151 Q 519 334 526 565 Q 526 610 532 639 C 535 663 535 663 527 669 Z" fill="black" /></g></svg>