<?xml version='1.0' encoding='utf-8'?>
<svg xmlns="http://www.w3.org/2000/svg" version="1.1" viewBox="0 0 1024 1024"><g transform="scale(1, -1) translate(0, -900)"><path d="M 535 593 Q 535 594 536 595 Q 536 640 539 679 L 545 729 Q 549 756 556 778 Q 566 794 562 807 Q 555 817 497 853 Q 472 871 451 854 Q 445 848 452 833 Q 489 778 490 714 L 491 669 Q 492 630 493 587 L 494 557 Q 494 556 495 552 Q 494 470 491 381 L 490 308 Q 484 149 470 84 Q 449 17 475 -47 Q 476 -48 478 -53 Q 485 -72 493 -75 Q 500 -82 507 -73 Q 516 -69 526 -47 Q 536 -22 535 12 Q 534 52 533 322 L 534 388 Q 534 469 535 565 L 535 593 Z" fill="black" /></g></svg>