<?xml version='1.0' encoding='utf-8'?>
<svg xmlns="http://www.w3.org/2000/svg" version="1.1" viewBox="0 0 1024 1024"><g transform="scale(1, -1) translate(0, -900)"><path d="M 320 422 Q 321 471 323 527 L 324 587 Q 324 689 347 769 Q 360 796 335 814 Q 319 826 289 845 Q 264 864 243 847 Q 237 843 244 826 Q 278 775 278 724 Q 278 652 278 571 L 273 437 Q 261 193 259 182 Q 252 142 240 101 Q 228 59 254 -5 Q 261 -23 269 -27 Q 276 -34 284 -25 Q 311 -7 313 59 Q 312 101 319 391 L 320 422 Z" fill="black" /></g></svg>