<?xml version='1.0' encoding='utf-8'?>
<svg xmlns="http://www.w3.org/2000/svg" version="1.1" viewBox="0 0 1024 1024"><g transform="scale(1, -1) translate(0, -900)"><path d="M 327 400 Q 328 449 330 503 L 332 564 Q 332 684 355 761 Q 368 788 343 806 Q 327 818 297 837 Q 272 856 251 839 Q 245 835 252 818 Q 285 770 285 688 Q 285 619 285 547 L 280 412 Q 276 337 276 257 Q 270 178 248 105 Q 236 63 262 -1 Q 269 -19 277 -23 Q 284 -30 292 -21 Q 319 -3 321 63 Q 320 103 326 370 L 327 400 Z" fill="black" /></g></svg>