<?xml version='1.0' encoding='utf-8'?>
<svg xmlns="http://www.w3.org/2000/svg" version="1.1" viewBox="0 0 1024 1024"><g transform="scale(1, -1) translate(0, -900)"><path d="M 233 392 Q 224 202 224 193 Q 217 142 203 93 Q 191 57 216 -6 Q 223 -24 231 -27 Q 237 -34 244 -25 Q 251 -21 262 -1 Q 272 24 271 54 Q 270 93 274 360 L 275 383 Q 276 449 278 526 L 279 582 Q 279 678 301 754 Q 316 779 286 799 Q 271 811 246 825 Q 224 841 203 827 Q 199 823 204 807 Q 238 758 238 707 Q 238 641 238 567 L 233 392 Z" fill="black" /></g></svg>