<?xml version='1.0' encoding='utf-8'?>
<svg xmlns="http://www.w3.org/2000/svg" version="1.1" viewBox="0 0 1024 1024"><g transform="scale(1, -1) translate(0, -900)"><path d="M 554 416 Q 464 379 460 381 Q 453 382 454 400 Q 458 476 459 514 Q 458 542 460 566 Q 461 573 460 579 C 460 583 460 583 446 593 Q 430 605 414 611 Q 398 615 390 611 Q 381 605 393 589 Q 432 531 409 382 Q 403 361 387 336 Q 377 318 384 309 Q 391 297 415 288 Q 428 281 440 297 Q 458 330 546 384 Q 549 385 552 388 C 577 404 582 427 554 416 Z" fill="black" /></g></svg>