<?xml version='1.0' encoding='utf-8'?>
<svg xmlns="http://www.w3.org/2000/svg" version="1.1" viewBox="0 0 1024 1024"><g transform="scale(1, -1) translate(0, -900)"><path d="M 806 426 Q 815 84 790 62 Q 778 52 716 62 Q 700 63 702 55 Q 703 48 716 43 Q 773 3 803 -27 Q 822 -46 835 -43 Q 847 -40 857 -12 Q 870 31 868 94 Q 856 296 851 427 L 849 483 Q 846 618 858 644 Q 868 663 859 675 Q 849 688 804 711 Q 786 720 717 699 Q 561 660 462 648 C 432 644 452 602 481 610 Q 482 611 488 612 Q 603 643 744 668 Q 766 674 777 663 Q 793 654 804 474 L 806 426 Z" fill="black" /></g></svg>