<?xml version='1.0' encoding='utf-8'?>
<svg xmlns="http://www.w3.org/2000/svg" version="1.1" viewBox="0 0 1024 1024"><g transform="scale(1, -1) translate(0, -900)"><path d="M 584 635 Q 584 719 607 777 Q 619 805 601 822 Q 552 859 538 855 Q 523 849 531 833 Q 550 797 545 744 Q 538 519 570 491 Q 589 472 640 461 Q 686 451 759 451 Q 826 451 852 463 Q 882 478 870 508 Q 855 538 842 590 Q 841 605 833 610 Q 826 614 822 595 Q 804 534 793 525 Q 771 501 685 502 Q 637 503 617 512 Q 599 521 596 533 Q 586 558 584 614 L 584 635 Z" fill="black" /></g></svg>