<?xml version='1.0' encoding='utf-8'?>
<svg xmlns="http://www.w3.org/2000/svg" version="1.1" viewBox="0 0 1024 1024"><g transform="scale(1, -1) translate(0, -900)"><path d="M 851 427 Q 888 428 960 429 Q 979 429 983 438 Q 989 448 972 462 Q 918 502 851 484 Q 850 484 849 483 L 804 474 Q 756 467 701 456 L 664 450 Q 622 446 581 437 L 546 433 Q 510 429 477 423 L 435 417 Q 392 413 348 406 Q 327 403 343 387 Q 356 374 374 369 Q 383 368 432 373 L 474 384 Q 508 393 545 398 L 580 404 Q 619 413 663 415 L 701 419 Q 747 425 806 426 L 851 427 Z" fill="black" /></g></svg>