<?xml version='1.0' encoding='utf-8'?>
<svg xmlns="http://www.w3.org/2000/svg" version="1.1" viewBox="0 0 1024 1024"><g transform="scale(1, -1) translate(0, -900)"><path d="M 315 439 Q 316 476 318 518 L 320 573 Q 320 675 342 747 Q 355 774 331 791 Q 315 803 286 821 Q 262 839 241 823 Q 237 819 242 803 Q 273 754 274 706 Q 274 637 274 557 L 270 418 Q 263 214 248 151 Q 230 76 244 29 Q 247 22 251 11 Q 258 -8 266 -11 Q 272 -18 280 -9 Q 287 -5 298 16 Q 308 41 308 72 Q 307 114 314 411 L 315 439 Z" fill="black" /></g></svg>