<?xml version='1.0' encoding='utf-8'?>
<svg xmlns="http://www.w3.org/2000/svg" version="1.1" viewBox="0 0 1024 1024"><g transform="scale(1, -1) translate(0, -900)"><path d="M 849 410 Q 874 411 902 410 Q 927 410 950 410 Q 969 409 974 418 Q 980 428 964 442 Q 907 484 848 467 L 801 458 Q 759 454 710 444 L 664 438 Q 604 432 588 429 L 545 423 Q 502 420 459 414 L 417 409 Q 380 408 344 401 Q 325 400 339 383 Q 352 370 369 364 Q 390 358 405 362 Q 408 363 413 364 L 454 373 Q 499 386 545 390 L 588 395 Q 595 396 604 397 Q 629 401 662 403 L 707 406 Q 750 410 802 410 L 849 410 Z" fill="black" /></g></svg>