<?xml version='1.0' encoding='utf-8'?>
<svg xmlns="http://www.w3.org/2000/svg" version="1.1" viewBox="0 0 1024 1024"><g transform="scale(1, -1) translate(0, -900)"><path d="M 659 506 Q 696 548 736 615 Q 755 645 784 663 Q 800 672 801 681 Q 802 696 771 715 Q 734 742 717 742 Q 704 742 692 734 Q 590 698 514 692 Q 472 693 470 683 Q 469 679 476 673 Q 521 637 647 681 Q 671 688 680 680 Q 687 676 663 621 Q 647 584 619 548 Q 615 544 613 540 L 587 510 Q 511 435 416 397 Q 406 393 406 388 Q 407 384 415 383 Q 520 380 626 472 L 659 506 Z" fill="black" /></g></svg>