<?xml version='1.0' encoding='utf-8'?>
<svg xmlns="http://www.w3.org/2000/svg" version="1.1" viewBox="0 0 1024 1024"><g transform="scale(1, -1) translate(0, -900)"><path d="M 693 429 Q 736 438 781 441 Q 812 445 815 425 Q 827 281 809 260 Q 799 253 739 263 Q 723 266 721 261 Q 718 255 729 247 Q 787 210 822 181 Q 837 169 849 183 Q 871 217 873 285 Q 867 388 875 433 Q 878 452 868 462 Q 841 484 822 495 Q 810 501 801 491 Q 794 482 695 461 Q 692 461 693 460 L 641 451 Q 593 445 516 434 C 486 430 508 397 538 401 Q 544 401 551 402 Q 596 412 641 420 L 693 429 Z" fill="black" /></g></svg>