<?xml version='1.0' encoding='utf-8'?>
<svg xmlns="http://www.w3.org/2000/svg" version="1.1" viewBox="0 0 1024 1024"><g transform="scale(1, -1) translate(0, -900)"><path d="M 610 343 Q 683 368 736 377 Q 749 378 751 376 Q 758 367 755 346 Q 752 285 740 257 Q 724 227 697 232 Q 675 238 654 245 Q 632 252 647 230 Q 686 193 704 164 Q 717 148 730 160 Q 769 184 798 278 Q 813 357 829 374 Q 839 386 834 395 Q 827 405 780 425 Q 770 429 717 409 Q 666 393 597 377 C 568 370 582 333 610 343 Z" fill="black" /></g></svg>