<?xml version='1.0' encoding='utf-8'?>
<svg xmlns="http://www.w3.org/2000/svg" version="1.1" viewBox="0 0 1024 1024"><g transform="scale(1, -1) translate(0, -900)"><path d="M 597 144 Q 600 93 632 67 Q 678 31 845 32 Q 921 33 951 49 Q 982 65 970 98 Q 951 147 940 232 Q 937 248 930 254 Q 921 260 917 238 Q 901 133 886 115 Q 865 90 759 85 Q 702 86 679 95 Q 657 105 653 120 Q 646 142 643 182 L 642 237 Q 642 238 643 240 Q 650 334 669 379 Q 682 410 663 428 Q 611 468 595 465 Q 579 459 586 441 Q 607 401 600 344 Q 596 244 596 186 L 597 144 Z" fill="black" /></g></svg>