<?xml version='1.0' encoding='utf-8'?>
<svg xmlns="http://www.w3.org/2000/svg" version="1.1" viewBox="0 0 1024 1024"><g transform="scale(1, -1) translate(0, -900)"><path d="M 708 324 Q 727 330 840 341 Q 883 345 885 357 Q 886 373 855 391 Q 828 406 707 374 L 659 363 Q 614 356 563 346 Q 541 342 539 347 Q 538 351 545 370 Q 570 437 606 548 L 623 600 Q 663 741 694 770 Q 713 788 700 799 Q 640 847 613 843 Q 603 842 610 819 Q 626 762 574 589 L 558 537 Q 510 393 466 351 Q 441 329 463 279 Q 470 263 488 270 Q 561 301 660 317 L 708 324 Z" fill="black" /></g></svg>