<?xml version='1.0' encoding='utf-8'?>
<svg xmlns="http://www.w3.org/2000/svg" version="1.1" viewBox="0 0 1024 1024"><g transform="scale(1, -1) translate(0, -900)"><path d="M 534 603 Q 515 622 487 633 Q 474 637 465 629 Q 459 623 469 607 Q 487 579 485 538 Q 486 423 448 365 Q 436 350 442 339 Q 449 320 467 305 Q 479 295 496 307 Q 542 340 640 352 L 689 359 Q 756 366 844 360 Q 866 357 876 363 Q 883 369 877 381 Q 871 394 833 415 Q 812 427 740 414 Q 728 414 689 407 L 638 399 Q 586 392 535 379 Q 523 375 521 378 Q 511 385 516 407 Q 531 536 544 573 Q 547 580 546 586 C 547 592 547 592 534 603 Z" fill="black" /></g></svg>