<?xml version='1.0' encoding='utf-8'?>
<svg xmlns="http://www.w3.org/2000/svg" version="1.1" viewBox="0 0 1024 1024"><g transform="scale(1, -1) translate(0, -900)"><path d="M 609 449 Q 772 488 796 466 Q 803 459 801 446 Q 779 292 765 271 Q 761 264 750 268 Q 720 278 688 292 Q 660 299 677 278 Q 738 214 761 169 Q 768 156 782 163 Q 813 190 833 281 Q 855 414 875 436 Q 891 457 885 465 Q 876 478 825 513 Q 807 528 757 511 Q 592 490 515 467 Q 475 457 445 452 Q 423 449 418 439 Q 417 432 434 423 Q 467 402 499 415 Q 523 425 562 437 L 609 449 Z" fill="black" /></g></svg>