<?xml version='1.0' encoding='utf-8'?>
<svg xmlns="http://www.w3.org/2000/svg" version="1.1" viewBox="0 0 1024 1024"><g transform="scale(1, -1) translate(0, -900)"><path d="M 332 427 Q 333 475 335 528 L 337 581 Q 338 672 357 734 Q 366 749 363 762 Q 356 772 302 805 Q 280 821 259 807 Q 255 803 260 787 Q 293 738 293 690 Q 293 632 293 564 L 289 412 Q 282 196 277 170 Q 253 52 254 50 Q 254 35 273 -6 Q 279 -24 287 -27 Q 293 -34 300 -25 Q 307 -21 318 -1 Q 328 24 327 54 Q 326 94 332 397 L 332 427 Z" fill="black" /></g></svg>