<?xml version='1.0' encoding='utf-8'?>
<svg xmlns="http://www.w3.org/2000/svg" version="1.1" viewBox="0 0 1024 1024"><g transform="scale(1, -1) translate(0, -900)"><path d="M 335 425 Q 336 473 338 525 L 340 583 Q 343 670 361 730 Q 370 745 367 758 Q 360 768 306 801 Q 284 819 263 803 Q 259 799 264 783 Q 295 735 296 686 Q 296 629 296 565 L 292 413 Q 280 178 276 160 Q 270 127 260 93 Q 247 51 273 -6 Q 279 -24 287 -27 Q 293 -33 300 -25 Q 307 -21 318 -1 Q 328 24 327 54 Q 327 94 334 397 L 335 425 Z" fill="black" /></g></svg>