<?xml version='1.0' encoding='utf-8'?>
<svg xmlns="http://www.w3.org/2000/svg" version="1.1" viewBox="0 0 1024 1024"><g transform="scale(1, -1) translate(0, -900)"><path d="M 683 484 Q 687 468 700 468 Q 718 471 750 523 Q 769 575 808 603 Q 829 619 813 635 Q 795 654 746 683 Q 728 695 708 687 Q 668 680 619 673 Q 615 673 612 671 L 559 666 Q 501 660 449 650 L 405 642 Q 332 630 278 624 C 248 620 268 581 297 588 Q 300 588 304 589 Q 344 601 409 612 L 450 619 Q 496 626 556 634 L 604 639 Q 688 655 712 640 Q 719 636 714 614 Q 695 535 684 513 C 676 493 676 493 683 484 Z" fill="black" /></g></svg>