<?xml version='1.0' encoding='utf-8'?>
<svg xmlns="http://www.w3.org/2000/svg" version="1.1" viewBox="0 0 1024 1024"><g transform="scale(1, -1) translate(0, -900)"><path d="M 309 448 Q 310 479 311 513 L 312 567 Q 312 679 334 756 Q 349 781 323 799 Q 307 811 278 829 Q 254 847 233 831 Q 229 827 234 810 Q 267 761 267 711 Q 268 638 269 555 Q 268 555 268 553 L 264 426 Q 260 342 260 252 Q 256 173 233 101 Q 223 64 247 -2 Q 254 -20 262 -23 Q 268 -30 276 -21 Q 303 -5 304 61 Q 303 104 309 420 L 309 448 Z" fill="black" /></g></svg>