<?xml version='1.0' encoding='utf-8'?>
<svg xmlns="http://www.w3.org/2000/svg" version="1.1" viewBox="0 0 1024 1024"><g transform="scale(1, -1) translate(0, -900)"><path d="M 515 152 Q 493 156 470 162 Q 451 169 452 160 Q 501 114 528 80 Q 541 61 555 56 Q 564 53 572 62 Q 612 108 611 159 Q 590 579 616 626 Q 626 644 616 654 Q 595 672 561 686 Q 543 693 529 686 Q 507 673 491 666 Q 470 659 422 651 Q 409 650 416 641 Q 425 631 439 626 Q 461 622 519 642 Q 538 648 543 638 Q 553 608 554 367 Q 551 172 538 153 Q 534 149 515 152 Z" fill="black" /></g></svg>