<?xml version='1.0' encoding='utf-8'?>
<svg xmlns="http://www.w3.org/2000/svg" version="1.1" viewBox="0 0 1024 1024"><g transform="scale(1, -1) translate(0, -900)"><path d="M 781 132 Q 756 141 728 149 Q 707 158 708 147 Q 762 92 791 51 Q 804 32 820 25 Q 830 21 839 31 Q 884 80 884 138 Q 854 586 882 647 Q 882 650 884 651 Q 897 672 884 682 Q 862 701 823 717 Q 802 726 753 698 Q 678 680 662 677 Q 646 676 656 666 Q 665 656 680 650 Q 702 644 777 669 Q 798 675 803 664 Q 825 604 816 241 Q 807 141 804 134 Q 800 128 781 132 Z" fill="black" /></g></svg>