<?xml version='1.0' encoding='utf-8'?>
<svg xmlns="http://www.w3.org/2000/svg" version="1.1" viewBox="0 0 1024 1024"><g transform="scale(1, -1) translate(0, -900)"><path d="M 326 458 Q 327 500 329 545 L 330 597 Q 333 676 350 732 Q 359 747 356 760 Q 349 770 294 805 Q 270 823 249 807 Q 245 803 250 786 Q 281 740 281 694 Q 281 640 282 580 L 278 431 Q 274 352 274 266 Q 270 193 250 125 Q 237 83 264 23 Q 270 4 278 1 Q 284 -6 292 3 Q 319 19 320 85 Q 319 125 326 425 L 326 458 Z" fill="black" /></g></svg>