<?xml version='1.0' encoding='utf-8'?>
<svg xmlns="http://www.w3.org/2000/svg" version="1.1" viewBox="0 0 1024 1024"><g transform="scale(1, -1) translate(0, -900)"><path d="M 263 432 Q 251 206 250 199 Q 243 156 230 113 Q 218 79 242 17 Q 248 1 255 -3 Q 261 -9 268 -1 Q 295 15 295 104 Q 296 185 304 448 L 305 466 Q 306 503 308 543 L 310 596 Q 313 684 331 744 Q 340 759 337 771 Q 331 781 279 814 Q 257 830 238 816 Q 232 812 239 796 Q 270 748 269 700 Q 269 645 269 580 L 263 432 Z" fill="black" /></g></svg>