<?xml version='1.0' encoding='utf-8'?>
<svg xmlns="http://www.w3.org/2000/svg" version="1.1" viewBox="0 0 1024 1024"><g transform="scale(1, -1) translate(0, -900)"><path d="M 327 402 Q 328 456 330 517 L 331 574 Q 332 661 350 720 Q 360 735 356 749 Q 349 759 294 793 Q 270 811 249 795 Q 245 789 250 774 Q 281 728 283 679 Q 283 621 284 556 L 281 414 Q 277 332 277 241 Q 273 166 253 97 Q 241 57 267 -6 Q 274 -24 282 -27 Q 288 -34 296 -25 Q 303 -21 314 0 Q 324 25 323 57 Q 322 94 327 370 L 327 402 Z" fill="black" /></g></svg>