<?xml version='1.0' encoding='utf-8'?>
<svg xmlns="http://www.w3.org/2000/svg" version="1.1" viewBox="0 0 1024 1024"><g transform="scale(1, -1) translate(0, -900)"><path d="M 578 176 Q 609 203 678 224 Q 711 234 730 228 Q 751 222 753 189 Q 743 128 708 81 Q 690 59 676 55 Q 660 52 592 83 Q 577 93 575 86 Q 574 80 583 67 Q 616 21 636 -19 Q 645 -34 656 -34 Q 672 -37 692 -27 Q 761 22 804 163 Q 807 191 819 209 Q 831 221 821 233 Q 805 249 769 265 Q 750 274 727 267 Q 696 257 673 253 Q 660 249 640 244 Q 606 235 619 270 Q 632 319 640 335 C 651 363 651 363 637 368 Q 624 375 605 377 C 576 384 572 377 577 347 Q 587 320 570 264 Q 564 249 545 226 Q 532 210 536 196 Q 539 183 555 172 Q 567 163 578 176 Z" fill="black" /></g></svg>