<?xml version='1.0' encoding='utf-8'?>
<svg xmlns="http://www.w3.org/2000/svg" version="1.1" viewBox="0 0 1024 1024"><g transform="scale(1, -1) translate(0, -900)"><path d="M 921 86 Q 905 122 891 186 Q 888 202 881 206 Q 874 210 871 191 Q 856 112 844 99 Q 822 68 711 57 Q 651 53 625 61 Q 601 71 595 85 Q 589 109 588 176 L 591 202 Q 595 248 606 272 L 606 271 L 607 271 Q 614 292 610 303 C 610 311 606 314 581 331 Q 550 355 538 351 Q 523 345 531 328 Q 541 309 544 285 L 544 226 Q 541 108 549 82 Q 559 51 584 34 Q 635 0 801 16 Q 877 23 907 42 Q 934 58 921 86 Z" fill="black" /></g></svg>