<?xml version='1.0' encoding='utf-8'?>
<svg xmlns="http://www.w3.org/2000/svg" version="1.1" viewBox="0 0 1024 1024"><g transform="scale(1, -1) translate(0, -900)"><path d="M 734 292 Q 735 76 724 54 Q 720 48 700 53 Q 678 56 655 59 Q 636 65 637 55 Q 689 12 718 -19 Q 731 -37 746 -41 Q 755 -44 763 -35 Q 799 19 798 65 Q 789 159 784 294 L 782 341 Q 781 387 779 435 Q 775 490 788 514 Q 798 533 787 542 Q 766 560 731 572 Q 715 579 700 572 Q 651 539 567 521 C 538 514 546 484 575 493 Q 576 494 580 495 Q 637 511 692 527 Q 707 531 716 525 Q 728 513 732 333 L 734 292 Z" fill="black" /></g></svg>