<?xml version='1.0' encoding='utf-8'?>
<svg xmlns="http://www.w3.org/2000/svg" version="1.1" viewBox="0 0 1024 1024"><g transform="scale(1, -1) translate(0, -900)"><path d="M 325 450 Q 325 490 327 535 L 329 591 Q 330 684 349 746 Q 358 761 355 774 Q 348 784 294 817 Q 272 833 251 819 Q 247 815 252 799 Q 285 750 285 701 Q 285 641 286 573 L 282 419 Q 278 337 277 250 Q 273 172 251 101 Q 239 58 265 2 Q 271 -16 279 -19 Q 285 -26 292 -17 Q 299 -13 310 7 Q 320 32 319 62 Q 318 104 324 418 L 325 450 Z" fill="black" /></g></svg>