<?xml version='1.0' encoding='utf-8'?>
<svg xmlns="http://www.w3.org/2000/svg" version="1.1" viewBox="0 0 1024 1024"><g transform="scale(1, -1) translate(0, -900)"><path d="M 672 516 Q 697 523 806 524 Q 825 523 831 533 Q 835 540 819 551 Q 768 582 710 561 Q 698 561 674 553 L 632 544 Q 589 537 551 524 Q 529 517 535 536 Q 556 587 556 588 Q 552 597 523 612 Q 508 619 500 615 Q 491 608 498 596 Q 519 563 483 517 Q 468 511 471 493 Q 472 483 487 473 Q 499 466 509 475 Q 557 502 631 510 L 672 516 Z" fill="black" /></g></svg>