<?xml version='1.0' encoding='utf-8'?>
<svg xmlns="http://www.w3.org/2000/svg" version="1.1" viewBox="0 0 1024 1024"><g transform="scale(1, -1) translate(0, -900)"><path d="M 530 421 Q 530 425 530 428 L 530 453 Q 529 502 528 545 L 527 572 Q 526 624 534 665 Q 535 671 535 675 C 537 688 535 689 510 705 Q 494 717 480 723 Q 461 730 452 724 Q 442 717 451 701 Q 509 587 474 172 Q 470 123 429 72 Q 417 56 424 33 Q 434 5 448 -7 Q 461 -14 474 2 Q 490 30 642 141 Q 663 153 668 162 Q 672 172 662 172 Q 653 172 539 123 Q 521 114 522 131 Q 529 273 530 395 L 530 421 Z" fill="black" /></g></svg>