<?xml version='1.0' encoding='utf-8'?>
<svg xmlns="http://www.w3.org/2000/svg" version="1.1" viewBox="0 0 1024 1024"><g transform="scale(1, -1) translate(0, -900)"><path d="M 676 211 Q 733 85 823 9 Q 881 -42 909 -41 Q 928 -37 923 -10 Q 919 38 923 174 Q 923 198 915 199 Q 906 199 876 110 Q 861 74 840 81 Q 828 87 813 99 Q 771 141 706 249 L 685 300 Q 658 370 628 509 L 620 547 Q 598 673 609 760 Q 619 797 568 817 Q 535 830 517 824 Q 498 817 507 799 Q 550 762 551 730 Q 564 625 581 539 L 587 503 Q 608 382 656 259 L 676 211 Z" fill="black" /></g></svg>