<?xml version='1.0' encoding='utf-8'?>
<svg xmlns="http://www.w3.org/2000/svg" version="1.1" viewBox="0 0 1024 1024"><g transform="scale(1, -1) translate(0, -900)"><path d="M 297 428 Q 298 476 300 530 L 302 584 Q 303 672 322 732 Q 331 747 328 760 Q 321 770 266 805 Q 242 823 221 807 Q 217 803 222 786 Q 253 738 255 690 Q 255 632 255 566 L 251 400 Q 244 208 241 184 Q 234 141 222 97 Q 210 57 236 -6 Q 242 -24 250 -27 Q 256 -34 264 -25 Q 291 -9 292 57 Q 291 97 297 395 L 297 428 Z" fill="black" /></g></svg>