<?xml version='1.0' encoding='utf-8'?>
<svg xmlns="http://www.w3.org/2000/svg" version="1.1" viewBox="0 0 1024 1024"><g transform="scale(1, -1) translate(0, -900)"><path d="M 711 382 Q 712 422 715 465 Q 715 472 715 478 L 717 500 Q 727 693 752 727 Q 759 748 742 761 Q 715 786 679 795 Q 660 799 653 791 Q 644 782 651 773 Q 666 760 672 739 Q 676 714 670 557 Q 651 154 701 109 Q 746 52 907 66 Q 916 69 926 70 Q 962 80 977 94 Q 992 106 979 133 Q 966 179 964 240 Q 965 250 958 259 Q 949 266 943 244 Q 892 133 876 125 Q 873 125 870 124 Q 810 106 757 127 Q 736 133 722 167 Q 709 212 711 362 L 711 382 Z" fill="black" /></g></svg>