<?xml version='1.0' encoding='utf-8'?>
<svg xmlns="http://www.w3.org/2000/svg" version="1.1" viewBox="0 0 1024 1024"><g transform="scale(1, -1) translate(0, -900)"><path d="M 328 409 Q 328 457 331 510 L 332 563 Q 332 659 354 731 Q 367 758 343 775 Q 327 787 298 805 Q 274 823 253 807 Q 249 803 254 787 Q 285 738 286 690 Q 286 624 286 549 L 281 398 Q 268 176 266 168 Q 260 135 250 101 Q 237 59 264 -1 Q 270 -19 278 -23 Q 284 -30 292 -21 Q 299 -17 310 4 Q 320 29 320 60 Q 320 100 327 374 L 328 409 Z" fill="black" /></g></svg>