<?xml version='1.0' encoding='utf-8'?>
<svg xmlns="http://www.w3.org/2000/svg" version="1.1" viewBox="0 0 1024 1024"><g transform="scale(1, -1) translate(0, -900)"><path d="M 309 427 Q 309 464 311 506 L 312 563 Q 312 665 334 740 Q 349 765 323 783 Q 307 795 278 813 Q 254 831 233 815 Q 229 811 234 794 Q 267 745 267 695 Q 267 625 268 546 L 263 380 Q 254 188 253 178 Q 246 133 233 89 Q 223 52 247 -14 Q 254 -32 262 -35 Q 268 -42 276 -33 Q 303 -17 304 49 Q 303 91 308 398 L 309 427 Z" fill="black" /></g></svg>