<?xml version='1.0' encoding='utf-8'?>
<svg xmlns="http://www.w3.org/2000/svg" version="1.1" viewBox="0 0 1024 1024"><g transform="scale(1, -1) translate(0, -900)"><path d="M 313 400 Q 314 446 316 499 L 317 556 Q 317 649 338 723 Q 351 750 327 767 Q 311 779 282 797 Q 258 815 237 799 Q 233 795 238 778 Q 269 730 270 683 Q 270 614 271 537 L 266 389 Q 257 187 257 182 Q 250 139 237 97 Q 227 58 251 -5 Q 258 -24 266 -27 Q 272 -34 280 -25 Q 307 -9 308 57 Q 307 96 313 373 L 313 400 Z" fill="black" /></g></svg>