<?xml version='1.0' encoding='utf-8'?>
<svg xmlns="http://www.w3.org/2000/svg" version="1.1" viewBox="0 0 1024 1024"><g transform="scale(1, -1) translate(0, -900)"><path d="M 692 461 Q 713 486 733 524 Q 745 548 762 562 Q 778 575 768 586 Q 758 596 731 608 Q 712 615 688 604 Q 666 595 637 586 Q 609 577 559 571 Q 546 570 542 564 Q 539 558 555 551 Q 586 539 630 552 Q 664 567 672 567 Q 690 567 686 548 Q 677 506 652 475 L 623 446 Q 581 416 520 402 Q 508 398 518 391 Q 543 379 624 410 Q 640 417 655 427 L 692 461 Z" fill="black" /></g></svg>