<?xml version='1.0' encoding='utf-8'?>
<svg xmlns="http://www.w3.org/2000/svg" version="1.1" viewBox="0 0 1024 1024"><g transform="scale(1, -1) translate(0, -900)"><path d="M 324 475 Q 325 512 327 551 L 329 605 Q 330 698 350 759 Q 359 775 356 788 Q 349 798 294 833 Q 270 851 249 835 Q 245 831 250 815 Q 281 766 282 718 Q 282 660 282 591 L 277 447 Q 270 231 260 186 Q 241 93 242 83 Q 242 67 260 27 Q 266 9 274 5 Q 280 -2 288 7 Q 295 11 306 32 Q 316 57 316 88 Q 316 131 323 441 L 324 475 Z" fill="black" /></g></svg>