<?xml version='1.0' encoding='utf-8'?>
<svg xmlns="http://www.w3.org/2000/svg" version="1.1" viewBox="0 0 1024 1024"><g transform="scale(1, -1) translate(0, -900)"><path d="M 323 411 Q 323 465 325 525 L 326 580 Q 326 581 327 584 Q 328 680 346 744 Q 356 759 352 773 Q 345 783 290 817 Q 266 835 245 819 Q 241 813 246 798 Q 279 750 279 702 Q 279 638 280 564 L 276 421 Q 273 225 263 170 Q 244 77 245 66 Q 245 53 263 10 Q 270 -8 278 -11 Q 285 -18 292 -9 Q 299 -5 310 16 Q 320 41 319 73 Q 318 110 322 371 L 323 411 Z" fill="black" /></g></svg>