<?xml version='1.0' encoding='utf-8'?>
<svg xmlns="http://www.w3.org/2000/svg" version="1.1" viewBox="0 0 1024 1024"><g transform="scale(1, -1) translate(0, -900)"><path d="M 318 424 Q 319 472 321 523 L 322 580 Q 322 682 345 762 Q 360 787 330 807 Q 315 819 290 833 Q 268 851 247 835 Q 243 831 248 815 Q 282 764 282 713 Q 282 643 282 563 L 277 405 Q 273 326 272 240 Q 266 159 243 85 Q 233 46 256 -14 Q 263 -32 270 -35 Q 277 -41 284 -33 Q 291 -29 302 -9 Q 312 16 311 46 Q 310 89 317 390 L 318 424 Z" fill="black" /></g></svg>