<?xml version='1.0' encoding='utf-8'?>
<svg xmlns="http://www.w3.org/2000/svg" version="1.1" viewBox="0 0 1024 1024"><g transform="scale(1, -1) translate(0, -900)"><path d="M 643 437 Q 692 452 765 466 Q 775 470 785 473 C 813 483 795 497 765 493 Q 669 480 566 457 Q 556 453 552 457 Q 551 460 556 469 Q 656 599 679 620 Q 691 630 685 642 Q 679 654 644 671 C 617 685 590 692 597 663 Q 598 662 599 657 Q 614 611 538 511 Q 514 478 465 446 Q 452 436 455 424 Q 459 408 484 387 Q 494 377 508 386 Q 544 414 602 427 L 643 437 Z" fill="black" /></g></svg>