<?xml version='1.0' encoding='utf-8'?>
<svg xmlns="http://www.w3.org/2000/svg" version="1.1" viewBox="0 0 1024 1024"><g transform="scale(1, -1) translate(0, -900)"><path d="M 304 453 Q 305 496 307 542 L 308 596 Q 308 689 330 759 Q 343 786 319 803 Q 303 815 274 833 Q 250 851 229 835 Q 225 831 230 815 Q 261 767 261 720 Q 261 656 261 581 L 256 430 Q 249 250 246 226 Q 239 184 226 141 Q 213 99 240 39 Q 246 21 254 17 Q 260 10 268 19 Q 275 23 286 44 Q 296 69 296 100 Q 296 139 303 415 L 304 453 Z" fill="black" /></g></svg>