<?xml version='1.0' encoding='utf-8'?>
<svg xmlns="http://www.w3.org/2000/svg" version="1.1" viewBox="0 0 1024 1024"><g transform="scale(1, -1) translate(0, -900)"><path d="M 660 482 Q 738 404 773 383 Q 837 352 868 349 Q 890 353 883 381 Q 873 406 860 525 Q 859 535 854 537 Q 850 537 848 525 Q 839 498 832 471 Q 822 437 810 435 Q 777 432 697 507 L 670 537 Q 639 576 610 622 L 589 661 Q 556 730 565 787 Q 568 805 532 820 Q 496 836 487 831 Q 477 825 482 811 Q 504 790 517 750 Q 533 695 554 648 L 573 609 Q 591 572 637 511 L 660 482 Z" fill="black" /></g></svg>