<?xml version='1.0' encoding='utf-8'?>
<svg xmlns="http://www.w3.org/2000/svg" version="1.1" viewBox="0 0 1024 1024"><g transform="scale(1, -1) translate(0, -900)"><path d="M 309 454 Q 310 488 311 523 L 312 579 Q 312 685 333 758 Q 348 783 318 803 Q 303 815 279 829 Q 255 845 236 831 Q 230 825 237 811 Q 271 760 271 709 Q 271 642 272 563 L 269 411 Q 265 329 265 239 Q 261 160 238 85 Q 228 48 252 -14 Q 259 -32 267 -35 Q 273 -42 280 -34 Q 307 -10 306 46 Q 305 89 309 424 L 309 454 Z" fill="black" /></g></svg>