<?xml version='1.0' encoding='utf-8'?>
<svg xmlns="http://www.w3.org/2000/svg" version="1.1" viewBox="0 0 1024 1024"><g transform="scale(1, -1) translate(0, -900)"><path d="M 310 439 Q 310 482 312 530 L 314 588 Q 317 676 334 735 Q 343 751 340 764 Q 333 774 278 809 Q 254 827 233 811 Q 229 807 234 790 Q 265 742 266 695 Q 266 637 267 570 L 263 427 Q 259 345 259 254 Q 255 178 233 109 Q 223 70 247 7 Q 254 -12 262 -15 Q 268 -22 276 -13 Q 303 3 304 69 Q 303 109 309 406 L 310 439 Z" fill="black" /></g></svg>