<?xml version='1.0' encoding='utf-8'?>
<svg xmlns="http://www.w3.org/2000/svg" version="1.1" viewBox="0 0 1024 1024"><g transform="scale(1, -1) translate(0, -900)"><path d="M 609 308 Q 609 307 611 304 Q 630 268 626 216 Q 622 108 629 86 Q 636 56 657 39 Q 699 3 854 5 Q 924 6 952 19 Q 982 35 969 66 Q 951 109 939 186 Q 936 202 929 206 Q 922 210 919 191 Q 906 97 893 80 Q 871 55 774 54 Q 722 57 699 66 Q 680 76 675 89 Q 668 110 670 164 Q 674 221 688 249 Q 700 279 681 294 Q 665 307 652 314 C 627 330 597 335 609 308 Z" fill="black" /></g></svg>