<?xml version='1.0' encoding='utf-8'?>
<svg xmlns="http://www.w3.org/2000/svg" version="1.1" viewBox="0 0 1024 1024"><g transform="scale(1, -1) translate(0, -900)"><path d="M 637 532 Q 638 445 669 420 Q 708 389 845 387 Q 908 388 933 400 Q 963 416 949 447 Q 931 481 915 543 Q 912 558 905 562 Q 898 566 895 547 Q 883 472 872 459 Q 857 438 773 437 Q 730 438 711 446 Q 695 455 691 465 Q 681 493 678 559 L 678 599 Q 682 681 699 721 Q 711 749 693 766 Q 644 803 630 798 Q 615 792 623 776 Q 642 740 638 688 Q 637 615 636 563 L 637 532 Z" fill="black" /></g></svg>