<?xml version='1.0' encoding='utf-8'?>
<svg xmlns="http://www.w3.org/2000/svg" version="1.1" viewBox="0 0 1024 1024"><g transform="scale(1, -1) translate(0, -900)"><path d="M 316 365 Q 317 431 321 509 L 324 568 Q 325 661 345 723 Q 355 739 352 752 Q 345 762 290 798 Q 266 814 245 800 Q 241 796 246 779 Q 277 731 277 684 Q 277 620 277 548 L 271 399 Q 267 326 266 245 Q 260 170 239 101 Q 227 59 252 -1 Q 258 -19 266 -23 Q 272 -30 280 -21 Q 307 -3 309 60 Q 308 96 315 329 L 316 365 Z" fill="black" /></g></svg>