<?xml version='1.0' encoding='utf-8'?>
<svg xmlns="http://www.w3.org/2000/svg" version="1.1" viewBox="0 0 1024 1024"><g transform="scale(1, -1) translate(0, -900)"><path d="M 325 418 Q 326 463 328 511 L 330 571 Q 330 686 353 766 Q 368 791 338 811 Q 323 823 298 837 Q 276 855 255 839 Q 251 835 256 819 Q 290 768 290 718 Q 290 643 290 559 Q 289 558 289 555 L 284 415 Q 280 336 279 251 Q 273 170 251 97 Q 239 54 265 -2 Q 271 -20 279 -23 Q 285 -29 292 -21 Q 299 -17 310 3 Q 320 28 319 58 Q 318 98 324 386 L 325 418 Z" fill="black" /></g></svg>