<?xml version='1.0' encoding='utf-8'?>
<svg xmlns="http://www.w3.org/2000/svg" version="1.1" viewBox="0 0 1024 1024"><g transform="scale(1, -1) translate(0, -900)"><path d="M 336 422 Q 337 474 339 534 L 340 591 Q 340 690 362 764 Q 377 789 351 807 Q 335 819 306 837 Q 282 855 261 839 Q 257 835 262 818 Q 295 769 295 720 Q 295 653 296 575 L 292 428 Q 285 221 275 175 Q 253 73 265 43 Q 269 30 275 14 Q 282 -4 290 -7 Q 296 -14 304 -5 Q 331 11 332 77 Q 331 117 336 394 L 336 422 Z" fill="black" /></g></svg>