<?xml version='1.0' encoding='utf-8'?>
<svg xmlns="http://www.w3.org/2000/svg" version="1.1" viewBox="0 0 1024 1024"><g transform="scale(1, -1) translate(0, -900)"><path d="M 331 451 Q 332 488 334 530 L 335 583 Q 335 584 336 587 Q 337 681 357 746 Q 366 761 363 774 Q 356 784 302 817 Q 280 835 259 819 Q 255 815 260 799 Q 291 751 292 704 Q 292 641 292 569 L 286 423 Q 283 219 259 126 Q 247 114 250 75 Q 250 60 269 18 Q 275 0 283 -3 Q 289 -9 296 -1 Q 303 3 314 23 Q 324 48 323 78 Q 323 118 330 422 L 331 451 Z" fill="black" /></g></svg>