<?xml version='1.0' encoding='utf-8'?>
<svg xmlns="http://www.w3.org/2000/svg" version="1.1" viewBox="0 0 1024 1024"><g transform="scale(1, -1) translate(0, -900)"><path d="M 322 453 Q 322 481 324 511 L 325 568 Q 325 674 346 744 Q 361 769 335 787 Q 319 799 290 817 Q 266 835 245 819 Q 241 815 246 798 Q 277 750 279 702 Q 279 632 280 552 L 275 420 Q 268 212 263 186 Q 257 147 246 109 Q 234 69 260 6 Q 266 -12 274 -15 Q 280 -22 288 -13 Q 315 3 316 69 Q 315 109 321 417 L 322 453 Z" fill="black" /></g></svg>