<?xml version='1.0' encoding='utf-8'?>
<svg xmlns="http://www.w3.org/2000/svg" version="1.1" viewBox="0 0 1024 1024"><g transform="scale(1, -1) translate(0, -900)"><path d="M 292 423 Q 293 478 295 542 L 296 596 Q 300 672 316 725 Q 325 738 322 752 Q 315 761 263 793 Q 241 809 222 795 Q 218 791 223 776 Q 254 730 254 683 Q 254 634 254 579 L 250 433 Q 246 346 246 254 Q 242 181 221 113 Q 209 74 234 17 Q 240 1 247 -3 Q 253 -9 260 -1 Q 267 3 277 22 Q 287 46 286 75 Q 285 115 291 399 L 292 423 Z" fill="black" /></g></svg>