<?xml version='1.0' encoding='utf-8'?>
<svg xmlns="http://www.w3.org/2000/svg" version="1.1" viewBox="0 0 1024 1024"><g transform="scale(1, -1) translate(0, -900)"><path d="M 262 434 Q 258 349 258 259 Q 254 186 233 117 Q 221 78 246 21 Q 252 5 259 1 Q 265 -5 272 2 Q 279 6 289 26 Q 299 50 298 79 Q 297 121 303 442 L 304 467 Q 304 500 306 535 L 308 583 Q 309 673 328 732 Q 337 747 334 759 Q 327 769 275 802 Q 253 818 234 803 Q 228 799 235 784 Q 266 738 266 690 Q 266 633 266 570 L 262 434 Z" fill="black" /></g></svg>