<?xml version='1.0' encoding='utf-8'?>
<svg xmlns="http://www.w3.org/2000/svg" version="1.1" viewBox="0 0 1024 1024"><g transform="scale(1, -1) translate(0, -900)"><path d="M 317 442 Q 317 479 319 519 L 320 571 Q 320 670 342 744 Q 357 769 331 787 Q 315 799 286 817 Q 262 835 241 819 Q 237 815 242 798 Q 275 749 275 699 Q 275 632 276 555 L 272 420 Q 268 335 268 243 Q 262 165 241 93 Q 231 56 255 -10 Q 262 -28 270 -31 Q 276 -38 284 -29 Q 311 -13 312 53 Q 311 95 316 413 L 317 442 Z" fill="black" /></g></svg>