<?xml version='1.0' encoding='utf-8'?>
<svg xmlns="http://www.w3.org/2000/svg" version="1.1" viewBox="0 0 1024 1024"><g transform="scale(1, -1) translate(0, -900)"><path d="M 642 479 Q 760 509 777 495 Q 787 489 791 442 Q 804 286 797 107 Q 796 82 787 74 Q 775 64 712 74 Q 696 75 698 67 Q 699 60 712 55 Q 769 15 799 -15 Q 818 -34 831 -31 Q 843 -28 853 0 Q 866 43 864 105 Q 840 436 858 475 Q 868 496 859 507 Q 849 520 803 542 Q 784 551 719 531 Q 610 501 483 480 C 453 475 473 432 501 442 Q 507 448 598 469 L 642 479 Z" fill="black" /></g></svg>