<?xml version='1.0' encoding='utf-8'?>
<svg xmlns="http://www.w3.org/2000/svg" version="1.1" viewBox="0 0 1024 1024"><g transform="scale(1, -1) translate(0, -900)"><path d="M 651 504 Q 699 514 756 523 Q 778 527 789 515 Q 799 509 803 461 Q 816 298 808 114 Q 808 87 797 79 Q 785 72 725 88 Q 709 92 710 83 Q 710 76 722 69 Q 776 24 803 -9 Q 822 -28 835 -26 Q 847 -23 858 4 Q 873 47 873 109 Q 858 347 859 436 Q 859 473 870 495 Q 882 516 872 527 Q 862 540 817 564 Q 798 573 780 568 Q 744 556 669 539 L 640 533 Q 568 521 494 513 C 464 510 487 474 517 477 Q 524 476 539 478 Q 567 487 603 493 L 651 504 Z" fill="black" /></g></svg>