<?xml version='1.0' encoding='utf-8'?>
<svg xmlns="http://www.w3.org/2000/svg" version="1.1" viewBox="0 0 1024 1024"><g transform="scale(1, -1) translate(0, -900)"><path d="M 327 446 Q 328 486 330 530 L 332 582 Q 333 676 353 738 Q 362 753 359 766 Q 352 776 298 809 Q 276 827 255 811 Q 251 807 256 791 Q 287 745 287 697 Q 287 636 287 567 L 283 428 Q 271 200 269 192 Q 245 78 247 72 Q 247 57 265 18 Q 271 0 279 -3 Q 285 -9 292 -1 Q 299 3 310 23 Q 320 48 319 78 Q 319 118 326 415 L 327 446 Z" fill="black" /></g></svg>