<?xml version='1.0' encoding='utf-8'?>
<svg xmlns="http://www.w3.org/2000/svg" version="1.1" viewBox="0 0 1024 1024"><g transform="scale(1, -1) translate(0, -900)"><path d="M 453 322 Q 431 208 333 114 Q 323 105 324 102 Q 325 98 336 100 Q 346 97 375 113 Q 477 167 500 336 L 505 374 Q 509 417 510 467 L 511 507 Q 512 544 513 581 L 514 624 Q 514 691 531 731 Q 537 744 527 754 Q 506 770 471 778 Q 449 782 440 777 Q 433 770 440 759 Q 465 723 471 609 L 472 569 Q 472 532 470 494 L 469 457 Q 469 409 460 361 L 453 322 Z" fill="black" /></g></svg>