<?xml version='1.0' encoding='utf-8'?>
<svg xmlns="http://www.w3.org/2000/svg" version="1.1" viewBox="0 0 1024 1024"><g transform="scale(1, -1) translate(0, -900)"><path d="M 789 385 Q 792 472 811 495 Q 829 517 816 528 Q 794 549 760 561 Q 742 570 679 547 Q 613 532 571 525 C 541 520 557 490 586 497 Q 614 503 697 524 Q 716 528 729 520 Q 742 510 740 466 Q 737 420 735 376 L 732 338 Q 726 256 716 201 L 708 161 Q 695 94 681 69 Q 671 53 650 59 Q 584 74 587 78 Q 557 85 581 60 Q 617 24 644 -15 Q 665 -42 682 -30 Q 757 18 770 155 L 776 199 Q 780 253 785 307 Q 785 323 786 340 L 789 385 Z" fill="black" /></g></svg>