<?xml version='1.0' encoding='utf-8'?>
<svg xmlns="http://www.w3.org/2000/svg" version="1.1" viewBox="0 0 1024 1024"><g transform="scale(1, -1) translate(0, -900)"><path d="M 264 413 Q 264 230 249 159 Q 230 81 250 31 Q 251 25 255 18 Q 262 0 270 -3 Q 277 -10 284 -1 Q 291 3 302 24 Q 312 49 310 81 Q 309 121 311 420 L 311 446 Q 311 483 312 524 L 312 581 Q 312 708 331 780 Q 344 807 320 824 Q 304 836 274 853 Q 250 869 229 854 Q 225 850 231 833 Q 264 785 265 714 Q 265 639 268 563 L 264 413 Z" fill="black" /></g></svg>