<?xml version='1.0' encoding='utf-8'?>
<svg xmlns="http://www.w3.org/2000/svg" version="1.1" viewBox="0 0 1024 1024"><g transform="scale(1, -1) translate(0, -900)"><path d="M 345 469 Q 346 503 348 538 L 350 594 Q 353 685 373 747 Q 382 762 380 776 Q 373 786 318 822 Q 294 840 273 824 Q 269 820 274 803 Q 305 755 305 707 Q 305 646 304 578 L 298 435 Q 286 219 284 203 Q 275 160 263 118 Q 250 76 276 15 Q 282 -3 290 -7 Q 296 -14 304 -5 Q 332 14 333 104 Q 334 183 344 441 L 345 469 Z" fill="black" /></g></svg>