<?xml version='1.0' encoding='utf-8'?>
<svg xmlns="http://www.w3.org/2000/svg" version="1.1" viewBox="0 0 1024 1024"><g transform="scale(1, -1) translate(0, -900)"><path d="M 571 525 Q 559 537 542 545 Q 523 555 519 545 Q 515 536 521 527 Q 537 496 532 461 Q 522 401 505 346 L 491 305 Q 469 239 422 196 Q 404 183 406 167 Q 410 152 427 135 Q 443 119 464 137 Q 524 176 708 161 L 770 155 Q 825 148 882 132 Q 898 125 911 131 Q 924 135 918 149 Q 911 168 892 181 Q 879 197 852 196 Q 833 196 788 199 Q 782 200 776 199 L 716 201 Q 631 204 507 193 Q 491 192 497 211 Q 516 260 536 314 L 548 351 Q 584 474 586 497 C 589 512 589 512 571 525 Z" fill="black" /></g></svg>