<?xml version='1.0' encoding='utf-8'?>
<svg xmlns="http://www.w3.org/2000/svg" version="1.1" viewBox="0 0 1024 1024"><g transform="scale(1, -1) translate(0, -900)"><path d="M 280 417 Q 281 463 283 514 L 285 570 Q 285 681 308 758 Q 317 773 315 786 Q 308 795 254 830 Q 232 846 211 832 Q 207 828 212 812 Q 245 763 244 713 Q 244 640 244 558 Q 243 557 243 555 L 237 429 Q 233 347 232 259 Q 226 181 204 109 Q 191 67 217 10 Q 223 -6 231 -11 Q 237 -17 244 -9 Q 271 7 272 70 Q 271 110 279 393 L 280 417 Z" fill="black" /></g></svg>