<?xml version='1.0' encoding='utf-8'?>
<svg xmlns="http://www.w3.org/2000/svg" version="1.1" viewBox="0 0 1024 1024"><g transform="scale(1, -1) translate(0, -900)"><path d="M 567 419 Q 557 429 540 434 Q 528 437 522 433 Q 516 429 521 414 Q 533 381 530 349 Q 521 150 539 95 Q 543 70 568 48 Q 647 -15 825 14 Q 841 18 859 23 Q 902 36 945 66 Q 964 85 946 112 Q 931 131 903 199 Q 900 215 893 218 Q 886 221 885 203 Q 869 127 855 101 Q 842 83 799 72 Q 756 59 702 61 Q 656 62 621 77 Q 588 92 579 112 Q 558 152 563 251 L 565 284 Q 566 335 577 391 C 581 411 581 411 567 419 Z" fill="black" /></g></svg>