<?xml version='1.0' encoding='utf-8'?>
<svg xmlns="http://www.w3.org/2000/svg" version="1.1" viewBox="0 0 1024 1024"><g transform="scale(1, -1) translate(0, -900)"><path d="M 488 413 Q 597 435 712 435 Q 739 439 751 430 Q 763 421 754 383 Q 735 299 716 279 Q 710 267 689 267 Q 667 274 647 280 Q 635 284 635 279 Q 634 275 641 268 Q 675 225 687 198 Q 693 180 708 187 Q 759 205 770 245 Q 821 407 823 408 Q 824 412 828 416 Q 841 431 830 442 Q 814 461 781 482 Q 762 494 735 483 Q 674 461 619 458 Q 540 452 381 428 Q 356 419 352 442 C 331 463 318 361 345 374 Q 376 393 440 405 Q 444 406 452 407 L 488 413 Z" fill="black" /></g></svg>