<?xml version='1.0' encoding='utf-8'?>
<svg xmlns="http://www.w3.org/2000/svg" version="1.1" viewBox="0 0 1024 1024"><g transform="scale(1, -1) translate(0, -900)"><path d="M 565 439 Q 572 442 583 444 Q 718 477 740 468 Q 753 462 753 434 Q 775 229 768 70 Q 767 37 748 31 Q 739 28 690 37 Q 677 41 678 32 Q 679 25 695 15 Q 728 -15 753 -46 Q 766 -62 782 -61 Q 801 -57 822 -1 Q 849 56 842 112 Q 827 247 814 370 Q 807 419 826 459 Q 839 475 824 489 Q 805 504 766 517 Q 744 527 727 515 Q 708 506 674 495 Q 673 495 672 493 L 633 484 Q 578 471 545 464 C 516 458 536 431 565 439 Z" fill="black" /></g></svg>