<?xml version='1.0' encoding='utf-8'?>
<svg xmlns="http://www.w3.org/2000/svg" version="1.1" viewBox="0 0 1024 1024"><g transform="scale(1, -1) translate(0, -900)"><path d="M 352 442 L 352 486 L 352 507 Q 352 535 353 560 L 354 585 Q 354 586 355 588 Q 354 619 357 646 L 358 659 Q 361 687 369 706 Q 370 712 371 717 C 374 731 372 732 347 748 Q 338 755 327 759 Q 309 765 301 757 Q 295 751 303 741 Q 315 714 312 545 Q 312 467 298 413 Q 292 392 307 378 Q 326 362 345 374 C 352 377 352 412 352 442 Z" fill="black" /></g></svg>