<?xml version='1.0' encoding='utf-8'?>
<svg xmlns="http://www.w3.org/2000/svg" version="1.1" viewBox="0 0 1024 1024"><g transform="scale(1, -1) translate(0, -900)"><path d="M 660 357 Q 798 387 832 382 Q 845 381 850 370 Q 856 354 820 243 Q 816 227 799 230 Q 774 234 744 241 Q 717 248 736 224 Q 782 178 791 154 Q 798 141 811 143 Q 824 142 839 155 Q 867 185 877 215 Q 904 323 929 347 Q 947 366 935 379 Q 910 404 875 425 Q 862 435 787 416 Q 756 413 660 391 L 612 381 Q 563 372 532 362 Q 504 356 489 357 Q 482 358 484 372 Q 493 426 508 456 C 514 472 514 472 495 486 Q 482 498 463 508 Q 451 515 442 507 Q 435 501 443 485 Q 453 460 446 424 Q 430 369 415 348 Q 405 332 414 317 Q 424 292 437 285 Q 447 279 469 297 Q 511 333 578 340 L 660 357 Z" fill="black" /></g></svg>