<?xml version='1.0' encoding='utf-8'?>
<svg xmlns="http://www.w3.org/2000/svg" version="1.1" viewBox="0 0 1024 1024"><g transform="scale(1, -1) translate(0, -900)"><path d="M 740 620 Q 635 611 530 576 Q 509 572 520 587 Q 620 725 663 753 Q 673 762 679 769 Q 683 782 664 798 Q 630 825 603 827 Q 590 828 582 822 Q 579 815 588 806 Q 613 766 470 584 Q 425 553 431 522 Q 431 518 433 512 Q 440 491 453 491 Q 459 492 473 502 Q 542 551 697 587 Q 736 596 754 597 C 784 601 770 623 740 620 Z" fill="black" /></g></svg>