<?xml version='1.0' encoding='utf-8'?>
<svg xmlns="http://www.w3.org/2000/svg" version="1.1" viewBox="0 0 1024 1024"><g transform="scale(1, -1) translate(0, -900)"><path d="M 289 384 Q 290 430 292 480 L 293 536 Q 294 555 295 574 Q 296 671 317 738 Q 326 753 323 766 Q 316 776 262 809 Q 240 827 219 811 Q 215 807 220 791 Q 253 743 253 653 Q 253 587 252 520 L 247 386 Q 243 316 243 238 Q 237 160 216 89 Q 203 47 229 -10 Q 235 -28 243 -31 Q 249 -37 256 -29 Q 263 -25 274 -5 Q 284 20 283 50 Q 283 89 289 357 L 289 384 Z" fill="black" /></g></svg>