<?xml version='1.0' encoding='utf-8'?>
<svg xmlns="http://www.w3.org/2000/svg" version="1.1" viewBox="0 0 1024 1024"><g transform="scale(1, -1) translate(0, -900)"><path d="M 611 141 Q 548 57 404 15 Q 391 11 402 3 Q 408 -1 450 1 Q 502 5 564 41 Q 607 66 641 105 L 667 139 Q 700 193 731 270 Q 744 295 763 311 Q 782 324 771 338 Q 759 350 731 363 Q 710 372 684 360 Q 662 354 633 349 Q 614 345 585 343 C 555 340 536 320 566 316 Q 593 310 625 315 Q 658 325 663 325 Q 687 318 676 293 Q 660 223 631 172 L 611 141 Z" fill="black" /></g></svg>