<?xml version='1.0' encoding='utf-8'?>
<svg xmlns="http://www.w3.org/2000/svg" version="1.1" viewBox="0 0 1024 1024"><g transform="scale(1, -1) translate(0, -900)"><path d="M 296 445 Q 296 479 298 516 L 299 571 Q 299 572 300 575 Q 301 669 320 733 Q 329 746 326 760 Q 319 769 267 801 Q 245 817 226 803 Q 222 799 227 784 Q 258 736 258 689 Q 258 625 258 553 L 253 387 Q 249 192 228 118 Q 216 106 219 68 Q 219 55 238 13 Q 244 -3 251 -7 Q 257 -13 264 -5 Q 271 -1 281 18 Q 291 42 290 71 Q 289 111 295 409 L 296 445 Z" fill="black" /></g></svg>