<?xml version='1.0' encoding='utf-8'?>
<svg xmlns="http://www.w3.org/2000/svg" version="1.1" viewBox="0 0 1024 1024"><g transform="scale(1, -1) translate(0, -900)"><path d="M 957 93 Q 947 118 935 196 Q 935 209 929 213 Q 925 217 920 202 Q 895 121 879 96 Q 872 86 852 82 Q 801 73 763 94 Q 730 115 730 175 Q 731 233 744 312 Q 748 328 737 338 Q 724 351 703 358 Q 690 362 683 358 Q 676 354 681 337 Q 694 300 691 265 Q 685 132 696 96 Q 700 77 716 61 Q 780 4 895 30 Q 896 31 899 31 Q 926 38 951 59 Q 967 72 957 93 Z" fill="black" /></g></svg>