<?xml version='1.0' encoding='utf-8'?>
<svg xmlns="http://www.w3.org/2000/svg" version="1.1" viewBox="0 0 1024 1024"><g transform="scale(1, -1) translate(0, -900)"><path d="M 718 200 Q 761 92 851 14 Q 909 -34 939 -33 Q 958 -29 951 -1 Q 944 48 941 191 Q 940 213 931 214 Q 924 213 919 193 Q 909 153 899 120 Q 890 86 878 84 Q 865 84 840 106 Q 788 161 749 236 L 728 285 Q 688 399 665 544 L 659 593 Q 649 695 659 759 Q 672 796 620 817 Q 587 832 569 825 Q 550 819 559 801 Q 602 761 601 730 Q 610 649 620 579 L 627 534 Q 651 375 701 242 L 718 200 Z" fill="black" /></g></svg>