<?xml version='1.0' encoding='utf-8'?>
<svg xmlns="http://www.w3.org/2000/svg" version="1.1" viewBox="0 0 1024 1024"><g transform="scale(1, -1) translate(0, -900)"><path d="M 398 296 Q 432 300 518 323 Q 531 327 536 321 Q 542 312 534 218 Q 519 62 602 1 Q 692 -56 785 -51 Q 845 -45 902 -17 Q 930 -5 918 25 Q 897 71 890 143 Q 887 164 882 168 Q 872 172 869 157 Q 839 48 821 35 Q 803 22 759 16 Q 701 12 662 29 Q 622 48 592 86 Q 559 147 597 271 Q 610 310 636 329 Q 663 351 632 364 Q 616 373 580 384 Q 556 393 533 377 Q 494 352 398 323 C 369 314 368 291 398 296 Z" fill="black" /></g></svg>