<?xml version='1.0' encoding='utf-8'?>
<svg xmlns="http://www.w3.org/2000/svg" version="1.1" viewBox="0 0 1024 1024"><g transform="scale(1, -1) translate(0, -900)"><path d="M 327 387 Q 328 451 332 523 L 334 580 Q 337 671 356 734 Q 366 749 363 762 Q 356 771 302 806 Q 280 822 259 808 Q 255 804 260 788 Q 294 736 293 686 Q 293 628 293 564 L 287 414 Q 275 165 275 163 Q 266 111 252 61 Q 239 19 265 -38 Q 271 -56 279 -59 Q 285 -65 292 -57 Q 319 -41 320 22 Q 319 62 327 356 L 327 387 Z" fill="black" /></g></svg>