<?xml version='1.0' encoding='utf-8'?>
<svg xmlns="http://www.w3.org/2000/svg" version="1.1" viewBox="0 0 1024 1024"><g transform="scale(1, -1) translate(0, -900)"><path d="M 608 289 Q 608 204 594 135 Q 584 84 582 78 Q 578 43 599 -4 Q 606 -22 613 -24 Q 619 -31 626 -22 Q 629 -21 634 -15 Q 653 12 651 55 Q 650 88 651 312 L 651 392 L 653 564 Q 653 592 654 606 L 658 651 Q 662 699 672 729 Q 678 743 676 751 Q 669 760 617 792 Q 594 808 574 794 Q 572 792 572 790 Q 571 784 584 762 Q 609 717 610 678 Q 610 665 610 638 L 612 596 Q 612 418 610 384 L 608 289 Z" fill="black" /></g></svg>