<?xml version='1.0' encoding='utf-8'?>
<svg xmlns="http://www.w3.org/2000/svg" version="1.1" viewBox="0 0 1024 1024"><g transform="scale(1, -1) translate(0, -900)"><path d="M 270 419 Q 264 215 249 151 Q 234 92 240 53 Q 241 41 252 12 Q 259 -8 267 -12 Q 273 -19 280 -9 Q 284 -8 288 -2 Q 310 24 310 73 Q 308 102 316 413 L 316 441 L 319 519 L 321 575 Q 321 648 332 703 L 345 755 Q 350 774 341 785 Q 333 796 287 823 Q 263 842 242 826 Q 241 825 240 822 Q 238 815 251 792 Q 274 746 274 709 L 274 559 L 270 419 Z" fill="black" /></g></svg>