<?xml version='1.0' encoding='utf-8'?>
<svg xmlns="http://www.w3.org/2000/svg" version="1.1" viewBox="0 0 1024 1024"><g transform="scale(1, -1) translate(0, -900)"><path d="M 314 443 Q 314 477 316 514 L 317 568 Q 317 661 338 735 Q 351 762 327 779 Q 311 791 282 809 Q 258 827 237 811 Q 233 807 238 790 Q 269 744 270 695 Q 270 628 270 552 L 266 414 Q 257 204 257 198 Q 250 155 237 113 Q 227 74 251 11 Q 258 -8 266 -11 Q 272 -18 280 -9 Q 307 7 308 73 Q 307 113 313 408 L 314 443 Z" fill="black" /></g></svg>