<?xml version='1.0' encoding='utf-8'?>
<svg xmlns="http://www.w3.org/2000/svg" version="1.1" viewBox="0 0 1024 1024"><g transform="scale(1, -1) translate(0, -900)"><path d="M 891 108 Q 884 98 859 91 Q 802 79 755 101 Q 736 111 731 124 Q 710 164 719 262 L 722 293 Q 723 332 733 374 Q 737 392 726 401 Q 713 414 690 423 Q 677 427 669 422 Q 662 418 668 400 Q 681 363 678 325 Q 668 153 682 105 Q 686 83 705 66 Q 744 27 839 23 Q 917 22 976 64 Q 995 79 983 105 Q 971 132 956 213 Q 956 229 949 234 Q 943 237 938 220 Q 910 135 891 108 Z" fill="black" /></g></svg>