<?xml version='1.0' encoding='utf-8'?>
<svg xmlns="http://www.w3.org/2000/svg" version="1.1" viewBox="0 0 1024 1024"><g transform="scale(1, -1) translate(0, -900)"><path d="M 535 266 Q 535 297 536 331 L 537 366 Q 537 403 541 434 L 547 466 Q 554 499 555 501 Q 549 508 502 537 Q 483 552 465 538 Q 461 534 466 521 Q 487 491 490 459 L 491 429 Q 491 396 493 357 L 493 325 Q 492 294 492 259 L 492 193 Q 492 85 475 20 Q 466 -10 488 -65 Q 494 -81 501 -83 Q 505 -89 512 -82 Q 519 -78 527 -60 Q 536 -39 535 -13 Q 534 15 534 197 L 535 266 Z" fill="black" /></g></svg>