<?xml version='1.0' encoding='utf-8'?>
<svg xmlns="http://www.w3.org/2000/svg" version="1.1" viewBox="0 0 1024 1024"><g transform="scale(1, -1) translate(0, -900)"><path d="M 299 420 Q 300 471 302 526 L 303 579 Q 303 675 326 751 Q 339 778 315 795 Q 299 807 270 825 Q 246 843 225 827 Q 221 823 226 807 Q 259 758 259 708 Q 259 641 259 562 L 254 429 Q 250 345 249 254 Q 243 176 222 105 Q 210 66 235 3 Q 242 -16 250 -19 Q 256 -26 264 -17 Q 271 -13 282 8 Q 292 33 292 64 Q 291 104 298 395 L 299 420 Z" fill="black" /></g></svg>