<?xml version='1.0' encoding='utf-8'?>
<svg xmlns="http://www.w3.org/2000/svg" version="1.1" viewBox="0 0 1024 1024"><g transform="scale(1, -1) translate(0, -900)"><path d="M 318 472 Q 318 514 320 559 L 321 613 Q 324 692 340 749 Q 349 762 346 776 Q 339 785 287 817 Q 265 833 246 819 Q 242 815 247 799 Q 278 753 278 706 Q 278 655 279 598 L 276 477 Q 269 233 267 217 Q 260 175 248 133 Q 238 97 261 37 Q 268 21 275 17 Q 281 11 288 18 Q 295 22 305 42 Q 315 66 314 95 Q 313 137 318 447 L 318 472 Z" fill="black" /></g></svg>