<?xml version='1.0' encoding='utf-8'?>
<svg xmlns="http://www.w3.org/2000/svg" version="1.1" viewBox="0 0 1024 1024"><g transform="scale(1, -1) translate(0, -900)"><path d="M 678 441 Q 694 441 921 442 Q 942 442 946 451 Q 953 463 935 477 Q 878 522 817 506 Q 763 497 696 485 L 637 477 Q 594 473 547 466 L 490 459 Q 433 455 374 446 L 324 440 Q 222 431 113 419 Q 91 418 107 399 Q 122 384 140 378 Q 162 372 179 377 Q 255 396 340 410 L 383 416 Q 428 425 491 429 L 541 434 Q 581 438 629 439 L 678 441 Z" fill="black" /></g></svg>