<?xml version='1.0' encoding='utf-8'?>
<svg xmlns="http://www.w3.org/2000/svg" version="1.1" viewBox="0 0 1024 1024"><g transform="scale(1, -1) translate(0, -900)"><path d="M 555 493 Q 559 505 564 516 Q 570 537 577 557 L 588 596 Q 595 630 604 664 L 612 707 Q 621 764 632 791 Q 642 804 636 818 Q 621 837 591 853 Q 573 865 561 861 Q 548 855 554 841 Q 569 805 561 744 Q 560 735 558 722 Q 557 709 553 694 L 547 653 Q 540 619 532 585 L 522 547 Q 512 514 500 482 L 484 441 Q 438 342 349 226 Q 343 219 341 214 Q 337 204 348 205 Q 378 205 458 308 Q 479 338 500 372 Q 522 411 540 455 L 555 493 Z" fill="black" /></g></svg>