<?xml version='1.0' encoding='utf-8'?>
<svg xmlns="http://www.w3.org/2000/svg" version="1.1" viewBox="0 0 1024 1024"><g transform="scale(1, -1) translate(0, -900)"><path d="M 536 667 Q 659 695 683 681 Q 687 678 685 665 Q 664 580 665 577 Q 669 564 679 565 Q 689 566 697 577 Q 701 578 714 590 Q 727 632 758 655 Q 774 668 761 681 Q 748 694 707 717 Q 695 726 612 707 Q 594 707 537 694 L 500 687 Q 470 683 443 676 Q 382 663 338 656 C 308 651 319 622 349 627 Q 355 627 360 628 Q 409 644 500 661 L 536 667 Z" fill="black" /></g></svg>