<?xml version='1.0' encoding='utf-8'?>
<svg xmlns="http://www.w3.org/2000/svg" version="1.1" viewBox="0 0 1024 1024"><g transform="scale(1, -1) translate(0, -900)"><path d="M 280 423 Q 280 469 282 521 L 283 576 Q 283 693 305 770 Q 320 795 290 815 Q 275 827 250 841 Q 228 857 207 843 Q 203 839 209 823 Q 242 772 242 722 Q 243 647 244 563 Q 243 563 243 561 L 238 430 Q 231 207 226 181 Q 219 141 207 101 Q 195 65 220 2 Q 227 -16 234 -19 Q 241 -26 248 -17 Q 255 -13 266 7 Q 276 32 275 62 Q 274 102 279 395 L 280 423 Z" fill="black" /></g></svg>