<?xml version='1.0' encoding='utf-8'?>
<svg xmlns="http://www.w3.org/2000/svg" version="1.1" viewBox="0 0 1024 1024"><g transform="scale(1, -1) translate(0, -900)"><path d="M 303 458 Q 304 495 306 534 L 307 586 Q 307 685 329 758 Q 344 783 314 803 Q 299 815 274 829 Q 252 847 231 831 Q 227 827 232 811 Q 263 763 264 716 Q 264 649 264 570 L 259 436 Q 246 211 245 204 Q 221 90 223 84 Q 223 69 241 30 Q 247 12 255 9 Q 261 3 268 11 Q 275 15 286 35 Q 296 60 295 90 Q 295 130 303 429 L 303 458 Z" fill="black" /></g></svg>