<?xml version='1.0' encoding='utf-8'?>
<svg xmlns="http://www.w3.org/2000/svg" version="1.1" viewBox="0 0 1024 1024"><g transform="scale(1, -1) translate(0, -900)"><path d="M 531 198 Q 531 238 532 284 L 533 312 Q 533 337 535 358 L 540 397 Q 541 407 545 415 Q 552 427 550 438 Q 544 445 499 474 Q 480 487 463 474 Q 459 470 464 458 Q 486 427 487 386 L 488 350 Q 488 329 489 305 L 489 277 Q 488 252 488 225 L 488 144 Q 488 53 473 0 Q 466 -30 485 -82 Q 491 -97 497 -99 Q 503 -105 508 -98 Q 515 -94 523 -77 Q 530 -58 530 -31 Q 529 -6 530 165 L 531 198 Z" fill="black" /></g></svg>