<?xml version='1.0' encoding='utf-8'?>
<svg xmlns="http://www.w3.org/2000/svg" version="1.1" viewBox="0 0 1024 1024"><g transform="scale(1, -1) translate(0, -900)"><path d="M 532 284 Q 661 305 684 294 Q 688 290 684 274 Q 665 214 658 202 Q 649 187 653 172 Q 656 156 667 156 Q 680 157 688 169 Q 694 170 711 188 Q 730 234 765 257 Q 783 270 770 285 Q 755 301 713 330 Q 698 340 626 325 Q 608 325 533 312 L 489 305 Q 459 301 432 295 Q 366 283 318 277 C 288 273 311 233 338 245 Q 350 257 489 277 L 532 284 Z" fill="black" /></g></svg>