<?xml version='1.0' encoding='utf-8'?>
<svg xmlns="http://www.w3.org/2000/svg" version="1.1" viewBox="0 0 1024 1024"><g transform="scale(1, -1) translate(0, -900)"><path d="M 536 577 Q 536 581 536 586 Q 535 628 536 667 L 537 694 Q 538 722 542 747 L 549 791 Q 552 806 561 822 Q 567 829 557 842 Q 509 879 485 870 Q 473 866 479 853 Q 497 823 499 777 L 500 739 Q 500 712 500 687 L 500 661 Q 499 648 499 635 L 494 559 Q 490 537 506 497 Q 515 484 527 491 Q 540 501 538 526 Q 537 542 537 557 L 536 577 Z" fill="black" /></g></svg>