<?xml version='1.0' encoding='utf-8'?>
<svg xmlns="http://www.w3.org/2000/svg" version="1.1" viewBox="0 0 1024 1024"><g transform="scale(1, -1) translate(0, -900)"><path d="M 739 642 Q 745 645 752 647 Q 783 657 816 667 Q 834 674 840 665 Q 862 605 856 220 Q 853 120 844 107 Q 840 101 821 105 Q 796 109 771 115 Q 752 121 753 111 Q 807 68 838 34 Q 851 16 866 11 Q 875 8 882 17 Q 919 65 918 116 Q 902 365 901 602 Q 901 636 912 654 Q 922 673 911 682 Q 890 700 856 713 Q 838 719 785 690 Q 745 678 724 672 C 695 664 711 632 739 642 Z" fill="black" /></g></svg>