<?xml version='1.0' encoding='utf-8'?>
<svg xmlns="http://www.w3.org/2000/svg" version="1.1" viewBox="0 0 1024 1024"><g transform="scale(1, -1) translate(0, -900)"><path d="M 274 271 Q 274 192 250 104 Q 241 68 265 8 Q 272 -8 279 -11 Q 285 -18 292 -10 Q 299 -6 309 15 Q 318 37 317 68 Q 316 114 315 497 L 315 523 Q 315 559 316 594 L 317 640 Q 320 701 333 745 Q 342 760 339 772 Q 332 781 279 813 Q 257 829 238 814 Q 234 810 239 795 Q 272 747 273 698 Q 273 664 274 627 L 276 585 Q 276 551 276 515 L 276 488 Q 275 430 274 367 L 274 271 Z" fill="black" /></g></svg>