<?xml version='1.0' encoding='utf-8'?>
<svg xmlns="http://www.w3.org/2000/svg" version="1.1" viewBox="0 0 1024 1024"><g transform="scale(1, -1) translate(0, -900)"><path d="M 462 623 Q 477 626 519 642 Q 535 648 540 639 Q 562 575 550 248 Q 546 184 540 176 Q 534 172 473 187 Q 457 193 457 184 Q 505 141 532 110 Q 544 94 557 89 Q 564 86 571 94 Q 604 136 604 202 Q 580 586 604 629 Q 614 645 604 654 Q 585 670 554 682 Q 536 689 493 662 Q 477 658 450 649 C 421 640 433 615 462 623 Z" fill="black" /></g></svg>