<?xml version='1.0' encoding='utf-8'?>
<svg xmlns="http://www.w3.org/2000/svg" version="1.1" viewBox="0 0 1024 1024"><g transform="scale(1, -1) translate(0, -900)"><path d="M 299 424 Q 299 467 302 517 L 303 571 Q 318 740 327 764 Q 336 779 333 791 Q 327 801 275 834 Q 253 850 234 836 Q 228 832 235 816 Q 266 767 266 718 Q 266 646 266 564 Q 265 561 265 557 L 258 407 Q 251 236 248 215 Q 239 166 226 117 Q 214 83 238 21 Q 244 5 251 1 Q 257 -5 264 3 Q 291 19 291 79 Q 290 118 298 393 L 299 424 Z" fill="black" /></g></svg>