<?xml version='1.0' encoding='utf-8'?>
<svg xmlns="http://www.w3.org/2000/svg" version="1.1" viewBox="0 0 1024 1024"><g transform="scale(1, -1) translate(0, -900)"><path d="M 722 376 Q 740 346 756 337 Q 766 328 783 350 Q 799 372 836 501 Q 846 532 870 556 Q 883 568 872 582 Q 857 600 815 627 Q 794 639 735 620 Q 711 617 647 601 L 604 592 Q 583 589 563 584 Q 517 574 474 564 C 445 557 462 525 491 534 Q 537 550 605 563 L 646 572 Q 757 597 777 584 Q 790 574 785 554 Q 754 421 737 403 C 722 377 722 376 722 376 Z" fill="black" /></g></svg>