<?xml version='1.0' encoding='utf-8'?>
<svg xmlns="http://www.w3.org/2000/svg" version="1.1" viewBox="0 0 1024 1024"><g transform="scale(1, -1) translate(0, -900)"><path d="M 758 445 Q 764 491 771 521 L 785 567 Q 807 612 817 622 Q 832 641 817 659 Q 799 671 746 692 Q 727 699 707 689 Q 662 671 622 659 L 571 645 Q 514 635 456 627 Q 440 626 442 616 Q 445 609 462 603 Q 486 593 519 605 Q 544 611 571 615 L 621 626 Q 708 647 719 638 Q 735 623 727 556 L 722 518 Q 718 485 711 453 C 705 424 754 415 758 445 Z" fill="black" /></g></svg>