<?xml version='1.0' encoding='utf-8'?>
<svg xmlns="http://www.w3.org/2000/svg" version="1.1" viewBox="0 0 1024 1024"><g transform="scale(1, -1) translate(0, -900)"><path d="M 755 391 Q 764 434 773 460 L 790 501 Q 800 525 817 538 Q 833 557 817 574 Q 801 587 748 609 Q 729 615 709 606 Q 670 588 635 576 L 591 563 Q 539 550 487 542 Q 472 541 474 531 Q 477 524 494 519 Q 518 510 548 522 Q 567 528 590 532 L 633 543 Q 663 552 695 559 Q 714 565 722 557 Q 734 547 725 487 L 719 455 Q 712 425 705 398 C 698 369 749 362 755 391 Z" fill="black" /></g></svg>