<?xml version='1.0' encoding='utf-8'?>
<svg xmlns="http://www.w3.org/2000/svg" version="1.1" viewBox="0 0 1024 1024"><g transform="scale(1, -1) translate(0, -900)"><path d="M 633 388 Q 634 428 634 469 L 634 502 Q 635 530 635 560 Q 635 567 635 573 L 635 609 Q 635 649 638 656 Q 641 666 632 674 Q 625 680 616 685 C 592 703 573 708 581 679 Q 588 667 588 644 Q 588 622 589 596 L 589 564 Q 589 530 589 493 L 590 462 Q 590 423 589 382 L 587 289 Q 587 118 575 37 Q 572 -2 596 -34 Q 606 -47 617 -31 Q 635 2 635 67 Q 634 98 633 317 L 633 388 Z" fill="black" /></g></svg>