<?xml version='1.0' encoding='utf-8'?>
<svg xmlns="http://www.w3.org/2000/svg" version="1.1" viewBox="0 0 1024 1024"><g transform="scale(1, -1) translate(0, -900)"><path d="M 316 453 Q 316 484 318 515 L 319 572 Q 319 575 320 577 Q 321 673 341 738 Q 350 753 347 766 Q 340 776 286 809 Q 264 827 243 811 Q 239 807 244 791 Q 275 743 276 694 Q 276 630 276 554 L 271 404 Q 264 208 256 168 Q 250 135 240 101 Q 227 59 253 2 Q 259 -16 267 -19 Q 273 -25 280 -17 Q 287 -13 298 7 Q 308 32 307 62 Q 307 104 315 423 L 316 453 Z" fill="black" /></g></svg>