<?xml version='1.0' encoding='utf-8'?>
<svg xmlns="http://www.w3.org/2000/svg" version="1.1" viewBox="0 0 1024 1024"><g transform="scale(1, -1) translate(0, -900)"><path d="M 650 361 Q 686 365 729 368 L 771 371 Q 829 375 897 375 Q 958 372 967 383 Q 971 393 957 407 Q 903 447 835 426 Q 813 423 787 416 L 737 408 Q 697 402 651 394 L 604 386 Q 564 382 522 375 L 482 370 Q 418 363 351 353 Q 332 350 346 335 Q 359 322 376 317 Q 395 313 411 317 Q 448 329 491 336 L 527 343 Q 564 350 604 354 L 650 361 Z" fill="black" /></g></svg>