<?xml version='1.0' encoding='utf-8'?>
<svg xmlns="http://www.w3.org/2000/svg" version="1.1" viewBox="0 0 1024 1024"><g transform="scale(1, -1) translate(0, -900)"><path d="M 644 88 Q 645 146 646 201 L 647 239 Q 648 303 650 361 L 651 394 Q 652 464 654 527 L 656 571 Q 657 599 659 619 Q 666 638 656 649 Q 640 665 624 674 C 599 691 572 690 583 662 Q 605 611 607 566 Q 607 563 607 557 L 607 516 Q 606 473 604 386 L 604 354 Q 603 300 601 231 L 600 193 Q 599 142 598 81 C 598 51 643 58 644 88 Z" fill="black" /></g></svg>