<?xml version='1.0' encoding='utf-8'?>
<svg xmlns="http://www.w3.org/2000/svg" version="1.1" viewBox="0 0 1024 1024"><g transform="scale(1, -1) translate(0, -900)"><path d="M 308 479 Q 308 506 309 533 L 310 590 Q 310 698 330 772 Q 346 796 319 816 Q 303 828 274 845 Q 250 863 229 847 Q 225 841 230 826 Q 264 777 264 727 Q 264 655 266 574 L 261 421 Q 258 232 247 180 Q 228 83 228 77 Q 228 62 247 18 Q 254 0 262 -3 Q 268 -10 276 -1 Q 283 3 294 24 Q 304 49 303 81 Q 302 124 307 452 L 308 479 Z" fill="black" /></g></svg>