<?xml version='1.0' encoding='utf-8'?>
<svg xmlns="http://www.w3.org/2000/svg" version="1.1" viewBox="0 0 1024 1024"><g transform="scale(1, -1) translate(0, -900)"><path d="M 658 131 Q 689 177 719 242 Q 734 267 755 284 Q 774 297 763 312 Q 753 325 723 339 Q 701 348 673 337 Q 651 330 622 324 Q 603 321 580 318 C 550 314 526 292 556 288 Q 584 282 618 288 Q 646 300 652 300 Q 674 293 664 270 Q 648 209 620 164 L 598 133 Q 534 55 381 15 Q 368 12 378 3 Q 384 -1 428 1 Q 542 10 630 97 L 658 131 Z" fill="black" /></g></svg>