<?xml version='1.0' encoding='utf-8'?>
<svg xmlns="http://www.w3.org/2000/svg" version="1.1" viewBox="0 0 1024 1024"><g transform="scale(1, -1) translate(0, -900)"><path d="M 446 233 Q 522 252 583 260 Q 602 261 606 256 Q 613 241 606 206 Q 588 107 561 66 Q 542 35 513 42 Q 488 51 467 60 Q 443 70 459 44 Q 499 -1 516 -35 Q 532 -57 551 -41 Q 617 -5 658 165 Q 667 222 692 249 Q 705 262 699 273 Q 690 285 639 310 Q 618 320 598 308 Q 576 295 490 277 Q 403 258 331 254 Q 312 253 310 244 Q 309 237 332 224 Q 357 208 377 215 Q 396 221 416 225 L 446 233 Z" fill="black" /></g></svg>