<?xml version='1.0' encoding='utf-8'?>
<svg xmlns="http://www.w3.org/2000/svg" version="1.1" viewBox="0 0 1024 1024"><g transform="scale(1, -1) translate(0, -900)"><path d="M 448 493 Q 518 514 573 521 Q 589 524 592 519 Q 598 510 594 489 Q 588 431 574 405 Q 556 377 530 383 Q 515 386 501 389 Q 479 396 495 375 Q 523 344 535 319 Q 547 303 560 313 Q 611 340 643 467 Q 652 498 665 513 Q 675 523 671 533 Q 664 543 622 563 Q 606 570 588 560 Q 570 550 499 533 Q 427 515 366 512 Q 365 512 363 511 C 342 509 342 509 351 501 Q 352 497 368 488 Q 387 475 403 481 Q 410 484 420 486 L 448 493 Z" fill="black" /></g></svg>