<?xml version='1.0' encoding='utf-8'?>
<svg xmlns="http://www.w3.org/2000/svg" version="1.1" viewBox="0 0 1024 1024"><g transform="scale(1, -1) translate(0, -900)"><path d="M 600 284 Q 600 140 576 44 Q 566 4 592 -55 Q 599 -71 606 -75 Q 613 -82 620 -74 Q 642 -55 644 32 Q 641 101 640 316 L 639 357 Q 638 483 637 593 L 639 635 Q 642 699 655 747 Q 664 762 660 775 Q 653 785 599 817 Q 575 833 556 817 Q 550 813 557 797 Q 594 745 595 692 Q 596 661 597 625 L 598 585 Q 599 548 600 382 L 600 284 Z" fill="black" /></g></svg>