<?xml version='1.0' encoding='utf-8'?>
<svg xmlns="http://www.w3.org/2000/svg" version="1.1" viewBox="0 0 1024 1024"><g transform="scale(1, -1) translate(0, -900)"><path d="M 318 463 Q 319 505 320 549 L 320 601 Q 320 602 321 603 Q 322 691 339 752 Q 348 767 345 781 Q 338 791 282 825 Q 258 841 237 826 Q 233 822 238 806 Q 269 761 269 716 Q 270 655 271 584 L 269 452 Q 266 260 253 200 Q 232 127 256 68 Q 257 67 259 62 Q 266 44 274 41 Q 280 34 288 43 Q 295 47 306 68 Q 316 93 315 125 Q 314 162 318 434 L 318 463 Z" fill="black" /></g></svg>