<?xml version='1.0' encoding='utf-8'?>
<svg xmlns="http://www.w3.org/2000/svg" version="1.1" viewBox="0 0 1024 1024"><g transform="scale(1, -1) translate(0, -900)"><path d="M 309 477 Q 309 508 311 541 L 313 597 Q 314 688 333 750 Q 342 765 339 778 Q 332 788 278 821 Q 256 837 235 823 Q 231 819 236 803 Q 267 755 268 707 Q 268 649 269 580 L 265 435 Q 261 354 261 266 Q 255 190 235 121 Q 223 78 249 22 Q 255 4 263 1 Q 269 -6 276 3 Q 283 7 294 27 Q 304 52 303 82 Q 302 125 308 444 L 309 477 Z" fill="black" /></g></svg>