<?xml version='1.0' encoding='utf-8'?>
<svg xmlns="http://www.w3.org/2000/svg" version="1.1" viewBox="0 0 1024 1024"><g transform="scale(1, -1) translate(0, -900)"><path d="M 322 455 Q 323 495 325 540 L 327 597 Q 328 675 346 728 Q 355 743 352 756 Q 345 766 290 801 Q 266 819 245 803 Q 241 799 246 782 Q 276 737 276 693 Q 276 639 277 579 L 273 426 Q 264 225 261 203 Q 255 172 246 141 Q 233 99 260 39 Q 266 20 274 17 Q 280 10 288 19 Q 315 35 316 101 Q 315 140 322 427 L 322 455 Z" fill="black" /></g></svg>