<?xml version='1.0' encoding='utf-8'?>
<svg xmlns="http://www.w3.org/2000/svg" version="1.1" viewBox="0 0 1024 1024"><g transform="scale(1, -1) translate(0, -900)"><path d="M 274 436 Q 275 473 276 512 L 277 563 Q 277 680 297 754 Q 312 779 282 799 Q 267 811 242 825 Q 220 841 199 827 Q 195 823 201 807 Q 234 758 234 708 Q 235 635 236 552 Q 235 551 235 546 L 231 411 Q 222 197 222 190 Q 215 145 202 101 Q 192 64 216 2 Q 223 -16 231 -19 Q 237 -26 244 -17 Q 271 -1 271 62 Q 270 104 274 406 L 274 436 Z" fill="black" /></g></svg>