<?xml version='1.0' encoding='utf-8'?>
<svg xmlns="http://www.w3.org/2000/svg" version="1.1" viewBox="0 0 1024 1024"><g transform="scale(1, -1) translate(0, -900)"><path d="M 319 437 Q 320 474 321 516 L 321 566 Q 321 662 342 740 Q 358 764 331 784 Q 315 796 286 813 Q 262 831 241 815 Q 237 809 242 794 Q 276 745 276 695 Q 276 628 277 551 L 274 407 Q 265 184 265 174 Q 258 129 245 85 Q 233 45 259 -18 Q 266 -36 274 -39 Q 280 -46 288 -37 Q 295 -33 306 -12 Q 316 13 315 45 Q 314 88 319 405 L 319 437 Z" fill="black" /></g></svg>