<?xml version='1.0' encoding='utf-8'?>
<svg xmlns="http://www.w3.org/2000/svg" version="1.1" viewBox="0 0 1024 1024"><g transform="scale(1, -1) translate(0, -900)"><path d="M 333 450 Q 333 487 335 527 L 336 581 Q 336 674 357 746 Q 372 771 342 791 Q 327 803 302 817 Q 280 833 259 819 Q 255 815 260 799 Q 291 753 292 706 Q 292 642 292 566 L 288 424 Q 279 231 276 207 Q 270 171 259 133 Q 247 90 273 34 Q 279 16 287 13 Q 293 7 300 15 Q 307 19 318 39 Q 328 64 327 94 Q 326 134 332 420 L 333 450 Z" fill="black" /></g></svg>