<?xml version='1.0' encoding='utf-8'?>
<svg xmlns="http://www.w3.org/2000/svg" version="1.1" viewBox="0 0 1024 1024"><g transform="scale(1, -1) translate(0, -900)"><path d="M 323 446 Q 324 488 326 533 L 328 586 Q 329 677 349 738 Q 358 753 355 766 Q 348 776 294 809 Q 272 827 251 811 Q 247 807 252 791 Q 283 743 284 696 Q 284 638 284 571 L 279 420 Q 266 191 265 184 Q 241 70 243 64 Q 243 49 261 10 Q 267 -8 275 -11 Q 281 -17 288 -9 Q 295 -5 306 15 Q 316 40 315 70 Q 315 110 322 413 L 323 446 Z" fill="black" /></g></svg>