<?xml version='1.0' encoding='utf-8'?>
<svg xmlns="http://www.w3.org/2000/svg" version="1.1" viewBox="0 0 1024 1024"><g transform="scale(1, -1) translate(0, -900)"><path d="M 524 379 Q 539 424 548 532 L 550 563 Q 553 594 555 622 Q 555 643 565 667 C 570 681 570 681 545 696 Q 503 723 486 716 Q 474 709 481 696 Q 499 663 499 604 Q 498 595 498 583 Q 494 337 391 159 Q 372 120 350 86 Q 346 79 343 73 Q 342 63 351 65 Q 385 72 461 202 Q 470 221 479 241 Q 503 298 520 362 L 524 379 Z" fill="black" /></g></svg>