<?xml version='1.0' encoding='utf-8'?>
<svg xmlns="http://www.w3.org/2000/svg" version="1.1" viewBox="0 0 1024 1024"><g transform="scale(1, -1) translate(0, -900)"><path d="M 318 462 Q 318 499 320 537 L 322 594 Q 323 688 342 752 Q 351 767 348 780 Q 341 790 286 825 Q 262 843 241 827 Q 237 823 242 806 Q 273 758 275 710 Q 275 647 275 577 L 271 427 Q 264 220 259 194 Q 253 155 242 117 Q 230 77 256 14 Q 262 -4 270 -7 Q 276 -14 284 -5 Q 311 11 312 77 Q 311 119 317 434 L 318 462 Z" fill="black" /></g></svg>