<?xml version='1.0' encoding='utf-8'?>
<svg xmlns="http://www.w3.org/2000/svg" version="1.1" viewBox="0 0 1024 1024"><g transform="scale(1, -1) translate(0, -900)"><path d="M 578 403 Q 617 388 671 405 Q 725 426 738 418 Q 747 412 724 345 Q 657 122 411 -14 Q 401 -18 402 -24 Q 403 -30 411 -28 Q 537 -21 669 130 Q 682 148 696 166 Q 747 236 797 347 Q 815 378 843 400 Q 861 409 860 419 Q 860 434 827 452 Q 787 477 771 477 Q 758 476 745 467 Q 658 437 600 431 C 570 427 549 410 578 403 Z" fill="black" /></g></svg>