<?xml version='1.0' encoding='utf-8'?>
<svg xmlns="http://www.w3.org/2000/svg" version="1.1" viewBox="0 0 1024 1024"><g transform="scale(1, -1) translate(0, -900)"><path d="M 250 398 Q 241 179 239 160 Q 233 123 222 85 Q 212 48 236 -14 Q 243 -32 251 -35 Q 257 -42 264 -33 Q 291 -17 291 46 Q 290 89 295 414 L 295 442 Q 296 479 297 520 L 298 568 Q 299 653 317 710 Q 326 725 323 738 Q 316 748 262 781 Q 240 797 219 783 Q 215 779 221 763 Q 252 715 253 668 Q 253 614 254 553 L 250 398 Z" fill="black" /></g></svg>