<?xml version='1.0' encoding='utf-8'?>
<svg xmlns="http://www.w3.org/2000/svg" version="1.1" viewBox="0 0 1024 1024"><g transform="scale(1, -1) translate(0, -900)"><path d="M 309 413 Q 310 464 313 520 L 315 578 Q 318 675 337 739 Q 347 755 344 768 Q 337 778 282 813 Q 258 831 237 816 Q 233 810 238 795 Q 269 746 270 697 Q 270 634 270 561 L 264 421 Q 252 193 251 188 Q 244 145 231 101 Q 219 59 244 -1 Q 250 -19 258 -23 Q 264 -30 272 -21 Q 299 -3 301 60 Q 300 100 308 382 L 309 413 Z" fill="black" /></g></svg>