<?xml version='1.0' encoding='utf-8'?>
<svg xmlns="http://www.w3.org/2000/svg" version="1.1" viewBox="0 0 1024 1024"><g transform="scale(1, -1) translate(0, -900)"><path d="M 410 534 Q 438 541 467 542 Q 495 543 487 557 Q 478 569 463 576 Q 445 582 413 569 L 362 557 Q 328 553 289 544 Q 279 543 276 544 Q 275 545 277 555 Q 299 604 329 664 L 357 716 Q 382 764 395 773 Q 407 783 393 803 Q 351 851 331 848 Q 322 845 327 824 Q 333 799 302 703 L 282 656 Q 246 577 213 545 Q 198 532 202 516 Q 206 497 217 487 Q 226 478 235 482 Q 269 501 352 522 Q 355 523 362 524 L 410 534 Z" fill="black" /></g></svg>