<?xml version='1.0' encoding='utf-8'?>
<svg xmlns="http://www.w3.org/2000/svg" version="1.1" viewBox="0 0 1024 1024"><g transform="scale(1, -1) translate(0, -900)"><path d="M 292 462 Q 292 502 294 546 L 295 598 Q 295 700 317 774 Q 332 799 302 819 Q 287 831 262 845 Q 240 861 219 847 Q 215 843 221 827 Q 254 778 254 728 Q 254 662 254 587 L 250 449 Q 246 364 246 271 Q 240 193 219 121 Q 207 85 232 22 Q 239 4 246 1 Q 253 -6 260 3 Q 267 7 278 27 Q 288 52 287 82 Q 286 124 291 433 L 292 462 Z" fill="black" /></g></svg>