<?xml version='1.0' encoding='utf-8'?>
<svg xmlns="http://www.w3.org/2000/svg" version="1.1" viewBox="0 0 1024 1024"><g transform="scale(1, -1) translate(0, -900)"><path d="M 732 615 Q 733 618 800 645 Q 804 648 816 643 Q 826 637 820 615 Q 792 516 783 498 Q 777 483 778 476 Q 778 464 798 459 Q 909 378 885 303 Q 882 299 878 293 Q 865 284 840 288 Q 803 295 770 299 Q 763 300 763 293 Q 764 286 779 277 Q 851 241 867 214 Q 874 201 886 200 Q 896 199 910 210 Q 944 253 945 304 Q 946 382 839 469 Q 800 482 851 562 Q 875 613 904 631 Q 931 650 905 666 Q 868 693 845 701 Q 829 705 814 695 Q 789 673 711 641 C 683 629 705 602 732 615 Z" fill="black" /></g></svg>