<?xml version='1.0' encoding='utf-8'?>
<svg xmlns="http://www.w3.org/2000/svg" version="1.1" viewBox="0 0 1024 1024"><g transform="scale(1, -1) translate(0, -900)"><path d="M 303 457 Q 303 479 304 504 L 305 554 Q 305 687 326 760 Q 342 784 315 804 Q 299 816 270 833 Q 246 851 225 835 Q 221 829 226 814 Q 259 766 260 694 Q 260 616 262 537 L 258 417 Q 249 195 247 177 Q 240 137 229 97 Q 217 57 243 -6 Q 250 -24 258 -27 Q 264 -34 272 -25 Q 279 -21 290 0 Q 300 25 299 57 Q 298 100 302 425 L 303 457 Z" fill="black" /></g></svg>