<?xml version='1.0' encoding='utf-8'?>
<svg xmlns="http://www.w3.org/2000/svg" version="1.1" viewBox="0 0 1024 1024"><g transform="scale(1, -1) translate(0, -900)"><path d="M 428 626 Q 479 644 490 650 Q 500 657 508 651 Q 512 647 505 632 Q 492 602 481 573 Q 469 552 498 512 Q 522 476 514 462 Q 510 455 492 455 Q 470 456 447 455 Q 425 455 450 443 Q 493 421 533 394 Q 545 384 554 394 Q 564 401 570 421 Q 580 466 526 528 Q 484 570 566 646 Q 585 673 586 673 Q 585 676 583 678 Q 570 694 534 709 Q 516 715 480 683 Q 444 664 425 655 C 398 642 400 616 428 626 Z" fill="black" /></g></svg>