<?xml version='1.0' encoding='utf-8'?>
<svg xmlns="http://www.w3.org/2000/svg" version="1.1" viewBox="0 0 1024 1024"><g transform="scale(1, -1) translate(0, -900)"><path d="M 459 260 Q 459 302 459 342 Q 458 345 458 346 L 458 374 Q 458 429 458 470 Q 458 471 459 472 L 459 502 Q 460 577 465 604 Q 465 610 464 614 C 464 623 464 623 453 631 Q 452 632 450 633 Q 426 652 398 660 Q 388 661 382 653 Q 378 646 386 635 Q 416 572 416 501 Q 423 344 417 254 Q 416 250 416 245 L 412 200 Q 405 142 388 85 Q 373 28 408 -12 Q 420 -25 430 -11 Q 460 23 460 221 Q 460 222 460 224 L 459 260 Z" fill="black" /></g></svg>