<?xml version='1.0' encoding='utf-8'?>
<svg xmlns="http://www.w3.org/2000/svg" version="1.1" viewBox="0 0 1024 1024"><g transform="scale(1, -1) translate(0, -900)"><path d="M 948 480 Q 960 486 951 498 Q 938 514 921 521 Q 911 525 891 516 Q 825 483 807 514 Q 794 535 803 596 Q 804 633 840 673 Q 855 686 840 699 Q 818 715 795 725 Q 786 729 771 720 Q 728 698 679 683 C 650 674 654 644 683 652 Q 692 652 742 674 Q 758 681 763 680 Q 770 677 770 666 Q 767 620 763 581 Q 756 533 767 502 Q 773 483 792 470 Q 820 457 872 460 Q 923 464 948 480 Z" fill="black" /></g></svg>