<?xml version='1.0' encoding='utf-8'?>
<svg xmlns="http://www.w3.org/2000/svg" version="1.1" viewBox="0 0 1024 1024"><g transform="scale(1, -1) translate(0, -900)"><path d="M 287 436 Q 288 479 290 527 L 292 581 Q 293 669 312 728 Q 321 743 318 755 Q 311 765 259 798 Q 237 814 218 799 Q 212 795 219 780 Q 250 734 250 686 Q 250 628 250 564 L 246 414 Q 242 338 242 255 Q 238 182 217 113 Q 205 74 230 17 Q 236 1 243 -3 Q 249 -9 256 -2 Q 263 2 273 22 Q 283 46 282 75 Q 281 115 287 407 L 287 436 Z" fill="black" /></g></svg>