<?xml version='1.0' encoding='utf-8'?>
<svg xmlns="http://www.w3.org/2000/svg" version="1.1" viewBox="0 0 1024 1024"><g transform="scale(1, -1) translate(0, -900)"><path d="M 307 443 Q 308 480 310 521 L 311 576 Q 311 673 333 746 Q 348 771 318 791 Q 303 803 278 817 Q 256 835 235 819 Q 231 815 236 799 Q 269 750 268 702 Q 268 635 268 560 L 263 398 Q 259 328 258 253 Q 254 177 232 105 Q 219 63 245 6 Q 251 -12 259 -15 Q 265 -21 272 -13 Q 279 -9 290 11 Q 300 36 299 66 Q 299 108 307 415 L 307 443 Z" fill="black" /></g></svg>