<?xml version='1.0' encoding='utf-8'?>
<svg xmlns="http://www.w3.org/2000/svg" version="1.1" viewBox="0 0 1024 1024"><g transform="scale(1, -1) translate(0, -900)"><path d="M 498 306 Q 534 358 564 429 L 579 468 Q 589 502 599 536 L 608 574 Q 614 610 619 647 L 626 692 Q 626 693 627 693 Q 631 729 649 770 Q 655 780 647 788 Q 632 804 600 821 Q 581 831 566 827 Q 547 823 560 805 Q 584 775 581 748 Q 578 714 574 680 L 569 637 Q 562 597 555 562 L 546 525 Q 536 491 526 458 L 511 418 Q 453 301 372 230 Q 324 194 317 186 Q 313 179 328 180 Q 371 177 477 280 L 498 306 Z" fill="black" /></g></svg>