<?xml version='1.0' encoding='utf-8'?>
<svg xmlns="http://www.w3.org/2000/svg" version="1.1" viewBox="0 0 1024 1024"><g transform="scale(1, -1) translate(0, -900)"><path d="M 686 50 Q 723 -13 732 -16 Q 742 -16 751 7 Q 763 49 755 186 Q 749 249 757 277 Q 766 298 753 306 Q 746 316 710 332 Q 694 339 658 325 Q 627 313 591 304 Q 561 297 524 290 C 495 284 500 259 530 262 Q 540 262 557 266 Q 603 282 664 290 Q 683 293 688 286 Q 697 277 698 148 Q 699 102 696 92 Q 693 88 690 85 C 678 63 678 63 686 50 Z" fill="black" /></g></svg>