<?xml version='1.0' encoding='utf-8'?>
<svg xmlns="http://www.w3.org/2000/svg" version="1.1" viewBox="0 0 1024 1024"><g transform="scale(1, -1) translate(0, -900)"><path d="M 300 442 Q 301 479 303 517 L 305 576 Q 306 672 326 735 Q 335 751 332 764 Q 325 774 270 809 Q 246 827 225 811 Q 221 807 226 791 Q 257 742 258 694 Q 258 630 258 554 L 253 390 Q 249 323 248 251 Q 244 175 222 105 Q 209 63 236 3 Q 242 -15 250 -19 Q 256 -26 264 -17 Q 271 -13 282 8 Q 292 33 292 64 Q 292 106 300 414 L 300 442 Z" fill="black" /></g></svg>