<?xml version='1.0' encoding='utf-8'?>
<svg xmlns="http://www.w3.org/2000/svg" version="1.1" viewBox="0 0 1024 1024"><g transform="scale(1, -1) translate(0, -900)"><path d="M 315 423 Q 316 474 318 531 L 320 589 Q 323 679 342 739 Q 351 755 348 768 Q 341 778 286 813 Q 262 831 241 815 Q 237 811 242 795 Q 275 746 275 696 Q 275 638 275 572 L 270 412 Q 266 330 265 242 Q 259 164 238 93 Q 226 54 251 -9 Q 258 -28 266 -31 Q 272 -38 280 -29 Q 287 -25 298 -4 Q 308 21 308 52 Q 307 94 314 395 L 315 423 Z" fill="black" /></g></svg>