<?xml version='1.0' encoding='utf-8'?>
<svg xmlns="http://www.w3.org/2000/svg" version="1.1" viewBox="0 0 1024 1024"><g transform="scale(1, -1) translate(0, -900)"><path d="M 493 338 Q 494 338 496 336 Q 512 324 528 324 L 562 328 Q 602 338 645 344 L 690 350 Q 727 357 766 358 Q 781 358 784 350 Q 788 338 785 307 Q 772 193 748 133 Q 735 96 723 84 Q 708 69 678 78 Q 654 82 633 85 Q 608 92 626 70 Q 663 24 682 -9 Q 689 -28 708 -24 Q 724 -23 745 -4 Q 770 18 792 67 Q 820 128 845 262 Q 854 310 875 336 Q 894 357 885 368 Q 870 387 836 406 Q 812 421 784 411 Q 721 389 626 375 Q 560 366 517 366 C 487 365 467 352 493 338 Z" fill="black" /></g></svg>