<?xml version='1.0' encoding='utf-8'?>
<svg xmlns="http://www.w3.org/2000/svg" version="1.1" viewBox="0 0 1024 1024"><g transform="scale(1, -1) translate(0, -900)"><path d="M 265 413 Q 261 343 261 266 Q 255 188 234 117 Q 224 83 232 62 Q 238 38 247 15 Q 254 -4 262 -7 Q 268 -14 276 -5 Q 283 -1 294 20 Q 304 45 304 76 Q 303 116 309 404 L 310 431 Q 311 474 313 521 L 315 573 Q 315 585 316 597 Q 319 694 338 759 Q 347 775 344 788 Q 337 798 282 833 Q 258 851 237 835 Q 233 831 238 815 Q 271 766 270 717 Q 271 645 271 563 Q 270 560 270 556 L 265 413 Z" fill="black" /></g></svg>