<?xml version='1.0' encoding='utf-8'?>
<svg xmlns="http://www.w3.org/2000/svg" version="1.1" viewBox="0 0 1024 1024"><g transform="scale(1, -1) translate(0, -900)"><path d="M 786 493 Q 793 535 802 561 L 820 605 Q 829 623 841 634 Q 854 652 841 666 Q 775 711 724 686 Q 709 682 695 675 L 642 660 Q 599 651 556 645 Q 543 644 544 635 Q 545 628 562 623 Q 584 614 614 625 Q 627 629 643 631 L 694 641 Q 745 656 756 648 Q 765 639 761 591 L 756 556 Q 750 525 744 495 C 738 466 781 463 786 493 Z" fill="black" /></g></svg>