<?xml version='1.0' encoding='utf-8'?>
<svg xmlns="http://www.w3.org/2000/svg" version="1.1" viewBox="0 0 1024 1024"><g transform="scale(1, -1) translate(0, -900)"><path d="M 315 418 Q 315 469 318 525 L 320 580 Q 321 674 341 738 Q 350 753 347 766 Q 340 776 286 809 Q 264 827 243 811 Q 239 807 244 791 Q 275 743 276 695 Q 276 634 276 563 L 271 410 Q 267 334 266 251 Q 262 175 240 105 Q 227 63 253 6 Q 259 -12 267 -15 Q 273 -21 280 -13 Q 287 -9 298 11 Q 308 36 307 66 Q 307 105 314 383 L 315 418 Z" fill="black" /></g></svg>