<?xml version='1.0' encoding='utf-8'?>
<svg xmlns="http://www.w3.org/2000/svg" version="1.1" viewBox="0 0 1024 1024"><g transform="scale(1, -1) translate(0, -900)"><path d="M 719 646 Q 761 659 797 667 Q 809 668 811 665 Q 821 650 814 612 Q 801 506 773 459 Q 758 434 735 437 Q 713 441 692 449 Q 673 455 687 436 Q 724 402 743 376 Q 761 357 778 373 Q 832 412 852 536 Q 861 641 881 665 Q 891 677 886 685 Q 877 695 834 713 Q 816 720 801 708 Q 786 699 732 684 Q 677 668 629 661 Q 614 660 612 652 Q 611 645 632 636 Q 653 623 670 631 Q 676 634 682 634 L 719 646 Z" fill="black" /></g></svg>