<?xml version='1.0' encoding='utf-8'?>
<svg xmlns="http://www.w3.org/2000/svg" version="1.1" viewBox="0 0 1024 1024"><g transform="scale(1, -1) translate(0, -900)"><path d="M 291 82 Q 290 122 294 421 L 295 444 Q 295 493 297 545 L 298 599 Q 299 692 317 754 Q 326 769 323 782 Q 316 792 262 825 Q 240 841 219 827 Q 215 823 221 807 Q 252 759 253 711 Q 253 650 254 582 L 251 438 Q 248 356 248 267 Q 244 191 222 121 Q 213 87 221 67 Q 227 45 236 22 Q 243 4 251 1 Q 257 -6 264 3 Q 271 7 282 27 Q 291 52 291 82 Z" fill="black" /></g></svg>