<?xml version='1.0' encoding='utf-8'?>
<svg xmlns="http://www.w3.org/2000/svg" version="1.1" viewBox="0 0 1024 1024"><g transform="scale(1, -1) translate(0, -900)"><path d="M 267 381 Q 268 430 271 486 L 273 536 Q 273 648 295 720 Q 308 744 282 764 Q 267 776 243 790 Q 221 806 202 792 Q 196 788 202 773 Q 232 727 233 650 Q 233 584 232 518 L 224 354 Q 215 191 214 182 Q 207 139 194 97 Q 182 63 206 1 Q 212 -15 219 -19 Q 225 -25 232 -17 Q 259 -1 259 94 Q 260 164 266 348 L 267 381 Z" fill="black" /></g></svg>