<?xml version='1.0' encoding='utf-8'?>
<svg xmlns="http://www.w3.org/2000/svg" version="1.1" viewBox="0 0 1024 1024"><g transform="scale(1, -1) translate(0, -900)"><path d="M 472 616 Q 481 617 492 622 Q 616 653 743 687 Q 756 691 765 682 Q 772 672 771 655 Q 752 468 760 342 Q 767 236 791 169 Q 812 111 846 71 Q 876 34 919 11 Q 956 -8 976 3 Q 989 10 984 30 Q 974 115 977 206 Q 978 218 973 225 Q 966 232 962 215 Q 943 148 927 118 Q 911 88 891 112 Q 866 134 841 193 Q 810 262 805 370 Q 799 461 816 592 Q 820 632 859 675 Q 874 690 857 703 Q 844 716 790 741 Q 771 753 752 736 Q 734 723 703 712 Q 588 675 467 647 C 438 640 443 608 472 616 Z" fill="black" /></g></svg>