<?xml version='1.0' encoding='utf-8'?>
<svg xmlns="http://www.w3.org/2000/svg" version="1.1" viewBox="0 0 1024 1024"><g transform="scale(1, -1) translate(0, -900)"><path d="M 461 344 Q 470 320 437 234 L 423 201 Q 395 146 341 75 Q 332 62 336 60 Q 340 57 348 64 Q 423 116 454 182 L 471 215 Q 484 246 497 280 Q 513 332 526 348 Q 533 360 527 367 Q 500 391 464 381 Q 443 374 437 379 Q 433 380 438 391 Q 495 508 505 516 Q 521 532 509 545 Q 499 554 466 564 Q 441 574 427 559 Q 382 523 347 510 Q 334 504 343 499 Q 361 487 419 513 Q 431 517 437 511 Q 441 501 430 467 Q 414 409 398 389 Q 388 376 393 363 Q 397 354 416 357 Q 435 360 451 353 Q 461 349 461 344 Z" fill="black" /></g></svg>