<?xml version='1.0' encoding='utf-8'?>
<svg xmlns="http://www.w3.org/2000/svg" version="1.1" viewBox="0 0 1024 1024"><g transform="scale(1, -1) translate(0, -900)"><path d="M 640 250 Q 640 154 654 131 Q 666 118 674 136 Q 683 163 687 256 L 688 290 Q 688 318 689 352 L 689 388 Q 689 416 689 446 L 689 481 Q 689 517 691 547 L 692 577 Q 692 613 694 641 L 695 675 Q 695 721 712 750 Q 718 763 701 777 Q 680 793 643 803 Q 627 807 616 795 Q 607 788 618 778 Q 640 759 642 732 Q 642 702 642 660 L 643 631 Q 643 603 643 568 L 643 537 Q 643 507 643 471 L 642 438 Q 642 405 641 376 L 641 343 Q 641 313 640 282 L 640 250 Z" fill="black" /></g></svg>