<?xml version='1.0' encoding='utf-8'?>
<svg xmlns="http://www.w3.org/2000/svg" version="1.1" viewBox="0 0 1024 1024"><g transform="scale(1, -1) translate(0, -900)"><path d="M 290 447 Q 290 487 292 531 L 293 583 Q 296 668 312 725 Q 321 738 318 752 Q 311 761 259 793 Q 237 809 218 795 Q 214 791 219 776 Q 250 730 250 683 Q 250 629 251 569 L 247 404 Q 238 203 235 181 Q 229 150 220 117 Q 210 81 233 21 Q 240 5 247 1 Q 253 -5 260 2 Q 267 6 277 26 Q 287 50 286 79 Q 285 119 290 420 L 290 447 Z" fill="black" /></g></svg>