<?xml version='1.0' encoding='utf-8'?>
<svg xmlns="http://www.w3.org/2000/svg" version="1.1" viewBox="0 0 1024 1024"><g transform="scale(1, -1) translate(0, -900)"><path d="M 301 365 Q 302 426 304 499 L 305 554 Q 305 683 325 754 Q 340 779 310 799 Q 295 811 270 825 Q 248 841 227 827 Q 223 823 229 807 Q 260 756 262 680 Q 262 611 263 539 L 258 388 Q 255 222 246 177 Q 240 144 230 109 Q 220 72 244 10 Q 251 -8 259 -11 Q 265 -18 272 -9 Q 299 7 299 70 Q 298 104 301 333 L 301 365 Z" fill="black" /></g></svg>