<?xml version='1.0' encoding='utf-8'?>
<svg xmlns="http://www.w3.org/2000/svg" version="1.1" viewBox="0 0 1024 1024"><g transform="scale(1, -1) translate(0, -900)"><path d="M 304 463 Q 304 497 305 535 L 305 588 Q 305 589 306 592 Q 307 686 325 749 Q 332 762 330 776 Q 324 785 271 817 Q 249 833 230 819 Q 226 815 231 799 Q 262 753 263 705 Q 264 644 265 573 L 262 430 Q 253 217 252 203 Q 230 92 233 80 Q 239 56 249 33 Q 256 17 263 13 Q 269 7 276 15 Q 283 19 293 39 Q 302 61 301 91 Q 300 131 303 434 L 304 463 Z" fill="black" /></g></svg>