<?xml version='1.0' encoding='utf-8'?>
<svg xmlns="http://www.w3.org/2000/svg" version="1.1" viewBox="0 0 1024 1024"><g transform="scale(1, -1) translate(0, -900)"><path d="M 308 443 Q 309 486 311 533 L 313 582 Q 313 685 336 762 Q 345 777 343 790 Q 336 799 282 834 Q 260 850 239 836 Q 235 832 240 816 Q 271 767 272 717 Q 272 648 272 569 L 265 410 Q 261 340 260 266 Q 254 188 232 117 Q 219 75 245 18 Q 251 2 259 -3 Q 265 -9 272 -1 Q 299 15 300 78 Q 299 118 307 415 L 308 443 Z" fill="black" /></g></svg>