<?xml version='1.0' encoding='utf-8'?>
<svg xmlns="http://www.w3.org/2000/svg" version="1.1" viewBox="0 0 1024 1024"><g transform="scale(1, -1) translate(0, -900)"><path d="M 270 418 Q 258 160 257 159 Q 233 39 234 38 Q 234 23 253 -18 Q 259 -36 267 -39 Q 273 -46 280 -37 Q 287 -33 298 -13 Q 308 12 307 42 Q 306 85 312 421 L 313 450 Q 313 486 315 523 L 316 578 Q 319 669 337 730 Q 346 745 343 758 Q 336 768 282 801 Q 260 817 239 803 Q 235 799 240 783 Q 273 734 273 685 Q 273 627 274 561 L 270 418 Z" fill="black" /></g></svg>