<?xml version='1.0' encoding='utf-8'?>
<svg xmlns="http://www.w3.org/2000/svg" version="1.1" viewBox="0 0 1024 1024"><g transform="scale(1, -1) translate(0, -900)"><path d="M 754 355 Q 754 354 755 352 Q 759 336 772 337 Q 785 338 793 351 Q 806 367 832 446 Q 850 495 885 523 Q 904 538 889 553 Q 873 569 825 597 Q 813 606 735 589 Q 713 589 645 575 L 606 567 Q 581 564 558 558 Q 492 545 447 538 C 417 533 440 498 469 505 Q 476 506 481 507 Q 524 523 606 536 L 645 543 Q 772 567 794 556 Q 804 549 797 519 Q 770 408 756 381 C 749 364 749 364 754 355 Z" fill="black" /></g></svg>