<?xml version='1.0' encoding='utf-8'?>
<svg xmlns="http://www.w3.org/2000/svg" version="1.1" viewBox="0 0 1024 1024"><g transform="scale(1, -1) translate(0, -900)"><path d="M 628 301 Q 644 292 692 282 Q 720 275 730 259 Q 743 235 691 109 Q 667 57 645 49 Q 629 45 577 64 Q 538 80 534 74 Q 528 64 547 52 Q 592 19 609 -25 Q 615 -43 628 -51 Q 641 -57 677 -34 Q 731 11 769 144 Q 785 213 809 227 Q 821 231 823 241 Q 824 251 802 279 Q 771 313 716 314 Q 700 317 673 323 Q 661 327 649 331 C 621 340 600 312 628 301 Z" fill="black" /></g></svg>