<?xml version='1.0' encoding='utf-8'?>
<svg xmlns="http://www.w3.org/2000/svg" version="1.1" viewBox="0 0 1024 1024"><g transform="scale(1, -1) translate(0, -900)"><path d="M 645 575 Q 645 632 646 649 L 650 695 Q 654 735 663 767 Q 670 782 668 795 Q 661 804 607 837 Q 583 853 563 837 Q 559 833 565 817 Q 601 766 602 682 L 604 641 Q 604 607 606 567 L 606 536 Q 605 457 604 371 L 604 277 Q 604 174 580 80 Q 570 40 596 -19 Q 603 -35 611 -39 Q 617 -46 624 -38 Q 646 -19 648 64 Q 647 124 646 301 L 645 378 Q 645 453 645 543 L 645 575 Z" fill="black" /></g></svg>