<?xml version='1.0' encoding='utf-8'?>
<svg xmlns="http://www.w3.org/2000/svg" version="1.1" viewBox="0 0 1024 1024"><g transform="scale(1, -1) translate(0, -900)"><path d="M 292 406 Q 293 458 295 518 L 296 573 Q 296 663 317 738 Q 332 763 302 783 Q 287 795 262 809 Q 240 825 219 811 Q 215 807 220 791 Q 251 743 252 695 Q 252 631 253 555 L 248 402 Q 239 213 239 204 Q 232 156 219 109 Q 207 66 233 10 Q 239 -8 247 -11 Q 253 -18 260 -9 Q 267 -5 278 15 Q 288 40 287 70 Q 286 107 291 376 L 292 406 Z" fill="black" /></g></svg>