<?xml version='1.0' encoding='utf-8'?>
<svg xmlns="http://www.w3.org/2000/svg" version="1.1" viewBox="0 0 1024 1024"><g transform="scale(1, -1) translate(0, -900)"><path d="M 521 437 Q 528 477 535 515 L 540 547 Q 541 562 543 576 Q 549 654 555 670 C 560 693 560 693 548 702 Q 535 714 513 723 Q 495 733 483 728 Q 473 722 478 709 Q 517 646 463 388 Q 456 361 447 334 Q 408 229 342 129 Q 338 122 336 117 Q 333 107 343 109 Q 377 113 455 247 Q 461 262 469 275 Q 496 336 515 409 L 521 437 Z" fill="black" /></g></svg>