<?xml version='1.0' encoding='utf-8'?>
<svg xmlns="http://www.w3.org/2000/svg" version="1.1" viewBox="0 0 1024 1024"><g transform="scale(1, -1) translate(0, -900)"><path d="M 530 572 Q 514 584 495 588 Q 486 589 481 582 Q 478 578 485 568 Q 492 550 497 534 Q 501 519 502 495 Q 506 410 504 361 Q 503 315 489 268 Q 482 246 487 228 Q 496 198 506 187 Q 516 175 525 188 Q 529 195 533 203 L 541 234 Q 548 268 548 302 Q 547 312 547 322 L 547 352 Q 547 374 547 397 Q 547 413 547 427 L 547 455 Q 547 521 550 541 C 552 558 552 558 530 572 Z" fill="black" /></g></svg>