<?xml version='1.0' encoding='utf-8'?>
<svg xmlns="http://www.w3.org/2000/svg" version="1.1" viewBox="0 0 1024 1024"><g transform="scale(1, -1) translate(0, -900)"><path d="M 305 459 Q 305 496 307 537 L 308 590 Q 308 689 329 758 Q 344 783 314 803 Q 299 815 274 829 Q 252 845 231 831 Q 227 827 232 811 Q 265 763 265 715 Q 265 649 265 575 L 261 442 Q 254 226 249 201 Q 225 86 226 82 Q 226 67 245 26 Q 251 8 259 5 Q 265 -2 272 7 Q 279 11 290 31 Q 300 56 299 86 Q 298 126 304 435 L 305 459 Z" fill="black" /></g></svg>