<?xml version='1.0' encoding='utf-8'?>
<svg xmlns="http://www.w3.org/2000/svg" version="1.1" viewBox="0 0 1024 1024"><g transform="scale(1, -1) translate(0, -900)"><path d="M 319 70 Q 318 110 324 408 L 325 435 Q 325 478 327 524 L 328 578 Q 328 579 329 582 Q 330 678 349 742 Q 358 757 355 770 Q 348 780 294 813 Q 272 829 251 815 Q 247 811 252 795 Q 285 747 285 699 Q 285 633 285 559 L 281 431 Q 278 347 277 255 Q 273 179 251 109 Q 242 75 249 55 Q 255 33 265 10 Q 271 -8 279 -11 Q 285 -18 292 -9 Q 299 -5 310 15 Q 320 40 319 70 Z" fill="black" /></g></svg>