<?xml version='1.0' encoding='utf-8'?>
<svg xmlns="http://www.w3.org/2000/svg" version="1.1" viewBox="0 0 1024 1024"><g transform="scale(1, -1) translate(0, -900)"><path d="M 316 65 Q 315 104 320 375 L 321 402 Q 322 457 324 523 L 325 581 Q 325 582 326 585 Q 327 682 346 748 Q 355 763 352 776 Q 345 786 290 821 Q 266 839 245 823 Q 241 819 246 802 Q 279 753 279 705 Q 279 638 279 562 L 275 419 Q 274 340 271 254 Q 267 176 245 105 Q 236 71 243 50 Q 250 26 259 2 Q 266 -16 274 -19 Q 280 -26 288 -17 Q 295 -13 306 8 Q 316 33 316 65 Z" fill="black" /></g></svg>