<?xml version='1.0' encoding='utf-8'?>
<svg xmlns="http://www.w3.org/2000/svg" version="1.1" viewBox="0 0 1024 1024"><g transform="scale(1, -1) translate(0, -900)"><path d="M 693 39 Q 717 2 735 -31 Q 742 -49 753 -48 Q 768 -48 785 -18 Q 801 15 803 94 Q 794 239 817 266 Q 826 278 818 288 Q 800 307 751 331 Q 735 341 719 332 Q 673 311 598 296 Q 571 292 554 287 L 531 283 Q 513 282 501 280 C 471 277 492 243 522 248 Q 534 249 701 284 Q 726 288 740 280 Q 753 253 736 69 Q 730 50 713 60 C 683 59 680 59 693 39 Z" fill="black" /></g></svg>