<?xml version='1.0' encoding='utf-8'?>
<svg xmlns="http://www.w3.org/2000/svg" version="1.1" viewBox="0 0 1024 1024"><g transform="scale(1, -1) translate(0, -900)"><path d="M 690 56 Q 720 20 741 -13 Q 750 -29 761 -29 Q 776 -28 790 5 Q 806 42 802 86 Q 793 147 784 262 Q 783 290 797 311 Q 804 323 797 332 Q 779 350 731 370 Q 715 377 700 369 Q 666 351 613 336 Q 597 332 584 328 C 522 310 527 285 556 291 Q 560 291 692 323 Q 708 327 718 321 Q 733 303 734 98 Q 733 92 733 87 Q 729 72 720 74 C 697 54 686 61 690 56 Z" fill="black" /></g></svg>