<?xml version='1.0' encoding='utf-8'?>
<svg xmlns="http://www.w3.org/2000/svg" version="1.1" viewBox="0 0 1024 1024"><g transform="scale(1, -1) translate(0, -900)"><path d="M 562 657 Q 563 644 556 618 Q 547 573 517 536 Q 507 524 510 517 Q 514 508 534 495 Q 543 489 556 497 Q 601 524 619 528 Q 635 531 642 525 Q 651 518 649 477 Q 637 303 621 242 Q 617 224 608 218 Q 604 212 583 215 Q 564 222 541 232 Q 519 239 536 219 Q 575 173 588 147 Q 594 134 601 136 Q 620 137 641 161 Q 663 186 668 211 Q 678 272 693 448 Q 696 491 717 518 Q 732 534 724 545 Q 714 558 685 568 Q 669 575 648 566 Q 626 556 598 548 Q 588 544 585 549 Q 582 552 585 559 Q 603 608 617 626 Q 626 633 621 644 Q 617 654 606 664 C 588 688 565 687 562 657 Z" fill="black" /></g></svg>