<?xml version='1.0' encoding='utf-8'?>
<svg xmlns="http://www.w3.org/2000/svg" version="1.1" viewBox="0 0 1024 1024"><g transform="scale(1, -1) translate(0, -900)"><path d="M 673 632 Q 679 719 695 761 Q 707 789 689 806 Q 640 843 626 838 Q 611 832 619 816 Q 638 780 634 728 Q 628 491 658 457 Q 692 423 827 415 Q 887 412 911 423 Q 941 436 930 467 Q 914 510 906 582 Q 905 597 897 602 Q 890 606 886 588 Q 868 500 854 485 Q 835 466 762 468 Q 722 471 705 479 Q 690 486 687 497 Q 674 530 673 611 L 673 632 Z" fill="black" /></g></svg>