<?xml version='1.0' encoding='utf-8'?>
<svg xmlns="http://www.w3.org/2000/svg" version="1.1" viewBox="0 0 1024 1024"><g transform="scale(1, -1) translate(0, -900)"><path d="M 766 337 Q 742 301 699 253 Q 690 243 701 243 Q 708 244 741 267 Q 760 280 782 304 Q 786 308 790 313 L 817 348 L 823 356 Q 844 387 866 425 Q 879 450 905 475 Q 915 485 911 492 Q 908 499 857 514 Q 841 520 827 508 Q 814 499 793 492 Q 759 482 726 475 Q 711 474 722 462 Q 740 449 771 456 Q 786 460 797 465 Q 816 472 823 464 Q 827 457 816 435 Q 803 402 784 367 L 766 337 Z" fill="black" /></g></svg>