<?xml version='1.0' encoding='utf-8'?>
<svg xmlns="http://www.w3.org/2000/svg" version="1.1" viewBox="0 0 1024 1024"><g transform="scale(1, -1) translate(0, -900)"><path d="M 584 328 Q 677 436 684 443 L 719 490 Q 797 605 817 627 Q 826 637 818 654 Q 791 711 756 714 Q 740 715 743 694 Q 755 616 655 481 Q 654 480 653 477 L 620 433 Q 586 393 543 345 Q 533 335 524 325 L 501 302 Q 425 226 332 153 Q 325 149 324 141 Q 323 135 330 136 Q 339 136 349 141 Q 439 192 483 232 Q 496 242 508 254 L 584 328 Z" fill="black" /></g></svg>