<?xml version='1.0' encoding='utf-8'?>
<svg xmlns="http://www.w3.org/2000/svg" version="1.1" viewBox="0 0 1024 1024"><g transform="scale(1, -1) translate(0, -900)"><path d="M 315 390 Q 315 442 317 500 L 318 555 Q 318 669 338 740 Q 354 764 327 784 Q 311 796 282 813 Q 258 831 237 815 Q 233 809 238 794 Q 269 745 271 670 Q 271 606 272 539 L 268 401 Q 265 220 253 160 Q 229 73 250 23 Q 251 17 255 10 Q 262 -8 270 -11 Q 276 -18 284 -9 Q 291 -5 302 16 Q 312 41 311 73 Q 310 110 314 361 L 315 390 Z" fill="black" /></g></svg>