<?xml version='1.0' encoding='utf-8'?>
<svg xmlns="http://www.w3.org/2000/svg" version="1.1" viewBox="0 0 1024 1024"><g transform="scale(1, -1) translate(0, -900)"><path d="M 656 87 Q 704 51 771 -12 Q 793 -34 810 -34 Q 829 -35 832 -16 Q 833 3 809 48 Q 797 75 685 127 L 641 147 Q 604 165 575 174 Q 551 180 565 202 Q 578 235 590 257 L 606 291 Q 607 292 608 294 Q 615 316 626 332 Q 635 339 631 348 Q 627 361 589 386 Q 579 393 569 390 Q 557 386 564 372 Q 573 351 555 285 L 544 250 Q 511 175 513 171 Q 516 161 531 158 Q 570 145 611 118 Q 612 118 613 116 L 656 87 Z" fill="black" /></g></svg>