<?xml version='1.0' encoding='utf-8'?>
<svg xmlns="http://www.w3.org/2000/svg" version="1.1" viewBox="0 0 1024 1024"><g transform="scale(1, -1) translate(0, -900)"><path d="M 344 467 Q 344 497 346 527 L 347 582 Q 347 682 370 759 Q 383 786 359 803 Q 343 815 314 833 Q 290 851 269 835 Q 265 831 270 815 Q 303 766 303 716 Q 303 647 303 568 L 298 429 Q 294 347 293 259 Q 287 181 266 109 Q 254 70 279 7 Q 286 -12 294 -15 Q 300 -22 308 -13 Q 315 -9 326 12 Q 336 37 336 68 Q 335 111 343 438 L 344 467 Z" fill="black" /></g></svg>