<?xml version='1.0' encoding='utf-8'?>
<svg xmlns="http://www.w3.org/2000/svg" version="1.1" viewBox="0 0 1024 1024"><g transform="scale(1, -1) translate(0, -900)"><path d="M 279 422 Q 279 471 281 526 L 282 580 Q 283 673 301 734 Q 310 749 307 762 Q 300 772 246 805 Q 224 821 203 807 Q 199 803 205 787 Q 236 741 237 692 Q 237 632 238 563 L 234 403 Q 225 202 225 197 Q 218 155 206 113 Q 196 76 220 14 Q 227 -4 235 -7 Q 241 -14 248 -5 Q 275 11 275 74 Q 274 114 278 395 L 279 422 Z" fill="black" /></g></svg>