<?xml version='1.0' encoding='utf-8'?>
<svg xmlns="http://www.w3.org/2000/svg" version="1.1" viewBox="0 0 1024 1024"><g transform="scale(1, -1) translate(0, -900)"><path d="M 283 367 Q 284 431 286 505 L 287 556 Q 287 671 309 746 Q 324 771 294 791 Q 279 803 254 817 Q 232 833 211 819 Q 207 815 212 799 Q 245 750 245 701 Q 246 628 247 546 Q 246 545 246 542 L 241 395 Q 237 323 237 246 Q 233 168 211 97 Q 199 54 225 -2 Q 231 -20 239 -23 Q 245 -30 252 -21 Q 259 -17 270 3 Q 280 28 279 58 Q 278 95 282 345 L 283 367 Z" fill="black" /></g></svg>