<?xml version='1.0' encoding='utf-8'?>
<svg xmlns="http://www.w3.org/2000/svg" version="1.1" viewBox="0 0 1024 1024"><g transform="scale(1, -1) translate(0, -900)"><path d="M 688 470 Q 703 447 717 439 Q 724 433 733 441 Q 745 450 759 486 Q 770 519 798 624 Q 802 637 806 647 Q 813 662 831 678 Q 839 688 837 696 Q 834 711 777 748 Q 761 757 684 741 Q 645 741 504 707 C 475 700 496 667 525 675 Q 547 681 586 690 Q 710 713 731 708 Q 735 706 738 704 Q 751 692 749 671 Q 749 666 741 635 Q 713 519 699 502 C 685 475 685 475 688 470 Z" fill="black" /></g></svg>