<?xml version='1.0' encoding='utf-8'?>
<svg xmlns="http://www.w3.org/2000/svg" version="1.1" viewBox="0 0 1024 1024"><g transform="scale(1, -1) translate(0, -900)"><path d="M 797 97 Q 764 106 730 115 Q 711 121 713 111 Q 777 62 814 26 Q 827 8 842 4 Q 851 0 858 10 Q 894 58 893 109 Q 866 403 867 616 Q 867 656 878 675 Q 888 694 877 704 Q 856 720 821 734 Q 803 741 756 716 Q 717 701 650 691 Q 635 690 644 681 Q 653 671 667 666 Q 685 663 780 689 Q 799 693 804 684 Q 811 665 816 632 Q 835 323 827 136 Q 827 111 820 99 Q 816 93 797 97 Z" fill="black" /></g></svg>