<?xml version='1.0' encoding='utf-8'?>
<svg xmlns="http://www.w3.org/2000/svg" version="1.1" viewBox="0 0 1024 1024"><g transform="scale(1, -1) translate(0, -900)"><path d="M 426 347 Q 429 348 436 350 Q 463 357 489 365 Q 504 369 508 362 Q 512 350 517 196 Q 517 72 507 56 Q 503 53 451 60 Q 436 64 437 56 Q 477 25 501 -1 Q 511 -16 523 -19 Q 530 -22 536 -14 Q 566 22 565 64 Q 544 314 565 352 Q 574 367 565 374 Q 549 389 522 399 Q 510 405 461 382 Q 446 378 422 371 C 393 363 397 339 426 347 Z" fill="black" /></g></svg>