<?xml version='1.0' encoding='utf-8'?>
<svg xmlns="http://www.w3.org/2000/svg" version="1.1" viewBox="0 0 1024 1024"><g transform="scale(1, -1) translate(0, -900)"><path d="M 955 49 Q 937 94 926 171 Q 925 186 917 190 Q 910 194 907 176 Q 895 79 882 62 Q 858 35 759 31 Q 704 32 681 40 Q 660 50 655 64 Q 651 80 654 120 Q 658 163 669 184 Q 681 212 664 227 Q 618 261 605 258 C 589 262 591 258 600 229 Q 613 198 610 152 Q 607 59 623 33 Q 639 3 713 -9 Q 762 -16 841 -13 Q 911 -9 940 6 Q 968 21 955 49 Z" fill="black" /></g></svg>