<?xml version='1.0' encoding='utf-8'?>
<svg xmlns="http://www.w3.org/2000/svg" version="1.1" viewBox="0 0 1024 1024"><g transform="scale(1, -1) translate(0, -900)"><path d="M 490 300 Q 478 297 404 252 Q 394 246 393 255 Q 397 331 398 399 L 398 423 Q 398 472 398 515 L 397 548 Q 397 581 402 614 C 404 628 404 628 390 638 Q 371 654 355 661 Q 339 667 330 662 Q 321 656 329 642 Q 380 540 348 267 Q 341 236 316 201 Q 306 188 313 167 Q 323 143 335 134 Q 347 127 357 142 Q 370 169 500 282 C 523 302 517 313 490 300 Z" fill="black" /></g></svg>