<?xml version='1.0' encoding='utf-8'?>
<svg xmlns="http://www.w3.org/2000/svg" version="1.1" viewBox="0 0 1024 1024"><g transform="scale(1, -1) translate(0, -900)"><path d="M 329 425 Q 330 474 332 529 L 334 587 Q 335 681 354 744 Q 363 759 360 772 Q 353 782 298 817 Q 274 835 253 819 Q 249 815 254 798 Q 285 750 286 702 Q 286 641 287 570 L 282 415 Q 273 205 273 199 Q 266 156 254 113 Q 242 73 268 10 Q 274 -8 282 -11 Q 288 -18 296 -9 Q 323 7 324 73 Q 323 112 329 394 L 329 425 Z" fill="black" /></g></svg>