<?xml version='1.0' encoding='utf-8'?>
<svg xmlns="http://www.w3.org/2000/svg" version="1.1" viewBox="0 0 1024 1024"><g transform="scale(1, -1) translate(0, -900)"><path d="M 264 456 Q 264 492 266 529 L 268 581 Q 269 678 289 742 Q 298 757 295 770 Q 288 780 234 813 Q 212 831 191 815 Q 187 811 192 795 Q 225 746 224 698 Q 224 634 224 562 L 219 397 Q 204 174 204 169 Q 198 136 188 101 Q 175 59 201 2 Q 207 -16 215 -19 Q 221 -25 228 -17 Q 235 -13 246 7 Q 256 32 255 62 Q 255 105 263 419 L 264 456 Z" fill="black" /></g></svg>