<?xml version='1.0' encoding='utf-8'?>
<svg xmlns="http://www.w3.org/2000/svg" version="1.1" viewBox="0 0 1024 1024"><g transform="scale(1, -1) translate(0, -900)"><path d="M 272 450 Q 272 487 274 527 L 275 577 Q 275 700 296 769 Q 305 782 302 796 Q 295 805 243 837 Q 221 853 202 839 Q 198 835 203 820 Q 234 771 235 722 Q 236 650 236 569 Q 235 566 235 562 L 230 420 Q 221 231 221 222 Q 214 174 201 125 Q 189 86 214 29 Q 220 13 227 9 Q 233 3 240 10 Q 247 14 257 34 Q 267 58 266 87 Q 265 127 271 425 L 272 450 Z" fill="black" /></g></svg>