<?xml version='1.0' encoding='utf-8'?>
<svg xmlns="http://www.w3.org/2000/svg" version="1.1" viewBox="0 0 1024 1024"><g transform="scale(1, -1) translate(0, -900)"><path d="M 607 351 Q 619 351 636 356 Q 748 381 766 374 Q 776 370 778 345 Q 790 198 782 84 Q 781 60 767 56 Q 757 53 705 65 Q 693 68 694 60 Q 695 53 709 44 Q 742 16 767 -14 Q 780 -29 795 -27 Q 810 -24 828 17 Q 850 59 846 102 Q 839 205 832 299 Q 829 336 844 366 Q 856 381 842 394 Q 826 407 790 420 Q 775 427 729 409 Q 714 405 698 399 L 664 389 Q 625 382 602 375 C 573 367 577 347 607 351 Z" fill="black" /></g></svg>