<?xml version='1.0' encoding='utf-8'?>
<svg xmlns="http://www.w3.org/2000/svg" version="1.1" viewBox="0 0 1024 1024"><g transform="scale(1, -1) translate(0, -900)"><path d="M 625 247 Q 635 240 672 231 Q 697 224 705 209 Q 714 188 666 92 Q 645 56 627 51 Q 614 48 576 65 Q 542 84 538 78 Q 532 71 548 57 Q 584 21 589 -15 Q 593 -31 603 -38 Q 615 -45 648 -27 Q 699 6 737 112 Q 752 160 774 176 Q 786 180 788 188 Q 789 197 770 223 Q 740 259 693 259 Q 690 259 632 279 C 604 289 598 260 625 247 Z" fill="black" /></g></svg>