<?xml version='1.0' encoding='utf-8'?>
<svg xmlns="http://www.w3.org/2000/svg" version="1.1" viewBox="0 0 1024 1024"><g transform="scale(1, -1) translate(0, -900)"><path d="M 377 515 Q 383 533 389 555 L 399 602 Q 402 641 411 656 Q 417 662 412 670 Q 408 676 386 684 C 358 695 334 705 341 679 Q 342 678 343 676 Q 350 631 348 588 L 341 546 Q 340 545 340 542 Q 312 443 201 381 Q 189 375 175 367 Q 156 357 179 356 Q 246 352 324 421 Q 328 428 336 436 Q 354 460 370 497 L 377 515 Z" fill="black" /></g></svg>