<?xml version='1.0' encoding='utf-8'?>
<svg xmlns="http://www.w3.org/2000/svg" version="1.1" viewBox="0 0 1024 1024"><g transform="scale(1, -1) translate(0, -900)"><path d="M 581 644 Q 582 666 583 687 Q 583 712 585 729 C 586 746 586 746 571 756 Q 564 762 551 769 Q 535 778 528 772 Q 524 768 528 755 Q 564 680 531 477 Q 525 456 512 434 Q 503 421 510 405 Q 517 387 525 380 Q 532 374 547 384 Q 625 435 846 435 Q 867 434 868 444 Q 868 457 843 474 Q 830 484 723 467 Q 576 452 576 457 Q 576 499 577 518 L 578 545 Q 579 582 581 620 L 581 644 Z" fill="black" /></g></svg>