<?xml version='1.0' encoding='utf-8'?>
<svg xmlns="http://www.w3.org/2000/svg" version="1.1" viewBox="0 0 1024 1024"><g transform="scale(1, -1) translate(0, -900)"><path d="M 298 496 Q 299 520 300 543 L 301 595 Q 301 599 302 601 Q 303 698 322 764 Q 331 779 328 792 Q 321 802 266 837 Q 242 855 221 839 Q 217 835 222 818 Q 255 769 255 721 Q 255 654 255 578 L 251 418 Q 242 222 239 199 Q 215 79 216 78 Q 216 69 235 18 Q 242 0 250 -3 Q 256 -10 264 -1 Q 291 15 292 81 Q 291 124 298 463 L 298 496 Z" fill="black" /></g></svg>