<?xml version='1.0' encoding='utf-8'?>
<svg xmlns="http://www.w3.org/2000/svg" version="1.1" viewBox="0 0 1024 1024"><g transform="scale(1, -1) translate(0, -900)"><path d="M 305 474 Q 305 505 306 537 L 307 590 Q 308 684 326 746 Q 335 761 331 774 Q 324 784 271 817 Q 247 833 228 818 Q 222 814 229 798 Q 260 752 262 703 Q 262 643 264 575 L 261 430 Q 252 210 252 199 Q 245 156 234 112 Q 224 76 248 14 Q 255 -4 263 -7 Q 269 -14 276 -5 Q 283 -1 293 19 Q 303 44 302 74 Q 301 117 304 448 L 305 474 Z" fill="black" /></g></svg>