<?xml version='1.0' encoding='utf-8'?>
<svg xmlns="http://www.w3.org/2000/svg" version="1.1" viewBox="0 0 1024 1024"><g transform="scale(1, -1) translate(0, -900)"><path d="M 480 301 Q 486 670 490 683 C 491 704 491 704 475 713 Q 463 722 442 732 Q 421 742 413 736 Q 406 729 413 713 Q 456 632 425 191 Q 416 119 396 85 Q 386 69 395 48 Q 402 26 413 18 Q 423 9 441 22 Q 502 62 595 79 Q 701 97 904 92 Q 929 91 930 103 Q 930 119 901 140 Q 883 155 753 133 Q 485 106 484 105 L 483 106 Q 476 107 476 125 Q 477 198 480 278 L 480 301 Z" fill="black" /></g></svg>