<?xml version='1.0' encoding='utf-8'?>
<svg xmlns="http://www.w3.org/2000/svg" version="1.1" viewBox="0 0 1024 1024"><g transform="scale(1, -1) translate(0, -900)"><path d="M 302 392 Q 302 442 306 531 L 308 587 Q 308 662 319 717 L 333 768 Q 337 787 329 798 Q 321 807 273 836 Q 254 850 237 845 Q 223 841 225 827 L 227 817 Q 262 768 262 717 L 262 570 L 261 517 Q 260 515 260 514 L 256 402 Q 252 347 252 257 Q 247 174 223 106 Q 216 78 223 43 Q 231 12 242 -6 Q 253 -25 261 -22 Q 266 -20 270 -15 Q 296 12 296 65 Q 296 86 298 258 L 301 373 L 302 392 Z" fill="black" /></g></svg>