<?xml version='1.0' encoding='utf-8'?>
<svg xmlns="http://www.w3.org/2000/svg" version="1.1" viewBox="0 0 1024 1024"><g transform="scale(1, -1) translate(0, -900)"><path d="M 220 409 Q 245 394 295 406 Q 442 445 695 471 Q 752 477 771 473 Q 787 469 785 459 Q 785 456 747 387 Q 737 372 743 368 Q 752 364 771 374 Q 831 405 878 414 Q 917 420 917 431 Q 916 441 844 502 Q 825 521 797 520 Q 715 508 613 493 Q 508 481 346 457 Q 282 447 219 440 Q 218 440 219 439 C 189 434 191 418 220 409 Z" fill="black" /></g></svg>