<?xml version='1.0' encoding='utf-8'?>
<svg xmlns="http://www.w3.org/2000/svg" version="1.1" viewBox="0 0 1024 1024"><g transform="scale(1, -1) translate(0, -900)"><path d="M 723 450 Q 727 425 745 426 Q 753 428 759 434 Q 778 455 802 578 Q 817 630 853 661 Q 864 671 860 682 Q 860 684 858 687 Q 847 702 786 733 Q 784 734 778 735 Q 763 736 701 723 Q 678 723 575 696 Q 551 690 499 678 C 470 671 492 642 521 651 Q 549 660 602 672 L 626 677 Q 716 700 743 695 Q 746 694 748 694 Q 764 688 759 649 Q 739 510 727 478 L 723 450 Z" fill="black" /></g></svg>