<?xml version='1.0' encoding='utf-8'?>
<svg xmlns="http://www.w3.org/2000/svg" version="1.1" viewBox="0 0 1024 1024"><g transform="scale(1, -1) translate(0, -900)"><path d="M 286 453 Q 287 499 289 548 L 291 605 Q 295 692 313 750 Q 322 765 319 778 Q 312 788 258 821 Q 236 839 215 823 Q 211 819 216 803 Q 249 754 249 705 Q 249 650 249 587 L 244 435 Q 240 348 239 254 Q 233 176 212 105 Q 199 63 225 6 Q 231 -12 239 -15 Q 245 -21 252 -13 Q 259 -9 270 11 Q 280 36 279 66 Q 279 108 285 420 L 286 453 Z" fill="black" /></g></svg>