<?xml version='1.0' encoding='utf-8'?>
<svg xmlns="http://www.w3.org/2000/svg" version="1.1" viewBox="0 0 1024 1024"><g transform="scale(1, -1) translate(0, -900)"><path d="M 534 296 Q 531 109 517 85 Q 514 84 443 91 Q 424 97 425 87 Q 479 45 510 13 Q 523 -5 538 -10 Q 547 -13 555 -4 Q 588 47 590 121 Q 581 298 584 571 Q 583 625 594 649 Q 606 668 594 677 Q 573 693 539 707 Q 521 714 507 707 Q 483 691 467 683 Q 454 679 429 671 C 400 662 380 624 432 639 Q 444 640 500 662 Q 516 669 523 662 Q 535 626 536 391 L 534 296 Z" fill="black" /></g></svg>