<?xml version='1.0' encoding='utf-8'?>
<svg xmlns="http://www.w3.org/2000/svg" version="1.1" viewBox="0 0 1024 1024"><g transform="scale(1, -1) translate(0, -900)"><path d="M 273 455 Q 273 486 275 520 L 276 573 Q 276 666 296 733 Q 305 746 302 760 Q 295 769 243 802 Q 221 818 202 803 Q 198 799 203 784 Q 231 739 232 694 Q 232 630 233 558 L 228 403 Q 219 222 218 216 Q 194 108 198 96 Q 204 72 214 49 Q 220 33 227 29 Q 233 23 240 31 Q 247 35 257 54 Q 267 78 266 107 Q 266 146 272 431 L 273 455 Z" fill="black" /></g></svg>