<?xml version='1.0' encoding='utf-8'?>
<svg xmlns="http://www.w3.org/2000/svg" version="1.1" viewBox="0 0 1024 1024"><g transform="scale(1, -1) translate(0, -900)"><path d="M 723 548 Q 724 547 725 544 Q 731 528 744 529 Q 757 530 765 546 Q 775 559 796 624 Q 812 676 849 705 Q 868 721 852 736 Q 833 754 784 780 Q 769 789 704 772 Q 677 772 583 748 Q 537 738 503 733 C 473 728 498 696 527 702 Q 735 744 748 740 L 750 739 Q 759 733 754 705 Q 735 599 727 578 C 720 554 720 554 723 548 Z" fill="black" /></g></svg>