<?xml version='1.0' encoding='utf-8'?>
<svg xmlns="http://www.w3.org/2000/svg" version="1.1" viewBox="0 0 1024 1024"><g transform="scale(1, -1) translate(0, -900)"><path d="M 734 50 Q 744 25 765 -23 Q 772 -41 783 -40 Q 799 -39 809 -12 Q 834 33 857 186 Q 857 238 889 276 Q 905 295 894 310 Q 873 332 827 353 Q 808 363 775 353 Q 646 308 446 290 C 416 287 441 249 471 253 Q 477 253 483 254 Q 531 264 593 275 L 632 283 Q 687 293 753 305 Q 783 311 795 297 Q 814 261 779 89 Q 778 74 770 72 Q 766 69 740 87 Q 733 91 731 90 C 714 99 723 78 734 50 Z" fill="black" /></g></svg>