<?xml version='1.0' encoding='utf-8'?>
<svg xmlns="http://www.w3.org/2000/svg" version="1.1" viewBox="0 0 1024 1024"><g transform="scale(1, -1) translate(0, -900)"><path d="M 778 88 Q 756 91 731 95 Q 712 101 713 91 Q 765 46 796 12 Q 809 -7 825 -12 Q 834 -16 842 -6 Q 884 42 882 98 Q 855 383 881 432 Q 894 451 882 462 Q 860 481 824 496 Q 806 503 750 476 Q 711 464 654 456 Q 639 455 648 446 Q 657 436 671 430 Q 692 427 780 450 Q 799 454 805 445 Q 809 433 811 415 Q 821 237 814 129 Q 813 101 804 89 Q 798 82 778 88 Z" fill="black" /></g></svg>