<?xml version='1.0' encoding='utf-8'?>
<svg xmlns="http://www.w3.org/2000/svg" version="1.1" viewBox="0 0 1024 1024"><g transform="scale(1, -1) translate(0, -900)"><path d="M 637 748 Q 647 751 686 768 Q 702 775 708 772 Q 715 771 714 757 Q 710 670 715 654 Q 719 636 736 625 Q 760 612 807 613 Q 852 614 875 628 Q 888 632 879 646 Q 866 662 849 670 Q 839 674 819 665 Q 800 655 775 655 Q 760 655 755 666 Q 748 679 757 719 Q 761 743 784 765 Q 799 778 784 791 Q 763 807 740 817 Q 730 821 717 813 Q 669 791 621 778 C 592 770 609 738 637 748 Z" fill="black" /></g></svg>