<?xml version='1.0' encoding='utf-8'?>
<svg xmlns="http://www.w3.org/2000/svg" version="1.1" viewBox="0 0 1024 1024"><g transform="scale(1, -1) translate(0, -900)"><path d="M 317 463 Q 317 491 319 522 L 320 579 Q 320 684 341 754 Q 356 779 326 799 Q 311 811 286 825 Q 264 841 243 827 Q 239 823 244 807 Q 277 758 277 709 Q 277 642 278 564 L 274 422 Q 270 343 269 258 Q 265 180 243 109 Q 231 66 257 10 Q 263 -8 271 -11 Q 277 -18 284 -9 Q 291 -5 302 15 Q 312 40 311 70 Q 310 113 317 432 L 317 463 Z" fill="black" /></g></svg>