<?xml version='1.0' encoding='utf-8'?>
<svg xmlns="http://www.w3.org/2000/svg" version="1.1" viewBox="0 0 1024 1024"><g transform="scale(1, -1) translate(0, -900)"><path d="M 721 471 Q 737 493 752 524 Q 762 548 778 562 Q 794 575 783 586 Q 773 596 747 606 Q 734 612 665 584 Q 638 575 594 566 Q 582 565 579 559 Q 576 553 591 547 Q 622 537 662 551 Q 687 564 691 566 Q 707 565 704 546 Q 695 512 680 485 L 654 453 Q 618 423 560 406 Q 548 402 558 395 Q 583 383 654 414 Q 670 423 686 433 L 721 471 Z" fill="black" /></g></svg>