<?xml version='1.0' encoding='utf-8'?>
<svg xmlns="http://www.w3.org/2000/svg" version="1.1" viewBox="0 0 1024 1024"><g transform="scale(1, -1) translate(0, -900)"><path d="M 453 268 Q 462 269 472 272 Q 602 323 826 338 Q 842 337 850 326 Q 856 319 851 307 Q 850 118 835 91 Q 832 82 821 85 Q 796 89 767 94 Q 740 98 759 80 Q 820 31 845 -6 Q 857 -19 870 -9 Q 886 7 894 35 Q 904 63 906 220 Q 905 278 923 307 Q 936 326 930 333 Q 923 343 878 373 Q 862 386 847 380 Q 822 370 775 362 Q 589 338 521 320 Q 475 310 439 303 C 410 297 424 261 453 268 Z" fill="black" /></g></svg>