<?xml version='1.0' encoding='utf-8'?>
<svg xmlns="http://www.w3.org/2000/svg" version="1.1" viewBox="0 0 1024 1024"><g transform="scale(1, -1) translate(0, -900)"><path d="M 605 726 Q 608 729 702 751 Q 718 757 723 748 Q 732 727 732 586 Q 732 462 720 444 Q 719 444 653 451 Q 635 455 637 448 Q 686 409 714 380 Q 724 364 738 360 Q 745 357 753 365 Q 787 405 786 453 Q 768 702 787 736 Q 797 752 788 762 Q 769 778 739 790 Q 723 797 710 790 Q 665 766 601 753 C 572 747 576 717 605 726 Z" fill="black" /></g></svg>