<?xml version='1.0' encoding='utf-8'?>
<svg xmlns="http://www.w3.org/2000/svg" version="1.1" viewBox="0 0 1024 1024"><g transform="scale(1, -1) translate(0, -900)"><path d="M 286 410 Q 287 461 289 518 L 291 576 Q 291 678 313 750 Q 328 775 298 795 Q 283 807 258 821 Q 236 839 215 823 Q 211 819 216 803 Q 247 755 248 706 Q 248 637 248 558 L 243 399 Q 239 332 238 260 Q 234 184 212 113 Q 199 71 225 14 Q 231 -4 239 -7 Q 245 -13 252 -5 Q 259 -1 270 19 Q 280 44 279 74 Q 279 111 285 378 L 286 410 Z" fill="black" /></g></svg>