<?xml version='1.0' encoding='utf-8'?>
<svg xmlns="http://www.w3.org/2000/svg" version="1.1" viewBox="0 0 1024 1024"><g transform="scale(1, -1) translate(0, -900)"><path d="M 593 334 Q 596 350 600 365 L 606 398 Q 612 432 618 471 L 624 509 Q 624 513 625 517 Q 640 560 623 572 Q 601 585 587 592 C 561 606 544 613 557 586 Q 558 582 563 574 Q 579 535 572 492 L 570 463 Q 566 432 559 389 L 554 358 Q 553 355 553 350 Q 519 167 387 78 Q 354 51 352 48 Q 351 41 360 41 Q 396 38 471 103 Q 555 181 591 324 L 593 334 Z" fill="black" /></g></svg>