<?xml version='1.0' encoding='utf-8'?>
<svg xmlns="http://www.w3.org/2000/svg" version="1.1" viewBox="0 0 1024 1024"><g transform="scale(1, -1) translate(0, -900)"><path d="M 981 97 Q 968 125 948 212 Q 947 225 941 230 Q 935 233 932 217 Q 913 124 898 94 Q 861 58 752 63 Q 710 64 678 78 Q 650 91 643 110 Q 625 152 654 286 Q 660 314 615 335 Q 603 339 595 335 Q 594 335 593 334 C 589 334 589 334 591 324 Q 591 321 593 315 Q 603 278 599 242 Q 589 125 597 93 Q 600 71 622 52 Q 700 -11 874 19 Q 883 22 894 23 Q 936 33 977 59 Q 995 74 981 97 Z" fill="black" /></g></svg>