<?xml version='1.0' encoding='utf-8'?>
<svg xmlns="http://www.w3.org/2000/svg" version="1.1" viewBox="0 0 1024 1024"><g transform="scale(1, -1) translate(0, -900)"><path d="M 834 220 Q 785 214 735 202 Q 731 201 729 201 Q 728 204 731 209 Q 786 290 798 303 Q 807 312 801 321 Q 795 331 756 346 Q 743 350 736 347 Q 726 341 732 326 Q 753 269 665 190 Q 662 189 660 186 Q 650 176 653 168 Q 659 155 679 141 Q 689 134 698 142 Q 726 166 826 197 Q 836 200 843 204 C 870 217 864 224 834 220 Z" fill="black" /></g></svg>