<?xml version='1.0' encoding='utf-8'?>
<svg xmlns="http://www.w3.org/2000/svg" version="1.1" viewBox="0 0 1024 1024"><g transform="scale(1, -1) translate(0, -900)"><path d="M 418 361 Q 418 339 428 321 Q 465 243 455 208 Q 454 207 454 206 C 449 182 452 185 475 204 Q 488 211 493 228 Q 502 264 467 324 Q 446 367 513 436 Q 532 451 516 465 Q 500 480 470 493 Q 455 502 419 479 Q 353 451 345 451 Q 338 452 337 447 Q 336 443 342 439 Q 372 423 427 445 Q 434 448 441 439 Q 454 423 439 402 Q 420 384 418 361 Z" fill="black" /></g></svg>