<?xml version='1.0' encoding='utf-8'?>
<svg xmlns="http://www.w3.org/2000/svg" version="1.1" viewBox="0 0 1024 1024"><g transform="scale(1, -1) translate(0, -900)"><path d="M 785 180 Q 785 110 782 44 Q 781 16 765 11 Q 755 10 698 29 Q 686 33 686 25 Q 686 16 701 6 Q 738 -28 765 -64 Q 780 -82 797 -81 Q 813 -77 834 -29 Q 859 20 854 69 Q 850 127 845 183 L 841 235 Q 832 337 849 374 Q 862 390 847 404 Q 829 420 791 433 Q 769 443 751 432 Q 729 422 687 410 Q 678 409 670 406 L 623 395 Q 559 382 526 376 C 497 370 506 345 536 350 Q 548 351 563 355 Q 593 362 623 368 L 669 377 Q 744 393 763 385 Q 778 376 783 223 L 785 180 Z" fill="black" /></g></svg>