<?xml version='1.0' encoding='utf-8'?>
<svg xmlns="http://www.w3.org/2000/svg" version="1.1" viewBox="0 0 1024 1024"><g transform="scale(1, -1) translate(0, -900)"><path d="M 495 202 Q 507 245 515 277 L 521 308 Q 527 344 533 384 L 537 416 Q 538 431 540 445 Q 543 463 547 474 C 552 491 552 491 534 501 Q 494 525 480 523 Q 462 522 475 501 Q 499 450 472 282 Q 460 227 428 160 Q 404 112 320 35 Q 307 25 304 19 Q 301 13 312 13 Q 327 12 345 24 Q 387 48 413 73 Q 452 110 475 152 Q 475 153 476 154 L 495 202 Z" fill="black" /></g></svg>