<?xml version='1.0' encoding='utf-8'?>
<svg xmlns="http://www.w3.org/2000/svg" version="1.1" viewBox="0 0 1024 1024"><g transform="scale(1, -1) translate(0, -900)"><path d="M 309 435 Q 310 486 313 542 L 314 595 Q 314 686 337 763 Q 352 790 327 807 Q 311 819 282 837 Q 258 855 237 840 Q 233 834 238 819 Q 269 770 270 721 Q 270 654 270 578 L 264 436 Q 252 217 251 212 Q 244 169 231 125 Q 219 83 244 23 Q 250 5 258 1 Q 264 -6 272 3 Q 299 21 301 84 Q 300 124 308 407 L 309 435 Z" fill="black" /></g></svg>