<?xml version='1.0' encoding='utf-8'?>
<svg xmlns="http://www.w3.org/2000/svg" version="1.1" viewBox="0 0 1024 1024"><g transform="scale(1, -1) translate(0, -900)"><path d="M 705 378 Q 705 377 706 376 Q 710 360 724 361 Q 737 362 746 377 Q 761 398 786 495 Q 802 547 839 576 Q 858 592 843 607 Q 825 625 776 651 Q 761 660 689 643 Q 661 643 533 611 L 506 605 Q 481 601 463 598 C 433 593 449 559 478 566 Q 484 566 490 568 Q 515 577 557 586 L 587 592 Q 719 620 742 611 Q 752 604 746 569 Q 719 437 706 408 C 699 388 699 388 705 378 Z" fill="black" /></g></svg>