<?xml version='1.0' encoding='utf-8'?>
<svg xmlns="http://www.w3.org/2000/svg" version="1.1" viewBox="0 0 1024 1024"><g transform="scale(1, -1) translate(0, -900)"><path d="M 680 501 Q 698 477 713 469 Q 723 462 738 483 Q 751 502 777 615 Q 784 645 807 669 Q 819 681 808 695 Q 793 711 752 735 Q 734 744 666 724 Q 632 724 535 692 C 511 684 511 690 511 687 Q 510 687 509 686 C 480 679 488 638 515 652 Q 527 665 684 694 Q 708 698 715 691 Q 725 678 724 665 Q 708 559 698 542 Q 694 529 680 527 C 665 519 665 519 680 501 Z" fill="black" /></g></svg>