<?xml version='1.0' encoding='utf-8'?>
<svg xmlns="http://www.w3.org/2000/svg" version="1.1" viewBox="0 0 1024 1024"><g transform="scale(1, -1) translate(0, -900)"><path d="M 332 442 Q 332 488 334 540 L 335 598 Q 336 682 354 740 Q 364 755 360 768 Q 353 778 298 813 Q 274 831 253 815 Q 249 809 254 794 Q 285 748 286 700 Q 286 643 287 579 L 285 448 Q 278 226 274 199 Q 250 90 253 79 Q 253 64 271 22 Q 278 4 286 1 Q 292 -6 300 3 Q 307 7 318 28 Q 328 53 327 85 Q 326 125 331 412 L 332 442 Z" fill="black" /></g></svg>