<?xml version='1.0' encoding='utf-8'?>
<svg xmlns="http://www.w3.org/2000/svg" version="1.1" viewBox="0 0 1024 1024"><g transform="scale(1, -1) translate(0, -900)"><path d="M 308 445 Q 309 470 310 495 L 311 550 Q 311 667 333 742 Q 348 767 318 787 Q 303 799 278 813 Q 256 829 235 815 Q 231 811 236 795 Q 269 747 269 667 Q 269 601 270 532 L 265 394 Q 256 196 253 171 Q 229 51 230 50 Q 230 35 249 -6 Q 255 -24 263 -27 Q 269 -34 276 -25 Q 283 -21 294 -1 Q 304 24 303 54 Q 302 97 308 427 L 308 445 Z" fill="black" /></g></svg>