<?xml version='1.0' encoding='utf-8'?>
<svg xmlns="http://www.w3.org/2000/svg" version="1.1" viewBox="0 0 1024 1024"><g transform="scale(1, -1) translate(0, -900)"><path d="M 312 503 Q 312 530 314 558 L 316 613 Q 319 697 337 754 Q 346 769 343 782 Q 336 792 282 825 Q 260 843 239 827 Q 235 823 240 807 Q 271 759 272 712 Q 272 658 272 598 L 267 443 Q 255 208 253 200 Q 229 86 231 80 Q 231 65 249 26 Q 255 8 263 5 Q 269 -1 276 7 Q 283 11 294 31 Q 304 56 303 86 Q 303 129 311 473 L 312 503 Z" fill="black" /></g></svg>