<?xml version='1.0' encoding='utf-8'?>
<svg xmlns="http://www.w3.org/2000/svg" version="1.1" viewBox="0 0 1024 1024"><g transform="scale(1, -1) translate(0, -900)"><path d="M 293 427 Q 293 476 295 534 L 296 587 Q 296 681 316 753 Q 325 766 322 780 Q 315 789 263 821 Q 241 837 222 823 Q 218 819 223 803 Q 254 757 255 708 Q 255 644 256 571 L 252 422 Q 243 212 243 206 Q 236 163 224 121 Q 214 85 237 25 Q 244 9 251 5 Q 257 -1 264 6 Q 271 10 281 30 Q 291 54 290 83 Q 289 122 292 403 L 293 427 Z" fill="black" /></g></svg>