<?xml version='1.0' encoding='utf-8'?>
<svg xmlns="http://www.w3.org/2000/svg" version="1.1" viewBox="0 0 1024 1024"><g transform="scale(1, -1) translate(0, -900)"><path d="M 686 329 Q 723 380 761 437 L 792 489 Q 811 523 829 556 Q 860 620 882 649 Q 889 659 881 674 Q 851 723 819 723 Q 803 722 809 703 Q 810 696 815 685 Q 819 663 803 616 Q 776 537 746 485 Q 743 481 741 476 L 711 428 Q 678 379 634 320 Q 633 320 633 319 L 605 284 Q 529 191 434 100 Q 428 96 428 88 Q 428 84 433 83 Q 463 89 561 181 Q 594 215 609 232 L 686 329 Z" fill="black" /></g></svg>