<?xml version='1.0' encoding='utf-8'?>
<svg xmlns="http://www.w3.org/2000/svg" version="1.1" viewBox="0 0 1024 1024"><g transform="scale(1, -1) translate(0, -900)"><path d="M 606 282 Q 717 323 727 312 Q 734 305 718 272 Q 700 236 686 223 Q 677 217 678 204 Q 681 186 694 177 Q 696 176 698 176 Q 705 174 726 186 Q 770 212 811 217 Q 836 221 843 211 Q 851 197 847 165 Q 839 108 811 53 Q 804 33 787 30 Q 766 25 698 47 Q 692 49 688 49 Q 677 51 694 32 Q 733 -8 759 -40 Q 772 -59 794 -50 Q 845 -25 872 55 Q 900 168 919 192 Q 932 207 923 218 Q 870 260 835 248 Q 770 229 755 231 Q 740 231 748 250 Q 776 296 798 310 Q 821 323 813 335 Q 808 345 766 363 Q 751 369 736 361 Q 676 328 491 293 Q 480 293 480 287 Q 482 278 504 267 Q 521 257 538 260 L 574 272 L 606 282 Z" fill="black" /></g></svg>