<?xml version='1.0' encoding='utf-8'?>
<svg xmlns="http://www.w3.org/2000/svg" version="1.1" viewBox="0 0 1024 1024"><g transform="scale(1, -1) translate(0, -900)"><path d="M 471 89 Q 492 122 485 153 Q 479 169 454 197 Q 442 213 447 229 Q 451 242 469 271 Q 487 295 502 308 Q 520 323 505 336 Q 489 349 461 362 Q 443 372 411 345 Q 372 323 364 322 Q 358 322 357 318 Q 356 314 362 311 Q 381 302 403 307 Q 410 308 422 316 Q 426 319 434 313 Q 449 295 431 272 Q 418 256 407 232 Q 403 216 416 194 Q 452 140 442 96 C 437 66 456 63 471 89 Z" fill="black" /></g></svg>