<?xml version='1.0' encoding='utf-8'?>
<svg xmlns="http://www.w3.org/2000/svg" version="1.1" viewBox="0 0 1024 1024"><g transform="scale(1, -1) translate(0, -900)"><path d="M 760 318 Q 773 294 789 286 Q 798 279 813 297 Q 826 319 859 438 Q 866 466 888 489 Q 900 499 890 512 Q 877 528 838 551 Q 820 560 758 539 Q 731 535 707 525 L 662 513 Q 647 510 635 506 Q 592 493 557 484 C 528 476 546 445 574 456 Q 610 471 662 484 L 707 498 Q 791 520 805 512 Q 818 502 813 485 Q 785 359 772 346 C 758 320 758 320 760 318 Z" fill="black" /></g></svg>