<?xml version='1.0' encoding='utf-8'?>
<svg xmlns="http://www.w3.org/2000/svg" version="1.1" viewBox="0 0 1024 1024"><g transform="scale(1, -1) translate(0, -900)"><path d="M 731 596 Q 737 602 800 625 Q 804 628 814 623 Q 823 616 816 598 Q 783 517 764 485 Q 758 475 758 468 Q 758 455 778 442 Q 863 388 872 304 Q 872 280 859 268 Q 852 264 771 278 Q 759 284 759 273 Q 760 266 775 254 Q 832 209 841 187 Q 848 172 862 170 Q 874 169 890 180 Q 927 223 931 281 Q 935 362 834 442 Q 794 473 809 495 Q 831 531 858 560 Q 880 591 906 604 Q 934 620 910 640 Q 873 671 849 681 Q 833 688 794 661 Q 778 652 716 626 C 688 614 704 583 731 596 Z" fill="black" /></g></svg>