<?xml version='1.0' encoding='utf-8'?>
<svg xmlns="http://www.w3.org/2000/svg" version="1.1" viewBox="0 0 1024 1024"><g transform="scale(1, -1) translate(0, -900)"><path d="M 272 465 Q 272 499 274 535 L 275 583 Q 275 677 296 749 Q 305 762 302 776 Q 295 785 243 817 Q 221 833 202 819 Q 198 815 203 800 Q 233 754 233 707 Q 233 643 234 571 L 229 427 Q 226 357 226 281 Q 220 208 201 141 Q 189 102 214 45 Q 220 29 227 25 Q 233 19 240 27 Q 247 31 257 50 Q 267 74 266 103 Q 265 143 271 435 L 272 465 Z" fill="black" /></g></svg>