<?xml version='1.0' encoding='utf-8'?>
<svg xmlns="http://www.w3.org/2000/svg" version="1.1" viewBox="0 0 1024 1024"><g transform="scale(1, -1) translate(0, -900)"><path d="M 309 414 Q 310 477 312 550 L 313 607 Q 317 688 334 744 Q 343 759 340 772 Q 333 782 278 817 Q 254 835 233 819 Q 229 815 234 798 Q 267 749 267 699 Q 267 647 268 589 L 264 442 Q 260 348 260 243 Q 254 165 233 93 Q 223 56 247 -10 Q 254 -28 262 -31 Q 268 -38 276 -29 Q 303 -13 304 53 Q 303 93 308 382 L 309 414 Z" fill="black" /></g></svg>