<?xml version='1.0' encoding='utf-8'?>
<svg xmlns="http://www.w3.org/2000/svg" version="1.1" viewBox="0 0 1024 1024"><g transform="scale(1, -1) translate(0, -900)"><path d="M 569 455 Q 570 462 574 469 Q 583 497 590 526 L 599 566 Q 605 600 610 633 L 616 680 Q 616 683 617 685 Q 621 719 637 756 Q 643 768 634 776 Q 618 792 583 809 Q 562 819 546 815 Q 525 809 540 791 Q 567 760 565 730 Q 564 697 560 666 L 556 622 Q 550 586 544 553 L 535 514 Q 525 478 514 446 L 498 404 Q 471 323 355 214 Q 343 207 341 202 Q 337 195 353 196 Q 386 196 467 277 Q 513 326 554 417 L 569 455 Z" fill="black" /></g></svg>