<?xml version='1.0' encoding='utf-8'?>
<svg xmlns="http://www.w3.org/2000/svg" version="1.1" viewBox="0 0 1024 1024"><g transform="scale(1, -1) translate(0, -900)"><path d="M 785 413 Q 795 453 806 482 L 825 523 Q 835 542 849 552 Q 864 570 851 586 Q 778 638 721 610 L 685 598 L 627 585 Q 625 584 623 584 L 527 571 Q 517 568 517 563 Q 520 555 536 549 Q 557 541 580 547 Q 619 555 629 555 L 680 564 Q 735 576 753 572 Q 770 566 768 541 Q 768 539 762 510 L 757 476 L 738 409 C 730 380 777 384 785 413 Z" fill="black" /></g></svg>