<?xml version='1.0' encoding='utf-8'?>
<svg xmlns="http://www.w3.org/2000/svg" version="1.1" viewBox="0 0 1024 1024"><g transform="scale(1, -1) translate(0, -900)"><path d="M 677 23 Q 690 7 704 -29 Q 713 -45 727 -36 Q 752 -18 767 66 Q 786 193 806 221 Q 818 237 804 250 Q 758 296 714 285 Q 675 284 634 280 Q 625 281 624 272 Q 624 265 636 256 Q 655 244 714 250 Q 723 254 734 248 Q 741 244 740 228 Q 739 200 734 169 L 730 138 Q 724 96 715 52 Q 712 40 691 45 C 661 48 660 48 677 23 Z" fill="black" /></g></svg>