<?xml version='1.0' encoding='utf-8'?>
<svg xmlns="http://www.w3.org/2000/svg" version="1.1" viewBox="0 0 1024 1024"><g transform="scale(1, -1) translate(0, -900)"><path d="M 518 435 Q 528 419 536 401 Q 540 391 549 389 Q 559 390 572 419 Q 588 447 587 477 Q 586 549 582 614 Q 581 639 593 660 Q 602 673 591 683 Q 576 695 546 705 Q 531 711 490 693 Q 475 689 463 684 L 444 678 Q 437 677 431 674 C 402 665 415 644 444 653 Q 507 674 528 666 Q 535 662 536 644 Q 545 487 532 464 C 523 435 515 440 518 435 Z" fill="black" /></g></svg>