<?xml version='1.0' encoding='utf-8'?>
<svg xmlns="http://www.w3.org/2000/svg" version="1.1" viewBox="0 0 1024 1024"><g transform="scale(1, -1) translate(0, -900)"><path d="M 309 399 Q 310 451 312 510 L 314 567 Q 315 661 334 723 Q 343 739 340 752 Q 333 762 278 797 Q 254 815 233 799 Q 229 795 234 778 Q 265 732 266 683 Q 266 622 266 550 L 262 396 Q 253 195 253 186 Q 246 143 233 101 Q 223 62 247 -1 Q 254 -20 262 -23 Q 268 -30 276 -21 Q 303 -5 304 61 Q 303 98 309 377 L 309 399 Z" fill="black" /></g></svg>