<?xml version='1.0' encoding='utf-8'?>
<svg xmlns="http://www.w3.org/2000/svg" version="1.1" viewBox="0 0 1024 1024"><g transform="scale(1, -1) translate(0, -900)"><path d="M 260 406 Q 256 322 256 232 Q 252 153 229 81 Q 219 44 243 -22 Q 250 -40 258 -43 Q 264 -50 272 -41 Q 299 -25 300 41 Q 299 84 305 406 L 305 438 Q 305 474 307 511 L 308 568 Q 308 569 309 570 Q 310 669 330 736 Q 339 751 336 764 Q 329 774 274 809 Q 250 827 229 811 Q 225 807 230 790 Q 263 741 263 691 Q 263 627 264 551 L 260 406 Z" fill="black" /></g></svg>