<?xml version='1.0' encoding='utf-8'?>
<svg xmlns="http://www.w3.org/2000/svg" version="1.1" viewBox="0 0 1024 1024"><g transform="scale(1, -1) translate(0, -900)"><path d="M 638 398 Q 657 405 680 409 Q 750 425 767 420 Q 773 421 779 424 C 808 430 819 464 789 460 Q 639 442 527 405 Q 509 401 514 422 Q 526 515 517 527 Q 504 543 481 555 Q 471 561 462 559 Q 452 555 459 537 Q 478 494 471 449 Q 467 407 448 388 Q 432 372 439 359 Q 449 346 465 336 Q 478 329 486 336 Q 498 354 591 384 L 638 398 Z" fill="black" /></g></svg>