<?xml version='1.0' encoding='utf-8'?>
<svg xmlns="http://www.w3.org/2000/svg" version="1.1" viewBox="0 0 1024 1024"><g transform="scale(1, -1) translate(0, -900)"><path d="M 236 420 Q 232 330 232 233 Q 228 157 206 85 Q 196 48 220 -14 Q 227 -32 235 -35 Q 241 -42 248 -33 Q 275 -17 275 46 Q 274 89 278 414 L 279 439 Q 279 485 281 537 L 282 589 Q 285 673 301 730 Q 310 745 307 758 Q 300 768 246 801 Q 224 817 203 803 Q 199 799 205 783 Q 236 734 238 685 Q 238 631 239 571 L 236 420 Z" fill="black" /></g></svg>