<?xml version='1.0' encoding='utf-8'?>
<svg xmlns="http://www.w3.org/2000/svg" version="1.1" viewBox="0 0 1024 1024"><g transform="scale(1, -1) translate(0, -900)"><path d="M 697 528 Q 697 525 699 522 Q 703 507 715 509 Q 728 510 734 524 Q 738 530 765 606 L 788 650 Q 797 663 809 671 Q 827 686 812 700 Q 796 715 750 738 Q 737 747 671 730 Q 659 730 626 722 L 580 713 Q 558 710 538 704 Q 499 695 469 689 C 440 683 459 652 487 661 Q 520 673 580 684 L 625 692 Q 700 710 721 700 Q 728 696 725 669 Q 721 653 719 637 L 712 603 Q 705 566 700 553 Q 699 553 699 552 C 694 536 694 536 697 528 Z" fill="black" /></g></svg>