<?xml version='1.0' encoding='utf-8'?>
<svg xmlns="http://www.w3.org/2000/svg" version="1.1" viewBox="0 0 1024 1024"><g transform="scale(1, -1) translate(0, -900)"><path d="M 765 606 Q 814 610 872 611 Q 929 611 935 620 Q 939 629 926 640 Q 875 676 823 658 Q 807 655 788 650 L 719 637 Q 650 628 623 621 L 581 615 Q 541 609 498 602 L 459 597 Q 420 593 382 586 Q 364 585 378 571 Q 390 559 404 555 Q 419 552 468 564 L 505 573 Q 541 582 581 587 L 622 592 Q 661 599 712 603 L 765 606 Z" fill="black" /></g></svg>