<?xml version='1.0' encoding='utf-8'?>
<svg xmlns="http://www.w3.org/2000/svg" version="1.1" viewBox="0 0 1024 1024"><g transform="scale(1, -1) translate(0, -900)"><path d="M 277 479 Q 277 516 278 555 L 279 611 Q 280 701 298 762 Q 307 777 303 790 Q 296 800 243 833 Q 219 849 199 834 Q 195 830 201 814 Q 234 765 235 715 Q 235 658 237 594 L 233 425 Q 230 221 220 163 Q 199 67 203 54 Q 210 30 220 5 Q 227 -11 235 -15 Q 241 -22 248 -13 Q 255 -9 265 11 Q 275 36 274 66 Q 273 109 276 451 L 277 479 Z" fill="black" /></g></svg>