<?xml version='1.0' encoding='utf-8'?>
<svg xmlns="http://www.w3.org/2000/svg" version="1.1" viewBox="0 0 1024 1024"><g transform="scale(1, -1) translate(0, -900)"><path d="M 827 619 Q 833 703 857 735 Q 869 747 863 756 Q 854 766 807 787 Q 795 793 759 778 Q 672 748 586 739 Q 570 738 567 730 Q 566 723 588 712 Q 610 699 628 705 Q 632 706 638 707 L 669 716 Q 721 732 764 737 Q 777 738 779 735 Q 789 719 781 678 Q 765 563 735 513 Q 719 486 696 491 Q 680 495 666 500 Q 644 509 658 486 Q 688 449 701 420 Q 720 398 739 416 Q 799 461 823 596 L 827 619 Z" fill="black" /></g></svg>