<?xml version='1.0' encoding='utf-8'?>
<svg xmlns="http://www.w3.org/2000/svg" version="1.1" viewBox="0 0 1024 1024"><g transform="scale(1, -1) translate(0, -900)"><path d="M 591 225 Q 591 226 592 226 Q 602 248 614 262 Q 623 269 621 278 Q 617 291 583 319 C 560 339 548 344 554 315 Q 566 288 537 218 L 520 183 Q 489 132 491 119 Q 492 109 509 106 Q 545 97 583 79 L 627 56 Q 684 25 766 -37 Q 791 -56 808 -55 Q 827 -54 827 -35 Q 827 -16 798 26 Q 780 56 663 92 L 613 109 Q 577 121 551 126 Q 533 130 543 147 Q 558 172 569 190 L 591 225 Z" fill="black" /></g></svg>