<?xml version='1.0' encoding='utf-8'?>
<svg xmlns="http://www.w3.org/2000/svg" version="1.1" viewBox="0 0 1024 1024"><g transform="scale(1, -1) translate(0, -900)"><path d="M 293 404 Q 293 446 295 489 L 296 543 Q 296 660 318 736 Q 333 761 307 779 Q 291 791 262 809 Q 238 827 217 811 Q 213 807 218 790 Q 251 742 251 661 Q 251 595 252 526 L 246 389 Q 243 188 230 130 Q 208 40 224 -3 Q 227 -12 231 -22 Q 238 -40 246 -43 Q 252 -50 260 -41 Q 287 -25 288 41 Q 287 81 292 379 L 293 404 Z" fill="black" /></g></svg>