<?xml version='1.0' encoding='utf-8'?>
<svg xmlns="http://www.w3.org/2000/svg" version="1.1" viewBox="0 0 1024 1024"><g transform="scale(1, -1) translate(0, -900)"><path d="M 502 133 Q 551 167 652 188 Q 682 197 700 193 Q 719 187 721 157 Q 711 108 681 72 Q 665 53 651 49 Q 633 49 579 74 Q 566 84 563 78 Q 562 72 570 59 Q 595 16 610 -20 Q 617 -33 628 -35 Q 643 -39 663 -30 Q 724 9 768 130 Q 771 157 783 173 Q 793 183 785 195 Q 770 210 736 226 Q 718 235 697 228 Q 669 219 647 216 Q 610 209 562 200 Q 546 197 553 212 Q 572 240 580 247 Q 593 260 583 274 Q 576 281 566 286 C 542 304 516 308 519 278 L 520 277 Q 529 256 500 209 Q 493 200 475 190 Q 459 174 462 160 Q 463 147 478 133 Q 490 123 502 133 Z" fill="black" /></g></svg>