<?xml version='1.0' encoding='utf-8'?>
<svg xmlns="http://www.w3.org/2000/svg" version="1.1" viewBox="0 0 1024 1024"><g transform="scale(1, -1) translate(0, -900)"><path d="M 632 676 Q 785 706 815 701 Q 822 691 818 687 Q 819 686 816 675 Q 809 656 802 634 Q 795 621 801 617 Q 808 613 824 624 Q 872 651 910 657 Q 941 664 941 671 Q 940 681 874 726 Q 850 742 770 724 Q 731 720 633 700 L 584 692 Q 524 683 449 668 C 420 662 418 648 447 641 Q 465 634 482 639 Q 530 655 585 667 L 632 676 Z" fill="black" /></g></svg>