<?xml version='1.0' encoding='utf-8'?>
<svg xmlns="http://www.w3.org/2000/svg" version="1.1" viewBox="0 0 1024 1024"><g transform="scale(1, -1) translate(0, -900)"><path d="M 467 691 Q 457 701 426 716 Q 405 726 397 719 Q 390 712 397 697 Q 416 661 418 597 Q 428 368 411 154 Q 408 114 385 76 Q 375 60 384 40 Q 393 18 403 9 Q 413 2 431 14 Q 548 98 901 100 Q 926 100 927 112 Q 926 127 896 147 Q 880 160 783 141 Q 468 99 465 102 Q 462 108 463 117 Q 469 321 469 577 Q 469 631 475 666 C 477 684 477 684 467 691 Z" fill="black" /></g></svg>