<?xml version='1.0' encoding='utf-8'?>
<svg xmlns="http://www.w3.org/2000/svg" version="1.1" viewBox="0 0 1024 1024"><g transform="scale(1, -1) translate(0, -900)"><path d="M 698 315 Q 714 290 729 282 Q 739 275 752 294 Q 762 310 785 400 Q 792 428 813 449 Q 825 459 815 473 Q 802 488 764 510 Q 746 519 690 503 Q 681 503 673 500 Q 576 485 501 466 C 472 459 481 428 510 436 Q 510 437 514 437 Q 580 456 696 473 Q 721 477 730 468 Q 740 458 738 447 Q 726 366 713 341 C 702 313 695 319 698 315 Z" fill="black" /></g></svg>