<?xml version='1.0' encoding='utf-8'?>
<svg xmlns="http://www.w3.org/2000/svg" version="1.1" viewBox="0 0 1024 1024"><g transform="scale(1, -1) translate(0, -900)"><path d="M 302 446 Q 303 492 305 545 L 307 601 Q 310 692 329 754 Q 338 769 335 782 Q 328 792 274 825 Q 252 843 231 827 Q 227 823 232 807 Q 265 758 265 709 Q 265 652 265 588 L 260 441 Q 256 353 255 258 Q 249 180 228 109 Q 215 67 241 10 Q 247 -8 255 -11 Q 261 -17 268 -9 Q 275 -5 286 15 Q 296 40 295 70 Q 295 112 301 416 L 302 446 Z" fill="black" /></g></svg>