<?xml version='1.0' encoding='utf-8'?>
<svg xmlns="http://www.w3.org/2000/svg" version="1.1" viewBox="0 0 1024 1024"><g transform="scale(1, -1) translate(0, -900)"><path d="M 738 491 Q 750 464 764 454 Q 773 444 791 462 Q 804 477 844 560 Q 854 590 881 612 Q 894 622 885 638 Q 872 656 831 686 Q 812 696 797 693 Q 763 683 715 673 L 665 664 Q 626 657 583 647 L 539 638 Q 490 629 449 620 C 420 614 434 575 463 583 Q 499 593 544 606 L 584 615 Q 618 624 662 632 L 708 641 Q 772 659 798 643 Q 805 634 801 621 Q 768 525 751 517 C 734 498 734 498 738 491 Z" fill="black" /></g></svg>