<?xml version='1.0' encoding='utf-8'?>
<svg xmlns="http://www.w3.org/2000/svg" version="1.1" viewBox="0 0 1024 1024"><g transform="scale(1, -1) translate(0, -900)"><path d="M 304 479 Q 304 522 306 567 L 308 622 Q 309 718 329 782 Q 338 797 335 810 Q 328 820 274 853 Q 252 869 231 855 Q 227 851 233 835 Q 266 786 266 736 Q 266 675 266 607 L 262 460 Q 258 373 258 279 Q 252 201 231 129 Q 219 93 244 30 Q 251 12 258 9 Q 265 2 272 11 Q 279 15 290 35 Q 300 60 299 90 Q 298 133 303 453 L 304 479 Z" fill="black" /></g></svg>