<?xml version='1.0' encoding='utf-8'?>
<svg xmlns="http://www.w3.org/2000/svg" version="1.1" viewBox="0 0 1024 1024"><g transform="scale(1, -1) translate(0, -900)"><path d="M 253 385 Q 249 172 228 94 Q 215 81 220 41 Q 220 26 239 -18 Q 246 -36 254 -39 Q 261 -46 268 -37 Q 275 -33 286 -12 Q 296 13 295 45 Q 294 85 299 386 L 299 418 Q 299 460 301 504 L 302 561 Q 302 658 322 732 Q 338 756 311 776 Q 295 788 266 805 Q 242 823 221 807 Q 217 801 222 786 Q 255 737 256 688 Q 256 621 257 542 L 253 385 Z" fill="black" /></g></svg>