<?xml version='1.0' encoding='utf-8'?>
<svg xmlns="http://www.w3.org/2000/svg" version="1.1" viewBox="0 0 1024 1024"><g transform="scale(1, -1) translate(0, -900)"><path d="M 296 418 Q 297 470 299 528 L 301 585 Q 302 682 322 748 Q 331 763 328 776 Q 321 786 266 821 Q 242 839 221 823 Q 217 819 222 802 Q 255 753 255 703 Q 255 640 256 568 L 252 416 Q 248 334 248 244 Q 244 165 221 93 Q 211 56 235 -10 Q 242 -28 250 -31 Q 256 -38 264 -29 Q 291 -13 292 53 Q 291 93 296 386 L 296 418 Z" fill="black" /></g></svg>