<?xml version='1.0' encoding='utf-8'?>
<svg xmlns="http://www.w3.org/2000/svg" version="1.1" viewBox="0 0 1024 1024"><g transform="scale(1, -1) translate(0, -900)"><path d="M 731 205 Q 731 201 734 194 Q 740 179 752 181 Q 765 182 771 197 Q 784 213 803 295 Q 816 344 851 375 Q 869 391 853 405 Q 835 421 787 445 Q 775 452 709 438 Q 648 429 640 426 L 591 418 Q 570 415 553 410 Q 504 400 469 394 C 439 389 463 354 492 363 Q 528 375 592 386 L 639 394 Q 738 412 755 402 Q 765 398 761 366 Q 745 266 736 235 L 731 205 Z" fill="black" /></g></svg>