<?xml version='1.0' encoding='utf-8'?>
<svg xmlns="http://www.w3.org/2000/svg" version="1.1" viewBox="0 0 1024 1024"><g transform="scale(1, -1) translate(0, -900)"><path d="M 308 508 Q 308 535 310 563 L 312 616 Q 315 704 334 763 Q 343 779 340 792 Q 333 802 278 837 Q 254 855 233 839 Q 229 835 234 819 Q 267 770 267 720 Q 267 665 267 601 L 262 441 Q 258 357 257 266 Q 251 188 230 117 Q 218 78 243 15 Q 250 -4 258 -7 Q 264 -14 272 -5 Q 279 -1 290 20 Q 300 45 300 76 Q 299 121 307 478 L 308 508 Z" fill="black" /></g></svg>