<?xml version='1.0' encoding='utf-8'?>
<svg xmlns="http://www.w3.org/2000/svg" version="1.1" viewBox="0 0 1024 1024"><g transform="scale(1, -1) translate(0, -900)"><path d="M 321 490 Q 322 514 323 538 L 325 594 Q 326 685 345 746 Q 354 761 351 774 Q 344 784 290 817 Q 268 833 247 819 Q 243 815 248 799 Q 281 751 281 702 Q 281 644 281 578 L 277 421 Q 270 211 265 186 Q 241 68 242 66 Q 242 51 261 10 Q 267 -8 275 -11 Q 281 -17 288 -9 Q 295 -5 306 15 Q 316 40 315 70 Q 314 115 321 459 L 321 490 Z" fill="black" /></g></svg>