<?xml version='1.0' encoding='utf-8'?>
<svg xmlns="http://www.w3.org/2000/svg" version="1.1" viewBox="0 0 1024 1024"><g transform="scale(1, -1) translate(0, -900)"><path d="M 300 473 Q 300 504 302 537 L 304 587 Q 305 680 325 742 Q 334 757 331 770 Q 324 780 270 813 Q 248 831 227 815 Q 223 811 228 795 Q 259 747 260 700 Q 260 640 260 573 L 255 431 Q 243 196 241 188 Q 217 74 219 68 Q 219 53 237 14 Q 243 -4 251 -7 Q 257 -13 264 -5 Q 271 -1 282 19 Q 292 44 291 74 Q 291 117 299 441 L 300 473 Z" fill="black" /></g></svg>