<?xml version='1.0' encoding='utf-8'?>
<svg xmlns="http://www.w3.org/2000/svg" version="1.1" viewBox="0 0 1024 1024"><g transform="scale(1, -1) translate(0, -900)"><path d="M 591 302 Q 597 315 605 325 Q 615 332 612 342 Q 606 355 569 383 Q 559 392 548 388 Q 535 385 542 369 Q 551 348 534 295 L 522 261 Q 509 230 496 209 Q 486 191 488 179 Q 491 169 507 165 Q 544 152 584 129 L 626 103 Q 684 63 773 -18 Q 797 -40 814 -40 Q 835 -41 837 -22 Q 838 -1 812 46 Q 802 68 773 82 Q 706 116 653 141 L 611 159 Q 578 174 553 182 Q 531 188 543 210 Q 562 246 573 267 L 591 302 Z" fill="black" /></g></svg>