<?xml version='1.0' encoding='utf-8'?>
<svg xmlns="http://www.w3.org/2000/svg" version="1.1" viewBox="0 0 1024 1024"><g transform="scale(1, -1) translate(0, -900)"><path d="M 722 56 Q 732 31 757 -20 Q 764 -36 775 -36 Q 790 -33 799 -9 Q 826 46 842 221 Q 846 269 869 298 Q 885 317 873 330 Q 851 352 806 371 Q 790 380 690 348 Q 573 321 439 309 C 409 306 441 269 471 273 Q 477 273 483 274 Q 582 293 738 319 Q 765 325 777 312 Q 784 299 785 286 Q 786 186 767 89 Q 766 73 759 70 Q 758 69 754 70 C 736 46 714 74 722 56 Z" fill="black" /></g></svg>