<?xml version='1.0' encoding='utf-8'?>
<svg xmlns="http://www.w3.org/2000/svg" version="1.1" viewBox="0 0 1024 1024"><g transform="scale(1, -1) translate(0, -900)"><path d="M 297 407 Q 298 450 299 498 L 300 555 Q 300 558 301 560 Q 302 654 320 717 Q 329 730 326 744 Q 319 753 267 785 Q 245 801 226 787 Q 222 783 227 767 Q 258 721 259 674 Q 259 610 259 538 L 255 400 Q 252 207 242 152 Q 221 61 225 48 Q 231 24 241 1 Q 248 -15 255 -19 Q 261 -25 268 -18 Q 275 -14 285 6 Q 295 30 294 59 Q 293 99 297 381 L 297 407 Z" fill="black" /></g></svg>