<?xml version='1.0' encoding='utf-8'?>
<svg xmlns="http://www.w3.org/2000/svg" version="1.1" viewBox="0 0 1024 1024"><g transform="scale(1, -1) translate(0, -900)"><path d="M 771 280 Q 772 279 774 275 Q 802 226 843 189 Q 888 147 911 147 Q 927 148 923 172 Q 922 206 928 306 Q 929 325 923 326 Q 919 326 911 310 Q 898 285 887 265 Q 877 243 868 244 Q 859 244 842 259 Q 817 286 797 320 L 778 359 Q 754 414 742 488 Q 741 492 740 494 L 734 533 Q 716 636 729 703 Q 739 734 696 753 Q 668 766 653 760 Q 637 756 644 740 Q 680 706 679 680 Q 686 589 698 519 L 705 483 Q 714 408 754 315 L 771 280 Z" fill="black" /></g></svg>