<?xml version='1.0' encoding='utf-8'?>
<svg xmlns="http://www.w3.org/2000/svg" version="1.1" viewBox="0 0 1024 1024"><g transform="scale(1, -1) translate(0, -900)"><path d="M 585 180 Q 585 -48 595 -67 Q 595 -70 598 -73 Q 604 -80 611 -78 Q 627 -68 631 -13 Q 640 75 636 188 L 636 221 Q 636 255 637 302 L 637 337 Q 637 386 639 446 L 641 475 Q 647 520 651 533 Q 654 549 640 559 Q 630 566 622 570 C 596 586 555 584 568 557 Q 589 521 590 465 L 590 438 Q 589 389 589 328 L 588 294 Q 587 257 586 214 L 585 180 Z" fill="black" /></g></svg>