<?xml version='1.0' encoding='utf-8'?>
<svg xmlns="http://www.w3.org/2000/svg" version="1.1" viewBox="0 0 1024 1024"><g transform="scale(1, -1) translate(0, -900)"><path d="M 246 405 Q 243 225 234 180 Q 228 147 218 113 Q 208 76 232 14 Q 239 -4 247 -7 Q 253 -14 260 -5 Q 287 11 287 74 Q 286 114 289 396 L 290 418 Q 290 466 292 519 L 293 570 Q 293 682 313 754 Q 328 779 298 799 Q 283 811 258 825 Q 236 841 215 827 Q 211 823 217 807 Q 248 758 250 710 Q 251 638 252 557 Q 251 556 251 554 L 246 405 Z" fill="black" /></g></svg>