<?xml version='1.0' encoding='utf-8'?>
<svg xmlns="http://www.w3.org/2000/svg" version="1.1" viewBox="0 0 1024 1024"><g transform="scale(1, -1) translate(0, -900)"><path d="M 284 413 Q 284 470 286 535 L 286 588 Q 286 702 306 770 Q 321 795 286 818 Q 271 828 250 841 Q 228 857 207 842 Q 203 838 209 822 Q 242 773 243 724 Q 243 654 244 572 L 241 433 Q 238 232 228 175 Q 209 79 209 74 Q 209 67 228 18 Q 235 0 243 -3 Q 249 -10 256 -1 Q 263 3 273 23 Q 283 48 282 78 Q 281 117 284 384 L 284 413 Z" fill="black" /></g></svg>