<?xml version='1.0' encoding='utf-8'?>
<svg xmlns="http://www.w3.org/2000/svg" version="1.1" viewBox="0 0 1024 1024"><g transform="scale(1, -1) translate(0, -900)"><path d="M 804 469 Q 805 322 806 84 Q 806 59 793 49 Q 786 45 726 57 Q 692 72 695 60 Q 696 53 716 37 Q 776 -17 790 -46 Q 806 -80 823 -82 Q 838 -83 853 -46 Q 872 0 871 78 Q 855 279 855 479 L 855 522 Q 855 676 873 739 Q 889 770 832 793 Q 796 812 777 805 Q 758 798 775 774 Q 797 746 800 711 Q 803 690 804 507 L 804 469 Z" fill="black" /></g></svg>