<?xml version='1.0' encoding='utf-8'?>
<svg xmlns="http://www.w3.org/2000/svg" version="1.1" viewBox="0 0 1024 1024"><g transform="scale(1, -1) translate(0, -900)"><path d="M 268 437 Q 268 477 270 522 L 271 578 Q 271 683 292 753 Q 301 766 298 780 Q 291 789 239 821 Q 217 837 198 823 Q 194 819 199 804 Q 230 755 231 706 Q 231 639 231 563 L 226 396 Q 223 216 204 138 Q 182 75 210 13 Q 216 -3 223 -7 Q 229 -13 236 -6 Q 243 -2 253 18 Q 263 42 262 71 Q 261 111 267 411 L 268 437 Z" fill="black" /></g></svg>