<?xml version='1.0' encoding='utf-8'?>
<svg xmlns="http://www.w3.org/2000/svg" version="1.1" viewBox="0 0 1024 1024"><g transform="scale(1, -1) translate(0, -900)"><path d="M 753 354 Q 754 348 759 341 Q 771 317 778 319 Q 790 320 802 346 Q 815 367 813 384 Q 794 532 821 578 Q 831 593 823 601 Q 798 623 753 641 Q 738 645 668 617 L 636 607 Q 582 595 581 593 L 545 587 Q 544 587 544 586 Q 498 582 460 580 C 430 578 446 547 476 551 Q 482 551 488 552 Q 515 559 542 564 L 577 572 Q 608 581 635 584 L 664 590 Q 725 603 744 591 Q 754 566 756 512 L 757 498 Q 757 413 754 384 L 753 354 Z" fill="black" /></g></svg>