<?xml version='1.0' encoding='utf-8'?>
<svg xmlns="http://www.w3.org/2000/svg" version="1.1" viewBox="0 0 1024 1024"><g transform="scale(1, -1) translate(0, -900)"><path d="M 274 439 Q 275 490 278 546 L 280 601 Q 284 676 300 728 Q 307 743 306 755 Q 299 765 247 798 Q 225 814 206 800 Q 200 796 207 780 Q 238 732 238 685 Q 238 637 238 584 L 233 424 Q 229 339 228 246 Q 222 170 201 101 Q 191 65 214 5 Q 220 -11 227 -15 Q 233 -21 240 -13 Q 267 3 267 63 Q 266 103 274 411 L 274 439 Z" fill="black" /></g></svg>