<?xml version='1.0' encoding='utf-8'?>
<svg xmlns="http://www.w3.org/2000/svg" version="1.1" viewBox="0 0 1024 1024"><g transform="scale(1, -1) translate(0, -900)"><path d="M 284 434 Q 284 474 286 519 L 287 576 Q 287 687 308 757 Q 317 770 314 784 Q 307 793 255 825 Q 233 841 214 827 Q 210 823 215 808 Q 246 759 247 710 Q 247 641 247 562 L 244 441 Q 240 356 239 261 Q 233 185 213 113 Q 201 74 226 17 Q 232 1 239 -3 Q 245 -9 252 -2 Q 259 2 269 22 Q 279 46 278 75 Q 277 115 283 400 L 284 434 Z" fill="black" /></g></svg>