<?xml version='1.0' encoding='utf-8'?>
<svg xmlns="http://www.w3.org/2000/svg" version="1.1" viewBox="0 0 1024 1024"><g transform="scale(1, -1) translate(0, -900)"><path d="M 565 251 Q 565 270 605 271 Q 605 272 608 271 C 638 272 642 303 612 299 Q 590 296 572 291 L 533 282 Q 532 282 532 281 Q 507 275 486 267 Q 477 266 480 276 Q 492 333 488 342 Q 478 354 463 365 Q 456 369 449 368 Q 442 367 446 353 Q 456 322 449 294 Q 443 266 431 255 Q 418 243 423 234 Q 430 224 442 217 Q 451 211 458 217 Q 473 235 528 250 C 557 258 562 241 565 251 Z" fill="black" /></g></svg>