<?xml version='1.0' encoding='utf-8'?>
<svg xmlns="http://www.w3.org/2000/svg" version="1.1" viewBox="0 0 1024 1024"><g transform="scale(1, -1) translate(0, -900)"><path d="M 299 478 Q 300 517 302 558 L 304 612 Q 308 688 324 740 Q 331 755 330 767 Q 323 777 271 810 Q 249 826 230 812 Q 224 808 231 792 Q 262 744 262 696 Q 262 650 262 597 L 258 458 Q 246 212 246 205 Q 239 157 225 109 Q 215 73 238 13 Q 244 -3 251 -7 Q 257 -13 264 -5 Q 291 11 291 71 Q 290 114 299 453 L 299 478 Z" fill="black" /></g></svg>