<?xml version='1.0' encoding='utf-8'?>
<svg xmlns="http://www.w3.org/2000/svg" version="1.1" viewBox="0 0 1024 1024"><g transform="scale(1, -1) translate(0, -900)"><path d="M 282 361 Q 283 431 286 514 L 287 567 Q 287 666 308 737 Q 317 750 314 764 Q 307 773 255 805 Q 233 821 214 807 Q 210 803 215 788 Q 248 739 248 689 Q 248 626 248 553 L 243 403 Q 236 187 231 163 Q 224 124 213 85 Q 201 46 226 -11 Q 232 -27 239 -31 Q 245 -37 252 -30 Q 259 -26 269 -6 Q 279 18 278 47 Q 277 84 282 332 L 282 361 Z" fill="black" /></g></svg>