<?xml version='1.0' encoding='utf-8'?>
<svg xmlns="http://www.w3.org/2000/svg" version="1.1" viewBox="0 0 1024 1024"><g transform="scale(1, -1) translate(0, -900)"><path d="M 456 324 Q 522 346 724 378 Q 746 382 758 370 Q 767 366 769 330 Q 779 207 774 67 Q 774 48 766 41 Q 753 31 685 46 Q 669 49 670 39 Q 671 32 684 26 Q 745 -19 776 -52 Q 797 -71 810 -69 Q 822 -66 833 -38 Q 849 8 847 73 Q 834 230 832 287 Q 833 326 844 350 Q 856 371 846 383 Q 836 398 788 421 Q 769 431 750 426 Q 714 414 648 398 L 621 392 Q 617 392 613 391 Q 529 375 441 364 C 411 360 427 316 456 324 Z" fill="black" /></g></svg>