<?xml version='1.0' encoding='utf-8'?>
<svg xmlns="http://www.w3.org/2000/svg" version="1.1" viewBox="0 0 1024 1024"><g transform="scale(1, -1) translate(0, -900)"><path d="M 602 567 Q 638 600 668 628 L 712 673 Q 715 685 765 729 Q 774 738 770 752 Q 761 779 748 792 Q 739 805 725 807 Q 712 810 712 792 Q 712 741 644 663 Q 643 662 640 659 L 602 619 Q 559 580 538 562 L 513 542 Q 459 500 398 461 Q 392 460 390 454 C 384 449 384 449 389 449 Q 389 448 394 447 Q 416 444 503 494 Q 506 497 519 504 L 602 567 Z" fill="black" /></g></svg>