<?xml version='1.0' encoding='utf-8'?>
<svg xmlns="http://www.w3.org/2000/svg" version="1.1" viewBox="0 0 1024 1024"><g transform="scale(1, -1) translate(0, -900)"><path d="M 646 322 Q 647 322 772 356 Q 787 360 795 354 Q 802 348 802 327 Q 812 164 807 65 Q 806 38 797 27 Q 793 21 773 26 Q 751 30 726 35 Q 707 41 709 31 Q 761 -14 789 -46 Q 802 -64 817 -69 Q 826 -72 833 -63 Q 872 -18 871 35 Q 844 302 867 341 Q 877 360 867 369 Q 846 387 812 400 Q 794 407 781 401 Q 720 365 634 351 C 604 346 617 314 646 322 Z" fill="black" /></g></svg>