<?xml version='1.0' encoding='utf-8'?>
<svg xmlns="http://www.w3.org/2000/svg" version="1.1" viewBox="0 0 1024 1024"><g transform="scale(1, -1) translate(0, -900)"><path d="M 644 557 Q 660 600 679 649 L 693 690 Q 709 748 729 777 Q 735 789 728 800 Q 721 810 691 826 Q 663 836 646 833 Q 630 827 641 809 Q 663 778 656 746 Q 649 715 641 681 L 631 642 Q 583 492 492 321 Q 485 311 484 304 Q 483 294 496 298 Q 523 310 587 434 L 591 442 Q 597 455 604 469 Q 620 502 637 540 L 644 557 Z" fill="black" /></g></svg>