<?xml version='1.0' encoding='utf-8'?>
<svg xmlns="http://www.w3.org/2000/svg" version="1.1" viewBox="0 0 1024 1024"><g transform="scale(1, -1) translate(0, -900)"><path d="M 406 454 Q 446 433 483 407 Q 490 397 501 404 Q 513 410 520 426 Q 527 441 521 471 Q 514 504 495 532 Q 482 559 491 573 Q 521 622 537 635 Q 553 645 544 657 Q 534 670 501 685 Q 485 692 474 682 Q 444 658 398 646 C 369 638 383 614 412 621 Q 411 622 413 622 Q 435 625 458 635 Q 467 639 472 634 Q 476 631 473 619 Q 452 550 465 528 Q 486 480 477 470 Q 470 461 449 464 Q 428 468 407 469 C 377 471 380 468 406 454 Z" fill="black" /></g></svg>