<?xml version='1.0' encoding='utf-8'?>
<svg xmlns="http://www.w3.org/2000/svg" version="1.1" viewBox="0 0 1024 1024"><g transform="scale(1, -1) translate(0, -900)"><path d="M 299 458 Q 299 488 301 518 L 303 570 Q 306 661 324 722 Q 333 737 330 750 Q 324 759 270 794 Q 248 810 227 796 Q 223 792 228 776 Q 259 730 258 683 Q 258 622 258 553 L 252 422 Q 240 196 238 187 Q 214 73 215 71 Q 215 59 233 14 Q 239 -2 247 -7 Q 253 -13 260 -5 Q 287 11 288 74 Q 288 114 297 426 L 299 458 Z" fill="black" /></g></svg>