<?xml version='1.0' encoding='utf-8'?>
<svg xmlns="http://www.w3.org/2000/svg" version="1.1" viewBox="0 0 1024 1024"><g transform="scale(1, -1) translate(0, -900)"><path d="M 272 388 Q 273 446 275 514 L 276 566 Q 276 672 297 742 Q 312 767 282 787 Q 267 799 242 813 Q 220 829 199 815 Q 195 811 200 795 Q 233 746 233 698 Q 233 629 233 551 L 229 409 Q 222 211 219 188 Q 212 143 199 101 Q 187 58 213 2 Q 219 -16 227 -19 Q 233 -26 240 -17 Q 247 -13 258 7 Q 268 32 267 62 Q 266 101 271 364 L 272 388 Z" fill="black" /></g></svg>