<?xml version='1.0' encoding='utf-8'?>
<svg xmlns="http://www.w3.org/2000/svg" version="1.1" viewBox="0 0 1024 1024"><g transform="scale(1, -1) translate(0, -900)"><path d="M 286 434 Q 287 471 289 512 L 291 563 Q 292 654 312 716 Q 319 731 318 743 Q 311 753 259 786 Q 237 802 218 788 Q 212 784 219 768 Q 250 720 250 673 Q 250 615 250 548 L 245 416 Q 241 328 240 234 Q 234 158 213 89 Q 203 53 226 -7 Q 232 -23 239 -27 Q 245 -33 252 -25 Q 279 -9 279 51 Q 278 93 286 403 L 286 434 Z" fill="black" /></g></svg>