<?xml version='1.0' encoding='utf-8'?>
<svg xmlns="http://www.w3.org/2000/svg" version="1.1" viewBox="0 0 1024 1024"><g transform="scale(1, -1) translate(0, -900)"><path d="M 734 420 L 735 418 Q 739 405 751 405 Q 764 406 771 419 Q 781 432 803 501 Q 819 549 852 575 Q 868 590 854 604 Q 838 620 793 644 Q 781 653 724 638 Q 678 634 632 622 L 601 616 Q 585 615 475 590 C 446 583 459 547 487 558 Q 511 570 596 584 L 632 590 Q 734 617 764 604 Q 773 598 768 571 Q 747 469 736 447 C 729 427 729 427 734 420 Z" fill="black" /></g></svg>