<?xml version='1.0' encoding='utf-8'?>
<svg xmlns="http://www.w3.org/2000/svg" version="1.1" viewBox="0 0 1024 1024"><g transform="scale(1, -1) translate(0, -900)"><path d="M 309 453 Q 309 484 311 516 L 312 568 Q 312 571 313 573 Q 314 667 334 731 Q 343 747 340 760 Q 333 770 278 805 Q 254 823 233 807 Q 227 803 234 787 Q 265 739 266 691 Q 266 627 266 553 L 260 410 Q 253 215 250 191 Q 243 148 230 105 Q 217 63 244 3 Q 250 -16 258 -19 Q 264 -26 272 -17 Q 279 -13 290 8 Q 300 33 300 65 Q 300 107 308 420 L 309 453 Z" fill="black" /></g></svg>