<?xml version='1.0' encoding='utf-8'?>
<svg xmlns="http://www.w3.org/2000/svg" version="1.1" viewBox="0 0 1024 1024"><g transform="scale(1, -1) translate(0, -900)"><path d="M 256 685 Q 289 692 323 709 Q 336 718 345 709 Q 349 705 343 693 Q 331 668 321 641 Q 309 619 341 576 Q 368 531 362 518 Q 355 508 334 511 Q 309 515 279 515 Q 257 515 282 503 Q 334 481 382 450 Q 395 440 405 451 Q 415 460 420 481 Q 430 532 365 598 Q 338 629 370 662 Q 397 699 414 709 Q 432 721 423 732 Q 410 748 376 766 Q 357 773 345 763 Q 306 729 244 713 C 215 705 227 678 256 685 Z" fill="black" /></g></svg>