<?xml version='1.0' encoding='utf-8'?>
<svg xmlns="http://www.w3.org/2000/svg" version="1.1" viewBox="0 0 1024 1024"><g transform="scale(1, -1) translate(0, -900)"><path d="M 727 381 Q 745 353 761 346 Q 771 339 785 358 Q 800 383 827 524 Q 834 552 856 576 Q 869 588 858 601 Q 843 616 803 640 Q 784 649 769 642 Q 736 633 693 625 Q 635 615 562 600 Q 507 587 458 579 C 428 574 455 541 484 550 Q 571 577 723 601 Q 757 607 769 595 Q 782 579 779 564 Q 755 420 739 403 C 727 380 727 382 727 381 Z" fill="black" /></g></svg>