<?xml version='1.0' encoding='utf-8'?>
<svg xmlns="http://www.w3.org/2000/svg" version="1.1" viewBox="0 0 1024 1024"><g transform="scale(1, -1) translate(0, -900)"><path d="M 299 440 Q 299 491 301 548 L 302 602 Q 303 696 322 760 Q 332 775 328 789 Q 321 799 266 833 Q 242 851 221 835 Q 217 829 222 814 Q 256 765 256 714 Q 257 653 258 586 L 255 441 Q 251 348 251 249 Q 247 170 225 97 Q 213 57 239 -6 Q 246 -24 254 -27 Q 260 -34 268 -25 Q 275 -21 286 0 Q 296 25 295 57 Q 294 99 298 412 L 299 440 Z" fill="black" /></g></svg>