<?xml version='1.0' encoding='utf-8'?>
<svg xmlns="http://www.w3.org/2000/svg" version="1.1" viewBox="0 0 1024 1024"><g transform="scale(1, -1) translate(0, -900)"><path d="M 403 450 Q 331 336 307 321 Q 297 314 299 302 Q 300 292 322 276 Q 332 266 343 277 Q 382 310 450 338 Q 466 342 467 350 Q 468 357 453 354 Q 419 348 378 335 Q 354 325 369 346 Q 397 389 463 476 Q 485 507 504 526 Q 514 533 508 542 Q 499 557 471 571 Q 458 578 450 576 Q 443 572 445 560 Q 446 536 416 472 L 403 450 Z" fill="black" /></g></svg>