<?xml version='1.0' encoding='utf-8'?>
<svg xmlns="http://www.w3.org/2000/svg" version="1.1" viewBox="0 0 1024 1024"><g transform="scale(1, -1) translate(0, -900)"><path d="M 288 457 Q 288 493 290 530 L 292 583 Q 293 676 313 738 Q 322 753 319 766 Q 312 776 258 809 Q 236 827 215 811 Q 211 807 216 791 Q 247 743 248 694 Q 248 634 248 565 L 243 409 Q 239 333 238 248 Q 234 172 212 101 Q 199 59 225 2 Q 231 -16 239 -19 Q 245 -25 252 -17 Q 259 -13 270 7 Q 280 32 279 62 Q 279 104 287 424 L 288 457 Z" fill="black" /></g></svg>