<?xml version='1.0' encoding='utf-8'?>
<svg xmlns="http://www.w3.org/2000/svg" version="1.1" viewBox="0 0 1024 1024"><g transform="scale(1, -1) translate(0, -900)"><path d="M 312 422 Q 312 468 314 520 L 315 571 Q 315 683 337 758 Q 352 783 322 803 Q 307 815 282 829 Q 260 845 239 831 Q 235 827 241 811 Q 274 762 274 711 Q 275 638 275 555 L 269 408 Q 262 210 260 200 Q 253 151 239 101 Q 227 65 252 2 Q 259 -16 266 -19 Q 273 -26 280 -17 Q 287 -13 298 7 Q 308 32 307 62 Q 306 102 311 390 L 312 422 Z" fill="black" /></g></svg>