<?xml version='1.0' encoding='utf-8'?>
<svg xmlns="http://www.w3.org/2000/svg" version="1.1" viewBox="0 0 1024 1024"><g transform="scale(1, -1) translate(0, -900)"><path d="M 301 427 Q 302 475 303 527 L 304 580 Q 305 671 323 732 Q 332 747 329 761 Q 322 771 266 805 Q 242 821 221 806 Q 217 802 222 786 Q 255 738 255 691 Q 256 631 257 565 L 254 409 Q 251 216 241 161 Q 220 68 234 24 Q 237 15 243 2 Q 250 -16 258 -19 Q 264 -26 272 -17 Q 279 -13 290 8 Q 300 33 299 65 Q 298 105 301 398 L 301 427 Z" fill="black" /></g></svg>