<?xml version='1.0' encoding='utf-8'?>
<svg xmlns="http://www.w3.org/2000/svg" version="1.1" viewBox="0 0 1024 1024"><g transform="scale(1, -1) translate(0, -900)"><path d="M 295 371 Q 296 429 298 495 L 299 550 Q 299 670 321 750 Q 336 775 306 795 Q 291 807 266 821 Q 244 837 223 823 Q 219 819 224 803 Q 258 751 259 698 Q 260 622 261 534 L 256 397 Q 244 148 242 140 Q 235 100 223 57 Q 211 21 236 -42 Q 243 -60 250 -63 Q 257 -70 264 -61 Q 291 -45 291 18 Q 290 60 295 348 L 295 371 Z" fill="black" /></g></svg>