<?xml version='1.0' encoding='utf-8'?>
<svg xmlns="http://www.w3.org/2000/svg" version="1.1" viewBox="0 0 1024 1024"><g transform="scale(1, -1) translate(0, -900)"><path d="M 239 387 Q 235 320 235 248 Q 228 169 207 97 Q 194 54 220 -5 Q 226 -23 234 -27 Q 240 -34 248 -25 Q 255 -21 266 0 Q 276 25 276 56 Q 276 93 282 324 L 283 357 Q 284 423 288 500 L 289 554 Q 304 722 313 751 Q 323 767 320 780 Q 313 790 258 825 Q 234 843 213 828 Q 209 822 214 807 Q 245 759 246 687 Q 246 612 246 536 L 239 387 Z" fill="black" /></g></svg>