<?xml version='1.0' encoding='utf-8'?>
<svg xmlns="http://www.w3.org/2000/svg" version="1.1" viewBox="0 0 1024 1024"><g transform="scale(1, -1) translate(0, -900)"><path d="M 246 593 Q 247 592 252 589 Q 265 579 280 583 Q 415 616 423 594 Q 424 587 425 571 Q 425 445 400 418 Q 391 408 372 413 Q 353 417 336 421 Q 318 425 331 410 Q 361 376 377 351 Q 383 336 397 341 Q 407 342 421 357 Q 458 399 471 544 Q 474 577 486 596 Q 498 611 491 617 Q 481 630 458 641 Q 442 650 423 642 Q 354 612 262 606 C 232 604 229 603 246 593 Z" fill="black" /></g></svg>