<?xml version='1.0' encoding='utf-8'?>
<svg xmlns="http://www.w3.org/2000/svg" version="1.1" viewBox="0 0 1024 1024"><g transform="scale(1, -1) translate(0, -900)"><path d="M 300 435 Q 301 483 303 535 L 305 588 Q 308 670 325 726 Q 334 741 331 754 Q 324 764 270 797 Q 248 813 227 799 Q 223 795 228 779 Q 259 733 260 686 Q 260 634 260 573 L 257 430 Q 253 345 252 255 Q 248 182 227 113 Q 215 70 241 14 Q 247 -4 255 -7 Q 261 -13 268 -5 Q 275 -1 286 19 Q 296 44 295 74 Q 294 113 300 400 L 300 435 Z" fill="black" /></g></svg>