<?xml version='1.0' encoding='utf-8'?>
<svg xmlns="http://www.w3.org/2000/svg" version="1.1" viewBox="0 0 1024 1024"><g transform="scale(1, -1) translate(0, -900)"><path d="M 729 405 Q 730 404 731 402 Q 735 387 747 389 Q 760 390 766 405 Q 779 424 798 518 Q 811 564 843 593 Q 859 608 845 622 Q 829 637 782 659 Q 770 665 710 651 Q 683 651 462 603 C 433 597 447 570 477 575 Q 483 575 488 576 Q 557 598 714 621 Q 742 625 753 619 Q 763 613 759 580 Q 740 457 731 433 Q 730 433 730 432 C 724 413 724 413 729 405 Z" fill="black" /></g></svg>