<?xml version='1.0' encoding='utf-8'?>
<svg xmlns="http://www.w3.org/2000/svg" version="1.1" viewBox="0 0 1024 1024"><g transform="scale(1, -1) translate(0, -900)"><path d="M 285 445 Q 286 482 287 520 L 288 575 Q 288 695 309 770 Q 324 795 294 815 Q 279 827 254 841 Q 232 857 211 843 Q 207 837 213 823 Q 247 771 248 719 Q 248 644 250 559 L 245 423 Q 238 194 233 167 Q 226 125 214 85 Q 204 48 228 -14 Q 235 -32 243 -35 Q 249 -42 256 -33 Q 263 -29 274 -9 Q 283 16 282 46 Q 281 89 285 411 L 285 445 Z" fill="black" /></g></svg>