<?xml version='1.0' encoding='utf-8'?>
<svg xmlns="http://www.w3.org/2000/svg" version="1.1" viewBox="0 0 1024 1024"><g transform="scale(1, -1) translate(0, -900)"><path d="M 457 413 Q 461 710 467 733 Q 472 753 449 768 L 424 782 Q 406 791 397 785 Q 392 779 398 765 Q 414 723 416 673 Q 417 630 417 586 Q 421 343 402 163 Q 400 139 390 120 L 374 92 Q 364 73 370 55 Q 377 35 384 27 Q 394 16 414 27 Q 437 41 459 50 Q 575 98 806 87 L 933 79 Q 951 78 956 83 Q 966 95 949 115 L 935 127 Q 926 134 919 137 Q 906 143 868 139 Q 750 127 688 123 Q 595 124 483 110 Q 481 110 480 110 Q 441 108 451 151 L 457 406 L 457 413 Z" fill="black" /></g></svg>