<?xml version='1.0' encoding='utf-8'?>
<svg xmlns="http://www.w3.org/2000/svg" version="1.1" viewBox="0 0 1024 1024"><g transform="scale(1, -1) translate(0, -900)"><path d="M 638 438 Q 749 538 770 547 Q 783 551 784 559 Q 783 566 774 572 Q 749 591 725 597 Q 712 601 704 587 Q 695 560 633 492 L 598 455 Q 580 440 561 422 L 515 382 Q 496 369 478 351 Q 414 297 319 239 Q 312 236 314 233 Q 314 230 321 231 Q 394 246 518 339 L 560 373 Q 561 376 565 377 Q 575 387 587 396 L 638 438 Z" fill="black" /></g></svg>