<?xml version='1.0' encoding='utf-8'?>
<svg xmlns="http://www.w3.org/2000/svg" version="1.1" viewBox="0 0 1024 1024"><g transform="scale(1, -1) translate(0, -900)"><path d="M 810 551 Q 782 550 749 541 Q 734 535 735 542 Q 737 550 783 604 Q 851 684 874 698 Q 881 705 880 710 Q 880 711 878 714 Q 869 729 848 741 Q 822 757 823 733 Q 823 714 792 660 C 783 644 783 644 782 643 L 780 643 Q 706 545 683 535 Q 674 529 675 517 Q 675 508 693 494 Q 700 484 711 493 Q 755 521 818 538 C 847 546 840 553 810 551 Z" fill="black" /></g></svg>