<?xml version='1.0' encoding='utf-8'?>
<svg xmlns="http://www.w3.org/2000/svg" version="1.1" viewBox="0 0 1024 1024"><g transform="scale(1, -1) translate(0, -900)"><path d="M 792 660 L 737 660 L 733 660 Q 719 660 728 670 Q 762 723 802 771 Q 813 786 812 791 Q 811 795 805 805 Q 784 829 766 828 L 763 828 Q 758 827 759 819 Q 762 811 762 804 Q 762 780 719 702 Q 711 688 690 668 Q 674 653 675 647 Q 676 639 680 633 Q 688 615 699 617 Q 708 622 719 627 Q 760 643 782 643 C 812 645 822 660 792 660 Z" fill="black" /></g></svg>