<?xml version='1.0' encoding='utf-8'?>
<svg xmlns="http://www.w3.org/2000/svg" version="1.1" viewBox="0 0 1024 1024"><g transform="scale(1, -1) translate(0, -900)"><path d="M 607 205 Q 652 217 719 230 Q 723 231 728 232 C 757 238 742 256 712 251 Q 628 238 541 215 Q 531 212 529 215 Q 528 216 532 220 Q 590 266 602 273 Q 612 280 609 291 Q 606 298 587 313 C 564 332 543 337 540 307 Q 541 288 525 263 Q 524 262 523 262 Q 501 237 458 213 Q 445 206 447 196 Q 450 181 469 163 Q 476 153 488 161 Q 522 185 575 196 L 607 205 Z" fill="black" /></g></svg>