<?xml version='1.0' encoding='utf-8'?>
<svg xmlns="http://www.w3.org/2000/svg" version="1.1" viewBox="0 0 1024 1024"><g transform="scale(1, -1) translate(0, -900)"><path d="M 615 519 Q 588 516 564 512 Q 537 503 556 525 Q 586 572 643 645 Q 654 659 672 679 Q 684 692 682 698 Q 682 702 672 711 Q 649 731 634 729 Q 627 727 629 716 L 629 714 Q 629 701 618 673 L 604 641 L 592 621 L 592 620 Q 521 514 502 505 Q 481 488 514 466 Q 515 465 516 463 Q 521 461 535 468 Q 576 493 619 507 C 647 517 645 522 615 519 Z" fill="black" /></g></svg>