<?xml version='1.0' encoding='utf-8'?>
<svg xmlns="http://www.w3.org/2000/svg" version="1.1" viewBox="0 0 1024 1024"><g transform="scale(1, -1) translate(0, -900)"><path d="M 246 416 Q 242 346 242 268 Q 238 192 216 121 Q 203 79 229 22 Q 235 4 243 1 Q 249 -5 256 3 Q 263 7 274 27 Q 284 52 283 82 Q 283 122 290 423 L 291 450 Q 291 484 293 520 L 295 572 Q 295 686 317 758 Q 332 783 302 803 Q 287 815 262 829 Q 240 847 219 831 Q 215 827 220 811 Q 251 763 252 714 Q 253 644 253 562 Q 252 559 252 555 L 246 416 Z" fill="black" /></g></svg>