<?xml version='1.0' encoding='utf-8'?>
<svg xmlns="http://www.w3.org/2000/svg" version="1.1" viewBox="0 0 1024 1024"><g transform="scale(1, -1) translate(0, -900)"><path d="M 749 163 Q 750 156 757 147 Q 770 122 778 122 Q 791 123 805 154 Q 814 172 815 204 Q 796 363 822 403 Q 832 418 824 427 Q 799 449 753 468 Q 738 472 717 465 Q 683 449 638 438 L 561 422 Q 551 422 542 419 Q 529 429 514 433 Q 507 434 502 428 Q 501 424 506 416 Q 515 389 515 382 C 516 377 558 388 587 396 Q 657 415 710 424 Q 729 428 737 418 Q 749 405 750 355 Q 756 231 751 195 L 749 163 Z" fill="black" /></g></svg>