<?xml version='1.0' encoding='utf-8'?>
<svg xmlns="http://www.w3.org/2000/svg" version="1.1" viewBox="0 0 1024 1024"><g transform="scale(1, -1) translate(0, -900)"><path d="M 291 451 Q 292 490 294 530 L 295 585 Q 295 690 317 762 Q 332 787 302 807 Q 287 819 262 833 Q 240 851 219 835 Q 215 831 220 815 Q 253 766 252 718 Q 252 648 252 568 L 247 438 Q 243 357 242 269 Q 238 193 216 121 Q 203 79 229 22 Q 235 4 243 1 Q 249 -5 256 3 Q 263 7 274 27 Q 284 52 283 82 Q 283 124 291 425 L 291 451 Z" fill="black" /></g></svg>