<?xml version='1.0' encoding='utf-8'?>
<svg xmlns="http://www.w3.org/2000/svg" version="1.1" viewBox="0 0 1024 1024"><g transform="scale(1, -1) translate(0, -900)"><path d="M 264 435 Q 252 197 250 187 Q 243 148 232 109 Q 219 67 245 10 Q 251 -8 259 -11 Q 265 -17 272 -9 Q 279 -5 290 15 Q 300 40 299 70 Q 299 112 306 431 L 307 462 Q 307 498 309 536 L 311 591 Q 314 688 333 754 Q 342 769 339 782 Q 332 792 278 825 Q 256 843 235 827 Q 231 823 236 807 Q 269 758 269 709 Q 269 646 269 575 L 264 435 Z" fill="black" /></g></svg>