<?xml version='1.0' encoding='utf-8'?>
<svg xmlns="http://www.w3.org/2000/svg" version="1.1" viewBox="0 0 1024 1024"><g transform="scale(1, -1) translate(0, -900)"><path d="M 471 749 Q 459 758 438 768 Q 417 778 409 771 Q 402 764 409 749 Q 428 713 430 649 Q 440 375 419 122 Q 416 82 391 45 Q 381 30 390 9 Q 399 -13 409 -22 Q 419 -31 437 -18 Q 501 22 599 39 Q 710 55 923 48 Q 948 47 950 59 Q 950 75 921 96 Q 905 109 871 103 Q 768 90 686 83 Q 602 80 502 63 Q 466 59 472 119 Q 478 342 479 616 Q 479 677 486 716 C 489 739 489 739 471 749 Z" fill="black" /></g></svg>