<?xml version='1.0' encoding='utf-8'?>
<svg xmlns="http://www.w3.org/2000/svg" version="1.1" viewBox="0 0 1024 1024"><g transform="scale(1, -1) translate(0, -900)"><path d="M 492 360 Q 492 357 494 351 Q 512 314 504 262 Q 491 111 499 80 Q 508 44 533 20 Q 612 -56 835 -46 Q 935 -39 974 -18 Q 1007 0 992 33 Q 970 82 952 167 Q 949 182 941 186 Q 934 190 932 171 Q 931 63 917 42 Q 904 18 859 13 Q 801 6 719 10 Q 625 19 587 37 Q 553 58 545 81 Q 538 109 541 179 Q 551 257 568 292 Q 581 320 564 337 Q 542 356 526 365 C 501 382 483 388 492 360 Z" fill="black" /></g></svg>