<?xml version='1.0' encoding='utf-8'?>
<svg xmlns="http://www.w3.org/2000/svg" version="1.1" viewBox="0 0 1024 1024"><g transform="scale(1, -1) translate(0, -900)"><path d="M 574 371 Q 574 368 576 364 Q 580 351 591 353 Q 601 354 607 367 Q 623 392 643 507 Q 653 549 682 573 Q 695 586 683 598 Q 668 611 629 630 Q 619 636 557 618 Q 452 596 425 581 L 402 575 Q 393 574 388 572 C 359 566 363 537 392 545 Q 396 545 402 547 Q 427 557 467 569 L 497 577 Q 584 604 605 597 Q 615 590 611 554 Q 589 430 578 396 L 574 371 Z" fill="black" /></g></svg>