<?xml version='1.0' encoding='utf-8'?>
<svg xmlns="http://www.w3.org/2000/svg" version="1.1" viewBox="0 0 1024 1024"><g transform="scale(1, -1) translate(0, -900)"><path d="M 682 22 Q 706 -8 723 -37 Q 730 -53 741 -52 Q 756 -51 769 -21 Q 779 1 780 67 Q 762 199 782 229 Q 791 241 782 249 Q 766 267 719 288 Q 703 295 689 287 Q 662 275 510 238 C 481 231 489 205 519 210 Q 531 211 674 242 Q 696 246 707 239 Q 722 229 719 102 Q 720 68 717 57 Q 713 42 702 46 C 675 32 675 32 682 22 Z" fill="black" /></g></svg>