<?xml version='1.0' encoding='utf-8'?>
<svg xmlns="http://www.w3.org/2000/svg" version="1.1" viewBox="0 0 1024 1024"><g transform="scale(1, -1) translate(0, -900)"><path d="M 235 407 Q 231 322 229 231 Q 222 152 200 77 Q 187 35 213 -22 Q 219 -40 227 -43 Q 233 -49 240 -41 Q 267 -25 268 38 Q 267 83 276 416 L 276 439 Q 277 473 279 509 L 281 561 Q 281 666 304 746 Q 314 761 311 774 Q 304 783 250 818 Q 228 834 207 820 Q 203 816 208 800 Q 242 749 241 698 Q 241 626 241 545 L 235 407 Z" fill="black" /></g></svg>