<?xml version='1.0' encoding='utf-8'?>
<svg xmlns="http://www.w3.org/2000/svg" version="1.1" viewBox="0 0 1024 1024"><g transform="scale(1, -1) translate(0, -900)"><path d="M 245 420 Q 241 345 241 263 Q 235 185 213 113 Q 203 77 226 17 Q 232 1 239 -3 Q 245 -9 252 -2 Q 279 14 279 75 Q 278 114 283 382 L 284 413 Q 285 462 287 518 L 289 569 Q 289 690 312 768 Q 319 783 318 795 Q 311 805 259 838 Q 237 854 218 839 Q 214 835 219 820 Q 249 771 251 691 Q 251 624 251 555 L 245 420 Z" fill="black" /></g></svg>