<?xml version='1.0' encoding='utf-8'?>
<svg xmlns="http://www.w3.org/2000/svg" version="1.1" viewBox="0 0 1024 1024"><g transform="scale(1, -1) translate(0, -900)"><path d="M 839 545 Q 855 104 832 68 Q 826 62 767 74 Q 748 81 748 71 Q 797 23 822 -10 Q 835 -29 851 -34 Q 860 -37 869 -27 Q 909 19 908 76 Q 893 284 888 625 Q 887 685 901 710 Q 914 729 901 741 Q 879 760 843 775 Q 822 784 773 759 Q 728 749 687 744 C 657 740 680 711 710 714 Q 731 713 795 730 Q 814 731 822 720 Q 834 708 839 559 L 839 545 Z" fill="black" /></g></svg>