<?xml version='1.0' encoding='utf-8'?>
<svg xmlns="http://www.w3.org/2000/svg" version="1.1" viewBox="0 0 1024 1024"><g transform="scale(1, -1) translate(0, -900)"><path d="M 848 499 Q 817 495 783 485 Q 759 476 774 496 Q 868 623 907 653 Q 917 660 911 669 Q 904 685 876 700 Q 863 707 855 705 Q 848 702 849 690 Q 850 669 823 615 L 813 598 Q 810 595 808 590 Q 733 485 712 474 Q 708 473 706 469 C 697 462 697 462 703 452 Q 706 442 725 428 Q 734 418 746 428 Q 792 462 857 483 C 885 493 878 503 848 499 Z" fill="black" /></g></svg>