<?xml version='1.0' encoding='utf-8'?>
<svg xmlns="http://www.w3.org/2000/svg" version="1.1" viewBox="0 0 1024 1024"><g transform="scale(1, -1) translate(0, -900)"><path d="M 512 478 L 513 477 Q 532 452 549 475 Q 558 488 564 556 Q 564 628 583 660 Q 593 676 581 687 Q 565 700 538 712 Q 525 716 512 710 Q 472 689 422 676 Q 421 676 421 675 C 393 665 407 647 436 654 Q 445 655 488 670 Q 507 677 514 673 Q 521 669 521 645 Q 520 578 518 521 Q 518 503 504 499 C 497 494 497 494 512 478 Z" fill="black" /></g></svg>