<?xml version='1.0' encoding='utf-8'?>
<svg xmlns="http://www.w3.org/2000/svg" version="1.1" viewBox="0 0 1024 1024"><g transform="scale(1, -1) translate(0, -900)"><path d="M 538 214 Q 445 157 440 158 Q 430 165 437 315 L 438 340 Q 438 371 441 395 L 443 422 Q 444 453 449 468 Q 450 472 450 476 C 452 485 452 485 434 500 Q 418 516 404 519 Q 394 522 389 517 Q 380 511 389 500 Q 417 445 401 214 Q 394 147 380 128 Q 368 109 376 90 Q 386 63 401 53 Q 410 46 421 63 Q 449 102 547 196 C 569 217 564 230 538 214 Z" fill="black" /></g></svg>