<?xml version='1.0' encoding='utf-8'?>
<svg xmlns="http://www.w3.org/2000/svg" version="1.1" viewBox="0 0 1024 1024"><g transform="scale(1, -1) translate(0, -900)"><path d="M 264 406 Q 264 461 266 523 L 267 572 Q 267 683 288 761 Q 297 774 294 788 Q 287 797 235 829 Q 213 845 194 831 Q 190 827 195 811 Q 228 762 229 711 Q 229 641 230 560 L 226 419 Q 222 337 222 249 Q 218 170 196 97 Q 186 61 209 1 Q 216 -15 223 -19 Q 229 -25 236 -17 Q 243 -13 253 7 Q 263 29 262 59 Q 261 99 264 387 L 264 406 Z" fill="black" /></g></svg>