<?xml version='1.0' encoding='utf-8'?>
<svg xmlns="http://www.w3.org/2000/svg" version="1.1" viewBox="0 0 1024 1024"><g transform="scale(1, -1) translate(0, -900)"><path d="M 291 426 Q 292 471 294 518 L 295 564 Q 307 732 319 768 Q 328 783 325 795 Q 319 805 267 838 Q 245 854 226 840 Q 220 836 227 820 Q 257 772 258 682 Q 258 616 257 549 L 252 442 Q 248 358 246 267 Q 239 189 218 117 Q 206 83 230 21 Q 236 5 243 1 Q 249 -5 256 3 Q 283 19 283 79 Q 282 119 290 401 L 291 426 Z" fill="black" /></g></svg>