<?xml version='1.0' encoding='utf-8'?>
<svg xmlns="http://www.w3.org/2000/svg" version="1.1" viewBox="0 0 1024 1024"><g transform="scale(1, -1) translate(0, -900)"><path d="M 746 458 Q 797 477 834 483 Q 841 484 844 482 Q 854 472 853 438 Q 854 347 837 306 Q 828 284 810 284 Q 794 288 779 293 Q 760 299 774 281 Q 805 248 820 224 Q 839 209 851 225 Q 896 268 898 401 Q 898 468 909 491 Q 916 501 911 509 Q 904 516 864 529 Q 849 533 836 522 Q 824 515 733 485 C 705 476 718 448 746 458 Z" fill="black" /></g></svg>