<?xml version='1.0' encoding='utf-8'?>
<svg xmlns="http://www.w3.org/2000/svg" version="1.1" viewBox="0 0 1024 1024"><g transform="scale(1, -1) translate(0, -900)"><path d="M 406 558 Q 405 559 404 561 Q 400 565 397 569 L 388 579 Q 357 610 317 626 C 290 638 271 625 298 611 Q 308 607 318 599 L 355 569 Q 359 565 364 558 L 385 513 Q 394 480 379 418 Q 372 394 365 390 Q 358 384 297 384 Q 284 387 284 380 Q 283 374 295 365 Q 340 334 359 311 Q 369 299 380 303 Q 411 318 427 402 Q 436 474 419 530 L 406 558 Z" fill="black" /></g></svg>