<?xml version='1.0' encoding='utf-8'?>
<svg xmlns="http://www.w3.org/2000/svg" version="1.1" viewBox="0 0 1024 1024"><g transform="scale(1, -1) translate(0, -900)"><path d="M 269 374 Q 270 432 274 503 L 276 556 Q 291 718 301 747 Q 310 762 308 776 Q 301 786 246 822 Q 222 840 201 824 Q 197 820 202 803 Q 232 755 233 677 Q 232 599 231 536 L 224 392 Q 220 328 219 257 Q 213 181 191 110 Q 178 68 204 7 Q 210 -11 218 -15 Q 224 -22 232 -13 Q 260 6 261 102 Q 262 169 268 346 L 269 374 Z" fill="black" /></g></svg>