<?xml version='1.0' encoding='utf-8'?>
<svg xmlns="http://www.w3.org/2000/svg" version="1.1" viewBox="0 0 1024 1024"><g transform="scale(1, -1) translate(0, -900)"><path d="M 604 310 Q 604 311 605 311 Q 615 318 613 327 Q 609 342 575 373 Q 565 383 554 380 Q 541 379 547 362 Q 553 340 543 316 L 537 302 L 522 268 Q 503 231 486 210 Q 476 194 477 180 Q 478 170 496 165 Q 541 153 590 125 L 631 101 Q 691 64 778 -9 Q 803 -30 821 -29 Q 842 -29 842 -9 Q 843 10 815 57 Q 800 84 666 139 L 618 158 Q 573 176 541 185 Q 522 189 534 207 Q 568 256 580 274 Q 580 275 581 276 L 604 310 Z" fill="black" /></g></svg>