<?xml version='1.0' encoding='utf-8'?>
<svg xmlns="http://www.w3.org/2000/svg" version="1.1" viewBox="0 0 1024 1024"><g transform="scale(1, -1) translate(0, -900)"><path d="M 535 503 Q 536 496 541 488 Q 551 466 558 467 Q 568 468 581 492 Q 593 513 589 554 Q 577 707 602 743 Q 609 755 604 761 Q 583 777 549 790 Q 539 794 522 787 Q 501 775 472 765 Q 447 758 425 752 C 396 744 409 724 438 732 Q 442 733 444 733 Q 487 749 519 759 Q 529 763 534 758 Q 546 742 545 692 Q 545 566 538 530 L 535 503 Z" fill="black" /></g></svg>