<?xml version='1.0' encoding='utf-8'?>
<svg xmlns="http://www.w3.org/2000/svg" version="1.1" viewBox="0 0 1024 1024"><g transform="scale(1, -1) translate(0, -900)"><path d="M 425 752 Q 424 753 421 754 Q 414 758 404 762 Q 397 766 390 762 Q 386 759 389 751 Q 390 745 393 740 Q 411 707 402 564 Q 384 504 414 472 Q 421 462 428 471 Q 432 478 434 485 L 436 509 Q 437 522 437 540 Q 436 555 436 567 L 436 591 Q 436 621 436 643 L 436 665 Q 436 698 438 732 C 439 745 439 745 425 752 Z" fill="black" /></g></svg>