<?xml version='1.0' encoding='utf-8'?>
<svg xmlns="http://www.w3.org/2000/svg" version="1.1" viewBox="0 0 1024 1024"><g transform="scale(1, -1) translate(0, -900)"><path d="M 267 418 Q 268 467 270 520 L 271 570 Q 271 678 292 749 Q 301 762 298 776 Q 291 785 239 817 Q 217 833 198 819 Q 194 815 199 800 Q 232 751 232 701 Q 232 637 232 559 L 228 416 Q 224 334 223 246 Q 219 168 197 97 Q 185 58 210 1 Q 216 -15 223 -19 Q 229 -25 236 -18 Q 243 -14 253 6 Q 263 30 262 59 Q 261 99 267 395 L 267 418 Z" fill="black" /></g></svg>