<?xml version='1.0' encoding='utf-8'?>
<svg xmlns="http://www.w3.org/2000/svg" version="1.1" viewBox="0 0 1024 1024"><g transform="scale(1, -1) translate(0, -900)"><path d="M 649 458 Q 664 503 667 537 Q 674 634 683 646 Q 690 656 690 661 Q 690 668 674 677 Q 655 687 646 687 Q 643 688 625 679 Q 604 669 598 674 L 604 746 L 609 771 Q 613 798 617 804 Q 621 811 620 818 Q 617 828 599 838 Q 578 848 563 847 Q 551 847 548 842 Q 548 838 552 833 Q 579 800 564 686 Q 555 662 564 647 Q 570 637 575 636 Q 581 635 590 642 Q 597 649 615 653 Q 631 657 635 655 Q 642 649 639 625 Q 632 522 624 512 Q 609 496 629 456 C 640 431 640 431 649 458 Z" fill="black" /></g></svg>