<?xml version='1.0' encoding='utf-8'?>
<svg xmlns="http://www.w3.org/2000/svg" version="1.1" viewBox="0 0 1024 1024"><g transform="scale(1, -1) translate(0, -900)"><path d="M 584 189 Q 577 98 572 83 Q 568 53 592 16 Q 601 1 607 -2 Q 616 -3 619 8 Q 629 32 625 55 Q 621 152 620 238 L 620 268 Q 620 302 620 334 Q 620 356 620 374 L 620 402 Q 621 424 622 440 L 625 468 Q 625 471 626 472 Q 627 482 622 486 Q 604 501 590 508 Q 580 511 574 505 Q 570 502 575 495 Q 582 482 586 458 L 588 432 Q 588 416 589 395 L 589 368 Q 590 328 589 278 Q 588 269 588 260 L 584 189 Z" fill="black" /></g></svg>