<?xml version='1.0' encoding='utf-8'?>
<svg xmlns="http://www.w3.org/2000/svg" version="1.1" viewBox="0 0 1024 1024"><g transform="scale(1, -1) translate(0, -900)"><path d="M 693 249 Q 693 248 694 247 Q 698 237 706 237 Q 716 238 721 248 Q 728 258 743 309 Q 753 346 778 369 Q 791 382 779 392 Q 766 404 729 421 Q 717 427 663 411 Q 653 411 620 402 L 589 395 Q 568 392 549 386 Q 503 376 475 369 C 446 362 460 342 490 344 Q 497 343 505 345 Q 535 357 589 368 L 620 374 Q 695 393 711 385 Q 717 381 714 361 Q 702 294 696 274 C 690 253 690 253 693 249 Z" fill="black" /></g></svg>