<?xml version='1.0' encoding='utf-8'?>
<svg xmlns="http://www.w3.org/2000/svg" version="1.1" viewBox="0 0 1024 1024"><g transform="scale(1, -1) translate(0, -900)"><path d="M 826 572 Q 842 83 820 49 Q 816 43 797 47 Q 770 54 743 62 Q 724 69 724 59 Q 779 7 810 -29 Q 823 -48 839 -53 Q 848 -57 856 -47 Q 898 -5 896 56 Q 880 287 873 661 Q 870 721 884 746 Q 897 765 884 776 Q 862 795 825 809 Q 806 816 792 810 Q 744 783 676 774 C 646 769 656 737 685 743 Q 691 743 780 763 Q 798 766 806 755 Q 819 743 825 589 L 826 572 Z" fill="black" /></g></svg>