<?xml version='1.0' encoding='utf-8'?>
<svg xmlns="http://www.w3.org/2000/svg" version="1.1" viewBox="0 0 1024 1024"><g transform="scale(1, -1) translate(0, -900)"><path d="M 229 406 Q 222 211 216 180 Q 209 140 197 101 Q 185 59 210 5 Q 216 -11 223 -15 Q 229 -21 236 -14 Q 263 2 263 63 Q 262 103 268 394 L 269 418 Q 270 469 272 526 L 273 577 Q 273 682 296 760 Q 309 784 282 804 Q 267 816 243 830 Q 221 846 202 831 Q 196 827 203 812 Q 236 763 235 712 Q 235 642 235 562 L 229 406 Z" fill="black" /></g></svg>