<?xml version='1.0' encoding='utf-8'?>
<svg xmlns="http://www.w3.org/2000/svg" version="1.1" viewBox="0 0 1024 1024"><g transform="scale(1, -1) translate(0, -900)"><path d="M 624 204 Q 624 200 627 190 Q 637 156 635 121 Q 631 39 638 16 Q 642 -6 662 -26 Q 737 -90 887 -60 Q 891 -59 898 -57 Q 932 -47 966 -22 Q 985 -9 974 15 Q 962 43 951 126 Q 951 141 945 146 Q 939 149 934 133 Q 904 45 886 19 Q 876 6 843 -2 Q 767 -18 710 7 Q 688 17 681 33 Q 666 63 686 165 Q 692 189 654 207 C 628 222 618 228 624 204 Z" fill="black" /></g></svg>