<?xml version='1.0' encoding='utf-8'?>
<svg xmlns="http://www.w3.org/2000/svg" version="1.1" viewBox="0 0 1024 1024"><g transform="scale(1, -1) translate(0, -900)"><path d="M 292 406 Q 293 467 295 535 L 295 586 Q 295 688 316 761 Q 325 774 322 788 Q 315 797 263 829 Q 241 845 222 831 Q 218 827 223 811 Q 257 762 257 710 Q 257 646 258 572 L 255 440 Q 248 206 244 180 Q 237 134 224 89 Q 214 53 237 -7 Q 244 -23 251 -27 Q 257 -33 264 -26 Q 289 -11 290 51 Q 289 91 292 380 L 292 406 Z" fill="black" /></g></svg>