<?xml version='1.0' encoding='utf-8'?>
<svg xmlns="http://www.w3.org/2000/svg" version="1.1" viewBox="0 0 1024 1024"><g transform="scale(1, -1) translate(0, -900)"><path d="M 222 347 Q 218 164 204 106 Q 183 40 211 -26 Q 218 -44 226 -47 Q 233 -54 240 -45 Q 247 -41 258 -20 Q 268 5 267 37 Q 266 77 268 352 L 268 380 Q 269 422 270 467 L 271 519 Q 271 660 291 728 Q 306 755 280 772 Q 264 784 234 801 Q 210 817 189 802 Q 185 798 190 782 Q 223 734 224 663 Q 224 582 226 499 L 222 347 Z" fill="black" /></g></svg>