<?xml version='1.0' encoding='utf-8'?>
<svg xmlns="http://www.w3.org/2000/svg" version="1.1" viewBox="0 0 1024 1024"><g transform="scale(1, -1) translate(0, -900)"><path d="M 332 341 Q 366 413 398 520 Q 408 550 425 569 Q 441 585 428 597 Q 415 607 383 616 Q 359 622 335 606 Q 308 593 272 580 Q 235 568 174 558 Q 161 557 156 549 Q 152 542 171 535 Q 208 523 255 540 Q 309 562 318 563 Q 343 564 341 536 Q 323 439 292 370 L 269 328 Q 206 229 78 184 Q 66 177 78 172 Q 84 165 125 169 Q 224 181 303 293 L 332 341 Z" fill="black" /></g></svg>