<?xml version='1.0' encoding='utf-8'?>
<svg xmlns="http://www.w3.org/2000/svg" version="1.1" viewBox="0 0 1024 1024"><g transform="scale(1, -1) translate(0, -900)"><path d="M 641 671 Q 779 704 814 701 Q 830 697 829 686 Q 830 680 826 673 Q 802 616 807 612 Q 814 609 828 620 Q 871 651 908 661 Q 936 670 936 678 Q 935 687 872 730 Q 851 748 779 729 Q 695 714 642 701 L 599 693 Q 565 687 531 679 Q 488 669 446 662 Q 443 662 441 661 C 411 656 418 647 446 637 Q 471 625 494 632 Q 543 650 594 662 Q 595 663 601 663 L 641 671 Z" fill="black" /></g></svg>