<?xml version='1.0' encoding='utf-8'?>
<svg xmlns="http://www.w3.org/2000/svg" version="1.1" viewBox="0 0 1024 1024"><g transform="scale(1, -1) translate(0, -900)"><path d="M 203 662 Q 193 672 163 688 Q 141 700 133 693 Q 126 686 133 670 Q 151 634 151 569 Q 154 367 133 178 Q 132 139 109 103 Q 99 87 109 67 Q 118 45 128 37 Q 138 30 156 43 Q 231 107 465 130 Q 487 131 487 143 Q 486 156 457 173 Q 439 185 332 153 Q 233 132 202 121 Q 181 115 182 138 Q 194 322 201 556 Q 201 604 210 638 C 213 655 213 655 203 662 Z" fill="black" /></g></svg>