<?xml version='1.0' encoding='utf-8'?>
<svg xmlns="http://www.w3.org/2000/svg" version="1.1" viewBox="0 0 1024 1024"><g transform="scale(1, -1) translate(0, -900)"><path d="M 331 324 Q 331 346 332 370 L 333 401 Q 333 443 334 488 L 335 522 Q 335 561 336 599 L 339 646 Q 343 700 356 741 Q 365 754 362 768 Q 355 777 303 809 Q 281 825 262 811 Q 258 807 263 791 Q 297 742 297 690 Q 297 663 297 633 L 298 591 L 298 513 L 297 481 Q 296 438 295 393 L 292 301 Q 286 165 272 99 Q 251 32 275 -21 Q 275 -24 277 -27 Q 284 -43 291 -47 Q 297 -53 304 -46 Q 329 -31 330 31 Q 329 67 330 297 L 331 324 Z" fill="black" /></g></svg>