<?xml version='1.0' encoding='utf-8'?>
<svg xmlns="http://www.w3.org/2000/svg" version="1.1" viewBox="0 0 1024 1024"><g transform="scale(1, -1) translate(0, -900)"><path d="M 418 123 Q 419 119 424 111 Q 443 77 466 102 Q 481 117 492 166 Q 520 323 550 357 Q 563 373 552 390 Q 536 408 507 427 Q 492 434 476 430 Q 431 417 379 413 Q 360 412 363 403 Q 367 393 381 386 Q 393 383 445 388 Q 464 389 470 385 Q 480 378 474 342 Q 470 318 464 294 L 458 264 Q 448 210 438 161 Q 437 160 436 156 C 428 127 412 135 418 123 Z" fill="black" /></g></svg>