<?xml version='1.0' encoding='utf-8'?>
<svg xmlns="http://www.w3.org/2000/svg" version="1.1" viewBox="0 0 1024 1024"><g transform="scale(1, -1) translate(0, -900)"><path d="M 493 416 Q 508 419 526 420 Q 539 421 541 427 Q 542 439 527 447 Q 517 453 506 454 L 456 448 Q 417 442 388 434 L 350 426 Q 313 420 285 414 L 252 409 Q 131 394 109 393 Q 99 392 95 385 Q 92 376 105 366 Q 136 342 173 352 Q 213 364 251 373 L 283 381 Q 311 390 350 395 L 388 401 Q 416 407 451 411 L 493 416 Z" fill="black" /></g></svg>