<?xml version='1.0' encoding='utf-8'?>
<svg xmlns="http://www.w3.org/2000/svg" version="1.1" viewBox="0 0 1024 1024"><g transform="scale(1, -1) translate(0, -900)"><path d="M 479 343 Q 491 407 493 416 L 506 454 Q 515 473 530 489 Q 546 508 522 523 Q 500 538 476 549 Q 463 559 443 549 Q 422 540 389 533 Q 388 533 388 532 L 348 524 Q 318 518 289 510 L 250 501 Q 210 494 183 489 Q 170 489 169 482 Q 168 476 187 466 Q 206 453 231 463 Q 241 467 252 469 L 287 478 Q 300 484 349 490 L 388 496 Q 445 508 452 501 Q 461 489 456 448 L 451 411 Q 447 384 439 350 C 432 321 473 314 479 343 Z" fill="black" /></g></svg>