<?xml version='1.0' encoding='utf-8'?>
<svg xmlns="http://www.w3.org/2000/svg" version="1.1" viewBox="0 0 1024 1024"><g transform="scale(1, -1) translate(0, -900)"><path d="M 387 86 Q 424 23 432 20 Q 442 20 450 41 Q 462 78 457 198 Q 448 283 458 314 Q 465 333 455 341 Q 448 351 414 365 Q 398 372 365 359 Q 338 349 307 339 Q 283 332 253 325 C 224 318 227 294 257 299 Q 269 300 282 304 Q 321 317 373 326 Q 389 329 394 323 Q 401 316 402 180 Q 403 132 399 122 Q 398 122 398 121 C 391 92 385 89 387 86 Z" fill="black" /></g></svg>