<?xml version='1.0' encoding='utf-8'?>
<svg xmlns="http://www.w3.org/2000/svg" version="1.1" viewBox="0 0 1024 1024"><g transform="scale(1, -1) translate(0, -900)"><path d="M 388 261 Q 388 280 388 298 L 388 338 Q 388 369 388 401 L 388 434 Q 389 462 389 490 Q 388 494 388 496 L 388 532 Q 388 589 381 592 Q 378 595 374 596 C 355 619 335 619 342 590 Q 346 580 348 562 Q 348 544 348 524 L 349 490 Q 349 459 350 426 L 350 395 Q 350 362 350 328 L 349 293 Q 348 257 348 219 Q 341 9 349 -5 Q 352 -11 358 -18 Q 367 -31 375 -16 Q 394 21 389 94 Q 389 116 388 233 L 388 261 Z" fill="black" /></g></svg>