<?xml version='1.0' encoding='utf-8'?>
<svg xmlns="http://www.w3.org/2000/svg" version="1.1" viewBox="0 0 1024 1024"><g transform="scale(1, -1) translate(0, -900)"><path d="M 302 381 Q 372 397 437 404 Q 447 405 449 400 Q 456 387 455 350 Q 449 217 426 145 Q 414 100 400 86 Q 390 74 368 80 Q 343 84 321 89 Q 302 93 316 77 Q 353 40 373 11 Q 380 -5 397 0 Q 413 3 432 26 Q 487 86 501 315 Q 504 366 522 396 Q 535 415 528 423 Q 515 439 484 451 Q 462 461 440 451 Q 356 418 246 411 C 216 409 208 408 230 392 Q 249 373 272 374 L 302 381 Z" fill="black" /></g></svg>