<?xml version='1.0' encoding='utf-8'?>
<svg xmlns="http://www.w3.org/2000/svg" version="1.1" viewBox="0 0 1024 1024"><g transform="scale(1, -1) translate(0, -900)"><path d="M 335 447 Q 336 393 359 373 Q 384 351 439 350 Q 487 353 517 379 Q 529 389 521 405 Q 514 420 501 464 Q 501 474 496 477 Q 492 480 490 468 Q 466 402 446 396 Q 413 393 394 403 Q 376 413 373 451 Q 372 455 372 458 L 373 493 Q 374 514 378 535 Q 381 550 371 557 Q 364 564 352 568 C 325 580 306 585 321 559 Q 334 546 335 477 L 335 447 Z" fill="black" /></g></svg>