<?xml version='1.0' encoding='utf-8'?>
<svg xmlns="http://www.w3.org/2000/svg" version="1.1" viewBox="0 0 1024 1024"><g transform="scale(1, -1) translate(0, -900)"><path d="M 286 153 Q 244 71 228 47 Q 192 8 148 -34 Q 135 -47 131 -52 Q 128 -59 140 -59 Q 182 -59 254 19 Q 317 85 343 169 L 354 211 Q 358 233 362 254 Q 362 258 363 262 L 370 308 Q 373 330 376 353 L 379 386 Q 382 426 384 469 L 388 498 Q 389 505 391 511 Q 397 530 377 540 Q 358 550 343 556 C 316 568 291 575 306 549 Q 307 545 313 537 Q 326 515 329 483 L 331 457 Q 332 426 329 375 L 327 345 Q 326 321 322 293 Q 321 293 321 291 L 315 249 Q 309 225 301 198 L 286 153 Z" fill="black" /></g></svg>