<?xml version='1.0' encoding='utf-8'?>
<svg xmlns="http://www.w3.org/2000/svg" version="1.1" viewBox="0 0 1024 1024"><g transform="scale(1, -1) translate(0, -900)"><path d="M 182 687 Q 170 697 143 712 Q 121 724 113 716 Q 106 709 113 693 Q 132 657 132 593 Q 139 175 93 94 Q 83 78 94 58 Q 103 37 113 29 Q 123 22 140 35 Q 213 98 449 126 Q 471 127 472 139 Q 471 152 441 169 Q 422 181 296 142 Q 274 142 185 114 Q 160 104 166 158 Q 175 345 182 576 Q 183 628 189 659 C 192 680 192 680 182 687 Z" fill="black" /></g></svg>