<?xml version='1.0' encoding='utf-8'?>
<svg xmlns="http://www.w3.org/2000/svg" version="1.1" viewBox="0 0 1024 1024"><g transform="scale(1, -1) translate(0, -900)"><path d="M 419 52 Q 403 53 384 56 Q 368 60 369 52 Q 412 18 436 -7 Q 446 -23 459 -26 Q 466 -29 473 -21 Q 506 12 504 62 Q 491 305 510 338 Q 520 353 510 361 Q 494 377 465 389 Q 450 395 409 374 Q 388 367 347 360 Q 334 359 342 352 Q 348 343 360 339 Q 373 336 430 353 Q 445 357 449 350 Q 455 335 456 191 Q 453 70 442 53 Q 438 47 419 52 Z" fill="black" /></g></svg>