<?xml version='1.0' encoding='utf-8'?>
<svg xmlns="http://www.w3.org/2000/svg" version="1.1" viewBox="0 0 1024 1024"><g transform="scale(1, -1) translate(0, -900)"><path d="M 320 156 Q 316 289 328 313 Q 338 328 328 336 Q 312 351 283 363 Q 271 369 224 345 Q 203 336 158 328 Q 146 327 153 320 Q 160 311 172 308 Q 190 305 250 326 Q 263 333 269 326 Q 275 308 275 206 L 275 187 Q 272 67 262 53 Q 261 53 208 56 Q 192 60 193 52 Q 233 19 256 -7 Q 266 -22 279 -26 Q 286 -29 293 -21 Q 323 15 324 73 Q 321 100 321 129 L 320 156 Z" fill="black" /></g></svg>