<?xml version='1.0' encoding='utf-8'?>
<svg xmlns="http://www.w3.org/2000/svg" version="1.1" viewBox="0 0 1024 1024"><g transform="scale(1, -1) translate(0, -900)"><path d="M 611 445 Q 611 632 640 719 Q 649 758 646 765 Q 642 771 635 775 Q 604 803 562 813 Q 541 817 532 807 Q 523 797 531 786 Q 555 767 558 697 Q 558 652 557 570 Q 547 261 571 177 Q 580 126 628 94 Q 712 43 888 66 Q 897 69 907 71 Q 955 84 975 104 Q 991 120 971 148 Q 950 200 940 267 Q 940 279 931 288 Q 919 294 916 268 Q 879 151 864 140 Q 855 137 844 133 Q 801 120 744 123 Q 701 122 674 133 Q 638 145 622 189 Q 607 237 610 421 L 611 445 Z" fill="black" /></g></svg>