<?xml version='1.0' encoding='utf-8'?>
<svg xmlns="http://www.w3.org/2000/svg" version="1.1" viewBox="0 0 1024 1024"><g transform="scale(1, -1) translate(0, -900)"><path d="M 407 632 Q 449 647 486 651 Q 493 652 495 649 Q 508 621 487 505 Q 478 469 466 446 Q 459 431 448 429 Q 442 426 402 434 Q 395 435 395 432 Q 395 429 403 422 Q 425 395 435 376 Q 439 364 447 364 Q 472 364 500 409 Q 527 457 548 606 Q 549 624 561 635 Q 571 645 570 651 Q 566 670 509 687 Q 491 693 442 671 Q 439 671 438 670 Q 365 646 328 638 Q 322 637 322 632 Q 323 626 336 624 Q 351 621 374 622 L 407 632 Z" fill="black" /></g></svg>