<?xml version='1.0' encoding='utf-8'?>
<svg xmlns="http://www.w3.org/2000/svg" version="1.1" viewBox="0 0 1024 1024"><g transform="scale(1, -1) translate(0, -900)"><path d="M 706 656 Q 755 674 798 681 Q 811 684 814 680 Q 823 667 817 630 Q 807 530 781 487 Q 766 459 742 463 Q 727 466 713 469 Q 691 476 707 455 Q 737 422 750 397 Q 768 378 784 395 Q 841 437 862 583 Q 868 653 887 681 Q 897 691 892 701 Q 883 711 838 729 Q 820 736 804 723 Q 789 713 729 695 Q 668 676 617 669 Q 602 668 600 660 Q 599 653 620 644 Q 642 632 658 639 Q 664 642 673 644 L 706 656 Z" fill="black" /></g></svg>