<?xml version='1.0' encoding='utf-8'?>
<svg xmlns="http://www.w3.org/2000/svg" version="1.1" viewBox="0 0 1024 1024"><g transform="scale(1, -1) translate(0, -900)"><path d="M 664 145 Q 805 -63 933 -86 Q 961 -83 955 -48 Q 945 -14 944 142 Q 944 155 938 157 Q 932 157 929 144 Q 916 107 905 72 Q 889 26 873 25 Q 849 26 800 68 Q 748 108 701 176 Q 700 179 697 181 L 667 229 Q 579 376 579 457 L 577 501 Q 578 526 584 545 Q 588 566 548 588 Q 542 592 536 594 C 510 609 471 611 487 586 Q 514 555 524 488 L 534 446 Q 570 304 637 189 L 664 145 Z" fill="black" /></g></svg>