<?xml version='1.0' encoding='utf-8'?>
<svg xmlns="http://www.w3.org/2000/svg" version="1.1" viewBox="0 0 1024 1024"><g transform="scale(1, -1) translate(0, -900)"><path d="M 569 384 Q 578 502 602 560 Q 617 593 596 611 Q 542 654 525 650 Q 509 644 516 625 Q 537 583 530 523 Q 511 160 552 109 Q 571 76 655 61 Q 716 51 813 51 Q 901 52 936 70 Q 969 86 956 120 Q 940 166 931 247 Q 930 265 922 270 Q 913 276 908 254 Q 886 158 869 142 Q 842 109 714 108 Q 645 111 616 123 Q 591 136 586 153 Q 565 207 566 355 L 569 384 Z" fill="black" /></g></svg>