<?xml version='1.0' encoding='utf-8'?>
<svg xmlns="http://www.w3.org/2000/svg" version="1.1" viewBox="0 0 1024 1024"><g transform="scale(1, -1) translate(0, -900)"><path d="M 667 331 Q 754 352 767 341 Q 779 332 779 298 Q 778 265 779 224 Q 780 196 770 182 Q 766 173 745 178 Q 697 182 695 181 Q 691 177 705 167 Q 748 130 774 100 Q 787 88 802 95 Q 812 99 821 122 Q 839 159 835 205 Q 829 305 838 340 Q 845 355 837 363 Q 818 375 785 388 Q 767 395 753 387 Q 723 374 668 361 L 616 350 Q 577 344 533 337 C 503 332 508 301 538 304 Q 547 304 558 306 Q 589 313 616 319 L 667 331 Z" fill="black" /></g></svg>