<?xml version='1.0' encoding='utf-8'?>
<svg xmlns="http://www.w3.org/2000/svg" version="1.1" viewBox="0 0 1024 1024"><g transform="scale(1, -1) translate(0, -900)"><path d="M 628 327 Q 628 328 629 328 L 633 365 Q 634 384 636 403 Q 637 466 641 526 L 643 557 Q 644 689 672 754 Q 679 769 667 780 Q 645 799 603 811 Q 578 818 568 810 Q 558 803 566 790 Q 590 753 593 703 Q 597 624 595 546 L 595 517 Q 592 448 586 380 Q 585 370 583 358 L 578 321 Q 559 210 495 145 Q 447 102 358 55 Q 345 48 345 43 Q 346 39 358 38 Q 376 34 418 49 Q 491 71 543 124 Q 604 188 623 292 L 628 327 Z" fill="black" /></g></svg>