<?xml version='1.0' encoding='utf-8'?>
<svg xmlns="http://www.w3.org/2000/svg" version="1.1" viewBox="0 0 1024 1024"><g transform="scale(1, -1) translate(0, -900)"><path d="M 719 72 Q 703 51 686 55 Q 661 61 623 70 Q 608 74 607 70 Q 607 66 624 51 Q 655 20 675 -19 Q 684 -35 693 -39 Q 700 -40 719 -27 Q 774 16 811 88 Q 842 149 876 318 Q 882 343 895 355 Q 908 365 896 381 Q 881 396 853 415 Q 831 428 766 412 Q 759 412 752 410 Q 719 401 585 386 Q 572 376 565 388 Q 568 403 632 481 Q 666 520 680 524 Q 690 528 689 533 Q 690 540 684 545 Q 665 564 638 575 Q 620 584 590 571 Q 530 547 482 546 Q 469 546 465 541 Q 464 537 468 529 Q 475 519 489 511 Q 501 502 533 509 Q 605 539 609 528 Q 582 453 510 384 Q 492 372 504 338 Q 507 329 537 337 L 561 345 Q 598 355 657 364 L 700 371 Q 761 380 791 380 Q 812 379 814 369 Q 832 294 765 143 Q 762 139 760 133 Q 747 100 719 72 Z" fill="black" /></g></svg>