<?xml version='1.0' encoding='utf-8'?>
<svg xmlns="http://www.w3.org/2000/svg" version="1.1" viewBox="0 0 1024 1024"><g transform="scale(1, -1) translate(0, -900)"><path d="M 633 187 Q 681 245 709 336 Q 719 370 739 388 Q 757 401 738 419 Q 719 437 685 451 Q 663 460 641 449 Q 581 419 499 408 Q 472 405 460 398 Q 451 391 470 382 Q 497 367 537 380 Q 585 390 632 402 Q 651 409 652 387 Q 652 306 594 222 L 566 187 Q 559 181 552 173 Q 494 124 342 82 Q 326 79 335 70 Q 342 63 372 66 Q 525 82 599 148 L 633 187 Z" fill="black" /></g></svg>