<?xml version='1.0' encoding='utf-8'?>
<svg xmlns="http://www.w3.org/2000/svg" version="1.1" viewBox="0 0 1024 1024"><g transform="scale(1, -1) translate(0, -900)"><path d="M 523 558 Q 553 546 600 555 Q 766 603 786 581 Q 805 559 807 507 Q 813 345 801 240 Q 779 75 745 57 Q 741 54 635 71 Q 625 72 622 69 Q 619 62 637 49 Q 688 10 715 -27 Q 736 -57 754 -51 Q 805 -36 841 94 Q 862 181 871 465 Q 872 538 891 564 Q 909 586 885 604 Q 809 652 776 639 Q 695 615 545 584 C 516 578 494 564 523 558 Z" fill="black" /></g></svg>