<?xml version='1.0' encoding='utf-8'?>
<svg xmlns="http://www.w3.org/2000/svg" version="1.1" viewBox="0 0 1024 1024"><g transform="scale(1, -1) translate(0, -900)"><path d="M 648 437 Q 649 494 650 557 L 651 601 Q 652 695 671 760 Q 680 775 677 789 Q 670 799 614 833 Q 590 849 569 834 Q 565 830 570 814 Q 604 763 606 712 Q 606 654 608 588 L 608 546 Q 607 489 605 429 L 602 340 Q 602 186 579 94 Q 561 69 574 32 Q 580 8 591 -18 Q 598 -36 606 -39 Q 613 -46 620 -37 Q 627 -33 638 -12 Q 648 13 647 45 Q 646 85 647 361 L 648 437 Z" fill="black" /></g></svg>