<?xml version='1.0' encoding='utf-8'?>
<svg xmlns="http://www.w3.org/2000/svg" version="1.1" viewBox="0 0 1024 1024"><g transform="scale(1, -1) translate(0, -900)"><path d="M 809 339 Q 834 376 857 420 Q 872 451 882 460 Q 892 470 887 481 Q 881 491 831 509 Q 819 513 799 501 Q 765 483 684 469 Q 671 468 681 455 Q 691 445 721 451 Q 796 472 801 462 Q 805 455 796 423 Q 790 398 771 364 L 752 332 Q 724 287 676 240 Q 672 239 669 235 C 659 227 659 227 668 228 L 674 228 Q 690 229 721 248 Q 749 267 781 303 L 809 339 Z" fill="black" /></g></svg>