<?xml version='1.0' encoding='utf-8'?>
<svg xmlns="http://www.w3.org/2000/svg" version="1.1" viewBox="0 0 1024 1024"><g transform="scale(1, -1) translate(0, -900)"><path d="M 681 516 Q 739 462 795 436 Q 877 402 902 409 Q 917 413 905 449 Q 898 471 892 528 Q 893 558 883 569 Q 876 578 872 563 Q 851 482 834 479 Q 815 470 763 500 Q 735 516 712 536 L 687 561 Q 653 595 618 649 L 595 687 Q 565 741 561 786 Q 561 817 520 824 Q 474 834 452 825 Q 446 821 446 813 Q 446 806 456 798 Q 483 788 544 687 Q 548 678 556 668 L 579 634 Q 616 580 659 536 L 681 516 Z" fill="black" /></g></svg>