<?xml version='1.0' encoding='utf-8'?>
<svg xmlns="http://www.w3.org/2000/svg" version="1.1" viewBox="0 0 1024 1024"><g transform="scale(1, -1) translate(0, -900)"><path d="M 728 372 Q 744 347 761 337 Q 771 330 786 350 Q 799 372 830 490 Q 839 521 862 545 Q 875 557 864 571 Q 849 587 807 613 Q 791 622 703 601 Q 700 601 570 576 Q 521 566 480 557 C 451 551 462 514 490 524 Q 496 530 581 546 L 633 557 Q 753 584 771 567 Q 781 554 779 540 Q 760 435 745 405 C 734 377 726 375 728 372 Z" fill="black" /></g></svg>