<?xml version='1.0' encoding='utf-8'?>
<svg xmlns="http://www.w3.org/2000/svg" version="1.1" viewBox="0 0 1024 1024"><g transform="scale(1, -1) translate(0, -900)"><path d="M 650 282 Q 696 292 751 293 Q 764 292 766 287 Q 781 262 755 128 Q 737 65 724 39 Q 714 21 701 18 Q 688 17 621 42 Q 611 46 611 40 Q 610 36 621 25 Q 658 -23 675 -56 Q 682 -77 696 -77 Q 709 -78 725 -66 Q 779 -30 804 62 Q 823 126 844 225 Q 848 247 863 261 Q 878 274 877 283 Q 876 290 857 306 Q 830 328 794 341 Q 770 350 711 332 Q 698 331 683 326 Q 581 302 505 296 C 475 293 469 293 493 283 Q 496 279 506 275 L 546 270 Q 561 270 578 273 Q 600 276 621 278 L 650 282 Z" fill="black" /></g></svg>