<?xml version='1.0' encoding='utf-8'?>
<svg xmlns="http://www.w3.org/2000/svg" version="1.1" viewBox="0 0 1024 1024"><g transform="scale(1, -1) translate(0, -900)"><path d="M 717 470 Q 729 454 741 446 Q 750 439 764 457 Q 776 476 803 575 Q 810 603 831 624 Q 843 634 833 647 Q 820 662 782 685 Q 767 691 700 674 Q 688 674 573 646 Q 522 633 484 626 C 455 620 476 588 504 598 Q 504 599 506 599 Q 543 612 598 624 L 630 631 Q 732 656 751 645 Q 761 636 758 621 Q 734 507 719 500 C 706 483 706 483 717 470 Z" fill="black" /></g></svg>