<?xml version='1.0' encoding='utf-8'?>
<svg xmlns="http://www.w3.org/2000/svg" version="1.1" viewBox="0 0 1024 1024"><g transform="scale(1, -1) translate(0, -900)"><path d="M 846 673 Q 859 677 851 690 Q 838 705 823 713 Q 813 719 794 710 Q 772 698 742 698 Q 723 698 717 712 Q 714 722 726 747 Q 732 763 751 775 Q 767 787 753 799 Q 734 815 713 826 Q 704 830 689 823 Q 671 814 599 790 C 571 780 570 754 599 761 Q 605 761 661 781 Q 674 788 678 787 Q 685 786 685 775 Q 676 714 677 705 Q 681 686 699 673 Q 724 658 773 659 Q 822 660 846 673 Z" fill="black" /></g></svg>