<?xml version='1.0' encoding='utf-8'?>
<svg xmlns="http://www.w3.org/2000/svg" version="1.1" viewBox="0 0 1024 1024"><g transform="scale(1, -1) translate(0, -900)"><path d="M 806 487 Q 821 493 812 508 Q 797 527 779 538 Q 769 545 744 536 Q 696 514 637 517 Q 600 518 588 546 Q 572 571 578 647 Q 579 693 619 743 Q 635 759 618 773 Q 594 792 567 803 Q 557 807 539 797 Q 485 773 396 753 C 367 746 380 711 409 718 Q 469 733 531 750 Q 540 746 538 731 Q 534 563 536 552 Q 542 506 577 482 Q 617 460 693 463 Q 768 466 806 487 Z" fill="black" /></g></svg>