<?xml version='1.0' encoding='utf-8'?>
<svg xmlns="http://www.w3.org/2000/svg" version="1.1" viewBox="0 0 1024 1024"><g transform="scale(1, -1) translate(0, -900)"><path d="M 694 535 Q 709 551 724 571 Q 736 593 754 605 Q 770 617 761 628 Q 752 640 728 651 Q 710 660 649 637 Q 559 619 551 618 Q 539 617 535 612 Q 532 605 547 599 Q 577 587 618 599 Q 663 615 671 616 Q 684 615 680 600 Q 670 569 650 546 L 622 523 Q 555 496 525 489 Q 513 488 521 479 Q 554 470 657 507 Q 657 508 659 508 L 694 535 Z" fill="black" /></g></svg>