<?xml version='1.0' encoding='utf-8'?>
<svg xmlns="http://www.w3.org/2000/svg" version="1.1" viewBox="0 0 1024 1024"><g transform="scale(1, -1) translate(0, -900)"><path d="M 626 792 Q 627 793 632 795 Q 656 804 676 811 Q 688 818 693 816 Q 699 815 699 804 Q 684 723 687 712 Q 693 696 709 685 Q 733 673 778 677 Q 823 681 844 695 Q 854 699 847 711 Q 834 724 819 731 Q 809 734 792 725 Q 741 692 724 719 Q 720 732 732 765 Q 738 786 761 804 Q 776 814 763 827 Q 745 843 726 853 Q 717 857 704 851 Q 698 850 617 821 C 589 811 599 780 626 792 Z" fill="black" /></g></svg>