<?xml version='1.0' encoding='utf-8'?>
<svg xmlns="http://www.w3.org/2000/svg" version="1.1" viewBox="0 0 1024 1024"><g transform="scale(1, -1) translate(0, -900)"><path d="M 269 288 Q 269 348 268 408 L 268 440 Q 267 504 268 551 L 269 580 Q 270 632 274 654 Q 274 660 273 664 L 261 682 Q 260 683 259 684 Q 234 703 205 711 Q 195 714 188 704 Q 184 698 193 686 Q 242 569 226 297 Q 225 290 224 274 L 219 222 Q 212 164 194 105 Q 179 48 215 5 Q 228 -10 238 5 Q 268 42 269 232 Q 269 238 269 244 L 269 288 Z" fill="black" /></g></svg>