<?xml version='1.0' encoding='utf-8'?>
<svg xmlns="http://www.w3.org/2000/svg" version="1.1" viewBox="0 0 1024 1024"><g transform="scale(1, -1) translate(0, -900)"><path d="M 611 678 Q 686 708 691 707 Q 698 704 698 691 Q 685 556 692 532 Q 699 507 721 492 Q 754 474 817 476 Q 878 479 911 497 Q 924 501 916 517 Q 901 535 884 544 Q 872 550 850 540 Q 816 524 773 524 Q 745 525 737 544 Q 725 565 736 624 Q 740 661 775 698 Q 791 713 775 726 Q 753 745 727 756 Q 717 760 700 751 Q 640 724 591 710 C 562 701 583 667 611 678 Z" fill="black" /></g></svg>