<?xml version='1.0' encoding='utf-8'?>
<svg xmlns="http://www.w3.org/2000/svg" version="1.1" viewBox="0 0 1024 1024"><g transform="scale(1, -1) translate(0, -900)"><path d="M 688 187 Q 722 244 754 331 Q 767 361 786 379 Q 805 395 791 408 Q 778 420 747 431 Q 723 438 696 424 Q 671 414 634 403 Q 598 393 539 385 Q 526 384 521 378 Q 517 371 535 363 Q 571 350 619 363 Q 668 382 678 382 Q 703 379 696 353 Q 680 275 649 220 L 626 184 Q 560 109 448 72 Q 435 66 446 59 Q 452 55 491 57 Q 579 66 657 146 L 688 187 Z" fill="black" /></g></svg>