<?xml version='1.0' encoding='utf-8'?>
<svg xmlns="http://www.w3.org/2000/svg" version="1.1" viewBox="0 0 1024 1024"><g transform="scale(1, -1) translate(0, -900)"><path d="M 716 543 Q 767 618 768 618 Q 781 628 773 639 Q 764 648 743 657 Q 727 664 707 655 Q 685 646 656 638 Q 628 629 578 624 Q 568 623 565 618 Q 562 614 575 608 Q 602 598 637 608 Q 685 624 693 625 Q 706 624 703 608 Q 693 577 678 552 L 655 527 Q 616 497 552 480 Q 542 479 549 471 Q 601 456 683 509 Q 684 512 688 513 L 716 543 Z" fill="black" /></g></svg>