<?xml version='1.0' encoding='utf-8'?>
<svg xmlns="http://www.w3.org/2000/svg" version="1.1" viewBox="0 0 1024 1024"><g transform="scale(1, -1) translate(0, -900)"><path d="M 599 659 Q 605 662 613 664 Q 691 697 696 697 Q 703 696 704 682 Q 686 516 694 485 Q 701 460 726 446 Q 760 430 824 435 Q 885 439 917 460 Q 930 467 921 481 Q 905 499 885 508 Q 873 512 850 501 Q 819 483 778 481 Q 751 480 742 497 Q 727 522 739 596 Q 743 642 785 688 Q 803 704 785 718 Q 760 737 734 749 Q 724 753 707 744 Q 646 711 577 694 C 548 686 571 649 599 659 Z" fill="black" /></g></svg>