<?xml version='1.0' encoding='utf-8'?>
<svg xmlns="http://www.w3.org/2000/svg" version="1.1" viewBox="0 0 1024 1024"><g transform="scale(1, -1) translate(0, -900)"><path d="M 617 691 Q 617 698 688 722 Q 697 726 703 725 Q 710 724 711 710 Q 708 670 705 634 Q 698 592 708 564 Q 715 542 736 530 Q 767 515 823 521 Q 878 528 905 545 Q 918 552 909 566 Q 893 582 874 590 Q 862 594 841 582 Q 816 567 782 564 Q 761 563 752 577 Q 742 596 752 651 Q 756 685 788 718 Q 804 734 787 747 Q 763 765 738 775 Q 728 779 712 770 Q 670 748 611 727 C 583 717 592 674 617 691 Z" fill="black" /></g></svg>