<?xml version='1.0' encoding='utf-8'?>
<svg xmlns="http://www.w3.org/2000/svg" version="1.1" viewBox="0 0 1024 1024"><g transform="scale(1, -1) translate(0, -900)"><path d="M 703 178 Q 742 245 767 350 Q 771 383 788 401 Q 801 416 783 429 Q 762 442 730 451 Q 709 457 691 444 Q 648 414 586 397 Q 561 391 552 384 Q 545 377 562 370 Q 587 360 623 376 Q 656 389 688 401 Q 706 408 708 389 Q 708 307 666 213 L 644 172 Q 632 156 621 139 Q 569 81 435 34 Q 422 30 431 22 Q 438 18 465 23 Q 553 36 605 66 Q 644 90 676 135 L 703 178 Z" fill="black" /></g></svg>