<?xml version='1.0' encoding='utf-8'?>
<svg xmlns="http://www.w3.org/2000/svg" version="1.1" viewBox="0 0 1024 1024"><g transform="scale(1, -1) translate(0, -900)"><path d="M 890 487 Q 903 491 895 506 Q 882 522 866 531 Q 856 537 836 528 Q 806 515 770 516 Q 748 517 740 534 Q 727 556 739 618 Q 742 655 779 695 Q 794 710 779 721 Q 757 737 735 747 Q 725 751 710 742 Q 676 723 647 711 Q 632 707 618 702 C 590 693 595 658 623 669 Q 635 672 683 696 Q 696 703 701 703 Q 708 702 709 691 Q 705 645 699 604 Q 689 556 699 524 Q 703 502 724 488 Q 752 472 808 472 Q 862 473 890 487 Z" fill="black" /></g></svg>