<?xml version='1.0' encoding='utf-8'?>
<svg xmlns="http://www.w3.org/2000/svg" version="1.1" viewBox="0 0 1024 1024"><g transform="scale(1, -1) translate(0, -900)"><path d="M 690 170 Q 690 171 691 171 Q 728 226 751 313 Q 758 346 777 363 Q 792 376 774 391 Q 755 407 723 419 Q 702 426 682 415 Q 634 391 569 381 Q 544 380 533 373 Q 526 367 542 358 Q 566 345 603 356 Q 639 363 674 372 Q 696 379 695 354 Q 695 285 654 206 L 631 171 Q 588 111 448 65 Q 433 61 443 54 Q 450 48 477 53 Q 600 69 660 131 L 690 170 Z" fill="black" /></g></svg>