<?xml version='1.0' encoding='utf-8'?>
<svg xmlns="http://www.w3.org/2000/svg" version="1.1" viewBox="0 0 1024 1024"><g transform="scale(1, -1) translate(0, -900)"><path d="M 364 273 Q 403 283 437 286 Q 461 287 453 299 Q 446 309 433 314 Q 423 318 366 300 L 321 289 Q 234 273 234 272 Q 233 273 234 280 Q 255 326 285 384 L 311 431 Q 326 458 335 464 Q 345 473 333 489 Q 314 511 299 523 Q 289 529 281 528 Q 274 525 278 507 Q 281 489 260 418 L 242 373 Q 211 303 180 271 Q 167 259 170 247 Q 174 231 183 223 Q 190 216 199 219 Q 232 237 321 263 L 364 273 Z" fill="black" /></g></svg>