<?xml version='1.0' encoding='utf-8'?>
<svg xmlns="http://www.w3.org/2000/svg" version="1.1" viewBox="0 0 1024 1024"><g transform="scale(1, -1) translate(0, -900)"><path d="M 258 391 Q 261 400 303 480 L 321 520 Q 325 530 332 538 Q 342 547 340 559 Q 331 577 310 596 Q 298 609 287 608 Q 277 605 278 593 Q 282 563 263 511 L 261 505 L 244 464 Q 186 341 127 277 L 89 241 Q 67 219 44 199 Q 38 195 35 191 Q 31 184 39 182 Q 75 182 157 256 Q 164 265 174 273 Q 202 306 230 345 L 258 391 Z" fill="black" /></g></svg>