<?xml version='1.0' encoding='utf-8'?>
<svg xmlns="http://www.w3.org/2000/svg" version="1.1" viewBox="0 0 1024 1024"><g transform="scale(1, -1) translate(0, -900)"><path d="M 909 490 Q 922 494 915 509 Q 902 527 886 536 Q 876 543 853 534 Q 820 521 780 523 Q 755 524 747 544 Q 737 563 744 619 Q 745 653 778 688 Q 794 703 779 715 Q 757 734 733 744 Q 723 748 707 739 Q 649 715 594 706 C 564 701 590 665 619 674 Q 631 677 673 693 Q 692 700 699 697 Q 706 693 705 679 Q 701 549 703 538 Q 703 513 731 492 Q 762 474 821 474 Q 879 474 909 490 Z" fill="black" /></g></svg>