<?xml version='1.0' encoding='utf-8'?>
<svg xmlns="http://www.w3.org/2000/svg" version="1.1" viewBox="0 0 1024 1024"><g transform="scale(1, -1) translate(0, -900)"><path d="M 386 427 Q 402 402 417 394 Q 427 387 440 406 Q 452 425 477 536 Q 484 564 504 585 Q 516 597 505 609 Q 492 622 454 645 Q 438 652 379 635 Q 358 632 327 623 L 284 613 Q 268 612 252 606 Q 204 593 167 586 C 138 580 160 548 188 558 Q 188 559 190 559 Q 227 572 285 585 L 327 595 Q 408 613 423 604 Q 435 595 431 579 Q 412 465 398 450 C 386 427 386 427 386 427 Z" fill="black" /></g></svg>