<?xml version='1.0' encoding='utf-8'?>
<svg xmlns="http://www.w3.org/2000/svg" version="1.1" viewBox="0 0 1024 1024"><g transform="scale(1, -1) translate(0, -900)"><path d="M 389 432 Q 405 405 421 398 Q 431 391 444 410 Q 460 438 490 596 Q 497 623 517 643 Q 529 653 519 665 Q 506 680 470 702 Q 449 711 376 687 Q 355 681 339 678 Q 326 677 331 668 Q 335 661 348 655 Q 358 651 370 654 Q 430 672 435 665 Q 450 647 447 630 Q 443 605 438 582 L 431 549 Q 416 479 406 458 C 395 430 385 438 389 432 Z" fill="black" /></g></svg>