<?xml version='1.0' encoding='utf-8'?>
<svg xmlns="http://www.w3.org/2000/svg" version="1.1" viewBox="0 0 1024 1024"><g transform="scale(1, -1) translate(0, -900)"><path d="M 610 670 Q 625 669 681 695 Q 699 704 706 701 Q 713 698 714 684 Q 710 632 703 587 Q 694 533 705 498 Q 712 473 734 458 Q 767 439 830 442 Q 891 445 924 462 Q 939 469 929 485 Q 913 504 893 514 Q 880 520 856 509 Q 826 493 787 493 Q 762 493 754 510 Q 741 535 754 604 Q 758 647 799 691 Q 818 707 799 722 Q 774 743 746 755 Q 736 761 718 751 Q 667 724 595 706 C 566 698 581 664 610 670 Z" fill="black" /></g></svg>