<?xml version='1.0' encoding='utf-8'?>
<svg xmlns="http://www.w3.org/2000/svg" version="1.1" viewBox="0 0 1024 1024"><g transform="scale(1, -1) translate(0, -900)"><path d="M 741 482 Q 744 656 754 679 Q 767 703 756 710 Q 749 723 691 759 Q 676 772 654 761 Q 546 731 369 711 C 339 707 363 670 393 675 Q 406 676 423 680 Q 636 728 665 700 Q 678 694 680 670 Q 687 561 687 478 L 686 434 Q 686 256 636 176 Q 635 176 635 174 C 621 147 598 136 602 128 Q 615 107 623 89 Q 648 67 664 82 Q 719 155 740 434 L 741 482 Z" fill="black" /></g></svg>