<?xml version='1.0' encoding='utf-8'?>
<svg xmlns="http://www.w3.org/2000/svg" version="1.1" viewBox="0 0 1024 1024"><g transform="scale(1, -1) translate(0, -900)"><path d="M 369 711 Q 329 742 318 732 Q 312 722 313 711 Q 332 680 333 642 Q 333 554 316 447 L 309 404 Q 279 236 229 183 Q 213 161 252 123 Q 261 114 275 123 Q 345 156 507 145 Q 556 141 602 128 C 631 121 661 158 635 174 Q 596 207 531 196 Q 420 196 316 184 Q 295 181 301 199 Q 328 319 347 409 L 356 451 Q 375 551 383 610 Q 389 673 393 675 C 397 692 394 694 369 711 Z" fill="black" /></g></svg>