<?xml version='1.0' encoding='utf-8'?>
<svg xmlns="http://www.w3.org/2000/svg" version="1.1" viewBox="0 0 1024 1024"><g transform="scale(1, -1) translate(0, -900)"><path d="M 618 248 Q 585 101 546 72 Q 540 68 454 88 Q 439 89 444 77 Q 448 68 468 56 Q 513 17 534 -13 Q 562 -44 583 -24 Q 640 43 677 240 L 685 287 Q 698 378 708 483 L 712 531 Q 716 657 734 695 Q 747 717 731 735 Q 715 750 674 778 Q 659 791 574 764 Q 415 734 357 726 C 327 721 351 688 381 693 Q 396 693 415 698 Q 613 749 642 725 Q 657 716 657 686 Q 656 598 652 523 L 650 482 Q 643 385 627 287 L 618 248 Z" fill="black" /></g></svg>