<?xml version='1.0' encoding='utf-8'?>
<svg xmlns="http://www.w3.org/2000/svg" version="1.1" viewBox="0 0 1024 1024"><g transform="scale(1, -1) translate(0, -900)"><path d="M 621 687 Q 627 687 696 715 Q 711 724 717 722 Q 724 721 725 708 Q 719 659 713 617 Q 703 568 712 533 Q 718 509 740 494 Q 771 476 833 478 Q 891 479 923 497 Q 936 501 928 517 Q 913 535 896 544 Q 884 550 862 540 Q 831 525 791 526 Q 766 526 758 544 Q 745 566 758 632 Q 764 672 802 712 Q 820 728 803 741 Q 781 760 755 771 Q 745 775 728 767 Q 677 739 606 720 C 577 712 592 678 621 687 Z" fill="black" /></g></svg>