<?xml version='1.0' encoding='utf-8'?>
<svg xmlns="http://www.w3.org/2000/svg" version="1.1" viewBox="0 0 1024 1024"><g transform="scale(1, -1) translate(0, -900)"><path d="M 288 487 Q 186 480 78 470 Q 56 469 71 451 Q 86 436 104 430 Q 126 423 142 427 Q 208 443 280 454 L 327 460 Q 376 469 466 474 L 511 478 Q 574 482 650 482 L 708 483 Q 768 484 836 481 Q 923 478 930 487 Q 936 499 919 514 Q 862 559 799 544 Q 759 538 712 531 L 652 523 Q 588 516 516 507 L 471 503 Q 404 499 335 491 L 288 487 Z" fill="black" /></g></svg>