<?xml version='1.0' encoding='utf-8'?>
<svg xmlns="http://www.w3.org/2000/svg" version="1.1" viewBox="0 0 1024 1024"><g transform="scale(1, -1) translate(0, -900)"><path d="M 163 695 Q 153 704 131 715 Q 112 725 103 719 Q 96 712 104 697 Q 120 663 123 602 Q 136 190 89 111 Q 79 96 89 76 Q 98 55 108 47 Q 118 40 135 52 Q 229 130 520 153 Q 544 154 544 166 Q 543 181 512 198 Q 494 208 376 178 Q 228 148 185 134 Q 161 125 161 151 Q 168 343 171 584 Q 171 635 177 665 C 180 684 180 684 163 695 Z" fill="black" /></g></svg>