<?xml version='1.0' encoding='utf-8'?>
<svg xmlns="http://www.w3.org/2000/svg" version="1.1" viewBox="0 0 1024 1024"><g transform="scale(1, -1) translate(0, -900)"><path d="M 723 506 Q 727 671 740 705 Q 755 729 743 737 Q 736 750 676 788 Q 660 801 611 783 Q 529 762 383 734 C 354 728 367 689 396 696 Q 408 697 423 702 Q 618 756 646 731 Q 662 724 663 692 Q 664 586 664 498 L 662 456 Q 659 333 639 237 L 630 195 Q 596 78 572 59 Q 565 55 531 67 Q 506 77 490 83 Q 477 86 480 73 Q 483 64 502 50 Q 544 7 563 -26 Q 594 -56 614 -36 Q 657 19 690 185 L 699 237 Q 708 276 721 457 L 723 506 Z" fill="black" /></g></svg>