<?xml version='1.0' encoding='utf-8'?>
<svg xmlns="http://www.w3.org/2000/svg" version="1.1" viewBox="0 0 1024 1024"><g transform="scale(1, -1) translate(0, -900)"><path d="M 740 434 Q 825 433 929 418 Q 954 415 960 424 Q 969 437 956 450 Q 926 480 882 501 Q 867 508 840 500 Q 798 490 741 482 L 687 478 Q 605 474 535 466 L 491 463 Q 418 459 356 451 L 316 447 Q 91 435 86 434 Q 73 435 70 423 Q 69 410 88 395 Q 133 362 168 371 Q 240 398 309 404 L 347 409 Q 402 416 483 422 L 529 426 Q 664 436 686 434 L 740 434 Z" fill="black" /></g></svg>