<?xml version='1.0' encoding='utf-8'?>
<svg xmlns="http://www.w3.org/2000/svg" version="1.1" viewBox="0 0 1024 1024"><g transform="scale(1, -1) translate(0, -900)"><path d="M 576 459 Q 586 642 603 705 Q 613 727 581 752 Q 554 770 532 782 Q 513 795 493 784 Q 480 777 503 747 Q 528 708 530 612 Q 530 534 523 377 Q 508 190 553 128 Q 601 80 694 70 Q 731 67 781 67 Q 860 67 919 92 Q 958 104 944 133 Q 919 190 903 289 Q 900 305 893 312 Q 884 319 881 302 Q 869 244 855 200 Q 849 170 823 153 Q 796 126 673 135 Q 625 142 609 153 Q 557 190 574 412 Q 574 422 575 431 L 576 459 Z" fill="black" /></g></svg>