<?xml version='1.0' encoding='utf-8'?>
<svg xmlns="http://www.w3.org/2000/svg" version="1.1" viewBox="0 0 1024 1024"><g transform="scale(1, -1) translate(0, -900)"><path d="M 301 245 Q 319 224 333 218 Q 343 211 356 232 Q 372 269 393 461 Q 400 491 420 515 Q 432 528 420 540 Q 405 556 364 578 Q 349 584 280 568 Q 268 568 98 531 C 69 525 84 492 113 500 Q 131 506 191 517 L 225 523 Q 255 529 296 534 Q 321 538 329 529 Q 348 510 346 488 Q 327 302 310 276 C 299 248 299 248 301 245 Z" fill="black" /></g></svg>