<?xml version='1.0' encoding='utf-8'?>
<svg xmlns="http://www.w3.org/2000/svg" version="1.1" viewBox="0 0 1024 1024"><g transform="scale(1, -1) translate(0, -900)"><path d="M 593 199 Q 599 260 613 290 Q 625 321 606 337 Q 555 376 540 371 Q 525 365 532 348 Q 551 311 548 255 Q 541 72 567 38 Q 588 5 661 -6 Q 716 -15 802 -13 Q 880 -10 910 6 Q 940 22 928 53 Q 910 96 899 173 Q 898 189 890 194 Q 881 198 878 179 Q 862 86 847 69 Q 826 42 712 38 Q 654 39 627 49 Q 605 59 600 75 Q 591 102 591 175 L 593 199 Z" fill="black" /></g></svg>