<?xml version='1.0' encoding='utf-8'?>
<svg xmlns="http://www.w3.org/2000/svg" version="1.1" viewBox="0 0 1024 1024"><g transform="scale(1, -1) translate(0, -900)"><path d="M 565 657 Q 565 723 583 769 Q 593 796 576 811 Q 530 845 515 841 Q 502 835 509 820 Q 528 786 524 736 Q 523 576 547 543 Q 565 518 629 507 Q 678 498 755 501 Q 824 502 852 517 Q 880 533 867 562 Q 849 601 835 667 Q 832 682 825 686 Q 818 690 815 672 Q 806 588 794 573 Q 770 551 674 546 Q 622 547 599 557 Q 569 573 566 638 L 565 657 Z" fill="black" /></g></svg>