<?xml version='1.0' encoding='utf-8'?>
<svg xmlns="http://www.w3.org/2000/svg" version="1.1" viewBox="0 0 1024 1024"><g transform="scale(1, -1) translate(0, -900)"><path d="M 270 454 Q 277 583 282 604 Q 286 623 273 633 Q 261 646 213 660 Q 195 664 188 658 Q 181 651 193 631 Q 212 601 219 563 Q 226 527 222 396 Q 218 287 196 228 Q 189 188 147 144 Q 134 131 142 107 Q 151 76 167 61 Q 180 51 195 67 Q 250 131 416 264 Q 434 276 436 286 Q 439 293 431 292 Q 419 291 279 209 Q 267 203 263 207 Q 256 211 258 230 Q 262 341 268 419 L 270 454 Z" fill="black" /></g></svg>