<?xml version='1.0' encoding='utf-8'?>
<svg xmlns="http://www.w3.org/2000/svg" version="1.1" viewBox="0 0 1024 1024"><g transform="scale(1, -1) translate(0, -900)"><path d="M 308 622 Q 309 637 309 649 Q 309 667 313 682 Q 317 694 308 704 Q 286 723 267 733 Q 251 740 243 735 Q 233 729 241 715 Q 271 651 262 547 Q 256 504 218 463 Q 194 433 231 394 Q 241 387 253 401 Q 274 426 439 515 Q 458 524 463 531 Q 467 538 459 540 Q 444 543 322 498 Q 300 491 302 510 Q 306 553 308 592 L 308 622 Z" fill="black" /></g></svg>