<?xml version='1.0' encoding='utf-8'?>
<svg xmlns="http://www.w3.org/2000/svg" version="1.1" viewBox="0 0 1024 1024"><g transform="scale(1, -1) translate(0, -900)"><path d="M 581 640 Q 581 706 600 754 Q 612 782 593 798 Q 544 834 530 830 Q 515 824 523 808 Q 542 772 538 719 Q 537 545 561 510 Q 586 485 638 474 Q 684 464 760 463 Q 827 462 856 475 Q 886 490 874 520 Q 858 560 846 630 Q 845 645 837 650 Q 830 654 826 635 Q 810 551 798 536 Q 774 512 684 515 Q 635 518 613 527 Q 583 545 581 623 L 581 640 Z" fill="black" /></g></svg>