<?xml version='1.0' encoding='utf-8'?>
<svg xmlns="http://www.w3.org/2000/svg" version="1.1" viewBox="0 0 1024 1024"><g transform="scale(1, -1) translate(0, -900)"><path d="M 561 624 Q 565 696 580 729 Q 592 759 573 774 Q 524 810 510 806 Q 495 800 503 784 Q 522 748 518 695 Q 515 511 539 478 Q 558 448 628 437 Q 679 428 759 430 Q 832 433 861 448 Q 889 464 877 494 Q 861 531 847 598 Q 844 614 837 618 Q 830 622 827 603 Q 814 522 801 507 Q 777 480 675 479 Q 620 480 596 489 Q 577 499 571 513 Q 561 540 561 607 L 561 624 Z" fill="black" /></g></svg>