<?xml version='1.0' encoding='utf-8'?>
<svg xmlns="http://www.w3.org/2000/svg" version="1.1" viewBox="0 0 1024 1024"><g transform="scale(1, -1) translate(0, -900)"><path d="M 268 548 Q 256 558 240 567 Q 222 574 219 566 Q 215 559 221 550 Q 237 522 233 490 Q 226 436 213 386 L 203 349 Q 181 277 141 237 Q 125 224 127 210 Q 131 197 147 182 Q 162 169 180 185 Q 234 221 369 204 L 425 196 Q 477 192 480 191 Q 490 195 486 207 Q 479 223 461 236 Q 451 246 433 248 L 379 248 Q 319 249 217 237 Q 202 236 208 253 Q 226 302 242 358 L 252 392 Q 279 506 281 521 C 284 536 284 536 268 548 Z" fill="black" /></g></svg>