<?xml version='1.0' encoding='utf-8'?>
<svg xmlns="http://www.w3.org/2000/svg" version="1.1" viewBox="0 0 1024 1024"><g transform="scale(1, -1) translate(0, -900)"><path d="M 988 107 Q 975 137 959 224 Q 959 237 953 242 Q 947 245 944 230 Q 925 136 910 107 Q 903 97 883 93 Q 835 84 794 104 Q 761 125 761 190 Q 764 254 778 337 Q 782 353 772 362 Q 760 374 739 382 Q 729 386 720 382 Q 714 378 719 362 Q 729 328 727 293 Q 715 106 749 74 Q 803 20 926 43 Q 927 44 930 44 Q 957 51 983 71 Q 999 84 988 107 Z" fill="black" /></g></svg>