<?xml version='1.0' encoding='utf-8'?>
<svg xmlns="http://www.w3.org/2000/svg" version="1.1" viewBox="0 0 1024 1024"><g transform="scale(1, -1) translate(0, -900)"><path d="M 976 96 Q 992 112 972 142 Q 950 196 940 266 Q 939 276 930 284 Q 920 288 918 266 Q 897 149 893 142 Q 889 132 870 128 Q 801 109 749 135 Q 722 147 710 183 Q 691 241 698 430 L 699 453 Q 699 630 726 710 Q 735 746 732 752 Q 728 758 722 762 Q 695 786 659 795 Q 640 799 632 790 Q 625 781 632 772 Q 651 753 655 688 Q 655 645 653 562 Q 641 262 665 172 Q 674 126 710 99 Q 774 50 911 67 Q 917 68 925 70 Q 961 80 976 96 Z" fill="black" /></g></svg>