<?xml version='1.0' encoding='utf-8'?>
<svg xmlns="http://www.w3.org/2000/svg" version="1.1" viewBox="0 0 1024 1024"><g transform="scale(1, -1) translate(0, -900)"><path d="M 974 97 Q 955 158 947 264 Q 946 280 938 286 Q 929 292 925 270 Q 909 140 891 116 Q 828 50 576 58 Q 440 67 381 93 Q 330 121 321 156 Q 305 199 302 302 L 302 347 Q 306 402 313 444 L 322 491 Q 328 519 337 539 Q 350 570 331 588 Q 307 607 291 616 C 266 633 246 629 254 600 Q 273 561 266 471 L 264 431 Q 261 379 261 333 L 260 288 Q 260 188 271 154 Q 287 93 332 59 Q 423 -10 749 6 Q 896 16 953 47 Q 986 63 974 97 Z" fill="black" /></g></svg>