<?xml version='1.0' encoding='utf-8'?>
<svg xmlns="http://www.w3.org/2000/svg" version="1.1" viewBox="0 0 1024 1024"><g transform="scale(1, -1) translate(0, -900)"><path d="M 552 505 Q 555 527 561 554 Q 565 567 557 576 Q 547 586 529 594 Q 519 597 513 594 Q 507 591 511 577 Q 520 546 517 518 Q 513 460 517 443 Q 520 425 538 411 Q 601 366 755 393 Q 765 396 778 398 Q 815 408 853 431 Q 866 440 858 457 Q 851 473 841 522 Q 842 534 837 537 Q 833 540 828 528 Q 803 476 789 461 Q 774 448 736 438 Q 654 417 584 434 Q 559 443 554 456 Q 551 463 551 494 L 552 505 Z" fill="black" /></g></svg>