<?xml version='1.0' encoding='utf-8'?>
<svg xmlns="http://www.w3.org/2000/svg" version="1.1" viewBox="0 0 1024 1024"><g transform="scale(1, -1) translate(0, -900)"><path d="M 987 108 Q 962 174 948 289 Q 945 308 938 316 Q 928 323 924 306 Q 911 237 896 184 Q 890 148 859 126 Q 816 80 619 82 Q 541 86 514 103 Q 489 118 473 148 Q 460 181 459 300 L 461 349 Q 462 425 468 481 L 473 535 Q 476 577 483 599 Q 492 623 458 648 Q 436 661 417 671 C 391 686 355 678 369 652 Q 408 595 408 514 L 409 466 Q 409 414 409 335 L 408 286 Q 401 136 448 81 Q 515 6 767 23 Q 879 29 963 68 Q 1000 78 987 108 Z" fill="black" /></g></svg>