<?xml version='1.0' encoding='utf-8'?>
<svg xmlns="http://www.w3.org/2000/svg" version="1.1" viewBox="0 0 1024 1024"><g transform="scale(1, -1) translate(0, -900)"><path d="M 895 55 Q 874 103 860 186 Q 857 202 849 206 Q 842 210 839 190 Q 829 87 815 68 Q 779 29 643 25 Q 567 26 535 38 Q 507 51 500 71 Q 493 90 490 135 L 490 172 Q 491 206 497 232 L 509 276 Q 521 306 502 322 Q 493 329 486 333 C 462 351 424 349 433 320 Q 443 295 445 259 L 444 221 Q 444 190 444 162 L 445 124 Q 448 39 491 8 Q 554 -34 751 -21 Q 842 -14 879 7 Q 909 23 895 55 Z" fill="black" /></g></svg>