<?xml version='1.0' encoding='utf-8'?>
<svg xmlns="http://www.w3.org/2000/svg" version="1.1" viewBox="0 0 1024 1024"><g transform="scale(1, -1) translate(0, -900)"><path d="M 943 88 Q 924 122 908 182 Q 905 198 898 202 Q 889 206 887 186 Q 875 113 864 101 Q 800 38 555 52 Q 422 65 366 91 Q 308 127 299 196 Q 292 241 291 339 L 295 380 Q 299 438 310 478 L 322 524 Q 323 530 327 537 Q 340 567 321 585 Q 293 607 276 616 C 251 632 236 631 246 603 Q 246 602 248 598 Q 267 559 260 504 Q 259 503 259 500 L 257 463 Q 254 411 253 366 L 252 326 Q 249 193 261 153 Q 276 92 319 59 Q 412 -10 723 0 Q 867 7 923 36 Q 957 54 943 88 Z" fill="black" /></g></svg>