<?xml version='1.0' encoding='utf-8'?>
<svg xmlns="http://www.w3.org/2000/svg" version="1.1" viewBox="0 0 1024 1024"><g transform="scale(1, -1) translate(0, -900)"><path d="M 749 642 Q 652 632 547 609 Q 537 605 534 609 Q 533 612 538 620 Q 632 729 651 747 Q 663 754 658 767 Q 654 779 611 802 Q 596 809 588 807 Q 575 803 580 783 Q 592 722 492 628 Q 476 616 454 602 Q 441 592 444 582 Q 448 566 470 547 Q 479 537 491 546 Q 539 579 740 617 Q 752 620 760 624 C 788 634 779 645 749 642 Z" fill="black" /></g></svg>