<?xml version='1.0' encoding='utf-8'?>
<svg xmlns="http://www.w3.org/2000/svg" version="1.1" viewBox="0 0 1024 1024"><g transform="scale(1, -1) translate(0, -900)"><path d="M 658 428 Q 745 440 804 477 Q 820 490 808 512 Q 798 525 780 573 Q 779 586 773 590 Q 767 591 764 577 Q 742 525 729 509 Q 716 494 681 485 Q 597 463 532 486 Q 507 496 500 512 Q 493 528 490 550 L 490 587 Q 491 611 495 636 L 502 681 Q 503 688 505 695 Q 509 710 499 719 Q 493 726 484 730 C 460 748 439 749 447 720 L 448 719 Q 455 694 456 667 L 454 627 Q 453 600 452 578 L 452 541 Q 453 483 482 459 Q 525 429 627 428 L 658 428 Z" fill="black" /></g></svg>