<?xml version='1.0' encoding='utf-8'?>
<svg xmlns="http://www.w3.org/2000/svg" version="1.1" viewBox="0 0 1024 1024"><g transform="scale(1, -1) translate(0, -900)"><path d="M 958 116 Q 945 147 928 243 Q 927 258 921 262 Q 915 265 912 249 Q 891 147 875 116 Q 848 83 765 92 Q 731 95 704 109 Q 652 139 649 255 Q 649 277 649 302 L 652 346 Q 655 391 661 438 L 666 484 Q 667 503 672 522 Q 676 541 664 552 Q 651 565 630 573 C 603 587 591 585 599 556 Q 600 555 601 551 Q 614 509 612 469 Q 611 468 611 465 L 609 422 Q 606 376 605 335 L 605 292 Q 602 120 646 75 Q 721 12 873 40 Q 877 41 884 43 Q 918 53 953 79 Q 971 92 958 116 Z" fill="black" /></g></svg>