<?xml version='1.0' encoding='utf-8'?>
<svg xmlns="http://www.w3.org/2000/svg" version="1.1" viewBox="0 0 1024 1024"><g transform="scale(1, -1) translate(0, -900)"><path d="M 441 665 Q 356 655 262 631 Q 253 628 250 631 Q 249 634 254 642 Q 345 756 366 775 Q 376 782 372 793 Q 368 803 329 825 Q 316 832 307 829 Q 297 825 300 807 Q 315 753 212 647 Q 197 637 178 623 Q 166 614 169 605 Q 173 590 193 573 Q 202 564 213 573 Q 252 601 432 642 Q 444 645 452 649 C 480 660 471 669 441 665 Z" fill="black" /></g></svg>