<?xml version='1.0' encoding='utf-8'?>
<svg xmlns="http://www.w3.org/2000/svg" version="1.1" viewBox="0 0 1024 1024"><g transform="scale(1, -1) translate(0, -900)"><path d="M 957 93 Q 944 133 937 204 Q 936 220 930 226 Q 923 232 917 212 Q 892 130 877 116 Q 849 86 778 69 Q 687 51 564 53 Q 428 60 369 85 Q 318 113 308 147 Q 290 189 285 287 L 284 328 Q 287 398 294 447 L 302 493 Q 305 515 313 530 Q 325 561 306 577 Q 284 595 267 603 C 242 619 225 616 232 587 Q 245 560 247 473 L 246 433 Q 245 367 245 315 L 246 273 Q 249 176 260 143 Q 276 82 322 51 Q 418 -19 735 6 Q 880 16 937 49 Q 967 62 957 93 Z" fill="black" /></g></svg>