<?xml version='1.0' encoding='utf-8'?>
<svg xmlns="http://www.w3.org/2000/svg" version="1.1" viewBox="0 0 1024 1024"><g transform="scale(1, -1) translate(0, -900)"><path d="M 670 688 Q 670 742 686 768 Q 692 781 675 794 Q 656 810 620 819 Q 604 823 594 812 Q 585 805 596 795 Q 617 777 619 752 Q 619 721 619 673 L 619 643 Q 619 616 619 583 L 619 553 Q 622 508 619 486 L 619 454 Q 619 423 619 395 L 618 364 Q 618 337 617 307 L 617 276 Q 620 201 630 186 Q 642 174 649 191 Q 656 215 661 282 L 662 316 Q 662 341 663 373 L 663 407 Q 663 434 663 461 L 664 496 Q 664 530 665 559 L 666 590 Q 666 627 668 655 L 670 688 Z" fill="black" /></g></svg>