<?xml version='1.0' encoding='utf-8'?>
<svg xmlns="http://www.w3.org/2000/svg" version="1.1" viewBox="0 0 1024 1024"><g transform="scale(1, -1) translate(0, -900)"><path d="M 963 127 Q 948 160 929 259 Q 928 274 921 278 Q 915 281 912 264 Q 893 158 876 124 Q 849 91 760 96 Q 726 97 697 110 Q 672 123 666 139 Q 642 187 642 293 L 645 335 Q 646 381 654 432 L 660 479 Q 663 504 668 531 Q 672 549 661 558 Q 648 570 627 578 Q 626 579 624 578 C 597 590 597 590 603 567 Q 603 563 605 557 Q 620 515 613 463 L 610 419 Q 607 368 606 324 L 605 282 Q 605 117 645 80 Q 714 23 870 47 Q 877 50 887 51 Q 923 61 959 86 Q 977 102 963 127 Z" fill="black" /></g></svg>