<?xml version='1.0' encoding='utf-8'?>
<svg xmlns="http://www.w3.org/2000/svg" version="1.1" viewBox="0 0 1024 1024"><g transform="scale(1, -1) translate(0, -900)"><path d="M 754 502 Q 761 542 771 567 L 788 611 Q 800 636 815 649 Q 830 665 816 681 Q 801 691 754 712 Q 742 716 670 688 L 619 673 Q 576 663 536 656 Q 521 655 523 646 Q 526 639 542 635 Q 564 626 594 638 Q 606 641 619 643 L 668 655 Q 689 661 711 665 Q 726 669 732 663 Q 742 653 740 630 Q 737 617 735 601 L 728 565 Q 721 537 713 509 C 705 480 748 473 754 502 Z" fill="black" /></g></svg>