<?xml version='1.0' encoding='utf-8'?>
<svg xmlns="http://www.w3.org/2000/svg" version="1.1" viewBox="0 0 1024 1024"><g transform="scale(1, -1) translate(0, -900)"><path d="M 943 99 Q 924 142 908 218 Q 905 234 897 238 Q 890 242 887 222 Q 877 131 865 113 Q 792 47 535 71 Q 393 87 335 118 Q 284 149 276 187 Q 260 230 258 334 L 259 376 Q 263 427 270 465 L 280 513 Q 281 528 288 538 Q 301 568 282 585 Q 252 607 235 616 C 210 632 195 629 206 601 Q 227 580 221 501 Q 221 497 221 491 L 220 451 Q 219 405 217 364 L 217 322 Q 217 142 288 84 Q 378 9 712 14 Q 863 18 923 48 Q 956 64 943 99 Z" fill="black" /></g></svg>