<?xml version='1.0' encoding='utf-8'?>
<svg xmlns="http://www.w3.org/2000/svg" version="1.1" viewBox="0 0 1024 1024"><g transform="scale(1, -1) translate(0, -900)"><path d="M 922 67 Q 907 103 898 166 Q 897 181 890 186 Q 883 190 878 172 Q 859 97 845 85 Q 809 45 652 40 Q 567 41 530 56 Q 487 78 483 131 L 481 172 Q 481 196 487 241 L 498 289 Q 498 290 499 292 L 499 294 Q 512 322 493 339 Q 478 349 467 356 C 442 372 414 373 424 345 Q 437 317 438 274 L 437 232 Q 437 193 438 163 L 440 123 Q 443 60 487 26 Q 550 -19 767 -5 Q 867 2 905 24 Q 933 37 922 67 Z" fill="black" /></g></svg>