<?xml version='1.0' encoding='utf-8'?>
<svg xmlns="http://www.w3.org/2000/svg" version="1.1" viewBox="0 0 1024 1024"><g transform="scale(1, -1) translate(0, -900)"><path d="M 934 72 Q 918 106 907 168 Q 906 184 898 190 Q 889 196 885 174 Q 864 104 851 92 Q 788 29 546 41 Q 413 53 358 78 Q 309 106 301 140 Q 282 189 280 312 L 282 357 Q 286 409 293 448 L 302 497 Q 306 516 313 531 Q 326 562 307 580 Q 282 599 265 609 C 240 626 223 621 230 592 Q 242 565 244 476 L 242 434 Q 241 385 239 343 L 238 298 Q 238 175 250 137 Q 266 77 309 44 Q 400 -25 713 -14 Q 857 -7 913 23 Q 946 38 934 72 Z" fill="black" /></g></svg>