<?xml version='1.0' encoding='utf-8'?>
<svg xmlns="http://www.w3.org/2000/svg" version="1.1" viewBox="0 0 1024 1024"><g transform="scale(1, -1) translate(0, -900)"><path d="M 683 132 Q 705 102 721 74 Q 728 59 737 60 Q 750 61 763 86 Q 778 114 773 196 Q 764 283 781 304 Q 788 314 781 323 Q 765 339 724 358 Q 709 365 697 358 Q 654 339 541 316 C 512 310 532 286 562 291 Q 572 292 688 316 Q 706 320 714 313 Q 720 307 721 174 Q 720 165 719 158 Q 715 145 705 148 C 680 136 680 136 683 132 Z" fill="black" /></g></svg>