<?xml version='1.0' encoding='utf-8'?>
<svg xmlns="http://www.w3.org/2000/svg" version="1.1" viewBox="0 0 1024 1024"><g transform="scale(1, -1) translate(0, -900)"><path d="M 476 697 Q 463 709 448 715 Q 429 722 420 716 Q 410 710 419 694 Q 476 580 435 192 Q 434 141 394 89 Q 382 73 391 50 Q 401 22 416 11 Q 429 4 441 21 Q 457 52 606 186 Q 624 201 628 210 Q 632 220 622 220 Q 613 220 493 148 Q 484 142 482 151 Q 497 356 495 518 L 495 551 Q 495 555 495 558 Q 494 613 502 657 Q 503 663 503 667 C 504 677 501 680 476 697 Z" fill="black" /></g></svg>