<?xml version='1.0' encoding='utf-8'?>
<svg xmlns="http://www.w3.org/2000/svg" version="1.1" viewBox="0 0 1024 1024"><g transform="scale(1, -1) translate(0, -900)"><path d="M 653 353 Q 720 149 854 51 Q 857 50 861 46 Q 915 9 950 1 Q 975 2 973 36 Q 964 67 971 210 Q 972 223 966 225 Q 960 226 956 212 Q 941 181 928 151 Q 909 111 895 112 Q 877 113 841 144 Q 802 175 769 226 Q 720 299 697 366 L 685 409 Q 678 472 686 502 Q 690 521 652 544 Q 645 548 637 552 C 611 567 578 568 593 542 Q 614 518 634 424 Q 637 411 641 396 L 653 353 Z" fill="black" /></g></svg>