<?xml version='1.0' encoding='utf-8'?>
<svg xmlns="http://www.w3.org/2000/svg" version="1.1" viewBox="0 0 1024 1024"><g transform="scale(1, -1) translate(0, -900)"><path d="M 980 118 Q 970 142 958 215 Q 959 228 953 234 Q 947 237 943 222 Q 915 144 896 121 Q 886 108 855 99 Q 785 81 722 104 Q 698 114 691 130 Q 667 178 667 292 L 669 333 Q 670 376 677 420 L 682 466 Q 685 497 691 528 Q 695 547 683 556 Q 673 566 661 572 C 637 590 614 583 622 554 Q 637 511 631 450 L 629 406 Q 628 361 626 322 L 626 282 Q 626 105 666 71 Q 759 10 903 49 Q 939 59 973 84 Q 989 96 980 118 Z" fill="black" /></g></svg>