<?xml version='1.0' encoding='utf-8'?>
<svg xmlns="http://www.w3.org/2000/svg" version="1.1" viewBox="0 0 1024 1024"><g transform="scale(1, -1) translate(0, -900)"><path d="M 191 406 Q 176 405 182 390 Q 186 377 211 368 Q 235 358 259 365 Q 407 405 551 444 Q 593 454 601 449 Q 611 442 603 421 Q 573 205 633 105 Q 685 -4 840 -20 Q 909 -26 936 -13 Q 955 -4 946 21 Q 930 97 926 183 Q 925 216 917 224 Q 910 231 904 214 Q 876 84 849 55 Q 828 42 802 50 Q 757 57 717 90 Q 656 141 645 265 Q 636 380 692 450 Q 708 463 701 473 Q 692 486 635 508 Q 619 514 604 503 Q 540 466 381 432 Q 278 407 191 406 Z" fill="black" /></g></svg>