<?xml version='1.0' encoding='utf-8'?>
<svg xmlns="http://www.w3.org/2000/svg" version="1.1" viewBox="0 0 1024 1024"><g transform="scale(1, -1) translate(0, -900)"><path d="M 228 456 Q 203 455 217 437 Q 230 421 257 410 Q 284 400 315 413 Q 390 441 601 490 Q 626 497 623 470 Q 584 203 669 72 Q 679 54 695 38 Q 779 -58 896 -56 Q 938 -53 960 -38 Q 972 -34 967 -17 Q 951 53 944 146 Q 941 174 930 150 Q 891 38 878 25 Q 866 15 847 21 Q 804 31 759 65 Q 714 99 691 152 Q 643 276 683 428 Q 695 462 728 487 Q 744 497 741 511 Q 737 524 672 554 Q 650 564 628 550 Q 472 469 228 456 Z" fill="black" /></g></svg>