<?xml version='1.0' encoding='utf-8'?>
<svg xmlns="http://www.w3.org/2000/svg" version="1.1" viewBox="0 0 1024 1024"><g transform="scale(1, -1) translate(0, -900)"><path d="M 207 741 Q 201 747 183 755 Q 176 758 168 755 Q 162 751 167 742 Q 180 676 180 596 Q 179 587 179 577 Q 179 547 170 512 Q 160 470 185 440 Q 192 430 201 439 Q 208 449 209 462 L 212 486 Q 212 514 212 543 L 212 567 Q 213 600 214 624 L 215 652 Q 216 704 217 710 Q 218 717 218 722 C 219 732 219 732 207 741 Z" fill="black" /></g></svg>