<?xml version='1.0' encoding='utf-8'?>
<svg xmlns="http://www.w3.org/2000/svg" version="1.1" viewBox="0 0 1024 1024"><g transform="scale(1, -1) translate(0, -900)"><path d="M 315 363 Q 376 382 425 390 Q 440 394 444 388 Q 448 382 442 370 Q 417 304 390 279 Q 380 272 382 260 Q 385 241 394 234 Q 404 228 415 236 Q 452 255 487 257 Q 505 258 510 251 Q 519 236 515 208 Q 508 135 480 76 Q 473 57 455 50 Q 443 49 370 74 Q 346 84 365 60 Q 401 17 427 -20 Q 443 -41 464 -30 Q 498 -11 516 14 Q 537 42 556 141 Q 569 202 587 228 Q 603 241 593 253 Q 581 266 546 286 Q 525 296 506 289 Q 470 279 461 280 Q 442 281 453 304 Q 486 365 514 384 Q 536 396 531 407 Q 528 417 483 438 Q 468 445 453 438 Q 404 411 209 380 Q 200 381 199 375 Q 196 369 220 353 Q 244 337 268 349 Q 275 352 285 354 L 315 363 Z" fill="black" /></g></svg>