<?xml version='1.0' encoding='utf-8'?>
<svg xmlns="http://www.w3.org/2000/svg" version="1.1" viewBox="0 0 1024 1024"><g transform="scale(1, -1) translate(0, -900)"><path d="M 229 496 Q 202 495 217 477 Q 230 461 257 450 Q 282 438 315 453 Q 390 478 600 527 Q 627 533 622 507 Q 580 272 650 121 Q 665 90 687 65 Q 726 17 790 -13 Q 839 -37 890 -36 Q 933 -35 956 -19 Q 968 -15 963 3 Q 947 70 940 162 Q 937 190 926 166 Q 887 57 875 46 Q 862 34 843 42 Q 731 69 685 178 Q 634 304 681 462 Q 693 498 727 522 Q 745 532 741 546 Q 737 559 672 590 Q 650 600 628 587 Q 480 509 229 496 Z" fill="black" /></g></svg>