<?xml version='1.0' encoding='utf-8'?>
<svg xmlns="http://www.w3.org/2000/svg" version="1.1" viewBox="0 0 1024 1024"><g transform="scale(1, -1) translate(0, -900)"><path d="M 228 460 Q 203 459 217 441 Q 230 425 257 414 Q 284 404 315 418 Q 391 446 609 498 Q 633 504 629 480 Q 578 180 685 41 Q 686 38 690 35 Q 729 -13 794 -44 Q 843 -68 894 -67 Q 937 -66 960 -52 Q 973 -48 967 -27 Q 948 33 937 114 Q 933 142 923 118 Q 889 24 878 13 Q 865 1 846 10 Q 735 35 689 149 Q 641 278 687 434 Q 700 468 735 494 Q 751 504 749 518 Q 745 531 680 561 Q 658 573 636 558 Q 491 477 228 460 Z" fill="black" /></g></svg>