<?xml version='1.0' encoding='utf-8'?>
<svg xmlns="http://www.w3.org/2000/svg" version="1.1" viewBox="0 0 1024 1024"><g transform="scale(1, -1) translate(0, -900)"><path d="M 391 84 Q 384 57 403 5 Q 407 -8 414 -11 Q 418 -15 424 -10 Q 445 3 446 54 Q 445 75 447 215 L 448 240 Q 448 274 449 312 L 450 349 Q 450 358 451 367 Q 451 397 454 421 L 460 454 Q 467 487 468 488 Q 464 495 420 522 Q 401 535 385 523 Q 381 519 386 507 Q 407 477 407 439 L 407 413 Q 408 385 409 355 Q 408 348 408 339 L 407 306 Q 406 272 406 233 L 406 210 Q 406 140 391 84 Z" fill="black" /></g></svg>