<?xml version='1.0' encoding='utf-8'?>
<svg xmlns="http://www.w3.org/2000/svg" version="1.1" viewBox="0 0 1024 1024"><g transform="scale(1, -1) translate(0, -900)"><path d="M 350 427 Q 350 449 353 465 Q 357 481 340 489 Q 300 505 288 503 Q 273 499 287 482 Q 302 460 304 429 Q 304 425 305 420 L 307 394 Q 308 364 309 320 L 308 290 Q 305 256 295 213 L 288 188 Q 258 115 200 49 Q 190 39 187 33 Q 186 27 196 29 Q 229 29 279 93 Q 310 133 333 198 L 338 221 Q 342 246 345 272 Q 346 285 347 297 L 349 327 Q 350 361 350 402 L 350 427 Z" fill="black" /></g></svg>