<?xml version='1.0' encoding='utf-8'?>
<svg xmlns="http://www.w3.org/2000/svg" version="1.1" viewBox="0 0 1024 1024"><g transform="scale(1, -1) translate(0, -900)"><path d="M 372 249 Q 427 265 474 273 Q 489 274 492 271 Q 499 259 496 230 Q 489 146 470 110 Q 455 82 431 86 Q 413 90 398 96 Q 376 105 391 82 Q 422 45 437 16 Q 453 -2 468 12 Q 522 48 545 182 Q 551 245 569 271 Q 579 283 574 292 Q 567 302 520 321 Q 501 328 485 317 Q 469 307 403 289 Q 337 271 282 265 Q 266 264 264 256 Q 263 249 284 240 Q 305 227 322 234 Q 331 238 343 240 L 372 249 Z" fill="black" /></g></svg>