<?xml version='1.0' encoding='utf-8'?>
<svg xmlns="http://www.w3.org/2000/svg" version="1.1" viewBox="0 0 1024 1024"><g transform="scale(1, -1) translate(0, -900)"><path d="M 941 -8 Q 934 71 935 207 Q 935 220 928 225 Q 922 229 918 215 Q 890 101 870 78 Q 866 71 843 78 Q 798 96 760 163 Q 727 224 713 303 Q 698 385 709 495 Q 710 532 734 563 Q 752 576 740 588 Q 728 607 694 631 Q 673 644 617 621 Q 472 585 203 539 Q 190 539 187 531 Q 184 525 195 520 Q 228 502 262 514 Q 418 553 620 579 Q 636 580 646 574 Q 656 565 652 545 Q 640 197 750 72 Q 819 -15 913 -35 Q 929 -41 937 -31 Q 944 -24 941 -8 Z" fill="black" /></g></svg>