<?xml version='1.0' encoding='utf-8'?>
<svg xmlns="http://www.w3.org/2000/svg" version="1.1" viewBox="0 0 1024 1024"><g transform="scale(1, -1) translate(0, -900)"><path d="M 447 215 Q 549 234 576 228 Q 586 228 591 218 Q 594 209 576 145 Q 572 132 558 134 Q 531 141 497 149 Q 475 155 491 136 Q 543 96 555 73 Q 561 63 572 65 Q 582 65 593 75 Q 612 96 629 151 Q 641 185 656 201 Q 669 217 659 227 Q 640 246 611 263 Q 601 269 526 253 Q 469 247 448 240 L 406 233 Q 369 229 338 221 L 295 213 Q 231 201 223 200 Q 219 201 219 212 Q 229 263 240 279 C 249 300 249 300 239 309 Q 229 321 212 330 Q 203 337 195 331 Q 188 327 195 313 Q 202 292 194 265 Q 178 216 163 196 Q 154 184 161 171 Q 168 152 178 145 Q 185 141 205 153 Q 229 174 288 188 L 333 198 Q 363 205 406 210 L 447 215 Z" fill="black" /></g></svg>