<?xml version='1.0' encoding='utf-8'?>
<svg xmlns="http://www.w3.org/2000/svg" version="1.1" viewBox="0 0 1024 1024"><g transform="scale(1, -1) translate(0, -900)"><path d="M 245 490 Q 220 489 234 472 Q 247 457 272 447 Q 297 437 328 450 Q 404 478 620 527 Q 645 534 641 509 Q 593 229 686 87 Q 693 75 703 64 Q 743 16 807 -15 Q 856 -39 908 -38 Q 950 -37 974 -22 Q 987 -16 980 6 Q 956 64 938 144 Q 932 169 924 146 Q 903 47 893 37 Q 881 25 861 33 Q 815 43 768 79 Q 722 116 699 172 Q 648 304 694 462 Q 706 499 741 524 Q 757 534 754 546 Q 750 559 688 588 Q 667 598 646 585 Q 504 507 245 490 Z" fill="black" /></g></svg>