<?xml version='1.0' encoding='utf-8'?>
<svg xmlns="http://www.w3.org/2000/svg" version="1.1" viewBox="0 0 1024 1024"><g transform="scale(1, -1) translate(0, -900)"><path d="M 546 355 Q 564 394 586 404 Q 601 419 589 434 Q 576 446 534 468 Q 518 477 460 454 L 407 439 Q 386 436 350 427 L 305 420 Q 269 417 233 413 Q 220 412 220 403 Q 223 396 238 391 Q 250 385 307 394 L 350 402 Q 377 408 407 413 L 454 421 Q 464 425 477 426 Q 501 432 511 422 Q 517 415 502 361 C 494 332 533 328 546 355 Z" fill="black" /></g></svg>