<?xml version='1.0' encoding='utf-8'?>
<svg xmlns="http://www.w3.org/2000/svg" version="1.1" viewBox="0 0 1024 1024"><g transform="scale(1, -1) translate(0, -900)"><path d="M 960 -38 Q 950 34 947 154 Q 948 167 941 173 Q 934 177 930 162 Q 900 68 885 54 Q 881 45 858 54 Q 812 70 772 139 Q 738 200 723 281 Q 707 365 717 476 Q 717 515 741 546 Q 759 559 747 573 Q 734 592 698 617 Q 677 630 626 608 Q 493 572 223 524 Q 210 524 206 516 Q 203 509 214 504 Q 250 485 285 498 Q 432 537 620 561 Q 639 564 649 556 Q 659 547 655 526 Q 642 157 781 21 Q 850 -48 931 -65 Q 947 -71 956 -61 Q 963 -54 960 -38 Z" fill="black" /></g></svg>