<?xml version='1.0' encoding='utf-8'?>
<svg xmlns="http://www.w3.org/2000/svg" version="1.1" viewBox="0 0 1024 1024"><g transform="scale(1, -1) translate(0, -900)"><path d="M 933 -17 Q 929 55 930 176 Q 931 188 924 193 Q 918 197 915 184 Q 881 79 868 67 Q 864 58 841 68 Q 795 86 757 155 Q 724 218 710 299 Q 697 384 709 494 Q 710 533 735 565 Q 751 577 740 588 Q 730 606 697 628 Q 678 641 654 630 Q 635 620 600 611 Q 305 544 227 530 Q 214 530 211 522 Q 210 516 219 512 Q 253 496 283 507 Q 433 549 627 578 Q 643 581 652 574 Q 658 570 654 505 Q 627 51 898 -39 Q 901 -39 906 -41 Q 921 -47 929 -38 Q 935 -32 933 -17 Z" fill="black" /></g></svg>