<?xml version='1.0' encoding='utf-8'?>
<svg xmlns="http://www.w3.org/2000/svg" version="1.1" viewBox="0 0 1024 1024"><g transform="scale(1, -1) translate(0, -900)"><path d="M 464 70 Q 491 36 511 3 Q 518 -13 529 -12 Q 544 -11 557 19 Q 573 53 570 95 Q 563 180 557 338 Q 556 366 571 387 Q 578 399 570 408 Q 554 426 505 447 Q 489 454 475 446 Q 385 409 247 395 C 217 392 231 361 261 365 Q 273 365 453 400 Q 481 404 494 394 Q 524 370 505 97 Q 502 87 495 86 C 480 60 452 86 464 70 Z" fill="black" /></g></svg>