<?xml version='1.0' encoding='utf-8'?>
<svg xmlns="http://www.w3.org/2000/svg" version="1.1" viewBox="0 0 1024 1024"><g transform="scale(1, -1) translate(0, -900)"><path d="M 965 -48 Q 958 24 955 147 Q 955 160 949 165 Q 942 169 938 155 Q 908 53 894 38 Q 890 31 867 38 Q 768 72 733 263 Q 717 345 726 455 Q 727 494 751 524 Q 776 545 710 592 Q 689 605 665 594 Q 643 582 607 574 Q 306 516 227 503 Q 214 503 211 495 Q 208 489 219 484 Q 252 465 286 477 Q 439 516 635 539 Q 653 542 663 534 Q 673 525 669 505 Q 657 160 778 24 Q 850 -54 937 -74 Q 953 -81 961 -71 Q 968 -64 965 -48 Z" fill="black" /></g></svg>