<?xml version='1.0' encoding='utf-8'?>
<svg xmlns="http://www.w3.org/2000/svg" version="1.1" viewBox="0 0 1024 1024"><g transform="scale(1, -1) translate(0, -900)"><path d="M 352 227 Q 362 228 378 233 Q 471 255 486 249 Q 496 245 497 220 Q 510 109 509 23 Q 509 5 499 2 Q 489 -2 432 9 Q 422 10 422 4 Q 423 -3 437 -10 Q 471 -37 499 -64 Q 514 -79 529 -76 Q 539 -73 554 -40 Q 570 -6 567 29 Q 560 111 551 188 Q 548 218 560 242 Q 570 255 557 268 Q 541 281 508 291 Q 489 300 474 289 Q 461 282 435 274 Q 374 258 345 249 C 316 240 323 221 352 227 Z" fill="black" /></g></svg>