<?xml version='1.0' encoding='utf-8'?>
<svg xmlns="http://www.w3.org/2000/svg" version="1.1" viewBox="0 0 1024 1024"><g transform="scale(1, -1) translate(0, -900)"><path d="M 483 273 Q 496 254 509 246 Q 518 239 532 257 Q 542 273 570 367 Q 579 395 599 416 Q 611 426 601 439 Q 588 454 551 477 Q 535 486 521 481 Q 497 474 463 468 Q 421 461 367 449 Q 325 439 292 433 C 263 427 282 392 310 404 Q 316 411 398 426 L 420 430 Q 504 448 518 437 Q 528 430 525 415 Q 507 325 499 311 Q 495 301 482 299 C 468 293 468 293 483 273 Z" fill="black" /></g></svg>