<?xml version='1.0' encoding='utf-8'?>
<svg xmlns="http://www.w3.org/2000/svg" version="1.1" viewBox="0 0 1024 1024"><g transform="scale(1, -1) translate(0, -900)"><path d="M 227 504 Q 214 504 210 496 Q 207 489 218 484 Q 254 465 289 478 Q 439 517 632 545 Q 651 548 661 540 Q 671 531 667 510 Q 654 137 796 -2 Q 865 -71 947 -89 Q 963 -95 972 -86 Q 978 -79 976 -63 Q 969 6 967 126 Q 968 139 961 145 Q 954 149 950 135 Q 917 47 902 30 Q 890 21 874 30 Q 828 46 787 116 Q 751 177 735 261 Q 719 346 728 459 Q 729 499 753 530 Q 771 545 759 557 Q 746 576 710 601 Q 689 614 638 592 Q 469 547 227 504 Z" fill="black" /></g></svg>