<?xml version='1.0' encoding='utf-8'?>
<svg xmlns="http://www.w3.org/2000/svg" version="1.1" viewBox="0 0 1024 1024"><g transform="scale(1, -1) translate(0, -900)"><path d="M 397 501 Q 482 525 636 556 Q 658 562 655 539 Q 607 311 661 160 Q 676 117 702 85 Q 739 36 805 1 Q 854 -24 906 -26 Q 949 -26 973 -12 Q 986 -6 980 15 Q 961 75 945 156 Q 941 181 932 158 Q 905 61 895 50 Q 882 38 862 47 Q 744 81 702 194 Q 654 326 706 489 Q 719 526 756 550 Q 772 560 770 573 Q 766 585 705 616 Q 684 626 663 613 Q 585 573 467 549 Q 334 524 229 518 Q 204 518 218 500 Q 231 485 256 475 Q 281 463 311 477 Q 330 484 362 492 L 397 501 Z" fill="black" /></g></svg>