<?xml version='1.0' encoding='utf-8'?>
<svg xmlns="http://www.w3.org/2000/svg" version="1.1" viewBox="0 0 1024 1024"><g transform="scale(1, -1) translate(0, -900)"><path d="M 205 516 Q 180 515 193 497 Q 206 481 233 470 Q 258 458 291 472 Q 385 503 652 556 Q 676 562 672 538 Q 620 306 673 144 Q 688 99 715 67 Q 754 15 821 -22 Q 872 -49 925 -51 Q 970 -52 995 -37 Q 1010 -33 1003 -9 Q 982 55 969 143 Q 965 170 955 146 Q 925 40 914 29 Q 901 17 880 26 Q 763 60 716 180 Q 671 319 725 486 Q 740 523 778 548 Q 796 558 792 571 Q 789 584 725 617 Q 703 629 681 615 Q 510 530 205 516 Z" fill="black" /></g></svg>