<?xml version='1.0' encoding='utf-8'?>
<svg xmlns="http://www.w3.org/2000/svg" version="1.1" viewBox="0 0 1024 1024"><g transform="scale(1, -1) translate(0, -900)"><path d="M 428 570 Q 647 607 664 592 Q 670 588 666 520 Q 645 190 790 44 Q 847 -13 922 -33 Q 938 -39 947 -29 Q 953 -22 950 -6 Q 940 58 935 168 Q 935 181 928 185 Q 922 189 919 175 Q 892 88 883 75 Q 877 66 855 75 Q 753 117 722 311 Q 707 396 720 509 Q 721 549 747 581 Q 772 600 711 645 Q 692 660 668 649 Q 647 639 612 631 Q 299 576 216 566 Q 203 566 200 559 Q 197 553 207 548 Q 240 530 271 540 Q 329 553 396 565 L 428 570 Z" fill="black" /></g></svg>