<?xml version='1.0' encoding='utf-8'?>
<svg xmlns="http://www.w3.org/2000/svg" version="1.1" viewBox="0 0 1024 1024"><g transform="scale(1, -1) translate(0, -900)"><path d="M 125 655 Q 108 652 108 643 Q 108 637 116 633 Q 194 617 299 650 Q 323 657 325 649 Q 332 637 316 615 Q 227 490 192 414 Q 139 295 151 169 Q 153 146 173 126 Q 231 73 414 51 Q 504 40 547 43 Q 559 44 572 45 Q 833 65 898 96 Q 928 112 919 137 Q 895 192 873 285 Q 867 298 860 298 Q 857 298 855 295 Q 849 287 838 211 Q 835 186 817 169 Q 780 130 662 120 L 504 110 Q 500 110 496 109 Q 433 108 347 123 Q 221 149 209 187 Q 208 190 207 195 Q 197 247 223 341 Q 261 467 333 559 Q 380 617 427 643 Q 445 653 445 662 Q 445 682 381 713 Q 361 725 332 710 Q 301 692 243 678 L 125 655 Z" fill="black" /></g></svg>