<?xml version='1.0' encoding='utf-8'?>
<svg xmlns="http://www.w3.org/2000/svg" version="1.1" viewBox="0 0 1024 1024"><g transform="scale(1, -1) translate(0, -900)"><path d="M 476 625 Q 461 638 436 647 Q 420 651 411 646 Q 404 642 410 620 Q 426 575 425 532 Q 416 244 443 166 Q 450 132 481 103 Q 574 22 773 46 Q 801 52 830 59 Q 881 75 929 115 Q 951 133 936 163 Q 920 196 898 295 Q 897 313 889 318 Q 882 322 878 302 Q 850 196 829 162 Q 814 140 766 126 Q 649 96 551 143 Q 511 164 498 190 Q 449 280 487 590 C 490 616 490 616 476 625 Z" fill="black" /></g></svg>