<?xml version='1.0' encoding='utf-8'?>
<svg xmlns="http://www.w3.org/2000/svg" version="1.1" viewBox="0 0 1024 1024"><g transform="scale(1, -1) translate(0, -900)"><path d="M 544 273 Q 471 174 299 75 Q 283 65 292 60 Q 299 57 325 67 Q 439 109 510 159 Q 544 184 577 225 L 611 271 Q 621 289 634 307 Q 691 395 725 521 Q 737 569 771 600 Q 792 619 773 634 Q 748 650 715 658 Q 685 668 657 652 Q 617 639 547 620 Q 468 607 387 602 Q 368 602 363 596 Q 359 583 383 567 Q 413 546 482 568 Q 635 611 652 606 Q 665 606 666 582 Q 638 426 572 313 L 544 273 Z" fill="black" /></g></svg>