<?xml version='1.0' encoding='utf-8'?>
<svg xmlns="http://www.w3.org/2000/svg" version="1.1" viewBox="0 0 1024 1024"><g transform="scale(1, -1) translate(0, -900)"><path d="M 828 270 Q 729 260 643 243 L 597 234 Q 518 221 451 200 Q 427 194 433 222 Q 437 286 444 353 Q 448 378 436 393 Q 420 412 394 425 Q 381 431 371 428 Q 361 424 369 403 Q 399 339 390 272 Q 383 209 358 181 Q 339 162 347 147 Q 359 131 377 120 Q 392 111 404 122 Q 440 170 728 222 Q 792 234 821 230 C 851 229 858 273 828 270 Z" fill="black" /></g></svg>