<?xml version='1.0' encoding='utf-8'?>
<svg xmlns="http://www.w3.org/2000/svg" version="1.1" viewBox="0 0 1024 1024"><g transform="scale(1, -1) translate(0, -900)"><path d="M 612 157 Q 679 117 788 31 Q 807 15 819 15 Q 829 16 834 29 Q 841 42 831 76 Q 822 107 795 121 Q 750 149 647 197 L 601 218 Q 561 237 509 260 Q 487 267 487 289 Q 509 353 530 419 L 542 456 Q 567 546 591 638 Q 603 690 624 719 Q 639 744 630 758 Q 615 779 563 810 Q 541 825 521 815 Q 506 808 518 788 Q 552 736 490 448 L 481 410 Q 477 397 474 381 Q 461 329 437 290 Q 427 262 452 244 Q 515 219 570 184 L 612 157 Z" fill="black" /></g></svg>