<?xml version='1.0' encoding='utf-8'?>
<svg xmlns="http://www.w3.org/2000/svg" version="1.1" viewBox="0 0 1024 1024"><g transform="scale(1, -1) translate(0, -900)"><path d="M 731 84 Q 718 65 704 68 Q 673 80 627 97 Q 612 101 611 98 Q 611 94 627 78 Q 666 41 689 -5 Q 699 -21 708 -24 Q 715 -25 734 -12 Q 786 33 823 105 Q 860 189 897 420 Q 901 445 915 456 Q 927 466 915 482 Q 860 531 799 511 Q 787 510 775 507 Q 640 477 537 466 Q 531 462 528 467 Q 529 489 650 623 Q 711 687 736 693 Q 752 700 753 707 Q 754 716 748 721 Q 726 745 697 757 Q 678 767 644 755 Q 527 719 459 721 Q 443 721 441 716 Q 437 710 444 702 Q 451 690 467 681 Q 483 669 525 680 Q 660 717 663 710 Q 657 679 525 524 Q 522 523 521 520 Q 499 495 469 471 Q 448 459 459 423 Q 460 413 489 420 Q 502 424 521 429 L 557 437 Q 603 450 670 461 L 710 468 Q 774 480 812 480 Q 831 479 835 469 Q 856 372 783 174 Q 780 173 780 168 Q 767 125 731 84 Z" fill="black" /></g></svg>