<?xml version='1.0' encoding='utf-8'?>
<svg xmlns="http://www.w3.org/2000/svg" version="1.1" viewBox="0 0 1024 1024"><g transform="scale(1, -1) translate(0, -900)"><path d="M 716 172 Q 750 132 773 94 Q 783 75 796 75 Q 814 76 830 114 Q 849 157 844 208 Q 832 329 821 554 Q 818 588 836 612 Q 846 627 836 638 Q 815 659 757 684 Q 738 694 720 683 Q 633 641 477 622 C 447 618 461 582 491 587 Q 509 588 699 627 Q 727 633 743 622 Q 783 589 765 209 Q 764 202 759 197 C 752 168 697 195 716 172 Z" fill="black" /></g></svg>