<?xml version='1.0' encoding='utf-8'?>
<svg xmlns="http://www.w3.org/2000/svg" version="1.1" viewBox="0 0 1024 1024"><g transform="scale(1, -1) translate(0, -900)"><path d="M 595 186 Q 490 87 369 41 Q 342 34 344 29 Q 345 17 416 36 Q 530 67 629 144 L 668 182 Q 735 266 761 364 Q 773 416 801 440 Q 807 444 806 453 Q 803 475 747 502 Q 726 511 700 498 Q 690 491 656 479 Q 626 472 651 520 Q 729 667 753 682 Q 772 692 776 703 Q 780 716 736 741 Q 685 768 651 746 Q 459 683 381 676 Q 357 673 359 662 Q 360 652 393 642 Q 412 636 447 642 L 485 654 Q 495 660 644 700 Q 660 704 664 696 Q 671 678 612 543 Q 594 516 577 498 Q 561 482 569 465 Q 576 449 587 440 Q 596 433 604 434 Q 611 434 626 442 Q 635 448 665 454 Q 695 455 705 443 Q 715 431 703 391 Q 681 286 635 232 Q 631 226 626 220 L 595 186 Z" fill="black" /></g></svg>