<?xml version='1.0' encoding='utf-8'?>
<svg xmlns="http://www.w3.org/2000/svg" version="1.1" viewBox="0 0 1024 1024"><g transform="scale(1, -1) translate(0, -900)"><path d="M 370 410 Q 355 409 362 393 Q 366 381 391 373 Q 416 364 439 372 Q 658 447 665 444 Q 674 438 669 419 Q 584 -20 937 -22 Q 958 -21 971 -15 Q 990 -8 982 19 Q 966 77 961 143 Q 960 176 953 184 Q 946 191 939 175 Q 909 76 887 56 Q 866 44 842 54 Q 799 64 762 97 Q 707 146 703 269 Q 700 378 759 444 Q 775 456 767 466 Q 758 481 702 502 Q 686 509 671 497 Q 625 469 509 437 Q 433 415 370 410 Z" fill="black" /></g></svg>