<?xml version='1.0' encoding='utf-8'?>
<svg xmlns="http://www.w3.org/2000/svg" version="1.1" viewBox="0 0 1024 1024"><g transform="scale(1, -1) translate(0, -900)"><path d="M 895 195 Q 892 207 873 224 Q 843 251 765 342 Q 759 349 753 350 Q 750 349 751 341 Q 764 298 776 248 Q 780 227 768 216 Q 732 189 627 208 Q 548 227 522 289 Q 507 329 500 373 Q 497 398 479 411 Q 466 421 458 416 Q 457 416 474 324 Q 486 234 534 189 Q 630 113 804 146 Q 805 147 810 148 Q 844 157 882 181 Q 897 188 895 195 Z" fill="black" /></g></svg>