<?xml version='1.0' encoding='utf-8'?>
<svg xmlns="http://www.w3.org/2000/svg" version="1.1" viewBox="0 0 1024 1024"><g transform="scale(1, -1) translate(0, -900)"><path d="M 968 -2 Q 999 14 983 46 Q 955 94 941 174 Q 937 196 930 200 Q 920 204 918 188 Q 903 74 882 51 Q 866 38 825 32 Q 725 25 670 93 Q 624 177 668 350 Q 686 407 719 433 Q 747 457 715 470 Q 699 479 661 490 Q 636 500 611 483 Q 583 464 496 434 C 468 424 476 398 505 405 Q 536 412 595 427 Q 608 430 614 424 Q 623 414 607 287 Q 582 80 679 7 Q 764 -47 856 -38 Q 913 -31 968 -2 Z" fill="black" /></g></svg>