<?xml version='1.0' encoding='utf-8'?>
<svg xmlns="http://www.w3.org/2000/svg" version="1.1" viewBox="0 0 1024 1024"><g transform="scale(1, -1) translate(0, -900)"><path d="M 970 110 Q 951 164 940 256 Q 937 272 930 278 Q 921 284 917 262 Q 902 147 886 127 Q 865 102 758 97 Q 703 98 678 107 Q 656 117 652 132 Q 639 166 637 257 Q 641 357 659 404 Q 672 435 651 453 Q 638 463 627 470 C 602 487 565 488 576 460 Q 595 423 592 366 Q 586 128 621 89 Q 648 62 708 51 Q 760 41 845 43 Q 921 44 951 61 Q 982 77 970 110 Z" fill="black" /></g></svg>