<?xml version='1.0' encoding='utf-8'?>
<svg xmlns="http://www.w3.org/2000/svg" version="1.1" viewBox="0 0 1024 1024"><g transform="scale(1, -1) translate(0, -900)"><path d="M 947 86 Q 928 141 915 233 Q 914 249 905 254 Q 898 258 894 238 Q 884 123 867 101 Q 845 76 747 75 Q 695 78 672 87 Q 653 97 649 110 Q 639 141 641 223 Q 648 311 667 353 Q 680 383 662 401 Q 613 441 597 437 Q 581 431 588 414 Q 607 375 601 320 Q 589 109 618 71 Q 633 47 699 34 Q 748 24 829 24 Q 901 24 929 38 Q 960 54 947 86 Z" fill="black" /></g></svg>