<?xml version='1.0' encoding='utf-8'?>
<svg xmlns="http://www.w3.org/2000/svg" version="1.1" viewBox="0 0 1024 1024"><g transform="scale(1, -1) translate(0, -900)"><path d="M 500 375 Q 534 382 607 402 Q 619 408 625 404 Q 629 395 607 279 Q 565 84 655 16 Q 685 -3 724 -21 Q 833 -60 955 -3 Q 988 12 971 45 Q 946 90 932 164 Q 928 183 922 188 Q 912 192 910 176 Q 889 70 871 53 Q 855 40 812 35 Q 710 28 653 102 Q 617 183 676 333 Q 698 382 729 403 Q 760 425 727 440 Q 711 450 673 463 Q 646 475 600 444 Q 516 410 489 402 C 461 392 471 368 500 375 Z" fill="black" /></g></svg>