<?xml version='1.0' encoding='utf-8'?>
<svg xmlns="http://www.w3.org/2000/svg" version="1.1" viewBox="0 0 1024 1024"><g transform="scale(1, -1) translate(0, -900)"><path d="M 590 314 Q 572 104 599 50 Q 618 23 654 11 Q 700 -4 802 -2 Q 884 1 933 13 Q 969 22 974 31 Q 981 44 971 64 Q 947 115 931 194 Q 925 213 916 216 Q 909 220 905 199 Q 880 87 865 76 Q 859 69 835 63 Q 760 48 712 51 Q 657 54 633 87 Q 618 111 633 239 Q 643 333 656 378 Q 663 400 642 416 Q 599 450 586 444 Q 574 440 583 420 Q 596 383 590 314 Z" fill="black" /></g></svg>