<?xml version='1.0' encoding='utf-8'?>
<svg xmlns="http://www.w3.org/2000/svg" version="1.1" viewBox="0 0 1024 1024"><g transform="scale(1, -1) translate(0, -900)"><path d="M 685 517 Q 749 536 816 546 Q 829 547 832 541 Q 842 523 840 475 Q 833 297 802 203 Q 787 143 768 125 Q 758 113 734 119 Q 700 129 667 141 Q 645 147 661 127 Q 709 78 734 39 Q 744 18 766 25 Q 787 29 811 59 Q 881 141 892 433 Q 895 499 917 538 Q 932 560 923 569 Q 907 585 872 599 Q 847 611 822 598 Q 768 573 685 553 Q 612 537 570 534 Q 552 535 552 525 Q 551 516 572 504 Q 597 489 619 498 Q 631 502 646 506 L 685 517 Z" fill="black" /></g></svg>