<?xml version='1.0' encoding='utf-8'?>
<svg xmlns="http://www.w3.org/2000/svg" version="1.1" viewBox="0 0 1024 1024"><g transform="scale(1, -1) translate(0, -900)"><path d="M 578 359 Q 578 -25 592 -51 Q 592 -52 595 -56 Q 611 -72 621 -49 Q 634 -6 636 367 L 636 404 Q 636 510 637 587 L 638 619 Q 641 751 662 784 Q 669 802 647 818 Q 620 839 574 850 Q 553 856 539 841 Q 529 831 542 819 Q 573 794 576 756 Q 577 698 577 608 L 577 577 Q 578 501 579 403 Q 579 399 578 394 L 578 359 Z" fill="black" /></g></svg>