<?xml version='1.0' encoding='utf-8'?>
<svg xmlns="http://www.w3.org/2000/svg" version="1.1" viewBox="0 0 1024 1024"><g transform="scale(1, -1) translate(0, -900)"><path d="M 552 692 Q 570 682 601 688 Q 716 728 722 716 Q 728 707 724 685 Q 717 621 702 594 Q 680 561 651 569 Q 630 573 611 581 Q 586 590 604 565 Q 640 525 655 494 Q 667 475 683 487 Q 731 509 770 620 Q 785 686 807 709 Q 820 721 814 731 Q 805 741 757 766 Q 738 775 718 763 Q 687 739 566 720 C 536 715 524 701 552 692 Z" fill="black" /></g></svg>