<?xml version='1.0' encoding='utf-8'?>
<svg xmlns="http://www.w3.org/2000/svg" version="1.1" viewBox="0 0 1024 1024"><g transform="scale(1, -1) translate(0, -900)"><path d="M 615 494 Q 615 510 616 525 L 616 571 Q 616 682 636 749 Q 649 776 624 794 Q 608 806 577 825 Q 552 843 531 826 Q 525 822 532 805 Q 566 756 567 705 Q 567 638 569 561 L 566 415 Q 563 210 553 151 Q 531 46 543 16 Q 547 3 554 -13 Q 561 -32 569 -35 Q 576 -42 584 -33 Q 591 -29 602 -7 Q 612 18 612 52 Q 611 97 614 449 L 615 494 Z" fill="black" /></g></svg>