<?xml version='1.0' encoding='utf-8'?>
<svg xmlns="http://www.w3.org/2000/svg" version="1.1" viewBox="0 0 1024 1024"><g transform="scale(1, -1) translate(0, -900)"><path d="M 775 333 Q 760 141 726 73 Q 714 55 691 62 Q 609 81 613 86 Q 580 95 606 67 Q 651 27 684 -18 Q 705 -46 723 -34 Q 784 0 810 117 Q 826 208 832 305 Q 841 470 862 495 Q 881 519 867 531 Q 843 553 804 567 Q 786 574 715 549 Q 657 536 621 528 C 592 521 589 495 619 498 Q 640 495 744 524 Q 760 528 772 522 Q 787 512 778 368 L 775 333 Z" fill="black" /></g></svg>