<?xml version='1.0' encoding='utf-8'?>
<svg xmlns="http://www.w3.org/2000/svg" version="1.1" viewBox="0 0 1024 1024"><g transform="scale(1, -1) translate(0, -900)"><path d="M 604 29 Q 616 4 639 -40 Q 649 -58 659 -56 Q 675 -52 683 -26 Q 704 19 715 168 Q 719 217 743 248 Q 759 269 747 282 Q 725 304 677 325 Q 658 335 624 322 Q 507 283 315 270 C 285 268 318 229 348 232 Q 355 232 363 233 Q 457 249 606 270 Q 631 274 643 262 Q 664 232 645 72 Q 644 57 638 55 Q 634 51 607 68 Q 600 72 598 70 C 580 78 591 56 604 29 Z" fill="black" /></g></svg>