<?xml version='1.0' encoding='utf-8'?>
<svg xmlns="http://www.w3.org/2000/svg" version="1.1" viewBox="0 0 1024 1024"><g transform="scale(1, -1) translate(0, -900)"><path d="M 669 88 Q 654 84 574 111 Q 564 114 563 107 Q 562 103 575 93 Q 623 44 643 9 Q 655 -13 669 -13 Q 691 -14 713 8 Q 794 75 814 228 Q 830 336 841 500 Q 842 537 866 566 Q 879 581 879 590 Q 878 599 856 613 Q 828 635 788 646 Q 766 655 702 632 Q 513 587 452 576 C 423 570 416 569 441 561 Q 471 542 529 557 Q 752 596 761 589 Q 768 574 770 525 Q 771 242 708 127 Q 692 90 669 88 Z" fill="black" /></g></svg>