<?xml version='1.0' encoding='utf-8'?>
<svg xmlns="http://www.w3.org/2000/svg" version="1.1" viewBox="0 0 1024 1024"><g transform="scale(1, -1) translate(0, -900)"><path d="M 622 188 Q 623 191 626 193 Q 669 250 698 340 Q 707 376 727 393 Q 743 406 726 423 Q 705 441 672 454 Q 650 463 628 452 Q 574 421 499 408 Q 471 405 460 398 Q 451 391 470 382 Q 497 369 537 382 Q 579 392 621 404 Q 639 411 640 390 Q 640 303 582 223 L 555 189 Q 473 123 337 86 Q 321 83 331 74 Q 338 68 368 71 Q 513 86 588 150 L 622 188 Z" fill="black" /></g></svg>