<?xml version='1.0' encoding='utf-8'?>
<svg xmlns="http://www.w3.org/2000/svg" version="1.1" viewBox="0 0 1024 1024"><g transform="scale(1, -1) translate(0, -900)"><path d="M 670 411 Q 721 424 774 431 Q 789 432 792 425 Q 799 412 797 374 Q 788 238 763 166 Q 750 120 735 107 Q 723 94 696 101 Q 665 108 636 117 Q 612 124 629 102 Q 674 54 698 17 Q 707 -4 728 2 Q 744 3 767 28 Q 830 91 854 332 Q 860 386 881 418 Q 897 440 888 450 Q 872 469 835 485 Q 810 498 782 485 Q 737 466 679 450 L 616 436 Q 540 421 494 421 Q 475 422 475 412 Q 474 402 496 388 Q 523 370 548 380 Q 576 389 608 396 L 670 411 Z" fill="black" /></g></svg>