<?xml version='1.0' encoding='utf-8'?>
<svg xmlns="http://www.w3.org/2000/svg" version="1.1" viewBox="0 0 1024 1024"><g transform="scale(1, -1) translate(0, -900)"><path d="M 869 104 Q 854 134 833 226 Q 832 242 825 246 Q 819 249 815 231 Q 794 132 777 101 Q 738 56 611 62 Q 562 63 525 79 Q 491 95 483 115 Q 456 169 492 358 C 497 384 497 384 471 396 Q 462 403 450 407 Q 437 411 429 407 Q 422 403 427 385 Q 440 346 436 310 Q 423 144 436 97 Q 440 72 464 50 Q 554 -16 734 11 Q 752 15 771 19 Q 817 32 864 62 Q 883 78 869 104 Z" fill="black" /></g></svg>