<?xml version='1.0' encoding='utf-8'?>
<svg xmlns="http://www.w3.org/2000/svg" version="1.1" viewBox="0 0 1024 1024"><g transform="scale(1, -1) translate(0, -900)"><path d="M 582 397 Q 582 398 582 400 L 582 444 Q 582 502 582 565 L 582 611 Q 583 696 600 756 Q 609 772 605 785 Q 598 795 542 829 Q 518 845 497 829 Q 493 825 499 809 Q 535 757 537 703 Q 538 655 539 602 L 541 559 Q 541 472 540 435 L 539 339 Q 539 144 514 52 Q 505 9 531 -50 Q 538 -68 546 -71 Q 553 -78 560 -70 Q 587 -46 586 13 Q 583 56 582 357 L 582 397 Z" fill="black" /></g></svg>