<?xml version='1.0' encoding='utf-8'?>
<svg xmlns="http://www.w3.org/2000/svg" version="1.1" viewBox="0 0 1024 1024"><g transform="scale(1, -1) translate(0, -900)"><path d="M 439 665 Q 429 675 398 693 Q 376 705 367 697 Q 360 690 367 674 Q 386 637 386 568 Q 387 339 364 127 Q 360 85 335 48 Q 325 32 333 10 Q 342 -12 352 -22 Q 362 -31 381 -18 Q 447 24 544 41 Q 656 59 872 52 Q 897 51 898 63 Q 898 79 869 100 Q 853 113 819 107 Q 716 92 632 84 Q 548 81 448 63 Q 432 60 425 66 Q 418 67 418 85 Q 430 290 438 549 Q 438 603 447 638 C 450 657 450 657 439 665 Z" fill="black" /></g></svg>