<?xml version='1.0' encoding='utf-8'?>
<svg xmlns="http://www.w3.org/2000/svg" version="1.1" viewBox="0 0 1024 1024"><g transform="scale(1, -1) translate(0, -900)"><path d="M 568 382 Q 608 479 615 493 L 629 533 Q 683 713 692 727 Q 704 740 698 756 Q 685 778 654 798 Q 636 814 621 811 Q 608 805 611 790 Q 626 756 617 706 Q 610 679 602 645 Q 586 579 566 520 L 552 480 Q 486 315 397 199 Q 274 61 274 59 Q 270 47 281 48 Q 320 48 433 169 Q 458 199 483 232 Q 523 290 558 360 L 568 382 Z" fill="black" /></g></svg>