<?xml version='1.0' encoding='utf-8'?>
<svg xmlns="http://www.w3.org/2000/svg" version="1.1" viewBox="0 0 1024 1024"><g transform="scale(1, -1) translate(0, -900)"><path d="M 629 322 Q 629 373 629 425 L 629 473 Q 629 528 631 574 L 632 626 Q 635 740 655 774 Q 662 790 641 807 Q 616 826 571 838 Q 550 844 537 829 Q 527 820 540 808 Q 570 783 572 747 Q 572 693 573 611 L 573 563 Q 573 517 573 461 L 573 416 Q 576 404 573 314 L 573 268 Q 567 -8 588 -44 Q 603 -60 612 -38 Q 630 4 629 275 L 629 322 Z" fill="black" /></g></svg>