<?xml version='1.0' encoding='utf-8'?>
<svg xmlns="http://www.w3.org/2000/svg" version="1.1" viewBox="0 0 1024 1024"><g transform="scale(1, -1) translate(0, -900)"><path d="M 492 358 Q 501 367 627 400 Q 636 401 642 398 Q 651 394 650 377 Q 646 340 627 272 Q 623 248 599 254 Q 569 261 546 267 Q 531 270 535 261 Q 536 252 559 232 Q 590 202 606 171 Q 613 161 622 164 Q 629 165 645 186 Q 669 214 676 249 Q 700 370 716 383 Q 726 392 722 403 Q 715 415 680 438 Q 668 447 610 432 Q 607 432 471 396 C 442 388 465 345 492 358 Z" fill="black" /></g></svg>