<?xml version='1.0' encoding='utf-8'?>
<svg xmlns="http://www.w3.org/2000/svg" version="1.1" viewBox="0 0 1024 1024"><g transform="scale(1, -1) translate(0, -900)"><path d="M 661 92 Q 639 102 609 111 Q 597 115 597 108 Q 596 101 606 89 Q 667 29 705 -19 Q 717 -29 732 -12 Q 775 42 774 125 Q 762 422 769 544 Q 770 572 773 600 Q 780 628 773 639 Q 766 649 743 662 C 718 678 677 685 690 658 Q 691 654 697 645 Q 709 620 708 577 Q 711 441 709 132 Q 708 101 698 90 Q 688 84 661 92 Z" fill="black" /></g></svg>