<?xml version='1.0' encoding='utf-8'?>
<svg xmlns="http://www.w3.org/2000/svg" version="1.1" viewBox="0 0 1024 1024"><g transform="scale(1, -1) translate(0, -900)"><path d="M 944 87 Q 928 145 922 241 Q 921 257 914 262 Q 905 266 901 247 Q 882 129 864 107 Q 822 62 660 61 Q 570 64 532 79 Q 499 97 492 119 Q 468 185 490 304 L 500 345 L 500 347 Q 515 377 494 394 Q 443 431 428 427 Q 412 421 420 404 Q 439 370 436 321 L 435 278 Q 434 145 443 115 Q 455 72 487 48 Q 556 -1 781 12 Q 884 19 926 42 Q 956 57 944 87 Z" fill="black" /></g></svg>