<?xml version='1.0' encoding='utf-8'?>
<svg xmlns="http://www.w3.org/2000/svg" version="1.1" viewBox="0 0 1024 1024"><g transform="scale(1, -1) translate(0, -900)"><path d="M 597 553 Q 597 676 614 743 Q 624 759 620 774 Q 613 784 552 820 Q 527 839 505 821 Q 499 815 506 799 Q 540 751 542 702 Q 543 630 547 548 Q 546 547 546 542 L 546 415 Q 546 216 534 149 Q 510 58 535 4 Q 536 -2 541 -9 Q 548 -28 557 -31 Q 564 -38 571 -29 Q 580 -25 590 -2 Q 600 25 599 59 Q 598 102 597 451 L 597 553 Z" fill="black" /></g></svg>