<?xml version='1.0' encoding='utf-8'?>
<svg xmlns="http://www.w3.org/2000/svg" version="1.1" viewBox="0 0 1024 1024"><g transform="scale(1, -1) translate(0, -900)"><path d="M 905 112 Q 892 140 873 224 Q 872 240 865 246 Q 859 250 854 231 Q 826 140 807 112 Q 794 94 753 84 Q 657 62 577 96 Q 544 112 536 133 Q 515 173 521 257 L 523 279 Q 527 337 538 404 Q 542 422 531 432 Q 518 445 494 455 Q 481 459 472 454 Q 465 450 470 432 Q 483 392 481 353 Q 471 166 486 113 Q 492 85 517 62 Q 601 -10 777 16 Q 793 20 812 24 Q 855 37 898 68 Q 919 84 905 112 Z" fill="black" /></g></svg>