<?xml version='1.0' encoding='utf-8'?>
<svg xmlns="http://www.w3.org/2000/svg" version="1.1" viewBox="0 0 1024 1024"><g transform="scale(1, -1) translate(0, -900)"><path d="M 569 652 Q 651 673 719 682 Q 743 685 747 677 Q 757 662 750 625 Q 737 520 710 475 Q 691 441 661 447 Q 633 454 607 462 Q 582 469 601 445 Q 647 405 670 372 Q 689 350 707 367 Q 770 406 801 569 Q 814 653 833 676 Q 846 689 840 701 Q 830 714 775 739 Q 753 749 733 735 Q 706 719 605 698 Q 505 674 418 669 Q 399 668 395 658 Q 394 649 420 636 Q 448 618 470 626 Q 498 633 528 641 L 569 652 Z" fill="black" /></g></svg>