<?xml version='1.0' encoding='utf-8'?>
<svg xmlns="http://www.w3.org/2000/svg" version="1.1" viewBox="0 0 1024 1024"><g transform="scale(1, -1) translate(0, -900)"><path d="M 910 377 Q 926 383 917 400 Q 901 421 881 432 Q 868 439 842 428 Q 799 407 743 410 Q 709 411 698 436 Q 676 467 684 566 Q 684 627 734 692 Q 753 708 734 724 Q 709 746 679 758 Q 667 764 648 752 Q 587 722 502 706 C 473 700 487 663 516 669 Q 531 669 609 696 Q 631 705 639 701 Q 648 697 646 680 Q 637 463 638 456 Q 641 399 682 372 Q 722 350 798 352 Q 873 355 910 377 Z" fill="black" /></g></svg>