<?xml version='1.0' encoding='utf-8'?>
<svg xmlns="http://www.w3.org/2000/svg" version="1.1" viewBox="0 0 1024 1024"><g transform="scale(1, -1) translate(0, -900)"><path d="M 776 590 Q 791 626 815 643 Q 834 665 807 682 Q 782 701 756 715 Q 740 725 718 716 Q 693 706 656 696 L 607 687 Q 564 680 519 667 L 466 654 Q 417 644 382 640 Q 369 640 367 632 Q 366 625 387 614 Q 406 601 436 611 Q 451 615 468 620 L 518 633 Q 539 642 606 650 L 655 659 Q 680 663 710 667 Q 723 668 728 663 Q 734 651 718 585 C 711 556 763 563 776 590 Z" fill="black" /></g></svg>