<?xml version='1.0' encoding='utf-8'?>
<svg xmlns="http://www.w3.org/2000/svg" version="1.1" viewBox="0 0 1024 1024"><g transform="scale(1, -1) translate(0, -900)"><path d="M 652 395 Q 772 416 799 410 Q 812 410 819 399 Q 828 384 794 275 Q 790 257 771 260 Q 740 266 700 274 Q 673 280 694 257 Q 755 209 769 183 Q 776 170 789 173 Q 802 174 816 187 Q 841 217 859 282 Q 871 348 900 377 Q 916 396 905 409 Q 880 434 844 454 Q 829 464 752 444 Q 686 435 652 427 L 601 419 Q 552 412 516 404 L 464 393 Q 445 390 430 385 Q 402 378 387 380 Q 380 381 382 395 Q 395 456 407 472 Q 411 479 413 485 C 419 498 418 499 393 515 Q 381 525 367 532 Q 357 539 346 533 Q 339 529 346 510 Q 356 485 346 450 Q 328 395 312 374 Q 302 358 311 342 Q 320 317 332 310 Q 342 304 365 321 Q 393 343 460 361 L 513 373 Q 547 380 601 388 L 652 395 Z" fill="black" /></g></svg>