<?xml version='1.0' encoding='utf-8'?>
<svg xmlns="http://www.w3.org/2000/svg" version="1.1" viewBox="0 0 1024 1024"><g transform="scale(1, -1) translate(0, -900)"><path d="M 596 -27 Q 602 -55 609 -65 Q 615 -72 623 -70 Q 639 -61 646 4 Q 659 116 655 226 Q 652 275 652 395 L 652 427 Q 652 476 653 535 L 654 569 Q 654 612 655 659 L 656 696 Q 656 730 671 806 Q 675 825 659 835 Q 625 859 607 862 Q 594 866 576 857 Q 566 848 575 837 Q 603 773 606 749 Q 606 719 607 687 L 606 650 Q 605 607 605 557 L 604 526 Q 603 477 601 419 L 601 388 Q 583 105 596 -27 Z" fill="black" /></g></svg>