<?xml version='1.0' encoding='utf-8'?>
<svg xmlns="http://www.w3.org/2000/svg" version="1.1" viewBox="0 0 1024 1024"><g transform="scale(1, -1) translate(0, -900)"><path d="M 519 667 Q 520 701 530 738 Q 534 750 525 757 Q 506 772 470 783 Q 448 790 432 784 Q 413 774 430 759 Q 460 732 463 702 Q 464 678 466 654 L 468 620 Q 469 572 470 528 L 470 499 Q 469 444 464 393 L 460 361 Q 442 219 351 118 Q 306 79 305 74 Q 301 67 317 69 Q 351 69 428 145 Q 497 214 513 373 L 516 404 Q 520 458 521 510 L 520 538 Q 520 584 519 631 Q 518 632 518 633 L 519 667 Z" fill="black" /></g></svg>