<?xml version='1.0' encoding='utf-8'?>
<svg xmlns="http://www.w3.org/2000/svg" version="1.1" viewBox="0 0 1024 1024"><g transform="scale(1, -1) translate(0, -900)"><path d="M 570 488 Q 494 478 388 469 C 358 466 379 422 409 427 Q 416 427 425 429 Q 488 444 570 457 L 617 466 Q 677 478 746 489 Q 780 496 796 480 Q 823 423 772 186 Q 769 164 760 162 Q 759 161 755 162 C 736 138 715 157 721 142 Q 731 114 755 62 Q 764 43 775 44 Q 791 47 803 74 Q 842 147 848 245 Q 858 306 865 377 Q 871 429 896 462 Q 915 483 901 497 Q 877 521 827 543 Q 808 555 772 542 Q 697 515 618 497 L 570 488 Z" fill="black" /></g></svg>