<?xml version='1.0' encoding='utf-8'?>
<svg xmlns="http://www.w3.org/2000/svg" version="1.1" viewBox="0 0 1024 1024"><g transform="scale(1, -1) translate(0, -900)"><path d="M 645 341 Q 632 187 639 155 Q 646 127 664 108 Q 718 51 876 52 Q 946 56 974 71 Q 1005 86 995 118 Q 980 163 974 239 Q 973 255 966 262 Q 957 268 952 247 Q 927 156 912 141 Q 897 119 792 121 Q 737 124 714 133 Q 695 143 690 155 Q 681 185 687 257 Q 697 338 715 374 Q 730 405 710 423 Q 661 466 643 463 Q 627 457 634 439 Q 653 399 645 341 Z" fill="black" /></g></svg>