<?xml version='1.0' encoding='utf-8'?>
<svg xmlns="http://www.w3.org/2000/svg" version="1.1" viewBox="0 0 1024 1024"><g transform="scale(1, -1) translate(0, -900)"><path d="M 464 401 Q 513 414 566 421 L 605 427 Q 653 434 714 440 L 759 443 Q 820 449 892 451 Q 961 451 968 462 Q 972 474 957 486 Q 899 528 844 507 Q 808 500 765 489 L 717 479 Q 617 464 605 458 L 564 451 Q 515 445 465 436 L 414 428 Q 356 421 295 410 Q 276 407 291 391 Q 304 378 322 374 Q 343 370 358 374 Q 386 384 416 391 L 464 401 Z" fill="black" /></g></svg>