<?xml version='1.0' encoding='utf-8'?>
<svg xmlns="http://www.w3.org/2000/svg" version="1.1" viewBox="0 0 1024 1024"><g transform="scale(1, -1) translate(0, -900)"><path d="M 438 377 Q 457 378 466 369 Q 476 356 472 317 Q 465 220 440 155 Q 427 121 414 107 Q 407 98 383 106 Q 359 113 339 120 Q 324 127 326 117 Q 327 104 340 91 Q 368 58 383 29 Q 399 5 421 18 Q 488 76 503 158 Q 533 339 535 343 Q 536 349 542 355 Q 552 371 542 382 Q 530 398 501 412 Q 479 422 463 414 Q 445 410 393 394 Q 384 393 381 395 Q 377 399 381 412 Q 394 457 410 511 Q 411 515 412 518 C 418 538 418 538 400 552 Q 391 562 372 572 Q 360 581 352 575 Q 342 569 352 556 Q 371 522 357 470 Q 341 401 310 375 Q 298 362 302 350 Q 309 337 319 330 Q 329 323 347 337 Q 378 373 438 377 Z" fill="black" /></g></svg>