<?xml version='1.0' encoding='utf-8'?>
<svg xmlns="http://www.w3.org/2000/svg" version="1.1" viewBox="0 0 1024 1024"><g transform="scale(1, -1) translate(0, -900)"><path d="M 547 156 Q 742 32 887 105 Q 903 109 902 120 Q 899 133 882 151 Q 855 179 785 272 Q 779 281 773 282 Q 770 281 771 273 Q 777 231 782 184 Q 783 165 771 156 Q 747 143 642 175 Q 608 187 583 200 L 542 235 Q 511 274 493 357 Q 489 384 468 396 Q 452 406 445 399 Q 444 399 470 299 Q 485 233 512 194 L 547 156 Z" fill="black" /></g></svg>