<?xml version='1.0' encoding='utf-8'?>
<svg xmlns="http://www.w3.org/2000/svg" version="1.1" viewBox="0 0 1024 1024"><g transform="scale(1, -1) translate(0, -900)"><path d="M 710 138 Q 723 110 757 53 Q 767 34 779 37 Q 797 41 805 70 Q 839 154 835 261 Q 838 328 838 406 Q 842 458 866 492 Q 884 514 870 528 Q 845 550 794 571 Q 773 581 680 547 Q 593 526 518 513 L 489 509 Q 482 509 475 507 C 445 503 460 465 490 470 Q 496 470 503 471 Q 737 525 756 507 Q 768 491 770 471 Q 779 327 762 186 Q 761 161 751 158 Q 750 158 747 158 C 729 134 701 156 710 138 Z" fill="black" /></g></svg>