<?xml version='1.0' encoding='utf-8'?>
<svg xmlns="http://www.w3.org/2000/svg" version="1.1" viewBox="0 0 1024 1024"><g transform="scale(1, -1) translate(0, -900)"><path d="M 367 616 Q 403 622 438 639 Q 451 646 459 639 Q 465 635 458 614 Q 424 512 435 495 Q 489 405 472 386 Q 465 376 442 380 Q 414 386 384 387 Q 362 388 386 374 Q 438 346 485 312 Q 498 299 511 311 Q 526 320 533 343 Q 540 365 527 405 Q 512 451 481 486 Q 457 522 470 543 Q 510 622 535 642 Q 554 655 543 667 Q 530 683 492 701 Q 471 708 459 696 Q 414 657 349 644 C 320 637 338 610 367 616 Z" fill="black" /></g></svg>