<?xml version='1.0' encoding='utf-8'?>
<svg xmlns="http://www.w3.org/2000/svg" version="1.1" viewBox="0 0 1024 1024"><g transform="scale(1, -1) translate(0, -900)"><path d="M 705 476 Q 750 488 796 494 Q 809 495 813 489 Q 820 473 817 431 Q 807 277 778 194 Q 763 142 747 127 Q 735 117 713 124 Q 680 136 652 147 Q 630 156 644 133 Q 687 81 710 40 Q 719 18 740 22 Q 759 25 782 51 Q 851 124 873 387 Q 879 447 901 482 Q 917 503 908 512 Q 893 531 859 545 Q 834 558 809 545 Q 769 526 712 510 L 651 495 Q 587 482 550 480 Q 534 481 533 472 Q 532 463 552 452 Q 576 437 597 446 Q 619 453 644 460 L 705 476 Z" fill="black" /></g></svg>