<?xml version='1.0' encoding='utf-8'?>
<svg xmlns="http://www.w3.org/2000/svg" version="1.1" viewBox="0 0 1024 1024"><g transform="scale(1, -1) translate(0, -900)"><path d="M 630 113 Q 672 49 678 17 Q 685 -20 699 -26 Q 715 -29 736 8 Q 761 56 769 137 Q 754 308 753 479 L 753 534 Q 753 666 771 733 Q 789 766 728 790 Q 691 809 671 801 Q 652 794 669 769 Q 693 741 695 704 Q 696 685 697 522 L 697 474 Q 696 347 695 146 Q 695 124 683 116 Q 677 115 667 120 Q 663 121 659 124 C 630 132 616 135 630 113 Z" fill="black" /></g></svg>