<?xml version='1.0' encoding='utf-8'?>
<svg xmlns="http://www.w3.org/2000/svg" version="1.1" viewBox="0 0 1024 1024"><g transform="scale(1, -1) translate(0, -900)"><path d="M 722 179 Q 604 160 484 137 Q 474 136 472 138 Q 471 142 477 149 Q 580 285 620 319 Q 636 335 626 346 Q 617 358 592 364 C 564 374 530 384 532 354 Q 532 350 533 344 Q 537 322 519 284 Q 494 233 449 183 Q 424 152 372 125 Q 341 112 341 100 Q 340 81 352 58 Q 364 36 378 30 Q 387 26 399 33 Q 498 97 724 154 Q 730 155 736 157 C 765 164 752 184 722 179 Z" fill="black" /></g></svg>