<?xml version='1.0' encoding='utf-8'?>
<svg xmlns="http://www.w3.org/2000/svg" version="1.1" viewBox="0 0 1024 1024"><g transform="scale(1, -1) translate(0, -900)"><path d="M 454 228 Q 458 231 466 234 Q 614 304 727 405 Q 761 438 812 463 Q 839 478 827 493 Q 815 512 749 542 Q 724 555 695 539 Q 620 508 535 481 Q 450 460 376 450 Q 349 447 357 432 Q 367 416 400 406 Q 434 394 472 412 Q 557 451 670 487 Q 692 491 683 471 Q 677 452 621 396 Q 569 338 419 237 C 394 220 427 215 454 228 Z" fill="black" /></g></svg>