<?xml version='1.0' encoding='utf-8'?>
<svg xmlns="http://www.w3.org/2000/svg" version="1.1" viewBox="0 0 1024 1024"><g transform="scale(1, -1) translate(0, -900)"><path d="M 496 722 Q 481 735 456 747 Q 437 757 424 753 Q 412 746 419 732 Q 443 699 435 609 Q 434 605 434 599 Q 425 419 373 270 Q 337 174 239 18 Q 233 12 232 6 Q 229 -4 240 -3 Q 267 3 345 114 Q 370 153 393 200 Q 457 347 482 548 L 484 571 Q 484 572 485 573 Q 494 663 501 689 Q 501 690 502 691 C 507 714 507 714 496 722 Z" fill="black" /></g></svg>