<?xml version='1.0' encoding='utf-8'?>
<svg xmlns="http://www.w3.org/2000/svg" version="1.1" viewBox="0 0 1024 1024"><g transform="scale(1, -1) translate(0, -900)"><path d="M 608 163 Q 598 151 587 139 Q 533 90 397 50 Q 381 46 391 38 Q 398 32 428 36 Q 519 46 572 70 Q 611 89 643 124 L 674 164 Q 711 219 737 301 Q 744 337 766 354 Q 782 369 764 385 Q 743 401 709 416 Q 687 423 664 413 Q 642 401 618 392 L 574 380 Q 496 365 492 362 Q 483 355 502 346 Q 529 333 569 345 Q 612 355 656 366 Q 677 373 677 349 Q 677 277 633 199 L 608 163 Z" fill="black" /></g></svg>