<?xml version='1.0' encoding='utf-8'?>
<svg xmlns="http://www.w3.org/2000/svg" version="1.1" viewBox="0 0 1024 1024"><g transform="scale(1, -1) translate(0, -900)"><path d="M 945 111 Q 929 142 906 240 Q 905 258 897 262 Q 890 266 886 246 Q 862 141 843 108 Q 822 83 762 67 Q 698 51 621 54 Q 555 57 505 78 Q 459 100 447 128 Q 425 174 434 286 L 437 317 Q 443 366 453 421 Q 453 422 453 423 C 456 442 456 442 446 449 Q 433 462 410 471 Q 397 475 389 470 Q 382 466 388 449 Q 400 410 397 373 Q 382 166 400 109 Q 406 75 437 48 Q 537 -33 768 -3 Q 795 1 823 9 Q 881 25 940 64 Q 962 82 945 111 Z" fill="black" /></g></svg>