<?xml version='1.0' encoding='utf-8'?>
<svg xmlns="http://www.w3.org/2000/svg" version="1.1" viewBox="0 0 1024 1024"><g transform="scale(1, -1) translate(0, -900)"><path d="M 444 481 Q 462 518 476 559 L 487 599 Q 488 608 512 686 L 523 728 Q 532 759 549 786 Q 561 805 544 815 Q 496 857 467 850 Q 452 846 457 830 Q 472 794 462 717 L 455 678 Q 448 636 433 590 L 419 550 Q 401 502 383 472 L 360 433 Q 275 310 136 235 Q 118 225 101 213 Q 86 204 99 200 Q 115 199 153 211 Q 229 239 290 288 Q 359 337 395 396 Q 408 421 424 444 L 444 481 Z" fill="black" /></g></svg>