<?xml version='1.0' encoding='utf-8'?>
<svg xmlns="http://www.w3.org/2000/svg" version="1.1" viewBox="0 0 1024 1024"><g transform="scale(1, -1) translate(0, -900)"><path d="M 714 145 Q 612 135 497 110 Q 464 101 487 125 Q 541 185 665 303 Q 702 343 735 363 Q 751 373 744 386 Q 735 408 699 435 Q 683 448 671 446 Q 659 445 659 425 Q 659 386 590 296 L 576 278 Q 575 277 574 275 Q 430 119 395 104 Q 377 95 379 79 Q 379 63 407 38 Q 417 22 436 35 Q 565 98 726 122 C 756 127 744 148 714 145 Z" fill="black" /></g></svg>