<?xml version='1.0' encoding='utf-8'?>
<svg xmlns="http://www.w3.org/2000/svg" version="1.1" viewBox="0 0 1024 1024"><g transform="scale(1, -1) translate(0, -900)"><path d="M 685 127 Q 722 81 749 39 Q 759 18 772 19 Q 791 20 808 59 Q 827 104 823 157 Q 810 311 801 597 Q 800 633 817 658 Q 827 674 817 685 Q 795 707 734 732 Q 713 742 696 731 Q 635 701 473 665 C 444 658 453 621 482 627 Q 507 631 680 673 Q 707 679 721 669 Q 760 630 743 189 Q 740 173 740 159 Q 736 144 726 144 C 710 119 668 149 685 127 Z" fill="black" /></g></svg>