<?xml version='1.0' encoding='utf-8'?>
<svg xmlns="http://www.w3.org/2000/svg" version="1.1" viewBox="0 0 1024 1024"><g transform="scale(1, -1) translate(0, -900)"><path d="M 576 285 Q 577 300 581 314 L 585 351 Q 586 375 588 399 Q 591 456 593 511 L 595 549 Q 602 699 625 752 Q 632 767 620 779 Q 596 798 554 811 Q 527 818 518 810 Q 508 803 516 789 Q 541 750 544 700 Q 548 618 546 537 L 545 502 Q 544 438 537 376 Q 536 360 533 343 L 528 306 Q 503 165 390 83 Q 347 53 287 23 Q 274 16 273 11 Q 274 7 286 6 Q 305 2 352 18 Q 431 40 487 99 Q 538 150 562 225 Q 565 238 569 251 L 576 285 Z" fill="black" /></g></svg>