<?xml version='1.0' encoding='utf-8'?>
<svg xmlns="http://www.w3.org/2000/svg" version="1.1" viewBox="0 0 1024 1024"><g transform="scale(1, -1) translate(0, -900)"><path d="M 616 360 Q 670 188 796 67 Q 818 48 847 28 Q 911 -9 949 -15 Q 979 -11 972 26 Q 956 60 938 225 Q 937 240 929 241 Q 923 241 921 225 Q 914 186 906 149 Q 897 100 880 97 Q 837 100 766 186 Q 718 246 684 318 Q 671 345 662 370 L 651 413 Q 642 452 652 497 Q 656 518 616 540 Q 615 541 611 542 C 585 557 538 557 556 533 Q 581 508 591 458 Q 597 430 604 401 L 616 360 Z" fill="black" /></g></svg>