<?xml version='1.0' encoding='utf-8'?>
<svg xmlns="http://www.w3.org/2000/svg" version="1.1" viewBox="0 0 1024 1024"><g transform="scale(1, -1) translate(0, -900)"><path d="M 569 144 Q 573 90 608 63 Q 657 24 840 28 Q 922 32 955 49 Q 986 65 974 97 Q 956 149 947 240 Q 946 256 938 262 Q 929 268 925 246 Q 906 135 890 115 Q 859 85 745 81 Q 681 82 654 92 Q 620 110 614 180 L 612 229 Q 612 328 638 391 Q 651 422 631 440 Q 579 480 562 477 Q 546 470 554 453 Q 575 413 569 355 Q 565 249 566 187 L 569 144 Z" fill="black" /></g></svg>