<?xml version='1.0' encoding='utf-8'?>
<svg xmlns="http://www.w3.org/2000/svg" version="1.1" viewBox="0 0 1024 1024"><g transform="scale(1, -1) translate(0, -900)"><path d="M 606 375 Q 609 111 589 94 Q 580 87 567 91 Q 528 101 490 111 Q 478 114 479 106 Q 480 99 490 92 Q 569 26 597 -13 Q 612 -29 627 -16 Q 660 14 660 114 Q 657 181 656 382 L 655 428 Q 656 471 667 499 Q 676 518 659 531 Q 634 553 603 562 Q 585 569 577 561 Q 571 554 582 539 Q 604 502 604 458 Q 604 440 605 421 L 606 375 Z" fill="black" /></g></svg>