<?xml version='1.0' encoding='utf-8'?>
<svg xmlns="http://www.w3.org/2000/svg" version="1.1" viewBox="0 0 1024 1024"><g transform="scale(1, -1) translate(0, -900)"><path d="M 475 320 Q 557 363 754 380 Q 778 383 786 374 Q 804 355 797 316 Q 784 234 750 123 Q 741 101 723 88 Q 714 84 638 109 Q 622 119 619 110 Q 618 100 636 83 Q 672 38 686 2 Q 704 -29 728 -11 Q 785 25 806 77 Q 821 129 855 294 Q 862 337 883 356 Q 899 372 892 383 Q 880 396 830 423 Q 805 436 774 430 Q 740 420 699 415 Q 602 400 513 378 Q 491 374 493 390 Q 503 454 516 499 L 521 518 Q 528 546 537 565 Q 544 581 535 592 Q 519 608 504 615 Q 482 625 473 620 Q 464 616 470 602 Q 486 565 455 422 Q 452 406 419 372 Q 407 357 416 345 Q 426 333 447 317 Q 457 308 475 320 Z" fill="black" /></g></svg>