<?xml version='1.0' encoding='utf-8'?>
<svg xmlns="http://www.w3.org/2000/svg" version="1.1" viewBox="0 0 1024 1024"><g transform="scale(1, -1) translate(0, -900)"><path d="M 472 606 Q 453 624 427 633 Q 412 637 404 629 Q 400 623 409 606 Q 428 578 426 538 Q 427 433 392 380 Q 380 365 386 354 Q 393 335 411 320 Q 424 310 440 323 Q 485 357 606 375 L 656 382 Q 732 391 828 384 Q 850 381 860 388 Q 867 394 861 405 Q 855 418 817 439 Q 799 449 718 437 Q 700 437 655 428 L 605 421 Q 541 411 480 395 Q 467 391 465 395 Q 455 402 460 421 Q 472 539 485 573 Q 488 582 486 588 C 487 594 487 594 472 606 Z" fill="black" /></g></svg>