<?xml version='1.0' encoding='utf-8'?>
<svg xmlns="http://www.w3.org/2000/svg" version="1.1" viewBox="0 0 1024 1024"><g transform="scale(1, -1) translate(0, -900)"><path d="M 610 417 Q 610 546 625 572 Q 638 591 626 601 Q 604 620 568 636 Q 547 645 501 619 Q 459 607 415 600 Q 399 599 408 590 Q 417 580 431 574 Q 449 570 524 590 Q 543 596 549 585 Q 559 552 557 295 Q 551 85 536 61 Q 530 57 443 72 Q 422 76 425 67 Q 492 21 530 -14 Q 543 -33 559 -37 Q 569 -41 577 -31 Q 619 21 614 74 Q 610 195 610 371 L 610 417 Z" fill="black" /></g></svg>