<?xml version='1.0' encoding='utf-8'?>
<svg xmlns="http://www.w3.org/2000/svg" version="1.1" viewBox="0 0 1024 1024"><g transform="scale(1, -1) translate(0, -900)"><path d="M 600 540 Q 646 595 695 675 Q 713 702 739 718 Q 754 725 755 734 Q 755 747 727 765 Q 693 789 679 789 Q 669 789 656 782 Q 527 743 446 743 Q 409 743 407 735 Q 406 731 412 726 Q 455 687 616 734 Q 637 740 645 734 Q 651 730 630 681 Q 609 632 571 584 Q 565 577 560 570 L 537 543 Q 443 443 299 384 Q 289 381 290 376 Q 291 372 298 371 Q 428 367 573 509 L 600 540 Z" fill="black" /></g></svg>