<?xml version='1.0' encoding='utf-8'?>
<svg xmlns="http://www.w3.org/2000/svg" version="1.1" viewBox="0 0 1024 1024"><g transform="scale(1, -1) translate(0, -900)"><path d="M 565 -38 Q 571 -63 578 -73 Q 584 -80 591 -78 Q 606 -68 613 -9 Q 617 33 618 285 L 619 323 Q 619 372 621 431 L 623 470 Q 624 491 633 533 Q 636 552 622 561 Q 609 570 599 575 C 573 590 494 571 523 563 Q 538 563 547 554 Q 565 500 566 494 Q 565 493 566 490 Q 566 475 566 459 L 566 422 Q 566 373 565 315 L 565 278 Q 559 23 565 -38 Z" fill="black" /></g></svg>