<?xml version='1.0' encoding='utf-8'?>
<svg xmlns="http://www.w3.org/2000/svg" version="1.1" viewBox="0 0 1024 1024"><g transform="scale(1, -1) translate(0, -900)"><path d="M 621 447 Q 621 504 622 566 L 623 615 Q 624 699 640 758 Q 650 774 646 788 Q 639 798 581 833 Q 556 849 535 834 Q 529 828 536 812 Q 570 763 573 711 Q 574 660 575 603 L 576 556 Q 576 555 577 551 Q 576 496 575 439 L 574 334 Q 574 175 549 84 Q 539 42 566 -21 Q 573 -40 581 -43 Q 588 -50 595 -41 Q 604 -37 614 -15 Q 624 12 623 44 Q 622 84 621 366 L 621 447 Z" fill="black" /></g></svg>