<?xml version='1.0' encoding='utf-8'?>
<svg xmlns="http://www.w3.org/2000/svg" version="1.1" viewBox="0 0 1024 1024"><g transform="scale(1, -1) translate(0, -900)"><path d="M 749 142 Q 759 117 777 73 Q 784 55 795 56 Q 811 57 822 83 Q 859 147 867 236 Q 877 291 886 355 Q 892 406 917 436 Q 935 457 922 471 Q 900 493 851 517 Q 832 527 797 516 Q 733 497 664 481 L 629 474 Q 614 473 600 470 Q 578 469 553 464 L 511 460 Q 444 456 360 452 C 330 451 364 407 394 410 Q 403 409 412 411 Q 455 418 507 427 L 549 433 Q 586 440 628 445 L 663 450 Q 712 459 768 465 Q 807 472 822 453 Q 846 399 795 190 Q 792 171 784 168 L 782 168 C 767 142 742 160 749 142 Z" fill="black" /></g></svg>