<?xml version='1.0' encoding='utf-8'?>
<svg xmlns="http://www.w3.org/2000/svg" version="1.1" viewBox="0 0 1024 1024"><g transform="scale(1, -1) translate(0, -900)"><path d="M 635 166 Q 704 176 819 170 Q 841 169 850 181 Q 856 191 836 203 Q 776 246 716 224 Q 668 218 635 209 L 583 200 Q 525 190 469 175 Q 442 168 450 190 Q 466 235 478 251 Q 488 261 484 271 Q 478 283 444 302 Q 428 312 416 307 Q 404 298 413 284 Q 431 241 398 184 Q 368 150 369 140 Q 372 128 388 114 Q 401 104 415 117 Q 472 145 583 159 L 635 166 Z" fill="black" /></g></svg>