<?xml version='1.0' encoding='utf-8'?>
<svg xmlns="http://www.w3.org/2000/svg" version="1.1" viewBox="0 0 1024 1024"><g transform="scale(1, -1) translate(0, -900)"><path d="M 434 643 Q 441 644 446 645 Q 741 729 770 701 Q 783 694 788 629 Q 803 412 789 165 Q 788 128 775 119 Q 759 109 683 126 Q 665 130 666 119 Q 667 110 682 104 Q 749 55 785 16 Q 807 -6 822 -2 Q 835 1 848 32 Q 864 81 864 154 Q 848 487 851 610 Q 850 653 863 679 Q 876 704 864 716 Q 852 732 799 758 Q 775 770 710 748 Q 529 706 404 688 C 374 683 405 636 434 643 Z" fill="black" /></g></svg>