<?xml version='1.0' encoding='utf-8'?>
<svg xmlns="http://www.w3.org/2000/svg" version="1.1" viewBox="0 0 1024 1024"><g transform="scale(1, -1) translate(0, -900)"><path d="M 561 682 Q 494 672 428 665 Q 412 664 413 654 Q 416 647 434 639 Q 459 629 494 639 Q 525 645 560 650 L 618 660 Q 648 666 678 671 Q 702 675 711 666 Q 724 656 721 631 Q 718 612 714 592 L 707 554 Q 700 520 691 487 C 683 458 734 460 741 489 Q 750 531 760 558 L 778 604 Q 778 605 779 605 Q 792 632 809 647 Q 827 666 811 684 Q 795 697 741 722 Q 722 729 701 721 Q 658 706 620 695 L 561 682 Z" fill="black" /></g></svg>