<?xml version='1.0' encoding='utf-8'?>
<svg xmlns="http://www.w3.org/2000/svg" version="1.1" viewBox="0 0 1024 1024"><g transform="scale(1, -1) translate(0, -900)"><path d="M 693 139 Q 741 40 830 -30 Q 894 -85 927 -86 Q 949 -82 942 -50 Q 936 -1 937 142 Q 936 170 926 171 Q 922 171 885 79 Q 873 43 850 51 Q 838 57 821 69 Q 775 112 736 172 L 711 215 Q 677 281 653 364 L 641 407 Q 640 413 639 418 Q 632 446 624 474 L 615 515 Q 608 552 601 587 L 597 620 Q 588 683 595 754 Q 605 797 548 817 Q 511 832 491 823 Q 470 816 481 796 Q 530 754 531 720 Q 540 660 549 606 L 555 574 Q 562 534 571 496 L 578 461 Q 585 424 595 391 L 605 354 Q 632 264 671 180 L 693 139 Z" fill="black" /></g></svg>