<?xml version='1.0' encoding='utf-8'?>
<svg xmlns="http://www.w3.org/2000/svg" version="1.1" viewBox="0 0 1024 1024"><g transform="scale(1, -1) translate(0, -900)"><path d="M 620 695 Q 620 758 643 794 Q 650 810 629 827 Q 604 846 559 859 Q 538 865 525 850 Q 515 841 528 828 Q 559 801 561 764 Q 561 730 561 682 L 560 650 Q 559 611 560 565 L 559 536 Q 558 500 558 458 L 558 425 Q 558 380 556 340 L 555 302 Q 554 260 554 224 L 553 188 Q 547 121 555 -10 Q 556 -50 568 -68 Q 583 -84 592 -62 Q 607 -26 611 195 L 612 231 Q 612 268 612 310 L 612 350 Q 612 393 613 433 L 613 469 Q 613 509 615 545 L 615 574 Q 615 623 618 660 L 620 695 Z" fill="black" /></g></svg>