<?xml version='1.0' encoding='utf-8'?>
<svg xmlns="http://www.w3.org/2000/svg" version="1.1" viewBox="0 0 1024 1024"><g transform="scale(1, -1) translate(0, -900)"><path d="M 484 476 Q 487 552 493 630 C 495 660 496 666 487 670 Q 444 694 423 695 Q 410 696 402 689 Q 392 682 407 665 Q 443 619 427 278 Q 414 113 390 93 Q 371 74 383 57 Q 390 41 405 28 Q 421 15 439 30 Q 487 88 813 89 Q 861 90 887 87 Q 926 81 935 103 L 935 105 Q 934 120 898 141 Q 864 160 843 158 Q 812 155 575 117 Q 484 98 477 107 Q 467 117 473 166 Q 474 191 476 253 Q 476 259 476 267 L 477 302 Q 478 351 483 441 L 484 476 Z" fill="black" /></g></svg>