<?xml version='1.0' encoding='utf-8'?>
<svg xmlns="http://www.w3.org/2000/svg" version="1.1" viewBox="0 0 1024 1024"><g transform="scale(1, -1) translate(0, -900)"><path d="M 496 614 Q 538 595 569 604 Q 602 616 755 645 Q 777 648 787 637 Q 826 589 798 296 Q 771 164 758 124 Q 746 97 734 91 Q 730 88 657 118 Q 642 125 638 121 Q 634 114 648 98 Q 685 47 701 4 Q 722 -27 741 -22 Q 792 -7 834 128 Q 859 219 873 515 Q 876 591 896 617 Q 914 639 891 656 Q 816 704 771 689 Q 630 650 511 631 C 481 626 468 624 496 614 Z" fill="black" /></g></svg>