<?xml version='1.0' encoding='utf-8'?>
<svg xmlns="http://www.w3.org/2000/svg" version="1.1" viewBox="0 0 1024 1024"><g transform="scale(1, -1) translate(0, -900)"><path d="M 573 196 Q 574 192 577 188 Q 590 161 598 162 Q 611 163 626 193 Q 639 217 638 235 Q 622 394 649 434 Q 659 447 652 457 Q 627 479 585 497 Q 572 501 550 494 Q 522 481 487 469 Q 448 460 416 457 C 386 454 414 428 444 432 Q 448 432 454 433 Q 554 458 566 452 Q 573 436 577 390 Q 578 255 572 229 Q 571 229 571 228 C 567 208 567 208 573 196 Z" fill="black" /></g></svg>