<?xml version='1.0' encoding='utf-8'?>
<svg xmlns="http://www.w3.org/2000/svg" version="1.1" viewBox="0 0 1024 1024"><g transform="scale(1, -1) translate(0, -900)"><path d="M 483 584 Q 519 568 547 576 Q 580 586 734 613 Q 759 617 770 605 Q 789 583 790 532 Q 794 372 783 267 Q 770 180 748 117 Q 738 92 725 85 Q 719 84 647 116 Q 637 120 634 117 Q 630 111 644 95 Q 680 44 695 2 Q 716 -29 733 -23 Q 784 -8 821 120 Q 843 207 854 490 Q 855 563 875 588 Q 891 607 869 625 Q 799 670 754 656 Q 652 629 497 603 C 467 598 454 593 483 584 Z" fill="black" /></g></svg>