<?xml version='1.0' encoding='utf-8'?>
<svg xmlns="http://www.w3.org/2000/svg" version="1.1" viewBox="0 0 1024 1024"><g transform="scale(1, -1) translate(0, -900)"><path d="M 953 65 Q 969 80 951 110 Q 932 162 923 231 Q 923 243 915 252 Q 905 258 900 233 Q 867 122 859 110 Q 853 100 831 95 Q 795 85 748 87 Q 712 87 689 96 Q 659 108 647 143 Q 629 204 641 443 Q 653 665 680 706 Q 698 751 605 780 Q 602 781 600 781 Q 579 785 571 776 Q 562 766 570 756 Q 592 735 594 660 Q 579 222 597 132 Q 606 87 646 60 Q 716 15 870 33 Q 882 36 893 38 Q 935 48 953 65 Z" fill="black" /></g></svg>