<?xml version='1.0' encoding='utf-8'?>
<svg xmlns="http://www.w3.org/2000/svg" version="1.1" viewBox="0 0 1024 1024"><g transform="scale(1, -1) translate(0, -900)"><path d="M 963 96 Q 951 118 936 191 Q 935 206 929 210 Q 923 213 919 197 Q 895 119 879 96 Q 872 86 850 80 Q 796 68 753 87 Q 719 108 716 178 Q 716 248 730 338 Q 734 356 722 365 Q 709 378 686 386 Q 673 390 665 385 Q 658 381 664 364 Q 677 325 675 289 Q 669 132 683 88 Q 687 69 704 54 Q 770 3 892 26 Q 895 29 901 29 Q 929 38 957 59 Q 975 72 963 96 Z" fill="black" /></g></svg>