<?xml version='1.0' encoding='utf-8'?>
<svg xmlns="http://www.w3.org/2000/svg" version="1.1" viewBox="0 0 1024 1024"><g transform="scale(1, -1) translate(0, -900)"><path d="M 641 491 Q 765 367 857 361 Q 879 365 872 394 Q 862 419 852 533 Q 851 543 846 545 Q 842 545 839 533 Q 829 508 819 483 Q 806 452 795 451 Q 779 450 742 473 Q 708 492 676 523 L 643 558 Q 601 612 582 645 L 563 686 Q 542 732 549 771 Q 550 790 512 804 Q 475 819 464 813 Q 454 806 461 792 Q 486 771 500 730 Q 510 699 524 671 L 542 632 Q 573 572 612 525 L 641 491 Z" fill="black" /></g></svg>