<?xml version='1.0' encoding='utf-8'?>
<svg xmlns="http://www.w3.org/2000/svg" version="1.1" viewBox="0 0 1024 1024"><g transform="scale(1, -1) translate(0, -900)"><path d="M 758 499 Q 795 507 821 510 Q 847 510 849 493 Q 860 351 844 331 Q 837 327 795 336 Q 765 343 764 338 Q 760 334 770 324 Q 823 286 855 256 Q 868 244 881 258 Q 906 294 904 351 L 901 445 Q 901 474 904 501 Q 907 519 898 527 Q 866 555 855 558 Q 845 561 837 553 Q 833 545 758 525 L 710 517 L 624 502 C 594 497 607 465 636 472 L 710 490 L 758 499 Z" fill="black" /></g></svg>