<?xml version='1.0' encoding='utf-8'?>
<svg xmlns="http://www.w3.org/2000/svg" version="1.1" viewBox="0 0 1024 1024"><g transform="scale(1, -1) translate(0, -900)"><path d="M 534 338 Q 518 194 412 117 Q 369 89 307 59 Q 294 52 293 48 Q 294 44 306 42 Q 324 38 368 52 Q 441 71 494 123 Q 563 189 581 314 L 587 386 Q 587 387 588 387 Q 594 508 600 620 L 602 668 Q 602 669 628 764 Q 635 779 624 791 Q 600 810 558 823 Q 531 830 522 823 Q 512 816 520 802 Q 547 757 549 655 L 549 609 Q 549 491 538 379 L 534 338 Z" fill="black" /></g></svg>