<?xml version='1.0' encoding='utf-8'?>
<svg xmlns="http://www.w3.org/2000/svg" version="1.1" viewBox="0 0 1024 1024"><g transform="scale(1, -1) translate(0, -900)"><path d="M 577 158 Q 511 80 372 40 Q 359 36 370 27 Q 376 23 419 25 Q 521 34 609 121 L 637 156 Q 674 211 707 294 Q 720 322 741 340 Q 760 355 748 369 Q 735 382 704 394 Q 682 403 654 390 Q 632 381 601 373 Q 576 367 543 363 C 513 359 495 341 524 335 Q 555 325 599 335 Q 627 348 633 349 Q 658 345 650 320 Q 632 244 599 190 L 577 158 Z" fill="black" /></g></svg>