<?xml version='1.0' encoding='utf-8'?>
<svg xmlns="http://www.w3.org/2000/svg" version="1.1" viewBox="0 0 1024 1024"><g transform="scale(1, -1) translate(0, -900)"><path d="M 650 344 Q 693 351 736 355 Q 764 356 766 337 Q 775 216 762 200 Q 753 194 703 198 Q 679 205 677 197 Q 674 191 686 183 Q 741 149 775 121 Q 790 109 801 123 Q 822 154 824 217 Q 818 292 826 344 Q 830 363 820 373 Q 795 395 776 406 Q 764 412 755 403 Q 748 396 653 373 L 593 364 Q 550 360 478 350 C 448 346 465 312 495 317 Q 499 317 504 318 Q 549 328 593 335 L 650 344 Z" fill="black" /></g></svg>