<?xml version='1.0' encoding='utf-8'?>
<svg xmlns="http://www.w3.org/2000/svg" version="1.1" viewBox="0 0 1024 1024"><g transform="scale(1, -1) translate(0, -900)"><path d="M 608 435 Q 657 445 712 453 Q 734 459 745 446 Q 755 442 759 397 Q 772 249 766 80 Q 766 55 756 48 Q 744 38 676 43 Q 660 44 662 35 Q 663 28 677 24 Q 740 -12 773 -41 Q 794 -59 806 -56 Q 818 -52 827 -25 Q 840 18 836 82 Q 809 391 827 428 Q 837 449 828 459 Q 818 474 772 495 Q 754 504 736 499 Q 694 486 608 464 L 553 453 Q 487 444 420 435 C 390 431 409 389 438 397 Q 474 409 553 424 L 608 435 Z" fill="black" /></g></svg>