<?xml version='1.0' encoding='utf-8'?>
<svg xmlns="http://www.w3.org/2000/svg" version="1.1" viewBox="0 0 1024 1024"><g transform="scale(1, -1) translate(0, -900)"><path d="M 635 346 Q 622 380 606 390 L 593 400 Q 583 406 572 410 Q 550 419 540 412 Q 527 405 540 391 Q 567 370 579 338 L 588 301 Q 618 154 578 63 Q 563 36 527 43 Q 500 47 476 50 Q 464 53 470 41 Q 474 34 490 22 Q 527 -11 538 -35 Q 548 -54 565 -52 Q 580 -51 607 -23 Q 685 58 648 296 Q 647 302 646 307 L 635 346 Z" fill="black" /></g></svg>