<?xml version='1.0' encoding='utf-8'?>
<svg xmlns="http://www.w3.org/2000/svg" version="1.1" viewBox="0 0 1024 1024"><g transform="scale(1, -1) translate(0, -900)"><path d="M 463 681 Q 444 696 426 704 Q 407 711 396 705 Q 384 698 394 681 Q 457 557 417 149 Q 416 94 373 37 Q 360 19 370 -6 Q 383 -36 397 -48 Q 413 -57 425 -37 Q 441 -3 596 139 Q 615 155 620 165 Q 624 177 613 176 Q 607 176 480 102 Q 471 95 469 105 Q 478 265 479 397 L 480 433 Q 479 482 478 528 L 477 554 Q 480 602 486 649 C 488 664 488 664 463 681 Z" fill="black" /></g></svg>