<?xml version='1.0' encoding='utf-8'?>
<svg xmlns="http://www.w3.org/2000/svg" version="1.1" viewBox="0 0 1024 1024"><g transform="scale(1, -1) translate(0, -900)"><path d="M 947 69 Q 932 97 910 181 Q 909 197 901 202 Q 894 205 891 187 Q 867 94 850 66 Q 819 32 721 34 Q 684 34 655 45 Q 630 57 623 72 Q 602 114 629 257 Q 635 287 586 307 Q 573 311 565 306 Q 558 302 564 285 Q 576 246 573 209 Q 563 46 601 12 Q 685 -51 858 -14 Q 859 -13 864 -12 Q 904 0 942 26 Q 961 42 947 69 Z" fill="black" /></g></svg>