<?xml version='1.0' encoding='utf-8'?>
<svg xmlns="http://www.w3.org/2000/svg" version="1.1" viewBox="0 0 1024 1024"><g transform="scale(1, -1) translate(0, -900)"><path d="M 605 319 Q 608 340 623 572 L 625 621 Q 628 699 651 770 Q 658 785 647 796 Q 625 815 583 827 Q 558 834 548 826 Q 538 819 546 806 Q 570 769 573 719 Q 574 664 575 608 L 575 563 Q 571 286 499 169 Q 489 156 477 141 Q 422 77 306 15 Q 293 8 292 3 Q 293 -1 306 -2 Q 325 -6 373 12 Q 532 63 588 237 Q 592 258 598 279 L 605 319 Z" fill="black" /></g></svg>