<?xml version='1.0' encoding='utf-8'?>
<svg xmlns="http://www.w3.org/2000/svg" version="1.1" viewBox="0 0 1024 1024"><g transform="scale(1, -1) translate(0, -900)"><path d="M 638 91 Q 701 54 789 -13 Q 817 -34 835 -32 Q 857 -31 856 -10 Q 856 11 824 57 Q 811 81 780 92 Q 723 116 675 134 L 626 152 Q 560 176 515 186 Q 496 190 506 210 Q 534 265 554 300 L 576 339 Q 582 360 604 386 Q 614 393 611 403 Q 607 418 569 449 Q 559 459 547 455 Q 534 452 540 436 Q 549 409 519 331 L 502 290 Q 480 241 456 210 Q 446 192 448 179 Q 451 169 469 164 Q 520 152 590 117 L 638 91 Z" fill="black" /></g></svg>