<?xml version='1.0' encoding='utf-8'?>
<svg xmlns="http://www.w3.org/2000/svg" version="1.1" viewBox="0 0 1024 1024"><g transform="scale(1, -1) translate(0, -900)"><path d="M 683 459 Q 702 429 720 421 Q 732 412 748 435 Q 764 463 798 617 Q 808 650 833 675 Q 846 688 835 703 Q 819 721 774 749 Q 758 758 681 742 Q 603 730 543 717 Q 489 707 446 700 C 416 695 439 659 468 667 Q 467 668 470 668 Q 549 690 690 708 Q 721 712 731 702 Q 746 684 743 667 Q 713 501 693 487 C 679 465 679 465 683 459 Z" fill="black" /></g></svg>