<?xml version='1.0' encoding='utf-8'?>
<svg xmlns="http://www.w3.org/2000/svg" version="1.1" viewBox="0 0 1024 1024"><g transform="scale(1, -1) translate(0, -900)"><path d="M 606 544 Q 606 569 606 594 Q 605 613 606 629 L 608 677 Q 612 729 624 768 Q 633 784 629 797 Q 622 807 566 841 Q 542 857 521 841 Q 517 837 523 821 Q 559 769 560 717 Q 560 693 561 667 L 563 621 Q 563 579 564 536 L 564 503 Q 563 448 563 390 L 563 288 Q 563 168 538 76 Q 529 33 555 -26 Q 562 -44 570 -47 Q 577 -54 584 -46 Q 608 -24 609 61 Q 606 125 606 321 L 606 398 Q 606 450 606 511 L 606 544 Z" fill="black" /></g></svg>