<?xml version='1.0' encoding='utf-8'?>
<svg xmlns="http://www.w3.org/2000/svg" version="1.1" viewBox="0 0 1024 1024"><g transform="scale(1, -1) translate(0, -900)"><path d="M 440 454 Q 447 454 456 456 Q 499 469 549 479 L 601 491 Q 739 524 755 510 Q 765 504 770 454 Q 783 286 775 96 Q 775 68 764 60 Q 751 50 677 62 Q 661 65 662 55 Q 663 48 677 42 Q 743 0 778 -34 Q 799 -53 812 -50 Q 824 -46 835 -18 Q 848 28 846 94 Q 830 338 829 427 Q 829 466 840 488 Q 852 510 841 521 Q 831 536 785 558 Q 763 568 704 548 Q 572 514 425 491 C 395 486 411 448 440 454 Z" fill="black" /></g></svg>