<?xml version='1.0' encoding='utf-8'?>
<svg xmlns="http://www.w3.org/2000/svg" version="1.1" viewBox="0 0 1024 1024"><g transform="scale(1, -1) translate(0, -900)"><path d="M 495 475 Q 591 491 688 510 Q 710 514 715 503 Q 736 449 730 136 Q 724 69 719 58 Q 713 52 694 57 Q 660 67 624 78 Q 603 85 604 75 Q 671 18 709 -23 Q 722 -44 739 -49 Q 749 -53 757 -42 Q 800 7 799 66 Q 769 441 797 491 Q 810 512 797 523 Q 775 542 735 558 Q 716 565 700 558 Q 651 536 620 525 L 581 515 Q 544 511 488 505 C 458 502 465 470 495 475 Z" fill="black" /></g></svg>