<?xml version='1.0' encoding='utf-8'?>
<svg xmlns="http://www.w3.org/2000/svg" version="1.1" viewBox="0 0 1024 1024"><g transform="scale(1, -1) translate(0, -900)"><path d="M 524 588 Q 627 621 685 618 C 715 618 724 656 694 653 Q 627 647 568 634 L 522 625 Q 468 615 423 600 Q 407 597 412 616 Q 424 676 416 690 Q 403 706 382 720 Q 372 727 363 725 Q 353 721 359 704 Q 372 668 365 633 Q 359 600 345 586 Q 329 570 334 557 Q 344 544 360 533 Q 372 526 381 533 Q 402 555 489 578 L 524 588 Z" fill="black" /></g></svg>