<?xml version='1.0' encoding='utf-8'?>
<svg xmlns="http://www.w3.org/2000/svg" version="1.1" viewBox="0 0 1024 1024"><g transform="scale(1, -1) translate(0, -900)"><path d="M 388 206 Q 357 206 358 199 Q 351 183 378 170 Q 406 149 423 151 Q 438 152 461 165 Q 606 228 625 207 Q 629 197 618 181 Q 609 171 590 132 Q 556 74 543 65 Q 513 41 521 -10 Q 522 -31 532 -36 Q 541 -42 554 -31 Q 581 -13 657 140 Q 678 182 706 199 Q 715 205 716 213 Q 717 226 684 248 Q 650 270 634 272 Q 627 271 618 265 Q 524 223 388 206 Z" fill="black" /></g></svg>