<?xml version='1.0' encoding='utf-8'?>
<svg xmlns="http://www.w3.org/2000/svg" version="1.1" viewBox="0 0 1024 1024"><g transform="scale(1, -1) translate(0, -900)"><path d="M 535 447 Q 536 450 537 451 Q 550 493 562 534 L 573 574 Q 582 613 590 653 L 599 699 Q 606 744 617 767 Q 627 780 621 796 Q 605 815 574 833 Q 555 846 541 842 Q 528 835 534 821 Q 552 782 544 724 Q 541 706 537 685 Q 536 685 536 684 L 529 639 Q 522 600 513 562 L 504 522 Q 492 479 477 437 L 463 400 Q 391 246 290 119 Q 283 113 281 107 Q 277 95 289 97 Q 316 97 414 213 Q 438 247 462 286 Q 495 344 522 412 L 535 447 Z" fill="black" /></g></svg>