<?xml version='1.0' encoding='utf-8'?>
<svg xmlns="http://www.w3.org/2000/svg" version="1.1" viewBox="0 0 1024 1024"><g transform="scale(1, -1) translate(0, -900)"><path d="M 539 467 Q 548 470 717 501 Q 739 505 745 494 Q 757 463 765 260 Q 769 89 759 71 Q 755 65 737 69 Q 713 76 688 84 Q 667 94 667 83 Q 718 25 744 -16 Q 757 -38 774 -43 Q 784 -47 794 -38 Q 840 19 841 74 Q 802 425 831 482 Q 844 504 831 516 Q 807 535 767 552 Q 746 561 729 552 Q 645 510 525 499 C 495 496 510 461 539 467 Z" fill="black" /></g></svg>