<?xml version='1.0' encoding='utf-8'?>
<svg xmlns="http://www.w3.org/2000/svg" version="1.1" viewBox="0 0 1024 1024"><g transform="scale(1, -1) translate(0, -900)"><path d="M 604 289 Q 653 301 695 306 Q 716 309 720 303 Q 729 287 720 248 Q 701 139 670 93 Q 648 60 619 68 Q 592 77 568 88 Q 543 98 559 72 Q 604 23 623 -13 Q 641 -35 661 -20 Q 694 -1 719 37 Q 749 82 779 223 Q 789 272 810 296 Q 823 309 818 321 Q 808 334 754 360 Q 732 370 711 357 Q 689 344 616 327 L 560 314 Q 487 299 426 295 Q 407 294 404 285 Q 403 276 428 264 Q 453 248 475 255 Q 512 267 549 275 L 604 289 Z" fill="black" /></g></svg>