<?xml version='1.0' encoding='utf-8'?>
<svg xmlns="http://www.w3.org/2000/svg" version="1.1" viewBox="0 0 1024 1024"><g transform="scale(1, -1) translate(0, -900)"><path d="M 701 428 Q 756 438 794 443 Q 831 447 832 458 Q 832 471 805 485 Q 778 498 703 471 L 652 457 Q 618 451 577 441 Q 561 438 559 442 Q 558 445 563 459 Q 582 511 613 600 L 630 652 Q 652 733 678 758 Q 693 771 683 782 Q 638 818 611 819 Q 602 818 609 799 Q 621 757 587 641 L 572 592 Q 539 484 500 444 Q 482 429 498 386 Q 504 373 518 380 Q 584 410 652 419 L 701 428 Z" fill="black" /></g></svg>