<?xml version='1.0' encoding='utf-8'?>
<svg xmlns="http://www.w3.org/2000/svg" version="1.1" viewBox="0 0 1024 1024"><g transform="scale(1, -1) translate(0, -900)"><path d="M 740 88 Q 779 39 805 -5 Q 815 -26 828 -25 Q 847 -24 865 15 Q 886 58 882 113 Q 872 293 868 625 Q 867 661 886 686 Q 898 701 887 712 Q 865 736 806 764 Q 785 774 767 764 Q 688 734 566 717 Q 448 702 394 702 C 364 701 384 662 414 665 Q 448 665 719 710 Q 765 717 788 698 Q 824 659 813 323 Q 806 176 799 116 Q 793 94 772 104 C 745 91 740 88 740 88 Z" fill="black" /></g></svg>