<?xml version='1.0' encoding='utf-8'?>
<svg xmlns="http://www.w3.org/2000/svg" version="1.1" viewBox="0 0 1024 1024"><g transform="scale(1, -1) translate(0, -900)"><path d="M 579 651 Q 658 670 724 678 Q 746 679 750 673 Q 760 658 754 619 Q 741 508 715 461 Q 697 428 670 433 Q 642 439 618 446 Q 594 452 613 430 Q 658 393 680 361 Q 699 340 718 358 Q 748 380 768 418 Q 793 463 809 601 Q 815 650 832 674 Q 845 687 838 698 Q 829 710 776 734 Q 755 743 736 729 Q 711 716 619 697 Q 525 675 447 671 Q 428 671 424 661 Q 423 654 448 640 Q 473 622 495 630 Q 516 636 540 641 L 579 651 Z" fill="black" /></g></svg>