<?xml version='1.0' encoding='utf-8'?>
<svg xmlns="http://www.w3.org/2000/svg" version="1.1" viewBox="0 0 1024 1024"><g transform="scale(1, -1) translate(0, -900)"><path d="M 624 439 Q 634 718 639 730 Q 646 748 632 762 Q 610 778 585 785 Q 557 792 548 780 Q 541 770 553 757 Q 571 741 576 700 Q 588 621 584 429 L 583 387 Q 576 129 542 87 Q 530 69 541 50 Q 554 31 571 23 Q 581 16 593 34 Q 609 62 698 157 Q 723 178 725 188 Q 726 195 721 196 Q 718 196 625 134 Q 612 121 610 140 Q 617 267 622 399 L 624 439 Z" fill="black" /></g></svg>