<?xml version='1.0' encoding='utf-8'?>
<svg xmlns="http://www.w3.org/2000/svg" version="1.1" viewBox="0 0 1024 1024"><g transform="scale(1, -1) translate(0, -900)"><path d="M 767 73 Q 730 77 692 84 Q 670 88 673 79 Q 749 31 793 -5 Q 809 -24 825 -28 Q 835 -32 843 -21 Q 885 37 878 91 Q 841 634 869 692 Q 882 713 869 723 Q 847 742 807 758 Q 788 765 771 757 Q 699 718 586 709 Q 570 708 580 698 Q 589 688 604 681 Q 625 678 761 709 Q 782 713 788 703 Q 795 681 799 647 Q 818 319 806 121 Q 806 90 796 74 Q 790 67 767 73 Z" fill="black" /></g></svg>