<?xml version='1.0' encoding='utf-8'?>
<svg xmlns="http://www.w3.org/2000/svg" version="1.1" viewBox="0 0 1024 1024"><g transform="scale(1, -1) translate(0, -900)"><path d="M 526 222 Q 527 221 533 216 Q 581 185 611 161 Q 624 151 634 163 Q 653 190 654 259 Q 648 334 655 381 Q 658 399 649 406 Q 625 427 609 435 Q 599 439 591 432 Q 587 428 531 413 L 488 404 Q 457 400 411 392 C 381 387 400 354 429 362 Q 459 371 488 376 L 529 382 Q 551 386 574 389 Q 599 390 602 374 Q 611 248 598 232 Q 591 226 548 230 Q 533 236 526 231 C 515 230 515 230 526 222 Z" fill="black" /></g></svg>