<?xml version='1.0' encoding='utf-8'?>
<svg xmlns="http://www.w3.org/2000/svg" version="1.1" viewBox="0 0 1024 1024"><g transform="scale(1, -1) translate(0, -900)"><path d="M 393 414 Q 412 415 419 407 Q 429 392 425 356 Q 418 268 395 207 Q 383 174 372 162 Q 365 155 344 161 Q 316 174 294 184 Q 281 191 281 181 Q 282 169 294 156 Q 324 120 339 88 Q 354 64 377 76 Q 440 127 452 190 Q 483 379 487 383 Q 488 389 492 392 Q 502 408 493 417 Q 481 433 453 447 Q 431 457 417 450 Q 401 446 350 433 Q 343 432 339 434 Q 335 437 338 447 Q 344 483 355 527 C 361 552 361 552 352 559 Q 343 569 317 582 Q 305 591 298 584 Q 288 578 298 566 Q 314 538 306 494 Q 296 436 271 413 Q 261 401 264 390 Q 271 378 280 371 Q 290 364 306 378 Q 342 414 393 414 Z" fill="black" /></g></svg>