<?xml version='1.0' encoding='utf-8'?>
<svg xmlns="http://www.w3.org/2000/svg" version="1.1" viewBox="0 0 1024 1024"><g transform="scale(1, -1) translate(0, -900)"><path d="M 808 192 Q 564 179 378 136 Q 353 130 360 159 Q 367 228 374 299 Q 378 324 367 338 Q 351 354 327 369 Q 315 375 305 372 Q 295 368 303 348 Q 333 281 322 214 Q 315 150 289 121 Q 270 105 277 89 Q 287 73 304 62 Q 317 53 328 62 Q 341 75 375 88 Q 508 125 649 146 Q 764 162 796 154 C 826 151 838 194 808 192 Z" fill="black" /></g></svg>