<?xml version='1.0' encoding='utf-8'?>
<svg xmlns="http://www.w3.org/2000/svg" version="1.1" viewBox="0 0 1024 1024"><g transform="scale(1, -1) translate(0, -900)"><path d="M 737 122 Q 765 85 787 49 Q 797 30 808 31 Q 826 32 842 67 Q 861 107 857 157 Q 847 323 845 633 Q 844 667 861 691 Q 871 706 861 716 Q 840 738 783 763 Q 762 773 746 763 Q 614 708 411 694 C 381 692 386 656 416 658 Q 438 657 476 666 Q 516 673 555 679 L 586 685 Q 745 721 771 699 Q 817 647 783 165 Q 782 164 782 160 Q 778 144 766 146 C 748 122 731 130 737 122 Z" fill="black" /></g></svg>