<?xml version='1.0' encoding='utf-8'?>
<svg xmlns="http://www.w3.org/2000/svg" version="1.1" viewBox="0 0 1024 1024"><g transform="scale(1, -1) translate(0, -900)"><path d="M 632 435 Q 631 439 630 441 L 623 457 Q 622 458 622 460 Q 591 521 537 562 Q 512 583 496 588 C 469 601 457 592 478 571 Q 479 568 514 538 L 555 492 Q 571 468 585 439 L 605 362 Q 617 272 595 170 Q 583 122 571 118 Q 561 115 498 132 Q 465 142 464 136 Q 463 129 473 114 Q 527 59 548 24 Q 563 0 581 4 Q 603 7 623 37 Q 669 130 662 302 Q 659 345 648 383 L 632 435 Z" fill="black" /></g></svg>