<?xml version='1.0' encoding='utf-8'?>
<svg xmlns="http://www.w3.org/2000/svg" version="1.1" viewBox="0 0 1024 1024"><g transform="scale(1, -1) translate(0, -900)"><path d="M 431 387 Q 432 426 433 468 L 434 517 Q 434 623 453 693 Q 460 706 458 720 Q 451 729 399 761 Q 377 777 358 763 Q 354 759 359 743 Q 389 700 390 627 Q 390 564 391 501 L 387 376 Q 384 211 378 167 Q 359 67 359 64 Q 359 55 377 9 Q 384 -7 391 -11 Q 397 -17 404 -10 Q 411 -6 421 14 Q 430 38 429 67 Q 428 104 431 364 L 431 387 Z" fill="black" /></g></svg>