<?xml version='1.0' encoding='utf-8'?>
<svg xmlns="http://www.w3.org/2000/svg" version="1.1" viewBox="0 0 1024 1024"><g transform="scale(1, -1) translate(0, -900)"><path d="M 701 90 Q 711 65 733 16 Q 740 0 751 0 Q 766 1 776 27 Q 807 85 813 165 Q 820 214 827 273 Q 833 319 856 349 Q 872 368 861 381 Q 840 403 794 423 Q 776 433 744 422 Q 608 377 403 367 C 373 365 391 324 421 328 Q 428 328 435 329 Q 484 339 547 348 L 587 354 Q 647 364 721 374 Q 752 380 765 365 Q 789 323 747 126 Q 746 108 737 106 Q 734 105 728 107 C 703 91 701 90 701 90 Z" fill="black" /></g></svg>