<?xml version='1.0' encoding='utf-8'?>
<svg xmlns="http://www.w3.org/2000/svg" version="1.1" viewBox="0 0 1024 1024"><g transform="scale(1, -1) translate(0, -900)"><path d="M 712 431 Q 712 464 712 498 L 712 546 Q 712 682 728 748 Q 741 773 716 791 Q 700 803 670 820 Q 646 836 625 821 Q 621 815 627 800 Q 663 749 663 691 Q 669 556 669 535 L 669 395 Q 669 194 653 114 Q 632 48 662 -15 L 663 -18 Q 670 -36 678 -39 Q 685 -46 692 -38 Q 719 -16 717 45 Q 716 88 712 399 L 712 431 Z" fill="black" /></g></svg>