<?xml version='1.0' encoding='utf-8'?>
<svg xmlns="http://www.w3.org/2000/svg" version="1.1" viewBox="0 0 1024 1024"><g transform="scale(1, -1) translate(0, -900)"><path d="M 414 359 Q 421 360 428 363 Q 551 411 779 427 Q 798 427 808 417 Q 815 408 812 393 Q 818 140 801 102 Q 797 92 785 94 Q 754 97 719 100 Q 691 100 713 85 Q 783 40 815 6 Q 831 -10 846 5 Q 865 27 873 60 Q 883 96 871 288 Q 865 360 884 397 Q 899 418 892 426 Q 885 439 832 469 Q 814 484 776 469 Q 761 466 611 441 L 566 434 Q 502 425 468 415 Q 428 406 395 400 C 366 394 386 350 414 359 Z" fill="black" /></g></svg>