<?xml version='1.0' encoding='utf-8'?>
<svg xmlns="http://www.w3.org/2000/svg" version="1.1" viewBox="0 0 1024 1024"><g transform="scale(1, -1) translate(0, -900)"><path d="M 464 451 Q 464 484 465 518 L 466 570 Q 466 688 486 758 Q 501 783 466 806 Q 451 816 430 829 Q 408 845 387 830 Q 383 826 389 810 Q 419 764 421 697 Q 421 627 423 554 L 419 414 Q 416 240 411 208 Q 387 94 391 82 Q 398 58 408 34 Q 415 16 423 13 Q 429 6 436 15 Q 443 19 453 39 Q 463 64 462 94 Q 461 134 463 420 L 464 451 Z" fill="black" /></g></svg>