<?xml version='1.0' encoding='utf-8'?>
<svg xmlns="http://www.w3.org/2000/svg" version="1.1" viewBox="0 0 1024 1024"><g transform="scale(1, -1) translate(0, -900)"><path d="M 741 276 Q 781 345 822 498 Q 832 529 849 549 Q 867 567 852 579 Q 837 589 805 598 Q 787 601 719 570 Q 653 549 594 538 Q 581 537 576 529 Q 572 522 591 515 Q 628 503 675 520 Q 729 542 738 543 Q 766 542 761 512 Q 743 392 705 317 L 682 276 Q 622 191 514 144 Q 501 137 514 132 Q 520 125 559 129 Q 637 141 713 232 L 741 276 Z" fill="black" /></g></svg>