<?xml version='1.0' encoding='utf-8'?>
<svg xmlns="http://www.w3.org/2000/svg" version="1.1" viewBox="0 0 1024 1024"><g transform="scale(1, -1) translate(0, -900)"><path d="M 683 393 Q 702 362 721 353 Q 731 346 746 367 Q 759 389 785 511 Q 794 541 817 565 Q 830 577 819 591 Q 804 607 763 633 Q 748 642 684 629 Q 618 622 608 619 L 568 613 Q 553 613 538 610 Q 451 598 412 602 C 382 604 423 562 453 566 Q 457 566 463 567 Q 542 583 683 595 Q 713 598 722 587 Q 735 574 732 559 Q 713 421 692 411 C 681 396 681 396 683 393 Z" fill="black" /></g></svg>