<?xml version='1.0' encoding='utf-8'?>
<svg xmlns="http://www.w3.org/2000/svg" version="1.1" viewBox="0 0 1024 1024"><g transform="scale(1, -1) translate(0, -900)"><path d="M 716 69 Q 703 68 646 101 Q 636 105 635 100 Q 634 96 644 84 Q 683 32 698 -4 Q 707 -26 720 -27 Q 745 -28 767 -1 Q 848 71 863 250 Q 875 371 874 553 Q 873 595 896 627 Q 909 642 909 651 Q 908 658 886 673 Q 858 694 820 704 Q 796 711 738 692 Q 551 652 479 640 C 449 635 436 629 465 623 Q 507 610 549 619 Q 784 652 793 646 Q 793 645 795 643 Q 813 607 811 379 Q 802 210 758 114 Q 740 72 716 69 Z" fill="black" /></g></svg>