<?xml version='1.0' encoding='utf-8'?>
<svg xmlns="http://www.w3.org/2000/svg" version="1.1" viewBox="0 0 1024 1024"><g transform="scale(1, -1) translate(0, -900)"><path d="M 694 495 Q 710 473 725 465 Q 735 458 750 479 Q 766 507 796 659 Q 805 690 828 714 Q 841 727 829 740 Q 814 756 772 782 Q 760 788 668 770 Q 656 770 535 747 Q 478 735 435 728 C 405 723 426 686 455 695 Q 455 696 458 696 Q 497 708 552 718 L 586 724 Q 631 733 691 741 Q 724 745 734 734 Q 749 718 746 700 Q 719 544 703 527 C 690 500 690 500 694 495 Z" fill="black" /></g></svg>