<?xml version='1.0' encoding='utf-8'?>
<svg xmlns="http://www.w3.org/2000/svg" version="1.1" viewBox="0 0 1024 1024"><g transform="scale(1, -1) translate(0, -900)"><path d="M 435 355 Q 436 418 439 490 L 440 539 Q 449 707 464 752 Q 471 767 470 779 Q 463 789 411 822 Q 389 838 370 823 Q 366 819 371 804 Q 404 756 404 654 Q 404 591 403 525 L 397 396 Q 393 323 393 241 Q 387 162 365 89 Q 355 53 378 -7 Q 384 -23 391 -27 Q 397 -33 404 -26 Q 431 -10 431 51 Q 430 88 435 325 L 435 355 Z" fill="black" /></g></svg>