<?xml version='1.0' encoding='utf-8'?>
<svg xmlns="http://www.w3.org/2000/svg" version="1.1" viewBox="0 0 1024 1024"><g transform="scale(1, -1) translate(0, -900)"><path d="M 620 328 Q 749 347 768 332 Q 787 325 788 296 Q 789 226 769 98 Q 768 76 747 76 Q 720 80 700 83 Q 684 87 686 77 Q 687 67 716 43 Q 747 9 765 -24 Q 778 -36 791 -29 Q 801 -25 817 11 Q 842 60 843 116 Q 840 305 856 329 Q 868 341 859 353 Q 849 365 805 384 Q 786 393 769 384 Q 745 377 677 368 Q 580 355 506 340 Q 427 327 372 322 C 342 319 364 278 393 286 Q 403 285 413 291 Q 432 297 459 302 L 486 307 Q 526 316 583 323 L 620 328 Z" fill="black" /></g></svg>