<?xml version='1.0' encoding='utf-8'?>
<svg xmlns="http://www.w3.org/2000/svg" version="1.1" viewBox="0 0 1024 1024"><g transform="scale(1, -1) translate(0, -900)"><path d="M 406 384 Q 466 369 474 359 Q 487 335 447 206 Q 426 149 404 138 Q 391 134 347 150 Q 313 163 310 158 Q 306 149 322 140 Q 367 104 378 72 Q 384 57 394 52 Q 406 48 435 69 Q 480 106 510 249 Q 520 318 543 335 Q 553 339 554 348 Q 555 355 534 379 Q 507 406 456 405 Q 446 408 432 410 Q 425 411 418 413 C 389 419 377 392 406 384 Z" fill="black" /></g></svg>