<?xml version='1.0' encoding='utf-8'?>
<svg xmlns="http://www.w3.org/2000/svg" version="1.1" viewBox="0 0 1024 1024"><g transform="scale(1, -1) translate(0, -900)"><path d="M 577 382 Q 581 346 583 307 L 585 275 Q 588 110 559 62 Q 558 55 551 53 Q 542 52 465 63 Q 456 64 454 61 Q 453 57 461 48 Q 515 -3 543 -41 Q 553 -53 559 -52 Q 571 -51 592 -31 Q 635 9 639 94 Q 643 143 637 267 Q 636 274 636 282 L 633 317 Q 629 366 627 390 L 624 419 Q 621 446 621 466 Q 621 485 609 493 Q 594 502 581 508 C 554 522 530 526 545 500 Q 563 476 573 411 L 577 382 Z" fill="black" /></g></svg>