<?xml version='1.0' encoding='utf-8'?>
<svg xmlns="http://www.w3.org/2000/svg" version="1.1" viewBox="0 0 1024 1024"><g transform="scale(1, -1) translate(0, -900)"><path d="M 644 130 Q 680 178 713 245 Q 728 272 748 287 Q 767 300 757 314 Q 747 327 717 341 Q 695 351 668 340 Q 643 331 610 323 Q 583 317 544 312 C 514 308 494 292 523 287 Q 554 278 594 287 Q 640 302 648 302 Q 667 296 658 276 Q 639 209 606 160 L 584 132 Q 497 47 341 11 Q 328 8 338 -1 Q 345 -5 392 -3 Q 453 1 523 34 Q 575 59 616 97 L 644 130 Z" fill="black" /></g></svg>