<?xml version='1.0' encoding='utf-8'?>
<svg xmlns="http://www.w3.org/2000/svg" version="1.1" viewBox="0 0 1024 1024"><g transform="scale(1, -1) translate(0, -900)"><path d="M 556 712 Q 577 751 586 761 Q 595 771 588 781 Q 581 791 538 805 Q 522 809 515 805 Q 505 799 512 782 Q 536 728 461 618 Q 445 600 421 579 Q 409 569 414 559 Q 420 544 443 529 Q 453 520 464 531 Q 495 555 646 589 Q 650 590 656 592 C 685 600 697 613 667 615 Q 657 621 508 598 Q 501 597 498 598 Q 495 601 500 610 Q 525 658 544 691 L 556 712 Z" fill="black" /></g></svg>