<?xml version='1.0' encoding='utf-8'?>
<svg xmlns="http://www.w3.org/2000/svg" version="1.1" viewBox="0 0 1024 1024"><g transform="scale(1, -1) translate(0, -900)"><path d="M 642 177 Q 655 159 669 153 Q 679 146 694 167 Q 707 189 733 311 Q 742 341 764 365 Q 777 377 766 391 Q 751 407 710 432 Q 695 441 625 425 Q 604 425 569 416 L 523 408 Q 520 408 406 388 C 376 383 392 350 421 357 Q 460 367 521 377 L 565 383 Q 652 405 671 387 Q 683 374 681 359 Q 660 221 640 211 C 627 194 627 194 642 177 Z" fill="black" /></g></svg>