<?xml version='1.0' encoding='utf-8'?>
<svg xmlns="http://www.w3.org/2000/svg" version="1.1" viewBox="0 0 1024 1024"><g transform="scale(1, -1) translate(0, -900)"><path d="M 585 378 Q 585 588 587 619 L 590 663 Q 594 706 604 742 Q 614 758 610 772 Q 603 782 545 817 Q 520 833 499 818 Q 493 812 500 796 Q 536 745 537 694 Q 537 673 538 650 L 539 610 Q 543 448 535 410 L 539 323 Q 535 167 525 111 Q 503 18 523 -29 Q 526 -36 530 -45 Q 537 -64 545 -67 Q 552 -74 559 -65 Q 568 -61 578 -39 Q 588 -12 587 20 Q 586 60 585 337 L 585 378 Z" fill="black" /></g></svg>