<?xml version='1.0' encoding='utf-8'?>
<svg xmlns="http://www.w3.org/2000/svg" version="1.1" viewBox="0 0 1024 1024"><g transform="scale(1, -1) translate(0, -900)"><path d="M 512 358 Q 522 359 538 364 Q 665 395 686 386 Q 699 380 699 354 Q 712 182 703 48 Q 702 20 685 16 Q 676 13 626 25 Q 614 29 614 21 Q 615 12 630 2 Q 663 -29 687 -61 Q 700 -77 716 -77 Q 732 -73 754 -26 Q 779 23 775 72 Q 768 190 759 300 Q 755 343 773 378 Q 786 394 771 408 Q 752 424 713 437 Q 691 447 673 435 Q 655 428 621 416 Q 542 395 504 386 C 475 379 483 351 512 358 Z" fill="black" /></g></svg>