<?xml version='1.0' encoding='utf-8'?>
<svg xmlns="http://www.w3.org/2000/svg" version="1.1" viewBox="0 0 1024 1024"><g transform="scale(1, -1) translate(0, -900)"><path d="M 489 404 Q 529 414 564 418 Q 592 419 583 433 Q 574 445 559 451 Q 549 455 492 439 L 445 427 Q 369 412 366 414 Q 362 423 417 583 L 435 631 Q 465 730 488 752 Q 498 764 482 782 Q 434 825 415 819 Q 408 815 414 795 Q 426 755 391 620 L 379 577 Q 333 442 303 411 Q 290 395 295 381 Q 302 363 313 354 Q 323 345 332 351 Q 363 370 445 392 L 489 404 Z" fill="black" /></g></svg>