<?xml version='1.0' encoding='utf-8'?>
<svg xmlns="http://www.w3.org/2000/svg" version="1.1" viewBox="0 0 1024 1024"><g transform="scale(1, -1) translate(0, -900)"><path d="M 680 205 Q 696 180 713 173 Q 723 166 739 187 Q 755 217 786 374 Q 796 405 819 431 Q 832 444 821 458 Q 805 476 762 502 Q 744 511 674 495 Q 640 492 604 484 L 551 475 Q 530 474 508 469 Q 442 457 388 450 C 358 446 387 410 416 419 Q 435 429 551 445 L 601 452 Q 635 458 674 462 Q 710 466 721 454 Q 736 436 733 419 Q 706 248 686 235 C 673 214 673 214 680 205 Z" fill="black" /></g></svg>