<?xml version='1.0' encoding='utf-8'?>
<svg xmlns="http://www.w3.org/2000/svg" version="1.1" viewBox="0 0 1024 1024"><g transform="scale(1, -1) translate(0, -900)"><path d="M 797 335 Q 806 375 813 413 Q 822 462 852 497 Q 871 519 842 536 Q 817 554 790 567 Q 774 577 752 566 Q 724 556 680 548 Q 646 544 612 536 L 580 531 Q 546 527 512 518 Q 460 508 424 502 C 394 497 417 461 445 471 Q 448 475 513 489 L 537 494 Q 552 498 600 505 L 630 509 Q 676 516 741 523 Q 754 524 759 518 Q 775 497 754 390 L 752 378 Q 748 354 741 326 C 734 297 791 306 797 335 Z" fill="black" /></g></svg>