<?xml version='1.0' encoding='utf-8'?>
<svg xmlns="http://www.w3.org/2000/svg" version="1.1" viewBox="0 0 1024 1024"><g transform="scale(1, -1) translate(0, -900)"><path d="M 563 626 Q 614 639 696 656 Q 699 657 705 658 C 734 664 718 683 688 679 Q 598 666 505 643 Q 495 639 491 643 Q 490 646 496 654 Q 599 763 621 782 Q 633 789 629 802 Q 625 812 584 839 Q 569 848 561 845 Q 548 841 552 822 Q 561 758 451 664 Q 433 652 413 639 Q 400 629 402 619 Q 405 603 426 583 Q 435 573 448 582 Q 466 597 526 616 L 563 626 Z" fill="black" /></g></svg>