<?xml version='1.0' encoding='utf-8'?>
<svg xmlns="http://www.w3.org/2000/svg" version="1.1" viewBox="0 0 1024 1024"><g transform="scale(1, -1) translate(0, -900)"><path d="M 638 60 Q 668 23 689 -12 Q 698 -30 709 -29 Q 724 -28 739 4 Q 754 38 748 122 Q 730 282 752 312 Q 761 324 752 333 Q 734 352 685 373 Q 669 382 653 373 Q 641 367 556 338 C 528 328 483 284 512 290 L 513 288 Q 513 291 646 324 Q 664 328 673 322 Q 698 286 684 89 L 684 87 Q 681 78 677 75 C 665 47 619 84 638 60 Z" fill="black" /></g></svg>