<?xml version='1.0' encoding='utf-8'?>
<svg xmlns="http://www.w3.org/2000/svg" version="1.1" viewBox="0 0 1024 1024"><g transform="scale(1, -1) translate(0, -900)"><path d="M 558 -23 Q 564 -48 570 -57 Q 576 -64 583 -62 Q 601 -50 604 5 Q 608 47 609 217 L 609 253 Q 609 287 610 331 L 611 373 Q 611 407 612 445 L 613 480 Q 616 519 624 547 Q 627 565 613 574 Q 582 596 566 598 Q 553 602 538 594 Q 529 587 536 576 Q 560 521 560 470 L 560 437 Q 560 403 560 361 L 559 322 Q 558 285 557 243 L 557 210 Q 548 66 558 -23 Z" fill="black" /></g></svg>