<?xml version='1.0' encoding='utf-8'?>
<svg xmlns="http://www.w3.org/2000/svg" version="1.1" viewBox="0 0 1024 1024"><g transform="scale(1, -1) translate(0, -900)"><path d="M 556 338 Q 556 339 558 340 Q 610 403 651 460 L 685 509 Q 706 540 724 570 Q 764 637 791 669 Q 800 681 792 698 Q 762 753 726 757 Q 708 758 713 736 Q 719 696 710 664 Q 661 550 625 498 Q 624 498 624 497 L 595 454 Q 555 399 497 333 L 458 290 Q 364 191 248 94 Q 241 90 240 81 Q 239 75 246 76 Q 276 76 396 174 Q 403 180 460 233 L 556 338 Z" fill="black" /></g></svg>