<?xml version='1.0' encoding='utf-8'?>
<svg xmlns="http://www.w3.org/2000/svg" version="1.1" viewBox="0 0 1024 1024"><g transform="scale(1, -1) translate(0, -900)"><path d="M 401 363 Q 417 360 450 368 Q 747 434 793 414 Q 806 407 807 378 Q 810 228 794 113 Q 791 89 777 86 Q 768 82 715 90 Q 702 94 702 84 Q 703 75 720 64 Q 753 30 777 -5 Q 790 -21 806 -22 Q 822 -21 845 23 Q 873 66 872 113 Q 873 225 874 328 Q 873 368 893 399 Q 908 417 892 434 Q 871 453 827 472 Q 802 485 780 472 Q 761 465 736 457 L 679 442 Q 676 442 675 441 Q 641 434 611 428 L 574 421 Q 538 415 509 409 L 467 402 Q 413 396 385 393 C 355 390 371 362 401 363 Z" fill="black" /></g></svg>