<?xml version='1.0' encoding='utf-8'?>
<svg xmlns="http://www.w3.org/2000/svg" version="1.1" viewBox="0 0 1024 1024"><g transform="scale(1, -1) translate(0, -900)"><path d="M 672 127 Q 687 108 701 102 Q 711 95 724 115 Q 737 137 759 261 Q 766 289 788 314 Q 800 326 788 339 Q 773 354 733 378 Q 714 385 644 369 Q 629 369 537 352 Q 498 345 466 339 C 437 334 451 301 480 308 Q 546 324 663 336 Q 688 339 696 330 Q 709 317 707 303 Q 694 188 685 169 Q 681 160 671 156 C 657 144 657 144 672 127 Z" fill="black" /></g></svg>