<?xml version='1.0' encoding='utf-8'?>
<svg xmlns="http://www.w3.org/2000/svg" version="1.1" viewBox="0 0 1024 1024"><g transform="scale(1, -1) translate(0, -900)"><path d="M 674 121 Q 708 166 733 231 Q 743 265 763 280 Q 779 293 764 309 Q 745 327 713 341 Q 694 350 672 341 Q 620 316 546 306 Q 521 305 509 298 Q 500 292 518 282 Q 543 269 582 279 Q 622 288 663 296 Q 679 302 680 282 Q 680 225 634 152 L 607 120 Q 597 111 588 102 Q 533 59 394 25 Q 378 24 387 14 Q 394 7 422 9 Q 569 21 639 83 L 674 121 Z" fill="black" /></g></svg>