<?xml version='1.0' encoding='utf-8'?>
<svg xmlns="http://www.w3.org/2000/svg" version="1.1" viewBox="0 0 1024 1024"><g transform="scale(1, -1) translate(0, -900)"><path d="M 764 426 Q 786 433 813 441 Q 831 448 840 439 Q 850 426 844 396 Q 834 239 814 174 Q 799 120 782 104 Q 766 86 739 100 Q 726 103 706 110 Q 690 117 691 109 Q 692 99 706 85 Q 734 48 748 20 Q 755 1 767 0 Q 783 0 810 23 Q 841 57 858 115 Q 877 182 897 359 Q 904 402 921 427 Q 936 442 931 456 Q 925 469 856 496 Q 834 503 817 490 Q 795 478 775 469 L 716 449 Q 679 442 630 437 Q 614 437 610 432 Q 606 425 619 417 Q 637 405 707 412 L 764 426 Z" fill="black" /></g></svg>