<?xml version='1.0' encoding='utf-8'?>
<svg xmlns="http://www.w3.org/2000/svg" version="1.1" viewBox="0 0 1024 1024"><g transform="scale(1, -1) translate(0, -900)"><path d="M 519 666 Q 519 688 519 709 Q 518 731 519 745 C 520 770 520 770 516 772 Q 515 773 515 774 Q 506 781 481 793 Q 465 802 457 796 Q 453 790 458 778 Q 497 711 471 495 Q 465 474 453 453 Q 444 440 452 422 Q 459 404 468 397 Q 477 390 492 401 Q 570 455 802 461 Q 824 460 825 471 Q 824 484 798 502 Q 783 515 694 496 Q 586 484 538 473 Q 520 473 520 504 Q 519 519 519 535 L 519 563 Q 519 603 519 644 L 519 666 Z" fill="black" /></g></svg>