<?xml version='1.0' encoding='utf-8'?>
<svg xmlns="http://www.w3.org/2000/svg" version="1.1" viewBox="0 0 1024 1024"><g transform="scale(1, -1) translate(0, -900)"><path d="M 649 489 Q 665 464 681 457 Q 691 450 706 470 Q 721 495 751 635 Q 760 665 783 689 Q 796 702 785 715 Q 770 731 728 758 Q 712 765 644 750 Q 637 750 631 748 Q 490 721 450 712 C 421 706 430 674 460 679 Q 464 679 470 680 Q 537 699 656 716 Q 681 720 690 711 Q 703 695 701 679 Q 676 532 657 517 C 644 496 644 496 649 489 Z" fill="black" /></g></svg>