<?xml version='1.0' encoding='utf-8'?>
<svg xmlns="http://www.w3.org/2000/svg" version="1.1" viewBox="0 0 1024 1024"><g transform="scale(1, -1) translate(0, -900)"><path d="M 823 74 Q 810 96 789 163 Q 788 178 781 182 Q 775 185 772 168 Q 750 95 735 71 Q 722 55 683 44 Q 590 22 515 52 Q 484 67 477 85 Q 459 121 465 174 L 467 202 Q 468 245 478 290 C 482 312 482 312 473 318 Q 463 328 443 336 C 416 350 416 336 422 307 Q 429 279 429 249 Q 420 68 453 30 Q 475 8 527 -9 Q 677 -52 814 30 Q 815 33 819 34 Q 837 50 823 74 Z" fill="black" /></g></svg>