<?xml version='1.0' encoding='utf-8'?>
<svg xmlns="http://www.w3.org/2000/svg" version="1.1" viewBox="0 0 1024 1024"><g transform="scale(1, -1) translate(0, -900)"><path d="M 465 597 Q 501 604 542 611 L 579 617 Q 613 624 655 630 L 697 636 Q 761 645 817 651 Q 827 650 836 662 Q 837 674 815 684 Q 782 708 707 683 L 660 672 Q 606 663 579 654 L 538 647 Q 501 643 467 636 L 421 631 Q 373 627 321 620 Q 293 617 314 600 Q 324 590 340 582 Q 353 573 375 580 Q 394 584 421 589 L 465 597 Z" fill="black" /></g></svg>