<?xml version='1.0' encoding='utf-8'?>
<svg xmlns="http://www.w3.org/2000/svg" version="1.1" viewBox="0 0 1024 1024"><g transform="scale(1, -1) translate(0, -900)"><path d="M 602 399 Q 749 420 772 419 Q 785 419 790 413 Q 799 389 793 248 Q 784 143 754 85 Q 741 60 726 58 Q 714 54 645 67 Q 635 70 635 64 Q 635 60 647 50 Q 687 10 704 -21 Q 714 -39 726 -38 Q 742 -39 759 -24 Q 820 18 842 139 Q 858 220 870 344 Q 871 372 890 392 Q 905 407 903 415 Q 902 424 882 438 Q 854 460 816 472 Q 792 481 737 462 Q 718 459 692 452 Q 643 442 493 417 C 463 412 446 404 475 398 Q 514 386 560 395 Q 564 395 570 395 L 602 399 Z" fill="black" /></g></svg>