<?xml version='1.0' encoding='utf-8'?>
<svg xmlns="http://www.w3.org/2000/svg" version="1.1" viewBox="0 0 1024 1024"><g transform="scale(1, -1) translate(0, -900)"><path d="M 358 716 Q 343 731 323 737 Q 314 741 304 737 Q 297 733 302 721 Q 320 652 323 637 Q 323 631 324 624 Q 339 417 307 283 Q 294 232 327 193 Q 336 181 346 192 Q 358 207 357 227 Q 357 231 358 236 L 360 269 Q 360 281 361 398 L 361 428 Q 362 495 363 543 L 363 573 Q 363 684 367 690 C 369 707 369 707 358 716 Z" fill="black" /></g></svg>