<?xml version='1.0' encoding='utf-8'?>
<svg xmlns="http://www.w3.org/2000/svg" version="1.1" viewBox="0 0 1024 1024"><g transform="scale(1, -1) translate(0, -900)"><path d="M 424 464 Q 472 457 481 440 Q 487 431 478 394 Q 474 337 451 262 Q 430 187 401 177 Q 389 173 341 193 Q 310 206 306 202 Q 302 195 317 184 Q 365 151 376 114 Q 380 101 391 95 Q 403 91 430 111 Q 469 145 496 256 Q 523 397 545 417 Q 555 421 557 429 Q 558 436 538 458 Q 511 485 470 484 Q 448 487 436 491 C 407 498 394 469 424 464 Z" fill="black" /></g></svg>