<?xml version='1.0' encoding='utf-8'?>
<svg xmlns="http://www.w3.org/2000/svg" version="1.1" viewBox="0 0 1024 1024"><g transform="scale(1, -1) translate(0, -900)"><path d="M 654 -31 Q 660 -56 666 -65 Q 672 -72 679 -70 Q 697 -58 700 -3 Q 710 91 707 183 Q 704 223 704 319 L 704 358 Q 704 401 705 452 L 706 491 Q 706 536 707 581 L 711 622 Q 715 647 720 667 Q 723 685 709 694 Q 694 704 683 710 C 657 726 620 727 631 699 Q 658 632 659 627 Q 659 618 660 607 L 660 569 Q 660 527 659 478 L 658 441 Q 657 398 656 349 L 655 311 Q 648 26 654 -31 Z" fill="black" /></g></svg>