<?xml version='1.0' encoding='utf-8'?>
<svg xmlns="http://www.w3.org/2000/svg" version="1.1" viewBox="0 0 1024 1024"><g transform="scale(1, -1) translate(0, -900)"><path d="M 368 350 Q 346 214 245 48 Q 241 42 239 36 Q 238 26 247 29 Q 280 35 352 166 Q 361 185 370 205 Q 395 272 416 368 L 424 414 Q 431 466 434 515 L 437 565 Q 438 575 439 586 Q 440 604 444 620 Q 451 633 444 645 Q 429 660 401 671 Q 400 672 399 671 C 371 682 358 681 370 654 Q 388 624 388 561 Q 387 554 387 544 L 385 498 Q 382 447 376 398 L 368 350 Z" fill="black" /></g></svg>