<?xml version='1.0' encoding='utf-8'?>
<svg xmlns="http://www.w3.org/2000/svg" version="1.1" viewBox="0 0 1024 1024"><g transform="scale(1, -1) translate(0, -900)"><path d="M 552 750 Q 555 754 732 780 Q 769 784 782 783 Q 792 776 788 770 Q 767 727 745 681 L 747 680 Q 756 676 773 686 Q 830 720 876 729 Q 913 736 913 746 Q 912 756 846 808 Q 824 827 740 812 Q 623 796 497 772 Q 454 763 411 759 Q 408 759 406 758 C 376 754 383 744 411 733 Q 433 720 458 726 Q 488 736 520 744 L 552 750 Z" fill="black" /></g></svg>