<?xml version='1.0' encoding='utf-8'?>
<svg xmlns="http://www.w3.org/2000/svg" version="1.1" viewBox="0 0 1024 1024"><g transform="scale(1, -1) translate(0, -900)"><path d="M 672 332 Q 688 302 705 294 Q 714 287 729 305 Q 744 327 778 450 Q 787 480 809 504 Q 822 514 811 529 Q 796 545 756 571 Q 738 580 661 559 Q 633 556 599 546 L 549 537 Q 527 533 506 528 Q 454 516 413 508 C 384 502 393 463 422 472 Q 422 473 424 473 Q 475 489 549 504 L 599 515 Q 704 536 724 523 Q 736 513 732 495 Q 702 362 682 350 C 670 335 670 335 672 332 Z" fill="black" /></g></svg>