<?xml version='1.0' encoding='utf-8'?>
<svg xmlns="http://www.w3.org/2000/svg" version="1.1" viewBox="0 0 1024 1024"><g transform="scale(1, -1) translate(0, -900)"><path d="M 698 105 Q 726 68 748 33 Q 758 14 768 15 Q 784 16 801 50 Q 819 87 815 134 Q 808 224 803 389 Q 802 420 818 442 Q 827 455 818 465 Q 799 484 748 507 Q 730 517 715 507 Q 657 480 550 459 C 521 453 540 427 570 429 Q 597 428 711 456 Q 727 459 735 453 Q 762 426 744 137 Q 738 121 726 125 C 700 110 696 107 698 105 Z" fill="black" /></g></svg>