<?xml version='1.0' encoding='utf-8'?>
<svg xmlns="http://www.w3.org/2000/svg" version="1.1" viewBox="0 0 1024 1024"><g transform="scale(1, -1) translate(0, -900)"><path d="M 514 476 Q 527 519 539 563 L 548 606 Q 552 630 557 654 Q 558 663 560 671 L 568 713 Q 574 756 596 801 Q 603 811 594 821 Q 578 840 543 858 Q 522 871 505 866 Q 483 862 498 841 Q 523 808 520 778 Q 516 738 511 701 L 504 659 Q 497 623 490 590 L 481 552 Q 475 531 456 466 L 440 424 Q 397 321 308 232 Q 295 220 280 206 Q 268 199 265 194 Q 261 187 278 188 Q 303 184 391 260 Q 452 320 500 437 L 514 476 Z" fill="black" /></g></svg>