<?xml version='1.0' encoding='utf-8'?>
<svg xmlns="http://www.w3.org/2000/svg" version="1.1" viewBox="0 0 1024 1024"><g transform="scale(1, -1) translate(0, -900)"><path d="M 649 269 Q 701 276 789 281 Q 802 282 808 275 Q 812 271 813 247 Q 817 144 804 85 Q 794 49 763 55 Q 735 59 708 63 Q 695 67 694 61 Q 693 54 704 43 Q 765 -12 780 -39 Q 786 -51 793 -50 Q 803 -49 815 -31 Q 848 12 877 221 Q 881 248 890 262 Q 906 281 894 287 Q 881 303 845 319 Q 823 334 800 325 Q 772 316 701 308 Q 592 298 517 283 L 481 276 Q 417 264 355 253 C 325 248 338 208 365 220 Q 402 241 461 242 L 500 248 Q 555 258 605 264 L 649 269 Z" fill="black" /></g></svg>