<?xml version='1.0' encoding='utf-8'?>
<svg xmlns="http://www.w3.org/2000/svg" version="1.1" viewBox="0 0 1024 1024"><g transform="scale(1, -1) translate(0, -900)"><path d="M 735 121 Q 744 108 749 94 Q 759 60 773 46 Q 783 34 792 36 Q 804 37 816 59 Q 849 113 873 340 Q 877 395 895 434 Q 907 447 903 456 Q 903 472 864 502 Q 816 541 784 528 Q 780 528 776 526 Q 760 522 703 514 Q 562 493 494 477 L 456 469 Q 437 468 422 462 Q 355 449 327 445 C 297 440 341 400 369 410 Q 429 431 451 435 L 496 445 Q 556 460 613 466 L 655 472 Q 713 482 767 485 Q 786 486 794 475 Q 807 465 809 437 Q 813 370 794 248 Q 782 151 774 139 Q 773 135 766 132 Q 763 133 758 133 C 738 116 732 126 735 121 Z" fill="black" /></g></svg>