<?xml version='1.0' encoding='utf-8'?>
<svg xmlns="http://www.w3.org/2000/svg" version="1.1" viewBox="0 0 1024 1024"><g transform="scale(1, -1) translate(0, -900)"><path d="M 733 606 Q 663 599 605 587 L 565 580 Q 504 570 453 554 Q 440 553 444 569 Q 450 596 457 625 Q 463 644 455 658 Q 443 674 424 688 Q 414 694 405 693 Q 396 690 401 673 Q 414 633 404 594 Q 397 557 380 543 Q 364 528 369 516 Q 378 503 392 492 Q 401 486 420 498 Q 471 535 646 565 Q 703 577 723 571 C 753 567 763 609 733 606 Z" fill="black" /></g></svg>