<?xml version='1.0' encoding='utf-8'?>
<svg xmlns="http://www.w3.org/2000/svg" version="1.1" viewBox="0 0 1024 1024"><g transform="scale(1, -1) translate(0, -900)"><path d="M 420 403 Q 429 403 487 422 Q 503 428 508 419 Q 512 409 515 390 Q 527 219 523 115 Q 522 93 515 82 Q 512 79 453 87 Q 435 91 437 84 Q 483 45 509 16 Q 521 0 534 -3 Q 541 -6 549 2 Q 582 47 581 90 Q 551 367 573 410 Q 583 426 572 435 Q 553 450 522 462 Q 507 468 459 442 Q 441 436 412 429 C 383 422 391 397 420 403 Z" fill="black" /></g></svg>