<?xml version='1.0' encoding='utf-8'?>
<svg xmlns="http://www.w3.org/2000/svg" version="1.1" viewBox="0 0 1024 1024"><g transform="scale(1, -1) translate(0, -900)"><path d="M 473 409 Q 473 451 475 496 L 477 545 Q 477 666 500 744 Q 507 759 506 771 Q 499 781 447 814 Q 425 830 406 815 Q 402 811 407 796 Q 440 747 440 696 Q 440 623 440 538 Q 439 537 439 532 L 433 384 Q 429 311 429 233 Q 423 154 401 81 Q 391 45 414 -15 Q 420 -31 427 -35 Q 433 -41 440 -34 Q 467 -18 467 43 Q 466 85 472 379 L 473 409 Z" fill="black" /></g></svg>