<?xml version='1.0' encoding='utf-8'?>
<svg xmlns="http://www.w3.org/2000/svg" version="1.1" viewBox="0 0 1024 1024"><g transform="scale(1, -1) translate(0, -900)"><path d="M 784 98 Q 790 85 819 42 Q 837 17 845 20 Q 858 23 873 59 Q 888 99 883 151 Q 856 515 883 568 Q 895 587 886 599 Q 877 611 824 626 Q 797 636 779 624 Q 709 593 650 579 C 621 571 641 547 670 553 Q 682 554 757 576 Q 790 586 802 576 Q 817 561 817 504 Q 824 266 815 134 Q 816 121 813 115 C 810 85 769 124 784 98 Z" fill="black" /></g></svg>