<?xml version='1.0' encoding='utf-8'?>
<svg xmlns="http://www.w3.org/2000/svg" version="1.1" viewBox="0 0 1024 1024"><g transform="scale(1, -1) translate(0, -900)"><path d="M 527 509 Q 590 525 642 533 Q 658 536 662 530 Q 668 520 662 494 Q 652 422 632 392 Q 613 361 585 368 Q 566 372 550 377 Q 528 384 543 362 Q 574 328 589 302 Q 602 283 618 295 Q 667 322 703 431 Q 718 503 739 523 Q 751 535 746 544 Q 739 554 692 578 Q 673 588 655 576 Q 636 564 561 549 Q 486 530 422 527 Q 406 526 404 518 Q 403 511 424 500 Q 446 485 464 492 Q 477 496 494 500 L 527 509 Z" fill="black" /></g></svg>