<?xml version='1.0' encoding='utf-8'?>
<svg xmlns="http://www.w3.org/2000/svg" version="1.1" viewBox="0 0 1024 1024"><g transform="scale(1, -1) translate(0, -900)"><path d="M 709 666 Q 724 666 792 684 Q 814 687 819 675 Q 834 630 839 345 Q 840 116 826 89 Q 822 83 801 88 Q 774 92 748 98 Q 727 105 728 95 Q 785 46 817 8 Q 832 -11 848 -17 Q 858 -21 866 -11 Q 908 43 907 98 Q 894 279 888 575 Q 887 638 902 664 Q 915 685 902 696 Q 880 715 840 732 Q 821 739 805 732 Q 777 716 760 711 Q 738 704 698 698 C 668 693 679 661 709 666 Z" fill="black" /></g></svg>