<?xml version='1.0' encoding='utf-8'?>
<svg xmlns="http://www.w3.org/2000/svg" version="1.1" viewBox="0 0 1024 1024"><g transform="scale(1, -1) translate(0, -900)"><path d="M 386 250 Q 408 228 409 184 Q 416 90 387 41 Q 369 19 404 -15 Q 414 -25 430 -13 Q 487 21 622 35 Q 704 42 811 33 Q 833 29 842 35 Q 849 39 844 52 Q 838 65 801 87 Q 782 99 717 90 Q 633 90 468 58 Q 455 54 453 58 Q 444 64 447 81 Q 451 187 460 219 Q 466 232 453 243 Q 441 253 426 261 C 400 277 368 274 386 250 Z" fill="black" /></g></svg>