<?xml version='1.0' encoding='utf-8'?>
<svg xmlns="http://www.w3.org/2000/svg" version="1.1" viewBox="0 0 1024 1024"><g transform="scale(1, -1) translate(0, -900)"><path d="M 711 208 Q 712 201 718 194 Q 733 166 742 166 Q 757 167 772 201 Q 787 228 785 248 Q 772 333 771 468 Q 770 507 791 540 Q 801 556 794 566 Q 766 591 716 612 Q 700 618 676 609 Q 648 597 613 588 L 573 579 Q 527 572 487 566 C 457 562 463 530 493 533 Q 500 533 510 534 Q 601 555 666 565 Q 688 569 697 557 Q 713 538 714 470 Q 720 304 713 252 L 711 208 Z" fill="black" /></g></svg>