<?xml version='1.0' encoding='utf-8'?>
<svg xmlns="http://www.w3.org/2000/svg" version="1.1" viewBox="0 0 1024 1024"><g transform="scale(1, -1) translate(0, -900)"><path d="M 689 435 Q 708 407 724 397 Q 734 388 751 410 Q 767 434 799 565 Q 809 596 833 621 Q 846 634 835 648 Q 819 666 777 693 Q 762 700 681 683 Q 672 683 548 658 Q 542 658 540 656 L 510 650 Q 482 646 462 641 C 433 635 444 598 473 607 Q 530 626 697 652 Q 727 656 737 647 Q 749 631 746 617 Q 719 473 701 462 C 686 439 686 439 689 435 Z" fill="black" /></g></svg>