<?xml version='1.0' encoding='utf-8'?>
<svg xmlns="http://www.w3.org/2000/svg" version="1.1" viewBox="0 0 1024 1024"><g transform="scale(1, -1) translate(0, -900)"><path d="M 621 620 Q 739 650 763 640 Q 776 634 777 595 Q 777 447 770 415 Q 766 396 775 381 Q 784 366 796 370 Q 809 374 814 390 Q 826 417 831 532 Q 840 584 872 619 Q 888 637 870 650 Q 851 665 798 684 Q 780 691 762 681 Q 735 674 704 667 Q 685 663 665 658 L 636 652 Q 600 645 569 636 Q 518 623 483 615 C 454 608 464 581 493 588 Q 499 588 505 590 Q 536 602 589 613 L 621 620 Z" fill="black" /></g></svg>