<?xml version='1.0' encoding='utf-8'?>
<svg xmlns="http://www.w3.org/2000/svg" version="1.1" viewBox="0 0 1024 1024"><g transform="scale(1, -1) translate(0, -900)"><path d="M 572 112 Q 556 111 542 109 L 505 105 Q 463 104 437 99 Q 386 92 311 92 Q 298 93 297 82 Q 297 72 314 58 Q 329 46 357 35 Q 367 31 384 38 Q 426 53 571 67 Q 587 70 605 70 Q 644 71 681 75 Q 781 82 885 70 Q 906 67 912 75 Q 919 88 908 98 Q 881 123 841 142 Q 828 148 805 141 Q 793 140 656 119 L 619 116 Q 591 115 572 112 Z" fill="black" /></g></svg>