<?xml version='1.0' encoding='utf-8'?>
<svg xmlns="http://www.w3.org/2000/svg" version="1.1" viewBox="0 0 1024 1024"><g transform="scale(1, -1) translate(0, -900)"><path d="M 713 433 Q 723 426 731 414 L 743 382 Q 751 363 765 366 Q 768 367 770 367 Q 806 380 829 480 Q 878 678 883 686 Q 894 701 889 711 Q 887 715 878 725 Q 855 747 826 762 Q 813 771 800 768 Q 696 741 641 741 Q 630 741 630 731 Q 630 727 633 723 Q 646 704 694 707 L 709 708 Q 779 729 800 725 L 802 725 Q 811 721 809 700 L 809 698 Q 804 668 796 608 L 788 570 Q 780 527 762 460 Q 761 453 751 451 C 730 429 702 443 713 433 Z" fill="black" /></g></svg>