<?xml version='1.0' encoding='utf-8'?>
<svg xmlns="http://www.w3.org/2000/svg" version="1.1" viewBox="0 0 1024 1024"><g transform="scale(1, -1) translate(0, -900)"><path d="M 430 119 Q 466 150 680 183 Q 714 189 729 187 Q 742 184 746 173 Q 749 160 692 27 Q 683 5 660 12 Q 632 18 597 25 Q 569 32 589 8 Q 643 -43 653 -68 Q 660 -81 673 -79 Q 686 -80 701 -68 Q 734 -38 760 21 Q 793 117 824 143 Q 845 162 833 176 Q 811 204 776 229 Q 761 242 692 225 Q 614 219 513 189 Q 504 188 497 185 Q 452 176 454 193 Q 470 242 482 256 C 494 278 494 278 483 290 Q 470 308 448 323 Q 438 333 426 326 Q 417 322 423 302 Q 432 275 417 239 Q 395 194 378 179 Q 365 163 374 145 Q 381 118 395 110 Q 405 103 430 119 Z" fill="black" /></g></svg>