<?xml version='1.0' encoding='utf-8'?>
<svg xmlns="http://www.w3.org/2000/svg" version="1.1" viewBox="0 0 1024 1024"><g transform="scale(1, -1) translate(0, -900)"><path d="M 698 493 Q 699 489 701 483 Q 707 467 720 469 Q 733 470 741 486 Q 754 502 777 588 Q 793 640 830 671 Q 849 687 833 703 Q 814 719 763 747 Q 751 754 680 741 Q 658 741 534 717 Q 471 704 432 701 Q 431 701 428 700 C 398 696 434 665 464 669 Q 470 668 477 670 Q 543 689 693 705 Q 720 708 729 702 Q 739 696 734 664 Q 716 559 700 511 L 698 493 Z" fill="black" /></g></svg>