<?xml version='1.0' encoding='utf-8'?>
<svg xmlns="http://www.w3.org/2000/svg" version="1.1" viewBox="0 0 1024 1024"><g transform="scale(1, -1) translate(0, -900)"><path d="M 747 172 Q 846 4 924 -9 Q 925 -9 928 -9 Q 947 -5 941 21 Q 938 70 950 208 Q 950 230 943 230 Q 937 230 930 211 Q 914 171 901 139 Q 888 105 875 104 Q 841 104 780 209 L 755 258 Q 730 319 714 396 L 706 437 Q 696 483 691 526 L 686 570 Q 679 663 690 722 Q 703 759 652 781 Q 621 797 601 790 Q 582 784 591 766 Q 633 726 632 695 Q 638 619 647 553 L 652 511 Q 658 463 666 422 L 674 382 Q 687 310 725 220 L 747 172 Z" fill="black" /></g></svg>