<?xml version='1.0' encoding='utf-8'?>
<svg xmlns="http://www.w3.org/2000/svg" version="1.1" viewBox="0 0 1024 1024"><g transform="scale(1, -1) translate(0, -900)"><path d="M 397 102 Q 381 106 360 111 Q 350 115 349 108 Q 349 101 358 92 Q 407 49 440 11 Q 450 4 463 17 Q 500 65 496 134 Q 490 282 492 325 L 494 372 Q 494 382 496 393 Q 502 417 496 426 Q 489 436 466 449 C 440 465 417 465 429 438 Q 441 426 441 355 L 441 313 Q 441 247 441 140 Q 440 112 431 101 Q 421 95 397 102 Z" fill="black" /></g></svg>