<?xml version='1.0' encoding='utf-8'?>
<svg xmlns="http://www.w3.org/2000/svg" version="1.1" viewBox="0 0 1024 1024"><g transform="scale(1, -1) translate(0, -900)"><path d="M 773 325 Q 783 377 793 410 L 812 456 Q 825 484 842 500 Q 858 519 843 536 Q 827 549 774 572 Q 756 579 735 570 Q 698 555 663 544 L 605 531 Q 556 522 504 515 Q 488 514 490 505 Q 493 498 510 491 Q 534 481 567 492 Q 586 496 607 499 L 659 509 Q 689 516 719 522 Q 738 526 746 518 Q 761 506 751 444 L 743 406 Q 734 369 726 335 C 719 306 767 296 773 325 Z" fill="black" /></g></svg>