<?xml version='1.0' encoding='utf-8'?>
<svg xmlns="http://www.w3.org/2000/svg" version="1.1" viewBox="0 0 1024 1024"><g transform="scale(1, -1) translate(0, -900)"><path d="M 712 338 Q 727 316 741 310 Q 751 303 765 322 Q 778 344 803 460 Q 810 488 832 511 Q 844 521 834 535 Q 819 550 780 574 Q 765 580 699 565 Q 696 565 596 542 L 570 536 Q 542 532 518 525 C 489 517 511 484 538 496 Q 550 508 713 535 Q 737 539 745 531 Q 757 518 754 505 Q 733 379 718 366 C 706 346 706 346 712 338 Z" fill="black" /></g></svg>