<?xml version='1.0' encoding='utf-8'?>
<svg xmlns="http://www.w3.org/2000/svg" version="1.1" viewBox="0 0 1024 1024"><g transform="scale(1, -1) translate(0, -900)"><path d="M 607 499 Q 608 465 609 421 L 609 388 Q 609 375 606 308 L 605 271 Q 606 246 612 227 Q 618 217 626 222 Q 638 234 643 276 L 646 317 Q 649 357 652 395 L 654 428 Q 655 453 657 477 Q 658 495 659 509 L 663 544 Q 664 554 666 560 Q 675 579 663 589 Q 650 602 623 615 Q 604 622 582 614 Q 572 607 584 592 Q 599 565 605 531 L 607 499 Z" fill="black" /></g></svg>