<?xml version='1.0' encoding='utf-8'?>
<svg xmlns="http://www.w3.org/2000/svg" version="1.1" viewBox="0 0 1024 1024"><g transform="scale(1, -1) translate(0, -900)"><path d="M 468 176 Q 562 197 735 199 L 795 199 Q 843 200 897 199 Q 966 196 974 206 Q 980 216 964 231 Q 909 273 846 256 Q 821 253 792 247 L 734 239 Q 679 233 615 225 Q 612 225 609 223 L 568 220 Q 519 216 470 210 L 423 205 Q 359 201 293 193 Q 272 192 287 175 Q 300 162 317 155 Q 338 149 353 154 Q 383 161 416 167 L 468 176 Z" fill="black" /></g></svg>