<?xml version='1.0' encoding='utf-8'?>
<svg xmlns="http://www.w3.org/2000/svg" version="1.1" viewBox="0 0 1024 1024"><g transform="scale(1, -1) translate(0, -900)"><path d="M 675 673 Q 733 689 784 697 Q 802 700 805 694 Q 814 682 809 652 Q 800 567 780 528 Q 764 498 737 503 Q 715 509 695 517 Q 671 524 687 501 Q 726 461 743 430 Q 759 411 776 426 Q 831 462 859 601 Q 865 667 887 693 Q 899 706 893 715 Q 884 725 836 747 Q 817 756 799 743 Q 778 731 701 712 Q 625 693 558 687 Q 542 686 539 678 Q 538 671 560 660 Q 582 647 600 653 Q 619 659 641 664 L 675 673 Z" fill="black" /></g></svg>