<?xml version='1.0' encoding='utf-8'?>
<svg xmlns="http://www.w3.org/2000/svg" version="1.1" viewBox="0 0 1024 1024"><g transform="scale(1, -1) translate(0, -900)"><path d="M 735 199 Q 735 126 731 60 Q 730 32 713 28 Q 704 25 654 41 Q 642 45 642 37 Q 642 28 657 18 Q 690 -15 715 -48 Q 728 -66 744 -65 Q 760 -61 782 -13 Q 807 36 804 87 Q 800 145 795 199 L 792 247 Q 783 362 801 398 Q 814 414 799 428 Q 781 444 741 459 Q 719 469 701 457 Q 677 448 633 436 Q 623 435 616 432 L 566 421 Q 502 411 468 404 C 439 398 453 371 482 377 Q 489 378 502 381 Q 535 388 567 394 L 615 402 Q 694 417 713 408 Q 726 402 727 374 Q 733 304 734 239 L 735 199 Z" fill="black" /></g></svg>