<?xml version='1.0' encoding='utf-8'?>
<svg xmlns="http://www.w3.org/2000/svg" version="1.1" viewBox="0 0 1024 1024"><g transform="scale(1, -1) translate(0, -900)"><path d="M 544 426 Q 548 366 555 358 Q 565 346 573 363 Q 576 372 582 432 L 583 472 Q 584 491 585 512 L 586 551 Q 586 575 587 599 L 588 633 Q 589 666 591 691 L 594 737 Q 597 791 608 807 Q 614 819 598 831 Q 579 847 545 855 Q 530 859 520 848 Q 513 842 522 832 Q 538 819 540 799 Q 540 769 541 722 L 542 681 Q 542 656 543 624 L 544 591 Q 544 563 543 540 L 543 504 Q 543 483 543 461 L 544 426 Z" fill="black" /></g></svg>