<?xml version='1.0' encoding='utf-8'?>
<svg xmlns="http://www.w3.org/2000/svg" version="1.1" viewBox="0 0 1024 1024"><g transform="scale(1, -1) translate(0, -900)"><path d="M 587 599 Q 690 620 711 610 Q 720 604 715 575 Q 696 466 687 444 Q 680 426 686 411 Q 692 395 704 397 Q 717 398 724 413 Q 736 428 756 503 Q 771 552 805 583 Q 824 599 807 613 Q 791 629 741 654 Q 728 663 655 645 Q 639 645 588 633 L 543 624 Q 518 620 495 614 Q 438 601 400 594 C 371 588 393 550 421 561 Q 443 573 544 591 L 587 599 Z" fill="black" /></g></svg>