<?xml version='1.0' encoding='utf-8'?>
<svg xmlns="http://www.w3.org/2000/svg" version="1.1" viewBox="0 0 1024 1024"><g transform="scale(1, -1) translate(0, -900)"><path d="M 496 486 Q 500 498 507 509 Q 514 527 521 545 L 536 586 Q 546 620 557 653 L 571 702 Q 580 744 594 771 Q 604 784 600 797 Q 587 816 560 834 Q 544 847 531 844 Q 518 840 523 826 Q 535 796 525 743 Q 521 728 518 710 Q 515 700 512 688 L 500 643 Q 490 609 481 576 L 466 535 Q 453 507 441 478 L 422 439 Q 362 339 274 244 Q 268 238 266 233 Q 262 223 272 224 Q 305 224 400 331 Q 416 352 433 374 Q 457 410 478 450 L 496 486 Z" fill="black" /></g></svg>