<?xml version='1.0' encoding='utf-8'?>
<svg xmlns="http://www.w3.org/2000/svg" version="1.1" viewBox="0 0 1024 1024"><g transform="scale(1, -1) translate(0, -900)"><path d="M 447 324 Q 451 327 459 328 Q 505 341 523 341 C 553 344 555 378 525 373 Q 488 367 454 358 L 405 345 Q 368 335 337 321 Q 327 320 330 331 Q 348 415 342 427 Q 332 443 313 455 Q 304 461 295 460 Q 286 457 291 441 Q 304 399 295 359 Q 286 322 269 306 Q 254 291 261 280 Q 270 267 284 259 Q 294 252 303 259 Q 319 280 397 306 L 447 324 Z" fill="black" /></g></svg>