<?xml version='1.0' encoding='utf-8'?>
<svg xmlns="http://www.w3.org/2000/svg" version="1.1" viewBox="0 0 1024 1024"><g transform="scale(1, -1) translate(0, -900)"><path d="M 707 430 Q 708 429 709 426 Q 725 389 753 413 Q 762 420 782 459 Q 818 606 851 642 Q 867 658 856 677 Q 840 698 810 720 Q 794 730 777 725 Q 725 710 664 707 Q 643 706 646 696 Q 650 686 666 677 Q 675 676 739 681 Q 761 684 770 679 Q 779 672 770 640 Q 763 613 756 587 L 748 555 Q 724 467 717 460 C 705 435 705 435 707 430 Z" fill="black" /></g></svg>