<?xml version='1.0' encoding='utf-8'?>
<svg xmlns="http://www.w3.org/2000/svg" version="1.1" viewBox="0 0 1024 1024"><g transform="scale(1, -1) translate(0, -900)"><path d="M 642 43 Q 614 52 585 62 Q 575 66 575 59 Q 575 52 583 44 Q 638 -17 658 -54 Q 670 -70 685 -57 Q 721 -30 721 36 Q 718 66 714 247 L 715 293 Q 718 312 724 328 Q 731 344 717 356 Q 693 375 667 384 Q 651 390 643 383 Q 637 377 647 364 Q 666 333 667 285 L 668 244 Q 671 130 667 65 Q 666 50 658 45 Q 651 41 642 43 Z" fill="black" /></g></svg>