<?xml version='1.0' encoding='utf-8'?>
<svg xmlns="http://www.w3.org/2000/svg" version="1.1" viewBox="0 0 1024 1024"><g transform="scale(1, -1) translate(0, -900)"><path d="M 778 464 Q 799 465 807 457 Q 819 444 816 404 Q 809 247 774 140 Q 764 104 752 91 Q 745 82 721 88 Q 690 100 663 109 Q 648 115 650 105 Q 651 92 666 80 Q 703 44 724 11 Q 742 -11 763 3 Q 848 82 854 172 Q 875 425 876 427 Q 877 436 884 445 Q 894 463 884 472 Q 871 488 841 501 Q 817 511 802 501 Q 778 495 681 473 Q 665 470 661 475 Q 657 479 660 490 Q 669 529 683 578 C 690 603 690 603 678 612 Q 669 622 644 635 Q 632 645 624 638 Q 614 632 624 619 Q 642 588 630 541 Q 617 478 590 455 Q 578 442 583 429 Q 590 417 599 410 Q 609 403 627 417 Q 657 442 689 451 Q 749 467 778 464 Z" fill="black" /></g></svg>