<?xml version='1.0' encoding='utf-8'?>
<svg xmlns="http://www.w3.org/2000/svg" version="1.1" viewBox="0 0 1024 1024"><g transform="scale(1, -1) translate(0, -900)"><path d="M 633 439 Q 614 463 552 500 C 526 516 507 500 533 485 Q 540 481 548 476 L 588 444 Q 598 435 607 423 L 632 368 Q 638 311 619 252 Q 609 222 599 217 Q 590 214 535 225 Q 517 231 516 224 Q 515 218 524 209 Q 567 170 585 145 Q 595 130 606 133 Q 645 148 665 241 Q 678 308 671 348 Q 670 349 670 350 L 665 378 Q 655 414 643 426 L 633 439 Z" fill="black" /></g></svg>