<?xml version='1.0' encoding='utf-8'?>
<svg xmlns="http://www.w3.org/2000/svg" version="1.1" viewBox="0 0 1024 1024"><g transform="scale(1, -1) translate(0, -900)"><path d="M 451 444 Q 469 447 476 439 Q 486 427 485 392 Q 484 254 457 158 Q 450 130 441 118 Q 435 111 416 115 Q 391 125 370 133 Q 357 139 358 130 Q 359 120 370 108 Q 400 77 416 49 Q 432 27 452 40 Q 522 112 526 191 Q 530 269 532 389 Q 533 410 543 430 Q 550 446 542 453 Q 530 466 504 477 Q 486 483 419 462 Q 377 453 375 455 Q 371 458 375 468 Q 390 532 398 551 C 403 568 403 568 386 579 Q 377 586 363 594 Q 353 601 346 597 Q 337 591 346 580 Q 361 553 350 512 Q 337 458 314 438 Q 304 426 308 416 Q 314 406 322 399 Q 331 392 346 405 Q 388 448 451 444 Z" fill="black" /></g></svg>