<?xml version='1.0' encoding='utf-8'?>
<svg xmlns="http://www.w3.org/2000/svg" version="1.1" viewBox="0 0 1024 1024"><g transform="scale(1, -1) translate(0, -900)"><path d="M 754 80 Q 788 38 813 -1 Q 823 -22 836 -21 Q 855 -20 872 19 Q 893 64 888 117 Q 875 298 865 633 Q 864 670 883 696 Q 895 711 884 723 Q 862 747 800 775 Q 778 785 760 775 Q 616 721 412 714 Q 400 714 388 715 C 358 715 380 675 410 677 Q 429 674 720 717 Q 763 723 784 705 Q 826 659 808 162 Q 805 137 805 119 Q 801 104 790 104 C 776 78 740 98 754 80 Z" fill="black" /></g></svg>