<?xml version='1.0' encoding='utf-8'?>
<svg xmlns="http://www.w3.org/2000/svg" version="1.1" viewBox="0 0 1024 1024"><g transform="scale(1, -1) translate(0, -900)"><path d="M 689 570 Q 689 569 690 568 Q 694 552 708 553 Q 721 554 729 570 Q 741 583 763 655 Q 779 707 817 738 Q 836 754 820 770 Q 801 786 751 814 Q 735 823 667 807 Q 654 807 474 771 C 445 765 457 732 487 737 Q 494 737 501 739 Q 558 757 686 773 Q 708 774 717 770 Q 727 766 721 735 Q 702 624 691 602 C 683 580 683 580 689 570 Z" fill="black" /></g></svg>