<?xml version='1.0' encoding='utf-8'?>
<svg xmlns="http://www.w3.org/2000/svg" version="1.1" viewBox="0 0 1024 1024"><g transform="scale(1, -1) translate(0, -900)"><path d="M 691 372 Q 692 368 696 362 Q 709 334 718 334 Q 731 335 748 366 Q 763 391 761 411 Q 740 603 776 652 Q 786 668 778 678 Q 751 703 703 723 Q 687 729 664 721 Q 621 700 514 677 L 490 674 Q 471 673 454 672 C 424 670 446 638 476 642 Q 480 642 486 643 Q 540 653 581 662 Q 666 683 686 671 Q 695 650 698 597 Q 699 437 691 405 L 691 372 Z" fill="black" /></g></svg>