<?xml version='1.0' encoding='utf-8'?>
<svg xmlns="http://www.w3.org/2000/svg" version="1.1" viewBox="0 0 1024 1024"><g transform="scale(1, -1) translate(0, -900)"><path d="M 331 671 Q 361 678 391 694 Q 404 701 412 694 Q 413 691 390 629 Q 366 577 389 548 Q 407 520 413 501 Q 417 488 412 481 Q 408 474 392 474 Q 373 474 351 471 Q 330 471 354 460 Q 393 441 429 416 Q 439 406 450 416 Q 462 423 466 444 Q 478 498 422 554 Q 388 588 427 634 Q 457 682 477 695 Q 493 707 484 717 Q 472 733 440 749 Q 422 755 411 745 Q 377 714 318 697 C 289 688 302 663 331 671 Z" fill="black" /></g></svg>