<?xml version='1.0' encoding='utf-8'?>
<svg xmlns="http://www.w3.org/2000/svg" version="1.1" viewBox="0 0 1024 1024"><g transform="scale(1, -1) translate(0, -900)"><path d="M 593 254 Q 608 245 655 235 Q 682 229 690 214 Q 702 187 657 96 Q 636 60 620 55 Q 610 51 570 68 Q 536 87 530 82 Q 524 73 540 60 Q 576 21 583 -15 Q 587 -33 597 -39 Q 610 -46 645 -27 Q 696 9 731 117 Q 746 169 765 184 Q 777 188 779 197 Q 780 207 759 233 Q 722 272 692 266 Q 676 266 611 282 C 582 289 566 266 593 254 Z" fill="black" /></g></svg>