<?xml version='1.0' encoding='utf-8'?>
<svg xmlns="http://www.w3.org/2000/svg" version="1.1" viewBox="0 0 1024 1024"><g transform="scale(1, -1) translate(0, -900)"><path d="M 741 182 Q 789 79 876 6 Q 940 -40 971 -38 Q 990 -32 982 -3 Q 975 43 968 180 Q 967 202 958 202 Q 931 144 904 83 Q 883 83 860 104 Q 811 155 773 222 L 750 270 Q 717 349 697 449 Q 684 504 675 555 L 668 608 Q 656 713 667 775 Q 680 818 620 841 Q 583 857 561 849 Q 539 842 550 821 Q 599 778 601 741 Q 611 660 623 591 L 631 543 Q 662 357 721 225 L 741 182 Z" fill="black" /></g></svg>