<?xml version='1.0' encoding='utf-8'?>
<svg xmlns="http://www.w3.org/2000/svg" version="1.1" viewBox="0 0 1024 1024"><g transform="scale(1, -1) translate(0, -900)"><path d="M 370 471 Q 357 470 354 462 Q 353 456 363 452 Q 402 434 430 449 Q 544 485 691 511 Q 704 514 714 508 Q 720 504 716 451 Q 689 304 718 166 Q 742 25 872 -55 Q 893 -65 916 -73 Q 932 -80 943 -71 Q 950 -64 948 -47 Q 944 25 946 147 Q 947 160 941 165 Q 934 169 930 155 Q 897 59 883 43 Q 873 36 859 45 Q 819 64 791 129 Q 766 187 760 261 Q 754 337 774 435 Q 778 469 803 495 Q 819 508 809 520 Q 796 538 764 562 Q 743 575 719 564 Q 698 554 662 545 Q 431 484 370 471 Z" fill="black" /></g></svg>