<?xml version='1.0' encoding='utf-8'?>
<svg xmlns="http://www.w3.org/2000/svg" version="1.1" viewBox="0 0 1024 1024"><g transform="scale(1, -1) translate(0, -900)"><path d="M 521 393 Q 534 396 653 424 Q 674 430 679 419 Q 683 406 687 387 Q 700 197 696 81 Q 695 54 686 42 Q 682 36 662 40 Q 637 44 612 50 Q 591 57 592 47 Q 647 -2 677 -40 Q 690 -59 707 -65 Q 717 -69 726 -58 Q 768 -4 767 50 Q 736 365 760 407 Q 773 428 760 438 Q 736 457 698 473 Q 679 480 663 473 Q 600 437 513 424 C 483 419 492 386 521 393 Z" fill="black" /></g></svg>