<?xml version='1.0' encoding='utf-8'?>
<svg xmlns="http://www.w3.org/2000/svg" version="1.1" viewBox="0 0 1024 1024"><g transform="scale(1, -1) translate(0, -900)"><path d="M 508 392 Q 554 410 651 435 Q 658 438 667 441 C 695 451 684 465 654 460 Q 581 447 502 425 Q 495 422 492 424 Q 491 427 495 432 Q 568 516 583 529 Q 593 536 589 548 Q 585 558 544 581 Q 529 588 521 585 Q 511 581 514 563 Q 529 512 438 430 Q 428 424 417 415 Q 404 405 407 396 Q 411 381 433 363 Q 442 354 454 363 Q 464 372 489 383 L 508 392 Z" fill="black" /></g></svg>