<?xml version='1.0' encoding='utf-8'?>
<svg xmlns="http://www.w3.org/2000/svg" version="1.1" viewBox="0 0 1024 1024"><g transform="scale(1, -1) translate(0, -900)"><path d="M 732 82 Q 747 60 765 17 Q 775 -2 792 9 Q 825 28 847 160 Q 871 347 897 385 Q 912 406 894 420 Q 840 474 789 462 Q 660 450 640 449 Q 630 450 629 439 Q 629 429 644 420 Q 668 408 711 413 Q 801 428 812 418 Q 822 412 821 387 Q 817 338 810 288 L 805 255 Q 795 186 778 115 Q 777 108 765 105 C 743 84 729 88 732 82 Z" fill="black" /></g></svg>