<?xml version='1.0' encoding='utf-8'?>
<svg xmlns="http://www.w3.org/2000/svg" version="1.1" viewBox="0 0 1024 1024"><g transform="scale(1, -1) translate(0, -900)"><path d="M 699 371 Q 804 383 813 373 Q 820 369 822 333 Q 831 188 815 106 Q 808 69 777 73 Q 737 82 700 88 Q 687 92 686 85 Q 685 78 697 67 Q 776 12 800 -20 Q 809 -33 817 -31 Q 830 -30 841 -6 Q 860 28 868 68 Q 880 122 885 312 Q 886 346 896 365 Q 912 386 900 391 Q 884 406 849 421 Q 833 431 771 417 Q 711 411 703 407 L 652 402 Q 588 396 539 385 L 496 376 Q 441 366 388 356 C 359 350 374 315 403 323 Q 439 335 486 343 Q 487 344 492 344 L 534 350 Q 597 362 649 366 L 699 371 Z" fill="black" /></g></svg>