<?xml version='1.0' encoding='utf-8'?>
<svg xmlns="http://www.w3.org/2000/svg" version="1.1" viewBox="0 0 1024 1024"><g transform="scale(1, -1) translate(0, -900)"><path d="M 444 345 Q 444 388 444 442 L 445 488 Q 445 530 446 577 L 446 627 Q 446 672 460 743 Q 463 761 449 770 Q 418 792 402 794 Q 389 798 374 790 Q 365 783 373 772 Q 400 715 401 634 Q 400 624 400 610 L 400 565 Q 399 522 398 470 L 397 429 Q 396 383 395 328 L 394 284 Q 375 31 406 -17 Q 412 -24 419 -22 Q 437 -10 440 45 Q 444 91 445 297 L 444 345 Z" fill="black" /></g></svg>