<?xml version='1.0' encoding='utf-8'?>
<svg xmlns="http://www.w3.org/2000/svg" version="1.1" viewBox="0 0 1024 1024"><g transform="scale(1, -1) translate(0, -900)"><path d="M 962 127 Q 949 155 929 242 Q 928 258 921 262 Q 915 265 911 248 Q 886 154 869 126 Q 856 108 817 97 Q 727 75 646 105 Q 615 121 606 141 Q 582 186 588 267 L 589 295 Q 592 353 602 418 L 602 419 C 605 440 605 440 590 449 Q 578 459 558 466 Q 545 470 537 465 Q 530 461 536 444 Q 549 405 548 368 Q 541 173 559 120 Q 565 93 589 72 Q 676 3 847 35 Q 860 38 874 41 Q 916 54 956 86 Q 975 102 962 127 Z" fill="black" /></g></svg>