<?xml version='1.0' encoding='utf-8'?>
<svg xmlns="http://www.w3.org/2000/svg" version="1.1" viewBox="0 0 1024 1024"><g transform="scale(1, -1) translate(0, -900)"><path d="M 681 154 Q 639 100 555 68 Q 542 62 554 56 Q 558 52 590 54 Q 654 61 710 116 L 741 154 Q 771 203 798 280 Q 808 310 828 329 Q 847 345 833 359 Q 820 371 787 381 Q 763 387 737 372 Q 713 362 681 353 Q 650 344 595 337 Q 582 337 577 330 Q 573 323 591 315 Q 627 302 675 315 Q 711 331 718 331 Q 745 328 738 299 Q 726 235 703 189 L 681 154 Z" fill="black" /></g></svg>