<?xml version='1.0' encoding='utf-8'?>
<svg xmlns="http://www.w3.org/2000/svg" version="1.1" viewBox="0 0 1024 1024"><g transform="scale(1, -1) translate(0, -900)"><path d="M 591 328 Q 633 335 676 339 Q 704 343 708 323 Q 717 188 702 170 Q 690 161 626 172 Q 611 173 609 169 Q 606 165 618 156 Q 678 122 716 95 Q 729 85 740 98 Q 761 126 762 199 Q 756 283 765 331 Q 768 350 758 358 Q 733 380 715 390 Q 703 394 695 387 Q 689 378 592 358 L 539 349 Q 499 345 433 335 C 403 331 409 296 439 301 Q 443 301 448 302 Q 493 312 539 320 L 591 328 Z" fill="black" /></g></svg>