<?xml version='1.0' encoding='utf-8'?>
<svg xmlns="http://www.w3.org/2000/svg" version="1.1" viewBox="0 0 1024 1024"><g transform="scale(1, -1) translate(0, -900)"><path d="M 446 377 Q 471 438 496 529 Q 503 556 520 574 Q 535 590 522 601 Q 509 611 480 618 Q 458 622 435 607 Q 414 597 386 586 Q 358 576 310 567 Q 297 566 294 559 Q 290 553 307 547 Q 340 537 382 551 Q 413 567 420 569 Q 445 568 442 541 Q 430 469 411 414 L 392 369 Q 343 275 238 231 Q 226 225 238 220 Q 242 214 276 217 Q 357 229 420 327 L 446 377 Z" fill="black" /></g></svg>