<?xml version='1.0' encoding='utf-8'?>
<svg xmlns="http://www.w3.org/2000/svg" version="1.1" viewBox="0 0 1024 1024"><g transform="scale(1, -1) translate(0, -900)"><path d="M 708 710 Q 702 614 724 595 Q 766 565 855 581 Q 874 587 895 599 Q 908 611 898 628 Q 889 640 874 679 Q 874 691 868 693 Q 864 696 862 683 Q 838 623 816 617 Q 791 610 763 620 Q 753 624 751 630 Q 739 654 745 715 L 751 757 Q 754 778 759 800 Q 763 815 754 823 Q 744 835 725 842 Q 715 846 707 842 Q 703 839 706 824 Q 718 788 710 747 L 708 710 Z" fill="black" /></g></svg>