<?xml version='1.0' encoding='utf-8'?>
<svg xmlns="http://www.w3.org/2000/svg" version="1.1" viewBox="0 0 1024 1024"><g transform="scale(1, -1) translate(0, -900)"><path d="M 481 287 Q 472 294 459 298 Q 447 302 440 297 Q 434 294 439 278 Q 451 242 449 209 Q 440 38 476 -3 Q 497 -31 577 -55 Q 803 -104 970 10 Q 989 23 978 49 Q 966 74 952 148 Q 952 164 945 170 Q 939 174 933 156 Q 899 77 880 53 Q 859 29 800 12 Q 664 -24 551 13 Q 508 32 496 57 Q 481 90 486 149 L 489 182 Q 492 216 499 254 Q 499 258 500 261 C 503 277 503 277 481 287 Z" fill="black" /></g></svg>