<?xml version='1.0' encoding='utf-8'?>
<svg xmlns="http://www.w3.org/2000/svg" version="1.1" viewBox="0 0 1024 1024"><g transform="scale(1, -1) translate(0, -900)"><path d="M 745 715 Q 803 724 859 730 Q 869 729 877 740 Q 878 750 858 760 Q 831 781 751 757 L 710 747 Q 676 740 644 731 L 601 722 Q 564 715 529 708 L 491 702 Q 451 701 433 695 L 392 691 Q 352 688 312 682 Q 287 679 306 663 Q 333 644 378 649 Q 382 650 390 651 L 429 659 Q 457 666 493 672 L 529 679 Q 562 686 599 693 L 639 700 Q 691 710 708 710 L 745 715 Z" fill="black" /></g></svg>