<?xml version='1.0' encoding='utf-8'?>
<svg xmlns="http://www.w3.org/2000/svg" version="1.1" viewBox="0 0 1024 1024"><g transform="scale(1, -1) translate(0, -900)"><path d="M 598 331 Q 703 355 720 340 Q 733 330 732 295 Q 731 261 729 217 Q 729 186 719 172 Q 713 162 690 167 Q 653 167 651 165 Q 647 161 661 151 Q 698 114 720 86 Q 733 73 750 79 Q 760 83 771 108 Q 790 147 788 195 Q 784 301 795 337 Q 802 352 795 361 Q 776 374 742 388 Q 724 395 709 389 Q 672 371 598 358 L 540 347 Q 486 340 421 333 C 391 330 406 290 435 299 Q 444 305 540 320 L 598 331 Z" fill="black" /></g></svg>