<?xml version='1.0' encoding='utf-8'?>
<svg xmlns="http://www.w3.org/2000/svg" version="1.1" viewBox="0 0 1024 1024"><g transform="scale(1, -1) translate(0, -900)"><path d="M 765 486 Q 755 504 744 536 Q 743 546 737 550 Q 731 553 729 539 Q 714 491 689 483 Q 632 467 599 477 Q 587 481 584 489 Q 581 499 581 523 L 587 559 Q 588 566 592 571 Q 599 592 586 603 Q 550 628 540 624 Q 530 620 536 608 Q 549 584 549 547 L 548 514 Q 551 472 570 457 Q 597 436 694 442 Q 737 445 755 454 Q 774 466 765 486 Z" fill="black" /></g></svg>