<?xml version='1.0' encoding='utf-8'?>
<svg xmlns="http://www.w3.org/2000/svg" version="1.1" viewBox="0 0 1024 1024"><g transform="scale(1, -1) translate(0, -900)"><path d="M 598 377 Q 617 383 790 395 Q 803 396 808 389 Q 817 383 819 345 Q 832 182 817 89 Q 810 52 778 55 Q 750 58 725 60 Q 710 64 709 57 Q 709 50 721 37 Q 787 -20 804 -50 Q 814 -65 824 -62 Q 837 -59 850 -33 Q 884 33 890 270 Q 890 360 902 383 Q 920 407 905 412 Q 887 428 847 445 Q 822 461 795 449 Q 767 440 697 432 Q 643 426 599 419 L 547 410 Q 508 406 477 397 Q 414 384 354 373 C 325 367 345 324 373 335 Q 385 351 547 369 L 598 377 Z" fill="black" /></g></svg>