<?xml version='1.0' encoding='utf-8'?>
<svg xmlns="http://www.w3.org/2000/svg" version="1.1" viewBox="0 0 1024 1024"><g transform="scale(1, -1) translate(0, -900)"><path d="M 706 261 Q 725 227 744 217 Q 754 207 773 230 Q 792 260 834 424 Q 844 457 870 483 Q 885 496 873 512 Q 857 531 811 560 Q 789 572 726 553 Q 716 553 640 538 L 595 529 Q 570 526 543 520 Q 482 507 434 499 C 404 494 422 452 450 463 Q 457 472 571 491 L 613 499 Q 746 529 770 510 Q 786 497 781 473 Q 744 307 724 286 C 709 260 704 264 706 261 Z" fill="black" /></g></svg>