<?xml version='1.0' encoding='utf-8'?>
<svg xmlns="http://www.w3.org/2000/svg" version="1.1" viewBox="0 0 1024 1024"><g transform="scale(1, -1) translate(0, -900)"><path d="M 946 64 Q 930 100 918 162 Q 917 177 909 182 Q 902 186 898 167 Q 880 92 868 80 Q 861 70 840 63 Q 765 45 715 56 Q 699 63 695 73 Q 677 121 687 198 L 689 223 Q 693 265 704 286 Q 716 314 697 330 Q 648 366 634 362 Q 619 356 627 340 Q 646 304 642 251 Q 639 77 661 43 Q 679 19 736 10 Q 778 3 846 6 Q 907 7 930 21 Q 958 36 946 64 Z" fill="black" /></g></svg>