<?xml version='1.0' encoding='utf-8'?>
<svg xmlns="http://www.w3.org/2000/svg" version="1.1" viewBox="0 0 1024 1024"><g transform="scale(1, -1) translate(0, -900)"><path d="M 715 386 Q 725 368 737 362 Q 746 355 760 373 Q 770 386 796 459 Q 805 486 826 508 Q 838 518 828 531 Q 815 547 777 570 Q 759 579 746 574 Q 719 567 683 558 L 631 547 Q 553 532 553 530 L 508 520 Q 477 514 450 509 Q 434 508 440 497 Q 446 487 462 482 Q 474 478 488 482 Q 500 486 513 490 L 553 500 Q 587 510 629 518 L 677 528 Q 732 541 746 529 Q 753 520 751 511 Q 732 426 719 418 C 706 399 706 399 715 386 Z" fill="black" /></g></svg>