<?xml version='1.0' encoding='utf-8'?>
<svg xmlns="http://www.w3.org/2000/svg" version="1.1" viewBox="0 0 1024 1024"><g transform="scale(1, -1) translate(0, -900)"><path d="M 701 234 Q 717 209 732 201 Q 742 192 759 214 Q 774 236 807 361 Q 816 392 840 417 Q 853 430 843 444 Q 827 462 785 489 Q 769 498 673 477 Q 663 477 625 469 L 574 459 Q 552 458 529 452 Q 474 442 426 433 C 397 427 419 392 448 401 Q 499 417 575 430 L 624 439 Q 730 458 745 443 Q 757 428 754 414 Q 730 296 720 278 Q 716 268 704 263 C 689 250 689 250 701 234 Z" fill="black" /></g></svg>