<?xml version='1.0' encoding='utf-8'?>
<svg xmlns="http://www.w3.org/2000/svg" version="1.1" viewBox="0 0 1024 1024"><g transform="scale(1, -1) translate(0, -900)"><path d="M 566 275 Q 654 291 764 298 Q 783 297 792 286 Q 799 279 795 264 Q 791 95 779 72 Q 773 57 757 61 Q 726 62 692 65 Q 662 65 686 48 Q 756 2 787 -35 Q 797 -48 811 -39 Q 841 -9 850 108 Q 854 237 874 263 Q 889 284 883 292 Q 874 305 822 338 Q 803 353 788 346 Q 758 334 705 326 Q 635 317 582 308 L 522 299 Q 467 290 435 281 Q 384 271 347 264 C 318 258 340 215 369 223 Q 378 223 388 227 Q 433 246 514 264 L 566 275 Z" fill="black" /></g></svg>