<?xml version='1.0' encoding='utf-8'?>
<svg xmlns="http://www.w3.org/2000/svg" version="1.1" viewBox="0 0 1024 1024"><g transform="scale(1, -1) translate(0, -900)"><path d="M 495 609 Q 428 599 381 592 C 351 588 373 548 402 555 Q 408 555 414 557 Q 447 567 496 575 L 538 583 Q 575 590 622 595 L 669 601 Q 774 616 793 603 Q 803 596 794 564 Q 760 444 747 421 Q 744 417 743 412 L 740 390 Q 741 387 742 383 Q 746 364 760 364 Q 776 365 786 381 Q 801 396 832 473 Q 854 528 897 559 Q 919 575 903 594 Q 884 613 831 647 Q 812 660 741 644 Q 695 641 672 636 L 624 629 Q 578 625 538 616 L 495 609 Z" fill="black" /></g></svg>