<?xml version='1.0' encoding='utf-8'?>
<svg xmlns="http://www.w3.org/2000/svg" version="1.1" viewBox="0 0 1024 1024"><g transform="scale(1, -1) translate(0, -900)"><path d="M 420 688 Q 419 689 419 690 Q 409 700 378 716 Q 357 728 349 720 Q 342 713 349 697 Q 368 661 369 597 Q 375 342 352 106 Q 349 66 325 29 Q 315 14 323 -7 Q 332 -29 342 -38 Q 352 -47 370 -34 Q 493 50 860 44 Q 885 43 886 56 Q 886 71 857 92 Q 841 105 807 98 Q 702 82 620 72 Q 535 68 434 48 Q 418 44 411 50 Q 404 51 403 71 Q 413 291 418 569 Q 418 627 425 661 C 428 682 428 682 420 688 Z" fill="black" /></g></svg>