<?xml version='1.0' encoding='utf-8'?>
<svg xmlns="http://www.w3.org/2000/svg" version="1.1" viewBox="0 0 1024 1024"><g transform="scale(1, -1) translate(0, -900)"><path d="M 657 375 Q 673 350 689 341 Q 699 334 714 354 Q 727 373 758 486 Q 767 517 790 540 Q 803 553 791 566 Q 776 582 735 609 Q 716 619 700 612 Q 669 605 629 596 Q 577 586 509 572 Q 469 563 433 555 C 404 548 419 516 448 524 Q 524 546 657 568 Q 688 574 699 563 Q 709 550 707 537 Q 683 420 668 403 C 655 378 655 378 657 375 Z" fill="black" /></g></svg>