<?xml version='1.0' encoding='utf-8'?>
<svg xmlns="http://www.w3.org/2000/svg" version="1.1" viewBox="0 0 1024 1024"><g transform="scale(1, -1) translate(0, -900)"><path d="M 594 219 Q 600 250 604 282 L 607 325 Q 608 353 610 379 L 610 412 Q 610 437 610 459 Q 610 480 613 501 L 618 531 Q 619 538 623 547 Q 627 559 619 565 Q 604 577 581 586 C 554 599 509 595 528 572 Q 555 545 559 517 L 560 491 Q 561 445 562 402 L 561 372 Q 560 342 558 314 L 555 274 Q 554 267 553 257 Q 552 233 545 211 L 530 172 Q 482 97 402 57 Q 368 41 318 20 Q 306 16 302 13 Q 298 9 312 5 Q 405 -1 524 80 Q 539 92 551 106 Q 575 137 586 181 L 594 219 Z" fill="black" /></g></svg>