<?xml version='1.0' encoding='utf-8'?>
<svg xmlns="http://www.w3.org/2000/svg" version="1.1" viewBox="0 0 1024 1024"><g transform="scale(1, -1) translate(0, -900)"><path d="M 740 408 Q 753 383 768 374 Q 778 365 794 384 Q 804 394 831 453 Q 841 483 866 506 Q 879 518 869 532 Q 854 550 814 578 Q 796 588 723 570 Q 690 569 515 536 Q 451 524 397 515 C 367 510 383 474 412 482 Q 448 492 494 502 L 517 506 Q 566 518 627 527 L 668 533 Q 761 551 778 533 Q 784 526 782 518 Q 764 442 750 435 C 736 415 736 415 740 408 Z" fill="black" /></g></svg>