<?xml version='1.0' encoding='utf-8'?>
<svg xmlns="http://www.w3.org/2000/svg" version="1.1" viewBox="0 0 1024 1024"><g transform="scale(1, -1) translate(0, -900)"><path d="M 388 415 Q 388 228 358 127 Q 354 112 347 112 Q 335 108 303 113 Q 273 122 269 116 Q 266 110 276 99 Q 307 68 328 39 Q 344 15 353 16 Q 360 12 374 29 Q 447 119 430 464 Q 426 524 415 573 Q 411 588 407 599 L 387 649 Q 359 700 319 722 Q 307 732 301 721 Q 297 709 300 690 Q 304 671 321 664 Q 339 654 357 608 L 372 564 Q 372 561 380 508 L 388 415 Z" fill="black" /></g></svg>