<?xml version='1.0' encoding='utf-8'?>
<svg xmlns="http://www.w3.org/2000/svg" version="1.1" viewBox="0 0 1024 1024"><g transform="scale(1, -1) translate(0, -900)"><path d="M 386 409 Q 395 408 418 407 Q 440 406 448 394 Q 461 372 423 238 Q 402 174 376 163 Q 366 162 339 178 Q 311 199 307 194 Q 300 187 313 175 Q 341 139 346 104 Q 349 89 358 84 Q 368 78 398 95 Q 434 122 460 198 Q 470 235 481 284 Q 496 359 515 377 Q 524 381 525 390 Q 525 397 504 417 Q 473 442 428 435 Q 416 436 396 437 C 366 439 356 411 386 409 Z" fill="black" /></g></svg>