<?xml version='1.0' encoding='utf-8'?>
<svg xmlns="http://www.w3.org/2000/svg" version="1.1" viewBox="0 0 1024 1024"><g transform="scale(1, -1) translate(0, -900)"><path d="M 373 121 Q 373 122 374 122 Q 392 131 397 150 Q 404 184 366 229 Q 350 251 384 304 Q 403 329 421 342 Q 440 355 425 370 Q 409 383 383 398 Q 365 410 330 384 Q 267 357 257 358 Q 251 359 249 355 Q 248 351 255 347 Q 282 332 341 354 Q 347 357 353 351 Q 368 330 348 306 Q 332 290 320 265 Q 316 253 348 192 Q 349 188 352 183 Q 358 165 360 120 C 360 112 360 112 373 121 Z" fill="black" /></g></svg>