<?xml version='1.0' encoding='utf-8'?>
<svg xmlns="http://www.w3.org/2000/svg" version="1.1" viewBox="0 0 1024 1024"><g transform="scale(1, -1) translate(0, -900)"><path d="M 398 284 Q 398 179 373 88 Q 363 52 386 -4 Q 393 -20 400 -23 Q 406 -29 412 -22 Q 419 -18 429 2 Q 438 24 437 53 Q 436 92 438 368 L 438 400 Q 438 446 439 496 L 440 524 Q 440 560 441 598 L 444 641 Q 448 692 460 731 Q 467 744 465 757 Q 459 766 408 797 Q 387 813 368 799 Q 364 795 369 780 Q 402 732 402 683 Q 402 658 403 629 L 404 589 Q 404 553 404 515 L 403 488 Q 402 442 401 391 L 398 284 Z" fill="black" /></g></svg>