<?xml version='1.0' encoding='utf-8'?>
<svg xmlns="http://www.w3.org/2000/svg" version="1.1" viewBox="0 0 1024 1024"><g transform="scale(1, -1) translate(0, -900)"><path d="M 339 590 Q 330 599 314 608 Q 302 617 295 611 Q 285 607 294 593 Q 312 557 295 504 Q 276 434 244 408 Q 232 395 236 384 Q 243 371 251 364 Q 261 357 278 370 Q 302 400 345 405 Q 364 406 372 398 Q 382 385 379 348 Q 372 252 349 187 Q 339 157 329 145 Q 322 138 303 143 Q 281 155 262 163 Q 249 170 249 161 Q 249 149 259 136 Q 283 100 293 71 Q 309 44 333 56 Q 361 80 384 109 Q 403 128 408 176 Q 418 240 430 340 Q 431 362 445 385 Q 455 401 445 410 Q 433 426 405 439 Q 383 449 370 442 Q 363 438 320 424 Q 314 423 312 424 Q 306 428 312 443 Q 328 491 348 549 Q 349 553 350 558 C 356 577 356 577 339 590 Z" fill="black" /></g></svg>