<?xml version='1.0' encoding='utf-8'?>
<svg xmlns="http://www.w3.org/2000/svg" version="1.1" viewBox="0 0 1024 1024"><g transform="scale(1, -1) translate(0, -900)"><path d="M 424 257 Q 418 193 402 132 Q 392 95 416 33 Q 423 17 431 13 Q 437 6 444 15 Q 451 19 461 39 Q 471 64 470 94 Q 469 122 470 271 L 470 311 Q 470 341 471 374 L 471 412 Q 471 440 472 471 L 473 510 Q 473 532 473 553 L 473 583 Q 474 610 475 653 L 478 702 Q 482 751 494 790 Q 503 805 499 818 Q 492 828 439 861 Q 415 877 395 862 Q 391 858 397 842 Q 430 793 431 743 Q 431 715 431 683 L 432 639 Q 432 606 433 572 L 432 543 Q 431 521 431 498 L 430 461 Q 429 430 428 397 L 428 365 Q 427 334 427 299 L 424 257 Z" fill="black" /></g></svg>