<?xml version='1.0' encoding='utf-8'?>
<svg xmlns="http://www.w3.org/2000/svg" version="1.1" viewBox="0 0 1024 1024"><g transform="scale(1, -1) translate(0, -900)"><path d="M 508 24 Q 483 28 458 35 Q 439 41 441 32 Q 493 -11 523 -45 Q 535 -61 549 -67 Q 556 -70 565 -62 Q 599 -14 601 40 Q 595 127 595 215 L 598 249 Q 601 271 610 283 Q 622 299 611 310 Q 593 328 560 343 Q 544 350 530 344 Q 508 332 493 328 Q 472 321 428 318 Q 415 318 421 309 Q 428 299 441 294 Q 454 290 518 303 Q 537 307 541 296 Q 556 248 543 61 Q 540 34 532 24 Q 526 18 508 24 Z" fill="black" /></g></svg>