<?xml version='1.0' encoding='utf-8'?>
<svg xmlns="http://www.w3.org/2000/svg" version="1.1" viewBox="0 0 1024 1024"><g transform="scale(1, -1) translate(0, -900)"><path d="M 364 380 Q 357 386 346 391 Q 336 400 328 395 Q 319 389 328 377 Q 340 355 330 319 Q 318 273 297 255 Q 287 242 291 231 Q 298 219 307 213 Q 316 206 332 220 Q 365 259 417 264 Q 432 265 437 258 Q 446 248 441 218 Q 425 116 384 78 Q 378 74 318 89 Q 305 95 306 85 Q 307 75 320 63 Q 342 35 355 11 Q 368 -8 385 2 Q 439 36 455 84 Q 500 240 504 246 Q 514 261 505 269 Q 495 284 469 297 Q 450 307 408 288 Q 363 272 360 272 Q 357 275 360 282 Q 381 340 382 352 C 386 367 386 367 364 380 Z" fill="black" /></g></svg>