<?xml version='1.0' encoding='utf-8'?>
<svg xmlns="http://www.w3.org/2000/svg" version="1.1" viewBox="0 0 1024 1024"><g transform="scale(1, -1) translate(0, -900)"><path d="M 399 446 Q 317 320 294 306 Q 284 297 286 285 Q 287 275 311 259 Q 321 249 333 260 Q 376 296 482 341 Q 498 345 499 353 Q 500 363 484 358 Q 432 345 368 322 Q 346 312 359 332 Q 393 386 474 495 Q 496 529 517 548 Q 527 557 521 565 Q 511 581 482 596 Q 469 603 461 600 Q 452 597 455 584 Q 458 551 413 468 L 399 446 Z" fill="black" /></g></svg>