<?xml version='1.0' encoding='utf-8'?>
<svg xmlns="http://www.w3.org/2000/svg" version="1.1" viewBox="0 0 1024 1024"><g transform="scale(1, -1) translate(0, -900)"><path d="M 696 158 Q 715 192 735 237 Q 745 262 763 279 Q 779 294 768 305 Q 756 315 728 325 Q 713 331 636 300 Q 608 291 562 283 Q 550 282 546 276 Q 543 269 559 263 Q 592 253 634 266 Q 662 281 668 282 Q 687 281 683 258 Q 673 212 655 178 L 635 145 Q 584 87 499 63 Q 487 59 498 51 Q 502 48 532 50 Q 604 56 668 119 L 696 158 Z" fill="black" /></g></svg>