<?xml version='1.0' encoding='utf-8'?>
<svg xmlns="http://www.w3.org/2000/svg" version="1.1" viewBox="0 0 1024 1024"><g transform="scale(1, -1) translate(0, -900)"><path d="M 731 462 Q 727 413 729 399 Q 730 386 745 373 Q 797 333 913 354 Q 914 355 917 355 Q 944 362 970 377 Q 985 390 974 410 Q 964 432 947 497 Q 946 510 941 514 Q 937 515 933 502 Q 914 430 900 408 Q 857 377 786 397 Q 785 398 784 398 Q 769 404 767 412 Q 761 427 776 498 Q 782 522 745 538 Q 735 542 729 538 Q 723 537 727 522 Q 734 491 731 462 Z" fill="black" /></g></svg>