<?xml version='1.0' encoding='utf-8'?>
<svg xmlns="http://www.w3.org/2000/svg" version="1.1" viewBox="0 0 1024 1024"><g transform="scale(1, -1) translate(0, -900)"><path d="M 718 577 Q 763 592 851 595 Q 870 596 870 606 Q 869 616 838 630 Q 816 640 771 623 Q 765 623 725 611 L 677 599 Q 662 598 650 593 Q 631 583 622 587 Q 612 588 613 599 Q 617 618 626 638 Q 633 657 619 674 Q 597 701 579 702 Q 563 703 568 687 Q 589 644 579 604 Q 570 589 567 588 Q 558 573 565 561 Q 577 540 588 539 Q 595 539 613 547 Q 638 557 672 565 L 718 577 Z" fill="black" /></g></svg>