<?xml version='1.0' encoding='utf-8'?>
<svg xmlns="http://www.w3.org/2000/svg" version="1.1" viewBox="0 0 1024 1024"><g transform="scale(1, -1) translate(0, -900)"><path d="M 429 544 Q 460 553 533 558 Q 551 559 556 570 Q 560 577 543 585 Q 495 609 443 586 Q 442 586 441 585 L 394 570 Q 364 563 339 550 Q 323 543 326 558 Q 339 607 351 625 Q 358 632 355 641 Q 351 650 324 663 Q 311 670 302 666 Q 295 659 301 649 Q 317 607 287 551 Q 266 526 267 517 Q 270 508 283 498 Q 293 491 304 501 Q 338 525 385 533 L 429 544 Z" fill="black" /></g></svg>