<?xml version='1.0' encoding='utf-8'?>
<svg xmlns="http://www.w3.org/2000/svg" version="1.1" viewBox="0 0 1024 1024"><g transform="scale(1, -1) translate(0, -900)"><path d="M 705 716 Q 757 732 800 739 Q 813 742 817 737 Q 824 727 819 702 Q 812 632 796 602 Q 780 574 754 579 Q 735 583 717 589 Q 695 596 711 575 Q 745 541 761 514 Q 774 498 788 510 Q 840 543 869 683 Q 876 717 890 735 Q 900 745 895 754 Q 888 764 845 783 Q 827 790 811 779 Q 795 769 732 752 Q 668 733 614 727 Q 599 726 597 719 Q 596 713 616 704 Q 635 692 651 699 Q 661 703 675 706 L 705 716 Z" fill="black" /></g></svg>