<?xml version='1.0' encoding='utf-8'?>
<svg xmlns="http://www.w3.org/2000/svg" version="1.1" viewBox="0 0 1024 1024"><g transform="scale(1, -1) translate(0, -900)"><path d="M 637 32 Q 665 -5 685 -39 Q 694 -57 704 -57 Q 720 -56 737 -23 Q 756 14 753 62 Q 747 114 742 213 Q 741 243 758 264 Q 767 276 758 286 Q 740 305 690 329 Q 674 339 658 330 Q 592 300 464 280 C 434 275 446 244 476 249 Q 483 249 640 282 Q 662 286 675 278 Q 687 266 685 118 Q 685 78 681 66 Q 677 50 661 54 C 632 45 628 44 637 32 Z" fill="black" /></g></svg>