<?xml version='1.0' encoding='utf-8'?>
<svg xmlns="http://www.w3.org/2000/svg" version="1.1" viewBox="0 0 1024 1024"><g transform="scale(1, -1) translate(0, -900)"><path d="M 672 483 Q 672 479 674 472 Q 678 456 692 457 Q 705 458 714 472 Q 733 494 765 607 Q 783 658 821 685 Q 840 700 825 716 Q 809 734 760 762 Q 745 772 703 761 Q 675 755 650 749 Q 626 742 612 740 Q 596 740 594 735 Q 591 731 606 720 Q 627 708 666 715 Q 717 731 725 724 Q 737 717 728 678 Q 721 654 716 632 L 707 600 Q 688 531 678 509 L 672 483 Z" fill="black" /></g></svg>