<?xml version='1.0' encoding='utf-8'?>
<svg xmlns="http://www.w3.org/2000/svg" version="1.1" viewBox="0 0 1024 1024"><g transform="scale(1, -1) translate(0, -900)"><path d="M 689 194 Q 705 169 721 161 Q 731 154 746 174 Q 759 196 788 318 Q 797 349 820 374 Q 833 386 821 400 Q 806 416 764 442 Q 746 452 685 436 Q 658 435 605 423 L 553 414 Q 543 414 430 393 C 401 388 411 350 440 359 Q 439 360 442 360 Q 487 373 554 383 L 604 391 Q 710 409 726 395 Q 738 382 736 367 Q 712 229 694 219 C 683 202 683 202 689 194 Z" fill="black" /></g></svg>