<?xml version='1.0' encoding='utf-8'?>
<svg xmlns="http://www.w3.org/2000/svg" version="1.1" viewBox="0 0 1024 1024"><g transform="scale(1, -1) translate(0, -900)"><path d="M 814 538 Q 823 120 802 87 Q 798 81 778 85 Q 751 91 724 98 Q 703 105 704 95 Q 762 43 793 5 Q 806 -16 823 -20 Q 833 -24 841 -14 Q 884 35 883 94 Q 870 304 865 643 Q 862 704 876 731 Q 889 752 876 763 Q 854 782 815 797 Q 790 806 747 779 Q 678 761 666 757 C 637 749 652 717 681 724 Q 706 728 769 748 Q 787 752 795 743 Q 808 730 809 686 Q 810 625 813 567 L 814 538 Z" fill="black" /></g></svg>