<?xml version='1.0' encoding='utf-8'?>
<svg xmlns="http://www.w3.org/2000/svg" version="1.1" viewBox="0 0 1024 1024"><g transform="scale(1, -1) translate(0, -900)"><path d="M 698 433 Q 732 479 763 533 Q 787 576 802 587 Q 815 597 809 609 Q 805 619 753 642 Q 741 648 719 637 Q 694 625 635 614 C 606 608 595 606 623 596 Q 635 587 663 592 Q 715 604 718 597 Q 722 584 703 539 Q 691 505 660 462 L 640 435 Q 636 431 631 424 Q 579 354 489 287 Q 467 274 486 274 Q 549 278 659 387 Q 666 396 674 404 L 698 433 Z" fill="black" /></g></svg>