<?xml version='1.0' encoding='utf-8'?>
<svg xmlns="http://www.w3.org/2000/svg" version="1.1" viewBox="0 0 1024 1024"><g transform="scale(1, -1) translate(0, -900)"><path d="M 694 325 Q 694 321 696 317 Q 700 304 711 305 Q 723 306 729 319 Q 739 331 757 388 Q 770 433 802 459 Q 818 472 804 486 Q 788 501 745 523 Q 733 530 675 517 Q 647 517 537 494 Q 486 484 455 479 C 425 474 455 440 483 450 Q 482 451 484 451 Q 545 470 684 487 Q 709 488 718 484 Q 725 480 721 455 Q 705 367 697 347 L 694 325 Z" fill="black" /></g></svg>