<?xml version='1.0' encoding='utf-8'?>
<svg xmlns="http://www.w3.org/2000/svg" version="1.1" viewBox="0 0 1024 1024"><g transform="scale(1, -1) translate(0, -900)"><path d="M 652 225 Q 656 111 653 49 Q 652 27 640 18 Q 633 14 546 24 Q 533 25 536 18 Q 537 11 548 5 Q 627 -52 654 -87 Q 669 -103 684 -89 Q 720 -47 713 17 Q 704 101 703 223 Q 703 227 704 229 L 710 273 Q 711 280 715 287 Q 724 306 707 319 Q 682 341 651 350 Q 633 357 625 349 Q 619 342 630 327 Q 648 297 651 263 L 652 225 Z" fill="black" /></g></svg>