<?xml version='1.0' encoding='utf-8'?>
<svg xmlns="http://www.w3.org/2000/svg" version="1.1" viewBox="0 0 1024 1024"><g transform="scale(1, -1) translate(0, -900)"><path d="M 742 569 Q 757 542 772 533 Q 782 526 798 545 Q 807 555 833 613 Q 843 643 867 666 Q 880 676 870 692 Q 857 708 816 736 Q 797 746 781 741 Q 744 734 697 725 L 650 718 Q 608 712 563 704 L 519 697 Q 462 688 418 681 C 388 676 407 641 436 649 Q 472 659 523 669 L 563 676 Q 600 685 647 691 L 690 697 Q 759 710 778 693 Q 784 686 783 678 Q 767 603 749 594 C 736 579 736 579 742 569 Z" fill="black" /></g></svg>