<?xml version='1.0' encoding='utf-8'?>
<svg xmlns="http://www.w3.org/2000/svg" version="1.1" viewBox="0 0 1024 1024"><g transform="scale(1, -1) translate(0, -900)"><path d="M 362 299 Q 426 459 451 619 Q 452 626 453 634 L 458 662 Q 462 683 466 701 Q 469 716 482 755 C 487 771 487 771 470 784 Q 457 797 435 808 Q 416 821 403 817 Q 390 810 396 796 Q 417 759 408 691 Q 372 466 333 353 Q 321 322 308 292 Q 251 169 141 27 Q 135 20 133 14 Q 129 4 140 5 Q 176 11 278 145 Q 317 205 356 286 L 362 299 Z" fill="black" /></g></svg>