<?xml version='1.0' encoding='utf-8'?>
<svg xmlns="http://www.w3.org/2000/svg" version="1.1" viewBox="0 0 1024 1024"><g transform="scale(1, -1) translate(0, -900)"><path d="M 644 439 Q 651 442 663 445 Q 771 470 789 463 Q 801 457 800 430 Q 819 250 810 109 Q 809 81 793 75 Q 781 74 722 93 Q 710 97 710 89 Q 711 80 725 70 Q 764 36 792 0 Q 808 -18 825 -17 Q 843 -13 863 37 Q 888 88 883 139 Q 871 262 861 374 Q 857 419 874 455 Q 886 470 871 484 Q 853 500 814 512 Q 792 522 775 510 Q 759 503 735 493 L 698 483 Q 652 471 625 465 C 596 458 615 430 644 439 Z" fill="black" /></g></svg>