<?xml version='1.0' encoding='utf-8'?>
<svg xmlns="http://www.w3.org/2000/svg" version="1.1" viewBox="0 0 1024 1024"><g transform="scale(1, -1) translate(0, -900)"><path d="M 636 476 Q 629 498 624 503 L 612 514 Q 603 521 590 524 Q 577 528 570 523 Q 563 519 572 510 Q 594 497 604 470 L 607 441 Q 607 410 599 392 Q 592 377 571 380 Q 553 383 537 386 Q 530 387 533 380 Q 536 376 547 368 Q 571 349 579 333 Q 586 323 596 324 Q 605 325 621 343 Q 651 376 642 445 Q 641 446 642 446 L 636 476 Z" fill="black" /></g></svg>