<?xml version='1.0' encoding='utf-8'?>
<svg xmlns="http://www.w3.org/2000/svg" version="1.1" viewBox="0 0 1024 1024"><g transform="scale(1, -1) translate(0, -900)"><path d="M 743 64 Q 771 28 791 -5 Q 798 -21 809 -20 Q 824 -19 838 10 Q 854 44 851 86 Q 845 155 840 281 Q 839 309 853 327 Q 862 337 853 347 Q 837 363 792 384 Q 777 391 764 384 Q 731 368 679 353 Q 678 353 675 352 C 646 344 617 305 646 314 Q 653 317 662 319 Q 711 331 754 341 Q 770 345 779 339 Q 804 309 787 89 Q 783 76 770 78 C 743 66 742 65 743 64 Z" fill="black" /></g></svg>