<?xml version='1.0' encoding='utf-8'?>
<svg xmlns="http://www.w3.org/2000/svg" version="1.1" viewBox="0 0 1024 1024"><g transform="scale(1, -1) translate(0, -900)"><path d="M 470 328 Q 471 328 652 359 Q 671 363 677 353 Q 683 337 688 194 Q 688 70 677 53 Q 673 47 654 52 Q 633 56 611 62 Q 592 69 592 59 Q 638 11 666 -25 Q 679 -44 694 -49 Q 703 -53 711 -44 Q 756 1 754 58 Q 730 299 754 340 Q 766 359 754 370 Q 733 389 697 404 Q 678 411 663 405 Q 581 365 465 357 C 435 354 440 323 470 328 Z" fill="black" /></g></svg>