<?xml version='1.0' encoding='utf-8'?>
<svg xmlns="http://www.w3.org/2000/svg" version="1.1" viewBox="0 0 1024 1024"><g transform="scale(1, -1) translate(0, -900)"><path d="M 675 352 Q 682 365 694 379 Q 727 428 755 475 L 780 520 Q 852 661 856 664 Q 863 674 854 689 Q 836 717 819 727 Q 806 737 789 737 Q 773 737 779 717 Q 785 681 780 648 Q 747 549 730 517 Q 727 513 725 507 L 703 467 Q 658 395 617 339 L 587 299 Q 529 229 461 156 Q 458 155 456 151 C 448 142 448 142 455 143 Q 455 140 461 140 Q 470 141 478 147 Q 557 207 593 250 L 635 299 Q 639 306 646 314 L 675 352 Z" fill="black" /></g></svg>