<?xml version='1.0' encoding='utf-8'?>
<svg xmlns="http://www.w3.org/2000/svg" version="1.1" viewBox="0 0 1024 1024"><g transform="scale(1, -1) translate(0, -900)"><path d="M 662 255 Q 678 230 692 221 Q 702 214 718 233 Q 731 252 763 357 Q 773 387 796 410 Q 809 422 799 435 Q 786 451 745 479 Q 727 488 648 471 Q 639 471 404 429 C 374 424 393 392 422 400 Q 462 412 518 421 L 554 427 Q 602 437 660 444 Q 696 448 707 437 Q 717 424 714 412 Q 687 289 671 282 C 657 262 657 262 662 255 Z" fill="black" /></g></svg>