<?xml version='1.0' encoding='utf-8'?>
<svg xmlns="http://www.w3.org/2000/svg" version="1.1" viewBox="0 0 1024 1024"><g transform="scale(1, -1) translate(0, -900)"><path d="M 582 54 Q 582 94 583 130 L 584 173 Q 585 210 587 245 L 588 279 Q 589 307 590 332 L 592 368 Q 592 371 593 372 Q 600 391 590 400 Q 572 418 554 427 C 528 442 506 448 518 421 Q 519 420 520 417 Q 535 381 538 354 L 539 324 Q 539 305 539 270 L 539 239 Q 539 208 539 164 L 539 124 Q 539 91 539 50 C 539 20 582 24 582 54 Z" fill="black" /></g></svg>