<?xml version='1.0' encoding='utf-8'?>
<svg xmlns="http://www.w3.org/2000/svg" version="1.1" viewBox="0 0 1024 1024"><g transform="scale(1, -1) translate(0, -900)"><path d="M 424 558 Q 361 467 273 409 Q 266 405 267 400 Q 268 396 274 397 Q 383 413 474 556 Q 505 608 536 692 Q 548 717 570 736 Q 583 745 582 753 Q 581 765 554 777 Q 520 795 508 794 Q 498 793 488 784 Q 419 754 395 750 Q 362 750 359 742 Q 358 739 364 735 Q 377 725 405 721 Q 423 722 453 741 Q 475 751 485 745 Q 492 741 478 685 Q 469 637 440 588 L 424 558 Z" fill="black" /></g></svg>