<?xml version='1.0' encoding='utf-8'?>
<svg xmlns="http://www.w3.org/2000/svg" version="1.1" viewBox="0 0 1024 1024"><g transform="scale(1, -1) translate(0, -900)"><path d="M 753 489 Q 754 347 759 119 Q 759 95 746 86 Q 739 82 665 99 Q 632 111 635 101 Q 636 94 656 79 Q 723 27 741 -3 Q 760 -37 777 -39 Q 792 -40 806 -4 Q 822 42 820 115 Q 804 305 801 496 L 801 542 Q 795 680 816 758 Q 832 789 776 809 Q 742 827 723 819 Q 705 812 722 790 Q 744 763 746 730 Q 749 711 752 531 L 753 489 Z" fill="black" /></g></svg>