<?xml version='1.0' encoding='utf-8'?>
<svg xmlns="http://www.w3.org/2000/svg" version="1.1" viewBox="0 0 1024 1024"><g transform="scale(1, -1) translate(0, -900)"><path d="M 367 366 Q 376 369 450 387 Q 466 391 472 384 Q 490 318 481 117 Q 478 95 472 84 Q 468 78 449 83 Q 430 84 409 88 Q 391 92 393 84 Q 439 47 466 19 Q 478 3 491 0 Q 498 -4 506 5 Q 539 50 538 93 Q 516 336 536 373 Q 546 389 536 398 Q 518 414 487 427 Q 471 433 458 426 Q 419 405 351 391 C 322 385 338 358 367 366 Z" fill="black" /></g></svg>