<?xml version='1.0' encoding='utf-8'?>
<svg xmlns="http://www.w3.org/2000/svg" version="1.1" viewBox="0 0 1024 1024"><g transform="scale(1, -1) translate(0, -900)"><path d="M 707 355 Q 720 342 723 341 Q 733 342 738 354 Q 745 363 759 406 Q 769 446 796 471 Q 809 484 797 495 Q 782 507 743 525 Q 731 531 682 518 Q 631 511 619 506 L 586 499 Q 564 495 545 490 Q 505 481 477 475 C 448 469 457 441 486 448 Q 489 448 493 449 Q 526 461 585 472 L 618 478 Q 708 496 721 488 Q 728 485 725 465 Q 715 392 709 377 Q 708 377 708 376 C 702 359 702 359 707 355 Z" fill="black" /></g></svg>