<?xml version='1.0' encoding='utf-8'?>
<svg xmlns="http://www.w3.org/2000/svg" version="1.1" viewBox="0 0 1024 1024"><g transform="scale(1, -1) translate(0, -900)"><path d="M 615 697 Q 615 696 628 671 Q 640 652 640 621 Q 643 497 638 304 Q 635 136 652 114 Q 656 108 662 111 Q 668 114 673 126 Q 673 132 681 199 L 682 220 Q 683 259 683 296 L 682 318 Q 681 349 680 404 L 680 423 Q 680 469 681 532 L 681 560 Q 681 575 682 589 Q 682 616 691 665 Q 692 680 681 687 Q 668 697 658 701 C 632 716 602 724 615 697 Z" fill="black" /></g></svg>