<?xml version='1.0' encoding='utf-8'?>
<svg xmlns="http://www.w3.org/2000/svg" version="1.1" viewBox="0 0 1024 1024"><g transform="scale(1, -1) translate(0, -900)"><path d="M 577 292 Q 570 205 564 188 Q 555 158 583 117 Q 593 101 599 98 Q 608 97 612 108 Q 622 133 620 158 Q 617 255 617 342 L 617 367 Q 617 413 618 455 Q 618 467 618 478 L 619 506 Q 619 534 621 554 L 624 590 Q 625 597 626 602 Q 629 612 623 616 Q 604 632 589 640 Q 579 643 572 637 Q 568 634 573 627 Q 582 611 584 580 L 586 547 Q 586 525 586 499 L 585 472 Q 585 438 584 396 Q 583 378 582 360 L 577 292 Z" fill="black" /></g></svg>