<?xml version='1.0' encoding='utf-8'?>
<svg xmlns="http://www.w3.org/2000/svg" version="1.1" viewBox="0 0 1024 1024"><g transform="scale(1, -1) translate(0, -900)"><path d="M 732 651 Q 732 648 733 644 Q 736 629 747 628 Q 760 628 769 640 Q 778 647 801 688 Q 820 733 856 756 Q 875 769 862 784 Q 847 800 805 830 Q 790 840 772 836 Q 738 829 697 824 Q 603 815 522 801 Q 461 791 415 785 C 385 781 405 746 434 754 Q 465 764 513 772 L 533 775 Q 575 784 629 789 L 668 793 Q 752 808 776 795 Q 782 789 775 768 Q 754 707 736 670 L 732 651 Z" fill="black" /></g></svg>