<?xml version='1.0' encoding='utf-8'?>
<svg xmlns="http://www.w3.org/2000/svg" version="1.1" viewBox="0 0 1024 1024"><g transform="scale(1, -1) translate(0, -900)"><path d="M 733 696 Q 779 711 818 717 Q 831 718 834 715 Q 840 708 837 685 Q 830 625 816 599 Q 803 577 783 582 Q 768 588 756 594 Q 738 604 748 583 Q 772 544 781 517 Q 793 501 806 512 Q 855 540 883 665 Q 890 696 904 711 Q 914 721 909 730 Q 902 740 860 759 Q 844 766 828 756 Q 812 746 749 730 Q 688 712 634 708 Q 621 707 618 699 Q 617 693 636 684 Q 655 672 671 678 Q 687 684 703 688 L 733 696 Z" fill="black" /></g></svg>