<?xml version='1.0' encoding='utf-8'?>
<svg xmlns="http://www.w3.org/2000/svg" version="1.1" viewBox="0 0 1024 1024"><g transform="scale(1, -1) translate(0, -900)"><path d="M 597 263 Q 590 450 604 477 Q 614 496 604 505 Q 595 518 556 537 Q 540 544 523 540 Q 504 531 464 517 L 432 507 Q 401 500 372 492 C 343 484 352 446 380 456 Q 384 457 391 459 Q 404 466 422 471 L 451 481 Q 475 491 504 498 Q 522 505 533 497 Q 542 493 544 451 Q 548 375 547 292 L 546 269 Q 543 134 532 126 Q 522 119 471 128 Q 456 132 458 123 Q 458 117 469 111 Q 515 74 539 46 Q 557 28 568 31 Q 578 32 588 57 Q 603 102 598 243 L 597 263 Z" fill="black" /></g></svg>