<?xml version='1.0' encoding='utf-8'?>
<svg xmlns="http://www.w3.org/2000/svg" version="1.1" viewBox="0 0 1024 1024"><g transform="scale(1, -1) translate(0, -900)"><path d="M 740 192 Q 779 273 797 341 Q 801 372 817 388 Q 830 401 813 413 Q 794 426 765 435 Q 746 439 729 429 Q 681 399 613 385 Q 591 382 581 375 Q 574 369 590 362 Q 612 352 645 365 Q 685 378 725 390 Q 743 397 744 376 Q 744 307 707 227 L 686 191 Q 635 128 527 88 Q 514 84 523 78 Q 530 74 554 79 Q 624 89 667 113 Q 692 129 714 154 L 740 192 Z" fill="black" /></g></svg>