<?xml version='1.0' encoding='utf-8'?>
<svg xmlns="http://www.w3.org/2000/svg" version="1.1" viewBox="0 0 1024 1024"><g transform="scale(1, -1) translate(0, -900)"><path d="M 714 386 Q 730 364 745 357 Q 755 350 771 371 Q 784 396 811 526 Q 820 557 843 583 Q 856 596 844 609 Q 828 625 786 652 Q 765 661 749 654 Q 716 645 673 637 Q 615 627 542 612 Q 487 600 444 592 C 415 586 433 554 462 562 Q 547 587 701 612 Q 735 618 746 606 Q 759 591 756 576 Q 735 428 714 418 C 701 401 701 401 714 386 Z" fill="black" /></g></svg>