<?xml version='1.0' encoding='utf-8'?>
<svg xmlns="http://www.w3.org/2000/svg" version="1.1" viewBox="0 0 1024 1024"><g transform="scale(1, -1) translate(0, -900)"><path d="M 685 132 Q 697 116 709 110 Q 719 103 731 122 Q 741 138 763 229 Q 770 256 790 277 Q 800 287 791 300 Q 778 313 741 336 Q 723 345 710 338 Q 685 332 652 326 Q 609 319 553 307 Q 516 300 486 294 C 457 288 471 259 500 267 Q 563 285 674 301 Q 699 305 707 296 Q 716 286 715 275 Q 700 173 687 163 C 675 143 675 143 685 132 Z" fill="black" /></g></svg>