<?xml version='1.0' encoding='utf-8'?>
<svg xmlns="http://www.w3.org/2000/svg" version="1.1" viewBox="0 0 1024 1024"><g transform="scale(1, -1) translate(0, -900)"><path d="M 423 266 Q 469 257 477 246 Q 489 222 450 130 Q 432 90 416 85 Q 407 81 373 92 Q 342 107 338 102 Q 334 95 348 84 Q 381 51 388 24 Q 392 9 402 4 Q 412 0 441 17 Q 487 53 512 157 Q 521 203 542 223 Q 551 227 553 235 Q 554 242 534 264 Q 510 288 462 289 Q 453 290 440 292 Q 439 293 437 292 C 407 295 394 272 423 266 Z" fill="black" /></g></svg>