<?xml version='1.0' encoding='utf-8'?>
<svg xmlns="http://www.w3.org/2000/svg" version="1.1" viewBox="0 0 1024 1024"><g transform="scale(1, -1) translate(0, -900)"><path d="M 476 511 Q 506 504 683 528 Q 771 541 779 528 Q 800 492 790 278 Q 780 148 746 80 Q 733 47 710 39 Q 700 36 644 50 Q 635 53 635 48 Q 634 44 645 35 Q 679 -2 695 -30 Q 702 -46 714 -46 Q 735 -43 754 -21 Q 785 7 805 55 Q 847 151 850 452 Q 850 486 869 512 Q 882 525 881 532 Q 880 539 861 552 Q 836 571 804 580 Q 783 586 706 565 Q 696 564 685 561 Q 612 546 496 531 C 466 527 446 512 476 511 Z" fill="black" /></g></svg>