<?xml version='1.0' encoding='utf-8'?>
<svg xmlns="http://www.w3.org/2000/svg" version="1.1" viewBox="0 0 1024 1024"><g transform="scale(1, -1) translate(0, -900)"><path d="M 641 467 Q 641 500 644 506 Q 647 516 639 523 Q 633 527 624 533 C 599 550 585 555 592 526 Q 596 516 598 495 Q 598 477 598 457 L 599 429 Q 599 399 599 368 L 599 338 Q 599 310 598 279 L 598 245 Q 583 -14 593 -31 Q 596 -40 605 -50 Q 615 -63 624 -48 Q 639 -15 641 53 Q 641 65 640 211 L 640 250 L 641 288 Q 641 316 641 345 L 641 375 Q 641 403 642 431 Q 641 435 641 437 L 641 467 Z" fill="black" /></g></svg>