<?xml version='1.0' encoding='utf-8'?>
<svg xmlns="http://www.w3.org/2000/svg" version="1.1" viewBox="0 0 1024 1024"><g transform="scale(1, -1) translate(0, -900)"><path d="M 725 154 Q 783 28 872 -31 Q 900 -50 915 -50 Q 928 -51 935 -39 Q 942 -29 931 11 Q 922 66 926 162 Q 927 190 919 191 Q 912 192 904 167 Q 880 50 858 64 Q 813 86 756 194 L 734 242 Q 709 303 674 438 Q 673 442 672 444 L 667 487 Q 667 491 667 494 Q 674 518 668 529 Q 662 536 639 548 Q 617 558 604 559 Q 592 558 592 557 Q 571 550 591 529 Q 601 525 617 473 L 629 436 Q 630 435 631 430 Q 658 309 705 198 L 725 154 Z" fill="black" /></g></svg>