<?xml version='1.0' encoding='utf-8'?>
<svg xmlns="http://www.w3.org/2000/svg" version="1.1" viewBox="0 0 1024 1024"><g transform="scale(1, -1) translate(0, -900)"><path d="M 728 291 Q 738 330 747 353 L 768 398 Q 775 411 787 420 Q 802 436 789 452 Q 774 464 728 486 Q 712 493 694 485 Q 666 475 641 467 L 598 457 Q 594 457 591 456 Q 569 452 546 447 L 503 441 Q 478 440 454 437 Q 439 436 441 428 Q 442 421 458 415 Q 477 408 504 412 L 544 419 Q 571 425 599 429 L 641 437 Q 656 441 673 443 Q 694 447 702 438 Q 711 431 706 386 L 699 350 Q 692 323 686 298 C 679 269 720 262 728 291 Z" fill="black" /></g></svg>