<?xml version='1.0' encoding='utf-8'?>
<svg xmlns="http://www.w3.org/2000/svg" version="1.1" viewBox="0 0 1024 1024"><g transform="scale(1, -1) translate(0, -900)"><path d="M 747 353 Q 784 357 828 357 Q 847 357 864 358 Q 880 358 883 365 Q 887 375 874 385 Q 828 418 770 399 Q 769 399 768 398 L 706 386 Q 675 382 641 375 L 599 368 Q 569 364 541 358 L 505 352 Q 456 348 405 338 Q 389 337 401 322 Q 413 312 427 308 Q 443 304 456 308 Q 478 315 504 320 L 540 328 Q 568 335 599 338 L 641 345 Q 666 349 699 350 L 747 353 Z" fill="black" /></g></svg>