<?xml version='1.0' encoding='utf-8'?>
<svg xmlns="http://www.w3.org/2000/svg" version="1.1" viewBox="0 0 1024 1024"><g transform="scale(1, -1) translate(0, -900)"><path d="M 702 566 Q 702 565 703 563 Q 707 548 720 549 Q 733 550 740 564 Q 750 577 772 638 Q 788 687 823 713 Q 842 728 827 743 Q 811 759 764 785 Q 748 795 729 788 Q 699 781 664 776 Q 663 776 662 775 L 614 768 Q 580 764 548 755 L 503 746 Q 454 739 418 731 C 389 725 401 695 430 702 Q 502 720 507 721 L 548 729 Q 576 736 613 740 L 658 747 Q 713 759 731 748 Q 740 744 734 716 Q 716 617 703 593 C 696 576 696 576 702 566 Z" fill="black" /></g></svg>