<?xml version='1.0' encoding='utf-8'?>
<svg xmlns="http://www.w3.org/2000/svg" version="1.1" viewBox="0 0 1024 1024"><g transform="scale(1, -1) translate(0, -900)"><path d="M 701 321 Q 702 320 703 315 Q 707 300 720 301 Q 733 302 741 316 Q 750 323 770 370 Q 786 419 823 446 Q 842 461 827 476 Q 811 492 764 520 Q 749 529 684 516 Q 644 516 522 494 Q 470 485 433 480 C 403 476 421 438 449 448 Q 464 457 556 469 L 590 474 Q 708 495 730 480 Q 737 476 733 452 Q 721 395 702 340 C 698 328 698 328 701 321 Z" fill="black" /></g></svg>