<?xml version='1.0' encoding='utf-8'?>
<svg xmlns="http://www.w3.org/2000/svg" version="1.1" viewBox="0 0 1024 1024"><g transform="scale(1, -1) translate(0, -900)"><path d="M 350 502 Q 386 515 418 522 Q 428 523 430 521 Q 437 514 435 491 Q 434 430 422 401 Q 410 377 390 380 Q 378 381 367 385 Q 348 391 362 372 Q 387 344 397 321 Q 410 308 422 319 Q 465 349 481 477 Q 484 508 495 524 Q 504 534 499 542 Q 492 549 453 564 Q 437 568 424 558 Q 382 533 277 512 Q 265 511 263 504 Q 263 500 280 492 Q 295 486 320 492 L 350 502 Z" fill="black" /></g></svg>