<?xml version='1.0' encoding='utf-8'?>
<svg xmlns="http://www.w3.org/2000/svg" version="1.1" viewBox="0 0 1024 1024"><g transform="scale(1, -1) translate(0, -900)"><path d="M 603 245 Q 566 294 514 316 C 487 329 471 316 496 300 Q 497 299 501 297 Q 508 293 517 286 L 556 250 Q 563 243 570 231 L 590 179 Q 594 133 574 74 Q 564 47 555 43 Q 552 42 486 49 Q 473 55 472 48 Q 471 41 480 31 Q 520 -9 536 -37 Q 546 -53 560 -50 Q 576 -46 591 -24 Q 637 45 634 152 Q 633 155 629 183 L 615 229 L 603 245 Z" fill="black" /></g></svg>