<?xml version='1.0' encoding='utf-8'?>
<svg xmlns="http://www.w3.org/2000/svg" version="1.1" viewBox="0 0 1024 1024"><g transform="scale(1, -1) translate(0, -900)"><path d="M 642 251 Q 699 260 766 263 Q 785 262 792 251 Q 799 244 794 231 Q 791 89 780 68 Q 777 61 767 63 Q 740 70 711 77 Q 684 81 702 63 Q 763 9 787 -29 Q 797 -42 808 -33 Q 833 -9 843 82 Q 847 206 866 230 Q 879 249 874 257 Q 867 269 820 299 Q 804 312 788 306 Q 763 296 713 288 Q 575 272 505 258 L 472 251 Q 466 251 461 249 Q 412 239 376 232 C 347 226 367 187 396 195 Q 405 196 414 199 Q 438 209 474 218 L 508 227 Q 557 242 601 245 L 642 251 Z" fill="black" /></g></svg>