<?xml version='1.0' encoding='utf-8'?>
<svg xmlns="http://www.w3.org/2000/svg" version="1.1" viewBox="0 0 1024 1024"><g transform="scale(1, -1) translate(0, -900)"><path d="M 394 722 Q 387 728 375 733 Q 359 742 352 736 Q 346 730 353 719 Q 383 658 361 421 Q 360 391 343 363 Q 336 350 343 335 Q 350 319 357 312 Q 366 306 379 316 Q 436 364 613 377 Q 632 378 632 387 Q 631 397 608 412 Q 596 419 510 399 L 478 393 Q 448 389 415 379 Q 408 378 405 379 Q 401 380 401 390 Q 402 421 402 454 L 403 476 Q 404 519 405 566 L 406 589 Q 406 673 411 696 C 413 711 413 711 394 722 Z" fill="black" /></g></svg>