<?xml version='1.0' encoding='utf-8'?>
<svg xmlns="http://www.w3.org/2000/svg" version="1.1" viewBox="0 0 1024 1024"><g transform="scale(1, -1) translate(0, -900)"><path d="M 611 237 Q 615 264 622 296 L 628 333 Q 631 352 635 360 Q 641 366 636 374 Q 630 381 600 392 C 572 403 549 411 564 385 Q 577 372 575 326 Q 574 325 574 321 L 573 287 Q 570 257 565 231 L 554 196 Q 521 99 412 34 Q 403 30 394 23 Q 375 11 399 13 Q 438 10 507 53 Q 561 89 600 192 Q 600 195 601 197 L 611 237 Z" fill="black" /></g></svg>