<?xml version='1.0' encoding='utf-8'?>
<svg xmlns="http://www.w3.org/2000/svg" version="1.1" viewBox="0 0 1024 1024"><g transform="scale(1, -1) translate(0, -900)"><path d="M 420 314 Q 430 298 440 283 Q 453 261 461 264 Q 470 265 480 290 Q 490 315 488 351 Q 478 592 497 629 Q 506 645 499 654 Q 492 664 448 677 Q 427 684 412 675 Q 361 653 318 642 C 289 634 299 609 328 617 Q 332 618 339 620 Q 364 627 394 636 Q 421 645 430 636 Q 440 627 440 591 Q 444 440 438 357 Q 441 336 423 339 L 421 339 C 406 335 406 335 420 314 Z" fill="black" /></g></svg>