<?xml version='1.0' encoding='utf-8'?>
<svg xmlns="http://www.w3.org/2000/svg" version="1.1" viewBox="0 0 1024 1024"><g transform="scale(1, -1) translate(0, -900)"><path d="M 764 445 Q 764 444 765 441 Q 768 425 780 424 Q 793 424 832 466 Q 853 512 891 537 Q 910 550 897 566 Q 882 585 838 615 Q 823 628 754 612 Q 556 579 524 572 Q 448 556 397 548 C 367 543 382 507 411 513 Q 418 513 424 515 Q 458 527 509 538 L 527 542 Q 576 554 642 564 L 677 569 Q 783 593 810 578 Q 816 574 809 555 Q 782 486 773 473 Q 770 469 768 464 L 764 445 Z" fill="black" /></g></svg>