<?xml version='1.0' encoding='utf-8'?>
<svg xmlns="http://www.w3.org/2000/svg" version="1.1" viewBox="0 0 1024 1024"><g transform="scale(1, -1) translate(0, -900)"><path d="M 556 524 Q 556 473 576 454 Q 619 418 712 440 Q 712 441 715 441 Q 736 448 755 463 Q 768 473 759 490 Q 752 503 738 543 Q 737 553 732 557 Q 728 560 725 548 Q 698 488 674 480 Q 641 471 611 482 Q 601 486 597 493 Q 591 505 592 535 L 596 572 Q 597 579 599 587 Q 603 600 593 609 Q 583 619 565 625 Q 555 628 549 624 Q 543 621 548 608 Q 557 583 557 558 L 556 524 Z" fill="black" /></g></svg>