<?xml version='1.0' encoding='utf-8'?>
<svg xmlns="http://www.w3.org/2000/svg" version="1.1" viewBox="0 0 1024 1024"><g transform="scale(1, -1) translate(0, -900)"><path d="M 682 385 Q 682 381 684 375 Q 688 360 699 361 Q 712 362 720 374 Q 735 392 762 481 Q 780 524 813 549 Q 829 562 817 577 Q 802 593 760 618 Q 739 631 654 605 Q 630 599 615 597 Q 602 597 600 592 Q 597 588 611 580 Q 630 570 673 578 Q 718 590 729 586 Q 739 579 731 548 Q 725 529 721 512 L 714 487 Q 696 427 688 408 L 682 385 Z" fill="black" /></g></svg>