<?xml version='1.0' encoding='utf-8'?>
<svg xmlns="http://www.w3.org/2000/svg" version="1.1" viewBox="0 0 1024 1024"><g transform="scale(1, -1) translate(0, -900)"><path d="M 436 585 Q 414 575 372 555 Q 365 552 363 554 Q 360 555 360 562 Q 359 670 360 681 Q 360 684 360 686 C 360 698 360 698 352 702 Q 343 709 316 715 Q 304 716 300 713 Q 296 709 304 696 Q 335 656 320 574 Q 295 525 291 519 Q 290 518 288 515 Q 279 508 284 492 Q 290 473 300 463 Q 307 456 318 466 Q 349 503 443 572 C 467 590 463 598 436 585 Z" fill="black" /></g></svg>