<?xml version='1.0' encoding='utf-8'?>
<svg xmlns="http://www.w3.org/2000/svg" version="1.1" viewBox="0 0 1024 1024"><g transform="scale(1, -1) translate(0, -900)"><path d="M 467 262 Q 494 249 546 260 Q 637 275 706 290 Q 803 309 813 295 Q 826 259 802 133 Q 789 81 775 56 Q 765 38 753 35 Q 741 31 673 47 Q 663 50 663 44 Q 663 40 674 31 Q 711 -9 729 -38 Q 738 -56 749 -55 Q 782 -55 816 -3 Q 852 52 887 238 Q 890 259 905 272 Q 918 285 918 294 Q 917 301 897 316 Q 872 337 836 348 Q 815 357 749 335 Q 560 293 486 281 C 456 276 438 270 467 262 Z" fill="black" /></g></svg>