<?xml version='1.0' encoding='utf-8'?>
<svg xmlns="http://www.w3.org/2000/svg" version="1.1" viewBox="0 0 1024 1024"><g transform="scale(1, -1) translate(0, -900)"><path d="M 640 26 Q 650 1 673 -44 Q 680 -60 691 -60 Q 706 -57 715 -32 Q 733 4 750 145 Q 756 191 778 218 Q 794 236 783 249 Q 764 270 720 290 Q 702 300 672 289 Q 564 256 390 243 C 360 241 380 205 410 209 L 511 224 L 551 230 Q 672 251 686 236 Q 693 232 693 216 Q 694 138 681 61 Q 680 48 675 46 Q 674 45 666 46 C 641 29 639 28 640 26 Z" fill="black" /></g></svg>