<?xml version='1.0' encoding='utf-8'?>
<svg xmlns="http://www.w3.org/2000/svg" version="1.1" viewBox="0 0 1024 1024"><g transform="scale(1, -1) translate(0, -900)"><path d="M 700 369 Q 718 372 768 390 Q 775 391 779 388 Q 780 385 772 284 Q 739 -40 959 -33 Q 960 -33 964 -33 Q 977 -32 980 -24 Q 986 -15 976 8 Q 966 42 961 100 Q 960 110 955 116 Q 948 122 945 106 Q 935 51 927 34 Q 923 27 917 24 Q 910 21 904 22 Q 883 25 863 46 Q 809 94 808 209 Q 808 338 859 389 Q 869 396 860 404 Q 850 417 821 429 Q 796 439 784 433 Q 741 408 677 391 C 648 383 671 362 700 369 Z" fill="black" /></g></svg>