<?xml version='1.0' encoding='utf-8'?>
<svg xmlns="http://www.w3.org/2000/svg" version="1.1" viewBox="0 0 1024 1024"><g transform="scale(1, -1) translate(0, -900)"><path d="M 539 281 Q 543 320 561 341 Q 568 356 565 364 Q 556 374 528 392 Q 516 399 506 394 Q 499 390 504 380 Q 519 359 505 276 L 500 247 Q 487 199 483 193 Q 477 180 489 170 Q 516 154 536 132 L 557 112 Q 596 73 599 72 Q 605 72 608 78 Q 612 85 611 103 Q 608 124 578 141 L 552 156 Q 539 165 521 174 Q 508 181 510 194 Q 520 225 531 256 L 539 281 Z" fill="black" /></g></svg>