<?xml version='1.0' encoding='utf-8'?>
<svg xmlns="http://www.w3.org/2000/svg" version="1.1" viewBox="0 0 1024 1024"><g transform="scale(1, -1) translate(0, -900)"><path d="M 777 56 Q 755 57 734 60 Q 715 64 717 56 Q 768 19 797 -11 Q 810 -27 824 -32 Q 831 -35 839 -26 Q 872 16 872 82 Q 854 380 878 419 Q 890 437 879 446 Q 860 464 827 478 Q 812 485 767 463 Q 748 456 707 450 Q 694 450 701 441 Q 708 431 722 426 Q 741 422 786 437 Q 805 441 809 431 Q 813 419 815 399 Q 822 210 813 96 Q 812 68 802 57 Q 798 50 777 56 Z" fill="black" /></g></svg>