<?xml version='1.0' encoding='utf-8'?>
<svg xmlns="http://www.w3.org/2000/svg" version="1.1" viewBox="0 0 1024 1024"><g transform="scale(1, -1) translate(0, -900)"><path d="M 591 91 Q 573 92 555 96 Q 540 100 541 92 Q 581 61 605 35 Q 615 20 627 17 Q 634 14 640 21 Q 671 60 670 98 Q 658 365 681 404 Q 690 417 681 426 Q 666 441 639 453 Q 627 459 588 441 Q 573 435 539 431 Q 529 431 534 424 Q 540 415 551 411 Q 569 405 605 420 Q 620 423 623 415 Q 627 405 628 387 Q 629 222 620 123 Q 619 101 611 91 Q 607 87 591 91 Z" fill="black" /></g></svg>