<?xml version='1.0' encoding='utf-8'?>
<svg xmlns="http://www.w3.org/2000/svg" version="1.1" viewBox="0 0 1024 1024"><g transform="scale(1, -1) translate(0, -900)"><path d="M 549 545 Q 549 491 568 477 Q 613 447 694 472 Q 694 473 697 473 Q 716 480 734 493 Q 744 503 736 518 Q 729 528 714 560 Q 713 570 708 573 Q 704 574 702 564 Q 678 513 657 504 Q 624 494 599 502 Q 589 505 587 511 Q 581 523 580 555 L 582 589 Q 583 601 585 612 Q 588 624 579 630 Q 572 637 562 641 C 535 655 530 658 537 635 Q 537 634 539 628 Q 549 603 549 576 L 549 545 Z" fill="black" /></g></svg>