<?xml version='1.0' encoding='utf-8'?>
<svg xmlns="http://www.w3.org/2000/svg" version="1.1" viewBox="0 0 1024 1024"><g transform="scale(1, -1) translate(0, -900)"><path d="M 838 275 Q 839 265 847 253 Q 860 225 870 226 Q 883 227 898 259 Q 911 283 907 334 Q 889 493 917 541 Q 926 556 919 565 Q 894 587 850 606 Q 837 610 815 603 Q 778 588 719 575 L 686 569 Q 674 568 663 567 C 633 564 645 535 675 539 Q 679 539 686 540 Q 755 556 805 564 Q 823 568 828 558 Q 841 542 843 486 Q 847 338 842 301 L 838 275 Z" fill="black" /></g></svg>