<?xml version='1.0' encoding='utf-8'?>
<svg xmlns="http://www.w3.org/2000/svg" version="1.1" viewBox="0 0 1024 1024"><g transform="scale(1, -1) translate(0, -900)"><path d="M 309 399 Q 302 403 293 407 Q 280 413 272 409 Q 265 405 269 396 Q 305 348 270 176 Q 267 167 265 156 Q 250 104 207 22 Q 204 18 203 13 Q 202 6 209 8 Q 234 12 282 112 Q 282 115 284 118 Q 293 143 301 171 L 308 201 Q 308 205 309 206 Q 313 231 316 257 L 319 286 Q 320 299 321 311 Q 324 369 326 371 Q 327 375 328 379 C 330 388 330 388 309 399 Z" fill="black" /></g></svg>