<?xml version='1.0' encoding='utf-8'?>
<svg xmlns="http://www.w3.org/2000/svg" version="1.1" viewBox="0 0 1024 1024"><g transform="scale(1, -1) translate(0, -900)"><path d="M 439 356 Q 449 340 461 335 Q 470 329 481 345 Q 491 363 515 462 Q 521 487 539 506 Q 549 516 540 527 Q 528 540 494 560 Q 479 566 427 553 L 406 548 L 367 539 Q 354 538 342 534 Q 282 519 252 523 C 222 525 264 488 294 493 Q 298 493 304 494 Q 448 537 466 521 Q 476 511 474 499 Q 455 393 442 382 C 432 365 432 365 439 356 Z" fill="black" /></g></svg>