<?xml version='1.0' encoding='utf-8'?>
<svg xmlns="http://www.w3.org/2000/svg" version="1.1" viewBox="0 0 1024 1024"><g transform="scale(1, -1) translate(0, -900)"><path d="M 608 256 Q 607 319 609 416 L 609 449 Q 609 476 610 503 L 610 531 Q 610 535 611 538 Q 612 589 616 597 L 621 628 Q 622 632 623 635 Q 626 650 614 658 Q 586 676 574 678 Q 564 682 550 675 Q 543 668 548 659 Q 561 635 569 614 L 573 587 Q 576 578 573 524 L 573 496 Q 572 471 573 441 L 572 411 Q 569 338 567 247 L 566 215 Q 548 -13 575 -58 Q 579 -64 586 -61 Q 593 -58 597 -46 Q 618 8 608 223 L 608 256 Z" fill="black" /></g></svg>