<?xml version='1.0' encoding='utf-8'?>
<svg xmlns="http://www.w3.org/2000/svg" version="1.1" viewBox="0 0 1024 1024"><g transform="scale(1, -1) translate(0, -900)"><path d="M 388 289 Q 388 177 362 88 Q 355 58 375 -1 Q 381 -16 388 -19 Q 394 -25 400 -18 Q 407 -14 416 5 Q 425 27 424 54 Q 423 94 425 382 L 425 412 Q 425 464 427 524 L 427 554 Q 427 593 429 622 L 433 663 Q 437 705 447 738 Q 454 751 452 763 Q 446 772 397 801 Q 376 817 358 803 Q 354 799 359 785 Q 392 736 393 687 Q 393 669 393 650 L 394 612 Q 394 581 394 544 L 394 516 Q 393 461 391 402 L 388 289 Z" fill="black" /></g></svg>