<?xml version='1.0' encoding='utf-8'?>
<svg xmlns="http://www.w3.org/2000/svg" version="1.1" viewBox="0 0 1024 1024"><g transform="scale(1, -1) translate(0, -900)"><path d="M 779 466 Q 783 472 798 503 Q 808 528 831 545 Q 843 554 841 563 Q 840 570 793 599 Q 774 609 755 600 Q 718 584 659 563 Q 640 559 644 577 Q 653 623 661 657 L 666 678 Q 679 736 689 757 Q 702 781 675 797 Q 630 819 616 813 Q 603 809 614 792 Q 627 773 623 737 Q 619 682 610 626 Q 609 586 590 555 Q 580 539 600 520 Q 616 504 629 514 Q 654 535 717 550 Q 742 560 751 549 Q 757 540 737 484 Q 733 474 734 465 C 730 435 765 440 779 466 Z" fill="black" /></g></svg>