<?xml version='1.0' encoding='utf-8'?>
<svg xmlns="http://www.w3.org/2000/svg" version="1.1" viewBox="0 0 1024 1024"><g transform="scale(1, -1) translate(0, -900)"><path d="M 701 723 Q 756 739 804 745 Q 817 746 821 743 Q 825 736 825 719 Q 824 670 813 648 Q 798 621 775 625 Q 759 626 743 630 Q 724 634 739 617 Q 769 592 783 570 Q 793 557 805 566 Q 844 590 869 701 Q 875 729 886 742 Q 896 752 891 760 Q 884 770 844 788 Q 828 795 812 784 Q 796 774 732 760 Q 668 744 614 740 Q 601 739 598 732 Q 597 725 616 716 Q 635 704 651 710 Q 661 714 675 716 L 701 723 Z" fill="black" /></g></svg>