<?xml version='1.0' encoding='utf-8'?>
<svg xmlns="http://www.w3.org/2000/svg" version="1.1" viewBox="0 0 1024 1024"><g transform="scale(1, -1) translate(0, -900)"><path d="M 315 531 Q 306 538 291 545 Q 281 552 273 547 Q 266 543 274 531 Q 290 504 281 460 Q 269 403 246 381 Q 236 369 240 359 Q 246 349 255 342 Q 262 336 278 349 Q 297 376 331 381 Q 347 382 354 374 Q 363 362 359 331 Q 347 226 318 157 Q 308 127 297 117 Q 290 110 271 117 Q 250 126 233 132 Q 221 139 222 130 Q 222 120 232 107 Q 254 77 266 51 Q 279 29 300 40 Q 366 94 381 176 Q 411 350 416 357 Q 416 360 419 362 Q 428 377 419 385 Q 409 398 384 411 Q 365 420 353 414 Q 346 411 313 399 Q 309 398 307 399 Q 304 402 325 495 Q 326 499 327 504 C 331 521 331 521 315 531 Z" fill="black" /></g></svg>