<?xml version='1.0' encoding='utf-8'?>
<svg xmlns="http://www.w3.org/2000/svg" version="1.1" viewBox="0 0 1024 1024"><g transform="scale(1, -1) translate(0, -900)"><path d="M 633 277 Q 678 284 730 286 Q 749 286 758 276 Q 765 269 762 255 Q 766 81 755 57 Q 752 48 741 51 Q 714 54 686 59 Q 661 60 679 45 Q 740 -1 767 -35 Q 779 -48 790 -37 Q 805 -21 812 4 Q 821 31 817 176 Q 814 231 830 258 Q 843 277 837 284 Q 830 296 782 325 Q 766 338 751 331 Q 726 321 677 311 Q 506 289 442 272 Q 399 262 365 256 C 336 250 357 212 386 220 Q 393 221 403 224 Q 428 234 467 244 L 508 255 Q 527 264 588 270 L 633 277 Z" fill="black" /></g></svg>