<?xml version='1.0' encoding='utf-8'?>
<svg xmlns="http://www.w3.org/2000/svg" version="1.1" viewBox="0 0 1024 1024"><g transform="scale(1, -1) translate(0, -900)"><path d="M 847 547 Q 859 96 836 61 Q 832 57 767 64 Q 748 68 749 59 Q 801 19 831 -12 Q 844 -30 859 -34 Q 868 -37 876 -27 Q 913 21 909 73 Q 890 388 890 686 Q 890 722 901 739 Q 911 758 900 767 Q 879 783 844 797 Q 825 806 779 778 Q 740 763 682 753 C 653 747 673 720 702 726 Q 762 738 823 752 Q 824 752 828 749 Q 840 737 846 573 L 847 547 Z" fill="black" /></g></svg>