<?xml version='1.0' encoding='utf-8'?>
<svg xmlns="http://www.w3.org/2000/svg" version="1.1" viewBox="0 0 1024 1024"><g transform="scale(1, -1) translate(0, -900)"><path d="M 702 279 Q 705 269 715 268 Q 730 271 756 325 Q 769 364 798 385 Q 813 397 801 409 Q 788 422 751 443 Q 739 450 683 438 Q 673 438 626 428 L 596 422 Q 574 419 553 413 Q 492 400 453 399 Q 444 400 442 397 Q 438 393 445 381 Q 466 344 481 282 Q 484 263 496 252 Q 509 236 513 248 Q 513 251 514 254 L 513 273 Q 501 336 495 371 Q 535 384 596 395 L 625 400 Q 709 419 729 410 Q 735 406 730 388 Q 712 319 703 303 C 695 284 695 284 702 279 Z" fill="black" /></g></svg>