<?xml version='1.0' encoding='utf-8'?>
<svg xmlns="http://www.w3.org/2000/svg" version="1.1" viewBox="0 0 1024 1024"><g transform="scale(1, -1) translate(0, -900)"><path d="M 610 684 Q 763 708 796 703 Q 806 699 805 694 Q 805 691 776 640 Q 767 630 773 624 Q 779 620 795 628 Q 844 650 884 653 Q 915 657 916 664 Q 916 674 856 725 Q 837 744 756 729 Q 654 717 612 708 L 566 702 Q 524 698 478 689 Q 432 683 386 677 C 356 673 364 651 394 648 Q 409 642 459 655 Q 525 673 568 677 L 610 684 Z" fill="black" /></g></svg>