<?xml version='1.0' encoding='utf-8'?>
<svg xmlns="http://www.w3.org/2000/svg" version="1.1" viewBox="0 0 1024 1024"><g transform="scale(1, -1) translate(0, -900)"><path d="M 469 290 Q 460 300 450 307 Q 431 317 423 314 Q 416 310 420 298 Q 438 240 384 186 Q 374 173 380 162 Q 387 152 406 136 Q 416 129 432 138 Q 507 180 684 202 Q 702 205 710 197 Q 719 184 710 159 Q 668 33 638 21 Q 626 12 547 24 Q 531 28 531 21 Q 531 14 549 2 Q 580 -23 594 -46 Q 601 -71 623 -63 Q 674 -44 703 9 Q 775 171 782 175 Q 785 179 791 182 Q 806 195 799 206 Q 789 218 746 242 Q 724 255 696 250 Q 665 240 630 235 Q 545 219 468 196 Q 449 184 447 199 Q 462 242 473 260 C 482 279 482 279 469 290 Z" fill="black" /></g></svg>