<?xml version='1.0' encoding='utf-8'?>
<svg xmlns="http://www.w3.org/2000/svg" version="1.1" viewBox="0 0 1024 1024"><g transform="scale(1, -1) translate(0, -900)"><path d="M 511 382 Q 520 439 529 618 Q 530 669 548 728 Q 554 741 543 750 Q 521 769 479 785 Q 454 795 434 789 Q 410 779 430 759 Q 464 725 465 690 Q 469 500 448 374 Q 427 209 284 106 Q 244 81 186 49 Q 170 43 167 39 Q 160 32 179 29 Q 197 28 258 48 Q 301 61 365 101 Q 414 131 442 172 Q 484 232 504 341 L 511 382 Z" fill="black" /></g></svg>