<?xml version='1.0' encoding='utf-8'?>
<svg xmlns="http://www.w3.org/2000/svg" version="1.1" viewBox="0 0 1024 1024"><g transform="scale(1, -1) translate(0, -900)"><path d="M 343 747 Q 328 665 292 620 Q 283 610 283 601 Q 283 591 308 572 Q 338 551 379 508 Q 394 489 405 492 Q 420 493 425 512 Q 431 537 423 551 Q 414 572 335 594 Q 305 603 358 670 Q 359 674 362 676 Q 393 719 407 730 Q 417 734 419 743 Q 422 759 397 781 Q 378 800 358 804 Q 339 805 334 799 Q 331 795 337 786 Q 347 773 343 747 Z" fill="black" /></g></svg>