<?xml version='1.0' encoding='utf-8'?>
<svg xmlns="http://www.w3.org/2000/svg" version="1.1" viewBox="0 0 1024 1024"><g transform="scale(1, -1) translate(0, -900)"><path d="M 590 513 Q 609 479 628 469 Q 640 459 657 482 Q 673 507 710 644 Q 720 678 747 704 Q 762 717 749 732 Q 733 751 688 780 Q 670 790 601 774 Q 597 774 444 745 Q 392 735 350 728 C 320 723 331 684 360 690 Q 364 690 370 691 Q 454 715 603 737 Q 636 741 646 730 Q 659 714 656 699 Q 625 555 609 539 C 595 513 587 517 590 513 Z" fill="black" /></g></svg>