<?xml version='1.0' encoding='utf-8'?>
<svg xmlns="http://www.w3.org/2000/svg" version="1.1" viewBox="0 0 1024 1024"><g transform="scale(1, -1) translate(0, -900)"><path d="M 671 340 Q 679 469 692 622 Q 692 647 708 686 Q 718 714 715 721 Q 710 737 670 753 Q 633 768 617 764 Q 614 764 612 762 Q 600 754 608 741 Q 649 675 636 479 Q 627 349 612 287 Q 583 177 504 112 Q 503 110 502 110 Q 466 83 417 55 Q 406 47 406 43 Q 407 39 419 39 Q 438 35 474 49 Q 615 98 659 269 L 665 299 L 671 340 Z" fill="black" /></g></svg>