<?xml version='1.0' encoding='utf-8'?>
<svg xmlns="http://www.w3.org/2000/svg" version="1.1" viewBox="0 0 1024 1024"><g transform="scale(1, -1) translate(0, -900)"><path d="M 949 34 Q 980 47 965 78 Q 944 120 934 189 Q 931 208 926 212 Q 916 216 913 201 Q 886 102 870 88 Q 855 78 821 74 Q 776 71 746 85 Q 715 101 693 130 Q 654 193 694 339 Q 709 385 736 406 Q 763 428 732 441 Q 716 448 679 460 Q 658 469 609 436 Q 555 412 535 406 C 507 396 526 374 555 381 Q 633 399 636 397 Q 642 391 632 283 Q 617 99 714 39 Q 780 0 851 6 Q 900 10 949 34 Z" fill="black" /></g></svg>