<?xml version='1.0' encoding='utf-8'?>
<svg xmlns="http://www.w3.org/2000/svg" version="1.1" viewBox="0 0 1024 1024"><g transform="scale(1, -1) translate(0, -900)"><path d="M 653 391 Q 653 427 653 469 L 653 514 Q 653 551 653 594 L 653 646 Q 653 697 667 772 Q 670 791 655 801 Q 621 823 604 826 Q 591 830 574 821 Q 565 812 573 801 Q 600 741 602 730 Q 605 706 605 632 L 605 582 Q 605 543 604 500 L 604 459 Q 603 422 602 382 L 601 344 Q 592 -7 617 -45 Q 624 -52 631 -50 Q 646 -41 653 22 Q 663 127 658 230 Q 655 270 654 357 L 653 391 Z" fill="black" /></g></svg>