<?xml version='1.0' encoding='utf-8'?>
<svg xmlns="http://www.w3.org/2000/svg" version="1.1" viewBox="0 0 1024 1024"><g transform="scale(1, -1) translate(0, -900)"><path d="M 654 357 Q 820 399 842 378 Q 849 372 847 360 Q 826 243 815 228 Q 811 219 799 225 Q 768 237 736 251 Q 709 260 725 238 Q 785 171 806 126 Q 812 113 824 119 Q 852 140 876 217 Q 897 323 921 346 Q 937 367 930 375 Q 923 388 871 422 Q 852 437 836 430 Q 808 420 754 410 Q 697 401 653 391 L 602 382 Q 554 373 527 364 Q 479 351 444 344 Q 422 340 417 331 Q 416 324 434 314 Q 468 295 499 309 Q 535 325 601 344 L 654 357 Z" fill="black" /></g></svg>