<?xml version='1.0' encoding='utf-8'?>
<svg xmlns="http://www.w3.org/2000/svg" version="1.1" viewBox="0 0 1024 1024"><g transform="scale(1, -1) translate(0, -900)"><path d="M 582 318 Q 583 324 584 330 L 587 365 Q 591 440 597 511 L 600 550 Q 603 629 629 706 Q 636 721 626 732 Q 604 751 564 763 Q 539 770 529 763 Q 520 756 528 744 Q 550 707 552 659 Q 553 598 552 537 L 551 501 Q 547 429 540 358 L 536 323 Q 518 194 456 115 Q 416 72 341 27 Q 328 20 328 15 Q 329 11 341 11 Q 357 7 393 21 Q 519 60 562 207 Q 571 241 577 279 L 582 318 Z" fill="black" /></g></svg>