<?xml version='1.0' encoding='utf-8'?>
<svg xmlns="http://www.w3.org/2000/svg" version="1.1" viewBox="0 0 1024 1024"><g transform="scale(1, -1) translate(0, -900)"><path d="M 678 657 Q 624 656 530 643 Q 403 627 349 613 Q 339 612 345 618 Q 364 636 418 675 Q 500 736 516 742 Q 528 749 535 756 Q 542 769 524 792 Q 490 831 461 839 Q 445 843 436 837 Q 432 831 439 819 Q 446 794 428 761 Q 320 644 276 618 Q 231 600 238 555 Q 242 531 256 529 Q 262 530 280 538 Q 331 562 442 589 Q 589 631 701 631 L 703 631 C 733 631 708 658 678 657 Z" fill="black" /></g></svg>