<?xml version='1.0' encoding='utf-8'?>
<svg xmlns="http://www.w3.org/2000/svg" version="1.1" viewBox="0 0 1024 1024"><g transform="scale(1, -1) translate(0, -900)"><path d="M 958 105 Q 946 139 936 240 Q 936 256 929 262 Q 923 266 917 248 Q 883 142 861 110 Q 840 85 783 69 Q 651 35 539 72 Q 496 91 485 117 Q 458 171 471 280 L 473 307 Q 477 353 487 405 Q 487 408 487 410 C 490 428 490 428 472 437 Q 462 446 447 450 Q 435 454 428 449 Q 422 446 427 430 Q 439 394 436 361 Q 424 156 442 100 Q 446 69 477 43 Q 591 -39 824 8 Q 831 11 841 12 Q 896 28 950 65 Q 969 78 958 105 Z" fill="black" /></g></svg>