<?xml version='1.0' encoding='utf-8'?>
<svg xmlns="http://www.w3.org/2000/svg" version="1.1" viewBox="0 0 1024 1024"><g transform="scale(1, -1) translate(0, -900)"><path d="M 503 597 Q 502 598 505 598 Q 616 629 752 652 Q 776 658 788 645 Q 801 638 807 578 Q 823 376 816 147 Q 816 113 803 103 Q 787 93 710 110 Q 692 113 694 103 Q 695 96 709 89 Q 779 43 815 5 Q 837 -14 851 -12 Q 864 -8 875 22 Q 891 70 888 138 Q 867 445 867 559 Q 867 599 878 625 Q 891 647 880 659 Q 868 675 819 699 Q 798 709 728 688 Q 593 655 475 638 C 445 633 474 589 503 597 Z" fill="black" /></g></svg>