<?xml version='1.0' encoding='utf-8'?>
<svg xmlns="http://www.w3.org/2000/svg" version="1.1" viewBox="0 0 1024 1024"><g transform="scale(1, -1) translate(0, -900)"><path d="M 648 407 Q 667 413 799 423 Q 809 423 814 418 Q 821 414 824 376 Q 837 222 821 133 Q 814 96 783 99 Q 750 103 721 107 Q 706 113 706 105 Q 705 98 717 85 Q 789 25 807 -6 Q 817 -19 827 -17 Q 840 -16 852 10 Q 885 70 892 255 Q 892 384 906 411 Q 922 433 909 438 Q 893 454 854 470 Q 833 482 776 466 Q 683 454 653 447 L 600 437 Q 572 433 550 427 Q 501 417 457 407 C 428 400 436 363 465 371 Q 472 372 480 375 Q 525 390 595 398 L 648 407 Z" fill="black" /></g></svg>