<?xml version='1.0' encoding='utf-8'?>
<svg xmlns="http://www.w3.org/2000/svg" version="1.1" viewBox="0 0 1024 1024"><g transform="scale(1, -1) translate(0, -900)"><path d="M 283 255 Q 287 251 295 246 Q 307 240 348 248 Q 447 281 775 303 Q 787 304 793 296 Q 799 292 797 261 Q 794 132 773 60 Q 760 17 722 26 Q 688 30 658 35 Q 642 41 641 33 Q 641 26 653 12 Q 722 -51 739 -82 Q 746 -97 755 -95 Q 767 -95 781 -74 Q 805 -44 817 -6 Q 836 45 868 229 Q 874 262 887 279 Q 908 301 892 308 Q 876 327 835 348 Q 810 366 781 355 Q 753 348 684 339 L 621 333 Q 516 323 442 306 Q 367 290 294 279 C 264 274 255 266 283 255 Z" fill="black" /></g></svg>