<?xml version='1.0' encoding='utf-8'?>
<svg xmlns="http://www.w3.org/2000/svg" version="1.1" viewBox="0 0 1024 1024"><g transform="scale(1, -1) translate(0, -900)"><path d="M 631 364 Q 632 207 626 113 Q 625 94 614 86 Q 607 80 527 98 Q 509 107 511 94 Q 512 88 522 81 Q 595 21 623 -15 Q 636 -31 652 -18 Q 680 12 682 97 Q 679 157 679 370 L 679 416 Q 679 470 690 497 Q 697 515 682 528 Q 657 547 629 557 Q 611 564 604 556 Q 598 550 608 535 Q 630 499 629 458 Q 629 433 630 409 L 631 364 Z" fill="black" /></g></svg>