<?xml version='1.0' encoding='utf-8'?>
<svg xmlns="http://www.w3.org/2000/svg" version="1.1" viewBox="0 0 1024 1024"><g transform="scale(1, -1) translate(0, -900)"><path d="M 651 348 Q 652 84 634 55 Q 628 49 609 54 Q 578 61 546 71 Q 527 77 529 67 Q 590 19 625 -18 Q 638 -36 653 -41 Q 660 -45 669 -35 Q 706 8 707 78 Q 701 189 701 354 L 701 398 Q 701 450 715 473 Q 727 492 716 501 Q 695 520 661 534 Q 645 541 629 534 Q 592 515 569 508 L 525 498 Q 497 495 459 491 Q 444 490 453 482 Q 460 472 474 466 Q 490 462 512 467 L 559 477 Q 587 484 619 491 Q 638 495 643 486 Q 646 477 651 390 L 651 348 Z" fill="black" /></g></svg>