<?xml version='1.0' encoding='utf-8'?>
<svg xmlns="http://www.w3.org/2000/svg" version="1.1" viewBox="0 0 1024 1024"><g transform="scale(1, -1) translate(0, -900)"><path d="M 515 589 Q 500 604 478 611 Q 465 615 457 608 Q 453 602 462 587 Q 478 562 476 526 Q 477 426 444 375 Q 434 362 438 352 Q 445 334 461 319 Q 471 309 487 322 Q 535 352 631 364 L 679 370 Q 740 376 816 371 Q 838 367 846 373 Q 853 379 847 390 Q 843 402 806 423 Q 790 432 709 420 Q 705 423 679 416 L 630 409 Q 575 402 523 388 Q 513 384 510 388 Q 501 395 506 413 Q 518 525 530 557 Q 534 569 527 577 L 515 589 Z" fill="black" /></g></svg>