<?xml version='1.0' encoding='utf-8'?>
<svg xmlns="http://www.w3.org/2000/svg" version="1.1" viewBox="0 0 1024 1024"><g transform="scale(1, -1) translate(0, -900)"><path d="M 366 260 Q 439 305 659 322 Q 783 334 803 316 Q 816 304 802 259 Q 795 201 784 139 Q 777 91 755 60 Q 746 50 670 64 Q 646 73 647 63 Q 646 57 656 48 Q 708 -6 724 -42 Q 734 -64 754 -53 Q 820 -20 831 47 Q 849 134 862 230 Q 869 270 890 303 Q 903 321 891 334 Q 872 356 833 378 Q 811 391 780 377 Q 716 353 657 349 Q 573 343 403 317 Q 375 313 374 337 C 353 359 339 247 366 260 Z" fill="black" /></g></svg>