<?xml version='1.0' encoding='utf-8'?>
<svg xmlns="http://www.w3.org/2000/svg" version="1.1" viewBox="0 0 1024 1024"><g transform="scale(1, -1) translate(0, -900)"><path d="M 559 559 Q 604 351 669 212 L 690 168 Q 751 44 858 -37 Q 924 -82 956 -81 Q 974 -74 968 -54 Q 962 -20 960 24 L 958 122 Q 956 170 947 171 Q 946 171 906 75 Q 890 35 870 42 Q 798 79 725 206 Q 723 207 721 210 L 696 263 Q 645 374 606 568 L 598 615 Q 585 715 588 766 Q 590 797 590 795 Q 591 817 572 831 Q 561 840 543 847 Q 508 859 488 857 L 476 853 Q 455 845 466 823 Q 521 780 523 744 L 549 604 L 559 559 Z" fill="black" /></g></svg>