<?xml version='1.0' encoding='utf-8'?>
<svg xmlns="http://www.w3.org/2000/svg" version="1.1" viewBox="0 0 1024 1024"><g transform="scale(1, -1) translate(0, -900)"><path d="M 655 475 Q 701 536 749 609 Q 768 640 802 671 Q 818 684 811 693 Q 810 703 743 724 Q 728 733 684 708 Q 636 690 563 670 C 534 662 517 651 546 645 Q 576 632 643 654 Q 683 666 692 658 Q 696 651 684 628 Q 656 567 612 504 L 592 475 Q 514 376 398 271 Q 383 258 399 257 Q 441 263 546 355 Q 594 404 627 441 L 655 475 Z" fill="black" /></g></svg>