<?xml version='1.0' encoding='utf-8'?>
<svg xmlns="http://www.w3.org/2000/svg" version="1.1" viewBox="0 0 1024 1024"><g transform="scale(1, -1) translate(0, -900)"><path d="M 342 443 Q 341 395 340 337 Q 339 321 330 316 Q 324 313 260 321 Q 232 330 235 321 Q 236 315 254 304 Q 311 264 325 241 Q 343 213 356 213 Q 368 212 380 241 Q 395 278 392 340 Q 388 407 387 472 L 387 496 Q 386 539 388 581 L 389 632 Q 389 689 407 753 Q 422 778 376 797 Q 348 813 332 808 Q 317 802 330 783 Q 348 761 348 732 Q 349 720 347 615 L 346 568 Q 345 528 343 476 L 342 443 Z" fill="black" /></g></svg>