<?xml version='1.0' encoding='utf-8'?>
<svg xmlns="http://www.w3.org/2000/svg" version="1.1" viewBox="0 0 1024 1024"><g transform="scale(1, -1) translate(0, -900)"><path d="M 676 493 Q 784 385 872 379 Q 894 383 886 411 Q 876 436 868 549 Q 867 559 862 561 Q 858 561 855 550 Q 845 525 836 499 Q 824 465 813 466 Q 780 465 715 520 L 683 551 Q 652 584 627 622 L 603 660 Q 570 730 575 777 Q 576 795 540 809 Q 503 822 494 817 Q 484 810 491 796 Q 515 777 528 737 Q 547 685 569 642 L 590 604 Q 591 603 593 600 Q 618 560 650 523 L 676 493 Z" fill="black" /></g></svg>