<?xml version='1.0' encoding='utf-8'?>
<svg xmlns="http://www.w3.org/2000/svg" version="1.1" viewBox="0 0 1024 1024"><g transform="scale(1, -1) translate(0, -900)"><path d="M 584 382 Q 600 401 620 421 Q 651 457 680 491 L 716 537 Q 750 583 778 623 Q 817 684 841 711 Q 851 723 843 740 Q 813 800 777 803 Q 759 804 763 782 Q 769 748 752 701 Q 749 700 749 695 Q 704 595 645 522 L 610 479 Q 582 449 551 413 Q 454 310 329 210 Q 322 206 320 198 Q 319 191 326 192 Q 356 192 467 276 Q 521 322 544 344 L 584 382 Z" fill="black" /></g></svg>