<?xml version='1.0' encoding='utf-8'?>
<svg xmlns="http://www.w3.org/2000/svg" version="1.1" viewBox="0 0 1024 1024"><g transform="scale(1, -1) translate(0, -900)"><path d="M 753 247 Q 746 222 761 199 Q 776 168 786 170 Q 801 171 817 207 Q 833 235 831 256 Q 818 341 818 474 Q 817 513 837 546 Q 849 562 840 573 Q 810 598 760 619 Q 744 625 719 615 Q 664 590 572 570 L 555 567 Q 542 566 533 565 C 503 562 520 527 549 535 Q 552 538 642 555 Q 721 576 739 564 Q 749 540 756 477 Q 763 284 753 247 Z" fill="black" /></g></svg>