<?xml version='1.0' encoding='utf-8'?>
<svg xmlns="http://www.w3.org/2000/svg" version="1.1" viewBox="0 0 1024 1024"><g transform="scale(1, -1) translate(0, -900)"><path d="M 769 622 Q 754 541 717 495 Q 708 485 708 477 Q 707 467 730 450 Q 760 426 801 378 Q 814 359 825 362 Q 838 363 845 380 Q 852 402 845 418 Q 836 440 757 468 Q 729 481 777 540 Q 780 546 785 551 Q 816 594 829 605 Q 839 609 841 616 Q 844 632 821 653 Q 802 672 784 676 Q 766 677 761 671 Q 758 667 764 658 Q 774 645 769 622 Z" fill="black" /></g></svg>