<?xml version='1.0' encoding='utf-8'?>
<svg xmlns="http://www.w3.org/2000/svg" version="1.1" viewBox="0 0 1024 1024"><g transform="scale(1, -1) translate(0, -900)"><path d="M 604 149 Q 535 68 384 27 Q 371 23 382 15 Q 388 11 432 13 Q 544 22 634 114 L 661 150 Q 695 202 728 277 Q 741 304 760 320 Q 779 333 767 347 Q 755 359 727 371 Q 705 378 679 367 Q 657 358 629 350 Q 604 344 566 337 C 537 331 520 321 549 314 Q 582 302 627 314 Q 655 327 661 328 Q 682 325 675 303 Q 657 233 626 181 L 604 149 Z" fill="black" /></g></svg>