<?xml version='1.0' encoding='utf-8'?>
<svg xmlns="http://www.w3.org/2000/svg" version="1.1" viewBox="0 0 1024 1024"><g transform="scale(1, -1) translate(0, -900)"><path d="M 586 215 Q 561 219 537 223 Q 527 224 527 219 Q 528 213 537 206 Q 594 157 613 126 Q 626 113 639 124 Q 670 157 666 247 Q 662 340 664 363 L 675 406 Q 678 419 667 428 Q 645 447 620 456 Q 605 462 598 456 Q 592 450 602 437 Q 612 418 616 395 L 618 356 Q 619 283 618 242 Q 617 223 606 217 Q 599 211 586 215 Z" fill="black" /></g></svg>