<?xml version='1.0' encoding='utf-8'?>
<svg xmlns="http://www.w3.org/2000/svg" version="1.1" viewBox="0 0 1024 1024"><g transform="scale(1, -1) translate(0, -900)"><path d="M 622 727 Q 604 727 609 716 Q 616 703 641 693 Q 660 681 710 705 Q 785 742 800 687 Q 804 669 808 636 Q 827 404 816 138 Q 815 99 801 89 Q 786 79 713 94 Q 697 97 698 87 Q 699 80 712 74 Q 778 31 813 -5 Q 834 -24 847 -21 Q 859 -18 870 11 Q 885 56 882 122 Q 860 494 862 632 Q 861 672 872 695 Q 884 717 873 729 Q 863 744 813 767 Q 794 777 774 771 Q 755 762 713 749 Q 670 736 622 727 Z" fill="black" /></g></svg>