<?xml version='1.0' encoding='utf-8'?>
<svg xmlns="http://www.w3.org/2000/svg" version="1.1" viewBox="0 0 1024 1024"><g transform="scale(1, -1) translate(0, -900)"><path d="M 327 268 Q 221 262 110 250 Q 88 249 103 231 Q 118 216 136 210 Q 158 203 174 207 Q 489 285 940 263 Q 941 264 944 263 Q 965 262 970 271 Q 976 283 959 298 Q 904 341 838 328 Q 778 319 704 307 L 663 302 Q 623 299 582 293 L 544 288 Q 535 289 527 287 Q 500 286 473 281 L 438 278 Q 401 277 363 271 L 327 268 Z" fill="black" /></g></svg>