<?xml version='1.0' encoding='utf-8'?>
<svg xmlns="http://www.w3.org/2000/svg" version="1.1" viewBox="0 0 1024 1024"><g transform="scale(1, -1) translate(0, -900)"><path d="M 738 81 Q 756 54 775 6 Q 787 -16 805 -3 Q 841 19 866 158 Q 893 323 917 355 Q 933 379 913 394 Q 847 460 800 439 Q 787 438 764 432 Q 716 423 662 420 Q 652 420 651 408 Q 651 398 668 388 Q 696 373 744 384 Q 808 402 825 393 Q 834 387 833 364 Q 829 324 823 283 L 817 243 Q 807 180 791 115 Q 787 100 760 107 C 730 109 723 107 738 81 Z" fill="black" /></g></svg>