<?xml version='1.0' encoding='utf-8'?>
<svg xmlns="http://www.w3.org/2000/svg" version="1.1" viewBox="0 0 1024 1024"><g transform="scale(1, -1) translate(0, -900)"><path d="M 717 370 Q 733 348 749 341 Q 759 334 774 355 Q 787 379 811 504 Q 818 534 841 558 Q 853 571 842 584 Q 826 600 785 624 Q 770 631 701 615 Q 688 615 637 603 L 597 595 Q 587 594 580 592 Q 537 582 504 576 C 475 570 486 534 514 544 Q 541 557 711 583 Q 739 587 747 578 Q 760 565 758 550 Q 742 432 733 413 Q 729 401 716 398 C 702 389 702 389 717 370 Z" fill="black" /></g></svg>