<?xml version='1.0' encoding='utf-8'?>
<svg xmlns="http://www.w3.org/2000/svg" version="1.1" viewBox="0 0 1024 1024"><g transform="scale(1, -1) translate(0, -900)"><path d="M 432 295 Q 433 349 434 393 L 435 426 Q 436 480 437 519 L 438 550 Q 439 638 442 650 Q 443 659 443 665 C 445 682 445 682 435 691 Q 420 710 391 719 Q 381 725 367 720 Q 360 714 365 701 Q 392 601 393 596 Q 393 256 378 171 Q 357 72 362 53 Q 362 35 388 2 Q 400 -13 411 1 Q 430 26 431 237 Q 431 252 432 264 L 432 295 Z" fill="black" /></g></svg>