<?xml version='1.0' encoding='utf-8'?>
<svg xmlns="http://www.w3.org/2000/svg" version="1.1" viewBox="0 0 1024 1024"><g transform="scale(1, -1) translate(0, -900)"><path d="M 734 227 Q 768 279 789 362 Q 795 395 812 412 Q 825 427 808 440 Q 787 455 756 465 Q 735 471 715 459 Q 687 437 643 424 Q 618 420 608 412 Q 601 405 618 398 Q 646 386 711 415 Q 730 422 732 401 Q 732 332 697 265 L 677 230 Q 635 172 516 130 Q 501 126 511 118 Q 518 114 545 118 Q 617 128 659 150 Q 684 165 706 189 L 734 227 Z" fill="black" /></g></svg>