<?xml version='1.0' encoding='utf-8'?>
<svg xmlns="http://www.w3.org/2000/svg" version="1.1" viewBox="0 0 1024 1024"><g transform="scale(1, -1) translate(0, -900)"><path d="M 335 504 Q 347 505 361 510 Q 428 525 438 520 Q 448 514 446 493 Q 455 363 446 263 Q 445 242 432 239 Q 423 236 376 248 Q 366 252 366 245 Q 367 238 380 229 Q 410 201 432 173 Q 444 158 458 159 Q 471 162 488 198 Q 509 235 506 274 Q 502 367 497 452 Q 496 485 509 512 Q 519 525 507 537 Q 492 550 459 561 Q 444 568 403 550 Q 366 538 328 526 C 299 517 306 498 335 504 Z" fill="black" /></g></svg>