<?xml version='1.0' encoding='utf-8'?>
<svg xmlns="http://www.w3.org/2000/svg" version="1.1" viewBox="0 0 1024 1024"><g transform="scale(1, -1) translate(0, -900)"><path d="M 757 379 Q 757 378 758 376 Q 762 360 776 361 Q 789 362 798 376 Q 811 391 837 467 Q 855 519 893 549 Q 912 565 896 581 Q 878 599 828 626 Q 813 636 743 619 Q 710 616 638 601 L 597 593 Q 569 589 545 582 Q 484 569 441 562 C 411 557 436 517 464 527 Q 513 545 598 560 L 638 567 Q 773 595 797 583 Q 807 576 800 546 Q 773 435 760 409 C 751 388 751 388 757 379 Z" fill="black" /></g></svg>