<?xml version='1.0' encoding='utf-8'?>
<svg xmlns="http://www.w3.org/2000/svg" version="1.1" viewBox="0 0 1024 1024"><g transform="scale(1, -1) translate(0, -900)"><path d="M 821 324 Q 830 364 838 402 Q 848 457 883 495 Q 901 517 875 532 Q 851 548 827 561 Q 817 568 741 546 Q 696 540 629 524 L 603 519 Q 578 515 552 508 Q 503 498 465 491 C 436 485 457 449 485 460 Q 491 466 576 485 Q 588 488 648 498 L 678 503 Q 721 510 781 518 Q 794 519 800 513 Q 812 495 794 407 L 788 378 Q 781 350 771 315 C 763 286 814 295 821 324 Z" fill="black" /></g></svg>