<?xml version='1.0' encoding='utf-8'?>
<svg xmlns="http://www.w3.org/2000/svg" version="1.1" viewBox="0 0 1024 1024"><g transform="scale(1, -1) translate(0, -900)"><path d="M 764 235 Q 765 225 773 215 Q 788 184 798 186 Q 813 187 829 223 Q 845 251 843 272 Q 830 357 830 490 Q 829 529 849 562 Q 861 578 852 589 Q 822 614 772 635 Q 756 641 731 631 Q 718 625 593 591 L 566 586 Q 545 585 529 581 C 499 576 521 546 551 551 Q 557 551 563 552 Q 654 576 720 587 Q 742 593 751 580 Q 767 561 768 493 Q 775 300 765 263 Q 764 263 764 262 L 764 235 Z" fill="black" /></g></svg>