<?xml version='1.0' encoding='utf-8'?>
<svg xmlns="http://www.w3.org/2000/svg" version="1.1" viewBox="0 0 1024 1024"><g transform="scale(1, -1) translate(0, -900)"><path d="M 632 735 Q 692 751 743 758 Q 762 761 765 755 Q 772 745 768 719 Q 762 647 745 616 Q 727 585 701 591 Q 679 597 659 605 Q 635 612 651 589 Q 690 549 707 518 Q 720 500 736 513 Q 791 546 824 697 Q 831 734 847 752 Q 859 765 853 774 Q 844 784 796 807 Q 777 816 759 803 Q 738 790 657 772 Q 575 751 506 747 Q 490 746 488 738 Q 487 731 508 720 Q 530 707 548 713 Q 572 720 597 726 L 632 735 Z" fill="black" /></g></svg>