<?xml version='1.0' encoding='utf-8'?>
<svg xmlns="http://www.w3.org/2000/svg" version="1.1" viewBox="0 0 1024 1024"><g transform="scale(1, -1) translate(0, -900)"><path d="M 681 327 Q 724 334 768 338 Q 784 339 787 331 Q 791 318 785 285 Q 761 162 730 100 Q 714 60 698 49 Q 682 33 650 43 Q 631 44 612 46 Q 588 50 606 30 Q 637 -10 654 -40 Q 660 -56 676 -53 Q 692 -54 716 -35 Q 780 13 837 236 Q 850 285 873 312 Q 892 331 884 342 Q 871 361 838 380 Q 816 396 788 386 Q 647 335 492 338 Q 489 339 488 338 C 461 338 461 338 476 324 Q 482 312 503 301 L 549 300 Q 598 313 647 321 L 681 327 Z" fill="black" /></g></svg>