<?xml version='1.0' encoding='utf-8'?>
<svg xmlns="http://www.w3.org/2000/svg" version="1.1" viewBox="0 0 1024 1024"><g transform="scale(1, -1) translate(0, -900)"><path d="M 469 439 Q 515 485 551 521 L 589 559 Q 704 683 727 694 Q 743 701 742 710 Q 741 717 730 724 Q 699 743 671 748 Q 655 751 648 735 Q 630 672 518 549 L 487 514 Q 453 480 411 438 L 381 409 Q 234 271 99 177 Q 92 173 93 169 Q 94 166 102 167 Q 175 191 212 217 Q 297 278 384 357 L 428 398 Q 432 404 437 408 L 469 439 Z" fill="black" /></g></svg>