<?xml version='1.0' encoding='utf-8'?>
<svg xmlns="http://www.w3.org/2000/svg" version="1.1" viewBox="0 0 1024 1024"><g transform="scale(1, -1) translate(0, -900)"><path d="M 529 581 Q 522 587 507 593 Q 498 597 488 593 Q 481 589 486 577 Q 487 570 491 562 Q 515 517 500 336 Q 488 237 488 235 Q 497 208 511 193 Q 520 181 530 192 Q 536 201 539 211 L 543 243 Q 543 255 544 343 L 544 370 Q 545 416 546 447 L 547 476 Q 548 530 550 536 Q 551 545 551 551 C 552 566 552 566 529 581 Z" fill="black" /></g></svg>