<?xml version='1.0' encoding='utf-8'?>
<svg xmlns="http://www.w3.org/2000/svg" version="1.1" viewBox="0 0 1024 1024"><g transform="scale(1, -1) translate(0, -900)"><path d="M 342 315 Q 354 296 366 277 Q 382 253 389 256 Q 399 257 411 285 Q 424 315 421 354 Q 406 627 432 670 Q 442 688 434 698 Q 427 708 378 724 Q 354 733 338 723 Q 289 701 247 689 C 218 680 226 655 255 662 Q 259 663 264 664 Q 289 670 320 679 Q 348 688 357 678 Q 369 668 368 627 Q 372 455 364 360 Q 365 347 359 341 C 351 312 336 325 342 315 Z" fill="black" /></g></svg>