<?xml version='1.0' encoding='utf-8'?>
<svg xmlns="http://www.w3.org/2000/svg" version="1.1" viewBox="0 0 1024 1024"><g transform="scale(1, -1) translate(0, -900)"><path d="M 434 338 Q 471 263 453 127 Q 452 123 451 116 Q 447 86 434 70 Q 421 49 429 27 Q 441 -6 458 -17 Q 468 -24 481 -6 Q 512 36 620 139 Q 638 155 639 162 Q 640 175 619 163 Q 579 139 531 112 Q 512 100 504 104 Q 497 108 497 127 Q 501 260 509 293 Q 513 312 501 324 Q 485 342 470 347 C 443 361 422 365 434 338 Z" fill="black" /></g></svg>