<?xml version='1.0' encoding='utf-8'?>
<svg xmlns="http://www.w3.org/2000/svg" version="1.1" viewBox="0 0 1024 1024"><g transform="scale(1, -1) translate(0, -900)"><path d="M 361 345 Q 371 329 383 311 Q 398 289 405 292 Q 415 293 427 323 Q 433 339 434 419 Q 419 689 438 724 Q 448 740 440 751 Q 433 761 387 774 Q 365 781 349 772 Q 291 745 243 735 C 214 728 227 703 256 711 Q 257 712 261 713 Q 291 720 326 731 Q 357 741 368 731 Q 380 719 380 675 Q 386 491 379 390 Q 380 378 376 373 C 371 343 353 358 361 345 Z" fill="black" /></g></svg>