<?xml version='1.0' encoding='utf-8'?>
<svg xmlns="http://www.w3.org/2000/svg" version="1.1" viewBox="0 0 1024 1024"><g transform="scale(1, -1) translate(0, -900)"><path d="M 484 347 Q 500 410 511 472 L 516 506 Q 522 560 534 598 Q 534 599 535 600 C 542 622 542 622 528 633 Q 515 646 492 656 Q 474 666 462 663 Q 450 656 456 643 Q 474 610 467 539 Q 466 535 466 530 Q 451 371 406 256 Q 363 154 287 49 Q 283 43 280 37 Q 277 27 288 29 Q 321 35 394 140 Q 410 165 426 194 Q 448 239 466 289 L 484 347 Z" fill="black" /></g></svg>