<?xml version='1.0' encoding='utf-8'?>
<svg xmlns="http://www.w3.org/2000/svg" version="1.1" viewBox="0 0 1024 1024"><g transform="scale(1, -1) translate(0, -900)"><path d="M 610 721 Q 594 734 579 741 Q 563 747 554 741 Q 545 735 553 722 Q 601 629 579 346 Q 578 303 543 257 Q 533 244 540 223 Q 550 199 562 190 Q 574 183 584 198 Q 594 220 692 311 Q 708 323 712 331 Q 716 340 707 339 Q 700 339 633 307 Q 623 300 620 311 Q 624 402 625 482 L 625 505 Q 624 551 623 591 L 621 620 Q 618 686 627 695 C 630 706 630 706 610 721 Z" fill="black" /></g></svg>