<?xml version='1.0' encoding='utf-8'?>
<svg xmlns="http://www.w3.org/2000/svg" version="1.1" viewBox="0 0 1024 1024"><g transform="scale(1, -1) translate(0, -900)"><path d="M 763 55 Q 738 59 711 64 Q 692 68 693 59 Q 750 17 783 -16 Q 796 -34 811 -38 Q 820 -41 828 -31 Q 861 14 861 83 Q 831 383 858 431 Q 871 450 859 460 Q 838 478 803 493 Q 787 500 771 493 Q 743 480 726 474 Q 701 467 648 463 Q 633 463 641 454 Q 648 444 662 437 Q 677 434 759 450 Q 780 453 784 441 Q 788 428 791 408 Q 803 215 797 96 Q 796 68 788 57 Q 784 50 763 55 Z" fill="black" /></g></svg>