<?xml version='1.0' encoding='utf-8'?>
<svg xmlns="http://www.w3.org/2000/svg" version="1.1" viewBox="0 0 1024 1024"><g transform="scale(1, -1) translate(0, -900)"><path d="M 471 423 Q 484 478 494 533 L 498 558 Q 502 583 507 605 Q 511 641 519 648 C 526 665 526 665 510 677 Q 497 690 476 700 Q 458 712 446 708 Q 434 701 440 688 Q 455 661 451 598 Q 448 583 447 567 Q 426 396 374 273 Q 331 177 240 53 Q 236 47 233 41 Q 229 31 240 33 Q 258 33 296 79 Q 401 181 465 401 Q 465 404 467 407 L 471 423 Z" fill="black" /></g></svg>