<?xml version='1.0' encoding='utf-8'?>
<svg xmlns="http://www.w3.org/2000/svg" version="1.1" viewBox="0 0 1024 1024"><g transform="scale(1, -1) translate(0, -900)"><path d="M 611 684 Q 614 727 623 778 Q 627 794 616 803 Q 604 815 583 822 Q 571 826 564 821 Q 558 818 563 802 Q 575 766 573 733 Q 564 574 595 544 Q 611 532 643 523 Q 763 498 854 558 Q 867 573 856 592 Q 846 607 824 654 Q 823 667 816 670 Q 812 671 810 658 Q 794 603 783 585 Q 774 575 749 568 Q 695 553 644 570 Q 625 577 620 589 Q 610 610 610 667 L 611 684 Z" fill="black" /></g></svg>