<?xml version='1.0' encoding='utf-8'?>
<svg xmlns="http://www.w3.org/2000/svg" version="1.1" viewBox="0 0 1024 1024"><g transform="scale(1, -1) translate(0, -900)"><path d="M 689 55 Q 717 18 738 -16 Q 745 -32 757 -32 Q 772 -31 787 0 Q 805 36 796 136 Q 784 274 803 299 Q 812 311 803 321 Q 785 339 737 361 Q 719 368 705 360 Q 665 341 603 325 Q 581 321 567 316 L 535 310 Q 531 309 529 308 C 500 301 508 273 538 278 Q 565 281 693 313 Q 714 317 725 310 Q 749 280 733 83 Q 732 80 730 77 C 724 48 671 79 689 55 Z" fill="black" /></g></svg>