<?xml version='1.0' encoding='utf-8'?>
<svg xmlns="http://www.w3.org/2000/svg" version="1.1" viewBox="0 0 1024 1024"><g transform="scale(1, -1) translate(0, -900)"><path d="M 733 324 Q 755 296 774 289 Q 784 282 797 305 Q 815 350 830 578 Q 836 608 856 633 Q 866 646 855 659 Q 839 674 797 695 Q 782 701 715 682 Q 672 679 535 637 L 507 631 Q 497 630 491 628 C 462 622 471 586 499 597 Q 505 604 588 622 L 613 629 Q 740 662 760 648 Q 785 633 782 600 Q 764 363 744 347 C 733 324 733 324 733 324 Z" fill="black" /></g></svg>