<?xml version='1.0' encoding='utf-8'?>
<svg xmlns="http://www.w3.org/2000/svg" version="1.1" viewBox="0 0 1024 1024"><g transform="scale(1, -1) translate(0, -900)"><path d="M 699 664 Q 744 677 782 683 Q 795 684 799 680 Q 806 670 804 641 Q 803 562 785 525 Q 770 497 746 500 Q 730 504 715 508 Q 691 517 707 493 Q 740 454 753 425 Q 769 407 785 422 Q 842 464 861 623 Q 865 663 880 684 Q 892 696 885 706 Q 876 716 827 736 Q 808 743 790 730 Q 774 720 711 703 Q 647 684 593 679 Q 577 678 575 669 Q 574 662 596 652 Q 618 639 636 646 Q 649 650 664 654 L 699 664 Z" fill="black" /></g></svg>