<?xml version='1.0' encoding='utf-8'?>
<svg xmlns="http://www.w3.org/2000/svg" version="1.1" viewBox="0 0 1024 1024"><g transform="scale(1, -1) translate(0, -900)"><path d="M 548 530 Q 482 467 476 468 Q 469 469 468 483 Q 465 546 463 578 Q 459 602 460 621 Q 460 628 458 634 C 457 639 457 639 441 648 Q 425 658 409 661 Q 393 665 385 659 Q 378 652 391 637 Q 425 598 426 468 Q 422 444 411 415 Q 404 396 413 387 Q 423 377 447 371 Q 463 367 471 384 Q 478 421 547 495 Q 554 504 561 511 C 581 533 570 551 548 530 Z" fill="black" /></g></svg>