<?xml version='1.0' encoding='utf-8'?>
<svg xmlns="http://www.w3.org/2000/svg" version="1.1" viewBox="0 0 1024 1024"><g transform="scale(1, -1) translate(0, -900)"><path d="M 716 83 Q 726 58 748 9 Q 757 -9 767 -8 Q 783 -5 793 20 Q 815 62 836 202 Q 842 278 870 313 Q 886 332 875 346 Q 853 368 807 390 Q 788 400 700 371 Q 592 343 456 330 C 426 327 448 288 478 293 Q 482 293 487 294 Q 527 303 581 311 L 616 318 Q 668 330 737 340 Q 762 344 775 332 Q 796 296 761 122 Q 760 106 753 104 C 741 76 705 111 716 83 Z" fill="black" /></g></svg>