<?xml version='1.0' encoding='utf-8'?>
<svg xmlns="http://www.w3.org/2000/svg" version="1.1" viewBox="0 0 1024 1024"><g transform="scale(1, -1) translate(0, -900)"><path d="M 876 393 Q 864 411 845 463 Q 844 478 837 482 Q 831 485 827 468 Q 802 410 788 392 Q 779 380 753 373 Q 692 358 639 378 Q 618 388 612 402 Q 591 444 596 531 L 597 558 Q 600 610 609 670 C 612 694 612 694 607 699 Q 601 711 571 722 Q 559 726 552 721 Q 546 717 551 702 Q 564 666 561 633 Q 549 386 592 346 Q 664 289 803 321 Q 804 322 808 322 Q 839 332 871 355 Q 887 370 876 393 Z" fill="black" /></g></svg>