<?xml version='1.0' encoding='utf-8'?>
<svg xmlns="http://www.w3.org/2000/svg" version="1.1" viewBox="0 0 1024 1024"><g transform="scale(1, -1) translate(0, -900)"><path d="M 651 583 Q 673 593 698 602 Q 726 615 732 611 Q 739 607 737 592 Q 635 226 935 204 Q 951 204 963 207 Q 984 214 976 244 Q 960 295 952 351 Q 951 381 944 388 Q 938 395 932 379 Q 910 294 892 276 Q 873 269 854 278 Q 776 308 765 382 Q 744 463 780 555 Q 796 586 820 606 Q 835 616 829 626 Q 822 639 771 661 Q 756 668 742 658 Q 715 642 654 621 L 604 606 Q 559 596 522 591 Q 509 590 515 576 Q 519 566 542 558 Q 564 551 585 557 Q 592 561 600 563 L 651 583 Z" fill="black" /></g></svg>