<?xml version='1.0' encoding='utf-8'?>
<svg xmlns="http://www.w3.org/2000/svg" version="1.1" viewBox="0 0 1024 1024"><g transform="scale(1, -1) translate(0, -900)"><path d="M 471 686 Q 461 693 443 703 Q 424 713 415 706 Q 408 699 416 685 Q 461 598 430 167 Q 423 98 401 63 Q 391 48 400 28 Q 407 6 418 -2 Q 428 -9 445 2 Q 508 42 600 59 Q 706 77 912 72 Q 937 71 938 83 Q 938 99 909 120 Q 893 133 859 127 Q 760 111 682 104 Q 603 101 507 84 Q 492 80 486 86 Q 479 87 478 105 Q 484 309 483 567 Q 486 613 490 661 C 491 674 491 674 471 686 Z" fill="black" /></g></svg>