<?xml version='1.0' encoding='utf-8'?>
<svg xmlns="http://www.w3.org/2000/svg" version="1.1" viewBox="0 0 1024 1024"><g transform="scale(1, -1) translate(0, -900)"><path d="M 484 441 Q 485 442 491 443 Q 609 473 752 494 Q 774 498 785 487 Q 795 481 799 435 Q 811 281 804 107 Q 804 82 794 74 Q 781 64 708 78 Q 692 79 694 71 Q 695 64 708 59 Q 772 17 807 -15 Q 826 -34 839 -31 Q 851 -28 861 -1 Q 874 42 872 106 Q 848 427 867 468 Q 877 487 868 499 Q 858 514 813 536 Q 794 545 776 540 Q 745 530 685 515 L 653 507 Q 646 507 640 505 Q 550 489 455 478 C 425 474 455 434 484 441 Z" fill="black" /></g></svg>