<?xml version='1.0' encoding='utf-8'?>
<svg xmlns="http://www.w3.org/2000/svg" version="1.1" viewBox="0 0 1024 1024"><g transform="scale(1, -1) translate(0, -900)"><path d="M 676 116 Q 713 165 747 241 Q 760 268 778 284 Q 796 297 785 310 Q 773 322 744 333 Q 723 340 698 329 Q 670 317 632 305 Q 595 293 530 284 Q 517 283 513 276 Q 510 270 527 263 Q 561 251 607 266 Q 670 290 681 289 Q 700 288 694 267 Q 670 176 640 144 L 615 115 Q 546 52 424 19 Q 411 15 422 7 Q 428 3 469 5 Q 562 12 644 82 L 676 116 Z" fill="black" /></g></svg>