<?xml version='1.0' encoding='utf-8'?>
<svg xmlns="http://www.w3.org/2000/svg" version="1.1" viewBox="0 0 1024 1024"><g transform="scale(1, -1) translate(0, -900)"><path d="M 368 373 Q 369 372 373 368 Q 377 367 395 364 Q 417 360 424 347 Q 433 329 403 274 Q 391 256 383 256 Q 374 253 348 264 Q 318 283 314 278 Q 308 271 322 259 Q 344 232 350 197 Q 353 184 362 177 Q 372 171 403 186 Q 445 213 465 279 Q 471 310 488 322 Q 498 326 499 333 Q 500 340 482 363 Q 455 390 405 391 Q 396 392 386 395 C 357 402 343 389 368 373 Z" fill="black" /></g></svg>