<?xml version='1.0' encoding='utf-8'?>
<svg xmlns="http://www.w3.org/2000/svg" version="1.1" viewBox="0 0 1024 1024"><g transform="scale(1, -1) translate(0, -900)"><path d="M 616 397 Q 640 473 651 583 L 654 621 Q 654 625 655 627 Q 658 717 678 772 Q 682 782 674 790 Q 658 806 623 820 Q 604 830 587 824 Q 568 817 583 800 Q 610 772 609 743 Q 609 670 604 606 L 600 563 Q 593 493 571 413 L 561 381 Q 557 372 554 362 Q 524 287 450 210 Q 440 203 437 198 Q 433 191 449 193 Q 476 193 543 260 Q 573 293 601 352 L 616 397 Z" fill="black" /></g></svg>