<?xml version='1.0' encoding='utf-8'?>
<svg xmlns="http://www.w3.org/2000/svg" version="1.1" viewBox="0 0 1024 1024"><g transform="scale(1, -1) translate(0, -900)"><path d="M 482 297 Q 540 300 596 306 Q 755 318 900 302 Q 922 299 927 307 Q 934 319 924 330 Q 897 355 858 375 Q 845 379 821 373 Q 745 358 667 348 Q 625 345 593 341 L 566 338 Q 484 335 393 322 L 366 320 Q 306 316 268 310 Q 192 300 80 301 Q 67 301 66 291 Q 65 279 82 266 Q 97 254 125 243 Q 135 239 151 246 Q 170 252 249 264 Q 352 286 482 297 Z" fill="black" /></g></svg>