<?xml version='1.0' encoding='utf-8'?>
<svg xmlns="http://www.w3.org/2000/svg" version="1.1" viewBox="0 0 1024 1024"><g transform="scale(1, -1) translate(0, -900)"><path d="M 748 195 Q 790 87 868 12 Q 928 -39 957 -38 Q 978 -34 971 -6 Q 964 40 960 171 Q 959 193 950 194 Q 947 194 917 112 Q 905 73 876 93 Q 869 99 862 106 Q 816 158 783 230 L 766 273 Q 741 342 724 460 L 718 499 Q 700 656 718 747 Q 733 786 680 809 Q 647 825 627 820 Q 608 814 616 795 Q 658 752 657 720 Q 664 588 678 488 L 683 452 Q 698 335 735 231 L 748 195 Z" fill="black" /></g></svg>