<?xml version='1.0' encoding='utf-8'?>
<svg xmlns="http://www.w3.org/2000/svg" version="1.1" viewBox="0 0 1024 1024"><g transform="scale(1, -1) translate(0, -900)"><path d="M 644 258 Q 659 237 673 230 Q 683 223 695 243 Q 707 262 728 373 Q 735 400 754 422 Q 766 432 755 445 Q 742 458 704 480 Q 688 487 673 482 Q 648 475 618 469 Q 578 460 524 449 Q 493 442 464 435 C 435 428 447 400 476 408 Q 534 426 640 443 Q 662 447 671 439 Q 681 427 681 415 Q 666 298 652 284 C 641 262 641 262 644 258 Z" fill="black" /></g></svg>