<?xml version='1.0' encoding='utf-8'?>
<svg xmlns="http://www.w3.org/2000/svg" version="1.1" viewBox="0 0 1024 1024"><g transform="scale(1, -1) translate(0, -900)"><path d="M 602 463 Q 656 476 705 483 Q 724 486 728 480 Q 732 470 728 447 Q 718 381 699 353 Q 680 323 654 330 Q 636 333 621 337 Q 599 344 615 323 Q 645 292 658 268 Q 670 250 685 261 Q 734 288 772 410 Q 779 452 801 472 Q 811 482 807 492 Q 800 502 756 524 Q 740 533 722 522 Q 700 510 617 492 Q 533 473 462 469 C 434 467 434 467 448 455 Q 457 440 484 435 L 510 439 Q 547 451 586 459 L 602 463 Z" fill="black" /></g></svg>