<?xml version='1.0' encoding='utf-8'?>
<svg xmlns="http://www.w3.org/2000/svg" version="1.1" viewBox="0 0 1024 1024"><g transform="scale(1, -1) translate(0, -900)"><path d="M 703 410 Q 707 456 720 479 Q 730 504 714 519 Q 671 553 658 549 Q 645 545 651 529 Q 667 498 663 449 Q 657 290 681 265 Q 688 250 743 238 Q 782 231 844 231 Q 901 232 923 243 Q 948 256 938 283 Q 922 326 913 400 Q 912 413 905 418 Q 898 422 895 405 Q 882 314 868 297 Q 853 279 781 275 Q 742 276 725 282 Q 710 289 707 298 Q 701 317 701 388 L 703 410 Z" fill="black" /></g></svg>