<?xml version='1.0' encoding='utf-8'?>
<svg xmlns="http://www.w3.org/2000/svg" version="1.1" viewBox="0 0 1024 1024"><g transform="scale(1, -1) translate(0, -900)"><path d="M 854 506 Q 869 76 848 45 Q 844 42 785 53 Q 758 62 760 52 Q 812 4 841 -29 Q 854 -47 868 -51 Q 877 -55 885 -45 Q 922 4 921 53 Q 894 398 895 654 Q 895 690 906 707 Q 916 726 905 736 Q 884 752 849 766 Q 831 773 784 748 Q 753 736 694 725 C 665 719 686 690 715 697 Q 739 703 808 721 Q 824 725 832 716 Q 845 703 847 658 Q 850 594 853 534 L 854 506 Z" fill="black" /></g></svg>