<?xml version='1.0' encoding='utf-8'?>
<svg xmlns="http://www.w3.org/2000/svg" version="1.1" viewBox="0 0 1024 1024"><g transform="scale(1, -1) translate(0, -900)"><path d="M 392 185 Q 404 189 408 206 Q 412 236 382 297 Q 363 340 432 394 Q 451 407 437 421 Q 422 436 395 450 Q 376 465 342 436 Q 288 414 281 414 Q 275 415 273 411 Q 272 407 279 403 Q 303 390 353 407 Q 359 408 365 403 Q 377 387 359 370 Q 317 340 360 255 Q 361 251 364 245 Q 376 209 378 191 Q 377 190 376 188 C 375 173 375 173 392 185 Z" fill="black" /></g></svg>