<?xml version='1.0' encoding='utf-8'?>
<svg xmlns="http://www.w3.org/2000/svg" version="1.1" viewBox="0 0 1024 1024"><g transform="scale(1, -1) translate(0, -900)"><path d="M 713 605 Q 713 614 772 633 Q 779 636 784 635 Q 791 634 791 621 Q 787 495 789 485 Q 789 464 813 448 Q 838 435 885 436 Q 931 437 955 452 Q 968 456 959 470 Q 946 486 929 494 Q 919 498 899 489 Q 844 462 831 490 Q 819 509 828 562 Q 829 596 860 629 Q 875 644 859 655 Q 838 671 815 680 Q 805 684 792 676 Q 753 655 692 635 C 664 625 691 585 713 605 Z" fill="black" /></g></svg>