<?xml version='1.0' encoding='utf-8'?>
<svg xmlns="http://www.w3.org/2000/svg" version="1.1" viewBox="0 0 1024 1024"><g transform="scale(1, -1) translate(0, -900)"><path d="M 545 124 Q 588 173 629 242 Q 645 270 668 287 Q 690 302 677 318 Q 665 331 634 347 Q 610 357 526 328 Q 394 298 339 292 Q 324 291 319 283 Q 315 276 335 267 Q 375 252 428 268 Q 540 302 560 300 Q 576 299 571 280 Q 546 207 502 154 L 475 127 Q 382 49 195 12 Q 179 9 190 -1 Q 197 -5 254 -3 Q 326 1 407 33 Q 465 55 512 92 L 545 124 Z" fill="black" /></g></svg>