<?xml version='1.0' encoding='utf-8'?>
<svg xmlns="http://www.w3.org/2000/svg" version="1.1" viewBox="0 0 1024 1024"><g transform="scale(1, -1) translate(0, -900)"><path d="M 772 160 Q 806 212 828 297 Q 832 328 850 345 Q 863 358 847 372 Q 828 385 797 396 Q 778 402 759 391 Q 719 366 662 354 Q 640 351 629 344 Q 622 338 638 330 Q 662 320 696 332 Q 724 341 754 350 Q 772 357 773 335 Q 773 268 737 195 L 715 159 Q 664 98 547 57 Q 534 53 543 46 Q 550 42 575 46 Q 650 56 693 79 Q 720 94 743 120 L 772 160 Z" fill="black" /></g></svg>