<?xml version='1.0' encoding='utf-8'?>
<svg xmlns="http://www.w3.org/2000/svg" version="1.1" viewBox="0 0 1024 1024"><g transform="scale(1, -1) translate(0, -900)"><path d="M 525 480 Q 568 471 720 501 Q 792 514 800 504 Q 821 474 810 259 Q 803 160 773 94 Q 760 64 740 57 Q 730 53 669 67 Q 659 70 659 64 Q 658 60 670 50 Q 707 8 724 -21 Q 733 -40 744 -39 Q 792 -32 832 55 Q 872 145 882 431 Q 882 464 900 487 Q 913 502 912 510 Q 911 519 890 532 Q 862 551 825 562 Q 804 568 729 544 Q 720 543 711 539 Q 687 533 546 502 C 517 496 495 482 525 480 Z" fill="black" /></g></svg>