<?xml version='1.0' encoding='utf-8'?>
<svg xmlns="http://www.w3.org/2000/svg" version="1.1" viewBox="0 0 1024 1024"><g transform="scale(1, -1) translate(0, -900)"><path d="M 392 567 Q 385 582 379 591 L 370 601 Q 331 640 288 648 C 259 655 244 646 272 634 L 274 633 Q 283 630 291 625 L 332 597 Q 339 591 347 581 C 366 559 366 559 366 531 Q 366 434 350 423 Q 346 420 288 419 Q 276 422 276 416 Q 275 410 286 402 Q 326 371 344 350 Q 354 337 367 341 Q 397 359 407 444 Q 411 504 402 537 L 392 567 Z" fill="black" /></g></svg>