<?xml version='1.0' encoding='utf-8'?>
<svg xmlns="http://www.w3.org/2000/svg" version="1.1" viewBox="0 0 1024 1024"><g transform="scale(1, -1) translate(0, -900)"><path d="M 693 571 Q 686 590 678 603 L 665 617 Q 629 650 579 665 C 550 674 534 666 561 652 Q 562 651 566 649 Q 573 646 581 642 L 623 616 Q 630 610 636 603 L 661 554 Q 667 524 657 467 Q 651 442 643 435 Q 642 435 576 438 Q 564 442 564 436 Q 563 430 573 421 Q 616 387 634 363 Q 646 350 658 353 Q 691 372 701 459 Q 705 510 700 541 L 693 571 Z" fill="black" /></g></svg>