<?xml version='1.0' encoding='utf-8'?>
<svg xmlns="http://www.w3.org/2000/svg" version="1.1" viewBox="0 0 1024 1024"><g transform="scale(1, -1) translate(0, -900)"><path d="M 756 537 Q 763 574 771 598 L 785 638 Q 797 665 812 678 Q 827 696 813 711 Q 738 757 697 732 Q 664 720 634 709 L 584 696 Q 535 686 484 678 Q 469 677 471 667 Q 474 660 490 655 Q 512 646 544 657 Q 563 661 585 666 L 633 677 Q 664 686 698 693 Q 717 697 725 690 Q 738 678 730 627 L 725 594 Q 721 569 715 545 C 708 516 750 508 756 537 Z" fill="black" /></g></svg>