<?xml version='1.0' encoding='utf-8'?>
<svg xmlns="http://www.w3.org/2000/svg" version="1.1" viewBox="0 0 1024 1024"><g transform="scale(1, -1) translate(0, -900)"><path d="M 620 432 Q 621 460 623 488 L 625 522 Q 626 552 628 581 L 630 609 Q 631 643 633 677 L 634 709 Q 634 715 635 719 Q 638 752 652 809 Q 656 819 637 834 Q 603 852 581 855 Q 565 859 558 850 Q 551 843 559 829 Q 583 795 582 771 Q 583 735 584 696 L 585 666 Q 585 635 586 601 L 585 573 Q 584 545 584 513 L 583 481 Q 582 454 581 424 C 580 394 619 402 620 432 Z" fill="black" /></g></svg>