<?xml version='1.0' encoding='utf-8'?>
<svg xmlns="http://www.w3.org/2000/svg" version="1.1" viewBox="0 0 1024 1024"><g transform="scale(1, -1) translate(0, -900)"><path d="M 643 471 Q 697 498 710 492 Q 722 488 718 467 Q 687 302 741 249 Q 742 248 745 245 Q 769 217 851 181 Q 897 159 926 161 Q 953 165 955 177 L 922 308 Q 919 321 909 326 Q 905 330 902 317 Q 890 259 882 244 Q 876 232 851 237 Q 820 241 784 269 Q 756 293 746 326 Q 739 354 751 404 Q 760 444 797 484 Q 821 506 767 539 Q 737 557 707 532 Q 689 523 648 501 L 597 483 Q 513 462 511 458 Q 508 454 516 446 Q 537 434 592 452 L 643 471 Z" fill="black" /></g></svg>