<?xml version='1.0' encoding='utf-8'?>
<svg xmlns="http://www.w3.org/2000/svg" version="1.1" viewBox="0 0 1024 1024"><g transform="scale(1, -1) translate(0, -900)"><path d="M 609 350 Q 628 407 643 471 L 648 501 Q 652 523 655 543 Q 664 585 664 589 Q 651 604 626 616 Q 611 626 600 622 Q 590 618 595 605 Q 604 593 597 483 L 592 452 Q 576 379 569 359 L 559 332 Q 529 257 479 190 Q 475 184 472 180 Q 471 170 478 172 Q 512 179 573 274 Q 576 281 581 287 Q 587 300 593 312 L 609 350 Z" fill="black" /></g></svg>