<?xml version='1.0' encoding='utf-8'?>
<svg xmlns="http://www.w3.org/2000/svg" version="1.1" viewBox="0 0 1024 1024"><g transform="scale(1, -1) translate(0, -900)"><path d="M 748 182 Q 764 154 781 146 Q 791 139 804 158 Q 816 177 841 288 Q 848 316 869 337 Q 881 349 870 361 Q 857 376 819 398 Q 806 404 729 387 Q 723 387 690 378 L 645 369 Q 639 369 541 347 C 512 340 525 309 554 318 Q 591 330 646 341 L 689 349 Q 764 370 787 356 Q 799 347 795 331 Q 774 208 756 198 C 746 185 746 185 748 182 Z" fill="black" /></g></svg>