<?xml version='1.0' encoding='utf-8'?>
<svg xmlns="http://www.w3.org/2000/svg" version="1.1" viewBox="0 0 1024 1024"><g transform="scale(1, -1) translate(0, -900)"><path d="M 589 511 Q 590 472 611 456 Q 665 419 749 445 Q 768 452 787 469 Q 799 479 789 495 Q 782 502 766 530 Q 765 539 760 541 Q 756 542 755 532 Q 742 499 734 489 Q 730 482 713 477 Q 676 468 643 481 Q 630 487 626 495 Q 622 504 621 520 L 622 550 Q 625 589 620 595 Q 610 602 594 608 Q 590 609 588 608 C 578 610 578 610 578 606 Q 575 603 579 592 Q 589 567 589 540 L 589 511 Z" fill="black" /></g></svg>