<?xml version='1.0' encoding='utf-8'?>
<svg xmlns="http://www.w3.org/2000/svg" version="1.1" viewBox="0 0 1024 1024"><g transform="scale(1, -1) translate(0, -900)"><path d="M 738 233 Q 739 232 740 228 Q 744 216 755 217 Q 765 218 772 230 Q 779 240 796 291 Q 809 331 838 356 Q 853 368 840 380 Q 827 393 786 415 Q 768 425 615 389 Q 608 389 602 386 Q 566 379 540 374 C 511 368 518 338 547 347 Q 574 356 625 365 L 658 371 Q 742 392 760 381 Q 767 377 763 355 Q 748 274 740 253 C 735 238 735 238 738 233 Z" fill="black" /></g></svg>