<?xml version='1.0' encoding='utf-8'?>
<svg xmlns="http://www.w3.org/2000/svg" version="1.1" viewBox="0 0 1024 1024"><g transform="scale(1, -1) translate(0, -900)"><path d="M 700 267 Q 700 263 702 256 Q 705 244 715 244 Q 730 247 757 305 Q 770 344 799 366 Q 814 376 802 389 Q 789 402 752 424 Q 742 431 677 419 Q 665 419 624 411 L 593 405 Q 574 404 557 399 Q 521 392 496 387 C 467 381 476 348 504 358 Q 504 359 505 359 Q 536 369 593 378 L 624 383 Q 709 399 729 390 Q 735 386 730 367 Q 712 300 705 283 L 700 267 Z" fill="black" /></g></svg>