<?xml version='1.0' encoding='utf-8'?>
<svg xmlns="http://www.w3.org/2000/svg" version="1.1" viewBox="0 0 1024 1024"><g transform="scale(1, -1) translate(0, -900)"><path d="M 525 144 Q 512 143 437 109 Q 422 103 422 117 Q 425 163 426 206 L 426 225 Q 427 256 427 283 L 427 306 Q 427 346 429 361 C 430 378 430 378 422 385 Q 404 401 388 408 Q 373 414 366 408 Q 359 404 365 391 Q 401 319 385 149 Q 382 110 349 72 Q 339 59 345 42 Q 352 20 363 11 Q 373 4 383 17 Q 396 39 534 130 C 559 147 554 152 525 144 Z" fill="black" /></g></svg>