<?xml version='1.0' encoding='utf-8'?>
<svg xmlns="http://www.w3.org/2000/svg" version="1.1" viewBox="0 0 1024 1024"><g transform="scale(1, -1) translate(0, -900)"><path d="M 832 559 Q 847 97 822 63 Q 818 56 796 61 Q 769 64 743 68 Q 724 72 725 63 Q 785 18 817 -14 Q 832 -32 847 -36 Q 857 -40 865 -30 Q 904 31 900 76 Q 885 293 880 645 Q 877 703 891 729 Q 903 748 890 759 Q 868 777 831 791 Q 810 800 769 774 Q 735 761 683 749 C 654 742 673 715 702 721 Q 714 721 788 744 Q 804 748 814 740 Q 826 728 832 578 L 832 559 Z" fill="black" /></g></svg>