<?xml version='1.0' encoding='utf-8'?>
<svg xmlns="http://www.w3.org/2000/svg" version="1.1" viewBox="0 0 1024 1024"><g transform="scale(1, -1) translate(0, -900)"><path d="M 745 480 Q 745 479 746 477 Q 749 464 759 464 Q 772 467 799 506 Q 814 549 844 572 Q 860 585 847 598 Q 834 611 793 635 Q 780 644 718 627 Q 667 621 538 591 Q 477 578 436 569 C 407 563 424 529 453 538 Q 483 547 523 558 L 545 563 Q 576 572 620 580 L 651 586 Q 747 608 771 597 Q 775 593 772 577 Q 757 526 751 509 C 743 484 743 484 745 480 Z" fill="black" /></g></svg>