<?xml version='1.0' encoding='utf-8'?>
<svg xmlns="http://www.w3.org/2000/svg" version="1.1" viewBox="0 0 1024 1024"><g transform="scale(1, -1) translate(0, -900)"><path d="M 588 212 Q 582 115 576 99 Q 572 69 596 32 Q 605 17 611 14 Q 620 13 623 24 Q 632 48 629 71 Q 625 170 624 258 L 624 284 Q 624 317 624 348 Q 624 367 624 383 L 624 411 Q 625 433 626 451 L 629 480 Q 629 483 630 484 Q 631 494 626 498 Q 608 513 594 520 Q 584 523 578 517 Q 574 514 579 507 Q 586 495 590 471 L 592 445 Q 592 427 593 405 L 593 378 Q 594 339 593 292 Q 592 285 592 277 L 588 212 Z" fill="black" /></g></svg>