<?xml version='1.0' encoding='utf-8'?>
<svg xmlns="http://www.w3.org/2000/svg" version="1.1" viewBox="0 0 1024 1024"><g transform="scale(1, -1) translate(0, -900)"><path d="M 784 228 Q 787 68 775 56 Q 763 49 708 64 Q 693 68 694 59 Q 694 52 706 46 Q 755 4 781 -27 Q 800 -45 811 -43 Q 821 -40 832 -14 Q 847 26 846 86 Q 839 168 835 231 L 831 281 Q 822 425 836 453 Q 846 472 837 483 Q 827 496 784 517 Q 768 524 750 520 Q 725 510 677 496 L 621 482 L 513 462 C 484 457 511 418 539 428 Q 539 429 541 429 Q 578 442 623 452 L 671 463 Q 698 470 728 476 Q 747 482 759 471 Q 769 467 774 420 Q 780 350 783 272 L 784 228 Z" fill="black" /></g></svg>