<?xml version='1.0' encoding='utf-8'?>
<svg xmlns="http://www.w3.org/2000/svg" version="1.1" viewBox="0 0 1024 1024"><g transform="scale(1, -1) translate(0, -900)"><path d="M 677 500 Q 680 485 692 484 Q 705 484 714 497 Q 721 500 740 521 Q 761 569 798 593 Q 817 606 804 623 Q 789 641 744 670 Q 726 683 664 667 Q 478 642 418 629 Q 345 616 295 607 C 265 602 278 561 305 573 Q 312 582 406 598 L 431 603 Q 480 615 546 623 L 590 629 Q 689 648 714 634 Q 720 630 714 612 Q 693 546 681 530 C 670 510 670 510 677 500 Z" fill="black" /></g></svg>