<?xml version='1.0' encoding='utf-8'?>
<svg xmlns="http://www.w3.org/2000/svg" version="1.1" viewBox="0 0 1024 1024"><g transform="scale(1, -1) translate(0, -900)"><path d="M 578 119 Q 612 170 646 243 Q 661 274 682 293 Q 703 309 689 325 Q 676 338 642 351 Q 617 360 587 346 Q 557 333 516 319 Q 479 309 420 297 C 391 291 377 276 406 270 Q 443 258 496 274 Q 557 299 568 299 Q 590 296 584 273 Q 566 203 535 153 L 514 124 Q 441 39 293 1 Q 277 -3 290 -13 Q 297 -17 342 -15 Q 400 -11 466 24 Q 515 49 553 88 L 578 119 Z" fill="black" /></g></svg>