<?xml version='1.0' encoding='utf-8'?>
<svg xmlns="http://www.w3.org/2000/svg" version="1.1" viewBox="0 0 1024 1024"><g transform="scale(1, -1) translate(0, -900)"><path d="M 652 567 Q 546 557 465 534 Q 443 530 449 555 Q 456 610 463 669 Q 467 696 457 712 Q 441 731 414 747 Q 401 754 390 751 Q 378 747 386 725 Q 413 662 402 600 Q 395 542 369 515 Q 348 496 357 480 Q 370 464 388 451 Q 403 442 416 453 Q 447 489 594 518 Q 634 525 646 522 Q 647 523 652 523 C 682 523 682 570 652 567 Z" fill="black" /></g></svg>