<?xml version='1.0' encoding='utf-8'?>
<svg xmlns="http://www.w3.org/2000/svg" version="1.1" viewBox="0 0 1024 1024"><g transform="scale(1, -1) translate(0, -900)"><path d="M 505 300 Q 514 360 528 642 L 530 685 Q 530 713 554 783 Q 561 798 550 809 Q 528 828 488 839 Q 463 845 453 838 Q 444 831 452 819 Q 474 782 478 734 Q 479 703 480 672 L 481 633 Q 484 329 417 199 Q 393 159 358 126 Q 288 59 131 -2 Q 118 -9 117 -13 Q 118 -17 130 -19 Q 155 -23 216 -5 Q 319 20 391 86 Q 460 149 498 267 L 505 300 Z" fill="black" /></g></svg>