<?xml version='1.0' encoding='utf-8'?>
<svg xmlns="http://www.w3.org/2000/svg" version="1.1" viewBox="0 0 1024 1024"><g transform="scale(1, -1) translate(0, -900)"><path d="M 612 377 Q 684 410 697 404 Q 707 398 701 379 Q 688 334 676 306 Q 672 296 672 289 Q 672 277 690 269 Q 772 232 761 170 Q 758 167 757 164 Q 753 158 672 148 Q 665 148 667 141 Q 670 135 685 128 Q 743 107 760 87 Q 767 77 778 77 Q 788 78 798 90 Q 822 115 821 154 Q 821 209 729 278 Q 693 303 735 346 Q 742 356 749 364 Q 764 383 781 392 Q 806 408 783 424 Q 747 451 726 458 Q 710 462 698 454 Q 679 435 659 428 Q 629 416 600 403 C 573 391 585 365 612 377 Z" fill="black" /></g></svg>