<?xml version='1.0' encoding='utf-8'?>
<svg xmlns="http://www.w3.org/2000/svg" version="1.1" viewBox="0 0 1024 1024"><g transform="scale(1, -1) translate(0, -900)"><path d="M 521 482 Q 710 521 729 500 Q 741 494 746 442 Q 765 264 763 62 Q 763 32 752 24 Q 739 14 670 33 Q 654 37 654 27 Q 655 20 668 12 Q 729 -37 761 -73 Q 783 -94 797 -90 Q 810 -87 821 -57 Q 837 -11 834 59 Q 812 318 809 416 Q 808 456 820 481 Q 832 505 820 516 Q 810 532 759 556 Q 738 565 719 560 Q 658 539 528 513 Q 524 513 521 511 L 474 503 Q 365 487 254 475 C 224 472 255 431 285 436 Q 294 435 305 438 Q 384 457 474 473 L 521 482 Z" fill="black" /></g></svg>