<?xml version='1.0' encoding='utf-8'?>
<svg xmlns="http://www.w3.org/2000/svg" version="1.1" viewBox="0 0 1024 1024"><g transform="scale(1, -1) translate(0, -900)"><path d="M 820 66 Q 807 115 802 200 Q 801 216 794 222 Q 787 228 781 207 Q 757 104 740 87 Q 698 39 520 35 Q 423 36 381 52 Q 344 71 336 95 Q 326 122 325 186 L 327 220 Q 333 293 348 330 Q 352 343 353 353 C 357 368 356 369 331 385 Q 309 401 294 407 C 268 422 253 419 266 392 Q 287 371 283 296 Q 276 98 305 53 Q 362 -32 649 -12 Q 760 -3 802 22 Q 830 35 820 66 Z" fill="black" /></g></svg>