<?xml version='1.0' encoding='utf-8'?>
<svg xmlns="http://www.w3.org/2000/svg" version="1.1" viewBox="0 0 1024 1024"><g transform="scale(1, -1) translate(0, -900)"><path d="M 338 516 Q 289 509 254 495 Q 238 489 240 510 Q 241 553 242 597 Q 243 618 233 629 Q 220 642 197 653 Q 187 657 178 654 Q 169 650 178 634 Q 203 588 199 540 Q 198 494 181 472 Q 168 456 175 444 Q 185 432 201 424 Q 214 418 222 427 Q 250 466 325 479 Q 328 480 331 479 Q 332 480 338 481 C 368 485 368 521 338 516 Z" fill="black" /></g></svg>