<?xml version='1.0' encoding='utf-8'?>
<svg xmlns="http://www.w3.org/2000/svg" version="1.1" viewBox="0 0 1024 1024"><g transform="scale(1, -1) translate(0, -900)"><path d="M 761 37 Q 773 13 795 -28 Q 805 -46 815 -44 Q 831 -40 839 -14 Q 860 32 872 204 Q 876 250 898 280 Q 914 299 902 312 Q 881 333 836 353 Q 817 363 786 351 Q 660 306 467 288 C 437 285 466 248 495 255 Q 495 256 497 256 Q 600 278 760 306 Q 788 309 801 298 Q 808 294 810 274 Q 814 180 801 85 Q 800 69 793 67 Q 772 73 749 80 C 737 84 747 64 761 37 Z" fill="black" /></g></svg>