<?xml version='1.0' encoding='utf-8'?>
<svg xmlns="http://www.w3.org/2000/svg" version="1.1" viewBox="0 0 1024 1024"><g transform="scale(1, -1) translate(0, -900)"><path d="M 666 216 Q 608 144 472 95 Q 456 89 467 82 Q 474 78 504 83 Q 636 104 696 170 L 727 212 Q 781 308 805 407 Q 811 444 831 463 Q 847 479 826 494 Q 804 510 768 522 Q 746 528 724 515 Q 687 496 571 466 C 542 458 538 439 568 437 Q 593 431 625 443 Q 671 456 717 468 Q 741 475 741 449 Q 741 356 690 256 L 666 216 Z" fill="black" /></g></svg>