<?xml version='1.0' encoding='utf-8'?>
<svg xmlns="http://www.w3.org/2000/svg" version="1.1" viewBox="0 0 1024 1024"><g transform="scale(1, -1) translate(0, -900)"><path d="M 571 466 Q 572 494 575 523 Q 578 589 583 613 Q 586 620 586 625 C 588 635 588 635 576 644 Q 561 657 536 666 Q 517 676 506 670 Q 494 663 501 650 Q 537 614 514 409 Q 498 256 401 86 Q 397 79 395 73 Q 394 63 403 66 Q 430 72 493 178 Q 505 203 518 231 Q 557 330 557 370 L 561 395 Q 564 417 568 437 L 571 466 Z" fill="black" /></g></svg>