<?xml version='1.0' encoding='utf-8'?>
<svg xmlns="http://www.w3.org/2000/svg" version="1.1" viewBox="0 0 1024 1024"><g transform="scale(1, -1) translate(0, -900)"><path d="M 508 609 Q 542 619 581 624 L 614 630 Q 651 637 701 642 L 741 646 Q 783 650 836 652 Q 857 653 875 654 Q 893 655 896 662 Q 900 672 886 684 Q 832 717 774 697 Q 761 696 749 691 L 704 681 Q 662 674 615 662 Q 614 662 614 661 L 580 655 Q 546 651 510 643 L 468 635 Q 423 629 378 620 Q 360 617 374 603 Q 404 582 436 590 Q 449 596 469 599 L 508 609 Z" fill="black" /></g></svg>