<?xml version='1.0' encoding='utf-8'?>
<svg xmlns="http://www.w3.org/2000/svg" version="1.1" viewBox="0 0 1024 1024"><g transform="scale(1, -1) translate(0, -900)"><path d="M 469 599 Q 473 470 461 445 Q 451 429 460 415 Q 475 393 487 393 Q 494 393 514 403 Q 646 443 781 440 Q 802 440 803 451 Q 803 461 770 479 Q 743 494 695 476 Q 691 476 689 475 Q 526 445 518 448 Q 505 452 509 467 Q 506 537 508 609 L 510 643 Q 510 662 512 680 Q 516 702 497 719 Q 466 744 447 742 Q 429 741 439 723 Q 469 680 468 635 L 469 599 Z" fill="black" /></g></svg>