<?xml version='1.0' encoding='utf-8'?>
<svg xmlns="http://www.w3.org/2000/svg" version="1.1" viewBox="0 0 1024 1024"><g transform="scale(1, -1) translate(0, -900)"><path d="M 718 446 Q 746 400 770 421 Q 771 424 774 426 Q 790 453 825 598 Q 835 628 858 652 Q 871 664 859 678 Q 844 694 803 721 Q 787 730 699 709 Q 696 709 694 708 Q 571 686 556 681 L 524 674 Q 500 670 479 666 C 449 661 465 622 493 632 Q 492 633 494 633 Q 534 646 593 657 L 625 663 Q 748 691 766 675 Q 779 659 776 642 Q 746 486 726 474 C 712 454 712 454 718 446 Z" fill="black" /></g></svg>