<?xml version='1.0' encoding='utf-8'?>
<svg xmlns="http://www.w3.org/2000/svg" version="1.1" viewBox="0 0 1024 1024"><g transform="scale(1, -1) translate(0, -900)"><path d="M 690 361 Q 726 368 768 375 Q 789 381 801 369 Q 808 365 810 332 Q 817 220 811 91 Q 810 72 803 67 Q 793 61 743 79 Q 730 83 730 75 Q 730 68 740 62 Q 783 19 804 -12 Q 820 -28 832 -28 Q 842 -25 853 -2 Q 869 35 871 92 Q 862 242 862 297 Q 863 331 873 351 Q 883 370 874 380 Q 865 393 824 414 Q 808 421 791 418 Q 758 408 691 391 L 644 382 Q 586 372 528 365 C 498 361 512 326 542 330 Q 548 330 557 331 Q 599 343 645 352 L 690 361 Z" fill="black" /></g></svg>