<?xml version='1.0' encoding='utf-8'?>
<svg xmlns="http://www.w3.org/2000/svg" version="1.1" viewBox="0 0 1024 1024"><g transform="scale(1, -1) translate(0, -900)"><path d="M 377 367 Q 377 427 379 496 L 379 547 Q 379 652 399 724 Q 414 751 388 768 Q 372 780 342 797 Q 318 813 297 798 Q 293 794 298 778 Q 332 729 332 680 Q 333 610 334 530 L 334 483 Q 333 414 330 341 L 329 293 Q 329 173 304 81 Q 292 39 319 -22 Q 326 -40 334 -43 Q 341 -50 348 -41 Q 355 -37 366 -16 Q 376 9 375 41 Q 374 78 376 325 L 377 367 Z" fill="black" /></g></svg>