<?xml version='1.0' encoding='utf-8'?>
<svg xmlns="http://www.w3.org/2000/svg" version="1.1" viewBox="0 0 1024 1024"><g transform="scale(1, -1) translate(0, -900)"><path d="M 494 -43 Q 500 -68 506 -77 Q 512 -84 519 -82 Q 537 -70 540 -15 Q 549 66 547 146 Q 544 183 545 273 L 545 312 Q 545 367 547 438 L 548 488 Q 549 530 560 567 Q 563 585 549 594 Q 518 616 502 618 Q 490 622 474 614 Q 465 607 473 596 Q 495 544 497 523 Q 497 499 497 474 L 497 428 Q 496 373 495 305 L 494 267 Q 488 26 494 -43 Z" fill="black" /></g></svg>