<?xml version='1.0' encoding='utf-8'?>
<svg xmlns="http://www.w3.org/2000/svg" version="1.1" viewBox="0 0 1024 1024"><g transform="scale(1, -1) translate(0, -900)"><path d="M 947 143 Q 926 192 913 276 Q 910 291 905 296 Q 898 303 893 287 Q 880 238 866 201 Q 860 176 837 162 Q 809 135 690 143 Q 623 152 605 187 Q 581 239 591 378 L 592 404 Q 598 615 616 682 Q 625 703 595 725 Q 570 741 550 753 Q 532 765 515 754 Q 503 748 524 720 Q 549 684 550 581 Q 550 508 545 373 Q 533 192 575 138 Q 614 78 794 82 Q 869 83 925 107 Q 959 117 947 143 Z" fill="black" /></g></svg>