<?xml version='1.0' encoding='utf-8'?>
<svg xmlns="http://www.w3.org/2000/svg" version="1.1" viewBox="0 0 1024 1024"><g transform="scale(1, -1) translate(0, -900)"><path d="M 208 372 Q 208 375 209 377 Q 216 435 220 492 L 220 517 Q 221 524 221 531 Q 221 579 225 618 Q 232 633 224 645 Q 208 660 176 670 Q 157 677 145 672 Q 135 665 142 652 Q 160 634 165 557 Q 164 556 165 553 Q 174 409 147 302 Q 123 209 68 102 Q 64 95 63 89 Q 62 79 71 82 Q 81 83 115 130 Q 175 211 203 344 L 208 372 Z" fill="black" /></g></svg>