<?xml version='1.0' encoding='utf-8'?>
<svg xmlns="http://www.w3.org/2000/svg" version="1.1" viewBox="0 0 1024 1024"><g transform="scale(1, -1) translate(0, -900)"><path d="M 492 377 Q 516 482 523 564 L 525 590 Q 526 618 528 641 Q 529 657 532 671 Q 533 674 533 675 C 536 691 536 691 520 702 Q 510 712 490 719 Q 474 726 462 722 Q 452 715 459 704 Q 507 647 454 388 Q 451 378 449 367 Q 425 291 364 179 Q 360 173 359 168 Q 358 158 366 161 Q 397 168 457 281 Q 464 297 472 315 Q 479 334 485 353 L 492 377 Z" fill="black" /></g></svg>