<?xml version='1.0' encoding='utf-8'?>
<svg xmlns="http://www.w3.org/2000/svg" version="1.1" viewBox="0 0 1024 1024"><g transform="scale(1, -1) translate(0, -900)"><path d="M 727 518 Q 757 527 803 528 Q 815 528 820 523 Q 838 483 812 292 Q 794 184 757 116 Q 741 85 721 83 Q 706 80 629 110 Q 619 114 619 108 Q 618 104 629 94 Q 674 48 693 13 Q 703 -8 718 -7 Q 737 -10 757 10 Q 829 61 855 202 Q 874 298 889 443 Q 890 477 913 501 Q 926 514 926 522 Q 925 531 906 544 Q 879 565 844 577 Q 823 584 747 562 Q 738 561 728 557 Q 644 538 530 519 C 500 514 498 514 521 506 Q 530 497 567 495 L 605 498 Q 605 499 606 499 Q 649 506 690 512 L 727 518 Z" fill="black" /></g></svg>