<?xml version='1.0' encoding='utf-8'?>
<svg xmlns="http://www.w3.org/2000/svg" version="1.1" viewBox="0 0 1024 1024"><g transform="scale(1, -1) translate(0, -900)"><path d="M 316 319 Q 310 178 288 105 Q 275 63 301 6 Q 307 -12 315 -15 Q 321 -21 328 -13 Q 335 -9 346 11 Q 356 36 355 66 Q 355 103 360 349 L 361 381 Q 361 442 364 511 L 366 562 Q 366 685 389 762 Q 404 787 374 807 Q 359 819 334 833 Q 312 851 291 835 Q 287 831 292 815 Q 325 767 325 686 Q 325 617 325 546 L 323 500 Q 320 431 317 358 L 316 319 Z" fill="black" /></g></svg>