<?xml version='1.0' encoding='utf-8'?>
<svg xmlns="http://www.w3.org/2000/svg" version="1.1" viewBox="0 0 1024 1024"><g transform="scale(1, -1) translate(0, -900)"><path d="M 332 300 Q 332 186 306 97 Q 296 60 320 -2 Q 327 -20 335 -23 Q 341 -30 348 -21 Q 375 -5 375 58 Q 374 94 377 327 L 377 357 Q 378 421 380 496 L 381 549 Q 381 666 401 738 Q 416 763 386 783 Q 371 795 346 809 Q 324 825 303 811 Q 299 807 305 791 Q 336 742 338 694 Q 339 622 340 541 Q 339 538 339 533 L 338 486 Q 335 414 333 337 L 332 300 Z" fill="black" /></g></svg>