<?xml version='1.0' encoding='utf-8'?>
<svg xmlns="http://www.w3.org/2000/svg" version="1.1" viewBox="0 0 1024 1024"><g transform="scale(1, -1) translate(0, -900)"><path d="M 306 339 Q 300 198 284 134 Q 271 122 276 82 Q 276 67 295 22 Q 302 4 310 1 Q 316 -6 324 3 Q 331 7 342 28 Q 352 53 351 85 Q 350 122 354 381 L 355 412 Q 355 452 357 498 L 358 547 Q 358 659 378 736 Q 393 760 363 782 Q 347 794 322 809 Q 298 827 277 811 Q 273 805 278 790 Q 308 744 310 669 Q 310 600 311 529 L 310 485 Q 309 433 307 377 L 306 339 Z" fill="black" /></g></svg>