<?xml version='1.0' encoding='utf-8'?>
<svg xmlns="http://www.w3.org/2000/svg" version="1.1" viewBox="0 0 1024 1024"><g transform="scale(1, -1) translate(0, -900)"><path d="M 303 280 Q 294 151 275 89 Q 262 46 288 -13 Q 294 -31 302 -35 Q 308 -42 316 -33 Q 323 -29 334 -8 Q 344 17 344 48 Q 344 84 350 313 L 351 345 Q 352 409 356 487 L 357 538 Q 369 701 381 739 Q 391 755 388 768 Q 381 778 326 813 Q 302 831 281 816 Q 277 810 282 795 Q 313 747 314 666 Q 314 596 313 523 L 311 477 Q 307 402 304 321 L 303 280 Z" fill="black" /></g></svg>