<?xml version='1.0' encoding='utf-8'?>
<svg xmlns="http://www.w3.org/2000/svg" version="1.1" viewBox="0 0 1024 1024"><g transform="scale(1, -1) translate(0, -900)"><path d="M 305 293 Q 305 200 280 108 Q 268 66 295 6 Q 302 -12 310 -15 Q 316 -22 324 -13 Q 331 -9 342 12 Q 352 37 351 69 Q 350 103 352 324 L 352 354 Q 352 418 354 496 L 355 551 Q 355 672 375 744 Q 390 771 364 788 Q 348 800 318 817 Q 294 833 273 818 Q 269 814 274 798 Q 307 749 308 682 Q 308 609 310 533 L 309 484 Q 306 411 305 330 L 305 293 Z" fill="black" /></g></svg>