<?xml version='1.0' encoding='utf-8'?>
<svg xmlns="http://www.w3.org/2000/svg" version="1.1" viewBox="0 0 1024 1024"><g transform="scale(1, -1) translate(0, -900)"><path d="M 442 519 Q 424 506 408 489 Q 389 471 374 467 Q 361 460 361 448 Q 361 436 381 415 Q 388 403 404 412 Q 488 454 613 471 C 643 475 634 489 604 487 Q 535 483 452 469 Q 431 465 446 479 Q 465 498 498 527 L 539 562 Q 623 637 649 651 Q 661 658 657 667 Q 651 686 625 708 Q 612 718 603 718 Q 594 717 593 702 Q 590 669 533 605 L 517 588 Q 499 572 482 555 L 442 519 Z" fill="black" /></g></svg>