<?xml version='1.0' encoding='utf-8'?>
<svg xmlns="http://www.w3.org/2000/svg" version="1.1" viewBox="0 0 1024 1024"><g transform="scale(1, -1) translate(0, -900)"><path d="M 798 123 Q 808 101 829 59 Q 838 43 847 44 Q 860 47 869 70 Q 900 134 903 219 Q 909 273 914 335 Q 918 380 938 408 Q 954 427 942 438 Q 921 457 878 476 Q 860 485 830 473 Q 779 455 725 440 L 693 432 Q 659 429 632 421 L 591 416 Q 543 412 489 406 C 459 403 473 364 502 370 Q 506 370 512 371 Q 546 380 589 386 L 629 395 Q 659 402 692 407 L 724 413 Q 763 422 806 428 Q 837 435 852 420 Q 877 369 840 165 Q 839 146 830 144 Q 829 143 825 144 C 805 122 795 129 798 123 Z" fill="black" /></g></svg>