<?xml version='1.0' encoding='utf-8'?>
<svg xmlns="http://www.w3.org/2000/svg" version="1.1" viewBox="0 0 1024 1024"><g transform="scale(1, -1) translate(0, -900)"><path d="M 366 384 Q 367 450 369 528 L 369 576 Q 369 672 389 742 Q 404 767 374 787 Q 359 799 334 813 Q 312 829 291 815 Q 287 811 293 795 Q 324 747 325 700 Q 325 636 326 561 L 326 517 Q 323 441 321 361 L 320 317 Q 313 185 297 126 Q 282 111 291 71 Q 291 62 308 18 Q 315 0 323 -3 Q 329 -10 336 -1 Q 363 15 363 78 Q 362 114 365 347 L 366 384 Z" fill="black" /></g></svg>