<?xml version='1.0' encoding='utf-8'?>
<svg xmlns="http://www.w3.org/2000/svg" version="1.1" viewBox="0 0 1024 1024"><g transform="scale(1, -1) translate(0, -900)"><path d="M 508 186 Q 508 -40 520 -62 Q 520 -63 522 -65 Q 528 -72 535 -70 Q 559 -52 561 159 Q 561 174 561 190 L 562 224 Q 562 261 565 308 L 568 349 Q 568 352 569 353 Q 572 369 574 381 Q 578 397 564 407 Q 533 428 519 430 Q 507 434 492 427 Q 483 420 490 409 Q 508 378 508 337 L 509 299 Q 509 262 508 217 L 508 186 Z" fill="black" /></g></svg>