<?xml version='1.0' encoding='utf-8'?>
<svg xmlns="http://www.w3.org/2000/svg" version="1.1" viewBox="0 0 1024 1024"><g transform="scale(1, -1) translate(0, -900)"><path d="M 248 499 Q 276 481 303 488 Q 370 507 442 519 L 498 527 Q 738 563 779 553 Q 792 546 789 538 Q 790 531 783 522 Q 747 452 751 448 Q 760 444 779 455 Q 837 486 884 495 Q 921 502 922 512 Q 921 522 850 580 Q 826 601 749 589 Q 635 577 539 562 L 482 555 Q 431 551 373 541 Q 313 532 249 525 C 219 522 221 512 248 499 Z" fill="black" /></g></svg>