<?xml version='1.0' encoding='utf-8'?>
<svg xmlns="http://www.w3.org/2000/svg" version="1.1" viewBox="0 0 1024 1024"><g transform="scale(1, -1) translate(0, -900)"><path d="M 707 290 Q 694 341 675 360 L 662 371 Q 652 378 637 383 Q 618 390 608 384 Q 595 377 608 365 Q 642 340 655 280 L 663 240 Q 676 108 650 50 Q 637 28 607 36 Q 573 46 540 57 Q 530 61 533 50 Q 537 41 557 28 Q 599 -9 612 -37 Q 621 -53 637 -52 Q 650 -51 676 -27 Q 742 33 716 243 Q 715 244 715 246 L 707 290 Z" fill="black" /></g></svg>