<?xml version='1.0' encoding='utf-8'?>
<svg xmlns="http://www.w3.org/2000/svg" version="1.1" viewBox="0 0 1024 1024"><g transform="scale(1, -1) translate(0, -900)"><path d="M 281 301 Q 275 160 257 94 Q 242 79 251 39 Q 251 30 268 -14 Q 275 -32 283 -35 Q 289 -42 296 -33 Q 323 -17 323 46 Q 322 83 325 335 L 325 368 Q 326 432 328 508 L 329 560 Q 329 660 349 734 Q 364 759 334 779 Q 319 791 294 805 Q 272 821 251 807 Q 247 803 253 787 Q 286 738 286 688 Q 286 621 287 543 L 286 496 Q 285 423 282 345 L 281 301 Z" fill="black" /></g></svg>