<?xml version='1.0' encoding='utf-8'?>
<svg xmlns="http://www.w3.org/2000/svg" version="1.1" viewBox="0 0 1024 1024"><g transform="scale(1, -1) translate(0, -900)"><path d="M 306 323 Q 300 191 291 144 Q 267 56 287 13 Q 288 7 293 -2 Q 299 -20 307 -23 Q 313 -30 320 -21 Q 327 -17 338 3 Q 348 28 347 58 Q 346 95 351 356 L 352 387 Q 353 450 355 523 L 357 574 Q 358 668 377 730 Q 386 745 383 758 Q 376 768 322 801 Q 300 817 279 803 Q 275 799 280 783 Q 313 735 313 687 Q 313 626 313 556 L 313 511 Q 310 439 308 363 L 306 323 Z" fill="black" /></g></svg>