<?xml version='1.0' encoding='utf-8'?>
<svg xmlns="http://www.w3.org/2000/svg" version="1.1" viewBox="0 0 1024 1024"><g transform="scale(1, -1) translate(0, -900)"><path d="M 613 701 Q 615 701 620 700 Q 647 694 649 692 C 652 691 653 691 682 698 L 735 710 L 766 714 Q 766 715 778 718 Q 824 731 833 719 Q 837 706 831 659 Q 822 590 809 549 Q 776 465 748 457 Q 731 453 682 469 Q 672 472 672 468 Q 672 463 682 455 L 692 443 Q 702 427 725 389 Q 733 376 739 376 Q 775 376 817 438 Q 855 491 891 655 Q 894 677 914 698 Q 925 709 925 713 Q 924 719 913 728 Q 889 753 854 764 Q 849 767 845 768 Q 829 774 811 764 Q 782 751 764 747 L 673 723 Q 631 719 629 717 C 599 712 584 707 613 701 Z" fill="black" /></g></svg>