<?xml version='1.0' encoding='utf-8'?>
<svg xmlns="http://www.w3.org/2000/svg" version="1.1" viewBox="0 0 1024 1024"><g transform="scale(1, -1) translate(0, -900)"><path d="M 499 351 Q 500 361 505 369 Q 515 415 524 461 L 529 492 Q 539 588 544 596 C 550 622 550 622 542 628 Q 527 641 505 652 Q 489 662 477 657 Q 467 651 472 639 Q 488 608 483 549 Q 483 423 439 302 Q 403 211 342 120 Q 338 114 336 108 Q 333 99 343 101 Q 379 108 447 223 Q 453 236 460 248 Q 467 266 476 284 L 499 351 Z" fill="black" /></g></svg>