<?xml version='1.0' encoding='utf-8'?>
<svg xmlns="http://www.w3.org/2000/svg" version="1.1" viewBox="0 0 1024 1024"><g transform="scale(1, -1) translate(0, -900)"><path d="M 440 346 Q 447 325 420 252 L 406 219 Q 379 161 321 86 Q 312 74 316 72 Q 320 69 328 76 Q 385 113 412 153 Q 425 174 438 198 L 454 231 Q 499 342 504 348 Q 513 358 506 365 Q 481 390 450 383 Q 434 382 431 386 Q 427 387 432 397 Q 451 434 468 474 Q 483 499 495 513 Q 511 529 498 540 Q 488 547 457 557 Q 435 567 420 552 Q 377 516 343 502 Q 330 496 339 491 Q 360 481 413 510 Q 425 514 431 508 Q 435 499 424 468 Q 408 413 391 397 Q 381 384 385 373 Q 389 366 406 367 Q 445 364 440 346 Z" fill="black" /></g></svg>