<?xml version='1.0' encoding='utf-8'?>
<svg xmlns="http://www.w3.org/2000/svg" version="1.1" viewBox="0 0 1024 1024"><g transform="scale(1, -1) translate(0, -900)"><path d="M 256 321 Q 250 200 239 139 Q 214 67 239 11 Q 240 8 242 5 Q 248 -11 255 -15 Q 261 -21 268 -14 Q 275 -10 285 10 Q 295 34 294 63 Q 293 100 298 355 L 298 384 Q 299 451 302 530 L 304 580 Q 305 674 324 737 Q 333 750 330 764 Q 323 773 271 805 Q 249 821 230 807 Q 226 803 231 788 Q 262 739 263 691 Q 263 630 263 562 L 263 516 Q 260 441 257 361 L 256 321 Z" fill="black" /></g></svg>