<?xml version='1.0' encoding='utf-8'?>
<svg xmlns="http://www.w3.org/2000/svg" version="1.1" viewBox="0 0 1024 1024"><g transform="scale(1, -1) translate(0, -900)"><path d="M 697 660 Q 697 726 716 758 Q 722 771 705 785 Q 684 801 647 811 Q 631 815 620 804 Q 611 797 622 786 Q 644 767 647 739 Q 647 702 646 644 L 646 612 Q 646 584 646 548 L 646 517 Q 646 484 645 448 L 645 415 Q 644 382 644 353 L 643 319 Q 642 300 641 254 L 641 216 Q 644 137 654 123 Q 666 110 674 127 Q 681 152 686 222 L 688 263 Q 688 291 689 326 L 690 364 Q 690 392 690 422 L 691 459 Q 691 493 692 525 L 693 557 Q 693 594 695 623 L 697 660 Z" fill="black" /></g></svg>