<?xml version='1.0' encoding='utf-8'?>
<svg xmlns="http://www.w3.org/2000/svg" version="1.1" viewBox="0 0 1024 1024"><g transform="scale(1, -1) translate(0, -900)"><path d="M 282 320 Q 276 175 255 105 Q 243 62 269 6 Q 275 -12 283 -15 Q 289 -22 296 -13 Q 303 -9 314 11 Q 324 36 323 66 Q 322 103 327 355 L 327 388 Q 328 455 331 535 L 333 587 Q 334 678 353 738 Q 362 753 359 766 Q 352 776 298 809 Q 276 825 255 811 Q 251 807 256 791 Q 289 743 289 695 Q 289 637 289 569 L 289 522 Q 286 446 283 363 L 282 320 Z" fill="black" /></g></svg>