<?xml version='1.0' encoding='utf-8'?>
<svg xmlns="http://www.w3.org/2000/svg" version="1.1" viewBox="0 0 1024 1024"><g transform="scale(1, -1) translate(0, -900)"><path d="M 294 323 Q 288 173 267 105 Q 255 62 281 6 Q 287 -12 295 -15 Q 301 -22 308 -13 Q 315 -9 326 11 Q 336 36 335 66 Q 334 103 338 358 L 339 387 Q 340 457 342 541 L 344 595 Q 345 689 365 754 Q 374 769 371 782 Q 364 792 310 825 Q 288 841 267 827 Q 263 823 268 807 Q 301 758 301 709 Q 301 646 302 575 L 302 527 Q 298 448 296 362 L 294 323 Z" fill="black" /></g></svg>