<?xml version='1.0' encoding='utf-8'?>
<svg xmlns="http://www.w3.org/2000/svg" version="1.1" viewBox="0 0 1024 1024"><g transform="scale(1, -1) translate(0, -900)"><path d="M 466 299 Q 616 348 790 356 Q 809 355 818 345 Q 825 338 821 324 Q 822 111 807 81 Q 804 74 794 75 Q 766 81 734 87 Q 709 88 727 72 Q 791 24 818 -11 Q 831 -26 845 -13 Q 861 5 870 34 Q 880 65 875 232 Q 871 293 889 325 Q 902 344 897 352 Q 890 364 843 393 Q 827 406 812 400 Q 785 390 737 382 Q 574 364 511 350 Q 474 343 442 337 C 413 331 437 290 466 299 Z" fill="black" /></g></svg>