<?xml version='1.0' encoding='utf-8'?>
<svg xmlns="http://www.w3.org/2000/svg" version="1.1" viewBox="0 0 1024 1024"><g transform="scale(1, -1) translate(0, -900)"><path d="M 315 580 Q 330 580 334 573 Q 341 563 335 535 Q 326 474 289 444 Q 279 437 257 448 Q 235 454 218 458 Q 205 462 207 454 Q 208 444 220 433 Q 247 406 262 382 Q 272 367 287 376 Q 332 397 345 432 Q 390 550 396 557 Q 406 570 399 579 Q 390 594 367 608 Q 349 618 291 599 Q 243 587 240 589 Q 237 590 240 597 Q 258 643 258 646 C 264 664 264 664 253 675 Q 246 685 228 695 Q 218 704 211 699 Q 202 695 210 683 Q 220 661 210 631 Q 197 591 179 575 Q 169 565 172 553 Q 178 543 186 535 Q 193 528 210 541 Q 252 584 315 580 Z" fill="black" /></g></svg>