<?xml version='1.0' encoding='utf-8'?>
<svg xmlns="http://www.w3.org/2000/svg" version="1.1" viewBox="0 0 1024 1024"><g transform="scale(1, -1) translate(0, -900)"><path d="M 537 398 Q 564 263 528 112 Q 527 109 526 105 Q 522 92 514 90 Q 490 86 426 106 Q 395 115 389 108 Q 386 102 397 90 Q 457 50 497 11 Q 516 -16 526 -15 Q 533 -16 548 -1 Q 624 119 583 416 Q 576 464 563 503 Q 547 558 522 593 Q 519 597 517 600 L 483 638 Q 435 686 374 711 Q 359 718 355 707 Q 351 692 359 672 Q 369 653 387 648 Q 411 639 452 597 L 481 560 Q 497 544 520 477 L 537 398 Z" fill="black" /></g></svg>