<?xml version='1.0' encoding='utf-8'?>
<svg xmlns="http://www.w3.org/2000/svg" version="1.1" viewBox="0 0 1024 1024"><g transform="scale(1, -1) translate(0, -900)"><path d="M 649 366 Q 656 354 664 342 Q 676 326 681 328 Q 687 329 694 346 Q 695 353 697 454 Q 688 554 702 579 Q 709 591 704 598 Q 700 605 665 616 Q 649 622 636 614 Q 597 598 564 589 C 532 580 526 557 556 567 Q 556 568 557 568 Q 639 592 651 583 Q 657 577 658 553 Q 664 454 661 400 Q 662 394 660 390 C 657 360 641 379 649 366 Z" fill="black" /></g></svg>