<?xml version='1.0' encoding='utf-8'?>
<svg xmlns="http://www.w3.org/2000/svg" version="1.1" viewBox="0 0 1024 1024"><g transform="scale(1, -1) translate(0, -900)"><path d="M 391 369 Q 419 435 447 517 L 460 565 Q 467 590 474 616 Q 495 704 511 741 Q 523 756 517 772 Q 501 794 469 814 Q 450 829 435 825 Q 420 819 426 803 Q 444 761 430 696 Q 426 677 421 653 Q 411 604 398 555 L 384 505 Q 311 286 191 139 Q 185 135 182 129 Q 148 84 112 44 Q 105 38 102 31 Q 98 19 109 21 Q 124 20 182 71 Q 293 164 377 338 L 391 369 Z" fill="black" /></g></svg>