<?xml version='1.0' encoding='utf-8'?>
<svg xmlns="http://www.w3.org/2000/svg" version="1.1" viewBox="0 0 1024 1024"><g transform="scale(1, -1) translate(0, -900)"><path d="M 646 85 Q 674 121 706 170 Q 721 191 742 203 Q 755 207 755 215 Q 756 225 735 240 Q 710 259 698 261 Q 689 262 681 257 Q 624 239 586 238 C 556 236 540 226 569 218 Q 594 206 646 223 Q 664 227 670 221 Q 676 217 656 176 Q 640 143 614 110 L 594 86 Q 519 5 414 -33 Q 407 -36 407 -40 Q 407 -44 412 -44 Q 517 -50 623 59 L 646 85 Z" fill="black" /></g></svg>