<?xml version='1.0' encoding='utf-8'?>
<svg xmlns="http://www.w3.org/2000/svg" version="1.1" viewBox="0 0 1024 1024"><g transform="scale(1, -1) translate(0, -900)"><path d="M 337 389 Q 340 233 305 138 Q 299 123 290 122 Q 278 119 244 127 Q 211 139 206 132 Q 202 126 212 112 Q 246 75 268 41 Q 287 10 298 11 Q 307 10 324 28 Q 400 116 388 382 Q 387 389 387 395 Q 383 488 361 556 Q 354 577 346 593 L 317 642 Q 275 699 194 732 Q 179 739 175 727 Q 171 712 180 691 Q 190 670 209 667 Q 242 658 284 597 L 308 551 Q 318 523 326 482 L 337 389 Z" fill="black" /></g></svg>