<?xml version='1.0' encoding='utf-8'?>
<svg xmlns="http://www.w3.org/2000/svg" version="1.1" viewBox="0 0 1024 1024"><g transform="scale(1, -1) translate(0, -900)"><path d="M 273 331 Q 267 175 246 97 Q 234 57 260 -6 Q 266 -24 274 -27 Q 280 -34 288 -25 Q 315 -9 316 57 Q 315 96 320 368 L 321 394 Q 322 451 324 515 L 325 564 Q 325 666 346 736 Q 361 761 335 779 Q 319 791 290 809 Q 266 827 245 811 Q 241 807 246 790 Q 279 742 279 693 Q 279 623 279 545 L 278 501 Q 277 437 274 367 L 273 331 Z" fill="black" /></g></svg>