<?xml version='1.0' encoding='utf-8'?>
<svg xmlns="http://www.w3.org/2000/svg" version="1.1" viewBox="0 0 1024 1024"><g transform="scale(1, -1) translate(0, -900)"><path d="M 428 179 Q 428 140 402 119 Q 384 103 408 83 Q 415 77 430 88 Q 460 122 513 123 Q 526 123 530 117 Q 542 99 526 56 Q 510 28 497 17 Q 491 14 437 30 Q 425 34 426 26 Q 427 17 438 8 Q 460 -16 473 -38 Q 483 -51 496 -44 Q 529 -26 551 21 Q 582 103 585 105 Q 594 117 587 124 Q 580 137 558 149 Q 540 159 486 137 Q 456 130 455 130 Q 454 131 456 133 Q 471 169 468 177 Q 467 181 462 186 C 448 213 430 209 428 179 Z" fill="black" /></g></svg>