<?xml version='1.0' encoding='utf-8'?>
<svg xmlns="http://www.w3.org/2000/svg" version="1.1" viewBox="0 0 1024 1024"><g transform="scale(1, -1) translate(0, -900)"><path d="M 720 121 Q 766 33 843 -25 Q 907 -59 924 -47 Q 940 -40 934 -8 Q 927 23 926 133 Q 927 151 922 154 Q 919 155 914 139 Q 890 51 872 36 Q 863 32 838 51 Q 775 102 748 154 L 724 202 Q 687 283 676 374 L 675 414 Q 676 438 680 453 Q 687 475 651 493 Q 623 509 608 505 Q 592 504 601 481 Q 613 463 630 401 L 636 368 Q 660 251 699 163 L 720 121 Z" fill="black" /></g></svg>