<?xml version='1.0' encoding='utf-8'?>
<svg xmlns="http://www.w3.org/2000/svg" version="1.1" viewBox="0 0 1024 1024"><g transform="scale(1, -1) translate(0, -900)"><path d="M 267 355 Q 267 428 269 516 L 269 563 Q 269 669 289 737 Q 301 761 274 780 Q 259 790 235 805 Q 213 821 194 807 Q 190 801 195 787 Q 228 738 229 689 Q 229 622 230 546 L 230 503 Q 229 419 226 328 L 225 288 Q 225 174 199 84 Q 190 48 213 -11 Q 220 -27 227 -31 Q 233 -37 240 -30 Q 247 -26 257 -5 Q 266 17 265 47 Q 264 84 266 323 L 267 355 Z" fill="black" /></g></svg>