<?xml version='1.0' encoding='utf-8'?>
<svg xmlns="http://www.w3.org/2000/svg" version="1.1" viewBox="0 0 1024 1024"><g transform="scale(1, -1) translate(0, -900)"><path d="M 979 80 Q 964 111 942 201 Q 941 217 933 222 Q 926 225 923 207 Q 899 110 882 79 Q 857 45 759 50 Q 722 53 693 67 Q 668 80 660 97 Q 630 155 663 356 Q 669 386 618 407 Q 605 411 596 406 Q 589 402 594 384 Q 607 344 605 305 Q 595 127 610 77 Q 616 52 637 32 Q 719 -37 879 -7 Q 888 -4 898 -3 Q 937 9 974 36 Q 993 54 979 80 Z" fill="black" /></g></svg>