<?xml version='1.0' encoding='utf-8'?>
<svg xmlns="http://www.w3.org/2000/svg" version="1.1" viewBox="0 0 1024 1024"><g transform="scale(1, -1) translate(0, -900)"><path d="M 721 407 Q 742 449 757 602 Q 767 657 802 693 Q 820 712 801 726 Q 780 742 725 763 Q 713 769 656 752 Q 611 742 545 721 Q 499 706 469 700 Q 451 699 449 693 Q 446 687 464 676 Q 501 660 523 670 Q 568 688 672 710 Q 691 713 698 710 Q 714 703 710 655 Q 694 477 682 441 Q 673 416 686 402 C 697 374 710 379 721 407 Z" fill="black" /></g></svg>