<?xml version='1.0' encoding='utf-8'?>
<svg xmlns="http://www.w3.org/2000/svg" version="1.1" viewBox="0 0 1024 1024"><g transform="scale(1, -1) translate(0, -900)"><path d="M 312 400 Q 322 219 288 113 Q 284 100 276 100 Q 258 94 206 100 Q 173 107 169 101 Q 166 94 178 82 Q 227 48 259 16 Q 275 -6 283 -6 Q 290 -7 305 7 Q 392 110 357 426 Q 351 462 344 491 Q 329 546 309 582 L 279 624 Q 234 681 171 709 Q 158 719 152 707 Q 148 692 154 672 Q 161 651 180 646 Q 211 633 247 582 L 271 542 Q 287 509 296 480 L 312 400 Z" fill="black" /></g></svg>