<?xml version='1.0' encoding='utf-8'?>
<svg xmlns="http://www.w3.org/2000/svg" version="1.1" viewBox="0 0 1024 1024"><g transform="scale(1, -1) translate(0, -900)"><path d="M 314 407 Q 329 247 281 115 Q 274 99 263 95 Q 244 92 194 105 Q 163 115 158 108 Q 154 102 165 89 Q 213 52 244 16 Q 263 -11 272 -10 Q 282 -11 302 10 Q 368 88 369 309 Q 369 357 364 407 Q 352 536 313 607 L 284 647 Q 235 701 155 725 Q 140 731 138 719 Q 135 703 145 685 Q 157 666 176 664 Q 216 652 252 607 L 277 569 Q 289 542 302 490 L 314 407 Z" fill="black" /></g></svg>