<?xml version='1.0' encoding='utf-8'?>
<svg xmlns="http://www.w3.org/2000/svg" version="1.1" viewBox="0 0 1024 1024"><g transform="scale(1, -1) translate(0, -900)"><path d="M 343 282 Q 349 149 301 60 Q 295 50 288 49 Q 275 46 237 55 Q 210 65 205 60 Q 202 54 211 43 Q 244 9 265 -21 Q 277 -43 285 -43 Q 292 -44 308 -31 Q 381 47 387 225 Q 387 342 336 425 Q 333 428 332 430 L 296 470 Q 254 512 200 536 Q 187 543 183 533 Q 180 520 186 503 Q 193 485 210 482 Q 243 467 270 434 L 300 397 Q 306 391 322 355 L 343 282 Z" fill="black" /></g></svg>