<?xml version='1.0' encoding='utf-8'?>
<svg xmlns="http://www.w3.org/2000/svg" version="1.1" viewBox="0 0 1024 1024"><g transform="scale(1, -1) translate(0, -900)"><path d="M 970 66 Q 951 111 940 188 Q 937 204 930 210 Q 921 216 917 194 Q 899 100 885 82 Q 864 60 782 52 Q 736 51 716 57 Q 698 64 693 76 Q 681 112 683 203 Q 692 303 712 350 Q 725 381 707 400 Q 655 442 639 438 Q 623 432 630 414 Q 649 374 643 316 Q 628 81 658 42 Q 676 18 738 7 Q 784 0 859 2 Q 926 3 953 18 Q 983 34 970 66 Z" fill="black" /></g></svg>