<?xml version='1.0' encoding='utf-8'?>
<svg xmlns="http://www.w3.org/2000/svg" version="1.1" viewBox="0 0 1024 1024"><g transform="scale(1, -1) translate(0, -900)"><path d="M 765 169 Q 796 377 828 516 Q 835 552 856 573 Q 871 589 858 609 Q 848 622 796 658 Q 778 673 717 649 Q 579 613 485 610 Q 467 610 468 603 Q 469 591 492 577 Q 513 562 550 571 L 588 579 Q 691 603 740 607 Q 762 611 768 603 Q 774 590 769 562 Q 757 480 746 405 L 740 365 Q 724 256 709 162 C 704 132 761 139 765 169 Z" fill="black" /></g></svg>