<?xml version='1.0' encoding='utf-8'?>
<svg xmlns="http://www.w3.org/2000/svg" version="1.1" viewBox="0 0 1024 1024"><g transform="scale(1, -1) translate(0, -900)"><path d="M 324 410 Q 339 215 297 102 Q 290 87 282 86 Q 263 82 208 97 Q 174 107 170 101 Q 166 94 177 81 Q 228 41 261 2 Q 280 -26 290 -25 Q 299 -26 316 -9 Q 403 93 373 426 Q 366 475 353 516 Q 338 562 317 594 L 285 634 Q 239 686 170 712 Q 155 719 151 707 Q 147 692 155 671 Q 165 650 185 647 Q 221 632 253 590 L 279 552 Q 294 527 308 489 L 324 410 Z" fill="black" /></g></svg>