<?xml version='1.0' encoding='utf-8'?>
<svg xmlns="http://www.w3.org/2000/svg" version="1.1" viewBox="0 0 1024 1024"><g transform="scale(1, -1) translate(0, -900)"><path d="M 922 115 Q 906 140 879 221 Q 878 237 869 242 Q 862 245 860 226 Q 841 136 825 108 Q 783 60 650 65 Q 598 66 557 84 Q 520 102 511 124 Q 487 175 496 278 L 499 308 Q 502 360 512 416 C 516 438 516 438 506 445 Q 493 458 470 467 Q 457 471 449 466 Q 442 462 448 444 Q 461 407 458 369 Q 446 162 463 105 Q 469 77 496 53 Q 586 -16 782 12 Q 801 16 821 21 Q 870 36 918 69 Q 937 88 922 115 Z" fill="black" /></g></svg>