<?xml version='1.0' encoding='utf-8'?>
<svg xmlns="http://www.w3.org/2000/svg" version="1.1" viewBox="0 0 1024 1024"><g transform="scale(1, -1) translate(0, -900)"><path d="M 335 421 Q 348 232 312 121 Q 306 106 298 105 Q 282 101 236 107 Q 202 116 197 109 Q 194 102 206 89 Q 251 53 279 20 Q 298 -5 307 -5 Q 314 -6 331 10 Q 413 119 384 438 Q 377 487 365 528 Q 352 571 333 603 L 304 644 Q 259 701 179 735 Q 163 744 159 731 Q 155 716 163 695 Q 173 674 192 670 Q 231 654 268 603 L 293 564 Q 306 540 315 516 L 335 421 Z" fill="black" /></g></svg>