<?xml version='1.0' encoding='utf-8'?>
<svg xmlns="http://www.w3.org/2000/svg" version="1.1" viewBox="0 0 1024 1024"><g transform="scale(1, -1) translate(0, -900)"><path d="M 525 567 Q 556 552 572 557 Q 755 605 767 590 Q 777 577 772 540 Q 766 437 743 391 Q 727 358 697 362 Q 679 365 664 369 Q 639 378 656 352 Q 692 312 707 281 Q 726 260 745 278 Q 773 300 795 338 Q 819 383 834 520 Q 840 569 857 593 Q 869 606 862 616 Q 853 628 802 649 Q 781 656 763 643 Q 714 613 544 591 C 514 587 497 578 525 567 Z" fill="black" /></g></svg>