<?xml version='1.0' encoding='utf-8'?>
<svg xmlns="http://www.w3.org/2000/svg" version="1.1" viewBox="0 0 1024 1024"><g transform="scale(1, -1) translate(0, -900)"><path d="M 322 373 Q 331 217 297 106 Q 290 87 279 84 Q 263 80 220 90 Q 189 99 185 92 Q 182 86 193 74 Q 236 40 263 8 Q 282 -17 292 -16 Q 302 -17 322 6 Q 388 93 376 329 Q 367 485 328 588 L 300 643 Q 273 692 170 725 Q 154 729 153 718 Q 152 703 162 686 Q 175 668 193 668 Q 238 656 270 602 L 291 550 Q 304 510 312 463 L 322 373 Z" fill="black" /></g></svg>