<?xml version='1.0' encoding='utf-8'?>
<svg xmlns="http://www.w3.org/2000/svg" version="1.1" viewBox="0 0 1024 1024"><g transform="scale(1, -1) translate(0, -900)"><path d="M 767 292 Q 758 267 773 244 Q 788 213 798 214 Q 813 215 830 250 Q 845 278 844 300 Q 829 408 831 575 Q 830 624 857 665 Q 867 681 860 692 Q 832 717 783 739 Q 767 745 743 737 Q 640 695 524 695 C 494 694 520 660 550 665 Q 551 666 556 666 Q 611 675 653 682 Q 740 698 759 686 Q 772 656 777 577 Q 780 337 767 292 Z" fill="black" /></g></svg>