<?xml version='1.0' encoding='utf-8'?>
<svg xmlns="http://www.w3.org/2000/svg" version="1.1" viewBox="0 0 1024 1024"><g transform="scale(1, -1) translate(0, -900)"><path d="M 605 72 Q 593 30 620 -27 Q 627 -43 635 -47 Q 641 -54 648 -46 Q 675 -22 674 34 Q 673 74 673 349 L 673 380 Q 673 431 674 487 L 674 523 Q 674 551 675 580 Q 675 607 676 630 L 678 666 Q 682 714 694 750 Q 703 766 700 778 Q 693 788 639 821 Q 615 837 595 822 Q 591 818 597 802 Q 631 751 632 700 Q 632 678 633 651 L 634 619 Q 635 582 636 540 Q 635 527 635 512 L 634 479 Q 633 427 632 371 L 632 340 Q 631 285 631 228 Q 627 147 605 72 Z" fill="black" /></g></svg>