<?xml version='1.0' encoding='utf-8'?>
<svg xmlns="http://www.w3.org/2000/svg" version="1.1" viewBox="0 0 1024 1024"><g transform="scale(1, -1) translate(0, -900)"><path d="M 673 349 Q 707 358 753 365 Q 799 375 818 373 Q 831 373 837 362 Q 844 347 815 227 Q 811 209 793 211 Q 771 211 743 211 Q 718 215 738 195 Q 786 158 796 138 Q 803 128 816 130 Q 828 131 840 145 Q 861 172 877 234 Q 886 313 914 346 Q 930 365 917 376 Q 892 398 858 416 Q 846 425 773 403 Q 704 390 673 380 L 632 371 Q 586 361 552 351 L 509 339 Q 493 336 483 332 Q 455 325 440 325 Q 433 326 434 340 Q 440 416 451 437 C 457 458 457 458 443 468 Q 430 481 407 489 Q 395 496 387 488 Q 380 482 390 466 Q 403 444 397 409 Q 387 340 370 313 Q 361 297 372 282 Q 382 260 395 254 Q 405 250 425 267 Q 447 288 505 308 L 550 321 Q 583 331 632 340 L 673 349 Z" fill="black" /></g></svg>