<?xml version='1.0' encoding='utf-8'?>
<svg xmlns="http://www.w3.org/2000/svg" version="1.1" viewBox="0 0 1024 1024"><g transform="scale(1, -1) translate(0, -900)"><path d="M 759 355 Q 775 330 792 321 Q 804 312 820 335 Q 839 369 878 553 Q 888 587 913 613 Q 928 626 915 642 Q 899 661 852 690 Q 833 699 764 683 Q 673 670 581 654 Q 520 644 471 635 C 441 630 453 589 482 597 Q 485 601 593 621 L 653 630 Q 702 639 760 646 Q 799 650 810 637 Q 828 616 824 596 Q 793 427 778 401 Q 774 389 761 385 C 746 372 746 372 759 355 Z" fill="black" /></g></svg>