<?xml version='1.0' encoding='utf-8'?>
<svg xmlns="http://www.w3.org/2000/svg" version="1.1" viewBox="0 0 1024 1024"><g transform="scale(1, -1) translate(0, -900)"><path d="M 513 529 Q 558 511 590 522 Q 617 534 755 567 Q 774 570 783 561 Q 802 540 802 492 Q 805 341 793 242 Q 768 85 738 71 Q 731 67 648 85 Q 612 94 610 89 Q 606 82 625 68 Q 677 25 705 -15 Q 724 -45 741 -40 Q 789 -25 828 95 Q 852 177 870 448 Q 873 518 892 541 Q 911 563 886 582 Q 802 633 742 606 Q 637 573 531 550 C 502 543 484 538 513 529 Z" fill="black" /></g></svg>