<?xml version='1.0' encoding='utf-8'?>
<svg xmlns="http://www.w3.org/2000/svg" version="1.1" viewBox="0 0 1024 1024"><g transform="scale(1, -1) translate(0, -900)"><path d="M 281 402 Q 293 227 256 113 Q 250 97 241 95 Q 228 94 195 106 Q 167 118 162 112 Q 158 106 167 94 Q 201 58 222 27 Q 241 -1 251 -1 Q 260 -4 276 16 Q 331 82 332 313 Q 326 487 294 589 L 272 640 Q 223 704 160 730 Q 147 737 143 725 Q 140 712 147 694 Q 156 676 173 673 Q 212 657 243 597 L 260 550 Q 267 522 272 489 L 281 402 Z" fill="black" /></g></svg>