<?xml version='1.0' encoding='utf-8'?>
<svg xmlns="http://www.w3.org/2000/svg" version="1.1" viewBox="0 0 1024 1024"><g transform="scale(1, -1) translate(0, -900)"><path d="M 557 631 Q 557 671 574 717 Q 578 730 569 739 Q 550 754 515 762 Q 493 766 486 761 Q 479 754 485 744 Q 507 713 511 673 Q 512 648 514 621 L 516 589 Q 517 537 517 483 L 516 454 Q 515 426 514 398 Q 513 370 509 339 L 505 308 Q 484 166 388 65 Q 379 58 380 53 Q 381 50 391 52 Q 401 49 428 65 Q 530 122 550 321 L 552 351 Q 555 417 555 463 L 555 491 Q 555 546 556 599 L 557 631 Z" fill="black" /></g></svg>