<?xml version='1.0' encoding='utf-8'?>
<svg xmlns="http://www.w3.org/2000/svg" version="1.1" viewBox="0 0 1024 1024"><g transform="scale(1, -1) translate(0, -900)"><path d="M 324 379 Q 331 219 290 108 Q 283 92 273 90 Q 255 86 204 94 Q 173 103 169 96 Q 166 90 177 78 Q 225 44 256 11 Q 272 -11 281 -11 Q 290 -12 308 7 Q 392 95 371 392 Q 362 512 324 594 L 296 635 Q 248 690 176 715 Q 161 722 158 710 Q 157 697 164 677 Q 174 658 193 656 Q 235 643 266 595 L 290 555 Q 303 521 314 470 L 324 379 Z" fill="black" /></g></svg>