<?xml version='1.0' encoding='utf-8'?>
<svg xmlns="http://www.w3.org/2000/svg" version="1.1" viewBox="0 0 1024 1024"><g transform="scale(1, -1) translate(0, -900)"><path d="M 294 387 Q 300 231 262 116 Q 256 100 248 100 Q 233 96 194 104 Q 163 114 158 108 Q 154 102 165 89 Q 202 53 227 20 Q 245 -7 255 -6 Q 262 -9 279 9 Q 375 138 333 490 Q 324 544 308 590 L 285 640 Q 248 715 159 757 Q 146 767 140 755 Q 136 740 142 720 Q 149 699 168 694 Q 214 669 247 601 Q 248 600 249 597 L 269 552 Q 278 524 286 475 L 294 387 Z" fill="black" /></g></svg>