<?xml version='1.0' encoding='utf-8'?>
<svg xmlns="http://www.w3.org/2000/svg" version="1.1" viewBox="0 0 1024 1024"><g transform="scale(1, -1) translate(0, -900)"><path d="M 518 422 Q 519 432 519 441 L 519 474 Q 519 522 518 565 L 517 593 Q 518 636 526 673 Q 527 680 527 685 C 529 697 523 701 497 716 Q 484 726 472 731 Q 453 738 444 732 Q 434 725 443 710 Q 503 587 459 160 Q 456 111 415 59 Q 402 43 410 20 Q 420 -8 434 -19 Q 447 -28 459 -10 Q 478 21 643 144 Q 662 157 668 166 Q 672 176 662 176 Q 650 176 522 112 Q 507 105 506 119 Q 516 264 518 390 L 518 422 Z" fill="black" /></g></svg>