<?xml version='1.0' encoding='utf-8'?>
<svg xmlns="http://www.w3.org/2000/svg" version="1.1" viewBox="0 0 1024 1024"><g transform="scale(1, -1) translate(0, -900)"><path d="M 324 414 Q 336 219 301 111 Q 295 96 287 95 Q 268 92 218 105 Q 187 115 182 108 Q 178 102 189 89 Q 237 52 268 16 Q 286 -11 296 -10 Q 303 -11 320 5 Q 399 116 371 423 Q 364 471 352 511 Q 331 581 308 604 L 277 639 Q 238 685 166 715 Q 151 722 147 711 Q 143 696 151 676 Q 161 657 179 652 Q 215 640 245 600 L 271 565 Q 286 550 307 489 L 324 414 Z" fill="black" /></g></svg>