<?xml version='1.0' encoding='utf-8'?>
<svg xmlns="http://www.w3.org/2000/svg" version="1.1" viewBox="0 0 1024 1024"><g transform="scale(1, -1) translate(0, -900)"><path d="M 319 379 Q 332 214 288 96 Q 282 83 275 82 Q 259 81 220 97 Q 187 110 182 104 Q 178 98 188 84 Q 225 41 250 4 Q 269 -29 281 -28 Q 288 -31 304 -14 Q 371 58 373 305 Q 372 317 372 329 Q 371 417 353 483 Q 337 544 314 585 L 285 630 Q 228 699 164 730 Q 149 740 144 727 Q 140 712 145 691 Q 152 669 173 664 Q 215 643 253 582 L 277 538 Q 293 505 302 475 L 319 379 Z" fill="black" /></g></svg>