<?xml version='1.0' encoding='utf-8'?>
<svg xmlns="http://www.w3.org/2000/svg" version="1.1" viewBox="0 0 1024 1024"><g transform="scale(1, -1) translate(0, -900)"><path d="M 293 427 Q 305 249 264 132 Q 258 119 251 118 Q 235 114 188 125 Q 154 135 150 128 Q 146 122 157 109 Q 200 70 229 35 Q 247 7 257 8 Q 264 5 280 21 Q 364 120 341 459 Q 335 495 329 527 Q 316 585 296 621 L 266 668 Q 215 726 173 749 Q 160 759 153 747 Q 147 732 153 711 Q 160 689 179 683 Q 209 668 234 622 L 258 577 Q 273 543 281 510 L 293 427 Z" fill="black" /></g></svg>