<?xml version='1.0' encoding='utf-8'?>
<svg xmlns="http://www.w3.org/2000/svg" version="1.1" viewBox="0 0 1024 1024"><g transform="scale(1, -1) translate(0, -900)"><path d="M 687 192 Q 736 92 816 25 Q 880 -21 910 -19 Q 929 -13 921 15 Q 915 66 916 212 Q 915 234 907 234 Q 904 234 866 137 Q 850 91 821 106 Q 814 112 805 119 Q 759 167 720 234 L 696 289 Q 660 383 638 509 L 630 560 Q 621 635 628 704 Q 640 747 580 769 Q 543 785 521 776 Q 499 769 511 747 Q 562 704 563 669 Q 573 602 583 542 L 592 497 Q 619 352 665 242 L 687 192 Z" fill="black" /></g></svg>