<?xml version='1.0' encoding='utf-8'?>
<svg xmlns="http://www.w3.org/2000/svg" version="1.1" viewBox="0 0 1024 1024"><g transform="scale(1, -1) translate(0, -900)"><path d="M 309 377 Q 312 221 271 118 Q 264 103 256 102 Q 240 98 192 106 Q 158 116 154 109 Q 150 102 162 89 Q 205 52 234 17 Q 250 -8 261 -8 Q 268 -9 287 8 Q 365 89 361 357 Q 360 363 360 369 Q 356 492 326 559 L 301 610 Q 262 676 172 719 Q 168 722 163 723 Q 147 732 143 719 Q 139 704 147 683 Q 157 662 176 658 Q 215 645 258 577 Q 258 576 265 564 L 287 519 Q 291 504 300 462 L 309 377 Z" fill="black" /></g></svg>