<?xml version='1.0' encoding='utf-8'?>
<svg xmlns="http://www.w3.org/2000/svg" version="1.1" viewBox="0 0 1024 1024"><g transform="scale(1, -1) translate(0, -900)"><path d="M 290 421 Q 309 315 272 165 Q 268 150 262 133 Q 258 118 249 118 Q 231 117 184 134 Q 154 146 150 140 Q 146 134 155 121 Q 200 81 228 45 Q 246 17 257 17 Q 264 14 280 31 Q 364 143 330 478 Q 324 515 316 546 Q 306 580 293 605 L 269 643 Q 230 694 166 725 Q 153 734 148 722 Q 144 709 150 689 Q 157 670 176 665 Q 207 652 238 604 L 257 567 Q 264 552 277 506 L 290 421 Z" fill="black" /></g></svg>