<?xml version='1.0' encoding='utf-8'?>
<svg xmlns="http://www.w3.org/2000/svg" version="1.1" viewBox="0 0 1024 1024"><g transform="scale(1, -1) translate(0, -900)"><path d="M 726 143 Q 626 127 521 109 Q 514 108 511 110 Q 510 111 514 118 Q 577 220 602 246 Q 615 261 605 268 Q 598 277 576 281 C 547 289 530 294 530 272 Q 530 229 526 215 Q 525 214 524 211 Q 491 132 429 92 Q 395 77 410 41 Q 411 40 413 36 Q 423 18 436 14 Q 443 11 453 17 Q 538 71 738 126 C 767 134 756 148 726 143 Z" fill="black" /></g></svg>