<?xml version='1.0' encoding='utf-8'?>
<svg xmlns="http://www.w3.org/2000/svg" version="1.1" viewBox="0 0 1024 1024"><g transform="scale(1, -1) translate(0, -900)"><path d="M 290 380 Q 302 226 260 107 Q 253 89 243 87 Q 227 86 182 99 Q 151 111 146 104 Q 142 98 152 85 Q 195 46 222 10 Q 243 -20 253 -19 Q 263 -20 283 2 Q 346 80 346 308 Q 336 483 302 572 L 280 617 Q 247 677 144 714 Q 138 717 135 717 Q 119 723 117 711 Q 116 695 126 677 Q 138 658 157 657 Q 214 641 246 576 L 264 532 Q 274 496 282 456 L 290 380 Z" fill="black" /></g></svg>