<?xml version='1.0' encoding='utf-8'?>
<svg xmlns="http://www.w3.org/2000/svg" version="1.1" viewBox="0 0 1024 1024"><g transform="scale(1, -1) translate(0, -900)"><path d="M 328 398 Q 328 397 329 392 Q 345 242 303 114 Q 297 99 288 97 Q 272 96 228 111 Q 198 121 194 116 Q 190 110 200 98 Q 242 59 268 24 Q 287 -4 298 -3 Q 305 -4 323 13 Q 413 133 369 446 Q 360 495 347 534 Q 337 567 321 590 L 292 627 Q 250 673 180 699 Q 165 706 162 694 Q 161 681 168 661 Q 178 642 196 640 Q 229 631 261 589 L 287 553 Q 303 522 314 480 L 328 398 Z" fill="black" /></g></svg>