<?xml version='1.0' encoding='utf-8'?>
<svg xmlns="http://www.w3.org/2000/svg" version="1.1" viewBox="0 0 1024 1024"><g transform="scale(1, -1) translate(0, -900)"><path d="M 890 439 Q 868 476 849 541 Q 845 553 840 556 Q 833 562 830 548 Q 809 464 790 451 Q 775 436 706 442 Q 666 448 657 468 Q 650 489 657 573 L 660 596 Q 669 681 679 711 Q 688 730 661 750 Q 639 765 621 775 Q 605 787 589 777 Q 579 773 597 747 Q 618 717 618 610 Q 611 453 630 423 Q 648 384 781 385 Q 832 386 871 403 Q 902 415 890 439 Z" fill="black" /></g></svg>