<?xml version='1.0' encoding='utf-8'?>
<svg xmlns="http://www.w3.org/2000/svg" version="1.1" viewBox="0 0 1024 1024"><g transform="scale(1, -1) translate(0, -900)"><path d="M 292 398 Q 304 235 256 113 Q 249 97 237 94 Q 227 93 196 101 Q 168 114 162 108 Q 158 102 167 89 Q 197 53 215 22 Q 234 -8 244 -7 Q 254 -8 274 13 Q 343 94 345 299 Q 345 383 334 446 L 329 475 Q 319 535 293 580 L 264 618 Q 224 663 142 688 Q 127 694 125 682 Q 124 667 133 650 Q 145 631 163 631 Q 208 616 235 577 L 260 540 Q 267 524 280 480 L 292 398 Z" fill="black" /></g></svg>