<?xml version='1.0' encoding='utf-8'?>
<svg xmlns="http://www.w3.org/2000/svg" version="1.1" viewBox="0 0 1024 1024"><g transform="scale(1, -1) translate(0, -900)"><path d="M 755 497 Q 786 504 819 508 Q 844 508 845 491 Q 857 349 841 330 Q 832 324 778 338 Q 763 342 761 337 Q 758 333 768 323 Q 820 286 852 255 Q 865 243 878 257 Q 906 299 900 376 Q 894 445 901 499 Q 904 518 895 525 Q 870 546 854 555 Q 842 559 834 551 Q 830 544 755 524 L 708 515 Q 674 509 622 500 C 592 495 604 466 634 471 Q 640 471 648 473 Q 678 482 708 488 L 755 497 Z" fill="black" /></g></svg>