<?xml version='1.0' encoding='utf-8'?>
<svg xmlns="http://www.w3.org/2000/svg" version="1.1" viewBox="0 0 1024 1024"><g transform="scale(1, -1) translate(0, -900)"><path d="M 309 400 Q 321 217 275 100 Q 269 85 261 85 Q 242 81 190 96 Q 159 106 154 100 Q 150 94 161 81 Q 207 42 239 5 Q 255 -22 266 -21 Q 273 -24 291 -7 Q 384 119 357 414 Q 351 463 341 502 Q 326 557 304 592 Q 303 593 302 593 L 272 633 Q 229 684 171 710 Q 156 719 152 707 Q 148 692 154 672 Q 161 651 181 647 Q 214 632 241 593 L 265 553 Q 280 528 296 480 L 309 400 Z" fill="black" /></g></svg>