<?xml version='1.0' encoding='utf-8'?>
<svg xmlns="http://www.w3.org/2000/svg" version="1.1" viewBox="0 0 1024 1024"><g transform="scale(1, -1) translate(0, -900)"><path d="M 357 391 Q 345 509 308 575 L 280 617 Q 232 677 166 702 Q 153 711 147 699 Q 143 684 151 664 Q 160 643 178 640 Q 205 628 248 576 L 271 536 Q 286 506 293 478 L 308 396 Q 323 222 281 103 Q 275 88 268 88 Q 250 87 206 102 Q 175 115 170 108 Q 166 102 176 89 Q 219 49 245 11 Q 264 -19 275 -18 Q 282 -19 299 -3 Q 372 81 360 350 Q 359 363 358 376 L 357 391 Z" fill="black" /></g></svg>