<?xml version='1.0' encoding='utf-8'?>
<svg xmlns="http://www.w3.org/2000/svg" version="1.1" viewBox="0 0 1024 1024"><g transform="scale(1, -1) translate(0, -900)"><path d="M 329 390 Q 339 231 293 110 Q 286 94 276 92 Q 257 88 202 101 Q 171 111 165 104 Q 162 98 173 85 Q 224 48 256 11 Q 274 -14 283 -14 Q 292 -15 312 5 Q 397 104 380 363 Q 379 369 379 375 Q 370 516 319 586 L 286 624 Q 237 669 164 693 Q 148 699 146 687 Q 143 671 153 653 Q 165 634 184 632 Q 214 625 254 584 L 283 549 Q 301 522 316 472 L 329 390 Z" fill="black" /></g></svg>