<?xml version='1.0' encoding='utf-8'?>
<svg xmlns="http://www.w3.org/2000/svg" version="1.1" viewBox="0 0 1024 1024"><g transform="scale(1, -1) translate(0, -900)"><path d="M 313 410 Q 325 250 282 126 Q 275 107 262 102 Q 244 102 198 122 Q 167 135 162 128 Q 158 122 168 109 Q 213 66 241 28 Q 262 -3 274 -3 Q 284 -3 306 21 Q 376 118 371 338 Q 368 387 361 438 Q 348 538 316 607 Q 315 610 313 611 L 284 655 Q 227 712 137 734 Q 121 738 120 726 Q 120 711 131 693 Q 144 675 164 676 Q 201 667 255 613 L 278 570 Q 293 533 302 489 L 313 410 Z" fill="black" /></g></svg>