<?xml version='1.0' encoding='utf-8'?>
<svg xmlns="http://www.w3.org/2000/svg" version="1.1" viewBox="0 0 1024 1024"><g transform="scale(1, -1) translate(0, -900)"><path d="M 550 409 Q 559 410 685 440 Q 706 446 711 435 Q 730 390 731 136 Q 731 82 722 66 Q 718 60 698 64 Q 677 67 656 70 Q 635 77 636 67 Q 685 19 713 -16 Q 726 -35 743 -41 Q 753 -45 762 -34 Q 807 24 799 103 Q 772 379 789 416 Q 790 420 793 424 Q 805 445 792 455 Q 770 474 730 489 Q 711 496 695 489 Q 632 455 531 439 C 501 434 521 403 550 409 Z" fill="black" /></g></svg>