<?xml version='1.0' encoding='utf-8'?>
<svg xmlns="http://www.w3.org/2000/svg" version="1.1" viewBox="0 0 1024 1024"><g transform="scale(1, -1) translate(0, -900)"><path d="M 650 141 Q 650 199 650 254 L 650 298 Q 650 353 651 405 L 651 444 Q 651 487 652 529 L 653 567 Q 653 589 654 605 Q 661 623 651 632 Q 636 647 621 655 C 596 671 566 675 580 648 Q 589 630 597 616 Q 606 595 606 553 L 607 521 Q 607 490 607 434 L 607 399 Q 607 351 607 288 L 607 246 Q 607 197 607 137 C 607 107 650 111 650 141 Z" fill="black" /></g></svg>