<?xml version='1.0' encoding='utf-8'?>
<svg xmlns="http://www.w3.org/2000/svg" version="1.1" viewBox="0 0 1024 1024"><g transform="scale(1, -1) translate(0, -900)"><path d="M 313 374 Q 331 272 295 133 Q 291 118 285 103 Q 279 90 272 88 Q 260 84 226 89 Q 195 99 190 92 Q 186 86 197 73 Q 231 39 252 8 Q 270 -19 279 -18 Q 286 -19 303 -3 Q 376 75 364 340 Q 357 488 307 568 L 277 607 Q 223 661 162 687 Q 147 694 143 683 Q 139 668 147 648 Q 157 629 175 624 Q 208 612 244 566 L 270 527 Q 289 493 298 462 L 313 374 Z" fill="black" /></g></svg>