<?xml version='1.0' encoding='utf-8'?>
<svg xmlns="http://www.w3.org/2000/svg" version="1.1" viewBox="0 0 1024 1024"><g transform="scale(1, -1) translate(0, -900)"><path d="M 319 403 Q 341 247 292 120 Q 286 107 279 106 Q 261 103 212 116 Q 179 126 174 120 Q 170 114 181 100 Q 227 60 257 23 Q 275 -5 286 -4 Q 293 -5 309 10 Q 378 83 375 333 Q 374 340 374 345 Q 371 498 312 585 L 280 625 Q 222 683 163 707 Q 148 716 143 703 Q 139 688 147 667 Q 157 646 176 642 Q 206 630 248 582 L 274 541 Q 289 516 299 492 L 319 403 Z" fill="black" /></g></svg>