<?xml version='1.0' encoding='utf-8'?>
<svg xmlns="http://www.w3.org/2000/svg" version="1.1" viewBox="0 0 1024 1024"><g transform="scale(1, -1) translate(0, -900)"><path d="M 511 656 Q 493 671 477 678 Q 458 685 450 679 Q 440 672 449 657 Q 506 548 474 139 Q 473 91 435 41 Q 425 25 432 4 Q 442 -23 456 -33 Q 469 -40 480 -24 Q 495 4 634 128 Q 652 141 656 150 Q 660 160 650 160 Q 637 160 532 97 Q 522 90 520 101 Q 527 252 526 380 L 526 418 Q 525 467 524 509 L 523 533 Q 523 581 529 624 C 531 642 531 642 511 656 Z" fill="black" /></g></svg>