<?xml version='1.0' encoding='utf-8'?>
<svg xmlns="http://www.w3.org/2000/svg" version="1.1" viewBox="0 0 1024 1024"><g transform="scale(1, -1) translate(0, -900)"><path d="M 302 384 Q 320 230 279 101 Q 275 88 267 87 Q 251 84 206 96 Q 175 106 170 100 Q 166 94 177 81 Q 220 44 247 9 Q 266 -19 276 -18 Q 283 -21 297 -5 Q 381 94 345 431 Q 339 468 332 499 Q 319 553 298 588 L 268 630 Q 220 685 171 709 Q 158 719 152 707 Q 148 692 153 672 Q 160 651 179 646 Q 209 631 237 588 L 260 548 Q 279 509 289 467 L 302 384 Z" fill="black" /></g></svg>