<?xml version='1.0' encoding='utf-8'?>
<svg xmlns="http://www.w3.org/2000/svg" version="1.1" viewBox="0 0 1024 1024"><g transform="scale(1, -1) translate(0, -900)"><path d="M 677 221 Q 670 100 680 65 Q 683 46 700 30 Q 758 -24 883 0 Q 887 1 892 2 Q 920 9 949 31 Q 967 44 955 68 Q 943 93 928 171 Q 927 186 921 190 Q 915 193 911 177 Q 887 95 871 68 Q 853 47 791 52 Q 767 53 749 63 Q 718 81 717 140 Q 720 197 733 269 Q 737 287 726 297 Q 713 310 690 319 Q 677 323 669 318 Q 662 314 668 297 Q 680 258 677 221 Z" fill="black" /></g></svg>