<?xml version='1.0' encoding='utf-8'?>
<svg xmlns="http://www.w3.org/2000/svg" version="1.1" viewBox="0 0 1024 1024"><g transform="scale(1, -1) translate(0, -900)"><path d="M 258 386 Q 270 250 239 135 Q 233 119 226 118 Q 207 117 162 135 Q 131 147 126 140 Q 122 134 132 121 Q 177 81 206 43 Q 227 12 239 13 Q 246 12 263 30 Q 312 96 314 321 Q 304 484 273 581 L 253 627 Q 217 688 132 720 Q 117 727 114 715 Q 111 700 121 680 Q 131 661 150 659 Q 198 640 219 584 L 234 541 Q 244 504 251 461 L 258 386 Z" fill="black" /></g></svg>