<?xml version='1.0' encoding='utf-8'?>
<svg xmlns="http://www.w3.org/2000/svg" version="1.1" viewBox="0 0 1024 1024"><g transform="scale(1, -1) translate(0, -900)"><path d="M 591 440 Q 591 383 612 366 Q 663 324 773 352 Q 797 359 821 376 Q 833 383 826 399 Q 819 415 812 464 Q 813 474 808 477 Q 805 480 801 469 Q 779 417 766 402 Q 759 395 738 389 Q 693 377 653 391 Q 638 398 635 406 Q 629 418 629 451 L 632 488 Q 635 507 640 529 Q 644 544 634 552 Q 625 561 603 570 C 582 580 582 580 584 566 Q 583 562 586 552 Q 592 531 593 474 L 591 440 Z" fill="black" /></g></svg>