<?xml version='1.0' encoding='utf-8'?>
<svg xmlns="http://www.w3.org/2000/svg" version="1.1" viewBox="0 0 1024 1024"><g transform="scale(1, -1) translate(0, -900)"><path d="M 285 388 Q 292 220 261 121 Q 257 106 248 105 Q 232 102 184 116 Q 154 126 150 120 Q 146 114 156 102 Q 201 65 229 30 Q 248 3 258 4 Q 265 3 280 19 Q 328 85 335 292 Q 335 448 307 550 Q 298 580 288 603 L 262 646 Q 223 698 158 729 Q 145 738 140 726 Q 136 713 142 693 Q 149 674 168 669 Q 201 654 231 604 L 253 564 Q 262 542 277 470 L 285 388 Z" fill="black" /></g></svg>