<?xml version='1.0' encoding='utf-8'?>
<svg xmlns="http://www.w3.org/2000/svg" version="1.1" viewBox="0 0 1024 1024"><g transform="scale(1, -1) translate(0, -900)"><path d="M 631 375 Q 631 424 631 472 L 631 509 Q 632 540 632 570 Q 631 577 631 583 L 631 622 Q 631 683 630 684 Q 621 691 609 699 C 585 716 567 723 576 694 Q 583 681 585 656 Q 585 634 586 609 L 586 574 Q 586 537 587 499 L 587 466 Q 587 418 586 368 L 586 296 Q 586 148 575 37 Q 572 -2 596 -34 Q 608 -47 617 -31 Q 642 17 635 60 Q 632 103 631 305 L 631 375 Z" fill="black" /></g></svg>