<?xml version='1.0' encoding='utf-8'?>
<svg xmlns="http://www.w3.org/2000/svg" version="1.1" viewBox="0 0 1024 1024"><g transform="scale(1, -1) translate(0, -900)"><path d="M 236 395 Q 240 396 248 398 Q 356 419 373 411 Q 383 407 384 382 Q 394 232 383 116 Q 382 92 368 89 Q 358 86 305 101 Q 295 104 294 97 Q 295 90 308 80 Q 341 50 365 19 Q 378 3 394 4 Q 409 7 428 49 Q 450 91 448 134 Q 444 237 438 334 Q 435 371 452 401 Q 462 416 450 429 Q 434 444 398 457 Q 379 467 362 456 Q 346 449 317 441 Q 262 428 229 421 C 200 415 207 388 236 395 Z" fill="black" /></g></svg>