<?xml version='1.0' encoding='utf-8'?>
<svg xmlns="http://www.w3.org/2000/svg" version="1.1" viewBox="0 0 1024 1024"><g transform="scale(1, -1) translate(0, -900)"><path d="M 310 405 Q 317 254 274 127 Q 265 108 253 103 Q 240 102 203 115 Q 175 125 170 120 Q 166 114 175 102 Q 212 66 234 34 Q 253 6 263 7 Q 275 7 296 32 Q 371 125 364 356 Q 361 407 353 458 Q 341 546 315 610 L 287 659 Q 248 705 164 728 Q 149 732 148 721 Q 148 708 159 691 Q 171 675 189 676 Q 235 664 261 619 L 281 571 Q 293 534 301 492 L 310 405 Z" fill="black" /></g></svg>