<?xml version='1.0' encoding='utf-8'?>
<svg xmlns="http://www.w3.org/2000/svg" version="1.1" viewBox="0 0 1024 1024"><g transform="scale(1, -1) translate(0, -900)"><path d="M 322 405 L 323 403 Q 332 241 293 120 Q 286 105 279 104 Q 263 101 219 112 Q 191 122 185 116 Q 182 110 192 99 Q 234 65 260 32 Q 276 7 286 8 Q 293 5 309 22 Q 399 131 360 469 Q 353 512 343 549 Q 334 579 323 601 L 294 647 Q 249 701 189 729 Q 176 736 172 725 Q 168 712 174 694 Q 181 675 199 671 Q 230 662 267 605 L 291 561 Q 301 540 312 483 L 322 405 Z" fill="black" /></g></svg>