<?xml version='1.0' encoding='utf-8'?>
<svg xmlns="http://www.w3.org/2000/svg" version="1.1" viewBox="0 0 1024 1024"><g transform="scale(1, -1) translate(0, -900)"><path d="M 748 110 Q 758 85 780 37 Q 789 19 799 20 Q 815 23 825 48 Q 852 103 873 275 Q 879 324 903 353 Q 919 372 908 387 Q 886 409 840 431 Q 821 441 788 430 Q 662 388 476 375 C 446 373 463 333 493 336 Q 502 336 511 337 Q 611 356 768 380 Q 795 386 807 372 Q 828 333 793 151 Q 792 135 784 132 Q 783 131 776 132 C 752 114 748 110 748 110 Z" fill="black" /></g></svg>