<?xml version='1.0' encoding='utf-8'?>
<svg xmlns="http://www.w3.org/2000/svg" version="1.1" viewBox="0 0 1024 1024"><g transform="scale(1, -1) translate(0, -900)"><path d="M 291 398 Q 298 244 266 134 Q 260 118 252 117 Q 239 114 204 124 Q 174 134 170 128 Q 166 122 176 110 Q 210 76 233 43 Q 252 15 263 16 Q 270 15 289 34 Q 344 104 345 330 Q 339 493 303 598 Q 302 599 302 600 L 279 645 Q 266 681 187 715 Q 181 718 176 719 Q 161 726 158 714 Q 157 701 164 681 Q 174 662 193 661 Q 218 649 249 604 L 266 559 Q 276 522 283 480 L 291 398 Z" fill="black" /></g></svg>