<?xml version='1.0' encoding='utf-8'?>
<svg xmlns="http://www.w3.org/2000/svg" version="1.1" viewBox="0 0 1024 1024"><g transform="scale(1, -1) translate(0, -900)"><path d="M 282 420 Q 282 419 283 417 Q 293 254 246 136 Q 239 120 230 118 Q 215 117 176 130 Q 146 142 142 136 Q 138 130 147 117 Q 184 80 207 45 Q 225 17 236 17 Q 243 16 263 34 Q 341 115 332 388 Q 331 395 331 401 Q 325 536 282 605 L 253 645 Q 214 688 144 715 Q 129 722 126 710 Q 125 697 132 677 Q 142 658 160 656 Q 193 646 224 604 L 248 567 Q 261 542 271 499 L 282 420 Z" fill="black" /></g></svg>