<?xml version='1.0' encoding='utf-8'?>
<svg xmlns="http://www.w3.org/2000/svg" version="1.1" viewBox="0 0 1024 1024"><g transform="scale(1, -1) translate(0, -900)"><path d="M 302 391 Q 309 237 283 135 Q 277 119 270 118 Q 251 117 206 135 Q 175 147 170 140 Q 166 134 176 121 Q 221 81 250 43 Q 271 12 283 13 Q 290 12 307 30 Q 356 96 358 321 Q 348 484 317 581 L 297 627 Q 261 688 176 720 Q 161 727 158 715 Q 155 700 165 680 Q 175 661 194 659 Q 242 640 263 584 L 278 541 Q 288 504 295 461 L 302 391 Z" fill="black" /></g></svg>