<?xml version='1.0' encoding='utf-8'?>
<svg xmlns="http://www.w3.org/2000/svg" version="1.1" viewBox="0 0 1024 1024"><g transform="scale(1, -1) translate(0, -900)"><path d="M 460 366 Q 478 367 485 359 Q 495 346 491 311 Q 484 217 461 154 Q 449 120 437 108 Q 430 99 408 107 Q 386 113 366 117 Q 353 121 354 113 Q 357 103 369 91 Q 397 63 412 37 Q 427 18 445 30 Q 511 82 518 145 Q 528 206 540 303 Q 541 325 554 346 Q 564 362 555 370 Q 545 385 517 397 Q 496 407 483 400 Q 468 396 423 384 Q 416 383 413 385 Q 409 388 412 397 Q 427 469 432 482 C 437 499 437 499 420 510 Q 411 517 394 526 Q 384 533 376 528 Q 367 522 376 511 Q 392 484 383 442 Q 371 387 349 365 Q 339 353 342 343 Q 349 331 357 325 Q 366 318 382 332 Q 412 365 460 366 Z" fill="black" /></g></svg>