<?xml version='1.0' encoding='utf-8'?>
<svg xmlns="http://www.w3.org/2000/svg" version="1.1" viewBox="0 0 1024 1024"><g transform="scale(1, -1) translate(0, -900)"><path d="M 783 552 Q 783 551 784 547 Q 788 532 799 532 Q 812 533 820 546 Q 829 555 849 601 Q 867 647 901 674 Q 920 687 905 703 Q 889 719 844 745 Q 831 754 747 738 Q 707 738 566 711 Q 494 698 442 693 C 412 690 455 654 484 662 Q 518 672 569 682 L 586 685 Q 623 692 673 698 L 701 702 Q 794 717 816 704 Q 823 700 817 677 Q 796 595 788 578 L 783 552 Z" fill="black" /></g></svg>