<?xml version='1.0' encoding='utf-8'?>
<svg xmlns="http://www.w3.org/2000/svg" version="1.1" viewBox="0 0 1024 1024"><g transform="scale(1, -1) translate(0, -900)"><path d="M 272 401 Q 279 230 260 133 Q 256 118 249 118 Q 236 114 198 121 Q 167 131 161 124 Q 158 118 169 105 Q 208 71 232 39 Q 253 11 263 13 Q 270 9 284 27 Q 356 144 311 492 Q 301 555 284 614 L 263 663 Q 230 724 155 762 Q 142 771 136 759 Q 132 744 138 724 Q 145 703 164 699 Q 197 684 226 625 Q 227 621 230 617 L 247 571 Q 256 528 263 484 L 272 401 Z" fill="black" /></g></svg>