<?xml version='1.0' encoding='utf-8'?>
<svg xmlns="http://www.w3.org/2000/svg" version="1.1" viewBox="0 0 1024 1024"><g transform="scale(1, -1) translate(0, -900)"><path d="M 318 388 Q 318 207 280 112 Q 273 97 265 97 Q 247 94 198 111 Q 167 123 162 116 Q 158 110 168 97 Q 213 57 242 19 Q 258 -9 269 -9 Q 276 -10 294 5 Q 381 95 364 414 Q 360 469 349 514 Q 336 563 318 599 L 289 647 Q 238 713 171 745 Q 158 755 152 743 Q 148 728 153 708 Q 160 687 179 682 Q 212 667 257 601 L 281 556 Q 299 516 309 469 L 318 388 Z" fill="black" /></g></svg>