<?xml version='1.0' encoding='utf-8'?>
<svg xmlns="http://www.w3.org/2000/svg" version="1.1" viewBox="0 0 1024 1024"><g transform="scale(1, -1) translate(0, -900)"><path d="M 712 507 Q 725 491 737 485 Q 747 478 762 499 Q 777 524 805 663 Q 814 691 837 715 Q 850 727 839 741 Q 824 757 785 783 Q 769 792 687 778 Q 683 778 551 764 Q 487 754 436 752 Q 429 752 427 749 C 398 744 435 713 464 722 Q 470 729 565 737 L 603 741 Q 726 759 743 740 Q 756 724 754 708 Q 733 578 722 558 Q 718 545 705 543 C 689 532 691 529 712 507 Z" fill="black" /></g></svg>