<?xml version='1.0' encoding='utf-8'?>
<svg xmlns="http://www.w3.org/2000/svg" version="1.1" viewBox="0 0 1024 1024"><g transform="scale(1, -1) translate(0, -900)"><path d="M 294 412 Q 294 411 295 409 Q 305 246 258 128 Q 251 112 242 110 Q 227 109 188 122 Q 158 134 154 128 Q 150 122 159 109 Q 196 72 219 37 Q 237 9 248 9 Q 255 8 275 26 Q 353 107 344 380 Q 343 387 343 393 Q 337 528 294 597 L 265 637 Q 226 680 156 707 Q 141 714 138 702 Q 137 689 144 669 Q 154 650 172 648 Q 205 638 236 596 L 260 559 Q 273 534 283 491 L 294 412 Z" fill="black" /></g></svg>