<?xml version='1.0' encoding='utf-8'?>
<svg xmlns="http://www.w3.org/2000/svg" version="1.1" viewBox="0 0 1024 1024"><g transform="scale(1, -1) translate(0, -900)"><path d="M 563 391 Q 602 370 670 391 Q 713 413 730 402 Q 739 396 716 329 Q 655 110 407 -30 Q 397 -34 398 -40 Q 399 -46 407 -44 Q 546 -37 683 142 Q 686 146 690 151 Q 739 221 789 331 Q 807 362 836 384 Q 852 393 853 403 Q 852 419 819 436 Q 779 461 763 461 Q 750 460 737 451 Q 650 421 594 415 Q 588 416 583 415 C 553 413 535 401 563 391 Z" fill="black" /></g></svg>