<?xml version='1.0' encoding='utf-8'?>
<svg xmlns="http://www.w3.org/2000/svg" version="1.1" viewBox="0 0 1024 1024"><g transform="scale(1, -1) translate(0, -900)"><path d="M 711 45 Q 733 17 751 -10 Q 760 -26 769 -25 Q 782 -24 795 5 Q 810 38 806 77 Q 799 138 789 251 Q 788 276 801 295 Q 808 307 800 315 Q 784 331 740 349 Q 724 356 712 349 Q 700 343 614 314 C 586 304 555 272 584 278 L 586 277 Q 595 280 606 283 Q 658 295 703 305 Q 719 309 729 303 Q 744 285 744 80 L 744 78 Q 741 65 730 67 C 706 52 706 52 711 45 Z" fill="black" /></g></svg>