<?xml version='1.0' encoding='utf-8'?>
<svg xmlns="http://www.w3.org/2000/svg" version="1.1" viewBox="0 0 1024 1024"><g transform="scale(1, -1) translate(0, -900)"><path d="M 749 104 Q 759 79 784 29 Q 793 11 803 12 Q 819 15 828 41 Q 859 102 875 291 Q 879 340 903 370 Q 919 391 908 404 Q 886 426 838 446 Q 819 456 787 444 Q 661 399 461 378 C 431 375 464 333 493 341 Q 508 347 607 364 L 648 372 Q 702 385 766 395 Q 794 401 807 387 Q 832 341 795 144 Q 794 126 786 124 Q 785 123 777 124 C 752 107 749 104 749 104 Z" fill="black" /></g></svg>