<?xml version='1.0' encoding='utf-8'?>
<svg xmlns="http://www.w3.org/2000/svg" version="1.1" viewBox="0 0 1024 1024"><g transform="scale(1, -1) translate(0, -900)"><path d="M 721 533 Q 739 502 756 493 Q 766 484 783 506 Q 799 530 834 661 Q 844 692 868 717 Q 881 729 870 743 Q 855 761 813 789 Q 795 798 706 778 Q 693 778 570 755 Q 515 743 468 736 C 438 731 458 693 486 703 Q 490 709 589 726 L 629 733 Q 672 743 728 750 Q 762 754 773 743 Q 785 728 782 713 Q 755 589 745 570 Q 739 560 729 555 C 715 542 715 542 721 533 Z" fill="black" /></g></svg>