<?xml version='1.0' encoding='utf-8'?>
<svg xmlns="http://www.w3.org/2000/svg" version="1.1" viewBox="0 0 1024 1024"><g transform="scale(1, -1) translate(0, -900)"><path d="M 312 383 Q 331 275 291 128 Q 287 118 283 105 Q 277 92 270 90 Q 248 86 188 98 Q 157 107 153 100 Q 150 94 161 82 Q 216 46 252 11 Q 268 -11 276 -11 Q 283 -12 299 3 Q 389 112 354 436 Q 348 472 340 502 Q 325 554 304 589 L 276 627 Q 236 679 170 709 Q 157 718 152 706 Q 148 693 154 673 Q 161 654 180 649 Q 213 634 246 587 L 269 549 Q 296 497 301 460 L 312 383 Z" fill="black" /></g></svg>