<?xml version='1.0' encoding='utf-8'?>
<svg xmlns="http://www.w3.org/2000/svg" version="1.1" viewBox="0 0 1024 1024"><g transform="scale(1, -1) translate(0, -900)"><path d="M 481 75 Q 488 103 489 139 Q 479 401 494 436 Q 504 454 495 463 Q 486 476 448 495 Q 432 502 417 499 Q 383 486 310 467 L 271 459 Q 210 449 146 439 C 116 434 143 397 171 407 Q 201 422 340 446 L 370 452 Q 380 455 396 457 Q 415 464 427 454 Q 434 450 437 412 Q 443 285 432 142 Q 431 121 423 116 Q 413 109 366 120 Q 353 123 354 115 Q 354 109 364 104 Q 407 67 428 40 Q 444 24 454 25 Q 464 28 474 50 L 474 51 L 481 75 Z" fill="black" /></g></svg>