<?xml version='1.0' encoding='utf-8'?>
<svg xmlns="http://www.w3.org/2000/svg" version="1.1" viewBox="0 0 1024 1024"><g transform="scale(1, -1) translate(0, -900)"><path d="M 301 387 Q 308 231 271 125 Q 264 109 255 107 Q 237 106 190 126 Q 159 139 154 132 Q 150 126 160 113 Q 205 70 233 32 Q 252 1 264 2 Q 273 1 291 19 Q 390 151 340 475 Q 333 520 320 555 Q 311 580 300 598 L 271 638 Q 234 683 156 712 Q 141 719 138 707 Q 135 692 144 672 Q 154 653 174 651 Q 204 642 239 599 L 263 561 Q 278 531 293 462 L 301 387 Z" fill="black" /></g></svg>