<?xml version='1.0' encoding='utf-8'?>
<svg xmlns="http://www.w3.org/2000/svg" version="1.1" viewBox="0 0 1024 1024"><g transform="scale(1, -1) translate(0, -900)"><path d="M 725 357 Q 724 358 726 358 Q 772 374 819 386 C 848 394 838 405 808 401 Q 750 394 682 377 Q 663 373 676 386 Q 793 512 855 555 Q 867 562 863 573 Q 856 591 828 611 Q 815 621 806 620 Q 796 619 797 604 Q 794 565 735 494 Q 734 494 734 493 L 719 477 Q 617 377 609 371 Q 591 371 594 350 Q 594 338 615 319 Q 624 307 638 317 Q 666 335 697 347 L 725 357 Z" fill="black" /></g></svg>