<?xml version='1.0' encoding='utf-8'?>
<svg xmlns="http://www.w3.org/2000/svg" version="1.1" viewBox="0 0 1024 1024"><g transform="scale(1, -1) translate(0, -900)"><path d="M 311 393 Q 311 389 312 383 Q 321 224 289 104 Q 283 89 276 89 Q 257 88 208 104 Q 178 114 174 108 Q 170 102 180 90 Q 226 51 257 15 Q 276 -13 286 -12 Q 292 -15 307 2 Q 367 74 359 353 Q 358 360 358 366 Q 354 459 335 530 Q 326 566 314 591 L 289 638 Q 250 704 174 740 Q 161 749 156 738 Q 152 725 157 705 Q 164 684 182 680 Q 221 662 257 596 L 278 553 Q 287 529 301 467 L 311 393 Z" fill="black" /></g></svg>