<?xml version='1.0' encoding='utf-8'?>
<svg xmlns="http://www.w3.org/2000/svg" version="1.1" viewBox="0 0 1024 1024"><g transform="scale(1, -1) translate(0, -900)"><path d="M 523 114 Q 523 124 523 134 Q 501 416 526 450 Q 533 462 526 471 Q 508 489 461 510 Q 445 517 430 510 Q 411 503 391 494 L 356 483 Q 328 477 302 470 L 262 462 Q 216 455 186 451 C 156 447 174 416 203 422 Q 213 423 231 428 Q 244 432 262 434 L 300 442 Q 327 449 355 454 L 386 460 Q 393 463 403 464 Q 434 471 450 459 Q 475 438 459 144 Q 458 141 458 137 Q 454 121 438 128 Q 434 132 427 134 C 399 144 407 125 424 101 Q 446 71 463 43 Q 470 27 481 28 Q 496 29 510 58 Q 517 74 520 92 L 523 114 Z" fill="black" /></g></svg>