<?xml version='1.0' encoding='utf-8'?>
<svg xmlns="http://www.w3.org/2000/svg" version="1.1" viewBox="0 0 1024 1024"><g transform="scale(1, -1) translate(0, -900)"><path d="M 725 352 Q 764 359 810 362 Q 828 362 835 353 Q 842 346 839 333 Q 839 125 824 95 Q 823 88 813 91 Q 785 98 754 106 Q 729 109 746 93 Q 809 44 834 8 Q 847 -7 860 5 Q 876 23 884 51 Q 894 82 889 244 Q 886 305 903 335 Q 916 353 910 360 Q 903 370 859 398 Q 843 410 792 392 Q 777 389 759 385 Q 645 370 529 342 C 500 335 508 293 536 304 Q 540 305 548 308 Q 561 314 581 320 L 605 327 Q 641 342 681 345 L 725 352 Z" fill="black" /></g></svg>