<?xml version='1.0' encoding='utf-8'?>
<svg xmlns="http://www.w3.org/2000/svg" version="1.1" viewBox="0 0 1024 1024"><g transform="scale(1, -1) translate(0, -900)"><path d="M 302 403 Q 312 238 273 123 Q 266 107 257 105 Q 238 105 188 126 Q 160 138 154 132 Q 150 126 159 113 Q 205 73 235 34 Q 254 4 265 5 Q 274 4 291 22 Q 372 106 350 394 Q 338 530 301 596 L 272 635 Q 229 686 156 711 Q 141 718 138 706 Q 137 693 144 673 Q 154 654 173 652 Q 210 640 242 595 L 266 557 Q 278 536 290 482 L 302 403 Z" fill="black" /></g></svg>