<?xml version='1.0' encoding='utf-8'?>
<svg xmlns="http://www.w3.org/2000/svg" version="1.1" viewBox="0 0 1024 1024"><g transform="scale(1, -1) translate(0, -900)"><path d="M 494 386 Q 531 379 706 406 Q 796 419 802 406 Q 808 397 809 362 Q 813 215 795 135 Q 783 83 768 55 Q 758 30 739 24 Q 729 23 672 45 Q 663 49 663 44 Q 662 40 672 31 Q 706 -12 721 -43 Q 728 -62 741 -62 Q 783 -59 820 17 Q 859 102 874 342 Q 875 370 892 390 Q 905 403 904 412 Q 903 419 884 433 Q 859 452 824 463 Q 805 469 716 445 Q 709 445 702 442 Q 609 424 517 410 C 487 405 464 387 494 386 Z" fill="black" /></g></svg>