<?xml version='1.0' encoding='utf-8'?>
<svg xmlns="http://www.w3.org/2000/svg" version="1.1" viewBox="0 0 1024 1024"><g transform="scale(1, -1) translate(0, -900)"><path d="M 302 397 Q 312 220 270 100 Q 263 84 253 82 Q 237 76 188 83 Q 157 90 153 84 Q 150 78 161 67 Q 207 34 236 2 Q 252 -20 261 -19 Q 270 -20 288 -1 Q 345 57 354 287 Q 354 335 350 384 Q 338 532 301 591 L 273 633 Q 225 684 156 711 Q 141 718 138 706 Q 137 693 144 673 Q 154 654 172 652 Q 208 640 242 593 L 267 554 Q 279 523 290 478 L 302 397 Z" fill="black" /></g></svg>