<?xml version='1.0' encoding='utf-8'?>
<svg xmlns="http://www.w3.org/2000/svg" version="1.1" viewBox="0 0 1024 1024"><g transform="scale(1, -1) translate(0, -900)"><path d="M 724 78 Q 755 41 777 7 Q 786 -9 797 -9 Q 812 -8 826 25 Q 842 62 837 106 Q 827 191 816 350 Q 815 378 830 400 Q 837 412 830 421 Q 812 439 764 460 Q 748 467 733 459 Q 685 435 581 414 C 552 408 567 381 597 386 Q 609 387 725 412 Q 741 416 750 409 Q 769 394 770 139 Q 769 120 769 106 Q 768 97 761 94 C 748 67 705 101 724 78 Z" fill="black" /></g></svg>