<?xml version='1.0' encoding='utf-8'?>
<svg xmlns="http://www.w3.org/2000/svg" version="1.1" viewBox="0 0 1024 1024"><g transform="scale(1, -1) translate(0, -900)"><path d="M 278 396 Q 281 225 255 132 Q 249 116 241 115 Q 226 111 183 115 Q 153 122 149 116 Q 146 110 157 99 Q 199 69 227 40 Q 243 18 252 19 Q 259 16 276 35 Q 363 153 311 514 Q 304 551 295 582 L 275 634 Q 239 695 172 722 Q 159 729 155 717 Q 152 704 159 686 Q 168 668 185 665 Q 224 649 245 592 L 258 543 Q 265 509 270 472 L 278 396 Z" fill="black" /></g></svg>