<?xml version='1.0' encoding='utf-8'?>
<svg xmlns="http://www.w3.org/2000/svg" version="1.1" viewBox="0 0 1024 1024"><g transform="scale(1, -1) translate(0, -900)"><path d="M 720 217 Q 756 272 793 384 Q 803 412 820 430 Q 836 446 824 458 Q 811 468 781 478 Q 759 482 733 469 Q 711 459 680 448 Q 650 438 598 428 Q 585 427 581 420 Q 578 413 595 407 Q 629 395 675 411 Q 711 427 717 429 Q 742 428 736 401 Q 718 299 687 253 L 667 222 Q 613 152 511 116 Q 498 110 510 104 Q 514 98 551 101 Q 623 108 693 182 L 720 217 Z" fill="black" /></g></svg>