<?xml version='1.0' encoding='utf-8'?>
<svg xmlns="http://www.w3.org/2000/svg" version="1.1" viewBox="0 0 1024 1024"><g transform="scale(1, -1) translate(0, -900)"><path d="M 493 356 Q 503 408 510 459 L 514 493 Q 520 541 527 588 Q 528 591 528 592 C 531 613 531 613 514 623 Q 472 650 457 644 Q 447 637 452 625 Q 467 606 468 543 Q 467 536 467 524 Q 461 376 426 273 Q 398 189 330 80 Q 326 74 323 68 Q 322 59 331 61 Q 364 67 431 183 Q 438 199 448 217 Q 467 266 484 321 L 493 356 Z" fill="black" /></g></svg>