<?xml version='1.0' encoding='utf-8'?>
<svg xmlns="http://www.w3.org/2000/svg" version="1.1" viewBox="0 0 1024 1024"><g transform="scale(1, -1) translate(0, -900)"><path d="M 446 478 Q 456 475 522 492 Q 639 526 789 540 Q 819 544 830 542 Q 843 533 842 527 Q 842 524 813 461 Q 807 448 813 445 Q 820 441 834 452 Q 883 485 924 496 Q 957 506 956 514 Q 955 523 891 569 Q 872 582 851 579 Q 811 573 764 564 L 714 555 Q 686 552 654 546 L 617 539 Q 590 536 562 530 L 526 524 Q 525 525 523 524 Q 483 517 442 511 C 412 507 416 476 446 478 Z" fill="black" /></g></svg>