<?xml version='1.0' encoding='utf-8'?>
<svg xmlns="http://www.w3.org/2000/svg" version="1.1" viewBox="0 0 1024 1024"><g transform="scale(1, -1) translate(0, -900)"><path d="M 272 396 Q 279 221 255 116 Q 251 100 244 100 Q 234 97 204 101 Q 170 111 166 105 Q 162 98 173 85 Q 206 51 225 18 Q 247 -10 257 -10 Q 264 -13 278 4 Q 359 115 311 499 Q 296 578 288 605 L 264 659 Q 249 689 223 714 Q 184 751 156 766 Q 143 776 137 763 Q 131 748 137 727 Q 144 705 164 699 Q 200 681 227 617 Q 228 613 231 607 L 249 558 Q 249 557 250 555 Q 257 521 263 484 L 272 396 Z" fill="black" /></g></svg>