<?xml version='1.0' encoding='utf-8'?>
<svg xmlns="http://www.w3.org/2000/svg" version="1.1" viewBox="0 0 1024 1024"><g transform="scale(1, -1) translate(0, -900)"><path d="M 335 145 Q 372 356 316 550 Q 301 592 299 594 L 274 638 Q 249 686 151 719 Q 144 722 137 723 Q 124 729 121 717 Q 120 704 130 687 Q 140 669 158 669 Q 203 657 246 600 L 267 559 Q 276 532 282 503 L 296 424 Q 314 252 264 117 Q 257 98 246 95 Q 224 96 174 124 Q 147 137 142 132 Q 138 126 146 114 Q 194 69 224 29 Q 243 -2 255 -1 Q 265 -2 284 20 Q 311 53 331 128 L 335 145 Z" fill="black" /></g></svg>