<?xml version='1.0' encoding='utf-8'?>
<svg xmlns="http://www.w3.org/2000/svg" version="1.1" viewBox="0 0 1024 1024"><g transform="scale(1, -1) translate(0, -900)"><path d="M 271 440 Q 287 322 259 177 Q 253 156 248 136 Q 244 121 237 121 Q 224 120 192 130 Q 162 142 158 136 Q 154 130 163 117 Q 196 81 216 49 Q 235 21 245 21 Q 252 17 266 34 Q 348 136 312 497 Q 306 536 299 570 Q 289 612 276 642 L 252 684 Q 216 741 163 767 Q 150 777 145 766 Q 139 753 144 733 Q 151 712 168 707 Q 187 695 222 642 L 240 600 Q 249 576 261 526 L 271 440 Z" fill="black" /></g></svg>