<?xml version='1.0' encoding='utf-8'?>
<svg xmlns="http://www.w3.org/2000/svg" version="1.1" viewBox="0 0 1024 1024"><g transform="scale(1, -1) translate(0, -900)"><path d="M 787 483 Q 820 493 840 496 Q 861 499 868 492 Q 880 483 881 448 Q 881 414 882 370 Q 883 339 874 326 Q 868 319 828 329 Q 813 335 807 329 Q 803 325 816 315 Q 856 275 879 244 Q 892 232 908 239 Q 918 243 927 268 Q 943 308 939 354 Q 930 457 938 493 Q 945 506 937 514 Q 918 526 887 536 Q 871 543 857 536 Q 832 524 788 511 L 738 497 Q 704 491 660 483 C 630 478 649 448 678 454 Q 682 455 689 456 Q 714 463 738 470 L 787 483 Z" fill="black" /></g></svg>