<?xml version='1.0' encoding='utf-8'?>
<svg xmlns="http://www.w3.org/2000/svg" version="1.1" viewBox="0 0 1024 1024"><g transform="scale(1, -1) translate(0, -900)"><path d="M 770 581 Q 769 590 761 596 Q 737 615 711 625 Q 695 631 687 624 Q 681 618 691 604 Q 700 588 705 569 L 709 537 Q 710 536 710 531 Q 714 449 712 406 Q 711 387 700 380 Q 694 376 637 383 Q 627 384 627 379 Q 628 372 637 365 Q 691 313 707 284 Q 720 268 734 281 Q 768 314 763 403 Q 753 508 760 541 L 770 581 Z" fill="black" /></g></svg>