<?xml version='1.0' encoding='utf-8'?>
<svg xmlns="http://www.w3.org/2000/svg" version="1.1" viewBox="0 0 1024 1024"><g transform="scale(1, -1) translate(0, -900)"><path d="M 309 411 Q 318 228 286 123 Q 282 110 275 110 Q 259 106 212 114 Q 178 124 174 117 Q 170 110 182 97 Q 225 60 254 25 Q 273 -2 282 -1 Q 289 -2 303 12 Q 378 93 360 403 Q 356 455 345 499 Q 324 592 301 615 L 273 656 Q 218 719 169 745 Q 154 755 149 743 Q 143 728 149 707 Q 156 685 175 679 Q 202 667 240 611 L 264 569 Q 273 560 294 492 L 309 411 Z" fill="black" /></g></svg>