<?xml version='1.0' encoding='utf-8'?>
<svg xmlns="http://www.w3.org/2000/svg" version="1.1" viewBox="0 0 1024 1024"><g transform="scale(1, -1) translate(0, -900)"><path d="M 694 279 Q 694 278 695 275 Q 699 260 712 261 Q 725 262 733 276 Q 743 288 766 350 Q 782 399 819 426 Q 838 441 822 456 Q 806 472 759 499 Q 743 509 692 496 Q 668 496 559 474 Q 507 464 472 460 C 442 456 476 423 505 429 Q 509 429 514 430 Q 569 448 696 463 Q 718 464 727 460 Q 734 454 729 428 Q 705 326 695 303 C 690 288 690 288 694 279 Z" fill="black" /></g></svg>