<?xml version='1.0' encoding='utf-8'?>
<svg xmlns="http://www.w3.org/2000/svg" version="1.1" viewBox="0 0 1024 1024"><g transform="scale(1, -1) translate(0, -900)"><path d="M 360 456 Q 414 438 420 430 Q 427 411 399 364 Q 393 354 388 349 Q 385 346 381 346 Q 371 343 339 360 Q 314 373 311 370 Q 307 363 318 354 Q 345 330 355 297 Q 358 285 365 280 Q 374 276 398 289 Q 431 311 451 370 Q 457 394 471 407 Q 478 408 481 415 Q 482 422 468 441 Q 447 468 407 467 Q 380 474 373 477 C 345 487 332 466 360 456 Z" fill="black" /></g></svg>