<?xml version='1.0' encoding='utf-8'?>
<svg xmlns="http://www.w3.org/2000/svg" version="1.1" viewBox="0 0 1024 1024"><g transform="scale(1, -1) translate(0, -900)"><path d="M 293 401 Q 299 241 253 119 Q 246 103 235 100 Q 220 100 183 117 Q 155 129 150 124 Q 146 118 154 106 Q 191 67 213 33 Q 229 5 240 4 Q 249 3 268 21 Q 344 108 340 355 L 339 363 Q 327 505 317 539 Q 301 587 290 605 L 263 645 Q 218 699 143 726 Q 130 733 127 721 Q 124 708 132 690 Q 141 672 158 670 Q 195 655 234 606 L 257 568 Q 272 540 284 482 L 293 401 Z" fill="black" /></g></svg>