<?xml version='1.0' encoding='utf-8'?>
<svg xmlns="http://www.w3.org/2000/svg" version="1.1" viewBox="0 0 1024 1024"><g transform="scale(1, -1) translate(0, -900)"><path d="M 340 355 Q 383 355 446 390 L 483 416 Q 549 482 581 613 L 591 658 Q 597 728 623 787 Q 629 797 622 805 Q 607 821 577 837 Q 559 847 544 844 Q 525 840 538 822 Q 560 794 557 767 Q 551 698 540 644 L 529 600 Q 528 597 528 593 Q 515 541 493 501 L 476 473 Q 437 419 352 369 Q 343 366 339 363 C 319 353 319 353 340 355 Z" fill="black" /></g></svg>