<?xml version='1.0' encoding='utf-8'?>
<svg xmlns="http://www.w3.org/2000/svg" version="1.1" viewBox="0 0 1024 1024"><g transform="scale(1, -1) translate(0, -900)"><path d="M 252 426 Q 264 254 222 142 Q 215 126 206 124 Q 190 120 147 129 Q 117 138 113 132 Q 110 126 120 115 Q 162 81 189 50 Q 205 26 214 27 Q 223 26 241 45 Q 317 133 300 403 Q 299 410 299 416 Q 290 518 257 596 L 229 636 Q 196 679 118 707 Q 105 713 102 701 Q 101 688 109 670 Q 119 654 136 651 Q 173 638 202 597 L 224 559 Q 225 558 226 556 Q 233 532 240 506 L 252 426 Z" fill="black" /></g></svg>