<?xml version='1.0' encoding='utf-8'?>
<svg xmlns="http://www.w3.org/2000/svg" version="1.1" viewBox="0 0 1024 1024"><g transform="scale(1, -1) translate(0, -900)"><path d="M 246 390 Q 253 233 223 129 Q 216 113 208 111 Q 192 110 151 124 Q 126 133 121 128 Q 118 122 127 112 Q 167 78 192 48 Q 208 23 218 24 Q 225 23 241 41 Q 310 120 287 396 Q 286 403 286 409 Q 274 520 243 591 L 219 627 Q 180 669 125 689 Q 113 693 110 684 Q 109 672 116 656 Q 125 640 140 638 Q 168 631 193 592 L 213 559 Q 225 535 237 463 L 246 390 Z" fill="black" /></g></svg>