<?xml version='1.0' encoding='utf-8'?>
<svg xmlns="http://www.w3.org/2000/svg" version="1.1" viewBox="0 0 1024 1024"><g transform="scale(1, -1) translate(0, -900)"><path d="M 425 316 Q 425 190 403 104 Q 396 74 416 18 Q 422 3 429 1 Q 433 -5 440 2 Q 447 6 455 24 Q 462 45 462 71 Q 461 111 459 406 L 459 437 Q 459 480 459 526 L 459 555 Q 459 565 459 575 Q 458 597 459 619 L 462 660 Q 465 700 474 733 Q 481 746 479 757 Q 473 764 426 793 Q 407 808 389 794 Q 385 790 390 777 Q 421 731 423 683 Q 423 667 424 648 L 425 610 Q 425 579 427 545 L 427 518 Q 426 475 426 428 L 425 316 Z" fill="black" /></g></svg>