<?xml version='1.0' encoding='utf-8'?>
<svg xmlns="http://www.w3.org/2000/svg" version="1.1" viewBox="0 0 1024 1024"><g transform="scale(1, -1) translate(0, -900)"><path d="M 752 -3 Q 756 -25 763 -34 Q 767 -40 775 -37 Q 787 -31 793 22 Q 794 41 795 244 L 795 285 Q 795 322 796 369 L 798 410 Q 798 413 799 414 Q 802 432 805 445 Q 808 461 795 469 Q 767 488 753 490 Q 743 494 728 486 Q 721 479 727 470 Q 745 440 746 395 L 747 357 Q 747 320 747 274 L 747 236 Q 748 190 748 137 Q 748 32 752 -3 Z" fill="black" /></g></svg>