<?xml version='1.0' encoding='utf-8'?>
<svg xmlns="http://www.w3.org/2000/svg" version="1.1" viewBox="0 0 1024 1024"><g transform="scale(1, -1) translate(0, -900)"><path d="M 751 653 Q 751 652 752 648 Q 756 632 768 632 Q 787 635 819 685 Q 838 733 876 757 Q 895 770 881 786 Q 866 804 822 833 Q 806 843 738 828 Q 701 828 558 796 Q 471 780 435 782 C 405 782 451 737 479 747 Q 504 757 544 765 L 566 770 Q 602 779 653 787 L 689 792 Q 770 811 791 798 Q 797 794 791 773 Q 767 701 755 677 C 748 661 748 661 751 653 Z" fill="black" /></g></svg>