<?xml version='1.0' encoding='utf-8'?>
<svg xmlns="http://www.w3.org/2000/svg" version="1.1" viewBox="0 0 1024 1024"><g transform="scale(1, -1) translate(0, -900)"><path d="M 653 121 Q 687 164 718 225 Q 731 253 752 269 Q 771 282 759 297 Q 747 310 718 322 Q 696 332 668 320 Q 643 310 610 299 Q 576 289 519 281 Q 506 280 501 274 Q 497 267 515 259 Q 551 246 599 260 Q 642 278 650 278 Q 669 275 663 255 Q 645 194 615 150 L 591 121 Q 525 55 389 23 Q 376 20 386 11 Q 392 7 434 9 Q 536 18 623 88 L 653 121 Z" fill="black" /></g></svg>