<?xml version='1.0' encoding='utf-8'?>
<svg xmlns="http://www.w3.org/2000/svg" version="1.1" viewBox="0 0 1024 1024"><g transform="scale(1, -1) translate(0, -900)"><path d="M 434 300 Q 438 313 429 322 Q 410 338 391 348 Q 375 354 367 350 Q 357 344 369 327 Q 405 264 367 91 Q 360 75 348 53 Q 338 35 346 25 Q 353 15 377 5 Q 390 -2 402 14 Q 411 42 473 99 Q 495 117 504 134 Q 510 144 502 144 Q 496 144 431 99 Q 424 93 419 95 Q 412 98 413 116 Q 423 200 428 243 Q 428 274 434 300 Z" fill="black" /></g></svg>