<?xml version='1.0' encoding='utf-8'?>
<svg xmlns="http://www.w3.org/2000/svg" version="1.1" viewBox="0 0 1024 1024"><g transform="scale(1, -1) translate(0, -900)"><path d="M 272 393 Q 272 254 233 156 Q 226 140 217 138 Q 208 137 185 145 Q 158 157 154 152 Q 150 146 158 134 Q 182 103 195 74 Q 211 46 222 47 Q 229 46 249 64 Q 327 157 315 416 Q 314 422 314 428 Q 308 545 272 617 L 246 657 Q 206 705 138 729 Q 125 736 122 725 Q 121 712 128 695 Q 137 679 153 676 Q 190 664 220 616 L 243 579 Q 258 530 266 481 L 272 393 Z" fill="black" /></g></svg>