<?xml version='1.0' encoding='utf-8'?>
<svg xmlns="http://www.w3.org/2000/svg" version="1.1" viewBox="0 0 1024 1024"><g transform="scale(1, -1) translate(0, -900)"><path d="M 713 430 Q 716 417 727 416 Q 740 417 748 429 Q 755 433 773 460 Q 791 506 825 530 Q 843 543 829 558 Q 814 574 771 601 Q 756 611 683 593 Q 647 593 504 556 Q 449 543 410 535 C 381 529 394 492 422 503 Q 421 504 423 504 Q 481 526 597 548 L 628 554 Q 721 576 744 566 Q 750 562 745 543 Q 726 476 717 462 Q 713 455 712 448 L 713 430 Z" fill="black" /></g></svg>