<?xml version='1.0' encoding='utf-8'?>
<svg xmlns="http://www.w3.org/2000/svg" version="1.1" viewBox="0 0 1024 1024"><g transform="scale(1, -1) translate(0, -900)"><path d="M 261 419 Q 280 242 239 110 Q 235 95 227 95 Q 214 92 174 100 Q 143 110 138 104 Q 134 98 145 85 Q 182 49 207 16 Q 226 -12 237 -10 Q 244 -13 259 4 Q 343 122 305 460 Q 298 505 288 543 Q 278 580 264 607 L 240 648 Q 197 706 135 734 Q 122 743 116 731 Q 112 716 118 696 Q 125 675 144 670 Q 180 655 207 605 L 226 568 Q 238 541 248 500 L 261 419 Z" fill="black" /></g></svg>