<?xml version='1.0' encoding='utf-8'?>
<svg xmlns="http://www.w3.org/2000/svg" version="1.1" viewBox="0 0 1024 1024"><g transform="scale(1, -1) translate(0, -900)"><path d="M 757 178 Q 772 156 785 150 Q 794 143 808 162 Q 818 180 844 280 Q 851 307 873 329 Q 885 339 874 352 Q 861 367 823 390 Q 810 397 751 383 Q 712 380 695 373 L 648 364 Q 627 364 538 343 C 509 336 523 305 552 314 Q 591 327 648 336 L 692 344 Q 773 362 790 348 Q 800 341 798 325 Q 780 220 766 205 C 754 182 754 182 757 178 Z" fill="black" /></g></svg>