<?xml version='1.0' encoding='utf-8'?>
<svg xmlns="http://www.w3.org/2000/svg" version="1.1" viewBox="0 0 1024 1024"><g transform="scale(1, -1) translate(0, -900)"><path d="M 571 766 Q 559 729 534 694 Q 525 684 528 673 Q 529 663 545 652 Q 572 628 596 602 Q 611 587 623 587 Q 635 588 637 609 Q 638 631 627 645 Q 621 652 587 660 Q 571 664 564 675 Q 558 682 569 695 Q 582 707 605 734 Q 621 755 637 765 Q 650 772 644 788 Q 632 821 611 833 Q 598 842 588 839 Q 578 838 582 821 Q 589 799 571 766 Z" fill="black" /></g></svg>