<?xml version='1.0' encoding='utf-8'?>
<svg xmlns="http://www.w3.org/2000/svg" version="1.1" viewBox="0 0 1024 1024"><g transform="scale(1, -1) translate(0, -900)"><path d="M 318 204 Q 460 231 477 216 Q 487 212 490 195 Q 494 153 488 77 Q 488 55 466 54 Q 445 53 429 53 Q 416 53 419 46 Q 422 37 447 23 Q 474 2 489 -21 Q 498 -28 507 -24 Q 535 -2 540 69 Q 540 204 548 217 Q 555 227 549 236 Q 539 246 504 260 Q 488 266 475 258 Q 459 254 414 247 Q 350 237 301 227 Q 255 220 220 214 C 190 209 205 176 233 185 Q 240 185 248 190 Q 267 196 297 200 L 318 204 Z" fill="black" /></g></svg>