<?xml version='1.0' encoding='utf-8'?>
<svg xmlns="http://www.w3.org/2000/svg" version="1.1" viewBox="0 0 1024 1024"><g transform="scale(1, -1) translate(0, -900)"><path d="M 661 340 Q 664 362 668 384 L 673 428 Q 680 500 680 571 Q 684 709 698 755 Q 702 765 694 773 Q 678 786 643 799 Q 624 806 608 801 Q 590 794 605 778 Q 633 753 634 724 Q 638 546 624 417 L 619 375 Q 618 371 618 365 Q 597 218 503 111 Q 487 95 466 73 Q 456 66 453 62 Q 449 55 464 57 Q 497 57 573 132 Q 627 189 654 304 L 654 306 L 661 340 Z" fill="black" /></g></svg>