<?xml version='1.0' encoding='utf-8'?>
<svg xmlns="http://www.w3.org/2000/svg" version="1.1" viewBox="0 0 1024 1024"><g transform="scale(1, -1) translate(0, -900)"><path d="M 273 405 Q 289 210 249 88 Q 242 73 234 72 Q 219 68 179 74 Q 149 81 145 76 Q 142 70 153 59 Q 192 28 218 -3 Q 234 -25 242 -25 Q 249 -26 266 -9 Q 350 90 316 416 Q 309 471 295 517 Q 285 551 271 575 L 242 616 Q 200 667 128 697 Q 115 704 111 693 Q 108 680 115 662 Q 124 643 141 640 Q 175 631 214 575 L 238 537 Q 250 513 260 477 L 273 405 Z" fill="black" /></g></svg>