<?xml version='1.0' encoding='utf-8'?>
<svg xmlns="http://www.w3.org/2000/svg" version="1.1" viewBox="0 0 1024 1024"><g transform="scale(1, -1) translate(0, -900)"><path d="M 509 363 Q 530 379 626 399 C 655 405 643 421 613 416 Q 546 406 469 387 Q 450 381 463 396 Q 500 436 587 516 Q 618 547 644 565 Q 657 574 652 583 Q 645 602 615 624 Q 602 634 592 633 Q 582 632 583 616 Q 580 583 532 521 L 513 498 Q 408 387 388 378 Q 375 371 376 358 Q 377 345 399 325 Q 408 313 423 323 Q 445 338 471 348 L 509 363 Z" fill="black" /></g></svg>