<?xml version='1.0' encoding='utf-8'?>
<svg xmlns="http://www.w3.org/2000/svg" version="1.1" viewBox="0 0 1024 1024"><g transform="scale(1, -1) translate(0, -900)"><path d="M 654 53 Q 690 90 723 145 Q 739 170 759 185 Q 778 198 768 212 Q 758 225 729 240 Q 708 250 624 221 Q 534 200 479 193 Q 466 192 461 185 Q 457 178 475 171 Q 511 158 559 172 Q 646 199 662 198 Q 677 195 672 180 Q 651 120 614 79 Q 613 79 613 78 L 588 55 Q 510 -2 370 -29 Q 357 -30 366 -41 Q 372 -45 418 -43 Q 476 -39 543 -15 Q 586 1 622 25 L 654 53 Z" fill="black" /></g></svg>