<?xml version='1.0' encoding='utf-8'?>
<svg xmlns="http://www.w3.org/2000/svg" version="1.1" viewBox="0 0 1024 1024"><g transform="scale(1, -1) translate(0, -900)"><path d="M 520 106 Q 574 107 626 112 Q 776 124 907 105 Q 934 102 940 111 Q 950 127 936 140 Q 903 171 855 195 Q 839 202 810 193 Q 740 180 668 171 Q 587 165 533 159 L 485 154 Q 361 145 299 138 Q 229 128 125 130 Q 109 130 108 117 Q 107 104 127 87 Q 146 72 181 58 Q 193 54 213 62 Q 231 68 304 78 Q 401 97 520 106 Z" fill="black" /></g></svg>