<?xml version='1.0' encoding='utf-8'?>
<svg xmlns="http://www.w3.org/2000/svg" version="1.1" viewBox="0 0 1024 1024"><g transform="scale(1, -1) translate(0, -900)"><path d="M 711 419 Q 730 465 746 625 Q 759 680 794 715 Q 812 734 793 749 Q 774 765 718 787 Q 703 796 644 777 Q 596 767 553 753 Q 513 741 486 736 Q 468 735 466 729 Q 462 723 481 713 Q 517 697 539 704 Q 578 719 668 735 Q 684 736 689 734 Q 707 727 701 674 Q 680 481 667 441 Q 663 426 665 412 C 665 382 701 391 711 419 Z" fill="black" /></g></svg>