<?xml version='1.0' encoding='utf-8'?>
<svg xmlns="http://www.w3.org/2000/svg" version="1.1" viewBox="0 0 1024 1024"><g transform="scale(1, -1) translate(0, -900)"><path d="M 636 275 Q 685 356 735 476 Q 750 507 775 528 Q 791 537 790 547 Q 789 560 757 576 Q 717 597 702 596 Q 690 595 678 583 Q 605 550 549 536 C 520 528 507 524 535 514 Q 550 505 577 503 Q 601 507 641 531 Q 663 541 675 535 Q 682 531 666 471 Q 597 201 318 38 Q 308 32 310 28 Q 311 24 319 24 Q 457 39 597 220 Q 607 235 619 250 L 636 275 Z" fill="black" /></g></svg>