<?xml version='1.0' encoding='utf-8'?>
<svg xmlns="http://www.w3.org/2000/svg" version="1.1" viewBox="0 0 1024 1024"><g transform="scale(1, -1) translate(0, -900)"><path d="M 665 412 Q 619 405 559 392 Q 540 388 538 405 Q 554 555 573 593 Q 580 609 575 621 Q 560 640 535 653 Q 519 662 508 654 Q 501 650 509 637 Q 521 598 489 420 Q 485 401 478 381 Q 471 360 485 344 Q 506 326 528 340 Q 582 379 776 394 Q 807 395 819 382 Q 829 370 788 188 Q 778 133 750 97 Q 743 85 719 85 Q 674 104 634 121 Q 619 125 619 119 Q 618 113 627 105 Q 694 42 719 -1 Q 726 -23 746 -13 Q 813 15 830 90 Q 855 187 874 297 Q 883 336 903 367 Q 916 383 905 397 Q 887 419 849 442 Q 828 455 798 443 Q 758 425 721 421 Q 717 421 711 419 L 665 412 Z" fill="black" /></g></svg>