<?xml version='1.0' encoding='utf-8'?>
<svg xmlns="http://www.w3.org/2000/svg" version="1.1" viewBox="0 0 1024 1024"><g transform="scale(1, -1) translate(0, -900)"><path d="M 548 324 Q 621 342 693 350 Q 706 351 710 344 Q 716 334 715 302 Q 712 190 694 129 Q 685 92 674 79 Q 662 66 637 73 Q 603 83 572 93 Q 548 100 565 78 Q 611 29 638 -11 Q 648 -33 669 -26 Q 684 -25 703 -3 Q 755 51 776 264 Q 780 310 798 339 Q 814 360 805 370 Q 790 388 756 402 Q 731 415 705 403 Q 588 349 443 344 Q 425 345 426 336 Q 425 329 444 316 Q 468 301 489 309 Q 502 313 515 316 L 548 324 Z" fill="black" /></g></svg>