<?xml version='1.0' encoding='utf-8'?>
<svg xmlns="http://www.w3.org/2000/svg" version="1.1" viewBox="0 0 1024 1024"><g transform="scale(1, -1) translate(0, -900)"><path d="M 978 142 Q 965 173 952 268 Q 952 284 945 290 Q 939 294 934 276 Q 901 176 880 146 Q 871 133 841 125 Q 775 110 714 134 Q 668 161 665 252 Q 666 343 683 460 Q 687 479 675 489 Q 665 498 650 505 C 624 521 603 526 611 497 Q 627 445 626 409 Q 614 154 653 105 Q 677 81 718 66 Q 859 20 970 100 Q 989 115 978 142 Z" fill="black" /></g></svg>