<?xml version='1.0' encoding='utf-8'?>
<svg xmlns="http://www.w3.org/2000/svg" version="1.1" viewBox="0 0 1024 1024"><g transform="scale(1, -1) translate(0, -900)"><path d="M 598 400 Q 540 393 510 384 Q 462 372 426 368 Q 402 365 398 356 Q 397 349 414 339 Q 447 317 479 330 Q 519 346 597 364 L 647 373 Q 809 403 830 384 Q 836 378 834 366 Q 803 233 789 216 Q 779 201 764 208 Q 733 215 700 222 Q 672 226 691 207 Q 752 153 775 115 Q 782 102 795 107 Q 828 128 865 251 Q 877 320 907 349 Q 923 368 918 377 Q 911 390 861 426 Q 842 442 826 436 Q 796 426 743 421 Q 688 415 647 408 L 598 400 Z" fill="black" /></g></svg>