<?xml version='1.0' encoding='utf-8'?>
<svg xmlns="http://www.w3.org/2000/svg" version="1.1" viewBox="0 0 1024 1024"><g transform="scale(1, -1) translate(0, -900)"><path d="M 647 541 Q 648 590 650 628 L 651 678 Q 657 744 671 767 Q 678 783 658 798 Q 634 817 593 827 Q 574 831 562 818 Q 552 811 564 798 Q 594 773 597 737 Q 597 706 597 663 L 598 618 Q 598 578 598 530 L 598 486 Q 598 446 598 400 L 597 364 Q 597 -17 608 -45 Q 609 -48 612 -53 Q 627 -68 635 -47 Q 653 -5 648 342 Q 647 358 647 373 L 647 408 Q 647 456 647 496 L 647 541 Z" fill="black" /></g></svg>