<?xml version='1.0' encoding='utf-8'?>
<svg xmlns="http://www.w3.org/2000/svg" version="1.1" viewBox="0 0 1024 1024"><g transform="scale(1, -1) translate(0, -900)"><path d="M 688 178 Q 719 239 750 328 Q 760 358 779 377 Q 798 393 784 407 Q 771 417 738 428 Q 714 435 688 419 Q 666 410 641 401 L 599 389 Q 515 374 513 369 Q 509 362 527 355 Q 563 342 611 357 Q 660 376 670 377 Q 695 376 690 347 Q 675 271 649 215 L 630 179 Q 573 91 451 48 Q 438 42 450 35 Q 456 31 494 33 Q 587 45 662 138 L 688 178 Z" fill="black" /></g></svg>