<?xml version='1.0' encoding='utf-8'?>
<svg xmlns="http://www.w3.org/2000/svg" version="1.1" viewBox="0 0 1024 1024"><g transform="scale(1, -1) translate(0, -900)"><path d="M 507 487 Q 537 497 569 502 Q 579 503 582 499 Q 589 484 586 446 Q 576 307 550 233 Q 537 187 522 172 Q 512 162 491 169 Q 463 178 438 188 Q 419 195 431 175 Q 470 130 489 96 Q 496 77 516 81 Q 532 84 554 107 Q 614 171 634 408 Q 638 462 659 493 Q 672 511 665 519 Q 652 535 621 547 Q 599 557 577 546 Q 549 533 513 519 L 456 502 Q 399 489 369 485 Q 354 486 354 477 Q 354 470 372 460 Q 394 448 412 456 Q 430 463 450 469 L 507 487 Z" fill="black" /></g></svg>