<?xml version='1.0' encoding='utf-8'?>
<svg xmlns="http://www.w3.org/2000/svg" version="1.1" viewBox="0 0 1024 1024"><g transform="scale(1, -1) translate(0, -900)"><path d="M 584 149 Q 587 89 621 62 Q 670 26 840 30 Q 916 33 948 49 Q 979 65 966 98 Q 948 141 935 216 Q 934 232 926 238 Q 917 244 913 222 Q 895 131 881 115 Q 857 87 751 82 Q 693 82 668 91 Q 646 101 640 116 Q 633 138 630 186 L 630 239 Q 636 324 654 363 Q 667 394 647 413 Q 595 453 578 449 Q 562 442 570 424 Q 591 385 586 327 Q 582 243 583 190 L 584 149 Z" fill="black" /></g></svg>