<?xml version='1.0' encoding='utf-8'?>
<svg xmlns="http://www.w3.org/2000/svg" version="1.1" viewBox="0 0 1024 1024"><g transform="scale(1, -1) translate(0, -900)"><path d="M 583 455 Q 579 644 592 669 Q 602 685 592 693 Q 576 706 546 718 Q 525 727 493 699 Q 478 695 463 687 C 436 675 454 651 481 664 Q 481 665 483 665 Q 499 672 515 680 Q 528 687 534 681 Q 544 641 542 450 L 542 418 Q 536 240 527 227 Q 523 223 509 226 Q 488 232 468 238 Q 452 245 453 237 Q 495 194 517 165 Q 527 149 539 145 Q 546 142 553 149 Q 587 188 588 230 Q 584 312 583 424 L 583 455 Z" fill="black" /></g></svg>