<?xml version='1.0' encoding='utf-8'?>
<svg xmlns="http://www.w3.org/2000/svg" version="1.1" viewBox="0 0 1024 1024"><g transform="scale(1, -1) translate(0, -900)"><path d="M 475 716 Q 459 729 444 735 Q 425 742 416 736 Q 406 730 415 714 Q 469 605 431 232 Q 430 181 389 130 Q 377 114 386 91 Q 396 63 410 52 Q 423 43 436 61 Q 451 92 597 218 Q 616 233 620 242 Q 624 252 614 252 Q 608 252 490 187 Q 480 180 478 191 Q 494 387 491 544 L 491 571 Q 491 577 491 582 Q 490 634 497 677 Q 498 683 499 687 C 501 699 500 699 475 716 Z" fill="black" /></g></svg>