<?xml version='1.0' encoding='utf-8'?>
<svg xmlns="http://www.w3.org/2000/svg" version="1.1" viewBox="0 0 1024 1024"><g transform="scale(1, -1) translate(0, -900)"><path d="M 700 172 Q 643 157 598 137 Q 586 137 590 149 Q 592 164 596 183 Q 604 220 602 232 Q 598 257 561 279 Q 553 286 541 284 Q 539 283 537 281 Q 533 276 539 257 Q 551 213 545 174 Q 541 155 533 139 Q 529 131 514 110 Q 505 96 510 86 Q 514 82 516 78 Q 545 49 561 64 Q 564 68 568 73 Q 606 102 714 142 Q 808 176 833 172 C 863 173 861 219 832 212 Q 780 200 744 187 L 700 172 Z" fill="black" /></g></svg>