<?xml version='1.0' encoding='utf-8'?>
<svg xmlns="http://www.w3.org/2000/svg" version="1.1" viewBox="0 0 1024 1024"><g transform="scale(1, -1) translate(0, -900)"><path d="M 962 73 Q 978 86 963 116 Q 947 165 942 232 Q 942 242 934 252 Q 924 258 920 234 Q 878 125 874 118 Q 870 108 850 105 Q 781 86 728 109 Q 700 119 691 153 Q 672 216 684 451 Q 696 677 722 712 Q 737 751 664 778 Q 655 782 645 784 Q 626 788 618 779 Q 609 770 617 760 Q 638 739 640 667 Q 622 148 662 97 Q 699 48 809 42 Q 923 36 962 73 Z" fill="black" /></g></svg>