<?xml version='1.0' encoding='utf-8'?>
<svg xmlns="http://www.w3.org/2000/svg" version="1.1" viewBox="0 0 1024 1024"><g transform="scale(1, -1) translate(0, -900)"><path d="M 586 278 Q 587 275 595 269 Q 629 239 648 216 Q 660 204 676 211 Q 685 215 693 239 Q 709 276 705 321 Q 695 418 703 453 Q 707 465 702 471 Q 686 481 659 489 Q 646 495 634 488 Q 618 479 591 469 L 550 456 Q 522 449 490 441 C 461 434 467 412 497 416 Q 504 416 513 418 Q 532 425 551 431 L 590 443 Q 633 461 645 454 Q 657 444 657 408 Q 656 372 655 328 Q 655 297 645 284 Q 641 277 623 280 Q 590 284 587 281 Q 586 281 586 280 L 586 278 Z" fill="black" /></g></svg>