<?xml version='1.0' encoding='utf-8'?>
<svg xmlns="http://www.w3.org/2000/svg" version="1.1" viewBox="0 0 1024 1024"><g transform="scale(1, -1) translate(0, -900)"><path d="M 665 384 Q 678 363 692 343 Q 708 318 717 320 Q 727 321 739 348 Q 751 376 748 415 Q 738 679 759 720 Q 771 739 762 751 Q 753 761 700 778 Q 675 788 655 777 Q 567 740 495 727 C 466 721 475 695 505 700 Q 520 700 620 729 Q 663 742 677 728 Q 687 719 688 680 Q 694 521 689 434 Q 690 418 683 413 C 674 384 659 393 665 384 Z" fill="black" /></g></svg>