<?xml version='1.0' encoding='utf-8'?>
<svg xmlns="http://www.w3.org/2000/svg" version="1.1" viewBox="0 0 1024 1024"><g transform="scale(1, -1) translate(0, -900)"><path d="M 621 392 Q 620 474 622 553 L 623 596 Q 623 701 641 767 Q 657 795 604 817 Q 571 835 553 828 Q 537 822 552 800 Q 573 775 574 741 Q 575 725 576 583 L 577 543 Q 576 390 576 116 Q 575 91 562 82 Q 556 76 488 85 Q 457 95 459 85 Q 460 78 481 65 Q 542 22 559 -5 Q 578 -35 593 -36 Q 606 -36 620 -3 Q 636 40 632 111 Q 625 232 622 354 L 621 392 Z" fill="black" /></g></svg>