<?xml version='1.0' encoding='utf-8'?>
<svg xmlns="http://www.w3.org/2000/svg" version="1.1" viewBox="0 0 1024 1024"><g transform="scale(1, -1) translate(0, -900)"><path d="M 587 376 Q 587 373 589 369 Q 602 332 599 297 Q 589 117 605 68 Q 609 46 630 27 Q 696 -27 852 -6 Q 867 -3 882 1 Q 919 11 957 38 Q 976 53 963 78 Q 948 111 932 209 Q 932 225 925 230 Q 919 233 915 216 Q 890 111 870 78 Q 840 45 747 47 Q 710 48 682 59 Q 657 71 650 87 Q 620 145 652 344 Q 656 365 630 381 C 608 401 578 405 587 376 Z" fill="black" /></g></svg>