<?xml version='1.0' encoding='utf-8'?>
<svg xmlns="http://www.w3.org/2000/svg" version="1.1" viewBox="0 0 1024 1024"><g transform="scale(1, -1) translate(0, -900)"><path d="M 504 662 Q 483 678 464 687 Q 445 694 436 687 Q 426 680 435 665 Q 495 545 461 120 Q 460 69 420 18 Q 408 2 416 -22 Q 428 -49 441 -60 Q 454 -69 467 -51 Q 480 -24 604 87 Q 623 100 628 110 Q 632 120 622 120 Q 607 120 523 74 Q 510 67 509 80 Q 516 230 516 356 L 517 392 L 516 416 Q 515 465 513 510 L 512 535 Q 511 587 518 629 C 521 650 521 650 504 662 Z" fill="black" /></g></svg>