<?xml version='1.0' encoding='utf-8'?>
<svg xmlns="http://www.w3.org/2000/svg" version="1.1" viewBox="0 0 1024 1024"><g transform="scale(1, -1) translate(0, -900)"><path d="M 559 564 Q 595 573 624 575 Q 640 576 640 585 Q 639 594 611 605 Q 590 614 559 598 L 514 583 Q 423 558 421 557 Q 414 558 414 567 Q 421 595 432 625 Q 439 644 427 662 Q 405 690 387 692 Q 372 693 376 677 Q 395 632 384 593 Q 374 562 368 557 Q 359 542 366 531 Q 378 512 388 511 Q 395 511 412 518 Q 445 534 497 548 L 559 564 Z" fill="black" /></g></svg>