<?xml version='1.0' encoding='utf-8'?>
<svg xmlns="http://www.w3.org/2000/svg" version="1.1" viewBox="0 0 1024 1024"><g transform="scale(1, -1) translate(0, -900)"><path d="M 717 488 Q 632 470 541 443 Q 531 439 527 441 Q 526 444 531 452 Q 616 558 635 576 Q 647 586 641 598 Q 637 608 606 625 C 580 640 547 646 554 617 Q 555 616 556 612 Q 568 569 513 496 Q 491 462 442 429 Q 429 417 432 406 Q 438 390 462 370 Q 472 360 486 370 Q 528 406 731 464 Q 732 465 735 465 C 764 473 746 494 717 488 Z" fill="black" /></g></svg>