<?xml version='1.0' encoding='utf-8'?>
<svg xmlns="http://www.w3.org/2000/svg" version="1.1" viewBox="0 0 1024 1024"><g transform="scale(1, -1) translate(0, -900)"><path d="M 729 422 Q 747 394 764 385 Q 776 376 792 399 Q 814 436 853 633 Q 863 667 890 693 Q 903 706 892 722 Q 876 741 829 770 Q 811 779 725 763 Q 716 762 707 760 Q 686 757 455 722 C 425 718 459 681 488 688 Q 528 698 584 706 L 636 714 Q 682 721 738 726 Q 775 730 786 718 Q 805 696 800 674 Q 761 466 739 452 C 724 429 724 429 729 422 Z" fill="black" /></g></svg>