<?xml version='1.0' encoding='utf-8'?>
<svg xmlns="http://www.w3.org/2000/svg" version="1.1" viewBox="0 0 1024 1024"><g transform="scale(1, -1) translate(0, -900)"><path d="M 715 428 Q 773 441 823 442 Q 851 443 842 456 Q 835 469 819 476 Q 810 479 716 459 L 664 449 Q 633 445 598 439 Q 582 436 579 440 Q 573 452 638 610 L 658 660 Q 700 745 702 747 Q 714 759 698 777 Q 673 801 654 812 Q 641 819 632 816 Q 625 812 630 792 Q 640 762 610 648 L 596 601 Q 548 474 516 440 Q 503 424 507 410 Q 514 391 524 382 Q 533 373 543 378 Q 579 397 665 417 L 715 428 Z" fill="black" /></g></svg>