<?xml version='1.0' encoding='utf-8'?>
<svg xmlns="http://www.w3.org/2000/svg" version="1.1" viewBox="0 0 1024 1024"><g transform="scale(1, -1) translate(0, -900)"><path d="M 639 427 Q 638 431 636 434 L 626 449 Q 569 524 479 554 C 451 564 432 551 458 536 Q 459 535 465 531 Q 493 518 518 500 L 561 464 Q 579 445 594 422 L 617 361 Q 633 288 608 179 Q 595 130 580 123 Q 570 117 514 129 Q 474 138 472 132 Q 471 125 483 112 Q 541 63 564 30 Q 577 11 594 14 Q 616 23 637 57 Q 686 157 675 302 Q 668 345 667 348 L 639 427 Z" fill="black" /></g></svg>