<?xml version='1.0' encoding='utf-8'?>
<svg xmlns="http://www.w3.org/2000/svg" version="1.1" viewBox="0 0 1024 1024"><g transform="scale(1, -1) translate(0, -900)"><path d="M 586 236 Q 631 254 661 263 Q 674 267 680 263 Q 674 92 679 76 Q 709 -20 859 -14 Q 917 -11 963 13 Q 984 25 973 47 Q 948 102 944 165 Q 941 172 935 173 Q 932 173 927 160 Q 906 70 886 55 Q 841 30 756 50 Q 746 54 740 61 Q 721 77 715 116 Q 706 164 730 225 Q 737 244 752 256 Q 782 280 712 304 Q 690 314 677 304 Q 649 285 573 262 C 544 253 558 225 586 236 Z" fill="black" /></g></svg>