<?xml version='1.0' encoding='utf-8'?>
<svg xmlns="http://www.w3.org/2000/svg" version="1.1" viewBox="0 0 1024 1024"><g transform="scale(1, -1) translate(0, -900)"><path d="M 806 395 Q 797 408 782 447 Q 782 459 776 461 Q 772 464 770 451 Q 752 406 741 392 Q 735 385 717 379 Q 672 370 639 381 Q 626 387 622 395 Q 613 410 614 441 L 616 479 Q 617 498 621 518 Q 625 533 614 540 Q 604 550 584 557 Q 574 560 567 556 Q 563 553 566 538 Q 575 513 576 468 L 577 431 Q 578 370 600 353 Q 648 317 747 340 Q 751 341 758 343 Q 780 350 803 368 Q 815 378 806 395 Z" fill="black" /></g></svg>