<?xml version='1.0' encoding='utf-8'?>
<svg xmlns="http://www.w3.org/2000/svg" version="1.1" viewBox="0 0 1024 1024"><g transform="scale(1, -1) translate(0, -900)"><path d="M 962 133 Q 950 158 936 232 Q 936 248 929 254 Q 923 258 917 240 Q 883 161 864 138 Q 855 125 827 118 Q 758 102 706 124 Q 684 134 679 148 Q 658 188 667 288 L 670 315 Q 674 355 681 398 Q 685 416 674 425 Q 661 438 638 447 Q 625 451 617 446 Q 610 442 616 424 Q 629 387 626 349 Q 616 177 631 129 Q 635 107 655 88 Q 725 30 871 54 Q 878 57 887 58 Q 921 68 954 93 Q 973 106 962 133 Z" fill="black" /></g></svg>