<?xml version='1.0' encoding='utf-8'?>
<svg xmlns="http://www.w3.org/2000/svg" version="1.1" viewBox="0 0 1024 1024"><g transform="scale(1, -1) translate(0, -900)"><path d="M 644 423 Q 693 445 732 455 Q 741 456 742 455 Q 749 445 748 419 Q 747 347 731 315 Q 718 290 695 292 Q 676 298 657 305 Q 636 312 650 291 Q 687 254 704 225 Q 717 209 732 223 Q 781 259 799 404 Q 803 440 816 458 Q 825 470 819 477 Q 812 486 768 500 Q 752 506 736 494 Q 726 487 683 470 Q 655 460 630 452 C 601 443 617 411 644 423 Z" fill="black" /></g></svg>