<?xml version='1.0' encoding='utf-8'?>
<svg xmlns="http://www.w3.org/2000/svg" version="1.1" viewBox="0 0 1024 1024"><g transform="scale(1, -1) translate(0, -900)"><path d="M 321 275 Q 322 300 325 307 Q 329 323 319 331 Q 310 341 271 355 Q 256 359 251 354 Q 244 348 253 332 Q 292 269 262 136 Q 240 81 214 54 Q 202 44 208 24 Q 214 -1 226 -14 Q 236 -23 249 -11 Q 297 38 435 134 Q 450 141 452 150 Q 453 156 448 155 Q 438 155 324 101 Q 314 97 311 100 Q 305 106 319 250 L 321 275 Z" fill="black" /></g></svg>