<?xml version='1.0' encoding='utf-8'?>
<svg xmlns="http://www.w3.org/2000/svg" version="1.1" viewBox="0 0 1024 1024"><g transform="scale(1, -1) translate(0, -900)"><path d="M 711 449 Q 711 485 711 521 L 711 571 Q 711 694 727 759 Q 742 784 711 804 Q 696 814 671 829 Q 647 845 628 829 Q 622 825 629 809 Q 663 760 666 708 Q 667 638 671 559 L 671 400 Q 671 207 661 144 Q 640 45 654 9 Q 658 -1 664 -15 Q 671 -31 679 -35 Q 685 -42 692 -34 Q 719 -12 717 46 Q 714 89 711 401 L 711 449 Z" fill="black" /></g></svg>