<?xml version='1.0' encoding='utf-8'?>
<svg xmlns="http://www.w3.org/2000/svg" version="1.1" viewBox="0 0 1024 1024"><g transform="scale(1, -1) translate(0, -900)"><path d="M 941 88 Q 929 116 916 202 Q 916 217 909 222 Q 903 225 899 209 Q 871 118 853 89 Q 838 73 797 60 Q 706 36 625 59 Q 595 72 588 89 Q 567 129 573 235 L 575 253 Q 579 308 590 372 Q 594 390 583 400 Q 570 413 546 423 Q 533 427 524 422 Q 517 418 522 400 Q 535 360 533 321 Q 521 123 538 69 Q 542 47 565 28 Q 646 -26 815 3 Q 831 7 849 11 Q 892 24 935 52 Q 953 65 941 88 Z" fill="black" /></g></svg>