<?xml version='1.0' encoding='utf-8'?>
<svg xmlns="http://www.w3.org/2000/svg" version="1.1" viewBox="0 0 1024 1024"><g transform="scale(1, -1) translate(0, -900)"><path d="M 721 169 Q 737 144 753 137 Q 763 130 778 150 Q 791 172 819 291 Q 828 321 851 346 Q 864 358 852 371 Q 837 387 795 413 Q 779 422 725 407 Q 712 404 697 401 Q 631 389 514 362 C 485 355 498 315 526 327 Q 538 339 723 371 Q 748 375 759 367 Q 772 357 768 339 Q 749 227 739 210 Q 735 198 723 195 C 709 185 709 185 721 169 Z" fill="black" /></g></svg>