<?xml version='1.0' encoding='utf-8'?>
<svg xmlns="http://www.w3.org/2000/svg" version="1.1" viewBox="0 0 1024 1024"><g transform="scale(1, -1) translate(0, -900)"><path d="M 660 170 Q 744 183 870 179 Q 891 178 898 189 Q 904 198 886 209 Q 835 245 781 228 Q 753 222 724 216 Q 693 212 661 205 L 609 195 Q 545 185 484 169 Q 466 163 471 179 Q 493 228 508 245 Q 518 252 515 263 Q 511 273 483 294 Q 468 306 458 302 Q 448 295 453 282 Q 460 254 436 198 Q 430 179 405 161 Q 395 152 396 140 Q 397 130 411 115 Q 423 106 436 116 Q 499 149 609 163 L 660 170 Z" fill="black" /></g></svg>