<?xml version='1.0' encoding='utf-8'?>
<svg xmlns="http://www.w3.org/2000/svg" version="1.1" viewBox="0 0 1024 1024"><g transform="scale(1, -1) translate(0, -900)"><path d="M 480 700 Q 464 651 429 607 Q 420 597 423 585 Q 424 575 440 563 Q 474 532 505 496 Q 520 480 533 479 Q 546 480 549 501 Q 552 523 540 539 Q 533 552 484 568 Q 466 572 459 586 Q 455 595 467 608 Q 483 626 515 665 Q 534 687 549 698 Q 562 705 557 723 Q 544 757 522 770 Q 509 779 498 777 Q 488 776 492 757 Q 499 733 480 700 Z" fill="black" /></g></svg>