<?xml version='1.0' encoding='utf-8'?>
<svg xmlns="http://www.w3.org/2000/svg" version="1.1" viewBox="0 0 1024 1024"><g transform="scale(1, -1) translate(0, -900)"><path d="M 701 649 Q 705 650 710 652 Q 752 665 794 680 Q 812 689 819 680 Q 831 644 829 348 Q 823 114 807 88 Q 804 85 736 94 Q 715 101 716 91 Q 768 43 797 8 Q 810 -13 827 -18 Q 837 -22 846 -11 Q 889 38 888 97 Q 881 281 885 579 Q 882 639 897 665 Q 909 686 896 696 Q 874 715 836 730 Q 817 737 801 729 Q 767 707 746 698 Q 727 691 692 681 C 663 672 672 640 701 649 Z" fill="black" /></g></svg>