<?xml version='1.0' encoding='utf-8'?>
<svg xmlns="http://www.w3.org/2000/svg" version="1.1" viewBox="0 0 1024 1024"><g transform="scale(1, -1) translate(0, -900)"><path d="M 439 388 Q 451 391 514 410 Q 529 416 534 408 Q 538 398 540 380 Q 550 214 545 111 Q 544 89 537 79 Q 501 80 465 82 Q 464 82 465 80 Q 507 46 531 18 Q 541 3 555 -1 Q 562 -4 568 4 Q 601 43 599 87 Q 577 367 594 399 Q 604 414 594 422 Q 576 437 547 448 Q 534 454 520 447 Q 495 431 478 425 Q 462 419 430 412 C 401 405 410 380 439 388 Z" fill="black" /></g></svg>