<?xml version='1.0' encoding='utf-8'?>
<svg xmlns="http://www.w3.org/2000/svg" version="1.1" viewBox="0 0 1024 1024"><g transform="scale(1, -1) translate(0, -900)"><path d="M 660 744 Q 645 690 601 633 Q 591 623 589 615 Q 588 605 609 587 Q 637 563 675 516 Q 687 497 697 499 Q 710 500 717 516 Q 724 537 718 552 Q 712 573 636 602 Q 612 614 656 663 Q 662 670 669 677 Q 703 713 715 722 Q 725 726 728 732 Q 732 747 712 769 Q 696 788 679 794 Q 663 797 657 791 Q 654 787 659 779 Q 666 766 660 744 Z" fill="black" /></g></svg>