<?xml version='1.0' encoding='utf-8'?>
<svg xmlns="http://www.w3.org/2000/svg" version="1.1" viewBox="0 0 1024 1024"><g transform="scale(1, -1) translate(0, -900)"><path d="M 748 249 Q 785 313 819 415 Q 829 443 847 461 Q 865 477 852 489 Q 839 499 809 509 Q 787 515 762 501 Q 737 491 704 479 Q 670 469 614 460 Q 601 459 597 452 Q 594 446 611 439 Q 645 427 691 442 Q 737 461 745 461 Q 769 460 763 434 Q 745 347 713 286 L 692 251 Q 632 167 503 123 Q 490 119 502 111 Q 508 107 548 109 Q 641 119 721 211 L 748 249 Z" fill="black" /></g></svg>