<?xml version='1.0' encoding='utf-8'?>
<svg xmlns="http://www.w3.org/2000/svg" version="1.1" viewBox="0 0 1024 1024"><g transform="scale(1, -1) translate(0, -900)"><path d="M 766 190 Q 767 183 774 174 Q 789 144 798 146 Q 813 147 828 181 Q 841 208 840 229 Q 827 311 825 439 Q 824 476 843 508 Q 853 524 845 534 Q 817 558 768 577 Q 752 581 729 572 Q 698 559 663 546 L 619 535 Q 568 525 525 517 C 496 511 518 479 546 488 Q 615 512 717 531 Q 741 537 749 524 Q 765 505 767 440 Q 774 256 766 219 Q 765 218 765 217 L 766 190 Z" fill="black" /></g></svg>