<?xml version='1.0' encoding='utf-8'?>
<svg xmlns="http://www.w3.org/2000/svg" version="1.1" viewBox="0 0 1024 1024"><g transform="scale(1, -1) translate(0, -900)"><path d="M 686 269 Q 741 279 806 285 Q 825 284 832 274 Q 839 267 835 255 Q 832 83 820 59 Q 816 50 804 53 Q 777 57 747 63 Q 720 64 739 48 Q 803 -1 828 -38 Q 840 -51 852 -41 Q 879 -14 886 88 Q 892 232 906 255 Q 919 274 914 281 Q 907 293 858 322 Q 842 335 827 328 Q 800 318 752 308 Q 640 292 572 276 L 536 268 Q 517 265 505 260 Q 463 250 431 242 C 402 235 414 198 443 205 Q 453 205 463 209 Q 485 219 521 230 L 553 240 Q 599 253 648 262 L 686 269 Z" fill="black" /></g></svg>