<?xml version='1.0' encoding='utf-8'?>
<svg xmlns="http://www.w3.org/2000/svg" version="1.1" viewBox="0 0 1024 1024"><g transform="scale(1, -1) translate(0, -900)"><path d="M 583 362 Q 584 380 589 397 L 592 428 Q 593 438 595 450 Q 598 480 601 505 L 608 546 Q 612 567 622 589 Q 626 599 619 606 Q 606 619 586 629 C 560 644 516 643 534 619 Q 558 592 557 565 Q 556 549 555 530 L 552 496 Q 548 456 543 416 L 540 388 Q 513 204 422 116 Q 419 115 417 112 Q 381 79 304 37 Q 292 33 290 29 Q 286 25 300 22 Q 343 18 443 82 Q 539 146 578 338 L 583 362 Z" fill="black" /></g></svg>