<?xml version='1.0' encoding='utf-8'?>
<svg xmlns="http://www.w3.org/2000/svg" version="1.1" viewBox="0 0 1024 1024"><g transform="scale(1, -1) translate(0, -900)"><path d="M 519 355 Q 531 365 614 388 Q 800 442 841 417 Q 857 402 825 216 Q 804 122 783 87 Q 776 66 755 67 Q 727 79 697 89 Q 681 98 676 93 Q 672 89 687 75 Q 745 -4 749 -27 Q 753 -37 763 -38 Q 779 -42 814 -10 Q 845 21 863 87 Q 917 385 941 402 Q 950 409 949 416 Q 950 425 917 448 Q 875 475 816 461 Q 746 461 680 439 Q 677 439 674 437 L 631 429 Q 585 422 556 410 Q 525 400 519 423 C 495 441 492 343 519 355 Z" fill="black" /></g></svg>