<?xml version='1.0' encoding='utf-8'?>
<svg xmlns="http://www.w3.org/2000/svg" version="1.1" viewBox="0 0 1024 1024"><g transform="scale(1, -1) translate(0, -900)"><path d="M 912 38 Q 908 48 889 64 Q 861 86 784 167 Q 778 174 773 174 Q 770 173 772 166 Q 785 126 797 82 Q 803 63 791 52 Q 761 28 655 44 Q 574 59 540 114 Q 521 151 508 191 Q 502 215 483 224 Q 468 231 463 225 Q 459 221 466 206 Q 473 188 490 140 Q 521 32 613 -1 Q 622 -4 634 -8 Q 791 -50 900 24 Q 913 31 912 38 Z" fill="black" /></g></svg>