<?xml version='1.0' encoding='utf-8'?>
<svg xmlns="http://www.w3.org/2000/svg" version="1.1" viewBox="0 0 1024 1024"><g transform="scale(1, -1) translate(0, -900)"><path d="M 726 335 Q 750 304 770 297 Q 782 290 794 313 Q 813 364 828 617 Q 834 648 855 675 Q 867 688 854 701 Q 838 717 793 738 Q 775 744 702 722 Q 687 721 565 687 Q 525 677 494 668 C 459 658 438 617 483 634 Q 504 644 584 664 L 617 672 Q 660 685 713 695 Q 744 702 755 691 Q 780 666 779 638 Q 760 371 737 357 C 726 335 726 335 726 335 Z" fill="black" /></g></svg>