<?xml version='1.0' encoding='utf-8'?>
<svg xmlns="http://www.w3.org/2000/svg" version="1.1" viewBox="0 0 1024 1024"><g transform="scale(1, -1) translate(0, -900)"><path d="M 446 439 Q 450 440 458 439 Q 480 436 489 425 Q 504 406 469 257 Q 453 188 425 174 Q 416 171 387 178 Q 357 191 354 186 Q 350 179 364 169 Q 394 144 403 115 Q 407 102 418 98 Q 428 94 454 113 Q 490 147 516 275 Q 532 389 552 408 Q 559 412 561 420 Q 562 427 541 446 Q 514 470 464 465 Q 460 466 454 466 C 424 467 416 440 446 439 Z" fill="black" /></g></svg>