<?xml version='1.0' encoding='utf-8'?>
<svg xmlns="http://www.w3.org/2000/svg" version="1.1" viewBox="0 0 1024 1024"><g transform="scale(1, -1) translate(0, -900)"><path d="M 734 292 Q 798 296 877 297 Q 934 294 943 305 Q 947 315 933 327 Q 885 366 819 347 Q 785 341 742 332 L 672 321 Q 654 320 636 316 Q 605 312 574 307 L 518 299 Q 448 290 371 280 Q 352 279 366 263 Q 379 250 395 246 Q 414 242 428 245 Q 462 255 503 263 L 555 272 Q 580 278 607 280 Q 637 284 674 287 L 734 292 Z" fill="black" /></g></svg>