<?xml version='1.0' encoding='utf-8'?>
<svg xmlns="http://www.w3.org/2000/svg" version="1.1" viewBox="0 0 1024 1024"><g transform="scale(1, -1) translate(0, -900)"><path d="M 750 630 Q 749 631 746 630 Q 716 629 691 625 Q 670 624 680 637 Q 714 694 746 736 Q 756 749 754 755 Q 753 765 723 786 Q 710 796 697 792 Q 690 791 694 779 Q 700 767 697 748 Q 691 721 662 664 Q 653 645 633 626 Q 621 614 623 606 Q 627 593 638 580 Q 645 573 655 579 Q 688 604 739 612 C 769 617 780 631 750 630 Z" fill="black" /></g></svg>