<?xml version='1.0' encoding='utf-8'?>
<svg xmlns="http://www.w3.org/2000/svg" version="1.1" viewBox="0 0 1024 1024"><g transform="scale(1, -1) translate(0, -900)"><path d="M 817 235 Q 820 156 817 66 Q 817 45 810 40 Q 797 30 734 42 Q 721 43 722 35 Q 723 29 734 25 Q 792 -12 822 -40 Q 840 -56 851 -54 Q 861 -51 870 -26 Q 883 13 880 69 Q 859 318 875 347 Q 885 365 876 375 Q 867 388 827 408 Q 806 417 734 396 Q 610 369 476 355 C 446 352 454 319 484 322 Q 493 321 506 323 Q 528 329 557 334 L 582 339 Q 616 346 656 353 L 691 359 Q 727 366 772 371 Q 791 375 801 364 Q 810 358 816 267 L 817 235 Z" fill="black" /></g></svg>