<?xml version='1.0' encoding='utf-8'?>
<svg xmlns="http://www.w3.org/2000/svg" version="1.1" viewBox="0 0 1024 1024"><g transform="scale(1, -1) translate(0, -900)"><path d="M 708 255 Q 727 225 745 217 Q 755 210 770 231 Q 782 252 806 363 Q 815 394 837 418 Q 849 430 838 443 Q 822 459 781 484 Q 766 490 677 473 Q 667 473 635 465 L 587 456 Q 565 455 543 449 Q 495 439 453 432 C 423 427 442 394 471 402 Q 519 415 588 427 L 634 435 Q 662 441 699 445 Q 733 449 743 438 Q 753 426 752 413 Q 742 334 725 282 C 716 253 702 264 708 255 Z" fill="black" /></g></svg>