<?xml version='1.0' encoding='utf-8'?>
<svg xmlns="http://www.w3.org/2000/svg" version="1.1" viewBox="0 0 1024 1024"><g transform="scale(1, -1) translate(0, -900)"><path d="M 707 159 Q 759 53 856 -25 Q 914 -74 942 -73 Q 961 -69 955 -41 Q 951 2 951 130 Q 951 154 943 155 Q 937 155 905 73 Q 893 40 870 47 Q 858 53 841 66 Q 786 118 742 186 L 718 229 Q 688 289 666 360 L 655 399 Q 586 651 598 781 Q 608 818 556 837 Q 522 850 504 842 Q 486 835 496 818 Q 539 781 542 750 Q 576 524 617 385 L 627 350 Q 652 271 686 200 L 707 159 Z" fill="black" /></g></svg>