<?xml version='1.0' encoding='utf-8'?>
<svg xmlns="http://www.w3.org/2000/svg" version="1.1" viewBox="0 0 1024 1024"><g transform="scale(1, -1) translate(0, -900)"><path d="M 784 518 Q 777 528 762 560 Q 761 570 756 573 Q 752 574 750 564 Q 734 527 724 515 Q 717 508 697 503 Q 655 491 618 501 Q 605 505 602 513 Q 598 523 598 536 L 601 570 Q 602 582 606 595 Q 610 608 601 616 Q 591 626 573 633 Q 569 634 565 634 C 554 636 554 636 554 631 Q 551 627 555 616 Q 564 588 563 559 L 562 527 Q 562 491 580 476 Q 631 443 735 470 Q 759 477 782 493 Q 792 503 784 518 Z" fill="black" /></g></svg>