<?xml version='1.0' encoding='utf-8'?>
<svg xmlns="http://www.w3.org/2000/svg" version="1.1" viewBox="0 0 1024 1024"><g transform="scale(1, -1) translate(0, -900)"><path d="M 565 634 Q 661 659 756 673 Q 784 680 786 668 Q 786 658 765 618 Q 758 605 764 601 Q 768 597 781 607 Q 847 644 871 650 Q 890 651 891 663 Q 890 675 826 710 Q 804 722 720 697 Q 617 675 615 673 L 579 667 Q 518 658 448 647 Q 444 647 444 646 C 414 641 429 613 459 614 Q 475 613 498 619 Q 526 626 554 631 L 565 634 Z" fill="black" /></g></svg>