<?xml version='1.0' encoding='utf-8'?>
<svg xmlns="http://www.w3.org/2000/svg" version="1.1" viewBox="0 0 1024 1024"><g transform="scale(1, -1) translate(0, -900)"><path d="M 672 146 Q 703 189 733 249 Q 748 274 767 289 Q 786 302 776 316 Q 766 329 737 342 Q 716 352 690 342 Q 669 335 641 327 Q 616 320 578 316 C 548 312 532 304 561 296 Q 594 283 638 293 Q 666 305 672 305 Q 688 298 678 280 Q 662 222 634 178 L 610 147 Q 538 66 373 27 Q 360 24 370 15 Q 377 11 423 13 Q 481 17 549 48 Q 603 73 643 112 L 672 146 Z" fill="black" /></g></svg>