<?xml version='1.0' encoding='utf-8'?>
<svg xmlns="http://www.w3.org/2000/svg" version="1.1" viewBox="0 0 1024 1024"><g transform="scale(1, -1) translate(0, -900)"><path d="M 715 463 Q 672 460 624 453 L 585 448 Q 518 444 432 432 L 399 429 Q 369 429 317 419 L 280 415 Q 250 414 221 411 C 191 408 188 382 217 376 Q 236 367 271 374 Q 386 404 656 428 Q 743 435 765 430 Q 784 417 780 407 Q 781 403 776 389 Q 746 319 753 313 Q 760 309 777 322 Q 831 362 875 377 Q 912 390 911 399 Q 910 409 837 461 Q 812 482 755 467 L 715 463 Z" fill="black" /></g></svg>