<?xml version='1.0' encoding='utf-8'?>
<svg xmlns="http://www.w3.org/2000/svg" version="1.1" viewBox="0 0 1024 1024"><g transform="scale(1, -1) translate(0, -900)"><path d="M 535 657 Q 698 690 715 672 Q 722 668 727 634 Q 739 519 736 387 Q 737 368 730 362 Q 723 356 686 360 Q 673 363 674 355 Q 674 349 684 344 Q 718 311 736 288 Q 752 272 763 274 Q 773 277 782 300 Q 795 336 793 389 Q 771 629 785 660 Q 795 678 785 688 Q 776 700 736 719 Q 720 726 703 722 Q 651 704 536 682 L 495 675 Q 404 662 310 652 C 280 649 299 612 328 618 Q 332 618 337 619 Q 410 637 495 651 L 535 657 Z" fill="black" /></g></svg>