<?xml version='1.0' encoding='utf-8'?>
<svg xmlns="http://www.w3.org/2000/svg" version="1.1" viewBox="0 0 1024 1024"><g transform="scale(1, -1) translate(0, -900)"><path d="M 596 658 Q 749 688 774 675 Q 778 671 774 652 Q 741 546 741 542 Q 745 529 755 528 Q 773 531 800 575 Q 818 618 850 641 Q 868 653 855 667 Q 842 683 801 708 Q 789 717 711 701 Q 690 701 634 690 L 608 686 Q 571 682 541 673 Q 474 660 432 655 C 402 651 422 620 451 626 Q 455 626 460 627 Q 502 640 574 654 L 596 658 Z" fill="black" /></g></svg>