<?xml version='1.0' encoding='utf-8'?>
<svg xmlns="http://www.w3.org/2000/svg" version="1.1" viewBox="0 0 1024 1024"><g transform="scale(1, -1) translate(0, -900)"><path d="M 812 455 Q 813 458 814 460 Q 827 517 856 535 Q 868 542 866 551 Q 865 558 823 585 Q 804 595 788 586 Q 757 573 708 558 Q 686 554 690 575 Q 697 621 703 656 L 707 678 Q 716 730 724 751 Q 734 773 710 786 Q 668 804 656 798 Q 644 794 655 779 Q 668 761 665 729 Q 664 674 658 617 Q 658 581 642 552 Q 633 537 652 520 Q 667 505 678 515 Q 699 531 751 543 Q 776 550 784 540 Q 787 537 767 461 Q 764 458 763 455 C 752 427 803 426 812 455 Z" fill="black" /></g></svg>