<?xml version='1.0' encoding='utf-8'?>
<svg xmlns="http://www.w3.org/2000/svg" version="1.1" viewBox="0 0 1024 1024"><g transform="scale(1, -1) translate(0, -900)"><path d="M 918 504 Q 909 519 894 567 Q 893 579 888 581 Q 884 584 882 571 Q 864 517 853 501 Q 849 495 833 491 Q 796 482 769 491 Q 759 495 755 503 Q 746 522 757 583 Q 760 601 733 613 C 707 627 702 630 709 608 Q 709 607 711 601 Q 721 574 719 549 Q 716 486 738 466 Q 780 430 872 452 Q 872 453 875 453 Q 896 460 915 475 Q 928 487 918 504 Z" fill="black" /></g></svg>