<?xml version='1.0' encoding='utf-8'?>
<svg xmlns="http://www.w3.org/2000/svg" version="1.1" viewBox="0 0 1024 1024"><g transform="scale(1, -1) translate(0, -900)"><path d="M 673 476 Q 652 395 574 322 Q 567 318 565 313 C 560 308 560 308 569 308 Q 569 307 576 308 Q 585 304 607 317 Q 682 353 713 477 Q 713 480 714 482 L 721 521 Q 725 557 730 597 L 734 643 Q 743 754 756 785 Q 762 798 751 808 Q 730 824 694 834 Q 670 840 663 833 Q 654 826 662 815 Q 692 770 690 631 L 688 588 Q 685 551 679 512 L 673 476 Z" fill="black" /></g></svg>