<?xml version='1.0' encoding='utf-8'?>
<svg xmlns="http://www.w3.org/2000/svg" version="1.1" viewBox="0 0 1024 1024"><g transform="scale(1, -1) translate(0, -900)"><path d="M 497 558 Q 493 567 449 581 C 425 589 431 575 442 547 Q 472 489 455 291 Q 449 245 438 212 Q 432 184 403 151 Q 393 142 399 125 Q 405 103 416 92 Q 426 85 437 95 Q 470 134 576 217 C 600 236 596 241 568 229 Q 546 220 497 197 Q 490 194 488 196 Q 481 200 483 217 Q 493 488 499 535 C 501 555 501 555 497 558 Z" fill="black" /></g></svg>