<?xml version='1.0' encoding='utf-8'?>
<svg xmlns="http://www.w3.org/2000/svg" version="1.1" viewBox="0 0 1024 1024"><g transform="scale(1, -1) translate(0, -900)"><path d="M 655 531 Q 655 537 657 542 Q 661 555 652 564 Q 633 582 615 590 C 589 605 570 604 583 577 Q 584 577 585 575 Q 633 482 601 171 Q 600 126 564 82 Q 554 67 561 48 Q 571 23 583 14 Q 595 7 605 22 Q 617 47 732 150 Q 739 156 744 160 C 767 179 762 187 734 175 Q 725 174 652 132 Q 643 126 642 135 Q 655 321 651 463 Q 650 481 651 497 L 655 531 Z" fill="black" /></g></svg>