<?xml version='1.0' encoding='utf-8'?>
<svg xmlns="http://www.w3.org/2000/svg" version="1.1" viewBox="0 0 1024 1024"><g transform="scale(1, -1) translate(0, -900)"><path d="M 937 21 Q 971 31 959 66 Q 940 120 940 203 Q 940 225 934 231 Q 924 238 919 221 Q 904 178 892 144 Q 877 101 855 86 Q 834 74 789 74 Q 731 77 692 98 Q 605 152 605 278 Q 605 455 678 513 Q 708 538 673 551 Q 655 560 616 572 Q 589 582 564 563 Q 491 512 380 493 C 351 487 346 467 376 469 Q 404 465 549 504 Q 562 508 569 503 Q 575 496 562 363 Q 535 134 665 47 Q 737 2 815 -1 Q 876 -1 937 21 Z" fill="black" /></g></svg>