<?xml version='1.0' encoding='utf-8'?>
<svg xmlns="http://www.w3.org/2000/svg" version="1.1" viewBox="0 0 1024 1024"><g transform="scale(1, -1) translate(0, -900)"><path d="M 380 493 Q 384 551 406 605 Q 419 632 369 670 C 346 690 318 692 326 663 Q 327 662 328 659 Q 344 602 337 541 Q 325 414 270 225 Q 257 174 205 131 Q 189 118 193 92 Q 197 61 209 47 Q 221 35 237 51 Q 265 79 476 176 Q 500 185 506 193 Q 513 203 503 205 Q 485 206 327 163 Q 308 159 311 174 Q 353 336 376 469 L 380 493 Z" fill="black" /></g></svg>