<?xml version='1.0' encoding='utf-8'?>
<svg xmlns="http://www.w3.org/2000/svg" version="1.1" viewBox="0 0 1024 1024"><g transform="scale(1, -1) translate(0, -900)"><path d="M 775 127 Q 747 117 688 87 Q 681 83 677 86 Q 670 90 671 111 Q 683 415 689 485 L 690 496 Q 690 499 691 501 Q 695 517 684 525 Q 674 535 634 546 Q 621 549 615 545 C 603 545 603 545 614 528 Q 647 495 647 321 Q 647 305 647 285 Q 641 108 585 41 Q 557 29 588 -22 Q 591 -26 596 -31 Q 606 -40 619 -27 Q 661 19 783 113 Q 783 114 784 114 C 808 133 803 138 775 127 Z" fill="black" /></g></svg>