<?xml version='1.0' encoding='utf-8'?>
<svg xmlns="http://www.w3.org/2000/svg" version="1.1" viewBox="0 0 1024 1024"><g transform="scale(1, -1) translate(0, -900)"><path d="M 179 681 Q 169 691 143 704 Q 121 716 113 708 Q 106 701 113 686 Q 150 617 121 244 Q 109 145 93 118 Q 83 102 94 82 Q 103 61 113 53 Q 123 46 140 59 Q 201 116 401 138 Q 423 139 424 152 Q 423 165 393 181 Q 375 193 279 163 Q 240 157 183 137 Q 167 134 166 154 Q 176 338 182 572 Q 183 621 190 651 Q 190 654 190 656 C 192 672 192 672 179 681 Z" fill="black" /></g></svg>