<?xml version='1.0' encoding='utf-8'?>
<svg xmlns="http://www.w3.org/2000/svg" version="1.1" viewBox="0 0 1024 1024"><g transform="scale(1, -1) translate(0, -900)"><path d="M 394 266 Q 437 256 466 269 Q 560 291 566 284 Q 572 280 567 259 Q 510 21 646 -19 Q 698 -35 772 -34 Q 842 -31 900 -3 Q 924 10 912 37 Q 884 106 881 183 Q 877 192 871 192 Q 867 192 861 178 Q 837 69 812 47 Q 752 17 653 40 Q 635 46 625 57 Q 606 76 600 118 Q 593 193 631 252 Q 638 264 649 271 Q 682 293 607 330 Q 582 342 566 333 Q 523 309 403 290 C 373 285 364 270 394 266 Z" fill="black" /></g></svg>