<?xml version='1.0' encoding='utf-8'?>
<svg xmlns="http://www.w3.org/2000/svg" version="1.1" viewBox="0 0 1024 1024"><g transform="scale(1, -1) translate(0, -900)"><path d="M 548 369 Q 552 424 557 473 L 558 495 Q 561 537 571 570 Q 578 588 538 620 C 516 640 486 651 495 623 Q 494 619 499 610 Q 541 507 480 192 Q 476 146 435 101 Q 423 88 429 66 Q 436 41 449 29 Q 461 20 473 36 Q 488 61 621 166 Q 640 178 644 186 Q 648 196 639 196 Q 624 195 529 147 Q 522 143 520 150 Q 536 253 546 343 L 548 369 Z" fill="black" /></g></svg>