<?xml version='1.0' encoding='utf-8'?>
<svg xmlns="http://www.w3.org/2000/svg" version="1.1" viewBox="0 0 1024 1024"><g transform="scale(1, -1) translate(0, -900)"><path d="M 589 464 Q 590 465 593 464 Q 614 464 688 484 Q 701 487 706 481 Q 715 469 700 345 Q 670 57 866 13 Q 870 13 877 12 Q 917 8 958 19 Q 991 28 980 61 Q 964 110 963 186 Q 963 207 957 211 Q 950 217 945 203 Q 912 95 893 83 Q 880 77 853 81 Q 784 93 763 148 Q 714 229 752 407 Q 768 464 801 492 Q 826 513 797 525 Q 781 532 747 543 Q 725 550 703 535 Q 663 507 591 489 C 562 481 559 461 589 464 Z" fill="black" /></g></svg>