<?xml version='1.0' encoding='utf-8'?>
<svg xmlns="http://www.w3.org/2000/svg" version="1.1" viewBox="0 0 1024 1024"><g transform="scale(1, -1) translate(0, -900)"><path d="M 601 475 Q 619 469 688 481 Q 704 480 709 471 Q 715 464 706 330 Q 681 29 880 18 Q 886 19 895 19 Q 932 23 968 41 Q 999 54 985 87 Q 961 136 951 214 Q 948 236 942 240 Q 932 244 930 229 Q 912 118 890 97 Q 859 78 811 98 Q 754 128 747 242 Q 740 423 808 485 Q 835 506 805 519 Q 735 552 700 528 Q 654 507 604 499 C 575 493 571 477 601 475 Z" fill="black" /></g></svg>