<?xml version='1.0' encoding='utf-8'?>
<svg xmlns="http://www.w3.org/2000/svg" version="1.1" viewBox="0 0 1024 1024"><g transform="scale(1, -1) translate(0, -900)"><path d="M 583 361 Q 593 422 601 475 L 604 499 Q 608 542 621 576 Q 627 589 619 600 Q 604 618 589 629 C 566 649 546 648 552 619 Q 582 511 510 216 Q 501 170 458 129 Q 445 116 450 94 Q 456 69 467 56 Q 477 46 491 61 Q 506 83 635 169 Q 654 179 659 186 Q 663 195 655 196 Q 648 196 558 167 Q 548 163 547 172 Q 566 260 579 337 L 583 361 Z" fill="black" /></g></svg>