<?xml version='1.0' encoding='utf-8'?>
<svg xmlns="http://www.w3.org/2000/svg" version="1.1" viewBox="0 0 1024 1024"><g transform="scale(1, -1) translate(0, -900)"><path d="M 584 399 Q 591 447 598 489 L 601 509 Q 613 588 622 610 Q 629 623 620 635 Q 604 654 588 666 C 565 686 541 685 548 656 Q 584 545 502 216 Q 493 168 448 125 Q 420 98 457 48 Q 469 39 483 54 Q 501 79 654 179 Q 673 189 679 198 Q 683 207 675 208 Q 669 208 552 166 Q 542 162 541 171 Q 565 280 581 376 L 584 399 Z" fill="black" /></g></svg>