<?xml version='1.0' encoding='utf-8'?>
<svg xmlns="http://www.w3.org/2000/svg" version="1.1" viewBox="0 0 1024 1024"><g transform="scale(1, -1) translate(0, -900)"><path d="M 600 460 Q 630 460 694 479 Q 710 480 716 472 Q 725 463 730 344 Q 739 83 921 62 Q 949 61 972 70 Q 1006 80 994 114 Q 976 157 972 225 Q 971 244 966 247 Q 957 253 952 238 Q 942 219 931 184 Q 921 147 902 135 Q 898 131 884 134 Q 848 143 818 176 Q 761 246 778 412 Q 787 467 812 496 Q 837 521 806 530 Q 790 536 754 544 Q 730 550 710 533 Q 682 509 601 484 C 572 475 570 457 600 460 Z" fill="black" /></g></svg>