<?xml version='1.0' encoding='utf-8'?>
<svg xmlns="http://www.w3.org/2000/svg" version="1.1" viewBox="0 0 1024 1024"><g transform="scale(1, -1) translate(0, -900)"><path d="M 630 445 Q 661 439 729 467 Q 739 468 743 464 Q 739 353 733 240 Q 733 60 856 6 Q 859 6 865 3 Q 898 -7 944 -4 Q 960 -4 963 5 Q 970 15 961 44 Q 951 96 956 186 Q 956 199 950 207 Q 943 214 938 196 Q 907 76 889 69 Q 882 66 875 67 Q 853 71 831 95 Q 774 152 779 272 Q 782 411 841 464 Q 854 473 843 483 Q 830 499 795 515 Q 764 528 749 519 Q 703 491 633 472 C 604 464 600 445 630 445 Z" fill="black" /></g></svg>