<?xml version='1.0' encoding='utf-8'?>
<svg xmlns="http://www.w3.org/2000/svg" version="1.1" viewBox="0 0 1024 1024"><g transform="scale(1, -1) translate(0, -900)"><path d="M 403 230 Q 443 221 471 234 Q 555 258 562 248 Q 562 167 561 83 Q 561 32 622 -11 Q 680 -51 805 -43 Q 881 -39 943 -4 Q 965 11 952 36 Q 921 96 910 164 Q 906 173 900 172 Q 896 172 891 158 Q 881 73 870 53 Q 857 34 822 24 Q 779 14 699 21 Q 656 25 635 47 Q 616 62 608 100 Q 596 166 625 218 Q 631 231 641 240 Q 674 262 598 294 Q 574 304 559 294 Q 522 273 413 253 C 384 247 373 234 403 230 Z" fill="black" /></g></svg>