<?xml version='1.0' encoding='utf-8'?>
<svg xmlns="http://www.w3.org/2000/svg" version="1.1" viewBox="0 0 1024 1024"><g transform="scale(1, -1) translate(0, -900)"><path d="M 632 508 Q 632 507 633 506 Q 637 493 647 492 Q 659 493 666 505 Q 673 509 689 535 Q 705 580 738 604 Q 754 617 741 631 Q 726 647 684 672 Q 671 681 617 668 Q 605 668 328 626 C 298 622 310 583 338 593 Q 344 599 418 611 L 441 614 Q 481 621 537 628 L 576 633 Q 639 645 657 633 Q 663 629 658 612 Q 642 548 636 535 C 628 514 628 514 632 508 Z" fill="black" /></g></svg>