<?xml version='1.0' encoding='utf-8'?>
<svg xmlns="http://www.w3.org/2000/svg" version="1.1" viewBox="0 0 1024 1024"><g transform="scale(1, -1) translate(0, -900)"><path d="M 414 403 Q 430 378 445 370 Q 455 363 469 382 Q 482 403 512 519 Q 521 547 543 569 Q 555 579 545 593 Q 532 609 493 633 Q 478 642 409 626 Q 403 626 366 618 L 343 614 Q 297 608 243 597 Q 191 587 149 579 C 120 573 136 544 165 552 Q 211 565 278 578 L 309 583 Q 436 613 457 593 Q 467 580 465 566 Q 441 452 428 430 C 416 402 412 405 414 403 Z" fill="black" /></g></svg>