<?xml version='1.0' encoding='utf-8'?>
<svg xmlns="http://www.w3.org/2000/svg" version="1.1" viewBox="0 0 1024 1024"><g transform="scale(1, -1) translate(0, -900)"><path d="M 166 670 Q 156 679 132 691 Q 113 701 105 694 Q 99 687 106 673 Q 130 627 127 374 Q 124 152 97 105 Q 88 90 98 72 Q 105 53 115 46 Q 125 39 140 51 Q 213 117 454 142 Q 475 143 474 154 Q 473 166 446 180 Q 433 190 313 156 Q 259 150 183 123 Q 162 117 162 140 Q 168 327 170 564 Q 170 610 175 640 C 178 662 178 662 166 670 Z" fill="black" /></g></svg>