<?xml version='1.0' encoding='utf-8'?>
<svg xmlns="http://www.w3.org/2000/svg" version="1.1" viewBox="0 0 1024 1024"><g transform="scale(1, -1) translate(0, -900)"><path d="M 373 196 Q 403 189 426 197 Q 549 228 562 216 Q 568 210 560 191 Q 545 26 611 -24 Q 611 -42 744 -75 Q 837 -90 907 -73 Q 938 -66 947 -52 Q 965 -36 951 -10 Q 926 56 916 108 Q 897 165 891 116 Q 885 67 876 17 Q 866 -2 845 -12 Q 824 -22 775 -22 Q 717 -18 679 -2 Q 616 23 608 79 Q 601 157 647 211 Q 663 226 653 240 Q 640 253 615 262 Q 573 281 551 264 Q 479 234 382 218 C 352 213 343 199 373 196 Z" fill="black" /></g></svg>