<?xml version='1.0' encoding='utf-8'?>
<svg xmlns="http://www.w3.org/2000/svg" version="1.1" viewBox="0 0 1024 1024"><g transform="scale(1, -1) translate(0, -900)"><path d="M 249 550 Q 256 581 264 610 L 269 633 Q 270 645 273 655 Q 277 677 281 697 Q 281 709 287 722 C 293 741 293 741 282 750 Q 269 762 250 772 Q 234 782 223 778 Q 213 774 217 761 Q 227 742 225 689 Q 225 596 186 494 Q 161 431 107 350 Q 103 346 100 340 Q 99 331 107 332 Q 141 341 201 434 Q 204 441 208 447 Q 226 483 241 523 L 249 550 Z" fill="black" /></g></svg>