<?xml version='1.0' encoding='utf-8'?>
<svg xmlns="http://www.w3.org/2000/svg" version="1.1" viewBox="0 0 1024 1024"><g transform="scale(1, -1) translate(0, -900)"><path d="M 382 218 Q 381 219 382 219 Q 389 229 383 240 Q 368 262 353 273 C 331 293 316 297 322 268 Q 322 267 323 265 Q 338 196 298 74 Q 286 34 244 0 Q 231 -10 234 -30 Q 237 -55 246 -67 Q 255 -76 268 -64 Q 295 -36 496 57 Q 514 64 519 71 Q 523 78 516 80 Q 497 83 336 26 Q 327 23 328 32 Q 343 77 373 196 L 382 218 Z" fill="black" /></g></svg>