<?xml version='1.0' encoding='utf-8'?>
<svg xmlns="http://www.w3.org/2000/svg" version="1.1" viewBox="0 0 1024 1024"><g transform="scale(1, -1) translate(0, -900)"><path d="M 383 290 Q 371 311 365 317 L 354 329 Q 326 359 275 381 C 248 393 229 380 255 365 Q 273 356 287 344 L 329 303 Q 335 296 341 285 L 341 284 L 359 218 Q 359 149 351 112 Q 344 79 334 74 Q 328 71 280 70 Q 241 74 240 68 Q 239 61 252 50 Q 303 11 325 -16 Q 338 -32 352 -28 Q 394 -9 408 97 Q 417 181 400 244 L 383 290 Z" fill="black" /></g></svg>