<?xml version='1.0' encoding='utf-8'?>
<svg xmlns="http://www.w3.org/2000/svg" version="1.1" viewBox="0 0 1024 1024"><g transform="scale(1, -1) translate(0, -900)"><path d="M 702 117 Q 733 71 738 47 Q 744 19 755 15 Q 770 12 787 47 Q 809 92 813 167 Q 800 333 799 500 L 799 544 Q 799 656 815 717 Q 831 748 776 769 Q 742 788 723 780 Q 705 773 722 751 Q 744 724 745 690 Q 746 674 747 533 L 747 496 Q 746 375 746 172 Q 746 151 735 144 Q 734 141 726 142 Q 722 142 717 141 C 692 133 692 133 702 117 Z" fill="black" /></g></svg>