<?xml version='1.0' encoding='utf-8'?>
<svg xmlns="http://www.w3.org/2000/svg" version="1.1" viewBox="0 0 1024 1024"><g transform="scale(1, -1) translate(0, -900)"><path d="M 742 482 Q 760 454 777 445 Q 787 438 802 458 Q 818 488 851 647 Q 860 677 882 702 Q 895 714 884 728 Q 868 744 826 769 Q 808 778 727 756 Q 721 756 603 729 Q 552 717 511 708 C 482 702 511 670 540 679 Q 577 692 634 703 L 670 711 Q 773 738 791 722 Q 806 704 802 687 Q 772 519 754 506 C 741 484 741 484 742 482 Z" fill="black" /></g></svg>