<?xml version='1.0' encoding='utf-8'?>
<svg xmlns="http://www.w3.org/2000/svg" version="1.1" viewBox="0 0 1024 1024"><g transform="scale(1, -1) translate(0, -900)"><path d="M 418 410 Q 419 406 421 399 Q 427 383 440 385 Q 453 386 461 402 Q 474 420 497 508 Q 513 560 548 591 Q 567 607 551 623 Q 532 639 481 665 Q 469 672 396 655 Q 384 655 365 648 L 315 637 Q 291 633 271 626 Q 228 614 199 608 C 170 602 177 572 207 575 Q 217 574 225 577 Q 256 590 316 602 L 360 611 Q 429 632 450 622 Q 460 615 455 583 Q 433 459 422 434 L 420 428 L 418 410 Z" fill="black" /></g></svg>