<?xml version='1.0' encoding='utf-8'?>
<svg xmlns="http://www.w3.org/2000/svg" version="1.1" viewBox="0 0 1024 1024"><g transform="scale(1, -1) translate(0, -900)"><path d="M 348 576 Q 357 576 369 578 Q 417 591 472 603 L 527 615 Q 597 631 680 644 Q 702 648 712 636 Q 727 629 733 562 Q 752 342 743 89 Q 743 52 730 42 Q 715 32 644 50 Q 625 54 626 43 Q 627 34 642 27 Q 706 -25 738 -64 Q 763 -86 777 -84 Q 790 -80 804 -48 Q 822 4 820 79 Q 798 416 798 542 Q 798 585 811 611 Q 824 635 812 647 Q 800 663 748 690 Q 724 702 666 682 Q 500 640 348 619 C 318 615 318 571 348 576 Z" fill="black" /></g></svg>