<?xml version='1.0' encoding='utf-8'?>
<svg xmlns="http://www.w3.org/2000/svg" version="1.1" viewBox="0 0 1024 1024"><g transform="scale(1, -1) translate(0, -900)"><path d="M 506 355 Q 653 382 671 364 Q 678 360 682 325 Q 692 207 687 72 Q 687 53 679 46 Q 666 42 616 66 Q 603 72 602 63 Q 601 56 612 48 Q 655 -1 677 -35 Q 693 -54 706 -52 Q 716 -51 728 -26 Q 744 14 748 73 Q 738 230 737 288 Q 738 324 748 345 Q 760 364 750 375 Q 741 388 699 410 Q 681 419 620 404 Q 461 376 346 365 C 316 362 333 324 362 330 Q 408 340 461 349 L 506 355 Z" fill="black" /></g></svg>