<?xml version='1.0' encoding='utf-8'?>
<svg xmlns="http://www.w3.org/2000/svg" version="1.1" viewBox="0 0 1024 1024"><g transform="scale(1, -1) translate(0, -900)"><path d="M 473 210 Q 470 51 488 24 Q 503 8 512 29 Q 525 65 529 218 L 529 262 Q 530 296 530 334 L 531 379 Q 532 430 533 472 L 534 505 Q 535 563 538 606 L 540 647 Q 543 717 560 744 Q 567 760 547 776 Q 523 795 480 807 Q 461 811 447 798 Q 437 791 450 778 Q 475 756 478 724 Q 478 688 478 638 L 478 599 Q 478 553 478 495 L 478 462 Q 478 414 477 365 L 476 326 Q 475 283 474 248 L 473 210 Z" fill="black" /></g></svg>