<?xml version='1.0' encoding='utf-8'?>
<svg xmlns="http://www.w3.org/2000/svg" version="1.1" viewBox="0 0 1024 1024"><g transform="scale(1, -1) translate(0, -900)"><path d="M 495 64 Q 499 40 506 31 Q 512 24 519 26 Q 532 35 539 91 Q 542 124 543 234 L 543 278 Q 543 309 545 349 L 547 395 Q 550 431 555 449 Q 558 465 544 475 Q 525 488 513 493 C 486 507 455 513 467 485 Q 467 479 478 464 Q 484 454 489 380 L 489 339 Q 489 305 489 266 L 489 224 Q 490 206 490 186 Q 491 95 495 64 Z" fill="black" /></g></svg>