<?xml version='1.0' encoding='utf-8'?>
<svg xmlns="http://www.w3.org/2000/svg" version="1.1" viewBox="0 0 1024 1024"><g transform="scale(1, -1) translate(0, -900)"><path d="M 506 728 Q 582 741 671 751 Q 696 755 706 741 Q 722 732 727 662 Q 746 428 734 161 Q 733 121 719 111 Q 704 101 631 118 Q 613 122 614 111 Q 615 102 629 96 Q 695 47 729 9 Q 751 -13 766 -10 Q 779 -6 791 25 Q 809 74 807 146 Q 786 513 788 650 Q 788 692 801 717 Q 814 741 803 753 Q 793 769 741 796 Q 717 808 646 787 Q 492 756 312 737 C 282 734 294 687 323 695 Q 327 701 454 720 L 506 728 Z" fill="black" /></g></svg>