<?xml version='1.0' encoding='utf-8'?>
<svg xmlns="http://www.w3.org/2000/svg" version="1.1" viewBox="0 0 1024 1024"><g transform="scale(1, -1) translate(0, -900)"><path d="M 463 701 Q 626 737 647 718 Q 657 712 662 661 Q 675 489 665 294 Q 665 266 654 257 Q 641 247 573 262 Q 557 265 558 255 Q 559 248 572 242 Q 633 197 664 164 Q 685 145 698 147 Q 710 150 721 178 Q 737 224 735 289 Q 720 542 720 635 Q 720 675 732 699 Q 744 721 733 733 Q 723 748 674 772 Q 656 781 578 760 Q 404 723 287 709 C 257 705 274 661 303 667 Q 310 668 317 669 Q 357 679 403 689 L 463 701 Z" fill="black" /></g></svg>