<?xml version='1.0' encoding='utf-8'?>
<svg xmlns="http://www.w3.org/2000/svg" version="1.1" viewBox="0 0 1024 1024"><g transform="scale(1, -1) translate(0, -900)"><path d="M 485 0 Q 489 -22 495 -30 Q 499 -36 506 -33 Q 513 -30 517 -18 Q 527 18 528 138 L 529 177 Q 529 205 531 240 L 533 281 Q 533 282 539 319 Q 542 334 530 342 Q 517 351 506 355 C 479 368 449 376 461 349 Q 474 324 480 268 Q 479 267 480 265 L 480 231 Q 480 201 480 165 L 480 132 Q 481 119 481 102 Q 482 26 485 0 Z" fill="black" /></g></svg>