<?xml version='1.0' encoding='utf-8'?>
<svg xmlns="http://www.w3.org/2000/svg" version="1.1" viewBox="0 0 1024 1024"><g transform="scale(1, -1) translate(0, -900)"><path d="M 479 527 Q 379 515 236 507 C 206 505 240 455 269 462 Q 275 469 480 498 L 528 505 Q 598 517 679 528 Q 724 535 741 515 Q 751 496 752 474 Q 748 321 716 173 Q 713 146 702 144 Q 699 143 693 144 C 671 123 656 136 660 126 Q 670 98 698 39 Q 708 18 719 20 Q 737 23 748 52 Q 791 137 798 252 Q 808 325 816 408 Q 822 465 848 499 Q 867 523 853 538 Q 828 563 773 586 Q 751 599 713 584 Q 626 556 529 536 L 479 527 Z" fill="black" /></g></svg>