<?xml version='1.0' encoding='utf-8'?>
<svg xmlns="http://www.w3.org/2000/svg" version="1.1" viewBox="0 0 1024 1024"><g transform="scale(1, -1) translate(0, -900)"><path d="M 655 507 Q 655 501 657 494 Q 661 476 676 476 Q 692 477 701 494 Q 719 515 752 621 Q 774 679 817 711 Q 839 727 821 746 Q 802 767 747 799 Q 732 809 658 796 Q 541 787 436 767 Q 357 754 305 750 C 275 747 312 700 340 710 Q 362 722 475 736 L 513 741 Q 679 765 709 750 Q 721 741 712 703 Q 675 561 661 533 Q 660 533 660 532 C 653 515 653 515 655 507 Z" fill="black" /></g></svg>