<?xml version='1.0' encoding='utf-8'?>
<svg xmlns="http://www.w3.org/2000/svg" version="1.1" viewBox="0 0 1024 1024"><g transform="scale(1, -1) translate(0, -900)"><path d="M 646 320 Q 668 286 688 276 Q 701 266 719 292 Q 738 329 775 528 Q 785 565 813 595 Q 829 611 815 627 Q 796 646 744 678 Q 722 688 641 669 Q 575 662 530 650 L 474 642 Q 444 638 413 632 Q 329 617 264 607 C 234 602 260 558 288 568 Q 297 578 474 606 L 529 614 Q 578 623 635 629 Q 684 636 698 619 Q 717 597 714 575 Q 683 373 662 351 C 649 324 646 321 646 320 Z" fill="black" /></g></svg>