<?xml version='1.0' encoding='utf-8'?>
<svg xmlns="http://www.w3.org/2000/svg" version="1.1" viewBox="0 0 1024 1024"><g transform="scale(1, -1) translate(0, -900)"><path d="M 464 -7 Q 470 -35 477 -45 Q 483 -52 491 -50 Q 506 -41 515 24 Q 525 115 524 206 Q 523 257 524 398 L 525 440 Q 526 495 528 563 L 530 603 Q 531 631 543 681 Q 547 700 531 711 Q 518 720 509 725 C 484 741 431 740 446 714 Q 452 702 459 691 Q 472 664 473 590 L 472 552 Q 471 497 470 430 L 469 393 Q 463 14 464 -7 Z" fill="black" /></g></svg>