<?xml version='1.0' encoding='utf-8'?>
<svg xmlns="http://www.w3.org/2000/svg" version="1.1" viewBox="0 0 1024 1024"><g transform="scale(1, -1) translate(0, -900)"><path d="M 669 194 Q 679 166 703 111 Q 712 92 723 92 Q 741 93 753 123 Q 805 217 816 348 Q 829 430 840 523 Q 847 581 873 615 Q 894 639 879 655 Q 854 680 798 705 Q 776 717 738 703 Q 626 666 496 644 Q 385 629 225 620 C 195 618 232 568 261 574 Q 348 592 461 609 L 513 617 Q 600 632 701 646 Q 750 655 768 632 Q 778 610 779 586 Q 769 414 727 248 Q 723 218 710 216 C 695 190 658 222 669 194 Z" fill="black" /></g></svg>