<?xml version='1.0' encoding='utf-8'?>
<svg xmlns="http://www.w3.org/2000/svg" version="1.1" viewBox="0 0 1024 1024"><g transform="scale(1, -1) translate(0, -900)"><path d="M 474 704 Q 446 700 424 695 Q 370 685 334 679 C 304 674 313 635 343 640 Q 347 640 354 641 Q 397 654 476 667 L 527 674 Q 638 692 654 681 Q 664 675 657 641 Q 632 517 619 492 Q 618 492 618 491 C 608 468 608 468 614 458 Q 615 457 616 454 Q 622 436 636 437 Q 652 438 661 455 Q 674 471 701 553 Q 720 611 762 643 Q 784 661 766 679 Q 747 698 691 729 Q 676 739 610 725 Q 574 722 529 713 L 474 704 Z" fill="black" /></g></svg>