<?xml version='1.0' encoding='utf-8'?>
<svg xmlns="http://www.w3.org/2000/svg" version="1.1" viewBox="0 0 1024 1024"><g transform="scale(1, -1) translate(0, -900)"><path d="M 637 50 Q 647 23 672 -31 Q 681 -49 691 -48 Q 707 -45 717 -20 Q 748 41 755 121 Q 762 172 769 231 Q 775 280 799 311 Q 817 332 805 346 Q 783 368 734 390 Q 715 402 681 390 Q 528 341 271 331 C 241 330 279 287 309 291 Q 315 291 321 292 Q 382 302 462 313 L 510 320 Q 574 330 652 340 Q 688 346 702 328 Q 726 283 686 85 Q 685 66 677 64 C 666 36 626 78 637 50 Z" fill="black" /></g></svg>