<?xml version='1.0' encoding='utf-8'?>
<svg xmlns="http://www.w3.org/2000/svg" version="1.1" viewBox="0 0 1024 1024"><g transform="scale(1, -1) translate(0, -900)"><path d="M 679 757 Q 663 688 598 606 Q 583 591 581 579 Q 580 566 608 544 Q 657 508 729 436 Q 745 414 758 417 Q 774 418 781 440 Q 788 468 780 485 Q 771 509 645 558 Q 617 573 631 597 Q 638 613 686 665 Q 732 716 749 728 Q 762 732 765 741 Q 771 760 746 788 Q 725 813 704 820 Q 683 824 676 817 Q 672 813 678 801 Q 688 785 679 757 Z" fill="black" /></g></svg>