<?xml version='1.0' encoding='utf-8'?>
<svg xmlns="http://www.w3.org/2000/svg" version="1.1" viewBox="0 0 1024 1024"><g transform="scale(1, -1) translate(0, -900)"><path d="M 604 479 Q 626 445 645 437 Q 655 428 672 451 Q 690 481 723 641 Q 733 675 758 702 Q 773 715 760 731 Q 744 750 697 778 Q 679 787 587 768 Q 574 768 435 744 Q 374 734 323 726 C 293 721 308 682 337 689 Q 377 699 466 713 L 508 720 Q 553 727 607 733 Q 643 737 654 725 Q 670 707 667 689 Q 639 524 622 506 C 609 479 601 483 604 479 Z" fill="black" /></g></svg>