<?xml version='1.0' encoding='utf-8'?>
<svg xmlns="http://www.w3.org/2000/svg" version="1.1" viewBox="0 0 1024 1024"><g transform="scale(1, -1) translate(0, -900)"><path d="M 486 745 Q 479 711 453 655 Q 423 591 403 567 Q 393 557 391 546 Q 390 534 417 512 Q 456 478 509 412 Q 522 388 536 391 Q 552 392 561 412 Q 571 439 563 457 Q 554 484 452 530 Q 419 551 483 632 Q 487 639 495 647 Q 540 705 558 721 Q 571 727 572 735 Q 576 754 550 780 Q 528 804 506 809 Q 485 810 478 804 Q 475 800 482 788 Q 492 773 486 745 Z" fill="black" /></g></svg>