<?xml version='1.0' encoding='utf-8'?>
<svg xmlns="http://www.w3.org/2000/svg" version="1.1" viewBox="0 0 1024 1024"><g transform="scale(1, -1) translate(0, -900)"><path d="M 332 341 Q 342 319 361 283 Q 370 267 379 268 Q 392 271 400 295 Q 434 368 435 467 Q 441 528 444 599 Q 447 642 466 670 Q 479 689 469 700 Q 448 719 406 735 Q 388 745 312 712 Q 230 687 140 670 C 111 664 120 630 149 636 Q 153 636 228 653 L 265 663 Q 302 675 352 686 Q 373 690 381 683 Q 412 634 371 392 Q 370 370 360 367 Q 356 364 332 379 Q 325 383 323 380 C 311 385 319 368 332 341 Z" fill="black" /></g></svg>