<?xml version='1.0' encoding='utf-8'?>
<svg xmlns="http://www.w3.org/2000/svg" version="1.1" viewBox="0 0 1024 1024"><g transform="scale(1, -1) translate(0, -900)"><path d="M 716 212 Q 759 285 788 408 Q 792 445 812 465 Q 828 481 807 496 Q 785 512 748 522 Q 724 528 703 514 Q 651 484 578 469 Q 557 466 547 461 C 518 453 516 452 545 443 Q 546 443 550 441 Q 578 429 617 444 Q 657 456 697 467 Q 722 476 723 448 Q 723 352 677 256 L 654 214 Q 597 135 463 83 Q 448 77 459 70 Q 468 66 496 73 Q 581 86 632 116 Q 660 135 687 167 L 716 212 Z" fill="black" /></g></svg>