<?xml version='1.0' encoding='utf-8'?>
<svg xmlns="http://www.w3.org/2000/svg" version="1.1" viewBox="0 0 1024 1024"><g transform="scale(1, -1) translate(0, -900)"><path d="M 233 116 Q 221 74 248 17 Q 255 1 263 -3 Q 269 -10 276 -2 Q 300 20 301 100 Q 301 161 301 349 L 301 384 Q 301 424 302 468 L 303 506 Q 303 542 303 579 L 304 608 Q 305 693 322 750 Q 331 766 328 778 Q 321 788 267 821 Q 243 837 223 822 Q 219 818 225 802 Q 258 754 258 706 Q 259 657 260 599 L 261 571 Q 261 564 262 555 Q 261 525 260 494 L 260 459 Q 259 417 257 372 L 257 341 Q 257 203 233 116 Z" fill="black" /></g></svg>