<?xml version='1.0' encoding='utf-8'?>
<svg xmlns="http://www.w3.org/2000/svg" version="1.1" viewBox="0 0 1024 1024"><g transform="scale(1, -1) translate(0, -900)"><path d="M 327 242 Q 345 220 361 213 Q 373 206 387 229 Q 406 269 428 484 Q 435 515 458 543 Q 471 556 458 570 Q 442 586 396 611 Q 380 618 307 599 Q 298 599 117 558 C 88 551 105 517 134 525 Q 165 535 213 544 L 251 551 Q 344 573 358 560 Q 379 538 376 514 Q 355 318 341 288 Q 337 275 323 271 Q 320 271 322 270 C 309 261 309 261 327 242 Z" fill="black" /></g></svg>