<?xml version='1.0' encoding='utf-8'?>
<svg xmlns="http://www.w3.org/2000/svg" version="1.1" viewBox="0 0 1024 1024"><g transform="scale(1, -1) translate(0, -900)"><path d="M 780 164 Q 792 133 817 82 Q 826 63 838 65 Q 855 67 864 96 Q 900 163 915 371 L 917 383 Q 923 419 946 455 Q 956 472 955 479 Q 951 489 925 507 Q 878 539 847 535 L 826 529 L 825 529 Q 698 481 500 460 C 470 457 502 415 531 423 Q 538 427 634 445 L 684 456 Q 755 472 803 480 Q 821 482 831 479 Q 855 474 855 441 Q 853 319 831 205 Q 830 197 828 192 Q 824 180 811 182 C 787 164 778 168 780 164 Z" fill="black" /></g></svg>