<?xml version='1.0' encoding='utf-8'?>
<svg xmlns="http://www.w3.org/2000/svg" version="1.1" viewBox="0 0 1024 1024"><g transform="scale(1, -1) translate(0, -900)"><path d="M 304 301 Q 322 279 337 273 Q 347 266 362 288 Q 378 325 402 516 Q 409 547 430 572 Q 442 585 430 598 Q 414 614 371 636 Q 352 643 336 637 Q 309 630 275 621 Q 229 611 170 596 Q 131 586 98 578 C 69 571 81 537 110 546 Q 110 547 112 547 Q 145 557 193 569 L 235 578 Q 322 602 336 589 Q 355 568 352 548 Q 328 347 309 331 C 297 308 297 308 304 301 Z" fill="black" /></g></svg>