<?xml version='1.0' encoding='utf-8'?>
<svg xmlns="http://www.w3.org/2000/svg" version="1.1" viewBox="0 0 1024 1024"><g transform="scale(1, -1) translate(0, -900)"><path d="M 639 691 Q 709 712 768 720 Q 787 723 792 717 Q 799 702 791 666 Q 772 566 744 523 Q 725 495 699 501 Q 680 508 662 516 Q 640 526 654 501 Q 687 458 701 427 Q 717 405 736 421 Q 767 439 790 473 Q 817 513 845 643 Q 855 689 873 710 Q 886 723 881 734 Q 872 746 821 770 Q 802 780 781 767 Q 759 754 672 733 Q 584 711 510 706 Q 492 705 489 696 Q 488 689 512 676 Q 537 660 557 668 Q 575 674 596 679 L 639 691 Z" fill="black" /></g></svg>