<?xml version='1.0' encoding='utf-8'?>
<svg xmlns="http://www.w3.org/2000/svg" version="1.1" viewBox="0 0 1024 1024"><g transform="scale(1, -1) translate(0, -900)"><path d="M 644 444 Q 651 463 638 475 Q 616 494 590 499 Q 575 502 570 496 Q 564 490 573 477 Q 583 456 582 424 Q 583 403 584 385 Q 584 360 598 348 Q 622 321 669 316 Q 718 310 787 325 Q 824 331 834 342 Q 844 352 836 362 Q 824 374 791 387 Q 772 394 757 380 Q 735 362 700 358 Q 666 352 641 363 Q 632 370 631 389 Q 631 423 644 444 Z" fill="black" /></g></svg>