<?xml version='1.0' encoding='utf-8'?>
<svg xmlns="http://www.w3.org/2000/svg" version="1.1" viewBox="0 0 1024 1024"><g transform="scale(1, -1) translate(0, -900)"><path d="M 631 524 Q 646 499 660 489 Q 670 479 689 500 Q 708 527 759 679 Q 772 713 799 738 Q 814 751 802 768 Q 786 787 741 819 Q 717 831 653 814 Q 560 801 461 782 Q 391 769 338 759 C 309 753 324 715 354 720 Q 361 720 370 722 Q 418 735 483 748 L 523 755 Q 679 785 701 768 Q 716 755 709 732 Q 661 567 640 557 C 623 536 623 536 631 524 Z" fill="black" /></g></svg>