<?xml version='1.0' encoding='utf-8'?>
<svg xmlns="http://www.w3.org/2000/svg" version="1.1" viewBox="0 0 1024 1024"><g transform="scale(1, -1) translate(0, -900)"><path d="M 617 555 Q 632 527 651 519 Q 661 509 679 531 Q 697 561 735 698 Q 741 713 748 726 Q 755 738 772 757 Q 784 768 780 778 Q 776 793 714 835 Q 692 845 676 841 Q 645 831 578 821 Q 410 793 340 778 C 311 772 334 737 363 744 Q 408 756 480 770 L 521 776 Q 620 796 658 790 Q 661 790 664 789 Q 687 782 682 759 Q 682 757 682 753 Q 647 599 626 586 C 611 565 611 565 617 555 Z" fill="black" /></g></svg>