<?xml version='1.0' encoding='utf-8'?>
<svg xmlns="http://www.w3.org/2000/svg" version="1.1" viewBox="0 0 1024 1024"><g transform="scale(1, -1) translate(0, -900)"><path d="M 294 296 Q 310 277 326 270 Q 336 263 348 284 Q 364 317 382 490 Q 388 518 408 544 Q 420 557 408 569 Q 392 584 351 605 Q 336 611 263 592 Q 242 592 94 553 C 65 545 75 508 103 520 Q 109 527 186 542 L 223 549 Q 250 556 284 561 Q 309 565 317 557 Q 335 539 333 520 Q 318 352 302 329 C 291 301 290 300 294 296 Z" fill="black" /></g></svg>