<?xml version='1.0' encoding='utf-8'?>
<svg xmlns="http://www.w3.org/2000/svg" version="1.1" viewBox="0 0 1024 1024"><g transform="scale(1, -1) translate(0, -900)"><path d="M 526 386 Q 527 416 528 443 L 530 481 Q 530 508 532 533 L 534 564 Q 534 594 536 622 L 536 649 Q 537 686 539 723 L 539 725 L 543 756 Q 544 777 548 791 Q 555 813 558 831 Q 562 843 540 859 Q 503 878 476 883 Q 458 886 450 877 Q 443 868 451 852 Q 479 812 480 784 Q 481 765 482 743 L 483 713 Q 484 679 485 641 L 486 615 Q 486 585 486 553 L 486 526 Q 485 499 484 471 L 483 436 Q 482 409 482 379 C 482 349 525 356 526 386 Z" fill="black" /></g></svg>