<?xml version='1.0' encoding='utf-8'?>
<svg xmlns="http://www.w3.org/2000/svg" version="1.1" viewBox="0 0 1024 1024"><g transform="scale(1, -1) translate(0, -900)"><path d="M 661 584 Q 677 618 711 721 Q 721 751 746 773 Q 759 785 749 799 Q 736 815 696 844 Q 680 853 620 841 Q 467 817 314 791 C 284 786 322 755 351 763 Q 390 775 446 784 L 504 794 Q 550 801 608 809 Q 642 813 658 801 Q 671 791 665 771 Q 629 636 610 624 C 594 603 594 603 601 593 Q 614 571 628 562 Q 637 555 651 569 L 661 584 Z" fill="black" /></g></svg>