<?xml version='1.0' encoding='utf-8'?>
<svg xmlns="http://www.w3.org/2000/svg" version="1.1" viewBox="0 0 1024 1024"><g transform="scale(1, -1) translate(0, -900)"><path d="M 699 451 Q 768 454 847 454 Q 881 453 913 454 Q 934 454 939 463 Q 945 475 928 489 Q 868 534 806 515 Q 764 509 715 498 L 654 489 Q 594 482 524 469 L 478 463 Q 417 457 353 448 L 300 442 Q 203 432 101 419 Q 79 418 95 399 Q 110 384 128 379 Q 150 373 167 378 Q 236 397 311 410 L 357 418 Q 427 431 477 435 L 525 440 Q 580 446 648 448 L 699 451 Z" fill="black" /></g></svg>