<?xml version='1.0' encoding='utf-8'?>
<svg xmlns="http://www.w3.org/2000/svg" version="1.1" viewBox="0 0 1024 1024"><g transform="scale(1, -1) translate(0, -900)"><path d="M 437 240 Q 552 357 614 428 L 635 456 Q 678 514 725 581 Q 746 611 781 641 Q 796 653 790 662 Q 789 672 723 695 Q 707 704 659 678 Q 595 657 555 647 C 526 639 507 621 537 618 Q 564 608 644 633 Q 663 639 670 631 Q 676 616 595 490 L 577 464 Q 463 308 250 135 Q 235 122 250 121 Q 298 127 419 224 L 437 240 Z" fill="black" /></g></svg>