<?xml version='1.0' encoding='utf-8'?>
<svg xmlns="http://www.w3.org/2000/svg" version="1.1" viewBox="0 0 1024 1024"><g transform="scale(1, -1) translate(0, -900)"><path d="M 672 582 Q 681 613 689 634 L 710 679 Q 723 701 739 713 Q 755 731 742 749 Q 726 762 674 787 Q 658 794 635 787 Q 587 768 543 756 L 482 743 Q 415 730 344 723 Q 328 722 330 713 Q 333 706 350 699 Q 374 689 407 699 Q 444 706 483 713 L 539 725 Q 635 746 646 735 Q 658 723 645 667 L 635 630 Q 628 608 621 585 C 612 556 663 553 672 582 Z" fill="black" /></g></svg>