<?xml version='1.0' encoding='utf-8'?>
<svg xmlns="http://www.w3.org/2000/svg" version="1.1" viewBox="0 0 1024 1024"><g transform="scale(1, -1) translate(0, -900)"><path d="M 714 -57 Q 727 -73 742 -60 Q 778 -32 779 39 Q 770 133 770 289 Q 770 292 771 293 L 777 339 Q 778 346 782 354 Q 789 370 774 384 Q 749 403 721 413 Q 703 419 696 412 Q 690 405 700 391 Q 718 361 720 326 L 722 285 Q 731 62 712 47 Q 705 41 694 45 Q 661 55 630 66 Q 618 70 619 62 Q 619 56 628 48 Q 692 -16 714 -57 Z" fill="black" /></g></svg>