<?xml version='1.0' encoding='utf-8'?>
<svg xmlns="http://www.w3.org/2000/svg" version="1.1" viewBox="0 0 1024 1024"><g transform="scale(1, -1) translate(0, -900)"><path d="M 619 31 Q 629 6 648 -39 Q 657 -57 667 -56 Q 683 -55 693 -28 Q 718 18 739 167 Q 746 216 769 247 Q 787 266 775 281 Q 753 303 705 325 Q 686 335 652 324 Q 514 279 311 263 C 281 260 303 219 333 223 Q 339 223 346 224 Q 397 234 462 246 L 503 253 Q 560 263 631 274 Q 662 278 674 265 Q 692 235 662 72 Q 661 59 654 56 Q 650 53 624 71 Q 615 77 611 73 C 600 77 608 59 619 31 Z" fill="black" /></g></svg>