<?xml version='1.0' encoding='utf-8'?>
<svg xmlns="http://www.w3.org/2000/svg" version="1.1" viewBox="0 0 1024 1024"><g transform="scale(1, -1) translate(0, -900)"><path d="M 615 553 Q 631 525 648 517 Q 658 507 677 530 Q 693 555 733 696 Q 743 729 770 755 Q 785 768 773 783 Q 757 802 712 832 Q 690 842 674 838 Q 640 828 588 820 Q 524 810 443 795 Q 386 785 339 776 C 310 770 332 734 361 741 Q 410 754 478 767 L 520 774 Q 646 798 670 783 Q 685 771 679 750 Q 645 597 624 584 C 609 562 609 562 615 553 Z" fill="black" /></g></svg>