<?xml version='1.0' encoding='utf-8'?>
<svg xmlns="http://www.w3.org/2000/svg" version="1.1" viewBox="0 0 1024 1024"><g transform="scale(1, -1) translate(0, -900)"><path d="M 619 11 Q 637 -14 653 -23 Q 663 -30 679 -9 Q 695 16 725 154 Q 735 185 759 212 Q 772 225 761 239 Q 745 257 701 284 Q 680 294 665 289 Q 629 280 578 274 Q 514 265 433 253 Q 373 243 325 237 C 295 233 318 197 347 204 Q 395 216 465 225 L 507 231 Q 639 252 660 234 Q 675 224 671 203 Q 646 59 631 43 C 618 16 617 14 619 11 Z" fill="black" /></g></svg>