<?xml version='1.0' encoding='utf-8'?>
<svg xmlns="http://www.w3.org/2000/svg" version="1.1" viewBox="0 0 1024 1024"><g transform="scale(1, -1) translate(0, -900)"><path d="M 625 14 Q 635 -11 656 -59 Q 665 -77 675 -76 Q 691 -73 701 -48 Q 725 -3 745 151 Q 751 200 774 231 Q 792 252 779 265 Q 757 287 709 310 Q 690 320 656 308 Q 581 283 494 266 Q 416 254 300 247 C 270 245 306 203 336 207 Q 343 207 350 208 Q 399 218 463 229 L 504 236 Q 562 246 635 257 Q 666 261 678 248 Q 685 244 686 225 Q 685 138 668 52 Q 667 37 660 36 Q 656 35 644 40 C 615 38 615 38 625 14 Z" fill="black" /></g></svg>