<?xml version='1.0' encoding='utf-8'?>
<svg xmlns="http://www.w3.org/2000/svg" version="1.1" viewBox="0 0 1024 1024"><g transform="scale(1, -1) translate(0, -900)"><path d="M 657 110 Q 753 -29 853 -62 Q 862 -63 871 -64 Q 892 -58 883 -30 Q 876 18 876 159 Q 875 181 866 182 Q 860 181 854 161 Q 818 56 797 54 Q 784 58 760 75 Q 726 106 696 144 L 669 180 Q 612 268 579 380 L 569 413 Q 568 422 565 431 Q 501 647 512 776 Q 522 819 464 837 Q 427 850 407 842 Q 386 833 398 814 Q 447 774 450 740 Q 487 535 526 405 L 535 373 Q 571 253 636 143 L 657 110 Z" fill="black" /></g></svg>