<?xml version='1.0' encoding='utf-8'?>
<svg xmlns="http://www.w3.org/2000/svg" version="1.1" viewBox="0 0 1024 1024"><g transform="scale(1, -1) translate(0, -900)"><path d="M 283 271 Q 302 249 317 241 Q 327 235 340 256 Q 358 296 377 506 Q 384 534 405 558 Q 415 571 405 583 Q 390 598 350 620 Q 337 626 264 610 Q 255 610 163 592 Q 123 583 91 578 C 61 573 88 544 117 551 Q 144 558 181 564 L 219 569 Q 300 587 313 574 Q 334 552 332 529 Q 311 327 294 300 C 283 272 283 271 283 271 Z" fill="black" /></g></svg>