<?xml version='1.0' encoding='utf-8'?>
<svg xmlns="http://www.w3.org/2000/svg" version="1.1" viewBox="0 0 1024 1024"><g transform="scale(1, -1) translate(0, -900)"><path d="M 298 313 Q 317 288 334 282 Q 344 276 355 296 Q 371 335 385 535 Q 391 562 410 585 Q 420 597 409 608 Q 396 621 356 642 Q 341 648 288 632 Q 281 632 273 629 Q 158 605 122 594 C 93 586 102 554 130 565 Q 136 571 204 584 L 240 591 Q 312 609 324 598 Q 343 577 342 556 Q 326 355 313 341 C 303 313 295 317 298 313 Z" fill="black" /></g></svg>