<?xml version='1.0' encoding='utf-8'?>
<svg xmlns="http://www.w3.org/2000/svg" version="1.1" viewBox="0 0 1024 1024"><g transform="scale(1, -1) translate(0, -900)"><path d="M 675 450 Q 665 457 651 462 Q 639 466 632 461 Q 626 457 631 441 Q 643 407 641 373 Q 631 159 649 99 Q 653 77 673 59 Q 740 1 888 24 Q 892 27 898 27 Q 931 37 962 62 Q 981 77 968 102 Q 955 130 936 214 Q 936 230 929 234 Q 923 237 919 220 Q 897 129 880 101 Q 871 88 843 81 Q 779 65 721 91 Q 699 103 692 118 Q 659 187 691 420 C 694 440 694 440 675 450 Z" fill="black" /></g></svg>