<?xml version='1.0' encoding='utf-8'?>
<svg xmlns="http://www.w3.org/2000/svg" version="1.1" viewBox="0 0 1024 1024"><g transform="scale(1, -1) translate(0, -900)"><path d="M 633 508 Q 638 496 650 496 Q 655 496 659 498 Q 673 507 698 580 Q 707 610 721 629 Q 727 637 745 653 Q 757 662 753 672 Q 749 688 687 719 Q 679 724 649 719 L 612 713 L 462 684 Q 349 662 345 662 C 315 657 348 634 378 637 Q 386 637 390 637 L 492 663 L 527 669 Q 644 690 657 683 Q 662 680 661 661 Q 659 653 657 641 Q 646 568 633 533 C 627 514 627 514 633 508 Z" fill="black" /></g></svg>