<?xml version='1.0' encoding='utf-8'?>
<svg xmlns="http://www.w3.org/2000/svg" version="1.1" viewBox="0 0 1024 1024"><g transform="scale(1, -1) translate(0, -900)"><path d="M 397 519 Q 403 537 417 551 Q 427 563 417 575 Q 401 590 361 612 Q 342 619 328 612 Q 303 606 274 600 Q 234 593 182 581 Q 143 572 113 566 C 84 560 98 527 127 536 Q 139 542 205 554 L 250 561 Q 314 574 325 565 Q 346 546 343 523 Q 325 330 309 304 C 298 276 298 276 299 275 Q 318 253 334 245 Q 344 239 356 260 Q 372 299 390 498 Q 390 502 392 506 L 397 519 Z" fill="black" /></g></svg>