<?xml version='1.0' encoding='utf-8'?>
<svg xmlns="http://www.w3.org/2000/svg" version="1.1" viewBox="0 0 1024 1024"><g transform="scale(1, -1) translate(0, -900)"><path d="M 177 403 Q 208 428 277 445 Q 311 454 332 447 Q 354 440 355 405 Q 358 239 294 104 Q 284 83 272 78 Q 260 74 198 89 Q 185 96 183 90 Q 182 84 193 74 Q 226 37 248 5 Q 258 -7 268 -6 Q 283 -6 300 6 Q 358 78 378 158 Q 400 240 405 391 Q 406 419 416 436 Q 426 449 417 460 Q 401 473 365 488 Q 346 495 324 487 Q 296 477 273 471 Q 257 468 235 463 Q 201 454 214 489 Q 227 543 234 548 C 242 566 240 566 211 573 Q 204 577 188 579 Q 172 582 164 575 Q 157 568 169 555 Q 196 522 156 458 Q 152 454 148 448 Q 136 435 140 422 Q 143 410 157 400 Q 167 393 177 403 Z" fill="black" /></g></svg>