<?xml version='1.0' encoding='utf-8'?>
<svg xmlns="http://www.w3.org/2000/svg" version="1.1" viewBox="0 0 1024 1024"><g transform="scale(1, -1) translate(0, -900)"><path d="M 645 59 Q 645 98 646 133 L 648 178 Q 648 215 650 250 L 651 288 Q 652 316 653 342 L 655 380 Q 655 389 656 395 Q 663 413 654 422 Q 644 432 634 438 C 609 455 577 456 590 429 Q 593 422 598 413 Q 604 395 605 364 L 605 332 Q 605 311 605 277 L 605 243 Q 605 210 604 166 L 604 125 Q 604 92 604 53 C 604 23 645 29 645 59 Z" fill="black" /></g></svg>