<?xml version='1.0' encoding='utf-8'?>
<svg xmlns="http://www.w3.org/2000/svg" version="1.1" viewBox="0 0 1024 1024"><g transform="scale(1, -1) translate(0, -900)"><path d="M 740 152 Q 740 145 743 138 Q 747 123 759 125 Q 772 126 778 140 Q 788 155 808 226 Q 821 274 854 302 Q 872 317 856 331 Q 840 346 793 369 Q 780 376 723 362 Q 651 353 574 334 Q 528 324 495 318 C 466 312 489 275 517 286 Q 516 287 518 287 Q 551 299 606 309 L 638 315 Q 746 336 764 327 Q 773 321 769 294 Q 754 206 746 177 L 740 152 Z" fill="black" /></g></svg>