<?xml version='1.0' encoding='utf-8'?>
<svg xmlns="http://www.w3.org/2000/svg" version="1.1" viewBox="0 0 1024 1024"><g transform="scale(1, -1) translate(0, -900)"><path d="M 737 433 Q 752 409 765 403 Q 774 397 785 413 Q 795 429 818 522 Q 825 546 843 565 Q 853 575 844 585 Q 832 598 799 618 Q 784 625 772 621 Q 751 615 721 610 Q 682 603 634 593 Q 598 586 572 580 C 543 573 554 544 583 553 Q 583 554 586 554 Q 613 563 650 569 L 679 575 Q 751 596 770 582 Q 780 575 777 561 Q 762 477 752 455 C 742 427 732 440 737 433 Z" fill="black" /></g></svg>