<?xml version='1.0' encoding='utf-8'?>
<svg xmlns="http://www.w3.org/2000/svg" version="1.1" viewBox="0 0 1024 1024"><g transform="scale(1, -1) translate(0, -900)"><path d="M 510 100 Q 511 158 513 211 L 514 245 Q 515 297 517 347 L 518 391 Q 518 425 519 457 L 520 489 Q 520 501 521 511 Q 522 542 523 571 L 525 611 Q 526 648 529 676 L 533 727 Q 536 746 543 766 Q 556 788 540 803 Q 503 833 471 842 Q 455 846 439 833 Q 433 826 440 813 Q 471 759 470 710 L 469 664 Q 468 630 467 595 L 467 558 Q 466 521 466 480 L 465 448 Q 464 414 464 378 L 464 338 Q 461 238 461 128 C 461 98 509 70 510 100 Z" fill="black" /></g></svg>