<?xml version='1.0' encoding='utf-8'?>
<svg xmlns="http://www.w3.org/2000/svg" version="1.1" viewBox="0 0 1024 1024"><g transform="scale(1, -1) translate(0, -900)"><path d="M 493 583 Q 480 613 469 666 Q 468 678 461 682 Q 454 686 452 670 Q 440 606 431 594 Q 424 585 405 578 Q 341 560 292 572 Q 279 579 274 588 Q 268 604 268 639 L 269 659 Q 273 714 285 741 Q 295 763 280 777 Q 241 807 229 803 Q 217 799 223 785 Q 239 757 235 714 Q 229 581 253 556 Q 268 541 313 534 Q 430 521 481 547 Q 503 560 493 583 Z" fill="black" /></g></svg>