<?xml version='1.0' encoding='utf-8'?>
<svg xmlns="http://www.w3.org/2000/svg" version="1.1" viewBox="0 0 1024 1024"><g transform="scale(1, -1) translate(0, -900)"><path d="M 611 653 Q 626 626 641 618 Q 650 611 664 629 Q 676 645 705 743 Q 714 770 735 791 Q 747 801 738 814 Q 725 830 688 854 Q 676 861 605 847 Q 590 847 473 828 Q 422 818 380 813 C 350 809 369 776 398 783 Q 398 784 402 784 Q 439 794 492 802 L 525 807 Q 634 828 654 814 Q 664 805 661 791 Q 637 683 621 673 C 609 656 609 656 611 653 Z" fill="black" /></g></svg>