<?xml version='1.0' encoding='utf-8'?>
<svg xmlns="http://www.w3.org/2000/svg" version="1.1" viewBox="0 0 1024 1024"><g transform="scale(1, -1) translate(0, -900)"><path d="M 436 353 Q 421 352 419 343 Q 418 336 425 332 Q 459 322 492 328 Q 555 350 583 355 Q 605 358 607 351 Q 611 342 598 328 Q 451 169 447 92 Q 451 56 477 35 Q 544 -22 702 -17 Q 787 -16 888 28 Q 919 43 911 67 Q 890 116 874 196 Q 870 209 862 209 Q 856 209 852 192 Q 845 164 836 132 Q 823 87 788 72 Q 751 50 664 47 Q 577 43 544 58 Q 514 71 504 101 Q 495 170 625 284 Q 665 320 702 332 Q 727 342 721 356 Q 714 372 666 404 Q 648 417 619 406 Q 522 364 436 353 Z" fill="black" /></g></svg>