<?xml version='1.0' encoding='utf-8'?>
<svg xmlns="http://www.w3.org/2000/svg" version="1.1" viewBox="0 0 1024 1024"><g transform="scale(1, -1) translate(0, -900)"><path d="M 629 253 Q 665 305 703 375 Q 719 403 745 420 Q 760 427 760 437 Q 760 450 732 466 Q 698 490 683 490 Q 671 489 660 481 Q 573 448 526 443 Q 525 443 524 441 C 495 434 477 424 506 418 Q 548 403 620 433 Q 642 440 651 434 Q 658 430 637 378 Q 558 153 291 33 Q 281 29 282 24 Q 283 20 290 20 Q 411 16 571 178 Q 574 185 614 231 L 629 253 Z" fill="black" /></g></svg>