<?xml version='1.0' encoding='utf-8'?>
<svg xmlns="http://www.w3.org/2000/svg" version="1.1" viewBox="0 0 1024 1024"><g transform="scale(1, -1) translate(0, -900)"><path d="M 926 95 Q 913 120 893 198 Q 892 214 885 218 Q 879 221 875 204 Q 850 119 833 94 Q 809 64 718 67 Q 684 68 657 81 Q 633 93 627 108 Q 606 153 633 297 Q 639 327 590 347 Q 577 351 569 346 Q 562 342 568 325 Q 580 286 577 249 Q 570 123 580 89 Q 584 67 604 48 Q 671 -10 819 11 Q 832 14 848 18 Q 885 28 920 54 Q 939 70 926 95 Z" fill="black" /></g></svg>