<?xml version='1.0' encoding='utf-8'?>
<svg xmlns="http://www.w3.org/2000/svg" version="1.1" viewBox="0 0 1024 1024"><g transform="scale(1, -1) translate(0, -900)"><path d="M 937 113 Q 925 140 912 219 Q 913 235 905 242 Q 899 246 893 227 Q 856 145 834 120 Q 815 95 754 78 Q 612 42 497 89 Q 451 111 439 140 Q 418 183 423 289 L 426 317 Q 430 372 441 434 L 441 435 C 444 455 444 455 430 464 Q 418 476 398 483 Q 385 487 377 482 Q 370 478 376 460 Q 389 423 386 385 Q 374 178 391 121 Q 398 87 430 57 Q 526 -24 750 1 Q 781 7 814 15 Q 872 31 927 72 Q 949 85 937 113 Z" fill="black" /></g></svg>