<?xml version='1.0' encoding='utf-8'?>
<svg xmlns="http://www.w3.org/2000/svg" version="1.1" viewBox="0 0 1024 1024"><g transform="scale(1, -1) translate(0, -900)"><path d="M 719 80 Q 704 59 690 63 Q 660 70 619 82 Q 604 86 603 82 Q 603 78 620 63 Q 657 30 679 -11 Q 689 -27 698 -30 Q 705 -31 723 -17 Q 775 29 810 101 Q 838 164 861 336 Q 867 361 880 372 Q 892 382 880 398 Q 865 413 837 430 Q 815 445 746 425 Q 742 425 739 424 Q 553 387 547 403 Q 547 415 605 501 Q 636 541 649 547 Q 659 553 658 556 Q 659 563 653 568 Q 631 587 605 596 Q 587 603 558 590 Q 459 554 394 554 Q 379 554 377 549 Q 374 545 380 536 Q 387 527 402 519 Q 414 510 463 523 Q 577 559 578 545 Q 578 511 510 416 Q 474 383 488 350 Q 489 344 505 347 L 529 355 Q 563 365 626 377 L 673 385 Q 742 397 774 396 Q 796 396 799 386 Q 815 298 759 149 Q 758 148 757 144 Q 745 110 719 80 Z" fill="black" /></g></svg>