<?xml version='1.0' encoding='utf-8'?>
<svg xmlns="http://www.w3.org/2000/svg" version="1.1" viewBox="0 0 1024 1024"><g transform="scale(1, -1) translate(0, -900)"><path d="M 456 259 Q 449 174 419 115 Q 401 90 440 56 Q 452 46 467 59 Q 525 101 679 110 Q 730 113 792 108 Q 814 105 824 111 Q 831 117 825 129 Q 819 142 781 163 Q 763 173 684 162 Q 669 169 515 135 Q 493 131 492 132 Q 476 142 482 173 Q 483 225 487 267 L 490 305 Q 497 389 509 421 C 515 441 515 441 494 456 Q 476 472 451 480 Q 436 484 428 475 Q 424 468 434 452 Q 455 422 457 300 L 456 259 Z" fill="black" /></g></svg>