<?xml version='1.0' encoding='utf-8'?>
<svg xmlns="http://www.w3.org/2000/svg" version="1.1" viewBox="0 0 1024 1024"><g transform="scale(1, -1) translate(0, -900)"><path d="M 641 317 Q 687 329 728 334 Q 746 335 749 330 Q 759 314 751 272 Q 735 154 704 104 Q 688 74 661 80 Q 636 87 615 97 Q 591 104 607 81 Q 649 38 667 6 Q 686 -16 707 2 Q 738 24 760 63 Q 787 109 806 254 Q 813 305 831 329 Q 844 342 838 353 Q 828 363 777 387 Q 758 397 738 383 Q 719 373 649 356 L 592 343 Q 538 333 490 330 Q 472 329 469 320 Q 468 313 492 300 Q 517 284 537 291 Q 561 298 587 304 L 641 317 Z" fill="black" /></g></svg>