<?xml version='1.0' encoding='utf-8'?>
<svg xmlns="http://www.w3.org/2000/svg" version="1.1" viewBox="0 0 1024 1024"><g transform="scale(1, -1) translate(0, -900)"><path d="M 279 320 Q 269 274 258 232 Q 230 150 189 79 Q 170 39 147 1 Q 141 -6 139 -13 Q 138 -25 148 -22 Q 190 -15 272 134 Q 278 150 286 165 Q 347 312 361 500 Q 367 596 376 611 C 381 629 381 629 368 639 Q 352 655 322 667 Q 301 677 287 672 Q 274 665 282 649 Q 301 622 302 548 Q 301 541 301 530 Q 300 445 289 370 Q 288 369 288 365 L 279 320 Z" fill="black" /></g></svg>