<?xml version='1.0' encoding='utf-8'?>
<svg xmlns="http://www.w3.org/2000/svg" version="1.1" viewBox="0 0 1024 1024"><g transform="scale(1, -1) translate(0, -900)"><path d="M 454 503 Q 466 504 702 561 Q 715 565 726 555 Q 733 545 731 526 Q 692 73 871 -21 Q 908 -40 927 -30 Q 940 -24 936 -4 Q 929 81 936 169 Q 937 181 933 188 Q 926 198 922 180 Q 900 114 883 86 Q 864 53 842 79 Q 788 122 773 253 Q 761 317 778 464 Q 782 506 822 549 Q 837 564 820 577 Q 807 590 752 616 Q 731 628 697 601 Q 607 567 454 535 C 425 529 425 497 454 503 Z" fill="black" /></g></svg>