<?xml version='1.0' encoding='utf-8'?>
<svg xmlns="http://www.w3.org/2000/svg" version="1.1" viewBox="0 0 1024 1024"><g transform="scale(1, -1) translate(0, -900)"><path d="M 452 450 Q 453 450 456 448 Q 478 435 496 441 Q 614 474 699 486 Q 718 487 721 482 Q 728 472 725 441 Q 716 357 696 320 Q 680 292 654 296 Q 630 303 611 312 Q 587 321 603 297 Q 642 254 659 222 Q 675 203 691 218 Q 740 249 769 363 Q 784 459 803 481 Q 815 494 809 503 Q 800 513 752 535 Q 733 544 715 532 Q 693 519 609 500 Q 533 482 471 476 C 441 473 425 463 452 450 Z" fill="black" /></g></svg>