<?xml version='1.0' encoding='utf-8'?>
<svg xmlns="http://www.w3.org/2000/svg" version="1.1" viewBox="0 0 1024 1024"><g transform="scale(1, -1) translate(0, -900)"><path d="M 907 103 Q 894 127 873 203 Q 872 218 865 222 Q 859 225 856 208 Q 835 126 820 100 Q 801 76 743 62 Q 682 47 610 51 Q 549 55 500 76 Q 457 98 445 125 Q 430 158 435 229 L 438 258 Q 442 295 450 337 Q 450 341 451 343 C 453 356 453 356 439 365 Q 429 375 411 382 Q 401 386 394 382 C 386 383 386 383 388 376 Q 387 372 391 362 Q 401 328 399 293 Q 390 148 402 108 Q 408 77 437 49 Q 531 -26 735 -2 Q 765 2 796 10 Q 850 26 902 62 Q 921 78 907 103 Z" fill="black" /></g></svg>