<?xml version='1.0' encoding='utf-8'?>
<svg xmlns="http://www.w3.org/2000/svg" version="1.1" viewBox="0 0 1024 1024"><g transform="scale(1, -1) translate(0, -900)"><path d="M 635 85 Q 666 39 672 15 Q 679 -13 691 -19 Q 704 -20 722 12 Q 743 55 747 128 Q 734 263 731 398 L 732 443 Q 735 510 746 548 Q 762 576 708 597 Q 675 615 657 607 Q 641 601 656 579 Q 677 554 679 521 Q 680 511 680 434 L 680 395 Q 680 299 680 127 Q 680 111 672 105 Q 671 104 667 104 C 648 81 628 96 635 85 Z" fill="black" /></g></svg>