<?xml version='1.0' encoding='utf-8'?>
<svg xmlns="http://www.w3.org/2000/svg" version="1.1" viewBox="0 0 1024 1024"><g transform="scale(1, -1) translate(0, -900)"><path d="M 645 146 Q 681 198 704 280 Q 711 311 728 327 Q 743 340 726 354 Q 708 369 678 380 Q 659 387 639 376 Q 623 369 603 360 L 567 348 Q 480 330 477 328 Q 470 322 486 314 Q 510 302 544 314 Q 589 324 633 336 Q 651 342 652 321 Q 652 252 609 177 L 586 143 Q 579 136 572 127 Q 526 81 404 45 Q 391 41 399 34 Q 406 30 431 32 Q 512 42 558 65 Q 589 81 615 108 L 645 146 Z" fill="black" /></g></svg>