<?xml version='1.0' encoding='utf-8'?>
<svg xmlns="http://www.w3.org/2000/svg" version="1.1" viewBox="0 0 1024 1024"><g transform="scale(1, -1) translate(0, -900)"><path d="M 464 357 Q 498 366 529 370 Q 544 371 546 367 Q 558 351 550 307 Q 537 187 508 135 Q 495 110 474 113 Q 452 122 433 132 Q 412 141 425 118 Q 462 76 479 45 Q 500 24 517 43 Q 547 67 566 106 Q 588 152 599 294 Q 603 345 620 369 Q 630 381 625 391 Q 616 401 570 420 Q 552 427 535 416 Q 520 409 473 395 L 420 382 Q 377 375 338 371 Q 322 370 320 362 Q 319 355 340 344 Q 362 331 380 336 Q 396 340 412 344 L 464 357 Z" fill="black" /></g></svg>