<?xml version='1.0' encoding='utf-8'?>
<svg xmlns="http://www.w3.org/2000/svg" version="1.1" viewBox="0 0 1024 1024"><g transform="scale(1, -1) translate(0, -900)"><path d="M 606 320 Q 774 344 793 326 Q 808 320 809 297 Q 812 240 797 138 Q 796 110 769 112 Q 736 113 711 117 Q 695 118 699 109 Q 702 99 733 79 Q 770 48 793 16 Q 803 6 816 11 Q 825 15 839 46 Q 864 94 865 183 Q 865 303 880 324 Q 890 337 883 349 Q 871 361 827 379 Q 808 386 792 377 Q 768 370 702 363 Q 654 357 612 349 L 562 341 Q 549 341 536 338 Q 463 326 413 321 C 383 318 405 277 433 287 Q 440 288 450 294 Q 490 304 558 314 L 606 320 Z" fill="black" /></g></svg>