<?xml version='1.0' encoding='utf-8'?>
<svg xmlns="http://www.w3.org/2000/svg" version="1.1" viewBox="0 0 1024 1024"><g transform="scale(1, -1) translate(0, -900)"><path d="M 622 439 Q 733 550 737 553 Q 752 563 747 572 Q 746 582 688 608 Q 670 618 651 607 Q 581 571 423 554 Q 404 553 417 537 Q 439 519 480 528 Q 555 541 611 553 Q 626 556 631 549 Q 632 543 623 529 Q 589 474 532 417 Q 483 371 391 309 Q 375 299 390 297 Q 456 297 596 414 Q 597 417 601 419 Q 602 420 604 422 L 622 439 Z" fill="black" /></g></svg>