<?xml version='1.0' encoding='utf-8'?>
<svg xmlns="http://www.w3.org/2000/svg" version="1.1" viewBox="0 0 1024 1024"><g transform="scale(1, -1) translate(0, -900)"><path d="M 558 215 Q 561 233 564 250 L 567 280 Q 568 313 572 345 L 575 378 Q 576 415 581 449 L 583 477 Q 587 535 590 543 L 602 582 Q 606 594 611 604 Q 618 617 608 629 Q 586 648 548 660 Q 524 667 515 660 Q 506 653 513 641 Q 532 610 535 568 L 536 533 Q 536 500 535 466 L 534 440 Q 533 404 530 368 L 527 338 Q 523 305 520 271 L 516 242 Q 503 128 435 72 Q 383 27 272 -12 Q 259 -16 258 -21 Q 258 -25 269 -27 Q 288 -31 333 -20 Q 409 -4 464 40 Q 527 91 552 185 L 558 215 Z" fill="black" /></g></svg>