<?xml version='1.0' encoding='utf-8'?>
<svg xmlns="http://www.w3.org/2000/svg" version="1.1" viewBox="0 0 1024 1024"><g transform="scale(1, -1) translate(0, -900)"><path d="M 471 448 Q 462 396 435 364 Q 428 357 427 350 Q 426 341 445 326 Q 467 307 496 271 Q 506 255 515 257 Q 527 258 533 272 Q 539 291 533 304 Q 527 322 468 342 Q 446 351 486 394 Q 486 397 489 398 Q 513 425 522 432 Q 531 436 532 442 Q 535 455 516 473 Q 500 491 485 494 Q 470 495 466 490 Q 463 486 468 479 Q 475 469 471 448 Z" fill="black" /></g></svg>