<?xml version='1.0' encoding='utf-8'?>
<svg xmlns="http://www.w3.org/2000/svg" version="1.1" viewBox="0 0 1024 1024"><g transform="scale(1, -1) translate(0, -900)"><path d="M 593 467 Q 580 422 552 389 Q 545 382 543 375 Q 542 366 560 350 Q 581 331 608 293 Q 617 277 627 278 Q 639 278 645 292 Q 652 311 647 324 Q 641 339 583 365 Q 571 371 578 383 Q 582 390 608 417 Q 633 441 642 447 Q 652 451 653 456 Q 657 469 640 489 Q 625 507 610 512 Q 595 515 591 510 Q 588 506 592 499 Q 599 487 593 467 Z" fill="black" /></g></svg>