<?xml version='1.0' encoding='utf-8'?>
<svg xmlns="http://www.w3.org/2000/svg" version="1.1" viewBox="0 0 1024 1024"><g transform="scale(1, -1) translate(0, -900)"><path d="M 600 44 Q 561 51 522 60 Q 509 61 511 54 Q 512 47 523 40 Q 605 -20 636 -58 Q 651 -74 666 -60 Q 702 -27 697 45 Q 694 76 688 287 Q 687 288 687 290 L 690 334 Q 693 353 699 367 Q 708 386 691 399 Q 670 417 646 426 C 619 438 592 448 606 422 Q 607 416 614 407 Q 635 371 636 324 L 637 287 Q 643 61 624 47 Q 615 40 600 44 Z" fill="black" /></g></svg>