<?xml version='1.0' encoding='utf-8'?>
<svg xmlns="http://www.w3.org/2000/svg" version="1.1" viewBox="0 0 1024 1024"><g transform="scale(1, -1) translate(0, -900)"><path d="M 600 388 Q 657 401 724 410 Q 742 414 751 403 Q 758 399 762 361 Q 772 234 767 89 Q 767 68 759 62 Q 747 52 683 59 Q 668 60 670 51 Q 671 45 684 40 Q 742 6 774 -23 Q 793 -39 805 -37 Q 815 -34 825 -8 Q 838 34 834 93 Q 812 349 829 384 Q 839 403 830 413 Q 820 426 779 447 Q 761 456 689 435 Q 563 405 449 391 C 419 387 434 351 463 358 Q 475 362 556 379 L 600 388 Z" fill="black" /></g></svg>