<?xml version='1.0' encoding='utf-8'?>
<svg xmlns="http://www.w3.org/2000/svg" version="1.1" viewBox="0 0 1024 1024"><g transform="scale(1, -1) translate(0, -900)"><path d="M 755 63 Q 727 67 699 72 Q 680 76 681 67 Q 741 24 775 -8 Q 788 -26 803 -30 Q 813 -33 820 -23 Q 857 25 853 77 Q 819 492 845 539 Q 857 558 845 567 Q 824 585 789 599 Q 768 605 726 582 Q 677 567 626 559 Q 613 558 620 549 Q 629 539 643 534 Q 661 531 747 554 Q 766 558 772 549 Q 793 489 791 169 Q 787 76 780 64 Q 774 58 755 63 Z" fill="black" /></g></svg>