<?xml version='1.0' encoding='utf-8'?>
<svg xmlns="http://www.w3.org/2000/svg" version="1.1" viewBox="0 0 1024 1024"><g transform="scale(1, -1) translate(0, -900)"><path d="M 575 207 Q 627 219 675 223 Q 699 226 703 219 Q 710 207 705 177 Q 695 95 675 59 Q 657 29 631 35 Q 603 47 579 59 Q 555 69 570 44 Q 613 -5 633 -43 Q 648 -62 665 -49 Q 719 -18 753 110 Q 771 195 788 215 Q 801 228 796 239 Q 787 251 734 277 Q 712 287 692 274 Q 668 261 585 243 L 531 232 Q 452 219 383 215 Q 364 215 361 206 Q 358 197 384 184 Q 409 166 431 174 Q 477 187 521 195 L 575 207 Z" fill="black" /></g></svg>