<?xml version='1.0' encoding='utf-8'?>
<svg xmlns="http://www.w3.org/2000/svg" version="1.1" viewBox="0 0 1024 1024"><g transform="scale(1, -1) translate(0, -900)"><path d="M 447 452 Q 450 512 463 553 Q 470 565 468 575 Q 462 582 419 610 Q 401 623 385 612 Q 381 608 386 596 Q 410 560 410 524 Q 410 485 410 439 L 407 309 Q 404 254 404 193 Q 400 138 384 85 Q 375 55 395 6 Q 399 -7 406 -11 Q 410 -15 416 -10 Q 423 -6 431 10 Q 438 29 438 53 Q 438 84 443 316 L 444 342 Q 444 376 446 411 L 447 452 Z" fill="black" /></g></svg>