<?xml version='1.0' encoding='utf-8'?>
<svg xmlns="http://www.w3.org/2000/svg" version="1.1" viewBox="0 0 1024 1024"><g transform="scale(1, -1) translate(0, -900)"><path d="M 536 233 Q 536 234 537 234 Q 547 256 559 270 Q 568 277 565 286 Q 561 299 527 327 Q 517 336 506 333 Q 494 330 500 315 Q 507 293 499 271 Q 492 247 483 227 L 466 192 Q 438 153 442 135 Q 445 125 461 122 Q 500 113 560 82 L 604 58 Q 664 24 750 -44 Q 774 -63 791 -63 Q 810 -62 811 -43 Q 810 -24 783 19 Q 770 43 634 96 L 587 114 Q 538 133 503 141 Q 484 145 495 163 Q 507 185 516 200 L 536 233 Z" fill="black" /></g></svg>