<?xml version='1.0' encoding='utf-8'?>
<svg xmlns="http://www.w3.org/2000/svg" version="1.1" viewBox="0 0 1024 1024"><g transform="scale(1, -1) translate(0, -900)"><path d="M 717 74 Q 748 34 771 -3 Q 781 -22 792 -21 Q 810 -20 826 15 Q 845 55 841 105 Q 831 229 825 461 Q 824 495 841 518 Q 851 531 841 543 Q 822 564 765 589 Q 746 599 729 589 Q 594 535 434 529 C 404 527 417 490 447 494 Q 466 494 699 535 Q 735 542 752 528 Q 783 500 766 116 Q 765 112 765 107 Q 761 86 741 96 Q 732 103 720 108 C 694 122 699 98 717 74 Z" fill="black" /></g></svg>