<?xml version='1.0' encoding='utf-8'?>
<svg xmlns="http://www.w3.org/2000/svg" version="1.1" viewBox="0 0 1024 1024"><g transform="scale(1, -1) translate(0, -900)"><path d="M 691 365 Q 704 346 716 337 Q 726 330 742 349 Q 758 371 794 493 Q 804 523 827 545 Q 840 557 830 570 Q 817 588 776 614 Q 757 624 680 605 Q 644 605 501 572 L 474 567 Q 456 566 442 562 C 413 556 433 523 462 532 Q 474 538 562 555 L 594 561 Q 717 589 739 573 Q 751 563 746 544 Q 718 429 707 411 Q 703 399 688 397 C 673 389 673 389 691 365 Z" fill="black" /></g></svg>