<?xml version='1.0' encoding='utf-8'?>
<svg xmlns="http://www.w3.org/2000/svg" version="1.1" viewBox="0 0 1024 1024"><g transform="scale(1, -1) translate(0, -900)"><path d="M 424 273 L 425 273 Q 434 269 462 265 Q 486 261 494 249 Q 506 230 470 121 Q 452 76 434 67 Q 424 61 390 71 Q 357 83 354 78 Q 350 69 365 61 Q 401 34 409 4 Q 415 -9 424 -15 Q 436 -19 463 1 Q 506 40 531 156 Q 541 211 559 228 Q 569 232 570 240 Q 571 249 551 269 Q 524 293 475 293 Q 457 296 437 300 C 408 306 395 281 424 273 Z" fill="black" /></g></svg>