<?xml version='1.0' encoding='utf-8'?>
<svg xmlns="http://www.w3.org/2000/svg" version="1.1" viewBox="0 0 1024 1024"><g transform="scale(1, -1) translate(0, -900)"><path d="M 696 378 Q 703 360 716 361 Q 729 362 736 377 Q 748 393 768 471 Q 784 522 818 551 Q 837 567 820 582 Q 802 598 754 623 Q 741 630 680 617 Q 592 605 526 590 Q 477 580 441 574 C 411 569 422 539 452 541 Q 461 540 469 542 Q 502 552 557 562 L 599 568 Q 704 589 722 578 Q 732 572 727 543 Q 717 486 695 397 C 692 384 692 384 696 378 Z" fill="black" /></g></svg>