<?xml version='1.0' encoding='utf-8'?>
<svg xmlns="http://www.w3.org/2000/svg" version="1.1" viewBox="0 0 1024 1024"><g transform="scale(1, -1) translate(0, -900)"><path d="M 441 506 Q 448 506 710 562 Q 725 566 735 556 Q 742 544 741 525 Q 713 65 881 -29 Q 887 -32 896 -37 Q 935 -55 953 -43 Q 966 -36 960 -16 Q 947 66 945 154 Q 946 166 941 173 Q 934 180 931 163 Q 913 99 900 69 Q 884 39 864 62 Q 758 146 788 464 Q 792 507 833 551 Q 848 566 830 579 Q 817 592 762 619 Q 741 631 722 613 Q 664 574 428 535 C 398 530 412 500 441 506 Z" fill="black" /></g></svg>