<?xml version='1.0' encoding='utf-8'?>
<svg xmlns="http://www.w3.org/2000/svg" version="1.1" viewBox="0 0 1024 1024"><g transform="scale(1, -1) translate(0, -900)"><path d="M 728 153 Q 759 205 787 284 Q 799 312 817 330 Q 835 346 822 359 Q 809 369 778 380 Q 756 387 729 373 Q 707 363 675 352 Q 644 342 590 332 Q 577 331 573 324 Q 570 317 587 311 Q 621 299 667 314 Q 706 333 713 333 Q 735 329 728 305 Q 715 238 689 188 L 669 153 Q 615 78 499 40 Q 486 34 498 27 Q 502 23 540 25 Q 627 34 700 114 L 728 153 Z" fill="black" /></g></svg>