<?xml version='1.0' encoding='utf-8'?>
<svg xmlns="http://www.w3.org/2000/svg" version="1.1" viewBox="0 0 1024 1024"><g transform="scale(1, -1) translate(0, -900)"><path d="M 502 241 Q 502 260 503 280 L 504 313 Q 504 359 505 411 L 505 436 Q 505 437 506 438 Q 506 474 509 504 L 514 544 Q 517 559 521 571 Q 528 583 525 594 Q 521 601 475 630 Q 456 643 439 631 Q 435 627 440 614 Q 467 575 467 532 L 468 496 Q 468 465 469 428 L 469 404 Q 468 356 467 304 L 465 219 Q 465 116 445 44 Q 438 14 457 -38 Q 463 -53 469 -55 Q 475 -61 480 -54 Q 487 -50 495 -33 Q 502 -14 502 12 Q 501 40 502 213 L 502 241 Z" fill="black" /></g></svg>