<?xml version='1.0' encoding='utf-8'?>
<svg xmlns="http://www.w3.org/2000/svg" version="1.1" viewBox="0 0 1024 1024"><g transform="scale(1, -1) translate(0, -900)"><path d="M 717 279 Q 711 263 717 248 Q 723 232 736 233 Q 749 234 757 250 Q 776 278 804 416 Q 820 467 857 495 Q 876 511 860 526 Q 842 542 793 569 Q 775 581 741 567 Q 701 558 659 546 Q 646 546 643 541 Q 640 537 654 528 Q 676 519 712 524 Q 751 537 758 531 Q 771 524 764 479 Q 758 451 753 426 L 746 388 Q 734 334 726 305 L 717 279 Z" fill="black" /></g></svg>