<?xml version='1.0' encoding='utf-8'?>
<svg xmlns="http://www.w3.org/2000/svg" version="1.1" viewBox="0 0 1024 1024"><g transform="scale(1, -1) translate(0, -900)"><path d="M 595 261 Q 595 262 596 263 L 602 297 Q 606 334 617 490 Q 618 532 633 582 Q 637 592 630 600 Q 579 642 544 630 Q 526 623 541 607 Q 568 580 568 553 Q 569 394 552 287 L 547 256 Q 522 123 398 32 Q 365 11 320 -14 Q 308 -18 306 -23 Q 302 -27 316 -30 Q 329 -31 382 -12 Q 419 1 474 38 Q 555 92 587 216 Q 587 219 588 222 L 595 261 Z" fill="black" /></g></svg>