<?xml version='1.0' encoding='utf-8'?>
<svg xmlns="http://www.w3.org/2000/svg" version="1.1" viewBox="0 0 1024 1024"><g transform="scale(1, -1) translate(0, -900)"><path d="M 585 65 Q 639 34 714 -25 Q 739 -44 755 -43 Q 774 -42 775 -23 Q 775 -4 746 38 Q 734 62 617 105 L 570 122 Q 516 141 479 150 Q 461 154 471 170 Q 490 203 503 221 L 524 256 Q 530 266 537 274 Q 547 280 544 289 Q 540 302 507 332 Q 497 341 487 338 Q 474 337 481 320 Q 488 298 478 277 Q 474 264 468 251 L 452 214 Q 439 189 426 172 Q 416 156 418 144 Q 421 134 437 130 Q 507 114 540 89 L 585 65 Z" fill="black" /></g></svg>