<?xml version='1.0' encoding='utf-8'?>
<svg xmlns="http://www.w3.org/2000/svg" version="1.1" viewBox="0 0 1024 1024"><g transform="scale(1, -1) translate(0, -900)"><path d="M 684 521 Q 732 537 778 543 Q 787 544 789 540 Q 793 531 791 507 Q 785 419 768 373 Q 761 345 750 335 Q 740 325 720 332 Q 698 338 676 344 Q 658 350 671 333 Q 702 296 720 266 Q 727 250 742 254 Q 754 255 770 271 Q 815 313 837 475 Q 843 511 858 532 Q 871 548 864 557 Q 851 572 823 584 Q 805 593 742 569 Q 655 545 606 541 Q 591 542 591 534 Q 590 527 608 517 Q 629 504 648 511 Q 649 512 652 512 L 684 521 Z" fill="black" /></g></svg>