<?xml version='1.0' encoding='utf-8'?>
<svg xmlns="http://www.w3.org/2000/svg" version="1.1" viewBox="0 0 1024 1024"><g transform="scale(1, -1) translate(0, -900)"><path d="M 465 313 Q 465 249 473 230 Q 479 220 486 226 Q 501 238 501 324 L 501 360 Q 502 391 503 421 L 503 460 Q 504 472 504 482 Q 504 507 505 527 L 509 565 Q 509 568 510 570 Q 517 586 506 596 Q 493 608 468 618 Q 449 625 430 616 Q 420 609 433 596 Q 449 566 454 547 L 458 515 Q 461 484 463 447 L 464 412 Q 464 403 465 350 L 465 313 Z" fill="black" /></g></svg>