<?xml version='1.0' encoding='utf-8'?>
<svg xmlns="http://www.w3.org/2000/svg" version="1.1" viewBox="0 0 1024 1024"><g transform="scale(1, -1) translate(0, -900)"><path d="M 687 278 Q 688 274 692 268 Q 702 243 710 243 Q 723 243 738 270 Q 753 291 752 309 Q 748 375 757 476 Q 758 506 777 529 Q 787 544 780 553 Q 755 575 713 595 Q 698 601 677 593 Q 629 572 523 553 L 499 550 Q 484 549 471 547 C 441 543 465 508 493 519 Q 502 529 665 557 Q 690 563 698 550 Q 710 534 706 482 Q 699 337 689 308 L 687 278 Z" fill="black" /></g></svg>