<?xml version='1.0' encoding='utf-8'?>
<svg xmlns="http://www.w3.org/2000/svg" version="1.1" viewBox="0 0 1024 1024"><g transform="scale(1, -1) translate(0, -900)"><path d="M 875 31 Q 871 41 850 53 Q 819 71 733 137 Q 726 143 721 142 Q 718 141 721 134 Q 740 101 762 64 Q 771 49 763 37 Q 735 15 621 36 Q 513 60 487 146 Q 466 186 466 187 Q 462 191 459 192 Q 446 201 439 194 Q 435 190 441 174 Q 448 159 461 118 Q 485 25 577 -9 Q 584 -12 594 -15 Q 756 -63 864 15 Q 877 22 875 31 Z" fill="black" /></g></svg>