<?xml version='1.0' encoding='utf-8'?>
<svg xmlns="http://www.w3.org/2000/svg" version="1.1" viewBox="0 0 1024 1024"><g transform="scale(1, -1) translate(0, -900)"><path d="M 649 371 Q 664 352 677 346 Q 687 339 701 359 Q 713 380 736 492 Q 743 520 765 543 Q 777 555 766 568 Q 751 583 712 606 Q 697 613 634 597 Q 631 597 524 574 Q 488 567 459 560 C 430 553 446 522 475 531 Q 535 550 644 567 Q 669 571 677 563 Q 687 550 686 538 Q 671 430 663 414 Q 659 405 651 401 C 636 386 636 386 649 371 Z" fill="black" /></g></svg>