<?xml version='1.0' encoding='utf-8'?>
<svg xmlns="http://www.w3.org/2000/svg" version="1.1" viewBox="0 0 1024 1024"><g transform="scale(1, -1) translate(0, -900)"><path d="M 407 447 Q 422 447 470 464 Q 485 468 490 461 Q 496 440 497 327 L 497 306 Q 497 96 482 77 Q 479 74 424 86 Q 408 92 409 84 Q 449 45 474 16 Q 484 0 496 -4 Q 503 -7 510 1 Q 543 34 543 98 Q 527 411 550 450 Q 560 466 550 474 Q 534 489 504 501 Q 491 507 444 483 Q 426 477 396 470 C 367 463 377 442 407 447 Z" fill="black" /></g></svg>