<?xml version='1.0' encoding='utf-8'?>
<svg xmlns="http://www.w3.org/2000/svg" version="1.1" viewBox="0 0 1024 1024"><g transform="scale(1, -1) translate(0, -900)"><path d="M 475 331 Q 478 331 608 356 Q 629 360 633 349 Q 637 339 639 320 Q 649 154 646 53 Q 645 29 638 19 Q 631 13 579 25 Q 560 34 560 24 Q 602 -25 625 -59 Q 638 -78 653 -84 Q 662 -88 670 -79 Q 715 -34 713 23 Q 686 293 711 337 Q 723 356 711 367 Q 690 386 653 401 Q 635 408 619 401 Q 550 368 457 361 C 427 358 445 326 475 331 Z" fill="black" /></g></svg>