<?xml version='1.0' encoding='utf-8'?>
<svg xmlns="http://www.w3.org/2000/svg" version="1.1" viewBox="0 0 1024 1024"><g transform="scale(1, -1) translate(0, -900)"><path d="M 482 203 Q 482 206 484 206 Q 503 240 520 276 L 537 313 Q 543 329 550 344 Q 556 360 562 375 L 581 415 Q 582 419 586 424 Q 596 434 593 447 Q 586 463 568 477 C 546 497 530 500 530 470 Q 533 451 520 405 L 507 366 Q 495 335 483 305 L 467 267 Q 464 263 462 256 Q 396 126 256 0 Q 250 -4 247 -9 Q 243 -16 251 -17 Q 285 -20 387 76 Q 396 86 406 97 Q 442 140 475 191 L 482 203 Z" fill="black" /></g></svg>