<?xml version='1.0' encoding='utf-8'?>
<svg xmlns="http://www.w3.org/2000/svg" version="1.1" viewBox="0 0 1024 1024"><g transform="scale(1, -1) translate(0, -900)"><path d="M 443 171 Q 450 192 460 214 Q 463 227 467 239 L 474 265 Q 480 293 486 320 L 491 347 Q 495 363 498 378 Q 499 390 504 402 C 510 422 510 422 501 430 Q 489 442 470 452 Q 455 462 446 459 C 433 461 433 461 437 450 Q 437 447 439 442 Q 467 393 409 193 Q 364 97 311 17 Q 307 13 304 7 Q 303 0 311 0 Q 350 12 413 110 Q 416 120 430 142 L 443 171 Z" fill="black" /></g></svg>