<?xml version='1.0' encoding='utf-8'?>
<svg xmlns="http://www.w3.org/2000/svg" version="1.1" viewBox="0 0 1024 1024"><g transform="scale(1, -1) translate(0, -900)"><path d="M 632 256 Q 642 243 653 238 Q 662 232 674 250 Q 686 269 709 377 Q 715 402 733 423 Q 743 433 734 444 Q 721 457 686 477 Q 670 484 658 479 Q 640 472 613 464 Q 580 454 538 442 Q 517 436 501 430 C 473 420 476 391 504 402 Q 550 421 632 441 Q 648 445 658 440 Q 668 433 666 416 Q 647 299 630 287 C 618 271 618 271 632 256 Z" fill="black" /></g></svg>