<?xml version='1.0' encoding='utf-8'?>
<svg xmlns="http://www.w3.org/2000/svg" version="1.1" viewBox="0 0 1024 1024"><g transform="scale(1, -1) translate(0, -900)"><path d="M 614 93 Q 656 139 694 209 Q 709 234 730 251 Q 749 264 739 278 Q 729 291 699 306 Q 677 316 649 305 Q 627 298 599 290 L 562 281 Q 511 269 428 265 Q 415 265 409 258 Q 405 251 423 243 Q 457 228 507 241 Q 610 266 629 264 Q 648 261 641 242 Q 620 173 580 126 Q 577 125 575 121 L 548 95 Q 469 34 326 3 Q 311 0 322 -9 Q 329 -13 376 -11 Q 437 -7 506 22 Q 546 38 581 64 L 614 93 Z" fill="black" /></g></svg>