<?xml version='1.0' encoding='utf-8'?>
<svg xmlns="http://www.w3.org/2000/svg" version="1.1" viewBox="0 0 1024 1024"><g transform="scale(1, -1) translate(0, -900)"><path d="M 663 551 Q 721 572 768 582 Q 780 583 783 580 Q 789 571 786 547 Q 780 480 765 449 Q 749 422 725 427 Q 710 431 698 436 Q 676 445 690 422 Q 717 385 728 356 Q 741 340 755 351 Q 801 378 831 487 Q 841 556 860 578 Q 870 588 866 598 Q 857 608 813 626 Q 804 630 751 610 Q 664 583 597 571 Q 584 570 581 563 Q 580 556 600 548 Q 619 536 636 543 L 663 551 Z" fill="black" /></g></svg>