<?xml version='1.0' encoding='utf-8'?>
<svg xmlns="http://www.w3.org/2000/svg" version="1.1" viewBox="0 0 1024 1024"><g transform="scale(1, -1) translate(0, -900)"><path d="M 678 460 Q 679 459 680 455 Q 684 440 695 441 Q 708 442 715 455 Q 725 465 745 517 Q 761 563 795 588 Q 813 601 798 617 Q 783 633 739 658 Q 726 667 666 653 Q 635 653 522 630 Q 473 620 437 615 C 407 611 421 582 451 586 Q 458 586 464 587 Q 492 597 543 605 L 576 610 Q 688 631 708 621 Q 715 617 711 592 Q 692 508 683 488 C 675 466 675 466 678 460 Z" fill="black" /></g></svg>