<?xml version='1.0' encoding='utf-8'?>
<svg xmlns="http://www.w3.org/2000/svg" version="1.1" viewBox="0 0 1024 1024"><g transform="scale(1, -1) translate(0, -900)"><path d="M 461 572 Q 483 579 505 582 Q 517 583 519 580 Q 523 573 522 554 Q 519 502 508 477 Q 495 455 474 457 Q 458 461 443 465 Q 425 471 438 454 Q 466 426 481 404 Q 491 391 502 400 Q 544 428 564 538 Q 568 566 580 579 Q 589 589 585 596 Q 578 603 541 620 Q 528 626 513 617 Q 503 611 471 601 L 423 588 Q 383 581 346 576 Q 334 576 332 569 Q 331 565 348 556 Q 364 546 379 551 Q 395 557 415 561 L 461 572 Z" fill="black" /></g></svg>