<?xml version='1.0' encoding='utf-8'?>
<svg xmlns="http://www.w3.org/2000/svg" version="1.1" viewBox="0 0 1024 1024"><g transform="scale(1, -1) translate(0, -900)"><path d="M 620 214 Q 635 190 649 182 Q 658 175 672 193 Q 682 209 710 303 Q 719 331 739 352 Q 751 362 741 375 Q 728 390 691 413 Q 678 420 614 406 Q 610 406 605 404 Q 565 397 512 385 Q 452 370 414 370 C 384 369 424 331 453 340 Q 507 358 630 377 Q 649 380 658 373 Q 668 366 665 351 Q 649 269 635 241 C 623 213 618 217 620 214 Z" fill="black" /></g></svg>