<?xml version='1.0' encoding='utf-8'?>
<svg xmlns="http://www.w3.org/2000/svg" version="1.1" viewBox="0 0 1024 1024"><g transform="scale(1, -1) translate(0, -900)"><path d="M 681 165 Q 682 164 683 162 Q 687 147 699 149 Q 712 150 718 164 Q 728 177 745 238 Q 758 286 791 314 Q 809 330 793 343 Q 777 359 730 381 Q 718 388 658 375 Q 604 369 599 366 L 551 357 Q 550 357 424 333 C 395 327 415 293 444 302 Q 444 303 446 303 Q 483 315 551 325 L 598 333 Q 685 346 700 339 Q 709 335 705 308 Q 693 212 682 190 C 676 173 676 173 681 165 Z" fill="black" /></g></svg>