<?xml version='1.0' encoding='utf-8'?>
<svg xmlns="http://www.w3.org/2000/svg" version="1.1" viewBox="0 0 1024 1024"><g transform="scale(1, -1) translate(0, -900)"><path d="M 394 375 Q 440 353 484 324 Q 494 315 503 324 Q 513 330 519 348 Q 531 393 480 452 Q 449 491 521 553 Q 524 557 529 559 Q 545 571 536 582 Q 524 597 492 612 Q 476 618 441 590 Q 417 577 392 568 C 364 557 373 534 402 541 Q 406 542 411 543 Q 430 547 452 557 Q 459 563 465 558 Q 465 557 441 492 Q 431 471 443 455 Q 464 424 470 405 Q 473 395 469 390 Q 463 380 443 383 Q 418 387 394 386 C 372 386 372 386 394 375 Z" fill="black" /></g></svg>