<?xml version='1.0' encoding='utf-8'?>
<svg xmlns="http://www.w3.org/2000/svg" version="1.1" viewBox="0 0 1024 1024"><g transform="scale(1, -1) translate(0, -900)"><path d="M 391 376 Q 445 352 494 320 Q 504 311 513 320 Q 522 327 526 344 Q 536 386 484 442 Q 454 475 521 542 Q 527 549 533 552 Q 549 562 541 574 Q 529 590 496 605 Q 477 611 440 579 Q 407 564 382 558 C 353 550 374 524 403 533 Q 404 534 407 535 Q 429 539 453 550 Q 462 556 468 550 Q 472 546 466 534 Q 439 462 443 451 Q 444 447 448 442 Q 484 394 475 384 Q 468 375 447 379 Q 420 386 392 386 C 367 387 367 387 391 376 Z" fill="black" /></g></svg>