<?xml version='1.0' encoding='utf-8'?>
<svg xmlns="http://www.w3.org/2000/svg" version="1.1" viewBox="0 0 1024 1024"><g transform="scale(1, -1) translate(0, -900)"><path d="M 693 290 Q 706 269 721 262 Q 731 255 745 274 Q 755 290 781 383 Q 790 411 811 434 Q 824 444 813 458 Q 800 474 761 498 Q 746 505 667 488 Q 661 488 656 486 Q 547 465 438 446 C 408 441 434 410 463 418 Q 497 428 550 439 L 595 448 Q 707 469 725 456 Q 735 449 732 434 Q 716 344 709 330 Q 705 320 691 317 Q 687 317 687 315 C 678 311 678 311 693 290 Z" fill="black" /></g></svg>