<?xml version='1.0' encoding='utf-8'?>
<svg xmlns="http://www.w3.org/2000/svg" version="1.1" viewBox="0 0 1024 1024"><g transform="scale(1, -1) translate(0, -900)"><path d="M 565 162 Q 565 -28 574 -48 L 575 -49 Q 579 -56 586 -53 Q 593 -50 597 -38 Q 609 -8 611 166 L 611 203 Q 612 237 614 282 L 615 318 Q 616 333 617 349 Q 617 356 618 363 L 624 400 Q 625 406 627 411 Q 630 426 618 434 Q 605 443 595 448 C 569 463 535 465 550 439 Q 550 438 552 436 Q 567 412 569 386 L 569 356 Q 569 334 568 308 L 568 276 Q 567 240 566 198 L 565 162 Z" fill="black" /></g></svg>