<?xml version='1.0' encoding='utf-8'?>
<svg xmlns="http://www.w3.org/2000/svg" version="1.1" viewBox="0 0 1024 1024"><g transform="scale(1, -1) translate(0, -900)"><path d="M 584 129 Q 585 172 586 213 L 586 244 Q 587 275 588 302 L 589 331 Q 590 356 591 378 L 595 413 Q 598 426 592 433 Q 582 443 571 450 C 546 467 516 466 532 441 Q 536 435 540 428 Q 544 416 545 398 L 546 369 Q 546 353 546 321 L 546 295 Q 546 270 546 238 L 546 206 Q 546 169 546 121 C 546 91 583 99 584 129 Z" fill="black" /></g></svg>