<?xml version='1.0' encoding='utf-8'?>
<svg xmlns="http://www.w3.org/2000/svg" version="1.1" viewBox="0 0 1024 1024"><g transform="scale(1, -1) translate(0, -900)"><path d="M 421 409 Q 430 409 485 427 Q 495 431 502 427 Q 506 423 506 408 Q 512 293 508 222 Q 507 203 501 195 Q 471 195 441 197 Q 475 164 494 142 Q 503 129 514 125 Q 520 122 526 129 Q 553 162 553 217 Q 540 394 554 417 Q 561 430 553 438 Q 538 450 513 460 Q 501 464 491 461 Q 467 443 413 428 C 384 420 392 403 421 409 Z" fill="black" /></g></svg>