<?xml version='1.0' encoding='utf-8'?>
<svg xmlns="http://www.w3.org/2000/svg" version="1.1" viewBox="0 0 1024 1024"><g transform="scale(1, -1) translate(0, -900)"><path d="M 586 213 Q 682 229 800 235 Q 819 234 825 222 Q 832 215 826 202 Q 811 48 798 27 Q 794 17 779 21 Q 755 25 730 30 Q 699 34 719 13 Q 776 -45 797 -84 Q 807 -99 820 -90 Q 847 -68 865 8 Q 887 170 908 194 Q 924 215 918 223 Q 911 236 860 271 Q 841 287 825 281 Q 795 271 741 263 Q 650 254 586 244 L 546 238 Q 485 231 451 221 Q 402 211 362 204 C 332 199 340 157 370 162 Q 383 161 396 166 Q 448 187 546 206 L 586 213 Z" fill="black" /></g></svg>