<?xml version='1.0' encoding='utf-8'?>
<svg xmlns="http://www.w3.org/2000/svg" version="1.1" viewBox="0 0 1024 1024"><g transform="scale(1, -1) translate(0, -900)"><path d="M 401 508 Q 402 533 407 565 Q 410 577 402 583 Q 395 590 379 596 Q 370 599 365 596 Q 361 593 364 582 Q 373 557 372 533 Q 371 454 390 433 Q 438 397 522 419 Q 541 426 559 440 Q 571 449 563 464 Q 556 473 545 501 Q 545 511 540 513 Q 537 514 534 505 Q 510 462 487 453 Q 456 446 421 456 Q 409 462 406 469 Q 402 479 401 495 L 401 508 Z" fill="black" /></g></svg>