<?xml version='1.0' encoding='utf-8'?>
<svg xmlns="http://www.w3.org/2000/svg" version="1.1" viewBox="0 0 1024 1024"><g transform="scale(1, -1) translate(0, -900)"><path d="M 453 243 Q 453 271 454 302 L 455 333 Q 455 370 456 413 L 456 442 Q 456 457 459 508 L 464 547 Q 465 566 472 581 Q 479 593 476 604 Q 472 611 428 638 Q 409 651 393 639 Q 389 635 394 623 Q 421 584 421 534 L 421 500 Q 421 469 422 433 L 422 407 Q 421 368 421 326 L 419 228 Q 419 138 399 68 Q 390 38 411 -11 Q 415 -24 422 -27 Q 426 -31 432 -26 Q 439 -22 447 -6 Q 454 13 453 38 Q 452 63 453 222 L 453 243 Z" fill="black" /></g></svg>