<?xml version='1.0' encoding='utf-8'?>
<svg xmlns="http://www.w3.org/2000/svg" version="1.1" viewBox="0 0 1024 1024"><g transform="scale(1, -1) translate(0, -900)"><path d="M 460 287 Q 444 303 432 308 C 406 324 401 313 412 285 Q 424 258 424 234 Q 427 86 414 35 Q 410 10 397 -3 Q 385 -21 391 -39 Q 398 -67 413 -79 Q 422 -86 433 -70 Q 464 -39 563 37 Q 579 49 581 55 Q 584 65 565 58 Q 469 15 459 19 Q 453 25 457 132 L 458 152 Q 459 179 461 198 L 463 219 Q 466 246 469 262 C 471 277 471 277 460 287 Z" fill="black" /></g></svg>