<?xml version='1.0' encoding='utf-8'?>
<svg xmlns="http://www.w3.org/2000/svg" version="1.1" viewBox="0 0 1024 1024"><g transform="scale(1, -1) translate(0, -900)"><path d="M 241 237 Q 281 369 299 565 Q 302 610 309 637 C 314 660 314 660 307 665 Q 291 681 264 691 Q 246 701 234 696 Q 222 689 229 676 Q 247 649 248 592 Q 233 403 230 382 Q 229 381 229 379 L 223 345 Q 187 176 74 -2 Q 70 -9 67 -15 Q 66 -25 75 -23 Q 103 -17 178 99 Q 197 133 216 172 Q 226 197 236 225 L 241 237 Z" fill="black" /></g></svg>