<?xml version='1.0' encoding='utf-8'?>
<svg xmlns="http://www.w3.org/2000/svg" version="1.1" viewBox="0 0 1024 1024"><g transform="scale(1, -1) translate(0, -900)"><path d="M 529 249 Q 542 233 554 227 Q 561 221 573 238 Q 583 259 602 367 Q 608 391 625 411 Q 635 421 626 432 Q 613 444 579 463 Q 564 469 508 455 Q 499 454 493 451 L 466 445 Q 355 424 351 420 C 322 411 351 386 379 397 Q 392 404 443 413 L 469 418 Q 538 436 551 424 Q 561 414 560 401 Q 547 287 534 274 C 524 254 524 254 529 249 Z" fill="black" /></g></svg>