<?xml version='1.0' encoding='utf-8'?>
<svg xmlns="http://www.w3.org/2000/svg" version="1.1" viewBox="0 0 1024 1024"><g transform="scale(1, -1) translate(0, -900)"><path d="M 674 425 Q 686 398 694 399 Q 706 400 719 426 Q 728 441 729 491 Q 726 573 740 593 Q 749 606 743 614 Q 721 635 681 652 Q 669 656 650 650 Q 593 628 480 611 L 459 609 Q 452 609 445 608 C 415 606 427 581 457 583 Q 464 583 472 584 Q 566 606 634 617 Q 658 621 666 609 Q 681 591 673 461 Q 672 455 670 452 C 667 439 667 439 674 425 Z" fill="black" /></g></svg>