<?xml version='1.0' encoding='utf-8'?>
<svg xmlns="http://www.w3.org/2000/svg" version="1.1" viewBox="0 0 1024 1024"><g transform="scale(1, -1) translate(0, -900)"><path d="M 753 205 Q 753 -51 765 -71 L 767 -73 Q 771 -80 778 -77 Q 785 -74 790 -61 Q 800 -25 801 203 Q 801 209 801 213 L 801 247 Q 801 287 803 338 L 805 375 Q 806 381 807 385 Q 810 403 813 417 Q 814 433 803 441 Q 797 445 791 448 C 766 464 723 460 738 434 Q 753 419 754 359 L 754 325 Q 754 285 753 237 L 753 205 Z" fill="black" /></g></svg>