<?xml version='1.0' encoding='utf-8'?>
<svg xmlns="http://www.w3.org/2000/svg" version="1.1" viewBox="0 0 1024 1024"><g transform="scale(1, -1) translate(0, -900)"><path d="M 802 225 Q 796 206 807 189 Q 819 165 826 167 Q 838 168 850 194 Q 862 216 860 232 Q 833 406 863 455 Q 879 479 829 504 Q 817 510 804 515 Q 791 519 772 511 Q 744 496 708 485 Q 705 485 705 484 L 678 478 Q 660 477 646 473 C 617 467 632 444 662 449 Q 668 449 728 464 Q 779 479 790 472 Q 799 453 804 404 Q 808 254 802 225 Z" fill="black" /></g></svg>