<?xml version='1.0' encoding='utf-8'?>
<svg xmlns="http://www.w3.org/2000/svg" version="1.1" viewBox="0 0 1024 1024"><g transform="scale(1, -1) translate(0, -900)"><path d="M 402 124 Q 369 49 273 -8 Q 263 -12 261 -16 Q 258 -20 269 -21 Q 330 -21 405 52 Q 412 62 420 72 Q 436 97 446 135 L 453 170 Q 456 189 459 209 L 463 246 Q 464 268 465 289 L 466 317 Q 467 339 467 359 Q 467 372 468 387 L 473 412 Q 474 422 478 431 Q 482 438 475 445 Q 465 452 451 458 C 424 471 387 471 406 448 Q 427 427 427 400 L 428 379 Q 429 342 428 308 L 427 282 Q 426 258 424 235 L 420 201 Q 420 195 414 161 L 402 124 Z" fill="black" /></g></svg>