<?xml version='1.0' encoding='utf-8'?>
<svg xmlns="http://www.w3.org/2000/svg" version="1.1" viewBox="0 0 1024 1024"><g transform="scale(1, -1) translate(0, -900)"><path d="M 473 627 Q 458 582 433 550 Q 427 544 426 538 Q 425 531 441 518 Q 457 503 478 476 Q 487 463 494 464 Q 504 464 509 476 Q 513 492 509 502 Q 508 509 496 518 Q 483 524 459 531 Q 452 535 452 538 Q 452 560 514 612 Q 521 613 523 619 Q 526 629 511 646 Q 499 661 487 664 Q 474 665 470 662 Q 469 659 472 653 Q 478 643 473 627 Z" fill="black" /></g></svg>