<?xml version='1.0' encoding='utf-8'?>
<svg xmlns="http://www.w3.org/2000/svg" version="1.1" viewBox="0 0 1024 1024"><g transform="scale(1, -1) translate(0, -900)"><path d="M 379 613 Q 363 555 336 527 Q 330 520 329 514 Q 328 507 345 492 Q 361 479 384 451 Q 394 438 402 439 Q 412 439 417 452 Q 421 468 417 480 Q 411 498 364 508 Q 352 512 360 524 Q 364 533 389 562 Q 414 590 423 597 Q 430 600 432 605 Q 436 617 419 634 Q 406 649 393 653 Q 380 654 375 650 Q 374 647 377 640 Q 384 630 379 613 Z" fill="black" /></g></svg>