<?xml version='1.0' encoding='utf-8'?>
<svg xmlns="http://www.w3.org/2000/svg" version="1.1" viewBox="0 0 1024 1024"><g transform="scale(1, -1) translate(0, -900)"><path d="M 571 630 Q 558 591 530 562 Q 524 556 523 550 Q 522 543 537 530 Q 555 515 578 487 Q 587 474 595 476 Q 604 476 609 488 Q 613 504 609 514 Q 603 529 555 542 Q 543 546 551 557 Q 555 564 579 585 Q 601 606 611 611 Q 618 612 620 618 Q 624 628 611 645 Q 601 661 588 665 Q 576 668 572 665 Q 569 662 572 656 Q 576 646 571 630 Z" fill="black" /></g></svg>