<?xml version='1.0' encoding='utf-8'?>
<svg xmlns="http://www.w3.org/2000/svg" version="1.1" viewBox="0 0 1024 1024"><g transform="scale(1, -1) translate(0, -900)"><path d="M 327 245 Q 320 252 305 257 Q 295 260 289 256 Q 283 253 288 239 Q 298 209 297 181 Q 294 22 339 -9 Q 352 -16 374 -24 Q 495 -55 582 10 Q 595 22 586 39 Q 576 55 562 107 Q 561 119 556 121 Q 552 124 550 111 Q 534 56 522 38 Q 513 25 486 18 Q 423 3 369 25 Q 347 35 341 50 Q 331 71 330 133 L 332 156 Q 333 187 339 220 Q 339 221 339 223 C 341 236 341 236 327 245 Z" fill="black" /></g></svg>