<?xml version='1.0' encoding='utf-8'?>
<svg xmlns="http://www.w3.org/2000/svg" version="1.1" viewBox="0 0 1024 1024"><g transform="scale(1, -1) translate(0, -900)"><path d="M 813 187 Q 814 180 821 171 Q 834 146 842 146 Q 855 147 869 178 Q 882 202 880 220 Q 870 293 869 406 Q 868 439 886 467 Q 895 480 888 489 Q 822 538 769 509 Q 733 497 667 478 L 650 474 Q 647 474 646 473 C 617 466 630 444 659 450 Q 666 451 671 452 Q 734 474 781 486 Q 797 490 803 483 Q 816 467 818 408 Q 822 249 814 214 L 813 187 Z" fill="black" /></g></svg>