<?xml version='1.0' encoding='utf-8'?>
<svg xmlns="http://www.w3.org/2000/svg" version="1.1" viewBox="0 0 1024 1024"><g transform="scale(1, -1) translate(0, -900)"><path d="M 624 141 Q 643 175 663 222 Q 673 247 692 264 Q 710 279 698 291 Q 686 301 658 313 Q 636 320 612 308 Q 590 298 561 288 Q 531 278 482 271 Q 470 270 466 264 Q 463 257 479 251 Q 512 239 554 253 Q 590 269 596 270 Q 615 266 608 245 Q 598 197 579 160 L 559 127 Q 505 57 392 23 Q 379 19 390 11 Q 394 7 430 10 Q 526 16 597 101 L 624 141 Z" fill="black" /></g></svg>