<?xml version='1.0' encoding='utf-8'?>
<svg xmlns="http://www.w3.org/2000/svg" version="1.1" viewBox="0 0 1024 1024"><g transform="scale(1, -1) translate(0, -900)"><path d="M 528 483 Q 583 504 588 502 Q 595 499 594 486 Q 585 401 591 383 Q 595 364 613 353 Q 638 340 686 343 Q 732 346 756 360 Q 769 366 759 378 Q 746 394 729 401 Q 719 405 699 395 Q 645 367 632 394 Q 625 407 635 446 Q 639 470 663 492 Q 679 505 664 518 Q 645 536 621 546 Q 612 550 598 543 Q 592 540 514 514 C 486 504 500 472 528 483 Z" fill="black" /></g></svg>