<?xml version='1.0' encoding='utf-8'?>
<svg xmlns="http://www.w3.org/2000/svg" version="1.1" viewBox="0 0 1024 1024"><g transform="scale(1, -1) translate(0, -900)"><path d="M 295 540 Q 213 416 78 317 Q 65 305 74 303 Q 83 302 102 310 Q 196 356 274 435 Q 349 507 442 694 Q 452 715 464 724 Q 477 734 470 744 Q 461 756 427 770 Q 409 779 367 764 Q 298 749 243 747 Q 230 747 229 739 Q 228 733 242 725 Q 284 700 309 709 Q 370 728 376 727 Q 389 724 377 699 Q 346 627 314 572 L 295 540 Z" fill="black" /></g></svg>