<?xml version='1.0' encoding='utf-8'?>
<svg xmlns="http://www.w3.org/2000/svg" version="1.1" viewBox="0 0 1024 1024"><g transform="scale(1, -1) translate(0, -900)"><path d="M 579 433 Q 598 402 616 393 Q 628 384 644 407 Q 662 434 697 585 Q 707 618 732 644 Q 745 657 734 672 Q 718 691 673 719 Q 655 728 561 707 Q 533 707 388 675 Q 384 675 381 673 L 358 668 Q 342 667 328 663 C 299 657 307 620 336 628 Q 426 653 585 677 Q 619 681 631 670 Q 644 652 642 636 Q 611 480 595 463 C 581 436 579 433 579 433 Z" fill="black" /></g></svg>