<?xml version='1.0' encoding='utf-8'?>
<svg xmlns="http://www.w3.org/2000/svg" version="1.1" viewBox="0 0 1024 1024"><g transform="scale(1, -1) translate(0, -900)"><path d="M 596 126 Q 630 83 654 42 Q 664 23 676 23 Q 694 24 712 61 Q 731 103 728 154 Q 721 241 714 401 Q 713 435 731 460 Q 741 475 731 486 Q 709 508 651 534 Q 632 544 614 534 Q 547 506 403 479 L 379 475 Q 358 474 343 471 C 313 467 330 429 360 434 Q 369 434 588 477 Q 621 484 638 471 Q 666 443 649 158 Q 645 142 629 144 C 604 127 594 129 596 126 Z" fill="black" /></g></svg>