<?xml version='1.0' encoding='utf-8'?>
<svg xmlns="http://www.w3.org/2000/svg" version="1.1" viewBox="0 0 1024 1024"><g transform="scale(1, -1) translate(0, -900)"><path d="M 300 636 Q 303 727 306 740 Q 310 758 299 767 Q 287 779 244 791 Q 228 794 221 789 Q 214 783 225 764 Q 264 710 246 550 Q 242 529 237 512 Q 227 478 189 439 Q 176 429 183 406 Q 190 378 203 364 Q 213 354 228 367 Q 289 422 464 528 Q 480 537 484 546 Q 487 552 480 552 Q 467 553 317 490 Q 304 486 301 490 Q 295 493 299 608 L 300 636 Z" fill="black" /></g></svg>