<?xml version='1.0' encoding='utf-8'?>
<svg xmlns="http://www.w3.org/2000/svg" version="1.1" viewBox="0 0 1024 1024"><g transform="scale(1, -1) translate(0, -900)"><path d="M 936 488 Q 949 501 933 526 Q 915 569 907 626 Q 906 636 898 644 Q 888 648 886 626 Q 879 607 870 576 Q 858 525 818 518 Q 725 497 651 526 Q 618 538 605 579 Q 602 594 604 631 L 605 652 Q 609 758 630 788 Q 637 810 619 822 Q 591 847 554 854 Q 536 858 528 849 Q 521 840 528 831 Q 549 810 551 749 Q 551 547 593 503 Q 638 451 759 446 Q 892 440 936 488 Z" fill="black" /></g></svg>