<?xml version='1.0' encoding='utf-8'?>
<svg xmlns="http://www.w3.org/2000/svg" version="1.1" viewBox="0 0 1024 1024"><g transform="scale(1, -1) translate(0, -900)"><path d="M 272 179 Q 314 106 320 104 Q 330 104 340 126 Q 356 168 353 220 Q 347 460 355 491 Q 364 510 352 520 Q 345 530 310 547 Q 294 554 258 541 Q 227 529 191 520 Q 190 520 188 519 L 160 512 Q 144 511 129 507 C 100 501 113 470 142 478 Q 149 479 157 482 Q 268 521 288 503 Q 298 491 295 296 Q 295 229 288 214 C 281 185 266 189 272 179 Z" fill="black" /></g></svg>