<?xml version='1.0' encoding='utf-8'?>
<svg xmlns="http://www.w3.org/2000/svg" version="1.1" viewBox="0 0 1024 1024"><g transform="scale(1, -1) translate(0, -900)"><path d="M 321 185 Q 333 164 353 130 Q 362 114 371 117 Q 384 120 391 144 Q 421 217 418 314 Q 419 375 420 444 Q 423 486 441 512 Q 454 530 444 541 Q 425 559 384 574 Q 368 583 340 571 Q 306 555 264 541 Q 240 535 211 528 L 189 524 Q 185 524 185 523 C 156 517 175 486 204 493 Q 210 494 215 495 Q 345 534 354 526 Q 387 475 357 239 Q 356 217 348 215 Q 344 214 330 218 C 300 221 306 211 321 185 Z" fill="black" /></g></svg>