<?xml version='1.0' encoding='utf-8'?>
<svg xmlns="http://www.w3.org/2000/svg" version="1.1" viewBox="0 0 1024 1024"><g transform="scale(1, -1) translate(0, -900)"><path d="M 587 507 Q 602 485 617 477 Q 627 470 642 490 Q 655 512 683 631 Q 692 661 715 684 Q 728 696 717 710 Q 702 726 661 752 Q 645 759 563 742 Q 560 742 439 720 Q 433 720 426 716 L 392 710 Q 370 707 354 703 C 325 697 342 663 371 672 Q 371 673 372 673 Q 448 694 584 713 Q 612 717 623 707 Q 635 694 632 680 Q 613 568 603 550 Q 599 538 587 535 C 573 525 573 525 587 507 Z" fill="black" /></g></svg>