<?xml version='1.0' encoding='utf-8'?>
<svg xmlns="http://www.w3.org/2000/svg" version="1.1" viewBox="0 0 1024 1024"><g transform="scale(1, -1) translate(0, -900)"><path d="M 939 105 Q 924 133 905 223 Q 905 241 897 246 Q 890 250 886 230 Q 856 134 836 105 Q 820 83 770 69 Q 656 38 558 71 Q 519 87 509 111 Q 485 157 490 283 L 493 315 Q 496 376 507 442 C 511 466 511 466 496 474 Q 484 484 467 490 Q 454 494 447 489 Q 440 486 445 469 Q 458 432 456 397 Q 440 106 484 53 Q 514 23 577 4 Q 778 -44 932 61 Q 953 77 939 105 Z" fill="black" /></g></svg>