<?xml version='1.0' encoding='utf-8'?>
<svg xmlns="http://www.w3.org/2000/svg" version="1.1" viewBox="0 0 1024 1024"><g transform="scale(1, -1) translate(0, -900)"><path d="M 677 197 Q 678 201 683 207 Q 723 283 759 405 Q 769 435 787 455 Q 805 471 790 484 Q 777 496 744 504 Q 720 510 694 493 Q 619 459 510 438 C 481 432 478 416 508 413 Q 544 406 587 421 Q 663 451 679 451 Q 704 450 699 422 Q 678 299 640 236 L 618 200 Q 549 112 435 68 Q 422 62 434 56 Q 440 49 482 53 Q 567 62 649 158 L 677 197 Z" fill="black" /></g></svg>