<?xml version='1.0' encoding='utf-8'?>
<svg xmlns="http://www.w3.org/2000/svg" version="1.1" viewBox="0 0 1024 1024"><g transform="scale(1, -1) translate(0, -900)"><path d="M 175 481 Q 179 482 188 484 Q 215 491 247 500 Q 275 509 285 499 Q 295 489 295 449 Q 295 283 286 192 Q 287 179 282 174 C 275 145 264 147 268 140 Q 277 125 286 109 Q 302 85 309 88 Q 319 89 331 116 Q 344 144 342 183 Q 336 454 359 489 Q 369 507 362 518 Q 355 528 306 544 Q 284 553 266 543 Q 211 518 164 508 C 135 501 146 474 175 481 Z" fill="black" /></g></svg>