<?xml version='1.0' encoding='utf-8'?>
<svg xmlns="http://www.w3.org/2000/svg" version="1.1" viewBox="0 0 1024 1024"><g transform="scale(1, -1) translate(0, -900)"><path d="M 256 193 Q 269 171 296 129 Q 306 114 315 117 Q 328 121 334 145 Q 359 217 352 307 Q 351 364 349 429 Q 350 469 366 494 Q 379 512 368 521 Q 349 537 310 551 Q 292 558 217 521 Q 196 514 175 505 C 141 491 124 457 171 474 Q 207 487 265 508 Q 275 512 280 508 Q 313 460 295 237 Q 295 218 287 214 Q 286 213 284 213 C 266 189 250 203 256 193 Z" fill="black" /></g></svg>