<?xml version='1.0' encoding='utf-8'?>
<svg xmlns="http://www.w3.org/2000/svg" version="1.1" viewBox="0 0 1024 1024"><g transform="scale(1, -1) translate(0, -900)"><path d="M 283 245 Q 305 214 323 184 Q 330 168 341 168 Q 356 169 370 198 Q 388 232 385 274 Q 381 349 379 489 Q 378 517 392 536 Q 399 546 392 556 Q 376 572 329 593 Q 313 602 300 593 Q 254 568 202 556 L 176 549 Q 172 548 167 547 C 138 540 150 507 179 516 Q 308 555 319 547 Q 337 529 327 344 Q 326 293 321 278 Q 317 266 309 267 C 287 246 282 247 283 245 Z" fill="black" /></g></svg>