<?xml version='1.0' encoding='utf-8'?>
<svg xmlns="http://www.w3.org/2000/svg" version="1.1" viewBox="0 0 1024 1024"><g transform="scale(1, -1) translate(0, -900)"><path d="M 667 39 Q 677 14 701 -36 Q 708 -52 719 -52 Q 734 -49 743 -25 Q 770 29 785 181 Q 791 226 812 253 Q 828 272 817 284 Q 798 305 754 324 Q 738 334 706 324 Q 592 284 422 268 C 392 265 412 229 442 234 Q 446 234 453 235 Q 493 245 549 254 L 588 261 Q 631 271 686 279 Q 711 283 722 272 Q 743 239 712 71 Q 711 56 704 54 Q 701 53 692 56 C 663 49 663 49 667 39 Z" fill="black" /></g></svg>