<?xml version='1.0' encoding='utf-8'?>
<svg xmlns="http://www.w3.org/2000/svg" version="1.1" viewBox="0 0 1024 1024"><g transform="scale(1, -1) translate(0, -900)"><path d="M 237 163 Q 247 145 260 127 Q 273 105 281 108 Q 290 109 301 135 Q 313 163 310 198 Q 300 448 320 489 Q 330 505 322 514 Q 315 523 272 536 Q 250 543 235 534 Q 199 518 167 507 L 145 500 Q 141 500 141 499 C 112 490 118 466 147 475 Q 180 485 214 496 Q 242 506 254 496 Q 264 486 264 448 Q 265 289 259 202 Q 260 186 251 183 C 238 161 236 165 237 163 Z" fill="black" /></g></svg>