<?xml version='1.0' encoding='utf-8'?>
<svg xmlns="http://www.w3.org/2000/svg" version="1.1" viewBox="0 0 1024 1024"><g transform="scale(1, -1) translate(0, -900)"><path d="M 232 188 Q 245 166 258 145 Q 274 121 281 124 Q 290 125 302 150 Q 314 178 312 214 Q 306 470 327 506 Q 337 522 330 534 Q 323 544 274 559 Q 250 566 233 557 Q 193 539 158 527 L 133 520 Q 129 519 124 518 C 95 511 108 481 136 491 Q 137 492 140 493 Q 171 502 208 514 Q 241 526 253 515 Q 263 505 263 468 Q 264 314 257 228 Q 260 209 246 208 C 230 192 230 192 232 188 Z" fill="black" /></g></svg>