<?xml version='1.0' encoding='utf-8'?>
<svg xmlns="http://www.w3.org/2000/svg" version="1.1" viewBox="0 0 1024 1024"><g transform="scale(1, -1) translate(0, -900)"><path d="M 451 225 Q 461 221 494 219 Q 512 216 519 207 Q 532 189 493 89 Q 474 44 454 36 Q 441 35 417 44 Q 390 57 386 54 Q 382 47 395 38 Q 419 14 429 -17 Q 432 -30 440 -35 Q 450 -39 476 -24 Q 518 10 547 121 Q 562 176 577 191 Q 584 195 586 202 Q 587 209 569 226 Q 545 250 493 244 Q 484 245 468 246 C 438 248 422 232 451 225 Z" fill="black" /></g></svg>