<?xml version='1.0' encoding='utf-8'?>
<svg xmlns="http://www.w3.org/2000/svg" version="1.1" viewBox="0 0 1024 1024"><g transform="scale(1, -1) translate(0, -900)"><path d="M 314 198 Q 307 191 300 180 Q 263 140 167 107 Q 155 103 163 98 Q 169 94 190 98 Q 292 113 341 170 L 368 212 Q 392 255 409 320 Q 413 347 428 361 Q 440 373 425 384 Q 409 394 383 404 Q 365 408 329 388 L 288 373 Q 230 363 219 354 Q 212 350 226 342 Q 244 335 346 364 Q 362 370 363 352 Q 363 303 334 234 L 314 198 Z" fill="black" /></g></svg>