<?xml version='1.0' encoding='utf-8'?>
<svg xmlns="http://www.w3.org/2000/svg" version="1.1" viewBox="0 0 1024 1024"><g transform="scale(1, -1) translate(0, -900)"><path d="M 600 165 Q 640 226 669 320 Q 676 354 696 372 Q 712 385 694 401 Q 675 417 641 431 Q 620 438 599 428 Q 571 415 543 405 L 498 393 Q 408 381 397 374 Q 388 367 406 358 Q 431 345 470 357 Q 531 370 591 383 Q 612 389 612 366 Q 612 287 562 198 L 535 159 Q 477 86 305 34 Q 289 30 299 22 Q 306 16 335 20 Q 432 32 490 59 Q 533 81 568 122 L 600 165 Z" fill="black" /></g></svg>