<?xml version='1.0' encoding='utf-8'?>
<svg xmlns="http://www.w3.org/2000/svg" version="1.1" viewBox="0 0 1024 1024"><g transform="scale(1, -1) translate(0, -900)"><path d="M 703 172 Q 740 230 774 323 Q 787 351 806 370 Q 825 386 812 399 Q 799 412 768 423 Q 744 430 717 417 Q 695 410 669 401 L 627 390 Q 531 378 529 374 Q 525 367 543 359 Q 579 344 627 357 Q 687 376 697 376 Q 722 372 716 346 Q 698 264 667 207 L 641 171 Q 577 96 460 60 Q 447 54 458 47 Q 464 43 504 45 Q 591 52 672 133 L 703 172 Z" fill="black" /></g></svg>