<?xml version='1.0' encoding='utf-8'?>
<svg xmlns="http://www.w3.org/2000/svg" version="1.1" viewBox="0 0 1024 1024"><g transform="scale(1, -1) translate(0, -900)"><path d="M 337 344 Q 380 351 419 353 Q 444 354 437 366 Q 430 376 416 383 Q 407 386 339 372 L 292 363 Q 255 359 212 351 Q 202 350 200 351 Q 199 352 201 361 Q 229 427 273 505 L 302 556 Q 321 590 331 597 Q 343 606 330 624 Q 311 648 294 660 Q 284 667 275 666 Q 268 663 272 644 Q 275 622 248 541 L 231 497 Q 228 493 226 485 Q 175 380 143 353 Q 130 341 132 328 Q 136 312 145 302 Q 152 293 162 297 Q 198 316 291 335 L 337 344 Z" fill="black" /></g></svg>