<?xml version='1.0' encoding='utf-8'?>
<svg xmlns="http://www.w3.org/2000/svg" version="1.1" viewBox="0 0 1024 1024"><g transform="scale(1, -1) translate(0, -900)"><path d="M 593 578 Q 614 565 631 571 Q 713 593 788 601 Q 798 601 801 596 Q 807 586 806 559 Q 803 460 788 406 Q 779 373 769 362 Q 759 352 739 359 Q 720 363 702 368 Q 681 375 695 355 Q 726 313 742 281 Q 748 265 765 267 Q 778 268 795 287 Q 843 341 861 524 Q 865 567 882 591 Q 895 609 888 617 Q 875 633 846 646 Q 825 656 770 634 Q 686 610 606 598 C 576 593 565 590 593 578 Z" fill="black" /></g></svg>