<?xml version='1.0' encoding='utf-8'?>
<svg xmlns="http://www.w3.org/2000/svg" version="1.1" viewBox="0 0 1024 1024"><g transform="scale(1, -1) translate(0, -900)"><path d="M 335 198 Q 360 235 384 275 Q 406 317 422 329 Q 432 338 428 348 Q 424 358 376 378 Q 366 382 345 372 Q 320 359 261 348 C 232 342 217 330 247 327 Q 257 323 279 327 Q 342 346 347 337 Q 356 309 298 220 L 272 184 Q 265 177 257 166 Q 202 96 112 30 Q 91 18 109 19 Q 134 19 177 43 Q 223 68 273 122 Q 288 138 302 155 L 335 198 Z" fill="black" /></g></svg>