<?xml version='1.0' encoding='utf-8'?>
<svg xmlns="http://www.w3.org/2000/svg" version="1.1" viewBox="0 0 1024 1024"><g transform="scale(1, -1) translate(0, -900)"><path d="M 674 187 Q 667 180 661 171 Q 615 123 499 85 Q 486 81 495 74 Q 502 70 527 74 Q 605 84 650 108 Q 678 124 701 151 L 732 193 Q 732 194 733 194 Q 769 249 791 337 Q 798 368 815 385 Q 830 398 813 412 Q 794 427 763 438 Q 748 444 689 419 L 648 407 Q 617 401 584 396 Q 560 395 550 389 Q 543 383 558 374 Q 580 361 616 372 Q 667 382 717 393 Q 738 399 737 375 Q 737 302 698 226 L 674 187 Z" fill="black" /></g></svg>