<?xml version='1.0' encoding='utf-8'?>
<svg xmlns="http://www.w3.org/2000/svg" version="1.1" viewBox="0 0 1024 1024"><g transform="scale(1, -1) translate(0, -900)"><path d="M 254 186 Q 296 198 308 194 C 338 191 345 227 315 224 Q 284 221 260 215 L 212 204 Q 179 198 153 188 Q 144 187 148 197 Q 161 240 156 252 Q 147 265 131 278 Q 124 284 116 283 Q 109 282 111 267 Q 120 239 112 212 Q 105 187 93 177 Q 80 165 85 155 Q 92 145 104 136 Q 114 129 121 135 Q 136 153 207 172 L 254 186 Z" fill="black" /></g></svg>