<?xml version='1.0' encoding='utf-8'?>
<svg xmlns="http://www.w3.org/2000/svg" version="1.1" viewBox="0 0 1024 1024"><g transform="scale(1, -1) translate(0, -900)"><path d="M 771 145 Q 772 149 776 152 Q 812 204 834 289 Q 840 320 857 336 Q 870 349 854 363 Q 835 376 805 387 Q 787 394 733 365 L 692 351 Q 626 336 621 332 Q 614 325 630 318 Q 654 308 688 320 Q 725 330 762 342 Q 780 348 781 328 Q 781 259 738 179 L 714 144 Q 675 93 544 49 Q 531 45 539 38 Q 546 34 571 37 Q 649 47 694 70 Q 718 83 740 105 L 771 145 Z" fill="black" /></g></svg>