<?xml version='1.0' encoding='utf-8'?>
<svg xmlns="http://www.w3.org/2000/svg" version="1.1" viewBox="0 0 1024 1024"><g transform="scale(1, -1) translate(0, -900)"><path d="M 257 689 Q 261 683 274 674 Q 280 668 309 668 Q 345 683 442 705 Q 469 711 464 649 Q 457 600 437 522 Q 433 501 414 505 Q 398 506 385 507 Q 372 508 375 502 Q 376 495 397 476 Q 413 454 422 432 Q 431 422 441 425 Q 450 428 465 453 Q 481 478 496 546 Q 511 672 525 688 Q 535 695 531 707 Q 524 717 494 741 Q 481 751 425 737 Q 350 722 275 706 C 246 700 246 700 257 689 Z" fill="black" /></g></svg>