<?xml version='1.0' encoding='utf-8'?>
<svg xmlns="http://www.w3.org/2000/svg" version="1.1" viewBox="0 0 1024 1024"><g transform="scale(1, -1) translate(0, -900)"><path d="M 275 528 Q 287 537 329 540 C 359 542 368 570 338 566 Q 308 562 283 556 L 245 547 Q 220 543 199 534 Q 190 533 193 543 Q 205 583 199 597 Q 190 610 175 621 Q 168 625 161 625 Q 154 624 158 609 Q 165 582 159 558 Q 155 533 143 524 Q 130 512 135 503 Q 142 493 153 485 Q 163 479 169 485 Q 184 500 239 516 L 275 528 Z" fill="black" /></g></svg>