<?xml version='1.0' encoding='utf-8'?>
<svg xmlns="http://www.w3.org/2000/svg" version="1.1" viewBox="0 0 1024 1024"><g transform="scale(1, -1) translate(0, -900)"><path d="M 501 198 Q 562 201 619 206 Q 791 218 930 200 Q 955 196 963 206 Q 972 219 958 233 Q 927 264 880 286 Q 864 293 837 284 Q 783 274 730 266 L 672 258 Q 611 254 566 248 L 529 245 Q 469 242 438 237 L 416 235 Q 352 231 308 224 L 264 219 Q 188 212 77 212 Q 62 212 61 200 Q 60 187 80 171 Q 98 158 131 143 Q 143 139 163 147 Q 182 153 263 166 Q 369 188 501 198 Z" fill="black" /></g></svg>