<?xml version='1.0' encoding='utf-8'?>
<svg xmlns="http://www.w3.org/2000/svg" version="1.1" viewBox="0 0 1024 1024"><g transform="scale(1, -1) translate(0, -900)"><path d="M 208 345 Q 229 333 245 337 Q 336 359 402 365 Q 417 366 419 362 Q 429 344 420 302 Q 401 182 370 131 Q 357 109 337 112 Q 319 119 304 127 Q 285 137 296 115 Q 326 76 339 48 Q 358 27 376 45 Q 406 66 426 105 Q 451 150 466 288 Q 472 337 489 361 Q 499 371 494 379 Q 487 388 447 407 Q 431 414 416 404 Q 374 380 226 366 C 196 363 180 356 208 345 Z" fill="black" /></g></svg>