<?xml version='1.0' encoding='utf-8'?>
<svg xmlns="http://www.w3.org/2000/svg" version="1.1" viewBox="0 0 1024 1024"><g transform="scale(1, -1) translate(0, -900)"><path d="M 314 439 Q 311 400 330 381 Q 379 345 469 367 Q 469 368 472 368 Q 494 374 515 387 Q 528 397 519 414 Q 510 430 498 479 Q 497 489 492 493 Q 488 496 485 484 Q 466 430 454 414 Q 448 408 432 404 Q 399 395 368 406 Q 358 410 354 416 Q 351 423 351 453 L 355 487 Q 356 500 361 514 Q 365 527 357 536 Q 347 546 329 554 Q 319 557 313 554 Q 307 551 311 537 Q 320 506 317 478 Q 316 474 316 470 L 314 439 Z" fill="black" /></g></svg>