<?xml version='1.0' encoding='utf-8'?>
<svg xmlns="http://www.w3.org/2000/svg" version="1.1" viewBox="0 0 1024 1024"><g transform="scale(1, -1) translate(0, -900)"><path d="M 743 513 Q 803 531 822 531 Q 835 524 832 515 Q 832 512 812 448 Q 805 435 811 432 Q 818 431 832 441 Q 877 478 914 493 Q 945 505 944 514 Q 940 521 878 560 Q 860 572 839 568 Q 802 558 755 546 Q 748 545 745 543 L 698 532 Q 691 532 598 505 C 569 497 582 461 610 471 Q 614 472 619 474 Q 667 496 697 501 L 743 513 Z" fill="black" /></g></svg>