<?xml version='1.0' encoding='utf-8'?>
<svg xmlns="http://www.w3.org/2000/svg" version="1.1" viewBox="0 0 1024 1024"><g transform="scale(1, -1) translate(0, -900)"><path d="M 503 27 Q 558 28 613 33 Q 754 43 904 23 Q 926 20 932 28 Q 939 41 929 52 Q 901 80 861 100 Q 848 106 822 99 Q 767 90 713 82 L 653 76 Q 598 73 557 69 L 521 66 Q 502 66 486 64 Q 459 63 435 60 L 420 59 Q 359 56 318 50 L 280 47 Q 210 41 112 43 Q 99 43 97 32 Q 96 20 113 6 Q 129 -7 158 -19 Q 168 -23 186 -16 Q 204 -10 280 0 Q 380 19 503 27 Z" fill="black" /></g></svg>