<?xml version='1.0' encoding='utf-8'?>
<svg xmlns="http://www.w3.org/2000/svg" version="1.1" viewBox="0 0 1024 1024"><g transform="scale(1, -1) translate(0, -900)"><path d="M 460 519 Q 524 537 579 544 Q 597 547 600 541 Q 606 531 601 505 Q 591 435 573 403 Q 551 369 520 375 Q 502 376 486 379 Q 462 383 481 363 Q 514 332 529 308 Q 542 289 558 301 Q 609 328 648 453 Q 660 514 681 534 Q 694 546 688 556 Q 681 566 632 590 Q 613 600 595 588 Q 574 575 496 558 Q 417 539 350 535 Q 334 534 332 526 Q 331 519 352 508 Q 374 495 392 500 Q 408 506 429 510 L 460 519 Z" fill="black" /></g></svg>