<?xml version='1.0' encoding='utf-8'?>
<svg xmlns="http://www.w3.org/2000/svg" version="1.1" viewBox="0 0 1024 1024"><g transform="scale(1, -1) translate(0, -900)"><path d="M 506 27 Q 558 28 608 32 Q 743 39 879 19 Q 901 15 908 24 Q 915 36 905 48 Q 836 111 767 91 Q 749 90 732 85 L 672 78 Q 666 79 661 78 Q 612 77 573 72 L 536 69 Q 506 68 485 66 Q 469 66 454 63 L 423 62 Q 372 61 336 56 L 296 54 Q 229 48 136 51 Q 123 52 121 41 Q 120 29 137 14 Q 153 1 182 -11 Q 192 -15 210 -9 Q 226 -5 298 5 Q 391 21 506 27 Z" fill="black" /></g></svg>