<?xml version='1.0' encoding='utf-8'?>
<svg xmlns="http://www.w3.org/2000/svg" version="1.1" viewBox="0 0 1024 1024"><g transform="scale(1, -1) translate(0, -900)"><path d="M 516 56 Q 574 57 628 60 Q 758 69 927 47 Q 949 43 956 51 Q 963 64 953 76 Q 881 142 828 121 Q 767 114 709 104 L 651 101 Q 599 100 560 95 L 526 93 Q 513 93 501 92 Q 479 91 458 89 L 437 87 Q 385 86 345 82 L 305 79 Q 302 80 301 79 Q 228 72 116 75 Q 103 76 101 65 Q 100 53 117 38 Q 133 25 162 13 Q 172 9 190 15 Q 208 21 287 31 Q 389 49 516 56 Z" fill="black" /></g></svg>