<?xml version='1.0' encoding='utf-8'?>
<svg xmlns="http://www.w3.org/2000/svg" version="1.1" viewBox="0 0 1024 1024"><g transform="scale(1, -1) translate(0, -900)"><path d="M 512 22 Q 569 23 623 28 Q 779 40 917 21 Q 941 17 947 26 Q 954 39 943 51 Q 915 79 871 100 Q 858 107 831 99 Q 770 89 710 80 L 647 73 Q 583 69 539 64 L 517 62 Q 504 63 493 61 Q 471 60 450 57 L 428 55 Q 379 54 342 48 L 301 44 Q 298 45 297 44 Q 224 34 115 36 Q 102 37 100 26 Q 99 13 117 -2 Q 133 -15 164 -27 Q 174 -31 193 -24 Q 211 -18 288 -7 Q 388 12 512 22 Z" fill="black" /></g></svg>