<?xml version='1.0' encoding='utf-8'?>
<svg xmlns="http://www.w3.org/2000/svg" version="1.1" viewBox="0 0 1024 1024"><g transform="scale(1, -1) translate(0, -900)"><path d="M 503 678 Q 515 762 528 784 Q 535 797 524 809 Q 502 828 464 839 Q 440 846 431 840 Q 422 833 429 821 Q 456 775 453 668 L 451 639 Q 450 614 447 588 Q 444 554 436 517 L 428 486 Q 427 483 426 478 Q 393 376 255 302 Q 186 272 185 267 Q 186 263 197 262 Q 213 256 256 268 Q 401 301 457 447 Q 461 462 467 477 L 480 522 Q 489 562 495 608 Q 496 627 499 647 L 503 678 Z" fill="black" /></g></svg>