<?xml version='1.0' encoding='utf-8'?>
<svg xmlns="http://www.w3.org/2000/svg" version="1.1" viewBox="0 0 1024 1024"><g transform="scale(1, -1) translate(0, -900)"><path d="M 632 409 Q 702 304 810 243 Q 825 236 838 235 Q 854 239 849 262 Q 848 304 857 423 Q 858 445 851 447 Q 850 447 810 364 Q 797 331 772 338 Q 765 341 757 345 Q 700 387 661 444 L 639 481 Q 603 544 572 635 L 558 676 Q 543 721 540 781 Q 544 815 495 825 Q 465 832 450 824 Q 434 815 445 801 Q 488 774 494 746 Q 507 703 519 665 L 532 626 Q 572 509 613 442 L 632 409 Z" fill="black" /></g></svg>