<?xml version='1.0' encoding='utf-8'?>
<svg xmlns="http://www.w3.org/2000/svg" version="1.1" viewBox="0 0 1024 1024"><g transform="scale(1, -1) translate(0, -900)"><path d="M 679 78 Q 713 180 750 211 Q 772 233 743 253 Q 718 274 691 290 Q 675 303 651 294 Q 620 284 572 276 Q 487 266 390 249 Q 345 242 310 237 C 280 233 293 196 322 204 Q 359 214 390 219 L 408 223 Q 429 229 526 238 L 562 241 Q 596 247 637 249 Q 652 250 656 242 Q 666 226 658 201 Q 645 149 616 71 C 606 43 669 50 679 78 Z" fill="black" /></g></svg>