<?xml version='1.0' encoding='utf-8'?>
<svg xmlns="http://www.w3.org/2000/svg" version="1.1" viewBox="0 0 1024 1024"><g transform="scale(1, -1) translate(0, -900)"><path d="M 434 534 Q 435 375 424 359 Q 418 355 369 363 Q 353 369 353 360 Q 395 321 417 293 Q 427 277 441 273 Q 448 270 456 278 Q 492 320 490 366 Q 483 439 479 548 L 479 570 Q 473 657 487 685 Q 497 701 487 710 Q 469 725 438 737 Q 422 743 410 738 Q 376 716 322 701 C 293 692 278 658 317 672 Q 320 675 403 697 Q 416 701 424 696 Q 430 690 434 560 L 434 534 Z" fill="black" /></g></svg>