<?xml version='1.0' encoding='utf-8'?>
<svg xmlns="http://www.w3.org/2000/svg" version="1.1" viewBox="0 0 1024 1024"><g transform="scale(1, -1) translate(0, -900)"><path d="M 525 424 Q 528 461 530 495 L 533 531 Q 534 568 537 602 L 539 632 Q 539 668 543 702 L 546 739 Q 555 793 563 814 Q 566 824 546 840 Q 510 859 486 863 Q 470 867 462 858 Q 455 851 463 836 Q 487 799 487 775 Q 488 751 488 726 L 489 693 Q 489 662 490 626 L 490 597 Q 489 561 488 523 L 487 489 Q 486 455 483 417 C 481 387 523 394 525 424 Z" fill="black" /></g></svg>