<?xml version='1.0' encoding='utf-8'?>
<svg xmlns="http://www.w3.org/2000/svg" version="1.1" viewBox="0 0 1024 1024"><g transform="scale(1, -1) translate(0, -900)"><path d="M 635 237 Q 648 218 661 210 Q 670 203 684 221 Q 694 237 722 327 Q 729 355 751 376 Q 763 386 753 399 Q 740 414 703 437 Q 687 446 673 441 Q 645 434 603 426 Q 551 416 486 404 Q 441 394 405 387 C 376 381 390 350 419 359 Q 456 372 513 381 L 549 388 Q 583 395 630 402 Q 658 406 670 397 Q 680 390 677 376 Q 656 274 639 263 C 627 247 627 247 635 237 Z" fill="black" /></g></svg>