<?xml version='1.0' encoding='utf-8'?>
<svg xmlns="http://www.w3.org/2000/svg" version="1.1" viewBox="0 0 1024 1024"><g transform="scale(1, -1) translate(0, -900)"><path d="M 732 403 Q 757 434 779 480 Q 791 505 809 520 Q 827 533 816 546 Q 806 556 778 568 Q 757 575 733 565 Q 711 556 682 548 Q 652 541 603 535 Q 591 535 587 528 Q 583 522 599 515 Q 630 502 674 514 Q 708 529 716 529 Q 735 525 729 505 Q 716 459 695 427 L 675 401 Q 632 359 544 334 Q 531 331 542 323 Q 546 320 576 322 Q 615 325 659 346 Q 684 358 705 374 L 732 403 Z" fill="black" /></g></svg>