<?xml version='1.0' encoding='utf-8'?>
<svg xmlns="http://www.w3.org/2000/svg" version="1.1" viewBox="0 0 1024 1024"><g transform="scale(1, -1) translate(0, -900)"><path d="M 378 439 Q 388 423 398 405 Q 414 381 421 384 Q 428 385 439 406 Q 449 428 449 460 Q 449 676 467 705 Q 477 723 470 734 Q 463 744 414 759 Q 390 768 373 758 Q 318 731 272 720 C 243 712 257 686 286 694 Q 289 695 296 697 Q 323 704 354 715 Q 382 725 393 715 Q 411 697 398 488 Q 399 473 393 469 C 383 441 375 443 378 439 Z" fill="black" /></g></svg>