<?xml version='1.0' encoding='utf-8'?>
<svg xmlns="http://www.w3.org/2000/svg" version="1.1" viewBox="0 0 1024 1024"><g transform="scale(1, -1) translate(0, -900)"><path d="M 546 585 Q 546 598 546 611 L 546 633 Q 546 720 562 775 Q 575 799 532 817 Q 505 832 490 827 Q 477 823 488 803 Q 504 781 506 754 Q 507 735 502 443 Q 501 431 494 426 Q 487 422 431 433 Q 406 442 407 433 Q 408 427 425 416 Q 477 377 490 355 Q 506 328 518 328 Q 530 327 541 355 Q 554 391 554 449 Q 550 504 547 561 L 546 585 Z" fill="black" /></g></svg>