<?xml version='1.0' encoding='utf-8'?>
<svg xmlns="http://www.w3.org/2000/svg" version="1.1" viewBox="0 0 1024 1024"><g transform="scale(1, -1) translate(0, -900)"><path d="M 682 546 Q 692 586 703 613 L 725 660 Q 737 682 752 694 Q 770 713 754 731 Q 738 744 683 771 Q 664 778 642 770 Q 591 751 546 739 L 488 726 Q 427 716 364 710 Q 346 709 348 699 Q 351 690 370 683 Q 395 671 433 683 Q 461 689 489 693 L 543 702 Q 580 711 620 717 Q 644 723 653 713 Q 665 703 662 679 L 656 649 L 649 611 Q 642 583 634 554 C 626 525 674 517 682 546 Z" fill="black" /></g></svg>