<?xml version='1.0' encoding='utf-8'?>
<svg xmlns="http://www.w3.org/2000/svg" version="1.1" viewBox="0 0 1024 1024"><g transform="scale(1, -1) translate(0, -900)"><path d="M 293 160 Q 306 139 320 119 Q 336 94 345 96 Q 358 99 375 136 Q 391 179 386 232 Q 361 610 391 668 Q 403 687 393 699 Q 386 709 331 725 Q 306 734 286 723 Q 225 692 172 679 C 143 671 158 642 187 650 Q 211 656 266 675 Q 297 685 309 676 Q 325 661 325 600 Q 329 348 317 210 Q 321 185 298 188 C 281 179 281 179 293 160 Z" fill="black" /></g></svg>