<?xml version='1.0' encoding='utf-8'?>
<svg xmlns="http://www.w3.org/2000/svg" version="1.1" viewBox="0 0 1024 1024"><g transform="scale(1, -1) translate(0, -900)"><path d="M 329 714 Q 320 723 298 731 Q 286 737 273 732 Q 266 726 272 712 Q 275 699 281 685 Q 309 624 291 287 Q 285 239 271 184 Q 256 121 295 70 Q 308 54 320 69 Q 335 87 334 115 L 338 152 Q 339 180 340 216 Q 341 280 342 336 L 342 369 Q 343 439 345 493 L 346 525 Q 349 646 351 660 Q 352 670 352 677 C 353 698 353 698 329 714 Z" fill="black" /></g></svg>