<?xml version='1.0' encoding='utf-8'?>
<svg xmlns="http://www.w3.org/2000/svg" version="1.1" viewBox="0 0 1024 1024"><g transform="scale(1, -1) translate(0, -900)"><path d="M 278 225 Q 291 203 305 182 Q 321 157 329 160 Q 342 161 356 196 Q 365 221 366 297 Q 345 625 373 677 Q 385 696 376 706 Q 369 718 317 733 Q 292 742 274 731 Q 213 703 164 692 C 135 685 145 657 174 664 Q 204 670 255 686 Q 285 695 295 685 Q 310 672 309 617 Q 313 392 302 269 Q 305 247 287 248 C 271 236 271 236 278 225 Z" fill="black" /></g></svg>