<?xml version='1.0' encoding='utf-8'?>
<svg xmlns="http://www.w3.org/2000/svg" version="1.1" viewBox="0 0 1024 1024"><g transform="scale(1, -1) translate(0, -900)"><path d="M 597 135 Q 637 86 665 43 Q 675 22 688 23 Q 707 24 724 63 Q 743 108 739 161 Q 726 329 717 637 Q 716 674 735 699 Q 745 714 735 725 Q 713 747 653 775 Q 632 785 614 775 Q 494 727 329 714 C 299 711 322 673 352 677 Q 361 677 586 717 Q 620 723 636 710 Q 676 667 660 203 Q 657 181 656 163 Q 652 144 633 149 C 608 132 591 142 597 135 Z" fill="black" /></g></svg>