<?xml version='1.0' encoding='utf-8'?>
<svg xmlns="http://www.w3.org/2000/svg" version="1.1" viewBox="0 0 1024 1024"><g transform="scale(1, -1) translate(0, -900)"><path d="M 313 627 Q 314 623 319 617 Q 332 599 329 552 Q 326 531 302 508 Q 293 498 295 484 Q 299 472 316 460 Q 329 453 342 465 Q 466 522 713 509 Q 731 509 753 506 Q 775 505 785 516 Q 791 526 771 539 Q 714 584 652 563 Q 438 530 398 522 Q 361 510 372 543 Q 381 580 389 594 Q 398 606 391 616 Q 384 625 357 635 C 329 647 298 653 313 627 Z" fill="black" /></g></svg>