<?xml version='1.0' encoding='utf-8'?>
<svg xmlns="http://www.w3.org/2000/svg" version="1.1" viewBox="0 0 1024 1024"><g transform="scale(1, -1) translate(0, -900)"><path d="M 252 140 Q 267 118 280 95 Q 296 70 305 72 Q 318 73 335 111 Q 351 151 347 204 Q 326 567 359 627 Q 371 646 362 658 Q 355 670 300 687 Q 275 697 256 686 Q 199 661 153 650 C 124 642 136 614 165 620 Q 172 621 181 623 Q 266 647 277 637 Q 293 622 291 563 Q 292 320 278 187 Q 279 174 274 167 C 268 138 239 160 252 140 Z" fill="black" /></g></svg>