<?xml version='1.0' encoding='utf-8'?>
<svg xmlns="http://www.w3.org/2000/svg" version="1.1" viewBox="0 0 1024 1024"><g transform="scale(1, -1) translate(0, -900)"><path d="M 153 650 Q 138 665 116 672 Q 106 676 94 673 Q 87 669 93 655 Q 114 571 115 560 Q 114 557 115 553 Q 125 334 92 196 Q 77 139 113 94 Q 123 81 135 93 Q 147 109 147 130 L 151 166 Q 152 190 153 221 Q 153 261 154 297 L 154 331 Q 155 395 158 442 L 159 476 Q 162 594 164 608 Q 165 615 165 620 C 167 639 167 639 153 650 Z" fill="black" /></g></svg>