<?xml version='1.0' encoding='utf-8'?>
<svg xmlns="http://www.w3.org/2000/svg" version="1.1" viewBox="0 0 1024 1024"><g transform="scale(1, -1) translate(0, -900)"><path d="M 598 24 Q 629 -15 651 -51 Q 661 -70 672 -69 Q 690 -68 705 -32 Q 724 8 720 57 Q 710 151 702 325 Q 701 359 718 383 Q 728 396 717 407 Q 698 428 641 453 Q 622 463 605 452 Q 530 418 379 397 C 349 393 370 359 400 363 Q 415 363 590 396 Q 615 400 628 391 Q 661 361 644 59 Q 641 49 636 46 C 625 18 580 48 598 24 Z" fill="black" /></g></svg>