<?xml version='1.0' encoding='utf-8'?>
<svg xmlns="http://www.w3.org/2000/svg" version="1.1" viewBox="0 0 1024 1024"><g transform="scale(1, -1) translate(0, -900)"><path d="M 944 35 Q 963 51 941 85 Q 919 143 908 220 Q 907 230 899 240 Q 887 246 885 220 Q 858 97 852 85 Q 846 72 821 66 Q 781 56 727 59 Q 687 60 661 72 Q 622 87 611 131 Q 596 185 599 334 L 600 370 Q 603 491 614 585 L 621 636 Q 633 711 644 726 Q 653 748 633 764 Q 603 791 564 801 Q 543 805 535 796 Q 526 786 534 776 Q 549 763 556 739 Q 559 720 556 614 L 554 569 Q 551 463 548 355 L 548 315 Q 551 98 592 56 Q 601 47 615 36 Q 690 -18 862 0 Q 871 3 880 4 Q 925 17 944 35 Z" fill="black" /></g></svg>