<?xml version='1.0' encoding='utf-8'?>
<svg xmlns="http://www.w3.org/2000/svg" version="1.1" viewBox="0 0 1024 1024"><g transform="scale(1, -1) translate(0, -900)"><path d="M 742 138 Q 773 101 795 65 Q 805 46 816 47 Q 834 48 849 84 Q 868 124 863 173 Q 851 300 842 534 Q 841 567 858 589 Q 868 602 858 614 Q 839 633 783 658 Q 764 668 748 658 Q 715 642 580 609 C 551 602 568 571 598 576 Q 604 576 741 603 Q 760 607 769 599 Q 805 571 788 184 Q 787 180 787 175 Q 784 163 775 161 C 760 135 731 152 742 138 Z" fill="black" /></g></svg>