<?xml version='1.0' encoding='utf-8'?>
<svg xmlns="http://www.w3.org/2000/svg" version="1.1" viewBox="0 0 1024 1024"><g transform="scale(1, -1) translate(0, -900)"><path d="M 161 670 Q 146 685 124 692 Q 114 696 102 693 Q 95 689 101 675 Q 102 665 107 655 Q 106 652 109 649 Q 134 597 116 322 Q 112 282 100 236 Q 91 202 98 178 Q 107 151 121 134 Q 131 121 143 133 Q 153 146 155 163 L 159 196 Q 160 221 161 258 Q 161 303 162 342 L 163 371 Q 164 432 166 478 L 167 505 Q 170 616 172 628 Q 173 635 173 642 C 174 659 174 659 161 670 Z" fill="black" /></g></svg>