<?xml version='1.0' encoding='utf-8'?>
<svg xmlns="http://www.w3.org/2000/svg" version="1.1" viewBox="0 0 1024 1024"><g transform="scale(1, -1) translate(0, -900)"><path d="M 645 32 Q 673 -5 695 -42 Q 705 -61 716 -61 Q 734 -60 750 -25 Q 769 15 767 64 Q 760 155 756 325 Q 755 356 772 380 Q 782 393 772 404 Q 753 425 698 449 Q 679 459 664 449 Q 619 430 553 413 L 508 403 Q 478 399 458 394 C 429 388 446 354 475 360 Q 668 399 672 398 Q 678 397 684 392 Q 708 373 692 75 Q 691 72 691 68 Q 687 52 677 54 C 657 31 639 40 645 32 Z" fill="black" /></g></svg>