<?xml version='1.0' encoding='utf-8'?>
<svg xmlns="http://www.w3.org/2000/svg" version="1.1" viewBox="0 0 1024 1024"><g transform="scale(1, -1) translate(0, -900)"><path d="M 187 677 Q 172 692 148 700 Q 138 706 126 701 Q 119 697 125 683 Q 146 599 147 585 Q 146 582 147 578 Q 157 359 120 212 Q 105 155 141 110 Q 151 97 163 109 Q 176 125 176 147 Q 177 154 178 160 L 180 195 Q 181 214 182 239 Q 183 293 184 338 L 185 370 Q 186 430 189 475 L 190 510 Q 194 624 196 636 Q 197 643 197 648 C 199 668 199 668 187 677 Z" fill="black" /></g></svg>