<?xml version='1.0' encoding='utf-8'?>
<svg xmlns="http://www.w3.org/2000/svg" version="1.1" viewBox="0 0 1024 1024"><g transform="scale(1, -1) translate(0, -900)"><path d="M 590 370 Q 539 363 498 349 Q 480 345 486 367 Q 493 407 501 448 Q 505 470 497 485 Q 484 503 461 517 Q 451 524 441 522 Q 431 518 437 500 Q 455 449 444 401 Q 437 355 415 335 Q 397 319 404 305 Q 414 289 430 279 Q 442 273 455 280 Q 488 314 677 351 Q 761 367 779 360 Q 780 361 782 360 C 812 356 816 402 786 399 Q 705 392 636 379 L 590 370 Z" fill="black" /></g></svg>