<?xml version='1.0' encoding='utf-8'?>
<svg xmlns="http://www.w3.org/2000/svg" version="1.1" viewBox="0 0 1024 1024"><g transform="scale(1, -1) translate(0, -900)"><path d="M 269 171 Q 281 152 293 134 Q 309 109 317 112 Q 330 115 346 151 Q 361 191 356 243 Q 349 346 346 572 Q 346 630 361 661 Q 371 680 363 690 Q 356 700 303 715 Q 278 722 261 712 Q 207 684 161 670 C 133 661 145 631 173 642 Q 172 643 174 643 Q 204 653 240 667 Q 271 679 283 669 Q 299 654 298 596 Q 302 355 290 221 Q 293 202 279 200 C 265 178 265 178 269 171 Z" fill="black" /></g></svg>