<?xml version='1.0' encoding='utf-8'?>
<svg xmlns="http://www.w3.org/2000/svg" version="1.1" viewBox="0 0 1024 1024"><g transform="scale(1, -1) translate(0, -900)"><path d="M 535 336 Q 607 358 666 368 Q 685 371 690 366 Q 702 347 693 301 Q 675 172 643 117 Q 627 87 601 92 Q 570 102 543 116 Q 519 125 535 101 Q 584 55 608 18 Q 630 -6 650 15 Q 683 39 705 81 Q 730 132 747 285 Q 753 340 772 366 Q 784 379 777 389 Q 768 399 718 421 Q 697 428 679 416 Q 658 401 574 380 Q 489 355 417 348 Q 401 347 398 338 Q 397 331 420 320 Q 444 307 463 314 Q 479 320 499 325 L 535 336 Z" fill="black" /></g></svg>