<?xml version='1.0' encoding='utf-8'?>
<svg xmlns="http://www.w3.org/2000/svg" version="1.1" viewBox="0 0 1024 1024"><g transform="scale(1, -1) translate(0, -900)"><path d="M 782 360 Q 769 242 750 175 Q 732 96 716 69 Q 704 50 679 59 Q 600 77 605 82 Q 572 91 598 63 Q 638 23 670 -20 Q 689 -48 708 -38 Q 774 -7 802 110 Q 823 198 833 296 Q 848 459 872 485 Q 891 507 878 521 Q 856 543 819 558 Q 801 567 779 560 Q 736 547 704 539 Q 679 533 643 528 C 613 523 611 490 641 495 Q 663 496 753 520 Q 771 524 783 516 Q 796 506 792 462 Q 789 431 786 399 L 782 360 Z" fill="black" /></g></svg>