<?xml version='1.0' encoding='utf-8'?>
<svg xmlns="http://www.w3.org/2000/svg" version="1.1" viewBox="0 0 1024 1024"><g transform="scale(1, -1) translate(0, -900)"><path d="M 289 171 Q 301 152 313 134 Q 329 109 337 112 Q 350 115 365 151 Q 381 191 376 242 Q 369 345 366 569 Q 366 627 381 657 Q 393 676 384 687 Q 377 697 325 713 Q 300 723 283 712 Q 231 687 187 677 C 158 669 168 640 197 648 Q 206 651 268 666 Q 295 673 303 665 Q 319 650 318 593 Q 321 353 310 221 Q 313 200 298 200 C 283 181 283 181 289 171 Z" fill="black" /></g></svg>