<?xml version='1.0' encoding='utf-8'?>
<svg xmlns="http://www.w3.org/2000/svg" version="1.1" viewBox="0 0 1024 1024"><g transform="scale(1, -1) translate(0, -900)"><path d="M 301 162 Q 311 149 320 133 Q 338 109 345 112 Q 358 115 372 150 Q 387 190 382 239 Q 355 594 382 645 Q 392 664 384 675 Q 377 685 325 701 Q 300 711 283 700 Q 217 672 163 659 C 134 651 153 625 182 633 Q 185 634 190 636 Q 221 643 259 654 Q 292 664 304 653 Q 319 638 319 582 Q 326 350 317 221 Q 318 205 312 200 C 305 171 299 165 301 162 Z" fill="black" /></g></svg>