<?xml version='1.0' encoding='utf-8'?>
<svg xmlns="http://www.w3.org/2000/svg" version="1.1" viewBox="0 0 1024 1024"><g transform="scale(1, -1) translate(0, -900)"><path d="M 506 703 Q 494 713 466 728 Q 445 740 437 732 Q 430 725 437 709 Q 456 673 457 609 Q 464 383 443 174 Q 440 134 415 96 Q 405 80 414 59 Q 421 37 433 27 Q 443 20 461 32 Q 576 108 907 103 Q 934 102 935 114 Q 935 130 904 152 Q 888 167 782 148 Q 506 118 505 118 L 504 119 Q 497 120 496 138 Q 505 337 507 590 Q 507 641 513 672 C 516 696 516 696 506 703 Z" fill="black" /></g></svg>