<?xml version='1.0' encoding='utf-8'?>
<svg xmlns="http://www.w3.org/2000/svg" version="1.1" viewBox="0 0 1024 1024"><g transform="scale(1, -1) translate(0, -900)"><path d="M 297 156 Q 307 141 317 126 Q 333 101 341 104 Q 354 107 369 142 Q 384 182 380 232 Q 373 334 370 554 Q 370 612 385 641 Q 397 659 388 670 Q 381 682 330 698 Q 305 708 287 697 Q 233 673 187 663 C 158 656 172 630 201 636 Q 243 645 272 652 Q 299 658 307 649 Q 323 636 322 578 Q 325 343 314 213 Q 318 188 296 192 Q 292 193 289 191 C 275 189 280 181 297 156 Z" fill="black" /></g></svg>