<?xml version='1.0' encoding='utf-8'?>
<svg xmlns="http://www.w3.org/2000/svg" version="1.1" viewBox="0 0 1024 1024"><g transform="scale(1, -1) translate(0, -900)"><path d="M 468 312 Q 471 308 473 304 Q 494 263 494 220 Q 502 124 499 88 Q 497 53 484 45 Q 476 41 437 47 L 382 57 Q 374 57 372 51 L 372 50 Q 373 43 385 34 Q 467 -31 495 -71 Q 508 -84 518 -80 Q 526 -78 535 -66 Q 564 -27 564 41 Q 553 102 551 176 Q 551 221 563 263 Q 568 281 564 289 Q 564 292 561 295 Q 543 314 517 325 C 490 338 453 338 468 312 Z" fill="black" /></g></svg>