<?xml version='1.0' encoding='utf-8'?>
<svg xmlns="http://www.w3.org/2000/svg" version="1.1" viewBox="0 0 1024 1024"><g transform="scale(1, -1) translate(0, -900)"><path d="M 279 155 Q 292 134 305 114 Q 321 89 329 92 Q 342 93 356 128 Q 365 150 365 227 Q 346 552 373 605 Q 383 624 375 634 Q 368 644 316 659 Q 291 668 273 657 Q 216 629 167 614 C 139 605 148 578 177 586 Q 202 592 253 612 Q 284 622 295 613 Q 310 600 309 546 Q 313 323 302 201 Q 303 186 297 181 C 290 152 271 168 279 155 Z" fill="black" /></g></svg>