<?xml version='1.0' encoding='utf-8'?>
<svg xmlns="http://www.w3.org/2000/svg" version="1.1" viewBox="0 0 1024 1024"><g transform="scale(1, -1) translate(0, -900)"><path d="M 974 102 Q 949 151 929 239 Q 925 254 917 258 Q 908 262 908 242 Q 907 131 893 110 Q 872 83 776 78 Q 724 77 701 85 Q 682 94 676 107 Q 666 135 667 208 Q 673 289 688 326 Q 701 357 682 373 Q 631 412 616 408 Q 601 401 608 384 Q 627 347 623 291 Q 619 135 628 104 Q 635 73 658 57 Q 703 24 860 32 Q 932 36 960 51 Q 990 70 974 102 Z" fill="black" /></g></svg>