<?xml version='1.0' encoding='utf-8'?>
<svg xmlns="http://www.w3.org/2000/svg" version="1.1" viewBox="0 0 1024 1024"><g transform="scale(1, -1) translate(0, -900)"><path d="M 391 383 Q 410 420 427 456 L 442 492 Q 460 540 478 589 L 495 636 Q 495 637 496 637 Q 503 656 515 676 Q 527 688 523 703 Q 513 722 493 738 C 471 759 442 758 444 728 Q 450 692 434 642 Q 431 635 429 624 L 414 577 Q 398 529 380 484 L 364 447 Q 295 278 154 141 Q 118 104 82 69 Q 75 65 71 58 Q 67 48 77 47 Q 110 46 222 146 Q 252 176 283 212 Q 331 273 374 350 L 391 383 Z" fill="black" /></g></svg>