<?xml version='1.0' encoding='utf-8'?>
<svg xmlns="http://www.w3.org/2000/svg" version="1.1" viewBox="0 0 1024 1024"><g transform="scale(1, -1) translate(0, -900)"><path d="M 288 152 Q 301 127 317 106 Q 333 81 341 84 Q 354 87 370 123 Q 385 163 380 216 Q 353 585 382 637 Q 392 656 385 667 Q 378 677 326 695 Q 301 704 283 694 Q 223 669 173 659 C 144 652 151 628 181 632 Q 193 632 264 648 Q 294 655 304 645 Q 319 630 319 571 Q 323 327 313 193 Q 314 184 312 178 C 310 148 273 178 288 152 Z" fill="black" /></g></svg>