<?xml version='1.0' encoding='utf-8'?>
<svg xmlns="http://www.w3.org/2000/svg" version="1.1" viewBox="0 0 1024 1024"><g transform="scale(1, -1) translate(0, -900)"><path d="M 710 602 Q 717 587 725 579 Q 748 555 769 591 Q 778 606 806 674 Q 814 698 828 715 L 849 738 Q 856 747 847 759 Q 830 778 787 808 Q 782 809 779 811 Q 769 816 751 813 Q 678 800 639 795 Q 514 779 447 769 Q 340 753 303 749 C 273 745 286 702 315 711 Q 329 719 424 733 L 451 737 Q 505 748 573 757 L 619 762 Q 692 774 726 767 Q 758 761 754 739 Q 735 660 728 649 Q 724 639 712 635 C 698 622 698 622 710 602 Z" fill="black" /></g></svg>