<?xml version='1.0' encoding='utf-8'?>
<svg xmlns="http://www.w3.org/2000/svg" version="1.1" viewBox="0 0 1024 1024"><g transform="scale(1, -1) translate(0, -900)"><path d="M 173 659 Q 161 674 132 684 Q 122 690 110 685 Q 103 681 109 667 Q 130 583 131 568 Q 130 565 131 561 Q 141 339 104 192 Q 89 135 125 90 Q 135 77 147 89 Q 151 96 162 142 L 164 176 Q 165 195 166 220 Q 167 272 168 317 L 169 351 Q 170 412 173 458 L 174 492 Q 178 607 180 620 Q 181 627 181 632 C 183 651 183 651 173 659 Z" fill="black" /></g></svg>