<?xml version='1.0' encoding='utf-8'?>
<svg xmlns="http://www.w3.org/2000/svg" version="1.1" viewBox="0 0 1024 1024"><g transform="scale(1, -1) translate(0, -900)"><path d="M 506 183 Q 561 186 614 190 Q 758 202 901 185 Q 925 181 931 190 Q 938 203 927 216 Q 899 244 855 264 Q 840 271 815 263 Q 743 248 670 240 L 620 235 Q 532 228 484 223 Q 439 220 403 215 L 358 211 Q 319 210 292 205 Q 222 195 115 196 Q 100 197 99 185 Q 98 173 117 158 Q 133 145 164 133 Q 174 129 193 136 Q 211 142 286 153 Q 383 174 506 183 Z" fill="black" /></g></svg>