<?xml version='1.0' encoding='utf-8'?>
<svg xmlns="http://www.w3.org/2000/svg" version="1.1" viewBox="0 0 1024 1024"><g transform="scale(1, -1) translate(0, -900)"><path d="M 908 514 Q 898 535 880 596 Q 879 609 873 614 Q 867 615 864 601 Q 843 534 829 513 Q 817 498 780 488 Q 695 466 624 495 Q 596 508 588 525 Q 567 570 590 705 C 594 729 594 729 580 738 Q 570 748 551 754 Q 539 758 532 753 Q 526 750 531 734 Q 543 698 541 665 Q 534 505 566 471 Q 584 453 632 438 Q 785 402 904 480 Q 919 493 908 514 Z" fill="black" /></g></svg>