<?xml version='1.0' encoding='utf-8'?>
<svg xmlns="http://www.w3.org/2000/svg" version="1.1" viewBox="0 0 1024 1024"><g transform="scale(1, -1) translate(0, -900)"><path d="M 600 32 Q 627 -4 647 -39 Q 657 -58 668 -57 Q 686 -56 702 -21 Q 721 19 718 68 Q 711 144 704 285 Q 704 316 721 339 Q 731 352 721 362 Q 702 383 650 408 Q 631 418 616 409 Q 544 378 390 356 C 360 352 373 320 403 324 Q 436 327 592 358 Q 620 362 633 353 Q 660 332 642 72 Q 638 56 625 58 C 601 40 597 36 600 32 Z" fill="black" /></g></svg>