<?xml version='1.0' encoding='utf-8'?>
<svg xmlns="http://www.w3.org/2000/svg" version="1.1" viewBox="0 0 1024 1024"><g transform="scale(1, -1) translate(0, -900)"><path d="M 484 729 Q 463 747 444 755 Q 425 762 416 756 Q 406 749 415 734 Q 481 599 432 195 Q 426 155 395 112 Q 383 96 392 73 Q 404 45 418 35 Q 431 28 444 45 Q 457 76 599 213 Q 617 228 621 238 Q 624 248 614 248 Q 605 247 491 174 Q 484 168 482 175 Q 489 289 492 388 L 492 401 Q 493 486 492 561 L 491 591 Q 491 594 491 595 Q 491 652 498 699 C 500 717 500 717 484 729 Z" fill="black" /></g></svg>