<?xml version='1.0' encoding='utf-8'?>
<svg xmlns="http://www.w3.org/2000/svg" version="1.1" viewBox="0 0 1024 1024"><g transform="scale(1, -1) translate(0, -900)"><path d="M 644 393 Q 692 215 795 111 Q 861 45 914 30 Q 941 29 940 63 Q 933 94 946 229 Q 947 242 942 246 Q 936 247 930 233 Q 914 205 899 178 Q 880 144 866 146 Q 848 147 815 180 Q 781 213 750 264 Q 705 342 689 404 L 681 446 Q 675 501 687 536 Q 694 557 640 590 C 615 607 582 608 597 582 Q 597 581 598 579 Q 620 551 625 504 Q 629 467 636 432 L 644 393 Z" fill="black" /></g></svg>