<?xml version='1.0' encoding='utf-8'?>
<svg xmlns="http://www.w3.org/2000/svg" version="1.1" viewBox="0 0 1024 1024"><g transform="scale(1, -1) translate(0, -900)"><path d="M 590 705 Q 591 706 596 707 Q 669 732 722 743 Q 734 744 737 742 Q 741 735 740 714 Q 736 659 724 634 Q 708 607 684 613 Q 659 622 637 632 Q 616 641 630 619 Q 670 577 688 546 Q 700 531 713 542 Q 758 566 790 693 Q 797 724 810 739 Q 820 749 815 758 Q 808 768 764 786 Q 748 793 731 783 Q 707 765 580 738 C 551 732 562 695 590 705 Z" fill="black" /></g></svg>