<?xml version='1.0' encoding='utf-8'?>
<svg xmlns="http://www.w3.org/2000/svg" version="1.1" viewBox="0 0 1024 1024"><g transform="scale(1, -1) translate(0, -900)"><path d="M 166 694 Q 156 704 133 712 Q 123 716 112 713 Q 105 707 111 695 Q 114 683 119 671 Q 149 611 131 325 Q 127 285 116 235 Q 103 180 137 137 Q 147 124 158 137 Q 171 155 172 189 L 174 219 Q 174 231 175 365 L 175 393 Q 176 456 177 502 L 177 532 Q 178 638 180 651 Q 181 660 181 666 C 182 683 182 683 166 694 Z" fill="black" /></g></svg>