<?xml version='1.0' encoding='utf-8'?>
<svg xmlns="http://www.w3.org/2000/svg" version="1.1" viewBox="0 0 1024 1024"><g transform="scale(1, -1) translate(0, -900)"><path d="M 303 196 Q 313 178 326 160 Q 342 138 349 140 Q 361 143 375 176 Q 388 213 384 261 Q 377 357 371 565 Q 370 619 384 647 Q 394 665 386 675 Q 379 685 330 700 Q 306 707 289 698 Q 234 673 185 660 C 156 652 165 626 194 633 Q 299 660 305 657 Q 306 657 310 654 Q 323 641 324 587 Q 331 365 322 244 Q 325 225 310 223 C 296 207 296 207 303 196 Z" fill="black" /></g></svg>