<?xml version='1.0' encoding='utf-8'?>
<svg xmlns="http://www.w3.org/2000/svg" version="1.1" viewBox="0 0 1024 1024"><g transform="scale(1, -1) translate(0, -900)"><path d="M 289 140 Q 301 122 312 105 Q 330 81 337 84 Q 350 87 366 125 Q 382 167 376 220 Q 345 596 374 653 Q 384 672 376 683 Q 369 693 317 710 Q 292 719 275 708 Q 220 683 174 673 C 145 666 161 637 190 645 Q 193 646 257 662 Q 285 669 296 661 Q 312 645 312 584 Q 319 331 309 193 Q 312 174 299 171 C 285 146 285 146 289 140 Z" fill="black" /></g></svg>