<?xml version='1.0' encoding='utf-8'?>
<svg xmlns="http://www.w3.org/2000/svg" version="1.1" viewBox="0 0 1024 1024"><g transform="scale(1, -1) translate(0, -900)"><path d="M 280 155 L 306 114 Q 321 89 330 92 Q 343 94 357 128 Q 367 152 367 227 Q 347 555 374 608 Q 384 626 376 636 Q 368 647 318 662 Q 296 668 278 662 L 223 636 Q 198 625 168 615 C 140 605 148 580 177 588 Q 196 592 245 612 Q 280 624 292 617 L 296 615 Q 312 603 310 548 Q 314 318 303 202 Q 304 187 298 182 C 291 153 272 168 280 155 Z" fill="black" /></g></svg>