<?xml version='1.0' encoding='utf-8'?>
<svg xmlns="http://www.w3.org/2000/svg" version="1.1" viewBox="0 0 1024 1024"><g transform="scale(1, -1) translate(0, -900)"><path d="M 724 455 Q 731 645 750 713 Q 757 732 730 754 Q 708 769 687 780 Q 671 792 654 782 Q 644 776 662 750 Q 686 716 686 623 Q 685 539 676 373 Q 661 172 707 109 Q 738 64 850 66 Q 899 66 935 80 Q 968 90 957 115 Q 935 173 925 276 Q 924 292 917 300 Q 910 307 905 292 Q 895 231 883 185 Q 879 154 852 134 Q 834 122 778 129 Q 745 135 737 154 Q 716 199 723 427 L 724 455 Z" fill="black" /></g></svg>