<?xml version='1.0' encoding='utf-8'?>
<svg xmlns="http://www.w3.org/2000/svg" version="1.1" viewBox="0 0 1024 1024"><g transform="scale(1, -1) translate(0, -900)"><path d="M 277 169 Q 290 150 302 129 Q 318 105 325 108 Q 337 109 352 144 Q 361 166 361 244 Q 342 571 368 622 Q 378 640 370 650 Q 363 660 315 676 Q 291 685 274 675 Q 222 653 181 643 C 152 635 160 610 189 616 Q 283 637 291 632 Q 292 632 294 630 Q 307 617 307 562 Q 310 336 300 212 Q 300 205 299 200 C 297 170 261 194 277 169 Z" fill="black" /></g></svg>