<?xml version='1.0' encoding='utf-8'?>
<svg xmlns="http://www.w3.org/2000/svg" version="1.1" viewBox="0 0 1024 1024"><g transform="scale(1, -1) translate(0, -900)"><path d="M 631 550 Q 645 636 655 735 Q 666 776 664 786 Q 662 796 650 803 Q 601 833 583 831 Q 562 829 577 804 Q 596 761 594 709 Q 594 650 576 538 L 568 490 Q 524 274 422 151 Q 406 135 391 122 Q 322 66 321 63 Q 318 55 328 55 L 331 55 Q 349 53 372 67 Q 457 116 479 145 Q 578 270 604 417 Q 615 464 619 486 L 631 550 Z" fill="black" /></g></svg>