<?xml version='1.0' encoding='utf-8'?>
<svg xmlns="http://www.w3.org/2000/svg" version="1.1" viewBox="0 0 1024 1024"><g transform="scale(1, -1) translate(0, -900)"><path d="M 181 643 Q 168 659 140 668 Q 130 672 118 669 Q 111 663 117 651 Q 136 570 138 562 Q 137 561 138 556 Q 150 349 119 224 Q 104 169 141 122 Q 151 109 163 121 Q 175 137 175 159 L 179 188 Q 180 212 180 243 Q 180 285 181 321 L 181 352 Q 182 413 183 457 L 184 487 Q 185 593 188 604 Q 189 611 189 616 C 191 634 191 634 181 643 Z" fill="black" /></g></svg>