<?xml version='1.0' encoding='utf-8'?>
<svg xmlns="http://www.w3.org/2000/svg" version="1.1" viewBox="0 0 1024 1024"><g transform="scale(1, -1) translate(0, -900)"><path d="M 618 362 Q 651 340 728 363 Q 750 367 760 360 Q 766 354 740 303 Q 715 245 668 191 Q 601 106 514 48 Q 436 -3 343 -36 Q 333 -39 334 -44 Q 334 -48 342 -49 Q 483 -53 639 88 Q 652 101 666 114 Q 733 181 805 295 Q 824 320 852 336 Q 868 342 869 351 Q 870 364 843 384 Q 810 409 796 412 Q 784 412 773 405 Q 671 384 643 383 Q 639 384 635 383 C 605 381 590 373 618 362 Z" fill="black" /></g></svg>