<?xml version='1.0' encoding='utf-8'?>
<svg xmlns="http://www.w3.org/2000/svg" version="1.1" viewBox="0 0 1024 1024"><g transform="scale(1, -1) translate(0, -900)"><path d="M 272 152 Q 285 133 298 113 Q 314 89 321 92 Q 334 95 350 133 Q 366 175 360 228 Q 351 336 345 570 Q 344 631 360 663 Q 370 679 362 691 Q 355 701 306 716 Q 282 723 266 714 Q 217 690 176 680 C 147 672 159 646 188 653 Q 192 654 200 656 Q 224 662 252 671 Q 277 678 286 670 Q 302 654 302 592 Q 306 336 295 196 Q 296 184 292 178 C 288 148 259 172 272 152 Z" fill="black" /></g></svg>