<?xml version='1.0' encoding='utf-8'?>
<svg xmlns="http://www.w3.org/2000/svg" version="1.1" viewBox="0 0 1024 1024"><g transform="scale(1, -1) translate(0, -900)"><path d="M 279 227 Q 291 208 303 188 Q 318 166 325 168 Q 338 169 353 205 Q 368 244 364 293 Q 349 650 374 695 Q 384 711 376 722 Q 369 732 323 746 Q 301 753 284 744 Q 235 722 190 710 C 161 702 165 673 194 682 L 263 704 Q 293 713 303 704 Q 318 689 317 632 Q 316 397 302 267 Q 303 254 297 249 C 290 220 270 241 279 227 Z" fill="black" /></g></svg>