<?xml version='1.0' encoding='utf-8'?>
<svg xmlns="http://www.w3.org/2000/svg" version="1.1" viewBox="0 0 1024 1024"><g transform="scale(1, -1) translate(0, -900)"><path d="M 530 19 Q 557 -15 577 -48 Q 586 -66 597 -65 Q 612 -64 627 -32 Q 643 5 640 49 Q 633 125 626 266 Q 625 296 641 317 Q 650 330 641 339 Q 623 358 572 381 Q 556 391 540 381 Q 501 363 383 340 C 354 334 364 305 394 308 Q 409 308 535 329 Q 551 332 560 326 Q 575 314 575 90 Q 574 65 572 51 Q 568 35 557 39 C 532 22 529 20 530 19 Z" fill="black" /></g></svg>