<?xml version='1.0' encoding='utf-8'?>
<svg xmlns="http://www.w3.org/2000/svg" version="1.1" viewBox="0 0 1024 1024"><g transform="scale(1, -1) translate(0, -900)"><path d="M 261 195 Q 270 182 279 168 Q 294 146 301 148 Q 314 151 328 185 Q 341 224 337 273 Q 310 621 338 672 Q 348 688 340 699 Q 333 709 287 722 Q 265 729 248 720 Q 200 698 158 686 C 129 677 139 651 168 660 Q 167 661 169 661 Q 197 668 229 679 Q 257 688 268 679 Q 283 664 283 608 Q 287 374 276 246 Q 277 236 274 230 C 271 200 253 206 261 195 Z" fill="black" /></g></svg>