<?xml version='1.0' encoding='utf-8'?>
<svg xmlns="http://www.w3.org/2000/svg" version="1.1" viewBox="0 0 1024 1024"><g transform="scale(1, -1) translate(0, -900)"><path d="M 601 416 Q 601 500 614 504 C 617 511 617 511 599 525 Q 577 544 557 555 Q 539 562 531 556 Q 521 550 529 535 Q 574 433 541 140 Q 541 91 505 40 Q 484 10 526 -33 L 528 -34 Q 541 -41 553 -24 Q 563 7 686 145 Q 702 161 705 170 Q 708 180 698 179 Q 689 178 588 102 Q 589 98 586 100 Q 599 254 601 378 L 601 416 Z" fill="black" /></g></svg>