<?xml version='1.0' encoding='utf-8'?>
<svg xmlns="http://www.w3.org/2000/svg" version="1.1" viewBox="0 0 1024 1024"><g transform="scale(1, -1) translate(0, -900)"><path d="M 156 660 Q 144 672 121 680 Q 111 684 100 681 Q 93 677 99 664 Q 118 583 120 572 Q 119 571 120 566 Q 135 359 100 224 Q 88 169 122 125 Q 132 112 143 125 Q 156 141 155 162 L 158 193 Q 159 217 159 248 Q 159 291 160 330 L 160 366 Q 161 427 163 471 L 163 505 Q 166 608 168 619 Q 169 628 169 634 C 170 649 170 649 156 660 Z" fill="black" /></g></svg>