<?xml version='1.0' encoding='utf-8'?>
<svg xmlns="http://www.w3.org/2000/svg" version="1.1" viewBox="0 0 1024 1024"><g transform="scale(1, -1) translate(0, -900)"><path d="M 566 550 Q 512 540 459 532 Q 443 531 445 521 Q 448 514 466 507 Q 491 497 526 509 Q 535 512 547 513 L 583 521 Q 641 534 704 548 Q 726 554 736 544 Q 752 529 739 458 L 731 417 Q 722 383 714 352 C 706 323 754 322 760 351 Q 767 391 776 420 L 792 468 Q 798 498 831 529 Q 847 548 832 565 Q 816 578 763 601 Q 745 608 724 599 Q 666 574 611 560 Q 601 559 591 555 L 566 550 Z" fill="black" /></g></svg>