<?xml version='1.0' encoding='utf-8'?>
<svg xmlns="http://www.w3.org/2000/svg" version="1.1" viewBox="0 0 1024 1024"><g transform="scale(1, -1) translate(0, -900)"><path d="M 398 333 Q 420 370 441 416 L 456 452 Q 469 483 482 518 Q 483 522 484 524 L 502 564 Q 509 580 518 596 Q 525 605 520 615 Q 516 624 494 635 C 469 651 443 658 444 628 Q 447 594 442 555 L 434 517 Q 430 498 422 475 Q 416 462 411 447 L 393 410 Q 305 242 79 65 Q 72 58 79 55 Q 86 52 96 57 Q 277 141 373 291 L 398 333 Z" fill="black" /></g></svg>