<?xml version='1.0' encoding='utf-8'?>
<svg xmlns="http://www.w3.org/2000/svg" version="1.1" viewBox="0 0 1024 1024"><g transform="scale(1, -1) translate(0, -900)"><path d="M 673 408 Q 673 439 675 469 L 676 493 Q 688 712 712 747 Q 721 768 702 782 Q 675 806 639 815 Q 620 819 612 810 Q 605 801 611 792 Q 626 780 632 759 Q 636 732 632 571 Q 617 250 641 156 Q 650 114 685 88 Q 748 43 886 60 Q 892 63 900 64 Q 937 74 952 89 Q 968 102 955 130 Q 942 178 940 240 Q 941 250 934 259 Q 925 266 919 244 Q 909 222 894 183 Q 873 128 845 119 Q 776 100 724 123 Q 700 132 686 167 Q 671 213 672 382 L 673 408 Z" fill="black" /></g></svg>