<?xml version='1.0' encoding='utf-8'?>
<svg xmlns="http://www.w3.org/2000/svg" version="1.1" viewBox="0 0 1024 1024"><g transform="scale(1, -1) translate(0, -900)"><path d="M 515 747 Q 493 766 471 775 Q 452 782 442 776 Q 430 769 441 753 Q 505 627 465 185 Q 464 131 423 77 Q 411 59 420 36 Q 433 8 447 -5 Q 462 -12 474 6 Q 487 37 633 172 Q 652 188 656 198 Q 660 208 650 208 Q 638 208 526 139 Q 517 132 515 142 Q 524 316 524 461 L 524 513 Q 523 559 522 601 L 521 626 Q 518 708 529 719 C 533 734 533 734 515 747 Z" fill="black" /></g></svg>