<?xml version='1.0' encoding='utf-8'?>
<svg xmlns="http://www.w3.org/2000/svg" version="1.1" viewBox="0 0 1024 1024"><g transform="scale(1, -1) translate(0, -900)"><path d="M 343 297 Q 328 606 352 646 Q 362 664 354 674 Q 347 684 298 699 Q 274 708 257 698 Q 202 671 156 660 C 127 652 140 626 169 634 Q 203 643 239 654 Q 267 664 278 654 Q 293 639 292 583 Q 295 346 283 216 Q 284 200 274 196 C 262 171 254 181 258 176 Q 273 154 286 133 Q 302 109 309 112 Q 322 115 337 150 Q 352 189 345 270 L 343 297 Z" fill="black" /></g></svg>