<?xml version='1.0' encoding='utf-8'?>
<svg xmlns="http://www.w3.org/2000/svg" version="1.1" viewBox="0 0 1024 1024"><g transform="scale(1, -1) translate(0, -900)"><path d="M 273 210 Q 286 188 301 166 Q 317 141 325 144 Q 338 145 353 181 Q 368 220 363 270 Q 342 621 369 673 Q 381 692 372 702 Q 365 714 313 729 Q 288 738 270 727 Q 216 702 170 690 C 141 682 153 652 182 661 Q 186 664 194 665 Q 221 672 253 682 Q 281 691 291 681 Q 306 668 306 611 Q 309 380 298 253 Q 299 246 298 241 C 297 211 257 236 273 210 Z" fill="black" /></g></svg>