<?xml version='1.0' encoding='utf-8'?>
<svg xmlns="http://www.w3.org/2000/svg" version="1.1" viewBox="0 0 1024 1024"><g transform="scale(1, -1) translate(0, -900)"><path d="M 175 708 Q 162 721 140 728 Q 130 732 118 729 Q 111 725 117 711 Q 138 627 139 616 Q 138 613 139 609 Q 149 390 116 252 Q 101 195 137 150 Q 147 137 159 149 Q 166 159 169 170 L 174 204 Q 177 241 178 376 L 179 410 Q 180 473 182 519 L 183 553 Q 186 652 188 664 Q 189 674 189 682 C 190 697 190 697 175 708 Z" fill="black" /></g></svg>