<?xml version='1.0' encoding='utf-8'?>
<svg xmlns="http://www.w3.org/2000/svg" version="1.1" viewBox="0 0 1024 1024"><g transform="scale(1, -1) translate(0, -900)"><path d="M 262 216 Q 263 212 294 165 Q 310 141 317 144 Q 330 145 344 181 Q 353 203 353 281 Q 334 611 360 662 Q 370 680 363 690 Q 356 700 307 717 Q 285 726 267 717 Q 221 698 183 688 C 154 680 159 656 189 660 Q 196 661 204 662 Q 226 666 254 673 Q 278 679 286 670 Q 299 657 300 601 Q 301 373 291 248 Q 292 238 289 232 C 286 202 247 242 262 216 Z" fill="black" /></g></svg>