<?xml version='1.0' encoding='utf-8'?>
<svg xmlns="http://www.w3.org/2000/svg" version="1.1" viewBox="0 0 1024 1024"><g transform="scale(1, -1) translate(0, -900)"><path d="M 547 513 Q 562 498 577 431 L 581 399 Q 585 362 589 321 L 590 284 Q 590 283 591 281 Q 597 110 564 54 Q 561 47 554 45 Q 544 42 461 63 Q 452 64 450 61 Q 449 57 457 48 Q 515 -7 546 -48 Q 556 -61 564 -60 Q 576 -59 597 -38 Q 646 8 647 145 Q 644 269 640 292 L 637 332 Q 633 384 631 407 L 627 438 Q 626 460 625 478 Q 625 497 613 505 Q 597 515 583 521 C 556 534 531 539 547 513 Z" fill="black" /></g></svg>