<?xml version='1.0' encoding='utf-8'?>
<svg xmlns="http://www.w3.org/2000/svg" version="1.1" viewBox="0 0 1024 1024"><g transform="scale(1, -1) translate(0, -900)"><path d="M 681 599 Q 694 577 708 569 Q 718 560 736 581 Q 746 594 777 672 Q 789 703 814 729 Q 829 741 818 756 Q 802 775 759 804 Q 740 816 723 810 Q 677 800 611 792 Q 529 782 423 767 Q 344 754 276 746 C 246 742 259 701 288 709 Q 303 716 397 731 L 424 735 Q 479 745 546 754 L 592 760 Q 694 776 720 756 Q 727 749 725 737 Q 707 658 700 646 Q 696 637 684 633 C 667 619 667 619 681 599 Z" fill="black" /></g></svg>