<?xml version='1.0' encoding='utf-8'?>
<svg xmlns="http://www.w3.org/2000/svg" version="1.1" viewBox="0 0 1024 1024"><g transform="scale(1, -1) translate(0, -900)"><path d="M 170 690 Q 155 705 132 712 Q 122 716 111 712 Q 104 708 109 694 Q 130 621 131 610 Q 131 604 132 597 Q 144 383 114 255 Q 101 198 137 153 Q 147 140 159 153 Q 172 169 172 192 Q 172 196 173 199 L 175 227 Q 175 294 175 363 L 175 395 Q 176 459 177 507 L 178 542 Q 179 636 181 648 Q 182 655 182 661 C 184 679 184 679 170 690 Z" fill="black" /></g></svg>