<?xml version='1.0' encoding='utf-8'?>
<svg xmlns="http://www.w3.org/2000/svg" version="1.1" viewBox="0 0 1024 1024"><g transform="scale(1, -1) translate(0, -900)"><path d="M 171 705 Q 164 715 133 729 Q 123 733 112 729 Q 105 725 110 712 Q 131 655 132 606 Q 142 381 106 236 Q 91 182 126 138 Q 136 125 147 136 Q 157 151 159 169 L 163 201 Q 164 229 165 267 Q 166 316 167 359 L 168 385 Q 169 458 172 511 L 173 542 Q 177 654 179 666 Q 180 673 180 678 C 182 696 182 696 171 705 Z" fill="black" /></g></svg>