<?xml version='1.0' encoding='utf-8'?>
<svg xmlns="http://www.w3.org/2000/svg" version="1.1" viewBox="0 0 1024 1024"><g transform="scale(1, -1) translate(0, -900)"><path d="M 265 184 Q 275 168 286 153 Q 302 129 309 132 Q 322 135 337 172 Q 353 212 347 265 Q 320 634 348 687 Q 358 703 350 715 Q 343 725 294 740 Q 270 747 253 738 Q 207 716 171 705 C 143 695 151 671 180 678 Q 184 679 192 681 Q 214 685 241 694 Q 265 701 274 694 Q 290 679 289 619 Q 293 372 283 236 Q 286 215 270 215 C 255 199 255 199 265 184 Z" fill="black" /></g></svg>