<?xml version='1.0' encoding='utf-8'?>
<svg xmlns="http://www.w3.org/2000/svg" version="1.1" viewBox="0 0 1024 1024"><g transform="scale(1, -1) translate(0, -900)"><path d="M 180 672 Q 168 687 140 696 Q 130 700 119 696 Q 112 692 117 679 Q 120 667 125 656 Q 155 601 137 328 Q 133 291 122 243 Q 109 186 145 141 Q 155 128 167 141 Q 180 157 180 180 Q 180 187 181 196 L 182 225 Q 182 237 183 352 L 183 380 Q 184 441 185 485 L 186 514 Q 187 620 189 632 Q 190 639 190 645 C 191 662 191 662 180 672 Z" fill="black" /></g></svg>