<?xml version='1.0' encoding='utf-8'?>
<svg xmlns="http://www.w3.org/2000/svg" version="1.1" viewBox="0 0 1024 1024"><g transform="scale(1, -1) translate(0, -900)"><path d="M 732 642 Q 641 633 540 614 Q 530 611 527 614 Q 526 618 530 627 Q 627 759 648 781 Q 660 791 654 803 Q 647 815 600 838 Q 584 845 574 841 Q 562 835 568 815 Q 586 760 497 650 Q 475 626 440 602 Q 425 590 429 579 Q 435 563 459 542 Q 469 532 483 543 Q 523 574 729 615 Q 741 618 750 622 C 778 632 762 645 732 642 Z" fill="black" /></g></svg>