<?xml version='1.0' encoding='utf-8'?>
<svg xmlns="http://www.w3.org/2000/svg" version="1.1" viewBox="0 0 1024 1024"><g transform="scale(1, -1) translate(0, -900)"><path d="M 293 179 Q 306 157 321 134 Q 337 109 345 112 Q 358 113 373 149 Q 388 188 384 238 Q 363 584 393 641 Q 403 659 395 670 Q 388 680 336 696 Q 311 705 294 694 Q 242 669 198 657 C 169 648 184 622 213 629 Q 232 632 281 649 Q 306 658 315 650 Q 330 635 329 580 Q 330 348 319 221 Q 320 203 312 200 C 302 172 286 191 293 179 Z" fill="black" /></g></svg>