<?xml version='1.0' encoding='utf-8'?>
<svg xmlns="http://www.w3.org/2000/svg" version="1.1" viewBox="0 0 1024 1024"><g transform="scale(1, -1) translate(0, -900)"><path d="M 776 118 Q 807 78 831 41 Q 841 22 852 23 Q 870 24 886 60 Q 904 100 900 149 Q 890 288 882 545 Q 881 579 897 604 Q 907 617 897 629 Q 875 650 818 674 Q 799 684 781 674 Q 720 646 622 627 Q 519 608 477 607 C 447 605 470 566 500 570 Q 515 570 754 617 Q 790 624 808 611 Q 841 578 831 264 Q 832 177 824 151 Q 820 130 800 140 L 799 140 C 771 131 767 130 776 118 Z" fill="black" /></g></svg>