<?xml version='1.0' encoding='utf-8'?>
<svg xmlns="http://www.w3.org/2000/svg" version="1.1" viewBox="0 0 1024 1024"><g transform="scale(1, -1) translate(0, -900)"><path d="M 169 607 Q 160 622 128 632 Q 118 636 107 632 Q 100 628 105 615 Q 108 603 113 592 Q 143 537 125 264 Q 121 227 110 179 Q 97 122 133 77 Q 143 64 155 77 Q 168 93 168 116 Q 168 123 169 132 L 170 160 Q 170 172 171 288 L 171 315 Q 172 376 173 421 L 174 449 Q 175 557 177 568 Q 178 575 178 581 C 179 597 179 597 169 607 Z" fill="black" /></g></svg>