<?xml version='1.0' encoding='utf-8'?>
<svg xmlns="http://www.w3.org/2000/svg" version="1.1" viewBox="0 0 1024 1024"><g transform="scale(1, -1) translate(0, -900)"><path d="M 602 305 Q 602 172 578 80 Q 569 37 595 -22 Q 602 -40 610 -43 Q 617 -50 624 -42 Q 648 -20 649 65 Q 648 131 647 339 L 647 427 Q 647 634 649 658 L 655 710 Q 658 731 664 748 Q 673 764 669 777 Q 662 787 606 821 Q 582 837 561 821 Q 557 817 563 801 Q 599 750 599 694 L 600 647 Q 603 548 603 419 L 602 305 Z" fill="black" /></g></svg>