<?xml version='1.0' encoding='utf-8'?>
<svg xmlns="http://www.w3.org/2000/svg" version="1.1" viewBox="0 0 1024 1024"><g transform="scale(1, -1) translate(0, -900)"><path d="M 286 207 Q 298 188 310 169 Q 326 145 333 148 Q 345 149 359 183 Q 368 205 368 281 Q 349 599 376 650 Q 386 668 379 678 Q 372 688 323 705 Q 299 714 282 704 Q 224 680 178 671 C 149 664 157 638 186 644 Q 190 645 200 647 Q 228 651 262 661 Q 292 668 302 658 Q 315 645 315 592 Q 318 372 308 252 Q 309 236 302 232 C 293 203 280 216 286 207 Z" fill="black" /></g></svg>