<?xml version='1.0' encoding='utf-8'?>
<svg xmlns="http://www.w3.org/2000/svg" version="1.1" viewBox="0 0 1024 1024"><g transform="scale(1, -1) translate(0, -900)"><path d="M 251 168 Q 261 150 274 133 Q 290 109 297 112 Q 310 115 325 150 Q 340 190 334 241 Q 327 343 322 564 Q 321 621 336 651 Q 346 669 337 679 Q 330 689 280 701 Q 256 708 240 698 Q 194 673 153 660 C 125 650 137 623 165 633 Q 168 634 172 635 Q 197 644 225 655 Q 252 665 262 658 Q 277 643 277 586 Q 281 348 271 216 Q 272 209 271 204 C 270 174 235 194 251 168 Z" fill="black" /></g></svg>