<?xml version='1.0' encoding='utf-8'?>
<svg xmlns="http://www.w3.org/2000/svg" version="1.1" viewBox="0 0 1024 1024"><g transform="scale(1, -1) translate(0, -900)"><path d="M 543 363 Q 555 364 571 369 Q 676 394 693 387 Q 705 381 705 354 Q 723 185 717 51 Q 716 24 701 19 Q 691 16 638 33 Q 626 37 626 29 Q 627 20 642 10 Q 676 -23 703 -56 Q 718 -74 734 -73 Q 750 -69 769 -21 Q 794 28 788 77 Q 778 194 766 302 Q 762 345 778 379 Q 790 395 775 408 Q 757 424 718 436 Q 696 446 679 434 Q 664 427 635 416 Q 562 397 527 388 C 498 381 514 357 543 363 Z" fill="black" /></g></svg>