<?xml version='1.0' encoding='utf-8'?>
<svg xmlns="http://www.w3.org/2000/svg" version="1.1" viewBox="0 0 1024 1024"><g transform="scale(1, -1) translate(0, -900)"><path d="M 760 350 Q 770 399 780 429 L 799 475 Q 814 509 834 527 Q 850 546 834 565 Q 765 617 721 600 Q 693 590 669 579 L 640 570 Q 546 546 459 534 Q 443 533 444 522 Q 447 513 466 507 Q 493 497 528 509 Q 537 512 547 513 L 584 520 Q 644 533 703 546 Q 725 552 734 543 Q 747 530 745 501 Q 741 482 738 462 L 730 424 Q 723 387 713 352 C 705 323 754 321 760 350 Z" fill="black" /></g></svg>