<?xml version='1.0' encoding='utf-8'?>
<svg xmlns="http://www.w3.org/2000/svg" version="1.1" viewBox="0 0 1024 1024"><g transform="scale(1, -1) translate(0, -900)"><path d="M 287 166 Q 299 145 313 126 Q 329 101 337 104 Q 350 107 364 142 Q 379 181 374 230 Q 367 330 363 548 Q 362 605 378 633 Q 388 652 379 663 Q 372 673 320 688 Q 295 695 278 685 Q 229 660 186 647 C 158 638 168 610 197 618 Q 290 645 293 644 Q 296 644 300 641 Q 315 628 314 571 Q 318 340 309 213 Q 310 204 308 198 C 306 168 271 192 287 166 Z" fill="black" /></g></svg>