<?xml version='1.0' encoding='utf-8'?>
<svg xmlns="http://www.w3.org/2000/svg" version="1.1" viewBox="0 0 1024 1024"><g transform="scale(1, -1) translate(0, -900)"><path d="M 259 175 Q 269 159 282 141 Q 298 117 305 120 Q 318 123 332 158 Q 347 197 342 246 Q 335 345 330 561 Q 329 618 344 646 Q 354 664 346 675 Q 339 685 289 699 Q 265 706 249 697 Q 197 672 154 659 C 125 650 136 625 165 633 Q 195 640 229 653 Q 259 663 270 654 Q 285 641 284 584 Q 288 352 279 224 Q 280 215 278 209 C 276 179 244 198 259 175 Z" fill="black" /></g></svg>