<?xml version='1.0' encoding='utf-8'?>
<svg xmlns="http://www.w3.org/2000/svg" version="1.1" viewBox="0 0 1024 1024"><g transform="scale(1, -1) translate(0, -900)"><path d="M 265 142 Q 277 123 290 105 Q 306 81 313 84 Q 326 87 341 123 Q 356 163 351 216 Q 324 585 352 635 Q 362 651 354 663 Q 347 673 298 688 Q 274 697 258 686 Q 206 662 164 652 C 135 644 146 618 175 625 Q 179 626 188 628 Q 213 634 242 643 Q 269 650 278 642 Q 294 627 293 568 Q 297 322 287 188 Q 288 176 284 170 C 280 140 253 160 265 142 Z" fill="black" /></g></svg>