<?xml version='1.0' encoding='utf-8'?>
<svg xmlns="http://www.w3.org/2000/svg" version="1.1" viewBox="0 0 1024 1024"><g transform="scale(1, -1) translate(0, -900)"><path d="M 980 76 Q 967 103 945 185 Q 945 201 937 206 Q 930 209 926 191 Q 901 103 883 75 Q 858 44 766 49 Q 730 52 703 64 Q 678 77 672 93 Q 645 151 678 347 Q 684 377 645 393 C 619 408 599 418 607 389 Q 607 385 610 376 Q 623 336 620 297 Q 608 122 623 73 Q 627 51 648 30 Q 714 -33 870 -11 Q 883 -8 900 -4 Q 937 6 974 32 Q 993 48 980 76 Z" fill="black" /></g></svg>