<?xml version='1.0' encoding='utf-8'?>
<svg xmlns="http://www.w3.org/2000/svg" version="1.1" viewBox="0 0 1024 1024"><g transform="scale(1, -1) translate(0, -900)"><path d="M 275 186 Q 285 173 294 157 Q 310 133 317 136 Q 330 139 345 174 Q 360 213 355 262 Q 348 362 345 581 Q 344 638 360 666 Q 370 684 362 694 Q 355 704 306 719 Q 282 728 265 717 Q 213 692 171 681 C 142 673 156 647 185 655 Q 188 656 192 657 Q 217 664 248 674 Q 276 683 286 674 Q 301 661 300 603 Q 303 368 291 240 Q 292 227 286 221 C 279 192 273 189 275 186 Z" fill="black" /></g></svg>