<?xml version='1.0' encoding='utf-8'?>
<svg xmlns="http://www.w3.org/2000/svg" version="1.1" viewBox="0 0 1024 1024"><g transform="scale(1, -1) translate(0, -900)"><path d="M 723 459 Q 723 452 726 445 Q 730 429 744 429 Q 759 430 768 445 Q 784 464 813 556 Q 832 610 872 640 Q 893 656 876 673 Q 858 692 806 722 Q 788 732 707 713 Q 653 713 513 675 L 482 669 Q 458 666 440 663 C 410 658 444 620 473 629 Q 522 645 586 656 L 624 663 Q 750 691 772 679 Q 782 672 774 637 Q 743 507 729 482 Q 728 482 728 481 C 721 466 721 466 723 459 Z" fill="black" /></g></svg>