<?xml version='1.0' encoding='utf-8'?>
<svg xmlns="http://www.w3.org/2000/svg" version="1.1" viewBox="0 0 1024 1024"><g transform="scale(1, -1) translate(0, -900)"><path d="M 374 333 Q 365 342 346 349 Q 337 353 326 349 Q 319 345 324 333 Q 325 326 329 320 Q 347 280 335 117 Q 323 36 323 31 Q 323 10 346 -19 Q 356 -32 366 -20 Q 379 -4 379 16 L 381 46 Q 382 56 382 68 Q 382 93 383 115 L 383 139 Q 384 179 386 208 L 387 232 Q 388 284 390 289 Q 391 296 391 300 C 393 318 393 318 374 333 Z" fill="black" /></g></svg>