<?xml version='1.0' encoding='utf-8'?>
<svg xmlns="http://www.w3.org/2000/svg" version="1.1" viewBox="0 0 1024 1024"><g transform="scale(1, -1) translate(0, -900)"><path d="M 629 119 Q 629 177 630 232 L 630 261 Q 630 307 631 351 L 632 389 Q 632 422 633 453 L 633 480 Q 633 508 634 536 Q 634 551 634 565 L 635 598 Q 636 638 638 671 L 641 717 Q 641 759 652 796 Q 664 817 650 830 Q 613 858 585 865 Q 569 869 555 857 Q 549 850 556 838 Q 589 784 587 723 Q 587 711 586 699 L 586 657 Q 585 621 585 583 L 584 552 Q 583 512 584 469 L 584 442 Q 583 411 583 376 L 583 342 Q 583 245 583 142 C 583 112 629 89 629 119 Z" fill="black" /></g></svg>