<?xml version='1.0' encoding='utf-8'?>
<svg xmlns="http://www.w3.org/2000/svg" version="1.1" viewBox="0 0 1024 1024"><g transform="scale(1, -1) translate(0, -900)"><path d="M 169 632 Q 157 647 129 656 Q 119 660 108 657 Q 101 651 107 639 Q 125 573 127 558 Q 127 552 128 545 Q 143 344 112 215 Q 99 160 133 117 Q 143 104 154 117 Q 161 127 164 138 L 169 170 Q 170 206 171 303 L 171 338 Q 172 396 172 440 L 173 474 Q 174 583 176 595 Q 177 601 177 605 C 179 623 179 623 169 632 Z" fill="black" /></g></svg>