<?xml version='1.0' encoding='utf-8'?>
<svg xmlns="http://www.w3.org/2000/svg" version="1.1" viewBox="0 0 1024 1024"><g transform="scale(1, -1) translate(0, -900)"><path d="M 178 675 Q 157 690 141 696 Q 131 700 120 697 Q 113 691 119 679 Q 140 606 141 594 Q 141 588 142 581 Q 154 364 124 235 Q 111 181 146 137 Q 156 124 167 137 Q 179 152 179 176 L 182 207 Q 182 222 183 357 L 184 388 Q 184 445 185 487 L 185 517 Q 186 623 188 635 Q 189 644 189 649 C 190 667 190 667 178 675 Z" fill="black" /></g></svg>