<?xml version='1.0' encoding='utf-8'?>
<svg xmlns="http://www.w3.org/2000/svg" version="1.1" viewBox="0 0 1024 1024"><g transform="scale(1, -1) translate(0, -900)"><path d="M 755 404 Q 762 447 772 476 L 789 518 Q 802 549 821 567 Q 837 586 822 601 Q 806 613 755 634 Q 737 640 718 631 Q 675 612 635 598 L 585 583 Q 518 567 451 555 Q 435 554 437 544 Q 440 537 458 531 Q 483 522 515 535 Q 548 544 584 552 L 634 565 Q 718 590 732 580 Q 745 567 742 541 Q 738 523 735 504 L 728 470 Q 721 440 713 412 C 705 383 750 374 755 404 Z" fill="black" /></g></svg>