<?xml version='1.0' encoding='utf-8'?>
<svg xmlns="http://www.w3.org/2000/svg" version="1.1" viewBox="0 0 1024 1024"><g transform="scale(1, -1) translate(0, -900)"><path d="M 274 151 Q 284 135 294 120 Q 310 98 317 100 Q 330 103 343 137 Q 355 168 349 268 Q 330 572 352 619 Q 362 637 354 647 Q 347 657 297 671 Q 273 678 257 668 Q 209 644 169 632 C 141 623 148 597 177 605 Q 207 612 239 625 Q 267 635 278 626 Q 293 613 293 557 Q 299 329 290 204 Q 291 192 287 186 C 282 156 268 161 274 151 Z" fill="black" /></g></svg>