<?xml version='1.0' encoding='utf-8'?>
<svg xmlns="http://www.w3.org/2000/svg" version="1.1" viewBox="0 0 1024 1024"><g transform="scale(1, -1) translate(0, -900)"><path d="M 620 335 Q 704 419 747 470 L 790 525 Q 823 571 845 591 Q 855 603 849 620 Q 836 654 818 669 Q 805 685 787 687 Q 768 690 772 666 Q 772 629 765 610 Q 732 544 708 509 L 673 462 Q 613 389 544 327 L 512 298 Q 445 240 366 182 Q 365 182 365 181 C 342 164 342 164 358 165 Q 359 164 362 164 Q 392 161 507 239 Q 513 245 522 251 L 620 335 Z" fill="black" /></g></svg>