<?xml version='1.0' encoding='utf-8'?>
<svg xmlns="http://www.w3.org/2000/svg" version="1.1" viewBox="0 0 1024 1024"><g transform="scale(1, -1) translate(0, -900)"><path d="M 651 604 Q 664 582 676 574 Q 685 565 701 584 Q 711 597 742 669 Q 752 697 775 720 Q 788 730 779 745 Q 766 761 727 788 Q 709 797 641 783 Q 622 780 601 777 Q 450 759 419 749 L 389 745 Q 344 741 308 734 C 278 729 306 693 334 703 Q 340 710 429 723 L 450 727 Q 498 737 557 745 L 583 747 Q 607 753 636 755 Q 679 761 692 746 Q 698 736 696 727 Q 677 654 670 643 Q 666 636 656 631 C 641 618 641 618 651 604 Z" fill="black" /></g></svg>