<?xml version='1.0' encoding='utf-8'?>
<svg xmlns="http://www.w3.org/2000/svg" version="1.1" viewBox="0 0 1024 1024"><g transform="scale(1, -1) translate(0, -900)"><path d="M 159 633 Q 149 648 120 656 Q 110 660 99 657 Q 92 651 97 639 Q 118 554 119 547 Q 118 546 119 541 Q 129 331 99 200 Q 84 146 121 97 Q 131 84 143 97 Q 153 112 155 130 L 159 166 Q 160 190 160 222 Q 160 270 161 310 L 161 344 Q 162 402 164 445 L 164 479 Q 165 581 168 592 Q 169 599 169 606 C 171 622 171 622 159 633 Z" fill="black" /></g></svg>