<?xml version='1.0' encoding='utf-8'?>
<svg xmlns="http://www.w3.org/2000/svg" version="1.1" viewBox="0 0 1024 1024"><g transform="scale(1, -1) translate(0, -900)"><path d="M 718 91 Q 728 63 755 6 Q 764 -13 775 -12 Q 791 -9 802 18 Q 836 82 843 171 Q 850 226 858 289 Q 865 341 889 372 Q 908 393 895 407 Q 873 431 823 453 Q 804 465 768 452 Q 636 407 425 391 C 395 389 427 350 457 352 Q 467 351 478 353 Q 521 362 577 371 L 618 378 Q 675 388 747 400 Q 775 406 789 392 Q 796 376 797 361 Q 796 243 770 128 Q 769 109 759 106 C 746 79 707 119 718 91 Z" fill="black" /></g></svg>