<?xml version='1.0' encoding='utf-8'?>
<svg xmlns="http://www.w3.org/2000/svg" version="1.1" viewBox="0 0 1024 1024"><g transform="scale(1, -1) translate(0, -900)"><path d="M 595 15 Q 611 -10 626 -38 Q 638 -59 649 -60 Q 659 -60 668 -36 Q 680 3 674 114 Q 662 246 672 280 Q 681 302 668 311 Q 659 321 623 338 Q 605 347 567 332 Q 500 308 402 293 C 372 288 384 262 414 265 Q 426 265 443 269 Q 498 287 570 294 Q 592 297 598 289 Q 607 279 612 121 Q 615 64 609 53 Q 605 46 596 46 C 582 36 582 36 595 15 Z" fill="black" /></g></svg>