<?xml version='1.0' encoding='utf-8'?>
<svg xmlns="http://www.w3.org/2000/svg" version="1.1" viewBox="0 0 1024 1024"><g transform="scale(1, -1) translate(0, -900)"><path d="M 607 9 Q 634 -25 653 -57 Q 662 -73 673 -73 Q 688 -72 703 -40 Q 719 -3 715 41 Q 708 117 699 258 Q 698 288 713 309 Q 722 322 713 332 Q 694 351 643 372 Q 625 381 611 372 Q 530 336 392 317 C 362 313 376 277 405 284 Q 610 332 630 318 L 632 317 Q 662 283 647 46 Q 647 45 647 43 Q 643 24 625 33 Q 621 36 616 38 C 588 49 589 33 607 9 Z" fill="black" /></g></svg>