<?xml version='1.0' encoding='utf-8'?>
<svg xmlns="http://www.w3.org/2000/svg" version="1.1" viewBox="0 0 1024 1024"><g transform="scale(1, -1) translate(0, -900)"><path d="M 406 378 Q 393 377 401 369 Q 408 359 422 355 Q 434 352 516 377 Q 529 381 537 376 Q 543 370 542 350 Q 546 190 538 93 Q 537 71 529 60 Q 526 57 469 70 Q 453 77 452 68 Q 495 22 517 -9 Q 527 -27 542 -32 Q 549 -36 558 -28 Q 597 23 598 63 Q 585 327 603 362 Q 615 378 604 388 Q 585 404 553 418 Q 537 425 524 419 Q 499 403 481 396 Q 459 386 406 378 Z" fill="black" /></g></svg>