<?xml version='1.0' encoding='utf-8'?>
<svg xmlns="http://www.w3.org/2000/svg" version="1.1" viewBox="0 0 1024 1024"><g transform="scale(1, -1) translate(0, -900)"><path d="M 278 170 Q 291 149 305 128 Q 321 106 329 108 Q 342 111 356 147 Q 371 187 365 239 Q 334 602 360 655 Q 370 673 363 683 Q 356 693 306 708 Q 282 717 266 706 Q 217 684 175 673 C 146 665 156 637 185 645 Q 189 646 196 648 Q 221 654 250 663 Q 277 670 286 661 Q 302 648 302 588 Q 309 345 301 211 Q 305 187 285 191 C 271 182 271 182 278 170 Z" fill="black" /></g></svg>