<?xml version='1.0' encoding='utf-8'?>
<svg xmlns="http://www.w3.org/2000/svg" version="1.1" viewBox="0 0 1024 1024"><g transform="scale(1, -1) translate(0, -900)"><path d="M 668 406 Q 683 384 697 378 Q 707 371 721 390 Q 734 411 762 523 Q 769 551 791 574 Q 804 584 793 598 Q 780 614 740 637 Q 722 647 708 640 Q 683 634 652 628 Q 610 621 557 609 Q 511 599 472 592 C 442 587 475 551 502 564 Q 512 576 674 600 Q 696 604 705 596 Q 715 583 713 570 Q 692 452 677 436 C 664 412 664 412 668 406 Z" fill="black" /></g></svg>