<?xml version='1.0' encoding='utf-8'?>
<svg xmlns="http://www.w3.org/2000/svg" version="1.1" viewBox="0 0 1024 1024"><g transform="scale(1, -1) translate(0, -900)"><path d="M 733 310 Q 734 306 739 299 Q 749 274 758 275 Q 771 276 784 303 Q 797 327 793 368 Q 781 506 807 544 Q 816 557 809 565 Q 787 586 746 603 Q 733 607 713 600 Q 674 584 569 562 C 540 556 557 530 586 538 Q 653 557 704 566 Q 722 570 728 560 Q 738 547 739 499 Q 740 363 734 337 Q 733 336 732 332 C 729 318 729 318 733 310 Z" fill="black" /></g></svg>