<?xml version='1.0' encoding='utf-8'?>
<svg xmlns="http://www.w3.org/2000/svg" version="1.1" viewBox="0 0 1024 1024"><g transform="scale(1, -1) translate(0, -900)"><path d="M 282 181 Q 294 162 306 145 Q 322 121 329 124 Q 342 127 358 164 Q 373 206 368 258 Q 359 364 353 596 Q 352 656 368 687 Q 378 703 370 715 Q 363 725 314 739 Q 290 748 273 737 Q 225 715 185 703 C 156 694 168 668 197 676 Q 224 683 256 694 Q 284 703 294 694 Q 310 678 309 618 Q 313 366 303 228 Q 304 213 298 208 C 291 179 275 192 282 181 Z" fill="black" /></g></svg>