<?xml version='1.0' encoding='utf-8'?>
<svg xmlns="http://www.w3.org/2000/svg" version="1.1" viewBox="0 0 1024 1024"><g transform="scale(1, -1) translate(0, -900)"><path d="M 487 375 Q 494 390 481 400 Q 462 422 433 432 Q 420 436 411 429 Q 407 423 415 407 Q 433 380 431 342 Q 430 251 398 204 Q 386 191 391 179 Q 398 160 414 145 Q 426 135 442 147 Q 503 189 682 205 Q 785 215 919 201 Q 941 197 950 202 Q 957 208 952 220 Q 946 233 909 256 Q 891 268 819 258 Q 633 246 488 217 Q 470 211 468 217 Q 459 224 464 240 Q 476 345 487 375 Z" fill="black" /></g></svg>