<?xml version='1.0' encoding='utf-8'?>
<svg xmlns="http://www.w3.org/2000/svg" version="1.1" viewBox="0 0 1024 1024"><g transform="scale(1, -1) translate(0, -900)"><path d="M 251 153 Q 266 129 281 106 Q 297 81 305 84 Q 318 85 332 121 Q 341 145 342 222 Q 323 555 349 605 Q 361 623 352 634 Q 345 646 294 662 Q 269 671 251 661 Q 203 639 164 629 C 135 621 144 594 173 600 Q 263 618 269 615 L 271 613 Q 286 600 285 545 Q 289 317 278 193 Q 279 180 274 174 C 268 145 237 176 251 153 Z" fill="black" /></g></svg>