<?xml version='1.0' encoding='utf-8'?>
<svg xmlns="http://www.w3.org/2000/svg" version="1.1" viewBox="0 0 1024 1024"><g transform="scale(1, -1) translate(0, -900)"><path d="M 751 436 Q 778 385 816 450 Q 849 592 879 626 Q 894 642 882 658 Q 867 676 840 696 Q 825 703 810 699 Q 758 681 698 674 Q 679 673 682 663 Q 686 653 702 647 Q 708 647 774 658 Q 798 664 806 659 Q 813 652 807 625 Q 801 603 796 582 L 788 549 Q 779 516 771 485 Q 767 463 752 464 Q 748 465 747 462 C 736 459 736 459 751 436 Z" fill="black" /></g></svg>