<?xml version='1.0' encoding='utf-8'?>
<svg xmlns="http://www.w3.org/2000/svg" version="1.1" viewBox="0 0 1024 1024"><g transform="scale(1, -1) translate(0, -900)"><path d="M 262 184 Q 274 165 286 145 Q 302 121 309 124 Q 321 125 336 160 Q 345 182 345 260 Q 326 587 352 638 Q 362 656 354 666 Q 347 676 298 692 Q 274 699 258 690 Q 203 665 159 655 C 130 647 139 623 168 629 Q 204 635 242 647 Q 269 654 278 646 Q 291 633 291 578 Q 294 352 284 228 Q 285 212 276 208 C 264 181 260 187 262 184 Z" fill="black" /></g></svg>