<?xml version='1.0' encoding='utf-8'?>
<svg xmlns="http://www.w3.org/2000/svg" version="1.1" viewBox="0 0 1024 1024"><g transform="scale(1, -1) translate(0, -900)"><path d="M 279 139 Q 289 123 302 105 Q 318 81 325 84 Q 338 87 354 124 Q 369 164 363 218 Q 336 590 364 643 Q 374 659 366 671 Q 359 681 310 695 Q 286 704 269 694 Q 223 670 185 660 C 156 651 162 627 191 633 Q 209 636 259 650 Q 281 657 290 650 Q 306 634 305 574 Q 309 324 299 188 Q 302 169 287 167 C 273 149 273 149 279 139 Z" fill="black" /></g></svg>