<?xml version='1.0' encoding='utf-8'?>
<svg xmlns="http://www.w3.org/2000/svg" version="1.1" viewBox="0 0 1024 1024"><g transform="scale(1, -1) translate(0, -900)"><path d="M 638 339 Q 639 370 641 399 L 643 439 Q 643 469 645 498 L 648 541 Q 649 566 654 579 Q 661 597 650 607 Q 637 619 612 631 Q 593 638 572 630 Q 562 623 574 609 Q 586 585 597 527 L 600 489 Q 601 462 601 430 L 601 394 Q 602 385 600 333 L 598 296 Q 594 251 605 222 Q 609 212 618 218 Q 634 230 635 301 L 638 339 Z" fill="black" /></g></svg>