<?xml version='1.0' encoding='utf-8'?>
<svg xmlns="http://www.w3.org/2000/svg" version="1.1" viewBox="0 0 1024 1024"><g transform="scale(1, -1) translate(0, -900)"><path d="M 653 138 Q 693 192 732 274 Q 745 301 765 318 Q 784 333 772 346 Q 760 359 730 371 Q 706 380 644 354 L 605 342 Q 604 343 602 342 Q 557 329 483 321 Q 470 320 465 313 Q 461 306 479 299 Q 515 286 563 300 Q 647 327 662 326 Q 681 323 676 302 Q 658 236 613 166 L 588 139 Q 522 73 385 39 Q 372 35 382 27 Q 388 23 433 25 Q 530 32 621 105 L 653 138 Z" fill="black" /></g></svg>