<?xml version='1.0' encoding='utf-8'?>
<svg xmlns="http://www.w3.org/2000/svg" version="1.1" viewBox="0 0 1024 1024"><g transform="scale(1, -1) translate(0, -900)"><path d="M 274 153 L 296 118 Q 315 90 321 92 Q 331 94 341 112 Q 368 153 364 217 L 363 231 Q 335 614 365 672 Q 376 690 368 701 Q 363 708 341 715 Q 300 733 282 729 Q 278 728 269 723 Q 219 699 173 686 C 144 677 153 653 182 660 Q 280 684 284 684 Q 289 682 290 680 Q 308 668 306 604 L 306 602 Q 310 347 296 196 L 296 186 Q 296 184 295 182 C 293 152 258 178 274 153 Z" fill="black" /></g></svg>