<?xml version='1.0' encoding='utf-8'?>
<svg xmlns="http://www.w3.org/2000/svg" version="1.1" viewBox="0 0 1024 1024"><g transform="scale(1, -1) translate(0, -900)"><path d="M 223 171 Q 228 163 235 151 Q 265 104 274 108 Q 286 112 297 136 Q 314 176 311 225 L 311 226 L 310 235 Q 279 579 308 643 Q 317 659 310 669 Q 304 676 282 684 Q 245 697 227 694 L 217 690 Q 176 666 143 657 C 115 648 119 628 149 632 Q 165 632 193 642 Q 223 653 232 651 Q 253 644 252 580 L 252 577 Q 258 327 248 207 L 247 194 L 246 190 C 243 160 208 197 223 171 Z" fill="black" /></g></svg>