<?xml version='1.0' encoding='utf-8'?>
<svg xmlns="http://www.w3.org/2000/svg" version="1.1" viewBox="0 0 1024 1024"><g transform="scale(1, -1) translate(0, -900)"><path d="M 143 657 Q 141 661 133 666 Q 108 686 89 680 Q 82 676 88 665 Q 108 580 110 572 L 110 566 Q 118 394 98 286 L 83 216 Q 77 184 88 159 Q 89 155 92 151 Q 106 123 118 127 Q 119 128 121 130 Q 132 142 132 164 L 135 188 Q 139 211 139 252 Q 139 302 139 336 L 141 365 Q 141 427 143 472 L 143 501 Q 147 627 149 632 C 151 650 151 650 143 657 Z" fill="black" /></g></svg>