<?xml version='1.0' encoding='utf-8'?>
<svg xmlns="http://www.w3.org/2000/svg" version="1.1" viewBox="0 0 1024 1024"><g transform="scale(1, -1) translate(0, -900)"><path d="M 178 650 Q 169 662 141 672 Q 131 678 120 673 Q 113 669 119 656 Q 138 575 140 564 Q 139 563 140 558 Q 150 348 117 216 Q 104 161 138 117 Q 148 104 159 116 Q 169 131 170 148 L 174 181 Q 175 206 176 240 Q 176 286 177 325 L 178 357 Q 179 412 181 455 L 182 489 Q 185 598 187 611 Q 188 618 188 623 C 190 640 190 640 178 650 Z" fill="black" /></g></svg>