<?xml version='1.0' encoding='utf-8'?>
<svg xmlns="http://www.w3.org/2000/svg" version="1.1" viewBox="0 0 1024 1024"><g transform="scale(1, -1) translate(0, -900)"><path d="M 274 159 Q 286 140 298 121 Q 314 97 321 100 Q 334 103 349 138 Q 365 178 360 228 Q 339 588 368 638 Q 378 656 370 666 Q 363 676 313 690 Q 289 699 273 688 Q 221 663 178 650 C 149 641 159 614 188 623 Q 189 624 196 626 Q 223 633 254 645 Q 282 655 294 646 Q 309 633 308 574 Q 309 336 296 204 Q 297 188 287 184 C 275 158 273 160 274 159 Z" fill="black" /></g></svg>