<?xml version='1.0' encoding='utf-8'?>
<svg xmlns="http://www.w3.org/2000/svg" version="1.1" viewBox="0 0 1024 1024"><g transform="scale(1, -1) translate(0, -900)"><path d="M 719 363 Q 756 367 811 370 Q 823 371 826 365 Q 835 361 835 323 Q 844 167 826 78 Q 820 47 792 49 Q 755 59 719 67 Q 706 71 706 65 Q 705 59 715 48 Q 791 -10 813 -41 Q 822 -54 831 -53 Q 844 -50 855 -26 Q 876 10 881 51 Q 893 106 896 304 Q 896 340 906 359 Q 922 378 909 384 Q 894 399 860 413 Q 842 423 776 408 Q 740 405 724 401 L 676 395 Q 624 391 583 380 L 542 372 Q 493 362 445 354 C 415 349 438 316 467 323 Q 474 323 485 327 Q 506 334 540 338 L 579 345 Q 630 355 674 358 L 719 363 Z" fill="black" /></g></svg>