<?xml version='1.0' encoding='utf-8'?>
<svg xmlns="http://www.w3.org/2000/svg" version="1.1" viewBox="0 0 1024 1024"><g transform="scale(1, -1) translate(0, -900)"><path d="M 621 397 Q 669 409 799 423 Q 811 424 816 418 Q 823 414 827 375 Q 842 219 828 129 Q 824 98 797 100 Q 767 107 741 114 Q 728 120 726 113 Q 725 106 735 93 Q 801 29 817 -3 Q 827 -16 837 -14 Q 850 -11 861 13 Q 891 71 894 236 Q 894 393 904 414 Q 920 436 906 440 Q 890 456 852 469 Q 827 482 803 471 Q 779 462 715 451 Q 664 444 622 434 L 582 426 Q 552 422 416 384 C 387 376 395 338 423 349 Q 450 364 582 389 L 621 397 Z" fill="black" /></g></svg>