<?xml version='1.0' encoding='utf-8'?>
<svg xmlns="http://www.w3.org/2000/svg" version="1.1" viewBox="0 0 1024 1024"><g transform="scale(1, -1) translate(0, -900)"><path d="M 257 153 Q 270 131 285 110 Q 301 85 309 88 Q 322 91 336 125 Q 351 164 346 213 Q 321 556 350 613 Q 360 632 351 643 Q 344 653 291 667 Q 266 674 249 663 Q 200 636 158 623 C 130 613 144 584 172 594 Q 178 597 186 599 Q 210 608 237 619 Q 262 629 272 621 Q 285 608 286 552 Q 290 323 281 197 Q 284 179 272 176 C 259 150 255 156 257 153 Z" fill="black" /></g></svg>