<?xml version='1.0' encoding='utf-8'?>
<svg xmlns="http://www.w3.org/2000/svg" version="1.1" viewBox="0 0 1024 1024"><g transform="scale(1, -1) translate(0, -900)"><path d="M 236 135 Q 246 117 259 100 Q 274 78 281 80 Q 294 83 311 121 Q 327 164 321 219 Q 294 607 322 660 Q 332 676 324 686 Q 317 696 271 710 Q 249 717 233 709 Q 185 687 146 676 C 117 667 123 641 152 649 Q 242 673 251 668 L 252 667 Q 268 651 268 587 Q 269 323 256 179 Q 257 172 255 166 C 253 136 221 159 236 135 Z" fill="black" /></g></svg>