<?xml version='1.0' encoding='utf-8'?>
<svg xmlns="http://www.w3.org/2000/svg" version="1.1" viewBox="0 0 1024 1024"><g transform="scale(1, -1) translate(0, -900)"><path d="M 748 497 Q 764 470 781 462 Q 791 455 805 474 Q 814 487 837 559 Q 846 589 868 612 Q 881 624 870 637 Q 855 653 815 678 Q 796 687 781 681 Q 747 674 702 666 L 650 658 Q 613 654 575 646 L 534 639 Q 479 629 437 622 C 407 617 431 582 460 591 Q 459 592 462 592 Q 493 601 539 609 L 576 616 Q 609 623 649 628 L 696 634 Q 712 638 730 639 Q 767 645 780 631 Q 787 624 786 614 Q 774 532 759 519 C 747 499 747 499 748 497 Z" fill="black" /></g></svg>