<?xml version='1.0' encoding='utf-8'?>
<svg xmlns="http://www.w3.org/2000/svg" version="1.1" viewBox="0 0 1024 1024"><g transform="scale(1, -1) translate(0, -900)"><path d="M 565 9 Q 587 -21 605 -49 Q 614 -65 625 -65 Q 640 -64 654 -31 Q 670 5 667 49 Q 660 116 651 242 Q 650 272 666 292 Q 675 305 666 314 Q 648 333 598 355 Q 582 364 567 355 Q 503 325 397 311 C 367 307 380 278 410 281 Q 426 281 557 306 Q 576 309 585 302 Q 600 287 600 63 Q 599 57 599 51 Q 595 35 578 40 C 549 33 548 33 565 9 Z" fill="black" /></g></svg>