<?xml version='1.0' encoding='utf-8'?>
<svg xmlns="http://www.w3.org/2000/svg" version="1.1" viewBox="0 0 1024 1024"><g transform="scale(1, -1) translate(0, -900)"><path d="M 759 598 Q 802 602 853 603 Q 875 603 895 604 Q 911 604 915 612 Q 919 622 906 632 Q 858 666 795 647 Q 788 646 780 643 L 714 630 Q 672 624 624 614 Q 623 614 622 613 L 576 606 Q 533 600 489 592 L 445 586 Q 408 582 370 575 Q 352 572 366 559 Q 378 547 392 544 Q 410 540 423 544 Q 436 548 452 551 L 494 562 Q 533 572 577 578 L 622 585 Q 659 592 707 595 L 759 598 Z" fill="black" /></g></svg>