<?xml version='1.0' encoding='utf-8'?>
<svg xmlns="http://www.w3.org/2000/svg" version="1.1" viewBox="0 0 1024 1024"><g transform="scale(1, -1) translate(0, -900)"><path d="M 579 236 Q 588 255 598 266 Q 608 273 605 282 Q 601 292 581 311 C 560 332 542 336 542 306 Q 546 285 525 230 L 508 191 Q 495 166 482 148 Q 472 132 475 119 Q 476 109 494 106 Q 557 91 584 73 L 628 50 Q 676 22 743 -27 Q 768 -45 785 -43 Q 804 -42 804 -23 Q 803 -4 773 38 Q 758 60 663 92 L 617 106 Q 568 122 535 127 Q 519 131 527 147 Q 543 178 556 198 L 579 236 Z" fill="black" /></g></svg>