<?xml version='1.0' encoding='utf-8'?>
<svg xmlns="http://www.w3.org/2000/svg" version="1.1" viewBox="0 0 1024 1024"><g transform="scale(1, -1) translate(0, -900)"><path d="M 253 161 Q 263 145 275 128 Q 290 106 297 108 Q 310 111 324 146 Q 339 185 334 235 Q 307 589 334 640 Q 344 656 337 667 Q 330 677 284 692 Q 262 699 246 691 Q 197 670 155 661 C 126 654 140 630 169 636 Q 173 637 181 639 Q 203 643 231 649 Q 256 655 264 647 Q 279 632 279 575 Q 283 337 272 206 Q 275 190 264 187 C 252 162 252 162 253 161 Z" fill="black" /></g></svg>