<?xml version='1.0' encoding='utf-8'?>
<svg xmlns="http://www.w3.org/2000/svg" version="1.1" viewBox="0 0 1024 1024"><g transform="scale(1, -1) translate(0, -900)"><path d="M 629 496 Q 642 468 656 458 Q 665 449 681 467 Q 691 477 719 533 Q 729 561 753 583 Q 766 593 757 607 Q 744 623 706 652 Q 691 661 599 643 Q 596 643 413 616 Q 299 598 286 600 C 256 599 286 560 315 567 Q 355 577 406 587 L 429 591 Q 475 601 532 608 L 573 614 Q 592 618 614 620 Q 657 626 672 611 Q 676 604 675 596 Q 657 529 645 520 C 629 496 629 496 629 496 Z" fill="black" /></g></svg>