<?xml version='1.0' encoding='utf-8'?>
<svg xmlns="http://www.w3.org/2000/svg" version="1.1" viewBox="0 0 1024 1024"><g transform="scale(1, -1) translate(0, -900)"><path d="M 318 355 Q 305 629 328 670 Q 338 688 330 698 Q 323 708 274 724 Q 250 731 234 722 Q 185 700 143 689 C 114 681 128 654 157 662 Q 158 663 164 664 Q 189 670 218 679 Q 245 686 254 678 Q 269 663 268 605 Q 271 361 259 228 Q 260 218 257 211 C 254 181 220 212 236 187 Q 249 166 262 145 Q 278 121 285 124 Q 298 127 313 163 Q 329 203 324 254 Q 321 288 319 333 L 318 355 Z" fill="black" /></g></svg>