<?xml version='1.0' encoding='utf-8'?>
<svg xmlns="http://www.w3.org/2000/svg" version="1.1" viewBox="0 0 1024 1024"><g transform="scale(1, -1) translate(0, -900)"><path d="M 263 181 Q 273 166 283 151 Q 298 129 305 132 Q 318 135 332 170 Q 345 209 340 258 Q 313 609 338 660 Q 348 676 341 687 Q 334 697 287 710 Q 265 717 249 709 Q 201 687 164 676 C 135 667 146 643 175 651 L 234 667 Q 259 674 268 667 Q 283 652 283 595 Q 289 360 279 230 Q 283 208 264 211 Q 260 212 258 210 C 246 207 246 206 263 181 Z" fill="black" /></g></svg>