<?xml version='1.0' encoding='utf-8'?>
<svg xmlns="http://www.w3.org/2000/svg" version="1.1" viewBox="0 0 1024 1024"><g transform="scale(1, -1) translate(0, -900)"><path d="M 263 224 Q 273 211 283 195 Q 298 173 305 176 Q 317 179 329 211 Q 339 241 334 333 Q 315 621 335 660 Q 344 676 336 687 Q 329 697 282 709 Q 260 716 244 707 Q 198 683 161 672 C 133 663 141 639 170 647 Q 174 648 181 650 Q 203 656 231 666 Q 255 673 264 666 Q 277 653 279 602 Q 286 391 279 274 Q 280 261 275 256 C 269 227 259 229 263 224 Z" fill="black" /></g></svg>