<?xml version='1.0' encoding='utf-8'?>
<svg xmlns="http://www.w3.org/2000/svg" version="1.1" viewBox="0 0 1024 1024"><g transform="scale(1, -1) translate(0, -900)"><path d="M 756 189 Q 807 195 877 191 Q 896 190 902 200 Q 908 207 891 218 Q 843 254 781 231 Q 771 231 756 226 L 710 217 Q 677 213 647 203 Q 622 194 629 218 Q 638 261 646 277 Q 653 286 649 294 Q 643 301 614 314 Q 599 321 591 316 Q 584 309 591 297 Q 612 261 588 211 Q 566 178 566 172 Q 569 162 583 152 Q 593 145 604 155 Q 647 179 710 183 L 756 189 Z" fill="black" /></g></svg>