<?xml version='1.0' encoding='utf-8'?>
<svg xmlns="http://www.w3.org/2000/svg" version="1.1" viewBox="0 0 1024 1024"><g transform="scale(1, -1) translate(0, -900)"><path d="M 721 -15 Q 725 -37 731 -45 Q 735 -52 742 -49 Q 749 -46 754 -33 Q 764 0 765 158 L 766 194 Q 766 237 768 300 L 771 339 Q 774 354 776 365 Q 779 381 767 389 Q 739 408 725 410 Q 715 414 700 407 Q 693 400 698 390 Q 713 369 715 325 L 716 289 Q 716 243 716 185 L 716 153 Q 717 131 717 105 Q 717 15 721 -15 Z" fill="black" /></g></svg>