<?xml version='1.0' encoding='utf-8'?>
<svg xmlns="http://www.w3.org/2000/svg" version="1.1" viewBox="0 0 1024 1024"><g transform="scale(1, -1) translate(0, -900)"><path d="M 154 652 Q 145 661 125 668 Q 115 672 104 669 Q 97 665 103 652 Q 106 639 111 627 Q 139 569 122 265 Q 116 223 104 172 Q 92 117 126 73 Q 136 60 147 73 Q 159 88 159 113 L 163 149 Q 164 173 164 204 Q 164 270 165 324 L 165 355 Q 166 418 167 464 L 168 498 Q 169 595 172 607 Q 173 620 172 629 C 172 640 172 640 154 652 Z" fill="black" /></g></svg>