<?xml version='1.0' encoding='utf-8'?>
<svg xmlns="http://www.w3.org/2000/svg" version="1.1" viewBox="0 0 1024 1024"><g transform="scale(1, -1) translate(0, -900)"><path d="M 268 246 Q 277 231 287 216 Q 302 194 309 196 Q 321 197 334 231 Q 343 255 343 325 Q 324 631 350 684 Q 360 700 352 710 Q 345 720 299 734 Q 277 743 261 733 Q 213 711 173 700 C 144 691 152 674 182 677 Q 200 676 252 692 Q 273 698 280 691 Q 293 678 293 626 Q 294 412 285 295 Q 288 273 269 275 Q 262 276 259 274 C 251 273 252 272 268 246 Z" fill="black" /></g></svg>