<?xml version='1.0' encoding='utf-8'?>
<svg xmlns="http://www.w3.org/2000/svg" version="1.1" viewBox="0 0 1024 1024"><g transform="scale(1, -1) translate(0, -900)"><path d="M 226 124 Q 236 105 249 86 Q 265 61 273 64 Q 286 65 302 103 Q 318 143 314 195 Q 299 567 325 617 Q 337 635 328 646 Q 321 656 270 674 Q 245 683 227 673 Q 179 651 138 641 C 109 633 124 606 153 612 Q 159 613 166 615 Q 188 619 215 627 Q 239 634 247 626 Q 263 610 261 552 Q 261 308 248 173 Q 251 148 230 152 C 214 144 214 144 226 124 Z" fill="black" /></g></svg>