<?xml version='1.0' encoding='utf-8'?>
<svg xmlns="http://www.w3.org/2000/svg" version="1.1" viewBox="0 0 1024 1024"><g transform="scale(1, -1) translate(0, -900)"><path d="M 236 190 Q 249 169 263 148 Q 278 126 285 128 Q 298 131 313 167 Q 328 207 323 258 Q 298 615 326 672 Q 336 688 328 698 Q 321 708 275 722 Q 253 729 237 721 Q 189 699 149 687 C 120 678 126 654 155 661 Q 182 667 221 680 Q 246 687 256 679 Q 271 664 270 605 Q 273 361 261 227 Q 262 211 254 207 C 244 179 228 203 236 190 Z" fill="black" /></g></svg>