<?xml version='1.0' encoding='utf-8'?>
<svg xmlns="http://www.w3.org/2000/svg" version="1.1" viewBox="0 0 1024 1024"><g transform="scale(1, -1) translate(0, -900)"><path d="M 805 493 L 822 535 Q 828 557 850 571 Q 860 578 860 587 Q 857 594 816 620 Q 798 630 782 620 Q 746 604 691 585 Q 672 581 674 599 Q 681 645 687 676 L 692 700 Q 698 730 704 743 Q 714 765 690 778 Q 648 796 636 790 Q 624 786 635 771 Q 650 752 642 641 Q 643 605 627 576 Q 618 563 637 545 Q 653 530 663 540 Q 688 559 748 575 Q 770 584 778 574 Q 784 568 778 550 Q 771 528 763 506 Q 759 496 757 488 C 748 459 794 465 805 493 Z" fill="black" /></g></svg>