<?xml version='1.0' encoding='utf-8'?>
<svg xmlns="http://www.w3.org/2000/svg" version="1.1" viewBox="0 0 1024 1024"><g transform="scale(1, -1) translate(0, -900)"><path d="M 412 374 Q 419 375 431 381 Q 483 394 491 390 Q 500 386 498 367 Q 514 217 508 99 Q 507 75 493 71 Q 484 67 435 77 Q 425 78 426 72 Q 427 66 440 60 Q 470 36 493 12 Q 506 -1 518 1 Q 531 4 548 45 Q 569 87 564 129 Q 554 229 544 320 Q 540 356 554 386 Q 563 398 551 408 Q 538 418 507 428 Q 495 434 456 414 Q 420 402 404 394 C 377 382 384 364 412 374 Z" fill="black" /></g></svg>