<?xml version='1.0' encoding='utf-8'?>
<svg xmlns="http://www.w3.org/2000/svg" version="1.1" viewBox="0 0 1024 1024"><g transform="scale(1, -1) translate(0, -900)"><path d="M 504 278 Q 473 278 474 272 Q 468 256 494 242 Q 522 220 538 223 Q 551 223 571 234 Q 697 289 713 271 Q 720 259 707 240 Q 698 227 680 180 Q 647 110 632 97 Q 602 67 615 21 Q 619 0 628 -4 Q 637 -8 650 2 Q 678 23 746 195 Q 764 243 795 264 Q 804 271 805 281 Q 806 294 772 314 Q 738 335 722 337 Q 715 336 706 330 Q 625 291 504 278 Z" fill="black" /></g></svg>