<?xml version='1.0' encoding='utf-8'?>
<svg xmlns="http://www.w3.org/2000/svg" version="1.1" viewBox="0 0 1024 1024"><g transform="scale(1, -1) translate(0, -900)"><path d="M 306 323 Q 310 323 317 324 Q 483 355 683 373 Q 708 377 718 363 Q 725 359 729 322 Q 744 57 721 36 Q 711 26 653 30 Q 637 33 638 23 Q 639 16 653 11 Q 705 -28 734 -58 Q 755 -77 768 -74 Q 780 -71 791 -42 Q 806 3 804 69 Q 792 222 791 279 Q 792 318 804 341 Q 817 363 807 375 Q 797 390 750 415 Q 732 424 666 409 Q 486 375 297 362 C 267 360 276 319 306 323 Z" fill="black" /></g></svg>