<?xml version='1.0' encoding='utf-8'?>
<svg xmlns="http://www.w3.org/2000/svg" version="1.1" viewBox="0 0 1024 1024"><g transform="scale(1, -1) translate(0, -900)"><path d="M 233 249 Q 243 233 255 216 Q 270 194 277 196 Q 290 199 305 235 Q 318 275 314 325 Q 287 683 314 736 Q 324 752 317 763 Q 310 773 264 787 Q 242 796 225 786 Q 185 768 150 759 C 121 751 131 725 160 732 Q 166 733 173 735 Q 236 750 244 743 Q 259 728 259 670 Q 263 427 252 295 Q 255 279 241 275 C 228 257 228 257 233 249 Z" fill="black" /></g></svg>