<?xml version='1.0' encoding='utf-8'?>
<svg xmlns="http://www.w3.org/2000/svg" version="1.1" viewBox="0 0 1024 1024"><g transform="scale(1, -1) translate(0, -900)"><path d="M 580 327 Q 587 328 598 330 Q 808 357 816 357 Q 832 357 835 351 Q 847 327 844 193 Q 838 88 812 32 Q 802 8 786 3 Q 774 0 708 18 Q 699 21 699 16 Q 699 12 709 4 Q 749 -36 768 -65 Q 778 -84 790 -82 Q 827 -79 862 -9 Q 893 60 909 291 Q 910 318 925 336 Q 938 349 937 357 Q 936 364 917 377 Q 892 396 857 405 Q 838 411 752 388 Q 745 388 738 385 Q 639 363 532 351 C 502 347 498 347 519 338 Q 522 332 546 327 L 580 327 Z" fill="black" /></g></svg>