<?xml version='1.0' encoding='utf-8'?>
<svg xmlns="http://www.w3.org/2000/svg" version="1.1" viewBox="0 0 1024 1024"><g transform="scale(1, -1) translate(0, -900)"><path d="M 586 384 Q 605 385 612 376 Q 622 363 618 326 Q 597 164 550 115 Q 541 106 517 116 Q 487 126 463 133 Q 448 139 450 129 Q 453 116 466 104 Q 500 70 520 39 Q 536 18 555 30 Q 627 82 639 148 Q 678 347 688 361 Q 698 379 689 388 Q 677 404 648 419 Q 629 428 559 408 Q 505 396 501 399 Q 497 402 501 412 Q 510 446 522 487 Q 525 496 525 503 C 529 519 529 519 510 531 Q 500 538 484 548 Q 472 557 464 551 Q 454 545 464 532 Q 480 504 469 459 Q 456 401 430 379 Q 418 366 423 354 Q 430 341 439 334 Q 449 327 467 341 Q 489 362 516 371 Q 562 384 586 384 Z" fill="black" /></g></svg>