<?xml version='1.0' encoding='utf-8'?>
<svg xmlns="http://www.w3.org/2000/svg" version="1.1" viewBox="0 0 1024 1024"><g transform="scale(1, -1) translate(0, -900)"><path d="M 596 481 Q 596 607 601 638 C 603 663 603 663 585 674 Q 575 681 554 692 Q 533 702 525 696 Q 518 689 525 673 Q 568 592 537 207 Q 528 137 507 106 Q 497 90 506 69 Q 513 47 524 38 Q 534 31 552 42 Q 643 100 919 93 Q 944 92 946 103 Q 946 119 917 140 Q 902 153 868 148 Q 796 139 739 135 Q 681 134 611 124 Q 601 121 596 126 Q 589 127 589 143 Q 590 213 592 290 L 593 324 Q 594 385 595 450 L 596 481 Z" fill="black" /></g></svg>