<?xml version='1.0' encoding='utf-8'?>
<svg xmlns="http://www.w3.org/2000/svg" version="1.1" viewBox="0 0 1024 1024"><g transform="scale(1, -1) translate(0, -900)"><path d="M 636 634 Q 521 618 399 589 Q 387 585 383 588 Q 380 592 388 603 Q 515 756 541 781 Q 554 791 549 804 Q 543 817 496 844 Q 480 853 470 850 Q 457 844 461 823 Q 474 766 351 623 Q 327 602 293 580 Q 278 570 282 558 Q 286 540 311 518 Q 321 506 336 517 Q 390 557 632 605 Q 645 609 654 613 C 682 623 666 638 636 634 Z" fill="black" /></g></svg>