<?xml version='1.0' encoding='utf-8'?>
<svg xmlns="http://www.w3.org/2000/svg" version="1.1" viewBox="0 0 1024 1024"><g transform="scale(1, -1) translate(0, -900)"><path d="M 660 117 Q 715 78 795 4 Q 817 -18 834 -18 Q 855 -19 856 0 Q 857 19 833 64 Q 818 94 685 155 L 640 175 Q 609 190 583 198 Q 559 204 573 226 Q 589 260 599 280 L 614 313 Q 630 352 631 352 Q 627 365 589 390 Q 579 397 569 394 Q 557 390 564 376 Q 574 354 567 332 Q 563 319 560 305 L 550 272 Q 540 242 527 223 Q 518 207 521 195 Q 524 185 539 182 Q 576 170 617 145 L 660 117 Z" fill="black" /></g></svg>