<?xml version='1.0' encoding='utf-8'?>
<svg xmlns="http://www.w3.org/2000/svg" version="1.1" viewBox="0 0 1024 1024"><g transform="scale(1, -1) translate(0, -900)"><path d="M 762 504 Q 677 188 335 -5 Q 325 -11 326 -16 Q 327 -22 336 -21 Q 364 -18 424 8 Q 488 36 553 89 Q 632 150 702 250 Q 772 350 838 508 Q 856 542 885 564 Q 903 574 902 585 Q 901 601 866 618 Q 823 643 807 642 Q 794 641 780 630 Q 663 587 611 582 Q 604 582 599 580 C 569 575 550 565 579 556 Q 628 529 735 573 Q 762 583 774 577 Q 783 571 762 504 Z" fill="black" /></g></svg>