<?xml version='1.0' encoding='utf-8'?>
<svg xmlns="http://www.w3.org/2000/svg" version="1.1" viewBox="0 0 1024 1024"><g transform="scale(1, -1) translate(0, -900)"><path d="M 490 426 Q 475 423 473 414 Q 472 407 480 403 Q 519 397 570 418 Q 636 454 644 436 Q 648 426 636 409 Q 432 135 536 55 Q 564 36 623 20 Q 776 -16 941 54 Q 975 70 965 95 Q 943 153 927 247 Q 921 262 914 261 Q 908 261 903 244 Q 896 210 888 173 Q 878 121 837 101 Q 800 82 713 79 Q 626 76 594 92 Q 564 107 554 137 Q 536 215 665 363 Q 704 409 744 429 Q 769 442 761 456 Q 752 472 698 499 Q 679 511 649 495 Q 567 446 490 426 Z" fill="black" /></g></svg>