<?xml version='1.0' encoding='utf-8'?>
<svg xmlns="http://www.w3.org/2000/svg" version="1.1" viewBox="0 0 1024 1024"><g transform="scale(1, -1) translate(0, -900)"><path d="M 541 595 Q 548 598 559 601 Q 620 623 679 646 Q 686 647 691 644 Q 695 638 694 625 Q 589 10 932 -13 Q 947 -12 965 -12 Q 981 -11 984 -3 Q 991 9 981 36 Q 971 81 972 158 Q 972 171 966 179 Q 959 186 954 168 Q 933 95 922 73 Q 916 63 909 61 Q 897 55 887 57 Q 853 60 818 93 Q 728 171 719 353 Q 715 444 736 540 Q 749 607 790 649 Q 802 659 790 668 Q 777 684 741 698 Q 708 710 694 700 Q 628 657 529 627 C 500 618 513 585 541 595 Z" fill="black" /></g></svg>