<?xml version='1.0' encoding='utf-8'?>
<svg xmlns="http://www.w3.org/2000/svg" version="1.1" viewBox="0 0 1024 1024"><g transform="scale(1, -1) translate(0, -900)"><path d="M 538 498 Q 539 532 541 565 L 543 613 Q 543 640 545 666 L 547 712 Q 550 746 554 765 Q 563 784 550 796 Q 534 809 506 822 Q 484 831 462 821 Q 450 814 465 797 Q 484 764 492 702 L 495 658 Q 496 631 496 601 L 496 556 Q 499 550 496 491 L 495 452 Q 491 409 503 375 Q 509 363 518 370 Q 533 382 537 458 L 538 498 Z" fill="black" /></g></svg>