<?xml version='1.0' encoding='utf-8'?>
<svg xmlns="http://www.w3.org/2000/svg" version="1.1" viewBox="0 0 1024 1024"><g transform="scale(1, -1) translate(0, -900)"><path d="M 736 91 Q 726 76 715 78 Q 682 97 636 122 Q 621 129 620 126 Q 619 122 633 103 Q 670 57 688 5 Q 697 -13 706 -16 Q 713 -19 734 -5 Q 792 38 832 112 Q 869 191 905 407 Q 911 434 924 445 Q 937 457 924 473 Q 909 488 879 506 Q 857 519 783 500 Q 779 500 776 499 Q 652 474 577 464 Q 570 454 562 462 Q 563 483 679 617 Q 737 681 762 687 Q 778 694 778 701 Q 779 708 774 714 Q 752 735 725 747 Q 709 754 628 728 Q 559 707 518 707 Q 503 707 500 702 Q 499 698 504 689 Q 511 679 526 671 Q 541 661 587 674 Q 690 708 693 702 Q 689 675 558 516 Q 555 515 554 512 Q 533 487 505 463 Q 484 453 496 417 Q 497 407 526 414 Q 545 421 571 426 L 605 434 Q 642 444 693 454 Q 694 455 696 454 L 735 460 Q 787 470 816 470 Q 838 469 840 459 Q 858 366 792 189 Q 753 113 749 106 Q 742 99 736 91 Z" fill="black" /></g></svg>