<?xml version='1.0' encoding='utf-8'?>
<svg xmlns="http://www.w3.org/2000/svg" version="1.1" viewBox="0 0 1024 1024"><g transform="scale(1, -1) translate(0, -900)"><path d="M 731 540 Q 783 556 836 564 Q 846 565 849 560 Q 858 542 855 494 Q 845 319 812 227 Q 796 169 777 150 Q 767 140 747 147 Q 722 156 698 164 Q 677 171 691 151 Q 728 105 747 70 Q 754 51 773 55 Q 792 59 817 88 Q 887 163 903 453 Q 907 517 930 555 Q 945 576 936 584 Q 921 600 888 614 Q 866 624 802 597 Q 694 564 634 560 Q 616 561 617 552 Q 616 543 636 532 Q 654 522 693 530 L 731 540 Z" fill="black" /></g></svg>