<?xml version='1.0' encoding='utf-8'?>
<svg xmlns="http://www.w3.org/2000/svg" version="1.1" viewBox="0 0 1024 1024"><g transform="scale(1, -1) translate(0, -900)"><path d="M 471 515 Q 465 314 433 272 Q 421 254 432 234 Q 444 215 461 207 Q 471 200 483 217 Q 502 247 601 342 Q 626 361 629 372 Q 630 379 625 380 Q 619 381 519 316 Q 504 303 502 324 Q 509 424 515 529 L 517 577 Q 524 751 530 766 Q 537 784 524 797 Q 502 815 477 821 Q 449 828 440 816 Q 433 806 445 793 Q 463 777 467 737 Q 474 683 472 559 L 471 515 Z" fill="black" /></g></svg>