<?xml version='1.0' encoding='utf-8'?>
<svg xmlns="http://www.w3.org/2000/svg" version="1.1" viewBox="0 0 1024 1024"><g transform="scale(1, -1) translate(0, -900)"><path d="M 695 441 Q 695 622 721 701 Q 727 735 716 744 Q 715 745 714 746 Q 687 770 651 779 Q 632 782 624 773 Q 617 764 624 755 Q 645 737 648 683 Q 648 236 664 168 Q 673 126 710 102 Q 779 57 919 82 Q 923 85 929 85 Q 966 95 981 111 Q 1000 127 982 162 Q 963 223 958 301 Q 958 311 950 320 Q 940 326 937 303 Q 904 165 895 151 Q 891 141 871 137 Q 802 118 748 137 Q 721 146 709 179 Q 693 228 695 420 L 695 441 Z" fill="black" /></g></svg>