<?xml version='1.0' encoding='utf-8'?>
<svg xmlns="http://www.w3.org/2000/svg" version="1.1" viewBox="0 0 1024 1024"><g transform="scale(1, -1) translate(0, -900)"><path d="M 710 377 Q 710 266 710 114 Q 709 80 699 68 Q 687 61 658 69 Q 630 79 593 88 Q 580 91 581 84 Q 582 77 592 67 Q 665 13 712 -31 Q 724 -40 737 -24 Q 776 31 772 108 Q 760 324 763 446 L 764 492 Q 765 559 772 623 Q 778 650 772 660 Q 763 672 737 686 C 711 702 686 707 693 678 Q 708 627 710 535 Q 710 511 711 482 L 710 377 Z" fill="black" /></g></svg>