<?xml version='1.0' encoding='utf-8'?>
<svg xmlns="http://www.w3.org/2000/svg" version="1.1" viewBox="0 0 1024 1024"><g transform="scale(1, -1) translate(0, -900)"><path d="M 710 392 Q 771 399 813 403 Q 855 407 857 418 Q 858 433 828 451 Q 795 469 711 441 L 664 430 Q 624 424 576 415 Q 557 412 555 417 Q 554 421 561 437 Q 588 501 632 616 L 652 667 Q 673 743 703 767 Q 722 783 710 794 Q 653 845 628 840 Q 618 839 625 817 Q 637 778 599 658 L 582 606 Q 537 468 487 423 Q 463 405 481 355 Q 488 339 505 346 Q 571 373 665 385 L 710 392 Z" fill="black" /></g></svg>