<?xml version='1.0' encoding='utf-8'?>
<svg xmlns="http://www.w3.org/2000/svg" version="1.1" viewBox="0 0 1024 1024"><g transform="scale(1, -1) translate(0, -900)"><path d="M 523 644 Q 510 654 475 662 Q 459 665 453 659 Q 446 652 458 635 Q 489 593 493 449 Q 493 257 438 186 Q 435 183 434 180 Q 424 168 432 147 Q 442 119 456 106 Q 469 97 482 113 Q 518 167 632 281 Q 648 293 648 302 Q 649 308 643 307 Q 636 306 545 245 Q 538 241 534 244 Q 527 247 528 265 Q 535 580 540 613 Q 541 623 538 631 C 538 637 538 637 523 644 Z" fill="black" /></g></svg>