<?xml version='1.0' encoding='utf-8'?>
<svg xmlns="http://www.w3.org/2000/svg" version="1.1" viewBox="0 0 1024 1024"><g transform="scale(1, -1) translate(0, -900)"><path d="M 923 114 Q 910 142 892 225 Q 892 241 885 246 Q 879 249 875 232 Q 848 142 830 114 Q 817 98 779 88 Q 692 67 617 97 Q 587 110 580 129 Q 561 166 566 260 L 567 281 Q 571 336 582 400 Q 586 418 575 428 Q 562 441 538 451 Q 525 455 516 450 Q 509 446 514 428 Q 527 388 525 349 Q 515 162 530 109 Q 534 84 558 63 Q 637 2 795 24 Q 814 28 835 33 Q 875 45 916 74 Q 935 89 923 114 Z" fill="black" /></g></svg>