<?xml version='1.0' encoding='utf-8'?>
<svg xmlns="http://www.w3.org/2000/svg" version="1.1" viewBox="0 0 1024 1024"><g transform="scale(1, -1) translate(0, -900)"><path d="M 673 439 Q 790 120 958 77 Q 959 77 963 76 Q 991 77 987 112 Q 977 143 972 286 Q 972 299 966 301 Q 960 301 957 288 Q 947 257 936 226 Q 923 186 909 186 Q 890 187 852 225 Q 812 262 777 321 Q 750 366 715 453 L 703 495 Q 682 579 703 632 Q 712 656 666 680 Q 663 681 662 681 C 636 695 609 690 622 663 Q 637 638 641 600 Q 648 536 662 480 L 673 439 Z" fill="black" /></g></svg>