<?xml version='1.0' encoding='utf-8'?>
<svg xmlns="http://www.w3.org/2000/svg" version="1.1" viewBox="0 0 1024 1024"><g transform="scale(1, -1) translate(0, -900)"><path d="M 922 511 Q 907 548 898 614 Q 897 629 889 634 Q 882 638 878 620 Q 859 542 845 529 Q 835 517 808 508 Q 708 487 648 506 Q 629 516 623 529 Q 613 554 609 608 L 608 626 Q 608 729 628 782 Q 640 810 621 827 Q 572 861 557 858 Q 544 852 551 836 Q 570 800 567 747 Q 566 530 591 495 Q 610 465 678 455 Q 727 448 806 450 Q 878 453 905 468 Q 933 481 922 511 Z" fill="black" /></g></svg>