<?xml version='1.0' encoding='utf-8'?>
<svg xmlns="http://www.w3.org/2000/svg" version="1.1" viewBox="0 0 1024 1024"><g transform="scale(1, -1) translate(0, -900)"><path d="M 496 462 Q 481 475 459 487 Q 447 494 438 487 Q 431 481 439 464 Q 451 439 442 404 Q 426 346 411 324 Q 401 308 411 292 Q 421 267 434 261 Q 444 257 466 273 Q 488 295 550 313 L 596 326 Q 624 333 666 341 L 715 350 Q 806 374 840 369 Q 853 369 860 358 Q 869 342 838 218 Q 837 208 826 208 Q 801 215 768 224 Q 741 234 759 208 Q 805 156 814 132 Q 821 117 835 119 Q 848 118 865 132 Q 889 163 904 229 Q 913 307 942 340 Q 958 361 945 372 Q 920 396 883 415 Q 871 424 784 400 Q 718 387 715 385 L 666 374 Q 626 368 598 359 L 554 347 Q 539 346 527 340 Q 500 333 486 334 Q 479 335 480 348 Q 489 411 500 428 C 509 453 509 453 496 462 Z" fill="black" /></g></svg>