<?xml version='1.0' encoding='utf-8'?>
<svg xmlns="http://www.w3.org/2000/svg" version="1.1" viewBox="0 0 1024 1024"><g transform="scale(1, -1) translate(0, -900)"><path d="M 814 528 Q 836 586 864 606 Q 880 624 865 640 Q 849 653 800 674 Q 779 683 719 653 L 669 635 Q 638 628 606 618 L 558 607 Q 515 600 474 592 Q 458 591 460 580 Q 464 573 482 567 Q 507 557 542 571 Q 549 574 560 575 L 605 586 Q 635 595 669 602 L 718 615 Q 728 619 741 621 Q 766 628 777 619 Q 786 610 768 529 C 762 500 803 500 814 528 Z" fill="black" /></g></svg>