<?xml version='1.0' encoding='utf-8'?>
<svg xmlns="http://www.w3.org/2000/svg" version="1.1" viewBox="0 0 1024 1024"><g transform="scale(1, -1) translate(0, -900)"><path d="M 560 575 Q 561 526 561 475 L 560 442 Q 559 411 557 379 Q 556 364 554 347 L 550 313 Q 535 181 456 88 Q 431 63 398 34 Q 388 27 388 22 Q 389 18 400 20 Q 413 16 444 33 Q 547 81 584 234 Q 591 276 596 326 L 598 359 Q 599 378 600 400 Q 600 425 601 451 L 602 485 Q 603 537 605 586 L 606 618 Q 606 648 624 693 Q 630 706 619 717 Q 598 733 562 742 Q 538 748 531 741 Q 522 734 530 723 Q 551 693 558 607 L 560 575 Z" fill="black" /></g></svg>