<?xml version='1.0' encoding='utf-8'?>
<svg xmlns="http://www.w3.org/2000/svg" version="1.1" viewBox="0 0 1024 1024"><g transform="scale(1, -1) translate(0, -900)"><path d="M 713 195 Q 747 259 779 355 Q 789 383 808 401 Q 826 417 813 429 Q 800 439 770 449 Q 748 456 722 442 Q 697 432 665 421 L 623 411 Q 539 396 538 393 Q 534 386 551 379 Q 585 366 631 381 Q 694 403 705 402 Q 729 401 723 374 Q 707 289 677 229 L 655 191 Q 589 98 459 55 Q 446 51 458 44 Q 464 38 505 41 Q 604 53 685 152 L 713 195 Z" fill="black" /></g></svg>