<?xml version='1.0' encoding='utf-8'?>
<svg xmlns="http://www.w3.org/2000/svg" version="1.1" viewBox="0 0 1024 1024"><g transform="scale(1, -1) translate(0, -900)"><path d="M 517 448 Q 507 457 491 463 Q 478 467 471 462 Q 464 458 469 441 Q 481 404 478 369 Q 463 162 481 104 Q 485 74 514 49 Q 604 -26 818 2 Q 837 6 859 11 Q 911 26 962 61 Q 983 77 969 104 Q 956 125 937 192 Q 936 208 929 214 Q 923 218 918 199 Q 888 126 871 104 Q 853 82 800 68 Q 677 38 576 78 Q 536 97 526 122 Q 502 173 514 293 L 517 318 Q 521 364 531 415 Q 532 419 532 424 C 534 438 534 438 517 448 Z" fill="black" /></g></svg>