<?xml version='1.0' encoding='utf-8'?>
<svg xmlns="http://www.w3.org/2000/svg" version="1.1" viewBox="0 0 1024 1024"><g transform="scale(1, -1) translate(0, -900)"><path d="M 527 729 Q 515 738 494 748 Q 473 760 465 752 Q 458 745 465 729 Q 484 693 485 629 Q 492 385 471 158 Q 468 118 444 82 Q 434 66 442 45 Q 449 23 460 14 Q 470 5 488 18 Q 546 54 631 68 Q 728 83 915 76 Q 940 75 942 87 Q 942 103 913 124 Q 895 139 775 121 Q 589 108 551 100 Q 524 94 524 122 Q 531 335 535 604 Q 535 661 542 696 C 545 718 545 718 527 729 Z" fill="black" /></g></svg>