<?xml version='1.0' encoding='utf-8'?>
<svg xmlns="http://www.w3.org/2000/svg" version="1.1" viewBox="0 0 1024 1024"><g transform="scale(1, -1) translate(0, -900)"><path d="M 747 514 Q 784 521 822 525 Q 846 526 848 511 Q 854 376 836 356 Q 829 353 797 357 Q 784 361 781 357 Q 778 353 787 343 Q 821 310 842 286 Q 855 273 866 286 Q 893 319 894 392 Q 894 483 901 516 Q 905 532 896 541 Q 874 562 857 571 Q 847 575 839 568 Q 833 561 752 542 Q 749 542 747 541 L 702 532 Q 668 528 619 520 C 589 515 601 479 629 490 Q 645 499 703 506 L 747 514 Z" fill="black" /></g></svg>