<?xml version='1.0' encoding='utf-8'?>
<svg xmlns="http://www.w3.org/2000/svg" version="1.1" viewBox="0 0 1024 1024"><g transform="scale(1, -1) translate(0, -900)"><path d="M 420 43 Q 435 30 443 30 Q 450 31 456 37 Q 471 64 640 108 Q 742 133 836 147 C 866 152 862 182 832 180 Q 760 177 663 153 L 618 145 Q 528 130 501 116 Q 495 113 491 115 Q 488 118 503 196 Q 507 233 458 259 Q 452 262 446 263 Q 433 266 427 262 Q 423 256 434 235 Q 464 172 418 95 Q 397 82 399 69 Q 403 59 420 43 Z" fill="black" /></g></svg>