<?xml version='1.0' encoding='utf-8'?>
<svg xmlns="http://www.w3.org/2000/svg" version="1.1" viewBox="0 0 1024 1024"><g transform="scale(1, -1) translate(0, -900)"><path d="M 638 403 Q 638 431 639 459 L 639 494 Q 639 542 640 594 L 640 640 Q 644 716 659 772 Q 668 788 665 801 Q 658 811 602 845 Q 578 861 557 846 Q 553 842 559 825 Q 595 773 596 719 Q 597 676 598 628 L 599 584 Q 599 509 598 486 L 596 380 Q 592 172 576 95 Q 555 26 577 -22 Q 578 -29 583 -38 Q 590 -56 598 -59 Q 605 -66 612 -57 Q 619 -53 630 -32 Q 640 -7 638 25 Q 637 68 638 362 L 638 403 Z" fill="black" /></g></svg>