<?xml version='1.0' encoding='utf-8'?>
<svg xmlns="http://www.w3.org/2000/svg" version="1.1" viewBox="0 0 1024 1024"><g transform="scale(1, -1) translate(0, -900)"><path d="M 793 89 Q 818 56 839 25 Q 849 6 860 7 Q 878 8 893 44 Q 911 84 906 134 Q 893 279 883 546 Q 882 579 898 602 Q 907 615 897 626 Q 878 645 822 669 Q 803 679 787 668 Q 744 649 580 609 L 552 604 Q 542 603 535 602 C 505 598 517 563 546 569 Q 550 569 760 616 Q 793 623 809 611 Q 848 557 831 135 Q 827 114 807 123 Q 795 130 780 138 Q 768 144 765 139 C 753 142 775 113 793 89 Z" fill="black" /></g></svg>