<?xml version='1.0' encoding='utf-8'?>
<svg xmlns="http://www.w3.org/2000/svg" version="1.1" viewBox="0 0 1024 1024"><g transform="scale(1, -1) translate(0, -900)"><path d="M 606 322 Q 621 288 617 240 Q 611 74 637 41 Q 656 14 721 4 Q 770 -3 847 -1 Q 917 2 945 16 Q 973 32 961 63 Q 942 105 927 179 Q 924 194 917 198 Q 910 202 907 183 Q 897 92 884 75 Q 862 51 766 46 Q 714 46 692 55 Q 673 64 667 77 Q 646 135 668 233 Q 671 257 679 273 Q 692 307 655 331 C 632 350 596 350 606 322 Z" fill="black" /></g></svg>