<?xml version='1.0' encoding='utf-8'?>
<svg xmlns="http://www.w3.org/2000/svg" version="1.1" viewBox="0 0 1024 1024"><g transform="scale(1, -1) translate(0, -900)"><path d="M 691 488 Q 660 487 626 476 L 583 471 Q 534 467 474 461 C 444 458 464 422 494 425 Q 501 424 511 426 Q 542 433 581 439 L 622 446 Q 653 453 690 458 L 724 464 Q 758 471 797 476 Q 828 482 841 467 Q 856 443 847 318 L 845 289 Q 841 237 831 185 Q 830 164 820 162 Q 819 162 817 162 C 800 138 780 155 786 141 Q 796 117 820 72 Q 829 56 839 56 Q 854 59 862 84 Q 896 156 898 250 Q 904 308 908 377 Q 912 425 934 455 Q 950 474 938 488 Q 916 509 870 528 Q 851 538 819 525 Q 773 509 725 496 L 691 488 Z" fill="black" /></g></svg>