<?xml version='1.0' encoding='utf-8'?>
<svg xmlns="http://www.w3.org/2000/svg" version="1.1" viewBox="0 0 1024 1024"><g transform="scale(1, -1) translate(0, -900)"><path d="M 788 643 Q 729 637 666 624 L 629 615 Q 578 609 535 593 Q 516 589 521 610 Q 529 665 525 682 Q 519 698 498 711 Q 493 713 488 716 Q 477 723 469 719 Q 461 715 466 702 Q 476 671 476 665 Q 480 647 478 627 Q 473 594 455 571 Q 447 561 449 555 Q 449 553 451 550 Q 476 515 493 525 Q 494 526 496 527 Q 517 553 637 584 Q 736 610 778 610 Q 782 610 784 610 C 814 611 818 646 788 643 Z" fill="black" /></g></svg>