<?xml version='1.0' encoding='utf-8'?>
<svg xmlns="http://www.w3.org/2000/svg" version="1.1" viewBox="0 0 1024 1024"><g transform="scale(1, -1) translate(0, -900)"><path d="M 754 380 Q 754 373 757 364 Q 763 348 776 349 Q 789 350 797 366 Q 813 387 836 488 Q 852 540 888 571 Q 907 587 891 603 Q 872 619 822 645 Q 807 654 739 636 Q 718 636 667 622 L 620 612 Q 605 611 593 606 Q 535 593 495 585 C 466 579 489 550 519 554 Q 529 553 537 556 Q 568 568 622 578 L 667 588 Q 773 609 790 602 Q 800 595 795 559 Q 773 442 761 406 L 754 380 Z" fill="black" /></g></svg>