<?xml version='1.0' encoding='utf-8'?>
<svg xmlns="http://www.w3.org/2000/svg" version="1.1" viewBox="0 0 1024 1024"><g transform="scale(1, -1) translate(0, -900)"><path d="M 717 233 Q 756 121 830 46 Q 885 -5 914 -5 Q 933 -1 928 26 Q 924 75 927 216 Q 927 238 919 238 Q 912 238 906 218 Q 894 179 883 148 Q 873 114 860 114 Q 848 114 827 136 Q 782 190 750 267 L 734 318 Q 710 399 702 502 L 698 544 Q 688 673 707 752 Q 722 789 672 813 Q 641 829 622 825 Q 603 821 610 801 Q 650 759 647 728 Q 650 619 658 532 L 662 494 Q 674 377 704 276 L 717 233 Z" fill="black" /></g></svg>