<?xml version='1.0' encoding='utf-8'?>
<svg xmlns="http://www.w3.org/2000/svg" version="1.1" viewBox="0 0 1024 1024"><g transform="scale(1, -1) translate(0, -900)"><path d="M 490 311 Q 491 311 492 309 Q 511 284 511 245 Q 514 158 485 114 Q 466 90 503 55 Q 515 45 531 57 Q 601 106 784 106 Q 823 106 867 102 Q 891 98 900 105 Q 907 111 902 123 Q 896 136 856 160 Q 837 172 772 162 Q 711 162 567 131 Q 557 127 554 131 Q 547 135 550 152 Q 556 252 565 281 Q 571 294 558 305 Q 548 315 535 323 C 511 341 473 336 490 311 Z" fill="black" /></g></svg>