<?xml version='1.0' encoding='utf-8'?>
<svg xmlns="http://www.w3.org/2000/svg" version="1.1" viewBox="0 0 1024 1024"><g transform="scale(1, -1) translate(0, -900)"><path d="M 645 510 Q 694 523 756 533 Q 778 537 789 527 Q 801 520 805 469 Q 818 295 811 97 Q 811 69 800 60 Q 787 48 716 55 Q 700 56 702 47 Q 703 40 717 36 Q 781 0 817 -29 Q 839 -47 850 -44 Q 862 -40 871 -13 Q 884 30 880 94 Q 861 353 860 448 Q 860 485 871 508 Q 881 529 872 539 Q 862 554 816 575 Q 798 584 780 579 Q 743 566 660 546 Q 657 546 655 544 L 630 539 Q 567 529 504 519 C 474 514 487 476 517 481 Q 524 481 536 483 Q 567 493 605 501 L 645 510 Z" fill="black" /></g></svg>