<?xml version='1.0' encoding='utf-8'?>
<svg xmlns="http://www.w3.org/2000/svg" version="1.1" viewBox="0 0 1024 1024"><g transform="scale(1, -1) translate(0, -900)"><path d="M 711 396 Q 741 359 762 324 Q 769 308 781 308 Q 796 309 811 340 Q 829 376 825 420 Q 803 676 828 709 Q 837 721 828 731 Q 810 750 759 772 Q 743 781 727 772 Q 669 745 537 723 C 507 718 527 688 557 692 Q 573 693 717 722 Q 738 726 748 718 Q 769 702 762 496 Q 762 441 757 423 Q 753 408 741 412 C 716 396 710 398 711 396 Z" fill="black" /></g></svg>