<?xml version='1.0' encoding='utf-8'?>
<svg xmlns="http://www.w3.org/2000/svg" version="1.1" viewBox="0 0 1024 1024"><g transform="scale(1, -1) translate(0, -900)"><path d="M 537 723 Q 531 729 511 736 Q 502 740 492 736 Q 485 732 491 720 Q 492 713 496 706 Q 520 666 510 476 Q 492 395 523 356 Q 524 355 527 352 Q 537 340 546 352 Q 553 364 555 376 L 557 406 Q 558 422 557 443 Q 556 468 556 492 L 556 514 Q 555 559 555 591 L 555 618 Q 555 687 557 692 C 559 709 559 709 537 723 Z" fill="black" /></g></svg>