<?xml version='1.0' encoding='utf-8'?>
<svg xmlns="http://www.w3.org/2000/svg" version="1.1" viewBox="0 0 1024 1024"><g transform="scale(1, -1) translate(0, -900)"><path d="M 738 686 Q 741 687 800 705 Q 819 711 824 701 Q 837 662 842 365 Q 842 128 829 108 Q 823 104 762 115 Q 743 121 745 112 Q 793 67 821 35 Q 834 16 848 12 Q 857 9 865 18 Q 904 63 902 116 Q 889 305 886 611 Q 885 666 897 691 Q 907 709 896 719 Q 875 737 841 750 Q 823 757 808 749 Q 772 727 711 713 C 682 706 709 677 738 686 Z" fill="black" /></g></svg>