<?xml version='1.0' encoding='utf-8'?>
<svg xmlns="http://www.w3.org/2000/svg" version="1.1" viewBox="0 0 1024 1024"><g transform="scale(1, -1) translate(0, -900)"><path d="M 457 409 Q 457 410 458 413 Q 462 453 466 504 L 468 533 Q 471 644 475 669 C 477 686 477 686 462 693 Q 462 694 461 694 Q 418 715 404 712 Q 388 708 401 689 Q 434 635 416 415 Q 407 351 376 276 Q 349 207 258 116 Q 245 104 243 99 Q 242 92 252 93 Q 321 100 408 242 Q 417 260 426 277 Q 442 322 453 379 L 457 409 Z" fill="black" /></g></svg>