<?xml version='1.0' encoding='utf-8'?>
<svg xmlns="http://www.w3.org/2000/svg" version="1.1" viewBox="0 0 1024 1024"><g transform="scale(1, -1) translate(0, -900)"><path d="M 514 701 Q 515 702 519 703 Q 630 731 764 754 Q 782 755 790 745 Q 806 736 812 665 Q 831 427 818 154 Q 818 114 803 103 Q 790 93 719 110 Q 701 114 702 103 Q 703 94 717 88 Q 780 39 812 1 Q 836 -21 849 -18 Q 862 -14 875 17 Q 891 66 891 138 Q 861 672 885 719 Q 898 741 887 753 Q 877 769 828 794 Q 807 806 731 782 Q 526 743 495 739 C 465 734 485 693 514 701 Z" fill="black" /></g></svg>