<?xml version='1.0' encoding='utf-8'?>
<svg xmlns="http://www.w3.org/2000/svg" version="1.1" viewBox="0 0 1024 1024"><g transform="scale(1, -1) translate(0, -900)"><path d="M 609 416 Q 690 437 801 435 Q 823 434 824 446 Q 824 458 789 475 Q 762 490 722 475 Q 713 474 704 471 Q 533 438 522 443 Q 509 449 513 464 Q 510 525 510 590 L 511 626 Q 511 644 512 661 Q 515 685 494 703 Q 460 728 438 726 Q 419 725 429 705 Q 460 663 464 618 L 466 578 Q 472 460 461 437 Q 451 419 461 405 Q 477 383 490 383 Q 497 383 519 394 Q 546 403 580 410 L 609 416 Z" fill="black" /></g></svg>