<?xml version='1.0' encoding='utf-8'?>
<svg xmlns="http://www.w3.org/2000/svg" version="1.1" viewBox="0 0 1024 1024"><g transform="scale(1, -1) translate(0, -900)"><path d="M 690 405 Q 742 423 781 429 Q 791 430 792 428 Q 799 419 797 396 Q 796 330 783 300 Q 770 275 748 278 Q 729 282 712 289 Q 693 296 706 276 Q 740 242 756 215 Q 769 200 782 213 Q 821 238 841 345 Q 845 409 862 431 Q 871 441 865 449 Q 858 456 818 472 Q 802 478 789 467 Q 777 460 734 447 Q 704 438 677 432 C 648 425 662 395 690 405 Z" fill="black" /></g></svg>