<?xml version='1.0' encoding='utf-8'?>
<svg xmlns="http://www.w3.org/2000/svg" version="1.1" viewBox="0 0 1024 1024"><g transform="scale(1, -1) translate(0, -900)"><path d="M 820 330 Q 853 493 889 557 Q 899 569 895 580 Q 888 596 827 622 Q 811 629 722 605 L 676 595 Q 628 585 580 573 L 542 565 Q 499 558 455 549 C 426 543 439 501 467 511 Q 474 512 484 517 Q 512 526 544 533 L 581 542 Q 626 555 674 564 L 719 574 Q 771 593 797 579 Q 807 573 805 548 Q 792 454 762 320 C 756 291 814 301 820 330 Z" fill="black" /></g></svg>