<?xml version='1.0' encoding='utf-8'?>
<svg xmlns="http://www.w3.org/2000/svg" version="1.1" viewBox="0 0 1024 1024"><g transform="scale(1, -1) translate(0, -900)"><path d="M 783 271 Q 784 262 791 253 Q 804 225 814 226 Q 827 227 842 259 Q 857 284 855 304 Q 843 380 843 501 Q 842 535 861 565 Q 871 581 863 590 Q 836 614 791 633 Q 776 639 753 630 Q 705 612 596 592 L 573 589 Q 560 589 548 586 C 518 582 542 550 571 558 Q 602 568 740 590 Q 764 594 771 582 Q 786 564 787 503 Q 791 341 785 301 L 783 271 Z" fill="black" /></g></svg>