<?xml version='1.0' encoding='utf-8'?>
<svg xmlns="http://www.w3.org/2000/svg" version="1.1" viewBox="0 0 1024 1024"><g transform="scale(1, -1) translate(0, -900)"><path d="M 693 111 Q 683 54 673 33 Q 663 17 642 23 Q 576 38 579 42 Q 549 49 573 24 Q 609 -13 636 -51 Q 654 -75 670 -65 Q 728 -29 750 107 L 756 152 Q 759 206 764 261 L 767 303 Q 770 375 787 396 Q 805 418 792 430 Q 770 449 734 461 Q 716 468 642 441 Q 572 425 546 419 C 517 412 530 383 559 390 Q 584 394 673 422 Q 691 428 705 420 Q 717 411 716 374 Q 715 332 713 294 L 711 258 Q 707 195 700 151 L 693 111 Z" fill="black" /></g></svg>