<?xml version='1.0' encoding='utf-8'?>
<svg xmlns="http://www.w3.org/2000/svg" version="1.1" viewBox="0 0 1024 1024"><g transform="scale(1, -1) translate(0, -900)"><path d="M 542 444 L 544 443 Q 577 434 614 443 Q 617 444 623 444 L 658 448 Q 802 475 817 462 Q 827 432 821 277 Q 808 151 778 93 Q 765 65 747 63 Q 734 60 661 90 Q 651 94 651 88 Q 650 84 661 74 Q 704 26 723 -7 Q 733 -29 747 -28 Q 766 -29 783 -11 Q 846 40 867 168 Q 882 256 891 390 Q 892 421 911 443 Q 924 456 924 465 Q 923 472 903 487 Q 876 506 841 518 Q 819 525 767 508 Q 749 505 727 498 Q 648 480 563 466 C 533 461 513 450 542 444 Z" fill="black" /></g></svg>