<?xml version='1.0' encoding='utf-8'?>
<svg xmlns="http://www.w3.org/2000/svg" version="1.1" viewBox="0 0 1024 1024"><g transform="scale(1, -1) translate(0, -900)"><path d="M 720 353 Q 769 363 826 369 Q 845 369 853 360 Q 860 353 857 340 Q 856 123 840 93 Q 837 87 828 90 Q 804 94 778 101 Q 753 105 770 88 Q 827 37 850 1 Q 863 -15 877 -2 Q 893 17 902 46 Q 912 77 909 246 Q 908 310 925 341 Q 938 360 932 367 Q 925 379 877 407 Q 859 420 846 413 Q 821 403 772 392 Q 627 368 572 352 Q 532 342 500 336 C 471 330 492 294 521 301 Q 528 301 583 319 L 610 327 Q 649 342 684 346 L 720 353 Z" fill="black" /></g></svg>