<?xml version='1.0' encoding='utf-8'?>
<svg xmlns="http://www.w3.org/2000/svg" version="1.1" viewBox="0 0 1024 1024"><g transform="scale(1, -1) translate(0, -900)"><path d="M 750 107 Q 795 103 841 92 Q 857 88 869 93 Q 879 97 875 111 Q 868 127 848 140 Q 835 155 809 152 Q 793 151 756 152 L 700 151 Q 624 150 511 135 Q 495 134 501 152 Q 514 192 526 235 L 534 268 Q 558 370 559 390 C 562 408 562 408 546 419 Q 533 432 514 439 Q 495 446 492 437 Q 488 430 495 420 Q 514 392 510 358 Q 504 309 494 263 L 485 227 Q 482 221 481 213 Q 468 171 430 133 Q 414 120 416 104 Q 420 91 438 75 Q 454 62 474 79 Q 522 118 693 111 L 750 107 Z" fill="black" /></g></svg>