<?xml version='1.0' encoding='utf-8'?>
<svg xmlns="http://www.w3.org/2000/svg" version="1.1" viewBox="0 0 1024 1024"><g transform="scale(1, -1) translate(0, -900)"><path d="M 676 367 Q 712 376 749 380 Q 776 383 778 365 Q 787 242 770 224 Q 763 221 715 229 Q 700 233 697 229 Q 693 225 704 214 Q 750 175 778 146 Q 793 133 806 146 Q 836 182 834 229 Q 831 340 838 372 Q 841 391 831 400 Q 806 422 787 432 Q 774 438 766 429 Q 762 422 678 399 Q 677 399 677 398 L 625 387 Q 588 381 531 370 C 502 364 518 333 548 338 Q 555 339 565 341 Q 593 350 625 356 L 676 367 Z" fill="black" /></g></svg>