<?xml version='1.0' encoding='utf-8'?>
<svg xmlns="http://www.w3.org/2000/svg" version="1.1" viewBox="0 0 1024 1024"><g transform="scale(1, -1) translate(0, -900)"><path d="M 503 544 Q 512 514 502 471 L 491 424 Q 442 229 336 113 Q 314 85 290 58 Q 284 54 282 48 Q 278 39 287 39 Q 314 39 394 122 Q 410 141 427 164 Q 451 200 496 289 L 503 305 Q 525 360 541 416 Q 544 428 548 438 L 562 481 Q 563 488 568 495 Q 578 507 574 519 Q 562 537 537 554 Q 536 555 533 557 C 509 575 497 573 503 544 Z" fill="black" /></g></svg>