<?xml version='1.0' encoding='utf-8'?>
<svg xmlns="http://www.w3.org/2000/svg" version="1.1" viewBox="0 0 1024 1024"><g transform="scale(1, -1) translate(0, -900)"><path d="M 533 557 Q 603 585 679 603 Q 743 619 763 615 C 793 613 793 652 763 648 Q 705 641 654 628 L 615 619 Q 566 609 526 594 Q 513 593 517 607 Q 529 661 522 675 Q 512 691 492 703 Q 483 709 475 707 Q 466 704 471 688 Q 483 655 476 624 Q 470 594 457 581 Q 442 568 448 556 Q 457 543 470 534 Q 482 527 490 534 Q 494 540 503 544 L 533 557 Z" fill="black" /></g></svg>