<?xml version='1.0' encoding='utf-8'?>
<svg xmlns="http://www.w3.org/2000/svg" version="1.1" viewBox="0 0 1024 1024"><g transform="scale(1, -1) translate(0, -900)"><path d="M 649 496 Q 701 509 786 523 Q 844 533 860 532 Q 875 525 873 518 Q 873 517 848 452 Q 844 440 849 437 Q 855 434 868 444 Q 913 478 951 492 Q 982 504 981 511 Q 980 520 917 561 Q 896 576 759 544 Q 753 544 697 532 L 681 529 Q 629 520 563 505 Q 520 498 477 489 C 448 483 450 476 478 465 Q 497 453 520 460 Q 557 475 602 485 L 649 496 Z" fill="black" /></g></svg>