<?xml version='1.0' encoding='utf-8'?>
<svg xmlns="http://www.w3.org/2000/svg" version="1.1" viewBox="0 0 1024 1024"><g transform="scale(1, -1) translate(0, -900)"><path d="M 741 197 Q 795 95 863 36 Q 927 -12 956 -9 Q 977 -5 968 25 Q 959 77 953 231 Q 952 255 942 254 Q 936 253 931 232 Q 921 189 911 151 Q 902 112 889 110 Q 876 110 852 131 Q 809 177 774 237 L 751 285 Q 706 394 680 560 L 674 610 Q 664 697 675 763 Q 688 803 632 825 Q 598 841 577 833 Q 558 826 567 807 Q 613 765 613 732 Q 620 659 631 594 L 638 548 Q 668 368 722 239 L 741 197 Z" fill="black" /></g></svg>