<?xml version='1.0' encoding='utf-8'?>
<svg xmlns="http://www.w3.org/2000/svg" version="1.1" viewBox="0 0 1024 1024"><g transform="scale(1, -1) translate(0, -900)"><path d="M 670 659 Q 737 675 805 686 Q 833 693 838 681 Q 837 668 806 619 Q 796 606 804 601 Q 810 597 823 607 Q 899 650 928 656 Q 950 659 951 671 Q 951 684 882 724 Q 861 734 834 730 Q 759 709 695 696 Q 686 695 680 693 L 619 683 Q 573 677 520 669 C 490 665 491 651 519 639 Q 535 626 575 638 Q 591 642 609 645 L 670 659 Z" fill="black" /></g></svg>