<?xml version='1.0' encoding='utf-8'?>
<svg xmlns="http://www.w3.org/2000/svg" version="1.1" viewBox="0 0 1024 1024"><g transform="scale(1, -1) translate(0, -900)"><path d="M 658 240 Q 670 231 708 224 Q 733 218 741 203 Q 753 179 704 76 Q 683 31 664 27 Q 643 21 598 42 Q 561 55 558 50 Q 554 41 570 31 Q 615 -2 632 -41 Q 636 -57 647 -63 Q 660 -69 692 -49 Q 738 -13 776 104 Q 791 159 812 174 Q 822 178 825 186 Q 826 195 806 220 Q 775 254 726 254 Q 683 264 675 268 C 647 277 631 253 658 240 Z" fill="black" /></g></svg>