<?xml version='1.0' encoding='utf-8'?>
<svg xmlns="http://www.w3.org/2000/svg" version="1.1" viewBox="0 0 1024 1024"><g transform="scale(1, -1) translate(0, -900)"><path d="M 531 461 Q 595 542 615 557 Q 627 566 622 573 Q 621 580 573 599 Q 558 606 543 596 Q 527 586 501 578 Q 458 565 418 559 Q 403 558 414 546 Q 433 531 513 553 Q 526 556 532 550 Q 535 546 525 530 Q 512 505 493 478 L 472 450 Q 471 449 470 448 Q 440 414 384 368 Q 374 358 385 358 Q 427 365 499 428 L 531 461 Z" fill="black" /></g></svg>