<?xml version='1.0' encoding='utf-8'?>
<svg xmlns="http://www.w3.org/2000/svg" version="1.1" viewBox="0 0 1024 1024"><g transform="scale(1, -1) translate(0, -900)"><path d="M 595 729 Q 598 729 642 750 Q 655 757 661 756 Q 667 755 667 744 Q 661 642 674 627 Q 678 621 687 614 Q 714 601 764 601 Q 813 602 838 617 Q 850 621 843 634 Q 830 649 815 657 Q 805 663 786 654 Q 761 641 729 642 Q 710 642 703 657 Q 697 670 706 706 Q 710 728 733 749 Q 748 762 733 774 Q 714 790 692 799 Q 683 802 615 768 Q 597 764 580 758 C 551 749 567 718 595 729 Z" fill="black" /></g></svg>