<?xml version='1.0' encoding='utf-8'?>
<svg xmlns="http://www.w3.org/2000/svg" version="1.1" viewBox="0 0 1024 1024"><g transform="scale(1, -1) translate(0, -900)"><path d="M 767 509 Q 800 518 898 515 Q 916 515 923 525 Q 927 532 911 542 Q 865 576 811 556 Q 786 553 768 546 L 729 538 Q 696 532 667 524 Q 645 517 651 536 Q 661 567 669 580 Q 676 587 672 597 Q 668 606 639 619 Q 624 626 616 622 Q 607 615 615 603 Q 636 564 598 517 Q 585 511 587 493 Q 588 483 603 472 Q 613 465 625 475 Q 670 499 729 504 L 767 509 Z" fill="black" /></g></svg>