<?xml version='1.0' encoding='utf-8'?>
<svg xmlns="http://www.w3.org/2000/svg" version="1.1" viewBox="0 0 1024 1024"><g transform="scale(1, -1) translate(0, -900)"><path d="M 664 398 Q 665 432 665 463 L 666 491 Q 666 515 667 537 L 668 573 Q 668 601 668 627 L 669 654 Q 669 684 670 716 L 673 755 Q 674 768 677 779 Q 683 801 686 818 Q 689 828 669 842 Q 635 858 613 862 Q 597 865 590 857 Q 583 850 591 836 Q 619 797 620 743 L 622 708 Q 623 678 624 646 L 625 619 Q 626 591 626 559 L 627 527 Q 627 506 626 483 L 626 458 Q 626 425 625 390 C 624 360 663 368 664 398 Z" fill="black" /></g></svg>