<?xml version='1.0' encoding='utf-8'?>
<svg xmlns="http://www.w3.org/2000/svg" version="1.1" viewBox="0 0 1024 1024"><g transform="scale(1, -1) translate(0, -900)"><path d="M 728 91 Q 768 21 827 -33 Q 881 -84 909 -85 Q 928 -82 924 -54 Q 923 -5 934 134 Q 935 158 927 159 Q 921 159 883 68 Q 865 23 837 43 Q 828 49 817 59 Q 789 90 766 125 L 741 165 Q 702 234 676 330 L 666 373 Q 609 640 634 778 Q 647 815 596 837 Q 565 853 545 846 Q 526 840 534 822 Q 576 782 575 751 Q 594 504 628 361 L 638 321 Q 668 209 708 129 L 728 91 Z" fill="black" /></g></svg>