<?xml version='1.0' encoding='utf-8'?>
<svg xmlns="http://www.w3.org/2000/svg" version="1.1" viewBox="0 0 1024 1024"><g transform="scale(1, -1) translate(0, -900)"><path d="M 633 649 Q 633 703 635 726 C 636 743 636 743 626 749 Q 616 756 598 765 Q 582 772 576 767 Q 570 761 577 750 Q 604 693 592 501 Q 591 470 572 442 Q 565 429 572 413 Q 579 397 587 390 Q 594 384 608 394 Q 666 436 844 444 Q 863 444 864 453 Q 863 465 840 481 Q 828 490 743 475 Q 668 466 647 459 Q 634 459 634 496 Q 633 512 633 529 L 633 554 Q 633 588 633 624 L 633 649 Z" fill="black" /></g></svg>