<?xml version='1.0' encoding='utf-8'?>
<svg xmlns="http://www.w3.org/2000/svg" version="1.1" viewBox="0 0 1024 1024"><g transform="scale(1, -1) translate(0, -900)"><path d="M 709 199 Q 727 168 745 157 Q 755 150 770 170 Q 783 189 813 298 Q 823 328 846 351 Q 859 363 848 376 Q 835 392 793 419 Q 778 428 702 412 Q 683 412 645 404 L 593 395 Q 577 394 561 390 Q 515 383 476 376 C 446 371 464 338 493 345 Q 535 355 593 365 L 644 373 Q 738 391 755 376 Q 765 363 763 351 Q 744 254 729 224 C 718 196 703 208 709 199 Z" fill="black" /></g></svg>