<?xml version='1.0' encoding='utf-8'?>
<svg xmlns="http://www.w3.org/2000/svg" version="1.1" viewBox="0 0 1024 1024"><g transform="scale(1, -1) translate(0, -900)"><path d="M 747 125 Q 757 112 769 106 Q 779 99 791 118 Q 801 137 824 237 Q 831 265 851 287 Q 863 297 852 310 Q 839 325 800 347 Q 784 353 721 339 Q 694 339 504 301 C 475 295 485 266 514 272 Q 517 272 522 273 Q 556 283 603 290 L 638 296 Q 677 303 728 309 Q 756 313 766 303 Q 776 293 775 281 Q 762 185 755 170 Q 751 161 742 157 C 728 145 728 145 747 125 Z" fill="black" /></g></svg>