<?xml version='1.0' encoding='utf-8'?>
<svg xmlns="http://www.w3.org/2000/svg" version="1.1" viewBox="0 0 1024 1024"><g transform="scale(1, -1) translate(0, -900)"><path d="M 631 342 Q 628 293 638 262 Q 642 252 650 258 Q 665 271 666 349 L 667 381 Q 668 397 669 413 L 670 446 Q 670 465 671 485 L 672 515 Q 673 543 675 563 L 679 601 Q 679 602 680 603 Q 687 619 676 629 Q 664 639 641 651 Q 622 658 604 650 Q 594 643 606 630 Q 619 606 625 586 L 629 554 Q 630 532 631 507 L 633 478 Q 633 459 633 435 L 633 407 Q 632 389 632 371 L 631 342 Z" fill="black" /></g></svg>