<?xml version='1.0' encoding='utf-8'?>
<svg xmlns="http://www.w3.org/2000/svg" version="1.1" viewBox="0 0 1024 1024"><g transform="scale(1, -1) translate(0, -900)"><path d="M 965 82 Q 984 101 960 134 Q 935 194 921 273 Q 920 283 911 292 Q 899 296 898 272 Q 879 142 870 125 Q 849 94 733 95 Q 654 94 626 126 Q 587 174 602 442 Q 608 563 622 641 Q 629 683 637 694 Q 646 718 625 732 Q 595 759 556 768 Q 535 772 527 763 Q 518 753 526 743 Q 547 725 551 667 Q 551 622 549 531 Q 540 242 561 143 Q 571 95 616 68 Q 700 20 871 45 Q 884 48 897 51 Q 945 64 965 82 Z" fill="black" /></g></svg>