<?xml version='1.0' encoding='utf-8'?>
<svg xmlns="http://www.w3.org/2000/svg" version="1.1" viewBox="0 0 1024 1024"><g transform="scale(1, -1) translate(0, -900)"><path d="M 326 363 Q 353 403 383 452 Q 417 510 467 549 Q 483 562 470 576 Q 449 592 419 602 Q 397 611 379 599 Q 282 533 126 526 Q 113 527 111 520 Q 108 510 123 499 Q 162 474 179 476 Q 200 480 220 489 Q 272 510 334 534 Q 353 541 357 533 Q 364 524 351 499 Q 276 343 100 164 Q 85 152 88 149 Q 91 146 104 152 Q 203 203 302 331 L 326 363 Z" fill="black" /></g></svg>