<?xml version='1.0' encoding='utf-8'?>
<svg xmlns="http://www.w3.org/2000/svg" version="1.1" viewBox="0 0 1024 1024"><g transform="scale(1, -1) translate(0, -900)"><path d="M 282 354 Q 313 396 350 448 Q 384 500 432 535 Q 448 547 436 563 Q 415 579 385 590 Q 361 599 343 587 Q 252 529 106 522 Q 94 525 91 516 Q 88 506 103 496 Q 142 468 159 471 Q 186 477 305 525 Q 323 531 326 524 Q 332 515 319 493 Q 244 351 73 193 Q 57 181 60 177 Q 63 174 77 179 Q 161 218 255 322 L 282 354 Z" fill="black" /></g></svg>