<?xml version='1.0' encoding='utf-8'?>
<svg xmlns="http://www.w3.org/2000/svg" version="1.1" viewBox="0 0 1024 1024"><g transform="scale(1, -1) translate(0, -900)"><path d="M 970 178 Q 957 208 944 300 Q 944 316 937 322 Q 931 326 925 308 Q 894 211 872 181 Q 857 162 812 148 Q 709 120 615 157 Q 579 173 569 197 Q 535 264 547 429 L 550 469 Q 554 532 566 601 Q 566 604 566 606 C 569 625 569 625 550 636 Q 537 648 516 655 Q 503 659 493 654 Q 486 650 491 630 Q 507 587 504 545 Q 491 253 516 174 Q 522 146 549 121 Q 646 46 846 83 Q 856 86 868 89 Q 916 104 962 137 Q 981 152 970 178 Z" fill="black" /></g></svg>