<?xml version='1.0' encoding='utf-8'?>
<svg xmlns="http://www.w3.org/2000/svg" version="1.1" viewBox="0 0 1024 1024"><g transform="scale(1, -1) translate(0, -900)"><path d="M 645 441 Q 705 240 830 118 Q 843 106 861 93 Q 919 53 955 46 Q 983 47 979 83 Q 969 116 968 266 Q 968 279 962 281 Q 956 281 952 268 Q 940 234 930 202 Q 915 159 900 159 Q 879 160 840 199 Q 798 236 762 296 Q 711 374 687 455 L 677 495 Q 667 567 681 615 Q 688 636 648 660 Q 641 666 633 669 C 607 685 579 677 593 650 Q 611 623 617 580 Q 624 528 635 480 L 645 441 Z" fill="black" /></g></svg>