<?xml version='1.0' encoding='utf-8'?>
<svg xmlns="http://www.w3.org/2000/svg" version="1.1" viewBox="0 0 1024 1024"><g transform="scale(1, -1) translate(0, -900)"><path d="M 275 360 Q 305 402 338 453 Q 371 507 416 541 Q 431 553 419 567 Q 401 582 373 592 Q 351 599 335 589 Q 293 562 215 544 Q 170 541 124 536 Q 112 537 110 531 Q 106 521 120 511 Q 153 487 187 491 Q 308 531 311 531 Q 311 530 313 528 Q 319 521 306 497 Q 237 356 72 191 Q 57 181 60 177 Q 63 174 76 180 Q 155 219 249 327 L 275 360 Z" fill="black" /></g></svg>