<?xml version='1.0' encoding='utf-8'?>
<svg xmlns="http://www.w3.org/2000/svg" version="1.1" viewBox="0 0 1024 1024"><g transform="scale(1, -1) translate(0, -900)"><path d="M 674 543 Q 674 592 676 630 L 678 680 Q 684 746 698 770 Q 706 786 685 801 Q 656 823 623 829 Q 600 833 588 821 Q 578 814 590 801 Q 621 775 623 739 L 623 665 L 625 620 L 625 531 L 625 488 L 625 402 L 623 365 Q 623 -18 635 -45 L 639 -53 Q 655 -69 662 -47 Q 677 -10 674 312 Q 674 361 674 374 L 674 410 L 674 498 L 674 543 Z" fill="black" /></g></svg>