<?xml version='1.0' encoding='utf-8'?>
<svg xmlns="http://www.w3.org/2000/svg" version="1.1" viewBox="0 0 1024 1024"><g transform="scale(1, -1) translate(0, -900)"><path d="M 625 402 Q 580 396 539 386 Q 512 379 471 374 Q 429 368 453 350 Q 455 347 460 345 Q 493 326 525 336 Q 586 355 623 365 L 674 374 Q 836 404 858 385 Q 863 379 861 368 Q 831 237 816 217 Q 809 208 802 207 Q 800 207 745 220 L 727 223 Q 710 225 710 220 Q 710 216 717 208 Q 770 161 802 116 Q 809 106 814 106 Q 817 106 822 108 Q 856 129 893 252 Q 905 320 935 351 Q 951 369 946 378 Q 939 391 888 427 Q 873 440 862 439 L 806 427 L 674 410 L 625 402 Z" fill="black" /></g></svg>