<?xml version='1.0' encoding='utf-8'?>
<svg xmlns="http://www.w3.org/2000/svg" version="1.1" viewBox="0 0 1024 1024"><g transform="scale(1, -1) translate(0, -900)"><path d="M 707 199 Q 740 257 770 345 Q 783 376 803 396 Q 822 412 808 427 Q 795 440 760 450 Q 735 457 707 442 Q 680 432 644 422 Q 616 415 574 408 C 544 403 531 380 561 377 Q 592 371 631 381 Q 677 399 686 399 Q 714 396 707 366 Q 692 291 667 238 L 646 200 Q 586 116 471 77 Q 458 70 470 63 Q 476 59 514 61 Q 598 68 679 158 L 707 199 Z" fill="black" /></g></svg>