<?xml version='1.0' encoding='utf-8'?>
<svg xmlns="http://www.w3.org/2000/svg" version="1.1" viewBox="0 0 1024 1024"><g transform="scale(1, -1) translate(0, -900)"><path d="M 265 363 Q 301 412 338 469 Q 371 527 418 563 Q 435 576 420 591 Q 388 613 359 617 Q 338 619 326 610 Q 251 550 100 531 Q 88 533 85 525 Q 84 515 98 505 Q 138 480 157 484 Q 172 486 292 547 Q 308 554 312 548 Q 318 539 306 515 Q 233 368 65 198 Q 48 186 52 182 Q 59 176 94 198 Q 166 241 241 331 L 265 363 Z" fill="black" /></g></svg>