<?xml version='1.0' encoding='utf-8'?>
<svg xmlns="http://www.w3.org/2000/svg" version="1.1" viewBox="0 0 1024 1024"><g transform="scale(1, -1) translate(0, -900)"><path d="M 551 206 Q 591 119 743 96 Q 830 84 900 126 Q 916 133 915 144 Q 911 157 890 176 Q 857 204 770 302 Q 763 309 757 310 Q 754 309 756 301 Q 772 255 788 204 Q 795 182 782 169 Q 755 153 670 174 Q 607 193 578 240 L 555 292 Q 536 343 529 393 Q 525 417 507 428 Q 494 437 487 431 Q 486 431 511 322 Q 517 288 530 253 L 551 206 Z" fill="black" /></g></svg>