<?xml version='1.0' encoding='utf-8'?>
<svg xmlns="http://www.w3.org/2000/svg" version="1.1" viewBox="0 0 1024 1024"><g transform="scale(1, -1) translate(0, -900)"><path d="M 498 621 Q 483 636 439 646 Q 423 649 417 643 Q 410 636 422 619 Q 449 583 456 483 Q 456 252 419 186 Q 410 171 396 154 Q 384 142 392 121 Q 401 93 415 80 Q 428 70 441 85 Q 477 133 586 230 Q 602 240 604 250 Q 607 256 600 256 Q 593 255 509 214 Q 502 213 500 214 Q 493 218 494 236 Q 498 561 504 597 Q 504 601 504 606 C 505 617 505 617 498 621 Z" fill="black" /></g></svg>