<?xml version='1.0' encoding='utf-8'?>
<svg xmlns="http://www.w3.org/2000/svg" version="1.1" viewBox="0 0 1024 1024"><g transform="scale(1, -1) translate(0, -900)"><path d="M 281 366 Q 315 409 354 468 Q 388 520 432 553 Q 448 565 435 579 Q 416 595 387 605 Q 365 615 347 603 Q 263 545 118 538 Q 105 539 103 532 Q 100 522 115 511 Q 154 486 171 488 Q 183 489 313 540 Q 329 546 334 538 Q 338 531 327 508 Q 249 364 92 219 Q 77 209 80 205 Q 83 202 96 207 Q 168 243 256 336 L 281 366 Z" fill="black" /></g></svg>