<?xml version='1.0' encoding='utf-8'?>
<svg xmlns="http://www.w3.org/2000/svg" version="1.1" viewBox="0 0 1024 1024"><g transform="scale(1, -1) translate(0, -900)"><path d="M 212 482 Q 218 443 222 374 Q 236 202 227 141 Q 224 117 221 110 Q 216 100 194 100 L 192 100 Q 139 109 114 112 Q 102 112 102 104 Q 101 103 102 102 Q 104 95 138 74 Q 198 35 223 8 Q 237 -2 253 -2 Q 255 -2 255 -1 Q 265 2 277 38 Q 290 69 286 118 Q 282 171 280 394 Q 280 398 280 408 Q 285 452 276 468 Q 267 488 259 490 C 238 512 208 512 212 482 Z" fill="black" /></g></svg>