<?xml version='1.0' encoding='utf-8'?>
<svg xmlns="http://www.w3.org/2000/svg" version="1.1" viewBox="0 0 1024 1024"><g transform="scale(1, -1) translate(0, -900)"><path d="M 648 427 Q 678 273 783 140 Q 807 112 839 85 Q 894 46 928 39 Q 955 40 951 74 Q 941 108 944 267 Q 944 280 938 281 Q 932 281 929 269 Q 919 232 909 195 Q 896 147 879 147 Q 860 150 823 189 Q 784 228 752 288 Q 715 357 689 440 L 680 487 Q 674 568 689 603 Q 698 630 641 660 C 615 676 592 671 605 644 Q 623 617 626 573 Q 630 521 639 472 L 648 427 Z" fill="black" /></g></svg>