<?xml version='1.0' encoding='utf-8'?>
<svg xmlns="http://www.w3.org/2000/svg" version="1.1" viewBox="0 0 1024 1024"><g transform="scale(1, -1) translate(0, -900)"><path d="M 773 176 Q 554 136 550 138 Q 549 142 555 149 Q 646 272 682 303 Q 698 318 688 328 Q 678 340 650 347 C 621 356 600 363 602 340 Q 601 336 603 325 Q 612 280 510 160 Q 489 144 459 126 Q 422 110 435 78 Q 436 72 441 64 Q 451 45 465 39 Q 474 36 485 42 Q 573 103 776 154 Q 779 155 784 156 C 813 163 803 181 773 176 Z" fill="black" /></g></svg>