<?xml version='1.0' encoding='utf-8'?>
<svg xmlns="http://www.w3.org/2000/svg" version="1.1" viewBox="0 0 1024 1024"><g transform="scale(1, -1) translate(0, -900)"><path d="M 303 426 Q 331 486 389 530 Q 402 542 391 556 Q 372 569 343 579 Q 321 586 305 575 Q 224 515 78 503 Q 66 504 64 497 Q 61 487 76 478 Q 112 456 128 458 Q 144 462 267 516 Q 285 523 289 516 Q 295 507 283 485 Q 216 341 59 184 Q 46 172 48 169 Q 51 166 64 172 Q 151 218 239 331 L 261 362 Q 276 384 292 409 L 303 426 Z" fill="black" /></g></svg>