<?xml version='1.0' encoding='utf-8'?>
<svg xmlns="http://www.w3.org/2000/svg" version="1.1" viewBox="0 0 1024 1024"><g transform="scale(1, -1) translate(0, -900)"><path d="M 529 653 Q 545 657 565 660 Q 646 673 678 670 C 708 669 711 704 681 702 Q 602 696 531 684 L 476 676 Q 406 666 346 649 Q 333 648 338 663 Q 356 720 350 733 Q 340 749 321 765 Q 312 772 303 771 Q 293 770 297 752 Q 307 716 296 684 Q 287 653 272 641 Q 256 628 260 614 Q 269 601 283 590 Q 289 584 311 594 Q 339 615 476 642 L 529 653 Z" fill="black" /></g></svg>