<?xml version='1.0' encoding='utf-8'?>
<svg xmlns="http://www.w3.org/2000/svg" version="1.1" viewBox="0 0 1024 1024"><g transform="scale(1, -1) translate(0, -900)"><path d="M 772 320 Q 788 296 805 289 Q 815 282 831 303 Q 846 330 875 474 Q 884 507 908 533 Q 921 546 909 560 Q 893 578 849 604 Q 833 611 743 594 Q 733 594 690 585 L 641 577 Q 620 576 598 571 Q 534 558 481 551 C 451 547 489 512 518 519 Q 567 532 641 543 L 690 551 Q 721 557 763 561 Q 797 565 808 553 Q 823 537 820 521 Q 796 365 779 353 C 765 329 765 329 772 320 Z" fill="black" /></g></svg>