<?xml version='1.0' encoding='utf-8'?>
<svg xmlns="http://www.w3.org/2000/svg" version="1.1" viewBox="0 0 1024 1024"><g transform="scale(1, -1) translate(0, -900)"><path d="M 951 68 Q 966 81 949 108 Q 930 154 923 216 Q 922 226 914 236 Q 904 242 901 218 Q 892 196 881 157 Q 865 103 839 95 Q 770 77 731 94 Q 706 103 698 129 Q 676 204 685 439 Q 692 671 719 713 Q 732 756 646 783 Q 643 784 641 784 Q 622 788 613 778 Q 606 769 613 759 Q 628 746 635 724 Q 639 697 636 535 Q 626 214 651 118 Q 657 82 693 59 Q 763 16 896 43 Q 897 44 901 44 Q 935 54 951 68 Z" fill="black" /></g></svg>