<?xml version='1.0' encoding='utf-8'?>
<svg xmlns="http://www.w3.org/2000/svg" version="1.1" viewBox="0 0 1024 1024"><g transform="scale(1, -1) translate(0, -900)"><path d="M 479 696 Q 457 696 457 684 Q 458 674 481 658 Q 508 640 558 656 Q 792 725 800 686 Q 801 661 799 548 Q 795 335 799 202 Q 803 105 794 93 Q 791 83 779 81 Q 767 80 695 80 Q 682 81 679 75 Q 678 66 708 52 Q 757 27 793 -2 Q 824 -27 834 -22 Q 844 -19 851 -2 Q 875 55 868 91 Q 826 623 881 678 Q 888 690 887 695 Q 888 707 856 728 Q 807 761 777 752 Q 645 704 479 696 Z" fill="black" /></g></svg>