<?xml version='1.0' encoding='utf-8'?>
<svg xmlns="http://www.w3.org/2000/svg" version="1.1" viewBox="0 0 1024 1024"><g transform="scale(1, -1) translate(0, -900)"><path d="M 673 501 Q 686 479 700 470 Q 710 461 726 481 Q 738 494 769 577 Q 779 608 804 632 Q 817 644 807 659 Q 791 677 750 705 Q 731 715 713 709 Q 670 699 609 691 L 560 684 Q 511 678 455 668 L 412 661 Q 348 652 295 644 C 265 640 284 603 313 610 Q 359 622 417 631 L 455 638 Q 501 647 557 654 L 602 660 Q 692 678 713 656 Q 720 646 719 636 Q 695 539 680 531 C 666 511 666 511 673 501 Z" fill="black" /></g></svg>