<?xml version='1.0' encoding='utf-8'?>
<svg xmlns="http://www.w3.org/2000/svg" version="1.1" viewBox="0 0 1024 1024"><g transform="scale(1, -1) translate(0, -900)"><path d="M 518 283 Q 545 329 572 391 L 588 429 Q 591 439 614 506 L 624 545 Q 634 585 643 625 L 652 670 Q 662 731 676 773 Q 686 786 680 801 Q 665 820 635 837 Q 616 849 603 845 Q 590 839 596 825 Q 614 788 606 730 Q 603 712 600 690 Q 597 674 594 656 L 586 614 Q 577 574 568 534 L 557 494 Q 545 457 531 420 L 515 379 Q 512 375 511 369 Q 457 255 357 130 Q 351 124 349 118 Q 345 108 356 109 Q 386 109 484 232 Q 494 248 506 264 L 518 283 Z" fill="black" /></g></svg>