<?xml version='1.0' encoding='utf-8'?>
<svg xmlns="http://www.w3.org/2000/svg" version="1.1" viewBox="0 0 1024 1024"><g transform="scale(1, -1) translate(0, -900)"><path d="M 589 754 Q 613 802 623 814 Q 632 824 625 834 Q 618 844 574 857 Q 558 861 551 856 Q 541 849 549 833 Q 573 778 498 655 Q 482 634 456 611 Q 444 599 449 590 Q 455 577 479 561 Q 489 552 499 563 Q 524 584 673 618 Q 674 619 676 618 C 706 623 713 643 683 642 Q 616 641 542 630 Q 535 629 533 631 Q 530 634 534 644 Q 558 693 576 729 L 589 754 Z" fill="black" /></g></svg>