<?xml version='1.0' encoding='utf-8'?>
<svg xmlns="http://www.w3.org/2000/svg" version="1.1" viewBox="0 0 1024 1024"><g transform="scale(1, -1) translate(0, -900)"><path d="M 647 442 Q 654 424 668 425 Q 681 428 689 443 Q 699 456 717 524 Q 732 579 768 611 Q 787 627 770 644 Q 751 660 698 686 Q 683 695 608 677 Q 566 677 422 646 Q 350 633 301 627 C 271 623 302 588 332 593 Q 338 593 344 594 Q 428 619 619 641 Q 653 644 665 636 Q 674 632 671 603 Q 658 500 649 476 C 642 449 642 449 647 442 Z" fill="black" /></g></svg>