<?xml version='1.0' encoding='utf-8'?>
<svg xmlns="http://www.w3.org/2000/svg" version="1.1" viewBox="0 0 1024 1024"><g transform="scale(1, -1) translate(0, -900)"><path d="M 611 -12 Q 615 -36 622 -45 Q 628 -52 635 -50 Q 648 -41 655 15 Q 656 43 658 223 L 658 263 Q 658 306 659 364 L 659 395 Q 660 419 661 445 Q 661 452 661 459 L 666 498 Q 669 511 671 521 Q 674 539 660 547 Q 647 556 636 561 C 610 575 570 577 585 551 Q 591 542 596 531 Q 606 512 609 481 L 609 450 Q 609 420 609 385 L 609 356 Q 608 310 608 256 L 608 218 Q 602 79 611 -12 Z" fill="black" /></g></svg>