<?xml version='1.0' encoding='utf-8'?>
<svg xmlns="http://www.w3.org/2000/svg" version="1.1" viewBox="0 0 1024 1024"><g transform="scale(1, -1) translate(0, -900)"><path d="M 770 108 Q 780 83 804 33 Q 813 15 823 16 Q 839 19 849 45 Q 873 94 889 233 Q 899 335 923 364 Q 939 385 927 398 Q 905 420 856 441 Q 837 451 803 439 Q 677 393 476 375 C 446 372 480 333 510 336 Q 522 335 534 338 Q 573 347 625 356 L 667 364 Q 718 376 787 387 Q 815 391 827 379 Q 851 336 816 147 Q 815 131 806 128 Q 802 125 781 137 C 753 149 758 136 770 108 Z" fill="black" /></g></svg>