<?xml version='1.0' encoding='utf-8'?>
<svg xmlns="http://www.w3.org/2000/svg" version="1.1" viewBox="0 0 1024 1024"><g transform="scale(1, -1) translate(0, -900)"><path d="M 695 623 Q 750 642 795 651 Q 808 652 811 649 Q 820 637 814 606 Q 804 518 781 479 Q 768 457 747 460 Q 731 464 716 472 Q 697 479 709 459 Q 737 422 751 396 Q 766 378 781 392 Q 832 425 856 561 Q 862 624 881 649 Q 891 659 886 669 Q 877 679 834 696 Q 816 703 800 692 Q 785 682 727 665 Q 669 647 617 641 Q 602 640 600 632 Q 599 625 620 616 Q 642 604 658 611 Q 662 614 671 615 L 695 623 Z" fill="black" /></g></svg>