<?xml version='1.0' encoding='utf-8'?>
<svg xmlns="http://www.w3.org/2000/svg" version="1.1" viewBox="0 0 1024 1024"><g transform="scale(1, -1) translate(0, -900)"><path d="M 277 384 Q 307 427 340 483 Q 371 538 415 575 Q 430 587 417 601 Q 396 616 367 624 Q 343 631 327 620 Q 252 563 101 544 Q 89 545 87 538 Q 84 528 99 519 Q 139 495 170 503 Q 303 561 308 560 Q 309 560 312 557 Q 318 550 307 526 Q 243 382 83 212 Q 68 200 72 196 Q 75 195 88 200 Q 166 242 251 348 L 277 384 Z" fill="black" /></g></svg>