<?xml version='1.0' encoding='utf-8'?>
<svg xmlns="http://www.w3.org/2000/svg" version="1.1" viewBox="0 0 1024 1024"><g transform="scale(1, -1) translate(0, -900)"><path d="M 559 711 Q 559 741 565 778 Q 569 793 559 800 Q 547 810 528 817 Q 518 820 511 816 Q 505 812 511 798 Q 523 767 521 736 Q 521 672 527 654 Q 531 633 553 618 Q 628 567 775 604 Q 782 607 792 609 Q 826 621 861 647 Q 874 660 862 679 Q 852 692 832 739 Q 831 751 824 754 Q 820 755 818 742 Q 803 688 793 672 Q 781 657 746 647 Q 659 623 599 645 Q 572 655 566 671 Q 560 681 559 697 L 559 711 Z" fill="black" /></g></svg>