<?xml version='1.0' encoding='utf-8'?>
<svg xmlns="http://www.w3.org/2000/svg" version="1.1" viewBox="0 0 1024 1024"><g transform="scale(1, -1) translate(0, -900)"><path d="M 732 668 Q 799 704 819 698 Q 829 694 830 677 Q 831 637 822 565 Q 822 546 804 547 Q 776 553 753 559 Q 740 562 743 554 Q 744 545 767 527 Q 800 499 819 467 Q 826 460 835 463 Q 865 481 872 548 Q 869 555 878 647 Q 877 675 886 687 Q 896 694 891 704 Q 884 714 855 732 Q 837 744 718 699 C 690 689 705 654 732 668 Z" fill="black" /></g></svg>