<?xml version='1.0' encoding='utf-8'?>
<svg xmlns="http://www.w3.org/2000/svg" version="1.1" viewBox="0 0 1024 1024"><g transform="scale(1, -1) translate(0, -900)"><path d="M 751 365 Q 751 364 753 359 Q 759 343 772 345 Q 785 346 793 362 Q 805 378 826 456 Q 842 507 878 536 Q 897 552 880 567 Q 864 583 813 610 Q 800 619 726 601 Q 699 601 562 571 Q 501 558 458 551 C 428 546 459 515 488 524 Q 522 536 581 547 L 633 557 Q 756 582 778 571 Q 788 565 783 534 Q 764 417 754 394 L 752 388 C 747 373 747 373 751 365 Z" fill="black" /></g></svg>