<?xml version='1.0' encoding='utf-8'?>
<svg xmlns="http://www.w3.org/2000/svg" version="1.1" viewBox="0 0 1024 1024"><g transform="scale(1, -1) translate(0, -900)"><path d="M 606 230 Q 606 -52 621 -72 L 622 -73 Q 628 -80 635 -78 Q 650 -69 654 -13 Q 661 60 659 134 Q 656 165 656 235 L 656 270 Q 656 309 657 357 L 657 392 Q 657 414 658 437 Q 658 447 658 455 L 663 494 Q 664 507 667 518 Q 670 534 657 543 Q 644 552 633 557 C 607 572 567 574 581 547 Q 581 546 583 544 Q 604 502 605 477 L 606 446 Q 606 416 607 382 L 607 351 Q 607 311 606 265 L 606 230 Z" fill="black" /></g></svg>