<?xml version='1.0' encoding='utf-8'?>
<svg xmlns="http://www.w3.org/2000/svg" version="1.1" viewBox="0 0 1024 1024"><g transform="scale(1, -1) translate(0, -900)"><path d="M 261 407 Q 346 540 382 567 Q 395 577 384 591 Q 366 604 339 613 Q 318 620 303 609 Q 269 584 248 575 Q 223 566 182 557 Q 139 550 106 546 Q 96 547 93 540 Q 92 531 104 522 Q 138 500 154 503 Q 163 506 270 553 Q 283 559 286 553 Q 292 546 281 524 Q 214 383 63 231 Q 50 221 52 217 Q 55 214 67 220 Q 152 265 237 374 L 261 407 Z" fill="black" /></g></svg>