<?xml version='1.0' encoding='utf-8'?>
<svg xmlns="http://www.w3.org/2000/svg" version="1.1" viewBox="0 0 1024 1024"><g transform="scale(1, -1) translate(0, -900)"><path d="M 666 493 Q 795 526 811 512 Q 821 505 826 455 Q 839 284 831 91 Q 831 63 820 55 Q 808 45 747 54 Q 732 55 734 47 Q 735 40 747 36 Q 802 -1 832 -30 Q 851 -46 863 -45 Q 875 -41 884 -16 Q 897 26 894 85 Q 870 457 888 493 Q 898 512 888 523 Q 878 536 836 556 Q 818 563 801 560 Q 758 544 666 519 L 631 511 Q 546 495 458 481 C 428 476 446 440 475 447 Q 481 447 489 449 Q 553 468 631 485 L 666 493 Z" fill="black" /></g></svg>