<?xml version='1.0' encoding='utf-8'?>
<svg xmlns="http://www.w3.org/2000/svg" version="1.1" viewBox="0 0 1024 1024"><g transform="scale(1, -1) translate(0, -900)"><path d="M 547 234 Q 544 89 554 60 Q 564 30 584 10 Q 650 -53 816 -39 Q 891 -30 919 -12 Q 950 4 938 36 Q 922 85 915 172 Q 914 188 906 194 Q 897 200 893 179 Q 871 74 854 56 Q 847 40 816 34 Q 696 13 633 38 Q 609 50 604 64 Q 594 91 595 160 Q 601 238 615 272 Q 628 303 607 321 Q 555 361 538 356 Q 522 349 530 332 Q 552 292 547 234 Z" fill="black" /></g></svg>