<?xml version='1.0' encoding='utf-8'?>
<svg xmlns="http://www.w3.org/2000/svg" version="1.1" viewBox="0 0 1024 1024"><g transform="scale(1, -1) translate(0, -900)"><path d="M 453 282 Q 417 278 365 269 Q 326 263 269 253 C 239 248 257 209 286 216 Q 435 251 439 252 L 490 261 Q 604 278 746 280 Q 772 280 776 264 Q 778 257 776 249 Q 772 86 758 62 Q 753 49 730 55 Q 712 60 682 63 Q 665 65 666 59 Q 666 55 674 47 Q 737 4 766 -33 Q 778 -47 791 -37 Q 816 -12 827 74 Q 831 221 851 249 Q 866 267 860 273 Q 854 285 803 317 Q 788 326 776 324 L 712 311 L 506 288 L 453 282 Z" fill="black" /></g></svg>