<?xml version='1.0' encoding='utf-8'?>
<svg xmlns="http://www.w3.org/2000/svg" version="1.1" viewBox="0 0 1024 1024"><g transform="scale(1, -1) translate(0, -900)"><path d="M 445 335 Q 503 351 551 359 Q 572 363 577 356 Q 583 349 575 332 Q 553 262 525 234 Q 515 227 518 213 Q 522 192 534 185 Q 546 179 558 188 Q 601 213 643 218 Q 665 221 670 212 Q 679 199 676 174 Q 669 110 645 59 Q 638 41 623 35 Q 611 35 536 73 Q 509 89 528 57 Q 565 2 590 -45 Q 605 -66 625 -56 Q 679 -29 704 40 Q 737 163 757 186 Q 773 202 763 215 Q 750 228 709 251 Q 687 261 664 253 Q 616 240 604 240 Q 583 241 596 268 Q 629 332 656 353 Q 683 368 676 380 Q 672 392 619 414 Q 601 423 584 413 Q 518 377 280 344 Q 270 344 268 338 Q 265 331 293 313 Q 320 294 348 308 Q 378 318 406 325 L 445 335 Z" fill="black" /></g></svg>