<?xml version='1.0' encoding='utf-8'?>
<svg xmlns="http://www.w3.org/2000/svg" version="1.1" viewBox="0 0 1024 1024"><g transform="scale(1, -1) translate(0, -900)"><path d="M 631 406 Q 674 404 690 378 Q 699 365 708 363 Q 710 362 711 362 Q 725 362 739 392 Q 759 433 758 444 Q 766 566 761 582 Q 760 612 778 636 Q 788 651 779 661 Q 759 681 702 707 Q 688 713 668 708 L 592 690 L 535 674 L 494 668 L 398 651 Q 370 649 349 649 C 319 648 332 611 362 616 Q 590 658 597 659 Q 672 668 709 647 Q 701 610 694 447 Q 697 433 680 423 C 663 402 601 410 631 406 Z" fill="black" /></g></svg>