<?xml version='1.0' encoding='utf-8'?>
<svg xmlns="http://www.w3.org/2000/svg" version="1.1" viewBox="0 0 1024 1024"><g transform="scale(1, -1) translate(0, -900)"><path d="M 585 203 Q 516 190 445 168 Q 438 165 435 167 Q 432 170 436 181 Q 463 241 483 282 L 499 315 Q 521 358 530 371 Q 540 383 532 393 Q 525 403 488 413 C 459 422 434 429 444 403 Q 444 399 449 390 Q 458 372 445 307 L 434 272 Q 401 190 359 146 Q 340 137 347 118 Q 354 103 381 88 Q 394 79 404 92 Q 422 113 597 182 C 625 193 614 209 585 203 Z" fill="black" /></g></svg>