<?xml version='1.0' encoding='utf-8'?>
<svg xmlns="http://www.w3.org/2000/svg" version="1.1" viewBox="0 0 1024 1024"><g transform="scale(1, -1) translate(0, -900)"><path d="M 506 226 Q 507 293 509 356 L 510 388 Q 510 431 512 470 L 513 509 Q 514 555 516 598 L 518 641 Q 521 702 520 705 Q 505 720 491 731 C 468 750 436 749 449 722 Q 456 706 464 693 Q 471 669 472 626 L 472 590 Q 471 557 470 499 L 469 463 Q 468 427 467 383 L 466 350 Q 465 290 464 216 C 464 186 506 196 506 226 Z" fill="black" /></g></svg>