<?xml version='1.0' encoding='utf-8'?>
<svg xmlns="http://www.w3.org/2000/svg" version="1.1" viewBox="0 0 1024 1024"><g transform="scale(1, -1) translate(0, -900)"><path d="M 483 282 Q 718 322 746 292 Q 753 285 749 269 Q 745 88 731 61 Q 727 51 713 53 Q 685 56 656 59 Q 628 60 648 44 Q 712 -5 739 -40 Q 751 -55 764 -44 Q 780 -28 790 -1 Q 800 27 805 183 Q 806 241 824 269 Q 840 290 833 298 Q 826 311 774 344 Q 756 359 707 342 Q 604 330 499 315 L 445 307 Q 391 300 361 292 Q 300 279 254 275 Q 253 275 253 274 C 223 270 242 231 272 234 Q 288 233 304 238 Q 352 256 434 272 L 483 282 Z" fill="black" /></g></svg>