<?xml version='1.0' encoding='utf-8'?>
<svg xmlns="http://www.w3.org/2000/svg" version="1.1" viewBox="0 0 1024 1024"><g transform="scale(1, -1) translate(0, -900)"><path d="M 815 309 Q 710 297 598 274 Q 586 270 583 274 Q 579 280 585 298 Q 714 572 743 619 Q 755 632 746 645 Q 736 658 679 676 Q 658 682 648 675 Q 635 666 645 644 Q 660 616 646 572 Q 619 457 556 333 Q 534 291 482 247 Q 467 231 473 219 Q 480 200 513 181 Q 526 171 540 184 Q 583 221 816 278 Q 822 279 830 282 C 859 290 845 313 815 309 Z" fill="black" /></g></svg>