<?xml version='1.0' encoding='utf-8'?>
<svg xmlns="http://www.w3.org/2000/svg" version="1.1" viewBox="0 0 1024 1024"><g transform="scale(1, -1) translate(0, -900)"><path d="M 488 413 Q 518 422 552 427 Q 637 440 659 435 C 689 433 694 473 664 471 Q 489 458 357 423 Q 335 417 341 442 Q 344 467 347 492 Q 351 514 341 527 Q 328 543 305 555 Q 295 561 285 558 Q 275 554 283 537 Q 299 500 295 461 Q 291 424 276 408 Q 260 392 266 379 Q 276 366 291 355 Q 304 348 313 355 Q 331 376 444 403 L 488 413 Z" fill="black" /></g></svg>