<?xml version='1.0' encoding='utf-8'?>
<svg xmlns="http://www.w3.org/2000/svg" version="1.1" viewBox="0 0 1024 1024"><g transform="scale(1, -1) translate(0, -900)"><path d="M 533 583 Q 611 596 695 606 Q 723 610 736 596 Q 749 589 755 530 Q 771 332 765 108 Q 765 74 753 65 Q 738 55 668 70 Q 649 74 650 63 Q 651 54 666 47 Q 730 -2 763 -41 Q 788 -63 802 -60 Q 815 -57 829 -24 Q 845 28 844 103 Q 823 394 822 502 Q 822 547 835 573 Q 848 598 837 612 Q 824 628 770 656 Q 748 666 726 661 Q 665 642 534 616 L 474 607 Q 374 594 270 584 C 240 581 258 530 287 538 Q 320 550 476 574 L 533 583 Z" fill="black" /></g></svg>