<?xml version='1.0' encoding='utf-8'?>
<svg xmlns="http://www.w3.org/2000/svg" version="1.1" viewBox="0 0 1024 1024"><g transform="scale(1, -1) translate(0, -900)"><path d="M 852 386 Q 882 483 910 511 Q 931 533 902 551 Q 877 570 850 584 Q 835 596 773 573 Q 736 570 694 557 L 638 547 Q 611 543 585 536 Q 537 527 504 522 C 474 517 486 482 516 486 Q 525 486 536 489 Q 599 507 634 513 Q 635 514 638 513 L 693 522 Q 739 529 802 537 Q 815 538 819 532 Q 831 513 801 395 C 794 366 843 357 852 386 Z" fill="black" /></g></svg>