<?xml version='1.0' encoding='utf-8'?>
<svg xmlns="http://www.w3.org/2000/svg" version="1.1" viewBox="0 0 1024 1024"><g transform="scale(1, -1) translate(0, -900)"><path d="M 490 442 Q 487 502 493 543 Q 497 556 487 567 Q 463 588 441 598 Q 423 605 414 599 Q 404 592 413 578 Q 465 476 435 252 Q 426 215 396 175 Q 384 160 391 138 Q 401 113 414 101 Q 427 92 438 109 Q 454 134 591 238 Q 610 250 616 258 Q 620 268 610 268 Q 601 268 501 224 Q 485 217 484 233 Q 490 329 490 409 L 490 442 Z" fill="black" /></g></svg>