<?xml version='1.0' encoding='utf-8'?>
<svg xmlns="http://www.w3.org/2000/svg" version="1.1" viewBox="0 0 1024 1024"><g transform="scale(1, -1) translate(0, -900)"><path d="M 629 304 Q 630 311 632 319 L 636 353 Q 637 372 638 393 Q 639 454 641 514 L 641 541 Q 642 667 666 742 Q 673 755 662 767 Q 640 783 600 794 Q 575 800 567 793 Q 558 786 566 774 Q 590 738 593 693 Q 597 611 598 531 L 598 504 Q 597 437 591 371 Q 590 359 588 345 L 584 312 Q 562 201 495 139 Q 453 103 382 66 Q 369 59 369 55 Q 370 51 381 50 Q 397 47 439 62 Q 508 83 555 134 Q 604 185 624 271 L 629 304 Z" fill="black" /></g></svg>