<?xml version='1.0' encoding='utf-8'?>
<svg xmlns="http://www.w3.org/2000/svg" version="1.1" viewBox="0 0 1024 1024"><g transform="scale(1, -1) translate(0, -900)"><path d="M 436 475 Q 455 512 469 552 L 480 593 Q 481 594 482 597 Q 492 634 504 668 L 517 711 Q 526 742 544 769 Q 556 788 539 799 Q 493 841 463 835 Q 448 831 453 815 Q 468 778 461 740 Q 458 721 455 700 L 448 661 Q 441 625 426 584 L 411 542 Q 389 491 375 467 L 353 431 Q 251 295 125 234 Q 107 224 89 213 Q 74 204 88 200 Q 103 199 141 210 Q 217 235 279 283 Q 346 329 384 388 Q 400 413 416 439 Q 416 440 417 441 L 436 475 Z" fill="black" /></g></svg>