<?xml version='1.0' encoding='utf-8'?>
<svg xmlns="http://www.w3.org/2000/svg" version="1.1" viewBox="0 0 1024 1024"><g transform="scale(1, -1) translate(0, -900)"><path d="M 614 336 Q 614 177 594 96 Q 576 42 605 -26 L 606 -29 Q 613 -48 621 -51 Q 628 -58 635 -49 Q 644 -45 654 -23 Q 664 4 663 36 Q 662 81 662 424 L 662 460 Q 662 523 662 588 L 664 642 Q 667 702 680 746 Q 690 762 686 776 Q 679 786 621 821 Q 596 837 575 822 Q 569 816 576 800 Q 610 751 612 699 Q 613 659 615 613 L 616 569 Q 616 556 617 540 Q 616 497 615 449 L 614 336 Z" fill="black" /></g></svg>