<?xml version='1.0' encoding='utf-8'?>
<svg xmlns="http://www.w3.org/2000/svg" version="1.1" viewBox="0 0 1024 1024"><g transform="scale(1, -1) translate(0, -900)"><path d="M 686 381 Q 699 374 718 369 Q 740 368 780 383 Q 804 389 813 381 Q 820 375 793 321 Q 690 80 387 -40 Q 377 -43 378 -48 Q 379 -52 386 -53 Q 516 -57 681 87 Q 699 105 718 123 Q 787 195 859 315 Q 878 340 905 357 Q 921 363 922 372 Q 923 385 896 405 Q 862 430 848 432 Q 838 433 825 426 Q 732 404 711 403 Q 708 404 707 403 C 677 400 658 392 686 381 Z" fill="black" /></g></svg>