<?xml version='1.0' encoding='utf-8'?>
<svg xmlns="http://www.w3.org/2000/svg" version="1.1" viewBox="0 0 1024 1024"><g transform="scale(1, -1) translate(0, -900)"><path d="M 601 404 Q 646 389 720 423 Q 744 432 753 425 Q 760 421 741 363 Q 726 317 671 223 L 662 209 Q 556 53 371 -42 Q 361 -46 362 -52 Q 363 -56 371 -56 Q 497 -49 648 106 Q 667 130 689 156 Q 750 235 810 363 Q 826 393 853 412 Q 869 421 869 431 Q 869 444 838 461 Q 801 485 785 484 Q 773 483 761 474 Q 703 455 625 432 C 596 423 571 409 601 404 Z" fill="black" /></g></svg>