<?xml version='1.0' encoding='utf-8'?>
<svg xmlns="http://www.w3.org/2000/svg" version="1.1" viewBox="0 0 1024 1024"><g transform="scale(1, -1) translate(0, -900)"><path d="M 691 363 Q 731 370 772 374 Q 800 375 802 357 Q 808 240 794 224 Q 785 218 743 222 Q 728 226 725 221 Q 722 215 733 206 Q 778 172 805 145 Q 818 132 831 146 Q 856 177 857 244 Q 854 328 862 364 Q 865 383 856 392 Q 829 416 812 425 Q 799 431 791 422 Q 785 415 695 394 Q 694 394 693 393 L 640 384 Q 600 380 538 369 C 508 364 515 335 545 337 Q 554 336 568 339 Q 602 348 640 354 L 691 363 Z" fill="black" /></g></svg>