<?xml version='1.0' encoding='utf-8'?>
<svg xmlns="http://www.w3.org/2000/svg" version="1.1" viewBox="0 0 1024 1024"><g transform="scale(1, -1) translate(0, -900)"><path d="M 744 184 Q 745 175 752 165 Q 765 137 774 138 Q 787 139 803 171 Q 818 196 816 216 Q 789 421 828 480 Q 837 496 829 505 Q 801 527 755 544 Q 740 548 718 539 Q 688 521 648 507 L 607 495 Q 585 491 567 485 C 538 477 545 457 575 458 Q 590 457 603 460 Q 667 485 716 500 Q 732 506 740 498 Q 753 479 753 418 Q 754 250 746 212 L 744 184 Z" fill="black" /></g></svg>