<?xml version='1.0' encoding='utf-8'?>
<svg xmlns="http://www.w3.org/2000/svg" version="1.1" viewBox="0 0 1024 1024"><g transform="scale(1, -1) translate(0, -900)"><path d="M 664 455 Q 664 452 666 448 Q 670 432 684 433 Q 697 434 706 449 Q 719 465 744 547 Q 762 599 799 628 Q 818 644 802 660 Q 784 678 735 705 Q 719 714 645 698 Q 546 688 432 663 Q 365 650 315 643 C 285 639 304 601 333 609 Q 334 610 337 610 Q 433 640 649 667 Q 688 671 701 663 Q 711 656 705 625 Q 680 511 669 485 L 664 455 Z" fill="black" /></g></svg>