<?xml version='1.0' encoding='utf-8'?>
<svg xmlns="http://www.w3.org/2000/svg" version="1.1" viewBox="0 0 1024 1024"><g transform="scale(1, -1) translate(0, -900)"><path d="M 373 280 Q 385 264 397 258 Q 407 251 419 270 Q 434 297 459 437 Q 466 464 486 487 Q 496 497 486 510 Q 473 523 434 546 Q 416 553 403 547 Q 378 540 346 532 Q 343 532 341 530 L 313 524 Q 282 518 250 509 Q 210 499 175 490 C 146 483 172 453 200 463 Q 228 473 272 484 L 299 490 Q 330 499 370 506 Q 395 510 403 503 Q 416 488 414 472 Q 392 325 374 311 C 362 292 362 292 373 280 Z" fill="black" /></g></svg>