<?xml version='1.0' encoding='utf-8'?>
<svg xmlns="http://www.w3.org/2000/svg" version="1.1" viewBox="0 0 1024 1024"><g transform="scale(1, -1) translate(0, -900)"><path d="M 625 411 Q 625 454 626 496 L 626 530 Q 626 563 627 595 Q 626 601 626 605 L 626 645 Q 627 691 630 700 Q 633 710 624 718 Q 617 724 603 731 C 577 747 563 754 572 725 Q 579 713 580 688 Q 580 660 581 629 L 582 595 Q 582 558 582 520 L 583 489 Q 583 447 582 404 L 580 315 Q 580 120 567 29 Q 564 -10 588 -42 Q 598 -55 609 -39 Q 627 -6 627 67 Q 624 116 624 347 L 625 411 Z" fill="black" /></g></svg>