<?xml version='1.0' encoding='utf-8'?>
<svg xmlns="http://www.w3.org/2000/svg" version="1.1" viewBox="0 0 1024 1024"><g transform="scale(1, -1) translate(0, -900)"><path d="M 723 351 Q 766 361 818 365 Q 834 365 843 356 Q 850 349 847 337 Q 847 129 832 99 Q 829 90 818 93 Q 791 97 762 103 Q 737 104 755 89 Q 816 44 842 12 Q 855 -3 868 9 Q 884 27 892 55 Q 902 86 897 248 Q 894 309 911 339 Q 924 358 918 364 Q 911 374 866 401 Q 848 413 808 397 Q 789 393 766 386 Q 697 377 514 332 C 485 325 499 288 528 297 Q 535 298 544 301 Q 559 308 581 315 L 605 323 Q 647 339 684 343 L 723 351 Z" fill="black" /></g></svg>