<?xml version='1.0' encoding='utf-8'?>
<svg xmlns="http://www.w3.org/2000/svg" version="1.1" viewBox="0 0 1024 1024"><g transform="scale(1, -1) translate(0, -900)"><path d="M 672 95 Q 672 135 672 172 L 673 217 Q 673 260 674 300 L 675 336 Q 675 366 676 394 L 677 434 Q 677 465 677 493 L 678 524 Q 679 558 680 591 L 682 626 Q 682 641 683 651 Q 690 670 680 681 Q 661 700 643 709 C 617 725 591 725 604 698 Q 626 656 632 616 L 633 583 Q 633 565 633 515 L 632 485 Q 632 458 632 422 L 631 387 Q 630 359 629 326 L 629 294 Q 628 252 627 203 L 626 162 Q 626 128 626 90 C 626 60 672 65 672 95 Z" fill="black" /></g></svg>