<?xml version='1.0' encoding='utf-8'?>
<svg xmlns="http://www.w3.org/2000/svg" version="1.1" viewBox="0 0 1024 1024"><g transform="scale(1, -1) translate(0, -900)"><path d="M 668 321 L 668 322 L 656 339 Q 610 402 557 421 C 529 433 506 422 531 405 Q 532 404 535 402 Q 542 398 548 393 L 593 356 Q 603 346 612 334 L 641 281 Q 668 208 640 91 Q 630 52 617 47 Q 605 41 551 55 Q 506 67 504 60 Q 503 53 514 40 Q 575 -12 600 -46 Q 613 -65 629 -61 Q 648 -57 667 -28 Q 715 60 704 203 Q 698 245 694 256 L 668 321 Z" fill="black" /></g></svg>