<?xml version='1.0' encoding='utf-8'?>
<svg xmlns="http://www.w3.org/2000/svg" version="1.1" viewBox="0 0 1024 1024"><g transform="scale(1, -1) translate(0, -900)"><path d="M 650 692 Q 653 693 658 695 Q 733 723 738 723 Q 745 720 745 707 Q 741 658 735 617 Q 726 566 736 533 Q 743 511 762 499 Q 790 486 845 489 Q 899 493 925 509 Q 938 516 928 530 Q 912 546 894 554 Q 882 558 861 548 Q 800 512 781 544 Q 768 566 780 632 Q 784 672 823 713 Q 839 728 823 741 Q 801 760 775 772 Q 765 776 749 768 Q 703 744 625 724 C 596 716 622 681 650 692 Z" fill="black" /></g></svg>