<?xml version='1.0' encoding='utf-8'?>
<svg xmlns="http://www.w3.org/2000/svg" version="1.1" viewBox="0 0 1024 1024"><g transform="scale(1, -1) translate(0, -900)"><path d="M 760 111 Q 769 86 789 40 Q 796 24 807 24 Q 822 25 832 50 Q 866 114 874 200 Q 883 254 890 316 Q 897 359 921 384 Q 937 400 927 413 Q 909 434 870 455 Q 854 465 824 457 Q 797 447 766 439 Q 736 433 691 428 Q 684 429 682 425 Q 681 419 690 412 Q 717 396 752 401 Q 827 417 833 406 Q 837 393 839 379 Q 836 339 831 296 L 826 259 Q 819 205 806 152 Q 803 133 794 130 Q 793 130 791 130 C 770 109 757 119 760 111 Z" fill="black" /></g></svg>