<?xml version='1.0' encoding='utf-8'?>
<svg xmlns="http://www.w3.org/2000/svg" version="1.1" viewBox="0 0 1024 1024"><g transform="scale(1, -1) translate(0, -900)"><path d="M 347 308 Q 365 278 381 270 Q 391 263 405 282 Q 420 306 449 435 Q 458 463 479 486 Q 491 496 480 510 Q 467 525 428 549 Q 409 558 396 553 Q 369 544 330 536 Q 326 536 323 534 L 293 528 Q 268 525 149 497 C 120 490 139 462 168 470 Q 202 480 250 491 L 283 498 Q 373 519 393 508 Q 406 498 402 478 Q 375 334 357 326 C 345 310 345 310 347 308 Z" fill="black" /></g></svg>