<?xml version='1.0' encoding='utf-8'?>
<svg xmlns="http://www.w3.org/2000/svg" version="1.1" viewBox="0 0 1024 1024"><g transform="scale(1, -1) translate(0, -900)"><path d="M 753 229 Q 753 216 762 202 Q 777 174 786 174 Q 801 175 816 209 Q 832 234 829 256 Q 817 341 818 472 Q 818 511 839 543 Q 849 559 841 568 Q 814 590 768 609 Q 753 615 731 606 Q 700 591 596 565 L 572 560 Q 556 559 541 555 C 512 549 531 519 559 529 Q 580 539 716 568 Q 738 572 746 562 Q 762 543 762 475 Q 765 294 756 252 L 753 229 Z" fill="black" /></g></svg>