<?xml version='1.0' encoding='utf-8'?>
<svg xmlns="http://www.w3.org/2000/svg" version="1.1" viewBox="0 0 1024 1024"><g transform="scale(1, -1) translate(0, -900)"><path d="M 721 420 Q 736 401 749 394 Q 759 387 773 406 Q 783 422 807 515 Q 814 545 836 568 Q 848 580 837 593 Q 822 608 782 631 Q 764 640 708 621 Q 681 618 655 609 L 615 598 Q 612 598 489 568 C 460 561 477 526 505 537 Q 550 555 615 569 L 654 577 Q 732 601 749 587 Q 758 577 757 565 Q 741 460 722 449 C 710 433 710 433 721 420 Z" fill="black" /></g></svg>