<?xml version='1.0' encoding='utf-8'?>
<svg xmlns="http://www.w3.org/2000/svg" version="1.1" viewBox="0 0 1024 1024"><g transform="scale(1, -1) translate(0, -900)"><path d="M 652 326 Q 652 368 653 408 L 653 437 Q 653 465 654 491 L 654 524 Q 654 551 654 577 L 655 609 Q 655 642 656 674 L 660 718 Q 661 743 674 790 Q 677 800 657 814 Q 623 830 601 834 Q 585 837 578 829 Q 571 822 579 808 Q 610 763 611 703 L 613 664 Q 614 633 615 598 L 615 569 Q 616 541 616 512 L 616 483 Q 616 456 615 428 L 615 401 Q 614 361 613 318 C 612 288 652 296 652 326 Z" fill="black" /></g></svg>