<?xml version='1.0' encoding='utf-8'?>
<svg xmlns="http://www.w3.org/2000/svg" version="1.1" viewBox="0 0 1024 1024"><g transform="scale(1, -1) translate(0, -900)"><path d="M 750 53 Q 760 29 784 -16 Q 793 -34 803 -32 Q 818 -29 826 -4 Q 853 54 864 233 Q 868 281 890 311 Q 906 330 893 344 Q 871 363 825 383 Q 806 393 775 380 Q 652 337 464 315 C 434 311 454 270 483 277 Q 543 292 757 330 Q 785 336 797 323 Q 822 278 793 93 Q 792 77 784 74 Q 781 73 771 76 C 743 68 743 68 750 53 Z" fill="black" /></g></svg>