<?xml version='1.0' encoding='utf-8'?>
<svg xmlns="http://www.w3.org/2000/svg" version="1.1" viewBox="0 0 1024 1024"><g transform="scale(1, -1) translate(0, -900)"><path d="M 765 60 Q 774 35 801 -20 Q 808 -36 819 -36 Q 834 -33 843 -9 Q 873 51 889 229 Q 893 275 916 305 Q 932 324 920 338 Q 899 359 853 378 Q 835 388 803 376 Q 673 331 473 311 C 443 308 454 268 484 273 Q 488 273 495 274 Q 607 298 781 328 Q 812 332 825 320 Q 834 316 834 293 Q 833 190 813 89 Q 812 73 803 70 Q 802 69 794 71 C 769 55 763 66 765 60 Z" fill="black" /></g></svg>