<?xml version='1.0' encoding='utf-8'?>
<svg xmlns="http://www.w3.org/2000/svg" version="1.1" viewBox="0 0 1024 1024"><g transform="scale(1, -1) translate(0, -900)"><path d="M 677 97 Q 714 140 747 204 Q 760 229 779 245 Q 797 258 786 271 Q 776 283 747 295 Q 725 304 654 274 Q 524 243 514 240 Q 501 239 497 232 Q 493 225 511 219 Q 545 207 591 223 Q 670 253 685 252 Q 701 251 696 234 Q 672 156 639 122 L 614 97 Q 544 40 417 11 Q 404 8 414 -1 Q 420 -5 462 -3 Q 561 6 645 67 L 677 97 Z" fill="black" /></g></svg>