<?xml version='1.0' encoding='utf-8'?>
<svg xmlns="http://www.w3.org/2000/svg" version="1.1" viewBox="0 0 1024 1024"><g transform="scale(1, -1) translate(0, -900)"><path d="M 772 170 Q 844 52 896 10 Q 917 -11 940 -12 Q 953 -13 960 -2 Q 967 8 957 46 Q 948 89 954 188 Q 955 213 947 215 Q 940 216 933 193 Q 909 82 888 98 Q 839 131 802 209 L 780 259 Q 762 286 721 466 Q 720 473 718 478 L 716 523 Q 720 544 717 553 Q 713 560 690 572 Q 671 582 658 584 Q 646 583 646 581 Q 627 574 644 555 Q 653 551 665 509 L 677 469 Q 678 465 680 460 Q 702 340 752 216 L 772 170 Z" fill="black" /></g></svg>