<?xml version='1.0' encoding='utf-8'?>
<svg xmlns="http://www.w3.org/2000/svg" version="1.1" viewBox="0 0 1024 1024"><g transform="scale(1, -1) translate(0, -900)"><path d="M 468 338 Q 559 363 578 350 Q 593 343 586 316 Q 517 109 589 27 Q 652 -36 813 -24 Q 901 -15 950 6 Q 983 16 970 40 Q 940 101 924 192 Q 918 211 910 215 Q 901 219 899 202 Q 890 96 862 66 Q 853 50 804 41 Q 678 17 631 56 Q 604 86 600 135 Q 596 181 619 249 Q 641 313 675 334 Q 706 356 674 376 Q 653 392 632 406 Q 608 421 589 408 Q 567 402 481 379 L 415 362 Q 297 334 246 328 Q 227 327 225 311 Q 224 301 258 287 Q 289 274 334 294 Q 365 310 408 322 L 468 338 Z" fill="black" /></g></svg>