<?xml version='1.0' encoding='utf-8'?>
<svg xmlns="http://www.w3.org/2000/svg" version="1.1" viewBox="0 0 1024 1024"><g transform="scale(1, -1) translate(0, -900)"><path d="M 562 278 Q 561 196 560 75 Q 559 38 548 23 Q 535 16 503 24 Q 481 28 452 33 Q 440 34 441 28 Q 442 21 453 12 Q 520 -34 563 -72 Q 575 -81 588 -65 Q 628 -8 622 67 Q 618 229 620 317 L 622 354 Q 622 382 626 410 Q 633 437 627 447 Q 620 459 594 474 C 569 490 540 496 549 467 Q 564 422 564 395 Q 564 371 564 346 L 562 278 Z" fill="black" /></g></svg>