<?xml version='1.0' encoding='utf-8'?>
<svg xmlns="http://www.w3.org/2000/svg" version="1.1" viewBox="0 0 1024 1024"><g transform="scale(1, -1) translate(0, -900)"><path d="M 488 321 Q 564 337 629 345 Q 660 348 667 338 Q 677 320 667 275 Q 645 148 611 95 Q 592 62 563 69 Q 533 78 507 89 Q 482 96 500 73 Q 546 27 569 -7 Q 590 -32 611 -13 Q 645 9 670 52 Q 700 101 724 254 Q 733 309 753 335 Q 766 348 761 361 Q 751 374 695 401 Q 673 411 651 397 Q 618 381 500 356 L 436 344 Q 331 326 243 322 Q 222 322 218 312 Q 217 302 244 288 Q 272 269 296 277 Q 365 296 427 308 L 488 321 Z" fill="black" /></g></svg>