<?xml version='1.0' encoding='utf-8'?>
<svg xmlns="http://www.w3.org/2000/svg" version="1.1" viewBox="0 0 1024 1024"><g transform="scale(1, -1) translate(0, -900)"><path d="M 620 317 Q 641 324 805 317 Q 827 316 835 326 Q 842 336 822 348 Q 768 388 715 371 Q 679 365 622 354 L 564 346 Q 452 333 347 309 Q 320 302 328 325 Q 343 368 354 385 Q 364 395 359 405 Q 353 415 321 433 Q 305 443 294 437 Q 284 430 292 416 Q 302 392 289 340 Q 285 321 260 299 Q 250 289 251 277 Q 252 265 269 252 Q 282 243 295 254 Q 373 294 513 307 L 620 317 Z" fill="black" /></g></svg>