<?xml version='1.0' encoding='utf-8'?>
<svg xmlns="http://www.w3.org/2000/svg" version="1.1" viewBox="0 0 1024 1024"><g transform="scale(1, -1) translate(0, -900)"><path d="M 327 178 Q 406 218 596 232 Q 618 233 627 226 Q 643 202 586 58 Q 579 42 565 36 Q 552 30 474 61 Q 458 71 455 62 Q 452 52 471 35 Q 505 -10 517 -44 Q 527 -72 548 -61 Q 602 -40 632 18 Q 704 190 711 196 Q 715 200 721 203 Q 737 219 731 230 Q 721 245 671 274 Q 644 290 573 275 Q 483 268 369 239 Q 351 232 351 243 Q 388 321 399 331 C 409 346 409 346 392 362 Q 383 374 374 381 Q 353 394 344 392 Q 334 389 338 374 Q 344 347 320 283 Q 316 267 278 237 Q 265 224 271 211 Q 278 198 298 179 Q 308 169 327 178 Z" fill="black" /></g></svg>