<?xml version='1.0' encoding='utf-8'?>
<svg xmlns="http://www.w3.org/2000/svg" version="1.1" viewBox="0 0 1024 1024"><g transform="scale(1, -1) translate(0, -900)"><path d="M 260 650 Q 284 638 320 646 Q 477 692 723 707 Q 738 707 747 706 Q 765 696 763 688 Q 763 687 734 619 Q 727 606 733 601 Q 740 597 757 608 Q 812 641 857 651 Q 894 661 893 669 Q 892 679 820 736 Q 798 752 774 749 Q 701 740 609 727 Q 515 717 369 697 Q 312 688 256 684 Q 252 684 250 683 C 220 680 231 659 260 650 Z" fill="black" /></g></svg>