<?xml version='1.0' encoding='utf-8'?>
<svg xmlns="http://www.w3.org/2000/svg" version="1.1" viewBox="0 0 1024 1024"><g transform="scale(1, -1) translate(0, -900)"><path d="M 329 379 Q 330 410 338 429 Q 345 445 333 458 Q 314 474 291 481 Q 266 488 256 478 Q 249 468 260 456 Q 281 435 281 361 L 281 317 Q 280 301 280 279 Q 271 144 245 112 Q 233 96 242 77 Q 252 59 269 52 Q 278 45 289 60 Q 311 91 426 190 Q 451 206 452 216 Q 453 222 449 224 Q 443 225 325 151 Q 310 138 310 158 Q 317 240 325 329 L 329 379 Z" fill="black" /></g></svg>