<?xml version='1.0' encoding='utf-8'?>
<svg xmlns="http://www.w3.org/2000/svg" version="1.1" viewBox="0 0 1024 1024"><g transform="scale(1, -1) translate(0, -900)"><path d="M 585 38 Q 615 -2 635 -38 Q 645 -57 656 -57 Q 674 -56 691 -21 Q 710 19 708 67 Q 702 158 699 329 Q 698 360 716 384 Q 726 397 716 408 Q 697 429 643 454 Q 624 464 608 455 Q 526 421 383 401 C 353 397 359 364 389 368 Q 416 371 586 403 Q 614 407 628 397 Q 649 379 639 152 Q 636 68 624 59 C 613 31 567 62 585 38 Z" fill="black" /></g></svg>