<?xml version='1.0' encoding='utf-8'?>
<svg xmlns="http://www.w3.org/2000/svg" version="1.1" viewBox="0 0 1024 1024"><g transform="scale(1, -1) translate(0, -900)"><path d="M 897 71 Q 878 123 864 212 Q 861 228 854 234 Q 845 238 842 218 Q 829 106 813 86 Q 783 52 650 47 Q 577 48 546 60 Q 519 73 513 92 Q 500 126 496 203 L 496 243 Q 496 324 516 409 L 533 463 Q 537 485 523 500 Q 471 542 455 537 Q 439 531 446 513 Q 461 483 461 442 L 458 397 Q 454 303 453 233 L 453 191 Q 454 65 500 31 Q 558 -11 754 -3 Q 844 1 879 21 Q 910 37 897 71 Z" fill="black" /></g></svg>