<?xml version='1.0' encoding='utf-8'?>
<svg xmlns="http://www.w3.org/2000/svg" version="1.1" viewBox="0 0 1024 1024"><g transform="scale(1, -1) translate(0, -900)"><path d="M 591 674 Q 717 695 749 689 Q 768 685 766 673 Q 766 670 734 606 Q 725 593 731 588 Q 738 584 756 595 Q 810 626 853 636 Q 887 643 888 653 Q 885 663 818 718 Q 799 736 774 734 Q 704 724 615 710 Q 525 700 385 678 Q 336 669 286 663 C 256 659 255 636 284 628 Q 306 619 329 624 Q 360 634 396 642 L 426 649 Q 463 659 545 667 L 591 674 Z" fill="black" /></g></svg>