<?xml version='1.0' encoding='utf-8'?>
<svg xmlns="http://www.w3.org/2000/svg" version="1.1" viewBox="0 0 1024 1024"><g transform="scale(1, -1) translate(0, -900)"><path d="M 645 336 Q 693 348 742 353 Q 755 354 758 348 Q 764 335 760 299 Q 745 172 718 105 Q 705 62 690 50 Q 677 37 650 46 Q 619 55 592 64 Q 568 71 585 50 Q 625 1 648 -38 Q 657 -59 677 -54 Q 693 -53 715 -31 Q 778 26 816 255 Q 823 307 846 335 Q 862 354 854 365 Q 841 384 807 400 Q 783 413 757 403 Q 714 387 654 370 L 595 358 Q 538 349 503 348 Q 487 349 486 341 Q 485 332 504 320 Q 526 305 549 312 Q 567 318 587 322 L 645 336 Z" fill="black" /></g></svg>