<?xml version='1.0' encoding='utf-8'?>
<svg xmlns="http://www.w3.org/2000/svg" version="1.1" viewBox="0 0 1024 1024"><g transform="scale(1, -1) translate(0, -900)"><path d="M 496 203 Q 599 237 643 228 C 673 225 677 273 647 269 Q 568 259 496 243 L 453 233 Q 389 220 335 200 Q 322 199 327 215 Q 334 245 342 276 Q 349 300 341 315 Q 328 334 306 351 Q 296 358 284 358 Q 274 354 279 334 Q 292 288 280 244 Q 270 202 251 186 Q 232 170 238 155 Q 248 139 266 127 Q 279 118 290 127 Q 311 152 453 191 L 496 203 Z" fill="black" /></g></svg>