<?xml version='1.0' encoding='utf-8'?>
<svg xmlns="http://www.w3.org/2000/svg" version="1.1" viewBox="0 0 1024 1024"><g transform="scale(1, -1) translate(0, -900)"><path d="M 507 301 Q 543 313 664 338 C 693 344 679 359 649 355 Q 525 337 397 316 Q 387 313 384 317 Q 383 318 389 324 Q 471 408 502 429 Q 515 439 509 448 Q 505 455 495 460 C 472 479 444 479 438 450 Q 438 413 366 346 Q 345 327 308 312 Q 283 303 281 294 Q 278 278 286 259 Q 293 240 305 235 Q 312 231 323 236 Q 392 273 471 292 L 507 301 Z" fill="black" /></g></svg>