<?xml version='1.0' encoding='utf-8'?>
<svg xmlns="http://www.w3.org/2000/svg" version="1.1" viewBox="0 0 1024 1024"><g transform="scale(1, -1) translate(0, -900)"><path d="M 716 269 Q 735 269 743 259 Q 753 244 745 207 Q 736 153 719 117 Q 698 77 681 63 Q 671 54 644 67 Q 613 79 588 88 Q 572 95 574 84 Q 575 71 589 56 Q 625 17 643 -18 Q 658 -40 680 -29 Q 743 7 760 58 Q 778 110 803 190 Q 807 215 824 239 Q 837 257 827 268 Q 815 287 784 304 Q 760 317 743 309 Q 719 303 622 281 Q 606 278 602 284 Q 598 288 603 298 Q 616 335 633 381 Q 642 403 635 415 Q 631 424 618 434 C 598 456 570 455 575 425 Q 585 395 572 353 Q 553 289 524 266 Q 511 253 515 238 Q 522 225 532 215 Q 542 206 563 222 Q 593 247 626 256 Q 687 272 716 269 Z" fill="black" /></g></svg>