<?xml version='1.0' encoding='utf-8'?>
<svg xmlns="http://www.w3.org/2000/svg" version="1.1" viewBox="0 0 1024 1024"><g transform="scale(1, -1) translate(0, -900)"><path d="M 956 33 Q 972 48 953 77 Q 932 126 923 194 Q 922 204 914 212 Q 904 216 902 194 Q 874 80 872 77 Q 865 64 834 58 Q 786 45 722 49 Q 674 50 645 62 Q 603 74 590 123 Q 572 175 599 374 Q 605 432 617 447 Q 629 489 552 512 Q 548 515 543 515 Q 524 519 516 510 Q 509 501 516 492 Q 537 471 538 412 Q 538 139 545 112 Q 554 61 603 26 Q 681 -25 854 -7 Q 872 -4 888 0 Q 936 13 956 33 Z" fill="black" /></g></svg>