<?xml version='1.0' encoding='utf-8'?>
<svg xmlns="http://www.w3.org/2000/svg" version="1.1" viewBox="0 0 1024 1024"><g transform="scale(1, -1) translate(0, -900)"><path d="M 518 244 Q 717 274 741 248 Q 748 241 744 225 Q 748 59 738 35 Q 735 25 722 28 Q 694 31 663 35 Q 636 36 656 20 Q 723 -26 751 -62 Q 761 -75 774 -64 Q 789 -48 796 -23 Q 805 2 802 148 Q 801 202 816 228 Q 831 249 824 256 Q 817 269 767 300 Q 748 315 713 300 Q 704 299 528 274 L 472 267 Q 414 261 381 253 Q 330 243 294 238 C 264 233 280 191 309 198 Q 319 198 329 202 Q 378 220 464 235 L 518 244 Z" fill="black" /></g></svg>