<?xml version='1.0' encoding='utf-8'?>
<svg xmlns="http://www.w3.org/2000/svg" version="1.1" viewBox="0 0 1024 1024"><g transform="scale(1, -1) translate(0, -900)"><path d="M 649 28 Q 677 -9 699 -46 Q 709 -65 720 -65 Q 738 -64 754 -29 Q 773 11 770 60 Q 763 151 756 321 Q 755 354 772 376 Q 782 389 772 400 Q 753 421 698 445 Q 679 455 664 445 Q 583 412 420 383 L 392 378 Q 353 375 328 372 C 298 369 302 335 332 340 L 455 361 L 481 366 Q 551 382 620 395 Q 663 404 684 388 Q 712 363 694 64 Q 690 45 671 52 C 644 40 641 39 649 28 Z" fill="black" /></g></svg>