<?xml version='1.0' encoding='utf-8'?>
<svg xmlns="http://www.w3.org/2000/svg" version="1.1" viewBox="0 0 1024 1024"><g transform="scale(1, -1) translate(0, -900)"><path d="M 569 218 Q 576 221 587 222 Q 650 235 673 231 C 703 229 701 262 671 260 Q 617 256 570 246 L 521 238 Q 470 229 425 215 Q 410 212 414 230 Q 426 282 418 297 Q 408 310 389 322 Q 380 326 372 325 Q 365 322 369 307 Q 396 243 358 203 Q 345 190 349 180 Q 358 167 371 159 Q 381 152 389 159 Q 405 180 522 207 L 569 218 Z" fill="black" /></g></svg>