<?xml version='1.0' encoding='utf-8'?>
<svg xmlns="http://www.w3.org/2000/svg" version="1.1" viewBox="0 0 1024 1024"><g transform="scale(1, -1) translate(0, -900)"><path d="M 618 333 Q 618 332 620 327 Q 624 312 635 313 Q 648 314 656 326 Q 666 339 691 404 Q 707 450 742 477 Q 760 490 746 505 Q 730 521 686 547 Q 674 556 604 542 Q 564 542 433 517 Q 376 507 336 501 C 306 496 326 459 354 469 Q 360 476 470 493 L 505 499 Q 635 520 656 509 Q 663 503 658 477 Q 634 378 622 356 C 615 340 615 340 618 333 Z" fill="black" /></g></svg>