<?xml version='1.0' encoding='utf-8'?>
<svg xmlns="http://www.w3.org/2000/svg" version="1.1" viewBox="0 0 1024 1024"><g transform="scale(1, -1) translate(0, -900)"><path d="M 562 694 Q 599 701 644 704 Q 713 711 730 709 Q 743 705 742 695 Q 742 694 711 633 Q 701 620 707 616 Q 714 612 732 622 Q 786 649 828 655 Q 862 659 863 670 Q 860 680 796 735 Q 772 757 708 745 Q 657 739 390 702 Q 338 693 288 689 Q 287 689 285 688 C 255 684 260 673 287 661 Q 312 646 337 652 Q 356 658 380 663 L 412 670 Q 451 683 544 692 L 562 694 Z" fill="black" /></g></svg>