<?xml version='1.0' encoding='utf-8'?>
<svg xmlns="http://www.w3.org/2000/svg" version="1.1" viewBox="0 0 1024 1024"><g transform="scale(1, -1) translate(0, -900)"><path d="M 582 737 Q 730 759 766 752 Q 779 749 778 741 Q 778 738 747 681 Q 737 668 743 664 Q 750 660 768 669 Q 822 694 863 699 Q 897 703 898 712 Q 897 722 832 778 Q 810 799 737 787 Q 652 778 382 739 Q 324 730 268 725 C 238 722 241 706 269 696 Q 293 683 318 689 Q 354 699 391 708 L 424 714 Q 460 724 538 732 L 582 737 Z" fill="black" /></g></svg>