<?xml version='1.0' encoding='utf-8'?>
<svg xmlns="http://www.w3.org/2000/svg" version="1.1" viewBox="0 0 1024 1024"><g transform="scale(1, -1) translate(0, -900)"><path d="M 267 224 Q 282 242 473 274 Q 588 290 730 296 Q 748 292 754 282 Q 758 273 753 262 Q 737 70 721 44 Q 717 34 703 38 Q 679 42 653 46 Q 623 50 643 30 Q 701 -24 724 -62 Q 734 -78 749 -67 Q 768 -51 779 -24 Q 792 4 806 167 Q 810 228 832 257 Q 847 276 841 283 Q 834 296 787 328 Q 769 343 729 330 Q 641 320 638 318 L 588 312 Q 540 308 501 302 L 468 298 Q 417 294 382 285 L 346 278 Q 294 268 251 261 C 221 256 240 211 267 224 Z" fill="black" /></g></svg>