<?xml version='1.0' encoding='utf-8'?>
<svg xmlns="http://www.w3.org/2000/svg" version="1.1" viewBox="0 0 1024 1024"><g transform="scale(1, -1) translate(0, -900)"><path d="M 571 10 Q 596 -21 615 -53 Q 622 -69 633 -68 Q 648 -67 661 -37 Q 671 -15 672 52 Q 654 191 674 221 Q 683 233 674 242 Q 658 258 611 280 Q 595 287 581 279 Q 521 252 399 230 C 370 225 382 197 412 202 Q 437 205 567 234 Q 588 238 599 231 Q 609 225 610 50 Q 609 46 609 41 Q 606 29 598 30 C 577 9 568 14 571 10 Z" fill="black" /></g></svg>