<?xml version='1.0' encoding='utf-8'?>
<svg xmlns="http://www.w3.org/2000/svg" version="1.1" viewBox="0 0 1024 1024"><g transform="scale(1, -1) translate(0, -900)"><path d="M 522 38 Q 576 4 649 -56 Q 674 -75 690 -75 Q 709 -74 710 -56 Q 710 -37 683 7 Q 671 31 555 78 L 508 97 Q 453 119 415 129 Q 396 133 407 151 Q 423 179 436 198 L 458 234 Q 465 250 474 258 Q 483 265 481 273 Q 477 286 443 315 Q 433 325 423 322 Q 410 319 417 304 Q 423 283 403 229 L 388 194 Q 375 169 362 152 Q 352 136 354 124 Q 355 114 373 110 Q 427 97 479 64 L 522 38 Z" fill="black" /></g></svg>