<?xml version='1.0' encoding='utf-8'?>
<svg xmlns="http://www.w3.org/2000/svg" version="1.1" viewBox="0 0 1024 1024"><g transform="scale(1, -1) translate(0, -900)"><path d="M 559 679 Q 740 712 777 703 Q 789 699 787 691 Q 787 685 743 615 Q 733 600 739 596 Q 748 592 766 602 Q 827 636 875 645 Q 915 652 915 664 Q 914 674 845 730 Q 818 752 758 739 Q 677 730 384 682 Q 330 673 278 665 C 248 660 243 642 272 634 Q 294 624 318 630 Q 352 640 387 648 L 417 655 Q 447 664 521 674 L 559 679 Z" fill="black" /></g></svg>