<?xml version='1.0' encoding='utf-8'?>
<svg xmlns="http://www.w3.org/2000/svg" version="1.1" viewBox="0 0 1024 1024"><g transform="scale(1, -1) translate(0, -900)"><path d="M 607 360 L 608 359 Q 612 344 623 345 Q 636 346 644 358 Q 654 370 678 433 Q 696 476 730 501 Q 748 514 734 529 Q 719 545 677 571 Q 664 580 621 571 Q 569 562 516 553 Q 503 553 501 549 Q 498 545 511 536 Q 530 524 568 530 Q 628 545 644 538 Q 651 534 646 507 Q 642 495 639 483 L 630 448 Q 617 403 611 390 Q 610 387 608 383 C 602 369 602 369 607 360 Z" fill="black" /></g></svg>