<?xml version='1.0' encoding='utf-8'?>
<svg xmlns="http://www.w3.org/2000/svg" version="1.1" viewBox="0 0 1024 1024"><g transform="scale(1, -1) translate(0, -900)"><path d="M 562 721 Q 707 748 756 736 Q 766 732 764 725 Q 764 722 716 650 Q 706 637 711 632 Q 718 628 737 637 Q 798 670 847 677 Q 887 683 887 694 Q 886 704 821 760 Q 800 781 727 770 Q 637 761 373 725 Q 321 718 271 712 C 241 708 239 686 268 680 Q 287 673 308 677 Q 348 689 395 697 L 422 702 Q 434 706 517 716 L 562 721 Z" fill="black" /></g></svg>