<?xml version='1.0' encoding='utf-8'?>
<svg xmlns="http://www.w3.org/2000/svg" version="1.1" viewBox="0 0 1024 1024"><g transform="scale(1, -1) translate(0, -900)"><path d="M 409 714 Q 436 723 550 733 L 577 736 Q 716 758 758 749 Q 773 745 771 737 Q 771 733 739 677 Q 729 664 735 660 Q 742 656 760 665 Q 812 690 853 696 Q 887 700 887 709 Q 886 719 823 774 Q 799 798 717 782 Q 474 755 362 739 Q 313 732 264 726 C 234 722 227 697 256 691 Q 274 684 294 688 Q 336 700 380 709 L 409 714 Z" fill="black" /></g></svg>