<?xml version='1.0' encoding='utf-8'?>
<svg xmlns="http://www.w3.org/2000/svg" version="1.1" viewBox="0 0 1024 1024"><g transform="scale(1, -1) translate(0, -900)"><path d="M 556 725 Q 721 750 759 745 Q 775 741 774 731 Q 774 730 743 669 Q 733 656 739 652 Q 746 648 764 658 Q 818 685 860 691 Q 894 695 895 706 Q 892 716 827 772 Q 803 793 733 781 Q 642 772 384 733 Q 327 723 272 718 Q 271 718 269 717 C 239 713 241 704 268 691 Q 296 673 323 680 Q 356 690 391 698 L 418 703 Q 457 715 518 720 L 556 725 Z" fill="black" /></g></svg>