<?xml version='1.0' encoding='utf-8'?>
<svg xmlns="http://www.w3.org/2000/svg" version="1.1" viewBox="0 0 1024 1024"><g transform="scale(1, -1) translate(0, -900)"><path d="M 247 446 Q 272 450 301 462 Q 314 469 323 460 Q 327 456 319 442 Q 303 412 288 384 Q 276 363 288 347 Q 340 277 328 259 Q 324 252 307 256 Q 288 260 266 262 Q 247 263 268 251 Q 308 227 346 198 Q 359 189 368 200 Q 378 209 383 229 Q 387 248 372 280 Q 356 314 327 341 Q 314 356 310 364 Q 309 374 318 386 Q 363 443 384 455 Q 400 464 393 475 Q 384 491 355 508 Q 339 515 326 507 Q 284 479 234 470 C 205 464 218 440 247 446 Z" fill="black" /></g></svg>