<?xml version='1.0' encoding='utf-8'?>
<svg xmlns="http://www.w3.org/2000/svg" version="1.1" viewBox="0 0 1024 1024"><g transform="scale(1, -1) translate(0, -900)"><path d="M 305 210 Q 311 225 302 235 Q 283 254 262 267 Q 246 276 236 272 Q 226 266 236 246 Q 269 177 217 34 Q 207 15 189 -9 Q 174 -28 182 -39 Q 189 -54 213 -66 Q 228 -76 242 -60 Q 261 -29 351 22 Q 379 35 393 53 Q 400 63 392 64 Q 391 64 292 29 Q 280 25 275 28 Q 268 31 271 48 Q 287 121 295 159 Q 298 187 305 210 Z" fill="black" /></g></svg>