<?xml version='1.0' encoding='utf-8'?>
<svg xmlns="http://www.w3.org/2000/svg" version="1.1" viewBox="0 0 1024 1024"><g transform="scale(1, -1) translate(0, -900)"><path d="M 345 178 Q 387 171 397 156 Q 407 135 372 45 Q 354 6 340 2 Q 328 -1 299 9 Q 269 22 266 18 Q 262 11 276 1 Q 306 -26 315 -56 Q 319 -69 328 -74 Q 338 -78 365 -61 Q 404 -31 430 71 Q 436 110 466 139 Q 467 142 468 144 Q 469 151 451 172 Q 427 197 384 197 Q 375 200 365 202 Q 355 205 343 209 C 314 218 316 184 345 178 Z" fill="black" /></g></svg>