<?xml version='1.0' encoding='utf-8'?>
<svg xmlns="http://www.w3.org/2000/svg" version="1.1" viewBox="0 0 1024 1024"><g transform="scale(1, -1) translate(0, -900)"><path d="M 409 735 Q 453 751 563 760 L 592 766 Q 690 784 726 780 Q 730 779 733 778 Q 757 773 753 759 L 739 703 Q 733 694 735 689 Q 743 682 759 696 Q 780 712 806 725 L 853 749 Q 860 753 860 757 Q 857 766 797 808 Q 779 821 711 809 L 280 749 C 250 745 252 742 278 727 Q 282 725 284 723 Q 301 711 320 714 Q 324 715 385 731 L 409 735 Z" fill="black" /></g></svg>