<?xml version='1.0' encoding='utf-8'?>
<svg xmlns="http://www.w3.org/2000/svg" version="1.1" viewBox="0 0 1024 1024"><g transform="scale(1, -1) translate(0, -900)"><path d="M 583 729 Q 727 754 770 745 Q 783 741 782 731 Q 767 695 751 656 Q 758 652 776 662 Q 828 687 869 692 Q 902 696 902 706 Q 901 716 836 771 Q 812 792 742 780 Q 648 771 395 735 Q 340 725 284 721 Q 283 721 283 720 C 253 716 256 705 284 693 Q 308 678 334 684 Q 368 694 408 702 L 429 707 Q 463 716 541 724 L 583 729 Z" fill="black" /></g></svg>