<?xml version='1.0' encoding='utf-8'?>
<svg xmlns="http://www.w3.org/2000/svg" version="1.1" viewBox="0 0 1024 1024"><g transform="scale(1, -1) translate(0, -900)"><path d="M 622 113 Q 623 109 627 103 Q 637 78 646 79 Q 659 80 673 107 Q 683 125 684 165 Q 677 261 695 287 Q 704 300 698 310 Q 674 331 633 350 Q 620 354 599 348 Q 527 320 378 305 C 348 302 362 271 391 279 Q 436 294 580 314 Q 607 318 616 305 Q 623 295 624 260 Q 627 161 622 142 Q 621 141 621 140 C 618 122 618 122 622 113 Z" fill="black" /></g></svg>