<?xml version='1.0' encoding='utf-8'?>
<svg xmlns="http://www.w3.org/2000/svg" version="1.1" viewBox="0 0 1024 1024"><g transform="scale(1, -1) translate(0, -900)"><path d="M 686 90 Q 701 57 721 80 Q 731 93 743 145 Q 759 214 774 243 Q 782 251 782 259 Q 782 277 739 311 Q 736 312 734 313 Q 723 317 697 308 Q 633 286 575 278 C 545 274 544 249 574 253 Q 582 253 613 261 Q 686 278 700 276 Q 706 275 709 272 Q 713 270 713 255 Q 713 253 712 241 Q 700 153 692 122 C 685 93 685 92 686 90 Z" fill="black" /></g></svg>