<?xml version='1.0' encoding='utf-8'?>
<svg xmlns="http://www.w3.org/2000/svg" version="1.1" viewBox="0 0 1024 1024"><g transform="scale(1, -1) translate(0, -900)"><path d="M 643 244 Q 788 263 816 249 Q 829 245 833 215 Q 837 118 829 42 Q 828 27 819 24 Q 806 20 742 34 Q 729 37 730 28 Q 731 21 747 11 Q 784 -20 813 -54 Q 829 -70 846 -69 Q 858 -68 874 -37 Q 893 -6 893 29 Q 894 110 894 184 Q 893 214 907 236 Q 920 252 907 267 Q 889 285 849 301 Q 833 310 784 294 L 736 283 Q 727 282 720 280 Q 620 267 556 259 L 527 256 Q 512 256 501 254 C 471 251 475 224 505 226 Q 518 226 536 229 Q 567 233 595 237 L 643 244 Z" fill="black" /></g></svg>