<?xml version='1.0' encoding='utf-8'?>
<svg xmlns="http://www.w3.org/2000/svg" version="1.1" viewBox="0 0 1024 1024"><g transform="scale(1, -1) translate(0, -900)"><path d="M 510 510 Q 531 507 634 524 Q 775 554 784 543 Q 806 507 792 290 Q 782 161 746 90 Q 731 56 708 49 Q 695 48 621 78 Q 611 82 611 76 Q 610 72 621 61 Q 667 12 687 -25 Q 697 -47 712 -47 Q 733 -44 754 -21 Q 787 7 808 56 Q 847 149 861 423 Q 861 498 884 526 Q 897 541 896 550 Q 895 559 873 572 Q 845 591 807 602 Q 785 609 710 583 Q 700 582 691 577 Q 649 565 527 536 C 498 529 480 509 510 510 Z" fill="black" /></g></svg>