<?xml version='1.0' encoding='utf-8'?>
<svg xmlns="http://www.w3.org/2000/svg" version="1.1" viewBox="0 0 1024 1024"><g transform="scale(1, -1) translate(0, -900)"><path d="M 655 550 Q 697 602 734 699 Q 747 727 766 746 Q 785 762 772 775 Q 759 788 728 799 Q 704 806 677 793 Q 647 783 607 772 Q 567 762 500 757 Q 487 757 481 750 Q 477 743 495 735 Q 529 720 579 733 Q 646 752 657 752 Q 682 749 676 722 Q 658 638 618 581 L 593 551 Q 536 500 456 476 Q 443 470 454 463 Q 458 459 495 461 Q 549 467 623 518 L 655 550 Z" fill="black" /></g></svg>