<?xml version='1.0' encoding='utf-8'?>
<svg xmlns="http://www.w3.org/2000/svg" version="1.1" viewBox="0 0 1024 1024"><g transform="scale(1, -1) translate(0, -900)"><path d="M 700 581 Q 701 578 703 574 Q 707 559 719 561 Q 732 562 738 576 Q 748 591 768 662 Q 781 708 815 736 Q 831 751 817 764 Q 801 780 755 803 Q 743 810 681 797 Q 624 791 577 779 Q 541 772 515 767 C 486 761 499 734 529 738 Q 533 738 540 739 Q 588 754 698 766 Q 717 767 724 764 Q 733 758 729 731 Q 713 631 704 607 C 698 586 698 586 700 581 Z" fill="black" /></g></svg>