<?xml version='1.0' encoding='utf-8'?>
<svg xmlns="http://www.w3.org/2000/svg" version="1.1" viewBox="0 0 1024 1024"><g transform="scale(1, -1) translate(0, -900)"><path d="M 627 438 Q 762 463 798 463 Q 811 463 816 457 Q 828 427 822 272 Q 813 160 780 88 Q 767 60 749 57 Q 736 54 669 78 Q 659 82 659 76 Q 658 72 670 61 Q 710 15 728 -18 Q 738 -39 751 -39 Q 769 -40 787 -22 Q 850 29 871 160 Q 886 248 894 384 Q 895 414 915 437 Q 928 452 928 460 Q 927 469 906 482 Q 878 503 842 514 Q 815 523 796 513 Q 775 506 724 493 Q 652 475 602 467 Q 571 463 549 458 C 520 452 500 441 530 436 L 532 435 Q 563 428 598 434 L 627 438 Z" fill="black" /></g></svg>