<?xml version='1.0' encoding='utf-8'?>
<svg xmlns="http://www.w3.org/2000/svg" version="1.1" viewBox="0 0 1024 1024"><g transform="scale(1, -1) translate(0, -900)"><path d="M 652 289 Q 652 285 655 275 Q 665 239 662 206 Q 652 79 662 44 Q 665 25 683 8 Q 752 -49 893 -21 Q 894 -20 898 -20 Q 931 -11 963 10 Q 982 26 966 52 Q 953 74 930 143 Q 929 158 921 162 Q 915 165 912 148 Q 893 72 879 47 Q 852 20 781 26 Q 753 27 730 38 Q 711 48 705 61 Q 684 104 714 249 Q 720 276 678 293 C 651 307 648 309 652 289 Z" fill="black" /></g></svg>