<?xml version='1.0' encoding='utf-8'?>
<svg xmlns="http://www.w3.org/2000/svg" version="1.1" viewBox="0 0 1024 1024"><g transform="scale(1, -1) translate(0, -900)"><path d="M 423 479 Q 438 464 428 386 L 428 383 L 423 354 Q 414 315 399 257 L 388 220 Q 330 63 196 -16 Q 180 -26 177 -31 Q 173 -37 185 -39 Q 257 -43 362 70 Q 371 82 380 93 Q 417 153 440 227 L 452 266 Q 465 309 477 360 L 484 390 Q 485 399 488 406 Q 495 424 498 434 Q 508 453 490 465 Q 474 478 461 485 C 436 501 412 507 423 479 Z" fill="black" /></g></svg>