<?xml version='1.0' encoding='utf-8'?>
<svg xmlns="http://www.w3.org/2000/svg" version="1.1" viewBox="0 0 1024 1024"><g transform="scale(1, -1) translate(0, -900)"><path d="M 563 324 Q 502 317 412 303 Q 396 296 390 310 Q 423 406 423 411 L 422 412 Q 412 431 390 446 Q 375 455 366 449 Q 360 446 365 434 Q 368 400 338 304 Q 335 300 334 295 Q 327 276 339 258 Q 355 239 377 250 Q 425 280 577 296 Q 736 317 743 282 Q 743 267 712 125 Q 702 79 680 50 Q 670 35 641 36 Q 601 46 565 54 Q 550 58 551 51 Q 551 45 560 38 Q 626 -13 651 -50 Q 660 -69 677 -59 Q 738 -28 752 34 Q 774 116 792 209 Q 801 246 821 277 Q 834 293 823 307 Q 807 328 769 351 Q 748 364 719 352 Q 667 333 619 330 Q 609 330 597 327 L 563 324 Z" fill="black" /></g></svg>