<?xml version='1.0' encoding='utf-8'?>
<svg xmlns="http://www.w3.org/2000/svg" version="1.1" viewBox="0 0 1024 1024"><g transform="scale(1, -1) translate(0, -900)"><path d="M 884 92 Q 872 123 859 213 Q 860 229 853 234 Q 847 238 842 220 Q 811 126 791 96 Q 764 66 690 46 Q 513 4 379 53 Q 325 77 312 109 Q 294 148 300 229 L 303 260 Q 307 320 321 387 Q 321 390 322 391 C 326 412 326 412 307 423 Q 294 433 278 439 Q 265 443 256 439 Q 249 435 254 417 Q 267 377 263 338 Q 247 143 263 90 Q 267 56 302 27 Q 414 -48 656 -22 Q 699 -16 742 -6 Q 809 13 877 54 Q 896 67 884 92 Z" fill="black" /></g></svg>