<?xml version='1.0' encoding='utf-8'?>
<svg xmlns="http://www.w3.org/2000/svg" version="1.1" viewBox="0 0 1024 1024"><g transform="scale(1, -1) translate(0, -900)"><path d="M 937 35 Q 918 78 904 156 Q 901 172 894 178 Q 885 182 882 162 Q 867 68 853 50 Q 823 17 698 13 Q 629 14 600 26 Q 575 39 568 56 Q 561 78 563 134 Q 570 195 583 224 Q 596 255 575 273 Q 523 313 506 308 Q 502 307 501 305 C 489 305 489 305 498 284 Q 520 244 515 187 Q 509 46 538 11 Q 563 -20 641 -33 Q 702 -42 798 -38 Q 885 -34 919 -15 Q 950 1 937 35 Z" fill="black" /></g></svg>