<?xml version='1.0' encoding='utf-8'?>
<svg xmlns="http://www.w3.org/2000/svg" version="1.1" viewBox="0 0 1024 1024"><g transform="scale(1, -1) translate(0, -900)"><path d="M 474 399 Q 390 389 277 383 C 247 381 269 340 299 344 Q 306 344 314 345 Q 384 358 476 373 L 529 381 Q 592 391 667 402 Q 704 409 721 391 Q 730 375 730 358 Q 730 231 705 106 Q 702 84 693 82 Q 686 81 660 99 C 634 114 645 84 657 56 Q 667 29 691 -18 Q 700 -37 711 -36 Q 727 -33 738 -5 Q 774 65 779 161 Q 786 221 792 290 Q 798 342 822 373 Q 841 394 828 408 Q 804 432 755 454 Q 736 464 700 452 Q 621 427 533 408 L 474 399 Z" fill="black" /></g></svg>