<?xml version='1.0' encoding='utf-8'?>
<svg xmlns="http://www.w3.org/2000/svg" version="1.1" viewBox="0 0 1024 1024"><g transform="scale(1, -1) translate(0, -900)"><path d="M 243 515 Q 219 515 220 501 Q 221 491 245 474 Q 272 456 316 465 Q 409 495 560 517 Q 677 535 683 504 Q 683 480 681 397 Q 677 225 680 118 Q 683 39 676 30 Q 672 23 662 22 Q 652 21 590 30 Q 577 33 575 27 Q 574 20 600 2 Q 643 -26 671 -56 Q 696 -83 707 -79 Q 717 -78 725 -60 Q 749 -6 746 28 Q 716 458 759 502 Q 765 511 764 515 Q 765 527 734 550 Q 691 580 679 580 Q 667 580 653 575 Q 592 556 461 534 Q 334 515 243 515 Z" fill="black" /></g></svg>