<?xml version='1.0' encoding='utf-8'?>
<svg xmlns="http://www.w3.org/2000/svg" version="1.1" viewBox="0 0 1024 1024"><g transform="scale(1, -1) translate(0, -900)"><path d="M 605 119 Q 692 17 797 -32 Q 876 -60 893 -42 Q 911 -30 898 4 Q 888 38 873 166 Q 872 187 866 190 Q 862 191 858 172 Q 836 66 815 45 Q 805 38 769 55 Q 700 88 642 147 L 606 188 Q 558 252 533 304 L 513 344 Q 497 378 487 409 L 476 453 Q 469 487 470 510 Q 473 537 427 549 Q 390 559 374 553 Q 356 546 373 523 Q 401 495 425 437 L 442 397 Q 455 364 472 331 L 492 292 Q 550 190 573 160 L 605 119 Z" fill="black" /></g></svg>