<?xml version='1.0' encoding='utf-8'?>
<svg xmlns="http://www.w3.org/2000/svg" version="1.1" viewBox="0 0 1024 1024"><g transform="scale(1, -1) translate(0, -900)"><path d="M 297 140 Q 310 159 300 191 Q 296 207 277 239 Q 259 278 291 319 Q 310 347 327 363 Q 348 379 330 393 Q 312 409 281 422 Q 263 434 232 410 Q 166 370 136 372 Q 129 372 128 368 Q 127 364 134 359 Q 167 344 237 371 Q 244 374 251 366 Q 267 347 248 324 Q 202 284 245 218 Q 272 155 273 141 C 280 112 285 113 297 140 Z" fill="black" /></g></svg>