<?xml version='1.0' encoding='utf-8'?>
<svg xmlns="http://www.w3.org/2000/svg" version="1.1" viewBox="0 0 1024 1024"><g transform="scale(1, -1) translate(0, -900)"><path d="M 591 395 Q 646 408 694 412 Q 716 415 721 408 Q 731 392 721 350 Q 702 236 670 188 Q 651 155 622 161 Q 592 168 566 178 Q 542 184 560 162 Q 608 122 630 91 Q 649 69 669 85 Q 700 106 724 144 Q 751 189 775 330 Q 784 379 802 404 Q 815 417 810 428 Q 801 440 749 465 Q 728 475 708 462 Q 684 449 600 432 L 543 421 Q 470 411 411 407 Q 392 407 389 398 Q 388 389 412 376 Q 437 358 459 366 Q 498 376 534 383 L 591 395 Z" fill="black" /></g></svg>