<?xml version='1.0' encoding='utf-8'?>
<svg xmlns="http://www.w3.org/2000/svg" version="1.1" viewBox="0 0 1024 1024"><g transform="scale(1, -1) translate(0, -900)"><path d="M 616 178 Q 692 43 810 -27 Q 885 -64 904 -48 Q 922 -38 914 -3 Q 907 33 910 158 Q 911 179 906 182 Q 902 183 896 165 Q 851 48 826 47 Q 738 69 652 205 L 627 250 Q 600 304 577 373 L 566 413 Q 551 467 558 514 Q 564 539 519 557 Q 483 572 467 566 Q 449 562 462 537 Q 490 503 502 461 Q 511 428 522 396 L 535 358 Q 563 271 593 220 L 616 178 Z" fill="black" /></g></svg>