<?xml version='1.0' encoding='utf-8'?>
<svg xmlns="http://www.w3.org/2000/svg" version="1.1" viewBox="0 0 1024 1024"><g transform="scale(1, -1) translate(0, -900)"><path d="M 277 449 Q 280 452 355 468 Q 373 472 378 463 Q 387 436 391 246 Q 391 86 378 66 Q 374 60 354 65 Q 330 68 306 72 Q 287 76 289 68 Q 341 28 373 -2 Q 385 -18 399 -23 Q 408 -27 415 -17 Q 445 25 447 93 Q 422 409 447 452 Q 457 470 447 479 Q 428 495 395 509 Q 379 516 364 509 Q 327 488 261 476 C 232 470 248 440 277 449 Z" fill="black" /></g></svg>