<?xml version='1.0' encoding='utf-8'?>
<svg xmlns="http://www.w3.org/2000/svg" version="1.1" viewBox="0 0 1024 1024"><g transform="scale(1, -1) translate(0, -900)"><path d="M 332 516 Q 331 517 330 518 Q 287 542 269 543 Q 257 544 249 538 Q 239 531 253 515 Q 271 488 270 281 Q 267 59 227 29 Q 208 11 219 -6 Q 225 -22 240 -34 Q 255 -47 272 -33 Q 329 27 739 17 Q 796 16 826 10 Q 872 3 873 25 Q 872 40 839 61 Q 808 80 787 80 Q 747 79 439 46 Q 321 27 312 41 Q 303 50 314 157 Q 311 166 329 417 Q 332 475 336 489 C 339 512 339 512 332 516 Z" fill="black" /></g></svg>