<?xml version='1.0' encoding='utf-8'?>
<svg xmlns="http://www.w3.org/2000/svg" version="1.1" viewBox="0 0 1024 1024"><g transform="scale(1, -1) translate(0, -900)"><path d="M 432 478 Q 462 465 630 487 Q 702 496 714 479 Q 718 466 722 430 Q 741 162 688 48 Q 675 15 654 7 Q 641 4 570 30 Q 560 34 559 27 Q 558 23 570 13 Q 616 -36 635 -72 Q 645 -94 660 -94 Q 681 -90 701 -68 Q 732 -40 752 7 Q 791 101 798 406 Q 797 440 817 466 Q 830 479 829 489 Q 828 496 807 511 Q 779 532 742 542 Q 721 548 661 532 Q 645 529 626 524 Q 515 502 452 496 C 422 493 402 482 432 478 Z" fill="black" /></g></svg>