<?xml version='1.0' encoding='utf-8'?>
<svg xmlns="http://www.w3.org/2000/svg" version="1.1" viewBox="0 0 1024 1024"><g transform="scale(1, -1) translate(0, -900)"><path d="M 516 302 Q 516 351 516 400 L 516 431 Q 516 462 515 494 L 516 537 Q 516 574 512 578 Q 500 588 475 601 Q 466 605 460 599 Q 456 593 460 586 Q 469 571 469 526 L 470 486 Q 470 456 470 424 L 470 391 Q 470 364 469 336 L 469 249 Q 469 99 459 13 Q 456 -26 480 -58 Q 492 -71 501 -55 Q 526 -7 519 36 Q 516 63 516 259 L 516 302 Z" fill="black" /></g></svg>