<?xml version='1.0' encoding='utf-8'?>
<svg xmlns="http://www.w3.org/2000/svg" version="1.1" viewBox="0 0 1024 1024"><g transform="scale(1, -1) translate(0, -900)"><path d="M 312 467 Q 387 492 655 523 Q 680 527 692 513 Q 704 507 708 456 Q 723 284 716 87 Q 716 59 706 50 Q 693 40 622 47 Q 604 48 606 39 Q 607 32 622 26 Q 686 -14 721 -48 Q 743 -67 757 -65 Q 770 -61 781 -31 Q 796 18 792 87 Q 773 334 771 427 Q 771 467 783 493 Q 796 515 785 528 Q 775 544 724 568 Q 703 580 620 556 Q 457 525 295 508 C 265 505 283 459 312 467 Z" fill="black" /></g></svg>