<?xml version='1.0' encoding='utf-8'?>
<svg xmlns="http://www.w3.org/2000/svg" version="1.1" viewBox="0 0 1024 1024"><g transform="scale(1, -1) translate(0, -900)"><path d="M 678 333 Q 678 327 686 318 Q 696 296 703 129 Q 703 53 694 39 Q 690 37 684 36 Q 670 35 627 47 Q 596 57 594 49 L 594 47 Q 594 39 604 29 Q 670 -25 707 -66 Q 710 -69 713 -69 Q 721 -72 733 -59 Q 774 2 768 95 L 768 110 Q 762 200 762 267 L 762 274 Q 768 302 760 314 Q 755 325 727 340 C 701 355 664 360 678 333 Z" fill="black" /></g></svg>