<?xml version='1.0' encoding='utf-8'?>
<svg xmlns="http://www.w3.org/2000/svg" version="1.1" viewBox="0 0 1024 1024"><g transform="scale(1, -1) translate(0, -900)"><path d="M 313 261 Q 312 192 311 101 Q 311 86 303 80 Q 299 77 249 86 Q 221 99 223 89 Q 224 82 241 69 Q 289 24 300 0 Q 313 -28 326 -30 Q 339 -31 352 -1 Q 368 39 369 104 Q 362 198 360 292 L 360 319 Q 360 397 363 412 L 368 465 Q 372 493 378 511 Q 393 538 344 557 Q 314 573 298 568 Q 282 562 296 542 Q 315 518 316 447 L 316 401 Q 315 361 314 298 L 313 261 Z" fill="black" /></g></svg>