<?xml version='1.0' encoding='utf-8'?>
<svg xmlns="http://www.w3.org/2000/svg" version="1.1" viewBox="0 0 1024 1024"><g transform="scale(1, -1) translate(0, -900)"><path d="M 927 126 Q 914 157 896 249 Q 896 265 889 270 Q 883 273 879 256 Q 852 157 834 126 Q 818 107 771 94 Q 722 81 663 83 Q 612 84 572 100 Q 538 116 528 137 Q 507 182 512 279 L 515 313 Q 519 368 530 428 Q 531 435 531 440 C 534 458 532 459 504 470 Q 497 474 486 479 Q 473 483 464 478 Q 457 474 462 456 Q 475 416 473 377 Q 461 173 478 117 Q 484 90 509 68 Q 596 2 788 31 Q 806 35 826 40 Q 874 53 921 86 Q 940 101 927 126 Z" fill="black" /></g></svg>