<?xml version='1.0' encoding='utf-8'?>
<svg xmlns="http://www.w3.org/2000/svg" version="1.1" viewBox="0 0 1024 1024"><g transform="scale(1, -1) translate(0, -900)"><path d="M 668 41 Q 656 38 593 62 Q 583 66 583 60 Q 582 56 593 45 Q 633 -1 650 -34 Q 659 -55 672 -55 Q 690 -56 707 -37 Q 773 15 788 145 Q 801 233 808 369 Q 809 399 828 423 Q 841 436 839 444 Q 838 451 819 465 Q 792 484 757 494 Q 732 501 714 493 Q 698 486 659 475 Q 605 459 567 452 Q 551 449 538 445 C 509 438 489 424 519 423 Q 547 417 669 440 Q 723 450 730 442 Q 740 415 738 257 Q 729 131 698 72 Q 686 44 668 41 Z" fill="black" /></g></svg>