<?xml version='1.0' encoding='utf-8'?>
<svg xmlns="http://www.w3.org/2000/svg" version="1.1" viewBox="0 0 1024 1024"><g transform="scale(1, -1) translate(0, -900)"><path d="M 497 317 Q 501 284 504 248 L 505 208 Q 509 88 486 48 Q 485 44 478 41 Q 466 38 373 67 Q 364 68 362 65 Q 361 61 369 52 Q 433 -6 468 -51 Q 480 -66 488 -64 Q 498 -63 516 -46 Q 558 -7 559 115 Q 559 154 557 210 Q 556 211 556 212 L 554 256 Q 550 302 549 322 L 545 356 Q 545 369 545 382 Q 545 401 533 409 Q 520 416 510 422 C 484 437 454 441 469 415 Q 487 391 492 348 L 497 317 Z" fill="black" /></g></svg>