<?xml version='1.0' encoding='utf-8'?>
<svg xmlns="http://www.w3.org/2000/svg" version="1.1" viewBox="0 0 1024 1024"><g transform="scale(1, -1) translate(0, -900)"><path d="M 595 234 Q 561 230 528 221 Q 519 217 518 221 Q 511 225 514 238 Q 521 319 530 342 Q 536 355 524 366 Q 505 385 478 395 Q 465 399 457 391 Q 453 385 462 371 Q 478 346 478 309 Q 477 240 452 207 Q 440 194 445 182 Q 452 164 468 149 Q 478 139 495 151 Q 576 202 756 194 Q 816 194 819 195 Q 826 201 821 213 Q 815 225 777 247 Q 756 260 690 248 Q 672 248 638 241 L 595 234 Z" fill="black" /></g></svg>