<?xml version='1.0' encoding='utf-8'?>
<svg xmlns="http://www.w3.org/2000/svg" version="1.1" viewBox="0 0 1024 1024"><g transform="scale(1, -1) translate(0, -900)"><path d="M 427 357 Q 439 387 452 419 L 466 459 Q 476 487 487 518 L 504 563 Q 507 569 509 572 Q 519 590 503 604 Q 466 638 451 640 Q 432 641 441 618 Q 448 587 441 550 L 431 508 Q 424 483 412 450 L 398 410 Q 379 359 376 351 L 359 317 Q 281 170 152 104 Q 110 88 98 74 Q 94 67 105 65 Q 144 55 240 112 Q 345 178 412 324 L 427 357 Z" fill="black" /></g></svg>