<?xml version='1.0' encoding='utf-8'?>
<svg xmlns="http://www.w3.org/2000/svg" version="1.1" viewBox="0 0 1024 1024"><g transform="scale(1, -1) translate(0, -900)"><path d="M 591 33 Q 563 37 536 43 Q 514 49 516 39 Q 577 -10 610 -46 Q 625 -65 641 -70 Q 651 -74 660 -64 Q 702 -4 699 46 Q 666 314 694 360 Q 707 381 694 391 Q 672 412 633 428 Q 614 435 597 428 Q 551 407 488 391 L 449 385 Q 409 382 356 381 C 326 380 336 347 366 350 Q 379 350 584 380 Q 606 384 611 371 Q 630 325 628 92 Q 628 50 618 35 Q 612 28 591 33 Z" fill="black" /></g></svg>