<?xml version='1.0' encoding='utf-8'?>
<svg xmlns="http://www.w3.org/2000/svg" version="1.1" viewBox="0 0 1024 1024"><g transform="scale(1, -1) translate(0, -900)"><path d="M 335 194 Q 351 230 368 276 Q 383 309 399 322 Q 408 329 400 344 Q 393 353 354 371 Q 350 375 283 360 Q 274 359 270 364 Q 267 379 330 452 Q 352 480 371 488 Q 392 500 378 517 Q 351 542 324 549 Q 308 555 289 540 Q 273 527 233 514 Q 190 501 172 505 Q 159 506 155 499 Q 151 492 162 485 Q 204 458 268 485 Q 284 494 288 488 Q 292 476 240 390 Q 233 369 214 353 Q 201 343 205 331 Q 208 321 213 315 Q 225 302 243 313 Q 339 370 318 294 Q 308 248 296 216 L 281 183 Q 239 99 119 21 Q 107 11 116 6 Q 129 5 157 19 Q 238 58 285 110 Q 301 131 319 162 L 335 194 Z" fill="black" /></g></svg>