<?xml version='1.0' encoding='utf-8'?>
<svg xmlns="http://www.w3.org/2000/svg" version="1.1" viewBox="0 0 1024 1024"><g transform="scale(1, -1) translate(0, -900)"><path d="M 718 289 Q 742 358 771 376 Q 787 394 774 411 Q 758 424 709 448 Q 693 455 672 448 Q 627 432 588 422 L 537 412 Q 483 405 429 400 Q 413 399 415 389 Q 416 382 434 375 Q 458 365 491 374 Q 513 378 538 381 L 586 389 Q 617 396 653 401 Q 674 405 681 396 Q 690 389 688 371 Q 679 322 667 281 C 659 252 708 261 718 289 Z" fill="black" /></g></svg>