<?xml version='1.0' encoding='utf-8'?>
<svg xmlns="http://www.w3.org/2000/svg" version="1.1" viewBox="0 0 1024 1024"><g transform="scale(1, -1) translate(0, -900)"><path d="M 475 126 Q 502 171 515 273 L 518 304 Q 519 332 522 361 L 523 400 Q 523 439 525 453 L 530 486 Q 531 498 536 510 Q 540 520 532 528 Q 519 538 501 546 C 474 560 417 559 437 536 Q 467 506 469 477 L 470 445 Q 471 417 471 388 L 471 353 Q 470 325 468 297 L 465 268 Q 465 213 430 157 L 407 126 Q 346 66 179 7 Q 166 4 163 1 Q 157 -3 172 -8 Q 283 -14 423 69 Q 435 79 447 90 L 475 126 Z" fill="black" /></g></svg>