<?xml version='1.0' encoding='utf-8'?>
<svg xmlns="http://www.w3.org/2000/svg" version="1.1" viewBox="0 0 1024 1024"><g transform="scale(1, -1) translate(0, -900)"><path d="M 562 422 Q 634 365 712 346 Q 782 333 802 342 Q 815 349 795 378 Q 783 394 764 442 Q 757 473 743 481 Q 733 488 734 472 Q 731 408 720 401 Q 707 394 665 408 Q 620 424 598 447 L 570 471 Q 545 493 522 523 L 494 561 Q 487 577 483 594 Q 479 625 434 625 Q 385 626 364 613 Q 358 609 359 599 Q 360 592 373 586 Q 403 580 441 537 L 470 505 Q 501 471 535 443 L 562 422 Z" fill="black" /></g></svg>