<?xml version='1.0' encoding='utf-8'?>
<svg xmlns="http://www.w3.org/2000/svg" version="1.1" viewBox="0 0 1024 1024"><g transform="scale(1, -1) translate(0, -900)"><path d="M 399 254 Q 403 254 410 255 Q 557 301 577 280 Q 599 268 597 34 Q 597 18 591 13 Q 578 4 519 21 Q 504 24 506 15 Q 507 9 517 4 Q 572 -36 599 -67 Q 618 -83 628 -81 Q 638 -78 648 -54 Q 663 -8 652 101 Q 637 233 652 263 Q 662 282 653 292 Q 643 305 603 324 Q 587 333 570 328 Q 545 318 487 305 Q 439 296 389 288 C 359 283 370 248 399 254 Z" fill="black" /></g></svg>