<?xml version='1.0' encoding='utf-8'?>
<svg xmlns="http://www.w3.org/2000/svg" version="1.1" viewBox="0 0 1024 1024"><g transform="scale(1, -1) translate(0, -900)"><path d="M 502 634 Q 480 646 464 647 Q 451 650 444 642 Q 437 636 445 623 Q 458 607 464 556 L 467 517 Q 468 495 469 468 L 470 433 Q 470 411 470 386 C 470 356 505 360 506 390 Q 507 415 509 438 L 512 477 Q 513 502 516 524 L 520 567 Q 521 579 524 587 Q 527 597 529 607 Q 532 616 515 628 Q 514 629 511 630 L 502 634 Z" fill="black" /></g></svg>