<?xml version='1.0' encoding='utf-8'?>
<svg xmlns="http://www.w3.org/2000/svg" version="1.1" viewBox="0 0 1024 1024"><g transform="scale(1, -1) translate(0, -900)"><path d="M 281 460 Q 302 444 350 452 Q 474 491 682 506 Q 695 506 703 505 Q 721 493 719 485 Q 707 446 695 406 L 697 405 Q 704 401 719 413 Q 768 446 809 456 Q 843 466 842 474 Q 841 484 771 535 Q 749 553 666 537 Q 591 528 540 519 L 510 515 Q 453 509 381 497 Q 332 490 284 486 Q 280 486 278 485 C 248 482 254 473 281 460 Z" fill="black" /></g></svg>