<?xml version='1.0' encoding='utf-8'?>
<svg xmlns="http://www.w3.org/2000/svg" version="1.1" viewBox="0 0 1024 1024"><g transform="scale(1, -1) translate(0, -900)"><path d="M 655 438 Q 662 468 670 487 L 692 531 Q 699 544 709 551 Q 725 569 711 585 Q 695 598 645 621 Q 629 628 608 620 Q 568 605 529 595 L 476 584 Q 415 574 349 568 Q 333 567 335 557 Q 336 550 354 543 Q 378 533 411 542 Q 444 548 477 553 L 525 561 Q 604 580 618 568 Q 628 558 624 520 L 618 484 Q 614 462 609 438 C 603 409 648 409 655 438 Z" fill="black" /></g></svg>