<?xml version='1.0' encoding='utf-8'?>
<svg xmlns="http://www.w3.org/2000/svg" version="1.1" viewBox="0 0 1024 1024"><g transform="scale(1, -1) translate(0, -900)"><path d="M 666 393 L 667 392 Q 671 376 684 376 Q 703 379 735 442 Q 753 491 789 520 Q 808 535 793 550 Q 777 568 728 595 Q 713 605 636 589 Q 588 589 431 558 Q 361 546 314 540 C 284 536 293 501 323 504 Q 332 503 340 505 Q 371 515 417 522 L 442 528 Q 491 538 555 545 L 587 548 Q 669 566 698 551 Q 705 547 700 524 Q 679 442 668 419 C 661 400 661 400 666 393 Z" fill="black" /></g></svg>