<?xml version='1.0' encoding='utf-8'?>
<svg xmlns="http://www.w3.org/2000/svg" version="1.1" viewBox="0 0 1024 1024"><g transform="scale(1, -1) translate(0, -900)"><path d="M 530 272 Q 539 333 539 407 L 543 449 Q 546 465 551 481 Q 555 491 548 498 Q 533 511 508 520 C 480 532 440 537 458 513 Q 459 509 465 503 Q 489 479 491 437 L 492 398 Q 492 316 484 265 L 477 228 Q 447 143 353 82 Q 329 73 326 65 Q 322 61 335 58 Q 395 58 472 125 Q 481 135 490 147 Q 509 174 519 215 L 530 272 Z" fill="black" /></g></svg>