<?xml version='1.0' encoding='utf-8'?>
<svg xmlns="http://www.w3.org/2000/svg" version="1.1" viewBox="0 0 1024 1024"><g transform="scale(1, -1) translate(0, -900)"><path d="M 586 226 Q 499 37 272 -51 Q 262 -55 262 -60 Q 263 -64 270 -65 Q 411 -69 547 73 Q 599 128 655 219 Q 674 247 702 263 Q 718 270 720 280 Q 721 293 692 314 Q 656 341 641 342 Q 629 342 617 334 Q 509 306 473 305 Q 470 306 468 305 C 438 303 417 291 445 282 Q 481 263 556 282 Q 587 298 604 285 Q 611 281 586 226 Z" fill="black" /></g></svg>