<?xml version='1.0' encoding='utf-8'?>
<svg xmlns="http://www.w3.org/2000/svg" version="1.1" viewBox="0 0 1024 1024"><g transform="scale(1, -1) translate(0, -900)"><path d="M 479 -13 Q 483 -37 490 -45 Q 496 -52 503 -50 Q 518 -41 522 15 Q 531 100 527 185 Q 524 236 523 385 L 523 421 Q 523 448 523 476 L 523 505 Q 523 521 524 536 Q 524 549 525 561 L 529 595 Q 532 614 535 630 Q 538 646 525 655 Q 494 676 479 678 Q 467 682 452 674 Q 445 667 451 656 Q 455 646 463 636 Q 475 615 476 584 L 477 553 Q 477 528 477 498 L 478 471 Q 477 444 478 413 L 477 380 Q 471 50 479 -13 Z" fill="black" /></g></svg>