<?xml version='1.0' encoding='utf-8'?>
<svg xmlns="http://www.w3.org/2000/svg" version="1.1" viewBox="0 0 1024 1024"><g transform="scale(1, -1) translate(0, -900)"><path d="M 638 270 Q 644 257 656 257 Q 669 258 676 273 Q 688 288 708 363 Q 723 412 758 441 Q 776 457 760 471 Q 744 487 695 512 Q 683 519 616 505 Q 582 505 437 475 Q 383 465 344 458 C 314 453 329 413 357 425 Q 364 434 461 450 L 506 457 Q 638 485 663 471 Q 672 465 667 436 Q 648 325 639 304 C 631 277 631 277 638 270 Z" fill="black" /></g></svg>