<?xml version='1.0' encoding='utf-8'?>
<svg xmlns="http://www.w3.org/2000/svg" version="1.1" viewBox="0 0 1024 1024"><g transform="scale(1, -1) translate(0, -900)"><path d="M 469 288 Q 523 333 570 374 L 612 415 Q 663 475 713 513 Q 723 523 720 541 Q 711 575 697 592 Q 685 608 668 613 Q 652 617 651 594 Q 650 587 652 575 Q 649 524 534 404 L 496 367 Q 453 330 398 286 L 372 266 Q 371 266 370 265 Q 252 180 108 104 Q 101 101 98 94 Q 97 88 102 87 Q 136 83 267 150 Q 357 204 381 220 L 469 288 Z" fill="black" /></g></svg>