<?xml version='1.0' encoding='utf-8'?>
<svg xmlns="http://www.w3.org/2000/svg" version="1.1" viewBox="0 0 1024 1024"><g transform="scale(1, -1) translate(0, -900)"><path d="M 613 337 Q 616 324 628 324 Q 649 327 687 395 Q 709 444 747 472 Q 768 485 753 503 Q 737 522 689 553 Q 674 563 594 548 Q 552 548 411 518 Q 407 518 404 516 L 379 511 Q 342 507 311 501 C 281 496 302 458 331 466 Q 330 466 332 466 Q 417 493 610 516 Q 644 520 657 513 Q 664 507 656 483 Q 628 393 617 376 Q 616 373 614 369 C 603 347 603 347 613 337 Z" fill="black" /></g></svg>