<?xml version='1.0' encoding='utf-8'?>
<svg xmlns="http://www.w3.org/2000/svg" version="1.1" viewBox="0 0 1024 1024"><g transform="scale(1, -1) translate(0, -900)"><path d="M 608 493 Q 598 500 582 507 Q 569 511 560 506 Q 553 502 558 483 Q 573 443 570 405 Q 558 173 578 109 Q 585 79 609 54 Q 694 -27 867 0 Q 880 3 894 6 Q 936 19 975 50 Q 997 69 981 99 Q 966 123 942 196 Q 941 214 933 218 Q 926 222 922 202 Q 897 121 879 97 Q 869 79 831 71 Q 743 52 668 91 Q 610 124 607 228 Q 608 327 627 456 Q 628 460 628 464 C 630 481 630 481 608 493 Z" fill="black" /></g></svg>