<?xml version='1.0' encoding='utf-8'?>
<svg xmlns="http://www.w3.org/2000/svg" version="1.1" viewBox="0 0 1024 1024"><g transform="scale(1, -1) translate(0, -900)"><path d="M 385 310 Q 386 306 388 302 Q 395 287 408 289 Q 421 293 427 308 Q 440 329 453 422 Q 463 473 496 505 Q 512 521 496 535 Q 477 550 427 570 Q 412 577 357 555 Q 273 528 233 506 C 206 492 230 472 257 485 Q 294 504 373 530 Q 389 534 396 533 Q 408 529 405 493 Q 395 363 386 337 Q 385 337 385 336 C 380 320 380 320 385 310 Z" fill="black" /></g></svg>