<?xml version='1.0' encoding='utf-8'?>
<svg xmlns="http://www.w3.org/2000/svg" version="1.1" viewBox="0 0 1024 1024"><g transform="scale(1, -1) translate(0, -900)"><path d="M 598 283 Q 653 290 718 292 Q 737 291 745 279 Q 752 272 747 258 Q 747 80 735 55 Q 731 45 719 48 Q 686 52 651 59 Q 624 60 644 44 Q 714 -5 745 -42 Q 757 -55 769 -44 Q 785 -28 793 -2 Q 803 25 803 175 Q 802 232 819 259 Q 832 278 827 286 Q 820 298 773 328 Q 755 341 741 336 Q 714 326 666 318 Q 482 299 413 283 Q 370 274 335 269 C 305 264 323 223 352 231 Q 359 232 366 234 Q 391 244 428 253 L 460 260 Q 500 275 556 278 L 598 283 Z" fill="black" /></g></svg>