<?xml version='1.0' encoding='utf-8'?>
<svg xmlns="http://www.w3.org/2000/svg" version="1.1" viewBox="0 0 1024 1024"><g transform="scale(1, -1) translate(0, -900)"><path d="M 628 464 Q 692 483 739 489 Q 749 490 752 487 Q 759 478 758 451 Q 757 378 742 344 Q 727 316 702 319 Q 686 323 671 328 Q 647 338 663 312 Q 694 270 708 239 Q 724 221 739 236 Q 790 272 814 402 Q 820 465 838 490 Q 850 503 843 512 Q 834 522 787 540 Q 768 547 752 535 Q 728 520 608 493 C 579 486 599 456 628 464 Z" fill="black" /></g></svg>