<?xml version='1.0' encoding='utf-8'?>
<svg xmlns="http://www.w3.org/2000/svg" version="1.1" viewBox="0 0 1024 1024"><g transform="scale(1, -1) translate(0, -900)"><path d="M 558 551 Q 585 560 634 574 Q 650 578 654 574 Q 658 568 656 547 Q 643 445 654 410 Q 666 385 715 370 Q 805 351 854 387 Q 864 394 861 405 Q 848 442 840 485 Q 834 513 824 487 Q 808 432 795 423 Q 788 413 756 410 Q 722 406 697 422 Q 684 434 687 490 Q 690 530 729 574 Q 741 586 726 598 Q 705 611 678 619 Q 660 625 649 613 Q 616 592 552 575 C 523 567 529 542 558 551 Z" fill="black" /></g></svg>