<?xml version='1.0' encoding='utf-8'?>
<svg xmlns="http://www.w3.org/2000/svg" version="1.1" viewBox="0 0 1024 1024"><g transform="scale(1, -1) translate(0, -900)"><path d="M 519 40 Q 573 6 651 -57 Q 676 -78 694 -77 Q 715 -77 715 -57 Q 715 -38 686 8 Q 674 30 645 43 Q 593 65 550 82 L 502 99 Q 462 114 433 121 Q 411 125 422 147 Q 432 166 441 181 L 458 216 Q 465 234 474 245 Q 484 252 480 262 Q 474 275 437 302 Q 425 311 415 307 Q 402 303 410 288 Q 419 269 403 211 L 392 177 Q 367 123 369 114 Q 372 104 389 101 Q 428 89 475 65 L 519 40 Z" fill="black" /></g></svg>