<?xml version='1.0' encoding='utf-8'?>
<svg xmlns="http://www.w3.org/2000/svg" version="1.1" viewBox="0 0 1024 1024"><g transform="scale(1, -1) translate(0, -900)"><path d="M 323 533 Q 322 537 317 539 Q 277 561 258 562 Q 248 563 239 557 Q 230 551 243 535 Q 262 511 261 296 Q 261 95 227 44 Q 224 43 223 40 Q 204 24 216 7 Q 220 -8 235 -19 Q 250 -31 269 -16 Q 320 29 590 45 Q 764 54 825 47 Q 847 44 859 51 Q 869 57 869 63 Q 868 76 835 96 Q 804 114 785 112 Q 745 109 431 63 Q 310 39 301 52 Q 295 58 317 462 Q 318 489 321 501 C 324 531 324 532 323 533 Z" fill="black" /></g></svg>