<?xml version='1.0' encoding='utf-8'?>
<svg xmlns="http://www.w3.org/2000/svg" version="1.1" viewBox="0 0 1024 1024"><g transform="scale(1, -1) translate(0, -900)"><path d="M 640 133 Q 640 31 633 25 Q 617 18 552 47 Q 537 51 538 43 Q 538 36 549 29 Q 606 -20 635 -58 Q 653 -76 664 -74 Q 676 -71 687 -46 Q 702 -6 703 53 Q 699 98 696 133 L 692 184 Q 689 266 700 290 Q 710 309 702 321 Q 692 334 648 356 Q 630 365 613 360 Q 582 350 523 337 L 467 326 Q 407 316 348 309 C 318 305 330 270 360 273 Q 367 272 379 274 Q 419 284 467 294 L 518 303 Q 551 310 588 315 Q 610 321 623 308 Q 635 302 639 177 L 640 133 Z" fill="black" /></g></svg>