<?xml version='1.0' encoding='utf-8'?>
<svg xmlns="http://www.w3.org/2000/svg" version="1.1" viewBox="0 0 1024 1024"><g transform="scale(1, -1) translate(0, -900)"><path d="M 229 222 Q 239 223 248 226 Q 435 292 740 300 Q 762 299 770 286 Q 777 277 772 263 Q 773 70 761 43 Q 757 33 743 35 Q 712 39 676 44 Q 648 45 669 27 Q 742 -25 773 -63 Q 786 -78 799 -66 Q 815 -48 825 -20 Q 835 10 834 173 Q 833 234 851 264 Q 867 286 860 294 Q 853 307 800 341 Q 781 356 765 349 Q 735 337 681 329 Q 423 304 327 283 Q 261 270 212 263 C 182 258 200 214 229 222 Z" fill="black" /></g></svg>