<?xml version='1.0' encoding='utf-8'?>
<svg xmlns="http://www.w3.org/2000/svg" version="1.1" viewBox="0 0 1024 1024"><g transform="scale(1, -1) translate(0, -900)"><path d="M 350 110 Q 470 131 640 133 L 696 133 Q 763 136 842 133 Q 876 132 906 131 Q 928 131 934 140 Q 941 153 923 169 Q 860 217 792 199 Q 747 193 692 184 L 639 177 Q 578 173 509 161 L 468 157 Q 411 153 352 146 L 305 141 Q 211 134 111 124 Q 87 123 104 103 Q 119 87 139 81 Q 161 74 180 78 Q 237 93 299 102 L 350 110 Z" fill="black" /></g></svg>