<?xml version='1.0' encoding='utf-8'?>
<svg xmlns="http://www.w3.org/2000/svg" version="1.1" viewBox="0 0 1024 1024"><g transform="scale(1, -1) translate(0, -900)"><path d="M 333 231 Q 457 288 747 293 Q 781 294 793 281 Q 809 265 804 230 Q 786 53 746 26 Q 739 23 669 45 Q 653 54 651 46 Q 650 36 667 20 Q 700 -23 712 -56 Q 728 -84 750 -68 Q 798 -40 821 11 Q 836 63 865 207 Q 872 246 890 262 Q 906 278 899 289 Q 889 302 839 329 Q 814 342 783 337 Q 728 327 665 324 Q 604 320 546 312 L 503 307 Q 436 300 376 289 Q 340 282 345 305 C 324 326 305 220 333 231 Z" fill="black" /></g></svg>