<?xml version='1.0' encoding='utf-8'?>
<svg xmlns="http://www.w3.org/2000/svg" version="1.1" viewBox="0 0 1024 1024"><g transform="scale(1, -1) translate(0, -900)"><path d="M 659 362 Q 659 361 660 359 Q 664 344 675 344 Q 693 347 721 397 Q 739 445 773 471 Q 792 486 777 501 Q 761 517 715 544 Q 699 554 680 547 Q 643 540 598 534 Q 595 534 594 533 L 539 526 Q 493 522 451 513 L 404 505 Q 337 495 291 488 C 261 483 278 443 307 452 Q 320 459 410 475 L 450 481 Q 487 488 537 494 L 584 499 Q 660 514 687 500 Q 693 496 689 476 Q 673 415 666 395 C 657 366 657 366 659 362 Z" fill="black" /></g></svg>