<?xml version='1.0' encoding='utf-8'?>
<svg xmlns="http://www.w3.org/2000/svg" version="1.1" viewBox="0 0 1024 1024"><g transform="scale(1, -1) translate(0, -900)"><path d="M 676 368 Q 722 380 748 384 Q 770 385 777 379 Q 790 369 791 332 Q 790 295 791 250 Q 792 219 781 204 Q 775 194 754 199 Q 735 203 715 207 Q 700 211 695 205 Q 691 201 705 191 Q 756 151 786 118 Q 799 105 817 112 Q 827 116 837 142 Q 855 184 851 233 Q 842 342 852 378 Q 859 393 852 401 Q 831 414 799 426 Q 781 433 767 426 Q 736 410 677 396 L 623 383 Q 583 376 535 369 C 505 365 514 332 543 337 Q 550 337 623 355 L 676 368 Z" fill="black" /></g></svg>