<?xml version='1.0' encoding='utf-8'?>
<svg xmlns="http://www.w3.org/2000/svg" version="1.1" viewBox="0 0 1024 1024"><g transform="scale(1, -1) translate(0, -900)"><path d="M 500 241 Q 734 280 758 253 Q 767 246 763 231 Q 762 77 751 55 Q 747 45 734 47 Q 698 53 659 60 Q 632 61 652 44 Q 728 -4 761 -42 Q 771 -55 782 -45 Q 807 -18 815 76 Q 819 209 835 231 Q 850 252 843 260 Q 836 273 784 304 Q 765 319 750 312 Q 722 300 669 291 Q 584 282 522 273 L 460 264 Q 394 257 358 246 Q 294 233 245 227 Q 244 227 241 226 C 211 222 237 182 267 186 Q 280 185 296 190 Q 350 211 447 231 L 500 241 Z" fill="black" /></g></svg>