<?xml version='1.0' encoding='utf-8'?>
<svg xmlns="http://www.w3.org/2000/svg" version="1.1" viewBox="0 0 1024 1024"><g transform="scale(1, -1) translate(0, -900)"><path d="M 489 124 Q 492 124 576 143 Q 592 147 598 141 Q 604 137 600 118 Q 591 10 627 -31 Q 628 -31 630 -34 Q 667 -79 782 -75 Q 837 -71 884 -46 Q 903 -34 893 -13 Q 868 53 864 125 Q 861 132 855 133 Q 852 133 847 120 Q 831 29 819 7 Q 812 -6 788 -13 Q 760 -20 707 -17 Q 679 -16 664 -2 Q 651 8 645 36 Q 635 99 669 134 Q 696 156 630 183 Q 608 192 595 183 Q 564 165 481 149 C 452 143 460 118 489 124 Z" fill="black" /></g></svg>