<?xml version='1.0' encoding='utf-8'?>
<svg xmlns="http://www.w3.org/2000/svg" version="1.1" viewBox="0 0 1024 1024"><g transform="scale(1, -1) translate(0, -900)"><path d="M 612 457 Q 616 444 627 444 Q 639 445 646 458 Q 646 459 647 460 L 654 471 Q 696 564 722 585 Q 738 598 725 613 Q 710 628 667 651 Q 655 660 599 646 Q 533 640 429 615 Q 378 605 341 598 C 312 592 332 555 360 566 Q 360 567 362 567 Q 395 580 450 590 L 507 600 Q 622 621 642 613 Q 649 609 643 586 Q 627 519 618 495 C 608 467 607 463 612 457 Z" fill="black" /></g></svg>