<?xml version='1.0' encoding='utf-8'?>
<svg xmlns="http://www.w3.org/2000/svg" version="1.1" viewBox="0 0 1024 1024"><g transform="scale(1, -1) translate(0, -900)"><path d="M 436 172 Q 424 182 415 187 C 390 204 382 181 385 151 Q 388 129 386 101 Q 380 11 386 -7 Q 393 -31 410 -47 Q 465 -96 624 -83 Q 696 -76 723 -61 Q 750 -45 736 -16 Q 717 12 699 65 Q 696 78 689 82 Q 682 86 681 68 Q 677 2 667 -10 Q 646 -34 537 -34 Q 476 -34 453 -26 Q 431 -17 427 -6 Q 411 60 442 127 Q 443 136 446 141 C 452 160 452 160 436 172 Z" fill="black" /></g></svg>