<?xml version='1.0' encoding='utf-8'?>
<svg xmlns="http://www.w3.org/2000/svg" version="1.1" viewBox="0 0 1024 1024"><g transform="scale(1, -1) translate(0, -900)"><path d="M 688 341 Q 703 341 921 342 Q 942 342 946 351 Q 953 363 935 377 Q 877 422 811 405 Q 765 399 711 388 L 650 379 Q 586 372 517 362 L 472 357 Q 417 353 362 345 L 316 340 Q 217 331 113 319 Q 91 318 107 299 Q 122 284 140 278 Q 162 272 179 277 Q 249 296 329 308 L 367 314 Q 445 326 471 326 L 517 331 Q 572 338 642 340 L 688 341 Z" fill="black" /></g></svg>