<?xml version='1.0' encoding='utf-8'?>
<svg xmlns="http://www.w3.org/2000/svg" version="1.1" viewBox="0 0 1024 1024"><g transform="scale(1, -1) translate(0, -900)"><path d="M 468 99 Q 465 -46 483 -69 Q 487 -76 495 -74 Q 514 -62 520 105 L 520 138 Q 520 171 518 203 L 517 241 Q 516 280 517 331 L 517 362 Q 516 402 518 449 L 518 478 Q 518 479 519 480 Q 519 508 521 524 L 528 560 Q 529 564 530 567 Q 533 583 520 592 Q 513 596 507 600 C 482 617 434 616 450 590 Q 454 583 460 574 Q 467 561 470 543 L 473 514 Q 473 493 473 470 L 473 444 Q 472 404 472 357 L 471 326 Q 470 283 470 233 L 469 197 Q 469 166 468 132 L 468 99 Z" fill="black" /></g></svg>