<?xml version='1.0' encoding='utf-8'?>
<svg xmlns="http://www.w3.org/2000/svg" version="1.1" viewBox="0 0 1024 1024"><g transform="scale(1, -1) translate(0, -900)"><path d="M 627 96 Q 742 -48 868 -72 Q 872 -72 878 -73 Q 903 -69 896 -35 Q 881 -4 862 150 Q 861 163 854 165 Q 847 165 846 150 Q 839 113 832 76 Q 823 28 807 26 Q 764 23 680 109 Q 673 118 663 128 L 630 169 Q 585 232 556 319 L 551 361 Q 551 368 553 376 Q 556 395 516 412 Q 476 428 466 423 Q 456 416 462 401 Q 483 382 496 349 L 508 312 Q 547 204 597 136 L 627 96 Z" fill="black" /></g></svg>