<?xml version='1.0' encoding='utf-8'?>
<svg xmlns="http://www.w3.org/2000/svg" version="1.1" viewBox="0 0 1024 1024"><g transform="scale(1, -1) translate(0, -900)"><path d="M 516 327 Q 525 311 534 295 Q 547 274 553 276 Q 559 277 567 292 Q 576 308 576 332 Q 580 491 598 517 Q 607 530 601 541 Q 595 550 554 564 Q 535 573 520 565 Q 468 546 425 536 C 396 529 383 503 420 512 Q 423 513 428 514 Q 458 521 493 530 Q 524 537 535 527 Q 548 514 536 365 Q 537 349 525 349 C 510 338 510 338 516 327 Z" fill="black" /></g></svg>