<?xml version='1.0' encoding='utf-8'?>
<svg xmlns="http://www.w3.org/2000/svg" version="1.1" viewBox="0 0 1024 1024"><g transform="scale(1, -1) translate(0, -900)"><path d="M 695 345 Q 717 393 744 410 Q 760 426 748 444 Q 732 457 685 483 Q 669 490 648 484 Q 620 474 592 465 L 537 450 Q 498 444 451 433 L 398 426 Q 358 422 321 419 Q 305 418 306 409 Q 309 402 326 395 Q 341 389 404 397 L 449 406 Q 492 415 536 422 L 583 431 Q 598 435 616 437 Q 646 444 658 432 Q 665 425 662 410 Q 655 379 646 352 C 637 323 682 318 695 345 Z" fill="black" /></g></svg>