<?xml version='1.0' encoding='utf-8'?>
<svg xmlns="http://www.w3.org/2000/svg" version="1.1" viewBox="0 0 1024 1024"><g transform="scale(1, -1) translate(0, -900)"><path d="M 318 282 Q 324 279 340 274 Q 364 268 372 255 Q 381 234 342 125 Q 323 80 305 72 Q 296 69 275 75 Q 247 91 242 86 Q 238 79 251 69 Q 275 36 278 15 Q 281 2 290 -3 Q 300 -7 328 8 Q 370 41 399 158 Q 408 207 430 229 Q 440 232 441 239 Q 442 246 425 268 Q 401 296 360 297 Q 347 301 333 306 C 305 316 290 293 318 282 Z" fill="black" /></g></svg>