<?xml version='1.0' encoding='utf-8'?>
<svg xmlns="http://www.w3.org/2000/svg" version="1.1" viewBox="0 0 1024 1024"><g transform="scale(1, -1) translate(0, -900)"><path d="M 271 138 Q 286 166 282 190 Q 278 203 256 225 Q 234 253 263 307 Q 278 329 291 343 Q 312 362 291 377 Q 269 390 234 403 Q 210 415 176 380 Q 109 338 90 337 Q 83 337 81 332 Q 80 326 89 323 Q 128 311 189 341 Q 198 345 208 335 Q 223 322 211 300 Q 201 285 196 264 Q 193 242 210 221 Q 244 170 238 139 C 236 109 258 111 271 138 Z" fill="black" /></g></svg>