<?xml version='1.0' encoding='utf-8'?>
<svg xmlns="http://www.w3.org/2000/svg" version="1.1" viewBox="0 0 1024 1024"><g transform="scale(1, -1) translate(0, -900)"><path d="M 361 171 Q 361 175 362 178 Q 362 191 365 203 Q 369 213 362 224 Q 343 243 324 253 Q 309 260 301 256 Q 292 252 299 238 Q 323 181 314 110 Q 307 70 270 32 Q 258 20 263 1 Q 269 -21 279 -33 Q 289 -40 300 -28 Q 322 -4 488 77 Q 506 84 511 91 Q 515 98 508 100 Q 493 103 368 62 Q 349 58 351 74 Q 355 113 359 145 L 361 171 Z" fill="black" /></g></svg>