<?xml version='1.0' encoding='utf-8'?>
<svg xmlns="http://www.w3.org/2000/svg" version="1.1" viewBox="0 0 1024 1024"><g transform="scale(1, -1) translate(0, -900)"><path d="M 300 196 Q 300 100 284 35 Q 277 8 297 -47 Q 303 -60 309 -63 Q 315 -69 320 -62 Q 327 -58 335 -41 Q 342 -20 341 5 Q 340 36 338 263 L 338 297 Q 338 337 338 379 L 337 409 Q 337 440 341 465 L 347 506 Q 354 533 354 539 Q 348 546 303 573 Q 284 586 267 574 Q 263 570 268 557 Q 290 526 294 491 L 296 455 Q 296 430 298 400 L 299 372 L 300 370 Q 300 330 300 288 L 300 196 Z" fill="black" /></g></svg>