<?xml version='1.0' encoding='utf-8'?>
<svg xmlns="http://www.w3.org/2000/svg" version="1.1" viewBox="0 0 1024 1024"><g transform="scale(1, -1) translate(0, -900)"><path d="M 212 329 Q 215 477 221 505 Q 225 515 216 528 Q 206 537 181 550 Q 163 560 156 554 Q 149 548 156 534 Q 172 504 172 449 Q 176 281 160 126 Q 157 92 138 62 Q 129 49 137 31 Q 144 13 153 6 Q 162 -1 176 10 Q 251 62 471 68 Q 490 68 492 77 Q 491 89 468 105 Q 456 114 331 93 Q 301 93 222 76 Q 200 70 205 129 Q 204 135 205 139 L 205 147 Q 208 229 212 320 L 212 329 Z" fill="black" /></g></svg>