<?xml version='1.0' encoding='utf-8'?>
<svg xmlns="http://www.w3.org/2000/svg" version="1.1" viewBox="0 0 1024 1024"><g transform="scale(1, -1) translate(0, -900)"><path d="M 477 143 Q 365 136 305 128 Q 235 119 132 121 Q 119 121 118 111 Q 117 99 134 86 Q 149 74 177 62 Q 187 58 203 65 Q 219 71 294 82 Q 376 98 476 106 L 533 110 Q 753 126 877 112 Q 914 112 918 114 Q 918 115 919 115 Q 926 127 916 138 Q 889 163 850 183 Q 837 189 813 182 Q 743 169 672 160 Q 588 154 533 148 L 477 143 Z" fill="black" /></g></svg>