<?xml version='1.0' encoding='utf-8'?>
<svg xmlns="http://www.w3.org/2000/svg" version="1.1" viewBox="0 0 1024 1024"><g transform="scale(1, -1) translate(0, -900)"><path d="M 614 221 Q 615 220 616 217 Q 620 204 631 205 Q 643 206 649 219 Q 656 225 672 260 Q 685 305 718 330 Q 734 343 720 357 Q 704 372 662 395 Q 647 404 594 390 Q 486 375 443 366 Q 400 357 367 352 C 337 347 343 318 373 322 Q 377 322 384 323 Q 448 342 598 359 Q 623 362 634 356 Q 640 352 637 333 Q 624 261 617 247 Q 614 243 614 236 C 611 226 611 226 614 221 Z" fill="black" /></g></svg>