<?xml version='1.0' encoding='utf-8'?>
<svg xmlns="http://www.w3.org/2000/svg" version="1.1" viewBox="0 0 1024 1024"><g transform="scale(1, -1) translate(0, -900)"><path d="M 485 141 Q 485 -52 499 -74 Q 503 -80 510 -78 Q 525 -69 529 -18 Q 532 13 533 146 L 533 179 Q 532 210 534 250 L 534 282 Q 535 306 536 331 Q 536 334 536 335 L 540 371 Q 541 384 544 393 Q 547 409 535 417 Q 526 423 519 427 C 494 443 449 442 466 417 Q 470 411 475 404 Q 484 386 485 355 L 485 326 Q 485 301 485 272 L 485 242 Q 485 211 485 173 L 485 141 Z" fill="black" /></g></svg>