<?xml version='1.0' encoding='utf-8'?>
<svg xmlns="http://www.w3.org/2000/svg" version="1.1" viewBox="0 0 1024 1024"><g transform="scale(1, -1) translate(0, -900)"><path d="M 755 377 Q 764 68 746 40 Q 742 34 721 38 Q 694 42 667 47 Q 648 53 649 43 Q 707 -3 741 -37 Q 754 -56 770 -60 Q 780 -63 788 -53 Q 827 4 824 52 Q 811 208 804 461 Q 801 519 815 545 Q 827 564 815 575 Q 793 594 756 608 Q 737 615 723 608 Q 674 580 594 566 C 565 560 577 530 606 536 Q 615 536 712 561 Q 728 565 738 556 Q 748 546 754 404 L 755 377 Z" fill="black" /></g></svg>