<?xml version='1.0' encoding='utf-8'?>
<svg xmlns="http://www.w3.org/2000/svg" version="1.1" viewBox="0 0 1024 1024"><g transform="scale(1, -1) translate(0, -900)"><path d="M 634 266 Q 634 265 635 263 Q 639 248 652 249 Q 665 250 673 264 Q 683 274 705 330 Q 721 379 758 405 Q 776 420 761 435 Q 745 451 698 479 Q 685 488 610 471 Q 601 471 346 422 C 317 416 330 378 358 390 Q 367 399 466 417 L 519 427 Q 646 451 667 440 Q 674 436 669 410 Q 647 316 638 296 Q 635 292 634 285 L 634 266 Z" fill="black" /></g></svg>