<?xml version='1.0' encoding='utf-8'?>
<svg xmlns="http://www.w3.org/2000/svg" version="1.1" viewBox="0 0 1024 1024"><g transform="scale(1, -1) translate(0, -900)"><path d="M 685 434 Q 685 431 686 428 Q 689 416 699 416 Q 712 419 735 449 Q 748 491 779 513 Q 794 526 781 539 Q 768 552 728 575 Q 716 582 639 568 Q 624 568 598 563 L 544 557 Q 498 553 455 544 L 404 536 Q 331 526 280 521 C 250 518 268 486 298 488 Q 308 487 317 489 Q 354 499 409 508 L 452 516 Q 492 523 542 527 L 588 532 Q 684 547 708 533 Q 712 530 708 516 Q 696 465 689 452 L 685 434 Z" fill="black" /></g></svg>