<?xml version='1.0' encoding='utf-8'?>
<svg xmlns="http://www.w3.org/2000/svg" version="1.1" viewBox="0 0 1024 1024"><g transform="scale(1, -1) translate(0, -900)"><path d="M 587 3 Q 612 -31 630 -64 Q 637 -80 649 -80 Q 664 -80 680 -49 Q 701 -9 692 79 Q 683 178 703 202 Q 712 214 704 224 Q 686 243 638 266 Q 622 276 607 267 Q 544 242 382 218 C 352 214 357 185 387 188 Q 405 188 584 221 Q 611 225 624 215 Q 630 211 631 61 Q 630 46 628 36 Q 624 23 612 24 C 587 8 585 6 587 3 Z" fill="black" /></g></svg>