<?xml version='1.0' encoding='utf-8'?>
<svg xmlns="http://www.w3.org/2000/svg" version="1.1" viewBox="0 0 1024 1024"><g transform="scale(1, -1) translate(0, -900)"><path d="M 522 245 Q 521 309 522 414 L 522 450 Q 522 475 522 503 L 523 536 Q 524 566 527 583 Q 528 590 529 596 L 534 627 Q 534 628 535 629 Q 538 647 524 655 Q 493 676 479 678 Q 467 682 452 674 Q 443 667 451 656 Q 455 646 463 635 Q 467 626 471 614 L 476 586 Q 476 583 477 530 L 477 497 Q 477 472 477 441 L 476 409 Q 475 330 473 235 L 472 199 Q 472 -39 484 -62 Q 484 -63 486 -65 Q 492 -72 499 -70 Q 515 -60 519 -5 Q 529 106 523 207 L 522 245 Z" fill="black" /></g></svg>