<?xml version='1.0' encoding='utf-8'?>
<svg xmlns="http://www.w3.org/2000/svg" version="1.1" viewBox="0 0 1024 1024"><g transform="scale(1, -1) translate(0, -900)"><path d="M 338 429 Q 383 435 438 432 Q 454 429 461 434 Q 465 438 462 448 Q 458 457 429 472 Q 414 479 355 468 Q 351 468 349 466 L 305 458 Q 268 452 232 440 Q 225 437 223 439 Q 222 442 223 448 Q 236 488 243 499 Q 249 509 241 518 Q 231 536 210 547 Q 200 551 193 548 Q 189 544 194 531 Q 203 509 197 481 Q 187 450 170 438 Q 160 428 164 419 Q 168 403 181 391 Q 190 382 203 391 Q 234 412 294 422 L 338 429 Z" fill="black" /></g></svg>