<?xml version='1.0' encoding='utf-8'?>
<svg xmlns="http://www.w3.org/2000/svg" version="1.1" viewBox="0 0 1024 1024"><g transform="scale(1, -1) translate(0, -900)"><path d="M 401 418 Q 459 509 480 522 Q 492 531 487 541 Q 483 551 437 573 Q 427 579 406 569 Q 375 554 300 544 Q 287 543 297 531 Q 307 521 335 526 Q 402 545 407 536 Q 410 523 385 475 Q 369 442 335 402 L 325 390 Q 312 377 296 359 Q 232 289 129 225 Q 107 215 125 214 Q 222 211 381 393 Q 382 396 386 399 L 401 418 Z" fill="black" /></g></svg>