<?xml version='1.0' encoding='utf-8'?>
<svg xmlns="http://www.w3.org/2000/svg" version="1.1" viewBox="0 0 1024 1024"><g transform="scale(1, -1) translate(0, -900)"><path d="M 439 418 Q 449 390 454 368 L 455 339 Q 456 339 456 337 Q 456 318 456 292 L 456 265 Q 455 241 455 213 L 450 139 Q 446 100 434 52 Q 422 7 451 -35 Q 460 -47 470 -36 Q 485 -15 491 190 L 492 219 Q 492 249 494 272 L 495 298 Q 495 329 497 347 L 498 376 Q 498 377 499 378 Q 503 397 499 403 Q 496 415 474 426 C 448 441 429 446 439 418 Z" fill="black" /></g></svg>