<?xml version='1.0' encoding='utf-8'?>
<svg xmlns="http://www.w3.org/2000/svg" version="1.1" viewBox="0 0 1024 1024"><g transform="scale(1, -1) translate(0, -900)"><path d="M 587 478 Q 695 499 714 489 Q 721 485 716 462 Q 695 380 687 363 Q 680 348 684 334 Q 688 321 699 320 Q 711 321 718 334 Q 727 343 747 392 Q 762 435 794 460 Q 810 473 797 486 Q 782 502 741 525 Q 728 534 659 518 Q 644 518 587 506 L 548 499 Q 529 496 515 492 Q 457 480 419 474 C 389 469 415 437 443 446 Q 485 461 549 471 L 587 478 Z" fill="black" /></g></svg>