<?xml version='1.0' encoding='utf-8'?>
<svg xmlns="http://www.w3.org/2000/svg" version="1.1" viewBox="0 0 1024 1024"><g transform="scale(1, -1) translate(0, -900)"><path d="M 312 181 Q 312 117 293 52 Q 284 19 306 -30 Q 310 -43 317 -47 Q 323 -53 328 -46 Q 335 -42 343 -25 Q 350 -6 350 20 Q 349 51 351 263 L 352 296 Q 352 339 353 389 L 353 417 Q 353 418 354 419 Q 354 453 357 483 L 364 524 Q 365 534 369 543 Q 376 555 373 566 Q 369 573 323 602 Q 304 615 287 603 Q 283 599 288 586 Q 312 550 314 510 L 314 474 Q 314 443 315 406 L 315 381 Q 314 335 314 287 L 312 181 Z" fill="black" /></g></svg>