<?xml version='1.0' encoding='utf-8'?>
<svg xmlns="http://www.w3.org/2000/svg" version="1.1" viewBox="0 0 1024 1024"><g transform="scale(1, -1) translate(0, -900)"><path d="M 623 3 Q 632 -22 653 -71 Q 660 -89 671 -88 Q 686 -87 696 -62 Q 717 -20 738 108 Q 745 156 768 184 Q 784 203 773 216 Q 752 238 708 260 Q 689 270 657 260 Q 531 221 326 210 C 296 208 324 167 354 172 Q 406 181 472 190 L 514 196 Q 568 203 634 212 Q 665 213 677 202 Q 683 198 683 182 Q 682 106 666 32 Q 665 20 659 18 Q 655 17 637 27 C 610 39 612 31 623 3 Z" fill="black" /></g></svg>