<?xml version='1.0' encoding='utf-8'?>
<svg xmlns="http://www.w3.org/2000/svg" version="1.1" viewBox="0 0 1024 1024"><g transform="scale(1, -1) translate(0, -900)"><path d="M 698 510 Q 741 520 778 523 Q 790 524 792 520 Q 799 511 797 486 Q 794 416 779 384 Q 766 360 746 363 Q 730 367 716 372 Q 697 379 710 359 Q 738 325 752 299 Q 765 284 779 297 Q 827 330 845 471 Q 849 505 861 523 Q 871 533 866 540 Q 859 549 820 566 Q 804 572 790 562 Q 744 538 623 528 Q 611 528 609 522 Q 608 516 624 508 Q 639 499 667 505 L 698 510 Z" fill="black" /></g></svg>