<?xml version='1.0' encoding='utf-8'?>
<svg xmlns="http://www.w3.org/2000/svg" version="1.1" viewBox="0 0 1024 1024"><g transform="scale(1, -1) translate(0, -900)"><path d="M 705 16 Q 714 -9 734 -55 Q 741 -73 751 -72 Q 766 -71 776 -46 Q 797 -10 819 113 Q 819 159 850 195 Q 866 213 856 226 Q 837 247 795 268 Q 777 280 689 251 Q 601 230 473 220 C 443 218 449 189 479 187 Q 492 184 505 186 Q 539 193 582 200 L 623 207 Q 669 217 728 225 Q 752 229 762 218 Q 777 182 748 48 Q 747 35 740 34 Q 736 31 712 49 Q 708 53 704 51 C 689 59 694 44 705 16 Z" fill="black" /></g></svg>