<?xml version='1.0' encoding='utf-8'?>
<svg xmlns="http://www.w3.org/2000/svg" version="1.1" viewBox="0 0 1024 1024"><g transform="scale(1, -1) translate(0, -900)"><path d="M 712 249 Q 721 279 730 298 L 755 341 Q 761 351 770 356 Q 786 372 773 389 Q 703 440 656 416 Q 635 410 619 403 L 574 390 Q 564 390 498 376 L 454 368 Q 411 364 369 359 Q 353 358 354 349 Q 357 342 374 335 Q 398 325 431 335 Q 441 338 455 339 L 497 347 Q 534 354 575 362 L 617 370 Q 630 374 647 376 Q 675 383 686 371 Q 692 365 688 328 L 681 296 Q 675 277 670 258 C 662 229 703 220 712 249 Z" fill="black" /></g></svg>