<?xml version='1.0' encoding='utf-8'?>
<svg xmlns="http://www.w3.org/2000/svg" version="1.1" viewBox="0 0 1024 1024"><g transform="scale(1, -1) translate(0, -900)"><path d="M 619 403 Q 620 410 621 414 Q 624 424 617 430 Q 601 443 589 449 C 563 464 542 468 558 443 Q 559 442 561 440 Q 573 422 574 390 L 575 362 Q 576 338 577 310 L 577 285 Q 577 263 577 237 L 576 203 Q 573 68 562 32 Q 556 -4 586 -46 Q 596 -62 603 -66 Q 613 -67 618 -55 Q 628 -27 625 0 Q 621 91 617 172 L 617 246 Q 617 262 617 277 Q 616 284 616 290 L 616 316 Q 616 347 617 370 L 619 403 Z" fill="black" /></g></svg>