<?xml version='1.0' encoding='utf-8'?>
<svg xmlns="http://www.w3.org/2000/svg" version="1.1" viewBox="0 0 1024 1024"><g transform="scale(1, -1) translate(0, -900)"><path d="M 730 298 Q 781 302 842 303 Q 905 303 911 312 Q 915 321 902 332 Q 851 366 800 350 Q 779 347 755 341 L 688 328 Q 654 324 616 316 L 577 310 Q 535 306 495 298 L 456 292 Q 377 283 294 270 Q 276 269 290 255 Q 302 243 316 239 Q 334 235 347 239 Q 398 255 456 265 L 494 272 Q 545 282 577 285 L 616 290 Q 646 294 681 296 L 730 298 Z" fill="black" /></g></svg>