<?xml version='1.0' encoding='utf-8'?>
<svg xmlns="http://www.w3.org/2000/svg" version="1.1" viewBox="0 0 1024 1024"><g transform="scale(1, -1) translate(0, -900)"><path d="M 277 539 Q 270 546 251 557 Q 236 564 231 560 Q 225 556 231 544 Q 259 481 232 279 Q 228 263 216 243 Q 209 233 216 217 Q 222 202 229 196 Q 236 190 249 199 Q 315 245 512 251 Q 530 251 530 260 Q 530 270 509 284 Q 500 293 402 274 L 370 270 Q 331 267 288 256 Q 281 255 276 257 Q 273 258 273 266 Q 274 294 275 325 L 276 346 Q 276 377 278 408 L 279 430 Q 280 455 281 479 Q 281 501 284 516 C 286 532 286 532 277 539 Z" fill="black" /></g></svg>