<?xml version='1.0' encoding='utf-8'?>
<svg xmlns="http://www.w3.org/2000/svg" version="1.1" viewBox="0 0 1024 1024"><g transform="scale(1, -1) translate(0, -900)"><path d="M 702 35 Q 721 5 736 -26 Q 746 -47 756 -48 Q 766 -48 775 -26 Q 790 16 785 122 Q 781 219 789 244 Q 796 265 786 273 Q 777 283 743 300 Q 727 309 690 295 Q 644 280 547 261 C 518 255 529 229 559 234 Q 568 235 577 237 Q 626 253 693 260 Q 714 261 719 255 Q 729 245 726 116 Q 727 70 722 61 Q 721 57 717 55 C 705 31 699 39 702 35 Z" fill="black" /></g></svg>