<?xml version='1.0' encoding='utf-8'?>
<svg xmlns="http://www.w3.org/2000/svg" version="1.1" viewBox="0 0 1024 1024"><g transform="scale(1, -1) translate(0, -900)"><path d="M 627 568 Q 682 587 727 595 Q 740 596 744 593 Q 748 586 746 570 Q 742 524 732 503 Q 716 478 693 484 Q 680 485 667 489 Q 648 495 662 477 Q 687 449 698 427 Q 707 414 718 422 Q 758 441 790 549 Q 797 576 809 588 Q 819 598 814 606 Q 807 616 767 634 Q 751 641 736 631 Q 720 621 659 606 Q 598 588 546 583 Q 531 582 530 575 Q 529 569 548 560 Q 567 548 583 554 Q 592 558 601 560 L 627 568 Z" fill="black" /></g></svg>