<?xml version='1.0' encoding='utf-8'?>
<svg xmlns="http://www.w3.org/2000/svg" version="1.1" viewBox="0 0 1024 1024"><g transform="scale(1, -1) translate(0, -900)"><path d="M 291 280 Q 298 281 307 284 Q 395 308 401 306 Q 407 300 407 281 Q 410 133 403 44 Q 402 19 394 9 Q 393 9 336 12 Q 320 16 321 8 Q 364 -26 388 -51 Q 398 -67 411 -70 Q 418 -73 425 -65 Q 458 -32 456 18 Q 443 261 460 293 Q 470 309 460 317 Q 444 330 415 343 Q 400 349 389 344 Q 350 319 285 304 C 256 297 262 273 291 280 Z" fill="black" /></g></svg>