<?xml version='1.0' encoding='utf-8'?>
<svg xmlns="http://www.w3.org/2000/svg" version="1.1" viewBox="0 0 1024 1024"><g transform="scale(1, -1) translate(0, -900)"><path d="M 560 134 Q 560 140 559 194 L 560 217 Q 561 245 565 274 L 567 285 Q 568 310 574 337 C 578 358 578 358 569 365 Q 569 366 568 367 Q 556 379 535 386 Q 523 390 516 385 Q 510 381 515 366 Q 528 330 525 297 Q 518 107 533 55 Q 539 28 564 6 Q 645 -60 825 -32 Q 841 -29 860 -24 Q 903 -11 946 21 Q 967 39 951 66 Q 938 88 914 157 Q 913 173 905 178 Q 898 181 895 163 Q 870 85 854 62 Q 841 43 798 32 Q 704 7 618 38 Q 570 62 561 120 L 560 134 Z" fill="black" /></g></svg>