<?xml version='1.0' encoding='utf-8'?>
<svg xmlns="http://www.w3.org/2000/svg" version="1.1" viewBox="0 0 1024 1024"><g transform="scale(1, -1) translate(0, -900)"><path d="M 712 139 Q 832 -44 943 -67 Q 971 -66 966 -29 Q 954 2 949 151 Q 948 164 942 165 Q 936 165 933 152 Q 923 118 915 87 Q 903 44 889 44 Q 864 47 819 92 Q 779 129 745 181 L 719 225 Q 662 324 641 412 L 634 445 Q 619 526 640 586 Q 647 607 608 632 Q 569 657 557 654 Q 544 650 548 632 Q 570 602 575 553 Q 582 492 594 436 L 600 407 Q 628 293 688 182 L 712 139 Z" fill="black" /></g></svg>