<?xml version='1.0' encoding='utf-8'?>
<svg xmlns="http://www.w3.org/2000/svg" version="1.1" viewBox="0 0 1024 1024"><g transform="scale(1, -1) translate(0, -900)"><path d="M 322 192 Q 374 205 440 215 Q 453 216 460 209 Q 466 205 464 194 Q 467 61 458 40 Q 457 34 447 36 Q 426 39 403 42 Q 384 43 398 31 Q 447 -6 468 -33 Q 477 -43 486 -34 Q 507 -13 508 104 Q 508 179 518 196 Q 528 212 523 217 Q 516 226 478 246 Q 465 256 453 250 Q 434 240 396 231 Q 362 225 336 218 L 288 207 Q 251 198 230 191 Q 202 182 181 176 C 152 168 163 140 192 148 Q 199 148 208 152 Q 233 165 280 179 L 322 192 Z" fill="black" /></g></svg>