<?xml version='1.0' encoding='utf-8'?>
<svg xmlns="http://www.w3.org/2000/svg" version="1.1" viewBox="0 0 1024 1024"><g transform="scale(1, -1) translate(0, -900)"><path d="M 660 486 Q 660 485 661 482 Q 665 469 675 468 Q 687 469 694 481 Q 701 485 718 515 Q 734 558 766 583 Q 782 596 769 610 Q 756 625 713 649 Q 700 658 629 643 Q 581 643 440 613 Q 370 600 321 594 C 291 590 311 561 341 566 Q 345 566 352 567 Q 383 577 429 586 L 447 589 Q 489 598 545 603 L 579 610 Q 666 625 686 614 Q 690 610 687 592 Q 671 528 664 512 L 660 486 Z" fill="black" /></g></svg>