<?xml version='1.0' encoding='utf-8'?>
<svg xmlns="http://www.w3.org/2000/svg" version="1.1" viewBox="0 0 1024 1024"><g transform="scale(1, -1) translate(0, -900)"><path d="M 790 183 Q 791 179 794 175 Q 806 150 814 151 Q 827 152 840 179 Q 853 201 852 219 Q 828 399 863 452 Q 872 465 865 473 Q 841 494 801 510 Q 788 514 768 507 Q 750 498 660 473 L 633 468 Q 623 467 618 466 C 588 462 597 439 627 441 Q 634 440 644 442 Q 711 461 761 473 Q 777 477 784 468 Q 797 452 796 398 Q 797 244 789 213 C 786 192 786 192 790 183 Z" fill="black" /></g></svg>