<?xml version='1.0' encoding='utf-8'?>
<svg xmlns="http://www.w3.org/2000/svg" version="1.1" viewBox="0 0 1024 1024"><g transform="scale(1, -1) translate(0, -900)"><path d="M 710 444 Q 695 498 666 515 L 653 522 Q 628 534 616 528 Q 603 522 616 508 Q 649 480 655 435 L 664 396 Q 680 318 677 239 Q 676 143 649 85 Q 634 64 605 74 Q 574 86 544 97 Q 534 101 536 89 Q 540 82 557 66 Q 594 26 604 -2 Q 611 -21 629 -20 Q 642 -20 671 4 Q 699 26 714 65 Q 739 153 734 277 Q 731 350 720 403 L 710 444 Z" fill="black" /></g></svg>