<?xml version='1.0' encoding='utf-8'?>
<svg xmlns="http://www.w3.org/2000/svg" version="1.1" viewBox="0 0 1024 1024"><g transform="scale(1, -1) translate(0, -900)"><path d="M 354 378 Q 354 409 356 441 L 357 481 Q 363 676 382 739 Q 391 755 388 768 Q 381 778 326 813 Q 302 831 281 815 Q 277 811 282 795 Q 313 747 315 664 Q 315 516 313 471 L 309 364 Q 305 300 305 230 Q 301 151 278 77 Q 265 35 292 -25 Q 298 -44 306 -47 Q 312 -54 320 -45 Q 327 -41 338 -20 Q 348 5 348 37 Q 347 77 353 351 L 354 378 Z" fill="black" /></g></svg>