<?xml version='1.0' encoding='utf-8'?>
<svg xmlns="http://www.w3.org/2000/svg" version="1.1" viewBox="0 0 1024 1024"><g transform="scale(1, -1) translate(0, -900)"><path d="M 725 140 Q 738 116 763 74 Q 773 58 783 61 Q 798 65 804 90 Q 835 168 830 267 Q 831 331 831 403 Q 832 449 853 478 Q 868 497 856 510 Q 834 529 789 546 Q 771 555 741 541 Q 684 517 573 492 L 549 489 Q 537 488 527 485 C 497 480 516 447 546 452 Q 550 452 557 453 Q 624 469 732 493 Q 750 497 759 488 Q 793 434 767 190 Q 766 171 760 165 C 751 136 710 166 725 140 Z" fill="black" /></g></svg>