<?xml version='1.0' encoding='utf-8'?>
<svg xmlns="http://www.w3.org/2000/svg" version="1.1" viewBox="0 0 1024 1024"><g transform="scale(1, -1) translate(0, -900)"><path d="M 341 349 Q 342 385 343 423 L 344 463 Q 348 692 366 752 Q 382 776 355 796 Q 339 808 310 825 Q 286 843 265 827 Q 261 821 266 806 Q 299 758 300 677 Q 300 487 299 452 L 296 354 Q 292 203 283 160 Q 264 63 264 57 Q 264 42 283 -2 Q 290 -20 298 -23 Q 304 -30 312 -21 Q 319 -17 330 4 Q 340 29 339 61 Q 338 97 341 322 L 341 349 Z" fill="black" /></g></svg>