<?xml version='1.0' encoding='utf-8'?>
<svg xmlns="http://www.w3.org/2000/svg" version="1.1" viewBox="0 0 1024 1024"><g transform="scale(1, -1) translate(0, -900)"><path d="M 705 381 Q 712 374 774 369 Q 813 366 814 331 Q 813 322 811 305 Q 793 178 753 119 Q 735 100 712 102 Q 702 106 679 117 Q 642 136 638 130 Q 632 121 649 109 Q 691 67 699 31 Q 705 15 716 8 Q 729 2 762 24 Q 811 63 844 195 Q 859 303 889 332 Q 899 338 900 347 Q 901 356 876 380 Q 840 410 789 402 Q 750 405 716 412 C 687 417 677 390 705 381 Z" fill="black" /></g></svg>