<?xml version='1.0' encoding='utf-8'?>
<svg xmlns="http://www.w3.org/2000/svg" version="1.1" viewBox="0 0 1024 1024"><g transform="scale(1, -1) translate(0, -900)"><path d="M 650 540 Q 663 518 676 510 Q 686 503 701 521 Q 711 534 740 610 Q 750 640 773 662 Q 786 674 776 688 Q 761 704 721 731 Q 702 741 687 735 Q 651 728 607 720 L 548 711 Q 499 705 444 696 L 394 688 Q 333 678 284 670 C 254 665 267 628 296 636 Q 339 648 400 659 L 444 667 Q 490 676 546 683 L 598 690 Q 611 693 626 694 Q 672 701 687 684 Q 694 675 692 666 Q 673 576 659 569 C 645 548 645 548 650 540 Z" fill="black" /></g></svg>