<?xml version='1.0' encoding='utf-8'?>
<svg xmlns="http://www.w3.org/2000/svg" version="1.1" viewBox="0 0 1024 1024"><g transform="scale(1, -1) translate(0, -900)"><path d="M 226 345 Q 244 348 252 339 Q 262 326 261 291 Q 260 224 246 176 Q 234 139 223 126 Q 216 116 192 123 Q 170 127 151 130 Q 136 134 139 125 Q 142 113 155 102 Q 183 75 200 50 Q 216 31 235 44 Q 289 95 295 141 Q 295 144 296 146 Q 318 320 325 330 Q 334 346 324 356 Q 311 371 283 382 Q 261 391 247 383 Q 234 379 188 360 Q 181 357 178 359 Q 174 363 199 470 Q 202 480 202 488 C 205 502 205 502 183 514 Q 174 520 161 526 Q 149 535 141 528 Q 132 522 142 510 Q 161 479 151 429 Q 138 363 111 337 Q 101 324 105 313 Q 112 301 122 295 Q 132 288 148 303 Q 178 340 226 345 Z" fill="black" /></g></svg>