<?xml version='1.0' encoding='utf-8'?>
<svg xmlns="http://www.w3.org/2000/svg" version="1.1" viewBox="0 0 1024 1024"><g transform="scale(1, -1) translate(0, -900)"><path d="M 788 386 Q 807 387 815 379 Q 827 366 823 326 Q 805 143 758 94 Q 751 85 727 93 Q 696 106 672 116 Q 656 123 658 112 Q 659 99 672 85 Q 706 48 724 12 Q 740 -13 765 1 Q 796 26 822 59 Q 844 80 851 133 Q 864 205 879 316 Q 880 341 895 366 Q 905 384 895 393 Q 882 411 851 425 Q 827 435 812 427 Q 787 420 701 395 Q 688 392 683 397 Q 679 400 682 410 Q 706 495 706 507 C 708 518 708 518 686 533 Q 679 540 663 548 Q 651 558 642 551 Q 632 545 642 531 Q 658 503 647 457 Q 634 399 609 376 Q 596 361 601 349 Q 608 336 619 328 Q 629 321 648 336 Q 675 361 705 370 Q 760 388 788 386 Z" fill="black" /></g></svg>