<?xml version='1.0' encoding='utf-8'?>
<svg xmlns="http://www.w3.org/2000/svg" version="1.1" viewBox="0 0 1024 1024"><g transform="scale(1, -1) translate(0, -900)"><path d="M 305 390 Q 305 418 306 447 L 307 489 Q 307 669 328 745 Q 337 758 334 772 Q 327 781 275 813 Q 253 829 234 815 Q 230 811 235 796 Q 266 747 267 699 Q 268 629 269 548 Q 268 515 267 480 L 262 342 Q 258 207 248 156 Q 224 71 245 25 Q 246 19 250 13 Q 256 -3 263 -7 Q 269 -13 276 -6 Q 283 -2 293 18 Q 303 42 302 71 Q 301 108 304 360 L 305 390 Z" fill="black" /></g></svg>