<?xml version='1.0' encoding='utf-8'?>
<svg xmlns="http://www.w3.org/2000/svg" version="1.1" viewBox="0 0 1024 1024"><g transform="scale(1, -1) translate(0, -900)"><path d="M 366 120 Q 436 163 578 181 Q 609 190 628 185 Q 649 179 651 147 Q 636 86 600 43 Q 579 15 562 9 Q 547 6 468 23 Q 452 30 450 22 Q 450 16 463 5 Q 503 -32 530 -65 Q 540 -75 549 -75 Q 592 -75 646 2 Q 671 39 700 118 Q 704 146 716 163 Q 728 173 718 186 Q 703 202 668 220 Q 650 227 577 211 Q 511 201 429 189 Q 414 186 422 201 Q 447 237 456 244 Q 469 257 460 273 Q 454 279 447 283 C 428 306 394 307 393 277 Q 400 253 368 203 Q 361 193 338 180 Q 322 164 323 149 Q 324 134 340 120 Q 352 108 366 120 Z" fill="black" /></g></svg>