<?xml version='1.0' encoding='utf-8'?>
<svg xmlns="http://www.w3.org/2000/svg" version="1.1" viewBox="0 0 1024 1024"><g transform="scale(1, -1) translate(0, -900)"><path d="M 509 315 Q 509 364 510 421 L 510 459 Q 510 678 527 742 Q 534 755 532 767 Q 526 776 477 805 Q 456 820 438 806 Q 434 802 440 788 Q 471 742 472 697 Q 473 630 476 552 Q 475 500 474 446 L 472 334 Q 472 213 449 132 Q 440 95 463 43 Q 469 28 476 25 Q 482 19 488 26 Q 495 30 504 49 Q 511 71 511 98 Q 510 126 509 290 L 509 315 Z" fill="black" /></g></svg>