<?xml version='1.0' encoding='utf-8'?>
<svg xmlns="http://www.w3.org/2000/svg" version="1.1" viewBox="0 0 1024 1024"><g transform="scale(1, -1) translate(0, -900)"><path d="M 623 167 Q 581 162 536 149 Q 531 148 527 148 Q 520 149 521 155 Q 532 186 541 208 Q 546 220 545 222 Q 545 225 541 229 Q 529 249 506 261 Q 498 267 488 261 Q 486 258 489 247 Q 499 215 494 190 Q 482 159 466 147 Q 445 127 476 96 Q 484 86 500 94 Q 543 122 623 131 L 671 137 Q 743 143 827 135 Q 837 133 845 134 Q 859 135 857 147 Q 857 149 856 151 Q 851 162 817 182 Q 804 192 725 180 Q 721 184 671 173 L 623 167 Z" fill="black" /></g></svg>