<?xml version='1.0' encoding='utf-8'?>
<svg xmlns="http://www.w3.org/2000/svg" version="1.1" viewBox="0 0 1024 1024"><g transform="scale(1, -1) translate(0, -900)"><path d="M 330 402 Q 330 421 331 442 L 332 487 Q 338 697 358 767 Q 371 794 347 811 Q 331 823 302 841 Q 278 859 257 843 Q 253 839 258 823 Q 289 775 291 691 Q 291 478 287 474 L 284 370 Q 281 228 273 182 Q 266 142 254 101 Q 242 62 267 -1 Q 274 -20 282 -23 Q 288 -30 296 -21 Q 303 -17 314 4 Q 324 29 324 61 Q 323 100 329 367 L 330 402 Z" fill="black" /></g></svg>