<?xml version='1.0' encoding='utf-8'?>
<svg xmlns="http://www.w3.org/2000/svg" version="1.1" viewBox="0 0 1024 1024"><g transform="scale(1, -1) translate(0, -900)"><path d="M 545 649 Q 530 661 516 667 Q 497 674 488 668 Q 478 661 487 646 Q 541 535 506 164 Q 503 115 462 64 Q 449 48 457 25 Q 467 -3 480 -14 Q 493 -23 506 -6 Q 522 22 674 133 Q 695 145 700 154 Q 704 164 694 164 Q 685 164 571 115 Q 555 106 554 123 Q 561 255 564 366 L 565 420 Q 564 468 564 510 L 563 536 Q 563 576 570 609 Q 571 616 570 624 C 571 632 570 632 545 649 Z" fill="black" /></g></svg>