<?xml version='1.0' encoding='utf-8'?>
<svg xmlns="http://www.w3.org/2000/svg" version="1.1" viewBox="0 0 1024 1024"><g transform="scale(1, -1) translate(0, -900)"><path d="M 556 750 Q 611 768 659 775 Q 675 776 679 772 Q 688 759 680 722 Q 664 620 637 577 Q 621 552 598 556 Q 579 563 562 571 Q 540 581 553 557 Q 586 515 599 484 Q 617 465 635 480 Q 701 522 731 702 Q 738 748 756 769 Q 768 781 762 791 Q 755 801 707 822 Q 689 829 646 808 Q 510 769 442 763 Q 426 762 423 753 Q 422 746 444 736 Q 466 723 484 729 Q 500 735 520 740 L 556 750 Z" fill="black" /></g></svg>