<?xml version='1.0' encoding='utf-8'?>
<svg xmlns="http://www.w3.org/2000/svg" version="1.1" viewBox="0 0 1024 1024"><g transform="scale(1, -1) translate(0, -900)"><path d="M 607 182 Q 632 246 633 346 L 634 381 Q 635 417 638 451 L 640 489 Q 640 522 643 556 L 645 590 Q 645 596 664 651 Q 671 664 660 675 Q 644 688 615 698 C 587 709 548 713 565 688 Q 592 661 593 586 Q 593 583 594 579 L 595 546 Q 595 510 595 473 L 595 441 Q 594 407 592 372 L 590 340 Q 583 250 572 213 L 557 179 Q 511 104 379 48 Q 366 44 365 39 Q 366 35 377 33 Q 393 30 434 42 Q 501 58 550 102 Q 571 121 588 145 L 607 182 Z" fill="black" /></g></svg>