<?xml version='1.0' encoding='utf-8'?>
<svg xmlns="http://www.w3.org/2000/svg" version="1.1" viewBox="0 0 1024 1024"><g transform="scale(1, -1) translate(0, -900)"><path d="M 312 375 Q 312 415 314 459 L 315 500 Q 315 683 336 761 Q 345 774 342 788 Q 335 797 283 829 Q 261 845 242 831 Q 236 827 243 812 Q 273 767 274 691 Q 274 519 273 488 L 269 378 Q 265 243 255 195 Q 237 107 251 68 Q 252 61 257 53 Q 264 37 271 33 Q 277 27 284 35 Q 291 39 301 58 Q 311 82 310 111 Q 309 144 312 346 L 312 375 Z" fill="black" /></g></svg>