<?xml version='1.0' encoding='utf-8'?>
<svg xmlns="http://www.w3.org/2000/svg" version="1.1" viewBox="0 0 1024 1024"><g transform="scale(1, -1) translate(0, -900)"><path d="M 672 642 Q 665 558 631 440 Q 619 385 585 336 Q 575 324 575 313 Q 576 301 589 294 Q 644 246 704 40 Q 710 12 719 7 Q 729 1 739 9 Q 754 21 762 50 Q 769 72 752 107 Q 700 215 637 291 Q 615 309 630 338 Q 676 458 705 548 Q 724 614 744 659 Q 759 684 740 697 Q 682 746 668 740 Q 649 733 660 714 Q 679 678 672 642 Z" fill="black" /></g></svg>