<?xml version='1.0' encoding='utf-8'?>
<svg xmlns="http://www.w3.org/2000/svg" version="1.1" viewBox="0 0 1024 1024"><g transform="scale(1, -1) translate(0, -900)"><path d="M 331 349 Q 331 392 333 440 L 334 478 Q 340 662 357 718 Q 366 733 363 746 Q 356 756 302 789 Q 280 805 259 791 Q 255 787 260 771 Q 290 725 292 641 Q 292 490 291 466 L 286 335 Q 280 184 262 114 Q 249 102 254 62 Q 254 47 273 6 Q 279 -12 287 -15 Q 293 -21 300 -13 Q 307 -9 318 11 Q 328 36 327 66 Q 326 100 330 337 L 331 349 Z" fill="black" /></g></svg>