<?xml version='1.0' encoding='utf-8'?>
<svg xmlns="http://www.w3.org/2000/svg" version="1.1" viewBox="0 0 1024 1024"><g transform="scale(1, -1) translate(0, -900)"><path d="M 576 339 Q 691 372 713 363 Q 725 359 727 333 Q 746 185 742 69 Q 742 47 729 41 Q 717 40 662 61 Q 650 64 650 57 Q 650 48 665 39 Q 702 5 730 -29 Q 745 -47 762 -46 Q 777 -42 793 1 Q 814 44 809 88 Q 797 193 787 289 Q 783 326 797 358 Q 807 374 793 387 Q 775 400 737 413 Q 715 422 699 409 Q 684 402 657 392 Q 599 376 566 367 C 537 359 547 331 576 339 Z" fill="black" /></g></svg>