<?xml version='1.0' encoding='utf-8'?>
<svg xmlns="http://www.w3.org/2000/svg" version="1.1" viewBox="0 0 1024 1024"><g transform="scale(1, -1) translate(0, -900)"><path d="M 739 624 Q 743 625 749 627 Q 777 634 804 642 Q 826 646 831 635 Q 853 575 847 196 Q 844 96 835 82 Q 831 76 810 81 Q 788 85 764 90 Q 743 97 744 87 Q 796 38 825 1 Q 838 -20 855 -24 Q 864 -28 873 -18 Q 916 31 915 90 Q 885 576 913 623 Q 926 644 913 655 Q 891 674 852 691 Q 833 698 816 691 Q 777 670 713 655 C 684 648 710 616 739 624 Z" fill="black" /></g></svg>