<?xml version='1.0' encoding='utf-8'?>
<svg xmlns="http://www.w3.org/2000/svg" version="1.1" viewBox="0 0 1024 1024"><g transform="scale(1, -1) translate(0, -900)"><path d="M 296 396 Q 296 421 297 446 L 297 496 Q 304 676 317 717 Q 324 730 322 744 Q 316 753 263 785 Q 241 801 222 787 Q 218 783 223 767 Q 254 721 255 675 Q 256 606 257 529 Q 256 507 255 482 L 252 376 Q 249 210 244 179 Q 222 68 225 56 Q 231 32 241 9 Q 248 -7 255 -11 Q 261 -17 268 -9 Q 275 -5 285 15 Q 294 37 293 67 Q 292 106 295 375 L 296 396 Z" fill="black" /></g></svg>