<?xml version='1.0' encoding='utf-8'?>
<svg xmlns="http://www.w3.org/2000/svg" version="1.1" viewBox="0 0 1024 1024"><g transform="scale(1, -1) translate(0, -900)"><path d="M 575 145 Q 532 138 484 122 Q 459 112 474 133 Q 582 290 633 333 Q 643 343 638 352 Q 628 368 598 385 Q 583 392 575 390 Q 566 387 568 373 Q 569 343 534 276 L 522 256 Q 521 255 520 252 Q 433 122 405 107 Q 393 98 396 86 Q 397 74 421 57 Q 431 47 444 58 Q 495 97 582 130 L 584 130 C 612 140 605 150 575 145 Z" fill="black" /></g></svg>