<?xml version='1.0' encoding='utf-8'?>
<svg xmlns="http://www.w3.org/2000/svg" version="1.1" viewBox="0 0 1024 1024"><g transform="scale(1, -1) translate(0, -900)"><path d="M 640 600 Q 739 621 767 618 Q 779 609 777 603 Q 777 600 761 551 Q 755 541 761 537 Q 767 533 780 543 Q 822 570 856 579 Q 884 586 884 593 Q 883 602 823 643 Q 802 659 696 636 Q 678 636 651 628 L 629 625 Q 616 624 603 621 Q 599 622 595 621 Q 592 621 590 619 Q 560 616 527 608 Q 491 601 455 596 Q 430 595 446 581 Q 471 559 498 567 Q 535 580 580 589 L 640 600 Z" fill="black" /></g></svg>