<?xml version='1.0' encoding='utf-8'?>
<svg xmlns="http://www.w3.org/2000/svg" version="1.1" viewBox="0 0 1024 1024"><g transform="scale(1, -1) translate(0, -900)"><path d="M 293 346 Q 293 389 295 440 L 296 483 Q 296 670 317 746 Q 332 771 302 791 Q 287 803 262 817 Q 240 833 219 819 Q 215 815 221 799 Q 251 750 253 673 Q 253 499 252 471 L 249 357 Q 245 209 236 166 Q 215 70 219 58 Q 226 34 236 10 Q 243 -8 251 -11 Q 257 -18 264 -9 Q 291 7 291 70 Q 290 104 293 327 L 293 346 Z" fill="black" /></g></svg>