<?xml version='1.0' encoding='utf-8'?>
<svg xmlns="http://www.w3.org/2000/svg" version="1.1" viewBox="0 0 1024 1024"><g transform="scale(1, -1) translate(0, -900)"><path d="M 277 370 Q 277 410 279 454 L 280 506 Q 280 638 300 713 Q 309 726 306 740 Q 299 749 247 781 Q 225 797 206 783 Q 202 779 207 764 Q 237 718 238 672 Q 239 605 240 529 Q 239 510 238 489 L 234 371 Q 230 199 215 140 Q 194 80 220 20 Q 220 19 221 17 Q 228 1 235 -3 Q 241 -9 248 -2 Q 255 2 265 22 Q 275 46 274 75 Q 273 109 276 344 L 277 370 Z" fill="black" /></g></svg>