<?xml version='1.0' encoding='utf-8'?>
<svg xmlns="http://www.w3.org/2000/svg" version="1.1" viewBox="0 0 1024 1024"><g transform="scale(1, -1) translate(0, -900)"><path d="M 298 347 Q 299 393 301 444 Q 301 445 302 445 L 302 494 Q 308 699 325 754 Q 334 769 331 782 Q 324 792 270 825 Q 248 841 227 827 Q 223 823 228 807 Q 261 759 261 681 Q 261 536 259 482 L 254 370 Q 250 223 245 194 Q 221 76 222 74 Q 222 59 241 18 Q 247 0 255 -3 Q 261 -9 268 -1 Q 275 3 286 23 Q 296 48 295 78 Q 294 112 298 319 L 298 347 Z" fill="black" /></g></svg>