<?xml version='1.0' encoding='utf-8'?>
<svg xmlns="http://www.w3.org/2000/svg" version="1.1" viewBox="0 0 1024 1024"><g transform="scale(1, -1) translate(0, -900)"><path d="M 649 38 Q 671 10 688 -18 Q 695 -33 705 -32 Q 718 -31 732 -3 Q 747 28 744 69 Q 738 121 731 218 Q 730 243 743 263 Q 750 273 743 282 Q 727 298 683 317 Q 668 324 656 316 Q 617 297 486 265 C 457 258 478 234 507 240 Q 529 243 643 274 Q 662 278 673 272 Q 683 262 684 80 Q 683 76 683 71 Q 682 65 678 62 C 668 34 635 57 649 38 Z" fill="black" /></g></svg>