<?xml version='1.0' encoding='utf-8'?>
<svg xmlns="http://www.w3.org/2000/svg" version="1.1" viewBox="0 0 1024 1024"><g transform="scale(1, -1) translate(0, -900)"><path d="M 320 379 Q 320 410 321 444 L 321 483 Q 327 690 342 742 Q 357 767 326 787 Q 311 799 287 813 Q 263 829 244 814 Q 238 810 245 794 Q 278 746 278 697 Q 279 627 281 545 Q 280 508 279 470 L 276 338 Q 272 200 262 148 Q 240 64 257 20 Q 260 13 264 2 Q 271 -16 279 -19 Q 285 -26 292 -17 Q 299 -13 309 7 Q 319 32 318 62 Q 317 99 319 350 L 320 379 Z" fill="black" /></g></svg>