<?xml version='1.0' encoding='utf-8'?>
<svg xmlns="http://www.w3.org/2000/svg" version="1.1" viewBox="0 0 1024 1024"><g transform="scale(1, -1) translate(0, -900)"><path d="M 305 402 Q 305 421 306 441 L 307 485 Q 313 689 330 747 Q 343 774 319 791 Q 303 803 274 821 Q 250 839 229 823 Q 225 819 230 802 Q 260 754 262 678 Q 262 531 260 469 L 256 341 Q 250 209 239 158 Q 221 82 234 44 Q 237 32 243 19 Q 250 0 258 -3 Q 264 -10 272 -1 Q 299 15 300 81 Q 299 118 304 372 L 305 402 Z" fill="black" /></g></svg>