<?xml version='1.0' encoding='utf-8'?>
<svg xmlns="http://www.w3.org/2000/svg" version="1.1" viewBox="0 0 1024 1024"><g transform="scale(1, -1) translate(0, -900)"><path d="M 286 381 Q 286 412 288 447 L 290 494 Q 290 648 312 724 Q 325 748 298 768 Q 283 780 259 794 Q 237 810 218 795 Q 212 791 219 776 Q 249 731 250 654 Q 250 519 248 480 L 245 376 Q 241 198 222 127 Q 201 76 230 13 Q 236 -3 243 -7 Q 249 -13 256 -6 Q 263 -2 273 18 Q 283 42 282 71 Q 281 107 286 355 L 286 381 Z" fill="black" /></g></svg>