<?xml version='1.0' encoding='utf-8'?>
<svg xmlns="http://www.w3.org/2000/svg" version="1.1" viewBox="0 0 1024 1024"><g transform="scale(1, -1) translate(0, -900)"><path d="M 793 454 Q 830 458 877 461 Q 895 462 910 463 Q 925 464 928 471 Q 932 480 919 489 Q 871 519 819 500 Q 816 500 814 498 L 757 483 Q 685 471 678 465 L 633 457 Q 566 445 488 429 Q 485 429 485 428 C 473 425 473 425 483 417 Q 495 405 510 402 Q 526 399 538 403 Q 583 419 634 429 L 678 437 Q 708 444 749 449 L 793 454 Z" fill="black" /></g></svg>