<?xml version='1.0' encoding='utf-8'?>
<svg xmlns="http://www.w3.org/2000/svg" version="1.1" viewBox="0 0 1024 1024"><g transform="scale(1, -1) translate(0, -900)"><path d="M 682 271 Q 681 302 680 332 L 679 368 Q 678 402 678 437 L 678 465 Q 678 469 679 474 Q 679 508 681 534 L 685 567 Q 686 582 691 592 Q 704 619 656 637 Q 626 653 609 646 Q 594 640 608 620 Q 623 602 631 552 L 632 523 Q 632 498 633 457 L 634 429 Q 634 398 635 357 L 636 324 Q 636 227 640 89 Q 640 70 630 63 Q 624 59 558 72 Q 528 82 531 73 Q 532 66 550 54 Q 610 11 626 -15 Q 644 -46 659 -46 Q 671 -47 683 -16 Q 698 24 695 89 Q 688 158 684 225 L 682 271 Z" fill="black" /></g></svg>