<?xml version='1.0' encoding='utf-8'?>
<svg xmlns="http://www.w3.org/2000/svg" version="1.1" viewBox="0 0 1024 1024"><g transform="scale(1, -1) translate(0, -900)"><path d="M 317 359 Q 317 411 319 471 L 319 512 Q 319 674 340 749 Q 349 762 346 776 Q 339 785 287 817 Q 265 833 246 819 Q 242 815 247 799 Q 278 751 279 703 Q 280 631 281 551 Q 280 526 279 500 L 275 382 Q 271 196 253 128 Q 235 74 260 16 Q 260 15 261 13 Q 268 -3 275 -7 Q 281 -13 288 -6 Q 295 -2 305 18 Q 315 42 314 71 Q 313 107 316 332 L 317 359 Z" fill="black" /></g></svg>