<?xml version='1.0' encoding='utf-8'?>
<svg xmlns="http://www.w3.org/2000/svg" version="1.1" viewBox="0 0 1024 1024"><g transform="scale(1, -1) translate(0, -900)"><path d="M 292 378 Q 293 408 294 439 L 295 487 Q 295 665 316 741 Q 325 754 322 768 Q 315 777 263 809 Q 241 825 222 811 Q 218 807 223 791 Q 253 745 255 667 Q 255 499 254 473 L 250 355 Q 246 196 234 146 Q 215 70 231 28 Q 232 21 237 13 Q 244 -3 251 -7 Q 257 -13 264 -6 Q 271 -2 281 18 Q 291 42 290 71 Q 289 108 292 359 L 292 378 Z" fill="black" /></g></svg>