<?xml version='1.0' encoding='utf-8'?>
<svg xmlns="http://www.w3.org/2000/svg" version="1.1" viewBox="0 0 1024 1024"><g transform="scale(1, -1) translate(0, -900)"><path d="M 689 357 Q 702 336 717 330 Q 727 323 741 342 Q 753 361 778 463 Q 785 491 807 514 Q 820 526 809 538 Q 796 554 756 577 Q 737 586 724 581 Q 699 574 663 566 Q 617 556 560 544 Q 527 537 499 529 C 470 521 479 490 508 499 Q 571 520 686 540 Q 710 544 721 536 Q 731 527 729 512 Q 713 413 704 398 Q 701 389 684 384 C 673 379 673 379 689 357 Z" fill="black" /></g></svg>