<?xml version='1.0' encoding='utf-8'?>
<svg xmlns="http://www.w3.org/2000/svg" version="1.1" viewBox="0 0 1024 1024"><g transform="scale(1, -1) translate(0, -900)"><path d="M 293 354 Q 293 394 295 437 L 296 482 Q 296 647 316 721 Q 325 734 322 748 Q 315 757 263 789 Q 241 805 222 791 Q 218 787 223 772 Q 254 726 254 680 Q 255 613 256 536 Q 255 503 254 469 L 250 354 Q 244 195 227 126 Q 206 96 237 21 Q 244 5 251 1 Q 257 -5 264 2 Q 271 6 281 26 Q 291 50 290 79 Q 289 113 292 331 L 293 354 Z" fill="black" /></g></svg>