<?xml version='1.0' encoding='utf-8'?>
<svg xmlns="http://www.w3.org/2000/svg" version="1.1" viewBox="0 0 1024 1024"><g transform="scale(1, -1) translate(0, -900)"><path d="M 753 254 Q 766 230 780 222 Q 790 215 805 232 Q 818 250 852 350 Q 862 378 884 400 Q 897 410 887 424 Q 874 440 836 467 Q 821 476 734 459 Q 724 459 600 438 Q 515 423 474 427 C 444 428 491 384 520 392 Q 560 404 615 412 L 659 418 Q 777 442 800 426 Q 810 417 806 402 Q 779 290 763 281 C 749 261 749 261 753 254 Z" fill="black" /></g></svg>