<?xml version='1.0' encoding='utf-8'?>
<svg xmlns="http://www.w3.org/2000/svg" version="1.1" viewBox="0 0 1024 1024"><g transform="scale(1, -1) translate(0, -900)"><path d="M 695 226 Q 752 233 822 236 Q 838 233 845 223 Q 851 216 845 204 Q 841 63 829 44 Q 825 34 813 38 Q 789 42 763 46 Q 736 50 755 32 Q 812 -17 834 -53 Q 844 -66 855 -57 Q 880 -33 892 56 Q 896 174 917 201 Q 930 220 926 227 Q 919 239 875 268 Q 859 281 845 276 Q 818 267 772 261 Q 658 251 594 239 L 552 232 Q 539 231 532 228 Q 486 219 452 214 C 422 209 444 170 473 179 Q 480 180 488 183 Q 513 193 553 201 L 571 205 Q 614 217 657 221 L 695 226 Z" fill="black" /></g></svg>