<?xml version='1.0' encoding='utf-8'?>
<svg xmlns="http://www.w3.org/2000/svg" version="1.1" viewBox="0 0 1024 1024"><g transform="scale(1, -1) translate(0, -900)"><path d="M 741 1 Q 763 -29 779 -57 Q 786 -73 797 -72 Q 812 -71 826 -42 Q 842 -8 841 34 Q 837 83 831 177 Q 830 205 846 224 Q 853 236 846 245 Q 830 263 784 285 Q 768 292 754 285 Q 720 269 664 258 Q 642 254 625 250 C 569 238 569 214 599 217 Q 618 217 744 240 Q 762 243 770 236 Q 785 221 779 86 Q 780 49 776 38 Q 772 23 759 27 C 731 16 730 16 741 1 Z" fill="black" /></g></svg>