<?xml version='1.0' encoding='utf-8'?>
<svg xmlns="http://www.w3.org/2000/svg" version="1.1" viewBox="0 0 1024 1024"><g transform="scale(1, -1) translate(0, -900)"><path d="M 688 253 Q 751 266 828 271 Q 844 270 851 260 Q 855 254 852 243 Q 855 83 845 61 Q 842 54 832 56 Q 807 60 777 66 Q 755 69 770 54 Q 830 11 855 -22 Q 865 -34 876 -24 Q 903 6 903 137 Q 896 215 914 245 Q 926 261 920 267 Q 914 277 874 302 Q 859 314 847 308 Q 825 299 783 291 Q 729 284 688 277 L 650 271 Q 607 265 584 258 Q 547 249 520 244 C 491 238 504 207 533 214 Q 540 214 550 217 Q 584 230 650 246 L 688 253 Z" fill="black" /></g></svg>