<?xml version='1.0' encoding='utf-8'?>
<svg xmlns="http://www.w3.org/2000/svg" version="1.1" viewBox="0 0 1024 1024"><g transform="scale(1, -1) translate(0, -900)"><path d="M 744 349 Q 759 325 773 319 Q 782 312 794 329 Q 804 345 828 437 Q 835 462 853 482 Q 863 492 855 503 Q 842 516 808 538 Q 795 544 729 528 Q 723 528 631 507 Q 595 498 564 492 C 535 486 550 458 579 467 Q 601 474 633 481 L 668 489 Q 759 513 777 501 Q 787 494 784 480 Q 768 384 757 372 C 745 348 743 350 744 349 Z" fill="black" /></g></svg>