<?xml version='1.0' encoding='utf-8'?>
<svg xmlns="http://www.w3.org/2000/svg" version="1.1" viewBox="0 0 1024 1024"><g transform="scale(1, -1) translate(0, -900)"><path d="M 292 366 Q 293 406 294 450 L 295 490 Q 295 682 316 761 Q 325 774 322 788 Q 315 797 263 829 Q 241 845 222 831 Q 218 827 223 811 Q 256 763 256 692 Q 256 506 255 479 L 251 363 Q 247 209 242 180 Q 235 140 224 101 Q 214 65 237 5 Q 244 -11 251 -15 Q 257 -21 264 -13 Q 271 -9 281 11 Q 291 33 290 63 Q 289 100 292 346 L 292 366 Z" fill="black" /></g></svg>