<?xml version='1.0' encoding='utf-8'?>
<svg xmlns="http://www.w3.org/2000/svg" version="1.1" viewBox="0 0 1024 1024"><g transform="scale(1, -1) translate(0, -900)"><path d="M 650 372 Q 650 400 650 426 L 650 453 Q 650 469 651 486 L 652 514 Q 652 536 652 557 L 652 582 Q 653 604 654 624 L 655 656 Q 656 660 656 662 Q 662 677 654 684 Q 644 694 634 700 C 609 717 587 721 599 694 Q 612 667 613 644 L 614 616 Q 614 601 614 574 L 614 549 Q 614 530 614 503 L 614 480 Q 614 464 614 445 L 614 421 Q 614 396 614 365 C 614 335 650 342 650 372 Z" fill="black" /></g></svg>