<?xml version='1.0' encoding='utf-8'?>
<svg xmlns="http://www.w3.org/2000/svg" version="1.1" viewBox="0 0 1024 1024"><g transform="scale(1, -1) translate(0, -900)"><path d="M 561 363 Q 499 351 426 329 Q 410 322 412 329 Q 412 332 419 343 Q 451 388 555 502 Q 588 542 613 563 Q 625 572 623 580 Q 620 585 617 589 Q 606 608 575 626 Q 560 637 548 634 Q 547 633 546 633 Q 541 631 540 621 Q 535 573 495 503 L 478 478 Q 476 478 476 476 Q 363 327 334 314 Q 327 308 323 302 Q 321 298 321 288 Q 323 274 351 253 Q 364 240 378 253 Q 450 305 570 345 C 598 355 590 369 561 363 Z" fill="black" /></g></svg>