<?xml version='1.0' encoding='utf-8'?>
<svg xmlns="http://www.w3.org/2000/svg" version="1.1" viewBox="0 0 1024 1024"><g transform="scale(1, -1) translate(0, -900)"><path d="M 524 344 Q 603 363 684 372 C 714 376 700 393 670 391 Q 546 382 396 354 Q 384 351 392 359 Q 459 414 610 521 Q 650 551 682 566 Q 698 573 694 585 Q 688 607 660 637 Q 647 650 635 651 Q 625 650 622 633 Q 613 597 544 527 L 516 502 Q 483 472 325 358 Q 292 345 291 330 Q 290 317 312 291 Q 319 276 338 286 Q 408 317 478 334 L 524 344 Z" fill="black" /></g></svg>