<?xml version='1.0' encoding='utf-8'?>
<svg xmlns="http://www.w3.org/2000/svg" version="1.1" viewBox="0 0 1024 1024"><g transform="scale(1, -1) translate(0, -900)"><path d="M 351 536 Q 348 537 345 536 Q 303 532 269 530 Q 235 526 251 548 Q 309 660 365 744 Q 378 763 375 770 Q 371 785 329 814 Q 311 827 292 822 Q 282 818 289 802 Q 296 786 294 758 Q 287 709 236 603 Q 220 567 185 531 Q 167 515 170 502 Q 176 483 192 465 Q 204 455 216 464 Q 241 482 338 511 C 367 520 381 538 351 536 Z" fill="black" /></g></svg>