<?xml version='1.0' encoding='utf-8'?>
<svg xmlns="http://www.w3.org/2000/svg" version="1.1" viewBox="0 0 1024 1024"><g transform="scale(1, -1) translate(0, -900)"><path d="M 638 540 Q 719 582 730 578 Q 721 461 711 343 Q 696 207 767 107 Q 825 17 953 24 Q 972 25 977 36 Q 984 49 971 83 Q 953 135 944 225 Q 943 238 935 246 Q 925 253 923 232 Q 908 112 892 101 Q 883 97 874 99 Q 847 103 821 133 Q 752 205 760 351 Q 766 520 838 585 Q 851 595 839 606 Q 824 624 784 638 Q 747 651 732 640 Q 692 610 643 583 L 586 554 Q 528 529 463 506 Q 447 499 448 492 Q 447 485 463 481 Q 491 475 524 491 Q 552 504 583 516 L 638 540 Z" fill="black" /></g></svg>