<?xml version='1.0' encoding='utf-8'?>
<svg xmlns="http://www.w3.org/2000/svg" version="1.1" viewBox="0 0 1024 1024"><g transform="scale(1, -1) translate(0, -900)"><path d="M 638 546 Q 719 571 798 583 Q 811 584 816 578 Q 826 557 823 502 Q 811 300 774 193 Q 755 126 734 105 Q 722 92 697 100 Q 667 107 641 116 Q 616 123 633 101 Q 676 50 699 12 Q 709 -10 729 -4 Q 753 0 780 34 Q 861 122 878 454 Q 882 529 908 573 Q 924 595 915 606 Q 899 625 860 640 Q 833 653 805 639 Q 747 611 653 590 Q 572 571 525 569 Q 506 570 506 559 Q 505 549 528 536 Q 556 520 580 529 Q 590 533 603 536 L 638 546 Z" fill="black" /></g></svg>