<?xml version='1.0' encoding='utf-8'?>
<svg xmlns="http://www.w3.org/2000/svg" version="1.1" viewBox="0 0 1024 1024"><g transform="scale(1, -1) translate(0, -900)"><path d="M 536 446 Q 529 450 519 454 Q 506 458 499 453 Q 492 449 498 433 Q 511 396 509 361 Q 503 216 516 176 Q 523 145 550 120 Q 643 41 840 75 L 870 83 Q 916 98 962 132 Q 983 148 968 177 Q 955 199 933 269 Q 932 285 925 290 Q 918 293 914 275 Q 887 199 871 175 Q 855 154 809 142 Q 701 114 608 154 Q 571 172 561 195 Q 536 246 561 408 Q 562 414 561 418 C 563 435 563 435 536 446 Z" fill="black" /></g></svg>