<?xml version='1.0' encoding='utf-8'?>
<svg xmlns="http://www.w3.org/2000/svg" version="1.1" viewBox="0 0 1024 1024"><g transform="scale(1, -1) translate(0, -900)"><path d="M 394 363 Q 339 348 273 323 Q 254 314 266 331 Q 308 392 408 515 Q 436 554 463 576 Q 476 586 469 596 Q 459 615 424 635 Q 408 644 397 641 Q 387 638 389 622 Q 390 591 353 519 L 337 491 Q 333 485 329 477 Q 217 318 188 301 Q 175 291 178 278 Q 179 265 207 246 Q 219 234 233 247 Q 302 304 402 344 C 430 355 423 371 394 363 Z" fill="black" /></g></svg>