<?xml version='1.0' encoding='utf-8'?>
<svg xmlns="http://www.w3.org/2000/svg" version="1.1" viewBox="0 0 1024 1024"><g transform="scale(1, -1) translate(0, -900)"><path d="M 603 513 Q 607 509 616 504 Q 638 491 658 498 Q 823 537 829 521 Q 839 502 838 453 Q 834 273 805 177 Q 792 116 772 97 Q 760 84 735 90 Q 695 102 661 113 Q 636 120 654 97 Q 706 45 736 3 Q 748 -19 771 -12 Q 793 -8 817 24 Q 889 108 897 410 Q 898 477 922 518 Q 938 540 928 549 Q 913 568 878 582 Q 854 594 794 568 Q 676 535 619 531 C 589 528 580 527 603 513 Z" fill="black" /></g></svg>