<?xml version='1.0' encoding='utf-8'?>
<svg xmlns="http://www.w3.org/2000/svg" version="1.1" viewBox="0 0 1024 1024"><g transform="scale(1, -1) translate(0, -900)"><path d="M 655 433 Q 661 121 638 102 Q 626 95 543 112 Q 530 113 531 106 Q 532 99 544 90 Q 623 24 648 -15 Q 664 -34 681 -18 Q 721 24 717 98 Q 713 146 711 443 L 710 484 Q 711 526 722 555 Q 732 576 713 590 Q 691 608 666 618 C 639 631 607 633 623 607 Q 624 603 629 598 Q 654 556 653 509 Q 653 491 654 473 L 655 433 Z" fill="black" /></g></svg>