<?xml version='1.0' encoding='utf-8'?>
<svg xmlns="http://www.w3.org/2000/svg" version="1.1" viewBox="0 0 1024 1024"><g transform="scale(1, -1) translate(0, -900)"><path d="M 514 400 Q 501 397 498 389 Q 497 382 505 379 Q 538 373 569 383 Q 638 416 644 404 Q 648 397 638 380 Q 520 194 528 112 Q 532 81 557 62 Q 617 13 758 21 Q 834 25 924 66 Q 954 81 945 104 Q 923 156 906 245 Q 902 258 894 257 Q 888 257 885 241 Q 879 210 873 175 Q 864 126 827 106 Q 796 87 719 84 Q 644 80 615 93 Q 590 105 580 131 Q 559 198 669 339 Q 702 382 737 402 Q 761 415 752 427 Q 743 442 694 465 Q 675 475 649 460 Q 579 417 514 400 Z" fill="black" /></g></svg>