<?xml version='1.0' encoding='utf-8'?>
<svg xmlns="http://www.w3.org/2000/svg" version="1.1" viewBox="0 0 1024 1024"><g transform="scale(1, -1) translate(0, -900)"><path d="M 689 542 Q 738 555 796 564 Q 812 568 822 558 Q 832 552 835 504 Q 845 344 835 162 Q 834 135 824 128 Q 809 118 739 137 Q 721 141 722 131 Q 723 122 737 115 Q 800 64 831 26 Q 853 4 868 6 Q 881 9 894 40 Q 910 83 911 190 Q 893 487 915 529 Q 928 551 917 564 Q 907 580 859 605 Q 840 615 819 610 Q 779 597 695 574 L 641 562 Q 578 550 515 541 C 485 537 502 492 530 502 Q 534 508 636 530 L 689 542 Z" fill="black" /></g></svg>