<?xml version='1.0' encoding='utf-8'?>
<svg xmlns="http://www.w3.org/2000/svg" version="1.1" viewBox="0 0 1024 1024"><g transform="scale(1, -1) translate(0, -900)"><path d="M 663 453 Q 682 519 689 542 L 695 574 Q 704 700 719 739 Q 725 749 716 758 Q 697 774 662 788 Q 641 798 625 792 Q 606 785 621 767 Q 648 740 649 697 Q 649 603 641 562 L 636 530 Q 627 485 616 447 Q 592 368 532 284 Q 526 280 523 275 C 513 264 513 264 523 266 Q 523 265 533 266 Q 576 278 642 400 Q 642 401 655 431 L 663 453 Z" fill="black" /></g></svg>