<?xml version='1.0' encoding='utf-8'?>
<svg xmlns="http://www.w3.org/2000/svg" version="1.1" viewBox="0 0 1024 1024"><g transform="scale(1, -1) translate(0, -900)"><path d="M 531 413 Q 531 506 536 530 Q 540 543 531 555 Q 507 576 485 586 Q 467 593 458 588 Q 448 581 457 566 Q 508 464 473 212 Q 464 175 434 135 Q 422 119 430 97 Q 440 72 453 60 Q 466 53 477 69 Q 490 94 613 197 Q 632 209 636 218 Q 640 228 630 228 Q 618 227 594 213 Q 566 201 535 187 Q 522 180 521 192 Q 528 294 531 379 L 531 413 Z" fill="black" /></g></svg>