<?xml version='1.0' encoding='utf-8'?>
<svg xmlns="http://www.w3.org/2000/svg" version="1.1" viewBox="0 0 1024 1024"><g transform="scale(1, -1) translate(0, -900)"><path d="M 643 168 Q 553 84 462 49 Q 438 42 440 38 Q 443 26 506 46 Q 605 74 673 130 L 712 167 Q 781 251 803 352 Q 815 392 837 411 Q 841 415 841 422 Q 838 440 788 467 Q 769 474 745 463 Q 735 456 704 447 Q 676 438 700 483 Q 725 523 775 610 Q 788 632 803 641 Q 819 650 823 659 Q 827 671 788 693 Q 743 717 693 688 Q 582 643 484 629 Q 462 626 464 616 Q 467 607 496 599 Q 512 595 539 599 L 576 611 Q 588 620 707 655 Q 720 659 723 653 Q 729 637 665 505 Q 649 480 632 465 Q 617 449 624 434 Q 631 419 641 411 Q 648 405 656 405 Q 662 406 675 412 Q 685 416 712 423 Q 740 424 749 413 Q 759 403 748 366 Q 729 272 690 222 Q 683 212 674 202 L 643 168 Z" fill="black" /></g></svg>