<?xml version='1.0' encoding='utf-8'?>
<svg xmlns="http://www.w3.org/2000/svg" version="1.1" viewBox="0 0 1024 1024"><g transform="scale(1, -1) translate(0, -900)"><path d="M 564 270 Q 561 117 614 53 Q 653 8 823 17 Q 896 21 950 44 Q 984 56 971 82 Q 947 134 930 227 Q 927 242 921 248 Q 912 255 910 239 Q 900 184 889 142 Q 885 114 860 95 Q 838 70 723 72 Q 659 75 637 111 Q 615 159 615 289 L 616 324 Q 617 427 622 507 L 625 562 Q 631 686 644 738 Q 653 759 623 781 Q 598 797 578 809 Q 560 821 543 810 Q 531 804 552 776 Q 576 742 576 697 Q 577 648 575 538 L 574 488 Q 571 431 569 360 Q 568 335 566 309 L 564 270 Z" fill="black" /></g></svg>