<?xml version='1.0' encoding='utf-8'?>
<svg xmlns="http://www.w3.org/2000/svg" version="1.1" viewBox="0 0 1024 1024"><g transform="scale(1, -1) translate(0, -900)"><path d="M 281 447 Q 280 447 279 446 Q 237 450 201 452 Q 158 453 181 478 Q 242 587 302 667 Q 317 686 314 693 Q 311 708 270 739 Q 252 752 233 748 Q 223 745 229 729 Q 236 711 232 684 Q 222 636 168 533 Q 152 499 114 464 Q 95 449 97 437 Q 101 418 115 399 Q 125 389 138 395 Q 168 411 261 422 C 291 426 311 446 281 447 Z" fill="black" /></g></svg>