<?xml version='1.0' encoding='utf-8'?>
<svg xmlns="http://www.w3.org/2000/svg" version="1.1" viewBox="0 0 1024 1024"><g transform="scale(1, -1) translate(0, -900)"><path d="M 352 355 Q 300 342 236 316 Q 218 309 229 324 Q 271 382 369 499 Q 400 539 427 561 Q 440 571 434 583 Q 422 604 387 624 Q 371 634 360 631 Q 350 627 351 611 Q 352 575 309 499 L 292 472 Q 291 471 289 467 Q 175 308 147 295 Q 134 285 137 270 Q 138 255 167 236 Q 179 224 194 238 Q 251 286 363 336 C 390 348 381 363 352 355 Z" fill="black" /></g></svg>