<?xml version='1.0' encoding='utf-8'?>
<svg xmlns="http://www.w3.org/2000/svg" version="1.1" viewBox="0 0 1024 1024"><g transform="scale(1, -1) translate(0, -900)"><path d="M 650 383 Q 659 365 724 351 Q 764 344 763 306 Q 724 168 722 164 Q 719 161 718 155 Q 690 89 661 79 Q 646 73 605 90 Q 566 109 562 102 Q 556 92 574 80 Q 619 35 625 4 Q 631 -14 642 -21 Q 655 -27 691 -5 Q 751 40 795 201 Q 816 285 841 299 Q 853 303 855 313 Q 856 323 833 351 Q 800 384 750 384 Q 708 388 663 407 C 635 418 627 403 650 383 Z" fill="black" /></g></svg>