<?xml version='1.0' encoding='utf-8'?>
<svg xmlns="http://www.w3.org/2000/svg" version="1.1" viewBox="0 0 1024 1024"><g transform="scale(1, -1) translate(0, -900)"><path d="M 524 220 Q 523 221 525 221 Q 595 237 667 246 C 697 250 681 266 651 264 Q 552 257 438 238 Q 425 237 435 244 Q 481 281 587 352 Q 624 380 653 394 Q 668 400 664 411 Q 660 433 633 459 Q 620 472 611 472 Q 601 471 598 456 Q 592 420 512 347 Q 508 346 504 342 L 475 319 Q 366 244 358 239 Q 342 233 341 218 Q 340 205 360 182 Q 367 169 384 176 Q 439 201 494 214 L 524 220 Z" fill="black" /></g></svg>