<?xml version='1.0' encoding='utf-8'?>
<svg xmlns="http://www.w3.org/2000/svg" version="1.1" viewBox="0 0 1024 1024"><g transform="scale(1, -1) translate(0, -900)"><path d="M 524 235 Q 587 248 653 255 C 683 258 671 274 641 272 Q 535 265 407 245 Q 397 242 405 250 Q 573 380 640 408 Q 653 414 651 424 Q 647 445 622 470 Q 610 483 601 483 Q 591 483 589 468 Q 580 435 503 364 Q 500 364 492 355 L 465 335 Q 348 250 330 245 Q 315 239 315 226 Q 314 214 333 191 Q 340 178 356 186 Q 422 214 487 227 L 524 235 Z" fill="black" /></g></svg>