<?xml version='1.0' encoding='utf-8'?>
<svg xmlns="http://www.w3.org/2000/svg" version="1.1" viewBox="0 0 1024 1024"><g transform="scale(1, -1) translate(0, -900)"><path d="M 515 263 Q 582 279 648 289 C 678 294 665 309 635 306 Q 538 297 423 275 Q 414 274 420 279 Q 466 316 573 388 Q 609 415 637 428 Q 650 434 648 444 Q 644 465 618 490 Q 605 503 596 503 Q 586 502 584 487 Q 578 451 504 386 L 478 365 Q 364 278 345 272 Q 332 266 331 254 Q 330 241 350 219 Q 357 206 373 214 Q 425 239 482 254 L 515 263 Z" fill="black" /></g></svg>