<?xml version='1.0' encoding='utf-8'?>
<svg xmlns="http://www.w3.org/2000/svg" version="1.1" viewBox="0 0 1024 1024"><g transform="scale(1, -1) translate(0, -900)"><path d="M 610 581 Q 541 541 500 528 Q 487 524 498 515 Q 502 512 534 514 Q 579 517 638 552 L 673 579 Q 719 636 748 703 Q 761 730 780 746 Q 799 761 786 774 Q 774 786 745 797 Q 723 806 697 793 Q 672 783 636 774 Q 602 764 543 759 Q 531 758 527 752 Q 523 746 539 739 Q 570 726 614 738 Q 669 757 680 756 Q 701 749 690 727 Q 675 652 637 608 L 610 581 Z" fill="black" /></g></svg>