<?xml version='1.0' encoding='utf-8'?>
<svg xmlns="http://www.w3.org/2000/svg" version="1.1" viewBox="0 0 1024 1024"><g transform="scale(1, -1) translate(0, -900)"><path d="M 535 223 Q 590 237 647 246 C 677 251 667 265 637 263 Q 535 256 424 231 Q 418 231 421 235 Q 466 267 575 337 Q 586 345 596 351 L 635 374 Q 651 382 649 392 Q 646 410 629 430 Q 610 452 600 452 Q 598 452 596 451 Q 592 451 588 439 Q 570 394 514 341 L 494 325 Q 384 233 347 229 Q 333 225 333 211 Q 332 197 351 176 Q 353 172 356 171 Q 361 165 374 171 Q 429 198 490 214 L 535 223 Z" fill="black" /></g></svg>