<?xml version='1.0' encoding='utf-8'?>
<svg xmlns="http://www.w3.org/2000/svg" version="1.1" viewBox="0 0 1024 1024"><g transform="scale(1, -1) translate(0, -900)"><path d="M 499 567 Q 721 601 761 593 Q 779 580 776 572 Q 776 568 753 503 Q 746 490 753 485 Q 760 481 777 494 Q 829 530 872 542 Q 908 554 907 562 Q 906 572 832 624 Q 811 640 734 628 Q 629 618 526 601 L 485 596 Q 431 590 369 580 Q 311 573 255 567 C 225 564 224 548 252 537 Q 279 521 314 531 Q 425 562 459 562 L 499 567 Z" fill="black" /></g></svg>