<?xml version='1.0' encoding='utf-8'?>
<svg xmlns="http://www.w3.org/2000/svg" version="1.1" viewBox="0 0 1024 1024"><g transform="scale(1, -1) translate(0, -900)"><path d="M 552 683 L 547 650 Q 547 645 547 629 Q 545 561 555 529 Q 573 466 649 443 Q 735 416 808 425 Q 866 433 894 459 Q 911 470 906 496 Q 906 502 903 510 Q 890 553 885 662 L 885 663 L 886 672 Q 886 682 882 690 Q 874 702 866 690 L 862 678 L 862 676 Q 815 529 803 512 Q 801 506 792 502 Q 766 490 715 493 Q 703 494 698 495 Q 647 500 629 514 Q 603 531 598 590 Q 602 662 625 711 Q 627 724 637 745 Q 643 757 636 770 Q 629 782 602 800 Q 556 830 533 820 Q 532 819 531 819 Q 517 811 525 796 Q 543 780 549 755 Q 553 736 552 683 Z" fill="black" /></g></svg>