<?xml version='1.0' encoding='utf-8'?>
<svg xmlns="http://www.w3.org/2000/svg" version="1.1" viewBox="0 0 1024 1024"><g transform="scale(1, -1) translate(0, -900)"><path d="M 514 395 Q 504 396 488 396 Q 424 395 386 396 Q 385 399 386 401 Q 387 402 508 494 Q 536 504 525 529 Q 509 563 490 575 Q 477 584 467 580 Q 460 576 463 562 Q 478 517 372 429 Q 369 429 368 427 Q 347 405 335 403 Q 311 400 303 387 Q 293 362 296 349 Q 300 333 315 340 Q 336 358 484 368 C 514 370 544 393 514 395 Z" fill="black" /></g></svg>