<?xml version='1.0' encoding='utf-8'?>
<svg xmlns="http://www.w3.org/2000/svg" version="1.1" viewBox="0 0 1024 1024"><g transform="scale(1, -1) translate(0, -900)"><path d="M 524 275 Q 602 294 680 304 C 710 308 693 326 663 323 Q 546 313 409 285 Q 402 284 407 288 Q 459 327 578 402 Q 617 430 648 444 Q 664 450 660 462 Q 656 484 629 512 Q 616 527 606 527 Q 596 526 592 510 Q 580 465 498 398 Q 497 398 497 396 L 470 377 Q 335 286 325 282 Q 310 278 310 262 Q 309 249 329 225 Q 336 210 354 219 Q 420 249 486 266 L 524 275 Z" fill="black" /></g></svg>