<?xml version='1.0' encoding='utf-8'?>
<svg xmlns="http://www.w3.org/2000/svg" version="1.1" viewBox="0 0 1024 1024"><g transform="scale(1, -1) translate(0, -900)"><path d="M 776 188 Q 786 163 808 121 Q 817 102 827 104 Q 843 107 852 133 Q 888 206 892 304 Q 899 365 904 436 Q 908 485 931 515 Q 947 534 936 548 Q 914 570 866 590 Q 847 600 814 588 Q 693 543 501 522 C 471 519 492 484 522 486 Q 532 485 543 487 Q 580 496 627 504 L 670 513 Q 817 549 835 531 Q 847 524 846 497 Q 845 367 820 240 Q 819 218 809 216 Q 808 215 803 216 C 782 195 775 189 776 188 Z" fill="black" /></g></svg>