<?xml version='1.0' encoding='utf-8'?>
<svg xmlns="http://www.w3.org/2000/svg" version="1.1" viewBox="0 0 1024 1024"><g transform="scale(1, -1) translate(0, -900)"><path d="M 525 254 Q 586 270 648 278 Q 649 279 656 279 C 686 283 674 299 644 297 Q 547 290 430 268 Q 412 264 425 276 Q 468 315 568 389 Q 602 419 632 434 Q 645 441 642 452 Q 636 473 608 498 Q 595 511 585 510 Q 575 509 573 493 Q 569 442 482 371 L 457 349 Q 361 271 346 265 Q 331 258 332 245 Q 331 232 353 209 Q 360 196 377 205 Q 429 230 482 244 L 525 254 Z" fill="black" /></g></svg>