<?xml version='1.0' encoding='utf-8'?>
<svg xmlns="http://www.w3.org/2000/svg" version="1.1" viewBox="0 0 1024 1024"><g transform="scale(1, -1) translate(0, -900)"><path d="M 488 245 Q 503 255 645 281 C 674 286 660 303 630 299 Q 519 284 389 254 Q 386 253 388 255 Q 442 297 565 378 Q 602 405 632 418 Q 647 424 644 435 Q 640 456 613 483 Q 601 496 591 497 Q 581 496 578 481 Q 575 460 514 395 L 484 368 Q 340 259 310 249 Q 295 243 296 230 Q 295 217 315 194 Q 322 181 338 189 Q 402 222 469 240 L 488 245 Z" fill="black" /></g></svg>