<?xml version='1.0' encoding='utf-8'?>
<svg xmlns="http://www.w3.org/2000/svg" version="1.1" viewBox="0 0 1024 1024"><g transform="scale(1, -1) translate(0, -900)"><path d="M 631 581 Q 647 553 664 545 Q 676 536 693 558 Q 706 580 739 696 Q 749 730 776 756 Q 791 769 779 785 Q 763 804 717 834 Q 699 843 607 826 Q 597 826 430 803 Q 358 791 301 785 C 271 782 296 741 325 749 Q 331 755 465 773 L 511 779 Q 658 801 674 782 Q 684 769 683 755 Q 656 626 641 613 C 627 587 627 587 631 581 Z" fill="black" /></g></svg>