<?xml version='1.0' encoding='utf-8'?>
<svg xmlns="http://www.w3.org/2000/svg" version="1.1" viewBox="0 0 1024 1024"><g transform="scale(1, -1) translate(0, -900)"><path d="M 896 557 Q 883 593 877 654 Q 876 669 869 674 Q 862 678 858 661 Q 836 588 823 576 Q 813 564 786 556 Q 693 532 628 553 Q 598 569 595 635 L 595 658 Q 595 725 617 776 Q 629 803 611 818 Q 566 854 552 850 Q 539 846 545 829 Q 561 795 557 745 Q 550 574 576 540 Q 594 516 658 505 Q 707 498 783 500 Q 853 503 880 518 Q 905 530 896 557 Z" fill="black" /></g></svg>