<?xml version='1.0' encoding='utf-8'?>
<svg xmlns="http://www.w3.org/2000/svg" version="1.1" viewBox="0 0 1024 1024"><g transform="scale(1, -1) translate(0, -900)"><path d="M 777 323 Q 778 322 780 319 Q 802 285 821 276 Q 833 269 848 292 Q 866 323 897 494 Q 906 528 930 555 Q 943 570 931 584 Q 913 602 866 629 Q 848 638 780 618 Q 749 615 708 601 L 655 590 Q 639 587 623 583 Q 565 568 520 559 C 491 553 509 514 538 523 Q 586 539 655 554 L 707 565 Q 810 587 827 576 Q 845 563 841 538 Q 817 382 802 353 C 792 325 768 336 777 323 Z" fill="black" /></g></svg>