<?xml version='1.0' encoding='utf-8'?>
<svg xmlns="http://www.w3.org/2000/svg" version="1.1" viewBox="0 0 1024 1024"><g transform="scale(1, -1) translate(0, -900)"><path d="M 655 306 Q 649 -39 665 -67 Q 665 -68 668 -72 Q 683 -88 692 -66 Q 710 -14 707 314 L 707 352 Q 707 397 707 436 L 707 476 Q 707 525 707 565 L 708 601 Q 709 673 713 719 Q 714 755 733 784 Q 740 800 720 816 Q 695 835 652 847 Q 633 851 620 838 Q 610 829 622 817 Q 653 792 655 753 Q 655 690 655 590 L 655 554 Q 656 511 656 459 L 656 425 Q 656 383 655 341 L 655 306 Z" fill="black" /></g></svg>