<?xml version='1.0' encoding='utf-8'?>
<svg xmlns="http://www.w3.org/2000/svg" version="1.1" viewBox="0 0 1024 1024"><g transform="scale(1, -1) translate(0, -900)"><path d="M 539 118 Q 539 119 540 119 L 542 152 Q 543 177 544 211 Q 544 260 545 303 L 545 333 Q 546 412 548 467 L 549 502 Q 550 616 551 617 Q 545 639 504 652 Q 494 656 483 653 Q 476 647 481 635 Q 500 554 502 548 Q 502 523 504 496 L 505 459 Q 505 273 483 188 Q 468 134 505 85 Q 515 72 527 85 Q 537 100 539 118 Z" fill="black" /></g></svg>