<?xml version='1.0' encoding='utf-8'?>
<svg xmlns="http://www.w3.org/2000/svg" version="1.1" viewBox="0 0 1024 1024"><g transform="scale(1, -1) translate(0, -900)"><path d="M 650 646 Q 725 668 786 680 Q 807 684 811 678 Q 821 662 813 620 Q 797 505 766 455 Q 748 424 721 430 Q 703 434 687 440 Q 663 450 679 424 Q 712 384 726 352 Q 745 330 765 347 Q 798 369 821 408 Q 848 454 870 600 Q 877 651 897 676 Q 910 689 903 700 Q 894 710 841 734 Q 820 743 801 729 Q 777 714 688 691 Q 598 666 521 658 Q 503 657 501 647 Q 500 640 524 628 Q 549 613 569 621 Q 588 628 612 634 L 650 646 Z" fill="black" /></g></svg>