<?xml version='1.0' encoding='utf-8'?>
<svg xmlns="http://www.w3.org/2000/svg" version="1.1" viewBox="0 0 1024 1024"><g transform="scale(1, -1) translate(0, -900)"><path d="M 358 353 Q 298 346 228 328 Q 200 319 218 341 Q 261 396 364 505 Q 394 541 419 560 Q 432 570 426 580 Q 417 599 385 619 Q 370 629 361 627 Q 351 624 352 609 Q 352 588 315 519 L 298 493 Q 291 486 286 476 Q 174 335 141 319 Q 128 310 129 296 Q 130 283 154 263 Q 164 250 180 262 Q 250 307 364 335 C 393 342 388 357 358 353 Z" fill="black" /></g></svg>