<?xml version='1.0' encoding='utf-8'?>
<svg xmlns="http://www.w3.org/2000/svg" version="1.1" viewBox="0 0 1024 1024"><g transform="scale(1, -1) translate(0, -900)"><path d="M 401 361 Q 343 348 275 324 Q 256 317 268 333 Q 314 394 420 516 Q 451 553 477 575 Q 490 585 484 595 Q 474 614 440 636 Q 424 646 414 643 Q 404 640 406 624 Q 407 593 359 510 L 341 484 Q 340 483 338 479 Q 220 320 189 306 Q 174 297 178 283 Q 179 270 206 250 Q 216 237 232 250 Q 304 305 411 343 C 439 353 430 368 401 361 Z" fill="black" /></g></svg>