<?xml version='1.0' encoding='utf-8'?>
<svg xmlns="http://www.w3.org/2000/svg" version="1.1" viewBox="0 0 1024 1024"><g transform="scale(1, -1) translate(0, -900)"><path d="M 671 502 Q 708 551 748 609 Q 767 637 798 664 Q 813 674 807 684 Q 806 693 746 714 Q 727 723 709 710 Q 676 692 581 673 C 552 667 547 666 570 656 Q 592 641 629 648 Q 653 654 671 659 Q 692 665 699 656 Q 703 649 690 627 Q 666 578 632 527 L 614 501 Q 529 402 457 338 Q 444 326 458 326 Q 494 332 582 406 Q 640 466 648 473 L 671 502 Z" fill="black" /></g></svg>