<?xml version='1.0' encoding='utf-8'?>
<svg xmlns="http://www.w3.org/2000/svg" version="1.1" viewBox="0 0 1024 1024"><g transform="scale(1, -1) translate(0, -900)"><path d="M 598 659 Q 598 672 613 704 Q 619 717 609 726 Q 590 742 555 751 Q 533 755 526 750 Q 519 744 525 733 Q 546 697 548 648 L 550 620 Q 551 574 551 526 L 551 496 Q 548 459 546 419 Q 545 406 543 391 L 540 361 Q 516 235 460 171 Q 429 137 378 101 Q 368 94 368 90 Q 369 86 380 87 Q 393 83 425 99 Q 531 141 568 284 Q 577 324 582 372 L 585 400 Q 585 421 589 504 L 591 535 Q 591 580 595 629 L 598 659 Z" fill="black" /></g></svg>