<?xml version='1.0' encoding='utf-8'?>
<svg xmlns="http://www.w3.org/2000/svg" version="1.1" viewBox="0 0 1024 1024"><g transform="scale(1, -1) translate(0, -900)"><path d="M 664 389 Q 648 -10 669 -48 L 670 -49 Q 676 -56 683 -54 Q 701 -42 704 13 Q 716 124 712 232 Q 709 280 709 397 L 709 426 Q 709 472 710 526 L 711 563 Q 711 608 712 656 L 713 688 Q 713 727 728 803 Q 731 821 717 830 Q 686 852 670 854 Q 657 858 642 850 Q 633 843 640 832 Q 670 775 672 694 Q 671 687 671 676 L 671 646 Q 670 603 669 552 L 668 519 Q 667 471 665 417 L 664 389 Z" fill="black" /></g></svg>