<?xml version='1.0' encoding='utf-8'?>
<svg xmlns="http://www.w3.org/2000/svg" version="1.1" viewBox="0 0 1024 1024"><g transform="scale(1, -1) translate(0, -900)"><path d="M 709 397 Q 817 418 840 414 Q 852 413 856 403 Q 860 391 825 276 Q 821 260 803 263 Q 781 266 755 270 Q 730 276 748 254 Q 791 214 800 195 Q 806 183 818 185 Q 828 185 842 197 Q 867 227 884 280 Q 896 353 927 383 Q 943 401 932 412 Q 910 434 878 453 Q 865 463 797 443 Q 734 434 709 426 L 665 417 Q 619 410 585 400 L 543 391 Q 477 379 476 378 Q 470 379 471 392 Q 483 473 494 484 C 501 501 501 501 480 514 Q 468 523 453 530 Q 443 537 434 529 Q 427 525 435 509 Q 445 487 439 455 Q 426 392 409 369 Q 400 354 410 340 Q 419 318 431 312 Q 440 308 459 324 Q 481 343 540 361 L 582 372 Q 615 379 664 389 L 709 397 Z" fill="black" /></g></svg>