<?xml version='1.0' encoding='utf-8'?>
<svg xmlns="http://www.w3.org/2000/svg" version="1.1" viewBox="0 0 1024 1024"><g transform="scale(1, -1) translate(0, -900)"><path d="M 298 379 Q 294 379 291 378 Q 246 368 192 347 Q 176 340 185 355 Q 221 404 303 504 Q 330 538 353 559 Q 365 569 359 578 Q 349 596 317 614 Q 302 623 293 620 Q 284 616 286 602 Q 287 572 250 505 L 234 477 Q 141 345 114 328 Q 101 319 105 306 Q 106 293 131 277 Q 141 267 155 278 Q 200 317 288 359 Q 298 363 303 367 C 329 381 327 385 298 379 Z" fill="black" /></g></svg>