<?xml version='1.0' encoding='utf-8'?>
<svg xmlns="http://www.w3.org/2000/svg" version="1.1" viewBox="0 0 1024 1024"><g transform="scale(1, -1) translate(0, -900)"><path d="M 607 729 Q 665 747 718 755 Q 737 758 740 752 Q 747 743 743 719 Q 736 652 719 623 Q 698 587 667 594 Q 645 595 626 599 Q 601 603 622 583 Q 659 552 677 527 Q 690 509 705 521 Q 753 546 787 656 Q 805 728 822 747 Q 835 760 829 770 Q 820 782 769 806 Q 748 815 729 802 Q 708 789 626 769 Q 544 747 474 742 Q 456 741 453 732 Q 452 723 476 712 Q 501 696 521 704 Q 543 711 567 718 L 607 729 Z" fill="black" /></g></svg>