<?xml version='1.0' encoding='utf-8'?>
<svg xmlns="http://www.w3.org/2000/svg" version="1.1" viewBox="0 0 1024 1024"><g transform="scale(1, -1) translate(0, -900)"><path d="M 493 435 Q 480 447 459 454 Q 446 458 439 452 Q 432 448 438 432 Q 451 395 451 360 Q 448 189 464 143 Q 471 110 502 85 Q 601 13 808 43 Q 833 49 858 56 Q 910 74 960 113 Q 981 129 967 157 Q 954 181 933 255 Q 933 273 925 278 Q 918 282 914 262 Q 883 181 864 157 Q 848 133 794 117 Q 670 83 563 119 Q 520 138 508 164 Q 490 197 490 264 L 491 297 Q 492 348 500 403 C 503 428 503 428 493 435 Z" fill="black" /></g></svg>