<?xml version='1.0' encoding='utf-8'?>
<svg xmlns="http://www.w3.org/2000/svg" version="1.1" viewBox="0 0 1024 1024"><g transform="scale(1, -1) translate(0, -900)"><path d="M 593 507 Q 594 506 598 501 Q 619 480 643 489 Q 698 511 761 525 Q 794 534 804 531 Q 817 519 812 511 Q 813 505 779 440 Q 772 430 777 425 Q 781 419 792 431 Q 880 495 920 510 Q 930 511 930 520 Q 931 533 903 547 Q 882 560 860 573 Q 835 586 820 580 Q 741 546 604 521 Q 601 521 600 519 C 586 515 586 515 593 507 Z" fill="black" /></g></svg>