<?xml version='1.0' encoding='utf-8'?>
<svg xmlns="http://www.w3.org/2000/svg" version="1.1" viewBox="0 0 1024 1024"><g transform="scale(1, -1) translate(0, -900)"><path d="M 686 460 Q 720 509 753 579 Q 769 607 796 625 Q 812 632 811 642 Q 811 655 782 672 Q 746 694 732 695 Q 720 695 710 687 Q 647 660 606 654 Q 602 655 597 654 C 567 651 553 638 582 630 Q 616 615 659 635 Q 686 653 701 641 Q 708 637 688 579 Q 673 536 646 492 L 625 461 Q 552 356 414 285 Q 405 281 406 276 Q 407 272 414 272 Q 543 279 661 426 L 686 460 Z" fill="black" /></g></svg>