<?xml version='1.0' encoding='utf-8'?>
<svg xmlns="http://www.w3.org/2000/svg" version="1.1" viewBox="0 0 1024 1024"><g transform="scale(1, -1) translate(0, -900)"><path d="M 733 205 Q 788 88 872 18 Q 941 -30 972 -27 Q 994 -20 983 10 Q 973 52 955 175 Q 951 199 942 198 Q 936 197 932 175 Q 902 99 890 98 Q 877 102 858 119 Q 807 171 768 241 L 747 289 Q 711 380 689 500 L 680 547 Q 659 667 671 759 Q 684 802 624 825 Q 587 841 565 833 Q 543 826 554 804 Q 605 761 605 725 Q 618 619 635 532 L 644 487 Q 668 361 714 246 L 733 205 Z" fill="black" /></g></svg>