<?xml version='1.0' encoding='utf-8'?>
<svg xmlns="http://www.w3.org/2000/svg" version="1.1" viewBox="0 0 1024 1024"><g transform="scale(1, -1) translate(0, -900)"><path d="M 676 582 Q 758 699 791 726 Q 806 738 800 747 Q 799 757 736 778 Q 717 788 698 774 Q 682 764 658 755 Q 627 746 599 738 C 570 730 554 717 583 711 Q 607 699 660 720 Q 679 724 686 717 Q 690 710 677 689 Q 658 650 632 610 L 615 584 Q 549 488 410 370 Q 397 358 410 357 Q 420 358 464 383 Q 507 405 555 449 Q 601 489 645 542 Q 648 546 653 552 L 676 582 Z" fill="black" /></g></svg>