<?xml version='1.0' encoding='utf-8'?>
<svg xmlns="http://www.w3.org/2000/svg" version="1.1" viewBox="0 0 1024 1024"><g transform="scale(1, -1) translate(0, -900)"><path d="M 395 602 Q 395 630 396 660 L 398 708 Q 399 765 409 779 Q 419 791 415 800 Q 409 810 390 822 Q 356 838 345 833 Q 330 829 341 814 Q 357 793 356 693 L 356 650 Q 356 614 354 586 L 353 555 Q 350 486 348 477 Q 344 452 328 457 Q 315 461 280 465 Q 267 469 264 465 Q 263 459 277 449 Q 328 413 342 391 Q 349 375 358 372 Q 365 369 369 373 Q 391 400 393 504 Q 393 528 394 575 L 395 602 Z" fill="black" /></g></svg>