<?xml version='1.0' encoding='utf-8'?>
<svg xmlns="http://www.w3.org/2000/svg" version="1.1" viewBox="0 0 1024 1024"><g transform="scale(1, -1) translate(0, -900)"><path d="M 618 674 Q 663 693 673 688 Q 686 681 680 661 Q 655 511 708 460 Q 730 435 806 403 Q 848 384 874 386 Q 899 390 901 402 Q 901 405 869 545 Q 866 558 857 562 Q 853 565 850 553 Q 840 483 832 466 Q 826 453 802 459 Q 774 463 743 487 Q 716 508 709 538 Q 702 563 714 607 Q 721 643 756 678 Q 768 690 761 700 Q 754 715 727 730 Q 702 748 685 735 Q 670 722 623 703 L 573 687 Q 489 669 488 666 Q 485 662 492 654 Q 510 642 569 658 L 618 674 Z" fill="black" /></g></svg>