<?xml version='1.0' encoding='utf-8'?>
<svg xmlns="http://www.w3.org/2000/svg" version="1.1" viewBox="0 0 1024 1024"><g transform="scale(1, -1) translate(0, -900)"><path d="M 364 436 Q 313 424 257 402 Q 238 395 250 411 Q 287 466 377 574 Q 405 614 431 636 Q 444 646 437 656 Q 427 675 392 695 Q 376 704 365 701 Q 355 697 358 682 Q 359 646 307 554 L 290 528 Q 190 392 172 381 Q 159 371 162 358 Q 163 345 191 326 Q 203 314 217 327 Q 265 372 369 418 Q 370 419 374 420 C 402 432 393 443 364 436 Z" fill="black" /></g></svg>