<?xml version='1.0' encoding='utf-8'?>
<svg xmlns="http://www.w3.org/2000/svg" version="1.1" viewBox="0 0 1024 1024"><g transform="scale(1, -1) translate(0, -900)"><path d="M 452 503 Q 446 542 418 552 Q 411 556 398 559 L 354 572 Q 330 579 300 587 Q 287 590 284 603 Q 300 634 317 668 L 332 703 Q 350 761 372 786 Q 384 802 379 814 Q 369 830 333 856 Q 317 868 303 862 Q 293 858 299 843 Q 314 815 284 697 L 272 659 Q 256 619 248 606 Q 241 585 260 571 Q 297 559 329 540 L 367 519 Q 391 506 419 486 Q 426 482 433 479 C 460 466 459 474 452 503 Z" fill="black" /></g></svg>