<?xml version='1.0' encoding='utf-8'?>
<svg xmlns="http://www.w3.org/2000/svg" version="1.1" viewBox="0 0 1024 1024"><g transform="scale(1, -1) translate(0, -900)"><path d="M 508 194 Q 557 209 610 216 C 640 220 627 236 597 233 Q 513 226 414 204 Q 460 237 565 300 Q 602 325 631 336 Q 644 340 642 352 Q 638 371 615 399 Q 603 412 594 412 Q 584 412 581 398 Q 572 364 498 302 L 471 283 Q 356 205 340 200 Q 325 196 325 182 Q 324 170 343 148 Q 350 135 365 143 Q 420 170 475 185 L 508 194 Z" fill="black" /></g></svg>