<?xml version='1.0' encoding='utf-8'?>
<svg xmlns="http://www.w3.org/2000/svg" version="1.1" viewBox="0 0 1024 1024"><g transform="scale(1, -1) translate(0, -900)"><path d="M 388 373 Q 333 363 273 342 Q 248 332 263 353 Q 300 408 391 519 Q 418 556 442 578 Q 455 588 448 597 Q 438 616 404 634 Q 388 643 379 640 Q 369 636 372 621 Q 373 597 339 526 L 324 499 Q 320 495 317 487 Q 212 339 188 325 Q 175 315 178 302 Q 179 289 205 270 Q 215 260 231 271 Q 288 313 394 356 L 396 356 C 424 366 417 379 388 373 Z" fill="black" /></g></svg>