<?xml version='1.0' encoding='utf-8'?>
<svg xmlns="http://www.w3.org/2000/svg" version="1.1" viewBox="0 0 1024 1024"><g transform="scale(1, -1) translate(0, -900)"><path d="M 480 332 Q 453 209 347 115 Q 326 102 328 94 Q 329 90 340 92 Q 353 88 385 106 Q 508 166 528 345 L 534 390 Q 538 429 540 471 L 541 516 Q 542 556 543 593 L 544 639 Q 550 724 562 752 Q 568 765 557 776 Q 535 792 497 802 Q 473 806 465 800 Q 456 793 464 782 Q 491 743 497 620 L 498 579 Q 498 539 496 496 L 495 457 Q 492 417 487 374 L 480 332 Z" fill="black" /></g></svg>