<?xml version='1.0' encoding='utf-8'?>
<svg xmlns="http://www.w3.org/2000/svg" version="1.1" viewBox="0 0 1024 1024"><g transform="scale(1, -1) translate(0, -900)"><path d="M 634 206 Q 624 79 634 44 Q 637 25 655 9 Q 721 -42 866 -19 Q 870 -16 876 -16 Q 910 -7 943 15 Q 961 30 947 55 Q 932 86 913 179 Q 912 194 905 198 Q 899 201 896 184 Q 877 84 860 52 Q 836 25 756 28 Q 726 29 703 38 Q 682 48 677 61 Q 656 104 686 249 Q 692 276 648 294 Q 636 298 628 294 Q 622 291 627 275 Q 637 239 634 206 Z" fill="black" /></g></svg>