<?xml version='1.0' encoding='utf-8'?>
<svg xmlns="http://www.w3.org/2000/svg" version="1.1" viewBox="0 0 1024 1024"><g transform="scale(1, -1) translate(0, -900)"><path d="M 730 651 Q 811 684 823 677 Q 833 670 824 649 Q 784 550 772 533 Q 766 523 766 515 Q 766 502 786 490 Q 864 445 884 365 Q 888 331 875 316 Q 865 310 805 323 Q 775 330 775 321 Q 776 314 791 302 Q 848 257 857 235 Q 866 220 878 218 Q 891 217 907 228 Q 944 271 946 329 Q 947 407 843 490 Q 803 523 817 543 Q 844 583 866 611 Q 888 644 915 656 Q 943 672 919 692 Q 882 723 859 735 Q 841 741 827 732 Q 812 720 735 689 Q 717 686 708 679 C 680 668 702 640 730 651 Z" fill="black" /></g></svg>