<?xml version='1.0' encoding='utf-8'?>
<svg xmlns="http://www.w3.org/2000/svg" version="1.1" viewBox="0 0 1024 1024"><g transform="scale(1, -1) translate(0, -900)"><path d="M 268 522 Q 228 518 194 514 Q 167 511 180 529 Q 238 629 294 705 Q 307 723 305 730 Q 302 745 262 774 Q 246 787 227 783 Q 217 780 223 765 Q 230 749 226 722 Q 216 677 166 580 Q 150 547 115 515 Q 97 499 100 487 Q 106 468 121 451 Q 133 441 145 449 Q 164 465 234 490 Q 240 491 249 493 C 278 499 298 525 268 522 Z" fill="black" /></g></svg>