<?xml version='1.0' encoding='utf-8'?>
<svg xmlns="http://www.w3.org/2000/svg" version="1.1" viewBox="0 0 1024 1024"><g transform="scale(1, -1) translate(0, -900)"><path d="M 522 311 Q 558 374 583 441 L 595 480 Q 605 522 615 562 L 623 607 Q 632 704 654 759 Q 660 769 652 777 Q 636 793 604 809 Q 585 819 569 815 Q 550 809 564 792 Q 588 764 586 735 Q 582 657 571 593 L 563 549 Q 548 482 544 470 L 531 430 Q 476 289 359 195 Q 338 183 337 178 Q 333 171 348 172 Q 388 169 493 272 L 522 311 Z" fill="black" /></g></svg>