<?xml version='1.0' encoding='utf-8'?>
<svg xmlns="http://www.w3.org/2000/svg" version="1.1" viewBox="0 0 1024 1024"><g transform="scale(1, -1) translate(0, -900)"><path d="M 542 297 L 540 299 Q 533 306 522 311 C 497 327 489 302 493 272 Q 497 250 497 229 Q 490 102 502 67 Q 506 46 526 28 Q 596 -32 748 -1 Q 755 2 765 3 Q 801 13 835 39 Q 853 54 840 78 Q 827 100 809 167 Q 808 182 801 186 Q 795 189 791 172 Q 767 99 752 76 Q 742 63 709 54 Q 637 36 575 59 Q 551 71 544 85 Q 523 128 545 265 C 549 292 549 292 542 297 Z" fill="black" /></g></svg>