<?xml version='1.0' encoding='utf-8'?>
<svg xmlns="http://www.w3.org/2000/svg" version="1.1" viewBox="0 0 1024 1024"><g transform="scale(1, -1) translate(0, -900)"><path d="M 564 734 Q 574 753 587 777 Q 609 799 589 817 Q 558 844 535 848 Q 519 849 512 842 Q 506 835 515 823 Q 548 790 488 667 Q 484 661 481 655 Q 468 627 455 621 Q 433 611 429 595 Q 425 567 433 555 Q 440 540 454 552 Q 469 571 629 604 Q 638 605 648 608 C 677 615 687 632 657 632 Q 644 633 620 630 Q 557 623 522 619 Q 512 620 510 626 Q 509 630 553 713 L 564 734 Z" fill="black" /></g></svg>