<?xml version='1.0' encoding='utf-8'?>
<svg xmlns="http://www.w3.org/2000/svg" version="1.1" viewBox="0 0 1024 1024"><g transform="scale(1, -1) translate(0, -900)"><path d="M 545 265 Q 609 290 655 301 Q 665 304 668 301 Q 674 294 672 273 Q 671 218 660 192 Q 648 170 628 172 Q 606 181 588 191 Q 569 201 581 179 Q 615 139 631 107 Q 643 94 655 104 Q 700 137 720 256 Q 726 287 737 302 Q 747 312 741 321 Q 734 328 692 345 Q 676 351 661 339 Q 640 324 542 297 C 513 289 517 254 545 265 Z" fill="black" /></g></svg>