<?xml version='1.0' encoding='utf-8'?>
<svg xmlns="http://www.w3.org/2000/svg" version="1.1" viewBox="0 0 1024 1024"><g transform="scale(1, -1) translate(0, -900)"><path d="M 350 385 Q 307 376 256 359 Q 229 347 245 371 Q 281 426 366 538 Q 391 575 416 598 Q 428 608 421 618 Q 409 637 376 654 Q 360 661 351 659 Q 341 655 344 640 Q 347 601 301 517 L 286 493 Q 196 357 171 340 Q 158 330 161 317 Q 162 304 190 286 Q 200 276 215 288 Q 272 333 357 367 L 359 367 C 387 377 379 392 350 385 Z" fill="black" /></g></svg>