<?xml version='1.0' encoding='utf-8'?>
<svg xmlns="http://www.w3.org/2000/svg" version="1.1" viewBox="0 0 1024 1024"><g transform="scale(1, -1) translate(0, -900)"><path d="M 307 545 Q 255 541 214 533 Q 187 530 200 548 Q 264 660 326 745 Q 339 763 337 770 Q 334 785 294 814 Q 278 827 260 823 Q 248 820 255 805 Q 262 789 258 762 Q 248 713 191 606 Q 173 570 135 535 Q 117 519 120 507 Q 126 488 141 471 Q 151 461 164 469 Q 191 487 282 514 Q 286 515 290 515 C 319 521 337 548 307 545 Z" fill="black" /></g></svg>