<?xml version='1.0' encoding='utf-8'?>
<svg xmlns="http://www.w3.org/2000/svg" version="1.1" viewBox="0 0 1024 1024"><g transform="scale(1, -1) translate(0, -900)"><path d="M 350 408 Q 302 395 250 373 Q 229 364 242 383 Q 276 437 361 546 Q 388 583 411 606 Q 423 616 417 626 Q 405 645 372 662 Q 356 669 347 667 Q 337 663 340 648 Q 341 618 307 545 L 290 515 L 290 514 Q 196 370 168 352 Q 155 342 159 329 Q 160 316 188 299 Q 198 287 213 301 Q 267 349 359 389 C 386 401 379 416 350 408 Z" fill="black" /></g></svg>