<?xml version='1.0' encoding='utf-8'?>
<svg xmlns="http://www.w3.org/2000/svg" version="1.1" viewBox="0 0 1024 1024"><g transform="scale(1, -1) translate(0, -900)"><path d="M 472 334 Q 352 250 338 245 Q 323 241 323 226 Q 322 213 341 190 Q 348 177 365 185 Q 429 213 495 229 L 530 236 Q 600 254 673 262 C 703 266 690 283 660 280 Q 549 271 418 247 Q 411 246 416 251 Q 465 288 576 358 Q 613 385 644 398 Q 659 404 655 415 Q 651 436 626 463 Q 613 476 603 477 Q 593 477 591 462 Q 581 420 501 355 Q 498 354 496 351 L 472 334 Z" fill="black" /></g></svg>