<?xml version='1.0' encoding='utf-8'?>
<svg xmlns="http://www.w3.org/2000/svg" version="1.1" viewBox="0 0 1024 1024"><g transform="scale(1, -1) translate(0, -900)"><path d="M 335 382 Q 280 369 213 346 Q 194 337 206 354 Q 246 412 342 528 Q 369 562 393 583 Q 405 593 399 602 Q 389 620 357 638 Q 342 647 333 644 Q 324 641 326 626 Q 327 595 278 507 L 260 480 Q 155 341 134 328 Q 121 319 124 306 Q 125 294 151 276 Q 161 266 174 277 Q 228 322 335 364 Q 338 365 342 366 C 370 376 364 389 335 382 Z" fill="black" /></g></svg>