<?xml version='1.0' encoding='utf-8'?>
<svg xmlns="http://www.w3.org/2000/svg" version="1.1" viewBox="0 0 1024 1024"><g transform="scale(1, -1) translate(0, -900)"><path d="M 736 389 Q 742 373 756 373 Q 771 374 779 391 Q 789 404 810 469 Q 828 523 865 553 Q 886 569 869 586 Q 850 604 798 632 Q 780 641 723 627 Q 671 621 653 616 L 612 609 Q 590 606 571 601 Q 519 589 484 585 C 454 581 474 546 503 553 Q 726 607 760 591 Q 769 585 765 556 Q 747 442 735 419 C 728 400 728 400 736 389 Z" fill="black" /></g></svg>