<?xml version='1.0' encoding='utf-8'?>
<svg xmlns="http://www.w3.org/2000/svg" version="1.1" viewBox="0 0 1024 1024"><g transform="scale(1, -1) translate(0, -900)"><path d="M 526 202 Q 551 242 576 299 Q 589 324 611 342 Q 624 349 624 358 Q 623 370 596 383 Q 565 401 551 401 Q 541 400 532 393 Q 475 363 422 355 Q 389 354 387 346 Q 386 343 392 339 Q 405 329 433 325 Q 457 326 498 348 Q 517 355 526 351 Q 533 347 518 296 Q 508 263 488 228 L 467 193 Q 410 115 321 64 Q 314 60 314 56 Q 315 52 322 53 Q 412 59 496 159 L 526 202 Z" fill="black" /></g></svg>