<?xml version='1.0' encoding='utf-8'?>
<svg xmlns="http://www.w3.org/2000/svg" version="1.1" viewBox="0 0 1024 1024"><g transform="scale(1, -1) translate(0, -900)"><path d="M 768 582 Q 841 687 860 703 Q 873 713 868 722 Q 865 731 808 748 Q 792 755 774 742 Q 759 733 737 725 Q 700 712 663 705 Q 645 702 657 690 Q 684 671 740 693 Q 759 700 767 692 Q 771 685 759 663 Q 744 630 724 595 L 703 565 Q 675 529 628 481 Q 618 471 630 470 Q 637 471 676 496 Q 698 508 722 531 L 736 545 L 768 582 Z" fill="black" /></g></svg>