<?xml version='1.0' encoding='utf-8'?>
<svg xmlns="http://www.w3.org/2000/svg" version="1.1" viewBox="0 0 1024 1024"><g transform="scale(1, -1) translate(0, -900)"><path d="M 278 482 Q 238 486 206 488 Q 169 489 189 511 Q 253 617 316 697 Q 331 713 328 721 Q 325 736 287 767 Q 271 780 252 777 Q 242 774 247 759 Q 254 741 249 716 Q 237 668 180 567 Q 162 533 124 499 Q 105 486 107 474 Q 110 455 124 437 Q 134 427 146 433 Q 170 445 246 456 Q 253 457 260 456 C 290 457 308 479 278 482 Z" fill="black" /></g></svg>