<?xml version='1.0' encoding='utf-8'?>
<svg xmlns="http://www.w3.org/2000/svg" version="1.1" viewBox="0 0 1024 1024"><g transform="scale(1, -1) translate(0, -900)"><path d="M 336 352 Q 278 339 212 315 Q 193 308 204 324 Q 244 381 341 495 Q 369 532 393 553 Q 406 563 400 573 Q 390 592 357 610 Q 341 620 332 617 Q 322 614 324 598 Q 325 565 278 482 L 260 456 Q 155 311 129 297 Q 116 288 119 274 Q 120 261 146 243 Q 156 231 171 244 Q 234 295 342 335 Q 343 336 346 337 C 374 348 365 359 336 352 Z" fill="black" /></g></svg>