<?xml version='1.0' encoding='utf-8'?>
<svg xmlns="http://www.w3.org/2000/svg" version="1.1" viewBox="0 0 1024 1024"><g transform="scale(1, -1) translate(0, -900)"><path d="M 747 467 Q 748 466 749 463 Q 755 447 768 449 Q 781 450 789 466 Q 801 482 822 560 Q 837 612 872 642 Q 891 658 874 673 Q 856 689 806 715 Q 791 724 721 703 Q 703 703 595 671 Q 588 670 582 667 L 554 659 Q 532 655 516 651 C 487 644 517 610 545 621 Q 545 622 547 622 Q 605 646 741 674 Q 765 678 774 674 Q 784 668 779 637 Q 761 532 747 489 C 743 474 743 474 747 467 Z" fill="black" /></g></svg>