<?xml version='1.0' encoding='utf-8'?>
<svg xmlns="http://www.w3.org/2000/svg" version="1.1" viewBox="0 0 1024 1024"><g transform="scale(1, -1) translate(0, -900)"><path d="M 241 793 Q 232 799 218 806 Q 200 815 194 808 Q 188 802 194 790 Q 230 726 205 512 Q 201 493 190 473 Q 183 461 190 445 Q 197 429 206 422 Q 215 416 227 427 Q 276 469 438 487 Q 456 488 455 496 Q 454 506 432 519 Q 417 529 380 515 L 344 506 Q 305 500 262 487 Q 256 486 254 487 Q 250 488 250 496 Q 250 527 251 559 L 251 589 L 253 655 L 253 680 Q 253 743 257 765 C 259 782 259 782 241 793 Z" fill="black" /></g></svg>