<?xml version='1.0' encoding='utf-8'?>
<svg xmlns="http://www.w3.org/2000/svg" version="1.1" viewBox="0 0 1024 1024"><g transform="scale(1, -1) translate(0, -900)"><path d="M 771 162 Q 775 156 779 149 Q 821 76 881 24 Q 947 -25 977 -24 Q 999 -18 990 11 Q 980 53 969 175 Q 968 199 958 199 Q 952 198 947 175 Q 917 102 902 101 Q 889 105 870 122 Q 834 159 805 207 L 778 257 Q 742 332 704 516 L 697 563 Q 678 686 692 772 Q 705 815 648 837 Q 612 853 591 846 Q 570 839 580 818 Q 628 775 628 741 Q 638 635 653 549 L 660 506 Q 693 328 749 207 L 771 162 Z" fill="black" /></g></svg>