<?xml version='1.0' encoding='utf-8'?>
<svg xmlns="http://www.w3.org/2000/svg" version="1.1" viewBox="0 0 1024 1024"><g transform="scale(1, -1) translate(0, -900)"><path d="M 660 338 Q 709 348 736 352 Q 761 356 769 347 Q 779 340 780 311 Q 780 283 781 248 Q 782 223 774 212 Q 768 203 748 209 Q 700 215 699 213 Q 695 209 709 198 Q 752 158 777 126 Q 787 114 803 120 Q 813 123 822 145 Q 838 179 837 221 Q 834 315 844 346 Q 851 361 844 370 Q 823 383 790 396 Q 771 403 757 396 Q 724 380 661 367 L 607 354 Q 561 347 501 340 C 471 336 493 302 522 308 Q 529 309 534 310 Q 573 320 607 326 L 660 338 Z" fill="black" /></g></svg>