<?xml version='1.0' encoding='utf-8'?>
<svg xmlns="http://www.w3.org/2000/svg" version="1.1" viewBox="0 0 1024 1024"><g transform="scale(1, -1) translate(0, -900)"><path d="M 762 205 Q 762 206 763 206 Q 797 258 820 341 Q 827 377 847 394 Q 863 409 844 424 Q 823 440 790 453 Q 768 460 747 448 Q 716 429 670 419 Q 645 416 633 410 Q 624 403 642 394 Q 667 381 706 392 Q 722 398 739 403 Q 761 410 761 385 Q 761 319 724 244 L 699 205 Q 692 198 686 189 Q 643 143 528 106 Q 513 102 523 94 Q 530 88 559 94 Q 673 107 728 162 L 762 205 Z" fill="black" /></g></svg>