<?xml version='1.0' encoding='utf-8'?>
<svg xmlns="http://www.w3.org/2000/svg" version="1.1" viewBox="0 0 1024 1024"><g transform="scale(1, -1) translate(0, -900)"><path d="M 317 561 Q 316 562 314 561 Q 274 561 240 561 Q 212 560 226 578 Q 287 669 346 736 Q 361 752 359 761 Q 358 774 319 808 Q 303 821 285 819 Q 273 816 280 801 Q 293 759 213 626 Q 197 596 161 568 Q 142 555 144 542 Q 148 523 162 505 Q 172 493 185 501 Q 204 514 272 531 Q 285 534 300 536 C 330 541 347 561 317 561 Z" fill="black" /></g></svg>