<?xml version='1.0' encoding='utf-8'?>
<svg xmlns="http://www.w3.org/2000/svg" version="1.1" viewBox="0 0 1024 1024"><g transform="scale(1, -1) translate(0, -900)"><path d="M 563 734 Q 581 759 600 781 Q 613 797 610 804 Q 609 817 572 846 Q 557 858 540 854 Q 530 851 536 837 Q 549 803 491 695 Q 479 671 454 649 Q 436 636 438 625 Q 442 607 455 591 Q 465 581 476 588 Q 507 603 612 619 Q 619 620 627 620 C 657 622 669 643 639 643 Q 579 643 529 641 Q 496 640 513 661 Q 534 695 555 723 L 563 734 Z" fill="black" /></g></svg>