<?xml version='1.0' encoding='utf-8'?>
<svg xmlns="http://www.w3.org/2000/svg" version="1.1" viewBox="0 0 1024 1024"><g transform="scale(1, -1) translate(0, -900)"><path d="M 625 483 Q 808 522 842 518 Q 854 511 850 504 Q 850 501 822 438 Q 813 423 819 420 Q 826 416 844 427 Q 896 460 938 469 Q 972 476 972 487 Q 971 497 904 545 Q 880 564 800 545 Q 740 536 701 527 L 668 521 Q 619 514 563 502 Q 526 495 495 488 C 466 482 456 466 485 458 Q 504 449 526 455 Q 551 465 583 472 L 625 483 Z" fill="black" /></g></svg>