<?xml version='1.0' encoding='utf-8'?>
<svg xmlns="http://www.w3.org/2000/svg" version="1.1" viewBox="0 0 1024 1024"><g transform="scale(1, -1) translate(0, -900)"><path d="M 642 313 Q 641 314 641 313 L 627 329 Q 579 380 513 403 C 485 414 465 401 491 385 Q 500 379 511 373 L 560 340 Q 573 328 586 314 L 616 258 Q 634 192 607 96 Q 597 56 584 50 Q 577 46 518 54 Q 478 63 476 56 Q 475 49 487 35 Q 544 -14 566 -48 Q 581 -67 597 -64 Q 648 -37 669 84 Q 681 162 668 246 C 664 276 662 292 642 313 Z" fill="black" /></g></svg>