<?xml version='1.0' encoding='utf-8'?>
<svg xmlns="http://www.w3.org/2000/svg" version="1.1" viewBox="0 0 1024 1024"><g transform="scale(1, -1) translate(0, -900)"><path d="M 327 404 Q 282 395 229 377 Q 207 367 221 387 Q 255 436 336 535 Q 361 571 385 591 Q 397 601 391 610 Q 381 628 349 645 Q 334 654 325 651 Q 315 648 318 633 Q 321 600 276 522 L 258 495 Q 168 371 149 360 Q 136 351 139 338 Q 140 325 166 308 Q 176 298 190 309 Q 244 351 334 388 L 336 388 C 364 398 356 410 327 404 Z" fill="black" /></g></svg>