<?xml version='1.0' encoding='utf-8'?>
<svg xmlns="http://www.w3.org/2000/svg" version="1.1" viewBox="0 0 1024 1024"><g transform="scale(1, -1) translate(0, -900)"><path d="M 332 374 Q 286 365 228 342 Q 212 335 222 350 Q 259 404 350 512 Q 377 546 401 567 Q 413 577 407 586 Q 397 604 365 622 Q 350 631 341 628 Q 332 625 334 610 Q 335 586 299 515 L 284 489 Q 185 342 150 324 Q 137 315 141 302 Q 142 290 167 273 Q 177 261 191 274 Q 258 334 336 359 Q 337 360 340 360 C 369 369 361 380 332 374 Z" fill="black" /></g></svg>