<?xml version='1.0' encoding='utf-8'?>
<svg xmlns="http://www.w3.org/2000/svg" version="1.1" viewBox="0 0 1024 1024"><g transform="scale(1, -1) translate(0, -900)"><path d="M 681 114 Q 717 163 750 239 Q 763 267 784 285 Q 803 301 791 314 Q 778 327 747 340 Q 723 347 696 335 Q 669 325 634 313 Q 598 301 539 293 C 509 289 501 284 529 274 Q 530 273 535 271 Q 571 258 619 273 Q 668 292 678 293 Q 699 289 691 267 Q 672 195 640 146 L 614 113 Q 550 47 425 12 Q 410 8 422 -1 Q 428 -5 470 -3 Q 566 6 648 77 L 681 114 Z" fill="black" /></g></svg>