<?xml version='1.0' encoding='utf-8'?>
<svg xmlns="http://www.w3.org/2000/svg" version="1.1" viewBox="0 0 1024 1024"><g transform="scale(1, -1) translate(0, -900)"><path d="M 706 333 Q 805 355 824 342 Q 843 335 845 303 Q 848 227 827 90 Q 827 69 807 69 Q 783 72 764 75 Q 748 79 750 69 Q 751 59 779 34 Q 810 1 827 -32 Q 840 -44 854 -37 Q 864 -31 880 6 Q 901 51 902 138 Q 895 316 909 338 Q 919 350 912 361 Q 902 373 860 391 Q 845 397 798 382 Q 639 352 589 338 Q 520 323 472 316 C 442 311 477 278 506 287 Q 527 294 560 302 L 587 309 Q 621 318 668 326 L 706 333 Z" fill="black" /></g></svg>