<?xml version='1.0' encoding='utf-8'?>
<svg xmlns="http://www.w3.org/2000/svg" version="1.1" viewBox="0 0 1024 1024"><g transform="scale(1, -1) translate(0, -900)"><path d="M 802 629 Q 820 665 845 683 Q 861 699 848 717 Q 833 730 785 755 Q 769 762 748 755 Q 703 739 664 728 L 608 717 Q 556 710 505 703 Q 489 702 490 693 Q 493 686 510 679 Q 534 669 567 679 Q 586 683 607 685 L 658 694 Q 692 701 729 708 Q 750 712 758 703 Q 765 696 762 682 Q 755 648 746 619 C 737 590 788 603 802 629 Z" fill="black" /></g></svg>