<?xml version='1.0' encoding='utf-8'?>
<svg xmlns="http://www.w3.org/2000/svg" version="1.1" viewBox="0 0 1024 1024"><g transform="scale(1, -1) translate(0, -900)"><path d="M 675 155 Q 750 167 885 154 Q 907 153 916 164 Q 923 174 903 187 Q 846 232 782 211 Q 704 202 676 195 L 626 189 Q 568 182 510 169 Q 482 162 491 186 Q 504 216 514 227 Q 524 236 520 247 Q 514 259 480 278 Q 464 288 452 283 Q 440 276 449 261 Q 458 243 450 203 Q 446 182 418 161 Q 408 151 409 137 Q 410 125 427 111 Q 440 101 454 113 Q 514 141 626 151 L 675 155 Z" fill="black" /></g></svg>