<?xml version='1.0' encoding='utf-8'?>
<svg xmlns="http://www.w3.org/2000/svg" version="1.1" viewBox="0 0 1024 1024"><g transform="scale(1, -1) translate(0, -900)"><path d="M 765 105 Q 778 78 803 29 Q 812 10 823 12 Q 839 16 849 43 Q 883 116 885 212 Q 891 273 895 342 Q 901 393 924 424 Q 943 445 930 459 Q 908 481 858 504 Q 839 514 804 502 Q 696 466 559 450 L 533 447 Q 487 446 435 442 C 405 440 429 400 459 404 Q 469 404 521 413 L 568 421 Q 611 430 666 437 L 713 443 Q 741 449 775 452 Q 809 456 821 442 Q 833 436 833 409 Q 834 280 813 154 Q 812 132 802 129 Q 801 128 798 129 C 781 105 758 118 765 105 Z" fill="black" /></g></svg>