<?xml version='1.0' encoding='utf-8'?>
<svg xmlns="http://www.w3.org/2000/svg" version="1.1" viewBox="0 0 1024 1024"><g transform="scale(1, -1) translate(0, -900)"><path d="M 303 382 Q 257 372 206 353 Q 181 343 196 364 Q 232 416 315 522 Q 343 561 368 584 Q 380 594 373 605 Q 363 624 327 642 Q 311 652 301 648 Q 291 644 293 628 Q 296 601 260 525 L 244 497 Q 243 496 243 494 Q 146 350 118 333 Q 105 323 108 309 Q 111 296 138 277 Q 150 265 164 278 Q 225 330 315 363 C 343 374 332 389 303 382 Z" fill="black" /></g></svg>