<?xml version='1.0' encoding='utf-8'?>
<svg xmlns="http://www.w3.org/2000/svg" version="1.1" viewBox="0 0 1024 1024"><g transform="scale(1, -1) translate(0, -900)"><path d="M 619 355 Q 619 364 620 372 L 621 405 Q 621 478 622 562 L 622 593 Q 622 603 625 661 L 629 709 Q 633 752 644 785 Q 653 801 650 815 Q 643 825 585 861 Q 560 879 539 862 Q 533 858 540 841 Q 577 786 578 691 L 579 649 Q 579 618 580 584 L 581 553 Q 580 477 578 397 L 575 288 Q 568 132 549 64 Q 533 16 562 -53 Q 569 -72 577 -75 Q 584 -82 591 -73 Q 600 -69 610 -47 Q 620 -22 620 12 Q 619 52 619 314 L 619 355 Z" fill="black" /></g></svg>