<?xml version='1.0' encoding='utf-8'?>
<svg xmlns="http://www.w3.org/2000/svg" version="1.1" viewBox="0 0 1024 1024"><g transform="scale(1, -1) translate(0, -900)"><path d="M 476 452 Q 503 462 543 476 Q 544 477 550 478 C 579 487 570 504 541 498 Q 487 488 432 471 Q 426 468 424 470 Q 423 473 426 479 Q 484 576 498 592 Q 507 601 501 610 Q 497 617 469 628 C 441 640 419 648 429 620 Q 447 581 408 512 Q 392 484 356 453 Q 346 443 350 435 Q 354 422 376 408 Q 386 401 395 410 Q 410 425 449 441 L 476 452 Z" fill="black" /></g></svg>