<?xml version='1.0' encoding='utf-8'?>
<svg xmlns="http://www.w3.org/2000/svg" version="1.1" viewBox="0 0 1024 1024"><g transform="scale(1, -1) translate(0, -900)"><path d="M 533 221 Q 591 237 652 245 C 682 249 670 264 640 261 Q 546 252 436 230 Q 424 227 432 235 Q 568 349 638 386 Q 651 392 648 402 Q 642 421 618 445 Q 606 457 597 456 Q 587 455 586 441 Q 585 423 532 361 L 507 337 Q 389 237 361 227 Q 348 221 348 209 Q 347 197 366 176 Q 373 164 388 172 Q 440 197 495 212 L 533 221 Z" fill="black" /></g></svg>