<?xml version='1.0' encoding='utf-8'?>
<svg xmlns="http://www.w3.org/2000/svg" version="1.1" viewBox="0 0 1024 1024"><g transform="scale(1, -1) translate(0, -900)"><path d="M 635 613 Q 749 643 770 631 Q 780 625 775 594 Q 756 477 746 454 Q 739 436 745 419 Q 751 403 764 405 Q 777 406 785 422 Q 797 438 818 516 Q 834 567 869 596 Q 887 612 871 627 Q 853 643 804 669 Q 789 678 727 660 Q 700 657 636 641 L 591 630 Q 573 629 558 623 Q 503 608 466 601 C 437 595 452 561 480 571 Q 540 592 592 603 L 635 613 Z" fill="black" /></g></svg>