<?xml version='1.0' encoding='utf-8'?>
<svg xmlns="http://www.w3.org/2000/svg" version="1.1" viewBox="0 0 1024 1024"><g transform="scale(1, -1) translate(0, -900)"><path d="M 343 437 Q 294 422 238 397 Q 219 387 230 406 Q 263 461 342 573 Q 366 610 388 633 Q 398 643 392 652 Q 382 668 348 684 Q 332 691 324 689 Q 315 685 318 670 Q 324 633 274 538 Q 271 535 269 531 L 253 504 Q 169 381 160 374 Q 148 364 152 352 Q 155 339 181 324 Q 191 314 205 327 Q 259 378 349 420 C 376 433 372 446 343 437 Z" fill="black" /></g></svg>