<?xml version='1.0' encoding='utf-8'?>
<svg xmlns="http://www.w3.org/2000/svg" version="1.1" viewBox="0 0 1024 1024"><g transform="scale(1, -1) translate(0, -900)"><path d="M 477 287 Q 558 314 798 342 Q 814 343 827 333 Q 846 326 848 297 Q 852 227 835 99 Q 835 75 812 75 Q 785 78 763 80 Q 747 81 751 73 Q 752 63 781 43 Q 815 15 835 -18 Q 848 -28 861 -21 Q 871 -17 885 19 Q 909 71 904 173 Q 900 314 911 332 Q 921 344 913 355 Q 903 365 861 384 Q 843 391 827 382 Q 805 375 739 367 Q 646 352 576 339 Q 512 327 466 321 C 436 317 448 279 477 287 Z" fill="black" /></g></svg>