<?xml version='1.0' encoding='utf-8'?>
<svg xmlns="http://www.w3.org/2000/svg" version="1.1" viewBox="0 0 1024 1024"><g transform="scale(1, -1) translate(0, -900)"><path d="M 334 339 Q 335 340 339 341 Q 430 356 490 356 Q 511 356 511 367 Q 511 379 477 395 Q 450 408 436 400 Q 414 393 389 386 Q 313 370 234 353 Q 207 346 196 352 Q 186 356 188 370 Q 191 451 200 539 Q 206 563 186 582 Q 153 610 131 609 Q 112 609 121 589 Q 154 540 149 488 Q 148 368 135 348 Q 125 330 134 316 Q 149 294 162 293 Q 169 293 191 304 Q 231 319 287 330 L 334 339 Z" fill="black" /></g></svg>