<?xml version='1.0' encoding='utf-8'?>
<svg xmlns="http://www.w3.org/2000/svg" version="1.1" viewBox="0 0 1024 1024"><g transform="scale(1, -1) translate(0, -900)"><path d="M 664 218 Q 665 116 679 94 Q 683 88 690 91 Q 697 94 701 107 Q 710 140 712 226 L 711 258 Q 710 282 711 322 L 711 358 Q 711 380 712 403 L 713 440 Q 713 450 720 475 Q 721 490 710 498 Q 682 516 670 518 Q 660 522 646 515 Q 639 508 645 499 Q 655 478 661 428 Q 660 428 661 426 L 662 391 Q 662 370 663 345 L 663 312 Q 663 282 663 248 L 664 218 Z" fill="black" /></g></svg>