<?xml version='1.0' encoding='utf-8'?>
<svg xmlns="http://www.w3.org/2000/svg" version="1.1" viewBox="0 0 1024 1024"><g transform="scale(1, -1) translate(0, -900)"><path d="M 383 466 Q 390 453 399 440 Q 414 418 421 420 Q 428 421 440 444 Q 450 469 450 501 Q 444 726 466 763 Q 476 779 468 790 Q 461 800 416 815 Q 394 822 377 814 Q 323 789 277 781 C 248 775 264 749 293 756 Q 386 777 391 775 Q 392 775 395 772 Q 416 754 399 519 Q 402 497 382 500 Q 373 501 371 498 C 365 497 368 492 383 466 Z" fill="black" /></g></svg>