<?xml version='1.0' encoding='utf-8'?>
<svg xmlns="http://www.w3.org/2000/svg" version="1.1" viewBox="0 0 1024 1024"><g transform="scale(1, -1) translate(0, -900)"><path d="M 742 393 Q 755 371 768 362 Q 778 355 793 372 Q 803 384 831 454 Q 841 481 864 502 Q 877 512 867 526 Q 854 542 817 569 Q 805 578 711 561 Q 708 561 705 560 Q 633 553 460 525 C 430 520 449 489 478 496 Q 506 503 541 509 L 555 512 Q 595 521 649 528 L 681 531 Q 760 546 780 530 Q 787 524 785 513 Q 769 443 761 431 Q 758 422 742 418 C 729 412 729 412 742 393 Z" fill="black" /></g></svg>