<?xml version='1.0' encoding='utf-8'?>
<svg xmlns="http://www.w3.org/2000/svg" version="1.1" viewBox="0 0 1024 1024"><g transform="scale(1, -1) translate(0, -900)"><path d="M 670 301 Q 845 340 870 316 Q 876 309 872 297 Q 856 104 839 76 Q 835 66 822 70 Q 800 74 775 78 Q 748 82 767 63 Q 819 14 840 -21 Q 852 -37 866 -26 Q 884 -10 894 17 Q 907 45 920 204 Q 924 264 944 292 Q 957 311 952 318 Q 945 330 899 360 Q 881 372 833 358 Q 719 340 691 334 L 624 322 Q 612 322 488 292 C 459 285 475 250 504 256 Q 514 256 527 260 Q 560 275 617 289 L 670 301 Z" fill="black" /></g></svg>