<?xml version='1.0' encoding='utf-8'?>
<svg xmlns="http://www.w3.org/2000/svg" version="1.1" viewBox="0 0 1024 1024"><g transform="scale(1, -1) translate(0, -900)"><path d="M 274 361 Q 231 349 185 330 Q 164 320 176 339 Q 209 391 286 498 Q 310 534 331 554 Q 341 564 335 573 Q 325 589 293 604 Q 278 611 270 608 Q 261 605 264 591 Q 267 567 238 500 L 224 472 Q 221 469 220 465 Q 133 324 109 310 Q 97 300 101 288 Q 104 276 128 261 Q 138 251 151 264 Q 214 318 280 344 C 308 356 303 369 274 361 Z" fill="black" /></g></svg>