<?xml version='1.0' encoding='utf-8'?>
<svg xmlns="http://www.w3.org/2000/svg" version="1.1" viewBox="0 0 1024 1024"><g transform="scale(1, -1) translate(0, -900)"><path d="M 775 82 Q 799 51 816 22 Q 823 7 833 8 Q 846 9 860 37 Q 870 59 872 116 Q 854 288 876 317 Q 883 327 876 335 Q 861 351 819 372 Q 804 379 792 372 Q 759 357 661 335 L 630 330 Q 624 330 618 328 C 588 323 607 298 636 304 Q 645 305 658 309 Q 721 321 774 332 Q 795 336 805 329 Q 818 319 816 165 Q 816 125 812 111 Q 811 104 806 101 C 794 74 761 100 775 82 Z" fill="black" /></g></svg>