<?xml version='1.0' encoding='utf-8'?>
<svg xmlns="http://www.w3.org/2000/svg" version="1.1" viewBox="0 0 1024 1024"><g transform="scale(1, -1) translate(0, -900)"><path d="M 726 230 Q 716 229 706 225 Q 654 209 622 201 Q 618 202 617 207 Q 616 208 670 301 L 691 334 Q 704 352 688 366 Q 660 391 637 395 Q 621 396 615 390 Q 609 383 618 373 Q 627 363 624 322 L 617 289 Q 616 288 616 285 Q 585 203 567 194 Q 546 184 543 168 Q 542 140 549 129 Q 558 116 570 128 Q 579 146 733 208 Q 734 209 739 210 C 767 220 755 236 726 230 Z" fill="black" /></g></svg>