<?xml version='1.0' encoding='utf-8'?>
<svg xmlns="http://www.w3.org/2000/svg" version="1.1" viewBox="0 0 1024 1024"><g transform="scale(1, -1) translate(0, -900)"><path d="M 735 537 Q 748 518 761 510 Q 770 503 784 521 Q 794 537 818 621 L 835 663 Q 841 673 851 683 Q 863 693 853 705 Q 840 720 804 743 Q 788 752 775 747 Q 748 740 710 733 Q 694 732 678 727 L 627 718 Q 614 717 602 713 Q 556 703 519 697 C 489 692 507 661 536 670 Q 573 682 628 691 L 675 700 Q 753 718 771 705 Q 781 698 778 683 Q 774 667 771 651 L 763 618 Q 753 570 739 564 C 725 549 725 549 735 537 Z" fill="black" /></g></svg>