<?xml version='1.0' encoding='utf-8'?>
<svg xmlns="http://www.w3.org/2000/svg" version="1.1" viewBox="0 0 1024 1024"><g transform="scale(1, -1) translate(0, -900)"><path d="M 525 420 Q 521 426 517 428 Q 504 435 496 433 Q 489 429 491 417 Q 500 375 430 327 Q 409 308 396 306 Q 374 305 366 293 Q 353 271 355 258 Q 358 242 373 248 Q 389 263 508 263 C 538 263 562 273 533 281 Q 523 285 496 288 Q 463 291 445 294 Q 444 298 444 300 Q 445 301 529 350 Q 556 357 547 381 Q 540 397 533 409 L 525 420 Z" fill="black" /></g></svg>