<?xml version='1.0' encoding='utf-8'?>
<svg xmlns="http://www.w3.org/2000/svg" version="1.1" viewBox="0 0 1024 1024"><g transform="scale(1, -1) translate(0, -900)"><path d="M 349 424 Q 292 406 228 376 Q 216 370 223 382 Q 266 446 367 575 Q 395 612 419 634 Q 431 644 424 653 Q 414 672 380 690 Q 364 699 355 696 Q 345 692 348 677 Q 351 635 295 542 L 276 515 Q 171 367 149 352 Q 137 342 141 329 Q 142 316 170 300 Q 180 290 194 302 Q 251 357 354 408 Q 357 409 359 410 C 386 423 377 433 349 424 Z" fill="black" /></g></svg>