<?xml version='1.0' encoding='utf-8'?>
<svg xmlns="http://www.w3.org/2000/svg" version="1.1" viewBox="0 0 1024 1024"><g transform="scale(1, -1) translate(0, -900)"><path d="M 752 512 Q 780 455 806 475 Q 807 478 810 480 Q 822 493 852 569 Q 862 597 885 620 Q 898 632 888 645 Q 875 661 835 689 Q 816 699 802 694 Q 771 685 726 676 L 677 666 Q 643 659 605 650 L 566 641 Q 514 631 475 622 C 446 615 469 582 497 592 Q 530 604 571 614 L 607 623 Q 638 632 675 638 L 720 647 Q 777 665 799 650 Q 806 643 804 630 Q 782 543 766 532 C 752 513 752 513 752 512 Z" fill="black" /></g></svg>