<?xml version='1.0' encoding='utf-8'?>
<svg xmlns="http://www.w3.org/2000/svg" version="1.1" viewBox="0 0 1024 1024"><g transform="scale(1, -1) translate(0, -900)"><path d="M 667 460 Q 668 494 670 528 L 671 558 Q 671 583 673 608 L 674 634 Q 674 668 675 700 L 678 727 Q 681 752 685 772 Q 691 794 694 812 Q 698 822 678 837 Q 644 855 620 859 Q 604 862 596 853 Q 589 846 597 831 Q 625 791 625 763 Q 626 741 627 718 L 628 691 Q 628 660 629 628 L 630 602 Q 630 577 630 549 L 629 521 Q 628 490 627 454 L 626 426 Q 625 389 624 350 C 623 320 661 325 663 355 L 663 356 Q 666 393 666 431 L 667 460 Z" fill="black" /></g></svg>