<?xml version='1.0' encoding='utf-8'?>
<svg xmlns="http://www.w3.org/2000/svg" version="1.1" viewBox="0 0 1024 1024"><g transform="scale(1, -1) translate(0, -900)"><path d="M 332 397 Q 281 382 226 358 Q 208 351 218 366 Q 255 423 345 538 Q 370 575 395 598 Q 407 608 400 618 Q 390 637 356 654 Q 340 661 331 659 Q 321 655 324 640 Q 325 607 287 532 L 271 504 L 271 503 Q 175 356 144 336 Q 131 326 135 313 Q 138 300 164 283 Q 176 273 189 285 Q 249 339 341 379 C 368 391 361 406 332 397 Z" fill="black" /></g></svg>