<?xml version='1.0' encoding='utf-8'?>
<svg xmlns="http://www.w3.org/2000/svg" version="1.1" viewBox="0 0 1024 1024"><g transform="scale(1, -1) translate(0, -900)"><path d="M 347 402 Q 293 389 228 363 Q 210 356 221 371 Q 258 426 348 539 Q 375 575 398 595 Q 408 605 403 614 Q 393 632 361 649 Q 346 658 337 655 Q 327 652 330 637 Q 331 610 297 542 L 281 514 Q 278 511 276 505 Q 177 358 149 344 Q 137 334 140 322 Q 143 309 167 292 Q 177 282 191 294 Q 248 345 354 387 L 355 387 C 383 398 376 409 347 402 Z" fill="black" /></g></svg>