<?xml version='1.0' encoding='utf-8'?>
<svg xmlns="http://www.w3.org/2000/svg" version="1.1" viewBox="0 0 1024 1024"><g transform="scale(1, -1) translate(0, -900)"><path d="M 720 481 Q 724 482 731 484 Q 759 491 787 499 Q 803 503 811 493 Q 821 486 821 455 Q 831 217 822 72 Q 821 50 814 39 Q 808 35 754 46 Q 735 53 736 44 Q 779 -2 803 -35 Q 816 -54 830 -58 Q 839 -62 847 -53 Q 887 -7 886 44 Q 859 440 885 482 Q 897 501 885 511 Q 864 529 830 543 Q 812 550 798 544 Q 764 523 700 509 C 671 502 691 473 720 481 Z" fill="black" /></g></svg>