<?xml version='1.0' encoding='utf-8'?>
<svg xmlns="http://www.w3.org/2000/svg" version="1.1" viewBox="0 0 1024 1024"><g transform="scale(1, -1) translate(0, -900)"><path d="M 531 179 Q 594 194 657 203 C 687 207 676 221 646 219 Q 549 212 431 190 Q 425 189 429 193 Q 583 304 643 328 Q 656 332 655 344 Q 651 363 626 391 Q 614 404 605 404 Q 595 404 593 389 Q 583 353 510 291 L 487 275 Q 370 194 355 188 Q 340 184 340 170 Q 339 158 358 135 Q 365 122 380 130 Q 440 158 498 172 L 531 179 Z" fill="black" /></g></svg>