<?xml version='1.0' encoding='utf-8'?>
<svg xmlns="http://www.w3.org/2000/svg" version="1.1" viewBox="0 0 1024 1024"><g transform="scale(1, -1) translate(0, -900)"><path d="M 634 168 Q 621 291 639 315 Q 646 325 639 333 Q 624 348 584 365 Q 571 372 558 365 Q 533 350 490 336 Q 459 327 440 322 C 411 314 423 290 452 296 Q 473 299 556 326 Q 568 330 575 325 Q 588 316 582 195 Q 582 164 579 153 Q 575 138 561 146 L 560 146 C 530 149 527 149 541 130 Q 565 99 581 70 Q 588 55 597 56 Q 610 57 623 82 Q 633 107 635 157 L 634 168 Z" fill="black" /></g></svg>