<?xml version='1.0' encoding='utf-8'?>
<svg xmlns="http://www.w3.org/2000/svg" version="1.1" viewBox="0 0 1024 1024"><g transform="scale(1, -1) translate(0, -900)"><path d="M 770 519 Q 780 565 791 594 L 810 638 Q 823 663 840 678 Q 856 696 841 712 Q 825 724 776 747 Q 758 754 739 745 Q 690 724 646 711 L 600 700 Q 540 687 480 679 Q 464 678 466 668 Q 469 661 486 655 Q 510 645 543 657 Q 570 664 600 669 L 645 679 Q 679 688 719 696 Q 741 703 751 693 Q 761 683 752 625 L 744 589 Q 737 561 728 534 C 719 505 763 490 770 519 Z" fill="black" /></g></svg>