<?xml version='1.0' encoding='utf-8'?>
<svg xmlns="http://www.w3.org/2000/svg" version="1.1" viewBox="0 0 1024 1024"><g transform="scale(1, -1) translate(0, -900)"><path d="M 644 295 Q 644 320 643 475 L 643 513 Q 643 546 643 574 L 644 603 Q 644 646 645 679 L 646 711 Q 646 771 667 804 Q 673 817 655 832 Q 633 848 594 859 Q 578 863 566 851 Q 556 844 568 833 Q 598 808 600 772 Q 600 741 600 700 L 600 669 Q 599 636 600 596 L 599 566 Q 599 538 599 503 L 599 468 Q 599 408 596 284 L 595 249 Q 583 27 609 -17 Q 622 -30 630 -12 Q 646 25 645 258 L 644 295 Z" fill="black" /></g></svg>