<?xml version='1.0' encoding='utf-8'?>
<svg xmlns="http://www.w3.org/2000/svg" version="1.1" viewBox="0 0 1024 1024"><g transform="scale(1, -1) translate(0, -900)"><path d="M 462 475 Q 416 465 377 452 L 344 442 Q 301 429 265 412 Q 252 408 254 424 Q 258 470 251 482 Q 247 486 241 490 C 217 509 194 508 205 480 Q 215 458 213 432 Q 212 405 202 392 Q 189 379 195 368 Q 205 358 219 350 Q 229 344 237 352 Q 258 383 405 432 Q 457 450 471 446 Q 472 447 474 447 C 504 448 491 482 462 475 Z" fill="black" /></g></svg>