<?xml version='1.0' encoding='utf-8'?>
<svg xmlns="http://www.w3.org/2000/svg" version="1.1" viewBox="0 0 1024 1024"><g transform="scale(1, -1) translate(0, -900)"><path d="M 704 478 Q 729 506 752 551 Q 762 573 779 586 Q 794 596 785 608 Q 775 618 752 628 Q 734 635 713 625 Q 691 616 661 607 Q 631 600 582 593 Q 572 592 568 587 Q 565 581 579 576 Q 607 564 645 576 Q 690 592 698 592 Q 713 591 709 574 Q 699 532 677 504 Q 674 501 672 498 L 652 477 Q 600 443 544 429 Q 534 426 541 419 Q 589 404 677 455 L 704 478 Z" fill="black" /></g></svg>