<?xml version='1.0' encoding='utf-8'?>
<svg xmlns="http://www.w3.org/2000/svg" version="1.1" viewBox="0 0 1024 1024"><g transform="scale(1, -1) translate(0, -900)"><path d="M 533 179 L 534 177 Q 535 117 552 86 Q 568 49 603 33 Q 649 11 721 9 Q 803 8 856 22 Q 911 40 930 51 Q 952 63 937 98 Q 919 137 911 187 Q 908 203 904 205 Q 898 205 897 189 Q 893 143 881 115 Q 874 94 844 81 Q 808 65 745 66 Q 672 67 637 80 Q 604 96 593 123 Q 560 198 582 534 Q 585 651 584 657 Q 580 670 558 692 C 539 715 521 717 527 688 Q 528 687 529 682 Q 539 627 540 560 L 539 530 Q 538 463 537 418 L 537 386 Q 536 349 534 313 L 533 287 Q 532 247 532 211 L 533 179 Z" fill="black" /></g></svg>