<?xml version='1.0' encoding='utf-8'?>
<svg xmlns="http://www.w3.org/2000/svg" version="1.1" viewBox="0 0 1024 1024"><g transform="scale(1, -1) translate(0, -900)"><path d="M 476 270 Q 370 197 363 194 Q 350 190 351 177 Q 350 167 367 146 Q 374 134 388 142 Q 442 167 497 183 L 534 193 Q 586 206 640 214 C 670 219 658 233 628 230 Q 538 220 432 197 Q 428 196 431 199 Q 473 232 566 293 Q 597 317 624 328 Q 637 332 634 343 Q 630 362 607 385 Q 597 395 588 396 Q 579 396 577 383 Q 571 347 500 288 Q 499 288 498 287 L 476 270 Z" fill="black" /></g></svg>