<?xml version='1.0' encoding='utf-8'?>
<svg xmlns="http://www.w3.org/2000/svg" version="1.1" viewBox="0 0 1024 1024"><g transform="scale(1, -1) translate(0, -900)"><path d="M 377 452 Q 378 488 379 521 L 380 551 Q 380 570 381 588 L 382 616 Q 382 632 383 646 L 383 676 Q 383 692 384 709 L 385 737 Q 386 759 390 775 L 397 812 Q 398 819 400 824 Q 403 834 386 845 Q 358 860 338 863 Q 325 866 318 858 Q 312 852 319 840 Q 335 815 341 796 L 343 765 Q 343 747 344 728 L 345 701 Q 345 683 346 664 L 347 638 Q 347 625 347 608 L 347 582 Q 346 564 346 544 L 345 514 Q 344 480 344 442 C 344 412 376 422 377 452 Z" fill="black" /></g></svg>