<?xml version='1.0' encoding='utf-8'?>
<svg xmlns="http://www.w3.org/2000/svg" version="1.1" viewBox="0 0 1024 1024"><g transform="scale(1, -1) translate(0, -900)"><path d="M 465 247 Q 466 247 467 246 Q 471 245 490 242 Q 509 238 517 227 Q 526 211 491 120 Q 473 81 459 77 Q 450 74 429 80 Q 402 93 398 90 Q 394 83 406 74 Q 427 49 432 24 Q 436 11 444 6 Q 454 2 479 17 Q 507 38 530 93 Q 554 192 574 206 Q 583 210 584 217 Q 585 224 568 243 Q 546 265 498 266 Q 489 269 480 269 C 450 272 436 254 465 247 Z" fill="black" /></g></svg>