<?xml version='1.0' encoding='utf-8'?>
<svg xmlns="http://www.w3.org/2000/svg" version="1.1" viewBox="0 0 1024 1024"><g transform="scale(1, -1) translate(0, -900)"><path d="M 333 416 Q 284 406 231 384 Q 209 375 222 394 Q 261 452 352 570 Q 379 607 403 630 Q 415 640 408 650 Q 398 669 364 686 Q 348 695 339 691 Q 329 688 332 673 Q 335 636 293 560 L 279 537 Q 278 536 278 534 Q 170 378 148 364 Q 135 354 138 341 Q 141 328 167 311 Q 177 299 192 312 Q 265 375 341 400 C 369 410 362 423 333 416 Z" fill="black" /></g></svg>