<?xml version='1.0' encoding='utf-8'?>
<svg xmlns="http://www.w3.org/2000/svg" version="1.1" viewBox="0 0 1024 1024"><g transform="scale(1, -1) translate(0, -900)"><path d="M 438 134 Q 460 147 468 168 Q 480 210 439 260 Q 423 285 467 335 Q 474 351 522 383 Q 544 395 529 411 Q 516 427 488 446 Q 472 461 454 449 Q 388 407 343 411 Q 336 411 333 408 Q 332 404 338 400 Q 368 382 442 403 Q 446 407 453 403 Q 468 375 437 348 Q 415 332 394 301 Q 388 289 420 210 Q 420 209 422 205 Q 434 166 421 137 C 414 117 414 117 438 134 Z" fill="black" /></g></svg>