<?xml version='1.0' encoding='utf-8'?>
<svg xmlns="http://www.w3.org/2000/svg" version="1.1" viewBox="0 0 1024 1024"><g transform="scale(1, -1) translate(0, -900)"><path d="M 507 141 Q 544 154 586 164 Q 587 165 592 165 C 621 171 613 181 583 177 Q 513 167 429 145 Q 428 144 428 147 Q 546 240 589 260 Q 599 266 597 274 Q 593 290 572 311 Q 562 321 554 320 Q 547 320 545 308 Q 539 284 490 233 L 468 214 Q 384 145 368 139 Q 358 135 357 124 Q 357 114 373 96 Q 380 86 392 93 Q 435 118 482 133 L 507 141 Z" fill="black" /></g></svg>