<?xml version='1.0' encoding='utf-8'?>
<svg xmlns="http://www.w3.org/2000/svg" version="1.1" viewBox="0 0 1024 1024"><g transform="scale(1, -1) translate(0, -900)"><path d="M 312 384 Q 264 372 208 351 Q 189 342 200 360 Q 237 415 325 527 Q 350 563 374 584 Q 386 594 379 603 Q 369 621 337 637 Q 321 646 313 643 Q 303 639 306 625 Q 307 603 279 539 L 264 510 Q 258 503 254 493 Q 155 348 129 331 Q 116 322 120 309 Q 121 297 147 280 Q 157 270 171 282 Q 225 327 319 368 L 321 368 C 349 379 341 392 312 384 Z" fill="black" /></g></svg>