<?xml version='1.0' encoding='utf-8'?>
<svg xmlns="http://www.w3.org/2000/svg" version="1.1" viewBox="0 0 1024 1024"><g transform="scale(1, -1) translate(0, -900)"><path d="M 279 521 Q 276 522 274 521 Q 231 520 194 519 Q 166 519 180 537 Q 247 642 310 719 Q 325 735 322 742 Q 321 755 284 787 Q 268 800 251 797 Q 241 794 246 780 Q 252 764 246 738 Q 233 692 174 592 Q 156 558 118 527 Q 100 514 101 501 Q 105 483 119 466 Q 128 457 151 468 Q 196 490 263 498 C 293 502 309 521 279 521 Z" fill="black" /></g></svg>