<?xml version='1.0' encoding='utf-8'?>
<svg xmlns="http://www.w3.org/2000/svg" version="1.1" viewBox="0 0 1024 1024"><g transform="scale(1, -1) translate(0, -900)"><path d="M 818 218 Q 819 211 825 204 Q 838 177 846 178 Q 859 179 873 209 Q 886 233 885 252 Q 858 454 894 511 Q 903 524 895 534 Q 826 588 771 556 Q 747 546 718 537 Q 708 536 701 532 L 676 526 Q 660 525 647 520 C 618 512 633 483 661 493 Q 731 517 787 530 Q 803 534 810 527 Q 825 509 824 449 Q 828 277 819 245 L 818 218 Z" fill="black" /></g></svg>