<?xml version='1.0' encoding='utf-8'?>
<svg xmlns="http://www.w3.org/2000/svg" version="1.1" viewBox="0 0 1024 1024"><g transform="scale(1, -1) translate(0, -900)"><path d="M 386 410 Q 401 389 414 383 Q 421 379 432 393 Q 442 412 460 507 Q 464 531 482 550 Q 491 559 482 569 Q 470 581 438 599 Q 429 603 365 589 Q 361 589 274 570 Q 237 561 207 555 C 178 549 202 523 231 532 Q 256 541 295 547 L 325 553 Q 395 574 412 561 Q 422 554 420 540 Q 408 450 400 433 C 391 404 381 416 386 410 Z" fill="black" /></g></svg>