<?xml version='1.0' encoding='utf-8'?>
<svg xmlns="http://www.w3.org/2000/svg" version="1.1" viewBox="0 0 1024 1024"><g transform="scale(1, -1) translate(0, -900)"><path d="M 617 659 Q 630 631 644 622 Q 653 615 668 632 Q 681 648 713 738 Q 723 766 745 787 Q 758 797 748 811 Q 735 827 698 853 Q 679 865 625 850 Q 609 850 464 827 Q 415 818 371 812 C 341 808 358 771 387 779 Q 430 791 494 799 L 528 805 Q 645 826 665 810 Q 674 801 670 788 Q 643 686 629 678 C 616 660 616 660 617 659 Z" fill="black" /></g></svg>