<?xml version='1.0' encoding='utf-8'?>
<svg xmlns="http://www.w3.org/2000/svg" version="1.1" viewBox="0 0 1024 1024"><g transform="scale(1, -1) translate(0, -900)"><path d="M 757 443 Q 757 440 762 435 Q 778 410 793 402 Q 802 396 814 414 Q 824 433 846 538 Q 853 563 871 585 Q 881 595 872 606 Q 859 619 823 641 Q 813 645 747 631 Q 744 631 743 630 Q 676 615 608 600 C 579 594 586 562 615 571 Q 642 580 684 588 L 716 594 Q 776 612 793 600 Q 803 593 801 577 Q 789 478 779 460 C 769 432 747 459 757 443 Z" fill="black" /></g></svg>