<?xml version='1.0' encoding='utf-8'?>
<svg xmlns="http://www.w3.org/2000/svg" version="1.1" viewBox="0 0 1024 1024"><g transform="scale(1, -1) translate(0, -900)"><path d="M 765 460 Q 765 456 766 451 Q 769 438 779 436 Q 797 436 827 483 Q 846 526 880 548 Q 896 560 885 574 Q 872 590 831 617 Q 818 627 726 610 Q 692 610 536 580 Q 433 562 387 562 C 357 561 410 522 439 531 Q 470 541 520 551 L 541 555 Q 586 565 646 572 L 681 577 Q 775 598 805 583 Q 811 579 804 560 Q 782 499 773 483 L 765 460 Z" fill="black" /></g></svg>