<?xml version='1.0' encoding='utf-8'?>
<svg xmlns="http://www.w3.org/2000/svg" version="1.1" viewBox="0 0 1024 1024"><g transform="scale(1, -1) translate(0, -900)"><path d="M 765 463 Q 766 459 768 453 Q 772 440 783 441 Q 795 442 801 455 Q 811 468 832 532 Q 845 575 876 600 Q 892 613 879 627 Q 864 640 822 664 Q 810 670 751 657 Q 733 657 621 630 Q 578 620 545 614 C 516 608 536 578 564 588 Q 576 594 638 607 L 671 613 Q 773 640 794 629 Q 803 625 798 598 Q 780 502 769 481 C 764 467 764 467 765 463 Z" fill="black" /></g></svg>