<?xml version='1.0' encoding='utf-8'?>
<svg xmlns="http://www.w3.org/2000/svg" version="1.1" viewBox="0 0 1024 1024"><g transform="scale(1, -1) translate(0, -900)"><path d="M 679 513 Q 680 516 682 519 L 685 541 Q 686 556 685 577 Q 684 587 684 598 L 684 621 Q 684 652 684 675 L 684 698 Q 684 735 686 774 C 687 785 687 785 675 794 Q 672 800 652 806 Q 645 810 638 806 Q 634 803 637 795 Q 638 789 641 783 Q 650 765 652 614 Q 640 539 657 514 Q 660 510 665 504 C 672 495 672 495 679 513 Z" fill="black" /></g></svg>