<?xml version='1.0' encoding='utf-8'?>
<svg xmlns="http://www.w3.org/2000/svg" version="1.1" viewBox="0 0 1024 1024"><g transform="scale(1, -1) translate(0, -900)"><path d="M 652 63 Q 642 -21 668 -44 Q 734 -98 896 -69 Q 899 -68 902 -68 Q 939 -61 976 -40 Q 992 -27 980 -5 Q 968 19 952 92 Q 951 105 945 110 Q 939 111 936 97 Q 917 18 901 -6 Q 870 -33 776 -31 Q 740 -30 715 -21 Q 693 -11 689 1 Q 680 25 701 99 Q 707 123 669 143 Q 659 147 652 143 Q 646 142 649 126 Q 656 93 652 63 Z" fill="black" /></g></svg>