<?xml version='1.0' encoding='utf-8'?>
<svg xmlns="http://www.w3.org/2000/svg" version="1.1" viewBox="0 0 1024 1024"><g transform="scale(1, -1) translate(0, -900)"><path d="M 328 397 Q 279 387 223 367 Q 202 358 215 376 Q 252 430 340 536 Q 365 570 388 589 Q 398 598 394 607 Q 384 625 354 641 Q 341 650 331 647 Q 322 644 324 630 Q 325 600 286 528 L 271 504 Q 174 368 146 351 Q 134 344 137 330 Q 138 318 162 302 Q 172 292 185 302 Q 245 350 333 380 Q 334 381 336 380 C 365 388 357 403 328 397 Z" fill="black" /></g></svg>