<?xml version='1.0' encoding='utf-8'?>
<svg xmlns="http://www.w3.org/2000/svg" version="1.1" viewBox="0 0 1024 1024"><g transform="scale(1, -1) translate(0, -900)"><path d="M 586 286 Q 593 302 601 311 Q 610 318 607 327 Q 601 340 566 366 Q 556 375 545 371 Q 533 368 540 353 Q 547 334 533 279 L 521 245 Q 506 209 492 187 Q 483 171 486 158 Q 489 149 505 146 Q 550 136 599 112 Q 602 111 604 109 L 650 85 Q 708 51 794 -13 Q 819 -32 836 -31 Q 855 -30 855 -11 Q 855 8 826 50 Q 811 80 680 123 L 633 140 Q 584 158 547 166 Q 528 170 537 189 Q 556 229 570 253 L 586 286 Z" fill="black" /></g></svg>