<?xml version='1.0' encoding='utf-8'?>
<svg xmlns="http://www.w3.org/2000/svg" version="1.1" viewBox="0 0 1024 1024"><g transform="scale(1, -1) translate(0, -900)"><path d="M 749 152 Q 788 56 870 -24 Q 930 -75 959 -75 Q 980 -71 973 -42 Q 966 1 957 126 Q 956 150 946 151 Q 940 151 917 74 Q 907 38 876 59 Q 869 65 860 73 Q 814 128 778 198 L 754 254 Q 727 329 700 502 L 694 547 Q 678 692 697 785 Q 710 822 660 845 Q 629 861 609 855 Q 590 851 598 831 Q 638 791 637 759 Q 644 635 656 535 L 661 495 Q 682 332 728 205 L 749 152 Z" fill="black" /></g></svg>