<?xml version='1.0' encoding='utf-8'?>
<svg xmlns="http://www.w3.org/2000/svg" version="1.1" viewBox="0 0 1024 1024"><g transform="scale(1, -1) translate(0, -900)"><path d="M 710 496 Q 710 358 710 134 Q 709 112 697 102 Q 687 95 664 102 Q 637 109 611 114 Q 577 127 579 116 Q 580 109 602 93 Q 672 38 691 6 Q 712 -31 729 -32 Q 745 -33 761 4 Q 780 53 777 133 Q 764 317 763 501 L 763 549 Q 763 684 782 753 Q 800 786 740 810 Q 703 829 683 821 Q 664 814 681 789 Q 705 761 707 724 Q 708 705 710 538 L 710 496 Z" fill="black" /></g></svg>