<?xml version='1.0' encoding='utf-8'?>
<svg xmlns="http://www.w3.org/2000/svg" version="1.1" viewBox="0 0 1024 1024"><g transform="scale(1, -1) translate(0, -900)"><path d="M 311 450 Q 215 309 189 294 Q 174 284 178 269 Q 179 256 209 235 Q 221 222 236 236 Q 297 284 409 325 Q 428 332 431 341 Q 434 351 413 347 Q 353 335 282 313 Q 252 300 271 326 Q 311 387 410 513 Q 438 555 465 578 Q 478 590 471 600 Q 458 619 422 639 Q 406 649 395 645 Q 385 641 387 625 Q 393 580 330 478 L 311 450 Z" fill="black" /></g></svg>