<?xml version='1.0' encoding='utf-8'?>
<svg xmlns="http://www.w3.org/2000/svg" version="1.1" viewBox="0 0 1024 1024"><g transform="scale(1, -1) translate(0, -900)"><path d="M 574 453 Q 570 440 573 428 Q 577 416 587 417 Q 597 418 602 429 Q 606 436 612 451 L 624 491 Q 630 527 636 534 L 657 570 Q 663 577 671 584 Q 686 596 673 607 Q 660 620 622 640 Q 612 646 555 634 Q 528 631 392 607 C 362 602 374 577 404 582 Q 408 582 414 583 Q 436 590 473 595 L 503 600 Q 531 604 571 608 Q 590 609 597 606 Q 606 600 601 574 Q 600 568 598 561 L 593 532 Q 587 507 584 488 L 574 453 Z" fill="black" /></g></svg>