<?xml version='1.0' encoding='utf-8'?>
<svg xmlns="http://www.w3.org/2000/svg" version="1.1" viewBox="0 0 1024 1024"><g transform="scale(1, -1) translate(0, -900)"><path d="M 837 542 Q 847 523 857 516 Q 864 510 875 523 Q 902 571 929 620 Q 938 627 930 638 Q 920 650 892 669 Q 880 676 818 660 Q 811 660 724 639 Q 684 629 647 622 C 618 616 634 591 663 597 Q 667 597 674 599 Q 684 603 701 607 L 716 611 Q 738 618 768 625 L 791 629 Q 849 650 870 636 Q 874 632 872 623 Q 862 584 850 561 C 839 538 835 546 837 542 Z" fill="black" /></g></svg>