<?xml version='1.0' encoding='utf-8'?>
<svg xmlns="http://www.w3.org/2000/svg" version="1.1" viewBox="0 0 1024 1024"><g transform="scale(1, -1) translate(0, -900)"><path d="M 315 463 Q 201 316 176 303 Q 161 293 164 279 Q 165 266 192 245 Q 202 233 218 245 Q 278 287 405 331 Q 424 335 427 345 Q 430 355 409 352 Q 345 340 265 317 Q 240 308 256 329 Q 298 384 396 496 Q 427 533 453 555 Q 466 565 460 575 Q 450 594 416 616 Q 400 626 390 623 Q 380 620 382 604 Q 383 570 331 485 L 315 463 Z" fill="black" /></g></svg>