<?xml version='1.0' encoding='utf-8'?>
<svg xmlns="http://www.w3.org/2000/svg" version="1.1" viewBox="0 0 1024 1024"><g transform="scale(1, -1) translate(0, -900)"><path d="M 612 451 Q 625 451 640 448 Q 652 447 661 451 Q 668 455 664 464 Q 657 477 642 484 Q 635 491 624 491 L 584 488 Q 556 488 509 480 L 481 477 Q 435 470 378 457 Q 369 456 372 466 Q 379 487 387 510 L 394 537 Q 403 580 404 582 C 407 596 407 596 392 607 Q 385 614 372 620 Q 359 626 355 619 Q 352 613 357 606 Q 369 588 363 533 L 356 506 Q 346 479 321 453 Q 309 443 311 432 Q 315 422 327 410 Q 339 400 353 413 Q 401 453 561 454 Q 567 454 574 453 L 612 451 Z" fill="black" /></g></svg>