<?xml version='1.0' encoding='utf-8'?>
<svg xmlns="http://www.w3.org/2000/svg" version="1.1" viewBox="0 0 1024 1024"><g transform="scale(1, -1) translate(0, -900)"><path d="M 459 759 Q 452 766 432 776 Q 419 783 413 779 Q 409 775 413 764 Q 443 704 414 496 Q 410 481 401 465 Q 394 455 402 441 Q 408 428 415 421 Q 422 417 433 425 Q 475 465 612 488 Q 628 489 628 498 Q 627 508 605 518 Q 589 528 550 509 L 520 499 Q 517 500 516 499 Q 491 493 460 481 Q 456 480 453 480 Q 450 481 450 489 Q 451 511 452 536 L 453 561 Q 454 595 456 629 L 457 647 L 459 701 Q 459 723 462 737 C 464 755 464 755 459 759 Z" fill="black" /></g></svg>