<?xml version='1.0' encoding='utf-8'?>
<svg xmlns="http://www.w3.org/2000/svg" version="1.1" viewBox="0 0 1024 1024"><g transform="scale(1, -1) translate(0, -900)"><path d="M 516 422 Q 509 429 493 435 Q 487 438 479 435 Q 475 432 479 424 Q 480 420 482 415 Q 481 414 484 410 Q 500 373 486 254 Q 485 250 484 243 Q 477 207 498 180 Q 498 179 499 178 C 506 168 506 168 513 182 Q 516 188 518 192 L 521 219 L 521 267 L 521 287 Q 521 317 522 337 L 522 354 Q 522 390 524 397 C 526 414 526 414 516 422 Z" fill="black" /></g></svg>