<?xml version='1.0' encoding='utf-8'?>
<svg xmlns="http://www.w3.org/2000/svg" version="1.1" viewBox="0 0 1024 1024"><g transform="scale(1, -1) translate(0, -900)"><path d="M 701 81 Q 685 80 609 114 Q 599 118 599 112 Q 598 108 609 97 Q 657 45 677 8 Q 689 -16 703 -15 Q 725 -16 744 6 Q 819 72 837 246 Q 847 342 854 475 Q 854 511 876 538 Q 889 553 887 561 Q 886 568 865 582 Q 837 601 800 611 Q 775 618 711 592 Q 702 591 695 587 Q 622 563 550 546 C 521 539 505 525 535 525 Q 596 525 605 527 Q 606 528 610 528 Q 772 564 777 556 Q 798 517 780 275 Q 767 181 737 118 Q 721 84 701 81 Z" fill="black" /></g></svg>