<?xml version='1.0' encoding='utf-8'?>
<svg xmlns="http://www.w3.org/2000/svg" version="1.1" viewBox="0 0 1024 1024"><g transform="scale(1, -1) translate(0, -900)"><path d="M 308 514 Q 256 514 213 514 Q 179 514 197 535 Q 266 650 332 737 Q 347 753 344 761 Q 341 776 303 807 Q 287 820 268 817 Q 258 814 263 799 Q 270 781 265 755 Q 252 706 191 596 Q 172 559 132 523 Q 113 510 115 497 Q 119 478 133 461 Q 143 449 156 457 Q 181 470 271 486 Q 278 487 287 487 C 317 489 338 514 308 514 Z" fill="black" /></g></svg>