<?xml version='1.0' encoding='utf-8'?>
<svg xmlns="http://www.w3.org/2000/svg" version="1.1" viewBox="0 0 1024 1024"><g transform="scale(1, -1) translate(0, -900)"><path d="M 649 352 Q 722 367 809 373 Q 827 374 835 366 Q 842 360 840 347 Q 815 206 802 188 Q 795 175 781 181 Q 747 191 708 202 Q 680 206 699 187 Q 768 127 795 86 Q 802 71 815 79 Q 843 97 865 177 Q 892 312 914 335 Q 930 356 924 364 Q 915 377 864 411 Q 845 427 830 420 Q 800 410 746 401 Q 691 394 649 386 L 598 377 Q 537 368 505 358 Q 454 345 417 340 Q 395 337 390 327 Q 389 320 406 311 Q 439 290 471 303 Q 514 322 597 342 L 649 352 Z" fill="black" /></g></svg>