<?xml version='1.0' encoding='utf-8'?>
<svg xmlns="http://www.w3.org/2000/svg" version="1.1" viewBox="0 0 1024 1024"><g transform="scale(1, -1) translate(0, -900)"><path d="M 315 463 Q 210 313 189 302 Q 176 292 178 278 Q 179 265 207 244 Q 219 232 234 245 Q 306 293 413 327 Q 432 331 435 341 Q 438 351 417 348 Q 356 338 281 317 Q 247 304 268 332 Q 310 395 407 522 Q 435 561 460 584 Q 473 594 466 605 Q 454 624 419 642 Q 403 651 393 648 Q 383 644 385 628 Q 391 589 333 490 L 315 463 Z" fill="black" /></g></svg>