<?xml version='1.0' encoding='utf-8'?>
<svg xmlns="http://www.w3.org/2000/svg" version="1.1" viewBox="0 0 1024 1024"><g transform="scale(1, -1) translate(0, -900)"><path d="M 326 462 Q 218 318 199 309 Q 186 300 189 286 Q 190 273 216 254 Q 226 242 241 255 Q 308 300 418 336 Q 437 340 439 349 Q 442 359 422 356 Q 361 346 286 323 Q 258 313 276 337 Q 319 401 426 531 Q 454 568 478 589 Q 490 599 484 609 Q 474 628 440 646 Q 424 655 415 653 Q 405 649 408 634 Q 411 591 345 488 Q 344 488 344 487 L 326 462 Z" fill="black" /></g></svg>