<?xml version='1.0' encoding='utf-8'?>
<svg xmlns="http://www.w3.org/2000/svg" version="1.1" viewBox="0 0 1024 1024"><g transform="scale(1, -1) translate(0, -900)"><path d="M 324 471 Q 216 330 199 322 Q 186 312 189 298 Q 190 285 217 265 Q 229 253 244 266 Q 307 315 410 354 Q 429 360 431 369 Q 434 379 413 375 Q 356 362 287 340 Q 263 330 278 351 Q 318 408 416 523 Q 444 562 470 583 Q 483 593 477 604 Q 467 623 432 643 Q 416 653 406 650 Q 396 646 397 630 Q 400 587 341 496 L 324 471 Z" fill="black" /></g></svg>