<?xml version='1.0' encoding='utf-8'?>
<svg xmlns="http://www.w3.org/2000/svg" version="1.1" viewBox="0 0 1024 1024"><g transform="scale(1, -1) translate(0, -900)"><path d="M 310 468 Q 220 350 196 338 Q 183 329 185 315 Q 186 302 211 282 Q 221 270 236 282 Q 296 324 389 352 Q 408 356 411 365 Q 414 375 394 372 Q 345 365 283 350 Q 253 340 273 363 Q 310 414 399 516 Q 427 553 453 573 Q 465 583 459 593 Q 449 612 417 631 Q 401 640 392 638 Q 382 634 384 619 Q 387 580 329 494 L 310 468 Z" fill="black" /></g></svg>