<?xml version='1.0' encoding='utf-8'?>
<svg xmlns="http://www.w3.org/2000/svg" version="1.1" viewBox="0 0 1024 1024"><g transform="scale(1, -1) translate(0, -900)"><path d="M 304 498 Q 256 499 216 499 Q 180 499 199 520 Q 269 632 336 714 Q 351 732 348 740 Q 347 755 306 788 Q 290 801 271 799 Q 259 796 265 780 Q 272 762 266 735 Q 253 686 191 579 Q 172 543 132 509 Q 113 494 114 482 Q 118 463 132 444 Q 142 432 156 439 Q 184 454 276 469 Q 280 470 284 469 C 314 472 334 497 304 498 Z" fill="black" /></g></svg>