<?xml version='1.0' encoding='utf-8'?>
<svg xmlns="http://www.w3.org/2000/svg" version="1.1" viewBox="0 0 1024 1024"><g transform="scale(1, -1) translate(0, -900)"><path d="M 292 463 Q 201 346 184 337 Q 171 328 174 315 Q 175 302 201 283 Q 211 271 226 283 Q 283 325 390 363 Q 409 369 411 377 Q 414 387 394 383 Q 339 373 269 352 Q 244 343 260 364 Q 300 419 392 528 Q 420 565 445 585 Q 458 595 451 605 Q 441 624 409 643 Q 393 652 384 649 Q 374 646 376 631 Q 377 592 312 490 L 292 463 Z" fill="black" /></g></svg>