<?xml version='1.0' encoding='utf-8'?>
<svg xmlns="http://www.w3.org/2000/svg" version="1.1" viewBox="0 0 1024 1024"><g transform="scale(1, -1) translate(0, -900)"><path d="M 306 500 Q 241 501 217 501 Q 180 501 200 521 Q 268 631 337 716 Q 352 734 349 746 Q 345 760 308 791 Q 292 804 272 802 Q 264 800 265 788 L 269 762 Q 270 751 267 737 Q 254 688 192 581 Q 172 545 132 511 Q 113 496 115 480 Q 117 466 132 445 Q 143 434 157 441 Q 181 454 251 466 Q 278 472 285 470 C 315 471 336 500 306 500 Z" fill="black" /></g></svg>