<?xml version='1.0' encoding='utf-8'?>
<svg xmlns="http://www.w3.org/2000/svg" version="1.1" viewBox="0 0 1024 1024"><g transform="scale(1, -1) translate(0, -900)"><path d="M 615 288 Q 678 312 712 314 C 742 317 748 355 719 348 Q 664 336 616 322 L 565 306 Q 523 294 490 279 Q 477 275 479 292 Q 483 323 486 355 Q 490 376 480 388 Q 450 421 427 417 Q 418 413 425 397 Q 444 357 438 315 Q 434 276 418 259 Q 403 243 410 231 Q 420 218 436 210 Q 449 204 457 212 Q 472 234 564 268 L 615 288 Z" fill="black" /></g></svg>