<?xml version='1.0' encoding='utf-8'?>
<svg xmlns="http://www.w3.org/2000/svg" version="1.1" viewBox="0 0 1024 1024"><g transform="scale(1, -1) translate(0, -900)"><path d="M 693 442 Q 693 443 694 446 Q 698 660 722 692 Q 729 714 711 726 Q 683 750 647 758 Q 628 762 620 753 Q 613 744 620 735 Q 641 714 645 653 Q 645 163 686 104 Q 716 53 818 44 Q 920 35 951 75 Q 967 88 952 116 Q 936 165 933 229 Q 933 239 926 247 Q 917 254 912 231 Q 882 140 870 124 Q 867 114 851 110 Q 788 92 746 119 Q 709 137 703 197 Q 693 299 693 418 L 693 442 Z" fill="black" /></g></svg>