<?xml version='1.0' encoding='utf-8'?>
<svg xmlns="http://www.w3.org/2000/svg" version="1.1" viewBox="0 0 1024 1024"><g transform="scale(1, -1) translate(0, -900)"><path d="M 294 475 Q 206 361 191 353 Q 178 344 181 330 Q 182 317 208 298 Q 218 286 234 299 Q 297 344 386 375 Q 405 381 407 389 Q 410 399 390 395 Q 339 386 277 368 Q 250 358 267 381 Q 303 430 386 531 Q 414 568 438 589 Q 450 599 444 609 Q 434 628 400 646 Q 384 655 375 652 Q 365 649 368 634 Q 371 592 315 504 Q 314 504 313 502 L 294 475 Z" fill="black" /></g></svg>