<?xml version='1.0' encoding='utf-8'?>
<svg xmlns="http://www.w3.org/2000/svg" version="1.1" viewBox="0 0 1024 1024"><g transform="scale(1, -1) translate(0, -900)"><path d="M 276 463 Q 183 340 169 333 Q 156 323 159 310 Q 160 297 187 279 Q 197 267 212 280 Q 275 331 371 370 Q 390 377 391 385 Q 392 395 374 390 Q 319 377 251 352 Q 232 343 243 361 Q 283 419 378 535 Q 406 572 430 593 Q 442 603 436 613 Q 426 632 392 650 Q 376 659 367 656 Q 357 653 360 638 Q 363 595 302 500 Q 298 496 295 490 L 276 463 Z" fill="black" /></g></svg>