<?xml version='1.0' encoding='utf-8'?>
<svg xmlns="http://www.w3.org/2000/svg" version="1.1" viewBox="0 0 1024 1024"><g transform="scale(1, -1) translate(0, -900)"><path d="M 284 434 Q 176 284 152 273 Q 139 263 142 250 Q 143 237 170 219 Q 180 207 195 220 Q 264 271 359 307 Q 378 313 379 321 Q 382 331 362 327 Q 305 314 236 290 Q 214 281 228 301 Q 270 361 370 483 Q 397 520 422 541 Q 434 551 428 561 Q 418 580 385 598 Q 369 608 359 605 Q 349 601 352 586 Q 355 549 300 458 L 284 434 Z" fill="black" /></g></svg>