<?xml version='1.0' encoding='utf-8'?>
<svg xmlns="http://www.w3.org/2000/svg" version="1.1" viewBox="0 0 1024 1024"><g transform="scale(1, -1) translate(0, -900)"><path d="M 273 425 Q 182 295 157 282 Q 144 272 146 258 Q 147 245 175 225 Q 187 212 202 225 Q 265 268 357 299 Q 376 303 379 313 Q 382 323 361 320 Q 312 313 249 296 Q 215 284 237 312 Q 271 361 354 462 Q 382 502 407 524 Q 420 534 413 545 Q 403 564 367 583 Q 351 592 341 589 Q 331 585 333 569 Q 337 536 291 454 L 273 425 Z" fill="black" /></g></svg>