<?xml version='1.0' encoding='utf-8'?>
<svg xmlns="http://www.w3.org/2000/svg" version="1.1" viewBox="0 0 1024 1024"><g transform="scale(1, -1) translate(0, -900)"><path d="M 971 82 Q 947 134 930 227 Q 927 242 921 248 Q 912 255 910 239 Q 900 184 889 142 Q 885 114 860 95 Q 833 70 720 72 Q 654 78 637 111 Q 615 159 615 288 L 616 322 Q 617 442 623 529 L 626 582 Q 630 688 644 738 Q 653 759 623 781 Q 598 797 578 809 Q 560 821 543 810 Q 531 804 552 776 Q 576 742 576 697 Q 577 654 576 562 L 575 514 Q 568 348 565 306 L 564 268 Q 561 117 614 53 Q 660 7 823 15 Q 896 19 950 44 Q 984 56 971 82 Z" fill="black" /></g></svg>