<?xml version='1.0' encoding='utf-8'?>
<svg xmlns="http://www.w3.org/2000/svg" version="1.1" viewBox="0 0 1024 1024"><g transform="scale(1, -1) translate(0, -900)"><path d="M 546 246 Q 550 292 561 343 Q 567 362 555 372 Q 542 385 518 395 Q 505 399 496 395 Q 489 391 494 373 Q 507 333 503 293 Q 490 131 503 86 Q 507 61 529 40 Q 616 -29 787 1 Q 796 4 807 5 Q 849 17 890 45 Q 909 61 896 88 Q 881 119 861 217 Q 860 233 853 238 Q 846 241 842 223 Q 817 120 799 87 Q 763 48 660 57 Q 620 58 588 73 Q 560 86 552 105 Q 537 136 543 222 L 546 246 Z" fill="black" /></g></svg>