<?xml version='1.0' encoding='utf-8'?>
<svg xmlns="http://www.w3.org/2000/svg" version="1.1" viewBox="0 0 1024 1024"><g transform="scale(1, -1) translate(0, -900)"><path d="M 584 356 Q 642 371 700 379 Q 713 380 716 373 Q 722 363 720 333 Q 716 224 696 166 Q 687 130 675 118 Q 663 106 638 114 Q 610 121 584 128 Q 560 135 577 114 Q 617 66 639 30 Q 648 9 667 14 Q 682 15 701 36 Q 755 91 780 293 Q 786 339 804 366 Q 822 388 812 397 Q 796 416 761 431 Q 736 444 708 432 Q 656 408 572 391 Q 500 376 458 375 Q 439 376 440 366 Q 439 357 460 344 Q 485 328 509 336 Q 522 340 536 344 L 584 356 Z" fill="black" /></g></svg>