<?xml version='1.0' encoding='utf-8'?>
<svg xmlns="http://www.w3.org/2000/svg" version="1.1" viewBox="0 0 1024 1024"><g transform="scale(1, -1) translate(0, -900)"><path d="M 502 435 Q 502 528 508 550 Q 512 563 503 575 Q 479 596 457 607 Q 439 614 430 608 Q 420 602 429 587 Q 472 491 445 252 Q 442 203 402 155 Q 390 140 397 118 Q 407 91 420 80 Q 433 73 445 89 Q 458 114 584 217 Q 603 229 608 238 Q 612 248 602 248 Q 593 248 503 206 Q 490 199 490 212 Q 499 315 501 403 L 502 435 Z" fill="black" /></g></svg>