<?xml version='1.0' encoding='utf-8'?>
<svg xmlns="http://www.w3.org/2000/svg" version="1.1" viewBox="0 0 1024 1024"><g transform="scale(1, -1) translate(0, -900)"><path d="M 304 458 Q 199 328 181 318 Q 168 309 170 295 Q 171 282 196 263 Q 206 250 221 263 Q 288 308 398 344 Q 417 348 419 357 Q 422 367 402 364 Q 341 354 266 331 Q 241 322 257 343 Q 302 403 406 524 Q 434 561 460 581 Q 473 591 467 600 Q 457 619 425 639 Q 409 649 400 646 Q 390 643 392 627 Q 395 588 326 485 L 304 458 Z" fill="black" /></g></svg>