<?xml version='1.0' encoding='utf-8'?>
<svg xmlns="http://www.w3.org/2000/svg" version="1.1" viewBox="0 0 1024 1024"><g transform="scale(1, -1) translate(0, -900)"><path d="M 292 432 Q 192 294 174 286 Q 159 276 163 262 Q 164 249 192 229 Q 202 216 218 229 Q 275 271 373 307 Q 392 311 395 321 Q 398 331 377 328 Q 326 319 264 301 Q 233 289 253 316 Q 290 370 378 478 Q 406 518 431 540 Q 444 550 437 561 Q 427 580 391 599 Q 375 608 365 605 Q 355 601 357 585 Q 361 548 309 458 L 292 432 Z" fill="black" /></g></svg>