<?xml version='1.0' encoding='utf-8'?>
<svg xmlns="http://www.w3.org/2000/svg" version="1.1" viewBox="0 0 1024 1024"><g transform="scale(1, -1) translate(0, -900)"><path d="M 624 420 Q 624 411 625 400 Q 626 333 624 285 Q 625 260 633 242 Q 639 232 646 238 Q 652 242 655 259 Q 655 262 656 264 L 661 297 Q 662 310 662 324 Q 663 376 664 426 L 664 461 Q 665 485 665 507 Q 666 571 671 600 Q 678 618 667 627 Q 654 640 628 650 Q 609 657 588 648 Q 578 641 591 627 Q 619 576 623 454 L 624 420 Z" fill="black" /></g></svg>