<?xml version='1.0' encoding='utf-8'?>
<svg xmlns="http://www.w3.org/2000/svg" version="1.1" viewBox="0 0 1024 1024"><g transform="scale(1, -1) translate(0, -900)"><path d="M 532 403 Q 574 413 624 420 L 664 426 Q 698 432 745 434 L 789 437 Q 834 441 888 442 Q 945 442 952 451 Q 956 463 941 475 Q 884 512 829 494 Q 811 491 793 486 L 747 476 Q 708 470 664 461 L 623 454 Q 577 448 531 440 L 485 433 Q 446 429 407 421 Q 388 418 402 403 Q 415 390 433 386 Q 439 386 486 391 L 532 403 Z" fill="black" /></g></svg>