<?xml version='1.0' encoding='utf-8'?>
<svg xmlns="http://www.w3.org/2000/svg" version="1.1" viewBox="0 0 1024 1024"><g transform="scale(1, -1) translate(0, -900)"><path d="M 679 102 Q 715 48 720 21 Q 726 -12 739 -17 Q 752 -18 772 15 Q 796 58 802 134 Q 790 296 789 456 L 789 506 Q 789 668 807 729 Q 823 760 768 781 Q 734 800 715 792 Q 697 786 714 763 Q 736 736 737 702 Q 738 683 738 497 L 737 453 Q 736 330 735 144 Q 734 122 722 114 Q 718 113 710 116 Q 709 117 706 117 C 676 112 673 112 679 102 Z" fill="black" /></g></svg>