<?xml version='1.0' encoding='utf-8'?>
<svg xmlns="http://www.w3.org/2000/svg" version="1.1" viewBox="0 0 1024 1024"><g transform="scale(1, -1) translate(0, -900)"><path d="M 290 442 Q 184 304 164 294 Q 149 285 153 271 Q 154 258 181 237 Q 191 225 207 238 Q 276 287 377 322 Q 396 328 399 337 Q 402 347 381 343 Q 323 333 252 310 Q 228 301 243 321 Q 280 372 369 472 Q 400 509 426 531 Q 439 541 432 551 Q 422 572 388 591 Q 372 601 362 599 Q 352 595 354 579 Q 355 549 310 470 L 290 442 Z" fill="black" /></g></svg>