<?xml version='1.0' encoding='utf-8'?>
<svg xmlns="http://www.w3.org/2000/svg" version="1.1" viewBox="0 0 1024 1024"><g transform="scale(1, -1) translate(0, -900)"><path d="M 307 467 Q 199 329 174 316 Q 158 306 162 291 Q 163 278 190 256 Q 202 243 218 255 Q 290 303 403 335 Q 424 339 427 349 Q 430 359 409 356 Q 345 347 269 328 Q 236 318 258 343 Q 298 398 396 507 Q 427 547 454 569 Q 467 579 461 590 Q 451 611 415 632 Q 399 642 388 640 Q 378 636 379 620 Q 380 584 326 494 L 307 467 Z" fill="black" /></g></svg>