<?xml version='1.0' encoding='utf-8'?>
<svg xmlns="http://www.w3.org/2000/svg" version="1.1" viewBox="0 0 1024 1024"><g transform="scale(1, -1) translate(0, -900)"><path d="M 486 391 Q 489 195 467 151 Q 434 109 475 74 L 476 73 Q 486 66 502 78 Q 554 114 632 130 Q 723 148 897 148 Q 922 147 923 160 Q 922 175 892 196 Q 874 211 762 188 Q 639 178 558 161 Q 545 157 540 162 Q 536 163 534 175 Q 534 278 532 403 L 531 440 Q 527 509 532 548 Q 536 560 525 573 Q 515 580 488 594 Q 469 604 461 597 Q 454 590 462 576 Q 477 548 485 433 L 486 391 Z" fill="black" /></g></svg>