<?xml version='1.0' encoding='utf-8'?>
<svg xmlns="http://www.w3.org/2000/svg" version="1.1" viewBox="0 0 1024 1024"><g transform="scale(1, -1) translate(0, -900)"><path d="M 317 477 Q 212 338 188 326 Q 175 316 177 303 Q 178 290 204 271 Q 214 258 230 271 Q 299 320 398 351 Q 417 357 419 365 Q 422 375 402 371 Q 344 361 274 340 Q 249 330 264 352 Q 304 407 400 520 Q 428 557 453 577 Q 466 587 459 597 Q 449 616 417 635 Q 401 644 392 641 Q 382 638 384 623 Q 387 587 334 501 L 317 477 Z" fill="black" /></g></svg>