<?xml version='1.0' encoding='utf-8'?>
<svg xmlns="http://www.w3.org/2000/svg" version="1.1" viewBox="0 0 1024 1024"><g transform="scale(1, -1) translate(0, -900)"><path d="M 773 320 Q 792 293 809 285 Q 819 278 835 300 Q 851 330 880 491 Q 889 524 912 551 Q 925 564 913 579 Q 897 595 850 622 Q 834 631 742 609 Q 736 609 694 600 L 645 590 Q 626 589 606 583 Q 546 570 500 561 C 471 555 497 518 525 527 Q 543 536 645 554 L 693 562 Q 727 569 768 574 Q 802 580 812 568 Q 828 552 825 533 Q 801 368 784 350 C 771 323 771 323 773 320 Z" fill="black" /></g></svg>