<?xml version='1.0' encoding='utf-8'?>
<svg xmlns="http://www.w3.org/2000/svg" version="1.1" viewBox="0 0 1024 1024"><g transform="scale(1, -1) translate(0, -900)"><path d="M 775 189 Q 787 164 811 116 Q 821 98 831 100 Q 847 104 856 130 Q 890 203 892 303 Q 898 364 902 436 Q 906 485 929 516 Q 945 535 933 549 Q 911 571 863 591 Q 844 601 811 589 Q 685 544 490 526 C 460 523 492 481 521 489 Q 531 495 632 510 L 675 518 Q 727 528 791 538 Q 819 544 831 530 Q 862 476 822 236 Q 821 214 811 211 L 809 211 C 794 185 766 208 775 189 Z" fill="black" /></g></svg>