<?xml version='1.0' encoding='utf-8'?>
<svg xmlns="http://www.w3.org/2000/svg" version="1.1" viewBox="0 0 1024 1024"><g transform="scale(1, -1) translate(0, -900)"><path d="M 644 303 Q 638 -42 656 -73 Q 671 -88 679 -67 Q 700 -21 694 309 L 693 348 Q 693 397 693 439 L 693 478 Q 693 524 693 562 L 694 600 Q 695 675 699 721 Q 700 757 719 787 Q 726 803 706 817 Q 682 836 641 847 Q 622 851 610 838 Q 600 831 612 818 Q 643 793 645 754 Q 645 691 645 590 L 645 554 Q 645 514 645 465 L 645 431 Q 645 385 644 337 L 644 303 Z" fill="black" /></g></svg>