<?xml version='1.0' encoding='utf-8'?>
<svg xmlns="http://www.w3.org/2000/svg" version="1.1" viewBox="0 0 1024 1024"><g transform="scale(1, -1) translate(0, -900)"><path d="M 791 542 Q 816 603 845 623 Q 861 641 848 657 Q 832 670 784 694 Q 765 703 694 672 L 650 659 Q 635 659 594 646 L 544 635 Q 510 632 476 627 Q 460 626 462 616 Q 465 609 482 603 Q 506 593 539 605 Q 540 606 546 606 L 591 615 Q 619 622 649 628 L 693 638 Q 708 642 725 645 Q 749 652 759 642 Q 766 635 763 620 Q 754 580 744 547 C 736 518 779 514 791 542 Z" fill="black" /></g></svg>