<?xml version='1.0' encoding='utf-8'?>
<svg xmlns="http://www.w3.org/2000/svg" version="1.1" viewBox="0 0 1024 1024"><g transform="scale(1, -1) translate(0, -900)"><path d="M 692 379 Q 801 400 828 395 Q 840 395 846 384 Q 852 372 825 264 Q 824 254 814 255 Q 786 265 751 279 Q 727 289 742 265 Q 791 213 801 187 Q 807 174 820 175 Q 832 174 847 185 Q 869 213 885 283 Q 897 341 919 367 Q 935 385 923 396 Q 901 417 867 435 Q 855 444 788 426 Q 710 414 692 408 L 645 400 Q 609 396 581 388 L 540 379 Q 527 378 516 373 Q 489 369 476 369 Q 470 370 472 384 Q 481 445 491 462 Q 491 463 492 464 C 500 485 500 485 484 495 Q 471 505 453 514 Q 443 521 434 514 Q 427 508 435 493 Q 445 471 438 439 Q 425 382 410 361 Q 400 348 409 333 Q 418 311 430 304 Q 439 300 459 315 Q 481 334 536 350 L 578 360 Q 605 366 645 372 L 692 379 Z" fill="black" /></g></svg>