<?xml version='1.0' encoding='utf-8'?>
<svg xmlns="http://www.w3.org/2000/svg" version="1.1" viewBox="0 0 1024 1024"><g transform="scale(1, -1) translate(0, -900)"><path d="M 547 389 Q 551 405 559 423 Q 569 459 579 495 L 590 540 Q 597 583 606 624 Q 616 703 629 740 Q 639 753 632 767 Q 617 785 587 800 Q 569 812 556 808 Q 544 802 550 788 Q 568 760 562 698 Q 543 560 536 529 L 525 482 Q 525 419 434 249 Q 379 159 324 86 Q 320 79 317 74 Q 313 64 324 65 Q 360 71 451 193 Q 487 250 512 305 L 522 327 Q 529 343 537 361 L 547 389 Z" fill="black" /></g></svg>