<?xml version='1.0' encoding='utf-8'?>
<svg xmlns="http://www.w3.org/2000/svg" version="1.1" viewBox="0 0 1024 1024"><g transform="scale(1, -1) translate(0, -900)"><path d="M 293 458 Q 194 332 176 322 Q 163 313 165 299 Q 166 286 192 266 Q 202 254 217 266 Q 280 311 386 344 Q 405 348 407 357 Q 410 367 390 364 Q 332 354 262 335 Q 234 325 252 348 Q 291 400 380 504 Q 408 541 433 561 Q 446 571 439 581 Q 429 600 397 619 Q 381 628 372 625 Q 362 622 364 607 Q 367 571 311 482 L 293 458 Z" fill="black" /></g></svg>