<?xml version='1.0' encoding='utf-8'?>
<svg xmlns="http://www.w3.org/2000/svg" version="1.1" viewBox="0 0 1024 1024"><g transform="scale(1, -1) translate(0, -900)"><path d="M 301 479 Q 192 328 172 317 Q 159 307 162 294 Q 165 281 191 263 Q 201 251 216 264 Q 270 309 367 350 Q 386 357 387 365 Q 388 375 370 370 Q 318 358 255 336 Q 234 326 247 345 Q 289 406 387 531 Q 414 568 438 590 Q 451 600 444 609 Q 434 628 400 646 Q 384 655 375 652 Q 365 648 368 633 Q 371 596 319 506 L 301 479 Z" fill="black" /></g></svg>