<?xml version='1.0' encoding='utf-8'?>
<svg xmlns="http://www.w3.org/2000/svg" version="1.1" viewBox="0 0 1024 1024"><g transform="scale(1, -1) translate(0, -900)"><path d="M 320 440 Q 215 305 188 291 Q 175 281 177 267 Q 178 254 204 233 Q 214 221 230 233 Q 296 279 409 319 Q 428 323 431 333 Q 434 343 413 339 Q 352 329 276 306 Q 252 297 268 317 Q 308 369 404 476 Q 435 513 461 535 Q 474 545 468 555 Q 458 574 424 596 Q 408 606 398 603 Q 388 600 390 584 Q 391 550 338 465 L 320 440 Z" fill="black" /></g></svg>