<?xml version='1.0' encoding='utf-8'?>
<svg xmlns="http://www.w3.org/2000/svg" version="1.1" viewBox="0 0 1024 1024"><g transform="scale(1, -1) translate(0, -900)"><path d="M 686 405 Q 767 429 805 421 L 806 420 C 836 415 840 460 810 457 Q 746 450 687 439 L 640 430 Q 582 420 532 404 Q 516 401 521 420 Q 525 447 531 475 Q 537 496 528 510 Q 515 526 494 541 Q 484 547 475 545 Q 465 542 471 524 Q 486 484 477 444 Q 470 407 453 390 Q 437 375 442 362 Q 452 347 467 337 Q 480 330 489 337 Q 513 362 640 393 L 686 405 Z" fill="black" /></g></svg>