<?xml version='1.0' encoding='utf-8'?>
<svg xmlns="http://www.w3.org/2000/svg" version="1.1" viewBox="0 0 1024 1024"><g transform="scale(1, -1) translate(0, -900)"><path d="M 304 472 Q 208 340 184 329 Q 171 320 173 307 Q 174 294 200 274 Q 210 262 225 275 Q 288 318 398 356 Q 417 360 419 369 Q 422 379 402 375 Q 342 365 270 344 Q 243 334 260 356 Q 300 413 397 527 Q 425 564 449 585 Q 462 595 456 605 Q 446 624 413 642 Q 397 652 388 649 Q 378 646 380 630 Q 383 590 323 498 L 304 472 Z" fill="black" /></g></svg>