<?xml version='1.0' encoding='utf-8'?>
<svg xmlns="http://www.w3.org/2000/svg" version="1.1" viewBox="0 0 1024 1024"><g transform="scale(1, -1) translate(0, -900)"><path d="M 669 498 Q 747 402 851 379 Q 852 380 855 379 Q 877 383 870 410 Q 863 437 867 561 Q 867 571 862 573 Q 858 573 855 563 Q 842 533 831 505 Q 816 466 802 467 Q 769 467 709 523 L 679 554 Q 679 555 679 556 Q 651 587 625 627 L 605 664 Q 568 736 577 791 Q 580 809 544 824 Q 508 840 499 835 Q 489 829 494 815 Q 516 794 529 754 Q 547 694 571 645 L 589 609 Q 613 569 644 528 L 669 498 Z" fill="black" /></g></svg>