<?xml version='1.0' encoding='utf-8'?>
<svg xmlns="http://www.w3.org/2000/svg" version="1.1" viewBox="0 0 1024 1024"><g transform="scale(1, -1) translate(0, -900)"><path d="M 641 637 Q 708 655 767 662 Q 786 663 789 658 Q 799 643 792 605 Q 779 499 752 452 Q 734 421 707 426 Q 685 430 667 437 Q 642 444 660 422 Q 697 383 715 354 Q 734 333 752 350 Q 810 389 836 520 Q 851 632 871 657 Q 884 670 878 681 Q 868 691 818 715 Q 797 725 778 711 Q 756 699 675 681 Q 593 662 522 658 Q 504 657 502 648 Q 501 641 524 628 Q 549 612 569 619 Q 584 623 601 627 L 641 637 Z" fill="black" /></g></svg>