<?xml version='1.0' encoding='utf-8'?>
<svg xmlns="http://www.w3.org/2000/svg" version="1.1" viewBox="0 0 1024 1024"><g transform="scale(1, -1) translate(0, -900)"><path d="M 295 468 Q 199 342 174 329 Q 161 320 164 307 Q 165 294 189 276 Q 199 266 213 277 Q 271 320 359 352 Q 377 356 379 365 Q 382 375 363 371 Q 314 361 254 343 Q 233 336 247 353 Q 286 405 376 509 Q 404 543 428 563 Q 440 572 434 581 Q 424 600 394 618 Q 379 628 370 625 Q 360 622 362 607 Q 365 574 309 488 L 295 468 Z" fill="black" /></g></svg>