<?xml version='1.0' encoding='utf-8'?>
<svg xmlns="http://www.w3.org/2000/svg" version="1.1" viewBox="0 0 1024 1024"><g transform="scale(1, -1) translate(0, -900)"><path d="M 720 218 Q 768 98 861 17 Q 919 -32 949 -31 Q 968 -27 962 1 Q 956 50 960 195 Q 959 217 951 218 Q 944 218 938 197 Q 925 157 913 123 Q 901 89 889 88 Q 876 87 851 109 Q 797 164 757 242 Q 754 248 751 253 L 731 304 Q 718 340 678 514 L 671 559 Q 652 680 665 765 Q 678 804 624 825 Q 590 840 571 833 Q 552 826 561 807 Q 604 767 605 735 Q 617 630 631 545 L 638 503 Q 662 368 702 263 L 720 218 Z" fill="black" /></g></svg>