<?xml version='1.0' encoding='utf-8'?>
<svg xmlns="http://www.w3.org/2000/svg" version="1.1" viewBox="0 0 1024 1024"><g transform="scale(1, -1) translate(0, -900)"><path d="M 923 144 Q 907 172 885 259 Q 884 274 877 278 Q 871 281 868 264 Q 850 170 835 139 Q 819 115 767 102 Q 713 87 646 91 Q 589 94 543 114 Q 503 135 490 161 Q 469 200 473 301 L 475 326 Q 478 374 486 426 Q 486 430 486 433 C 488 453 488 453 466 463 Q 456 470 442 474 Q 429 478 421 473 Q 414 469 420 452 Q 433 413 432 376 Q 426 192 443 140 Q 450 109 479 83 Q 584 2 788 41 Q 803 45 820 49 Q 871 65 919 102 Q 938 118 923 144 Z" fill="black" /></g></svg>