<?xml version='1.0' encoding='utf-8'?>
<svg xmlns="http://www.w3.org/2000/svg" version="1.1" viewBox="0 0 1024 1024"><g transform="scale(1, -1) translate(0, -900)"><path d="M 327 479 Q 326 483 309 481 Q 263 481 223 481 Q 189 480 206 501 Q 279 624 349 715 Q 364 733 361 740 Q 358 755 318 787 Q 302 802 282 798 Q 270 794 277 779 Q 299 722 182 534 Q 164 512 139 489 Q 120 473 122 461 Q 126 442 141 423 Q 151 413 165 419 Q 187 432 265 451 Q 298 455 315 463 C 343 473 351 476 327 479 Z" fill="black" /></g></svg>