<?xml version='1.0' encoding='utf-8'?>
<svg xmlns="http://www.w3.org/2000/svg" version="1.1" viewBox="0 0 1024 1024"><g transform="scale(1, -1) translate(0, -900)"><path d="M 735 69 Q 723 66 661 90 Q 651 94 651 88 Q 650 84 661 73 Q 701 27 718 -7 Q 728 -28 740 -27 Q 764 -28 783 -3 Q 858 63 873 228 Q 883 339 884 507 Q 883 546 905 576 Q 918 589 917 599 Q 916 606 895 620 Q 867 641 830 651 Q 802 658 784 649 Q 765 642 719 630 Q 655 614 610 606 Q 586 602 567 598 C 538 592 520 575 550 574 Q 577 568 730 591 Q 791 603 804 592 Q 828 549 817 303 Q 810 185 774 110 Q 758 71 735 69 Z" fill="black" /></g></svg>