<?xml version='1.0' encoding='utf-8'?>
<svg xmlns="http://www.w3.org/2000/svg" version="1.1" viewBox="0 0 1024 1024"><g transform="scale(1, -1) translate(0, -900)"><path d="M 666 184 Q 732 190 815 189 Q 837 188 844 200 Q 851 209 831 220 Q 773 262 719 239 Q 674 232 667 228 L 615 218 Q 564 208 518 195 Q 484 182 493 214 Q 500 265 509 285 Q 516 295 510 305 Q 503 315 467 326 Q 449 333 440 326 Q 431 316 442 304 Q 458 280 452 221 Q 451 202 428 178 Q 421 168 423 155 Q 426 145 443 133 Q 456 126 468 138 Q 513 163 614 177 L 666 184 Z" fill="black" /></g></svg>