<?xml version='1.0' encoding='utf-8'?>
<svg xmlns="http://www.w3.org/2000/svg" version="1.1" viewBox="0 0 1024 1024"><g transform="scale(1, -1) translate(0, -900)"><path d="M 659 572 Q 764 707 780 718 Q 793 728 788 738 Q 787 747 729 768 Q 711 778 693 765 Q 675 755 649 745 Q 613 735 582 728 C 553 721 539 707 569 702 Q 588 695 617 701 Q 639 708 656 713 Q 674 717 680 711 Q 684 698 621 601 L 601 573 Q 582 551 562 525 Q 504 459 393 369 Q 380 359 394 357 Q 484 372 634 541 Q 634 542 635 543 L 659 572 Z" fill="black" /></g></svg>