<?xml version='1.0' encoding='utf-8'?>
<svg xmlns="http://www.w3.org/2000/svg" version="1.1" viewBox="0 0 1024 1024"><g transform="scale(1, -1) translate(0, -900)"><path d="M 315 505 Q 314 506 306 505 Q 261 506 225 507 Q 188 506 208 529 Q 272 644 334 729 Q 347 747 345 754 Q 342 769 302 798 Q 286 811 267 807 Q 257 804 263 789 Q 281 750 199 587 Q 181 550 143 515 Q 125 500 127 488 Q 131 470 145 452 Q 155 442 168 449 Q 190 461 263 477 Q 285 480 301 484 C 330 490 345 505 315 505 Z" fill="black" /></g></svg>