<?xml version='1.0' encoding='utf-8'?>
<svg xmlns="http://www.w3.org/2000/svg" version="1.1" viewBox="0 0 1024 1024"><g transform="scale(1, -1) translate(0, -900)"><path d="M 285 508 Q 197 385 172 373 Q 159 364 161 350 Q 162 337 189 319 Q 199 307 214 319 Q 272 364 362 395 Q 381 401 383 409 Q 386 419 366 415 Q 317 406 257 389 Q 232 379 248 400 Q 284 451 369 551 Q 397 588 422 609 Q 434 619 428 629 Q 418 648 385 666 Q 369 676 360 673 Q 350 669 352 654 Q 355 618 302 533 L 285 508 Z" fill="black" /></g></svg>