<?xml version='1.0' encoding='utf-8'?>
<svg xmlns="http://www.w3.org/2000/svg" version="1.1" viewBox="0 0 1024 1024"><g transform="scale(1, -1) translate(0, -900)"><path d="M 315 463 Q 201 315 177 302 Q 164 292 166 279 Q 167 266 193 247 Q 203 235 218 247 Q 275 289 382 327 Q 401 333 403 341 Q 406 351 386 347 Q 331 337 261 316 Q 237 307 253 327 Q 296 385 395 500 Q 423 537 449 557 Q 461 567 455 576 Q 445 595 413 615 Q 397 624 388 622 Q 378 619 380 603 Q 381 572 327 479 L 315 463 Z" fill="black" /></g></svg>