<?xml version='1.0' encoding='utf-8'?>
<svg xmlns="http://www.w3.org/2000/svg" version="1.1" viewBox="0 0 1024 1024"><g transform="scale(1, -1) translate(0, -900)"><path d="M 279 466 Q 182 334 159 322 Q 146 312 148 298 Q 149 285 177 265 Q 187 253 203 266 Q 263 311 357 346 Q 376 352 379 361 Q 382 371 361 367 Q 310 357 248 339 Q 221 329 238 351 Q 278 406 372 519 Q 400 558 427 579 Q 439 589 433 600 Q 423 619 388 639 Q 372 649 361 646 Q 351 642 353 626 Q 356 581 295 489 L 279 466 Z" fill="black" /></g></svg>