<?xml version='1.0' encoding='utf-8'?>
<svg xmlns="http://www.w3.org/2000/svg" version="1.1" viewBox="0 0 1024 1024"><g transform="scale(1, -1) translate(0, -900)"><path d="M 667 434 Q 710 491 753 579 Q 769 607 793 626 Q 808 635 808 643 Q 807 656 778 672 Q 742 693 728 692 Q 716 691 706 683 Q 616 643 574 637 Q 570 637 566 636 C 536 631 520 618 549 612 Q 592 596 669 633 Q 690 640 699 634 Q 706 630 688 579 Q 670 525 628 465 L 609 439 Q 534 346 414 285 Q 405 281 406 276 Q 407 272 414 272 Q 535 279 643 404 L 667 434 Z" fill="black" /></g></svg>