<?xml version='1.0' encoding='utf-8'?>
<svg xmlns="http://www.w3.org/2000/svg" version="1.1" viewBox="0 0 1024 1024"><g transform="scale(1, -1) translate(0, -900)"><path d="M 285 475 Q 185 346 168 337 Q 155 328 158 315 Q 159 302 185 283 Q 195 271 210 283 Q 274 331 390 371 Q 409 377 411 385 Q 414 395 394 391 Q 330 378 253 353 Q 229 344 244 364 Q 286 422 384 540 Q 412 577 437 597 Q 450 607 443 617 Q 433 636 401 655 Q 385 664 376 661 Q 366 658 368 643 Q 371 601 306 502 Q 305 502 304 500 L 285 475 Z" fill="black" /></g></svg>