<?xml version='1.0' encoding='utf-8'?>
<svg xmlns="http://www.w3.org/2000/svg" version="1.1" viewBox="0 0 1024 1024"><g transform="scale(1, -1) translate(0, -900)"><path d="M 285 455 Q 180 314 156 301 Q 143 292 146 278 Q 147 265 173 247 Q 183 235 199 247 Q 250 290 347 327 Q 365 333 367 341 Q 370 351 350 347 Q 301 337 241 318 Q 219 309 232 328 Q 272 385 369 499 Q 397 536 421 557 Q 434 567 428 577 Q 418 596 385 614 Q 369 624 360 621 Q 350 618 352 602 Q 355 563 300 478 L 285 455 Z" fill="black" /></g></svg>