<?xml version='1.0' encoding='utf-8'?>
<svg xmlns="http://www.w3.org/2000/svg" version="1.1" viewBox="0 0 1024 1024"><g transform="scale(1, -1) translate(0, -900)"><path d="M 513 650 Q 517 662 506 675 Q 496 685 467 699 Q 448 709 439 703 Q 432 696 440 681 Q 458 647 459 586 Q 466 357 448 146 Q 445 106 421 70 Q 411 54 420 34 Q 429 12 439 3 Q 449 -4 466 7 Q 524 47 614 66 Q 716 85 912 86 Q 939 86 939 99 Q 939 115 908 136 Q 890 151 774 128 Q 567 103 526 93 Q 493 84 499 140 Q 505 329 507 564 Q 507 616 513 650 Z" fill="black" /></g></svg>