<?xml version='1.0' encoding='utf-8'?>
<svg xmlns="http://www.w3.org/2000/svg" version="1.1" viewBox="0 0 1024 1024"><g transform="scale(1, -1) translate(0, -900)"><path d="M 633 159 Q 651 207 661 329 L 663 367 Q 664 403 665 439 L 663 479 Q 663 516 663 546 Q 662 549 662 551 L 663 583 Q 664 620 675 660 Q 679 670 671 678 Q 661 685 647 692 C 621 707 565 701 584 678 Q 609 654 612 627 Q 613 600 614 573 L 616 541 Q 617 504 618 468 L 618 432 Q 617 393 615 357 L 613 324 Q 609 240 591 194 L 572 159 Q 529 96 382 32 Q 369 28 366 25 Q 362 21 376 17 Q 392 16 448 30 Q 488 40 545 69 Q 587 91 610 119 L 633 159 Z" fill="black" /></g></svg>