<?xml version='1.0' encoding='utf-8'?>
<svg xmlns="http://www.w3.org/2000/svg" version="1.1" viewBox="0 0 1024 1024"><g transform="scale(1, -1) translate(0, -900)"><path d="M 562 444 Q 587 447 716 474 Q 737 478 742 467 Q 751 440 762 244 Q 765 75 754 54 Q 748 47 727 52 Q 699 56 671 60 Q 652 64 653 55 Q 714 12 750 -22 Q 763 -41 780 -45 Q 790 -48 797 -38 Q 836 16 832 68 Q 793 407 820 458 Q 832 477 820 488 Q 798 507 761 521 Q 742 528 726 520 Q 687 501 661 492 L 620 482 Q 592 478 552 473 C 522 469 532 439 562 444 Z" fill="black" /></g></svg>