<?xml version='1.0' encoding='utf-8'?>
<svg xmlns="http://www.w3.org/2000/svg" version="1.1" viewBox="0 0 1024 1024"><g transform="scale(1, -1) translate(0, -900)"><path d="M 734 335 Q 750 313 765 305 Q 775 296 791 318 Q 807 343 839 477 Q 849 508 873 534 Q 886 546 875 560 Q 859 578 816 605 Q 797 615 719 594 L 663 583 L 614 573 Q 601 572 589 568 Q 534 555 487 546 C 458 540 485 503 512 515 Q 519 524 616 541 L 662 551 Q 762 572 777 559 Q 790 543 787 528 Q 757 380 740 368 C 726 345 726 345 734 335 Z" fill="black" /></g></svg>