<?xml version='1.0' encoding='utf-8'?>
<svg xmlns="http://www.w3.org/2000/svg" version="1.1" viewBox="0 0 1024 1024"><g transform="scale(1, -1) translate(0, -900)"><path d="M 297 503 Q 204 371 175 358 Q 162 348 164 335 Q 165 322 191 302 Q 201 290 217 302 Q 271 342 378 376 Q 397 380 399 389 Q 402 399 382 396 Q 328 389 263 370 Q 232 360 252 384 Q 291 439 381 547 Q 409 584 434 605 Q 446 615 440 625 Q 430 644 397 662 Q 381 672 372 669 Q 362 665 364 650 Q 365 616 313 526 L 297 503 Z" fill="black" /></g></svg>