<?xml version='1.0' encoding='utf-8'?>
<svg xmlns="http://www.w3.org/2000/svg" version="1.1" viewBox="0 0 1024 1024"><g transform="scale(1, -1) translate(0, -900)"><path d="M 298 463 Q 189 330 165 318 Q 152 311 154 296 Q 155 283 180 263 Q 190 251 205 262 Q 268 307 374 340 Q 393 344 395 353 Q 398 363 378 360 Q 320 350 250 331 Q 228 324 242 342 Q 284 394 380 497 Q 410 533 435 552 Q 448 562 442 572 Q 433 591 401 611 Q 386 621 377 619 Q 367 616 368 601 Q 369 568 317 489 L 298 463 Z" fill="black" /></g></svg>