<?xml version='1.0' encoding='utf-8'?>
<svg xmlns="http://www.w3.org/2000/svg" version="1.1" viewBox="0 0 1024 1024"><g transform="scale(1, -1) translate(0, -900)"><path d="M 319 469 Q 315 470 309 469 Q 260 469 219 469 Q 186 468 203 488 Q 275 602 343 686 Q 359 704 356 712 Q 355 727 314 760 Q 298 773 279 771 Q 267 768 273 752 Q 289 710 197 548 Q 178 512 136 477 Q 117 462 118 450 Q 122 431 137 411 Q 147 401 161 407 Q 185 420 265 439 Q 287 442 303 446 C 332 452 349 469 319 469 Z" fill="black" /></g></svg>