<?xml version='1.0' encoding='utf-8'?>
<svg xmlns="http://www.w3.org/2000/svg" version="1.1" viewBox="0 0 1024 1024"><g transform="scale(1, -1) translate(0, -900)"><path d="M 587 204 Q 587 108 604 74 Q 619 40 650 24 Q 692 3 756 0 Q 831 -4 879 8 Q 931 23 947 33 Q 971 46 955 84 Q 936 130 927 190 Q 926 208 920 209 Q 913 209 912 192 Q 908 135 897 102 Q 890 84 864 73 Q 833 60 778 61 Q 714 62 684 74 Q 656 89 646 112 Q 636 134 633 210 L 632 246 Q 632 252 632 258 Q 632 298 632 332 L 633 370 Q 634 424 637 463 L 639 495 Q 639 496 640 497 Q 643 546 608 577 C 589 600 573 602 579 573 Q 586 557 590 485 L 590 455 Q 590 398 590 358 L 589 325 Q 589 282 587 237 L 587 204 Z" fill="black" /></g></svg>