<?xml version='1.0' encoding='utf-8'?>
<svg xmlns="http://www.w3.org/2000/svg" version="1.1" viewBox="0 0 1024 1024"><g transform="scale(1, -1) translate(0, -900)"><path d="M 280 463 Q 181 330 159 318 Q 146 308 148 294 Q 149 281 177 261 Q 187 249 203 262 Q 264 308 345 338 Q 364 344 367 353 Q 370 363 349 359 Q 303 352 248 335 Q 221 325 238 347 Q 275 399 364 503 Q 392 542 418 563 Q 431 573 425 584 Q 415 603 380 623 Q 364 633 354 630 Q 344 626 346 610 Q 347 573 296 487 L 280 463 Z" fill="black" /></g></svg>