<?xml version='1.0' encoding='utf-8'?>
<svg xmlns="http://www.w3.org/2000/svg" version="1.1" viewBox="0 0 1024 1024"><g transform="scale(1, -1) translate(0, -900)"><path d="M 689 486 Q 688 477 692 468 Q 699 452 712 453 Q 727 456 734 471 Q 749 493 772 593 Q 788 648 827 680 Q 846 696 829 714 Q 810 732 757 759 Q 741 768 681 753 Q 662 753 562 732 Q 511 720 480 717 Q 467 717 467 714 C 438 708 469 688 499 686 Q 512 683 525 686 Q 576 702 692 716 Q 713 717 720 713 Q 732 707 726 670 Q 704 532 693 505 Q 692 505 692 504 L 689 486 Z" fill="black" /></g></svg>