<?xml version='1.0' encoding='utf-8'?>
<svg xmlns="http://www.w3.org/2000/svg" version="1.1" viewBox="0 0 1024 1024"><g transform="scale(1, -1) translate(0, -900)"><path d="M 740 248 Q 739 306 739 382 L 739 406 Q 738 464 738 529 L 738 559 Q 738 670 752 725 Q 761 740 758 754 Q 751 763 694 796 Q 669 812 649 797 Q 645 791 651 776 Q 684 728 686 673 Q 689 571 694 304 Q 687 163 680 127 Q 662 73 673 44 Q 692 -17 706 -23 Q 713 -30 720 -22 Q 747 2 743 98 Q 742 138 741 215 L 740 248 Z" fill="black" /></g></svg>