<?xml version='1.0' encoding='utf-8'?>
<svg xmlns="http://www.w3.org/2000/svg" version="1.1" viewBox="0 0 1024 1024"><g transform="scale(1, -1) translate(0, -900)"><path d="M 602 309 Q 672 393 726 467 L 756 512 Q 792 573 833 623 Q 843 636 835 652 Q 805 712 769 715 Q 750 716 755 693 Q 756 684 760 673 Q 763 646 740 595 Q 715 540 689 497 L 663 457 Q 662 456 661 453 Q 615 387 541 304 L 509 269 Q 403 157 268 50 Q 261 46 260 38 Q 259 31 266 32 Q 299 32 421 128 Q 481 182 511 209 L 559 259 Q 562 263 566 268 L 602 309 Z" fill="black" /></g></svg>