<?xml version='1.0' encoding='utf-8'?>
<svg xmlns="http://www.w3.org/2000/svg" version="1.1" viewBox="0 0 1024 1024"><g transform="scale(1, -1) translate(0, -900)"><path d="M 281 471 Q 239 419 196 361 Q 180 340 165 332 Q 152 323 155 311 Q 156 298 181 280 Q 191 270 205 280 Q 263 325 355 356 Q 373 360 375 369 Q 378 379 359 375 Q 308 365 247 347 Q 222 337 237 358 Q 282 422 387 552 Q 414 586 437 607 Q 449 617 443 626 Q 433 644 401 662 Q 386 671 377 668 Q 368 664 370 650 Q 373 596 300 497 L 281 471 Z" fill="black" /></g></svg>