<?xml version='1.0' encoding='utf-8'?>
<svg xmlns="http://www.w3.org/2000/svg" version="1.1" viewBox="0 0 1024 1024"><g transform="scale(1, -1) translate(0, -900)"><path d="M 469 413 Q 487 435 806 464 Q 818 464 821 459 Q 831 453 833 410 Q 846 232 828 130 Q 824 99 796 101 Q 756 111 719 119 Q 706 123 706 117 Q 705 111 716 100 Q 795 42 818 10 Q 828 -5 839 -1 Q 854 2 865 29 Q 884 69 890 115 Q 900 176 894 395 Q 893 435 903 456 Q 919 478 906 483 Q 890 498 853 512 Q 835 522 777 508 Q 671 493 653 489 L 612 482 Q 599 482 462 450 C 433 443 441 402 469 413 Z" fill="black" /></g></svg>