<?xml version='1.0' encoding='utf-8'?>
<svg xmlns="http://www.w3.org/2000/svg" version="1.1" viewBox="0 0 1024 1024"><g transform="scale(1, -1) translate(0, -900)"><path d="M 728 388 Q 734 372 748 373 Q 761 374 769 390 Q 781 405 802 480 Q 818 532 854 562 Q 873 578 856 593 Q 838 609 788 636 Q 773 645 715 630 Q 661 621 645 617 L 604 609 Q 585 608 568 602 Q 519 592 481 585 C 452 579 474 548 503 554 Q 734 600 746 597 Q 750 597 754 595 Q 763 589 759 559 Q 740 448 730 423 C 722 396 722 396 728 388 Z" fill="black" /></g></svg>