<?xml version='1.0' encoding='utf-8'?>
<svg xmlns="http://www.w3.org/2000/svg" version="1.1" viewBox="0 0 1024 1024"><g transform="scale(1, -1) translate(0, -900)"><path d="M 876 109 Q 855 79 776 82 Q 746 83 722 93 Q 700 103 694 117 Q 673 153 678 251 L 680 277 Q 681 323 690 374 Q 694 392 682 402 Q 669 415 646 422 Q 633 426 625 421 Q 618 417 624 400 Q 637 361 636 324 Q 629 95 670 58 Q 748 1 889 34 Q 890 35 894 36 Q 927 46 959 70 Q 978 85 965 109 Q 952 134 936 210 Q 936 226 929 230 Q 923 233 919 216 Q 894 134 876 109 Z" fill="black" /></g></svg>