<?xml version='1.0' encoding='utf-8'?>
<svg xmlns="http://www.w3.org/2000/svg" version="1.1" viewBox="0 0 1024 1024"><g transform="scale(1, -1) translate(0, -900)"><path d="M 454 662 Q 457 663 462 665 Q 487 674 511 683 Q 526 690 532 684 Q 544 648 544 401 Q 541 203 528 183 Q 524 180 461 195 Q 445 201 445 192 Q 493 149 520 118 Q 532 102 544 97 Q 551 94 559 102 Q 595 150 594 190 Q 585 347 585 626 Q 585 657 595 672 Q 605 688 594 697 Q 576 713 545 724 Q 529 730 517 723 Q 495 707 479 701 Q 464 695 441 688 C 412 679 426 652 454 662 Z" fill="black" /></g></svg>