<?xml version='1.0' encoding='utf-8'?>
<svg xmlns="http://www.w3.org/2000/svg" version="1.1" viewBox="0 0 1024 1024"><g transform="scale(1, -1) translate(0, -900)"><path d="M 546 271 Q 609 290 655 299 Q 665 300 667 297 Q 671 291 671 274 Q 671 225 661 203 Q 648 179 627 183 Q 606 190 588 200 Q 569 207 581 187 Q 615 148 631 120 Q 641 107 653 116 Q 695 138 719 255 Q 725 283 737 297 Q 747 307 741 315 Q 734 324 693 342 Q 677 349 662 338 Q 641 323 538 301 C 509 295 517 262 546 271 Z" fill="black" /></g></svg>