<?xml version='1.0' encoding='utf-8'?>
<svg xmlns="http://www.w3.org/2000/svg" version="1.1" viewBox="0 0 1024 1024"><g transform="scale(1, -1) translate(0, -900)"><path d="M 715 674 Q 737 677 797 699 Q 815 706 821 696 Q 836 653 837 361 Q 834 121 819 98 Q 813 91 792 97 Q 765 100 739 104 Q 720 108 721 99 Q 779 56 813 22 Q 828 3 843 -1 Q 853 -4 861 6 Q 900 63 897 111 Q 887 298 886 601 Q 883 659 897 684 Q 909 703 896 713 Q 875 732 838 746 Q 819 755 767 723 Q 716 707 707 704 C 678 695 686 667 715 674 Z" fill="black" /></g></svg>