<?xml version='1.0' encoding='utf-8'?>
<svg xmlns="http://www.w3.org/2000/svg" version="1.1" viewBox="0 0 1024 1024"><g transform="scale(1, -1) translate(0, -900)"><path d="M 251 503 Q 167 386 148 376 Q 135 367 139 354 Q 140 341 165 324 Q 175 314 190 325 Q 244 367 343 404 Q 361 408 363 417 Q 364 427 347 423 Q 295 413 230 392 Q 205 382 221 403 Q 255 454 337 555 Q 362 591 386 612 Q 396 621 391 630 Q 381 649 349 665 Q 334 674 325 671 Q 315 668 318 653 Q 321 611 268 527 Q 267 527 266 525 L 251 503 Z" fill="black" /></g></svg>