<?xml version='1.0' encoding='utf-8'?>
<svg xmlns="http://www.w3.org/2000/svg" version="1.1" viewBox="0 0 1024 1024"><g transform="scale(1, -1) translate(0, -900)"><path d="M 276 475 Q 192 355 172 344 Q 159 334 163 322 Q 164 309 190 292 Q 200 282 214 293 Q 274 338 372 375 Q 390 381 391 389 Q 392 399 375 395 Q 320 383 254 360 Q 229 350 244 372 Q 280 426 365 535 Q 390 571 414 592 Q 426 602 419 611 Q 409 629 377 645 Q 361 654 353 651 Q 343 647 346 633 Q 349 591 295 502 Q 294 502 294 501 L 276 475 Z" fill="black" /></g></svg>