<?xml version='1.0' encoding='utf-8'?>
<svg xmlns="http://www.w3.org/2000/svg" version="1.1" viewBox="0 0 1024 1024"><g transform="scale(1, -1) translate(0, -900)"><path d="M 276 482 Q 189 359 167 348 Q 154 339 157 326 Q 158 313 183 295 Q 193 285 208 296 Q 254 327 362 365 Q 381 369 383 377 Q 386 387 367 384 Q 315 377 252 360 Q 221 348 241 375 Q 275 426 357 527 Q 382 563 406 584 Q 416 593 411 602 Q 401 621 369 637 Q 354 646 345 643 Q 335 640 338 625 Q 341 588 293 508 L 276 482 Z" fill="black" /></g></svg>