<?xml version='1.0' encoding='utf-8'?>
<svg xmlns="http://www.w3.org/2000/svg" version="1.1" viewBox="0 0 1024 1024"><g transform="scale(1, -1) translate(0, -900)"><path d="M 652 175 Q 686 223 711 292 Q 720 326 740 343 Q 756 356 739 373 Q 718 389 686 404 Q 664 411 643 402 Q 589 369 514 353 Q 486 349 475 342 Q 466 335 486 325 Q 514 313 553 329 Q 596 342 638 354 Q 651 361 655 344 Q 655 284 612 211 L 588 178 Q 573 162 557 146 Q 499 100 350 62 Q 334 59 343 50 Q 350 43 380 45 Q 477 55 534 77 Q 583 98 622 139 L 652 175 Z" fill="black" /></g></svg>