<?xml version='1.0' encoding='utf-8'?>
<svg xmlns="http://www.w3.org/2000/svg" version="1.1" viewBox="0 0 1024 1024"><g transform="scale(1, -1) translate(0, -900)"><path d="M 736 469 Q 737 466 739 462 Q 743 447 755 449 Q 768 450 774 464 Q 787 483 808 574 Q 821 620 854 648 Q 870 663 855 676 Q 839 691 794 714 Q 779 721 717 705 Q 705 705 592 677 Q 591 677 589 676 L 557 668 Q 533 664 515 660 C 486 654 507 622 535 631 Q 604 655 736 677 Q 755 680 765 675 Q 775 669 770 637 Q 751 525 741 496 C 734 473 734 473 736 469 Z" fill="black" /></g></svg>