<?xml version='1.0' encoding='utf-8'?>
<svg xmlns="http://www.w3.org/2000/svg" version="1.1" viewBox="0 0 1024 1024"><g transform="scale(1, -1) translate(0, -900)"><path d="M 302 517 Q 301 518 298 517 Q 249 516 209 516 Q 176 515 193 535 Q 257 641 320 721 Q 335 737 332 745 Q 329 760 291 791 Q 275 804 256 801 Q 246 798 251 783 Q 258 765 253 740 Q 241 692 184 591 Q 166 557 128 523 Q 109 510 111 497 Q 115 478 130 460 Q 140 450 153 457 Q 175 472 286 493 C 315 499 332 517 302 517 Z" fill="black" /></g></svg>