<?xml version='1.0' encoding='utf-8'?>
<svg xmlns="http://www.w3.org/2000/svg" version="1.1" viewBox="0 0 1024 1024"><g transform="scale(1, -1) translate(0, -900)"><path d="M 286 493 Q 184 349 160 337 Q 147 327 151 314 Q 152 301 179 283 Q 189 271 204 284 Q 249 326 331 362 Q 350 369 351 377 Q 352 387 334 382 Q 294 373 243 356 Q 224 347 235 365 Q 274 422 366 535 Q 394 572 418 593 Q 430 603 424 613 Q 414 632 380 650 Q 364 659 355 656 Q 345 653 348 638 Q 349 605 302 517 L 286 493 Z" fill="black" /></g></svg>