<?xml version='1.0' encoding='utf-8'?>
<svg xmlns="http://www.w3.org/2000/svg" version="1.1" viewBox="0 0 1024 1024"><g transform="scale(1, -1) translate(0, -900)"><path d="M 603 -10 Q 609 -32 615 -42 Q 619 -48 627 -46 Q 642 -37 645 17 Q 654 107 648 187 L 648 227 Q 648 261 648 308 L 648 344 Q 648 389 649 443 Q 649 444 649 446 L 650 476 Q 651 480 652 482 Q 655 504 658 520 Q 661 536 648 544 Q 639 550 631 554 C 605 569 565 573 577 545 Q 598 500 599 465 L 599 437 Q 599 391 600 336 L 600 302 Q 599 263 599 220 L 599 180 Q 599 27 603 -10 Z" fill="black" /></g></svg>