<?xml version='1.0' encoding='utf-8'?>
<svg xmlns="http://www.w3.org/2000/svg" version="1.1" viewBox="0 0 1024 1024"><g transform="scale(1, -1) translate(0, -900)"><path d="M 288 476 Q 287 479 274 477 Q 240 477 212 477 Q 179 476 196 496 Q 260 608 322 693 Q 335 711 333 718 Q 330 733 290 762 Q 274 775 256 771 Q 244 768 251 753 Q 258 737 254 710 Q 244 661 187 554 Q 169 518 131 483 Q 113 468 115 456 Q 119 437 135 420 Q 145 410 158 417 Q 174 429 232 447 Q 257 451 275 457 C 304 465 318 474 288 476 Z" fill="black" /></g></svg>