<?xml version='1.0' encoding='utf-8'?>
<svg xmlns="http://www.w3.org/2000/svg" version="1.1" viewBox="0 0 1024 1024"><g transform="scale(1, -1) translate(0, -900)"><path d="M 271 462 Q 178 332 157 320 Q 144 311 148 298 Q 149 285 174 268 Q 184 258 198 269 Q 249 311 336 347 Q 354 353 355 361 Q 356 371 339 366 Q 293 356 237 337 Q 215 328 229 347 Q 265 399 348 503 Q 375 539 398 559 Q 408 569 403 578 Q 393 596 361 613 Q 346 622 337 619 Q 327 616 330 601 Q 333 567 285 485 L 271 462 Z" fill="black" /></g></svg>