<?xml version='1.0' encoding='utf-8'?>
<svg xmlns="http://www.w3.org/2000/svg" version="1.1" viewBox="0 0 1024 1024"><g transform="scale(1, -1) translate(0, -900)"><path d="M 533 398 Q 533 447 534 504 L 535 555 Q 535 639 552 695 Q 559 708 557 722 Q 551 731 500 761 Q 479 777 460 762 Q 456 758 461 744 Q 492 699 493 654 Q 493 600 495 540 L 492 386 Q 488 191 479 145 Q 457 61 480 14 Q 480 11 482 8 Q 488 -8 496 -11 Q 502 -17 508 -10 Q 515 -6 524 14 Q 533 36 532 65 Q 531 102 533 371 L 533 398 Z" fill="black" /></g></svg>