<?xml version='1.0' encoding='utf-8'?>
<svg xmlns="http://www.w3.org/2000/svg" version="1.1" viewBox="0 0 1024 1024"><g transform="scale(1, -1) translate(0, -900)"><path d="M 947 58 Q 928 109 915 195 Q 912 210 905 214 Q 898 218 895 200 Q 888 91 874 69 Q 852 45 752 40 Q 698 40 675 49 Q 656 59 650 72 Q 632 129 654 198 Q 660 243 661 245 Q 639 275 600 284 C 580 291 584 275 592 246 Q 602 218 601 179 Q 600 86 607 68 Q 614 38 636 22 Q 681 -12 834 -5 Q 904 -1 932 14 Q 960 29 947 58 Z" fill="black" /></g></svg>