<?xml version='1.0' encoding='utf-8'?>
<svg xmlns="http://www.w3.org/2000/svg" version="1.1" viewBox="0 0 1024 1024"><g transform="scale(1, -1) translate(0, -900)"><path d="M 502 692 Q 490 617 438 539 Q 417 517 446 491 Q 446 490 449 488 Q 477 463 515 416 Q 528 395 539 398 Q 554 398 561 416 Q 570 440 562 455 Q 556 479 478 508 Q 451 521 499 588 Q 505 598 513 608 Q 550 660 566 674 Q 576 678 578 686 Q 582 702 557 725 Q 538 744 518 749 Q 499 750 494 744 Q 491 740 497 730 Q 507 717 502 692 Z" fill="black" /></g></svg>