<?xml version='1.0' encoding='utf-8'?>
<svg xmlns="http://www.w3.org/2000/svg" version="1.1" viewBox="0 0 1024 1024"><g transform="scale(1, -1) translate(0, -900)"><path d="M 276 451 Q 186 324 166 314 Q 151 304 155 290 Q 156 277 184 257 Q 196 244 211 257 Q 260 294 373 339 Q 392 343 395 353 Q 398 363 377 359 Q 323 349 256 330 Q 225 318 245 344 Q 281 396 366 502 Q 394 541 420 564 Q 432 574 425 585 Q 415 604 379 623 Q 363 632 353 629 Q 343 625 345 609 Q 351 567 294 478 L 276 451 Z" fill="black" /></g></svg>