<?xml version='1.0' encoding='utf-8'?>
<svg xmlns="http://www.w3.org/2000/svg" version="1.1" viewBox="0 0 1024 1024"><g transform="scale(1, -1) translate(0, -900)"><path d="M 275 457 Q 176 319 157 308 Q 144 299 147 286 Q 148 273 174 256 Q 184 246 198 257 Q 258 302 356 339 Q 374 345 375 353 Q 376 363 359 359 Q 304 347 238 324 Q 214 314 229 335 Q 266 390 353 499 Q 378 535 402 556 Q 412 565 407 574 Q 397 593 365 609 Q 350 618 341 615 Q 331 612 334 597 Q 337 561 288 476 L 275 457 Z" fill="black" /></g></svg>