<?xml version='1.0' encoding='utf-8'?>
<svg xmlns="http://www.w3.org/2000/svg" version="1.1" viewBox="0 0 1024 1024"><g transform="scale(1, -1) translate(0, -900)"><path d="M 776 705 Q 757 648 720 596 Q 710 583 714 571 Q 715 559 734 548 Q 783 511 826 468 Q 842 450 857 451 Q 870 452 873 476 Q 874 501 861 517 Q 851 536 782 557 Q 763 561 754 574 Q 748 584 761 598 Q 780 620 816 668 Q 835 693 851 705 Q 867 714 860 733 Q 845 770 820 783 Q 805 793 793 790 Q 781 787 787 768 Q 794 743 776 705 Z" fill="black" /></g></svg>