<?xml version='1.0' encoding='utf-8'?>
<svg xmlns="http://www.w3.org/2000/svg" version="1.1" viewBox="0 0 1024 1024"><g transform="scale(1, -1) translate(0, -900)"><path d="M 516 212 Q 541 249 568 303 Q 581 325 602 342 Q 614 349 614 356 Q 613 366 589 380 Q 559 396 547 397 Q 538 396 529 389 Q 457 356 412 351 Q 382 350 380 342 Q 379 339 385 335 Q 398 325 423 323 Q 450 324 498 348 Q 516 354 523 349 Q 529 345 514 303 Q 504 270 481 237 Q 478 234 477 230 L 456 201 Q 396 132 317 92 Q 310 88 311 84 Q 311 80 317 81 Q 402 81 488 176 L 516 212 Z" fill="black" /></g></svg>