<?xml version='1.0' encoding='utf-8'?>
<svg xmlns="http://www.w3.org/2000/svg" version="1.1" viewBox="0 0 1024 1024"><g transform="scale(1, -1) translate(0, -900)"><path d="M 283 463 Q 184 330 168 320 Q 155 311 159 298 Q 160 285 185 268 Q 195 258 210 269 Q 262 308 375 352 Q 393 356 395 365 Q 396 375 379 371 Q 321 358 250 336 Q 225 326 241 347 Q 278 402 365 511 Q 390 547 414 568 Q 424 577 419 586 Q 409 605 377 621 Q 362 630 353 627 Q 343 624 346 609 Q 349 572 299 487 L 283 463 Z" fill="black" /></g></svg>