<?xml version='1.0' encoding='utf-8'?>
<svg xmlns="http://www.w3.org/2000/svg" version="1.1" viewBox="0 0 1024 1024"><g transform="scale(1, -1) translate(0, -900)"><path d="M 666 374 Q 702 381 749 384 L 798 387 Q 849 393 942 392 Q 960 393 964 401 Q 968 411 953 423 Q 899 460 834 440 Q 827 439 819 436 L 758 423 Q 719 417 666 406 L 618 399 Q 582 395 546 387 L 502 380 Q 462 376 419 368 Q 400 367 414 351 Q 427 339 443 335 Q 449 335 510 343 L 548 353 Q 582 362 618 366 L 666 374 Z" fill="black" /></g></svg>