<?xml version='1.0' encoding='utf-8'?>
<svg xmlns="http://www.w3.org/2000/svg" version="1.1" viewBox="0 0 1024 1024"><g transform="scale(1, -1) translate(0, -900)"><path d="M 704 428 Q 720 401 736 393 Q 746 384 763 406 Q 782 437 822 609 Q 832 640 857 665 Q 870 677 859 692 Q 844 710 801 737 Q 786 746 707 730 Q 701 730 697 728 Q 475 692 468 688 C 439 681 462 658 492 659 Q 502 658 514 660 Q 545 669 590 677 L 630 683 Q 747 704 761 691 Q 776 672 772 652 Q 732 468 710 456 C 697 438 697 438 704 428 Z" fill="black" /></g></svg>