<?xml version='1.0' encoding='utf-8'?>
<svg xmlns="http://www.w3.org/2000/svg" version="1.1" viewBox="0 0 1024 1024"><g transform="scale(1, -1) translate(0, -900)"><path d="M 771 359 Q 770 352 774 343 Q 780 327 792 329 Q 805 330 812 345 Q 825 363 845 447 Q 860 496 894 526 Q 912 542 896 556 Q 880 572 830 596 Q 815 605 752 588 Q 736 588 710 581 L 663 571 Q 644 570 628 564 Q 579 554 547 549 C 517 544 537 513 567 518 Q 574 518 582 520 Q 612 530 664 539 L 706 546 Q 784 562 799 555 Q 809 549 804 517 Q 785 411 776 381 L 771 359 Z" fill="black" /></g></svg>