<?xml version='1.0' encoding='utf-8'?>
<svg xmlns="http://www.w3.org/2000/svg" version="1.1" viewBox="0 0 1024 1024"><g transform="scale(1, -1) translate(0, -900)"><path d="M 263 483 Q 170 348 148 336 Q 135 326 139 314 Q 140 301 166 284 Q 176 274 190 285 Q 241 327 324 359 Q 342 365 343 373 Q 344 383 327 379 Q 284 370 230 353 Q 205 343 220 364 Q 256 418 341 527 Q 366 563 390 584 Q 402 594 395 603 Q 385 621 353 637 Q 337 646 329 643 Q 319 639 322 625 Q 325 586 275 500 L 263 483 Z" fill="black" /></g></svg>