<?xml version='1.0' encoding='utf-8'?>
<svg xmlns="http://www.w3.org/2000/svg" version="1.1" viewBox="0 0 1024 1024"><g transform="scale(1, -1) translate(0, -900)"><path d="M 769 187 Q 770 190 773 193 Q 807 247 830 334 Q 837 368 857 387 Q 873 402 854 417 Q 832 433 799 446 Q 777 453 756 441 Q 716 419 658 410 Q 633 409 621 402 Q 612 396 630 386 Q 655 373 694 383 Q 719 390 747 396 Q 772 403 770 376 Q 770 304 731 225 L 704 183 Q 700 179 696 172 Q 653 126 540 86 Q 525 82 535 74 Q 542 70 570 74 Q 646 84 691 108 Q 713 121 734 141 L 769 187 Z" fill="black" /></g></svg>