<?xml version='1.0' encoding='utf-8'?>
<svg xmlns="http://www.w3.org/2000/svg" version="1.1" viewBox="0 0 1024 1024"><g transform="scale(1, -1) translate(0, -900)"><path d="M 474 257 Q 474 311 473 365 L 473 392 Q 473 441 474 477 L 474 506 Q 475 549 479 567 Q 480 585 465 593 L 448 605 Q 432 615 415 620 Q 406 621 400 613 Q 396 607 404 597 Q 431 537 431 473 Q 438 329 432 248 Q 431 241 431 232 L 424 176 Q 417 134 405 92 Q 390 44 424 0 Q 436 -13 446 1 Q 473 31 474 215 L 474 257 Z" fill="black" /></g></svg>