<?xml version='1.0' encoding='utf-8'?>
<svg xmlns="http://www.w3.org/2000/svg" version="1.1" viewBox="0 0 1024 1024"><g transform="scale(1, -1) translate(0, -900)"><path d="M 661 84 Q 661 144 662 198 L 663 243 Q 664 312 666 374 L 666 406 Q 667 478 669 542 L 670 588 Q 671 612 672 629 Q 679 648 669 659 Q 651 675 635 686 C 611 704 580 699 593 672 Q 600 656 610 640 Q 619 615 619 574 L 619 531 Q 619 488 618 399 L 618 366 Q 617 309 615 233 L 615 190 Q 614 138 613 77 C 613 47 661 54 661 84 Z" fill="black" /></g></svg>