<?xml version='1.0' encoding='utf-8'?>
<svg xmlns="http://www.w3.org/2000/svg" version="1.1" viewBox="0 0 1024 1024"><g transform="scale(1, -1) translate(0, -900)"><path d="M 959 493 Q 972 499 964 513 Q 949 531 931 540 Q 919 544 898 535 Q 870 520 836 520 Q 814 520 806 536 Q 797 555 811 606 Q 815 637 850 668 Q 866 683 851 696 Q 829 715 803 727 Q 793 733 776 723 Q 737 704 705 691 Q 687 687 670 682 C 641 674 653 636 681 647 Q 687 650 694 652 Q 763 679 765 679 Q 772 678 772 665 Q 768 626 762 593 Q 753 553 760 526 Q 766 504 787 489 Q 817 473 874 474 Q 931 477 959 493 Z" fill="black" /></g></svg>