<?xml version='1.0' encoding='utf-8'?>
<svg xmlns="http://www.w3.org/2000/svg" version="1.1" viewBox="0 0 1024 1024"><g transform="scale(1, -1) translate(0, -900)"><path d="M 902 76 Q 901 89 884 107 Q 859 135 795 229 Q 791 236 785 237 Q 782 237 783 230 Q 790 185 796 136 Q 799 115 784 106 Q 756 87 652 109 Q 576 128 549 187 Q 536 224 528 264 Q 524 288 507 300 Q 494 310 487 303 Q 483 300 487 284 Q 493 266 503 218 Q 521 107 610 66 Q 616 63 625 59 Q 763 5 890 65 Q 903 69 902 76 Z" fill="black" /></g></svg>