<?xml version='1.0' encoding='utf-8'?>
<svg xmlns="http://www.w3.org/2000/svg" version="1.1" viewBox="0 0 1024 1024"><g transform="scale(1, -1) translate(0, -900)"><path d="M 281 487 Q 179 360 161 350 Q 148 341 150 327 Q 151 314 177 295 Q 187 283 202 295 Q 265 340 354 371 Q 373 377 375 385 Q 378 395 358 391 Q 307 382 245 364 Q 221 355 237 375 Q 280 433 379 548 Q 407 585 433 605 Q 445 615 439 624 Q 429 643 397 663 Q 381 672 372 670 Q 362 667 364 651 Q 367 611 302 514 Q 301 514 301 513 L 281 487 Z" fill="black" /></g></svg>