<?xml version='1.0' encoding='utf-8'?>
<svg xmlns="http://www.w3.org/2000/svg" version="1.1" viewBox="0 0 1024 1024"><g transform="scale(1, -1) translate(0, -900)"><path d="M 655 58 Q 622 65 590 71 Q 578 74 579 66 Q 580 59 590 52 Q 660 -9 686 -46 Q 701 -62 716 -48 Q 750 -17 749 57 Q 740 147 739 272 Q 739 275 740 277 L 745 320 Q 746 330 751 339 Q 760 358 743 371 Q 718 393 687 402 Q 669 409 661 401 Q 655 394 666 379 Q 685 348 687 310 L 689 273 Q 695 75 677 61 Q 668 54 655 58 Z" fill="black" /></g></svg>