<?xml version='1.0' encoding='utf-8'?>
<svg xmlns="http://www.w3.org/2000/svg" version="1.1" viewBox="0 0 1024 1024"><g transform="scale(1, -1) translate(0, -900)"><path d="M 703 335 Q 743 342 794 346 Q 812 346 819 337 Q 826 330 822 317 Q 822 122 808 95 Q 804 85 792 86 Q 770 87 745 88 Q 721 88 740 74 Q 795 37 818 8 Q 830 -7 843 5 Q 859 21 866 49 Q 876 77 873 232 Q 870 290 887 319 Q 900 337 894 344 Q 887 354 843 382 Q 827 394 776 376 Q 761 373 743 369 Q 649 357 492 322 C 463 316 477 271 504 284 Q 522 296 572 308 L 584 311 Q 602 321 668 330 L 703 335 Z" fill="black" /></g></svg>