<?xml version='1.0' encoding='utf-8'?>
<svg xmlns="http://www.w3.org/2000/svg" version="1.1" viewBox="0 0 1024 1024"><g transform="scale(1, -1) translate(0, -900)"><path d="M 589 447 Q 585 408 596 379 Q 602 369 610 374 Q 628 392 628 457 L 628 488 Q 628 510 629 533 L 630 565 Q 630 589 631 611 L 632 640 Q 632 665 633 689 L 635 727 Q 638 785 644 813 Q 651 832 640 842 Q 625 855 599 866 Q 580 873 558 865 Q 548 858 561 843 Q 585 795 591 716 L 593 680 Q 593 658 593 631 L 593 603 Q 594 585 594 564 Q 593 558 593 552 L 592 522 Q 591 500 590 478 L 589 447 Z" fill="black" /></g></svg>