<?xml version='1.0' encoding='utf-8'?>
<svg xmlns="http://www.w3.org/2000/svg" version="1.1" viewBox="0 0 1024 1024"><g transform="scale(1, -1) translate(0, -900)"><path d="M 246 464 Q 173 356 156 347 Q 143 338 147 325 Q 148 312 175 296 Q 185 286 199 297 Q 245 336 344 379 Q 362 385 363 393 Q 364 403 347 398 Q 298 388 237 366 Q 212 356 227 377 Q 261 429 343 538 Q 368 575 391 596 Q 401 606 396 615 Q 386 633 353 649 Q 337 656 329 654 Q 319 650 322 636 Q 325 590 274 506 Q 268 499 263 489 L 246 464 Z" fill="black" /></g></svg>