<?xml version='1.0' encoding='utf-8'?>
<svg xmlns="http://www.w3.org/2000/svg" version="1.1" viewBox="0 0 1024 1024"><g transform="scale(1, -1) translate(0, -900)"><path d="M 302 513 Q 301 514 298 513 Q 253 512 217 512 Q 183 511 200 532 Q 264 644 326 729 Q 339 747 337 754 Q 334 769 294 798 Q 278 811 260 807 Q 248 804 255 789 Q 262 773 258 746 Q 248 697 191 590 Q 173 554 135 519 Q 117 504 119 492 Q 123 473 138 456 Q 147 447 164 455 Q 200 477 284 488 C 314 492 332 513 302 513 Z" fill="black" /></g></svg>