<?xml version='1.0' encoding='utf-8'?>
<svg xmlns="http://www.w3.org/2000/svg" version="1.1" viewBox="0 0 1024 1024"><g transform="scale(1, -1) translate(0, -900)"><path d="M 504 734 Q 489 747 476 753 Q 460 759 453 754 Q 444 748 451 736 Q 488 660 466 446 Q 462 406 427 364 Q 417 351 423 333 Q 430 309 441 300 Q 451 293 462 306 Q 478 330 610 418 Q 626 428 631 435 Q 635 442 627 444 Q 615 444 520 404 Q 504 397 505 412 Q 512 509 515 591 L 515 613 Q 515 631 515 647 Q 515 677 520 707 C 522 720 522 720 504 734 Z" fill="black" /></g></svg>