<?xml version='1.0' encoding='utf-8'?>
<svg xmlns="http://www.w3.org/2000/svg" version="1.1" viewBox="0 0 1024 1024"><g transform="scale(1, -1) translate(0, -900)"><path d="M 284 488 Q 187 356 168 345 Q 155 336 157 322 Q 158 309 185 290 Q 195 280 210 291 Q 273 339 354 367 Q 373 373 375 381 Q 378 391 358 387 Q 312 378 253 361 Q 228 351 243 373 Q 280 427 370 535 Q 398 572 422 593 Q 434 603 428 613 Q 418 632 384 650 Q 368 659 359 656 Q 349 653 352 638 Q 355 599 302 513 L 284 488 Z" fill="black" /></g></svg>