<?xml version='1.0' encoding='utf-8'?>
<svg xmlns="http://www.w3.org/2000/svg" version="1.1" viewBox="0 0 1024 1024"><g transform="scale(1, -1) translate(0, -900)"><path d="M 685 38 Q 704 11 720 -14 Q 727 -29 737 -28 Q 750 -27 764 0 Q 780 33 777 72 Q 773 124 767 222 Q 766 247 780 266 Q 787 276 780 285 Q 764 301 721 322 Q 705 329 693 322 Q 642 301 521 278 C 492 272 507 245 536 251 Q 545 252 562 257 Q 625 269 677 280 Q 698 284 709 276 Q 716 270 717 81 Q 716 78 716 75 Q 713 66 708 64 C 693 38 681 44 685 38 Z" fill="black" /></g></svg>