<?xml version='1.0' encoding='utf-8'?>
<svg xmlns="http://www.w3.org/2000/svg" version="1.1" viewBox="0 0 1024 1024"><g transform="scale(1, -1) translate(0, -900)"><path d="M 473 597 Q 486 584 497 515 L 500 485 Q 500 454 500 420 L 500 391 Q 499 354 499 321 L 493 234 Q 487 153 460 73 Q 445 28 474 -8 Q 484 -21 493 -8 Q 526 26 526 212 Q 526 254 528 294 L 529 327 Q 529 366 530 398 L 531 425 Q 532 464 534 492 L 536 523 Q 537 551 541 565 Q 544 581 530 589 Q 518 599 506 605 C 480 621 459 623 473 597 Z" fill="black" /></g></svg>