<?xml version='1.0' encoding='utf-8'?>
<svg xmlns="http://www.w3.org/2000/svg" version="1.1" viewBox="0 0 1024 1024"><g transform="scale(1, -1) translate(0, -900)"><path d="M 637 548 Q 637 591 640 598 Q 643 608 635 615 Q 628 622 613 629 C 587 644 580 649 585 623 L 586 622 Q 589 616 595 536 L 596 505 Q 596 471 597 435 L 597 409 Q 597 376 597 342 L 596 306 Q 596 120 585 20 Q 582 -19 605 -46 Q 615 -59 624 -44 Q 645 -2 639 75 Q 639 99 638 279 L 638 312 L 638 352 Q 638 383 638 416 L 638 442 Q 638 476 638 509 Q 637 512 637 513 L 637 548 Z" fill="black" /></g></svg>