<?xml version='1.0' encoding='utf-8'?>
<svg xmlns="http://www.w3.org/2000/svg" version="1.1" viewBox="0 0 1024 1024"><g transform="scale(1, -1) translate(0, -900)"><path d="M 773 496 Q 786 477 797 470 Q 806 463 820 480 Q 830 493 856 563 Q 865 590 886 611 Q 898 621 888 635 Q 875 651 838 675 Q 820 684 806 678 Q 772 671 728 662 L 682 654 Q 654 650 623 643 L 583 636 Q 535 629 498 622 C 468 617 479 583 508 591 Q 541 601 585 610 L 623 617 Q 648 623 682 628 L 725 635 Q 791 648 806 633 Q 813 624 811 616 Q 790 532 778 525 C 765 506 765 506 773 496 Z" fill="black" /></g></svg>