<?xml version='1.0' encoding='utf-8'?>
<svg xmlns="http://www.w3.org/2000/svg" version="1.1" viewBox="0 0 1024 1024"><g transform="scale(1, -1) translate(0, -900)"><path d="M 626 533 Q 647 554 671 574 L 693 597 Q 795 711 798 712 Q 811 719 806 727 Q 805 734 758 755 Q 748 761 700 741 Q 643 728 630 724 C 601 716 593 714 616 707 Q 640 694 696 711 Q 709 714 715 708 Q 718 702 708 688 Q 689 654 660 617 L 643 597 Q 574 530 505 476 Q 493 467 505 466 Q 512 466 548 483 Q 581 498 617 526 Q 617 527 618 527 L 626 533 Z" fill="black" /></g></svg>