<?xml version='1.0' encoding='utf-8'?>
<svg xmlns="http://www.w3.org/2000/svg" version="1.1" viewBox="0 0 1024 1024"><g transform="scale(1, -1) translate(0, -900)"><path d="M 287 449 Q 194 320 174 310 Q 161 300 164 286 Q 165 273 193 253 Q 203 241 219 254 Q 279 300 358 330 Q 377 336 379 345 Q 382 355 361 351 Q 318 344 263 327 Q 236 317 253 340 Q 289 391 374 494 Q 402 534 427 556 Q 440 566 433 576 Q 423 595 387 615 Q 371 624 361 621 Q 351 617 353 601 Q 356 558 306 476 L 287 449 Z" fill="black" /></g></svg>