<?xml version='1.0' encoding='utf-8'?>
<svg xmlns="http://www.w3.org/2000/svg" version="1.1" viewBox="0 0 1024 1024"><g transform="scale(1, -1) translate(0, -900)"><path d="M 267 442 Q 177 307 151 293 Q 138 283 141 269 Q 142 256 169 238 Q 179 226 194 239 Q 251 282 350 319 Q 369 325 371 333 Q 374 343 354 339 Q 302 329 237 309 Q 209 297 226 322 Q 263 377 349 486 Q 374 523 399 546 Q 411 556 404 566 Q 394 585 360 602 Q 344 609 335 607 Q 325 604 328 588 Q 329 555 283 468 L 267 442 Z" fill="black" /></g></svg>