<?xml version='1.0' encoding='utf-8'?>
<svg xmlns="http://www.w3.org/2000/svg" version="1.1" viewBox="0 0 1024 1024"><g transform="scale(1, -1) translate(0, -900)"><path d="M 693 103 Q 693 155 695 204 L 695 247 Q 696 293 698 335 L 699 367 Q 699 404 701 438 L 702 473 Q 703 488 704 499 Q 711 517 702 526 Q 687 539 673 548 C 648 565 624 568 635 540 Q 654 495 655 459 L 655 428 Q 655 403 655 357 L 654 328 Q 653 289 653 237 L 652 196 Q 652 151 652 97 C 652 67 693 73 693 103 Z" fill="black" /></g></svg>