<?xml version='1.0' encoding='utf-8'?>
<svg xmlns="http://www.w3.org/2000/svg" version="1.1" viewBox="0 0 1024 1024"><g transform="scale(1, -1) translate(0, -900)"><path d="M 759 66 Q 783 35 800 6 Q 807 -9 817 -8 Q 830 -7 844 21 Q 854 43 856 100 Q 838 272 860 301 Q 867 311 860 319 Q 845 335 803 356 Q 788 363 776 356 Q 743 341 645 319 L 615 314 Q 608 314 602 312 C 572 307 591 282 620 288 Q 629 289 642 293 Q 705 305 758 316 Q 779 320 789 313 Q 811 286 797 102 Q 796 99 796 95 Q 795 88 790 85 C 778 57 744 86 759 66 Z" fill="black" /></g></svg>