<?xml version='1.0' encoding='utf-8'?>
<svg xmlns="http://www.w3.org/2000/svg" version="1.1" viewBox="0 0 1024 1024"><g transform="scale(1, -1) translate(0, -900)"><path d="M 230 476 Q 155 356 132 342 Q 120 333 124 321 Q 125 308 151 293 Q 161 283 174 295 Q 222 335 301 368 Q 317 374 319 381 Q 320 391 304 386 Q 261 377 210 360 Q 185 348 200 371 Q 231 423 307 526 Q 329 562 351 582 Q 361 592 355 601 Q 345 617 313 632 Q 298 639 290 636 Q 281 632 284 619 Q 290 583 245 500 L 230 476 Z" fill="black" /></g></svg>