<?xml version='1.0' encoding='utf-8'?>
<svg xmlns="http://www.w3.org/2000/svg" version="1.1" viewBox="0 0 1024 1024"><g transform="scale(1, -1) translate(0, -900)"><path d="M 246 437 Q 165 323 141 308 Q 128 299 131 287 Q 132 274 156 257 Q 166 247 179 257 Q 239 299 316 321 Q 332 325 335 333 Q 338 343 320 340 Q 275 333 221 319 Q 191 309 211 333 Q 241 376 313 464 Q 338 498 361 517 Q 371 527 366 535 Q 356 553 326 569 Q 311 576 303 574 Q 294 571 296 557 Q 297 530 260 459 L 246 437 Z" fill="black" /></g></svg>