<?xml version='1.0' encoding='utf-8'?>
<svg xmlns="http://www.w3.org/2000/svg" version="1.1" viewBox="0 0 1024 1024"><g transform="scale(1, -1) translate(0, -900)"><path d="M 464 778 Q 460 733 434 696 Q 427 689 426 681 Q 426 672 445 658 Q 467 639 500 599 Q 510 583 519 585 Q 531 586 537 600 Q 543 619 537 632 Q 531 650 468 674 Q 449 683 483 726 Q 484 729 486 730 Q 508 758 516 765 Q 525 769 526 775 Q 527 788 508 806 Q 492 822 476 824 Q 461 825 457 820 Q 456 816 460 809 Q 467 799 464 778 Z" fill="black" /></g></svg>