<?xml version='1.0' encoding='utf-8'?>
<svg xmlns="http://www.w3.org/2000/svg" version="1.1" viewBox="0 0 1024 1024"><g transform="scale(1, -1) translate(0, -900)"><path d="M 746 559 Q 746 558 747 556 Q 751 540 764 541 Q 777 542 785 555 Q 798 571 824 650 Q 842 699 878 725 Q 897 740 882 755 Q 866 771 819 799 Q 807 808 736 794 Q 727 794 471 753 C 441 748 464 713 493 722 Q 532 735 597 744 L 635 750 Q 764 774 786 760 Q 796 754 789 724 Q 761 613 750 589 C 742 567 742 567 746 559 Z" fill="black" /></g></svg>