<?xml version='1.0' encoding='utf-8'?>
<svg xmlns="http://www.w3.org/2000/svg" version="1.1" viewBox="0 0 1024 1024"><g transform="scale(1, -1) translate(0, -900)"><path d="M 629 305 Q 629 338 630 373 L 630 403 Q 630 437 632 464 L 635 498 Q 638 537 633 541 Q 623 550 614 556 C 590 574 565 577 576 549 Q 586 531 590 497 Q 590 493 590 486 L 591 457 Q 591 429 591 396 L 591 369 Q 591 338 591 300 L 588 236 Q 579 82 570 54 Q 561 18 593 -29 Q 603 -47 611 -50 Q 623 -51 627 -39 Q 637 -9 635 19 Q 631 136 629 239 L 629 305 Z" fill="black" /></g></svg>