<?xml version='1.0' encoding='utf-8'?>
<svg xmlns="http://www.w3.org/2000/svg" version="1.1" viewBox="0 0 1024 1024"><g transform="scale(1, -1) translate(0, -900)"><path d="M 267 471 Q 182 357 165 346 Q 150 336 153 322 Q 154 309 181 290 Q 191 278 206 291 Q 263 334 362 371 Q 381 377 383 385 Q 386 395 366 391 Q 314 381 249 361 Q 222 351 239 373 Q 276 428 367 539 Q 394 576 418 598 Q 431 608 424 617 Q 414 636 380 654 Q 364 663 355 660 Q 345 656 348 641 Q 349 605 284 494 L 267 471 Z" fill="black" /></g></svg>