<?xml version='1.0' encoding='utf-8'?>
<svg xmlns="http://www.w3.org/2000/svg" version="1.1" viewBox="0 0 1024 1024"><g transform="scale(1, -1) translate(0, -900)"><path d="M 240 473 Q 153 344 130 331 Q 118 322 121 309 Q 122 297 147 282 Q 157 272 170 283 Q 222 326 301 360 Q 317 366 319 373 Q 320 383 303 378 Q 260 368 206 348 Q 185 339 198 358 Q 234 413 319 523 Q 344 557 365 578 Q 375 587 370 596 Q 360 612 330 629 Q 315 636 307 634 Q 298 630 300 616 Q 303 576 255 497 L 240 473 Z" fill="black" /></g></svg>