<?xml version='1.0' encoding='utf-8'?>
<svg xmlns="http://www.w3.org/2000/svg" version="1.1" viewBox="0 0 1024 1024"><g transform="scale(1, -1) translate(0, -900)"><path d="M 643 135 Q 680 183 715 254 Q 730 281 750 297 Q 771 312 759 326 Q 747 339 717 353 Q 695 362 667 351 Q 634 339 591 328 Q 548 318 475 312 Q 462 312 458 305 Q 454 298 471 291 Q 505 278 551 290 Q 633 314 649 312 Q 668 305 657 285 Q 638 215 604 167 L 579 138 Q 507 68 365 32 Q 350 28 362 19 Q 369 15 413 17 Q 471 21 537 53 Q 579 72 612 102 L 643 135 Z" fill="black" /></g></svg>