<?xml version='1.0' encoding='utf-8'?>
<svg xmlns="http://www.w3.org/2000/svg" version="1.1" viewBox="0 0 1024 1024"><g transform="scale(1, -1) translate(0, -900)"><path d="M 276 435 Q 188 309 168 294 Q 153 284 156 269 Q 157 256 184 238 Q 196 226 210 239 Q 273 284 362 315 Q 381 321 383 329 Q 386 339 366 335 Q 315 326 253 308 Q 222 296 242 323 Q 273 369 349 466 Q 376 503 399 526 Q 411 536 404 546 Q 394 565 360 582 Q 344 589 335 587 Q 325 583 328 568 Q 329 535 291 460 L 276 435 Z" fill="black" /></g></svg>