<?xml version='1.0' encoding='utf-8'?>
<svg xmlns="http://www.w3.org/2000/svg" version="1.1" viewBox="0 0 1024 1024"><g transform="scale(1, -1) translate(0, -900)"><path d="M 262 448 Q 174 322 149 308 Q 137 299 140 286 Q 141 273 167 256 Q 177 246 191 257 Q 251 305 344 343 Q 362 349 363 357 Q 364 367 347 362 Q 293 349 229 326 Q 210 317 221 335 Q 258 390 348 499 Q 373 535 397 555 Q 409 565 403 574 Q 393 592 361 610 Q 346 617 337 615 Q 328 612 330 598 Q 333 558 280 473 L 262 448 Z" fill="black" /></g></svg>