<?xml version='1.0' encoding='utf-8'?>
<svg xmlns="http://www.w3.org/2000/svg" version="1.1" viewBox="0 0 1024 1024"><g transform="scale(1, -1) translate(0, -900)"><path d="M 739 393 Q 755 366 769 358 Q 778 351 792 369 Q 802 382 828 459 Q 837 486 858 507 Q 870 517 861 530 Q 848 545 811 569 Q 796 578 716 560 Q 715 560 558 533 Q 497 521 448 514 C 418 510 440 476 469 485 Q 500 495 546 504 L 564 507 Q 598 516 643 523 L 677 529 Q 699 533 729 537 Q 766 541 778 530 Q 785 520 784 511 Q 766 430 752 414 C 740 392 738 394 739 393 Z" fill="black" /></g></svg>