<?xml version='1.0' encoding='utf-8'?>
<svg xmlns="http://www.w3.org/2000/svg" version="1.1" viewBox="0 0 1024 1024"><g transform="scale(1, -1) translate(0, -900)"><path d="M 590 315 Q 594 331 602 340 Q 611 347 608 356 Q 602 369 565 393 Q 555 402 545 397 Q 532 394 540 379 Q 550 358 543 335 Q 539 322 536 307 L 525 272 Q 515 242 503 223 Q 494 207 497 195 Q 498 185 515 182 Q 551 170 594 140 L 634 112 Q 683 75 751 9 Q 773 -13 790 -14 Q 809 -15 811 4 Q 812 23 790 68 Q 775 98 661 152 L 619 173 Q 585 189 559 198 Q 535 202 548 226 Q 564 260 574 280 L 590 315 Z" fill="black" /></g></svg>