<?xml version='1.0' encoding='utf-8'?>
<svg xmlns="http://www.w3.org/2000/svg" version="1.1" viewBox="0 0 1024 1024"><g transform="scale(1, -1) translate(0, -900)"><path d="M 704 382 Q 717 366 729 358 Q 738 351 752 369 Q 764 388 791 496 Q 800 523 820 544 Q 832 554 822 567 Q 809 583 771 606 Q 756 612 692 598 Q 689 598 468 557 C 439 552 458 520 487 528 Q 523 538 576 549 L 614 556 Q 651 563 699 570 Q 729 574 738 565 Q 748 552 746 540 Q 727 438 718 423 Q 715 414 700 409 C 687 401 687 401 704 382 Z" fill="black" /></g></svg>