<?xml version='1.0' encoding='utf-8'?>
<svg xmlns="http://www.w3.org/2000/svg" version="1.1" viewBox="0 0 1024 1024"><g transform="scale(1, -1) translate(0, -900)"><path d="M 670 529 Q 671 560 673 588 L 675 620 Q 676 657 678 691 L 679 719 Q 679 723 680 725 Q 683 749 686 764 Q 690 777 692 788 Q 695 798 678 809 Q 650 824 630 827 Q 617 830 610 822 Q 604 816 611 804 Q 629 780 629 763 Q 630 738 632 709 L 634 683 Q 635 649 636 612 L 636 582 Q 636 554 636 524 C 636 494 669 499 670 529 Z" fill="black" /></g></svg>