<?xml version='1.0' encoding='utf-8'?>
<svg xmlns="http://www.w3.org/2000/svg" version="1.1" viewBox="0 0 1024 1024"><g transform="scale(1, -1) translate(0, -900)"><path d="M 721 469 Q 736 448 749 442 Q 759 435 771 454 Q 783 473 806 576 Q 813 604 834 626 Q 846 636 835 649 Q 822 664 784 686 Q 769 693 718 681 Q 702 678 684 675 Q 633 666 568 654 Q 480 636 441 640 C 411 641 465 600 494 608 Q 494 609 498 609 Q 535 619 591 630 L 623 635 Q 662 644 711 650 Q 741 654 750 644 Q 760 632 759 620 Q 741 505 725 494 C 714 477 714 477 721 469 Z" fill="black" /></g></svg>