<?xml version='1.0' encoding='utf-8'?>
<svg xmlns="http://www.w3.org/2000/svg" version="1.1" viewBox="0 0 1024 1024"><g transform="scale(1, -1) translate(0, -900)"><path d="M 256 471 Q 172 360 156 352 Q 143 343 146 331 Q 147 318 172 300 Q 182 288 196 300 Q 247 336 339 369 Q 357 373 359 381 Q 362 391 343 388 Q 297 381 239 365 Q 211 355 229 379 Q 265 430 348 531 Q 373 567 397 587 Q 409 597 403 606 Q 393 624 361 642 Q 346 649 337 647 Q 328 644 330 630 Q 333 588 279 503 Q 276 502 274 497 L 256 471 Z" fill="black" /></g></svg>