<?xml version='1.0' encoding='utf-8'?>
<svg xmlns="http://www.w3.org/2000/svg" version="1.1" viewBox="0 0 1024 1024"><g transform="scale(1, -1) translate(0, -900)"><path d="M 950 512 Q 941 527 926 575 Q 925 587 920 589 Q 916 592 914 579 Q 896 525 885 509 Q 881 503 865 499 Q 828 490 801 499 Q 791 503 787 511 Q 778 530 789 591 Q 792 607 773 617 C 749 634 733 641 742 612 Q 752 582 751 557 Q 748 494 770 474 Q 812 438 904 460 Q 904 461 907 461 Q 928 468 947 483 Q 960 495 950 512 Z" fill="black" /></g></svg>