<?xml version='1.0' encoding='utf-8'?>
<svg xmlns="http://www.w3.org/2000/svg" version="1.1" viewBox="0 0 1024 1024"><g transform="scale(1, -1) translate(0, -900)"><path d="M 263 482 Q 262 482 261 481 Q 224 482 195 482 Q 161 481 178 503 Q 242 623 306 711 Q 319 729 316 736 Q 313 749 275 778 Q 259 791 241 786 Q 231 783 237 768 Q 255 726 173 564 Q 155 527 116 489 Q 98 476 100 464 Q 104 446 118 429 Q 128 419 140 426 Q 159 438 225 454 Q 235 455 245 456 C 275 459 293 483 263 482 Z" fill="black" /></g></svg>