<?xml version='1.0' encoding='utf-8'?>
<svg xmlns="http://www.w3.org/2000/svg" version="1.1" viewBox="0 0 1024 1024"><g transform="scale(1, -1) translate(0, -900)"><path d="M 733 169 Q 630 162 539 147 L 488 140 Q 404 127 330 108 Q 311 105 318 128 Q 325 159 333 191 Q 340 216 331 234 Q 316 255 292 273 Q 279 280 268 279 Q 255 275 262 254 Q 278 205 265 158 Q 255 113 235 95 Q 213 77 220 61 Q 232 43 249 30 Q 264 20 275 29 Q 330 80 627 122 Q 708 132 728 124 Q 729 125 735 125 C 765 122 763 171 733 169 Z" fill="black" /></g></svg>