<?xml version='1.0' encoding='utf-8'?>
<svg xmlns="http://www.w3.org/2000/svg" version="1.1" viewBox="0 0 1024 1024"><g transform="scale(1, -1) translate(0, -900)"><path d="M 245 456 Q 161 338 146 328 Q 133 319 135 306 Q 136 293 161 277 Q 171 267 184 278 Q 250 323 336 353 Q 352 357 355 365 Q 356 375 340 371 Q 288 361 224 341 Q 196 331 213 354 Q 249 409 332 519 Q 356 553 378 574 Q 388 584 382 592 Q 372 608 342 624 Q 327 631 319 629 Q 310 626 312 612 Q 315 567 263 482 L 245 456 Z" fill="black" /></g></svg>