<?xml version='1.0' encoding='utf-8'?>
<svg xmlns="http://www.w3.org/2000/svg" version="1.1" viewBox="0 0 1024 1024"><g transform="scale(1, -1) translate(0, -900)"><path d="M 711 616 L 712 615 Q 716 600 727 601 Q 740 602 747 615 Q 754 619 772 653 Q 788 699 823 724 Q 841 737 826 752 Q 811 768 767 794 Q 757 801 680 789 Q 650 789 542 768 Q 485 759 444 754 C 414 750 434 723 464 725 Q 471 725 479 726 Q 501 733 533 738 L 551 741 Q 584 748 630 753 L 668 757 Q 719 769 736 757 Q 742 753 738 734 Q 723 662 714 644 C 706 624 706 624 711 616 Z" fill="black" /></g></svg>