<?xml version='1.0' encoding='utf-8'?>
<svg xmlns="http://www.w3.org/2000/svg" version="1.1" viewBox="0 0 1024 1024"><g transform="scale(1, -1) translate(0, -900)"><path d="M 237 461 Q 171 361 146 346 Q 136 337 138 326 Q 139 314 162 299 Q 172 289 184 300 Q 236 337 313 369 Q 329 373 331 381 Q 332 391 316 387 Q 273 378 220 361 Q 198 351 212 371 Q 239 411 304 492 Q 328 525 348 543 Q 358 552 353 561 Q 343 577 315 592 Q 302 599 293 597 Q 284 594 287 581 Q 288 557 252 484 L 237 461 Z" fill="black" /></g></svg>