<?xml version='1.0' encoding='utf-8'?>
<svg xmlns="http://www.w3.org/2000/svg" version="1.1" viewBox="0 0 1024 1024"><g transform="scale(1, -1) translate(0, -900)"><path d="M 660 459 Q 660 493 660 530 L 660 572 Q 660 698 679 772 Q 694 797 668 816 Q 652 828 622 845 Q 598 861 577 846 Q 573 840 579 825 Q 615 773 616 720 Q 617 647 620 562 L 618 445 Q 615 214 613 194 L 608 151 Q 587 31 587 25 Q 587 10 607 -34 Q 614 -52 622 -55 Q 629 -62 636 -53 Q 643 -49 654 -28 Q 663 -3 662 29 Q 661 54 660 160 L 660 206 Q 660 294 660 424 L 660 459 Z" fill="black" /></g></svg>