<?xml version='1.0' encoding='utf-8'?>
<svg xmlns="http://www.w3.org/2000/svg" version="1.1" viewBox="0 0 1024 1024"><g transform="scale(1, -1) translate(0, -900)"><path d="M 634 300 Q 634 303 635 305 L 637 341 Q 637 344 638 345 Q 642 430 646 512 L 648 547 Q 649 659 680 740 Q 687 755 677 765 Q 655 784 616 795 Q 592 802 583 795 Q 574 788 581 776 Q 603 740 606 694 Q 607 615 606 536 L 605 503 Q 601 418 592 333 L 587 296 Q 571 155 471 79 Q 437 55 390 30 Q 377 23 377 19 Q 378 15 389 14 Q 405 11 443 24 Q 509 43 555 92 Q 615 155 630 268 L 634 300 Z" fill="black" /></g></svg>