<?xml version='1.0' encoding='utf-8'?>
<svg xmlns="http://www.w3.org/2000/svg" version="1.1" viewBox="0 0 1024 1024"><g transform="scale(1, -1) translate(0, -900)"><path d="M 794 572 Q 807 550 820 542 Q 830 535 845 552 Q 854 562 880 622 Q 890 650 912 672 Q 925 682 915 696 Q 902 712 864 739 Q 846 749 832 744 Q 796 735 743 728 Q 742 728 739 727 L 686 719 Q 650 715 612 707 L 564 699 Q 521 693 485 687 C 455 682 468 648 497 656 Q 527 665 567 672 L 613 681 Q 646 688 686 693 L 733 700 Q 803 716 828 698 Q 835 692 832 682 Q 817 616 805 602 C 791 576 791 576 794 572 Z" fill="black" /></g></svg>