<?xml version='1.0' encoding='utf-8'?>
<svg xmlns="http://www.w3.org/2000/svg" version="1.1" viewBox="0 0 1024 1024"><g transform="scale(1, -1) translate(0, -900)"><path d="M 274 776 Q 267 780 255 786 Q 248 789 239 785 Q 233 781 238 772 Q 239 766 242 760 Q 270 705 251 543 Q 239 531 249 498 Q 256 477 269 464 Q 276 454 285 464 Q 291 474 292 484 L 294 507 Q 295 520 294 540 Q 293 556 293 569 L 292 591 Q 292 630 292 658 L 292 683 Q 291 735 292 740 Q 292 747 292 753 C 292 766 292 766 274 776 Z" fill="black" /></g></svg>