<?xml version='1.0' encoding='utf-8'?>
<svg xmlns="http://www.w3.org/2000/svg" version="1.1" viewBox="0 0 1024 1024"><g transform="scale(1, -1) translate(0, -900)"><path d="M 670 201 Q 669 201 670 200 Q 676 80 655 45 Q 654 41 649 39 Q 634 36 552 55 Q 545 56 542 53 Q 541 49 549 42 Q 609 -7 640 -44 Q 650 -57 658 -54 Q 665 -54 681 -40 Q 717 -7 718 107 Q 717 137 716 179 Q 715 195 714 207 L 712 242 Q 711 270 709 281 Q 706 306 706 326 Q 706 342 695 350 Q 673 363 656 368 C 628 378 619 382 633 361 Q 655 339 667 235 L 670 201 Z" fill="black" /></g></svg>