<?xml version='1.0' encoding='utf-8'?>
<svg xmlns="http://www.w3.org/2000/svg" version="1.1" viewBox="0 0 1024 1024"><g transform="scale(1, -1) translate(0, -900)"><path d="M 667 447 Q 694 475 717 520 Q 727 542 745 557 Q 761 569 751 580 Q 741 590 716 601 Q 697 608 674 598 Q 655 591 627 581 Q 600 572 554 566 Q 544 565 539 559 Q 536 553 551 547 Q 581 537 622 548 Q 653 563 659 563 Q 675 562 670 544 Q 669 538 634 469 L 613 448 Q 559 415 508 402 Q 496 398 506 391 Q 539 376 640 425 L 667 447 Z" fill="black" /></g></svg>