<?xml version='1.0' encoding='utf-8'?>
<svg xmlns="http://www.w3.org/2000/svg" version="1.1" viewBox="0 0 1024 1024"><g transform="scale(1, -1) translate(0, -900)"><path d="M 259 641 Q 270 640 283 643 Q 468 686 694 716 Q 721 722 735 708 Q 757 698 756 632 Q 755 559 759 399 Q 759 363 745 351 Q 729 342 663 367 Q 645 372 645 361 Q 645 353 660 344 Q 715 288 747 245 Q 768 221 784 223 Q 798 227 811 260 Q 831 310 833 386 Q 819 469 819 612 Q 819 643 827 666 L 838 697 Q 844 711 835 722 Q 827 733 808 747 Q 759 778 723 771 Q 548 717 246 686 C 216 683 229 637 259 641 Z" fill="black" /></g></svg>