<?xml version='1.0' encoding='utf-8'?>
<svg xmlns="http://www.w3.org/2000/svg" version="1.1" viewBox="0 0 1024 1024"><g transform="scale(1, -1) translate(0, -900)"><path d="M 633 370 Q 634 371 635 373 Q 647 412 675 541 Q 678 554 682 566 Q 691 578 685 590 Q 672 606 645 620 Q 629 630 617 628 Q 607 622 611 610 Q 624 586 618 532 Q 617 531 617 526 Q 608 445 597 409 L 583 361 Q 547 268 480 171 Q 474 165 473 160 Q 469 151 479 152 Q 512 156 578 252 Q 599 291 612 316 L 633 370 Z" fill="black" /></g></svg>