<?xml version='1.0' encoding='utf-8'?>
<svg xmlns="http://www.w3.org/2000/svg" version="1.1" viewBox="0 0 1024 1024"><g transform="scale(1, -1) translate(0, -900)"><path d="M 653 572 Q 668 544 684 534 Q 694 525 710 545 Q 725 564 761 677 Q 771 708 796 735 Q 809 747 799 762 Q 783 781 739 809 Q 718 819 702 814 Q 659 802 595 793 Q 514 781 413 764 Q 344 751 288 743 C 258 739 268 696 297 703 Q 334 713 383 723 L 405 727 Q 462 739 536 747 L 576 756 Q 681 778 704 755 Q 714 742 711 728 Q 686 623 670 599 C 657 572 651 575 653 572 Z" fill="black" /></g></svg>