<?xml version='1.0' encoding='utf-8'?>
<svg xmlns="http://www.w3.org/2000/svg" version="1.1" viewBox="0 0 1024 1024"><g transform="scale(1, -1) translate(0, -900)"><path d="M 678 565 Q 678 564 679 561 Q 683 545 696 544 Q 718 547 756 619 Q 777 671 817 698 Q 838 713 822 730 Q 806 749 756 780 Q 738 792 665 776 Q 548 767 417 744 Q 345 732 294 726 C 264 722 274 680 303 687 Q 342 697 397 708 L 421 712 Q 473 722 549 731 L 582 734 Q 699 752 724 736 Q 731 730 724 706 Q 696 613 685 596 C 674 572 674 572 678 565 Z" fill="black" /></g></svg>