<?xml version='1.0' encoding='utf-8'?>
<svg xmlns="http://www.w3.org/2000/svg" version="1.1" viewBox="0 0 1024 1024"><g transform="scale(1, -1) translate(0, -900)"><path d="M 772 28 L 754 32 Q 726 5 622 1 Q 564 2 539 12 Q 517 22 512 37 Q 499 70 495 141 L 494 176 Q 494 183 494 190 Q 495 214 497 234 L 501 273 Q 504 301 508 323 L 517 358 Q 518 364 521 368 L 521 367 L 522 367 Q 535 398 517 414 Q 469 451 454 447 Q 439 441 446 425 Q 462 394 460 350 L 459 317 Q 458 289 457 262 L 456 227 Q 455 196 455 168 L 455 137 Q 456 16 496 -14 Q 542 -50 708 -46 Q 783 -45 813 -28 Q 841 -15 830 16 Q 814 64 806 146 Q 805 161 797 166 Q 790 170 786 152 Q 768 50 753 33 L 772 28 Z" fill="black" /></g></svg>