<?xml version='1.0' encoding='utf-8'?>
<svg xmlns="http://www.w3.org/2000/svg" version="1.1" viewBox="0 0 1024 1024"><g transform="scale(1, -1) translate(0, -900)"><path d="M 680 676 Q 690 658 700 650 Q 707 641 725 658 Q 735 667 766 720 Q 778 748 803 769 Q 816 779 808 794 Q 795 812 758 842 Q 740 852 663 838 Q 620 837 429 813 Q 344 801 277 795 C 247 792 277 755 306 762 Q 349 772 406 782 L 430 785 Q 487 795 556 803 L 593 806 Q 704 822 723 800 Q 727 793 725 785 Q 706 728 700 720 Q 693 710 680 710 Q 674 711 672 708 C 661 705 663 701 680 676 Z" fill="black" /></g></svg>