<?xml version='1.0' encoding='utf-8'?>
<svg xmlns="http://www.w3.org/2000/svg" version="1.1" viewBox="0 0 1024 1024"><g transform="scale(1, -1) translate(0, -900)"><path d="M 587 149 Q 591 136 603 137 Q 616 138 622 152 Q 632 165 649 226 Q 662 274 696 302 Q 714 317 698 331 Q 682 347 635 370 Q 625 376 552 363 Q 546 366 517 358 L 460 350 Q 442 349 425 345 Q 377 336 344 332 C 314 328 323 301 353 301 Q 366 300 374 302 Q 405 312 459 317 L 508 323 Q 589 335 604 327 Q 611 323 609 296 Q 596 200 587 181 Q 586 178 585 174 C 580 157 580 157 587 149 Z" fill="black" /></g></svg>