<?xml version='1.0' encoding='utf-8'?>
<svg xmlns="http://www.w3.org/2000/svg" version="1.1" viewBox="0 0 1024 1024"><g transform="scale(1, -1) translate(0, -900)"><path d="M 679 580 Q 692 561 705 554 Q 714 547 729 565 Q 741 581 770 674 Q 780 704 803 727 Q 816 739 805 753 Q 792 769 750 796 Q 734 805 664 790 Q 576 781 434 760 Q 361 750 301 741 C 271 737 284 701 313 707 Q 359 717 419 727 L 444 732 Q 496 742 563 749 L 603 753 Q 625 757 653 759 Q 701 765 715 748 Q 724 738 722 726 Q 703 636 689 615 C 676 588 675 585 679 580 Z" fill="black" /></g></svg>