<?xml version='1.0' encoding='utf-8'?>
<svg xmlns="http://www.w3.org/2000/svg" version="1.1" viewBox="0 0 1024 1024"><g transform="scale(1, -1) translate(0, -900)"><path d="M 618 307 Q 631 285 645 278 Q 654 271 669 289 Q 682 307 713 406 Q 723 436 746 459 Q 759 469 749 484 Q 736 500 695 528 Q 680 537 601 522 Q 589 522 519 511 L 474 505 Q 455 504 434 500 Q 377 491 327 485 C 297 481 320 443 349 450 Q 445 474 610 490 Q 647 494 659 480 Q 668 468 666 457 Q 639 343 623 335 C 610 318 610 318 618 307 Z" fill="black" /></g></svg>