<?xml version='1.0' encoding='utf-8'?>
<svg xmlns="http://www.w3.org/2000/svg" version="1.1" viewBox="0 0 1024 1024"><g transform="scale(1, -1) translate(0, -900)"><path d="M 690 598 Q 690 597 691 592 Q 695 576 708 576 Q 727 579 761 649 Q 780 701 818 728 Q 837 744 823 760 Q 805 778 757 807 Q 744 816 663 803 Q 594 803 428 782 Q 308 767 265 773 C 235 775 271 727 301 729 Q 311 728 322 730 Q 358 739 409 745 L 435 749 Q 490 756 563 761 L 609 765 Q 709 771 725 759 Q 732 755 727 730 Q 706 648 692 619 C 686 606 686 606 690 598 Z" fill="black" /></g></svg>