<?xml version='1.0' encoding='utf-8'?>
<svg xmlns="http://www.w3.org/2000/svg" version="1.1" viewBox="0 0 1024 1024"><g transform="scale(1, -1) translate(0, -900)"><path d="M 586 365 Q 637 371 719 374 Q 734 374 739 367 Q 748 361 748 324 Q 752 170 734 81 Q 724 41 689 45 Q 652 52 617 56 Q 601 60 601 53 Q 601 46 614 34 Q 690 -26 713 -57 Q 722 -72 731 -70 Q 744 -69 758 -44 Q 794 17 811 201 Q 820 337 832 357 Q 851 379 836 385 Q 820 403 780 420 Q 755 436 728 426 Q 697 416 621 409 Q 548 403 486 393 L 446 388 Q 409 384 379 377 Q 310 364 243 352 C 213 347 238 308 267 316 Q 266 317 268 317 Q 337 338 549 362 L 586 365 Z" fill="black" /></g></svg>