<?xml version='1.0' encoding='utf-8'?>
<svg xmlns="http://www.w3.org/2000/svg" version="1.1" viewBox="0 0 1024 1024"><g transform="scale(1, -1) translate(0, -900)"><path d="M 688 628 Q 701 603 716 594 Q 726 587 741 605 Q 751 618 780 694 Q 790 722 813 745 Q 826 755 816 770 Q 803 786 763 813 Q 745 823 730 818 Q 687 808 624 801 Q 545 792 444 778 Q 362 765 295 758 C 265 755 293 720 322 727 Q 365 737 421 747 L 444 751 Q 498 761 567 770 L 603 774 Q 708 790 728 769 Q 735 759 733 750 Q 714 668 701 654 C 688 629 688 629 688 628 Z" fill="black" /></g></svg>