<?xml version='1.0' encoding='utf-8'?>
<svg xmlns="http://www.w3.org/2000/svg" version="1.1" viewBox="0 0 1024 1024"><g transform="scale(1, -1) translate(0, -900)"><path d="M 344 218 Q 440 272 680 291 Q 728 298 744 285 Q 772 257 724 61 Q 717 39 701 28 Q 695 25 626 38 Q 608 47 607 38 Q 606 28 625 12 Q 656 -28 667 -59 Q 683 -87 706 -71 Q 758 -37 775 6 Q 787 46 820 211 Q 826 251 845 269 Q 861 285 853 297 Q 840 310 788 337 Q 763 350 730 343 Q 684 330 630 325 Q 587 319 547 312 L 503 304 Q 442 295 385 281 Q 351 271 355 295 C 333 316 317 205 344 218 Z" fill="black" /></g></svg>