<?xml version='1.0' encoding='utf-8'?>
<svg xmlns="http://www.w3.org/2000/svg" version="1.1" viewBox="0 0 1024 1024"><g transform="scale(1, -1) translate(0, -900)"><path d="M 652 629 Q 652 628 653 623 Q 656 608 667 608 Q 688 611 721 676 Q 740 724 775 749 Q 794 762 780 778 Q 764 796 719 823 Q 706 832 627 819 Q 435 795 416 792 Q 346 782 296 775 C 266 771 281 734 310 739 Q 314 739 320 740 Q 351 749 397 757 L 417 760 Q 465 769 539 775 L 575 781 Q 665 796 691 781 Q 698 775 691 753 Q 669 677 658 657 C 649 637 649 637 652 629 Z" fill="black" /></g></svg>