<?xml version='1.0' encoding='utf-8'?>
<svg xmlns="http://www.w3.org/2000/svg" version="1.1" viewBox="0 0 1024 1024"><g transform="scale(1, -1) translate(0, -900)"><path d="M 577 16 Q 602 -17 621 -48 Q 630 -66 641 -65 Q 656 -64 671 -32 Q 687 5 684 49 Q 678 97 670 186 Q 669 214 685 236 Q 694 248 685 257 Q 667 276 618 298 Q 602 307 586 298 Q 519 265 405 251 C 375 247 387 217 417 221 Q 432 221 574 250 Q 595 254 605 246 Q 615 237 617 60 Q 616 56 616 51 Q 612 39 604 39 C 583 18 575 18 577 16 Z" fill="black" /></g></svg>