<?xml version='1.0' encoding='utf-8'?>
<svg xmlns="http://www.w3.org/2000/svg" version="1.1" viewBox="0 0 1024 1024"><g transform="scale(1, -1) translate(0, -900)"><path d="M 435 501 Q 251 461 250 460 Q 249 461 253 466 Q 317 535 341 552 Q 356 564 348 573 Q 339 583 309 593 Q 290 599 279 595 Q 272 594 273 574 Q 280 520 193 461 Q 183 457 172 452 Q 148 440 148 431 Q 147 415 157 397 Q 167 379 178 375 Q 185 372 195 378 Q 258 423 439 483 Q 443 484 448 486 C 476 495 464 507 435 501 Z" fill="black" /></g></svg>