<?xml version='1.0' encoding='utf-8'?>
<svg xmlns="http://www.w3.org/2000/svg" version="1.1" viewBox="0 0 1024 1024"><g transform="scale(1, -1) translate(0, -900)"><path d="M 283 322 Q 289 323 297 326 Q 339 338 379 349 Q 394 353 401 347 Q 408 341 408 320 Q 417 155 411 56 Q 410 34 404 23 Q 398 19 338 34 Q 320 41 321 32 Q 369 -14 394 -47 Q 406 -63 419 -68 Q 428 -72 435 -63 Q 474 -12 472 29 Q 450 297 469 335 Q 479 353 469 362 Q 450 378 417 391 Q 399 400 354 373 Q 318 358 271 349 C 242 343 254 314 283 322 Z" fill="black" /></g></svg>