<?xml version='1.0' encoding='utf-8'?>
<svg xmlns="http://www.w3.org/2000/svg" version="1.1" viewBox="0 0 1024 1024"><g transform="scale(1, -1) translate(0, -900)"><path d="M 707 343 Q 706 336 708 329 Q 711 313 724 312 Q 737 312 747 326 Q 759 336 786 390 Q 808 442 848 469 Q 869 484 854 501 Q 838 520 788 552 Q 772 564 691 548 Q 651 547 573 535 L 542 531 Q 470 524 410 513 Q 322 500 258 493 C 228 490 251 448 280 456 Q 353 477 486 494 L 525 498 Q 724 528 756 508 Q 763 502 756 477 Q 731 398 718 372 L 707 343 Z" fill="black" /></g></svg>