<?xml version='1.0' encoding='utf-8'?>
<svg xmlns="http://www.w3.org/2000/svg" version="1.1" viewBox="0 0 1024 1024"><g transform="scale(1, -1) translate(0, -900)"><path d="M 591 316 Q 592 347 598 380 Q 602 396 591 404 Q 581 414 560 422 Q 548 425 542 420 Q 536 417 541 402 Q 553 368 552 336 Q 549 218 576 193 Q 591 178 630 167 Q 760 139 848 206 Q 861 216 854 234 Q 847 253 837 310 Q 838 322 833 325 Q 829 328 824 316 Q 799 255 785 237 Q 775 225 747 217 Q 681 199 626 218 Q 604 228 599 240 Q 590 259 590 302 L 591 316 Z" fill="black" /></g></svg>