<?xml version='1.0' encoding='utf-8'?>
<svg xmlns="http://www.w3.org/2000/svg" version="1.1" viewBox="0 0 1024 1024"><g transform="scale(1, -1) translate(0, -900)"><path d="M 629 695 Q 642 665 656 655 Q 663 646 680 663 Q 690 673 720 734 Q 730 761 754 781 Q 767 791 758 805 Q 745 821 709 848 Q 696 857 634 845 Q 475 824 432 817 Q 365 807 307 799 C 277 795 298 759 327 766 Q 327 767 330 767 Q 360 774 397 781 L 418 785 Q 467 795 533 804 L 569 809 Q 653 825 677 807 Q 684 801 680 791 Q 661 730 654 720 Q 648 710 636 710 C 624 705 624 705 629 695 Z" fill="black" /></g></svg>