<?xml version='1.0' encoding='utf-8'?>
<svg xmlns="http://www.w3.org/2000/svg" version="1.1" viewBox="0 0 1024 1024"><g transform="scale(1, -1) translate(0, -900)"><path d="M 592 564 Q 593 583 597 606 Q 601 621 591 628 Q 579 638 560 645 Q 550 648 543 644 Q 537 640 543 626 Q 555 595 553 564 Q 553 480 579 456 Q 630 417 744 439 Q 747 442 752 442 Q 777 451 801 471 Q 814 480 806 497 Q 799 512 789 558 Q 790 570 785 573 Q 781 576 776 564 Q 751 515 737 501 Q 730 492 708 486 Q 654 473 618 487 Q 602 494 598 503 Q 592 515 591 547 L 592 564 Z" fill="black" /></g></svg>