<?xml version='1.0' encoding='utf-8'?>
<svg xmlns="http://www.w3.org/2000/svg" version="1.1" viewBox="0 0 1024 1024"><g transform="scale(1, -1) translate(0, -900)"><path d="M 371 159 Q 371 190 373 218 L 373 246 Q 373 250 374 253 Q 375 296 377 324 L 379 351 Q 380 358 382 365 Q 383 375 378 380 Q 365 392 355 398 C 330 415 316 422 327 394 Q 336 379 337 340 L 338 316 Q 338 283 336 239 L 334 212 Q 331 178 329 149 L 325 112 Q 324 102 323 90 Q 322 68 317 56 Q 308 29 336 -15 Q 345 -31 351 -34 Q 360 -35 364 -25 Q 374 0 372 25 Q 371 76 371 122 L 371 159 Z" fill="black" /></g></svg>