<?xml version='1.0' encoding='utf-8'?>
<svg xmlns="http://www.w3.org/2000/svg" version="1.1" viewBox="0 0 1024 1024"><g transform="scale(1, -1) translate(0, -900)"><path d="M 279 400 Q 294 400 370 423 Q 380 427 388 422 Q 392 418 392 403 Q 399 288 395 219 Q 394 200 388 190 Q 385 187 339 195 Q 324 199 325 193 Q 361 157 380 133 Q 390 118 401 115 Q 408 112 414 119 Q 442 149 444 203 Q 426 377 444 412 Q 453 425 443 434 Q 427 447 401 458 Q 385 465 348 443 Q 288 425 263 419 C 234 412 249 396 279 400 Z" fill="black" /></g></svg>