<?xml version='1.0' encoding='utf-8'?>
<svg xmlns="http://www.w3.org/2000/svg" version="1.1" viewBox="0 0 1024 1024"><g transform="scale(1, -1) translate(0, -900)"><path d="M 664 636 Q 668 624 679 624 Q 694 625 724 669 Q 742 715 776 741 Q 795 754 780 770 Q 764 786 720 813 Q 707 822 624 806 Q 605 806 313 759 C 283 754 300 715 328 725 Q 327 726 329 726 Q 366 738 425 747 L 445 751 Q 484 757 539 763 L 574 770 Q 671 785 692 773 Q 696 769 693 751 Q 675 688 665 665 C 656 643 656 643 664 636 Z" fill="black" /></g></svg>