<?xml version='1.0' encoding='utf-8'?>
<svg xmlns="http://www.w3.org/2000/svg" version="1.1" viewBox="0 0 1024 1024"><g transform="scale(1, -1) translate(0, -900)"><path d="M 487 290 Q 487 215 486 121 Q 485 15 490 -21 Q 494 -46 502 -57 Q 506 -64 515 -62 Q 522 -58 528 -43 Q 535 -27 537 7 Q 544 65 544 124 Q 543 164 545 296 L 547 336 Q 547 351 548 365 Q 549 386 551 398 Q 554 416 557 429 Q 560 448 546 457 Q 536 464 528 467 C 502 481 450 484 466 459 Q 470 452 475 445 Q 485 427 486 401 Q 486 368 487 329 L 487 290 Z" fill="black" /></g></svg>