<?xml version='1.0' encoding='utf-8'?>
<svg xmlns="http://www.w3.org/2000/svg" version="1.1" viewBox="0 0 1024 1024"><g transform="scale(1, -1) translate(0, -900)"><path d="M 375 542 Q 381 552 389 561 Q 417 598 446 650 L 470 698 Q 480 725 513 775 Q 522 784 516 795 Q 510 805 481 825 Q 459 838 449 837 Q 436 834 436 819 Q 439 761 412 699 Q 409 695 407 688 L 381 640 Q 368 622 356 602 Q 325 556 281 516 Q 238 473 133 398 Q 124 391 131 387 Q 138 384 150 388 Q 223 415 286 461 Q 326 489 360 524 L 375 542 Z" fill="black" /></g></svg>