<?xml version='1.0' encoding='utf-8'?>
<svg xmlns="http://www.w3.org/2000/svg" version="1.1" viewBox="0 0 1024 1024"><g transform="scale(1, -1) translate(0, -900)"><path d="M 466 151 Q 467 120 467 84 Q 468 -51 483 -69 Q 487 -76 495 -74 Q 510 -65 514 -12 Q 520 39 519 88 Q 518 109 519 158 L 519 200 Q 519 234 521 278 L 524 319 Q 524 320 525 321 Q 526 336 530 347 Q 533 363 520 372 Q 505 382 495 386 C 468 399 431 404 446 378 Q 446 375 456 361 Q 465 346 465 305 L 466 268 Q 466 234 466 193 L 466 151 Z" fill="black" /></g></svg>