<?xml version='1.0' encoding='utf-8'?>
<svg xmlns="http://www.w3.org/2000/svg" version="1.1" viewBox="0 0 1024 1024"><g transform="scale(1, -1) translate(0, -900)"><path d="M 673 391 Q 733 252 742 235 Q 829 87 936 61 Q 961 62 958 96 Q 946 127 937 271 Q 936 284 930 285 Q 924 285 922 272 Q 915 238 908 206 Q 898 164 884 162 Q 866 165 833 198 Q 797 232 767 284 Q 734 341 713 402 L 702 442 Q 686 514 704 563 Q 710 581 674 605 Q 671 606 671 607 C 647 625 622 617 632 589 Q 642 567 647 535 Q 651 480 663 431 L 673 391 Z" fill="black" /></g></svg>