<?xml version='1.0' encoding='utf-8'?>
<svg xmlns="http://www.w3.org/2000/svg" version="1.1" viewBox="0 0 1024 1024"><g transform="scale(1, -1) translate(0, -900)"><path d="M 542 571 Q 532 583 488 595 Q 472 598 465 592 Q 458 586 469 568 Q 497 528 499 413 Q 499 299 480 244 Q 473 208 437 167 Q 425 155 432 133 Q 441 105 455 92 Q 468 82 481 97 Q 521 149 642 254 Q 658 264 660 274 Q 661 280 656 279 Q 647 279 552 226 Q 545 223 541 225 Q 535 229 536 244 Q 546 515 551 544 Q 552 550 551 554 C 552 565 552 565 542 571 Z" fill="black" /></g></svg>