<?xml version='1.0' encoding='utf-8'?>
<svg xmlns="http://www.w3.org/2000/svg" version="1.1" viewBox="0 0 1024 1024"><g transform="scale(1, -1) translate(0, -900)"><path d="M 232 360 Q 244 388 273 460 L 285 498 Q 295 535 304 570 Q 305 577 307 585 L 315 619 Q 316 623 317 626 Q 321 642 327 657 Q 337 669 331 681 Q 321 696 300 708 C 275 725 253 730 260 701 Q 270 671 263 625 Q 262 618 260 608 L 253 573 Q 244 527 233 485 L 222 449 Q 189 344 98 223 Q 80 199 61 175 Q 55 169 53 164 Q 50 155 59 156 Q 89 156 170 257 Q 183 275 198 296 Q 204 306 210 317 L 232 360 Z" fill="black" /></g></svg>