<?xml version='1.0' encoding='utf-8'?>
<svg xmlns="http://www.w3.org/2000/svg" version="1.1" viewBox="0 0 1024 1024"><g transform="scale(1, -1) translate(0, -900)"><path d="M 750 578 Q 735 533 705 491 Q 695 481 698 469 Q 699 459 714 447 Q 757 407 792 362 Q 805 344 819 343 Q 832 344 836 365 Q 840 387 830 403 Q 821 422 759 450 Q 740 456 733 470 Q 729 480 742 493 Q 758 509 786 545 Q 802 567 818 578 Q 833 587 826 603 Q 813 637 790 650 Q 777 657 765 656 Q 755 655 760 636 Q 767 612 750 578 Z" fill="black" /></g></svg>