<?xml version='1.0' encoding='utf-8'?>
<svg xmlns="http://www.w3.org/2000/svg" version="1.1" viewBox="0 0 1024 1024"><g transform="scale(1, -1) translate(0, -900)"><path d="M 489 549 Q 480 482 441 427 Q 432 418 431 409 Q 430 399 452 382 Q 479 358 513 313 Q 525 294 536 295 Q 549 295 557 312 Q 564 334 559 349 Q 553 370 480 400 Q 468 407 469 412 Q 466 425 508 481 Q 538 521 550 533 Q 560 537 561 545 Q 565 561 541 581 Q 522 600 504 603 Q 486 604 481 598 Q 478 594 484 585 Q 494 573 489 549 Z" fill="black" /></g></svg>