<?xml version='1.0' encoding='utf-8'?>
<svg xmlns="http://www.w3.org/2000/svg" version="1.1" viewBox="0 0 1024 1024"><g transform="scale(1, -1) translate(0, -900)"><path d="M 266 269 Q 236 145 146 54 Q 130 44 122 28 Q 121 21 132 21 Q 202 28 276 146 Q 282 158 288 169 Q 318 241 319 289 L 324 326 Q 328 366 332 414 L 335 462 Q 339 480 341 490 Q 347 509 326 520 Q 301 533 283 538 C 255 548 242 552 253 530 Q 253 526 260 516 Q 267 504 277 440 L 277 399 Q 276 365 273 317 Q 272 316 272 312 L 266 269 Z" fill="black" /></g></svg>