<?xml version='1.0' encoding='utf-8'?>
<svg xmlns="http://www.w3.org/2000/svg" version="1.1" viewBox="0 0 1024 1024"><g transform="scale(1, -1) translate(0, -900)"><path d="M 395 319 Q 414 358 433 397 L 448 431 Q 464 473 482 516 L 498 555 Q 504 568 511 578 Q 523 588 520 603 Q 510 621 489 639 C 468 660 447 662 448 632 Q 452 598 442 558 Q 439 554 438 545 L 424 506 Q 408 464 392 424 L 377 390 Q 304 243 232 158 Q 148 70 85 15 Q 78 11 75 5 Q 71 -5 80 -5 Q 105 -6 210 76 Q 243 106 278 145 Q 350 230 382 295 L 395 319 Z" fill="black" /></g></svg>