<?xml version='1.0' encoding='utf-8'?>
<svg xmlns="http://www.w3.org/2000/svg" version="1.1" viewBox="0 0 1024 1024"><g transform="scale(1, -1) translate(0, -900)"><path d="M 263 293 Q 238 161 138 61 Q 125 54 114 36 Q 113 29 124 29 Q 182 35 254 136 Q 269 158 281 182 Q 300 228 311 294 Q 311 300 312 306 L 318 350 Q 321 387 324 428 L 326 475 Q 326 479 327 482 Q 331 501 332 512 Q 338 531 318 540 Q 308 546 297 549 C 269 560 240 563 254 536 Q 270 511 270 475 Q 270 468 271 456 L 272 416 Q 271 383 268 336 L 263 293 Z" fill="black" /></g></svg>