<?xml version='1.0' encoding='utf-8'?>
<svg xmlns="http://www.w3.org/2000/svg" version="1.1" viewBox="0 0 1024 1024"><g transform="scale(1, -1) translate(0, -900)"><path d="M 280 259 Q 250 106 132 -1 Q 117 -14 114 -20 Q 113 -27 124 -27 Q 140 -27 160 -13 Q 205 15 231 44 Q 306 126 332 273 L 338 315 Q 342 355 346 402 L 349 450 Q 349 454 350 459 Q 354 478 356 489 Q 363 510 342 519 Q 332 525 322 529 C 295 542 264 545 275 517 Q 290 489 292 429 L 292 388 Q 291 352 286 301 L 280 259 Z" fill="black" /></g></svg>