<?xml version='1.0' encoding='utf-8'?>
<svg xmlns="http://www.w3.org/2000/svg" version="1.1" viewBox="0 0 1024 1024"><g transform="scale(1, -1) translate(0, -900)"><path d="M 639 161 Q 570 77 428 40 Q 415 36 426 27 Q 432 23 476 25 Q 584 34 671 124 L 702 165 Q 736 217 766 290 Q 779 317 798 333 Q 817 346 805 360 Q 793 373 764 384 Q 742 393 716 380 Q 694 371 665 362 Q 640 355 600 348 C 570 343 558 332 587 326 Q 615 316 658 328 Q 692 343 700 343 Q 719 336 709 316 Q 693 249 664 198 L 639 161 Z" fill="black" /></g></svg>