<?xml version='1.0' encoding='utf-8'?>
<svg xmlns="http://www.w3.org/2000/svg" version="1.1" viewBox="0 0 1024 1024"><g transform="scale(1, -1) translate(0, -900)"><path d="M 753 642 Q 663 632 570 608 Q 561 605 558 608 Q 557 611 562 620 Q 658 744 678 766 Q 690 775 684 787 Q 678 799 633 822 Q 618 829 609 826 Q 596 820 602 801 Q 620 735 513 626 Q 497 613 475 597 Q 462 587 465 575 Q 469 559 494 540 Q 504 530 516 540 Q 553 571 743 615 Q 758 619 767 625 C 794 638 783 646 753 642 Z" fill="black" /></g></svg>