<?xml version='1.0' encoding='utf-8'?>
<svg xmlns="http://www.w3.org/2000/svg" version="1.1" viewBox="0 0 1024 1024"><g transform="scale(1, -1) translate(0, -900)"><path d="M 513 520 Q 540 548 702 588 Q 759 601 782 600 C 812 601 812 635 782 631 Q 724 624 675 612 L 640 603 Q 589 593 546 578 Q 530 574 534 593 Q 537 617 540 641 Q 544 660 535 672 Q 523 687 503 698 Q 494 702 486 701 Q 477 697 483 681 Q 499 647 493 611 Q 490 577 476 563 Q 461 548 468 537 Q 477 524 491 516 Q 497 512 501 513 C 503 512 503 512 513 520 Z" fill="black" /></g></svg>