<?xml version='1.0' encoding='utf-8'?>
<svg xmlns="http://www.w3.org/2000/svg" version="1.1" viewBox="0 0 1024 1024"><g transform="scale(1, -1) translate(0, -900)"><path d="M 248 272 Q 214 139 106 42 Q 91 29 87 23 Q 86 17 96 17 Q 132 17 197 81 Q 267 153 294 279 Q 294 283 295 286 L 302 329 Q 306 366 313 412 L 317 459 Q 317 465 318 470 Q 322 488 324 498 Q 330 516 312 525 Q 303 529 296 533 C 269 546 243 550 253 522 Q 265 498 266 439 L 264 398 Q 263 364 256 316 L 248 272 Z" fill="black" /></g></svg>