<?xml version='1.0' encoding='utf-8'?>
<svg xmlns="http://www.w3.org/2000/svg" version="1.1" viewBox="0 0 1024 1024"><g transform="scale(1, -1) translate(0, -900)"><path d="M 684 366 Q 699 369 760 392 Q 767 393 771 390 Q 765 165 772 131 Q 796 -52 962 -46 Q 965 -45 968 -45 Q 981 -44 984 -37 Q 990 -27 981 -5 Q 971 35 972 103 Q 972 113 966 120 Q 960 126 957 111 Q 942 44 933 24 Q 929 15 922 13 Q 915 10 908 11 Q 886 12 864 34 Q 804 88 802 203 Q 799 338 851 394 Q 861 401 851 409 Q 841 422 812 433 Q 785 443 774 435 Q 734 410 677 391 C 649 381 655 357 684 366 Z" fill="black" /></g></svg>