<?xml version='1.0' encoding='utf-8'?>
<svg xmlns="http://www.w3.org/2000/svg" version="1.1" viewBox="0 0 1024 1024"><g transform="scale(1, -1) translate(0, -900)"><path d="M 636 154 Q 772 -41 916 -74 Q 920 -74 926 -76 Q 953 -72 946 -39 Q 934 -11 921 126 Q 920 139 914 141 Q 907 141 905 127 Q 895 96 886 67 Q 873 27 860 27 Q 821 26 735 105 Q 695 145 668 184 L 640 226 Q 588 308 572 377 Q 571 378 571 379 L 565 417 Q 564 439 568 459 Q 571 478 532 497 Q 493 513 482 509 Q 472 502 477 487 Q 507 460 518 405 L 528 373 Q 562 268 612 191 L 636 154 Z" fill="black" /></g></svg>