<?xml version='1.0' encoding='utf-8'?>
<svg xmlns="http://www.w3.org/2000/svg" version="1.1" viewBox="0 0 1024 1024"><g transform="scale(1, -1) translate(0, -900)"><path d="M 541 255 Q 525 256 508 259 Q 492 263 493 256 Q 532 222 555 194 Q 565 179 578 175 Q 585 172 592 180 Q 625 214 624 262 Q 606 599 631 639 Q 641 654 631 662 Q 615 678 585 690 Q 573 696 529 676 Q 513 669 475 664 Q 463 663 470 656 Q 476 647 488 643 Q 501 640 549 654 Q 565 658 570 649 Q 576 628 577 430 Q 571 268 562 255 Q 558 251 541 255 Z" fill="black" /></g></svg>