<?xml version='1.0' encoding='utf-8'?>
<svg xmlns="http://www.w3.org/2000/svg" version="1.1" viewBox="0 0 1024 1024"><g transform="scale(1, -1) translate(0, -900)"><path d="M 349 244 Q 380 299 410 379 Q 420 410 440 429 Q 458 447 444 460 Q 431 472 397 481 Q 372 488 318 459 L 275 443 Q 269 442 264 439 Q 218 423 138 408 Q 122 407 118 398 Q 114 389 135 383 Q 175 370 228 390 Q 313 424 329 424 Q 351 427 351 402 Q 335 329 307 274 L 289 243 Q 225 149 80 104 Q 67 100 78 91 Q 84 87 126 89 Q 180 93 242 133 Q 293 163 330 214 L 349 244 Z" fill="black" /></g></svg>