<?xml version='1.0' encoding='utf-8'?>
<svg xmlns="http://www.w3.org/2000/svg" version="1.1" viewBox="0 0 1024 1024"><g transform="scale(1, -1) translate(0, -900)"><path d="M 613 552 Q 519 543 420 523 Q 408 520 405 523 Q 404 527 410 533 Q 501 624 521 640 Q 534 647 529 660 Q 525 673 483 700 Q 468 710 459 707 Q 446 703 449 683 Q 459 614 348 535 Q 336 529 323 521 Q 308 511 311 500 Q 314 484 336 462 Q 345 452 358 460 Q 410 494 626 529 Q 627 530 631 529 C 661 532 643 555 613 552 Z" fill="black" /></g></svg>