<?xml version='1.0' encoding='utf-8'?>
<svg xmlns="http://www.w3.org/2000/svg" version="1.1" viewBox="0 0 1024 1024"><g transform="scale(1, -1) translate(0, -900)"><path d="M 677 60 Q 650 64 624 70 Q 603 77 604 67 Q 661 18 693 -20 Q 706 -41 723 -46 Q 733 -50 742 -40 Q 787 15 785 69 Q 761 370 787 410 Q 800 429 787 441 Q 765 460 727 477 Q 708 484 691 478 Q 636 445 530 433 Q 514 432 524 422 Q 533 412 548 405 Q 564 402 681 429 Q 700 435 707 424 Q 725 376 715 117 Q 703 63 703 60 Q 697 54 677 60 Z" fill="black" /></g></svg>