<?xml version='1.0' encoding='utf-8'?>
<svg xmlns="http://www.w3.org/2000/svg" version="1.1" viewBox="0 0 1024 1024"><g transform="scale(1, -1) translate(0, -900)"><path d="M 557 128 Q 535 135 513 141 Q 497 148 496 140 Q 541 92 565 59 Q 575 41 590 37 Q 597 33 606 41 Q 643 92 645 132 Q 639 288 638 598 Q 638 631 648 646 Q 658 664 648 673 Q 629 689 596 702 Q 577 709 541 684 Q 478 665 473 662 Q 460 661 468 653 Q 477 643 490 640 Q 509 636 560 659 Q 575 666 581 659 Q 602 602 589 232 Q 582 138 576 129 Q 572 125 557 128 Z" fill="black" /></g></svg>