<?xml version='1.0' encoding='utf-8'?>
<svg xmlns="http://www.w3.org/2000/svg" version="1.1" viewBox="0 0 1024 1024"><g transform="scale(1, -1) translate(0, -900)"><path d="M 819 353 Q 816 122 803 104 Q 799 98 778 103 Q 748 109 719 115 Q 700 121 701 111 Q 762 63 796 28 Q 809 9 825 4 Q 835 0 843 11 Q 882 56 881 115 Q 871 290 870 577 Q 869 635 883 661 Q 896 680 883 691 Q 861 710 825 725 Q 806 732 791 725 Q 767 712 753 706 Q 731 699 683 692 Q 667 691 676 682 Q 685 672 699 665 Q 718 662 780 679 Q 801 683 805 672 Q 817 636 819 388 L 819 353 Z" fill="black" /></g></svg>