<?xml version='1.0' encoding='utf-8'?>
<svg xmlns="http://www.w3.org/2000/svg" version="1.1" viewBox="0 0 1024 1024"><g transform="scale(1, -1) translate(0, -900)"><path d="M 359 488 Q 410 415 479 402 Q 498 403 496 428 Q 490 449 494 543 Q 494 552 490 553 Q 486 553 484 545 Q 474 526 464 507 Q 452 483 443 484 Q 428 485 396 518 L 371 549 Q 346 585 323 639 L 309 679 Q 297 740 309 773 Q 313 789 284 808 Q 254 827 245 825 Q 235 821 238 807 Q 254 785 260 748 Q 266 702 276 664 L 287 625 Q 306 571 338 520 L 359 488 Z" fill="black" /></g></svg>