<?xml version='1.0' encoding='utf-8'?>
<svg xmlns="http://www.w3.org/2000/svg" version="1.1" viewBox="0 0 1024 1024"><g transform="scale(1, -1) translate(0, -900)"><path d="M 812 382 Q 813 129 798 104 Q 794 100 775 103 Q 742 113 710 122 Q 691 129 692 120 Q 753 69 789 31 Q 802 13 816 8 Q 825 4 833 14 Q 872 65 871 112 Q 861 272 860 535 Q 859 590 873 614 Q 883 633 873 643 Q 852 661 817 675 Q 801 682 785 675 Q 743 648 667 639 Q 652 638 661 630 Q 668 620 683 614 Q 699 611 775 631 Q 794 635 799 626 Q 808 602 812 403 L 812 382 Z" fill="black" /></g></svg>