<?xml version='1.0' encoding='utf-8'?>
<svg xmlns="http://www.w3.org/2000/svg" version="1.1" viewBox="0 0 1024 1024"><g transform="scale(1, -1) translate(0, -900)"><path d="M 628 280 Q 624 550 634 574 Q 646 592 636 602 Q 617 618 587 630 Q 571 636 558 630 Q 539 617 526 612 Q 507 605 466 597 Q 453 596 461 588 Q 468 579 481 575 Q 502 571 551 591 Q 567 595 572 588 Q 593 531 579 193 Q 569 120 568 118 Q 564 114 547 117 Q 520 124 493 131 Q 475 135 477 128 Q 531 85 561 53 Q 573 37 585 33 Q 592 29 600 38 Q 633 77 633 142 Q 629 194 628 255 L 628 280 Z" fill="black" /></g></svg>