<?xml version='1.0' encoding='utf-8'?>
<svg xmlns="http://www.w3.org/2000/svg" version="1.1" viewBox="0 0 1024 1024"><g transform="scale(1, -1) translate(0, -900)"><path d="M 653 7 Q 628 11 603 18 Q 584 25 584 15 Q 636 -34 666 -70 Q 679 -89 694 -95 Q 704 -99 712 -89 Q 757 -44 755 12 Q 740 288 764 327 Q 777 346 765 357 Q 744 376 709 392 Q 690 399 675 393 Q 609 360 503 352 Q 487 351 496 342 Q 505 332 519 325 Q 537 322 664 347 Q 683 353 688 342 Q 692 332 694 314 Q 698 148 689 46 Q 688 18 678 7 Q 672 1 653 7 Z" fill="black" /></g></svg>