<?xml version='1.0' encoding='utf-8'?>
<svg xmlns="http://www.w3.org/2000/svg" version="1.1" viewBox="0 0 1024 1024"><g transform="scale(1, -1) translate(0, -900)"><path d="M 778 184 Q 751 190 725 195 Q 707 199 709 192 Q 763 152 794 120 Q 804 104 818 100 Q 825 97 833 105 Q 867 150 866 194 Q 845 581 869 626 Q 879 642 870 651 Q 852 667 821 680 Q 805 687 759 665 Q 738 658 695 653 Q 682 653 689 645 Q 696 635 709 630 Q 728 626 782 642 Q 800 645 804 636 Q 808 620 811 596 Q 818 361 808 220 Q 807 195 800 185 Q 796 179 778 184 Z" fill="black" /></g></svg>