<?xml version='1.0' encoding='utf-8'?>
<svg xmlns="http://www.w3.org/2000/svg" version="1.1" viewBox="0 0 1024 1024"><g transform="scale(1, -1) translate(0, -900)"><path d="M 708 640 Q 693 567 686 546 Q 679 528 685 511 Q 691 495 704 497 Q 717 498 725 514 Q 741 539 766 660 Q 782 712 818 744 Q 837 760 821 776 Q 802 792 751 819 Q 736 828 682 813 Q 639 807 603 797 Q 566 788 544 785 Q 528 785 525 780 Q 521 776 538 765 Q 563 753 604 758 Q 691 782 717 774 Q 730 767 724 726 Q 717 689 711 657 L 708 640 Z" fill="black" /></g></svg>