<?xml version='1.0' encoding='utf-8'?>
<svg xmlns="http://www.w3.org/2000/svg" version="1.1" viewBox="0 0 1024 1024"><g transform="scale(1, -1) translate(0, -900)"><path d="M 650 18 Q 625 21 599 24 Q 580 28 581 19 Q 639 -21 672 -53 Q 685 -71 699 -75 Q 709 -79 716 -69 Q 749 -29 751 39 Q 732 238 755 277 Q 767 295 756 305 Q 737 324 702 339 Q 686 346 670 340 Q 613 310 523 303 Q 508 302 517 294 Q 524 284 538 278 Q 557 274 659 296 Q 678 300 683 291 Q 698 243 689 61 Q 688 31 677 18 Q 671 12 650 18 Z" fill="black" /></g></svg>