<?xml version='1.0' encoding='utf-8'?>
<svg xmlns="http://www.w3.org/2000/svg" version="1.1" viewBox="0 0 1024 1024"><g transform="scale(1, -1) translate(0, -900)"><path d="M 661 337 Q 661 147 647 126 Q 646 125 581 128 Q 563 132 565 124 Q 614 90 643 62 Q 656 46 669 43 Q 676 40 684 49 Q 711 88 712 158 Q 703 305 703 531 Q 702 580 712 601 Q 722 617 712 627 Q 694 642 663 654 Q 647 661 634 654 Q 615 641 602 636 Q 583 629 542 621 Q 529 620 537 612 Q 544 603 557 599 Q 578 595 627 615 Q 643 619 648 611 Q 657 587 661 368 L 661 337 Z" fill="black" /></g></svg>