<?xml version='1.0' encoding='utf-8'?>
<svg xmlns="http://www.w3.org/2000/svg" version="1.1" viewBox="0 0 1024 1024"><g transform="scale(1, -1) translate(0, -900)"><path d="M 384 34 Q 363 37 341 40 Q 323 44 325 36 Q 374 -1 403 -29 Q 413 -45 427 -50 Q 434 -53 442 -45 Q 475 0 476 56 Q 461 197 484 232 Q 496 248 486 257 Q 468 275 438 290 Q 423 297 410 291 Q 365 273 292 269 Q 279 269 286 261 Q 292 251 304 246 Q 320 240 341 244 Q 369 248 397 254 Q 416 255 419 246 Q 432 170 417 50 Q 413 41 409 34 Q 403 28 384 34 Z" fill="black" /></g></svg>