<?xml version='1.0' encoding='utf-8'?>
<svg xmlns="http://www.w3.org/2000/svg" version="1.1" viewBox="0 0 1024 1024"><g transform="scale(1, -1) translate(0, -900)"><path d="M 651 41 Q 626 42 600 44 Q 578 48 581 39 Q 642 -4 677 -37 Q 692 -56 708 -61 Q 718 -65 726 -54 Q 768 -6 766 55 Q 742 281 770 325 Q 783 344 771 356 Q 749 377 711 394 Q 692 401 676 395 Q 610 361 515 353 Q 499 352 508 343 Q 517 331 532 325 Q 550 319 664 346 Q 685 352 690 341 Q 694 332 695 317 Q 702 176 696 90 Q 693 56 682 41 Q 675 34 651 41 Z" fill="black" /></g></svg>