<?xml version='1.0' encoding='utf-8'?>
<svg xmlns="http://www.w3.org/2000/svg" version="1.1" viewBox="0 0 1024 1024"><g transform="scale(1, -1) translate(0, -900)"><path d="M 775 264 Q 776 86 765 66 Q 761 60 740 65 Q 713 69 687 75 Q 668 81 669 71 Q 726 28 758 -7 Q 771 -25 786 -29 Q 795 -33 802 -23 Q 841 22 839 76 Q 812 379 836 422 Q 846 441 836 450 Q 815 468 781 482 Q 763 489 748 481 Q 729 468 715 463 Q 696 454 654 447 Q 639 446 648 437 Q 657 427 671 422 Q 692 418 740 437 Q 758 443 763 434 Q 770 410 775 287 L 775 264 Z" fill="black" /></g></svg>