<?xml version='1.0' encoding='utf-8'?>
<svg xmlns="http://www.w3.org/2000/svg" version="1.1" viewBox="0 0 1024 1024"><g transform="scale(1, -1) translate(0, -900)"><path d="M 534 71 Q 512 77 488 83 Q 472 87 473 80 Q 519 40 546 11 Q 556 -5 569 -9 Q 576 -12 583 -4 Q 613 33 615 92 Q 594 365 618 410 Q 628 426 618 434 Q 602 449 572 461 Q 556 468 517 446 Q 501 439 463 432 Q 450 431 458 424 Q 464 415 476 411 Q 488 408 538 424 Q 553 428 558 421 Q 562 409 564 390 Q 570 212 562 103 Q 561 81 554 72 Q 550 68 534 71 Z" fill="black" /></g></svg>