<?xml version='1.0' encoding='utf-8'?>
<svg xmlns="http://www.w3.org/2000/svg" version="1.1" viewBox="0 0 1024 1024"><g transform="scale(1, -1) translate(0, -900)"><path d="M 574 117 Q 546 121 518 128 Q 499 132 501 124 Q 559 82 593 50 Q 605 34 619 29 Q 626 25 635 34 Q 668 76 668 148 Q 652 544 675 584 Q 685 600 675 611 Q 656 627 623 642 Q 605 651 564 627 Q 546 620 507 614 Q 494 613 501 605 Q 508 595 522 590 Q 541 586 582 601 Q 601 605 605 595 Q 627 532 611 197 Q 607 131 598 118 Q 594 112 574 117 Z" fill="black" /></g></svg>