<?xml version='1.0' encoding='utf-8'?>
<svg xmlns="http://www.w3.org/2000/svg" version="1.1" viewBox="0 0 1024 1024"><g transform="scale(1, -1) translate(0, -900)"><path d="M 343 41 Q 315 45 286 49 Q 267 52 269 43 Q 332 4 366 -24 Q 379 -40 393 -45 Q 402 -49 409 -40 Q 439 2 441 64 Q 426 274 448 310 Q 460 326 449 337 Q 430 353 398 368 Q 380 375 333 352 Q 287 336 219 330 Q 206 329 213 321 Q 220 311 234 306 Q 249 303 359 328 Q 375 332 381 324 Q 402 255 379 60 Q 375 50 371 42 Q 365 35 343 41 Z" fill="black" /></g></svg>