<?xml version='1.0' encoding='utf-8'?>
<svg xmlns="http://www.w3.org/2000/svg" version="1.1" viewBox="0 0 1024 1024"><g transform="scale(1, -1) translate(0, -900)"><path d="M 380 493 Q 398 468 413 462 Q 423 455 435 475 Q 448 500 469 637 Q 476 664 495 686 Q 505 696 495 708 Q 482 721 445 742 Q 433 748 369 732 Q 362 732 280 711 Q 277 711 278 710 L 254 704 Q 241 703 232 700 C 203 694 211 663 239 672 Q 290 690 384 706 Q 405 710 412 704 Q 425 689 423 673 Q 404 525 388 514 C 377 496 377 496 380 493 Z" fill="black" /></g></svg>