<?xml version='1.0' encoding='utf-8'?>
<svg xmlns="http://www.w3.org/2000/svg" version="1.1" viewBox="0 0 1024 1024"><g transform="scale(1, -1) translate(0, -900)"><path d="M 817 74 Q 790 78 763 83 Q 744 89 745 79 Q 803 33 837 -1 Q 850 -20 866 -24 Q 875 -28 884 -18 Q 923 31 921 87 Q 911 255 910 529 Q 907 587 921 612 Q 933 631 921 642 Q 899 660 863 674 Q 844 681 829 674 Q 804 658 787 651 Q 763 641 710 632 Q 694 631 704 622 Q 713 612 728 606 Q 741 603 818 626 Q 839 633 845 624 Q 869 558 857 191 Q 848 85 843 76 Q 839 69 817 74 Z" fill="black" /></g></svg>