<?xml version='1.0' encoding='utf-8'?>
<svg xmlns="http://www.w3.org/2000/svg" version="1.1" viewBox="0 0 1024 1024"><g transform="scale(1, -1) translate(0, -900)"><path d="M 616 288 Q 613 126 600 107 Q 597 104 533 112 Q 515 116 517 108 Q 566 71 595 43 Q 607 27 620 23 Q 627 20 634 29 Q 667 68 666 117 Q 662 216 661 529 Q 662 563 673 581 Q 683 597 673 607 Q 655 623 624 636 Q 609 642 568 622 Q 552 615 515 609 Q 502 608 509 601 Q 516 591 529 587 Q 548 583 586 597 Q 604 601 608 592 Q 618 562 616 315 L 616 288 Z" fill="black" /></g></svg>