<?xml version='1.0' encoding='utf-8'?>
<svg xmlns="http://www.w3.org/2000/svg" version="1.1" viewBox="0 0 1024 1024"><g transform="scale(1, -1) translate(0, -900)"><path d="M 160 351 Q 382 406 406 383 Q 413 376 410 362 Q 420 158 407 128 Q 404 119 394 121 Q 366 124 337 128 Q 313 128 331 114 Q 394 77 421 46 Q 434 33 446 45 Q 461 63 467 91 Q 474 121 462 277 Q 456 335 471 366 Q 484 385 478 391 Q 471 401 427 429 Q 411 442 370 426 Q 199 402 147 387 C 118 380 131 344 160 351 Z" fill="black" /></g></svg>