<?xml version='1.0' encoding='utf-8'?>
<svg xmlns="http://www.w3.org/2000/svg" version="1.1" viewBox="0 0 1024 1024"><g transform="scale(1, -1) translate(0, -900)"><path d="M 853 331 Q 850 97 836 74 Q 832 68 811 73 Q 783 80 755 87 Q 736 93 736 83 Q 794 34 827 -3 Q 840 -22 856 -27 Q 865 -31 874 -21 Q 914 30 913 82 Q 892 556 917 604 Q 930 623 918 634 Q 896 653 860 667 Q 841 674 826 667 Q 804 654 791 648 Q 772 639 726 632 Q 711 631 720 622 Q 729 612 743 606 Q 764 602 816 621 Q 835 627 841 617 Q 851 587 853 363 L 853 331 Z" fill="black" /></g></svg>