<?xml version='1.0' encoding='utf-8'?>
<svg xmlns="http://www.w3.org/2000/svg" version="1.1" viewBox="0 0 1024 1024"><g transform="scale(1, -1) translate(0, -900)"><path d="M 292 363 Q 305 332 305 303 Q 304 203 295 171 Q 292 143 281 128 Q 271 109 279 89 Q 289 61 306 50 Q 316 43 327 61 Q 354 106 449 220 Q 462 236 463 243 Q 463 255 446 242 Q 347 166 343 166 Q 339 167 337 179 Q 346 299 353 329 Q 357 345 346 357 Q 324 381 308 384 Q 305 385 303 384 C 282 389 282 389 292 363 Z" fill="black" /></g></svg>