<?xml version='1.0' encoding='utf-8'?>
<svg xmlns="http://www.w3.org/2000/svg" version="1.1" viewBox="0 0 1024 1024"><g transform="scale(1, -1) translate(0, -900)"><path d="M 586 41 Q 616 4 637 -32 Q 646 -50 657 -49 Q 672 -48 687 -16 Q 703 21 700 65 Q 676 279 700 312 Q 709 324 700 333 Q 682 352 633 373 Q 617 382 602 373 Q 559 352 476 333 C 406 316 412 289 442 293 Q 458 294 483 301 Q 609 331 621 322 Q 633 310 634 94 Q 633 78 632 67 Q 629 58 622 55 C 605 30 572 59 586 41 Z" fill="black" /></g></svg>