<?xml version='1.0' encoding='utf-8'?>
<svg xmlns="http://www.w3.org/2000/svg" version="1.1" viewBox="0 0 1024 1024"><g transform="scale(1, -1) translate(0, -900)"><path d="M 420 335 Q 339 247 131 104 Q 123 102 122 94 Q 118 84 126 84 Q 169 84 306 177 L 431 278 L 502 345 Q 551 390 612 464 L 657 517 Q 682 548 709 583 Q 723 602 735 618 L 793 689 Q 800 699 798 710 Q 797 717 790 729 Q 774 762 761 772 Q 745 794 727 794 Q 713 794 711 784 L 710 773 Q 710 771 710 770 Q 716 749 711 727 Q 702 667 602 531 Q 588 515 582 506 L 540 456 Q 537 453 529 445 Q 441 354 420 335 Z" fill="black" /></g></svg>