<?xml version='1.0' encoding='utf-8'?>
<svg xmlns="http://www.w3.org/2000/svg" version="1.1" viewBox="0 0 1024 1024"><g transform="scale(1, -1) translate(0, -900)"><path d="M 745 389 Q 732 411 717 454 Q 716 467 709 470 Q 702 473 701 457 Q 691 406 682 397 Q 672 382 640 372 Q 520 342 458 363 Q 434 373 428 388 Q 427 391 427 395 L 427 410 Q 427 416 431 435 C 437 464 439 480 431 485 Q 430 486 429 487 Q 387 512 376 509 Q 366 503 372 491 Q 382 475 386 449 L 389 401 Q 389 364 425 338 Q 470 305 633 325 Q 706 334 733 351 Q 755 364 745 389 Z" fill="black" /></g></svg>