<?xml version='1.0' encoding='utf-8'?>
<svg xmlns="http://www.w3.org/2000/svg" version="1.1" viewBox="0 0 1024 1024"><g transform="scale(1, -1) translate(0, -900)"><path d="M 520 202 Q 578 218 661 231 C 691 236 674 252 644 248 Q 536 235 425 220 Q 416 219 414 221 Q 413 222 418 227 Q 484 285 508 298 Q 521 308 515 316 Q 512 320 508 324 C 491 349 458 343 448 315 Q 441 282 387 240 Q 371 228 342 220 Q 317 213 316 203 Q 313 188 320 170 Q 327 152 338 146 Q 344 142 354 147 Q 430 186 479 191 L 520 202 Z" fill="black" /></g></svg>