<?xml version='1.0' encoding='utf-8'?>
<svg xmlns="http://www.w3.org/2000/svg" version="1.1" viewBox="0 0 1024 1024"><g transform="scale(1, -1) translate(0, -900)"><path d="M 431 435 Q 432 436 433 436 Q 509 500 571 559 L 614 603 Q 666 670 723 715 Q 733 725 729 742 Q 719 775 705 791 Q 693 807 677 810 Q 661 814 661 792 Q 660 785 662 772 Q 659 715 544 591 L 506 552 Q 472 521 431 485 L 386 449 Q 374 442 363 431 Q 236 337 84 252 Q 75 248 73 242 Q 72 236 78 235 Q 88 234 98 237 Q 210 280 269 318 Q 330 355 389 401 L 431 435 Z" fill="black" /></g></svg>