<?xml version='1.0' encoding='utf-8'?>
<svg xmlns="http://www.w3.org/2000/svg" version="1.1" viewBox="0 0 1024 1024"><g transform="scale(1, -1) translate(0, -900)"><path d="M 934 35 Q 918 81 910 158 Q 909 173 901 178 Q 894 182 890 164 Q 872 70 858 53 Q 822 14 668 13 Q 584 17 549 32 Q 509 53 505 110 L 506 146 Q 509 186 516 211 L 528 257 Q 525 282 475 305 C 448 319 433 324 444 296 Q 444 293 447 288 Q 457 269 461 241 L 462 202 Q 462 165 460 137 L 460 102 Q 463 36 506 3 Q 564 -43 780 -35 Q 877 -29 916 -9 Q 944 4 934 35 Z" fill="black" /></g></svg>