<?xml version='1.0' encoding='utf-8'?>
<svg xmlns="http://www.w3.org/2000/svg" version="1.1" viewBox="0 0 1024 1024"><g transform="scale(1, -1) translate(0, -900)"><path d="M 728 481 Q 718 496 703 542 Q 702 554 696 557 Q 692 560 689 547 Q 670 495 659 478 Q 643 468 604 458 Q 508 442 454 455 Q 430 462 428 474 Q 427 475 427 478 L 427 492 Q 428 504 432 515 C 438 539 438 539 420 551 Q 413 558 401 562 Q 391 566 383 562 Q 379 559 381 545 Q 382 538 385 528 L 387 487 Q 387 445 413 423 Q 491 371 648 411 Q 651 412 654 413 Q 690 426 725 451 Q 738 463 728 481 Z" fill="black" /></g></svg>