<?xml version='1.0' encoding='utf-8'?>
<svg xmlns="http://www.w3.org/2000/svg" version="1.1" viewBox="0 0 1024 1024"><g transform="scale(1, -1) translate(0, -900)"><path d="M 432 515 Q 438 521 571 607 L 630 648 Q 714 712 742 719 Q 755 722 758 731 Q 758 737 749 745 Q 725 767 701 777 Q 688 783 678 769 Q 654 726 540 635 L 492 599 Q 458 577 420 551 L 385 528 Q 358 513 333 495 Q 236 435 100 375 Q 93 374 94 369 Q 94 366 101 366 Q 170 373 206 391 Q 294 431 387 487 L 432 515 Z" fill="black" /></g></svg>