<?xml version='1.0' encoding='utf-8'?>
<svg xmlns="http://www.w3.org/2000/svg" version="1.1" viewBox="0 0 1024 1024"><g transform="scale(1, -1) translate(0, -900)"><path d="M 567 423 Q 642 430 775 439 Q 793 440 799 431 Q 806 425 804 392 Q 800 253 777 176 Q 764 136 729 144 Q 702 148 678 151 Q 662 157 662 150 Q 661 143 672 128 Q 730 64 743 34 Q 750 19 760 20 Q 773 21 787 42 Q 812 75 824 115 Q 843 167 876 362 Q 882 396 895 415 Q 917 439 900 446 Q 884 465 840 487 Q 813 506 784 495 Q 748 485 656 475 Q 491 460 380 439 L 351 433 Q 272 418 200 408 C 170 404 185 355 214 363 Q 224 364 235 368 Q 269 380 327 388 L 364 394 Q 443 407 511 416 L 567 423 Z" fill="black" /></g></svg>