<?xml version='1.0' encoding='utf-8'?>
<svg xmlns="http://www.w3.org/2000/svg" version="1.1" viewBox="0 0 1024 1024"><g transform="scale(1, -1) translate(0, -900)"><path d="M 738 509 Q 739 361 740 103 Q 740 78 727 69 Q 721 66 649 79 Q 616 91 619 81 Q 620 74 640 59 Q 706 10 723 -20 Q 742 -54 758 -55 Q 773 -55 787 -20 Q 803 25 801 99 Q 785 307 786 516 L 787 562 Q 787 676 803 737 Q 819 768 764 789 Q 730 808 711 800 Q 693 793 710 771 Q 732 744 734 710 Q 735 692 737 551 L 738 509 Z" fill="black" /></g></svg>