<?xml version='1.0' encoding='utf-8'?>
<svg xmlns="http://www.w3.org/2000/svg" version="1.1" viewBox="0 0 1024 1024"><g transform="scale(1, -1) translate(0, -900)"><path d="M 518 416 Q 519 461 520 510 L 520 551 Q 520 588 523 645 L 528 696 Q 532 729 541 755 Q 551 771 547 786 Q 540 796 480 833 Q 455 851 433 834 Q 427 828 434 812 Q 470 760 470 683 L 471 638 Q 471 595 473 547 Q 472 546 472 541 L 472 501 Q 471 456 469 409 L 467 305 Q 467 172 441 76 Q 429 36 457 -32 Q 464 -51 473 -55 Q 480 -62 487 -53 Q 496 -49 507 -26 Q 517 1 516 34 Q 515 74 517 341 L 518 416 Z" fill="black" /></g></svg>