<?xml version='1.0' encoding='utf-8'?>
<svg xmlns="http://www.w3.org/2000/svg" version="1.1" viewBox="0 0 1024 1024"><g transform="scale(1, -1) translate(0, -900)"><path d="M 554 254 Q 642 267 749 271 Q 770 268 778 257 Q 785 248 779 234 Q 769 84 756 63 Q 752 53 736 57 Q 711 61 683 66 Q 650 72 672 48 Q 733 -15 757 -58 Q 767 -73 780 -64 Q 810 -42 830 62 Q 846 200 868 227 Q 886 249 879 259 Q 870 274 815 311 Q 794 327 777 321 Q 744 309 685 301 Q 502 282 402 263 L 369 257 Q 344 254 325 248 Q 250 232 195 226 C 165 222 192 175 221 181 Q 234 181 249 186 Q 280 198 324 209 L 356 218 Q 428 237 506 248 L 554 254 Z" fill="black" /></g></svg>