<?xml version='1.0' encoding='utf-8'?>
<svg xmlns="http://www.w3.org/2000/svg" version="1.1" viewBox="0 0 1024 1024"><g transform="scale(1, -1) translate(0, -900)"><path d="M 370 315 Q 371 348 372 382 L 373 423 Q 373 456 375 491 L 376 537 Q 376 589 378 611 L 383 668 Q 387 711 398 744 Q 407 759 404 772 Q 397 782 342 817 Q 318 835 297 819 Q 293 815 298 798 Q 331 750 331 652 L 332 602 Q 332 563 332 523 L 330 481 Q 329 447 327 410 L 324 308 Q 324 176 297 89 Q 287 52 311 -14 Q 318 -32 326 -35 Q 332 -42 340 -33 Q 367 -17 368 49 Q 367 83 370 293 L 370 315 Z" fill="black" /></g></svg>