<?xml version='1.0' encoding='utf-8'?>
<svg xmlns="http://www.w3.org/2000/svg" version="1.1" viewBox="0 0 1024 1024"><g transform="scale(1, -1) translate(0, -900)"><path d="M 322 312 Q 322 340 324 371 L 325 413 Q 326 447 328 484 L 329 527 Q 329 566 331 606 L 335 655 Q 339 707 353 747 Q 363 763 360 776 Q 353 786 298 821 Q 274 839 253 824 Q 249 818 254 803 Q 288 751 287 700 Q 287 670 287 637 L 287 594 Q 288 546 286 512 L 284 473 Q 283 437 280 399 L 275 278 Q 275 167 246 69 Q 231 24 265 -45 Q 268 -52 274 -55 Q 280 -62 288 -53 Q 295 -49 306 -28 Q 316 -3 316 28 Q 316 64 321 286 L 322 312 Z" fill="black" /></g></svg>