<?xml version='1.0' encoding='utf-8'?>
<svg xmlns="http://www.w3.org/2000/svg" version="1.1" viewBox="0 0 1024 1024"><g transform="scale(1, -1) translate(0, -900)"><path d="M 955 145 Q 940 170 918 249 Q 917 265 909 270 Q 902 273 899 255 Q 874 170 858 142 Q 842 120 790 105 Q 667 72 567 115 Q 527 134 514 160 Q 487 212 492 342 L 494 368 Q 498 438 509 516 C 512 539 512 539 501 546 Q 488 559 466 566 Q 453 570 445 565 Q 438 561 444 544 Q 457 505 456 469 Q 444 211 467 140 Q 474 109 503 83 Q 602 4 808 38 Q 827 42 849 48 Q 901 64 950 101 Q 969 117 955 145 Z" fill="black" /></g></svg>