<?xml version='1.0' encoding='utf-8'?>
<svg xmlns="http://www.w3.org/2000/svg" version="1.1" viewBox="0 0 1024 1024"><g transform="scale(1, -1) translate(0, -900)"><path d="M 354 305 Q 355 344 356 386 L 357 426 Q 357 457 359 489 L 360 538 Q 360 571 361 605 L 364 655 Q 368 710 382 752 Q 391 767 388 781 Q 381 791 326 825 Q 302 843 281 827 Q 277 823 282 806 Q 316 755 317 703 Q 317 672 317 639 L 317 594 Q 318 569 318 542 Q 317 533 317 522 L 315 478 Q 314 448 313 416 L 311 377 Q 310 376 310 374 L 309 278 Q 309 166 281 73 Q 271 36 295 -30 Q 302 -48 310 -51 Q 316 -58 324 -49 Q 351 -33 352 33 Q 351 67 354 273 L 354 305 Z" fill="black" /></g></svg>