<?xml version='1.0' encoding='utf-8'?>
<svg xmlns="http://www.w3.org/2000/svg" version="1.1" viewBox="0 0 1024 1024"><g transform="scale(1, -1) translate(0, -900)"><path d="M 353 348 Q 353 366 354 383 L 354 422 Q 354 456 356 495 L 357 545 Q 357 591 359 618 L 363 671 Q 367 708 377 738 Q 386 753 383 766 Q 376 776 322 809 Q 300 825 279 811 Q 275 807 281 791 Q 312 740 314 653 L 315 607 Q 315 568 315 528 L 314 483 Q 313 449 311 411 L 308 293 Q 308 185 282 97 Q 272 60 296 -2 Q 303 -20 311 -23 Q 317 -30 324 -21 Q 351 -5 351 58 Q 350 94 352 316 L 353 348 Z" fill="black" /></g></svg>