<?xml version='1.0' encoding='utf-8'?>
<svg xmlns="http://www.w3.org/2000/svg" version="1.1" viewBox="0 0 1024 1024"><g transform="scale(1, -1) translate(0, -900)"><path d="M 782 191 Q 785 35 774 24 Q 761 15 700 33 Q 685 36 686 27 Q 686 20 698 15 Q 753 -28 782 -60 Q 801 -78 812 -75 Q 822 -72 833 -47 Q 846 -7 846 53 Q 839 134 835 192 L 832 245 Q 829 335 841 360 Q 851 379 842 389 Q 833 402 792 424 Q 776 431 758 428 Q 730 418 674 405 L 628 395 Q 570 386 510 378 C 480 374 511 338 540 346 Q 552 352 629 366 L 673 375 Q 703 382 736 387 Q 754 390 763 379 Q 772 375 775 335 Q 779 287 781 235 L 782 191 Z" fill="black" /></g></svg>