<?xml version='1.0' encoding='utf-8'?>
<svg xmlns="http://www.w3.org/2000/svg" version="1.1" viewBox="0 0 1024 1024"><g transform="scale(1, -1) translate(0, -900)"><path d="M 527 364 Q 669 410 802 422 Q 821 422 831 412 Q 838 405 834 390 Q 844 147 829 112 Q 828 103 815 105 Q 788 108 758 112 Q 733 112 752 97 Q 816 54 844 21 Q 860 5 874 20 Q 892 41 898 73 Q 908 107 892 291 Q 885 360 903 395 Q 916 414 910 422 Q 903 434 855 461 Q 837 474 803 460 Q 766 451 683 437 L 638 429 Q 587 422 561 414 Q 525 405 499 400 C 470 394 498 355 527 364 Z" fill="black" /></g></svg>