<?xml version='1.0' encoding='utf-8'?>
<svg xmlns="http://www.w3.org/2000/svg" version="1.1" viewBox="0 0 1024 1024"><g transform="scale(1, -1) translate(0, -900)"><path d="M 662 42 Q 632 46 602 51 Q 590 54 591 46 Q 592 39 603 32 Q 670 -26 694 -62 Q 709 -78 724 -64 Q 760 -31 758 41 Q 751 116 750 269 Q 750 273 751 275 L 756 315 Q 757 325 763 335 Q 772 354 755 367 Q 730 389 699 398 Q 681 405 673 397 Q 667 391 678 375 Q 697 342 698 305 L 699 269 Q 705 61 685 44 Q 676 37 662 42 Z" fill="black" /></g></svg>