<?xml version='1.0' encoding='utf-8'?>
<svg xmlns="http://www.w3.org/2000/svg" version="1.1" viewBox="0 0 1024 1024"><g transform="scale(1, -1) translate(0, -900)"><path d="M 661 209 Q 661 264 662 315 L 662 346 Q 662 389 663 430 L 664 461 Q 664 495 665 526 L 665 563 Q 665 566 666 567 Q 667 589 668 606 Q 674 622 665 631 Q 655 641 646 647 C 622 665 590 666 603 639 Q 607 629 614 619 Q 621 598 622 549 L 623 518 Q 623 493 622 452 L 622 423 Q 622 387 621 340 L 621 307 Q 621 258 621 199 C 621 169 661 179 661 209 Z" fill="black" /></g></svg>