<?xml version='1.0' encoding='utf-8'?>
<svg xmlns="http://www.w3.org/2000/svg" version="1.1" viewBox="0 0 1024 1024"><g transform="scale(1, -1) translate(0, -900)"><path d="M 333 457 Q 333 485 335 517 L 336 558 Q 336 591 337 623 L 339 669 Q 343 727 356 769 Q 365 782 362 796 Q 355 805 303 837 Q 281 853 262 839 Q 258 835 263 820 Q 296 771 296 722 Q 296 691 296 657 L 297 615 Q 297 582 297 546 L 296 507 Q 295 479 293 447 L 291 349 Q 285 217 274 163 Q 253 84 273 41 Q 274 35 278 29 Q 284 13 291 9 Q 297 3 304 10 Q 311 14 321 34 Q 331 58 330 87 Q 329 121 332 347 L 332 371 Q 332 393 332 417 L 333 457 Z" fill="black" /></g></svg>