<?xml version='1.0' encoding='utf-8'?>
<svg xmlns="http://www.w3.org/2000/svg" version="1.1" viewBox="0 0 1024 1024"><g transform="scale(1, -1) translate(0, -900)"><path d="M 662 315 Q 806 339 824 320 Q 831 313 827 298 Q 828 106 815 79 Q 812 72 802 75 Q 772 82 739 90 Q 712 94 731 75 Q 798 21 825 -18 Q 838 -31 851 -20 Q 867 -4 875 24 Q 885 52 884 211 Q 883 269 899 300 Q 914 319 907 327 Q 900 340 850 370 Q 832 383 817 377 Q 789 367 739 357 Q 696 353 662 346 L 621 340 Q 566 333 538 323 Q 501 316 472 310 C 443 304 464 264 493 271 Q 503 271 513 275 Q 550 291 621 307 L 662 315 Z" fill="black" /></g></svg>