<?xml version='1.0' encoding='utf-8'?>
<svg xmlns="http://www.w3.org/2000/svg" version="1.1" viewBox="0 0 1024 1024"><g transform="scale(1, -1) translate(0, -900)"><path d="M 369 329 Q 369 363 370 399 L 370 439 Q 371 473 372 508 L 373 555 Q 373 601 375 624 L 379 676 Q 383 721 394 756 Q 404 771 400 785 Q 393 795 338 829 Q 314 847 293 831 Q 289 825 294 810 Q 328 761 328 711 Q 328 686 328 657 L 329 611 Q 329 575 329 539 L 328 496 Q 327 463 325 428 L 323 296 Q 323 191 297 101 Q 285 61 311 -2 Q 318 -20 326 -23 Q 332 -30 340 -21 Q 347 -17 358 4 Q 368 29 367 61 Q 366 95 368 301 L 369 329 Z" fill="black" /></g></svg>