<?xml version='1.0' encoding='utf-8'?>
<svg xmlns="http://www.w3.org/2000/svg" version="1.1" viewBox="0 0 1024 1024"><g transform="scale(1, -1) translate(0, -900)"><path d="M 356 306 Q 357 343 358 386 L 358 427 Q 359 463 360 502 L 361 551 Q 361 588 362 626 L 366 680 Q 370 729 382 768 Q 392 783 388 797 Q 381 807 326 841 Q 302 859 281 843 Q 277 837 282 822 Q 316 770 318 718 Q 318 691 318 661 L 319 613 Q 319 574 319 534 L 318 489 Q 317 453 315 415 L 312 304 Q 312 172 285 81 Q 273 41 299 -22 Q 306 -40 314 -43 Q 320 -50 328 -41 Q 335 -37 346 -16 Q 356 9 355 41 Q 354 75 356 279 L 356 306 Z" fill="black" /></g></svg>