<?xml version='1.0' encoding='utf-8'?>
<svg xmlns="http://www.w3.org/2000/svg" version="1.1" viewBox="0 0 1024 1024"><g transform="scale(1, -1) translate(0, -900)"><path d="M 635 273 Q 695 289 747 296 Q 769 299 772 292 Q 782 277 773 240 Q 755 135 727 92 Q 708 58 678 65 Q 642 74 610 86 Q 586 92 605 70 Q 659 28 686 -5 Q 702 -27 722 -11 Q 780 28 813 154 Q 834 263 854 287 Q 867 300 862 312 Q 852 325 799 350 Q 777 360 756 347 Q 732 334 646 313 L 590 301 Q 523 288 466 285 Q 447 284 443 274 Q 442 265 468 252 Q 496 234 518 242 Q 548 252 579 259 L 635 273 Z" fill="black" /></g></svg>