<?xml version='1.0' encoding='utf-8'?>
<svg xmlns="http://www.w3.org/2000/svg" version="1.1" viewBox="0 0 1024 1024"><g transform="scale(1, -1) translate(0, -900)"><path d="M 503 443 Q 525 434 571 449 Q 718 500 814 508 Q 818 509 823 508 Q 839 499 838 492 Q 825 450 811 407 L 813 405 Q 820 401 834 413 Q 880 450 922 465 Q 955 478 954 487 Q 953 496 885 539 Q 866 552 844 547 Q 795 537 734 522 Q 727 521 719 519 L 689 512 Q 638 505 573 487 Q 539 480 507 473 C 478 467 474 449 503 443 Z" fill="black" /></g></svg>