<?xml version='1.0' encoding='utf-8'?>
<svg xmlns="http://www.w3.org/2000/svg" version="1.1" viewBox="0 0 1024 1024"><g transform="scale(1, -1) translate(0, -900)"><path d="M 310 467 Q 311 501 313 536 L 314 580 Q 314 596 317 641 L 323 692 Q 327 729 337 758 Q 346 773 343 786 Q 336 796 282 829 Q 260 847 239 831 Q 235 827 240 811 Q 273 763 273 673 L 273 629 Q 273 598 273 564 L 271 525 Q 270 492 268 455 L 265 342 Q 259 192 236 113 Q 223 71 249 14 Q 255 -4 263 -7 Q 269 -13 276 -5 Q 283 -1 294 19 Q 304 44 303 74 Q 303 110 308 347 L 309 380 Q 309 402 309 426 L 310 467 Z" fill="black" /></g></svg>