<?xml version='1.0' encoding='utf-8'?>
<svg xmlns="http://www.w3.org/2000/svg" version="1.1" viewBox="0 0 1024 1024"><g transform="scale(1, -1) translate(0, -900)"><path d="M 333 310 Q 333 338 334 368 L 335 411 Q 335 448 337 489 L 338 537 Q 338 573 340 611 L 343 662 Q 347 722 361 766 Q 370 781 367 794 Q 360 804 306 837 Q 284 853 263 839 Q 259 835 264 819 Q 300 767 300 714 Q 300 681 300 646 L 300 600 Q 300 563 300 523 L 298 479 Q 297 440 295 398 L 292 296 Q 286 146 263 69 Q 251 33 276 -30 Q 283 -48 290 -51 Q 297 -58 304 -49 Q 331 -33 331 30 Q 330 67 332 279 L 333 310 Z" fill="black" /></g></svg>