<?xml version='1.0' encoding='utf-8'?>
<svg xmlns="http://www.w3.org/2000/svg" version="1.1" viewBox="0 0 1024 1024"><g transform="scale(1, -1) translate(0, -900)"><path d="M 628 660 Q 638 663 653 668 Q 731 695 744 686 Q 754 679 745 655 Q 709 568 699 554 Q 692 539 692 530 Q 691 518 714 509 Q 819 431 827 335 Q 827 308 813 294 Q 800 284 773 290 Q 733 297 699 303 Q 690 304 691 297 Q 692 290 708 278 Q 783 233 798 207 Q 805 192 819 191 Q 831 190 847 202 Q 889 254 890 316 Q 891 413 759 520 Q 728 541 750 568 Q 756 583 795 624 Q 814 651 840 662 Q 871 678 846 700 Q 809 734 784 746 Q 766 753 750 743 Q 726 727 627 696 Q 624 696 622 695 C 593 686 599 651 628 660 Z" fill="black" /></g></svg>