<?xml version='1.0' encoding='utf-8'?>
<svg xmlns="http://www.w3.org/2000/svg" version="1.1" viewBox="0 0 1024 1024"><g transform="scale(1, -1) translate(0, -900)"><path d="M 379 173 Q 404 219 427 278 Q 439 306 458 323 Q 477 338 464 351 Q 451 363 421 374 Q 399 381 373 368 Q 345 358 306 346 Q 267 336 203 329 Q 190 329 185 322 Q 181 315 199 307 Q 235 294 283 307 Q 343 326 354 327 Q 376 326 372 301 Q 359 246 339 202 L 316 159 Q 250 63 100 19 Q 87 15 98 7 Q 104 3 146 5 Q 200 9 261 46 Q 310 74 349 124 L 379 173 Z" fill="black" /></g></svg>