<?xml version='1.0' encoding='utf-8'?>
<svg xmlns="http://www.w3.org/2000/svg" version="1.1" viewBox="0 0 1024 1024"><g transform="scale(1, -1) translate(0, -900)"><path d="M 762 589 Q 820 611 861 623 Q 870 624 872 622 Q 882 612 881 579 Q 882 491 865 450 Q 853 422 829 423 Q 810 427 795 433 Q 771 440 787 417 Q 824 378 840 348 Q 859 332 873 347 Q 924 389 936 534 Q 936 603 953 631 Q 963 644 957 652 Q 947 662 898 677 Q 879 683 863 669 Q 839 651 746 623 C 717 614 734 578 762 589 Z" fill="black" /></g></svg>