<?xml version='1.0' encoding='utf-8'?>
<svg xmlns="http://www.w3.org/2000/svg" version="1.1" viewBox="0 0 1024 1024"><g transform="scale(1, -1) translate(0, -900)"><path d="M 798 494 Q 811 516 839 630 Q 848 661 870 684 Q 883 696 872 710 Q 857 726 816 751 Q 801 760 716 739 Q 710 739 671 730 L 619 719 Q 603 718 587 714 Q 536 704 496 695 C 467 689 492 658 521 667 Q 561 680 621 692 L 670 700 Q 763 722 779 707 Q 789 694 788 681 Q 769 570 759 554 Q 756 542 739 538 C 726 531 727 529 746 506 Q 759 487 773 481 Q 783 474 798 494 Z" fill="black" /></g></svg>