<?xml version='1.0' encoding='utf-8'?>
<svg xmlns="http://www.w3.org/2000/svg" version="1.1" viewBox="0 0 1024 1024"><g transform="scale(1, -1) translate(0, -900)"><path d="M 677 476 Q 686 368 716 258 L 726 223 Q 768 88 852 1 Q 909 -50 937 -50 Q 958 -46 952 -18 Q 948 27 951 159 Q 951 181 943 182 Q 936 182 930 162 Q 917 128 905 100 Q 893 70 883 70 Q 870 71 848 94 Q 808 143 761 252 L 748 296 Q 733 362 718 481 L 713 528 Q 704 654 724 734 Q 740 771 688 797 Q 655 815 636 809 Q 617 805 624 785 Q 664 742 662 709 Q 666 603 673 516 L 677 476 Z" fill="black" /></g></svg>