<?xml version='1.0' encoding='utf-8'?>
<svg xmlns="http://www.w3.org/2000/svg" version="1.1" viewBox="0 0 1024 1024"><g transform="scale(1, -1) translate(0, -900)"><path d="M 616 804 Q 616 805 618 805 Q 687 824 689 824 Q 696 821 694 809 Q 685 739 689 723 Q 693 704 710 692 Q 734 677 782 676 Q 828 676 854 689 Q 866 693 859 706 Q 846 722 832 730 Q 822 734 803 727 Q 781 717 751 718 Q 733 719 728 732 Q 724 745 734 776 Q 738 795 761 812 Q 776 825 762 836 Q 743 854 722 864 Q 713 868 700 862 Q 658 844 599 833 C 570 827 587 795 616 804 Z" fill="black" /></g></svg>