<?xml version='1.0' encoding='utf-8'?>
<svg xmlns="http://www.w3.org/2000/svg" version="1.1" viewBox="0 0 1024 1024"><g transform="scale(1, -1) translate(0, -900)"><path d="M 638 511 Q 595 478 532 462 Q 520 458 530 451 Q 557 439 632 470 Q 648 477 664 487 L 691 511 Q 716 538 737 580 Q 749 602 765 615 Q 781 627 772 639 Q 762 649 738 660 Q 719 667 697 657 Q 678 650 652 642 Q 627 635 582 629 Q 572 628 568 623 Q 565 617 579 612 Q 607 600 645 611 Q 676 624 682 625 Q 698 621 691 604 Q 682 565 658 533 L 638 511 Z" fill="black" /></g></svg>