<?xml version='1.0' encoding='utf-8'?>
<svg xmlns="http://www.w3.org/2000/svg" version="1.1" viewBox="0 0 1024 1024"><g transform="scale(1, -1) translate(0, -900)"><path d="M 557 128 Q 593 67 600 64 Q 609 64 616 83 Q 626 114 622 210 Q 615 334 622 357 Q 628 373 618 381 Q 611 388 582 402 Q 570 408 493 378 Q 472 372 443 363 C 414 354 421 334 450 340 Q 459 341 472 345 Q 505 358 548 367 Q 561 370 565 365 Q 574 356 574 215 Q 575 166 571 155 Q 567 149 560 149 C 549 141 549 141 557 128 Z" fill="black" /></g></svg>