<?xml version='1.0' encoding='utf-8'?>
<svg xmlns="http://www.w3.org/2000/svg" version="1.1" viewBox="0 0 1024 1024"><g transform="scale(1, -1) translate(0, -900)"><path d="M 468 186 Q 468 -18 484 -44 Q 499 -60 508 -39 Q 521 1 525 192 L 525 233 Q 525 276 525 326 L 525 369 Q 525 412 525 449 L 526 489 Q 526 526 527 560 L 528 594 Q 528 636 530 669 L 531 702 Q 537 765 553 788 Q 560 804 540 820 Q 515 839 472 851 Q 453 855 439 842 Q 429 833 442 821 Q 472 796 474 759 Q 474 729 474 691 L 474 659 Q 473 626 474 586 L 473 553 Q 473 519 473 480 L 473 441 Q 473 401 472 359 L 471 318 Q 470 266 469 226 L 468 186 Z" fill="black" /></g></svg>