<?xml version='1.0' encoding='utf-8'?>
<svg xmlns="http://www.w3.org/2000/svg" version="1.1" viewBox="0 0 1024 1024"><g transform="scale(1, -1) translate(0, -900)"><path d="M 309 565 Q 316 565 328 568 Q 413 587 426 582 Q 435 578 435 559 Q 441 489 437 434 Q 437 424 430 421 Q 423 417 378 421 Q 369 422 370 416 Q 371 410 384 405 Q 409 386 430 364 Q 442 354 453 356 Q 460 357 472 380 Q 481 396 482 458 Q 476 554 487 575 Q 496 587 485 596 Q 472 608 445 617 Q 433 623 386 604 Q 329 591 303 582 C 274 573 279 561 309 565 Z" fill="black" /></g></svg>