<?xml version='1.0' encoding='utf-8'?>
<svg xmlns="http://www.w3.org/2000/svg" version="1.1" viewBox="0 0 1024 1024"><g transform="scale(1, -1) translate(0, -900)"><path d="M 670 503 Q 680 545 690 572 L 713 623 Q 725 645 740 658 Q 758 677 743 696 Q 668 753 609 727 Q 569 714 531 702 L 474 691 Q 395 678 312 670 Q 296 669 296 659 Q 299 650 318 644 Q 343 631 381 643 Q 427 652 474 659 L 530 669 Q 564 676 601 683 Q 629 689 641 677 Q 653 667 650 642 Q 647 627 644 612 L 636 569 Q 629 539 621 512 C 613 483 663 474 670 503 Z" fill="black" /></g></svg>