<?xml version='1.0' encoding='utf-8'?>
<svg xmlns="http://www.w3.org/2000/svg" version="1.1" viewBox="0 0 1024 1024"><g transform="scale(1, -1) translate(0, -900)"><path d="M 451 92 Q 441 58 465 -3 Q 472 -19 479 -23 Q 485 -29 492 -22 Q 499 -18 509 3 Q 518 25 517 56 Q 516 101 517 452 L 517 492 Q 517 529 517 570 L 517 598 Q 517 599 518 602 Q 518 641 520 675 L 524 710 Q 528 744 537 773 Q 546 788 542 800 Q 536 809 483 841 Q 461 857 442 842 Q 438 838 443 823 Q 479 771 479 700 L 479 668 Q 479 632 481 593 L 481 565 Q 481 564 482 560 Q 481 523 480 484 L 479 447 Q 478 351 476 248 Q 472 167 451 92 Z" fill="black" /></g></svg>