<?xml version='1.0' encoding='utf-8'?>
<svg xmlns="http://www.w3.org/2000/svg" version="1.1" viewBox="0 0 1024 1024"><g transform="scale(1, -1) translate(0, -900)"><path d="M 671 428 Q 680 476 689 508 L 708 562 Q 708 565 710 566 Q 725 599 744 618 Q 763 637 746 657 Q 728 672 671 699 Q 652 706 628 698 Q 577 682 530 669 L 473 659 Q 394 649 313 644 Q 294 643 296 632 Q 299 623 318 616 Q 345 603 383 613 Q 428 620 473 625 L 528 633 Q 562 640 599 644 Q 627 650 638 638 Q 653 625 650 596 Q 647 574 644 553 L 636 507 Q 629 471 621 438 C 614 409 665 399 671 428 Z" fill="black" /></g></svg>