<?xml version='1.0' encoding='utf-8'?>
<svg xmlns="http://www.w3.org/2000/svg" version="1.1" viewBox="0 0 1024 1024"><g transform="scale(1, -1) translate(0, -900)"><path d="M 751 671 Q 763 708 788 722 Q 798 728 798 736 Q 797 743 761 768 Q 746 778 731 771 Q 682 756 607 740 Q 594 737 597 751 Q 606 773 612 789 L 623 810 Q 624 816 628 819 Q 640 837 620 852 Q 586 874 574 871 Q 564 868 570 854 Q 579 836 573 809 Q 573 802 574 792 Q 571 761 553 737 Q 544 727 558 709 Q 570 694 580 702 Q 616 724 698 732 Q 717 738 724 730 Q 728 724 723 709 Q 711 684 710 677 C 700 649 740 643 751 671 Z" fill="black" /></g></svg>