<?xml version='1.0' encoding='utf-8'?>
<svg xmlns="http://www.w3.org/2000/svg" version="1.1" viewBox="0 0 1024 1024"><g transform="scale(1, -1) translate(0, -900)"><path d="M 666 327 Q 675 364 684 388 L 703 429 Q 713 445 725 454 Q 741 470 727 488 Q 712 501 664 525 Q 648 532 628 525 Q 588 512 550 503 L 485 492 Q 427 485 370 482 Q 355 482 356 473 Q 357 466 374 459 Q 396 449 429 456 Q 457 460 488 463 L 544 471 Q 572 475 604 480 Q 626 484 635 475 Q 645 466 643 447 Q 640 434 638 419 L 632 385 Q 626 360 621 335 C 615 306 659 298 666 327 Z" fill="black" /></g></svg>