<?xml version='1.0' encoding='utf-8'?>
<svg xmlns="http://www.w3.org/2000/svg" version="1.1" viewBox="0 0 1024 1024"><g transform="scale(1, -1) translate(0, -900)"><path d="M 800 497 Q 810 542 820 571 L 839 617 Q 852 645 871 660 Q 887 679 872 696 Q 856 709 803 733 Q 785 740 764 731 Q 719 713 680 701 L 628 689 Q 567 676 504 669 Q 488 668 489 657 Q 492 650 510 643 Q 535 633 570 644 Q 598 651 628 656 L 678 666 Q 765 687 776 677 Q 789 664 780 605 L 772 567 Q 762 533 754 500 C 747 471 793 468 800 497 Z" fill="black" /></g></svg>