<?xml version='1.0' encoding='utf-8'?>
<svg xmlns="http://www.w3.org/2000/svg" version="1.1" viewBox="0 0 1024 1024"><g transform="scale(1, -1) translate(0, -900)"><path d="M 520 273 Q 520 358 520 471 L 520 506 Q 520 546 520 587 L 521 617 Q 521 659 524 694 L 528 729 Q 531 759 539 784 Q 549 800 545 813 Q 538 823 482 857 Q 458 873 437 858 Q 433 852 439 837 Q 475 785 476 718 L 477 685 Q 477 651 478 611 L 479 582 L 479 498 L 478 465 Q 477 369 476 265 L 474 225 Q 470 152 451 84 Q 439 42 467 -18 Q 474 -36 482 -39 Q 489 -46 496 -37 Q 503 -33 514 -12 Q 523 13 522 45 Q 521 75 520 233 L 520 273 Z" fill="black" /></g></svg>