<?xml version='1.0' encoding='utf-8'?>
<svg xmlns="http://www.w3.org/2000/svg" version="1.1" viewBox="0 0 1024 1024"><g transform="scale(1, -1) translate(0, -900)"><path d="M 604 516 Q 525 503 479 502 Q 458 505 458 493 Q 457 483 480 468 Q 508 449 534 458 Q 564 467 596 473 L 654 485 Q 703 497 754 501 Q 769 502 772 494 Q 779 478 777 435 Q 770 275 741 191 Q 728 137 710 121 Q 697 106 669 114 Q 635 121 605 130 Q 580 136 598 114 Q 647 65 673 26 Q 683 5 705 12 Q 724 15 748 43 Q 817 116 837 391 Q 841 452 864 489 Q 882 511 872 523 Q 854 542 816 559 Q 788 572 760 559 Q 717 543 662 528 L 604 516 Z" fill="black" /></g></svg>