<?xml version='1.0' encoding='utf-8'?>
<svg xmlns="http://www.w3.org/2000/svg" version="1.1" viewBox="0 0 1024 1024"><g transform="scale(1, -1) translate(0, -900)"><path d="M 619 201 Q 607 75 621 -19 Q 624 -43 633 -57 Q 646 -72 655 -51 Q 670 -17 673 207 L 673 247 Q 673 284 673 327 L 673 364 Q 673 406 673 443 L 674 481 Q 674 521 675 555 L 676 585 Q 676 631 678 666 L 680 701 Q 680 764 702 798 Q 709 814 690 829 Q 666 848 624 859 Q 606 863 594 851 Q 584 842 596 831 Q 627 804 629 767 Q 629 733 628 689 L 628 656 Q 627 620 627 577 L 627 548 Q 626 512 625 470 L 625 436 Q 625 391 623 354 L 622 318 Q 621 275 620 238 L 619 201 Z" fill="black" /></g></svg>