<?xml version='1.0' encoding='utf-8'?>
<svg xmlns="http://www.w3.org/2000/svg" version="1.1" viewBox="0 0 1024 1024"><g transform="scale(1, -1) translate(0, -900)"><path d="M 474 614 Q 461 645 452 697 Q 451 710 445 714 Q 439 718 436 702 Q 421 638 411 627 Q 404 617 384 611 Q 315 592 268 604 Q 253 610 250 620 Q 244 635 244 667 L 245 683 Q 248 728 258 749 Q 267 773 252 785 Q 212 813 201 811 Q 189 807 195 793 Q 211 765 208 721 Q 207 613 227 589 Q 245 571 290 565 Q 327 561 387 564 Q 441 568 461 579 Q 483 591 474 614 Z" fill="black" /></g></svg>