<?xml version='1.0' encoding='utf-8'?>
<svg xmlns="http://www.w3.org/2000/svg" version="1.1" viewBox="0 0 1024 1024"><g transform="scale(1, -1) translate(0, -900)"><path d="M 487 -28 Q 491 -52 498 -61 Q 504 -68 511 -66 Q 532 -51 537 91 L 538 132 Q 538 147 536 192 L 536 228 Q 536 253 537 285 L 537 319 Q 537 347 538 378 L 539 405 Q 539 417 540 429 Q 540 453 544 471 L 550 503 Q 550 504 551 505 Q 554 521 540 531 Q 509 552 495 554 Q 483 558 468 550 Q 459 543 466 533 Q 482 499 485 492 L 488 463 Q 488 435 488 399 L 488 371 Q 487 343 488 311 L 487 280 Q 486 252 485 220 L 485 185 Q 485 157 484 126 L 484 86 Q 483 4 487 -28 Z" fill="black" /></g></svg>