<?xml version='1.0' encoding='utf-8'?>
<svg xmlns="http://www.w3.org/2000/svg" version="1.1" viewBox="0 0 1024 1024"><g transform="scale(1, -1) translate(0, -900)"><path d="M 958 93 Q 979 102 971 125 Q 956 176 951 247 Q 948 284 941 292 Q 934 296 929 285 Q 902 165 865 136 Q 829 117 768 139 Q 749 146 740 159 Q 719 195 725 347 Q 728 474 745 560 Q 749 597 783 629 Q 796 647 780 660 Q 758 676 709 692 Q 690 696 671 684 Q 632 656 565 637 C 536 628 543 597 572 603 Q 593 603 652 627 Q 667 630 673 625 Q 679 622 679 609 Q 676 159 701 127 Q 708 115 725 104 Q 812 43 952 91 Q 955 92 958 93 Z" fill="black" /></g></svg>