<?xml version='1.0' encoding='utf-8'?>
<svg xmlns="http://www.w3.org/2000/svg" version="1.1" viewBox="0 0 1024 1024"><g transform="scale(1, -1) translate(0, -900)"><path d="M 400 368 Q 412 369 429 374 Q 580 405 603 394 Q 616 390 620 362 Q 636 188 626 52 Q 625 24 609 19 Q 599 19 555 47 Q 543 53 542 45 Q 541 36 554 24 Q 587 -15 610 -52 Q 623 -71 641 -73 Q 657 -69 678 -21 Q 703 28 699 78 Q 689 198 680 308 Q 676 351 693 386 Q 706 402 691 417 Q 672 433 632 448 Q 614 457 560 434 Q 395 398 388 396 C 359 389 371 362 400 368 Z" fill="black" /></g></svg>