<?xml version='1.0' encoding='utf-8'?>
<svg xmlns="http://www.w3.org/2000/svg" version="1.1" viewBox="0 0 1024 1024"><g transform="scale(1, -1) translate(0, -900)"><path d="M 737 91 Q 721 70 705 73 Q 678 80 640 89 Q 624 93 623 90 Q 623 86 640 70 Q 674 36 692 -4 Q 702 -20 712 -24 Q 719 -27 739 -11 Q 796 35 834 110 Q 871 189 912 411 Q 918 438 931 450 Q 944 462 931 478 Q 915 494 884 512 Q 862 525 834 518 Q 806 509 778 504 Q 757 500 678 487 Q 596 475 581 472 Q 566 463 560 477 Q 560 490 644 613 Q 687 670 706 677 Q 719 684 719 689 Q 720 698 713 703 Q 689 725 660 735 Q 644 744 565 716 Q 483 698 463 697 Q 447 697 444 692 Q 441 686 447 678 Q 454 666 471 658 Q 484 649 530 659 Q 626 692 629 680 Q 629 656 548 533 Q 485 455 488 440 Q 488 430 494 420 Q 497 410 526 421 Q 536 425 551 428 L 583 435 Q 622 447 679 456 L 722 463 Q 786 473 820 473 Q 844 473 847 462 Q 865 372 799 196 Q 760 118 742 96 Q 739 95 737 91 Z" fill="black" /></g></svg>