<?xml version='1.0' encoding='utf-8'?>
<svg xmlns="http://www.w3.org/2000/svg" version="1.1" viewBox="0 0 1024 1024"><g transform="scale(1, -1) translate(0, -900)"><path d="M 682 497 Q 683 358 686 132 Q 686 108 674 99 Q 668 95 594 107 Q 560 119 563 108 Q 564 101 586 86 Q 653 35 670 6 Q 691 -28 707 -29 Q 722 -30 736 6 Q 754 54 750 130 Q 734 316 733 502 L 733 547 Q 733 695 749 760 Q 765 791 708 814 Q 672 832 653 824 Q 634 817 652 794 Q 674 766 677 731 Q 678 712 682 537 L 682 497 Z" fill="black" /></g></svg>