<?xml version='1.0' encoding='utf-8'?>
<svg xmlns="http://www.w3.org/2000/svg" version="1.1" viewBox="0 0 1024 1024"><g transform="scale(1, -1) translate(0, -900)"><path d="M 238 669 Q 251 675 297 691 Q 316 698 322 688 Q 335 652 340 368 Q 341 140 326 113 Q 325 113 251 116 Q 230 120 233 111 Q 290 69 322 38 Q 335 19 352 15 Q 361 12 369 22 Q 408 73 404 127 Q 371 625 398 677 Q 410 696 397 706 Q 375 725 339 739 Q 320 746 305 738 Q 280 722 264 715 Q 248 709 222 702 C 193 694 210 658 238 669 Z" fill="black" /></g></svg>