<?xml version='1.0' encoding='utf-8'?>
<svg xmlns="http://www.w3.org/2000/svg" version="1.1" viewBox="0 0 1024 1024"><g transform="scale(1, -1) translate(0, -900)"><path d="M 561 290 Q 604 321 684 341 Q 721 351 744 345 Q 768 338 770 299 Q 763 199 715 119 Q 699 94 685 89 Q 669 83 597 105 Q 581 114 578 106 Q 578 99 590 87 Q 629 44 653 6 Q 663 -7 675 -7 Q 691 -8 712 5 Q 781 71 813 210 Q 832 318 840 328 Q 853 341 842 354 Q 824 370 784 388 Q 760 400 687 373 Q 686 373 628 361 Q 603 357 614 382 Q 639 437 650 449 Q 663 465 650 479 Q 646 483 640 485 C 621 508 580 503 581 473 Q 590 449 562 384 Q 555 369 530 349 Q 514 333 517 317 Q 518 302 536 288 Q 548 278 561 290 Z" fill="black" /></g></svg>