<?xml version='1.0' encoding='utf-8'?>
<svg xmlns="http://www.w3.org/2000/svg" version="1.1" viewBox="0 0 1024 1024"><g transform="scale(1, -1) translate(0, -900)"><path d="M 241 692 Q 253 695 328 714 Q 347 718 353 709 Q 365 670 367 373 Q 364 145 351 121 Q 347 117 330 120 Q 302 132 271 144 Q 252 154 252 144 Q 307 83 336 42 Q 348 23 363 17 Q 372 13 381 22 Q 424 67 425 122 Q 416 309 417 613 Q 416 671 430 696 Q 443 715 430 726 Q 409 745 372 760 Q 354 767 304 743 Q 277 733 220 723 C 191 717 212 685 241 692 Z" fill="black" /></g></svg>