<?xml version='1.0' encoding='utf-8'?>
<svg xmlns="http://www.w3.org/2000/svg" version="1.1" viewBox="0 0 1024 1024"><g transform="scale(1, -1) translate(0, -900)"><path d="M 268 669 Q 289 669 381 696 Q 400 702 407 691 Q 422 651 423 368 Q 420 140 408 122 Q 404 116 385 120 Q 360 129 332 137 Q 311 146 312 135 Q 366 80 395 39 Q 408 20 424 13 Q 434 9 443 19 Q 488 70 487 126 Q 477 303 475 591 Q 474 652 487 679 Q 500 698 487 710 Q 465 729 426 745 Q 407 752 391 744 Q 357 725 335 717 Q 310 708 266 701 C 236 696 238 664 268 669 Z" fill="black" /></g></svg>