<?xml version='1.0' encoding='utf-8'?>
<svg xmlns="http://www.w3.org/2000/svg" version="1.1" viewBox="0 0 1024 1024"><g transform="scale(1, -1) translate(0, -900)"><path d="M 405 171 Q 398 345 400 607 Q 399 662 411 685 Q 423 704 411 714 Q 390 730 356 745 Q 337 754 295 728 Q 277 721 230 708 C 201 700 211 670 240 678 Q 247 679 316 700 Q 334 707 339 698 Q 354 653 352 373 Q 349 147 333 120 Q 329 117 263 124 Q 244 128 245 119 Q 297 79 327 48 Q 340 30 355 26 Q 364 22 372 32 Q 405 77 406 149 L 405 171 Z" fill="black" /></g></svg>