<?xml version='1.0' encoding='utf-8'?>
<svg xmlns="http://www.w3.org/2000/svg" version="1.1" viewBox="0 0 1024 1024"><g transform="scale(1, -1) translate(0, -900)"><path d="M 250 726 Q 256 729 263 731 Q 291 741 321 751 Q 339 758 345 749 Q 358 713 356 428 Q 350 197 336 178 Q 332 172 311 177 Q 287 181 263 187 Q 244 193 244 183 Q 296 137 327 101 Q 340 82 356 77 Q 365 73 373 83 Q 415 131 414 186 Q 393 681 418 731 Q 418 734 420 735 Q 432 754 420 765 Q 398 783 362 797 Q 341 806 291 775 Q 252 763 235 758 C 206 749 222 716 250 726 Z" fill="black" /></g></svg>