<?xml version='1.0' encoding='utf-8'?>
<svg xmlns="http://www.w3.org/2000/svg" version="1.1" viewBox="0 0 1024 1024"><g transform="scale(1, -1) translate(0, -900)"><path d="M 579 687 Q 586 688 594 692 Q 678 723 681 723 Q 688 722 689 708 Q 683 659 677 617 Q 667 568 676 533 Q 682 508 703 493 Q 734 474 797 473 Q 858 473 889 489 Q 904 493 896 509 Q 883 527 865 537 Q 853 544 831 535 Q 797 520 756 523 Q 729 524 722 544 Q 709 566 722 632 Q 726 672 766 712 Q 784 727 767 741 Q 745 760 719 771 Q 712 775 632 740 Q 614 734 556 720 C 527 713 551 677 579 687 Z" fill="black" /></g></svg>