<?xml version='1.0' encoding='utf-8'?>
<svg xmlns="http://www.w3.org/2000/svg" version="1.1" viewBox="0 0 1024 1024"><g transform="scale(1, -1) translate(0, -900)"><path d="M 233 700 L 303 719 Q 322 723 328 713 Q 335 694 338 663 Q 350 368 338 188 Q 337 163 329 151 Q 325 148 258 159 Q 239 165 241 155 Q 292 112 321 78 Q 334 60 349 56 Q 358 52 366 62 Q 403 111 402 160 Q 380 544 390 663 Q 393 688 401 703 Q 413 721 401 731 Q 380 749 346 763 Q 328 770 313 763 Q 285 747 268 742 Q 249 736 218 730 C 189 724 204 692 233 700 Z" fill="black" /></g></svg>