<?xml version='1.0' encoding='utf-8'?>
<svg xmlns="http://www.w3.org/2000/svg" version="1.1" viewBox="0 0 1024 1024"><g transform="scale(1, -1) translate(0, -900)"><path d="M 668 188 Q 668 189 669 189 Q 706 249 739 344 Q 751 374 770 393 Q 789 409 775 423 Q 762 435 729 445 Q 704 452 677 436 Q 649 424 612 412 Q 575 400 511 391 Q 496 390 492 382 Q 488 375 507 367 Q 544 354 596 370 Q 648 392 659 392 Q 684 392 680 365 Q 665 293 631 224 L 607 189 Q 543 117 439 84 Q 426 78 438 71 Q 444 67 482 69 Q 566 76 637 151 L 668 188 Z" fill="black" /></g></svg>