<?xml version='1.0' encoding='utf-8'?>
<svg xmlns="http://www.w3.org/2000/svg" version="1.1" viewBox="0 0 1024 1024"><g transform="scale(1, -1) translate(0, -900)"><path d="M 251 678 Q 251 679 324 700 Q 343 706 349 696 Q 377 621 364 219 Q 360 143 351 126 Q 345 122 263 136 Q 244 140 245 131 Q 309 85 345 50 Q 360 32 375 27 Q 385 24 392 34 Q 431 83 429 139 Q 417 314 415 601 Q 412 659 426 685 Q 438 704 426 714 Q 404 733 367 747 Q 348 756 302 730 Q 271 718 231 708 C 202 700 222 669 251 678 Z" fill="black" /></g></svg>