<?xml version='1.0' encoding='utf-8'?>
<svg xmlns="http://www.w3.org/2000/svg" version="1.1" viewBox="0 0 1024 1024"><g transform="scale(1, -1) translate(0, -900)"><path d="M 667 159 Q 712 226 752 340 Q 764 371 784 391 Q 803 407 789 421 Q 774 434 742 444 Q 717 451 689 436 Q 667 426 641 416 L 599 403 Q 557 393 494 383 Q 481 382 476 374 Q 472 367 491 359 Q 530 346 579 363 Q 657 391 671 391 Q 696 390 690 363 Q 672 270 627 195 L 602 161 Q 535 86 416 49 Q 401 43 414 35 Q 420 31 463 33 Q 547 39 634 121 L 667 159 Z" fill="black" /></g></svg>