<?xml version='1.0' encoding='utf-8'?>
<svg xmlns="http://www.w3.org/2000/svg" version="1.1" viewBox="0 0 1024 1024"><g transform="scale(1, -1) translate(0, -900)"><path d="M 951 81 Q 929 129 914 212 Q 910 227 905 232 Q 896 239 893 223 Q 869 118 842 100 Q 818 81 713 89 Q 653 101 641 131 Q 617 179 618 315 L 618 351 Q 618 466 622 550 L 624 601 Q 628 703 641 751 Q 648 772 619 793 Q 594 809 574 820 Q 555 832 539 821 Q 527 815 548 788 Q 572 754 573 709 Q 574 669 575 586 L 574 538 Q 571 385 567 336 L 566 296 Q 563 139 618 73 Q 658 25 808 24 Q 875 23 928 42 Q 964 52 951 81 Z" fill="black" /></g></svg>