<?xml version='1.0' encoding='utf-8'?>
<svg xmlns="http://www.w3.org/2000/svg" version="1.1" viewBox="0 0 1024 1024"><g transform="scale(1, -1) translate(0, -900)"><path d="M 618 315 Q 690 339 719 341 C 749 345 761 384 732 378 Q 671 366 618 351 L 567 336 Q 521 323 485 308 Q 470 304 474 322 Q 486 409 477 423 Q 464 439 441 451 Q 431 457 422 455 Q 412 451 419 433 Q 438 390 430 347 Q 426 307 408 288 Q 392 272 400 259 Q 410 246 427 236 Q 440 230 448 238 Q 466 263 566 296 L 618 315 Z" fill="black" /></g></svg>