<?xml version='1.0' encoding='utf-8'?>
<svg xmlns="http://www.w3.org/2000/svg" version="1.1" viewBox="0 0 1024 1024"><g transform="scale(1, -1) translate(0, -900)"><path d="M 237 644 Q 243 647 304 663 Q 323 667 329 657 Q 353 596 339 223 Q 332 121 324 108 Q 323 108 255 111 Q 236 117 237 107 Q 288 64 316 32 Q 329 13 345 8 Q 355 4 363 14 Q 402 65 401 118 Q 377 587 406 644 Q 419 663 406 674 Q 385 693 349 708 Q 330 715 315 709 Q 287 693 270 687 Q 254 683 224 676 C 195 669 208 635 237 644 Z" fill="black" /></g></svg>