<?xml version='1.0' encoding='utf-8'?>
<svg xmlns="http://www.w3.org/2000/svg" version="1.1" viewBox="0 0 1024 1024"><g transform="scale(1, -1) translate(0, -900)"><path d="M 644 372 Q 644 375 645 377 L 648 419 Q 652 485 656 547 L 660 598 Q 660 668 686 727 Q 693 740 682 753 Q 660 772 620 783 Q 595 790 585 783 Q 576 776 584 763 Q 606 726 609 678 Q 610 632 610 584 L 609 537 Q 608 474 602 412 L 598 370 Q 583 223 504 148 Q 473 123 429 95 Q 416 88 416 83 Q 417 79 429 79 Q 442 75 476 88 Q 587 124 626 254 Q 633 285 640 323 L 644 372 Z" fill="black" /></g></svg>