<?xml version='1.0' encoding='utf-8'?>
<svg xmlns="http://www.w3.org/2000/svg" version="1.1" viewBox="0 0 1024 1024"><g transform="scale(1, -1) translate(0, -900)"><path d="M 209 668 Q 215 668 284 687 Q 303 691 309 681 Q 316 662 318 631 Q 325 339 310 161 Q 309 133 300 121 Q 294 114 274 120 Q 247 124 219 131 Q 200 137 201 127 Q 259 81 292 44 Q 305 25 321 20 Q 330 16 338 26 Q 380 74 378 130 Q 357 616 384 664 Q 384 667 386 668 Q 398 687 386 698 Q 365 717 328 732 Q 310 739 295 733 Q 267 717 250 711 Q 234 707 204 700 C 175 693 180 661 209 668 Z" fill="black" /></g></svg>