<?xml version='1.0' encoding='utf-8'?>
<svg xmlns="http://www.w3.org/2000/svg" version="1.1" viewBox="0 0 1024 1024"><g transform="scale(1, -1) translate(0, -900)"><path d="M 252 673 Q 259 674 267 677 Q 298 687 328 696 Q 347 703 353 693 Q 368 653 362 372 Q 356 141 340 119 Q 334 112 313 118 Q 291 121 267 123 Q 248 129 249 119 Q 301 76 333 43 Q 346 24 362 19 Q 371 16 379 26 Q 419 68 418 130 Q 411 308 416 597 Q 415 655 428 679 Q 441 698 428 709 Q 407 728 371 742 Q 352 751 304 724 Q 280 715 240 705 C 211 697 223 665 252 673 Z" fill="black" /></g></svg>