<?xml version='1.0' encoding='utf-8'?>
<svg xmlns="http://www.w3.org/2000/svg" version="1.1" viewBox="0 0 1024 1024"><g transform="scale(1, -1) translate(0, -900)"><path d="M 239 705 Q 263 709 323 726 Q 342 732 347 722 Q 362 677 360 388 Q 357 156 342 133 Q 338 127 319 132 Q 294 139 266 146 Q 247 153 248 144 Q 302 95 332 59 Q 345 41 359 36 Q 368 33 376 42 Q 416 88 415 139 Q 406 326 408 631 Q 407 686 420 710 Q 432 729 420 738 Q 399 756 365 770 Q 347 777 333 770 Q 305 754 286 747 Q 265 740 224 733 C 195 727 210 699 239 705 Z" fill="black" /></g></svg>