<?xml version='1.0' encoding='utf-8'?>
<svg xmlns="http://www.w3.org/2000/svg" version="1.1" viewBox="0 0 1024 1024"><g transform="scale(1, -1) translate(0, -900)"><path d="M 409 369 Q 416 372 427 374 Q 572 404 595 393 Q 608 387 610 357 Q 632 191 627 59 Q 627 32 612 27 Q 602 23 546 34 Q 533 37 534 28 Q 535 21 551 11 Q 588 -19 615 -50 Q 631 -66 647 -65 Q 663 -61 681 -13 Q 705 36 698 85 Q 685 200 672 307 Q 668 349 683 384 Q 695 400 681 414 Q 662 430 623 443 Q 601 453 584 441 Q 565 432 527 422 Q 445 404 401 396 C 372 390 380 361 409 369 Z" fill="black" /></g></svg>