<?xml version='1.0' encoding='utf-8'?>
<svg xmlns="http://www.w3.org/2000/svg" version="1.1" viewBox="0 0 1024 1024"><g transform="scale(1, -1) translate(0, -900)"><path d="M 234 688 Q 243 688 316 707 Q 335 711 341 701 Q 365 638 351 250 Q 344 147 336 134 Q 332 128 311 133 Q 283 140 255 147 Q 236 153 236 143 Q 294 94 327 57 Q 340 38 356 33 Q 365 29 374 39 Q 414 90 413 142 Q 389 631 418 688 Q 431 707 418 718 Q 397 737 361 752 Q 342 759 327 753 Q 299 737 282 731 Q 263 725 225 718 C 196 712 205 682 234 688 Z" fill="black" /></g></svg>