<?xml version='1.0' encoding='utf-8'?>
<svg xmlns="http://www.w3.org/2000/svg" version="1.1" viewBox="0 0 1024 1024"><g transform="scale(1, -1) translate(0, -900)"><path d="M 235 674 Q 250 680 301 698 Q 319 705 325 696 Q 338 660 343 368 Q 343 140 327 113 Q 323 107 302 112 Q 275 116 247 123 Q 228 129 229 119 Q 287 73 320 36 Q 333 17 349 13 Q 359 9 367 19 Q 406 70 405 123 Q 390 349 390 630 Q 390 666 401 684 Q 413 703 400 714 Q 378 732 342 746 Q 323 753 281 728 Q 256 716 219 706 C 190 697 207 663 235 674 Z" fill="black" /></g></svg>