<?xml version='1.0' encoding='utf-8'?>
<svg xmlns="http://www.w3.org/2000/svg" version="1.1" viewBox="0 0 1024 1024"><g transform="scale(1, -1) translate(0, -900)"><path d="M 698 577 Q 735 586 780 593 Q 804 599 816 586 Q 826 580 831 532 Q 843 369 835 185 Q 834 157 824 150 Q 809 143 743 168 Q 725 172 726 163 Q 726 154 739 147 Q 797 93 826 54 Q 848 32 861 35 Q 874 36 886 66 Q 905 112 906 181 Q 893 413 893 498 Q 893 538 905 564 Q 918 586 907 598 Q 895 614 847 639 Q 826 649 806 643 Q 772 631 703 614 L 649 602 Q 585 592 518 581 C 488 576 498 536 528 540 Q 538 539 553 542 Q 595 555 645 565 L 698 577 Z" fill="black" /></g></svg>