<?xml version='1.0' encoding='utf-8'?>
<svg xmlns="http://www.w3.org/2000/svg" version="1.1" viewBox="0 0 1024 1024"><g transform="scale(1, -1) translate(0, -900)"><path d="M 401 153 Q 394 325 396 595 Q 395 650 408 674 Q 420 693 408 702 Q 389 720 353 735 Q 337 742 321 735 Q 284 711 232 703 C 203 697 212 665 241 672 Q 256 675 311 691 Q 330 695 335 686 Q 342 667 345 635 Q 352 340 339 161 Q 338 133 328 119 Q 324 113 302 118 Q 278 121 255 124 Q 236 128 237 119 Q 292 79 323 48 Q 336 30 351 26 Q 360 22 368 32 Q 404 80 403 128 L 401 153 Z" fill="black" /></g></svg>