<?xml version='1.0' encoding='utf-8'?>
<svg xmlns="http://www.w3.org/2000/svg" version="1.1" viewBox="0 0 1024 1024"><g transform="scale(1, -1) translate(0, -900)"><path d="M 429 364 Q 444 364 605 400 Q 624 407 631 396 Q 635 384 637 365 Q 647 187 641 78 Q 640 50 631 37 Q 627 31 606 36 Q 581 40 556 46 Q 535 53 536 43 Q 591 -6 621 -44 Q 634 -63 651 -69 Q 661 -73 670 -63 Q 713 -14 712 45 Q 685 336 711 382 Q 724 403 711 413 Q 689 432 650 449 Q 631 456 615 449 Q 537 407 422 395 C 392 391 399 360 429 364 Z" fill="black" /></g></svg>