<?xml version='1.0' encoding='utf-8'?>
<svg xmlns="http://www.w3.org/2000/svg" version="1.1" viewBox="0 0 1024 1024"><g transform="scale(1, -1) translate(0, -900)"><path d="M 398 377 Q 411 378 426 382 Q 580 415 605 404 Q 618 398 621 370 Q 639 202 633 71 Q 632 44 617 39 Q 604 35 538 54 Q 525 57 526 48 Q 527 41 543 31 Q 583 -3 615 -37 Q 631 -55 650 -53 Q 666 -49 685 -2 Q 709 47 704 95 Q 692 212 682 318 Q 678 361 694 395 Q 707 411 692 425 Q 673 441 633 455 Q 611 465 593 453 Q 572 444 533 433 Q 436 412 390 403 C 361 397 368 372 398 377 Z" fill="black" /></g></svg>