<?xml version='1.0' encoding='utf-8'?>
<svg xmlns="http://www.w3.org/2000/svg" version="1.1" viewBox="0 0 1024 1024"><g transform="scale(1, -1) translate(0, -900)"><path d="M 239 666 L 299 683 Q 318 687 324 677 Q 346 617 340 245 Q 337 148 328 134 Q 324 128 304 133 Q 282 136 259 139 Q 240 145 241 135 Q 293 93 322 61 Q 335 43 350 39 Q 359 36 367 45 Q 403 93 402 144 Q 390 313 386 587 Q 385 642 397 667 Q 409 686 397 695 Q 376 713 342 727 Q 324 734 309 727 Q 276 708 221 695 C 192 687 210 658 239 666 Z" fill="black" /></g></svg>