<?xml version='1.0' encoding='utf-8'?>
<svg xmlns="http://www.w3.org/2000/svg" version="1.1" viewBox="0 0 1024 1024"><g transform="scale(1, -1) translate(0, -900)"><path d="M 518 513 Q 519 443 515 375 Q 514 374 514 372 L 511 329 Q 496 214 438 142 Q 419 121 394 99 Q 384 90 384 86 Q 385 82 397 84 Q 407 81 432 94 Q 537 142 558 339 L 561 379 Q 561 389 562 398 Q 563 461 566 520 L 568 566 Q 568 624 586 666 Q 593 679 582 691 Q 560 709 520 718 Q 495 724 487 717 Q 478 710 486 698 Q 510 661 517 559 L 518 513 Z" fill="black" /></g></svg>