<?xml version='1.0' encoding='utf-8'?>
<svg xmlns="http://www.w3.org/2000/svg" version="1.1" viewBox="0 0 1024 1024"><g transform="scale(1, -1) translate(0, -900)"><path d="M 643 349 Q 643 1 651 -18 Q 652 -22 656 -28 Q 671 -44 680 -23 Q 696 26 697 355 L 697 393 Q 698 477 700 541 L 701 576 Q 702 709 725 744 Q 732 760 712 776 Q 687 795 644 807 Q 625 811 611 798 Q 601 789 614 777 Q 642 753 644 720 Q 645 662 644 567 L 644 534 Q 644 473 644 395 Q 644 391 643 385 L 643 349 Z" fill="black" /></g></svg>