<?xml version='1.0' encoding='utf-8'?>
<svg xmlns="http://www.w3.org/2000/svg" version="1.1" viewBox="0 0 1024 1024"><g transform="scale(1, -1) translate(0, -900)"><path d="M 238 697 Q 257 701 312 718 Q 331 722 336 713 Q 351 673 352 389 Q 352 163 336 136 Q 332 130 311 135 Q 289 136 267 140 Q 248 144 249 135 Q 301 95 331 64 Q 344 46 359 42 Q 368 39 376 48 Q 409 96 409 173 Q 388 539 398 668 Q 401 690 408 702 Q 420 721 408 731 Q 387 747 353 762 Q 335 769 321 762 Q 284 741 223 726 C 194 718 209 690 238 697 Z" fill="black" /></g></svg>