<?xml version='1.0' encoding='utf-8'?>
<svg xmlns="http://www.w3.org/2000/svg" version="1.1" viewBox="0 0 1024 1024"><g transform="scale(1, -1) translate(0, -900)"><path d="M 694 356 Q 694 179 672 96 Q 662 56 690 -10 Q 697 -28 705 -31 Q 712 -38 719 -30 Q 749 -9 746 56 Q 745 95 742 360 L 741 405 Q 741 472 741 553 L 741 609 Q 742 691 757 750 Q 766 766 763 780 Q 756 790 697 824 Q 672 842 651 825 Q 645 819 653 804 Q 687 755 689 705 Q 690 653 693 595 L 694 544 Q 694 474 694 398 L 694 356 Z" fill="black" /></g></svg>