<?xml version='1.0' encoding='utf-8'?>
<svg xmlns="http://www.w3.org/2000/svg" version="1.1" viewBox="0 0 1024 1024"><g transform="scale(1, -1) translate(0, -900)"><path d="M 573 200 Q 606 272 626 384 L 633 434 Q 636 459 639 481 L 643 533 Q 643 540 644 549 Q 647 663 669 721 Q 673 733 665 741 Q 646 757 610 773 Q 588 782 571 776 Q 552 769 567 751 Q 595 721 596 690 Q 596 599 590 522 L 585 471 Q 557 231 457 114 Q 435 90 407 62 Q 395 55 393 50 Q 389 43 406 44 Q 467 53 550 160 Q 554 169 560 176 L 573 200 Z" fill="black" /></g></svg>