<?xml version='1.0' encoding='utf-8'?>
<svg xmlns="http://www.w3.org/2000/svg" version="1.1" viewBox="0 0 1024 1024"><g transform="scale(1, -1) translate(0, -900)"><path d="M 240 717 Q 240 718 243 718 Q 271 725 299 733 Q 320 736 324 725 Q 346 665 340 293 Q 337 194 328 179 Q 325 176 251 184 Q 232 188 233 179 Q 291 139 324 107 Q 337 91 352 86 Q 361 82 369 92 Q 405 146 402 192 Q 390 361 386 635 Q 385 690 398 715 Q 410 734 398 744 Q 377 762 343 776 Q 322 785 276 759 Q 227 747 223 746 C 194 739 211 709 240 717 Z" fill="black" /></g></svg>