<?xml version='1.0' encoding='utf-8'?>
<svg xmlns="http://www.w3.org/2000/svg" version="1.1" viewBox="0 0 1024 1024"><g transform="scale(1, -1) translate(0, -900)"><path d="M 667 587 Q 710 642 743 718 Q 755 745 773 761 Q 792 776 780 789 Q 767 801 738 812 Q 722 818 652 793 Q 538 771 515 768 Q 502 767 498 761 Q 494 754 511 747 Q 545 734 591 747 Q 660 768 673 767 Q 695 764 688 741 Q 673 675 631 614 L 606 587 Q 548 545 476 523 Q 463 519 474 511 Q 478 507 513 510 Q 577 514 636 559 L 667 587 Z" fill="black" /></g></svg>