<?xml version='1.0' encoding='utf-8'?>
<svg xmlns="http://www.w3.org/2000/svg" version="1.1" viewBox="0 0 1024 1024"><g transform="scale(1, -1) translate(0, -900)"><path d="M 228 684 Q 261 691 292 702 Q 310 706 315 697 Q 339 633 326 256 Q 323 154 312 140 Q 308 134 287 139 Q 265 140 243 144 Q 224 148 225 139 Q 277 99 307 68 Q 320 50 335 46 Q 344 43 352 52 Q 388 106 387 152 Q 377 324 377 607 Q 376 662 388 686 Q 400 705 388 714 Q 367 732 333 746 Q 315 753 301 746 Q 273 730 256 723 Q 237 717 203 711 C 174 705 199 677 228 684 Z" fill="black" /></g></svg>