<?xml version='1.0' encoding='utf-8'?>
<svg xmlns="http://www.w3.org/2000/svg" version="1.1" viewBox="0 0 1024 1024"><g transform="scale(1, -1) translate(0, -900)"><path d="M 757 308 Q 776 281 793 273 Q 803 264 820 287 Q 839 320 872 493 Q 881 527 906 555 Q 919 568 908 583 Q 890 602 844 630 Q 826 639 730 617 Q 717 617 679 607 L 627 598 Q 608 595 588 591 Q 527 578 482 571 C 452 566 485 530 514 538 Q 560 551 626 562 L 678 571 Q 784 595 803 577 Q 819 558 816 538 Q 785 351 765 338 C 751 315 751 315 757 308 Z" fill="black" /></g></svg>