<?xml version='1.0' encoding='utf-8'?>
<svg xmlns="http://www.w3.org/2000/svg" version="1.1" viewBox="0 0 1024 1024"><g transform="scale(1, -1) translate(0, -900)"><path d="M 250 677 Q 254 678 316 697 Q 334 703 340 693 Q 352 660 357 366 Q 354 135 341 116 Q 337 110 318 115 Q 288 122 258 131 Q 239 137 241 128 Q 299 79 333 42 Q 346 24 360 20 Q 369 16 377 26 Q 416 71 414 124 Q 392 520 402 648 Q 405 670 412 682 Q 424 701 412 711 Q 391 727 357 742 Q 339 749 324 741 Q 300 726 284 720 Q 268 716 241 708 C 212 700 221 668 250 677 Z" fill="black" /></g></svg>