<?xml version='1.0' encoding='utf-8'?>
<svg xmlns="http://www.w3.org/2000/svg" version="1.1" viewBox="0 0 1024 1024"><g transform="scale(1, -1) translate(0, -900)"><path d="M 729 526 Q 745 551 782 688 Q 794 722 821 747 Q 836 760 824 776 Q 808 795 763 826 Q 748 835 664 823 Q 646 823 435 803 Q 345 793 274 789 C 244 787 277 746 306 752 Q 378 767 482 776 L 517 779 Q 578 786 655 789 Q 704 793 718 775 Q 731 759 727 743 Q 697 601 680 582 C 666 555 665 552 671 544 Q 684 522 700 513 Q 712 503 729 526 Z" fill="black" /></g></svg>