<?xml version='1.0' encoding='utf-8'?>
<svg xmlns="http://www.w3.org/2000/svg" version="1.1" viewBox="0 0 1024 1024"><g transform="scale(1, -1) translate(0, -900)"><path d="M 401 357 Q 411 358 426 362 Q 583 395 609 384 Q 622 377 622 347 Q 635 190 628 67 Q 627 42 612 37 Q 599 33 526 46 Q 513 49 514 40 Q 515 31 532 23 Q 575 -10 609 -45 Q 627 -63 645 -60 Q 661 -56 681 -11 Q 705 35 701 82 Q 694 194 686 298 Q 683 338 700 372 Q 713 388 698 403 Q 679 419 639 435 Q 620 444 565 421 Q 436 394 393 384 C 364 377 372 351 401 357 Z" fill="black" /></g></svg>