<?xml version='1.0' encoding='utf-8'?>
<svg xmlns="http://www.w3.org/2000/svg" version="1.1" viewBox="0 0 1024 1024"><g transform="scale(1, -1) translate(0, -900)"><path d="M 785 398 Q 785 467 812 513 Q 828 535 818 545 Q 802 564 766 577 Q 741 590 714 576 Q 678 560 632 546 L 576 531 Q 447 510 434 509 Q 415 510 414 499 Q 413 489 436 476 Q 464 460 488 468 Q 528 481 570 492 L 625 506 Q 665 516 709 523 Q 724 524 728 518 Q 737 500 734 454 Q 725 283 695 191 Q 679 134 661 117 Q 651 104 626 111 Q 593 120 563 129 Q 541 135 557 115 Q 603 67 627 31 Q 637 10 657 17 Q 678 20 701 49 Q 764 119 783 370 L 785 398 Z" fill="black" /></g></svg>