<?xml version='1.0' encoding='utf-8'?>
<svg xmlns="http://www.w3.org/2000/svg" version="1.1" viewBox="0 0 1024 1024"><g transform="scale(1, -1) translate(0, -900)"><path d="M 393 408 Q 405 409 417 412 Q 600 446 628 433 Q 641 427 644 398 Q 660 211 652 63 Q 651 33 633 27 Q 620 26 554 56 Q 542 60 542 53 Q 542 44 556 33 Q 598 -6 628 -46 Q 646 -65 665 -65 Q 683 -61 704 -9 Q 731 43 725 96 Q 715 223 704 339 Q 700 385 718 422 Q 730 438 716 453 Q 697 469 658 484 Q 640 493 582 471 Q 458 447 387 436 C 357 431 363 403 393 408 Z" fill="black" /></g></svg>