<?xml version='1.0' encoding='utf-8'?>
<svg xmlns="http://www.w3.org/2000/svg" version="1.1" viewBox="0 0 1024 1024"><g transform="scale(1, -1) translate(0, -900)"><path d="M 654 501 Q 673 467 692 457 Q 704 447 721 470 Q 736 492 770 616 Q 782 650 809 675 Q 824 688 812 704 Q 796 723 751 754 Q 736 763 655 751 Q 616 750 533 739 L 478 734 Q 459 733 440 731 Q 352 719 284 717 Q 283 717 283 716 C 253 714 286 676 316 680 Q 320 680 325 680 Q 388 693 479 702 L 531 706 Q 684 728 706 703 Q 718 688 714 674 Q 686 536 669 525 C 654 501 654 501 654 501 Z" fill="black" /></g></svg>