<?xml version='1.0' encoding='utf-8'?>
<svg xmlns="http://www.w3.org/2000/svg" version="1.1" viewBox="0 0 1024 1024"><g transform="scale(1, -1) translate(0, -900)"><path d="M 381 341 Q 374 680 392 714 Q 404 732 392 742 Q 371 760 337 774 Q 319 781 305 774 Q 277 758 258 751 Q 239 745 204 738 C 175 732 198 702 227 710 L 295 730 Q 314 736 319 726 Q 341 666 328 284 Q 319 181 313 167 Q 309 164 239 172 Q 220 176 221 167 Q 276 127 307 96 Q 320 78 335 74 Q 344 70 352 80 Q 385 125 386 196 Q 382 254 381 321 L 381 341 Z" fill="black" /></g></svg>