<?xml version='1.0' encoding='utf-8'?>
<svg xmlns="http://www.w3.org/2000/svg" version="1.1" viewBox="0 0 1024 1024"><g transform="scale(1, -1) translate(0, -900)"><path d="M 758 430 Q 779 402 797 392 Q 809 383 825 408 Q 844 442 878 625 Q 888 659 914 688 Q 929 701 916 718 Q 898 737 850 766 Q 832 775 741 756 Q 729 756 595 732 Q 525 719 471 713 Q 467 713 467 712 C 437 708 487 672 516 679 Q 552 689 605 697 L 659 705 Q 788 730 805 712 Q 823 693 819 672 Q 789 483 773 466 C 761 439 757 431 758 430 Z" fill="black" /></g></svg>