<?xml version='1.0' encoding='utf-8'?>
<svg xmlns="http://www.w3.org/2000/svg" version="1.1" viewBox="0 0 1024 1024"><g transform="scale(1, -1) translate(0, -900)"><path d="M 662 413 Q 698 245 800 131 Q 818 112 839 93 Q 894 51 929 43 Q 956 43 954 78 Q 944 109 948 258 Q 948 271 942 273 Q 936 274 932 260 Q 920 227 909 196 Q 894 154 879 155 Q 861 158 827 193 Q 791 230 762 285 Q 735 330 704 426 L 696 471 Q 690 537 705 575 Q 712 599 661 630 C 636 647 610 639 623 612 Q 639 587 642 545 Q 645 499 653 455 L 662 413 Z" fill="black" /></g></svg>