<?xml version='1.0' encoding='utf-8'?>
<svg xmlns="http://www.w3.org/2000/svg" version="1.1" viewBox="0 0 1024 1024"><g transform="scale(1, -1) translate(0, -900)"><path d="M 243 729 Q 244 730 247 731 Q 281 738 315 748 Q 334 752 340 741 Q 362 681 356 299 Q 353 197 345 187 Q 341 181 321 185 Q 293 192 263 199 Q 244 205 245 195 Q 303 149 338 114 Q 351 96 365 91 Q 374 88 382 97 Q 419 151 418 196 Q 406 370 402 651 Q 401 706 414 731 Q 426 750 414 760 Q 393 778 358 792 Q 340 799 326 791 Q 296 775 277 769 Q 259 765 227 758 C 198 752 214 721 243 729 Z" fill="black" /></g></svg>