<?xml version='1.0' encoding='utf-8'?>
<svg xmlns="http://www.w3.org/2000/svg" version="1.1" viewBox="0 0 1024 1024"><g transform="scale(1, -1) translate(0, -900)"><path d="M 410 260 Q 398 666 419 701 Q 429 720 419 729 Q 398 747 364 760 Q 346 767 332 760 Q 298 738 236 721 C 207 712 221 684 250 693 L 324 716 Q 342 723 347 714 Q 362 666 360 375 Q 357 138 341 114 Q 338 111 271 119 Q 252 125 253 115 Q 305 73 334 41 Q 347 23 362 19 Q 371 15 379 25 Q 412 71 414 139 Q 411 190 410 248 L 410 260 Z" fill="black" /></g></svg>