<?xml version='1.0' encoding='utf-8'?>
<svg xmlns="http://www.w3.org/2000/svg" version="1.1" viewBox="0 0 1024 1024"><g transform="scale(1, -1) translate(0, -900)"><path d="M 516 592 Q 504 601 469 610 Q 453 611 448 607 Q 441 600 452 583 Q 482 547 485 425 Q 485 245 443 181 Q 436 175 430 166 Q 420 156 426 134 Q 435 107 448 96 Q 460 87 473 101 Q 513 150 635 251 Q 651 261 652 270 Q 653 276 648 275 Q 639 275 541 224 Q 532 220 530 223 Q 523 226 524 243 Q 525 532 530 564 Q 530 570 530 574 C 531 585 531 585 516 592 Z" fill="black" /></g></svg>