<?xml version='1.0' encoding='utf-8'?>
<svg xmlns="http://www.w3.org/2000/svg" version="1.1" viewBox="0 0 1024 1024"><g transform="scale(1, -1) translate(0, -900)"><path d="M 216 384 Q 216 387 217 389 Q 223 444 225 499 L 225 536 Q 225 659 226 670 C 227 698 227 698 219 702 Q 203 714 176 721 Q 157 730 145 723 Q 135 716 143 703 Q 164 679 169 615 Q 169 603 171 588 Q 181 425 155 296 Q 128 179 67 62 Q 63 55 62 49 Q 61 39 71 42 Q 101 51 165 184 Q 174 208 184 235 Q 199 287 209 344 L 216 384 Z" fill="black" /></g></svg>