<?xml version='1.0' encoding='utf-8'?>
<svg xmlns="http://www.w3.org/2000/svg" version="1.1" viewBox="0 0 1024 1024"><g transform="scale(1, -1) translate(0, -900)"><path d="M 402 137 Q 392 344 392 646 Q 392 680 403 698 Q 415 717 403 726 Q 382 742 348 757 Q 329 766 286 739 Q 253 727 224 719 C 195 710 206 682 235 690 Q 251 693 308 712 Q 326 719 331 709 Q 346 670 346 382 Q 343 150 328 128 Q 324 122 303 127 Q 275 131 247 136 Q 228 140 229 131 Q 289 88 323 56 Q 336 38 351 34 Q 360 31 368 40 Q 404 88 402 133 L 402 137 Z" fill="black" /></g></svg>