<?xml version='1.0' encoding='utf-8'?>
<svg xmlns="http://www.w3.org/2000/svg" version="1.1" viewBox="0 0 1024 1024"><g transform="scale(1, -1) translate(0, -900)"><path d="M 610 182 Q 611 86 647 59 Q 690 22 851 27 Q 924 28 953 44 Q 981 59 970 89 Q 952 135 942 218 Q 941 234 933 238 Q 926 242 922 223 Q 907 123 893 104 Q 871 80 768 75 Q 713 76 689 85 Q 668 95 664 109 Q 652 140 651 213 L 654 266 Q 660 330 675 365 Q 687 393 669 410 Q 620 447 606 443 Q 591 437 599 421 Q 618 385 613 332 Q 610 271 610 224 L 610 182 Z" fill="black" /></g></svg>