<?xml version='1.0' encoding='utf-8'?>
<svg xmlns="http://www.w3.org/2000/svg" version="1.1" viewBox="0 0 1024 1024"><g transform="scale(1, -1) translate(0, -900)"><path d="M 947 109 Q 932 136 910 217 Q 909 233 901 238 Q 894 241 891 223 Q 867 135 850 106 Q 832 84 780 71 Q 725 56 659 59 Q 602 60 558 79 Q 519 97 509 121 Q 487 169 496 279 L 498 304 Q 502 358 514 417 Q 514 418 515 420 C 518 436 518 436 502 446 Q 492 456 475 462 Q 465 466 456 462 Q 450 458 455 442 Q 465 408 463 373 Q 448 162 466 104 Q 470 74 498 50 Q 598 -28 815 10 Q 825 13 839 16 Q 891 31 942 65 Q 961 81 947 109 Z" fill="black" /></g></svg>