<?xml version='1.0' encoding='utf-8'?>
<svg xmlns="http://www.w3.org/2000/svg" version="1.1" viewBox="0 0 1024 1024"><g transform="scale(1, -1) translate(0, -900)"><path d="M 243 649 Q 277 659 312 669 Q 331 675 336 665 Q 358 605 352 220 Q 349 120 340 106 Q 336 100 316 105 Q 285 112 255 119 Q 236 125 237 115 Q 298 69 334 33 Q 347 15 362 11 Q 371 8 379 17 Q 415 65 414 116 Q 402 291 398 575 Q 397 630 409 654 Q 419 673 408 683 Q 387 699 353 714 Q 335 721 288 696 Q 261 686 228 677 C 199 669 214 641 243 649 Z" fill="black" /></g></svg>