<?xml version='1.0' encoding='utf-8'?>
<svg xmlns="http://www.w3.org/2000/svg" version="1.1" viewBox="0 0 1024 1024"><g transform="scale(1, -1) translate(0, -900)"><path d="M 715 367 Q 890 389 894 391 Q 895 394 896 395 Q 897 410 868 427 Q 847 439 719 411 L 663 401 Q 611 394 554 385 Q 535 382 533 386 Q 532 390 539 406 Q 567 473 614 596 L 632 646 Q 668 742 690 761 Q 708 776 697 787 Q 642 835 619 831 Q 609 830 616 809 Q 625 770 584 636 L 568 587 Q 517 437 467 392 Q 445 374 461 328 Q 467 312 483 319 Q 567 350 664 360 L 715 367 Z" fill="black" /></g></svg>