<?xml version='1.0' encoding='utf-8'?>
<svg xmlns="http://www.w3.org/2000/svg" version="1.1" viewBox="0 0 1024 1024"><g transform="scale(1, -1) translate(0, -900)"><path d="M 356 679 Q 386 760 404 778 Q 417 796 412 807 Q 402 825 365 853 Q 349 866 333 860 Q 321 856 328 840 Q 346 804 306 671 L 292 629 Q 265 569 259 559 Q 252 537 271 522 Q 311 509 344 488 L 381 467 Q 405 454 433 433 Q 449 423 457 423 Q 464 424 468 435 Q 472 445 463 471 Q 450 499 415 509 L 371 522 Q 346 529 314 538 Q 299 542 298 555 Q 319 597 340 641 L 356 679 Z" fill="black" /></g></svg>