<?xml version='1.0' encoding='utf-8'?>
<svg xmlns="http://www.w3.org/2000/svg" version="1.1" viewBox="0 0 1024 1024"><g transform="scale(1, -1) translate(0, -900)"><path d="M 698 706 L 698 704 L 698 703 L 636 585 L 611 553 Q 554 502 498 476 Q 489 472 490 468 Q 491 464 498 464 Q 570 464 641 522 L 676 556 Q 727 623 747 663 Q 763 688 786 706 Q 801 713 801 722 Q 801 734 774 749 Q 740 771 727 771 Q 717 770 706 762 Q 603 729 552 723 Q 518 723 515 714 Q 514 711 520 707 Q 533 695 563 691 Q 600 690 669 717 Q 688 724 697 718 Q 698 717 697 703 Q 697 707 698 706 Z" fill="black" /></g></svg>