<?xml version='1.0' encoding='utf-8'?>
<svg xmlns="http://www.w3.org/2000/svg" version="1.1" viewBox="0 0 1024 1024"><g transform="scale(1, -1) translate(0, -900)"><path d="M 234 663 Q 235 664 239 665 Q 270 672 300 682 Q 318 688 323 678 Q 336 642 334 356 Q 328 131 315 112 Q 311 109 254 121 Q 236 128 236 120 Q 279 71 303 38 Q 315 19 329 14 Q 338 10 346 19 Q 385 64 386 139 Q 370 622 395 665 Q 407 684 396 694 Q 375 712 341 726 Q 323 733 309 726 Q 281 710 264 703 Q 248 699 222 692 C 193 684 205 655 234 663 Z" fill="black" /></g></svg>