<?xml version='1.0' encoding='utf-8'?>
<svg xmlns="http://www.w3.org/2000/svg" version="1.1" viewBox="0 0 1024 1024"><g transform="scale(1, -1) translate(0, -900)"><path d="M 596 282 Q 599 304 601 326 L 603 355 Q 604 395 606 435 L 608 469 Q 609 514 612 556 L 613 587 Q 614 626 617 662 Q 617 665 617 666 L 620 708 Q 621 735 646 791 Q 653 804 642 817 Q 620 836 580 847 Q 555 854 545 847 Q 536 840 544 827 Q 566 790 569 742 Q 569 720 570 698 L 570 657 Q 570 617 569 577 L 568 548 Q 567 505 564 459 L 562 428 Q 558 388 556 346 L 553 317 Q 534 172 452 98 Q 407 62 338 26 Q 325 19 325 15 Q 326 11 337 10 Q 355 6 396 21 Q 466 40 515 92 Q 572 149 591 248 L 596 282 Z" fill="black" /></g></svg>