<?xml version='1.0' encoding='utf-8'?>
<svg xmlns="http://www.w3.org/2000/svg" version="1.1" viewBox="0 0 1024 1024"><g transform="scale(1, -1) translate(0, -900)"><path d="M 219 673 Q 226 676 235 678 Q 262 687 288 696 Q 307 702 313 693 Q 328 648 326 369 Q 323 141 308 119 Q 304 113 284 118 Q 262 122 239 126 Q 220 133 220 123 Q 271 77 299 42 Q 312 23 327 18 Q 337 14 345 23 Q 387 75 385 126 Q 376 306 377 597 Q 376 655 389 680 Q 401 699 389 710 Q 367 728 331 742 Q 312 749 297 742 Q 270 726 254 719 Q 238 713 213 706 C 184 697 190 664 219 673 Z" fill="black" /></g></svg>