<?xml version='1.0' encoding='utf-8'?>
<svg xmlns="http://www.w3.org/2000/svg" version="1.1" viewBox="0 0 1024 1024"><g transform="scale(1, -1) translate(0, -900)"><path d="M 403 453 Q 399 654 415 685 Q 428 704 415 715 Q 394 734 357 749 Q 339 756 323 750 Q 298 735 282 730 Q 264 724 233 718 C 204 712 212 682 242 687 Q 260 687 312 704 Q 333 708 337 696 Q 356 645 350 276 Q 343 143 335 130 Q 329 123 308 129 Q 281 132 255 136 Q 236 140 237 131 Q 295 88 329 54 Q 344 35 359 31 Q 369 28 377 38 Q 411 89 412 159 Q 405 276 403 435 L 403 453 Z" fill="black" /></g></svg>