<?xml version='1.0' encoding='utf-8'?>
<svg xmlns="http://www.w3.org/2000/svg" version="1.1" viewBox="0 0 1024 1024"><g transform="scale(1, -1) translate(0, -900)"><path d="M 242 684 Q 254 684 316 702 Q 335 708 341 697 Q 356 655 354 376 Q 351 148 337 128 Q 333 122 313 127 Q 286 134 259 142 Q 240 149 240 139 Q 295 88 326 51 Q 339 32 354 26 Q 364 22 372 32 Q 414 75 413 134 Q 389 627 418 684 Q 431 703 418 714 Q 397 733 360 748 Q 339 757 293 731 Q 263 722 232 715 C 203 708 213 678 242 684 Z" fill="black" /></g></svg>