<?xml version='1.0' encoding='utf-8'?>
<svg xmlns="http://www.w3.org/2000/svg" version="1.1" viewBox="0 0 1024 1024"><g transform="scale(1, -1) translate(0, -900)"><path d="M 208 331 Q 221 424 225 466 L 227 501 Q 228 537 229 621 Q 230 640 233 658 Q 234 661 234 663 C 237 684 237 684 222 692 Q 207 702 184 710 Q 165 719 153 713 Q 143 704 150 692 Q 168 670 175 610 Q 175 406 161 327 Q 155 300 150 274 Q 123 177 52 38 Q 48 31 47 25 Q 46 15 55 18 Q 73 21 103 72 Q 169 162 202 302 L 208 331 Z" fill="black" /></g></svg>