<?xml version='1.0' encoding='utf-8'?>
<svg xmlns="http://www.w3.org/2000/svg" version="1.1" viewBox="0 0 1024 1024"><g transform="scale(1, -1) translate(0, -900)"><path d="M 238 688 Q 253 691 304 706 Q 323 710 329 700 Q 344 660 345 370 Q 342 133 327 112 Q 323 105 301 111 Q 270 117 239 123 Q 220 129 221 119 Q 285 70 321 35 Q 334 16 350 12 Q 359 8 367 18 Q 406 69 405 123 Q 395 307 394 605 Q 393 663 407 689 Q 419 708 407 719 Q 385 738 348 752 Q 327 761 281 735 Q 245 723 226 720 C 197 713 209 681 238 688 Z" fill="black" /></g></svg>