<?xml version='1.0' encoding='utf-8'?>
<svg xmlns="http://www.w3.org/2000/svg" version="1.1" viewBox="0 0 1024 1024"><g transform="scale(1, -1) translate(0, -900)"><path d="M 578 477 Q 493 363 361 289 C 335 274 333 258 362 267 Q 512 312 613 443 L 639 479 Q 679 537 718 619 Q 734 647 759 666 Q 774 673 774 683 Q 773 696 744 712 Q 708 734 694 734 Q 682 733 671 724 Q 587 690 543 684 C 514 678 496 660 526 656 Q 559 644 633 675 Q 655 684 664 677 Q 671 673 652 619 Q 637 565 599 510 L 578 477 Z" fill="black" /></g></svg>