<?xml version='1.0' encoding='utf-8'?>
<svg xmlns="http://www.w3.org/2000/svg" version="1.1" viewBox="0 0 1024 1024"><g transform="scale(1, -1) translate(0, -900)"><path d="M 539 595 Q 576 580 603 589 Q 631 599 762 623 Q 784 627 793 617 Q 812 595 815 542 Q 822 376 812 268 Q 800 178 779 113 Q 769 85 757 79 Q 751 76 666 93 Q 654 96 650 93 Q 647 86 663 74 Q 706 34 730 -2 Q 751 -32 769 -25 Q 785 -21 806 10 Q 836 50 854 124 Q 873 212 875 502 Q 874 577 893 603 Q 909 622 887 639 Q 824 679 792 672 Q 788 672 785 670 Q 698 643 557 616 C 528 610 510 603 539 595 Z" fill="black" /></g></svg>