<?xml version='1.0' encoding='utf-8'?>
<svg xmlns="http://www.w3.org/2000/svg" version="1.1" viewBox="0 0 1024 1024"><g transform="scale(1, -1) translate(0, -900)"><path d="M 512 638 Q 511 639 514 639 Q 620 670 752 692 Q 774 696 785 685 Q 798 678 804 615 Q 823 405 815 167 Q 815 133 802 122 Q 787 110 710 123 Q 692 124 694 115 Q 695 108 710 102 Q 780 59 817 24 Q 839 5 853 8 Q 866 11 877 42 Q 890 90 887 159 Q 865 480 864 599 Q 863 639 875 663 Q 887 685 876 698 Q 866 713 816 737 Q 795 746 729 726 Q 603 695 485 676 C 455 671 483 630 512 638 Z" fill="black" /></g></svg>