<?xml version='1.0' encoding='utf-8'?>
<svg xmlns="http://www.w3.org/2000/svg" version="1.1" viewBox="0 0 1024 1024"><g transform="scale(1, -1) translate(0, -900)"><path d="M 239 707 Q 270 714 302 721 Q 321 725 326 714 Q 338 675 340 380 Q 337 146 323 126 Q 319 122 301 125 Q 276 132 250 139 Q 231 145 233 136 Q 285 90 314 56 Q 327 40 340 35 Q 349 31 356 40 Q 393 89 392 133 Q 382 322 384 629 Q 383 681 396 704 Q 406 722 396 731 Q 377 749 344 762 Q 328 769 313 762 Q 271 741 212 732 C 182 727 210 700 239 707 Z" fill="black" /></g></svg>