<?xml version='1.0' encoding='utf-8'?>
<svg xmlns="http://www.w3.org/2000/svg" version="1.1" viewBox="0 0 1024 1024"><g transform="scale(1, -1) translate(0, -900)"><path d="M 223 695 Q 256 702 287 712 Q 306 716 311 705 Q 326 666 326 372 Q 323 138 310 118 Q 306 115 246 126 Q 227 133 228 124 Q 274 78 300 44 Q 312 26 327 21 Q 336 17 344 27 Q 383 78 382 124 Q 372 311 373 615 Q 372 670 385 694 Q 397 713 385 723 Q 364 741 330 755 Q 312 762 297 755 Q 260 734 200 722 C 171 715 194 688 223 695 Z" fill="black" /></g></svg>