<?xml version='1.0' encoding='utf-8'?>
<svg xmlns="http://www.w3.org/2000/svg" version="1.1" viewBox="0 0 1024 1024"><g transform="scale(1, -1) translate(0, -900)"><path d="M 361 289 Q 346 644 365 679 Q 375 698 364 707 Q 343 725 309 738 Q 291 745 276 737 Q 257 724 243 719 Q 227 712 197 705 C 168 697 178 672 208 677 Q 226 676 268 693 Q 287 699 292 689 Q 305 650 310 360 Q 310 129 296 105 Q 292 99 271 103 Q 241 109 211 116 Q 192 120 193 111 Q 254 66 291 32 Q 304 14 319 11 Q 328 7 335 17 Q 368 56 369 134 Q 365 195 362 267 L 361 289 Z" fill="black" /></g></svg>