<?xml version='1.0' encoding='utf-8'?>
<svg xmlns="http://www.w3.org/2000/svg" version="1.1" viewBox="0 0 1024 1024"><g transform="scale(1, -1) translate(0, -900)"><path d="M 601 389 Q 626 461 637 476 Q 647 485 643 494 Q 636 507 595 534 Q 583 543 572 538 Q 559 534 568 518 Q 578 496 573 470 Q 563 422 552 382 L 540 344 Q 524 296 505 264 Q 495 246 499 233 Q 502 223 519 220 Q 559 208 601 182 L 643 156 Q 703 116 790 36 Q 815 14 834 13 Q 856 12 857 33 Q 858 54 831 103 Q 821 128 790 141 Q 726 174 674 196 L 627 216 Q 593 231 567 239 Q 540 243 555 269 Q 571 317 586 352 L 601 389 Z" fill="black" /></g></svg>