<?xml version='1.0' encoding='utf-8'?>
<svg xmlns="http://www.w3.org/2000/svg" version="1.1" viewBox="0 0 1024 1024"><g transform="scale(1, -1) translate(0, -900)"><path d="M 231 668 Q 240 671 299 687 Q 318 691 323 681 Q 330 662 333 632 Q 346 341 334 165 Q 333 137 324 124 Q 320 118 299 123 Q 271 127 243 132 Q 224 136 225 127 Q 285 84 319 52 Q 332 34 347 30 Q 356 27 364 36 Q 401 90 398 136 Q 376 512 386 630 Q 389 657 397 670 Q 409 689 397 699 Q 376 717 342 731 Q 324 738 309 731 Q 276 710 220 698 C 191 691 202 660 231 668 Z" fill="black" /></g></svg>