<?xml version='1.0' encoding='utf-8'?>
<svg xmlns="http://www.w3.org/2000/svg" version="1.1" viewBox="0 0 1024 1024"><g transform="scale(1, -1) translate(0, -900)"><path d="M 867 511 Q 851 536 835 584 Q 832 597 825 602 Q 818 606 816 587 Q 803 532 794 521 Q 776 500 685 499 Q 637 502 617 510 Q 599 520 596 532 Q 587 556 586 611 L 587 630 Q 593 708 609 744 Q 621 771 603 787 Q 558 821 544 818 Q 531 814 537 797 Q 555 763 549 713 Q 540 530 568 495 Q 583 474 642 461 Q 687 452 759 452 Q 825 452 851 465 Q 879 481 867 511 Z" fill="black" /></g></svg>