<?xml version='1.0' encoding='utf-8'?>
<svg xmlns="http://www.w3.org/2000/svg" version="1.1" viewBox="0 0 1024 1024"><g transform="scale(1, -1) translate(0, -900)"><path d="M 257 688 Q 257 689 262 690 Q 293 697 323 704 Q 345 708 349 696 Q 364 657 364 371 Q 364 145 348 118 Q 344 112 323 117 Q 295 124 267 131 Q 248 137 248 127 Q 306 78 339 41 Q 352 22 368 17 Q 377 13 386 23 Q 426 74 425 127 Q 415 308 414 601 Q 413 659 427 685 Q 440 704 428 715 Q 406 734 370 750 Q 351 757 335 750 Q 296 729 240 719 C 211 713 228 680 257 688 Z" fill="black" /></g></svg>