<?xml version='1.0' encoding='utf-8'?>
<svg xmlns="http://www.w3.org/2000/svg" version="1.1" viewBox="0 0 1024 1024"><g transform="scale(1, -1) translate(0, -900)"><path d="M 415 603 Q 327 591 225 558 Q 209 554 217 566 Q 233 590 282 646 Q 357 733 372 743 Q 381 750 386 757 Q 390 770 371 786 Q 337 813 311 816 Q 298 817 291 811 Q 287 804 295 795 Q 310 774 286 727 Q 208 594 157 555 Q 120 534 132 494 Q 139 473 151 474 Q 157 475 171 484 Q 249 539 400 575 Q 412 578 421 579 Q 422 580 428 580 C 458 585 445 607 415 603 Z" fill="black" /></g></svg>