<?xml version='1.0' encoding='utf-8'?>
<svg xmlns="http://www.w3.org/2000/svg" version="1.1" viewBox="0 0 1024 1024"><g transform="scale(1, -1) translate(0, -900)"><path d="M 532 612 Q 531 611 532 609 Q 533 596 533 578 Q 533 512 568 486 Q 607 455 739 462 Q 869 472 885 502 Q 889 509 880 528 Q 864 556 846 620 Q 843 633 836 637 Q 832 638 829 627 Q 819 591 810 560 Q 801 533 785 524 Q 751 502 640 505 Q 610 506 599 514 Q 572 532 572 607 L 573 630 Q 573 699 591 748 Q 598 763 591 773 Q 581 785 549 799 Q 524 809 514 801 Q 507 795 518 777 Q 534 752 532 714 Q 532 666 532 612 Z" fill="black" /></g></svg>