<?xml version='1.0' encoding='utf-8'?>
<svg xmlns="http://www.w3.org/2000/svg" version="1.1" viewBox="0 0 1024 1024"><g transform="scale(1, -1) translate(0, -900)"><path d="M 721 87 Q 746 53 766 20 Q 773 4 785 4 Q 800 5 816 36 Q 828 64 829 134 Q 811 318 836 348 Q 846 361 837 370 Q 819 389 768 413 Q 752 423 736 414 Q 694 396 560 371 C 531 365 544 336 574 339 Q 595 339 727 363 Q 746 366 756 358 Q 780 330 762 120 Q 758 101 740 110 Q 736 113 732 115 C 704 127 703 111 721 87 Z" fill="black" /></g></svg>