<?xml version='1.0' encoding='utf-8'?>
<svg xmlns="http://www.w3.org/2000/svg" version="1.1" viewBox="0 0 1024 1024"><g transform="scale(1, -1) translate(0, -900)"><path d="M 595 374 Q 596 375 601 376 Q 656 395 697 403 Q 707 404 708 402 Q 715 395 714 374 Q 715 316 705 290 Q 689 260 663 263 Q 645 266 630 270 Q 608 276 624 255 Q 658 221 674 195 Q 687 180 700 192 Q 748 223 768 355 Q 774 389 786 405 Q 796 415 790 424 Q 783 433 738 450 Q 722 456 706 444 Q 676 426 577 403 C 548 396 567 364 595 374 Z" fill="black" /></g></svg>