<?xml version='1.0' encoding='utf-8'?>
<svg xmlns="http://www.w3.org/2000/svg" version="1.1" viewBox="0 0 1024 1024"><g transform="scale(1, -1) translate(0, -900)"><path d="M 197 365 Q 197 372 199 377 Q 206 432 208 485 L 210 521 Q 210 540 210 560 Q 206 662 215 671 C 219 688 219 688 195 700 Q 183 707 165 714 Q 146 721 135 716 Q 125 709 132 696 Q 153 672 158 610 Q 158 597 159 579 Q 166 411 137 281 Q 110 172 44 45 Q 40 38 38 33 Q 37 23 47 26 Q 62 29 93 80 Q 162 173 191 330 L 197 365 Z" fill="black" /></g></svg>