<?xml version='1.0' encoding='utf-8'?>
<svg xmlns="http://www.w3.org/2000/svg" version="1.1" viewBox="0 0 1024 1024"><g transform="scale(1, -1) translate(0, -900)"><path d="M 961 91 Q 948 121 932 212 Q 932 228 925 234 Q 919 238 914 219 Q 883 122 864 92 Q 849 76 808 63 Q 708 36 632 65 Q 601 78 593 97 Q 560 160 595 369 Q 595 372 595 374 C 598 393 598 393 577 403 Q 568 410 555 414 Q 543 418 536 413 Q 530 410 535 394 Q 547 358 544 325 Q 532 132 549 80 Q 553 55 577 34 Q 658 -30 833 -2 Q 849 2 867 6 Q 912 19 954 48 Q 975 64 961 91 Z" fill="black" /></g></svg>