<?xml version='1.0' encoding='utf-8'?>
<svg xmlns="http://www.w3.org/2000/svg" version="1.1" viewBox="0 0 1024 1024"><g transform="scale(1, -1) translate(0, -900)"><path d="M 246 683 Q 285 696 312 707 Q 328 714 335 706 Q 357 646 344 257 Q 335 154 329 141 L 251 150 Q 227 162 229 147 Q 287 104 322 69 Q 335 51 350 46 Q 359 43 367 52 Q 404 106 403 151 Q 396 308 395 642 Q 395 676 406 693 Q 418 712 406 721 Q 385 737 351 752 Q 332 759 280 728 Q 262 722 232 713 C 203 704 218 673 246 683 Z" fill="black" /></g></svg>