<?xml version='1.0' encoding='utf-8'?>
<svg xmlns="http://www.w3.org/2000/svg" version="1.1" viewBox="0 0 1024 1024"><g transform="scale(1, -1) translate(0, -900)"><path d="M 208 379 Q 208 382 209 385 Q 216 437 219 487 L 220 521 Q 221 543 221 564 Q 221 621 226 669 C 228 692 228 692 212 701 Q 199 711 176 718 Q 157 725 145 720 Q 135 713 142 700 Q 160 678 167 624 Q 167 606 168 585 Q 175 425 145 293 Q 115 185 52 62 Q 48 55 46 49 Q 45 39 55 42 Q 70 45 102 96 Q 174 192 202 345 L 208 379 Z" fill="black" /></g></svg>