<?xml version='1.0' encoding='utf-8'?>
<svg xmlns="http://www.w3.org/2000/svg" version="1.1" viewBox="0 0 1024 1024"><g transform="scale(1, -1) translate(0, -900)"><path d="M 226 669 Q 254 678 284 689 Q 303 695 309 685 Q 324 640 322 361 Q 319 136 304 110 Q 300 104 279 109 Q 251 116 223 123 Q 204 129 204 119 Q 262 70 295 33 Q 308 14 324 9 Q 333 5 342 15 Q 382 66 381 118 Q 372 298 373 589 Q 372 647 385 672 Q 398 691 385 702 Q 364 721 327 735 Q 309 742 294 735 Q 269 719 253 713 Q 237 709 212 701 C 183 692 198 660 226 669 Z" fill="black" /></g></svg>