<?xml version='1.0' encoding='utf-8'?>
<svg xmlns="http://www.w3.org/2000/svg" version="1.1" viewBox="0 0 1024 1024"><g transform="scale(1, -1) translate(0, -900)"><path d="M 670 426 Q 670 567 683 589 Q 693 608 683 617 Q 662 635 628 649 Q 612 656 596 649 Q 572 634 557 628 Q 535 619 486 611 Q 471 610 480 601 Q 489 591 503 587 Q 519 584 588 605 Q 606 611 611 602 Q 623 563 621 314 Q 615 107 602 87 Q 599 84 518 103 Q 499 109 501 100 Q 559 51 593 14 Q 606 -4 620 -8 Q 629 -12 637 -3 Q 673 39 674 111 Q 668 223 670 379 L 670 426 Z" fill="black" /></g></svg>