<?xml version='1.0' encoding='utf-8'?>
<svg xmlns="http://www.w3.org/2000/svg" version="1.1" viewBox="0 0 1024 1024"><g transform="scale(1, -1) translate(0, -900)"><path d="M 249 685 Q 253 686 260 688 Q 291 697 323 706 Q 342 710 348 701 Q 355 682 358 651 Q 370 356 358 176 Q 357 151 349 140 Q 345 134 326 139 Q 296 146 266 155 Q 247 161 249 152 Q 307 103 341 66 Q 354 48 368 44 Q 377 40 385 50 Q 424 95 422 148 Q 400 532 410 650 Q 413 677 421 690 Q 431 709 420 719 Q 401 737 365 750 Q 347 757 333 750 Q 305 734 286 727 Q 270 723 241 716 C 212 709 220 677 249 685 Z" fill="black" /></g></svg>