<?xml version='1.0' encoding='utf-8'?>
<svg xmlns="http://www.w3.org/2000/svg" version="1.1" viewBox="0 0 1024 1024"><g transform="scale(1, -1) translate(0, -900)"><path d="M 676 296 Q 667 314 649 323 L 635 330 Q 632 333 628 334 Q 609 341 600 336 Q 587 330 600 317 Q 616 305 626 288 L 639 255 Q 639 254 640 251 Q 673 122 635 31 Q 622 9 593 17 Q 560 24 532 34 Q 522 37 525 26 Q 529 19 547 6 Q 586 -28 599 -53 Q 608 -69 623 -68 Q 635 -67 660 -44 Q 714 8 705 159 Q 701 222 688 262 L 676 296 Z" fill="black" /></g></svg>