<?xml version='1.0' encoding='utf-8'?>
<svg xmlns="http://www.w3.org/2000/svg" version="1.1" viewBox="0 0 1024 1024"><g transform="scale(1, -1) translate(0, -900)"><path d="M 228 385 Q 240 469 242 502 L 244 535 Q 245 560 245 583 Q 246 617 247 650 Q 247 668 249 685 C 251 710 251 710 241 716 Q 199 746 177 737 Q 167 730 173 718 Q 191 696 197 633 Q 197 420 171 318 Q 170 315 169 310 Q 145 220 72 80 Q 68 74 67 68 Q 66 58 74 61 Q 102 70 167 189 Q 180 219 193 250 Q 209 301 222 356 L 228 385 Z" fill="black" /></g></svg>