<?xml version='1.0' encoding='utf-8'?>
<svg xmlns="http://www.w3.org/2000/svg" version="1.1" viewBox="0 0 1024 1024"><g transform="scale(1, -1) translate(0, -900)"><path d="M 503 365 Q 569 375 643 384 Q 668 388 681 375 Q 688 371 692 334 Q 701 213 695 72 Q 695 53 687 46 Q 672 36 600 54 Q 584 55 586 47 Q 587 40 599 35 Q 663 -8 698 -43 Q 717 -62 730 -59 Q 742 -56 752 -29 Q 767 14 765 77 Q 752 237 751 296 Q 751 333 763 357 Q 775 378 764 389 Q 754 404 708 427 Q 689 436 671 431 Q 622 418 517 398 Q 513 398 513 397 L 463 390 Q 387 381 310 374 C 280 371 295 331 325 335 Q 334 334 346 337 Q 397 349 454 357 L 503 365 Z" fill="black" /></g></svg>