<?xml version='1.0' encoding='utf-8'?>
<svg xmlns="http://www.w3.org/2000/svg" version="1.1" viewBox="0 0 1024 1024"><g transform="scale(1, -1) translate(0, -900)"><path d="M 229 674 Q 232 674 300 696 Q 318 703 323 694 Q 338 652 338 372 Q 335 146 321 122 Q 317 116 297 121 Q 272 125 247 131 Q 228 137 229 127 Q 283 84 314 50 Q 327 31 341 27 Q 350 24 358 33 Q 395 82 394 132 Q 385 310 384 603 Q 383 658 395 682 Q 407 700 395 710 Q 374 728 340 741 Q 322 748 308 740 Q 281 724 265 717 Q 247 711 218 704 C 189 697 200 666 229 674 Z" fill="black" /></g></svg>