<?xml version='1.0' encoding='utf-8'?>
<svg xmlns="http://www.w3.org/2000/svg" version="1.1" viewBox="0 0 1024 1024"><g transform="scale(1, -1) translate(0, -900)"><path d="M 221 687 Q 225 690 232 691 Q 262 701 292 711 Q 310 718 316 709 Q 328 676 333 382 Q 330 151 317 131 Q 313 125 293 129 Q 265 136 235 143 Q 216 149 217 139 Q 275 93 310 58 Q 323 39 337 35 Q 346 32 354 41 Q 391 90 390 140 Q 368 536 378 664 Q 381 686 387 698 Q 399 717 387 726 Q 366 742 331 756 Q 315 763 257 732 Q 238 725 208 717 C 179 709 193 677 221 687 Z" fill="black" /></g></svg>