<?xml version='1.0' encoding='utf-8'?>
<svg xmlns="http://www.w3.org/2000/svg" version="1.1" viewBox="0 0 1024 1024"><g transform="scale(1, -1) translate(0, -900)"><path d="M 567 542 Q 554 555 534 564 Q 515 573 510 563 Q 506 554 513 545 Q 532 515 527 480 Q 518 413 504 351 L 495 316 Q 468 228 432 185 Q 402 164 407 145 Q 411 129 429 114 Q 445 99 466 117 Q 520 159 702 155 Q 717 155 723 153 L 788 148 Q 831 145 876 134 Q 892 130 905 135 Q 917 139 911 154 Q 904 172 883 184 Q 873 197 794 197 L 732 196 Q 642 195 506 176 Q 490 175 495 193 Q 516 254 536 323 L 545 355 Q 578 488 579 512 C 582 531 582 531 567 542 Z" fill="black" /></g></svg>