<?xml version='1.0' encoding='utf-8'?>
<svg xmlns="http://www.w3.org/2000/svg" version="1.1" viewBox="0 0 1024 1024"><g transform="scale(1, -1) translate(0, -900)"><path d="M 241 675 Q 295 688 307 692 Q 326 696 332 685 Q 344 652 349 356 Q 346 122 333 103 Q 329 97 309 101 Q 284 105 259 111 Q 240 117 241 107 Q 295 64 326 30 Q 339 11 353 7 Q 362 4 370 13 Q 407 62 406 112 Q 378 616 404 672 Q 404 673 406 675 Q 418 694 406 703 Q 385 722 350 736 Q 332 745 285 719 Q 243 710 226 706 C 197 699 212 668 241 675 Z" fill="black" /></g></svg>