<?xml version='1.0' encoding='utf-8'?>
<svg xmlns="http://www.w3.org/2000/svg" version="1.1" viewBox="0 0 1024 1024"><g transform="scale(1, -1) translate(0, -900)"><path d="M 808 613 Q 805 556 761 478 Q 752 466 751 456 Q 751 446 776 429 Q 803 410 839 371 Q 854 352 865 356 Q 880 357 885 376 Q 891 401 882 415 Q 872 439 801 452 Q 777 461 825 533 Q 826 536 829 539 Q 860 585 873 599 Q 883 605 884 612 Q 887 628 861 649 Q 840 668 821 671 Q 802 672 797 665 Q 796 661 801 651 Q 811 638 808 613 Z" fill="black" /></g></svg>