<?xml version='1.0' encoding='utf-8'?>
<svg xmlns="http://www.w3.org/2000/svg" version="1.1" viewBox="0 0 1024 1024"><g transform="scale(1, -1) translate(0, -900)"><path d="M 391 291 Q 398 292 406 295 Q 578 335 605 323 Q 618 316 620 287 Q 633 152 629 46 Q 628 25 616 21 Q 603 17 538 37 Q 525 41 526 33 Q 527 24 543 13 Q 583 -21 615 -59 Q 631 -77 650 -75 Q 665 -72 682 -32 Q 704 10 700 52 Q 693 154 685 246 Q 681 283 697 313 Q 710 329 694 344 Q 675 360 634 374 Q 616 383 559 360 Q 499 344 381 317 C 352 310 362 284 391 291 Z" fill="black" /></g></svg>