<?xml version='1.0' encoding='utf-8'?>
<svg xmlns="http://www.w3.org/2000/svg" version="1.1" viewBox="0 0 1024 1024"><g transform="scale(1, -1) translate(0, -900)"><path d="M 640 579 Q 631 516 597 466 Q 590 457 588 449 Q 588 439 610 423 Q 635 401 671 359 Q 684 340 694 343 Q 707 344 713 360 Q 720 382 713 396 Q 707 417 635 441 Q 623 447 624 452 Q 621 464 659 516 Q 687 553 698 563 Q 707 567 709 575 Q 710 590 689 609 Q 670 628 653 630 Q 637 631 631 625 Q 630 621 634 613 Q 644 601 640 579 Z" fill="black" /></g></svg>