<?xml version='1.0' encoding='utf-8'?>
<svg xmlns="http://www.w3.org/2000/svg" version="1.1" viewBox="0 0 1024 1024"><g transform="scale(1, -1) translate(0, -900)"><path d="M 588 262 Q 525 246 459 223 Q 452 220 450 222 Q 447 225 452 233 Q 528 350 545 370 Q 555 380 549 391 Q 545 398 525 407 C 498 421 461 426 469 397 Q 468 397 469 396 Q 487 357 432 270 Q 413 237 372 204 Q 360 192 364 182 Q 371 167 395 151 Q 405 142 416 153 Q 446 183 587 236 Q 594 239 600 242 C 627 254 617 270 588 262 Z" fill="black" /></g></svg>