<?xml version='1.0' encoding='utf-8'?>
<svg xmlns="http://www.w3.org/2000/svg" version="1.1" viewBox="0 0 1024 1024"><g transform="scale(1, -1) translate(0, -900)"><path d="M 236 673 Q 249 676 308 693 Q 326 699 332 689 Q 347 646 348 353 Q 348 119 333 97 Q 329 91 311 95 Q 287 101 262 106 Q 243 113 244 104 Q 296 58 325 23 Q 338 5 352 0 Q 361 -3 369 6 Q 408 57 406 104 Q 384 515 394 644 Q 397 666 404 678 Q 416 697 404 707 Q 383 723 349 738 Q 331 745 316 737 Q 292 722 276 716 Q 260 710 232 704 C 203 697 207 665 236 673 Z" fill="black" /></g></svg>