<?xml version='1.0' encoding='utf-8'?>
<svg xmlns="http://www.w3.org/2000/svg" version="1.1" viewBox="0 0 1024 1024"><g transform="scale(1, -1) translate(0, -900)"><path d="M 235 672 L 303 690 Q 319 694 327 686 Q 337 676 337 641 Q 344 368 331 205 Q 330 177 321 164 Q 318 161 259 164 Q 240 168 241 159 Q 289 120 315 92 Q 328 74 343 70 Q 352 66 360 76 Q 396 124 395 175 Q 374 628 400 674 Q 412 692 400 702 Q 379 720 345 734 Q 327 743 282 718 Q 258 709 217 699 C 188 692 206 664 235 672 Z" fill="black" /></g></svg>