<?xml version='1.0' encoding='utf-8'?>
<svg xmlns="http://www.w3.org/2000/svg" version="1.1" viewBox="0 0 1024 1024"><g transform="scale(1, -1) translate(0, -900)"><path d="M 236 679 L 296 698 Q 314 702 319 693 Q 334 656 335 398 Q 335 188 322 169 Q 319 166 254 178 Q 235 185 236 176 Q 285 130 312 96 Q 325 77 339 73 Q 348 69 356 78 Q 395 123 394 176 Q 372 527 382 642 Q 383 669 392 682 Q 404 701 392 711 Q 371 727 337 742 Q 319 749 305 742 Q 272 723 224 709 C 195 700 207 670 236 679 Z" fill="black" /></g></svg>