<?xml version='1.0' encoding='utf-8'?>
<svg xmlns="http://www.w3.org/2000/svg" version="1.1" viewBox="0 0 1024 1024"><g transform="scale(1, -1) translate(0, -900)"><path d="M 388 195 Q 367 657 390 701 Q 400 720 390 729 Q 369 745 335 759 Q 317 766 276 741 Q 252 729 224 721 C 196 712 211 680 239 691 Q 248 694 297 714 Q 313 721 319 714 Q 343 650 330 265 Q 326 160 316 145 Q 312 141 235 149 Q 216 152 217 143 Q 278 103 313 74 Q 326 56 341 53 Q 351 49 358 59 Q 395 114 390 160 Q 389 161 389 163 L 388 195 Z" fill="black" /></g></svg>