<?xml version='1.0' encoding='utf-8'?>
<svg xmlns="http://www.w3.org/2000/svg" version="1.1" viewBox="0 0 1024 1024"><g transform="scale(1, -1) translate(0, -900)"><path d="M 580 300 L 491 162 Q 473 146 457 131 Q 445 121 453 120 Q 462 119 477 127 Q 523 149 562 190 Q 599 227 645 322 Q 651 340 666 353 C 673 361 673 361 666 366 Q 659 375 628 385 Q 609 394 595 385 Q 580 376 555 368 Q 533 364 505 357 C 476 350 467 339 496 330 Q 523 320 540 327 Q 583 346 588 346 Q 598 343 590 324 Q 586 312 580 300 Z" fill="black" /></g></svg>