<?xml version='1.0' encoding='utf-8'?>
<svg xmlns="http://www.w3.org/2000/svg" version="1.1" viewBox="0 0 1024 1024"><g transform="scale(1, -1) translate(0, -900)"><path d="M 678 420 Q 729 430 788 438 Q 812 444 825 431 Q 832 427 835 392 Q 844 275 838 142 Q 837 123 830 117 Q 814 105 732 122 Q 716 125 718 115 Q 719 108 732 103 Q 805 63 844 28 Q 863 9 876 12 Q 888 16 898 43 Q 911 86 909 149 Q 888 375 906 413 Q 916 434 907 445 Q 897 460 851 482 Q 832 491 814 486 Q 771 473 682 452 L 630 443 Q 554 431 475 423 C 445 420 474 379 503 384 Q 510 384 518 386 Q 570 399 628 410 L 678 420 Z" fill="black" /></g></svg>