<?xml version='1.0' encoding='utf-8'?>
<svg xmlns="http://www.w3.org/2000/svg" version="1.1" viewBox="0 0 1024 1024"><g transform="scale(1, -1) translate(0, -900)"><path d="M 234 684 Q 249 684 304 702 Q 323 706 329 696 Q 344 656 345 363 Q 342 126 327 102 Q 321 95 299 101 Q 268 105 235 112 Q 214 116 217 107 Q 284 61 322 26 Q 335 7 351 3 Q 361 -1 369 10 Q 409 61 405 115 Q 395 299 394 601 Q 393 659 406 685 Q 419 704 407 715 Q 385 734 348 748 Q 330 755 314 748 Q 289 733 273 728 Q 257 722 223 715 C 194 708 205 678 234 684 Z" fill="black" /></g></svg>