<?xml version='1.0' encoding='utf-8'?>
<svg xmlns="http://www.w3.org/2000/svg" version="1.1" viewBox="0 0 1024 1024"><g transform="scale(1, -1) translate(0, -900)"><path d="M 577 213 Q 574 60 593 31 Q 606 18 615 37 Q 627 65 630 224 L 631 263 Q 631 297 631 336 L 631 376 Q 631 421 631 465 L 632 494 Q 632 543 634 583 L 635 620 Q 638 731 656 761 Q 663 776 644 790 Q 622 809 581 819 Q 563 823 552 811 Q 542 804 554 792 Q 581 770 583 737 Q 583 686 583 609 L 583 573 Q 582 533 582 483 L 582 453 Q 582 384 581 360 L 581 327 Q 580 281 578 246 L 577 213 Z" fill="black" /></g></svg>