<?xml version='1.0' encoding='utf-8'?>
<svg xmlns="http://www.w3.org/2000/svg" version="1.1" viewBox="0 0 1024 1024"><g transform="scale(1, -1) translate(0, -900)"><path d="M 220 711 Q 280 726 287 728 Q 305 731 313 721 Q 326 709 325 668 Q 332 349 318 157 Q 317 132 309 122 Q 305 116 287 120 L 251 126 Q 232 133 232 123 Q 275 77 297 43 Q 310 24 326 19 Q 335 15 343 24 Q 386 73 385 126 Q 360 657 391 709 Q 404 728 391 739 Q 370 758 333 774 Q 315 781 300 775 Q 264 754 197 742 C 168 736 191 704 220 711 Z" fill="black" /></g></svg>