<?xml version='1.0' encoding='utf-8'?>
<svg xmlns="http://www.w3.org/2000/svg" version="1.1" viewBox="0 0 1024 1024"><g transform="scale(1, -1) translate(0, -900)"><path d="M 711 457 Q 712 456 715 451 Q 734 418 752 409 Q 762 400 779 422 Q 795 450 831 601 Q 841 632 865 658 Q 878 670 867 684 Q 852 702 809 729 Q 790 739 705 719 Q 647 719 506 684 L 476 679 Q 466 679 455 676 C 425 672 445 636 474 644 Q 520 657 589 669 L 621 675 Q 756 696 769 683 Q 782 665 779 649 Q 752 507 739 485 Q 735 473 722 470 C 709 460 709 460 711 457 Z" fill="black" /></g></svg>