<?xml version='1.0' encoding='utf-8'?>
<svg xmlns="http://www.w3.org/2000/svg" version="1.1" viewBox="0 0 1024 1024"><g transform="scale(1, -1) translate(0, -900)"><path d="M 576 358 Q 576 359 680 382 Q 699 386 705 376 Q 709 366 712 349 Q 724 187 721 89 Q 720 61 711 50 Q 707 44 687 48 Q 662 54 635 59 Q 616 65 616 55 Q 671 9 704 -27 Q 717 -46 733 -51 Q 742 -55 750 -45 Q 790 6 789 59 Q 758 317 783 365 Q 795 384 783 395 Q 761 414 724 428 Q 706 435 690 428 Q 653 409 630 401 Q 605 394 559 387 C 529 382 547 351 576 358 Z" fill="black" /></g></svg>