<?xml version='1.0' encoding='utf-8'?>
<svg xmlns="http://www.w3.org/2000/svg" version="1.1" viewBox="0 0 1024 1024"><g transform="scale(1, -1) translate(0, -900)"><path d="M 680 484 Q 656 487 632 491 Q 622 492 623 487 Q 624 481 633 475 Q 688 429 707 400 Q 719 387 731 399 Q 758 429 754 518 Q 751 549 748 603 Q 747 604 747 605 C 745 621 745 621 751 648 Q 752 658 757 668 Q 764 683 750 694 Q 729 710 706 719 Q 690 723 684 718 Q 680 712 688 700 Q 706 672 706 638 L 707 600 Q 711 497 698 486 Q 691 480 680 484 Z" fill="black" /></g></svg>