<?xml version='1.0' encoding='utf-8'?>
<svg xmlns="http://www.w3.org/2000/svg" version="1.1" viewBox="0 0 1024 1024"><g transform="scale(1, -1) translate(0, -900)"><path d="M 574 173 Q 580 58 617 21 Q 702 -45 851 -10 Q 857 -9 863 -7 Q 899 3 933 31 Q 949 46 938 68 Q 926 92 908 163 Q 907 178 901 182 Q 895 185 892 169 Q 870 91 855 67 Q 831 33 737 38 Q 701 41 672 54 Q 621 81 614 178 L 612 213 Q 612 243 614 273 L 616 310 Q 617 343 621 377 L 625 409 Q 626 428 630 446 Q 634 464 622 474 Q 609 487 586 494 Q 573 498 565 493 Q 558 489 564 472 Q 577 435 576 399 L 574 367 Q 573 331 573 297 L 573 266 Q 572 233 573 204 L 574 173 Z" fill="black" /></g></svg>