<?xml version='1.0' encoding='utf-8'?>
<svg xmlns="http://www.w3.org/2000/svg" version="1.1" viewBox="0 0 1024 1024"><g transform="scale(1, -1) translate(0, -900)"><path d="M 381 237 Q 369 621 388 654 Q 400 673 388 682 Q 367 700 333 714 Q 315 721 300 713 Q 266 692 214 680 C 185 672 197 641 226 649 Q 232 650 240 653 Q 265 660 292 669 Q 310 675 315 665 Q 339 601 326 220 Q 323 121 313 107 Q 309 101 289 106 Q 267 110 242 115 Q 223 121 225 111 Q 276 68 305 34 Q 318 16 333 12 Q 342 8 350 17 Q 384 65 386 133 Q 383 167 382 204 L 381 237 Z" fill="black" /></g></svg>