<?xml version='1.0' encoding='utf-8'?>
<svg xmlns="http://www.w3.org/2000/svg" version="1.1" viewBox="0 0 1024 1024"><g transform="scale(1, -1) translate(0, -900)"><path d="M 538 256 Q 535 195 520 136 Q 511 99 534 44 Q 540 28 548 25 Q 554 19 560 26 Q 567 30 576 50 Q 585 72 584 101 Q 583 143 585 530 Q 586 609 600 664 Q 607 677 605 690 Q 599 699 548 729 Q 527 745 508 730 Q 504 726 509 711 Q 537 672 538 631 Q 539 591 540 545 L 541 508 Q 541 507 542 505 Q 541 465 540 423 L 540 383 Q 539 337 539 286 L 538 256 Z" fill="black" /></g></svg>