<?xml version='1.0' encoding='utf-8'?>
<svg xmlns="http://www.w3.org/2000/svg" version="1.1" viewBox="0 0 1024 1024"><g transform="scale(1, -1) translate(0, -900)"><path d="M 233 674 Q 240 675 293 695 Q 311 702 317 692 Q 332 653 332 372 Q 332 144 315 117 Q 309 113 231 124 Q 212 128 213 119 Q 274 76 310 42 Q 323 23 340 19 Q 349 15 357 26 Q 397 77 393 131 Q 383 309 382 597 Q 379 655 393 680 Q 405 699 392 710 Q 370 728 334 742 Q 316 749 301 741 Q 279 725 263 719 Q 248 713 225 706 C 196 697 204 665 233 674 Z" fill="black" /></g></svg>