<?xml version='1.0' encoding='utf-8'?>
<svg xmlns="http://www.w3.org/2000/svg" version="1.1" viewBox="0 0 1024 1024"><g transform="scale(1, -1) translate(0, -900)"><path d="M 215 388 Q 215 391 216 392 Q 223 446 226 498 L 227 536 Q 228 561 229 638 Q 230 657 233 674 C 236 699 236 699 225 706 Q 209 718 184 726 Q 165 735 153 729 Q 143 720 150 708 Q 168 686 174 624 Q 174 434 162 352 Q 156 327 151 301 Q 124 201 56 70 Q 52 63 51 57 Q 50 47 59 50 Q 72 53 106 103 Q 172 188 207 349 L 215 388 Z" fill="black" /></g></svg>