<?xml version='1.0' encoding='utf-8'?>
<svg xmlns="http://www.w3.org/2000/svg" version="1.1" viewBox="0 0 1024 1024"><g transform="scale(1, -1) translate(0, -900)"><path d="M 231 682 Q 245 682 297 702 Q 302 704 306 704 Q 331 707 330 652 L 330 649 Q 331 602 333 533 Q 339 148 319 112 Q 317 109 286 114 Q 233 122 231 122 Q 229 120 229 117 Q 279 76 314 43 Q 317 37 321 33 Q 339 16 351 23 Q 357 26 365 39 Q 390 78 390 122 Q 376 355 376 641 Q 376 674 386 690 Q 392 701 391 708 Q 388 725 333 745 Q 329 747 325 747 Q 318 749 304 745 Q 297 739 290 735 Q 266 719 223 709 C 194 701 202 675 231 682 Z" fill="black" /></g></svg>