<?xml version='1.0' encoding='utf-8'?>
<svg xmlns="http://www.w3.org/2000/svg" version="1.1" viewBox="0 0 1024 1024"><g transform="scale(1, -1) translate(0, -900)"><path d="M 608 583 Q 598 582 579 578 Q 502 563 474 559 C 444 554 462 513 490 525 Q 500 535 610 552 L 649 559 Q 734 575 762 570 L 766 568 Q 784 563 782 544 Q 753 408 735 398 C 722 380 722 380 727 373 Q 742 351 752 343 Q 768 329 785 351 Q 798 372 831 488 Q 833 496 837 503 Q 845 521 862 541 Q 872 551 870 560 Q 867 573 809 612 Q 798 617 762 612 Q 761 612 649 590 L 608 583 Z" fill="black" /></g></svg>