<?xml version='1.0' encoding='utf-8'?>
<svg xmlns="http://www.w3.org/2000/svg" version="1.1" viewBox="0 0 1024 1024"><g transform="scale(1, -1) translate(0, -900)"><path d="M 657 712 Q 661 747 668.5 770.5 Q 676 794 676 801 Q 672 811 612 849 Q 595 860 580 856 Q 574 854 572 853 Q 564 849 566 839 L 568 828 Q 606 776 606 698 L 608 655 Q 608 649 608 583 L 610 552 L 610 551 L 608 484 L 608 450 L 606 390 L 604 312 Q 604 146 578 57 Q 566 18 593 -46 Q 594 -50 597 -54 Q 608 -74 617 -70 Q 649 -49 649 13 L 649 18 Q 647 74 647 323 L 647 361 L 647 363 L 647 398 Q 647 400 649 458 L 649 498 L 649 559 L 649 590 L 651 594 Q 651 639 653 664 L 657 712 Z" fill="black" /></g></svg>