<?xml version='1.0' encoding='utf-8'?>
<svg xmlns="http://www.w3.org/2000/svg" version="1.1" viewBox="0 0 1024 1024"><g transform="scale(1, -1) translate(0, -900)"><path d="M 752 52 Q 762 27 795 -32 Q 805 -50 815 -48 Q 831 -44 839 -18 Q 870 55 876 272 Q 880 321 902 351 Q 918 370 906 384 Q 884 405 837 424 Q 818 434 786 421 Q 681 382 536 361 L 509 358 Q 487 357 463 354 C 433 351 461 313 490 320 Q 595 344 762 373 Q 792 377 804 365 Q 814 359 816 333 Q 820 209 802 87 Q 801 65 792 63 Q 788 60 765 72 C 738 83 740 79 752 52 Z" fill="black" /></g></svg>