<?xml version='1.0' encoding='utf-8'?>
<svg xmlns="http://www.w3.org/2000/svg" version="1.1" viewBox="0 0 1024 1024"><g transform="scale(1, -1) translate(0, -900)"><path d="M 213 671 Q 217 672 224 674 Q 249 683 276 692 Q 294 699 299 690 Q 314 645 312 363 Q 309 135 293 109 L 215 118 Q 191 130 193 115 Q 251 72 286 37 Q 299 19 314 15 Q 323 11 331 21 Q 368 70 367 119 Q 358 302 360 599 Q 359 654 371 677 Q 381 696 371 706 Q 350 722 316 737 Q 297 746 254 719 Q 221 707 201 701 C 172 692 184 662 213 671 Z" fill="black" /></g></svg>