<?xml version='1.0' encoding='utf-8'?>
<svg xmlns="http://www.w3.org/2000/svg" version="1.1" viewBox="0 0 1024 1024"><g transform="scale(1, -1) translate(0, -900)"><path d="M 236 679 Q 248 680 296 699 Q 312 706 318 698 Q 333 656 333 366 Q 333 134 318 111 Q 314 108 246 119 Q 227 125 229 116 Q 281 74 312 43 Q 324 25 338 22 Q 347 18 354 27 Q 390 73 388 121 Q 375 353 375 639 Q 375 672 385 687 Q 395 705 385 714 Q 366 730 332 742 Q 316 749 302 741 Q 281 726 267 720 Q 251 713 222 706 C 193 698 207 671 236 679 Z" fill="black" /></g></svg>