<?xml version='1.0' encoding='utf-8'?>
<svg xmlns="http://www.w3.org/2000/svg" version="1.1" viewBox="0 0 1024 1024"><g transform="scale(1, -1) translate(0, -900)"><path d="M 473 367 Q 477 368 483 369 Q 505 375 525 381 Q 540 385 544 377 Q 563 329 554 95 Q 553 77 548 69 Q 545 66 495 78 Q 480 84 481 77 Q 518 38 539 10 Q 549 -3 560 -8 Q 567 -11 573 -4 Q 606 35 604 72 Q 582 331 602 369 Q 611 382 602 391 Q 586 404 558 416 Q 545 422 532 416 Q 513 404 499 399 Q 486 395 463 390 C 434 383 444 360 473 367 Z" fill="black" /></g></svg>