<?xml version='1.0' encoding='utf-8'?>
<svg xmlns="http://www.w3.org/2000/svg" version="1.1" viewBox="0 0 1024 1024"><g transform="scale(1, -1) translate(0, -900)"><path d="M 708 422 Q 742 426 806 432 Q 816 433 820 428 Q 829 422 830 382 Q 837 216 819 122 Q 812 88 782 91 Q 751 95 724 99 Q 711 103 710 97 Q 709 90 720 79 Q 786 24 804 -4 Q 814 -19 823 -16 Q 838 -13 849 12 Q 883 70 891 285 Q 891 394 905 421 Q 921 443 907 447 Q 892 463 855 478 Q 837 490 781 474 Q 660 456 627 448 L 582 439 Q 572 438 565 435 Q 513 422 463 412 C 434 406 459 370 488 379 Q 549 400 679 418 L 708 422 Z" fill="black" /></g></svg>