<?xml version='1.0' encoding='utf-8'?>
<svg xmlns="http://www.w3.org/2000/svg" version="1.1" viewBox="0 0 1024 1024"><g transform="scale(1, -1) translate(0, -900)"><path d="M 212 368 Q 212 371 213 373 Q 220 427 222 479 L 223 514 Q 224 535 224 554 Q 224 653 230 664 C 233 681 233 681 211 692 Q 199 699 181 706 Q 162 713 151 708 Q 141 701 148 689 Q 167 665 173 600 Q 173 404 156 306 Q 152 294 150 281 Q 120 175 56 49 Q 52 42 50 37 Q 49 27 59 30 Q 74 33 105 83 Q 171 171 205 332 L 212 368 Z" fill="black" /></g></svg>