<?xml version='1.0' encoding='utf-8'?>
<svg xmlns="http://www.w3.org/2000/svg" version="1.1" viewBox="0 0 1024 1024"><g transform="scale(1, -1) translate(0, -900)"><path d="M 636 758 Q 624 686 579 622 Q 569 610 568 601 Q 568 591 592 574 Q 623 552 670 507 Q 683 489 694 493 Q 707 494 713 512 Q 717 534 710 549 Q 701 570 619 592 Q 592 604 633 659 Q 639 669 649 682 Q 683 728 697 740 Q 707 744 709 752 Q 712 768 689 789 Q 670 808 652 812 Q 634 813 629 807 Q 626 803 632 794 Q 641 782 636 758 Z" fill="black" /></g></svg>