<?xml version='1.0' encoding='utf-8'?>
<svg xmlns="http://www.w3.org/2000/svg" version="1.1" viewBox="0 0 1024 1024"><g transform="scale(1, -1) translate(0, -900)"><path d="M 779 776 Q 766 713 726 663 Q 717 654 717 646 Q 716 636 739 618 Q 779 590 838 532 Q 851 514 862 517 Q 875 518 881 536 Q 887 558 879 574 Q 870 595 770 631 Q 746 641 757 660 Q 761 672 795 710 Q 826 746 838 756 Q 848 760 851 767 Q 855 783 833 805 Q 814 824 797 829 Q 779 832 774 826 Q 771 822 776 813 Q 785 800 779 776 Z" fill="black" /></g></svg>