<?xml version='1.0' encoding='utf-8'?>
<svg xmlns="http://www.w3.org/2000/svg" version="1.1" viewBox="0 0 1024 1024"><g transform="scale(1, -1) translate(0, -900)"><path d="M 201 703 Q 208 704 217 707 Q 238 716 260 724 Q 276 731 282 722 Q 306 650 296 255 Q 290 117 282 105 Q 278 99 260 104 Q 235 108 210 115 Q 191 121 193 112 Q 245 69 275 35 Q 287 19 301 14 Q 310 11 317 20 Q 353 68 352 113 Q 342 312 340 637 Q 339 689 350 711 Q 360 729 349 738 Q 330 754 297 767 Q 279 773 232 745 Q 214 739 187 731 C 158 722 172 694 201 703 Z" fill="black" /></g></svg>