<?xml version='1.0' encoding='utf-8'?>
<svg xmlns="http://www.w3.org/2000/svg" version="1.1" viewBox="0 0 1024 1024"><g transform="scale(1, -1) translate(0, -900)"><path d="M 635 77 Q 635 123 635 167 L 635 211 Q 635 259 636 303 L 636 338 Q 636 372 637 403 L 638 443 Q 638 476 638 507 L 638 538 Q 639 580 640 618 L 642 658 Q 642 713 641 715 Q 625 731 607 742 C 582 759 544 758 557 731 Q 582 683 585 648 L 587 609 Q 588 590 588 529 L 588 498 Q 588 467 588 428 L 587 394 Q 586 363 586 327 L 586 296 Q 585 253 585 200 L 584 160 Q 584 120 584 71 C 584 41 635 47 635 77 Z" fill="black" /></g></svg>