<?xml version='1.0' encoding='utf-8'?>
<svg xmlns="http://www.w3.org/2000/svg" version="1.1" viewBox="0 0 1024 1024"><g transform="scale(1, -1) translate(0, -900)"><path d="M 232 698 Q 253 704 276 716 Q 294 722 300 713 Q 315 670 316 374 Q 316 137 301 115 Q 297 109 277 113 Q 252 117 227 123 Q 208 129 209 119 Q 263 76 294 42 Q 307 24 321 19 Q 330 16 338 25 Q 375 74 374 124 Q 352 538 362 668 Q 365 690 372 702 Q 382 721 371 730 Q 350 748 316 761 Q 298 768 253 741 Q 237 735 213 727 C 185 717 204 688 232 698 Z" fill="black" /></g></svg>