<?xml version='1.0' encoding='utf-8'?>
<svg xmlns="http://www.w3.org/2000/svg" version="1.1" viewBox="0 0 1024 1024"><g transform="scale(1, -1) translate(0, -900)"><path d="M 654 119 Q 712 86 794 23 Q 819 4 835 5 Q 854 6 855 25 Q 855 44 826 86 Q 813 113 683 158 L 637 175 Q 592 191 559 198 Q 540 202 549 221 Q 567 261 580 288 L 596 322 Q 609 361 625 379 Q 634 386 631 395 Q 625 408 594 431 C 570 450 553 455 562 426 Q 562 425 564 421 Q 573 399 566 377 Q 557 346 548 317 L 536 282 Q 520 245 504 219 Q 495 203 498 190 Q 501 181 517 178 Q 559 169 610 142 L 654 119 Z" fill="black" /></g></svg>