<?xml version='1.0' encoding='utf-8'?>
<svg xmlns="http://www.w3.org/2000/svg" version="1.1" viewBox="0 0 1024 1024"><g transform="scale(1, -1) translate(0, -900)"><path d="M 334 553 Q 334 650 346 671 Q 356 689 346 698 Q 327 714 294 728 Q 278 735 264 728 Q 240 715 225 709 Q 212 705 190 699 C 161 691 176 664 205 672 Q 232 679 255 687 Q 273 691 277 683 Q 301 617 285 239 Q 278 137 271 128 Q 267 122 248 127 Q 226 131 202 135 Q 183 141 185 132 Q 234 90 264 59 Q 276 43 290 38 Q 297 34 305 43 Q 338 88 339 158 Q 333 312 334 540 L 334 553 Z" fill="black" /></g></svg>