<?xml version='1.0' encoding='utf-8'?>
<svg xmlns="http://www.w3.org/2000/svg" version="1.1" viewBox="0 0 1024 1024"><g transform="scale(1, -1) translate(0, -900)"><path d="M 547 196 Q 584 227 666 250 Q 700 260 721 255 Q 743 249 746 214 Q 739 141 704 83 Q 688 56 673 50 Q 661 46 582 63 Q 557 75 554 66 Q 554 59 567 49 Q 613 9 646 -29 Q 656 -41 666 -39 Q 682 -39 699 -26 Q 766 34 799 192 Q 800 222 812 240 Q 824 253 813 265 Q 797 281 758 296 Q 736 305 667 280 Q 664 280 608 266 Q 589 262 598 281 Q 622 324 631 334 Q 644 347 633 363 Q 626 369 616 373 C 592 391 563 392 566 362 Q 578 340 546 281 Q 539 269 516 253 Q 500 237 504 222 Q 505 209 522 194 Q 534 184 547 196 Z" fill="black" /></g></svg>