<?xml version='1.0' encoding='utf-8'?>
<svg xmlns="http://www.w3.org/2000/svg" version="1.1" viewBox="0 0 1024 1024"><g transform="scale(1, -1) translate(0, -900)"><path d="M 201 674 Q 213 677 243 690 Q 258 694 266 687 Q 276 675 277 637 Q 286 331 271 148 Q 270 123 262 112 Q 258 106 240 111 Q 218 115 194 119 Q 175 125 177 116 Q 228 73 256 43 Q 268 27 282 22 Q 289 18 297 27 Q 333 75 332 121 Q 323 304 323 601 Q 322 653 334 676 Q 344 692 334 702 Q 315 718 282 732 Q 263 741 227 716 Q 191 704 187 703 C 158 694 173 664 201 674 Z" fill="black" /></g></svg>