<?xml version='1.0' encoding='utf-8'?>
<svg xmlns="http://www.w3.org/2000/svg" version="1.1" viewBox="0 0 1024 1024"><g transform="scale(1, -1) translate(0, -900)"><path d="M 220 697 Q 220 698 224 699 Q 248 706 272 716 Q 287 720 295 713 Q 308 703 307 662 Q 317 343 302 152 Q 301 124 292 112 Q 288 106 267 111 Q 242 115 215 120 Q 196 124 197 115 Q 255 72 287 40 Q 300 22 315 18 Q 324 15 331 24 Q 370 73 366 124 Q 356 305 356 650 Q 356 684 367 702 Q 379 720 367 730 Q 346 746 312 761 Q 294 767 281 761 Q 256 745 240 738 Q 225 732 203 726 C 174 717 192 687 220 697 Z" fill="black" /></g></svg>