<?xml version='1.0' encoding='utf-8'?>
<svg xmlns="http://www.w3.org/2000/svg" version="1.1" viewBox="0 0 1024 1024"><g transform="scale(1, -1) translate(0, -900)"><path d="M 206 381 Q 206 382 207 383 Q 213 440 215 495 L 216 533 Q 216 692 220 697 C 222 716 222 716 203 726 Q 190 736 168 742 Q 149 749 137 744 Q 127 735 135 723 Q 154 696 162 645 Q 162 624 164 598 Q 174 418 142 279 Q 117 177 44 26 Q 40 19 38 13 Q 37 3 47 6 Q 80 18 144 148 Q 157 179 170 215 Q 188 275 200 341 L 206 381 Z" fill="black" /></g></svg>