<?xml version='1.0' encoding='utf-8'?>
<svg xmlns="http://www.w3.org/2000/svg" version="1.1" viewBox="0 0 1024 1024"><g transform="scale(1, -1) translate(0, -900)"><path d="M 754 452 Q 754 448 756 443 Q 760 428 771 429 Q 784 430 792 442 Q 802 452 823 504 Q 839 550 873 577 Q 891 590 877 605 Q 861 621 817 647 Q 802 656 730 640 Q 718 640 705 636 L 660 630 Q 618 626 581 616 L 540 608 Q 488 599 451 593 C 421 588 440 552 469 561 Q 493 570 544 579 L 581 587 Q 615 594 657 600 L 700 606 Q 766 621 788 609 Q 795 603 790 580 Q 769 496 760 476 L 754 452 Z" fill="black" /></g></svg>