<?xml version='1.0' encoding='utf-8'?>
<svg xmlns="http://www.w3.org/2000/svg" version="1.1" viewBox="0 0 1024 1024"><g transform="scale(1, -1) translate(0, -900)"><path d="M 322 668 Q 332 367 318 185 Q 317 158 309 147 Q 305 141 285 146 Q 263 150 238 155 Q 219 161 221 151 Q 273 106 301 74 Q 314 56 329 52 Q 338 48 345 57 Q 357 70 373 100 Q 383 125 382 156 Q 373 334 372 627 Q 371 681 382 705 Q 394 724 382 733 Q 361 749 327 763 Q 309 770 296 763 Q 274 747 257 739 Q 245 735 227 729 C 199 720 205 685 233 696 Q 237 699 244 700 Q 266 709 289 718 Q 302 724 311 718 Q 323 706 322 668 Z" fill="black" /></g></svg>