<?xml version='1.0' encoding='utf-8'?>
<svg xmlns="http://www.w3.org/2000/svg" version="1.1" viewBox="0 0 1024 1024"><g transform="scale(1, -1) translate(0, -900)"><path d="M 507 332 Q 511 328 524 320 Q 534 313 546 309 L 581 313 Q 618 322 655 328 L 697 335 Q 737 342 775 344 Q 794 345 798 339 Q 808 320 796 272 Q 768 139 729 82 Q 708 51 681 58 Q 656 67 635 76 Q 611 86 627 60 Q 667 15 684 -19 Q 705 -44 728 -25 Q 764 -3 791 40 Q 822 91 852 250 Q 862 307 884 333 Q 897 346 892 356 Q 883 368 833 394 Q 814 404 794 392 Q 772 380 684 365 Q 597 349 524 348 Q 520 348 517 346 C 491 343 491 343 507 332 Z" fill="black" /></g></svg>