<?xml version='1.0' encoding='utf-8'?>
<svg xmlns="http://www.w3.org/2000/svg" version="1.1" viewBox="0 0 1024 1024"><g transform="scale(1, -1) translate(0, -900)"><path d="M 221 717 Q 224 718 231 720 Q 259 727 287 735 Q 306 739 311 729 Q 326 687 326 393 Q 323 155 309 134 Q 305 128 284 133 Q 257 137 231 143 Q 212 149 213 139 Q 270 96 302 61 Q 315 43 330 39 Q 339 35 347 45 Q 386 96 382 144 Q 372 333 373 639 Q 372 694 385 718 Q 397 737 385 747 Q 364 765 330 779 Q 312 786 297 779 Q 257 755 205 747 C 176 741 192 709 221 717 Z" fill="black" /></g></svg>