<?xml version='1.0' encoding='utf-8'?>
<svg xmlns="http://www.w3.org/2000/svg" version="1.1" viewBox="0 0 1024 1024"><g transform="scale(1, -1) translate(0, -900)"><path d="M 205 680 Q 217 686 264 700 Q 280 707 285 699 Q 304 639 295 275 Q 289 116 280 100 Q 276 96 259 99 Q 234 106 210 114 Q 192 121 192 112 Q 241 64 269 30 Q 281 12 295 8 Q 302 4 311 13 Q 350 64 348 105 Q 341 298 343 612 Q 342 664 353 687 Q 363 705 353 713 Q 334 729 301 743 Q 283 749 233 721 Q 218 717 194 708 C 166 698 177 669 205 680 Z" fill="black" /></g></svg>