<?xml version='1.0' encoding='utf-8'?>
<svg xmlns="http://www.w3.org/2000/svg" version="1.1" viewBox="0 0 1024 1024"><g transform="scale(1, -1) translate(0, -900)"><path d="M 643 457 Q 661 430 677 421 Q 687 414 702 434 Q 717 458 749 586 Q 759 616 781 639 Q 794 651 783 664 Q 770 680 728 707 Q 713 716 645 699 Q 639 699 524 676 Q 515 675 508 671 L 483 666 Q 461 663 443 659 C 414 653 442 620 471 629 Q 538 650 656 668 Q 681 672 691 664 Q 703 649 700 634 Q 672 499 656 483 C 642 458 642 458 643 457 Z" fill="black" /></g></svg>