<?xml version='1.0' encoding='utf-8'?>
<svg xmlns="http://www.w3.org/2000/svg" version="1.1" viewBox="0 0 1024 1024"><g transform="scale(1, -1) translate(0, -900)"><path d="M 717 364 Q 718 363 720 358 Q 738 321 765 345 Q 777 357 796 401 Q 833 564 868 603 Q 884 619 873 638 Q 857 657 826 681 Q 810 690 793 685 Q 744 670 688 667 Q 667 666 670 656 Q 674 646 690 637 Q 702 634 759 640 Q 778 643 786 638 Q 796 629 787 594 Q 780 569 774 544 L 764 508 Q 734 399 729 393 C 718 365 717 364 717 364 Z" fill="black" /></g></svg>