<?xml version='1.0' encoding='utf-8'?>
<svg xmlns="http://www.w3.org/2000/svg" version="1.1" viewBox="0 0 1024 1024"><g transform="scale(1, -1) translate(0, -900)"><path d="M 580 350 Q 559 209 460 116 Q 433 92 399 67 Q 389 58 388 54 Q 389 50 401 51 Q 416 47 452 65 Q 572 114 619 296 Q 619 302 621 305 L 628 347 Q 628 351 630 355 L 634 397 Q 635 428 638 461 Q 645 707 666 766 Q 673 779 661 790 Q 639 808 600 818 Q 575 824 567 817 Q 558 810 566 798 Q 620 713 586 390 Q 585 389 585 386 L 580 350 Z" fill="black" /></g></svg>