<?xml version='1.0' encoding='utf-8'?>
<svg xmlns="http://www.w3.org/2000/svg" version="1.1" viewBox="0 0 1024 1024"><g transform="scale(1, -1) translate(0, -900)"><path d="M 774 168 Q 784 144 808 103 Q 817 87 827 88 Q 842 92 850 117 Q 872 171 883 323 Q 886 443 911 476 Q 927 497 915 509 Q 893 530 845 548 Q 826 558 795 544 Q 693 508 572 490 L 537 486 Q 494 483 443 478 C 413 475 450 436 479 441 L 549 454 L 585 460 Q 627 469 677 477 L 714 483 Q 742 490 774 494 Q 805 501 818 486 Q 827 471 828 455 Q 832 335 815 216 Q 814 195 806 193 Q 803 192 793 194 C 767 182 767 182 774 168 Z" fill="black" /></g></svg>