<?xml version='1.0' encoding='utf-8'?>
<svg xmlns="http://www.w3.org/2000/svg" version="1.1" viewBox="0 0 1024 1024"><g transform="scale(1, -1) translate(0, -900)"><path d="M 810 166 Q 819 199 827 231 Q 842 285 878 323 Q 899 345 871 363 Q 846 382 819 397 Q 803 409 781 399 Q 753 389 711 382 Q 636 372 552 355 Q 501 348 465 342 C 435 337 448 305 478 310 Q 485 310 495 313 Q 523 320 548 325 L 574 331 Q 596 337 658 343 L 697 348 Q 730 352 770 356 Q 783 357 787 351 Q 805 321 752 157 C 743 128 802 137 810 166 Z" fill="black" /></g></svg>