<?xml version='1.0' encoding='utf-8'?>
<svg xmlns="http://www.w3.org/2000/svg" version="1.1" viewBox="0 0 1024 1024"><g transform="scale(1, -1) translate(0, -900)"><path d="M 696 813 Q 624 788 543 775 C 513 770 535 741 564 749 Q 565 750 570 751 Q 610 761 639 768 Q 681 778 695 769 Q 705 765 701 734 Q 694 650 685 580 Q 684 571 681 565 C 673 536 662 551 667 542 Q 670 538 675 529 Q 696 498 717 523 Q 733 542 735 562 Q 741 611 748 668 Q 754 717 775 748 Q 788 766 775 780 Q 757 796 727 813 Q 711 820 696 813 Z" fill="black" /></g></svg>