<?xml version='1.0' encoding='utf-8'?>
<svg xmlns="http://www.w3.org/2000/svg" version="1.1" viewBox="0 0 1024 1024"><g transform="scale(1, -1) translate(0, -900)"><path d="M 338 579 Q 345 575 371 570 Q 401 564 397 530 Q 394 526 394 519 Q 375 447 350 437 Q 341 434 313 440 Q 285 450 282 446 Q 278 439 292 431 Q 319 410 326 384 Q 329 371 339 366 Q 349 362 374 378 Q 410 409 430 486 Q 437 519 454 534 Q 461 538 464 544 Q 465 551 448 570 Q 424 594 383 594 Q 374 597 365 598 Q 358 599 352 601 C 323 608 310 589 338 579 Z" fill="black" /></g></svg>