<?xml version='1.0' encoding='utf-8'?>
<svg xmlns="http://www.w3.org/2000/svg" version="1.1" viewBox="0 0 1024 1024"><g transform="scale(1, -1) translate(0, -900)"><path d="M 204 717 Q 288 738 289 738 Q 292 737 295 734 Q 308 721 307 681 Q 314 356 298 161 Q 298 142 293 132 Q 289 128 274 130 Q 255 137 234 144 Q 216 154 216 144 Q 256 92 277 57 Q 289 38 303 32 Q 310 28 320 37 Q 359 82 363 132 Q 354 327 356 643 Q 355 698 368 722 Q 378 740 368 750 Q 347 768 313 781 Q 294 790 247 763 Q 219 754 191 747 C 162 739 175 710 204 717 Z" fill="black" /></g></svg>