<?xml version='1.0' encoding='utf-8'?>
<svg xmlns="http://www.w3.org/2000/svg" version="1.1" viewBox="0 0 1024 1024"><g transform="scale(1, -1) translate(0, -900)"><path d="M 412 309 Q 422 312 434 315 Q 575 345 597 335 Q 610 328 612 298 Q 627 157 621 47 Q 620 25 608 21 Q 598 17 546 26 Q 533 29 534 20 Q 535 13 552 2 Q 586 -29 612 -61 Q 627 -77 642 -76 Q 657 -72 675 -30 Q 697 13 693 56 Q 684 161 677 256 Q 673 293 689 325 Q 702 341 686 356 Q 667 372 626 386 Q 604 396 585 384 Q 566 377 529 365 Q 442 346 400 336 C 371 329 383 301 412 309 Z" fill="black" /></g></svg>