<?xml version='1.0' encoding='utf-8'?>
<svg xmlns="http://www.w3.org/2000/svg" version="1.1" viewBox="0 0 1024 1024"><g transform="scale(1, -1) translate(0, -900)"><path d="M 351 119 Q 352 132 352 145 Q 342 329 340 629 Q 339 681 352 704 Q 364 722 352 732 Q 333 748 300 763 Q 284 770 269 763 Q 247 750 233 746 Q 217 742 187 735 C 158 728 179 700 208 708 Q 232 714 258 722 Q 277 725 282 714 Q 297 675 297 387 Q 297 158 282 133 Q 276 129 206 140 Q 187 144 189 136 Q 244 96 277 65 Q 290 49 304 45 Q 311 41 319 51 Q 341 81 348 107 L 351 119 Z" fill="black" /></g></svg>