<?xml version='1.0' encoding='utf-8'?>
<svg xmlns="http://www.w3.org/2000/svg" version="1.1" viewBox="0 0 1024 1024"><g transform="scale(1, -1) translate(0, -900)"><path d="M 483 417 Q 507 454 529 500 Q 530 503 531 505 L 547 543 Q 557 574 570 610 L 581 652 Q 597 739 625 785 Q 634 798 629 807 Q 614 831 568 841 Q 555 845 540 837 Q 530 827 540 818 Q 561 799 555 738 Q 540 666 533 642 L 521 600 Q 509 566 497 535 L 481 496 Q 441 415 360 316 Q 351 301 362 300 Q 366 299 377 307 Q 425 341 475 405 L 483 417 Z" fill="black" /></g></svg>