<?xml version='1.0' encoding='utf-8'?>
<svg xmlns="http://www.w3.org/2000/svg" version="1.1" viewBox="0 0 1024 1024"><g transform="scale(1, -1) translate(0, -900)"><path d="M 812 159 Q 822 198 831 235 Q 846 293 885 335 Q 907 359 877 377 Q 850 398 822 414 Q 804 426 781 415 Q 753 405 711 398 Q 636 388 552 371 Q 501 364 465 358 C 435 353 451 320 480 326 Q 487 327 495 329 Q 519 336 539 340 L 567 346 Q 589 353 655 359 L 697 364 Q 728 368 770 372 Q 783 373 787 367 Q 800 348 792 315 Q 780 249 748 150 C 739 121 805 130 812 159 Z" fill="black" /></g></svg>