<?xml version='1.0' encoding='utf-8'?>
<svg xmlns="http://www.w3.org/2000/svg" version="1.1" viewBox="0 0 1024 1024"><g transform="scale(1, -1) translate(0, -900)"><path d="M 500 190 Q 563 221 712 230 Q 730 231 736 225 Q 755 206 719 61 Q 715 45 703 37 Q 697 34 633 46 Q 620 52 619 45 Q 618 38 634 26 Q 662 -4 674 -29 Q 686 -51 703 -39 Q 748 -12 766 45 Q 769 58 773 73 Q 803 202 815 211 Q 828 224 822 233 Q 813 243 773 265 Q 752 275 727 271 Q 702 264 671 262 Q 658 261 647 258 L 623 254 Q 577 248 533 237 Q 511 233 513 247 Q 523 307 533 332 Q 537 345 530 353 Q 517 363 506 369 Q 488 376 481 372 Q 475 368 480 358 Q 495 333 479 263 Q 473 251 455 230 Q 446 220 453 209 Q 460 200 478 187 Q 487 180 500 190 Z" fill="black" /></g></svg>