<?xml version='1.0' encoding='utf-8'?>
<svg xmlns="http://www.w3.org/2000/svg" version="1.1" viewBox="0 0 1024 1024"><g transform="scale(1, -1) translate(0, -900)"><path d="M 613 717 Q 597 729 579 732 Q 552 739 544 727 Q 537 717 550 705 Q 595 665 577 325 Q 564 247 551 230 Q 541 214 550 196 Q 562 178 577 171 Q 587 165 597 180 Q 612 204 686 277 Q 711 295 712 304 Q 713 310 709 312 Q 705 313 632 271 Q 616 256 614 279 Q 617 373 620 470 L 621 494 Q 621 536 623 578 L 623 610 Q 623 662 629 683 Q 630 689 630 694 C 632 706 632 706 613 717 Z" fill="black" /></g></svg>