<?xml version='1.0' encoding='utf-8'?>
<svg xmlns="http://www.w3.org/2000/svg" version="1.1" viewBox="0 0 1024 1024"><g transform="scale(1, -1) translate(0, -900)"><path d="M 702 495 Q 717 470 733 461 Q 743 454 758 474 Q 776 502 813 662 Q 822 693 845 718 Q 858 730 846 744 Q 831 760 789 786 Q 771 795 709 777 Q 699 777 503 726 C 474 718 490 681 518 692 Q 524 698 603 716 L 638 724 Q 734 754 754 739 Q 770 726 765 703 Q 734 556 721 534 Q 717 522 703 520 C 690 512 690 512 702 495 Z" fill="black" /></g></svg>