<?xml version='1.0' encoding='utf-8'?>
<svg xmlns="http://www.w3.org/2000/svg" version="1.1" viewBox="0 0 1024 1024"><g transform="scale(1, -1) translate(0, -900)"><path d="M 230 697 Q 234 698 296 717 Q 315 723 320 713 Q 333 677 338 386 Q 338 157 324 133 Q 320 127 300 132 Q 272 138 243 143 Q 224 149 225 139 Q 283 96 318 61 Q 331 43 346 39 Q 355 35 363 45 Q 399 93 398 144 Q 386 327 382 623 Q 381 678 393 703 Q 403 721 392 731 Q 371 749 337 762 Q 319 769 304 761 Q 280 746 264 740 Q 249 736 223 728 C 194 719 201 688 230 697 Z" fill="black" /></g></svg>