<?xml version='1.0' encoding='utf-8'?>
<svg xmlns="http://www.w3.org/2000/svg" version="1.1" viewBox="0 0 1024 1024"><g transform="scale(1, -1) translate(0, -900)"><path d="M 407 257 Q 422 256 446 263 Q 570 288 589 279 Q 602 275 607 249 Q 622 134 619 43 Q 619 25 609 21 Q 596 20 534 45 Q 522 48 522 41 Q 522 32 537 23 Q 577 -13 607 -49 Q 623 -67 642 -66 Q 654 -63 669 -27 Q 687 10 683 47 Q 676 135 667 216 Q 664 247 677 274 Q 687 290 674 304 Q 655 319 616 331 Q 594 341 577 328 Q 559 321 526 311 Q 424 286 389 281 C 359 276 377 255 407 257 Z" fill="black" /></g></svg>