<?xml version='1.0' encoding='utf-8'?>
<svg xmlns="http://www.w3.org/2000/svg" version="1.1" viewBox="0 0 1024 1024"><g transform="scale(1, -1) translate(0, -900)"><path d="M 639 605 Q 748 627 766 618 Q 776 612 771 582 Q 755 470 745 446 Q 739 427 745 411 Q 751 395 764 397 Q 777 398 785 414 Q 795 430 816 504 Q 831 556 866 587 Q 885 603 868 618 Q 850 634 800 660 Q 785 669 717 651 Q 696 651 640 636 L 591 626 Q 570 623 554 618 Q 496 605 458 597 C 429 591 454 558 483 567 Q 525 580 592 596 L 639 605 Z" fill="black" /></g></svg>