<?xml version='1.0' encoding='utf-8'?>
<svg xmlns="http://www.w3.org/2000/svg" version="1.1" viewBox="0 0 1024 1024"><g transform="scale(1, -1) translate(0, -900)"><path d="M 778 119 Q 803 88 823 57 Q 833 38 844 39 Q 862 40 877 76 Q 895 116 891 166 Q 876 334 867 646 Q 866 680 882 703 Q 892 716 882 728 Q 861 749 805 773 Q 786 783 769 773 Q 646 722 455 709 C 425 707 435 673 465 675 Q 486 674 520 682 Q 635 701 734 719 Q 773 726 792 711 Q 808 696 819 572 Q 826 455 822 300 Q 823 198 815 167 Q 811 146 791 156 C 764 143 760 142 778 119 Z" fill="black" /></g></svg>