<?xml version='1.0' encoding='utf-8'?>
<svg xmlns="http://www.w3.org/2000/svg" version="1.1" viewBox="0 0 1024 1024"><g transform="scale(1, -1) translate(0, -900)"><path d="M 521 599 Q 522 548 547 529 Q 586 498 687 511 Q 732 518 747 531 Q 766 541 757 562 Q 747 583 736 620 Q 735 630 729 634 Q 723 637 721 623 Q 706 566 680 558 Q 617 543 576 550 Q 563 554 559 561 Q 556 573 554 607 L 558 643 Q 559 650 562 656 Q 568 678 554 688 Q 544 694 537 698 C 511 713 489 719 503 692 Q 518 668 519 631 L 521 599 Z" fill="black" /></g></svg>