<?xml version='1.0' encoding='utf-8'?>
<svg xmlns="http://www.w3.org/2000/svg" version="1.1" viewBox="0 0 1024 1024"><g transform="scale(1, -1) translate(0, -900)"><path d="M 210 666 L 267 683 Q 286 687 291 677 Q 306 638 306 346 Q 303 115 290 95 Q 286 91 269 94 Q 244 101 218 110 Q 199 117 200 108 Q 251 57 279 21 Q 292 2 306 -2 Q 315 -6 323 3 Q 363 49 362 100 Q 352 286 353 587 Q 352 642 365 666 Q 375 685 365 695 Q 344 713 309 727 Q 293 734 277 727 Q 247 709 183 693 C 154 685 181 657 210 666 Z" fill="black" /></g></svg>