<?xml version='1.0' encoding='utf-8'?>
<svg xmlns="http://www.w3.org/2000/svg" version="1.1" viewBox="0 0 1024 1024"><g transform="scale(1, -1) translate(0, -900)"><path d="M 537 698 Q 735 737 777 730 Q 792 729 791 720 Q 791 717 759 657 Q 749 644 755 640 Q 762 636 779 646 Q 831 674 874 680 Q 908 684 908 695 Q 907 705 842 758 Q 820 779 740 763 Q 704 759 562 732 L 526 726 Q 472 719 412 707 Q 366 697 320 691 C 290 687 308 647 338 652 Q 345 652 354 654 Q 462 691 503 692 L 537 698 Z" fill="black" /></g></svg>