<?xml version='1.0' encoding='utf-8'?>
<svg xmlns="http://www.w3.org/2000/svg" version="1.1" viewBox="0 0 1024 1024"><g transform="scale(1, -1) translate(0, -900)"><path d="M 689 305 Q 743 214 786 206 Q 795 205 801 214 Q 807 221 801 251 Q 795 287 799 346 Q 802 365 795 367 Q 789 368 783 351 Q 765 285 750 293 Q 731 312 714 340 L 693 381 Q 672 424 651 539 L 644 579 Q 643 598 644 615 Q 654 640 627 656 Q 612 666 603 667 Q 594 667 594 666 Q 578 662 591 646 Q 597 643 614 571 Q 614 570 614 567 L 619 532 Q 637 423 672 341 L 689 305 Z" fill="black" /></g></svg>