<?xml version='1.0' encoding='utf-8'?>
<svg xmlns="http://www.w3.org/2000/svg" version="1.1" viewBox="0 0 1024 1024"><g transform="scale(1, -1) translate(0, -900)"><path d="M 228 688 Q 252 694 287 706 Q 306 710 312 701 Q 336 632 330 244 Q 323 108 317 98 Q 313 94 296 97 Q 268 104 238 114 Q 219 121 220 112 Q 277 61 308 24 Q 321 6 335 1 Q 344 -3 352 7 Q 391 52 390 104 Q 377 297 374 611 Q 373 666 385 691 Q 397 710 385 719 Q 364 737 329 750 Q 311 757 297 750 Q 275 737 259 730 Q 240 724 205 717 C 176 711 199 680 228 688 Z" fill="black" /></g></svg>