<?xml version='1.0' encoding='utf-8'?>
<svg xmlns="http://www.w3.org/2000/svg" version="1.1" viewBox="0 0 1024 1024"><g transform="scale(1, -1) translate(0, -900)"><path d="M 218 665 Q 228 668 283 683 Q 301 687 306 678 Q 313 659 316 628 Q 326 334 315 156 Q 314 131 306 119 Q 302 113 282 118 Q 257 122 230 128 Q 211 132 213 124 Q 268 82 300 50 Q 313 34 327 29 Q 334 26 342 35 Q 378 81 376 129 Q 366 306 364 593 Q 363 645 375 668 Q 385 686 375 695 Q 356 711 322 725 Q 306 732 292 725 Q 267 710 252 705 Q 239 701 217 695 C 188 687 189 657 218 665 Z" fill="black" /></g></svg>