<?xml version='1.0' encoding='utf-8'?>
<svg xmlns="http://www.w3.org/2000/svg" version="1.1" viewBox="0 0 1024 1024"><g transform="scale(1, -1) translate(0, -900)"><path d="M 704 330 Q 622 320 536 306 Q 529 305 527 306 Q 526 307 529 312 Q 584 382 606 400 Q 618 410 611 417 Q 608 421 602 424 C 579 443 554 445 552 415 Q 555 379 503 326 Q 490 311 461 298 Q 440 289 440 282 Q 439 269 446 253 Q 453 238 462 234 Q 468 231 477 235 Q 528 268 691 310 Q 704 314 717 314 C 747 316 734 334 704 330 Z" fill="black" /></g></svg>