<?xml version='1.0' encoding='utf-8'?>
<svg xmlns="http://www.w3.org/2000/svg" version="1.1" viewBox="0 0 1024 1024"><g transform="scale(1, -1) translate(0, -900)"><path d="M 638 440 Q 669 447 702 450 Q 724 450 725 434 Q 734 358 723 344 Q 717 338 673 336 Q 660 337 656 333 Q 655 329 665 321 Q 710 294 737 273 Q 750 263 760 276 Q 778 304 778 358 Q 772 409 779 441 Q 782 457 773 465 Q 751 484 735 494 Q 725 498 716 490 Q 712 486 640 465 L 588 455 Q 557 451 517 443 C 488 437 495 406 524 415 Q 551 424 588 430 L 638 440 Z" fill="black" /></g></svg>