<?xml version='1.0' encoding='utf-8'?>
<svg xmlns="http://www.w3.org/2000/svg" version="1.1" viewBox="0 0 1024 1024"><g transform="scale(1, -1) translate(0, -900)"><path d="M 724 -31 Q 728 -53 735 -62 Q 739 -68 747 -66 Q 768 -48 769 121 Q 769 142 769 172 L 770 212 Q 770 257 773 317 L 778 361 Q 779 368 780 373 Q 783 389 771 397 Q 743 416 729 418 Q 719 422 704 415 Q 697 408 702 398 Q 720 374 720 342 L 720 304 Q 720 258 720 201 L 720 165 Q 721 134 721 96 Q 720 2 724 -31 Z" fill="black" /></g></svg>