<?xml version='1.0' encoding='utf-8'?>
<svg xmlns="http://www.w3.org/2000/svg" version="1.1" viewBox="0 0 1024 1024"><g transform="scale(1, -1) translate(0, -900)"><path d="M 229 674 Q 242 674 283 690 Q 298 694 306 686 Q 318 676 317 635 Q 326 322 311 132 Q 310 110 303 99 Q 297 95 242 106 Q 223 113 225 104 Q 270 61 294 29 Q 306 13 320 7 Q 327 4 335 13 Q 374 58 372 105 Q 362 294 364 601 Q 363 653 374 676 Q 384 692 374 702 Q 355 718 322 732 Q 303 741 267 716 Q 237 707 212 700 C 183 692 200 667 229 674 Z" fill="black" /></g></svg>