<?xml version='1.0' encoding='utf-8'?>
<svg xmlns="http://www.w3.org/2000/svg" version="1.1" viewBox="0 0 1024 1024"><g transform="scale(1, -1) translate(0, -900)"><path d="M 670 648 Q 683 330 782 133 Q 816 52 885 -20 Q 913 -45 929 -46 Q 942 -49 952 -36 Q 959 -27 954 18 Q 945 66 949 148 Q 952 176 943 179 Q 936 180 926 155 Q 907 68 889 79 Q 858 100 805 208 Q 741 352 714 656 L 712 695 Q 711 741 717 780 Q 727 804 725 816 Q 721 826 698 842 Q 679 858 665 860 Q 652 861 651 860 Q 629 856 645 831 Q 657 825 669 684 L 670 648 Z" fill="black" /></g></svg>