<?xml version='1.0' encoding='utf-8'?>
<svg xmlns="http://www.w3.org/2000/svg" version="1.1" viewBox="0 0 1024 1024"><g transform="scale(1, -1) translate(0, -900)"><path d="M 218 522 Q 219 549 219 575 Q 219 656 223 680 C 225 703 225 703 212 710 Q 199 720 177 726 Q 159 733 149 728 Q 139 721 146 709 Q 162 688 170 632 Q 170 404 151 315 Q 148 308 147 298 Q 119 193 52 64 Q 48 58 47 52 Q 46 42 54 46 Q 69 49 100 99 Q 164 184 197 333 L 203 366 Q 204 379 208 392 Q 214 440 217 487 L 218 522 Z" fill="black" /></g></svg>