<?xml version='1.0' encoding='utf-8'?>
<svg xmlns="http://www.w3.org/2000/svg" version="1.1" viewBox="0 0 1024 1024"><g transform="scale(1, -1) translate(0, -900)"><path d="M 223 702 Q 226 703 233 705 Q 254 712 275 719 Q 293 723 298 714 Q 310 681 315 391 Q 315 163 302 143 Q 262 144 221 146 Q 220 146 221 144 Q 269 104 296 75 Q 309 57 322 54 Q 331 50 338 59 Q 374 107 371 153 Q 344 634 363 694 Q 364 700 367 704 Q 377 722 367 731 Q 348 747 314 761 Q 298 767 284 760 Q 262 747 246 741 Q 230 737 204 730 C 175 722 194 693 223 702 Z" fill="black" /></g></svg>