<?xml version='1.0' encoding='utf-8'?>
<svg xmlns="http://www.w3.org/2000/svg" version="1.1" viewBox="0 0 1024 1024"><g transform="scale(1, -1) translate(0, -900)"><path d="M 214 651 Q 235 651 288 668 Q 304 671 313 661 Q 323 651 323 613 Q 327 318 311 141 Q 310 119 303 109 Q 299 105 283 108 Q 264 114 243 120 Q 224 130 224 120 Q 266 68 288 31 Q 300 12 314 5 Q 324 1 332 10 Q 377 55 377 133 Q 361 598 390 648 Q 403 667 391 678 Q 369 697 333 713 Q 315 720 300 715 Q 275 699 258 694 Q 239 688 205 682 C 176 676 184 647 214 651 Z" fill="black" /></g></svg>