<?xml version='1.0' encoding='utf-8'?>
<svg xmlns="http://www.w3.org/2000/svg" version="1.1" viewBox="0 0 1024 1024"><g transform="scale(1, -1) translate(0, -900)"><path d="M 359 170 Q 343 620 364 658 Q 376 677 364 687 Q 343 703 309 718 Q 291 725 277 718 Q 255 705 241 699 Q 225 693 198 687 C 169 680 183 650 212 657 Q 236 660 267 674 Q 286 678 291 669 Q 306 630 306 342 Q 303 113 289 92 Q 285 86 266 91 Q 241 97 214 103 Q 195 109 197 100 Q 251 54 281 19 Q 294 0 308 -4 Q 317 -8 325 2 Q 359 44 361 113 Q 360 123 360 131 L 359 170 Z" fill="black" /></g></svg>