<?xml version='1.0' encoding='utf-8'?>
<svg xmlns="http://www.w3.org/2000/svg" version="1.1" viewBox="0 0 1024 1024"><g transform="scale(1, -1) translate(0, -900)"><path d="M 406 323 Q 416 323 603 352 Q 625 356 629 345 Q 633 333 642 176 Q 645 49 634 32 Q 630 28 614 31 Q 589 40 563 49 Q 544 58 544 48 Q 593 -7 620 -46 Q 633 -65 648 -71 Q 657 -75 665 -66 Q 710 -20 709 34 Q 682 289 707 333 Q 720 352 708 363 Q 686 382 650 398 Q 631 405 615 398 Q 528 358 401 352 C 371 350 376 319 406 323 Z" fill="black" /></g></svg>