<?xml version='1.0' encoding='utf-8'?>
<svg xmlns="http://www.w3.org/2000/svg" version="1.1" viewBox="0 0 1024 1024"><g transform="scale(1, -1) translate(0, -900)"><path d="M 705 326 Q 724 295 741 285 Q 751 278 766 298 Q 779 319 810 434 Q 819 464 841 488 Q 854 500 843 513 Q 828 529 787 554 Q 768 564 754 558 Q 720 548 670 538 Q 609 525 530 508 Q 466 493 415 482 C 386 476 412 445 440 454 Q 486 470 552 484 L 583 491 Q 725 527 751 511 Q 764 502 759 485 Q 735 356 718 346 C 705 326 705 326 705 326 Z" fill="black" /></g></svg>