<?xml version='1.0' encoding='utf-8'?>
<svg xmlns="http://www.w3.org/2000/svg" version="1.1" viewBox="0 0 1024 1024"><g transform="scale(1, -1) translate(0, -900)"><path d="M 784 304 Q 791 338 799 360 L 819 405 Q 828 418 837 427 Q 850 443 838 458 Q 769 506 720 477 Q 711 474 704 471 L 664 459 Q 657 459 618 447 L 579 440 Q 552 437 528 433 Q 515 432 516 423 Q 519 416 534 411 Q 553 404 580 410 L 617 418 Q 641 425 665 428 L 704 438 Q 746 448 755 440 Q 765 433 763 413 Q 762 404 760 395 L 754 359 Q 750 334 743 310 C 735 281 778 275 784 304 Z" fill="black" /></g></svg>