<?xml version='1.0' encoding='utf-8'?>
<svg xmlns="http://www.w3.org/2000/svg" version="1.1" viewBox="0 0 1024 1024"><g transform="scale(1, -1) translate(0, -900)"><path d="M 578 197 Q 578 142 559 76 Q 546 28 576 -7 Q 585 -19 593 -8 Q 608 10 609 128 Q 609 197 612 250 L 613 281 Q 613 315 614 342 L 615 373 Q 615 400 617 418 L 618 447 Q 617 459 619 461 Q 623 479 618 485 Q 617 495 600 503 Q 599 504 598 504 C 572 520 552 523 562 495 Q 563 488 568 478 Q 575 465 579 440 L 580 410 Q 581 409 582 368 L 582 336 Q 582 308 581 275 L 578 197 Z" fill="black" /></g></svg>