<?xml version='1.0' encoding='utf-8'?>
<svg xmlns="http://www.w3.org/2000/svg" version="1.1" viewBox="0 0 1024 1024"><g transform="scale(1, -1) translate(0, -900)"><path d="M 219 700 Q 252 710 283 716 Q 298 720 305 711 Q 315 701 315 665 Q 316 379 301 208 Q 300 183 291 171 Q 251 172 209 174 Q 208 174 209 172 Q 258 132 284 103 Q 296 85 310 81 Q 317 78 326 87 Q 362 135 361 180 Q 355 349 361 624 Q 361 676 374 699 Q 384 717 374 726 Q 355 742 323 757 Q 307 764 293 758 Q 259 740 211 728 C 182 720 190 692 219 700 Z" fill="black" /></g></svg>