<?xml version='1.0' encoding='utf-8'?>
<svg xmlns="http://www.w3.org/2000/svg" version="1.1" viewBox="0 0 1024 1024"><g transform="scale(1, -1) translate(0, -900)"><path d="M 673 138 Q 685 122 697 114 Q 706 107 720 125 Q 730 140 755 224 Q 764 249 784 270 Q 794 280 786 292 Q 773 307 739 330 Q 723 339 708 333 Q 683 329 652 323 Q 609 316 555 307 Q 518 301 485 295 C 455 290 470 263 499 270 Q 560 286 671 299 Q 695 302 703 294 Q 710 284 709 274 Q 693 192 686 179 Q 682 170 673 167 C 658 156 658 156 673 138 Z" fill="black" /></g></svg>