<?xml version='1.0' encoding='utf-8'?>
<svg xmlns="http://www.w3.org/2000/svg" version="1.1" viewBox="0 0 1024 1024"><g transform="scale(1, -1) translate(0, -900)"><path d="M 208 681 Q 212 682 219 684 Q 246 691 271 699 Q 290 703 296 693 Q 311 650 312 360 Q 312 128 298 107 Q 294 101 277 105 Q 249 114 222 122 Q 203 129 204 120 Q 258 69 288 32 Q 300 14 315 9 Q 322 6 331 15 Q 371 61 370 112 Q 348 523 358 643 Q 361 668 369 683 Q 381 701 369 711 Q 348 729 314 743 Q 296 750 281 743 Q 248 722 189 710 C 160 703 179 673 208 681 Z" fill="black" /></g></svg>