<?xml version='1.0' encoding='utf-8'?>
<svg xmlns="http://www.w3.org/2000/svg" version="1.1" viewBox="0 0 1024 1024"><g transform="scale(1, -1) translate(0, -900)"><path d="M 665 258 Q 665 90 655 15 Q 652 -16 674 -46 Q 683 -59 691 -44 Q 706 -14 707 46 Q 704 82 704 242 L 704 301 Q 704 328 704 355 L 704 386 Q 705 408 705 429 Q 704 433 704 438 L 704 471 Q 704 519 702 520 Q 699 523 695 525 C 680 551 654 547 660 518 Q 663 509 664 494 Q 664 478 664 459 L 665 428 Q 665 406 666 380 L 666 350 Q 666 322 666 292 L 665 258 Z" fill="black" /></g></svg>