<?xml version='1.0' encoding='utf-8'?>
<svg xmlns="http://www.w3.org/2000/svg" version="1.1" viewBox="0 0 1024 1024"><g transform="scale(1, -1) translate(0, -900)"><path d="M 888 666 Q 900 670 894 682 Q 884 697 870 706 Q 861 712 842 705 Q 814 693 778 697 Q 756 698 750 716 Q 743 729 751 764 Q 754 786 776 808 Q 789 820 777 831 Q 758 846 738 855 Q 731 859 716 851 Q 668 835 618 824 C 589 817 605 786 633 795 Q 663 805 687 813 Q 703 819 709 816 Q 716 813 714 801 Q 708 699 729 678 Q 730 675 735 672 Q 760 656 812 654 Q 861 653 888 666 Z" fill="black" /></g></svg>