<?xml version='1.0' encoding='utf-8'?>
<svg xmlns="http://www.w3.org/2000/svg" version="1.1" viewBox="0 0 1024 1024"><g transform="scale(1, -1) translate(0, -900)"><path d="M 338 501 Q 338 720 351 741 Q 361 760 350 769 Q 331 787 296 800 Q 278 807 265 801 Q 240 785 224 778 Q 214 774 201 770 C 173 760 182 729 210 739 Q 232 746 256 756 Q 271 760 279 754 Q 292 741 291 698 Q 297 361 279 157 Q 278 135 271 124 Q 267 121 210 133 Q 192 140 192 132 Q 235 83 259 50 Q 271 31 285 26 Q 294 22 302 31 Q 342 77 343 127 Q 337 278 338 498 L 338 501 Z" fill="black" /></g></svg>