<?xml version='1.0' encoding='utf-8'?>
<svg xmlns="http://www.w3.org/2000/svg" version="1.1" viewBox="0 0 1024 1024"><g transform="scale(1, -1) translate(0, -900)"><path d="M 748 201 Q 781 259 802 350 Q 806 380 823 396 Q 836 409 819 422 Q 800 435 771 445 Q 753 448 716 430 L 677 415 Q 655 409 630 404 Q 608 403 598 396 Q 591 390 606 382 Q 628 372 661 382 Q 695 391 728 400 Q 749 407 749 383 Q 749 320 716 238 L 696 199 Q 648 127 527 81 Q 514 77 523 70 Q 530 66 554 71 Q 666 87 722 159 L 748 201 Z" fill="black" /></g></svg>