<?xml version='1.0' encoding='utf-8'?>
<svg xmlns="http://www.w3.org/2000/svg" version="1.1" viewBox="0 0 1024 1024"><g transform="scale(1, -1) translate(0, -900)"><path d="M 425 539 Q 455 549 481 555 Q 488 556 491 554 Q 498 545 497 520 Q 496 451 482 419 Q 473 400 456 400 Q 444 401 434 405 Q 418 409 429 394 Q 454 369 465 348 Q 478 335 489 348 Q 531 384 536 511 Q 537 542 547 560 Q 554 570 550 576 Q 543 583 507 596 Q 492 600 480 591 Q 447 569 361 552 Q 349 551 347 545 Q 347 539 364 532 Q 382 523 395 529 Q 396 530 401 531 L 425 539 Z" fill="black" /></g></svg>