<?xml version='1.0' encoding='utf-8'?>
<svg xmlns="http://www.w3.org/2000/svg" version="1.1" viewBox="0 0 1024 1024"><g transform="scale(1, -1) translate(0, -900)"><path d="M 317 93 Q 308 622 310 632 Q 311 642 316 649 Q 326 665 315 674 Q 297 690 266 701 Q 245 708 210 683 Q 195 679 174 670 C 146 659 164 631 191 643 Q 195 646 202 648 Q 217 654 231 661 Q 244 665 252 659 Q 264 649 263 610 Q 273 306 260 124 Q 259 102 252 92 Q 246 88 193 99 Q 177 105 177 96 Q 220 56 244 26 Q 256 10 269 6 Q 276 2 284 11 Q 311 44 316 82 L 317 93 Z" fill="black" /></g></svg>