<?xml version='1.0' encoding='utf-8'?>
<svg xmlns="http://www.w3.org/2000/svg" version="1.1" viewBox="0 0 1024 1024"><g transform="scale(1, -1) translate(0, -900)"><path d="M 615 649 Q 614 650 619 651 Q 797 687 815 685 Q 828 678 825 669 Q 825 666 804 608 Q 797 595 803 592 Q 810 591 824 600 Q 867 634 904 645 Q 934 655 933 664 Q 930 671 870 712 Q 852 727 784 711 Q 715 702 667 688 L 631 680 Q 597 677 494 652 C 465 645 480 620 510 622 Q 520 621 530 624 Q 564 637 601 645 L 615 649 Z" fill="black" /></g></svg>