<?xml version='1.0' encoding='utf-8'?>
<svg xmlns="http://www.w3.org/2000/svg" version="1.1" viewBox="0 0 1024 1024"><g transform="scale(1, -1) translate(0, -900)"><path d="M 590 784 Q 580 753 558 722 Q 551 712 553 701 Q 554 691 569 682 Q 597 658 622 631 Q 635 616 648 617 Q 658 618 661 638 Q 662 657 651 671 Q 645 681 609 689 Q 593 693 586 703 Q 582 710 592 723 Q 602 732 622 754 Q 638 773 652 783 Q 665 790 660 806 Q 648 837 628 848 Q 616 855 606 854 Q 596 853 600 836 Q 607 815 590 784 Z" fill="black" /></g></svg>