<?xml version='1.0' encoding='utf-8'?>
<svg xmlns="http://www.w3.org/2000/svg" version="1.1" viewBox="0 0 1024 1024"><g transform="scale(1, -1) translate(0, -900)"><path d="M 741 796 Q 729 763 707 733 Q 700 723 703 713 Q 706 704 720 695 Q 754 673 785 648 Q 800 635 811 637 Q 821 640 822 658 Q 821 677 809 689 Q 802 699 757 706 Q 744 707 736 716 Q 732 723 739 733 Q 749 743 770 766 Q 786 785 799 794 Q 812 801 806 815 Q 796 843 777 856 Q 767 863 756 861 Q 747 860 751 845 Q 755 824 741 796 Z" fill="black" /></g></svg>