<?xml version='1.0' encoding='utf-8'?>
<svg xmlns="http://www.w3.org/2000/svg" version="1.1" viewBox="0 0 1024 1024"><g transform="scale(1, -1) translate(0, -900)"><path d="M 216 682 Q 222 683 229 686 Q 289 707 297 699 Q 307 689 307 654 Q 313 383 300 220 Q 299 198 291 187 Q 287 181 270 186 Q 251 190 230 194 Q 211 201 213 192 Q 258 149 282 117 Q 294 101 307 95 Q 316 91 323 100 Q 362 145 360 192 Q 339 639 365 687 Q 375 705 365 714 Q 346 730 313 743 Q 297 750 284 744 Q 260 728 245 723 Q 229 717 203 711 C 174 704 187 673 216 682 Z" fill="black" /></g></svg>