<?xml version='1.0' encoding='utf-8'?>
<svg xmlns="http://www.w3.org/2000/svg" version="1.1" viewBox="0 0 1024 1024"><g transform="scale(1, -1) translate(0, -900)"><path d="M 616 237 Q 619 285 623 309 L 626 325 Q 630 343 618 353 Q 596 377 579 380 Q 569 381 563 378 Q 553 372 563 360 Q 579 327 579 299 Q 582 89 555 48 Q 543 29 551 9 Q 561 -19 578 -31 Q 588 -37 598 -20 Q 622 16 703 105 Q 718 120 719 127 Q 719 139 701 127 Q 625 79 618 82 Q 611 85 611 100 Q 612 172 616 221 L 616 237 Z" fill="black" /></g></svg>