<?xml version='1.0' encoding='utf-8'?>
<svg xmlns="http://www.w3.org/2000/svg" version="1.1" viewBox="0 0 1024 1024"><g transform="scale(1, -1) translate(0, -900)"><path d="M 618 108 Q 657 62 684 18 Q 696 -1 708 -1 Q 727 0 744 40 Q 763 83 759 138 Q 746 283 734 553 Q 731 589 750 615 Q 760 630 749 641 Q 727 663 667 689 Q 645 699 628 688 Q 580 666 427 626 L 397 620 Q 375 617 361 614 C 331 609 339 575 369 579 Q 393 579 605 629 Q 636 636 653 625 Q 692 591 676 149 Q 675 145 675 139 Q 671 121 657 124 C 637 102 606 122 618 108 Z" fill="black" /></g></svg>