<?xml version='1.0' encoding='utf-8'?>
<svg xmlns="http://www.w3.org/2000/svg" version="1.1" viewBox="0 0 1024 1024"><g transform="scale(1, -1) translate(0, -900)"><path d="M 751 615 Q 750 612 753 605 Q 762 580 762 556 Q 761 496 768 480 Q 772 455 818 439 Q 905 418 965 467 Q 978 477 969 496 Q 960 509 946 550 Q 946 562 940 565 Q 936 568 933 555 Q 900 489 864 481 Q 854 480 842 478 Q 826 478 812 482 Q 800 486 798 494 Q 786 513 796 590 Q 800 608 769 619 C 748 628 748 628 751 615 Z" fill="black" /></g></svg>