<?xml version='1.0' encoding='utf-8'?>
<svg xmlns="http://www.w3.org/2000/svg" version="1.1" viewBox="0 0 1024 1024"><g transform="scale(1, -1) translate(0, -900)"><path d="M 192 714 Q 186 720 174 727 Q 147 743 135 741 Q 123 735 131 716 Q 149 684 149 621 Q 153 414 130 223 Q 129 196 121 176 L 107 153 Q 98 136 106 118 Q 110 108 114 100 Q 127 76 151 93 Q 226 151 445 165 Q 467 166 467 176 Q 466 190 439 206 Q 423 218 359 200 L 314 190 Q 271 186 228 175 Q 192 167 186 167 Q 177 169 177 186 L 186 363 L 186 378 Q 188 425 192 486 L 192 509 Q 196 653 205 684 C 208 703 208 703 192 714 Z" fill="black" /></g></svg>