<?xml version='1.0' encoding='utf-8'?>
<svg xmlns="http://www.w3.org/2000/svg" version="1.1" viewBox="0 0 1024 1024"><g transform="scale(1, -1) translate(0, -900)"><path d="M 326 717 Q 283 742 264 744 Q 251 745 242 738 Q 232 731 246 714 Q 271 684 264 410 Q 261 199 227 108 Q 221 96 214 90 Q 193 72 205 53 Q 211 37 227 24 Q 242 11 261 25 Q 309 73 604 81 Q 785 85 849 76 Q 897 69 898 92 Q 898 107 862 129 Q 828 150 808 149 Q 774 148 565 122 L 515 117 Q 478 116 437 109 Q 311 88 302 102 Q 292 112 299 167 Q 302 195 305 263 Q 305 273 305 292 L 307 326 Q 310 375 316 459 L 318 489 Q 319 508 321 530 Q 325 638 331 674 C 334 704 335 712 326 717 Z" fill="black" /></g></svg>