<?xml version='1.0' encoding='utf-8'?>
<svg xmlns="http://www.w3.org/2000/svg" version="1.1" viewBox="0 0 1024 1024"><g transform="scale(1, -1) translate(0, -900)"><path d="M 414 487 Q 405 494 391 501 Q 376 508 370 504 Q 366 498 371 488 Q 407 418 372 158 Q 368 142 357 122 Q 350 112 357 96 Q 364 81 371 75 Q 378 69 391 79 Q 433 115 578 131 Q 596 132 595 140 Q 594 150 573 163 Q 560 173 517 159 L 485 151 Q 482 152 480 151 Q 455 147 423 138 Q 419 137 415 137 Q 411 138 411 149 Q 412 195 415 245 L 415 262 Q 416 296 418 332 L 419 355 Q 419 436 425 464 C 427 479 427 479 414 487 Z" fill="black" /></g></svg>