<?xml version='1.0' encoding='utf-8'?>
<svg xmlns="http://www.w3.org/2000/svg" version="1.1" viewBox="0 0 1024 1024"><g transform="scale(1, -1) translate(0, -900)"><path d="M 701 194 Q 758 80 837 12 Q 898 -37 928 -36 Q 949 -32 941 -2 Q 934 46 929 186 Q 928 210 918 211 Q 915 211 885 119 Q 873 77 847 91 Q 838 97 826 107 Q 772 161 729 241 L 708 289 Q 654 422 632 603 L 627 650 Q 621 701 630 765 Q 642 805 588 825 Q 554 840 535 832 Q 516 825 525 807 Q 570 767 570 735 Q 576 686 583 638 L 590 595 Q 620 388 681 239 L 701 194 Z" fill="black" /></g></svg>