<?xml version='1.0' encoding='utf-8'?>
<svg xmlns="http://www.w3.org/2000/svg" version="1.1" viewBox="0 0 1024 1024"><g transform="scale(1, -1) translate(0, -900)"><path d="M 592 423 Q 611 399 629 392 Q 642 385 656 409 Q 672 443 691 620 Q 698 653 722 681 Q 735 694 722 709 Q 706 725 658 751 Q 643 757 562 739 Q 552 739 417 712 Q 411 711 405 708 L 381 703 Q 359 702 342 697 C 313 691 345 660 374 667 Q 447 686 577 705 Q 607 709 616 699 Q 634 681 632 661 Q 619 496 607 471 Q 603 459 593 454 C 579 438 579 438 592 423 Z" fill="black" /></g></svg>