<?xml version='1.0' encoding='utf-8'?>
<svg xmlns="http://www.w3.org/2000/svg" version="1.1" viewBox="0 0 1024 1024"><g transform="scale(1, -1) translate(0, -900)"><path d="M 383 397 Q 384 396 386 391 Q 395 366 402 367 Q 414 367 429 391 Q 444 410 444 428 Q 441 582 474 626 Q 484 639 477 649 Q 453 671 412 691 Q 399 697 377 690 Q 346 677 243 653 L 216 649 Q 212 649 210 648 C 180 643 187 613 217 618 Q 221 618 226 619 Q 310 641 371 653 Q 393 657 400 647 Q 421 617 390 449 Q 387 439 382 421 C 378 408 378 408 383 397 Z" fill="black" /></g></svg>