<?xml version='1.0' encoding='utf-8'?>
<svg xmlns="http://www.w3.org/2000/svg" version="1.1" viewBox="0 0 1024 1024"><g transform="scale(1, -1) translate(0, -900)"><path d="M 634 372 L 632 374 Q 620 386 599 394 Q 589 398 580 394 Q 574 390 579 374 Q 589 340 587 305 Q 575 133 590 84 Q 594 60 616 40 Q 682 -21 846 0 Q 861 3 877 7 Q 916 17 954 45 Q 975 67 953 96 Q 937 115 901 183 Q 897 199 889 202 Q 882 203 881 185 Q 871 106 859 80 Q 829 44 734 53 Q 697 56 667 70 Q 640 83 633 101 Q 606 156 634 328 C 639 358 640 367 634 372 Z" fill="black" /></g></svg>