<?xml version='1.0' encoding='utf-8'?>
<svg xmlns="http://www.w3.org/2000/svg" version="1.1" viewBox="0 0 1024 1024"><g transform="scale(1, -1) translate(0, -900)"><path d="M 656 528 Q 610 527 529 515 Q 417 500 369 487 Q 345 483 359 501 Q 375 520 423 568 Q 496 640 511 647 Q 521 654 528 662 Q 534 677 513 696 Q 497 709 483 718 C 458 735 420 738 429 709 Q 435 699 436 680 Q 429 628 303 501 Q 249 471 254 431 Q 254 428 256 424 Q 263 400 277 399 Q 283 400 300 410 Q 390 467 614 497 Q 651 503 676 503 C 706 504 686 529 656 528 Z" fill="black" /></g></svg>