<?xml version='1.0' encoding='utf-8'?>
<svg xmlns="http://www.w3.org/2000/svg" version="1.1" viewBox="0 0 1024 1024"><g transform="scale(1, -1) translate(0, -900)"><path d="M 610 237 Q 623 233 658 229 Q 674 226 682 217 Q 691 195 657 131 Q 641 103 628 98 Q 619 95 589 105 Q 561 118 558 114 Q 554 107 567 98 Q 597 68 601 46 Q 604 33 613 28 Q 622 24 648 38 Q 687 65 713 147 Q 725 189 739 197 Q 746 201 748 207 Q 749 214 732 233 Q 713 254 664 254 Q 640 257 616 262 C 587 268 581 244 610 237 Z" fill="black" /></g></svg>