<?xml version='1.0' encoding='utf-8'?>
<svg xmlns="http://www.w3.org/2000/svg" version="1.1" viewBox="0 0 1024 1024"><g transform="scale(1, -1) translate(0, -900)"><path d="M 564 503 Q 583 555 587 568 L 600 608 Q 609 645 617 679 L 626 725 Q 632 758 641 785 Q 650 798 645 810 Q 632 826 605 841 Q 589 851 577 848 Q 567 844 571 830 Q 584 799 578 748 Q 575 724 572 710 L 565 666 Q 558 630 550 597 Q 549 597 549 596 L 538 558 Q 526 525 515 495 L 499 460 Q 460 385 396 303 Q 392 297 389 292 Q 386 283 395 284 Q 435 291 512 403 Q 531 436 549 471 L 564 503 Z" fill="black" /></g></svg>