<?xml version='1.0' encoding='utf-8'?>
<svg xmlns="http://www.w3.org/2000/svg" version="1.1" viewBox="0 0 1024 1024"><g transform="scale(1, -1) translate(0, -900)"><path d="M 684 114 Q 700 89 719 39 Q 729 17 750 30 Q 792 49 822 223 Q 867 470 890 508 Q 906 532 887 548 Q 821 614 772 598 Q 670 577 566 574 Q 556 574 554 562 Q 554 550 572 540 Q 602 525 643 533 Q 772 564 794 549 Q 807 540 805 507 Q 798 446 787 381 L 780 342 Q 761 251 736 154 Q 732 138 701 145 C 671 146 669 140 684 114 Z" fill="black" /></g></svg>