<?xml version='1.0' encoding='utf-8'?>
<svg xmlns="http://www.w3.org/2000/svg" version="1.1" viewBox="0 0 1024 1024"><g transform="scale(1, -1) translate(0, -900)"><path d="M 504 202 Q 546 215 623 231 C 652 237 638 251 608 247 Q 517 234 424 220 Q 417 219 415 221 Q 414 222 418 226 Q 478 283 500 296 Q 513 306 507 314 Q 501 321 486 328 C 460 342 447 349 444 322 Q 444 282 388 238 Q 373 226 346 217 Q 324 210 322 201 Q 321 188 327 170 Q 334 154 344 148 Q 350 145 360 149 Q 415 182 464 191 L 504 202 Z" fill="black" /></g></svg>