<?xml version='1.0' encoding='utf-8'?>
<svg xmlns="http://www.w3.org/2000/svg" version="1.1" viewBox="0 0 1024 1024"><g transform="scale(1, -1) translate(0, -900)"><path d="M 667 344 Q 668 337 671 329 Q 678 311 692 313 Q 707 316 715 332 Q 737 366 762 523 Q 780 580 820 613 Q 841 631 823 648 Q 802 667 747 695 Q 731 704 629 681 Q 604 675 588 673 Q 572 674 570 668 Q 566 664 582 653 Q 607 640 649 644 Q 697 653 706 649 Q 722 640 715 591 Q 711 561 705 534 L 700 501 Q 681 395 672 367 Q 671 367 671 366 C 666 349 666 349 667 344 Z" fill="black" /></g></svg>