<?xml version='1.0' encoding='utf-8'?>
<svg xmlns="http://www.w3.org/2000/svg" version="1.1" viewBox="0 0 1024 1024"><g transform="scale(1, -1) translate(0, -900)"><path d="M 601 24 Q 614 5 631 -33 Q 641 -49 655 -39 Q 682 -24 697 73 Q 721 217 736 243 Q 749 261 733 273 Q 712 294 683 309 Q 677 313 613 305 Q 576 299 532 298 Q 523 298 523 289 Q 522 280 536 272 Q 555 262 596 266 Q 650 281 660 271 Q 667 267 667 249 Q 666 215 661 180 L 657 146 Q 650 101 641 54 Q 640 47 629 46 C 604 29 600 26 601 24 Z" fill="black" /></g></svg>