<?xml version='1.0' encoding='utf-8'?>
<svg xmlns="http://www.w3.org/2000/svg" version="1.1" viewBox="0 0 1024 1024"><g transform="scale(1, -1) translate(0, -900)"><path d="M 476 168 Q 476 -54 491 -73 Q 495 -80 503 -78 Q 518 -69 522 -16 Q 529 42 527 99 Q 526 121 526 173 L 526 213 Q 526 247 527 287 L 528 331 Q 528 334 529 336 Q 530 369 538 399 Q 541 415 528 424 Q 498 443 484 446 Q 472 450 458 442 Q 451 435 456 425 Q 474 395 475 332 Q 475 326 476 318 L 476 279 Q 476 245 476 206 L 476 168 Z" fill="black" /></g></svg>