<?xml version='1.0' encoding='utf-8'?>
<svg xmlns="http://www.w3.org/2000/svg" version="1.1" viewBox="0 0 1024 1024"><g transform="scale(1, -1) translate(0, -900)"><path d="M 500 194 Q 585 210 658 216 Q 692 217 697 208 Q 704 196 697 166 Q 681 82 658 47 Q 633 8 598 18 Q 571 22 549 30 Q 521 37 542 12 Q 584 -30 604 -61 Q 617 -83 637 -70 Q 667 -55 692 -24 Q 720 12 758 134 Q 771 177 790 196 Q 806 209 800 223 Q 791 236 734 268 Q 712 281 688 267 Q 651 249 517 227 L 448 216 Q 345 203 256 202 Q 235 203 231 192 Q 228 183 256 168 Q 284 147 308 155 Q 372 171 435 182 L 500 194 Z" fill="black" /></g></svg>