<?xml version='1.0' encoding='utf-8'?>
<svg xmlns="http://www.w3.org/2000/svg" version="1.1" viewBox="0 0 1024 1024"><g transform="scale(1, -1) translate(0, -900)"><path d="M 558 504 Q 567 520 577 581 Q 592 668 600 678 Q 609 688 610 694 Q 610 701 592 713 Q 573 726 562 727 Q 555 730 508 718 Q 486 711 480 716 Q 477 719 484 751 Q 491 775 497 790 L 505 812 Q 508 822 511 824 Q 517 831 517 840 Q 516 852 496 864 Q 474 877 456 880 Q 443 881 439 876 Q 438 872 443 865 Q 458 844 441 731 Q 440 727 438 723 Q 432 716 433 710 Q 432 700 438 687 Q 442 677 449 674 Q 456 673 466 680 Q 482 690 512 693 Q 540 697 547 691 Q 554 685 549 663 Q 534 566 527 557 Q 512 539 526 501 C 535 472 547 476 558 504 Z" fill="black" /></g></svg>