<?xml version='1.0' encoding='utf-8'?>
<svg xmlns="http://www.w3.org/2000/svg" version="1.1" viewBox="0 0 1024 1024"><g transform="scale(1, -1) translate(0, -900)"><path d="M 446 498 Q 461 531 473 566 L 484 609 Q 493 646 505 682 L 518 728 Q 527 759 544 786 Q 556 804 539 815 Q 491 858 463 850 Q 448 846 453 830 Q 468 794 457 716 L 449 673 Q 442 639 431 600 L 416 557 Q 394 500 388 491 L 367 452 Q 277 311 120 227 Q 104 217 85 205 Q 70 196 83 193 Q 99 192 137 202 Q 216 230 278 280 Q 348 329 385 390 Q 401 417 418 443 Q 422 452 428 461 L 446 498 Z" fill="black" /></g></svg>