<?xml version='1.0' encoding='utf-8'?>
<svg xmlns="http://www.w3.org/2000/svg" version="1.1" viewBox="0 0 1024 1024"><g transform="scale(1, -1) translate(0, -900)"><path d="M 672 50 Q 687 28 704 -14 Q 714 -35 733 -23 Q 769 -5 790 132 Q 824 334 841 358 Q 841 361 843 362 Q 856 384 839 399 Q 775 459 734 442 Q 658 423 558 419 Q 548 419 547 407 Q 548 397 564 388 Q 588 376 632 383 Q 737 408 755 398 Q 765 391 764 365 Q 760 317 752 268 L 748 239 Q 735 166 718 89 Q 715 77 697 79 C 669 70 662 67 672 50 Z" fill="black" /></g></svg>