<?xml version='1.0' encoding='utf-8'?>
<svg xmlns="http://www.w3.org/2000/svg" version="1.1" viewBox="0 0 1024 1024"><g transform="scale(1, -1) translate(0, -900)"><path d="M 549 474 Q 583 481 612 482 Q 636 483 629 494 Q 622 504 609 511 Q 599 514 551 502 L 507 493 Q 479 489 448 482 Q 436 481 435 483 Q 434 484 436 494 Q 457 552 487 620 L 507 663 Q 528 727 553 749 Q 563 758 550 774 Q 514 813 496 810 Q 489 806 493 789 Q 500 761 466 652 L 451 613 Q 409 511 381 483 Q 368 470 372 458 Q 378 442 386 434 Q 393 427 402 430 Q 432 446 507 464 L 549 474 Z" fill="black" /></g></svg>