<?xml version='1.0' encoding='utf-8'?>
<svg xmlns="http://www.w3.org/2000/svg" version="1.1" viewBox="0 0 1024 1024"><g transform="scale(1, -1) translate(0, -900)"><path d="M 781 470 Q 800 560 831 657 Q 838 685 852 697 Q 868 710 859 722 Q 847 738 815 757 Q 799 769 773 759 Q 730 743 694 740 Q 682 740 682 731 Q 683 724 697 717 Q 713 707 732 714 Q 745 715 758 718 Q 768 719 774 715 Q 780 711 778 690 Q 775 668 772 645 L 769 623 Q 765 596 759 567 L 755 541 Q 748 505 739 465 C 732 436 775 441 781 470 Z" fill="black" /></g></svg>