<?xml version='1.0' encoding='utf-8'?>
<svg xmlns="http://www.w3.org/2000/svg" version="1.1" viewBox="0 0 1024 1024"><g transform="scale(1, -1) translate(0, -900)"><path d="M 627 451 Q 634 596 647 692 Q 651 716 662 732 Q 672 742 663 757 Q 656 767 617 792 Q 604 802 586 793 Q 549 780 493 768 Q 450 761 399 758 C 369 756 389 726 419 731 Q 423 732 431 733 Q 531 755 573 758 Q 591 761 595 755 Q 599 746 598 727 Q 597 714 596 700 L 594 678 L 592 612 L 591 591 Q 587 513 583 447 C 581 417 626 421 627 451 Z" fill="black" /></g></svg>