<?xml version='1.0' encoding='utf-8'?>
<svg xmlns="http://www.w3.org/2000/svg" version="1.1" viewBox="0 0 1024 1024"><g transform="scale(1, -1) translate(0, -900)"><path d="M 194 376 Q 218 361 245 367 Q 330 389 422 403 Q 522 416 683 431 Q 780 438 805 434 Q 823 427 822 419 Q 822 416 816 404 Q 803 379 787 353 Q 780 341 785 336 Q 792 332 808 342 Q 863 370 907 378 Q 943 385 942 394 Q 942 404 875 461 Q 856 479 832 476 Q 805 475 781 470 L 739 465 Q 685 461 628 452 Q 627 452 627 451 L 583 447 Q 549 446 515 440 L 488 438 Q 460 437 433 432 L 397 427 Q 366 426 332 420 Q 314 419 297 415 L 263 412 Q 229 411 197 407 C 167 404 166 387 194 376 Z" fill="black" /></g></svg>