<?xml version='1.0' encoding='utf-8'?>
<svg xmlns="http://www.w3.org/2000/svg" version="1.1" viewBox="0 0 1024 1024"><g transform="scale(1, -1) translate(0, -900)"><path d="M 682 208 Q 730 214 848 207 Q 869 206 877 216 Q 883 223 865 236 Q 810 275 762 259 Q 723 253 682 247 L 633 240 Q 585 233 541 223 Q 513 216 522 240 Q 534 271 542 284 Q 552 293 546 302 Q 542 312 509 328 Q 493 338 484 332 Q 474 323 482 311 Q 503 275 468 224 Q 447 209 449 193 Q 450 183 466 170 Q 479 161 490 172 Q 547 199 632 204 L 682 208 Z" fill="black" /></g></svg>