<?xml version='1.0' encoding='utf-8'?>
<svg xmlns="http://www.w3.org/2000/svg" version="1.1" viewBox="0 0 1024 1024"><g transform="scale(1, -1) translate(0, -900)"><path d="M 690 160 Q 750 170 873 163 Q 894 162 901 172 Q 907 181 889 192 Q 832 231 780 212 Q 762 209 743 206 Q 716 203 691 198 L 639 190 Q 593 183 549 172 Q 525 165 533 186 Q 548 225 559 238 Q 569 247 565 257 Q 561 267 530 285 Q 515 295 505 291 Q 495 284 501 270 Q 510 248 496 202 Q 492 183 467 164 Q 457 155 458 143 Q 459 133 474 119 Q 487 110 499 120 Q 559 150 639 155 L 690 160 Z" fill="black" /></g></svg>