<?xml version='1.0' encoding='utf-8'?>
<svg xmlns="http://www.w3.org/2000/svg" version="1.1" viewBox="0 0 1024 1024"><g transform="scale(1, -1) translate(0, -900)"><path d="M 713 582 Q 767 588 816 590 Q 826 587 835 599 Q 836 609 816 621 Q 783 645 727 629 L 673 619 Q 633 612 596 605 L 554 599 Q 514 595 479 589 L 443 586 Q 380 583 380 582 L 336 579 Q 299 579 262 575 Q 234 574 254 556 Q 279 531 326 537 Q 333 538 345 539 L 383 544 Q 413 548 446 553 L 479 558 Q 515 564 553 568 L 591 572 Q 648 581 666 578 L 713 582 Z" fill="black" /></g></svg>