<?xml version='1.0' encoding='utf-8'?>
<svg xmlns="http://www.w3.org/2000/svg" version="1.1" viewBox="0 0 1024 1024"><g transform="scale(1, -1) translate(0, -900)"><path d="M 385 395 Q 386 133 368 100 Q 362 96 291 107 Q 272 113 273 103 Q 328 58 360 24 Q 373 5 389 0 Q 399 -4 407 6 Q 440 48 444 85 L 445 96 Q 439 576 440 582 Q 441 598 448 607 Q 460 626 448 637 Q 426 655 390 669 Q 369 678 320 648 Q 287 636 254 627 C 225 619 231 584 259 594 Q 281 603 349 622 Q 367 629 373 621 Q 380 603 385 422 L 385 395 Z" fill="black" /></g></svg>