<?xml version='1.0' encoding='utf-8'?>
<svg xmlns="http://www.w3.org/2000/svg" version="1.1" viewBox="0 0 1024 1024"><g transform="scale(1, -1) translate(0, -900)"><path d="M 431 613 L 584 642 Q 606 646 612 634 Q 619 615 623 583 Q 627 495 632 416 L 633 374 Q 642 88 625 53 Q 619 46 597 51 Q 563 57 528 64 Q 506 68 509 59 Q 579 10 620 -27 Q 635 -46 651 -51 Q 661 -55 670 -44 Q 709 13 706 67 Q 696 194 687 375 L 685 423 Q 684 478 682 536 Q 679 597 694 624 Q 707 646 694 656 Q 672 675 632 691 Q 613 698 596 691 Q 523 655 419 643 C 389 639 402 607 431 613 Z" fill="black" /></g></svg>