<?xml version='1.0' encoding='utf-8'?>
<svg xmlns="http://www.w3.org/2000/svg" version="1.1" viewBox="0 0 1024 1024"><g transform="scale(1, -1) translate(0, -900)"><path d="M 909 85 Q 893 112 866 195 Q 865 211 857 214 Q 851 217 849 199 Q 836 108 822 78 Q 810 62 773 52 Q 734 42 687 46 Q 647 49 614 64 Q 584 79 577 97 Q 550 155 576 322 C 580 352 581 355 574 360 Q 573 361 572 362 Q 560 375 539 382 Q 535 383 532 382 C 510 388 510 388 518 363 L 519 362 Q 531 326 528 293 Q 516 83 555 40 Q 564 22 624 2 Q 792 -40 907 42 Q 926 60 909 85 Z" fill="black" /></g></svg>