<?xml version='1.0' encoding='utf-8'?>
<svg xmlns="http://www.w3.org/2000/svg" version="1.1" viewBox="0 0 1024 1024"><g transform="scale(1, -1) translate(0, -900)"><path d="M 672 380 Q 679 368 735 360 Q 777 354 774 317 Q 765 251 729 159 Q 698 89 670 78 Q 658 75 624 87 Q 587 108 582 102 Q 575 93 592 79 Q 628 39 632 4 Q 636 -14 648 -21 Q 661 -28 698 -7 Q 737 23 773 104 Q 834 296 851 311 Q 851 312 852 312 Q 865 316 866 326 Q 867 336 843 363 Q 810 393 761 394 Q 719 398 686 409 C 657 417 646 396 672 380 Z" fill="black" /></g></svg>