<?xml version='1.0' encoding='utf-8'?>
<svg xmlns="http://www.w3.org/2000/svg" version="1.1" viewBox="0 0 1024 1024"><g transform="scale(1, -1) translate(0, -900)"><path d="M 713 459 Q 720 645 743 677 Q 750 699 732 713 Q 704 738 665 747 Q 646 751 637 742 Q 630 732 637 723 Q 658 704 662 632 Q 649 307 670 203 Q 673 182 685 155 Q 715 98 838 92 Q 949 91 987 126 Q 1003 139 985 168 Q 966 217 959 280 Q 958 290 950 300 Q 940 306 937 282 Q 900 167 885 158 Q 879 157 874 155 Q 808 139 758 157 Q 731 164 722 197 Q 704 249 712 430 L 713 459 Z" fill="black" /></g></svg>