<?xml version='1.0' encoding='utf-8'?>
<svg xmlns="http://www.w3.org/2000/svg" version="1.1" viewBox="0 0 1024 1024"><g transform="scale(1, -1) translate(0, -900)"><path d="M 383 392 Q 380 125 365 102 Q 361 96 340 101 Q 313 105 287 111 Q 268 117 269 107 Q 326 64 358 29 Q 371 11 386 7 Q 395 3 402 13 Q 441 58 439 111 Q 418 574 443 617 Q 455 636 443 646 Q 424 662 388 677 Q 370 686 325 660 Q 310 654 258 640 C 229 632 239 602 268 610 Q 272 611 280 613 Q 314 623 348 633 Q 366 639 371 630 Q 381 603 382 417 L 383 392 Z" fill="black" /></g></svg>