<?xml version='1.0' encoding='utf-8'?>
<svg xmlns="http://www.w3.org/2000/svg" version="1.1" viewBox="0 0 1024 1024"><g transform="scale(1, -1) translate(0, -900)"><path d="M 399 380 Q 399 94 381 64 Q 377 61 303 72 Q 284 76 285 67 Q 342 25 375 -8 Q 388 -26 403 -30 Q 412 -33 419 -24 Q 456 19 455 75 Q 446 244 448 519 Q 447 574 460 598 Q 472 617 460 626 Q 441 644 405 658 Q 389 665 337 640 Q 310 634 284 625 C 264 619 262 625 263 622 Q 260 621 259 621 C 229 616 244 585 273 592 Q 315 601 363 615 Q 382 619 387 610 Q 394 589 399 406 L 399 380 Z" fill="black" /></g></svg>