<?xml version='1.0' encoding='utf-8'?>
<svg xmlns="http://www.w3.org/2000/svg" version="1.1" viewBox="0 0 1024 1024"><g transform="scale(1, -1) translate(0, -900)"><path d="M 612 689 Q 627 692 666 708 Q 685 715 693 712 Q 700 708 699 694 Q 695 562 697 551 Q 697 524 726 503 Q 757 484 818 484 Q 878 485 909 501 Q 924 505 916 521 Q 903 539 885 549 Q 873 556 851 547 Q 817 534 777 536 Q 752 537 744 557 Q 732 576 741 633 Q 742 667 776 703 Q 792 718 777 731 Q 755 750 729 761 Q 719 767 702 757 Q 654 738 593 723 C 564 716 583 681 612 689 Z" fill="black" /></g></svg>