<?xml version='1.0' encoding='utf-8'?>
<svg xmlns="http://www.w3.org/2000/svg" version="1.1" viewBox="0 0 1024 1024"><g transform="scale(1, -1) translate(0, -900)"><path d="M 454 84 Q 455 91 455 96 Q 430 531 456 578 Q 466 596 456 606 Q 435 624 400 637 Q 382 646 337 620 Q 325 616 313 610 L 289 604 Q 274 603 259 599 C 229 594 243 562 272 569 Q 297 575 360 593 Q 378 599 383 590 Q 393 563 395 395 L 396 369 Q 397 113 381 87 Q 377 81 357 86 Q 326 93 294 103 Q 275 109 277 99 Q 338 51 373 14 Q 386 -4 401 -8 Q 410 -12 418 -3 Q 445 33 453 69 L 454 84 Z" fill="black" /></g></svg>