<?xml version='1.0' encoding='utf-8'?>
<svg xmlns="http://www.w3.org/2000/svg" version="1.1" viewBox="0 0 1024 1024"><g transform="scale(1, -1) translate(0, -900)"><path d="M 773 156 Q 785 131 808 85 Q 817 66 827 68 Q 843 71 852 97 Q 883 161 886 245 Q 892 299 897 360 Q 901 409 925 439 Q 941 458 930 473 Q 908 495 860 515 Q 841 525 808 514 Q 759 496 705 483 L 654 473 Q 596 466 514 458 C 484 455 499 418 529 420 Q 539 419 551 421 Q 594 431 655 440 L 704 448 Q 813 469 827 455 Q 854 410 818 201 Q 817 182 808 180 Q 805 179 797 181 C 770 169 767 168 773 156 Z" fill="black" /></g></svg>