<?xml version='1.0' encoding='utf-8'?>
<svg xmlns="http://www.w3.org/2000/svg" version="1.1" viewBox="0 0 1024 1024"><g transform="scale(1, -1) translate(0, -900)"><path d="M 963 413 Q 976 417 968 433 Q 953 451 936 460 Q 924 466 902 457 Q 865 438 817 438 Q 787 438 777 460 Q 764 484 775 552 Q 779 595 819 637 Q 835 652 820 666 Q 798 685 772 696 Q 762 702 745 692 Q 679 665 615 652 C 586 646 602 609 631 618 Q 731 649 735 648 Q 742 645 742 631 Q 724 478 732 449 Q 739 422 763 407 Q 797 388 864 391 Q 930 394 963 413 Z" fill="black" /></g></svg>