<?xml version='1.0' encoding='utf-8'?>
<svg xmlns="http://www.w3.org/2000/svg" version="1.1" viewBox="0 0 1024 1024"><g transform="scale(1, -1) translate(0, -900)"><path d="M 266 647 Q 263 648 261 650 L 246 659 Q 239 663 229 666 Q 210 675 199 669 Q 189 662 196 650 Q 211 628 217 579 Q 217 434 213 397 Q 212 396 212 392 L 206 347 Q 185 209 100 57 Q 96 50 95 45 Q 94 35 103 38 Q 136 44 201 175 Q 208 193 217 213 Q 241 277 254 354 Q 254 358 255 362 L 260 402 Q 261 423 271 582 Q 272 600 275 616 C 278 640 278 640 266 647 Z" fill="black" /></g></svg>