<?xml version='1.0' encoding='utf-8'?>
<svg xmlns="http://www.w3.org/2000/svg" version="1.1" viewBox="0 0 1024 1024"><g transform="scale(1, -1) translate(0, -900)"><path d="M 776 139 Q 689 127 587 101 Q 556 92 577 116 Q 629 183 754 321 Q 785 358 812 378 Q 825 388 819 399 Q 809 418 777 440 Q 761 450 751 448 Q 741 445 742 429 Q 742 389 680 298 L 663 274 Q 528 108 496 92 Q 481 83 483 68 Q 484 55 510 33 Q 520 20 536 32 Q 632 87 780 120 Q 781 121 787 121 C 816 127 806 143 776 139 Z" fill="black" /></g></svg>