<?xml version='1.0' encoding='utf-8'?>
<svg xmlns="http://www.w3.org/2000/svg" version="1.1" viewBox="0 0 1024 1024"><g transform="scale(1, -1) translate(0, -900)"><path d="M 254 623 Q 251 624 249 626 L 234 634 Q 227 638 217 642 Q 198 651 187 645 Q 177 638 184 626 Q 199 604 205 556 Q 205 430 202 389 L 197 345 Q 173 194 88 41 Q 84 34 83 29 Q 82 19 91 22 Q 121 28 184 148 Q 194 170 204 194 Q 235 281 246 359 L 250 398 Q 250 521 264 594 Q 264 597 265 597 C 269 615 269 615 254 623 Z" fill="black" /></g></svg>