<?xml version='1.0' encoding='utf-8'?>
<svg xmlns="http://www.w3.org/2000/svg" version="1.1" viewBox="0 0 1024 1024"><g transform="scale(1, -1) translate(0, -900)"><path d="M 377 399 Q 378 164 362 138 Q 358 132 338 137 Q 310 141 282 148 Q 263 152 265 144 Q 323 102 357 70 Q 369 54 383 49 Q 392 45 399 55 Q 433 100 432 149 Q 411 564 433 607 Q 443 625 433 634 Q 414 650 381 663 Q 363 669 310 640 Q 274 628 254 623 C 225 615 236 588 265 597 Q 265 598 269 599 Q 306 609 344 621 Q 360 627 365 619 Q 372 601 377 425 L 377 399 Z" fill="black" /></g></svg>