<?xml version='1.0' encoding='utf-8'?>
<svg xmlns="http://www.w3.org/2000/svg" version="1.1" viewBox="0 0 1024 1024"><g transform="scale(1, -1) translate(0, -900)"><path d="M 923 110 Q 910 138 892 225 Q 892 241 885 246 Q 879 249 875 232 Q 848 139 830 111 Q 818 96 784 87 Q 706 69 640 95 Q 615 108 607 124 Q 589 160 594 255 L 596 280 Q 600 337 613 401 Q 617 419 606 429 Q 593 442 570 451 Q 557 455 549 450 Q 542 446 548 429 Q 560 390 557 353 Q 544 160 560 105 Q 564 83 585 63 Q 661 -3 834 31 Q 837 32 840 33 Q 879 43 916 70 Q 935 85 923 110 Z" fill="black" /></g></svg>