<?xml version='1.0' encoding='utf-8'?>
<svg xmlns="http://www.w3.org/2000/svg" version="1.1" viewBox="0 0 1024 1024"><g transform="scale(1, -1) translate(0, -900)"><path d="M 274 605 Q 275 606 280 608 Q 317 618 352 631 Q 370 638 376 629 Q 388 598 392 417 L 392 391 Q 396 100 380 74 Q 376 67 356 72 Q 328 78 299 83 Q 280 89 281 79 Q 339 36 374 1 Q 387 -17 402 -21 Q 411 -25 419 -15 Q 455 33 454 84 Q 438 330 437 566 Q 437 600 447 618 Q 459 637 447 646 Q 426 662 391 676 Q 373 685 321 653 Q 296 646 270 636 C 242 626 246 596 274 605 Z" fill="black" /></g></svg>