<?xml version='1.0' encoding='utf-8'?>
<svg xmlns="http://www.w3.org/2000/svg" version="1.1" viewBox="0 0 1024 1024"><g transform="scale(1, -1) translate(0, -900)"><path d="M 384 393 Q 385 134 368 108 Q 364 101 343 107 Q 315 111 287 116 Q 268 120 269 111 Q 329 68 363 36 Q 376 18 391 14 Q 400 10 408 20 Q 444 68 443 120 Q 433 280 432 539 Q 431 594 444 618 Q 454 637 443 646 Q 424 664 388 677 Q 370 686 325 660 Q 310 654 258 640 C 229 632 239 602 268 610 Q 272 611 280 613 Q 314 623 348 633 Q 366 639 371 630 Q 380 606 384 418 L 384 393 Z" fill="black" /></g></svg>