<?xml version='1.0' encoding='utf-8'?>
<svg xmlns="http://www.w3.org/2000/svg" version="1.1" viewBox="0 0 1024 1024"><g transform="scale(1, -1) translate(0, -900)"><path d="M 344 348 Q 341 74 328 49 Q 324 45 308 48 Q 287 55 266 61 Q 248 68 248 60 Q 291 9 314 -25 Q 326 -44 340 -49 Q 349 -53 357 -44 Q 399 4 399 51 Q 392 178 391 361 L 391 387 Q 391 561 403 581 Q 413 600 402 609 Q 383 627 347 640 Q 329 649 279 618 Q 251 609 227 602 C 196 593 170 563 217 570 Q 230 570 248 575 L 308 595 Q 323 601 331 594 Q 343 584 342 546 Q 343 456 344 377 L 344 348 Z" fill="black" /></g></svg>