<?xml version='1.0' encoding='utf-8'?>
<svg xmlns="http://www.w3.org/2000/svg" version="1.1" viewBox="0 0 1024 1024"><g transform="scale(1, -1) translate(0, -900)"><path d="M 346 82 Q 322 85 299 88 Q 280 92 281 83 Q 336 43 367 12 Q 380 -6 395 -10 Q 405 -14 412 -4 Q 448 44 447 96 Q 437 253 436 507 Q 435 562 447 585 Q 457 604 446 613 Q 427 631 391 644 Q 375 651 317 620 Q 301 614 277 607 C 246 597 217 560 271 574 Q 289 577 352 599 Q 370 606 375 598 Q 382 580 384 552 Q 387 473 387 400 L 388 375 Q 389 110 372 84 Q 368 77 346 82 Z" fill="black" /></g></svg>