<?xml version='1.0' encoding='utf-8'?>
<svg xmlns="http://www.w3.org/2000/svg" version="1.1" viewBox="0 0 1024 1024"><g transform="scale(1, -1) translate(0, -900)"><path d="M 256 597 Q 301 610 345 623 Q 363 630 369 621 Q 378 597 382 421 L 382 394 Q 383 124 367 97 Q 364 94 304 99 Q 267 105 269 95 Q 327 53 362 21 Q 377 3 392 -1 Q 402 -5 410 5 Q 449 62 445 111 Q 435 268 433 525 Q 432 583 445 608 Q 457 627 444 637 Q 423 656 386 670 Q 365 679 317 649 Q 274 634 251 628 C 222 620 227 589 256 597 Z" fill="black" /></g></svg>