<?xml version='1.0' encoding='utf-8'?>
<svg xmlns="http://www.w3.org/2000/svg" version="1.1" viewBox="0 0 1024 1024"><g transform="scale(1, -1) translate(0, -900)"><path d="M 605 424 Q 641 430 740 454 Q 761 458 766 448 Q 776 415 784 229 Q 787 64 775 47 Q 771 41 751 45 Q 723 52 695 59 Q 676 65 676 55 Q 734 6 767 -31 Q 780 -50 796 -54 Q 806 -58 814 -48 Q 853 3 852 55 Q 816 388 843 437 Q 855 456 843 467 Q 821 486 784 500 Q 765 507 750 500 Q 713 481 693 472 L 651 462 Q 626 458 595 454 C 565 450 576 418 605 424 Z" fill="black" /></g></svg>