<?xml version='1.0' encoding='utf-8'?>
<svg xmlns="http://www.w3.org/2000/svg" version="1.1" viewBox="0 0 1024 1024"><g transform="scale(1, -1) translate(0, -900)"><path d="M 705 565 Q 693 610 675 620 L 659 630 Q 652 634 641 637 Q 623 641 615 636 Q 605 629 617 619 Q 648 600 660 563 Q 660 560 661 557 L 667 523 Q 671 460 659 429 Q 649 405 620 408 Q 589 411 563 415 Q 553 416 558 407 Q 562 401 581 392 Q 621 368 635 347 Q 645 332 659 336 Q 669 337 690 362 Q 729 410 715 518 Q 714 524 713 528 L 705 565 Z" fill="black" /></g></svg>