<?xml version='1.0' encoding='utf-8'?>
<svg xmlns="http://www.w3.org/2000/svg" version="1.1" viewBox="0 0 1024 1024"><g transform="scale(1, -1) translate(0, -900)"><path d="M 394 394 Q 395 121 378 94 Q 374 90 357 93 Q 329 102 302 110 Q 283 117 284 108 Q 338 57 368 20 Q 380 2 394 -3 Q 403 -7 411 2 Q 453 50 451 99 Q 430 558 455 601 Q 467 620 456 630 Q 435 648 401 662 Q 382 671 335 644 Q 307 632 266 624 C 237 617 240 586 269 593 Q 287 596 360 617 Q 378 623 383 614 Q 393 587 394 419 L 394 394 Z" fill="black" /></g></svg>