<?xml version='1.0' encoding='utf-8'?>
<svg xmlns="http://www.w3.org/2000/svg" version="1.1" viewBox="0 0 1024 1024"><g transform="scale(1, -1) translate(0, -900)"><path d="M 423 201 Q 411 576 432 614 Q 444 632 432 642 Q 413 660 377 674 Q 361 681 345 674 Q 309 653 256 642 C 227 635 231 607 261 612 Q 276 612 335 631 Q 354 635 359 626 Q 366 607 368 579 Q 369 498 370 425 L 370 402 Q 371 132 355 107 Q 351 103 333 106 Q 308 113 282 122 Q 263 129 264 120 Q 315 69 343 33 Q 356 14 370 10 Q 379 6 387 15 Q 424 60 426 126 Q 425 147 424 167 L 423 201 Z" fill="black" /></g></svg>