<?xml version='1.0' encoding='utf-8'?>
<svg xmlns="http://www.w3.org/2000/svg" version="1.1" viewBox="0 0 1024 1024"><g transform="scale(1, -1) translate(0, -900)"><path d="M 739 86 Q 766 52 785 20 Q 794 2 805 3 Q 820 4 835 36 Q 851 73 848 117 Q 841 207 834 374 Q 833 402 849 422 Q 858 434 849 443 Q 833 462 784 484 Q 768 491 753 484 Q 737 478 615 443 L 590 439 Q 584 439 580 437 C 550 432 560 407 590 410 Q 611 410 740 438 Q 759 442 769 434 Q 799 404 780 119 Q 776 103 765 107 C 741 89 738 87 739 86 Z" fill="black" /></g></svg>