<?xml version='1.0' encoding='utf-8'?>
<svg xmlns="http://www.w3.org/2000/svg" version="1.1" viewBox="0 0 1024 1024"><g transform="scale(1, -1) translate(0, -900)"><path d="M 266 624 Q 265 625 262 627 L 251 634 Q 215 656 197 649 Q 187 642 193 630 Q 214 609 214 570 Q 214 408 212 385 L 207 338 Q 186 200 100 36 Q 96 30 95 24 Q 94 14 102 17 Q 136 27 199 155 Q 206 173 215 193 Q 230 236 253 352 L 258 393 Q 265 448 265 502 Q 266 535 267 564 Q 267 580 269 593 C 271 620 271 620 266 624 Z" fill="black" /></g></svg>