<?xml version='1.0' encoding='utf-8'?>
<svg xmlns="http://www.w3.org/2000/svg" version="1.1" viewBox="0 0 1024 1024"><g transform="scale(1, -1) translate(0, -900)"><path d="M 685 290 Q 701 262 717 254 Q 726 247 740 266 Q 753 290 784 420 Q 791 447 811 468 Q 821 478 812 490 Q 799 505 762 526 Q 747 533 692 516 Q 689 516 614 494 Q 583 484 561 478 C 532 470 539 444 568 450 Q 572 450 580 452 Q 626 470 707 490 Q 723 493 731 489 Q 744 479 741 459 Q 713 324 701 312 C 688 286 682 294 685 290 Z" fill="black" /></g></svg>