<?xml version='1.0' encoding='utf-8'?>
<svg xmlns="http://www.w3.org/2000/svg" version="1.1" viewBox="0 0 1024 1024"><g transform="scale(1, -1) translate(0, -900)"><path d="M 693 117 Q 730 163 755 235 Q 764 268 783 283 Q 798 296 782 310 Q 763 326 733 340 Q 717 346 664 325 L 625 312 Q 523 291 521 289 Q 514 283 530 274 Q 555 261 591 273 Q 639 283 686 295 Q 702 301 704 282 Q 704 219 655 147 L 631 118 Q 625 114 620 107 Q 571 67 445 33 Q 430 30 439 22 Q 446 16 473 18 Q 596 30 662 83 L 693 117 Z" fill="black" /></g></svg>