<?xml version='1.0' encoding='utf-8'?>
<svg xmlns="http://www.w3.org/2000/svg" version="1.1" viewBox="0 0 1024 1024"><g transform="scale(1, -1) translate(0, -900)"><path d="M 769 420 Q 782 401 793 395 Q 800 388 815 405 Q 831 430 868 576 Q 877 601 898 619 Q 908 628 901 640 Q 889 655 857 679 Q 853 682 729 670 Q 716 670 720 661 Q 723 652 735 646 Q 745 642 757 642 Q 814 651 820 643 Q 833 627 829 610 Q 823 588 818 567 L 811 538 Q 792 471 785 456 Q 781 449 773 446 C 758 435 758 435 769 420 Z" fill="black" /></g></svg>