<?xml version='1.0' encoding='utf-8'?>
<svg xmlns="http://www.w3.org/2000/svg" version="1.1" viewBox="0 0 1024 1024"><g transform="scale(1, -1) translate(0, -900)"><path d="M 353 382 Q 350 105 335 82 Q 331 79 270 90 Q 251 97 253 88 Q 301 43 326 12 Q 338 -4 352 -9 Q 359 -13 368 -4 Q 405 45 404 89 Q 398 213 398 394 L 398 420 Q 398 591 409 611 Q 419 629 409 638 Q 390 654 357 667 Q 339 676 299 650 Q 275 644 251 635 C 223 625 205 599 245 606 Q 260 606 319 625 Q 332 629 341 623 Q 351 613 351 576 Q 352 489 353 411 L 353 382 Z" fill="black" /></g></svg>