<?xml version='1.0' encoding='utf-8'?>
<svg xmlns="http://www.w3.org/2000/svg" version="1.1" viewBox="0 0 1024 1024"><g transform="scale(1, -1) translate(0, -900)"><path d="M 353 390 Q 357 99 342 76 Q 338 73 266 87 Q 247 93 249 84 Q 304 41 335 7 Q 348 -9 362 -14 Q 369 -17 378 -8 Q 412 37 411 85 Q 384 536 402 594 Q 403 600 406 604 Q 416 622 406 631 Q 387 647 353 659 Q 338 666 290 640 Q 262 633 232 623 C 203 614 220 585 248 595 Q 251 598 315 617 Q 333 623 338 614 Q 348 586 353 414 L 353 390 Z" fill="black" /></g></svg>