<?xml version='1.0' encoding='utf-8'?>
<svg xmlns="http://www.w3.org/2000/svg" version="1.1" viewBox="0 0 1024 1024"><g transform="scale(1, -1) translate(0, -900)"><path d="M 623 659 Q 622 689 624 699 Q 627 720 613 731 Q 592 747 567 754 Q 554 758 546 753 Q 539 747 546 733 Q 565 694 576 652 L 583 616 Q 584 594 588 556 L 591 527 Q 592 499 596 462 L 598 434 Q 599 406 603 369 C 606 339 641 345 638 375 Q 635 409 633 439 L 631 469 Q 628 503 626 532 L 624 562 Q 624 592 623 622 L 623 659 Z" fill="black" /></g></svg>