<?xml version='1.0' encoding='utf-8'?>
<svg xmlns="http://www.w3.org/2000/svg" version="1.1" viewBox="0 0 1024 1024"><g transform="scale(1, -1) translate(0, -900)"><path d="M 741 247 Q 741 246 742 243 Q 748 228 760 229 Q 773 230 780 244 Q 790 254 809 310 Q 825 359 861 386 Q 879 401 864 416 Q 848 432 801 458 Q 788 467 724 453 Q 703 453 499 416 C 469 411 486 379 515 388 Q 545 398 594 405 L 635 411 Q 746 432 767 420 Q 774 416 770 390 Q 752 297 742 273 C 736 256 736 256 741 247 Z" fill="black" /></g></svg>