<?xml version='1.0' encoding='utf-8'?>
<svg xmlns="http://www.w3.org/2000/svg" version="1.1" viewBox="0 0 1024 1024"><g transform="scale(1, -1) translate(0, -900)"><path d="M 653 57 Q 653 96 654 130 L 656 174 Q 656 208 658 240 L 659 271 Q 660 299 661 327 C 662 357 662 359 663 362 Q 663 363 664 363 Q 670 381 661 390 Q 648 403 635 411 C 610 428 579 431 594 405 Q 600 395 605 384 Q 609 371 611 348 L 612 319 Q 612 300 612 262 L 612 234 Q 612 204 612 164 L 612 123 Q 612 92 612 53 C 612 23 653 27 653 57 Z" fill="black" /></g></svg>