<?xml version='1.0' encoding='utf-8'?>
<svg xmlns="http://www.w3.org/2000/svg" version="1.1" viewBox="0 0 1024 1024"><g transform="scale(1, -1) translate(0, -900)"><path d="M 500 706 L 500 707 Q 493 714 471 725 Q 456 732 450 727 Q 446 723 451 711 Q 487 642 455 375 Q 451 360 441 344 Q 434 332 441 318 Q 448 303 455 297 Q 462 293 474 301 Q 523 340 686 353 Q 702 353 702 361 Q 701 371 681 383 Q 672 389 602 375 L 570 369 Q 542 366 508 357 Q 502 356 499 357 Q 495 358 495 368 Q 496 417 497 471 L 498 486 Q 498 519 499 552 L 500 573 Q 500 660 504 684 C 506 702 506 702 500 706 Z" fill="black" /></g></svg>