<?xml version='1.0' encoding='utf-8'?>
<svg xmlns="http://www.w3.org/2000/svg" version="1.1" viewBox="0 0 1024 1024"><g transform="scale(1, -1) translate(0, -900)"><path d="M 225 597 Q 226 598 232 599 Q 263 606 294 613 Q 313 617 318 606 Q 327 582 331 422 L 331 401 Q 332 139 320 117 Q 316 113 300 116 Q 278 123 253 130 Q 237 137 236 128 Q 282 82 309 46 Q 321 30 334 24 Q 343 21 350 29 Q 389 80 388 121 Q 378 272 376 521 Q 375 573 388 596 Q 398 614 388 623 Q 369 641 336 654 Q 317 663 270 637 Q 234 628 224 626 C 195 619 196 590 225 597 Z" fill="black" /></g></svg>