<?xml version='1.0' encoding='utf-8'?>
<svg xmlns="http://www.w3.org/2000/svg" version="1.1" viewBox="0 0 1024 1024"><g transform="scale(1, -1) translate(0, -900)"><path d="M 597 417 Q 597 427 598 438 L 598 468 Q 597 520 597 568 L 596 598 Q 597 647 606 689 C 609 707 609 707 594 719 Q 572 738 552 747 Q 533 754 524 748 Q 514 742 523 726 Q 584 603 535 128 Q 534 77 496 25 Q 484 9 493 -15 Q 505 -42 519 -53 Q 532 -60 544 -43 Q 559 -10 707 133 Q 725 148 729 158 Q 732 168 722 168 Q 701 165 590 86 Q 586 80 582 87 Q 592 247 596 384 L 597 417 Z" fill="black" /></g></svg>