<?xml version='1.0' encoding='utf-8'?>
<svg xmlns="http://www.w3.org/2000/svg" version="1.1" viewBox="0 0 1024 1024"><g transform="scale(1, -1) translate(0, -900)"><path d="M 526 691 Q 505 707 487 716 Q 466 723 456 717 Q 444 710 455 693 Q 515 569 477 177 Q 473 122 429 68 Q 416 50 424 25 Q 434 -5 449 -17 Q 464 -27 477 -8 Q 493 20 640 134 Q 662 147 668 157 Q 672 167 662 169 Q 650 169 547 124 Q 529 115 529 133 Q 538 281 539 405 L 539 446 Q 539 492 538 534 L 537 559 Q 536 611 545 653 Q 545 657 546 659 C 549 675 549 675 526 691 Z" fill="black" /></g></svg>