<?xml version='1.0' encoding='utf-8'?>
<svg xmlns="http://www.w3.org/2000/svg" version="1.1" viewBox="0 0 1024 1024"><g transform="scale(1, -1) translate(0, -900)"><path d="M 258 93 Q 248 56 272 -6 Q 279 -24 287 -27 Q 293 -34 300 -25 Q 327 -9 327 54 Q 326 87 328 288 L 329 337 Q 329 386 331 442 L 332 491 Q 332 540 334 590 L 336 642 Q 340 699 353 742 Q 362 757 359 770 Q 352 780 298 813 Q 276 829 255 815 Q 251 811 257 795 Q 290 746 290 696 Q 290 662 290 624 L 291 577 Q 291 499 290 475 L 288 430 Q 287 378 285 322 L 284 275 Q 284 182 258 93 Z" fill="black" /></g></svg>