<?xml version='1.0' encoding='utf-8'?>
<svg xmlns="http://www.w3.org/2000/svg" version="1.1" viewBox="0 0 1024 1024"><g transform="scale(1, -1) translate(0, -900)"><path d="M 555 471 Q 568 455 581 449 Q 591 442 607 463 Q 623 491 654 638 Q 661 669 686 696 Q 699 709 687 724 Q 671 740 626 767 Q 602 777 532 753 Q 528 753 422 726 Q 374 713 336 705 C 307 699 328 663 357 672 Q 429 696 554 720 Q 579 726 589 717 Q 602 701 600 684 Q 578 546 566 525 Q 562 512 546 510 L 546 509 C 528 499 534 493 555 471 Z" fill="black" /></g></svg>