<?xml version='1.0' encoding='utf-8'?>
<svg xmlns="http://www.w3.org/2000/svg" version="1.1" viewBox="0 0 1024 1024"><g transform="scale(1, -1) translate(0, -900)"><path d="M 915 92 Q 893 150 881 252 Q 878 268 870 274 Q 860 280 857 257 Q 845 131 828 108 Q 773 47 536 49 Q 407 56 353 79 Q 305 106 296 138 Q 281 175 280 271 L 281 301 Q 287 389 304 433 Q 308 446 309 456 C 314 474 312 475 287 491 Q 239 525 224 521 Q 208 514 216 495 Q 238 455 234 394 Q 230 157 255 105 Q 288 20 447 0 Q 546 -13 701 -3 Q 840 7 895 38 Q 929 56 915 92 Z" fill="black" /></g></svg>