<?xml version='1.0' encoding='utf-8'?>
<svg xmlns="http://www.w3.org/2000/svg" version="1.1" viewBox="0 0 1024 1024"><g transform="scale(1, -1) translate(0, -900)"><path d="M 445 506 Q 466 563 491 581 Q 504 597 492 611 Q 479 623 434 643 Q 416 649 363 626 L 323 612 Q 310 612 272 599 L 226 589 Q 199 585 172 581 Q 159 580 160 570 Q 161 563 178 559 Q 197 552 228 560 L 272 571 Q 296 578 324 583 L 363 592 Q 373 596 384 598 Q 403 604 412 595 Q 421 586 402 511 C 395 482 434 478 445 506 Z" fill="black" /></g></svg>