<?xml version='1.0' encoding='utf-8'?>
<svg xmlns="http://www.w3.org/2000/svg" version="1.1" viewBox="0 0 1024 1024"><g transform="scale(1, -1) translate(0, -900)"><path d="M 268 193 Q 234 94 161 25 Q 89 -29 89 -31 Q 85 -35 99 -36 Q 109 -37 151 -16 Q 181 -3 224 34 Q 287 88 316 203 L 324 244 Q 328 271 333 297 L 337 340 Q 338 368 340 394 L 342 427 Q 343 446 344 462 Q 344 481 347 500 L 353 529 Q 354 539 359 549 Q 363 559 355 565 Q 345 574 331 581 C 306 597 259 591 277 567 Q 298 546 298 515 L 298 490 Q 298 453 297 417 L 296 387 Q 295 356 291 327 L 286 287 Q 282 251 278 235 L 268 193 Z" fill="black" /></g></svg>