<?xml version='1.0' encoding='utf-8'?>
<svg xmlns="http://www.w3.org/2000/svg" version="1.1" viewBox="0 0 1024 1024"><g transform="scale(1, -1) translate(0, -900)"><path d="M 941 131 Q 926 162 909 256 Q 908 272 901 278 Q 895 282 890 263 Q 862 163 843 132 Q 827 110 776 96 Q 662 65 562 102 Q 525 120 513 143 Q 491 188 496 280 L 498 313 Q 502 371 512 436 Q 512 439 512 440 C 514 458 514 458 498 467 Q 488 477 471 482 Q 458 486 451 481 Q 444 478 449 461 Q 462 424 460 389 Q 448 140 486 87 Q 511 54 581 34 Q 788 -14 934 89 Q 955 105 941 131 Z" fill="black" /></g></svg>