<?xml version='1.0' encoding='utf-8'?>
<svg xmlns="http://www.w3.org/2000/svg" version="1.1" viewBox="0 0 1024 1024"><g transform="scale(1, -1) translate(0, -900)"><path d="M 332 379 Q 362 446 390 540 Q 400 570 417 589 Q 433 605 420 617 Q 407 627 375 636 Q 351 642 327 626 Q 300 613 264 600 Q 227 588 166 578 Q 153 577 148 569 Q 144 562 163 555 Q 200 543 247 560 Q 301 582 310 583 Q 335 584 333 556 Q 317 471 292 408 L 271 364 Q 205 252 70 204 Q 58 197 70 192 Q 76 185 117 189 Q 222 201 306 328 L 332 379 Z" fill="black" /></g></svg>