<?xml version='1.0' encoding='utf-8'?>
<svg xmlns="http://www.w3.org/2000/svg" version="1.1" viewBox="0 0 1024 1024"><g transform="scale(1, -1) translate(0, -900)"><path d="M 182 458 Q 172 470 155 479 Q 145 486 137 481 Q 130 477 136 461 Q 143 439 134 410 Q 115 352 98 330 Q 88 317 96 303 Q 103 282 115 276 Q 122 272 143 285 Q 162 303 209 318 Q 210 319 214 319 L 257 330 Q 281 337 321 344 L 360 352 Q 414 364 426 362 Q 438 362 443 353 Q 450 341 428 240 Q 427 233 418 232 Q 394 239 366 248 Q 365 249 360 249 C 338 255 340 253 360 231 Q 400 189 407 167 Q 413 155 425 157 Q 437 156 451 167 Q 475 200 488 284 Q 498 321 513 338 Q 526 356 515 366 Q 493 385 462 401 Q 449 408 433 403 Q 408 394 361 383 L 321 374 Q 288 368 262 361 L 219 349 Q 204 346 194 342 Q 175 335 163 335 Q 159 335 158 346 Q 174 410 186 427 Q 186 428 187 429 C 195 446 195 446 182 458 Z" fill="black" /></g></svg>