<?xml version='1.0' encoding='utf-8'?>
<svg xmlns="http://www.w3.org/2000/svg" version="1.1" viewBox="0 0 1024 1024"><g transform="scale(1, -1) translate(0, -900)"><path d="M 485 488 Q 454 487 425 480 L 396 475 Q 372 474 350 467 L 316 460 Q 288 456 262 448 L 233 441 Q 205 434 179 426 Q 154 414 155 447 Q 149 489 143 532 Q 142 551 130 561 Q 114 571 92 577 Q 82 580 75 576 Q 68 570 77 556 Q 108 516 113 470 Q 119 427 107 402 Q 94 386 101 376 Q 111 366 126 358 Q 138 354 145 360 Q 164 396 374 443 Q 456 461 481 456 C 511 454 515 490 485 488 Z" fill="black" /></g></svg>