<?xml version='1.0' encoding='utf-8'?>
<svg xmlns="http://www.w3.org/2000/svg" version="1.1" viewBox="0 0 1024 1024"><g transform="scale(1, -1) translate(0, -900)"><path d="M 567 410 Q 557 417 543 422 Q 531 426 524 421 Q 518 418 523 402 Q 535 366 532 333 Q 520 128 538 72 Q 544 41 570 17 Q 654 -56 846 -34 Q 868 -30 891 -24 Q 939 -9 986 24 Q 1007 40 993 68 Q 980 90 961 164 Q 960 180 953 186 Q 947 190 942 171 Q 914 92 895 68 Q 879 47 832 35 Q 723 10 628 47 Q 591 66 581 89 Q 560 131 565 236 L 567 257 Q 571 314 583 377 Q 583 378 583 380 C 586 401 586 401 567 410 Z" fill="black" /></g></svg>