<?xml version='1.0' encoding='utf-8'?>
<svg xmlns="http://www.w3.org/2000/svg" version="1.1" viewBox="0 0 1024 1024"><g transform="scale(1, -1) translate(0, -900)"><path d="M 321 344 Q 315 202 301 142 Q 283 99 310 32 Q 316 16 324 13 Q 330 7 336 14 Q 343 18 352 38 Q 361 60 360 89 Q 359 113 360 231 L 360 249 Q 360 295 360 352 L 361 383 Q 361 420 361 460 L 362 499 Q 361 541 363 585 Q 363 589 363 592 L 363 626 Q 366 692 380 739 Q 387 752 385 766 Q 379 775 328 805 Q 307 821 288 806 Q 284 802 289 788 Q 320 742 321 695 Q 322 655 323 612 L 324 583 Q 324 511 323 489 L 323 454 Q 322 415 321 374 L 321 344 Z" fill="black" /></g></svg>