<?xml version='1.0' encoding='utf-8'?>
<svg xmlns="http://www.w3.org/2000/svg" version="1.1" viewBox="0 0 1024 1024"><g transform="scale(1, -1) translate(0, -900)"><path d="M 425 480 Q 429 514 436 547 L 441 577 L 449 621 L 454 653 Q 455 678 461 692 L 471 730 Q 475 740 478 748 Q 482 755 469 766 Q 447 782 430 786 Q 420 790 414 785 Q 408 781 413 769 Q 423 748 424 714 L 422 683 Q 421 664 418 644 L 415 615 Q 412 593 408 567 L 405 541 Q 399 510 396 475 C 393 445 421 450 425 480 Z" fill="black" /></g></svg>