<?xml version='1.0' encoding='utf-8'?>
<svg xmlns="http://www.w3.org/2000/svg" version="1.1" viewBox="0 0 1024 1024"><g transform="scale(1, -1) translate(0, -900)"><path d="M 228 560 Q 229 512 229 467 L 228 435 Q 228 431 228 425 Q 224 386 219 349 L 214 319 Q 183 183 119 59 Q 115 53 114 48 Q 113 38 122 41 Q 150 50 213 181 Q 237 238 257 330 L 262 361 Q 263 373 266 384 Q 269 415 271 444 L 272 476 Q 273 519 273 563 Q 272 567 272 571 L 272 599 Q 272 647 275 665 Q 281 678 273 688 Q 257 701 230 710 Q 214 717 202 711 Q 193 704 200 693 Q 218 671 225 618 Q 224 605 226 589 L 228 560 Z" fill="black" /></g></svg>