<?xml version='1.0' encoding='utf-8'?>
<svg xmlns="http://www.w3.org/2000/svg" version="1.1" viewBox="0 0 1024 1024"><g transform="scale(1, -1) translate(0, -900)"><path d="M 355 643 Q 331 662 311 672 Q 292 679 282 673 Q 272 666 281 649 Q 345 516 299 132 Q 289 92 254 48 Q 241 32 249 8 Q 259 -20 273 -34 Q 286 -43 300 -24 Q 321 7 497 128 Q 518 140 524 149 Q 528 159 518 161 Q 503 161 370 100 Q 351 93 351 110 Q 360 254 361 375 L 362 402 Q 362 454 361 502 L 360 529 Q 360 571 366 606 C 370 632 370 632 355 643 Z" fill="black" /></g></svg>