<?xml version='1.0' encoding='utf-8'?>
<svg xmlns="http://www.w3.org/2000/svg" version="1.1" viewBox="0 0 1024 1024"><g transform="scale(1, -1) translate(0, -900)"><path d="M 345 362 Q 397 381 411 379 Q 412 380 415 381 C 445 386 451 427 422 420 Q 382 410 346 398 L 300 383 Q 255 370 219 351 Q 207 347 210 362 Q 216 420 223 480 Q 227 502 217 515 Q 204 531 181 543 Q 171 549 162 547 Q 152 543 159 525 Q 184 467 174 408 Q 167 353 144 328 Q 129 312 137 299 Q 149 286 165 277 Q 178 271 186 279 Q 207 306 297 342 L 345 362 Z" fill="black" /></g></svg>