<?xml version='1.0' encoding='utf-8'?>
<svg xmlns="http://www.w3.org/2000/svg" version="1.1" viewBox="0 0 1024 1024"><g transform="scale(1, -1) translate(0, -900)"><path d="M 507 394 Q 602 414 681 421 Q 706 421 713 410 Q 722 396 715 338 L 688 182 Q 665 121 643 102 Q 629 89 600 98 L 543 118 Q 536 120 532 121 Q 519 122 532 100 Q 574 43 596 -1 Q 601 -16 612 -20 Q 639 -31 680 12 Q 745 88 778 282 Q 788 355 817 396 Q 840 419 829 435 Q 809 459 765 480 Q 735 496 700 482 Q 619 451 513 429 L 451 417 Q 442 417 408 413 Q 282 394 211 396 Q 185 398 184 384 Q 183 372 211 353 Q 227 341 240 337 Q 258 333 300 345 Q 394 370 441 380 L 507 394 Z" fill="black" /></g></svg>