<?xml version='1.0' encoding='utf-8'?>
<svg xmlns="http://www.w3.org/2000/svg" version="1.1" viewBox="0 0 1024 1024"><g transform="scale(1, -1) translate(0, -900)"><path d="M 277 454 Q 262 453 259 444 Q 256 437 265 432 Q 299 422 335 427 Q 453 458 484 462 Q 508 463 509 456 Q 513 444 494 427 Q 296 229 279 138 Q 278 134 277 128 Q 281 80 318 50 Q 411 -28 625 -23 Q 743 -20 881 38 Q 915 54 905 79 Q 880 151 867 267 Q 861 282 854 281 Q 848 281 843 264 Q 837 222 832 177 Q 823 113 777 85 Q 719 52 584 48 Q 451 42 398 67 Q 352 89 337 135 Q 328 226 503 372 Q 557 417 606 433 Q 634 442 626 456 Q 620 474 571 508 Q 553 524 522 513 Q 392 464 277 454 Z" fill="black" /></g></svg>