<?xml version='1.0' encoding='utf-8'?>
<svg xmlns="http://www.w3.org/2000/svg" version="1.1" viewBox="0 0 1024 1024"><g transform="scale(1, -1) translate(0, -900)"><path d="M 937 25 Q 971 35 958 58 Q 930 115 915 199 Q 911 218 902 223 Q 893 227 891 210 Q 876 111 850 86 Q 843 71 795 63 Q 672 39 627 80 Q 596 114 588 171 Q 581 226 606 305 Q 630 381 667 407 Q 698 431 666 449 Q 644 464 623 478 Q 598 491 579 479 Q 557 472 474 446 L 406 426 Q 271 389 213 380 Q 194 377 192 362 Q 192 352 226 339 Q 259 326 302 349 Q 342 371 402 389 L 465 407 Q 550 435 571 422 Q 587 412 579 382 Q 540 249 540 205 Q 531 112 585 52 Q 612 24 659 7 Q 710 -6 803 -2 Q 891 5 937 25 Z" fill="black" /></g></svg>