<?xml version='1.0' encoding='utf-8'?>
<svg xmlns="http://www.w3.org/2000/svg" version="1.1" viewBox="0 0 1024 1024"><g transform="scale(1, -1) translate(0, -900)"><path d="M 441 380 Q 412 299 361 249 Q 311 191 270 153 Q 216 101 150 61 Q 130 46 110 32 Q 91 20 109 16 Q 124 16 149 24 Q 218 47 301 110 Q 406 190 450 275 Q 468 315 484 341 L 507 394 L 513 429 Q 514 465 544 519 Q 557 544 535 555 Q 475 604 441 590 Q 421 584 430 565 Q 465 496 451 423 Q 451 422 451 417 L 441 380 Z" fill="black" /></g></svg>