<?xml version='1.0' encoding='utf-8'?>
<svg xmlns="http://www.w3.org/2000/svg" version="1.1" viewBox="0 0 1024 1024"><g transform="scale(1, -1) translate(0, -900)"><path d="M 628 643 Q 704 647 796 648 Q 826 647 853 648 Q 874 648 879 657 Q 886 670 867 685 Q 806 731 734 709 Q 694 703 646 692 L 594 684 Q 543 677 488 668 Q 448 664 408 657 L 361 651 Q 255 639 141 624 Q 119 621 136 603 Q 151 588 170 583 Q 192 577 210 582 Q 285 603 367 616 L 410 622 Q 452 634 583 641 L 628 643 Z" fill="black" /></g></svg>