<?xml version='1.0' encoding='utf-8'?>
<svg xmlns="http://www.w3.org/2000/svg" version="1.1" viewBox="0 0 1024 1024"><g transform="scale(1, -1) translate(0, -900)"><path d="M 945 17 Q 979 27 966 50 Q 938 107 923 191 Q 919 210 910 215 Q 901 219 899 202 Q 886 106 859 79 Q 850 64 802 56 Q 676 35 632 76 Q 601 110 593 166 Q 587 221 613 298 Q 637 373 675 398 Q 706 422 673 440 Q 652 456 631 469 Q 606 484 587 471 Q 562 464 463 433 L 394 413 Q 274 382 221 372 Q 202 369 200 354 Q 200 344 234 331 Q 267 318 310 341 Q 344 359 390 374 L 454 394 Q 556 428 578 414 Q 594 405 587 375 Q 542 242 546 168 Q 550 92 589 48 Q 646 -15 809 -9 Q 897 -3 945 17 Z" fill="black" /></g></svg>