<?xml version='1.0' encoding='utf-8'?>
<svg xmlns="http://www.w3.org/2000/svg" version="1.1" viewBox="0 0 1024 1024"><g transform="scale(1, -1) translate(0, -900)"><path d="M 463 433 Q 469 452 479 471 Q 489 490 473 500 Q 454 516 439 522 Q 415 538 395 531 Q 379 527 386 510 Q 401 480 394 413 L 390 374 Q 384 331 359 256 L 345 226 Q 287 118 169 39 Q 157 30 144 21 Q 129 11 143 8 Q 158 8 196 21 Q 254 45 298 84 Q 349 124 374 170 Q 380 183 387 196 L 409 236 Q 416 254 454 394 L 463 433 Z" fill="black" /></g></svg>