<?xml version='1.0' encoding='utf-8'?>
<svg xmlns="http://www.w3.org/2000/svg" version="1.1" viewBox="0 0 1024 1024"><g transform="scale(1, -1) translate(0, -900)"><path d="M 458 126 Q 371 47 198 8 Q 182 5 194 -5 Q 201 -9 254 -7 Q 321 -3 399 31 Q 454 56 497 93 L 529 127 Q 571 176 608 250 Q 624 280 647 297 Q 668 313 656 328 Q 643 341 610 357 Q 586 367 556 355 Q 523 342 479 329 Q 434 316 359 308 Q 344 307 339 299 Q 335 292 355 283 Q 395 267 448 284 Q 521 309 536 309 Q 555 306 549 286 Q 527 210 485 156 L 458 126 Z" fill="black" /></g></svg>