<?xml version='1.0' encoding='utf-8'?>
<svg xmlns="http://www.w3.org/2000/svg" version="1.1" viewBox="0 0 1024 1024"><g transform="scale(1, -1) translate(0, -900)"><path d="M 577 311 Q 587 426 599 466 Q 608 487 579 509 Q 554 525 534 537 Q 516 549 499 539 Q 487 533 508 505 Q 530 471 531 425 Q 534 377 528 233 Q 522 152 528 116 Q 534 82 554 58 Q 573 36 612 24 Q 670 9 772 15 Q 848 18 906 44 Q 939 54 927 79 Q 906 134 893 229 Q 892 245 885 252 Q 878 259 873 243 Q 861 186 848 143 Q 842 113 816 96 Q 789 69 666 72 Q 597 78 578 115 Q 569 142 575 287 L 577 311 Z" fill="black" /></g></svg>