<?xml version='1.0' encoding='utf-8'?>
<svg xmlns="http://www.w3.org/2000/svg" version="1.1" viewBox="0 0 1024 1024"><g transform="scale(1, -1) translate(0, -900)"><path d="M 435 290 Q 392 158 292 81 Q 255 54 198 19 Q 174 3 205 6 Q 224 3 264 21 Q 315 37 358 69 Q 436 123 488 287 L 500 335 Q 510 381 519 441 L 526 489 Q 526 516 538 546 Q 545 553 539 564 Q 533 571 503 583 Q 469 599 454 594 Q 441 588 452 571 Q 462 523 464 475 L 461 431 Q 457 379 447 333 Q 446 332 445 328 L 435 290 Z" fill="black" /></g></svg>