<?xml version='1.0' encoding='utf-8'?>
<svg xmlns="http://www.w3.org/2000/svg" version="1.1" viewBox="0 0 1024 1024"><g transform="scale(1, -1) translate(0, -900)"><path d="M 906 33 Q 888 85 879 176 Q 878 192 870 198 Q 861 204 857 182 Q 838 71 822 51 Q 795 21 688 20 Q 628 21 603 30 Q 581 42 575 56 Q 566 81 566 149 Q 570 222 584 256 Q 596 289 576 305 Q 555 320 540 328 C 514 344 483 350 495 323 Q 495 320 498 315 Q 520 276 517 218 Q 516 79 525 52 Q 532 18 557 0 Q 605 -39 778 -34 Q 856 -31 887 -15 Q 918 1 906 33 Z" fill="black" /></g></svg>