<?xml version='1.0' encoding='utf-8'?>
<svg xmlns="http://www.w3.org/2000/svg" version="1.1" viewBox="0 0 1024 1024"><g transform="scale(1, -1) translate(0, -900)"><path d="M 315 331 Q 315 401 319 423 Q 323 438 314 449 Q 287 473 263 484 Q 244 491 234 485 Q 224 478 233 462 Q 278 368 255 172 Q 245 132 210 89 Q 197 73 205 48 Q 215 20 229 7 Q 242 -2 256 16 Q 275 44 441 160 Q 462 172 467 181 Q 473 191 462 193 Q 444 193 327 140 Q 308 131 308 150 Q 314 234 315 304 L 315 331 Z" fill="black" /></g></svg>