<?xml version='1.0' encoding='utf-8'?>
<svg xmlns="http://www.w3.org/2000/svg" version="1.1" viewBox="0 0 1024 1024"><g transform="scale(1, -1) translate(0, -900)"><path d="M 528 134 Q 440 61 311 19 Q 286 13 288 10 Q 289 -2 354 11 Q 474 38 560 98 L 603 134 Q 673 200 700 297 Q 710 337 731 357 Q 735 361 734 369 Q 731 388 679 411 Q 660 417 637 405 Q 624 395 578 384 Q 556 380 577 414 Q 637 504 653 512 Q 671 521 675 530 Q 679 542 640 566 Q 607 587 591 586 Q 581 586 555 571 Q 521 558 400 534 Q 336 522 282 521 Q 261 520 261 509 Q 262 500 292 490 Q 317 481 374 495 L 415 505 Q 466 517 553 533 Q 569 537 572 529 Q 576 517 542 437 Q 526 412 511 397 Q 496 381 504 367 Q 511 352 521 345 Q 528 338 536 339 Q 542 340 555 347 Q 568 354 609 361 Q 633 362 642 354 Q 651 345 643 311 Q 619 224 576 179 Q 569 173 564 166 L 528 134 Z" fill="black" /></g></svg>