<?xml version='1.0' encoding='utf-8'?>
<svg xmlns="http://www.w3.org/2000/svg" version="1.1" viewBox="0 0 1024 1024"><g transform="scale(1, -1) translate(0, -900)"><path d="M 943 49 Q 921 101 906 194 Q 903 210 897 216 Q 888 223 885 207 Q 875 152 862 108 Q 856 80 831 62 Q 809 41 713 39 Q 658 43 642 71 Q 629 102 633 188 Q 645 413 663 478 Q 672 497 643 521 Q 618 537 598 549 Q 580 561 563 551 Q 551 545 572 517 Q 597 478 595 354 Q 588 90 588 87 Q 588 9 669 -13 Q 720 -23 808 -16 Q 875 -12 923 13 Q 956 23 943 49 Z" fill="black" /></g></svg>