<?xml version='1.0' encoding='utf-8'?>
<svg xmlns="http://www.w3.org/2000/svg" version="1.1" viewBox="0 0 1024 1024"><g transform="scale(1, -1) translate(0, -900)"><path d="M 349 459 Q 339 471 296 483 Q 280 486 273 481 Q 266 474 277 456 Q 296 429 302 395 Q 308 367 305 261 Q 302 176 285 128 Q 278 92 241 51 Q 228 39 236 18 Q 245 -10 259 -24 Q 271 -33 284 -19 Q 329 36 462 146 Q 478 156 480 166 Q 483 172 476 172 Q 466 171 358 110 Q 348 106 346 109 Q 339 113 341 128 Q 353 402 358 432 Q 359 438 359 443 C 360 452 360 452 349 459 Z" fill="black" /></g></svg>