<?xml version='1.0' encoding='utf-8'?>
<svg xmlns="http://www.w3.org/2000/svg" version="1.1" viewBox="0 0 1024 1024"><g transform="scale(1, -1) translate(0, -900)"><path d="M 854 71 Q 851 84 832 105 Q 801 136 721 241 Q 715 248 709 250 Q 706 249 707 241 Q 720 190 731 134 Q 735 110 721 98 Q 705 85 658 83 Q 591 79 524 94 Q 413 121 378 212 Q 359 270 350 331 Q 347 359 328 371 Q 312 383 305 376 Q 304 376 326 261 Q 341 147 405 86 Q 516 -7 731 18 Q 746 21 764 25 Q 798 34 840 57 Q 856 64 854 71 Z" fill="black" /></g></svg>