<?xml version='1.0' encoding='utf-8'?>
<svg xmlns="http://www.w3.org/2000/svg" version="1.1" viewBox="0 0 1024 1024"><g transform="scale(1, -1) translate(0, -900)"><path d="M 517 350 Q 536 331 596 318 Q 635 309 635 275 Q 632 263 628 242 Q 589 77 533 56 Q 518 50 474 65 Q 434 81 430 74 Q 424 64 443 53 Q 488 17 499 -20 Q 503 -36 516 -44 Q 529 -50 565 -27 Q 622 18 667 170 Q 688 248 712 262 Q 725 266 726 276 Q 729 286 705 314 Q 672 350 620 350 Q 584 356 536 374 C 508 384 493 367 517 350 Z" fill="black" /></g></svg>