<?xml version='1.0' encoding='utf-8'?>
<svg xmlns="http://www.w3.org/2000/svg" version="1.1" viewBox="0 0 1024 1024"><g transform="scale(1, -1) translate(0, -900)"><path d="M 452 308 Q 534 330 601 339 Q 623 340 627 335 Q 637 316 627 273 Q 605 150 571 99 Q 552 66 523 73 Q 502 77 483 85 Q 458 94 476 69 Q 513 27 529 -3 Q 548 -28 570 -9 Q 604 13 628 54 Q 658 102 683 252 Q 692 304 712 331 Q 725 344 720 354 Q 710 366 658 391 Q 639 401 618 387 Q 593 374 500 353 Q 406 331 326 326 Q 308 325 305 316 Q 304 309 328 296 Q 353 280 373 287 Q 397 294 422 300 L 452 308 Z" fill="black" /></g></svg>