<?xml version='1.0' encoding='utf-8'?>
<svg xmlns="http://www.w3.org/2000/svg" version="1.1" viewBox="0 0 1024 1024"><g transform="scale(1, -1) translate(0, -900)"><path d="M 516 454 Q 583 464 659 472 Q 689 478 703 462 Q 713 456 717 411 Q 732 257 727 82 Q 727 57 717 49 Q 699 37 613 62 Q 597 65 598 55 Q 599 48 612 42 Q 688 -7 728 -45 Q 750 -64 762 -61 Q 775 -58 785 -29 Q 801 25 791 164 Q 770 401 789 445 Q 802 467 791 480 Q 779 496 730 520 Q 709 529 690 524 Q 635 508 523 488 L 464 479 Q 376 469 283 461 C 253 458 269 410 298 417 Q 322 426 460 446 L 516 454 Z" fill="black" /></g></svg>