<?xml version='1.0' encoding='utf-8'?>
<svg xmlns="http://www.w3.org/2000/svg" version="1.1" viewBox="0 0 1024 1024"><g transform="scale(1, -1) translate(0, -900)"><path d="M 581 365 Q 678 375 800 368 Q 825 364 835 371 Q 842 378 836 391 Q 829 404 788 428 Q 764 441 685 425 Q 660 424 583 411 L 526 401 Q 438 388 352 364 Q 336 357 332 363 Q 328 367 331 377 Q 347 438 355 454 Q 364 469 352 481 Q 334 506 305 520 Q 292 526 282 519 Q 276 513 284 496 Q 299 466 293 426 Q 280 377 257 357 Q 244 342 248 330 Q 255 308 273 290 Q 285 278 304 291 Q 365 333 488 352 L 581 365 Z" fill="black" /></g></svg>