<?xml version='1.0' encoding='utf-8'?>
<svg xmlns="http://www.w3.org/2000/svg" version="1.1" viewBox="0 0 1024 1024"><g transform="scale(1, -1) translate(0, -900)"><path d="M 659 138 Q 529 122 393 103 Q 383 102 380 104 Q 379 108 385 115 Q 482 241 518 273 Q 534 289 525 299 Q 518 308 498 315 C 471 328 437 337 435 307 Q 435 235 357 148 Q 332 120 286 96 Q 258 84 258 74 Q 257 56 267 36 Q 277 15 291 11 Q 298 7 310 13 Q 412 71 665 119 Q 666 120 671 121 C 700 128 689 142 659 138 Z" fill="black" /></g></svg>