<?xml version='1.0' encoding='utf-8'?>
<svg xmlns="http://www.w3.org/2000/svg" version="1.1" viewBox="0 0 1024 1024"><g transform="scale(1, -1) translate(0, -900)"><path d="M 483 -20 Q 487 -44 494 -53 Q 500 -60 507 -58 Q 520 -49 527 7 Q 536 83 534 159 Q 531 207 533 348 L 533 384 Q 533 424 535 469 L 537 507 Q 538 513 539 517 Q 543 539 547 557 Q 550 573 536 583 Q 505 604 491 606 Q 479 610 464 602 Q 455 595 462 585 Q 486 530 486 500 L 486 464 Q 486 424 485 376 L 484 340 Q 478 27 483 -20 Z" fill="black" /></g></svg>