<?xml version='1.0' encoding='utf-8'?>
<svg xmlns="http://www.w3.org/2000/svg" version="1.1" viewBox="0 0 1024 1024"><g transform="scale(1, -1) translate(0, -900)"><path d="M 533 348 Q 576 355 622 358 Q 655 365 660 343 Q 666 213 650 195 Q 638 186 580 198 Q 564 202 561 197 Q 558 191 570 182 Q 625 142 661 111 Q 676 98 689 112 Q 716 148 717 225 Q 717 321 723 349 Q 727 371 717 380 Q 689 405 668 417 Q 655 424 645 414 Q 639 405 539 385 Q 536 385 533 384 L 485 376 Q 440 372 368 361 C 338 357 348 320 378 323 Q 388 323 400 325 Q 442 335 484 340 L 533 348 Z" fill="black" /></g></svg>