<?xml version='1.0' encoding='utf-8'?>
<svg xmlns="http://www.w3.org/2000/svg" version="1.1" viewBox="0 0 1024 1024"><g transform="scale(1, -1) translate(0, -900)"><path d="M 534 299 Q 739 329 765 308 Q 772 301 769 288 Q 739 164 726 149 Q 716 133 698 140 Q 670 147 637 154 Q 607 158 628 137 Q 686 79 708 39 Q 714 24 727 30 Q 755 45 786 120 Q 826 249 849 268 Q 868 290 861 299 Q 854 314 799 353 Q 780 371 762 364 Q 729 354 671 348 Q 595 341 534 332 L 480 326 Q 374 313 319 300 Q 246 284 190 279 Q 165 276 161 266 Q 158 257 177 247 Q 213 223 248 237 Q 317 262 443 287 Q 459 290 479 292 L 534 299 Z" fill="black" /></g></svg>