<?xml version='1.0' encoding='utf-8'?>
<svg xmlns="http://www.w3.org/2000/svg" version="1.1" viewBox="0 0 1024 1024"><g transform="scale(1, -1) translate(0, -900)"><path d="M 495 389 Q 549 401 606 406 Q 622 407 627 399 Q 634 384 629 345 Q 614 203 584 127 Q 569 81 553 66 Q 541 57 521 66 Q 491 79 464 94 Q 442 104 454 80 Q 494 25 513 -18 Q 520 -40 542 -38 Q 560 -37 583 -12 Q 649 48 684 300 Q 691 355 715 388 Q 733 410 723 421 Q 707 440 671 458 Q 644 471 616 460 Q 568 442 505 427 L 441 415 Q 351 402 300 402 Q 279 405 279 394 Q 278 384 300 368 Q 328 349 354 357 Q 391 367 432 376 L 495 389 Z" fill="black" /></g></svg>