<?xml version='1.0' encoding='utf-8'?>
<svg xmlns="http://www.w3.org/2000/svg" version="1.1" viewBox="0 0 1024 1024"><g transform="scale(1, -1) translate(0, -900)"><path d="M 419 300 Q 441 312 538 327 Q 548 328 550 325 Q 556 318 556 299 Q 559 247 550 221 Q 537 196 513 198 Q 488 210 466 223 Q 444 233 457 209 Q 499 158 517 121 Q 530 106 542 117 Q 590 147 614 279 Q 620 312 632 327 Q 642 340 637 349 Q 628 359 581 378 Q 566 384 524 365 Q 424 338 402 334 C 373 328 391 289 419 300 Z" fill="black" /></g></svg>