<?xml version='1.0' encoding='utf-8'?>
<svg xmlns="http://www.w3.org/2000/svg" version="1.1" viewBox="0 0 1024 1024"><g transform="scale(1, -1) translate(0, -900)"><path d="M 823 82 Q 810 107 792 185 Q 792 201 785 206 Q 779 209 775 192 Q 747 107 730 81 Q 711 62 662 48 Q 547 17 457 45 Q 423 58 414 78 Q 390 129 419 300 C 424 330 424 331 402 334 Q 395 340 387 343 C 365 363 355 345 360 315 Q 367 284 366 253 Q 356 102 369 60 Q 373 35 398 16 Q 494 -47 703 -6 Q 710 -3 719 -2 Q 768 13 817 43 Q 836 58 823 82 Z" fill="black" /></g></svg>