<?xml version='1.0' encoding='utf-8'?>
<svg xmlns="http://www.w3.org/2000/svg" version="1.1" viewBox="0 0 1024 1024"><g transform="scale(1, -1) translate(0, -900)"><path d="M 903 58 Q 884 104 871 185 Q 870 201 861 206 Q 854 210 850 190 Q 837 91 823 73 Q 787 31 625 27 Q 537 30 500 44 Q 467 60 460 83 Q 433 167 462 290 Q 475 350 476 351 C 478 361 475 363 450 380 Q 413 408 400 404 Q 385 397 392 380 Q 411 343 407 288 Q 401 114 412 80 Q 424 37 455 14 Q 522 -34 744 -20 Q 847 -13 886 10 Q 917 26 903 58 Z" fill="black" /></g></svg>