<?xml version='1.0' encoding='utf-8'?>
<svg xmlns="http://www.w3.org/2000/svg" version="1.1" viewBox="0 0 1024 1024"><g transform="scale(1, -1) translate(0, -900)"><path d="M 588 433 Q 622 446 717 466 Q 724 467 731 463 Q 741 457 740 440 Q 737 397 717 320 Q 713 292 686 297 Q 652 303 626 308 Q 611 309 615 301 Q 616 291 644 273 Q 678 243 699 211 Q 706 201 717 205 Q 724 206 740 229 Q 761 256 773 314 Q 791 431 807 446 Q 819 455 814 466 Q 807 478 773 502 Q 760 511 707 499 Q 691 499 573 472 C 544 465 560 423 588 433 Z" fill="black" /></g></svg>