<?xml version='1.0' encoding='utf-8'?>
<svg xmlns="http://www.w3.org/2000/svg" version="1.1" viewBox="0 0 1024 1024"><g transform="scale(1, -1) translate(0, -900)"><path d="M 546 308 Q 610 321 673 330 Q 692 331 695 322 Q 701 312 699 281 Q 692 172 671 114 Q 661 77 648 66 Q 635 51 605 58 Q 568 65 536 74 Q 512 78 530 59 Q 579 13 606 -24 Q 618 -45 638 -38 Q 653 -37 672 -17 Q 726 34 758 240 Q 765 286 783 313 Q 801 335 792 346 Q 776 365 738 382 Q 713 395 684 383 Q 629 362 556 345 L 493 333 Q 402 318 351 318 Q 332 321 330 309 Q 329 299 352 284 Q 380 265 406 274 Q 443 284 484 294 L 546 308 Z" fill="black" /></g></svg>