<?xml version='1.0' encoding='utf-8'?>
<svg xmlns="http://www.w3.org/2000/svg" version="1.1" viewBox="0 0 1024 1024"><g transform="scale(1, -1) translate(0, -900)"><path d="M 321 451 Q 327 451 336 453 Q 669 528 692 497 Q 702 493 706 445 Q 718 288 710 111 Q 710 84 700 77 Q 687 64 609 68 Q 591 69 594 59 Q 597 52 611 47 Q 681 10 720 -22 Q 742 -41 756 -38 Q 769 -34 779 -3 Q 794 45 789 114 Q 762 432 781 473 Q 796 497 785 511 Q 773 527 724 552 Q 703 564 633 543 Q 465 507 296 492 C 266 489 291 446 321 451 Z" fill="black" /></g></svg>