<?xml version='1.0' encoding='utf-8'?>
<svg xmlns="http://www.w3.org/2000/svg" version="1.1" viewBox="0 0 1024 1024"><g transform="scale(1, -1) translate(0, -900)"><path d="M 335 512 Q 319 524 304 531 Q 285 538 276 533 Q 266 526 275 510 Q 326 404 289 136 Q 279 99 244 58 Q 231 43 237 20 Q 247 -8 259 -20 Q 272 -29 285 -13 Q 304 14 464 114 Q 486 124 491 134 Q 497 143 486 145 Q 477 145 359 103 Q 337 96 339 114 Q 351 249 351 356 L 351 391 Q 351 398 351 403 Q 354 440 358 479 C 360 496 360 496 335 512 Z" fill="black" /></g></svg>