<?xml version='1.0' encoding='utf-8'?>
<svg xmlns="http://www.w3.org/2000/svg" version="1.1" viewBox="0 0 1024 1024"><g transform="scale(1, -1) translate(0, -900)"><path d="M 595 42 Q 580 41 505 74 Q 495 78 495 72 Q 494 68 505 57 Q 550 5 569 -31 Q 579 -55 594 -54 Q 613 -55 632 -37 Q 702 17 726 155 Q 742 249 755 395 Q 756 428 778 452 Q 791 465 791 475 Q 790 482 769 498 Q 741 520 704 531 Q 683 538 605 516 Q 599 516 593 513 Q 536 500 444 483 C 415 477 390 464 420 460 Q 421 460 424 459 Q 454 450 607 473 Q 670 480 679 473 Q 695 421 675 232 Q 659 130 629 75 Q 613 44 595 42 Z" fill="black" /></g></svg>