<?xml version='1.0' encoding='utf-8'?>
<svg xmlns="http://www.w3.org/2000/svg" version="1.1" viewBox="0 0 1024 1024"><g transform="scale(1, -1) translate(0, -900)"><path d="M 920 83 Q 905 123 892 239 Q 893 257 885 262 Q 879 266 873 247 Q 840 124 817 86 Q 789 55 711 35 Q 629 14 533 17 Q 449 20 386 44 Q 328 69 315 103 Q 296 145 306 223 L 309 252 Q 313 295 324 345 Q 324 346 324 347 C 328 367 328 367 317 374 Q 304 387 282 395 Q 269 399 261 395 Q 254 391 259 373 Q 272 334 268 298 Q 255 132 268 85 Q 274 48 310 17 Q 421 -67 681 -40 Q 726 -34 771 -23 Q 841 -4 912 40 Q 933 56 920 83 Z" fill="black" /></g></svg>