<?xml version='1.0' encoding='utf-8'?>
<svg xmlns="http://www.w3.org/2000/svg" version="1.1" viewBox="0 0 1024 1024"><g transform="scale(1, -1) translate(0, -900)"><path d="M 354 476 Q 387 455 408 460 Q 601 514 611 497 Q 620 484 615 451 Q 605 357 581 315 Q 563 284 536 290 Q 521 293 507 296 Q 483 306 499 280 Q 530 241 542 212 Q 560 191 577 207 Q 605 226 627 261 Q 651 301 673 429 Q 680 474 697 496 Q 710 509 704 518 Q 694 530 645 552 Q 626 561 607 548 Q 588 535 510 518 Q 438 502 377 495 C 347 491 330 489 354 476 Z" fill="black" /></g></svg>