<?xml version='1.0' encoding='utf-8'?>
<svg xmlns="http://www.w3.org/2000/svg" version="1.1" viewBox="0 0 1024 1024"><g transform="scale(1, -1) translate(0, -900)"><path d="M 213 455 Q 241 437 289 450 Q 457 498 695 516 Q 744 520 761 517 Q 777 510 775 500 Q 775 494 738 423 Q 728 408 735 404 Q 744 400 762 412 Q 820 449 867 460 Q 906 470 905 480 Q 902 490 832 547 Q 813 563 786 562 Q 704 550 604 535 Q 501 523 340 499 Q 279 489 215 483 Q 214 483 214 481 C 184 476 185 466 213 455 Z" fill="black" /></g></svg>