<?xml version='1.0' encoding='utf-8'?>
<svg xmlns="http://www.w3.org/2000/svg" version="1.1" viewBox="0 0 1024 1024"><g transform="scale(1, -1) translate(0, -900)"><path d="M 463 272 Q 445 157 369 103 Q 308 58 177 20 Q 164 16 162 11 Q 163 7 174 4 Q 193 0 244 8 Q 329 21 391 66 Q 475 124 505 254 L 514 308 Q 515 312 516 317 Q 525 390 535 460 L 539 490 Q 542 506 556 529 Q 563 544 553 555 Q 531 574 492 588 Q 467 595 457 589 Q 448 582 455 569 Q 477 532 478 480 L 477 451 Q 476 375 467 302 L 463 272 Z" fill="black" /></g></svg>