<?xml version='1.0' encoding='utf-8'?>
<svg xmlns="http://www.w3.org/2000/svg" version="1.1" viewBox="0 0 1024 1024"><g transform="scale(1, -1) translate(0, -900)"><path d="M 405 400 Q 406 422 412 441 Q 419 454 416 466 Q 410 473 362 501 Q 341 514 325 501 Q 321 497 326 483 Q 345 458 348 431 Q 348 415 349 394 L 352 359 Q 352 353 358 182 Q 358 139 348 99 Q 339 68 364 14 Q 370 -1 377 -4 Q 381 -8 388 -2 Q 400 5 407 37 L 408 71 Q 407 93 405 194 L 405 224 Q 404 297 403 365 L 405 400 Z" fill="black" /></g></svg>