<?xml version='1.0' encoding='utf-8'?>
<svg xmlns="http://www.w3.org/2000/svg" version="1.1" viewBox="0 0 1024 1024"><g transform="scale(1, -1) translate(0, -900)"><path d="M 533 271 Q 523 -3 546 -37 Q 552 -44 559 -42 Q 577 -30 581 27 Q 585 70 586 277 L 587 313 Q 587 350 588 396 L 588 434 Q 589 465 590 501 Q 590 520 592 533 L 597 567 Q 598 577 601 585 Q 604 604 590 613 Q 556 635 541 638 Q 528 642 512 634 Q 503 625 510 615 Q 531 564 534 550 L 535 522 Q 535 477 535 424 L 535 391 Q 534 351 533 305 L 533 271 Z" fill="black" /></g></svg>