<?xml version='1.0' encoding='utf-8'?>
<svg xmlns="http://www.w3.org/2000/svg" version="1.1" viewBox="0 0 1024 1024"><g transform="scale(1, -1) translate(0, -900)"><path d="M 462 535 Q 465 551 467 561 Q 473 582 451 591 Q 402 615 386 612 Q 367 608 383 586 Q 398 561 401 526 L 403 496 Q 404 459 402 403 L 400 372 Q 400 368 400 362 Q 397 325 386 280 L 375 244 Q 339 151 290 95 Q 286 92 283 88 Q 238 43 234 36 Q 233 29 244 30 Q 283 30 352 105 Q 412 172 432 255 L 439 290 Q 448 341 452 380 L 455 411 Q 458 456 460 507 L 462 535 Z" fill="black" /></g></svg>