<?xml version='1.0' encoding='utf-8'?>
<svg xmlns="http://www.w3.org/2000/svg" version="1.1" viewBox="0 0 1024 1024"><g transform="scale(1, -1) translate(0, -900)"><path d="M 921 68 Q 900 114 884 197 Q 881 213 874 218 Q 864 222 862 202 Q 852 100 837 81 Q 801 44 659 42 Q 580 43 547 57 Q 517 73 511 92 Q 495 129 492 230 Q 492 339 515 404 C 523 430 523 430 504 442 Q 449 479 434 475 Q 418 468 426 451 Q 448 412 445 354 Q 445 96 478 50 Q 500 8 598 -5 Q 665 -15 770 -9 Q 866 -5 903 16 Q 936 35 921 68 Z" fill="black" /></g></svg>