<?xml version='1.0' encoding='utf-8'?>
<svg xmlns="http://www.w3.org/2000/svg" version="1.1" viewBox="0 0 1024 1024"><g transform="scale(1, -1) translate(0, -900)"><path d="M 515 404 Q 593 426 648 432 Q 661 433 663 430 Q 669 423 668 401 Q 667 343 654 315 Q 635 284 608 290 Q 583 297 559 308 Q 535 318 551 292 Q 594 247 614 212 Q 626 196 641 207 Q 690 237 720 351 Q 735 411 749 427 Q 762 440 755 450 Q 748 460 697 484 Q 678 493 659 480 Q 614 456 504 442 C 474 438 486 396 515 404 Z" fill="black" /></g></svg>