<?xml version='1.0' encoding='utf-8'?>
<svg xmlns="http://www.w3.org/2000/svg" version="1.1" viewBox="0 0 1024 1024"><g transform="scale(1, -1) translate(0, -900)"><path d="M 626 155 Q 699 26 816 -43 Q 897 -77 916 -60 Q 935 -48 924 -12 Q 912 24 897 153 Q 896 175 890 178 Q 886 179 882 159 Q 863 54 843 34 Q 833 28 800 48 Q 710 108 662 189 L 634 239 Q 585 338 567 421 L 561 468 Q 560 496 563 516 Q 569 543 523 561 Q 486 577 469 571 Q 450 567 464 541 Q 483 517 506 451 L 518 411 Q 563 270 600 202 L 626 155 Z" fill="black" /></g></svg>