<?xml version='1.0' encoding='utf-8'?>
<svg xmlns="http://www.w3.org/2000/svg" version="1.1" viewBox="0 0 1024 1024"><g transform="scale(1, -1) translate(0, -900)"><path d="M 711 451 Q 735 499 761 512 Q 779 528 765 547 Q 696 604 644 583 Q 619 576 597 567 L 534 550 Q 513 549 462 535 L 401 526 Q 355 522 308 517 Q 292 516 293 506 Q 296 499 314 491 Q 339 481 374 491 Q 387 494 403 496 L 460 507 Q 497 516 535 522 L 592 533 Q 608 537 626 540 Q 659 547 671 534 Q 677 528 675 516 Q 668 479 657 448 C 648 420 697 425 711 451 Z" fill="black" /></g></svg>