<?xml version='1.0' encoding='utf-8'?>
<svg xmlns="http://www.w3.org/2000/svg" version="1.1" viewBox="0 0 1024 1024"><g transform="scale(1, -1) translate(0, -900)"><path d="M 578 314 Q 578 407 602 478 Q 606 511 606 515 Q 602 521 596 525 Q 568 550 529 560 Q 510 564 502 554 Q 493 545 501 536 Q 522 517 524 467 Q 524 122 541 90 Q 541 54 632 24 Q 785 6 848 19 Q 854 20 860 22 Q 906 35 927 54 Q 943 69 925 100 Q 906 154 899 224 Q 898 234 890 244 Q 880 250 877 226 Q 844 108 837 97 Q 830 85 802 80 Q 759 68 699 70 Q 618 70 593 104 Q 566 140 576 288 L 578 314 Z" fill="black" /></g></svg>