<?xml version='1.0' encoding='utf-8'?>
<svg xmlns="http://www.w3.org/2000/svg" version="1.1" viewBox="0 0 1024 1024"><g transform="scale(1, -1) translate(0, -900)"><path d="M 517 372 Q 713 409 764 400 Q 782 390 780 382 Q 765 339 751 294 L 753 293 Q 760 289 779 301 Q 836 335 881 346 Q 918 356 918 365 Q 917 375 839 433 Q 817 451 791 446 Q 700 433 589 413 Q 571 412 552 408 L 520 403 Q 426 391 297 368 Q 228 356 159 349 Q 125 345 146 327 Q 180 299 217 309 Q 337 345 462 364 L 517 372 Z" fill="black" /></g></svg>