<?xml version='1.0' encoding='utf-8'?>
<svg xmlns="http://www.w3.org/2000/svg" version="1.1" viewBox="0 0 1024 1024"><g transform="scale(1, -1) translate(0, -900)"><path d="M 582 131 Q 628 183 657 267 Q 667 301 689 318 Q 705 331 689 349 Q 670 367 636 382 Q 615 391 593 382 Q 529 351 439 339 Q 432 339 426 337 C 396 333 383 321 412 313 Q 437 300 476 312 Q 531 322 584 335 Q 602 341 603 321 Q 603 243 542 164 L 518 136 Q 442 73 282 34 Q 266 31 275 22 Q 282 15 312 16 Q 475 32 552 99 L 582 131 Z" fill="black" /></g></svg>