<?xml version='1.0' encoding='utf-8'?>
<svg xmlns="http://www.w3.org/2000/svg" version="1.1" viewBox="0 0 1024 1024"><g transform="scale(1, -1) translate(0, -900)"><path d="M 398 279 Q 395 279 394 278 Q 282 227 272 234 Q 265 235 266 252 Q 270 328 272 366 Q 271 394 275 418 Q 276 428 274 435 C 274 440 274 440 261 448 Q 242 461 224 468 Q 208 474 198 469 Q 188 462 201 444 Q 243 383 216 240 Q 207 216 190 185 Q 177 166 186 154 Q 195 141 219 131 Q 235 124 248 140 Q 266 171 395 249 C 421 265 426 290 398 279 Z" fill="black" /></g></svg>