<?xml version='1.0' encoding='utf-8'?>
<svg xmlns="http://www.w3.org/2000/svg" version="1.1" viewBox="0 0 1024 1024"><g transform="scale(1, -1) translate(0, -900)"><path d="M 624 445 Q 691 467 742 475 Q 755 476 757 473 Q 767 457 763 417 Q 756 305 731 254 Q 718 226 692 228 Q 667 234 646 242 Q 624 248 640 227 Q 683 188 703 159 Q 724 140 741 158 Q 769 180 787 220 Q 809 266 816 404 Q 819 453 834 478 Q 844 490 839 499 Q 830 509 784 526 Q 771 532 734 513 Q 643 486 608 477 C 579 469 595 436 624 445 Z" fill="black" /></g></svg>