<?xml version='1.0' encoding='utf-8'?>
<svg xmlns="http://www.w3.org/2000/svg" version="1.1" viewBox="0 0 1024 1024"><g transform="scale(1, -1) translate(0, -900)"><path d="M 353 330 Q 386 339 416 343 Q 437 346 441 339 Q 451 321 441 278 Q 419 155 386 104 Q 367 73 340 79 Q 309 89 283 101 Q 259 108 275 86 Q 324 41 346 7 Q 367 -17 387 2 Q 420 23 443 64 Q 471 110 495 259 Q 502 311 522 336 Q 535 349 529 359 Q 520 371 469 394 Q 448 404 429 390 Q 413 381 365 367 L 306 352 Q 221 331 150 326 Q 132 325 129 316 Q 128 307 152 296 Q 177 280 197 288 Q 248 304 295 316 L 353 330 Z" fill="black" /></g></svg>