<?xml version='1.0' encoding='utf-8'?>
<svg xmlns="http://www.w3.org/2000/svg" version="1.1" viewBox="0 0 1024 1024"><g transform="scale(1, -1) translate(0, -900)"><path d="M 415 210 Q 445 237 480 263 Q 562 336 649 426 Q 671 453 709 477 Q 725 487 721 497 Q 720 507 660 537 Q 644 549 590 524 Q 515 505 449 496 C 419 492 401 481 430 474 Q 454 458 552 477 Q 589 486 597 478 Q 598 472 589 458 Q 517 355 363 228 L 337 209 Q 243 140 96 53 Q 80 43 94 40 Q 139 34 307 135 Q 313 139 353 165 L 415 210 Z" fill="black" /></g></svg>