<?xml version='1.0' encoding='utf-8'?>
<svg xmlns="http://www.w3.org/2000/svg" version="1.1" viewBox="0 0 1024 1024"><g transform="scale(1, -1) translate(0, -900)"><path d="M 927 48 Q 905 105 888 202 Q 885 218 877 222 Q 870 226 867 206 Q 863 83 846 60 Q 818 27 693 22 Q 626 22 596 33 Q 571 46 564 62 Q 554 90 555 155 L 560 203 Q 566 258 580 286 Q 593 316 574 333 Q 525 372 508 368 Q 493 362 500 345 Q 519 308 514 252 Q 511 203 511 166 L 510 131 Q 510 38 552 5 Q 606 -35 792 -25 Q 877 -21 911 -1 Q 941 15 927 48 Z" fill="black" /></g></svg>