<?xml version='1.0' encoding='utf-8'?>
<svg xmlns="http://www.w3.org/2000/svg" version="1.1" viewBox="0 0 1024 1024"><g transform="scale(1, -1) translate(0, -900)"><path d="M 372 525 Q 360 534 348 539 Q 329 546 320 540 Q 310 534 319 518 Q 367 422 339 148 Q 335 99 293 49 Q 280 33 287 10 Q 297 -18 310 -30 Q 323 -39 336 -21 Q 355 7 525 121 Q 546 133 551 142 Q 557 152 546 153 Q 531 153 405 97 Q 386 90 386 107 Q 393 219 396 313 L 396 341 Q 396 374 396 404 L 395 430 Q 396 458 401 481 Q 404 488 402 495 C 403 506 398 509 372 525 Z" fill="black" /></g></svg>