<?xml version='1.0' encoding='utf-8'?>
<svg xmlns="http://www.w3.org/2000/svg" version="1.1" viewBox="0 0 1024 1024"><g transform="scale(1, -1) translate(0, -900)"><path d="M 684 62 Q 685 59 686 56 Q 693 26 704 13 Q 711 3 720 4 Q 730 5 741 22 Q 769 65 800 228 Q 806 273 822 297 Q 832 307 830 313 Q 830 329 792 363 Q 753 399 730 400 Q 726 399 704 393 Q 688 389 631 384 Q 607 383 579 378 L 537 373 Q 497 370 464 362 L 416 354 Q 379 350 353 343 Q 295 334 265 330 C 235 326 270 277 299 285 Q 303 284 319 290 Q 359 303 414 313 L 459 321 Q 504 331 536 331 L 574 336 Q 644 345 709 346 Q 727 346 735 335 Q 745 328 745 307 Q 746 258 728 171 Q 716 102 710 93 Q 709 89 703 88 C 688 62 683 67 684 62 Z" fill="black" /></g></svg>