<?xml version='1.0' encoding='utf-8'?>
<svg xmlns="http://www.w3.org/2000/svg" version="1.1" viewBox="0 0 1024 1024"><g transform="scale(1, -1) translate(0, -900)"><path d="M 522 138 Q 525 211 529 281 L 531 318 Q 534 382 537 442 Q 537 448 538 452 L 542 484 Q 543 494 545 504 Q 552 526 555 542 Q 559 552 538 568 Q 502 587 478 591 Q 462 595 454 586 Q 447 579 455 563 Q 480 526 481 499 Q 481 487 482 473 L 483 444 Q 484 380 485 309 L 485 275 Q 484 206 480 131 C 478 101 521 108 522 138 Z" fill="black" /></g></svg>