<?xml version='1.0' encoding='utf-8'?>
<svg xmlns="http://www.w3.org/2000/svg" version="1.1" viewBox="0 0 1024 1024"><g transform="scale(1, -1) translate(0, -900)"><path d="M 666 110 Q 676 83 699 34 Q 708 15 719 16 Q 735 19 746 46 Q 783 118 790 215 Q 799 276 806 345 Q 812 400 838 432 Q 857 454 843 469 Q 819 494 767 516 Q 746 528 710 515 Q 536 460 247 450 C 217 449 256 402 286 405 Q 293 405 303 406 Q 450 431 678 461 Q 720 467 735 448 Q 765 400 715 158 Q 712 136 703 134 Q 700 133 693 135 C 670 116 665 112 666 110 Z" fill="black" /></g></svg>