<?xml version='1.0' encoding='utf-8'?>
<svg xmlns="http://www.w3.org/2000/svg" version="1.1" viewBox="0 0 1024 1024"><g transform="scale(1, -1) translate(0, -900)"><path d="M 532 377 Q 533 408 534 443 Q 534 459 535 475 L 539 519 Q 542 547 549 569 Q 556 582 554 596 Q 548 605 495 637 Q 473 653 454 638 Q 450 634 455 619 Q 480 580 482 506 L 483 466 Q 483 454 484 371 L 482 303 Q 482 141 463 76 Q 453 42 477 -19 Q 484 -35 491 -39 Q 497 -45 504 -38 Q 511 -34 521 -13 Q 530 9 529 39 Q 528 72 531 309 L 532 377 Z" fill="black" /></g></svg>