<?xml version='1.0' encoding='utf-8'?>
<svg xmlns="http://www.w3.org/2000/svg" version="1.1" viewBox="0 0 1024 1024"><g transform="scale(1, -1) translate(0, -900)"><path d="M 346 358 Q 401 497 402 499 Q 401 500 401 501 Q 391 517 352 544 Q 336 556 320 550 Q 310 544 316 530 Q 337 493 298 352 L 286 306 Q 256 231 251 223 Q 241 204 260 187 Q 306 163 346 133 L 384 104 Q 426 73 482 20 Q 495 7 504 6 Q 511 6 517 16 Q 521 25 517 52 Q 513 76 493 88 Q 468 107 411 138 L 367 162 Q 339 178 304 196 Q 288 203 289 220 Q 311 266 330 316 L 346 358 Z" fill="black" /></g></svg>