<?xml version='1.0' encoding='utf-8'?>
<svg xmlns="http://www.w3.org/2000/svg" version="1.1" viewBox="0 0 1024 1024"><g transform="scale(1, -1) translate(0, -900)"><path d="M 312 465 Q 471 498 655 517 Q 682 520 694 505 Q 706 499 710 448 Q 723 279 716 87 Q 716 59 706 50 Q 693 40 627 50 Q 608 54 610 43 Q 611 34 626 28 Q 687 -18 718 -52 Q 740 -74 755 -70 Q 768 -67 780 -36 Q 796 13 795 86 Q 777 326 776 414 Q 777 457 790 483 Q 803 507 792 520 Q 780 536 728 563 Q 707 573 643 557 Q 465 521 295 509 C 265 507 283 459 312 465 Z" fill="black" /></g></svg>