<?xml version='1.0' encoding='utf-8'?>
<svg xmlns="http://www.w3.org/2000/svg" version="1.1" viewBox="0 0 1024 1024"><g transform="scale(1, -1) translate(0, -900)"><path d="M 453 65 Q 423 72 394 79 Q 382 82 383 74 Q 384 67 394 59 Q 458 -4 479 -40 Q 492 -58 509 -44 Q 545 -11 546 61 Q 543 92 539 276 L 540 327 Q 541 358 551 379 Q 560 398 543 411 Q 518 433 488 442 Q 469 449 461 441 Q 455 434 466 419 Q 485 386 487 314 L 489 267 Q 490 158 486 93 Q 485 74 474 67 Q 467 61 453 65 Z" fill="black" /></g></svg>