<?xml version='1.0' encoding='utf-8'?>
<svg xmlns="http://www.w3.org/2000/svg" version="1.1" viewBox="0 0 1024 1024"><g transform="scale(1, -1) translate(0, -900)"><path d="M 560 340 Q 594 352 655 361 C 685 366 670 383 640 379 Q 525 363 407 345 Q 397 344 395 346 Q 394 349 400 354 Q 491 450 524 473 Q 540 485 532 495 Q 528 502 517 507 C 493 525 458 529 454 499 Q 457 457 376 380 Q 354 359 313 343 Q 286 333 285 323 Q 284 307 292 287 Q 301 268 313 262 Q 320 259 331 264 Q 356 279 388 290 L 429 304 Q 432 308 525 332 L 560 340 Z" fill="black" /></g></svg>