<?xml version='1.0' encoding='utf-8'?>
<svg xmlns="http://www.w3.org/2000/svg" version="1.1" viewBox="0 0 1024 1024"><g transform="scale(1, -1) translate(0, -900)"><path d="M 936 61 Q 917 116 907 209 Q 906 225 897 230 Q 890 234 886 215 Q 871 98 855 77 Q 827 46 716 42 Q 655 43 628 52 Q 606 64 599 79 Q 578 146 602 242 Q 612 297 613 298 Q 607 319 560 340 C 533 354 513 359 525 332 Q 525 329 528 324 Q 549 287 545 231 Q 544 101 551 75 Q 560 41 584 23 Q 635 -14 808 -7 Q 887 -3 919 15 Q 949 31 936 61 Z" fill="black" /></g></svg>