<?xml version='1.0' encoding='utf-8'?>
<svg xmlns="http://www.w3.org/2000/svg" version="1.1" viewBox="0 0 1024 1024"><g transform="scale(1, -1) translate(0, -900)"><path d="M 425 486 Q 462 470 512 478 Q 548 487 673 507 Q 692 510 702 499 Q 718 480 720 435 Q 732 210 692 73 Q 683 51 673 45 Q 666 39 632 44 Q 565 60 562 53 Q 558 46 577 31 Q 619 -9 640 -46 Q 658 -74 674 -69 Q 720 -54 756 59 Q 778 137 794 392 Q 797 459 815 481 Q 834 503 809 522 Q 737 570 702 561 Q 698 561 694 559 Q 570 526 448 507 C 418 502 396 494 425 486 Z" fill="black" /></g></svg>