<?xml version='1.0' encoding='utf-8'?>
<svg xmlns="http://www.w3.org/2000/svg" version="1.1" viewBox="0 0 1024 1024"><g transform="scale(1, -1) translate(0, -900)"><path d="M 618 361 Q 618 354 621 345 Q 627 329 640 329 Q 655 330 663 346 Q 675 359 697 424 Q 716 479 756 510 Q 777 526 760 544 Q 741 563 689 592 Q 674 601 600 588 Q 569 588 440 568 Q 388 561 349 555 C 319 551 339 513 368 519 Q 371 519 375 520 Q 448 539 612 551 Q 640 552 651 546 Q 660 540 655 512 Q 633 403 623 381 Q 622 381 622 380 C 617 367 617 367 618 361 Z" fill="black" /></g></svg>