<?xml version='1.0' encoding='utf-8'?>
<svg xmlns="http://www.w3.org/2000/svg" version="1.1" viewBox="0 0 1024 1024"><g transform="scale(1, -1) translate(0, -900)"><path d="M 484 247 Q 713 296 743 268 Q 750 262 750 249 Q 747 177 735 168 Q 726 165 644 186 Q 628 193 627 186 Q 626 176 644 163 Q 684 123 701 90 Q 707 74 721 80 Q 763 98 783 155 Q 816 245 828 252 Q 841 267 835 276 Q 825 288 780 310 Q 758 322 681 304 Q 543 283 486 272 L 439 263 Q 358 250 282 229 Q 270 228 270 235 Q 297 301 307 311 C 316 327 316 327 297 342 Q 290 351 282 356 Q 263 366 254 364 Q 247 361 250 348 Q 265 279 205 227 Q 193 215 200 203 Q 207 193 225 177 Q 234 168 251 177 Q 327 219 437 237 L 484 247 Z" fill="black" /></g></svg>