<?xml version='1.0' encoding='utf-8'?>
<svg xmlns="http://www.w3.org/2000/svg" version="1.1" viewBox="0 0 1024 1024"><g transform="scale(1, -1) translate(0, -900)"><path d="M 625 681 Q 685 684 756 682 Q 783 681 806 682 Q 825 681 831 690 Q 835 700 820 714 Q 765 756 701 739 Q 674 735 644 728 L 589 719 Q 540 715 483 705 Q 443 701 405 695 L 359 689 Q 271 680 176 669 Q 157 668 171 651 Q 184 638 201 632 Q 222 626 237 631 Q 300 647 368 657 L 409 663 Q 448 673 579 679 L 625 681 Z" fill="black" /></g></svg>