<?xml version='1.0' encoding='utf-8'?>
<svg xmlns="http://www.w3.org/2000/svg" version="1.1" viewBox="0 0 1024 1024"><g transform="scale(1, -1) translate(0, -900)"><path d="M 486 272 Q 486 276 487 278 Q 488 308 489 337 L 491 372 Q 492 412 495 450 L 496 478 Q 497 499 499 518 Q 499 536 501 549 L 514 597 Q 518 607 522 619 Q 529 634 518 645 Q 496 664 456 675 Q 431 681 421 674 Q 412 667 420 655 Q 439 621 445 579 L 447 539 Q 448 505 448 470 L 448 442 Q 447 403 446 363 L 444 331 Q 441 298 439 263 L 437 237 Q 424 123 352 69 Q 297 24 173 -16 Q 160 -20 158 -25 Q 158 -29 170 -31 Q 191 -35 240 -23 Q 324 -7 383 40 Q 456 95 477 195 L 482 227 Q 483 237 484 247 L 486 272 Z" fill="black" /></g></svg>