<?xml version='1.0' encoding='utf-8'?>
<svg xmlns="http://www.w3.org/2000/svg" version="1.1" viewBox="0 0 1024 1024"><g transform="scale(1, -1) translate(0, -900)"><path d="M 530 389 Q 684 262 815 268 Q 816 269 819 269 Q 838 278 826 301 Q 814 325 793 438 Q 792 448 786 449 Q 782 449 767 380 Q 758 341 729 340 Q 650 355 570 410 L 537 436 Q 528 445 518 454 Q 493 475 475 497 L 449 538 Q 436 563 434 586 Q 431 605 392 608 Q 353 612 346 605 Q 339 596 348 585 Q 378 570 407 524 L 435 486 Q 456 458 500 414 L 530 389 Z" fill="black" /></g></svg>