<?xml version='1.0' encoding='utf-8'?>
<svg xmlns="http://www.w3.org/2000/svg" version="1.1" viewBox="0 0 1024 1024"><g transform="scale(1, -1) translate(0, -900)"><path d="M 678 267 Q 718 277 755 280 Q 774 281 777 276 Q 786 261 778 225 Q 762 123 734 80 Q 715 47 686 53 Q 656 60 630 70 Q 606 76 624 54 Q 672 14 694 -17 Q 712 -39 730 -23 Q 781 10 812 114 Q 843 253 858 272 Q 871 284 865 294 Q 858 306 808 329 Q 789 339 769 327 Q 750 317 690 304 L 630 292 Q 572 283 523 280 Q 507 280 503 272 Q 502 265 524 252 Q 546 236 566 243 Q 593 250 619 255 L 678 267 Z" fill="black" /></g></svg>