<?xml version='1.0' encoding='utf-8'?>
<svg xmlns="http://www.w3.org/2000/svg" version="1.1" viewBox="0 0 1024 1024"><g transform="scale(1, -1) translate(0, -900)"><path d="M 872 396 Q 856 436 846 507 Q 845 522 837 526 Q 830 530 827 512 Q 811 425 798 410 Q 789 400 764 390 Q 668 365 615 383 Q 596 392 591 404 Q 576 444 585 504 L 589 530 Q 590 555 599 569 Q 609 597 592 611 Q 546 645 531 641 Q 518 635 525 620 Q 544 586 541 536 Q 540 395 563 368 Q 587 344 643 336 Q 691 330 764 335 Q 831 339 857 355 Q 882 368 872 396 Z" fill="black" /></g></svg>