<?xml version='1.0' encoding='utf-8'?>
<svg xmlns="http://www.w3.org/2000/svg" version="1.1" viewBox="0 0 1024 1024"><g transform="scale(1, -1) translate(0, -900)"><path d="M 535 266 Q 547 272 698 280 Q 737 281 739 292 Q 740 305 713 322 Q 692 335 632 323 Q 589 316 538 306 L 486 298 Q 426 291 359 282 Q 347 281 346 284 Q 346 285 351 295 Q 376 337 418 412 L 442 456 Q 460 489 475 497 Q 494 509 485 521 Q 458 551 438 565 C 415 584 413 586 411 558 Q 411 509 385 448 L 366 405 Q 323 318 287 294 Q 266 279 277 238 Q 281 225 296 228 Q 359 246 486 260 L 535 266 Z" fill="black" /></g></svg>