<?xml version='1.0' encoding='utf-8'?>
<svg xmlns="http://www.w3.org/2000/svg" version="1.1" viewBox="0 0 1024 1024"><g transform="scale(1, -1) translate(0, -900)"><path d="M 683 372 Q 725 378 750 377 Q 774 377 776 367 Q 797 307 744 152 Q 740 142 736 132 Q 726 99 699 69 Q 686 51 674 54 Q 646 63 607 77 Q 592 81 591 78 Q 591 74 606 59 Q 640 25 659 -16 Q 669 -31 677 -34 Q 684 -35 702 -22 Q 753 21 786 89 Q 813 150 836 320 Q 840 345 853 356 Q 866 366 853 381 Q 840 394 811 412 Q 795 422 718 407 Q 598 386 505 376 Q 495 369 490 379 Q 490 394 567 485 Q 606 530 622 534 Q 632 540 633 544 Q 634 551 628 556 Q 609 577 582 587 Q 564 596 535 584 Q 441 551 382 554 Q 369 554 366 549 Q 363 545 368 537 Q 375 527 389 519 Q 402 509 455 522 Q 549 549 552 541 Q 552 505 451 393 Q 417 369 428 333 Q 431 324 457 332 Q 473 336 496 341 L 525 347 Q 568 357 627 366 Q 628 367 631 366 L 683 372 Z" fill="black" /></g></svg>