<?xml version='1.0' encoding='utf-8'?>
<svg xmlns="http://www.w3.org/2000/svg" version="1.1" viewBox="0 0 1024 1024"><g transform="scale(1, -1) translate(0, -900)"><path d="M 656 61 Q 617 65 579 72 Q 566 73 568 66 Q 569 59 580 52 Q 665 -8 697 -46 Q 713 -62 728 -47 Q 765 -8 759 63 Q 755 108 753 375 L 753 424 Q 753 482 765 513 Q 774 532 756 546 Q 729 568 698 579 Q 679 586 670 577 Q 664 570 675 555 Q 699 515 698 470 Q 699 442 700 415 L 701 371 Q 705 82 682 64 Q 672 55 656 61 Z" fill="black" /></g></svg>