<?xml version='1.0' encoding='utf-8'?>
<svg xmlns="http://www.w3.org/2000/svg" version="1.1" viewBox="0 0 1024 1024"><g transform="scale(1, -1) translate(0, -900)"><path d="M 592 493 Q 599 494 611 497 Q 654 509 696 520 Q 717 526 722 515 Q 743 461 744 144 Q 738 69 734 61 Q 728 54 707 59 Q 635 68 637 59 Q 695 17 730 -15 Q 745 -33 760 -37 Q 770 -40 778 -30 Q 815 25 812 76 Q 773 457 799 505 Q 811 526 798 535 Q 776 554 739 568 Q 721 575 672 549 Q 630 531 571 522 C 541 517 563 486 592 493 Z" fill="black" /></g></svg>