<?xml version='1.0' encoding='utf-8'?>
<svg xmlns="http://www.w3.org/2000/svg" version="1.1" viewBox="0 0 1024 1024"><g transform="scale(1, -1) translate(0, -900)"><path d="M 483 188 Q 444 86 294 11 Q 266 -1 232 -15 Q 219 -19 215 -22 Q 209 -28 225 -32 Q 322 -38 446 46 Q 465 62 482 81 Q 516 121 536 186 Q 536 189 537 192 L 547 231 Q 557 285 566 365 Q 567 393 580 425 Q 586 437 577 444 Q 558 462 522 477 Q 500 487 483 481 Q 464 474 479 456 Q 525 404 494 226 Q 493 226 493 224 L 483 188 Z" fill="black" /></g></svg>