<?xml version='1.0' encoding='utf-8'?>
<svg xmlns="http://www.w3.org/2000/svg" version="1.1" viewBox="0 0 1024 1024"><g transform="scale(1, -1) translate(0, -900)"><path d="M 323 339 Q 233 233 206 219 Q 191 212 194 197 Q 194 184 219 163 Q 229 150 244 162 Q 301 198 413 233 Q 432 237 435 245 Q 438 255 418 252 Q 361 245 291 229 Q 266 222 283 241 Q 320 284 406 370 Q 437 404 462 424 Q 475 433 470 443 Q 461 462 430 484 Q 414 494 405 492 Q 395 489 396 474 Q 396 438 341 362 L 323 339 Z" fill="black" /></g></svg>