<?xml version='1.0' encoding='utf-8'?>
<svg xmlns="http://www.w3.org/2000/svg" version="1.1" viewBox="0 0 1024 1024"><g transform="scale(1, -1) translate(0, -900)"><path d="M 255 428 Q 282 410 324 419 Q 454 459 678 480 Q 720 484 735 481 Q 751 474 751 466 Q 751 460 727 407 Q 718 394 725 389 Q 732 385 750 395 Q 802 422 845 427 Q 879 434 880 441 Q 879 451 807 511 Q 780 532 701 516 Q 596 504 516 490 L 481 485 Q 429 479 369 469 Q 314 462 260 456 Q 259 456 259 455 C 229 450 228 440 255 428 Z" fill="black" /></g></svg>