<?xml version='1.0' encoding='utf-8'?>
<svg xmlns="http://www.w3.org/2000/svg" version="1.1" viewBox="0 0 1024 1024"><g transform="scale(1, -1) translate(0, -900)"><path d="M 619 320 Q 586 356 565 353 Q 555 349 556 338 Q 557 328 557 313 L 556 277 Q 552 228 507 138 Q 506 137 506 135 C 494 109 494 109 475 97 Q 387 39 317 19 Q 227 4 225 0 Q 218 -3 227 -9 Q 231 -12 247 -12 Q 338 -16 408 6 Q 459 19 520 72 L 557 116 Q 590 161 617 241 Q 624 265 631 279 C 640 299 640 299 619 320 Z" fill="black" /></g></svg>