<?xml version='1.0' encoding='utf-8'?>
<svg xmlns="http://www.w3.org/2000/svg" version="1.1" viewBox="0 0 1024 1024"><g transform="scale(1, -1) translate(0, -900)"><path d="M 525 391 Q 585 401 652 408 Q 674 412 685 399 Q 692 395 696 357 Q 705 231 698 88 Q 697 67 690 61 Q 674 49 596 63 Q 580 64 582 55 Q 583 48 596 44 Q 666 4 704 -29 Q 725 -47 737 -44 Q 749 -40 758 -13 Q 771 30 769 93 Q 756 259 755 320 Q 756 357 767 379 Q 777 400 768 411 Q 758 426 714 448 Q 695 458 677 453 Q 628 438 525 418 L 476 411 Q 403 402 327 395 C 297 392 319 353 348 360 Q 406 375 476 384 L 525 391 Z" fill="black" /></g></svg>