<?xml version='1.0' encoding='utf-8'?>
<svg xmlns="http://www.w3.org/2000/svg" version="1.1" viewBox="0 0 1024 1024"><g transform="scale(1, -1) translate(0, -900)"><path d="M 475 20 Q 479 -4 486 -13 Q 492 -20 499 -18 Q 523 0 525 161 L 525 201 Q 524 226 524 273 L 524 314 Q 524 348 525 391 L 525 418 Q 526 449 527 482 L 530 522 Q 531 526 532 531 Q 535 553 539 569 Q 542 585 528 595 Q 497 616 483 618 Q 471 622 456 614 Q 447 607 454 597 Q 475 552 477 515 L 477 477 Q 477 446 476 411 L 476 384 Q 475 347 474 302 L 473 266 Q 473 230 473 190 L 472 154 Q 471 57 475 20 Z" fill="black" /></g></svg>