<?xml version='1.0' encoding='utf-8'?>
<svg xmlns="http://www.w3.org/2000/svg" version="1.1" viewBox="0 0 1024 1024"><g transform="scale(1, -1) translate(0, -900)"><path d="M 628 465 Q 618 435 597 407 Q 588 397 592 384 Q 593 374 610 363 Q 664 326 710 284 Q 726 268 740 269 Q 752 272 753 293 Q 754 315 741 330 Q 729 351 654 372 Q 638 376 630 387 Q 624 394 635 407 Q 645 414 662 430 Q 681 452 696 462 Q 711 469 705 487 Q 692 521 670 535 Q 657 544 646 541 Q 636 540 640 522 Q 646 498 628 465 Z" fill="black" /></g></svg>