<?xml version='1.0' encoding='utf-8'?>
<svg xmlns="http://www.w3.org/2000/svg" version="1.1" viewBox="0 0 1024 1024"><g transform="scale(1, -1) translate(0, -900)"><path d="M 300 447 Q 291 384 261 346 Q 254 337 253 329 Q 253 319 275 303 Q 302 282 340 241 Q 352 223 362 226 Q 375 227 381 244 Q 387 266 380 280 Q 371 298 300 322 Q 285 328 291 344 Q 295 354 321 389 Q 346 423 357 431 Q 367 435 368 443 Q 371 458 349 477 Q 330 496 313 498 Q 297 499 291 493 Q 290 489 294 481 Q 304 469 300 447 Z" fill="black" /></g></svg>