<?xml version='1.0' encoding='utf-8'?>
<svg xmlns="http://www.w3.org/2000/svg" version="1.1" viewBox="0 0 1024 1024"><g transform="scale(1, -1) translate(0, -900)"><path d="M 692 310 Q 768 319 904 299 Q 926 296 933 304 Q 940 317 929 328 Q 901 356 860 376 Q 847 382 822 375 Q 758 363 697 355 L 640 349 Q 546 343 494 337 Q 442 334 400 330 L 352 326 Q 139 316 127 315 Q 114 315 113 304 Q 112 292 129 278 Q 145 265 174 253 Q 184 249 202 256 Q 220 262 294 273 Q 315 277 338 280 L 385 287 Q 445 296 512 300 Q 567 303 619 307 Q 626 308 636 307 L 692 310 Z" fill="black" /></g></svg>