<?xml version='1.0' encoding='utf-8'?>
<svg xmlns="http://www.w3.org/2000/svg" version="1.1" viewBox="0 0 1024 1024"><g transform="scale(1, -1) translate(0, -900)"><path d="M 342 200 Q 364 240 389 297 Q 401 325 422 345 Q 431 352 423 367 Q 416 376 376 395 Q 370 401 304 386 Q 294 385 290 390 Q 287 397 308 427 Q 360 496 386 508 Q 407 520 393 537 Q 365 561 339 568 Q 323 574 304 558 Q 283 542 231 523 Q 174 505 151 509 Q 138 510 134 503 Q 131 496 142 489 Q 179 467 206 477 Q 245 484 292 506 Q 302 507 304 505 Q 307 496 261 418 Q 254 397 234 382 Q 221 372 224 359 Q 227 349 233 343 Q 243 330 262 340 Q 320 374 341 355 Q 344 343 337 316 Q 322 258 303 222 L 284 191 Q 236 118 100 40 Q 87 31 96 26 Q 108 25 138 36 Q 234 76 290 129 Q 306 145 323 169 L 342 200 Z" fill="black" /></g></svg>