<?xml version='1.0' encoding='utf-8'?>
<svg xmlns="http://www.w3.org/2000/svg" version="1.1" viewBox="0 0 1024 1024"><g transform="scale(1, -1) translate(0, -900)"><path d="M 502 277 Q 505 299 527 481 L 532 526 Q 533 545 550 576 Q 557 591 546 603 Q 524 622 483 635 Q 458 642 448 636 Q 438 629 446 616 Q 470 576 470 513 L 470 473 Q 470 191 367 86 Q 364 85 361 80 Q 298 23 164 -30 Q 151 -36 149 -41 Q 150 -45 162 -47 Q 183 -51 234 -38 Q 321 -19 385 37 Q 460 103 496 242 L 502 277 Z" fill="black" /></g></svg>