<?xml version='1.0' encoding='utf-8'?>
<svg xmlns="http://www.w3.org/2000/svg" version="1.1" viewBox="0 0 1024 1024"><g transform="scale(1, -1) translate(0, -900)"><path d="M 494 257 Q 494 253 497 245 Q 510 208 508 173 Q 502 56 512 24 Q 519 -4 545 -29 Q 641 -101 837 -68 Q 852 -64 868 -60 Q 916 -45 962 -11 Q 983 5 968 33 Q 953 61 933 149 Q 933 165 925 170 Q 918 173 914 155 Q 889 61 871 31 Q 855 12 806 -2 Q 692 -32 603 4 Q 566 20 557 43 Q 539 76 560 220 Q 566 245 533 260 C 508 277 486 286 494 257 Z" fill="black" /></g></svg>