<?xml version='1.0' encoding='utf-8'?>
<svg xmlns="http://www.w3.org/2000/svg" version="1.1" viewBox="0 0 1024 1024"><g transform="scale(1, -1) translate(0, -900)"><path d="M 627 316 Q 628 332 631 345 L 635 390 Q 639 459 654 498 Q 660 508 651 517 Q 633 533 599 549 Q 578 559 561 553 Q 542 546 557 528 Q 584 500 584 469 Q 583 421 580 379 L 577 336 Q 553 170 488 96 Q 484 93 480 88 Q 450 57 385 15 Q 373 11 370 6 Q 366 0 381 -2 Q 444 -2 535 78 Q 548 93 561 110 Q 594 159 619 271 L 627 316 Z" fill="black" /></g></svg>