<?xml version='1.0' encoding='utf-8'?>
<svg xmlns="http://www.w3.org/2000/svg" version="1.1" viewBox="0 0 1024 1024"><g transform="scale(1, -1) translate(0, -900)"><path d="M 316 157 Q 331 184 321 217 Q 314 236 292 273 Q 270 312 304 362 Q 325 393 341 410 Q 363 428 344 444 Q 325 460 290 475 Q 268 488 249 471 Q 218 450 179 436 Q 125 414 108 418 Q 101 418 99 413 Q 98 409 105 404 Q 145 385 239 418 Q 249 421 257 410 Q 276 391 256 365 Q 211 320 251 260 Q 285 194 286 159 C 289 129 304 129 316 157 Z" fill="black" /></g></svg>