<?xml version='1.0' encoding='utf-8'?>
<svg xmlns="http://www.w3.org/2000/svg" version="1.1" viewBox="0 0 1024 1024"><g transform="scale(1, -1) translate(0, -900)"><path d="M 349 385 Q 449 406 458 398 Q 467 391 465 365 Q 462 340 460 308 Q 459 286 451 277 Q 445 267 422 271 Q 377 275 375 273 Q 371 269 384 260 Q 424 227 446 200 Q 455 190 469 192 Q 478 195 487 213 Q 506 241 508 280 Q 512 362 525 390 Q 532 403 526 411 Q 466 451 440 434 Q 407 421 350 410 L 307 401 Q 258 394 195 387 C 165 384 168 352 198 356 Q 205 356 213 358 Q 265 370 307 377 L 349 385 Z" fill="black" /></g></svg>