<?xml version='1.0' encoding='utf-8'?>
<svg xmlns="http://www.w3.org/2000/svg" version="1.1" viewBox="0 0 1024 1024"><g transform="scale(1, -1) translate(0, -900)"><path d="M 377 174 Q 404 192 455 202 Q 563 229 676 234 Q 706 238 719 226 Q 731 214 702 90 Q 695 56 679 35 Q 669 20 640 23 Q 612 27 585 31 Q 570 34 571 27 Q 571 21 580 14 Q 632 -31 652 -63 Q 661 -82 678 -71 Q 732 -38 743 9 Q 759 73 773 145 Q 780 182 799 213 Q 812 229 801 241 Q 783 262 747 283 Q 726 295 698 283 Q 656 268 585 256 L 543 250 Q 489 244 411 228 Q 386 224 385 244 Q 385 400 395 429 C 399 456 399 456 377 468 Q 367 477 350 483 Q 331 489 323 480 Q 317 476 325 463 Q 346 426 335 258 Q 332 236 328 213 Q 324 192 338 177 Q 359 161 377 174 Z" fill="black" /></g></svg>