<?xml version='1.0' encoding='utf-8'?>
<svg xmlns="http://www.w3.org/2000/svg" version="1.1" viewBox="0 0 1024 1024"><g transform="scale(1, -1) translate(0, -900)"><path d="M 301 328 Q 207 213 186 202 Q 173 193 175 179 Q 176 166 202 147 Q 212 135 227 147 Q 278 190 375 227 Q 393 233 395 241 Q 398 251 378 247 Q 329 237 269 218 Q 251 211 262 226 Q 301 275 392 373 Q 422 409 448 428 Q 460 438 454 448 Q 445 467 413 487 Q 398 497 388 495 Q 378 492 380 477 Q 383 438 320 352 L 301 328 Z" fill="black" /></g></svg>