<?xml version='1.0' encoding='utf-8'?>
<svg xmlns="http://www.w3.org/2000/svg" version="1.1" viewBox="0 0 1024 1024"><g transform="scale(1, -1) translate(0, -900)"><path d="M 553 528 Q 634 558 693 570 Q 706 573 709 569 Q 715 562 713 542 Q 712 487 699 462 Q 684 437 661 441 Q 637 450 617 460 Q 596 469 610 447 Q 647 405 665 374 Q 677 359 689 370 Q 732 395 758 499 Q 764 550 783 567 Q 793 579 787 587 Q 780 597 736 614 Q 720 621 703 610 Q 658 583 526 556 C 497 550 525 518 553 528 Z" fill="black" /></g></svg>