<?xml version='1.0' encoding='utf-8'?>
<svg xmlns="http://www.w3.org/2000/svg" version="1.1" viewBox="0 0 1024 1024"><g transform="scale(1, -1) translate(0, -900)"><path d="M 572 226 Q 578 254 585 288 L 593 331 Q 596 346 600 353 Q 607 360 601 370 Q 592 380 556 393 C 528 404 505 413 515 386 Q 515 383 519 377 Q 529 344 529 319 Q 528 318 528 317 L 526 279 Q 523 246 517 218 L 505 181 Q 472 81 330 3 Q 324 0 319 -3 Q 297 -16 325 -15 Q 409 -19 492 61 Q 501 71 510 83 Q 537 117 558 175 Q 558 179 560 181 L 572 226 Z" fill="black" /></g></svg>