<?xml version='1.0' encoding='utf-8'?>
<svg xmlns="http://www.w3.org/2000/svg" version="1.1" viewBox="0 0 1024 1024"><g transform="scale(1, -1) translate(0, -900)"><path d="M 632 124 Q 620 111 608 96 Q 559 51 433 14 Q 417 10 427 2 Q 434 -4 463 0 Q 598 15 665 86 L 696 128 Q 727 176 748 244 Q 757 278 776 296 Q 792 309 775 325 Q 754 341 722 355 Q 700 362 679 352 Q 634 328 570 318 Q 567 318 566 317 C 537 311 526 287 556 288 Q 571 285 671 308 Q 692 314 691 291 Q 691 228 655 160 L 632 124 Z" fill="black" /></g></svg>