<?xml version='1.0' encoding='utf-8'?>
<svg xmlns="http://www.w3.org/2000/svg" version="1.1" viewBox="0 0 1024 1024"><g transform="scale(1, -1) translate(0, -900)"><path d="M 936 58 Q 923 89 904 182 Q 904 198 897 202 Q 891 205 887 188 Q 865 88 848 57 Q 812 15 689 20 Q 641 21 605 37 Q 574 53 565 73 Q 550 107 570 221 Q 576 249 531 266 Q 521 270 512 266 Q 506 262 511 246 Q 521 212 519 177 Q 515 83 522 56 Q 526 29 551 8 Q 618 -52 795 -35 Q 819 -31 844 -25 Q 887 -12 931 18 Q 949 33 936 58 Z" fill="black" /></g></svg>