<?xml version='1.0' encoding='utf-8'?>
<svg xmlns="http://www.w3.org/2000/svg" version="1.1" viewBox="0 0 1024 1024"><g transform="scale(1, -1) translate(0, -900)"><path d="M 429 264 Q 375 98 225 14 Q 209 4 193 -5 Q 180 -12 192 -16 Q 252 -22 336 43 Q 385 76 411 116 Q 465 210 479 254 Q 479 261 483 269 L 494 303 Q 497 313 501 324 Q 508 355 525 383 Q 535 399 521 410 Q 505 423 492 431 Q 489 432 487 434 C 462 450 436 457 443 428 Q 443 427 444 424 Q 457 387 438 295 L 429 264 Z" fill="black" /></g></svg>