<?xml version='1.0' encoding='utf-8'?>
<svg xmlns="http://www.w3.org/2000/svg" version="1.1" viewBox="0 0 1024 1024"><g transform="scale(1, -1) translate(0, -900)"><path d="M 646 28 Q 653 3 673 -46 Q 680 -65 691 -64 Q 707 -63 719 -37 Q 741 0 774 160 Q 774 208 807 247 Q 826 266 814 281 Q 792 305 744 328 Q 725 340 690 329 Q 602 302 502 287 Q 415 277 289 272 C 259 271 281 226 311 229 Q 320 229 328 230 Q 458 252 663 278 Q 699 284 714 266 Q 730 220 692 65 Q 689 50 683 49 Q 680 48 676 49 C 655 28 644 35 646 28 Z" fill="black" /></g></svg>