<?xml version='1.0' encoding='utf-8'?>
<svg xmlns="http://www.w3.org/2000/svg" version="1.1" viewBox="0 0 1024 1024"><g transform="scale(1, -1) translate(0, -900)"><path d="M 340 286 Q 340 326 342 372 L 344 423 Q 345 472 357 508 Q 364 521 362 532 Q 356 541 310 570 Q 291 583 273 571 Q 269 567 273 554 Q 297 520 297 485 Q 297 448 298 407 L 296 280 Q 292 136 285 95 Q 266 22 288 -22 Q 288 -23 289 -25 Q 293 -40 301 -43 Q 305 -49 312 -42 Q 334 -27 336 27 Q 335 55 339 252 L 340 286 Z" fill="black" /></g></svg>