<?xml version='1.0' encoding='utf-8'?>
<svg xmlns="http://www.w3.org/2000/svg" version="1.1" viewBox="0 0 1024 1024"><g transform="scale(1, -1) translate(0, -900)"><path d="M 356 357 Q 356 385 358 414 L 360 461 Q 363 509 373 544 Q 380 557 378 568 Q 372 577 326 606 Q 307 619 289 607 Q 285 603 290 590 Q 312 554 314 519 Q 314 486 315 449 L 312 312 Q 309 162 304 134 Q 286 41 300 9 Q 301 5 305 -1 Q 309 -16 317 -19 Q 321 -25 328 -18 Q 350 -3 352 51 Q 351 82 356 323 L 356 357 Z" fill="black" /></g></svg>