<?xml version='1.0' encoding='utf-8'?>
<svg xmlns="http://www.w3.org/2000/svg" version="1.1" viewBox="0 0 1024 1024"><g transform="scale(1, -1) translate(0, -900)"><path d="M 641 107 Q 672 152 693 216 Q 702 247 721 263 Q 737 276 720 292 Q 701 308 671 322 Q 653 328 592 305 L 554 294 Q 467 282 462 277 Q 453 271 470 262 Q 494 249 531 259 Q 577 268 622 277 Q 641 283 640 261 Q 640 201 603 138 L 581 107 Q 533 47 385 5 Q 370 2 379 -6 Q 386 -12 413 -9 Q 495 0 543 20 Q 582 38 613 71 L 641 107 Z" fill="black" /></g></svg>