<?xml version='1.0' encoding='utf-8'?>
<svg xmlns="http://www.w3.org/2000/svg" version="1.1" viewBox="0 0 1024 1024"><g transform="scale(1, -1) translate(0, -900)"><path d="M 516 298 Q 574 302 628 308 Q 790 323 927 309 Q 949 306 956 315 Q 963 328 952 340 Q 922 368 878 387 Q 865 394 838 385 Q 765 369 688 358 Q 624 352 577 345 L 545 341 Q 484 338 298 313 Q 225 301 114 300 Q 101 300 99 289 Q 98 276 117 262 Q 133 249 165 238 Q 175 234 193 242 Q 211 248 289 262 Q 391 286 516 298 Z" fill="black" /></g></svg>