<?xml version='1.0' encoding='utf-8'?>
<svg xmlns="http://www.w3.org/2000/svg" version="1.1" viewBox="0 0 1024 1024"><g transform="scale(1, -1) translate(0, -900)"><path d="M 610 426 Q 610 456 604 461 Q 597 468 570 476 C 542 486 518 488 535 463 Q 568 430 568 268 Q 568 262 568 253 Q 565 102 510 34 Q 489 13 523 -28 Q 524 -29 528 -33 Q 538 -42 551 -28 Q 555 -21 688 111 C 709 132 706 137 679 124 Q 657 114 612 89 Q 605 86 603 88 Q 597 92 598 108 Q 605 342 609 411 L 610 426 Z" fill="black" /></g></svg>