<?xml version='1.0' encoding='utf-8'?>
<svg xmlns="http://www.w3.org/2000/svg" version="1.1" viewBox="0 0 1024 1024"><g transform="scale(1, -1) translate(0, -900)"><path d="M 506 113 Q 491 100 475 85 Q 412 42 254 5 Q 239 4 247 -6 Q 254 -13 282 -13 Q 384 -4 444 17 Q 498 38 539 79 L 574 117 Q 605 160 629 219 Q 641 252 662 266 Q 678 278 663 295 Q 645 314 615 330 Q 596 340 573 331 Q 533 312 479 305 Q 473 305 469 304 C 439 300 423 289 452 280 Q 477 268 513 276 Q 538 282 562 287 Q 580 291 579 272 Q 579 217 533 146 L 506 113 Z" fill="black" /></g></svg>