<?xml version='1.0' encoding='utf-8'?>
<svg xmlns="http://www.w3.org/2000/svg" version="1.1" viewBox="0 0 1024 1024"><g transform="scale(1, -1) translate(0, -900)"><path d="M 525 430 Q 577 437 641 438 L 688 440 Q 757 443 932 444 Q 954 444 959 453 Q 965 466 947 481 Q 889 526 817 507 Q 768 500 707 487 L 651 479 Q 591 472 526 461 L 473 454 Q 416 448 358 440 L 310 433 Q 198 423 78 408 Q 56 405 72 387 Q 87 372 106 366 Q 128 360 146 365 Q 228 387 320 403 L 362 409 Q 408 419 473 424 L 525 430 Z" fill="black" /></g></svg>