<?xml version='1.0' encoding='utf-8'?>
<svg xmlns="http://www.w3.org/2000/svg" version="1.1" viewBox="0 0 1024 1024"><g transform="scale(1, -1) translate(0, -900)"><path d="M 717 170 Q 763 266 782 330 Q 782 369 810 397 Q 826 412 806 427 Q 784 443 750 454 Q 728 461 707 448 Q 653 420 578 411 Q 553 408 541 402 Q 532 395 550 386 Q 575 373 614 384 Q 657 394 699 403 Q 724 410 723 383 Q 723 298 678 207 L 654 168 Q 606 105 479 58 Q 464 54 475 46 Q 482 42 510 47 Q 630 65 686 127 L 717 170 Z" fill="black" /></g></svg>