<?xml version='1.0' encoding='utf-8'?>
<svg xmlns="http://www.w3.org/2000/svg" version="1.1" viewBox="0 0 1024 1024"><g transform="scale(1, -1) translate(0, -900)"><path d="M 324 302 Q 324 301 327 298 Q 333 294 357 286 Q 384 279 392 263 Q 401 239 358 125 Q 340 80 318 71 Q 306 67 267 81 Q 234 94 230 90 Q 226 81 241 71 Q 277 44 290 6 Q 294 -10 305 -15 Q 317 -19 347 0 Q 389 36 421 150 Q 421 177 441 212 Q 451 227 458 233 Q 468 236 471 244 Q 472 253 453 277 Q 425 311 379 311 Q 349 320 339 325 C 311 336 299 319 324 302 Z" fill="black" /></g></svg>