<?xml version='1.0' encoding='utf-8'?>
<svg xmlns="http://www.w3.org/2000/svg" version="1.1" viewBox="0 0 1024 1024"><g transform="scale(1, -1) translate(0, -900)"><path d="M 377 204 Q 431 258 467 321 Q 470 330 475 337 L 487 368 Q 499 402 508 435 L 518 474 Q 517 475 518 475 Q 528 509 528 513 Q 518 526 499 538 C 474 555 454 560 466 532 Q 469 528 471 520 Q 478 501 466 460 L 461 428 Q 455 404 442 359 L 431 330 Q 419 291 355 207 Q 352 204 350 201 C 331 178 356 183 377 204 Z" fill="black" /></g></svg>