<?xml version='1.0' encoding='utf-8'?>
<svg xmlns="http://www.w3.org/2000/svg" version="1.1" viewBox="0 0 1024 1024"><g transform="scale(1, -1) translate(0, -900)"><path d="M 532 331 Q 535 505 538 518 L 546 568 Q 547 578 551 587 Q 560 600 557 613 Q 551 622 500 653 Q 479 669 460 655 Q 456 651 461 636 Q 489 596 490 553 L 490 510 Q 490 483 491 386 Q 488 385 486 378 L 488 288 Q 484 120 469 61 Q 451 16 478 -48 Q 484 -64 492 -67 Q 496 -73 504 -66 Q 511 -62 521 -42 Q 530 -20 529 9 Q 528 43 532 294 L 532 331 Z" fill="black" /></g></svg>