<?xml version='1.0' encoding='utf-8'?>
<svg xmlns="http://www.w3.org/2000/svg" version="1.1" viewBox="0 0 1024 1024"><g transform="scale(1, -1) translate(0, -900)"><path d="M 325 250 Q 335 229 357 193 Q 366 178 374 181 Q 387 184 394 206 Q 416 261 415 335 Q 418 381 419 434 Q 420 474 438 499 Q 451 517 441 527 Q 422 543 382 559 Q 366 566 290 535 Q 227 517 200 512 C 171 506 197 473 226 482 Q 225 483 227 483 Q 347 516 356 510 Q 381 470 360 292 Q 360 276 353 273 L 352 273 C 338 247 318 264 325 250 Z" fill="black" /></g></svg>