<?xml version='1.0' encoding='utf-8'?>
<svg xmlns="http://www.w3.org/2000/svg" version="1.1" viewBox="0 0 1024 1024"><g transform="scale(1, -1) translate(0, -900)"><path d="M 449 273 Q 459 295 471 308 Q 481 315 478 324 Q 474 339 438 368 Q 428 378 417 374 Q 404 373 410 356 Q 417 334 409 310 Q 402 288 393 268 L 379 235 Q 361 199 345 177 Q 335 161 337 147 Q 340 137 357 133 Q 427 115 463 88 L 508 62 Q 566 26 647 -38 Q 672 -57 690 -57 Q 711 -57 711 -37 Q 711 -18 682 28 Q 667 58 543 103 L 497 121 Q 442 143 401 153 Q 382 157 393 176 Q 414 215 429 239 L 449 273 Z" fill="black" /></g></svg>