<?xml version='1.0' encoding='utf-8'?>
<svg xmlns="http://www.w3.org/2000/svg" version="1.1" viewBox="0 0 1024 1024"><g transform="scale(1, -1) translate(0, -900)"><path d="M 641 27 Q 656 5 672 -38 Q 682 -59 701 -47 Q 732 -31 753 77 Q 780 234 802 266 Q 817 288 799 302 Q 733 362 692 345 Q 680 344 659 338 Q 616 329 566 327 Q 556 326 555 315 Q 556 305 572 296 Q 599 284 635 291 Q 699 310 715 302 Q 722 298 722 277 Q 718 243 713 207 L 708 170 Q 699 119 687 65 Q 684 55 667 56 C 638 48 629 46 641 27 Z" fill="black" /></g></svg>