<?xml version='1.0' encoding='utf-8'?>
<svg xmlns="http://www.w3.org/2000/svg" version="1.1" viewBox="0 0 1024 1024"><g transform="scale(1, -1) translate(0, -900)"><path d="M 649 372 Q 656 402 666 421 L 693 470 Q 700 480 710 487 Q 726 505 712 522 Q 646 577 585 552 Q 554 543 525 535 L 480 526 Q 408 513 333 508 Q 317 507 319 497 Q 320 490 338 483 Q 362 473 395 482 Q 437 489 480 495 L 523 503 Q 553 509 584 513 Q 608 519 617 508 Q 626 499 621 459 L 613 421 Q 607 402 602 381 C 595 352 641 343 649 372 Z" fill="black" /></g></svg>