<?xml version='1.0' encoding='utf-8'?>
<svg xmlns="http://www.w3.org/2000/svg" version="1.1" viewBox="0 0 1024 1024"><g transform="scale(1, -1) translate(0, -900)"><path d="M 677 417 Q 678 416 679 412 Q 683 396 696 396 Q 715 399 747 466 Q 765 515 802 544 Q 821 559 806 575 Q 790 591 741 620 Q 728 629 638 613 Q 578 613 422 585 Q 350 573 299 567 C 269 563 287 521 315 531 Q 321 538 413 551 L 436 555 Q 490 565 561 573 L 602 576 Q 684 591 710 575 Q 717 571 712 548 Q 693 469 684 447 C 675 421 675 421 677 417 Z" fill="black" /></g></svg>