<?xml version='1.0' encoding='utf-8'?>
<svg xmlns="http://www.w3.org/2000/svg" version="1.1" viewBox="0 0 1024 1024"><g transform="scale(1, -1) translate(0, -900)"><path d="M 336 224 Q 379 193 406 169 Q 419 159 429 171 Q 453 201 453 272 Q 447 339 458 388 Q 461 406 452 414 Q 428 435 412 444 Q 400 448 393 440 Q 389 436 340 422 L 296 412 Q 262 408 207 397 C 178 391 185 363 215 366 Q 224 366 234 368 Q 265 377 297 382 L 339 389 Q 355 392 376 394 Q 401 400 404 383 Q 413 260 396 240 Q 389 236 345 239 Q 341 240 337 239 C 314 240 314 240 336 224 Z" fill="black" /></g></svg>