<?xml version='1.0' encoding='utf-8'?>
<svg xmlns="http://www.w3.org/2000/svg" version="1.1" viewBox="0 0 1024 1024"><g transform="scale(1, -1) translate(0, -900)"><path d="M 516 83 Q 520 144 523 202 L 525 238 Q 528 290 530 341 Q 530 345 530 348 L 535 376 Q 536 386 538 393 Q 542 411 546 424 Q 549 434 530 449 Q 496 467 472 471 Q 456 474 448 466 Q 441 459 449 444 Q 471 413 472 390 Q 472 378 473 365 L 474 339 Q 475 287 478 230 L 478 197 Q 478 140 476 77 C 475 47 514 53 516 83 Z" fill="black" /></g></svg>