<?xml version='1.0' encoding='utf-8'?>
<svg xmlns="http://www.w3.org/2000/svg" version="1.1" viewBox="0 0 1024 1024"><g transform="scale(1, -1) translate(0, -900)"><path d="M 610 397 Q 625 373 640 365 Q 650 356 667 378 Q 683 400 717 529 Q 727 560 752 584 Q 765 597 755 611 Q 739 629 697 657 Q 679 666 604 649 Q 550 643 441 623 Q 374 610 320 602 C 290 597 329 565 358 573 Q 397 585 453 594 L 499 602 Q 631 630 657 612 Q 670 602 665 582 Q 635 438 615 428 C 601 409 601 409 610 397 Z" fill="black" /></g></svg>