<?xml version='1.0' encoding='utf-8'?>
<svg xmlns="http://www.w3.org/2000/svg" version="1.1" viewBox="0 0 1024 1024"><g transform="scale(1, -1) translate(0, -900)"><path d="M 519 170 Q 519 222 520 268 L 520 302 Q 520 345 522 386 L 522 420 Q 523 456 524 489 L 525 531 Q 529 576 524 583 Q 512 593 499 602 C 475 620 438 620 453 594 Q 459 584 465 572 Q 471 554 473 515 L 474 480 Q 474 455 474 411 L 474 379 Q 474 343 474 296 L 474 262 Q 474 217 474 162 C 474 132 519 140 519 170 Z" fill="black" /></g></svg>