<?xml version='1.0' encoding='utf-8'?>
<svg xmlns="http://www.w3.org/2000/svg" version="1.1" viewBox="0 0 1024 1024"><g transform="scale(1, -1) translate(0, -900)"><path d="M 670 451 Q 677 485 686 509 L 704 553 Q 714 575 729 587 Q 745 603 731 620 Q 715 633 667 655 Q 651 662 630 654 Q 581 635 537 624 L 483 612 Q 416 600 345 594 Q 330 593 331 584 Q 334 577 350 571 Q 372 561 405 571 Q 444 578 484 585 L 532 594 Q 625 618 640 604 Q 650 595 648 575 Q 645 560 643 544 L 636 507 Q 630 482 624 458 C 617 429 664 422 670 451 Z" fill="black" /></g></svg>