<?xml version='1.0' encoding='utf-8'?>
<svg xmlns="http://www.w3.org/2000/svg" version="1.1" viewBox="0 0 1024 1024"><g transform="scale(1, -1) translate(0, -900)"><path d="M 605 310 Q 623 277 640 265 Q 650 258 666 277 Q 685 307 730 469 Q 740 497 765 519 Q 778 529 769 544 Q 756 562 718 590 Q 699 600 575 580 Q 574 581 573 580 Q 558 580 562 570 Q 566 560 580 553 Q 584 550 663 553 Q 672 554 674 550 Q 687 531 684 513 Q 677 482 669 456 L 661 429 Q 640 356 631 339 Q 627 327 613 325 C 600 319 600 319 605 310 Z" fill="black" /></g></svg>