<?xml version='1.0' encoding='utf-8'?>
<svg xmlns="http://www.w3.org/2000/svg" version="1.1" viewBox="0 0 1024 1024"><g transform="scale(1, -1) translate(0, -900)"><path d="M 362 130 Q 420 170 537 191 Q 571 201 593 195 Q 615 189 618 153 Q 611 99 582 58 Q 563 30 547 23 Q 528 16 499 25 Q 436 40 434 34 Q 434 27 447 16 Q 489 -23 516 -58 Q 526 -70 536 -69 Q 552 -69 570 -56 Q 633 -8 672 127 Q 675 158 687 176 Q 700 189 689 202 Q 673 218 633 236 Q 612 245 588 236 Q 557 226 532 221 Q 486 212 428 203 Q 410 200 419 217 Q 441 251 450 259 Q 463 272 453 289 Q 449 293 442 297 C 423 321 382 320 383 290 Q 393 266 360 215 Q 353 205 332 192 Q 314 176 317 159 Q 318 144 336 129 Q 348 117 362 130 Z" fill="black" /></g></svg>