<?xml version='1.0' encoding='utf-8'?>
<svg xmlns="http://www.w3.org/2000/svg" version="1.1" viewBox="0 0 1024 1024"><g transform="scale(1, -1) translate(0, -900)"><path d="M 383 534 Q 425 543 484 547 L 525 551 Q 574 555 633 558 L 680 560 Q 711 561 905 562 Q 926 562 931 571 Q 937 583 920 597 Q 862 642 795 624 Q 750 617 695 606 L 639 597 Q 585 591 524 581 L 479 575 Q 433 571 385 564 L 329 558 Q 226 549 113 535 Q 91 534 107 515 Q 122 500 140 495 Q 162 489 179 493 Q 252 514 334 527 L 383 534 Z" fill="black" /></g></svg>