<?xml version='1.0' encoding='utf-8'?>
<svg xmlns="http://www.w3.org/2000/svg" version="1.1" viewBox="0 0 1024 1024"><g transform="scale(1, -1) translate(0, -900)"><path d="M 470 289 Q 533 344 582 383 L 633 427 Q 688 476 709 497 Q 740 528 769 539 Q 785 543 786 554 Q 785 561 774 569 Q 743 591 715 600 Q 699 604 689 588 Q 673 540 548 415 L 508 378 Q 462 338 407 292 L 381 270 Q 357 252 333 231 Q 230 150 83 65 Q 76 61 77 57 Q 78 54 86 55 Q 162 71 202 96 Q 296 151 392 225 L 470 289 Z" fill="black" /></g></svg>