<?xml version='1.0' encoding='utf-8'?>
<svg xmlns="http://www.w3.org/2000/svg" version="1.1" viewBox="0 0 1024 1024"><g transform="scale(1, -1) translate(0, -900)"><path d="M 369 326 Q 369 359 371 395 L 372 444 Q 375 496 386 534 Q 393 547 392 559 Q 385 566 337 598 Q 316 613 298 599 Q 294 595 299 581 Q 323 547 323 512 Q 323 473 324 430 L 322 301 Q 318 156 308 109 Q 290 57 316 0 Q 320 -16 328 -19 Q 334 -25 340 -18 Q 347 -14 356 5 Q 365 27 364 54 Q 364 84 368 302 L 369 326 Z" fill="black" /></g></svg>