<?xml version='1.0' encoding='utf-8'?>
<svg xmlns="http://www.w3.org/2000/svg" version="1.1" viewBox="0 0 1024 1024"><g transform="scale(1, -1) translate(0, -900)"><path d="M 603 518 Q 661 536 709 541 Q 722 542 726 539 Q 732 527 725 499 Q 710 420 689 388 Q 668 358 642 366 Q 623 370 606 377 Q 584 384 599 362 Q 630 325 645 298 Q 658 279 675 291 Q 729 319 768 447 Q 781 510 803 531 Q 815 541 810 552 Q 803 562 756 586 Q 738 596 719 584 Q 703 574 640 561 Q 576 546 523 543 Q 507 542 504 534 Q 503 527 524 516 Q 546 501 564 508 Q 565 509 570 509 L 603 518 Z" fill="black" /></g></svg>