<?xml version='1.0' encoding='utf-8'?>
<svg xmlns="http://www.w3.org/2000/svg" version="1.1" viewBox="0 0 1024 1024"><g transform="scale(1, -1) translate(0, -900)"><path d="M 390 47 Q 394 26 400 18 Q 404 12 410 15 Q 422 21 428 69 Q 432 100 433 133 L 434 171 Q 434 195 433 221 L 433 258 Q 432 283 434 314 L 434 339 Q 434 364 436 392 L 439 427 Q 439 428 440 428 Q 443 444 446 457 Q 447 470 437 479 Q 412 497 399 499 Q 389 503 376 496 Q 369 489 374 481 Q 389 454 391 420 L 391 385 Q 391 360 390 331 L 390 304 Q 389 277 389 245 L 388 213 Q 388 186 387 158 L 387 126 Q 387 71 390 47 Z" fill="black" /></g></svg>