<?xml version='1.0' encoding='utf-8'?>
<svg xmlns="http://www.w3.org/2000/svg" version="1.1" viewBox="0 0 1024 1024"><g transform="scale(1, -1) translate(0, -900)"><path d="M 600 39 Q 663 -24 676 -43 Q 697 -73 715 -67 Q 763 -52 798 78 Q 817 165 821 447 Q 821 520 840 545 Q 856 566 834 583 Q 762 631 727 617 Q 553 572 371 555 C 341 552 331 546 359 537 Q 399 518 429 527 Q 475 540 686 572 Q 722 576 735 560 Q 774 515 758 252 Q 746 141 726 73 Q 716 48 704 41 Q 701 40 611 50 Q 605 51 602 52 C 585 54 585 54 600 39 Z" fill="black" /></g></svg>