<?xml version='1.0' encoding='utf-8'?>
<svg xmlns="http://www.w3.org/2000/svg" version="1.1" viewBox="0 0 1024 1024"><g transform="scale(1, -1) translate(0, -900)"><path d="M 566 501 Q 554 513 533 520 Q 523 524 512 521 Q 505 517 511 504 Q 512 494 517 484 Q 541 439 526 191 Q 522 160 513 124 Q 498 70 534 25 Q 544 12 555 25 Q 568 41 567 62 Q 568 69 569 76 L 570 107 Q 571 120 571 137 Q 571 186 572 227 L 573 252 Q 573 298 575 332 L 575 358 Q 576 449 579 459 Q 580 465 580 469 C 582 488 582 488 566 501 Z" fill="black" /></g></svg>