<?xml version='1.0' encoding='utf-8'?>
<svg xmlns="http://www.w3.org/2000/svg" version="1.1" viewBox="0 0 1024 1024"><g transform="scale(1, -1) translate(0, -900)"><path d="M 434 314 Q 524 333 537 322 Q 555 309 547 98 Q 547 83 541 78 Q 531 69 473 77 Q 460 78 462 72 Q 463 66 473 62 Q 525 32 553 7 Q 569 -8 579 -5 Q 588 -2 596 19 Q 597 29 600 39 L 602 52 Q 605 76 605 104 Q 589 281 602 307 Q 611 323 603 333 Q 594 343 558 362 Q 543 369 528 365 Q 497 355 434 339 L 390 331 Q 338 322 286 315 C 256 311 271 273 299 283 Q 305 289 390 304 L 434 314 Z" fill="black" /></g></svg>