<?xml version='1.0' encoding='utf-8'?>
<svg xmlns="http://www.w3.org/2000/svg" version="1.1" viewBox="0 0 1024 1024"><g transform="scale(1, -1) translate(0, -900)"><path d="M 524 25 Q 524 59 524 91 L 525 133 Q 525 167 526 200 L 527 233 Q 528 264 529 294 L 530 333 Q 530 361 530 386 L 531 416 Q 531 440 533 468 L 535 513 Q 542 532 532 541 Q 517 556 503 565 C 479 583 445 582 458 555 Q 476 519 478 505 L 481 463 Q 482 463 482 461 Q 482 449 482 409 L 482 380 Q 482 355 482 321 L 482 287 Q 481 259 480 225 L 480 194 Q 479 161 479 123 L 478 84 Q 478 54 478 21 C 478 -9 524 -5 524 25 Z" fill="black" /></g></svg>