<?xml version='1.0' encoding='utf-8'?>
<svg xmlns="http://www.w3.org/2000/svg" version="1.1" viewBox="0 0 1024 1024"><g transform="scale(1, -1) translate(0, -900)"><path d="M 594 509 Q 610 509 713 536 Q 732 542 739 532 Q 752 490 753 255 Q 753 57 739 34 Q 735 28 714 33 Q 687 39 660 46 Q 639 53 640 43 Q 697 -9 729 -47 Q 742 -68 759 -73 Q 768 -77 777 -67 Q 822 -12 820 42 Q 799 348 808 475 Q 811 503 819 519 Q 832 538 819 550 Q 797 569 758 585 Q 739 592 688 567 Q 649 551 583 540 C 553 535 564 504 594 509 Z" fill="black" /></g></svg>