<?xml version='1.0' encoding='utf-8'?>
<svg xmlns="http://www.w3.org/2000/svg" version="1.1" viewBox="0 0 1024 1024"><g transform="scale(1, -1) translate(0, -900)"><path d="M 533 468 Q 702 493 847 480 Q 869 479 875 486 Q 882 499 870 510 Q 842 535 799 554 Q 786 560 761 551 Q 698 536 635 526 Q 577 520 535 513 L 478 505 Q 474 506 472 505 Q 193 472 149 470 Q 136 470 135 459 Q 135 447 153 434 Q 169 422 199 411 Q 209 407 227 416 Q 242 420 308 433 Q 384 454 481 463 L 533 468 Z" fill="black" /></g></svg>