<?xml version='1.0' encoding='utf-8'?>
<svg xmlns="http://www.w3.org/2000/svg" version="1.1" viewBox="0 0 1024 1024"><g transform="scale(1, -1) translate(0, -900)"><path d="M 855 413 Q 845 431 831 485 Q 830 498 825 501 Q 821 504 816 490 Q 794 432 781 413 Q 771 401 742 393 Q 672 378 618 398 Q 585 413 582 448 L 581 464 Q 581 515 592 577 Q 596 593 577 607 C 556 629 529 631 537 602 Q 537 601 538 599 Q 548 568 547 537 Q 541 404 569 375 Q 585 359 625 346 Q 755 315 850 381 Q 865 393 855 413 Z" fill="black" /></g></svg>