<?xml version='1.0' encoding='utf-8'?>
<svg xmlns="http://www.w3.org/2000/svg" version="1.1" viewBox="0 0 1024 1024"><g transform="scale(1, -1) translate(0, -900)"><path d="M 648 134 Q 682 185 715 263 Q 728 290 748 307 Q 767 322 755 335 Q 742 348 712 359 Q 690 368 663 355 Q 635 345 597 335 Q 558 325 495 320 Q 482 320 478 313 Q 474 306 491 299 Q 525 286 571 298 Q 632 317 645 316 Q 667 312 658 287 Q 643 218 611 166 L 586 134 Q 526 71 416 40 Q 403 36 414 27 Q 420 23 458 25 Q 534 32 616 98 L 648 134 Z" fill="black" /></g></svg>