<?xml version='1.0' encoding='utf-8'?>
<svg xmlns="http://www.w3.org/2000/svg" version="1.1" viewBox="0 0 1024 1024"><g transform="scale(1, -1) translate(0, -900)"><path d="M 472 137 Q 469 -47 486 -73 Q 492 -80 499 -78 Q 517 -66 520 -11 Q 529 67 528 142 L 526 178 Q 526 208 526 254 L 526 289 Q 527 314 528 341 L 529 383 Q 529 407 529 432 L 530 458 Q 531 471 532 486 Q 532 499 533 509 L 538 549 Q 541 564 544 575 Q 547 593 533 602 Q 520 611 510 616 C 484 631 441 634 454 607 Q 478 559 480 535 L 481 500 Q 481 478 480 451 L 480 423 Q 479 398 479 369 L 478 333 Q 477 308 476 280 L 475 249 Q 474 213 473 173 L 472 137 Z" fill="black" /></g></svg>