<?xml version='1.0' encoding='utf-8'?>
<svg xmlns="http://www.w3.org/2000/svg" version="1.1" viewBox="0 0 1024 1024"><g transform="scale(1, -1) translate(0, -900)"><path d="M 582 331 Q 582 330 584 328 Q 606 294 624 284 Q 636 277 652 299 Q 668 324 699 461 Q 709 495 734 522 Q 747 535 735 551 Q 719 569 672 598 Q 654 605 583 590 Q 579 590 330 544 C 300 539 312 497 341 506 Q 341 507 342 507 Q 390 520 460 532 L 499 539 Q 614 561 630 545 Q 643 529 641 514 Q 617 370 601 353 C 587 326 577 338 582 331 Z" fill="black" /></g></svg>