<?xml version='1.0' encoding='utf-8'?>
<svg xmlns="http://www.w3.org/2000/svg" version="1.1" viewBox="0 0 1024 1024"><g transform="scale(1, -1) translate(0, -900)"><path d="M 582 24 Q 607 -10 626 -44 Q 633 -60 645 -60 Q 660 -59 676 -29 Q 694 7 692 51 Q 688 100 683 189 Q 683 217 699 238 Q 709 250 700 260 Q 684 279 634 302 Q 618 312 603 303 Q 554 282 478 268 Q 448 264 428 260 L 394 255 Q 384 255 374 254 C 344 252 356 221 386 224 Q 410 224 580 257 Q 607 261 620 251 Q 642 236 624 56 Q 621 46 613 44 C 595 20 574 35 582 24 Z" fill="black" /></g></svg>