<?xml version='1.0' encoding='utf-8'?>
<svg xmlns="http://www.w3.org/2000/svg" version="1.1" viewBox="0 0 1024 1024"><g transform="scale(1, -1) translate(0, -900)"><path d="M 305 509 Q 306 555 309 562 Q 312 577 302 585 Q 293 595 256 606 Q 243 609 237 604 Q 231 600 240 583 Q 273 538 256 431 Q 253 424 251 416 Q 244 386 210 355 Q 200 346 204 327 Q 208 303 220 291 Q 229 282 242 294 Q 297 340 454 428 Q 469 435 472 442 Q 473 446 469 448 Q 457 448 320 396 Q 310 392 306 396 Q 303 397 303 406 Q 303 451 304 483 L 305 509 Z" fill="black" /></g></svg>