<?xml version='1.0' encoding='utf-8'?>
<svg xmlns="http://www.w3.org/2000/svg" version="1.1" viewBox="0 0 1024 1024"><g transform="scale(1, -1) translate(0, -900)"><path d="M 503 426 Q 749 460 785 453 Q 806 444 804 435 Q 804 431 777 369 Q 771 356 777 353 Q 784 349 799 360 Q 848 393 890 403 Q 924 413 923 421 Q 922 431 854 483 Q 833 501 755 488 Q 596 469 581 465 L 550 461 Q 471 452 367 437 Q 306 428 244 423 Q 243 423 244 422 C 214 418 217 403 245 393 Q 269 378 317 390 Q 440 424 459 419 L 503 426 Z" fill="black" /></g></svg>