<?xml version='1.0' encoding='utf-8'?>
<svg xmlns="http://www.w3.org/2000/svg" version="1.1" viewBox="0 0 1024 1024"><g transform="scale(1, -1) translate(0, -900)"><path d="M 888 404 Q 873 437 862 495 Q 861 510 853 514 Q 846 518 843 500 Q 827 431 815 419 Q 788 391 678 386 Q 617 387 591 397 Q 569 409 563 424 Q 559 440 560 482 L 563 500 Q 567 534 577 552 Q 589 580 571 595 Q 526 629 512 626 Q 499 620 505 605 Q 523 571 518 520 Q 512 417 537 385 Q 567 355 628 346 Q 680 339 766 342 Q 842 345 872 361 Q 899 376 888 404 Z" fill="black" /></g></svg>