<?xml version='1.0' encoding='utf-8'?>
<svg xmlns="http://www.w3.org/2000/svg" version="1.1" viewBox="0 0 1024 1024"><g transform="scale(1, -1) translate(0, -900)"><path d="M 458 249 Q 467 271 478 282 Q 488 289 485 298 Q 481 311 447 339 Q 437 349 426 345 Q 414 344 420 327 Q 427 306 419 284 Q 412 263 404 244 L 389 208 Q 373 174 357 152 Q 347 136 350 123 Q 353 113 369 110 Q 402 103 473 67 L 516 42 Q 568 9 642 -48 Q 666 -67 683 -67 Q 702 -66 703 -47 Q 702 -28 675 15 Q 663 37 553 81 L 504 99 Q 449 121 411 130 Q 392 134 403 151 Q 422 188 436 212 L 458 249 Z" fill="black" /></g></svg>