<?xml version='1.0' encoding='utf-8'?>
<svg xmlns="http://www.w3.org/2000/svg" version="1.1" viewBox="0 0 1024 1024"><g transform="scale(1, -1) translate(0, -900)"><path d="M 331 381 L 248 381 Q 220 381 235 398 Q 287 470 337 525 Q 349 536 349 544 Q 349 558 314 588 Q 302 601 284 600 Q 276 596 278 588 Q 282 564 278 545 Q 269 511 221 437 Q 206 414 176 390 Q 169 383 165 378 Q 156 364 176 334 Q 178 332 180 331 Q 184 327 196 331 Q 245 348 299 357 Q 312 359 316 359 C 346 362 361 381 331 381 Z" fill="black" /></g></svg>