<?xml version='1.0' encoding='utf-8'?>
<svg xmlns="http://www.w3.org/2000/svg" version="1.1" viewBox="0 0 1024 1024"><g transform="scale(1, -1) translate(0, -900)"><path d="M 604 332 Q 620 304 635 293 Q 647 283 666 305 Q 684 327 729 454 Q 741 487 768 512 Q 783 525 771 540 Q 756 559 712 591 Q 690 603 627 585 Q 537 567 417 541 Q 414 541 414 540 L 386 533 Q 340 524 302 516 C 273 510 293 476 322 485 Q 379 504 459 522 L 494 529 Q 644 566 669 549 Q 682 537 676 518 Q 637 377 615 364 C 598 342 598 342 604 332 Z" fill="black" /></g></svg>