<?xml version='1.0' encoding='utf-8'?>
<svg xmlns="http://www.w3.org/2000/svg" version="1.1" viewBox="0 0 1024 1024"><g transform="scale(1, -1) translate(0, -900)"><path d="M 461 499 Q 442 515 425 522 Q 407 529 398 523 Q 388 516 397 501 Q 445 411 422 144 Q 421 95 381 46 Q 371 31 377 9 Q 387 -16 401 -28 Q 414 -35 425 -19 Q 438 6 569 113 Q 587 125 592 134 Q 596 144 586 144 Q 577 144 483 98 Q 468 91 468 105 Q 474 211 474 299 L 474 326 Q 473 357 473 384 L 472 408 Q 472 441 477 469 C 479 485 479 485 461 499 Z" fill="black" /></g></svg>