<?xml version='1.0' encoding='utf-8'?>
<svg xmlns="http://www.w3.org/2000/svg" version="1.1" viewBox="0 0 1024 1024"><g transform="scale(1, -1) translate(0, -900)"><path d="M 228 494 Q 231 495 239 497 Q 258 503 278 509 Q 293 513 297 505 Q 301 492 303 473 Q 307 283 298 167 Q 297 143 289 133 Q 288 133 232 136 Q 216 140 217 132 Q 260 98 284 73 Q 294 58 307 54 Q 314 51 321 59 Q 349 95 351 157 Q 335 451 358 494 Q 368 510 359 518 Q 341 533 313 545 Q 298 552 286 546 Q 265 533 252 529 Q 239 525 212 519 C 183 512 199 486 228 494 Z" fill="black" /></g></svg>