<?xml version='1.0' encoding='utf-8'?>
<svg xmlns="http://www.w3.org/2000/svg" version="1.1" viewBox="0 0 1024 1024"><g transform="scale(1, -1) translate(0, -900)"><path d="M 410 371 Q 495 396 531 392 C 561 391 570 424 540 421 Q 476 416 423 404 L 381 396 Q 336 387 306 377 Q 296 376 300 388 Q 302 394 304 399 Q 316 441 314 455 Q 310 466 288 484 Q 280 492 272 490 Q 263 490 267 474 Q 274 440 265 408 Q 255 378 241 368 Q 216 348 251 323 Q 261 316 269 321 Q 283 337 361 359 L 410 371 Z" fill="black" /></g></svg>