<?xml version='1.0' encoding='utf-8'?>
<svg xmlns="http://www.w3.org/2000/svg" version="1.1" viewBox="0 0 1024 1024"><g transform="scale(1, -1) translate(0, -900)"><path d="M 587 485 Q 580 497 553 512 Q 541 522 533 516 Q 523 510 532 497 Q 545 472 534 433 Q 521 384 498 364 Q 486 351 491 339 Q 498 326 507 318 Q 517 311 535 325 Q 602 379 703 380 Q 745 380 753 360 Q 757 347 756 320 Q 747 116 700 55 Q 693 46 669 52 Q 638 64 611 73 Q 596 79 598 69 Q 599 56 614 44 Q 651 8 672 -25 Q 690 -47 711 -33 Q 786 36 794 115 Q 815 344 817 346 Q 818 353 824 361 Q 834 379 823 388 Q 810 404 780 417 Q 756 426 743 419 Q 718 410 593 379 Q 574 376 569 382 Q 566 385 569 392 Q 590 455 591 457 C 597 476 597 476 587 485 Z" fill="black" /></g></svg>