<?xml version='1.0' encoding='utf-8'?>
<svg xmlns="http://www.w3.org/2000/svg" version="1.1" viewBox="0 0 1024 1024"><g transform="scale(1, -1) translate(0, -900)"><path d="M 590 404 Q 639 414 696 422 Q 718 426 729 415 Q 736 411 740 371 Q 750 238 743 86 Q 742 64 734 57 Q 721 47 648 58 Q 632 59 634 51 Q 635 44 648 39 Q 712 0 748 -32 Q 767 -51 780 -48 Q 792 -44 802 -17 Q 815 26 813 89 Q 792 359 810 395 Q 822 416 811 427 Q 801 440 757 463 Q 738 472 720 468 Q 680 455 591 434 L 542 425 Q 476 415 410 406 C 380 402 396 363 425 369 Q 431 369 439 371 Q 488 384 542 394 L 590 404 Z" fill="black" /></g></svg>