<?xml version='1.0' encoding='utf-8'?>
<svg xmlns="http://www.w3.org/2000/svg" version="1.1" viewBox="0 0 1024 1024"><g transform="scale(1, -1) translate(0, -900)"><path d="M 391 527 Q 375 543 348 556 Q 330 566 318 562 Q 306 555 312 542 Q 324 523 326 469 Q 325 456 324 439 Q 320 390 313 343 L 307 308 Q 307 226 221 74 Q 215 67 211 58 Q 192 24 171 -7 Q 167 -13 164 -19 Q 161 -29 171 -27 Q 208 -21 279 94 Q 288 110 297 128 Q 351 240 379 434 Q 382 476 390 498 C 397 522 397 522 391 527 Z" fill="black" /></g></svg>