<?xml version='1.0' encoding='utf-8'?>
<svg xmlns="http://www.w3.org/2000/svg" version="1.1" viewBox="0 0 1024 1024"><g transform="scale(1, -1) translate(0, -900)"><path d="M 641 16 Q 657 -6 672 -15 Q 684 -24 700 -1 Q 715 21 746 145 Q 756 178 781 204 Q 794 217 783 232 Q 767 251 721 279 Q 700 289 683 283 Q 643 274 589 266 Q 519 256 429 241 Q 362 229 309 222 C 279 218 295 179 324 187 Q 382 203 467 216 L 509 223 Q 660 250 679 230 Q 691 215 688 201 Q 669 83 658 65 Q 654 53 640 49 C 624 36 624 36 641 16 Z" fill="black" /></g></svg>