<?xml version='1.0' encoding='utf-8'?>
<svg xmlns="http://www.w3.org/2000/svg" version="1.1" viewBox="0 0 1024 1024"><g transform="scale(1, -1) translate(0, -900)"><path d="M 334 151 Q 352 197 362 235 L 368 257 Q 375 288 384 324 L 388 346 Q 392 377 402 404 C 409 426 409 426 398 435 Q 397 438 394 439 Q 363 460 348 465 C 321 478 320 477 330 449 Q 330 448 332 444 Q 359 377 301 190 Q 249 67 143 -8 Q 128 -18 124 -24 Q 121 -30 133 -31 Q 167 -34 239 21 Q 287 61 321 120 L 334 151 Z" fill="black" /></g></svg>