<?xml version='1.0' encoding='utf-8'?>
<svg xmlns="http://www.w3.org/2000/svg" version="1.1" viewBox="0 0 1024 1024"><g transform="scale(1, -1) translate(0, -900)"><path d="M 435 420 Q 448 445 462 473 L 478 509 Q 488 536 502 564 L 523 606 Q 523 607 524 607 Q 534 623 521 637 Q 488 671 475 674 Q 457 677 464 654 Q 468 627 460 596 L 448 557 Q 439 535 425 502 L 409 465 Q 394 429 385 415 L 361 375 Q 274 255 144 204 Q 128 197 123 193 Q 119 189 129 185 Q 166 173 253 217 Q 349 268 416 384 L 435 420 Z" fill="black" /></g></svg>