<?xml version='1.0' encoding='utf-8'?>
<svg xmlns="http://www.w3.org/2000/svg" version="1.1" viewBox="0 0 1024 1024"><g transform="scale(1, -1) translate(0, -900)"><path d="M 652 46 Q 628 49 603 52 Q 584 56 585 47 Q 640 4 673 -29 Q 686 -48 702 -53 Q 712 -57 720 -47 Q 760 4 759 57 Q 735 289 761 331 Q 774 350 762 361 Q 741 380 705 396 Q 681 405 631 378 Q 556 360 503 356 Q 487 355 496 346 Q 505 336 519 329 Q 537 326 660 351 Q 679 355 685 346 Q 701 288 692 90 Q 691 59 680 46 Q 674 39 652 46 Z" fill="black" /></g></svg>