<?xml version='1.0' encoding='utf-8'?>
<svg xmlns="http://www.w3.org/2000/svg" version="1.1" viewBox="0 0 1024 1024"><g transform="scale(1, -1) translate(0, -900)"><path d="M 301 20 Q 291 21 283 19 Q 183 7 107 11 Q 94 11 93 0 Q 92 -12 109 -26 Q 149 -56 182 -48 Q 296 -5 657 14 Q 769 20 916 -1 Q 938 -4 945 4 Q 952 17 941 28 Q 913 56 872 76 Q 859 82 834 75 Q 789 62 728 57 Q 718 57 708 55 L 642 49 Q 591 46 545 42 L 514 40 Q 481 39 452 34 L 434 32 Q 385 31 344 24 L 301 20 Z" fill="black" /></g></svg>