<?xml version='1.0' encoding='utf-8'?>
<svg xmlns="http://www.w3.org/2000/svg" version="1.1" viewBox="0 0 1024 1024"><g transform="scale(1, -1) translate(0, -900)"><path d="M 416 358 Q 419 362 425 365 Q 519 434 588 497 L 640 547 Q 679 584 704 603 Q 714 610 711 628 Q 698 685 666 695 Q 650 699 650 679 Q 641 637 639 631 Q 608 585 563 534 L 522 493 Q 494 466 430 416 L 378 379 Q 368 373 359 366 Q 241 287 96 218 Q 89 215 86 209 Q 85 205 90 203 Q 99 202 109 204 Q 214 235 269 268 Q 324 296 379 333 L 416 358 Z" fill="black" /></g></svg>