<?xml version='1.0' encoding='utf-8'?>
<svg xmlns="http://www.w3.org/2000/svg" version="1.1" viewBox="0 0 1024 1024"><g transform="scale(1, -1) translate(0, -900)"><path d="M 594 3 Q 619 -30 639 -61 Q 646 -77 657 -76 Q 672 -75 685 -45 Q 701 -11 698 31 Q 692 70 685 142 Q 684 170 699 189 Q 708 201 699 210 Q 683 228 636 249 Q 620 258 606 249 Q 552 228 416 205 C 386 200 392 174 422 177 Q 440 177 588 204 Q 612 208 623 199 Q 632 190 633 35 L 633 33 Q 632 30 631 27 Q 624 34 612 37 Q 602 40 583 38 C 568 37 576 27 594 3 Z" fill="black" /></g></svg>