<?xml version='1.0' encoding='utf-8'?>
<svg xmlns="http://www.w3.org/2000/svg" version="1.1" viewBox="0 0 1024 1024"><g transform="scale(1, -1) translate(0, -900)"><path d="M 648 399 Q 721 411 853 399 Q 872 398 877 405 Q 884 415 873 426 Q 813 478 762 458 Q 711 448 659 437 L 597 429 Q 521 420 477 414 Q 425 408 383 401 L 339 395 Q 318 394 302 391 Q 238 379 139 377 Q 129 376 127 367 Q 127 357 142 345 Q 157 335 183 325 Q 192 322 206 329 Q 251 345 347 360 L 389 368 Q 398 371 590 394 L 648 399 Z" fill="black" /></g></svg>