<?xml version='1.0' encoding='utf-8'?>
<svg xmlns="http://www.w3.org/2000/svg" version="1.1" viewBox="0 0 1024 1024"><g transform="scale(1, -1) translate(0, -900)"><path d="M 566 315 Q 579 296 593 290 Q 603 283 617 302 Q 627 318 648 399 L 659 437 Q 668 458 684 474 Q 696 486 685 498 Q 672 514 633 538 Q 617 544 548 529 Q 547 529 434 506 Q 392 497 360 491 C 331 485 345 452 374 461 Q 441 482 562 500 Q 587 504 597 496 Q 607 484 605 472 Q 601 450 597 429 L 590 394 Q 578 352 567 345 C 555 329 555 329 566 315 Z" fill="black" /></g></svg>