<?xml version='1.0' encoding='utf-8'?>
<svg xmlns="http://www.w3.org/2000/svg" version="1.1" viewBox="0 0 1024 1024"><g transform="scale(1, -1) translate(0, -900)"><path d="M 577 169 Q 580 200 588 217 Q 598 245 580 260 Q 534 293 519 288 Q 506 282 513 267 Q 532 233 530 183 Q 530 44 560 14 Q 581 -7 642 -19 Q 694 -26 776 -25 Q 849 -22 879 -7 Q 906 5 896 32 Q 884 75 880 146 Q 880 161 873 166 Q 866 170 862 153 Q 838 68 824 53 Q 797 23 692 23 Q 634 24 608 34 Q 586 46 582 60 Q 566 105 575 150 L 577 169 Z" fill="black" /></g></svg>