<?xml version='1.0' encoding='utf-8'?>
<svg xmlns="http://www.w3.org/2000/svg" version="1.1" viewBox="0 0 1024 1024"><g transform="scale(1, -1) translate(0, -900)"><path d="M 446 187 Q 458 171 469 166 Q 478 159 492 178 Q 505 199 532 312 Q 539 339 560 360 Q 572 370 562 382 Q 549 397 512 420 Q 499 426 431 411 Q 419 411 404 405 L 371 398 Q 364 398 238 372 C 209 366 227 332 255 344 Q 259 350 337 365 L 369 371 Q 403 378 444 385 Q 471 389 479 381 Q 489 368 487 355 Q 468 247 458 231 Q 455 222 439 217 C 426 210 426 210 446 187 Z" fill="black" /></g></svg>