<?xml version='1.0' encoding='utf-8'?>
<svg xmlns="http://www.w3.org/2000/svg" version="1.1" viewBox="0 0 1024 1024"><g transform="scale(1, -1) translate(0, -900)"><path d="M 493 330 Q 515 336 541 339 Q 641 354 661 344 C 690 338 692 381 662 379 Q 473 366 331 332 Q 315 331 321 348 Q 325 370 332 392 Q 338 413 331 426 Q 319 442 300 456 Q 291 463 282 462 Q 272 459 277 442 Q 289 405 279 370 Q 272 336 256 323 Q 238 310 244 297 Q 253 282 267 272 Q 274 268 291 274 Q 310 292 450 322 L 493 330 Z" fill="black" /></g></svg>