<?xml version='1.0' encoding='utf-8'?>
<svg xmlns="http://www.w3.org/2000/svg" version="1.1" viewBox="0 0 1024 1024"><g transform="scale(1, -1) translate(0, -900)"><path d="M 485 221 Q 597 242 736 247 Q 755 246 764 235 Q 771 226 766 213 Q 762 72 751 52 Q 747 40 732 44 Q 699 48 665 55 Q 635 58 656 39 Q 728 -15 758 -54 Q 767 -67 779 -59 Q 806 -37 819 72 Q 823 183 845 210 Q 861 231 854 239 Q 847 252 795 286 Q 776 301 760 295 Q 732 283 677 275 Q 577 265 506 254 L 446 245 Q 394 238 364 230 Q 307 218 263 212 C 233 208 242 165 272 170 Q 285 169 300 174 Q 349 193 432 211 L 485 221 Z" fill="black" /></g></svg>