<?xml version='1.0' encoding='utf-8'?>
<svg xmlns="http://www.w3.org/2000/svg" version="1.1" viewBox="0 0 1024 1024"><g transform="scale(1, -1) translate(0, -900)"><path d="M 570 46 Q 582 65 587 163 L 586 196 Q 585 215 586 243 L 586 280 Q 586 298 587 318 L 588 358 Q 591 379 594 397 Q 597 412 585 419 Q 560 437 547 438 Q 546 439 542 439 C 513 445 504 447 520 423 Q 521 422 523 420 Q 524 416 529 410 Q 532 404 538 345 L 539 309 Q 539 291 540 271 L 540 237 Q 540 216 540 191 L 541 159 Q 542 71 553 50 C 562 25 562 25 570 46 Z" fill="black" /></g></svg>