<?xml version='1.0' encoding='utf-8'?>
<svg xmlns="http://www.w3.org/2000/svg" version="1.1" viewBox="0 0 1024 1024"><g transform="scale(1, -1) translate(0, -900)"><path d="M 573 473 Q 585 457 597 450 Q 606 443 620 461 Q 629 474 652 548 Q 659 575 680 596 Q 692 606 682 620 Q 669 635 632 658 Q 614 667 561 651 L 539 647 Q 493 640 434 629 Q 391 620 355 614 C 325 609 346 577 375 585 Q 442 604 563 622 Q 590 626 598 617 Q 605 608 604 599 Q 592 526 586 515 Q 582 505 571 502 C 557 492 557 492 573 473 Z" fill="black" /></g></svg>