<?xml version='1.0' encoding='utf-8'?>
<svg xmlns="http://www.w3.org/2000/svg" version="1.1" viewBox="0 0 1024 1024"><g transform="scale(1, -1) translate(0, -900)"><path d="M 407 122 Q 456 155 612 160 Q 642 163 654 151 Q 666 141 654 100 Q 642 37 632 26 Q 623 16 572 20 Q 542 26 543 19 Q 543 15 551 7 Q 591 -33 606 -62 Q 613 -80 630 -70 Q 673 -49 684 -12 Q 717 115 725 129 Q 726 133 730 137 Q 742 152 732 164 Q 716 183 682 204 Q 663 216 636 204 Q 633 204 559 188 L 525 184 Q 489 180 442 171 Q 424 164 419 178 Q 425 199 432 208 Q 439 220 436 231 Q 426 247 408 260 Q 395 269 386 264 Q 380 261 385 250 Q 385 202 369 165 Q 360 147 372 132 Q 388 113 407 122 Z" fill="black" /></g></svg>