<?xml version='1.0' encoding='utf-8'?>
<svg xmlns="http://www.w3.org/2000/svg" version="1.1" viewBox="0 0 1024 1024"><g transform="scale(1, -1) translate(0, -900)"><path d="M 667 288 Q 683 258 700 249 Q 710 242 726 261 Q 739 279 771 377 Q 780 408 804 431 Q 817 443 806 457 Q 791 473 751 500 Q 733 509 664 492 Q 633 489 602 481 L 551 471 Q 532 468 514 464 Q 468 454 425 446 C 396 440 418 407 447 415 Q 489 428 551 440 L 601 449 Q 694 471 714 456 Q 724 447 721 433 Q 694 321 680 311 C 666 289 666 289 667 288 Z" fill="black" /></g></svg>