<?xml version='1.0' encoding='utf-8'?>
<svg xmlns="http://www.w3.org/2000/svg" version="1.1" viewBox="0 0 1024 1024"><g transform="scale(1, -1) translate(0, -900)"><path d="M 548 164 Q 548 74 563 55 Q 567 48 575 50 Q 593 60 599 169 L 600 205 Q 601 229 599 281 L 599 317 Q 599 339 600 364 L 601 404 Q 601 426 601 449 L 602 481 Q 603 491 604 502 Q 604 512 605 519 L 611 562 Q 612 566 613 571 Q 616 587 603 596 Q 575 615 560 618 Q 548 622 534 615 Q 527 608 532 598 Q 548 571 551 548 L 552 509 Q 552 491 551 471 L 551 440 Q 551 416 551 388 L 551 354 Q 550 332 550 306 L 549 275 Q 549 239 548 200 L 548 164 Z" fill="black" /></g></svg>