<?xml version='1.0' encoding='utf-8'?>
<svg xmlns="http://www.w3.org/2000/svg" version="1.1" viewBox="0 0 1024 1024"><g transform="scale(1, -1) translate(0, -900)"><path d="M 503 334 Q 504 364 506 392 L 507 425 Q 508 447 510 469 L 511 506 L 513 550 L 514 577 Q 514 595 517 611 L 524 653 L 530 673 Q 533 683 515 695 Q 484 711 463 715 Q 450 718 442 710 Q 435 703 443 691 Q 464 661 465 637 L 466 602 Q 466 586 467 567 L 467 541 Q 468 519 468 494 L 468 461 Q 468 440 467 417 L 467 387 Q 466 359 466 326 C 466 296 502 304 503 334 Z" fill="black" /></g></svg>