<?xml version='1.0' encoding='utf-8'?>
<svg xmlns="http://www.w3.org/2000/svg" version="1.1" viewBox="0 0 1024 1024"><g transform="scale(1, -1) translate(0, -900)"><path d="M 618 404 Q 631 382 645 374 Q 654 367 669 385 Q 681 400 709 486 Q 719 514 741 537 Q 753 547 743 561 Q 730 577 691 602 Q 673 612 599 592 Q 553 588 514 577 L 467 567 Q 457 567 335 541 C 306 535 316 501 345 510 Q 394 526 467 541 L 513 550 Q 633 577 656 561 Q 666 554 662 540 Q 640 444 626 433 C 613 412 613 412 618 404 Z" fill="black" /></g></svg>