<?xml version='1.0' encoding='utf-8'?>
<svg xmlns="http://www.w3.org/2000/svg" version="1.1" viewBox="0 0 1024 1024"><g transform="scale(1, -1) translate(0, -900)"><path d="M 264 121 Q 324 160 252 241 Q 231 269 265 328 Q 275 352 308 380 Q 330 398 311 414 Q 290 430 256 445 Q 234 458 196 426 Q 121 384 99 385 Q 92 386 90 381 Q 89 375 97 371 Q 133 356 208 387 Q 215 391 224 383 Q 243 361 222 332 Q 206 313 194 283 Q 188 264 233 192 Q 246 161 247 121 C 248 108 248 108 264 121 Z" fill="black" /></g></svg>