<?xml version='1.0' encoding='utf-8'?>
<svg xmlns="http://www.w3.org/2000/svg" version="1.1" viewBox="0 0 1024 1024"><g transform="scale(1, -1) translate(0, -900)"><path d="M 490 358 Q 429 352 367 343 L 322 338 Q 234 331 141 318 Q 119 317 135 299 Q 148 286 167 279 Q 188 275 204 278 Q 265 294 333 307 L 372 313 Q 448 328 489 329 L 534 334 Q 592 341 663 343 L 713 345 Q 774 348 847 348 Q 928 345 935 356 Q 941 368 924 382 Q 866 425 793 405 Q 768 402 741 395 L 675 385 Q 609 376 534 364 L 490 358 Z" fill="black" /></g></svg>