<?xml version='1.0' encoding='utf-8'?>
<svg xmlns="http://www.w3.org/2000/svg" version="1.1" viewBox="0 0 1024 1024"><g transform="scale(1, -1) translate(0, -900)"><path d="M 567 656 Q 501 649 446 636 Q 394 626 355 620 C 325 615 343 582 372 591 Q 406 603 463 612 L 515 621 Q 647 642 664 633 Q 673 627 667 601 Q 646 502 633 480 C 625 461 625 461 631 452 L 632 451 Q 636 436 647 437 Q 660 438 667 451 Q 679 464 701 529 Q 717 575 751 600 Q 767 613 754 628 Q 738 644 695 669 Q 683 678 606 662 Q 603 662 582 658 L 567 656 Z" fill="black" /></g></svg>