<?xml version='1.0' encoding='utf-8'?>
<svg xmlns="http://www.w3.org/2000/svg" version="1.1" viewBox="0 0 1024 1024"><g transform="scale(1, -1) translate(0, -900)"><path d="M 639 44 Q 670 4 693 -32 Q 702 -50 713 -49 Q 728 -48 743 -16 Q 759 21 756 65 Q 750 120 742 226 Q 741 254 757 276 Q 766 288 757 297 Q 741 316 691 339 Q 673 348 659 339 Q 619 321 554 308 Q 539 307 526 302 L 488 296 Q 464 295 453 294 Q 450 295 449 293 C 419 290 455 261 485 264 Q 521 267 644 291 Q 666 295 677 286 Q 687 276 689 77 Q 688 73 688 67 Q 685 58 678 55 C 662 30 622 67 639 44 Z" fill="black" /></g></svg>