<?xml version='1.0' encoding='utf-8'?>
<svg xmlns="http://www.w3.org/2000/svg" version="1.1" viewBox="0 0 1024 1024"><g transform="scale(1, -1) translate(0, -900)"><path d="M 491 434 Q 490 398 490 358 L 489 329 Q 489 289 488 243 L 488 205 Q 488 172 487 137 L 487 103 Q 484 -57 503 -81 Q 507 -88 515 -85 Q 522 -82 526 -68 Q 541 -32 539 109 L 538 144 Q 538 168 535 212 L 535 250 Q 534 287 534 334 L 534 364 Q 534 400 534 440 L 534 471 Q 534 481 535 492 Q 535 511 537 526 L 542 562 Q 543 574 546 584 Q 549 600 536 608 Q 524 615 515 621 C 490 637 451 639 463 612 Q 463 611 465 609 Q 487 557 489 548 L 491 518 Q 491 493 491 463 L 491 434 Z" fill="black" /></g></svg>