<?xml version='1.0' encoding='utf-8'?>
<svg xmlns="http://www.w3.org/2000/svg" version="1.1" viewBox="0 0 1024 1024"><g transform="scale(1, -1) translate(0, -900)"><path d="M 661 293 Q 661 292 662 288 Q 663 273 675 272 Q 690 272 727 313 Q 749 356 787 378 Q 806 388 794 406 Q 781 424 740 454 Q 725 467 660 455 Q 543 449 405 426 Q 312 414 216 413 C 186 412 248 370 278 375 Q 282 375 289 376 Q 326 386 382 395 L 404 399 Q 458 409 531 416 L 572 420 Q 689 435 711 420 Q 717 416 709 397 Q 681 331 671 318 Q 670 318 670 317 C 659 298 659 298 661 293 Z" fill="black" /></g></svg>