<?xml version='1.0' encoding='utf-8'?>
<svg xmlns="http://www.w3.org/2000/svg" version="1.1" viewBox="0 0 1024 1024"><g transform="scale(1, -1) translate(0, -900)"><path d="M 593 490 Q 602 474 612 466 Q 619 459 636 475 Q 648 488 681 566 Q 691 591 714 611 Q 726 621 718 634 Q 705 650 671 676 Q 656 685 594 671 L 575 668 Q 574 669 571 668 Q 456 653 368 634 C 339 628 348 595 377 604 Q 377 605 378 605 Q 457 627 597 646 Q 628 650 638 640 Q 645 630 642 620 Q 617 544 609 532 Q 606 523 589 521 C 576 517 577 515 593 490 Z" fill="black" /></g></svg>