<?xml version='1.0' encoding='utf-8'?>
<svg xmlns="http://www.w3.org/2000/svg" version="1.1" viewBox="0 0 1024 1024"><g transform="scale(1, -1) translate(0, -900)"><path d="M 364 567 Q 409 546 440 555 Q 482 568 675 598 Q 708 602 720 587 Q 741 565 743 510 Q 750 341 740 231 Q 716 57 684 39 Q 674 33 600 50 Q 588 53 586 49 Q 582 42 600 27 Q 637 -13 654 -49 Q 676 -80 695 -74 Q 711 -70 733 -38 Q 764 2 784 79 Q 805 170 810 467 Q 810 545 830 571 Q 848 593 824 611 Q 749 659 712 646 Q 567 609 387 585 C 357 581 336 577 364 567 Z" fill="black" /></g></svg>