<?xml version='1.0' encoding='utf-8'?>
<svg xmlns="http://www.w3.org/2000/svg" version="1.1" viewBox="0 0 1024 1024"><g transform="scale(1, -1) translate(0, -900)"><path d="M 629 107 Q 752 -50 870 -62 Q 894 -58 886 -26 Q 876 4 868 144 Q 868 156 862 157 Q 858 157 854 145 Q 844 111 835 78 Q 822 35 807 35 Q 773 34 696 104 Q 681 120 665 138 L 636 176 Q 561 285 560 330 L 554 374 Q 554 386 557 396 Q 558 415 520 432 Q 481 448 470 444 Q 460 437 466 422 Q 488 401 501 361 L 513 323 Q 547 221 601 145 L 629 107 Z" fill="black" /></g></svg>