<?xml version='1.0' encoding='utf-8'?>
<svg xmlns="http://www.w3.org/2000/svg" version="1.1" viewBox="0 0 1024 1024"><g transform="scale(1, -1) translate(0, -900)"><path d="M 681 50 Q 645 54 611 60 Q 598 61 599 54 Q 600 47 612 40 Q 691 -20 720 -57 Q 736 -75 751 -59 Q 788 -20 782 52 Q 778 104 772 403 L 771 446 Q 771 530 781 562 Q 790 581 772 595 Q 744 617 714 626 Q 695 633 686 624 Q 680 617 691 602 Q 716 562 716 517 Q 717 477 719 437 L 720 398 Q 727 200 719 85 Q 718 61 706 53 Q 696 46 681 50 Z" fill="black" /></g></svg>