<?xml version='1.0' encoding='utf-8'?>
<svg xmlns="http://www.w3.org/2000/svg" version="1.1" viewBox="0 0 1024 1024"><g transform="scale(1, -1) translate(0, -900)"><path d="M 315 320 Q 322 316 344 311 Q 369 304 378 289 Q 387 267 339 141 Q 317 90 292 79 Q 280 76 251 84 Q 218 99 214 94 Q 210 85 225 75 Q 256 44 261 15 Q 265 -1 276 -6 Q 286 -12 318 7 Q 360 40 396 150 Q 421 243 444 260 Q 454 264 457 272 Q 458 279 439 305 Q 405 341 380 336 Q 377 336 332 347 C 303 354 287 330 315 320 Z" fill="black" /></g></svg>