<?xml version='1.0' encoding='utf-8'?>
<svg xmlns="http://www.w3.org/2000/svg" version="1.1" viewBox="0 0 1024 1024"><g transform="scale(1, -1) translate(0, -900)"><path d="M 638 445 Q 631 442 626 437 Q 601 419 574 401 L 564 396 Q 518 371 464 347 Q 437 340 457 336 Q 518 321 634 390 Q 707 436 774 505 Q 807 538 823 545 Q 836 552 833 565 Q 830 577 783 607 Q 773 614 749 607 Q 716 594 643 589 C 622 587 622 587 633 580 Q 649 564 678 566 Q 742 582 747 573 Q 748 560 719 524 Q 698 494 657 460 L 638 445 Z" fill="black" /></g></svg>