<?xml version='1.0' encoding='utf-8'?>
<svg xmlns="http://www.w3.org/2000/svg" version="1.1" viewBox="0 0 1024 1024"><g transform="scale(1, -1) translate(0, -900)"><path d="M 706 395 Q 627 383 545 369 Q 538 368 537 369 Q 536 370 540 375 Q 594 442 615 460 Q 625 470 619 477 Q 615 484 601 488 C 573 500 557 507 559 478 L 560 476 Q 563 440 513 389 Q 500 374 473 362 Q 454 353 453 346 Q 452 333 459 318 Q 466 305 476 300 Q 482 299 490 302 Q 559 347 717 381 C 746 387 736 400 706 395 Z" fill="black" /></g></svg>