<?xml version='1.0' encoding='utf-8'?>
<svg xmlns="http://www.w3.org/2000/svg" version="1.1" viewBox="0 0 1024 1024"><g transform="scale(1, -1) translate(0, -900)"><path d="M 211 548 Q 241 554 272 567 Q 285 574 292 567 Q 295 563 289 553 Q 253 486 272 458 Q 293 416 285 408 L 231 403 Q 209 404 233 391 Q 267 366 297 338 Q 306 328 316 336 Q 326 342 333 359 Q 340 375 332 405 Q 325 438 303 466 Q 285 490 300 506 Q 340 552 360 563 Q 378 573 369 586 Q 359 602 325 622 Q 303 631 269 602 Q 230 584 194 576 C 165 569 182 541 211 548 Z" fill="black" /></g></svg>