<?xml version='1.0' encoding='utf-8'?>
<svg xmlns="http://www.w3.org/2000/svg" version="1.1" viewBox="0 0 1024 1024"><g transform="scale(1, -1) translate(0, -900)"><path d="M 620 145 Q 578 109 508 90 Q 496 86 506 79 Q 510 76 538 78 Q 574 81 615 101 Q 634 111 652 124 L 686 160 Q 707 190 727 232 Q 737 256 754 270 Q 770 283 759 294 Q 749 304 723 314 Q 704 321 682 309 Q 660 300 634 291 L 602 281 Q 529 266 527 263 Q 524 257 539 251 Q 570 241 610 254 Q 658 273 667 274 Q 683 273 680 254 Q 668 208 647 176 L 620 145 Z" fill="black" /></g></svg>