<?xml version='1.0' encoding='utf-8'?>
<svg xmlns="http://www.w3.org/2000/svg" version="1.1" viewBox="0 0 1024 1024"><g transform="scale(1, -1) translate(0, -900)"><path d="M 349 353 Q 413 365 431 357 Q 441 354 447 333 Q 457 194 450 84 Q 449 62 436 58 Q 426 57 372 72 Q 362 76 362 69 Q 363 62 376 53 Q 409 23 434 -7 Q 447 -22 463 -21 Q 476 -18 493 21 Q 515 61 511 102 Q 504 199 498 289 Q 495 323 510 352 Q 520 367 508 380 Q 492 393 455 406 Q 436 416 420 404 Q 398 395 355 383 Q 351 382 349 381 L 310 373 Q 228 357 189 350 C 159 345 169 323 199 326 Q 212 326 231 330 Q 274 340 310 346 L 349 353 Z" fill="black" /></g></svg>