<?xml version='1.0' encoding='utf-8'?>
<svg xmlns="http://www.w3.org/2000/svg" version="1.1" viewBox="0 0 1024 1024"><g transform="scale(1, -1) translate(0, -900)"><path d="M 631 12 Q 640 -12 657 -51 Q 664 -69 675 -68 Q 690 -67 700 -42 Q 730 10 738 83 Q 745 128 753 180 Q 760 228 783 256 Q 799 275 788 288 Q 767 310 723 331 Q 705 341 673 331 Q 520 283 280 274 C 250 273 282 228 311 235 Q 344 247 643 285 Q 679 291 693 274 Q 714 235 673 56 Q 670 40 664 38 Q 663 38 661 38 C 645 12 626 26 631 12 Z" fill="black" /></g></svg>