<?xml version='1.0' encoding='utf-8'?>
<svg xmlns="http://www.w3.org/2000/svg" version="1.1" viewBox="0 0 1024 1024"><g transform="scale(1, -1) translate(0, -900)"><path d="M 506 607 Q 490 608 494 597 Q 501 584 525 573 Q 537 564 596 578 Q 722 617 742 586 Q 769 519 761 141 Q 760 111 759 78 Q 759 42 746 33 Q 730 23 653 42 Q 637 45 638 35 Q 639 28 652 22 Q 721 -24 756 -61 Q 778 -80 790 -77 Q 803 -74 813 -45 Q 829 0 827 66 Q 799 534 821 575 Q 833 597 822 609 Q 812 625 763 649 Q 744 658 724 653 Q 696 643 636 629 Q 573 616 506 607 Z" fill="black" /></g></svg>