<?xml version='1.0' encoding='utf-8'?>
<svg xmlns="http://www.w3.org/2000/svg" version="1.1" viewBox="0 0 1024 1024"><g transform="scale(1, -1) translate(0, -900)"><path d="M 249 520 Q 240 527 205 535 Q 192 536 187 532 Q 183 526 192 512 Q 226 472 219 362 Q 212 332 183 299 Q 173 290 179 273 Q 185 251 196 241 Q 205 234 216 245 Q 253 282 364 353 Q 377 359 380 366 Q 381 370 377 371 Q 370 372 281 343 Q 274 342 272 344 Q 269 345 269 353 Q 257 482 258 502 C 258 516 258 516 249 520 Z" fill="black" /></g></svg>