<?xml version='1.0' encoding='utf-8'?>
<svg xmlns="http://www.w3.org/2000/svg" version="1.1" viewBox="0 0 1024 1024"><g transform="scale(1, -1) translate(0, -900)"><path d="M 901 71 Q 888 96 866 170 Q 865 186 857 190 Q 850 193 847 175 Q 825 93 809 68 Q 754 17 604 19 Q 546 20 501 36 Q 461 52 452 75 Q 437 114 460 231 Q 466 258 424 274 Q 414 278 406 274 Q 400 271 404 255 Q 414 221 411 190 Q 404 88 411 60 Q 415 32 443 9 Q 533 -58 757 -25 Q 772 -21 790 -17 Q 844 -4 897 30 Q 915 46 901 71 Z" fill="black" /></g></svg>