<?xml version='1.0' encoding='utf-8'?>
<svg xmlns="http://www.w3.org/2000/svg" version="1.1" viewBox="0 0 1024 1024"><g transform="scale(1, -1) translate(0, -900)"><path d="M 604 7 Q 614 -17 634 -61 Q 641 -77 651 -76 Q 664 -75 674 -51 Q 695 -12 711 114 Q 715 159 738 186 Q 754 205 743 217 Q 724 236 680 257 Q 664 267 632 256 Q 515 219 336 209 C 306 207 328 168 358 172 Q 362 172 368 173 Q 411 180 469 189 L 505 194 Q 554 203 614 210 Q 641 214 652 201 Q 667 165 644 38 Q 643 25 638 24 Q 637 24 631 24 C 609 3 601 13 604 7 Z" fill="black" /></g></svg>