<?xml version='1.0' encoding='utf-8'?>
<svg xmlns="http://www.w3.org/2000/svg" version="1.1" viewBox="0 0 1024 1024"><g transform="scale(1, -1) translate(0, -900)"><path d="M 608 247 Q 621 226 633 218 Q 640 211 656 228 Q 665 238 691 303 Q 700 328 722 350 Q 734 360 725 373 Q 712 388 676 413 Q 661 422 596 408 Q 581 408 453 388 Q 399 378 355 373 C 325 369 345 331 373 343 Q 385 356 601 381 Q 632 385 642 374 Q 648 367 646 358 Q 631 294 626 284 Q 622 274 610 272 C 596 264 596 264 608 247 Z" fill="black" /></g></svg>