<?xml version='1.0' encoding='utf-8'?>
<svg xmlns="http://www.w3.org/2000/svg" version="1.1" viewBox="0 0 1024 1024"><g transform="scale(1, -1) translate(0, -900)"><path d="M 455 298 Q 567 320 571 319 Q 572 319 576 316 Q 580 312 581 294 Q 588 161 585 80 Q 584 58 577 48 L 516 57 Q 498 64 497 56 Q 543 13 568 -18 Q 578 -34 592 -38 Q 599 -42 607 -33 Q 644 12 639 82 Q 621 271 640 305 Q 650 321 640 330 Q 622 346 591 359 Q 576 365 564 360 Q 519 336 441 322 C 412 316 426 292 455 298 Z" fill="black" /></g></svg>