<?xml version='1.0' encoding='utf-8'?>
<svg xmlns="http://www.w3.org/2000/svg" version="1.1" viewBox="0 0 1024 1024"><g transform="scale(1, -1) translate(0, -900)"><path d="M 310 288 Q 310 132 286 69 Q 282 57 275 56 Q 257 53 211 68 Q 183 78 177 72 Q 174 66 184 54 Q 227 18 255 -16 Q 271 -41 282 -40 Q 288 -41 303 -27 Q 369 39 356 268 Q 349 388 311 451 L 282 492 Q 237 541 176 565 Q 163 572 159 561 Q 156 548 163 530 Q 172 511 189 509 Q 226 493 254 454 L 278 414 Q 285 402 295 375 L 310 288 Z" fill="black" /></g></svg>