<?xml version='1.0' encoding='utf-8'?>
<svg xmlns="http://www.w3.org/2000/svg" version="1.1" viewBox="0 0 1024 1024"><g transform="scale(1, -1) translate(0, -900)"><path d="M 505 219 Q 505 215 508 209 Q 520 170 517 133 Q 513 51 520 29 Q 524 1 550 -21 Q 646 -93 834 -57 Q 844 -54 856 -52 Q 902 -39 946 -7 Q 967 9 953 36 Q 940 63 921 144 Q 920 160 913 166 Q 907 170 902 151 Q 874 63 855 36 Q 839 18 794 7 Q 692 -18 607 13 Q 574 28 567 48 Q 552 78 573 181 Q 579 205 543 225 C 519 242 497 248 505 219 Z" fill="black" /></g></svg>