<?xml version='1.0' encoding='utf-8'?>
<svg xmlns="http://www.w3.org/2000/svg" version="1.1" viewBox="0 0 1024 1024"><g transform="scale(1, -1) translate(0, -900)"><path d="M 629 365 Q 630 362 631 359 Q 635 344 648 345 Q 661 346 669 360 Q 678 369 698 418 Q 714 467 750 496 Q 769 511 753 526 Q 737 542 689 569 Q 676 578 598 561 Q 541 552 526 548 L 478 539 Q 447 535 419 527 Q 355 514 308 506 C 278 501 307 462 335 473 Q 363 488 478 507 L 525 516 Q 639 538 659 527 Q 666 523 661 499 Q 642 414 633 393 L 629 365 Z" fill="black" /></g></svg>