<?xml version='1.0' encoding='utf-8'?>
<svg xmlns="http://www.w3.org/2000/svg" version="1.1" viewBox="0 0 1024 1024"><g transform="scale(1, -1) translate(0, -900)"><path d="M 534 533 Q 696 560 730 552 Q 746 546 744 536 Q 744 535 722 477 Q 713 464 719 460 Q 726 457 743 467 Q 792 497 830 504 Q 863 511 862 520 Q 861 530 795 580 Q 773 601 694 585 Q 628 578 538 563 L 490 556 Q 435 550 371 539 Q 317 530 263 525 C 233 522 237 501 266 495 Q 287 486 339 496 Q 427 523 491 526 L 534 533 Z" fill="black" /></g></svg>