<?xml version='1.0' encoding='utf-8'?>
<svg xmlns="http://www.w3.org/2000/svg" version="1.1" viewBox="0 0 1024 1024"><g transform="scale(1, -1) translate(0, -900)"><path d="M 741 484 Q 743 463 759 458 Q 776 458 813 509 Q 835 560 876 586 Q 898 600 882 617 Q 863 639 817 668 Q 800 683 715 663 Q 510 639 394 616 Q 308 600 231 591 C 201 587 212 550 242 554 Q 251 553 265 557 Q 338 575 371 582 L 400 588 Q 475 603 561 613 L 604 619 Q 759 643 787 627 Q 794 623 786 602 Q 760 528 750 510 Q 749 510 749 509 C 739 488 739 488 741 484 Z" fill="black" /></g></svg>