<?xml version='1.0' encoding='utf-8'?>
<svg xmlns="http://www.w3.org/2000/svg" version="1.1" viewBox="0 0 1024 1024"><g transform="scale(1, -1) translate(0, -900)"><path d="M 445 382 Q 442 409 415 424 L 374 440 Q 341 450 311 454 Q 302 455 301 466 Q 320 499 335 526 L 351 558 Q 361 580 373 596 Q 386 612 373 625 Q 334 665 323 663 Q 310 659 315 644 Q 324 617 307 552 L 293 516 Q 292 515 291 509 Q 284 487 267 469 Q 263 456 265 446 Q 269 436 283 433 Q 305 433 346 409 L 382 387 Q 395 380 411 368 Q 418 362 425 359 C 451 344 452 353 445 382 Z" fill="black" /></g></svg>