<?xml version='1.0' encoding='utf-8'?>
<svg xmlns="http://www.w3.org/2000/svg" version="1.1" viewBox="0 0 1024 1024"><g transform="scale(1, -1) translate(0, -900)"><path d="M 672 496 Q 681 527 689 548 L 713 596 Q 723 612 736 621 Q 751 637 738 654 Q 671 706 621 682 Q 582 669 545 657 L 492 646 Q 422 636 349 629 Q 336 628 336 619 Q 339 612 354 607 Q 376 597 406 607 Q 449 616 494 623 L 541 632 Q 638 653 651 642 Q 660 632 651 586 L 641 546 Q 634 524 627 500 C 618 471 663 467 672 496 Z" fill="black" /></g></svg>