<?xml version='1.0' encoding='utf-8'?>
<svg xmlns="http://www.w3.org/2000/svg" version="1.1" viewBox="0 0 1024 1024"><g transform="scale(1, -1) translate(0, -900)"><path d="M 484 219 Q 484 204 484 187 Q 478 -38 495 -61 Q 499 -68 507 -66 Q 522 -57 526 -4 Q 530 50 532 227 L 531 265 Q 530 335 533 450 L 534 481 Q 534 509 535 538 L 535 568 Q 535 569 536 572 Q 537 626 541 632 L 545 657 Q 546 667 549 675 Q 552 691 539 700 Q 509 719 496 722 Q 484 726 470 719 Q 461 712 468 702 Q 487 662 492 646 L 494 623 Q 497 614 494 563 L 494 533 Q 493 505 493 473 L 492 445 Q 489 360 486 256 L 484 219 Z" fill="black" /></g></svg>