<?xml version='1.0' encoding='utf-8'?>
<svg xmlns="http://www.w3.org/2000/svg" version="1.1" viewBox="0 0 1024 1024"><g transform="scale(1, -1) translate(0, -900)"><path d="M 763 161 Q 762 148 771 135 Q 781 110 790 111 Q 803 112 817 139 Q 830 161 829 179 Q 810 366 843 415 Q 852 430 845 438 Q 820 460 778 478 Q 765 482 743 475 Q 706 459 656 447 Q 652 446 649 445 L 611 437 Q 592 436 574 431 C 545 425 550 401 580 404 Q 587 403 596 405 Q 750 448 763 432 Q 776 416 775 360 Q 775 231 768 188 L 763 161 Z" fill="black" /></g></svg>