<?xml version='1.0' encoding='utf-8'?>
<svg xmlns="http://www.w3.org/2000/svg" version="1.1" viewBox="0 0 1024 1024"><g transform="scale(1, -1) translate(0, -900)"><path d="M 290 357 Q 200 251 179 241 Q 166 234 169 221 Q 169 208 192 190 Q 201 180 214 189 Q 266 223 367 254 Q 385 258 387 265 Q 390 275 372 272 Q 320 265 258 250 Q 234 243 250 261 Q 284 301 362 382 Q 390 415 414 432 Q 424 441 420 450 Q 413 468 383 486 Q 370 496 361 494 Q 351 491 353 477 Q 353 450 308 380 L 290 357 Z" fill="black" /></g></svg>