<?xml version='1.0' encoding='utf-8'?>
<svg xmlns="http://www.w3.org/2000/svg" version="1.1" viewBox="0 0 1024 1024"><g transform="scale(1, -1) translate(0, -900)"><path d="M 297 161 Q 290 82 286 74 Q 277 40 306 -5 Q 316 -23 323 -26 Q 333 -27 338 -16 Q 350 12 347 39 Q 346 109 346 171 L 346 211 Q 346 242 347 271 L 348 303 Q 348 327 350 345 L 353 380 Q 356 408 352 414 Q 336 429 322 436 C 296 452 280 457 294 430 Q 294 429 297 425 Q 306 410 306 368 L 307 338 Q 306 317 305 292 L 304 263 Q 304 242 301 201 L 297 161 Z" fill="black" /></g></svg>