<?xml version='1.0' encoding='utf-8'?>
<svg xmlns="http://www.w3.org/2000/svg" version="1.1" viewBox="0 0 1024 1024"><g transform="scale(1, -1) translate(0, -900)"><path d="M 403 279 Q 416 260 429 254 Q 438 248 450 266 Q 460 284 482 381 Q 489 406 507 428 Q 517 438 508 450 Q 495 463 459 485 Q 450 489 375 474 Q 372 474 371 473 Q 242 449 197 437 C 168 430 187 402 216 411 Q 247 421 294 430 L 322 436 Q 413 458 429 444 Q 438 434 437 422 Q 422 319 410 306 C 399 284 399 284 403 279 Z" fill="black" /></g></svg>