<?xml version='1.0' encoding='utf-8'?>
<svg xmlns="http://www.w3.org/2000/svg" version="1.1" viewBox="0 0 1024 1024"><g transform="scale(1, -1) translate(0, -900)"><path d="M 660 343 Q 675 321 689 314 Q 699 307 711 326 Q 724 348 747 465 Q 754 492 774 513 Q 784 523 775 536 Q 762 551 724 572 Q 708 579 693 574 Q 671 568 644 562 Q 607 555 560 543 Q 523 534 491 528 C 462 522 476 496 506 501 Q 510 501 516 502 Q 568 518 663 535 Q 684 539 691 532 Q 703 519 701 506 Q 686 401 671 371 C 660 343 660 343 660 343 Z" fill="black" /></g></svg>