<?xml version='1.0' encoding='utf-8'?>
<svg xmlns="http://www.w3.org/2000/svg" version="1.1" viewBox="0 0 1024 1024"><g transform="scale(1, -1) translate(0, -900)"><path d="M 618 15 Q 628 -10 648 -55 Q 657 -73 667 -72 Q 683 -71 693 -44 Q 715 -5 736 139 Q 743 188 766 217 Q 784 236 772 250 Q 750 272 704 295 Q 685 305 652 294 Q 513 249 308 239 C 278 237 304 193 333 200 Q 340 204 454 220 L 495 227 Q 556 237 627 246 Q 658 252 671 237 Q 690 203 661 55 Q 660 42 653 40 Q 649 37 629 49 Q 628 50 625 52 C 599 66 607 43 618 15 Z" fill="black" /></g></svg>