<?xml version='1.0' encoding='utf-8'?>
<svg xmlns="http://www.w3.org/2000/svg" version="1.1" viewBox="0 0 1024 1024"><g transform="scale(1, -1) translate(0, -900)"><path d="M 631 276 Q 644 257 657 250 Q 666 243 680 261 Q 689 274 712 348 Q 719 375 741 396 Q 753 406 743 420 Q 730 435 692 458 Q 679 465 610 451 Q 592 451 444 426 Q 386 416 339 410 C 309 406 320 370 348 380 Q 367 390 476 406 L 507 410 Q 634 434 658 417 Q 667 411 664 399 Q 651 318 640 307 C 627 281 627 281 631 276 Z" fill="black" /></g></svg>