<?xml version='1.0' encoding='utf-8'?>
<svg xmlns="http://www.w3.org/2000/svg" version="1.1" viewBox="0 0 1024 1024"><g transform="scale(1, -1) translate(0, -900)"><path d="M 544 225 Q 514 209 457 174 Q 448 170 445 173 Q 439 176 440 191 Q 441 261 442 316 L 442 339 Q 443 373 445 400 L 446 430 Q 446 478 450 492 C 452 509 452 509 439 516 Q 429 525 396 533 Q 381 534 377 530 Q 371 526 381 510 Q 420 458 404 241 Q 400 211 393 187 Q 387 157 357 122 Q 347 112 353 93 Q 360 69 373 59 Q 383 52 395 64 Q 434 113 554 211 C 577 230 570 239 544 225 Z" fill="black" /></g></svg>