<?xml version='1.0' encoding='utf-8'?>
<svg xmlns="http://www.w3.org/2000/svg" version="1.1" viewBox="0 0 1024 1024"><g transform="scale(1, -1) translate(0, -900)"><path d="M 559 287 Q 563 266 568 259 Q 572 253 578 255 Q 591 264 600 339 L 602 374 Q 603 387 603 399 Q 602 406 602 415 L 602 449 Q 603 468 604 494 L 605 523 Q 606 545 608 568 L 611 607 Q 611 608 612 609 Q 615 622 617 632 Q 620 647 609 655 Q 605 659 599 661 L 582 670 Q 576 674 571 675 Q 561 679 548 672 Q 541 666 546 657 Q 559 630 560 594 L 560 559 Q 559 540 559 515 L 558 486 Q 557 464 557 436 L 557 408 Q 557 387 556 363 L 556 332 Q 556 304 559 287 Z" fill="black" /></g></svg>