<?xml version='1.0' encoding='utf-8'?>
<svg xmlns="http://www.w3.org/2000/svg" version="1.1" viewBox="0 0 1024 1024"><g transform="scale(1, -1) translate(0, -900)"><path d="M 415 200 Q 419 200 446 218 Q 470 228 478 222 Q 482 219 478 158 Q 477 109 462 64 Q 449 40 487 0 Q 496 -9 503 -3 Q 509 3 516 22 Q 544 71 605 158 Q 612 168 610 174 Q 609 180 600 171 Q 567 140 534 106 Q 513 84 515 113 Q 515 192 545 225 Q 555 232 547 243 Q 540 256 508 271 Q 498 275 484 267 Q 460 252 406 235 C 377 226 388 187 415 200 Z" fill="black" /></g></svg>