<?xml version='1.0' encoding='utf-8'?>
<svg xmlns="http://www.w3.org/2000/svg" version="1.1" viewBox="0 0 1024 1024"><g transform="scale(1, -1) translate(0, -900)"><path d="M 288 433 Q 321 541 337 560 Q 349 579 343 590 Q 331 606 292 632 Q 274 642 260 636 Q 248 630 257 616 Q 278 577 242 425 L 231 383 Q 222 347 206 322 Q 196 301 240 270 Q 264 252 286 231 L 315 203 Q 369 149 374 147 Q 381 147 387 156 Q 394 165 390 192 Q 387 222 343 246 L 308 266 Q 287 279 259 293 Q 243 303 245 321 Q 260 358 275 396 L 288 433 Z" fill="black" /></g></svg>