<?xml version='1.0' encoding='utf-8'?>
<svg xmlns="http://www.w3.org/2000/svg" version="1.1" viewBox="0 0 1024 1024"><g transform="scale(1, -1) translate(0, -900)"><path d="M 646 27 Q 612 34 577 43 Q 567 44 567 39 Q 568 33 577 26 Q 647 -28 673 -62 Q 686 -77 699 -64 Q 730 -30 726 58 Q 723 133 723 192 L 732 236 Q 732 239 734 241 Q 741 257 727 268 Q 705 287 680 296 Q 664 302 658 296 Q 652 290 662 277 Q 675 255 678 227 L 679 190 Q 680 102 677 54 Q 676 35 666 29 Q 659 22 646 27 Z" fill="black" /></g></svg>