<?xml version='1.0' encoding='utf-8'?>
<svg xmlns="http://www.w3.org/2000/svg" version="1.1" viewBox="0 0 1024 1024"><g transform="scale(1, -1) translate(0, -900)"><path d="M 628 13 Q 638 -15 663 -66 Q 672 -85 683 -84 Q 699 -81 710 -54 Q 732 -12 749 113 Q 761 207 786 238 Q 805 259 792 273 Q 770 295 722 319 Q 703 329 669 319 Q 516 271 281 262 C 251 261 278 217 307 223 Q 332 232 636 271 Q 672 274 685 260 Q 692 256 693 235 Q 692 142 675 51 Q 674 36 667 34 C 656 6 617 41 628 13 Z" fill="black" /></g></svg>