<?xml version='1.0' encoding='utf-8'?>
<svg xmlns="http://www.w3.org/2000/svg" version="1.1" viewBox="0 0 1024 1024"><g transform="scale(1, -1) translate(0, -900)"><path d="M 612 379 Q 625 354 640 346 Q 650 339 665 357 Q 675 370 705 454 Q 715 482 737 503 Q 750 513 740 527 Q 727 543 689 569 Q 674 578 606 563 Q 594 563 330 521 C 300 516 321 486 350 493 Q 399 506 469 518 L 500 522 Q 624 550 652 530 Q 662 523 658 510 Q 639 428 632 415 Q 628 405 615 402 C 603 394 603 394 612 379 Z" fill="black" /></g></svg>