<?xml version='1.0' encoding='utf-8'?>
<svg xmlns="http://www.w3.org/2000/svg" version="1.1" viewBox="0 0 1024 1024"><g transform="scale(1, -1) translate(0, -900)"><path d="M 231 263 Q 232 269 235 274 Q 247 314 255 353 L 260 383 Q 261 393 264 405 Q 274 471 279 480 C 285 501 285 501 277 508 Q 264 521 242 532 Q 226 542 215 538 Q 205 532 209 521 Q 243 457 177 235 Q 174 226 171 217 Q 140 139 79 54 Q 75 50 72 44 Q 71 35 79 36 Q 116 45 183 152 Q 186 159 191 166 Q 204 194 217 225 L 231 263 Z" fill="black" /></g></svg>