<?xml version='1.0' encoding='utf-8'?>
<svg xmlns="http://www.w3.org/2000/svg" version="1.1" viewBox="0 0 1024 1024"><g transform="scale(1, -1) translate(0, -900)"><path d="M 620 484 Q 620 483 621 480 Q 624 465 635 464 Q 648 464 656 476 Q 663 480 682 504 Q 701 550 736 573 Q 755 585 742 601 Q 727 617 685 646 Q 672 655 608 643 Q 485 628 427 617 Q 360 605 317 600 C 287 596 314 562 343 569 Q 346 569 350 570 Q 380 580 426 587 L 447 591 Q 484 598 535 605 L 569 609 Q 638 621 656 611 Q 660 607 656 589 Q 634 526 627 511 C 618 489 618 489 620 484 Z" fill="black" /></g></svg>