<?xml version='1.0' encoding='utf-8'?>
<svg xmlns="http://www.w3.org/2000/svg" version="1.1" viewBox="0 0 1024 1024"><g transform="scale(1, -1) translate(0, -900)"><path d="M 234 527 Q 268 536 308 555 Q 324 565 335 555 Q 339 551 332 537 Q 317 509 305 479 Q 292 455 306 436 Q 354 370 341 356 Q 337 349 321 350 Q 302 351 280 351 Q 258 352 282 338 Q 324 313 361 283 Q 373 273 384 284 Q 396 291 401 313 Q 411 361 353 428 Q 317 464 363 509 Q 390 545 407 554 Q 426 566 416 579 Q 403 597 368 615 Q 349 622 335 612 Q 283 570 218 555 C 189 547 205 519 234 527 Z" fill="black" /></g></svg>