<?xml version='1.0' encoding='utf-8'?>
<svg xmlns="http://www.w3.org/2000/svg" version="1.1" viewBox="0 0 1024 1024"><g transform="scale(1, -1) translate(0, -900)"><path d="M 662 386 Q 678 355 692 346 Q 701 337 717 356 Q 726 365 752 417 Q 762 445 786 468 Q 799 478 789 492 Q 776 508 738 536 Q 720 546 654 529 Q 623 526 605 520 L 562 513 Q 502 507 478 498 L 435 489 Q 395 483 363 478 Q 347 477 352 466 Q 356 456 374 449 Q 383 446 439 458 L 476 466 Q 513 476 559 484 L 599 491 Q 686 506 704 494 Q 710 490 707 480 Q 691 414 673 404 C 660 390 660 390 662 386 Z" fill="black" /></g></svg>