<?xml version='1.0' encoding='utf-8'?>
<svg xmlns="http://www.w3.org/2000/svg" version="1.1" viewBox="0 0 1024 1024"><g transform="scale(1, -1) translate(0, -900)"><path d="M 899 54 Q 886 76 865 147 Q 864 162 857 166 Q 851 169 848 152 Q 826 76 811 51 Q 801 38 768 28 Q 693 7 626 34 Q 583 56 580 124 Q 580 146 581 169 L 584 196 Q 587 229 593 264 Q 597 280 585 290 Q 572 303 551 310 Q 538 314 531 309 Q 524 305 530 288 Q 543 252 541 217 Q 537 81 548 44 Q 554 20 575 2 Q 644 -55 800 -30 Q 810 -27 823 -24 Q 860 -12 895 15 Q 911 31 899 54 Z" fill="black" /></g></svg>