<?xml version='1.0' encoding='utf-8'?>
<svg xmlns="http://www.w3.org/2000/svg" version="1.1" viewBox="0 0 1024 1024"><g transform="scale(1, -1) translate(0, -900)"><path d="M 664 509 Q 664 506 666 501 Q 669 488 679 488 Q 694 491 720 534 Q 736 576 766 598 Q 782 611 770 624 Q 757 639 717 662 Q 708 669 631 657 Q 570 657 429 634 Q 348 624 289 622 C 259 621 301 580 330 589 Q 329 590 331 590 Q 368 600 427 609 L 445 611 Q 491 618 550 623 L 582 627 Q 607 631 640 632 Q 677 633 691 626 Q 695 622 692 605 Q 677 553 671 534 L 664 509 Z" fill="black" /></g></svg>