<?xml version='1.0' encoding='utf-8'?>
<svg xmlns="http://www.w3.org/2000/svg" version="1.1" viewBox="0 0 1024 1024"><g transform="scale(1, -1) translate(0, -900)"><path d="M 585 3 Q 610 -28 628 -58 Q 635 -73 645 -72 Q 658 -71 672 -43 Q 687 -12 684 29 Q 678 77 671 166 Q 670 193 684 212 Q 691 222 684 232 Q 668 248 623 269 Q 607 276 594 269 Q 548 248 478 235 C 449 229 399 196 429 198 Q 450 197 583 224 Q 602 227 612 220 Q 622 211 624 39 Q 623 35 623 31 Q 619 15 603 22 L 602 22 C 572 22 570 22 585 3 Z" fill="black" /></g></svg>