<?xml version='1.0' encoding='utf-8'?>
<svg xmlns="http://www.w3.org/2000/svg" version="1.1" viewBox="0 0 1024 1024"><g transform="scale(1, -1) translate(0, -900)"><path d="M 664 317 Q 668 304 679 304 Q 698 307 728 364 Q 746 412 781 437 Q 800 450 785 466 Q 769 482 725 509 Q 710 518 646 506 Q 625 505 536 493 L 491 487 Q 460 484 433 478 Q 348 465 296 461 Q 293 462 290 461 C 260 459 302 422 331 428 Q 335 428 341 429 Q 393 445 491 456 L 536 462 Q 671 483 695 469 Q 702 465 697 443 Q 691 424 665 343 C 658 322 658 322 664 317 Z" fill="black" /></g></svg>