<?xml version='1.0' encoding='utf-8'?>
<svg xmlns="http://www.w3.org/2000/svg" version="1.1" viewBox="0 0 1024 1024"><g transform="scale(1, -1) translate(0, -900)"><path d="M 529 189 Q 529 208 530 225 L 530 263 Q 530 282 532 301 L 532 332 Q 533 401 536 462 L 536 493 Q 537 520 538 539 L 541 574 Q 545 590 538 598 Q 525 610 512 618 C 487 635 459 636 472 609 Q 487 579 489 566 L 491 534 Q 491 524 491 487 L 491 456 Q 491 407 490 325 L 490 296 Q 489 277 489 256 L 488 221 Q 488 203 488 183 C 488 153 529 159 529 189 Z" fill="black" /></g></svg>