<?xml version='1.0' encoding='utf-8'?>
<svg xmlns="http://www.w3.org/2000/svg" version="1.1" viewBox="0 0 1024 1024"><g transform="scale(1, -1) translate(0, -900)"><path d="M 264 437 Q 307 449 345 453 Q 358 454 361 451 Q 365 444 365 427 Q 364 378 353 356 Q 340 334 321 338 Q 309 339 299 344 Q 281 351 293 332 Q 315 301 323 278 Q 333 265 345 274 Q 384 298 409 409 Q 415 437 426 450 Q 436 460 431 468 Q 424 477 385 494 Q 370 501 355 491 Q 339 481 280 468 Q 222 453 170 450 Q 157 449 155 443 Q 154 437 172 428 Q 190 416 205 422 L 235 430 L 264 437 Z" fill="black" /></g></svg>