<?xml version='1.0' encoding='utf-8'?>
<svg xmlns="http://www.w3.org/2000/svg" version="1.1" viewBox="0 0 1024 1024"><g transform="scale(1, -1) translate(0, -900)"><path d="M 745 279 Q 761 251 776 242 Q 786 233 802 253 Q 821 281 862 433 Q 872 463 896 485 Q 909 497 899 510 Q 886 528 845 555 Q 826 565 812 560 Q 781 553 735 546 Q 678 539 605 526 Q 544 516 495 509 C 465 505 496 473 525 480 Q 561 490 611 497 L 659 506 Q 788 527 806 513 Q 822 500 816 478 Q 780 336 767 315 Q 763 303 749 301 C 736 293 736 293 745 279 Z" fill="black" /></g></svg>