<?xml version='1.0' encoding='utf-8'?>
<svg xmlns="http://www.w3.org/2000/svg" version="1.1" viewBox="0 0 1024 1024"><g transform="scale(1, -1) translate(0, -900)"><path d="M 562 226 Q 566 245 573 294 Q 583 406 592 420 Q 599 430 600 436 Q 601 443 584 453 Q 565 465 555 466 Q 548 467 505 457 Q 483 450 478 455 Q 475 458 482 489 Q 486 510 492 524 L 500 548 Q 510 578 511 578 Q 510 588 492 601 Q 470 613 454 615 Q 441 616 438 610 Q 437 606 441 601 Q 459 576 442 469 Q 433 456 434 449 Q 433 439 439 428 Q 443 418 449 415 Q 456 414 466 421 Q 481 431 508 433 Q 533 437 541 432 Q 548 425 545 398 Q 535 280 528 268 Q 516 255 526 223 C 533 194 556 197 562 226 Z" fill="black" /></g></svg>