<?xml version='1.0' encoding='utf-8'?>
<svg xmlns="http://www.w3.org/2000/svg" version="1.1" viewBox="0 0 1024 1024"><g transform="scale(1, -1) translate(0, -900)"><path d="M 351 238 Q 351 268 352 300 L 352 342 Q 352 370 353 399 L 353 438 Q 353 441 354 444 Q 354 469 355 491 L 361 538 Q 364 559 370 576 Q 377 589 375 601 Q 369 608 322 638 Q 303 651 285 639 Q 281 635 286 621 Q 313 582 313 522 L 314 481 Q 314 454 315 425 L 315 390 Q 314 362 313 330 L 312 225 Q 312 123 292 52 Q 283 22 304 -33 Q 310 -48 317 -51 Q 321 -57 328 -50 Q 335 -46 343 -28 Q 352 -7 351 19 Q 350 47 351 212 L 351 238 Z" fill="black" /></g></svg>