<?xml version='1.0' encoding='utf-8'?>
<svg xmlns="http://www.w3.org/2000/svg" version="1.1" viewBox="0 0 1024 1024"><g transform="scale(1, -1) translate(0, -900)"><path d="M 694 35 Q 719 2 739 -29 Q 746 -45 757 -44 Q 772 -43 785 -13 Q 801 21 798 63 Q 792 120 785 226 Q 784 254 798 273 Q 805 285 798 293 Q 782 311 734 331 Q 718 338 705 331 Q 671 312 615 298 Q 575 289 551 283 C 522 276 527 248 556 254 Q 566 255 696 285 Q 714 289 723 283 Q 748 252 733 65 Q 729 47 713 56 L 712 56 C 682 56 678 57 694 35 Z" fill="black" /></g></svg>