<?xml version='1.0' encoding='utf-8'?>
<svg xmlns="http://www.w3.org/2000/svg" version="1.1" viewBox="0 0 1024 1024"><g transform="scale(1, -1) translate(0, -900)"><path d="M 277 585 Q 268 591 254 598 Q 236 607 230 600 Q 224 594 230 582 Q 263 521 240 320 Q 236 301 225 280 Q 218 267 225 251 Q 232 235 241 228 Q 250 221 263 232 Q 317 280 498 297 Q 517 298 516 307 Q 515 319 492 332 Q 479 341 413 321 L 372 313 Q 338 309 300 296 Q 293 295 290 296 Q 287 297 286 305 Q 286 333 287 365 L 287 393 Q 288 421 289 452 L 289 475 Q 290 496 290 516 Q 290 540 292 554 C 294 575 294 575 277 585 Z" fill="black" /></g></svg>