<?xml version='1.0' encoding='utf-8'?>
<svg xmlns="http://www.w3.org/2000/svg" version="1.1" viewBox="0 0 1024 1024"><g transform="scale(1, -1) translate(0, -900)"><path d="M 360 529 Q 345 544 317 555 Q 301 564 289 559 Q 279 552 285 540 Q 300 513 302 460 Q 301 454 301 445 Q 301 438 300 430 L 300 400 Q 299 357 294 317 L 290 293 Q 272 179 185 20 Q 181 14 179 8 Q 178 -2 187 1 Q 211 5 276 112 Q 285 131 295 153 Q 343 274 355 475 Q 356 485 358 496 C 362 526 363 527 360 529 Z" fill="black" /></g></svg>