<?xml version='1.0' encoding='utf-8'?>
<svg xmlns="http://www.w3.org/2000/svg" version="1.1" viewBox="0 0 1024 1024"><g transform="scale(1, -1) translate(0, -900)"><path d="M 298 237 Q 292 111 275 57 Q 266 26 286 -26 Q 290 -39 297 -43 Q 303 -47 308 -42 Q 315 -38 323 -21 Q 332 -2 331 24 Q 331 58 337 319 L 338 355 Q 338 382 340 409 L 342 451 Q 342 478 344 500 L 351 546 Q 354 565 360 582 Q 367 595 365 606 Q 359 613 315 642 Q 296 655 279 644 Q 275 640 280 627 Q 304 587 306 532 L 306 491 Q 306 466 306 438 L 305 400 Q 304 373 302 345 L 298 237 Z" fill="black" /></g></svg>