<?xml version='1.0' encoding='utf-8'?>
<svg xmlns="http://www.w3.org/2000/svg" version="1.1" viewBox="0 0 1024 1024"><g transform="scale(1, -1) translate(0, -900)"><path d="M 651 180 Q 652 232 653 280 L 653 308 Q 654 345 655 378 L 656 412 Q 657 442 658 470 L 659 506 Q 662 557 659 562 Q 650 569 641 576 C 617 594 590 596 603 569 Q 607 560 612 551 Q 618 533 619 494 L 619 462 Q 618 440 618 403 L 617 374 Q 616 343 616 301 L 615 271 Q 615 226 615 169 C 615 139 650 150 651 180 Z" fill="black" /></g></svg>