<?xml version='1.0' encoding='utf-8'?>
<svg xmlns="http://www.w3.org/2000/svg" version="1.1" viewBox="0 0 1024 1024"><g transform="scale(1, -1) translate(0, -900)"><path d="M 653 280 Q 714 293 794 299 Q 812 298 820 288 Q 827 281 824 268 Q 830 88 819 62 Q 816 55 806 56 Q 775 60 741 67 Q 717 68 735 53 Q 802 10 832 -25 Q 844 -38 855 -26 Q 882 4 880 120 Q 874 246 888 272 Q 901 291 895 297 Q 888 309 843 335 Q 827 347 776 329 Q 715 320 653 308 L 616 301 Q 573 295 550 288 Q 510 278 480 274 Q 479 274 479 273 C 450 267 470 235 500 240 Q 510 239 524 244 Q 557 257 615 271 L 653 280 Z" fill="black" /></g></svg>