<?xml version='1.0' encoding='utf-8'?>
<svg xmlns="http://www.w3.org/2000/svg" version="1.1" viewBox="0 0 1024 1024"><g transform="scale(1, -1) translate(0, -900)"><path d="M 372 249 Q 368 531 378 554 Q 390 572 380 582 Q 362 598 331 610 Q 315 617 302 610 Q 281 597 268 592 Q 255 588 228 581 C 199 573 207 548 236 554 Q 258 557 295 571 Q 311 575 316 568 Q 338 484 322 156 Q 313 107 312 103 Q 308 100 245 115 Q 229 121 229 112 Q 277 69 304 38 Q 316 22 328 17 Q 335 14 343 22 Q 376 67 377 125 Q 373 177 372 237 L 372 249 Z" fill="black" /></g></svg>