<?xml version='1.0' encoding='utf-8'?>
<svg xmlns="http://www.w3.org/2000/svg" version="1.1" viewBox="0 0 1024 1024"><g transform="scale(1, -1) translate(0, -900)"><path d="M 572 425 Q 581 452 590 480 L 602 520 Q 614 572 627 606 Q 634 621 620 632 Q 593 653 580 657 C 569 663 569 663 567 658 Q 557 657 565 640 Q 577 603 553 508 L 544 471 Q 543 470 543 467 Q 537 445 526 419 L 507 382 Q 455 304 383 256 Q 376 253 372 249 C 354 238 354 238 372 237 Q 421 228 508 312 Q 518 325 530 338 Q 545 362 559 392 L 572 425 Z" fill="black" /></g></svg>