<?xml version='1.0' encoding='utf-8'?>
<svg xmlns="http://www.w3.org/2000/svg" version="1.1" viewBox="0 0 1024 1024"><g transform="scale(1, -1) translate(0, -900)"><path d="M 482 486 Q 510 490 546 493 Q 559 494 560 500 Q 561 510 548 519 Q 526 529 491 521 L 444 512 Q 398 505 362 496 L 328 489 Q 288 483 258 476 L 221 471 Q 193 468 179 466 Q 121 459 72 455 Q 62 454 59 448 Q 56 439 68 430 Q 99 406 133 416 Q 185 431 229 442 L 264 450 Q 315 463 328 463 L 362 469 Q 396 476 437 480 L 482 486 Z" fill="black" /></g></svg>