<?xml version='1.0' encoding='utf-8'?>
<svg xmlns="http://www.w3.org/2000/svg" version="1.1" viewBox="0 0 1024 1024"><g transform="scale(1, -1) translate(0, -900)"><path d="M 408 411 Q 421 389 433 383 Q 440 377 452 393 Q 462 409 482 486 L 491 521 Q 498 537 511 551 Q 520 561 512 571 Q 500 583 469 602 Q 450 611 379 588 Q 375 587 372 585 L 324 574 Q 303 573 241 553 C 212 544 219 517 247 527 Q 280 539 326 549 L 367 559 Q 433 574 444 566 Q 454 559 451 543 Q 447 527 444 512 L 437 480 Q 428 447 423 434 C 413 406 403 418 408 411 Z" fill="black" /></g></svg>