<?xml version='1.0' encoding='utf-8'?>
<svg xmlns="http://www.w3.org/2000/svg" version="1.1" viewBox="0 0 1024 1024"><g transform="scale(1, -1) translate(0, -900)"><path d="M 609 280 Q 600 287 586 294 Q 576 301 567 296 Q 560 290 568 279 Q 581 258 574 225 Q 567 182 548 165 Q 538 153 542 142 Q 549 132 558 125 Q 567 118 582 132 Q 660 195 737 175 Q 758 171 752 125 Q 743 31 704 -10 Q 695 -19 671 -10 Q 653 -9 639 -9 Q 624 -6 627 -15 Q 631 -25 644 -35 Q 669 -57 684 -78 Q 697 -93 711 -82 Q 760 -49 776 11 Q 807 146 815 156 Q 825 171 816 180 Q 806 195 780 208 Q 762 215 696 198 Q 618 182 613 185 Q 610 186 612 193 Q 616 215 622 240 Q 623 247 624 253 C 627 269 627 269 609 280 Z" fill="black" /></g></svg>