<?xml version='1.0' encoding='utf-8'?>
<svg xmlns="http://www.w3.org/2000/svg" version="1.1" viewBox="0 0 1024 1024"><g transform="scale(1, -1) translate(0, -900)"><path d="M 627 7 Q 636 -15 655 -57 Q 662 -73 670 -72 Q 683 -71 692 -48 Q 717 -3 733 136 Q 739 176 758 201 Q 773 217 763 229 Q 745 248 706 266 Q 690 276 663 266 Q 561 233 400 219 C 370 216 377 182 407 186 Q 411 186 418 187 Q 455 194 505 202 L 541 208 Q 587 218 644 225 Q 668 229 679 218 Q 697 188 666 37 Q 665 24 659 22 Q 658 22 652 22 C 629 3 625 11 627 7 Z" fill="black" /></g></svg>