<?xml version='1.0' encoding='utf-8'?>
<svg xmlns="http://www.w3.org/2000/svg" version="1.1" viewBox="0 0 1024 1024"><g transform="scale(1, -1) translate(0, -900)"><path d="M 435 127 Q 432 31 422 17 Q 391 16 358 12 Q 397 -16 419 -39 Q 429 -52 441 -56 Q 448 -59 454 -51 Q 481 -18 481 43 Q 478 97 478 167 L 477 233 Q 477 320 488 340 Q 497 353 488 362 Q 472 375 446 387 Q 434 393 379 368 Q 364 364 340 357 L 315 354 Q 306 354 299 351 C 269 346 284 326 314 331 Q 324 331 413 353 Q 425 357 432 350 Q 438 344 438 199 L 435 127 Z" fill="black" /></g></svg>