<?xml version='1.0' encoding='utf-8'?>
<svg xmlns="http://www.w3.org/2000/svg" version="1.1" viewBox="0 0 1024 1024"><g transform="scale(1, -1) translate(0, -900)"><path d="M 419 537 Q 437 543 528 552 L 564 556 Q 744 581 794 572 Q 806 568 803 560 Q 803 557 771 497 Q 761 484 767 480 Q 774 476 791 486 Q 843 514 886 520 Q 920 524 920 535 Q 919 544 857 596 Q 841 612 816 611 Q 734 601 632 588 Q 592 584 545 578 L 533 577 Q 457 570 366 557 Q 306 548 246 543 C 216 540 210 530 238 518 Q 262 503 286 509 Q 337 522 393 533 L 419 537 Z" fill="black" /></g></svg>