<?xml version='1.0' encoding='utf-8'?>
<svg xmlns="http://www.w3.org/2000/svg" version="1.1" viewBox="0 0 1024 1024"><g transform="scale(1, -1) translate(0, -900)"><path d="M 340 166 Q 344 176 350 184 Q 357 190 354 197 Q 350 206 326 223 C 302 241 290 248 299 219 Q 300 218 301 216 Q 307 201 296 158 L 285 123 Q 275 96 263 78 Q 256 65 258 55 Q 261 48 274 46 Q 302 39 332 22 L 366 3 Q 403 -19 456 -62 Q 475 -77 489 -76 Q 505 -76 505 -61 Q 504 -45 482 -12 Q 467 12 394 34 L 354 48 Q 327 58 307 62 Q 291 65 299 80 Q 314 113 323 132 L 340 166 Z" fill="black" /></g></svg>