<?xml version='1.0' encoding='utf-8'?>
<svg xmlns="http://www.w3.org/2000/svg" version="1.1" viewBox="0 0 1024 1024"><g transform="scale(1, -1) translate(0, -900)"><path d="M 662 431 Q 674 413 685 406 Q 692 399 708 416 Q 721 432 754 531 Q 764 556 785 577 Q 797 587 788 600 Q 775 616 739 641 Q 727 648 656 634 Q 646 634 553 616 Q 519 609 493 604 C 464 598 471 565 500 573 Q 561 591 673 607 Q 695 610 706 602 Q 716 593 712 579 Q 687 485 678 472 Q 674 462 660 460 C 645 454 645 454 662 431 Z" fill="black" /></g></svg>