<?xml version='1.0' encoding='utf-8'?>
<svg xmlns="http://www.w3.org/2000/svg" version="1.1" viewBox="0 0 1024 1024"><g transform="scale(1, -1) translate(0, -900)"><path d="M 529 547 Q 700 574 734 565 Q 749 558 747 552 Q 747 549 711 485 Q 704 473 709 468 Q 716 464 731 474 Q 786 504 829 511 Q 863 518 864 527 Q 863 536 799 590 Q 778 611 690 595 Q 591 586 532 575 L 480 569 Q 432 565 378 556 Q 326 549 272 545 Q 269 545 268 544 C 238 541 245 527 273 516 Q 297 503 322 508 Q 416 535 481 541 L 529 547 Z" fill="black" /></g></svg>