<?xml version='1.0' encoding='utf-8'?>
<svg xmlns="http://www.w3.org/2000/svg" version="1.1" viewBox="0 0 1024 1024"><g transform="scale(1, -1) translate(0, -900)"><path d="M 770 182 Q 771 173 778 162 Q 790 137 798 139 Q 811 140 824 168 Q 837 190 835 208 Q 811 385 844 436 Q 853 449 846 459 Q 821 480 780 497 Q 767 501 746 494 Q 707 479 642 464 L 608 458 Q 592 457 576 454 C 546 449 552 425 582 427 Q 589 427 598 428 Q 751 468 764 452 Q 777 436 777 382 Q 781 231 773 201 Q 772 201 772 200 C 769 185 769 185 770 182 Z" fill="black" /></g></svg>