<?xml version='1.0' encoding='utf-8'?>
<svg xmlns="http://www.w3.org/2000/svg" version="1.1" viewBox="0 0 1024 1024"><g transform="scale(1, -1) translate(0, -900)"><path d="M 651 186 Q 651 185 652 184 Q 656 172 667 173 Q 677 174 684 186 Q 691 196 708 243 Q 721 285 751 309 Q 766 322 753 334 Q 738 347 698 369 Q 685 378 620 363 Q 595 363 480 343 Q 437 336 406 330 C 377 324 385 290 413 302 Q 420 311 514 322 L 548 327 Q 653 345 671 333 Q 678 329 674 308 Q 662 238 651 204 C 647 191 647 191 651 186 Z" fill="black" /></g></svg>