<?xml version='1.0' encoding='utf-8'?>
<svg xmlns="http://www.w3.org/2000/svg" version="1.1" viewBox="0 0 1024 1024"><g transform="scale(1, -1) translate(0, -900)"><path d="M 261 319 Q 273 319 289 323 Q 353 333 363 328 Q 373 325 376 304 Q 389 145 381 22 Q 380 -3 365 -7 Q 355 -8 308 8 Q 298 11 298 5 Q 299 -2 311 -11 Q 341 -39 363 -68 Q 376 -83 390 -82 Q 405 -78 423 -36 Q 445 7 441 52 Q 432 157 424 254 Q 420 291 436 323 Q 446 336 433 348 Q 418 361 385 372 Q 370 379 324 360 Q 279 350 255 342 C 226 333 231 316 261 319 Z" fill="black" /></g></svg>