<?xml version='1.0' encoding='utf-8'?>
<svg xmlns="http://www.w3.org/2000/svg" version="1.1" viewBox="0 0 1024 1024"><g transform="scale(1, -1) translate(0, -900)"><path d="M 489 145 Q 489 76 473 24 Q 466 -4 483 -41 Q 487 -53 492 -55 Q 496 -59 501 -54 Q 519 -42 519 -1 Q 518 21 520 182 L 521 212 Q 521 258 522 315 L 523 340 Q 524 362 527 381 L 534 412 Q 534 415 535 415 Q 541 425 539 434 Q 535 440 499 462 Q 484 474 470 463 Q 467 460 471 450 Q 487 425 490 399 L 491 373 Q 491 355 492 335 L 492 310 Q 492 304 493 297 Q 492 254 490 206 L 489 145 Z" fill="black" /></g></svg>