<?xml version='1.0' encoding='utf-8'?>
<svg xmlns="http://www.w3.org/2000/svg" version="1.1" viewBox="0 0 1024 1024"><g transform="scale(1, -1) translate(0, -900)"><path d="M 275 124 Q 294 145 285 188 Q 279 206 257 243 Q 239 282 270 332 Q 291 366 308 384 Q 327 400 310 415 Q 292 428 261 442 Q 240 454 205 424 Q 136 387 116 388 Q 109 388 107 383 Q 106 379 114 375 Q 147 360 217 390 Q 224 393 232 385 Q 251 363 230 337 Q 185 292 226 219 Q 247 174 251 151 Q 252 133 250 125 C 247 95 259 99 275 124 Z" fill="black" /></g></svg>