<?xml version='1.0' encoding='utf-8'?>
<svg xmlns="http://www.w3.org/2000/svg" version="1.1" viewBox="0 0 1024 1024"><g transform="scale(1, -1) translate(0, -900)"><path d="M 687 235 Q 684 247 680 256 L 672 272 Q 635 323 582 340 C 533 358 534 351 587 313 Q 591 312 596 307 L 632 274 Q 635 271 638 266 L 654 221 Q 660 191 646 138 Q 640 116 633 112 Q 626 108 608 109 Q 548 124 548 116 Q 547 110 557 101 Q 603 64 622 40 Q 632 27 644 29 Q 657 33 669 53 Q 702 116 694 200 L 687 235 Z" fill="black" /></g></svg>