<?xml version='1.0' encoding='utf-8'?>
<svg xmlns="http://www.w3.org/2000/svg" version="1.1" viewBox="0 0 1024 1024"><g transform="scale(1, -1) translate(0, -900)"><path d="M 615 194 Q 618 184 627 184 Q 642 187 669 230 Q 685 270 716 292 Q 732 302 720 316 Q 707 331 669 355 Q 660 361 586 350 Q 571 350 523 340 L 492 335 Q 468 334 447 328 Q 396 319 358 314 C 328 310 350 274 377 286 Q 384 295 492 310 L 522 315 Q 628 333 643 323 Q 649 319 644 302 Q 625 238 618 225 Q 615 222 614 218 C 606 203 606 203 615 194 Z" fill="black" /></g></svg>