<?xml version='1.0' encoding='utf-8'?>
<svg xmlns="http://www.w3.org/2000/svg" version="1.1" viewBox="0 0 1024 1024"><g transform="scale(1, -1) translate(0, -900)"><path d="M 422 406 Q 426 437 434 481 L 444 513 Q 453 534 470 547 Q 482 559 471 569 Q 458 579 423 596 Q 411 602 376 592 Q 346 589 293 574 C 264 566 276 543 305 552 Q 306 553 309 553 Q 313 556 324 556 L 338 559 Q 389 571 399 566 Q 409 560 406 527 Q 405 517 402 505 L 398 477 Q 394 443 390 418 L 380 374 Q 377 364 381 354 Q 385 344 394 345 Q 397 345 414 371 L 422 406 Z" fill="black" /></g></svg>