<?xml version='1.0' encoding='utf-8'?>
<svg xmlns="http://www.w3.org/2000/svg" version="1.1" viewBox="0 0 1024 1024"><g transform="scale(1, -1) translate(0, -900)"><path d="M 673 346 Q 689 258 728 162 L 743 126 Q 789 27 861 -34 Q 912 -80 937 -81 Q 955 -78 950 -53 Q 946 -14 950 95 Q 951 117 943 118 Q 936 118 929 99 Q 919 72 908 51 Q 898 29 889 28 Q 879 27 857 45 Q 811 91 775 155 L 756 197 Q 737 243 710 351 L 702 390 Q 678 513 688 594 Q 698 628 652 645 Q 624 658 606 651 Q 590 645 598 629 Q 637 595 637 568 Q 650 462 666 381 L 673 346 Z" fill="black" /></g></svg>