<?xml version='1.0' encoding='utf-8'?>
<svg xmlns="http://www.w3.org/2000/svg" version="1.1" viewBox="0 0 1024 1024"><g transform="scale(1, -1) translate(0, -900)"><path d="M 662 509 Q 665 497 675 496 Q 687 496 695 507 Q 702 510 721 532 Q 740 575 774 596 Q 792 608 780 623 Q 767 639 726 667 Q 714 676 627 662 Q 623 662 594 658 L 579 656 Q 501 649 434 635 Q 364 623 316 618 C 286 615 308 574 336 584 Q 340 590 416 602 L 439 607 Q 484 617 541 623 L 581 628 Q 680 643 701 631 Q 705 627 700 611 Q 690 584 666 536 C 656 516 656 516 662 509 Z" fill="black" /></g></svg>