<?xml version='1.0' encoding='utf-8'?>
<svg xmlns="http://www.w3.org/2000/svg" version="1.1" viewBox="0 0 1024 1024"><g transform="scale(1, -1) translate(0, -900)"><path d="M 402 83 Q 435 29 440 28 Q 449 28 457 48 Q 470 85 467 132 Q 457 360 466 388 Q 473 407 463 414 Q 456 424 425 439 Q 407 448 358 428 L 328 421 Q 307 417 286 412 Q 283 412 283 411 L 249 405 Q 215 401 175 397 C 145 394 162 370 192 374 Q 202 374 248 385 L 282 392 Q 303 396 327 399 L 355 402 Q 361 403 368 404 Q 395 407 403 397 Q 412 387 413 279 L 413 266 Q 419 143 409 125 Q 405 118 397 119 C 385 110 386 109 402 83 Z" fill="black" /></g></svg>