<?xml version='1.0' encoding='utf-8'?>
<svg xmlns="http://www.w3.org/2000/svg" version="1.1" viewBox="0 0 1024 1024"><g transform="scale(1, -1) translate(0, -900)"><path d="M 532 374 Q 529 317 552 301 Q 601 267 711 294 Q 735 301 759 316 Q 772 328 761 345 Q 751 358 735 400 Q 734 410 728 413 Q 724 416 722 403 Q 707 354 697 339 Q 690 332 670 326 Q 622 317 590 324 Q 577 330 574 337 Q 568 350 567 383 L 570 416 Q 571 438 578 463 Q 582 476 573 484 Q 566 491 557 496 C 532 513 518 517 526 488 Q 526 487 527 484 Q 539 450 533 405 L 532 374 Z" fill="black" /></g></svg>