<?xml version='1.0' encoding='utf-8'?>
<svg xmlns="http://www.w3.org/2000/svg" version="1.1" viewBox="0 0 1024 1024"><g transform="scale(1, -1) translate(0, -900)"><path d="M 762 452 Q 752 473 743 509 Q 742 522 737 526 Q 731 530 727 514 Q 709 474 700 468 Q 693 459 670 452 Q 586 436 541 453 Q 525 460 521 472 Q 518 481 518 499 L 523 538 Q 524 554 531 562 Q 540 584 524 598 Q 484 626 473 622 Q 461 618 467 604 Q 479 580 481 527 L 481 491 Q 484 451 507 431 Q 541 404 668 405 Q 725 406 748 418 Q 770 428 762 452 Z" fill="black" /></g></svg>