<?xml version='1.0' encoding='utf-8'?>
<svg xmlns="http://www.w3.org/2000/svg" version="1.1" viewBox="0 0 1024 1024"><g transform="scale(1, -1) translate(0, -900)"><path d="M 743 400 Q 730 428 717 477 Q 716 490 709 494 Q 702 498 700 481 Q 687 421 677 411 Q 670 401 649 394 Q 576 373 530 385 Q 514 392 510 401 Q 504 417 505 456 L 509 493 Q 512 517 519 530 Q 529 555 513 569 Q 471 599 459 595 Q 446 591 453 576 Q 465 554 466 482 L 466 448 Q 466 382 495 362 Q 529 337 654 345 Q 709 349 731 362 Q 753 375 743 400 Z" fill="black" /></g></svg>