<?xml version='1.0' encoding='utf-8'?>
<svg xmlns="http://www.w3.org/2000/svg" version="1.1" viewBox="0 0 1024 1024"><g transform="scale(1, -1) translate(0, -900)"><path d="M 904 -9 Q 929 1 918 26 Q 899 72 896 144 Q 895 163 889 168 Q 882 172 878 159 Q 850 51 829 35 Q 814 22 776 16 Q 682 6 628 70 Q 604 122 642 221 Q 655 252 677 267 Q 702 286 674 299 Q 659 306 627 318 Q 605 327 584 312 Q 560 296 506 275 Q 488 268 474 263 C 446 253 445 230 474 237 Q 504 244 571 263 Q 581 267 586 265 Q 590 259 581 179 Q 566 43 624 3 Q 655 -19 698 -35 Q 794 -68 904 -9 Z" fill="black" /></g></svg>