<?xml version='1.0' encoding='utf-8'?>
<svg xmlns="http://www.w3.org/2000/svg" version="1.1" viewBox="0 0 1024 1024"><g transform="scale(1, -1) translate(0, -900)"><path d="M 470 508 Q 470 451 495 429 Q 550 387 673 411 Q 677 414 682 414 Q 710 423 736 443 Q 751 456 738 475 Q 728 488 708 531 Q 707 543 700 546 Q 696 547 694 534 Q 679 485 669 468 Q 662 458 637 452 Q 585 437 537 455 Q 519 464 514 475 Q 508 488 507 518 L 509 557 Q 510 579 516 605 Q 520 620 510 628 Q 507 631 504 633 C 483 654 457 653 463 624 Q 469 602 470 545 L 470 508 Z" fill="black" /></g></svg>