<?xml version='1.0' encoding='utf-8'?>
<svg xmlns="http://www.w3.org/2000/svg" version="1.1" viewBox="0 0 1024 1024"><g transform="scale(1, -1) translate(0, -900)"><path d="M 732 437 Q 722 450 707 494 Q 706 506 700 509 Q 696 512 693 499 Q 674 450 663 434 Q 654 425 632 419 Q 581 407 542 419 Q 526 426 523 434 Q 517 447 517 481 L 522 520 Q 523 535 528 549 Q 532 564 522 572 Q 512 582 493 590 Q 483 593 475 589 Q 469 586 474 572 Q 484 539 482 509 L 480 472 Q 477 412 500 393 Q 557 350 676 382 Q 703 389 729 407 Q 742 419 732 437 Z" fill="black" /></g></svg>