<?xml version='1.0' encoding='utf-8'?>
<svg xmlns="http://www.w3.org/2000/svg" version="1.1" viewBox="0 0 1024 1024"><g transform="scale(1, -1) translate(0, -900)"><path d="M 608 307 Q 627 311 664 322 Q 674 325 676 322 Q 680 318 677 295 Q 659 171 687 146 Q 735 101 836 120 Q 867 126 888 143 Q 898 150 894 163 Q 878 203 869 253 Q 862 281 852 254 Q 839 190 825 179 Q 818 167 783 163 Q 746 157 719 173 Q 706 185 711 240 Q 715 280 755 320 Q 767 332 752 345 Q 731 360 702 369 Q 683 375 671 363 Q 649 347 605 331 C 577 320 579 300 608 307 Z" fill="black" /></g></svg>