<?xml version='1.0' encoding='utf-8'?>
<svg xmlns="http://www.w3.org/2000/svg" version="1.1" viewBox="0 0 1024 1024"><g transform="scale(1, -1) translate(0, -900)"><path d="M 557 496 Q 641 517 721 531 Q 751 538 754 526 Q 754 514 733 471 Q 724 458 732 453 Q 738 449 751 460 Q 821 500 847 508 Q 869 511 868 522 Q 867 535 797 573 Q 776 583 750 576 Q 666 552 595 535 Q 585 534 574 531 L 541 524 Q 484 517 418 503 C 389 497 392 463 422 466 Q 435 466 455 471 Q 489 481 526 488 L 557 496 Z" fill="black" /></g></svg>