<?xml version='1.0' encoding='utf-8'?>
<svg xmlns="http://www.w3.org/2000/svg" version="1.1" viewBox="0 0 1024 1024"><g transform="scale(1, -1) translate(0, -900)"><path d="M 476 273 Q 397 263 328 261 Q 309 261 304 251 Q 303 242 328 228 Q 355 209 377 216 Q 422 226 465 235 L 523 245 Q 596 258 658 264 Q 683 265 689 258 Q 696 245 690 210 Q 677 114 653 74 Q 632 40 603 47 Q 573 57 548 68 Q 523 78 540 52 Q 586 3 608 -33 Q 624 -55 643 -39 Q 706 -3 743 152 Q 755 228 778 253 Q 793 266 787 278 Q 777 291 722 319 Q 700 331 678 317 Q 648 301 538 283 L 476 273 Z" fill="black" /></g></svg>