<?xml version='1.0' encoding='utf-8'?>
<svg xmlns="http://www.w3.org/2000/svg" version="1.1" viewBox="0 0 1024 1024"><g transform="scale(1, -1) translate(0, -900)"><path d="M 625 165 Q 616 11 648 -20 Q 711 -68 843 -45 Q 847 -42 853 -42 Q 883 -33 913 -12 Q 931 4 916 27 Q 903 48 881 112 Q 880 125 873 130 Q 867 131 865 116 Q 847 43 833 21 Q 826 11 801 5 Q 747 -10 698 11 Q 680 20 675 32 Q 654 74 681 213 Q 687 243 638 263 Q 625 267 617 262 Q 610 258 616 241 Q 628 202 625 165 Z" fill="black" /></g></svg>