<?xml version='1.0' encoding='utf-8'?>
<svg xmlns="http://www.w3.org/2000/svg" version="1.1" viewBox="0 0 1024 1024"><g transform="scale(1, -1) translate(0, -900)"><path d="M 389 116 Q 382 67 362 31 Q 341 9 379 -27 Q 389 -37 406 -25 Q 476 27 684 22 Q 718 22 759 17 Q 781 13 790 18 Q 797 24 792 36 Q 786 49 749 72 Q 728 84 703 80 Q 678 76 642 73 Q 542 66 445 46 Q 433 42 431 46 Q 421 53 425 74 Q 426 101 428 123 L 432 159 Q 436 207 444 231 C 451 260 451 260 444 267 Q 443 268 442 269 Q 423 290 392 299 Q 379 303 371 295 Q 365 289 376 274 Q 397 241 393 154 L 389 116 Z" fill="black" /></g></svg>