<?xml version='1.0' encoding='utf-8'?>
<svg xmlns="http://www.w3.org/2000/svg" version="1.1" viewBox="0 0 1024 1024"><g transform="scale(1, -1) translate(0, -900)"><path d="M 784 406 Q 777 422 765 473 Q 766 485 761 489 Q 757 493 752 479 Q 724 427 710 411 Q 700 401 669 393 Q 600 378 547 398 Q 526 408 522 421 Q 516 434 517 455 L 522 495 Q 523 513 529 533 Q 533 549 524 558 Q 512 570 492 578 Q 480 582 472 578 Q 466 575 470 559 Q 480 523 478 490 Q 477 486 477 482 L 475 443 Q 472 394 499 370 Q 563 318 708 345 Q 709 346 713 346 Q 746 356 778 377 Q 793 387 784 406 Z" fill="black" /></g></svg>