<?xml version='1.0' encoding='utf-8'?>
<svg xmlns="http://www.w3.org/2000/svg" version="1.1" viewBox="0 0 1024 1024"><g transform="scale(1, -1) translate(0, -900)"><path d="M 491 298 Q 487 124 505 69 Q 511 44 535 22 Q 619 -41 794 -12 Q 810 -8 828 -3 Q 871 10 914 42 Q 935 58 920 85 Q 907 109 885 185 Q 884 201 877 206 Q 870 209 866 191 Q 839 109 822 82 Q 809 66 769 53 Q 676 29 596 58 Q 565 71 556 91 Q 529 143 540 309 L 545 356 Q 548 384 553 415 Q 557 434 544 444 Q 531 457 505 467 Q 492 471 482 466 Q 475 462 481 442 Q 491 409 493 343 L 491 298 Z" fill="black" /></g></svg>