<?xml version='1.0' encoding='utf-8'?>
<svg xmlns="http://www.w3.org/2000/svg" version="1.1" viewBox="0 0 1024 1024"><g transform="scale(1, -1) translate(0, -900)"><path d="M 660 221 Q 653 97 663 61 Q 666 42 685 24 Q 748 -28 896 -5 Q 900 -2 906 -2 Q 939 8 971 31 Q 989 44 977 68 Q 965 93 951 174 Q 951 189 945 194 Q 939 197 935 181 Q 907 96 889 70 Q 879 58 852 52 Q 792 37 738 58 Q 717 68 712 81 Q 691 126 718 271 Q 724 302 674 323 Q 661 327 652 322 Q 645 318 650 300 Q 663 260 660 221 Z" fill="black" /></g></svg>