<?xml version='1.0' encoding='utf-8'?>
<svg xmlns="http://www.w3.org/2000/svg" version="1.1" viewBox="0 0 1024 1024"><g transform="scale(1, -1) translate(0, -900)"><path d="M 472 645 Q 673 684 709 678 Q 728 674 726 663 Q 726 660 701 601 Q 694 588 699 584 Q 706 581 722 592 Q 770 623 809 633 Q 840 642 840 650 Q 839 660 773 709 Q 749 730 631 703 Q 597 702 528 685 L 489 679 Q 440 672 384 661 Q 344 654 306 647 C 276 642 288 605 318 608 Q 328 608 338 610 Q 392 629 452 641 L 472 645 Z" fill="black" /></g></svg>