<?xml version='1.0' encoding='utf-8'?>
<svg xmlns="http://www.w3.org/2000/svg" version="1.1" viewBox="0 0 1024 1024"><g transform="scale(1, -1) translate(0, -900)"><path d="M 493 629 Q 554 642 648 655 Q 712 665 730 662 Q 746 658 745 649 Q 745 643 706 575 Q 699 563 703 560 Q 710 557 725 566 Q 776 602 817 614 Q 851 624 851 634 Q 850 643 789 689 Q 767 710 659 686 Q 620 683 536 665 L 494 658 Q 451 652 404 642 Q 361 635 320 628 C 290 623 308 588 338 593 Q 345 593 354 595 Q 406 613 464 624 L 493 629 Z" fill="black" /></g></svg>