<?xml version='1.0' encoding='utf-8'?>
<svg xmlns="http://www.w3.org/2000/svg" version="1.1" viewBox="0 0 1024 1024"><g transform="scale(1, -1) translate(0, -900)"><path d="M 177 441 Q 186 419 177 388 Q 164 348 145 333 Q 132 321 136 309 Q 142 296 151 289 Q 161 280 178 294 Q 215 333 261 332 Q 279 333 285 325 Q 295 312 289 278 Q 273 158 231 121 Q 224 115 164 132 Q 145 141 146 129 Q 147 117 161 105 Q 188 75 201 49 Q 216 30 234 40 Q 294 79 307 132 Q 349 300 356 309 Q 366 325 358 335 Q 348 351 320 365 Q 298 377 241 354 Q 214 345 212 347 Q 211 348 213 354 Q 237 411 231 422 Q 227 435 201 451 C 177 468 171 470 177 441 Z" fill="black" /></g></svg>