<?xml version='1.0' encoding='utf-8'?>
<svg xmlns="http://www.w3.org/2000/svg" version="1.1" viewBox="0 0 1024 1024"><g transform="scale(1, -1) translate(0, -900)"><path d="M 710 531 Q 703 541 686 572 Q 686 582 680 585 Q 676 588 674 575 Q 649 527 618 514 Q 594 508 566 505 Q 544 504 526 508 Q 511 512 509 520 Q 506 529 505 551 L 509 584 Q 513 620 508 625 Q 498 635 482 641 Q 472 644 466 641 Q 462 638 465 625 Q 472 600 472 575 L 470 543 Q 470 498 489 484 Q 546 454 652 480 Q 653 481 656 481 Q 681 488 707 505 Q 719 515 710 531 Z" fill="black" /></g></svg>