<?xml version='1.0' encoding='utf-8'?>
<svg xmlns="http://www.w3.org/2000/svg" version="1.1" viewBox="0 0 1024 1024"><g transform="scale(1, -1) translate(0, -900)"><path d="M 319 597 Q 335 594 350 598 Q 420 622 625 656 Q 686 665 701 663 Q 720 653 719 643 Q 719 639 696 573 Q 690 560 697 557 Q 704 554 717 566 Q 763 603 803 619 Q 836 632 834 641 Q 833 650 765 694 Q 746 707 725 703 Q 664 693 589 679 Q 564 676 536 671 L 497 664 Q 448 658 392 647 Q 349 640 308 633 C 278 628 289 599 319 597 Z" fill="black" /></g></svg>