<?xml version='1.0' encoding='utf-8'?>
<svg xmlns="http://www.w3.org/2000/svg" version="1.1" viewBox="0 0 1024 1024"><g transform="scale(1, -1) translate(0, -900)"><path d="M 739 336 Q 820 343 925 344 Q 944 345 947 353 Q 951 363 937 375 Q 883 414 832 395 Q 796 389 753 378 L 693 367 Q 600 355 585 349 L 539 342 Q 493 336 447 328 L 405 322 Q 354 316 303 308 Q 284 307 298 291 Q 311 279 327 274 Q 346 270 360 274 Q 384 281 413 288 L 452 297 Q 492 307 540 314 L 583 321 Q 626 328 685 333 L 739 336 Z" fill="black" /></g></svg>