<?xml version='1.0' encoding='utf-8'?>
<svg xmlns="http://www.w3.org/2000/svg" version="1.1" viewBox="0 0 1024 1024"><g transform="scale(1, -1) translate(0, -900)"><path d="M 504 362 Q 531 335 547 209 L 550 174 Q 556 78 538 42 Q 537 38 532 36 Q 514 30 424 48 Q 417 48 414 45 Q 413 41 422 33 Q 489 -19 526 -58 Q 538 -71 546 -68 Q 555 -68 570 -52 Q 604 -19 605 91 Q 604 125 601 175 Q 600 178 600 179 L 597 217 Q 593 266 591 280 Q 587 307 586 327 Q 586 346 573 353 Q 554 365 539 369 C 511 380 487 386 504 362 Z" fill="black" /></g></svg>