<?xml version='1.0' encoding='utf-8'?>
<svg xmlns="http://www.w3.org/2000/svg" version="1.1" viewBox="0 0 1024 1024"><g transform="scale(1, -1) translate(0, -900)"><path d="M 551 134 Q 618 149 678 155 Q 706 156 711 148 Q 717 141 713 119 Q 707 58 693 32 Q 668 -2 636 6 Q 617 9 600 13 Q 575 22 593 -4 Q 627 -43 641 -72 Q 653 -90 669 -80 Q 717 -58 756 39 Q 783 123 801 138 Q 814 151 809 163 Q 800 176 747 204 Q 726 216 704 203 Q 676 187 573 168 L 501 154 Q 413 141 335 139 Q 316 139 313 130 Q 312 121 336 108 Q 361 90 383 97 Q 435 110 486 121 L 551 134 Z" fill="black" /></g></svg>