<?xml version='1.0' encoding='utf-8'?>
<svg xmlns="http://www.w3.org/2000/svg" version="1.1" viewBox="0 0 1024 1024"><g transform="scale(1, -1) translate(0, -900)"><path d="M 489 565 Q 489 520 512 501 Q 575 459 700 487 Q 703 490 709 490 Q 739 499 769 519 Q 782 531 772 549 Q 763 558 747 587 Q 746 599 740 602 Q 736 603 733 591 Q 681 498 559 525 Q 535 532 530 545 Q 527 554 525 575 L 528 608 Q 529 623 534 639 Q 538 652 529 660 Q 522 667 511 673 C 486 689 473 697 481 668 Q 481 665 483 660 Q 493 630 491 601 Q 490 600 490 596 L 489 565 Z" fill="black" /></g></svg>