<?xml version='1.0' encoding='utf-8'?>
<svg xmlns="http://www.w3.org/2000/svg" version="1.1" viewBox="0 0 1024 1024"><g transform="scale(1, -1) translate(0, -900)"><path d="M 615 264 Q 627 265 639 271 Q 649 277 662 282 Q 678 286 684 280 Q 690 276 686 256 Q 664 85 714 23 Q 750 -34 863 -25 Q 915 -22 957 0 Q 979 13 967 37 Q 937 107 933 184 Q 929 191 924 193 Q 920 192 915 179 Q 900 65 876 45 Q 851 33 794 34 Q 770 35 758 47 Q 734 65 725 108 Q 709 181 737 239 Q 744 260 759 273 Q 790 295 718 324 Q 694 334 681 324 Q 657 309 598 293 C 569 285 586 256 615 264 Z" fill="black" /></g></svg>