<?xml version='1.0' encoding='utf-8'?>
<svg xmlns="http://www.w3.org/2000/svg" version="1.1" viewBox="0 0 1024 1024"><g transform="scale(1, -1) translate(0, -900)"><path d="M 831 418 Q 824 431 810 471 Q 809 481 804 485 Q 800 488 797 476 Q 778 431 766 417 Q 760 410 742 405 Q 699 396 665 407 Q 652 414 648 422 Q 642 437 640 464 L 642 505 Q 643 529 648 554 Q 652 570 640 579 Q 633 586 624 590 C 599 606 577 609 586 580 Q 586 579 587 577 Q 597 550 598 489 L 598 453 Q 599 398 622 377 Q 685 337 781 367 Q 805 374 827 392 Q 840 402 831 418 Z" fill="black" /></g></svg>