<?xml version='1.0' encoding='utf-8'?>
<svg xmlns="http://www.w3.org/2000/svg" version="1.1" viewBox="0 0 1024 1024"><g transform="scale(1, -1) translate(0, -900)"><path d="M 343 523 Q 340 475 359 456 Q 401 419 496 440 Q 517 446 537 459 Q 549 469 541 485 Q 534 498 521 536 Q 521 546 516 549 Q 512 552 510 540 Q 491 497 481 485 Q 475 479 459 475 Q 423 469 395 479 Q 385 483 381 491 Q 372 512 378 534 L 383 569 Q 384 581 388 592 Q 392 605 384 613 Q 374 623 358 629 Q 348 633 342 629 Q 338 628 341 614 Q 348 586 346 558 Q 345 557 345 555 L 343 523 Z" fill="black" /></g></svg>