<?xml version='1.0' encoding='utf-8'?>
<svg xmlns="http://www.w3.org/2000/svg" version="1.1" viewBox="0 0 1024 1024"><g transform="scale(1, -1) translate(0, -900)"><path d="M 683 489 L 684 488 Q 697 454 679 405 Q 657 341 625 320 Q 610 307 615 292 Q 622 277 632 268 Q 642 258 664 274 Q 695 302 730 312 Q 793 330 825 327 Q 843 327 850 318 Q 860 303 852 268 Q 822 124 770 79 Q 758 70 733 83 Q 706 93 684 100 Q 668 107 670 96 Q 671 83 685 68 Q 715 31 731 -1 Q 746 -25 767 -13 Q 839 29 859 86 Q 859 89 861 92 Q 924 290 930 299 Q 943 317 933 327 Q 921 346 891 363 Q 867 376 852 370 Q 830 363 723 333 Q 707 329 702 335 Q 698 339 704 349 Q 720 386 742 432 Q 752 453 745 466 Q 739 481 715 497 C 692 516 676 518 683 489 Z" fill="black" /></g></svg>