<?xml version='1.0' encoding='utf-8'?>
<svg xmlns="http://www.w3.org/2000/svg" version="1.1" viewBox="0 0 1024 1024"><g transform="scale(1, -1) translate(0, -900)"><path d="M 962 35 Q 1001 47 986 85 Q 964 143 958 233 Q 957 258 950 263 Q 940 270 936 252 Q 906 123 885 106 Q 873 100 848 102 Q 784 111 760 161 Q 732 210 730 298 Q 729 386 753 481 Q 774 551 814 585 Q 844 610 809 623 Q 791 632 752 644 Q 731 653 675 620 Q 644 607 573 581 C 545 571 554 546 583 552 Q 614 558 685 577 Q 698 581 705 575 Q 714 562 692 409 Q 649 97 831 30 Q 852 24 879 22 Q 921 21 962 35 Z" fill="black" /></g></svg>