<?xml version='1.0' encoding='utf-8'?>
<svg xmlns="http://www.w3.org/2000/svg" version="1.1" viewBox="0 0 1024 1024"><g transform="scale(1, -1) translate(0, -900)"><path d="M 952 9 Q 948 82 950 207 Q 951 220 945 225 Q 938 229 934 215 Q 898 112 885 98 Q 879 89 853 101 Q 798 125 756 209 Q 719 285 707 384 Q 694 486 713 618 Q 717 664 748 701 Q 766 714 754 726 Q 744 744 710 769 Q 689 784 665 772 Q 643 762 607 754 Q 348 702 279 691 Q 266 691 263 683 Q 260 677 271 672 Q 304 653 338 665 Q 467 698 635 719 Q 651 720 660 714 Q 663 711 664 680 Q 613 265 759 97 Q 828 12 922 -16 Q 938 -23 947 -14 Q 954 -7 952 9 Z" fill="black" /></g></svg>