<?xml version='1.0' encoding='utf-8'?>
<svg xmlns="http://www.w3.org/2000/svg" version="1.1" viewBox="0 0 1024 1024"><g transform="scale(1, -1) translate(0, -900)"><path d="M 514 399 Q 538 375 539 321 Q 549 183 507 111 Q 488 81 531 51 Q 544 41 560 55 Q 605 94 757 105 Q 811 109 876 104 Q 898 101 908 107 Q 915 114 909 125 Q 903 138 865 159 Q 844 171 770 158 Q 755 165 631 138 Q 588 132 587 131 Q 574 138 579 164 Q 588 318 601 363 Q 608 379 593 391 Q 581 403 567 411 C 542 428 497 423 514 399 Z" fill="black" /></g></svg>