<?xml version='1.0' encoding='utf-8'?>
<svg xmlns="http://www.w3.org/2000/svg" version="1.1" viewBox="0 0 1024 1024"><g transform="scale(1, -1) translate(0, -900)"><path d="M 495 396 Q 480 393 478 386 Q 477 379 485 375 Q 518 368 549 376 Q 621 404 647 410 Q 669 414 671 408 Q 674 402 644 360 Q 497 189 516 93 Q 529 36 636 8 Q 783 -28 947 37 Q 977 50 969 72 Q 951 126 941 212 Q 937 225 930 225 Q 924 226 919 210 Q 912 179 902 145 Q 889 97 852 81 Q 815 62 726 60 Q 639 59 606 75 Q 576 90 567 120 Q 552 198 683 336 Q 723 379 763 398 Q 787 408 779 422 Q 772 437 723 463 Q 705 475 678 462 Q 581 413 495 396 Z" fill="black" /></g></svg>