<?xml version='1.0' encoding='utf-8'?>
<svg xmlns="http://www.w3.org/2000/svg" version="1.1" viewBox="0 0 1024 1024"><g transform="scale(1, -1) translate(0, -900)"><path d="M 967 146 Q 951 186 936 305 Q 936 321 929 326 Q 923 329 919 312 Q 894 186 874 146 Q 849 115 778 94 Q 703 73 613 74 Q 535 75 474 98 Q 419 123 404 155 Q 353 254 400 594 Q 406 624 363 643 C 339 661 318 665 326 636 Q 326 632 329 622 Q 344 580 341 540 Q 325 221 353 133 Q 360 97 395 69 Q 495 2 736 22 Q 782 29 830 43 Q 897 62 961 107 Q 980 122 967 146 Z" fill="black" /></g></svg>