<?xml version='1.0' encoding='utf-8'?>
<svg xmlns="http://www.w3.org/2000/svg" version="1.1" viewBox="0 0 1024 1024"><g transform="scale(1, -1) translate(0, -900)"><path d="M 691 556 Q 799 583 817 567 Q 827 561 831 513 Q 844 350 837 163 Q 837 135 827 128 Q 811 121 745 148 Q 729 152 730 143 Q 730 136 742 129 Q 800 78 830 40 Q 849 21 861 23 Q 873 26 884 53 Q 900 95 901 157 Q 886 398 887 488 Q 887 525 898 548 Q 908 570 899 581 Q 889 594 843 617 Q 824 627 805 621 Q 768 609 694 590 L 650 582 Q 587 572 525 562 C 495 557 501 513 530 520 Q 609 539 648 548 L 691 556 Z" fill="black" /></g></svg>