<?xml version='1.0' encoding='utf-8'?>
<svg xmlns="http://www.w3.org/2000/svg" version="1.1" viewBox="0 0 1024 1024"><g transform="scale(1, -1) translate(0, -900)"><path d="M 675 427 Q 681 457 691 556 L 694 590 Q 698 687 718 744 Q 725 757 715 768 Q 694 784 658 795 Q 634 801 627 795 Q 618 788 625 777 Q 646 743 649 700 Q 650 640 650 582 L 648 548 Q 647 524 645 499 Q 635 382 566 323 Q 547 308 523 291 C 499 273 493 270 523 274 Q 530 273 556 281 Q 638 308 669 407 L 675 427 Z" fill="black" /></g></svg>