<?xml version='1.0' encoding='utf-8'?>
<svg xmlns="http://www.w3.org/2000/svg" version="1.1" viewBox="0 0 1024 1024"><g transform="scale(1, -1) translate(0, -900)"><path d="M 498 402 Q 499 540 502 560 Q 506 576 494 585 Q 484 595 441 606 Q 425 607 420 603 Q 413 596 424 579 Q 454 543 459 397 Q 459 216 414 150 Q 407 144 401 135 Q 389 125 396 104 Q 403 77 417 65 Q 429 56 441 70 Q 481 115 598 204 Q 614 214 616 222 Q 619 228 612 228 Q 605 228 513 190 Q 506 187 503 190 Q 496 194 497 211 Q 497 305 497 374 L 498 402 Z" fill="black" /></g></svg>