<?xml version='1.0' encoding='utf-8'?>
<svg xmlns="http://www.w3.org/2000/svg" version="1.1" viewBox="0 0 1024 1024"><g transform="scale(1, -1) translate(0, -900)"><path d="M 571 365 Q 590 366 597 358 Q 609 345 606 309 Q 602 221 581 160 Q 571 127 560 115 Q 553 108 532 113 Q 510 123 491 131 Q 476 138 477 129 Q 477 116 489 102 Q 513 68 524 37 Q 540 9 566 23 Q 632 75 639 140 Q 666 335 671 342 Q 671 345 674 348 Q 684 366 673 375 Q 660 391 630 403 Q 608 413 593 404 Q 580 400 537 382 Q 530 379 527 381 Q 524 384 545 480 Q 548 493 546 503 C 547 515 547 515 523 528 Q 516 532 504 538 Q 491 547 483 541 Q 474 534 484 521 Q 503 493 494 445 Q 482 382 457 358 Q 447 345 452 332 Q 459 319 469 313 Q 479 306 496 321 Q 527 361 571 365 Z" fill="black" /></g></svg>