<?xml version='1.0' encoding='utf-8'?>
<svg xmlns="http://www.w3.org/2000/svg" version="1.1" viewBox="0 0 1024 1024"><g transform="scale(1, -1) translate(0, -900)"><path d="M 663 430 Q 663 426 666 416 Q 679 376 676 337 Q 663 141 679 85 Q 682 67 698 51 Q 761 0 890 23 Q 893 26 899 26 Q 930 33 959 55 Q 977 68 966 91 Q 956 116 943 194 Q 943 209 937 214 Q 931 217 926 201 Q 896 119 878 95 Q 871 85 847 79 Q 798 67 750 85 Q 734 94 728 105 Q 695 171 734 387 Q 740 417 697 436 C 671 451 656 459 663 430 Z" fill="black" /></g></svg>