<?xml version='1.0' encoding='utf-8'?>
<svg xmlns="http://www.w3.org/2000/svg" version="1.1" viewBox="0 0 1024 1024"><g transform="scale(1, -1) translate(0, -900)"><path d="M 526 541 Q 589 608 658 703 Q 676 728 702 743 Q 718 750 718 759 Q 719 772 693 790 Q 660 815 647 816 Q 637 816 624 809 Q 588 799 498 782 Q 401 767 374 767 Q 337 767 335 759 Q 334 755 340 750 Q 388 707 584 762 Q 603 766 609 759 Q 615 755 593 714 Q 556 642 483 568 L 457 542 Q 319 410 116 348 Q 106 345 106 340 Q 106 336 113 335 Q 230 317 410 440 Q 447 467 486 502 Q 490 506 496 511 L 526 541 Z" fill="black" /></g></svg>