<?xml version='1.0' encoding='utf-8'?>
<svg xmlns="http://www.w3.org/2000/svg" version="1.1" viewBox="0 0 1024 1024"><g transform="scale(1, -1) translate(0, -900)"><path d="M 767 488 Q 782 494 915 491 Q 937 490 946 502 Q 953 512 932 524 Q 866 569 817 544 Q 795 540 773 534 Q 769 534 768 533 L 715 523 Q 640 511 569 492 Q 536 482 546 510 Q 558 582 571 610 Q 581 620 574 631 Q 567 641 531 656 Q 513 665 503 657 Q 493 647 503 634 Q 519 600 503 521 Q 500 500 476 476 Q 466 466 469 452 Q 472 442 489 428 Q 502 421 516 433 Q 579 466 684 478 L 767 488 Z" fill="black" /></g></svg>