<?xml version='1.0' encoding='utf-8'?>
<svg xmlns="http://www.w3.org/2000/svg" version="1.1" viewBox="0 0 1024 1024"><g transform="scale(1, -1) translate(0, -900)"><path d="M 640 306 Q 644 330 648 354 L 652 394 Q 656 472 659 503 L 661 552 Q 667 676 688 738 Q 695 753 683 764 Q 661 783 619 794 Q 592 801 584 794 Q 574 787 582 774 Q 607 735 610 687 Q 614 611 612 537 L 611 492 Q 610 441 603 385 L 598 344 Q 574 215 520 154 Q 466 93 350 31 Q 337 24 337 19 Q 338 15 350 14 Q 369 10 416 27 Q 576 78 632 269 L 640 306 Z" fill="black" /></g></svg>