<?xml version='1.0' encoding='utf-8'?>
<svg xmlns="http://www.w3.org/2000/svg" version="1.1" viewBox="0 0 1024 1024"><g transform="scale(1, -1) translate(0, -900)"><path d="M 780 133 Q 790 109 813 64 Q 820 48 831 48 Q 846 51 855 76 Q 891 149 894 246 Q 901 307 907 377 Q 911 423 933 452 Q 949 471 937 484 Q 916 503 872 524 Q 853 534 822 522 Q 768 503 709 487 L 663 477 Q 603 470 523 461 C 493 458 511 422 541 426 Q 548 426 556 427 Q 602 437 663 448 L 709 457 Q 824 484 842 468 Q 851 452 852 434 Q 851 304 826 178 Q 823 156 814 154 C 799 128 770 155 780 133 Z" fill="black" /></g></svg>