<?xml version='1.0' encoding='utf-8'?>
<svg xmlns="http://www.w3.org/2000/svg" version="1.1" viewBox="0 0 1024 1024"><g transform="scale(1, -1) translate(0, -900)"><path d="M 695 102 Q 723 50 728 25 Q 732 -6 743 -12 Q 758 -15 777 19 Q 802 62 809 139 Q 796 299 795 461 L 795 507 Q 795 642 811 701 Q 827 732 772 753 Q 738 772 719 764 Q 701 757 718 735 Q 740 708 741 674 Q 742 656 743 497 L 743 458 Q 742 338 741 148 Q 740 127 729 119 Q 726 118 720 121 Q 717 122 713 123 C 685 121 685 121 695 102 Z" fill="black" /></g></svg>