<?xml version='1.0' encoding='utf-8'?>
<svg xmlns="http://www.w3.org/2000/svg" version="1.1" viewBox="0 0 1024 1024"><g transform="scale(1, -1) translate(0, -900)"><path d="M 743 432 Q 782 444 821 450 Q 831 451 835 446 Q 842 431 839 392 Q 829 248 803 171 Q 790 123 773 108 Q 763 98 741 103 Q 713 112 686 121 Q 665 127 680 108 Q 720 65 741 31 Q 750 12 768 17 Q 786 20 807 44 Q 867 113 887 354 Q 891 409 911 441 Q 924 460 917 468 Q 904 484 872 497 Q 850 507 827 496 Q 794 480 750 466 L 694 451 Q 645 441 617 439 Q 601 440 602 431 Q 601 422 620 412 Q 642 399 663 407 Q 673 411 686 414 L 743 432 Z" fill="black" /></g></svg>