<?xml version='1.0' encoding='utf-8'?>
<svg xmlns="http://www.w3.org/2000/svg" version="1.1" viewBox="0 0 1024 1024"><g transform="scale(1, -1) translate(0, -900)"><path d="M 948 101 Q 933 128 913 213 Q 913 229 905 234 Q 898 237 894 219 Q 869 128 850 98 Q 837 83 797 72 Q 704 50 634 75 Q 606 87 599 104 Q 578 146 588 257 L 591 279 Q 597 333 608 393 Q 612 411 602 421 Q 589 434 566 443 Q 553 447 545 443 Q 538 439 543 421 Q 556 382 552 345 Q 536 143 552 85 Q 555 63 577 44 Q 664 -17 844 17 Q 850 18 857 20 Q 900 30 942 58 Q 963 74 948 101 Z" fill="black" /></g></svg>