<?xml version='1.0' encoding='utf-8'?>
<svg xmlns="http://www.w3.org/2000/svg" version="1.1" viewBox="0 0 1024 1024"><g transform="scale(1, -1) translate(0, -900)"><path d="M 401 382 Q 422 455 451 476 Q 464 492 451 509 Q 379 558 324 527 Q 314 524 306 519 C 284 508 284 508 261 504 Q 258 505 257 504 Q 208 491 156 482 C 126 477 136 447 166 452 Q 178 453 188 457 Q 224 467 262 474 L 306 485 Q 321 489 338 493 Q 357 497 365 490 Q 374 483 372 467 Q 365 422 356 385 C 349 356 392 353 401 382 Z" fill="black" /></g></svg>