<?xml version='1.0' encoding='utf-8'?>
<svg xmlns="http://www.w3.org/2000/svg" version="1.1" viewBox="0 0 1024 1024"><g transform="scale(1, -1) translate(0, -900)"><path d="M 658 518 Q 659 521 663 524 Q 697 570 734 647 Q 750 675 775 694 Q 791 701 790 711 Q 790 724 761 740 Q 724 762 710 762 Q 700 761 688 753 Q 586 717 510 711 Q 473 711 470 703 Q 469 699 476 694 Q 519 660 648 705 Q 670 712 681 707 Q 688 703 669 646 Q 654 598 618 548 L 596 518 Q 538 449 446 401 Q 437 397 438 392 Q 439 388 446 388 Q 545 394 629 484 L 658 518 Z" fill="black" /></g></svg>