<?xml version='1.0' encoding='utf-8'?>
<svg xmlns="http://www.w3.org/2000/svg" version="1.1" viewBox="0 0 1024 1024"><g transform="scale(1, -1) translate(0, -900)"><path d="M 772 656 Q 678 643 581 622 Q 571 618 567 621 Q 566 625 571 633 Q 664 753 683 772 Q 696 782 689 795 Q 683 807 636 830 Q 620 837 611 834 Q 598 828 604 808 Q 620 742 521 640 Q 503 625 481 610 Q 466 598 470 587 Q 476 571 500 551 Q 510 541 524 550 Q 572 587 781 630 Q 784 631 789 632 C 818 639 802 660 772 656 Z" fill="black" /></g></svg>