<?xml version='1.0' encoding='utf-8'?>
<svg xmlns="http://www.w3.org/2000/svg" version="1.1" viewBox="0 0 1024 1024"><g transform="scale(1, -1) translate(0, -900)"><path d="M 747 156 Q 757 128 787 73 Q 796 54 807 56 Q 823 60 833 87 Q 879 184 881 312 Q 888 393 894 486 Q 898 538 922 570 Q 938 592 926 605 Q 902 627 852 648 Q 833 658 798 645 Q 669 596 469 568 C 439 564 463 524 493 529 Q 500 529 510 531 Q 615 558 779 592 Q 807 599 821 586 Q 834 564 834 541 Q 834 372 802 205 Q 799 177 787 173 Q 784 172 776 174 C 750 158 747 156 747 156 Z" fill="black" /></g></svg>