<?xml version='1.0' encoding='utf-8'?>
<svg xmlns="http://www.w3.org/2000/svg" version="1.1" viewBox="0 0 1024 1024"><g transform="scale(1, -1) translate(0, -900)"><path d="M 613 -34 Q 619 -59 626 -69 Q 632 -76 639 -74 Q 654 -64 661 -5 Q 670 71 668 146 Q 665 189 667 311 L 667 350 Q 667 393 669 445 L 672 489 Q 672 490 681 537 Q 684 556 670 565 Q 655 575 644 581 C 618 596 574 598 587 571 Q 588 570 590 567 Q 614 512 614 476 L 614 436 Q 614 393 613 342 L 613 305 Q 607 25 613 -34 Z" fill="black" /></g></svg>