<?xml version='1.0' encoding='utf-8'?>
<svg xmlns="http://www.w3.org/2000/svg" version="1.1" viewBox="0 0 1024 1024"><g transform="scale(1, -1) translate(0, -900)"><path d="M 563 732 L 653 761 Q 672 765 678 762 Q 685 753 681 721 Q 666 567 684 517 Q 700 486 764 472 Q 878 456 936 507 Q 946 516 941 528 Q 922 580 910 640 Q 901 671 892 641 Q 882 557 865 543 Q 856 530 813 522 Q 767 513 732 532 Q 710 548 710 634 Q 709 695 763 766 Q 776 779 759 793 Q 734 808 703 815 Q 682 821 670 807 Q 633 782 561 760 C 532 751 534 723 563 732 Z" fill="black" /></g></svg>