<?xml version='1.0' encoding='utf-8'?>
<svg xmlns="http://www.w3.org/2000/svg" version="1.1" viewBox="0 0 1024 1024"><g transform="scale(1, -1) translate(0, -900)"><path d="M 605 632 Q 656 660 674 652 Q 687 646 683 622 Q 662 478 723 429 Q 747 407 821 380 Q 864 364 889 368 Q 914 372 916 383 Q 923 396 910 446 Q 901 477 886 571 Q 883 586 873 590 Q 869 594 865 581 Q 855 481 843 456 Q 836 440 806 444 Q 779 448 752 470 Q 728 489 722 517 Q 715 541 726 580 Q 733 613 765 645 Q 778 658 771 670 Q 762 686 732 701 Q 702 719 685 705 Q 669 690 615 666 Q 612 665 611 664 L 562 647 Q 465 623 463 619 Q 459 615 468 606 Q 483 594 555 613 L 605 632 Z" fill="black" /></g></svg>