<?xml version='1.0' encoding='utf-8'?>
<svg xmlns="http://www.w3.org/2000/svg" version="1.1" viewBox="0 0 1024 1024"><g transform="scale(1, -1) translate(0, -900)"><path d="M 766 558 Q 753 515 725 475 Q 716 463 720 452 Q 721 442 738 431 Q 783 398 822 360 Q 838 345 851 345 Q 864 348 865 369 Q 866 391 854 406 Q 844 422 782 440 Q 764 444 757 455 Q 751 464 762 477 Q 777 492 802 525 Q 820 547 835 558 Q 848 567 842 583 Q 829 617 806 630 Q 793 637 781 635 Q 771 634 776 615 Q 783 593 766 558 Z" fill="black" /></g></svg>