<?xml version='1.0' encoding='utf-8'?>
<svg xmlns="http://www.w3.org/2000/svg" version="1.1" viewBox="0 0 1024 1024"><g transform="scale(1, -1) translate(0, -900)"><path d="M 601 327 Q 601 326 603 323 Q 622 287 621 235 Q 621 120 629 97 Q 636 66 657 49 Q 702 13 859 15 Q 932 16 960 31 Q 990 47 977 78 Q 959 120 947 194 Q 944 210 937 214 Q 930 218 927 199 Q 914 108 901 92 Q 877 65 777 65 Q 722 68 699 77 Q 678 87 674 102 Q 653 159 673 242 Q 682 299 682 303 Q 676 315 642 335 C 617 351 589 354 601 327 Z" fill="black" /></g></svg>