<?xml version='1.0' encoding='utf-8'?>
<svg xmlns="http://www.w3.org/2000/svg" version="1.1" viewBox="0 0 1024 1024"><g transform="scale(1, -1) translate(0, -900)"><path d="M 591 346 Q 570 211 493 142 Q 450 106 378 70 Q 365 63 365 59 Q 366 55 377 54 Q 395 50 436 65 Q 506 84 555 136 Q 616 196 636 318 L 642 397 Q 642 398 643 398 Q 647 513 652 619 L 654 664 Q 654 688 678 755 Q 685 770 674 781 Q 652 800 612 811 Q 587 817 577 810 Q 568 803 576 791 Q 598 754 602 706 Q 603 681 604 653 L 605 609 Q 605 497 596 390 L 591 346 Z" fill="black" /></g></svg>