<?xml version='1.0' encoding='utf-8'?>
<svg xmlns="http://www.w3.org/2000/svg" version="1.1" viewBox="0 0 1024 1024"><g transform="scale(1, -1) translate(0, -900)"><path d="M 653 429 Q 701 445 771 464 Q 775 465 780 467 C 809 476 789 494 760 488 Q 670 470 577 442 Q 567 438 564 441 Q 561 445 567 453 Q 663 576 683 596 Q 695 606 689 618 Q 683 631 640 652 C 613 666 598 674 602 646 Q 601 642 604 632 Q 619 575 527 469 Q 467 415 467 413 Q 466 410 468 406 Q 474 390 498 370 Q 508 360 522 370 Q 561 403 611 414 L 653 429 Z" fill="black" /></g></svg>