<?xml version='1.0' encoding='utf-8'?>
<svg xmlns="http://www.w3.org/2000/svg" version="1.1" viewBox="0 0 1024 1024"><g transform="scale(1, -1) translate(0, -900)"><path d="M 571 530 Q 590 572 603 621 Q 604 627 605 632 L 611 664 Q 617 698 621 733 Q 622 776 630 798 Q 637 810 631 821 Q 616 836 590 847 Q 574 856 562 852 Q 552 845 558 834 Q 582 801 563 656 Q 562 652 562 647 L 555 613 Q 546 583 534 540 L 519 505 Q 512 492 504 476 Q 491 451 477 427 Q 473 421 471 416 Q 470 406 478 409 Q 497 413 548 487 L 571 530 Z" fill="black" /></g></svg>