<?xml version='1.0' encoding='utf-8'?>
<svg xmlns="http://www.w3.org/2000/svg" version="1.1" viewBox="0 0 1024 1024"><g transform="scale(1, -1) translate(0, -900)"><path d="M 649 320 Q 650 338 665 608 L 666 651 Q 666 700 689 769 Q 696 784 685 794 Q 663 812 624 823 Q 599 829 591 822 Q 582 815 590 803 Q 612 767 616 721 Q 617 679 619 637 L 619 595 Q 622 286 546 184 Q 534 171 523 158 Q 466 100 342 45 Q 329 39 329 35 Q 330 31 341 30 Q 362 26 412 42 Q 496 64 555 122 Q 619 183 643 283 L 649 320 Z" fill="black" /></g></svg>