<?xml version='1.0' encoding='utf-8'?>
<svg xmlns="http://www.w3.org/2000/svg" version="1.1" viewBox="0 0 1024 1024"><g transform="scale(1, -1) translate(0, -900)"><path d="M 574 465 Q 571 523 563 529 Q 547 539 535 544 C 508 557 499 557 511 529 Q 524 505 530 453 L 535 413 Q 538 373 539 302 L 538 260 Q 535 143 507 100 Q 506 94 498 92 Q 492 91 448 94 Q 441 95 438 93 Q 437 89 444 81 Q 477 38 493 8 Q 499 -2 504 -2 Q 516 -1 536 18 Q 585 60 586 218 Q 586 252 585 296 L 584 325 Q 581 394 578 426 L 574 465 Z" fill="black" /></g></svg>