<?xml version='1.0' encoding='utf-8'?>
<svg xmlns="http://www.w3.org/2000/svg" version="1.1" viewBox="0 0 1024 1024"><g transform="scale(1, -1) translate(0, -900)"><path d="M 622 52 Q 626 31 631 23 Q 635 16 642 19 Q 649 22 653 34 Q 665 74 666 238 Q 666 242 666 244 L 667 281 Q 667 312 669 350 L 670 388 Q 670 391 671 394 Q 671 419 679 451 Q 682 466 670 474 Q 660 481 651 485 C 625 499 593 501 605 474 Q 620 450 621 371 L 621 336 Q 620 305 620 266 L 619 232 Q 619 73 622 52 Z" fill="black" /></g></svg>