<?xml version='1.0' encoding='utf-8'?>
<svg xmlns="http://www.w3.org/2000/svg" version="1.1" viewBox="0 0 1024 1024"><g transform="scale(1, -1) translate(0, -900)"><path d="M 571 467 Q 589 470 728 498 Q 750 502 756 490 Q 762 477 765 453 Q 784 234 781 101 Q 781 71 772 59 Q 768 52 746 57 Q 721 60 696 63 Q 674 69 677 59 Q 734 13 767 -22 Q 782 -41 798 -46 Q 808 -50 816 -39 Q 858 12 853 71 Q 813 431 838 481 Q 851 502 838 512 Q 814 531 776 547 Q 757 554 740 546 Q 700 527 673 517 L 633 507 Q 602 503 560 498 C 530 494 542 461 571 467 Z" fill="black" /></g></svg>