<?xml version='1.0' encoding='utf-8'?>
<svg xmlns="http://www.w3.org/2000/svg" version="1.1" viewBox="0 0 1024 1024"><g transform="scale(1, -1) translate(0, -900)"><path d="M 382 560 Q 381 597 382 634 L 384 686 Q 388 747 399 781 Q 414 806 368 825 Q 340 841 324 836 Q 309 830 322 811 Q 340 789 340 760 Q 340 750 339 670 L 338 623 Q 337 587 336 541 L 335 505 Q 334 471 334 430 Q 333 417 326 412 Q 322 409 268 413 Q 240 422 243 413 Q 244 407 262 396 Q 311 357 324 335 Q 339 310 352 309 Q 364 308 375 337 Q 390 374 388 436 Q 384 482 383 529 L 382 560 Z" fill="black" /></g></svg>