<?xml version='1.0' encoding='utf-8'?>
<svg xmlns="http://www.w3.org/2000/svg" version="1.1" viewBox="0 0 1024 1024"><g transform="scale(1, -1) translate(0, -900)"><path d="M 679 647 Q 678 640 680 631 Q 684 616 695 616 Q 714 619 747 680 Q 765 728 800 754 Q 819 767 805 783 Q 789 801 743 828 Q 728 837 664 825 Q 546 818 416 796 Q 338 784 284 779 C 254 776 269 737 298 743 Q 302 743 307 744 Q 347 756 409 764 L 431 767 Q 480 776 546 782 L 583 785 Q 692 800 715 784 Q 722 780 716 758 Q 698 698 690 674 L 679 647 Z" fill="black" /></g></svg>