<?xml version='1.0' encoding='utf-8'?>
<svg xmlns="http://www.w3.org/2000/svg" version="1.1" viewBox="0 0 1024 1024"><g transform="scale(1, -1) translate(0, -900)"><path d="M 646 30 Q 634 29 573 54 Q 563 58 563 52 Q 562 48 573 38 Q 610 -8 627 -40 Q 636 -61 648 -60 Q 669 -61 689 -39 Q 764 27 782 202 Q 792 298 798 433 Q 798 469 820 496 Q 833 509 833 518 Q 832 527 811 541 Q 784 562 748 573 Q 729 579 667 563 Q 523 532 375 515 C 345 511 319 492 349 490 Q 391 481 604 513 Q 710 528 724 513 Q 746 471 728 245 Q 716 140 683 68 Q 667 32 646 30 Z" fill="black" /></g></svg>