<?xml version='1.0' encoding='utf-8'?>
<svg xmlns="http://www.w3.org/2000/svg" version="1.1" viewBox="0 0 1024 1024"><g transform="scale(1, -1) translate(0, -900)"><path d="M 414 165 Q 415 205 418 241 L 420 274 Q 421 317 424 357 Q 424 361 425 365 C 428 393 428 393 429 395 Q 429 396 430 396 Q 434 409 436 420 Q 439 430 422 441 Q 394 456 374 459 Q 361 462 354 454 Q 348 448 355 436 Q 373 412 373 384 L 375 357 Q 378 314 379 267 L 380 235 Q 380 198 380 158 C 380 128 413 135 414 165 Z" fill="black" /></g></svg>