<?xml version='1.0' encoding='utf-8'?>
<svg xmlns="http://www.w3.org/2000/svg" version="1.1" viewBox="0 0 1024 1024"><g transform="scale(1, -1) translate(0, -900)"><path d="M 585 428 Q 598 428 741 461 Q 759 465 767 455 Q 774 448 776 423 Q 791 225 787 105 Q 786 75 777 62 Q 773 56 750 61 Q 722 65 692 71 Q 670 77 673 67 Q 736 18 771 -18 Q 786 -37 802 -42 Q 812 -46 820 -35 Q 862 13 858 75 Q 825 402 849 444 Q 862 465 849 475 Q 825 494 787 510 Q 768 517 752 510 Q 683 473 573 459 C 543 455 555 423 585 428 Z" fill="black" /></g></svg>