<?xml version='1.0' encoding='utf-8'?>
<svg xmlns="http://www.w3.org/2000/svg" version="1.1" viewBox="0 0 1024 1024"><g transform="scale(1, -1) translate(0, -900)"><path d="M 695 293 Q 638 287 635 288 Q 625 292 627 306 Q 631 370 641 439 Q 645 461 629 478 Q 601 505 580 504 Q 562 504 571 486 Q 599 440 594 394 Q 588 303 578 287 Q 568 271 576 257 Q 589 235 602 235 Q 609 235 629 244 Q 743 277 857 274 Q 876 273 877 283 Q 878 293 846 311 Q 821 324 807 318 Q 792 314 775 309 Q 753 305 730 300 L 695 293 Z" fill="black" /></g></svg>