<?xml version='1.0' encoding='utf-8'?>
<svg xmlns="http://www.w3.org/2000/svg" version="1.1" viewBox="0 0 1024 1024"><g transform="scale(1, -1) translate(0, -900)"><path d="M 500 259 Q 546 389 564 401 Q 571 407 565 420 Q 558 429 525 445 Q 516 451 462 437 Q 452 434 447 438 Q 443 445 456 485 Q 478 542 502 586 Q 520 614 537 625 Q 555 638 540 653 Q 512 674 485 677 Q 469 681 453 664 Q 440 654 407 641 Q 370 628 355 630 Q 345 631 340 625 Q 337 618 347 613 Q 384 589 443 617 Q 453 624 457 621 Q 466 609 415 470 Q 411 451 394 433 Q 382 423 387 412 Q 391 402 397 397 Q 409 387 424 398 Q 479 428 494 410 Q 504 388 468 282 L 455 248 Q 410 149 290 60 Q 280 50 288 47 Q 298 46 324 60 Q 436 126 485 224 L 500 259 Z" fill="black" /></g></svg>