<?xml version='1.0' encoding='utf-8'?>
<svg xmlns="http://www.w3.org/2000/svg" version="1.1" viewBox="0 0 1024 1024"><g transform="scale(1, -1) translate(0, -900)"><path d="M 596 378 Q 602 402 608 425 Q 611 441 615 457 L 627 501 Q 628 508 632 514 Q 642 527 636 540 Q 624 556 601 570 C 576 587 553 591 562 562 Q 575 532 566 486 L 559 445 Q 552 405 543 368 L 532 328 Q 475 157 357 16 Q 351 10 349 5 Q 346 -5 356 -4 Q 384 -4 465 93 Q 481 115 499 142 Q 550 229 585 338 L 596 378 Z" fill="black" /></g></svg>