<?xml version='1.0' encoding='utf-8'?>
<svg xmlns="http://www.w3.org/2000/svg" version="1.1" viewBox="0 0 1024 1024"><g transform="scale(1, -1) translate(0, -900)"><path d="M 947 56 Q 931 84 909 175 Q 908 190 901 194 Q 895 197 892 180 Q 874 83 859 51 Q 835 21 750 27 Q 717 30 692 41 Q 670 53 663 68 Q 642 113 669 265 Q 675 295 626 315 Q 613 319 605 314 Q 598 310 604 293 Q 616 254 613 217 Q 601 45 639 9 Q 705 -48 857 -24 Q 864 -21 873 -20 Q 909 -10 943 14 Q 962 30 947 56 Z" fill="black" /></g></svg>