<?xml version='1.0' encoding='utf-8'?>
<svg xmlns="http://www.w3.org/2000/svg" version="1.1" viewBox="0 0 1024 1024"><g transform="scale(1, -1) translate(0, -900)"><path d="M 734 196 Q 810 46 906 -2 Q 912 -3 918 -5 Q 933 -6 941 7 Q 948 17 940 63 Q 930 123 934 207 Q 937 238 927 239 Q 918 240 910 213 Q 886 123 869 122 Q 833 138 767 248 L 741 302 Q 699 395 668 550 L 658 597 Q 640 684 642 748 Q 654 787 627 803 Q 621 807 615 810 Q 593 825 578 826 Q 565 825 565 824 Q 541 817 561 794 Q 571 791 597 681 Q 603 632 612 581 L 621 538 Q 657 366 712 244 L 734 196 Z" fill="black" /></g></svg>