<?xml version='1.0' encoding='utf-8'?>
<svg xmlns="http://www.w3.org/2000/svg" version="1.1" viewBox="0 0 1024 1024"><g transform="scale(1, -1) translate(0, -900)"><path d="M 708 460 Q 727 426 744 417 Q 754 408 771 430 Q 789 455 828 601 Q 838 632 862 656 Q 875 668 865 683 Q 850 699 808 728 Q 790 737 718 719 Q 697 719 565 689 Q 555 688 546 684 L 509 676 Q 490 675 473 670 C 444 663 458 624 486 635 Q 492 642 589 662 L 618 668 Q 754 698 769 684 Q 782 666 778 650 Q 741 490 722 481 C 707 461 707 461 708 460 Z" fill="black" /></g></svg>