<?xml version='1.0' encoding='utf-8'?>
<svg xmlns="http://www.w3.org/2000/svg" version="1.1" viewBox="0 0 1024 1024"><g transform="scale(1, -1) translate(0, -900)"><path d="M 492 306 Q 525 358 554 436 L 567 477 Q 577 511 587 546 L 596 590 Q 600 617 605 643 Q 617 733 640 786 Q 647 796 639 805 Q 621 824 587 842 Q 566 854 549 850 Q 527 844 542 825 Q 567 792 565 761 Q 556 658 539 577 L 529 534 Q 525 524 523 511 Q 517 489 510 468 L 495 425 Q 438 292 349 210 Q 322 188 289 161 Q 276 154 274 150 Q 270 143 285 143 Q 295 143 341 166 Q 374 182 424 227 Q 443 245 462 266 L 492 306 Z" fill="black" /></g></svg>