<?xml version='1.0' encoding='utf-8'?>
<svg xmlns="http://www.w3.org/2000/svg" version="1.1" viewBox="0 0 1024 1024"><g transform="scale(1, -1) translate(0, -900)"><path d="M 514 266 Q 580 285 625 294 Q 635 295 637 292 Q 641 288 642 270 Q 643 224 634 202 Q 618 174 594 179 Q 570 185 549 193 Q 527 200 543 179 Q 583 142 602 114 Q 612 101 624 110 Q 661 131 688 229 Q 694 274 711 292 Q 721 302 716 311 Q 709 320 666 338 Q 650 345 634 334 Q 619 324 506 296 C 477 289 485 258 514 266 Z" fill="black" /></g></svg>