<?xml version='1.0' encoding='utf-8'?>
<svg xmlns="http://www.w3.org/2000/svg" version="1.1" viewBox="0 0 1024 1024"><g transform="scale(1, -1) translate(0, -900)"><path d="M 606 292 Q 606 156 595 45 Q 592 6 616 -26 Q 628 -39 637 -23 Q 662 25 655 68 Q 652 111 651 316 L 651 391 Q 651 440 651 488 L 651 523 Q 652 551 652 581 Q 651 588 651 596 L 651 636 Q 651 673 654 680 Q 657 690 648 698 Q 639 705 624 713 C 598 729 589 734 595 708 L 596 706 Q 600 697 606 623 L 606 589 Q 606 552 607 512 L 607 481 Q 607 435 607 385 L 606 292 Z" fill="black" /></g></svg>