<?xml version='1.0' encoding='utf-8'?>
<svg xmlns="http://www.w3.org/2000/svg" version="1.1" viewBox="0 0 1024 1024"><g transform="scale(1, -1) translate(0, -900)"><path d="M 684 409 Q 733 427 770 432 Q 779 433 781 431 Q 788 422 787 398 Q 786 331 773 300 Q 761 275 740 277 Q 718 283 700 289 Q 681 295 695 276 Q 732 242 749 215 Q 762 200 776 213 Q 818 246 832 360 Q 838 421 850 436 Q 859 446 854 454 Q 847 461 806 476 Q 799 479 744 458 Q 699 443 665 435 C 636 428 656 399 684 409 Z" fill="black" /></g></svg>