<?xml version='1.0' encoding='utf-8'?>
<svg xmlns="http://www.w3.org/2000/svg" version="1.1" viewBox="0 0 1024 1024"><g transform="scale(1, -1) translate(0, -900)"><path d="M 704 496 Q 723 466 741 457 Q 751 448 767 471 Q 783 496 816 642 Q 826 673 850 698 Q 863 711 852 725 Q 836 743 793 769 Q 775 778 694 760 Q 682 760 573 737 Q 524 727 483 720 C 453 715 475 679 504 687 Q 503 688 506 688 Q 542 698 595 708 L 624 713 Q 664 722 714 728 Q 744 732 753 723 Q 766 707 763 690 Q 736 548 722 525 C 710 497 700 501 704 496 Z" fill="black" /></g></svg>