<?xml version='1.0' encoding='utf-8'?>
<svg xmlns="http://www.w3.org/2000/svg" version="1.1" viewBox="0 0 1024 1024"><g transform="scale(1, -1) translate(0, -900)"><path d="M 978 99 Q 968 126 955 206 Q 955 221 949 226 Q 943 229 938 213 Q 908 128 890 103 Q 880 90 847 81 Q 771 66 709 90 Q 684 103 678 118 Q 647 181 683 399 Q 684 405 684 409 C 686 423 686 423 665 435 Q 655 442 643 447 Q 630 451 623 446 Q 616 442 621 425 Q 633 388 630 353 Q 617 155 633 100 Q 637 78 657 59 Q 733 -5 887 24 Q 893 27 899 27 Q 935 37 970 62 Q 989 75 978 99 Z" fill="black" /></g></svg>