<?xml version='1.0' encoding='utf-8'?>
<svg xmlns="http://www.w3.org/2000/svg" version="1.1" viewBox="0 0 1024 1024"><g transform="scale(1, -1) translate(0, -900)"><path d="M 540 423 Q 567 417 598 424 Q 608 427 624 428 L 668 435 Q 809 466 824 452 Q 836 419 829 267 Q 820 149 786 83 Q 773 53 755 52 Q 743 49 680 70 Q 671 73 671 68 Q 670 64 681 55 Q 718 15 736 -16 Q 745 -35 757 -34 Q 775 -35 792 -17 Q 853 32 872 162 Q 885 249 892 381 Q 893 412 912 434 Q 925 447 923 455 Q 922 462 904 474 Q 879 493 846 502 Q 822 509 806 501 Q 784 494 732 480 Q 659 461 608 453 Q 577 449 555 444 C 526 438 510 426 540 423 Z" fill="black" /></g></svg>