<?xml version='1.0' encoding='utf-8'?>
<svg xmlns="http://www.w3.org/2000/svg" version="1.1" viewBox="0 0 1024 1024"><g transform="scale(1, -1) translate(0, -900)"><path d="M 792 117 Q 826 75 851 37 Q 861 18 872 19 Q 890 20 905 56 Q 923 96 919 146 Q 906 309 895 610 Q 894 643 911 666 Q 921 679 911 690 Q 892 711 836 736 Q 817 746 801 736 Q 681 688 513 680 C 483 678 500 643 530 647 Q 548 647 768 684 Q 804 690 820 676 Q 860 631 844 158 Q 843 154 843 147 Q 842 140 837 136 C 830 107 773 141 792 117 Z" fill="black" /></g></svg>