<?xml version='1.0' encoding='utf-8'?>
<svg xmlns="http://www.w3.org/2000/svg" version="1.1" viewBox="0 0 1024 1024"><g transform="scale(1, -1) translate(0, -900)"><path d="M 443 338 Q 468 292 463 247 Q 456 175 447 164 Q 435 146 444 132 Q 457 108 471 108 Q 478 107 500 116 Q 617 153 757 149 Q 779 148 781 160 Q 781 173 745 192 Q 721 207 670 191 Q 667 191 665 190 Q 508 163 507 162 Q 494 166 496 181 Q 500 233 512 290 Q 518 312 501 330 Q 482 348 467 353 C 440 366 430 365 443 338 Z" fill="black" /></g></svg>