<?xml version='1.0' encoding='utf-8'?>
<svg xmlns="http://www.w3.org/2000/svg" version="1.1" viewBox="0 0 1024 1024"><g transform="scale(1, -1) translate(0, -900)"><path d="M 745 391 Q 764 366 781 357 Q 791 350 806 371 Q 819 396 843 528 Q 850 558 873 583 Q 885 595 874 608 Q 858 624 816 648 Q 797 657 781 650 Q 750 641 709 633 Q 655 623 586 608 Q 537 596 496 588 C 467 582 485 549 514 558 Q 548 570 600 580 L 650 591 Q 762 618 779 602 Q 792 587 790 572 Q 772 434 758 419 C 745 392 745 391 745 391 Z" fill="black" /></g></svg>