<?xml version='1.0' encoding='utf-8'?>
<svg xmlns="http://www.w3.org/2000/svg" version="1.1" viewBox="0 0 1024 1024"><g transform="scale(1, -1) translate(0, -900)"><path d="M 346 182 Q 315 166 266 137 Q 257 133 254 135 Q 248 138 249 153 Q 249 208 249 252 L 249 282 Q 249 319 250 346 L 251 379 Q 251 424 254 438 C 256 458 256 458 239 466 Q 229 473 207 478 C 178 486 167 474 181 448 Q 194 427 202 398 Q 208 373 209 275 Q 209 196 195 151 Q 188 117 155 78 Q 145 66 151 46 Q 160 19 174 7 Q 186 -2 198 13 Q 238 65 357 164 C 380 183 373 196 346 182 Z" fill="black" /></g></svg>