<?xml version='1.0' encoding='utf-8'?>
<svg xmlns="http://www.w3.org/2000/svg" version="1.1" viewBox="0 0 1024 1024"><g transform="scale(1, -1) translate(0, -900)"><path d="M 716 432 Q 735 402 753 393 Q 763 384 779 407 Q 794 429 824 553 Q 833 584 857 610 Q 870 623 859 637 Q 843 653 800 681 Q 781 690 707 670 Q 635 655 564 638 L 532 631 Q 514 628 499 625 C 470 619 493 585 522 593 Q 595 615 723 639 Q 751 643 761 634 Q 773 621 770 606 Q 746 468 727 456 C 713 436 713 436 716 432 Z" fill="black" /></g></svg>