<?xml version='1.0' encoding='utf-8'?>
<svg xmlns="http://www.w3.org/2000/svg" version="1.1" viewBox="0 0 1024 1024"><g transform="scale(1, -1) translate(0, -900)"><path d="M 765 88 Q 775 63 800 9 Q 809 -9 819 -8 Q 835 -5 845 21 Q 875 78 890 247 Q 896 296 919 326 Q 937 345 925 359 Q 903 381 856 403 Q 837 413 804 402 Q 675 359 465 346 C 435 344 460 305 490 308 Q 497 308 507 309 Q 552 318 608 326 L 652 333 Q 710 343 781 353 Q 811 357 823 344 Q 847 301 812 123 Q 811 107 803 104 Q 800 103 793 105 C 767 89 765 88 765 88 Z" fill="black" /></g></svg>