<?xml version='1.0' encoding='utf-8'?>
<svg xmlns="http://www.w3.org/2000/svg" version="1.1" viewBox="0 0 1024 1024"><g transform="scale(1, -1) translate(0, -900)"><path d="M 745 246 Q 776 307 807 401 Q 817 431 835 450 Q 851 468 838 480 Q 825 490 792 499 Q 768 505 742 489 Q 718 477 686 465 Q 653 452 598 442 Q 585 441 580 433 Q 576 426 595 419 Q 632 407 679 425 Q 719 446 727 446 Q 752 445 747 419 Q 732 341 708 285 L 686 245 Q 626 160 519 120 Q 506 114 518 108 Q 522 102 560 105 Q 641 115 715 201 L 745 246 Z" fill="black" /></g></svg>