<?xml version='1.0' encoding='utf-8'?>
<svg xmlns="http://www.w3.org/2000/svg" version="1.1" viewBox="0 0 1024 1024"><g transform="scale(1, -1) translate(0, -900)"><path d="M 454 272 Q 454 323 455 365 L 455 397 Q 456 458 457 502 L 457 533 Q 458 624 461 636 Q 462 646 462 654 C 463 668 463 668 449 679 Q 434 694 412 700 Q 402 704 391 700 Q 384 696 389 683 Q 414 587 416 581 Q 416 571 417 556 Q 433 313 397 134 Q 376 59 411 11 L 413 9 Q 423 -4 435 9 Q 451 33 453 244 L 454 272 Z" fill="black" /></g></svg>