<?xml version='1.0' encoding='utf-8'?>
<svg xmlns="http://www.w3.org/2000/svg" version="1.1" viewBox="0 0 1024 1024"><g transform="scale(1, -1) translate(0, -900)"><path d="M 419 743 Q 468 759 540 770 Q 576 777 588 769 Q 600 765 596 743 Q 575 662 582 604 Q 594 522 679 480 Q 722 462 806 457 Q 884 454 927 467 Q 964 482 948 507 Q 917 559 896 639 Q 889 655 881 659 Q 874 662 872 646 Q 872 555 854 532 Q 847 520 804 517 Q 693 511 659 548 Q 637 570 631 606 Q 625 642 640 693 Q 653 742 677 761 Q 705 783 675 799 Q 656 812 636 825 Q 621 834 564 816 Q 300 756 278 753 Q 260 752 259 737 Q 258 728 288 715 Q 318 702 358 722 Q 370 728 385 732 L 419 743 Z" fill="black" /></g></svg>