<?xml version='1.0' encoding='utf-8'?>
<svg xmlns="http://www.w3.org/2000/svg" version="1.1" viewBox="0 0 1024 1024"><g transform="scale(1, -1) translate(0, -900)"><path d="M 616 125 Q 601 107 585 90 Q 533 47 397 10 Q 382 6 391 -2 Q 398 -8 426 -6 Q 516 3 567 25 Q 613 46 650 87 L 678 124 Q 708 169 729 232 Q 738 266 758 282 Q 774 295 758 311 Q 739 329 706 343 Q 685 352 664 342 Q 630 323 583 314 C 554 308 544 278 574 282 Q 584 282 655 297 Q 674 303 674 280 Q 674 225 638 157 L 616 125 Z" fill="black" /></g></svg>