<?xml version='1.0' encoding='utf-8'?>
<svg xmlns="http://www.w3.org/2000/svg" version="1.1" viewBox="0 0 1024 1024"><g transform="scale(1, -1) translate(0, -900)"><path d="M 591 419 Q 688 440 796 431 Q 818 430 819 440 Q 820 452 785 472 Q 758 488 743 481 Q 724 475 701 472 Q 632 462 563 453 Q 532 446 518 454 Q 505 460 509 476 Q 506 540 506 607 L 507 640 Q 507 656 508 673 Q 511 697 490 715 Q 456 740 434 738 Q 415 737 425 717 Q 456 677 460 632 L 462 596 Q 468 472 457 449 Q 447 431 456 417 Q 472 395 485 394 Q 492 394 514 405 Q 536 411 565 415 L 591 419 Z" fill="black" /></g></svg>