<?xml version='1.0' encoding='utf-8'?>
<svg xmlns="http://www.w3.org/2000/svg" version="1.1" viewBox="0 0 1024 1024"><g transform="scale(1, -1) translate(0, -900)"><path d="M 506 607 Q 537 616 571 621 L 610 628 Q 644 635 686 639 L 728 643 Q 777 650 839 652 Q 894 652 900 662 Q 904 672 890 684 Q 839 717 768 694 Q 752 691 736 686 L 689 676 Q 652 669 613 660 Q 610 660 610 659 L 568 651 Q 537 647 507 640 L 460 632 Q 415 625 370 616 Q 352 613 366 599 Q 396 578 428 586 Q 443 592 462 596 L 506 607 Z" fill="black" /></g></svg>