<?xml version='1.0' encoding='utf-8'?>
<svg xmlns="http://www.w3.org/2000/svg" version="1.1" viewBox="0 0 1024 1024"><g transform="scale(1, -1) translate(0, -900)"><path d="M 499 295 Q 500 298 503 300 Q 539 351 570 435 L 583 475 Q 593 509 602 542 L 612 587 Q 618 617 623 652 L 631 700 Q 638 731 655 767 Q 661 777 653 786 Q 637 804 603 822 Q 584 834 566 830 Q 547 824 560 805 Q 585 774 582 744 Q 579 716 575 687 L 569 641 Q 563 607 556 573 L 546 529 Q 542 519 540 506 Q 534 485 528 465 L 512 422 Q 452 278 322 184 Q 303 171 281 156 Q 268 150 266 146 Q 262 139 277 139 Q 332 133 460 248 Q 466 255 474 263 L 499 295 Z" fill="black" /></g></svg>