<?xml version='1.0' encoding='utf-8'?>
<svg xmlns="http://www.w3.org/2000/svg" version="1.1" viewBox="0 0 1024 1024"><g transform="scale(1, -1) translate(0, -900)"><path d="M 482 346 Q 492 347 507 351 Q 790 409 834 388 Q 847 382 849 353 Q 853 215 841 109 Q 838 87 826 84 Q 814 80 755 94 Q 742 97 742 88 Q 743 79 760 69 Q 796 35 822 -2 Q 838 -20 854 -19 Q 869 -18 890 23 Q 915 65 915 108 Q 914 211 914 308 Q 913 345 931 375 Q 946 391 930 408 Q 911 427 867 445 Q 843 458 823 445 Q 807 441 785 433 L 732 418 Q 726 418 722 416 Q 688 410 657 404 L 623 398 Q 589 394 560 388 L 521 383 Q 481 379 455 376 C 425 373 453 340 482 346 Z" fill="black" /></g></svg>