<?xml version='1.0' encoding='utf-8'?>
<svg xmlns="http://www.w3.org/2000/svg" version="1.1" viewBox="0 0 1024 1024"><g transform="scale(1, -1) translate(0, -900)"><path d="M 642 37 Q 667 3 687 -29 Q 694 -45 705 -44 Q 720 -43 734 -14 Q 750 20 747 62 Q 741 117 736 218 Q 735 246 750 265 Q 757 275 750 285 Q 734 303 687 324 Q 671 331 657 324 Q 617 303 517 283 C 488 277 498 251 528 254 Q 543 255 567 260 Q 664 282 675 275 Q 684 269 685 87 Q 684 74 683 65 Q 679 47 662 56 Q 661 57 658 58 C 629 66 624 61 642 37 Z" fill="black" /></g></svg>