<?xml version='1.0' encoding='utf-8'?>
<svg xmlns="http://www.w3.org/2000/svg" version="1.1" viewBox="0 0 1024 1024"><g transform="scale(1, -1) translate(0, -900)"><path d="M 497 396 Q 506 406 706 431 L 736 433 Q 773 437 830 439 Q 842 439 845 434 Q 852 428 854 393 Q 863 243 846 158 Q 840 125 812 128 Q 782 134 756 139 Q 743 143 742 137 Q 741 130 751 119 Q 815 61 832 32 Q 841 19 850 21 Q 863 22 874 46 Q 895 80 901 122 Q 913 177 917 371 Q 918 407 929 426 Q 945 445 932 450 Q 917 465 883 479 Q 865 489 804 476 Q 728 472 665 459 L 619 452 Q 598 449 581 445 Q 529 435 480 426 C 451 421 468 387 497 396 Z" fill="black" /></g></svg>