<?xml version='1.0' encoding='utf-8'?>
<svg xmlns="http://www.w3.org/2000/svg" version="1.1" viewBox="0 0 1024 1024"><g transform="scale(1, -1) translate(0, -900)"><path d="M 728 623 Q 737 626 750 632 Q 801 659 814 651 Q 823 645 816 626 Q 753 485 753 483 Q 752 471 774 462 Q 883 396 869 319 Q 866 313 862 307 Q 849 300 826 306 Q 789 316 759 323 Q 752 324 751 317 Q 752 310 767 298 Q 833 256 846 227 Q 853 211 867 210 Q 880 209 896 220 Q 929 263 928 314 Q 925 395 817 472 Q 775 493 856 585 Q 877 618 906 632 Q 936 648 910 668 Q 873 699 850 710 Q 832 716 817 706 Q 799 691 719 657 Q 716 656 715 655 C 688 643 700 612 728 623 Z" fill="black" /></g></svg>