<?xml version='1.0' encoding='utf-8'?>
<svg xmlns="http://www.w3.org/2000/svg" version="1.1" viewBox="0 0 1024 1024"><g transform="scale(1, -1) translate(0, -900)"><path d="M 551 316 Q 521 301 461 267 Q 451 260 449 271 Q 453 355 454 427 L 454 458 Q 454 492 454 523 L 453 554 Q 453 590 458 621 C 460 635 460 635 446 646 Q 427 662 411 669 Q 395 675 386 670 Q 377 664 385 650 Q 436 548 404 283 Q 397 252 371 218 Q 361 203 368 184 Q 378 159 390 150 Q 402 143 412 158 Q 425 186 562 298 C 585 317 578 330 551 316 Z" fill="black" /></g></svg>