<?xml version='1.0' encoding='utf-8'?>
<svg xmlns="http://www.w3.org/2000/svg" version="1.1" viewBox="0 0 1024 1024"><g transform="scale(1, -1) translate(0, -900)"><path d="M 740 316 Q 755 297 769 290 Q 779 283 793 303 Q 805 324 828 436 Q 835 464 857 489 Q 869 501 857 513 Q 842 529 802 552 Q 786 556 627 517 Q 621 516 617 513 L 594 507 Q 588 507 582 504 C 553 497 572 460 599 472 Q 608 481 743 509 Q 762 513 769 506 Q 779 494 778 481 Q 766 400 750 350 C 741 321 740 316 740 316 Z" fill="black" /></g></svg>