<?xml version='1.0' encoding='utf-8'?>
<svg xmlns="http://www.w3.org/2000/svg" version="1.1" viewBox="0 0 1024 1024"><g transform="scale(1, -1) translate(0, -900)"><path d="M 486 442 Q 504 433 551 448 Q 689 490 808 500 Q 826 503 834 501 Q 849 494 848 486 L 829 428 Q 823 416 829 413 Q 836 409 849 420 Q 892 451 930 461 Q 960 471 959 477 Q 958 486 894 530 Q 872 545 794 527 Q 752 521 705 511 L 670 504 Q 621 497 561 484 Q 521 477 479 470 Q 478 470 479 469 C 450 462 457 448 486 442 Z" fill="black" /></g></svg>