<?xml version='1.0' encoding='utf-8'?>
<svg xmlns="http://www.w3.org/2000/svg" version="1.1" viewBox="0 0 1024 1024"><g transform="scale(1, -1) translate(0, -900)"><path d="M 759 441 Q 760 437 764 432 Q 783 398 807 422 Q 822 437 832 472 Q 856 595 886 630 Q 902 648 889 665 Q 873 684 843 704 Q 827 713 810 708 Q 767 695 715 690 Q 696 689 699 679 Q 703 669 718 662 Q 727 659 780 664 Q 798 665 804 661 Q 811 655 807 627 Q 803 611 800 593 L 794 560 Q 779 479 774 469 C 765 440 755 448 759 441 Z" fill="black" /></g></svg>