<?xml version='1.0' encoding='utf-8'?>
<svg xmlns="http://www.w3.org/2000/svg" version="1.1" viewBox="0 0 1024 1024"><g transform="scale(1, -1) translate(0, -900)"><path d="M 414 365 Q 401 364 409 356 Q 416 347 429 344 Q 447 341 523 368 Q 535 374 543 368 Q 549 362 549 343 Q 556 186 549 92 Q 548 68 540 58 Q 537 55 481 63 Q 463 67 465 60 Q 508 21 533 -7 Q 543 -23 557 -28 Q 564 -31 572 -23 Q 608 23 606 65 Q 588 320 606 356 Q 616 372 606 381 Q 588 396 557 408 Q 539 414 503 392 Q 469 376 414 365 Z" fill="black" /></g></svg>