<?xml version='1.0' encoding='utf-8'?>
<svg xmlns="http://www.w3.org/2000/svg" version="1.1" viewBox="0 0 1024 1024"><g transform="scale(1, -1) translate(0, -900)"><path d="M 652 264 Q 664 252 703 246 Q 728 240 738 226 Q 748 199 703 101 Q 681 59 663 55 Q 654 51 615 60 Q 578 76 574 70 Q 568 61 586 49 Q 620 19 629 -17 Q 633 -33 644 -40 Q 657 -46 691 -25 Q 742 12 777 126 Q 792 181 813 196 Q 825 200 826 209 Q 829 219 806 245 Q 773 278 722 278 Q 713 279 669 290 C 640 297 627 280 652 264 Z" fill="black" /></g></svg>