<?xml version='1.0' encoding='utf-8'?>
<svg xmlns="http://www.w3.org/2000/svg" version="1.1" viewBox="0 0 1024 1024"><g transform="scale(1, -1) translate(0, -900)"><path d="M 930 37 Q 927 50 909 68 Q 881 96 809 192 Q 803 201 797 202 Q 794 201 795 193 Q 805 147 814 96 Q 818 75 804 64 Q 773 43 672 64 Q 594 83 567 136 Q 551 172 542 211 Q 538 236 520 248 Q 504 258 498 251 Q 494 247 499 230 Q 505 214 518 165 Q 537 57 630 16 Q 637 15 646 10 Q 781 -36 916 27 Q 931 31 930 37 Z" fill="black" /></g></svg>