<?xml version='1.0' encoding='utf-8'?>
<svg xmlns="http://www.w3.org/2000/svg" version="1.1" viewBox="0 0 1024 1024"><g transform="scale(1, -1) translate(0, -900)"><path d="M 793 228 Q 794 63 781 42 Q 777 36 757 41 Q 732 45 707 51 Q 688 57 689 47 Q 744 2 774 -30 Q 787 -49 801 -53 Q 810 -57 818 -47 Q 857 -2 855 51 Q 833 342 855 381 Q 867 400 856 410 Q 835 428 801 442 Q 780 451 740 426 Q 713 414 642 403 Q 627 402 636 393 Q 645 383 659 378 Q 677 375 760 398 Q 775 402 783 394 Q 789 388 793 249 L 793 228 Z" fill="black" /></g></svg>