<?xml version='1.0' encoding='utf-8'?>
<svg xmlns="http://www.w3.org/2000/svg" version="1.1" viewBox="0 0 1024 1024"><g transform="scale(1, -1) translate(0, -900)"><path d="M 663 479 Q 664 448 664 408 L 663 379 Q 663 361 660 315 L 657 279 Q 653 239 662 211 Q 666 201 675 206 Q 693 224 693 284 L 697 323 Q 700 356 702 386 L 705 415 Q 706 437 708 458 Q 709 474 710 489 L 715 524 Q 716 536 719 544 Q 726 560 717 571 Q 704 583 680 595 Q 661 602 642 595 Q 632 589 643 575 Q 661 542 662 508 L 663 479 Z" fill="black" /></g></svg>