<?xml version='1.0' encoding='utf-8'?>
<svg xmlns="http://www.w3.org/2000/svg" version="1.1" viewBox="0 0 1024 1024"><g transform="scale(1, -1) translate(0, -900)"><path d="M 550 344 Q 646 386 817 404 Q 856 401 851 367 Q 855 352 847 213 Q 840 131 824 98 Q 815 79 794 80 Q 772 83 749 84 Q 731 90 728 85 Q 725 79 741 69 Q 798 5 802 -14 Q 806 -23 817 -23 Q 833 -24 862 9 Q 889 43 897 123 Q 915 367 937 385 Q 944 392 944 399 Q 944 406 913 427 Q 882 445 875 445 Q 865 446 842 439 Q 826 435 803 433 Q 763 429 701 415 Q 698 415 698 414 L 656 406 Q 604 397 571 386 Q 544 382 542 401 C 519 420 522 333 550 344 Z" fill="black" /></g></svg>