<?xml version='1.0' encoding='utf-8'?>
<svg xmlns="http://www.w3.org/2000/svg" version="1.1" viewBox="0 0 1024 1024"><g transform="scale(1, -1) translate(0, -900)"><path d="M 805 341 Q 811 377 818 400 L 832 440 Q 844 467 859 481 Q 874 499 859 514 Q 795 560 742 534 Q 729 530 715 524 L 662 508 Q 610 496 560 489 Q 547 488 548 479 Q 549 472 566 467 Q 588 458 618 469 Q 640 475 663 479 L 710 489 Q 765 501 772 496 Q 785 484 777 428 L 772 396 Q 766 368 760 339 C 754 310 800 311 805 341 Z" fill="black" /></g></svg>