<?xml version='1.0' encoding='utf-8'?>
<svg xmlns="http://www.w3.org/2000/svg" version="1.1" viewBox="0 0 1024 1024"><g transform="scale(1, -1) translate(0, -900)"><path d="M 793 666 Q 833 673 872 678 Q 881 677 889 688 Q 890 698 870 708 Q 840 730 798 713 L 761 703 Q 733 696 707 689 L 664 678 Q 628 671 598 664 L 563 658 Q 541 655 522 652 L 480 646 Q 446 643 412 638 Q 387 634 406 619 Q 440 595 476 606 Q 477 606 479 606 L 518 615 Q 540 621 565 625 L 598 632 Q 628 639 662 645 L 701 652 Q 711 655 760 661 L 793 666 Z" fill="black" /></g></svg>