<?xml version='1.0' encoding='utf-8'?>
<svg xmlns="http://www.w3.org/2000/svg" version="1.1" viewBox="0 0 1024 1024"><g transform="scale(1, -1) translate(0, -900)"><path d="M 479 491 Q 497 482 553 496 Q 616 520 785 540 Q 815 544 826 543 Q 838 536 837 531 Q 837 527 810 472 Q 803 462 809 457 Q 815 453 831 462 Q 880 489 919 495 Q 950 502 951 509 Q 950 519 887 568 Q 866 586 779 568 Q 763 567 665 549 L 624 542 Q 591 538 556 531 Q 516 524 475 519 Q 474 519 473 518 C 443 513 450 497 479 491 Z" fill="black" /></g></svg>