<?xml version='1.0' encoding='utf-8'?>
<svg xmlns="http://www.w3.org/2000/svg" version="1.1" viewBox="0 0 1024 1024"><g transform="scale(1, -1) translate(0, -900)"><path d="M 678 324 Q 715 331 739 333 Q 761 333 767 325 Q 779 316 779 283 Q 778 252 779 211 Q 780 183 770 170 Q 766 161 745 166 Q 697 170 695 169 Q 691 165 705 155 Q 748 118 774 88 Q 786 76 802 83 Q 812 87 820 110 Q 838 147 835 191 Q 828 291 838 324 Q 845 337 838 346 Q 819 358 789 370 Q 773 377 759 371 Q 731 359 679 349 L 628 340 Q 582 334 524 329 C 494 326 508 296 538 300 Q 542 300 549 301 Q 592 310 628 315 L 678 324 Z" fill="black" /></g></svg>