<?xml version='1.0' encoding='utf-8'?>
<svg xmlns="http://www.w3.org/2000/svg" version="1.1" viewBox="0 0 1024 1024"><g transform="scale(1, -1) translate(0, -900)"><path d="M 604 293 Q 574 220 532 180 Q 522 170 526 160 Q 533 147 556 133 Q 566 126 575 136 Q 600 164 729 207 Q 730 208 734 208 C 763 216 750 230 720 226 Q 668 219 611 202 Q 605 201 604 201 Q 601 204 605 213 Q 632 268 650 303 L 668 336 Q 680 360 686 368 Q 693 377 687 387 Q 680 396 638 408 Q 625 412 617 408 Q 607 401 615 385 Q 625 366 616 333 Q 615 332 614 327 L 604 293 Z" fill="black" /></g></svg>