<?xml version='1.0' encoding='utf-8'?>
<svg xmlns="http://www.w3.org/2000/svg" version="1.1" viewBox="0 0 1024 1024"><g transform="scale(1, -1) translate(0, -900)"><path d="M 760 661 Q 760 583 781 560 Q 782 559 785 556 Q 816 525 924 538 Q 925 539 927 539 Q 946 543 953 553 Q 957 560 950 576 Q 937 598 924 651 Q 923 661 916 665 Q 912 666 910 657 Q 885 588 872 579 Q 857 573 825 575 Q 816 575 812 578 Q 791 594 793 666 L 798 713 Q 804 750 813 770 Q 819 783 813 792 Q 804 802 779 814 Q 757 823 750 817 Q 744 813 752 797 Q 765 776 761 703 L 760 661 Z" fill="black" /></g></svg>