<?xml version='1.0' encoding='utf-8'?>
<svg xmlns="http://www.w3.org/2000/svg" version="1.1" viewBox="0 0 1024 1024"><g transform="scale(1, -1) translate(0, -900)"><path d="M 483 260 Q 496 259 511 264 Q 544 279 604 293 L 650 303 Q 723 319 814 326 Q 833 325 841 315 Q 847 308 843 295 Q 842 106 827 79 Q 824 70 812 73 Q 778 80 739 90 Q 712 94 731 76 Q 806 22 837 -18 Q 849 -31 862 -21 Q 878 -5 886 23 Q 896 51 898 208 Q 897 266 915 295 Q 928 314 922 322 Q 915 334 867 363 Q 851 376 836 370 Q 809 360 761 350 Q 709 343 668 336 L 614 327 Q 568 320 543 312 Q 503 302 473 297 C 444 291 453 256 483 260 Z" fill="black" /></g></svg>