<?xml version='1.0' encoding='utf-8'?>
<svg xmlns="http://www.w3.org/2000/svg" version="1.1" viewBox="0 0 1024 1024"><g transform="scale(1, -1) translate(0, -900)"><path d="M 560 207 Q 548 183 537 166 Q 528 150 531 139 Q 534 130 549 127 Q 586 117 628 96 L 669 74 Q 727 41 812 -26 Q 836 -45 851 -44 Q 870 -44 870 -26 Q 870 -7 844 33 Q 829 60 697 109 L 651 126 Q 617 139 589 145 Q 570 149 580 167 Q 593 194 604 212 L 624 246 Q 633 268 643 281 Q 652 288 649 296 Q 645 306 621 326 C 599 346 584 351 587 321 Q 594 300 573 239 L 560 207 Z" fill="black" /></g></svg>