<?xml version='1.0' encoding='utf-8'?>
<svg xmlns="http://www.w3.org/2000/svg" version="1.1" viewBox="0 0 1024 1024"><g transform="scale(1, -1) translate(0, -900)"><path d="M 662 444 L 664 500 L 665 533 Q 665 558 665 584 L 666 608 Q 666 642 667 674 L 667 702 Q 667 703 668 704 Q 671 746 685 814 Q 688 824 669 838 Q 635 854 613 859 Q 597 862 590 853 Q 583 846 591 832 Q 619 792 620 763 Q 621 729 623 693 L 624 665 Q 625 634 625 602 L 626 578 Q 626 551 626 523 L 625 494 Q 624 466 623 436 L 623 412 Q 622 384 621 354 C 620 324 660 331 660 361 Q 660 391 661 419 L 662 444 Z" fill="black" /></g></svg>