<?xml version='1.0' encoding='utf-8'?>
<svg xmlns="http://www.w3.org/2000/svg" version="1.1" viewBox="0 0 1024 1024"><g transform="scale(1, -1) translate(0, -900)"><path d="M 762 474 Q 778 449 792 441 Q 802 434 818 453 Q 828 466 856 546 Q 865 574 888 598 Q 901 610 891 624 Q 876 640 836 667 Q 817 677 802 670 Q 769 663 730 655 L 680 646 Q 646 642 608 633 L 565 625 Q 522 618 487 611 C 458 605 475 570 503 580 Q 503 581 504 581 Q 532 590 569 597 L 609 606 Q 640 613 678 619 L 723 626 Q 736 630 752 631 Q 788 635 799 624 Q 806 614 805 605 Q 784 509 769 502 C 755 484 755 484 762 474 Z" fill="black" /></g></svg>