<?xml version='1.0' encoding='utf-8'?>
<svg xmlns="http://www.w3.org/2000/svg" version="1.1" viewBox="0 0 1024 1024"><g transform="scale(1, -1) translate(0, -900)"><path d="M 645 555 Q 609 556 579 555 Q 557 555 569 570 Q 599 610 627 642 Q 637 654 636 659 Q 635 669 608 691 Q 607 692 604 693 C 579 709 569 716 579 689 Q 580 688 581 685 Q 590 661 549 591 Q 542 576 524 562 Q 511 552 512 544 Q 515 531 524 519 Q 531 512 540 516 Q 559 526 626 537 Q 627 538 631 537 C 661 539 675 554 645 555 Z" fill="black" /></g></svg>