<?xml version='1.0' encoding='utf-8'?>
<svg xmlns="http://www.w3.org/2000/svg" version="1.1" viewBox="0 0 1024 1024"><g transform="scale(1, -1) translate(0, -900)"><path d="M 620 423 Q 581 416 557 410 L 450 384 C 421 377 426 339 455 347 Q 466 347 480 353 Q 515 367 621 384 L 661 392 Q 686 398 831 414 Q 843 414 847 409 Q 857 402 859 338 Q 863 254 858 178 Q 854 121 847 102 Q 838 79 817 81 Q 788 90 774 94 Q 743 104 741 98 Q 740 94 741 90 Q 746 80 778 50 Q 822 8 835 -16 Q 845 -29 855 -27 Q 862 -26 869 -18 Q 913 33 920 293 Q 920 380 933 404 Q 944 419 940 426 Q 939 429 931 434 Q 909 449 880 461 Q 857 474 832 464 Q 813 457 765 449 Q 670 433 662 431 L 620 423 Z" fill="black" /></g></svg>