<?xml version='1.0' encoding='utf-8'?>
<svg xmlns="http://www.w3.org/2000/svg" version="1.1" viewBox="0 0 1024 1024"><g transform="scale(1, -1) translate(0, -900)"><path d="M 796 411 L 796 412 L 811 468 L 832 515 Q 838 525 853 543 Q 864 557 859 566 Q 857 574 855 575 Q 798 621 759 608 L 684 584 L 641 575 Q 525 556 520 555 Q 506 554 507 545 Q 511 536 530 530 Q 549 524 580 531 L 641 545 L 680 553 Q 749 568 762 560 L 764 559 Q 774 551 770 504 L 764 466 Q 756 429 753 415 C 747 386 789 382 796 411 Z" fill="black" /></g></svg>