<?xml version='1.0' encoding='utf-8'?>
<svg xmlns="http://www.w3.org/2000/svg" version="1.1" viewBox="0 0 1024 1024"><g transform="scale(1, -1) translate(0, -900)"><path d="M 694 303 Q 707 281 721 274 Q 730 267 744 285 Q 754 301 782 387 Q 789 414 811 435 Q 823 445 813 458 Q 800 474 764 498 Q 749 505 683 491 Q 674 491 577 472 Q 534 463 501 457 C 472 452 491 419 520 428 Q 519 429 522 429 Q 585 447 698 462 Q 722 466 730 457 Q 739 447 736 437 Q 721 364 707 333 C 696 305 693 304 694 303 Z" fill="black" /></g></svg>