<?xml version='1.0' encoding='utf-8'?>
<svg xmlns="http://www.w3.org/2000/svg" version="1.1" viewBox="0 0 1024 1024"><g transform="scale(1, -1) translate(0, -900)"><path d="M 629 -35 Q 633 -55 639 -64.5 Q 645 -74 654 -67 Q 659 -62 662 -53 Q 678 -4 676 112 L 675 332 Q 676 347 676 361 L 676 398 L 676 458 L 678 489 Q 678 510 678 519 Q 678 543 680 553 L 684 584 L 692 619 Q 693 633 682 639 Q 645 662 632 662 Q 623 661 618 657 Q 611 651 616 640 L 629 617 Q 637 604 641 575 L 641 545 Q 641 508 641 482 L 641 453 L 639 390 L 637 355 Q 625 -14 629 -35 Z" fill="black" /></g></svg>