<?xml version='1.0' encoding='utf-8'?>
<svg xmlns="http://www.w3.org/2000/svg" version="1.1" viewBox="0 0 1024 1024"><g transform="scale(1, -1) translate(0, -900)"><path d="M 624 237 Q 615 -25 638 -61 Q 644 -68 651 -66 Q 667 -56 671 -1 Q 672 27 674 243 L 674 282 Q 674 322 675 371 L 676 408 Q 676 424 677 439 Q 677 449 677 458 L 683 499 Q 684 509 687 517 Q 690 535 676 543 Q 669 549 662 552 C 637 568 588 565 604 540 Q 608 534 613 527 Q 623 509 624 482 L 625 451 Q 625 426 625 396 L 625 364 Q 625 322 624 274 L 624 237 Z" fill="black" /></g></svg>