<?xml version='1.0' encoding='utf-8'?>
<svg xmlns="http://www.w3.org/2000/svg" version="1.1" viewBox="0 0 1024 1024"><g transform="scale(1, -1) translate(0, -900)"><path d="M 744 414 Q 757 399 769 394 Q 779 387 793 407 Q 803 423 822 516 Q 829 546 850 570 Q 862 582 851 595 Q 836 610 795 632 Q 777 641 699 619 Q 687 619 664 612 L 617 602 Q 608 602 504 578 C 475 571 485 537 514 546 Q 554 559 617 571 L 663 580 Q 747 598 761 586 Q 771 576 769 565 Q 759 475 753 461 Q 749 451 737 447 C 722 436 723 435 744 414 Z" fill="black" /></g></svg>