<?xml version='1.0' encoding='utf-8'?>
<svg xmlns="http://www.w3.org/2000/svg" version="1.1" viewBox="0 0 1024 1024"><g transform="scale(1, -1) translate(0, -900)"><path d="M 645 266 Q 645 263 647 258 Q 657 224 655 189 Q 648 66 658 32 Q 662 11 681 -7 Q 760 -67 911 -34 Q 912 -33 916 -33 Q 952 -23 986 1 Q 1007 19 991 46 Q 976 74 954 161 Q 953 177 945 182 Q 938 185 935 167 Q 911 71 894 42 Q 867 12 785 15 Q 754 16 728 26 Q 706 36 701 49 Q 680 91 706 233 Q 712 257 679 273 C 654 289 638 295 645 266 Z" fill="black" /></g></svg>