<?xml version='1.0' encoding='utf-8'?>
<svg xmlns="http://www.w3.org/2000/svg" version="1.1" viewBox="0 0 1024 1024"><g transform="scale(1, -1) translate(0, -900)"><path d="M 761 381 Q 774 362 789 353 Q 799 346 814 366 Q 826 385 854 486 Q 863 517 886 541 Q 899 553 888 567 Q 873 583 831 609 Q 816 618 729 597 Q 726 597 599 572 Q 548 560 506 553 C 476 548 497 513 526 521 Q 559 531 604 540 L 662 552 Q 776 577 794 563 Q 806 556 802 539 Q 781 431 768 416 C 755 389 755 389 761 381 Z" fill="black" /></g></svg>