<?xml version='1.0' encoding='utf-8'?>
<svg xmlns="http://www.w3.org/2000/svg" version="1.1" viewBox="0 0 1024 1024"><g transform="scale(1, -1) translate(0, -900)"><path d="M 351 627 Q 445 651 457 640 Q 472 631 463 454 Q 463 441 458 438 Q 448 431 399 440 Q 389 441 389 436 Q 390 432 399 427 Q 442 399 466 375 Q 479 362 488 364 Q 497 365 504 385 Q 513 413 508 532 Q 502 601 513 626 Q 520 639 514 648 Q 507 658 475 674 Q 462 680 392 660 L 367 654 Q 360 654 357 652 Q 302 642 247 633 C 217 628 229 597 258 605 Q 257 606 259 606 Q 287 613 320 621 L 351 627 Z" fill="black" /></g></svg>