<?xml version='1.0' encoding='utf-8'?>
<svg xmlns="http://www.w3.org/2000/svg" version="1.1" viewBox="0 0 1024 1024"><g transform="scale(1, -1) translate(0, -900)"><path d="M 657 736 Q 711 749 756 754 Q 772 755 775 750 Q 779 746 779 729 Q 779 686 771 667 Q 755 642 733 646 Q 709 655 688 664 Q 669 671 682 652 Q 719 613 738 584 Q 747 571 759 580 Q 801 604 826 709 Q 833 736 844 748 Q 854 758 850 767 Q 843 777 801 796 Q 785 803 769 793 Q 751 783 682 770 Q 613 754 555 752 Q 542 751 538 744 Q 537 738 555 728 Q 574 715 591 721 Q 607 725 624 729 L 657 736 Z" fill="black" /></g></svg>