<?xml version='1.0' encoding='utf-8'?>
<svg xmlns="http://www.w3.org/2000/svg" version="1.1" viewBox="0 0 1024 1024"><g transform="scale(1, -1) translate(0, -900)"><path d="M 344 676 Q 348 663 348 634 Q 347 618 327 598 Q 320 589 322 579 Q 323 569 339 559 Q 349 553 360 564 Q 459 615 673 604 Q 676 604 681 603 Q 699 602 706 612 Q 710 619 695 630 Q 653 661 595 647 Q 580 644 567 641 Q 483 629 404 610 Q 376 601 383 627 Q 390 655 396 666 Q 402 675 396 685 C 391 715 338 705 344 676 Z" fill="black" /></g></svg>