<?xml version='1.0' encoding='utf-8'?>
<svg xmlns="http://www.w3.org/2000/svg" version="1.1" viewBox="0 0 1024 1024"><g transform="scale(1, -1) translate(0, -900)"><path d="M 740 113 Q 788 17 850 -34 Q 914 -71 931 -58 Q 947 -51 942 -18 Q 935 7 927 105 Q 927 123 922 126 Q 919 127 915 111 Q 897 38 882 25 Q 875 22 851 41 Q 811 77 773 140 L 756 179 Q 729 248 721 322 L 718 359 Q 718 407 726 431 Q 733 452 699 473 Q 671 491 657 488 Q 641 487 649 464 Q 668 431 671 395 Q 672 371 677 347 L 682 315 Q 700 210 727 145 L 740 113 Z" fill="black" /></g></svg>