<?xml version='1.0' encoding='utf-8'?>
<svg xmlns="http://www.w3.org/2000/svg" version="1.1" viewBox="0 0 1024 1024"><g transform="scale(1, -1) translate(0, -900)"><path d="M 575 320 Q 575 332 575 341 Q 575 357 565 362 Q 550 372 537 377 C 510 389 501 394 515 368 Q 528 350 534 309 L 538 279 Q 541 252 543 218 L 543 187 Q 543 97 526 72 Q 525 68 520 66 Q 514 63 471 67 Q 464 68 462 65 Q 461 61 468 55 Q 499 18 517 -8 Q 521 -17 527 -17 Q 554 -11 571 29 Q 589 68 582 206 L 582 209 L 581 235 Q 578 274 578 290 L 575 320 Z" fill="black" /></g></svg>