<?xml version='1.0' encoding='utf-8'?>
<svg xmlns="http://www.w3.org/2000/svg" version="1.1" viewBox="0 0 1024 1024"><g transform="scale(1, -1) translate(0, -900)"><path d="M 564 183 Q 564 122 584 82 Q 600 48 632 31 Q 677 10 744 8 Q 822 7 872 19 Q 924 37 942 47 Q 963 57 950 92 Q 934 134 930 187 Q 929 203 924 205 Q 918 206 916 189 Q 907 140 894 111 Q 887 92 858 80 Q 825 65 766 65 Q 699 66 666 79 Q 635 94 625 119 Q 591 197 613 564 Q 613 654 611 659 Q 601 675 586 687 C 565 709 549 712 555 683 Q 556 682 557 678 Q 569 623 569 556 L 568 525 Q 568 461 567 417 L 567 385 Q 567 346 564 309 L 564 282 Q 563 246 563 212 L 564 183 Z" fill="black" /></g></svg>