<?xml version='1.0' encoding='utf-8'?>
<svg xmlns="http://www.w3.org/2000/svg" version="1.1" viewBox="0 0 1024 1024"><g transform="scale(1, -1) translate(0, -900)"><path d="M 551 511 Q 566 454 568 449 L 569 419 Q 570 418 569 363 L 569 333 Q 568 305 565 272 L 560 200 Q 559 146 539 80 Q 527 35 555 -7 Q 564 -19 574 -8 Q 587 10 596 186 Q 597 219 599 246 L 600 277 Q 601 311 603 339 L 604 368 Q 605 404 607 427 L 609 455 Q 609 467 611 470 Q 615 488 610 495 Q 609 505 592 514 Q 589 517 586 517 C 560 532 543 540 551 511 Z" fill="black" /></g></svg>