<?xml version='1.0' encoding='utf-8'?>
<svg xmlns="http://www.w3.org/2000/svg" version="1.1" viewBox="0 0 1024 1024"><g transform="scale(1, -1) translate(0, -900)"><path d="M 334 207 Q 338 217 328 225 Q 313 240 291 247 Q 281 250 275 244 Q 271 240 279 228 Q 292 209 293 180 Q 292 140 276 119 Q 269 107 274 99 Q 281 86 296 75 Q 306 68 317 80 Q 357 125 492 144 Q 508 144 514 151 Q 518 155 512 164 Q 506 171 475 182 Q 450 191 333 134 Q 329 131 327 132 Q 323 135 325 143 Q 329 192 334 207 Z" fill="black" /></g></svg>