<?xml version='1.0' encoding='utf-8'?>
<svg xmlns="http://www.w3.org/2000/svg" version="1.1" viewBox="0 0 1024 1024"><g transform="scale(1, -1) translate(0, -900)"><path d="M 672 82 Q 703 119 727 171 Q 739 205 760 219 Q 778 232 762 249 Q 743 268 712 285 Q 693 295 669 286 Q 618 261 548 251 Q 520 250 508 243 Q 499 236 518 226 Q 543 211 584 223 Q 623 230 660 240 Q 675 246 676 228 Q 676 173 627 110 L 598 79 Q 523 27 371 -7 Q 355 -8 363 -18 Q 370 -25 399 -26 Q 496 -19 552 0 Q 598 16 634 45 L 672 82 Z" fill="black" /></g></svg>