<?xml version='1.0' encoding='utf-8'?>
<svg xmlns="http://www.w3.org/2000/svg" version="1.1" viewBox="0 0 1024 1024"><g transform="scale(1, -1) translate(0, -900)"><path d="M 457 587 Q 458 586 461 585 Q 465 584 468 580 L 506 548 Q 512 541 518 532 L 535 486 Q 541 468 532 424 Q 528 406 522 404 Q 518 400 470 399 Q 433 403 432 396 Q 432 389 443 380 Q 495 346 517 322 Q 530 309 541 312 Q 553 316 563 333 Q 599 414 574 491 L 553 541 Q 517 590 470 606 C 442 617 431 603 457 587 Z" fill="black" /></g></svg>