<?xml version='1.0' encoding='utf-8'?>
<svg xmlns="http://www.w3.org/2000/svg" version="1.1" viewBox="0 0 1024 1024"><g transform="scale(1, -1) translate(0, -900)"><path d="M 736 378 Q 740 365 751 364 Q 764 365 772 378 Q 784 391 809 456 Q 825 499 858 523 Q 876 536 862 550 Q 849 565 807 590 Q 794 600 733 583 Q 682 576 576 545 Q 522 530 485 521 C 456 514 476 483 502 497 Q 512 509 647 541 L 679 548 Q 760 570 778 563 Q 785 557 779 530 Q 751 430 740 410 Q 736 403 735 395 L 736 378 Z" fill="black" /></g></svg>