<?xml version='1.0' encoding='utf-8'?>
<svg xmlns="http://www.w3.org/2000/svg" version="1.1" viewBox="0 0 1024 1024"><g transform="scale(1, -1) translate(0, -900)"><path d="M 717 107 Q 759 37 833 -9 Q 897 -40 915 -26 Q 930 -17 922 13 Q 915 43 911 149 Q 911 167 906 170 Q 903 171 899 155 Q 874 70 856 54 Q 849 50 827 64 Q 772 100 747 141 L 723 182 Q 692 239 674 314 L 670 354 Q 669 370 672 380 Q 676 402 639 417 Q 609 430 595 425 Q 579 421 591 401 Q 613 373 621 340 L 631 305 Q 656 220 696 142 L 717 107 Z" fill="black" /></g></svg>