<?xml version='1.0' encoding='utf-8'?>
<svg xmlns="http://www.w3.org/2000/svg" version="1.1" viewBox="0 0 1024 1024"><g transform="scale(1, -1) translate(0, -900)"><path d="M 718 453 Q 731 431 745 423 Q 752 416 767 433 Q 776 445 800 516 Q 807 541 828 561 Q 838 571 830 583 Q 818 596 783 619 Q 768 628 690 610 Q 681 610 476 572 C 447 567 463 538 492 546 Q 517 553 551 560 L 568 563 Q 602 570 645 578 L 669 581 Q 736 596 752 582 Q 759 573 757 565 Q 742 484 730 476 C 717 455 717 455 718 453 Z" fill="black" /></g></svg>