<?xml version='1.0' encoding='utf-8'?>
<svg xmlns="http://www.w3.org/2000/svg" version="1.1" viewBox="0 0 1024 1024"><g transform="scale(1, -1) translate(0, -900)"><path d="M 376 473 Q 398 506 422 549 L 438 581 Q 448 605 462 632 L 477 669 Q 486 694 497 721 L 512 765 Q 513 769 515 773 Q 524 789 528 800 Q 540 816 523 832 Q 486 868 471 869 Q 452 870 461 847 Q 467 817 452 753 L 440 712 Q 431 690 420 660 L 406 623 Q 405 622 405 619 Q 396 597 384 574 L 364 540 Q 289 429 164 365 Q 143 355 138 350 Q 134 344 145 341 Q 184 331 272 382 Q 320 410 356 449 L 376 473 Z" fill="black" /></g></svg>