<?xml version='1.0' encoding='utf-8'?>
<svg xmlns="http://www.w3.org/2000/svg" version="1.1" viewBox="0 0 1024 1024"><g transform="scale(1, -1) translate(0, -900)"><path d="M 650 266 Q 649 333 651 437 L 651 469 Q 651 491 651 515 L 652 542 Q 653 572 656 589 Q 656 592 656 594 L 661 623 Q 662 630 663 635 Q 666 650 654 658 Q 626 676 614 678 Q 604 682 590 675 Q 583 668 589 659 Q 593 649 600 638 Q 607 626 610 610 L 613 585 Q 613 584 614 536 L 614 510 Q 613 488 614 462 L 613 432 Q 610 353 608 256 L 607 225 Q 607 -21 615 -38 Q 616 -42 619 -46 Q 623 -52 630 -49 Q 637 -46 641 -33 Q 659 27 651 233 L 650 266 Z" fill="black" /></g></svg>