<?xml version='1.0' encoding='utf-8'?>
<svg xmlns="http://www.w3.org/2000/svg" version="1.1" viewBox="0 0 1024 1024"><g transform="scale(1, -1) translate(0, -900)"><path d="M 753 483 Q 760 508 768 525 L 791 568 Q 798 581 809 587 Q 822 602 811 616 Q 798 626 756 647 Q 741 653 661 623 L 610 610 Q 552 598 493 591 Q 480 590 481 582 Q 482 575 498 571 Q 519 562 547 572 Q 580 579 613 585 L 656 594 Q 680 601 705 605 Q 724 609 733 602 Q 742 595 739 577 Q 736 567 734 556 L 725 522 L 713 484 C 704 455 744 454 753 483 Z" fill="black" /></g></svg>