<?xml version='1.0' encoding='utf-8'?>
<svg xmlns="http://www.w3.org/2000/svg" version="1.1" viewBox="0 0 1024 1024"><g transform="scale(1, -1) translate(0, -900)"><path d="M 667 177 Q 668 219 669 257 L 669 289 Q 670 319 671 346 L 672 375 Q 673 400 674 423 L 676 457 Q 676 458 677 459 Q 683 474 675 482 Q 663 494 651 501 C 626 518 605 521 617 494 Q 621 484 626 476 Q 630 463 630 442 L 631 414 Q 631 396 631 365 L 631 339 Q 631 314 631 281 L 631 250 Q 631 214 631 168 C 631 138 666 147 667 177 Z" fill="black" /></g></svg>