<?xml version='1.0' encoding='utf-8'?>
<svg xmlns="http://www.w3.org/2000/svg" version="1.1" viewBox="0 0 1024 1024"><g transform="scale(1, -1) translate(0, -900)"><path d="M 679 46 Q 680 92 683 135 L 684 164 Q 685 201 688 236 Q 688 242 689 246 C 691 270 691 270 693 275 Q 693 276 694 276 Q 697 289 700 300 Q 703 310 686 321 Q 658 336 638 339 Q 625 342 618 334 Q 612 328 619 316 Q 637 292 637 263 L 639 237 Q 640 200 643 157 L 644 130 Q 644 87 644 41 C 644 11 678 16 679 46 Z" fill="black" /></g></svg>