<?xml version='1.0' encoding='utf-8'?>
<svg xmlns="http://www.w3.org/2000/svg" version="1.1" viewBox="0 0 1024 1024"><g transform="scale(1, -1) translate(0, -900)"><path d="M 417 777 Q 410 784 391 792 Q 376 801 370 795 Q 366 791 371 779 Q 410 704 378 435 Q 374 420 365 403 Q 358 393 365 378 Q 372 363 379 357 Q 386 353 398 361 Q 447 400 606 413 Q 622 413 622 421 Q 621 431 601 443 Q 592 449 504 432 Q 486 432 432 417 Q 417 414 420 478 Q 421 581 422 704 Q 422 735 425 754 C 427 771 427 771 417 777 Z" fill="black" /></g></svg>