<?xml version='1.0' encoding='utf-8'?>
<svg xmlns="http://www.w3.org/2000/svg" version="1.1" viewBox="0 0 1024 1024"><g transform="scale(1, -1) translate(0, -900)"><path d="M 635 346 Q 622 345 629 337 Q 636 327 650 322 Q 660 319 755 340 Q 768 344 777 336 Q 783 330 782 310 Q 786 150 778 53 Q 777 28 768 17 Q 764 13 746 17 Q 692 26 693 20 Q 736 -22 758 -51 Q 770 -69 784 -74 Q 791 -78 800 -69 Q 839 -18 838 23 Q 825 287 845 322 Q 857 340 846 349 Q 827 367 795 381 Q 779 388 765 382 Q 714 354 635 346 Z" fill="black" /></g></svg>