<?xml version='1.0' encoding='utf-8'?>
<svg xmlns="http://www.w3.org/2000/svg" version="1.1" viewBox="0 0 1024 1024"><g transform="scale(1, -1) translate(0, -900)"><path d="M 796 616 Q 800 606 811 605 Q 823 606 830 618 Q 837 625 854 668 Q 869 711 900 736 Q 916 749 903 762 Q 888 777 847 800 Q 835 807 762 792 Q 749 792 529 752 C 499 747 506 716 535 724 Q 559 731 595 738 L 616 743 Q 649 750 696 757 L 734 762 Q 797 777 818 765 Q 825 761 821 740 Q 805 662 798 647 C 789 622 789 622 796 616 Z" fill="black" /></g></svg>