<?xml version='1.0' encoding='utf-8'?>
<svg xmlns="http://www.w3.org/2000/svg" version="1.1" viewBox="0 0 1024 1024"><g transform="scale(1, -1) translate(0, -900)"><path d="M 374 312 Q 361 311 369 304 Q 376 295 388 292 Q 397 292 502 318 Q 514 324 521 318 Q 527 312 526 294 Q 527 146 520 56 Q 519 37 513 29 Q 509 25 496 29 L 464 37 Q 448 44 448 37 Q 482 -5 500 -33 Q 509 -49 521 -54 Q 528 -58 535 -50 Q 569 -14 573 29 Q 560 272 580 305 Q 590 320 580 328 Q 564 343 535 355 Q 522 361 509 356 Q 461 325 374 312 Z" fill="black" /></g></svg>