<?xml version='1.0' encoding='utf-8'?>
<svg xmlns="http://www.w3.org/2000/svg" version="1.1" viewBox="0 0 1024 1024"><g transform="scale(1, -1) translate(0, -900)"><path d="M 702 43 Q 727 145 758 174 Q 777 196 750 214 Q 725 232 698 246 Q 683 256 620 235 Q 575 232 430 202 L 429 203 Q 428 203 427 202 Q 423 202 415 200 Q 372 193 339 188 C 309 183 325 148 354 157 Q 396 170 427 175 L 451 179 Q 466 185 521 189 L 565 194 Q 602 201 648 204 Q 663 205 667 199 Q 682 178 646 37 C 639 8 695 14 702 43 Z" fill="black" /></g></svg>