<?xml version='1.0' encoding='utf-8'?>
<svg xmlns="http://www.w3.org/2000/svg" version="1.1" viewBox="0 0 1024 1024"><g transform="scale(1, -1) translate(0, -900)"><path d="M 682 41 Q 683 78 687 114 L 688 144 Q 691 180 693 214 Q 693 217 693 218 C 694 242 694 242 697 250 Q 697 251 698 251 Q 702 263 704 272 Q 707 282 690 293 Q 662 308 642 311 Q 629 314 622 307 Q 616 300 623 288 Q 633 273 641 238 L 643 210 Q 644 176 647 137 L 647 109 Q 647 75 647 36 C 647 6 681 11 682 41 Z" fill="black" /></g></svg>