<?xml version='1.0' encoding='utf-8'?>
<svg xmlns="http://www.w3.org/2000/svg" version="1.1" viewBox="0 0 1024 1024"><g transform="scale(1, -1) translate(0, -900)"><path d="M 790 613 Q 791 612 793 608 Q 803 586 810 587 Q 820 588 833 612 Q 845 631 843 648 Q 828 771 851 803 Q 858 815 852 822 Q 833 838 799 852 Q 792 855 730 832 Q 700 825 677 821 C 647 816 667 797 697 802 Q 706 802 743 813 Q 774 822 782 818 Q 788 805 791 769 Q 794 663 788 642 Q 787 642 787 641 C 783 626 783 626 790 613 Z" fill="black" /></g></svg>