<?xml version='1.0' encoding='utf-8'?>
<svg xmlns="http://www.w3.org/2000/svg" version="1.1" viewBox="0 0 1024 1024"><g transform="scale(1, -1) translate(0, -900)"><path d="M 631 325 Q 647 328 677 392 Q 692 435 723 460 Q 739 473 726 487 Q 711 503 669 526 Q 657 533 598 520 Q 589 520 374 479 C 345 473 355 445 385 450 Q 389 450 396 451 Q 460 472 606 491 Q 633 494 642 489 Q 649 485 644 463 Q 626 384 619 367 Q 618 366 617 362 C 612 347 612 347 614 343 Q 617 336 623 327 C 626 322 626 322 631 325 Z" fill="black" /></g></svg>