<?xml version='1.0' encoding='utf-8'?>
<svg xmlns="http://www.w3.org/2000/svg" version="1.1" viewBox="0 0 1024 1024"><g transform="scale(1, -1) translate(0, -900)"><path d="M 677 78 Q 713 115 745 169 Q 760 194 780 210 Q 799 223 789 237 Q 779 250 749 264 Q 731 273 657 249 Q 582 230 507 221 Q 494 220 489 214 Q 485 207 503 199 Q 539 186 587 199 Q 668 224 682 223 Q 698 220 692 203 Q 673 145 638 104 L 607 76 Q 538 25 410 -1 Q 395 -4 406 -13 Q 412 -17 455 -15 Q 510 -11 573 13 Q 607 26 638 45 L 677 78 Z" fill="black" /></g></svg>