<?xml version='1.0' encoding='utf-8'?>
<svg xmlns="http://www.w3.org/2000/svg" version="1.1" viewBox="0 0 1024 1024"><g transform="scale(1, -1) translate(0, -900)"><path d="M 398 652 Q 431 656 474 656 Q 490 656 496 665 Q 500 672 485 680 Q 442 708 396 689 Q 377 688 355 679 L 297 665 Q 270 659 246 651 Q 225 644 230 662 Q 237 687 244 697 Q 251 704 246 712 Q 242 719 216 730 Q 203 736 196 731 Q 189 724 195 715 Q 217 681 183 640 Q 174 631 176 621 Q 177 612 191 603 Q 201 599 210 607 Q 253 634 283 633 L 338 644 Q 348 648 365 649 L 398 652 Z" fill="black" /></g></svg>