<?xml version='1.0' encoding='utf-8'?>
<svg xmlns="http://www.w3.org/2000/svg" version="1.1" viewBox="0 0 1024 1024"><g transform="scale(1, -1) translate(0, -900)"><path d="M 747 106 Q 798 34 865 -2 Q 928 -29 942 -15 Q 957 -6 949 22 Q 942 52 935 158 Q 935 174 930 178 Q 927 179 923 163 Q 902 75 884 59 Q 877 56 856 68 Q 829 83 777 136 L 751 175 Q 718 229 699 299 L 692 337 Q 691 355 692 367 Q 696 388 659 401 Q 629 411 616 407 Q 603 403 613 383 Q 637 356 646 324 L 658 290 Q 680 221 725 139 L 747 106 Z" fill="black" /></g></svg>