<?xml version='1.0' encoding='utf-8'?>
<svg xmlns="http://www.w3.org/2000/svg" version="1.1" viewBox="0 0 1024 1024"><g transform="scale(1, -1) translate(0, -900)"><path d="M 409 320 Q 425 425 448 466 Q 457 476 452 486 Q 445 499 394 518 Q 381 524 369 519 Q 287 495 192 473 L 166 467 Q 142 464 120 458 C 91 451 118 421 146 430 Q 153 431 158 434 Q 179 441 202 447 L 219 452 Q 243 459 269 465 L 300 473 Q 354 488 370 482 Q 377 478 378 461 Q 374 398 360 306 C 356 276 404 290 409 320 Z" fill="black" /></g></svg>