<?xml version='1.0' encoding='utf-8'?>
<svg xmlns="http://www.w3.org/2000/svg" version="1.1" viewBox="0 0 1024 1024"><g transform="scale(1, -1) translate(0, -900)"><path d="M 662 489 Q 662 595 672 613 Q 682 629 671 638 Q 653 654 622 666 Q 607 672 595 666 Q 579 653 566 648 Q 556 644 541 639 C 513 629 516 604 545 611 Q 566 614 587 626 Q 600 630 608 624 Q 617 615 616 585 Q 623 347 612 204 Q 612 185 607 177 Q 603 174 568 177 Q 552 184 552 177 Q 580 137 594 110 Q 604 94 617 89 Q 624 85 632 93 Q 668 135 669 193 Q 662 301 662 452 L 662 489 Z" fill="black" /></g></svg>