<?xml version='1.0' encoding='utf-8'?>
<svg xmlns="http://www.w3.org/2000/svg" version="1.1" viewBox="0 0 1024 1024"><g transform="scale(1, -1) translate(0, -900)"><path d="M 536 171 Q 590 177 670 175 Q 688 175 695 185 Q 699 192 683 202 Q 635 236 573 214 Q 555 214 537 206 L 489 197 Q 447 190 411 179 Q 389 172 394 193 Q 403 212 409 220 Q 416 229 412 237 Q 408 246 379 259 Q 364 266 356 262 Q 347 255 355 243 Q 377 210 337 168 Q 330 159 331 149 Q 332 139 347 128 Q 357 121 368 131 Q 413 155 489 164 L 536 171 Z" fill="black" /></g></svg>