<?xml version='1.0' encoding='utf-8'?>
<svg xmlns="http://www.w3.org/2000/svg" version="1.1" viewBox="0 0 1024 1024"><g transform="scale(1, -1) translate(0, -900)"><path d="M 635 471 Q 632 630 642 652 Q 652 671 643 682 Q 633 695 591 715 Q 570 724 518 703 Q 454 682 366 660 C 337 653 351 615 380 624 Q 386 625 393 627 Q 546 687 567 672 Q 579 665 583 611 Q 596 428 587 220 Q 587 189 576 181 Q 564 174 512 188 Q 497 192 498 183 Q 498 176 509 170 Q 557 128 580 97 Q 599 79 610 81 Q 622 84 632 109 Q 647 149 647 209 Q 638 363 635 465 L 635 471 Z" fill="black" /></g></svg>