<?xml version='1.0' encoding='utf-8'?>
<svg xmlns="http://www.w3.org/2000/svg" version="1.1" viewBox="0 0 1024 1024"><g transform="scale(1, -1) translate(0, -900)"><path d="M 497 182 Q 497 222 497 258 L 497 300 Q 497 328 498 356 L 498 390 Q 498 420 499 448 L 500 484 L 500 528 L 500 556 L 502 618 L 504 657 Q 504 667 505 675 Q 511 693 502 702 Q 487 715 474 723 C 449 740 426 737 438 709 Q 456 669 458 644 L 460 609 Q 460 591 460 548 L 460 519 Q 460 497 460 470 L 459 439 Q 458 412 458 379 L 458 350 Q 457 322 457 289 L 456 249 Q 456 215 456 174 C 456 144 497 152 497 182 Z" fill="black" /></g></svg>