<?xml version='1.0' encoding='utf-8'?>
<svg xmlns="http://www.w3.org/2000/svg" version="1.1" viewBox="0 0 1024 1024"><g transform="scale(1, -1) translate(0, -900)"><path d="M 529 787 Q 523 791 514 795 Q 508 798 501 795 Q 497 792 500 785 Q 501 779 504 774 Q 522 743 511 597 Q 496 534 519 507 Q 526 500 532 507 Q 539 517 539 530 Q 539 534 540 537 L 541 557 Q 541 584 541 611 L 541 636 Q 541 666 541 687 L 542 709 Q 542 754 543 758 Q 544 765 543 770 C 543 779 543 779 529 787 Z" fill="black" /></g></svg>