<?xml version='1.0' encoding='utf-8'?>
<svg xmlns="http://www.w3.org/2000/svg" version="1.1" viewBox="0 0 1024 1024"><g transform="scale(1, -1) translate(0, -900)"><path d="M 315 389 Q 349 431 386 484 Q 420 536 468 570 Q 484 583 471 599 Q 450 615 419 625 Q 395 634 378 621 Q 288 555 137 542 Q 124 543 122 535 Q 119 525 134 515 Q 174 490 191 494 Q 212 498 342 561 Q 360 568 365 561 Q 371 552 357 530 Q 281 389 109 233 Q 93 221 96 217 Q 99 214 113 219 Q 200 261 289 358 L 315 389 Z" fill="black" /></g></svg>