<?xml version='1.0' encoding='utf-8'?>
<svg xmlns="http://www.w3.org/2000/svg" version="1.1" viewBox="0 0 1024 1024"><g transform="scale(1, -1) translate(0, -900)"><path d="M 337 379 Q 356 342 356 307 Q 359 168 349 122 Q 343 91 330 72 Q 315 48 325 24 Q 338 -10 356 -24 Q 368 -33 382 -12 Q 419 37 547 156 Q 566 172 567 181 Q 568 196 546 183 Q 494 152 437 118 Q 416 105 407 109 Q 400 113 399 134 Q 403 299 413 340 Q 417 362 403 374 Q 381 398 360 404 C 333 416 325 406 337 379 Z" fill="black" /></g></svg>