<?xml version='1.0' encoding='utf-8'?>
<svg xmlns="http://www.w3.org/2000/svg" version="1.1" viewBox="0 0 1024 1024"><g transform="scale(1, -1) translate(0, -900)"><path d="M 280 358 Q 314 401 350 457 Q 384 512 433 547 Q 449 560 436 575 Q 415 591 384 602 Q 362 611 343 599 Q 253 536 102 530 Q 89 531 87 524 Q 84 514 99 503 Q 139 476 174 485 Q 175 485 303 536 Q 321 543 325 535 Q 331 526 318 503 Q 243 358 72 193 Q 56 181 60 177 Q 63 174 77 180 Q 162 220 259 331 L 280 358 Z" fill="black" /></g></svg>