<?xml version='1.0' encoding='utf-8'?>
<svg xmlns="http://www.w3.org/2000/svg" version="1.1" viewBox="0 0 1024 1024"><g transform="scale(1, -1) translate(0, -900)"><path d="M 311 374 Q 341 416 374 465 Q 411 526 464 564 Q 480 577 467 592 Q 448 608 416 619 Q 394 629 375 617 Q 285 551 116 537 Q 103 538 100 530 Q 97 518 113 508 Q 155 481 187 486 Q 202 490 332 549 Q 351 556 356 549 Q 362 539 347 514 Q 262 352 68 171 Q 53 161 56 157 Q 59 154 72 159 Q 172 207 284 340 L 311 374 Z" fill="black" /></g></svg>