<?xml version='1.0' encoding='utf-8'?>
<svg xmlns="http://www.w3.org/2000/svg" version="1.1" viewBox="0 0 1024 1024"><g transform="scale(1, -1) translate(0, -900)"><path d="M 576 415 Q 591 393 605 385 Q 615 378 630 398 Q 642 417 666 508 L 679 553 Q 688 575 706 592 Q 719 602 708 617 Q 693 633 652 659 Q 636 668 575 652 Q 569 652 453 628 Q 411 618 380 612 C 351 606 366 571 395 580 Q 395 581 396 581 Q 463 600 580 620 Q 607 624 615 616 Q 625 601 624 588 Q 620 563 614 542 L 606 505 Q 596 468 592 458 Q 589 446 573 443 C 560 436 560 436 576 415 Z" fill="black" /></g></svg>