<?xml version='1.0' encoding='utf-8'?>
<svg xmlns="http://www.w3.org/2000/svg" version="1.1" viewBox="0 0 1024 1024"><g transform="scale(1, -1) translate(0, -900)"><path d="M 642 408 Q 705 137 859 20 Q 931 -23 952 -9 Q 971 0 965 36 Q 961 73 969 205 Q 970 227 966 230 Q 962 231 955 213 Q 910 87 882 92 Q 771 134 704 345 Q 691 387 684 424 L 677 468 Q 670 528 681 569 Q 688 594 647 617 Q 632 626 621 629 C 594 642 572 635 586 609 Q 586 608 588 604 Q 613 565 619 523 Q 625 486 632 450 L 642 408 Z" fill="black" /></g></svg>