<?xml version='1.0' encoding='utf-8'?>
<svg xmlns="http://www.w3.org/2000/svg" version="1.1" viewBox="0 0 1024 1024"><g transform="scale(1, -1) translate(0, -900)"><path d="M 614 343 Q 614 346 615 347 L 618 379 Q 619 404 622 429 Q 623 475 627 521 L 629 559 Q 632 703 656 751 Q 663 766 653 778 Q 631 796 592 807 Q 567 813 559 806 Q 550 799 558 787 Q 580 751 583 705 Q 586 626 584 549 L 582 513 Q 582 501 571 373 L 566 339 Q 541 210 463 136 Q 426 103 372 70 Q 360 63 360 59 Q 361 55 373 55 Q 389 51 427 66 Q 568 115 608 307 L 614 343 Z" fill="black" /></g></svg>