<?xml version='1.0' encoding='utf-8'?>
<svg xmlns="http://www.w3.org/2000/svg" version="1.1" viewBox="0 0 1024 1024"><g transform="scale(1, -1) translate(0, -900)"><path d="M 271 363 Q 305 409 342 465 Q 376 520 424 557 Q 440 567 427 583 Q 408 598 380 608 Q 358 618 341 606 Q 260 552 111 545 Q 99 546 96 539 Q 93 529 107 519 Q 143 495 174 499 Q 177 499 299 545 Q 315 551 319 544 Q 325 535 312 511 Q 239 367 64 195 Q 49 185 52 181 Q 55 178 68 183 Q 155 228 247 334 L 271 363 Z" fill="black" /></g></svg>