<?xml version='1.0' encoding='utf-8'?>
<svg xmlns="http://www.w3.org/2000/svg" version="1.1" viewBox="0 0 1024 1024"><g transform="scale(1, -1) translate(0, -900)"><path d="M 411 686 Q 418 687 425 692 Q 468 707 577 724 Q 587 725 593 721 Q 600 717 600 705 Q 599 675 587 621 Q 583 600 563 605 Q 544 608 529 610 Q 516 614 518 606 Q 519 597 540 577 Q 559 552 568 525 Q 572 518 582 519 Q 588 520 602 538 Q 623 563 630 594 Q 654 705 666 713 Q 676 723 670 734 Q 660 744 624 765 Q 609 772 561 759 Q 539 759 426 731 Q 422 731 420 729 C 381 718 351 661 411 686 Z" fill="black" /></g></svg>