<?xml version='1.0' encoding='utf-8'?>
<svg xmlns="http://www.w3.org/2000/svg" version="1.1" viewBox="0 0 1024 1024"><g transform="scale(1, -1) translate(0, -900)"><path d="M 649 361 Q 650 365 651 370 L 654 412 Q 654 416 655 419 Q 658 500 673 538 Q 677 550 669 557 Q 653 573 621 585 C 593 597 553 589 572 566 Q 600 538 600 506 Q 601 448 598 400 L 595 360 Q 585 192 469 99 Q 444 80 410 56 Q 397 50 394 46 Q 390 39 405 38 Q 468 38 562 120 Q 575 136 588 153 Q 621 202 642 313 L 649 361 Z" fill="black" /></g></svg>