<?xml version='1.0' encoding='utf-8'?>
<svg xmlns="http://www.w3.org/2000/svg" version="1.1" viewBox="0 0 1024 1024"><g transform="scale(1, -1) translate(0, -900)"><path d="M 391 728 Q 381 735 371 740 Q 355 747 346 739 Q 339 735 347 723 Q 365 674 339 496 Q 335 480 330 462 Q 324 443 339 427 Q 358 409 378 422 Q 420 452 579 475 Q 717 496 736 486 Q 749 479 746 440 Q 730 374 717 361 Q 710 351 688 350 Q 666 357 646 361 Q 636 365 635 359 Q 635 355 641 349 Q 678 310 691 285 Q 697 269 710 276 Q 753 294 763 327 Q 811 471 812 473 Q 822 488 813 499 Q 797 517 765 535 Q 747 545 722 534 Q 670 513 621 509 Q 552 502 411 476 Q 389 470 386 489 Q 398 660 411 686 C 418 714 418 714 391 728 Z" fill="black" /></g></svg>