<?xml version='1.0' encoding='utf-8'?>
<svg xmlns="http://www.w3.org/2000/svg" version="1.1" viewBox="0 0 1024 1024"><g transform="scale(1, -1) translate(0, -900)"><path d="M 271 397 Q 302 437 337 485 Q 374 540 424 574 Q 440 586 428 602 Q 409 618 378 630 Q 356 640 336 629 Q 246 572 92 571 Q 79 572 76 565 Q 72 555 87 544 Q 124 516 142 518 Q 164 521 184 529 Q 233 547 292 567 Q 311 573 314 565 Q 320 555 306 533 Q 228 391 45 224 Q 29 214 32 209 Q 35 206 49 211 Q 139 251 246 367 L 271 397 Z" fill="black" /></g></svg>