<?xml version='1.0' encoding='utf-8'?>
<svg xmlns="http://www.w3.org/2000/svg" version="1.1" viewBox="0 0 1024 1024"><g transform="scale(1, -1) translate(0, -900)"><path d="M 957 103 Q 942 134 925 224 Q 924 240 917 246 Q 911 250 906 231 Q 878 134 859 105 Q 820 54 675 63 Q 620 67 577 85 Q 540 104 529 129 Q 508 171 518 291 L 521 313 Q 527 364 538 421 Q 538 422 538 423 C 541 441 541 441 528 449 Q 518 459 500 466 Q 488 470 480 466 Q 474 463 479 447 Q 489 411 486 377 Q 470 170 486 112 Q 490 82 518 57 Q 599 -15 794 2 Q 821 6 850 13 Q 899 26 950 60 Q 971 76 957 103 Z" fill="black" /></g></svg>