<?xml version='1.0' encoding='utf-8'?>
<svg xmlns="http://www.w3.org/2000/svg" version="1.1" viewBox="0 0 1024 1024"><g transform="scale(1, -1) translate(0, -900)"><path d="M 558 577 Q 591 561 608 567 Q 785 625 801 611 Q 811 595 806 554 Q 796 439 770 388 Q 754 357 727 361 Q 711 364 695 369 Q 670 378 688 353 Q 722 313 736 283 Q 758 261 776 281 Q 807 303 827 345 Q 851 391 864 537 Q 868 589 886 614 Q 898 627 892 637 Q 882 647 832 667 Q 811 674 794 661 Q 775 649 702 628 Q 635 609 578 600 C 548 595 530 588 558 577 Z" fill="black" /></g></svg>