<?xml version='1.0' encoding='utf-8'?>
<svg xmlns="http://www.w3.org/2000/svg" version="1.1" viewBox="0 0 1024 1024"><g transform="scale(1, -1) translate(0, -900)"><path d="M 256 353 Q 287 398 321 453 Q 352 507 397 542 Q 412 555 399 569 Q 380 582 351 592 Q 329 601 312 589 Q 272 559 248 551 Q 220 541 172 531 Q 123 524 86 521 Q 74 522 72 515 Q 69 505 83 495 Q 119 471 151 476 Q 163 480 177 486 Q 291 534 296 526 Q 302 517 290 495 Q 218 344 63 188 Q 50 176 52 173 Q 55 170 67 176 Q 154 221 234 325 L 256 353 Z" fill="black" /></g></svg>