<?xml version='1.0' encoding='utf-8'?>
<svg xmlns="http://www.w3.org/2000/svg" version="1.1" viewBox="0 0 1024 1024"><g transform="scale(1, -1) translate(0, -900)"><path d="M 258 388 Q 289 431 325 487 Q 356 539 400 574 Q 416 584 403 600 Q 384 615 356 625 Q 334 634 317 622 Q 239 571 103 565 Q 91 566 88 559 Q 85 549 99 539 Q 135 515 166 519 Q 185 523 282 560 Q 297 564 300 558 Q 306 551 294 528 Q 227 392 67 231 Q 54 221 56 217 Q 59 214 72 220 Q 151 260 234 358 L 258 388 Z" fill="black" /></g></svg>