<?xml version='1.0' encoding='utf-8'?>
<svg xmlns="http://www.w3.org/2000/svg" version="1.1" viewBox="0 0 1024 1024"><g transform="scale(1, -1) translate(0, -900)"><path d="M 652 453 Q 653 507 654 567 L 655 614 Q 658 690 674 746 Q 683 761 679 774 Q 673 784 618 817 Q 596 833 575 818 Q 571 814 577 798 Q 610 749 611 699 Q 612 653 613 603 L 613 559 Q 613 510 611 443 L 608 339 Q 604 177 592 124 Q 574 46 587 10 Q 590 0 596 -14 Q 603 -32 611 -35 Q 617 -42 624 -33 Q 631 -29 641 -9 Q 651 16 650 46 Q 649 86 651 352 L 652 453 Z" fill="black" /></g></svg>