<?xml version='1.0' encoding='utf-8'?>
<svg xmlns="http://www.w3.org/2000/svg" version="1.1" viewBox="0 0 1024 1024"><g transform="scale(1, -1) translate(0, -900)"><path d="M 525 514 Q 661 541 698 534 Q 714 530 714 522 Q 714 519 686 463 Q 679 453 685 449 Q 691 445 704 454 Q 750 482 786 491 Q 817 498 816 506 Q 815 515 756 560 Q 735 578 634 557 Q 610 556 540 542 L 508 537 Q 442 530 356 513 Q 307 504 255 498 Q 227 497 245 481 Q 273 459 310 469 Q 398 497 473 506 L 525 514 Z" fill="black" /></g></svg>