<?xml version='1.0' encoding='utf-8'?>
<svg xmlns="http://www.w3.org/2000/svg" version="1.1" viewBox="0 0 1024 1024"><g transform="scale(1, -1) translate(0, -900)"><path d="M 541 484 Q 542 483 543 480 Q 550 452 571 436 Q 613 403 765 411 Q 834 415 860 430 Q 888 445 875 473 Q 859 507 846 567 Q 845 582 837 586 Q 830 590 827 572 Q 814 499 802 486 Q 778 459 685 455 Q 633 454 611 462 Q 587 474 582 499 L 580 533 Q 580 587 595 621 Q 605 649 588 664 Q 569 677 556 684 C 530 699 502 702 518 677 Q 539 656 537 587 Q 536 535 538 507 L 541 484 Z" fill="black" /></g></svg>