<?xml version='1.0' encoding='utf-8'?>
<svg xmlns="http://www.w3.org/2000/svg" version="1.1" viewBox="0 0 1024 1024"><g transform="scale(1, -1) translate(0, -900)"><path d="M 568 325 Q 580 283 559 246 Q 558 244 556 241 L 531 220 Q 512 200 539 172 Q 549 163 564 170 Q 588 190 627 207 Q 684 231 710 227 Q 715 227 721 224 Q 741 214 738 184 Q 731 117 700 71 Q 683 46 667 43 Q 647 39 589 61 Q 582 65 578 65 Q 568 67 576 53 L 583 44 Q 592 33 600 24 L 639 -29 Q 649 -43 659 -43 Q 682 -45 706 -22 Q 756 27 787 157 Q 790 186 805 204 Q 811 214 809 221 Q 809 223 808 223 Q 804 238 753 263 Q 737 270 714 265 Q 680 251 624 235 Q 610 231 610 241 Q 609 246 615 259 Q 627 281 637 289 Q 646 298 643 308 Q 641 319 604 334 C 577 347 563 353 568 325 Z" fill="black" /></g></svg>