<?xml version='1.0' encoding='utf-8'?>
<svg xmlns="http://www.w3.org/2000/svg" version="1.1" viewBox="0 0 1024 1024"><g transform="scale(1, -1) translate(0, -900)"><path d="M 541 102 Q 542 95 552 87 Q 621 23 645 -16 Q 659 -34 675 -20 Q 713 14 712 82 L 712 85 Q 710 112 706 299 Q 705 339 716 377 Q 721 396 717 404 Q 715 408 710 414 Q 685 435 653 443 Q 643 449 634 447 Q 621 443 627 431 L 632 420 Q 655 384 653 341 L 653 339 Q 653 335 654 331 Q 663 110 641 91 Q 635 88 598 96 L 552 108 Q 548 108 546 109 Q 543 109 541 102 Z" fill="black" /></g></svg>