<?xml version='1.0' encoding='utf-8'?>
<svg xmlns="http://www.w3.org/2000/svg" version="1.1" viewBox="0 0 1024 1024"><g transform="scale(1, -1) translate(0, -900)"><path d="M 592 371 Q 615 428 635 488 L 647 529 Q 666 606 680 691 Q 688 739 696 754 Q 706 772 700 780 Q 692 794 655 815 Q 633 827 624 823 Q 613 819 615 809 L 625 782 Q 633 757 629 723 Q 613 602 590 514 L 579 474 Q 527 304 400 147 Q 382 125 399 125 Q 441 125 514 235 L 547 285 L 559 306 Q 567 325 575 337 L 592 371 Z" fill="black" /></g></svg>