<?xml version='1.0' encoding='utf-8'?>
<svg xmlns="http://www.w3.org/2000/svg" version="1.1" viewBox="0 0 1024 1024"><g transform="scale(1, -1) translate(0, -900)"><path d="M 635 488 Q 717 514 857 515 Q 875 515 884 519 Q 890 523 884 536 Q 878 546 843 563 Q 829 570 744 552 Q 678 538 647 529 L 590 514 Q 561 506 531 496 Q 524 494 523 496 Q 514 505 540 576 Q 545 590 547 594 Q 554 606 544 617 Q 523 643 504 653 Q 488 659 480 653 Q 476 649 480 636 Q 492 611 492 578 Q 492 573 490 568 Q 482 519 457 492 Q 447 480 447 474 Q 447 470 449 466 Q 457 446 472 432 Q 485 421 500 435 Q 536 465 579 474 L 635 488 Z" fill="black" /></g></svg>