<?xml version='1.0' encoding='utf-8'?>
<svg xmlns="http://www.w3.org/2000/svg" version="1.1" viewBox="0 0 1024 1024"><g transform="scale(1, -1) translate(0, -900)"><path d="M 540 457 Q 589 535 619 624 L 632 668 Q 647 719 668 760 Q 674 770 670 776 Q 662 791 641 802 Q 612 817 592 812 L 582 809 Q 575 802 577 797 Q 578 794 582 790 Q 594 776 598 764 Q 600 752 592 716 L 578 657 L 564 610 Q 545 553 523 508 Q 497 457 429 373 Q 423 363 426 359 Q 429 356 438 360 Q 457 368 525 437 L 540 457 Z" fill="black" /></g></svg>