<?xml version='1.0' encoding='utf-8'?>
<svg xmlns="http://www.w3.org/2000/svg" version="1.1" viewBox="0 0 1024 1024"><g transform="scale(1, -1) translate(0, -900)"><path d="M 278 365 L 345 459 Q 378 512 421 543 Q 433 551 429 561 Q 423 576 394 588 Q 358 602 339 590 Q 257 532 112 525 Q 104 525 100 523 Q 99 523 98 521 Q 94 515 100 508 Q 103 504 108 500 Q 139 476 177 484 Q 314 535 319 534 Q 326 527 322 515 L 316 502 Q 243 361 88 212 Q 74 202 76 198 Q 78 196 84 198 Q 102 202 131 222 Q 192 265 256 336 L 278 365 Z" fill="black" /></g></svg>