<?xml version='1.0' encoding='utf-8'?>
<svg xmlns="http://www.w3.org/2000/svg" version="1.1" viewBox="0 0 1024 1024"><g transform="scale(1, -1) translate(0, -900)"><path d="M 574 609 Q 574 605 576 599 Q 580 584 591 584 Q 604 585 612 598 Q 621 607 641 653 Q 657 699 692 724 Q 710 737 696 753 Q 680 769 636 794 Q 621 803 558 787 Q 534 787 431 762 Q 397 755 374 749 C 345 742 345 705 374 714 Q 443 738 579 758 Q 600 761 608 757 Q 615 753 610 730 Q 589 646 578 627 C 573 615 573 615 574 609 Z" fill="black" /></g></svg>