<?xml version='1.0' encoding='utf-8'?>
<svg xmlns="http://www.w3.org/2000/svg" version="1.1" viewBox="0 0 1024 1024"><g transform="scale(1, -1) translate(0, -900)"><path d="M 357 528 Q 357 553 359 577 L 360 604 Q 360 605 361 607 Q 360 629 361 648 L 363 669 Q 366 696 374 714 C 391 760 383 739 358 756 Q 345 766 330 771 Q 311 778 303 769 Q 297 765 305 752 Q 323 710 311 504 Q 307 471 300 441 Q 296 422 311 406 Q 330 390 350 404 C 357 407 357 442 357 472 Q 357 491 357 512 L 357 528 Z" fill="black" /></g></svg>