<?xml version='1.0' encoding='utf-8'?>
<svg xmlns="http://www.w3.org/2000/svg" version="1.1" viewBox="0 0 1024 1024"><g transform="scale(1, -1) translate(0, -900)"><path d="M 845 131 L 845 132 Q 876 312 917 390 Q 926 406 925 412 L 923 416 Q 913 437 866 455 Q 827 469 813 464 Q 690 427 549 396 L 529 392 Q 499 387 468 378 C 439 370 466 340 495 347 Q 504 347 512 351 L 561 365 L 586 373 Q 619 384 661 394 L 716 408 Q 790 431 815 420 Q 824 414 823 389 L 823 386 Q 809 284 772 122 C 765 93 840 101 845 131 Z" fill="black" /></g></svg>