<?xml version='1.0' encoding='utf-8'?>
<svg xmlns="http://www.w3.org/2000/svg" version="1.1" viewBox="0 0 1024 1024"><g transform="scale(1, -1) translate(0, -900)"><path d="M 265 392 Q 274 405 284 418 L 329 494 Q 361 543 402 576 Q 414 585 410 594 Q 406 608 374 619 Q 342 631 328 627 L 318 623 Q 224 559 90 551 Q 82 552 78 549 L 76 547 Q 70 535 87 525 Q 122 502 141 504 Q 158 507 276 561 Q 284 563 288 563 Q 306 564 298 541 L 291 527 Q 219 372 51 201 Q 44 194 41 188 Q 37 180 55 188 Q 143 233 242 359 L 265 392 Z" fill="black" /></g></svg>