<?xml version='1.0' encoding='utf-8'?>
<svg xmlns="http://www.w3.org/2000/svg" version="1.1" viewBox="0 0 1024 1024"><g transform="scale(1, -1) translate(0, -900)"><path d="M 622 394 Q 621 384 623 374 Q 627 361 639 361 Q 652 362 659 375 Q 675 396 702 497 Q 718 543 753 568 Q 771 581 757 597 Q 741 613 697 639 Q 678 652 642 639 Q 611 636 584 632 Q 559 628 541 626 Q 528 627 525 623 Q 521 619 535 608 Q 556 595 597 599 Q 654 608 663 601 Q 673 594 667 560 Q 663 544 659 528 L 652 498 Q 640 452 633 426 L 622 394 Z" fill="black" /></g></svg>