<?xml version='1.0' encoding='utf-8'?>
<svg xmlns="http://www.w3.org/2000/svg" version="1.1" viewBox="0 0 1024 1024"><g transform="scale(1, -1) translate(0, -900)"><path d="M 634 472 L 635 471 Q 639 456 652 457 Q 670 460 698 514 Q 714 565 751 593 Q 770 609 755 625 Q 737 641 688 668 Q 675 677 608 663 Q 502 651 427 636 Q 364 626 319 619 C 289 614 320 577 349 584 Q 352 584 356 585 Q 398 598 471 608 L 511 614 Q 637 635 658 623 Q 665 619 660 598 Q 645 520 635 501 C 627 481 627 481 634 472 Z" fill="black" /></g></svg>