<?xml version='1.0' encoding='utf-8'?>
<svg xmlns="http://www.w3.org/2000/svg" version="1.1" viewBox="0 0 1024 1024"><g transform="scale(1, -1) translate(0, -900)"><path d="M 300 390 Q 325 426 351 469 Q 382 524 429 561 Q 445 574 431 590 Q 409 605 377 614 Q 352 621 334 608 Q 294 574 269 563 Q 241 550 190 537 Q 138 524 99 519 Q 86 520 84 511 Q 81 501 98 491 Q 140 466 158 471 Q 167 474 303 543 Q 321 552 326 544 Q 332 535 320 512 Q 251 370 84 197 Q 68 184 72 181 Q 75 178 89 184 Q 177 230 273 352 L 300 390 Z" fill="black" /></g></svg>