<?xml version='1.0' encoding='utf-8'?>
<svg xmlns="http://www.w3.org/2000/svg" version="1.1" viewBox="0 0 1024 1024"><g transform="scale(1, -1) translate(0, -900)"><path d="M 693 465 Q 733 475 784 482 Q 800 483 806 474 Q 816 470 820 425 Q 833 277 829 108 Q 829 83 819 76 Q 812 70 770 82 Q 754 89 754 79 Q 753 72 765 63 Q 802 17 818 -15 Q 837 -36 850 -33 Q 863 -32 875 -4 Q 893 41 895 105 Q 882 313 880 391 Q 881 428 892 449 Q 904 470 894 481 Q 885 494 841 518 Q 823 527 805 523 Q 769 510 694 492 L 644 482 Q 586 472 525 463 C 495 459 513 421 542 430 Q 552 436 644 455 L 693 465 Z" fill="black" /></g></svg>