<?xml version='1.0' encoding='utf-8'?>
<svg xmlns="http://www.w3.org/2000/svg" version="1.1" viewBox="0 0 1024 1024"><g transform="scale(1, -1) translate(0, -900)"><path d="M 638 218 Q 635 83 653 55 Q 666 42 675 60 Q 687 91 690 231 L 691 272 Q 691 300 692 333 L 692 374 Q 692 383 693 465 L 694 492 Q 694 541 696 581 L 698 624 Q 701 736 720 769 Q 727 784 708 798 Q 686 817 645 827 Q 627 831 616 819 Q 606 812 618 800 Q 643 778 646 746 Q 646 695 645 614 L 645 574 Q 644 532 644 482 L 644 455 Q 644 413 642 357 L 641 320 Q 640 283 639 254 L 638 218 Z" fill="black" /></g></svg>