<?xml version='1.0' encoding='utf-8'?>
<svg xmlns="http://www.w3.org/2000/svg" version="1.1" viewBox="0 0 1024 1024"><g transform="scale(1, -1) translate(0, -900)"><path d="M 765 445 Q 772 494 782 528 L 795 570 Q 796 579 801 584 Q 817 621 837 642 Q 853 661 838 679 Q 757 739 706 704 Q 606 667 495 651 Q 479 650 482 640 Q 485 633 502 627 Q 523 620 551 626 L 590 636 Q 728 670 739 661 Q 755 646 752 614 Q 748 586 742 559 L 735 523 Q 725 480 715 440 C 708 411 760 415 765 445 Z" fill="black" /></g></svg>