<?xml version='1.0' encoding='utf-8'?>
<svg xmlns="http://www.w3.org/2000/svg" version="1.1" viewBox="0 0 1024 1024"><g transform="scale(1, -1) translate(0, -900)"><path d="M 553 294 Q 614 358 640 437 L 650 471 Q 659 507 664 541 L 669 579 Q 669 591 675 609 Q 682 621 676 631 Q 669 638 659 645 C 635 663 604 666 613 637 Q 614 636 616 631 Q 617 630 618 564 L 616 532 Q 612 484 606 461 L 598 430 Q 597 427 596 423 Q 575 365 537 301 Q 533 297 532 291 C 518 264 533 272 553 294 Z" fill="black" /></g></svg>