<?xml version='1.0' encoding='utf-8'?>
<svg xmlns="http://www.w3.org/2000/svg" version="1.1" viewBox="0 0 1024 1024"><g transform="scale(1, -1) translate(0, -900)"><path d="M 630 686 Q 614 686 618 675 Q 625 663 648 653 Q 663 644 724 665 Q 802 701 819 653 Q 823 635 827 598 Q 846 372 835 113 Q 835 76 821 64 Q 803 52 717 74 Q 701 77 702 67 Q 703 60 717 54 Q 793 8 833 -29 Q 855 -48 867 -45 Q 880 -42 890 -13 Q 905 32 902 98 Q 880 459 882 592 Q 881 631 893 654 Q 905 676 894 687 Q 884 702 836 725 Q 817 735 797 729 Q 776 720 730 707 Q 682 694 630 686 Z" fill="black" /></g></svg>