<?xml version='1.0' encoding='utf-8'?>
<svg xmlns="http://www.w3.org/2000/svg" version="1.1" viewBox="0 0 1024 1024"><g transform="scale(1, -1) translate(0, -900)"><path d="M 675 221 Q 699 190 717 161 Q 724 148 733 148 Q 746 149 758 175 Q 767 196 768 268 Q 750 428 770 452 Q 777 462 770 470 Q 755 486 714 504 Q 704 510 651 487 Q 585 469 572 467 C 543 461 560 439 590 443 Q 602 443 688 462 Q 698 463 703 461 Q 727 431 712 247 L 712 245 Q 711 238 706 235 C 694 208 660 241 675 221 Z" fill="black" /></g></svg>