<?xml version='1.0' encoding='utf-8'?>
<svg xmlns="http://www.w3.org/2000/svg" version="1.1" viewBox="0 0 1024 1024"><g transform="scale(1, -1) translate(0, -900)"><path d="M 717 305 Q 735 311 814 315 Q 848 316 850 326 Q 851 338 827 353 Q 803 368 720 345 L 672 336 Q 645 333 616 328 Q 598 325 596 329 L 649 475 L 665 520 Q 675 551 688 560 Q 703 573 693 582 Q 648 622 626 618 Q 619 617 624 600 Q 631 573 617 510 L 606 466 Q 585 373 539 334 Q 521 319 535 278 Q 539 265 555 270 Q 607 294 671 299 L 717 305 Z" fill="black" /></g></svg>