<?xml version='1.0' encoding='utf-8'?>
<svg xmlns="http://www.w3.org/2000/svg" version="1.1" viewBox="0 0 1024 1024"><g transform="scale(1, -1) translate(0, -900)"><path d="M 698 123 Q 698 178 699 228 L 700 275 Q 701 336 703 392 L 704 432 Q 705 474 706 512 L 707 556 Q 708 575 709 590 Q 716 611 706 622 Q 691 635 678 645 C 655 664 616 663 628 636 Q 634 621 641 609 Q 650 585 650 539 L 651 501 Q 651 470 650 417 L 650 383 Q 649 331 649 262 L 648 218 Q 648 172 648 116 C 648 86 698 93 698 123 Z" fill="black" /></g></svg>