<?xml version='1.0' encoding='utf-8'?>
<svg xmlns="http://www.w3.org/2000/svg" version="1.1" viewBox="0 0 1024 1024"><g transform="scale(1, -1) translate(0, -900)"><path d="M 750 534 Q 772 562 793 607 Q 805 629 826 646 Q 838 653 838 660 Q 837 670 813 684 Q 783 702 771 701 Q 762 700 753 693 Q 681 660 636 655 Q 606 654 604 646 Q 603 643 609 639 Q 622 629 647 627 Q 674 628 722 652 Q 740 658 747 653 Q 753 649 738 607 Q 731 583 715 559 Q 712 556 710 552 L 686 521 Q 644 479 597 456 Q 590 452 591 448 Q 591 444 597 445 Q 663 445 717 498 L 750 534 Z" fill="black" /></g></svg>