<?xml version='1.0' encoding='utf-8'?>
<svg xmlns="http://www.w3.org/2000/svg" version="1.1" viewBox="0 0 1024 1024"><g transform="scale(1, -1) translate(0, -900)"><path d="M 249 388 Q 279 430 310 482 Q 341 536 385 570 Q 398 582 387 596 Q 368 609 339 619 Q 317 626 301 615 Q 223 560 90 547 Q 78 548 76 541 Q 73 531 88 522 Q 124 500 140 502 Q 159 506 177 516 Q 217 534 266 556 Q 281 562 284 555 Q 290 548 279 525 Q 213 384 55 220 Q 42 208 44 205 Q 47 202 59 208 Q 137 248 226 357 L 249 388 Z" fill="black" /></g></svg>