<?xml version='1.0' encoding='utf-8'?>
<svg xmlns="http://www.w3.org/2000/svg" version="1.1" viewBox="0 0 1024 1024"><g transform="scale(1, -1) translate(0, -900)"><path d="M 767 172 Q 803 227 825 317 Q 829 348 845 364 Q 857 377 841 389 Q 822 402 793 410 Q 774 414 756 404 Q 717 379 661 365 Q 639 362 629 355 Q 622 349 638 342 Q 662 332 693 345 Q 723 355 753 365 Q 771 372 772 352 Q 772 282 734 204 L 711 166 Q 654 111 563 76 Q 550 72 559 66 Q 566 62 590 67 Q 692 82 737 131 L 767 172 Z" fill="black" /></g></svg>