<?xml version='1.0' encoding='utf-8'?>
<svg xmlns="http://www.w3.org/2000/svg" version="1.1" viewBox="0 0 1024 1024"><g transform="scale(1, -1) translate(0, -900)"><path d="M 396 532 Q 471 553 483 544 Q 487 541 493 472 Q 494 454 488 446 Q 484 437 465 442 Q 420 446 419 445 Q 415 441 428 433 Q 468 400 491 373 Q 500 364 511 368 Q 518 371 526 388 Q 539 413 539 447 Q 538 519 545 543 Q 551 556 545 563 Q 527 573 499 583 Q 484 590 472 583 Q 445 570 397 556 L 359 546 Q 317 536 263 527 C 233 522 245 487 273 498 Q 274 501 357 522 L 396 532 Z" fill="black" /></g></svg>