<?xml version='1.0' encoding='utf-8'?>
<svg xmlns="http://www.w3.org/2000/svg" version="1.1" viewBox="0 0 1024 1024"><g transform="scale(1, -1) translate(0, -900)"><path d="M 655 384 Q 655 427 655 469 L 655 505 Q 656 536 656 567 Q 655 573 655 578 L 655 617 Q 655 678 654 680 Q 645 687 633 695 C 609 712 591 717 600 689 Q 607 677 609 652 Q 609 628 610 602 L 610 569 Q 610 532 611 494 L 611 462 Q 611 420 610 376 L 610 316 Q 610 148 599 37 Q 596 -2 620 -34 Q 632 -47 641 -31 Q 666 17 659 60 Q 656 103 655 313 L 655 384 Z" fill="black" /></g></svg>