<?xml version='1.0' encoding='utf-8'?>
<svg xmlns="http://www.w3.org/2000/svg" version="1.1" viewBox="0 0 1024 1024"><g transform="scale(1, -1) translate(0, -900)"><path d="M 724 386 Q 767 396 809 397 Q 822 397 827 391 Q 836 367 814 232 Q 796 133 761 80 Q 748 56 732 56 Q 719 55 657 89 Q 648 93 647 88 Q 646 84 655 73 Q 689 22 704 -12 Q 711 -33 723 -34 Q 739 -38 757 -23 Q 817 13 850 127 Q 872 203 895 321 Q 899 348 918 366 Q 933 379 932 387 Q 931 396 912 410 Q 887 432 850 445 Q 831 454 756 433 Q 701 421 543 390 C 514 384 496 373 526 368 Q 530 368 532 367 Q 542 366 557 363 L 599 365 Q 602 369 686 379 L 724 386 Z" fill="black" /></g></svg>