<?xml version='1.0' encoding='utf-8'?>
<svg xmlns="http://www.w3.org/2000/svg" version="1.1" viewBox="0 0 1024 1024"><g transform="scale(1, -1) translate(0, -900)"><path d="M 258 391 Q 286 434 320 488 Q 351 543 395 578 Q 410 590 398 604 Q 379 619 350 628 Q 328 637 311 625 Q 224 568 84 568 Q 72 569 70 563 Q 66 553 80 543 Q 114 518 131 520 Q 150 523 169 531 Q 215 546 269 564 Q 285 568 289 562 Q 295 555 284 531 Q 214 378 63 220 Q 48 208 52 204 Q 55 203 68 208 Q 143 248 235 361 L 258 391 Z" fill="black" /></g></svg>