<?xml version='1.0' encoding='utf-8'?>
<svg xmlns="http://www.w3.org/2000/svg" version="1.1" viewBox="0 0 1024 1024"><g transform="scale(1, -1) translate(0, -900)"><path d="M 256 408 Q 284 451 317 507 Q 347 559 389 595 Q 402 608 391 621 Q 372 634 343 643 Q 321 650 305 638 Q 233 584 102 571 Q 90 572 88 565 Q 85 555 99 546 Q 135 525 165 530 Q 175 534 189 540 Q 285 585 290 578 Q 296 571 285 548 Q 221 404 71 244 Q 58 232 60 228 Q 63 227 75 232 Q 144 271 231 374 L 256 408 Z" fill="black" /></g></svg>