<?xml version='1.0' encoding='utf-8'?>
<svg xmlns="http://www.w3.org/2000/svg" version="1.1" viewBox="0 0 1024 1024"><g transform="scale(1, -1) translate(0, -900)"><path d="M 512 399 Q 528 478 536 555 L 539 585 Q 542 615 545 642 Q 548 672 556 691 C 561 708 556 710 529 724 Q 492 745 478 740 Q 466 733 473 721 Q 494 691 490 634 Q 469 421 454 354 Q 445 323 435 292 Q 396 184 314 57 Q 310 51 308 45 Q 305 35 315 37 Q 342 41 418 155 Q 437 188 456 226 Q 487 299 509 384 L 512 399 Z" fill="black" /></g></svg>