<?xml version='1.0' encoding='utf-8'?>
<svg xmlns="http://www.w3.org/2000/svg" version="1.1" viewBox="0 0 1024 1024"><g transform="scale(1, -1) translate(0, -900)"><path d="M 533 330 Q 551 339 581 346 L 607 353 Q 647 366 680 369 L 720 376 Q 760 383 810 386 Q 829 386 838 376 Q 845 369 842 355 Q 845 136 831 105 Q 828 98 819 100 Q 794 104 766 110 Q 741 114 759 96 Q 819 48 843 13 Q 856 -2 870 11 Q 886 30 895 60 Q 905 91 896 262 Q 892 326 910 358 Q 923 377 917 384 Q 910 396 862 424 Q 846 436 806 423 Q 785 417 757 410 Q 634 395 494 361 C 465 354 505 319 533 330 Z" fill="black" /></g></svg>