<?xml version='1.0' encoding='utf-8'?>
<svg xmlns="http://www.w3.org/2000/svg" version="1.1" viewBox="0 0 1024 1024"><g transform="scale(1, -1) translate(0, -900)"><path d="M 258 409 Q 288 452 321 507 Q 349 558 391 591 Q 407 604 393 618 Q 372 633 342 642 Q 318 649 302 637 Q 230 583 101 570 Q 88 571 86 563 Q 83 553 98 543 Q 138 518 155 521 Q 170 524 278 572 Q 291 576 295 571 Q 299 564 289 543 Q 226 407 83 260 Q 68 248 72 244 Q 75 243 88 248 Q 151 282 234 377 L 258 409 Z" fill="black" /></g></svg>