<?xml version='1.0' encoding='utf-8'?>
<svg xmlns="http://www.w3.org/2000/svg" version="1.1" viewBox="0 0 1024 1024"><g transform="scale(1, -1) translate(0, -900)"><path d="M 286 394 Q 317 440 351 497 Q 381 551 423 587 Q 439 600 425 614 Q 404 629 373 638 Q 351 645 333 632 Q 258 572 108 554 Q 95 555 93 547 Q 92 537 106 527 Q 146 502 164 506 Q 173 509 303 567 Q 319 574 323 567 Q 329 560 318 537 Q 255 396 103 233 Q 88 220 92 216 Q 95 215 108 220 Q 177 259 263 362 L 286 394 Z" fill="black" /></g></svg>