<?xml version='1.0' encoding='utf-8'?>
<svg xmlns="http://www.w3.org/2000/svg" version="1.1" viewBox="0 0 1024 1024"><g transform="scale(1, -1) translate(0, -900)"><path d="M 790 43 Q 777 40 708 62 Q 699 65 699 60 Q 699 56 709 48 Q 752 6 771 -25 Q 781 -44 794 -42 Q 810 -43 826 -26 Q 886 28 897 142 Q 907 223 912 346 Q 912 374 929 396 Q 942 409 941 417 Q 940 424 921 437 Q 896 456 862 466 Q 844 472 769 452 Q 756 451 742 446 Q 691 436 565 417 C 535 412 510 396 540 394 Q 570 387 745 411 Q 829 424 839 411 Q 851 381 849 242 Q 846 139 817 72 Q 807 45 790 43 Z" fill="black" /></g></svg>