<?xml version='1.0' encoding='utf-8'?>
<svg xmlns="http://www.w3.org/2000/svg" version="1.1" viewBox="0 0 1024 1024"><g transform="scale(1, -1) translate(0, -900)"><path d="M 730 527 Q 746 505 761 497 Q 771 490 786 511 Q 799 535 826 663 Q 833 694 856 718 Q 869 730 858 743 Q 842 759 801 784 Q 785 793 718 777 Q 717 777 614 757 Q 571 748 536 742 C 506 737 534 701 562 711 Q 562 712 564 713 Q 625 729 732 743 Q 756 747 763 739 Q 776 724 773 710 Q 755 589 746 569 Q 742 559 733 555 C 719 541 719 541 730 527 Z" fill="black" /></g></svg>