<?xml version='1.0' encoding='utf-8'?>
<svg xmlns="http://www.w3.org/2000/svg" version="1.1" viewBox="0 0 1024 1024"><g transform="scale(1, -1) translate(0, -900)"><path d="M 516 279 Q 522 291 511 300 Q 493 316 468 325 Q 456 328 450 321 Q 446 317 455 303 Q 470 281 470 248 Q 473 172 448 133 Q 438 121 443 112 Q 449 96 463 84 Q 473 75 486 86 Q 537 122 674 123 Q 708 123 748 119 Q 767 116 774 121 Q 781 125 776 136 Q 772 146 739 166 Q 724 175 660 167 Q 585 161 516 147 Q 509 144 506 147 Q 499 151 502 166 Q 508 253 516 279 Z" fill="black" /></g></svg>