<?xml version='1.0' encoding='utf-8'?>
<svg xmlns="http://www.w3.org/2000/svg" version="1.1" viewBox="0 0 1024 1024"><g transform="scale(1, -1) translate(0, -900)"><path d="M 708 73 Q 735 42 754 10 Q 763 -6 773 -5 Q 788 -4 801 27 Q 816 61 812 104 Q 784 305 807 338 Q 814 350 807 359 Q 789 375 743 396 Q 727 403 713 395 Q 680 379 629 365 Q 625 364 622 363 C 593 355 556 316 585 322 Q 654 335 726 349 Q 727 349 731 346 Q 746 328 747 107 Q 747 106 747 104 Q 743 91 734 93 C 711 74 708 74 708 73 Z" fill="black" /></g></svg>