<?xml version='1.0' encoding='utf-8'?>
<svg xmlns="http://www.w3.org/2000/svg" version="1.1" viewBox="0 0 1024 1024"><g transform="scale(1, -1) translate(0, -900)"><path d="M 949 510 Q 933 547 918 612 Q 917 625 909 630 Q 902 634 900 616 Q 890 535 879 520 Q 863 502 795 497 Q 758 497 741 503 Q 726 509 723 518 Q 713 543 712 598 L 713 619 Q 717 695 732 731 Q 742 756 726 772 Q 683 805 669 801 Q 656 797 663 781 Q 679 748 676 701 Q 670 512 697 485 Q 704 470 759 460 Q 796 453 858 455 Q 913 456 935 468 Q 960 483 949 510 Z" fill="black" /></g></svg>