<?xml version='1.0' encoding='utf-8'?>
<svg xmlns="http://www.w3.org/2000/svg" version="1.1" viewBox="0 0 1024 1024"><g transform="scale(1, -1) translate(0, -900)"><path d="M 290 386 Q 315 423 343 467 Q 374 522 421 558 Q 434 570 423 584 Q 404 597 376 607 Q 354 614 338 604 Q 257 546 119 539 Q 107 540 105 534 Q 102 524 116 515 Q 152 490 167 493 Q 170 493 298 544 Q 314 551 317 544 Q 324 535 311 512 Q 242 362 79 200 Q 66 188 68 185 Q 71 182 84 188 Q 174 234 266 352 L 290 386 Z" fill="black" /></g></svg>