<?xml version='1.0' encoding='utf-8'?>
<svg xmlns="http://www.w3.org/2000/svg" version="1.1" viewBox="0 0 1024 1024"><g transform="scale(1, -1) translate(0, -900)"><path d="M 636 85 Q 694 49 779 -21 Q 804 -42 821 -41 Q 842 -41 842 -21 Q 843 -2 814 45 Q 799 72 663 126 L 616 144 Q 580 157 553 165 Q 531 169 542 191 Q 558 225 568 249 L 586 288 Q 593 309 603 322 Q 613 329 609 339 Q 603 352 564 378 Q 554 387 543 382 Q 530 379 538 363 Q 547 342 532 282 L 519 242 Q 507 209 494 188 Q 485 170 488 158 Q 491 148 508 145 Q 548 135 591 110 L 636 85 Z" fill="black" /></g></svg>