<?xml version='1.0' encoding='utf-8'?>
<svg xmlns="http://www.w3.org/2000/svg" version="1.1" viewBox="0 0 1024 1024"><g transform="scale(1, -1) translate(0, -900)"><path d="M 266 368 Q 294 408 323 458 Q 354 512 397 547 Q 410 559 399 572 Q 380 587 351 595 Q 329 602 313 591 Q 265 555 198 539 Q 107 524 98 523 Q 86 524 84 517 Q 83 508 96 499 Q 132 475 148 478 Q 155 481 277 531 Q 293 538 297 531 Q 301 522 291 500 Q 221 350 71 196 Q 58 184 60 181 Q 63 178 75 184 Q 157 227 242 336 L 266 368 Z" fill="black" /></g></svg>