<?xml version='1.0' encoding='utf-8'?>
<svg xmlns="http://www.w3.org/2000/svg" version="1.1" viewBox="0 0 1024 1024"><g transform="scale(1, -1) translate(0, -900)"><path d="M 622 363 Q 694 451 718 480 L 755 531 Q 803 616 850 671 Q 859 683 851 698 Q 821 753 788 757 Q 770 758 775 736 Q 776 729 780 718 Q 783 696 763 650 Q 730 574 695 524 Q 694 523 691 518 L 659 473 Q 656 470 553 349 L 521 315 Q 445 239 356 165 Q 349 161 348 153 Q 347 147 354 148 Q 382 148 491 234 Q 521 261 525 263 L 572 308 Q 578 315 585 322 L 622 363 Z" fill="black" /></g></svg>