<?xml version='1.0' encoding='utf-8'?>
<svg xmlns="http://www.w3.org/2000/svg" version="1.1" viewBox="0 0 1024 1024"><g transform="scale(1, -1) translate(0, -900)"><path d="M 479 160 Q 489 167 496 182 Q 506 212 472 275 Q 448 320 516 387 Q 532 400 518 413 Q 502 425 476 436 Q 460 446 445 432 Q 406 395 380 393 Q 374 393 373 389 Q 372 385 379 383 Q 406 373 441 391 Q 445 395 453 389 Q 468 371 450 351 Q 408 312 447 253 Q 465 211 464 189 Q 463 173 459 164 C 450 135 457 139 479 160 Z" fill="black" /></g></svg>