<?xml version='1.0' encoding='utf-8'?>
<svg xmlns="http://www.w3.org/2000/svg" version="1.1" viewBox="0 0 1024 1024"><g transform="scale(1, -1) translate(0, -900)"><path d="M 643 238 Q 647 239 656 240 Q 678 244 699 250 Q 709 251 712 248 Q 718 242 714 216 Q 704 98 717 57 Q 733 26 794 8 Q 852 -5 906 4 Q 943 11 968 30 Q 978 37 974 50 Q 958 111 952 181 Q 946 209 936 182 Q 926 85 905 68 Q 895 53 847 51 Q 796 47 762 71 Q 746 84 747 150 Q 748 198 792 251 Q 804 263 788 275 Q 767 290 739 298 Q 720 305 708 292 Q 686 279 640 264 C 612 254 613 233 643 238 Z" fill="black" /></g></svg>