<?xml version='1.0' encoding='utf-8'?>
<svg xmlns="http://www.w3.org/2000/svg" version="1.1" viewBox="0 0 1024 1024"><g transform="scale(1, -1) translate(0, -900)"><path d="M 647 488 L 648 487 Q 652 472 663 472 Q 681 475 712 528 Q 728 576 764 601 Q 783 614 768 630 Q 752 646 708 673 Q 695 682 611 666 Q 571 666 430 639 Q 346 626 302 625 C 272 624 313 579 341 589 Q 345 595 428 609 L 451 613 Q 491 620 546 627 L 586 632 Q 661 642 680 633 Q 686 629 681 608 Q 660 533 652 518 C 642 494 642 494 647 488 Z" fill="black" /></g></svg>