<?xml version='1.0' encoding='utf-8'?>
<svg xmlns="http://www.w3.org/2000/svg" version="1.1" viewBox="0 0 1024 1024"><g transform="scale(1, -1) translate(0, -900)"><path d="M 655 207 Q 655 102 670 79 Q 682 66 690 84 Q 699 111 702 214 L 703 251 Q 703 285 703 329 L 703 368 L 703 398 L 703 418 L 703 453 Q 703 484 703 512 L 703 541 Q 704 577 705 606 L 707 652 Q 707 715 725 742 Q 731 755 713 769 Q 692 785 655 795 Q 639 799 628 787 Q 619 780 630 770 Q 655 749 656 720 Q 656 686 657 635 L 657 592 Q 657 564 657 529 L 657 500 Q 658 472 658 441 Q 658 440 657 437 L 657 407 Q 656 379 656 354 L 656 321 Q 655 270 654 242 L 655 207 Z" fill="black" /></g></svg>