<?xml version='1.0' encoding='utf-8'?>
<svg xmlns="http://www.w3.org/2000/svg" version="1.1" viewBox="0 0 1024 1024"><g transform="scale(1, -1) translate(0, -900)"><path d="M 738 513 Q 738 512 739 510 Q 743 497 755 497 Q 768 498 775 511 Q 785 524 807 593 Q 808 597 809 600 L 833 645 Q 842 658 855 667 Q 871 682 857 696 Q 841 711 795 735 Q 782 744 721 726 Q 712 726 672 716 L 622 704 Q 604 701 590 696 Q 541 684 507 677 C 478 671 495 644 525 647 Q 534 646 543 649 Q 571 661 623 672 L 669 682 Q 753 703 769 695 Q 776 691 772 663 Q 768 645 764 629 L 756 595 Q 746 555 741 541 Q 740 540 739 538 C 733 522 733 522 738 513 Z" fill="black" /></g></svg>