<?xml version='1.0' encoding='utf-8'?>
<svg xmlns="http://www.w3.org/2000/svg" version="1.1" viewBox="0 0 1024 1024"><g transform="scale(1, -1) translate(0, -900)"><path d="M 557 281 Q 527 209 520 199 Q 496 169 498 159 Q 504 144 519 131 Q 529 124 539 131 Q 566 152 690 199 C 718 210 709 223 680 216 Q 622 203 575 189 Q 551 185 561 201 Q 583 252 606 295 L 623 328 Q 630 340 637 351 Q 647 367 644 373 Q 640 385 604 407 Q 603 408 599 409 C 573 423 555 426 569 400 Q 579 390 578 359 Q 577 343 569 317 L 557 281 Z" fill="black" /></g></svg>