<?xml version='1.0' encoding='utf-8'?>
<svg xmlns="http://www.w3.org/2000/svg" version="1.1" viewBox="0 0 1024 1024"><g transform="scale(1, -1) translate(0, -900)"><path d="M 712 82 Q 740 45 761 12 Q 770 -6 781 -5 Q 796 -4 811 28 Q 827 65 824 109 Q 817 170 810 282 Q 809 310 825 332 Q 832 344 824 353 Q 808 372 757 394 Q 741 403 726 394 Q 690 378 572 349 L 544 344 Q 540 344 537 343 C 507 338 526 307 555 313 Q 729 349 740 345 Q 741 345 745 342 Q 772 309 756 113 L 756 111 Q 752 99 744 99 C 725 76 704 93 712 82 Z" fill="black" /></g></svg>