<?xml version='1.0' encoding='utf-8'?>
<svg xmlns="http://www.w3.org/2000/svg" version="1.1" viewBox="0 0 1024 1024"><g transform="scale(1, -1) translate(0, -900)"><path d="M 455 127 Q 470 137 476 155 Q 482 174 476 192 Q 472 205 450 229 Q 432 253 461 307 Q 477 332 491 347 Q 509 362 493 375 Q 477 388 448 399 Q 432 408 399 381 Q 359 354 344 354 Q 338 354 336 350 Q 335 346 342 343 Q 369 331 410 351 Q 417 354 424 347 Q 439 329 422 302 Q 389 262 416 219 Q 443 174 442 156 Q 442 141 437 129 C 430 106 432 108 455 127 Z" fill="black" /></g></svg>