<?xml version='1.0' encoding='utf-8'?>
<svg xmlns="http://www.w3.org/2000/svg" version="1.1" viewBox="0 0 1024 1024"><g transform="scale(1, -1) translate(0, -900)"><path d="M 623 604 Q 645 611 677 618 Q 687 622 692 618 Q 696 614 684 534 Q 653 324 837 317 Q 877 316 918 333 Q 946 343 935 372 Q 916 409 909 468 Q 906 484 901 488 Q 894 492 891 479 Q 882 458 876 427 Q 869 396 855 384 Q 810 366 757 393 Q 735 403 726 426 Q 704 477 742 574 Q 757 605 777 619 Q 802 637 776 649 Q 763 656 732 668 Q 711 677 692 664 Q 670 651 627 634 L 577 619 Q 547 612 520 612 Q 502 613 512 603 Q 527 588 575 595 L 623 604 Z" fill="black" /></g></svg>