<?xml version='1.0' encoding='utf-8'?>
<svg xmlns="http://www.w3.org/2000/svg" version="1.1" viewBox="0 0 1024 1024"><g transform="scale(1, -1) translate(0, -900)"><path d="M 598 501 Q 616 561 623 604 L 627 634 Q 630 652 634 669 Q 641 679 636 691 Q 623 704 599 716 Q 584 723 574 721 Q 564 715 569 704 Q 576 697 577 624 Q 577 623 577 619 L 575 595 Q 572 568 562 518 L 553 486 Q 538 440 497 373 Q 493 369 492 363 Q 491 354 498 356 Q 526 363 573 441 Q 574 447 578 451 Q 579 455 582 461 L 598 501 Z" fill="black" /></g></svg>