<?xml version='1.0' encoding='utf-8'?>
<svg xmlns="http://www.w3.org/2000/svg" version="1.1" viewBox="0 0 1024 1024"><g transform="scale(1, -1) translate(0, -900)"><path d="M 269 393 Q 297 436 330 488 Q 360 540 403 575 Q 416 587 405 600 Q 386 613 359 623 Q 337 630 322 619 Q 246 568 110 555 Q 100 556 97 550 Q 94 540 108 531 Q 144 507 159 510 Q 175 513 287 559 Q 302 565 305 559 Q 311 550 300 529 Q 234 390 83 231 Q 70 221 72 217 Q 75 214 87 220 Q 166 263 245 361 L 269 393 Z" fill="black" /></g></svg>