<?xml version='1.0' encoding='utf-8'?>
<svg xmlns="http://www.w3.org/2000/svg" version="1.1" viewBox="0 0 1024 1024"><g transform="scale(1, -1) translate(0, -900)"><path d="M 249 409 Q 274 446 300 491 Q 328 543 370 577 Q 383 587 373 599 Q 357 612 332 621 Q 313 628 298 618 Q 261 593 238 586 Q 213 579 168 571 Q 122 567 88 565 Q 78 566 76 560 Q 73 553 85 543 Q 116 519 131 521 Q 137 522 258 562 Q 273 566 276 561 Q 282 552 271 531 Q 211 398 62 237 Q 50 228 53 225 Q 54 222 66 227 Q 141 269 225 376 L 249 409 Z" fill="black" /></g></svg>