<?xml version='1.0' encoding='utf-8'?>
<svg xmlns="http://www.w3.org/2000/svg" version="1.1" viewBox="0 0 1024 1024"><g transform="scale(1, -1) translate(0, -900)"><path d="M 743 53 Q 753 29 773 -12 Q 780 -28 791 -28 Q 806 -25 815 -1 Q 837 42 853 185 Q 859 230 881 257 Q 897 276 886 288 Q 867 309 823 329 Q 805 339 775 328 Q 664 291 475 275 C 445 272 475 235 504 241 Q 516 245 601 258 L 636 264 Q 688 274 753 284 Q 780 287 790 276 Q 797 272 797 255 Q 797 173 783 93 Q 782 80 775 78 Q 771 74 747 91 Q 737 98 733 90 C 726 91 731 80 743 53 Z" fill="black" /></g></svg>