<?xml version='1.0' encoding='utf-8'?>
<svg xmlns="http://www.w3.org/2000/svg" version="1.1" viewBox="0 0 1024 1024"><g transform="scale(1, -1) translate(0, -900)"><path d="M 831 272 Q 855 248 871 243 Q 880 239 888 257 Q 895 281 894 400 Q 897 422 910 444 Q 917 454 908 463 Q 895 473 862 487 Q 853 490 809 476 Q 785 470 759 460 L 733 451 Q 729 451 725 449 C 696 441 708 416 736 428 Q 736 429 740 430 Q 818 460 833 450 Q 848 443 848 426 Q 852 314 848 296 C 845 266 818 284 831 272 Z" fill="black" /></g></svg>