<?xml version='1.0' encoding='utf-8'?>
<svg xmlns="http://www.w3.org/2000/svg" version="1.1" viewBox="0 0 1024 1024"><g transform="scale(1, -1) translate(0, -900)"><path d="M 228 387 Q 265 435 309 503 Q 337 552 378 583 Q 393 593 381 607 Q 363 620 336 630 Q 317 637 300 627 Q 230 581 108 574 Q 96 575 94 569 Q 91 560 104 551 Q 137 529 168 533 Q 178 537 190 541 Q 280 574 285 569 Q 289 562 280 541 Q 220 417 75 271 Q 62 261 64 257 Q 67 254 79 260 Q 127 284 204 360 L 228 387 Z" fill="black" /></g></svg>