<?xml version='1.0' encoding='utf-8'?>
<svg xmlns="http://www.w3.org/2000/svg" version="1.1" viewBox="0 0 1024 1024"><g transform="scale(1, -1) translate(0, -900)"><path d="M 646 284 Q 649 318 661 638 L 663 679 Q 664 709 687 768 Q 693 781 683 792 Q 662 808 626 819 Q 602 825 595 818 Q 586 812 593 800 Q 618 763 619 671 L 620 631 Q 620 297 565 175 Q 550 151 534 130 Q 488 76 389 25 Q 377 18 377 14 Q 378 10 389 10 Q 405 7 447 22 Q 517 44 567 98 Q 616 150 641 252 L 646 284 Z" fill="black" /></g></svg>