<?xml version='1.0' encoding='utf-8'?>
<svg xmlns="http://www.w3.org/2000/svg" version="1.1" viewBox="0 0 1024 1024"><g transform="scale(1, -1) translate(0, -900)"><path d="M 683 248 Q 809 266 825 249 Q 831 242 827 229 Q 823 93 813 74 Q 809 62 795 65 Q 768 68 738 72 Q 713 72 732 57 Q 793 14 819 -19 Q 829 -31 839 -22 Q 866 3 875 113 Q 881 207 896 227 Q 909 246 904 254 Q 897 266 850 295 Q 834 308 819 302 Q 794 292 745 285 Q 634 272 572 259 L 540 253 Q 530 252 525 250 Q 479 240 445 236 Q 441 236 440 234 C 411 228 434 195 464 199 Q 477 198 491 203 Q 504 209 524 214 L 551 222 Q 611 240 649 243 L 683 248 Z" fill="black" /></g></svg>