<?xml version='1.0' encoding='utf-8'?>
<svg xmlns="http://www.w3.org/2000/svg" version="1.1" viewBox="0 0 1024 1024"><g transform="scale(1, -1) translate(0, -900)"><path d="M 711 408 Q 721 387 732 379 Q 739 370 756 386 Q 766 398 800 466 Q 810 491 831 511 Q 844 520 835 533 Q 823 549 789 574 Q 771 586 716 568 Q 700 565 682 560 Q 493 517 458 508 C 429 501 442 469 470 479 Q 495 488 527 497 L 547 503 Q 581 513 622 523 L 656 530 Q 738 554 759 540 Q 766 533 762 522 Q 738 455 731 444 Q 725 434 712 434 Q 711 435 710 434 C 698 431 698 431 711 408 Z" fill="black" /></g></svg>