<?xml version='1.0' encoding='utf-8'?>
<svg xmlns="http://www.w3.org/2000/svg" version="1.1" viewBox="0 0 1024 1024"><g transform="scale(1, -1) translate(0, -900)"><path d="M 759 337 L 779 307 Q 794 285 801 288 Q 810 289 820 313 Q 830 340 828 374 Q 813 608 834 648 Q 844 664 836 675 Q 829 685 782 697 Q 760 704 744 695 Q 686 667 639 654 C 610 645 619 623 648 630 Q 675 636 724 654 Q 752 664 764 655 Q 774 646 774 611 Q 780 466 776 386 Q 779 364 760 367 Q 753 368 751 366 C 740 365 742 362 759 337 Z" fill="black" /></g></svg>