<?xml version='1.0' encoding='utf-8'?>
<svg xmlns="http://www.w3.org/2000/svg" version="1.1" viewBox="0 0 1024 1024"><g transform="scale(1, -1) translate(0, -900)"><path d="M 575 474 Q 575 480 574 503 L 574 521 Q 574 537 576 556 L 578 574 Q 579 590 582 606 Q 582 609 582 610 C 584 625 584 625 566 633 Q 559 637 550 641 Q 540 644 534 640 Q 530 637 533 624 Q 543 596 543 569 Q 540 463 550 433 Q 554 412 575 397 Q 650 346 823 387 Q 827 390 835 391 Q 874 404 912 430 Q 928 443 916 464 Q 906 479 888 529 Q 887 542 881 546 Q 875 549 872 533 Q 850 478 837 460 Q 824 444 784 431 Q 694 401 620 422 Q 587 434 580 456 L 575 474 Z" fill="black" /></g></svg>