<?xml version='1.0' encoding='utf-8'?>
<svg xmlns="http://www.w3.org/2000/svg" version="1.1" viewBox="0 0 1024 1024"><g transform="scale(1, -1) translate(0, -900)"><path d="M 709 218 Q 697 95 706 61 Q 709 43 724 28 Q 785 -24 915 -2 Q 916 -1 920 -1 Q 948 6 979 26 Q 997 41 985 65 Q 973 87 956 158 Q 956 174 949 178 Q 943 181 939 164 Q 914 88 897 65 Q 876 46 813 48 Q 789 49 770 58 Q 754 65 750 76 Q 731 118 761 260 Q 767 287 724 307 Q 712 311 704 307 Q 698 304 702 287 Q 712 251 709 218 Z" fill="black" /></g></svg>