<?xml version='1.0' encoding='utf-8'?>
<svg xmlns="http://www.w3.org/2000/svg" version="1.1" viewBox="0 0 1024 1024"><g transform="scale(1, -1) translate(0, -900)"><path d="M 484 276 Q 484 306 486 332 L 488 369 Q 488 373 489 375 Q 493 396 489 404 Q 482 414 453 431 Q 452 432 451 431 C 424 445 418 447 427 424 Q 427 418 433 409 Q 439 391 440 351 L 440 318 Q 440 257 440 150 Q 439 123 430 113 Q 421 109 399 115 Q 390 115 379 115 Q 369 118 369 112 Q 370 106 378 99 Q 415 63 439 36 Q 449 29 459 41 Q 492 80 488 144 Q 485 243 484 256 L 484 276 Z" fill="black" /></g></svg>