<?xml version='1.0' encoding='utf-8'?>
<svg xmlns="http://www.w3.org/2000/svg" version="1.1" viewBox="0 0 1024 1024"><g transform="scale(1, -1) translate(0, -900)"><path d="M 613 128 Q 614 56 600 31 Q 599 27 595 25 Q 589 25 515 46 Q 508 47 506 45 Q 505 41 511 35 Q 562 -11 588 -47 Q 597 -57 604 -57 Q 611 -56 624 -44 Q 658 -17 653 132 L 651 166 Q 650 200 647 217 L 643 256 Q 643 263 643 270 Q 643 285 633 291 Q 623 298 612 302 C 585 314 571 319 585 292 Q 595 277 601 244 L 607 209 Q 607 188 612 161 L 613 128 Z" fill="black" /></g></svg>