<?xml version='1.0' encoding='utf-8'?>
<svg xmlns="http://www.w3.org/2000/svg" version="1.1" viewBox="0 0 1024 1024"><g transform="scale(1, -1) translate(0, -900)"><path d="M 616 485 Q 685 492 798 498 Q 817 498 823 489 Q 832 482 830 438 Q 826 255 797 152 Q 787 115 755 121 Q 719 133 686 142 Q 671 149 670 142 Q 669 135 679 119 Q 752 46 769 9 Q 779 -7 790 -6 Q 806 -5 822 23 Q 864 86 890 299 Q 902 449 920 477 Q 942 502 926 509 Q 907 528 863 549 Q 836 568 805 557 Q 768 545 674 537 Q 647 536 623 532 L 572 526 Q 490 519 426 507 L 385 499 Q 381 500 379 499 Q 292 481 207 469 C 177 465 191 416 220 423 Q 230 423 242 427 Q 314 451 388 456 L 429 462 Q 502 475 568 481 L 616 485 Z" fill="black" /></g></svg>