<?xml version='1.0' encoding='utf-8'?>
<svg xmlns="http://www.w3.org/2000/svg" version="1.1" viewBox="0 0 1024 1024"><g transform="scale(1, -1) translate(0, -900)"><path d="M 666 141 Q 705 75 712 43 Q 721 27 731 28 Q 747 29 763 54 Q 791 91 804 137 Q 825 198 858 421 Q 864 461 878 482 Q 899 504 884 511 Q 868 530 827 549 Q 802 567 775 557 Q 741 547 652 539 Q 612 536 574 531 L 533 526 Q 476 520 429 511 L 381 503 Q 377 503 375 502 Q 293 486 215 475 C 185 471 212 425 241 434 Q 241 435 245 436 Q 311 457 377 463 L 423 470 Q 480 480 532 485 L 571 490 Q 778 514 791 497 Q 798 490 794 447 Q 779 270 745 172 Q 738 147 716 151 Q 709 155 700 160 C 671 166 651 167 666 141 Z" fill="black" /></g></svg>