<?xml version='1.0' encoding='utf-8'?>
<svg xmlns="http://www.w3.org/2000/svg" version="1.1" viewBox="0 0 1024 1024"><g transform="scale(1, -1) translate(0, -900)"><path d="M 351 162 Q 364 158 394 153 Q 412 149 417 139 Q 424 118 384 47 Q 366 16 349 11 Q 340 8 301 20 Q 273 30 270 26 Q 266 19 280 11 Q 314 -19 322 -41 Q 326 -54 334 -59 Q 343 -63 369 -49 Q 403 -25 442 64 Q 455 100 473 116 Q 482 119 483 125 Q 484 132 469 152 Q 447 177 401 177 Q 383 180 363 185 C 334 192 322 170 351 162 Z" fill="black" /></g></svg>