<?xml version='1.0' encoding='utf-8'?>
<svg xmlns="http://www.w3.org/2000/svg" version="1.1" viewBox="0 0 1024 1024"><g transform="scale(1, -1) translate(0, -900)"><path d="M 643 351 Q 631 367 616 376 Q 597 391 587 389 Q 577 386 578 375 Q 579 360 579 343 L 573 299 Q 563 232 513 157 L 483 125 Q 480 124 479 122 Q 398 62 240 39 Q 230 39 225 36 Q 218 33 227 27 Q 231 24 246 23 Q 340 17 413 39 Q 468 54 526 101 L 561 138 Q 604 196 633 278 Q 637 291 642 301 C 653 329 656 336 643 351 Z" fill="black" /></g></svg>