<?xml version='1.0' encoding='utf-8'?>
<svg xmlns="http://www.w3.org/2000/svg" version="1.1" viewBox="0 0 1024 1024"><g transform="scale(1, -1) translate(0, -900)"><path d="M 641 61 Q 669 91 697 132 Q 713 154 733 168 Q 752 178 742 193 Q 732 206 707 220 Q 688 230 662 222 Q 638 215 607 206 Q 580 200 539 195 C 509 191 491 184 520 175 Q 550 162 594 172 Q 636 185 644 186 Q 657 182 650 167 Q 632 121 603 86 L 579 63 Q 510 8 366 -18 Q 353 -19 362 -29 Q 368 -32 410 -31 Q 465 -28 528 -6 Q 574 10 610 35 L 641 61 Z" fill="black" /></g></svg>