<?xml version='1.0' encoding='utf-8'?>
<svg xmlns="http://www.w3.org/2000/svg" version="1.1" viewBox="0 0 1024 1024"><g transform="scale(1, -1) translate(0, -900)"><path d="M 692 388 Q 708 363 724 339 Q 740 314 749 316 Q 759 317 771 345 Q 784 376 781 415 Q 766 685 791 732 Q 803 751 794 763 Q 787 775 733 791 Q 706 801 688 790 Q 588 750 508 742 C 478 738 494 711 524 716 Q 536 716 648 743 Q 694 756 709 740 Q 719 730 721 690 Q 727 522 721 430 Q 722 418 718 412 C 714 382 676 413 692 388 Z" fill="black" /></g></svg>