<?xml version='1.0' encoding='utf-8'?>
<svg xmlns="http://www.w3.org/2000/svg" version="1.1" viewBox="0 0 1024 1024"><g transform="scale(1, -1) translate(0, -900)"><path d="M 308 332 Q 314 374 317 421 L 319 464 Q 320 521 324 574 L 326 625 Q 330 701 348 746 Q 355 761 344 773 Q 320 792 279 802 Q 252 809 244 801 Q 234 794 243 781 Q 267 744 271 694 Q 274 651 275 606 L 275 561 Q 275 506 271 451 L 268 406 Q 253 250 186 159 Q 146 113 76 64 Q 64 55 64 51 Q 65 47 78 47 Q 93 43 130 60 Q 260 114 303 300 L 308 332 Z" fill="black" /></g></svg>