<?xml version='1.0' encoding='utf-8'?>
<svg xmlns="http://www.w3.org/2000/svg" version="1.1" viewBox="0 0 1024 1024"><g transform="scale(1, -1) translate(0, -900)"><path d="M 721 393 Q 722 380 731 367 Q 744 337 754 338 Q 769 339 785 372 Q 800 399 798 420 Q 770 652 810 715 Q 820 731 812 740 Q 784 762 737 781 Q 721 787 699 777 Q 645 747 536 725 C 507 719 523 690 552 697 Q 558 698 563 699 Q 636 724 692 737 Q 711 743 718 733 Q 734 714 733 645 Q 734 449 724 412 Q 723 411 723 410 L 721 393 Z" fill="black" /></g></svg>