<?xml version='1.0' encoding='utf-8'?>
<svg xmlns="http://www.w3.org/2000/svg" version="1.1" viewBox="0 0 1024 1024"><g transform="scale(1, -1) translate(0, -900)"><path d="M 305 365 Q 330 402 356 445 Q 390 503 438 543 Q 454 553 441 569 Q 422 584 394 594 Q 372 601 355 591 Q 258 525 102 518 Q 89 519 87 512 Q 84 502 99 491 Q 138 466 155 468 Q 176 472 196 481 Q 248 502 310 526 Q 329 533 333 525 Q 340 515 327 491 Q 251 332 75 155 Q 62 145 64 141 Q 67 138 79 144 Q 178 195 279 329 L 305 365 Z" fill="black" /></g></svg>