<?xml version='1.0' encoding='utf-8'?>
<svg xmlns="http://www.w3.org/2000/svg" version="1.1" viewBox="0 0 1024 1024"><g transform="scale(1, -1) translate(0, -900)"><path d="M 727 379 Q 740 358 753 338 Q 769 313 777 316 Q 787 317 799 344 Q 811 374 809 412 Q 799 679 821 721 Q 833 739 824 750 Q 817 760 765 777 Q 740 786 722 775 Q 641 739 573 727 C 544 721 553 694 582 701 Q 612 707 687 730 Q 729 743 743 730 Q 753 720 754 680 Q 758 515 751 425 Q 752 412 747 406 C 741 377 716 396 727 379 Z" fill="black" /></g></svg>