<?xml version='1.0' encoding='utf-8'?>
<svg xmlns="http://www.w3.org/2000/svg" version="1.1" viewBox="0 0 1024 1024"><g transform="scale(1, -1) translate(0, -900)"><path d="M 658 372 Q 654 368 659 354 Q 669 320 667 285 Q 652 65 692 26 Q 759 -29 899 -5 Q 906 -2 915 -1 Q 948 8 981 31 Q 999 44 987 68 Q 975 90 960 163 Q 959 178 953 182 Q 947 185 943 169 Q 919 91 903 68 Q 893 56 864 48 Q 798 33 741 56 Q 719 66 713 81 Q 686 138 718 329 Q 724 357 679 374 C 657 385 657 385 658 372 Z" fill="black" /></g></svg>