<?xml version='1.0' encoding='utf-8'?>
<svg xmlns="http://www.w3.org/2000/svg" version="1.1" viewBox="0 0 1024 1024"><g transform="scale(1, -1) translate(0, -900)"><path d="M 729 339 Q 745 315 759 292 Q 777 265 785 268 Q 795 269 809 298 Q 818 319 818 394 Q 809 658 833 698 Q 845 717 836 731 Q 827 743 771 760 Q 744 770 725 759 Q 641 725 573 713 C 544 707 558 677 587 684 Q 629 693 690 710 Q 733 722 747 708 Q 757 698 758 655 Q 762 483 756 388 Q 759 367 744 364 C 726 343 726 343 729 339 Z" fill="black" /></g></svg>