<?xml version='1.0' encoding='utf-8'?>
<svg xmlns="http://www.w3.org/2000/svg" version="1.1" viewBox="0 0 1024 1024"><g transform="scale(1, -1) translate(0, -900)"><path d="M 664 331 Q 664 327 667 318 Q 679 282 676 249 Q 664 36 704 -2 Q 777 -62 923 -29 Q 924 -28 928 -28 Q 962 -18 994 5 Q 1013 20 1001 46 Q 989 71 972 148 Q 972 164 965 170 Q 959 174 954 155 Q 923 73 904 48 Q 894 38 867 29 Q 801 13 751 32 Q 730 41 725 53 Q 698 110 727 293 Q 734 323 694 334 C 666 346 659 349 664 331 Z" fill="black" /></g></svg>