<?xml version='1.0' encoding='utf-8'?>
<svg xmlns="http://www.w3.org/2000/svg" version="1.1" viewBox="0 0 1024 1024"><g transform="scale(1, -1) translate(0, -900)"><path d="M 656 338 Q 655 334 658 323 Q 668 287 665 254 Q 649 88 662 40 Q 665 19 684 1 Q 756 -59 909 -33 Q 910 -32 914 -32 Q 948 -23 983 -1 Q 1005 15 992 43 Q 980 67 964 143 Q 965 161 957 166 Q 951 170 945 151 Q 909 72 890 47 Q 880 37 851 29 Q 784 14 731 34 Q 710 44 706 56 Q 679 113 717 296 Q 723 321 686 340 C 661 357 652 363 656 338 Z" fill="black" /></g></svg>