<?xml version='1.0' encoding='utf-8'?>
<svg xmlns="http://www.w3.org/2000/svg" version="1.1" viewBox="0 0 1024 1024"><g transform="scale(1, -1) translate(0, -900)"><path d="M 508 181 Q 517 172 518 110 Q 518 109 518 106 Q 509 4 538 -27 Q 541 -28 544 -32 Q 632 -101 811 -67 Q 812 -66 817 -65 Q 857 -53 899 -26 Q 918 -10 903 15 Q 890 37 869 111 Q 868 126 861 130 Q 855 133 852 116 Q 830 37 815 12 Q 784 -25 671 -19 Q 628 -16 596 -3 Q 568 10 562 29 Q 547 54 569 149 Q 573 170 550 185 C 528 206 498 209 508 181 Z" fill="black" /></g></svg>