<?xml version='1.0' encoding='utf-8'?>
<svg xmlns="http://www.w3.org/2000/svg" version="1.1" viewBox="0 0 1024 1024"><g transform="scale(1, -1) translate(0, -900)"><path d="M 601 190 Q 602 186 607 179 Q 617 154 626 154 Q 639 155 652 183 Q 662 201 663 238 Q 648 367 675 408 Q 684 421 678 430 Q 654 451 613 469 Q 600 473 579 467 Q 513 440 383 426 C 353 423 366 392 395 399 Q 395 400 398 400 Q 494 422 563 433 Q 588 437 596 424 Q 606 411 606 367 Q 607 241 602 217 Q 601 217 601 216 C 598 197 598 197 601 190 Z" fill="black" /></g></svg>