<?xml version='1.0' encoding='utf-8'?>
<svg xmlns="http://www.w3.org/2000/svg" version="1.1" viewBox="0 0 1024 1024"><g transform="scale(1, -1) translate(0, -900)"><path d="M 306 633 Q 369 652 431 664 Q 456 671 459 660 Q 459 650 437 608 Q 430 596 435 593 Q 441 589 452 599 Q 513 638 536 645 Q 555 648 555 658 Q 554 668 494 700 Q 476 707 454 702 Q 408 687 366 675 L 332 666 Q 271 654 195 639 Q 162 663 142 654 Q 132 647 139 636 Q 188 558 137 294 L 129 264 Q 101 171 36 55 Q 32 49 31 44 Q 30 34 38 37 Q 63 43 126 152 Q 138 179 151 207 Q 200 345 205 510 Q 208 603 214 608 Q 229 614 289 629 L 306 633 Z" fill="black" /></g></svg>