<?xml version='1.0' encoding='utf-8'?>
<svg xmlns="http://www.w3.org/2000/svg" version="1.1" viewBox="0 0 1024 1024"><g transform="scale(1, -1) translate(0, -900)"><path d="M 301 503 Q 302 451 321 434 Q 363 406 450 427 Q 450 428 453 428 Q 472 435 491 449 Q 503 458 495 473 Q 488 486 477 531 Q 477 541 472 545 Q 468 548 465 536 Q 434 470 400 461 Q 391 461 383 459 Q 370 459 358 462 Q 348 466 346 471 Q 337 486 338 515 L 339 550 Q 340 571 345 594 Q 349 609 338 616 Q 329 625 306 633 C 289 640 289 640 289 629 Q 288 625 290 614 Q 299 589 300 535 L 301 503 Z" fill="black" /></g></svg>