<?xml version='1.0' encoding='utf-8'?>
<svg xmlns="http://www.w3.org/2000/svg" version="1.1" viewBox="0 0 1024 1024"><g transform="scale(1, -1) translate(0, -900)"><path d="M 742 343 Q 755 322 767 302 Q 785 277 793 280 Q 803 281 816 310 Q 823 331 824 405 Q 809 667 831 708 Q 844 727 835 739 Q 826 751 773 768 Q 748 778 728 767 Q 643 733 574 724 C 544 719 558 691 588 696 Q 627 702 693 719 Q 736 729 750 716 Q 760 706 762 664 Q 769 490 764 394 Q 768 369 745 371 Q 742 372 740 371 C 726 368 726 368 742 343 Z" fill="black" /></g></svg>