<?xml version='1.0' encoding='utf-8'?>
<svg xmlns="http://www.w3.org/2000/svg" version="1.1" viewBox="0 0 1024 1024"><g transform="scale(1, -1) translate(0, -900)"><path d="M 342 156 Q 343 189 344 219 L 345 259 Q 345 275 346 292 L 348 331 Q 348 361 350 389 L 351 425 Q 352 456 354 485 Q 354 492 354 497 L 358 527 Q 361 540 354 548 Q 335 567 316 577 C 290 592 273 593 284 565 Q 299 529 302 512 L 303 486 Q 303 470 303 414 L 303 381 Q 302 354 302 319 L 301 284 Q 300 265 300 244 L 300 208 Q 300 180 300 144 C 300 114 341 126 342 156 Z" fill="black" /></g></svg>