<?xml version='1.0' encoding='utf-8'?>
<svg xmlns="http://www.w3.org/2000/svg" version="1.1" viewBox="0 0 1024 1024"><g transform="scale(1, -1) translate(0, -900)"><path d="M 383 426 Q 367 439 346 445 Q 339 446 334 439 Q 333 435 338 427 Q 339 424 341 420 Q 341 419 342 417 Q 367 332 344 232 Q 335 189 360 162 Q 364 156 370 158 L 371 156 C 381 152 383 162 388 192 Q 388 195 389 197 Q 392 218 393 251 L 393 273 Q 393 300 393 328 L 393 350 Q 393 384 395 399 C 397 416 397 416 383 426 Z" fill="black" /></g></svg>