<?xml version='1.0' encoding='utf-8'?>
<svg xmlns="http://www.w3.org/2000/svg" version="1.1" viewBox="0 0 1024 1024"><g transform="scale(1, -1) translate(0, -900)"><path d="M 724 388 Q 717 364 731 342 Q 744 314 754 314 Q 769 315 785 348 Q 798 375 798 396 Q 786 487 788 630 Q 788 672 810 707 Q 820 723 813 732 Q 786 756 740 777 Q 724 781 701 774 Q 634 744 519 730 C 489 726 509 696 538 702 Q 539 703 542 703 Q 588 713 625 720 Q 701 736 717 726 Q 729 701 733 633 Q 736 428 724 388 Z" fill="black" /></g></svg>