<?xml version='1.0' encoding='utf-8'?>
<svg xmlns="http://www.w3.org/2000/svg" version="1.1" viewBox="0 0 1024 1024"><g transform="scale(1, -1) translate(0, -900)"><path d="M 488 188 Q 488 185 490 179 Q 500 143 498 110 Q 491 28 498 4 Q 502 -21 527 -43 Q 617 -110 814 -78 Q 829 -75 845 -71 Q 894 -58 942 -27 Q 963 -11 948 17 Q 933 45 913 133 Q 913 149 905 154 Q 898 157 894 139 Q 869 45 851 15 Q 805 -30 672 -28 Q 621 -27 583 -13 Q 549 0 542 21 Q 529 48 549 153 Q 555 177 527 191 C 504 210 481 217 488 188 Z" fill="black" /></g></svg>