<?xml version='1.0' encoding='utf-8'?>
<svg xmlns="http://www.w3.org/2000/svg" version="1.1" viewBox="0 0 1024 1024"><g transform="scale(1, -1) translate(0, -900)"><path d="M 748 505 Q 758 489 769 483 Q 776 476 789 492 Q 798 502 819 565 Q 826 589 846 608 Q 856 618 847 629 Q 835 642 803 664 Q 788 670 724 657 Q 690 653 524 622 C 495 617 502 585 531 593 Q 556 600 591 608 L 611 611 Q 638 618 671 623 L 695 626 Q 753 641 774 626 Q 781 622 778 611 Q 763 538 751 530 C 741 515 741 515 748 505 Z" fill="black" /></g></svg>