<?xml version='1.0' encoding='utf-8'?>
<svg xmlns="http://www.w3.org/2000/svg" version="1.1" viewBox="0 0 1024 1024"><g transform="scale(1, -1) translate(0, -900)"><path d="M 728 404 Q 721 380 735 359 Q 748 329 758 330 Q 773 331 789 364 Q 802 391 802 412 Q 790 500 792 640 Q 792 680 814 715 Q 824 730 817 739 Q 790 763 744 782 Q 729 786 707 778 Q 632 742 530 730 C 500 726 512 699 542 704 Q 546 704 552 705 Q 598 715 633 724 Q 705 743 722 734 Q 732 709 737 643 Q 740 442 728 404 Z" fill="black" /></g></svg>