<?xml version='1.0' encoding='utf-8'?>
<svg xmlns="http://www.w3.org/2000/svg" version="1.1" viewBox="0 0 1024 1024"><g transform="scale(1, -1) translate(0, -900)"><path d="M 347 385 Q 380 455 410 556 Q 420 586 437 605 Q 453 621 440 633 Q 427 643 395 652 Q 371 658 347 642 Q 320 629 284 616 Q 247 604 186 594 Q 173 593 168 585 Q 164 578 183 571 Q 220 559 267 576 Q 321 598 330 599 Q 355 600 353 572 Q 337 481 308 415 L 285 369 Q 216 264 90 220 Q 78 213 90 208 Q 96 201 137 205 Q 236 217 318 332 L 347 385 Z" fill="black" /></g></svg>