<?xml version='1.0' encoding='utf-8'?>
<svg xmlns="http://www.w3.org/2000/svg" version="1.1" viewBox="0 0 1024 1024"><g transform="scale(1, -1) translate(0, -900)"><path d="M 969 60 Q 947 121 932 225 Q 929 241 922 246 Q 913 250 910 230 Q 903 98 885 73 Q 855 39 717 34 Q 644 35 611 47 Q 583 62 577 80 Q 567 108 570 180 Q 577 259 593 295 Q 606 326 587 344 Q 535 384 519 381 Q 503 375 510 357 Q 531 317 525 259 Q 516 81 540 45 Q 565 2 658 -12 Q 722 -21 824 -16 Q 915 -12 951 9 Q 984 27 969 60 Z" fill="black" /></g></svg>