<?xml version='1.0' encoding='utf-8'?>
<svg xmlns="http://www.w3.org/2000/svg" version="1.1" viewBox="0 0 1024 1024"><g transform="scale(1, -1) translate(0, -900)"><path d="M 239 783 Q 230 790 210 802 Q 194 812 186 806 Q 180 800 186 787 Q 213 726 187 501 Q 183 482 170 461 Q 163 448 170 432 Q 177 416 185 408 Q 194 402 207 412 Q 264 461 449 477 Q 468 478 468 487 Q 467 499 444 512 Q 429 521 363 501 L 330 494 Q 327 495 325 494 Q 288 488 245 475 Q 238 474 234 475 Q 231 476 231 485 Q 232 521 234 558 L 235 579 Q 236 610 239 643 L 240 666 Q 243 747 247 760 C 249 776 249 776 239 783 Z" fill="black" /></g></svg>