<?xml version='1.0' encoding='utf-8'?>
<svg xmlns="http://www.w3.org/2000/svg" version="1.1" viewBox="0 0 1024 1024"><g transform="scale(1, -1) translate(0, -900)"><path d="M 908 40 Q 892 88 882 171 Q 881 186 873 190 Q 866 194 863 176 Q 850 73 834 55 Q 807 22 691 18 Q 627 19 600 29 Q 576 39 570 56 Q 558 107 583 157 Q 593 185 576 199 Q 530 233 515 229 Q 502 223 509 208 Q 528 174 525 124 Q 522 34 554 7 Q 575 -14 640 -23 Q 695 -30 783 -25 Q 862 -19 892 -2 Q 919 11 908 40 Z" fill="black" /></g></svg>