<?xml version='1.0' encoding='utf-8'?>
<svg xmlns="http://www.w3.org/2000/svg" version="1.1" viewBox="0 0 1024 1024"><g transform="scale(1, -1) translate(0, -900)"><path d="M 750 372 Q 743 350 756 329 Q 769 301 778 302 Q 791 303 807 335 Q 820 360 820 380 Q 808 468 810 606 Q 810 646 832 680 Q 842 696 834 705 Q 807 727 760 746 Q 745 750 723 742 Q 689 723 643 708 Q 603 698 571 692 C 542 686 557 659 586 665 Q 590 665 595 666 Q 730 706 744 698 Q 754 673 759 608 Q 760 410 750 372 Z" fill="black" /></g></svg>