<?xml version='1.0' encoding='utf-8'?>
<svg xmlns="http://www.w3.org/2000/svg" version="1.1" viewBox="0 0 1024 1024"><g transform="scale(1, -1) translate(0, -900)"><path d="M 971 81 Q 955 112 934 209 Q 933 225 925 230 Q 918 233 915 215 Q 893 112 874 78 Q 853 54 782 57 Q 755 58 734 67 Q 716 76 711 87 Q 689 141 720 301 Q 726 331 678 351 Q 665 355 657 351 Q 650 347 655 329 Q 668 290 664 254 Q 652 109 664 69 Q 667 50 685 34 Q 745 -20 891 4 Q 895 7 901 7 Q 934 16 966 37 Q 987 55 971 81 Z" fill="black" /></g></svg>