<?xml version='1.0' encoding='utf-8'?>
<svg xmlns="http://www.w3.org/2000/svg" version="1.1" viewBox="0 0 1024 1024"><g transform="scale(1, -1) translate(0, -900)"><path d="M 877 42 Q 859 87 847 166 Q 844 182 837 186 Q 830 190 827 171 Q 814 74 800 55 Q 776 25 668 20 Q 608 20 583 28 Q 561 38 555 53 Q 537 122 568 186 Q 580 214 561 231 Q 512 265 500 262 C 483 267 485 261 494 232 Q 507 199 506 151 Q 505 49 521 23 Q 542 -11 619 -23 Q 671 -30 756 -25 Q 832 -21 862 -4 Q 890 12 877 42 Z" fill="black" /></g></svg>