<?xml version='1.0' encoding='utf-8'?>
<svg xmlns="http://www.w3.org/2000/svg" version="1.1" viewBox="0 0 1024 1024"><g transform="scale(1, -1) translate(0, -900)"><path d="M 991 78 Q 978 106 957 195 Q 956 210 949 214 Q 943 217 940 200 Q 919 106 903 75 Q 879 48 805 51 Q 777 51 754 60 Q 735 69 729 81 Q 707 127 734 293 Q 740 321 695 338 Q 685 342 676 338 Q 670 334 675 318 Q 685 284 683 249 Q 674 104 686 64 Q 689 45 707 30 Q 767 -18 912 5 Q 916 8 922 8 Q 955 18 987 39 Q 1003 55 991 78 Z" fill="black" /></g></svg>