<?xml version='1.0' encoding='utf-8'?>
<svg xmlns="http://www.w3.org/2000/svg" version="1.1" viewBox="0 0 1024 1024"><g transform="scale(1, -1) translate(0, -900)"><path d="M 674 547 Q 675 653 699 721 Q 705 734 695 744 Q 674 760 638 771 Q 614 777 607 770 Q 598 763 605 752 Q 627 718 630 675 Q 633 605 632 535 L 632 502 Q 626 385 623 368 L 619 332 Q 598 188 535 106 Q 511 78 478 46 Q 468 39 468 34 Q 469 30 480 32 Q 492 28 521 44 Q 632 101 657 287 Q 657 294 659 299 L 667 374 Q 668 389 669 404 Q 670 459 673 512 L 674 547 Z" fill="black" /></g></svg>