<?xml version='1.0' encoding='utf-8'?>
<svg xmlns="http://www.w3.org/2000/svg" version="1.1" viewBox="0 0 1024 1024"><g transform="scale(1, -1) translate(0, -900)"><path d="M 980 74 Q 965 108 948 214 Q 948 230 941 234 Q 935 237 931 220 Q 910 108 892 73 Q 876 51 804 53 Q 779 56 757 65 Q 724 84 724 144 Q 725 201 739 275 Q 743 291 733 302 Q 720 314 699 323 Q 686 327 679 322 Q 672 318 677 302 Q 689 265 686 229 Q 679 103 689 68 Q 693 49 710 32 Q 780 -25 909 3 Q 910 4 914 4 Q 945 13 975 34 Q 993 49 980 74 Z" fill="black" /></g></svg>