<?xml version='1.0' encoding='utf-8'?>
<svg xmlns="http://www.w3.org/2000/svg" version="1.1" viewBox="0 0 1024 1024"><g transform="scale(1, -1) translate(0, -900)"><path d="M 491 465 Q 484 481 473 527 Q 473 537 468 541 Q 464 544 461 532 Q 439 481 427 466 Q 421 462 407 457 Q 376 448 350 454 Q 341 457 339 462 Q 333 475 333 497 L 336 533 Q 339 554 344 577 Q 348 592 338 600 Q 328 610 311 617 C 284 630 281 631 287 611 Q 287 607 290 600 Q 296 579 297 518 L 296 485 Q 296 440 312 428 Q 354 400 444 421 Q 444 422 447 422 Q 466 428 487 441 Q 499 450 491 465 Z" fill="black" /></g></svg>