<?xml version='1.0' encoding='utf-8'?>
<svg xmlns="http://www.w3.org/2000/svg" version="1.1" viewBox="0 0 1024 1024"><g transform="scale(1, -1) translate(0, -900)"><path d="M 524 505 Q 689 544 706 527 Q 718 520 721 468 Q 731 293 721 94 Q 720 64 709 57 Q 694 45 621 58 Q 605 61 606 51 Q 607 44 621 38 Q 687 -4 722 -38 Q 743 -57 756 -54 Q 768 -51 779 -22 Q 794 23 792 89 Q 779 348 780 443 Q 780 482 791 505 Q 803 527 792 538 Q 782 553 735 576 Q 716 586 697 581 Q 646 563 536 538 Q 533 538 532 537 L 501 531 Q 422 518 341 506 C 311 502 326 459 355 467 Q 409 483 470 494 L 524 505 Z" fill="black" /></g></svg>