<?xml version='1.0' encoding='utf-8'?>
<svg xmlns="http://www.w3.org/2000/svg" version="1.1" viewBox="0 0 1024 1024"><g transform="scale(1, -1) translate(0, -900)"><path d="M 308 491 Q 338 501 376 508 Q 395 515 407 506 Q 417 500 419 452 Q 426 292 413 109 Q 412 82 402 75 Q 389 66 330 81 Q 317 82 318 75 Q 318 69 329 65 Q 381 28 409 -1 Q 425 -17 436 -15 Q 446 -14 456 10 Q 469 46 469 99 Q 459 453 474 488 Q 484 506 475 515 Q 466 528 428 546 Q 409 555 356 535 L 325 526 Q 315 525 306 521 Q 248 508 188 496 C 159 490 180 454 208 463 Q 241 475 269 480 L 308 491 Z" fill="black" /></g></svg>