<?xml version='1.0' encoding='utf-8'?>
<svg xmlns="http://www.w3.org/2000/svg" version="1.1" viewBox="0 0 1024 1024"><g transform="scale(1, -1) translate(0, -900)"><path d="M 730 92 Q 714 70 696 74 Q 668 81 627 90 Q 611 94 611 90 Q 612 86 628 72 Q 665 39 687 0 Q 697 -16 706 -20 Q 713 -21 732 -8 Q 787 37 823 109 Q 853 170 885 338 Q 891 363 903 373 Q 916 383 904 399 Q 891 412 863 431 Q 842 444 783 429 Q 774 428 767 426 Q 740 423 657 406 Q 644 396 637 409 Q 636 418 692 506 Q 722 546 735 552 Q 744 556 743 561 Q 744 568 738 572 Q 717 588 692 596 Q 680 602 611 573 Q 551 552 520 549 Q 507 548 504 543 Q 503 539 508 531 Q 515 524 529 517 Q 541 510 582 523 Q 666 559 669 550 Q 669 544 624 454 Q 608 427 584 401 Q 568 389 582 358 Q 585 349 609 360 L 634 367 Q 664 377 713 385 L 749 392 Q 783 399 804 399 Q 820 399 823 389 Q 841 302 773 158 Q 752 125 730 92 Z" fill="black" /></g></svg>