<?xml version='1.0' encoding='utf-8'?>
<svg xmlns="http://www.w3.org/2000/svg" version="1.1" viewBox="0 0 1024 1024"><g transform="scale(1, -1) translate(0, -900)"><path d="M 332 498 Q 356 505 388 511 Q 407 515 419 505 Q 429 499 433 452 Q 443 295 434 115 Q 434 88 424 81 Q 412 72 354 81 Q 341 82 342 75 Q 343 69 354 65 Q 406 32 435 5 Q 453 -10 463 -8 Q 473 -5 481 18 Q 493 55 491 108 Q 472 453 488 489 Q 498 507 489 517 Q 480 529 441 548 Q 425 555 410 551 Q 391 544 353 534 L 329 527 Q 326 528 325 527 Q 270 517 210 507 C 180 502 198 469 228 474 Q 235 474 246 476 Q 264 483 289 487 L 332 498 Z" fill="black" /></g></svg>