<?xml version='1.0' encoding='utf-8'?>
<svg xmlns="http://www.w3.org/2000/svg" version="1.1" viewBox="0 0 1024 1024"><g transform="scale(1, -1) translate(0, -900)"><path d="M 426 135 Q 411 462 427 496 Q 442 521 383 553 Q 367 560 352 557 Q 328 548 286 536 L 270 531 Q 267 532 265 531 Q 213 521 156 511 C 126 506 142 469 170 479 Q 179 485 232 495 L 270 504 Q 348 525 359 514 Q 369 507 372 460 Q 382 303 370 123 Q 369 96 359 89 Q 349 80 293 86 Q 280 87 282 80 Q 283 73 294 70 Q 345 39 372 13 Q 388 -3 399 0 Q 409 3 418 26 Q 428 59 427 104 L 426 135 Z" fill="black" /></g></svg>