<?xml version='1.0' encoding='utf-8'?>
<svg xmlns="http://www.w3.org/2000/svg" version="1.1" viewBox="0 0 1024 1024"><g transform="scale(1, -1) translate(0, -900)"><path d="M 703 -4 Q 707 -28 714 -37 Q 720 -44 727 -42 Q 740 -33 747 23 Q 754 84 752 146 Q 751 174 751 241 L 751 282 Q 751 325 753 378 L 755 422 Q 756 429 757 433 Q 760 451 763 465 Q 766 481 752 491 Q 721 512 707 514 Q 695 518 680 510 Q 671 503 679 493 Q 698 460 699 406 L 700 367 Q 700 324 699 272 L 699 235 Q 699 28 703 -4 Z" fill="black" /></g></svg>