<?xml version='1.0' encoding='utf-8'?>
<svg xmlns="http://www.w3.org/2000/svg" version="1.1" viewBox="0 0 1024 1024"><g transform="scale(1, -1) translate(0, -900)"><path d="M 296 515 Q 323 522 356 530 Q 375 534 385 525 Q 395 519 398 473 Q 410 319 401 144 Q 401 119 391 111 Q 382 105 339 119 Q 326 123 325 115 Q 325 108 336 102 Q 373 62 392 32 Q 408 16 420 17 Q 430 18 441 43 Q 454 77 456 122 L 456 126 Q 456 130 457 136 Q 442 473 457 506 Q 467 525 459 534 Q 449 547 410 567 Q 394 574 377 571 Q 359 564 328 554 L 299 545 Q 296 546 294 545 Q 245 535 194 524 C 165 518 181 482 210 491 Q 217 494 262 506 L 296 515 Z" fill="black" /></g></svg>