<?xml version='1.0' encoding='utf-8'?>
<svg xmlns="http://www.w3.org/2000/svg" version="1.1" viewBox="0 0 1024 1024"><g transform="scale(1, -1) translate(0, -900)"><path d="M 890 487 Q 903 491 895 506 Q 882 522 866 531 Q 856 537 836 528 Q 806 515 770 516 Q 748 517 740 534 Q 727 556 739 618 Q 742 655 779 695 Q 794 708 779 721 Q 758 739 735 748 Q 726 752 711 743 Q 666 719 612 704 C 583 696 591 664 620 673 Q 638 677 682 698 Q 695 705 702 704 Q 709 703 709 691 Q 705 645 699 604 Q 689 556 699 524 Q 703 502 724 488 Q 752 472 808 472 Q 862 473 890 487 Z" fill="black" /></g></svg>