<?xml version='1.0' encoding='utf-8'?>
<svg xmlns="http://www.w3.org/2000/svg" version="1.1" viewBox="0 0 1024 1024"><g transform="scale(1, -1) translate(0, -900)"><path d="M 733 271 Q 751 280 807 280 Q 820 280 824 274 Q 833 250 799 122 Q 778 53 756 24 Q 744 6 730 5 Q 720 1 661 18 Q 651 22 651 16 Q 650 12 660 2 Q 690 -38 701 -67 Q 707 -85 717 -85 Q 750 -88 793 -37 Q 832 17 889 208 Q 895 230 912 243 Q 925 255 925 263 Q 919 293 850 321 Q 829 330 772 315 Q 757 312 737 306 Q 665 291 560 276 C 530 272 515 261 544 256 Q 545 256 548 255 Q 563 251 579 251 L 611 253 Q 611 254 614 254 Q 650 260 686 264 L 733 271 Z" fill="black" /></g></svg>