<?xml version='1.0' encoding='utf-8'?>
<svg xmlns="http://www.w3.org/2000/svg" version="1.1" viewBox="0 0 1024 1024"><g transform="scale(1, -1) translate(0, -900)"><path d="M 701 179 Q 744 242 772 341 Q 778 375 795 392 Q 810 405 792 420 Q 771 433 739 444 Q 720 450 699 439 Q 650 408 579 392 Q 554 388 544 380 Q 537 373 554 366 Q 579 356 615 370 Q 655 383 695 395 Q 714 402 715 382 Q 715 294 664 213 L 642 182 Q 594 134 480 94 Q 465 90 475 82 Q 482 78 509 82 Q 587 92 632 116 Q 653 128 671 145 L 701 179 Z" fill="black" /></g></svg>