<?xml version='1.0' encoding='utf-8'?>
<svg xmlns="http://www.w3.org/2000/svg" version="1.1" viewBox="0 0 1024 1024"><g transform="scale(1, -1) translate(0, -900)"><path d="M 323 290 Q 344 297 372 302 Q 390 308 399 299 Q 406 295 407 267 Q 419 60 399 44 Q 390 37 340 41 Q 328 42 329 36 Q 330 30 340 27 Q 386 -1 410 -23 Q 426 -36 434 -35 Q 443 -32 451 -12 Q 461 21 459 67 Q 447 259 459 284 Q 468 300 460 308 Q 453 318 418 336 Q 405 342 391 339 Q 372 332 337 321 L 303 312 Q 267 305 234 298 C 205 292 206 263 236 268 Q 240 268 249 269 Q 265 276 288 281 L 323 290 Z" fill="black" /></g></svg>