<?xml version='1.0' encoding='utf-8'?>
<svg xmlns="http://www.w3.org/2000/svg" version="1.1" viewBox="0 0 1024 1024"><g transform="scale(1, -1) translate(0, -900)"><path d="M 313 511 Q 341 518 376 525 Q 394 531 403 521 Q 413 515 417 470 Q 429 316 422 141 Q 422 116 412 108 Q 402 102 354 119 Q 341 123 341 115 Q 342 109 351 103 Q 393 63 414 34 Q 430 18 440 19 Q 450 20 460 44 Q 473 80 475 132 Q 456 468 472 504 Q 481 520 473 531 Q 464 543 426 561 Q 411 568 395 564 Q 374 557 335 544 L 310 538 Q 309 538 307 537 Q 249 524 191 515 C 161 510 179 474 208 483 Q 232 492 269 499 L 313 511 Z" fill="black" /></g></svg>