<?xml version='1.0' encoding='utf-8'?>
<svg xmlns="http://www.w3.org/2000/svg" version="1.1" viewBox="0 0 1024 1024"><g transform="scale(1, -1) translate(0, -900)"><path d="M 644 489 Q 707 408 801 363 Q 873 336 889 352 Q 905 362 894 395 Q 885 423 872 524 Q 871 543 866 546 Q 862 547 858 529 Q 831 435 808 433 Q 747 451 677 521 L 648 557 Q 599 624 566 710 L 553 751 Q 546 787 547 808 Q 550 833 507 845 Q 473 855 458 849 Q 442 843 457 822 Q 487 791 505 738 L 521 702 Q 570 588 619 522 L 644 489 Z" fill="black" /></g></svg>