<?xml version='1.0' encoding='utf-8'?>
<svg xmlns="http://www.w3.org/2000/svg" version="1.1" viewBox="0 0 1024 1024"><g transform="scale(1, -1) translate(0, -900)"><path d="M 788 604 Q 803 576 816 566 Q 825 559 840 576 Q 850 589 881 670 Q 891 697 913 717 Q 925 727 915 740 Q 903 756 867 781 Q 855 788 784 774 Q 777 774 632 750 Q 572 740 520 732 C 490 727 521 698 550 705 Q 577 712 615 720 L 632 723 Q 665 730 707 737 L 736 741 Q 817 756 834 743 Q 843 736 839 723 Q 815 633 801 622 C 788 603 788 605 788 604 Z" fill="black" /></g></svg>