<?xml version='1.0' encoding='utf-8'?>
<svg xmlns="http://www.w3.org/2000/svg" version="1.1" viewBox="0 0 1024 1024"><g transform="scale(1, -1) translate(0, -900)"><path d="M 628 447 Q 808 474 822 473 Q 837 473 840 467 Q 861 430 847 222 Q 834 107 808 57 Q 795 26 774 19 Q 764 16 704 30 Q 695 33 695 28 Q 695 24 705 16 Q 742 -23 758 -50 Q 767 -66 778 -66 Q 797 -65 816 -43 Q 880 15 896 156 Q 906 252 911 396 Q 911 429 929 452 Q 942 464 940 472 Q 939 479 921 492 Q 896 510 863 519 Q 844 525 776 505 Q 764 504 752 499 Q 710 490 565 465 C 535 460 527 458 553 452 Q 562 448 589 444 L 628 447 Z" fill="black" /></g></svg>