<?xml version='1.0' encoding='utf-8'?>
<svg xmlns="http://www.w3.org/2000/svg" version="1.1" viewBox="0 0 1024 1024"><g transform="scale(1, -1) translate(0, -900)"><path d="M 575 616 Q 633 632 696 650 Q 709 654 721 645 Q 728 633 727 615 Q 703 158 866 51 Q 876 45 891 37 Q 930 18 950 29 Q 963 35 958 57 Q 949 139 952 225 Q 953 237 949 245 Q 942 254 937 235 Q 916 175 902 149 Q 883 113 858 141 Q 792 195 776 348 Q 764 397 778 551 Q 781 594 822 641 Q 837 657 818 670 Q 805 685 747 710 Q 729 719 688 691 Q 621 658 477 629 Q 462 625 471 616 Q 489 598 535 605 L 575 616 Z" fill="black" /></g></svg>