<?xml version='1.0' encoding='utf-8'?>
<svg xmlns="http://www.w3.org/2000/svg" version="1.1" viewBox="0 0 1024 1024"><g transform="scale(1, -1) translate(0, -900)"><path d="M 584 374 Q 574 164 624 110 Q 715 26 893 50 Q 902 53 913 55 Q 956 67 997 98 Q 1019 114 1005 144 Q 992 171 973 252 Q 972 268 965 274 Q 959 278 954 259 Q 926 172 908 146 Q 895 128 857 120 Q 767 101 686 145 Q 626 182 625 294 Q 626 340 631 391 L 635 432 Q 639 484 651 542 Q 657 561 644 571 Q 622 595 600 596 C 573 606 573 606 578 583 Q 578 579 580 571 Q 593 529 591 489 Q 588 450 586 414 L 584 374 Z" fill="black" /></g></svg>