<?xml version='1.0' encoding='utf-8'?>
<svg xmlns="http://www.w3.org/2000/svg" version="1.1" viewBox="0 0 1024 1024"><g transform="scale(1, -1) translate(0, -900)"><path d="M 494 403 Q 481 400 479 393 Q 478 386 485 383 Q 519 376 610 406 Q 631 413 633 406 Q 637 399 628 382 Q 514 196 526 125 Q 530 92 555 72 Q 583 50 646 36 Q 698 24 768 28 Q 849 32 943 75 Q 968 85 963 105 Q 950 156 944 236 Q 941 249 934 249 Q 930 250 923 235 Q 913 207 903 173 Q 888 128 851 114 Q 815 93 730 90 Q 646 86 614 101 Q 584 114 575 143 Q 554 209 658 343 Q 689 385 723 404 Q 745 416 737 427 Q 730 440 682 464 Q 664 474 640 460 Q 564 418 494 403 Z" fill="black" /></g></svg>