<?xml version='1.0' encoding='utf-8'?>
<svg xmlns="http://www.w3.org/2000/svg" version="1.1" viewBox="0 0 1024 1024"><g transform="scale(1, -1) translate(0, -900)"><path d="M 770 466 Q 843 476 934 474 Q 958 471 967 479 Q 974 485 967 497 Q 961 510 920 531 Q 896 541 826 524 Q 793 521 771 513 L 713 501 Q 638 485 569 462 Q 556 456 553 461 Q 549 464 552 472 Q 565 521 573 535 Q 580 547 570 559 Q 554 581 528 594 Q 515 600 507 593 Q 501 589 509 572 Q 522 545 516 509 Q 506 472 486 456 Q 473 443 477 430 Q 484 409 501 393 Q 511 381 530 393 Q 584 433 691 452 L 770 466 Z" fill="black" /></g></svg>