<?xml version='1.0' encoding='utf-8'?>
<svg xmlns="http://www.w3.org/2000/svg" version="1.1" viewBox="0 0 1024 1024"><g transform="scale(1, -1) translate(0, -900)"><path d="M 713 376 Q 713 265 713 112 Q 712 78 701 67 Q 689 60 662 68 Q 643 74 617 80 Q 604 84 605 76 Q 605 69 615 58 Q 676 3 712 -40 Q 724 -50 739 -33 Q 782 21 778 105 Q 765 336 770 466 L 771 513 Q 772 562 777 608 Q 784 636 777 647 Q 768 660 739 675 C 713 690 686 693 695 664 Q 711 613 712 591 Q 712 534 713 501 L 713 376 Z" fill="black" /></g></svg>