<?xml version='1.0' encoding='utf-8'?>
<svg xmlns="http://www.w3.org/2000/svg" version="1.1" viewBox="0 0 1024 1024"><g transform="scale(1, -1) translate(0, -900)"><path d="M 632 346 Q 631 210 643 170 Q 650 143 669 126 Q 723 72 883 82 Q 953 89 980 105 Q 1011 123 997 156 Q 976 202 960 285 Q 957 301 950 306 Q 940 310 938 290 Q 928 188 913 169 Q 900 145 797 141 Q 742 141 719 150 Q 698 159 693 172 Q 674 223 673 356 Q 673 366 674 376 L 679 432 Q 689 523 709 571 Q 722 602 703 620 Q 651 662 635 657 Q 619 651 626 633 Q 645 593 640 536 Q 636 454 633 387 L 632 346 Z" fill="black" /></g></svg>