<?xml version='1.0' encoding='utf-8'?>
<svg xmlns="http://www.w3.org/2000/svg" version="1.1" viewBox="0 0 1024 1024"><g transform="scale(1, -1) translate(0, -900)"><path d="M 672 521 Q 723 533 780 543 Q 802 550 816 539 Q 826 532 830 482 Q 840 313 829 121 Q 828 93 818 85 Q 808 76 750 85 Q 734 89 734 79 Q 735 72 748 64 Q 800 21 825 -13 Q 847 -34 860 -32 Q 873 -28 886 1 Q 902 47 903 117 Q 891 360 892 450 Q 892 490 904 515 Q 917 537 906 550 Q 894 565 846 590 Q 825 600 806 594 Q 763 579 677 557 L 628 546 Q 564 533 499 523 C 469 518 483 472 512 480 Q 518 481 525 483 Q 571 496 624 509 L 672 521 Z" fill="black" /></g></svg>