<?xml version='1.0' encoding='utf-8'?>
<svg xmlns="http://www.w3.org/2000/svg" version="1.1" viewBox="0 0 1024 1024"><g transform="scale(1, -1) translate(0, -900)"><path d="M 584 689 Q 630 707 678 724 Q 687 721 686 707 Q 682 566 690 543 Q 696 521 718 507 Q 749 491 807 494 Q 864 498 892 516 Q 907 522 897 537 Q 881 555 862 564 Q 849 570 826 558 Q 801 545 765 543 Q 743 543 736 558 Q 723 579 731 641 Q 732 678 767 719 Q 783 735 766 749 Q 741 768 714 777 Q 702 783 687 772 Q 632 742 563 723 C 534 715 556 678 584 689 Z" fill="black" /></g></svg>