<?xml version='1.0' encoding='utf-8'?>
<svg xmlns="http://www.w3.org/2000/svg" version="1.1" viewBox="0 0 1024 1024"><g transform="scale(1, -1) translate(0, -900)"><path d="M 686 182 Q 723 239 746 330 Q 750 364 768 383 Q 783 398 764 412 Q 742 425 709 436 Q 688 442 668 429 Q 629 401 571 382 Q 546 376 535 368 Q 528 361 546 354 Q 574 344 610 361 Q 638 371 666 383 Q 682 392 686 372 Q 686 293 645 217 L 622 178 Q 568 114 444 70 Q 429 66 439 58 Q 446 54 474 58 Q 553 68 601 94 Q 629 112 655 140 L 686 182 Z" fill="black" /></g></svg>