<?xml version='1.0' encoding='utf-8'?>
<svg xmlns="http://www.w3.org/2000/svg" version="1.1" viewBox="0 0 1024 1024"><g transform="scale(1, -1) translate(0, -900)"><path d="M 890 571 Q 877 602 866 658 Q 865 673 858 678 Q 851 682 846 664 Q 825 600 814 589 Q 804 579 778 571 Q 684 552 626 575 Q 607 585 603 597 Q 585 643 596 696 L 598 718 Q 602 758 612 778 Q 624 806 605 823 Q 556 857 542 854 Q 527 848 535 832 Q 554 796 551 743 Q 550 583 576 555 Q 598 533 652 522 Q 700 513 776 513 Q 845 514 872 527 Q 900 540 890 571 Z" fill="black" /></g></svg>