<?xml version='1.0' encoding='utf-8'?>
<svg xmlns="http://www.w3.org/2000/svg" version="1.1" viewBox="0 0 1024 1024"><g transform="scale(1, -1) translate(0, -900)"><path d="M 671 431 Q 729 178 875 66 Q 942 27 962 40 Q 980 49 974 83 Q 967 113 966 223 Q 967 242 962 246 Q 958 247 953 230 Q 919 128 896 133 Q 790 178 727 377 Q 717 411 710 442 L 703 484 Q 693 547 706 593 Q 713 615 675 637 Q 659 647 643 650 C 615 660 606 663 617 638 Q 617 634 621 625 Q 643 591 648 551 Q 654 511 662 470 L 671 431 Z" fill="black" /></g></svg>