<?xml version='1.0' encoding='utf-8'?>
<svg xmlns="http://www.w3.org/2000/svg" version="1.1" viewBox="0 0 1024 1024"><g transform="scale(1, -1) translate(0, -900)"><path d="M 530 620 Q 520 630 477 642 Q 461 645 456 640 Q 449 633 460 616 Q 490 574 490 426 Q 490 228 429 154 Q 417 142 425 122 Q 434 95 448 83 Q 460 74 472 89 Q 512 143 636 255 Q 651 265 652 274 Q 653 280 648 279 Q 638 278 537 213 Q 528 209 525 211 Q 518 215 520 234 Q 532 559 537 595 Q 538 599 538 604 C 539 615 539 615 530 620 Z" fill="black" /></g></svg>