<?xml version='1.0' encoding='utf-8'?>
<svg xmlns="http://www.w3.org/2000/svg" version="1.1" viewBox="0 0 1024 1024"><g transform="scale(1, -1) translate(0, -900)"><path d="M 655 613 L 656 612 Q 660 596 672 596 Q 693 599 728 665 Q 747 716 786 742 Q 805 757 791 773 Q 775 791 727 821 Q 714 830 643 818 Q 541 809 418 790 Q 330 777 276 772 Q 275 773 273 772 Q 269 773 267 772 C 237 770 284 729 313 735 Q 317 735 322 736 Q 356 746 410 754 L 437 758 Q 485 767 546 772 L 585 776 Q 673 791 697 776 Q 704 772 697 748 Q 673 661 659 642 C 648 622 648 622 655 613 Z" fill="black" /></g></svg>