<?xml version='1.0' encoding='utf-8'?>
<svg xmlns="http://www.w3.org/2000/svg" version="1.1" viewBox="0 0 1024 1024"><g transform="scale(1, -1) translate(0, -900)"><path d="M 644 656 Q 720 675 781 683 Q 803 686 806 679 Q 815 664 807 629 Q 791 529 764 486 Q 745 458 719 463 Q 697 470 679 479 Q 655 489 670 464 Q 706 418 720 385 Q 738 363 756 379 Q 811 412 846 528 Q 871 649 892 674 Q 905 687 899 698 Q 890 710 839 735 Q 818 745 798 732 Q 774 719 683 699 Q 592 678 514 674 Q 496 673 494 664 Q 493 657 516 644 Q 541 628 561 635 Q 585 642 610 648 L 644 656 Z" fill="black" /></g></svg>