<?xml version='1.0' encoding='utf-8'?>
<svg xmlns="http://www.w3.org/2000/svg" version="1.1" viewBox="0 0 1024 1024"><g transform="scale(1, -1) translate(0, -900)"><path d="M 694 681 Q 678 680 688 670 Q 697 660 712 654 Q 739 648 817 676 Q 833 680 843 672 Q 853 662 853 625 Q 860 342 845 170 Q 844 143 836 132 Q 832 126 812 131 Q 787 138 760 145 Q 739 154 740 143 Q 795 88 824 50 Q 837 31 853 24 Q 863 20 872 30 Q 917 81 916 137 Q 895 606 922 658 Q 935 679 923 689 Q 901 708 862 724 Q 840 733 800 708 Q 746 689 694 681 Z" fill="black" /></g></svg>