<?xml version='1.0' encoding='utf-8'?>
<svg xmlns="http://www.w3.org/2000/svg" version="1.1" viewBox="0 0 1024 1024"><g transform="scale(1, -1) translate(0, -900)"><path d="M 643 302 Q 639 581 652 606 Q 662 624 651 632 Q 632 648 600 661 Q 579 668 543 642 Q 476 621 469 618 Q 456 617 464 608 Q 473 599 486 596 Q 499 595 564 618 Q 577 625 585 619 Q 598 606 596 394 L 596 380 Q 593 146 580 127 Q 576 123 559 126 Q 532 133 506 142 Q 488 149 489 140 Q 541 91 570 57 Q 582 41 595 35 Q 604 32 611 40 Q 647 88 648 151 Q 644 212 643 287 L 643 302 Z" fill="black" /></g></svg>