<?xml version='1.0' encoding='utf-8'?>
<svg xmlns="http://www.w3.org/2000/svg" version="1.1" viewBox="0 0 1024 1024"><g transform="scale(1, -1) translate(0, -900)"><path d="M 734 57 Q 765 15 787 -22 Q 797 -41 808 -41 Q 826 -40 842 -5 Q 861 35 859 84 Q 853 153 847 281 Q 846 312 864 334 Q 874 347 864 358 Q 845 377 792 403 Q 774 412 759 403 Q 699 375 563 348 C 534 342 546 312 576 317 Q 606 320 743 352 Q 765 356 777 349 Q 798 328 788 152 Q 788 103 784 88 Q 780 72 767 75 C 742 59 733 59 734 57 Z" fill="black" /></g></svg>