<?xml version='1.0' encoding='utf-8'?>
<svg xmlns="http://www.w3.org/2000/svg" version="1.1" viewBox="0 0 1024 1024"><g transform="scale(1, -1) translate(0, -900)"><path d="M 576 652 Q 580 709 591 736 Q 603 767 583 783 Q 531 819 515 814 Q 500 807 509 790 Q 530 753 528 698 Q 528 536 551 503 Q 576 458 658 446 Q 712 439 801 449 Q 876 461 904 480 Q 932 493 920 522 Q 907 555 897 612 Q 896 628 890 634 Q 883 640 877 619 Q 852 553 839 543 Q 830 528 801 520 Q 684 490 616 510 Q 592 517 587 531 Q 575 561 575 630 L 576 652 Z" fill="black" /></g></svg>