<?xml version='1.0' encoding='utf-8'?>
<svg xmlns="http://www.w3.org/2000/svg" version="1.1" viewBox="0 0 1024 1024"><g transform="scale(1, -1) translate(0, -900)"><path d="M 513 713 Q 491 710 491 698 Q 494 688 517 675 Q 542 660 555 662 Q 565 662 576 668 Q 675 713 802 734 Q 811 738 827 727 Q 831 720 824 574 Q 815 351 818 212 Q 819 109 811 97 Q 808 90 800 91 Q 787 92 727 112 Q 714 119 711 113 Q 707 106 734 82 Q 774 45 801 12 Q 823 -19 835 -18 Q 845 -19 853 -2 Q 889 55 885 94 Q 863 455 883 618 Q 886 684 908 709 Q 915 721 915 726 Q 915 738 883 758 Q 829 792 782 773 Q 638 722 513 713 Z" fill="black" /></g></svg>