<?xml version='1.0' encoding='utf-8'?>
<svg xmlns="http://www.w3.org/2000/svg" version="1.1" viewBox="0 0 1024 1024"><g transform="scale(1, -1) translate(0, -900)"><path d="M 676 475 Q 728 163 887 24 Q 950 -25 980 -24 Q 1001 -20 993 10 Q 986 52 977 174 Q 976 198 966 199 Q 960 198 954 176 Q 924 100 909 99 Q 897 103 878 120 Q 770 234 721 477 Q 720 483 718 488 L 709 546 Q 690 667 703 751 Q 716 791 660 813 Q 626 829 605 821 Q 586 814 595 795 Q 641 753 641 720 Q 653 614 667 527 L 676 475 Z" fill="black" /></g></svg>