<?xml version='1.0' encoding='utf-8'?>
<svg xmlns="http://www.w3.org/2000/svg" version="1.1" viewBox="0 0 1024 1024"><g transform="scale(1, -1) translate(0, -900)"><path d="M 605 406 Q 596 413 582 419 Q 569 423 561 418 Q 554 414 560 397 Q 572 358 569 321 Q 557 146 572 97 Q 576 72 599 49 Q 680 -20 850 6 Q 862 9 876 12 Q 918 24 958 52 Q 979 68 964 97 Q 951 122 929 205 Q 929 221 921 226 Q 914 229 910 211 Q 885 123 867 96 Q 834 57 729 65 Q 689 68 656 82 Q 628 97 619 116 Q 592 173 625 369 Q 626 373 626 377 C 628 393 628 393 605 406 Z" fill="black" /></g></svg>