<?xml version='1.0' encoding='utf-8'?>
<svg xmlns="http://www.w3.org/2000/svg" version="1.1" viewBox="0 0 1024 1024"><g transform="scale(1, -1) translate(0, -900)"><path d="M 567 280 Q 561 129 605 80 Q 681 8 852 29 Q 868 32 885 36 Q 925 49 965 79 Q 987 98 971 126 Q 958 145 934 209 Q 933 225 925 230 Q 918 233 915 215 Q 890 145 874 123 Q 862 107 824 97 Q 740 79 661 115 Q 631 131 623 152 Q 602 195 613 294 L 618 333 Q 619 357 625 382 Q 629 400 618 409 Q 608 419 590 427 C 564 442 550 443 558 414 Q 558 413 560 408 Q 569 384 569 319 L 567 280 Z" fill="black" /></g></svg>