<?xml version='1.0' encoding='utf-8'?>
<svg xmlns="http://www.w3.org/2000/svg" version="1.1" viewBox="0 0 1024 1024"><g transform="scale(1, -1) translate(0, -900)"><path d="M 641 381 Q 641 394 641 409 L 641 448 Q 641 497 641 552 L 641 602 Q 641 605 642 607 Q 642 716 662 791 Q 671 807 668 822 Q 661 832 600 869 Q 575 887 553 869 Q 547 865 554 847 Q 591 793 593 738 Q 594 668 597 588 L 597 541 Q 596 492 595 438 L 594 337 Q 594 169 571 71 Q 553 44 566 4 Q 573 -23 585 -49 Q 592 -68 601 -71 Q 608 -78 615 -69 Q 624 -65 635 -42 Q 645 -15 643 19 Q 642 62 641 343 L 641 381 Z" fill="black" /></g></svg>