<?xml version='1.0' encoding='utf-8'?>
<svg xmlns="http://www.w3.org/2000/svg" version="1.1" viewBox="0 0 1024 1024"><g transform="scale(1, -1) translate(0, -900)"><path d="M 534 230 Q 541 214 557 172 Q 584 78 687 44 Q 688 44 692 42 Q 830 3 950 74 Q 965 81 962 89 Q 959 102 940 120 Q 909 148 829 245 Q 823 254 817 254 Q 814 253 815 245 Q 827 196 838 143 Q 842 121 828 108 Q 807 89 708 98 Q 635 107 608 151 Q 589 182 576 216 Q 570 238 551 248 Q 536 255 531 249 Q 527 245 534 230 Z" fill="black" /></g></svg>