<?xml version='1.0' encoding='utf-8'?>
<svg xmlns="http://www.w3.org/2000/svg" version="1.1" viewBox="0 0 1024 1024"><g transform="scale(1, -1) translate(0, -900)"><path d="M 523 625 Q 511 635 487 648 Q 466 660 457 653 Q 450 646 457 630 Q 475 594 475 529 Q 476 318 453 123 Q 450 83 426 47 Q 416 31 425 11 Q 432 -11 443 -20 Q 453 -27 471 -16 Q 528 24 614 41 Q 714 60 905 62 Q 930 61 930 73 Q 930 88 901 107 Q 888 119 762 97 Q 591 78 531 63 Q 504 57 504 83 Q 516 273 525 514 Q 525 562 532 592 C 536 617 536 617 523 625 Z" fill="black" /></g></svg>