<?xml version='1.0' encoding='utf-8'?>
<svg xmlns="http://www.w3.org/2000/svg" version="1.1" viewBox="0 0 1024 1024"><g transform="scale(1, -1) translate(0, -900)"><path d="M 401 633 Q 401 661 403 694 L 404 740 Q 405 770 417 800 Q 423 816 408 824 Q 381 842 354 846 Q 341 847 335 840 Q 329 834 337 826 Q 359 798 361 727 L 362 686 Q 362 656 361 618 L 359 584 Q 358 551 357 513 Q 357 500 350 494 L 284 507 Q 274 508 276 501 Q 277 495 292 482 Q 334 448 353 423 Q 363 413 372 418 Q 382 422 394 444 Q 404 466 403 504 Q 402 543 401 604 L 401 633 Z" fill="black" /></g></svg>