<?xml version='1.0' encoding='utf-8'?>
<svg xmlns="http://www.w3.org/2000/svg" version="1.1" viewBox="0 0 1024 1024"><g transform="scale(1, -1) translate(0, -900)"><path d="M 750 618 Q 659 602 560 571 Q 550 567 547 570 Q 544 574 551 585 Q 660 739 684 765 Q 696 775 690 787 Q 683 799 636 822 Q 620 829 610 825 Q 598 819 604 799 Q 625 736 518 606 Q 496 582 461 556 Q 448 544 452 534 Q 456 518 482 498 Q 494 488 506 498 Q 548 534 751 592 Q 758 595 767 598 C 795 608 780 623 750 618 Z" fill="black" /></g></svg>