<?xml version='1.0' encoding='utf-8'?>
<svg xmlns="http://www.w3.org/2000/svg" version="1.1" viewBox="0 0 1024 1024"><g transform="scale(1, -1) translate(0, -900)"><path d="M 479 239 Q 424 130 357 47 Q 348 34 352 32 Q 356 29 364 36 Q 431 82 463 129 Q 487 169 507 216 L 521 250 Q 528 266 535 285 Q 556 348 568 364 Q 575 374 569 382 Q 559 392 544 397 Q 531 401 510 396 Q 486 392 480 398 Q 476 401 481 412 Q 503 455 524 505 Q 542 538 555 553 Q 571 568 559 580 Q 549 589 519 599 Q 497 609 482 596 Q 437 565 403 554 Q 390 550 398 543 Q 417 531 472 552 Q 485 555 489 549 Q 495 537 481 498 Q 462 431 443 409 Q 433 396 438 384 Q 442 377 459 378 Q 501 381 506 362 Q 515 341 490 271 L 479 239 Z" fill="black" /></g></svg>