<?xml version='1.0' encoding='utf-8'?>
<svg xmlns="http://www.w3.org/2000/svg" version="1.1" viewBox="0 0 1024 1024"><g transform="scale(1, -1) translate(0, -900)"><path d="M 733 270 Q 718 269 703 266 Q 676 259 664 263 Q 652 267 655 282 Q 658 322 665 367 Q 669 389 653 407 Q 625 432 604 432 Q 586 432 595 414 Q 623 368 618 322 Q 612 270 606 263 Q 596 247 604 232 Q 617 210 630 210 Q 637 209 658 219 Q 781 255 929 252 Q 950 251 950 262 Q 951 274 918 291 Q 891 306 877 299 Q 858 293 836 289 Q 805 285 773 277 L 733 270 Z" fill="black" /></g></svg>