<?xml version='1.0' encoding='utf-8'?>
<svg xmlns="http://www.w3.org/2000/svg" version="1.1" viewBox="0 0 1024 1024"><g transform="scale(1, -1) translate(0, -900)"><path d="M 516 558 Q 507 477 469 417 Q 460 405 459 396 Q 459 386 483 370 Q 505 352 537 317 Q 550 298 562 301 Q 575 302 581 320 Q 587 342 579 358 Q 570 379 507 393 Q 486 402 519 458 Q 525 470 534 483 Q 565 532 577 546 Q 587 550 588 558 Q 589 574 565 593 Q 544 612 526 613 Q 508 613 504 607 Q 503 603 508 594 Q 518 582 516 558 Z" fill="black" /></g></svg>