<?xml version='1.0' encoding='utf-8'?>
<svg xmlns="http://www.w3.org/2000/svg" version="1.1" viewBox="0 0 1024 1024"><g transform="scale(1, -1) translate(0, -900)"><path d="M 568 340 Q 634 361 686 371 Q 699 374 702 369 Q 706 365 701 354 Q 673 294 645 273 Q 635 266 635 253 Q 636 231 646 223 Q 656 216 670 223 Q 710 242 747 245 Q 766 246 772 239 Q 782 223 777 193 Q 768 115 739 54 Q 730 32 712 26 Q 697 23 632 49 Q 605 62 625 34 Q 656 -12 679 -51 Q 695 -73 719 -62 Q 773 -34 801 37 Q 841 190 859 211 Q 877 227 866 240 Q 853 253 814 278 Q 792 288 769 282 Q 733 272 724 273 Q 705 272 713 295 Q 750 349 777 364 Q 802 376 796 388 Q 792 398 746 421 Q 730 430 714 422 Q 657 389 428 345 Q 419 345 417 340 Q 416 333 440 317 Q 465 301 491 314 Q 512 321 532 327 L 568 340 Z" fill="black" /></g></svg>