<?xml version='1.0' encoding='utf-8'?>
<svg xmlns="http://www.w3.org/2000/svg" version="1.1" viewBox="0 0 1024 1024"><g transform="scale(1, -1) translate(0, -900)"><path d="M 655 514 Q 715 527 784 540 Q 802 543 810 533 Q 820 527 826 479 Q 841 316 836 131 Q 836 104 826 96 Q 814 89 759 104 Q 741 108 742 99 Q 742 90 756 82 Q 805 33 829 -4 Q 851 -26 865 -24 Q 878 -21 892 10 Q 913 70 907 188 Q 883 467 904 507 Q 917 529 906 541 Q 896 557 847 581 Q 825 593 764 572 Q 632 538 493 516 C 463 511 486 469 515 478 Q 518 482 606 502 L 655 514 Z" fill="black" /></g></svg>