<?xml version='1.0' encoding='utf-8'?>
<svg xmlns="http://www.w3.org/2000/svg" version="1.1" viewBox="0 0 1024 1024"><g transform="scale(1, -1) translate(0, -900)"><path d="M 816 394 Q 819 482 836 504 Q 854 529 840 541 Q 815 562 777 573 Q 758 582 694 557 Q 603 535 560 528 C 530 523 551 489 580 495 Q 608 499 716 531 Q 738 537 753 527 Q 768 517 766 471 Q 765 426 763 385 L 760 344 Q 756 254 745 193 L 738 153 Q 725 83 712 57 Q 702 39 681 46 Q 603 62 607 66 Q 577 73 601 49 Q 644 12 676 -27 Q 698 -55 717 -43 Q 786 8 802 142 L 807 188 Q 813 281 814 347 L 816 394 Z" fill="black" /></g></svg>