<?xml version='1.0' encoding='utf-8'?>
<svg xmlns="http://www.w3.org/2000/svg" version="1.1" viewBox="0 0 1024 1024"><g transform="scale(1, -1) translate(0, -900)"><path d="M 787 363 Q 809 432 831 456 Q 850 469 843 478 Q 833 491 785 512 Q 769 519 748 508 Q 745 507 521 451 Q 511 448 511 462 Q 515 502 524 527 Q 533 543 524 552 Q 508 568 479 578 Q 466 582 460 578 Q 450 571 459 558 Q 477 527 470 493 Q 467 466 448 446 Q 435 433 441 418 Q 448 405 467 392 Q 477 385 491 394 Q 515 413 554 425 Q 555 426 559 427 L 607 440 Q 652 453 717 461 Q 741 462 748 454 Q 757 445 729 351 C 721 322 777 335 787 363 Z" fill="black" /></g></svg>