<?xml version='1.0' encoding='utf-8'?>
<svg xmlns="http://www.w3.org/2000/svg" version="1.1" viewBox="0 0 1024 1024"><g transform="scale(1, -1) translate(0, -900)"><path d="M 717 506 Q 733 481 748 473 Q 758 464 775 486 Q 791 511 826 649 Q 836 680 860 705 Q 873 717 862 732 Q 847 748 804 776 Q 783 788 722 769 Q 719 769 569 740 Q 517 728 474 720 C 445 714 465 681 494 689 Q 528 699 578 710 L 622 719 Q 748 744 765 731 Q 778 721 774 699 Q 747 558 727 538 C 712 513 712 513 717 506 Z" fill="black" /></g></svg>