<?xml version='1.0' encoding='utf-8'?>
<svg xmlns="http://www.w3.org/2000/svg" version="1.1" viewBox="0 0 1024 1024"><g transform="scale(1, -1) translate(0, -900)"><path d="M 657 705 Q 721 718 796 730 Q 814 731 822 722 Q 838 713 842 642 Q 857 404 841 135 Q 840 95 825 84 Q 815 77 763 85 Q 745 89 746 79 Q 747 70 760 63 Q 808 17 831 -18 Q 853 -40 867 -37 Q 880 -34 893 -3 Q 912 46 912 117 Q 899 492 902 630 Q 903 670 916 694 Q 929 716 918 728 Q 908 744 860 770 Q 839 782 770 761 Q 653 731 510 714 C 480 710 506 669 535 677 Q 544 681 623 698 L 657 705 Z" fill="black" /></g></svg>