<?xml version='1.0' encoding='utf-8'?>
<svg xmlns="http://www.w3.org/2000/svg" version="1.1" viewBox="0 0 1024 1024"><g transform="scale(1, -1) translate(0, -900)"><path d="M 548 238 Q 547 235 547 230 Q 523 106 410 11 Q 400 2 400 -2 Q 401 -6 412 -4 Q 425 -8 455 9 Q 560 55 589 205 Q 593 233 598 267 L 601 300 Q 611 600 615 608 Q 615 614 626 640 Q 632 653 621 664 Q 599 680 561 690 Q 537 694 529 688 Q 520 681 528 670 Q 552 636 559 551 L 561 516 Q 562 471 562 426 L 562 390 Q 561 368 560 342 Q 559 314 555 281 L 548 238 Z" fill="black" /></g></svg>