<?xml version='1.0' encoding='utf-8'?>
<svg xmlns="http://www.w3.org/2000/svg" version="1.1" viewBox="0 0 1024 1024"><g transform="scale(1, -1) translate(0, -900)"><path d="M 784 93 Q 802 69 820 21 Q 830 2 849 13 Q 882 31 902 153 Q 929 327 950 362 Q 963 384 946 398 Q 885 456 836 438 Q 772 420 689 410 Q 679 410 679 399 Q 679 389 696 380 Q 726 368 757 377 Q 841 407 863 397 Q 873 391 871 369 Q 868 329 862 287 L 859 259 Q 849 193 833 125 Q 830 112 808 115 C 778 112 772 111 784 93 Z" fill="black" /></g></svg>