<?xml version='1.0' encoding='utf-8'?>
<svg xmlns="http://www.w3.org/2000/svg" version="1.1" viewBox="0 0 1024 1024"><g transform="scale(1, -1) translate(0, -900)"><path d="M 698 284 Q 691 309 674 324 L 657 337 Q 648 344 635 347 Q 614 354 604 348 Q 591 341 605 328 Q 633 309 646 274 L 655 239 Q 680 113 648 40 Q 635 16 603 23 Q 570 30 540 38 Q 528 41 533 30 Q 537 21 557 9 Q 597 -25 611 -52 Q 621 -70 637 -68 Q 650 -67 678 -41 Q 750 34 710 244 Q 709 247 709 248 L 698 284 Z" fill="black" /></g></svg>