<?xml version='1.0' encoding='utf-8'?>
<svg xmlns="http://www.w3.org/2000/svg" version="1.1" viewBox="0 0 1024 1024"><g transform="scale(1, -1) translate(0, -900)"><path d="M 573 351 Q 715 379 724 376 Q 737 369 736 342 Q 752 176 745 47 Q 744 20 729 15 Q 719 12 662 25 Q 649 29 650 20 Q 651 13 666 3 Q 703 -28 730 -62 Q 745 -78 761 -77 Q 777 -73 797 -26 Q 821 22 816 69 Q 806 184 797 291 Q 793 333 810 366 Q 822 382 807 396 Q 789 412 750 425 Q 728 435 711 422 Q 695 415 665 404 Q 598 386 563 378 C 534 371 544 345 573 351 Z" fill="black" /></g></svg>