<?xml version='1.0' encoding='utf-8'?>
<svg xmlns="http://www.w3.org/2000/svg" version="1.1" viewBox="0 0 1024 1024"><g transform="scale(1, -1) translate(0, -900)"><path d="M 759 361 Q 760 357 762 352 Q 766 336 780 337 Q 793 338 802 353 Q 820 378 849 499 Q 867 551 903 579 Q 922 595 906 611 Q 890 627 840 655 Q 824 664 784 653 Q 760 647 738 641 Q 717 634 703 632 Q 688 632 686 626 Q 683 622 698 612 Q 728 597 748 604 Q 796 623 805 615 Q 818 608 810 567 Q 804 539 798 515 L 791 483 Q 773 408 764 387 Q 763 387 763 386 C 756 369 756 369 759 361 Z" fill="black" /></g></svg>