<?xml version='1.0' encoding='utf-8'?>
<svg xmlns="http://www.w3.org/2000/svg" version="1.1" viewBox="0 0 1024 1024"><g transform="scale(1, -1) translate(0, -900)"><path d="M 702 664 Q 709 736 723 769 Q 735 797 717 814 Q 668 851 654 847 Q 639 841 647 825 Q 666 788 661 736 Q 654 540 682 500 Q 704 466 757 448 Q 797 435 863 436 Q 918 440 938 454 Q 968 467 958 497 Q 946 528 937 581 Q 936 597 930 602 Q 923 606 917 588 Q 895 528 883 519 Q 879 506 858 503 Q 833 499 795 501 Q 752 505 733 515 Q 717 525 712 537 Q 702 567 701 642 L 702 664 Z" fill="black" /></g></svg>