<?xml version='1.0' encoding='utf-8'?>
<svg xmlns="http://www.w3.org/2000/svg" version="1.1" viewBox="0 0 1024 1024"><g transform="scale(1, -1) translate(0, -900)"><path d="M 491 639 Q 491 663 495 681 Q 499 696 490 703 Q 471 719 450 727 Q 435 733 427 728 Q 417 722 429 706 Q 457 660 443 519 Q 437 489 416 457 Q 406 439 413 429 Q 422 417 444 408 Q 459 401 469 417 Q 485 450 571 507 Q 596 522 607 538 Q 613 548 605 548 Q 593 548 507 503 Q 497 497 490 500 Q 483 501 484 519 Q 488 577 490 613 L 491 639 Z" fill="black" /></g></svg>