<?xml version='1.0' encoding='utf-8'?>
<svg xmlns="http://www.w3.org/2000/svg" version="1.1" viewBox="0 0 1024 1024"><g transform="scale(1, -1) translate(0, -900)"><path d="M 539 400 Q 557 364 527 309 Q 520 297 498 281 Q 480 268 484 254 Q 485 239 502 225 Q 515 215 530 222 Q 578 256 665 285 Q 714 301 741 287 Q 760 272 755 239 Q 737 157 691 96 Q 672 72 656 68 Q 647 67 577 87 Q 561 97 559 90 Q 558 84 568 70 Q 596 27 615 -10 Q 624 -25 635 -25 Q 651 -28 672 -17 Q 744 35 792 163 Q 813 245 829 262 Q 841 274 832 288 Q 817 304 776 326 Q 757 336 734 331 Q 683 315 596 294 Q 572 288 583 313 Q 605 356 613 365 Q 626 380 614 395 Q 602 404 583 411 C 556 424 532 429 539 400 Z" fill="black" /></g></svg>