<?xml version='1.0' encoding='utf-8'?>
<svg xmlns="http://www.w3.org/2000/svg" version="1.1" viewBox="0 0 1024 1024"><g transform="scale(1, -1) translate(0, -900)"><path d="M 626 192 Q 623 -22 642 -45 Q 648 -52 655 -50 Q 673 -38 677 19 Q 686 110 684 200 L 682 238 Q 681 271 681 318 L 681 354 Q 681 381 682 411 L 683 448 Q 683 473 683 499 L 683 528 Q 684 561 685 586 L 688 627 Q 688 628 689 629 Q 693 657 697 677 Q 700 696 686 705 Q 667 718 653 724 C 627 738 589 739 603 713 Q 604 712 607 707 Q 611 695 619 685 Q 634 658 634 612 L 634 574 Q 634 547 633 517 L 633 487 Q 632 462 632 432 L 632 402 Q 631 374 630 342 L 629 311 Q 628 272 627 230 L 626 192 Z" fill="black" /></g></svg>