<?xml version='1.0' encoding='utf-8'?>
<svg xmlns="http://www.w3.org/2000/svg" version="1.1" viewBox="0 0 1024 1024"><g transform="scale(1, -1) translate(0, -900)"><path d="M 474 607 Q 480 608 490 612 Q 623 640 757 670 Q 770 674 779 665 Q 785 655 783 638 Q 723 122 895 -2 Q 907 -11 923 -20 Q 960 -36 978 -26 Q 990 -20 986 0 Q 973 79 973 163 Q 974 173 969 181 Q 962 188 959 172 Q 943 109 929 82 Q 914 57 898 77 Q 847 119 822 244 Q 797 374 826 577 Q 830 617 869 656 Q 884 669 867 683 Q 855 696 805 721 Q 790 730 754 709 Q 681 678 471 637 C 442 631 445 600 474 607 Z" fill="black" /></g></svg>