<?xml version='1.0' encoding='utf-8'?>
<svg xmlns="http://www.w3.org/2000/svg" version="1.1" viewBox="0 0 1024 1024"><g transform="scale(1, -1) translate(0, -900)"><path d="M 719 63 Q 749 24 770 -12 Q 777 -28 789 -29 Q 804 -28 820 4 Q 832 34 834 92 Q 816 281 839 309 Q 846 321 839 330 Q 823 348 775 370 Q 759 377 744 370 Q 689 343 554 313 C 525 306 546 281 575 287 Q 665 306 755 326 Q 758 326 761 323 Q 777 307 771 145 Q 771 102 766 88 Q 762 72 751 76 C 726 60 715 68 719 63 Z" fill="black" /></g></svg>