<?xml version='1.0' encoding='utf-8'?>
<svg xmlns="http://www.w3.org/2000/svg" version="1.1" viewBox="0 0 1024 1024"><g transform="scale(1, -1) translate(0, -900)"><path d="M 629 320 Q 681 390 724 452 L 751 495 Q 770 525 786 553 Q 825 623 849 656 Q 858 669 849 685 Q 831 716 813 730 Q 797 743 779 744 Q 761 744 767 721 Q 773 682 770 661 Q 728 547 690 483 L 665 443 Q 625 385 568 312 L 531 268 Q 437 162 323 59 Q 316 53 315 45 Q 315 39 322 40 Q 332 41 341 47 Q 443 114 492 165 Q 513 186 535 208 L 629 320 Z" fill="black" /></g></svg>