<?xml version='1.0' encoding='utf-8'?>
<svg xmlns="http://www.w3.org/2000/svg" version="1.1" viewBox="0 0 1024 1024"><g transform="scale(1, -1) translate(0, -900)"><path d="M 423 280 Q 424 276 428 270 Q 461 225 438 105 Q 431 77 418 53 Q 397 32 432 -4 Q 442 -14 459 -3 Q 510 30 650 47 Q 732 56 839 46 Q 863 42 872 49 Q 879 55 874 67 Q 868 80 829 104 Q 805 117 737 105 Q 659 105 495 68 Q 482 64 480 68 Q 470 75 474 93 Q 483 211 494 244 Q 498 257 488 267 Q 473 280 455 288 C 429 302 408 306 423 280 Z" fill="black" /></g></svg>