<?xml version='1.0' encoding='utf-8'?>
<svg xmlns="http://www.w3.org/2000/svg" version="1.1" viewBox="0 0 1024 1024"><g transform="scale(1, -1) translate(0, -900)"><path d="M 714 63 Q 739 29 758 -4 Q 765 -20 777 -20 Q 792 -19 808 11 Q 820 41 821 114 Q 803 253 829 284 Q 838 294 830 305 Q 814 323 768 347 Q 752 356 738 348 Q 699 332 640 322 Q 633 321 629 320 L 568 312 Q 562 312 557 312 C 527 310 562 237 581 260 Q 602 290 633 293 Q 678 299 720 305 Q 739 308 749 300 Q 764 285 758 146 Q 758 107 755 96 Q 751 80 740 84 C 714 68 712 66 714 63 Z" fill="black" /></g></svg>