<?xml version='1.0' encoding='utf-8'?>
<svg xmlns="http://www.w3.org/2000/svg" version="1.1" viewBox="0 0 1024 1024"><g transform="scale(1, -1) translate(0, -900)"><path d="M 633 425 Q 780 452 806 451 Q 819 451 822 445 Q 834 427 835 261 Q 832 140 802 72 Q 790 44 772 38 Q 759 35 693 58 Q 683 62 683 56 Q 682 52 693 42 Q 736 -1 754 -34 Q 764 -53 778 -53 Q 821 -46 858 34 Q 891 112 901 379 Q 900 409 918 431 Q 930 444 929 452 Q 928 459 908 473 Q 881 492 846 501 Q 828 507 753 484 Q 744 483 735 479 Q 669 463 559 442 C 530 436 515 433 544 427 Q 577 417 613 421 L 633 425 Z" fill="black" /></g></svg>