<?xml version='1.0' encoding='utf-8'?>
<svg xmlns="http://www.w3.org/2000/svg" version="1.1" viewBox="0 0 1024 1024"><g transform="scale(1, -1) translate(0, -900)"><path d="M 767 552 Q 786 518 804 509 Q 816 499 833 522 Q 848 546 883 676 Q 893 709 919 734 Q 932 747 921 761 Q 905 780 862 808 Q 846 817 787 804 Q 769 801 748 796 Q 661 781 514 751 C 485 745 492 714 522 719 Q 529 719 538 721 Q 575 733 627 742 L 668 750 Q 797 778 819 763 Q 832 753 828 733 Q 798 585 777 575 C 764 557 764 557 767 552 Z" fill="black" /></g></svg>