<?xml version='1.0' encoding='utf-8'?>
<svg xmlns="http://www.w3.org/2000/svg" version="1.1" viewBox="0 0 1024 1024"><g transform="scale(1, -1) translate(0, -900)"><path d="M 553 302 Q 565 290 618 298 Q 619 299 622 299 Q 686 306 737 315 Q 810 330 816 307 Q 831 226 814 115 Q 813 112 812 107 Q 805 67 793 45 Q 784 26 771 20 Q 761 19 704 45 Q 695 49 695 44 Q 694 40 703 31 Q 739 -11 754 -41 Q 763 -60 774 -60 Q 810 -56 838 3 Q 868 60 883 263 Q 884 287 898 302 Q 910 315 908 322 Q 907 329 890 341 Q 865 359 834 367 Q 810 374 795 366 Q 776 360 730 349 Q 666 333 622 327 Q 592 323 570 318 C 541 312 528 310 553 302 Z" fill="black" /></g></svg>