<?xml version='1.0' encoding='utf-8'?>
<svg xmlns="http://www.w3.org/2000/svg" version="1.1" viewBox="0 0 1024 1024"><g transform="scale(1, -1) translate(0, -900)"><path d="M 631 144 Q 689 163 708 158 Q 709 159 711 158 C 741 155 751 194 721 189 Q 678 182 638 172 L 592 161 Q 555 152 525 140 Q 518 140 522 147 Q 538 201 535 211 Q 528 226 512 239 Q 505 245 497 244 Q 490 243 492 228 Q 507 165 466 131 Q 453 119 457 109 Q 464 97 476 89 Q 486 83 493 89 Q 502 98 583 128 L 631 144 Z" fill="black" /></g></svg>