<?xml version='1.0' encoding='utf-8'?>
<svg xmlns="http://www.w3.org/2000/svg" version="1.1" viewBox="0 0 1024 1024"><g transform="scale(1, -1) translate(0, -900)"><path d="M 664 494 Q 664 495 666 495 Q 712 508 723 505 C 753 504 755 535 725 531 Q 695 527 672 520 L 630 510 Q 593 501 564 489 Q 558 489 561 495 Q 576 549 574 557 Q 567 570 553 581 Q 547 585 540 585 Q 533 584 536 571 Q 543 543 534 516 Q 527 491 513 481 Q 501 471 506 461 Q 513 451 523 445 Q 526 442 545 450 Q 560 462 622 481 L 664 494 Z" fill="black" /></g></svg>