<?xml version='1.0' encoding='utf-8'?>
<svg xmlns="http://www.w3.org/2000/svg" version="1.1" viewBox="0 0 1024 1024"><g transform="scale(1, -1) translate(0, -900)"><path d="M 451 185 Q 478 213 481 219 Q 488 238 482 257 Q 478 272 455 296 Q 437 320 475 373 Q 497 398 514 412 Q 535 425 519 441 Q 504 457 475 472 Q 460 484 418 458 Q 355 436 349 435 Q 342 436 341 432 Q 340 428 346 423 Q 373 408 430 426 Q 437 429 443 422 Q 458 401 437 376 Q 421 360 408 335 Q 401 317 416 293 Q 452 224 443 196 Q 439 189 441 185 C 438 172 438 172 451 185 Z" fill="black" /></g></svg>