<?xml version='1.0' encoding='utf-8'?>
<svg xmlns="http://www.w3.org/2000/svg" version="1.1" viewBox="0 0 1024 1024"><g transform="scale(1, -1) translate(0, -900)"><path d="M 606 406 Q 732 351 830 401 Q 840 405 840 410 Q 839 420 826 436 Q 807 461 756 542 Q 753 549 749 549 Q 746 549 747 543 Q 753 506 758 462 Q 759 444 747 436 Q 729 424 641 445 L 597 467 Q 558 497 533 600 Q 529 622 511 632 Q 498 639 492 634 Q 488 631 493 616 Q 500 597 515 547 Q 531 471 569 433 L 606 406 Z" fill="black" /></g></svg>