<?xml version='1.0' encoding='utf-8'?>
<svg xmlns="http://www.w3.org/2000/svg" version="1.1" viewBox="0 0 1024 1024"><g transform="scale(1, -1) translate(0, -900)"><path d="M 795 436 Q 844 442 905 443 Q 965 443 972 453 Q 976 463 961 475 Q 912 511 840 490 Q 825 487 810 483 L 750 470 Q 711 464 667 454 L 630 448 Q 590 444 548 434 L 516 429 Q 452 420 386 408 Q 367 405 382 391 Q 395 379 411 375 Q 430 371 445 375 Q 479 385 516 395 L 547 401 Q 586 411 628 417 Q 629 418 631 417 L 667 423 Q 701 429 743 432 L 795 436 Z" fill="black" /></g></svg>