<?xml version='1.0' encoding='utf-8'?>
<svg xmlns="http://www.w3.org/2000/svg" version="1.1" viewBox="0 0 1024 1024"><g transform="scale(1, -1) translate(0, -900)"><path d="M 595 179 Q 595 231 602 263 C 607 293 607 295 601 298 Q 591 307 558 313 Q 539 319 530 310 Q 521 298 534 287 Q 556 250 559 175 L 558 138 Q 557 113 554 81 Q 553 62 532 35 Q 525 23 528 11 Q 532 1 550 -11 Q 565 -17 576 -3 Q 661 45 887 39 Q 909 38 918 50 Q 925 60 904 72 Q 846 111 784 91 Q 715 81 629 56 Q 589 40 598 78 Q 597 115 595 146 L 595 179 Z" fill="black" /></g></svg>