<?xml version='1.0' encoding='utf-8'?>
<svg xmlns="http://www.w3.org/2000/svg" version="1.1" viewBox="0 0 1024 1024"><g transform="scale(1, -1) translate(0, -900)"><path d="M 619 282 Q 631 270 698 263 Q 731 257 730 224 Q 729 217 727 204 Q 694 90 645 40 Q 635 31 623 28 Q 608 27 577 45 Q 543 67 538 62 Q 531 55 546 40 Q 576 1 581 -39 Q 584 -55 595 -64 Q 607 -71 643 -54 Q 691 -27 737 77 Q 779 200 806 219 Q 816 223 818 233 Q 819 242 797 267 Q 763 303 710 295 Q 692 296 636 307 C 607 313 592 295 619 282 Z" fill="black" /></g></svg>