<?xml version='1.0' encoding='utf-8'?>
<svg xmlns="http://www.w3.org/2000/svg" version="1.1" viewBox="0 0 1024 1024"><g transform="scale(1, -1) translate(0, -900)"><path d="M 669 567 Q 672 612 667 616 Q 651 629 636 637 C 611 653 587 655 603 630 Q 604 629 606 626 Q 624 602 624 557 L 627 523 Q 628 489 630 448 L 631 417 Q 631 389 631 355 L 630 319 Q 627 94 614 49 Q 605 16 640 -36 Q 652 -55 660 -58 Q 670 -59 676 -46 Q 686 -15 682 15 Q 675 160 670 288 L 670 325 L 668 365 Q 668 386 668 406 Q 667 415 667 423 L 667 454 Q 666 497 667 531 L 669 567 Z" fill="black" /></g></svg>