<?xml version='1.0' encoding='utf-8'?>
<svg xmlns="http://www.w3.org/2000/svg" version="1.1" viewBox="0 0 1024 1024"><g transform="scale(1, -1) translate(0, -900)"><path d="M 516 566 Q 526 567 539 571 Q 570 580 601 586 L 635 595 Q 720 617 801 631 Q 829 641 834 628 Q 834 618 814 579 Q 804 566 812 561 Q 818 557 831 567 Q 900 601 926 607 Q 947 608 947 620 Q 947 632 877 671 Q 856 681 830 676 Q 748 652 677 635 Q 676 635 676 633 C 673 632 666 631 636 626 Q 572 616 494 602 C 464 597 487 560 516 566 Z" fill="black" /></g></svg>