<?xml version='1.0' encoding='utf-8'?>
<svg xmlns="http://www.w3.org/2000/svg" version="1.1" viewBox="0 0 1024 1024"><g transform="scale(1, -1) translate(0, -900)"><path d="M 490 605 Q 508 548 512 529 L 514 496 Q 515 490 516 429 L 516 395 Q 515 367 514 331 L 509 235 Q 509 154 484 60 Q 471 6 503 -31 Q 512 -43 522 -32 Q 541 -7 540 109 Q 541 220 544 304 L 545 337 Q 545 371 547 401 L 548 434 Q 548 477 550 505 L 551 539 Q 551 560 553 564 Q 559 591 530 611 Q 527 612 527 613 C 504 632 481 634 490 605 Z" fill="black" /></g></svg>