<?xml version='1.0' encoding='utf-8'?>
<svg xmlns="http://www.w3.org/2000/svg" version="1.1" viewBox="0 0 1024 1024"><g transform="scale(1, -1) translate(0, -900)"><path d="M 848 677 Q 860 683 851 695 Q 838 708 822 716 Q 812 720 793 711 Q 771 698 739 696 Q 720 695 712 708 Q 708 720 720 749 Q 724 768 748 783 Q 763 795 749 807 Q 730 825 709 835 Q 703 838 630 808 Q 624 807 585 797 C 556 790 566 759 595 768 Q 598 768 657 789 Q 670 796 675 795 Q 681 794 681 782 Q 672 709 673 700 Q 679 681 697 669 Q 724 656 774 659 Q 823 662 848 677 Z" fill="black" /></g></svg>