<?xml version='1.0' encoding='utf-8'?>
<svg xmlns="http://www.w3.org/2000/svg" version="1.1" viewBox="0 0 1024 1024"><g transform="scale(1, -1) translate(0, -900)"><path d="M 648 480 Q 808 519 826 503 Q 836 497 840 449 Q 850 289 839 105 Q 839 78 829 71 Q 816 62 754 80 Q 738 84 738 75 Q 738 68 751 61 Q 806 13 833 -22 Q 854 -43 866 -40 Q 879 -37 891 -10 Q 907 35 909 101 Q 897 333 899 419 Q 899 456 911 480 Q 923 501 913 512 Q 903 527 857 550 Q 838 560 820 555 Q 783 542 708 523 L 684 517 Q 681 518 680 517 Q 587 498 490 486 C 460 482 477 444 507 449 Q 514 448 528 451 Q 568 463 613 472 L 648 480 Z" fill="black" /></g></svg>