<?xml version='1.0' encoding='utf-8'?>
<svg xmlns="http://www.w3.org/2000/svg" version="1.1" viewBox="0 0 1024 1024"><g transform="scale(1, -1) translate(0, -900)"><path d="M 668 49 Q 668 89 668 125 L 669 167 Q 669 198 670 226 L 671 269 Q 671 303 672 337 L 672 371 Q 673 413 674 452 Q 674 456 674 458 L 675 488 Q 675 522 674 524 Q 661 537 647 546 C 623 564 584 567 597 540 Q 604 524 613 512 Q 617 497 619 476 L 621 448 Q 622 429 623 362 L 623 331 Q 623 298 622 256 L 622 218 Q 622 190 622 156 L 622 118 Q 622 84 622 44 C 622 14 668 19 668 49 Z" fill="black" /></g></svg>