<?xml version='1.0' encoding='utf-8'?>
<svg xmlns="http://www.w3.org/2000/svg" version="1.1" viewBox="0 0 1024 1024"><g transform="scale(1, -1) translate(0, -900)"><path d="M 681 131 Q 718 183 744 260 Q 751 293 771 309 Q 787 322 770 338 Q 751 354 719 367 Q 698 374 677 365 Q 614 328 525 312 Q 500 308 488 301 Q 479 294 498 286 Q 525 274 562 288 Q 617 304 672 319 Q 687 326 690 309 Q 690 237 639 158 L 616 128 Q 558 62 389 18 Q 374 14 383 6 Q 390 0 418 2 Q 514 12 570 36 Q 616 57 653 95 L 681 131 Z" fill="black" /></g></svg>