<?xml version='1.0' encoding='utf-8'?>
<svg xmlns="http://www.w3.org/2000/svg" version="1.1" viewBox="0 0 1024 1024"><g transform="scale(1, -1) translate(0, -900)"><path d="M 690 610 Q 739 620 792 629 Q 820 638 824 625 Q 823 612 790 562 Q 781 549 788 545 Q 792 541 806 550 Q 881 593 910 601 Q 932 604 933 616 Q 932 628 866 667 Q 847 677 820 672 Q 756 656 699 641 L 674 635 Q 670 636 666 634 Q 585 619 472 604 Q 447 601 466 580 Q 481 561 525 574 Q 573 586 621 595 L 690 610 Z" fill="black" /></g></svg>