<?xml version='1.0' encoding='utf-8'?>
<svg xmlns="http://www.w3.org/2000/svg" version="1.1" viewBox="0 0 1024 1024"><g transform="scale(1, -1) translate(0, -900)"><path d="M 614 373 Q 702 391 808 403 Q 829 407 838 395 Q 847 391 849 352 Q 856 223 847 77 Q 846 55 838 49 Q 826 40 765 50 Q 749 53 750 43 Q 751 36 764 30 Q 819 -13 848 -45 Q 869 -64 882 -62 Q 894 -59 905 -30 Q 921 15 921 81 Q 911 249 911 311 Q 912 348 923 372 Q 936 393 926 404 Q 916 419 870 443 Q 849 453 769 432 Q 633 405 497 389 C 467 385 474 348 504 353 Q 505 353 583 367 L 614 373 Z" fill="black" /></g></svg>