<?xml version='1.0' encoding='utf-8'?>
<svg xmlns="http://www.w3.org/2000/svg" version="1.1" viewBox="0 0 1024 1024"><g transform="scale(1, -1) translate(0, -900)"><path d="M 749 116 Q 794 40 857 -18 Q 912 -67 941 -67 Q 960 -64 954 -36 Q 953 10 962 143 Q 963 165 955 166 Q 948 166 941 147 Q 925 110 911 80 Q 898 49 886 49 Q 852 49 784 150 L 757 194 Q 727 245 702 332 L 693 365 Q 624 635 648 800 Q 661 840 608 861 Q 574 877 555 870 Q 536 863 545 844 Q 588 804 588 771 Q 615 504 654 358 Q 654 355 655 352 L 664 322 Q 692 229 726 158 L 749 116 Z" fill="black" /></g></svg>