<?xml version='1.0' encoding='utf-8'?>
<svg xmlns="http://www.w3.org/2000/svg" version="1.1" viewBox="0 0 1024 1024"><g transform="scale(1, -1) translate(0, -900)"><path d="M 803 600 Q 816 575 828 567 Q 835 560 851 575 Q 860 585 886 643 Q 895 670 916 690 Q 928 700 918 713 Q 906 728 870 752 Q 854 761 840 756 Q 803 744 750 734 Q 747 734 745 733 L 695 723 Q 652 716 606 703 L 563 693 Q 518 686 478 677 C 449 671 466 635 494 645 Q 495 648 568 666 L 608 676 Q 647 686 695 696 L 740 705 Q 819 726 843 710 Q 850 704 847 695 Q 829 629 816 620 C 802 601 802 601 803 600 Z" fill="black" /></g></svg>