<?xml version='1.0' encoding='utf-8'?>
<svg xmlns="http://www.w3.org/2000/svg" version="1.1" viewBox="0 0 1024 1024"><g transform="scale(1, -1) translate(0, -900)"><path d="M 768 574 Q 772 589 777 602 L 787 638 Q 791 663 802 682 Q 809 692 806 702 Q 796 715 777 728 C 753 746 744 750 749 720 Q 758 689 739 624 L 731 591 Q 688 477 655 429 Q 646 420 639 410 Q 624 389 608 370 Q 604 366 601 362 Q 598 355 606 355 Q 631 355 698 435 Q 701 441 706 446 Q 730 482 750 527 Q 753 536 757 544 L 768 574 Z" fill="black" /></g></svg>