<?xml version='1.0' encoding='utf-8'?>
<svg xmlns="http://www.w3.org/2000/svg" version="1.1" viewBox="0 0 1024 1024"><g transform="scale(1, -1) translate(0, -900)"><path d="M 695 40 Q 722 6 742 -28 Q 749 -44 761 -44 Q 776 -43 791 -12 Q 809 24 806 68 Q 799 123 794 225 Q 793 253 809 274 Q 818 286 810 295 Q 794 314 745 337 Q 729 346 714 338 Q 656 314 512 293 C 482 289 497 259 526 265 Q 536 266 550 270 Q 626 282 691 293 Q 716 297 729 287 Q 742 277 740 124 Q 741 84 737 71 Q 733 56 722 60 C 697 44 693 42 695 40 Z" fill="black" /></g></svg>