<?xml version='1.0' encoding='utf-8'?>
<svg xmlns="http://www.w3.org/2000/svg" version="1.1" viewBox="0 0 1024 1024"><g transform="scale(1, -1) translate(0, -900)"><path d="M 757 544 Q 761 519 762 493 Q 756 382 778 362 Q 820 326 922 343 Q 922 344 925 344 Q 947 351 968 366 Q 981 376 973 395 Q 964 416 954 478 Q 954 490 948 493 Q 944 496 940 483 Q 918 416 904 396 Q 898 390 883 386 Q 847 377 817 390 Q 807 394 803 402 Q 788 435 808 533 Q 814 557 773 574 Q 770 575 768 574 C 752 579 753 574 757 544 Z" fill="black" /></g></svg>