<?xml version='1.0' encoding='utf-8'?>
<svg xmlns="http://www.w3.org/2000/svg" version="1.1" viewBox="0 0 1024 1024"><g transform="scale(1, -1) translate(0, -900)"><path d="M 744 200 Q 801 53 897 -34 Q 955 -83 985 -83 Q 1004 -79 998 -51 Q 992 -5 992 127 Q 991 149 983 151 Q 977 151 947 67 Q 932 25 904 46 Q 895 52 885 61 Q 819 133 778 228 L 762 268 Q 744 323 714 469 L 708 506 Q 684 654 700 764 Q 713 803 660 825 Q 626 841 607 834 Q 588 828 597 809 Q 640 769 639 735 Q 652 600 668 496 L 674 464 Q 695 335 731 233 L 744 200 Z" fill="black" /></g></svg>