<?xml version='1.0' encoding='utf-8'?>
<svg xmlns="http://www.w3.org/2000/svg" version="1.1" viewBox="0 0 1024 1024"><g transform="scale(1, -1) translate(0, -900)"><path d="M 257 601 Q 281 589 292 592 Q 415 622 423 603 Q 423 597 425 585 Q 426 491 408 465 Q 402 459 347 458 Q 329 461 344 447 Q 372 419 387 397 Q 393 384 405 389 Q 414 390 425 402 Q 456 435 472 560 Q 475 588 486 604 Q 496 619 491 625 Q 481 638 457 649 Q 441 658 423 649 Q 354 621 273 614 C 243 611 236 610 257 601 Z" fill="black" /></g></svg>