<?xml version='1.0' encoding='utf-8'?>
<svg xmlns="http://www.w3.org/2000/svg" version="1.1" viewBox="0 0 1024 1024"><g transform="scale(1, -1) translate(0, -900)"><path d="M 553 314 Q 553 317 554 319 Q 558 341 554 348 Q 547 357 528 368 C 503 384 485 384 495 356 Q 504 335 504 304 L 505 269 Q 505 241 506 202 L 506 164 Q 509 62 498 43 Q 497 43 435 48 Q 425 49 425 44 Q 426 38 435 31 Q 481 -5 509 -33 Q 519 -40 529 -27 Q 562 18 555 76 Q 554 115 550 173 Q 549 183 549 194 L 549 222 Q 549 253 551 282 L 553 314 Z" fill="black" /></g></svg>