<?xml version='1.0' encoding='utf-8'?>
<svg xmlns="http://www.w3.org/2000/svg" version="1.1" viewBox="0 0 1024 1024"><g transform="scale(1, -1) translate(0, -900)"><path d="M 768 663 L 769 661 Q 773 648 783 649 Q 798 652 826 706 Q 839 748 870 771 Q 886 784 873 797 Q 858 810 818 833 Q 806 842 730 823 Q 703 823 576 792 Q 522 780 484 772 C 455 766 469 734 498 743 Q 534 755 560 761 L 580 765 Q 617 775 665 784 L 699 789 Q 775 807 795 797 Q 801 793 797 774 Q 779 702 772 688 Q 771 687 770 684 C 764 669 764 669 768 663 Z" fill="black" /></g></svg>