<?xml version='1.0' encoding='utf-8'?>
<svg xmlns="http://www.w3.org/2000/svg" version="1.1" viewBox="0 0 1024 1024"><g transform="scale(1, -1) translate(0, -900)"><path d="M 525 519 Q 540 534 550 603 Q 560 669 566 677 Q 573 687 574 692 Q 574 699 557 708 Q 538 718 530 719 Q 524 720 492 708 Q 473 699 468 704 Q 465 711 476 764 L 481 786 Q 487 814 491 819 Q 495 826 495 833 Q 494 843 475 853 Q 456 863 439 865 Q 427 865 425 860 Q 424 856 428 851 Q 449 824 434 718 Q 433 711 430 707 Q 423 695 433 675 Q 437 666 443 664 Q 449 664 458 671 Q 470 681 492 685 Q 513 689 519 686 Q 523 682 521 664 Q 512 588 507 581 Q 491 563 507 532 Q 513 517 517 518 C 521 513 521 513 525 519 Z" fill="black" /></g></svg>