<?xml version='1.0' encoding='utf-8'?>
<svg xmlns="http://www.w3.org/2000/svg" version="1.1" viewBox="0 0 1024 1024"><g transform="scale(1, -1) translate(0, -900)"><path d="M 685 90 Q 719 130 744 187 Q 754 221 776 236 Q 792 248 777 265 Q 758 284 727 300 Q 706 309 684 300 Q 632 272 559 260 Q 531 257 520 250 Q 511 243 530 234 Q 557 221 597 233 L 677 253 Q 690 260 692 244 Q 692 184 641 120 L 614 91 Q 604 84 593 74 Q 535 34 383 1 Q 367 0 375 -10 Q 382 -17 412 -18 Q 571 -6 650 56 L 685 90 Z" fill="black" /></g></svg>