<?xml version='1.0' encoding='utf-8'?>
<svg xmlns="http://www.w3.org/2000/svg" version="1.1" viewBox="0 0 1024 1024"><g transform="scale(1, -1) translate(0, -900)"><path d="M 796 454 Q 796 453 797 450 Q 801 437 811 436 Q 826 439 854 479 Q 870 524 904 548 Q 920 561 908 576 Q 892 592 850 617 Q 838 626 763 610 Q 723 610 568 578 Q 501 565 452 558 C 422 554 442 519 471 525 Q 475 525 481 526 Q 509 536 555 545 L 576 549 Q 618 559 676 566 L 710 572 Q 800 590 825 577 Q 829 573 826 556 Q 810 499 802 482 L 796 454 Z" fill="black" /></g></svg>