<?xml version='1.0' encoding='utf-8'?>
<svg xmlns="http://www.w3.org/2000/svg" version="1.1" viewBox="0 0 1024 1024"><g transform="scale(1, -1) translate(0, -900)"><path d="M 767 393 Q 768 424 774 458 Q 777 471 768 478 Q 758 487 742 493 Q 732 496 726 492 Q 722 489 725 476 Q 735 448 735 421 Q 732 292 757 268 Q 796 232 888 250 Q 889 251 894 252 Q 913 259 932 274 Q 947 286 936 305 Q 927 317 911 355 Q 910 367 904 370 Q 900 371 897 359 Q 870 299 849 293 Q 821 286 790 296 Q 780 300 776 308 Q 766 326 766 376 L 767 393 Z" fill="black" /></g></svg>