<?xml version='1.0' encoding='utf-8'?>
<svg xmlns="http://www.w3.org/2000/svg" version="1.1" viewBox="0 0 1024 1024"><g transform="scale(1, -1) translate(0, -900)"><path d="M 771 153 Q 802 68 880 -14 Q 935 -66 964 -67 Q 985 -63 979 -35 Q 975 11 982 143 Q 983 165 975 166 Q 968 166 962 146 Q 947 112 935 84 Q 922 54 911 54 Q 866 60 799 201 L 776 260 Q 746 350 731 518 L 727 556 Q 717 697 740 789 Q 756 828 704 853 Q 673 871 652 866 Q 633 862 640 841 Q 680 798 677 765 Q 680 642 688 545 L 691 510 Q 706 342 750 209 L 771 153 Z" fill="black" /></g></svg>