<?xml version='1.0' encoding='utf-8'?>
<svg xmlns="http://www.w3.org/2000/svg" version="1.1" viewBox="0 0 1024 1024"><g transform="scale(1, -1) translate(0, -900)"><path d="M 716 261 Q 715 254 717 244 Q 721 232 731 233 Q 741 234 747 245 Q 754 254 770 302 Q 782 342 809 364 Q 822 377 810 388 Q 797 401 758 420 Q 746 426 692 411 Q 679 411 652 403 L 622 396 Q 600 392 582 386 Q 549 379 523 372 C 494 364 504 337 533 344 Q 537 344 541 345 Q 569 357 622 368 L 651 374 Q 720 395 737 385 Q 744 381 740 361 Q 730 309 723 284 L 716 261 Z" fill="black" /></g></svg>