<?xml version='1.0' encoding='utf-8'?>
<svg xmlns="http://www.w3.org/2000/svg" version="1.1" viewBox="0 0 1024 1024"><g transform="scale(1, -1) translate(0, -900)"><path d="M 678 513 Q 679 529 683 549 Q 686 561 678 567 Q 671 574 655 580 Q 646 583 641 580 Q 637 577 640 566 Q 650 541 648 517 Q 645 457 670 432 Q 730 387 833 418 Q 857 425 879 444 Q 889 451 884 466 Q 878 482 872 529 Q 872 538 868 541 Q 865 544 861 533 Q 842 484 829 469 Q 822 460 798 454 Q 749 439 703 456 Q 687 463 682 473 Q 679 480 678 500 L 678 513 Z" fill="black" /></g></svg>