<?xml version='1.0' encoding='utf-8'?>
<svg xmlns="http://www.w3.org/2000/svg" version="1.1" viewBox="0 0 1024 1024"><g transform="scale(1, -1) translate(0, -900)"><path d="M 620 217 Q 620 141 605 88 Q 598 58 615 22 Q 619 12 624 9 Q 628 5 633 10 Q 637 13 645 26 Q 651 42 650 63 Q 649 87 650 248 L 650 278 Q 650 323 651 374 L 652 403 Q 652 421 653 435 L 657 469 Q 658 485 664 499 Q 670 509 667 518 Q 663 524 627 546 Q 611 556 598 547 Q 595 543 599 534 Q 620 503 621 459 L 621 428 Q 621 413 622 396 L 622 368 Q 621 322 621 270 L 620 217 Z" fill="black" /></g></svg>