<?xml version='1.0' encoding='utf-8'?>
<svg xmlns="http://www.w3.org/2000/svg" version="1.1" viewBox="0 0 1024 1024"><g transform="scale(1, -1) translate(0, -900)"><path d="M 950 69 Q 971 78 963 100 Q 950 146 943 211 Q 939 245 933 252 Q 926 256 921 245 Q 891 137 856 111 Q 816 90 758 111 Q 737 118 729 130 Q 696 178 717 434 Q 721 488 730 529 Q 734 566 767 598 Q 780 614 764 628 Q 743 644 695 661 Q 676 665 657 654 Q 606 623 533 610 C 504 604 523 570 552 576 Q 579 579 636 598 Q 652 599 658 593 Q 662 590 663 293 Q 659 119 709 79 Q 767 21 909 55 Q 928 61 950 69 Z" fill="black" /></g></svg>