<?xml version='1.0' encoding='utf-8'?>
<svg xmlns="http://www.w3.org/2000/svg" version="1.1" viewBox="0 0 1024 1024"><g transform="scale(1, -1) translate(0, -900)"><path d="M 141 468 Q 92 449 63 444 Q 48 444 46 436 Q 43 426 55 420 Q 98 398 125 411 Q 266 483 268 483 Q 271 483 274 481 Q 284 475 280 450 Q 286 282 245 137 Q 229 104 272 52 Q 282 39 293 46 Q 300 53 313 78 Q 359 133 456 227 Q 469 239 466 246 Q 465 255 453 245 Q 404 214 355 179 Q 303 137 313 200 Q 312 270 335 443 Q 339 468 361 493 Q 373 503 362 516 Q 350 532 311 548 Q 298 554 282 542 Q 192 487 141 468 Z" fill="black" /></g></svg>