<?xml version='1.0' encoding='utf-8'?>
<svg xmlns="http://www.w3.org/2000/svg" version="1.1" viewBox="0 0 1024 1024"><g transform="scale(1, -1) translate(0, -900)"><path d="M 424 519 Q 424 489 438 476 Q 483 445 557 464 Q 575 468 592 482 Q 599 486 597 497 Q 593 507 590 538 Q 591 545 588 549 Q 587 550 582 543 Q 549 497 505 490 Q 499 490 495 490 Q 479 490 466 495 Q 456 499 453 506 Q 450 512 450 527 L 453 555 Q 454 564 456 572 Q 459 582 452 588 Q 445 595 432 600 Q 425 603 420 600 Q 416 599 419 588 Q 426 566 425 545 Q 424 544 424 543 L 424 519 Z" fill="black" /></g></svg>