<?xml version='1.0' encoding='utf-8'?>
<svg xmlns="http://www.w3.org/2000/svg" version="1.1" viewBox="0 0 1024 1024"><g transform="scale(1, -1) translate(0, -900)"><path d="M 148 522 Q 94 504 65 502 Q 49 503 47 494 Q 43 485 55 477 Q 100 450 127 463 Q 200 493 268 525 Q 296 540 306 532 Q 318 525 311 495 Q 312 453 310 410 Q 311 286 279 174 Q 263 140 310 87 Q 322 74 332 82 Q 339 89 351 116 Q 397 180 496 290 Q 509 303 506 310 Q 503 319 492 308 Q 440 268 387 223 Q 344 184 349 241 Q 348 311 369 489 Q 373 514 397 540 Q 410 550 399 565 Q 387 581 345 599 Q 332 606 314 594 Q 208 539 148 522 Z" fill="black" /></g></svg>