<?xml version='1.0' encoding='utf-8'?>
<svg xmlns="http://www.w3.org/2000/svg" version="1.1" viewBox="0 0 1024 1024"><g transform="scale(1, -1) translate(0, -900)"><path d="M 149 509 Q 100 493 74 491 Q 59 492 57 484 Q 53 477 64 468 Q 103 444 150 464 Q 252 513 261 506 Q 271 499 265 473 Q 265 436 263 399 Q 262 293 231 195 Q 216 161 259 116 Q 269 104 279 111 Q 286 118 297 142 Q 334 197 414 295 Q 424 307 422 314 Q 419 321 410 312 Q 368 278 327 242 Q 293 211 297 255 Q 296 316 318 466 Q 322 490 344 513 Q 356 523 346 535 Q 336 551 298 568 Q 286 574 269 563 Q 193 523 149 509 Z" fill="black" /></g></svg>