<?xml version='1.0' encoding='utf-8'?>
<svg xmlns="http://www.w3.org/2000/svg" version="1.1" viewBox="0 0 1024 1024"><g transform="scale(1, -1) translate(0, -900)"><path d="M 162 526 Q 107 511 79 510 Q 63 511 60 503 Q 56 494 67 486 Q 106 459 147 472 Q 202 493 254 517 Q 285 530 295 522 Q 307 515 299 484 Q 299 439 297 395 Q 297 268 263 150 Q 245 119 292 62 Q 302 49 314 56 Q 321 63 334 89 Q 371 137 447 218 Q 460 231 458 238 Q 457 247 444 237 Q 410 218 377 195 Q 325 152 334 216 Q 333 292 357 477 Q 361 502 385 527 Q 398 539 388 552 Q 376 570 335 588 Q 322 595 304 583 Q 213 540 162 526 Z" fill="black" /></g></svg>