<?xml version='1.0' encoding='utf-8'?>
<svg xmlns="http://www.w3.org/2000/svg" version="1.1" viewBox="0 0 1024 1024"><g transform="scale(1, -1) translate(0, -900)"><path d="M 127 476 Q 75 463 47 461 Q 32 462 29 454 Q 25 447 36 438 Q 73 413 112 424 Q 241 476 252 473 Q 253 473 255 471 Q 265 464 258 436 Q 252 256 215 146 Q 196 115 237 60 Q 247 47 258 53 Q 267 60 279 84 Q 321 130 407 208 Q 420 218 418 226 Q 417 235 405 226 Q 366 207 327 182 Q 272 142 285 207 Q 286 271 313 427 Q 317 452 342 475 Q 355 485 345 498 Q 335 514 295 534 Q 283 541 265 530 Q 177 488 127 476 Z" fill="black" /></g></svg>