<?xml version='1.0' encoding='utf-8'?>
<svg xmlns="http://www.w3.org/2000/svg" version="1.1" viewBox="0 0 1024 1024"><g transform="scale(1, -1) translate(0, -900)"><path d="M 147 490 Q 96 472 68 469 Q 53 468 51 461 Q 47 451 59 444 Q 102 422 129 433 Q 253 494 259 493 Q 260 493 262 491 Q 272 485 268 459 Q 268 273 230 145 Q 211 112 256 61 Q 266 48 277 55 Q 286 62 297 87 Q 340 139 428 231 Q 441 243 438 250 Q 437 259 425 249 Q 382 221 337 188 Q 289 148 298 208 Q 297 278 323 451 Q 327 476 349 500 Q 362 510 351 523 Q 341 539 300 557 Q 288 563 271 552 Q 192 506 147 490 Z" fill="black" /></g></svg>