<?xml version='1.0' encoding='utf-8'?>
<svg xmlns="http://www.w3.org/2000/svg" version="1.1" viewBox="0 0 1024 1024"><g transform="scale(1, -1) translate(0, -900)"><path d="M 724 501 Q 723 359 722 120 Q 721 96 708 87 Q 698 80 672 90 Q 644 100 615 109 Q 581 124 583 112 Q 584 105 605 88 Q 680 27 698 -7 Q 720 -47 738 -48 Q 754 -49 770 -12 Q 791 37 790 117 Q 777 310 778 506 L 778 554 Q 787 707 798 745 Q 816 778 756 802 Q 719 821 699 814 Q 680 807 697 782 Q 721 752 722 716 Q 723 698 724 542 L 724 501 Z" fill="black" /></g></svg>