<?xml version='1.0' encoding='utf-8'?>
<svg xmlns="http://www.w3.org/2000/svg" version="1.1" viewBox="0 0 1024 1024"><g transform="scale(1, -1) translate(0, -900)"><path d="M 837 251 Q 749 244 671 231 L 625 223 Q 562 213 509 198 Q 485 191 491 220 Q 495 283 499 348 Q 503 373 492 386 Q 476 404 451 416 Q 439 422 429 419 Q 419 415 427 395 Q 457 332 449 268 Q 445 207 420 180 Q 401 162 409 148 Q 421 132 438 121 Q 451 114 462 122 Q 499 165 759 209 Q 805 216 829 213 C 859 212 867 254 837 251 Z" fill="black" /></g></svg>