<?xml version='1.0' encoding='utf-8'?>
<svg xmlns="http://www.w3.org/2000/svg" version="1.1" viewBox="0 0 1024 1024"><g transform="scale(1, -1) translate(0, -900)"><path d="M 141 462 Q 90 447 62 445 Q 47 445 44 438 Q 40 429 52 421 Q 74 406 91 404 Q 107 400 218 452 Q 245 465 254 457 Q 261 453 254 343 Q 250 226 214 122 Q 196 88 241 38 Q 251 25 262 32 Q 269 39 281 63 Q 323 118 408 211 Q 421 223 418 230 Q 417 239 405 229 Q 362 199 319 166 Q 277 130 284 183 Q 285 250 313 415 Q 317 440 341 463 Q 354 473 344 486 Q 334 502 294 521 Q 282 528 264 517 Q 186 477 141 462 Z" fill="black" /></g></svg>