<?xml version='1.0' encoding='utf-8'?>
<svg xmlns="http://www.w3.org/2000/svg" version="1.1" viewBox="0 0 1024 1024"><g transform="scale(1, -1) translate(0, -900)"><path d="M 686 239 Q 740 387 766 529 Q 773 569 795 617 Q 802 627 794 637 Q 778 656 743 675 Q 724 687 705 683 Q 684 679 698 658 Q 723 625 719 594 Q 698 408 649 283 L 625 234 Q 615 221 606 206 Q 578 166 533 135 Q 490 102 400 65 Q 387 61 383 58 Q 377 52 393 48 Q 469 41 593 118 Q 617 136 635 157 Q 645 170 657 186 L 686 239 Z" fill="black" /></g></svg>