<?xml version='1.0' encoding='utf-8'?>
<svg xmlns="http://www.w3.org/2000/svg" version="1.1" viewBox="0 0 1024 1024"><g transform="scale(1, -1) translate(0, -900)"><path d="M 571 375 Q 561 149 612 110 Q 745 10 882 50 L 921 62 Q 949 71 986 98 Q 1007 115 994 145 Q 977 180 962 253 Q 958 271 954 275 Q 949 278 945 267 Q 944 264 943 260 Q 924 186 898 149 Q 884 130 858 123 Q 853 122 845 121 Q 753 101 674 145 Q 613 180 612 295 Q 612 335 618 392 L 622 433 Q 627 496 639 544 Q 643 563 631 572 Q 606 597 588 598 C 561 610 559 611 565 585 Q 565 582 572 555 Q 580 523 578 490 L 573 416 L 571 375 Z" fill="black" /></g></svg>