<?xml version='1.0' encoding='utf-8'?>
<svg xmlns="http://www.w3.org/2000/svg" version="1.1" viewBox="0 0 1024 1024"><g transform="scale(1, -1) translate(0, -900)"><path d="M 263 541 Q 147 476 82 472 Q 63 474 65 463 Q 66 455 73 450 Q 98 435 111 434 Q 129 433 180 459 Q 192 465 219 478 Q 260 499 259 466 Q 259 460 257 452 Q 257 281 217 157 Q 199 127 241 75 Q 257 54 275 88 L 280 100 Q 322 151 406 237 Q 418 247 416 255 Q 415 265 404 254 L 319 196 Q 279 165 282 204 Q 282 209 283 216 Q 284 283 310 443 Q 314 466 333 486 Q 344 498 343 504 Q 343 508 339 514 Q 329 529 291 545 Q 279 553 263 541 Z" fill="black" /></g></svg>