<?xml version='1.0' encoding='utf-8'?>
<svg xmlns="http://www.w3.org/2000/svg" version="1.1" viewBox="0 0 1024 1024"><g transform="scale(1, -1) translate(0, -900)"><path d="M 152 504 Q 101 488 73 485 Q 58 485 56 477 Q 52 468 63 461 Q 102 437 146 454 Q 248 505 257 502 Q 258 502 261 500 Q 271 493 266 468 Q 260 278 219 154 Q 201 124 245 70 Q 255 57 266 64 Q 273 71 286 96 Q 317 142 385 223 Q 397 235 394 242 Q 393 251 381 240 Q 351 221 322 199 Q 282 166 289 215 Q 290 285 321 459 Q 325 483 348 507 Q 361 517 351 530 Q 341 546 301 565 Q 289 571 272 560 Q 196 518 152 504 Z" fill="black" /></g></svg>