<?xml version='1.0' encoding='utf-8'?>
<svg xmlns="http://www.w3.org/2000/svg" version="1.1" viewBox="0 0 1024 1024"><g transform="scale(1, -1) translate(0, -900)"><path d="M 158 476 Q 109 461 82 459 Q 67 460 65 452 Q 61 445 72 437 Q 111 412 138 423 Q 178 442 214 461 Q 239 473 247 466 Q 257 460 251 435 Q 245 267 201 145 Q 182 115 224 64 Q 234 51 244 58 Q 251 64 264 87 Q 298 132 368 208 Q 381 218 378 226 Q 377 235 366 225 Q 335 206 302 184 Q 262 151 269 201 Q 272 267 303 426 Q 307 448 330 471 Q 342 481 333 493 Q 323 509 286 527 Q 274 534 257 524 Q 194 488 158 476 Z" fill="black" /></g></svg>