<?xml version='1.0' encoding='utf-8'?>
<svg xmlns="http://www.w3.org/2000/svg" version="1.1" viewBox="0 0 1024 1024"><g transform="scale(1, -1) translate(0, -900)"><path d="M 157 489 Q 108 473 82 471 Q 67 472 65 464 Q 61 457 72 448 Q 94 435 110 432 Q 125 429 218 476 Q 243 489 252 482 Q 262 475 256 450 Q 256 281 216 156 Q 198 128 240 75 Q 250 62 260 69 Q 269 76 280 99 Q 320 150 404 236 Q 417 246 414 254 Q 413 263 402 253 Q 360 226 318 196 Q 273 160 282 215 Q 283 281 309 442 Q 313 466 335 488 Q 347 498 338 511 Q 328 527 290 543 Q 278 550 261 539 Q 195 502 157 489 Z" fill="black" /></g></svg>