<?xml version='1.0' encoding='utf-8'?>
<svg xmlns="http://www.w3.org/2000/svg" version="1.1" viewBox="0 0 1024 1024"><g transform="scale(1, -1) translate(0, -900)"><path d="M 687 84 Q 675 42 703 -18 Q 710 -36 718 -39 Q 725 -46 732 -37 Q 739 -33 749 -12 Q 759 13 758 45 Q 755 84 755 348 L 755 397 Q 755 464 755 544 L 754 599 Q 754 698 772 764 Q 781 780 777 793 Q 770 803 714 837 Q 690 853 669 837 Q 665 833 671 817 Q 705 766 708 715 Q 709 654 711 585 L 712 535 Q 711 465 711 388 L 710 344 Q 710 173 687 84 Z" fill="black" /></g></svg>