<?xml version='1.0' encoding='utf-8'?>
<svg xmlns="http://www.w3.org/2000/svg" version="1.1" viewBox="0 0 1024 1024"><g transform="scale(1, -1) translate(0, -900)"><path d="M 661 366 Q 817 405 840 387 Q 847 381 846 368 Q 824 229 810 209 Q 803 196 788 201 Q 758 205 727 211 Q 700 212 720 196 Q 780 147 804 112 Q 811 99 824 106 Q 852 124 877 227 Q 893 332 917 357 Q 932 378 926 386 Q 917 399 866 432 Q 847 447 832 440 Q 804 428 750 420 Q 699 413 661 403 L 610 393 Q 577 387 558 380 Q 518 370 488 364 Q 466 360 462 351 Q 459 344 478 335 Q 511 314 543 328 Q 568 340 609 352 L 661 366 Z" fill="black" /></g></svg>