<?xml version='1.0' encoding='utf-8'?>
<svg xmlns="http://www.w3.org/2000/svg" version="1.1" viewBox="0 0 1024 1024"><g transform="scale(1, -1) translate(0, -900)"><path d="M 172 505 Q 118 489 89 486 Q 73 487 71 478 Q 67 469 79 461 Q 118 439 158 450 Q 273 504 281 502 Q 282 502 286 500 Q 298 493 291 463 Q 291 283 259 174 Q 243 140 292 89 Q 304 76 314 84 Q 321 91 332 118 Q 368 179 446 285 Q 458 298 454 306 Q 451 315 440 303 Q 400 267 360 229 Q 327 198 330 241 Q 329 302 349 456 Q 353 481 376 508 Q 389 518 379 532 Q 367 550 326 567 Q 313 574 295 562 Q 216 519 172 505 Z" fill="black" /></g></svg>