<?xml version='1.0' encoding='utf-8'?>
<svg xmlns="http://www.w3.org/2000/svg" version="1.1" viewBox="0 0 1024 1024"><g transform="scale(1, -1) translate(0, -900)"><path d="M 767 444 Q 822 451 891 451 Q 912 448 921 455 Q 927 461 921 472 Q 914 484 877 502 Q 856 512 833 505 Q 806 498 769 490 L 715 479 Q 630 461 551 436 Q 538 430 535 435 Q 531 439 534 450 Q 547 520 555 540 Q 562 553 551 564 Q 535 585 507 597 Q 494 601 486 594 Q 482 590 489 574 Q 504 547 501 511 Q 494 453 469 426 Q 457 411 463 401 Q 470 382 487 368 Q 497 358 514 370 Q 556 406 683 431 L 767 444 Z" fill="black" /></g></svg>