<?xml version='1.0' encoding='utf-8'?>
<svg xmlns="http://www.w3.org/2000/svg" version="1.1" viewBox="0 0 1024 1024"><g transform="scale(1, -1) translate(0, -900)"><path d="M 166 478 Q 114 462 86 461 Q 71 462 69 454 Q 65 445 76 437 Q 116 410 150 425 Q 261 477 271 470 Q 278 466 271 357 Q 267 245 234 142 Q 213 109 257 56 Q 267 43 277 49 Q 286 56 299 79 Q 336 119 414 188 Q 427 198 426 206 Q 425 215 413 207 Q 382 192 350 176 Q 289 133 304 203 Q 304 267 330 427 Q 334 452 357 475 Q 370 485 361 499 Q 349 515 310 534 Q 298 540 280 529 Q 207 490 166 478 Z" fill="black" /></g></svg>