<?xml version='1.0' encoding='utf-8'?>
<svg xmlns="http://www.w3.org/2000/svg" version="1.1" viewBox="0 0 1024 1024"><g transform="scale(1, -1) translate(0, -900)"><path d="M 159 497 Q 108 479 81 477 Q 65 477 63 469 Q 59 460 71 452 Q 114 430 141 441 Q 270 502 273 502 Q 276 502 279 499 Q 289 493 284 467 Q 284 274 245 145 Q 229 114 270 63 L 272 61 Q 284 48 293 55 Q 302 62 313 87 Q 353 139 436 227 Q 449 239 446 246 Q 445 255 433 245 Q 393 218 352 189 Q 306 150 314 208 Q 313 280 339 459 Q 343 484 365 508 Q 378 518 368 532 Q 356 548 317 565 Q 304 571 287 560 Q 205 514 159 497 Z" fill="black" /></g></svg>