<?xml version='1.0' encoding='utf-8'?>
<svg xmlns="http://www.w3.org/2000/svg" version="1.1" viewBox="0 0 1024 1024"><g transform="scale(1, -1) translate(0, -900)"><path d="M 560 460 Q 563 622 567 637 C 569 664 569 664 564 668 Q 552 680 523 695 Q 504 707 495 699 Q 488 692 496 678 Q 512 644 514 582 Q 520 374 501 182 Q 498 145 475 110 Q 465 95 474 76 Q 481 55 491 47 Q 501 40 518 51 Q 623 118 921 111 Q 943 110 945 122 Q 945 135 918 155 Q 906 167 779 149 Q 614 134 575 126 Q 545 120 551 174 Q 552 234 555 295 L 556 324 Q 557 379 559 434 L 560 460 Z" fill="black" /></g></svg>