<?xml version='1.0' encoding='utf-8'?>
<svg xmlns="http://www.w3.org/2000/svg" version="1.1" viewBox="0 0 1024 1024"><g transform="scale(1, -1) translate(0, -900)"><path d="M 156 489 Q 104 471 77 469 Q 62 469 60 461 Q 56 452 67 445 Q 109 420 137 432 Q 188 456 235 481 Q 260 494 270 488 Q 280 481 275 455 Q 274 415 271 373 Q 268 256 234 149 Q 218 116 262 66 Q 272 53 283 61 Q 290 68 302 92 Q 342 150 429 250 Q 441 263 438 270 Q 435 279 425 268 Q 380 234 336 196 Q 299 163 303 211 Q 303 280 330 447 Q 334 472 357 495 Q 370 505 359 519 Q 349 535 309 553 Q 296 559 279 548 Q 200 505 156 489 Z" fill="black" /></g></svg>