<?xml version='1.0' encoding='utf-8'?>
<svg xmlns="http://www.w3.org/2000/svg" version="1.1" viewBox="0 0 1024 1024"><g transform="scale(1, -1) translate(0, -900)"><path d="M 661 403 Q 661 439 662 481 L 662 524 Q 662 564 663 608 L 663 658 Q 663 709 678 788 Q 682 807 667 816 Q 633 838 616 842 Q 603 846 586 837 Q 577 828 585 818 Q 591 805 599 793 Q 615 762 616 718 Q 616 684 615 644 L 615 598 Q 614 558 613 511 L 612 470 Q 611 433 610 393 L 609 352 Q 597 1 621 -33 Q 627 -40 635 -38 Q 650 -29 657 34 Q 667 139 665 243 Q 662 282 661 366 L 661 403 Z" fill="black" /></g></svg>