<?xml version='1.0' encoding='utf-8'?>
<svg xmlns="http://www.w3.org/2000/svg" version="1.1" viewBox="0 0 1024 1024"><g transform="scale(1, -1) translate(0, -900)"><path d="M 139 517 Q 88 499 61 497 Q 45 497 44 489 Q 40 480 51 472 Q 96 448 121 460 Q 256 523 257 522 Q 260 522 263 520 Q 273 513 268 486 Q 268 446 266 404 Q 265 286 233 177 Q 215 144 261 93 Q 273 80 282 87 Q 289 94 301 119 Q 344 174 432 271 Q 445 283 442 290 Q 441 299 429 289 Q 383 258 339 222 Q 294 183 301 240 Q 300 309 323 479 Q 327 504 349 528 Q 362 538 352 552 Q 340 568 301 585 Q 288 592 271 580 Q 187 534 139 517 Z" fill="black" /></g></svg>