<?xml version='1.0' encoding='utf-8'?>
<svg xmlns="http://www.w3.org/2000/svg" version="1.1" viewBox="0 0 1024 1024"><g transform="scale(1, -1) translate(0, -900)"><path d="M 141 494 Q 90 479 62 477 Q 47 477 44 470 Q 40 461 52 453 Q 74 438 91 436 Q 107 432 218 484 Q 246 497 255 489 Q 265 482 259 455 Q 258 415 255 372 Q 252 254 218 145 Q 202 112 246 62 Q 256 49 267 56 Q 274 63 286 88 Q 317 136 385 218 Q 397 231 394 238 Q 393 247 381 236 Q 350 215 320 192 Q 281 158 287 207 Q 287 277 314 447 Q 318 472 341 495 Q 354 505 344 519 Q 334 535 294 554 Q 282 560 264 549 Q 186 509 141 494 Z" fill="black" /></g></svg>