<?xml version='1.0' encoding='utf-8'?>
<svg xmlns="http://www.w3.org/2000/svg" version="1.1" viewBox="0 0 1024 1024"><g transform="scale(1, -1) translate(0, -900)"><path d="M 673 177 Q 713 235 741 328 Q 748 362 768 380 Q 784 393 767 409 Q 746 425 714 439 Q 692 446 671 436 Q 619 409 546 399 Q 521 396 509 390 Q 500 383 518 374 Q 543 361 582 372 Q 622 382 663 391 Q 684 398 684 374 Q 684 293 635 212 L 608 173 Q 550 106 393 58 Q 377 54 387 46 Q 394 40 423 44 Q 516 54 571 81 Q 608 100 639 133 L 673 177 Z" fill="black" /></g></svg>