<?xml version='1.0' encoding='utf-8'?>
<svg xmlns="http://www.w3.org/2000/svg" version="1.1" viewBox="0 0 1024 1024"><g transform="scale(1, -1) translate(0, -900)"><path d="M 500 608 Q 507 611 731 671 Q 744 675 754 666 Q 761 656 759 638 Q 717 137 906 34 Q 907 33 911 31 Q 948 12 967 21 Q 979 27 976 48 Q 969 130 976 217 Q 977 229 973 236 Q 966 246 962 228 Q 940 165 923 138 Q 904 104 882 131 Q 834 167 810 284 Q 786 390 806 576 Q 809 618 849 661 Q 862 674 846 688 Q 833 701 779 726 Q 758 736 740 720 Q 695 687 494 641 C 465 634 471 600 500 608 Z" fill="black" /></g></svg>