<?xml version='1.0' encoding='utf-8'?>
<svg xmlns="http://www.w3.org/2000/svg" version="1.1" viewBox="0 0 1024 1024"><g transform="scale(1, -1) translate(0, -900)"><path d="M 752 185 Q 653 169 547 140 Q 537 136 534 138 Q 531 142 536 154 Q 635 317 656 345 Q 668 355 661 369 Q 654 381 602 400 Q 584 407 575 402 Q 562 395 570 374 Q 598 311 492 163 Q 473 142 444 119 Q 431 106 435 94 Q 442 78 469 59 Q 482 49 494 61 Q 536 97 737 155 Q 753 161 763 167 C 790 180 782 190 752 185 Z" fill="black" /></g></svg>