<?xml version='1.0' encoding='utf-8'?>
<svg xmlns="http://www.w3.org/2000/svg" version="1.1" viewBox="0 0 1024 1024"><g transform="scale(1, -1) translate(0, -900)"><path d="M 131 466 Q 82 453 55 452 Q 40 452 38 445 Q 34 438 45 429 Q 84 404 110 414 Q 174 438 233 463 Q 260 476 269 468 Q 276 464 269 362 Q 266 259 236 164 Q 217 134 260 82 Q 270 70 280 76 Q 287 83 299 106 Q 341 155 428 240 Q 441 250 438 258 Q 437 267 426 257 Q 383 232 341 202 Q 292 165 302 223 Q 302 281 325 426 Q 329 450 352 472 Q 364 482 355 495 Q 345 511 307 528 Q 295 535 278 524 Q 184 481 131 466 Z" fill="black" /></g></svg>