<?xml version='1.0' encoding='utf-8'?>
<svg xmlns="http://www.w3.org/2000/svg" version="1.1" viewBox="0 0 1024 1024"><g transform="scale(1, -1) translate(0, -900)"><path d="M 641 396 Q 650 387 707 381 Q 746 375 746 339 Q 745 329 742 311 Q 718 185 667 125 Q 657 115 644 110 Q 631 106 583 125 Q 543 144 538 138 Q 531 128 550 115 Q 592 81 606 32 Q 612 13 624 6 Q 637 -1 676 22 Q 724 58 762 164 Q 810 317 829 334 Q 842 340 843 349 Q 844 359 819 387 Q 777 426 729 417 Q 696 417 656 429 C 627 437 613 407 641 396 Z" fill="black" /></g></svg>