<?xml version='1.0' encoding='utf-8'?>
<svg xmlns="http://www.w3.org/2000/svg" version="1.1" viewBox="0 0 1024 1024"><g transform="scale(1, -1) translate(0, -900)"><path d="M 161 498 Q 110 482 82 481 Q 67 481 64 474 Q 60 465 72 457 Q 111 430 140 442 Q 185 463 226 484 Q 254 497 263 489 Q 273 482 267 455 Q 266 415 263 373 Q 260 256 226 149 Q 205 119 251 64 Q 261 51 272 58 Q 281 65 292 90 Q 334 139 419 223 Q 432 235 430 242 Q 429 251 417 242 Q 377 217 336 190 Q 284 150 295 211 Q 295 280 322 447 Q 326 472 349 495 Q 362 505 352 519 Q 342 535 302 554 Q 290 560 272 549 Q 202 512 161 498 Z" fill="black" /></g></svg>