<?xml version='1.0' encoding='utf-8'?>
<svg xmlns="http://www.w3.org/2000/svg" version="1.1" viewBox="0 0 1024 1024"><g transform="scale(1, -1) translate(0, -900)"><path d="M 159 456 Q 107 443 79 441 Q 64 442 61 434 Q 57 425 68 417 Q 104 393 143 404 Q 257 452 263 449 Q 264 449 267 447 Q 274 443 267 334 Q 263 222 230 122 Q 212 89 256 37 Q 266 24 277 31 Q 286 38 297 63 Q 337 115 420 203 Q 433 215 430 222 Q 429 231 417 221 Q 377 194 336 165 Q 291 128 300 183 Q 300 247 326 403 Q 330 428 354 451 Q 367 461 357 475 Q 347 491 307 510 Q 295 517 277 506 Q 201 469 159 456 Z" fill="black" /></g></svg>