<?xml version='1.0' encoding='utf-8'?>
<svg xmlns="http://www.w3.org/2000/svg" version="1.1" viewBox="0 0 1024 1024"><g transform="scale(1, -1) translate(0, -900)"><path d="M 152 532 Q 101 516 73 513 Q 58 513 56 505 Q 52 496 63 489 Q 105 464 133 476 Q 176 497 215 518 Q 240 531 249 524 Q 259 517 254 492 Q 247 315 211 206 Q 192 173 235 121 Q 245 108 256 115 Q 265 122 276 146 Q 315 194 396 275 Q 409 287 406 294 Q 405 303 393 293 Q 356 271 319 246 Q 270 209 281 267 Q 282 328 309 483 Q 313 507 336 531 Q 349 541 339 554 Q 329 570 289 589 Q 277 596 260 584 Q 191 545 152 532 Z" fill="black" /></g></svg>