<?xml version='1.0' encoding='utf-8'?>
<svg xmlns="http://www.w3.org/2000/svg" version="1.1" viewBox="0 0 1024 1024"><g transform="scale(1, -1) translate(0, -900)"><path d="M 141 511 Q 89 495 62 493 Q 46 493 44 485 Q 40 478 52 469 Q 74 454 91 452 Q 110 446 214 499 Q 242 514 252 505 Q 262 498 256 470 Q 256 430 254 388 Q 253 270 221 161 Q 203 128 249 77 Q 259 64 270 71 Q 277 78 289 103 Q 328 155 408 243 Q 421 255 418 262 Q 417 271 405 261 Q 366 236 327 205 Q 281 168 289 224 Q 288 293 311 463 Q 315 488 338 512 Q 351 522 341 536 Q 329 552 290 570 Q 277 576 260 565 Q 184 525 141 511 Z" fill="black" /></g></svg>