<?xml version='1.0' encoding='utf-8'?>
<svg xmlns="http://www.w3.org/2000/svg" version="1.1" viewBox="0 0 1024 1024"><g transform="scale(1, -1) translate(0, -900)"><path d="M 150 508 Q 101 493 74 491 Q 59 492 57 484 Q 53 477 64 469 Q 103 444 130 455 Q 176 476 218 497 Q 245 510 254 503 Q 264 496 258 469 Q 258 432 256 393 Q 256 284 227 183 Q 211 152 254 103 Q 264 91 274 98 Q 281 105 292 129 Q 329 180 405 267 Q 417 279 414 286 Q 413 293 402 284 Q 363 257 326 227 Q 286 193 291 243 Q 290 307 311 463 Q 315 485 336 509 Q 349 519 339 532 Q 329 548 290 564 Q 278 571 261 560 Q 191 521 150 508 Z" fill="black" /></g></svg>