<?xml version='1.0' encoding='utf-8'?>
<svg xmlns="http://www.w3.org/2000/svg" version="1.1" viewBox="0 0 1024 1024"><g transform="scale(1, -1) translate(0, -900)"><path d="M 148 480 Q 97 464 69 461 Q 54 461 52 453 Q 48 444 59 437 Q 102 413 129 424 Q 258 484 260 483 Q 263 483 266 480 Q 276 473 271 447 Q 270 407 267 367 Q 263 250 230 145 Q 215 115 258 62 Q 270 50 279 57 Q 286 64 298 89 Q 335 144 413 238 Q 425 251 422 258 Q 419 267 409 256 Q 369 226 331 193 Q 294 160 299 207 Q 299 274 326 439 Q 330 464 353 487 Q 366 497 356 511 Q 344 527 305 545 Q 293 552 275 540 Q 194 495 148 480 Z" fill="black" /></g></svg>