<?xml version='1.0' encoding='utf-8'?>
<svg xmlns="http://www.w3.org/2000/svg" version="1.1" viewBox="0 0 1024 1024"><g transform="scale(1, -1) translate(0, -900)"><path d="M 671 420 Q 722 170 871 59 Q 941 22 960 36 Q 978 45 970 79 Q 961 107 948 208 Q 947 227 942 230 Q 938 231 934 213 Q 918 138 903 124 Q 893 120 866 141 Q 749 240 709 431 L 702 473 Q 693 537 706 585 Q 713 607 675 629 Q 660 638 649 640 C 621 651 605 653 618 626 Q 618 622 621 617 Q 643 583 648 543 Q 654 501 662 459 L 671 420 Z" fill="black" /></g></svg>