<?xml version='1.0' encoding='utf-8'?>
<svg xmlns="http://www.w3.org/2000/svg" version="1.1" viewBox="0 0 1024 1024"><g transform="scale(1, -1) translate(0, -900)"><path d="M 513 715 Q 489 714 490 700 Q 491 690 517 674 Q 545 658 586 670 Q 670 712 797 732 Q 809 735 826 726 Q 830 719 823 574 Q 813 352 817 214 Q 818 111 809 100 Q 805 93 795 94 Q 785 95 728 112 Q 715 118 711 111 Q 707 102 735 80 Q 775 43 801 9 Q 823 -22 834 -21 Q 846 -20 856 -1 Q 890 57 887 97 Q 865 457 885 618 Q 891 688 911 708 Q 918 720 918 725 Q 918 738 884 760 Q 826 796 799 784 Q 663 727 513 715 Z" fill="black" /></g></svg>