<?xml version='1.0' encoding='utf-8'?>
<svg xmlns="http://www.w3.org/2000/svg" version="1.1" viewBox="0 0 1024 1024"><g transform="scale(1, -1) translate(0, -900)"><path d="M 651 663 Q 718 679 774 686 Q 795 689 799 682 Q 808 669 801 633 Q 788 533 762 491 Q 743 457 712 462 Q 684 466 659 474 Q 634 480 653 458 Q 699 419 721 388 Q 739 367 757 383 Q 787 402 809 437 Q 834 479 859 611 Q 866 657 885 679 Q 898 692 892 704 Q 882 716 829 741 Q 808 751 787 737 Q 763 724 672 705 Q 581 683 502 679 Q 483 679 480 669 Q 479 662 504 648 Q 529 632 551 638 Q 579 647 610 653 L 651 663 Z" fill="black" /></g></svg>