<?xml version='1.0' encoding='utf-8'?>
<svg xmlns="http://www.w3.org/2000/svg" version="1.1" viewBox="0 0 1024 1024"><g transform="scale(1, -1) translate(0, -900)"><path d="M 135 512 Q 87 494 61 491 Q 46 491 44 483 Q 40 476 52 468 Q 74 455 90 453 Q 105 450 193 495 Q 244 523 253 516 Q 263 510 258 485 Q 264 323 227 187 Q 209 154 253 106 Q 263 94 273 101 Q 280 108 292 131 Q 329 180 409 264 Q 421 274 418 282 Q 417 289 406 281 Q 367 256 330 229 Q 284 190 291 247 Q 290 314 311 479 Q 314 501 335 526 Q 347 536 337 548 Q 327 564 288 579 Q 276 585 260 574 Q 181 528 135 512 Z" fill="black" /></g></svg>