<?xml version='1.0' encoding='utf-8'?>
<svg xmlns="http://www.w3.org/2000/svg" version="1.1" viewBox="0 0 1024 1024"><g transform="scale(1, -1) translate(0, -900)"><path d="M 151 465 Q 100 447 73 445 Q 57 445 55 437 Q 51 428 63 420 Q 106 398 133 409 Q 262 470 264 470 Q 267 470 270 467 Q 280 461 276 435 Q 269 234 238 129 Q 220 99 265 45 Q 275 32 286 39 Q 293 46 305 71 Q 345 123 428 215 Q 441 227 438 234 Q 437 243 425 233 Q 385 205 343 174 Q 298 137 306 191 Q 306 260 331 427 Q 335 452 357 476 Q 370 486 359 499 Q 349 515 309 533 Q 296 539 279 528 Q 197 482 151 465 Z" fill="black" /></g></svg>