<?xml version='1.0' encoding='utf-8'?>
<svg xmlns="http://www.w3.org/2000/svg" version="1.1" viewBox="0 0 1024 1024"><g transform="scale(1, -1) translate(0, -900)"><path d="M 516 679 Q 506 689 479 704 Q 457 716 449 709 Q 442 702 449 686 Q 467 650 467 585 Q 474 186 422 99 Q 412 83 420 63 Q 427 41 438 32 Q 448 25 466 36 Q 524 73 610 91 Q 710 109 901 106 Q 925 105 926 117 Q 925 130 897 151 Q 881 166 758 144 Q 509 117 508 116 Q 501 117 500 135 Q 510 327 518 569 Q 518 618 525 649 C 528 670 528 670 516 679 Z" fill="black" /></g></svg>