<?xml version='1.0' encoding='utf-8'?>
<svg xmlns="http://www.w3.org/2000/svg" version="1.1" viewBox="0 0 1024 1024"><g transform="scale(1, -1) translate(0, -900)"><path d="M 146 474 Q 97 456 68 453 Q 53 452 51 444 Q 47 435 59 428 Q 102 406 129 417 Q 244 477 250 477 Q 254 478 258 475 Q 267 469 260 363 Q 259 249 226 145 Q 208 115 253 61 Q 263 48 274 55 Q 281 62 293 87 Q 329 136 404 219 Q 417 231 414 238 Q 413 247 401 237 Q 367 215 332 189 Q 286 152 294 207 Q 294 274 319 435 Q 322 460 345 484 Q 357 494 347 507 Q 335 523 296 541 Q 284 547 267 535 Q 191 490 146 474 Z" fill="black" /></g></svg>