<?xml version='1.0' encoding='utf-8'?>
<svg xmlns="http://www.w3.org/2000/svg" version="1.1" viewBox="0 0 1024 1024"><g transform="scale(1, -1) translate(0, -900)"><path d="M 654 544 Q 697 595 740 671 Q 756 696 780 712 Q 795 719 795 728 Q 795 740 768 756 Q 737 778 723 778 Q 713 778 701 770 Q 581 734 508 727 Q 474 727 471 718 Q 470 715 476 710 Q 522 677 665 724 Q 684 730 692 724 Q 698 720 679 675 Q 660 629 626 585 Q 622 579 616 572 L 596 548 Q 506 448 379 396 Q 369 392 370 388 Q 371 384 378 384 Q 498 380 629 516 L 654 544 Z" fill="black" /></g></svg>