<?xml version='1.0' encoding='utf-8'?>
<svg xmlns="http://www.w3.org/2000/svg" version="1.1" viewBox="0 0 1024 1024"><g transform="scale(1, -1) translate(0, -900)"><path d="M 126 494 Q 77 476 48 473 Q 33 472 31 464 Q 27 455 39 448 Q 82 426 109 437 Q 224 497 231 497 Q 235 498 239 495 Q 249 488 245 462 Q 245 425 243 386 Q 242 277 213 176 Q 197 143 242 93 Q 252 80 263 88 Q 270 95 282 120 Q 319 174 401 267 Q 413 279 410 286 Q 409 295 397 284 Q 357 256 317 223 Q 274 186 281 240 Q 280 301 300 455 Q 303 480 325 505 Q 338 515 328 528 Q 316 544 276 561 Q 264 567 247 555 Q 171 510 126 494 Z" fill="black" /></g></svg>