<?xml version='1.0' encoding='utf-8'?>
<svg xmlns="http://www.w3.org/2000/svg" version="1.1" viewBox="0 0 1024 1024"><g transform="scale(1, -1) translate(0, -900)"><path d="M 161 470 Q 110 454 82 453 Q 67 453 64 446 Q 60 437 72 429 Q 111 402 140 414 Q 185 435 226 456 Q 254 469 264 462 Q 273 456 266 352 Q 266 246 237 149 Q 219 119 264 64 Q 274 51 285 58 Q 292 65 304 90 Q 343 138 424 219 Q 437 231 434 238 Q 433 247 421 237 Q 384 215 347 190 Q 295 148 305 212 Q 304 272 324 419 Q 328 444 351 468 Q 363 478 353 492 Q 343 508 302 526 Q 290 533 272 521 Q 202 484 161 470 Z" fill="black" /></g></svg>