<?xml version='1.0' encoding='utf-8'?>
<svg xmlns="http://www.w3.org/2000/svg" version="1.1" viewBox="0 0 1024 1024"><g transform="scale(1, -1) translate(0, -900)"><path d="M 636 410 Q 636 447 637 487 L 637 528 Q 637 567 638 607 L 639 652 Q 643 716 657 765 Q 666 780 662 792 Q 656 801 603 833 Q 581 849 562 834 Q 558 830 563 815 Q 597 763 599 711 Q 599 678 600 643 L 601 600 Q 601 561 602 520 L 601 480 Q 600 443 598 403 L 597 301 Q 597 168 571 72 Q 561 38 585 -23 Q 592 -39 599 -43 Q 605 -49 612 -42 Q 619 -38 629 -17 Q 638 5 637 36 Q 636 76 635 338 L 636 410 Z" fill="black" /></g></svg>