<?xml version='1.0' encoding='utf-8'?>
<svg xmlns="http://www.w3.org/2000/svg" version="1.1" viewBox="0 0 1024 1024"><g transform="scale(1, -1) translate(0, -900)"><path d="M 152 524 Q 106 503 79 499 Q 64 498 63 490 Q 60 481 72 475 Q 111 456 138 469 Q 253 536 261 534 L 263 533 Q 272 529 269 506 Q 262 314 231 215 Q 216 181 259 136 Q 269 124 279 131 Q 286 138 297 162 Q 337 219 422 319 Q 432 331 430 338 Q 429 345 418 336 Q 372 300 328 261 Q 292 230 297 275 Q 297 339 322 498 Q 325 522 345 545 Q 357 555 347 567 Q 337 582 298 598 Q 286 602 270 592 Q 195 543 152 524 Z" fill="black" /></g></svg>