<?xml version='1.0' encoding='utf-8'?>
<svg xmlns="http://www.w3.org/2000/svg" version="1.1" viewBox="0 0 1024 1024"><g transform="scale(1, -1) translate(0, -900)"><path d="M 145 482 Q 96 466 70 463 Q 55 464 53 456 Q 49 447 60 440 Q 82 427 98 425 Q 119 419 226 476 Q 251 488 259 481 Q 269 475 264 450 Q 257 270 220 164 Q 202 133 246 84 Q 256 72 266 79 Q 273 86 284 109 Q 321 161 401 251 Q 413 263 410 270 Q 409 277 398 268 Q 358 240 318 207 Q 281 176 287 222 Q 288 286 316 442 Q 320 464 342 488 Q 355 498 345 510 Q 335 526 297 543 Q 287 550 269 539 Q 190 496 145 482 Z" fill="black" /></g></svg>