<?xml version='1.0' encoding='utf-8'?>
<svg xmlns="http://www.w3.org/2000/svg" version="1.1" viewBox="0 0 1024 1024"><g transform="scale(1, -1) translate(0, -900)"><path d="M 141 522 Q 92 506 65 503 Q 52 503 49 496 Q 45 487 56 480 Q 78 467 94 465 Q 112 459 207 511 Q 231 524 240 517 Q 250 511 244 486 Q 237 309 204 208 Q 186 175 232 129 Q 242 117 252 124 Q 259 131 269 155 Q 306 213 386 315 Q 396 327 394 334 Q 391 341 382 331 Q 339 295 297 255 Q 267 228 271 266 Q 271 327 297 478 Q 301 502 323 524 Q 335 534 325 546 Q 315 562 277 579 Q 265 586 249 575 Q 180 535 141 522 Z" fill="black" /></g></svg>