<?xml version='1.0' encoding='utf-8'?>
<svg xmlns="http://www.w3.org/2000/svg" version="1.1" viewBox="0 0 1024 1024"><g transform="scale(1, -1) translate(0, -900)"><path d="M 119 477 Q 73 464 47 462 Q 34 463 31 456 Q 27 449 37 440 Q 73 418 113 432 Q 216 478 225 475 Q 226 475 228 473 Q 238 466 232 440 Q 232 406 230 370 Q 230 270 204 177 Q 189 144 232 101 Q 242 91 251 97 Q 258 104 268 127 Q 302 178 374 268 Q 384 278 382 286 Q 381 293 370 284 Q 333 254 296 222 Q 262 191 266 235 Q 265 292 282 434 Q 286 456 307 478 Q 319 488 309 500 Q 299 515 263 531 Q 251 537 235 527 Q 162 490 119 477 Z" fill="black" /></g></svg>