<?xml version='1.0' encoding='utf-8'?>
<svg xmlns="http://www.w3.org/2000/svg" version="1.1" viewBox="0 0 1024 1024"><g transform="scale(1, -1) translate(0, -900)"><path d="M 526 286 Q 538 371 544 434 L 546 464 Q 547 545 555 597 Q 556 601 556 604 C 558 618 558 618 543 625 Q 542 626 539 627 Q 490 651 474 648 Q 455 644 471 622 Q 504 568 488 366 Q 484 284 442 184 Q 409 103 315 16 Q 302 3 298 -4 Q 297 -11 308 -10 Q 324 -10 345 5 Q 396 41 426 75 Q 490 147 520 257 L 526 286 Z" fill="black" /></g></svg>