<?xml version='1.0' encoding='utf-8'?>
<svg xmlns="http://www.w3.org/2000/svg" version="1.1" viewBox="0 0 1024 1024"><g transform="scale(1, -1) translate(0, -900)"><path d="M 163 494 Q 112 476 84 473 Q 69 472 67 464 Q 63 455 75 448 Q 114 429 151 440 Q 253 494 260 492 Q 261 492 264 490 Q 274 484 269 460 Q 263 289 223 178 Q 204 148 248 94 Q 258 81 268 87 Q 277 94 289 118 Q 329 169 412 255 Q 425 267 422 274 Q 421 283 409 273 Q 369 248 330 220 Q 285 184 294 238 Q 295 299 324 451 Q 328 475 351 498 Q 364 508 354 522 Q 344 538 304 556 Q 292 563 275 552 Q 203 509 163 494 Z" fill="black" /></g></svg>