<?xml version='1.0' encoding='utf-8'?>
<svg xmlns="http://www.w3.org/2000/svg" version="1.1" viewBox="0 0 1024 1024"><g transform="scale(1, -1) translate(0, -900)"><path d="M 149 509 Q 100 493 74 491 Q 59 492 57 484 Q 53 477 64 468 Q 103 444 150 464 Q 249 512 259 507 L 260 506 Q 270 499 264 474 Q 257 291 220 180 Q 202 150 245 99 Q 255 87 265 94 Q 272 101 284 124 Q 326 176 413 268 Q 425 278 422 286 Q 421 293 410 285 Q 365 255 321 221 Q 279 187 287 238 Q 288 304 316 466 Q 320 488 343 512 Q 355 522 346 534 Q 336 550 298 567 Q 286 574 269 563 Q 193 523 149 509 Z" fill="black" /></g></svg>