<?xml version='1.0' encoding='utf-8'?>
<svg xmlns="http://www.w3.org/2000/svg" version="1.1" viewBox="0 0 1024 1024"><g transform="scale(1, -1) translate(0, -900)"><path d="M 644 446 Q 645 494 646 547 L 647 594 Q 648 691 667 756 Q 676 771 673 785 Q 666 795 610 829 Q 586 845 565 830 Q 561 826 566 810 Q 602 758 603 704 Q 604 647 605 583 L 606 538 Q 605 538 606 537 Q 605 488 603 437 L 600 333 Q 596 168 591 137 Q 584 95 572 52 Q 560 10 587 -50 Q 594 -68 602 -71 Q 609 -78 616 -69 Q 623 -65 634 -44 Q 644 -19 643 13 Q 642 56 643 357 L 644 446 Z" fill="black" /></g></svg>