<?xml version='1.0' encoding='utf-8'?>
<svg xmlns="http://www.w3.org/2000/svg" version="1.1" viewBox="0 0 1024 1024"><g transform="scale(1, -1) translate(0, -900)"><path d="M 133 460 Q 84 441 55 436 Q 40 436 38 428 Q 35 418 47 412 Q 90 390 117 403 Q 234 467 241 467 Q 242 467 245 465 Q 255 459 251 435 Q 244 242 210 133 Q 191 103 236 49 Q 246 36 257 43 Q 266 50 277 75 Q 323 133 420 231 Q 433 243 430 250 Q 429 259 417 249 Q 366 215 317 176 Q 271 139 279 195 Q 279 262 306 427 Q 310 452 332 476 Q 344 486 334 499 Q 322 515 283 532 Q 271 538 254 526 Q 178 478 133 460 Z" fill="black" /></g></svg>