<?xml version='1.0' encoding='utf-8'?>
<svg xmlns="http://www.w3.org/2000/svg" version="1.1" viewBox="0 0 1024 1024"><g transform="scale(1, -1) translate(0, -900)"><path d="M 151 485 Q 100 467 73 465 Q 57 464 55 457 Q 51 448 63 440 Q 106 418 144 435 Q 237 486 246 479 Q 256 473 251 447 Q 251 273 214 153 Q 196 122 240 68 Q 250 55 261 62 Q 268 69 281 94 Q 321 145 408 231 Q 421 243 418 250 Q 417 259 405 249 Q 363 224 323 195 Q 272 155 282 215 Q 282 279 307 439 Q 310 464 333 488 Q 346 498 335 511 Q 325 527 284 545 Q 272 551 255 540 Q 189 500 151 485 Z" fill="black" /></g></svg>