<?xml version='1.0' encoding='utf-8'?>
<svg xmlns="http://www.w3.org/2000/svg" version="1.1" viewBox="0 0 1024 1024"><g transform="scale(1, -1) translate(0, -900)"><path d="M 727 49 Q 757 12 778 -24 Q 785 -40 797 -40 Q 812 -39 827 -8 Q 845 28 841 72 Q 835 147 830 285 Q 829 316 845 337 Q 854 349 845 359 Q 827 378 777 402 Q 759 411 744 402 Q 674 372 551 359 C 521 356 536 324 566 327 Q 581 327 731 351 Q 753 355 764 346 Q 791 319 773 75 Q 769 60 757 64 C 732 48 725 52 727 49 Z" fill="black" /></g></svg>