<?xml version='1.0' encoding='utf-8'?>
<svg xmlns="http://www.w3.org/2000/svg" version="1.1" viewBox="0 0 1024 1024"><g transform="scale(1, -1) translate(0, -900)"><path d="M 160 500 Q 109 484 81 481 Q 66 481 64 473 Q 60 464 71 457 Q 113 432 141 444 Q 184 465 223 486 Q 250 499 259 492 Q 269 485 264 459 Q 263 419 260 378 Q 259 263 226 157 Q 208 127 253 73 Q 263 60 274 67 Q 281 74 293 99 Q 326 145 396 223 Q 409 235 406 242 Q 405 251 393 241 Q 362 222 332 201 Q 286 164 294 219 Q 294 286 319 451 Q 323 476 345 500 Q 358 510 348 523 Q 336 539 297 557 Q 285 564 268 552 Q 199 513 160 500 Z" fill="black" /></g></svg>