<?xml version='1.0' encoding='utf-8'?>
<svg xmlns="http://www.w3.org/2000/svg" version="1.1" viewBox="0 0 1024 1024"><g transform="scale(1, -1) translate(0, -900)"><path d="M 732 53 Q 719 52 654 89 Q 644 93 643 88 Q 642 84 652 73 Q 695 18 712 -19 Q 722 -43 736 -43 Q 758 -44 779 -20 Q 854 50 873 240 Q 882 342 883 487 Q 882 526 904 555 Q 917 568 916 577 Q 915 586 895 599 Q 868 618 832 629 Q 810 636 742 616 Q 574 585 543 580 C 513 575 498 562 528 560 Q 529 560 532 559 Q 559 552 715 573 Q 727 579 793 579 Q 800 578 804 573 Q 828 531 817 304 Q 805 163 770 94 Q 754 55 732 53 Z" fill="black" /></g></svg>