<?xml version='1.0' encoding='utf-8'?>
<svg xmlns="http://www.w3.org/2000/svg" version="1.1" viewBox="0 0 1024 1024"><g transform="scale(1, -1) translate(0, -900)"><path d="M 779 321 Q 789 364 800 394 L 820 443 Q 833 471 853 486 Q 869 505 855 522 Q 839 535 787 560 Q 769 567 748 559 Q 684 535 626 523 L 602 517 Q 532 505 461 499 Q 445 498 446 489 Q 449 482 466 475 Q 490 465 523 475 Q 550 481 576 485 L 609 490 Q 664 502 722 512 Q 747 518 758 507 Q 773 492 759 432 L 750 392 Q 743 359 733 329 C 724 300 772 292 779 321 Z" fill="black" /></g></svg>