<?xml version='1.0' encoding='utf-8'?>
<svg xmlns="http://www.w3.org/2000/svg" version="1.1" viewBox="0 0 1024 1024"><g transform="scale(1, -1) translate(0, -900)"><path d="M 156 504 Q 105 488 77 485 Q 62 485 60 477 Q 56 468 67 461 Q 106 437 150 454 Q 255 505 264 502 Q 265 502 267 500 Q 277 494 272 466 Q 272 283 237 165 Q 219 132 263 80 Q 273 67 284 74 Q 293 81 304 106 Q 338 148 407 219 Q 420 231 418 238 Q 417 247 405 238 Q 377 223 348 205 Q 294 163 305 228 Q 304 295 327 459 Q 331 484 354 508 Q 367 518 356 532 Q 346 548 305 565 Q 293 572 276 560 Q 200 518 156 504 Z" fill="black" /></g></svg>