<?xml version='1.0' encoding='utf-8'?>
<svg xmlns="http://www.w3.org/2000/svg" version="1.1" viewBox="0 0 1024 1024"><g transform="scale(1, -1) translate(0, -900)"><path d="M 782 109 Q 745 118 708 127 Q 686 133 688 123 Q 761 69 803 30 Q 816 11 834 6 Q 844 2 852 12 Q 892 69 891 122 Q 878 297 872 583 Q 871 644 884 671 Q 897 692 884 703 Q 862 722 822 737 Q 803 744 756 719 Q 722 703 654 693 Q 638 692 648 682 Q 657 672 672 666 Q 699 660 777 688 Q 798 694 803 683 Q 818 641 823 363 Q 824 135 809 111 Q 805 104 782 109 Z" fill="black" /></g></svg>