<?xml version='1.0' encoding='utf-8'?>
<svg xmlns="http://www.w3.org/2000/svg" version="1.1" viewBox="0 0 1024 1024"><g transform="scale(1, -1) translate(0, -900)"><path d="M 614 -31 Q 620 -56 626 -65 Q 632 -72 639 -70 Q 657 -58 660 -3 Q 667 73 665 150 Q 662 193 663 316 L 663 355 Q 664 398 665 447 L 666 491 Q 667 501 669 507 Q 673 529 676 548 Q 679 564 665 574 Q 656 580 649 584 C 624 600 578 599 591 572 Q 612 536 613 476 L 613 435 Q 613 395 612 346 L 612 308 Q 606 44 614 -31 Z" fill="black" /></g></svg>