<?xml version='1.0' encoding='utf-8'?>
<svg xmlns="http://www.w3.org/2000/svg" version="1.1" viewBox="0 0 1024 1024"><g transform="scale(1, -1) translate(0, -900)"><path d="M 145 465 Q 96 449 70 447 Q 55 448 53 440 Q 49 433 60 424 Q 99 400 146 420 Q 245 468 255 463 L 256 462 Q 266 455 260 430 Q 253 247 216 136 Q 198 106 241 55 Q 251 43 261 50 Q 268 57 280 80 Q 322 132 409 224 Q 421 234 418 242 Q 417 249 406 241 Q 361 211 317 177 Q 275 143 283 194 Q 284 260 312 422 Q 316 444 339 468 Q 351 478 342 490 Q 332 506 294 523 Q 282 530 265 519 Q 189 479 145 465 Z" fill="black" /></g></svg>