<?xml version='1.0' encoding='utf-8'?>
<svg xmlns="http://www.w3.org/2000/svg" version="1.1" viewBox="0 0 1024 1024"><g transform="scale(1, -1) translate(0, -900)"><path d="M 620 216 Q 645 182 664 151 Q 671 135 681 136 Q 694 137 709 164 Q 725 197 722 236 Q 718 287 714 381 Q 713 408 727 426 Q 734 436 728 445 Q 712 461 669 482 Q 654 489 641 483 Q 587 456 498 444 C 468 440 489 413 519 418 Q 540 421 635 439 Q 648 442 657 437 Q 679 415 661 240 Q 657 224 642 231 Q 638 234 634 236 C 607 249 602 240 620 216 Z" fill="black" /></g></svg>