<?xml version='1.0' encoding='utf-8'?>
<svg xmlns="http://www.w3.org/2000/svg" version="1.1" viewBox="0 0 1024 1024"><g transform="scale(1, -1) translate(0, -900)"><path d="M 156 521 Q 107 508 80 508 Q 65 509 62 501 Q 58 494 69 485 Q 105 461 141 472 Q 258 517 267 515 Q 268 515 270 513 Q 280 506 273 478 Q 272 441 269 405 Q 266 299 236 204 Q 218 177 260 122 Q 270 110 280 117 Q 287 124 299 147 Q 342 198 432 284 Q 445 294 442 302 Q 441 311 430 301 Q 384 274 340 242 Q 292 205 302 263 Q 302 323 325 470 Q 329 494 352 516 Q 365 526 356 539 Q 346 555 308 573 Q 296 579 279 569 Q 200 532 156 521 Z" fill="black" /></g></svg>