<?xml version='1.0' encoding='utf-8'?>
<svg xmlns="http://www.w3.org/2000/svg" version="1.1" viewBox="0 0 1024 1024"><g transform="scale(1, -1) translate(0, -900)"><path d="M 149 479 Q 97 463 70 461 Q 54 461 52 453 Q 48 444 60 437 Q 82 422 99 420 Q 109 417 164 439 Q 255 485 267 477 Q 276 471 269 359 Q 268 238 234 129 Q 216 99 261 45 Q 271 32 282 39 Q 289 46 301 71 Q 344 126 432 219 Q 445 231 442 238 Q 441 247 429 237 Q 384 206 340 173 Q 294 134 302 192 Q 301 262 327 435 Q 331 460 354 484 Q 367 494 356 507 Q 346 523 306 541 Q 293 548 276 537 Q 195 494 149 479 Z" fill="black" /></g></svg>