<?xml version='1.0' encoding='utf-8'?>
<svg xmlns="http://www.w3.org/2000/svg" version="1.1" viewBox="0 0 1024 1024"><g transform="scale(1, -1) translate(0, -900)"><path d="M 607 377 Q 611 343 613 303 L 614 264 Q 614 263 615 261 Q 616 101 586 47 Q 583 41 577 39 Q 562 38 480 70 Q 473 71 470 69 Q 469 65 476 57 Q 534 -4 565 -48 Q 575 -61 584 -61 Q 594 -60 615 -41 Q 660 -2 664 81 Q 668 130 664 251 Q 663 261 663 269 L 660 313 Q 656 365 654 384 L 651 415 Q 651 433 651 447 Q 651 466 640 473 Q 624 483 609 490 C 582 504 560 510 576 485 Q 594 467 603 408 L 607 377 Z" fill="black" /></g></svg>