<?xml version='1.0' encoding='utf-8'?>
<svg xmlns="http://www.w3.org/2000/svg" version="1.1" viewBox="0 0 1024 1024"><g transform="scale(1, -1) translate(0, -900)"><path d="M 162 522 Q 110 506 82 505 Q 67 506 65 498 Q 61 489 72 481 Q 112 454 146 469 Q 255 520 265 517 Q 268 517 270 514 Q 279 508 275 391 Q 278 267 248 151 Q 233 121 279 69 Q 289 56 300 64 Q 307 71 318 96 Q 354 148 429 238 Q 441 251 438 258 Q 437 267 425 256 Q 388 229 352 200 Q 309 160 314 217 Q 310 290 330 472 Q 333 497 356 521 Q 369 531 358 545 Q 346 561 306 579 Q 294 585 276 573 Q 203 534 162 522 Z" fill="black" /></g></svg>