<?xml version='1.0' encoding='utf-8'?>
<svg xmlns="http://www.w3.org/2000/svg" version="1.1" viewBox="0 0 1024 1024"><g transform="scale(1, -1) translate(0, -900)"><path d="M 791 411 Q 794 495 812 516 Q 830 540 815 552 Q 791 574 753 585 Q 734 592 713 583 Q 670 567 635 557 Q 604 548 559 541 C 529 536 546 500 575 507 Q 600 511 696 542 Q 715 548 729 540 Q 742 530 741 484 Q 740 441 737 402 L 735 361 Q 729 268 718 207 L 710 167 Q 697 98 685 73 Q 675 57 654 63 Q 579 81 583 86 Q 553 93 577 68 Q 617 31 648 -11 Q 670 -39 688 -27 Q 758 18 775 160 L 780 205 Q 783 283 789 363 L 791 411 Z" fill="black" /></g></svg>