<?xml version='1.0' encoding='utf-8'?>
<svg xmlns="http://www.w3.org/2000/svg" version="1.1" viewBox="0 0 1024 1024"><g transform="scale(1, -1) translate(0, -900)"><path d="M 136 480 Q 88 467 63 466 Q 50 467 47 460 Q 43 453 53 445 Q 87 421 130 436 Q 245 481 252 479 L 254 477 Q 264 470 258 445 Q 257 409 253 373 Q 249 268 218 174 Q 203 149 241 97 Q 251 85 260 92 Q 267 99 279 121 Q 316 170 397 256 Q 409 266 406 274 Q 405 281 394 273 Q 354 245 314 214 Q 274 183 282 230 Q 282 290 308 437 Q 312 459 334 481 Q 346 490 337 502 Q 327 518 291 535 Q 281 541 264 531 Q 182 492 136 480 Z" fill="black" /></g></svg>