<?xml version='1.0' encoding='utf-8'?>
<svg xmlns="http://www.w3.org/2000/svg" version="1.1" viewBox="0 0 1024 1024"><g transform="scale(1, -1) translate(0, -900)"><path d="M 589 484 Q 593 485 601 487 Q 670 500 736 514 Q 758 518 764 506 Q 776 479 787 274 Q 791 103 781 80 Q 777 74 756 78 Q 731 82 704 87 Q 683 93 684 83 Q 742 35 774 -1 Q 789 -20 805 -25 Q 815 -29 823 -18 Q 865 30 861 91 Q 822 451 847 497 Q 859 518 846 528 Q 822 547 784 563 Q 765 570 748 562 Q 706 543 681 533 L 641 523 Q 613 519 571 515 C 541 512 560 478 589 484 Z" fill="black" /></g></svg>