<?xml version='1.0' encoding='utf-8'?>
<svg xmlns="http://www.w3.org/2000/svg" version="1.1" viewBox="0 0 1024 1024"><g transform="scale(1, -1) translate(0, -900)"><path d="M 144 468 Q 93 452 65 449 Q 50 449 48 441 Q 44 432 55 425 Q 97 400 125 412 Q 168 433 207 454 Q 234 467 244 460 Q 254 454 249 426 Q 249 252 217 136 Q 201 103 246 53 Q 258 41 267 48 Q 274 55 286 80 Q 320 131 393 218 Q 405 231 402 238 Q 401 247 389 236 Q 355 211 320 184 Q 280 147 284 200 Q 283 264 304 420 Q 308 444 330 469 Q 343 479 332 492 Q 322 508 281 526 Q 269 532 252 520 Q 183 481 144 468 Z" fill="black" /></g></svg>