<?xml version='1.0' encoding='utf-8'?>
<svg xmlns="http://www.w3.org/2000/svg" version="1.1" viewBox="0 0 1024 1024"><g transform="scale(1, -1) translate(0, -900)"><path d="M 139 440 Q 91 422 64 419 Q 51 419 48 411 Q 44 402 56 396 Q 78 383 94 381 Q 115 380 208 433 Q 230 446 240 439 Q 249 435 245 410 Q 238 226 208 127 Q 190 99 232 47 Q 242 34 252 41 Q 259 48 271 71 Q 307 116 380 192 Q 393 202 390 210 Q 389 219 378 209 Q 344 190 311 167 Q 265 130 273 187 Q 273 248 297 402 Q 301 426 322 449 Q 334 459 325 471 Q 313 487 276 503 Q 264 509 248 498 Q 179 455 139 440 Z" fill="black" /></g></svg>