<?xml version='1.0' encoding='utf-8'?>
<svg xmlns="http://www.w3.org/2000/svg" version="1.1" viewBox="0 0 1024 1024"><g transform="scale(1, -1) translate(0, -900)"><path d="M 157 474 Q 108 458 81 455 Q 68 455 65 448 Q 61 439 72 432 Q 94 419 110 417 Q 117 416 161 430 Q 272 484 280 477 Q 290 471 285 446 Q 285 272 247 147 Q 229 116 273 67 Q 283 54 293 61 Q 300 68 312 91 Q 349 140 429 224 Q 441 234 438 242 Q 437 249 426 241 Q 387 216 350 189 Q 305 152 313 207 Q 313 274 338 438 Q 342 462 363 485 Q 375 495 366 507 Q 356 523 317 539 Q 305 546 289 535 Q 204 489 157 474 Z" fill="black" /></g></svg>