<?xml version='1.0' encoding='utf-8'?>
<svg xmlns="http://www.w3.org/2000/svg" version="1.1" viewBox="0 0 1024 1024"><g transform="scale(1, -1) translate(0, -900)"><path d="M 661 511 Q 716 524 780 533 Q 802 539 813 527 Q 823 521 827 474 Q 839 314 830 132 Q 829 105 819 98 Q 804 88 732 106 Q 716 107 718 99 Q 719 92 731 87 Q 795 44 830 9 Q 849 -10 862 -7 Q 874 -4 884 23 Q 899 66 897 129 Q 884 361 883 448 Q 883 485 894 507 Q 904 528 895 539 Q 885 552 840 575 Q 822 584 753 564 Q 627 534 506 517 C 476 513 492 471 521 479 Q 561 491 611 500 L 661 511 Z" fill="black" /></g></svg>