<?xml version='1.0' encoding='utf-8'?>
<svg xmlns="http://www.w3.org/2000/svg" version="1.1" viewBox="0 0 1024 1024"><g transform="scale(1, -1) translate(0, -900)"><path d="M 572 192 Q 596 462 527 585 L 497 626 Q 454 669 381 694 Q 368 700 366 689 Q 365 676 373 659 Q 383 643 400 642 Q 439 630 473 586 L 497 548 Q 501 544 517 482 L 528 407 Q 543 242 497 117 Q 490 101 480 98 Q 462 97 421 117 Q 394 129 390 124 Q 386 118 394 107 Q 434 68 460 34 Q 476 6 487 6 Q 497 5 515 25 Q 554 70 569 176 L 572 192 Z" fill="black" /></g></svg>