<?xml version='1.0' encoding='utf-8'?>
<svg xmlns="http://www.w3.org/2000/svg" version="1.1" viewBox="0 0 1024 1024"><g transform="scale(1, -1) translate(0, -900)"><path d="M 158 515 Q 107 496 80 493 Q 65 492 63 484 Q 59 475 71 468 Q 113 446 141 458 Q 175 477 209 499 Q 233 512 242 506 Q 252 500 247 475 Q 247 292 206 161 Q 191 128 238 81 Q 250 69 259 76 Q 266 83 276 109 Q 307 170 380 281 Q 390 294 386 302 Q 382 309 373 298 Q 333 259 295 216 Q 274 194 275 223 Q 275 293 302 467 Q 306 492 328 516 Q 341 526 330 539 Q 320 555 280 572 Q 267 578 250 567 Q 192 530 158 515 Z" fill="black" /></g></svg>