<?xml version='1.0' encoding='utf-8'?>
<svg xmlns="http://www.w3.org/2000/svg" version="1.1" viewBox="0 0 1024 1024"><g transform="scale(1, -1) translate(0, -900)"><path d="M 136 525 Q 84 507 57 505 Q 42 505 40 497 Q 36 488 47 481 Q 89 456 117 468 Q 168 492 215 517 Q 242 532 251 524 Q 261 517 257 490 Q 257 453 255 413 Q 254 302 225 200 Q 209 167 254 117 Q 264 104 275 112 Q 282 119 294 144 Q 330 195 405 283 Q 417 295 414 302 Q 413 311 401 300 Q 365 275 329 247 Q 286 210 292 264 Q 291 328 312 484 Q 316 508 338 533 Q 351 543 340 556 Q 328 572 289 589 Q 276 596 259 584 Q 180 541 136 525 Z" fill="black" /></g></svg>