<?xml version='1.0' encoding='utf-8'?>
<svg xmlns="http://www.w3.org/2000/svg" version="1.1" viewBox="0 0 1024 1024"><g transform="scale(1, -1) translate(0, -900)"><path d="M 129 458 Q 80 442 53 439 Q 40 439 37 432 Q 33 423 44 416 Q 66 403 82 401 Q 100 395 195 447 Q 219 460 228 453 Q 238 447 232 422 Q 225 248 192 148 Q 174 120 216 67 Q 226 54 235 61 Q 244 68 255 91 Q 292 136 368 212 Q 381 222 378 230 Q 377 239 366 229 Q 332 210 296 186 Q 250 149 259 206 Q 259 267 285 414 Q 289 436 311 460 Q 323 470 313 482 Q 303 498 265 515 Q 253 522 237 511 Q 168 471 129 458 Z" fill="black" /></g></svg>