<?xml version='1.0' encoding='utf-8'?>
<svg xmlns="http://www.w3.org/2000/svg" version="1.1" viewBox="0 0 1024 1024"><g transform="scale(1, -1) translate(0, -900)"><path d="M 701 506 Q 717 481 732 473 Q 742 464 759 486 Q 775 511 810 649 Q 820 680 844 705 Q 857 717 846 732 Q 831 748 788 776 Q 767 788 689 766 Q 574 744 458 720 C 429 714 449 678 477 688 Q 476 689 478 689 Q 518 702 578 713 L 612 719 Q 732 747 749 731 Q 762 715 758 699 Q 731 558 711 538 C 696 513 696 513 701 506 Z" fill="black" /></g></svg>