<?xml version='1.0' encoding='utf-8'?>
<svg xmlns="http://www.w3.org/2000/svg" version="1.1" viewBox="0 0 1024 1024"><g transform="scale(1, -1) translate(0, -900)"><path d="M 749 630 Q 658 611 564 583 Q 554 579 551 582 Q 548 586 555 597 Q 661 748 684 773 Q 696 783 690 795 Q 683 807 636 830 Q 620 837 610 833 Q 598 827 604 807 Q 619 764 529 627 Q 507 599 465 568 Q 452 556 456 545 Q 462 529 487 510 Q 497 500 510 510 Q 552 546 753 605 Q 759 608 766 609 C 795 618 778 636 749 630 Z" fill="black" /></g></svg>