<?xml version='1.0' encoding='utf-8'?>
<svg xmlns="http://www.w3.org/2000/svg" version="1.1" viewBox="0 0 1024 1024"><g transform="scale(1, -1) translate(0, -900)"><path d="M 634 361 Q 634 362 635 362 L 635 399 Q 635 448 636 499 L 636 538 Q 636 562 637 586 Q 636 598 636 607 L 636 647 Q 637 678 640 686 Q 643 698 634 705 Q 627 712 612 719 C 586 735 569 742 578 713 Q 585 700 587 673 Q 587 652 587 630 L 588 596 Q 588 562 588 527 L 588 493 Q 588 444 587 391 L 585 306 Q 585 126 573 42 Q 570 0 595 -33 Q 607 -48 617 -30 Q 641 18 635 105 Q 635 132 634 318 L 634 361 Z" fill="black" /></g></svg>