<?xml version='1.0' encoding='utf-8'?>
<svg xmlns="http://www.w3.org/2000/svg" version="1.1" viewBox="0 0 1024 1024"><g transform="scale(1, -1) translate(0, -900)"><path d="M 133 517 Q 84 501 58 499 Q 43 500 41 492 Q 37 485 48 476 Q 70 463 86 460 Q 104 457 206 508 Q 231 521 241 514 Q 250 508 243 402 Q 242 287 211 183 Q 196 149 239 104 Q 249 92 259 99 Q 266 106 277 130 Q 311 182 386 275 Q 396 287 394 294 Q 391 301 382 292 Q 345 262 307 230 Q 273 199 276 243 Q 275 310 298 474 Q 302 498 324 521 Q 336 531 326 544 Q 316 560 278 576 Q 266 582 249 571 Q 176 531 133 517 Z" fill="black" /></g></svg>