<?xml version='1.0' encoding='utf-8'?>
<svg xmlns="http://www.w3.org/2000/svg" version="1.1" viewBox="0 0 1024 1024"><g transform="scale(1, -1) translate(0, -900)"><path d="M 128 501 Q 82 485 57 482 Q 44 482 41 474 Q 38 467 49 460 Q 85 439 112 449 Q 146 468 179 487 Q 201 500 211 494 Q 221 488 216 464 Q 216 305 188 205 Q 175 177 216 130 Q 226 118 235 125 Q 242 132 252 155 Q 283 204 351 292 Q 361 304 358 310 Q 355 317 346 308 Q 312 281 279 251 Q 246 220 250 263 Q 249 318 266 458 Q 269 480 290 503 Q 300 512 291 524 Q 281 539 245 554 Q 233 560 218 549 Q 161 515 128 501 Z" fill="black" /></g></svg>