<?xml version='1.0' encoding='utf-8'?>
<svg xmlns="http://www.w3.org/2000/svg" version="1.1" viewBox="0 0 1024 1024"><g transform="scale(1, -1) translate(0, -900)"><path d="M 125 479 Q 73 463 46 461 Q 30 461 28 453 Q 24 446 36 437 Q 58 422 75 420 Q 90 417 192 461 Q 247 489 258 481 Q 268 474 263 447 Q 256 270 222 162 Q 203 131 247 77 Q 257 64 268 71 Q 277 78 289 102 Q 329 151 412 235 Q 425 247 422 254 Q 421 263 409 253 Q 369 229 331 203 Q 282 164 292 223 Q 292 286 318 439 Q 322 464 345 487 Q 358 497 348 511 Q 338 527 298 545 Q 286 552 268 541 Q 177 495 125 479 Z" fill="black" /></g></svg>