<?xml version='1.0' encoding='utf-8'?>
<svg xmlns="http://www.w3.org/2000/svg" version="1.1" viewBox="0 0 1024 1024"><g transform="scale(1, -1) translate(0, -900)"><path d="M 150 488 Q 101 473 74 471 Q 59 472 57 464 Q 53 457 64 449 Q 98 427 137 438 Q 254 489 260 488 Q 261 488 264 486 Q 274 480 268 454 Q 261 270 228 164 Q 210 134 252 83 Q 262 70 272 77 Q 281 84 292 107 Q 326 153 400 232 Q 413 242 410 250 Q 409 257 398 249 Q 364 228 330 204 Q 287 168 294 222 Q 295 286 321 446 Q 325 470 347 492 Q 360 502 350 515 Q 340 531 302 548 Q 290 554 273 544 Q 194 502 150 488 Z" fill="black" /></g></svg>