<?xml version='1.0' encoding='utf-8'?>
<svg xmlns="http://www.w3.org/2000/svg" version="1.1" viewBox="0 0 1024 1024"><g transform="scale(1, -1) translate(0, -900)"><path d="M 764 92 Q 777 73 794 36 Q 804 18 820 29 Q 851 47 868 169 Q 889 343 910 376 Q 922 395 906 409 Q 845 460 807 443 Q 714 424 678 419 Q 668 419 668 409 Q 669 400 684 392 Q 706 383 742 390 Q 815 414 831 406 Q 841 400 840 377 Q 836 329 830 279 L 828 262 Q 818 198 804 129 Q 803 120 791 120 C 768 101 761 96 764 92 Z" fill="black" /></g></svg>