<?xml version='1.0' encoding='utf-8'?>
<svg xmlns="http://www.w3.org/2000/svg" version="1.1" viewBox="0 0 1024 1024"><g transform="scale(1, -1) translate(0, -900)"><path d="M 604 290 Q 610 323 615 353 L 619 390 Q 620 411 631 624 Q 631 681 650 746 Q 654 756 646 764 Q 628 779 595 791 Q 576 800 560 794 Q 542 787 557 771 Q 584 744 585 716 Q 589 521 570 380 L 566 347 Q 563 335 562 322 Q 541 172 419 77 Q 389 56 348 31 Q 336 25 334 22 Q 330 16 344 15 Q 357 14 407 34 Q 443 47 494 84 Q 572 138 598 260 L 604 290 Z" fill="black" /></g></svg>