<?xml version='1.0' encoding='utf-8'?>
<svg xmlns="http://www.w3.org/2000/svg" version="1.1" viewBox="0 0 1024 1024"><g transform="scale(1, -1) translate(0, -900)"><path d="M 130 491 Q 81 478 55 476 Q 40 476 38 469 Q 34 460 44 453 Q 81 429 124 444 Q 236 495 245 487 Q 252 481 246 381 Q 245 278 215 183 Q 197 153 242 103 Q 252 91 262 98 Q 269 105 280 128 Q 319 180 401 271 Q 413 283 410 290 Q 409 297 398 289 Q 356 259 315 227 Q 275 191 281 243 Q 280 301 302 446 Q 306 470 328 493 Q 341 503 331 515 Q 321 531 283 548 Q 271 555 254 544 Q 175 504 130 491 Z" fill="black" /></g></svg>