<?xml version='1.0' encoding='utf-8'?>
<svg xmlns="http://www.w3.org/2000/svg" version="1.1" viewBox="0 0 1024 1024"><g transform="scale(1, -1) translate(0, -900)"><path d="M 723 363 Q 724 357 726 351 Q 732 336 744 337 Q 757 338 764 353 Q 783 380 810 506 Q 826 554 861 581 Q 879 594 864 610 Q 848 626 802 652 Q 781 665 748 651 Q 705 642 660 633 Q 647 633 645 629 Q 642 625 655 616 Q 680 603 697 607 Q 715 613 757 618 Q 764 618 767 617 Q 780 608 772 568 Q 766 543 761 518 L 755 490 Q 736 411 728 386 L 723 363 Z" fill="black" /></g></svg>