<?xml version='1.0' encoding='utf-8'?>
<svg xmlns="http://www.w3.org/2000/svg" version="1.1" viewBox="0 0 1024 1024"><g transform="scale(1, -1) translate(0, -900)"><path d="M 416 285 Q 437 264 436 220 Q 440 121 410 70 Q 392 49 425 16 Q 435 6 451 18 Q 494 49 634 66 Q 713 75 816 67 Q 837 63 846 69 Q 852 75 847 86 Q 841 98 806 119 Q 788 131 712 118 Q 643 118 487 84 Q 474 80 472 84 Q 463 90 467 108 Q 474 220 486 252 Q 490 265 479 275 Q 467 287 451 295 C 426 311 399 310 416 285 Z" fill="black" /></g></svg>