<?xml version='1.0' encoding='utf-8'?>
<svg xmlns="http://www.w3.org/2000/svg" version="1.1" viewBox="0 0 1024 1024"><g transform="scale(1, -1) translate(0, -900)"><path d="M 741 385 Q 741 384 742 383 Q 748 368 760 369 Q 773 370 780 384 Q 790 397 813 462 Q 829 513 864 541 Q 882 557 867 572 Q 849 588 801 614 Q 788 623 716 606 Q 695 606 633 591 L 595 585 Q 565 581 539 574 Q 481 562 438 555 C 408 550 422 515 451 521 Q 457 521 465 523 Q 511 539 595 553 L 633 559 Q 751 580 771 571 Q 778 565 774 538 Q 759 462 742 409 C 736 391 736 391 741 385 Z" fill="black" /></g></svg>