<?xml version='1.0' encoding='utf-8'?>
<svg xmlns="http://www.w3.org/2000/svg" version="1.1" viewBox="0 0 1024 1024"><g transform="scale(1, -1) translate(0, -900)"><path d="M 148 528 Q 97 512 69 509 Q 54 509 52 501 Q 48 492 59 485 Q 104 461 141 478 Q 240 529 252 526 Q 253 526 256 524 Q 268 517 262 490 Q 268 310 232 176 Q 217 143 263 93 Q 275 81 284 88 Q 291 95 302 121 Q 347 185 441 294 Q 453 307 450 314 Q 447 323 437 312 Q 385 270 335 225 Q 295 188 299 240 Q 296 310 317 484 Q 320 509 343 533 Q 355 543 345 557 Q 333 573 293 590 Q 280 596 263 584 Q 190 542 148 528 Z" fill="black" /></g></svg>