<?xml version='1.0' encoding='utf-8'?>
<svg xmlns="http://www.w3.org/2000/svg" version="1.1" viewBox="0 0 1024 1024"><g transform="scale(1, -1) translate(0, -900)"><path d="M 489 482 Q 504 461 504 411 Q 503 393 484 372 Q 477 362 479 352 Q 482 342 498 332 Q 510 326 520 338 Q 590 377 764 370 Q 770 370 777 369 Q 796 368 804 378 Q 810 387 792 397 Q 774 410 756 417 Q 735 432 566 388 Q 532 375 541 406 Q 545 449 552 466 Q 559 476 552 484 Q 548 488 539 492 C 513 507 475 508 489 482 Z" fill="black" /></g></svg>