<?xml version='1.0' encoding='utf-8'?>
<svg xmlns="http://www.w3.org/2000/svg" version="1.1" viewBox="0 0 1024 1024"><g transform="scale(1, -1) translate(0, -900)"><path d="M 145 472 Q 96 453 67 448 Q 52 448 50 440 Q 47 430 59 424 Q 102 402 129 415 Q 237 475 242 475 Q 246 476 250 473 Q 260 469 256 443 Q 256 275 221 161 Q 202 128 246 75 Q 256 62 267 69 Q 276 76 287 100 Q 324 143 403 216 Q 416 226 414 234 Q 413 243 401 234 Q 368 218 335 198 Q 277 155 290 224 Q 289 285 311 435 Q 314 460 336 484 Q 349 494 338 508 Q 326 524 287 540 Q 275 546 258 534 Q 186 488 145 472 Z" fill="black" /></g></svg>