<?xml version='1.0' encoding='utf-8'?>
<svg xmlns="http://www.w3.org/2000/svg" version="1.1" viewBox="0 0 1024 1024"><g transform="scale(1, -1) translate(0, -900)"><path d="M 692 42 Q 720 5 741 -28 Q 750 -46 761 -45 Q 776 -44 791 -12 Q 807 25 804 69 Q 797 139 790 270 Q 789 298 804 320 Q 813 332 804 341 Q 786 360 737 381 Q 721 390 706 381 Q 679 369 559 335 L 533 330 Q 526 329 520 327 C 491 321 504 293 534 298 Q 558 301 692 333 Q 714 337 725 330 Q 752 303 736 71 Q 733 62 728 59 C 715 32 675 65 692 42 Z" fill="black" /></g></svg>