<?xml version='1.0' encoding='utf-8'?>
<svg xmlns="http://www.w3.org/2000/svg" version="1.1" viewBox="0 0 1024 1024"><g transform="scale(1, -1) translate(0, -900)"><path d="M 140 482 Q 92 466 65 463 Q 52 463 49 456 Q 45 447 56 440 Q 95 418 122 428 Q 164 449 203 471 Q 227 484 236 477 Q 246 471 240 446 Q 233 266 200 164 Q 182 131 225 83 Q 235 71 245 77 Q 252 84 264 108 Q 304 159 389 248 Q 401 258 398 266 Q 397 273 386 265 Q 343 237 301 205 Q 258 171 266 222 Q 267 285 293 438 Q 297 462 318 484 Q 331 494 321 507 Q 311 523 273 539 Q 261 545 245 535 Q 178 496 140 482 Z" fill="black" /></g></svg>