<?xml version='1.0' encoding='utf-8'?>
<svg xmlns="http://www.w3.org/2000/svg" version="1.1" viewBox="0 0 1024 1024"><g transform="scale(1, -1) translate(0, -900)"><path d="M 515 155 Q 508 106 490 73 Q 472 54 506 22 Q 516 12 530 24 Q 608 73 780 62 Q 825 62 828 63 Q 835 69 830 79 Q 824 89 791 110 Q 773 119 708 111 Q 633 105 562 88 Q 553 85 552 88 Q 542 95 546 114 Q 547 139 549 162 L 552 196 Q 556 251 565 271 C 571 289 571 289 553 301 Q 537 314 515 322 Q 502 325 495 318 Q 491 312 500 298 Q 515 276 517 191 L 515 155 Z" fill="black" /></g></svg>