<?xml version='1.0' encoding='utf-8'?>
<svg xmlns="http://www.w3.org/2000/svg" version="1.1" viewBox="0 0 1024 1024"><g transform="scale(1, -1) translate(0, -900)"><path d="M 163 474 Q 114 453 87 448 Q 71 447 70 439 Q 66 430 79 423 Q 122 402 149 416 Q 186 440 222 464 Q 244 477 254 472 Q 264 468 261 442 Q 261 259 229 148 Q 213 115 257 65 Q 269 52 278 59 Q 287 66 297 91 Q 328 137 396 215 Q 409 227 406 234 Q 405 243 393 233 Q 365 214 335 194 Q 289 155 296 212 Q 295 276 316 436 Q 319 460 340 485 Q 352 495 342 508 Q 330 524 290 540 Q 278 546 261 534 Q 200 491 163 474 Z" fill="black" /></g></svg>