<?xml version='1.0' encoding='utf-8'?>
<svg xmlns="http://www.w3.org/2000/svg" version="1.1" viewBox="0 0 1024 1024"><g transform="scale(1, -1) translate(0, -900)"><path d="M 133 505 Q 84 489 58 487 Q 43 488 41 480 Q 37 473 48 464 Q 70 451 86 448 Q 101 445 194 492 Q 219 505 227 497 Q 237 491 231 466 Q 224 295 188 192 Q 173 164 212 111 Q 222 99 232 105 Q 239 112 252 135 Q 286 180 356 256 Q 369 266 366 274 Q 365 283 354 273 Q 323 254 290 232 Q 247 198 256 250 Q 257 310 284 458 Q 288 480 310 504 Q 323 514 313 526 Q 303 542 266 559 Q 254 566 237 555 Q 171 518 133 505 Z" fill="black" /></g></svg>