<?xml version='1.0' encoding='utf-8'?>
<svg xmlns="http://www.w3.org/2000/svg" version="1.1" viewBox="0 0 1024 1024"><g transform="scale(1, -1) translate(0, -900)"><path d="M 134 507 Q 83 488 56 484 Q 41 484 39 476 Q 35 467 47 460 Q 89 438 117 450 Q 169 475 217 503 Q 242 518 251 510 Q 261 504 257 478 Q 263 292 225 152 Q 210 122 255 70 Q 267 57 277 65 Q 284 72 295 98 Q 335 159 422 266 Q 432 279 430 286 Q 427 295 417 284 Q 371 245 325 202 Q 288 168 292 216 Q 289 289 312 472 Q 316 497 337 521 Q 350 531 339 544 Q 327 560 288 577 Q 275 583 258 571 Q 179 523 134 507 Z" fill="black" /></g></svg>