<?xml version='1.0' encoding='utf-8'?>
<svg xmlns="http://www.w3.org/2000/svg" version="1.1" viewBox="0 0 1024 1024"><g transform="scale(1, -1) translate(0, -900)"><path d="M 146 456 Q 97 441 70 439 Q 55 440 53 432 Q 49 425 60 417 Q 99 392 126 403 Q 166 422 202 441 Q 227 454 236 446 Q 246 440 240 414 Q 233 234 200 132 Q 184 102 225 51 Q 235 39 245 46 Q 252 53 264 76 Q 300 124 377 208 Q 389 218 386 226 Q 385 233 374 225 Q 337 200 301 173 Q 259 139 266 190 Q 267 253 293 406 Q 297 430 319 452 Q 332 462 322 474 Q 312 490 274 508 Q 262 514 245 504 Q 182 468 146 456 Z" fill="black" /></g></svg>