<?xml version='1.0' encoding='utf-8'?>
<svg xmlns="http://www.w3.org/2000/svg" version="1.1" viewBox="0 0 1024 1024"><g transform="scale(1, -1) translate(0, -900)"><path d="M 641 425 Q 801 455 815 443 Q 827 413 821 264 Q 812 153 781 86 Q 768 58 751 56 Q 738 52 660 71 Q 650 72 651 68 Q 651 64 662 56 Q 708 16 728 -13 Q 741 -32 753 -30 Q 771 -31 787 -13 Q 850 41 865 161 Q 878 246 885 375 Q 886 403 904 427 Q 917 440 916 447 Q 915 454 896 468 Q 871 487 837 496 Q 816 503 747 481 Q 600 451 560 442 C 531 436 518 433 545 427 Q 578 417 614 421 L 641 425 Z" fill="black" /></g></svg>