<?xml version='1.0' encoding='utf-8'?>
<svg xmlns="http://www.w3.org/2000/svg" version="1.1" viewBox="0 0 1024 1024"><g transform="scale(1, -1) translate(0, -900)"><path d="M 748 545 Q 767 514 784 505 Q 794 496 811 518 Q 827 542 859 673 Q 869 704 893 729 Q 906 742 895 756 Q 880 774 837 801 Q 819 810 730 790 Q 717 790 594 767 Q 537 755 493 748 C 463 743 471 711 501 715 Q 507 715 514 716 Q 554 728 611 738 L 649 745 Q 694 754 752 761 Q 786 767 797 755 Q 809 739 806 725 Q 778 577 757 567 C 744 550 744 550 748 545 Z" fill="black" /></g></svg>