<?xml version='1.0' encoding='utf-8'?>
<svg xmlns="http://www.w3.org/2000/svg" version="1.1" viewBox="0 0 1024 1024"><g transform="scale(1, -1) translate(0, -900)"><path d="M 806 427 Q 797 440 782 483 Q 781 495 776 497 Q 772 500 770 487 Q 752 439 741 424 Q 735 417 718 412 Q 678 403 645 413 Q 632 417 629 425 Q 623 438 623 470 L 626 503 Q 627 521 631 539 Q 635 552 625 561 Q 615 571 597 577 Q 587 580 581 576 Q 575 573 580 560 Q 586 538 588 491 L 588 460 Q 585 406 608 387 Q 660 351 759 377 Q 781 384 803 400 Q 815 410 806 427 Z" fill="black" /></g></svg>