<?xml version='1.0' encoding='utf-8'?>
<svg xmlns="http://www.w3.org/2000/svg" version="1.1" viewBox="0 0 1024 1024"><g transform="scale(1, -1) translate(0, -900)"><path d="M 134 480 Q 85 465 58 464 Q 45 464 42 457 Q 38 448 48 441 Q 87 416 114 426 Q 157 445 197 466 Q 224 479 233 471 Q 240 467 233 365 Q 230 259 200 164 Q 179 134 225 83 Q 235 70 245 77 Q 252 84 264 107 Q 301 156 381 240 Q 393 250 390 258 Q 389 265 378 257 Q 339 232 302 205 Q 259 168 266 223 Q 266 283 289 430 Q 293 454 316 476 Q 328 486 319 499 Q 309 515 270 532 Q 260 539 242 528 Q 173 491 134 480 Z" fill="black" /></g></svg>