<?xml version='1.0' encoding='utf-8'?>
<svg xmlns="http://www.w3.org/2000/svg" version="1.1" viewBox="0 0 1024 1024"><g transform="scale(1, -1) translate(0, -900)"><path d="M 488 634 Q 488 673 493 699 Q 497 715 487 723 Q 466 739 445 748 Q 429 754 420 749 Q 410 742 423 725 Q 460 671 434 505 Q 425 483 409 457 Q 397 438 406 428 Q 415 415 438 405 Q 453 398 465 414 Q 483 448 572 505 Q 599 520 610 537 Q 617 547 609 548 Q 602 549 506 505 Q 493 499 487 503 Q 480 504 481 523 Q 484 574 486 608 L 488 634 Z" fill="black" /></g></svg>