<?xml version='1.0' encoding='utf-8'?>
<svg xmlns="http://www.w3.org/2000/svg" version="1.1" viewBox="0 0 1024 1024"><g transform="scale(1, -1) translate(0, -900)"><path d="M 630 413 Q 711 431 813 429 Q 835 428 837 440 Q 837 453 801 472 Q 774 487 729 472 Q 543 438 536 439 Q 535 440 534 440 Q 519 446 523 462 Q 517 526 514 594 L 513 629 Q 513 647 513 664 Q 514 688 494 704 Q 460 726 439 723 Q 421 722 432 703 Q 463 666 469 624 L 472 586 Q 485 460 474 435 Q 464 417 474 403 Q 490 381 503 381 Q 510 381 532 393 Q 560 400 598 408 L 630 413 Z" fill="black" /></g></svg>