<?xml version='1.0' encoding='utf-8'?>
<svg xmlns="http://www.w3.org/2000/svg" version="1.1" viewBox="0 0 1024 1024"><g transform="scale(1, -1) translate(0, -900)"><path d="M 520 206 Q 562 240 653 267 Q 689 277 710 273 Q 732 267 736 232 Q 727 147 686 83 Q 670 59 656 54 Q 638 51 569 76 Q 553 86 550 78 Q 549 72 561 58 Q 597 12 619 -27 Q 629 -42 641 -42 Q 657 -43 679 -32 Q 755 35 791 208 Q 792 239 804 258 Q 816 271 805 284 Q 787 300 748 315 Q 727 324 703 314 Q 672 302 647 297 Q 619 290 582 280 Q 555 276 566 301 Q 585 344 593 355 Q 603 371 591 385 Q 584 389 577 392 C 554 411 506 409 518 381 Q 518 380 521 376 Q 546 340 492 269 Q 453 248 484 211 Q 487 208 494 203 Q 507 193 520 206 Z" fill="black" /></g></svg>