<?xml version='1.0' encoding='utf-8'?>
<svg xmlns="http://www.w3.org/2000/svg" version="1.1" viewBox="0 0 1024 1024"><g transform="scale(1, -1) translate(0, -900)"><path d="M 160 467 Q 111 451 85 447 Q 70 447 69 440 Q 65 431 76 424 Q 98 411 114 409 Q 132 406 231 458 Q 255 471 264 465 Q 271 459 265 356 Q 264 244 231 143 Q 216 109 259 64 Q 269 52 279 59 Q 286 66 297 90 Q 334 144 414 239 Q 424 251 422 258 Q 421 265 410 256 Q 368 225 328 189 Q 292 158 297 203 Q 297 267 322 426 Q 325 450 347 473 Q 359 483 349 495 Q 339 511 301 527 Q 289 533 272 523 Q 202 481 160 467 Z" fill="black" /></g></svg>