<?xml version='1.0' encoding='utf-8'?>
<svg xmlns="http://www.w3.org/2000/svg" version="1.1" viewBox="0 0 1024 1024"><g transform="scale(1, -1) translate(0, -900)"><path d="M 127 522 Q 76 504 48 501 Q 33 500 31 492 Q 27 483 39 476 Q 78 457 115 468 Q 217 520 223 521 Q 227 522 231 519 Q 241 513 237 486 Q 237 317 205 204 Q 190 174 234 121 Q 246 109 255 116 Q 262 123 274 148 Q 310 200 385 290 Q 397 303 394 310 Q 393 319 381 308 Q 344 281 308 252 Q 268 215 273 268 Q 272 329 292 479 Q 295 504 318 529 Q 330 539 320 552 Q 308 568 268 585 Q 256 591 239 580 Q 167 537 127 522 Z" fill="black" /></g></svg>