<?xml version='1.0' encoding='utf-8'?>
<svg xmlns="http://www.w3.org/2000/svg" version="1.1" viewBox="0 0 1024 1024"><g transform="scale(1, -1) translate(0, -900)"><path d="M 893 281 L 877 284 Q 853 260 773 257 Q 728 257 708 263 Q 692 270 687 283 Q 672 328 700 379 Q 712 409 673 435 C 649 453 619 459 630 431 Q 646 397 644 349 Q 641 252 686 231 Q 702 225 733 219 Q 776 212 845 216 Q 906 219 931 232 Q 956 245 945 272 Q 929 312 918 380 Q 915 393 909 398 Q 902 402 899 384 Q 889 300 876 285 L 893 281 Z" fill="black" /></g></svg>