<?xml version='1.0' encoding='utf-8'?>
<svg xmlns="http://www.w3.org/2000/svg" version="1.1" viewBox="0 0 1024 1024"><g transform="scale(1, -1) translate(0, -900)"><path d="M 149 482 Q 100 466 73 463 Q 60 463 57 456 Q 53 447 64 440 Q 86 427 102 425 Q 118 421 218 472 Q 243 485 252 477 Q 262 471 257 446 Q 250 254 219 155 Q 204 124 247 76 Q 257 64 267 71 Q 274 78 285 102 Q 321 157 398 251 Q 408 263 406 270 Q 403 277 394 268 Q 354 237 315 202 Q 281 171 285 215 Q 285 279 310 438 Q 313 462 335 485 Q 347 495 338 507 Q 328 523 289 540 Q 277 546 261 535 Q 189 495 149 482 Z" fill="black" /></g></svg>