<?xml version='1.0' encoding='utf-8'?>
<svg xmlns="http://www.w3.org/2000/svg" version="1.1" viewBox="0 0 1024 1024"><g transform="scale(1, -1) translate(0, -900)"><path d="M 645 386 Q 679 393 718 397 Q 743 397 744 379 Q 753 247 738 230 Q 731 224 678 231 Q 663 234 661 229 Q 658 225 669 215 Q 718 181 750 155 Q 763 143 775 157 Q 796 187 798 251 Q 792 341 801 387 Q 804 405 795 413 Q 770 434 754 443 Q 742 447 735 440 Q 729 433 646 412 L 592 402 Q 555 398 499 388 C 469 383 479 351 508 358 Q 532 364 592 376 L 645 386 Z" fill="black" /></g></svg>