<?xml version='1.0' encoding='utf-8'?>
<svg xmlns="http://www.w3.org/2000/svg" version="1.1" viewBox="0 0 1024 1024"><g transform="scale(1, -1) translate(0, -900)"><path d="M 151 510 Q 105 494 80 490 Q 67 489 65 482 Q 61 475 73 467 Q 112 446 136 458 Q 245 515 248 515 Q 249 515 253 512 Q 263 508 258 484 Q 258 316 221 198 Q 206 167 249 123 Q 259 113 268 119 Q 275 126 284 148 Q 315 202 383 295 Q 393 308 390 314 Q 387 321 378 311 Q 342 280 308 245 Q 283 220 284 254 Q 284 318 309 477 Q 312 499 332 522 Q 344 531 334 543 Q 324 558 288 573 Q 278 579 261 568 Q 191 525 151 510 Z" fill="black" /></g></svg>