<?xml version='1.0' encoding='utf-8'?>
<svg xmlns="http://www.w3.org/2000/svg" version="1.1" viewBox="0 0 1024 1024"><g transform="scale(1, -1) translate(0, -900)"><path d="M 483 361 Q 496 416 505 471 L 509 499 Q 513 529 517 555 Q 521 588 527 593 C 534 611 534 611 517 623 Q 504 635 485 644 Q 467 654 455 650 Q 445 644 450 631 Q 478 591 441 383 Q 440 380 439 374 Q 424 305 403 249 Q 363 156 287 44 Q 283 38 280 33 Q 277 23 287 25 Q 317 29 396 144 Q 408 165 422 189 Q 450 247 472 317 L 483 361 Z" fill="black" /></g></svg>