<?xml version='1.0' encoding='utf-8'?>
<svg xmlns="http://www.w3.org/2000/svg" version="1.1" viewBox="0 0 1024 1024"><g transform="scale(1, -1) translate(0, -900)"><path d="M 154 468 Q 105 453 78 452 Q 65 452 62 445 Q 58 436 68 429 Q 107 404 134 414 Q 177 433 217 454 Q 244 467 253 459 Q 260 455 253 353 Q 250 247 220 152 Q 202 119 248 73 Q 258 61 268 68 Q 275 75 285 99 Q 316 150 382 239 Q 392 251 390 258 Q 387 265 378 255 Q 344 230 312 199 Q 282 171 286 211 Q 286 271 309 418 Q 313 442 336 464 Q 348 474 339 487 Q 329 503 290 520 Q 280 527 262 516 Q 193 479 154 468 Z" fill="black" /></g></svg>