<?xml version='1.0' encoding='utf-8'?>
<svg xmlns="http://www.w3.org/2000/svg" version="1.1" viewBox="0 0 1024 1024"><g transform="scale(1, -1) translate(0, -900)"><path d="M 800 496 Q 801 358 806 122 Q 805 100 794 90 Q 787 84 725 98 Q 692 111 695 101 Q 696 94 716 78 Q 777 29 792 0 Q 808 -33 824 -35 Q 839 -36 853 0 Q 871 46 868 119 Q 852 312 849 507 L 849 553 Q 849 659 864 718 Q 880 749 824 769 Q 790 787 771 780 Q 753 773 770 750 Q 792 723 794 690 Q 795 674 799 539 L 800 496 Z" fill="black" /></g></svg>