<?xml version='1.0' encoding='utf-8'?>
<svg xmlns="http://www.w3.org/2000/svg" version="1.1" viewBox="0 0 1024 1024"><g transform="scale(1, -1) translate(0, -900)"><path d="M 145 477 Q 96 461 70 459 Q 55 460 53 452 Q 49 445 60 436 Q 94 415 132 426 Q 235 478 246 470 Q 256 463 250 437 Q 250 400 248 361 Q 248 252 219 151 Q 201 117 246 71 Q 256 59 266 66 Q 273 73 284 97 Q 318 146 393 231 Q 405 243 402 250 Q 401 257 390 248 Q 354 223 318 195 Q 278 159 283 211 Q 282 275 303 431 Q 307 453 328 477 Q 340 487 331 500 Q 319 516 282 532 Q 270 538 253 527 Q 184 490 145 477 Z" fill="black" /></g></svg>