<?xml version='1.0' encoding='utf-8'?>
<svg xmlns="http://www.w3.org/2000/svg" version="1.1" viewBox="0 0 1024 1024"><g transform="scale(1, -1) translate(0, -900)"><path d="M 131 504 Q 83 486 56 483 Q 43 483 40 475 Q 36 466 48 460 Q 70 447 86 445 Q 101 445 150 471 Q 202 502 212 496 Q 222 490 217 465 Q 217 294 183 183 Q 165 150 209 102 Q 219 90 229 97 Q 236 104 248 127 Q 282 172 352 248 Q 365 258 362 266 Q 361 275 350 265 Q 319 246 286 224 Q 240 187 249 243 Q 248 304 270 458 Q 274 482 295 505 Q 307 515 297 527 Q 287 543 248 559 Q 236 565 220 554 Q 163 517 131 504 Z" fill="black" /></g></svg>