<?xml version='1.0' encoding='utf-8'?>
<svg xmlns="http://www.w3.org/2000/svg" version="1.1" viewBox="0 0 1024 1024"><g transform="scale(1, -1) translate(0, -900)"><path d="M 771 405 Q 801 406 917 407 Q 933 407 938 414 Q 942 424 929 436 Q 877 475 823 457 Q 805 454 786 450 L 732 441 Q 692 437 650 430 L 609 423 Q 572 420 534 414 L 502 410 Q 418 403 327 391 Q 309 390 322 374 Q 334 362 349 358 Q 367 354 381 357 Q 438 373 501 381 L 533 386 Q 560 392 609 396 L 650 400 Q 684 404 724 404 L 771 405 Z" fill="black" /></g></svg>