<?xml version='1.0' encoding='utf-8'?>
<svg xmlns="http://www.w3.org/2000/svg" version="1.1" viewBox="0 0 1024 1024"><g transform="scale(1, -1) translate(0, -900)"><path d="M 135 503 Q 89 485 64 481 Q 51 481 49 474 Q 45 465 56 459 Q 95 438 120 451 Q 151 470 180 489 Q 202 502 210 496 Q 220 492 216 467 Q 222 299 188 173 Q 173 140 215 96 Q 225 86 234 92 Q 241 99 251 121 Q 282 166 350 244 Q 360 254 358 262 Q 357 269 346 260 Q 315 239 284 215 Q 244 181 249 231 Q 248 298 267 462 Q 268 484 289 507 Q 299 517 291 528 Q 281 543 243 557 Q 233 563 217 552 Q 165 516 135 503 Z" fill="black" /></g></svg>