<?xml version='1.0' encoding='utf-8'?>
<svg xmlns="http://www.w3.org/2000/svg" version="1.1" viewBox="0 0 1024 1024"><g transform="scale(1, -1) translate(0, -900)"><path d="M 446 528 Q 464 519 513 531 Q 579 555 730 581 Q 763 587 774 585 Q 789 578 787 572 Q 774 533 760 494 L 761 493 Q 767 489 781 499 Q 827 532 867 542 Q 898 552 898 559 Q 897 568 833 613 Q 812 628 722 608 Q 670 601 628 589 L 590 582 Q 556 576 519 568 Q 482 561 442 554 Q 441 554 441 553 C 412 546 417 535 446 528 Z" fill="black" /></g></svg>