<?xml version='1.0' encoding='utf-8'?>
<svg xmlns="http://www.w3.org/2000/svg" version="1.1" viewBox="0 0 1024 1024"><g transform="scale(1, -1) translate(0, -900)"><path d="M 598 410 Q 730 367 830 412 Q 840 416 840 421 Q 839 431 827 447 Q 808 472 760 554 Q 757 561 753 561 Q 750 561 751 555 Q 755 516 759 473 Q 760 455 747 448 Q 723 430 632 453 L 589 469 Q 537 505 519 578 Q 506 626 495 632 Q 482 641 476 635 Q 472 632 477 617 Q 511 482 535 453 Q 541 446 550 438 Q 554 435 559 431 L 598 410 Z" fill="black" /></g></svg>