<?xml version='1.0' encoding='utf-8'?>
<svg xmlns="http://www.w3.org/2000/svg" version="1.1" viewBox="0 0 1024 1024"><g transform="scale(1, -1) translate(0, -900)"><path d="M 647 55 Q 647 89 647 120 L 647 162 Q 647 190 648 217 L 649 260 Q 649 291 650 322 L 651 356 Q 652 404 653 448 Q 653 449 653 450 L 654 480 Q 654 516 653 518 Q 641 528 628 538 C 604 557 569 560 580 532 Q 598 489 601 469 L 602 441 Q 603 419 604 346 L 604 315 Q 604 287 603 249 L 603 211 Q 603 184 603 153 L 603 114 Q 603 84 603 49 C 603 19 647 25 647 55 Z" fill="black" /></g></svg>