<?xml version='1.0' encoding='utf-8'?>
<svg xmlns="http://www.w3.org/2000/svg" version="1.1" viewBox="0 0 1024 1024"><g transform="scale(1, -1) translate(0, -900)"><path d="M 719 613 Q 765 623 846 624 Q 862 624 868 633 Q 872 640 857 648 Q 817 675 756 654 Q 741 653 728 647 L 681 634 Q 660 630 642 623 Q 621 616 626 634 Q 635 679 644 697 Q 651 704 646 712 Q 642 719 616 730 Q 603 736 596 731 Q 589 724 596 715 Q 606 693 596 642 Q 595 627 577 610 Q 576 610 577 609 C 565 595 565 595 575 586 Q 579 582 587 575 Q 597 569 606 579 Q 648 603 674 603 L 719 613 Z" fill="black" /></g></svg>