<?xml version='1.0' encoding='utf-8'?>
<svg xmlns="http://www.w3.org/2000/svg" version="1.1" viewBox="0 0 1024 1024"><g transform="scale(1, -1) translate(0, -900)"><path d="M 699 603 Q 715 581 729 574 Q 739 567 751 587 Q 761 603 781 697 Q 788 724 808 746 Q 820 756 809 769 Q 796 784 758 806 Q 749 810 593 786 Q 550 779 516 775 Q 510 775 507 773 C 478 768 515 736 543 747 Q 552 757 696 769 Q 715 770 723 764 Q 732 754 731 743 Q 721 652 714 638 Q 711 628 698 624 C 687 618 687 618 699 603 Z" fill="black" /></g></svg>