<?xml version='1.0' encoding='utf-8'?>
<svg xmlns="http://www.w3.org/2000/svg" version="1.1" viewBox="0 0 1024 1024"><g transform="scale(1, -1) translate(0, -900)"><path d="M 125 509 Q 76 493 50 491 Q 35 492 33 484 Q 29 477 40 468 Q 62 455 78 452 Q 96 449 198 500 Q 223 513 232 506 Q 242 499 236 474 Q 236 305 196 180 Q 178 152 220 99 Q 230 86 240 93 Q 247 100 259 123 Q 290 165 356 236 Q 369 246 366 254 Q 365 263 354 253 Q 326 237 299 220 Q 253 183 262 239 Q 263 305 289 466 Q 293 490 315 512 Q 327 522 318 535 Q 308 551 270 567 Q 258 574 241 563 Q 168 523 125 509 Z" fill="black" /></g></svg>