<?xml version='1.0' encoding='utf-8'?>
<svg xmlns="http://www.w3.org/2000/svg" version="1.1" viewBox="0 0 1024 1024"><g transform="scale(1, -1) translate(0, -900)"><path d="M 145 516 Q 99 500 73 498 Q 60 498 58 491 Q 54 482 65 476 Q 87 463 101 461 Q 117 458 202 504 Q 226 517 234 510 Q 243 504 238 480 Q 238 318 201 202 Q 186 169 226 125 Q 236 115 245 120 Q 252 127 263 149 Q 293 192 358 268 Q 368 278 366 286 Q 365 293 354 284 Q 326 265 296 243 Q 259 212 264 258 Q 264 321 289 473 Q 292 495 313 517 Q 325 527 315 539 Q 305 554 269 570 Q 259 576 242 565 Q 181 529 145 516 Z" fill="black" /></g></svg>