<?xml version='1.0' encoding='utf-8'?>
<svg xmlns="http://www.w3.org/2000/svg" version="1.1" viewBox="0 0 1024 1024"><g transform="scale(1, -1) translate(0, -900)"><path d="M 125 488 Q 79 472 53 470 Q 40 470 38 463 Q 34 454 45 448 Q 67 435 81 433 Q 99 430 214 488 Q 239 501 248 494 Q 258 488 253 463 Q 259 286 228 160 Q 213 129 256 85 Q 266 75 275 81 Q 282 88 292 111 Q 322 157 386 240 Q 396 250 394 258 Q 393 265 382 256 Q 351 232 320 206 Q 284 172 288 219 Q 285 288 303 458 Q 306 480 326 503 Q 338 513 328 525 Q 318 540 281 554 Q 269 560 254 549 Q 172 504 125 488 Z" fill="black" /></g></svg>