<?xml version='1.0' encoding='utf-8'?>
<svg xmlns="http://www.w3.org/2000/svg" version="1.1" viewBox="0 0 1024 1024"><g transform="scale(1, -1) translate(0, -900)"><path d="M 145 482 Q 96 466 69 463 Q 56 463 53 456 Q 49 447 60 440 Q 82 427 98 425 Q 116 419 211 471 Q 236 484 245 477 Q 255 471 249 445 Q 249 274 215 159 Q 199 129 240 78 Q 250 66 260 73 Q 267 80 279 103 Q 321 154 408 240 Q 421 250 418 258 Q 417 267 406 257 Q 363 230 319 199 Q 271 160 280 219 Q 280 283 302 438 Q 306 462 327 485 Q 340 495 330 507 Q 320 523 281 540 Q 269 546 253 535 Q 184 495 145 482 Z" fill="black" /></g></svg>