<?xml version='1.0' encoding='utf-8'?>
<svg xmlns="http://www.w3.org/2000/svg" version="1.1" viewBox="0 0 1024 1024"><g transform="scale(1, -1) translate(0, -900)"><path d="M 135 498 Q 86 485 59 484 Q 44 485 42 477 Q 38 470 49 461 Q 88 437 128 451 Q 242 496 247 495 Q 250 495 253 492 Q 263 485 256 458 Q 249 251 208 124 Q 192 96 234 44 Q 244 32 254 39 Q 261 46 273 69 Q 313 127 402 227 Q 412 239 410 246 Q 409 253 398 244 Q 352 208 305 168 Q 271 138 275 182 Q 276 260 308 450 Q 312 474 336 496 Q 348 506 339 518 Q 329 534 291 552 Q 281 559 263 549 Q 181 510 135 498 Z" fill="black" /></g></svg>