<?xml version='1.0' encoding='utf-8'?>
<svg xmlns="http://www.w3.org/2000/svg" version="1.1" viewBox="0 0 1024 1024"><g transform="scale(1, -1) translate(0, -900)"><path d="M 790 592 Q 802 574 813 567 Q 820 560 835 576 Q 842 585 865 635 Q 874 662 895 683 Q 907 693 897 706 Q 884 721 847 745 Q 831 754 817 749 Q 780 739 727 730 L 675 721 Q 639 717 600 708 L 557 700 Q 502 690 456 681 C 427 675 444 641 473 650 Q 510 662 561 671 L 599 680 Q 633 687 674 694 L 720 702 Q 741 706 764 709 Q 806 716 819 701 Q 823 695 823 688 Q 808 624 794 617 C 782 602 782 602 790 592 Z" fill="black" /></g></svg>