<?xml version='1.0' encoding='utf-8'?>
<svg xmlns="http://www.w3.org/2000/svg" version="1.1" viewBox="0 0 1024 1024"><g transform="scale(1, -1) translate(0, -900)"><path d="M 135 496 Q 87 478 60 475 Q 47 475 44 467 Q 40 458 52 452 Q 74 439 90 437 Q 111 436 204 489 Q 226 502 236 496 Q 246 490 241 465 Q 241 306 207 191 Q 189 160 233 111 Q 243 98 253 105 Q 260 112 272 135 Q 309 184 389 268 Q 401 278 398 286 Q 397 293 386 285 Q 347 260 310 233 Q 264 196 273 251 Q 272 311 294 458 Q 297 482 319 505 Q 331 515 321 527 Q 311 543 272 559 Q 260 565 244 554 Q 175 511 135 496 Z" fill="black" /></g></svg>