<?xml version='1.0' encoding='utf-8'?>
<svg xmlns="http://www.w3.org/2000/svg" version="1.1" viewBox="0 0 1024 1024"><g transform="scale(1, -1) translate(0, -900)"><path d="M 460 543 Q 478 503 464 463 Q 460 442 450 431 Q 440 416 445 400 Q 452 376 464 367 Q 471 363 481 375 Q 506 405 592 480 Q 605 490 606 496 Q 607 505 592 497 Q 558 478 519 457 Q 506 450 501 453 Q 497 456 497 468 Q 503 508 507 517 Q 511 530 502 540 Q 486 559 472 562 Q 469 563 467 562 C 451 564 451 564 460 543 Z" fill="black" /></g></svg>