<?xml version='1.0' encoding='utf-8'?>
<svg xmlns="http://www.w3.org/2000/svg" version="1.1" viewBox="0 0 1024 1024"><g transform="scale(1, -1) translate(0, -900)"><path d="M 144 543 Q 95 527 69 523 Q 54 523 52 515 Q 49 508 60 500 Q 82 487 98 485 Q 117 482 199 530 Q 224 543 233 537 Q 243 530 239 505 Q 240 465 238 423 Q 239 306 210 198 Q 195 165 239 119 Q 249 107 259 114 Q 266 121 277 146 Q 317 203 402 303 Q 412 315 410 322 Q 409 329 398 320 Q 352 284 308 245 Q 271 211 274 260 Q 271 329 292 499 Q 295 523 316 546 Q 328 556 318 569 Q 306 584 269 600 Q 256 606 240 594 Q 179 557 144 543 Z" fill="black" /></g></svg>