<?xml version='1.0' encoding='utf-8'?>
<svg xmlns="http://www.w3.org/2000/svg" version="1.1" viewBox="0 0 1024 1024"><g transform="scale(1, -1) translate(0, -900)"><path d="M 587 241 Q 653 257 709 263 Q 730 264 733 258 Q 742 246 737 215 Q 728 127 708 88 Q 690 55 661 61 Q 639 65 618 70 Q 594 76 613 54 Q 653 18 672 -10 Q 688 -29 704 -14 Q 764 23 793 195 Q 800 237 815 258 Q 828 271 822 281 Q 813 294 761 318 Q 740 327 720 314 Q 696 301 606 283 Q 515 262 439 259 Q 420 259 417 250 Q 414 241 440 228 Q 465 210 487 218 Q 511 225 537 230 L 587 241 Z" fill="black" /></g></svg>