<?xml version='1.0' encoding='utf-8'?>
<svg xmlns="http://www.w3.org/2000/svg" version="1.1" viewBox="0 0 1024 1024"><g transform="scale(1, -1) translate(0, -900)"><path d="M 622 623 Q 674 636 728 645 Q 758 649 760 637 Q 760 625 736 578 Q 729 565 735 561 Q 741 557 753 568 Q 819 614 845 623 Q 866 627 864 639 Q 863 649 798 683 Q 779 692 754 686 Q 691 668 637 654 L 616 648 Q 609 649 606 647 Q 528 632 419 615 Q 395 612 414 592 Q 429 574 470 587 Q 518 600 568 611 L 622 623 Z" fill="black" /></g></svg>