<?xml version='1.0' encoding='utf-8'?>
<svg xmlns="http://www.w3.org/2000/svg" version="1.1" viewBox="0 0 1024 1024"><g transform="scale(1, -1) translate(0, -900)"><path d="M 133 476 Q 87 460 61 458 Q 48 458 46 451 Q 42 442 53 436 Q 75 423 89 421 Q 108 418 202 468 Q 226 481 234 474 Q 243 468 238 444 Q 238 282 201 166 Q 186 133 226 89 Q 236 77 245 84 Q 252 90 263 113 Q 300 161 377 244 Q 389 254 386 262 Q 385 269 374 261 Q 335 236 298 206 Q 258 172 264 222 Q 264 285 289 437 Q 292 459 313 481 Q 325 491 315 503 Q 305 518 269 534 Q 259 540 242 529 Q 173 490 133 476 Z" fill="black" /></g></svg>