<?xml version='1.0' encoding='utf-8'?>
<svg xmlns="http://www.w3.org/2000/svg" version="1.1" viewBox="0 0 1024 1024"><g transform="scale(1, -1) translate(0, -900)"><path d="M 448 365 Q 455 364 467 367 Q 738 436 763 412 Q 770 408 774 369 Q 783 239 775 93 Q 774 71 766 65 Q 756 55 695 55 Q 679 56 682 48 Q 683 41 696 37 Q 753 6 784 -20 Q 803 -36 815 -34 Q 825 -30 835 -4 Q 847 36 843 97 Q 822 359 840 394 Q 850 413 841 425 Q 831 438 788 460 Q 770 469 701 449 Q 584 421 440 403 C 410 399 418 361 448 365 Z" fill="black" /></g></svg>