<?xml version='1.0' encoding='utf-8'?>
<svg xmlns="http://www.w3.org/2000/svg" version="1.1" viewBox="0 0 1024 1024"><g transform="scale(1, -1) translate(0, -900)"><path d="M 126 434 Q 83 419 58 416 Q 45 416 43 410 Q 39 403 49 395 Q 80 379 119 390 Q 197 436 208 427 Q 217 423 212 399 Q 212 248 179 144 Q 164 114 203 71 Q 212 61 221 66 Q 228 73 238 94 Q 266 134 326 205 Q 336 215 334 222 Q 333 229 323 221 Q 296 203 269 183 Q 232 152 239 198 Q 238 253 260 392 Q 263 414 283 434 Q 293 444 285 455 Q 275 468 241 484 Q 231 490 215 480 Q 158 446 126 434 Z" fill="black" /></g></svg>