<?xml version='1.0' encoding='utf-8'?>
<svg xmlns="http://www.w3.org/2000/svg" version="1.1" viewBox="0 0 1024 1024"><g transform="scale(1, -1) translate(0, -900)"><path d="M 742 149 Q 787 59 840 6 Q 895 -43 923 -44 Q 942 -40 937 -13 Q 931 36 932 176 Q 931 198 922 198 Q 919 198 890 108 Q 878 65 853 81 Q 844 87 834 97 Q 798 140 770 195 L 747 248 Q 711 350 696 505 L 692 545 Q 683 677 702 754 Q 715 790 668 813 Q 638 829 619 824 Q 601 820 608 801 Q 647 761 644 731 Q 648 622 655 534 L 658 498 Q 673 327 722 199 L 742 149 Z" fill="black" /></g></svg>