<?xml version='1.0' encoding='utf-8'?>
<svg xmlns="http://www.w3.org/2000/svg" version="1.1" viewBox="0 0 1024 1024"><g transform="scale(1, -1) translate(0, -900)"><path d="M 612 75 Q 613 84 613 92 Q 594 414 609 451 Q 618 467 610 476 Q 601 488 565 505 Q 549 512 535 507 Q 513 500 470 485 L 434 475 Q 394 466 353 458 C 324 452 350 419 378 428 Q 529 479 545 466 Q 555 460 558 416 Q 568 268 561 99 Q 560 74 551 68 Q 542 61 497 68 Q 484 71 485 63 Q 486 59 496 53 Q 536 22 559 -3 Q 575 -18 584 -16 Q 594 -15 602 8 Q 608 26 610 48 L 612 75 Z" fill="black" /></g></svg>