<?xml version='1.0' encoding='utf-8'?>
<svg xmlns="http://www.w3.org/2000/svg" version="1.1" viewBox="0 0 1024 1024"><g transform="scale(1, -1) translate(0, -900)"><path d="M 329 353 Q 330 381 332 409 L 334 450 Q 335 474 337 496 L 341 544 Q 342 569 347 583 Q 354 599 344 608 Q 331 620 309 631 Q 291 638 272 631 Q 262 624 274 611 Q 293 566 294 529 L 296 487 Q 296 465 296 439 L 296 401 Q 295 371 293 344 L 291 304 Q 291 279 298 258 Q 302 248 311 254 Q 323 266 327 313 L 329 353 Z" fill="black" /></g></svg>