<?xml version='1.0' encoding='utf-8'?>
<svg xmlns="http://www.w3.org/2000/svg" version="1.1" viewBox="0 0 1024 1024"><g transform="scale(1, -1) translate(0, -900)"><path d="M 699 194 Q 738 252 764 341 Q 773 375 793 394 Q 809 409 791 425 Q 770 441 736 455 Q 709 464 670 441 L 627 424 Q 593 415 555 408 Q 527 405 516 398 Q 507 391 526 381 Q 553 368 593 382 Q 639 392 685 405 Q 704 412 705 389 Q 705 317 661 233 L 637 196 Q 622 178 606 160 Q 548 106 397 62 Q 381 58 391 50 Q 398 44 428 48 Q 593 66 669 153 L 699 194 Z" fill="black" /></g></svg>