<?xml version='1.0' encoding='utf-8'?>
<svg xmlns="http://www.w3.org/2000/svg" version="1.1" viewBox="0 0 1024 1024"><g transform="scale(1, -1) translate(0, -900)"><path d="M 549 722 Q 500 715 447 705 L 396 695 Q 335 686 285 678 C 255 673 270 637 300 642 Q 304 642 310 643 Q 349 653 401 664 L 447 673 Q 492 683 547 690 L 595 697 Q 667 715 694 693 Q 707 683 704 664 Q 680 523 662 511 C 648 488 648 488 654 480 Q 672 453 688 445 Q 700 436 716 459 Q 731 481 762 609 Q 772 643 797 670 Q 812 683 799 698 Q 783 717 736 745 Q 714 755 698 750 Q 658 740 600 729 L 549 722 Z" fill="black" /></g></svg>