<?xml version='1.0' encoding='utf-8'?>
<svg xmlns="http://www.w3.org/2000/svg" version="1.1" viewBox="0 0 1024 1024"><g transform="scale(1, -1) translate(0, -900)"><path d="M 981 97 Q 968 128 952 222 Q 952 238 945 242 Q 939 245 935 228 Q 911 128 893 98 Q 868 67 779 72 Q 745 73 719 86 Q 695 98 689 113 Q 658 179 696 395 C 701 423 701 423 687 433 Q 677 443 660 450 Q 648 454 640 450 Q 634 447 639 431 Q 649 395 646 361 Q 630 154 646 96 Q 650 74 669 56 Q 744 -5 893 22 Q 897 25 904 25 Q 940 34 974 58 Q 993 73 981 97 Z" fill="black" /></g></svg>