<?xml version='1.0' encoding='utf-8'?>
<svg xmlns="http://www.w3.org/2000/svg" version="1.1" viewBox="0 0 1024 1024"><g transform="scale(1, -1) translate(0, -900)"><path d="M 409 482 Q 413 519 421 552 L 426 584 Q 427 603 432 622 L 437 652 Q 443 691 444 692 L 454 730 Q 458 743 462 752 Q 466 759 453 770 Q 431 786 414 790 Q 404 794 398 789 Q 392 785 397 773 Q 407 752 408 715 L 406 687 Q 403 665 401 640 L 398 615 Q 395 594 392 572 L 389 545 Q 385 514 380 478 C 376 448 406 452 409 482 Z" fill="black" /></g></svg>