<?xml version='1.0' encoding='utf-8'?>
<svg xmlns="http://www.w3.org/2000/svg" version="1.1" viewBox="0 0 1024 1024"><g transform="scale(1, -1) translate(0, -900)"><path d="M 384 478 Q 383 511 382 540 L 380 579 Q 379 600 379 620 L 377 659 Q 376 681 376 704 L 377 747 Q 377 753 378 758 Q 381 774 383 787 Q 384 796 367 807 Q 337 819 318 821 Q 305 822 299 815 Q 293 808 301 796 Q 319 775 327 729 L 332 692 Q 333 670 337 645 L 341 611 Q 342 589 344 566 L 347 532 Q 348 504 350 472 C 352 442 385 448 384 478 Z" fill="black" /></g></svg>