<?xml version='1.0' encoding='utf-8'?>
<svg xmlns="http://www.w3.org/2000/svg" version="1.1" viewBox="0 0 1024 1024"><g transform="scale(1, -1) translate(0, -900)"><path d="M 524 450 Q 490 529 381 578 C 354 591 330 573 356 558 Q 375 548 392 535 L 450 484 Q 474 457 482 437 L 505 364 Q 526 268 492 125 Q 476 62 457 54 Q 442 48 367 73 Q 325 86 324 80 Q 323 73 334 59 Q 407 -2 437 -42 Q 452 -64 469 -60 Q 497 -50 521 -11 Q 564 76 571 245 Q 568 312 554 372 L 536 430 L 524 450 Z" fill="black" /></g></svg>