<?xml version='1.0' encoding='utf-8'?>
<svg xmlns="http://www.w3.org/2000/svg" version="1.1" viewBox="0 0 1024 1024"><g transform="scale(1, -1) translate(0, -900)"><path d="M 521 460 Q 508 500 432 548 Q 396 572 374 578 C 346 589 324 575 351 561 Q 373 551 389 538 L 441 498 Q 460 480 476 457 L 505 398 Q 538 293 509 144 Q 497 86 480 78 Q 465 71 406 79 Q 355 88 356 80 Q 355 73 368 62 Q 441 19 474 -13 Q 487 -29 501 -24 Q 525 -17 545 20 Q 581 104 577 258 Q 574 327 550 398 L 521 460 Z" fill="black" /></g></svg>