<?xml version='1.0' encoding='utf-8'?>
<svg xmlns="http://www.w3.org/2000/svg" version="1.1" viewBox="0 0 1024 1024"><g transform="scale(1, -1) translate(0, -900)"><path d="M 626 449 Q 592 495 543 527 Q 515 545 499 550 C 472 562 455 552 478 533 Q 479 530 518 503 L 561 465 Q 574 452 586 434 L 617 371 Q 644 278 606 145 Q 591 96 576 90 Q 564 83 508 90 Q 478 96 476 88 Q 475 81 488 67 Q 539 21 559 -9 Q 572 -28 588 -23 Q 610 -17 633 15 Q 690 117 682 278 Q 679 314 670 350 L 638 431 L 626 449 Z" fill="black" /></g></svg>