<?xml version='1.0' encoding='utf-8'?>
<svg xmlns="http://www.w3.org/2000/svg" version="1.1" viewBox="0 0 1024 1024"><g transform="scale(1, -1) translate(0, -900)"><path d="M 556 316 Q 523 374 470 415 Q 443 437 428 442 C 401 456 388 439 412 420 Q 413 419 417 416 Q 430 406 444 394 L 486 350 Q 495 338 504 324 L 532 267 Q 553 194 520 87 Q 508 51 497 47 Q 484 41 410 58 Q 370 67 368 60 Q 367 53 379 40 Q 451 -12 481 -48 Q 494 -64 507 -61 Q 526 -58 544 -33 Q 593 49 590 187 Q 580 250 578 256 L 556 316 Z" fill="black" /></g></svg>