<?xml version='1.0' encoding='utf-8'?>
<svg xmlns="http://www.w3.org/2000/svg" version="1.1" viewBox="0 0 1024 1024"><g transform="scale(1, -1) translate(0, -900)"><path d="M 197 673 Q 196 674 199 674 Q 227 681 255 689 Q 274 692 279 681 Q 303 615 294 247 Q 285 142 281 135 Q 277 129 257 133 Q 232 137 207 143 Q 188 149 189 139 Q 243 96 274 62 Q 287 43 301 39 Q 310 36 318 45 Q 355 88 354 144 Q 329 567 344 642 Q 347 660 354 671 Q 366 690 354 699 Q 333 718 299 732 Q 281 739 266 732 Q 239 717 222 712 Q 209 708 187 703 C 158 696 168 665 197 673 Z" fill="black" /></g></svg>