<?xml version='1.0' encoding='utf-8'?>
<svg xmlns="http://www.w3.org/2000/svg" version="1.1" viewBox="0 0 1024 1024"><g transform="scale(1, -1) translate(0, -900)"><path d="M 441 538 Q 462 581 478 628 L 493 671 Q 521 759 545 792 Q 558 810 542 822 Q 496 868 468 862 Q 452 859 457 842 Q 473 788 435 660 L 420 618 Q 404 581 378 529 L 353 491 Q 266 371 127 309 Q 108 299 90 289 Q 75 282 88 276 Q 161 270 274 346 Q 341 388 378 440 Q 394 464 411 487 Q 415 494 420 502 L 441 538 Z" fill="black" /></g></svg>