<?xml version='1.0' encoding='utf-8'?>
<svg xmlns="http://www.w3.org/2000/svg" version="1.1" viewBox="0 0 1024 1024"><g transform="scale(1, -1) translate(0, -900)"><path d="M 631 494 L 632 492 Q 636 476 648 476 Q 661 477 669 490 Q 676 494 694 517 Q 713 566 751 592 Q 770 605 755 622 Q 739 640 693 668 Q 678 678 599 663 Q 578 663 518 653 L 482 648 Q 430 642 383 633 Q 311 620 261 614 C 231 610 257 572 286 581 Q 346 600 450 615 L 492 620 Q 639 641 662 629 Q 668 625 663 607 Q 645 538 636 523 C 627 501 627 501 631 494 Z" fill="black" /></g></svg>