<?xml version='1.0' encoding='utf-8'?>
<svg xmlns="http://www.w3.org/2000/svg" version="1.1" viewBox="0 0 1024 1024"><g transform="scale(1, -1) translate(0, -900)"><path d="M 478 532 Q 475 484 495 468 Q 553 432 661 457 Q 686 464 711 480 Q 724 492 713 509 Q 703 522 687 564 Q 686 574 680 577 Q 676 580 674 567 Q 659 518 649 503 Q 630 485 573 487 Q 552 487 536 492 Q 523 498 520 506 Q 513 524 518 542 L 525 581 Q 526 585 527 588 Q 531 603 522 611 Q 512 623 493 630 Q 483 634 475 630 Q 471 627 473 612 Q 480 590 480 567 L 478 532 Z" fill="black" /></g></svg>