<?xml version='1.0' encoding='utf-8'?>
<svg xmlns="http://www.w3.org/2000/svg" version="1.1" viewBox="0 0 1024 1024"><g transform="scale(1, -1) translate(0, -900)"><path d="M 835 118 Q 865 238 900 273 Q 919 295 893 312 Q 868 331 842 345 Q 826 357 804 347 Q 779 337 742 330 Q 675 320 597 304 Q 551 295 518 290 C 488 285 500 254 530 258 Q 539 258 551 261 Q 567 265 584 269 L 608 275 Q 632 284 695 290 L 727 294 Q 758 300 796 303 Q 806 304 811 298 Q 827 271 778 109 C 769 80 827 89 835 118 Z" fill="black" /></g></svg>