<?xml version='1.0' encoding='utf-8'?>
<svg xmlns="http://www.w3.org/2000/svg" version="1.1" viewBox="0 0 1024 1024"><g transform="scale(1, -1) translate(0, -900)"><path d="M 402 410 Q 398 423 392 433 L 382 447 Q 349 492 313 499 C 284 507 273 501 298 484 Q 307 478 317 471 L 343 446 Q 350 437 358 424 L 374 365 L 375 363 Q 378 330 371 290 Q 367 265 359 263 Q 328 260 296 256 Q 295 250 305 240 Q 336 207 348 187 Q 360 171 374 175 Q 387 179 399 199 Q 412 227 417 272 Q 423 335 414 372 Q 413 378 411 383 L 402 410 Z" fill="black" /></g></svg>