<?xml version='1.0' encoding='utf-8'?>
<svg xmlns="http://www.w3.org/2000/svg" version="1.1" viewBox="0 0 1024 1024"><g transform="scale(1, -1) translate(0, -900)"><path d="M 717 555 Q 717 675 733 732 Q 749 763 692 785 Q 656 804 637 796 Q 618 789 636 766 Q 658 738 661 703 Q 662 687 665 542 L 668 391 Q 669 277 672 117 Q 672 95 659 85 Q 652 79 587 82 Q 551 91 555 80 Q 558 73 580 60 Q 644 17 661 -10 Q 682 -41 697 -41 Q 712 -41 725 -5 Q 741 43 734 118 Q 718 311 717 504 L 717 555 Z" fill="black" /></g></svg>