<?xml version='1.0' encoding='utf-8'?>
<svg xmlns="http://www.w3.org/2000/svg" version="1.1" viewBox="0 0 1024 1024"><g transform="scale(1, -1) translate(0, -900)"><path d="M 718 77 Q 702 74 621 102 Q 611 106 611 100 Q 610 96 622 86 Q 671 37 692 2 Q 704 -20 718 -18 Q 739 -19 758 0 Q 830 58 850 201 Q 866 298 876 449 Q 877 483 898 509 Q 913 524 911 532 Q 910 541 889 555 Q 861 577 821 588 Q 797 597 736 575 Q 727 574 716 569 Q 695 565 569 534 C 540 527 524 520 554 515 Q 588 500 736 526 Q 791 536 799 527 Q 820 481 797 261 Q 776 156 753 112 Q 737 79 718 77 Z" fill="black" /></g></svg>