<?xml version='1.0' encoding='utf-8'?>
<svg xmlns="http://www.w3.org/2000/svg" version="1.1" viewBox="0 0 1024 1024"><g transform="scale(1, -1) translate(0, -900)"><path d="M 647 664 Q 720 682 780 687 Q 799 688 803 682 Q 812 669 804 632 Q 789 530 763 487 Q 744 454 715 460 Q 696 464 679 469 Q 654 476 672 453 Q 706 414 721 385 Q 739 363 757 379 Q 814 415 845 530 Q 870 659 889 679 Q 902 692 896 702 Q 887 715 836 740 Q 815 750 795 737 Q 773 725 690 709 Q 606 693 535 690 Q 517 690 514 681 Q 513 674 536 660 Q 560 644 581 650 Q 594 654 610 656 L 647 664 Z" fill="black" /></g></svg>