<?xml version='1.0' encoding='utf-8'?>
<svg xmlns="http://www.w3.org/2000/svg" version="1.1" viewBox="0 0 1024 1024"><g transform="scale(1, -1) translate(0, -900)"><path d="M 606 455 Q 513 341 385 230 Q 381 229 380 225 C 369 215 369 215 380 218 Q 381 218 386 217 Q 393 218 430 238 L 455 252 Q 536 301 640 421 L 666 455 Q 708 510 751 573 Q 770 601 805 630 Q 820 642 815 651 Q 812 661 750 684 Q 731 694 712 680 Q 676 662 582 645 C 553 639 532 617 562 615 Q 584 609 671 627 Q 692 633 700 624 Q 704 615 689 592 Q 664 540 627 486 L 606 455 Z" fill="black" /></g></svg>