<?xml version='1.0' encoding='utf-8'?>
<svg xmlns="http://www.w3.org/2000/svg" version="1.1" viewBox="0 0 1024 1024"><g transform="scale(1, -1) translate(0, -900)"><path d="M 572 764 Q 556 777 543 779 Q 531 780 526 777 Q 517 770 528 758 Q 561 700 549 459 Q 542 389 528 368 Q 515 349 523 329 Q 533 301 549 289 Q 559 282 570 299 Q 592 330 672 407 Q 688 420 690 426 Q 691 439 673 429 Q 597 395 592 396 Q 580 405 584 557 L 584 578 Q 584 614 585 642 L 586 667 Q 587 707 592 726 Q 593 733 592 739 C 593 750 593 750 572 764 Z" fill="black" /></g></svg>