<?xml version='1.0' encoding='utf-8'?>
<svg xmlns="http://www.w3.org/2000/svg" version="1.1" viewBox="0 0 1024 1024"><g transform="scale(1, -1) translate(0, -900)"><path d="M 722 391 Q 735 372 749 366 Q 759 359 773 378 Q 788 406 816 552 Q 823 580 844 603 Q 856 615 845 627 Q 832 643 792 666 Q 774 673 699 653 Q 693 653 580 628 Q 561 625 547 620 L 526 616 Q 513 615 501 611 C 472 604 488 569 516 580 Q 516 581 518 582 Q 591 604 719 627 Q 747 633 757 623 Q 770 607 768 591 Q 744 449 730 426 C 718 398 718 396 722 391 Z" fill="black" /></g></svg>