<?xml version='1.0' encoding='utf-8'?>
<svg xmlns="http://www.w3.org/2000/svg" version="1.1" viewBox="0 0 1024 1024"><g transform="scale(1, -1) translate(0, -900)"><path d="M 505 240 Q 506 256 509 264 Q 513 280 502 290 Q 480 312 464 315 Q 454 316 449 313 Q 440 307 449 296 Q 465 265 464 238 Q 465 147 458 115 Q 454 90 443 76 Q 431 58 438 39 Q 447 11 462 1 Q 471 -6 482 10 Q 512 47 613 136 Q 629 149 630 155 Q 631 165 614 157 Q 574 135 528 110 Q 512 100 504 103 Q 497 107 498 124 Q 499 179 503 213 L 505 240 Z" fill="black" /></g></svg>