<?xml version='1.0' encoding='utf-8'?>
<svg xmlns="http://www.w3.org/2000/svg" version="1.1" viewBox="0 0 1024 1024"><g transform="scale(1, -1) translate(0, -900)"><path d="M 756 401 Q 775 373 793 365 Q 803 356 820 379 Q 836 407 868 557 Q 877 590 902 616 Q 915 629 903 644 Q 887 662 842 689 Q 821 699 741 679 Q 729 679 603 655 Q 554 645 511 637 C 482 631 495 594 524 603 Q 523 604 526 604 Q 560 614 611 624 L 660 633 Q 783 654 799 642 Q 815 630 811 608 Q 784 443 765 430 C 751 407 751 407 756 401 Z" fill="black" /></g></svg>