<?xml version='1.0' encoding='utf-8'?>
<svg xmlns="http://www.w3.org/2000/svg" version="1.1" viewBox="0 0 1024 1024"><g transform="scale(1, -1) translate(0, -900)"><path d="M 683 372 Q 699 347 716 337 Q 726 328 743 350 Q 758 374 791 501 Q 800 532 824 557 Q 837 570 826 584 Q 810 602 767 628 Q 752 637 678 618 Q 675 618 557 591 Q 554 591 552 589 L 526 583 Q 502 579 482 573 C 453 565 465 531 494 540 Q 561 562 693 587 Q 720 591 729 583 Q 741 568 738 553 Q 711 420 696 403 C 682 376 681 375 683 372 Z" fill="black" /></g></svg>