<?xml version='1.0' encoding='utf-8'?>
<svg xmlns="http://www.w3.org/2000/svg" version="1.1" viewBox="0 0 1024 1024"><g transform="scale(1, -1) translate(0, -900)"><path d="M 680 138 Q 680 195 681 246 L 681 293 Q 681 344 683 390 L 683 427 Q 684 469 685 508 L 686 551 Q 687 570 688 583 Q 695 602 685 613 Q 672 625 660 633 C 636 651 596 650 611 624 Q 618 611 625 600 Q 632 576 633 534 L 634 498 Q 634 468 634 416 L 634 383 Q 634 340 634 281 L 634 237 Q 634 189 634 132 C 634 102 680 108 680 138 Z" fill="black" /></g></svg>