<?xml version='1.0' encoding='utf-8'?>
<svg xmlns="http://www.w3.org/2000/svg" version="1.1" viewBox="0 0 1024 1024"><g transform="scale(1, -1) translate(0, -900)"><path d="M 640 286 Q 671 246 693 207 Q 703 186 716 187 Q 735 188 753 226 Q 775 271 771 324 Q 764 447 759 672 Q 758 709 777 735 Q 787 750 777 762 Q 755 784 694 813 Q 673 823 655 813 Q 553 771 363 751 C 333 748 350 708 380 712 Q 401 713 626 754 Q 662 760 679 746 Q 709 722 696 431 Q 695 352 688 328 Q 684 315 674 313 C 657 288 632 297 640 286 Z" fill="black" /></g></svg>