<?xml version='1.0' encoding='utf-8'?>
<svg xmlns="http://www.w3.org/2000/svg" version="1.1" viewBox="0 0 1024 1024"><g transform="scale(1, -1) translate(0, -900)"><path d="M 384 488 Q 375 497 355 505 Q 346 509 335 506 Q 329 502 334 490 Q 335 483 338 477 Q 356 438 344 273 Q 329 180 342 160 Q 346 150 355 141 Q 364 129 374 140 Q 381 150 384 160 L 388 197 Q 388 206 389 261 L 390 289 Q 391 332 393 363 L 394 386 Q 395 441 397 448 Q 398 454 398 458 C 400 476 400 476 384 488 Z" fill="black" /></g></svg>