<?xml version='1.0' encoding='utf-8'?>
<svg xmlns="http://www.w3.org/2000/svg" version="1.1" viewBox="0 0 1024 1024"><g transform="scale(1, -1) translate(0, -900)"><path d="M 369 561 Q 359 571 337 581 Q 327 585 316 582 Q 309 578 314 565 Q 315 558 319 550 Q 340 504 319 307 Q 294 220 330 174 Q 340 161 351 172 Q 358 184 362 197 L 366 230 Q 367 246 369 268 Q 369 290 370 310 L 371 336 Q 372 388 376 425 L 378 454 Q 379 512 382 518 Q 383 525 383 530 C 385 548 385 548 369 561 Z" fill="black" /></g></svg>