<?xml version='1.0' encoding='utf-8'?>
<svg xmlns="http://www.w3.org/2000/svg" version="1.1" viewBox="0 0 1024 1024"><g transform="scale(1, -1) translate(0, -900)"><path d="M 304 299 Q 316 280 329 261 Q 345 237 353 240 Q 363 241 376 271 Q 382 289 383 367 Q 368 637 390 673 Q 400 692 393 703 Q 386 713 334 730 Q 309 740 291 729 Q 225 702 173 692 C 144 686 153 658 182 664 Q 216 670 267 683 Q 301 692 312 681 Q 324 671 324 627 Q 331 447 325 349 Q 326 337 323 331 C 320 301 291 320 304 299 Z" fill="black" /></g></svg>