<?xml version='1.0' encoding='utf-8'?>
<svg xmlns="http://www.w3.org/2000/svg" version="1.1" viewBox="0 0 1024 1024"><g transform="scale(1, -1) translate(0, -900)"><path d="M 453 654 Q 514 673 564 682 Q 580 685 583 680 Q 589 673 587 654 Q 586 602 576 577 Q 560 549 534 554 Q 515 558 498 565 Q 476 572 491 550 Q 525 513 540 484 Q 552 469 564 479 Q 612 507 641 632 Q 648 663 661 678 Q 671 690 666 700 Q 659 710 611 731 Q 592 738 574 726 Q 556 716 485 697 Q 415 676 353 671 Q 337 670 335 661 Q 334 654 356 644 Q 378 631 396 638 Q 409 642 425 647 L 453 654 Z" fill="black" /></g></svg>