<?xml version='1.0' encoding='utf-8'?>
<svg xmlns="http://www.w3.org/2000/svg" version="1.1" viewBox="0 0 1024 1024"><g transform="scale(1, -1) translate(0, -900)"><path d="M 618 721 Q 624 776 636 803 Q 646 828 630 843 Q 587 877 574 873 Q 561 869 567 853 Q 583 822 579 773 Q 573 623 594 594 Q 621 558 684 546 Q 730 537 810 544 Q 877 551 903 567 Q 928 580 918 607 Q 905 638 893 692 Q 892 705 885 710 Q 878 714 875 697 Q 859 633 848 622 Q 835 600 728 595 Q 671 594 648 602 Q 627 611 623 622 Q 616 646 616 702 L 618 721 Z" fill="black" /></g></svg>