<?xml version='1.0' encoding='utf-8'?>
<svg xmlns="http://www.w3.org/2000/svg" version="1.1" viewBox="0 0 1024 1024"><g transform="scale(1, -1) translate(0, -900)"><path d="M 522 447 Q 561 478 602 511 Q 641 544 669 552 Q 688 559 682 573 Q 678 588 618 621 Q 600 630 580 622 Q 523 600 436 575 Q 414 568 358 568 Q 336 568 345 550 Q 352 538 369 528 Q 397 513 428 532 Q 449 539 558 580 Q 570 584 580 579 Q 590 572 586 561 Q 552 512 510 453 Q 504 446 510 444 C 509 436 509 436 522 447 Z" fill="black" /></g></svg>