<?xml version='1.0' encoding='utf-8'?>
<svg xmlns="http://www.w3.org/2000/svg" version="1.1" viewBox="0 0 1024 1024"><g transform="scale(1, -1) translate(0, -900)"><path d="M 334 357 Q 335 347 343 335 Q 356 305 366 306 Q 381 307 397 340 Q 413 365 411 387 Q 399 489 404 646 Q 404 692 430 730 Q 440 746 433 755 Q 405 779 359 799 Q 344 805 278 778 Q 209 762 184 756 C 155 749 170 726 200 728 Q 209 727 218 729 Q 329 760 337 750 Q 355 726 353 648 Q 352 423 338 381 Q 337 381 337 380 C 332 362 332 362 334 357 Z" fill="black" /></g></svg>