<?xml version='1.0' encoding='utf-8'?>
<svg xmlns="http://www.w3.org/2000/svg" version="1.1" viewBox="0 0 1024 1024"><g transform="scale(1, -1) translate(0, -900)"><path d="M 452 183 Q 491 117 496 116 Q 506 116 514 137 Q 527 177 523 279 Q 519 375 525 397 Q 532 416 522 424 Q 515 434 482 449 Q 466 456 433 443 Q 399 430 361 419 Q 330 410 290 402 C 261 396 270 368 299 375 Q 306 376 318 380 Q 367 399 435 411 Q 454 415 462 407 Q 471 398 468 273 Q 469 227 464 219 Q 460 210 448 212 C 437 209 437 209 452 183 Z" fill="black" /></g></svg>