<?xml version='1.0' encoding='utf-8'?>
<svg xmlns="http://www.w3.org/2000/svg" version="1.1" viewBox="0 0 1024 1024"><g transform="scale(1, -1) translate(0, -900)"><path d="M 628 157 Q 629 154 632 150 Q 645 122 654 122 Q 667 123 684 154 Q 699 179 694 227 Q 682 374 712 420 Q 722 436 715 446 Q 687 471 639 492 Q 623 498 600 489 Q 518 455 376 441 C 346 438 356 401 385 409 Q 433 425 585 448 Q 613 454 622 439 Q 634 423 634 371 Q 635 221 627 193 Q 626 192 625 189 C 621 171 621 171 628 157 Z" fill="black" /></g></svg>