<?xml version='1.0' encoding='utf-8'?>
<svg xmlns="http://www.w3.org/2000/svg" version="1.1" viewBox="0 0 1024 1024"><g transform="scale(1, -1) translate(0, -900)"><path d="M 715 708 Q 721 751 750 781 Q 763 793 751 807 Q 736 823 694 849 Q 676 858 611 839 Q 569 835 386 789 C 357 782 356 751 386 756 Q 393 756 402 758 Q 438 770 488 780 L 530 790 Q 641 814 659 803 Q 675 790 670 766 Q 663 730 656 700 L 648 662 Q 632 596 620 583 C 606 557 606 557 613 548 Q 626 529 641 521 Q 651 514 666 534 Q 679 558 705 664 L 715 708 Z" fill="black" /></g></svg>