<?xml version='1.0' encoding='utf-8'?>
<svg xmlns="http://www.w3.org/2000/svg" version="1.1" viewBox="0 0 1024 1024"><g transform="scale(1, -1) translate(0, -900)"><path d="M 763 696 Q 785 727 804 737 Q 826 758 800 776 Q 776 797 752 813 Q 737 825 674 803 Q 640 797 617 790 L 558 779 Q 506 770 453 756 L 399 745 Q 347 735 310 732 Q 297 732 295 724 Q 294 717 315 706 Q 334 693 364 702 Q 385 709 403 714 L 454 727 Q 496 737 559 747 L 613 756 Q 653 763 702 769 Q 718 770 723 763 Q 726 756 700 690 C 689 662 745 672 763 696 Z" fill="black" /></g></svg>