<?xml version='1.0' encoding='utf-8'?>
<svg xmlns="http://www.w3.org/2000/svg" version="1.1" viewBox="0 0 1024 1024"><g transform="scale(1, -1) translate(0, -900)"><path d="M 702 680 Q 736 725 752 733 Q 774 754 748 773 Q 724 792 700 809 Q 687 819 620 799 Q 617 799 544 785 L 482 773 Q 458 770 435 764 Q 389 755 352 750 C 322 746 346 712 375 721 Q 375 722 377 722 Q 441 741 478 746 Q 479 747 484 746 L 541 756 Q 589 765 652 772 Q 665 773 669 767 Q 675 755 646 693 C 634 666 684 656 702 680 Z" fill="black" /></g></svg>