<?xml version='1.0' encoding='utf-8'?>
<svg xmlns="http://www.w3.org/2000/svg" version="1.1" viewBox="0 0 1024 1024"><g transform="scale(1, -1) translate(0, -900)"><path d="M 595 531 Q 806 561 837 554 Q 850 551 853 540 Q 857 527 841 496 Q 834 486 826 479 Q 820 466 806 470 Q 788 474 765 481 Q 740 496 753 466 Q 778 415 781 394 Q 785 378 800 377 Q 813 374 832 384 Q 844 391 874 427 Q 904 488 930 510 Q 951 528 939 542 Q 917 570 883 596 Q 870 609 849 604 Q 789 588 667 570 Q 630 566 597 559 L 554 552 Q 484 542 428 530 L 386 522 Q 278 503 271 502 Q 264 503 266 519 Q 273 570 285 580 C 293 598 293 598 275 611 Q 260 624 238 636 Q 225 643 216 636 Q 207 629 217 612 Q 229 585 220 548 Q 205 508 193 494 Q 183 478 192 460 Q 202 435 216 427 Q 226 421 250 439 Q 284 469 376 492 L 417 502 Q 469 514 552 525 L 595 531 Z" fill="black" /></g></svg>