<?xml version='1.0' encoding='utf-8'?>
<svg xmlns="http://www.w3.org/2000/svg" version="1.1" viewBox="0 0 1024 1024"><g transform="scale(1, -1) translate(0, -900)"><path d="M 709 653 Q 709 650 711 646 Q 715 628 728 628 Q 749 631 785 688 Q 807 742 848 770 Q 870 785 854 803 Q 836 822 785 855 Q 772 865 696 852 Q 486 827 424 815 Q 297 794 257 798 C 227 799 275 749 304 757 Q 341 769 399 779 L 422 783 Q 482 795 564 804 L 601 809 Q 731 824 751 812 Q 758 808 751 784 Q 726 699 716 682 Q 710 672 709 662 L 709 653 Z" fill="black" /></g></svg>