<?xml version='1.0' encoding='utf-8'?>
<svg xmlns="http://www.w3.org/2000/svg" version="1.1" viewBox="0 0 1024 1024"><g transform="scale(1, -1) translate(0, -900)"><path d="M 647 146 Q 648 136 657 123 Q 672 92 682 94 Q 697 95 713 131 Q 729 159 727 180 Q 700 369 733 426 Q 743 442 736 452 Q 708 476 660 496 Q 644 502 621 493 Q 525 454 380 440 C 350 437 366 404 395 411 Q 395 412 398 412 Q 513 440 597 454 Q 625 461 636 445 Q 649 429 651 369 Q 658 203 649 171 Q 648 170 648 167 L 647 146 Z" fill="black" /></g></svg>