<?xml version='1.0' encoding='utf-8'?>
<svg xmlns="http://www.w3.org/2000/svg" version="1.1" viewBox="0 0 1024 1024"><g transform="scale(1, -1) translate(0, -900)"><path d="M 552 525 Q 552 488 559 464 Q 565 452 574 458 Q 586 468 595 531 L 597 559 Q 600 599 604 637 L 606 669 Q 609 703 612 736 Q 612 746 613 756 L 617 790 Q 620 815 624 828 Q 633 847 621 859 Q 606 872 578 887 Q 557 896 534 887 Q 522 880 536 864 Q 546 842 558 779 L 559 747 Q 560 707 559 659 L 559 631 L 559 630 Q 558 588 554 552 L 552 525 Z" fill="black" /></g></svg>