<?xml version='1.0' encoding='utf-8'?>
<svg xmlns="http://www.w3.org/2000/svg" version="1.1" viewBox="0 0 1024 1024"><g transform="scale(1, -1) translate(0, -900)"><path d="M 647 167 Q 648 157 657 143 Q 672 112 682 114 Q 697 115 713 151 Q 729 179 726 201 Q 713 279 712 401 Q 711 435 730 467 Q 740 483 732 493 Q 704 515 654 535 Q 638 539 616 531 Q 541 495 399 473 C 369 468 388 436 416 445 Q 485 469 597 491 Q 622 498 632 484 Q 648 466 649 403 Q 656 225 649 191 Q 648 190 647 187 L 647 167 Z" fill="black" /></g></svg>