<?xml version='1.0' encoding='utf-8'?>
<svg xmlns="http://www.w3.org/2000/svg" version="1.1" viewBox="0 0 1024 1024"><g transform="scale(1, -1) translate(0, -900)"><path d="M 814 522 Q 702 506 581 478 Q 568 474 564 477 Q 560 481 568 497 Q 707 714 738 751 Q 751 763 743 777 Q 736 790 680 815 Q 661 822 650 818 Q 635 811 643 788 Q 667 718 524 512 Q 500 487 463 459 Q 447 446 452 433 Q 459 414 488 391 Q 501 379 516 392 Q 568 435 831 494 Q 832 495 834 495 C 863 502 844 526 814 522 Z" fill="black" /></g></svg>