<?xml version='1.0' encoding='utf-8'?>
<svg xmlns="http://www.w3.org/2000/svg" version="1.1" viewBox="0 0 1024 1024"><g transform="scale(1, -1) translate(0, -900)"><path d="M 339 286 Q 352 267 365 246 Q 381 221 389 224 Q 399 225 413 256 Q 422 278 422 358 Q 404 631 430 681 Q 440 700 432 711 Q 425 721 373 737 Q 348 746 330 735 Q 257 702 194 689 C 165 682 182 656 211 664 Q 250 674 297 689 Q 337 702 352 689 Q 364 677 364 631 Q 368 438 362 333 Q 365 314 351 312 C 335 291 335 291 339 286 Z" fill="black" /></g></svg>