<?xml version='1.0' encoding='utf-8'?>
<svg xmlns="http://www.w3.org/2000/svg" version="1.1" viewBox="0 0 1024 1024"><g transform="scale(1, -1) translate(0, -900)"><path d="M 453 756 Q 453 819 452 820 L 451 821 Q 435 834 406 841 Q 387 848 377 842 Q 367 833 375 823 Q 384 814 399 745 L 403 714 Q 406 654 405 630 L 404 606 L 402 588 Q 396 554 386 522 L 376 492 Q 370 470 362 448 Q 358 442 358 436 Q 357 426 366 430 Q 379 436 417 502 L 428 530 Q 446 594 449 613 L 452 638 Q 455 684 454 727 L 453 756 Z" fill="black" /></g></svg>