<?xml version='1.0' encoding='utf-8'?>
<svg xmlns="http://www.w3.org/2000/svg" version="1.1" viewBox="0 0 1024 1024"><g transform="scale(1, -1) translate(0, -900)"><path d="M 341 283 Q 353 264 365 246 Q 381 221 389 224 Q 399 225 413 256 Q 422 278 422 358 Q 404 631 430 681 Q 440 700 432 711 Q 425 721 372 736 Q 347 745 330 734 Q 264 703 207 689 C 178 681 190 654 219 662 Q 223 663 230 665 Q 264 675 303 688 Q 339 700 352 689 Q 364 677 364 631 Q 368 438 362 333 Q 363 315 352 312 C 338 288 338 288 341 283 Z" fill="black" /></g></svg>