<?xml version='1.0' encoding='utf-8'?>
<svg xmlns="http://www.w3.org/2000/svg" version="1.1" viewBox="0 0 1024 1024"><g transform="scale(1, -1) translate(0, -900)"><path d="M 623 773 Q 707 792 773 797 Q 792 798 796 792 Q 802 782 795 757 Q 779 688 759 660 Q 734 627 704 637 Q 691 638 679 641 Q 654 650 672 625 Q 694 589 704 564 Q 714 545 732 554 Q 786 575 834 686 Q 855 755 881 777 Q 894 789 890 800 Q 883 813 833 842 Q 814 854 792 842 Q 768 830 681 817 Q 593 802 520 802 Q 502 802 499 793 Q 496 786 519 772 Q 544 754 564 760 Q 574 763 587 765 L 623 773 Z" fill="black" /></g></svg>