<?xml version='1.0' encoding='utf-8'?>
<svg xmlns="http://www.w3.org/2000/svg" version="1.1" viewBox="0 0 1024 1024"><g transform="scale(1, -1) translate(0, -900)"><path d="M 304 312 Q 317 290 329 270 Q 345 245 353 248 Q 363 249 376 277 Q 385 299 385 447 Q 385 633 401 660 Q 411 679 403 690 Q 396 700 345 716 Q 320 726 302 715 Q 236 685 180 673 C 151 666 168 635 196 645 Q 200 648 206 649 Q 239 658 277 670 Q 311 680 323 670 Q 333 660 334 619 Q 335 450 328 357 Q 331 332 310 336 Q 304 337 303 336 C 290 335 290 335 304 312 Z" fill="black" /></g></svg>