<?xml version='1.0' encoding='utf-8'?>
<svg xmlns="http://www.w3.org/2000/svg" version="1.1" viewBox="0 0 1024 1024"><g transform="scale(1, -1) translate(0, -900)"><path d="M 342 730 Q 376 740 409 744 Q 428 747 432 741 Q 438 731 433 705 Q 423 635 405 603 Q 384 573 357 580 Q 336 586 319 592 Q 295 601 311 577 Q 345 537 361 508 Q 374 489 390 501 Q 441 528 480 653 Q 492 714 513 734 Q 526 746 520 756 Q 513 766 464 790 Q 445 799 427 787 Q 408 777 354 762 L 294 747 Q 221 732 162 727 Q 146 726 143 718 Q 142 711 164 700 Q 186 687 204 693 Q 243 706 281 715 L 342 730 Z" fill="black" /></g></svg>