<?xml version='1.0' encoding='utf-8'?>
<svg xmlns="http://www.w3.org/2000/svg" version="1.1" viewBox="0 0 1024 1024"><g transform="scale(1, -1) translate(0, -900)"><path d="M 206 684 L 204 686 Q 197 692 183 697 Q 174 701 164 697 Q 157 693 162 681 Q 163 678 164 674 Q 164 673 166 669 Q 166 668 168 663 Q 193 612 178 397 Q 160 286 174 264 Q 180 254 187 245 Q 197 232 206 244 Q 210 251 213 258 L 217 283 Q 220 304 221 402 L 221 429 Q 222 484 223 523 L 223 553 Q 224 632 226 640 Q 227 653 226 660 C 226 670 226 670 206 684 Z" fill="black" /></g></svg>