<?xml version='1.0' encoding='utf-8'?>
<svg xmlns="http://www.w3.org/2000/svg" version="1.1" viewBox="0 0 1024 1024"><g transform="scale(1, -1) translate(0, -900)"><path d="M 299 305 Q 314 281 329 258 Q 345 233 353 236 Q 363 237 376 266 Q 385 287 385 363 Q 376 633 397 669 Q 409 687 400 698 Q 393 710 342 726 Q 317 735 299 725 Q 229 695 168 684 C 139 678 156 651 185 658 Q 186 659 190 659 Q 226 668 268 680 Q 307 690 319 678 Q 331 666 331 623 Q 335 445 327 345 Q 330 326 316 324 C 300 303 298 307 299 305 Z" fill="black" /></g></svg>