<?xml version='1.0' encoding='utf-8'?>
<svg xmlns="http://www.w3.org/2000/svg" version="1.1" viewBox="0 0 1024 1024"><g transform="scale(1, -1) translate(0, -900)"><path d="M 341 272 Q 351 256 362 241 Q 378 217 385 220 Q 395 221 409 252 Q 415 273 417 353 Q 402 635 424 674 Q 434 692 426 703 Q 419 713 370 727 Q 346 736 329 726 Q 262 696 206 684 C 177 677 197 652 226 660 Q 226 661 228 661 Q 262 670 301 682 Q 337 694 350 682 Q 362 670 362 624 Q 366 431 359 324 Q 360 309 354 304 C 346 275 338 277 341 272 Z" fill="black" /></g></svg>