<?xml version='1.0' encoding='utf-8'?>
<svg xmlns="http://www.w3.org/2000/svg" version="1.1" viewBox="0 0 1024 1024"><g transform="scale(1, -1) translate(0, -900)"><path d="M 775 293 Q 776 283 785 271 Q 800 240 810 242 Q 825 243 841 279 Q 857 307 855 328 Q 839 439 836 609 Q 835 658 861 702 Q 873 720 864 730 Q 834 755 782 777 Q 766 783 740 773 Q 692 751 568 726 C 539 720 548 693 578 694 Q 588 693 601 695 Q 679 716 736 726 Q 755 730 762 720 Q 783 695 783 609 Q 789 386 778 328 L 775 293 Z" fill="black" /></g></svg>