<?xml version='1.0' encoding='utf-8'?>
<svg xmlns="http://www.w3.org/2000/svg" version="1.1" viewBox="0 0 1024 1024"><g transform="scale(1, -1) translate(0, -900)"><path d="M 372 307 Q 373 300 379 293 Q 392 265 402 266 Q 415 267 430 299 Q 445 324 443 344 Q 428 438 427 583 Q 426 625 449 661 Q 458 676 451 685 Q 426 707 381 724 Q 368 728 346 721 Q 313 706 219 683 C 190 676 199 653 229 657 Q 235 657 242 658 Q 351 691 360 678 Q 378 657 378 584 Q 384 376 373 336 Q 372 335 372 334 L 372 307 Z" fill="black" /></g></svg>