<?xml version='1.0' encoding='utf-8'?>
<svg xmlns="http://www.w3.org/2000/svg" version="1.1" viewBox="0 0 1024 1024"><g transform="scale(1, -1) translate(0, -900)"><path d="M 319 320 Q 329 302 342 284 Q 358 262 365 264 Q 375 265 388 295 Q 394 313 395 394 Q 380 671 400 707 Q 410 723 402 735 Q 395 745 346 760 Q 322 767 306 758 Q 252 733 206 722 C 177 714 194 691 223 697 Q 247 701 292 715 Q 317 722 326 714 Q 338 702 338 657 Q 345 470 338 368 Q 342 344 321 347 L 319 347 C 306 343 306 343 319 320 Z" fill="black" /></g></svg>