<?xml version='1.0' encoding='utf-8'?>
<svg xmlns="http://www.w3.org/2000/svg" version="1.1" viewBox="0 0 1024 1024"><g transform="scale(1, -1) translate(0, -900)"><path d="M 654 152 Q 655 143 662 134 Q 677 106 686 106 Q 701 107 716 141 Q 731 169 726 206 Q 707 363 735 408 Q 745 424 737 433 Q 709 457 663 476 Q 647 480 624 472 Q 585 456 475 429 C 446 422 396 389 426 394 L 427 392 Q 427 393 430 393 Q 533 420 607 433 Q 632 439 642 425 Q 655 410 656 358 Q 662 208 655 179 L 654 152 Z" fill="black" /></g></svg>