<?xml version='1.0' encoding='utf-8'?>
<svg xmlns="http://www.w3.org/2000/svg" version="1.1" viewBox="0 0 1024 1024"><g transform="scale(1, -1) translate(0, -900)"><path d="M 291 338 Q 301 320 313 302 Q 329 277 337 280 Q 347 281 360 309 Q 373 339 370 379 Q 364 662 385 696 Q 397 715 388 726 Q 381 736 330 754 Q 305 764 287 754 Q 230 730 182 720 C 153 713 162 687 192 692 Q 198 693 206 694 Q 234 700 267 709 Q 298 716 307 706 Q 317 696 318 654 Q 319 483 312 389 Q 315 364 294 368 L 293 368 C 276 363 276 363 291 338 Z" fill="black" /></g></svg>