<?xml version='1.0' encoding='utf-8'?>
<svg xmlns="http://www.w3.org/2000/svg" version="1.1" viewBox="0 0 1024 1024"><g transform="scale(1, -1) translate(0, -900)"><path d="M 237 800 Q 228 807 213 814 Q 194 824 187 818 Q 181 811 188 798 Q 224 723 196 483 Q 192 462 179 439 Q 172 426 180 408 Q 187 389 197 382 Q 207 376 221 387 Q 281 442 482 470 Q 503 471 502 482 Q 501 494 474 508 Q 461 517 390 495 L 352 484 Q 340 487 259 459 Q 252 456 247 458 Q 244 459 243 469 Q 244 508 245 548 L 246 572 Q 246 608 248 644 L 248 668 L 250 722 Q 250 750 253 768 C 255 789 255 789 237 800 Z" fill="black" /></g></svg>