<?xml version='1.0' encoding='utf-8'?>
<svg xmlns="http://www.w3.org/2000/svg" version="1.1" viewBox="0 0 1024 1024"><g transform="scale(1, -1) translate(0, -900)"><path d="M 293 339 Q 306 317 320 295 Q 336 270 345 272 Q 355 273 369 302 Q 378 326 379 439 Q 375 668 395 703 Q 405 722 397 734 Q 390 746 335 761 Q 310 770 291 759 Q 236 731 189 718 C 160 709 169 682 198 689 Q 217 692 276 712 Q 303 722 313 713 Q 323 703 324 660 Q 327 483 319 387 Q 320 362 303 365 C 284 353 284 353 293 339 Z" fill="black" /></g></svg>