<?xml version='1.0' encoding='utf-8'?>
<svg xmlns="http://www.w3.org/2000/svg" version="1.1" viewBox="0 0 1024 1024"><g transform="scale(1, -1) translate(0, -900)"><path d="M 692 594 Q 734 646 768 726 Q 778 753 796 771 Q 814 786 801 798 Q 788 808 759 819 Q 737 825 712 811 Q 688 799 655 787 Q 622 775 566 764 Q 553 763 549 756 Q 545 749 563 743 Q 597 733 642 749 Q 688 771 698 771 Q 717 770 713 749 Q 695 668 657 622 L 632 595 Q 574 555 512 535 Q 499 531 510 523 Q 514 520 547 522 Q 601 525 659 566 L 692 594 Z" fill="black" /></g></svg>