<?xml version='1.0' encoding='utf-8'?>
<svg xmlns="http://www.w3.org/2000/svg" version="1.1" viewBox="0 0 1024 1024"><g transform="scale(1, -1) translate(0, -900)"><path d="M 739 483 Q 739 479 740 474 Q 743 458 756 456 Q 774 456 811 507 Q 833 558 873 584 Q 894 597 879 615 Q 863 634 815 666 Q 797 681 713 661 Q 509 637 406 616 Q 300 597 230 589 C 200 585 211 548 241 552 Q 250 551 258 553 Q 303 566 370 580 L 399 586 Q 468 599 559 612 L 602 617 Q 755 641 784 625 Q 791 621 783 599 Q 756 523 747 508 Q 746 508 746 507 C 737 489 737 489 739 483 Z" fill="black" /></g></svg>