<?xml version='1.0' encoding='utf-8'?>
<svg xmlns="http://www.w3.org/2000/svg" version="1.1" viewBox="0 0 1024 1024"><g transform="scale(1, -1) translate(0, -900)"><path d="M 319 291 Q 332 270 345 250 Q 361 225 369 228 Q 379 229 392 258 Q 401 279 401 355 Q 392 625 413 661 Q 423 679 416 690 Q 409 700 357 717 Q 332 726 314 715 Q 259 688 213 676 C 184 668 200 642 229 649 Q 325 673 327 673 Q 331 673 335 670 Q 347 658 347 615 Q 351 437 343 337 Q 347 312 327 316 C 309 308 309 308 319 291 Z" fill="black" /></g></svg>