<?xml version='1.0' encoding='utf-8'?>
<svg xmlns="http://www.w3.org/2000/svg" version="1.1" viewBox="0 0 1024 1024"><g transform="scale(1, -1) translate(0, -900)"><path d="M 188 678 Q 176 690 155 697 Q 146 701 136 697 Q 129 693 135 681 Q 136 674 140 666 Q 140 665 142 661 Q 166 609 154 403 Q 142 312 143 308 Q 143 286 167 261 Q 177 248 186 260 Q 193 270 195 282 L 198 315 Q 199 334 199 360 Q 198 391 198 418 L 198 448 Q 198 497 198 532 L 198 561 Q 198 645 200 651 C 201 667 201 667 188 678 Z" fill="black" /></g></svg>