<?xml version='1.0' encoding='utf-8'?>
<svg xmlns="http://www.w3.org/2000/svg" version="1.1" viewBox="0 0 1024 1024"><g transform="scale(1, -1) translate(0, -900)"><path d="M 286 337 Q 298 318 310 300 Q 326 278 333 280 Q 343 281 356 311 Q 368 344 364 385 Q 360 467 356 648 Q 355 694 368 719 Q 378 737 370 747 Q 363 757 314 771 Q 290 778 273 769 Q 224 744 181 733 C 152 725 162 697 191 705 Q 221 712 258 726 Q 283 733 294 726 Q 306 714 306 670 Q 313 486 306 384 Q 309 366 297 363 C 283 341 283 341 286 337 Z" fill="black" /></g></svg>