<?xml version='1.0' encoding='utf-8'?>
<svg xmlns="http://www.w3.org/2000/svg" version="1.1" viewBox="0 0 1024 1024"><g transform="scale(1, -1) translate(0, -900)"><path d="M 617 177 Q 618 173 623 167 Q 636 137 646 138 Q 661 139 677 172 Q 692 199 688 243 Q 676 370 702 410 Q 712 426 705 436 Q 678 461 630 482 Q 614 488 591 480 Q 513 449 376 435 C 346 432 363 401 393 405 Q 397 405 404 406 Q 504 428 576 439 Q 601 443 609 430 Q 625 409 620 233 Q 619 218 614 204 C 610 190 610 190 617 177 Z" fill="black" /></g></svg>