<?xml version='1.0' encoding='utf-8'?>
<svg xmlns="http://www.w3.org/2000/svg" version="1.1" viewBox="0 0 1024 1024"><g transform="scale(1, -1) translate(0, -900)"><path d="M 786 236 Q 787 232 792 225 Q 805 197 814 198 Q 827 199 843 231 Q 852 249 853 296 Q 834 467 864 517 Q 874 532 866 540 Q 841 562 797 580 Q 784 584 762 577 Q 702 547 575 530 C 545 526 561 502 591 505 Q 598 504 606 506 Q 688 528 748 540 Q 769 546 776 534 Q 789 518 790 461 Q 794 299 785 268 Q 784 265 783 261 C 780 248 780 248 786 236 Z" fill="black" /></g></svg>