<?xml version='1.0' encoding='utf-8'?>
<svg xmlns="http://www.w3.org/2000/svg" version="1.1" viewBox="0 0 1024 1024"><g transform="scale(1, -1) translate(0, -900)"><path d="M 656 741 Q 720 760 774 767 Q 790 768 794 763 Q 798 757 797 741 Q 794 695 784 674 Q 768 647 743 653 Q 730 654 716 657 Q 697 663 711 644 Q 736 616 749 593 Q 758 580 770 588 Q 810 607 844 719 Q 851 747 863 759 Q 875 769 870 779 Q 863 789 818 811 Q 800 818 783 808 Q 764 796 689 781 Q 614 762 550 759 Q 534 758 532 750 Q 531 743 552 732 Q 574 717 592 724 Q 610 730 627 734 L 656 741 Z" fill="black" /></g></svg>