<?xml version='1.0' encoding='utf-8'?>
<svg xmlns="http://www.w3.org/2000/svg" version="1.1" viewBox="0 0 1024 1024"><g transform="scale(1, -1) translate(0, -900)"><path d="M 299 313 Q 299 190 275 100 Q 265 66 289 5 Q 296 -11 303 -15 Q 309 -21 316 -14 Q 323 -10 333 11 Q 342 33 341 63 Q 340 103 341 402 L 341 435 Q 341 483 342 534 L 342 564 Q 342 609 344 647 L 350 698 Q 354 726 361 749 Q 370 762 366 776 Q 360 785 307 817 Q 285 833 266 818 Q 262 814 267 799 Q 300 750 301 680 L 302 637 Q 302 598 303 553 L 303 525 Q 302 476 302 425 L 299 313 Z" fill="black" /></g></svg>