<?xml version='1.0' encoding='utf-8'?>
<svg xmlns="http://www.w3.org/2000/svg" version="1.1" viewBox="0 0 1024 1024"><g transform="scale(1, -1) translate(0, -900)"><path d="M 790 215 Q 793 62 779 43 Q 776 40 703 48 Q 684 52 685 43 Q 742 0 773 -33 Q 786 -52 803 -56 Q 812 -60 820 -50 Q 856 -5 856 64 Q 849 128 845 218 L 842 268 Q 836 358 854 392 Q 867 411 854 422 Q 832 441 796 456 Q 778 463 763 457 Q 715 433 682 422 L 631 410 Q 594 406 540 401 C 510 398 523 366 552 372 Q 615 384 632 387 L 681 396 Q 715 403 752 410 Q 768 414 777 405 Q 784 398 789 257 L 790 215 Z" fill="black" /></g></svg>