<?xml version='1.0' encoding='utf-8'?>
<svg xmlns="http://www.w3.org/2000/svg" version="1.1" viewBox="0 0 1024 1024"><g transform="scale(1, -1) translate(0, -900)"><path d="M 673 303 Q 673 316 673 330 L 673 371 Q 673 389 673 405 Q 672 417 672 428 L 672 459 Q 672 502 674 535 L 676 569 Q 679 617 666 622 Q 657 629 651 633 C 627 650 603 653 615 626 Q 628 605 631 563 Q 631 560 631 556 L 633 527 Q 634 493 636 452 L 636 422 Q 636 394 636 363 L 636 326 Q 632 100 615 50 Q 606 14 640 -36 Q 652 -55 660 -58 Q 670 -59 676 -46 Q 686 -15 683 15 Q 676 148 674 268 L 673 303 Z" fill="black" /></g></svg>