<?xml version='1.0' encoding='utf-8'?>
<svg xmlns="http://www.w3.org/2000/svg" version="1.1" viewBox="0 0 1024 1024"><g transform="scale(1, -1) translate(0, -900)"><path d="M 494 607 Q 512 559 516 534 L 518 504 Q 518 468 520 432 L 520 399 Q 519 372 518 340 L 513 226 Q 513 156 488 72 Q 475 18 507 -19 Q 516 -31 526 -20 Q 544 2 544 119 Q 545 228 548 312 L 549 345 Q 549 378 551 406 L 552 437 Q 552 482 554 511 L 555 540 Q 555 564 557 568 Q 561 587 556 594 Q 553 603 540 611 C 518 631 484 635 494 607 Z" fill="black" /></g></svg>