<?xml version='1.0' encoding='utf-8'?>
<svg xmlns="http://www.w3.org/2000/svg" version="1.1" viewBox="0 0 1024 1024"><g transform="scale(1, -1) translate(0, -900)"><path d="M 305 312 Q 320 288 334 265 Q 350 241 357 244 Q 367 245 380 274 Q 389 295 389 371 Q 380 644 400 678 Q 410 696 403 706 Q 396 716 347 733 Q 323 742 307 732 Q 246 708 199 699 C 170 693 181 666 210 672 Q 214 673 220 674 Q 248 680 284 689 Q 315 696 325 686 Q 337 676 337 631 Q 340 448 332 348 Q 333 335 327 329 C 319 300 293 331 305 312 Z" fill="black" /></g></svg>