<?xml version='1.0' encoding='utf-8'?>
<svg xmlns="http://www.w3.org/2000/svg" version="1.1" viewBox="0 0 1024 1024"><g transform="scale(1, -1) translate(0, -900)"><path d="M 663 634 Q 663 631 665 625 Q 674 597 672 569 Q 669 526 693 503 Q 762 457 870 486 Q 895 495 920 514 Q 935 526 924 545 Q 914 560 899 606 Q 898 618 892 621 Q 888 624 885 611 Q 866 559 855 542 Q 846 535 823 529 Q 771 517 728 531 Q 712 538 709 548 Q 703 558 713 605 Q 719 624 689 638 C 663 653 658 655 663 634 Z" fill="black" /></g></svg>