<?xml version='1.0' encoding='utf-8'?>
<svg xmlns="http://www.w3.org/2000/svg" version="1.1" viewBox="0 0 1024 1024"><g transform="scale(1, -1) translate(0, -900)"><path d="M 610 585 Q 629 639 638 694 L 642 727 Q 645 778 657 803 Q 661 813 655 820 Q 609 862 576 852 Q 560 845 572 830 Q 596 805 595 778 Q 596 742 594 712 L 590 678 Q 589 675 589 671 Q 583 632 572 599 L 559 563 Q 532 500 465 439 Q 455 433 453 429 Q 449 423 463 424 Q 500 424 576 514 Q 577 521 590 539 L 610 585 Z" fill="black" /></g></svg>