<?xml version='1.0' encoding='utf-8'?>
<svg xmlns="http://www.w3.org/2000/svg" version="1.1" viewBox="0 0 1024 1024"><g transform="scale(1, -1) translate(0, -900)"><path d="M 286 322 Q 299 300 314 277 Q 330 253 337 256 Q 347 257 361 287 Q 374 320 371 362 Q 367 447 366 630 Q 366 678 380 702 Q 392 718 384 730 Q 377 740 329 759 Q 305 769 288 760 Q 230 738 181 732 C 151 728 163 703 193 706 Q 203 706 271 716 Q 298 720 306 710 Q 318 700 317 653 Q 321 464 312 360 Q 313 350 310 344 C 306 314 271 348 286 322 Z" fill="black" /></g></svg>