<?xml version='1.0' encoding='utf-8'?>
<svg xmlns="http://www.w3.org/2000/svg" version="1.1" viewBox="0 0 1024 1024"><g transform="scale(1, -1) translate(0, -900)"><path d="M 715 68 Q 746 28 769 -8 Q 778 -26 789 -25 Q 804 -24 819 8 Q 835 45 832 89 Q 826 144 818 250 Q 817 278 832 298 Q 839 310 831 319 Q 815 337 766 357 Q 750 366 736 357 Q 681 327 563 300 C 534 293 540 265 569 271 Q 584 272 722 312 Q 743 316 754 310 Q 769 298 767 145 Q 768 105 764 91 Q 760 72 742 81 C 712 81 705 81 715 68 Z" fill="black" /></g></svg>