<?xml version='1.0' encoding='utf-8'?>
<svg xmlns="http://www.w3.org/2000/svg" version="1.1" viewBox="0 0 1024 1024"><g transform="scale(1, -1) translate(0, -900)"><path d="M 503 594 Q 503 595 502 597 Q 489 610 463 618 Q 447 625 437 621 Q 428 614 435 604 Q 450 586 455 526 Q 455 508 456 489 L 456 463 Q 455 417 452 372 L 450 348 Q 432 203 347 45 Q 344 41 343 35 Q 342 26 350 29 Q 378 35 439 158 Q 445 176 453 194 Q 498 323 499 529 Q 499 553 501 570 C 503 594 503 594 503 594 Z" fill="black" /></g></svg>