<?xml version='1.0' encoding='utf-8'?>
<svg xmlns="http://www.w3.org/2000/svg" version="1.1" viewBox="0 0 1024 1024"><g transform="scale(1, -1) translate(0, -900)"><path d="M 755 134 Q 756 127 762 119 Q 774 94 782 95 Q 795 96 808 124 Q 820 146 816 188 Q 804 320 827 356 Q 837 369 830 379 Q 805 400 764 417 Q 751 421 730 414 Q 661 384 548 371 C 518 367 531 336 560 344 Q 559 345 562 345 Q 652 367 717 379 Q 739 383 748 372 Q 758 359 759 312 Q 763 182 757 157 Q 756 156 755 153 L 755 134 Z" fill="black" /></g></svg>