<?xml version='1.0' encoding='utf-8'?>
<svg xmlns="http://www.w3.org/2000/svg" version="1.1" viewBox="0 0 1024 1024"><g transform="scale(1, -1) translate(0, -900)"><path d="M 780 187 Q 840 54 919 0 Q 931 -7 940 -9 Q 953 -10 961 1 Q 968 8 961 49 Q 955 91 961 188 Q 962 213 955 215 Q 948 216 940 193 Q 919 84 895 107 Q 868 134 807 236 L 783 294 Q 741 414 717 599 L 712 641 Q 703 701 709 756 Q 721 789 689 811 Q 671 824 659 826 Q 647 826 647 825 Q 626 821 642 799 Q 652 796 670 654 Q 670 642 673 629 L 677 591 Q 692 438 759 239 L 780 187 Z" fill="black" /></g></svg>