<?xml version='1.0' encoding='utf-8'?>
<svg xmlns="http://www.w3.org/2000/svg" version="1.1" viewBox="0 0 1024 1024"><g transform="scale(1, -1) translate(0, -900)"><path d="M 552 460 Q 545 466 533 472 Q 520 479 515 474 Q 511 470 515 460 Q 542 397 515 201 Q 511 188 503 173 Q 496 163 503 151 Q 509 138 515 132 Q 522 128 532 135 Q 568 168 687 186 Q 703 187 702 195 Q 701 204 682 214 Q 672 221 651 214 Q 641 211 631 207 L 603 199 Q 582 196 558 187 Q 554 186 552 187 Q 549 188 549 195 Q 550 229 552 265 L 552 286 Q 553 313 555 340 L 556 361 Q 556 409 562 441 C 564 452 564 452 552 460 Z" fill="black" /></g></svg>