<?xml version='1.0' encoding='utf-8'?>
<svg xmlns="http://www.w3.org/2000/svg" version="1.1" viewBox="0 0 1024 1024"><g transform="scale(1, -1) translate(0, -900)"><path d="M 683 364 Q 698 364 753 382 Q 760 383 765 379 Q 765 378 757 273 Q 730 24 872 -39 Q 873 -39 876 -40 Q 907 -50 949 -47 Q 962 -46 966 -38 Q 972 -28 962 -3 Q 950 31 945 90 Q 945 102 939 108 Q 932 114 929 97 Q 917 42 909 24 Q 906 17 900 14 Q 893 11 887 12 Q 866 15 846 37 Q 792 91 795 200 Q 795 326 842 373 Q 857 388 851 396 Q 841 409 810 423 Q 783 435 771 427 Q 732 405 677 391 C 648 383 653 359 683 364 Z" fill="black" /></g></svg>