<?xml version='1.0' encoding='utf-8'?>
<svg xmlns="http://www.w3.org/2000/svg" version="1.1" viewBox="0 0 1024 1024"><g transform="scale(1, -1) translate(0, -900)"><path d="M 384 834 Q 383 835 381 836 Q 374 842 362 845 Q 355 849 345 845 Q 339 841 344 831 Q 345 825 348 820 Q 369 783 360 636 Q 342 581 376 536 Q 385 526 393 536 Q 397 543 400 552 L 403 583 Q 403 610 402 639 L 401 662 Q 401 696 401 720 L 401 742 Q 400 793 401 797 Q 401 801 401 806 C 401 822 401 822 384 834 Z" fill="black" /></g></svg>