<?xml version='1.0' encoding='utf-8'?>
<svg xmlns="http://www.w3.org/2000/svg" version="1.1" viewBox="0 0 1024 1024"><g transform="scale(1, -1) translate(0, -900)"><path d="M 253 291 L 273 261 Q 286 242 293 244 Q 303 245 314 274 Q 326 305 322 345 Q 301 625 323 667 Q 332 682 324 690 Q 318 699 276 710 Q 257 717 242 707 Q 200 685 165 674 C 137 664 148 642 176 652 Q 179 653 184 655 Q 205 662 230 671 Q 252 678 260 673 Q 272 661 272 617 Q 276 433 270 332 Q 271 317 263 314 C 253 292 253 292 253 291 Z" fill="black" /></g></svg>