<?xml version='1.0' encoding='utf-8'?>
<svg xmlns="http://www.w3.org/2000/svg" version="1.1" viewBox="0 0 1024 1024"><g transform="scale(1, -1) translate(0, -900)"><path d="M 537 471 Q 573 495 687 510 Q 795 528 810 514 Q 819 507 812 477 Q 796 410 784 395 Q 777 386 759 388 Q 735 395 714 401 Q 704 405 703 399 Q 703 395 709 390 Q 748 353 761 326 Q 767 313 779 319 Q 815 334 831 380 Q 862 491 871 504 Q 881 516 872 525 Q 859 541 832 556 Q 817 566 796 557 Q 772 548 687 533 Q 638 527 560 512 Q 538 505 537 545 C 533 575 529 467 537 471 Z" fill="black" /></g></svg>