<?xml version='1.0' encoding='utf-8'?>
<svg xmlns="http://www.w3.org/2000/svg" version="1.1" viewBox="0 0 1024 1024"><g transform="scale(1, -1) translate(0, -900)"><path d="M 165 674 Q 158 681 138 690 Q 131 694 121 690 Q 115 686 119 677 Q 137 608 138 528 Q 132 378 122 331 Q 101 289 136 244 Q 145 234 153 244 Q 162 256 163 277 L 166 302 Q 167 320 167 343 Q 167 371 168 396 L 168 424 Q 169 482 171 523 L 171 550 Q 172 632 175 640 Q 176 647 176 652 C 177 665 177 665 165 674 Z" fill="black" /></g></svg>