<?xml version='1.0' encoding='utf-8'?>
<svg xmlns="http://www.w3.org/2000/svg" version="1.1" viewBox="0 0 1024 1024"><g transform="scale(1, -1) translate(0, -900)"><path d="M 807 462 Q 807 458 809 454 Q 813 441 823 440 Q 835 441 842 453 Q 849 457 867 487 Q 883 532 916 557 Q 932 570 920 585 Q 904 600 862 625 Q 847 634 780 618 Q 690 609 577 583 Q 490 568 441 566 C 411 564 455 519 483 529 Q 501 538 567 551 L 587 555 Q 630 565 691 574 L 724 578 Q 808 600 837 585 Q 843 581 838 563 Q 823 508 815 489 L 807 462 Z" fill="black" /></g></svg>