<?xml version='1.0' encoding='utf-8'?>
<svg xmlns="http://www.w3.org/2000/svg" version="1.1" viewBox="0 0 1024 1024"><g transform="scale(1, -1) translate(0, -900)"><path d="M 666 251 Q 659 226 673 204 Q 688 173 698 174 Q 713 175 730 210 Q 746 238 744 260 Q 731 350 732 490 Q 731 530 753 566 Q 765 582 756 593 Q 728 620 676 642 Q 660 649 634 639 Q 588 623 537 608 L 496 599 Q 423 589 363 589 C 333 589 342 552 372 556 Q 495 574 620 593 Q 644 593 654 585 Q 666 560 671 493 Q 677 291 666 251 Z" fill="black" /></g></svg>