<?xml version='1.0' encoding='utf-8'?>
<svg xmlns="http://www.w3.org/2000/svg" version="1.1" viewBox="0 0 1024 1024"><g transform="scale(1, -1) translate(0, -900)"><path d="M 651 307 Q 642 279 659 254 Q 675 220 686 222 Q 702 223 721 261 Q 739 292 736 316 Q 720 434 721 616 Q 721 668 750 714 Q 762 732 753 743 Q 722 771 667 796 Q 649 802 623 793 Q 508 747 371 742 C 341 740 357 704 387 708 Q 391 708 398 709 Q 464 721 514 729 Q 619 751 642 736 Q 657 703 662 617 Q 666 356 651 307 Z" fill="black" /></g></svg>