<?xml version='1.0' encoding='utf-8'?>
<svg xmlns="http://www.w3.org/2000/svg" version="1.1" viewBox="0 0 1024 1024"><g transform="scale(1, -1) translate(0, -900)"><path d="M 650 258 Q 643 231 658 206 Q 674 172 686 174 Q 702 175 720 214 Q 738 245 735 269 Q 704 480 742 543 Q 757 567 717 592 Q 693 607 662 620 Q 646 626 619 616 Q 576 598 526 584 L 491 575 Q 409 560 344 560 C 314 559 338 527 368 530 Q 377 529 386 531 Q 453 544 505 554 Q 611 579 635 563 Q 645 541 652 479 Q 659 295 650 258 Z" fill="black" /></g></svg>