<?xml version='1.0' encoding='utf-8'?>
<svg xmlns="http://www.w3.org/2000/svg" version="1.1" viewBox="0 0 1024 1024"><g transform="scale(1, -1) translate(0, -900)"><path d="M 453 638 Q 514 657 564 666 Q 580 669 583 664 Q 589 657 587 638 Q 586 586 576 561 Q 560 533 534 538 Q 515 542 498 549 Q 476 556 491 534 Q 525 497 540 468 Q 552 453 564 463 Q 612 491 641 616 Q 648 647 661 662 Q 671 674 666 684 Q 659 694 611 715 Q 592 722 574 710 Q 556 700 485 681 Q 415 660 353 655 Q 337 654 335 645 Q 334 638 356 628 Q 378 615 396 622 Q 409 626 425 631 L 453 638 Z" fill="black" /></g></svg>