<?xml version='1.0' encoding='utf-8'?>
<svg xmlns="http://www.w3.org/2000/svg" version="1.1" viewBox="0 0 1024 1024"><g transform="scale(1, -1) translate(0, -900)"><path d="M 703 425 Q 703 302 703 125 Q 702 101 690 92 Q 681 86 618 99 Q 584 111 587 100 Q 588 93 609 78 Q 672 26 687 -2 Q 706 -36 721 -37 Q 737 -38 751 -2 Q 770 46 767 122 Q 752 326 754 528 L 755 574 Q 755 689 773 751 Q 789 782 732 805 Q 698 824 677 817 Q 658 810 675 786 Q 697 758 700 723 Q 701 705 703 559 L 703 425 Z" fill="black" /></g></svg>