<?xml version='1.0' encoding='utf-8'?>
<svg xmlns="http://www.w3.org/2000/svg" version="1.1" viewBox="0 0 1024 1024"><g transform="scale(1, -1) translate(0, -900)"><path d="M 587 401 Q 590 684 597 709 Q 604 728 590 741 Q 566 759 540 765 Q 512 772 501 759 Q 494 747 507 735 Q 546 702 546 392 L 545 349 Q 542 88 506 44 Q 494 25 505 4 Q 518 -15 536 -23 Q 546 -30 559 -13 Q 580 18 687 117 Q 715 138 717 147 Q 718 154 713 156 Q 707 157 598 90 Q 579 74 578 99 Q 582 226 586 360 L 587 401 Z" fill="black" /></g></svg>