<?xml version='1.0' encoding='utf-8'?>
<svg xmlns="http://www.w3.org/2000/svg" version="1.1" viewBox="0 0 1024 1024"><g transform="scale(1, -1) translate(0, -900)"><path d="M 660 596 Q 661 599 664 601 Q 697 646 727 718 Q 739 745 758 761 Q 776 776 764 789 Q 752 801 723 812 Q 701 819 675 807 Q 648 797 612 787 Q 575 777 515 772 Q 502 772 498 765 Q 494 758 511 751 Q 545 738 591 750 Q 646 769 657 768 Q 679 765 672 741 Q 657 672 623 625 L 600 597 Q 545 548 460 523 Q 447 519 458 511 Q 462 507 497 510 Q 560 514 629 566 L 660 596 Z" fill="black" /></g></svg>