<?xml version='1.0' encoding='utf-8'?>
<svg xmlns="http://www.w3.org/2000/svg" version="1.1" viewBox="0 0 1024 1024"><g transform="scale(1, -1) translate(0, -900)"><path d="M 705 692 Q 714 723 737 746 Q 750 759 738 772 Q 723 788 681 815 Q 666 822 594 807 Q 587 807 469 787 Q 415 777 372 770 C 342 765 364 735 394 739 Q 398 739 406 740 Q 439 749 485 756 L 523 761 Q 560 768 605 773 Q 633 776 642 766 Q 657 750 654 734 Q 650 707 645 684 L 638 643 Q 625 577 614 566 C 600 539 599 537 618 520 Q 627 510 637 505 Q 647 498 662 519 Q 674 541 695 643 L 705 692 Z" fill="black" /></g></svg>