<?xml version='1.0' encoding='utf-8'?>
<svg xmlns="http://www.w3.org/2000/svg" version="1.1" viewBox="0 0 1024 1024"><g transform="scale(1, -1) translate(0, -900)"><path d="M 344 636 Q 356 545 333 485 Q 315 461 354 435 Q 364 428 378 440 Q 480 503 719 481 Q 738 477 748 483 Q 754 487 749 499 Q 745 509 711 530 Q 693 542 622 533 Q 543 533 412 509 Q 402 506 399 510 Q 386 516 388 539 Q 384 600 382 643 L 382 675 Q 382 709 386 725 Q 390 740 376 748 Q 354 766 322 771 Q 309 772 302 764 Q 298 757 310 744 Q 325 726 338 669 L 344 636 Z" fill="black" /></g></svg>