<?xml version='1.0' encoding='utf-8'?>
<svg xmlns="http://www.w3.org/2000/svg" version="1.1" viewBox="0 0 1024 1024"><g transform="scale(1, -1) translate(0, -900)"><path d="M 562 648 Q 659 498 786 442 Q 789 442 794 439 Q 849 417 881 418 Q 903 425 893 454 Q 881 479 865 605 Q 864 617 858 617 Q 854 617 835 546 Q 825 507 804 507 Q 788 511 757 526 Q 678 568 606 665 L 579 706 Q 546 763 548 816 Q 549 835 508 849 Q 468 861 457 855 Q 447 848 455 832 Q 482 813 499 770 Q 518 727 539 687 L 562 648 Z" fill="black" /></g></svg>