<?xml version='1.0' encoding='utf-8'?>
<svg xmlns="http://www.w3.org/2000/svg" version="1.1" viewBox="0 0 1024 1024"><g transform="scale(1, -1) translate(0, -900)"><path d="M 355 701 Q 383 708 412 712 Q 431 715 436 709 Q 443 699 437 672 Q 427 599 408 567 Q 389 537 361 544 Q 340 550 323 556 Q 299 565 315 541 Q 349 501 365 471 Q 378 453 394 465 Q 448 493 488 633 Q 497 682 517 702 Q 530 714 524 724 Q 517 734 468 758 Q 449 767 431 755 Q 415 746 366 732 L 312 719 Q 230 700 162 695 Q 146 694 143 686 Q 142 679 164 668 Q 186 655 204 661 Q 255 677 301 688 L 355 701 Z" fill="black" /></g></svg>