<?xml version='1.0' encoding='utf-8'?>
<svg xmlns="http://www.w3.org/2000/svg" version="1.1" viewBox="0 0 1024 1024"><g transform="scale(1, -1) translate(0, -900)"><path d="M 600 421 Q 604 421 713 454 Q 734 461 740 450 Q 758 402 762 144 Q 762 102 753 85 Q 747 78 725 83 Q 697 87 668 92 Q 646 96 649 87 Q 712 41 748 5 Q 763 -14 779 -19 Q 789 -23 797 -12 Q 837 45 834 99 Q 797 396 820 439 Q 832 461 819 471 Q 797 490 757 504 Q 738 511 722 503 Q 665 467 588 453 C 559 447 571 413 600 421 Z" fill="black" /></g></svg>