<?xml version='1.0' encoding='utf-8'?>
<svg xmlns="http://www.w3.org/2000/svg" version="1.1" viewBox="0 0 1024 1024"><g transform="scale(1, -1) translate(0, -900)"><path d="M 696 651 Q 727 706 754 718 Q 772 734 759 751 Q 692 812 641 787 Q 614 780 588 771 L 532 757 Q 498 753 447 742 L 393 735 Q 332 728 269 725 Q 253 724 254 714 Q 255 707 274 699 Q 299 687 334 698 Q 364 704 395 707 L 447 716 Q 489 725 533 732 L 583 740 Q 601 744 620 747 Q 657 754 671 739 Q 677 730 651 660 C 641 632 681 625 696 651 Z" fill="black" /></g></svg>