<?xml version='1.0' encoding='utf-8'?>
<svg xmlns="http://www.w3.org/2000/svg" version="1.1" viewBox="0 0 1024 1024"><g transform="scale(1, -1) translate(0, -900)"><path d="M 572 461 Q 573 465 577 470 Q 605 528 631 617 L 642 659 Q 667 753 687 784 Q 697 799 691 808 Q 678 835 626 846 Q 610 850 594 842 Q 584 832 594 822 Q 610 806 614 786 Q 618 759 591 650 Q 590 650 590 649 L 578 606 Q 551 516 515 447 Q 478 377 388 269 Q 379 253 390 252 Q 394 251 407 260 Q 480 311 545 411 L 572 461 Z" fill="black" /></g></svg>