<?xml version='1.0' encoding='utf-8'?>
<svg xmlns="http://www.w3.org/2000/svg" version="1.1" viewBox="0 0 1024 1024"><g transform="scale(1, -1) translate(0, -900)"><path d="M 623 738 Q 696 754 753 759 Q 771 760 774 755 Q 781 746 778 724 Q 774 663 760 635 Q 739 601 709 607 Q 678 616 651 626 Q 626 633 645 609 Q 694 566 717 533 Q 729 515 744 527 Q 790 552 823 649 Q 844 734 860 750 Q 873 763 868 774 Q 859 786 808 812 Q 787 822 767 809 Q 746 799 665 784 Q 584 768 515 766 Q 497 766 494 757 Q 493 750 516 736 Q 540 720 560 725 Q 573 729 587 731 L 623 738 Z" fill="black" /></g></svg>