<?xml version='1.0' encoding='utf-8'?>
<svg xmlns="http://www.w3.org/2000/svg" version="1.1" viewBox="0 0 1024 1024"><g transform="scale(1, -1) translate(0, -900)"><path d="M 393 465 Q 454 480 522 489 L 562 495 Q 754 528 783 501 Q 796 488 777 395 Q 774 385 767 380 Q 761 377 704 400 Q 689 410 687 402 Q 684 393 700 376 Q 725 334 733 302 Q 740 283 755 292 Q 801 313 821 376 Q 854 475 867 484 Q 882 499 875 508 Q 865 520 821 543 Q 799 555 771 549 Q 701 531 621 524 Q 590 521 563 516 L 524 510 Q 464 503 407 491 L 365 484 Q 307 475 251 460 Q 238 459 238 467 Q 269 554 283 566 C 294 584 294 584 272 599 Q 265 606 258 612 Q 239 622 230 620 Q 223 617 225 604 Q 232 582 205 495 Q 198 483 173 459 Q 161 447 168 436 Q 175 424 193 409 Q 202 399 218 409 Q 272 437 354 456 L 393 465 Z" fill="black" /></g></svg>