<?xml version='1.0' encoding='utf-8'?>
<svg xmlns="http://www.w3.org/2000/svg" version="1.1" viewBox="0 0 1024 1024"><g transform="scale(1, -1) translate(0, -900)"><path d="M 709 240 Q 772 95 870 15 Q 931 -31 959 -30 Q 978 -26 971 3 Q 964 49 960 183 Q 959 205 950 206 Q 947 206 916 119 Q 901 77 878 92 Q 868 98 857 106 Q 796 164 742 271 L 725 314 Q 697 389 665 538 L 657 584 Q 644 674 651 746 Q 661 786 608 805 Q 574 818 555 811 Q 536 804 545 785 Q 591 748 592 714 Q 604 636 616 569 L 625 526 Q 655 372 694 276 L 709 240 Z" fill="black" /></g></svg>