<?xml version='1.0' encoding='utf-8'?>
<svg xmlns="http://www.w3.org/2000/svg" version="1.1" viewBox="0 0 1024 1024"><g transform="scale(1, -1) translate(0, -900)"><path d="M 581 591 Q 602 640 615 691 L 622 720 Q 622 721 623 723 Q 641 801 640 803 Q 627 819 602 833 Q 586 843 575 840 Q 565 834 569 823 Q 579 799 574 758 Q 571 731 567 705 L 561 674 Q 560 670 560 666 Q 551 632 541 603 L 526 569 Q 498 515 464 466 Q 460 462 457 456 Q 454 447 463 448 Q 502 458 558 545 Q 559 546 560 549 L 581 591 Z" fill="black" /></g></svg>