<?xml version='1.0' encoding='utf-8'?>
<svg xmlns="http://www.w3.org/2000/svg" version="1.1" viewBox="0 0 1024 1024"><g transform="scale(1, -1) translate(0, -900)"><path d="M 393 627 Q 393 657 393 678 L 394 722 Q 394 753 403 769 Q 413 782 408 791 Q 402 803 382 814 Q 348 830 335 825 Q 319 819 331 805 Q 349 787 349 709 L 349 669 Q 350 657 350 642 Q 349 626 349 611 L 349 575 Q 348 520 346 511 Q 342 487 326 492 Q 314 493 285 497 Q 270 501 268 497 Q 267 491 281 480 Q 317 453 340 423 Q 349 407 357 403 Q 366 399 369 403 Q 397 439 393 521 Q 392 528 392 597 L 393 627 Z" fill="black" /></g></svg>