<?xml version='1.0' encoding='utf-8'?>
<svg xmlns="http://www.w3.org/2000/svg" version="1.1" viewBox="0 0 1024 1024"><g transform="scale(1, -1) translate(0, -900)"><path d="M 332 345 Q 325 324 337 304 Q 350 277 358 278 Q 371 279 386 309 Q 399 333 398 351 Q 385 453 388 609 Q 388 655 413 694 Q 423 707 416 717 Q 391 738 348 756 Q 335 760 314 753 Q 284 738 247 726 Q 211 717 183 714 C 153 710 167 683 196 689 Q 199 689 267 704 Q 318 719 330 711 Q 342 684 346 610 Q 345 387 332 345 Z" fill="black" /></g></svg>