<?xml version='1.0' encoding='utf-8'?>
<svg xmlns="http://www.w3.org/2000/svg" version="1.1" viewBox="0 0 1024 1024"><g transform="scale(1, -1) translate(0, -900)"><path d="M 610 418 Q 604 430 581 444 C 556 461 521 466 536 440 Q 537 436 542 430 Q 561 393 560 359 Q 561 233 551 192 Q 545 161 532 143 Q 519 121 527 98 Q 539 64 557 51 Q 569 44 581 63 Q 606 100 695 194 Q 714 210 715 218 Q 716 231 695 219 Q 613 177 606 179 Q 599 183 599 202 Q 605 344 613 385 C 617 410 617 410 610 418 Z" fill="black" /></g></svg>