<?xml version='1.0' encoding='utf-8'?>
<svg xmlns="http://www.w3.org/2000/svg" version="1.1" viewBox="0 0 1024 1024"><g transform="scale(1, -1) translate(0, -900)"><path d="M 349 353 Q 342 334 354 314 Q 366 289 374 290 Q 387 291 400 320 Q 413 342 411 360 Q 398 451 398 592 Q 397 632 420 668 Q 427 681 422 690 Q 398 709 357 727 Q 344 731 325 724 Q 277 700 195 685 C 166 679 178 655 207 661 Q 208 662 212 662 Q 246 669 273 676 Q 328 692 340 684 Q 352 659 356 592 Q 360 391 349 353 Z" fill="black" /></g></svg>