<?xml version='1.0' encoding='utf-8'?>
<svg xmlns="http://www.w3.org/2000/svg" version="1.1" viewBox="0 0 1024 1024"><g transform="scale(1, -1) translate(0, -900)"><path d="M 687 480 Q 708 330 786 159 Q 837 56 909 -11 Q 940 -36 956 -37 Q 971 -38 980 -25 Q 987 -15 980 31 Q 970 82 970 159 Q 973 190 963 191 Q 954 192 946 165 Q 927 83 907 94 Q 873 116 821 213 Q 767 319 734 489 L 726 533 Q 699 698 707 762 Q 720 798 697 816 Q 691 822 683 826 Q 661 842 647 843 Q 634 843 633 842 Q 609 838 628 812 Q 641 809 662 650 Q 666 587 679 521 L 687 480 Z" fill="black" /></g></svg>