<?xml version='1.0' encoding='utf-8'?>
<svg xmlns="http://www.w3.org/2000/svg" version="1.1" viewBox="0 0 1024 1024"><g transform="scale(1, -1) translate(0, -900)"><path d="M 609 312 Q 616 322 625 331 Q 667 386 702 438 L 734 485 Q 827 647 845 668 Q 854 681 845 697 Q 827 728 809 742 Q 793 755 775 756 Q 757 756 763 733 Q 769 694 766 673 Q 742 595 673 473 L 644 430 Q 607 378 555 314 L 525 278 Q 434 175 323 75 Q 316 69 315 61 Q 315 55 322 56 Q 332 57 341 63 Q 441 130 490 180 Q 508 198 526 216 L 609 312 Z" fill="black" /></g></svg>