<?xml version='1.0' encoding='utf-8'?>
<svg xmlns="http://www.w3.org/2000/svg" version="1.1" viewBox="0 0 1024 1024"><g transform="scale(1, -1) translate(0, -900)"><path d="M 723 402 Q 759 414 807 414 Q 819 414 824 408 Q 833 387 810 246 Q 788 138 754 88 Q 739 64 724 64 Q 711 63 645 101 Q 636 105 635 100 Q 634 96 643 85 Q 680 33 694 -3 Q 701 -25 715 -26 Q 731 -30 749 -15 Q 812 21 844 138 Q 866 216 890 336 Q 894 363 914 381 Q 929 394 928 402 Q 927 411 908 425 Q 883 447 848 459 Q 826 468 759 448 Q 747 447 735 442 Q 690 432 553 407 C 523 402 513 400 540 392 Q 567 383 581 383 L 616 385 L 682 396 L 723 402 Z" fill="black" /></g></svg>