<?xml version='1.0' encoding='utf-8'?>
<svg xmlns="http://www.w3.org/2000/svg" version="1.1" viewBox="0 0 1024 1024"><g transform="scale(1, -1) translate(0, -900)"><path d="M 639 721 Q 686 734 747 747 Q 777 747 786 684 Q 787 678 789 661 Q 813 429 809 160 Q 810 120 797 108 Q 784 102 723 123 Q 705 129 705 120 Q 705 111 717 102 Q 774 47 799 8 Q 829 -22 847 -4 Q 853 4 862 24 Q 880 72 880 143 Q 853 512 849 649 Q 850 684 864 719 Q 870 734 866 741 L 862 745 Q 853 760 805 784 Q 790 790 758 782 L 627 750 Q 570 737 506 723 C 477 717 496 684 525 692 Q 553 700 591 710 L 639 721 Z" fill="black" /></g></svg>