<?xml version='1.0' encoding='utf-8'?>
<svg xmlns="http://www.w3.org/2000/svg" version="1.1" viewBox="0 0 1024 1024"><g transform="scale(1, -1) translate(0, -900)"><path d="M 378 442 Q 374 518 376 617 Q 376 660 400 696 Q 409 709 402 718 Q 377 739 336 756 Q 323 760 303 753 Q 257 726 183 713 C 154 707 163 683 192 690 Q 195 690 255 706 Q 301 722 313 715 Q 325 690 328 619 Q 327 409 314 369 Q 307 347 320 325 Q 333 297 342 298 Q 355 299 371 331 Q 386 356 385 375 Q 381 400 379 427 L 378 442 Z" fill="black" /></g></svg>