<?xml version='1.0' encoding='utf-8'?>
<svg xmlns="http://www.w3.org/2000/svg" version="1.1" viewBox="0 0 1024 1024"><g transform="scale(1, -1) translate(0, -900)"><path d="M 410 425 Q 406 494 408 577 Q 407 623 432 661 Q 442 674 434 683 Q 409 705 367 723 Q 354 727 333 720 Q 291 699 207 682 C 178 676 186 651 215 657 Q 216 658 220 658 Q 254 665 279 672 Q 333 687 345 679 Q 357 651 361 579 Q 362 359 350 316 Q 343 294 356 273 Q 369 245 378 246 Q 391 247 407 279 Q 420 304 420 324 Q 414 360 412 402 L 410 425 Z" fill="black" /></g></svg>