<?xml version='1.0' encoding='utf-8'?>
<svg xmlns="http://www.w3.org/2000/svg" version="1.1" viewBox="0 0 1024 1024"><g transform="scale(1, -1) translate(0, -900)"><path d="M 661 567 Q 662 619 659 623 Q 652 629 642 634 C 617 650 602 656 611 627 Q 617 617 618 595 Q 618 576 619 554 L 619 523 Q 619 489 620 454 L 621 423 Q 621 392 621 358 L 620 323 Q 620 143 609 44 Q 606 5 629 -22 Q 639 -35 648 -20 Q 669 22 663 99 Q 663 123 662 290 L 662 328 L 662 368 Q 662 399 662 430 L 662 461 Q 662 489 662 519 Q 661 526 661 533 L 661 567 Z" fill="black" /></g></svg>