<?xml version='1.0' encoding='utf-8'?>
<svg xmlns="http://www.w3.org/2000/svg" version="1.1" viewBox="0 0 1024 1024"><g transform="scale(1, -1) translate(0, -900)"><path d="M 183 656 Q 173 666 147 679 Q 128 689 119 683 Q 112 676 120 661 Q 166 562 125 181 Q 119 159 107 133 Q 98 118 108 99 Q 117 80 126 72 Q 136 65 152 77 Q 218 134 429 160 Q 451 161 451 173 Q 450 186 422 201 Q 401 213 342 190 L 303 180 Q 260 174 194 152 Q 187 149 182 152 Q 176 153 176 168 Q 183 340 187 556 Q 187 601 193 630 C 196 647 196 647 183 656 Z" fill="black" /></g></svg>