<?xml version='1.0' encoding='utf-8'?>
<svg xmlns="http://www.w3.org/2000/svg" version="1.1" viewBox="0 0 1024 1024"><g transform="scale(1, -1) translate(0, -900)"><path d="M 401 372 Q 394 456 395 570 Q 395 610 418 646 Q 427 661 419 669 Q 394 690 351 707 Q 338 711 317 703 Q 286 687 248 673 Q 214 663 185 658 C 156 652 170 626 199 633 Q 328 666 330 665 Q 331 665 334 663 Q 346 638 350 570 Q 351 368 340 329 Q 333 308 345 288 Q 358 261 366 262 Q 379 263 394 293 Q 407 317 406 336 Q 405 346 403 355 L 401 372 Z" fill="black" /></g></svg>