<?xml version='1.0' encoding='utf-8'?>
<svg xmlns="http://www.w3.org/2000/svg" version="1.1" viewBox="0 0 1024 1024"><g transform="scale(1, -1) translate(0, -900)"><path d="M 491 608 Q 491 605 502 572 Q 509 556 513 531 L 515 501 Q 515 497 516 437 L 516 402 Q 515 374 514 338 L 508 227 Q 505 166 485 92 Q 472 41 503 1 Q 512 -11 522 0 Q 537 21 544 234 Q 544 276 546 311 L 547 343 Q 548 380 549 410 L 550 443 Q 551 483 553 509 L 554 539 Q 554 552 556 556 Q 562 586 536 602 Q 532 606 525 608 C 499 623 484 632 491 608 Z" fill="black" /></g></svg>