<?xml version='1.0' encoding='utf-8'?>
<svg xmlns="http://www.w3.org/2000/svg" version="1.1" viewBox="0 0 1024 1024"><g transform="scale(1, -1) translate(0, -900)"><path d="M 362 288 Q 355 266 368 245 Q 381 217 390 218 Q 403 219 419 251 Q 432 276 432 296 Q 419 395 420 549 Q 419 595 444 633 Q 454 649 446 657 Q 418 679 372 697 Q 356 701 334 692 Q 306 676 271 661 Q 237 651 210 643 C 181 634 188 613 218 618 Q 233 618 296 637 Q 344 656 356 650 Q 368 622 372 550 Q 373 330 362 288 Z" fill="black" /></g></svg>