<?xml version='1.0' encoding='utf-8'?>
<svg xmlns="http://www.w3.org/2000/svg" version="1.1" viewBox="0 0 1024 1024"><g transform="scale(1, -1) translate(0, -900)"><path d="M 778 440 Q 824 444 882 445 Q 904 445 922 446 Q 940 447 943 454 Q 947 464 933 476 Q 882 509 825 493 Q 810 490 796 486 L 736 474 Q 700 470 662 461 L 620 454 Q 586 450 550 443 L 516 437 Q 468 433 418 423 Q 400 422 414 407 Q 427 395 442 391 Q 460 387 474 391 Q 493 397 516 402 L 549 410 Q 582 420 621 423 L 662 430 Q 690 434 731 437 L 778 440 Z" fill="black" /></g></svg>