<?xml version='1.0' encoding='utf-8'?>
<svg xmlns="http://www.w3.org/2000/svg" version="1.1" viewBox="0 0 1024 1024"><g transform="scale(1, -1) translate(0, -900)"><path d="M 382 375 Q 403 412 413 438 Q 426 472 436 478 Q 443 481 446 487 Q 447 494 432 512 Q 411 534 367 535 Q 360 536 353 537 Q 350 538 349 537 C 319 539 314 520 343 515 Q 379 509 384 499 Q 391 483 361 429 Q 346 408 337 406 Q 333 402 325 403 Q 319 404 303 408 Q 278 418 274 414 Q 271 407 283 399 Q 310 372 313 356 Q 316 344 324 340 Q 333 336 356 350 Q 359 353 362 355 L 382 375 Z" fill="black" /></g></svg>