<?xml version='1.0' encoding='utf-8'?>
<svg xmlns="http://www.w3.org/2000/svg" version="1.1" viewBox="0 0 1024 1024"><g transform="scale(1, -1) translate(0, -900)"><path d="M 608 412 Q 612 361 619 354 Q 629 342 637 359 Q 640 365 645 421 L 647 461 Q 648 480 649 502 L 649 542 Q 649 564 650 587 L 650 618 Q 651 646 652 671 L 654 717 Q 657 781 668 799 Q 674 812 658 824 Q 639 839 605 847 Q 590 851 580 840 Q 573 833 582 824 Q 598 811 601 791 Q 602 757 603 701 L 604 660 Q 604 636 605 606 L 606 576 Q 606 549 606 526 L 606 492 Q 606 470 606 446 L 608 412 Z" fill="black" /></g></svg>