<?xml version='1.0' encoding='utf-8'?>
<svg xmlns="http://www.w3.org/2000/svg" version="1.1" viewBox="0 0 1024 1024"><g transform="scale(1, -1) translate(0, -900)"><path d="M 650 587 Q 740 608 758 601 Q 767 597 765 568 Q 758 462 751 440 Q 747 424 754 409 Q 760 396 771 397 Q 783 400 789 414 Q 799 430 811 504 Q 821 552 851 582 Q 867 598 850 611 Q 834 624 785 644 Q 773 650 701 629 Q 692 629 650 618 L 605 606 Q 587 603 570 597 Q 518 584 483 575 C 454 568 479 539 508 548 Q 556 564 606 576 L 650 587 Z" fill="black" /></g></svg>