<?xml version='1.0' encoding='utf-8'?>
<svg xmlns="http://www.w3.org/2000/svg" version="1.1" viewBox="0 0 1024 1024"><g transform="scale(1, -1) translate(0, -900)"><path d="M 682 362 Q 712 369 752 385 Q 759 386 763 383 Q 757 157 762 130 Q 786 -51 952 -41 Q 965 -40 968 -33 Q 974 -23 965 -1 Q 955 33 952 91 Q 952 101 946 108 Q 940 114 937 99 Q 919 23 906 17 Q 899 14 892 15 Q 871 16 850 38 Q 796 89 793 202 Q 790 331 843 385 Q 853 392 843 401 Q 833 414 805 425 Q 778 435 767 428 Q 728 404 672 388 C 643 379 653 354 682 362 Z" fill="black" /></g></svg>