<?xml version='1.0' encoding='utf-8'?>
<svg xmlns="http://www.w3.org/2000/svg" version="1.1" viewBox="0 0 1024 1024"><g transform="scale(1, -1) translate(0, -900)"><path d="M 352 345 Q 345 324 357 304 Q 370 277 378 278 Q 391 279 406 309 Q 419 333 418 351 Q 406 448 409 597 Q 409 640 433 678 Q 443 693 435 701 Q 410 723 366 741 Q 351 745 331 737 Q 301 721 263 709 Q 227 699 199 694 C 170 688 176 665 206 669 Q 219 668 286 686 Q 337 702 350 695 Q 360 668 365 598 Q 364 385 352 345 Z" fill="black" /></g></svg>