<?xml version='1.0' encoding='utf-8'?>
<svg xmlns="http://www.w3.org/2000/svg" version="1.1" viewBox="0 0 1024 1024"><g transform="scale(1, -1) translate(0, -900)"><path d="M 209 329 Q 212 332 270 347 Q 283 353 288 346 Q 292 336 293 319 Q 300 159 294 63 Q 293 41 286 31 Q 283 28 227 36 Q 212 40 213 32 Q 256 1 282 -26 Q 292 -39 304 -43 Q 311 -46 317 -38 Q 347 -2 345 40 Q 324 298 344 336 Q 353 351 344 358 Q 328 371 301 382 Q 289 388 240 363 Q 225 359 201 351 C 172 342 181 319 209 329 Z" fill="black" /></g></svg>