<?xml version='1.0' encoding='utf-8'?>
<svg xmlns="http://www.w3.org/2000/svg" version="1.1" viewBox="0 0 1024 1024"><g transform="scale(1, -1) translate(0, -900)"><path d="M 609 673 Q 679 695 732 702 Q 744 703 747 700 Q 753 693 750 671 Q 746 611 733 585 Q 717 557 692 563 Q 670 570 650 580 Q 628 589 642 566 Q 679 524 695 492 Q 707 476 721 487 Q 766 514 794 614 Q 804 677 824 697 Q 834 709 830 717 Q 823 727 778 747 Q 760 754 744 744 Q 722 729 590 702 C 561 696 580 664 609 673 Z" fill="black" /></g></svg>