<?xml version='1.0' encoding='utf-8'?>
<svg xmlns="http://www.w3.org/2000/svg" version="1.1" viewBox="0 0 1024 1024"><g transform="scale(1, -1) translate(0, -900)"><path d="M 317 684 Q 332 669 338 631 Q 338 615 321 594 Q 309 575 336 557 Q 348 553 357 563 Q 409 593 566 609 Q 612 613 674 611 Q 692 611 699 621 Q 703 628 687 638 Q 639 672 585 652 Q 572 649 560 646 Q 478 633 399 612 Q 366 599 374 629 Q 375 657 380 669 Q 386 679 380 687 Q 377 690 370 692 C 345 709 299 708 317 684 Z" fill="black" /></g></svg>