<?xml version='1.0' encoding='utf-8'?>
<svg xmlns="http://www.w3.org/2000/svg" version="1.1" viewBox="0 0 1024 1024"><g transform="scale(1, -1) translate(0, -900)"><path d="M 801 417 Q 801 414 803 410 Q 807 397 819 397 Q 832 398 839 412 Q 852 428 873 509 Q 888 557 922 584 Q 938 599 924 613 Q 908 629 862 653 Q 850 660 786 647 Q 708 641 588 618 Q 521 606 476 600 C 446 596 466 562 495 569 Q 498 569 502 570 Q 548 583 627 596 L 658 600 Q 809 624 832 611 Q 842 605 836 576 Q 814 468 805 443 L 801 417 Z" fill="black" /></g></svg>