<?xml version='1.0' encoding='utf-8'?>
<svg xmlns="http://www.w3.org/2000/svg" version="1.1" viewBox="0 0 1024 1024"><g transform="scale(1, -1) translate(0, -900)"><path d="M 719 79 Q 747 42 769 8 Q 778 -10 789 -9 Q 804 -8 819 24 Q 835 61 832 105 Q 825 166 818 278 Q 817 305 832 323 Q 839 335 832 343 Q 816 359 771 381 Q 755 388 742 381 Q 714 365 668 349 Q 655 346 644 342 C 615 333 590 303 619 309 Q 643 312 734 339 Q 747 343 755 339 Q 779 305 764 109 L 764 107 Q 760 97 753 95 C 733 73 710 91 719 79 Z" fill="black" /></g></svg>