<?xml version='1.0' encoding='utf-8'?>
<svg xmlns="http://www.w3.org/2000/svg" version="1.1" viewBox="0 0 1024 1024"><g transform="scale(1, -1) translate(0, -900)"><path d="M 821 331 Q 766 321 718 305 L 674 291 Q 628 278 588 261 Q 578 260 582 271 Q 592 314 602 358 Q 608 380 600 393 Q 587 411 567 425 Q 557 432 548 431 Q 538 427 543 409 Q 559 357 546 309 Q 536 263 514 244 Q 498 228 504 215 Q 514 202 530 191 Q 543 184 552 192 Q 582 232 757 282 Q 796 294 814 293 C 844 295 850 337 821 331 Z" fill="black" /></g></svg>