<?xml version='1.0' encoding='utf-8'?>
<svg xmlns="http://www.w3.org/2000/svg" version="1.1" viewBox="0 0 1024 1024"><g transform="scale(1, -1) translate(0, -900)"><path d="M 753 276 Q 780 222 843 170 Q 895 130 919 132 Q 935 136 929 159 Q 925 198 926 311 Q 925 330 919 330 Q 915 330 885 257 Q 872 221 844 239 Q 840 243 834 247 Q 806 275 783 309 L 762 343 Q 726 400 699 532 L 691 571 Q 669 691 678 772 Q 688 808 640 825 Q 609 838 592 831 Q 576 825 584 808 Q 624 774 625 744 Q 638 638 655 557 L 663 521 Q 693 391 735 309 L 753 276 Z" fill="black" /></g></svg>