<?xml version='1.0' encoding='utf-8'?>
<svg xmlns="http://www.w3.org/2000/svg" version="1.1" viewBox="0 0 1024 1024"><g transform="scale(1, -1) translate(0, -900)"><path d="M 577 534 Q 564 541 536 549 Q 523 550 517 547 Q 511 541 521 526 Q 557 478 542 340 Q 526 283 502 253 Q 492 243 499 225 Q 506 200 519 190 Q 529 183 541 195 Q 566 235 650 317 Q 663 327 664 334 Q 665 340 660 339 Q 656 339 595 306 Q 591 303 588 305 Q 584 306 585 317 Q 586 461 588 497 C 589 527 589 528 577 534 Z" fill="black" /></g></svg>