<?xml version='1.0' encoding='utf-8'?>
<svg xmlns="http://www.w3.org/2000/svg" version="1.1" viewBox="0 0 1024 1024"><g transform="scale(1, -1) translate(0, -900)"><path d="M 602 516 Q 609 517 618 520 Q 673 533 728 545 Q 744 549 753 541 Q 760 535 760 514 Q 767 349 763 249 Q 762 222 753 211 Q 752 211 691 214 Q 672 221 672 211 Q 718 165 743 134 Q 756 115 771 109 Q 780 105 789 115 Q 831 169 830 218 Q 806 485 829 528 Q 842 547 829 557 Q 808 576 772 591 Q 753 598 739 593 Q 703 574 682 564 L 647 555 Q 622 551 588 546 C 558 542 573 509 602 516 Z" fill="black" /></g></svg>