<?xml version='1.0' encoding='utf-8'?>
<svg xmlns="http://www.w3.org/2000/svg" version="1.1" viewBox="0 0 1024 1024"><g transform="scale(1, -1) translate(0, -900)"><path d="M 602 695 Q 632 691 762 719 Q 825 734 833 724 Q 834 720 835 702 Q 835 632 825 593 Q 818 568 810 554 Q 804 542 795 540 Q 791 536 751 535 Q 744 536 743 532 Q 743 529 752 522 Q 774 498 782 480 Q 788 470 794 469 Q 815 469 843 508 Q 868 553 892 683 Q 893 699 905 708 Q 915 718 914 725 Q 913 732 898 742 Q 877 758 850 766 Q 829 773 815 766 Q 799 759 756 747 Q 698 731 657 722 Q 632 718 616 714 C 587 708 572 695 602 695 Z" fill="black" /></g></svg>