<?xml version='1.0' encoding='utf-8'?>
<svg xmlns="http://www.w3.org/2000/svg" version="1.1" viewBox="0 0 1024 1024"><g transform="scale(1, -1) translate(0, -900)"><path d="M 508 657 Q 527 651 578 650 Q 594 647 601 638 Q 605 632 600 607 Q 581 565 565 549 Q 555 543 541 545 Q 534 546 515 556 Q 487 571 482 566 Q 478 559 491 549 Q 521 519 526 490 Q 529 477 537 471 Q 547 465 575 481 Q 617 508 639 576 Q 648 604 663 619 Q 670 623 672 630 Q 673 637 655 656 Q 630 681 578 676 Q 542 679 528 680 C 498 682 479 664 508 657 Z" fill="black" /></g></svg>