<?xml version='1.0' encoding='utf-8'?>
<svg xmlns="http://www.w3.org/2000/svg" version="1.1" viewBox="0 0 1024 1024"><g transform="scale(1, -1) translate(0, -900)"><path d="M 617 413 Q 621 479 626 545 L 630 595 Q 631 704 656 758 Q 663 773 651 784 Q 629 803 587 815 Q 560 821 552 814 Q 542 807 550 794 Q 575 755 578 707 Q 581 644 580 582 L 578 534 Q 575 456 567 405 L 561 364 Q 531 214 450 126 Q 402 80 332 32 Q 320 23 320 19 Q 321 15 334 15 Q 350 11 394 30 Q 541 84 593 278 Q 600 306 605 337 L 617 413 Z" fill="black" /></g></svg>