<?xml version='1.0' encoding='utf-8'?>
<svg xmlns="http://www.w3.org/2000/svg" version="1.1" viewBox="0 0 1024 1024"><g transform="scale(1, -1) translate(0, -900)"><path d="M 682 183 Q 592 93 490 53 Q 466 46 468 42 Q 471 30 534 50 Q 624 77 712 144 L 749 182 Q 813 263 835 364 Q 848 404 871 422 Q 875 426 875 434 Q 872 455 823 481 Q 804 488 779 478 Q 770 471 741 464 Q 708 454 734 505 Q 806 631 816 635 Q 828 645 841 657 Q 845 669 804 692 Q 758 719 721 696 Q 633 657 491 641 Q 488 642 485 641 Q 464 640 465 629 Q 466 620 496 611 Q 509 607 532 608 L 570 616 Q 586 622 718 655 Q 734 659 738 651 Q 745 633 698 526 Q 682 501 665 484 Q 650 468 657 453 Q 664 438 674 430 Q 683 423 690 424 Q 696 424 710 431 Q 758 455 783 428 Q 793 416 780 378 Q 761 281 721 231 Q 717 225 712 218 L 682 183 Z" fill="black" /></g></svg>