<?xml version='1.0' encoding='utf-8'?>
<svg xmlns="http://www.w3.org/2000/svg" version="1.1" viewBox="0 0 1024 1024"><g transform="scale(1, -1) translate(0, -900)"><path d="M 634 197 Q 618 172 595 147 Q 540 95 401 54 Q 385 50 395 42 Q 402 36 431 40 Q 522 50 577 77 Q 629 102 669 158 L 695 199 Q 723 250 745 320 Q 752 354 773 372 Q 789 385 771 401 Q 752 417 718 432 Q 697 439 675 429 Q 629 404 562 394 C 532 389 520 361 550 364 Q 562 363 667 384 Q 688 390 688 366 Q 688 315 655 235 L 634 197 Z" fill="black" /></g></svg>