<?xml version='1.0' encoding='utf-8'?>
<svg xmlns="http://www.w3.org/2000/svg" version="1.1" viewBox="0 0 1024 1024"><g transform="scale(1, -1) translate(0, -900)"><path d="M 526 384 Q 514 396 494 403 Q 485 406 482 404 C 460 409 460 409 469 387 Q 482 374 483 310 Q 483 309 483 305 Q 474 95 514 51 Q 533 11 671 1 Q 683 1 696 1 Q 804 4 876 58 Q 895 74 882 99 Q 869 127 849 210 Q 848 226 841 230 Q 835 233 831 216 Q 806 125 789 98 Q 777 82 739 71 Q 652 50 576 79 Q 546 94 538 112 Q 510 172 536 345 C 540 374 540 374 526 384 Z" fill="black" /></g></svg>