<?xml version='1.0' encoding='utf-8'?>
<svg xmlns="http://www.w3.org/2000/svg" version="1.1" viewBox="0 0 1024 1024"><g transform="scale(1, -1) translate(0, -900)"><path d="M 678 168 Q 724 232 765 326 Q 778 356 800 373 Q 821 389 808 403 Q 795 416 763 430 Q 739 439 711 426 Q 683 416 650 405 L 606 394 Q 566 388 512 382 Q 497 382 492 374 Q 488 367 507 359 Q 544 344 595 359 Q 676 384 691 382 Q 713 379 706 356 Q 682 266 640 203 L 615 172 Q 534 82 357 36 Q 342 32 354 23 Q 361 17 414 21 Q 540 30 647 131 L 678 168 Z" fill="black" /></g></svg>