<?xml version='1.0' encoding='utf-8'?>
<svg xmlns="http://www.w3.org/2000/svg" version="1.1" viewBox="0 0 1024 1024"><g transform="scale(1, -1) translate(0, -900)"><path d="M 539 574 Q 543 570 552 564 Q 574 549 597 557 Q 783 608 789 586 Q 792 576 792 552 Q 785 390 750 354 Q 740 344 716 350 Q 697 353 678 356 Q 657 363 672 343 Q 703 303 721 272 Q 727 256 744 259 Q 757 260 774 279 Q 825 327 847 516 Q 851 558 869 582 Q 884 601 876 611 Q 861 627 829 642 Q 807 654 781 643 Q 681 598 552 592 C 522 590 517 590 539 574 Z" fill="black" /></g></svg>