<?xml version='1.0' encoding='utf-8'?>
<svg xmlns="http://www.w3.org/2000/svg" version="1.1" viewBox="0 0 1024 1024"><g transform="scale(1, -1) translate(0, -900)"><path d="M 516 500 Q 543 507 572 512 Q 582 513 585 508 Q 592 492 590 449 Q 580 293 552 210 Q 537 158 521 142 Q 511 132 492 138 Q 461 148 433 160 Q 414 167 427 148 Q 467 105 489 70 Q 498 51 517 56 Q 535 59 557 85 Q 618 154 634 412 Q 638 470 658 504 Q 671 520 663 529 Q 650 544 622 555 Q 601 565 580 555 Q 555 543 522 532 L 469 518 Q 414 505 382 504 Q 369 505 368 497 Q 367 490 384 481 Q 403 468 422 475 Q 441 482 464 487 L 516 500 Z" fill="black" /></g></svg>