<?xml version='1.0' encoding='utf-8'?>
<svg xmlns="http://www.w3.org/2000/svg" version="1.1" viewBox="0 0 1024 1024"><g transform="scale(1, -1) translate(0, -900)"><path d="M 714 181 Q 747 236 769 321 Q 775 355 793 372 Q 808 387 790 401 Q 769 416 738 427 Q 723 431 665 405 L 623 392 Q 592 385 556 378 Q 534 377 524 370 C 504 363 504 363 523 357 Q 554 342 591 354 Q 640 366 690 378 Q 712 385 712 361 Q 712 286 675 216 L 655 179 Q 645 166 634 151 Q 588 102 472 62 Q 457 58 467 50 Q 474 46 501 50 Q 580 60 626 86 Q 660 105 687 140 L 714 181 Z" fill="black" /></g></svg>