<?xml version='1.0' encoding='utf-8'?>
<svg xmlns="http://www.w3.org/2000/svg" version="1.1" viewBox="0 0 1024 1024"><g transform="scale(1, -1) translate(0, -900)"><path d="M 588 429 Q 584 634 592 652 Q 599 667 591 674 Q 575 687 547 697 Q 535 701 494 678 Q 481 672 457 664 C 429 654 459 634 486 646 Q 502 653 518 661 Q 531 667 536 661 Q 548 633 552 423 L 552 386 Q 553 170 542 150 Q 539 146 525 149 Q 504 153 483 159 Q 468 163 469 157 Q 512 120 536 92 Q 546 79 558 75 Q 565 72 571 79 Q 601 115 600 157 Q 593 256 589 392 L 588 429 Z" fill="black" /></g></svg>