<?xml version='1.0' encoding='utf-8'?>
<svg xmlns="http://www.w3.org/2000/svg" version="1.1" viewBox="0 0 1024 1024"><g transform="scale(1, -1) translate(0, -900)"><path d="M 749 92 Q 727 93 706 96 Q 687 100 689 92 Q 740 55 769 25 Q 782 9 796 5 Q 805 2 812 11 Q 848 57 843 106 Q 833 233 827 415 L 825 472 Q 821 649 831 669 Q 841 687 831 695 Q 812 711 778 724 Q 760 730 719 707 Q 709 703 697 698 C 669 686 680 655 707 667 Q 711 668 717 670 Q 727 676 739 681 Q 757 687 762 678 Q 769 657 773 625 Q 777 540 780 463 L 782 413 Q 789 122 773 93 Q 769 89 749 92 Z" fill="black" /></g></svg>