<?xml version='1.0' encoding='utf-8'?>
<svg xmlns="http://www.w3.org/2000/svg" version="1.1" viewBox="0 0 1024 1024"><g transform="scale(1, -1) translate(0, -900)"><path d="M 550 658 Q 534 671 515 677 Q 502 681 493 674 Q 487 667 497 651 Q 515 623 513 582 Q 514 470 476 413 Q 464 398 470 387 Q 479 368 496 352 Q 509 342 525 355 Q 558 382 662 401 L 713 408 Q 771 415 845 412 Q 867 409 877 416 Q 884 422 877 434 Q 871 446 833 467 Q 812 477 745 464 Q 739 464 714 459 L 660 449 Q 609 442 561 427 Q 551 423 549 426 Q 539 433 544 454 Q 559 581 572 617 Q 578 632 565 644 L 550 658 Z" fill="black" /></g></svg>