<?xml version='1.0' encoding='utf-8'?>
<svg xmlns="http://www.w3.org/2000/svg" version="1.1" viewBox="0 0 1024 1024"><g transform="scale(1, -1) translate(0, -900)"><path d="M 662 401 Q 666 242 660 153 Q 660 128 647 119 Q 637 112 621 115 Q 581 119 542 125 Q 529 126 532 118 Q 533 111 544 105 Q 631 53 665 16 Q 680 0 694 16 Q 727 55 721 121 Q 717 161 713 408 L 714 459 Q 715 484 723 504 Q 732 522 715 535 Q 690 557 659 566 Q 641 572 633 564 Q 627 558 638 543 Q 659 506 660 449 L 662 401 Z" fill="black" /></g></svg>