<?xml version='1.0' encoding='utf-8'?>
<svg xmlns="http://www.w3.org/2000/svg" version="1.1" viewBox="0 0 1024 1024"><g transform="scale(1, -1) translate(0, -900)"><path d="M 753 487 Q 754 355 758 140 Q 758 118 746 109 Q 739 103 673 116 Q 640 126 643 117 Q 644 110 665 95 Q 728 47 744 19 Q 763 -14 779 -15 Q 794 -15 807 20 Q 823 66 820 139 Q 804 317 802 494 L 801 540 Q 801 667 816 726 Q 832 757 776 777 Q 742 795 723 788 Q 705 781 722 758 Q 744 731 746 698 Q 749 680 752 529 L 753 487 Z" fill="black" /></g></svg>