<?xml version='1.0' encoding='utf-8'?>
<svg xmlns="http://www.w3.org/2000/svg" version="1.1" viewBox="0 0 1024 1024"><g transform="scale(1, -1) translate(0, -900)"><path d="M 457 664 Q 451 668 442 670 Q 426 677 416 671 Q 407 664 414 654 Q 450 609 441 415 Q 441 411 441 406 L 436 359 Q 418 230 351 95 Q 347 88 346 84 Q 345 74 354 77 Q 384 92 435 201 Q 442 222 451 246 Q 467 304 477 369 L 481 412 Q 484 445 484 595 Q 484 611 486 627 Q 490 637 486 646 C 486 652 485 653 457 664 Z" fill="black" /></g></svg>