<?xml version='1.0' encoding='utf-8'?>
<svg xmlns="http://www.w3.org/2000/svg" version="1.1" viewBox="0 0 1024 1024"><g transform="scale(1, -1) translate(0, -900)"><path d="M 581 501 Q 584 582 587 664 C 588 684 588 684 566 696 Q 556 703 538 712 Q 517 722 509 715 Q 502 708 509 693 Q 528 657 530 592 Q 539 385 522 194 Q 519 154 495 117 Q 485 102 494 81 Q 501 59 512 50 Q 522 41 540 54 Q 640 118 927 108 Q 952 107 954 119 Q 954 135 925 156 Q 907 171 807 156 Q 644 144 600 136 Q 588 133 583 138 Q 577 139 576 156 Q 577 229 579 308 L 579 337 Q 580 403 581 472 L 581 501 Z" fill="black" /></g></svg>