<?xml version='1.0' encoding='utf-8'?>
<svg xmlns="http://www.w3.org/2000/svg" version="1.1" viewBox="0 0 1024 1024"><g transform="scale(1, -1) translate(0, -900)"><path d="M 687 537 Q 687 530 695 517 Q 705 493 706 453 Q 709 360 710 147 Q 709 119 699 108 Q 689 102 666 110 Q 648 116 625 123 Q 613 127 613 120 Q 613 113 622 102 Q 674 47 706 4 Q 718 -6 732 10 Q 744 26 759 60 Q 772 94 772 140 Q 769 192 764 274 Q 763 377 768 475 Q 774 502 768 512 Q 758 525 724 543 C 698 558 676 565 687 537 Z" fill="black" /></g></svg>