<?xml version='1.0' encoding='utf-8'?>
<svg xmlns="http://www.w3.org/2000/svg" version="1.1" viewBox="0 0 1024 1024"><g transform="scale(1, -1) translate(0, -900)"><path d="M 498 180 Q 541 211 630 232 Q 666 242 687 236 Q 709 229 712 193 Q 706 123 674 67 Q 659 42 645 37 Q 627 30 552 54 Q 536 61 534 54 Q 534 48 546 36 Q 589 -6 616 -43 Q 626 -55 637 -54 Q 653 -55 672 -42 Q 732 15 763 162 Q 763 195 778 221 Q 790 234 779 246 Q 763 262 724 278 Q 703 287 628 262 Q 598 256 561 249 Q 542 245 551 264 Q 573 301 582 310 Q 595 323 585 338 Q 576 345 565 350 C 540 367 513 370 517 340 L 518 339 Q 530 312 497 263 Q 490 253 469 238 Q 453 222 455 207 Q 456 194 473 179 Q 485 169 498 180 Z" fill="black" /></g></svg>