<?xml version='1.0' encoding='utf-8'?>
<svg xmlns="http://www.w3.org/2000/svg" version="1.1" viewBox="0 0 1024 1024"><g transform="scale(1, -1) translate(0, -900)"><path d="M 977 83 Q 990 96 974 122 Q 955 167 947 226 Q 946 236 938 244 Q 928 248 926 226 Q 919 205 909 170 Q 897 118 867 110 Q 795 94 747 111 Q 723 120 710 151 Q 692 212 704 459 Q 716 688 744 731 Q 757 771 676 799 Q 673 800 671 800 Q 652 804 645 795 Q 636 786 643 777 Q 656 764 664 743 Q 668 716 661 555 Q 637 141 691 92 Q 742 41 903 55 Q 913 58 924 59 Q 961 69 977 83 Z" fill="black" /></g></svg>