<?xml version='1.0' encoding='utf-8'?>
<svg xmlns="http://www.w3.org/2000/svg" version="1.1" viewBox="0 0 1024 1024"><g transform="scale(1, -1) translate(0, -900)"><path d="M 547 751 Q 571 755 634 775 Q 650 779 655 774 Q 662 767 657 735 Q 639 587 655 537 Q 671 504 738 489 Q 799 479 854 491 Q 891 501 917 522 Q 930 532 923 546 Q 901 591 887 644 Q 877 675 868 644 Q 858 571 843 559 Q 834 544 789 538 Q 740 531 706 552 Q 685 568 688 650 Q 689 711 745 776 Q 758 789 741 804 Q 716 820 684 829 Q 662 836 649 821 Q 613 797 538 777 Q 537 777 537 776 C 508 767 518 744 547 751 Z" fill="black" /></g></svg>