<?xml version='1.0' encoding='utf-8'?>
<svg xmlns="http://www.w3.org/2000/svg" version="1.1" viewBox="0 0 1024 1024"><g transform="scale(1, -1) translate(0, -900)"><path d="M 615 376 Q 675 394 720 400 Q 730 401 732 398 Q 738 391 737 372 Q 738 318 729 294 Q 713 260 684 264 Q 666 265 649 267 Q 627 271 645 252 Q 681 222 698 199 Q 710 184 723 196 Q 765 226 788 330 Q 794 381 810 400 Q 820 410 814 420 Q 807 429 763 446 Q 747 453 730 442 Q 717 435 667 421 Q 628 411 595 404 C 566 398 586 368 615 376 Z" fill="black" /></g></svg>