<?xml version='1.0' encoding='utf-8'?>
<svg xmlns="http://www.w3.org/2000/svg" version="1.1" viewBox="0 0 1024 1024"><g transform="scale(1, -1) translate(0, -900)"><path d="M 946 110 Q 933 135 913 210 Q 912 226 905 230 Q 899 233 895 216 Q 870 134 853 109 Q 840 94 800 84 Q 710 63 637 89 Q 609 101 603 118 Q 576 175 614 367 Q 615 371 615 376 C 618 392 618 392 595 404 Q 586 411 575 415 Q 563 419 555 415 Q 548 411 553 394 Q 563 357 560 322 Q 544 150 557 101 Q 560 79 582 60 Q 652 2 829 28 Q 842 31 856 34 Q 899 44 941 70 Q 959 86 946 110 Z" fill="black" /></g></svg>