<?xml version='1.0' encoding='utf-8'?>
<svg xmlns="http://www.w3.org/2000/svg" version="1.1" viewBox="0 0 1024 1024"><g transform="scale(1, -1) translate(0, -900)"><path d="M 853 441 Q 841 462 821 524 Q 820 537 813 542 Q 807 545 804 529 Q 785 459 770 438 Q 737 402 635 404 Q 595 404 566 415 Q 539 425 534 441 Q 524 466 537 536 C 541 558 541 558 525 567 Q 516 574 505 577 Q 495 581 489 577 Q 483 574 487 560 Q 497 530 495 501 Q 489 398 545 374 Q 558 368 581 361 Q 729 324 844 401 Q 845 402 849 404 Q 865 419 853 441 Z" fill="black" /></g></svg>