<?xml version='1.0' encoding='utf-8'?>
<svg xmlns="http://www.w3.org/2000/svg" version="1.1" viewBox="0 0 1024 1024"><g transform="scale(1, -1) translate(0, -900)"><path d="M 707 651 Q 711 708 723 737 Q 733 765 716 779 Q 670 813 655 809 Q 642 803 649 788 Q 668 754 665 704 Q 664 499 693 471 Q 708 456 753 447 Q 792 440 854 442 Q 911 443 933 454 Q 960 469 947 497 Q 931 528 918 583 Q 917 598 909 602 Q 902 606 899 588 Q 884 521 874 510 Q 858 492 790 487 Q 753 487 736 492 Q 708 508 705 613 Q 705 620 705 627 L 707 651 Z" fill="black" /></g></svg>