<?xml version='1.0' encoding='utf-8'?>
<svg xmlns="http://www.w3.org/2000/svg" version="1.1" viewBox="0 0 1024 1024"><g transform="scale(1, -1) translate(0, -900)"><path d="M 680 486 Q 761 390 863 368 Q 864 369 867 368 Q 889 372 882 400 Q 872 428 864 561 Q 863 571 858 573 Q 854 573 851 562 Q 842 529 835 498 Q 825 458 811 456 Q 784 455 718 514 L 689 546 Q 659 582 635 625 Q 634 626 632 628 L 614 665 Q 590 729 597 771 Q 600 789 564 804 Q 528 820 519 815 Q 509 809 514 795 Q 536 774 548 734 Q 561 691 577 651 L 593 614 Q 615 569 656 516 L 680 486 Z" fill="black" /></g></svg>