<?xml version='1.0' encoding='utf-8'?>
<svg xmlns="http://www.w3.org/2000/svg" version="1.1" viewBox="0 0 1024 1024"><g transform="scale(1, -1) translate(0, -900)"><path d="M 463 203 Q 454 204 441 203 Q 419 200 402 203 Q 386 206 382 204 Q 373 198 380 185 Q 382 183 382 182 Q 392 169 435 166 Q 472 172 504 163 Q 525 158 546 143 Q 612 98 741 39 Q 775 20 823 39 L 943 86 Q 962 94 962 104 Q 962 118 921 112 Q 918 112 913 112 L 803 112 Q 735 112 688 129 L 512 194 Q 503 197 488 200 L 463 203 Z" fill="black" /></g></svg>