<?xml version='1.0' encoding='utf-8'?>
<svg xmlns="http://www.w3.org/2000/svg" version="1.1" viewBox="0 0 1024 1024"><g transform="scale(1, -1) translate(0, -900)"><path d="M 493 199 Q 511 217 503 255 Q 497 271 478 301 Q 460 337 487 387 Q 503 421 520 440 Q 538 456 521 468 Q 505 481 477 491 Q 459 501 425 472 Q 365 447 364 446 Q 358 446 357 442 Q 356 438 362 435 Q 392 422 438 444 Q 445 447 452 438 Q 474 417 453 390 Q 410 342 452 278 Q 473 227 470 201 C 470 171 476 175 493 199 Z" fill="black" /></g></svg>