<?xml version='1.0' encoding='utf-8'?>
<svg xmlns="http://www.w3.org/2000/svg" version="1.1" viewBox="0 0 1024 1024"><g transform="scale(1, -1) translate(0, -900)"><path d="M 403 608 Q 403 635 404 663 L 404 713 Q 405 768 414 780 Q 424 790 419 800 Q 413 812 394 822 Q 360 838 349 833 Q 334 827 345 813 Q 360 794 362 699 L 362 653 Q 363 650 363 646 Q 362 618 362 593 L 361 560 Q 360 517 359 509 Q 355 481 337 486 Q 327 487 300 487 Q 287 490 284 485 Q 283 479 298 470 Q 325 452 356 422 Q 363 406 373 403 Q 380 400 384 404 Q 412 437 404 518 Q 403 525 403 582 L 403 608 Z" fill="black" /></g></svg>