<?xml version='1.0' encoding='utf-8'?>
<svg xmlns="http://www.w3.org/2000/svg" version="1.1" viewBox="0 0 1024 1024"><g transform="scale(1, -1) translate(0, -900)"><path d="M 524 284 Q 552 335 578 391 L 593 429 Q 594 433 597 438 Q 607 472 619 506 L 631 547 Q 640 584 650 622 L 659 669 Q 666 714 683 756 Q 693 769 687 784 Q 674 803 643 821 Q 625 834 611 831 Q 598 824 603 810 Q 615 789 616 741 Q 603 671 600 653 L 592 611 Q 583 572 573 534 L 563 495 Q 550 456 536 420 L 520 379 Q 459 246 342 106 Q 336 100 333 94 Q 329 84 340 84 Q 380 91 475 209 Q 497 239 518 273 Q 518 274 519 275 L 524 284 Z" fill="black" /></g></svg>