<?xml version='1.0' encoding='utf-8'?>
<svg xmlns="http://www.w3.org/2000/svg" version="1.1" viewBox="0 0 1024 1024"><g transform="scale(1, -1) translate(0, -900)"><path d="M 649 483 Q 781 517 799 500 Q 809 494 812 448 Q 822 292 814 115 Q 813 90 803 82 Q 791 72 727 79 Q 712 80 714 71 Q 715 65 728 60 Q 786 26 818 -3 Q 837 -19 849 -17 Q 859 -14 869 12 Q 882 54 879 113 Q 866 341 866 425 Q 865 461 876 482 Q 886 501 877 513 Q 867 526 823 547 Q 804 556 733 534 Q 520 495 501 491 C 472 485 496 445 525 453 Q 528 456 609 474 L 649 483 Z" fill="black" /></g></svg>