<?xml version='1.0' encoding='utf-8'?>
<svg xmlns="http://www.w3.org/2000/svg" version="1.1" viewBox="0 0 1024 1024"><g transform="scale(1, -1) translate(0, -900)"><path d="M 687 522 Q 742 471 794 445 Q 872 412 896 418 Q 909 424 895 457 Q 886 476 877 531 Q 874 559 863 569 Q 854 576 854 562 Q 845 493 829 485 Q 793 476 717 540 L 691 567 Q 661 598 631 644 L 608 683 Q 575 747 574 784 Q 574 812 535 820 Q 492 830 470 822 Q 464 818 464 810 Q 464 803 474 796 Q 507 781 550 698 Q 560 680 574 660 L 596 626 Q 627 583 665 544 L 687 522 Z" fill="black" /></g></svg>