<?xml version='1.0' encoding='utf-8'?>
<svg xmlns="http://www.w3.org/2000/svg" version="1.1" viewBox="0 0 1024 1024"><g transform="scale(1, -1) translate(0, -900)"><path d="M 672 47 Q 644 54 614 62 Q 602 66 603 58 Q 603 52 613 44 Q 674 -17 695 -54 Q 708 -70 724 -57 Q 760 -30 760 42 Q 751 210 758 277 L 767 320 Q 767 323 769 325 Q 776 343 761 355 Q 737 376 709 386 Q 691 393 684 385 Q 678 379 688 364 Q 703 337 707 307 L 708 269 Q 709 142 704 74 Q 703 55 692 49 Q 685 43 672 47 Z" fill="black" /></g></svg>