<?xml version='1.0' encoding='utf-8'?>
<svg xmlns="http://www.w3.org/2000/svg" version="1.1" viewBox="0 0 1024 1024"><g transform="scale(1, -1) translate(0, -900)"><path d="M 649 164 Q 739 28 852 -26 Q 930 -57 948 -40 Q 964 -30 954 6 Q 944 34 932 138 Q 931 159 926 162 Q 922 163 917 144 Q 884 45 859 49 Q 772 73 685 194 L 655 243 Q 631 282 610 340 L 595 382 Q 583 419 585 465 Q 589 490 543 505 Q 506 517 490 510 Q 472 504 488 481 Q 519 448 533 408 Q 540 384 551 360 L 566 323 Q 591 266 620 213 Q 620 212 621 211 L 649 164 Z" fill="black" /></g></svg>