<?xml version='1.0' encoding='utf-8'?>
<svg xmlns="http://www.w3.org/2000/svg" version="1.1" viewBox="0 0 1024 1024"><g transform="scale(1, -1) translate(0, -900)"><path d="M 630 44 Q 634 23 639 15 Q 643 8 650 11 Q 657 14 661 26 Q 673 66 674 231 L 675 271 Q 675 302 677 340 L 678 380 Q 678 383 679 386 Q 679 411 687 443 Q 690 458 678 466 Q 660 478 649 483 C 623 497 595 500 609 474 Q 609 471 620 455 Q 629 437 629 365 L 629 326 Q 629 295 628 258 L 627 220 Q 627 66 630 44 Z" fill="black" /></g></svg>