<?xml version='1.0' encoding='utf-8'?>
<svg xmlns="http://www.w3.org/2000/svg" version="1.1" viewBox="0 0 1024 1024"><g transform="scale(1, -1) translate(0, -900)"><path d="M 518 559 Q 519 555 528 552 Q 568 536 595 547 Q 626 559 767 591 Q 791 595 801 586 Q 838 543 819 278 Q 809 178 783 99 Q 773 74 761 67 Q 755 64 674 88 Q 662 92 658 89 Q 654 82 670 69 Q 712 26 733 -13 Q 754 -43 771 -37 Q 787 -33 807 -3 Q 837 36 856 107 Q 875 192 882 473 Q 882 545 901 570 Q 917 591 895 606 Q 819 652 771 629 Q 630 587 527 570 Q 524 570 525 569 C 505 565 505 565 518 559 Z" fill="black" /></g></svg>