<?xml version='1.0' encoding='utf-8'?>
<svg xmlns="http://www.w3.org/2000/svg" version="1.1" viewBox="0 0 1024 1024"><g transform="scale(1, -1) translate(0, -900)"><path d="M 717 407 Q 733 382 749 373 Q 759 366 774 386 Q 787 407 818 522 Q 827 550 849 573 Q 862 583 852 597 Q 839 613 799 639 Q 784 648 716 632 Q 704 632 647 620 L 610 614 Q 600 613 591 611 Q 536 601 491 595 C 461 591 493 560 522 568 Q 522 569 524 569 Q 596 588 723 606 Q 751 610 760 601 Q 770 588 768 574 Q 746 463 736 446 Q 733 434 717 431 C 704 425 704 425 717 407 Z" fill="black" /></g></svg>