<?xml version='1.0' encoding='utf-8'?>
<svg xmlns="http://www.w3.org/2000/svg" version="1.1" viewBox="0 0 1024 1024"><g transform="scale(1, -1) translate(0, -900)"><path d="M 639 424 Q 639 473 639 522 L 639 555 Q 640 582 640 608 Q 639 618 639 627 L 639 666 Q 639 727 638 728 Q 629 735 617 743 C 593 760 575 766 584 737 Q 591 725 593 700 Q 593 678 594 653 L 595 619 Q 595 582 595 544 L 596 516 Q 596 467 595 417 L 594 341 Q 594 158 583 41 Q 580 2 604 -30 Q 616 -43 625 -27 Q 650 21 643 64 Q 640 110 639 355 L 639 424 Z" fill="black" /></g></svg>