<?xml version='1.0' encoding='utf-8'?>
<svg xmlns="http://www.w3.org/2000/svg" version="1.1" viewBox="0 0 1024 1024"><g transform="scale(1, -1) translate(0, -900)"><path d="M 708 401 Q 750 408 791 412 Q 806 412 809 405 Q 815 389 809 350 Q 787 205 754 131 Q 736 83 719 70 Q 706 58 681 68 Q 653 78 628 87 Q 606 97 620 73 Q 657 22 676 -16 Q 683 -37 703 -34 Q 722 -33 746 -10 Q 815 50 862 303 Q 872 358 896 390 Q 914 409 906 420 Q 893 439 860 456 Q 836 471 810 461 Q 663 409 529 412 C 499 412 493 412 516 394 Q 528 382 541 375 C 550 369 550 369 578 375 Q 620 385 662 393 L 708 401 Z" fill="black" /></g></svg>