<?xml version='1.0' encoding='utf-8'?>
<svg xmlns="http://www.w3.org/2000/svg" version="1.1" viewBox="0 0 1024 1024"><g transform="scale(1, -1) translate(0, -900)"><path d="M 716 286 Q 774 296 842 299 Q 860 295 865 285 Q 871 278 865 266 Q 855 110 841 89 Q 837 80 826 84 Q 804 88 781 93 Q 751 99 770 78 Q 824 20 844 -18 Q 853 -33 866 -23 Q 891 -2 907 75 Q 923 235 944 261 Q 959 280 953 287 Q 946 300 899 332 Q 881 345 867 340 Q 839 331 789 324 Q 662 309 592 296 L 558 289 Q 546 288 537 285 Q 494 275 460 269 C 431 263 448 221 476 231 Q 528 249 551 254 L 574 260 Q 613 273 672 281 L 716 286 Z" fill="black" /></g></svg>