<?xml version='1.0' encoding='utf-8'?>
<svg xmlns="http://www.w3.org/2000/svg" version="1.1" viewBox="0 0 1024 1024"><g transform="scale(1, -1) translate(0, -900)"><path d="M 692 526 Q 710 501 725 494 Q 735 487 749 507 Q 762 529 785 656 Q 792 684 813 707 Q 825 717 814 730 Q 801 746 761 768 Q 746 774 688 760 Q 684 760 681 758 Q 614 746 548 727 C 519 719 526 686 554 697 Q 554 698 556 699 Q 608 715 699 730 Q 717 733 726 727 Q 739 718 736 699 Q 718 567 703 552 C 690 528 690 528 692 526 Z" fill="black" /></g></svg>