<?xml version='1.0' encoding='utf-8'?>
<svg xmlns="http://www.w3.org/2000/svg" version="1.1" viewBox="0 0 1024 1024"><g transform="scale(1, -1) translate(0, -900)"><path d="M 678 138 Q 693 151 697 284 L 697 321 Q 697 349 697 383 L 697 421 Q 697 448 697 476 L 697 512 Q 697 545 697 572 L 697 605 Q 697 644 699 674 L 701 712 Q 701 749 716 775 Q 722 788 706 800 Q 687 815 653 823 Q 638 827 628 816 Q 621 809 630 800 Q 652 781 655 753 Q 655 731 655 699 L 655 666 Q 655 635 655 598 L 655 565 Q 655 537 655 502 L 655 470 Q 655 439 655 410 L 654 375 Q 653 341 653 314 L 652 278 Q 655 161 665 144 C 671 121 671 121 678 138 Z" fill="black" /></g></svg>