<?xml version='1.0' encoding='utf-8'?>
<svg xmlns="http://www.w3.org/2000/svg" version="1.1" viewBox="0 0 1024 1024"><g transform="scale(1, -1) translate(0, -900)"><path d="M 748 353 Q 785 360 826 363 Q 845 363 854 354 Q 861 347 858 333 Q 858 131 844 103 Q 843 99 835 100 Q 816 104 794 109 Q 770 113 785 96 Q 834 48 854 16 Q 867 1 880 13 Q 896 31 903 58 Q 913 88 909 246 Q 906 304 923 335 Q 936 354 931 361 Q 924 373 877 400 Q 859 413 846 407 Q 821 397 773 387 Q 631 368 579 354 Q 543 347 515 341 C 486 335 510 296 539 304 Q 548 305 555 308 Q 573 315 599 323 L 630 331 Q 658 344 702 347 L 748 353 Z" fill="black" /></g></svg>