<?xml version='1.0' encoding='utf-8'?>
<svg xmlns="http://www.w3.org/2000/svg" version="1.1" viewBox="0 0 1024 1024"><g transform="scale(1, -1) translate(0, -900)"><path d="M 487 412 Q 499 388 458 294 Q 454 285 452 281 L 437 251 Q 409 205 365 147 Q 356 134 360 132 Q 364 129 372 136 Q 432 178 466 231 L 482 261 Q 501 301 520 349 Q 536 400 548 416 Q 555 426 549 434 Q 537 444 522 448 Q 509 452 488 446 Q 473 439 468 443 Q 464 444 468 456 Q 487 498 504 545 Q 517 575 532 591 Q 548 607 535 618 Q 525 625 493 635 Q 471 644 457 629 Q 415 595 383 582 Q 370 576 379 571 Q 400 561 450 585 Q 460 589 467 583 Q 471 573 462 536 Q 447 472 430 451 Q 421 438 426 427 Q 430 420 448 422 Q 481 428 487 412 Z" fill="black" /></g></svg>