<?xml version='1.0' encoding='utf-8'?>
<svg xmlns="http://www.w3.org/2000/svg" version="1.1" viewBox="0 0 1024 1024"><g transform="scale(1, -1) translate(0, -900)"><path d="M 642 230 Q 643 285 643 335 L 644 364 Q 644 407 645 445 L 646 479 Q 646 531 647 577 L 648 605 Q 651 654 647 660 Q 628 679 610 687 C 584 701 564 706 576 678 Q 575 678 576 677 Q 583 661 591 648 Q 598 627 599 593 L 599 567 Q 599 536 600 469 L 600 438 Q 600 402 600 357 L 600 327 Q 600 281 600 221 C 600 191 641 200 642 230 Z" fill="black" /></g></svg>