<?xml version='1.0' encoding='utf-8'?>
<svg xmlns="http://www.w3.org/2000/svg" version="1.1" viewBox="0 0 1024 1024"><g transform="scale(1, -1) translate(0, -900)"><path d="M 789 519 Q 796 556 803 582 L 820 629 Q 830 653 845 666 Q 858 684 845 699 Q 779 747 728 722 Q 715 718 701 712 L 655 699 Q 618 692 580 686 Q 565 685 567 676 Q 570 669 586 663 Q 608 653 640 664 Q 647 665 655 666 L 699 674 Q 718 678 739 682 Q 752 685 757 679 Q 767 670 763 617 L 758 579 Q 754 551 748 525 C 742 496 783 490 789 519 Z" fill="black" /></g></svg>