<?xml version='1.0' encoding='utf-8'?>
<svg xmlns="http://www.w3.org/2000/svg" version="1.1" viewBox="0 0 1024 1024"><g transform="scale(1, -1) translate(0, -900)"><path d="M 533 602 Q 563 611 599 615 L 636 622 Q 667 629 708 632 L 749 636 Q 789 640 837 642 Q 856 643 872 644 Q 888 645 892 652 Q 896 662 882 672 Q 836 703 771 684 Q 764 683 757 680 L 712 670 Q 675 663 635 654 L 595 646 Q 564 642 533 635 L 485 626 Q 454 622 421 615 Q 405 612 418 599 Q 445 578 478 586 Q 481 589 489 589 L 533 602 Z" fill="black" /></g></svg>