<?xml version='1.0' encoding='utf-8'?>
<svg xmlns="http://www.w3.org/2000/svg" version="1.1" viewBox="0 0 1024 1024"><g transform="scale(1, -1) translate(0, -900)"><path d="M 519 81 Q 492 88 465 95 Q 447 99 449 92 Q 503 49 533 17 Q 543 1 557 -4 Q 564 -7 572 2 Q 605 41 605 102 Q 584 375 608 417 Q 618 433 609 442 Q 590 458 560 471 Q 545 477 500 455 Q 481 448 439 441 Q 426 440 433 433 Q 440 423 453 419 Q 471 415 522 432 Q 538 436 543 428 Q 559 382 550 131 Q 541 83 540 82 Q 536 78 519 81 Z" fill="black" /></g></svg>