<?xml version='1.0' encoding='utf-8'?>
<svg xmlns="http://www.w3.org/2000/svg" version="1.1" viewBox="0 0 1024 1024"><g transform="scale(1, -1) translate(0, -900)"><path d="M 555 258 Q 562 276 572 293 Q 582 318 593 345 L 606 380 Q 618 416 629 452 Q 630 459 633 465 L 645 506 Q 651 527 660 543 Q 670 555 665 567 Q 658 579 644 590 C 622 611 596 612 599 582 Q 605 561 595 516 Q 592 507 591 497 L 580 455 Q 568 412 554 372 L 541 335 Q 480 184 346 42 Q 340 38 338 32 Q 334 23 343 23 Q 374 23 461 117 Q 479 139 499 165 Q 521 198 542 235 L 555 258 Z" fill="black" /></g></svg>