<?xml version='1.0' encoding='utf-8'?>
<svg xmlns="http://www.w3.org/2000/svg" version="1.1" viewBox="0 0 1024 1024"><g transform="scale(1, -1) translate(0, -900)"><path d="M 774 47 Q 749 53 722 59 Q 703 65 705 56 Q 759 10 789 -25 Q 802 -44 816 -48 Q 825 -52 833 -43 Q 869 -1 870 71 Q 849 404 872 446 Q 884 464 872 474 Q 851 492 817 506 Q 801 513 745 486 Q 705 474 650 467 Q 637 466 644 457 Q 653 447 667 442 Q 685 439 775 462 Q 794 468 799 458 Q 811 431 811 233 Q 811 68 798 48 Q 792 42 774 47 Z" fill="black" /></g></svg>