<?xml version='1.0' encoding='utf-8'?>
<svg xmlns="http://www.w3.org/2000/svg" version="1.1" viewBox="0 0 1024 1024"><g transform="scale(1, -1) translate(0, -900)"><path d="M 662 357 Q 701 364 741 366 Q 769 363 766 345 Q 775 224 762 208 Q 756 204 707 203 Q 691 206 689 201 Q 686 195 698 187 Q 746 154 775 129 Q 790 117 801 131 Q 822 162 824 225 Q 818 300 826 352 Q 830 371 821 380 Q 796 402 779 412 Q 767 416 759 409 Q 753 402 662 381 L 609 374 Q 567 370 497 360 C 467 356 491 324 520 331 Q 563 341 609 349 L 662 357 Z" fill="black" /></g></svg>