<?xml version='1.0' encoding='utf-8'?>
<svg xmlns="http://www.w3.org/2000/svg" version="1.1" viewBox="0 0 1024 1024"><g transform="scale(1, -1) translate(0, -900)"><path d="M 625 341 Q 626 342 632 343 Q 696 361 761 370 C 791 374 782 390 752 387 Q 662 380 555 359 Q 542 356 551 365 Q 593 401 689 470 Q 723 498 751 512 Q 764 519 761 529 Q 755 548 729 574 Q 716 586 707 585 Q 697 584 696 570 Q 690 533 627 473 L 603 452 Q 492 362 476 356 Q 463 350 462 337 Q 461 324 481 303 Q 488 290 505 298 Q 541 316 579 328 L 625 341 Z" fill="black" /></g></svg>