<?xml version='1.0' encoding='utf-8'?>
<svg xmlns="http://www.w3.org/2000/svg" version="1.1" viewBox="0 0 1024 1024"><g transform="scale(1, -1) translate(0, -900)"><path d="M 634 495 Q 803 532 844 529 Q 854 522 852 517 Q 852 511 822 453 Q 815 441 821 436 Q 828 432 843 443 Q 895 473 936 482 Q 970 489 970 498 Q 969 507 904 554 Q 879 573 799 552 Q 733 543 676 529 L 649 524 Q 601 517 550 505 Q 508 498 467 489 C 438 483 442 469 471 462 Q 489 455 508 460 Q 545 473 585 483 L 634 495 Z" fill="black" /></g></svg>