<?xml version='1.0' encoding='utf-8'?>
<svg xmlns="http://www.w3.org/2000/svg" version="1.1" viewBox="0 0 1024 1024"><g transform="scale(1, -1) translate(0, -900)"><path d="M 447 183 Q 456 208 465 238 Q 468 251 472 266 L 478 290 Q 482 315 487 342 L 493 370 Q 496 389 500 411 Q 504 426 506 434 C 511 454 511 454 499 463 Q 499 464 498 465 Q 459 490 446 489 Q 428 488 440 468 Q 467 408 418 227 Q 405 190 381 147 Q 354 99 273 34 Q 260 24 256 19 Q 255 13 264 13 Q 298 10 363 65 Q 399 98 434 154 L 447 183 Z" fill="black" /></g></svg>