<?xml version='1.0' encoding='utf-8'?>
<svg xmlns="http://www.w3.org/2000/svg" version="1.1" viewBox="0 0 1024 1024"><g transform="scale(1, -1) translate(0, -900)"><path d="M 728 273 Q 747 334 755 397 L 760 436 Q 761 442 762 447 Q 766 486 767 488 Q 754 501 733 511 C 706 525 687 533 701 506 Q 701 505 703 500 Q 716 487 713 433 Q 712 432 712 430 L 711 394 Q 693 241 625 136 Q 621 132 620 127 Q 619 118 626 120 Q 657 127 706 219 Q 707 223 709 225 Q 713 237 719 248 L 728 273 Z" fill="black" /></g></svg>