<?xml version='1.0' encoding='utf-8'?>
<svg xmlns="http://www.w3.org/2000/svg" version="1.1" viewBox="0 0 1024 1024"><g transform="scale(1, -1) translate(0, -900)"><path d="M 547 712 Q 593 583 652 486 L 675 452 Q 732 373 802 335 Q 860 301 886 305 Q 902 312 893 335 Q 884 363 869 449 Q 866 470 858 470 Q 854 469 849 450 Q 822 402 809 401 Q 802 404 788 410 Q 746 437 706 487 L 680 525 Q 626 615 593 720 L 580 764 Q 574 788 573 815 Q 577 852 523 861 Q 490 868 474 857 Q 458 847 470 832 Q 519 805 525 776 Q 529 764 533 751 L 547 712 Z" fill="black" /></g></svg>