<?xml version='1.0' encoding='utf-8'?>
<svg xmlns="http://www.w3.org/2000/svg" version="1.1" viewBox="0 0 1024 1024"><g transform="scale(1, -1) translate(0, -900)"><path d="M 739 439 Q 769 448 807 461 Q 825 467 830 458 Q 840 425 845 227 Q 845 59 834 42 Q 830 36 813 40 Q 789 46 766 51 Q 747 57 749 48 Q 798 5 827 -28 Q 839 -44 853 -49 Q 860 -53 869 -44 Q 905 4 904 49 Q 874 403 898 448 Q 908 466 898 474 Q 879 490 845 503 Q 829 510 815 503 Q 790 487 772 480 Q 754 474 725 467 C 696 460 710 430 739 439 Z" fill="black" /></g></svg>