<?xml version='1.0' encoding='utf-8'?>
<svg xmlns="http://www.w3.org/2000/svg" version="1.1" viewBox="0 0 1024 1024"><g transform="scale(1, -1) translate(0, -900)"><path d="M 638 365 Q 813 402 837 380 Q 844 373 842 359 Q 846 101 830 64 Q 826 54 814 56 Q 793 56 770 56 Q 745 56 764 41 Q 819 2 843 -27 Q 859 -43 874 -29 Q 893 -7 900 27 Q 910 63 897 254 Q 891 326 910 362 Q 923 383 917 390 Q 910 402 859 430 Q 844 442 806 428 Q 796 427 639 396 L 596 388 Q 568 384 433 351 C 404 344 417 304 446 312 Q 455 312 465 316 Q 511 337 596 356 L 638 365 Z" fill="black" /></g></svg>