<?xml version='1.0' encoding='utf-8'?>
<svg xmlns="http://www.w3.org/2000/svg" version="1.1" viewBox="0 0 1024 1024"><g transform="scale(1, -1) translate(0, -900)"><path d="M 591 671 Q 591 696 593 707 Q 594 728 581 739 Q 560 755 535 762 Q 522 766 514 761 Q 507 755 514 741 Q 533 704 544 665 L 552 626 Q 555 602 559 558 L 562 528 Q 563 501 567 467 L 569 436 Q 570 402 575 360 C 578 330 613 337 610 367 Q 606 407 604 443 L 601 476 Q 598 509 596 536 L 594 565 Q 593 598 591 631 L 591 671 Z" fill="black" /></g></svg>