<?xml version='1.0' encoding='utf-8'?>
<svg xmlns="http://www.w3.org/2000/svg" version="1.1" viewBox="0 0 1024 1024"><g transform="scale(1, -1) translate(0, -900)"><path d="M 559 558 Q 513 549 473 541 C 444 535 455 495 482 507 Q 489 516 562 528 L 596 536 Q 633 545 682 553 L 722 560 Q 785 578 811 559 Q 824 549 819 530 Q 797 419 782 389 C 771 361 758 367 763 360 Q 779 330 797 321 Q 807 314 822 334 Q 837 356 869 482 Q 878 512 901 536 Q 914 549 903 562 Q 888 578 847 605 Q 828 615 813 609 Q 777 599 726 590 Q 725 590 725 589 L 684 582 Q 641 575 594 565 L 559 558 Z" fill="black" /></g></svg>