<?xml version='1.0' encoding='utf-8'?>
<svg xmlns="http://www.w3.org/2000/svg" version="1.1" viewBox="0 0 1024 1024"><g transform="scale(1, -1) translate(0, -900)"><path d="M 590 710 Q 593 714 597 718 Q 607 727 601 736 Q 597 745 550 760 Q 540 764 522 753 Q 497 737 431 720 Q 419 719 429 708 Q 439 698 466 706 Q 521 727 526 719 Q 530 709 517 668 Q 508 634 480 590 L 472 578 Q 466 572 463 564 Q 423 500 351 435 Q 332 422 349 424 Q 404 428 483 526 Q 516 568 578 690 L 590 710 Z" fill="black" /></g></svg>