<?xml version='1.0' encoding='utf-8'?>
<svg xmlns="http://www.w3.org/2000/svg" version="1.1" viewBox="0 0 1024 1024"><g transform="scale(1, -1) translate(0, -900)"><path d="M 780 376 Q 780 370 782 364 Q 786 348 800 349 Q 813 350 822 364 Q 837 380 864 463 Q 883 515 921 544 Q 940 560 925 576 Q 907 594 857 623 Q 844 632 761 616 Q 716 616 572 586 Q 505 574 457 568 C 427 564 448 524 477 532 Q 517 545 607 560 L 649 566 Q 796 594 825 579 Q 835 572 827 541 Q 797 424 784 396 L 780 376 Z" fill="black" /></g></svg>