<?xml version='1.0' encoding='utf-8'?>
<svg xmlns="http://www.w3.org/2000/svg" version="1.1" viewBox="0 0 1024 1024"><g transform="scale(1, -1) translate(0, -900)"><path d="M 805 427 Q 806 318 811 121 Q 811 103 801 96 Q 795 92 719 105 Q 688 115 691 105 Q 692 98 712 86 Q 779 41 796 15 Q 818 -16 833 -17 Q 846 -17 858 15 Q 873 58 869 124 Q 853 280 852 436 L 852 478 Q 853 554 865 594 Q 880 622 828 641 Q 797 657 779 651 Q 763 644 778 624 Q 799 599 801 568 Q 802 556 804 468 L 805 427 Z" fill="black" /></g></svg>