<?xml version='1.0' encoding='utf-8'?>
<svg xmlns="http://www.w3.org/2000/svg" version="1.1" viewBox="0 0 1024 1024"><g transform="scale(1, -1) translate(0, -900)"><path d="M 751 367 Q 767 348 781 342 Q 791 335 804 356 Q 817 381 836 517 Q 843 545 864 570 Q 876 582 864 594 Q 849 609 809 632 Q 794 638 710 620 Q 706 620 689 616 L 662 611 Q 637 610 611 603 L 576 597 Q 536 590 502 583 C 473 577 479 545 508 553 Q 536 562 576 568 L 608 574 Q 632 580 662 583 L 688 587 Q 755 602 773 586 Q 786 571 785 556 Q 772 411 755 397 C 743 375 743 375 751 367 Z" fill="black" /></g></svg>