<?xml version='1.0' encoding='utf-8'?>
<svg xmlns="http://www.w3.org/2000/svg" version="1.1" viewBox="0 0 1024 1024"><g transform="scale(1, -1) translate(0, -900)"><path d="M 571 269 Q 571 276 611 281 Q 618 284 622 282 C 652 283 658 317 629 311 Q 598 305 575 297 L 536 286 Q 509 279 489 269 Q 480 268 483 277 Q 495 334 488 346 Q 478 358 463 368 Q 456 372 448 371 Q 441 368 446 356 Q 458 325 451 295 Q 447 267 434 254 Q 422 242 428 233 Q 435 223 447 216 Q 457 212 463 217 Q 472 232 531 254 C 559 265 570 268 571 269 Z" fill="black" /></g></svg>