<?xml version='1.0' encoding='utf-8'?>
<svg xmlns="http://www.w3.org/2000/svg" version="1.1" viewBox="0 0 1024 1024"><g transform="scale(1, -1) translate(0, -900)"><path d="M 521 494 Q 537 491 558 492 L 593 495 Q 770 523 795 524 Q 808 524 814 518 Q 836 476 826 270 Q 819 168 789 106 Q 776 72 756 70 Q 746 66 681 79 Q 671 82 671 76 Q 671 72 682 63 Q 722 24 740 -4 Q 750 -22 761 -21 Q 780 -22 799 0 Q 863 55 879 200 Q 889 297 890 443 Q 890 476 909 502 Q 922 515 921 524 Q 920 531 900 544 Q 873 563 838 573 Q 819 579 727 553 Q 723 553 720 551 Q 639 533 544 517 C 514 512 491 496 521 494 Z" fill="black" /></g></svg>