<?xml version='1.0' encoding='utf-8'?>
<svg xmlns="http://www.w3.org/2000/svg" version="1.1" viewBox="0 0 1024 1024"><g transform="scale(1, -1) translate(0, -900)"><path d="M 496 467 Q 730 506 754 480 Q 760 473 756 462 Q 749 362 740 349 Q 733 333 716 338 Q 697 337 675 336 Q 647 336 669 321 Q 718 281 739 251 Q 746 241 756 247 Q 783 265 806 398 Q 812 438 827 455 Q 842 474 836 481 Q 829 494 783 524 Q 767 537 752 532 Q 725 523 677 516 Q 571 506 496 493 L 459 487 Q 395 478 357 468 Q 290 453 241 448 C 211 444 229 407 259 411 Q 272 410 286 415 Q 347 439 459 461 L 496 467 Z" fill="black" /></g></svg>