<?xml version='1.0' encoding='utf-8'?>
<svg xmlns="http://www.w3.org/2000/svg" version="1.1" viewBox="0 0 1024 1024"><g transform="scale(1, -1) translate(0, -900)"><path d="M 759 640 Q 772 618 785 610 Q 792 603 808 620 Q 818 633 846 707 Q 856 734 878 755 Q 890 765 880 778 Q 867 794 831 819 Q 816 828 746 813 Q 734 813 599 790 Q 541 780 492 773 C 462 769 479 739 509 743 Q 513 743 520 744 Q 547 751 583 758 L 602 761 Q 636 768 678 774 L 713 779 Q 780 794 798 778 Q 805 768 802 760 Q 786 687 778 676 Q 775 667 758 663 C 747 658 747 658 759 640 Z" fill="black" /></g></svg>