<?xml version='1.0' encoding='utf-8'?>
<svg xmlns="http://www.w3.org/2000/svg" version="1.1" viewBox="0 0 1024 1024"><g transform="scale(1, -1) translate(0, -900)"><path d="M 705 783 Q 695 753 675 725 Q 668 715 670 705 Q 673 696 687 687 Q 720 665 749 637 Q 762 624 774 626 Q 784 627 785 646 Q 785 665 774 677 Q 767 687 724 696 Q 709 699 703 708 Q 699 715 707 726 Q 717 735 735 754 Q 751 773 763 782 Q 776 789 771 803 Q 761 831 741 844 Q 729 851 720 849 Q 710 848 715 832 Q 721 813 705 783 Z" fill="black" /></g></svg>