<?xml version='1.0' encoding='utf-8'?>
<svg xmlns="http://www.w3.org/2000/svg" version="1.1" viewBox="0 0 1024 1024"><g transform="scale(1, -1) translate(0, -900)"><path d="M 694 396 Q 706 377 717 371 Q 724 364 739 380 Q 752 398 783 500 Q 790 525 812 547 Q 822 557 814 569 Q 801 584 765 608 Q 752 614 678 600 Q 606 588 537 576 Q 482 566 435 558 C 405 553 429 518 458 527 Q 458 528 460 528 Q 523 547 626 561 L 652 566 Q 718 582 735 566 Q 744 553 742 542 Q 718 446 710 432 Q 706 425 697 421 C 684 410 684 410 694 396 Z" fill="black" /></g></svg>