<?xml version='1.0' encoding='utf-8'?>
<svg xmlns="http://www.w3.org/2000/svg" version="1.1" viewBox="0 0 1024 1024"><g transform="scale(1, -1) translate(0, -900)"><path d="M 796 55 Q 768 59 738 64 Q 719 68 721 60 Q 782 20 818 -11 Q 831 -27 845 -31 Q 852 -35 860 -25 Q 896 21 891 70 Q 854 505 882 553 Q 892 572 882 581 Q 863 597 829 612 Q 813 619 798 612 Q 743 585 664 582 Q 649 582 657 573 Q 664 563 677 558 Q 695 552 786 571 Q 807 572 810 561 Q 822 531 831 281 Q 832 77 821 57 Q 817 51 796 55 Z" fill="black" /></g></svg>