<?xml version='1.0' encoding='utf-8'?>
<svg xmlns="http://www.w3.org/2000/svg" version="1.1" viewBox="0 0 1024 1024"><g transform="scale(1, -1) translate(0, -900)"><path d="M 602 349 Q 603 348 605 345 Q 615 323 622 323 Q 632 324 646 348 Q 655 364 656 397 Q 649 517 670 546 Q 677 559 671 567 Q 649 586 611 601 Q 596 605 548 584 L 516 572 Q 503 571 489 565 Q 482 564 476 562 L 449 555 Q 416 549 389 544 C 359 539 371 516 400 522 L 448 531 L 475 539 Q 494 546 516 552 L 543 559 Q 556 563 570 566 Q 592 573 600 561 Q 609 551 608 511 Q 608 400 602 379 L 600 373 C 596 359 596 359 602 349 Z" fill="black" /></g></svg>