<?xml version='1.0' encoding='utf-8'?>
<svg xmlns="http://www.w3.org/2000/svg" version="1.1" viewBox="0 0 1024 1024"><g transform="scale(1, -1) translate(0, -900)"><path d="M 761 613 Q 827 646 843 637 Q 853 630 846 608 Q 825 530 807 499 Q 803 489 803 481 Q 803 469 822 459 Q 865 438 894 392 Q 919 352 920 314 Q 919 290 906 273 Q 896 266 874 268 Q 841 272 814 275 Q 807 276 807 269 Q 808 262 823 253 Q 881 217 895 194 Q 902 181 913 180 Q 923 179 937 190 Q 974 242 976 304 Q 979 394 863 469 Q 824 490 886 571 Q 895 601 931 622 Q 959 638 934 656 Q 897 684 875 694 Q 859 698 845 690 Q 827 675 747 643 C 719 632 734 600 761 613 Z" fill="black" /></g></svg>