<?xml version='1.0' encoding='utf-8'?>
<svg xmlns="http://www.w3.org/2000/svg" version="1.1" viewBox="0 0 1024 1024"><g transform="scale(1, -1) translate(0, -900)"><path d="M 450 272 Q 454 285 445 294 Q 426 310 407 320 Q 391 326 383 322 Q 373 316 385 299 Q 421 236 383 63 Q 376 47 363 26 Q 353 8 360 -2 Q 367 -14 390 -23 Q 405 -30 416 -14 Q 425 11 482 60 Q 506 76 516 94 Q 520 104 513 104 Q 510 104 446 70 Q 439 66 435 67 Q 428 70 429 88 Q 439 172 444 215 Q 444 246 450 272 Z" fill="black" /></g></svg>