<?xml version='1.0' encoding='utf-8'?>
<svg xmlns="http://www.w3.org/2000/svg" version="1.1" viewBox="0 0 1024 1024"><g transform="scale(1, -1) translate(0, -900)"><path d="M 773 551 Q 774 550 775 547 Q 778 537 786 537 Q 801 540 822 580 Q 832 617 858 640 Q 871 652 859 663 Q 846 675 809 693 Q 796 700 783 694 Q 758 685 726 677 Q 723 677 722 676 L 682 666 Q 645 659 613 647 L 576 635 Q 539 625 513 618 C 484 610 500 576 528 588 Q 532 589 536 591 Q 554 600 581 608 L 616 619 Q 644 629 683 638 L 719 647 Q 779 663 795 657 Q 799 654 796 639 Q 783 590 778 574 C 772 553 772 553 773 551 Z" fill="black" /></g></svg>