<?xml version='1.0' encoding='utf-8'?>
<svg xmlns="http://www.w3.org/2000/svg" version="1.1" viewBox="0 0 1024 1024"><g transform="scale(1, -1) translate(0, -900)"><path d="M 836 428 Q 837 310 839 87 Q 838 68 828 61 Q 825 58 754 62 Q 724 69 727 61 Q 728 54 748 44 Q 809 5 826 -18 Q 845 -46 860 -46 Q 872 -46 883 -15 Q 896 25 892 89 Q 879 263 880 436 L 881 480 Q 882 553 894 592 Q 909 617 860 637 Q 830 653 813 647 Q 798 641 812 621 Q 831 597 833 567 Q 834 555 835 466 L 836 428 Z" fill="black" /></g></svg>