<?xml version='1.0' encoding='utf-8'?>
<svg xmlns="http://www.w3.org/2000/svg" version="1.1" viewBox="0 0 1024 1024"><g transform="scale(1, -1) translate(0, -900)"><path d="M 615 290 Q 615 291 619 293 Q 686 326 706 319 Q 710 318 711 310 Q 712 292 710 259 Q 709 240 690 243 Q 668 244 651 247 Q 641 248 643 242 Q 644 235 664 222 Q 688 203 702 180 Q 706 176 712 177 Q 716 178 725 191 Q 738 209 742 231 Q 751 304 762 314 Q 769 321 764 329 Q 757 336 730 351 Q 720 355 618 322 Q 609 321 605 317 C 578 304 589 274 615 290 Z" fill="black" /></g></svg>