<?xml version='1.0' encoding='utf-8'?>
<svg xmlns="http://www.w3.org/2000/svg" version="1.1" viewBox="0 0 1024 1024"><g transform="scale(1, -1) translate(0, -900)"><path d="M 605 317 Q 595 324 581 328 Q 572 331 566 326 Q 562 323 566 311 Q 578 283 578 256 Q 579 147 610 121 Q 676 76 781 107 Q 782 108 785 108 Q 810 118 833 139 Q 846 151 835 170 Q 825 185 807 231 Q 806 243 800 245 Q 796 248 794 234 Q 778 182 766 165 Q 760 155 739 149 Q 691 134 646 150 Q 628 157 623 169 Q 605 194 615 290 C 617 310 617 310 605 317 Z" fill="black" /></g></svg>