<?xml version='1.0' encoding='utf-8'?>
<svg xmlns="http://www.w3.org/2000/svg" version="1.1" viewBox="0 0 1024 1024"><g transform="scale(1, -1) translate(0, -900)"><path d="M 765 470 Q 765 469 766 468 Q 769 456 779 457 Q 789 458 795 468 Q 804 478 823 529 Q 836 569 865 592 Q 880 604 868 617 Q 855 630 816 652 Q 804 658 741 647 Q 669 641 554 622 C 524 617 542 586 571 592 Q 575 593 579 593 Q 603 600 643 605 L 682 609 Q 776 621 792 613 Q 799 609 794 588 Q 776 510 766 491 C 760 478 760 478 765 470 Z" fill="black" /></g></svg>