<?xml version='1.0' encoding='utf-8'?>
<svg xmlns="http://www.w3.org/2000/svg" version="1.1" viewBox="0 0 1024 1024"><g transform="scale(1, -1) translate(0, -900)"><path d="M 606 194 Q 612 272 617 276 C 619 284 619 284 616 288 Q 615 294 609 298 Q 588 320 573 323 Q 563 326 557 322 Q 548 316 557 305 Q 585 250 563 93 Q 550 39 545 32 Q 535 13 542 -5 Q 552 -33 567 -43 Q 576 -50 587 -33 Q 609 1 688 91 Q 701 104 703 111 Q 703 123 686 111 Q 611 63 605 64 Q 599 67 599 80 Q 602 146 606 190 L 606 194 Z" fill="black" /></g></svg>