<?xml version='1.0' encoding='utf-8'?>
<svg xmlns="http://www.w3.org/2000/svg" version="1.1" viewBox="0 0 1024 1024"><g transform="scale(1, -1) translate(0, -900)"><path d="M 617 295 Q 614 64 598 38 Q 592 32 496 55 Q 474 61 476 51 Q 549 -3 591 -42 Q 604 -61 621 -67 Q 631 -71 640 -60 Q 677 -12 679 67 Q 672 185 671 342 L 670 406 Q 670 488 671 579 Q 670 640 684 667 Q 697 686 684 698 Q 662 717 623 733 Q 604 740 587 733 Q 514 694 404 683 C 374 679 347 645 399 652 Q 411 651 577 685 Q 598 691 603 680 Q 618 635 618 378 L 617 295 Z" fill="black" /></g></svg>