<?xml version='1.0' encoding='utf-8'?>
<svg xmlns="http://www.w3.org/2000/svg" version="1.1" viewBox="0 0 1024 1024"><g transform="scale(1, -1) translate(0, -900)"><path d="M 842 432 Q 854 39 833 7 Q 829 1 810 6 Q 785 10 758 16 Q 739 20 741 12 Q 798 -31 828 -62 Q 841 -78 855 -83 Q 862 -86 871 -77 Q 904 -32 903 18 Q 890 205 885 509 Q 884 561 896 585 Q 906 603 896 612 Q 877 628 843 642 Q 827 648 813 642 Q 770 618 701 607 C 672 601 683 576 712 581 Q 718 581 803 600 Q 819 603 826 594 Q 838 582 838 543 Q 839 501 841 461 L 842 432 Z" fill="black" /></g></svg>