<?xml version='1.0' encoding='utf-8'?>
<svg xmlns="http://www.w3.org/2000/svg" version="1.1" viewBox="0 0 1024 1024"><g transform="scale(1, -1) translate(0, -900)"><path d="M 382 287 Q 373 82 362 65 Q 358 61 340 65 Q 312 72 282 82 Q 263 89 264 80 Q 321 29 352 -8 Q 364 -27 379 -31 Q 388 -35 396 -26 Q 433 17 434 76 L 434 92 Q 430 219 432 391 L 432 397 Q 435 643 445 660 Q 457 679 445 688 Q 424 706 390 719 Q 374 726 312 691 Q 288 682 242 671 C 213 664 229 635 258 643 Q 277 646 353 674 Q 369 681 375 674 Q 382 652 385 619 Q 386 495 385 387 L 382 287 Z" fill="black" /></g></svg>