<?xml version='1.0' encoding='utf-8'?>
<svg xmlns="http://www.w3.org/2000/svg" version="1.1" viewBox="0 0 1024 1024"><g transform="scale(1, -1) translate(0, -900)"><path d="M 545 691 Q 535 700 512 710 Q 493 720 485 713 Q 479 707 486 693 Q 526 615 502 171 Q 495 101 475 69 Q 465 56 474 35 Q 481 14 491 6 Q 501 -1 517 10 Q 631 83 952 76 Q 977 75 978 87 Q 978 103 949 124 Q 931 139 819 120 Q 630 102 576 91 Q 563 88 557 93 Q 550 94 549 112 Q 553 317 551 576 Q 550 630 555 662 C 557 684 557 684 545 691 Z" fill="black" /></g></svg>