<?xml version='1.0' encoding='utf-8'?>
<svg xmlns="http://www.w3.org/2000/svg" version="1.1" viewBox="0 0 1024 1024"><g transform="scale(1, -1) translate(0, -900)"><path d="M 378 272 Q 372 82 361 61 Q 357 55 340 61 L 295 74 Q 284 78 279 76 Q 276 74 276 73 Q 323 22 349 -14 Q 351 -20 355 -24 Q 371 -43 384 -38 Q 390 -33 396 -27 Q 433 12 433 78 Q 428 186 428 333 L 429 400 Q 429 587 443 612 Q 452 623 449 631 Q 449 634 446 637 Q 431 655 390 670 L 378 674 Q 367 676 349 665 Q 312 645 278 635 L 253 630 Q 246 629 239 627 C 210 621 224 593 253 600 Q 263 600 349 626 Q 356 629 360 629 Q 382 631 382 575 Q 384 466 382 372 L 378 272 Z" fill="black" /></g></svg>