<?xml version='1.0' encoding='utf-8'?>
<svg xmlns="http://www.w3.org/2000/svg" version="1.1" viewBox="0 0 1024 1024"><g transform="scale(1, -1) translate(0, -900)"><path d="M 757 306 Q 762 298 768 292 Q 791 265 805 276 Q 813 284 823 306 Q 833 331 856 428 Q 858 436 860 443 Q 868 461 886 480 Q 896 492 894 501 Q 892 514 832 552 Q 812 562 798 555 Q 786 552 776 549 L 600 515 L 512 499 C 482 494 493 455 521 466 Q 528 474 608 486 L 651 494 Q 752 514 784 508 Q 789 508 793 506 Q 807 498 805 480 Q 780 342 760 332 C 748 317 748 317 757 306 Z" fill="black" /></g></svg>