<?xml version='1.0' encoding='utf-8'?>
<svg xmlns="http://www.w3.org/2000/svg" version="1.1" viewBox="0 0 1024 1024"><g transform="scale(1, -1) translate(0, -900)"><path d="M 628 422 Q 643 401 657 393 Q 667 386 682 406 Q 694 424 722 522 Q 731 553 755 578 Q 768 590 757 604 Q 741 620 699 648 Q 686 655 620 642 Q 560 635 533 628 L 480 619 Q 456 618 432 612 Q 375 602 329 594 C 299 589 308 547 336 558 Q 345 567 480 587 L 532 596 Q 647 614 662 599 Q 672 587 669 576 Q 650 465 633 454 C 619 433 619 433 628 422 Z" fill="black" /></g></svg>