<?xml version='1.0' encoding='utf-8'?>
<svg xmlns="http://www.w3.org/2000/svg" version="1.1" viewBox="0 0 1024 1024"><g transform="scale(1, -1) translate(0, -900)"><path d="M 370 577 Q 370 619 372 653 L 377 702 Q 381 735 390 762 Q 399 777 395 790 Q 389 800 334 833 Q 312 849 291 834 Q 287 830 293 814 Q 326 765 327 684 L 328 640 Q 328 606 328 566 L 328 534 Q 327 509 327 481 L 326 442 Q 325 409 324 374 L 323 339 Q 323 302 323 260 L 319 217 Q 312 162 298 108 Q 288 72 312 10 Q 319 -8 327 -11 Q 333 -18 340 -9 Q 347 -5 357 15 Q 367 40 366 70 Q 365 97 366 228 L 366 270 Q 366 307 367 349 L 368 388 Q 368 419 369 452 L 369 491 Q 369 516 370 544 L 370 577 Z" fill="black" /></g></svg>