<?xml version='1.0' encoding='utf-8'?>
<svg xmlns="http://www.w3.org/2000/svg" version="1.1" viewBox="0 0 1024 1024"><g transform="scale(1, -1) translate(0, -900)"><path d="M 655 361 Q 655 358 657 354 Q 661 336 676 337 Q 692 338 701 354 Q 717 372 746 461 Q 767 519 808 551 Q 830 569 813 587 Q 794 606 737 638 Q 719 651 650 633 Q 598 630 549 619 L 490 609 Q 460 605 435 599 Q 365 586 317 580 C 287 576 320 533 349 541 Q 400 557 491 571 L 549 580 Q 678 601 701 589 Q 711 582 704 547 Q 674 418 660 390 L 655 361 Z" fill="black" /></g></svg>