<?xml version='1.0' encoding='utf-8'?>
<svg xmlns="http://www.w3.org/2000/svg" version="1.1" viewBox="0 0 1024 1024"><g transform="scale(1, -1) translate(0, -900)"><path d="M 654 509 Q 738 539 744 534 Q 751 521 729 388 Q 674 70 892 35 Q 893 35 897 34 Q 936 28 975 41 Q 1011 53 998 89 Q 976 137 970 214 Q 967 235 962 240 Q 953 244 949 229 Q 939 190 930 155 Q 923 121 907 109 Q 898 103 875 107 Q 815 116 784 169 Q 735 259 786 450 Q 808 513 843 540 Q 871 562 839 575 Q 823 584 786 595 Q 762 602 740 587 Q 713 568 657 544 L 614 528 Q 563 509 517 506 C 487 502 480 496 510 492 Q 531 480 611 497 L 654 509 Z" fill="black" /></g></svg>