<?xml version='1.0' encoding='utf-8'?>
<svg xmlns="http://www.w3.org/2000/svg" version="1.1" viewBox="0 0 1024 1024"><g transform="scale(1, -1) translate(0, -900)"><path d="M 324 204 Q 318 149 304 96 Q 294 56 320 -3 Q 327 -19 335 -23 Q 341 -30 348 -22 Q 370 -3 372 80 Q 371 122 370 218 L 370 257 Q 370 291 370 329 L 370 366 Q 370 391 370 418 L 370 458 L 370 520 L 370 552 Q 370 574 370 595 Q 369 611 370 626 L 372 672 Q 375 724 387 763 Q 394 778 392 791 Q 385 800 331 833 Q 307 849 287 833 Q 283 829 289 813 Q 323 764 325 714 Q 325 687 326 657 L 327 615 Q 328 578 329 542 L 329 511 Q 329 478 329 444 L 329 407 Q 328 380 328 352 L 328 320 Q 328 286 328 249 Q 327 248 327 244 L 324 204 Z" fill="black" /></g></svg>