<?xml version='1.0' encoding='utf-8'?>
<svg xmlns="http://www.w3.org/2000/svg" version="1.1" viewBox="0 0 1024 1024"><g transform="scale(1, -1) translate(0, -900)"><path d="M 687 539 Q 751 558 817 568 Q 830 569 835 563 Q 842 545 840 497 Q 827 325 794 232 Q 778 174 758 156 Q 748 144 722 151 Q 691 160 663 169 Q 641 176 657 155 Q 700 107 723 71 Q 733 52 752 57 Q 773 60 798 89 Q 868 164 891 454 Q 895 518 919 556 Q 935 578 926 588 Q 910 606 875 620 Q 850 632 824 619 Q 767 594 679 574 Q 603 558 558 555 Q 539 556 539 546 Q 538 537 560 524 Q 585 508 610 517 Q 631 524 652 529 L 687 539 Z" fill="black" /></g></svg>