<?xml version='1.0' encoding='utf-8'?>
<svg xmlns="http://www.w3.org/2000/svg" version="1.1" viewBox="0 0 1024 1024"><g transform="scale(1, -1) translate(0, -900)"><path d="M 394 361 Q 410 337 425 330 Q 435 323 449 342 Q 462 366 490 491 Q 497 519 518 544 Q 530 556 519 568 Q 504 583 464 606 Q 445 613 386 593 Q 367 592 342 581 L 300 569 Q 284 566 176 533 C 147 524 169 495 197 506 Q 237 522 300 539 L 342 551 Q 414 573 433 563 Q 446 553 443 534 Q 419 405 404 388 C 392 364 392 364 394 361 Z" fill="black" /></g></svg>