<?xml version='1.0' encoding='utf-8'?>
<svg xmlns="http://www.w3.org/2000/svg" version="1.1" viewBox="0 0 1024 1024"><g transform="scale(1, -1) translate(0, -900)"><path d="M 293 214 Q 286 145 268 80 Q 256 38 283 -22 Q 290 -40 298 -43 Q 305 -50 312 -41 Q 319 -37 330 -16 Q 340 9 339 41 Q 338 72 338 225 L 338 266 Q 338 305 339 350 L 340 385 Q 340 415 341 446 L 341 483 Q 341 517 342 551 L 342 581 Q 342 618 344 650 L 349 698 Q 353 740 363 772 Q 372 787 369 801 Q 362 811 306 845 Q 282 861 261 846 Q 257 842 262 826 Q 298 775 298 680 L 299 638 Q 299 605 300 569 L 300 539 Q 299 508 299 472 L 298 436 Q 297 405 296 372 L 296 340 Q 295 300 295 255 L 293 214 Z" fill="black" /></g></svg>