<?xml version='1.0' encoding='utf-8'?>
<svg xmlns="http://www.w3.org/2000/svg" version="1.1" viewBox="0 0 1024 1024"><g transform="scale(1, -1) translate(0, -900)"><path d="M 379 361 Q 395 337 409 330 Q 419 323 432 342 Q 445 366 473 496 Q 480 524 499 546 Q 511 556 500 569 Q 487 582 449 604 Q 430 613 357 587 Q 351 587 326 579 L 284 567 Q 262 563 240 555 Q 197 542 160 533 C 131 526 153 494 181 506 Q 221 524 284 539 L 326 551 Q 399 575 419 563 Q 432 553 429 534 Q 405 402 390 386 C 378 363 378 363 379 361 Z" fill="black" /></g></svg>