<?xml version='1.0' encoding='utf-8'?>
<svg xmlns="http://www.w3.org/2000/svg" version="1.1" viewBox="0 0 1024 1024"><g transform="scale(1, -1) translate(0, -900)"><path d="M 369 305 Q 385 281 401 274 Q 411 267 425 286 Q 438 308 464 432 Q 471 460 492 484 Q 504 496 493 509 Q 478 524 438 547 Q 420 554 360 537 Q 338 534 320 528 L 281 519 Q 256 515 230 508 Q 188 498 154 489 C 125 481 146 450 174 460 Q 216 475 280 488 L 319 496 Q 385 515 405 503 Q 418 493 415 475 Q 394 346 379 331 C 367 308 367 308 369 305 Z" fill="black" /></g></svg>