<?xml version='1.0' encoding='utf-8'?>
<svg xmlns="http://www.w3.org/2000/svg" version="1.1" viewBox="0 0 1024 1024"><g transform="scale(1, -1) translate(0, -900)"><path d="M 668 393 Q 734 412 780 420 Q 790 421 792 418 Q 799 411 797 388 Q 797 327 785 298 Q 769 268 744 272 Q 728 273 714 278 Q 692 284 708 263 Q 739 229 754 203 Q 767 188 780 200 Q 825 227 847 344 Q 853 399 870 420 Q 880 432 875 440 Q 866 450 822 468 Q 804 475 788 463 Q 775 456 726 442 Q 692 433 663 427 C 634 421 639 385 668 393 Z" fill="black" /></g></svg>