<?xml version='1.0' encoding='utf-8'?>
<svg xmlns="http://www.w3.org/2000/svg" version="1.1" viewBox="0 0 1024 1024"><g transform="scale(1, -1) translate(0, -900)"><path d="M 263 217 Q 257 162 243 108 Q 233 74 257 13 Q 264 -3 271 -7 Q 277 -13 284 -6 Q 291 -2 301 19 Q 310 41 309 71 Q 308 98 307 229 L 307 268 Q 307 307 308 352 L 308 391 Q 308 416 309 443 L 309 479 Q 309 509 310 539 L 310 568 Q 310 617 312 654 L 317 701 Q 321 735 329 761 Q 338 774 334 788 Q 328 797 275 829 Q 253 845 234 830 Q 230 826 235 811 Q 268 762 269 684 L 270 642 Q 270 603 272 560 L 272 531 Q 271 501 271 470 L 270 434 Q 269 409 268 380 L 268 346 Q 267 303 267 258 L 263 217 Z" fill="black" /></g></svg>