<?xml version='1.0' encoding='utf-8'?>
<svg xmlns="http://www.w3.org/2000/svg" version="1.1" viewBox="0 0 1024 1024"><g transform="scale(1, -1) translate(0, -900)"><path d="M 356 358 Q 369 340 381 334 Q 391 327 404 346 Q 416 365 441 476 Q 448 504 469 525 Q 479 537 470 549 Q 457 562 418 585 Q 403 592 331 573 Q 322 573 310 568 L 272 560 Q 229 554 159 534 C 130 526 141 496 170 505 Q 210 518 272 531 L 310 539 Q 371 554 387 544 Q 399 535 395 519 Q 374 399 360 388 C 348 368 348 368 356 358 Z" fill="black" /></g></svg>