<?xml version='1.0' encoding='utf-8'?>
<svg xmlns="http://www.w3.org/2000/svg" version="1.1" viewBox="0 0 1024 1024"><g transform="scale(1, -1) translate(0, -900)"><path d="M 819 108 Q 849 204 887 235 Q 901 249 896 263 Q 895 269 890 273 Q 880 285 817 316 Q 804 321 790 319 Q 780 319 769 316 Q 719 296 676 285 L 628 274 Q 597 271 557 265 C 527 261 543 222 572 231 Q 578 233 585 235 L 755 269 Q 766 270 773 269 Q 794 266 792 235 Q 792 231 790 218 Q 776 159 760 112 C 751 84 810 79 819 108 Z" fill="black" /></g></svg>