<?xml version='1.0' encoding='utf-8'?>
<svg xmlns="http://www.w3.org/2000/svg" version="1.1" viewBox="0 0 1024 1024"><g transform="scale(1, -1) translate(0, -900)"><path d="M 270 300 Q 270 240 270 227 L 267 190 Q 264 153 258 123 L 245 69 Q 238 39 246 6 Q 253 -21 261 -35 Q 272 -57 280 -53 Q 284 -52 290 -47 Q 312 -23 310 24 L 310 27 L 310 133 Q 310 176 310 201 L 310 237 Q 310 243 312 308 L 312 342 Q 312 349 312 404 L 312 441 L 312 503 L 314 533 Q 314 539 314 608 L 318 655 Q 322 706 333 738 Q 340 759 339 767 Q 339 768 339 770 Q 333 780 280 811 Q 265 823 252 819 Q 245 817 241 815 Q 236 811 239 794 Q 274 743 274 692 L 274 639 L 276 598 Q 276 573 278 531 Q 276 527 276 523 L 276 495 Q 274 439 274 431 L 274 396 Q 273 366 270 330 L 270 300 Z" fill="black" /></g></svg>