<?xml version='1.0' encoding='utf-8'?>
<svg xmlns="http://www.w3.org/2000/svg" version="1.1" viewBox="0 0 1024 1024"><g transform="scale(1, -1) translate(0, -900)"><path d="M 378 357 Q 394 333 409 326 Q 419 319 433 338 Q 446 359 474 475 Q 481 505 503 528 Q 515 541 504 553 Q 489 569 449 593 Q 428 602 377 584 Q 343 578 328 573 L 284 562 Q 259 558 231 550 Q 191 540 157 532 C 128 525 145 490 173 500 Q 216 516 284 530 L 328 540 Q 397 558 416 547 Q 429 537 425 520 Q 401 390 385 382 C 373 364 373 364 378 357 Z" fill="black" /></g></svg>