<?xml version='1.0' encoding='utf-8'?>
<svg xmlns="http://www.w3.org/2000/svg" version="1.1" viewBox="0 0 1024 1024"><g transform="scale(1, -1) translate(0, -900)"><path d="M 277 215 Q 271 154 256 96 Q 244 57 271 -6 Q 278 -24 286 -27 Q 293 -34 300 -25 Q 307 -21 318 0 Q 328 25 326 57 Q 325 85 325 228 L 325 272 Q 325 308 326 348 L 326 391 Q 326 418 327 445 L 328 484 L 328 540 L 328 573 Q 328 601 330 632 L 334 680 Q 338 717 347 748 Q 356 764 353 777 Q 346 787 290 821 Q 266 837 245 822 Q 241 818 247 801 Q 280 752 281 703 Q 281 684 282 662 L 283 619 Q 283 592 284 562 L 284 530 Q 283 502 283 473 L 282 436 Q 281 408 280 377 L 280 341 Q 280 301 280 259 L 277 215 Z" fill="black" /></g></svg>