<?xml version='1.0' encoding='utf-8'?>
<svg xmlns="http://www.w3.org/2000/svg" version="1.1" viewBox="0 0 1024 1024"><g transform="scale(1, -1) translate(0, -900)"><path d="M 268 215 Q 262 142 242 73 Q 232 36 256 -26 Q 263 -44 271 -47 Q 277 -54 284 -45 Q 291 -41 302 -21 Q 311 4 310 34 Q 309 65 310 227 L 311 271 Q 311 310 312 354 L 313 390 Q 313 415 314 443 L 315 478 Q 315 506 315 536 L 316 566 Q 316 582 319 637 L 324 686 Q 328 722 337 750 Q 346 765 343 778 Q 336 788 282 821 Q 260 837 239 823 Q 235 817 241 803 Q 274 752 275 666 L 276 623 Q 276 592 276 556 L 276 527 Q 275 499 275 466 L 274 435 Q 273 407 272 377 L 271 345 Q 270 303 269 259 L 268 215 Z" fill="black" /></g></svg>