<?xml version='1.0' encoding='utf-8'?>
<svg xmlns="http://www.w3.org/2000/svg" version="1.1" viewBox="0 0 1024 1024"><g transform="scale(1, -1) translate(0, -900)"><path d="M 281 199 Q 277 121 257 48 Q 245 6 272 -51 Q 279 -67 287 -71 Q 293 -78 300 -70 Q 327 -48 325 10 Q 324 41 323 209 L 323 251 Q 323 293 323 339 L 323 380 L 323 416 L 323 454 Q 323 482 323 511 L 323 540 Q 323 585 325 615 L 328 662 Q 332 705 342 739 Q 351 754 348 767 Q 341 776 287 809 Q 263 825 243 810 Q 239 804 245 790 Q 281 738 281 686 Q 281 667 282 644 L 283 601 Q 283 568 285 531 L 285 502 Q 284 474 284 444 L 284 408 Q 283 389 283 366 L 282 331 Q 282 288 282 240 L 281 199 Z" fill="black" /></g></svg>