<?xml version='1.0' encoding='utf-8'?>
<svg xmlns="http://www.w3.org/2000/svg" version="1.1" viewBox="0 0 1024 1024"><g transform="scale(1, -1) translate(0, -900)"><path d="M 273 193 Q 266 142 253 92 Q 241 50 268 -7 Q 275 -23 283 -27 Q 289 -34 296 -25 Q 303 -21 313 0 Q 323 24 322 54 Q 321 81 320 204 L 320 248 Q 320 287 320 333 L 320 371 Q 320 398 321 426 L 322 466 Q 322 497 322 532 L 322 561 Q 322 600 323 638 L 326 691 Q 330 743 342 782 Q 351 798 348 811 Q 341 820 287 853 Q 263 869 243 854 Q 239 850 245 834 Q 279 782 281 730 Q 281 705 282 675 L 283 627 Q 283 590 284 551 L 283 522 Q 282 489 282 454 L 282 419 Q 281 389 280 358 L 279 325 Q 279 283 278 238 L 273 193 Z" fill="black" /></g></svg>