<?xml version='1.0' encoding='utf-8'?>
<svg xmlns="http://www.w3.org/2000/svg" version="1.1" viewBox="0 0 1024 1024"><g transform="scale(1, -1) translate(0, -900)"><path d="M 472 79 Q 469 -35 487 -57 Q 491 -64 499 -62 Q 518 -50 524 82 L 525 119 Q 525 152 523 186 L 523 220 Q 523 242 524 268 L 525 303 Q 525 325 525 348 L 526 375 Q 527 396 528 428 L 535 473 Q 536 477 537 479 Q 540 495 527 504 Q 497 523 484 526 Q 472 530 458 523 Q 449 516 456 506 Q 474 470 476 458 L 477 418 Q 477 394 476 367 L 476 340 Q 476 316 476 290 L 475 261 Q 474 237 474 210 L 473 180 Q 473 147 472 113 L 472 79 Z" fill="black" /></g></svg>