<?xml version='1.0' encoding='utf-8'?>
<svg xmlns="http://www.w3.org/2000/svg" version="1.1" viewBox="0 0 1024 1024"><g transform="scale(1, -1) translate(0, -900)"><path d="M 605 195 Q 618 173 633 166 Q 642 159 656 177 Q 666 193 692 284 Q 699 311 720 333 Q 732 343 722 356 Q 709 371 672 394 Q 657 401 596 387 Q 574 386 526 375 L 476 367 Q 460 366 446 362 Q 401 353 364 347 C 334 342 341 309 370 317 Q 412 330 476 340 L 525 348 Q 621 366 638 353 Q 648 346 645 332 Q 627 235 616 223 C 603 197 603 197 605 195 Z" fill="black" /></g></svg>