<?xml version='1.0' encoding='utf-8'?>
<svg xmlns="http://www.w3.org/2000/svg" version="1.1" viewBox="0 0 1024 1024"><g transform="scale(1, -1) translate(0, -900)"><path d="M 675 439 Q 745 463 788 472 C 817 479 803 496 773 491 Q 694 479 607 456 Q 598 453 595 456 Q 594 459 598 466 Q 680 578 698 597 Q 708 606 703 617 Q 699 626 673 639 C 647 653 617 658 623 629 Q 632 605 617 571 Q 584 490 516 443 Q 504 433 507 422 Q 513 406 536 389 Q 546 379 557 389 Q 584 411 635 426 L 675 439 Z" fill="black" /></g></svg>