<?xml version='1.0' encoding='utf-8'?>
<svg xmlns="http://www.w3.org/2000/svg" version="1.1" viewBox="0 0 1024 1024"><g transform="scale(1, -1) translate(0, -900)"><path d="M 690 184 Q 747 64 842 -14 Q 903 -60 933 -59 Q 952 -53 944 -26 Q 940 19 939 148 Q 939 170 931 170 Q 924 170 918 150 Q 903 116 890 87 Q 878 59 867 58 Q 854 57 826 80 Q 760 143 719 224 L 693 283 Q 651 394 622 555 L 614 606 Q 604 690 610 762 Q 622 805 564 825 Q 527 840 507 831 Q 486 824 497 804 Q 546 762 547 728 Q 557 658 569 594 L 577 550 Q 613 363 666 238 L 690 184 Z" fill="black" /></g></svg>