<?xml version='1.0' encoding='utf-8'?>
<svg xmlns="http://www.w3.org/2000/svg" version="1.1" viewBox="0 0 1024 1024"><g transform="scale(1, -1) translate(0, -900)"><path d="M 382 353 Q 398 329 413 321 Q 423 314 438 334 Q 450 353 478 454 Q 487 485 509 509 Q 522 521 511 535 Q 496 551 454 576 Q 436 585 374 567 Q 347 564 336 559 L 294 549 Q 269 545 241 537 Q 202 527 168 520 C 139 514 158 478 186 488 Q 228 504 293 516 L 336 526 Q 402 541 419 531 Q 429 522 426 507 Q 405 393 389 382 C 376 362 376 362 382 353 Z" fill="black" /></g></svg>