<?xml version='1.0' encoding='utf-8'?>
<svg xmlns="http://www.w3.org/2000/svg" version="1.1" viewBox="0 0 1024 1024"><g transform="scale(1, -1) translate(0, -900)"><path d="M 386 369 Q 405 341 421 333 Q 431 326 446 347 Q 458 366 484 471 Q 491 501 514 525 Q 527 537 516 550 Q 500 566 459 591 Q 441 600 380 581 Q 353 578 342 572 L 299 562 Q 274 558 253 552 Q 214 542 183 534 C 154 527 167 492 195 502 Q 235 518 299 531 L 342 541 Q 409 556 423 547 Q 435 538 432 522 Q 414 411 400 396 C 386 369 386 369 386 369 Z" fill="black" /></g></svg>