<?xml version='1.0' encoding='utf-8'?>
<svg xmlns="http://www.w3.org/2000/svg" version="1.1" viewBox="0 0 1024 1024"><g transform="scale(1, -1) translate(0, -900)"><path d="M 280 204 Q 274 137 256 72 Q 244 30 271 -30 Q 278 -48 286 -51 Q 293 -58 300 -49 Q 307 -45 318 -24 Q 328 1 327 33 Q 326 63 326 215 L 326 255 Q 326 292 327 335 L 328 372 Q 328 405 329 440 L 329 482 Q 329 509 330 537 L 330 568 Q 330 608 332 638 L 336 685 Q 340 728 351 764 Q 360 779 357 793 Q 350 803 294 837 Q 270 853 249 838 Q 245 834 250 818 Q 286 766 286 713 Q 286 691 286 666 L 287 625 Q 287 594 288 557 L 288 527 Q 287 496 287 462 L 286 424 Q 285 393 284 359 L 284 327 Q 283 287 283 244 L 280 204 Z" fill="black" /></g></svg>