<?xml version='1.0' encoding='utf-8'?>
<svg xmlns="http://www.w3.org/2000/svg" version="1.1" viewBox="0 0 1024 1024"><g transform="scale(1, -1) translate(0, -900)"><path d="M 362 343 Q 375 331 386 326 Q 396 320 407 340 Q 417 359 432 466 Q 438 494 456 518 Q 466 530 456 541 Q 441 554 402 575 Q 383 582 371 575 Q 350 568 319 560 Q 318 560 315 558 L 277 548 Q 256 544 233 537 Q 196 527 165 518 C 136 510 164 482 192 492 Q 225 505 276 516 L 315 526 Q 360 536 371 529 Q 384 522 382 506 Q 375 406 368 389 Q 365 380 355 376 C 339 362 339 362 362 343 Z" fill="black" /></g></svg>