<?xml version='1.0' encoding='utf-8'?>
<svg xmlns="http://www.w3.org/2000/svg" version="1.1" viewBox="0 0 1024 1024"><g transform="scale(1, -1) translate(0, -900)"><path d="M 380 333 Q 395 312 409 306 Q 419 299 433 319 Q 445 340 469 456 Q 476 484 496 509 Q 508 521 496 534 Q 481 549 441 571 Q 423 578 371 560 Q 353 559 332 549 L 294 538 Q 272 534 249 526 Q 218 517 190 509 C 161 501 173 466 201 477 Q 237 492 293 507 L 332 517 Q 393 536 409 526 Q 422 517 419 500 Q 400 371 381 360 C 370 345 370 345 380 333 Z" fill="black" /></g></svg>