<?xml version='1.0' encoding='utf-8'?>
<svg xmlns="http://www.w3.org/2000/svg" version="1.1" viewBox="0 0 1024 1024"><g transform="scale(1, -1) translate(0, -900)"><path d="M 665 544 Q 655 498 628 453 Q 619 443 622 432 Q 623 422 637 412 Q 664 384 686 352 Q 699 334 711 333 Q 724 333 728 353 Q 732 375 723 390 Q 717 400 680 414 Q 661 421 654 435 Q 650 445 664 458 Q 677 477 702 516 Q 717 538 730 550 Q 743 559 735 574 Q 720 605 697 615 Q 684 622 674 619 Q 664 616 670 600 Q 679 578 665 544 Z" fill="black" /></g></svg>