<?xml version='1.0' encoding='utf-8'?>
<svg xmlns="http://www.w3.org/2000/svg" version="1.1" viewBox="0 0 1024 1024"><g transform="scale(1, -1) translate(0, -900)"><path d="M 803 569 Q 788 520 757 475 Q 747 465 750 452 Q 751 442 767 431 Q 800 400 829 365 Q 842 347 856 347 Q 869 348 873 369 Q 876 391 865 407 Q 858 420 812 435 Q 793 441 786 454 Q 780 464 794 477 Q 810 496 840 536 Q 856 560 871 571 Q 886 578 878 596 Q 865 629 841 641 Q 828 650 817 647 Q 807 644 812 627 Q 819 603 803 569 Z" fill="black" /></g></svg>