<?xml version='1.0' encoding='utf-8'?>
<svg xmlns="http://www.w3.org/2000/svg" version="1.1" viewBox="0 0 1024 1024"><g transform="scale(1, -1) translate(0, -900)"><path d="M 391 346 Q 404 328 417 322 Q 427 315 441 334 Q 454 356 479 476 Q 486 504 507 528 Q 519 540 508 553 Q 493 568 453 591 Q 435 598 380 580 Q 353 577 330 568 L 288 557 Q 266 553 243 546 Q 200 534 162 525 C 133 518 154 484 182 495 Q 222 511 288 527 L 330 537 Q 405 556 421 547 Q 434 537 430 520 Q 409 391 394 378 C 382 357 382 357 391 346 Z" fill="black" /></g></svg>