<?xml version='1.0' encoding='utf-8'?>
<svg xmlns="http://www.w3.org/2000/svg" version="1.1" viewBox="0 0 1024 1024"><g transform="scale(1, -1) translate(0, -900)"><path d="M 657 227 Q 657 28 672 3 Q 687 -12 695 9 Q 710 45 711 238 L 712 282 Q 712 313 712 346 L 712 386 Q 712 423 712 457 L 712 485 Q 712 539 714 583 L 715 625 Q 716 763 739 799 Q 746 814 726 829 Q 702 848 660 859 Q 642 863 630 850 Q 620 843 632 831 Q 660 806 663 771 Q 663 710 663 612 L 662 571 Q 662 528 662 475 L 662 446 Q 662 409 661 369 L 660 335 Q 659 298 658 265 L 657 227 Z" fill="black" /></g></svg>