<?xml version='1.0' encoding='utf-8'?>
<svg xmlns="http://www.w3.org/2000/svg" version="1.1" viewBox="0 0 1024 1024"><g transform="scale(1, -1) translate(0, -900)"><path d="M 542 527 Q 530 473 500 421 Q 491 412 493 401 Q 494 391 507 381 Q 535 345 558 307 Q 568 289 581 287 Q 593 286 599 305 Q 606 326 597 342 Q 593 355 550 378 Q 531 387 524 402 Q 520 414 535 426 Q 551 450 580 499 Q 593 523 607 534 Q 620 544 612 559 Q 596 589 573 599 Q 560 606 549 602 Q 539 599 546 583 Q 555 561 542 527 Z" fill="black" /></g></svg>