<?xml version='1.0' encoding='utf-8'?>
<svg xmlns="http://www.w3.org/2000/svg" version="1.1" viewBox="0 0 1024 1024"><g transform="scale(1, -1) translate(0, -900)"><path d="M 371 355 Q 390 330 405 322 Q 415 315 427 335 Q 439 357 460 473 Q 467 501 486 523 Q 496 535 486 547 Q 473 560 434 582 Q 421 588 346 567 Q 343 567 330 563 L 292 553 Q 264 547 237 539 Q 200 529 169 521 C 140 513 159 483 187 494 Q 227 510 292 524 L 330 533 Q 387 549 403 539 Q 416 530 413 513 Q 398 392 384 377 C 372 353 370 357 371 355 Z" fill="black" /></g></svg>