<?xml version='1.0' encoding='utf-8'?>
<svg xmlns="http://www.w3.org/2000/svg" version="1.1" viewBox="0 0 1024 1024"><g transform="scale(1, -1) translate(0, -900)"><path d="M 358 313 Q 374 289 389 282 Q 399 275 413 294 Q 426 316 454 439 Q 461 467 483 490 Q 495 502 484 514 Q 469 530 431 553 Q 410 560 360 543 Q 336 540 312 531 L 276 522 Q 270 522 152 490 C 123 482 147 452 175 463 Q 215 479 275 493 L 311 501 Q 380 522 397 511 Q 410 502 407 484 Q 383 349 366 338 C 353 319 353 319 358 313 Z" fill="black" /></g></svg>