<?xml version='1.0' encoding='utf-8'?>
<svg xmlns="http://www.w3.org/2000/svg" version="1.1" viewBox="0 0 1024 1024"><g transform="scale(1, -1) translate(0, -900)"><path d="M 582 197 Q 598 228 614 272 Q 624 294 642 311 Q 652 318 652 326 Q 651 336 627 346 Q 597 359 587 358 Q 578 357 571 350 Q 540 329 482 311 Q 454 308 452 301 Q 452 298 457 295 Q 470 288 494 286 Q 512 289 543 309 Q 559 318 568 313 Q 574 310 564 266 Q 560 242 546 217 L 530 186 Q 500 135 436 92 Q 429 88 431 84 Q 432 80 437 82 Q 491 85 557 159 L 582 197 Z" fill="black" /></g></svg>