<?xml version='1.0' encoding='utf-8'?>
<svg xmlns="http://www.w3.org/2000/svg" version="1.1" viewBox="0 0 1024 1024"><g transform="scale(1, -1) translate(0, -900)"><path d="M 792 170 Q 819 216 837 289 Q 841 320 857 336 Q 870 349 853 361 Q 834 374 805 383 Q 786 387 769 377 Q 748 361 717 349 Q 695 346 685 339 Q 678 333 694 326 Q 721 314 765 338 Q 783 345 784 324 Q 784 270 757 205 L 737 167 Q 692 110 599 76 Q 586 72 595 66 Q 602 62 626 67 Q 687 76 724 96 Q 745 109 763 129 L 792 170 Z" fill="black" /></g></svg>