<?xml version='1.0' encoding='utf-8'?>
<svg xmlns="http://www.w3.org/2000/svg" version="1.1" viewBox="0 0 1024 1024"><g transform="scale(1, -1) translate(0, -900)"><path d="M 602 501 Q 621 540 635 593 Q 642 617 660 634 Q 670 643 669 650 Q 668 660 642 668 Q 612 680 601 678 Q 592 677 585 668 Q 540 638 498 624 Q 470 620 468 613 Q 468 610 474 607 Q 486 600 510 600 Q 529 604 560 626 Q 576 636 586 632 Q 593 629 585 582 Q 582 558 565 515 L 550 484 Q 517 432 471 396 Q 465 392 467 388 Q 468 384 473 386 Q 527 398 578 462 L 602 501 Z" fill="black" /></g></svg>