<?xml version='1.0' encoding='utf-8'?>
<svg xmlns="http://www.w3.org/2000/svg" version="1.1" viewBox="0 0 1024 1024"><g transform="scale(1, -1) translate(0, -900)"><path d="M 626 210 Q 626 206 626 198 Q 622 32 626 -23 Q 632 -48 638 -57 Q 644 -64 651 -62 Q 669 -50 672 5 Q 687 149 678 217 L 678 253 Q 677 292 678 346 L 678 379 Q 678 404 679 433 L 679 470 Q 679 497 680 525 L 680 551 Q 681 570 682 591 Q 682 603 683 613 L 688 655 Q 691 677 696 695 Q 699 713 685 722 Q 666 735 653 741 C 627 756 592 756 605 729 Q 606 728 608 724 Q 635 670 635 637 L 636 600 Q 635 573 634 542 L 634 516 Q 633 488 633 456 L 633 425 Q 632 398 631 369 L 630 338 Q 629 295 627 246 L 626 210 Z" fill="black" /></g></svg>