<?xml version='1.0' encoding='utf-8'?>
<svg xmlns="http://www.w3.org/2000/svg" version="1.1" viewBox="0 0 1024 1024"><g transform="scale(1, -1) translate(0, -900)"><path d="M 266 189 Q 260 125 243 64 Q 234 28 257 -31 Q 264 -47 271 -51 Q 277 -57 284 -50 Q 291 -46 301 -25 Q 310 -3 309 27 Q 308 55 309 200 L 309 237 Q 309 270 310 306 L 310 341 Q 310 371 311 402 L 311 439 L 311 501 L 312 531 Q 312 567 313 605 L 317 652 Q 321 703 333 741 Q 340 754 338 768 Q 332 777 279 809 Q 257 825 238 810 Q 234 806 239 791 Q 273 740 274 690 Q 274 665 274 637 L 275 596 Q 275 565 277 530 Q 276 527 276 522 L 275 493 Q 274 462 274 429 L 273 395 Q 272 364 270 329 L 270 299 Q 269 265 269 226 L 266 189 Z" fill="black" /></g></svg>