<?xml version='1.0' encoding='utf-8'?>
<svg xmlns="http://www.w3.org/2000/svg" version="1.1" viewBox="0 0 1024 1024"><g transform="scale(1, -1) translate(0, -900)"><path d="M 285 226 Q 279 153 261 84 Q 249 42 276 -15 Q 283 -31 291 -35 Q 297 -42 304 -33 Q 311 -29 321 -8 Q 331 16 330 46 Q 329 77 328 236 L 328 277 Q 328 310 329 347 L 329 387 Q 329 414 330 441 L 330 478 Q 330 505 330 533 L 330 563 Q 330 602 331 641 L 334 689 Q 338 738 350 778 Q 359 794 356 807 Q 349 816 295 849 Q 271 865 251 850 Q 247 846 253 830 Q 287 778 289 726 Q 289 701 290 672 L 291 629 Q 291 592 292 553 L 292 524 Q 291 497 291 467 L 290 432 Q 289 404 288 373 L 288 339 Q 287 303 287 265 L 285 226 Z" fill="black" /></g></svg>