<?xml version='1.0' encoding='utf-8'?>
<svg xmlns="http://www.w3.org/2000/svg" version="1.1" viewBox="0 0 1024 1024"><g transform="scale(1, -1) translate(0, -900)"><path d="M 810 530 Q 832 572 850 632 Q 860 657 879 676 Q 891 685 890 692 Q 887 702 861 713 Q 830 726 817 725 Q 808 724 800 716 Q 766 692 720 676 Q 689 673 688 665 Q 687 662 693 659 Q 706 650 732 649 Q 747 653 771 672 Q 790 682 799 678 Q 806 674 796 623 Q 793 602 771 547 L 753 513 Q 705 450 660 417 Q 653 411 655 408 Q 656 404 662 406 Q 723 421 784 490 L 810 530 Z" fill="black" /></g></svg>