<?xml version='1.0' encoding='utf-8'?>
<svg xmlns="http://www.w3.org/2000/svg" version="1.1" viewBox="0 0 1024 1024"><g transform="scale(1, -1) translate(0, -900)"><path d="M 361 320 Q 373 304 385 298 Q 395 291 408 310 Q 420 329 445 440 Q 452 468 472 490 Q 484 500 473 513 Q 460 526 422 549 Q 404 556 338 537 Q 329 537 314 531 L 275 522 Q 232 513 172 497 C 143 489 152 456 180 466 Q 180 467 182 467 Q 219 480 275 493 L 314 501 Q 374 519 391 508 Q 403 499 399 483 Q 381 378 373 363 Q 369 353 356 350 Q 353 350 355 349 C 342 342 342 342 361 320 Z" fill="black" /></g></svg>