<?xml version='1.0' encoding='utf-8'?>
<svg xmlns="http://www.w3.org/2000/svg" version="1.1" viewBox="0 0 1024 1024"><g transform="scale(1, -1) translate(0, -900)"><path d="M 705 308 Q 706 345 712 383 Q 716 399 705 407 Q 692 419 671 426 Q 659 429 652 424 Q 646 420 651 405 Q 664 371 664 336 Q 661 165 677 119 Q 683 95 702 76 Q 744 34 835 28 Q 914 25 963 72 Q 984 88 970 115 Q 957 139 937 210 Q 936 226 929 230 Q 923 233 919 216 Q 894 138 878 115 Q 871 105 848 98 Q 797 89 746 112 Q 704 137 702 212 Q 701 246 703 286 L 705 308 Z" fill="black" /></g></svg>