<?xml version='1.0' encoding='utf-8'?>
<svg xmlns="http://www.w3.org/2000/svg" version="1.1" viewBox="0 0 1024 1024"><g transform="scale(1, -1) translate(0, -900)"><path d="M 491 116 Q 488 -58 506 -85 Q 512 -92 519 -90 Q 535 -80 539 -25 Q 546 48 545 121 L 544 156 Q 543 184 542 233 L 542 268 Q 542 293 542 320 L 542 358 Q 542 382 542 407 L 543 434 Q 543 459 544 485 L 548 527 Q 551 546 555 562 Q 558 578 544 587 Q 513 608 499 610 Q 487 614 472 606 Q 463 599 471 588 Q 493 536 495 513 L 496 476 Q 496 452 495 424 L 495 398 Q 495 373 495 344 L 495 312 Q 494 287 493 257 L 493 226 Q 492 190 492 150 L 491 116 Z" fill="black" /></g></svg>