<?xml version='1.0' encoding='utf-8'?>
<svg xmlns="http://www.w3.org/2000/svg" version="1.1" viewBox="0 0 1024 1024"><g transform="scale(1, -1) translate(0, -900)"><path d="M 615 240 Q 630 218 644 209 Q 654 202 670 221 Q 683 239 712 334 Q 722 362 744 385 Q 757 395 747 410 Q 732 426 693 452 Q 678 461 612 446 Q 585 443 543 434 L 495 424 Q 474 423 453 417 Q 396 405 351 398 C 321 393 343 361 372 370 Q 421 386 495 398 L 542 407 Q 633 429 655 413 Q 665 404 662 390 Q 643 296 634 282 Q 630 270 617 269 C 600 259 600 259 615 240 Z" fill="black" /></g></svg>