<?xml version='1.0' encoding='utf-8'?>
<svg xmlns="http://www.w3.org/2000/svg" version="1.1" viewBox="0 0 1024 1024"><g transform="scale(1, -1) translate(0, -900)"><path d="M 475 89 Q 472 -55 487 -73 Q 491 -80 498 -78 Q 519 -63 525 95 L 524 128 Q 523 150 524 186 L 524 215 Q 525 240 526 268 L 527 302 L 527 346 L 528 370 L 530 388 Q 530 407 532 419 L 540 461 Q 543 477 531 485 Q 527 488 524 489 L 515 495 Q 484 513 464 503 Q 457 496 462 487 Q 477 457 480 442 L 482 406 Q 482 385 481 361 L 481 336 Q 480 314 480 288 L 480 258 Q 479 233 478 204 L 477 178 Q 476 153 476 122 L 475 89 Z" fill="black" /></g></svg>