<?xml version='1.0' encoding='utf-8'?>
<svg xmlns="http://www.w3.org/2000/svg" version="1.1" viewBox="0 0 1024 1024"><g transform="scale(1, -1) translate(0, -900)"><path d="M 367 343 Q 380 324 393 318 Q 403 311 416 330 Q 428 351 453 464 Q 460 492 481 514 Q 493 524 482 537 Q 469 552 431 574 Q 418 580 343 563 Q 330 563 313 556 L 269 547 Q 250 544 234 540 Q 194 530 160 523 C 131 517 147 485 176 494 Q 213 507 269 517 L 313 526 Q 380 544 399 532 Q 411 523 407 506 Q 386 388 373 373 C 362 350 362 350 367 343 Z" fill="black" /></g></svg>