<?xml version='1.0' encoding='utf-8'?>
<svg xmlns="http://www.w3.org/2000/svg" version="1.1" viewBox="0 0 1024 1024"><g transform="scale(1, -1) translate(0, -900)"><path d="M 382 379 Q 398 354 413 346 Q 422 339 436 358 Q 449 380 477 508 Q 484 536 503 558 Q 515 568 504 581 Q 491 594 453 616 Q 435 623 374 603 Q 350 600 338 593 L 301 582 Q 279 578 256 570 Q 216 558 182 549 C 153 541 172 508 200 520 Q 239 538 301 554 L 337 564 Q 406 588 423 576 Q 436 566 433 547 Q 408 412 392 400 C 380 381 380 381 382 379 Z" fill="black" /></g></svg>