<?xml version='1.0' encoding='utf-8'?>
<svg xmlns="http://www.w3.org/2000/svg" version="1.1" viewBox="0 0 1024 1024"><g transform="scale(1, -1) translate(0, -900)"><path d="M 284 228 Q 280 152 260 80 Q 248 41 275 -22 Q 282 -40 290 -43 Q 297 -50 304 -41 Q 311 -37 322 -16 Q 332 9 330 41 Q 329 72 329 238 L 329 279 Q 329 310 330 346 L 330 386 Q 330 411 331 436 L 331 471 L 331 527 L 331 555 Q 331 594 332 634 L 335 682 Q 339 731 351 768 Q 360 784 357 797 Q 350 807 294 841 Q 270 857 249 842 Q 245 838 251 821 Q 285 770 287 718 Q 287 693 288 665 L 289 622 Q 289 585 290 545 L 290 518 Q 289 490 289 460 L 288 428 Q 287 401 286 373 L 286 339 Q 285 305 285 267 L 284 228 Z" fill="black" /></g></svg>