<?xml version='1.0' encoding='utf-8'?>
<svg xmlns="http://www.w3.org/2000/svg" version="1.1" viewBox="0 0 1024 1024"><g transform="scale(1, -1) translate(0, -900)"><path d="M 370 351 Q 383 329 397 322 Q 406 315 420 333 Q 433 352 465 463 Q 472 490 494 511 Q 506 521 496 534 Q 483 549 446 572 Q 431 581 359 561 Q 353 561 331 555 L 290 545 Q 271 542 249 537 Q 206 527 167 518 C 138 511 161 482 190 491 Q 229 504 290 518 L 331 527 Q 400 542 415 533 Q 425 524 422 507 Q 397 404 388 387 Q 384 380 375 375 C 362 363 362 363 370 351 Z" fill="black" /></g></svg>