<?xml version='1.0' encoding='utf-8'?>
<svg xmlns="http://www.w3.org/2000/svg" version="1.1" viewBox="0 0 1024 1024"><g transform="scale(1, -1) translate(0, -900)"><path d="M 292 248 Q 292 176 263 77 Q 251 41 276 -22 Q 283 -40 291 -43 Q 297 -50 304 -41 Q 331 -25 331 38 Q 330 72 332 259 L 332 297 Q 333 331 334 368 L 334 401 Q 335 432 336 464 L 337 500 Q 337 531 337 564 L 338 593 Q 338 611 341 665 L 346 711 Q 350 753 361 786 Q 370 801 367 814 Q 360 824 306 857 Q 284 873 263 859 Q 259 855 265 839 Q 299 785 300 696 L 300 654 Q 300 620 301 582 L 301 554 Q 300 521 299 487 L 297 455 Q 296 424 295 389 L 294 359 Q 293 325 292 286 L 292 248 Z" fill="black" /></g></svg>