<?xml version='1.0' encoding='utf-8'?>
<svg xmlns="http://www.w3.org/2000/svg" version="1.1" viewBox="0 0 1024 1024"><g transform="scale(1, -1) translate(0, -900)"><path d="M 790 71 Q 800 46 824 -3 Q 833 -21 843 -20 Q 859 -17 869 9 Q 894 60 910 215 Q 916 263 938 292 Q 954 311 943 324 Q 922 346 876 366 Q 858 376 826 365 Q 703 317 517 300 C 487 297 506 258 535 263 Q 539 263 544 264 Q 586 274 640 285 L 677 293 Q 824 329 844 311 Q 851 307 851 288 Q 851 197 835 109 Q 834 93 827 92 Q 826 91 819 92 C 795 74 790 72 790 71 Z" fill="black" /></g></svg>