<?xml version='1.0' encoding='utf-8'?>
<svg xmlns="http://www.w3.org/2000/svg" version="1.1" viewBox="0 0 1024 1024"><g transform="scale(1, -1) translate(0, -900)"><path d="M 290 230 Q 286 155 266 84 Q 256 48 280 -14 Q 287 -32 295 -35 Q 301 -42 308 -33 Q 315 -29 325 -9 Q 335 16 334 46 Q 333 77 333 241 L 333 285 Q 333 322 334 365 L 335 400 Q 335 433 336 468 L 336 505 Q 336 533 337 563 L 337 595 Q 337 607 340 670 L 345 718 Q 349 751 358 778 Q 367 793 363 806 Q 357 816 302 849 Q 280 865 259 850 Q 255 846 261 830 Q 295 778 296 701 L 297 658 Q 297 624 298 584 L 298 553 Q 297 522 297 488 L 296 454 Q 295 420 294 385 L 294 355 Q 293 315 292 272 L 290 230 Z" fill="black" /></g></svg>