<?xml version='1.0' encoding='utf-8'?>
<svg xmlns="http://www.w3.org/2000/svg" version="1.1" viewBox="0 0 1024 1024"><g transform="scale(1, -1) translate(0, -900)"><path d="M 408 193 Q 418 177 429 171 Q 436 164 449 181 Q 458 194 480 265 Q 487 289 505 308 Q 515 318 506 328 Q 494 341 462 361 Q 450 367 385 350 Q 381 350 353 341 L 316 333 Q 303 330 289 326 Q 249 316 218 308 C 189 301 202 270 230 282 Q 249 292 316 307 L 353 316 Q 422 334 435 326 Q 442 320 440 309 Q 425 228 412 219 C 401 203 401 203 408 193 Z" fill="black" /></g></svg>