<?xml version='1.0' encoding='utf-8'?>
<svg xmlns="http://www.w3.org/2000/svg" version="1.1" viewBox="0 0 1024 1024"><g transform="scale(1, -1) translate(0, -900)"><path d="M 266 230 Q 262 152 241 80 Q 229 38 256 -19 Q 263 -35 271 -39 Q 277 -46 284 -37 Q 291 -33 301 -12 Q 311 12 310 42 Q 309 73 308 242 L 308 282 Q 308 321 309 364 L 309 402 Q 309 430 310 461 L 310 495 L 310 555 L 310 585 Q 310 630 312 668 L 317 715 Q 321 752 330 783 Q 339 798 336 811 Q 329 820 275 853 Q 251 869 232 854 Q 226 850 233 834 Q 269 783 269 700 L 270 658 Q 270 619 272 576 L 272 547 Q 271 516 271 482 L 270 452 Q 269 422 268 390 L 268 357 Q 267 317 267 272 L 266 230 Z" fill="black" /></g></svg>