<?xml version='1.0' encoding='utf-8'?>
<svg xmlns="http://www.w3.org/2000/svg" version="1.1" viewBox="0 0 1024 1024"><g transform="scale(1, -1) translate(0, -900)"><path d="M 360 371 Q 378 346 393 338 Q 403 331 415 350 Q 428 374 451 497 Q 458 524 478 547 Q 488 557 478 570 Q 465 585 426 606 Q 408 613 346 594 Q 334 594 310 585 L 272 576 Q 262 576 174 552 C 145 544 154 510 182 521 Q 182 522 186 523 Q 220 535 272 547 L 310 555 Q 379 573 395 563 Q 408 554 405 536 Q 387 407 372 392 C 360 370 360 372 360 371 Z" fill="black" /></g></svg>