<?xml version='1.0' encoding='utf-8'?>
<svg xmlns="http://www.w3.org/2000/svg" version="1.1" viewBox="0 0 1024 1024"><g transform="scale(1, -1) translate(0, -900)"><path d="M 739 415 Q 754 394 769 386 Q 779 379 793 399 Q 809 429 836 588 Q 843 616 865 640 Q 877 650 866 664 Q 851 679 812 702 Q 794 709 726 690 Q 723 690 621 668 Q 570 655 530 648 Q 529 648 529 647 C 500 640 521 615 551 620 Q 558 620 566 622 Q 630 643 744 663 Q 766 666 777 659 Q 793 647 790 624 Q 766 476 755 454 Q 751 444 741 440 C 728 428 728 428 739 415 Z" fill="black" /></g></svg>