<?xml version='1.0' encoding='utf-8'?>
<svg xmlns="http://www.w3.org/2000/svg" version="1.1" viewBox="0 0 1024 1024"><g transform="scale(1, -1) translate(0, -900)"><path d="M 251 195 Q 247 125 229 56 Q 220 16 245 -40 Q 252 -56 259 -59 Q 265 -66 272 -58 Q 279 -54 288 -33 Q 297 -9 296 20 Q 293 51 291 205 L 290 250 Q 290 287 290 331 L 290 369 Q 290 400 290 432 L 290 467 Q 290 494 290 520 L 290 548 Q 290 617 291 639 L 295 684 Q 299 712 306 737 Q 313 752 311 765 Q 304 774 251 805 Q 229 821 210 805 Q 206 801 211 786 Q 247 735 248 668 L 250 629 Q 250 586 253 538 L 253 511 Q 253 484 253 454 L 253 424 Q 253 393 253 358 L 253 325 Q 253 285 253 241 L 251 195 Z" fill="black" /></g></svg>