<?xml version='1.0' encoding='utf-8'?>
<svg xmlns="http://www.w3.org/2000/svg" version="1.1" viewBox="0 0 1024 1024"><g transform="scale(1, -1) translate(0, -900)"><path d="M 306 82 Q 305 72 304 60 Q 303 30 298 16 Q 289 -14 319 -59 Q 329 -75 335 -78 Q 345 -79 349 -68 Q 359 -41 356 -15 Q 355 40 353 92 L 352 128 Q 352 156 352 182 L 352 210 Q 352 231 352 250 L 353 279 Q 353 298 353 316 L 353 341 Q 354 363 355 379 L 358 412 Q 359 419 360 424 Q 360 434 338 453 C 316 474 294 472 305 444 Q 314 429 315 399 L 316 370 Q 316 354 316 333 L 316 307 Q 316 288 316 267 L 316 243 Q 316 222 315 200 L 313 175 Q 312 144 309 117 L 306 82 Z" fill="black" /></g></svg>