<?xml version='1.0' encoding='utf-8'?>
<svg xmlns="http://www.w3.org/2000/svg" version="1.1" viewBox="0 0 1024 1024"><g transform="scale(1, -1) translate(0, -900)"><path d="M 583 452 Q 596 433 610 427 Q 617 421 629 438 Q 639 457 658 563 Q 664 588 681 608 Q 691 618 681 629 Q 668 642 633 661 Q 624 664 549 648 Q 540 647 534 643 L 491 633 Q 479 632 396 609 C 367 601 386 573 414 583 Q 444 595 491 604 L 533 614 Q 593 627 607 620 Q 617 613 616 597 Q 601 486 589 473 C 580 455 580 455 583 452 Z" fill="black" /></g></svg>