<?xml version='1.0' encoding='utf-8'?>
<svg xmlns="http://www.w3.org/2000/svg" version="1.1" viewBox="0 0 1024 1024"><g transform="scale(1, -1) translate(0, -900)"><path d="M 745 243 Q 746 271 752 302 Q 756 318 744 327 Q 732 339 711 346 Q 699 349 692 344 Q 686 341 691 325 Q 704 291 703 256 Q 700 79 731 43 Q 749 25 783 12 Q 903 -27 983 42 Q 1002 58 987 83 Q 974 104 953 167 Q 952 182 945 186 Q 939 189 936 172 Q 914 102 899 80 Q 893 70 872 64 Q 821 55 779 73 Q 761 82 756 94 Q 738 124 743 223 L 745 243 Z" fill="black" /></g></svg>