<?xml version='1.0' encoding='utf-8'?>
<svg xmlns="http://www.w3.org/2000/svg" version="1.1" viewBox="0 0 1024 1024"><g transform="scale(1, -1) translate(0, -900)"><path d="M 517 253 Q 523 272 528 332 L 530 371 Q 530 402 532 442 L 532 475 Q 532 497 533 522 Q 533 525 533 527 L 533 557 Q 533 588 533 614 L 534 643 Q 535 679 538 707 L 540 751 Q 540 794 556 818 Q 560 831 546 843 Q 527 859 493 867 Q 478 871 468 861 Q 461 854 470 845 Q 491 827 492 802 Q 492 774 492 735 L 492 695 Q 491 667 491 633 L 491 604 Q 491 583 491 560 Q 490 553 490 545 L 490 519 Q 489 489 488 463 L 488 434 Q 488 398 487 360 L 487 325 Q 491 261 496 251 C 502 222 511 224 517 253 Z" fill="black" /></g></svg>