<?xml version='1.0' encoding='utf-8'?>
<svg xmlns="http://www.w3.org/2000/svg" version="1.1" viewBox="0 0 1024 1024"><g transform="scale(1, -1) translate(0, -900)"><path d="M 515 374 Q 545 518 550 599 L 552 621 Q 553 649 557 674 Q 558 710 565 716 C 571 735 571 735 553 746 Q 540 756 521 763 Q 505 772 493 767 Q 483 761 488 749 Q 506 722 507 666 Q 506 648 506 625 Q 500 456 456 319 Q 417 211 337 84 Q 333 78 331 72 Q 330 63 339 65 Q 372 71 449 203 Q 462 228 475 256 Q 494 305 510 358 L 515 374 Z" fill="black" /></g></svg>