<?xml version='1.0' encoding='utf-8'?>
<svg xmlns="http://www.w3.org/2000/svg" version="1.1" viewBox="0 0 1024 1024"><g transform="scale(1, -1) translate(0, -900)"><path d="M 579 229 Q 580 248 583 252 Q 587 267 578 275 Q 569 285 533 299 Q 520 303 513 299 Q 507 295 515 277 Q 548 220 520 126 Q 519 126 519 124 Q 512 94 479 61 Q 469 52 473 33 Q 479 8 491 -3 Q 501 -12 513 0 Q 546 40 644 122 Q 657 131 660 138 Q 661 144 656 143 Q 650 143 576 106 Q 570 103 568 106 Q 567 107 575 201 L 579 229 Z" fill="black" /></g></svg>