<?xml version='1.0' encoding='utf-8'?>
<svg xmlns="http://www.w3.org/2000/svg" version="1.1" viewBox="0 0 1024 1024"><g transform="scale(1, -1) translate(0, -900)"><path d="M 218 225 Q 214 158 196 92 Q 187 55 210 0 Q 216 -16 224 -19 Q 230 -25 236 -18 Q 243 -14 252 6 Q 261 28 260 57 Q 259 85 258 234 L 258 274 Q 258 311 258 352 L 258 386 Q 258 413 258 442 L 258 474 L 258 528 L 258 557 Q 258 591 259 627 L 261 667 Q 265 718 276 756 Q 283 769 281 782 Q 275 791 224 821 Q 202 837 184 822 Q 180 818 185 803 Q 219 754 220 704 Q 220 682 221 655 L 222 618 Q 222 585 224 548 L 223 520 Q 222 492 222 463 L 222 435 Q 221 407 220 376 L 220 347 Q 220 307 220 265 L 218 225 Z" fill="black" /></g></svg>