<?xml version='1.0' encoding='utf-8'?>
<svg xmlns="http://www.w3.org/2000/svg" version="1.1" viewBox="0 0 1024 1024"><g transform="scale(1, -1) translate(0, -900)"><path d="M 693 392 Q 694 431 696 467 L 697 502 Q 698 526 699 548 L 701 582 Q 701 604 701 625 L 702 656 Q 705 720 706 723 L 711 764 Q 712 773 714 779 Q 720 801 723 818 Q 727 830 706 844 Q 672 863 646 867 Q 630 870 622 861 Q 615 854 623 838 Q 651 799 651 772 Q 651 760 652 747 L 653 711 Q 653 680 654 647 L 654 616 Q 655 594 655 571 L 655 540 Q 654 516 654 491 L 653 460 Q 652 423 651 383 C 650 353 692 362 693 392 Z" fill="black" /></g></svg>