<?xml version='1.0' encoding='utf-8'?>
<svg xmlns="http://www.w3.org/2000/svg" version="1.1" viewBox="0 0 1024 1024"><g transform="scale(1, -1) translate(0, -900)"><path d="M 286 266 Q 286 182 259 92 Q 249 58 273 -3 Q 280 -19 287 -23 Q 293 -29 300 -22 Q 307 -18 317 3 Q 326 25 325 55 Q 324 88 325 274 L 325 314 Q 325 348 326 384 L 326 419 Q 326 443 327 467 L 327 502 Q 327 529 328 555 L 328 583 Q 328 622 330 649 L 333 694 Q 337 740 349 777 Q 356 790 354 804 Q 348 813 295 845 Q 273 861 254 846 Q 250 842 255 827 Q 289 776 290 724 Q 290 702 290 678 L 291 638 Q 291 610 292 576 L 292 549 Q 291 521 291 492 L 290 459 Q 289 434 288 408 L 287 378 Q 286 344 286 306 L 286 266 Z" fill="black" /></g></svg>