<?xml version='1.0' encoding='utf-8'?>
<svg xmlns="http://www.w3.org/2000/svg" version="1.1" viewBox="0 0 1024 1024"><g transform="scale(1, -1) translate(0, -900)"><path d="M 380 391 Q 396 369 409 362 Q 418 356 430 374 Q 440 393 462 498 Q 469 523 487 545 Q 497 555 488 566 Q 475 579 439 601 Q 427 607 357 590 Q 347 590 328 583 L 292 576 Q 270 576 189 554 C 160 546 170 515 198 525 Q 198 526 200 526 Q 237 539 292 549 L 328 555 Q 395 568 409 560 Q 419 553 417 537 Q 404 438 396 423 Q 393 414 386 411 C 375 398 375 398 380 391 Z" fill="black" /></g></svg>