<?xml version='1.0' encoding='utf-8'?>
<svg xmlns="http://www.w3.org/2000/svg" version="1.1" viewBox="0 0 1024 1024"><g transform="scale(1, -1) translate(0, -900)"><path d="M 294 357 Q 306 341 317 335 Q 326 329 337 345 Q 349 366 371 474 Q 378 499 395 519 Q 405 529 396 540 Q 383 553 349 572 Q 337 578 272 561 Q 271 561 258 557 L 224 548 Q 205 547 133 525 C 104 516 112 487 140 497 Q 173 510 223 520 L 258 528 Q 307 543 322 532 Q 334 525 331 508 Q 315 408 306 392 Q 303 382 293 380 C 281 372 281 372 294 357 Z" fill="black" /></g></svg>