<?xml version='1.0' encoding='utf-8'?>
<svg xmlns="http://www.w3.org/2000/svg" version="1.1" viewBox="0 0 1024 1024"><g transform="scale(1, -1) translate(0, -900)"><path d="M 241 211 Q 235 139 217 72 Q 207 36 230 -20 Q 237 -36 244 -39 Q 250 -45 256 -38 Q 263 -34 273 -14 Q 282 8 281 37 Q 280 67 280 221 L 280 261 Q 280 301 281 348 L 281 378 Q 281 405 282 432 L 282 465 Q 282 496 283 527 L 283 556 Q 283 583 286 636 L 290 677 Q 294 716 304 747 Q 311 760 309 774 Q 303 781 252 813 Q 231 829 212 815 Q 208 811 213 796 Q 247 745 248 664 L 248 627 Q 248 590 249 547 L 249 519 Q 248 488 248 454 L 247 424 Q 246 397 245 369 L 244 342 Q 243 299 243 252 L 241 211 Z" fill="black" /></g></svg>