<?xml version='1.0' encoding='utf-8'?>
<svg xmlns="http://www.w3.org/2000/svg" version="1.1" viewBox="0 0 1024 1024"><g transform="scale(1, -1) translate(0, -900)"><path d="M 772 382 Q 823 318 878 282 Q 933 254 957 258 Q 973 265 963 287 Q 953 321 936 425 Q 933 443 927 442 Q 909 394 890 344 Q 881 344 861 355 Q 827 382 797 417 L 769 457 Q 756 479 703 606 L 689 648 Q 668 718 665 782 Q 669 819 619 829 Q 588 836 572 828 Q 556 819 567 804 Q 612 776 617 747 Q 635 686 653 633 L 666 595 Q 702 492 750 416 L 772 382 Z" fill="black" /></g></svg>