<?xml version='1.0' encoding='utf-8'?>
<svg xmlns="http://www.w3.org/2000/svg" version="1.1" viewBox="0 0 1024 1024"><g transform="scale(1, -1) translate(0, -900)"><path d="M 335 313 Q 351 289 365 282 Q 374 276 386 294 Q 399 318 425 445 Q 432 470 450 492 Q 460 502 451 514 Q 438 527 403 548 Q 391 554 319 537 Q 312 537 293 531 L 255 523 Q 230 519 146 498 C 117 491 128 462 157 471 Q 196 484 255 496 L 293 503 Q 359 518 373 508 Q 386 498 382 480 Q 364 363 351 340 C 340 312 332 317 335 313 Z" fill="black" /></g></svg>