<?xml version='1.0' encoding='utf-8'?>
<svg xmlns="http://www.w3.org/2000/svg" version="1.1" viewBox="0 0 1024 1024"><g transform="scale(1, -1) translate(0, -900)"><path d="M 250 182 Q 244 115 228 52 Q 218 12 244 -47 Q 251 -63 259 -67 Q 265 -74 272 -66 Q 294 -47 296 39 Q 295 84 294 193 L 293 232 Q 293 266 293 306 L 293 341 Q 293 371 293 403 L 293 437 L 293 503 L 293 531 Q 293 570 292 608 L 294 654 Q 298 717 311 763 Q 318 778 316 791 Q 309 800 255 833 Q 231 849 211 833 Q 207 829 213 813 Q 250 761 251 707 Q 252 676 253 640 L 254 597 Q 254 561 255 523 L 255 496 Q 254 462 254 426 L 254 395 Q 253 364 253 331 L 253 299 Q 253 262 253 221 L 250 182 Z" fill="black" /></g></svg>