<?xml version='1.0' encoding='utf-8'?>
<svg xmlns="http://www.w3.org/2000/svg" version="1.1" viewBox="0 0 1024 1024"><g transform="scale(1, -1) translate(0, -900)"><path d="M 241 218 Q 237 140 218 68 Q 208 29 233 -28 Q 240 -44 247 -47 Q 253 -53 260 -46 Q 267 -42 277 -21 Q 286 3 284 32 Q 283 63 281 227 L 281 264 Q 281 298 281 335 L 281 375 Q 281 400 281 428 L 281 463 Q 281 490 281 518 L 281 553 Q 281 566 281 581 Q 280 600 281 619 L 283 664 Q 287 715 298 753 Q 305 768 303 780 Q 296 790 243 821 Q 221 837 202 822 Q 198 816 203 802 Q 239 751 240 700 Q 240 675 241 648 L 242 608 Q 242 578 244 543 L 244 510 Q 243 482 243 449 L 243 419 Q 242 391 242 362 L 242 328 Q 242 292 242 253 L 241 218 Z" fill="black" /></g></svg>