<?xml version='1.0' encoding='utf-8'?>
<svg xmlns="http://www.w3.org/2000/svg" version="1.1" viewBox="0 0 1024 1024"><g transform="scale(1, -1) translate(0, -900)"><path d="M 319 342 Q 320 341 322 339 Q 338 314 353 306 Q 362 300 374 318 Q 387 340 410 465 Q 416 493 435 515 Q 445 525 435 538 Q 422 551 383 572 Q 368 578 307 560 Q 298 560 281 553 L 244 543 Q 202 534 150 518 C 121 509 133 475 161 485 Q 194 498 244 510 L 281 518 Q 341 536 356 527 Q 369 517 366 499 Q 348 373 338 363 C 326 335 313 350 319 342 Z" fill="black" /></g></svg>