<?xml version='1.0' encoding='utf-8'?>
<svg xmlns="http://www.w3.org/2000/svg" version="1.1" viewBox="0 0 1024 1024"><g transform="scale(1, -1) translate(0, -900)"><path d="M 625 613 Q 635 597 645 591 Q 652 584 667 600 Q 676 610 700 667 Q 709 692 730 712 Q 740 722 732 734 Q 720 749 686 773 Q 673 780 593 764 Q 580 764 535 753 L 491 746 Q 484 746 367 723 C 338 717 349 684 378 693 Q 423 708 491 720 L 534 728 Q 636 750 656 735 Q 662 729 660 720 Q 645 662 639 652 Q 636 643 621 641 C 608 636 608 636 625 613 Z" fill="black" /></g></svg>