<?xml version='1.0' encoding='utf-8'?>
<svg xmlns="http://www.w3.org/2000/svg" version="1.1" viewBox="0 0 1024 1024"><g transform="scale(1, -1) translate(0, -900)"><path d="M 474 331 Q 474 253 487 234 Q 497 222 505 239 Q 511 255 515 338 L 516 372 Q 517 402 517 438 L 517 468 Q 517 478 517 489 L 517 503 L 517 532 Q 517 557 517 581 L 518 610 Q 519 647 521 674 L 523 715 Q 523 740 536 763 Q 542 776 526 788 Q 507 803 473 811 Q 458 815 448 804 Q 441 797 450 788 Q 469 772 472 749 Q 472 728 472 700 L 473 663 Q 473 635 474 600 L 474 572 Q 474 550 475 525 Q 475 524 475 520 L 475 494 Q 474 475 474 458 L 474 431 Q 474 398 473 362 L 474 331 Z" fill="black" /></g></svg>