<?xml version='1.0' encoding='utf-8'?>
<svg xmlns="http://www.w3.org/2000/svg" version="1.1" viewBox="0 0 1024 1024"><g transform="scale(1, -1) translate(0, -900)"><path d="M 559 445 Q 569 429 581 423 Q 588 417 600 433 Q 609 448 629 530 Q 635 554 652 573 Q 662 583 653 593 Q 641 606 608 625 Q 593 631 533 614 Q 530 614 518 610 L 474 600 Q 453 599 380 578 C 351 570 372 544 400 553 Q 428 563 474 572 L 517 581 Q 568 596 584 585 Q 593 579 590 566 Q 577 478 564 468 C 554 452 554 452 559 445 Z" fill="black" /></g></svg>