<?xml version='1.0' encoding='utf-8'?>
<svg xmlns="http://www.w3.org/2000/svg" version="1.1" viewBox="0 0 1024 1024"><g transform="scale(1, -1) translate(0, -900)"><path d="M 240 193 Q 233 141 219 88 Q 210 52 233 -7 Q 240 -23 247 -27 Q 253 -33 260 -26 Q 267 -22 277 -1 Q 286 21 285 51 Q 284 78 285 207 L 285 249 Q 285 282 286 318 L 286 351 Q 286 382 287 418 L 288 452 L 288 512 L 289 543 Q 289 580 290 619 L 294 663 Q 298 706 309 741 Q 316 754 314 768 Q 308 777 255 809 Q 233 825 214 811 Q 210 805 215 791 Q 248 742 249 693 Q 249 671 249 647 L 250 609 Q 250 575 251 538 Q 250 537 250 533 L 249 503 Q 248 472 248 440 L 248 408 Q 247 375 245 339 L 245 310 Q 245 276 245 238 L 240 193 Z" fill="black" /></g></svg>