<?xml version='1.0' encoding='utf-8'?>
<svg xmlns="http://www.w3.org/2000/svg" version="1.1" viewBox="0 0 1024 1024"><g transform="scale(1, -1) translate(0, -900)"><path d="M 488 515 Q 488 436 500 414 Q 504 410 510 411 Q 516 414 520 425 Q 526 443 531 521 L 532 552 Q 533 559 533 565 Q 532 578 532 601 L 532 630 Q 532 645 533 661 L 534 693 Q 534 709 534 728 L 535 753 Q 536 766 537 789 L 543 826 Q 543 829 544 831 Q 547 844 536 852 Q 511 868 500 871 Q 490 875 478 868 Q 471 861 476 854 Q 488 833 491 815 L 492 782 Q 492 766 491 746 L 491 720 Q 491 704 491 683 L 491 656 Q 490 640 489 622 L 489 595 Q 489 571 488 545 L 488 515 Z" fill="black" /></g></svg>