<?xml version='1.0' encoding='utf-8'?>
<svg xmlns="http://www.w3.org/2000/svg" version="1.1" viewBox="0 0 1024 1024"><g transform="scale(1, -1) translate(0, -900)"><path d="M 759 193 Q 772 171 785 163 Q 792 156 807 172 Q 817 185 846 267 Q 853 292 874 312 Q 884 322 876 333 Q 864 348 830 370 Q 815 379 750 362 Q 743 362 702 352 L 660 343 Q 639 342 568 323 C 539 315 548 287 576 296 Q 610 308 662 319 L 702 327 Q 780 348 800 335 Q 809 328 805 315 Q 781 222 768 214 C 756 197 756 197 759 193 Z" fill="black" /></g></svg>