<?xml version='1.0' encoding='utf-8'?>
<svg xmlns="http://www.w3.org/2000/svg" version="1.1" viewBox="0 0 1024 1024"><g transform="scale(1, -1) translate(0, -900)"><path d="M 637 482 Q 715 512 723 507 Q 729 501 726 484 Q 690 186 764 82 Q 848 -24 940 -19 Q 943 -18 946 -18 Q 962 -15 959 7 Q 946 73 951 190 Q 951 206 947 206 Q 943 207 936 193 Q 926 162 915 117 Q 908 84 888 71 Q 881 65 856 78 Q 771 129 763 237 Q 756 310 780 422 Q 792 474 812 500 Q 837 518 833 530 Q 829 546 771 570 Q 752 580 733 564 Q 703 545 643 520 L 584 498 Q 502 474 453 469 Q 429 465 445 454 Q 476 432 544 453 Q 559 459 579 463 L 637 482 Z" fill="black" /></g></svg>