<?xml version='1.0' encoding='utf-8'?>
<svg xmlns="http://www.w3.org/2000/svg" version="1.1" viewBox="0 0 1024 1024"><g transform="scale(1, -1) translate(0, -900)"><path d="M 356 404 Q 381 410 408 412 Q 436 415 428 428 Q 418 441 402 447 Q 384 453 359 441 L 312 428 Q 272 419 223 408 Q 210 405 208 408 Q 207 409 208 421 Q 236 502 278 599 L 302 654 Q 332 724 347 736 Q 359 749 343 768 Q 318 793 297 806 Q 284 813 274 811 Q 267 807 272 785 Q 281 758 249 639 L 232 588 Q 231 585 230 580 Q 179 445 141 406 Q 126 390 131 375 Q 138 356 149 345 Q 159 336 169 341 Q 203 362 289 387 Q 299 391 312 393 L 356 404 Z" fill="black" /></g></svg>