<?xml version='1.0' encoding='utf-8'?>
<svg xmlns="http://www.w3.org/2000/svg" version="1.1" viewBox="0 0 1024 1024"><g transform="scale(1, -1) translate(0, -900)"><path d="M 670 99 Q 704 136 774 224 Q 804 260 823 268 Q 844 278 845 288 Q 845 298 830 311 Q 809 329 787 340 Q 763 350 728 333 Q 655 311 606 306 Q 584 300 588 325 Q 594 359 601 393 L 609 434 Q 619 492 632 550 L 641 598 Q 666 736 685 758 Q 697 773 678 786 Q 656 802 614 817 Q 598 823 591 815 Q 582 808 596 788 Q 617 757 596 585 L 590 540 Q 583 488 568 426 L 557 384 Q 548 336 524 310 Q 500 283 522 246 Q 529 236 547 248 Q 601 284 719 296 Q 741 297 741 294 Q 740 290 738 284 Q 684 176 652 112 C 639 85 650 77 670 99 Z" fill="black" /></g></svg>