<?xml version='1.0' encoding='utf-8'?>
<svg xmlns="http://www.w3.org/2000/svg" version="1.1" viewBox="0 0 1024 1024"><g transform="scale(1, -1) translate(0, -900)"><path d="M 385 399 Q 422 408 455 411 Q 486 414 476 428 Q 467 441 449 448 Q 431 454 387 436 L 338 423 Q 292 414 239 402 Q 226 399 223 402 Q 222 403 224 414 Q 258 505 306 614 L 331 668 Q 364 741 379 754 Q 392 766 376 787 Q 349 815 329 828 Q 314 835 305 833 Q 295 829 302 807 Q 308 774 275 653 L 258 603 Q 192 440 153 400 Q 137 384 142 368 Q 149 347 161 337 Q 170 327 181 332 Q 220 356 319 383 Q 328 386 338 388 L 385 399 Z" fill="black" /></g></svg>