<?xml version='1.0' encoding='utf-8'?>
<svg xmlns="http://www.w3.org/2000/svg" version="1.1" viewBox="0 0 1024 1024"><g transform="scale(1, -1) translate(0, -900)"><path d="M 392 399 Q 425 406 459 407 Q 489 408 480 423 Q 471 436 454 444 Q 436 450 395 436 L 346 425 Q 303 418 252 408 Q 236 405 234 408 Q 228 420 314 618 L 337 671 Q 368 741 384 754 Q 397 767 380 787 Q 353 814 332 828 Q 319 835 308 832 Q 299 828 306 806 Q 312 773 282 657 L 266 608 Q 197 443 164 408 Q 148 392 153 376 Q 160 355 172 344 Q 182 335 192 340 Q 231 361 326 385 Q 333 388 345 389 L 392 399 Z" fill="black" /></g></svg>