<?xml version='1.0' encoding='utf-8'?>
<svg xmlns="http://www.w3.org/2000/svg" version="1.1" viewBox="0 0 1024 1024"><g transform="scale(1, -1) translate(0, -900)"><path d="M 647 421 Q 698 437 743 447 Q 750 448 753 445 Q 759 438 758 416 Q 759 355 748 326 Q 735 299 711 303 Q 692 309 674 316 Q 652 325 666 302 Q 703 262 719 231 Q 732 216 745 228 Q 787 259 807 362 Q 819 435 830 449 Q 840 461 834 469 Q 827 479 781 496 Q 771 500 727 481 Q 670 463 640 455 C 611 447 618 412 647 421 Z" fill="black" /></g></svg>