<?xml version='1.0' encoding='utf-8'?>
<svg xmlns="http://www.w3.org/2000/svg" version="1.1" viewBox="0 0 1024 1024"><g transform="scale(1, -1) translate(0, -900)"><path d="M 332 236 Q 320 101 311 79 Q 302 42 333 -8 Q 343 -26 352 -30 Q 362 -31 368 -19 Q 381 12 378 41 Q 378 156 379 256 L 380 289 Q 380 304 385 400 L 387 438 Q 388 465 393 481 Q 396 493 389 499 Q 367 518 349 529 Q 337 533 328 526 Q 322 522 329 512 Q 338 496 340 425 L 340 388 Q 339 342 336 284 Q 335 280 335 275 L 332 236 Z" fill="black" /></g></svg>