<?xml version='1.0' encoding='utf-8'?>
<svg xmlns="http://www.w3.org/2000/svg" version="1.1" viewBox="0 0 1024 1024"><g transform="scale(1, -1) translate(0, -900)"><path d="M 947 121 Q 935 148 920 229 Q 920 245 913 250 Q 907 253 902 236 Q 874 151 854 124 Q 844 111 810 102 Q 731 86 671 111 Q 646 124 639 140 Q 609 206 647 421 C 651 447 651 447 640 455 Q 627 467 606 475 Q 593 479 585 475 Q 578 471 583 453 Q 596 414 592 377 Q 576 178 592 121 Q 596 99 616 79 Q 695 13 859 45 Q 862 46 865 46 Q 902 56 940 81 Q 959 96 947 121 Z" fill="black" /></g></svg>