<?xml version='1.0' encoding='utf-8'?>
<svg xmlns="http://www.w3.org/2000/svg" version="1.1" viewBox="0 0 1024 1024"><g transform="scale(1, -1) translate(0, -900)"><path d="M 539 428 Q 540 461 544 480 Q 547 492 539 498 Q 515 519 496 528 Q 483 532 474 524 Q 468 520 476 510 Q 485 495 491 421 L 492 379 Q 493 330 492 268 Q 491 262 491 255 L 489 205 Q 480 69 474 51 Q 465 12 500 -39 Q 512 -58 520 -62 Q 532 -63 537 -50 Q 549 -17 545 13 Q 541 116 538 209 L 538 260 Q 538 323 538 385 L 539 428 Z" fill="black" /></g></svg>