<?xml version='1.0' encoding='utf-8'?>
<svg xmlns="http://www.w3.org/2000/svg" version="1.1" viewBox="0 0 1024 1024"><g transform="scale(1, -1) translate(0, -900)"><path d="M 312 416 Q 275 407 233 396 Q 220 393 219 396 Q 218 397 219 407 Q 249 494 293 596 L 316 649 Q 317 655 321 660 Q 352 736 368 750 Q 381 763 364 783 Q 337 810 316 823 Q 303 830 292 828 Q 283 824 290 802 Q 302 763 262 633 L 245 584 Q 244 583 244 579 Q 192 443 149 391 Q 133 375 139 359 Q 146 340 157 328 Q 167 319 178 324 Q 212 346 297 374 Q 303 377 312 378 L 355 390 Q 386 400 417 403 Q 447 407 437 420 Q 427 433 409 439 Q 393 445 356 429 L 312 416 Z" fill="black" /></g></svg>