<?xml version='1.0' encoding='utf-8'?>
<svg xmlns="http://www.w3.org/2000/svg" version="1.1" viewBox="0 0 1024 1024"><g transform="scale(1, -1) translate(0, -900)"><path d="M 373 396 Q 404 403 436 406 Q 464 407 455 421 Q 446 433 431 439 Q 419 443 375 429 L 328 416 Q 217 395 216 394 Q 215 395 216 404 Q 250 492 300 598 L 326 652 Q 351 718 380 746 Q 392 756 377 775 Q 332 823 314 819 Q 305 815 311 795 Q 317 767 277 637 L 259 589 Q 256 583 254 575 Q 191 431 152 392 Q 137 379 142 364 Q 148 345 158 335 Q 167 326 176 331 Q 213 353 307 380 Q 316 383 328 385 L 373 396 Z" fill="black" /></g></svg>