<?xml version='1.0' encoding='utf-8'?>
<svg xmlns="http://www.w3.org/2000/svg" version="1.1" viewBox="0 0 1024 1024"><g transform="scale(1, -1) translate(0, -900)"><path d="M 370 412 Q 400 419 427 420 Q 455 423 447 436 Q 438 449 422 456 Q 404 462 372 449 L 323 437 Q 287 431 244 422 Q 229 421 227 423 Q 226 424 228 437 Q 259 522 303 627 L 328 682 Q 356 749 371 760 Q 383 773 367 792 Q 342 817 321 830 Q 308 837 298 835 Q 291 831 296 810 Q 305 780 274 664 L 258 616 Q 192 454 161 422 Q 146 406 151 391 Q 158 372 168 361 Q 178 352 188 357 Q 222 376 308 399 Q 315 402 323 402 L 370 412 Z" fill="black" /></g></svg>