<?xml version='1.0' encoding='utf-8'?>
<svg xmlns="http://www.w3.org/2000/svg" version="1.1" viewBox="0 0 1024 1024"><g transform="scale(1, -1) translate(0, -900)"><path d="M 362 388 Q 392 395 419 396 Q 447 399 439 412 Q 430 425 414 432 Q 396 438 364 425 L 315 413 Q 279 407 236 398 Q 223 397 220 399 Q 219 400 221 412 Q 254 499 302 605 L 325 657 Q 355 724 370 736 Q 383 748 367 767 Q 322 815 299 812 Q 290 808 296 786 Q 303 752 271 641 L 255 593 Q 191 436 154 398 Q 138 382 143 367 Q 150 348 160 338 Q 170 328 180 333 Q 214 352 300 375 Q 307 378 315 378 L 362 388 Z" fill="black" /></g></svg>