<?xml version='1.0' encoding='utf-8'?>
<svg xmlns="http://www.w3.org/2000/svg" version="1.1" viewBox="0 0 1024 1024"><g transform="scale(1, -1) translate(0, -900)"><path d="M 374 391 Q 402 398 431 399 Q 461 400 452 416 Q 443 429 426 436 Q 411 442 376 430 L 334 420 Q 295 413 248 404 Q 232 401 229 405 Q 228 406 230 420 Q 263 517 312 637 L 333 687 Q 358 751 373 763 Q 386 776 368 795 Q 340 822 320 835 Q 305 842 296 839 Q 287 835 294 813 Q 303 779 276 674 L 263 628 Q 232 498 164 409 Q 143 388 149 371 Q 156 350 168 340 Q 178 330 188 336 Q 222 355 310 378 Q 320 381 333 383 L 374 391 Z" fill="black" /></g></svg>