<?xml version='1.0' encoding='utf-8'?>
<svg xmlns="http://www.w3.org/2000/svg" version="1.1" viewBox="0 0 1024 1024"><g transform="scale(1, -1) translate(0, -900)"><path d="M 376 430 Q 377 485 384 511 Q 387 523 381 528 Q 359 547 342 557 Q 330 561 322 554 Q 316 550 323 541 Q 336 520 334 420 L 333 383 Q 330 296 328 284 L 324 244 Q 315 136 305 103 Q 296 69 326 20 Q 336 2 343 -2 Q 353 -3 359 8 Q 372 38 369 66 Q 368 171 370 264 L 370 298 Q 371 332 373 364 Q 373 379 374 391 L 376 430 Z" fill="black" /></g></svg>