<?xml version='1.0' encoding='utf-8'?>
<svg xmlns="http://www.w3.org/2000/svg" version="1.1" viewBox="0 0 1024 1024"><g transform="scale(1, -1) translate(0, -900)"><path d="M 546 537 Q 559 544 674 548 Q 713 549 715 560 Q 716 573 689 590 Q 665 605 549 578 L 499 570 Q 454 564 407 558 Q 392 557 391 560 Q 391 561 447 674 L 468 717 Q 498 769 505 774 Q 524 787 514 798 Q 469 846 444 846 Q 434 846 439 826 Q 443 798 415 711 L 398 667 Q 361 594 331 569 Q 310 553 322 511 Q 326 496 342 501 Q 397 519 498 531 L 546 537 Z" fill="black" /></g></svg>