<?xml version='1.0' encoding='utf-8'?>
<svg xmlns="http://www.w3.org/2000/svg" version="1.1" viewBox="0 0 1024 1024"><g transform="scale(1, -1) translate(0, -900)"><path d="M 308 246 Q 301 126 289 92 Q 280 56 313 1 Q 323 -18 332 -23 Q 344 -24 349 -11 Q 362 22 359 53 Q 358 168 359 268 L 359 300 Q 359 348 362 388 L 364 425 Q 365 465 371 487 Q 374 500 366 506 Q 344 527 324 536 Q 311 540 302 533 Q 296 529 303 519 Q 313 501 315 413 L 315 378 Q 314 341 312 294 Q 311 290 311 284 L 308 246 Z" fill="black" /></g></svg>