<?xml version='1.0' encoding='utf-8'?>
<svg xmlns="http://www.w3.org/2000/svg" version="1.1" viewBox="0 0 1024 1024"><g transform="scale(1, -1) translate(0, -900)"><path d="M 371 391 Q 398 398 423 399 Q 454 402 444 416 Q 435 429 417 436 Q 399 442 373 431 L 322 418 Q 283 411 239 401 Q 226 398 223 401 Q 222 402 224 414 Q 258 502 306 608 L 331 662 Q 364 732 379 746 Q 392 758 375 778 Q 350 806 329 820 Q 316 827 305 825 Q 296 821 302 799 Q 308 766 274 646 L 257 598 Q 193 438 153 400 Q 137 384 142 368 Q 149 347 160 337 Q 170 327 181 332 Q 215 351 303 376 Q 312 379 322 381 L 371 391 Z" fill="black" /></g></svg>