<?xml version='1.0' encoding='utf-8'?>
<svg xmlns="http://www.w3.org/2000/svg" version="1.1" viewBox="0 0 1024 1024"><g transform="scale(1, -1) translate(0, -900)"><path d="M 351 398 Q 376 405 404 407 Q 434 410 424 424 Q 415 437 397 444 Q 379 450 354 438 L 302 423 Q 268 416 226 407 Q 213 403 210 406 Q 204 419 286 610 L 307 658 Q 337 728 352 742 Q 365 755 348 775 Q 321 802 300 815 Q 287 822 276 820 Q 267 816 274 794 Q 283 764 251 644 L 238 600 Q 174 440 140 403 Q 125 387 130 371 Q 137 352 149 340 Q 159 331 169 336 Q 226 370 302 386 L 351 398 Z" fill="black" /></g></svg>