<?xml version='1.0' encoding='utf-8'?>
<svg xmlns="http://www.w3.org/2000/svg" version="1.1" viewBox="0 0 1024 1024"><g transform="scale(1, -1) translate(0, -900)"><path d="M 675 342 Q 675 343 676 346 L 679 384 Q 679 388 680 390 Q 683 442 687 491 L 690 538 Q 696 677 721 731 Q 728 747 719 759 Q 695 778 655 791 Q 630 798 620 791 Q 610 784 618 771 Q 640 732 643 683 Q 644 602 642 524 L 639 479 Q 636 427 630 375 L 626 338 Q 605 209 537 140 Q 489 98 403 55 Q 390 48 389 43 Q 390 39 402 38 Q 418 34 461 48 Q 603 87 653 232 Q 662 263 669 298 L 675 342 Z" fill="black" /></g></svg>