<?xml version='1.0' encoding='utf-8'?>
<svg xmlns="http://www.w3.org/2000/svg" version="1.1" viewBox="0 0 1024 1024"><g transform="scale(1, -1) translate(0, -900)"><path d="M 549 578 Q 550 585 551 589 Q 554 599 548 605 Q 527 624 511 633 Q 501 636 492 630 Q 486 627 493 618 Q 499 606 499 570 L 498 531 Q 497 512 496 489 Q 495 464 492 441 L 487 401 Q 487 383 483 374 Q 470 325 518 275 L 519 274 Q 529 273 534 284 Q 546 312 543 339 Q 543 373 543 406 L 543 448 Q 543 511 546 537 L 549 578 Z" fill="black" /></g></svg>