<?xml version='1.0' encoding='utf-8'?>
<svg xmlns="http://www.w3.org/2000/svg" version="1.1" viewBox="0 0 1024 1024"><g transform="scale(1, -1) translate(0, -900)"><path d="M 570 542 Q 598 362 652 232 L 673 186 Q 715 95 797 21 Q 858 -31 888 -30 Q 910 -26 902 4 Q 895 53 893 197 Q 892 222 882 223 Q 875 222 869 199 Q 859 162 848 129 Q 838 95 827 94 Q 785 94 708 225 L 684 275 Q 638 384 613 549 L 607 592 Q 595 680 605 757 Q 618 796 564 817 Q 530 832 511 825 Q 492 818 501 800 Q 544 760 545 727 Q 554 649 564 581 L 570 542 Z" fill="black" /></g></svg>