<?xml version='1.0' encoding='utf-8'?>
<svg xmlns="http://www.w3.org/2000/svg" version="1.1" viewBox="0 0 1024 1024"><g transform="scale(1, -1) translate(0, -900)"><path d="M 369 389 Q 394 395 419 396 Q 447 399 439 412 Q 430 425 414 432 Q 396 438 372 427 L 321 414 Q 282 407 236 398 Q 221 397 219 399 Q 218 400 220 413 Q 250 497 293 598 L 316 649 Q 347 722 363 736 Q 384 761 313 806 Q 300 813 290 811 Q 283 807 288 786 Q 297 753 264 636 L 249 589 Q 225 492 155 400 Q 128 370 160 337 Q 170 328 180 333 Q 214 352 300 375 Q 309 378 320 380 L 369 389 Z" fill="black" /></g></svg>