<?xml version='1.0' encoding='utf-8'?>
<svg xmlns="http://www.w3.org/2000/svg" version="1.1" viewBox="0 0 1024 1024"><g transform="scale(1, -1) translate(0, -900)"><path d="M 362 388 Q 392 395 419 396 Q 447 399 439 412 Q 430 425 414 432 Q 396 438 364 425 L 315 413 Q 279 407 236 398 Q 221 397 219 399 Q 218 400 220 413 Q 251 504 301 615 L 324 667 Q 349 725 363 736 Q 375 749 359 768 Q 334 793 313 806 Q 300 813 290 811 Q 283 807 288 786 Q 297 753 269 652 L 255 605 Q 201 448 153 398 Q 138 382 143 367 Q 150 348 160 337 Q 170 328 180 333 Q 214 352 300 375 Q 307 378 315 378 L 362 388 Z" fill="black" /></g></svg>