<?xml version='1.0' encoding='utf-8'?>
<svg xmlns="http://www.w3.org/2000/svg" version="1.1" viewBox="0 0 1024 1024"><g transform="scale(1, -1) translate(0, -900)"><path d="M 682 531 Q 719 570 757 617 Q 776 644 811 671 Q 827 681 821 691 Q 820 700 760 725 Q 742 734 702 712 Q 608 682 515 670 Q 496 669 509 653 Q 531 635 572 645 Q 636 657 684 668 Q 700 672 705 665 Q 709 658 697 641 Q 637 529 466 402 Q 451 390 466 389 Q 476 389 522 410 Q 559 426 600 458 Q 631 483 662 512 L 682 531 Z" fill="black" /></g></svg>