<?xml version='1.0' encoding='utf-8'?>
<svg xmlns="http://www.w3.org/2000/svg" version="1.1" viewBox="0 0 1024 1024"><g transform="scale(1, -1) translate(0, -900)"><path d="M 463 246 Q 553 313 640 414 L 667 448 Q 707 502 751 565 Q 767 592 799 620 Q 812 630 807 639 Q 806 648 747 668 Q 729 677 712 663 Q 675 639 572 616 C 543 609 528 601 557 595 Q 578 582 654 604 Q 694 614 699 608 Q 703 602 692 584 Q 667 532 630 478 L 608 447 Q 523 336 377 214 Q 364 202 378 202 Q 381 202 450 237 L 463 246 Z" fill="black" /></g></svg>