<?xml version='1.0' encoding='utf-8'?>
<svg xmlns="http://www.w3.org/2000/svg" version="1.1" viewBox="0 0 1024 1024"><g transform="scale(1, -1) translate(0, -900)"><path d="M 311 239 Q 299 119 291 92 Q 279 58 313 1 Q 323 -18 332 -23 Q 344 -24 349 -11 Q 362 20 360 52 Q 360 164 363 261 L 364 292 Q 364 308 369 389 L 372 427 Q 373 458 378 474 Q 381 487 374 493 Q 350 515 331 525 Q 319 529 310 522 Q 304 518 311 508 Q 320 493 321 414 L 320 380 Q 319 340 316 289 Q 315 283 315 277 L 311 239 Z" fill="black" /></g></svg>