<?xml version='1.0' encoding='utf-8'?>
<svg xmlns="http://www.w3.org/2000/svg" version="1.1" viewBox="0 0 1024 1024"><g transform="scale(1, -1) translate(0, -900)"><path d="M 341 421 Q 372 430 404 432 Q 432 435 424 449 Q 414 461 398 467 Q 386 471 343 457 L 299 445 Q 211 427 208 428 Q 202 440 277 617 L 299 668 Q 329 737 343 749 Q 355 761 339 780 Q 314 805 293 818 Q 280 825 270 823 Q 263 819 268 797 Q 278 763 245 650 L 231 605 Q 186 473 141 426 Q 126 410 131 395 Q 138 376 149 365 Q 159 356 169 362 Q 224 395 299 410 L 341 421 Z" fill="black" /></g></svg>