<?xml version='1.0' encoding='utf-8'?>
<svg xmlns="http://www.w3.org/2000/svg" version="1.1" viewBox="0 0 1024 1024"><g transform="scale(1, -1) translate(0, -900)"><path d="M 291 416 Q 254 409 214 397 Q 204 396 202 397 Q 201 398 202 407 Q 235 495 283 598 L 309 654 Q 309 655 310 655 Q 343 727 358 740 Q 370 752 354 771 Q 329 798 310 811 Q 297 818 287 816 Q 278 812 284 791 Q 291 757 254 637 L 237 588 Q 215 501 144 405 Q 113 365 142 334 Q 151 325 161 330 Q 218 366 291 380 L 334 392 Q 365 401 397 404 Q 425 408 416 421 Q 406 433 390 439 Q 378 442 336 429 L 291 416 Z" fill="black" /></g></svg>