<?xml version='1.0' encoding='utf-8'?>
<svg xmlns="http://www.w3.org/2000/svg" version="1.1" viewBox="0 0 1024 1024"><g transform="scale(1, -1) translate(0, -900)"><path d="M 261 240 Q 252 122 243 91 Q 234 54 265 4 Q 275 -14 283 -18 Q 295 -19 300 -7 Q 313 24 310 53 Q 309 165 310 265 L 310 299 Q 310 329 314 388 L 316 424 Q 317 455 322 473 Q 323 485 318 491 Q 296 510 276 520 Q 266 524 256 517 Q 250 514 257 504 Q 266 488 268 413 L 268 377 Q 267 337 265 286 Q 264 285 264 282 L 261 240 Z" fill="black" /></g></svg>