<?xml version='1.0' encoding='utf-8'?>
<svg xmlns="http://www.w3.org/2000/svg" version="1.1" viewBox="0 0 1024 1024"><g transform="scale(1, -1) translate(0, -900)"><path d="M 336 429 Q 337 453 341 467 Q 344 479 337 484 Q 315 503 298 512 Q 286 516 278 509 Q 272 506 279 497 Q 285 488 291 416 L 291 380 Q 290 335 288 278 Q 287 277 287 273 L 285 230 Q 276 110 268 82 Q 259 46 290 -1 Q 300 -19 307 -22 Q 317 -23 323 -11 Q 335 19 332 47 Q 331 155 331 250 L 331 287 Q 331 338 334 392 L 336 429 Z" fill="black" /></g></svg>