<?xml version='1.0' encoding='utf-8'?>
<svg xmlns="http://www.w3.org/2000/svg" version="1.1" viewBox="0 0 1024 1024"><g transform="scale(1, -1) translate(0, -900)"><path d="M 296 231 Q 284 93 275 71 Q 266 34 297 -16 Q 307 -34 316 -38 Q 326 -39 332 -27 Q 345 4 342 33 Q 342 151 344 255 L 344 291 Q 344 322 348 387 L 351 424 Q 352 461 358 481 Q 359 493 353 499 Q 331 518 313 529 Q 301 533 292 525 Q 286 522 293 512 Q 302 496 304 412 L 304 377 Q 303 334 300 280 Q 299 277 299 273 L 296 231 Z" fill="black" /></g></svg>