<?xml version='1.0' encoding='utf-8'?>
<svg xmlns="http://www.w3.org/2000/svg" version="1.1" viewBox="0 0 1024 1024"><g transform="scale(1, -1) translate(0, -900)"><path d="M 746 454 Q 822 466 830 460 Q 839 454 840 413 Q 849 241 830 142 Q 823 108 794 111 Q 763 115 736 119 Q 723 123 722 117 Q 721 110 732 99 Q 799 44 816 16 Q 826 1 837 4 Q 850 7 863 33 Q 896 96 901 290 Q 901 431 913 454 Q 929 475 915 479 Q 899 494 864 507 Q 842 520 818 510 Q 799 503 748 492 L 699 483 Q 653 476 615 465 L 574 455 Q 534 445 494 434 C 465 426 477 389 505 400 Q 511 401 518 405 Q 537 414 572 420 L 611 429 Q 656 441 698 447 L 746 454 Z" fill="black" /></g></svg>