<?xml version='1.0' encoding='utf-8'?>
<svg xmlns="http://www.w3.org/2000/svg" version="1.1" viewBox="0 0 1024 1024"><g transform="scale(1, -1) translate(0, -900)"><path d="M 778 549 Q 800 586 820 644 Q 830 669 851 686 Q 863 693 862 702 Q 861 712 835 724 Q 804 740 791 739 Q 782 738 773 729 Q 700 698 685 694 Q 654 693 652 686 Q 651 683 657 679 Q 670 669 695 667 Q 713 670 742 688 Q 761 698 771 692 Q 778 689 766 637 Q 765 630 740 567 L 721 535 Q 679 480 628 444 Q 621 440 623 436 Q 624 432 630 433 Q 699 449 751 510 L 778 549 Z" fill="black" /></g></svg>