<?xml version='1.0' encoding='utf-8'?>
<svg xmlns="http://www.w3.org/2000/svg" version="1.1" viewBox="0 0 1024 1024"><g transform="scale(1, -1) translate(0, -900)"><path d="M 575 527 Q 590 558 605 604 Q 615 628 632 644 Q 644 653 643 660 Q 642 670 616 679 Q 586 692 575 692 Q 566 691 558 682 Q 494 651 474 647 Q 446 646 444 638 Q 444 635 449 631 Q 461 624 485 622 Q 501 623 531 643 Q 549 652 558 648 Q 565 644 555 596 Q 551 571 539 545 L 522 512 Q 497 466 440 424 Q 433 420 435 416 Q 436 412 441 414 Q 498 429 551 488 L 575 527 Z" fill="black" /></g></svg>