<?xml version='1.0' encoding='utf-8'?>
<svg xmlns="http://www.w3.org/2000/svg" version="1.1" viewBox="0 0 1024 1024"><g transform="scale(1, -1) translate(0, -900)"><path d="M 520 632 Q 635 663 776 686 Q 801 692 815 678 Q 828 671 833 608 Q 849 397 839 158 Q 839 122 826 113 Q 810 103 737 122 Q 721 125 722 115 Q 723 108 736 102 Q 802 56 836 20 Q 857 1 870 3 Q 882 6 893 35 Q 908 80 907 146 Q 880 614 900 659 Q 912 681 901 693 Q 891 709 842 732 Q 821 741 751 721 Q 615 688 481 672 C 451 668 491 624 520 632 Z" fill="black" /></g></svg>