<?xml version='1.0' encoding='utf-8'?>
<svg xmlns="http://www.w3.org/2000/svg" version="1.1" viewBox="0 0 1024 1024"><g transform="scale(1, -1) translate(0, -900)"><path d="M 547 220 Q 623 230 674 232 Q 713 233 715 244 Q 716 257 689 274 Q 664 290 550 262 L 491 253 Q 439 247 379 238 Q 369 237 368 240 Q 367 241 372 250 Q 400 296 456 387 L 488 436 Q 495 445 502 449 Q 521 459 512 472 Q 473 521 446 526 Q 437 527 440 506 Q 440 485 419 423 L 399 378 Q 348 276 310 251 Q 286 235 299 196 Q 303 183 317 186 Q 378 204 492 214 L 547 220 Z" fill="black" /></g></svg>