<?xml version='1.0' encoding='utf-8'?>
<svg xmlns="http://www.w3.org/2000/svg" version="1.1" viewBox="0 0 1024 1024"><g transform="scale(1, -1) translate(0, -900)"><path d="M 323 417 Q 284 410 242 399 Q 229 396 227 398 Q 221 410 312 617 L 336 671 Q 367 741 383 754 Q 396 767 380 787 Q 353 815 332 828 Q 319 835 309 833 Q 299 829 306 806 Q 312 773 279 653 L 263 605 Q 193 442 162 401 Q 138 389 147 364 Q 154 343 165 333 Q 175 323 185 328 Q 242 364 323 380 L 366 391 Q 399 400 432 403 Q 462 406 452 420 Q 443 433 425 440 Q 413 443 368 429 L 323 417 Z" fill="black" /></g></svg>