<?xml version='1.0' encoding='utf-8'?>
<svg xmlns="http://www.w3.org/2000/svg" version="1.1" viewBox="0 0 1024 1024"><g transform="scale(1, -1) translate(0, -900)"><path d="M 692 285 Q 695 328 704 376 Q 708 392 697 402 Q 684 415 663 422 Q 650 426 643 422 Q 636 418 641 401 Q 654 364 651 329 Q 642 166 656 120 Q 660 99 679 80 Q 718 41 813 37 Q 891 34 948 78 Q 967 93 954 117 Q 941 145 924 235 Q 923 250 917 254 Q 911 257 908 241 Q 887 147 871 116 Q 864 104 838 99 Q 778 87 728 113 Q 688 137 688 211 Q 688 236 690 264 L 692 285 Z" fill="black" /></g></svg>