<?xml version='1.0' encoding='utf-8'?>
<svg xmlns="http://www.w3.org/2000/svg" version="1.1" viewBox="0 0 1024 1024"><g transform="scale(1, -1) translate(0, -900)"><path d="M 348 387 Q 379 394 408 396 Q 436 399 428 412 Q 419 425 402 432 Q 384 438 351 424 L 304 412 Q 267 405 224 395 Q 211 394 208 396 Q 207 397 209 408 Q 240 496 286 601 L 310 654 Q 311 661 316 667 Q 347 739 362 752 Q 375 764 359 783 Q 334 810 313 822 Q 300 829 291 827 Q 282 823 288 802 Q 297 763 258 638 L 242 589 Q 193 445 142 394 Q 126 378 131 363 Q 138 344 149 334 Q 158 324 168 329 Q 223 362 304 377 L 348 387 Z" fill="black" /></g></svg>