<?xml version='1.0' encoding='utf-8'?>
<svg xmlns="http://www.w3.org/2000/svg" version="1.1" viewBox="0 0 1024 1024"><g transform="scale(1, -1) translate(0, -900)"><path d="M 349 297 Q 349 352 352 397 L 354 431 Q 355 471 361 491 Q 362 503 357 508 Q 335 527 318 537 Q 306 540 298 533 Q 292 530 299 521 Q 312 499 310 419 L 310 386 Q 309 346 307 294 Q 306 288 306 281 L 303 238 Q 291 106 284 90 Q 275 56 306 7 Q 316 -9 323 -14 Q 333 -15 339 -3 Q 346 15 347 95 L 347 108 Q 347 189 348 260 L 349 297 Z" fill="black" /></g></svg>