<?xml version='1.0' encoding='utf-8'?>
<svg xmlns="http://www.w3.org/2000/svg" version="1.1" viewBox="0 0 1024 1024"><g transform="scale(1, -1) translate(0, -900)"><path d="M 289 234 Q 277 107 269 79 Q 260 45 290 -4 Q 300 -22 307 -26 Q 317 -27 323 -16 Q 336 14 333 42 Q 333 157 335 256 L 335 289 Q 335 322 339 383 L 341 418 Q 342 455 348 475 Q 351 487 345 492 Q 323 511 306 521 Q 294 525 286 518 Q 280 514 287 505 Q 296 489 298 405 L 297 372 Q 296 332 293 280 Q 292 277 292 273 L 289 234 Z" fill="black" /></g></svg>