<?xml version='1.0' encoding='utf-8'?>
<svg xmlns="http://www.w3.org/2000/svg" version="1.1" viewBox="0 0 1024 1024"><g transform="scale(1, -1) translate(0, -900)"><path d="M 345 414 Q 388 426 428 428 Q 456 431 448 445 Q 438 457 422 463 Q 409 467 347 448 L 306 437 Q 269 430 227 420 Q 214 417 212 420 Q 211 421 212 433 Q 245 524 292 636 L 313 685 Q 344 755 359 769 Q 371 781 355 800 Q 330 825 309 838 Q 296 845 286 843 Q 279 839 284 817 Q 293 789 261 669 L 247 625 Q 183 460 145 417 Q 130 402 135 387 Q 142 368 153 357 Q 163 348 173 353 Q 209 375 301 402 Q 302 403 306 403 L 345 414 Z" fill="black" /></g></svg>