<?xml version='1.0' encoding='utf-8'?>
<svg xmlns="http://www.w3.org/2000/svg" version="1.1" viewBox="0 0 1024 1024"><g transform="scale(1, -1) translate(0, -900)"><path d="M 334 393 Q 367 402 400 404 Q 428 407 420 420 Q 410 433 394 439 Q 382 442 336 429 L 291 417 Q 257 410 215 400 Q 202 397 200 400 Q 199 401 200 413 Q 230 497 272 596 L 293 644 Q 320 728 349 754 Q 362 769 347 788 Q 322 813 301 826 Q 288 833 278 831 Q 271 827 276 806 Q 285 772 244 631 L 230 587 Q 173 440 133 398 Q 118 382 123 367 Q 130 348 141 337 Q 151 328 161 333 Q 195 354 281 379 Q 284 380 290 381 L 334 393 Z" fill="black" /></g></svg>