<?xml version='1.0' encoding='utf-8'?>
<svg xmlns="http://www.w3.org/2000/svg" version="1.1" viewBox="0 0 1024 1024"><g transform="scale(1, -1) translate(0, -900)"><path d="M 306 249 Q 299 126 287 91 Q 275 58 309 4 Q 319 -14 328 -18 Q 338 -19 344 -7 Q 357 24 354 53 Q 353 168 354 270 L 354 302 Q 354 353 357 392 L 359 428 Q 360 471 366 493 Q 369 505 362 511 Q 340 530 321 540 Q 309 544 300 537 Q 294 534 301 524 Q 311 506 313 417 L 312 382 Q 311 343 309 296 Q 308 292 308 287 L 306 249 Z" fill="black" /></g></svg>