<?xml version='1.0' encoding='utf-8'?>
<svg xmlns="http://www.w3.org/2000/svg" version="1.1" viewBox="0 0 1024 1024"><g transform="scale(1, -1) translate(0, -900)"><path d="M 272 531 Q 191 443 176 436 Q 164 429 166 417 Q 166 407 187 388 Q 194 376 209 386 Q 257 416 344 439 Q 360 442 363 449 Q 366 458 349 456 Q 306 453 252 442 Q 227 435 244 454 Q 275 490 346 559 Q 373 590 396 606 Q 406 613 403 622 Q 396 640 368 658 Q 355 667 347 665 Q 338 664 339 650 Q 339 617 291 553 L 272 531 Z" fill="black" /></g></svg>