<?xml version='1.0' encoding='utf-8'?>
<svg xmlns="http://www.w3.org/2000/svg" version="1.1" viewBox="0 0 1024 1024"><g transform="scale(1, -1) translate(0, -900)"><path d="M 374 398 Q 402 404 437 408 Q 468 409 455 425 Q 446 435 433 441 Q 420 445 376 431 L 329 417 Q 219 396 217 396 Q 216 396 217 406 Q 251 494 301 600 L 327 655 Q 353 721 381 749 Q 394 759 378 778 Q 333 826 316 821 Q 306 817 312 798 Q 318 769 278 639 L 260 591 Q 205 453 153 394 Q 141 381 141 376 Q 140 372 143 365 Q 153 333 169 331 Q 172 330 176 332 Q 211 353 290 376 Q 318 384 329 386 L 374 398 Z" fill="black" /></g></svg>