<?xml version='1.0' encoding='utf-8'?>
<svg xmlns="http://www.w3.org/2000/svg" version="1.1" viewBox="0 0 1024 1024"><g transform="scale(1, -1) translate(0, -900)"><path d="M 607 453 Q 626 517 629 524 L 638 564 Q 645 601 649 636 L 652 680 Q 656 741 670 780 Q 674 790 667 798 Q 649 814 615 828 Q 596 838 579 832 Q 560 825 575 808 Q 602 780 602 751 Q 602 706 600 667 L 597 625 Q 594 601 591 579 Q 588 566 586 551 L 578 513 Q 569 479 558 445 L 544 406 Q 504 310 394 210 Q 384 203 381 198 Q 377 191 393 193 Q 403 193 443 221 Q 471 240 517 290 Q 562 339 594 418 L 607 453 Z" fill="black" /></g></svg>