<?xml version='1.0' encoding='utf-8'?>
<svg xmlns="http://www.w3.org/2000/svg" version="1.1" viewBox="0 0 1024 1024"><g transform="scale(1, -1) translate(0, -900)"><path d="M 552 519 Q 574 523 596 525 Q 621 526 614 538 Q 607 548 592 555 Q 585 558 555 551 L 506 540 Q 436 530 435 529 Q 434 530 436 538 Q 461 598 498 671 L 521 715 Q 542 754 552 762 Q 564 771 551 788 Q 530 812 514 824 Q 504 831 495 829 Q 488 826 491 807 Q 495 789 472 705 L 457 666 Q 424 572 378 529 Q 365 516 368 503 Q 372 487 382 477 Q 389 470 399 473 Q 427 489 498 507 Q 501 508 506 509 L 552 519 Z" fill="black" /></g></svg>