<?xml version='1.0' encoding='utf-8'?>
<svg xmlns="http://www.w3.org/2000/svg" version="1.1" viewBox="0 0 1024 1024"><g transform="scale(1, -1) translate(0, -900)"><path d="M 318 252 Q 311 122 299 87 Q 287 54 321 0 Q 331 -18 340 -22 Q 350 -23 356 -11 Q 369 20 366 49 Q 365 170 366 274 L 366 305 Q 366 335 370 399 L 372 435 Q 373 469 378 489 Q 381 501 374 507 Q 352 526 333 536 Q 321 540 312 533 Q 306 530 313 520 Q 323 502 325 422 L 325 387 Q 324 344 321 292 Q 320 291 320 289 L 318 252 Z" fill="black" /></g></svg>