<?xml version='1.0' encoding='utf-8'?>
<svg xmlns="http://www.w3.org/2000/svg" version="1.1" viewBox="0 0 1024 1024"><g transform="scale(1, -1) translate(0, -900)"><path d="M 657 328 Q 658 356 661 383 L 664 423 Q 667 474 667 483 L 671 522 Q 672 538 676 549 Q 683 565 673 575 Q 660 588 636 599 Q 617 606 598 599 Q 588 592 600 578 Q 609 556 620 508 L 622 472 Q 622 444 622 411 L 622 375 Q 621 347 620 321 L 619 285 Q 619 255 625 238 Q 631 228 639 234 Q 648 244 654 290 L 657 328 Z" fill="black" /></g></svg>