<?xml version='1.0' encoding='utf-8'?>
<svg xmlns="http://www.w3.org/2000/svg" version="1.1" viewBox="0 0 1024 1024"><g transform="scale(1, -1) translate(0, -900)"><path d="M 301 262 Q 292 124 285 101 Q 276 68 306 22 Q 316 6 323 2 Q 333 1 338 13 Q 348 41 346 68 Q 343 180 343 280 L 343 314 Q 343 381 345 414 L 347 448 Q 348 482 352 501 Q 355 513 348 518 Q 327 536 311 544 Q 301 548 292 541 Q 286 538 293 529 Q 305 510 306 437 L 306 403 Q 306 360 304 304 Q 303 303 303 302 L 301 262 Z" fill="black" /></g></svg>