<?xml version='1.0' encoding='utf-8'?>
<svg xmlns="http://www.w3.org/2000/svg" version="1.1" viewBox="0 0 1024 1024"><g transform="scale(1, -1) translate(0, -900)"><path d="M 780 111 Q 790 86 813 40 Q 820 24 831 24 Q 846 27 855 52 Q 879 98 894 257 Q 898 302 920 329 Q 936 348 925 360 Q 904 381 861 400 Q 845 410 814 398 Q 699 356 534 337 C 504 333 510 297 539 303 L 645 324 L 685 332 Q 734 344 793 354 Q 818 360 830 348 Q 851 312 822 147 Q 821 131 815 130 Q 814 129 807 130 C 783 112 780 112 780 111 Z" fill="black" /></g></svg>