<?xml version='1.0' encoding='utf-8'?>
<svg xmlns="http://www.w3.org/2000/svg" version="1.1" viewBox="0 0 1024 1024"><g transform="scale(1, -1) translate(0, -900)"><path d="M 300 238 Q 291 106 282 75 Q 273 38 305 -12 Q 315 -30 324 -34 Q 334 -35 340 -23 Q 352 8 349 38 Q 346 156 347 261 L 348 294 Q 348 366 350 403 L 352 437 Q 353 468 358 485 Q 361 497 354 503 Q 332 522 312 532 Q 302 536 292 529 Q 286 525 293 516 Q 305 497 306 425 L 306 391 Q 305 345 303 284 Q 302 281 302 278 L 300 238 Z" fill="black" /></g></svg>