<?xml version='1.0' encoding='utf-8'?>
<svg xmlns="http://www.w3.org/2000/svg" version="1.1" viewBox="0 0 1024 1024"><g transform="scale(1, -1) translate(0, -900)"><path d="M 339 383 Q 367 390 397 393 Q 424 397 415 409 Q 406 421 391 427 Q 375 433 341 418 L 298 405 Q 262 398 220 387 Q 207 384 205 387 Q 204 388 205 399 Q 233 489 277 596 L 299 649 Q 320 691 342 735 Q 354 747 338 765 Q 313 789 294 800 Q 281 807 272 804 Q 265 800 270 780 Q 279 750 250 634 L 236 586 Q 191 433 141 383 Q 128 368 132 354 Q 139 335 150 326 Q 159 319 169 323 Q 223 357 297 372 L 339 383 Z" fill="black" /></g></svg>