<?xml version='1.0' encoding='utf-8'?>
<svg xmlns="http://www.w3.org/2000/svg" version="1.1" viewBox="0 0 1024 1024"><g transform="scale(1, -1) translate(0, -900)"><path d="M 766 75 Q 776 50 800 1 Q 809 -17 819 -16 Q 835 -13 845 13 Q 870 64 886 219 Q 892 267 914 296 Q 930 315 919 328 Q 898 350 852 370 Q 834 380 802 369 Q 685 324 494 302 C 464 298 482 261 511 267 Q 515 267 520 268 Q 563 280 624 291 L 662 299 Q 714 311 779 322 Q 807 329 820 315 Q 841 281 811 113 Q 810 97 803 96 Q 802 95 795 96 C 771 78 766 76 766 75 Z" fill="black" /></g></svg>