<?xml version='1.0' encoding='utf-8'?>
<svg xmlns="http://www.w3.org/2000/svg" version="1.1" viewBox="0 0 1024 1024"><g transform="scale(1, -1) translate(0, -900)"><path d="M 317 393 Q 354 403 388 404 Q 416 407 408 420 Q 399 433 382 440 Q 370 444 319 428 L 273 418 Q 242 411 204 403 Q 189 402 187 404 Q 186 405 188 417 Q 216 496 256 591 L 277 642 Q 325 739 331 745 Q 343 757 327 776 Q 302 801 281 814 Q 268 821 258 819 Q 251 815 256 793 Q 268 757 228 628 L 212 580 Q 155 436 121 402 Q 106 386 111 371 Q 118 352 129 341 Q 138 332 148 337 Q 182 356 269 381 Q 270 382 272 381 L 317 393 Z" fill="black" /></g></svg>