<?xml version='1.0' encoding='utf-8'?>
<svg xmlns="http://www.w3.org/2000/svg" version="1.1" viewBox="0 0 1024 1024"><g transform="scale(1, -1) translate(0, -900)"><path d="M 711 247 Q 712 275 719 306 Q 723 322 712 331 Q 700 343 679 350 Q 667 354 660 349 Q 654 345 659 329 Q 672 295 670 261 Q 664 119 677 79 Q 681 60 698 45 Q 764 -9 887 19 Q 888 20 891 20 Q 919 30 947 51 Q 963 66 952 89 Q 940 111 921 175 Q 920 190 913 194 Q 907 197 903 180 Q 879 110 864 88 Q 857 78 835 73 Q 787 61 742 78 Q 709 96 707 161 Q 707 192 709 227 L 711 247 Z" fill="black" /></g></svg>