<?xml version='1.0' encoding='utf-8'?>
<svg xmlns="http://www.w3.org/2000/svg" version="1.1" viewBox="0 0 1024 1024"><g transform="scale(1, -1) translate(0, -900)"><path d="M 740 -35 Q 744 -57 751 -66 Q 755 -72 762 -70 Q 774 -61 781 -10 Q 788 47 786 103 Q 785 128 785 193 L 785 231 Q 785 273 787 325 L 790 365 Q 790 366 791 367 Q 794 383 796 397 Q 799 413 787 421 Q 759 440 745 442 Q 735 446 720 439 Q 713 432 719 422 Q 737 377 737 349 L 738 314 Q 738 272 737 220 L 737 185 Q 737 -11 740 -35 Z" fill="black" /></g></svg>