<?xml version='1.0' encoding='utf-8'?>
<svg xmlns="http://www.w3.org/2000/svg" version="1.1" viewBox="0 0 1024 1024"><g transform="scale(1, -1) translate(0, -900)"><path d="M 304 399 Q 328 406 351 410 Q 376 414 367 427 Q 358 437 343 442 Q 322 445 306 434 L 263 418 Q 232 409 194 397 Q 185 394 183 396 Q 182 397 183 405 Q 214 502 262 622 L 285 677 Q 307 735 321 745 Q 331 757 317 773 Q 293 795 275 807 Q 262 814 254 811 Q 247 807 253 788 Q 259 763 236 660 L 222 610 Q 165 436 123 389 Q 110 376 115 362 Q 122 344 132 336 Q 141 329 150 333 Q 178 352 250 381 Q 256 384 263 386 L 304 399 Z" fill="black" /></g></svg>