<?xml version='1.0' encoding='utf-8'?>
<svg xmlns="http://www.w3.org/2000/svg" version="1.1" viewBox="0 0 1024 1024"><g transform="scale(1, -1) translate(0, -900)"><path d="M 430 588 Q 388 573 366 571 Q 353 571 351 564 Q 348 557 358 551 Q 391 532 415 542 Q 433 554 449 566 Q 471 578 478 572 Q 487 568 483 545 Q 483 391 456 297 Q 443 270 481 230 Q 491 220 498 226 Q 505 232 513 252 Q 538 295 596 369 Q 605 379 602 386 Q 601 393 592 384 Q 564 362 537 339 Q 509 312 512 350 Q 511 405 528 540 Q 531 559 549 580 Q 559 589 551 599 Q 541 612 509 627 Q 499 631 484 622 Q 450 598 430 588 Z" fill="black" /></g></svg>