<?xml version='1.0' encoding='utf-8'?>
<svg xmlns="http://www.w3.org/2000/svg" version="1.1" viewBox="0 0 1024 1024"><g transform="scale(1, -1) translate(0, -900)"><path d="M 511 511 Q 429 400 411 390 Q 401 383 403 371 Q 404 359 427 343 Q 436 333 448 344 Q 494 380 573 413 Q 589 417 591 425 Q 592 435 576 430 Q 536 423 484 405 Q 465 398 477 414 Q 505 454 574 533 Q 598 564 619 583 Q 629 592 624 600 Q 615 616 587 633 Q 574 640 565 638 Q 556 635 559 622 Q 560 598 525 532 L 511 511 Z" fill="black" /></g></svg>