<?xml version='1.0' encoding='utf-8'?>
<svg xmlns="http://www.w3.org/2000/svg" version="1.1" viewBox="0 0 1024 1024"><g transform="scale(1, -1) translate(0, -900)"><path d="M 305 596 Q 337 598 364 602 Q 382 605 392 602 C 422 598 426 641 396 641 L 319 641 C 289 641 283 641 274 635 Q 253 619 235 617 Q 224 615 223 622 Q 221 627 226 646 Q 237 686 229 700 Q 229 703 222 710 Q 198 737 180 737 Q 169 738 172 721 Q 180 677 175 650 Q 174 641 172 635 Q 167 617 152 604 Q 143 594 143 582 Q 143 581 143 579 Q 147 570 168 553 Q 171 549 182 551 Q 188 552 193 556 Q 210 570 259 581 L 305 596 Z" fill="black" /></g></svg>