<?xml version='1.0' encoding='utf-8'?>
<svg xmlns="http://www.w3.org/2000/svg" version="1.1" viewBox="0 0 1024 1024"><g transform="scale(1, -1) translate(0, -900)"><path d="M 491 551 Q 507 555 528 558 Q 535 559 537 556 Q 544 543 542 505 Q 535 369 511 297 Q 498 251 484 237 Q 477 231 462 237 Q 444 244 427 251 Q 411 258 421 241 Q 448 202 461 174 Q 465 158 481 161 Q 497 164 516 186 Q 568 247 582 472 Q 583 521 602 552 Q 614 568 607 576 Q 594 589 568 599 Q 550 608 531 598 Q 515 591 496 583 L 449 569 Q 406 560 382 558 Q 369 559 369 552 Q 368 545 384 537 Q 403 525 419 532 Q 429 536 444 539 L 491 551 Z" fill="black" /></g></svg>