<?xml version='1.0' encoding='utf-8'?>
<svg xmlns="http://www.w3.org/2000/svg" version="1.1" viewBox="0 0 1024 1024"><g transform="scale(1, -1) translate(0, -900)"><path d="M 279 427 Q 325 439 380 447 Q 398 451 407 441 Q 416 437 419 398 Q 431 271 426 126 Q 426 104 418 99 Q 409 92 366 100 Q 353 103 354 95 Q 354 89 364 84 Q 404 50 424 24 Q 440 8 451 10 Q 461 11 470 35 Q 483 72 482 125 Q 461 395 476 424 Q 486 442 477 451 Q 470 463 431 482 Q 415 489 400 485 Q 373 476 320 462 L 303 459 Q 299 459 295 457 Q 232 444 167 435 C 137 431 144 396 173 403 Q 179 404 245 420 L 279 427 Z" fill="black" /></g></svg>