<?xml version='1.0' encoding='utf-8'?>
<svg xmlns="http://www.w3.org/2000/svg" version="1.1" viewBox="0 0 1024 1024"><g transform="scale(1, -1) translate(0, -900)"><path d="M 510 382 Q 538 395 571 405 C 600 414 594 423 564 420 Q 528 417 486 406 Q 455 394 475 420 Q 503 465 574 555 Q 596 589 617 608 Q 627 617 621 625 Q 611 641 582 656 Q 569 663 560 660 Q 553 657 555 644 Q 556 616 523 549 L 511 529 Q 430 406 409 394 Q 397 387 400 374 Q 401 362 424 346 Q 434 336 446 347 Q 465 360 484 370 L 510 382 Z" fill="black" /></g></svg>