<?xml version='1.0' encoding='utf-8'?>
<svg xmlns="http://www.w3.org/2000/svg" version="1.1" viewBox="0 0 1024 1024"><g transform="scale(1, -1) translate(0, -900)"><path d="M 623 512 Q 672 524 725 530 Q 741 531 746 524 Q 752 511 749 474 Q 739 344 714 273 Q 701 230 687 216 Q 675 203 649 210 Q 618 217 591 225 Q 569 231 585 211 Q 628 165 651 131 Q 660 112 679 117 Q 695 118 717 141 Q 777 201 804 433 Q 810 485 830 516 Q 846 535 838 546 Q 822 564 789 579 Q 765 592 739 580 Q 693 561 630 544 L 571 532 Q 483 514 431 514 Q 413 515 413 506 Q 412 497 432 484 Q 457 468 479 476 Q 522 489 565 499 L 623 512 Z" fill="black" /></g></svg>