<?xml version='1.0' encoding='utf-8'?>
<svg xmlns="http://www.w3.org/2000/svg" version="1.1" viewBox="0 0 1024 1024"><g transform="scale(1, -1) translate(0, -900)"><path d="M 292 201 Q 307 210 312 229 Q 319 269 276 345 Q 246 406 329 498 Q 351 517 332 532 Q 311 548 277 563 Q 255 576 237 558 Q 206 536 166 521 Q 114 499 96 502 Q 89 502 86 497 Q 85 493 93 488 Q 135 467 227 505 Q 237 508 245 498 Q 267 474 244 446 Q 190 394 236 331 Q 281 246 270 206 Q 269 205 268 202 C 261 173 270 181 292 201 Z" fill="black" /></g></svg>