<?xml version='1.0' encoding='utf-8'?>
<svg xmlns="http://www.w3.org/2000/svg" version="1.1" viewBox="0 0 1024 1024"><g transform="scale(1, -1) translate(0, -900)"><path d="M 513 647 Q 582 663 650 680 Q 660 681 666 676 Q 669 673 662 578 Q 643 460 675 321 Q 720 123 907 134 Q 910 135 914 135 Q 932 136 935 145 Q 942 158 931 186 Q 918 238 917 325 Q 917 338 910 347 Q 903 354 898 335 Q 871 217 854 209 Q 845 205 837 206 Q 768 218 729 315 Q 684 432 725 592 Q 737 644 769 677 Q 782 687 770 697 Q 757 713 721 730 Q 687 743 673 734 Q 568 685 412 664 Q 396 660 395 653 Q 392 646 407 640 Q 428 631 477 640 L 513 647 Z" fill="black" /></g></svg>