<?xml version='1.0' encoding='utf-8'?>
<svg xmlns="http://www.w3.org/2000/svg" version="1.1" viewBox="0 0 1024 1024"><g transform="scale(1, -1) translate(0, -900)"><path d="M 595 486 Q 607 474 679 465 Q 719 459 720 423 Q 719 413 716 395 Q 691 233 638 209 Q 620 203 566 222 Q 526 237 522 230 Q 518 220 536 209 Q 587 176 608 131 Q 614 113 626 108 Q 639 102 674 127 Q 716 163 745 264 Q 782 409 798 421 Q 810 427 811 437 Q 812 447 787 472 Q 742 512 704 500 Q 673 500 609 516 C 580 523 568 499 595 486 Z" fill="black" /></g></svg>