<?xml version='1.0' encoding='utf-8'?>
<svg xmlns="http://www.w3.org/2000/svg" version="1.1" viewBox="0 0 1024 1024"><g transform="scale(1, -1) translate(0, -900)"><path d="M 298 182 Q 307 189 310 202 Q 317 239 280 301 Q 250 353 317 444 Q 323 453 330 460 Q 352 479 331 494 Q 312 509 276 523 Q 254 535 235 517 Q 204 493 164 476 Q 109 451 91 453 Q 84 454 82 448 Q 81 444 89 439 Q 131 421 228 463 Q 237 467 246 457 Q 268 435 246 404 Q 198 350 244 280 Q 275 220 270 184 C 269 154 280 158 298 182 Z" fill="black" /></g></svg>