<?xml version='1.0' encoding='utf-8'?>
<svg xmlns="http://www.w3.org/2000/svg" version="1.1" viewBox="0 0 1024 1024"><g transform="scale(1, -1) translate(0, -900)"><path d="M 704 515 Q 770 522 849 519 Q 871 516 879 522 Q 886 528 880 539 Q 874 551 838 570 Q 817 580 742 565 Q 726 565 705 559 L 655 550 Q 583 540 515 518 Q 502 514 500 517 Q 494 521 497 532 Q 507 598 514 617 Q 520 629 510 639 Q 494 657 469 666 Q 457 670 451 663 Q 447 659 454 645 Q 467 623 466 590 Q 462 533 440 507 Q 430 494 434 484 Q 441 466 455 452 Q 465 442 480 454 Q 528 490 640 506 L 704 515 Z" fill="black" /></g></svg>