<?xml version='1.0' encoding='utf-8'?>
<svg xmlns="http://www.w3.org/2000/svg" version="1.1" viewBox="0 0 1024 1024"><g transform="scale(1, -1) translate(0, -900)"><path d="M 443 634 Q 421 653 405 656 Q 392 657 386 654 Q 376 647 388 633 Q 421 573 408 423 Q 401 375 389 357 Q 376 336 385 314 Q 397 283 414 270 Q 424 263 437 282 Q 467 322 568 423 Q 586 439 587 446 Q 588 459 567 447 Q 530 425 487 401 Q 468 388 459 392 Q 452 396 451 416 Q 452 561 459 598 Q 460 610 457 618 L 443 634 Z" fill="black" /></g></svg>