<?xml version='1.0' encoding='utf-8'?>
<svg xmlns="http://www.w3.org/2000/svg" version="1.1" viewBox="0 0 1024 1024"><g transform="scale(1, -1) translate(0, -900)"><path d="M 288 200 Q 306 207 310 230 Q 317 272 272 345 Q 239 400 311 487 Q 314 493 318 496 Q 340 515 320 530 Q 301 546 265 560 Q 243 573 225 555 Q 197 534 161 520 Q 112 499 96 502 Q 89 502 86 497 Q 85 493 93 488 Q 132 469 215 501 Q 225 505 234 492 Q 256 471 235 443 Q 190 394 226 341 Q 266 277 271 238 Q 272 217 270 206 Q 269 205 268 201 C 265 183 265 183 288 200 Z" fill="black" /></g></svg>