<?xml version='1.0' encoding='utf-8'?>
<svg xmlns="http://www.w3.org/2000/svg" version="1.1" viewBox="0 0 1024 1024"><g transform="scale(1, -1) translate(0, -900)"><path d="M 657 431 Q 658 352 659 248 Q 658 223 650 214 Q 641 208 586 230 Q 562 239 561 232 Q 561 225 569 216 Q 623 164 657 121 Q 667 112 680 126 Q 713 171 714 260 Q 704 393 704 515 L 705 559 Q 705 601 709 641 Q 713 666 709 675 Q 700 685 671 701 C 645 716 628 721 637 692 Q 652 644 654 630 Q 654 591 655 550 L 657 431 Z" fill="black" /></g></svg>