<?xml version='1.0' encoding='utf-8'?>
<svg xmlns="http://www.w3.org/2000/svg" version="1.1" viewBox="0 0 1024 1024"><g transform="scale(1, -1) translate(0, -900)"><path d="M 296 187 Q 309 191 314 212 Q 320 245 284 309 Q 254 370 335 452 Q 335 453 337 454 Q 359 470 340 487 Q 321 503 287 520 Q 265 533 247 517 Q 213 495 169 482 Q 111 461 93 466 Q 86 467 83 462 Q 82 456 89 452 Q 126 431 235 464 Q 245 467 253 454 Q 272 432 251 406 Q 203 360 253 278 Q 280 214 278 194 Q 277 193 276 189 C 274 169 274 169 296 187 Z" fill="black" /></g></svg>