<?xml version='1.0' encoding='utf-8'?>
<svg xmlns="http://www.w3.org/2000/svg" version="1.1" viewBox="0 0 1024 1024"><g transform="scale(1, -1) translate(0, -900)"><path d="M 334 197 Q 355 224 344 267 Q 337 289 310 330 Q 280 387 352 480 Q 355 486 359 489 Q 390 514 310 550 Q 288 562 271 545 Q 237 523 193 507 Q 135 485 116 489 Q 109 489 107 484 Q 106 480 114 475 Q 153 457 262 495 Q 271 498 280 486 Q 302 462 280 432 Q 232 381 274 312 Q 308 251 302 200 C 301 170 319 171 334 197 Z" fill="black" /></g></svg>