<?xml version='1.0' encoding='utf-8'?>
<svg xmlns="http://www.w3.org/2000/svg" version="1.1" viewBox="0 0 1024 1024"><g transform="scale(1, -1) translate(0, -900)"><path d="M 314 170 Q 327 180 334 198 Q 352 243 304 317 Q 274 369 336 449 Q 343 462 354 471 Q 376 490 356 505 Q 335 521 301 535 Q 279 548 261 531 Q 225 506 180 490 Q 119 466 100 470 Q 93 470 90 465 Q 89 461 97 456 Q 139 435 251 477 Q 261 480 270 469 Q 292 447 270 418 Q 219 364 264 303 Q 297 245 293 207 Q 290 183 283 170 C 272 142 294 148 314 170 Z" fill="black" /></g></svg>