<?xml version='1.0' encoding='utf-8'?>
<svg xmlns="http://www.w3.org/2000/svg" version="1.1" viewBox="0 0 1024 1024"><g transform="scale(1, -1) translate(0, -900)"><path d="M 286 194 Q 298 201 303 219 Q 312 258 272 329 Q 242 383 324 472 Q 327 476 332 480 Q 354 498 335 514 Q 314 530 280 545 Q 259 557 226 532 Q 133 475 91 477 Q 84 478 82 473 Q 81 467 89 463 Q 131 445 232 487 Q 239 491 248 483 Q 269 459 244 431 Q 190 383 233 311 Q 269 224 262 198 Q 261 197 260 195 C 254 166 265 172 286 194 Z" fill="black" /></g></svg>