<?xml version='1.0' encoding='utf-8'?>
<svg xmlns="http://www.w3.org/2000/svg" version="1.1" viewBox="0 0 1024 1024"><g transform="scale(1, -1) translate(0, -900)"><path d="M 295 192 Q 313 202 319 224 Q 331 266 284 341 Q 253 395 320 477 Q 324 483 330 488 Q 352 507 332 522 Q 311 538 276 551 Q 254 564 236 546 Q 209 524 174 510 Q 128 488 111 489 Q 104 490 102 485 Q 101 479 109 475 Q 146 460 228 492 Q 237 496 246 484 Q 267 465 247 437 Q 199 385 247 322 Q 280 256 279 232 Q 279 202 272 194 C 262 166 272 173 295 192 Z" fill="black" /></g></svg>