<?xml version='1.0' encoding='utf-8'?>
<svg xmlns="http://www.w3.org/2000/svg" version="1.1" viewBox="0 0 1024 1024"><g transform="scale(1, -1) translate(0, -900)"><path d="M 644 236 Q 635 200 659 147 Q 665 131 672 129 Q 678 123 684 130 Q 691 134 700 153 Q 707 175 707 202 Q 706 229 704 398 L 704 444 Q 703 499 703 564 L 703 621 Q 704 688 716 734 Q 723 747 721 760 Q 714 767 665 797 Q 644 812 626 797 Q 622 793 628 779 Q 653 742 656 704 Q 657 659 659 607 L 661 556 Q 661 498 661 436 L 661 395 Q 661 299 644 236 Z" fill="black" /></g></svg>