<?xml version='1.0' encoding='utf-8'?>
<svg xmlns="http://www.w3.org/2000/svg" version="1.1" viewBox="0 0 1024 1024"><g transform="scale(1, -1) translate(0, -900)"><path d="M 622 427 Q 621 458 623 495 L 623 539 Q 623 570 625 607 L 626 654 Q 626 726 640 787 Q 643 805 629 814 Q 598 836 582 838 Q 569 842 554 834 Q 545 827 552 816 Q 576 771 578 698 Q 577 671 577 641 L 576 597 Q 575 563 574 526 L 573 485 Q 572 454 571 419 L 570 385 Q 555 145 582 103 Q 588 96 595 98 Q 613 110 616 165 Q 620 214 622 394 L 622 427 Z" fill="black" /></g></svg>