<?xml version='1.0' encoding='utf-8'?>
<svg xmlns="http://www.w3.org/2000/svg" version="1.1" viewBox="0 0 1024 1024"><g transform="scale(1, -1) translate(0, -900)"><path d="M 330 197 Q 339 206 344 218 Q 356 258 312 329 Q 282 381 349 472 Q 355 481 362 488 Q 384 506 364 522 Q 345 538 309 552 Q 287 565 269 547 Q 235 525 192 509 Q 134 487 116 490 Q 109 490 106 485 Q 105 481 113 476 Q 155 455 259 494 Q 269 497 278 485 Q 300 463 278 432 Q 230 378 271 316 Q 304 258 303 226 Q 303 210 299 199 C 293 170 312 173 330 197 Z" fill="black" /></g></svg>