<?xml version='1.0' encoding='utf-8'?>
<svg xmlns="http://www.w3.org/2000/svg" version="1.1" viewBox="0 0 1024 1024"><g transform="scale(1, -1) translate(0, -900)"><path d="M 314 173 Q 335 200 325 246 Q 318 267 292 309 Q 270 348 304 405 Q 323 439 342 459 Q 363 478 344 493 Q 323 509 288 523 Q 266 536 248 518 Q 214 493 168 475 Q 107 450 87 453 Q 80 454 78 449 Q 77 443 85 439 Q 128 421 240 464 Q 249 468 258 457 Q 279 435 257 408 Q 206 357 252 295 Q 291 229 284 176 C 282 146 299 147 314 173 Z" fill="black" /></g></svg>