<?xml version='1.0' encoding='utf-8'?>
<svg xmlns="http://www.w3.org/2000/svg" version="1.1" viewBox="0 0 1024 1024"><g transform="scale(1, -1) translate(0, -900)"><path d="M 923 236 Q 910 264 896 347 Q 895 362 889 366 Q 883 369 879 353 Q 857 265 839 236 Q 832 226 807 220 Q 750 208 705 229 Q 671 248 671 312 Q 672 372 687 451 Q 691 467 681 478 Q 672 487 659 493 C 634 509 615 514 623 485 Q 623 482 625 478 Q 637 441 634 405 Q 625 270 637 232 Q 641 213 657 197 Q 726 142 853 168 Q 854 169 858 169 Q 888 178 917 199 Q 935 212 923 236 Z" fill="black" /></g></svg>