<?xml version='1.0' encoding='utf-8'?>
<svg xmlns="http://www.w3.org/2000/svg" version="1.1" viewBox="0 0 1024 1024"><g transform="scale(1, -1) translate(0, -900)"><path d="M 892 216 Q 876 261 866 339 Q 865 354 857 358 Q 850 362 847 344 Q 832 248 818 231 Q 784 191 640 186 Q 561 186 527 198 Q 497 213 491 232 Q 470 283 488 383 C 489 386 490 392 497 421 Q 497 422 498 424 L 498 423 L 499 423 Q 509 453 492 467 Q 446 501 431 497 Q 418 491 425 476 Q 441 446 440 401 L 439 361 Q 439 253 447 228 Q 459 191 487 170 Q 548 128 749 145 Q 840 152 876 174 Q 903 187 892 216 Z" fill="black" /></g></svg>