<?xml version='1.0' encoding='utf-8'?>
<svg xmlns="http://www.w3.org/2000/svg" version="1.1" viewBox="0 0 1024 1024"><g transform="scale(1, -1) translate(0, -900)"><path d="M 322 194 Q 329 201 334 216 Q 341 258 300 325 Q 267 382 348 476 Q 349 480 353 482 Q 375 501 356 516 Q 335 532 301 547 Q 279 560 261 542 Q 230 520 190 505 Q 138 483 120 486 Q 113 486 110 481 Q 109 477 117 472 Q 159 451 251 489 Q 261 492 269 482 Q 291 458 268 428 Q 217 376 254 321 Q 299 237 294 196 C 294 166 306 169 322 194 Z" fill="black" /></g></svg>