<?xml version='1.0' encoding='utf-8'?>
<svg xmlns="http://www.w3.org/2000/svg" version="1.1" viewBox="0 0 1024 1024"><g transform="scale(1, -1) translate(0, -900)"><path d="M 488 383 Q 519 398 565 417 L 608 435 Q 654 457 714 481 Q 730 485 735 476 Q 738 470 711 381 Q 701 333 669 349 Q 653 352 636 354 Q 623 355 627 348 Q 633 339 690 293 Q 709 268 725 287 Q 756 323 784 431 Q 794 462 823 489 Q 836 504 821 515 Q 805 527 760 538 Q 742 542 729 531 Q 702 510 611 467 L 567 448 Q 533 436 497 421 L 440 401 Q 370 379 328 367 Q 316 366 315 357 Q 314 350 352 337 Q 374 328 396 340 Q 406 347 439 361 L 488 383 Z" fill="black" /></g></svg>