<?xml version='1.0' encoding='utf-8'?>
<svg xmlns="http://www.w3.org/2000/svg" version="1.1" viewBox="0 0 1024 1024"><g transform="scale(1, -1) translate(0, -900)"><path d="M 299 178 Q 309 185 312 202 Q 313 242 272 313 Q 239 368 315 466 Q 319 473 325 479 Q 347 498 327 513 Q 308 529 272 543 Q 250 556 232 537 Q 202 515 164 499 Q 112 475 95 477 Q 88 478 86 473 Q 85 467 93 463 Q 132 447 224 484 Q 233 487 242 477 Q 266 452 241 420 Q 190 369 224 312 Q 281 216 277 182 Q 276 181 276 179 C 275 149 281 154 299 178 Z" fill="black" /></g></svg>