<?xml version='1.0' encoding='utf-8'?>
<svg xmlns="http://www.w3.org/2000/svg" version="1.1" viewBox="0 0 1024 1024"><g transform="scale(1, -1) translate(0, -900)"><path d="M 643 438 Q 649 445 758 449 Q 798 452 800 463 Q 801 478 772 494 Q 751 506 646 484 L 596 474 Q 556 468 510 461 Q 491 458 489 462 Q 489 465 550 625 L 569 674 Q 591 749 618 773 Q 636 789 625 799 Q 570 847 547 843 Q 537 842 544 821 Q 554 779 519 666 L 504 618 Q 465 506 423 468 Q 401 450 417 403 Q 423 388 440 395 Q 503 419 596 432 L 643 438 Z" fill="black" /></g></svg>