<?xml version='1.0' encoding='utf-8'?>
<svg xmlns="http://www.w3.org/2000/svg" version="1.1" viewBox="0 0 1024 1024"><g transform="scale(1, -1) translate(0, -900)"><path d="M 270 217 Q 280 226 285 241 Q 294 281 252 349 Q 221 403 288 485 Q 292 491 298 496 Q 320 515 299 530 Q 278 546 243 559 Q 222 571 181 536 Q 103 491 83 493 Q 76 494 74 488 Q 73 484 81 479 Q 117 464 196 498 Q 205 502 214 492 Q 235 473 215 445 Q 169 394 219 323 Q 244 275 245 249 Q 245 230 242 219 C 237 189 251 193 270 217 Z" fill="black" /></g></svg>