<?xml version='1.0' encoding='utf-8'?>
<svg xmlns="http://www.w3.org/2000/svg" version="1.1" viewBox="0 0 1024 1024"><g transform="scale(1, -1) translate(0, -900)"><path d="M 308 179 Q 315 186 318 201 Q 324 241 278 324 Q 245 381 331 468 Q 355 487 335 504 Q 314 520 278 537 Q 256 552 236 534 Q 202 512 160 497 Q 102 475 84 478 Q 77 479 74 474 Q 73 468 81 464 Q 121 442 224 478 Q 234 481 243 469 Q 262 447 241 422 Q 193 376 229 320 Q 283 226 277 181 C 277 151 294 153 308 179 Z" fill="black" /></g></svg>