<?xml version='1.0' encoding='utf-8'?>
<svg xmlns="http://www.w3.org/2000/svg" version="1.1" viewBox="0 0 1024 1024"><g transform="scale(1, -1) translate(0, -900)"><path d="M 303 173 Q 312 180 314 195 Q 318 235 276 305 Q 242 365 330 475 Q 351 494 331 509 Q 310 525 275 538 Q 253 550 235 532 Q 205 507 165 489 Q 113 464 95 465 Q 88 465 86 460 Q 85 456 93 451 Q 132 435 229 478 Q 236 482 246 473 Q 271 448 245 414 Q 194 360 228 304 Q 282 214 277 175 C 278 145 287 148 303 173 Z" fill="black" /></g></svg>