<?xml version='1.0' encoding='utf-8'?>
<svg xmlns="http://www.w3.org/2000/svg" version="1.1" viewBox="0 0 1024 1024"><g transform="scale(1, -1) translate(0, -900)"><path d="M 314 179 Q 323 188 328 200 Q 340 242 300 309 Q 270 366 356 461 Q 378 479 359 495 Q 340 511 304 526 Q 282 539 264 522 Q 234 498 194 483 Q 142 459 123 461 Q 116 462 114 457 Q 113 451 121 447 Q 160 431 256 468 Q 263 472 273 463 Q 294 439 270 410 Q 219 362 261 291 Q 294 219 284 181 C 280 151 296 155 314 179 Z" fill="black" /></g></svg>