<?xml version='1.0' encoding='utf-8'?>
<svg xmlns="http://www.w3.org/2000/svg" version="1.1" viewBox="0 0 1024 1024"><g transform="scale(1, -1) translate(0, -900)"><path d="M 295 183 Q 313 190 318 211 Q 324 250 284 317 Q 251 374 330 460 Q 352 479 332 494 Q 311 510 276 523 Q 254 536 236 518 Q 209 496 174 482 Q 128 460 111 461 Q 104 462 102 457 Q 101 451 109 447 Q 146 432 228 464 Q 237 468 246 457 Q 265 438 246 411 Q 200 365 251 292 Q 275 246 279 219 Q 280 200 278 190 Q 277 189 276 185 C 273 168 273 168 295 183 Z" fill="black" /></g></svg>