<?xml version='1.0' encoding='utf-8'?>
<svg xmlns="http://www.w3.org/2000/svg" version="1.1" viewBox="0 0 1024 1024"><g transform="scale(1, -1) translate(0, -900)"><path d="M 282 195 Q 295 205 300 223 Q 309 262 264 333 Q 228 393 307 494 Q 328 513 308 528 Q 287 543 252 556 Q 231 568 195 537 Q 123 495 99 497 Q 92 498 90 493 Q 89 487 97 483 Q 133 468 204 496 Q 214 500 223 487 Q 248 465 226 435 Q 180 381 232 307 Q 260 255 261 230 Q 262 209 258 198 Q 257 198 257 197 C 250 168 262 173 282 195 Z" fill="black" /></g></svg>