<?xml version='1.0' encoding='utf-8'?>
<svg xmlns="http://www.w3.org/2000/svg" version="1.1" viewBox="0 0 1024 1024"><g transform="scale(1, -1) translate(0, -900)"><path d="M 693 237 Q 705 213 732 167 Q 741 151 751 153 Q 766 156 773 181 Q 800 251 802 373 Q 802 529 828 567 Q 843 588 831 599 Q 809 618 763 636 Q 744 646 713 632 Q 656 608 548 584 L 523 580 Q 504 579 486 575 C 456 570 474 534 504 539 Q 510 539 516 540 Q 589 558 705 582 Q 724 586 734 577 Q 768 522 737 282 Q 736 260 727 257 Q 724 256 712 259 C 684 255 684 255 693 237 Z" fill="black" /></g></svg>