<?xml version='1.0' encoding='utf-8'?>
<svg xmlns="http://www.w3.org/2000/svg" version="1.1" viewBox="0 0 1024 1024"><g transform="scale(1, -1) translate(0, -900)"><path d="M 704 255 Q 714 228 735 182 Q 744 163 755 164 Q 771 167 783 194 Q 816 255 822 337 Q 829 389 837 449 Q 844 498 868 527 Q 886 546 874 561 Q 852 583 806 605 Q 787 615 754 605 Q 691 583 623 566 L 571 556 Q 504 547 420 538 C 390 535 412 495 441 502 Q 441 503 444 503 Q 499 516 572 530 L 622 540 Q 751 570 770 552 Q 795 501 750 303 Q 749 284 740 282 Q 739 281 732 282 C 709 263 703 258 704 255 Z" fill="black" /></g></svg>