<?xml version='1.0' encoding='utf-8'?>
<svg xmlns="http://www.w3.org/2000/svg" version="1.1" viewBox="0 0 1024 1024"><g transform="scale(1, -1) translate(0, -900)"><path d="M 301 175 Q 322 202 311 247 Q 304 269 278 312 Q 247 366 331 465 Q 365 493 285 528 Q 281 531 276 532 Q 252 545 233 527 Q 203 502 163 485 Q 109 460 91 462 Q 84 462 81 457 Q 80 451 89 447 Q 131 431 226 470 Q 233 474 243 465 Q 265 443 242 414 Q 193 368 237 293 Q 273 224 267 177 C 266 147 286 149 301 175 Z" fill="black" /></g></svg>