<?xml version='1.0' encoding='utf-8'?>
<svg xmlns="http://www.w3.org/2000/svg" version="1.1" viewBox="0 0 1024 1024"><g transform="scale(1, -1) translate(0, -900)"><path d="M 284 177 Q 294 186 301 202 Q 313 245 270 316 Q 240 367 323 465 Q 347 484 326 500 Q 304 516 268 532 Q 246 545 226 527 Q 192 502 149 485 Q 91 460 71 462 Q 64 463 61 457 Q 60 453 69 448 Q 111 429 217 471 Q 226 475 235 465 Q 256 443 234 416 Q 186 368 221 312 Q 258 246 259 210 Q 259 191 254 179 C 247 150 265 154 284 177 Z" fill="black" /></g></svg>