<?xml version='1.0' encoding='utf-8'?>
<svg xmlns="http://www.w3.org/2000/svg" version="1.1" viewBox="0 0 1024 1024"><g transform="scale(1, -1) translate(0, -900)"><path d="M 578 379 Q 551 256 431 166 Q 421 159 420 154 Q 421 150 433 151 Q 445 147 476 163 Q 591 211 625 388 L 632 430 Q 636 487 643 546 L 646 592 Q 656 722 672 755 Q 679 768 668 779 Q 646 795 609 807 Q 585 813 577 806 Q 568 800 575 788 Q 597 754 600 708 Q 603 641 601 577 L 599 535 Q 593 456 586 419 L 578 379 Z" fill="black" /></g></svg>