<?xml version='1.0' encoding='utf-8'?>
<svg xmlns="http://www.w3.org/2000/svg" version="1.1" viewBox="0 0 1024 1024"><g transform="scale(1, -1) translate(0, -900)"><path d="M 276 180 Q 292 189 298 209 Q 307 248 266 320 Q 238 374 304 448 Q 308 455 316 461 Q 338 480 319 497 Q 298 513 262 529 Q 240 544 219 525 Q 189 503 150 489 Q 98 467 80 470 Q 73 471 70 466 Q 69 460 77 456 Q 114 437 209 469 Q 219 473 228 460 Q 247 441 227 415 Q 182 372 230 293 Q 255 245 256 217 Q 257 198 254 187 Q 253 186 252 182 C 245 154 253 161 276 180 Z" fill="black" /></g></svg>