<?xml version='1.0' encoding='utf-8'?>
<svg xmlns="http://www.w3.org/2000/svg" version="1.1" viewBox="0 0 1024 1024"><g transform="scale(1, -1) translate(0, -900)"><path d="M 745 562 Q 633 553 513 533 Q 500 529 496 534 Q 493 538 500 550 Q 621 716 647 743 Q 660 753 653 768 Q 646 781 594 808 Q 575 815 565 812 Q 550 805 557 782 Q 576 728 479 595 Q 452 558 397 521 Q 381 508 386 496 Q 390 477 419 454 Q 431 442 445 454 Q 505 496 759 533 Q 763 534 768 535 C 798 540 775 565 745 562 Z" fill="black" /></g></svg>