<?xml version='1.0' encoding='utf-8'?>
<svg xmlns="http://www.w3.org/2000/svg" version="1.1" viewBox="0 0 1024 1024"><g transform="scale(1, -1) translate(0, -900)"><path d="M 292 198 Q 302 208 308 222 Q 320 262 276 333 Q 245 387 312 469 Q 316 475 322 480 Q 344 499 323 514 Q 302 530 267 543 Q 246 555 205 520 Q 127 475 103 477 Q 96 478 94 472 Q 93 468 101 463 Q 138 448 220 483 Q 229 487 238 476 Q 259 457 239 429 Q 194 381 241 311 Q 269 257 268 231 Q 267 212 262 199 C 254 170 273 174 292 198 Z" fill="black" /></g></svg>