<?xml version='1.0' encoding='utf-8'?>
<svg xmlns="http://www.w3.org/2000/svg" version="1.1" viewBox="0 0 1024 1024"><g transform="scale(1, -1) translate(0, -900)"><path d="M 304 175 Q 314 184 318 198 Q 330 237 284 313 Q 254 365 321 456 Q 327 465 334 472 Q 356 490 336 506 Q 315 522 281 535 Q 259 548 240 530 Q 212 508 172 493 Q 120 471 104 473 Q 97 474 94 469 Q 93 465 101 459 Q 143 441 232 477 Q 241 480 250 469 Q 272 447 250 416 Q 199 359 244 299 Q 280 238 278 207 Q 278 188 275 177 C 270 147 286 151 304 175 Z" fill="black" /></g></svg>