<?xml version='1.0' encoding='utf-8'?>
<svg xmlns="http://www.w3.org/2000/svg" version="1.1" viewBox="0 0 1024 1024"><g transform="scale(1, -1) translate(0, -900)"><path d="M 258 185 Q 279 200 286 222 Q 298 267 248 325 Q 226 355 261 410 Q 270 429 304 460 Q 326 478 306 494 Q 285 510 251 524 Q 229 537 189 503 Q 117 455 90 457 Q 83 457 81 452 Q 80 448 89 443 Q 125 428 205 465 Q 211 469 220 464 Q 238 443 215 412 Q 172 367 213 303 Q 252 231 238 190 Q 237 189 236 186 C 227 159 235 165 258 185 Z" fill="black" /></g></svg>