<?xml version='1.0' encoding='utf-8'?>
<svg xmlns="http://www.w3.org/2000/svg" version="1.1" viewBox="0 0 1024 1024"><g transform="scale(1, -1) translate(0, -900)"><path d="M 548 506 Q 560 507 576 511 Q 673 530 689 522 Q 701 516 701 490 Q 714 330 706 204 Q 705 179 690 174 Q 680 171 621 189 Q 611 192 610 185 Q 611 176 625 167 Q 661 134 688 101 Q 704 85 720 86 Q 736 89 755 134 Q 779 180 774 226 Q 767 338 758 439 Q 754 479 771 512 Q 783 527 769 540 Q 753 556 715 569 Q 694 579 678 567 Q 663 561 636 553 Q 570 537 539 531 C 510 525 518 501 548 506 Z" fill="black" /></g></svg>