<?xml version='1.0' encoding='utf-8'?>
<svg xmlns="http://www.w3.org/2000/svg" version="1.1" viewBox="0 0 1024 1024"><g transform="scale(1, -1) translate(0, -900)"><path d="M 652 566 Q 683 605 719 655 Q 737 680 763 697 Q 778 703 779 712 Q 779 725 752 742 Q 719 767 706 768 Q 696 768 683 760 Q 560 721 490 716 Q 453 715 450 706 Q 449 703 456 698 Q 501 662 644 712 Q 663 716 670 710 Q 674 706 654 665 Q 578 502 360 428 Q 350 425 350 420 Q 350 416 358 415 Q 487 402 634 546 L 652 566 Z" fill="black" /></g></svg>