<?xml version='1.0' encoding='utf-8'?>
<svg xmlns="http://www.w3.org/2000/svg" version="1.1" viewBox="0 0 1024 1024"><g transform="scale(1, -1) translate(0, -900)"><path d="M 300 170 Q 310 179 315 193 Q 327 233 284 301 Q 253 355 326 443 Q 329 447 334 451 Q 356 470 336 485 Q 315 501 281 515 Q 259 528 240 510 Q 212 488 172 473 Q 120 451 104 453 Q 97 454 94 449 Q 93 445 101 439 Q 143 421 232 457 Q 241 460 250 449 Q 271 427 249 400 Q 201 352 243 288 Q 274 234 275 201 Q 275 183 270 172 C 262 143 281 147 300 170 Z" fill="black" /></g></svg>