<?xml version='1.0' encoding='utf-8'?>
<svg xmlns="http://www.w3.org/2000/svg" version="1.1" viewBox="0 0 1024 1024"><g transform="scale(1, -1) translate(0, -900)"><path d="M 922 201 Q 935 214 921 239 Q 905 284 898 342 Q 897 352 890 360 Q 881 364 878 344 Q 871 323 861 290 Q 854 257 843 245 Q 839 236 823 233 Q 768 218 719 239 Q 686 257 681 307 Q 666 509 698 689 Q 710 753 711 755 Q 707 762 701 767 Q 676 789 640 798 Q 624 802 615 794 Q 608 785 614 777 Q 632 759 636 711 Q 636 674 634 597 Q 624 344 643 271 Q 658 205 726 184 Q 811 157 876 177 Q 909 187 922 201 Z" fill="black" /></g></svg>