<?xml version='1.0' encoding='utf-8'?>
<svg xmlns="http://www.w3.org/2000/svg" version="1.1" viewBox="0 0 1024 1024"><g transform="scale(1, -1) translate(0, -900)"><path d="M 291 188 Q 298 195 301 208 Q 307 242 268 313 Q 238 373 320 463 Q 321 467 325 469 Q 347 487 328 503 Q 309 519 273 535 Q 251 548 233 531 Q 205 510 169 496 Q 120 475 104 478 Q 97 478 94 473 Q 93 469 101 464 Q 140 445 223 477 Q 232 481 241 470 Q 263 446 238 417 Q 184 365 232 291 Q 268 210 265 190 Q 264 190 264 189 C 264 159 276 162 291 188 Z" fill="black" /></g></svg>