<?xml version='1.0' encoding='utf-8'?>
<svg xmlns="http://www.w3.org/2000/svg" version="1.1" viewBox="0 0 1024 1024"><g transform="scale(1, -1) translate(0, -900)"><path d="M 283 167 Q 293 176 298 191 Q 305 234 264 305 Q 234 362 320 457 Q 342 476 322 491 Q 303 507 267 521 Q 245 534 226 515 Q 195 490 153 471 Q 98 443 78 445 Q 71 445 70 440 Q 69 436 77 431 Q 116 415 221 461 Q 228 465 237 459 Q 258 435 234 406 Q 182 358 231 277 Q 267 205 258 170 C 255 140 265 143 283 167 Z" fill="black" /></g></svg>