<?xml version='1.0' encoding='utf-8'?>
<svg xmlns="http://www.w3.org/2000/svg" version="1.1" viewBox="0 0 1024 1024"><g transform="scale(1, -1) translate(0, -900)"><path d="M 275 170 Q 294 177 299 200 Q 308 240 266 310 Q 238 364 315 448 Q 336 464 317 480 Q 298 495 265 509 Q 244 519 202 488 Q 121 446 96 449 Q 89 449 87 444 Q 86 440 94 435 Q 130 419 218 453 Q 227 457 235 447 Q 254 428 234 402 Q 189 359 235 283 Q 260 235 261 208 Q 262 189 258 177 Q 257 176 256 172 C 251 155 251 155 275 170 Z" fill="black" /></g></svg>