<?xml version='1.0' encoding='utf-8'?>
<svg xmlns="http://www.w3.org/2000/svg" version="1.1" viewBox="0 0 1024 1024"><g transform="scale(1, -1) translate(0, -900)"><path d="M 307 167 Q 325 198 316 231 Q 309 250 284 289 Q 260 329 293 393 Q 312 435 331 457 Q 352 476 331 491 Q 309 506 274 518 Q 252 530 234 511 Q 207 487 171 470 Q 123 445 106 445 Q 99 445 97 440 Q 96 434 105 431 Q 147 416 229 457 Q 238 461 247 452 Q 272 428 249 395 Q 201 340 238 285 Q 280 219 273 169 C 271 139 294 140 307 167 Z" fill="black" /></g></svg>