<?xml version='1.0' encoding='utf-8'?>
<svg xmlns="http://www.w3.org/2000/svg" version="1.1" viewBox="0 0 1024 1024"><g transform="scale(1, -1) translate(0, -900)"><path d="M 524 513 Q 527 514 533 516 Q 669 549 691 540 Q 704 533 702 505 Q 718 345 713 220 Q 712 195 697 189 Q 688 188 637 201 Q 627 204 626 197 Q 627 188 641 179 Q 675 148 700 117 Q 713 101 729 102 Q 745 106 763 151 Q 785 197 781 243 Q 771 354 760 456 Q 756 496 772 529 Q 782 544 770 557 Q 754 570 716 584 Q 697 593 680 582 Q 661 575 628 563 L 589 553 Q 543 543 514 536 C 485 529 495 505 524 513 Z" fill="black" /></g></svg>