<?xml version='1.0' encoding='utf-8'?>
<svg xmlns="http://www.w3.org/2000/svg" version="1.1" viewBox="0 0 1024 1024"><g transform="scale(1, -1) translate(0, -900)"><path d="M 601 513 Q 697 537 711 523 Q 720 519 723 481 Q 736 357 734 213 Q 734 192 727 186 Q 717 176 655 182 Q 640 183 642 175 Q 643 168 655 164 Q 712 130 741 101 Q 760 85 773 87 Q 783 91 792 117 Q 805 159 801 218 Q 783 387 780 449 Q 779 485 789 506 Q 799 525 790 536 Q 780 549 737 569 Q 719 578 702 572 Q 669 562 602 542 L 551 531 Q 496 521 437 512 C 407 507 423 474 453 478 Q 460 477 473 480 Q 510 492 551 500 L 601 513 Z" fill="black" /></g></svg>