<?xml version='1.0' encoding='utf-8'?>
<svg xmlns="http://www.w3.org/2000/svg" version="1.1" viewBox="0 0 1024 1024"><g transform="scale(1, -1) translate(0, -900)"><path d="M 272 201 Q 272 202 273 202 Q 298 217 306 243 Q 318 286 268 345 Q 238 387 298 468 Q 305 480 314 488 Q 335 507 315 522 Q 294 537 258 550 Q 237 562 197 527 Q 125 479 98 481 Q 91 481 89 476 Q 88 472 97 467 Q 133 452 213 489 Q 220 493 230 485 Q 246 469 228 430 Q 194 385 228 332 Q 264 278 264 244 Q 263 223 258 210 Q 255 204 255 200 C 250 185 250 185 272 201 Z" fill="black" /></g></svg>