<?xml version='1.0' encoding='utf-8'?>
<svg xmlns="http://www.w3.org/2000/svg" version="1.1" viewBox="0 0 1024 1024"><g transform="scale(1, -1) translate(0, -900)"><path d="M 283 189 Q 293 196 296 213 Q 300 252 260 321 Q 230 382 311 464 Q 335 483 315 500 Q 294 516 260 530 Q 239 542 200 511 Q 116 463 91 465 Q 84 466 82 460 Q 81 456 89 451 Q 128 435 212 471 Q 219 475 229 466 Q 248 444 227 418 Q 181 373 222 303 Q 264 219 261 194 Q 260 193 260 191 C 259 161 265 165 283 189 Z" fill="black" /></g></svg>