<?xml version='1.0' encoding='utf-8'?>
<svg xmlns="http://www.w3.org/2000/svg" version="1.1" viewBox="0 0 1024 1024"><g transform="scale(1, -1) translate(0, -900)"><path d="M 625 409 Q 624 485 625 561 L 626 609 Q 626 702 643 761 Q 659 789 608 809 Q 577 825 559 820 Q 543 814 558 793 Q 577 768 579 737 Q 580 722 580 596 L 580 551 Q 579 433 577 240 Q 577 221 566 213 Q 557 207 499 220 Q 468 230 471 221 Q 472 214 491 201 Q 548 156 563 130 Q 579 100 594 99 Q 607 98 620 130 Q 636 172 634 239 Q 630 309 626 379 L 625 409 Z" fill="black" /></g></svg>