<?xml version='1.0' encoding='utf-8'?>
<svg xmlns="http://www.w3.org/2000/svg" version="1.1" viewBox="0 0 1024 1024"><g transform="scale(1, -1) translate(0, -900)"><path d="M 611 372 Q 737 396 761 391 Q 774 390 780 379 Q 784 366 752 260 Q 748 245 732 248 Q 707 254 675 261 Q 650 268 668 245 Q 716 199 725 175 Q 731 162 744 164 Q 756 164 771 176 Q 795 203 811 254 Q 826 327 855 358 Q 871 376 861 388 Q 837 412 804 432 Q 792 441 717 424 Q 651 414 611 405 L 575 398 Q 529 391 501 382 Q 476 378 464 377 Q 458 378 459 390 Q 474 445 486 461 C 497 483 497 483 486 493 Q 473 509 453 521 Q 443 528 433 523 Q 426 519 432 501 Q 439 476 428 444 Q 409 392 391 374 Q 381 361 389 344 Q 396 319 408 312 Q 418 308 440 322 Q 470 347 543 360 L 611 372 Z" fill="black" /></g></svg>