<?xml version='1.0' encoding='utf-8'?>
<svg xmlns="http://www.w3.org/2000/svg" version="1.1" viewBox="0 0 1024 1024"><g transform="scale(1, -1) translate(0, -900)"><path d="M 288 182 Q 351 200 280 317 Q 247 374 328 468 Q 329 472 333 474 Q 355 493 335 509 Q 314 524 280 538 Q 258 551 239 533 Q 208 509 168 492 Q 113 467 95 469 Q 88 470 86 464 Q 85 460 93 455 Q 135 437 232 479 Q 241 483 249 474 Q 271 450 248 420 Q 197 368 244 295 Q 271 232 272 184 C 273 175 273 175 288 182 Z" fill="black" /></g></svg>