<?xml version='1.0' encoding='utf-8'?>
<svg xmlns="http://www.w3.org/2000/svg" version="1.1" viewBox="0 0 1024 1024"><g transform="scale(1, -1) translate(0, -900)"><path d="M 305 172 Q 315 181 320 198 Q 329 240 287 311 Q 269 363 287 393 Q 302 429 337 466 Q 359 485 339 500 Q 318 516 283 529 Q 262 541 224 510 Q 134 450 87 453 Q 80 453 78 448 Q 77 444 85 439 Q 124 423 237 470 Q 244 474 253 466 Q 274 444 251 416 Q 203 371 246 298 Q 276 240 280 206 Q 281 185 278 174 C 274 144 287 148 305 172 Z" fill="black" /></g></svg>