<?xml version='1.0' encoding='utf-8'?>
<svg xmlns="http://www.w3.org/2000/svg" version="1.1" viewBox="0 0 1024 1024"><g transform="scale(1, -1) translate(0, -900)"><path d="M 579 322 Q 575 261 560 204 Q 551 167 574 112 Q 580 96 588 93 Q 594 87 600 94 Q 607 98 616 118 Q 625 140 624 169 Q 623 199 623 387 L 623 420 Q 623 471 624 531 L 624 561 Q 624 598 625 637 L 627 686 Q 630 732 640 768 Q 647 781 645 794 Q 639 803 588 833 Q 567 849 548 834 Q 544 830 549 815 Q 579 773 580 730 Q 580 703 581 674 L 583 628 Q 583 591 583 552 L 582 522 Q 581 470 581 412 L 579 322 Z" fill="black" /></g></svg>