<?xml version='1.0' encoding='utf-8'?>
<svg xmlns="http://www.w3.org/2000/svg" version="1.1" viewBox="0 0 1024 1024"><g transform="scale(1, -1) translate(0, -900)"><path d="M 502 450 Q 511 344 486 262 Q 480 247 472 244 Q 459 241 422 250 Q 397 257 393 252 Q 390 246 399 237 Q 436 209 460 182 Q 476 161 485 162 Q 506 166 531 228 Q 580 381 515 572 Q 506 594 496 614 L 464 651 Q 428 679 369 690 Q 356 693 356 683 Q 357 671 367 658 Q 379 645 393 647 Q 418 644 443 620 L 468 583 Q 478 558 488 529 L 502 450 Z" fill="black" /></g></svg>