<?xml version='1.0' encoding='utf-8'?>
<svg xmlns="http://www.w3.org/2000/svg" version="1.1" viewBox="0 0 1024 1024"><g transform="scale(1, -1) translate(0, -900)"><path d="M 305 177 Q 323 201 312 245 Q 305 267 280 309 Q 258 351 295 405 Q 317 442 336 461 Q 358 479 339 495 Q 320 511 284 526 Q 262 539 244 522 Q 210 497 166 480 Q 106 455 87 457 Q 80 458 78 453 Q 77 447 85 443 Q 125 425 236 468 Q 243 472 253 463 Q 274 439 250 410 Q 198 362 247 281 Q 280 215 275 180 C 275 150 291 150 305 177 Z" fill="black" /></g></svg>