<?xml version='1.0' encoding='utf-8'?>
<svg xmlns="http://www.w3.org/2000/svg" version="1.1" viewBox="0 0 1024 1024"><g transform="scale(1, -1) translate(0, -900)"><path d="M 494 453 Q 494 502 495 553 L 496 603 Q 497 711 508 727 Q 518 740 514 750 Q 507 763 486 774 Q 450 790 437 786 Q 421 779 434 764 Q 447 748 451 709 Q 452 681 453 585 L 453 539 Q 453 473 451 430 L 451 389 Q 448 265 445 250 Q 442 231 429 234 Q 416 238 381 247 Q 368 254 364 249 Q 363 243 376 230 Q 425 185 436 161 Q 443 143 453 139 Q 462 136 465 140 Q 492 173 493 293 Q 493 333 494 419 L 494 453 Z" fill="black" /></g></svg>