<?xml version='1.0' encoding='utf-8'?>
<svg xmlns="http://www.w3.org/2000/svg" version="1.1" viewBox="0 0 1024 1024"><g transform="scale(1, -1) translate(0, -900)"><path d="M 605 557 Q 659 570 720 581 Q 738 585 747 576 Q 756 572 759 530 Q 768 394 760 238 Q 759 216 751 209 Q 741 202 688 212 Q 673 216 674 207 Q 674 200 686 194 Q 732 154 757 124 Q 776 106 787 109 Q 799 110 809 137 Q 824 177 824 236 Q 806 524 823 555 Q 833 574 825 584 Q 815 597 774 618 Q 758 627 688 605 Q 493 566 467 560 C 438 554 455 518 484 527 Q 487 530 566 549 L 605 557 Z" fill="black" /></g></svg>