<?xml version='1.0' encoding='utf-8'?>
<svg xmlns="http://www.w3.org/2000/svg" version="1.1" viewBox="0 0 1024 1024"><g transform="scale(1, -1) translate(0, -900)"><path d="M 271 175 Q 292 200 279 245 Q 272 266 246 306 Q 225 345 257 397 Q 275 431 292 449 Q 311 467 293 482 Q 274 495 239 509 Q 218 521 201 503 Q 176 481 141 466 Q 95 444 79 445 Q 72 445 70 440 Q 69 436 77 431 Q 113 415 195 451 Q 202 455 212 446 Q 231 427 212 399 Q 166 351 216 280 Q 247 219 242 176 C 241 146 255 149 271 175 Z" fill="black" /></g></svg>