<?xml version='1.0' encoding='utf-8'?>
<svg xmlns="http://www.w3.org/2000/svg" version="1.1" viewBox="0 0 1024 1024"><g transform="scale(1, -1) translate(0, -900)"><path d="M 293 186 Q 309 196 315 214 Q 327 256 284 321 Q 251 376 323 463 Q 326 469 330 472 Q 352 491 332 506 Q 311 522 277 536 Q 256 548 211 513 Q 147 476 119 477 Q 112 478 110 473 Q 109 467 117 463 Q 156 447 228 477 Q 238 480 246 468 Q 268 447 247 419 Q 202 371 243 308 Q 276 253 275 222 Q 275 201 268 187 C 258 159 270 166 293 186 Z" fill="black" /></g></svg>