<?xml version='1.0' encoding='utf-8'?>
<svg xmlns="http://www.w3.org/2000/svg" version="1.1" viewBox="0 0 1024 1024"><g transform="scale(1, -1) translate(0, -900)"><path d="M 225 333 Q 225 309 238 289 Q 286 208 271 161 C 265 132 282 135 301 159 Q 311 168 316 182 Q 328 222 284 293 Q 253 347 320 429 Q 324 435 330 440 Q 352 459 332 474 Q 311 490 276 503 Q 254 516 236 498 Q 206 474 166 459 Q 114 435 95 437 Q 88 438 86 433 Q 85 427 93 423 Q 132 407 228 444 Q 237 448 246 436 Q 267 417 247 389 Q 225 364 225 333 Z" fill="black" /></g></svg>