<?xml version='1.0' encoding='utf-8'?>
<svg xmlns="http://www.w3.org/2000/svg" version="1.1" viewBox="0 0 1024 1024"><g transform="scale(1, -1) translate(0, -900)"><path d="M 764 220 Q 742 227 717 234 Q 701 241 700 232 Q 746 186 773 150 Q 785 134 798 128 Q 807 125 814 133 Q 853 184 852 225 Q 830 519 849 555 Q 859 573 848 581 Q 829 597 796 610 Q 780 617 766 609 Q 741 593 724 586 Q 702 577 661 568 C 632 561 655 535 684 543 Q 708 549 760 568 Q 776 575 781 567 Q 785 555 788 536 Q 797 359 791 252 Q 790 230 784 221 Q 780 217 764 220 Z" fill="black" /></g></svg>