<?xml version='1.0' encoding='utf-8'?>
<svg xmlns="http://www.w3.org/2000/svg" version="1.1" viewBox="0 0 1024 1024"><g transform="scale(1, -1) translate(0, -900)"><path d="M 286 136 Q 299 146 305 163 Q 317 205 274 276 Q 241 339 319 424 Q 320 428 324 430 Q 346 449 327 466 Q 305 482 269 497 Q 248 509 205 478 Q 112 433 84 434 Q 75 435 74 430 Q 73 424 81 420 Q 121 402 217 436 Q 227 440 236 428 Q 258 406 236 377 Q 185 325 231 262 Q 264 204 263 171 Q 263 150 257 137 C 249 108 265 114 286 136 Z" fill="black" /></g></svg>