<?xml version='1.0' encoding='utf-8'?>
<svg xmlns="http://www.w3.org/2000/svg" version="1.1" viewBox="0 0 1024 1024"><g transform="scale(1, -1) translate(0, -900)"><path d="M 564 381 Q 571 400 582 412 Q 591 419 589 428 Q 585 440 551 466 Q 541 475 532 471 Q 520 470 527 454 Q 533 439 513 376 L 499 339 Q 484 308 470 287 Q 460 271 463 259 Q 464 250 481 247 Q 526 234 559 212 L 597 189 Q 640 161 700 110 Q 722 91 738 92 Q 757 92 757 110 Q 758 129 732 169 Q 720 194 632 227 L 587 244 Q 548 259 521 265 Q 502 269 513 287 Q 532 323 545 346 L 564 381 Z" fill="black" /></g></svg>