<?xml version='1.0' encoding='utf-8'?>
<svg xmlns="http://www.w3.org/2000/svg" version="1.1" viewBox="0 0 1024 1024"><g transform="scale(1, -1) translate(0, -900)"><path d="M 244 189 Q 245 190 249 194 Q 271 207 279 231 Q 288 271 244 325 Q 213 370 288 455 Q 292 462 300 468 Q 322 487 303 502 Q 282 518 248 533 Q 226 546 189 516 Q 111 468 79 469 Q 72 470 70 464 Q 69 460 77 455 Q 116 439 200 475 Q 207 479 216 471 Q 234 450 212 415 Q 161 358 201 317 Q 237 257 237 232 Q 238 213 234 202 Q 230 195 233 189 C 232 179 232 179 244 189 Z" fill="black" /></g></svg>