<?xml version='1.0' encoding='utf-8'?>
<svg xmlns="http://www.w3.org/2000/svg" version="1.1" viewBox="0 0 1024 1024"><g transform="scale(1, -1) translate(0, -900)"><path d="M 729 499 Q 741 545 752 573 L 774 618 Q 787 640 803 653 Q 819 671 805 688 Q 733 745 678 718 Q 648 708 623 699 L 571 687 Q 513 674 452 667 Q 436 666 438 657 Q 441 650 458 643 Q 482 633 515 644 Q 542 650 571 655 L 621 665 Q 649 672 681 678 Q 702 682 710 674 Q 722 662 718 637 Q 714 621 710 605 L 700 569 Q 690 538 681 509 C 672 480 721 470 729 499 Z" fill="black" /></g></svg>