<?xml version='1.0' encoding='utf-8'?>
<svg xmlns="http://www.w3.org/2000/svg" version="1.1" viewBox="0 0 1024 1024"><g transform="scale(1, -1) translate(0, -900)"><path d="M 471 697 Q 534 718 724 746 Q 743 749 752 738 Q 765 731 769 674 Q 782 481 770 262 Q 769 229 757 221 Q 747 212 690 221 Q 674 225 674 215 Q 675 208 688 200 Q 740 157 765 123 Q 787 102 800 105 Q 813 108 825 137 Q 843 185 842 254 Q 827 543 829 650 Q 830 690 842 713 Q 855 735 844 747 Q 834 762 787 787 Q 766 799 691 776 Q 573 749 451 735 C 421 731 442 689 471 697 Z" fill="black" /></g></svg>