<?xml version='1.0' encoding='utf-8'?>
<svg xmlns="http://www.w3.org/2000/svg" version="1.1" viewBox="0 0 1024 1024"><g transform="scale(1, -1) translate(0, -900)"><path d="M 315 170 Q 337 198 324 248 Q 317 270 288 317 Q 266 356 300 413 Q 319 447 338 467 Q 359 486 339 501 Q 320 517 284 531 Q 262 544 244 525 Q 214 503 176 487 Q 124 463 107 465 Q 100 466 98 461 Q 97 455 105 451 Q 144 435 236 472 Q 245 475 254 465 Q 275 443 253 416 Q 205 367 242 313 Q 290 226 284 173 C 283 143 300 144 315 170 Z" fill="black" /></g></svg>