<?xml version='1.0' encoding='utf-8'?>
<svg xmlns="http://www.w3.org/2000/svg" version="1.1" viewBox="0 0 1024 1024"><g transform="scale(1, -1) translate(0, -900)"><path d="M 288 156 Q 297 163 301 178 Q 307 214 268 281 Q 238 333 300 413 Q 307 426 318 435 Q 339 454 319 469 Q 298 485 263 498 Q 242 510 201 476 Q 123 431 99 433 Q 92 434 90 428 Q 89 424 97 419 Q 134 404 216 439 Q 225 443 234 433 Q 256 411 234 382 Q 186 331 232 260 Q 266 190 262 158 Q 261 158 261 157 C 259 127 270 132 288 156 Z" fill="black" /></g></svg>