<?xml version='1.0' encoding='utf-8'?>
<svg xmlns="http://www.w3.org/2000/svg" version="1.1" viewBox="0 0 1024 1024"><g transform="scale(1, -1) translate(0, -900)"><path d="M 291 176 Q 313 204 302 254 Q 295 278 268 325 Q 247 364 285 421 Q 309 457 328 476 Q 350 494 331 510 Q 312 526 277 542 Q 256 554 222 529 Q 129 471 84 477 Q 77 478 74 473 Q 73 467 81 463 Q 124 445 228 485 Q 235 488 244 479 Q 265 455 240 427 Q 186 378 230 305 Q 270 224 259 180 C 255 150 276 150 291 176 Z" fill="black" /></g></svg>