<?xml version='1.0' encoding='utf-8'?>
<svg xmlns="http://www.w3.org/2000/svg" version="1.1" viewBox="0 0 1024 1024"><g transform="scale(1, -1) translate(0, -900)"><path d="M 439 425 Q 475 437 514 449 Q 527 456 532 449 Q 536 440 537 427 Q 547 295 545 214 Q 544 195 538 185 Q 532 179 479 191 Q 464 195 465 189 Q 508 155 533 127 Q 543 114 555 110 Q 562 107 568 115 Q 598 151 596 192 Q 574 408 588 440 Q 597 455 587 462 Q 571 475 544 485 Q 529 489 481 463 Q 463 456 434 448 C 405 440 411 416 439 425 Z" fill="black" /></g></svg>