<?xml version='1.0' encoding='utf-8'?>
<svg xmlns="http://www.w3.org/2000/svg" version="1.1" viewBox="0 0 1024 1024"><g transform="scale(1, -1) translate(0, -900)"><path d="M 909 189 Q 896 213 877 284 Q 876 297 869 302 Q 863 305 860 289 Q 841 210 826 186 Q 799 156 718 159 Q 687 160 663 169 Q 641 179 636 192 Q 621 226 641 335 Q 647 360 604 378 Q 594 382 586 377 Q 580 374 584 359 Q 594 325 592 293 Q 588 202 595 175 Q 599 156 617 140 Q 687 86 834 119 Q 835 120 839 120 Q 873 130 905 152 Q 921 167 909 189 Z" fill="black" /></g></svg>