<?xml version='1.0' encoding='utf-8'?>
<svg xmlns="http://www.w3.org/2000/svg" version="1.1" viewBox="0 0 1024 1024"><g transform="scale(1, -1) translate(0, -900)"><path d="M 700 194 Q 730 157 751 123 Q 758 107 769 108 Q 784 109 797 139 Q 813 173 810 215 Q 803 285 797 414 Q 796 442 810 461 Q 819 473 810 482 Q 794 498 747 520 Q 731 527 717 520 Q 683 504 629 489 L 589 481 Q 570 478 556 475 C 527 469 539 440 568 446 Q 722 476 730 474 Q 731 473 735 471 Q 760 446 746 225 Q 745 222 745 217 Q 741 201 726 207 C 697 200 695 200 700 194 Z" fill="black" /></g></svg>