<?xml version='1.0' encoding='utf-8'?>
<svg xmlns="http://www.w3.org/2000/svg" version="1.1" viewBox="0 0 1024 1024"><g transform="scale(1, -1) translate(0, -900)"><path d="M 748 593 Q 752 581 763 581 Q 775 582 782 594 Q 791 604 809 652 Q 824 697 856 722 Q 872 735 859 750 Q 843 765 800 788 Q 787 797 733 784 Q 670 780 538 754 Q 466 741 416 736 C 386 733 421 698 450 705 Q 454 705 458 706 Q 486 715 526 721 L 547 726 Q 589 735 646 742 L 666 744 Q 751 762 773 748 Q 780 744 776 722 Q 758 640 750 623 Q 749 623 749 622 C 740 600 740 600 748 593 Z" fill="black" /></g></svg>