<?xml version='1.0' encoding='utf-8'?>
<svg xmlns="http://www.w3.org/2000/svg" version="1.1" viewBox="0 0 1024 1024"><g transform="scale(1, -1) translate(0, -900)"><path d="M 288 189 Q 301 198 308 216 Q 315 258 276 321 Q 245 375 318 463 Q 321 467 326 471 Q 348 490 328 505 Q 309 521 274 536 Q 252 549 233 531 Q 202 510 163 496 Q 109 474 92 478 Q 85 478 83 473 Q 82 469 89 464 Q 129 445 223 478 Q 233 481 242 469 Q 263 447 241 420 Q 193 372 240 300 Q 274 228 266 194 Q 265 193 264 191 C 257 162 267 168 288 189 Z" fill="black" /></g></svg>