<?xml version='1.0' encoding='utf-8'?>
<svg xmlns="http://www.w3.org/2000/svg" version="1.1" viewBox="0 0 1024 1024"><g transform="scale(1, -1) translate(0, -900)"><path d="M 248 153 Q 248 154 249 154 Q 276 169 285 196 Q 297 241 248 301 Q 227 331 264 379 Q 264 386 306 421 Q 330 437 311 455 Q 292 473 258 489 Q 236 504 202 477 Q 121 429 88 434 Q 81 434 78 429 Q 77 425 85 420 Q 124 401 207 433 Q 214 437 223 429 Q 238 411 216 384 Q 170 339 208 287 Q 250 209 233 159 Q 232 158 232 154 C 228 139 228 139 248 153 Z" fill="black" /></g></svg>