<?xml version='1.0' encoding='utf-8'?>
<svg xmlns="http://www.w3.org/2000/svg" version="1.1" viewBox="0 0 1024 1024"><g transform="scale(1, -1) translate(0, -900)"><path d="M 699 351 Q 714 326 728 317 Q 738 310 754 329 Q 767 345 798 441 Q 808 471 831 494 Q 844 504 833 519 Q 820 535 779 562 Q 763 571 696 553 Q 672 550 635 541 L 585 530 Q 569 529 553 524 Q 502 512 462 504 C 433 498 448 464 477 473 Q 519 486 585 501 L 635 512 Q 722 534 743 521 Q 753 512 749 498 Q 725 390 706 378 C 693 361 693 361 699 351 Z" fill="black" /></g></svg>