<?xml version='1.0' encoding='utf-8'?>
<svg xmlns="http://www.w3.org/2000/svg" version="1.1" viewBox="0 0 1024 1024"><g transform="scale(1, -1) translate(0, -900)"><path d="M 694 535 Q 694 528 698 518 Q 704 503 716 505 Q 729 508 735 522 Q 750 544 769 647 Q 782 698 816 728 Q 834 744 818 758 Q 800 774 751 797 Q 739 804 678 790 Q 651 790 527 762 Q 478 752 440 745 C 411 739 434 706 463 714 Q 466 714 470 715 Q 501 727 550 735 L 587 741 Q 696 765 719 754 Q 731 747 726 712 Q 710 594 699 558 L 694 535 Z" fill="black" /></g></svg>