<?xml version='1.0' encoding='utf-8'?>
<svg xmlns="http://www.w3.org/2000/svg" version="1.1" viewBox="0 0 1024 1024"><g transform="scale(1, -1) translate(0, -900)"><path d="M 300 155 Q 309 164 313 177 Q 325 216 280 289 Q 249 343 322 431 Q 325 435 330 439 Q 352 458 332 473 Q 313 489 277 504 Q 255 517 237 499 Q 209 478 171 464 Q 120 443 104 446 Q 97 446 94 441 Q 93 437 101 432 Q 138 414 227 446 Q 237 449 246 437 Q 267 415 245 388 Q 194 337 240 275 Q 277 209 271 158 C 270 128 283 131 300 155 Z" fill="black" /></g></svg>