<?xml version='1.0' encoding='utf-8'?>
<svg xmlns="http://www.w3.org/2000/svg" version="1.1" viewBox="0 0 1024 1024"><g transform="scale(1, -1) translate(0, -900)"><path d="M 624 381 Q 667 391 722 396 Q 741 397 749 388 Q 756 381 752 368 Q 753 232 744 213 Q 740 203 727 204 Q 702 205 674 208 Q 649 208 668 193 Q 728 153 753 121 Q 763 109 773 118 Q 800 145 806 284 Q 797 335 821 369 Q 834 388 828 395 Q 821 407 773 434 Q 755 447 742 440 Q 717 430 668 419 Q 578 406 527 392 L 495 384 Q 485 383 480 380 Q 447 371 423 365 C 394 358 404 321 433 329 Q 436 329 498 348 L 530 358 Q 566 370 595 375 L 624 381 Z" fill="black" /></g></svg>