<?xml version='1.0' encoding='utf-8'?>
<svg xmlns="http://www.w3.org/2000/svg" version="1.1" viewBox="0 0 1024 1024"><g transform="scale(1, -1) translate(0, -900)"><path d="M 700 350 Q 694 386 667 417 L 656 430 Q 608 481 549 504 C 521 516 502 499 528 485 Q 540 479 553 471 L 596 440 Q 609 428 622 414 L 653 368 Q 671 319 641 234 Q 631 206 620 200 Q 610 194 557 197 Q 512 206 512 196 Q 511 189 524 178 Q 584 138 609 108 Q 619 93 632 97 Q 672 115 696 211 Q 711 278 705 318 L 700 350 Z" fill="black" /></g></svg>