<?xml version='1.0' encoding='utf-8'?>
<svg xmlns="http://www.w3.org/2000/svg" version="1.1" viewBox="0 0 1024 1024"><g transform="scale(1, -1) translate(0, -900)"><path d="M 294 175 Q 306 185 312 201 Q 325 243 284 312 Q 239 357 317 461 Q 320 468 326 473 Q 348 492 328 507 Q 309 522 273 536 Q 251 549 233 531 Q 202 509 160 493 Q 105 471 88 474 Q 81 474 78 469 Q 77 465 85 460 Q 125 441 223 477 Q 233 480 242 468 Q 264 446 244 417 Q 195 365 240 303 Q 273 246 271 210 Q 270 191 264 178 C 255 149 274 153 294 175 Z" fill="black" /></g></svg>