<?xml version='1.0' encoding='utf-8'?>
<svg xmlns="http://www.w3.org/2000/svg" version="1.1" viewBox="0 0 1024 1024"><g transform="scale(1, -1) translate(0, -900)"><path d="M 582 218 Q 582 101 598 75 Q 604 68 611 70 Q 630 82 636 226 L 636 262 Q 636 302 634 343 L 634 379 Q 634 401 634 426 L 635 462 Q 635 486 635 512 L 635 541 Q 636 571 637 599 L 642 645 Q 645 658 647 669 Q 650 687 636 695 Q 605 716 591 718 Q 579 722 564 714 Q 555 707 563 696 Q 582 656 585 627 L 586 588 Q 586 561 585 530 L 585 501 Q 585 476 585 446 L 585 417 Q 584 393 583 366 L 583 335 Q 583 295 582 252 L 582 218 Z" fill="black" /></g></svg>