<?xml version='1.0' encoding='utf-8'?>
<svg xmlns="http://www.w3.org/2000/svg" version="1.1" viewBox="0 0 1024 1024"><g transform="scale(1, -1) translate(0, -900)"><path d="M 291 169 Q 303 179 309 194 Q 324 234 280 305 Q 250 356 319 440 Q 323 446 329 451 Q 351 469 332 485 Q 311 501 277 515 Q 255 528 236 510 Q 208 488 168 473 Q 116 451 100 453 Q 93 454 90 449 Q 89 445 97 439 Q 139 421 228 457 Q 237 460 245 449 Q 266 428 245 401 Q 197 356 239 292 Q 270 237 269 202 Q 268 183 263 171 C 255 142 271 147 291 169 Z" fill="black" /></g></svg>