<?xml version='1.0' encoding='utf-8'?>
<svg xmlns="http://www.w3.org/2000/svg" version="1.1" viewBox="0 0 1024 1024"><g transform="scale(1, -1) translate(0, -900)"><path d="M 506 502 Q 505 505 500 506 Q 493 513 480 517 Q 471 521 461 518 Q 455 514 460 502 Q 475 439 475 353 Q 474 340 474 323 Q 474 292 464 252 Q 451 203 483 165 Q 493 153 502 164 Q 509 174 511 186 L 515 219 Q 515 256 515 294 L 515 320 Q 516 357 517 385 L 518 406 Q 519 458 521 463 Q 522 470 522 475 C 523 489 523 489 506 502 Z" fill="black" /></g></svg>