<?xml version='1.0' encoding='utf-8'?>
<svg xmlns="http://www.w3.org/2000/svg" version="1.1" viewBox="0 0 1024 1024"><g transform="scale(1, -1) translate(0, -900)"><path d="M 258 193 Q 271 203 278 220 Q 290 257 251 320 Q 227 368 252 412 Q 270 449 287 466 Q 308 485 288 500 Q 267 516 232 528 Q 213 538 167 504 Q 92 465 75 465 Q 68 466 66 461 Q 65 455 73 451 Q 109 436 184 467 Q 194 471 204 459 Q 223 441 206 416 Q 169 371 213 304 Q 240 258 238 227 Q 237 206 231 194 Q 230 194 230 193 C 219 165 237 172 258 193 Z" fill="black" /></g></svg>