<?xml version='1.0' encoding='utf-8'?>
<svg xmlns="http://www.w3.org/2000/svg" version="1.1" viewBox="0 0 1024 1024"><g transform="scale(1, -1) translate(0, -900)"><path d="M 734 321 Q 759 364 785 427 Q 797 455 816 474 Q 835 490 822 503 Q 809 515 778 526 Q 762 532 686 503 Q 608 485 591 481 Q 578 480 573 473 Q 569 466 587 459 Q 623 446 671 461 Q 704 477 710 477 Q 732 476 727 450 Q 714 392 691 349 L 672 317 Q 612 245 504 212 Q 491 208 502 199 Q 506 195 543 197 Q 636 206 707 284 L 734 321 Z" fill="black" /></g></svg>