<?xml version='1.0' encoding='utf-8'?>
<svg xmlns="http://www.w3.org/2000/svg" version="1.1" viewBox="0 0 1024 1024"><g transform="scale(1, -1) translate(0, -900)"><path d="M 686 203 Q 713 169 733 135 Q 742 119 753 119 Q 768 120 783 152 Q 799 189 795 233 Q 788 308 779 446 Q 778 474 793 495 Q 802 507 793 516 Q 775 534 728 555 Q 712 564 697 555 Q 654 534 587 519 Q 580 518 576 516 L 537 508 Q 518 505 506 502 C 477 496 493 468 522 475 Q 534 478 551 482 Q 620 495 678 510 Q 702 514 713 506 Q 743 470 727 238 Q 727 237 727 235 Q 723 216 705 225 Q 704 226 701 227 C 671 232 668 227 686 203 Z" fill="black" /></g></svg>