<?xml version='1.0' encoding='utf-8'?>
<svg xmlns="http://www.w3.org/2000/svg" version="1.1" viewBox="0 0 1024 1024"><g transform="scale(1, -1) translate(0, -900)"><path d="M 287 181 Q 296 190 300 203 Q 312 243 268 313 Q 235 368 307 455 Q 310 461 314 464 Q 336 483 316 498 Q 295 514 260 527 Q 238 540 220 522 Q 193 500 158 486 Q 112 464 95 465 Q 88 466 86 461 Q 85 455 93 451 Q 130 436 212 468 Q 222 472 230 460 Q 252 439 231 411 Q 186 362 222 309 Q 261 245 260 211 Q 260 195 255 182 C 248 153 270 157 287 181 Z" fill="black" /></g></svg>