<?xml version='1.0' encoding='utf-8'?>
<svg xmlns="http://www.w3.org/2000/svg" version="1.1" viewBox="0 0 1024 1024"><g transform="scale(1, -1) translate(0, -900)"><path d="M 315 180 Q 327 189 331 206 Q 338 249 292 325 Q 261 379 334 467 Q 337 471 342 475 Q 363 494 343 509 Q 322 525 287 538 Q 265 550 247 532 Q 217 507 177 489 Q 125 464 107 465 Q 100 465 98 460 Q 97 456 105 451 Q 144 435 241 478 Q 248 482 258 473 Q 279 451 257 424 Q 205 370 255 306 Q 300 219 290 182 C 287 152 295 157 315 180 Z" fill="black" /></g></svg>