<?xml version='1.0' encoding='utf-8'?>
<svg xmlns="http://www.w3.org/2000/svg" version="1.1" viewBox="0 0 1024 1024"><g transform="scale(1, -1) translate(0, -900)"><path d="M 666 421 Q 709 431 762 434 Q 781 434 790 424 Q 797 417 793 403 Q 794 222 783 197 Q 782 190 771 193 Q 744 199 714 206 Q 689 210 706 192 Q 769 141 794 105 Q 806 92 818 103 Q 834 119 841 145 Q 851 172 847 322 Q 846 377 862 405 Q 875 424 869 432 Q 862 444 814 472 Q 798 485 783 478 Q 758 468 709 458 Q 579 439 529 426 Q 492 416 464 412 Q 463 412 460 411 C 430 406 461 370 490 376 Q 500 376 511 380 Q 523 386 541 391 L 559 397 Q 605 412 639 416 L 666 421 Z" fill="black" /></g></svg>