<?xml version='1.0' encoding='utf-8'?>
<svg xmlns="http://www.w3.org/2000/svg" version="1.1" viewBox="0 0 1024 1024"><g transform="scale(1, -1) translate(0, -900)"><path d="M 266 186 Q 288 201 296 225 Q 308 267 260 321 Q 239 348 270 403 Q 270 412 305 447 Q 327 466 307 481 Q 286 497 252 510 Q 230 523 191 490 Q 122 448 99 449 Q 92 450 90 444 Q 89 440 97 435 Q 134 420 204 451 Q 213 455 221 445 Q 237 429 222 403 Q 209 387 201 362 Q 197 340 214 317 Q 268 239 248 191 Q 247 190 247 185 C 242 166 243 167 266 186 Z" fill="black" /></g></svg>