<?xml version='1.0' encoding='utf-8'?>
<svg xmlns="http://www.w3.org/2000/svg" version="1.1" viewBox="0 0 1024 1024"><g transform="scale(1, -1) translate(0, -900)"><path d="M 597 237 Q 598 224 598 208 Q 599 106 612 90 Q 616 84 622 87 Q 628 90 633 102 Q 642 135 643 244 L 644 278 Q 645 303 647 337 C 649 367 649 375 649 377 Q 649 378 650 378 Q 651 388 654 397 Q 655 410 645 419 Q 639 423 634 426 C 609 442 571 443 585 416 Q 594 407 595 363 L 596 328 Q 597 301 597 268 L 597 237 Z" fill="black" /></g></svg>