<?xml version='1.0' encoding='utf-8'?>
<svg xmlns="http://www.w3.org/2000/svg" version="1.1" viewBox="0 0 1024 1024"><g transform="scale(1, -1) translate(0, -900)"><path d="M 281 193 Q 300 209 309 232 Q 319 260 310 286 Q 303 307 272 341 Q 257 360 263 380 Q 267 395 287 427 Q 308 454 324 468 Q 346 487 327 502 Q 308 518 272 534 Q 250 547 233 530 Q 208 508 172 494 Q 126 472 111 473 Q 104 474 102 469 Q 101 463 109 459 Q 146 444 224 476 Q 231 480 240 471 Q 256 452 238 426 Q 196 381 226 337 Q 268 270 264 232 Q 263 210 255 195 C 244 167 260 172 281 193 Z" fill="black" /></g></svg>