<?xml version='1.0' encoding='utf-8'?>
<svg xmlns="http://www.w3.org/2000/svg" version="1.1" viewBox="0 0 1024 1024"><g transform="scale(1, -1) translate(0, -900)"><path d="M 457 346 Q 461 358 450 366 Q 434 381 409 386 Q 397 389 392 382 Q 388 376 397 365 Q 413 346 416 315 Q 417 264 402 238 Q 393 226 398 218 Q 405 205 418 193 Q 427 186 439 197 Q 488 239 647 239 Q 668 239 693 237 Q 711 236 718 240 Q 724 244 719 254 Q 715 264 684 281 Q 666 290 607 279 Q 535 273 465 255 Q 458 252 456 255 Q 450 258 452 268 Q 452 329 457 346 Z" fill="black" /></g></svg>