<?xml version='1.0' encoding='utf-8'?>
<svg xmlns="http://www.w3.org/2000/svg" version="1.1" viewBox="0 0 1024 1024"><g transform="scale(1, -1) translate(0, -900)"><path d="M 247 130 Q 269 143 277 170 Q 286 215 236 277 Q 215 307 252 367 Q 252 379 299 422 Q 321 440 302 456 Q 283 472 248 489 Q 226 502 188 470 Q 113 428 91 429 Q 84 430 82 425 Q 81 419 89 415 Q 125 400 200 431 Q 207 435 215 429 Q 234 404 211 373 Q 192 352 179 320 Q 172 299 190 273 Q 244 180 228 135 Q 227 134 227 130 C 223 111 223 112 247 130 Z" fill="black" /></g></svg>