<?xml version='1.0' encoding='utf-8'?>
<svg xmlns="http://www.w3.org/2000/svg" version="1.1" viewBox="0 0 1024 1024"><g transform="scale(1, -1) translate(0, -900)"><path d="M 696 252 Q 696 180 689 174 Q 677 167 623 180 Q 610 184 610 175 Q 610 169 621 163 Q 670 124 695 94 Q 711 78 723 79 Q 733 80 744 105 Q 757 144 758 200 Q 755 228 753 252 L 750 298 Q 744 383 758 411 Q 771 438 728 464 Q 719 468 709 474 Q 693 483 676 479 Q 652 472 609 460 L 558 450 Q 512 443 465 437 C 435 433 449 395 478 401 L 558 418 L 607 428 Q 626 432 652 436 Q 674 440 685 429 Q 692 423 697 291 L 696 252 Z" fill="black" /></g></svg>