<?xml version='1.0' encoding='utf-8'?>
<svg xmlns="http://www.w3.org/2000/svg" version="1.1" viewBox="0 0 1024 1024"><g transform="scale(1, -1) translate(0, -900)"><path d="M 630 456 Q 630 408 648 392 Q 687 358 771 379 Q 771 380 774 380 Q 793 386 811 399 Q 824 409 816 425 Q 809 437 797 475 Q 797 485 792 489 Q 788 492 785 480 Q 755 423 733 418 Q 706 411 679 417 Q 669 421 667 427 Q 661 437 661 466 L 665 505 Q 666 515 669 527 Q 672 540 663 546 Q 654 555 638 561 Q 629 564 624 560 Q 620 557 623 545 Q 633 518 631 493 Q 630 492 630 489 L 630 456 Z" fill="black" /></g></svg>