<?xml version='1.0' encoding='utf-8'?>
<svg xmlns="http://www.w3.org/2000/svg" version="1.1" viewBox="0 0 1024 1024"><g transform="scale(1, -1) translate(0, -900)"><path d="M 306 142 Q 325 154 332 175 Q 344 223 296 297 Q 263 354 328 435 Q 332 444 339 450 Q 360 469 340 484 Q 319 499 284 512 Q 262 524 244 505 Q 211 481 170 464 Q 113 439 95 441 Q 88 442 86 437 Q 85 431 93 427 Q 135 409 236 451 Q 246 455 255 443 Q 277 424 257 395 Q 215 346 250 293 Q 292 227 291 184 Q 291 160 281 144 C 269 116 283 123 306 142 Z" fill="black" /></g></svg>