<?xml version='1.0' encoding='utf-8'?>
<svg xmlns="http://www.w3.org/2000/svg" version="1.1" viewBox="0 0 1024 1024"><g transform="scale(1, -1) translate(0, -900)"><path d="M 237 170 Q 265 186 275 213 Q 290 258 240 317 Q 218 345 253 408 Q 272 438 289 454 Q 311 472 292 488 Q 273 504 238 519 Q 213 534 184 506 Q 105 461 76 466 Q 69 466 67 461 Q 66 457 73 452 Q 109 434 187 462 Q 197 465 205 454 Q 224 435 205 406 Q 190 387 181 358 Q 177 337 194 313 Q 248 229 221 175 Q 220 174 220 169 C 216 155 216 155 237 170 Z" fill="black" /></g></svg>