<?xml version='1.0' encoding='utf-8'?>
<svg xmlns="http://www.w3.org/2000/svg" version="1.1" viewBox="0 0 1024 1024"><g transform="scale(1, -1) translate(0, -900)"><path d="M 709 182 Q 725 157 741 149 Q 751 142 766 162 Q 781 187 811 322 Q 820 353 843 377 Q 856 390 845 403 Q 830 419 788 446 Q 770 456 709 440 Q 678 439 546 413 Q 494 403 448 396 C 418 391 437 356 466 364 Q 509 376 571 386 L 610 392 Q 736 413 750 399 Q 763 383 760 368 Q 736 229 719 211 C 706 186 706 186 709 182 Z" fill="black" /></g></svg>