<?xml version='1.0' encoding='utf-8'?>
<svg xmlns="http://www.w3.org/2000/svg" version="1.1" viewBox="0 0 1024 1024"><g transform="scale(1, -1) translate(0, -900)"><path d="M 227 130 Q 179 133 136 123 Q 96 113 70 112 Q 55 112 57 100 Q 60 90 100 65 Q 119 55 149 73 Q 185 109 265 94 Q 364 75 530 9 Q 555 0 581 -12 Q 719 -72 773 -64 Q 848 -48 932 4 Q 945 13 958 20 Q 965 23 963 29 Q 962 33 946 33 Q 682 17 504 60 Q 428 75 368 96 Q 304 123 250 130 Q 249 131 247 130 L 227 130 Z" fill="black" /></g></svg>