<?xml version='1.0' encoding='utf-8'?>
<svg xmlns="http://www.w3.org/2000/svg" version="1.1" viewBox="0 0 1024 1024"><g transform="scale(1, -1) translate(0, -900)"><path d="M 289 174 Q 298 183 302 195 Q 311 229 272 289 Q 241 346 304 431 Q 307 435 311 439 Q 332 458 312 473 Q 290 488 255 500 Q 234 510 196 479 Q 112 431 87 433 Q 80 434 78 428 Q 77 424 85 419 Q 124 403 208 439 Q 218 443 228 431 Q 250 412 231 384 Q 189 335 240 263 Q 265 209 262 175 C 262 145 271 150 289 174 Z" fill="black" /></g></svg>