<?xml version='1.0' encoding='utf-8'?>
<svg xmlns="http://www.w3.org/2000/svg" version="1.1" viewBox="0 0 1024 1024"><g transform="scale(1, -1) translate(0, -900)"><path d="M 599 517 Q 662 532 736 542 Q 752 545 760 536 Q 769 532 771 494 Q 780 368 773 226 Q 773 205 765 199 Q 755 192 701 201 Q 685 204 686 195 Q 687 188 699 182 Q 748 142 772 110 Q 791 91 804 94 Q 816 97 827 123 Q 842 166 842 229 Q 824 475 839 506 Q 848 536 844 542 Q 834 555 792 578 Q 774 587 757 583 Q 724 573 665 557 L 636 550 Q 630 550 624 548 Q 545 532 466 522 C 436 518 451 482 480 490 Q 519 502 564 510 L 599 517 Z" fill="black" /></g></svg>