<?xml version='1.0' encoding='utf-8'?>
<svg xmlns="http://www.w3.org/2000/svg" version="1.1" viewBox="0 0 1024 1024"><g transform="scale(1, -1) translate(0, -900)"><path d="M 303 159 Q 313 169 320 184 Q 336 224 292 297 Q 262 348 331 432 Q 335 438 341 443 Q 363 462 344 477 Q 323 493 288 507 Q 270 519 226 487 Q 139 439 103 441 Q 96 442 94 437 Q 93 431 101 427 Q 140 411 240 448 Q 249 452 257 441 Q 278 420 257 393 Q 209 347 246 293 Q 283 227 279 192 Q 278 174 273 162 C 265 133 284 136 303 159 Z" fill="black" /></g></svg>