<?xml version='1.0' encoding='utf-8'?>
<svg xmlns="http://www.w3.org/2000/svg" version="1.1" viewBox="0 0 1024 1024"><g transform="scale(1, -1) translate(0, -900)"><path d="M 753 152 Q 725 159 698 167 Q 679 173 681 164 Q 736 118 767 84 Q 779 66 792 62 Q 801 58 808 67 Q 847 112 845 160 Q 827 437 849 475 Q 859 491 849 501 Q 830 517 798 532 Q 783 539 732 514 Q 663 498 638 494 Q 625 493 633 485 Q 640 475 654 471 Q 669 468 759 491 Q 775 495 781 487 Q 785 477 787 459 Q 793 290 785 188 Q 784 163 775 153 Q 771 147 753 152 Z" fill="black" /></g></svg>