<?xml version='1.0' encoding='utf-8'?>
<svg xmlns="http://www.w3.org/2000/svg" version="1.1" viewBox="0 0 1024 1024"><g transform="scale(1, -1) translate(0, -900)"><path d="M 513 186 Q 494 189 476 191 Q 460 195 461 188 Q 503 154 527 126 Q 537 110 550 106 Q 557 103 564 111 Q 598 147 597 193 Q 584 416 603 453 Q 613 468 603 476 Q 587 491 558 502 Q 546 508 498 483 Q 476 473 430 464 Q 417 463 425 456 Q 432 447 444 444 Q 453 444 524 464 Q 539 471 545 466 Q 560 417 544 220 Q 543 196 534 186 Q 530 182 513 186 Z" fill="black" /></g></svg>