<?xml version='1.0' encoding='utf-8'?>
<svg xmlns="http://www.w3.org/2000/svg" version="1.1" viewBox="0 0 1024 1024"><g transform="scale(1, -1) translate(0, -900)"><path d="M 287 167 Q 302 177 309 197 Q 325 239 280 313 Q 249 367 322 455 Q 325 459 330 463 Q 351 482 331 497 Q 310 513 275 526 Q 253 538 234 520 Q 203 493 159 475 Q 102 447 83 449 Q 76 449 74 444 Q 73 440 81 435 Q 121 417 229 466 Q 236 470 246 461 Q 267 439 245 412 Q 197 363 234 309 Q 273 240 268 205 Q 267 183 259 170 Q 258 170 258 169 C 246 142 265 146 287 167 Z" fill="black" /></g></svg>