<?xml version='1.0' encoding='utf-8'?>
<svg xmlns="http://www.w3.org/2000/svg" version="1.1" viewBox="0 0 1024 1024"><g transform="scale(1, -1) translate(0, -900)"><path d="M 520 627 Q 456 617 404 607 C 375 601 405 571 434 578 Q 471 588 522 598 L 557 605 Q 590 612 631 618 L 670 624 Q 748 642 768 623 Q 778 610 777 597 Q 753 465 737 458 C 726 441 726 441 727 439 Q 760 382 785 414 Q 798 435 826 551 Q 833 581 856 604 Q 869 616 858 629 Q 843 645 802 670 Q 789 676 698 658 Q 683 658 673 653 L 633 647 Q 594 643 557 634 L 520 627 Z" fill="black" /></g></svg>