<?xml version='1.0' encoding='utf-8'?>
<svg xmlns="http://www.w3.org/2000/svg" version="1.1" viewBox="0 0 1024 1024"><g transform="scale(1, -1) translate(0, -900)"><path d="M 673 653 Q 676 684 679 715 L 687 761 Q 687 770 702 812 Q 706 822 689 835 Q 661 853 640 857 Q 627 861 620 854 Q 613 848 619 835 Q 640 801 638 779 Q 637 763 637 746 L 636 707 Q 635 679 633 647 L 631 618 Q 628 587 626 554 L 623 519 Q 620 494 617 464 C 614 434 650 441 653 471 Q 656 499 659 525 L 663 561 Q 664 592 670 624 L 673 653 Z" fill="black" /></g></svg>