<?xml version='1.0' encoding='utf-8'?>
<svg xmlns="http://www.w3.org/2000/svg" version="1.1" viewBox="0 0 1024 1024"><g transform="scale(1, -1) translate(0, -900)"><path d="M 659 140 Q 681 112 697 85 Q 704 72 713 72 Q 726 73 738 99 Q 748 123 749 173 Q 731 317 750 341 Q 757 351 749 360 Q 734 376 691 394 Q 676 401 664 393 Q 615 371 506 349 C 477 343 489 318 519 323 Q 541 326 655 351 Q 673 355 683 348 Q 692 339 693 177 Q 692 173 692 169 Q 688 156 677 159 C 653 149 653 149 659 140 Z" fill="black" /></g></svg>