<?xml version='1.0' encoding='utf-8'?>
<svg xmlns="http://www.w3.org/2000/svg" version="1.1" viewBox="0 0 1024 1024"><g transform="scale(1, -1) translate(0, -900)"><path d="M 249 150 Q 250 151 253 154 Q 277 167 284 192 Q 296 232 248 289 Q 214 334 293 430 Q 294 433 297 435 Q 319 454 298 469 Q 277 484 241 497 Q 219 509 184 475 Q 111 420 78 421 Q 71 421 69 415 Q 68 411 77 407 Q 116 394 198 435 Q 205 439 213 433 Q 234 412 214 381 Q 198 360 189 330 Q 185 308 202 285 Q 256 207 238 162 Q 234 155 236 150 C 234 138 234 138 249 150 Z" fill="black" /></g></svg>