<?xml version='1.0' encoding='utf-8'?>
<svg xmlns="http://www.w3.org/2000/svg" version="1.1" viewBox="0 0 1024 1024"><g transform="scale(1, -1) translate(0, -900)"><path d="M 719 224 Q 761 233 869 230 Q 885 229 893 238 Q 897 245 882 255 Q 837 285 779 267 Q 772 267 720 256 L 674 247 Q 643 243 613 234 Q 591 227 598 246 Q 608 274 615 286 Q 622 293 619 301 Q 615 310 588 323 Q 575 330 566 326 Q 557 319 565 309 Q 583 267 547 226 Q 538 217 537 206 Q 538 197 552 187 Q 562 180 572 189 Q 617 213 674 218 L 719 224 Z" fill="black" /></g></svg>