<?xml version='1.0' encoding='utf-8'?>
<svg xmlns="http://www.w3.org/2000/svg" version="1.1" viewBox="0 0 1024 1024"><g transform="scale(1, -1) translate(0, -900)"><path d="M 706 280 Q 702 293 697 303 L 687 320 Q 662 351 620 372 Q 616 375 611 375 C 583 386 564 375 590 361 Q 596 358 603 354 L 643 324 Q 652 315 660 303 C 676 281 676 281 676 254 Q 676 157 655 143 Q 648 140 580 147 Q 568 150 568 144 Q 567 138 577 130 Q 626 96 647 70 Q 657 57 669 61 Q 702 76 714 162 Q 720 214 715 247 L 706 280 Z" fill="black" /></g></svg>