<?xml version='1.0' encoding='utf-8'?>
<svg xmlns="http://www.w3.org/2000/svg" version="1.1" viewBox="0 0 1024 1024"><g transform="scale(1, -1) translate(0, -900)"><path d="M 582 657 Q 633 670 715 683 Q 767 690 780 690 Q 793 681 791 675 Q 792 671 769 616 Q 763 604 769 601 Q 775 597 789 608 Q 835 638 872 647 Q 903 657 902 664 Q 901 671 839 716 Q 818 731 734 713 Q 691 709 631 695 L 595 688 Q 559 684 518 674 Q 487 670 460 664 C 431 658 438 625 468 629 Q 474 629 484 631 Q 521 644 563 653 L 582 657 Z" fill="black" /></g></svg>