<?xml version='1.0' encoding='utf-8'?>
<svg xmlns="http://www.w3.org/2000/svg" version="1.1" viewBox="0 0 1024 1024"><g transform="scale(1, -1) translate(0, -900)"><path d="M 445 750 Q 439 760 413 768 Q 404 771 398 767 Q 394 764 398 751 Q 408 723 409 696 Q 409 546 438 523 Q 489 484 583 511 Q 604 518 623 535 Q 636 547 626 564 Q 617 574 602 607 Q 602 619 596 621 Q 592 624 590 611 Q 563 557 541 549 Q 502 540 472 551 Q 459 557 455 565 Q 442 590 441 628 L 441 653 Q 441 687 445 724 C 447 748 447 748 445 750 Z" fill="black" /></g></svg>