<?xml version='1.0' encoding='utf-8'?>
<svg xmlns="http://www.w3.org/2000/svg" version="1.1" viewBox="0 0 1024 1024"><g transform="scale(1, -1) translate(0, -900)"><path d="M 272 161 Q 291 173 296 196 Q 302 238 252 301 Q 231 332 269 389 Q 269 404 315 442 Q 337 460 318 476 Q 299 492 264 508 Q 242 521 202 488 Q 124 443 103 445 Q 96 446 94 440 Q 93 436 101 431 Q 137 416 216 450 Q 222 454 231 449 Q 250 425 227 395 Q 208 376 195 344 Q 188 323 206 297 Q 263 206 253 166 Q 252 165 251 162 C 246 138 249 141 272 161 Z" fill="black" /></g></svg>