<?xml version='1.0' encoding='utf-8'?>
<svg xmlns="http://www.w3.org/2000/svg" version="1.1" viewBox="0 0 1024 1024"><g transform="scale(1, -1) translate(0, -900)"><path d="M 264 179 Q 274 188 280 203 Q 292 237 252 305 Q 222 366 305 458 Q 327 477 307 492 Q 288 508 252 522 Q 231 534 194 504 Q 116 459 95 461 Q 88 462 86 457 Q 85 451 93 447 Q 129 432 204 463 Q 211 467 221 458 Q 243 434 220 406 Q 169 355 211 292 Q 241 232 241 210 Q 242 192 238 182 C 232 153 245 156 264 179 Z" fill="black" /></g></svg>