<?xml version='1.0' encoding='utf-8'?>
<svg xmlns="http://www.w3.org/2000/svg" version="1.1" viewBox="0 0 1024 1024"><g transform="scale(1, -1) translate(0, -900)"><path d="M 677 793 Q 667 800 653 804 Q 644 807 638 803 Q 634 800 638 787 Q 650 759 649 732 Q 649 597 679 574 Q 734 534 829 560 Q 829 561 832 561 Q 854 570 875 587 Q 888 597 880 613 Q 873 623 861 659 Q 861 669 856 673 Q 852 676 849 664 Q 816 610 792 601 Q 752 589 714 602 Q 699 608 695 617 Q 682 638 682 679 L 682 704 Q 682 735 687 770 L 687 771 C 689 786 689 786 677 793 Z" fill="black" /></g></svg>