<?xml version='1.0' encoding='utf-8'?>
<svg xmlns="http://www.w3.org/2000/svg" version="1.1" viewBox="0 0 1024 1024"><g transform="scale(1, -1) translate(0, -900)"><path d="M 371 140 Q 431 164 459 192 Q 466 199 475 209 Q 512 252 540 308 Q 553 335 562 343 Q 571 350 567 358 Q 564 365 527 382 Q 520 386 503 378 Q 490 371 457 363 C 441 359 441 359 449 353 Q 448 353 449 352 Q 455 343 478 347 Q 500 350 502 347 Q 505 340 495 312 Q 488 284 462 247 L 456 237 Q 426 194 377 149 Q 368 145 368 141 C 364 137 364 137 371 140 Z" fill="black" /></g></svg>