<?xml version='1.0' encoding='utf-8'?>
<svg xmlns="http://www.w3.org/2000/svg" version="1.1" viewBox="0 0 1024 1024"><g transform="scale(1, -1) translate(0, -900)"><path d="M 790 540 Q 783 549 773 580 Q 773 590 768 593 Q 765 596 761 585 Q 733 540 706 529 Q 685 525 659 522 Q 640 521 624 524 Q 611 528 609 536 Q 606 545 605 565 L 608 597 Q 609 609 613 621 Q 617 634 608 641 Q 598 651 582 657 C 561 667 561 667 563 653 Q 562 649 565 641 Q 572 614 572 587 L 570 555 Q 570 516 588 501 Q 642 470 740 495 Q 762 502 785 517 Q 797 524 790 540 Z" fill="black" /></g></svg>