<?xml version='1.0' encoding='utf-8'?>
<svg xmlns="http://www.w3.org/2000/svg" version="1.1" viewBox="0 0 1024 1024"><g transform="scale(1, -1) translate(0, -900)"><path d="M 726 664 Q 727 663 728 659 Q 732 644 743 644 Q 758 645 787 693 Q 803 739 837 765 Q 855 778 840 794 Q 824 810 780 835 Q 765 844 686 825 Q 662 825 530 794 Q 472 781 432 773 C 403 767 421 733 450 742 Q 489 754 525 763 L 541 766 Q 575 775 621 782 L 651 788 Q 732 807 752 796 Q 758 792 754 774 Q 739 705 729 687 C 723 672 723 672 726 664 Z" fill="black" /></g></svg>