<?xml version='1.0' encoding='utf-8'?>
<svg xmlns="http://www.w3.org/2000/svg" version="1.1" viewBox="0 0 1024 1024"><g transform="scale(1, -1) translate(0, -900)"><path d="M 310 161 Q 319 168 322 182 Q 328 213 288 277 Q 257 334 320 419 Q 323 423 327 427 Q 349 446 328 461 Q 309 476 273 489 Q 251 501 233 483 Q 205 462 169 448 Q 120 427 104 430 Q 97 430 94 425 Q 93 421 101 416 Q 140 397 223 429 Q 235 433 244 419 Q 266 400 247 372 Q 202 318 255 254 Q 289 199 285 164 C 285 134 292 137 310 161 Z" fill="black" /></g></svg>