<?xml version='1.0' encoding='utf-8'?>
<svg xmlns="http://www.w3.org/2000/svg" version="1.1" viewBox="0 0 1024 1024"><g transform="scale(1, -1) translate(0, -900)"><path d="M 714 705 Q 766 721 807 727 Q 820 728 823 725 Q 830 718 827 696 Q 826 638 813 611 Q 798 586 776 589 Q 760 593 744 597 Q 725 604 739 584 Q 769 553 783 528 Q 795 513 807 524 Q 850 552 873 667 Q 873 703 893 725 Q 903 735 898 745 Q 891 754 848 771 Q 832 778 816 767 Q 800 757 741 742 Q 681 726 630 719 Q 615 718 614 711 Q 613 705 632 696 Q 651 684 667 691 Q 677 695 690 697 L 714 705 Z" fill="black" /></g></svg>