<?xml version='1.0' encoding='utf-8'?>
<svg xmlns="http://www.w3.org/2000/svg" version="1.1" viewBox="0 0 1024 1024"><g transform="scale(1, -1) translate(0, -900)"><path d="M 608 256 Q 608 299 609 338 L 609 365 Q 609 399 610 430 L 611 462 Q 611 490 612 515 C 613 545 613 550 613 551 L 614 552 Q 620 568 612 577 Q 599 590 585 598 C 560 614 537 619 550 592 Q 556 579 561 570 Q 565 557 567 536 L 568 507 Q 568 489 569 454 L 569 425 Q 569 397 569 361 L 569 332 Q 569 295 569 247 C 569 217 608 226 608 256 Z" fill="black" /></g></svg>