<?xml version='1.0' encoding='utf-8'?>
<svg xmlns="http://www.w3.org/2000/svg" version="1.1" viewBox="0 0 1024 1024"><g transform="scale(1, -1) translate(0, -900)"><path d="M 257 199 Q 264 206 268 221 Q 274 254 233 327 Q 206 378 284 472 Q 303 488 286 503 Q 267 518 236 530 Q 218 542 175 509 Q 103 470 83 472 Q 76 472 75 467 Q 74 463 82 459 Q 116 444 193 477 Q 200 481 208 473 Q 229 451 206 423 Q 158 375 204 301 Q 238 234 234 201 Q 233 201 233 200 C 231 170 241 173 257 199 Z" fill="black" /></g></svg>