<?xml version='1.0' encoding='utf-8'?>
<svg xmlns="http://www.w3.org/2000/svg" version="1.1" viewBox="0 0 1024 1024"><g transform="scale(1, -1) translate(0, -900)"><path d="M 486 336 Q 537 326 545 315 Q 552 294 522 233 Q 512 211 498 205 Q 488 199 450 212 Q 422 222 418 218 Q 415 211 428 203 Q 462 182 475 150 Q 479 137 487 133 Q 497 129 522 145 Q 556 176 578 248 Q 584 278 601 294 Q 610 297 611 304 Q 612 311 595 330 Q 573 354 528 354 Q 518 357 505 359 Q 501 360 497 361 C 468 368 457 342 486 336 Z" fill="black" /></g></svg>