<?xml version='1.0' encoding='utf-8'?>
<svg xmlns="http://www.w3.org/2000/svg" version="1.1" viewBox="0 0 1024 1024"><g transform="scale(1, -1) translate(0, -900)"><path d="M 742 138 Q 746 119 752 110 Q 756 104 762 107 Q 768 110 773 122 Q 782 152 782 311 L 782 346 Q 781 379 783 419 L 784 456 Q 787 468 790 489 Q 793 504 781 511 Q 756 529 743 530 Q 733 534 720 527 Q 713 520 719 512 Q 734 479 734 444 L 735 411 Q 735 378 736 338 L 736 306 Q 737 279 737 249 Q 738 167 742 138 Z" fill="black" /></g></svg>