<?xml version='1.0' encoding='utf-8'?>
<svg xmlns="http://www.w3.org/2000/svg" version="1.1" viewBox="0 0 1024 1024"><g transform="scale(1, -1) translate(0, -900)"><path d="M 532 504 Q 548 482 562 475 Q 569 469 581 486 Q 591 505 613 614 Q 619 639 636 658 Q 646 668 636 679 Q 624 692 590 710 Q 574 717 563 712 Q 544 705 517 699 Q 483 690 438 679 Q 423 676 412 672 C 383 663 367 629 406 642 Q 452 658 537 675 Q 556 679 563 673 Q 573 661 572 649 Q 556 537 547 527 C 535 500 529 508 532 504 Z" fill="black" /></g></svg>