<?xml version='1.0' encoding='utf-8'?>
<svg xmlns="http://www.w3.org/2000/svg" version="1.1" viewBox="0 0 1024 1024"><g transform="scale(1, -1) translate(0, -900)"><path d="M 254 166 Q 276 179 284 204 Q 296 243 248 301 Q 217 346 292 431 Q 296 438 304 444 Q 326 463 306 478 Q 287 494 251 509 Q 229 522 212 505 Q 185 481 148 464 Q 99 440 83 441 Q 76 441 74 436 Q 73 432 81 427 Q 118 412 205 450 Q 212 454 220 447 Q 238 426 216 391 Q 165 333 208 288 Q 242 231 241 205 Q 242 186 238 174 Q 235 170 235 165 C 230 147 230 148 254 166 Z" fill="black" /></g></svg>