<?xml version='1.0' encoding='utf-8'?>
<svg xmlns="http://www.w3.org/2000/svg" version="1.1" viewBox="0 0 1024 1024"><g transform="scale(1, -1) translate(0, -900)"><path d="M 262 124 Q 331 172 250 266 Q 231 293 264 358 Q 285 389 302 407 Q 324 423 306 439 Q 287 455 255 470 Q 234 483 218 468 Q 188 449 151 436 Q 100 418 85 421 Q 78 422 76 417 Q 75 413 82 408 Q 119 389 205 417 Q 215 418 222 408 Q 241 386 222 356 Q 206 337 195 306 Q 191 285 225 233 Q 258 179 248 130 Q 247 129 247 125 C 244 110 244 110 262 124 Z" fill="black" /></g></svg>