<?xml version='1.0' encoding='utf-8'?>
<svg xmlns="http://www.w3.org/2000/svg" version="1.1" viewBox="0 0 1024 1024"><g transform="scale(1, -1) translate(0, -900)"><path d="M 750 433 Q 751 432 752 428 Q 756 415 767 417 Q 777 418 783 431 Q 793 446 809 516 Q 819 558 847 583 Q 862 596 848 609 Q 833 622 792 641 Q 783 645 727 632 Q 664 619 624 605 L 596 598 Q 592 598 588 596 C 559 589 573 559 601 568 Q 745 616 768 604 Q 777 600 773 573 Q 760 479 752 456 C 747 439 747 439 750 433 Z" fill="black" /></g></svg>