<?xml version='1.0' encoding='utf-8'?>
<svg xmlns="http://www.w3.org/2000/svg" version="1.1" viewBox="0 0 1024 1024"><g transform="scale(1, -1) translate(0, -900)"><path d="M 902 97 Q 883 155 875 252 Q 874 268 866 274 Q 857 280 853 258 Q 837 137 818 116 Q 764 56 531 58 Q 405 65 353 87 Q 307 112 297 144 Q 284 180 283 269 L 285 300 Q 292 385 309 427 Q 312 434 313 442 C 320 464 320 464 301 477 Q 249 517 234 513 Q 218 506 226 489 Q 247 449 241 391 Q 234 183 246 141 Q 262 84 304 53 Q 391 -11 692 8 Q 828 18 882 48 Q 915 64 902 97 Z" fill="black" /></g></svg>