<?xml version='1.0' encoding='utf-8'?>
<svg xmlns="http://www.w3.org/2000/svg" version="1.1" viewBox="0 0 1024 1024"><g transform="scale(1, -1) translate(0, -900)"><path d="M 493 395 Q 503 344 484 267 Q 474 233 464 226 Q 457 223 399 233 Q 389 237 388 232 Q 387 226 395 218 Q 435 182 451 159 Q 461 144 472 147 Q 514 166 529 266 Q 547 398 503 451 Q 476 485 428 509 Q 416 516 406 518 C 378 528 360 517 387 505 L 388 505 Q 403 498 416 490 L 454 463 Q 464 454 473 442 L 493 395 Z" fill="black" /></g></svg>