<?xml version='1.0' encoding='utf-8'?>
<svg xmlns="http://www.w3.org/2000/svg" version="1.1" viewBox="0 0 1024 1024"><g transform="scale(1, -1) translate(0, -900)"><path d="M 652 462 Q 766 489 803 481 Q 816 474 812 465 Q 812 462 788 400 Q 781 387 787 384 Q 794 381 809 392 Q 855 426 893 439 Q 924 449 923 458 Q 920 467 860 508 Q 839 523 756 506 Q 668 494 635 485 L 621 483 Q 546 473 431 449 C 402 443 394 429 423 422 Q 442 415 462 419 Q 484 428 513 434 L 532 439 Q 551 446 623 457 L 652 462 Z" fill="black" /></g></svg>