<?xml version='1.0' encoding='utf-8'?>
<svg xmlns="http://www.w3.org/2000/svg" version="1.1" viewBox="0 0 1024 1024"><g transform="scale(1, -1) translate(0, -900)"><path d="M 275 146 Q 282 153 285 165 Q 291 199 250 266 Q 223 317 282 392 Q 288 402 296 409 Q 317 425 299 441 Q 280 457 247 471 Q 228 484 209 468 Q 182 450 147 439 Q 101 423 85 425 Q 78 426 76 421 Q 75 417 82 412 Q 112 393 197 417 Q 207 420 216 406 Q 235 387 216 359 Q 170 311 219 241 Q 253 180 249 147 C 249 117 259 121 275 146 Z" fill="black" /></g></svg>