<?xml version='1.0' encoding='utf-8'?>
<svg xmlns="http://www.w3.org/2000/svg" version="1.1" viewBox="0 0 1024 1024"><g transform="scale(1, -1) translate(0, -900)"><path d="M 575 779 Q 562 746 539 716 Q 532 707 535 698 Q 536 689 549 681 Q 577 659 602 632 Q 615 619 625 620 Q 635 621 637 638 Q 638 657 628 668 Q 622 678 585 687 Q 572 690 565 699 Q 561 706 570 716 Q 580 726 603 751 Q 618 767 630 776 Q 642 783 637 796 Q 627 824 610 835 Q 600 842 590 841 Q 581 840 585 825 Q 589 806 575 779 Z" fill="black" /></g></svg>