<?xml version='1.0' encoding='utf-8'?>
<svg xmlns="http://www.w3.org/2000/svg" version="1.1" viewBox="0 0 1024 1024"><g transform="scale(1, -1) translate(0, -900)"><path d="M 924 73 Q 908 113 895 185 Q 894 201 886 206 Q 877 210 874 191 Q 858 106 844 90 Q 789 30 559 28 Q 433 32 380 55 Q 334 80 323 111 Q 314 135 314 191 L 317 224 Q 321 279 334 307 Q 338 317 338 326 C 343 343 343 343 322 357 Q 274 391 260 387 Q 244 381 253 364 Q 272 327 269 271 Q 266 115 289 72 Q 323 -1 473 -19 Q 569 -29 718 -17 Q 854 -5 905 26 Q 936 41 924 73 Z" fill="black" /></g></svg>