<?xml version='1.0' encoding='utf-8'?>
<svg xmlns="http://www.w3.org/2000/svg" version="1.1" viewBox="0 0 1024 1024"><g transform="scale(1, -1) translate(0, -900)"><path d="M 316 763 Q 300 723 271 686 Q 264 676 267 665 Q 268 655 284 646 Q 314 627 340 603 Q 355 590 367 592 Q 377 595 378 614 Q 377 635 364 646 Q 357 653 323 657 Q 310 658 302 668 Q 296 674 305 685 Q 320 700 347 731 Q 363 750 378 759 Q 391 766 386 781 Q 376 812 356 825 Q 346 834 335 832 Q 325 831 329 814 Q 333 792 316 763 Z" fill="black" /></g></svg>