<?xml version='1.0' encoding='utf-8'?>
<svg xmlns="http://www.w3.org/2000/svg" version="1.1" viewBox="0 0 1024 1024"><g transform="scale(1, -1) translate(0, -900)"><path d="M 649 684 Q 650 688 752 719 Q 756 722 767 716 Q 777 709 770 688 Q 739 603 727 585 Q 720 570 721 562 Q 720 549 742 542 Q 850 467 835 384 Q 832 377 826 370 Q 814 361 752 366 Q 689 375 691 365 Q 694 358 709 349 Q 796 316 820 285 Q 827 273 840 273 Q 850 273 863 284 Q 899 329 899 382 Q 899 466 785 552 Q 743 577 814 654 Q 814 657 816 657 Q 835 685 860 698 Q 888 714 863 734 Q 826 765 803 775 Q 785 781 770 771 Q 743 750 633 713 Q 632 713 630 712 C 602 702 621 672 649 684 Z" fill="black" /></g></svg>