<?xml version='1.0' encoding='utf-8'?>
<svg xmlns="http://www.w3.org/2000/svg" version="1.1" viewBox="0 0 1024 1024"><g transform="scale(1, -1) translate(0, -900)"><path d="M 647 643 Q 656 646 669 652 Q 712 668 749 682 Q 753 685 765 679 Q 775 672 767 650 Q 716 520 716 517 Q 715 505 738 497 Q 825 427 827 348 Q 827 324 814 313 Q 802 303 777 304 Q 738 308 706 308 Q 697 309 699 301 Q 702 294 718 284 Q 788 251 806 223 Q 813 211 826 210 Q 836 210 850 221 Q 889 266 892 322 Q 896 407 783 508 Q 744 530 797 591 Q 822 639 862 660 Q 892 678 865 698 Q 825 729 801 740 Q 783 747 767 736 Q 743 715 642 679 Q 638 678 634 676 C 606 666 619 632 647 643 Z" fill="black" /></g></svg>