<?xml version='1.0' encoding='utf-8'?>
<svg xmlns="http://www.w3.org/2000/svg" version="1.1" viewBox="0 0 1024 1024"><g transform="scale(1, -1) translate(0, -900)"><path d="M 652 633 Q 763 678 772 672 Q 773 672 775 671 Q 785 664 777 644 Q 744 557 728 529 Q 721 519 722 511 Q 722 498 742 486 Q 833 434 851 350 Q 857 320 841 301 Q 828 291 800 292 Q 757 295 721 296 Q 714 297 715 289 Q 718 282 734 274 Q 816 244 838 216 Q 845 204 858 204 Q 868 205 881 217 Q 917 260 917 319 Q 917 403 785 496 Q 745 520 815 602 Q 816 605 820 608 Q 841 639 867 653 Q 895 671 871 689 Q 832 720 809 730 Q 793 736 778 727 Q 759 709 670 675 Q 643 666 639 663 C 611 652 624 622 652 633 Z" fill="black" /></g></svg>