<?xml version='1.0' encoding='utf-8'?>
<svg xmlns="http://www.w3.org/2000/svg" version="1.1" viewBox="0 0 1024 1024"><g transform="scale(1, -1) translate(0, -900)"><path d="M 323 474 Q 323 363 322 199 Q 321 163 311 150 Q 299 143 269 151 Q 247 155 220 160 Q 208 163 209 156 Q 210 149 221 139 Q 285 91 325 53 Q 337 43 351 60 Q 390 123 384 192 Q 375 420 376 486 L 377 530 Q 378 584 384 635 Q 390 662 384 672 Q 375 685 345 699 C 319 713 298 720 305 691 Q 320 640 322 546 Q 322 533 323 517 L 323 474 Z" fill="black" /></g></svg>