<?xml version='1.0' encoding='utf-8'?>
<svg xmlns="http://www.w3.org/2000/svg" version="1.1" viewBox="0 0 1024 1024"><g transform="scale(1, -1) translate(0, -900)"><path d="M 625 673 Q 652 688 736 714 Q 739 715 749 711 Q 759 704 751 682 Q 700 556 700 554 Q 699 541 722 533 Q 809 466 817 381 Q 817 359 804 346 Q 792 336 767 339 Q 730 345 698 348 Q 691 349 691 341 Q 694 334 709 323 Q 781 281 791 257 Q 800 244 812 243 Q 822 242 838 253 Q 878 299 880 356 Q 884 443 767 544 Q 725 568 798 648 Q 798 651 800 651 Q 819 679 846 691 Q 876 710 849 729 Q 809 762 785 772 Q 767 779 751 768 Q 723 744 599 702 C 571 692 598 660 625 673 Z" fill="black" /></g></svg>