<?xml version='1.0' encoding='utf-8'?>
<svg xmlns="http://www.w3.org/2000/svg" version="1.1" viewBox="0 0 1024 1024"><g transform="scale(1, -1) translate(0, -900)"><path d="M 652 710 Q 662 713 677 719 Q 722 735 760 747 Q 764 750 776 744 Q 786 737 777 716 Q 704 559 704 555 Q 703 542 726 533 Q 822 473 837 388 Q 837 355 827 345 Q 814 335 785 341 Q 742 350 706 356 Q 699 357 699 349 Q 702 342 717 331 Q 795 289 815 258 Q 824 243 837 242 Q 849 241 865 254 Q 902 303 900 362 Q 897 452 771 544 Q 734 562 800 648 Q 807 658 815 667 Q 840 704 872 722 Q 903 738 877 759 Q 838 793 814 804 Q 796 811 780 801 Q 750 777 651 746 Q 647 745 644 744 C 615 735 624 700 652 710 Z" fill="black" /></g></svg>