<?xml version='1.0' encoding='utf-8'?>
<svg xmlns="http://www.w3.org/2000/svg" version="1.1" viewBox="0 0 1024 1024"><g transform="scale(1, -1) translate(0, -900)"><path d="M 642 701 Q 658 702 676 711 Q 751 742 767 735 Q 779 728 770 702 Q 715 555 715 553 Q 714 540 738 531 Q 825 461 839 366 Q 843 329 823 308 Q 810 298 781 302 Q 739 309 703 312 Q 694 313 695 305 Q 698 298 714 286 Q 795 241 810 215 Q 817 202 830 200 Q 842 199 857 211 Q 903 262 908 326 Q 915 425 785 543 Q 742 564 813 655 Q 831 694 869 715 Q 900 734 873 754 Q 831 788 805 799 Q 786 806 769 795 Q 741 773 635 736 C 607 726 613 694 642 701 Z" fill="black" /></g></svg>