<?xml version='1.0' encoding='utf-8'?>
<svg xmlns="http://www.w3.org/2000/svg" version="1.1" viewBox="0 0 1024 1024"><g transform="scale(1, -1) translate(0, -900)"><path d="M 660 637 Q 672 640 686 646 Q 767 676 780 669 Q 790 662 782 639 Q 749 546 739 532 Q 732 517 733 509 Q 733 497 754 490 Q 838 433 855 349 Q 855 315 844 303 Q 831 293 804 297 Q 764 304 730 307 Q 723 308 723 301 Q 726 294 740 284 Q 818 247 834 219 Q 841 206 854 205 Q 864 204 879 216 Q 916 262 917 319 Q 917 407 797 500 Q 758 521 817 593 Q 821 602 828 608 Q 847 636 872 650 Q 900 668 876 686 Q 839 717 815 727 Q 797 734 782 724 Q 761 706 661 672 Q 654 671 646 668 C 617 659 632 627 660 637 Z" fill="black" /></g></svg>