<?xml version='1.0' encoding='utf-8'?>
<svg xmlns="http://www.w3.org/2000/svg" version="1.1" viewBox="0 0 1024 1024"><g transform="scale(1, -1) translate(0, -900)"><path d="M 651 625 Q 763 674 773 670 L 775 669 Q 785 663 778 644 Q 762 604 748 566 Q 724 509 725 506 Q 725 493 746 486 Q 854 414 838 334 Q 835 328 830 322 Q 818 312 793 314 Q 754 318 722 320 Q 713 321 715 313 Q 767 279 821 242 Q 821 241 824 237 Q 831 225 844 225 Q 854 224 868 236 Q 902 279 901 332 Q 901 414 789 496 Q 752 517 817 602 Q 818 606 822 608 Q 841 639 868 654 Q 896 673 870 690 Q 831 720 808 729 Q 790 735 775 724 Q 748 699 649 660 Q 642 659 639 655 C 612 643 623 613 651 625 Z" fill="black" /></g></svg>