<?xml version='1.0' encoding='utf-8'?>
<svg xmlns="http://www.w3.org/2000/svg" version="1.1" viewBox="0 0 1024 1024"><g transform="scale(1, -1) translate(0, -900)"><path d="M 390 432 Q 389 332 388 194 Q 387 164 377 154 Q 367 148 343 156 Q 322 163 296 171 Q 286 175 285 168 Q 285 161 294 151 Q 349 99 385 58 Q 395 48 409 63 Q 448 112 446 187 Q 440 470 441 502 L 443 555 Q 444 606 450 654 Q 456 679 450 689 Q 441 701 412 717 C 386 733 366 737 375 708 Q 390 660 391 638 Q 391 590 391 539 L 390 432 Z" fill="black" /></g></svg>