<?xml version='1.0' encoding='utf-8'?>
<svg xmlns="http://www.w3.org/2000/svg" version="1.1" viewBox="0 0 1024 1024"><g transform="scale(1, -1) translate(0, -900)"><path d="M 319 345 Q 288 221 221 149 Q 184 113 132 76 Q 120 67 120 63 Q 121 59 134 59 Q 149 55 186 72 Q 334 132 372 359 L 378 406 Q 381 437 384 470 Q 384 483 385 496 L 388 546 Q 389 586 393 625 L 395 674 Q 404 747 419 785 Q 426 800 415 812 Q 393 831 351 843 Q 326 850 316 842 Q 306 835 314 822 Q 338 785 341 735 Q 342 698 343 658 L 343 613 Q 342 573 339 530 L 336 484 Q 330 412 327 393 L 319 345 Z" fill="black" /></g></svg>