<?xml version='1.0' encoding='utf-8'?>
<svg xmlns="http://www.w3.org/2000/svg" version="1.1" viewBox="0 0 1024 1024"><g transform="scale(1, -1) translate(0, -900)"><path d="M 244 333 Q 295 366 428 377 Q 458 381 471 369 Q 483 359 472 317 Q 448 158 416 113 Q 406 100 378 105 Q 347 112 318 118 Q 302 122 303 115 Q 303 109 312 102 Q 367 53 386 19 Q 395 0 412 10 Q 472 44 486 107 Q 508 194 524 289 Q 531 326 550 356 Q 563 371 552 383 Q 536 404 500 424 Q 479 437 452 425 Q 443 422 280 386 Q 253 383 252 419 Q 252 474 253 530 Q 253 588 262 624 C 267 654 268 658 261 663 Q 257 667 253 669 L 239 679 Q 232 683 223 687 Q 205 693 197 684 Q 191 680 199 668 Q 220 626 208 432 Q 205 402 198 373 Q 192 352 206 338 Q 225 322 244 333 Z" fill="black" /></g></svg>