<?xml version='1.0' encoding='utf-8'?>
<svg xmlns="http://www.w3.org/2000/svg" version="1.1" viewBox="0 0 1024 1024"><g transform="scale(1, -1) translate(0, -900)"><path d="M 659 638 Q 770 683 777 679 L 779 678 Q 788 672 781 652 Q 738 544 732 537 Q 725 522 725 514 Q 724 502 746 494 Q 830 427 844 337 Q 844 304 829 289 Q 816 282 793 288 Q 757 298 727 306 Q 720 309 719 301 Q 720 294 734 282 Q 800 233 808 208 Q 815 193 828 191 Q 840 190 856 199 Q 899 247 903 306 Q 907 397 789 504 Q 744 528 822 613 Q 843 646 871 661 Q 899 679 874 697 Q 837 728 813 737 Q 795 743 780 733 Q 759 714 654 671 Q 653 671 653 670 C 626 658 631 627 659 638 Z" fill="black" /></g></svg>