<?xml version='1.0' encoding='utf-8'?>
<svg xmlns="http://www.w3.org/2000/svg" version="1.1" viewBox="0 0 1024 1024"><g transform="scale(1, -1) translate(0, -900)"><path d="M 350 244 Q 389 201 397 178 Q 407 150 418 147 Q 431 146 447 177 Q 466 219 467 287 Q 460 426 462 564 L 463 610 Q 472 737 483 768 Q 499 796 448 817 Q 417 835 400 828 Q 384 822 398 801 Q 417 776 418 745 Q 419 730 416 598 L 415 555 Q 412 452 408 289 Q 407 271 397 264 Q 393 260 382 262 Q 381 263 378 262 C 348 257 340 255 350 244 Z" fill="black" /></g></svg>