<?xml version='1.0' encoding='utf-8'?>
<svg xmlns="http://www.w3.org/2000/svg" version="1.1" viewBox="0 0 1024 1024"><g transform="scale(1, -1) translate(0, -900)"><path d="M 661 630 Q 682 642 762 662 Q 768 663 777 658 Q 787 651 779 626 Q 748 529 735 508 Q 728 493 729 485 Q 729 472 750 466 Q 873 388 859 295 Q 856 289 851 282 Q 836 272 807 276 Q 764 283 726 288 Q 717 289 719 281 Q 722 274 737 264 Q 819 228 843 198 Q 850 185 863 184 Q 875 184 889 197 Q 923 246 921 302 Q 918 392 793 476 Q 760 494 783 524 Q 783 536 824 591 Q 842 624 869 639 Q 897 657 872 675 Q 835 706 811 716 Q 795 722 779 712 Q 761 700 637 657 C 609 647 633 618 661 630 Z" fill="black" /></g></svg>