<?xml version='1.0' encoding='utf-8'?>
<svg xmlns="http://www.w3.org/2000/svg" version="1.1" viewBox="0 0 1024 1024"><g transform="scale(1, -1) translate(0, -900)"><path d="M 262 624 Q 268 625 275 628 Q 312 644 409 666 Q 418 667 424 664 Q 433 660 432 645 Q 431 609 417 545 Q 413 521 389 525 Q 358 531 333 536 Q 320 537 323 530 Q 324 521 349 505 Q 382 478 401 449 Q 408 440 417 443 Q 424 444 437 465 Q 455 490 469 557 Q 479 639 495 654 Q 505 664 500 674 Q 491 684 457 705 Q 444 714 391 698 Q 358 698 261 663 C 233 653 233 615 262 624 Z" fill="black" /></g></svg>