<?xml version='1.0' encoding='utf-8'?>
<svg xmlns="http://www.w3.org/2000/svg" version="1.1" viewBox="0 0 1024 1024"><g transform="scale(1, -1) translate(0, -900)"><path d="M 322 284 Q 328 287 341 292 Q 420 319 423 318 C 452 326 469 377 441 365 Q 406 348 323 327 L 267 310 Q 240 288 158 259 Q 155 259 153 259 Q 147 262 151 270 L 171 359 Q 174 380 168 394 L 166 397 Q 135 440 104 440 Q 100 439 98 435 Q 95 430 101 406 Q 114 351 102 308 Q 94 276 82 257 Q 76 247 61 231 Q 51 221 53 208 Q 59 194 86 175 Q 102 167 113 175 Q 170 214 265 265 L 322 284 Z" fill="black" /></g></svg>