<?xml version='1.0' encoding='utf-8'?>
<svg xmlns="http://www.w3.org/2000/svg" version="1.1" viewBox="0 0 1024 1024"><g transform="scale(1, -1) translate(0, -900)"><path d="M 836 294 Q 820 282 788 287 Q 740 296 698 300 Q 689 301 691 293 Q 694 286 711 275 Q 807 230 827 202 Q 837 189 850 187 Q 863 187 878 200 Q 914 249 912 305 Q 909 395 785 483 Q 743 513 827 585 Q 828 589 832 591 Q 857 622 887 632 Q 920 650 893 672 Q 853 708 829 720 Q 810 727 792 718 Q 762 693 647 653 Q 643 652 642 651 C 614 641 630 606 657 618 Q 685 633 774 661 Q 778 662 787 657 Q 794 651 787 633 Q 736 534 724 520 Q 714 507 716 497 Q 715 484 738 471 Q 781 444 814 400 Q 844 363 846 325 Q 847 307 836 294 Z" fill="black" /></g></svg>