<?xml version='1.0' encoding='utf-8'?>
<svg xmlns="http://www.w3.org/2000/svg" version="1.1" viewBox="0 0 1024 1024"><g transform="scale(1, -1) translate(0, -900)"><path d="M 358 496 Q 388 376 447 303 Q 466 273 505 245 Q 530 226 543 226 Q 553 225 561 236 Q 567 243 559 280 Q 555 313 560 413 Q 563 438 555 439 Q 548 440 541 419 Q 514 313 491 334 Q 445 377 414 457 Q 405 476 396 508 L 385 551 Q 369 618 370 643 Q 377 676 345 692 Q 335 698 328 700 C 301 713 280 710 296 685 Q 297 682 302 677 Q 308 676 347 538 L 348 535 L 358 496 Z" fill="black" /></g></svg>