<?xml version='1.0' encoding='utf-8'?>
<svg xmlns="http://www.w3.org/2000/svg" version="1.1" viewBox="0 0 1024 1024"><g transform="scale(1, -1) translate(0, -900)"><path d="M 205 665 Q 192 677 147 690 Q 131 693 125 687 Q 118 680 130 663 Q 158 626 164 495 Q 163 476 164 451 Q 164 292 107 220 Q 95 207 104 186 Q 114 158 130 146 Q 143 137 155 153 Q 197 214 329 345 Q 344 357 344 366 Q 345 372 339 371 Q 329 370 219 287 Q 209 281 206 284 Q 199 288 200 305 Q 207 609 212 641 Q 212 645 212 649 C 213 660 213 660 205 665 Z" fill="black" /></g></svg>