<?xml version='1.0' encoding='utf-8'?>
<svg xmlns="http://www.w3.org/2000/svg" version="1.1" viewBox="0 0 1024 1024"><g transform="scale(1, -1) translate(0, -900)"><path d="M 638 642 Q 651 651 737 681 Q 741 684 754 678 Q 766 671 757 648 Q 727 549 714 529 Q 707 513 708 504 Q 708 491 730 485 Q 826 413 834 323 Q 834 299 820 286 Q 807 276 782 281 Q 743 288 710 292 Q 703 293 703 285 Q 706 278 721 267 Q 793 222 807 198 Q 814 185 827 183 Q 839 182 854 194 Q 894 242 897 302 Q 898 395 775 496 Q 732 517 799 604 Q 817 640 852 662 Q 882 681 854 700 Q 814 731 789 741 Q 770 747 754 735 Q 738 722 611 670 C 583 659 611 629 638 642 Z" fill="black" /></g></svg>