<?xml version='1.0' encoding='utf-8'?>
<svg xmlns="http://www.w3.org/2000/svg" version="1.1" viewBox="0 0 1024 1024"><g transform="scale(1, -1) translate(0, -900)"><path d="M 319 703 Q 380 719 434 727 Q 452 728 455 724 Q 462 712 458 683 Q 448 601 428 565 Q 410 534 384 539 Q 362 543 342 550 Q 320 556 336 535 Q 373 499 392 472 Q 407 454 423 468 Q 474 501 502 621 Q 514 699 533 722 Q 545 735 539 745 Q 530 755 480 779 Q 461 788 442 775 Q 421 763 343 746 Q 265 727 198 722 Q 180 721 177 712 Q 176 705 200 692 Q 225 676 245 683 Q 261 689 282 693 L 319 703 Z" fill="black" /></g></svg>