<?xml version='1.0' encoding='utf-8'?>
<svg xmlns="http://www.w3.org/2000/svg" version="1.1" viewBox="0 0 1024 1024"><g transform="scale(1, -1) translate(0, -900)"><path d="M 836 298 Q 823 288 797 292 Q 757 299 722 304 Q 715 305 715 297 Q 718 290 733 279 Q 809 234 823 210 Q 830 197 843 195 Q 855 194 869 205 Q 911 251 914 310 Q 918 400 799 504 Q 754 525 826 612 Q 845 642 871 658 Q 902 677 874 696 Q 834 727 809 737 Q 790 743 774 731 Q 753 712 659 675 Q 658 675 657 674 C 629 663 645 628 672 641 Q 679 644 689 649 Q 726 665 757 677 Q 761 680 774 674 Q 784 667 777 644 Q 731 518 732 512 Q 732 499 754 493 Q 841 424 850 334 Q 850 310 836 298 Z" fill="black" /></g></svg>