<?xml version='1.0' encoding='utf-8'?>
<svg xmlns="http://www.w3.org/2000/svg" version="1.1" viewBox="0 0 1024 1024"><g transform="scale(1, -1) translate(0, -900)"><path d="M 660 621 Q 766 667 777 663 L 779 662 Q 789 655 782 635 Q 746 533 735 516 Q 728 501 729 493 Q 729 481 750 474 Q 864 381 836 293 Q 832 289 827 283 Q 820 277 755 275 Q 718 278 719 269 Q 722 262 737 253 Q 801 223 820 197 Q 827 187 839 185 Q 849 185 861 196 Q 901 241 904 297 Q 910 384 793 484 Q 753 506 824 596 Q 845 629 872 646 Q 900 665 875 682 Q 836 713 812 722 Q 796 726 780 716 Q 741 683 647 651 C 619 641 632 609 660 621 Z" fill="black" /></g></svg>