<?xml version='1.0' encoding='utf-8'?>
<svg xmlns="http://www.w3.org/2000/svg" version="1.1" viewBox="0 0 1024 1024"><g transform="scale(1, -1) translate(0, -900)"><path d="M 677 671 Q 686 680 764 706 Q 768 709 781 703 Q 791 696 785 673 Q 752 571 742 552 Q 735 536 737 528 Q 737 516 758 510 Q 848 449 860 364 Q 860 334 848 323 Q 835 313 806 318 Q 763 327 726 331 Q 719 332 719 325 Q 722 318 736 308 Q 817 269 837 239 Q 846 226 857 225 Q 869 224 883 236 Q 920 282 921 339 Q 921 427 801 520 Q 758 541 827 635 Q 846 671 874 688 Q 902 707 876 725 Q 837 753 813 763 Q 797 769 781 758 Q 759 740 660 702 Q 659 702 659 701 C 631 689 650 657 677 671 Z" fill="black" /></g></svg>