<?xml version='1.0' encoding='utf-8'?>
<svg xmlns="http://www.w3.org/2000/svg" version="1.1" viewBox="0 0 1024 1024"><g transform="scale(1, -1) translate(0, -900)"><path d="M 318 498 Q 325 499 333 502 Q 376 514 419 525 Q 435 531 441 523 Q 462 460 451 209 Q 448 187 442 175 Q 438 169 418 174 Q 393 178 366 184 Q 347 188 349 180 Q 404 138 436 106 Q 449 90 463 85 Q 470 82 478 91 Q 514 137 512 185 Q 490 476 510 511 Q 520 529 509 538 Q 490 554 457 567 Q 441 574 427 567 Q 394 548 374 541 Q 349 532 301 525 C 271 520 289 490 318 498 Z" fill="black" /></g></svg>