<?xml version='1.0' encoding='utf-8'?>
<svg xmlns="http://www.w3.org/2000/svg" version="1.1" viewBox="0 0 1024 1024"><g transform="scale(1, -1) translate(0, -900)"><path d="M 652 620 Q 658 626 741 659 Q 745 662 756 657 Q 766 651 760 630 Q 712 489 713 488 Q 713 476 734 470 Q 774 442 803 396 Q 828 357 829 321 Q 829 303 817 291 Q 804 282 778 287 Q 739 294 706 299 Q 699 300 699 293 Q 700 286 716 276 Q 791 231 804 208 Q 813 195 824 193 Q 836 192 850 204 Q 887 249 889 303 Q 890 385 777 480 Q 735 499 806 596 Q 822 629 850 644 Q 878 663 851 680 Q 811 708 788 718 Q 770 722 755 712 Q 734 693 639 651 Q 632 650 627 646 C 599 634 625 606 652 620 Z" fill="black" /></g></svg>