<?xml version='1.0' encoding='utf-8'?>
<svg xmlns="http://www.w3.org/2000/svg" version="1.1" viewBox="0 0 1024 1024"><g transform="scale(1, -1) translate(0, -900)"><path d="M 343 490 Q 391 508 462 526 C 491 533 477 553 448 547 Q 366 531 276 505 Q 266 501 263 504 Q 262 507 266 514 Q 348 626 366 645 Q 376 654 371 665 Q 367 674 341 686 C 314 700 285 706 291 677 Q 300 653 285 619 Q 252 540 185 490 Q 172 480 176 469 Q 180 454 204 437 Q 214 427 226 437 Q 256 462 313 481 L 343 490 Z" fill="black" /></g></svg>