<?xml version='1.0' encoding='utf-8'?>
<svg xmlns="http://www.w3.org/2000/svg" version="1.1" viewBox="0 0 1024 1024"><g transform="scale(1, -1) translate(0, -900)"><path d="M 658 630 Q 676 645 757 672 Q 761 675 771 670 Q 781 663 775 643 Q 724 514 725 509 Q 725 497 746 490 Q 830 421 835 338 Q 835 316 821 304 Q 808 294 782 298 Q 743 304 710 307 Q 703 308 703 301 Q 706 294 720 284 Q 795 245 810 219 Q 817 207 828 205 Q 838 205 852 216 Q 892 259 896 315 Q 900 400 789 500 Q 756 518 780 550 Q 834 640 864 655 Q 892 673 867 691 Q 828 721 804 730 Q 788 734 772 724 Q 751 706 649 663 Q 645 662 642 660 C 614 648 632 615 658 630 Z" fill="black" /></g></svg>