<?xml version='1.0' encoding='utf-8'?>
<svg xmlns="http://www.w3.org/2000/svg" version="1.1" viewBox="0 0 1024 1024"><g transform="scale(1, -1) translate(0, -900)"><path d="M 397 413 Q 437 423 469 428 Q 503 434 504 443 Q 504 456 478 468 Q 457 477 405 459 Q 402 459 400 457 L 355 443 Q 315 433 268 418 Q 258 417 258 419 Q 257 420 260 429 Q 282 475 318 562 L 336 606 Q 336 607 337 607 Q 352 643 366 655 Q 382 668 372 677 Q 327 717 307 717 Q 300 716 304 698 Q 308 674 288 594 L 274 552 Q 243 456 204 422 Q 188 407 201 371 Q 205 359 219 364 Q 261 382 354 403 L 397 413 Z" fill="black" /></g></svg>