<?xml version='1.0' encoding='utf-8'?>
<svg xmlns="http://www.w3.org/2000/svg" version="1.1" viewBox="0 0 1024 1024"><g transform="scale(1, -1) translate(0, -900)"><path d="M 410 367 Q 435 373 463 375 Q 490 379 493 362 Q 502 257 487 240 Q 480 234 433 242 Q 420 245 416 241 Q 415 237 424 228 Q 470 195 497 170 Q 510 158 521 171 Q 542 198 543 265 Q 540 332 546 368 Q 549 386 540 394 Q 516 415 500 424 Q 488 428 481 421 Q 477 415 412 398 L 362 388 Q 328 384 270 373 C 241 367 250 337 280 342 Q 286 342 294 344 Q 328 353 362 359 L 410 367 Z" fill="black" /></g></svg>