<?xml version='1.0' encoding='utf-8'?>
<svg xmlns="http://www.w3.org/2000/svg" version="1.1" viewBox="0 0 1024 1024"><g transform="scale(1, -1) translate(0, -900)"><path d="M 645 634 Q 651 641 752 668 Q 756 671 766 665 Q 775 658 767 638 Q 692 497 693 493 Q 692 493 693 492 Q 692 480 714 469 Q 846 382 832 286 Q 828 277 822 269 Q 807 262 781 269 Q 741 282 707 291 Q 700 292 699 285 Q 700 278 715 265 Q 784 217 803 186 Q 812 170 826 167 Q 839 166 857 178 Q 894 230 893 290 Q 893 383 759 480 Q 719 505 800 587 Q 803 590 806 593 Q 830 626 862 639 Q 893 655 868 677 Q 831 711 807 724 Q 789 731 772 722 Q 742 698 631 666 Q 625 665 620 662 C 591 653 617 622 645 634 Z" fill="black" /></g></svg>