<?xml version='1.0' encoding='utf-8'?>
<svg xmlns="http://www.w3.org/2000/svg" version="1.1" viewBox="0 0 1024 1024"><g transform="scale(1, -1) translate(0, -900)"><path d="M 673 582 Q 772 624 786 618 Q 796 612 789 593 Q 756 508 740 481 Q 734 471 734 463 Q 734 450 754 438 Q 836 390 861 296 Q 870 254 848 227 Q 836 217 811 220 Q 774 224 742 228 Q 733 229 735 221 Q 738 214 753 204 Q 822 167 838 143 Q 845 130 858 129 Q 868 129 882 140 Q 924 189 927 255 Q 930 349 797 448 Q 755 473 830 554 Q 830 557 832 557 Q 853 588 879 601 Q 907 619 882 637 Q 845 668 821 677 Q 803 683 789 674 Q 764 650 740 642 Q 701 627 660 610 C 632 599 645 570 673 582 Z" fill="black" /></g></svg>