<?xml version='1.0' encoding='utf-8'?>
<svg xmlns="http://www.w3.org/2000/svg" version="1.1" viewBox="0 0 1024 1024"><g transform="scale(1, -1) translate(0, -900)"><path d="M 493 544 Q 503 593 513 626 L 530 670 Q 530 671 531 672 Q 544 703 564 721 Q 580 740 565 756 Q 549 769 497 791 Q 479 798 459 789 Q 372 750 232 731 Q 216 730 218 720 Q 221 713 238 707 Q 262 698 296 709 L 339 717 Q 459 748 471 738 Q 484 725 481 697 Q 477 678 474 659 L 466 618 Q 456 578 445 539 C 437 510 487 515 493 544 Z" fill="black" /></g></svg>