<?xml version='1.0' encoding='utf-8'?>
<svg xmlns="http://www.w3.org/2000/svg" version="1.1" viewBox="0 0 1024 1024"><g transform="scale(1, -1) translate(0, -900)"><path d="M 683 652 Q 690 655 702 661 Q 742 677 776 690 Q 780 693 793 687 Q 803 680 796 658 Q 745 510 745 508 Q 745 496 766 490 Q 892 403 867 323 Q 863 317 859 312 Q 841 306 813 320 Q 773 342 735 358 Q 728 361 727 353 Q 728 346 740 332 Q 815 274 833 236 Q 840 220 854 215 Q 867 214 887 224 Q 923 270 924 324 Q 925 406 809 500 Q 770 518 828 601 Q 849 650 886 672 Q 914 691 888 708 Q 849 738 825 747 Q 809 751 793 742 Q 771 723 751 715 Q 717 702 678 686 C 650 675 656 640 683 652 Z" fill="black" /></g></svg>