<?xml version='1.0' encoding='utf-8'?>
<svg xmlns="http://www.w3.org/2000/svg" version="1.1" viewBox="0 0 1024 1024"><g transform="scale(1, -1) translate(0, -900)"><path d="M 413 336 Q 401 379 380 394 L 363 405 Q 359 408 352 410 Q 333 417 324 412 Q 311 406 324 393 Q 357 368 364 327 Q 365 323 366 318 L 373 282 Q 389 168 360 95 Q 347 74 317 81 Q 283 91 252 101 Q 242 105 245 94 Q 249 87 268 73 Q 308 39 323 12 Q 330 -4 346 -3 Q 359 -2 384 21 Q 453 90 422 296 Q 421 302 420 305 L 413 336 Z" fill="black" /></g></svg>