<?xml version='1.0' encoding='utf-8'?>
<svg xmlns="http://www.w3.org/2000/svg" version="1.1" viewBox="0 0 1024 1024"><g transform="scale(1, -1) translate(0, -900)"><path d="M 653 600 Q 659 607 752 638 Q 756 641 768 635 Q 778 628 771 606 Q 740 509 727 488 Q 720 473 721 465 Q 721 452 742 446 Q 829 379 837 295 Q 837 271 824 259 Q 814 250 789 253 Q 753 257 722 260 Q 715 261 715 253 Q 718 246 733 236 Q 799 200 814 175 Q 821 162 833 161 Q 843 161 858 172 Q 895 217 898 273 Q 901 360 785 456 Q 752 474 775 504 Q 775 516 816 571 Q 834 604 861 619 Q 889 638 863 655 Q 826 686 801 695 Q 785 699 769 690 Q 745 669 723 661 Q 683 646 639 630 Q 636 629 635 628 C 607 617 626 587 653 600 Z" fill="black" /></g></svg>