<?xml version='1.0' encoding='utf-8'?>
<svg xmlns="http://www.w3.org/2000/svg" version="1.1" viewBox="0 0 1024 1024"><g transform="scale(1, -1) translate(0, -900)"><path d="M 662 605 Q 677 614 762 638 Q 765 638 775 634 Q 785 627 776 606 Q 721 483 721 479 Q 720 467 742 458 Q 829 401 846 316 Q 846 286 836 275 Q 821 265 793 270 Q 750 277 714 283 Q 707 284 707 277 Q 710 270 724 260 Q 805 221 825 191 Q 834 178 846 177 Q 856 176 872 188 Q 908 236 907 291 Q 907 378 785 468 Q 743 493 818 569 Q 818 572 820 572 Q 839 600 866 612 Q 896 628 871 648 Q 834 681 812 691 Q 794 698 779 688 Q 755 670 658 640 Q 654 639 650 637 C 622 628 634 594 662 605 Z" fill="black" /></g></svg>