<?xml version='1.0' encoding='utf-8'?>
<svg xmlns="http://www.w3.org/2000/svg" version="1.1" viewBox="0 0 1024 1024"><g transform="scale(1, -1) translate(0, -900)"><path d="M 664 637 Q 673 643 756 671 Q 760 672 771 667 Q 781 660 772 641 Q 700 493 700 487 Q 699 475 722 465 Q 843 387 827 300 Q 824 293 818 285 Q 805 275 779 278 Q 740 285 706 288 Q 699 289 699 281 Q 702 274 717 263 Q 792 227 808 197 Q 817 184 830 182 Q 842 182 857 194 Q 893 242 892 298 Q 889 385 767 476 Q 728 497 803 584 Q 807 590 812 594 Q 834 628 867 645 Q 898 661 872 682 Q 835 716 810 728 Q 792 735 775 725 Q 753 707 656 672 C 628 662 636 625 664 637 Z" fill="black" /></g></svg>