<?xml version='1.0' encoding='utf-8'?>
<svg xmlns="http://www.w3.org/2000/svg" version="1.1" viewBox="0 0 1024 1024"><g transform="scale(1, -1) translate(0, -900)"><path d="M 441 457 Q 457 433 473 426 Q 483 419 497 439 Q 510 464 534 596 Q 541 624 561 648 Q 573 660 562 672 Q 547 688 507 710 Q 489 717 474 711 Q 446 704 412 695 Q 364 685 306 670 L 275 662 Q 253 658 233 653 C 204 646 214 613 242 623 Q 275 635 324 645 L 356 652 Q 393 662 437 670 Q 464 676 473 666 Q 486 653 484 637 Q 466 499 452 485 C 439 459 439 459 441 457 Z" fill="black" /></g></svg>