<?xml version='1.0' encoding='utf-8'?>
<svg xmlns="http://www.w3.org/2000/svg" version="1.1" viewBox="0 0 1024 1024"><g transform="scale(1, -1) translate(0, -900)"><path d="M 647 609 Q 656 615 736 646 Q 740 649 752 643 Q 762 636 755 615 Q 709 492 709 489 Q 709 477 730 470 Q 827 407 843 319 Q 843 286 832 275 Q 819 265 792 270 Q 752 279 718 283 Q 711 284 711 277 Q 714 270 728 260 Q 806 218 821 192 Q 828 179 842 177 Q 852 176 868 188 Q 905 239 903 297 Q 903 385 773 480 Q 740 498 764 530 Q 786 566 802 586 Q 820 614 845 627 Q 873 645 847 663 Q 808 693 785 702 Q 769 708 753 698 Q 720 671 626 638 C 598 628 620 596 647 609 Z" fill="black" /></g></svg>