<?xml version='1.0' encoding='utf-8'?>
<svg xmlns="http://www.w3.org/2000/svg" version="1.1" viewBox="0 0 1024 1024"><g transform="scale(1, -1) translate(0, -900)"><path d="M 652 655 Q 665 658 680 666 Q 752 699 765 693 Q 775 686 768 665 Q 735 571 726 557 Q 719 541 720 533 Q 719 520 742 513 Q 826 447 835 368 Q 835 344 823 333 Q 810 323 781 326 Q 738 333 702 336 Q 693 337 695 329 Q 698 322 714 311 Q 793 274 813 244 Q 820 231 833 230 Q 843 230 858 242 Q 897 287 899 342 Q 900 426 787 524 Q 745 548 818 634 Q 837 664 863 677 Q 893 696 865 715 Q 825 746 800 756 Q 781 762 766 750 Q 748 734 651 692 Q 644 691 638 686 C 611 674 624 644 652 655 Z" fill="black" /></g></svg>