<?xml version='1.0' encoding='utf-8'?>
<svg xmlns="http://www.w3.org/2000/svg" version="1.1" viewBox="0 0 1024 1024"><g transform="scale(1, -1) translate(0, -900)"><path d="M 662 614 Q 755 654 772 648 Q 782 641 774 619 Q 728 505 729 497 Q 729 485 750 478 Q 790 448 818 403 Q 843 364 844 328 Q 843 310 831 299 Q 818 289 791 291 Q 749 297 714 300 Q 705 301 707 293 Q 710 286 725 277 Q 806 238 823 214 Q 830 202 842 201 Q 852 201 866 212 Q 903 257 905 311 Q 906 393 793 488 Q 760 506 784 538 Q 806 571 823 592 Q 839 619 864 630 Q 892 648 867 666 Q 830 697 806 707 Q 788 713 773 702 Q 746 681 659 649 Q 655 648 650 645 C 622 634 634 602 662 614 Z" fill="black" /></g></svg>