<?xml version='1.0' encoding='utf-8'?>
<svg xmlns="http://www.w3.org/2000/svg" version="1.1" viewBox="0 0 1024 1024"><g transform="scale(1, -1) translate(0, -900)"><path d="M 459 242 Q 443 243 425 247 Q 409 253 409 244 Q 449 207 473 177 Q 483 161 497 157 Q 504 154 512 163 Q 548 206 542 283 Q 517 589 538 626 Q 548 642 538 652 Q 519 668 488 680 Q 472 686 426 663 Q 408 659 381 651 C 352 643 371 616 400 625 Q 404 626 409 628 Q 430 634 450 641 Q 468 644 472 635 Q 484 598 488 418 Q 489 264 480 243 Q 476 239 459 242 Z" fill="black" /></g></svg>