<?xml version='1.0' encoding='utf-8'?>
<svg xmlns="http://www.w3.org/2000/svg" version="1.1" viewBox="0 0 1024 1024"><g transform="scale(1, -1) translate(0, -900)"><path d="M 655 595 Q 664 598 677 604 Q 764 637 773 631 Q 782 624 774 607 Q 722 508 705 483 Q 698 473 698 466 Q 697 453 718 437 Q 758 406 787 362 Q 812 322 813 293 Q 814 275 801 266 Q 788 257 762 263 Q 725 273 691 279 Q 682 280 683 273 Q 684 266 700 254 Q 769 209 785 180 Q 792 165 806 163 Q 819 162 835 174 Q 872 211 877 268 Q 880 346 770 442 Q 737 475 757 494 Q 767 515 812 560 Q 837 594 869 607 Q 900 623 875 644 Q 838 678 813 691 Q 795 698 780 689 Q 755 668 651 631 Q 650 631 649 630 C 621 619 627 584 655 595 Z" fill="black" /></g></svg>