<?xml version='1.0' encoding='utf-8'?>
<svg xmlns="http://www.w3.org/2000/svg" version="1.1" viewBox="0 0 1024 1024"><g transform="scale(1, -1) translate(0, -900)"><path d="M 201 593 Q 202 594 208 596 Q 227 603 246 610 Q 259 616 264 609 Q 268 597 271 578 Q 280 394 273 283 Q 273 262 266 253 Q 260 247 207 259 Q 192 263 193 257 Q 236 223 261 195 Q 271 182 283 178 Q 290 175 296 182 Q 323 218 323 274 Q 302 566 320 600 Q 329 615 320 622 Q 304 635 276 646 Q 261 650 222 628 Q 210 624 192 618 C 164 609 173 582 201 593 Z" fill="black" /></g></svg>