<?xml version='1.0' encoding='utf-8'?>
<svg xmlns="http://www.w3.org/2000/svg" version="1.1" viewBox="0 0 1024 1024"><g transform="scale(1, -1) translate(0, -900)"><path d="M 690 597 Q 703 600 718 607 Q 787 634 799 628 Q 809 621 801 600 Q 759 492 751 481 Q 744 466 745 458 Q 744 446 766 438 Q 880 357 862 280 Q 859 271 853 264 Q 837 257 812 266 Q 772 279 739 290 Q 732 293 731 285 Q 732 278 746 266 Q 813 218 832 185 Q 839 169 853 166 Q 865 165 882 176 Q 919 219 920 274 Q 923 358 809 448 Q 767 472 842 559 Q 842 560 844 562 Q 863 595 892 610 Q 920 626 895 646 Q 858 677 834 687 Q 818 693 802 683 Q 783 668 690 633 Q 686 632 682 629 C 654 617 662 587 690 597 Z" fill="black" /></g></svg>