<?xml version='1.0' encoding='utf-8'?>
<svg xmlns="http://www.w3.org/2000/svg" version="1.1" viewBox="0 0 1024 1024"><g transform="scale(1, -1) translate(0, -900)"><path d="M 657 622 Q 673 623 693 633 Q 771 664 783 658 Q 792 652 784 633 Q 732 518 716 494 Q 707 481 708 471 Q 707 459 730 449 Q 859 371 844 277 Q 841 271 836 263 Q 823 253 795 255 Q 753 259 718 260 Q 709 261 711 253 Q 714 246 730 236 Q 814 200 831 175 Q 841 162 853 161 Q 865 162 878 175 Q 912 224 910 283 Q 904 371 775 460 Q 738 479 800 554 Q 810 570 821 583 Q 845 620 879 637 Q 910 653 884 674 Q 845 708 821 719 Q 803 726 787 716 Q 763 697 665 659 Q 656 656 648 652 C 620 641 628 615 657 622 Z" fill="black" /></g></svg>