<?xml version='1.0' encoding='utf-8'?>
<svg xmlns="http://www.w3.org/2000/svg" version="1.1" viewBox="0 0 1024 1024"><g transform="scale(1, -1) translate(0, -900)"><path d="M 532 482 Q 566 488 604 492 Q 620 493 621 501 Q 622 514 605 523 Q 569 538 548 528 L 488 514 Q 440 505 401 495 L 353 485 Q 305 478 273 469 L 222 460 Q 204 459 194 457 Q 131 447 78 442 Q 65 441 62 433 Q 58 423 73 411 Q 113 384 153 396 Q 193 409 231 419 L 276 432 Q 316 444 353 451 L 401 461 Q 438 468 482 475 L 532 482 Z" fill="black" /></g></svg>