<?xml version='1.0' encoding='utf-8'?>
<svg xmlns="http://www.w3.org/2000/svg" version="1.1" viewBox="0 0 1024 1024"><g transform="scale(1, -1) translate(0, -900)"><path d="M 288 478 Q 289 505 290 532 L 291 582 Q 292 660 307 711 Q 316 724 313 737 Q 306 746 256 777 Q 235 793 216 779 Q 212 775 217 760 Q 244 720 245 680 Q 245 626 246 566 L 243 419 Q 239 266 229 216 Q 208 152 234 92 Q 240 76 248 73 Q 252 67 260 74 Q 267 78 277 98 Q 286 120 285 148 Q 284 184 288 452 L 288 478 Z" fill="black" /></g></svg>