<?xml version='1.0' encoding='utf-8'?>
<svg xmlns="http://www.w3.org/2000/svg" version="1.1" viewBox="0 0 1024 1024"><g transform="scale(1, -1) translate(0, -900)"><path d="M 493 451 Q 490 455 487 457 Q 474 470 458 470 Q 448 469 449 457 Q 450 450 451 441 L 444 405 Q 443 404 443 401 Q 433 367 409 327 Q 408 327 409 326 L 387 296 Q 332 244 259 218 Q 249 214 256 210 Q 295 200 357 231 Q 381 243 419 279 L 449 315 Q 459 331 467 348 Q 494 403 503 413 C 515 430 514 430 493 451 Z" fill="black" /></g></svg>