<?xml version='1.0' encoding='utf-8'?>
<svg xmlns="http://www.w3.org/2000/svg" version="1.1" viewBox="0 0 1024 1024"><g transform="scale(1, -1) translate(0, -900)"><path d="M 453 374 Q 459 361 471 361 Q 484 364 490 377 Q 500 395 517 478 Q 530 526 561 555 Q 577 570 562 583 Q 546 598 498 619 Q 485 626 423 610 Q 414 610 367 599 L 346 595 Q 306 588 270 579 Q 225 569 193 562 C 164 556 179 522 207 532 Q 206 533 208 533 Q 242 545 302 556 L 334 563 Q 449 588 469 578 Q 479 574 476 543 Q 463 428 454 404 Q 453 404 453 403 C 446 381 446 381 453 374 Z" fill="black" /></g></svg>