<?xml version='1.0' encoding='utf-8'?>
<svg xmlns="http://www.w3.org/2000/svg" version="1.1" viewBox="0 0 1024 1024"><g transform="scale(1, -1) translate(0, -900)"><path d="M 383 427 Q 390 448 405 467 Q 412 473 410 480 Q 406 490 384 507 C 361 526 352 533 356 503 Q 363 482 343 421 L 328 385 Q 304 342 307 332 Q 308 325 322 322 Q 365 310 387 296 L 419 279 Q 450 260 493 228 Q 514 215 527 215 Q 543 216 542 232 Q 541 247 517 280 Q 505 299 449 315 L 409 326 Q 376 336 355 339 Q 340 342 348 356 Q 357 377 365 392 L 383 427 Z" fill="black" /></g></svg>