<?xml version='1.0' encoding='utf-8'?>
<svg xmlns="http://www.w3.org/2000/svg" version="1.1" viewBox="0 0 1024 1024"><g transform="scale(1, -1) translate(0, -900)"><path d="M 312 227 Q 296 77 302 63 Q 308 39 321 20 Q 331 2 340 -2 Q 350 -3 356 9 Q 368 40 365 70 Q 362 158 361 238 L 361 278 Q 361 321 361 360 L 362 394 Q 362 431 364 458 L 367 496 Q 368 511 371 521 Q 372 534 366 539 Q 348 555 334 563 C 309 580 288 583 302 556 Q 303 555 305 551 Q 317 532 318 480 L 319 448 Q 319 420 318 384 L 318 353 Q 317 337 317 317 Q 316 292 314 267 L 312 227 Z" fill="black" /></g></svg>