<?xml version='1.0' encoding='utf-8'?>
<svg xmlns="http://www.w3.org/2000/svg" version="1.1" viewBox="0 0 1024 1024"><g transform="scale(1, -1) translate(0, -900)"><path d="M 457 454 Q 469 438 481 430 Q 490 423 504 441 Q 514 457 542 551 Q 551 579 572 601 Q 584 611 573 624 Q 560 640 522 663 Q 507 670 432 653 L 383 644 Q 352 640 317 631 L 274 623 Q 229 616 193 608 C 164 602 180 568 209 577 Q 239 587 278 595 L 317 603 Q 347 610 383 615 L 428 623 Q 435 624 446 626 Q 479 632 490 620 Q 499 610 497 599 Q 476 493 461 484 C 448 465 448 465 457 454 Z" fill="black" /></g></svg>