<?xml version='1.0' encoding='utf-8'?>
<svg xmlns="http://www.w3.org/2000/svg" version="1.1" viewBox="0 0 1024 1024"><g transform="scale(1, -1) translate(0, -900)"><path d="M 270 221 Q 298 246 364 266 Q 397 275 416 270 Q 437 263 438 230 Q 431 164 398 114 Q 383 95 371 90 Q 361 89 303 107 Q 290 117 287 110 Q 286 104 295 92 Q 320 52 335 18 Q 342 5 354 3 Q 370 2 390 11 Q 453 62 488 208 Q 491 236 502 253 Q 512 265 503 276 Q 488 292 452 307 Q 433 316 411 308 Q 383 298 359 294 Q 346 290 330 287 Q 314 284 322 300 Q 352 352 364 363 Q 377 376 367 390 Q 363 394 356 397 C 336 419 306 417 305 387 Q 311 360 278 309 Q 268 296 243 278 Q 227 263 229 249 Q 230 236 246 221 Q 256 211 270 221 Z" fill="black" /></g></svg>