<?xml version='1.0' encoding='utf-8'?>
<svg xmlns="http://www.w3.org/2000/svg" version="1.1" viewBox="0 0 1024 1024"><g transform="scale(1, -1) translate(0, -900)"><path d="M 725 595 Q 807 634 823 627 Q 833 620 825 600 Q 795 519 779 493 Q 773 481 774 475 Q 774 462 794 450 Q 882 399 891 303 Q 891 279 876 260 Q 863 253 837 260 Q 800 270 767 279 Q 760 280 759 273 Q 760 266 774 254 Q 843 208 857 179 Q 864 166 877 162 Q 889 161 905 172 Q 945 220 950 282 Q 954 369 844 455 Q 799 486 843 530 Q 856 552 870 567 Q 891 598 915 609 Q 943 627 919 645 Q 880 676 857 686 Q 841 692 825 682 Q 806 663 784 655 Q 750 642 711 626 Q 708 625 708 624 C 681 612 698 582 725 595 Z" fill="black" /></g></svg>