<?xml version='1.0' encoding='utf-8'?>
<svg xmlns="http://www.w3.org/2000/svg" version="1.1" viewBox="0 0 1024 1024"><g transform="scale(1, -1) translate(0, -900)"><path d="M 316 223 Q 312 172 298 124 Q 291 94 311 35 Q 317 20 324 17 Q 330 11 336 18 Q 343 22 352 41 Q 361 63 360 90 Q 359 114 359 233 L 359 273 Q 359 310 360 354 L 360 389 Q 360 408 361 430 L 362 467 Q 362 489 362 510 L 363 538 Q 363 575 368 606 L 376 652 Q 383 685 384 687 Q 378 696 329 725 L 328 725 C 302 740 275 742 289 715 Q 289 714 291 709 Q 316 672 319 631 L 320 594 Q 320 564 321 530 L 322 502 Q 322 501 323 498 Q 322 479 322 457 L 321 423 Q 320 402 320 380 L 319 348 Q 319 308 319 264 L 316 223 Z" fill="black" /></g></svg>