<?xml version='1.0' encoding='utf-8'?>
<svg xmlns="http://www.w3.org/2000/svg" version="1.1" viewBox="0 0 1024 1024"><g transform="scale(1, -1) translate(0, -900)"><path d="M 454 453 Q 455 450 458 446 Q 474 415 497 437 Q 515 453 518 472 Q 546 625 575 659 Q 588 675 578 690 Q 562 706 535 726 Q 522 733 506 728 Q 463 716 414 712 Q 396 711 399 703 Q 403 693 416 687 Q 428 684 476 689 Q 494 690 500 686 Q 509 679 503 649 Q 499 627 493 604 L 487 573 Q 466 480 464 476 C 457 449 451 457 454 453 Z" fill="black" /></g></svg>