<?xml version='1.0' encoding='utf-8'?>
<svg xmlns="http://www.w3.org/2000/svg" version="1.1" viewBox="0 0 1024 1024"><g transform="scale(1, -1) translate(0, -900)"><path d="M 327 716 Q 360 707 378 710 Q 490 744 497 733 Q 504 720 500 689 Q 490 601 467 562 Q 452 537 430 542 Q 414 546 401 552 Q 380 561 393 538 Q 421 501 433 474 Q 449 456 465 470 Q 517 504 544 642 Q 550 706 571 731 Q 581 741 576 750 Q 569 760 526 778 Q 510 785 494 774 Q 481 767 430 753 Q 382 740 342 734 C 312 729 298 723 327 716 Z" fill="black" /></g></svg>