<?xml version='1.0' encoding='utf-8'?>
<svg xmlns="http://www.w3.org/2000/svg" version="1.1" viewBox="0 0 1024 1024"><g transform="scale(1, -1) translate(0, -900)"><path d="M 676 576 Q 685 582 775 615 Q 778 616 788 611 Q 798 604 791 583 Q 766 507 751 480 Q 745 470 746 462 Q 746 449 766 438 Q 841 399 860 307 Q 860 262 846 244 Q 834 235 810 240 Q 773 247 742 251 Q 735 252 735 245 Q 736 238 752 227 Q 813 190 832 161 Q 839 148 851 146 Q 861 145 877 156 Q 917 205 922 270 Q 926 313 892 362 Q 862 410 809 448 Q 790 461 789 473 Q 786 488 838 554 Q 857 582 881 595 Q 909 613 883 631 Q 844 661 821 670 Q 805 676 790 667 Q 768 646 671 610 Q 664 609 659 605 C 631 594 649 564 676 576 Z" fill="black" /></g></svg>