<?xml version='1.0' encoding='utf-8'?>
<svg xmlns="http://www.w3.org/2000/svg" version="1.1" viewBox="0 0 1024 1024"><g transform="scale(1, -1) translate(0, -900)"><path d="M 316 345 Q 271 335 203 325 Q 190 324 185 317 Q 181 310 199 303 Q 235 290 283 305 Q 374 333 390 333 Q 409 330 403 311 Q 387 253 360 209 L 334 173 Q 268 104 125 67 Q 112 64 122 55 Q 128 51 171 53 Q 280 62 372 145 L 405 187 Q 433 227 459 281 Q 472 309 492 326 Q 511 339 499 354 Q 487 366 457 379 Q 435 386 408 375 Q 384 366 357 357 L 316 345 Z" fill="black" /></g></svg>