<?xml version='1.0' encoding='utf-8'?>
<svg xmlns="http://www.w3.org/2000/svg" version="1.1" viewBox="0 0 1024 1024"><g transform="scale(1, -1) translate(0, -900)"><path d="M 381 596 Q 347 590 318 580 L 277 567 Q 240 557 211 542 Q 210 543 212 545 Q 233 602 230 611 Q 223 626 209 639 Q 202 646 194 646 Q 187 645 188 630 Q 197 563 155 532 Q 142 522 146 511 Q 153 499 166 491 Q 175 485 182 491 Q 194 503 266 531 L 322 554 Q 373 570 385 568 Q 389 569 394 572 C 422 582 410 602 381 596 Z" fill="black" /></g></svg>