<?xml version='1.0' encoding='utf-8'?>
<svg xmlns="http://www.w3.org/2000/svg" version="1.1" viewBox="0 0 1024 1024"><g transform="scale(1, -1) translate(0, -900)"><path d="M 702 626 Q 715 635 789 661 Q 793 664 805 658 Q 817 651 808 628 Q 780 546 770 529 Q 763 513 764 505 Q 763 492 786 485 Q 906 388 878 299 Q 874 293 868 286 Q 855 276 827 280 Q 785 287 750 292 Q 743 293 743 285 Q 746 278 761 267 Q 840 224 855 198 Q 862 185 875 183 Q 887 182 901 193 Q 943 241 946 299 Q 953 386 831 496 Q 786 520 859 599 Q 878 629 903 641 Q 933 660 906 679 Q 866 710 841 721 Q 822 727 807 716 Q 786 698 692 660 C 664 649 675 613 702 626 Z" fill="black" /></g></svg>