<?xml version='1.0' encoding='utf-8'?>
<svg xmlns="http://www.w3.org/2000/svg" version="1.1" viewBox="0 0 1024 1024"><g transform="scale(1, -1) translate(0, -900)"><path d="M 641 608 Q 650 611 662 617 Q 702 633 736 646 Q 740 649 752 643 Q 762 636 755 615 Q 730 539 715 512 Q 709 502 710 494 Q 710 481 730 470 Q 818 425 842 334 Q 848 297 832 275 Q 819 265 792 270 Q 752 279 718 283 Q 711 284 711 277 Q 714 270 728 260 Q 806 218 821 192 Q 828 179 842 177 Q 852 176 868 188 Q 905 234 907 296 Q 907 381 781 475 Q 736 503 779 554 Q 791 573 802 586 Q 821 614 845 627 Q 873 645 847 663 Q 808 693 785 702 Q 769 708 754 699 Q 724 672 625 638 C 597 628 613 596 641 608 Z" fill="black" /></g></svg>