<?xml version='1.0' encoding='utf-8'?>
<svg xmlns="http://www.w3.org/2000/svg" version="1.1" viewBox="0 0 1024 1024"><g transform="scale(1, -1) translate(0, -900)"><path d="M 667 585 Q 679 589 692 597 Q 764 633 778 627 Q 788 621 783 599 Q 750 497 742 480 Q 735 464 736 456 Q 736 443 758 437 Q 869 365 855 289 Q 852 283 847 277 Q 834 267 806 273 Q 766 282 731 288 Q 722 289 723 281 Q 726 274 741 263 Q 817 220 834 190 Q 843 175 857 174 Q 869 173 885 186 Q 919 231 918 283 Q 915 364 803 448 Q 770 463 789 496 Q 795 517 832 566 Q 848 597 876 615 Q 906 634 877 653 Q 835 683 810 691 Q 792 695 776 685 Q 752 661 662 621 Q 655 620 650 616 C 622 604 640 572 667 585 Z" fill="black" /></g></svg>