<?xml version='1.0' encoding='utf-8'?>
<svg xmlns="http://www.w3.org/2000/svg" version="1.1" viewBox="0 0 1024 1024"><g transform="scale(1, -1) translate(0, -900)"><path d="M 671 594 Q 698 609 771 636 Q 775 636 783 633 Q 793 627 786 607 Q 750 505 739 488 Q 732 473 733 465 Q 733 453 754 446 Q 875 356 849 274 Q 845 268 841 263 Q 828 254 802 259 Q 763 266 730 271 Q 723 272 723 265 Q 724 258 740 248 Q 815 203 828 180 Q 837 167 849 165 Q 859 164 874 176 Q 911 222 913 277 Q 914 361 797 456 Q 757 478 828 568 Q 849 601 876 618 Q 904 637 879 654 Q 839 684 816 693 Q 800 699 784 688 Q 760 667 664 627 Q 660 626 658 624 C 631 612 644 581 671 594 Z" fill="black" /></g></svg>