<?xml version='1.0' encoding='utf-8'?>
<svg xmlns="http://www.w3.org/2000/svg" version="1.1" viewBox="0 0 1024 1024"><g transform="scale(1, -1) translate(0, -900)"><path d="M 515 448 Q 549 455 583 458 Q 593 457 601 468 Q 602 478 582 488 Q 558 506 528 498 Q 527 498 526 496 L 477 485 Q 440 476 403 466 L 366 457 Q 341 453 318 447 L 283 440 Q 255 437 227 432 L 189 428 Q 149 424 108 418 Q 83 414 102 399 Q 132 378 170 385 Q 182 388 198 391 L 232 398 Q 257 405 287 410 L 320 416 Q 342 420 367 425 L 401 430 Q 440 439 471 442 L 515 448 Z" fill="black" /></g></svg>