<?xml version='1.0' encoding='utf-8'?>
<svg xmlns="http://www.w3.org/2000/svg" version="1.1" viewBox="0 0 1024 1024"><g transform="scale(1, -1) translate(0, -900)"><path d="M 701 610 Q 705 614 789 648 Q 795 651 806 645 Q 818 638 810 615 Q 786 531 774 508 Q 768 496 769 489 Q 769 476 790 465 Q 869 426 879 326 Q 879 287 862 263 Q 849 254 822 260 Q 782 269 747 275 Q 738 276 739 269 Q 740 262 756 250 Q 829 204 845 176 Q 852 163 864 160 Q 876 159 891 169 Q 933 226 941 295 Q 945 343 915 392 Q 887 440 835 476 Q 813 488 813 502 Q 810 517 862 588 Q 881 618 904 631 Q 934 650 906 669 Q 866 699 840 709 Q 821 713 807 704 Q 786 685 688 644 Q 687 644 687 643 C 660 631 674 597 701 610 Z" fill="black" /></g></svg>