<?xml version='1.0' encoding='utf-8'?>
<svg xmlns="http://www.w3.org/2000/svg" version="1.1" viewBox="0 0 1024 1024"><g transform="scale(1, -1) translate(0, -900)"><path d="M 679 610 Q 691 614 706 621 Q 782 652 793 647 Q 802 641 795 623 Q 758 542 744 522 Q 737 509 737 500 Q 736 488 758 478 Q 849 415 865 328 Q 859 310 853 291 Q 840 282 816 287 Q 779 294 746 299 Q 739 300 739 293 Q 740 286 756 275 Q 825 233 840 208 Q 847 195 861 193 Q 873 192 887 204 Q 924 252 924 308 Q 924 393 801 488 Q 771 509 795 536 Q 820 569 839 589 Q 858 614 885 627 Q 913 643 889 663 Q 852 694 829 705 Q 813 712 797 702 Q 773 681 679 646 Q 676 645 676 644 C 648 632 651 599 679 610 Z" fill="black" /></g></svg>