<?xml version='1.0' encoding='utf-8'?>
<svg xmlns="http://www.w3.org/2000/svg" version="1.1" viewBox="0 0 1024 1024"><g transform="scale(1, -1) translate(0, -900)"><path d="M 715 595 Q 725 598 737 603 Q 773 616 804 627 Q 810 631 822 624 Q 832 617 824 592 Q 803 526 786 493 Q 780 481 781 474 Q 781 461 802 449 Q 872 413 897 326 Q 901 284 885 262 Q 872 253 848 257 Q 811 264 779 268 Q 770 269 771 261 Q 774 254 789 243 Q 858 198 870 174 Q 879 161 891 159 Q 903 158 918 169 Q 958 215 963 278 Q 967 362 854 455 Q 806 485 845 523 Q 863 550 877 566 Q 896 594 919 605 Q 949 623 922 643 Q 882 674 858 686 Q 840 692 825 682 Q 804 664 710 630 C 682 620 687 585 715 595 Z" fill="black" /></g></svg>