<?xml version='1.0' encoding='utf-8'?>
<svg xmlns="http://www.w3.org/2000/svg" version="1.1" viewBox="0 0 1024 1024"><g transform="scale(1, -1) translate(0, -900)"><path d="M 524 206 Q 528 212 608 214 Q 624 215 631 225 Q 635 232 619 240 Q 571 267 524 247 L 481 234 Q 447 225 415 213 Q 396 204 400 224 Q 409 264 417 279 Q 424 286 420 295 Q 414 302 387 314 Q 374 321 366 316 Q 357 309 365 298 Q 384 261 359 212 Q 341 188 342 179 Q 345 170 358 161 Q 370 155 379 165 Q 415 186 479 198 L 524 206 Z" fill="black" /></g></svg>