<?xml version='1.0' encoding='utf-8'?>
<svg xmlns="http://www.w3.org/2000/svg" version="1.1" viewBox="0 0 1024 1024"><g transform="scale(1, -1) translate(0, -900)"><path d="M 400 536 Q 413 543 426 553 Q 436 559 437 567 Q 433 571 422 569 Q 412 566 400 561 L 363 548 Q 315 532 265 515 L 231 504 Q 209 500 191 492 Q 175 486 148 486 Q 138 485 136 476 Q 135 466 142 459 Q 161 446 189 431 Q 198 430 207 436 Q 247 470 265 470 Q 265 471 265 473 Q 269 477 277 479 Q 317 497 359 516 L 400 536 Z" fill="black" /></g></svg>