<?xml version='1.0' encoding='utf-8'?>
<svg xmlns="http://www.w3.org/2000/svg" version="1.1" viewBox="0 0 1024 1024"><g transform="scale(1, -1) translate(0, -900)"><path d="M 313 232 Q 303 129 298 115 Q 289 78 321 28 Q 331 10 340 6 Q 350 5 356 17 Q 368 48 365 78 Q 364 165 363 244 L 363 284 Q 363 324 364 363 L 365 397 Q 365 433 367 460 L 371 499 Q 374 535 370 539 Q 358 549 348 556 C 324 574 300 576 311 548 Q 320 532 321 504 Q 321 495 321 484 L 322 451 Q 322 423 321 387 L 320 356 Q 319 340 319 322 Q 318 297 316 274 L 313 232 Z" fill="black" /></g></svg>