<?xml version='1.0' encoding='utf-8'?>
<svg xmlns="http://www.w3.org/2000/svg" version="1.1" viewBox="0 0 1024 1024"><g transform="scale(1, -1) translate(0, -900)"><path d="M 658 622 Q 668 626 680 632 Q 759 669 773 664 Q 783 657 776 637 Q 742 538 726 513 Q 720 501 721 494 Q 721 481 742 469 Q 787 444 818 400 Q 846 361 848 326 Q 849 307 836 292 Q 829 286 777 285 Q 705 291 707 281 Q 710 274 726 265 Q 813 226 831 203 Q 840 190 852 189 Q 864 190 877 202 Q 913 248 913 308 Q 916 392 787 480 Q 751 498 795 560 Q 808 584 822 599 Q 843 633 870 648 Q 900 667 873 686 Q 831 717 807 727 Q 788 733 774 722 Q 749 698 652 657 Q 646 656 642 652 C 615 640 631 610 658 622 Z" fill="black" /></g></svg>