<?xml version='1.0' encoding='utf-8'?>
<svg xmlns="http://www.w3.org/2000/svg" version="1.1" viewBox="0 0 1024 1024"><g transform="scale(1, -1) translate(0, -900)"><path d="M 702 617 Q 715 626 789 652 Q 793 656 805 650 Q 815 644 809 621 Q 793 575 780 531 Q 756 465 757 464 Q 757 452 778 446 Q 881 377 867 298 Q 864 294 859 287 Q 847 277 823 280 Q 786 284 754 288 Q 745 289 747 281 Q 750 274 765 264 Q 834 227 850 203 Q 859 190 871 189 Q 881 188 896 200 Q 929 243 929 293 Q 930 371 821 456 Q 784 474 849 577 Q 849 596 883 625 Q 889 632 898 636 Q 926 655 900 673 Q 860 701 837 710 Q 819 716 804 705 Q 783 686 763 677 Q 730 664 694 649 C 666 638 675 604 702 617 Z" fill="black" /></g></svg>