<?xml version='1.0' encoding='utf-8'?>
<svg xmlns="http://www.w3.org/2000/svg" version="1.1" viewBox="0 0 1024 1024"><g transform="scale(1, -1) translate(0, -900)"><path d="M 723 72 Q 710 68 636 94 Q 627 97 627 92 Q 627 88 637 79 Q 680 36 701 5 Q 711 -16 725 -14 Q 744 -15 763 5 Q 829 62 847 203 Q 860 299 864 444 Q 864 478 885 503 Q 897 516 896 524 Q 895 531 875 544 Q 850 562 816 571 Q 798 577 733 555 Q 684 540 607 522 C 578 515 561 501 591 500 Q 628 494 741 516 Q 789 526 795 518 Q 816 482 798 255 Q 783 156 757 106 Q 742 73 723 72 Z" fill="black" /></g></svg>