<?xml version='1.0' encoding='utf-8'?>
<svg xmlns="http://www.w3.org/2000/svg" version="1.1" viewBox="0 0 1024 1024"><g transform="scale(1, -1) translate(0, -900)"><path d="M 401 186 Q 417 159 432 130 Q 442 111 452 108 Q 462 108 471 130 Q 487 173 484 224 Q 474 492 485 524 Q 494 545 482 553 Q 475 563 439 580 Q 424 589 356 566 L 328 559 Q 283 550 274 547 L 239 541 Q 203 537 165 531 C 135 527 145 501 175 505 Q 188 505 237 517 L 271 525 Q 296 532 327 536 L 354 539 Q 364 542 377 542 Q 407 546 415 535 Q 424 523 426 416 L 426 385 Q 426 231 419 217 Q 415 207 402 210 L 401 210 C 390 205 390 205 401 186 Z" fill="black" /></g></svg>