<?xml version='1.0' encoding='utf-8'?>
<svg xmlns="http://www.w3.org/2000/svg" version="1.1" viewBox="0 0 1024 1024"><g transform="scale(1, -1) translate(0, -900)"><path d="M 965 164 Q 952 189 933 268 Q 932 284 925 290 Q 919 294 914 275 Q 886 190 867 164 Q 855 148 818 138 Q 730 119 659 148 Q 631 161 623 180 Q 592 240 624 428 C 628 454 628 454 617 462 Q 604 475 582 483 Q 569 487 561 482 Q 554 478 560 460 Q 573 423 570 385 Q 560 210 575 161 Q 581 136 604 113 Q 691 44 859 74 Q 868 77 878 79 Q 918 92 958 121 Q 979 137 965 164 Z" fill="black" /></g></svg>