<?xml version='1.0' encoding='utf-8'?>
<svg xmlns="http://www.w3.org/2000/svg" version="1.1" viewBox="0 0 1024 1024"><g transform="scale(1, -1) translate(0, -900)"><path d="M 416 156 Q 431 131 444 102 Q 454 83 464 80 Q 474 80 484 102 Q 500 144 497 196 Q 491 460 500 488 Q 509 507 497 517 Q 490 527 455 544 Q 440 553 364 527 L 332 520 Q 319 517 278 509 L 243 502 Q 207 498 167 492 C 137 488 154 460 183 466 Q 192 467 201 469 Q 220 476 242 480 L 276 489 Q 303 496 332 499 L 363 504 Q 375 507 389 507 Q 422 511 431 499 Q 446 484 440 389 L 440 367 Q 434 196 433 191 Q 432 188 430 187 C 424 158 410 167 416 156 Z" fill="black" /></g></svg>