<?xml version='1.0' encoding='utf-8'?>
<svg xmlns="http://www.w3.org/2000/svg" version="1.1" viewBox="0 0 1024 1024"><g transform="scale(1, -1) translate(0, -900)"><path d="M 379 149 Q 380 146 384 141 Q 403 111 417 81 Q 427 62 436 60 Q 446 60 454 81 Q 469 121 467 170 Q 463 273 460 375 L 460 392 Q 460 474 467 494 Q 474 513 464 521 Q 457 531 424 547 Q 408 554 347 534 L 316 526 Q 292 522 269 517 Q 266 517 266 516 L 229 509 Q 196 505 161 500 C 131 496 138 467 167 474 Q 174 475 182 477 Q 203 484 227 489 L 264 497 Q 288 503 315 506 L 344 509 Q 351 512 361 512 Q 392 515 401 504 Q 417 488 412 379 L 412 358 Q 412 184 405 165 C 401 135 363 174 379 149 Z" fill="black" /></g></svg>