<?xml version='1.0' encoding='utf-8'?>
<svg xmlns="http://www.w3.org/2000/svg" version="1.1" viewBox="0 0 1024 1024"><g transform="scale(1, -1) translate(0, -900)"><path d="M 523 365 Q 522 223 533 186 Q 543 149 570 128 Q 630 86 820 93 Q 908 97 944 115 Q 974 130 962 161 Q 944 207 934 286 Q 933 301 925 306 Q 918 310 914 291 Q 899 194 885 176 Q 854 139 718 141 Q 645 144 613 156 Q 585 171 579 189 Q 552 264 570 391 L 576 431 Q 579 456 587 473 Q 599 501 581 518 Q 532 555 518 551 Q 503 545 511 528 Q 530 492 525 440 Q 524 427 524 412 L 523 365 Z" fill="black" /></g></svg>