<?xml version='1.0' encoding='utf-8'?>
<svg xmlns="http://www.w3.org/2000/svg" version="1.1" viewBox="0 0 1024 1024"><g transform="scale(1, -1) translate(0, -900)"><path d="M 381 142 Q 397 115 412 86 Q 422 65 432 64 Q 442 64 451 86 Q 461 114 462 199 Q 452 490 461 516 Q 470 537 458 545 Q 451 555 415 572 Q 397 581 335 558 L 305 550 Q 253 541 250 538 L 214 531 Q 181 527 145 521 C 115 516 126 485 155 494 Q 182 503 214 509 L 248 518 Q 273 525 304 528 L 333 531 Q 340 534 350 534 Q 381 538 391 526 Q 403 516 404 390 L 404 368 Q 408 196 398 173 Q 394 163 381 166 C 371 160 371 160 381 142 Z" fill="black" /></g></svg>