<?xml version='1.0' encoding='utf-8'?>
<svg xmlns="http://www.w3.org/2000/svg" version="1.1" viewBox="0 0 1024 1024"><g transform="scale(1, -1) translate(0, -900)"><path d="M 568 369 Q 567 132 616 78 Q 661 33 772 27 Q 863 26 928 76 Q 947 92 935 118 Q 922 148 904 237 Q 904 253 897 258 Q 891 261 887 244 Q 860 150 842 120 Q 833 105 804 98 Q 738 83 673 115 Q 615 149 610 285 Q 609 331 611 379 L 613 416 Q 614 455 620 495 L 625 539 Q 628 570 633 603 Q 637 622 624 632 Q 617 639 605 646 C 581 665 550 664 559 635 Q 571 623 573 527 L 571 484 Q 570 444 568 408 L 568 369 Z" fill="black" /></g></svg>