<?xml version='1.0' encoding='utf-8'?>
<svg xmlns="http://www.w3.org/2000/svg" version="1.1" viewBox="0 0 1024 1024"><g transform="scale(1, -1) translate(0, -900)"><path d="M 744 118 Q 775 78 799 41 Q 809 22 820 23 Q 838 24 853 60 Q 872 100 868 149 Q 858 260 850 465 Q 849 499 866 521 Q 876 534 866 545 Q 847 566 792 591 Q 773 601 757 591 Q 718 576 670 563 L 634 554 Q 606 550 577 545 Q 573 545 573 544 L 533 538 Q 464 531 428 528 C 398 525 418 490 448 495 Q 464 496 487 502 Q 509 506 531 508 L 570 515 Q 600 521 633 526 L 667 532 Q 754 550 776 532 Q 810 502 792 151 Q 788 133 773 137 C 750 117 741 122 744 118 Z" fill="black" /></g></svg>