<?xml version='1.0' encoding='utf-8'?>
<svg xmlns="http://www.w3.org/2000/svg" version="1.1" viewBox="0 0 1024 1024"><g transform="scale(1, -1) translate(0, -900)"><path d="M 355 175 Q 370 150 382 124 Q 392 106 400 104 Q 409 104 418 124 Q 431 161 430 207 Q 427 493 435 519 Q 442 537 433 544 Q 426 554 395 569 Q 377 579 325 557 L 297 549 Q 281 546 263 541 L 229 533 Q 198 529 162 523 C 132 518 144 491 173 499 Q 179 500 187 502 Q 205 509 228 514 L 261 522 Q 277 526 296 530 L 323 533 Q 330 536 340 536 Q 367 539 375 529 Q 384 520 384 417 L 383 387 Q 377 207 369 198 C 362 169 349 186 355 175 Z" fill="black" /></g></svg>