<?xml version='1.0' encoding='utf-8'?>
<svg xmlns="http://www.w3.org/2000/svg" version="1.1" viewBox="0 0 1024 1024"><g transform="scale(1, -1) translate(0, -900)"><path d="M 472 455 Q 472 542 478 562 Q 487 581 475 589 Q 468 599 435 615 Q 423 621 355 600 L 326 592 Q 278 583 277 581 L 241 574 Q 208 570 171 564 C 141 559 144 534 174 538 Q 184 538 198 541 Q 217 548 242 554 L 276 562 Q 298 569 325 572 L 353 576 Q 362 579 373 579 Q 404 583 413 572 Q 425 560 425 440 L 425 414 Q 424 365 424 314 Q 425 227 417 211 Q 414 207 409 205 C 397 187 395 191 396 189 Q 415 159 429 129 Q 439 110 448 108 Q 458 108 466 129 Q 481 169 479 218 Q 475 330 472 441 L 472 455 Z" fill="black" /></g></svg>