<?xml version='1.0' encoding='utf-8'?>
<svg xmlns="http://www.w3.org/2000/svg" version="1.1" viewBox="0 0 1024 1024"><g transform="scale(1, -1) translate(0, -900)"><path d="M 361 167 Q 371 157 400 98 Q 410 79 420 76 Q 430 76 439 98 Q 452 137 449 283 Q 443 494 452 528 Q 461 547 449 557 Q 442 567 407 584 Q 389 593 337 573 L 307 564 Q 283 560 261 554 L 222 546 Q 189 542 153 535 C 123 530 134 504 163 510 L 220 521 L 257 530 Q 279 536 305 539 L 334 542 Q 340 545 348 545 Q 376 549 383 539 Q 395 527 395 421 L 395 389 Q 395 194 382 179 C 374 150 348 186 361 167 Z" fill="black" /></g></svg>