<?xml version='1.0' encoding='utf-8'?>
<svg xmlns="http://www.w3.org/2000/svg" version="1.1" viewBox="0 0 1024 1024"><g transform="scale(1, -1) translate(0, -900)"><path d="M 597 207 Q 627 265 647 369 L 654 414 Q 660 453 664 490 L 667 535 Q 677 692 693 737 Q 697 747 689 755 Q 673 771 640 784 Q 621 793 604 787 Q 586 780 601 764 Q 626 737 627 709 Q 627 609 620 525 L 616 480 Q 586 246 505 157 Q 474 120 407 72 Q 397 65 393 62 Q 389 55 404 55 Q 468 55 569 164 Q 575 173 583 183 L 597 207 Z" fill="black" /></g></svg>