<?xml version='1.0' encoding='utf-8'?>
<svg xmlns="http://www.w3.org/2000/svg" version="1.1" viewBox="0 0 1024 1024"><g transform="scale(1, -1) translate(0, -900)"><path d="M 355 160 Q 383 124 403 91 Q 410 75 421 76 Q 436 77 450 106 Q 466 140 464 182 Q 457 285 456 477 Q 455 505 469 524 Q 478 536 469 545 Q 453 561 407 583 Q 391 592 377 583 Q 359 576 339 568 L 305 557 Q 280 551 254 544 L 215 537 Q 178 531 154 527 C 124 522 133 491 162 498 Q 205 508 214 510 L 251 517 Q 278 524 304 529 L 335 536 Q 371 551 395 535 Q 408 522 409 407 L 409 386 Q 409 271 399 185 Q 395 169 378 176 C 349 168 349 168 355 160 Z" fill="black" /></g></svg>