<?xml version='1.0' encoding='utf-8'?>
<svg xmlns="http://www.w3.org/2000/svg" version="1.1" viewBox="0 0 1024 1024"><g transform="scale(1, -1) translate(0, -900)"><path d="M 701 119 Q 740 70 747 44 Q 754 13 768 9 Q 781 8 799 40 Q 820 83 823 156 Q 810 310 807 466 L 807 514 Q 807 649 822 704 Q 838 732 784 753 Q 751 771 733 763 Q 717 757 732 735 Q 753 710 755 677 Q 756 661 758 504 L 758 462 Q 759 344 759 161 Q 759 142 748 133 Q 744 130 733 134 Q 732 135 728 135 C 698 134 690 133 701 119 Z" fill="black" /></g></svg>