<?xml version='1.0' encoding='utf-8'?>
<svg xmlns="http://www.w3.org/2000/svg" version="1.1" viewBox="0 0 1024 1024"><g transform="scale(1, -1) translate(0, -900)"><path d="M 361 149 Q 403 77 408 76 Q 418 76 427 97 Q 437 130 439 222 Q 433 483 442 513 Q 451 532 439 541 Q 432 551 400 567 Q 385 574 321 553 L 291 545 Q 270 542 250 537 Q 247 537 247 536 L 211 529 Q 174 525 131 518 C 101 513 114 491 144 494 Q 154 494 170 497 Q 189 504 211 508 L 246 516 Q 265 522 289 524 L 318 528 Q 328 531 339 531 Q 369 535 377 524 Q 393 508 387 413 L 387 382 Q 386 330 386 278 Q 387 196 378 179 Q 375 175 369 173 C 357 156 357 156 361 149 Z" fill="black" /></g></svg>