<?xml version='1.0' encoding='utf-8'?>
<svg xmlns="http://www.w3.org/2000/svg" version="1.1" viewBox="0 0 1024 1024"><g transform="scale(1, -1) translate(0, -900)"><path d="M 354 164 Q 370 139 384 110 Q 394 91 404 88 Q 414 88 423 110 Q 438 149 433 290 Q 427 492 437 524 Q 444 545 434 553 Q 427 563 391 580 Q 370 592 314 568 L 283 559 Q 261 555 240 550 L 206 542 Q 172 538 130 532 C 100 528 109 502 139 506 Q 149 507 161 509 Q 180 516 205 521 L 239 528 Q 258 532 282 536 L 311 540 Q 318 541 329 542 Q 359 545 367 535 Q 382 520 378 398 L 378 367 Q 378 205 368 193 C 361 164 349 172 354 164 Z" fill="black" /></g></svg>