<?xml version='1.0' encoding='utf-8'?>
<svg xmlns="http://www.w3.org/2000/svg" version="1.1" viewBox="0 0 1024 1024"><g transform="scale(1, -1) translate(0, -900)"><path d="M 316 149 L 339 98 Q 348 79 357 76 Q 367 76 374 98 Q 390 140 386 192 Q 382 484 390 514 Q 398 533 386 542 Q 380 553 349 568 Q 323 584 283 559 L 256 549 Q 235 545 216 538 L 182 529 Q 157 526 123 519 C 94 513 106 482 134 492 Q 169 504 180 507 C 209 516 184 503 212 514 Q 212 520 255 525 L 280 529 Q 306 537 320 529 Q 324 527 327 525 Q 341 510 336 394 L 336 368 Q 331 196 329 188 Q 325 180 322 178 C 313 156 313 156 316 149 Z" fill="black" /></g></svg>