<?xml version='1.0' encoding='utf-8'?>
<svg xmlns="http://www.w3.org/2000/svg" version="1.1" viewBox="0 0 1024 1024"><g transform="scale(1, -1) translate(0, -900)"><path d="M 628 488 Q 702 513 835 515 Q 853 514 860 519 Q 866 523 860 536 Q 855 547 822 563 Q 804 572 730 552 Q 717 551 640 529 L 587 514 Q 572 510 518 491 Q 512 488 511 490 Q 502 500 526 571 Q 531 584 533 589 Q 539 602 530 613 Q 514 638 493 647 Q 478 655 470 647 Q 466 643 470 631 Q 481 606 481 574 Q 481 568 480 563 Q 472 514 449 487 Q 439 476 439 470 Q 439 466 441 461 Q 448 443 463 427 Q 475 417 489 429 Q 519 459 576 474 L 628 488 Z" fill="black" /></g></svg>