<?xml version='1.0' encoding='utf-8'?>
<svg xmlns="http://www.w3.org/2000/svg" version="1.1" viewBox="0 0 1024 1024"><g transform="scale(1, -1) translate(0, -900)"><path d="M 354 187 Q 384 150 404 114 Q 411 99 421 100 Q 434 101 448 128 Q 461 155 462 186 L 462 201 Q 441 519 467 555 Q 474 567 467 575 Q 451 591 406 612 Q 394 618 339 596 L 308 586 Q 283 580 258 573 L 223 566 Q 177 559 149 554 C 119 549 133 519 162 526 Q 210 538 221 539 L 256 547 Q 281 554 307 558 L 336 564 Q 375 579 396 564 Q 409 551 411 441 L 411 424 Q 411 298 400 203 Q 396 187 381 195 Q 378 196 375 198 C 345 200 344 200 354 187 Z" fill="black" /></g></svg>