<?xml version='1.0' encoding='utf-8'?>
<svg xmlns="http://www.w3.org/2000/svg" version="1.1" viewBox="0 0 1024 1024"><g transform="scale(1, -1) translate(0, -900)"><path d="M 684 453 Q 724 505 768 569 Q 787 597 822 627 Q 838 637 832 647 Q 831 657 768 681 Q 753 688 703 666 Q 658 654 606 647 C 576 643 562 633 591 624 Q 616 609 686 626 Q 710 632 717 622 Q 721 612 706 588 Q 681 536 644 482 L 621 450 Q 531 345 445 270 Q 441 267 439 264 C 430 256 430 256 440 258 Q 441 258 446 257 Q 456 258 500 283 Q 542 307 589 350 Q 620 380 654 417 L 684 453 Z" fill="black" /></g></svg>