<?xml version='1.0' encoding='utf-8'?>
<svg xmlns="http://www.w3.org/2000/svg" version="1.1" viewBox="0 0 1024 1024"><g transform="scale(1, -1) translate(0, -900)"><path d="M 588 371 Q 610 428 628 488 L 640 529 Q 659 606 670 691 Q 676 731 686 754 Q 695 766 689 780 Q 676 800 647 815 Q 630 828 619 823 Q 610 818 612 809 L 619 782 Q 625 757 623 723 Q 606 589 587 514 L 576 474 Q 531 310 410 147 Q 394 125 408 125 Q 433 125 515 235 L 546 285 L 557 306 Q 565 325 572 337 L 588 371 Z" fill="black" /></g></svg>