<?xml version='1.0' encoding='utf-8'?>
<svg xmlns="http://www.w3.org/2000/svg" version="1.1" viewBox="0 0 1024 1024"><g transform="scale(1, -1) translate(0, -900)"><path d="M 400 145 Q 416 118 429 89 Q 439 70 448 68 Q 458 68 467 89 Q 477 122 479 234 Q 479 498 485 517 Q 492 536 482 544 Q 475 554 443 569 Q 415 581 373 557 L 343 548 Q 318 544 297 537 Q 294 537 294 536 L 258 528 Q 227 522 193 516 C 163 511 169 485 199 490 Q 209 491 222 494 Q 237 500 257 505 L 292 515 Q 314 522 341 526 L 370 531 Q 376 534 384 534 Q 412 538 421 528 Q 430 518 431 414 L 430 383 Q 424 184 418 172 Q 417 168 413 166 C 403 140 397 150 400 145 Z" fill="black" /></g></svg>