<?xml version='1.0' encoding='utf-8'?>
<svg xmlns="http://www.w3.org/2000/svg" version="1.1" viewBox="0 0 1024 1024"><g transform="scale(1, -1) translate(0, -900)"><path d="M 612 532 Q 599 547 577 557 Q 556 567 553 557 Q 547 548 555 538 Q 574 507 568 469 Q 559 412 545 360 L 533 319 Q 511 246 459 197 Q 440 182 443 166 Q 447 150 465 133 Q 481 117 504 135 Q 558 168 720 153 L 782 144 Q 822 138 864 126 Q 882 119 895 125 Q 908 129 903 144 Q 896 163 876 178 Q 864 193 789 196 L 730 199 Q 657 200 549 193 Q 531 192 538 214 Q 559 268 578 328 L 590 365 Q 606 426 622 494 Q 623 500 624 505 C 627 519 627 519 612 532 Z" fill="black" /></g></svg>