<?xml version='1.0' encoding='utf-8'?>
<svg xmlns="http://www.w3.org/2000/svg" version="1.1" viewBox="0 0 1024 1024"><g transform="scale(1, -1) translate(0, -900)"><path d="M 350 126 Q 374 95 391 63 Q 398 47 409 48 Q 424 49 438 78 Q 454 112 453 154 Q 447 256 447 445 Q 446 473 461 494 Q 468 504 460 514 Q 444 532 396 553 Q 378 563 336 540 L 306 530 Q 279 523 251 515 L 216 508 Q 176 501 150 496 C 121 490 126 459 155 465 Q 170 468 191 473 Q 201 476 215 478 L 249 485 Q 274 492 304 498 L 332 504 Q 368 516 386 503 Q 408 481 391 183 Q 390 168 388 158 Q 384 143 370 147 C 345 133 345 133 350 126 Z" fill="black" /></g></svg>