<?xml version='1.0' encoding='utf-8'?>
<svg xmlns="http://www.w3.org/2000/svg" version="1.1" viewBox="0 0 1024 1024"><g transform="scale(1, -1) translate(0, -900)"><path d="M 388 140 Q 413 107 433 76 Q 442 58 453 59 Q 468 60 483 92 Q 499 129 495 173 Q 486 279 479 474 Q 478 502 493 524 Q 502 536 493 546 Q 475 564 426 586 Q 408 595 394 586 Q 375 577 354 569 L 321 559 Q 297 555 276 548 L 239 541 Q 199 535 174 531 C 144 526 148 497 178 501 Q 206 505 237 510 L 272 517 Q 294 523 319 527 L 350 533 Q 396 546 413 534 Q 431 516 431 407 L 432 376 Q 433 300 427 175 Q 423 165 416 163 C 401 137 380 151 388 140 Z" fill="black" /></g></svg>