<?xml version='1.0' encoding='utf-8'?>
<svg xmlns="http://www.w3.org/2000/svg" version="1.1" viewBox="0 0 1024 1024"><g transform="scale(1, -1) translate(0, -900)"><path d="M 747 90 Q 772 59 791 27 Q 798 11 809 12 Q 824 13 837 43 Q 853 77 850 119 Q 826 330 850 361 Q 857 373 849 381 Q 833 399 786 419 Q 770 426 756 418 Q 719 400 592 367 C 563 359 572 333 601 339 Q 605 339 745 373 Q 764 377 775 371 Q 802 344 786 129 Q 785 126 785 121 Q 781 106 770 110 C 744 94 744 94 747 90 Z" fill="black" /></g></svg>