<?xml version='1.0' encoding='utf-8'?>
<svg xmlns="http://www.w3.org/2000/svg" version="1.1" viewBox="0 0 1024 1024"><g transform="scale(1, -1) translate(0, -900)"><path d="M 353 163 Q 375 135 392 106 Q 399 91 409 92 Q 422 93 436 121 Q 452 152 449 192 Q 442 289 439 466 Q 438 493 452 512 Q 459 522 452 531 Q 436 547 390 568 Q 378 574 332 556 L 303 546 Q 278 542 251 534 L 218 528 Q 170 521 146 518 C 116 514 131 486 161 490 Q 176 491 199 496 Q 206 497 216 499 L 248 505 Q 273 512 300 515 L 328 521 Q 334 524 341 524 Q 366 530 380 520 Q 387 514 396 395 L 396 371 Q 393 256 388 195 Q 384 182 372 184 C 350 167 350 167 353 163 Z" fill="black" /></g></svg>