<?xml version='1.0' encoding='utf-8'?>
<svg xmlns="http://www.w3.org/2000/svg" version="1.1" viewBox="0 0 1024 1024"><g transform="scale(1, -1) translate(0, -900)"><path d="M 386 179 Q 408 152 424 126 Q 431 111 441 112 Q 454 113 468 141 Q 483 174 479 213 Q 470 309 464 486 Q 463 513 476 532 Q 483 544 475 552 Q 459 568 413 587 Q 398 594 355 573 L 322 562 Q 297 555 270 547 L 235 539 Q 189 530 164 526 C 134 521 143 494 173 499 Q 189 500 211 507 Q 221 510 235 512 L 269 519 Q 294 526 321 532 L 350 539 Q 356 542 363 543 Q 391 549 405 539 Q 436 512 418 215 Q 414 199 399 206 C 373 196 373 196 386 179 Z" fill="black" /></g></svg>