<?xml version='1.0' encoding='utf-8'?>
<svg xmlns="http://www.w3.org/2000/svg" version="1.1" viewBox="0 0 1024 1024"><g transform="scale(1, -1) translate(0, -900)"><path d="M 880 503 Q 862 542 851 612 Q 850 624 844 628 Q 837 634 834 621 Q 807 530 785 517 Q 761 495 666 497 Q 609 503 596 531 Q 592 541 591 603 L 593 627 Q 597 715 608 743 Q 614 761 588 779 Q 567 792 549 802 Q 533 812 519 802 Q 509 796 528 774 Q 552 743 555 611 Q 543 536 568 493 Q 593 441 754 448 Q 815 452 862 473 Q 890 480 880 503 Z" fill="black" /></g></svg>