<?xml version='1.0' encoding='utf-8'?>
<svg xmlns="http://www.w3.org/2000/svg" version="1.1" viewBox="0 0 1024 1024"><g transform="scale(1, -1) translate(0, -900)"><path d="M 312 172 Q 337 139 355 107 Q 362 91 373 92 Q 388 93 402 122 Q 414 152 416 225 Q 400 486 425 520 Q 432 532 425 541 Q 409 557 363 579 Q 347 588 301 567 L 268 556 Q 247 552 224 545 L 188 538 Q 142 531 116 526 C 86 521 91 495 121 498 Q 137 498 163 505 Q 175 508 187 510 L 223 517 Q 242 523 266 527 L 298 533 Q 302 536 310 536 Q 337 542 351 532 Q 363 520 364 403 L 364 373 Q 361 264 352 202 Q 348 184 331 193 Q 330 194 328 195 C 298 196 294 196 312 172 Z" fill="black" /></g></svg>