<?xml version='1.0' encoding='utf-8'?>
<svg xmlns="http://www.w3.org/2000/svg" version="1.1" viewBox="0 0 1024 1024"><g transform="scale(1, -1) translate(0, -900)"><path d="M 643 172 Q 582 97 463 59 Q 450 55 462 47 Q 468 43 506 45 Q 596 54 672 136 L 702 176 Q 735 231 765 315 Q 777 340 795 358 Q 813 373 801 385 Q 789 395 760 407 Q 738 414 713 401 Q 691 392 662 384 Q 643 380 615 374 C 586 368 566 348 596 346 Q 621 342 654 350 Q 688 365 696 365 Q 718 359 710 335 Q 694 260 665 207 L 643 172 Z" fill="black" /></g></svg>