<?xml version='1.0' encoding='utf-8'?>
<svg xmlns="http://www.w3.org/2000/svg" version="1.1" viewBox="0 0 1024 1024"><g transform="scale(1, -1) translate(0, -900)"><path d="M 546 634 Q 527 650 509 658 Q 491 665 482 659 Q 472 652 481 638 Q 538 530 502 144 Q 499 95 460 47 Q 448 32 456 10 Q 466 -17 478 -28 Q 491 -35 503 -19 Q 521 9 676 122 Q 695 134 700 142 Q 704 152 694 152 Q 687 152 565 97 Q 549 90 548 105 Q 555 250 556 373 L 557 411 Q 556 453 555 491 L 554 511 Q 554 562 561 605 C 563 621 563 621 546 634 Z" fill="black" /></g></svg>