<?xml version='1.0' encoding='utf-8'?>
<svg xmlns="http://www.w3.org/2000/svg" version="1.1" viewBox="0 0 1024 1024"><g transform="scale(1, -1) translate(0, -900)"><path d="M 776 652 Q 682 642 583 621 Q 573 618 569 621 Q 568 625 573 634 Q 670 772 691 795 Q 703 804 697 816 Q 690 828 645 849 Q 629 856 620 852 Q 608 846 614 827 Q 633 764 532 647 Q 513 628 485 608 Q 472 598 476 587 Q 480 571 505 552 Q 515 542 528 552 Q 573 586 779 627 Q 786 628 792 631 C 821 639 806 655 776 652 Z" fill="black" /></g></svg>