<?xml version='1.0' encoding='utf-8'?>
<svg xmlns="http://www.w3.org/2000/svg" version="1.1" viewBox="0 0 1024 1024"><g transform="scale(1, -1) translate(0, -900)"><path d="M 342 198 Q 361 171 376 146 Q 383 131 393 132 Q 406 133 420 160 Q 436 193 434 232 Q 428 317 426 474 Q 425 499 439 518 Q 446 528 439 537 Q 423 553 380 573 Q 367 579 324 561 L 295 551 Q 271 545 248 538 L 214 531 Q 171 524 148 520 C 118 515 132 490 162 495 Q 175 496 198 502 Q 204 503 213 505 L 246 512 Q 268 519 293 523 L 320 529 Q 324 532 332 532 Q 357 536 369 528 Q 381 519 382 407 L 381 383 Q 381 347 373 235 Q 369 222 358 225 Q 352 229 344 235 Q 340 236 333 238 Q 333 239 332 239 L 330 239 Q 323 243 319 240 Q 318 240 318 238 C 314 238 325 223 342 198 Z" fill="black" /></g></svg>