<?xml version='1.0' encoding='utf-8'?>
<svg xmlns="http://www.w3.org/2000/svg" version="1.1" viewBox="0 0 1024 1024"><g transform="scale(1, -1) translate(0, -900)"><path d="M 358 190 Q 382 159 400 130 Q 407 115 417 116 Q 430 117 444 145 Q 459 176 456 217 Q 449 317 443 506 Q 442 533 456 552 Q 463 562 455 572 Q 439 588 394 608 Q 379 614 332 593 L 301 583 Q 276 579 254 571 L 219 564 Q 173 557 148 553 C 118 548 127 524 157 526 Q 175 525 207 533 Q 211 534 219 535 L 251 542 Q 273 548 300 553 L 330 559 Q 366 574 385 559 Q 395 550 400 472 Q 400 460 401 447 L 402 419 Q 402 359 395 219 Q 392 210 388 208 C 378 180 342 212 358 190 Z" fill="black" /></g></svg>