<?xml version='1.0' encoding='utf-8'?>
<svg xmlns="http://www.w3.org/2000/svg" version="1.1" viewBox="0 0 1024 1024"><g transform="scale(1, -1) translate(0, -900)"><path d="M 694 198 Q 709 170 724 162 Q 734 155 749 173 Q 762 192 797 302 Q 806 330 828 351 Q 841 361 831 375 Q 818 391 781 417 Q 763 426 749 422 Q 724 415 687 408 Q 669 407 651 401 L 602 392 Q 592 391 582 389 Q 540 380 506 374 C 476 369 481 339 511 344 Q 515 344 522 345 Q 553 355 600 363 L 646 372 Q 727 390 745 378 Q 755 368 751 352 Q 721 232 708 221 C 694 198 694 198 694 198 Z" fill="black" /></g></svg>