<?xml version='1.0' encoding='utf-8'?>
<svg xmlns="http://www.w3.org/2000/svg" version="1.1" viewBox="0 0 1024 1024"><g transform="scale(1, -1) translate(0, -900)"><path d="M 592 185 Q 593 59 626 29 Q 699 -25 851 7 Q 852 8 856 8 Q 890 17 925 40 Q 943 53 930 77 Q 918 96 900 160 Q 899 173 893 178 Q 887 181 884 165 Q 862 95 847 74 Q 837 62 806 54 Q 737 36 678 58 Q 656 68 650 82 Q 632 121 631 190 L 631 227 Q 632 255 636 283 L 640 320 Q 641 345 646 372 L 651 401 Q 652 411 655 423 Q 659 439 649 449 Q 636 462 615 471 Q 602 475 595 470 Q 588 466 593 449 Q 602 421 602 392 L 600 363 Q 599 333 597 305 L 595 275 Q 594 244 593 217 L 592 185 Z" fill="black" /></g></svg>