<?xml version='1.0' encoding='utf-8'?>
<svg xmlns="http://www.w3.org/2000/svg" version="1.1" viewBox="0 0 1024 1024"><g transform="scale(1, -1) translate(0, -900)"><path d="M 296 548 Q 302 588 315 631 Q 319 643 313 650 Q 309 654 300 656 C 272 667 236 673 254 649 Q 255 648 257 645 Q 270 630 268 593 Q 267 568 264 537 L 262 511 Q 259 486 258 458 Q 251 379 284 353 Q 287 347 308 345 Q 333 344 343 354 Q 352 361 347 368 Q 341 375 313 381 Q 309 382 307 386 Q 292 396 291 428 Q 287 468 292 517 L 296 548 Z" fill="black" /></g></svg>