<?xml version='1.0' encoding='utf-8'?>
<svg xmlns="http://www.w3.org/2000/svg" version="1.1" viewBox="0 0 1024 1024"><g transform="scale(1, -1) translate(0, -900)"><path d="M 316 141 Q 338 110 356 82 Q 363 67 373 68 Q 386 69 400 97 Q 415 127 410 214 Q 394 478 415 506 Q 422 516 415 525 Q 399 541 356 561 Q 341 568 296 548 L 264 537 Q 242 531 219 525 L 184 518 Q 139 511 113 505 C 84 499 93 471 122 479 Q 165 491 185 493 L 218 500 Q 239 506 262 511 L 292 517 Q 328 529 345 516 Q 367 494 358 256 Q 358 174 346 161 C 336 133 301 162 316 141 Z" fill="black" /></g></svg>