<?xml version='1.0' encoding='utf-8'?>
<svg xmlns="http://www.w3.org/2000/svg" version="1.1" viewBox="0 0 1024 1024"><g transform="scale(1, -1) translate(0, -900)"><path d="M 463 226 Q 442 517 469 552 Q 476 564 469 573 Q 453 589 406 611 Q 394 617 343 596 L 310 584 Q 288 580 265 572 L 228 564 Q 179 555 151 550 C 121 545 131 519 161 523 Q 177 524 203 531 Q 213 534 228 536 L 263 544 Q 285 551 309 556 L 338 563 Q 344 566 353 567 Q 381 573 395 563 Q 419 539 401 233 Q 400 224 399 217 Q 395 202 379 207 C 354 196 354 196 359 189 Q 384 155 403 123 Q 410 107 421 108 Q 436 109 450 138 Q 466 172 464 213 L 463 226 Z" fill="black" /></g></svg>