<?xml version='1.0' encoding='utf-8'?>
<svg xmlns="http://www.w3.org/2000/svg" version="1.1" viewBox="0 0 1024 1024"><g transform="scale(1, -1) translate(0, -900)"><path d="M 578 348 Q 638 360 700 374 Q 721 378 726 368 Q 739 335 744 110 Q 744 62 735 46 Q 731 40 711 44 Q 686 50 659 55 Q 640 61 640 51 Q 695 5 728 -31 Q 741 -50 757 -55 Q 766 -59 774 -49 Q 813 2 812 55 Q 779 313 803 357 Q 816 376 803 387 Q 781 406 745 421 Q 726 428 710 420 Q 656 393 572 378 C 543 372 549 342 578 348 Z" fill="black" /></g></svg>