<?xml version='1.0' encoding='utf-8'?>
<svg xmlns="http://www.w3.org/2000/svg" version="1.1" viewBox="0 0 1024 1024"><g transform="scale(1, -1) translate(0, -900)"><path d="M 372 121 Q 390 93 404 62 Q 414 43 424 40 Q 434 40 444 62 Q 454 92 456 194 Q 450 470 460 500 Q 469 519 457 529 Q 450 539 415 556 Q 400 565 335 543 L 303 535 Q 281 531 261 526 Q 251 525 245 522 L 209 516 Q 170 512 126 507 C 96 504 117 479 147 481 Q 160 480 181 484 Q 194 488 208 491 L 243 500 Q 268 507 302 512 L 333 516 Q 342 519 353 519 Q 383 522 391 511 Q 401 499 402 369 L 402 358 Q 401 306 401 253 Q 401 165 392 149 Q 388 143 381 142 C 368 127 368 127 372 121 Z" fill="black" /></g></svg>