<?xml version='1.0' encoding='utf-8'?>
<svg xmlns="http://www.w3.org/2000/svg" version="1.1" viewBox="0 0 1024 1024"><g transform="scale(1, -1) translate(0, -900)"><path d="M 737 659 Q 750 662 802 684 Q 820 693 827 683 Q 842 643 843 360 Q 840 128 826 108 Q 822 102 800 107 Q 772 113 744 119 Q 723 125 724 115 Q 784 64 818 27 Q 831 8 848 2 Q 858 -2 867 9 Q 909 63 907 118 Q 897 295 895 583 Q 892 644 906 670 Q 918 691 905 701 Q 883 720 844 734 Q 825 741 809 733 Q 784 715 767 708 Q 752 701 726 693 C 698 683 709 649 737 659 Z" fill="black" /></g></svg>