<?xml version='1.0' encoding='utf-8'?>
<svg xmlns="http://www.w3.org/2000/svg" version="1.1" viewBox="0 0 1024 1024"><g transform="scale(1, -1) translate(0, -900)"><path d="M 334 162 Q 350 135 364 106 Q 374 87 384 84 Q 394 84 404 106 Q 420 148 417 200 Q 411 470 419 499 Q 428 520 416 528 Q 409 538 374 555 Q 359 561 311 546 L 278 535 Q 256 531 235 524 L 197 515 Q 163 509 123 502 C 93 497 105 465 134 474 Q 141 475 149 478 Q 171 487 195 493 L 233 502 Q 254 508 277 511 L 308 516 Q 311 517 314 517 Q 342 521 351 511 Q 360 501 361 374 L 360 341 Q 360 200 346 186 C 336 158 332 166 334 162 Z" fill="black" /></g></svg>