<?xml version='1.0' encoding='utf-8'?>
<svg xmlns="http://www.w3.org/2000/svg" version="1.1" viewBox="0 0 1024 1024"><g transform="scale(1, -1) translate(0, -900)"><path d="M 771 514 Q 772 511 774 506 Q 780 491 792 493 Q 805 496 811 510 Q 824 529 844 627 Q 859 678 893 707 Q 911 723 894 738 Q 876 754 828 778 Q 816 785 749 771 Q 689 765 638 753 Q 571 740 535 744 Q 523 747 521 743 C 491 742 553 706 583 709 Q 590 708 598 710 Q 650 725 767 737 Q 786 738 795 734 Q 805 728 801 694 Q 783 571 771 532 C 768 520 768 520 771 514 Z" fill="black" /></g></svg>