<?xml version='1.0' encoding='utf-8'?>
<svg xmlns="http://www.w3.org/2000/svg" version="1.1" viewBox="0 0 1024 1024"><g transform="scale(1, -1) translate(0, -900)"><path d="M 533 319 Q 534 344 539 354 Q 543 373 531 384 Q 509 409 491 413 Q 478 416 473 411 Q 463 405 473 392 Q 489 358 488 327 Q 487 221 478 186 Q 471 158 458 143 Q 445 124 451 103 Q 460 72 475 59 Q 485 52 498 68 Q 526 99 618 175 Q 636 187 638 194 Q 639 207 620 198 Q 536 164 528 168 Q 516 177 529 286 L 533 319 Z" fill="black" /></g></svg>