<?xml version='1.0' encoding='utf-8'?>
<svg xmlns="http://www.w3.org/2000/svg" version="1.1" viewBox="0 0 1024 1024"><g transform="scale(1, -1) translate(0, -900)"><path d="M 339 186 Q 363 155 380 126 Q 387 111 397 112 Q 410 113 424 141 Q 439 171 434 254 Q 418 501 439 532 Q 446 542 439 551 Q 423 567 377 587 Q 365 593 322 574 L 290 563 Q 269 557 248 550 L 213 542 Q 168 535 146 530 C 117 524 126 498 155 503 Q 156 503 213 514 L 246 521 Q 267 527 288 531 L 318 539 Q 354 548 369 539 Q 396 518 376 215 Q 372 205 364 204 C 346 180 333 194 339 186 Z" fill="black" /></g></svg>