<?xml version='1.0' encoding='utf-8'?>
<svg xmlns="http://www.w3.org/2000/svg" version="1.1" viewBox="0 0 1024 1024"><g transform="scale(1, -1) translate(0, -900)"><path d="M 434 123 Q 438 142 437 165 Q 415 475 440 509 Q 447 521 439 529 Q 423 547 376 567 Q 360 574 346 566 Q 334 562 322 556 L 293 546 Q 268 540 243 533 L 208 526 Q 156 519 132 514 C 102 509 111 483 141 485 Q 162 485 206 494 L 240 500 Q 264 506 291 511 L 318 517 Q 351 529 368 515 Q 383 503 384 377 L 384 348 Q 384 194 376 167 Q 372 155 363 156 C 343 134 337 141 340 137 Q 362 106 380 78 Q 387 63 397 64 Q 410 65 424 93 L 430 107 L 434 123 Z" fill="black" /></g></svg>