<?xml version='1.0' encoding='utf-8'?>
<svg xmlns="http://www.w3.org/2000/svg" version="1.1" viewBox="0 0 1024 1024"><g transform="scale(1, -1) translate(0, -900)"><path d="M 627 310 Q 614 139 627 92 Q 631 70 650 52 Q 719 -5 875 18 Q 879 21 886 21 Q 922 31 957 55 Q 975 68 962 93 Q 949 117 932 191 Q 931 206 925 210 Q 919 213 916 197 Q 894 116 879 91 Q 851 60 761 65 Q 727 68 699 80 Q 674 92 668 107 Q 644 159 676 351 Q 682 378 640 394 Q 630 398 622 394 Q 616 391 620 375 Q 630 341 627 310 Z" fill="black" /></g></svg>