<?xml version='1.0' encoding='utf-8'?>
<svg xmlns="http://www.w3.org/2000/svg" version="1.1" viewBox="0 0 1024 1024"><g transform="scale(1, -1) translate(0, -900)"><path d="M 520 169 Q 533 176 538 192 Q 544 220 514 265 Q 487 314 546 400 Q 562 416 546 427 Q 528 439 500 448 Q 485 457 450 428 Q 399 404 396 402 Q 395 402 394 401 C 382 395 382 395 394 391 Q 421 379 462 399 Q 471 402 478 392 Q 499 376 482 349 Q 445 304 492 238 Q 507 208 507 197 Q 508 184 506 175 Q 505 175 505 174 C 501 154 501 154 520 169 Z" fill="black" /></g></svg>