<?xml version='1.0' encoding='utf-8'?>
<svg xmlns="http://www.w3.org/2000/svg" version="1.1" viewBox="0 0 1024 1024"><g transform="scale(1, -1) translate(0, -900)"><path d="M 329 159 Q 353 129 369 101 Q 376 88 385 88 Q 398 89 411 115 Q 424 148 420 228 Q 404 493 425 522 Q 432 534 425 542 Q 409 558 365 577 Q 353 583 312 565 L 282 555 Q 255 548 227 541 L 195 536 Q 153 530 127 526 C 97 522 107 494 137 498 Q 164 501 194 506 L 225 513 Q 253 520 281 525 L 308 530 Q 312 533 319 533 Q 344 537 358 528 Q 373 516 374 395 L 374 376 Q 374 259 365 185 Q 361 172 348 176 C 326 163 326 163 329 159 Z" fill="black" /></g></svg>