<?xml version='1.0' encoding='utf-8'?>
<svg xmlns="http://www.w3.org/2000/svg" version="1.1" viewBox="0 0 1024 1024"><g transform="scale(1, -1) translate(0, -900)"><path d="M 855 151 Q 865 185 872 218 Q 884 263 914 295 Q 933 317 906 334 Q 881 352 854 366 Q 842 375 778 356 Q 730 350 615 327 Q 576 320 548 315 C 518 310 526 276 555 282 Q 562 283 571 285 Q 590 291 609 294 L 631 299 Q 652 306 717 312 L 764 318 Q 783 322 808 323 Q 818 324 823 318 Q 839 297 799 143 C 792 114 847 122 855 151 Z" fill="black" /></g></svg>