<?xml version='1.0' encoding='utf-8'?>
<svg xmlns="http://www.w3.org/2000/svg" version="1.1" viewBox="0 0 1024 1024"><g transform="scale(1, -1) translate(0, -900)"><path d="M 721 417 Q 722 414 723 410 Q 727 397 739 397 Q 752 398 759 411 Q 772 429 798 517 Q 814 563 847 589 Q 863 602 850 617 Q 834 633 790 657 Q 777 666 722 652 Q 616 637 547 616 L 523 611 Q 510 610 498 607 C 469 601 481 577 511 579 Q 520 578 528 580 Q 555 590 602 599 L 635 606 Q 740 630 761 621 Q 771 614 764 583 Q 737 465 726 441 Q 725 441 725 440 C 718 423 718 423 721 417 Z" fill="black" /></g></svg>