<?xml version='1.0' encoding='utf-8'?>
<svg xmlns="http://www.w3.org/2000/svg" version="1.1" viewBox="0 0 1024 1024"><g transform="scale(1, -1) translate(0, -900)"><path d="M 315 157 Q 342 123 360 90 Q 367 75 377 76 Q 390 77 404 104 Q 420 137 418 176 Q 412 278 410 466 Q 409 491 423 510 Q 432 520 424 529 Q 408 545 365 566 Q 349 573 337 566 Q 318 559 298 551 L 268 542 Q 246 538 225 532 L 188 526 Q 145 520 119 517 C 89 513 104 485 134 490 Q 146 491 166 496 Q 176 499 186 500 L 222 507 Q 244 511 266 515 L 296 521 Q 332 536 353 520 Q 366 508 367 388 L 367 378 Q 364 303 357 179 Q 353 163 337 171 C 310 163 310 163 315 157 Z" fill="black" /></g></svg>