<?xml version='1.0' encoding='utf-8'?>
<svg xmlns="http://www.w3.org/2000/svg" version="1.1" viewBox="0 0 1024 1024"><g transform="scale(1, -1) translate(0, -900)"><path d="M 356 187 Q 372 162 385 133 Q 395 114 404 112 Q 414 112 423 133 Q 438 173 436 222 Q 427 492 438 529 Q 447 548 436 557 Q 429 567 396 583 Q 374 593 322 571 L 293 564 Q 242 555 240 552 L 208 547 Q 178 544 146 540 C 116 536 127 506 156 513 Q 180 519 206 525 L 238 532 Q 260 538 291 542 L 319 545 Q 326 548 336 548 Q 364 549 373 540 Q 388 522 382 433 L 382 414 Q 381 360 381 308 Q 382 230 374 215 Q 371 211 367 209 C 355 188 355 188 356 187 Z" fill="black" /></g></svg>