<?xml version='1.0' encoding='utf-8'?>
<svg xmlns="http://www.w3.org/2000/svg" version="1.1" viewBox="0 0 1024 1024"><g transform="scale(1, -1) translate(0, -900)"><path d="M 478 376 Q 471 385 452 393 Q 442 400 436 396 Q 429 390 436 380 Q 449 358 440 324 Q 430 278 412 261 Q 402 251 405 241 Q 411 231 418 225 Q 425 218 440 230 Q 468 260 510 259 Q 526 260 532 252 Q 539 240 535 210 Q 529 156 515 120 Q 503 92 493 82 Q 486 75 469 82 Q 447 92 429 100 Q 417 107 418 98 Q 418 88 428 77 Q 452 47 464 20 Q 477 1 495 10 Q 544 43 554 89 Q 587 230 590 233 Q 590 236 593 238 Q 602 251 594 260 Q 584 273 561 286 Q 543 295 532 290 Q 523 287 478 276 Q 472 275 470 277 Q 467 278 469 287 Q 484 350 484 351 C 488 368 488 368 478 376 Z" fill="black" /></g></svg>