<?xml version='1.0' encoding='utf-8'?>
<svg xmlns="http://www.w3.org/2000/svg" version="1.1" viewBox="0 0 1024 1024"><g transform="scale(1, -1) translate(0, -900)"><path d="M 638 -4 Q 666 -41 686 -76 Q 693 -92 705 -93 Q 720 -92 736 -60 Q 752 -24 751 20 Q 745 81 741 193 Q 740 224 757 244 Q 766 257 757 266 Q 739 285 689 310 Q 673 319 657 311 Q 621 298 576 287 L 539 279 Q 488 273 472 269 L 433 265 Q 372 259 339 259 C 309 258 320 226 350 227 Q 368 226 399 232 Q 414 235 430 236 L 467 242 Q 503 249 539 253 L 572 258 Q 651 274 676 254 Q 692 242 686 80 Q 686 37 682 24 Q 678 8 667 12 C 644 -8 634 2 638 -4 Z" fill="black" /></g></svg>