<?xml version='1.0' encoding='utf-8'?>
<svg xmlns="http://www.w3.org/2000/svg" version="1.1" viewBox="0 0 1024 1024"><g transform="scale(1, -1) translate(0, -900)"><path d="M 401 573 Q 400 542 392 512 Q 383 485 402 443 Q 406 431 412 429 Q 416 425 421 430 Q 425 433 433 447 Q 436 456 440 557 Q 440 758 453 801 Q 459 811 457 820 Q 453 827 414 850 Q 398 862 384 851 Q 380 847 385 837 Q 401 815 401 792 Q 402 758 403 720 Q 403 713 402 704 L 402 676 Q 402 640 402 601 L 401 573 Z" fill="black" /></g></svg>