<?xml version='1.0' encoding='utf-8'?>
<svg xmlns="http://www.w3.org/2000/svg" version="1.1" viewBox="0 0 1024 1024"><g transform="scale(1, -1) translate(0, -900)"><path d="M 769 144 Q 788 175 808 216 Q 818 240 835 254 Q 851 267 841 278 Q 831 288 804 299 Q 785 306 762 295 Q 741 285 714 277 Q 686 268 638 262 Q 628 261 623 255 Q 620 249 635 244 Q 665 232 706 244 Q 740 259 747 260 Q 765 257 760 238 Q 748 195 730 161 L 709 132 Q 663 83 576 58 Q 564 54 574 47 Q 578 44 608 46 Q 680 52 742 109 L 769 144 Z" fill="black" /></g></svg>