<?xml version='1.0' encoding='utf-8'?>
<svg xmlns="http://www.w3.org/2000/svg" version="1.1" viewBox="0 0 1024 1024"><g transform="scale(1, -1) translate(0, -900)"><path d="M 685 465 Q 694 465 716 478 Q 729 485 734 483 Q 738 482 739 471 Q 730 374 735 357 Q 741 341 757 330 Q 781 318 826 322 Q 869 326 891 340 Q 901 344 894 355 Q 882 368 868 374 Q 859 378 843 369 Q 822 357 794 355 Q 776 354 770 367 Q 761 382 770 424 Q 773 449 798 476 Q 811 488 798 498 Q 780 511 761 520 Q 758 521 702 498 Q 684 495 667 489 C 638 480 656 457 685 465 Z" fill="black" /></g></svg>