<?xml version='1.0' encoding='utf-8'?>
<svg xmlns="http://www.w3.org/2000/svg" version="1.1" viewBox="0 0 1024 1024"><g transform="scale(1, -1) translate(0, -900)"><path d="M 353 171 Q 368 147 381 121 Q 391 102 400 100 Q 410 100 418 121 Q 433 161 430 210 Q 420 474 430 506 Q 439 525 427 533 Q 420 543 387 559 Q 369 568 322 549 L 291 540 Q 243 533 238 527 L 205 521 Q 166 517 124 510 C 94 505 118 479 147 486 L 204 499 L 235 506 Q 260 513 289 517 L 318 521 Q 322 522 329 523 Q 357 526 365 516 Q 380 501 375 408 L 375 376 Q 375 214 369 203 Q 365 196 357 196 C 345 184 345 184 353 171 Z" fill="black" /></g></svg>