<?xml version='1.0' encoding='utf-8'?>
<svg xmlns="http://www.w3.org/2000/svg" version="1.1" viewBox="0 0 1024 1024"><g transform="scale(1, -1) translate(0, -900)"><path d="M 283 799 Q 274 806 258 813 Q 242 822 236 816 Q 230 810 236 799 Q 267 742 245 513 Q 244 485 227 458 Q 220 446 227 431 Q 233 415 241 409 Q 248 405 261 413 Q 321 455 497 461 Q 513 461 514 469 Q 513 479 494 491 Q 484 500 385 482 Q 358 482 299 468 Q 292 467 289 469 Q 285 470 285 479 Q 289 588 291 727 Q 291 754 295 776 C 297 791 297 791 283 799 Z" fill="black" /></g></svg>