<?xml version='1.0' encoding='utf-8'?>
<svg xmlns="http://www.w3.org/2000/svg" version="1.1" viewBox="0 0 1024 1024"><g transform="scale(1, -1) translate(0, -900)"><path d="M 351 159 Q 352 159 353 157 Q 371 129 385 97 Q 395 78 404 76 Q 414 76 423 97 Q 433 130 435 220 Q 429 470 438 501 Q 445 520 435 529 Q 428 539 395 554 Q 380 563 312 539 L 284 532 Q 260 528 239 523 Q 233 522 228 520 L 195 514 Q 159 510 123 503 C 93 498 106 471 135 478 Q 142 479 150 481 Q 172 488 196 495 L 227 502 Q 252 509 283 513 L 310 517 Q 320 520 332 520 Q 363 524 373 512 Q 385 497 382 275 Q 382 199 374 181 C 368 152 337 180 351 159 Z" fill="black" /></g></svg>