<?xml version='1.0' encoding='utf-8'?>
<svg xmlns="http://www.w3.org/2000/svg" version="1.1" viewBox="0 0 1024 1024"><g transform="scale(1, -1) translate(0, -900)"><path d="M 762 473 Q 775 454 789 446 Q 798 439 813 457 Q 828 479 859 603 Q 869 631 891 654 Q 904 664 894 678 Q 881 694 841 720 Q 823 730 808 724 Q 777 717 731 712 Q 730 712 729 711 L 686 706 Q 649 703 606 696 L 563 690 Q 517 684 480 681 Q 477 681 476 679 C 446 674 471 647 501 650 Q 508 650 516 651 Q 538 657 569 661 L 606 667 Q 640 674 685 678 L 726 682 Q 792 689 804 677 Q 814 662 812 648 Q 788 533 778 515 Q 774 503 761 502 C 746 493 746 493 762 473 Z" fill="black" /></g></svg>