<?xml version='1.0' encoding='utf-8'?>
<svg xmlns="http://www.w3.org/2000/svg" version="1.1" viewBox="0 0 1024 1024"><g transform="scale(1, -1) translate(0, -900)"><path d="M 814 512 Q 805 524 787 561 Q 786 571 780 573 Q 776 574 775 564 Q 763 519 755 505 Q 749 498 732 493 Q 695 484 663 493 Q 651 497 648 504 Q 645 511 644 535 L 647 569 Q 647 576 650 585 Q 653 598 644 605 Q 634 615 618 621 Q 608 624 602 620 Q 598 617 601 604 Q 610 582 610 558 L 609 527 Q 609 482 627 468 Q 669 440 768 461 Q 768 462 771 462 Q 793 469 814 484 Q 824 497 814 512 Z" fill="black" /></g></svg>