<?xml version='1.0' encoding='utf-8'?>
<svg xmlns="http://www.w3.org/2000/svg" version="1.1" viewBox="0 0 1024 1024"><g transform="scale(1, -1) translate(0, -900)"><path d="M 419 461 L 420 459 Q 421 458 423 455 Q 424 454 425 450 Q 426 444 426 437 Q 427 427 427 417 L 427 396 Q 427 389 426 380 Q 423 364 417 349 Q 414 340 411 333 Q 410 329 408 326 Q 407 322 412 323 Q 416 324 423 332 Q 426 335 428 338 Q 435 348 443 362 Q 449 375 452 390 Q 453 397 454 402 C 457 418 457 418 457 422 Q 456 423 457 423 Q 457 430 458 436 Q 458 439 459 442 Q 462 449 458 454 Q 452 461 442 465 C 415 478 405 482 419 461 Z" fill="black" /></g></svg>