<?xml version='1.0' encoding='utf-8'?>
<svg xmlns="http://www.w3.org/2000/svg" version="1.1" viewBox="0 0 1024 1024"><g transform="scale(1, -1) translate(0, -900)"><path d="M 423 534 Q 514 547 657 561 Q 744 568 766 565 Q 781 558 779 552 Q 780 549 775 539 L 755 497 Q 748 485 753 480 Q 760 476 775 486 Q 824 510 864 514 Q 895 520 896 527 Q 895 536 831 590 Q 813 606 790 604 Q 762 601 730 596 L 693 591 Q 651 588 607 581 Q 600 581 594 579 L 559 576 Q 529 575 498 569 L 472 565 Q 447 564 419 559 L 387 555 Q 365 554 341 550 Q 322 549 305 545 L 272 541 Q 244 540 216 537 Q 215 537 213 536 C 183 532 190 521 217 509 Q 239 494 265 500 Q 341 521 423 534 Z" fill="black" /></g></svg>