<?xml version='1.0' encoding='utf-8'?>
<svg xmlns="http://www.w3.org/2000/svg" version="1.1" viewBox="0 0 1024 1024"><g transform="scale(1, -1) translate(0, -900)"><path d="M 601 252 Q 602 249 604 245 Q 611 223 618 223 Q 622 223 627 227 L 639 240 Q 640 241 642 244 Q 655 260 656 276 Q 656 313 664 368 Q 665 384 677 397 Q 686 410 680 418 Q 658 439 620 458 Q 607 462 588 457 Q 564 448 538 440 L 508 431 Q 490 430 472 425 Q 465 424 457 422 L 427 417 Q 387 413 352 410 C 322 407 330 381 360 383 Q 367 382 376 384 Q 401 391 427 396 L 454 402 Q 479 409 507 413 L 533 418 Q 552 422 573 425 Q 603 432 612 416 Q 618 407 616 377 Q 610 292 604 277 Q 603 276 603 275 C 598 259 598 259 601 252 Z" fill="black" /></g></svg>