<?xml version='1.0' encoding='utf-8'?>
<svg xmlns="http://www.w3.org/2000/svg" version="1.1" viewBox="0 0 1024 1024"><g transform="scale(1, -1) translate(0, -900)"><path d="M 523 119 Q 524 183 526 242 L 527 293 Q 528 360 530 422 L 531 464 Q 532 515 533 561 L 535 606 Q 538 682 536 687 Q 523 700 507 711 C 483 729 441 731 453 703 Q 477 651 479 609 Q 479 600 479 591 L 479 553 Q 479 517 478 453 L 478 416 Q 477 359 475 282 L 474 234 Q 473 179 472 113 C 472 83 522 89 523 119 Z" fill="black" /></g></svg>