<?xml version='1.0' encoding='utf-8'?>
<svg xmlns="http://www.w3.org/2000/svg" version="1.1" viewBox="0 0 1024 1024"><g transform="scale(1, -1) translate(0, -900)"><path d="M 533 36 Q 533 85 533 132 L 534 172 Q 534 218 535 263 L 536 302 Q 536 335 537 365 L 538 405 Q 538 439 538 471 L 539 505 Q 540 542 541 578 L 542 613 Q 543 635 544 653 Q 551 672 541 683 Q 525 699 511 707 C 487 724 454 724 466 696 Q 473 677 483 661 Q 490 639 492 606 L 493 573 Q 493 554 493 500 L 492 466 Q 492 435 492 393 L 491 360 Q 490 329 489 293 L 489 257 Q 488 214 487 164 L 486 126 Q 485 83 485 32 C 485 2 533 6 533 36 Z" fill="black" /></g></svg>