<?xml version='1.0' encoding='utf-8'?>
<svg xmlns="http://www.w3.org/2000/svg" version="1.1" viewBox="0 0 1024 1024"><g transform="scale(1, -1) translate(0, -900)"><path d="M 358 587 Q 358 603 359 620 L 360 653 Q 361 675 364 697 L 368 736 L 370 744 Q 370 769 387 800 Q 391 807 383 818 Q 367 831 345 841 Q 332 847 322 843 Q 312 840 316 829 Q 343 784 333 726 L 333 691 Q 332 667 331 645 L 328 597 Q 322 501 329 491 Q 329 488 332 484 Q 339 472 350 479 Q 360 486 360 508 Q 359 539 359 567 L 358 587 Z" fill="black" /></g></svg>