<?xml version='1.0' encoding='utf-8'?>
<svg xmlns="http://www.w3.org/2000/svg" version="1.1" viewBox="0 0 1024 1024"><g transform="scale(1, -1) translate(0, -900)"><path d="M 630 241 L 631 239 Q 635 224 648 225 Q 661 226 668 240 Q 678 252 700 310 Q 716 359 753 387 Q 772 402 756 417 Q 740 433 693 461 Q 678 471 598 456 Q 561 456 427 437 Q 369 428 327 424 C 297 421 317 386 346 393 Q 389 405 461 412 L 508 417 Q 637 433 658 420 Q 665 416 661 389 Q 645 310 630 264 C 625 248 625 248 630 241 Z" fill="black" /></g></svg>