<?xml version='1.0' encoding='utf-8'?>
<svg xmlns="http://www.w3.org/2000/svg" version="1.1" viewBox="0 0 1024 1024"><g transform="scale(1, -1) translate(0, -900)"><path d="M 639 167 L 640 166 Q 644 153 655 153 Q 667 154 674 166 Q 683 176 702 228 Q 717 271 749 297 Q 765 310 752 324 Q 736 339 694 363 Q 682 370 619 358 Q 589 358 483 339 Q 434 332 399 326 C 369 321 389 291 418 297 Q 422 297 427 298 Q 454 307 499 312 L 541 319 Q 646 335 665 325 Q 672 321 668 297 Q 650 212 642 195 L 640 189 C 634 173 634 173 639 167 Z" fill="black" /></g></svg>