<?xml version='1.0' encoding='utf-8'?>
<svg xmlns="http://www.w3.org/2000/svg" version="1.1" viewBox="0 0 1024 1024"><g transform="scale(1, -1) translate(0, -900)"><path d="M 582 527 Q 615 523 744 546 Q 775 552 792 552 Q 802 552 804 548 Q 825 515 814 297 Q 804 168 769 98 Q 754 64 732 57 Q 720 54 657 74 Q 647 78 647 72 Q 646 68 658 58 Q 697 12 714 -19 Q 724 -38 736 -39 Q 758 -36 778 -13 Q 809 15 831 63 Q 874 163 884 470 Q 884 506 904 531 Q 917 544 916 554 Q 915 561 894 575 Q 866 594 829 605 Q 801 612 783 603 Q 767 596 728 584 Q 673 568 635 559 Q 613 555 597 550 C 568 543 552 527 582 527 Z" fill="black" /></g></svg>