<?xml version='1.0' encoding='utf-8'?>
<svg xmlns="http://www.w3.org/2000/svg" version="1.1" viewBox="0 0 1024 1024"><g transform="scale(1, -1) translate(0, -900)"><path d="M 700 250 Q 775 373 808 512 Q 815 555 845 586 Q 863 605 845 617 Q 820 630 791 636 Q 770 642 698 613 Q 617 591 529 579 Q 511 579 508 574 Q 504 562 527 547 Q 554 531 616 552 Q 722 589 735 586 Q 750 586 750 561 Q 726 396 664 289 L 637 249 Q 585 180 485 110 Q 472 100 480 96 Q 507 92 617 164 Q 651 191 667 207 L 700 250 Z" fill="black" /></g></svg>