<?xml version='1.0' encoding='utf-8'?>
<svg xmlns="http://www.w3.org/2000/svg" version="1.1" viewBox="0 0 1024 1024"><g transform="scale(1, -1) translate(0, -900)"><path d="M 539 483 Q 599 504 639 514 L 689 528 Q 726 540 772 549 Q 791 556 803 546 Q 813 540 818 489 Q 831 320 823 125 Q 823 97 813 88 Q 800 78 729 90 Q 713 93 714 83 Q 715 76 729 70 Q 792 28 825 -5 Q 847 -24 859 -22 Q 872 -18 882 10 Q 897 56 894 122 Q 878 371 877 463 Q 876 502 887 524 Q 897 546 888 556 Q 878 571 831 592 Q 812 601 794 596 Q 760 583 695 562 L 644 548 Q 586 535 525 521 C 496 514 511 473 539 483 Z" fill="black" /></g></svg>