<?xml version='1.0' encoding='utf-8'?>
<svg xmlns="http://www.w3.org/2000/svg" version="1.1" viewBox="0 0 1024 1024"><g transform="scale(1, -1) translate(0, -900)"><path d="M 628 263 Q 628 88 666 48 Q 673 42 684 34 Q 750 -14 890 4 Q 897 7 905 8 Q 942 18 958 33 Q 977 46 959 79 Q 941 134 938 204 Q 938 214 930 223 Q 920 230 916 206 Q 871 80 870 78 Q 866 68 846 65 Q 816 56 763 61 Q 733 62 718 71 Q 694 81 687 113 Q 678 146 675 280 L 675 315 Q 675 382 683 497 L 688 551 Q 700 693 722 728 Q 729 750 711 764 Q 683 791 645 800 Q 626 804 618 795 Q 609 786 617 777 Q 644 750 644 678 Q 644 570 636 530 L 633 480 Q 627 386 627 301 L 628 263 Z" fill="black" /></g></svg>