<?xml version='1.0' encoding='utf-8'?>
<svg xmlns="http://www.w3.org/2000/svg" version="1.1" viewBox="0 0 1024 1024"><g transform="scale(1, -1) translate(0, -900)"><path d="M 686 321 Q 632 316 572 303 L 564 303 Q 563 306 565 310 Q 566 314 578 332 Q 637 424 657 447 Q 664 456 662 465 L 661 466 Q 655 478 608 497 Q 598 501 590 500 Q 570 498 580 474 Q 604 422 523 321 L 484 286 Q 473 275 476 267 Q 480 257 490 245 Q 510 225 521 229 Q 523 230 526 233 Q 549 253 698 302 C 726 311 716 324 686 321 Z" fill="black" /></g></svg>