<?xml version='1.0' encoding='utf-8'?>
<svg xmlns="http://www.w3.org/2000/svg" version="1.1" viewBox="0 0 1024 1024"><g transform="scale(1, -1) translate(0, -900)"><path d="M 789 172 Q 804 269 819 348 L 828 392 Q 849 506 872 530 Q 887 543 875 562 Q 865 575 817 609 Q 802 622 778 613 Q 735 597 669 580 Q 614 567 545 565 Q 532 565 531 558 Q 532 548 552 537 Q 571 524 602 534 Q 603 535 607 534 L 642 542 Q 727 564 766 567 Q 785 570 792 563 Q 795 556 769 382 L 763 346 Q 747 249 733 164 C 728 134 784 142 789 172 Z" fill="black" /></g></svg>