<?xml version='1.0' encoding='utf-8'?>
<svg xmlns="http://www.w3.org/2000/svg" version="1.1" viewBox="0 0 1024 1024"><g transform="scale(1, -1) translate(0, -900)"><path d="M 578 532 Q 611 522 635 529 Q 660 539 774 562 Q 793 566 801 557 Q 817 536 818 489 Q 819 243 772 106 Q 762 82 750 77 Q 744 73 648 91 Q 621 100 617 93 Q 614 86 633 71 Q 685 28 715 -12 Q 733 -42 750 -38 Q 765 -34 786 -8 Q 817 26 840 94 Q 865 175 889 443 Q 893 512 914 535 Q 932 556 908 574 Q 827 628 773 600 Q 671 573 596 558 C 567 552 549 538 578 532 Z" fill="black" /></g></svg>