<?xml version='1.0' encoding='utf-8'?>
<svg xmlns="http://www.w3.org/2000/svg" version="1.1" viewBox="0 0 1024 1024"><g transform="scale(1, -1) translate(0, -900)"><path d="M 605 399 Q 612 417 623 435 Q 651 496 670 563 L 681 607 Q 681 643 706 705 Q 713 729 728 753 Q 735 763 727 772 Q 712 791 680 811 Q 661 824 644 821 Q 623 817 636 797 Q 658 764 653 734 Q 640 656 624 593 L 611 548 Q 593 490 562 417 L 549 386 Q 522 319 458 227 Q 448 218 445 214 Q 441 207 457 209 Q 493 222 559 316 L 605 399 Z" fill="black" /></g></svg>