<?xml version='1.0' encoding='utf-8'?>
<svg xmlns="http://www.w3.org/2000/svg" version="1.1" viewBox="0 0 1024 1024"><g transform="scale(1, -1) translate(0, -900)"><path d="M 599 365 Q 606 365 691 384 L 745 398 Q 788 410 813 414 Q 838 418 846 411 Q 859 401 860 360 Q 859 320 860 270 Q 861 236 849 220 Q 843 210 823 216 L 787 222 Q 772 226 767 221 Q 763 217 777 206 Q 826 166 854 134 Q 869 121 887 128 Q 897 132 907 161 Q 926 204 921 256 Q 911 371 920 411 Q 927 426 919 434 Q 898 447 865 459 Q 846 466 832 458 Q 802 442 748 428 L 691 414 Q 651 407 605 399 C 575 394 569 360 599 365 Z" fill="black" /></g></svg>