<?xml version='1.0' encoding='utf-8'?>
<svg xmlns="http://www.w3.org/2000/svg" version="1.1" viewBox="0 0 1024 1024"><g transform="scale(1, -1) translate(0, -900)"><path d="M 742 577 Q 794 598 834 608 Q 844 609 846 607 Q 859 592 856 551 Q 855 436 832 383 Q 820 356 798 358 Q 779 362 762 369 Q 740 376 755 354 Q 792 315 809 286 Q 831 267 847 287 Q 875 312 891 353 Q 910 401 909 541 Q 909 590 923 616 Q 933 629 926 637 Q 917 646 871 660 Q 853 664 838 652 Q 819 639 730 608 C 702 598 714 566 742 577 Z" fill="black" /></g></svg>