<?xml version='1.0' encoding='utf-8'?>
<svg xmlns="http://www.w3.org/2000/svg" version="1.1" viewBox="0 0 1024 1024"><g transform="scale(1, -1) translate(0, -900)"><path d="M 626 618 Q 704 657 729 657 Q 730 658 734 657 Q 743 654 743 639 Q 739 584 733 536 Q 724 479 737 441 Q 743 416 766 400 Q 799 381 864 382 Q 927 385 959 402 Q 975 408 965 424 Q 949 443 929 454 Q 917 461 892 450 Q 861 434 820 436 Q 795 436 786 455 Q 770 480 782 554 Q 786 600 827 647 Q 846 663 827 679 Q 802 698 774 711 Q 762 717 746 706 Q 682 673 606 655 C 577 648 599 605 626 618 Z" fill="black" /></g></svg>