<?xml version='1.0' encoding='utf-8'?>
<svg xmlns="http://www.w3.org/2000/svg" version="1.1" viewBox="0 0 1024 1024"><g transform="scale(1, -1) translate(0, -900)"><path d="M 573 534 Q 603 525 669 537 Q 819 567 824 556 Q 846 519 828 275 Q 810 148 780 87 Q 764 53 741 45 Q 728 44 670 77 Q 660 81 659 76 Q 658 72 668 60 Q 705 8 721 -28 Q 730 -50 743 -51 Q 797 -44 843 54 Q 879 138 898 391 Q 901 511 920 535 Q 935 551 935 561 Q 934 568 914 582 Q 886 603 849 613 Q 821 620 803 611 Q 785 604 743 591 Q 683 572 640 564 Q 607 557 585 551 C 556 544 543 538 573 534 Z" fill="black" /></g></svg>