<?xml version='1.0' encoding='utf-8'?>
<svg xmlns="http://www.w3.org/2000/svg" version="1.1" viewBox="0 0 1024 1024"><g transform="scale(1, -1) translate(0, -900)"><path d="M 590 672 Q 574 690 547 699 Q 526 706 523 697 Q 519 687 527 678 Q 549 648 546 611 Q 539 518 524 434 L 515 391 Q 493 295 455 249 Q 427 222 431 205 Q 435 190 456 174 Q 474 159 495 179 Q 520 198 587 208 Q 656 221 755 219 L 813 215 Q 874 211 935 197 Q 953 191 966 197 Q 978 201 972 217 Q 963 236 943 249 Q 928 265 900 263 Q 879 262 832 262 Q 828 263 822 262 L 764 261 Q 671 260 536 241 Q 517 238 523 261 Q 542 328 558 402 L 566 441 Q 584 535 597 639 C 600 664 600 664 590 672 Z" fill="black" /></g></svg>