<?xml version='1.0' encoding='utf-8'?>
<svg xmlns="http://www.w3.org/2000/svg" version="1.1" viewBox="0 0 1024 1024"><g transform="scale(1, -1) translate(0, -900)"><path d="M 657 442 Q 658 446 662 449 Q 702 510 743 585 Q 761 616 793 648 Q 806 661 800 669 Q 797 679 733 697 Q 714 706 694 690 Q 678 680 654 671 Q 623 662 596 654 C 567 646 551 633 580 627 Q 604 615 656 636 Q 680 643 689 634 Q 698 613 617 470 L 599 440 Q 595 434 590 426 Q 544 356 452 259 Q 440 246 454 246 Q 464 247 505 277 Q 542 302 584 349 Q 608 377 633 409 L 657 442 Z" fill="black" /></g></svg>