<?xml version='1.0' encoding='utf-8'?>
<svg xmlns="http://www.w3.org/2000/svg" version="1.1" viewBox="0 0 1024 1024"><g transform="scale(1, -1) translate(0, -900)"><path d="M 763 614 Q 646 602 588 585 Q 555 578 572 603 Q 585 624 623 672 Q 681 748 692 757 Q 701 764 705 772 Q 709 785 688 800 Q 652 824 626 824 Q 613 824 606 817 Q 603 810 612 802 Q 648 756 520 594 Q 463 569 483 518 Q 492 496 505 496 Q 509 497 526 509 Q 610 563 731 584 Q 770 593 781 590 C 811 590 793 617 763 614 Z" fill="black" /></g></svg>