<?xml version='1.0' encoding='utf-8'?>
<svg xmlns="http://www.w3.org/2000/svg" version="1.1" viewBox="0 0 1024 1024"><g transform="scale(1, -1) translate(0, -900)"><path d="M 558 400 Q 559 422 559 444 L 558 474 Q 557 516 556 555 L 555 581 Q 555 629 562 670 C 564 687 564 687 547 701 Q 528 719 508 727 Q 489 734 480 728 Q 470 721 479 705 Q 539 587 502 156 Q 501 105 463 52 Q 451 36 461 13 Q 473 -15 487 -26 Q 500 -33 512 -15 Q 525 15 659 149 Q 677 164 681 174 Q 684 184 674 183 Q 664 183 558 114 Q 552 108 550 115 Q 557 254 558 372 L 558 400 Z" fill="black" /></g></svg>