<?xml version='1.0' encoding='utf-8'?>
<svg xmlns="http://www.w3.org/2000/svg" version="1.1" viewBox="0 0 1024 1024"><g transform="scale(1, -1) translate(0, -900)"><path d="M 760 470 Q 675 448 588 414 Q 579 410 576 411 Q 575 415 579 422 Q 664 537 682 556 Q 692 566 687 577 Q 681 587 648 604 C 622 618 599 623 606 594 Q 607 593 608 588 Q 620 545 561 461 Q 542 430 498 398 Q 486 386 490 377 Q 494 361 519 344 Q 529 335 540 345 Q 576 381 771 448 Q 772 449 773 449 C 801 459 789 478 760 470 Z" fill="black" /></g></svg>