<?xml version='1.0' encoding='utf-8'?>
<svg xmlns="http://www.w3.org/2000/svg" version="1.1" viewBox="0 0 1024 1024"><g transform="scale(1, -1) translate(0, -900)"><path d="M 586 726 Q 619 736 652 744 Q 668 748 673 743 Q 677 737 676 712 Q 667 597 681 557 Q 694 527 750 508 Q 849 481 911 521 Q 924 528 918 543 Q 902 588 893 641 Q 886 669 876 642 Q 866 572 850 559 Q 840 547 798 548 Q 755 548 726 572 Q 710 584 710 648 Q 710 694 752 747 Q 764 760 748 772 Q 726 785 698 794 Q 679 798 667 786 Q 636 767 578 750 C 549 741 557 718 586 726 Z" fill="black" /></g></svg>