<?xml version='1.0' encoding='utf-8'?>
<svg xmlns="http://www.w3.org/2000/svg" version="1.1" viewBox="0 0 1024 1024"><g transform="scale(1, -1) translate(0, -900)"><path d="M 627 387 Q 627 383 630 373 Q 643 333 639 293 Q 626 121 639 74 Q 642 52 662 35 Q 734 -22 887 3 Q 896 6 905 7 Q 942 17 978 41 Q 999 57 984 84 Q 969 114 949 205 Q 948 221 941 226 Q 934 229 930 211 Q 905 114 887 83 Q 865 55 775 57 Q 742 58 716 68 Q 694 78 688 93 Q 661 150 697 343 Q 706 374 658 393 C 631 407 621 412 627 387 Z" fill="black" /></g></svg>