<?xml version='1.0' encoding='utf-8'?>
<svg xmlns="http://www.w3.org/2000/svg" version="1.1" viewBox="0 0 1024 1024"><g transform="scale(1, -1) translate(0, -900)"><path d="M 671 409 Q 671 419 672 430 L 672 471 Q 673 522 674 576 L 675 623 Q 676 711 695 772 Q 704 787 701 801 Q 694 811 638 845 Q 614 861 593 846 Q 589 842 594 826 Q 630 772 631 719 Q 632 668 633 611 L 633 567 Q 633 492 632 461 L 629 358 Q 625 157 603 74 Q 587 28 615 -38 Q 622 -56 630 -59 Q 637 -66 644 -57 Q 651 -53 662 -32 Q 672 -7 671 25 Q 670 68 671 355 L 671 409 Z" fill="black" /></g></svg>