<?xml version='1.0' encoding='utf-8'?>
<svg xmlns="http://www.w3.org/2000/svg" version="1.1" viewBox="0 0 1024 1024"><g transform="scale(1, -1) translate(0, -900)"><path d="M 722 458 Q 734 660 761 696 Q 770 718 751 732 Q 723 759 685 769 Q 666 773 658 764 Q 649 755 656 745 Q 683 721 682 620 Q 643 145 702 85 Q 783 22 929 41 Q 936 42 944 44 Q 981 54 998 69 Q 1014 82 997 111 Q 978 160 971 224 Q 970 234 962 244 Q 952 250 949 226 Q 913 120 909 114 Q 905 104 885 101 Q 854 92 800 97 Q 769 98 754 107 Q 730 117 723 149 Q 705 203 720 431 L 722 458 Z" fill="black" /></g></svg>