<?xml version='1.0' encoding='utf-8'?>
<svg xmlns="http://www.w3.org/2000/svg" version="1.1" viewBox="0 0 1024 1024"><g transform="scale(1, -1) translate(0, -900)"><path d="M 622 370 Q 649 454 667 480 Q 676 487 672 497 Q 666 510 629 533 Q 619 540 608 537 Q 596 533 604 518 Q 619 488 580 362 L 565 320 Q 555 295 543 274 Q 534 258 537 246 Q 538 237 555 234 Q 595 221 637 192 Q 638 191 642 189 L 680 163 Q 731 126 803 56 Q 825 35 842 34 Q 861 33 864 52 Q 865 71 842 116 Q 827 149 710 201 L 666 222 Q 627 241 599 250 Q 574 256 588 279 Q 598 307 607 331 L 622 370 Z" fill="black" /></g></svg>