<?xml version='1.0' encoding='utf-8'?>
<svg xmlns="http://www.w3.org/2000/svg" version="1.1" viewBox="0 0 1024 1024"><g transform="scale(1, -1) translate(0, -900)"><path d="M 601 362 Q 601 359 604 354 Q 622 303 570 248 Q 528 224 567 189 Q 577 179 598 194 Q 655 242 737 238 Q 752 247 771 229 Q 781 214 775 174 Q 760 65 713 20 Q 703 10 674 22 Q 649 26 629 29 Q 611 35 615 24 Q 618 11 633 -2 Q 664 -33 683 -62 Q 699 -81 717 -69 Q 780 -30 795 23 Q 811 75 834 158 Q 838 185 854 209 Q 867 227 856 238 Q 844 256 813 273 Q 789 286 774 280 Q 755 273 658 250 Q 643 247 639 253 Q 638 254 641 259 Q 648 275 659 295 Q 671 316 664 330 Q 660 342 641 358 C 620 379 593 391 601 362 Z" fill="black" /></g></svg>