<?xml version='1.0' encoding='utf-8'?>
<svg xmlns="http://www.w3.org/2000/svg" version="1.1" viewBox="0 0 1024 1024"><g transform="scale(1, -1) translate(0, -900)"><path d="M 738 549 Q 754 525 769 517 Q 779 510 794 530 Q 807 552 838 674 Q 848 704 870 726 Q 883 738 873 751 Q 858 767 819 794 Q 804 801 732 787 Q 723 787 614 768 Q 571 761 533 754 C 503 749 526 719 555 726 Q 622 744 743 758 Q 768 761 779 752 Q 792 742 788 724 Q 766 607 756 590 Q 752 580 740 576 C 726 566 726 566 738 549 Z" fill="black" /></g></svg>