<?xml version='1.0' encoding='utf-8'?>
<svg xmlns="http://www.w3.org/2000/svg" version="1.1" viewBox="0 0 1024 1024"><g transform="scale(1, -1) translate(0, -900)"><path d="M 690 269 Q 690 292 690 295 L 690 343 Q 687 474 701 493 Q 704 498 706 501 Q 715 522 682 541 C 658 559 601 555 615 529 Q 633 508 636 431 L 639 292 Q 639 149 635 129 Q 631 106 617 108 Q 546 125 541 123 Q 531 120 553 100 Q 570 85 583 73 Q 617 39 635 10 Q 639 2 647 -1 Q 658 -5 662 -1 Q 678 16 686 49 Q 692 74 692 127 L 692 128 L 690 269 Z" fill="black" /></g></svg>