<?xml version='1.0' encoding='utf-8'?>
<svg xmlns="http://www.w3.org/2000/svg" version="1.1" viewBox="0 0 1024 1024"><g transform="scale(1, -1) translate(0, -900)"><path d="M 795 269 Q 796 259 804 249 Q 820 216 830 218 Q 846 219 863 256 Q 881 284 878 308 Q 865 407 867 561 Q 867 606 891 643 Q 903 661 894 671 Q 864 696 813 719 Q 797 725 771 715 Q 714 688 584 665 C 554 660 569 631 599 635 Q 606 635 615 636 Q 699 658 760 671 Q 782 675 789 664 Q 807 642 806 563 Q 809 343 797 299 Q 796 298 795 294 L 795 269 Z" fill="black" /></g></svg>