<?xml version='1.0' encoding='utf-8'?>
<svg xmlns="http://www.w3.org/2000/svg" version="1.1" viewBox="0 0 1024 1024"><g transform="scale(1, -1) translate(0, -900)"><path d="M 634 174 Q 634 -55 650 -77 Q 656 -84 663 -82 Q 678 -73 682 -17 Q 688 47 684 182 L 684 219 Q 684 246 684 278 L 684 320 Q 684 347 685 376 L 686 417 Q 689 441 695 474 Q 698 490 685 499 Q 643 527 629 523 C 599 528 596 529 608 504 Q 609 503 611 500 Q 632 455 633 400 L 634 363 Q 634 335 634 304 L 634 267 Q 634 240 634 209 L 634 174 Z" fill="black" /></g></svg>