<?xml version='1.0' encoding='utf-8'?>
<svg xmlns="http://www.w3.org/2000/svg" version="1.1" viewBox="0 0 1024 1024"><g transform="scale(1, -1) translate(0, -900)"><path d="M 527 379 Q 569 373 730 408 Q 808 424 818 413 Q 828 391 822 244 Q 813 133 783 73 Q 771 48 754 43 Q 741 39 669 66 Q 659 70 659 64 Q 658 60 669 50 Q 712 4 732 -28 Q 742 -49 756 -48 Q 798 -45 835 29 Q 871 101 893 348 Q 894 376 912 396 Q 925 409 923 418 Q 922 425 902 439 Q 875 458 839 468 Q 820 475 753 453 Q 738 450 722 444 Q 620 416 531 400 C 502 394 497 379 527 379 Z" fill="black" /></g></svg>