<?xml version='1.0' encoding='utf-8'?>
<svg xmlns="http://www.w3.org/2000/svg" version="1.1" viewBox="0 0 1024 1024"><g transform="scale(1, -1) translate(0, -900)"><path d="M 787 428 Q 817 435 848 440 Q 858 441 861 436 Q 868 423 866 386 Q 859 253 836 181 Q 823 136 809 122 Q 799 113 781 120 Q 759 127 738 135 Q 719 144 730 122 Q 764 77 781 43 Q 787 24 805 27 Q 821 30 841 53 Q 901 113 918 348 Q 922 400 942 431 Q 955 449 948 457 Q 935 473 906 485 Q 885 495 863 486 Q 832 471 793 458 L 737 443 Q 688 433 658 430 Q 645 431 645 424 Q 644 417 660 409 Q 679 397 695 404 Q 711 410 731 414 L 787 428 Z" fill="black" /></g></svg>