<?xml version='1.0' encoding='utf-8'?>
<svg xmlns="http://www.w3.org/2000/svg" version="1.1" viewBox="0 0 1024 1024"><g transform="scale(1, -1) translate(0, -900)"><path d="M 778 380 Q 796 353 812 345 Q 824 336 841 358 Q 857 386 896 540 Q 906 573 932 598 Q 945 611 934 626 Q 918 644 875 673 Q 853 685 796 669 Q 780 668 762 664 Q 587 637 550 629 C 521 623 543 594 572 600 Q 603 607 643 614 L 692 621 Q 812 642 831 627 Q 847 614 842 592 Q 812 447 799 425 Q 795 415 781 409 C 765 397 765 397 778 380 Z" fill="black" /></g></svg>