<?xml version='1.0' encoding='utf-8'?>
<svg xmlns="http://www.w3.org/2000/svg" version="1.1" viewBox="0 0 1024 1024"><g transform="scale(1, -1) translate(0, -900)"><path d="M 712 133 Q 712 178 712 220 L 713 264 Q 713 322 715 374 L 715 410 Q 716 453 717 492 L 718 532 Q 719 554 720 571 Q 727 590 717 601 Q 704 613 692 621 C 668 639 630 641 643 614 Q 650 599 657 588 Q 664 564 665 517 L 666 483 Q 666 452 666 399 L 666 367 Q 666 318 666 252 L 666 210 Q 666 171 666 126 C 666 96 712 103 712 133 Z" fill="black" /></g></svg>