<?xml version='1.0' encoding='utf-8'?>
<svg xmlns="http://www.w3.org/2000/svg" version="1.1" viewBox="0 0 1024 1024"><g transform="scale(1, -1) translate(0, -900)"><path d="M 627 213 Q 630 69 645 47 Q 658 34 667 53 Q 679 89 679 225 L 679 266 Q 679 294 679 326 L 679 368 L 679 452 L 679 479 Q 679 531 680 574 L 681 607 Q 684 730 701 758 Q 708 773 689 787 Q 665 805 625 815 Q 607 819 596 806 Q 586 799 599 787 Q 624 765 627 734 Q 628 682 628 597 L 629 565 Q 629 520 629 467 L 629 441 Q 629 440 630 436 Q 630 390 630 350 L 629 312 Q 628 278 628 251 L 627 213 Z" fill="black" /></g></svg>