<?xml version='1.0' encoding='utf-8'?>
<svg xmlns="http://www.w3.org/2000/svg" version="1.1" viewBox="0 0 1024 1024"><g transform="scale(1, -1) translate(0, -900)"><path d="M 776 301 Q 739 297 706 290 L 672 282 Q 645 278 623 270 Q 610 267 614 282 Q 621 342 616 350 Q 606 362 590 372 Q 583 376 576 374 Q 569 371 574 358 Q 587 328 581 298 Q 578 270 566 257 Q 554 245 559 236 Q 566 226 578 219 Q 587 213 594 219 Q 621 252 733 271 Q 757 275 765 273 Q 766 274 769 274 C 799 275 806 304 776 301 Z" fill="black" /></g></svg>