<?xml version='1.0' encoding='utf-8'?>
<svg xmlns="http://www.w3.org/2000/svg" version="1.1" viewBox="0 0 1024 1024"><g transform="scale(1, -1) translate(0, -900)"><path d="M 544 627 Q 632 657 816 691 Q 834 695 843 686 Q 856 679 862 612 Q 881 390 870 138 Q 869 101 855 90 Q 845 83 794 93 Q 778 97 778 87 Q 779 80 791 73 Q 839 30 862 -3 Q 883 -22 895 -20 Q 908 -17 919 11 Q 935 56 935 122 Q 908 620 928 663 Q 938 684 929 695 Q 919 708 874 731 Q 853 740 787 718 Q 619 678 527 662 C 497 657 515 618 544 627 Z" fill="black" /></g></svg>