<?xml version='1.0' encoding='utf-8'?>
<svg xmlns="http://www.w3.org/2000/svg" version="1.1" viewBox="0 0 1024 1024"><g transform="scale(1, -1) translate(0, -900)"><path d="M 596 752 Q 606 771 619 793 Q 641 815 620 833 Q 590 860 567 864 Q 551 865 544 859 Q 538 852 547 840 Q 580 798 509 666 Q 506 665 506 662 Q 493 634 480 629 Q 458 619 454 603 Q 450 575 457 563 Q 466 548 479 559 Q 497 580 653 615 Q 662 616 672 619 C 701 626 712 647 682 644 Q 678 644 545 628 Q 536 629 535 635 Q 534 639 589 740 L 596 752 Z" fill="black" /></g></svg>