<?xml version='1.0' encoding='utf-8'?>
<svg xmlns="http://www.w3.org/2000/svg" version="1.1" viewBox="0 0 1024 1024"><g transform="scale(1, -1) translate(0, -900)"><path d="M 812 318 Q 822 370 832 403 L 849 451 Q 849 452 850 452 Q 863 483 882 500 Q 898 519 883 536 Q 867 549 814 572 Q 796 579 775 570 Q 739 555 705 544 L 682 537 Q 528 507 500 503 Q 484 502 486 493 Q 489 486 506 479 Q 530 469 563 480 Q 579 484 597 487 L 632 494 Q 690 509 752 521 Q 777 528 786 518 Q 799 505 797 478 Q 793 459 790 438 L 783 400 Q 774 360 764 324 C 756 295 806 289 812 318 Z" fill="black" /></g></svg>