<?xml version='1.0' encoding='utf-8'?>
<svg xmlns="http://www.w3.org/2000/svg" version="1.1" viewBox="0 0 1024 1024"><g transform="scale(1, -1) translate(0, -900)"><path d="M 712 310 Q 713 347 721 388 Q 725 404 713 414 Q 701 427 679 434 Q 666 438 659 433 Q 652 429 658 412 Q 671 376 669 340 Q 663 157 680 108 Q 684 87 704 70 Q 767 12 911 42 Q 915 45 921 45 Q 952 55 983 79 Q 1001 91 990 114 Q 980 142 971 226 Q 971 241 965 246 Q 959 249 954 233 Q 923 145 902 119 Q 893 107 867 100 Q 804 85 752 104 Q 731 114 725 127 Q 701 169 710 286 L 712 310 Z" fill="black" /></g></svg>