<?xml version='1.0' encoding='utf-8'?>
<svg xmlns="http://www.w3.org/2000/svg" version="1.1" viewBox="0 0 1024 1024"><g transform="scale(1, -1) translate(0, -900)"><path d="M 759 102 Q 769 77 796 25 Q 805 6 815 8 Q 831 11 840 37 Q 864 85 880 256 Q 886 302 908 330 Q 924 349 913 362 Q 894 384 848 404 Q 830 414 798 404 Q 690 365 510 348 C 480 345 489 310 519 314 Q 526 314 533 315 Q 573 324 627 333 L 664 340 Q 796 367 813 351 Q 820 347 821 326 Q 822 232 805 138 Q 804 122 797 120 Q 796 119 788 120 C 763 104 759 103 759 102 Z" fill="black" /></g></svg>