<?xml version='1.0' encoding='utf-8'?>
<svg xmlns="http://www.w3.org/2000/svg" version="1.1" viewBox="0 0 1024 1024"><g transform="scale(1, -1) translate(0, -900)"><path d="M 805 393 Q 854 396 916 396 Q 973 396 979 405 Q 983 415 969 427 Q 918 466 861 447 Q 840 444 817 438 L 764 428 Q 695 421 672 414 L 627 407 Q 584 401 543 394 L 501 389 Q 468 385 435 380 Q 416 379 430 363 Q 443 350 459 346 Q 462 346 513 351 L 549 360 Q 586 370 627 374 L 672 380 Q 709 387 759 390 L 805 393 Z" fill="black" /></g></svg>