<?xml version='1.0' encoding='utf-8'?>
<svg xmlns="http://www.w3.org/2000/svg" version="1.1" viewBox="0 0 1024 1024"><g transform="scale(1, -1) translate(0, -900)"><path d="M 633 380 Q 637 341 643 297 L 645 263 Q 651 92 622 45 Q 621 39 614 37 Q 608 34 529 47 Q 520 48 518 45 Q 517 41 525 32 Q 580 -19 608 -57 Q 618 -70 624 -68 Q 636 -67 656 -47 Q 701 -5 702 86 Q 705 212 694 270 L 691 306 Q 687 369 683 388 L 679 417 Q 678 435 677 450 Q 677 469 665 477 Q 647 487 632 494 C 605 507 579 511 597 487 Q 621 463 628 409 L 633 380 Z" fill="black" /></g></svg>