<?xml version='1.0' encoding='utf-8'?>
<svg xmlns="http://www.w3.org/2000/svg" version="1.1" viewBox="0 0 1024 1024"><g transform="scale(1, -1) translate(0, -900)"><path d="M 471 595 Q 496 602 523 615 Q 535 622 543 615 Q 543 614 518 555 Q 503 533 515 514 Q 543 453 548 422 Q 551 403 542 395 L 488 394 Q 466 398 489 381 Q 522 353 549 320 Q 562 307 576 317 Q 592 324 602 349 Q 621 401 571 485 Q 535 537 563 565 Q 594 605 614 614 Q 633 626 624 638 Q 611 656 575 674 Q 556 683 543 672 Q 504 636 454 624 C 425 616 442 586 471 595 Z" fill="black" /></g></svg>