<?xml version='1.0' encoding='utf-8'?>
<svg xmlns="http://www.w3.org/2000/svg" version="1.1" viewBox="0 0 1024 1024"><g transform="scale(1, -1) translate(0, -900)"><path d="M 515 306 Q 516 333 521 345 Q 525 361 514 373 Q 492 397 476 400 Q 464 403 459 399 Q 449 392 459 380 Q 475 347 474 319 Q 473 198 463 159 Q 459 132 446 117 Q 434 98 442 78 Q 452 48 467 38 Q 477 31 488 48 Q 519 88 622 186 Q 638 199 638 207 Q 639 219 621 208 Q 518 145 511 148 Q 504 152 504 167 Q 508 234 512 277 L 515 306 Z" fill="black" /></g></svg>