<?xml version='1.0' encoding='utf-8'?>
<svg xmlns="http://www.w3.org/2000/svg" version="1.1" viewBox="0 0 1024 1024"><g transform="scale(1, -1) translate(0, -900)"><path d="M 680 503 Q 735 449 788 420 Q 866 381 891 387 Q 907 391 893 431 Q 884 455 876 517 Q 875 547 863 557 Q 854 564 853 550 Q 844 468 828 460 Q 809 453 758 485 Q 731 501 710 523 L 686 549 L 686 550 Q 661 578 637 616 L 615 656 Q 578 726 575 779 Q 576 809 536 819 Q 490 832 468 823 Q 461 820 461 812 Q 461 805 471 796 Q 499 784 555 674 Q 565 655 579 633 L 602 598 Q 629 561 659 525 L 680 503 Z" fill="black" /></g></svg>