<?xml version='1.0' encoding='utf-8'?>
<svg xmlns="http://www.w3.org/2000/svg" version="1.1" viewBox="0 0 1024 1024"><g transform="scale(1, -1) translate(0, -900)"><path d="M 645 150 Q 744 6 870 -50 Q 940 -78 957 -62 Q 973 -52 962 -20 Q 955 7 947 103 Q 947 122 942 126 Q 938 127 933 110 Q 897 22 874 20 Q 780 32 676 177 L 651 215 Q 636 230 600 315 L 586 357 Q 576 400 576 425 Q 577 450 535 461 Q 501 471 486 464 Q 470 457 485 436 Q 516 408 530 371 Q 537 352 547 331 L 564 294 Q 591 239 621 187 L 645 150 Z" fill="black" /></g></svg>