<?xml version='1.0' encoding='utf-8'?>
<svg xmlns="http://www.w3.org/2000/svg" version="1.1" viewBox="0 0 1024 1024"><g transform="scale(1, -1) translate(0, -900)"><path d="M 753 465 Q 772 437 789 429 Q 799 422 814 443 Q 827 465 853 583 Q 860 613 882 636 Q 894 648 883 661 Q 868 677 828 700 Q 810 709 746 688 Q 644 670 609 652 L 583 645 Q 564 641 546 636 C 517 628 535 598 563 608 Q 632 633 755 661 Q 780 665 792 659 Q 805 649 801 632 Q 780 497 761 487 C 749 471 749 471 753 465 Z" fill="black" /></g></svg>