<?xml version='1.0' encoding='utf-8'?>
<svg xmlns="http://www.w3.org/2000/svg" version="1.1" viewBox="0 0 1024 1024"><g transform="scale(1, -1) translate(0, -900)"><path d="M 708 323 Q 768 338 800 341 Q 822 342 829 336 Q 841 326 840 293 Q 839 259 840 218 Q 840 190 830 176 Q 824 166 802 171 Q 777 177 751 183 Q 736 187 731 181 Q 727 177 741 167 Q 799 124 833 90 Q 845 77 862 84 Q 872 88 881 112 Q 900 149 898 196 Q 894 299 903 334 Q 910 347 903 357 Q 884 369 851 382 Q 833 389 819 382 Q 782 364 710 350 Q 709 350 709 349 L 656 338 Q 607 329 546 321 C 516 317 522 280 551 288 Q 566 294 657 312 L 708 323 Z" fill="black" /></g></svg>