<?xml version='1.0' encoding='utf-8'?>
<svg xmlns="http://www.w3.org/2000/svg" version="1.1" viewBox="0 0 1024 1024"><g transform="scale(1, -1) translate(0, -900)"><path d="M 736 67 Q 752 42 766 12 Q 778 -10 788 -12 Q 800 -12 809 13 Q 825 58 820 166 Q 816 259 824 288 Q 833 310 820 320 Q 811 332 773 349 Q 755 358 715 343 Q 678 328 634 318 Q 600 309 555 300 C 526 294 540 259 568 269 Q 623 291 718 305 Q 742 308 748 300 Q 754 294 755 163 Q 756 117 751 108 Q 747 98 733 101 L 732 101 C 717 98 720 93 736 67 Z" fill="black" /></g></svg>