<?xml version='1.0' encoding='utf-8'?>
<svg xmlns="http://www.w3.org/2000/svg" version="1.1" viewBox="0 0 1024 1024"><g transform="scale(1, -1) translate(0, -900)"><path d="M 392 559 Q 431 568 464 569 Q 489 570 481 582 Q 474 592 460 599 Q 450 603 394 589 L 351 580 Q 320 576 284 568 Q 275 567 274 568 Q 273 569 274 576 Q 299 627 337 690 L 364 735 Q 380 762 390 768 Q 402 778 390 795 Q 371 820 355 832 Q 345 839 336 839 Q 329 836 332 817 Q 333 795 309 723 L 291 683 L 291 681 Q 249 599 217 570 Q 202 557 206 545 Q 210 527 218 518 Q 225 509 234 513 Q 268 531 350 551 L 392 559 Z" fill="black" /></g></svg>