<?xml version='1.0' encoding='utf-8'?>
<svg xmlns="http://www.w3.org/2000/svg" version="1.1" viewBox="0 0 1024 1024"><g transform="scale(1, -1) translate(0, -900)"><path d="M 497 356 Q 584 387 832 402 Q 844 402 847 397 Q 856 391 857 354 Q 867 198 850 109 Q 844 75 814 78 Q 786 82 761 86 Q 746 93 746 86 Q 745 79 755 65 Q 819 1 835 -29 Q 845 -44 854 -41 Q 867 -40 880 -14 Q 913 47 923 254 Q 923 360 937 387 Q 953 406 940 412 Q 925 427 890 442 Q 868 455 845 445 Q 827 441 788 434 L 734 428 Q 700 425 670 419 L 642 414 Q 612 411 589 405 Q 583 404 579 402 L 541 395 Q 510 391 481 385 C 452 379 468 347 497 356 Z" fill="black" /></g></svg>