<?xml version='1.0' encoding='utf-8'?>
<svg xmlns="http://www.w3.org/2000/svg" version="1.1" viewBox="0 0 1024 1024"><g transform="scale(1, -1) translate(0, -900)"><path d="M 770 209 Q 804 261 827 345 Q 833 378 850 395 Q 865 408 847 422 Q 828 437 795 448 Q 776 454 755 442 Q 721 418 671 404 Q 646 400 636 392 Q 629 385 646 378 Q 671 368 707 382 Q 729 391 752 399 Q 768 406 771 386 Q 771 323 733 246 L 713 213 Q 703 201 694 189 Q 648 143 532 106 Q 517 102 527 94 Q 534 90 561 93 Q 639 103 685 126 Q 716 144 742 173 L 770 209 Z" fill="black" /></g></svg>