<?xml version='1.0' encoding='utf-8'?>
<svg xmlns="http://www.w3.org/2000/svg" version="1.1" viewBox="0 0 1024 1024"><g transform="scale(1, -1) translate(0, -900)"><path d="M 695 663 Q 707 663 753 682 Q 769 688 776 686 Q 783 682 782 670 Q 773 547 779 527 Q 785 506 804 495 Q 832 480 884 484 Q 933 488 960 504 Q 972 510 963 522 Q 950 538 933 545 Q 923 549 903 540 Q 837 507 819 538 Q 809 557 818 610 Q 821 644 852 677 Q 867 690 852 702 Q 831 720 809 730 Q 799 734 785 726 Q 754 711 686 694 C 657 687 666 657 695 663 Z" fill="black" /></g></svg>