<?xml version='1.0' encoding='utf-8'?>
<svg xmlns="http://www.w3.org/2000/svg" version="1.1" viewBox="0 0 1024 1024"><g transform="scale(1, -1) translate(0, -900)"><path d="M 746 631 Q 791 644 828 651 Q 841 652 843 650 Q 852 635 845 600 Q 832 501 806 459 Q 791 434 768 437 L 736 445 Q 717 452 731 432 Q 761 401 774 376 Q 792 357 808 372 Q 833 391 853 424 Q 875 464 891 585 Q 897 628 912 649 Q 922 659 917 668 Q 910 677 868 695 Q 852 702 835 691 Q 822 681 764 666 Q 706 650 657 643 Q 644 642 641 635 Q 640 629 660 620 Q 679 608 695 615 Q 704 619 716 621 L 746 631 Z" fill="black" /></g></svg>