<?xml version='1.0' encoding='utf-8'?>
<svg xmlns="http://www.w3.org/2000/svg" version="1.1" viewBox="0 0 1024 1024"><g transform="scale(1, -1) translate(0, -900)"><path d="M 693 110 Q 709 122 714 251 L 715 284 Q 715 312 715 346 L 715 383 L 715 449 L 715 486 Q 715 519 715 547 L 716 575 Q 716 618 718 652 L 719 685 Q 719 743 737 774 Q 743 787 725 801 Q 704 817 667 827 Q 651 831 640 819 Q 631 812 642 802 Q 666 781 668 753 Q 668 719 669 671 L 669 640 Q 669 606 669 565 L 669 535 Q 669 508 669 472 L 669 438 Q 669 401 669 369 L 668 336 Q 667 300 666 273 L 667 241 Q 667 139 683 114 C 688 100 688 100 693 110 Z" fill="black" /></g></svg>