<?xml version='1.0' encoding='utf-8'?>
<svg xmlns="http://www.w3.org/2000/svg" version="1.1" viewBox="0 0 1024 1024"><g transform="scale(1, -1) translate(0, -900)"><path d="M 448 196 Q 420 141 368 70 Q 361 58 364 56 Q 368 53 375 60 Q 439 108 480 180 L 494 212 Q 509 249 523 289 Q 539 347 551 361 Q 558 371 552 378 Q 542 388 529 392 Q 517 398 497 392 Q 481 391 477 395 Q 473 396 477 408 Q 496 451 512 500 Q 527 533 538 548 Q 553 564 540 573 Q 530 580 501 589 Q 479 596 466 584 Q 429 550 398 538 Q 386 532 394 527 Q 415 518 461 542 Q 473 546 477 540 Q 481 530 472 491 Q 457 424 439 403 Q 430 390 435 380 Q 439 373 455 375 Q 494 372 490 357 Q 505 332 462 225 L 448 196 Z" fill="black" /></g></svg>