<?xml version='1.0' encoding='utf-8'?>
<svg xmlns="http://www.w3.org/2000/svg" version="1.1" viewBox="0 0 1024 1024"><g transform="scale(1, -1) translate(0, -900)"><path d="M 553 547 Q 544 556 521 565 Q 512 569 503 565 Q 497 561 502 551 Q 503 544 507 536 Q 531 494 519 310 Q 506 229 520 205 Q 524 196 532 188 Q 541 178 549 188 Q 555 197 558 207 L 560 233 Q 561 249 561 275 Q 560 300 560 322 L 560 344 Q 560 383 560 412 L 560 432 Q 560 475 561 519 C 561 541 561 541 553 547 Z" fill="black" /></g></svg>