<?xml version='1.0' encoding='utf-8'?>
<svg xmlns="http://www.w3.org/2000/svg" version="1.1" viewBox="0 0 1024 1024"><g transform="scale(1, -1) translate(0, -900)"><path d="M 751 43 Q 761 19 781 -24 Q 788 -40 799 -40 Q 814 -37 823 -13 Q 853 41 868 201 Q 874 247 895 275 Q 911 294 900 306 Q 879 327 835 347 Q 817 357 786 346 Q 678 304 491 285 C 461 282 494 242 523 250 Q 524 253 617 269 L 650 276 Q 789 307 806 292 Q 813 288 813 268 Q 812 174 793 84 Q 792 68 785 66 C 773 38 739 71 751 43 Z" fill="black" /></g></svg>