<?xml version='1.0' encoding='utf-8'?>
<svg xmlns="http://www.w3.org/2000/svg" version="1.1" viewBox="0 0 1024 1024"><g transform="scale(1, -1) translate(0, -900)"><path d="M 714 604 Q 769 625 817 634 Q 830 635 833 632 Q 842 619 836 586 Q 826 495 802 454 Q 789 430 768 435 Q 749 442 733 451 Q 714 461 725 438 Q 756 396 770 366 Q 786 347 802 362 Q 859 402 881 540 Q 887 606 907 632 Q 917 644 912 653 Q 903 663 857 682 Q 838 689 821 677 Q 806 667 746 649 Q 685 630 633 623 Q 617 622 615 613 Q 614 606 636 596 Q 658 583 677 591 Q 678 592 682 592 L 714 604 Z" fill="black" /></g></svg>