<?xml version='1.0' encoding='utf-8'?>
<svg xmlns="http://www.w3.org/2000/svg" version="1.1" viewBox="0 0 1024 1024"><g transform="scale(1, -1) translate(0, -900)"><path d="M 693 652 Q 693 661 754 677 Q 758 678 763 677 Q 770 674 769 662 Q 756 541 763 515 Q 767 496 786 483 Q 811 467 863 468 Q 912 469 938 483 Q 951 489 943 502 Q 930 518 914 526 Q 904 532 883 523 Q 859 511 829 512 Q 810 512 804 526 Q 794 545 803 600 Q 807 634 839 668 Q 855 681 840 694 Q 819 710 796 721 Q 787 725 773 718 Q 731 697 675 682 Q 668 686 656 690 Q 641 697 633 693 Q 624 687 630 677 Q 651 656 643 547 Q 642 543 641 538 Q 635 502 615 456 Q 612 453 612 449 C 605 432 605 432 618 441 Q 642 447 668 509 Q 689 566 690 634 Q 690 640 693 652 Z" fill="black" /></g></svg>