<?xml version='1.0' encoding='utf-8'?>
<svg xmlns="http://www.w3.org/2000/svg" version="1.1" viewBox="0 0 1024 1024"><g transform="scale(1, -1) translate(0, -900)"><path d="M 518 402 Q 519 418 508 430 Q 490 445 463 452 Q 442 458 440 447 Q 437 437 446 430 Q 488 382 468 271 Q 456 234 428 193 Q 412 175 417 161 Q 424 146 444 133 Q 463 120 480 142 Q 538 190 733 197 Q 850 197 922 185 Q 938 181 951 188 Q 963 192 957 207 Q 947 225 927 236 Q 911 249 885 246 Q 864 245 816 242 Q 710 239 517 203 Q 496 199 500 224 Q 516 302 518 402 Z" fill="black" /></g></svg>