<?xml version='1.0' encoding='utf-8'?>
<svg xmlns="http://www.w3.org/2000/svg" version="1.1" viewBox="0 0 1024 1024"><g transform="scale(1, -1) translate(0, -900)"><path d="M 771 174 Q 772 180 777 185 Q 808 237 829 321 Q 833 352 850 368 Q 863 381 847 393 Q 828 406 799 416 Q 780 422 762 411 Q 725 390 674 380 Q 652 379 642 372 Q 635 366 650 358 Q 671 349 756 372 Q 775 379 776 356 Q 776 293 739 210 L 717 173 Q 713 169 709 162 Q 669 117 567 80 Q 554 76 563 70 Q 570 66 594 71 Q 690 86 743 137 L 771 174 Z" fill="black" /></g></svg>