<?xml version='1.0' encoding='utf-8'?>
<svg xmlns="http://www.w3.org/2000/svg" version="1.1" viewBox="0 0 1024 1024"><g transform="scale(1, -1) translate(0, -900)"><path d="M 567 730 Q 567 760 573 798 Q 577 813 567 820 Q 555 830 536 837 Q 526 840 519 836 Q 513 832 519 818 Q 531 787 529 756 Q 529 692 535 674 Q 539 653 561 637 Q 636 586 786 623 Q 793 626 803 628 Q 839 641 873 667 Q 886 680 875 698 Q 865 714 847 763 Q 846 775 840 778 Q 836 779 834 767 Q 818 710 806 693 Q 793 678 758 667 Q 671 643 607 665 Q 580 675 574 691 Q 568 701 567 717 L 567 730 Z" fill="black" /></g></svg>