<?xml version='1.0' encoding='utf-8'?>
<svg xmlns="http://www.w3.org/2000/svg" version="1.1" viewBox="0 0 1024 1024"><g transform="scale(1, -1) translate(0, -900)"><path d="M 510 278 Q 808 353 836 333 Q 855 326 858 297 Q 865 225 852 94 Q 853 72 832 71 Q 798 75 771 80 Q 755 81 759 73 Q 760 63 790 43 Q 832 12 857 -22 Q 870 -32 884 -25 Q 893 -19 906 17 Q 928 72 921 153 Q 906 310 920 334 Q 930 346 922 357 Q 912 367 869 385 Q 860 389 783 370 Q 738 367 602 334 Q 541 321 494 314 C 464 309 481 271 510 278 Z" fill="black" /></g></svg>