<?xml version='1.0' encoding='utf-8'?>
<svg xmlns="http://www.w3.org/2000/svg" version="1.1" viewBox="0 0 1024 1024"><g transform="scale(1, -1) translate(0, -900)"><path d="M 761 391 Q 762 390 765 385 Q 781 357 797 350 Q 807 343 820 362 Q 832 384 858 500 Q 865 528 885 550 Q 895 560 886 573 Q 873 588 834 609 Q 816 618 753 598 Q 747 598 710 588 L 668 578 Q 655 577 642 573 Q 596 561 562 554 C 533 548 553 512 580 525 Q 589 534 668 549 L 710 559 Q 783 581 803 568 Q 815 558 812 541 Q 791 420 779 407 C 767 382 755 400 761 391 Z" fill="black" /></g></svg>