<?xml version='1.0' encoding='utf-8'?>
<svg xmlns="http://www.w3.org/2000/svg" version="1.1" viewBox="0 0 1024 1024"><g transform="scale(1, -1) translate(0, -900)"><path d="M 369 527 Q 403 521 410 506 Q 416 488 386 444 Q 374 429 367 428 Q 358 425 331 437 Q 306 450 303 446 Q 299 439 310 431 Q 335 401 339 380 Q 340 368 349 363 Q 356 359 382 371 Q 413 389 438 447 Q 444 471 460 481 Q 469 484 470 490 Q 473 496 458 515 Q 443 534 432 540 Q 425 543 413 542 Q 404 542 380 549 C 351 557 340 533 369 527 Z" fill="black" /></g></svg>