<?xml version='1.0' encoding='utf-8'?>
<svg xmlns="http://www.w3.org/2000/svg" version="1.1" viewBox="0 0 1024 1024"><g transform="scale(1, -1) translate(0, -900)"><path d="M 474 143 Q 490 155 496 174 Q 505 210 464 259 Q 440 295 494 349 Q 500 356 508 362 Q 524 375 510 388 Q 495 401 469 412 Q 453 422 424 399 Q 373 368 356 369 Q 350 370 349 366 Q 348 362 355 359 Q 383 347 432 369 Q 438 372 444 366 Q 457 350 442 328 Q 405 289 436 245 Q 463 197 462 174 Q 463 158 458 147 Q 457 146 457 143 C 450 122 452 123 474 143 Z" fill="black" /></g></svg>