<?xml version='1.0' encoding='utf-8'?>
<svg xmlns="http://www.w3.org/2000/svg" version="1.1" viewBox="0 0 1024 1024"><g transform="scale(1, -1) translate(0, -900)"><path d="M 879 397 Q 869 416 851 471 Q 850 483 844 486 Q 840 487 838 475 Q 822 414 810 394 Q 783 364 697 370 Q 664 371 638 383 Q 611 396 606 420 L 605 434 Q 605 461 614 507 Q 618 520 609 528 Q 599 538 581 545 Q 580 546 576 546 C 566 550 566 550 565 545 Q 559 542 563 528 Q 573 498 571 469 Q 565 370 615 345 Q 628 339 647 332 Q 776 295 876 365 Q 889 378 879 397 Z" fill="black" /></g></svg>