<?xml version='1.0' encoding='utf-8'?>
<svg xmlns="http://www.w3.org/2000/svg" version="1.1" viewBox="0 0 1024 1024"><g transform="scale(1, -1) translate(0, -900)"><path d="M 658 554 Q 658 553 659 549 Q 660 536 671 536 Q 683 537 708 569 Q 723 608 752 629 Q 767 639 756 653 Q 743 666 706 689 Q 696 696 630 684 Q 617 684 604 680 L 559 673 Q 516 667 480 659 L 438 651 Q 399 645 372 642 Q 357 642 355 638 Q 352 634 366 624 Q 394 609 412 615 Q 424 619 442 623 L 481 632 Q 514 639 558 646 L 598 651 Q 661 663 684 655 Q 688 651 685 637 Q 673 601 667 584 L 658 554 Z" fill="black" /></g></svg>