<?xml version='1.0' encoding='utf-8'?>
<svg xmlns="http://www.w3.org/2000/svg" version="1.1" viewBox="0 0 1024 1024"><g transform="scale(1, -1) translate(0, -900)"><path d="M 778 511 Q 784 547 791 571 L 804 613 Q 820 647 832 657 Q 845 676 832 691 Q 816 703 766 723 Q 750 729 729 720 Q 686 701 646 689 L 599 678 Q 554 668 508 662 Q 493 661 495 651 Q 498 644 514 639 Q 536 629 568 641 Q 581 644 599 647 L 644 657 Q 731 679 741 671 Q 753 661 752 638 Q 751 619 748 601 L 743 567 Q 739 540 734 514 C 729 485 773 481 778 511 Z" fill="black" /></g></svg>