<?xml version='1.0' encoding='utf-8'?>
<svg xmlns="http://www.w3.org/2000/svg" version="1.1" viewBox="0 0 1024 1024"><g transform="scale(1, -1) translate(0, -900)"><path d="M 641 287 Q 641 372 641 459 L 641 489 Q 641 523 642 553 L 643 581 Q 643 624 644 657 L 646 689 Q 646 756 666 791 Q 673 806 655 820 Q 633 836 594 847 Q 578 851 566 839 Q 556 832 568 821 Q 596 796 599 761 Q 599 727 599 678 L 599 647 Q 598 613 598 573 L 598 545 Q 597 514 597 479 L 597 451 Q 597 444 593 275 L 592 244 Q 580 46 602 -8 Q 603 -9 605 -13 Q 618 -26 626 -8 Q 641 28 642 255 L 641 287 Z" fill="black" /></g></svg>