<?xml version='1.0' encoding='utf-8'?>
<svg xmlns="http://www.w3.org/2000/svg" version="1.1" viewBox="0 0 1024 1024"><g transform="scale(1, -1) translate(0, -900)"><path d="M 493 470 Q 571 558 619 670 L 634 712 Q 634 713 635 713 Q 650 767 673 799 Q 680 808 674 816 Q 662 835 634 855 Q 618 868 602 867 Q 583 866 593 846 Q 611 815 604 788 Q 594 742 580 703 L 564 660 Q 539 600 510 554 L 491 524 Q 452 469 379 410 Q 369 406 366 401 Q 362 397 376 395 Q 391 391 468 448 Q 469 449 473 452 L 493 470 Z" fill="black" /></g></svg>