<?xml version='1.0' encoding='utf-8'?>
<svg xmlns="http://www.w3.org/2000/svg" version="1.1" viewBox="0 0 1024 1024"><g transform="scale(1, -1) translate(0, -900)"><path d="M 683 282 Q 699 260 714 254 Q 723 248 734 267 Q 744 289 761 403 Q 767 428 785 451 Q 795 461 785 472 Q 772 485 735 505 Q 719 512 706 507 Q 687 500 658 494 Q 622 487 576 475 Q 545 468 519 461 C 490 453 497 426 526 433 Q 529 433 536 435 Q 587 451 678 466 Q 697 469 705 463 Q 718 456 715 438 Q 705 329 695 309 C 685 281 681 285 683 282 Z" fill="black" /></g></svg>