<?xml version='1.0' encoding='utf-8'?>
<svg xmlns="http://www.w3.org/2000/svg" version="1.1" viewBox="0 0 1024 1024"><g transform="scale(1, -1) translate(0, -900)"><path d="M 535 528 Q 535 525 545 501 Q 551 488 554 465 L 557 437 Q 557 407 558 377 L 558 347 Q 557 319 556 282 L 550 176 Q 546 130 531 76 Q 518 28 548 -7 Q 557 -19 565 -8 Q 580 13 582 132 Q 582 204 586 258 L 587 289 Q 587 325 589 354 L 590 382 Q 590 421 592 445 L 594 473 Q 593 483 595 485 Q 598 503 594 509 Q 591 524 563 535 C 536 548 526 553 535 528 Z" fill="black" /></g></svg>