<?xml version='1.0' encoding='utf-8'?>
<svg xmlns="http://www.w3.org/2000/svg" version="1.1" viewBox="0 0 1024 1024"><g transform="scale(1, -1) translate(0, -900)"><path d="M 569 480 Q 593 470 660 478 Q 834 505 838 495 Q 845 485 847 443 Q 854 271 834 175 Q 807 57 769 42 Q 759 39 701 54 Q 691 58 691 52 Q 690 48 701 39 Q 737 -1 753 -31 Q 760 -49 772 -49 Q 821 -42 861 45 Q 900 132 913 421 Q 913 454 932 477 Q 945 490 944 498 Q 943 505 924 518 Q 899 537 864 547 Q 843 553 779 533 Q 769 532 756 527 Q 719 518 579 493 C 549 488 539 485 569 480 Z" fill="black" /></g></svg>