<?xml version='1.0' encoding='utf-8'?>
<svg xmlns="http://www.w3.org/2000/svg" version="1.1" viewBox="0 0 1024 1024"><g transform="scale(1, -1) translate(0, -900)"><path d="M 700 246 Q 700 264 700 280 L 700 317 Q 700 336 700 354 L 700 374 L 700 402 Q 700 441 701 470 L 703 502 Q 704 517 706 528 Q 709 540 702 545 Q 689 557 676 563 C 650 579 631 583 644 556 Q 643 556 644 555 Q 659 534 659 488 L 661 461 Q 662 431 663 395 L 663 368 Q 663 340 663 308 L 662 273 Q 659 87 645 33 Q 636 0 669 -49 Q 679 -67 687 -70 Q 699 -71 703 -59 Q 713 -29 710 -1 Q 704 111 701 210 L 700 246 Z" fill="black" /></g></svg>