<?xml version='1.0' encoding='utf-8'?>
<svg xmlns="http://www.w3.org/2000/svg" version="1.1" viewBox="0 0 1024 1024"><g transform="scale(1, -1) translate(0, -900)"><path d="M 742 51 Q 752 26 777 -24 Q 784 -40 795 -40 Q 810 -37 819 -12 Q 843 34 858 193 Q 862 238 883 265 Q 899 284 887 296 Q 868 315 824 334 Q 806 344 776 332 Q 674 289 506 264 C 476 259 490 226 519 232 Q 523 232 619 254 L 655 262 Q 703 275 760 288 Q 784 292 795 283 Q 802 279 802 260 Q 802 170 786 83 Q 785 67 779 66 Q 778 65 773 66 C 752 44 737 63 742 51 Z" fill="black" /></g></svg>