<?xml version='1.0' encoding='utf-8'?>
<svg xmlns="http://www.w3.org/2000/svg" version="1.1" viewBox="0 0 1024 1024"><g transform="scale(1, -1) translate(0, -900)"><path d="M 682 64 Q 716 109 749 173 Q 762 200 782 217 Q 801 230 789 245 Q 777 257 748 269 Q 727 278 639 242 Q 542 218 518 214 Q 505 213 500 205 Q 496 198 515 191 Q 552 179 599 196 Q 669 223 682 223 Q 698 222 694 204 Q 676 138 642 92 L 619 65 Q 549 -4 401 -41 Q 388 -44 398 -53 Q 404 -57 449 -55 Q 558 -46 654 33 L 682 64 Z" fill="black" /></g></svg>