<?xml version='1.0' encoding='utf-8'?>
<svg xmlns="http://www.w3.org/2000/svg" version="1.1" viewBox="0 0 1024 1024"><g transform="scale(1, -1) translate(0, -900)"><path d="M 494 688 Q 487 695 467 704 Q 452 713 446 707 Q 442 703 447 691 Q 477 634 458 381 Q 457 353 442 327 Q 435 317 442 302 Q 449 287 456 281 Q 463 275 475 285 Q 523 324 670 340 Q 686 341 687 349 Q 686 359 665 371 Q 656 378 596 362 L 563 354 Q 538 350 507 341 Q 501 340 499 341 Q 495 342 494 352 Q 494 389 495 427 L 495 452 Q 496 491 497 531 L 497 553 Q 498 586 498 618 Q 498 648 502 670 C 504 682 504 682 494 688 Z" fill="black" /></g></svg>