<?xml version='1.0' encoding='utf-8'?>
<svg xmlns="http://www.w3.org/2000/svg" version="1.1" viewBox="0 0 1024 1024"><g transform="scale(1, -1) translate(0, -900)"><path d="M 730 343 Q 733 368 738 395 Q 742 408 733 416 Q 723 426 705 433 Q 695 437 689 433 Q 683 430 687 416 Q 697 386 695 357 Q 686 221 726 200 Q 736 196 753 190 Q 855 169 932 217 Q 948 230 935 252 Q 923 271 904 333 Q 903 346 897 350 Q 891 351 889 337 Q 870 270 857 248 Q 839 230 787 230 Q 766 230 751 235 Q 738 241 734 249 Q 724 273 728 323 L 730 343 Z" fill="black" /></g></svg>