<?xml version='1.0' encoding='utf-8'?>
<svg xmlns="http://www.w3.org/2000/svg" version="1.1" viewBox="0 0 1024 1024"><g transform="scale(1, -1) translate(0, -900)"><path d="M 598 520 Q 599 475 616 462 Q 655 434 742 457 Q 743 458 745 458 Q 764 465 784 478 Q 794 485 787 500 Q 780 510 769 541 Q 768 551 764 553 Q 761 554 758 545 Q 736 497 711 488 Q 675 479 648 485 Q 638 489 635 495 Q 629 507 630 532 L 633 560 Q 634 572 637 583 Q 640 596 631 602 Q 622 611 606 617 Q 597 620 592 616 Q 588 613 591 601 Q 601 574 599 549 Q 598 548 598 547 L 598 520 Z" fill="black" /></g></svg>