<?xml version='1.0' encoding='utf-8'?>
<svg xmlns="http://www.w3.org/2000/svg" version="1.1" viewBox="0 0 1024 1024"><g transform="scale(1, -1) translate(0, -900)"><path d="M 564 345 Q 564 352 566 356 Q 570 371 560 380 Q 541 399 526 402 Q 517 403 512 400 Q 505 396 513 385 Q 550 310 514 234 Q 511 231 509 227 Q 499 211 504 194 Q 511 169 524 160 Q 531 154 541 168 Q 566 195 649 260 Q 664 270 665 275 Q 666 285 651 278 Q 570 245 564 247 Q 557 251 558 269 Q 559 302 561 322 L 564 345 Z" fill="black" /></g></svg>