<?xml version='1.0' encoding='utf-8'?>
<svg xmlns="http://www.w3.org/2000/svg" version="1.1" viewBox="0 0 1024 1024"><g transform="scale(1, -1) translate(0, -900)"><path d="M 709 609 Q 672 602 639 592 L 599 582 Q 562 575 539 570 Q 524 570 523 565 Q 519 561 534 552 Q 562 539 580 545 Q 590 549 604 553 L 639 563 Q 667 572 707 579 L 744 586 Q 801 601 817 593 Q 821 589 818 572 Q 805 511 797 496 C 790 479 790 479 792 474 L 794 468 Q 797 456 807 457 Q 822 460 846 509 Q 859 549 886 572 Q 901 584 889 596 Q 876 609 836 629 Q 823 638 808 631 Q 784 624 755 618 Q 752 618 750 616 L 709 609 Z" fill="black" /></g></svg>