<?xml version='1.0' encoding='utf-8'?>
<svg xmlns="http://www.w3.org/2000/svg" version="1.1" viewBox="0 0 1024 1024"><g transform="scale(1, -1) translate(0, -900)"><path d="M 761 257 L 762 256 Q 765 244 775 245 Q 785 246 791 256 Q 798 266 816 314 Q 829 351 856 374 Q 871 386 859 397 Q 846 410 809 430 Q 800 434 734 423 Q 721 423 683 413 L 652 408 Q 631 405 613 400 Q 573 391 542 385 C 513 379 528 349 556 360 Q 556 361 558 361 Q 591 374 652 383 L 683 389 Q 770 407 785 398 Q 792 394 787 374 Q 771 296 764 281 C 757 262 757 262 761 257 Z" fill="black" /></g></svg>