<?xml version='1.0' encoding='utf-8'?>
<svg xmlns="http://www.w3.org/2000/svg" version="1.1" viewBox="0 0 1024 1024"><g transform="scale(1, -1) translate(0, -900)"><path d="M 646 204 Q 639 110 633 91 Q 629 60 652 24 Q 661 9 667 6 Q 676 5 679 15 Q 689 40 686 63 Q 682 160 682 248 L 682 279 Q 682 316 683 350 Q 683 371 683 389 L 683 413 Q 684 435 686 452 L 688 484 L 690 492 Q 691 501 686 506 Q 668 521 654 528 Q 644 531 638 525 Q 634 522 639 515 Q 648 502 650 473 L 652 446 Q 652 430 652 408 L 652 383 Q 652 343 651 292 Q 650 282 650 272 L 646 204 Z" fill="black" /></g></svg>