<?xml version='1.0' encoding='utf-8'?>
<svg xmlns="http://www.w3.org/2000/svg" version="1.1" viewBox="0 0 1024 1024"><g transform="scale(1, -1) translate(0, -900)"><path d="M 613 538 Q 610 490 627 473 Q 666 440 739 460 Q 755 464 771 476 Q 781 483 776 497 Q 770 510 764 549 Q 764 558 760 561 Q 757 564 753 554 Q 732 514 721 501 Q 717 497 705 494 Q 675 488 657 496 Q 642 505 642 532 Q 642 539 643 548 L 648 584 L 650 592 Q 654 604 646 610 Q 637 619 623 625 Q 614 628 609 624 Q 605 623 608 610 Q 614 591 614 571 L 613 538 Z" fill="black" /></g></svg>