<?xml version='1.0' encoding='utf-8'?>
<svg xmlns="http://www.w3.org/2000/svg" version="1.1" viewBox="0 0 1024 1024"><g transform="scale(1, -1) translate(0, -900)"><path d="M 646 255 Q 752 280 775 262 Q 791 258 793 232 Q 797 171 787 60 Q 787 38 766 37 Q 739 38 717 40 Q 702 41 707 33 Q 710 24 736 8 Q 769 -17 789 -44 Q 801 -54 812 -47 Q 819 -43 832 -11 Q 847 25 848 107 Q 836 242 850 264 Q 860 274 852 285 Q 842 295 804 310 Q 788 316 773 308 Q 754 301 695 293 Q 452 250 431 247 C 401 242 430 205 458 215 Q 465 215 475 221 Q 491 227 519 232 L 539 236 Q 575 245 626 252 L 646 255 Z" fill="black" /></g></svg>