<?xml version='1.0' encoding='utf-8'?>
<svg xmlns="http://www.w3.org/2000/svg" version="1.1" viewBox="0 0 1024 1024"><g transform="scale(1, -1) translate(0, -900)"><path d="M 735 605 Q 748 592 744 545 Q 741 470 784 453 Q 803 444 846 443 Q 897 443 935 471 Q 948 481 939 498 Q 930 514 918 563 Q 917 573 912 577 Q 908 580 905 568 Q 886 514 874 498 Q 870 492 854 489 Q 818 483 794 492 Q 784 496 781 504 Q 772 520 785 581 Q 789 596 765 612 C 757 619 757 619 758 642 Q 759 667 762 692 L 765 728 Q 766 758 770 786 Q 773 804 775 817 Q 784 841 768 854 Q 743 869 724 872 Q 712 873 706 868 Q 700 862 706 851 Q 719 832 721 818 Q 724 769 725 713 L 725 681 Q 725 659 725 632 C 725 627 725 627 735 605 Z" fill="black" /></g></svg>