<?xml version='1.0' encoding='utf-8'?>
<svg xmlns="http://www.w3.org/2000/svg" version="1.1" viewBox="0 0 1024 1024"><g transform="scale(1, -1) translate(0, -900)"><path d="M 712 473 Q 724 492 733 518 Q 739 542 754 554 Q 764 564 753 575 Q 740 587 716 597 Q 701 603 685 596 Q 651 577 602 569 Q 583 568 575 562 Q 569 558 582 550 Q 601 541 629 550 Q 654 557 680 563 Q 693 567 693 553 Q 693 523 674 488 L 654 459 Q 621 428 544 406 Q 532 405 539 398 Q 560 383 643 411 Q 665 421 685 439 L 712 473 Z" fill="black" /></g></svg>