<?xml version='1.0' encoding='utf-8'?>
<svg xmlns="http://www.w3.org/2000/svg" version="1.1" viewBox="0 0 1024 1024"><g transform="scale(1, -1) translate(0, -900)"><path d="M 312 330 Q 315 194 271 133 Q 235 118 279 60 Q 280 59 284 55 Q 296 48 307 63 Q 323 91 466 210 Q 484 222 488 230 Q 492 240 482 240 Q 472 240 359 177 Q 349 171 348 181 Q 355 269 357 342 L 357 387 Q 357 409 362 428 Q 366 441 358 451 Q 340 467 323 476 C 297 492 267 492 284 467 Q 305 446 310 371 L 312 330 Z" fill="black" /></g></svg>