<?xml version='1.0' encoding='utf-8'?>
<svg xmlns="http://www.w3.org/2000/svg" version="1.1" viewBox="0 0 1024 1024"><g transform="scale(1, -1) translate(0, -900)"><path d="M 516 548 Q 503 547 499 539 Q 498 532 505 528 Q 563 510 657 540 Q 679 546 681 539 Q 688 526 672 504 Q 497 239 504 134 Q 503 133 504 129 Q 508 95 535 74 Q 599 20 757 28 Q 842 32 940 78 Q 970 93 961 116 Q 937 174 922 269 Q 918 282 910 281 Q 904 281 901 265 Q 895 231 890 193 Q 883 141 843 118 Q 806 96 718 92 Q 631 88 597 102 Q 566 115 556 146 Q 523 245 680 443 Q 726 504 777 533 Q 801 545 793 557 Q 786 572 738 598 Q 719 610 693 597 Q 599 557 516 548 Z" fill="black" /></g></svg>