<?xml version='1.0' encoding='utf-8'?>
<svg xmlns="http://www.w3.org/2000/svg" version="1.1" viewBox="0 0 1024 1024"><g transform="scale(1, -1) translate(0, -900)"><path d="M 949 65 Q 968 81 948 117 Q 926 178 920 259 Q 919 271 911 280 Q 901 286 896 261 Q 863 123 855 111 Q 849 98 824 93 Q 730 69 666 94 Q 630 107 618 147 Q 600 210 609 442 Q 618 667 645 702 Q 654 726 633 740 Q 603 767 564 776 Q 543 780 535 771 Q 526 761 534 751 Q 555 732 559 674 Q 559 629 557 534 Q 545 228 569 135 Q 578 87 622 57 Q 707 6 867 30 Q 876 33 885 34 Q 930 47 949 65 Z" fill="black" /></g></svg>