<?xml version='1.0' encoding='utf-8'?>
<svg xmlns="http://www.w3.org/2000/svg" version="1.1" viewBox="0 0 1024 1024"><g transform="scale(1, -1) translate(0, -900)"><path d="M 662 158 Q 737 101 810 32 Q 826 17 837 15 Q 846 16 852 27 Q 859 39 853 71 Q 847 99 823 114 Q 783 144 689 197 L 648 220 Q 617 238 580 257 Q 559 267 561 287 Q 582 339 602 393 L 615 431 Q 682 645 698 664 Q 711 686 705 699 Q 692 718 645 750 Q 624 763 606 756 Q 593 749 602 731 Q 635 680 566 424 L 555 384 Q 546 336 515 289 Q 505 265 526 247 Q 580 219 626 185 L 662 158 Z" fill="black" /></g></svg>