<?xml version='1.0' encoding='utf-8'?>
<svg xmlns="http://www.w3.org/2000/svg" version="1.1" viewBox="0 0 1024 1024"><g transform="scale(1, -1) translate(0, -900)"><path d="M 282 316 Q 285 175 246 114 Q 209 80 253 34 Q 253 33 256 31 Q 268 24 279 39 Q 294 66 426 178 Q 444 190 448 198 Q 452 208 442 208 Q 426 207 331 153 Q 321 147 319 157 Q 326 251 327 329 L 326 374 Q 326 399 330 420 Q 334 433 326 444 Q 307 462 288 470 C 262 484 239 496 250 468 Q 250 464 255 455 Q 277 409 279 357 L 282 316 Z" fill="black" /></g></svg>