<?xml version='1.0' encoding='utf-8'?>
<svg xmlns="http://www.w3.org/2000/svg" version="1.1" viewBox="0 0 1024 1024"><g transform="scale(1, -1) translate(0, -900)"><path d="M 281 275 Q 277 145 240 91 Q 204 58 245 10 Q 245 9 248 7 Q 261 0 272 15 Q 287 43 427 161 Q 443 174 448 182 Q 452 192 442 192 Q 430 192 323 130 Q 316 124 313 132 Q 323 217 326 289 L 328 339 Q 328 366 333 387 Q 337 400 329 411 Q 313 427 296 436 C 271 452 245 456 257 428 Q 257 427 259 424 Q 280 376 281 319 L 281 275 Z" fill="black" /></g></svg>