<?xml version='1.0' encoding='utf-8'?>
<svg xmlns="http://www.w3.org/2000/svg" version="1.1" viewBox="0 0 1024 1024"><g transform="scale(1, -1) translate(0, -900)"><path d="M 670 685 Q 654 685 659 675 Q 666 663 688 654 Q 701 645 745 660 Q 820 693 834 656 Q 861 580 849 186 Q 848 171 848 154 Q 847 120 834 110 Q 819 98 744 114 Q 728 115 730 107 Q 731 100 744 95 Q 811 53 847 20 Q 868 2 879 5 Q 891 8 901 35 Q 914 78 912 142 Q 887 610 906 652 Q 918 671 908 683 Q 898 698 853 720 Q 834 729 816 724 Q 798 717 758 704 Q 716 692 670 685 Z" fill="black" /></g></svg>