<?xml version='1.0' encoding='utf-8'?>
<svg xmlns="http://www.w3.org/2000/svg" version="1.1" viewBox="0 0 1024 1024"><g transform="scale(1, -1) translate(0, -900)"><path d="M 971 34 Q 989 49 972 81 Q 954 136 950 208 Q 950 218 942 228 Q 932 234 928 210 Q 918 183 905 137 Q 889 70 855 61 Q 822 51 778 53 Q 744 52 723 61 Q 693 70 682 105 Q 672 142 666 268 L 665 303 Q 664 361 670 514 L 674 567 Q 683 696 703 729 Q 710 751 692 765 Q 664 790 625 800 Q 606 804 598 794 Q 589 785 597 775 Q 612 762 619 741 Q 623 713 620 547 L 618 499 Q 615 390 618 292 L 619 253 Q 622 78 664 40 Q 670 34 682 26 Q 737 -13 887 1 Q 902 4 915 7 Q 954 19 971 34 Z" fill="black" /></g></svg>