<?xml version='1.0' encoding='utf-8'?>
<svg xmlns="http://www.w3.org/2000/svg" version="1.1" viewBox="0 0 1024 1024"><g transform="scale(1, -1) translate(0, -900)"><path d="M 575 449 Q 576 483 576 519 Q 576 561 581 592 C 583 612 583 612 558 626 Q 549 632 535 639 Q 516 649 507 643 Q 500 636 508 621 Q 548 543 520 178 Q 517 138 493 102 Q 483 86 492 66 Q 501 44 511 35 Q 521 28 538 39 Q 587 73 664 91 Q 752 109 920 110 Q 947 110 947 123 Q 947 139 916 160 Q 898 175 770 151 Q 623 133 595 125 Q 583 122 578 127 Q 572 128 572 142 Q 573 202 574 267 L 574 297 Q 575 358 575 422 L 575 449 Z" fill="black" /></g></svg>