<?xml version='1.0' encoding='utf-8'?>
<svg xmlns="http://www.w3.org/2000/svg" version="1.1" viewBox="0 0 1024 1024"><g transform="scale(1, -1) translate(0, -900)"><path d="M 570 190 Q 604 256 625 368 L 633 418 Q 634 437 638 453 L 642 499 Q 642 640 668 723 Q 672 735 664 742 Q 645 758 610 772 Q 589 782 573 776 Q 554 769 569 751 Q 597 723 597 692 Q 598 580 590 489 L 586 443 Q 562 218 442 105 Q 415 81 380 53 Q 368 46 365 42 Q 361 35 377 36 Q 389 36 432 58 Q 463 73 510 113 Q 537 138 557 167 L 570 190 Z" fill="black" /></g></svg>