<?xml version='1.0' encoding='utf-8'?>
<svg xmlns="http://www.w3.org/2000/svg" version="1.1" viewBox="0 0 1024 1024"><g transform="scale(1, -1) translate(0, -900)"><path d="M 286 300 Q 282 168 261 130 Q 233 84 233 74 Q 233 50 258 27 Q 271 20 282 36 Q 294 58 406 154 Q 424 166 428 174 Q 432 184 422 184 Q 416 184 337 148 Q 324 141 323 153 Q 330 241 331 313 L 330 363 Q 330 391 334 412 Q 338 425 330 436 Q 317 448 304 455 C 279 471 247 475 259 447 Q 280 402 284 345 L 286 300 Z" fill="black" /></g></svg>