<?xml version='1.0' encoding='utf-8'?>
<svg xmlns="http://www.w3.org/2000/svg" version="1.1" viewBox="0 0 1024 1024"><g transform="scale(1, -1) translate(0, -900)"><path d="M 532 268 Q 601 313 802 345 Q 824 349 834 341 Q 850 319 840 280 Q 821 195 776 83 Q 766 59 745 48 Q 736 44 658 66 Q 640 75 639 66 Q 638 56 656 40 Q 690 -2 704 -36 Q 720 -70 747 -52 Q 802 -19 817 7 Q 836 44 885 238 Q 892 301 921 322 Q 936 338 930 348 Q 918 361 871 384 Q 846 399 766 376 Q 741 373 698 361 L 655 350 Q 607 340 565 325 Q 543 321 546 336 Q 558 442 573 487 Q 579 503 569 514 Q 551 527 536 535 Q 512 542 504 537 Q 497 531 503 518 Q 521 488 505 364 Q 502 349 474 314 Q 464 299 473 288 Q 483 278 505 263 Q 517 256 532 268 Z" fill="black" /></g></svg>