<?xml version='1.0' encoding='utf-8'?>
<svg xmlns="http://www.w3.org/2000/svg" version="1.1" viewBox="0 0 1024 1024"><g transform="scale(1, -1) translate(0, -900)"><path d="M 278 318 Q 278 186 235 125 Q 216 116 224 86 Q 234 59 247 47 Q 259 40 271 56 Q 283 80 402 182 Q 420 194 424 202 Q 428 212 418 212 Q 412 212 324 169 Q 314 163 313 173 Q 320 258 324 329 L 325 376 Q 325 403 330 424 Q 334 437 325 447 Q 310 460 296 469 C 271 486 235 489 252 464 Q 274 442 278 360 L 278 318 Z" fill="black" /></g></svg>