<?xml version='1.0' encoding='utf-8'?>
<svg xmlns="http://www.w3.org/2000/svg" version="1.1" viewBox="0 0 1024 1024"><g transform="scale(1, -1) translate(0, -900)"><path d="M 287 310 Q 287 181 249 123 Q 216 93 262 47 Q 263 46 267 42 Q 280 35 291 52 Q 303 83 433 222 Q 449 237 453 246 Q 456 256 446 255 Q 434 252 330 177 Q 329 173 326 176 Q 333 258 334 324 L 335 371 Q 335 393 339 410 Q 345 423 335 434 Q 322 447 308 455 C 283 472 251 473 262 445 Q 281 402 285 352 L 287 310 Z" fill="black" /></g></svg>