<?xml version='1.0' encoding='utf-8'?>
<svg xmlns="http://www.w3.org/2000/svg" version="1.1" viewBox="0 0 1024 1024"><g transform="scale(1, -1) translate(0, -900)"><path d="M 669 515 Q 648 386 580 256 Q 576 250 575 244 Q 574 234 582 237 Q 615 244 671 366 Q 672 370 674 373 L 682 394 Q 682 395 683 395 Q 713 482 715 526 L 720 560 Q 726 614 726 666 Q 729 774 730 775 Q 714 788 685 798 Q 667 805 657 801 Q 647 794 654 782 Q 670 761 675 691 Q 674 690 675 687 Q 678 579 672 548 L 669 515 Z" fill="black" /></g></svg>