<?xml version='1.0' encoding='utf-8'?>
<svg xmlns="http://www.w3.org/2000/svg" version="1.1" viewBox="0 0 1024 1024"><g transform="scale(1, -1) translate(0, -900)"><path d="M 292 318 Q 292 188 250 129 Q 220 117 254 60 Q 257 56 262 51 Q 274 44 286 60 Q 299 85 430 190 Q 448 202 452 210 Q 456 220 446 220 Q 439 220 341 172 Q 329 166 328 177 Q 335 262 337 331 L 337 378 Q 337 399 342 416 Q 346 429 337 439 Q 316 458 296 469 C 270 485 251 487 263 460 Q 263 457 267 451 Q 286 409 290 360 L 292 318 Z" fill="black" /></g></svg>