<?xml version='1.0' encoding='utf-8'?>
<svg xmlns="http://www.w3.org/2000/svg" version="1.1" viewBox="0 0 1024 1024"><g transform="scale(1, -1) translate(0, -900)"><path d="M 714 217 Q 756 286 783 394 Q 789 428 808 448 Q 823 463 804 477 Q 783 493 749 504 Q 727 511 706 498 Q 651 468 573 455 Q 555 454 546 449 C 517 442 514 439 543 431 Q 570 418 610 430 Q 655 442 700 453 Q 722 460 722 435 Q 722 347 676 254 L 651 213 Q 642 203 634 190 Q 582 133 448 86 Q 433 82 443 74 Q 450 70 478 75 Q 568 87 620 116 Q 654 137 683 171 L 714 217 Z" fill="black" /></g></svg>