<?xml version='1.0' encoding='utf-8'?>
<svg xmlns="http://www.w3.org/2000/svg" version="1.1" viewBox="0 0 1024 1024"><g transform="scale(1, -1) translate(0, -900)"><path d="M 643 396 Q 664 389 722 386 Q 747 383 758 371 Q 776 344 723 198 Q 696 129 669 119 Q 656 116 612 139 Q 575 160 570 154 Q 563 145 580 131 Q 619 92 632 47 Q 635 28 648 20 Q 661 13 697 35 Q 742 66 773 154 Q 825 335 840 349 Q 852 355 852 365 Q 853 375 827 399 Q 791 429 736 421 Q 661 427 653 430 C 623 435 614 403 643 396 Z" fill="black" /></g></svg>