<?xml version='1.0' encoding='utf-8'?>
<svg xmlns="http://www.w3.org/2000/svg" version="1.1" viewBox="0 0 1024 1024"><g transform="scale(1, -1) translate(0, -900)"><path d="M 546 449 Q 547 474 551 499 Q 557 587 565 602 C 568 615 568 615 559 623 Q 544 639 516 651 Q 497 661 484 656 Q 472 649 479 635 Q 497 608 497 543 Q 496 536 496 526 Q 493 372 456 256 Q 432 184 354 46 Q 350 40 347 34 Q 346 24 356 25 Q 389 31 468 167 Q 474 182 481 195 Q 520 285 531 356 L 534 372 Q 538 402 543 431 L 546 449 Z" fill="black" /></g></svg>