<?xml version='1.0' encoding='utf-8'?>
<svg xmlns="http://www.w3.org/2000/svg" version="1.1" viewBox="0 0 1024 1024"><g transform="scale(1, -1) translate(0, -900)"><path d="M 961 33 Q 992 43 980 75 Q 961 120 956 192 Q 955 211 949 216 Q 942 220 937 206 Q 909 106 890 91 Q 845 67 784 99 Q 724 138 726 233 Q 729 369 788 418 Q 815 439 785 451 Q 769 458 736 470 Q 714 479 691 463 Q 642 427 565 414 C 536 408 560 386 589 392 Q 613 396 676 412 Q 689 416 694 410 Q 700 401 687 297 Q 660 47 845 18 Q 858 17 874 16 Q 917 17 961 33 Z" fill="black" /></g></svg>