<?xml version='1.0' encoding='utf-8'?>
<svg xmlns="http://www.w3.org/2000/svg" version="1.1" viewBox="0 0 1024 1024"><g transform="scale(1, -1) translate(0, -900)"><path d="M 270 311 Q 273 173 230 112 Q 197 97 238 41 Q 239 38 244 35 Q 257 28 267 43 Q 282 71 418 185 Q 436 198 440 206 Q 444 216 434 216 Q 424 216 319 157 Q 309 151 307 161 Q 314 251 315 323 L 314 369 Q 314 393 318 412 Q 322 425 314 436 Q 298 451 281 460 C 256 476 227 483 239 456 Q 239 453 243 447 Q 264 404 267 353 L 270 311 Z" fill="black" /></g></svg>