<?xml version='1.0' encoding='utf-8'?>
<svg xmlns="http://www.w3.org/2000/svg" version="1.1" viewBox="0 0 1024 1024"><g transform="scale(1, -1) translate(0, -900)"><path d="M 572 670 Q 568 673 566 674 L 550 685 Q 541 691 529 695 Q 510 702 501 692 Q 494 686 503 675 Q 516 648 518 478 Q 518 394 507 345 Q 501 323 517 308 Q 538 290 561 306 Q 594 333 714 348 Q 831 372 854 350 Q 867 340 854 294 Q 830 116 797 70 Q 790 57 764 59 Q 730 69 698 78 Q 682 82 683 75 Q 683 69 691 62 Q 749 10 769 -27 Q 778 -48 796 -38 Q 859 -8 874 65 Q 896 159 912 265 Q 919 304 939 337 Q 952 353 940 367 Q 921 388 883 410 Q 861 423 832 409 Q 792 393 755 388 Q 703 382 594 360 Q 566 356 566 378 Q 565 448 565 522 Q 564 591 575 633 C 580 663 581 664 572 670 Z" fill="black" /></g></svg>