<?xml version='1.0' encoding='utf-8'?>
<svg xmlns="http://www.w3.org/2000/svg" version="1.1" viewBox="0 0 1024 1024"><g transform="scale(1, -1) translate(0, -900)"><path d="M 506 261 Q 476 260 478 253 Q 472 237 498 225 Q 526 206 541 210 Q 554 211 575 223 Q 704 286 719 267 Q 726 254 713 235 Q 704 220 685 173 Q 651 100 636 88 Q 606 60 620 16 Q 623 -3 632 -8 Q 641 -12 653 -2 Q 683 22 748 191 Q 769 242 797 260 Q 804 267 806 277 Q 807 290 774 309 Q 741 328 725 329 Q 718 328 710 322 Q 638 283 506 261 Z" fill="black" /></g></svg>