<?xml version='1.0' encoding='utf-8'?>
<svg xmlns="http://www.w3.org/2000/svg" version="1.1" viewBox="0 0 1024 1024"><g transform="scale(1, -1) translate(0, -900)"><path d="M 706 82 Q 693 81 630 113 Q 620 117 619 112 Q 618 108 628 97 Q 668 45 684 9 Q 693 -13 706 -14 Q 728 -15 748 6 Q 826 69 853 264 Q 865 357 874 484 Q 875 521 898 548 Q 911 561 910 570 Q 909 577 889 592 Q 862 611 827 622 Q 803 631 751 611 Q 603 575 557 564 C 528 557 515 546 545 545 Q 584 538 726 566 Q 790 579 801 570 Q 822 521 797 297 Q 781 183 745 119 Q 729 83 706 82 Z" fill="black" /></g></svg>