<?xml version='1.0' encoding='utf-8'?>
<svg xmlns="http://www.w3.org/2000/svg" version="1.1" viewBox="0 0 1024 1024"><g transform="scale(1, -1) translate(0, -900)"><path d="M 564 615 Q 715 645 791 656 Q 815 660 826 647 Q 839 640 844 579 Q 857 378 845 149 Q 845 115 832 106 Q 816 97 746 121 Q 730 125 730 115 Q 731 108 743 101 Q 806 52 838 13 Q 859 -6 871 -4 Q 884 -1 895 27 Q 911 72 912 137 Q 891 584 912 626 Q 925 647 914 659 Q 904 674 857 698 Q 838 708 766 689 Q 559 658 545 655 C 515 650 535 609 564 615 Z" fill="black" /></g></svg>