<?xml version='1.0' encoding='utf-8'?>
<svg xmlns="http://www.w3.org/2000/svg" version="1.1" viewBox="0 0 1024 1024"><g transform="scale(1, -1) translate(0, -900)"><path d="M 294 284 Q 290 173 266 130 Q 236 85 236 76 Q 236 49 260 28 Q 272 21 284 36 Q 300 61 441 167 Q 459 177 464 186 Q 468 196 459 196 Q 446 196 342 146 Q 329 140 329 153 Q 336 232 339 297 L 340 346 Q 341 350 341 355 Q 341 382 346 404 Q 350 417 341 427 Q 329 439 317 446 C 293 463 259 466 271 438 Q 293 392 294 328 L 294 284 Z" fill="black" /></g></svg>