<?xml version='1.0' encoding='utf-8'?>
<svg xmlns="http://www.w3.org/2000/svg" version="1.1" viewBox="0 0 1024 1024"><g transform="scale(1, -1) translate(0, -900)"><path d="M 706 166 Q 754 81 826 20 Q 884 -29 912 -28 Q 931 -24 925 4 Q 921 58 931 215 Q 931 237 923 239 Q 916 238 909 217 Q 894 171 881 131 Q 868 91 853 89 Q 840 89 815 110 Q 775 150 741 203 L 714 252 Q 683 316 662 396 L 652 439 Q 640 482 633 524 L 625 568 Q 610 673 619 746 Q 629 786 576 805 Q 542 820 523 812 Q 504 805 513 786 Q 559 747 559 715 Q 571 630 584 556 L 592 513 Q 601 468 610 428 L 621 386 Q 639 305 683 213 L 706 166 Z" fill="black" /></g></svg>