<?xml version='1.0' encoding='utf-8'?>
<svg xmlns="http://www.w3.org/2000/svg" version="1.1" viewBox="0 0 1024 1024"><g transform="scale(1, -1) translate(0, -900)"><path d="M 657 244 Q 656 337 655 474 L 655 528 Q 655 541 655 555 L 654 599 Q 655 690 671 751 Q 680 766 676 779 Q 669 789 615 821 Q 591 837 572 821 Q 566 817 573 801 Q 607 753 609 704 Q 610 650 613 590 L 614 463 Q 614 349 613 232 L 609 191 Q 603 145 592 100 Q 582 60 608 1 Q 615 -15 623 -19 Q 629 -26 636 -18 Q 663 6 659 105 Q 658 141 657 201 L 657 244 Z" fill="black" /></g></svg>