<?xml version='1.0' encoding='utf-8'?>
<svg xmlns="http://www.w3.org/2000/svg" version="1.1" viewBox="0 0 1024 1024"><g transform="scale(1, -1) translate(0, -900)"><path d="M 725 118 Q 756 72 760 47 Q 766 19 777 14 Q 792 11 809 44 Q 830 87 834 160 Q 821 310 817 461 L 816 511 Q 816 646 830 704 Q 846 734 792 753 Q 759 769 741 763 Q 725 756 740 735 Q 762 710 764 677 Q 765 659 767 499 L 768 457 Q 769 343 770 166 Q 770 147 759 138 Q 756 137 751 137 C 728 117 723 120 725 118 Z" fill="black" /></g></svg>