<?xml version='1.0' encoding='utf-8'?>
<svg xmlns="http://www.w3.org/2000/svg" version="1.1" viewBox="0 0 1024 1024"><g transform="scale(1, -1) translate(0, -900)"><path d="M 284 302 Q 284 161 252 109 Q 215 57 257 18 Q 270 11 281 27 Q 296 55 435 177 Q 451 190 456 198 Q 460 208 450 208 Q 437 208 330 142 Q 321 136 320 145 Q 327 239 329 315 L 329 359 Q 329 384 334 404 Q 338 417 330 427 Q 314 443 297 452 C 272 468 243 472 256 445 Q 256 444 259 439 Q 280 396 282 343 L 284 302 Z" fill="black" /></g></svg>