<?xml version='1.0' encoding='utf-8'?>
<svg xmlns="http://www.w3.org/2000/svg" version="1.1" viewBox="0 0 1024 1024"><g transform="scale(1, -1) translate(0, -900)"><path d="M 767 134 Q 798 97 820 60 Q 830 42 841 43 Q 857 44 872 78 Q 890 117 886 163 Q 876 302 868 562 Q 867 593 883 615 Q 892 628 882 637 Q 863 656 811 679 Q 793 688 778 679 Q 708 643 585 624 C 555 619 572 588 602 593 Q 632 596 766 628 Q 788 632 799 624 Q 832 588 815 175 Q 814 171 814 165 Q 810 152 800 152 C 782 128 756 147 767 134 Z" fill="black" /></g></svg>