<?xml version='1.0' encoding='utf-8'?>
<svg xmlns="http://www.w3.org/2000/svg" version="1.1" viewBox="0 0 1024 1024"><g transform="scale(1, -1) translate(0, -900)"><path d="M 286 307 Q 286 180 247 123 Q 211 90 253 42 Q 253 41 256 39 Q 268 32 279 47 Q 294 75 430 189 Q 448 202 452 210 Q 456 220 446 220 Q 436 220 331 161 Q 322 155 321 164 Q 330 249 332 318 L 333 364 Q 333 386 337 404 Q 346 425 301 452 C 276 469 249 471 261 444 Q 261 443 263 440 Q 282 398 285 349 L 286 307 Z" fill="black" /></g></svg>