<?xml version='1.0' encoding='utf-8'?>
<svg xmlns="http://www.w3.org/2000/svg" version="1.1" viewBox="0 0 1024 1024"><g transform="scale(1, -1) translate(0, -900)"><path d="M 296 314 Q 299 178 255 117 Q 219 102 263 44 Q 264 43 268 39 Q 280 32 291 47 Q 307 75 450 194 Q 468 206 472 214 Q 476 224 466 224 Q 456 224 343 161 Q 333 155 332 165 Q 339 253 341 325 L 341 370 Q 341 394 346 412 Q 350 425 342 435 Q 329 447 316 455 C 291 472 260 472 272 444 Q 291 404 294 355 L 296 314 Z" fill="black" /></g></svg>