<?xml version='1.0' encoding='utf-8'?>
<svg xmlns="http://www.w3.org/2000/svg" version="1.1" viewBox="0 0 1024 1024"><g transform="scale(1, -1) translate(0, -900)"><path d="M 265 312 Q 265 195 226 140 Q 208 113 242 75 Q 245 72 249 69 Q 262 62 272 79 Q 281 106 386 227 Q 402 242 405 250 Q 406 260 398 259 Q 386 256 307 199 Q 306 195 304 197 Q 308 267 310 326 L 310 372 Q 310 394 314 412 Q 318 425 310 435 Q 294 450 278 458 C 252 473 218 477 235 453 Q 257 431 263 355 L 265 312 Z" fill="black" /></g></svg>