<?xml version='1.0' encoding='utf-8'?>
<svg xmlns="http://www.w3.org/2000/svg" version="1.1" viewBox="0 0 1024 1024"><g transform="scale(1, -1) translate(0, -900)"><path d="M 713 400 Q 746 407 780 410 Q 808 414 812 396 Q 821 228 802 206 Q 795 200 738 207 Q 723 210 721 205 Q 718 201 729 192 Q 781 158 815 131 Q 828 121 839 133 Q 863 166 864 239 Q 858 344 868 403 Q 872 422 862 430 Q 837 452 819 461 Q 807 467 799 458 Q 793 451 717 432 L 659 421 Q 629 417 586 409 C 539 400 547 367 576 373 Q 582 374 589 375 Q 623 384 659 391 L 713 400 Z" fill="black" /></g></svg>