<?xml version='1.0' encoding='utf-8'?>
<svg xmlns="http://www.w3.org/2000/svg" version="1.1" viewBox="0 0 1024 1024"><g transform="scale(1, -1) translate(0, -900)"><path d="M 536 636 Q 526 643 503 655 Q 482 665 475 658 Q 468 651 476 637 Q 518 553 491 174 Q 488 134 465 97 Q 455 82 464 61 Q 473 39 483 31 Q 493 24 511 35 Q 611 107 908 110 Q 935 110 935 123 Q 935 139 904 160 Q 886 175 772 152 Q 606 131 567 122 Q 555 118 550 123 Q 544 124 543 139 Q 547 313 545 532 Q 545 577 549 608 C 551 627 551 627 536 636 Z" fill="black" /></g></svg>