<?xml version='1.0' encoding='utf-8'?>
<svg xmlns="http://www.w3.org/2000/svg" version="1.1" viewBox="0 0 1024 1024"><g transform="scale(1, -1) translate(0, -900)"><path d="M 767 160 Q 779 132 807 77 Q 816 58 827 60 Q 843 64 853 91 Q 889 164 891 262 Q 898 323 902 394 Q 906 445 931 476 Q 949 497 936 510 Q 912 532 864 554 Q 845 564 810 552 Q 689 507 486 486 C 456 483 495 445 525 450 Q 529 450 535 451 Q 572 460 624 469 L 663 476 Q 718 489 790 501 Q 817 507 829 494 Q 839 478 840 460 Q 841 330 818 202 Q 817 180 807 177 Q 804 176 796 178 C 770 163 766 162 767 160 Z" fill="black" /></g></svg>