<?xml version='1.0' encoding='utf-8'?>
<svg xmlns="http://www.w3.org/2000/svg" version="1.1" viewBox="0 0 1024 1024"><g transform="scale(1, -1) translate(0, -900)"><path d="M 263 290 Q 259 182 235 139 Q 196 79 234 46 Q 234 45 237 43 Q 249 36 260 51 Q 273 76 395 185 Q 411 198 416 206 Q 420 216 410 216 Q 395 215 310 166 Q 301 160 300 169 Q 307 241 309 302 L 310 348 Q 310 390 314 408 Q 320 429 283 452 C 258 469 220 473 236 448 Q 254 430 262 357 Q 262 345 263 333 L 263 290 Z" fill="black" /></g></svg>