<?xml version='1.0' encoding='utf-8'?>
<svg xmlns="http://www.w3.org/2000/svg" version="1.1" viewBox="0 0 1024 1024"><g transform="scale(1, -1) translate(0, -900)"><path d="M 276 309 Q 272 186 246 140 Q 219 98 223 84 Q 223 65 246 43 Q 259 36 270 52 Q 285 79 426 190 Q 444 202 448 210 Q 452 220 443 220 Q 428 220 324 164 Q 314 158 312 169 Q 319 253 321 322 L 322 368 Q 322 404 326 424 Q 330 437 322 447 Q 309 460 295 468 C 270 485 238 488 250 460 Q 274 409 275 351 L 276 309 Z" fill="black" /></g></svg>