<?xml version='1.0' encoding='utf-8'?>
<svg xmlns="http://www.w3.org/2000/svg" version="1.1" viewBox="0 0 1024 1024"><g transform="scale(1, -1) translate(0, -900)"><path d="M 653 164 Q 584 80 471 40 Q 458 34 470 27 Q 476 23 516 25 Q 607 35 683 124 L 713 165 Q 750 232 785 336 Q 797 367 815 386 Q 834 404 820 416 Q 805 428 773 438 Q 755 444 687 415 Q 633 399 583 389 C 554 383 543 362 573 359 Q 607 352 652 365 Q 695 384 703 385 Q 730 384 726 356 Q 708 265 677 203 Q 676 203 676 202 L 653 164 Z" fill="black" /></g></svg>