<?xml version='1.0' encoding='utf-8'?>
<svg xmlns="http://www.w3.org/2000/svg" version="1.1" viewBox="0 0 1024 1024"><g transform="scale(1, -1) translate(0, -900)"><path d="M 282 300 Q 282 186 249 138 Q 216 96 258 58 Q 270 51 280 66 Q 293 93 424 203 Q 440 215 444 223 Q 448 232 439 231 Q 427 231 329 175 Q 319 169 318 178 Q 324 251 325 312 L 325 357 Q 325 393 329 410 Q 333 423 324 432 Q 309 445 295 453 C 270 469 241 476 254 449 Q 255 448 257 443 Q 279 400 281 348 Q 281 345 281 341 L 282 300 Z" fill="black" /></g></svg>