<?xml version='1.0' encoding='utf-8'?>
<svg xmlns="http://www.w3.org/2000/svg" version="1.1" viewBox="0 0 1024 1024"><g transform="scale(1, -1) translate(0, -900)"><path d="M 677 -14 Q 683 -39 690 -49 Q 696 -56 703 -54 Q 718 -45 724 16 Q 733 95 730 173 Q 727 219 728 361 L 729 398 Q 729 438 730 485 L 732 526 Q 732 529 741 582 Q 745 600 730 609 Q 708 624 692 630 C 665 643 634 648 647 621 Q 646 618 662 592 Q 674 570 675 509 L 675 475 Q 675 435 675 386 L 675 354 Q 669 63 677 -14 Z" fill="black" /></g></svg>