<?xml version='1.0' encoding='utf-8'?>
<svg xmlns="http://www.w3.org/2000/svg" version="1.1" viewBox="0 0 1024 1024"><g transform="scale(1, -1) translate(0, -900)"><path d="M 298 315 Q 298 176 262 123 Q 226 90 268 42 Q 268 41 271 39 Q 283 32 294 48 Q 310 76 454 190 Q 472 202 476 210 Q 480 220 470 220 Q 452 219 348 160 Q 336 154 335 165 Q 342 253 343 326 L 343 372 Q 343 402 346 424 Q 350 437 342 448 Q 326 461 312 469 C 287 485 258 488 270 460 Q 291 415 296 356 L 298 315 Z" fill="black" /></g></svg>