<?xml version='1.0' encoding='utf-8'?>
<svg xmlns="http://www.w3.org/2000/svg" version="1.1" viewBox="0 0 1024 1024"><g transform="scale(1, -1) translate(0, -900)"><path d="M 583 389 Q 602 449 615 510 L 623 554 Q 629 657 662 733 Q 669 743 660 753 Q 642 772 606 790 Q 585 802 567 798 Q 545 791 560 772 Q 587 738 585 707 Q 578 617 565 544 L 556 496 Q 493 264 406 138 Q 376 99 331 51 Q 319 44 317 39 Q 313 32 330 33 Q 361 33 451 133 Q 505 199 547 294 L 556 315 Q 563 337 573 359 L 583 389 Z" fill="black" /></g></svg>