<?xml version='1.0' encoding='utf-8'?>
<svg xmlns="http://www.w3.org/2000/svg" version="1.1" viewBox="0 0 1024 1024"><g transform="scale(1, -1) translate(0, -900)"><path d="M 772 140 Q 782 115 805 68 Q 812 52 823 52 Q 838 55 847 79 Q 886 155 891 256 Q 898 320 905 393 Q 909 439 932 469 Q 948 488 936 502 Q 914 523 869 542 Q 850 552 819 540 Q 756 518 689 501 L 643 492 Q 579 483 494 475 C 464 472 479 432 509 437 Q 512 437 643 463 L 689 471 Q 740 481 799 492 Q 827 498 841 484 Q 851 466 851 448 Q 848 315 820 183 Q 817 161 807 158 Q 804 157 794 161 C 767 153 767 153 772 140 Z" fill="black" /></g></svg>