<?xml version='1.0' encoding='utf-8'?>
<svg xmlns="http://www.w3.org/2000/svg" version="1.1" viewBox="0 0 1024 1024"><g transform="scale(1, -1) translate(0, -900)"><path d="M 254 305 Q 250 179 230 141 Q 202 95 204 79 Q 204 61 229 38 Q 241 31 252 47 Q 265 75 399 189 Q 415 202 420 210 Q 424 220 414 220 Q 404 220 302 162 Q 293 156 291 165 Q 298 250 299 320 L 299 372 Q 299 402 302 424 Q 306 437 298 448 Q 283 461 270 469 C 245 486 215 486 227 458 Q 251 407 252 351 L 254 305 Z" fill="black" /></g></svg>