<?xml version='1.0' encoding='utf-8'?>
<svg xmlns="http://www.w3.org/2000/svg" version="1.1" viewBox="0 0 1024 1024"><g transform="scale(1, -1) translate(0, -900)"><path d="M 943 403 Q 958 409 948 425 Q 933 444 915 453 Q 902 460 879 449 Q 846 433 804 434 Q 777 434 769 454 Q 754 479 765 552 Q 768 598 809 645 Q 827 661 809 674 Q 785 693 759 705 Q 747 711 730 700 Q 664 667 591 650 C 562 643 585 605 613 616 Q 616 617 621 619 Q 717 655 721 654 Q 728 651 728 637 Q 724 582 719 535 Q 710 478 722 440 Q 729 415 751 400 Q 785 381 848 383 Q 911 386 943 403 Z" fill="black" /></g></svg>