<?xml version='1.0' encoding='utf-8'?>
<svg xmlns="http://www.w3.org/2000/svg" version="1.1" viewBox="0 0 1024 1024"><g transform="scale(1, -1) translate(0, -900)"><path d="M 280 297 Q 280 138 240 79 Q 200 43 247 -6 Q 248 -7 251 -9 Q 264 -16 275 0 Q 290 31 439 171 Q 457 184 460 194 Q 464 204 454 204 Q 442 204 321 123 Q 317 119 315 123 Q 325 228 328 312 L 329 365 Q 330 386 335 402 Q 339 415 330 426 Q 311 444 294 453 C 269 469 238 469 254 444 Q 275 423 279 344 L 280 297 Z" fill="black" /></g></svg>