<?xml version='1.0' encoding='utf-8'?>
<svg xmlns="http://www.w3.org/2000/svg" version="1.1" viewBox="0 0 1024 1024"><g transform="scale(1, -1) translate(0, -900)"><path d="M 695 423 Q 738 432 785 437 Q 812 440 814 421 Q 823 259 802 236 Q 795 233 747 241 Q 732 245 729 241 Q 725 237 736 226 Q 782 187 810 158 Q 825 145 838 158 Q 871 197 868 251 Q 862 374 874 428 Q 877 447 867 456 Q 842 478 823 489 Q 811 493 803 485 Q 797 478 704 454 Q 700 454 696 452 L 645 442 Q 606 438 548 427 C 518 422 524 391 554 394 Q 563 394 573 396 Q 607 406 645 413 L 695 423 Z" fill="black" /></g></svg>