<?xml version='1.0' encoding='utf-8'?>
<svg xmlns="http://www.w3.org/2000/svg" version="1.1" viewBox="0 0 1024 1024"><g transform="scale(1, -1) translate(0, -900)"><path d="M 571 388 Q 567 389 562 385 Q 478 346 473 349 Q 466 353 466 373 Q 466 488 471 517 Q 474 532 465 540 L 452 551 Q 436 564 424 566 Q 414 567 408 564 Q 401 557 410 546 Q 428 516 428 489 Q 434 395 427 362 Q 423 337 413 323 Q 401 305 409 286 Q 418 258 433 248 Q 442 242 453 258 Q 478 289 561 364 Q 567 370 571 373 C 593 393 599 398 571 388 Z" fill="black" /></g></svg>