<?xml version='1.0' encoding='utf-8'?>
<svg xmlns="http://www.w3.org/2000/svg" version="1.1" viewBox="0 0 1024 1024"><g transform="scale(1, -1) translate(0, -900)"><path d="M 289 323 Q 292 187 253 123 Q 220 110 262 52 Q 265 49 269 45 Q 282 38 292 55 Q 305 83 437 212 Q 453 225 457 234 Q 460 244 450 243 Q 441 243 335 172 Q 331 168 327 173 Q 334 264 335 336 L 334 383 Q 334 404 338 420 Q 342 433 334 444 Q 321 456 307 464 C 282 481 250 484 262 456 Q 281 416 287 367 L 289 323 Z" fill="black" /></g></svg>