<?xml version='1.0' encoding='utf-8'?>
<svg xmlns="http://www.w3.org/2000/svg" version="1.1" viewBox="0 0 1024 1024"><g transform="scale(1, -1) translate(0, -900)"><path d="M 805 172 Q 711 156 603 126 Q 578 117 595 138 Q 644 198 760 317 Q 794 357 824 378 Q 839 388 833 400 Q 823 422 787 446 Q 771 458 760 455 Q 748 452 749 435 Q 749 402 693 314 L 675 291 Q 674 290 672 287 Q 540 128 507 114 Q 491 104 494 89 Q 495 74 522 51 Q 532 38 550 50 Q 664 116 817 151 C 846 158 835 177 805 172 Z" fill="black" /></g></svg>