<?xml version='1.0' encoding='utf-8'?>
<svg xmlns="http://www.w3.org/2000/svg" version="1.1" viewBox="0 0 1024 1024"><g transform="scale(1, -1) translate(0, -900)"><path d="M 722 166 Q 761 224 787 317 Q 794 351 813 369 Q 829 384 810 399 Q 789 415 757 427 Q 735 434 714 422 Q 696 413 677 405 L 635 390 Q 610 384 581 379 Q 556 376 544 369 Q 537 362 554 354 Q 579 341 618 354 Q 663 366 708 377 Q 727 384 728 361 Q 728 288 683 201 L 657 162 Q 600 95 456 50 Q 441 46 451 38 Q 458 32 487 37 Q 625 53 689 123 L 722 166 Z" fill="black" /></g></svg>