<?xml version='1.0' encoding='utf-8'?>
<svg xmlns="http://www.w3.org/2000/svg" version="1.1" viewBox="0 0 1024 1024"><g transform="scale(1, -1) translate(0, -900)"><path d="M 617 303 Q 663 369 706 436 L 736 486 Q 754 517 769 547 Q 800 608 820 638 Q 827 651 819 666 Q 800 696 781 708 Q 765 721 748 720 Q 730 720 737 698 Q 744 659 737 624 Q 701 516 673 470 L 646 424 Q 621 388 591 343 L 559 299 Q 483 200 386 102 Q 379 96 379 89 Q 379 83 385 84 Q 395 85 404 92 Q 489 153 530 199 Q 543 215 559 231 L 617 303 Z" fill="black" /></g></svg>