<?xml version='1.0' encoding='utf-8'?>
<svg xmlns="http://www.w3.org/2000/svg" version="1.1" viewBox="0 0 1024 1024"><g transform="scale(1, -1) translate(0, -900)"><path d="M 279 347 Q 279 242 244 190 Q 208 154 253 107 L 255 106 Q 267 99 278 115 Q 291 143 420 261 Q 436 274 440 282 Q 444 292 434 291 Q 424 291 325 231 Q 318 227 316 233 Q 323 300 325 358 L 326 404 Q 326 423 330 440 Q 334 453 325 463 Q 312 476 298 485 C 274 503 235 505 252 480 Q 271 461 277 388 L 279 347 Z" fill="black" /></g></svg>