<?xml version='1.0' encoding='utf-8'?>
<svg xmlns="http://www.w3.org/2000/svg" version="1.1" viewBox="0 0 1024 1024"><g transform="scale(1, -1) translate(0, -900)"><path d="M 652 280 Q 656 320 665 365 Q 669 383 658 393 Q 645 406 622 415 Q 609 419 601 414 Q 594 410 600 393 Q 612 354 609 317 Q 599 163 612 121 Q 615 100 635 83 Q 716 23 878 60 Q 915 70 951 95 Q 969 108 957 132 Q 945 157 931 238 Q 931 253 925 258 Q 919 261 915 245 Q 887 160 869 133 Q 857 120 825 112 Q 747 93 689 115 Q 665 125 659 140 Q 644 170 649 255 L 652 280 Z" fill="black" /></g></svg>