<?xml version='1.0' encoding='utf-8'?>
<svg xmlns="http://www.w3.org/2000/svg" version="1.1" viewBox="0 0 1024 1024"><g transform="scale(1, -1) translate(0, -900)"><path d="M 264 283 Q 260 163 236 123 Q 209 83 215 65 Q 225 38 238 26 Q 251 19 261 35 Q 276 63 411 185 Q 429 198 432 206 Q 436 216 426 215 Q 416 215 309 151 Q 302 145 300 153 Q 307 232 309 296 L 310 344 Q 310 369 314 388 Q 318 401 309 411 Q 300 420 291 425 C 267 443 231 444 242 416 Q 260 374 262 325 L 264 283 Z" fill="black" /></g></svg>