<?xml version='1.0' encoding='utf-8'?>
<svg xmlns="http://www.w3.org/2000/svg" version="1.1" viewBox="0 0 1024 1024"><g transform="scale(1, -1) translate(0, -900)"><path d="M 727 250 Q 746 250 753 241 Q 763 226 756 190 Q 741 84 694 44 Q 682 34 655 47 Q 618 57 588 66 Q 572 70 575 60 Q 578 47 593 36 Q 639 0 665 -34 Q 680 -50 697 -39 Q 757 -3 772 46 Q 788 95 811 174 Q 815 199 831 221 Q 843 239 834 249 Q 822 267 793 283 Q 774 295 716 281 Q 626 263 620 268 Q 616 271 619 279 Q 625 309 636 347 C 642 370 642 370 636 376 Q 630 388 608 400 C 583 417 578 404 581 374 Q 593 311 550 253 Q 520 226 554 200 Q 564 193 582 208 Q 645 259 727 250 Z" fill="black" /></g></svg>