<?xml version='1.0' encoding='utf-8'?>
<svg xmlns="http://www.w3.org/2000/svg" version="1.1" viewBox="0 0 1024 1024"><g transform="scale(1, -1) translate(0, -900)"><path d="M 611 420 Q 629 420 720 445 Q 741 449 746 439 Q 767 384 767 140 Q 767 83 758 68 Q 754 61 732 66 Q 704 70 675 76 Q 656 80 657 71 Q 718 25 753 -9 Q 766 -28 783 -32 Q 792 -35 800 -25 Q 833 18 834 94 Q 798 383 823 430 Q 836 449 823 460 Q 801 478 764 492 Q 746 498 695 473 Q 659 458 600 449 C 570 444 581 416 611 420 Z" fill="black" /></g></svg>