<?xml version='1.0' encoding='utf-8'?>
<svg xmlns="http://www.w3.org/2000/svg" version="1.1" viewBox="0 0 1024 1024"><g transform="scale(1, -1) translate(0, -900)"><path d="M 551 629 Q 558 629 566 631 Q 800 700 823 678 Q 836 671 842 606 Q 858 392 848 149 Q 848 112 834 103 Q 821 90 741 100 Q 723 101 726 91 Q 727 84 742 80 Q 814 41 852 9 Q 874 -10 887 -7 Q 899 -3 909 26 Q 922 72 918 138 Q 888 615 908 658 Q 920 680 909 691 Q 899 706 851 729 Q 832 738 750 713 Q 576 676 537 669 C 508 663 522 623 551 629 Z" fill="black" /></g></svg>