<?xml version='1.0' encoding='utf-8'?>
<svg xmlns="http://www.w3.org/2000/svg" version="1.1" viewBox="0 0 1024 1024"><g transform="scale(1, -1) translate(0, -900)"><path d="M 575 452 Q 599 455 628 455 Q 644 454 651 460 Q 655 464 651 473 Q 645 482 616 495 Q 600 502 581 498 Q 578 497 576 496 L 533 485 Q 487 475 445 459 Q 439 455 438 458 Q 434 462 436 473 Q 449 540 458 560 Q 464 570 455 579 Q 442 595 420 605 Q 410 609 404 604 Q 400 600 406 588 Q 418 567 414 538 Q 410 480 385 451 Q 376 441 380 432 Q 387 417 399 405 Q 409 398 421 407 Q 448 431 514 443 L 575 452 Z" fill="black" /></g></svg>