<?xml version='1.0' encoding='utf-8'?>
<svg xmlns="http://www.w3.org/2000/svg" version="1.1" viewBox="0 0 1024 1024"><g transform="scale(1, -1) translate(0, -900)"><path d="M 746 163 Q 800 67 853 17 Q 914 -32 944 -30 Q 965 -26 957 3 Q 951 54 952 200 Q 951 222 943 222 Q 915 158 885 92 Q 873 86 846 112 Q 810 152 782 202 L 758 252 Q 721 345 701 496 L 695 541 Q 686 644 699 715 Q 712 758 656 781 Q 620 797 599 791 Q 578 784 588 764 Q 634 721 634 685 Q 641 597 651 524 L 657 482 Q 676 334 727 205 L 746 163 Z" fill="black" /></g></svg>