<?xml version='1.0' encoding='utf-8'?>
<svg xmlns="http://www.w3.org/2000/svg" version="1.1" viewBox="0 0 1024 1024"><g transform="scale(1, -1) translate(0, -900)"><path d="M 582 331 Q 558 190 481 118 Q 441 85 381 51 Q 369 44 369 39 Q 370 35 381 34 Q 397 31 437 46 Q 503 67 550 119 Q 608 182 628 309 L 634 383 Q 634 387 635 390 Q 639 505 645 612 L 648 658 Q 648 703 674 771 Q 681 786 670 797 Q 648 816 608 827 Q 583 834 573 827 Q 564 820 572 807 Q 599 762 599 646 L 599 602 Q 598 487 587 375 L 582 331 Z" fill="black" /></g></svg>