<?xml version='1.0' encoding='utf-8'?>
<svg xmlns="http://www.w3.org/2000/svg" version="1.1" viewBox="0 0 1024 1024"><g transform="scale(1, -1) translate(0, -900)"><path d="M 253 350 Q 249 233 224 191 Q 185 149 228 110 L 229 109 Q 241 102 250 117 Q 260 139 365 239 Q 381 251 384 259 Q 387 268 379 267 Q 369 267 293 222 Q 287 218 285 223 Q 292 299 294 361 L 295 411 Q 295 430 299 448 Q 303 460 295 469 Q 282 481 271 487 C 246 504 222 503 233 475 Q 249 438 252 393 L 253 350 Z" fill="black" /></g></svg>