<?xml version='1.0' encoding='utf-8'?>
<svg xmlns="http://www.w3.org/2000/svg" version="1.1" viewBox="0 0 1024 1024"><g transform="scale(1, -1) translate(0, -900)"><path d="M 279 312 Q 282 165 236 100 Q 215 67 255 29 Q 256 28 259 26 Q 272 19 283 36 Q 295 66 421 202 Q 437 217 441 226 Q 444 236 434 235 Q 425 235 322 161 Q 321 157 318 160 Q 325 251 327 325 L 327 373 Q 328 392 332 410 Q 336 423 327 435 Q 314 448 299 455 C 273 470 242 473 254 445 Q 273 405 277 356 L 279 312 Z" fill="black" /></g></svg>