<?xml version='1.0' encoding='utf-8'?>
<svg xmlns="http://www.w3.org/2000/svg" version="1.1" viewBox="0 0 1024 1024"><g transform="scale(1, -1) translate(0, -900)"><path d="M 672 456 Q 673 511 674 572 L 675 620 Q 678 705 695 764 Q 704 779 701 793 Q 694 803 638 837 Q 614 853 593 838 Q 589 834 594 818 Q 630 766 631 712 Q 631 661 632 605 L 633 561 Q 633 516 631 448 L 628 349 Q 624 180 619 148 Q 612 106 600 64 Q 588 22 615 -38 Q 622 -56 630 -59 Q 637 -66 644 -57 Q 651 -53 662 -32 Q 672 -7 671 25 Q 670 68 671 364 L 672 456 Z" fill="black" /></g></svg>