<?xml version='1.0' encoding='utf-8'?>
<svg xmlns="http://www.w3.org/2000/svg" version="1.1" viewBox="0 0 1024 1024"><g transform="scale(1, -1) translate(0, -900)"><path d="M 260 304 Q 260 172 224 114 Q 188 72 235 30 Q 248 23 258 39 Q 271 66 392 180 Q 408 193 412 202 Q 416 212 406 211 Q 390 210 304 155 Q 298 151 296 157 Q 303 245 305 317 L 305 366 Q 305 388 310 408 Q 314 421 306 431 Q 290 447 273 455 C 247 470 219 476 232 449 Q 232 448 235 443 Q 256 400 258 346 L 260 304 Z" fill="black" /></g></svg>