<?xml version='1.0' encoding='utf-8'?>
<svg xmlns="http://www.w3.org/2000/svg" version="1.1" viewBox="0 0 1024 1024"><g transform="scale(1, -1) translate(0, -900)"><path d="M 514 339 Q 502 349 487 355 Q 474 359 467 354 Q 460 350 465 333 Q 477 296 474 261 Q 467 129 477 92 Q 481 67 506 45 Q 599 -24 790 13 Q 800 16 812 18 Q 858 31 905 62 Q 923 78 910 102 Q 895 136 877 237 Q 876 253 869 258 Q 863 261 859 244 Q 837 135 817 101 Q 777 58 650 60 Q 601 61 564 75 Q 530 91 522 110 Q 500 158 526 305 C 530 329 530 329 514 339 Z" fill="black" /></g></svg>