<?xml version='1.0' encoding='utf-8'?>
<svg xmlns="http://www.w3.org/2000/svg" version="1.1" viewBox="0 0 1024 1024"><g transform="scale(1, -1) translate(0, -900)"><path d="M 521 342 Q 528 321 495 242 L 480 211 Q 447 150 378 71 Q 368 58 372 56 Q 376 53 384 60 Q 463 106 510 189 L 527 221 Q 581 338 586 342 Q 595 352 587 361 Q 562 386 525 377 Q 500 371 493 378 Q 489 381 494 390 Q 516 427 535 471 Q 551 498 565 511 Q 583 527 570 539 Q 560 549 529 561 Q 505 573 490 559 Q 445 531 412 521 Q 399 517 406 510 Q 422 497 479 513 Q 491 514 494 508 Q 498 498 487 465 Q 471 408 454 390 Q 444 377 448 364 Q 452 355 471 357 Q 493 360 510 352 Q 520 348 521 342 Z" fill="black" /></g></svg>