<?xml version='1.0' encoding='utf-8'?>
<svg xmlns="http://www.w3.org/2000/svg" version="1.1" viewBox="0 0 1024 1024"><g transform="scale(1, -1) translate(0, -900)"><path d="M 272 316 Q 272 172 231 116 Q 213 109 221 77 Q 231 50 245 39 Q 257 32 268 47 Q 281 72 403 181 Q 419 194 424 202 Q 428 212 418 212 Q 403 211 318 162 Q 309 156 308 165 Q 315 256 317 329 L 317 378 Q 317 402 322 420 Q 326 433 318 443 Q 305 456 291 464 C 266 481 227 485 244 460 Q 266 438 270 358 L 272 316 Z" fill="black" /></g></svg>