<?xml version='1.0' encoding='utf-8'?>
<svg xmlns="http://www.w3.org/2000/svg" version="1.1" viewBox="0 0 1024 1024"><g transform="scale(1, -1) translate(0, -900)"><path d="M 976 80 Q 960 114 941 217 Q 940 233 933 238 Q 926 241 922 223 Q 898 114 879 80 Q 855 50 776 59 Q 745 62 720 74 Q 678 98 679 175 Q 680 248 698 343 Q 702 362 691 372 Q 678 385 658 393 C 632 407 621 413 627 387 Q 626 383 630 372 Q 643 332 640 293 Q 630 127 643 81 Q 652 33 723 7 Q 864 -42 969 36 Q 991 52 976 80 Z" fill="black" /></g></svg>