<?xml version='1.0' encoding='utf-8'?>
<svg xmlns="http://www.w3.org/2000/svg" version="1.1" viewBox="0 0 1024 1024"><g transform="scale(1, -1) translate(0, -900)"><path d="M 798 112 Q 832 70 855 33 Q 865 14 876 15 Q 894 16 909 52 Q 928 92 923 141 Q 911 292 902 574 Q 901 607 918 631 Q 927 644 917 655 Q 896 676 840 700 Q 821 710 804 699 Q 746 672 656 654 Q 568 636 527 634 C 497 631 514 595 544 599 Q 568 599 779 645 Q 812 651 828 639 Q 867 600 850 179 Q 849 158 847 143 Q 846 136 841 132 C 833 103 779 136 798 112 Z" fill="black" /></g></svg>