<?xml version='1.0' encoding='utf-8'?>
<svg xmlns="http://www.w3.org/2000/svg" version="1.1" viewBox="0 0 1024 1024"><g transform="scale(1, -1) translate(0, -900)"><path d="M 570 58 Q 546 65 516 72 Q 504 75 505 68 Q 506 61 516 52 Q 579 6 621 -36 Q 631 -45 645 -30 Q 681 30 678 95 Q 669 257 669 264 L 669 304 Q 669 346 671 386 L 672 416 Q 672 426 674 434 Q 680 459 674 469 Q 665 481 636 497 C 610 512 587 516 599 489 Q 600 483 606 474 Q 615 453 616 407 L 616 377 Q 617 343 618 293 L 618 257 Q 621 74 608 57 Q 598 50 570 58 Z" fill="black" /></g></svg>