<?xml version='1.0' encoding='utf-8'?>
<svg xmlns="http://www.w3.org/2000/svg" version="1.1" viewBox="0 0 1024 1024"><g transform="scale(1, -1) translate(0, -900)"><path d="M 602 89 Q 563 95 526 100 Q 513 101 516 94 Q 517 87 528 81 Q 610 26 643 -11 Q 658 -27 673 -13 Q 707 27 701 93 Q 697 130 693 357 L 693 401 Q 696 428 703 447 Q 712 466 695 479 Q 670 501 639 510 Q 620 516 613 508 Q 607 502 618 487 Q 639 450 640 391 L 642 351 Q 646 207 641 125 Q 640 103 627 93 Q 618 86 602 89 Z" fill="black" /></g></svg>