<?xml version='1.0' encoding='utf-8'?>
<svg xmlns="http://www.w3.org/2000/svg" version="1.1" viewBox="0 0 1024 1024"><g transform="scale(1, -1) translate(0, -900)"><path d="M 272 313 Q 272 175 234 123 Q 198 90 240 42 Q 240 41 243 39 Q 256 32 267 47 Q 282 75 422 190 Q 440 202 444 210 Q 448 220 438 220 Q 423 219 320 161 Q 310 155 308 165 Q 315 253 317 326 L 317 376 Q 317 401 322 420 Q 326 433 318 443 Q 300 459 283 469 C 258 486 234 498 243 469 Q 242 465 247 455 Q 268 412 270 358 L 272 313 Z" fill="black" /></g></svg>