<?xml version='1.0' encoding='utf-8'?>
<svg xmlns="http://www.w3.org/2000/svg" version="1.1" viewBox="0 0 1024 1024"><g transform="scale(1, -1) translate(0, -900)"><path d="M 270 308 Q 270 170 225 105 Q 204 96 214 65 Q 224 35 238 24 Q 251 17 263 32 Q 276 60 409 172 Q 428 185 432 194 Q 436 204 426 204 Q 420 204 317 152 Q 307 145 306 155 Q 316 246 317 322 L 318 371 Q 319 390 323 406 Q 327 419 319 430 Q 301 446 285 455 C 260 471 230 481 241 453 Q 241 449 245 443 Q 264 400 268 351 L 270 308 Z" fill="black" /></g></svg>