<?xml version='1.0' encoding='utf-8'?>
<svg xmlns="http://www.w3.org/2000/svg" version="1.1" viewBox="0 0 1024 1024"><g transform="scale(1, -1) translate(0, -900)"><path d="M 655 444 Q 656 447 659 449 Q 701 507 744 581 Q 760 611 792 642 Q 805 655 800 663 Q 797 673 734 690 Q 715 699 696 683 Q 666 662 587 638 C 558 629 537 606 567 606 Q 594 602 662 626 Q 681 633 688 625 Q 692 618 681 597 Q 654 534 615 471 L 596 443 Q 529 355 441 267 Q 428 254 442 254 Q 452 255 494 283 Q 534 307 577 352 Q 602 380 630 413 L 655 444 Z" fill="black" /></g></svg>