<?xml version='1.0' encoding='utf-8'?>
<svg xmlns="http://www.w3.org/2000/svg" version="1.1" viewBox="0 0 1024 1024"><g transform="scale(1, -1) translate(0, -900)"><path d="M 709 444 Q 721 651 749 688 Q 758 710 739 724 Q 711 751 673 761 Q 654 765 646 756 Q 637 747 644 737 Q 663 719 667 661 Q 666 616 662 523 Q 635 133 690 77 Q 771 14 917 33 Q 924 34 932 36 Q 969 46 986 61 Q 1002 74 985 103 Q 966 152 959 216 Q 958 226 950 236 Q 940 242 937 218 Q 901 112 897 106 Q 893 96 873 93 Q 801 74 749 97 Q 725 106 711 141 Q 693 195 708 420 L 709 444 Z" fill="black" /></g></svg>