<?xml version='1.0' encoding='utf-8'?>
<svg xmlns="http://www.w3.org/2000/svg" version="1.1" viewBox="0 0 1024 1024"><g transform="scale(1, -1) translate(0, -900)"><path d="M 678 451 Q 717 461 760 468 Q 779 474 791 463 Q 801 459 804 415 Q 817 273 811 108 Q 811 84 802 78 Q 789 66 719 75 Q 703 76 706 67 Q 707 61 720 57 Q 784 21 818 -7 Q 837 -23 849 -21 Q 861 -18 869 8 Q 882 50 878 110 Q 851 411 868 445 Q 878 464 869 475 Q 859 488 816 509 Q 800 516 782 512 Q 746 499 678 480 L 630 469 Q 572 457 512 447 C 482 442 494 401 522 411 Q 528 417 630 440 L 678 451 Z" fill="black" /></g></svg>