<?xml version='1.0' encoding='utf-8'?>
<svg xmlns="http://www.w3.org/2000/svg" version="1.1" viewBox="0 0 1024 1024"><g transform="scale(1, -1) translate(0, -900)"><path d="M 248 313 Q 244 192 207 140 Q 192 134 198 103 Q 208 76 220 66 Q 232 59 243 74 Q 255 101 377 214 Q 393 227 396 235 Q 399 244 390 243 Q 381 243 286 185 Q 282 181 280 185 Q 289 264 292 328 L 293 378 Q 293 379 294 379 Q 295 404 300 425 Q 304 438 296 448 Q 289 455 281 461 C 258 480 224 476 234 448 Q 249 409 249 357 L 248 313 Z" fill="black" /></g></svg>