<?xml version='1.0' encoding='utf-8'?>
<svg xmlns="http://www.w3.org/2000/svg" version="1.1" viewBox="0 0 1024 1024"><g transform="scale(1, -1) translate(0, -900)"><path d="M 655 398 Q 712 416 750 423 C 779 429 765 449 735 444 Q 647 431 556 408 Q 546 405 543 408 Q 542 411 546 419 Q 631 537 650 557 Q 660 566 655 577 Q 651 586 624 598 C 597 611 568 617 575 588 L 576 587 Q 591 550 529 457 Q 508 426 464 395 Q 451 385 455 374 Q 459 359 483 341 Q 493 331 505 341 Q 541 371 627 390 L 655 398 Z" fill="black" /></g></svg>