<?xml version='1.0' encoding='utf-8'?>
<svg xmlns="http://www.w3.org/2000/svg" version="1.1" viewBox="0 0 1024 1024"><g transform="scale(1, -1) translate(0, -900)"><path d="M 970 89 Q 957 116 940 199 Q 939 214 933 218 Q 927 221 924 205 Q 903 115 887 88 Q 862 57 782 65 Q 751 69 725 81 Q 682 106 682 182 Q 683 254 699 348 Q 703 366 691 376 Q 678 389 655 398 C 628 411 621 415 627 390 Q 627 386 630 376 Q 643 336 641 297 Q 632 134 646 89 Q 650 67 670 48 Q 752 -21 899 16 Q 933 26 965 51 Q 983 64 970 89 Z" fill="black" /></g></svg>