<?xml version='1.0' encoding='utf-8'?>
<svg xmlns="http://www.w3.org/2000/svg" version="1.1" viewBox="0 0 1024 1024"><g transform="scale(1, -1) translate(0, -900)"><path d="M 766 107 Q 751 85 736 89 Q 705 98 660 110 Q 644 114 643 110 Q 643 106 661 91 Q 701 55 725 11 Q 735 -5 745 -8 Q 752 -9 772 6 Q 827 55 861 131 Q 892 204 916 400 Q 922 427 935 439 Q 948 451 934 467 Q 918 482 888 499 Q 866 512 795 492 Q 785 492 684 472 Q 669 463 664 477 Q 664 496 735 609 Q 772 664 790 672 Q 802 679 801 685 Q 801 692 795 697 Q 773 718 745 728 Q 726 735 696 722 Q 608 692 555 695 Q 540 696 537 691 Q 534 687 540 677 Q 547 667 562 658 Q 577 646 597 651 Q 652 667 697 677 Q 716 678 716 671 Q 719 656 650 529 Q 649 528 648 525 Q 632 497 606 469 Q 588 454 603 420 Q 603 414 624 415 L 653 428 Q 681 438 731 447 L 772 455 Q 803 462 824 462 Q 848 461 851 450 Q 875 377 816 204 Q 783 129 766 107 Z" fill="black" /></g></svg>