<?xml version='1.0' encoding='utf-8'?>
<svg xmlns="http://www.w3.org/2000/svg" version="1.1" viewBox="0 0 1024 1024"><g transform="scale(1, -1) translate(0, -900)"><path d="M 264 306 Q 264 165 217 106 Q 195 76 234 35 L 236 34 Q 248 27 259 43 Q 272 71 404 196 Q 420 209 424 218 Q 428 228 418 227 Q 406 227 304 160 Q 300 156 297 160 Q 307 248 311 320 L 312 370 Q 313 383 317 395 Q 321 408 313 419 Q 292 438 273 449 C 248 465 229 472 239 444 Q 239 440 243 432 Q 259 395 263 350 L 264 306 Z" fill="black" /></g></svg>