<?xml version='1.0' encoding='utf-8'?>
<svg xmlns="http://www.w3.org/2000/svg" version="1.1" viewBox="0 0 1024 1024"><g transform="scale(1, -1) translate(0, -900)"><path d="M 771 372 Q 786 353 801 345 Q 811 338 827 359 Q 843 387 871 542 Q 880 575 904 600 Q 917 613 905 627 Q 889 643 845 670 Q 830 679 758 662 Q 743 662 617 637 Q 565 627 522 620 C 492 615 516 578 545 587 Q 545 588 546 588 Q 583 598 634 607 L 683 616 Q 788 637 805 622 Q 820 604 817 587 Q 792 416 770 406 C 757 388 757 388 771 372 Z" fill="black" /></g></svg>