<?xml version='1.0' encoding='utf-8'?>
<svg xmlns="http://www.w3.org/2000/svg" version="1.1" viewBox="0 0 1024 1024"><g transform="scale(1, -1) translate(0, -900)"><path d="M 650 472 Q 701 184 866 32 Q 867 31 871 28 Q 901 4 917 3 Q 932 2 940 14 Q 949 24 940 70 Q 931 124 941 231 Q 945 261 935 263 Q 926 264 917 238 Q 887 118 865 132 Q 831 159 785 235 Q 725 340 697 483 L 686 536 Q 662 650 665 715 Q 678 752 648 773 Q 644 776 639 778 Q 617 793 602 794 Q 589 794 589 793 Q 565 786 585 762 Q 598 756 626 597 Q 630 560 640 519 L 650 472 Z" fill="black" /></g></svg>