<?xml version='1.0' encoding='utf-8'?>
<svg xmlns="http://www.w3.org/2000/svg" version="1.1" viewBox="0 0 1024 1024"><g transform="scale(1, -1) translate(0, -900)"><path d="M 214 308 Q 217 164 175 104 Q 154 79 192 40 Q 192 39 195 37 Q 208 30 217 46 Q 227 70 326 177 Q 342 190 345 199 Q 346 208 338 207 Q 334 207 256 159 Q 252 155 250 158 Q 257 249 257 322 L 257 367 Q 257 389 261 406 Q 265 419 256 428 Q 240 443 226 451 C 201 468 175 479 185 451 Q 184 447 189 439 Q 210 397 212 348 L 214 308 Z" fill="black" /></g></svg>