<?xml version='1.0' encoding='utf-8'?>
<svg xmlns="http://www.w3.org/2000/svg" version="1.1" viewBox="0 0 1024 1024"><g transform="scale(1, -1) translate(0, -900)"><path d="M 464 183 Q 477 190 482 207 Q 489 241 455 292 Q 428 343 495 432 Q 514 448 496 462 Q 478 475 448 486 Q 430 495 395 466 Q 340 439 336 439 Q 329 439 328 435 Q 327 431 334 427 Q 365 414 407 435 Q 416 438 423 428 Q 445 409 425 381 Q 382 335 423 278 Q 447 239 448 213 Q 449 197 446 188 C 442 165 442 165 464 183 Z" fill="black" /></g></svg>