<?xml version='1.0' encoding='utf-8'?>
<svg xmlns="http://www.w3.org/2000/svg" version="1.1" viewBox="0 0 1024 1024"><g transform="scale(1, -1) translate(0, -900)"><path d="M 272 314 Q 268 188 245 146 Q 211 94 239 59 Q 242 55 247 50 Q 260 43 270 59 Q 285 87 420 212 Q 436 225 440 234 Q 444 244 434 243 Q 421 243 316 175 Q 310 171 308 177 Q 315 259 317 328 L 317 377 Q 317 401 322 420 Q 326 433 317 443 Q 307 453 295 460 C 270 477 235 480 247 453 Q 268 410 270 359 L 272 314 Z" fill="black" /></g></svg>