<?xml version='1.0' encoding='utf-8'?>
<svg xmlns="http://www.w3.org/2000/svg" version="1.1" viewBox="0 0 1024 1024"><g transform="scale(1, -1) translate(0, -900)"><path d="M 785 478 Q 830 554 846 593 Q 846 614 876 645 Q 892 660 881 671 Q 868 681 840 691 Q 819 697 796 683 Q 771 673 739 662 Q 705 652 650 643 Q 638 642 634 636 Q 631 629 647 623 Q 680 613 722 626 Q 771 645 780 646 Q 802 645 797 621 Q 782 545 752 507 L 729 479 Q 690 440 623 419 Q 611 415 622 408 Q 626 404 655 406 Q 701 412 755 449 L 785 478 Z" fill="black" /></g></svg>