<?xml version='1.0' encoding='utf-8'?>
<svg xmlns="http://www.w3.org/2000/svg" version="1.1" viewBox="0 0 1024 1024"><g transform="scale(1, -1) translate(0, -900)"><path d="M 664 664 Q 649 665 653 655 Q 659 643 679 633 Q 692 626 740 638 Q 815 663 829 643 Q 842 636 848 572 Q 864 361 853 120 Q 852 86 839 75 Q 823 60 735 68 Q 719 68 722 60 Q 723 53 737 49 Q 816 15 860 -15 Q 881 -31 893 -29 Q 905 -25 913 3 Q 925 46 920 110 Q 899 441 900 564 Q 901 601 912 623 Q 924 642 914 654 Q 904 667 861 691 Q 842 700 825 696 Q 804 689 760 678 Q 714 669 664 664 Z" fill="black" /></g></svg>