<?xml version='1.0' encoding='utf-8'?>
<svg xmlns="http://www.w3.org/2000/svg" version="1.1" viewBox="0 0 1024 1024"><g transform="scale(1, -1) translate(0, -900)"><path d="M 607 -28 Q 611 -52 618 -61 Q 624 -68 631 -66 Q 644 -57 651 -1 Q 658 65 654 172 L 654 208 Q 654 235 655 268 L 656 310 Q 656 335 657 365 L 660 407 Q 660 410 661 412 Q 664 431 667 445 Q 670 461 656 471 Q 625 492 611 494 Q 601 498 591 493 C 575 491 575 491 579 482 Q 578 479 591 457 Q 601 438 603 390 L 604 354 Q 604 327 603 296 L 603 259 Q 603 231 603 200 L 603 165 Q 603 6 607 -28 Z" fill="black" /></g></svg>