<?xml version='1.0' encoding='utf-8'?>
<svg xmlns="http://www.w3.org/2000/svg" version="1.1" viewBox="0 0 1024 1024"><g transform="scale(1, -1) translate(0, -900)"><path d="M 591 493 Q 613 515 638 540 L 661 566 Q 769 699 779 707 Q 792 717 788 725 Q 787 732 732 753 Q 716 762 698 750 Q 682 740 655 730 Q 621 720 590 712 C 561 704 544 693 574 689 Q 596 680 662 700 Q 680 704 685 699 Q 688 693 678 677 Q 656 634 623 590 L 605 567 Q 592 552 579 535 Q 527 477 425 397 Q 412 387 425 386 Q 455 386 554 460 Q 557 466 579 482 L 591 493 Z" fill="black" /></g></svg>