<?xml version='1.0' encoding='utf-8'?>
<svg xmlns="http://www.w3.org/2000/svg" version="1.1" viewBox="0 0 1024 1024"><g transform="scale(1, -1) translate(0, -900)"><path d="M 989 109 Q 976 134 957 208 Q 956 221 949 226 Q 943 229 940 213 Q 921 132 906 106 Q 899 96 877 91 Q 826 79 781 101 Q 747 119 744 184 Q 745 245 757 324 Q 761 340 749 350 Q 736 363 715 370 Q 702 374 695 369 Q 688 365 694 348 Q 707 312 705 277 Q 701 141 712 104 Q 716 85 734 68 Q 794 13 920 37 Q 924 40 929 40 Q 957 49 985 71 Q 1001 86 989 109 Z" fill="black" /></g></svg>