<?xml version='1.0' encoding='utf-8'?>
<svg xmlns="http://www.w3.org/2000/svg" version="1.1" viewBox="0 0 1024 1024"><g transform="scale(1, -1) translate(0, -900)"><path d="M 563 466 Q 563 491 567 516 Q 571 538 567 547 Q 560 557 532 572 C 506 587 494 582 504 554 Q 505 554 506 552 Q 515 534 515 456 L 515 411 Q 515 369 514 314 L 514 274 Q 514 130 504 117 Q 497 111 435 131 Q 425 134 425 128 Q 425 121 433 113 Q 481 67 511 31 Q 521 22 533 36 Q 563 78 565 170 Q 559 275 559 303 L 559 335 Q 559 381 561 425 L 563 466 Z" fill="black" /></g></svg>