<?xml version='1.0' encoding='utf-8'?>
<svg xmlns="http://www.w3.org/2000/svg" version="1.1" viewBox="0 0 1024 1024"><g transform="scale(1, -1) translate(0, -900)"><path d="M 652 656 Q 636 657 641 647 Q 647 635 667 625 Q 679 618 726 630 Q 799 657 813 634 Q 826 627 832 564 Q 850 353 841 113 Q 840 77 827 67 Q 811 54 724 64 Q 708 64 710 56 Q 711 49 725 45 Q 804 9 847 -22 Q 868 -40 880 -36 Q 892 -32 900 -5 Q 913 38 908 102 Q 886 433 885 556 Q 885 593 896 615 Q 908 634 898 646 Q 888 661 845 683 Q 826 692 762 674 Q 657 658 652 656 Z" fill="black" /></g></svg>