<?xml version='1.0' encoding='utf-8'?>
<svg xmlns="http://www.w3.org/2000/svg" version="1.1" viewBox="0 0 1024 1024"><g transform="scale(1, -1) translate(0, -900)"><path d="M 571 342 Q 626 361 670 368 Q 686 372 692 366 Q 696 359 690 345 Q 668 282 644 258 Q 634 251 637 238 Q 641 219 652 211 Q 662 205 674 214 Q 716 239 757 245 Q 779 248 785 239 Q 792 226 789 200 Q 782 133 755 81 Q 748 63 731 57 Q 713 57 640 86 Q 613 98 634 70 Q 671 22 699 -19 Q 714 -40 735 -30 Q 769 -14 788 11 Q 810 38 832 132 Q 848 193 867 216 Q 883 232 872 243 Q 859 256 821 277 Q 799 286 778 279 Q 729 264 718 265 Q 699 265 709 288 Q 739 345 765 364 Q 789 377 783 388 Q 779 398 731 419 Q 715 426 699 418 Q 650 391 452 357 Q 443 358 441 352 Q 440 345 464 329 Q 489 313 515 325 Q 525 329 537 332 L 571 342 Z" fill="black" /></g></svg>