<?xml version='1.0' encoding='utf-8'?>
<svg xmlns="http://www.w3.org/2000/svg" version="1.1" viewBox="0 0 1024 1024"><g transform="scale(1, -1) translate(0, -900)"><path d="M 285 318 Q 288 177 248 111 Q 215 96 256 40 Q 259 37 263 34 Q 275 27 286 43 Q 299 71 440 197 Q 456 210 460 218 Q 464 228 454 228 Q 444 228 333 159 Q 326 153 323 161 Q 330 255 331 330 L 330 379 Q 331 395 334 408 Q 338 421 330 432 Q 312 448 295 456 C 269 471 238 474 255 449 Q 274 430 282 362 L 285 318 Z" fill="black" /></g></svg>