<?xml version='1.0' encoding='utf-8'?>
<svg xmlns="http://www.w3.org/2000/svg" version="1.1" viewBox="0 0 1024 1024"><g transform="scale(1, -1) translate(0, -900)"><path d="M 274 308 Q 270 185 232 133 Q 214 126 222 94 Q 232 67 245 55 Q 257 48 268 63 Q 283 91 419 209 Q 435 222 440 230 Q 444 240 434 240 Q 421 240 318 178 Q 311 172 309 180 Q 318 259 320 322 L 321 371 Q 321 392 325 408 Q 329 421 321 431 Q 302 449 285 458 C 260 474 235 481 247 453 Q 268 408 273 353 L 274 308 Z" fill="black" /></g></svg>