<?xml version='1.0' encoding='utf-8'?>
<svg xmlns="http://www.w3.org/2000/svg" version="1.1" viewBox="0 0 1024 1024"><g transform="scale(1, -1) translate(0, -900)"><path d="M 649 346 Q 790 379 822 370 Q 834 370 840 359 Q 846 341 811 232 Q 808 219 796 221 Q 768 231 731 244 Q 706 253 723 229 Q 774 175 783 150 Q 790 137 803 137 Q 816 136 831 148 Q 855 175 872 231 Q 885 309 915 338 Q 931 357 920 369 Q 898 391 863 412 Q 851 422 785 404 Q 712 392 649 378 L 604 369 Q 558 362 528 351 Q 501 347 489 346 Q 482 347 484 361 Q 496 419 506 435 Q 506 436 507 437 C 516 458 516 458 502 468 Q 489 481 468 492 Q 458 499 448 492 Q 441 488 449 470 Q 459 446 449 413 Q 433 359 417 340 Q 407 325 416 310 Q 425 286 437 279 Q 447 275 468 290 Q 490 309 551 327 Q 561 331 576 333 L 649 346 Z" fill="black" /></g></svg>