<?xml version='1.0' encoding='utf-8'?>
<svg xmlns="http://www.w3.org/2000/svg" version="1.1" viewBox="0 0 1024 1024"><g transform="scale(1, -1) translate(0, -900)"><path d="M 733 59 Q 751 31 766 0 Q 778 -22 788 -24 Q 800 -24 809 1 Q 825 46 820 154 Q 816 247 824 276 Q 833 298 820 308 Q 811 320 773 337 Q 755 346 715 331 Q 678 316 634 306 Q 600 297 555 288 C 526 282 540 247 568 257 Q 623 279 718 293 Q 742 296 748 288 Q 754 282 755 151 Q 756 105 751 96 Q 747 89 737 89 C 720 80 720 80 733 59 Z" fill="black" /></g></svg>