<?xml version='1.0' encoding='utf-8'?>
<svg xmlns="http://www.w3.org/2000/svg" version="1.1" viewBox="0 0 1024 1024"><g transform="scale(1, -1) translate(0, -900)"><path d="M 515 323 Q 531 390 537 414 L 541 437 Q 550 492 555 544 L 558 576 Q 559 603 563 628 Q 564 664 571 669 C 577 687 577 687 560 699 Q 518 732 494 724 Q 482 717 489 704 Q 505 679 507 616 Q 506 603 506 585 Q 500 423 459 292 Q 425 192 346 66 Q 342 59 339 53 Q 338 43 347 45 Q 374 49 451 169 Q 466 197 481 229 Q 497 269 512 313 L 515 323 Z" fill="black" /></g></svg>