<?xml version='1.0' encoding='utf-8'?>
<svg xmlns="http://www.w3.org/2000/svg" version="1.1" viewBox="0 0 1024 1024"><g transform="scale(1, -1) translate(0, -900)"><path d="M 537 414 Q 565 410 741 442 Q 822 458 833 446 Q 845 418 834 272 Q 822 158 789 99 Q 776 72 760 71 Q 748 70 689 93 Q 679 97 679 92 Q 678 88 688 78 Q 724 32 739 0 Q 746 -19 759 -20 Q 775 -21 793 -5 Q 856 43 877 165 Q 893 247 905 376 Q 906 404 926 426 Q 939 439 939 448 Q 938 455 918 470 Q 891 489 856 501 Q 835 508 762 485 Q 749 484 735 478 Q 666 460 541 437 C 512 432 507 413 537 414 Z" fill="black" /></g></svg>