<?xml version='1.0' encoding='utf-8'?>
<svg xmlns="http://www.w3.org/2000/svg" version="1.1" viewBox="0 0 1024 1024"><g transform="scale(1, -1) translate(0, -900)"><path d="M 603 318 Q 663 390 712 449 L 754 501 Q 808 570 825 593 Q 847 627 872 641 Q 885 648 885 658 Q 884 665 871 670 Q 838 686 810 689 Q 794 690 788 673 Q 779 618 684 483 L 650 438 Q 608 387 555 323 L 534 297 Q 533 297 532 295 Q 454 207 338 105 Q 331 101 333 97 Q 334 94 342 96 Q 408 124 439 152 Q 490 197 540 248 L 603 318 Z" fill="black" /></g></svg>