<?xml version='1.0' encoding='utf-8'?>
<svg xmlns="http://www.w3.org/2000/svg" version="1.1" viewBox="0 0 1024 1024"><g transform="scale(1, -1) translate(0, -900)"><path d="M 246 282 Q 246 158 203 102 Q 182 74 218 37 Q 218 36 221 34 Q 233 27 243 42 Q 253 66 357 170 Q 373 183 376 191 Q 379 200 370 199 Q 364 199 286 153 Q 282 149 279 154 Q 288 232 290 296 L 291 347 Q 292 366 296 382 Q 300 394 292 404 Q 279 416 267 424 C 243 442 214 442 225 414 Q 243 374 245 327 L 246 282 Z" fill="black" /></g></svg>