<?xml version='1.0' encoding='utf-8'?>
<svg xmlns="http://www.w3.org/2000/svg" version="1.1" viewBox="0 0 1024 1024"><g transform="scale(1, -1) translate(0, -900)"><path d="M 668 127 Q 705 179 739 262 Q 752 290 772 309 Q 791 324 778 337 Q 765 350 734 361 Q 712 368 684 356 Q 659 346 624 335 Q 590 325 531 317 Q 518 316 513 310 Q 509 303 527 295 Q 563 282 611 296 Q 657 314 666 314 Q 688 311 682 287 Q 666 214 634 164 Q 633 163 630 159 L 606 128 Q 546 65 432 32 Q 419 28 430 19 Q 436 15 475 17 Q 559 24 637 93 L 668 127 Z" fill="black" /></g></svg>