<?xml version='1.0' encoding='utf-8'?>
<svg xmlns="http://www.w3.org/2000/svg" version="1.1" viewBox="0 0 1024 1024"><g transform="scale(1, -1) translate(0, -900)"><path d="M 277 319 Q 280 193 241 130 Q 223 121 234 91 Q 244 64 258 53 Q 271 46 282 63 Q 292 91 413 215 Q 429 230 433 238 Q 436 248 426 247 Q 416 247 321 181 Q 318 177 316 181 Q 323 265 323 332 L 322 382 Q 323 398 326 412 Q 330 425 322 436 Q 303 452 285 462 C 259 478 234 485 246 458 Q 246 454 251 447 Q 270 407 274 362 L 277 319 Z" fill="black" /></g></svg>