<?xml version='1.0' encoding='utf-8'?>
<svg xmlns="http://www.w3.org/2000/svg" version="1.1" viewBox="0 0 1024 1024"><g transform="scale(1, -1) translate(0, -900)"><path d="M 975 91 Q 963 121 951 211 Q 951 226 945 230 Q 939 233 935 217 Q 910 123 892 93 Q 861 59 770 68 Q 733 72 706 84 Q 681 97 675 114 Q 654 160 686 331 Q 692 356 662 370 C 638 388 616 395 623 366 Q 623 363 625 358 Q 635 321 632 286 Q 619 138 629 97 Q 633 75 652 56 Q 724 -7 883 18 Q 889 21 895 21 Q 932 30 969 54 Q 987 67 975 91 Z" fill="black" /></g></svg>