<?xml version='1.0' encoding='utf-8'?>
<svg xmlns="http://www.w3.org/2000/svg" version="1.1" viewBox="0 0 1024 1024"><g transform="scale(1, -1) translate(0, -900)"><path d="M 544 620 Q 525 636 507 644 Q 488 651 478 645 Q 468 638 477 622 Q 537 496 492 128 Q 482 88 449 43 Q 436 27 444 2 Q 456 -26 469 -39 Q 482 -48 496 -29 Q 512 -1 658 118 Q 679 131 684 141 Q 688 151 678 152 Q 662 152 559 99 Q 546 92 544 105 Q 554 243 555 360 L 556 397 Q 556 439 556 477 L 555 506 Q 556 548 563 583 Q 564 587 564 591 C 566 604 566 604 544 620 Z" fill="black" /></g></svg>