<?xml version='1.0' encoding='utf-8'?>
<svg xmlns="http://www.w3.org/2000/svg" version="1.1" viewBox="0 0 1024 1024"><g transform="scale(1, -1) translate(0, -900)"><path d="M 967 112 Q 954 146 940 247 Q 939 262 933 266 Q 927 269 923 253 Q 901 147 883 112 Q 865 87 797 92 Q 772 93 750 104 Q 711 125 708 206 Q 707 243 710 286 L 712 310 Q 713 347 721 388 Q 725 404 713 414 Q 701 427 679 434 Q 666 438 659 433 Q 652 429 658 412 Q 671 376 669 340 Q 663 157 680 108 Q 684 87 702 71 Q 760 17 895 40 Q 898 43 904 43 Q 932 52 961 75 Q 979 88 967 112 Z" fill="black" /></g></svg>