<?xml version='1.0' encoding='utf-8'?>
<svg xmlns="http://www.w3.org/2000/svg" version="1.1" viewBox="0 0 1024 1024"><g transform="scale(1, -1) translate(0, -900)"><path d="M 747 102 Q 757 77 784 21 Q 793 3 803 4 Q 819 7 828 33 Q 859 91 863 169 Q 869 218 875 275 Q 879 324 903 354 Q 919 373 908 388 Q 886 410 839 430 Q 820 440 787 429 Q 666 387 478 367 C 448 364 464 324 494 329 Q 498 329 503 330 Q 546 340 603 349 L 640 356 Q 695 368 767 379 Q 795 385 807 371 Q 831 323 796 136 Q 795 118 786 116 Q 785 115 780 116 C 758 95 742 115 747 102 Z" fill="black" /></g></svg>