<?xml version='1.0' encoding='utf-8'?>
<svg xmlns="http://www.w3.org/2000/svg" version="1.1" viewBox="0 0 1024 1024"><g transform="scale(1, -1) translate(0, -900)"><path d="M 692 522 Q 707 501 721 494 Q 731 487 743 506 Q 758 533 783 673 Q 790 700 810 721 Q 820 731 811 744 Q 798 759 761 780 Q 742 789 685 772 Q 646 765 601 754 Q 570 747 546 742 C 517 736 530 701 558 712 Q 558 713 560 714 Q 611 729 701 743 Q 720 747 727 740 Q 740 724 738 709 Q 720 585 703 551 C 692 523 691 523 692 522 Z" fill="black" /></g></svg>