<?xml version='1.0' encoding='utf-8'?>
<svg xmlns="http://www.w3.org/2000/svg" version="1.1" viewBox="0 0 1024 1024"><g transform="scale(1, -1) translate(0, -900)"><path d="M 706 388 Q 745 403 806 403 Q 821 403 826 397 Q 835 376 815 231 Q 797 126 762 70 Q 747 45 732 45 Q 717 41 640 63 Q 631 64 631 60 Q 631 56 641 48 Q 684 8 702 -23 Q 712 -42 725 -41 Q 741 -44 759 -28 Q 822 14 849 127 Q 870 206 889 327 Q 893 354 912 373 Q 925 386 925 393 Q 924 400 906 414 Q 881 435 849 446 Q 830 455 768 436 Q 750 433 729 426 Q 665 411 533 388 C 503 383 487 373 517 368 Q 518 368 520 367 Q 538 363 558 363 L 559 362 L 595 367 Q 637 376 675 382 L 706 388 Z" fill="black" /></g></svg>