<?xml version='1.0' encoding='utf-8'?>
<svg xmlns="http://www.w3.org/2000/svg" version="1.1" viewBox="0 0 1024 1024"><g transform="scale(1, -1) translate(0, -900)"><path d="M 742 342 Q 679 132 438 -5 Q 414 -9 418 -20 Q 419 -24 427 -24 Q 545 -17 674 121 Q 690 142 709 164 Q 760 233 811 343 Q 829 373 857 392 Q 873 399 874 410 Q 873 423 843 442 Q 806 467 789 467 Q 777 467 765 458 Q 684 436 625 429 Q 621 430 618 429 C 588 426 570 414 599 405 Q 638 384 719 411 Q 746 421 757 412 Q 766 406 742 342 Z" fill="black" /></g></svg>