<?xml version='1.0' encoding='utf-8'?>
<svg xmlns="http://www.w3.org/2000/svg" version="1.1" viewBox="0 0 1024 1024"><g transform="scale(1, -1) translate(0, -900)"><path d="M 273 278 Q 276 140 238 78 Q 205 36 249 -9 L 251 -10 Q 264 -17 276 0 Q 288 28 411 151 Q 429 164 433 174 Q 436 184 426 183 Q 420 183 321 123 Q 315 117 313 124 Q 320 218 320 294 L 319 348 Q 320 370 324 387 Q 328 400 319 411 Q 297 430 277 440 C 251 455 229 459 241 432 Q 241 428 245 422 Q 267 379 271 325 L 273 278 Z" fill="black" /></g></svg>