<?xml version='1.0' encoding='utf-8'?>
<svg xmlns="http://www.w3.org/2000/svg" version="1.1" viewBox="0 0 1024 1024"><g transform="scale(1, -1) translate(0, -900)"><path d="M 284 314 Q 284 188 252 133 Q 210 85 257 43 Q 270 36 280 51 Q 295 79 431 197 Q 447 210 452 218 Q 456 228 446 228 Q 433 228 330 166 Q 323 160 320 169 Q 327 257 329 328 L 329 377 Q 330 393 334 408 Q 338 421 329 431 Q 310 450 291 459 C 265 474 243 481 255 453 Q 255 449 259 443 Q 277 404 282 358 L 284 314 Z" fill="black" /></g></svg>