<?xml version='1.0' encoding='utf-8'?>
<svg xmlns="http://www.w3.org/2000/svg" version="1.1" viewBox="0 0 1024 1024"><g transform="scale(1, -1) translate(0, -900)"><path d="M 273 309 Q 276 180 236 115 Q 218 108 226 77 Q 236 50 250 38 Q 263 31 273 47 Q 288 75 423 197 Q 441 210 444 218 Q 448 228 438 227 Q 428 227 321 163 Q 314 157 311 165 Q 318 252 319 322 L 318 370 Q 318 394 322 412 Q 326 425 318 436 Q 308 445 299 450 C 274 467 238 469 249 441 Q 268 399 271 351 L 273 309 Z" fill="black" /></g></svg>