<?xml version='1.0' encoding='utf-8'?>
<svg xmlns="http://www.w3.org/2000/svg" version="1.1" viewBox="0 0 1024 1024"><g transform="scale(1, -1) translate(0, -900)"><path d="M 806 553 Q 806 550 808 547 Q 812 532 823 533 Q 836 534 843 547 Q 853 556 872 605 Q 888 653 923 679 Q 941 694 926 708 Q 910 724 864 750 Q 852 759 790 745 Q 708 738 601 715 Q 538 705 493 698 C 463 693 488 658 517 665 Q 521 665 525 666 Q 550 675 589 681 L 613 686 Q 653 695 705 701 L 741 706 Q 810 721 836 708 Q 843 704 838 680 Q 819 595 810 578 C 803 560 803 560 806 553 Z" fill="black" /></g></svg>