<?xml version='1.0' encoding='utf-8'?>
<svg xmlns="http://www.w3.org/2000/svg" version="1.1" viewBox="0 0 1024 1024"><g transform="scale(1, -1) translate(0, -900)"><path d="M 262 319 Q 265 174 224 107 Q 194 95 226 45 Q 232 36 240 30 Q 252 23 263 39 Q 275 66 400 184 Q 416 197 420 206 Q 424 216 414 215 Q 404 215 308 156 Q 301 150 299 157 Q 306 254 307 333 L 306 381 Q 306 403 310 420 Q 314 433 306 444 Q 290 457 275 467 C 250 484 215 485 232 460 Q 253 439 259 362 L 262 319 Z" fill="black" /></g></svg>