<?xml version='1.0' encoding='utf-8'?>
<svg xmlns="http://www.w3.org/2000/svg" version="1.1" viewBox="0 0 1024 1024"><g transform="scale(1, -1) translate(0, -900)"><path d="M 872 65 Q 859 95 840 182 Q 840 198 833 202 Q 827 205 823 188 Q 801 94 784 64 Q 753 30 651 32 Q 612 33 582 45 Q 555 57 549 73 Q 527 121 553 263 C 557 285 557 285 543 294 Q 533 304 515 310 Q 514 311 509 311 C 482 321 482 321 493 295 Q 508 280 503 221 Q 494 53 526 20 Q 568 -22 695 -24 Q 795 -21 867 27 Q 883 42 872 65 Z" fill="black" /></g></svg>