<?xml version='1.0' encoding='utf-8'?>
<svg xmlns="http://www.w3.org/2000/svg" version="1.1" viewBox="0 0 1024 1024"><g transform="scale(1, -1) translate(0, -900)"><path d="M 295 350 Q 298 208 255 144 Q 224 117 264 69 Q 267 66 271 62 Q 284 55 296 72 Q 308 100 431 223 Q 449 236 453 246 Q 456 256 446 255 Q 440 255 341 195 Q 337 191 334 196 Q 341 287 343 363 L 343 416 Q 344 435 348 450 Q 352 463 343 475 Q 328 488 314 496 C 289 512 257 516 268 488 Q 287 446 293 396 L 295 350 Z" fill="black" /></g></svg>