<?xml version='1.0' encoding='utf-8'?>
<svg xmlns="http://www.w3.org/2000/svg" version="1.1" viewBox="0 0 1024 1024"><g transform="scale(1, -1) translate(0, -900)"><path d="M 509 311 Q 542 344 572 412 L 587 452 Q 599 486 609 522 L 619 567 Q 626 603 632 639 Q 645 732 664 771 Q 670 783 662 791 Q 646 809 611 826 Q 592 836 574 833 Q 555 827 568 808 Q 593 777 591 747 Q 582 635 563 553 L 552 509 Q 542 473 529 441 L 511 397 Q 510 396 509 393 Q 470 318 376 244 Q 364 238 362 234 Q 358 227 373 227 Q 403 223 485 288 Q 489 292 493 295 L 509 311 Z" fill="black" /></g></svg>