<?xml version='1.0' encoding='utf-8'?>
<svg xmlns="http://www.w3.org/2000/svg" version="1.1" viewBox="0 0 1024 1024"><g transform="scale(1, -1) translate(0, -900)"><path d="M 700 631 Q 728 638 759 640 Q 775 641 779 636 Q 789 620 780 578 Q 761 463 729 413 Q 711 383 685 388 Q 663 394 642 401 Q 620 408 635 386 Q 674 349 692 320 Q 711 298 730 316 Q 761 337 783 375 Q 810 420 831 560 Q 838 609 856 634 Q 868 644 863 655 Q 854 665 808 688 Q 789 697 772 685 Q 730 661 565 640 Q 535 640 531 638 C 506 636 506 636 522 624 Q 540 606 567 602 L 604 610 Q 629 617 656 622 L 700 631 Z" fill="black" /></g></svg>