<?xml version='1.0' encoding='utf-8'?>
<svg xmlns="http://www.w3.org/2000/svg" version="1.1" viewBox="0 0 1024 1024"><g transform="scale(1, -1) translate(0, -900)"><path d="M 672 92 Q 672 152 672 208 L 672 244 Q 672 316 672 380 L 672 414 Q 673 478 674 536 L 675 579 Q 675 607 676 628 Q 683 647 673 657 Q 660 670 645 679 C 620 696 588 690 602 663 Q 608 650 616 638 Q 625 613 626 567 L 627 526 Q 627 486 627 407 L 627 374 Q 626 316 626 236 L 626 201 Q 626 149 626 85 C 626 55 672 62 672 92 Z" fill="black" /></g></svg>