<?xml version='1.0' encoding='utf-8'?>
<svg xmlns="http://www.w3.org/2000/svg" version="1.1" viewBox="0 0 1024 1024"><g transform="scale(1, -1) translate(0, -900)"><path d="M 740 474 Q 755 452 769 446 Q 779 439 793 458 Q 805 477 831 587 Q 838 615 860 639 Q 872 649 862 663 Q 847 678 809 702 Q 794 709 728 694 Q 724 694 720 692 Q 615 674 598 666 L 574 661 Q 568 661 562 659 C 532 654 540 616 568 628 Q 577 638 742 664 Q 764 668 773 660 Q 783 647 782 635 Q 764 530 756 514 Q 752 504 738 500 Q 734 500 735 499 C 724 494 724 494 740 474 Z" fill="black" /></g></svg>