<?xml version='1.0' encoding='utf-8'?>
<svg xmlns="http://www.w3.org/2000/svg" version="1.1" viewBox="0 0 1024 1024"><g transform="scale(1, -1) translate(0, -900)"><path d="M 698 617 Q 698 699 718 755 Q 725 768 717 779 Q 707 789 678 802 Q 653 812 645 804 Q 638 798 648 781 Q 664 759 663 722 Q 662 649 662 566 Q 659 493 700 460 Q 725 439 822 440 Q 918 443 934 469 Q 938 476 930 493 Q 915 518 901 577 Q 898 589 892 593 Q 888 594 885 584 Q 860 505 841 493 Q 820 478 753 481 Q 737 482 729 487 Q 696 511 698 596 L 698 617 Z" fill="black" /></g></svg>