<?xml version='1.0' encoding='utf-8'?>
<svg xmlns="http://www.w3.org/2000/svg" version="1.1" viewBox="0 0 1024 1024"><g transform="scale(1, -1) translate(0, -900)"><path d="M 515 378 Q 515 379 516 380 Q 538 467 549 553 L 552 580 Q 555 610 560 635 Q 564 668 571 680 C 576 696 576 696 558 710 Q 545 722 524 732 Q 505 742 492 738 Q 480 731 486 718 Q 507 688 500 608 Q 499 602 499 594 Q 487 429 438 292 Q 398 190 311 62 Q 307 56 304 50 Q 301 40 312 41 Q 342 47 419 155 Q 438 188 458 225 Q 489 291 511 366 L 515 378 Z" fill="black" /></g></svg>