<?xml version='1.0' encoding='utf-8'?>
<svg xmlns="http://www.w3.org/2000/svg" version="1.1" viewBox="0 0 1024 1024"><g transform="scale(1, -1) translate(0, -900)"><path d="M 534 442 Q 538 388 546 373 Q 550 364 558 370 Q 571 385 569 450 Q 568 451 568 452 L 567 483 Q 566 514 565 543 L 564 584 Q 563 609 562 633 L 561 677 Q 561 711 563 729 Q 569 745 558 755 Q 545 765 521 774 Q 502 780 485 770 Q 475 763 488 751 Q 512 717 519 659 L 524 622 Q 525 598 528 569 L 530 534 Q 530 525 533 474 L 534 442 Z" fill="black" /></g></svg>