<?xml version='1.0' encoding='utf-8'?>
<svg xmlns="http://www.w3.org/2000/svg" version="1.1" viewBox="0 0 1024 1024"><g transform="scale(1, -1) translate(0, -900)"><path d="M 281 309 Q 284 182 243 120 Q 210 107 248 53 Q 252 47 258 42 Q 270 35 281 51 Q 294 79 427 197 Q 445 210 448 218 Q 452 228 442 228 Q 433 228 329 167 Q 322 161 319 169 Q 326 253 327 322 L 326 370 Q 326 392 330 408 Q 334 421 326 432 Q 310 447 293 456 C 267 472 235 474 251 449 Q 270 430 279 353 L 281 309 Z" fill="black" /></g></svg>