<?xml version='1.0' encoding='utf-8'?>
<svg xmlns="http://www.w3.org/2000/svg" version="1.1" viewBox="0 0 1024 1024"><g transform="scale(1, -1) translate(0, -900)"><path d="M 759 102 Q 769 77 796 25 Q 805 6 815 8 Q 831 11 840 37 Q 864 85 880 256 Q 886 304 909 333 Q 925 352 914 365 Q 892 387 846 408 Q 828 418 795 407 Q 678 368 482 352 C 452 349 489 313 519 317 Q 525 317 532 318 Q 572 327 624 334 L 664 341 Q 713 351 775 359 Q 800 363 812 351 Q 834 314 805 138 Q 804 122 797 120 Q 796 119 792 120 C 773 97 753 117 759 102 Z" fill="black" /></g></svg>