<?xml version='1.0' encoding='utf-8'?>
<svg xmlns="http://www.w3.org/2000/svg" version="1.1" viewBox="0 0 1024 1024"><g transform="scale(1, -1) translate(0, -900)"><path d="M 935 62 Q 934 72 918 91 Q 893 119 831 209 Q 827 216 821 217 Q 818 217 819 210 Q 826 167 832 118 Q 833 99 820 89 Q 795 74 712 92 Q 643 110 612 162 Q 594 201 583 242 Q 577 266 559 276 Q 544 285 539 278 Q 535 274 541 258 Q 548 240 563 191 Q 590 86 679 45 Q 685 44 693 40 Q 820 -8 923 49 Q 936 55 935 62 Z" fill="black" /></g></svg>