<?xml version='1.0' encoding='utf-8'?>
<svg xmlns="http://www.w3.org/2000/svg" version="1.1" viewBox="0 0 1024 1024"><g transform="scale(1, -1) translate(0, -900)"><path d="M 677 553 Q 668 584 651 596 L 637 605 Q 628 611 617 613 Q 599 617 591 612 Q 581 605 593 595 Q 621 577 633 545 L 641 510 Q 653 444 635 401 Q 625 379 597 383 Q 572 387 547 390 Q 537 391 541 383 Q 545 376 562 367 Q 596 342 610 321 Q 620 306 633 309 Q 643 310 665 335 Q 704 383 686 515 Q 686 516 686 517 L 677 553 Z" fill="black" /></g></svg>