<?xml version='1.0' encoding='utf-8'?>
<svg xmlns="http://www.w3.org/2000/svg" version="1.1" viewBox="0 0 1024 1024"><g transform="scale(1, -1) translate(0, -900)"><path d="M 693 110 Q 709 122 714 249 L 715 284 Q 715 312 715 345 L 715 383 Q 715 407 715 435 L 715 472 Q 715 505 715 534 L 716 563 Q 716 605 717 639 L 718 674 Q 721 749 737 774 Q 743 787 725 801 Q 704 817 667 827 Q 651 831 640 819 Q 631 812 642 802 Q 666 781 668 753 Q 668 716 669 659 L 669 628 Q 669 594 669 552 L 669 523 Q 672 475 669 459 L 669 426 Q 669 396 669 369 L 668 335 Q 667 302 666 272 L 667 240 Q 667 138 683 114 C 688 100 688 100 693 110 Z" fill="black" /></g></svg>