<?xml version='1.0' encoding='utf-8'?>
<svg xmlns="http://www.w3.org/2000/svg" version="1.1" viewBox="0 0 1024 1024"><g transform="scale(1, -1) translate(0, -900)"><path d="M 793 704 Q 774 644 736 588 Q 726 576 728 564 Q 729 552 746 540 Q 789 500 824 456 Q 840 437 854 436 Q 867 437 873 460 Q 877 485 865 502 Q 856 520 796 544 Q 775 551 767 565 Q 761 577 777 591 Q 796 615 833 668 Q 852 693 868 705 Q 884 715 876 733 Q 861 770 836 783 Q 821 792 809 789 Q 797 786 803 767 Q 812 742 793 704 Z" fill="black" /></g></svg>