<?xml version='1.0' encoding='utf-8'?>
<svg xmlns="http://www.w3.org/2000/svg" version="1.1" viewBox="0 0 1024 1024"><g transform="scale(1, -1) translate(0, -900)"><path d="M 478 353 Q 490 332 452 227 L 440 199 Q 410 141 356 66 Q 349 54 352 52 Q 356 49 363 56 Q 435 110 472 185 L 486 216 Q 499 249 511 285 Q 526 340 539 357 Q 546 367 540 374 Q 530 384 517 388 Q 505 394 485 388 Q 469 387 465 391 Q 461 392 465 404 Q 484 447 500 496 Q 513 527 526 544 Q 541 559 529 569 Q 519 576 489 585 Q 467 594 454 580 Q 414 546 382 534 Q 370 528 378 523 Q 399 514 448 538 Q 458 542 464 536 Q 470 526 460 487 Q 445 420 427 399 Q 418 386 423 376 Q 427 369 443 371 Q 482 368 478 353 Z" fill="black" /></g></svg>