<?xml version='1.0' encoding='utf-8'?>
<svg xmlns="http://www.w3.org/2000/svg" version="1.1" viewBox="0 0 1024 1024"><g transform="scale(1, -1) translate(0, -900)"><path d="M 706 59 Q 730 28 747 -1 Q 754 -17 765 -16 Q 780 -15 794 14 Q 804 36 805 107 Q 787 275 810 305 Q 817 315 810 325 Q 794 343 747 363 Q 731 372 717 363 Q 684 348 563 319 L 539 315 Q 538 315 536 314 C 507 308 516 282 546 286 Q 579 289 702 319 Q 724 323 735 315 Q 744 303 745 117 Q 744 102 743 93 Q 739 80 726 82 C 699 70 698 69 706 59 Z" fill="black" /></g></svg>