<?xml version='1.0' encoding='utf-8'?>
<svg xmlns="http://www.w3.org/2000/svg" version="1.1" viewBox="0 0 1024 1024"><g transform="scale(1, -1) translate(0, -900)"><path d="M 811 484 Q 818 527 829 554 L 846 596 Q 858 621 873 635 Q 888 653 874 668 Q 858 680 809 700 Q 793 707 773 698 Q 745 685 718 674 L 669 659 Q 620 647 571 638 Q 556 635 558 627 Q 561 620 578 615 Q 602 606 632 619 Q 650 623 669 628 L 717 639 Q 739 646 762 651 Q 778 655 786 649 Q 799 636 787 580 L 780 546 Q 773 516 765 488 C 757 459 806 454 811 484 Z" fill="black" /></g></svg>