<?xml version='1.0' encoding='utf-8'?>
<svg xmlns="http://www.w3.org/2000/svg" version="1.1" viewBox="0 0 1024 1024"><g transform="scale(1, -1) translate(0, -900)"><path d="M 223 309 Q 223 198 190 145 Q 156 114 195 73 Q 196 72 198 70 Q 210 63 219 77 Q 232 101 352 200 Q 368 210 372 219 Q 375 226 367 227 Q 354 227 267 180 Q 257 174 257 184 Q 263 260 263 321 L 263 363 Q 263 382 267 396 Q 271 408 263 417 Q 253 427 242 433 C 217 450 188 453 200 425 Q 216 391 221 349 L 223 309 Z" fill="black" /></g></svg>