<?xml version='1.0' encoding='utf-8'?>
<svg xmlns="http://www.w3.org/2000/svg" version="1.1" viewBox="0 0 1024 1024"><g transform="scale(1, -1) translate(0, -900)"><path d="M 706 130 Q 737 173 759 235 Q 768 266 787 282 Q 803 295 786 310 Q 768 326 737 340 Q 718 347 697 339 Q 654 315 593 306 Q 580 305 571 302 C 542 296 534 289 563 283 Q 582 274 640 284 Q 664 290 690 296 Q 706 302 707 283 Q 707 226 667 159 L 643 128 Q 633 118 623 107 Q 574 67 445 33 Q 430 30 439 22 Q 446 16 473 18 Q 611 30 676 94 L 706 130 Z" fill="black" /></g></svg>