<?xml version='1.0' encoding='utf-8'?>
<svg xmlns="http://www.w3.org/2000/svg" version="1.1" viewBox="0 0 1024 1024"><g transform="scale(1, -1) translate(0, -900)"><path d="M 764 198 Q 807 264 830 345 Q 836 378 854 395 Q 867 408 851 422 Q 832 437 799 448 Q 780 454 759 443 Q 723 418 671 404 Q 646 400 636 392 Q 629 385 646 378 Q 671 368 707 382 Q 731 391 755 399 Q 773 406 774 387 Q 774 311 728 232 L 705 199 Q 648 142 532 105 Q 517 101 527 94 Q 534 88 561 93 Q 640 103 686 126 Q 711 139 733 161 L 764 198 Z" fill="black" /></g></svg>