<?xml version='1.0' encoding='utf-8'?>
<svg xmlns="http://www.w3.org/2000/svg" version="1.1" viewBox="0 0 1024 1024"><g transform="scale(1, -1) translate(0, -900)"><path d="M 745 305 Q 761 281 777 274 Q 787 267 801 287 Q 813 308 836 420 Q 843 448 865 473 Q 877 485 866 497 Q 851 513 811 536 Q 793 543 714 523 Q 707 523 674 515 L 631 505 Q 612 504 593 498 Q 544 488 503 479 C 474 473 491 436 518 448 Q 527 458 631 475 L 673 483 Q 760 505 777 490 Q 787 478 786 465 Q 774 384 758 334 C 749 305 742 309 745 305 Z" fill="black" /></g></svg>