<?xml version='1.0' encoding='utf-8'?>
<svg xmlns="http://www.w3.org/2000/svg" version="1.1" viewBox="0 0 1024 1024"><g transform="scale(1, -1) translate(0, -900)"><path d="M 951 500 Q 964 504 955 518 Q 942 534 925 542 Q 915 546 895 537 Q 835 510 822 539 Q 810 558 817 614 Q 817 650 849 686 Q 864 701 848 712 Q 826 728 803 736 Q 793 740 778 731 Q 736 706 689 692 C 660 683 666 653 695 661 Q 704 661 751 684 Q 766 691 772 690 Q 779 689 779 676 Q 775 550 781 529 Q 781 511 805 495 Q 830 482 879 483 Q 927 486 951 500 Z" fill="black" /></g></svg>