<?xml version='1.0' encoding='utf-8'?>
<svg xmlns="http://www.w3.org/2000/svg" version="1.1" viewBox="0 0 1024 1024"><g transform="scale(1, -1) translate(0, -900)"><path d="M 265 318 Q 268 189 224 129 Q 203 96 243 59 L 245 58 Q 257 51 268 67 Q 281 95 408 220 Q 424 233 428 242 Q 432 252 422 251 Q 409 251 311 184 Q 307 180 304 185 Q 311 267 311 332 L 310 380 Q 310 398 314 412 Q 318 425 310 436 Q 291 452 273 461 C 247 476 221 484 234 457 Q 235 453 239 447 Q 258 407 263 361 L 265 318 Z" fill="black" /></g></svg>