<?xml version='1.0' encoding='utf-8'?>
<svg xmlns="http://www.w3.org/2000/svg" version="1.1" viewBox="0 0 1024 1024"><g transform="scale(1, -1) translate(0, -900)"><path d="M 671 103 Q 671 140 671 173 L 671 218 Q 671 255 672 292 L 672 326 Q 672 357 673 386 L 673 423 Q 673 454 673 483 L 674 515 Q 675 552 676 585 L 678 619 Q 678 664 677 666 Q 656 685 637 696 C 612 712 589 711 602 684 Q 624 639 629 610 L 630 577 Q 631 577 631 575 Q 631 560 631 505 L 631 475 Q 631 447 631 411 L 630 378 Q 629 350 629 315 L 629 285 Q 628 248 628 205 L 627 164 Q 627 133 627 97 C 627 67 671 73 671 103 Z" fill="black" /></g></svg>