<?xml version='1.0' encoding='utf-8'?>
<svg xmlns="http://www.w3.org/2000/svg" version="1.1" viewBox="0 0 1024 1024"><g transform="scale(1, -1) translate(0, -900)"><path d="M 751 70 Q 781 33 801 -1 Q 810 -17 821 -17 Q 836 -16 851 16 Q 867 53 863 97 Q 856 185 847 346 Q 846 374 861 395 Q 868 407 861 416 Q 843 434 795 455 Q 779 464 765 455 Q 743 445 606 407 C 577 399 587 371 616 378 Q 629 381 651 386 Q 706 398 753 409 Q 772 413 781 406 Q 811 376 796 109 Q 795 105 795 99 Q 791 83 776 87 C 748 76 747 75 751 70 Z" fill="black" /></g></svg>