<?xml version='1.0' encoding='utf-8'?>
<svg xmlns="http://www.w3.org/2000/svg" version="1.1" viewBox="0 0 1024 1024"><g transform="scale(1, -1) translate(0, -900)"><path d="M 730 133 Q 684 88 626 63 Q 614 57 626 52 Q 630 48 659 50 Q 708 56 755 102 L 788 139 Q 827 208 855 300 Q 862 327 879 345 Q 895 361 882 372 Q 869 382 840 389 Q 818 393 795 379 Q 774 369 746 358 Q 718 348 670 339 Q 657 338 654 331 Q 650 325 667 319 Q 700 309 742 323 Q 773 339 780 341 Q 805 340 800 314 Q 787 223 754 169 L 730 133 Z" fill="black" /></g></svg>