<?xml version='1.0' encoding='utf-8'?>
<svg xmlns="http://www.w3.org/2000/svg" version="1.1" viewBox="0 0 1024 1024"><g transform="scale(1, -1) translate(0, -900)"><path d="M 696 508 Q 733 515 778 519 Q 823 526 842 523 Q 852 523 858 513 Q 864 500 840 437 Q 837 427 826 428 Q 802 435 774 444 Q 752 451 766 430 Q 808 385 815 363 Q 821 351 833 353 Q 843 352 858 362 Q 891 428 926 494 Q 941 510 930 522 Q 909 543 879 560 Q 867 569 798 552 Q 713 540 696 534 L 655 528 Q 612 522 578 514 L 541 505 Q 522 502 508 498 Q 487 494 476 493 Q 472 494 471 504 Q 486 553 497 566 Q 497 567 498 568 C 507 585 507 585 494 597 Q 484 610 467 620 Q 458 627 450 622 Q 443 618 448 603 Q 455 581 444 551 Q 426 508 411 491 Q 401 478 408 464 Q 415 443 426 436 Q 433 432 454 444 Q 476 463 532 479 L 569 488 Q 602 495 654 502 L 696 508 Z" fill="black" /></g></svg>