<?xml version='1.0' encoding='utf-8'?>
<svg xmlns="http://www.w3.org/2000/svg" version="1.1" viewBox="0 0 1024 1024"><g transform="scale(1, -1) translate(0, -900)"><path d="M 656 424 Q 660 405 664 398 Q 668 394 674 395 Q 684 401 691 444 Q 694 477 696 508 L 696 534 Q 697 540 697 544 Q 696 562 697 601 L 698 636 Q 699 667 701 709 L 702 739 Q 702 772 711 804 Q 714 817 703 825 Q 679 841 668 843 Q 659 847 648 840 Q 641 834 646 827 Q 662 787 660 727 L 660 701 Q 659 667 658 627 L 657 596 Q 656 571 656 543 Q 655 536 655 528 L 654 502 Q 653 447 656 424 Z" fill="black" /></g></svg>