<?xml version='1.0' encoding='utf-8'?>
<svg xmlns="http://www.w3.org/2000/svg" version="1.1" viewBox="0 0 1024 1024"><g transform="scale(1, -1) translate(0, -900)"><path d="M 272 316 Q 272 192 235 135 Q 199 102 241 54 Q 241 53 244 51 Q 256 44 267 59 Q 282 87 418 201 Q 436 214 440 222 Q 444 232 434 232 Q 424 232 319 173 Q 309 167 308 177 Q 315 261 317 329 L 317 378 Q 317 402 322 420 Q 326 433 317 443 Q 304 456 290 465 C 266 483 227 485 244 460 Q 266 438 270 358 L 272 316 Z" fill="black" /></g></svg>