<?xml version='1.0' encoding='utf-8'?>
<svg xmlns="http://www.w3.org/2000/svg" version="1.1" viewBox="0 0 1024 1024"><g transform="scale(1, -1) translate(0, -900)"><path d="M 733 70 Q 743 45 765 0 Q 772 -16 783 -16 Q 798 -13 807 11 Q 834 63 849 221 Q 853 267 876 295 Q 892 314 880 327 Q 859 348 815 367 Q 797 377 766 366 Q 661 326 480 306 C 450 303 478 263 507 270 Q 507 271 508 271 Q 554 281 614 292 L 649 300 Q 769 327 786 312 Q 807 279 776 107 Q 775 91 769 90 C 758 62 721 98 733 70 Z" fill="black" /></g></svg>