<?xml version='1.0' encoding='utf-8'?>
<svg xmlns="http://www.w3.org/2000/svg" version="1.1" viewBox="0 0 1024 1024"><g transform="scale(1, -1) translate(0, -900)"><path d="M 257 305 Q 253 176 229 134 Q 202 98 208 79 Q 217 52 229 42 Q 241 35 252 50 Q 264 74 379 175 Q 395 187 400 195 Q 404 204 395 204 Q 383 204 301 159 Q 292 153 291 162 Q 298 247 299 317 L 300 368 Q 300 389 304 406 Q 308 418 300 428 Q 282 444 266 453 C 241 469 217 477 229 449 Q 229 445 233 439 Q 252 399 255 351 L 257 305 Z" fill="black" /></g></svg>