<?xml version='1.0' encoding='utf-8'?>
<svg xmlns="http://www.w3.org/2000/svg" version="1.1" viewBox="0 0 1024 1024"><g transform="scale(1, -1) translate(0, -900)"><path d="M 272 313 Q 268 187 244 147 Q 217 107 223 89 Q 233 62 247 50 Q 259 43 270 59 Q 282 84 400 197 Q 416 210 420 218 Q 424 228 414 227 Q 402 227 317 175 Q 310 171 308 177 Q 315 259 317 327 L 317 376 Q 317 401 322 420 Q 326 433 317 443 Q 302 456 288 465 C 263 482 231 488 244 461 Q 245 460 247 455 Q 268 410 270 357 L 272 313 Z" fill="black" /></g></svg>