<?xml version='1.0' encoding='utf-8'?>
<svg xmlns="http://www.w3.org/2000/svg" version="1.1" viewBox="0 0 1024 1024"><g transform="scale(1, -1) translate(0, -900)"><path d="M 501 288 Q 514 287 527 292 Q 638 337 817 354 Q 833 353 842 344 Q 849 337 845 324 Q 846 111 831 81 Q 828 72 817 75 Q 790 78 762 83 Q 737 84 755 69 Q 816 23 842 -11 Q 855 -26 869 -13 Q 885 5 894 34 Q 904 65 899 232 Q 895 293 913 325 Q 926 344 921 352 Q 914 364 866 392 Q 850 404 805 388 Q 786 384 760 377 Q 633 359 497 326 C 468 319 471 284 501 288 Z" fill="black" /></g></svg>