<?xml version='1.0' encoding='utf-8'?>
<svg xmlns="http://www.w3.org/2000/svg" version="1.1" viewBox="0 0 1024 1024"><g transform="scale(1, -1) translate(0, -900)"><path d="M 632 257 Q 647 248 699 241 Q 732 235 730 205 Q 729 196 726 182 Q 705 104 671 70 Q 649 54 606 67 Q 569 80 566 74 Q 562 65 579 55 Q 618 22 624 -6 Q 628 -22 640 -28 Q 652 -34 684 -14 Q 729 20 767 131 Q 783 185 802 198 Q 812 202 814 210 Q 815 219 794 243 Q 760 280 717 272 Q 690 275 648 284 C 619 290 604 268 632 257 Z" fill="black" /></g></svg>