<?xml version='1.0' encoding='utf-8'?>
<svg xmlns="http://www.w3.org/2000/svg" version="1.1" viewBox="0 0 1024 1024"><g transform="scale(1, -1) translate(0, -900)"><path d="M 229 451 Q 229 447 234 438 Q 253 399 256 353 L 258 306 Q 254 176 229 134 Q 203 98 209 79 Q 213 69 217 61 Q 233 24 253 50 Q 263 72 341 141 Q 398 191 402 196 Q 406 205 396 205 Q 384 205 302 160 Q 293 153 292 163 Q 299 245 300 318 L 301 369 Q 301 382 304 395 Q 307 416 305 421 Q 301 435 267 455 C 242 471 218 479 229 451 Z" fill="black" /></g></svg>