<?xml version='1.0' encoding='utf-8'?>
<svg xmlns="http://www.w3.org/2000/svg" version="1.1" viewBox="0 0 1024 1024"><g transform="scale(1, -1) translate(0, -900)"><path d="M 808 643 Q 737 633 683 619 L 640 608 Q 578 594 532 576 Q 519 576 525 589 Q 542 654 539 675 Q 537 682 526 694 Q 504 719 486 718 Q 477 715 480 703 Q 496 657 482 612 Q 472 578 457 563 Q 439 546 445 535 Q 447 531 451 527 Q 475 498 492 510 Q 495 514 502 517 Q 542 547 666 582 Q 775 613 808 606 C 838 604 838 647 808 643 Z" fill="black" /></g></svg>