<?xml version='1.0' encoding='utf-8'?>
<svg xmlns="http://www.w3.org/2000/svg" version="1.1" viewBox="0 0 1024 1024"><g transform="scale(1, -1) translate(0, -900)"><path d="M 756 482 Q 771 458 785 450 Q 794 443 808 461 Q 818 474 842 551 Q 849 579 871 600 Q 881 610 872 623 Q 859 638 822 661 Q 806 668 791 663 Q 758 656 719 646 L 675 637 Q 642 631 610 623 L 571 614 Q 531 607 497 599 C 468 592 479 559 507 569 Q 522 576 574 588 L 610 597 Q 638 604 675 611 L 716 619 Q 729 623 747 625 Q 780 632 791 621 Q 798 611 796 602 Q 778 514 767 505 C 755 483 755 483 756 482 Z" fill="black" /></g></svg>