<?xml version='1.0' encoding='utf-8'?>
<svg xmlns="http://www.w3.org/2000/svg" version="1.1" viewBox="0 0 1024 1024"><g transform="scale(1, -1) translate(0, -900)"><path d="M 661 278 Q 718 293 776 302 C 806 307 794 322 764 319 Q 676 312 575 291 Q 560 288 571 298 Q 616 337 718 414 Q 752 442 779 456 Q 792 463 789 473 Q 783 492 757 518 Q 744 530 735 529 Q 725 528 724 513 Q 718 480 637 398 L 616 380 Q 514 295 496 288 Q 481 282 482 269 Q 481 256 501 234 Q 508 221 525 230 Q 574 255 626 269 L 661 278 Z" fill="black" /></g></svg>