<?xml version='1.0' encoding='utf-8'?>
<svg xmlns="http://www.w3.org/2000/svg" version="1.1" viewBox="0 0 1024 1024"><g transform="scale(1, -1) translate(0, -900)"><path d="M 213 331 Q 209 228 176 183 Q 145 168 181 124 Q 182 121 188 117 Q 198 110 208 124 Q 218 146 323 248 Q 336 260 340 267 Q 343 276 335 275 Q 326 275 246 224 Q 243 220 241 224 Q 248 288 252 342 L 254 387 Q 254 412 260 437 Q 264 447 257 457 Q 247 467 236 474 C 212 492 186 496 197 468 Q 215 429 215 372 L 213 331 Z" fill="black" /></g></svg>