<?xml version='1.0' encoding='utf-8'?>
<svg xmlns="http://www.w3.org/2000/svg" version="1.1" viewBox="0 0 1024 1024"><g transform="scale(1, -1) translate(0, -900)"><path d="M 823 424 Q 829 458 835 481 L 851 526 Q 860 548 873 558 Q 886 574 873 588 Q 813 630 764 605 Q 737 596 713 587 L 670 575 Q 624 566 577 559 Q 564 558 565 550 Q 566 543 582 539 Q 595 533 672 550 L 709 558 Q 739 567 769 572 Q 787 576 794 569 Q 804 560 801 514 L 795 478 Q 791 453 786 429 C 780 400 818 394 823 424 Z" fill="black" /></g></svg>