<?xml version='1.0' encoding='utf-8'?>
<svg xmlns="http://www.w3.org/2000/svg" version="1.1" viewBox="0 0 1024 1024"><g transform="scale(1, -1) translate(0, -900)"><path d="M 706 598 Q 707 597 708 593 Q 712 580 723 581 Q 735 582 741 595 Q 751 608 770 672 Q 783 715 814 741 Q 830 754 816 768 Q 800 781 758 804 Q 742 813 690 798 Q 681 798 583 776 Q 546 767 516 762 C 486 757 508 725 536 735 Q 641 771 722 771 Q 726 771 730 769 Q 739 765 734 738 Q 716 627 707 618 C 702 606 702 606 706 598 Z" fill="black" /></g></svg>