<?xml version='1.0' encoding='utf-8'?>
<svg xmlns="http://www.w3.org/2000/svg" version="1.1" viewBox="0 0 1024 1024"><g transform="scale(1, -1) translate(0, -900)"><path d="M 755 458 Q 768 458 803 470 Q 845 485 851 484 Q 855 483 857 482 Q 867 476 866 445 L 866 443 Q 866 416 867 381 Q 869 63 852 38 Q 848 35 819 41 Q 778 50 777 49 Q 775 49 775 45 Q 818 -8 841 -43 Q 862 -70 876 -61 Q 884 -55 895 -39 Q 923 2 923 40 Q 903 419 929 466 Q 941 486 929 494 Q 909 512 874 525 Q 872 527 870 527 Q 850 531 814 508 L 755 486 C 727 476 725 453 755 458 Z" fill="black" /></g></svg>