<?xml version='1.0' encoding='utf-8'?>
<svg xmlns="http://www.w3.org/2000/svg" version="1.1" viewBox="0 0 1024 1024"><g transform="scale(1, -1) translate(0, -900)"><path d="M 761 394 Q 774 375 785 367 Q 792 360 807 376 Q 816 386 841 451 Q 850 476 870 497 Q 882 507 873 519 Q 860 534 826 557 Q 811 564 745 550 Q 742 550 579 521 Q 519 509 468 501 C 438 496 455 463 484 472 Q 487 475 555 489 L 575 493 Q 617 503 670 512 L 700 517 Q 722 523 748 525 Q 784 531 796 518 Q 802 511 800 502 Q 779 424 767 418 C 755 402 755 402 761 394 Z" fill="black" /></g></svg>