<?xml version='1.0' encoding='utf-8'?>
<svg xmlns="http://www.w3.org/2000/svg" version="1.1" viewBox="0 0 1024 1024"><g transform="scale(1, -1) translate(0, -900)"><path d="M 442 358 Q 484 352 493 341 Q 506 319 468 194 Q 450 137 426 126 Q 417 122 379 134 Q 349 147 346 142 Q 342 135 356 125 Q 389 104 403 67 Q 407 54 417 49 Q 427 45 454 64 Q 494 97 524 239 Q 533 303 554 323 Q 563 327 564 334 Q 565 341 545 361 Q 515 388 476 381 Q 467 382 455 384 Q 454 385 452 384 C 422 388 412 363 442 358 Z" fill="black" /></g></svg>