<?xml version='1.0' encoding='utf-8'?>
<svg xmlns="http://www.w3.org/2000/svg" version="1.1" viewBox="0 0 1024 1024"><g transform="scale(1, -1) translate(0, -900)"><path d="M 793 555 Q 806 530 821 523 Q 830 516 842 533 Q 849 543 870 596 Q 877 623 897 643 Q 907 653 898 666 Q 885 679 850 702 Q 834 709 820 705 Q 792 696 750 688 L 700 679 Q 666 675 630 666 L 587 657 Q 545 650 510 643 C 481 637 493 604 522 613 Q 553 623 592 632 L 630 640 Q 660 647 699 654 L 744 662 Q 756 665 773 667 Q 809 673 820 661 Q 826 654 825 648 Q 815 587 809 580 C 799 552 789 562 793 555 Z" fill="black" /></g></svg>