<?xml version='1.0' encoding='utf-8'?>
<svg xmlns="http://www.w3.org/2000/svg" version="1.1" viewBox="0 0 1024 1024"><g transform="scale(1, -1) translate(0, -900)"><path d="M 825 70 Q 798 76 770 83 Q 751 89 753 79 Q 808 33 841 -2 Q 854 -20 869 -24 Q 878 -28 886 -18 Q 922 30 921 81 Q 899 390 898 634 Q 898 670 909 687 Q 919 706 908 715 Q 887 733 852 746 Q 833 752 778 723 Q 693 702 670 699 Q 655 698 664 689 Q 673 679 687 675 Q 705 672 812 701 Q 831 705 836 696 Q 864 608 859 194 Q 856 83 848 72 Q 844 66 825 70 Z" fill="black" /></g></svg>