<?xml version='1.0' encoding='utf-8'?>
<svg xmlns="http://www.w3.org/2000/svg" version="1.1" viewBox="0 0 1024 1024"><g transform="scale(1, -1) translate(0, -900)"><path d="M 757 314 Q 757 313 758 311 Q 762 301 771 301 Q 780 302 785 312 Q 794 322 809 373 Q 819 409 846 430 Q 859 442 848 453 Q 835 465 799 483 Q 784 490 683 467 L 655 462 Q 634 459 615 454 Q 576 447 548 441 C 519 435 535 402 562 415 Q 571 424 655 437 L 683 442 Q 762 460 779 450 Q 785 446 781 426 Q 768 359 760 339 L 757 314 Z" fill="black" /></g></svg>