<?xml version='1.0' encoding='utf-8'?>
<svg xmlns="http://www.w3.org/2000/svg" version="1.1" viewBox="0 0 1024 1024"><g transform="scale(1, -1) translate(0, -900)"><path d="M 633 227 Q 639 258 646 296 L 651 335 Q 654 350 657 357 Q 664 363 658 372 Q 654 379 627 389 Q 623 392 618 392 C 590 402 569 409 579 385 Q 592 358 591 323 Q 590 322 590 321 L 589 287 Q 586 251 580 220 Q 579 219 579 218 L 570 183 Q 537 93 458 34 Q 443 24 426 12 Q 405 -1 432 1 Q 471 -2 535 43 Q 589 79 623 187 L 633 227 Z" fill="black" /></g></svg>