<?xml version='1.0' encoding='utf-8'?>
<svg xmlns="http://www.w3.org/2000/svg" version="1.1" viewBox="0 0 1024 1024"><g transform="scale(1, -1) translate(0, -900)"><path d="M 693 22 Q 721 -12 741 -45 Q 750 -61 761 -61 Q 776 -60 790 -27 Q 806 9 803 53 Q 796 99 787 186 Q 786 216 801 236 Q 810 249 801 258 Q 782 276 733 298 Q 717 305 702 297 Q 666 279 535 248 C 506 241 519 210 548 217 Q 704 253 718 247 Q 719 247 721 245 Q 733 236 734 57 L 734 55 Q 731 42 721 43 C 697 24 692 23 693 22 Z" fill="black" /></g></svg>