<?xml version='1.0' encoding='utf-8'?>
<svg xmlns="http://www.w3.org/2000/svg" version="1.1" viewBox="0 0 1024 1024"><g transform="scale(1, -1) translate(0, -900)"><path d="M 239 299 Q 235 197 214 160 Q 193 123 193 115 Q 193 97 216 73 Q 226 66 237 81 Q 249 105 361 204 Q 377 214 380 223 Q 383 232 375 231 Q 374 231 282 185 Q 275 179 273 188 Q 277 255 279 312 L 280 362 Q 280 389 283 408 Q 287 420 279 429 Q 264 442 250 451 C 225 468 194 469 212 445 Q 237 420 238 343 L 239 299 Z" fill="black" /></g></svg>