<?xml version='1.0' encoding='utf-8'?>
<svg xmlns="http://www.w3.org/2000/svg" version="1.1" viewBox="0 0 1024 1024"><g transform="scale(1, -1) translate(0, -900)"><path d="M 793 310 Q 800 344 807 368 L 822 409 Q 832 431 846 444 Q 859 460 847 475 Q 781 520 733 495 Q 718 491 704 484 L 664 471 Q 654 470 645 467 Q 623 463 602 457 L 562 449 Q 529 445 500 441 Q 487 440 488 431 Q 491 424 506 419 Q 528 410 558 420 Q 559 421 565 421 L 600 429 Q 630 436 665 444 L 704 453 Q 717 457 732 459 Q 754 465 763 456 Q 773 447 769 399 L 764 366 Q 760 338 753 312 C 746 283 787 281 793 310 Z" fill="black" /></g></svg>