<?xml version='1.0' encoding='utf-8'?>
<svg xmlns="http://www.w3.org/2000/svg" version="1.1" viewBox="0 0 1024 1024"><g transform="scale(1, -1) translate(0, -900)"><path d="M 683 67 Q 714 107 742 165 Q 755 193 776 209 Q 795 222 784 237 Q 772 250 742 263 Q 721 272 641 242 Q 554 226 523 221 Q 510 221 505 214 Q 501 207 519 199 Q 555 186 603 199 Q 663 218 674 219 Q 693 216 687 195 Q 671 137 643 95 L 618 64 Q 549 -3 421 -33 Q 408 -36 418 -45 Q 424 -49 465 -47 Q 573 -38 651 32 L 683 67 Z" fill="black" /></g></svg>