<?xml version='1.0' encoding='utf-8'?>
<svg xmlns="http://www.w3.org/2000/svg" version="1.1" viewBox="0 0 1024 1024"><g transform="scale(1, -1) translate(0, -900)"><path d="M 941 257 Q 931 278 919 340 Q 919 353 913 357 Q 909 361 904 346 Q 879 279 862 258 Q 855 251 835 245 Q 796 232 751 243 Q 738 249 733 257 Q 721 284 726 322 L 727 341 Q 728 366 735 395 Q 739 408 729 417 Q 719 427 701 433 Q 691 437 685 432 Q 679 429 684 416 Q 694 385 692 357 Q 686 225 730 205 Q 739 201 755 196 Q 858 172 936 225 Q 952 237 941 257 Z" fill="black" /></g></svg>