<?xml version='1.0' encoding='utf-8'?>
<svg xmlns="http://www.w3.org/2000/svg" version="1.1" viewBox="0 0 1024 1024"><g transform="scale(1, -1) translate(0, -900)"><path d="M 753 74 Q 762 49 785 0 Q 792 -16 803 -16 Q 818 -13 827 11 Q 857 68 872 229 Q 878 275 900 303 Q 916 322 905 334 Q 884 356 840 376 Q 822 386 791 375 Q 679 336 502 320 C 472 317 488 282 518 285 Q 527 284 536 286 Q 575 295 624 302 L 657 308 Q 709 318 773 328 Q 798 332 810 321 Q 832 279 797 108 Q 796 92 788 90 Q 787 90 785 90 C 768 65 746 93 753 74 Z" fill="black" /></g></svg>