<?xml version='1.0' encoding='utf-8'?>
<svg xmlns="http://www.w3.org/2000/svg" version="1.1" viewBox="0 0 1024 1024"><g transform="scale(1, -1) translate(0, -900)"><path d="M 807 368 Q 844 371 887 371 Q 936 371 943 378 Q 947 388 934 397 Q 889 430 831 411 Q 827 411 822 409 L 769 399 Q 736 395 704 388 L 666 382 Q 632 378 598 372 L 566 367 Q 515 361 462 353 C 440 350 440 350 458 337 Q 468 328 481 324 Q 497 320 509 324 Q 536 333 566 338 L 597 345 Q 627 352 660 355 Q 661 356 666 355 L 704 361 Q 729 365 764 366 L 807 368 Z" fill="black" /></g></svg>