<?xml version='1.0' encoding='utf-8'?>
<svg xmlns="http://www.w3.org/2000/svg" version="1.1" viewBox="0 0 1024 1024"><g transform="scale(1, -1) translate(0, -900)"><path d="M 699 599 Q 662 592 629 583 L 587 573 Q 512 558 511 557 Q 508 553 522 544 Q 550 531 568 537 Q 578 541 593 545 L 628 554 Q 656 563 697 570 L 735 577 Q 784 590 805 581 Q 809 578 806 561 Q 791 501 785 487 C 778 467 778 467 781 462 Q 781 461 782 460 Q 785 448 795 449 Q 805 449 811 460 Q 818 466 834 497 Q 847 537 874 560 Q 889 572 877 584 Q 864 597 825 617 Q 812 626 796 620 Q 772 613 743 608 L 699 599 Z" fill="black" /></g></svg>