<?xml version='1.0' encoding='utf-8'?>
<svg xmlns="http://www.w3.org/2000/svg" version="1.1" viewBox="0 0 1024 1024"><g transform="scale(1, -1) translate(0, -900)"><path d="M 751 36 Q 741 35 684 54 Q 675 57 675 52 Q 674 48 684 40 Q 720 1 735 -27 Q 744 -45 754 -44 Q 773 -45 792 -24 Q 855 34 871 175 Q 881 269 883 415 Q 882 448 902 474 Q 914 486 912 494 Q 911 501 894 513 Q 870 531 838 540 Q 823 546 746 526 Q 629 499 561 494 C 531 491 521 486 551 481 Q 585 471 676 480 Q 808 499 817 488 Q 838 445 824 223 Q 809 120 785 72 Q 772 39 751 36 Z" fill="black" /></g></svg>