<?xml version='1.0' encoding='utf-8'?>
<svg xmlns="http://www.w3.org/2000/svg" version="1.1" viewBox="0 0 1024 1024"><g transform="scale(1, -1) translate(0, -900)"><path d="M 472 369 Q 490 370 497 363 Q 507 350 504 315 Q 498 221 476 158 Q 466 128 456 117 Q 449 110 430 115 Q 405 127 386 136 Q 373 143 373 134 Q 374 122 385 110 Q 410 76 424 46 Q 439 22 461 34 Q 525 85 533 150 Q 560 339 561 339 Q 562 345 567 350 Q 576 366 567 374 Q 555 389 529 401 Q 508 411 494 403 Q 482 400 448 389 Q 444 388 441 389 Q 437 392 439 402 Q 446 438 455 481 Q 456 487 457 492 C 460 507 460 507 443 518 Q 436 525 418 533 Q 406 540 399 535 Q 392 529 400 518 Q 416 491 409 448 Q 399 391 376 369 Q 366 356 370 346 Q 377 336 386 328 Q 395 322 410 336 Q 431 364 472 369 Z" fill="black" /></g></svg>