<?xml version='1.0' encoding='utf-8'?>
<svg xmlns="http://www.w3.org/2000/svg" version="1.1" viewBox="0 0 1024 1024"><g transform="scale(1, -1) translate(0, -900)"><path d="M 479 750 Q 468 717 443 680 Q 430 661 432 651 Q 435 643 447 634 Q 486 604 504 588 Q 516 574 528 576 Q 538 576 539 596 Q 539 614 529 625 Q 519 637 486 643 Q 481 643 476 645 Q 455 653 468 672 Q 533 747 539 749 Q 551 756 545 770 Q 539 787 528 800 Q 511 819 494 815 L 492 815 Q 487 813 488 805 Q 494 776 479 750 Z" fill="black" /></g></svg>