<?xml version='1.0' encoding='utf-8'?>
<svg xmlns="http://www.w3.org/2000/svg" version="1.1" viewBox="0 0 1024 1024"><g transform="scale(1, -1) translate(0, -900)"><path d="M 743 784 L 739 772 Q 731 748 713 723 Q 705 711 708 698 Q 710 690 721 680 Q 755 655 775 631 Q 792 616 802 616 Q 815 617 816 639 Q 817 659 809 669 Q 800 682 767 688 Q 751 690 743 702 Q 737 708 747 721 L 777 752 L 791 768 L 811 786 Q 820 794 816 808 Q 815 811 813 815 Q 790 860 759 858 Q 756 858 755 858 Q 751 856 753 845 Q 759 813 743 784 Z" fill="black" /></g></svg>