<?xml version='1.0' encoding='utf-8'?>
<svg xmlns="http://www.w3.org/2000/svg" version="1.1" viewBox="0 0 1024 1024"><g transform="scale(1, -1) translate(0, -900)"><path d="M 417 413 Q 423 683 431 705 Q 438 727 422 743 Q 395 764 365 771 Q 331 780 320 764 Q 311 751 327 736 Q 349 717 355 669 Q 368 593 368 406 L 367 354 Q 364 209 353 128 Q 349 77 327 49 Q 314 27 327 3 Q 343 -19 364 -27 Q 377 -34 390 -14 Q 409 23 519 149 Q 547 174 549 187 Q 550 194 544 196 Q 541 196 423 108 Q 410 95 407 113 Q 411 236 416 364 L 417 413 Z" fill="black" /></g></svg>