<?xml version='1.0' encoding='utf-8'?>
<svg xmlns="http://www.w3.org/2000/svg" version="1.1" viewBox="0 0 1024 1024"><g transform="scale(1, -1) translate(0, -900)"><path d="M 799 527 Q 800 91 782 58 Q 778 52 757 57 Q 732 63 705 69 Q 683 78 684 67 Q 739 12 770 -28 Q 785 -49 801 -54 Q 811 -58 821 -48 Q 867 9 866 65 Q 853 288 853 649 Q 852 713 867 742 Q 880 764 867 775 Q 843 796 803 813 Q 781 822 730 796 Q 688 781 626 772 C 596 767 604 735 634 739 Q 650 739 753 762 Q 772 766 781 754 Q 796 741 795 694 Q 796 618 798 548 L 799 527 Z" fill="black" /></g></svg>