<?xml version='1.0' encoding='utf-8'?>
<svg xmlns="http://www.w3.org/2000/svg" version="1.1" viewBox="0 0 1024 1024"><g transform="scale(1, -1) translate(0, -900)"><path d="M 767 531 Q 779 95 753 54 Q 750 51 676 59 Q 654 65 657 55 Q 715 7 747 -26 Q 762 -45 778 -50 Q 788 -54 796 -44 Q 836 7 835 66 Q 820 294 817 663 Q 816 724 830 752 Q 843 773 830 784 Q 808 803 768 819 Q 749 826 733 820 Q 685 793 598 782 C 568 778 580 746 610 751 Q 616 751 720 771 Q 739 774 747 763 Q 762 750 762 701 Q 765 628 767 557 L 767 531 Z" fill="black" /></g></svg>