<?xml version='1.0' encoding='utf-8'?>
<svg xmlns="http://www.w3.org/2000/svg" version="1.1" viewBox="0 0 1024 1024"><g transform="scale(1, -1) translate(0, -900)"><path d="M 810 517 Q 816 115 795 78 Q 789 72 770 77 Q 743 83 716 90 Q 695 97 696 87 Q 754 35 785 -3 Q 798 -24 815 -28 Q 825 -32 833 -22 Q 876 27 875 86 Q 862 303 860 655 Q 859 716 873 744 Q 886 763 873 775 Q 851 794 811 810 Q 790 819 734 790 Q 698 778 631 767 C 601 762 615 729 644 735 Q 692 744 764 762 Q 783 766 791 755 Q 804 742 805 696 Q 808 618 809 545 L 810 517 Z" fill="black" /></g></svg>