<?xml version='1.0' encoding='utf-8'?>
<svg xmlns="http://www.w3.org/2000/svg" version="1.1" viewBox="0 0 1024 1024"><g transform="scale(1, -1) translate(0, -900)"><path d="M 813 545 Q 819 94 796 58 Q 792 52 773 56 Q 748 65 720 73 Q 699 82 700 71 Q 755 14 783 -25 Q 796 -44 812 -51 Q 822 -55 831 -45 Q 876 6 875 62 Q 863 296 863 675 Q 862 736 876 763 Q 889 784 876 795 Q 854 814 815 830 Q 796 837 780 831 Q 728 798 623 785 C 593 781 618 751 648 756 Q 660 756 769 781 Q 787 785 795 775 Q 810 762 809 712 Q 810 642 812 574 L 813 545 Z" fill="black" /></g></svg>