<?xml version='1.0' encoding='utf-8'?>
<svg xmlns="http://www.w3.org/2000/svg" version="1.1" viewBox="0 0 1024 1024"><g transform="scale(1, -1) translate(0, -900)"><path d="M 367 492 Q 368 491 370 488 Q 392 457 412 485 Q 428 504 428 524 Q 431 576 435 633 Q 438 682 457 714 Q 469 733 455 747 Q 436 762 406 777 Q 390 781 375 775 Q 314 750 242 733 C 213 726 237 698 265 708 Q 265 709 267 709 Q 357 740 376 731 Q 386 727 384 696 Q 381 611 377 539 Q 376 521 367 516 C 358 503 358 503 367 492 Z" fill="black" /></g></svg>