<?xml version='1.0' encoding='utf-8'?>
<svg xmlns="http://www.w3.org/2000/svg" version="1.1" viewBox="0 0 1024 1024"><g transform="scale(1, -1) translate(0, -900)"><path d="M 531 262 Q 530 153 528 141 Q 524 119 510 122 Q 498 125 470 128 Q 455 134 452 129 Q 451 122 465 110 Q 510 70 520 46 Q 529 28 538 24 Q 547 21 551 25 Q 578 56 578 188 Q 578 248 579 309 L 579 374 Q 579 381 579 386 L 580 427 Q 583 470 590 477 Q 600 490 595 501 Q 589 514 566 526 Q 529 542 516 538 Q 498 531 512 515 Q 527 497 531 414 L 531 378 Q 531 362 531 341 L 531 262 Z" fill="black" /></g></svg>