<?xml version='1.0' encoding='utf-8'?>
<svg xmlns="http://www.w3.org/2000/svg" version="1.1" viewBox="0 0 1024 1024"><g transform="scale(1, -1) translate(0, -900)"><path d="M 615 199 Q 552 189 487 169 Q 480 168 477 169 Q 476 172 480 180 Q 568 298 587 319 Q 599 328 593 340 Q 586 352 541 373 Q 525 380 516 376 Q 504 372 510 351 Q 528 294 441 194 Q 422 175 395 155 Q 382 145 386 134 Q 390 118 415 99 Q 425 89 438 100 Q 468 124 624 177 Q 625 178 629 178 C 658 186 645 204 615 199 Z" fill="black" /></g></svg>