<?xml version='1.0' encoding='utf-8'?>
<svg xmlns="http://www.w3.org/2000/svg" version="1.1" viewBox="0 0 1024 1024"><g transform="scale(1, -1) translate(0, -900)"><path d="M 817 567 Q 826 113 802 72 Q 796 65 776 70 Q 751 74 724 79 Q 703 85 704 75 Q 762 26 794 -9 Q 809 -28 825 -34 Q 835 -38 843 -27 Q 885 21 883 82 Q 870 308 868 675 Q 867 736 881 764 Q 894 783 881 795 Q 859 814 819 830 Q 800 837 784 831 Q 733 801 642 787 C 612 782 630 749 659 755 Q 666 756 677 759 Q 726 769 772 781 Q 791 785 799 775 Q 814 762 813 714 Q 814 653 816 595 L 817 567 Z" fill="black" /></g></svg>