<?xml version='1.0' encoding='utf-8'?>
<svg xmlns="http://www.w3.org/2000/svg" version="1.1" viewBox="0 0 1024 1024"><g transform="scale(1, -1) translate(0, -900)"><path d="M 423 444 Q 426 445 432 447 L 512 471 Q 525 477 535 470 Q 542 464 542 441 Q 548 264 540 157 Q 539 136 533 127 Q 529 123 514 126 Q 495 133 474 140 Q 456 150 456 140 Q 496 88 517 53 Q 529 34 543 28 Q 550 24 559 33 Q 601 70 604 127 Q 582 415 606 456 Q 616 475 606 484 Q 585 502 551 516 Q 533 525 483 494 Q 428 476 401 471 C 372 464 394 435 423 444 Z" fill="black" /></g></svg>