<?xml version='1.0' encoding='utf-8'?>
<svg xmlns="http://www.w3.org/2000/svg" version="1.1" viewBox="0 0 1024 1024"><g transform="scale(1, -1) translate(0, -900)"><path d="M 521 198 Q 546 164 563 132 Q 570 116 581 116 Q 596 117 610 146 Q 628 180 626 221 Q 622 269 618 357 Q 618 384 633 402 Q 642 412 634 422 Q 618 440 574 462 Q 559 471 545 463 Q 512 450 396 425 C 367 419 381 394 411 398 Q 424 399 442 403 Q 550 422 559 417 Q 574 402 565 273 Q 565 231 557 217 C 548 188 504 222 521 198 Z" fill="black" /></g></svg>