<?xml version='1.0' encoding='utf-8'?>
<svg xmlns="http://www.w3.org/2000/svg" version="1.1" viewBox="0 0 1024 1024"><g transform="scale(1, -1) translate(0, -900)"><path d="M 801 569 Q 810 119 786 84 Q 782 78 763 82 Q 741 88 717 93 Q 695 102 696 91 Q 747 36 773 -2 Q 788 -24 804 -29 Q 814 -33 824 -23 Q 872 31 870 89 Q 858 303 857 649 Q 856 713 871 742 Q 884 764 871 775 Q 847 796 807 813 Q 788 820 771 814 Q 710 781 603 770 C 573 766 599 733 628 738 Q 631 738 757 763 Q 776 766 785 754 Q 798 741 798 696 Q 799 644 801 594 L 801 569 Z" fill="black" /></g></svg>