<?xml version='1.0' encoding='utf-8'?>
<svg xmlns="http://www.w3.org/2000/svg" version="1.1" viewBox="0 0 1024 1024"><g transform="scale(1, -1) translate(0, -900)"><path d="M 786 559 Q 798 126 774 85 Q 768 78 748 83 L 692 95 Q 671 101 672 91 Q 733 39 766 3 Q 779 -16 796 -21 Q 806 -25 815 -15 Q 857 43 855 94 Q 840 316 837 675 Q 834 736 849 764 Q 862 785 849 795 Q 827 814 787 830 Q 768 837 752 831 Q 701 801 613 787 C 584 782 602 748 631 755 Q 688 770 740 781 Q 759 785 767 775 Q 782 762 781 715 Q 782 651 785 589 L 786 559 Z" fill="black" /></g></svg>