<?xml version='1.0' encoding='utf-8'?>
<svg xmlns="http://www.w3.org/2000/svg" version="1.1" viewBox="0 0 1024 1024"><g transform="scale(1, -1) translate(0, -900)"><path d="M 210 769 Q 185 791 156 801 Q 146 802 138 794 Q 134 787 142 775 Q 187 666 164 351 Q 161 336 161 322 Q 152 220 118 122 Q 108 94 113 71 Q 122 32 135 18 Q 147 2 159 17 Q 196 59 201 225 Q 204 328 207 428 Q 208 471 209 510 L 210 545 Q 211 587 214 619 L 216 656 Q 220 713 225 738 Q 225 741 225 742 C 227 756 227 756 210 769 Z" fill="black" /></g></svg>