<?xml version='1.0' encoding='utf-8'?>
<svg xmlns="http://www.w3.org/2000/svg" version="1.1" viewBox="0 0 1024 1024"><g transform="scale(1, -1) translate(0, -900)"><path d="M 602 193 Q 629 145 690 104 Q 745 76 760 86 Q 773 93 769 120 Q 763 141 758 216 Q 758 231 754 234 Q 751 235 747 221 Q 726 167 713 158 Q 706 155 686 169 Q 652 194 631 220 L 608 254 Q 596 275 568 344 L 557 383 Q 542 446 550 483 Q 554 502 523 517 Q 498 530 485 526 Q 472 523 480 505 Q 499 478 506 447 Q 513 407 526 367 L 537 331 Q 549 282 582 225 L 602 193 Z" fill="black" /></g></svg>