<?xml version='1.0' encoding='utf-8'?>
<svg xmlns="http://www.w3.org/2000/svg" version="1.1" viewBox="0 0 1024 1024"><g transform="scale(1, -1) translate(0, -900)"><path d="M 348 504 Q 348 503 350 501 Q 372 470 393 496 Q 403 509 414 576 Q 418 682 443 721 Q 456 739 442 753 Q 423 769 393 784 Q 377 790 362 783 Q 304 756 236 741 C 207 734 226 706 254 715 Q 255 716 263 718 Q 294 728 318 736 Q 352 746 364 740 Q 374 736 371 705 Q 365 621 359 552 Q 358 533 349 529 C 339 515 339 515 348 504 Z" fill="black" /></g></svg>