<?xml version='1.0' encoding='utf-8'?>
<svg xmlns="http://www.w3.org/2000/svg" version="1.1" viewBox="0 0 1024 1024"><g transform="scale(1, -1) translate(0, -900)"><path d="M 807 581 Q 828 118 804 71 Q 801 68 729 75 Q 707 82 708 71 Q 766 22 796 -15 Q 812 -34 829 -40 Q 839 -44 848 -33 Q 893 22 888 82 Q 870 305 860 670 Q 857 734 872 763 Q 885 785 872 796 Q 847 817 807 833 Q 786 840 770 833 Q 721 806 635 792 C 606 786 621 755 651 759 Q 661 759 676 762 Q 716 772 757 782 Q 776 785 786 773 Q 801 760 806 606 L 807 581 Z" fill="black" /></g></svg>