<?xml version='1.0' encoding='utf-8'?>
<svg xmlns="http://www.w3.org/2000/svg" version="1.1" viewBox="0 0 1024 1024"><g transform="scale(1, -1) translate(0, -900)"><path d="M 817 569 Q 829 113 805 72 Q 799 65 778 70 Q 750 76 721 82 Q 699 89 700 79 Q 761 24 796 -14 Q 811 -35 828 -40 Q 838 -44 847 -33 Q 890 21 889 81 Q 874 310 870 681 Q 867 745 883 774 Q 896 796 882 807 Q 858 828 818 843 Q 796 852 734 820 Q 667 802 617 795 C 587 790 618 756 647 763 Q 654 764 664 767 Q 718 780 769 792 Q 788 796 797 786 Q 812 773 817 587 L 817 569 Z" fill="black" /></g></svg>