<?xml version='1.0' encoding='utf-8'?>
<svg xmlns="http://www.w3.org/2000/svg" version="1.1" viewBox="0 0 1024 1024"><g transform="scale(1, -1) translate(0, -900)"><path d="M 209 732 Q 187 748 161 755 Q 151 758 144 748 Q 140 742 149 730 Q 200 616 184 319 Q 183 313 183 306 Q 179 210 150 117 Q 143 89 148 67 Q 158 30 171 17 Q 184 2 194 17 Q 230 62 227 215 Q 224 410 224 470 L 223 501 Q 223 549 224 585 L 225 621 Q 226 675 230 698 Q 230 704 229 709 C 229 720 229 720 209 732 Z" fill="black" /></g></svg>