<?xml version='1.0' encoding='utf-8'?>
<svg xmlns="http://www.w3.org/2000/svg" version="1.1" viewBox="0 0 1024 1024"><g transform="scale(1, -1) translate(0, -900)"><path d="M 236 741 Q 212 760 185 768 Q 175 769 168 761 Q 164 754 173 743 Q 224 619 202 326 Q 198 232 168 141 Q 159 113 164 92 Q 174 55 187 41 Q 200 26 210 41 Q 243 83 245 236 Q 244 330 245 423 Q 245 459 245 490 L 245 520 Q 245 563 246 597 L 247 629 Q 250 686 254 710 Q 254 713 254 715 C 255 728 255 728 236 741 Z" fill="black" /></g></svg>