<?xml version='1.0' encoding='utf-8'?>
<svg xmlns="http://www.w3.org/2000/svg" version="1.1" viewBox="0 0 1024 1024"><g transform="scale(1, -1) translate(0, -900)"><path d="M 398 230 Q 447 266 513 330 L 539 358 Q 606 439 636 462 Q 649 471 645 478 Q 644 485 593 508 Q 578 517 562 507 Q 547 498 524 491 Q 496 484 471 479 C 442 473 425 462 454 456 Q 478 447 528 462 Q 541 465 547 459 Q 550 453 539 438 Q 523 410 500 379 L 481 356 Q 411 275 289 188 Q 277 179 289 177 Q 310 181 374 215 L 398 230 Z" fill="black" /></g></svg>