<?xml version='1.0' encoding='utf-8'?>
<svg xmlns="http://www.w3.org/2000/svg" version="1.1" viewBox="0 0 1024 1024"><g transform="scale(1, -1) translate(0, -900)"><path d="M 392 440 Q 382 444 364 449 Q 349 450 345 446 Q 339 440 349 425 Q 374 389 378 273 Q 377 267 378 261 Q 375 138 328 83 Q 318 73 324 54 Q 331 30 343 20 Q 353 11 365 24 Q 398 64 496 146 Q 509 155 512 162 Q 513 168 508 167 Q 502 167 426 132 Q 419 131 418 132 Q 412 135 413 148 Q 413 212 413 260 L 414 293 Q 414 327 415 351 L 416 375 Q 416 400 418 407 Q 419 413 418 417 C 419 431 419 431 392 440 Z" fill="black" /></g></svg>