<?xml version='1.0' encoding='utf-8'?>
<svg xmlns="http://www.w3.org/2000/svg" version="1.1" viewBox="0 0 1024 1024"><g transform="scale(1, -1) translate(0, -900)"><path d="M 797 534 Q 806 83 782 42 Q 778 36 758 40 Q 733 44 708 50 Q 687 57 688 47 Q 743 -4 773 -40 Q 786 -59 803 -65 Q 813 -69 822 -58 Q 864 -10 863 50 Q 850 273 848 635 Q 847 696 861 724 Q 874 745 861 755 Q 839 774 800 791 Q 781 798 765 792 Q 710 761 626 750 C 596 745 614 714 644 719 Q 656 719 752 742 Q 771 746 779 735 Q 794 722 793 675 Q 794 621 796 569 L 797 534 Z" fill="black" /></g></svg>