<?xml version='1.0' encoding='utf-8'?>
<svg xmlns="http://www.w3.org/2000/svg" version="1.1" viewBox="0 0 1024 1024"><g transform="scale(1, -1) translate(0, -900)"><path d="M 210 735 Q 208 737 204 739 Q 163 764 150 757 Q 146 754 145 751 Q 141 746 149 733 Q 196 631 187 381 Q 187 375 186 370 L 184 308 Q 179 210 151 118 Q 145 91 149 66 Q 155 33 172 18 L 173 16 Q 184 4 194 18 Q 229 62 227 208 L 227 216 Q 225 412 225 472 L 223 503 Q 223 555 225 587 L 225 623 Q 227 675 231 701 Q 231 703 229 711 C 229 724 229 724 210 735 Z" fill="black" /></g></svg>