<?xml version='1.0' encoding='utf-8'?>
<svg xmlns="http://www.w3.org/2000/svg" version="1.1" viewBox="0 0 1024 1024"><g transform="scale(1, -1) translate(0, -900)"><path d="M 792 551 Q 808 83 783 43 Q 779 36 756 41 Q 731 45 706 50 Q 682 57 684 47 Q 742 -8 773 -47 Q 789 -69 807 -74 Q 817 -78 827 -67 Q 872 -10 871 53 Q 855 281 848 652 Q 845 719 861 749 Q 874 771 860 783 Q 835 805 792 821 Q 771 828 754 821 Q 696 785 607 773 C 577 768 604 732 633 739 Q 643 740 655 744 Q 698 754 742 767 Q 761 771 771 760 Q 786 747 791 579 L 792 551 Z" fill="black" /></g></svg>