<?xml version='1.0' encoding='utf-8'?>
<svg xmlns="http://www.w3.org/2000/svg" version="1.1" viewBox="0 0 1024 1024"><g transform="scale(1, -1) translate(0, -900)"><path d="M 587 133 Q 614 99 634 67 Q 643 51 653 51 Q 668 52 681 83 Q 697 117 693 159 Q 686 238 678 386 Q 677 414 690 433 Q 699 445 690 454 Q 674 470 626 491 Q 610 498 597 490 Q 522 454 393 434 C 363 429 370 400 399 406 Q 421 409 578 446 Q 603 452 615 442 Q 634 426 632 230 Q 633 178 628 161 Q 624 148 616 149 C 596 126 580 142 587 133 Z" fill="black" /></g></svg>