<?xml version='1.0' encoding='utf-8'?>
<svg xmlns="http://www.w3.org/2000/svg" version="1.1" viewBox="0 0 1024 1024"><g transform="scale(1, -1) translate(0, -900)"><path d="M 780 577 Q 793 77 768 36 Q 765 31 753 33 L 700 45 Q 690 49 684 49 Q 677 49 678 43 Q 731 -14 756 -50 Q 760 -57 764 -63 Q 789 -89 808 -71 Q 853 -14 853 41 Q 837 285 833 680 Q 832 743 849 778 Q 855 790 852 798 Q 851 800 848 804 Q 831 822 780 843 Q 765 849 740 841 Q 735 839 721 831 Q 675 809 598 798 C 568 793 586 760 615 766 Q 623 766 731 792 Q 740 794 747 792 Q 776 787 776 718 Q 776 655 780 604 L 780 577 Z" fill="black" /></g></svg>