<?xml version='1.0' encoding='utf-8'?>
<svg xmlns="http://www.w3.org/2000/svg" version="1.1" viewBox="0 0 1024 1024"><g transform="scale(1, -1) translate(0, -900)"><path d="M 772 565 Q 781 88 756 48 Q 750 41 727 46 Q 699 50 669 55 Q 647 61 648 51 Q 714 0 749 -36 Q 765 -57 782 -61 Q 792 -65 801 -54 Q 846 1 841 61 Q 828 290 825 661 Q 824 725 839 754 Q 852 776 839 787 Q 814 808 774 824 Q 749 833 708 808 Q 648 789 605 782 C 576 776 591 746 621 751 Q 640 751 725 773 Q 744 777 753 766 Q 768 753 768 704 Q 769 650 771 599 L 772 565 Z" fill="black" /></g></svg>