<?xml version='1.0' encoding='utf-8'?>
<svg xmlns="http://www.w3.org/2000/svg" version="1.1" viewBox="0 0 1024 1024"><g transform="scale(1, -1) translate(0, -900)"><path d="M 791 565 Q 800 96 775 48 Q 771 42 750 47 Q 725 51 699 55 Q 680 61 681 51 Q 738 5 768 -28 Q 781 -47 798 -52 Q 807 -55 815 -45 Q 855 7 852 59 Q 839 293 839 673 Q 838 731 851 757 Q 863 776 851 787 Q 829 806 792 820 Q 773 827 723 803 Q 684 788 618 778 C 588 773 599 742 628 748 Q 631 748 748 774 Q 764 778 774 768 Q 789 755 788 705 Q 789 647 791 590 L 791 565 Z" fill="black" /></g></svg>