<?xml version='1.0' encoding='utf-8'?>
<svg xmlns="http://www.w3.org/2000/svg" version="1.1" viewBox="0 0 1024 1024"><g transform="scale(1, -1) translate(0, -900)"><path d="M 788 579 Q 797 87 770 49 Q 766 43 745 48 Q 718 52 692 58 Q 671 65 672 55 Q 730 4 761 -32 Q 776 -51 792 -57 Q 802 -61 810 -51 Q 852 3 851 58 Q 839 292 839 671 Q 838 732 852 759 Q 865 780 852 791 Q 830 810 791 826 Q 770 835 719 807 Q 674 791 618 782 C 589 777 606 746 635 752 Q 647 752 745 777 Q 763 781 771 771 Q 786 758 785 708 Q 786 653 788 598 L 788 579 Z" fill="black" /></g></svg>