<?xml version='1.0' encoding='utf-8'?>
<svg xmlns="http://www.w3.org/2000/svg" version="1.1" viewBox="0 0 1024 1024"><g transform="scale(1, -1) translate(0, -900)"><path d="M 593 212 Q 638 137 700 98 Q 724 82 735 82 Q 747 81 752 91 Q 758 98 749 133 Q 742 163 741 227 Q 742 249 735 251 Q 729 252 722 231 Q 700 170 685 178 Q 651 202 621 245 L 598 283 Q 565 340 531 451 L 520 493 Q 514 517 514 536 Q 518 557 514 565 Q 510 572 489 581 Q 471 590 460 590 Q 450 589 449 587 Q 433 580 449 564 Q 456 561 486 482 L 486 480 L 497 442 Q 521 346 572 249 L 593 212 Z" fill="black" /></g></svg>