<?xml version='1.0' encoding='utf-8'?>
<svg xmlns="http://www.w3.org/2000/svg" version="1.1" viewBox="0 0 1024 1024"><g transform="scale(1, -1) translate(0, -900)"><path d="M 809 564 Q 830 81 805 38 Q 801 31 781 36 Q 762 37 744 38 Q 723 45 724 35 Q 772 -11 797 -44 Q 812 -63 828 -69 Q 838 -73 846 -62 Q 888 -10 886 47 Q 868 278 859 652 Q 856 713 871 741 Q 884 762 870 773 Q 848 792 808 808 Q 789 815 773 808 Q 713 775 625 767 C 595 763 615 729 644 735 Q 656 738 760 759 Q 779 762 788 750 Q 803 737 808 585 L 809 564 Z" fill="black" /></g></svg>