<?xml version='1.0' encoding='utf-8'?>
<svg xmlns="http://www.w3.org/2000/svg" version="1.1" viewBox="0 0 1024 1024"><g transform="scale(1, -1) translate(0, -900)"><path d="M 780 327 Q 777 69 762 50 Q 758 43 737 48 Q 709 55 680 62 Q 659 69 660 59 Q 721 7 753 -32 Q 766 -51 783 -57 Q 793 -61 802 -51 Q 844 3 843 58 Q 831 287 831 675 Q 832 726 846 748 Q 859 769 847 780 Q 825 799 785 816 Q 766 825 750 818 Q 693 790 598 781 C 568 778 584 745 614 750 Q 615 750 736 769 Q 755 770 763 759 Q 778 746 777 697 Q 778 637 779 579 L 779 578 Q 780 449 780 339 L 780 327 Z" fill="black" /></g></svg>