<?xml version='1.0' encoding='utf-8'?>
<svg xmlns="http://www.w3.org/2000/svg" version="1.1" viewBox="0 0 1024 1024"><g transform="scale(1, -1) translate(0, -900)"><path d="M 390 312 Q 396 306 413 302 Q 432 295 439 284 Q 445 263 407 174 Q 391 135 372 130 Q 363 127 339 137 Q 314 150 311 146 Q 307 139 318 131 Q 343 101 347 80 Q 350 70 358 64 Q 367 60 391 73 Q 430 103 459 200 Q 469 246 489 259 Q 496 262 499 268 Q 500 274 486 294 Q 471 313 427 322 Q 421 325 415 326 Q 408 329 403 330 C 375 339 364 327 390 312 Z" fill="black" /></g></svg>