<?xml version='1.0' encoding='utf-8'?>
<svg xmlns="http://www.w3.org/2000/svg" version="1.1" viewBox="0 0 1024 1024"><g transform="scale(1, -1) translate(0, -900)"><path d="M 784 583 Q 800 88 773 44 Q 769 40 692 48 Q 670 52 673 43 Q 734 -3 768 -36 Q 783 -55 800 -59 Q 810 -63 818 -52 Q 860 8 854 59 Q 838 294 833 675 Q 832 736 845 764 Q 858 785 845 795 Q 821 814 783 830 Q 759 839 712 811 Q 663 793 605 785 C 575 780 598 750 627 756 Q 639 756 737 781 Q 755 785 764 775 Q 779 760 779 711 Q 780 663 782 617 L 784 583 Z" fill="black" /></g></svg>