<?xml version='1.0' encoding='utf-8'?>
<svg xmlns="http://www.w3.org/2000/svg" version="1.1" viewBox="0 0 1024 1024"><g transform="scale(1, -1) translate(0, -900)"><path d="M 403 503 Q 397 509 381 515 Q 375 516 369 514 C 362 513 362 513 365 507 Q 365 506 367 503 Q 368 500 370 496 Q 369 493 373 489 Q 388 453 381 334 Q 372 301 378 282 Q 385 266 394 255 Q 401 248 408 255 Q 414 264 415 275 L 416 297 Q 416 318 415 338 L 414 361 Q 413 389 413 411 L 413 429 Q 413 471 413 477 C 413 496 413 496 403 503 Z" fill="black" /></g></svg>