<?xml version='1.0' encoding='utf-8'?>
<svg xmlns="http://www.w3.org/2000/svg" version="1.1" viewBox="0 0 1024 1024"><g transform="scale(1, -1) translate(0, -900)"><path d="M 586 125 Q 599 104 613 67 Q 620 51 635 60 Q 659 72 677 151 Q 701 268 717 291 Q 729 307 714 319 Q 695 338 668 353 Q 662 357 602 345 Q 565 336 522 332 Q 515 332 514 323 Q 515 316 528 308 Q 549 299 594 311 Q 639 326 651 321 Q 657 317 655 302 Q 652 277 647 248 L 642 221 Q 635 187 626 148 Q 623 138 607 141 C 578 139 578 139 586 125 Z" fill="black" /></g></svg>