<?xml version='1.0' encoding='utf-8'?>
<svg xmlns="http://www.w3.org/2000/svg" version="1.1" viewBox="0 0 1024 1024"><g transform="scale(1, -1) translate(0, -900)"><path d="M 583 477 Q 595 505 607 515 Q 625 534 607 546 Q 592 555 572 569 Q 557 578 542 570 Q 523 557 497 550 L 451 539 Q 426 535 398 532 Q 388 532 389 526 Q 390 522 401 515 Q 417 505 447 512 Q 448 513 450 512 L 491 520 Q 504 524 519 526 Q 541 530 547 521 Q 551 518 547 501 Q 544 486 540 469 C 533 440 571 450 583 477 Z" fill="black" /></g></svg>