<?xml version='1.0' encoding='utf-8'?>
<svg xmlns="http://www.w3.org/2000/svg" version="1.1" viewBox="0 0 1024 1024"><g transform="scale(1, -1) translate(0, -900)"><path d="M 235 733 Q 213 752 186 760 Q 176 761 170 753 Q 166 747 174 736 Q 219 633 201 339 Q 200 333 200 326 Q 196 235 166 145 Q 157 118 162 98 Q 172 62 184 49 Q 196 34 206 49 Q 240 91 241 331 Q 241 413 242 497 L 242 523 Q 242 566 244 599 L 245 627 Q 246 681 252 704 Q 252 708 252 710 C 253 720 253 720 235 733 Z" fill="black" /></g></svg>