<?xml version='1.0' encoding='utf-8'?>
<svg xmlns="http://www.w3.org/2000/svg" version="1.1" viewBox="0 0 1024 1024"><g transform="scale(1, -1) translate(0, -900)"><path d="M 488 215 Q 488 128 471 60 Q 464 30 483 -16 Q 489 -29 495 -31 Q 499 -35 505 -30 Q 526 -14 524 31 Q 523 59 523 249 L 523 280 Q 523 332 523 395 L 523 420 Q 523 441 524 459 L 528 500 Q 531 518 535 532 Q 542 544 539 554 Q 535 561 492 586 Q 476 598 459 586 Q 455 582 461 571 Q 485 537 486 488 L 487 452 Q 487 436 488 415 L 489 390 Q 489 389 490 387 Q 489 332 488 272 L 488 215 Z" fill="black" /></g></svg>