<?xml version='1.0' encoding='utf-8'?>
<svg xmlns="http://www.w3.org/2000/svg" version="1.1" viewBox="0 0 1024 1024"><g transform="scale(1, -1) translate(0, -900)"><path d="M 802 573 Q 814 96 790 56 Q 784 49 764 54 Q 730 63 696 71 Q 674 77 676 67 Q 745 13 782 -25 Q 797 -44 813 -50 Q 823 -54 831 -43 Q 873 9 871 66 Q 856 294 853 663 Q 852 724 865 752 Q 878 773 865 783 Q 843 802 803 818 Q 781 827 736 802 Q 696 787 621 775 C 591 770 604 738 634 743 Q 665 747 756 770 Q 775 773 783 763 Q 798 750 798 701 Q 799 649 801 598 L 802 573 Z" fill="black" /></g></svg>