<?xml version='1.0' encoding='utf-8'?>
<svg xmlns="http://www.w3.org/2000/svg" version="1.1" viewBox="0 0 1024 1024"><g transform="scale(1, -1) translate(0, -900)"><path d="M 790 591 Q 803 81 777 38 Q 773 32 750 37 Q 722 41 692 47 Q 670 53 673 43 Q 736 -6 771 -42 Q 786 -61 802 -66 Q 812 -70 820 -60 Q 860 -9 859 50 Q 844 287 841 671 Q 838 732 853 760 Q 866 781 853 791 Q 831 810 791 826 Q 769 835 723 809 Q 687 794 624 785 C 594 780 607 753 637 756 Q 655 753 744 777 Q 763 781 771 771 Q 787 756 786 707 Q 787 662 789 618 L 790 591 Z" fill="black" /></g></svg>