<?xml version='1.0' encoding='utf-8'?>
<svg xmlns="http://www.w3.org/2000/svg" version="1.1" viewBox="0 0 1024 1024"><g transform="scale(1, -1) translate(0, -900)"><path d="M 772 615 Q 779 278 764 61 Q 763 33 754 20 Q 748 13 728 18 Q 698 24 668 31 Q 647 37 648 27 Q 712 -25 746 -61 Q 761 -80 777 -86 Q 787 -90 795 -79 Q 837 -31 835 30 Q 822 277 824 679 Q 823 740 837 768 Q 850 787 837 799 Q 815 818 776 835 Q 757 842 741 836 Q 686 805 602 794 C 572 789 586 758 616 763 Q 631 763 728 786 Q 747 790 755 779 Q 771 764 770 713 Q 771 676 772 637 L 772 615 Z" fill="black" /></g></svg>