<?xml version='1.0' encoding='utf-8'?>
<svg xmlns="http://www.w3.org/2000/svg" version="1.1" viewBox="0 0 1024 1024"><g transform="scale(1, -1) translate(0, -900)"><path d="M 230 746 Q 209 765 183 773 Q 173 774 167 766 Q 164 760 171 750 Q 219 635 193 331 Q 192 325 192 317 Q 185 220 152 126 Q 145 99 149 80 Q 156 46 169 33 Q 179 18 190 32 Q 223 69 227 228 Q 230 495 232 522 L 233 547 Q 233 583 236 611 L 238 643 Q 241 695 246 718 Q 246 722 246 724 C 247 733 247 733 230 746 Z" fill="black" /></g></svg>