<?xml version='1.0' encoding='utf-8'?>
<svg xmlns="http://www.w3.org/2000/svg" version="1.1" viewBox="0 0 1024 1024"><g transform="scale(1, -1) translate(0, -900)"><path d="M 779 617 Q 800 106 772 61 Q 768 54 745 59 Q 720 60 696 64 Q 674 68 677 59 Q 735 13 768 -19 Q 783 -38 799 -43 Q 809 -47 817 -36 Q 859 15 854 75 Q 838 307 830 684 Q 829 745 843 773 Q 856 794 843 805 Q 819 824 781 840 Q 762 847 746 841 Q 686 810 603 802 C 573 798 588 766 618 770 Q 639 770 732 792 Q 751 793 760 782 Q 773 770 779 631 L 779 617 Z" fill="black" /></g></svg>