<?xml version='1.0' encoding='utf-8'?>
<svg xmlns="http://www.w3.org/2000/svg" version="1.1" viewBox="0 0 1024 1024"><g transform="scale(1, -1) translate(0, -900)"><path d="M 787 551 Q 800 83 778 44 Q 774 38 753 43 L 691 55 Q 672 61 673 51 Q 737 2 773 -33 Q 786 -51 802 -56 Q 812 -59 820 -49 Q 857 5 856 56 Q 832 392 832 690 Q 832 727 843 746 Q 855 765 843 776 Q 821 794 784 808 Q 765 815 720 791 Q 674 775 625 766 C 596 760 602 732 632 737 Q 650 737 740 761 Q 756 765 766 755 Q 781 742 786 577 L 787 551 Z" fill="black" /></g></svg>