<?xml version='1.0' encoding='utf-8'?>
<svg xmlns="http://www.w3.org/2000/svg" version="1.1" viewBox="0 0 1024 1024"><g transform="scale(1, -1) translate(0, -900)"><path d="M 343 294 Q 344 301 348 310 Q 354 337 359 363 L 362 388 Q 362 392 363 395 Q 364 419 370 443 Q 373 446 376 454 C 379 460 379 460 357 471 Q 330 486 322 483 Q 315 479 318 470 Q 348 416 306 277 Q 305 276 305 273 Q 277 216 248 157 Q 247 150 253 152 Q 280 161 320 234 Q 320 237 322 239 Q 326 251 332 262 L 343 294 Z" fill="black" /></g></svg>