<?xml version='1.0' encoding='utf-8'?>
<svg xmlns="http://www.w3.org/2000/svg" version="1.1" viewBox="0 0 1024 1024"><g transform="scale(1, -1) translate(0, -900)"><path d="M 503 755 Q 485 756 490 745 Q 497 732 521 720 Q 536 711 570 718 Q 735 763 754 737 Q 770 728 776 653 Q 792 401 778 115 Q 777 73 761 62 Q 745 49 659 67 Q 640 70 642 59 Q 643 52 658 45 Q 734 -3 775 -41 Q 799 -62 812 -59 Q 825 -55 838 -24 Q 854 25 851 98 Q 832 498 835 646 Q 836 688 849 713 Q 862 735 852 749 Q 840 765 790 792 Q 769 802 749 798 Q 718 788 650 774 Q 580 761 503 755 Z" fill="black" /></g></svg>