<?xml version='1.0' encoding='utf-8'?>
<svg xmlns="http://www.w3.org/2000/svg" version="1.1" viewBox="0 0 1024 1024"><g transform="scale(1, -1) translate(0, -900)"><path d="M 503 754 Q 487 755 491 744 Q 498 731 520 721 Q 532 712 567 719 Q 739 764 758 738 Q 774 729 780 655 Q 798 406 784 123 Q 783 81 767 70 Q 746 60 657 93 Q 641 97 642 87 Q 643 80 655 73 Q 734 19 774 -23 Q 795 -42 808 -40 Q 821 -37 832 -9 Q 848 36 847 101 Q 829 506 832 655 Q 833 695 845 718 Q 858 739 847 751 Q 837 767 790 791 Q 771 801 751 796 Q 720 786 651 772 Q 579 760 503 754 Z" fill="black" /></g></svg>