<?xml version='1.0' encoding='utf-8'?>
<svg xmlns="http://www.w3.org/2000/svg" version="1.1" viewBox="0 0 1024 1024"><g transform="scale(1, -1) translate(0, -900)"><path d="M 527 751 Q 509 752 514 741 Q 521 728 545 717 Q 557 708 618 722 Q 747 759 766 732 Q 797 683 789 243 Q 788 189 785 133 Q 784 91 769 80 Q 751 70 670 93 Q 654 97 654 87 Q 655 80 669 73 Q 741 22 778 -18 Q 800 -37 813 -35 Q 826 -32 838 -3 Q 854 45 853 114 Q 835 505 838 650 Q 838 692 851 716 Q 864 738 852 751 Q 842 767 792 792 Q 771 804 712 785 Q 559 755 527 751 Z" fill="black" /></g></svg>