<?xml version='1.0' encoding='utf-8'?>
<svg xmlns="http://www.w3.org/2000/svg" version="1.1" viewBox="0 0 1024 1024"><g transform="scale(1, -1) translate(0, -900)"><path d="M 519 749 Q 500 750 505 738 Q 512 725 537 712 Q 553 702 618 719 Q 732 755 754 717 Q 761 698 765 648 Q 783 405 769 128 Q 768 88 753 76 Q 738 66 666 85 Q 650 89 650 79 Q 651 72 664 64 Q 728 16 762 -21 Q 784 -42 797 -39 Q 810 -36 822 -6 Q 838 40 837 110 Q 819 498 822 642 Q 822 685 835 709 Q 848 733 836 745 Q 826 761 775 787 Q 754 797 689 779 Q 598 758 519 749 Z" fill="black" /></g></svg>