<?xml version='1.0' encoding='utf-8'?>
<svg xmlns="http://www.w3.org/2000/svg" version="1.1" viewBox="0 0 1024 1024"><g transform="scale(1, -1) translate(0, -900)"><path d="M 515 754 Q 499 755 503 744 Q 510 731 532 721 Q 541 714 598 724 Q 745 763 762 731 Q 796 676 786 233 Q 783 179 781 121 Q 780 79 764 68 Q 751 58 678 74 Q 662 77 662 67 Q 663 60 677 53 Q 741 7 775 -30 Q 797 -51 810 -48 Q 823 -44 834 -15 Q 850 33 849 102 Q 831 502 834 650 Q 835 690 847 715 Q 860 737 850 749 Q 840 765 791 790 Q 770 802 709 784 Q 576 760 515 754 Z" fill="black" /></g></svg>