<?xml version='1.0' encoding='utf-8'?>
<svg xmlns="http://www.w3.org/2000/svg" version="1.1" viewBox="0 0 1024 1024"><g transform="scale(1, -1) translate(0, -900)"><path d="M 516 758 Q 500 759 503 748 Q 510 736 532 724 Q 545 715 569 719 Q 735 761 755 740 Q 800 707 785 197 Q 784 161 782 122 Q 781 80 766 69 Q 750 59 678 81 Q 662 85 662 75 Q 663 68 676 60 Q 740 9 773 -29 Q 795 -50 808 -47 Q 821 -44 833 -14 Q 849 32 849 102 Q 831 502 834 650 Q 835 690 848 715 Q 861 737 850 749 Q 840 765 791 791 Q 770 803 716 787 Q 572 763 516 758 Z" fill="black" /></g></svg>