<?xml version='1.0' encoding='utf-8'?>
<svg xmlns="http://www.w3.org/2000/svg" version="1.1" viewBox="0 0 1024 1024"><g transform="scale(1, -1) translate(0, -900)"><path d="M 517 347 Q 517 375 518 409 L 518 452 Q 518 479 519 507 L 521 553 Q 521 562 530 607 Q 533 623 520 632 Q 490 651 476 654 Q 464 658 450 650 Q 443 643 449 633 Q 470 597 470 540 L 470 498 Q 470 470 469 439 L 469 399 Q 468 371 468 338 L 468 302 Q 468 86 483 67 Q 487 60 495 62 Q 507 71 514 124 Q 520 196 517 313 L 517 347 Z" fill="black" /></g></svg>