<?xml version='1.0' encoding='utf-8'?>
<svg xmlns="http://www.w3.org/2000/svg" version="1.1" viewBox="0 0 1024 1024"><g transform="scale(1, -1) translate(0, -900)"><path d="M 482 747 Q 466 748 470 737 Q 477 724 501 713 Q 513 704 561 715 Q 729 761 750 732 Q 780 686 774 282 Q 773 212 769 137 Q 769 95 753 85 Q 734 75 646 105 Q 630 109 630 99 Q 631 92 644 84 Q 720 29 761 -13 Q 783 -34 796 -31 Q 809 -28 821 2 Q 837 48 837 118 Q 819 506 822 650 Q 822 692 834 716 Q 847 738 836 751 Q 826 767 776 792 Q 754 804 691 783 Q 493 750 482 747 Z" fill="black" /></g></svg>