<?xml version='1.0' encoding='utf-8'?>
<svg xmlns="http://www.w3.org/2000/svg" version="1.1" viewBox="0 0 1024 1024"><g transform="scale(1, -1) translate(0, -900)"><path d="M 523 750 Q 507 751 511 740 Q 518 727 540 717 Q 552 708 587 716 Q 743 764 765 728 Q 795 662 790 235 Q 789 181 787 124 Q 786 82 771 71 Q 755 59 670 78 Q 652 81 654 71 Q 655 64 669 58 Q 744 10 784 -27 Q 806 -46 820 -44 Q 833 -40 844 -11 Q 859 37 856 106 Q 834 503 835 651 Q 835 691 847 715 Q 860 737 849 750 Q 839 765 790 790 Q 769 802 710 783 Q 569 756 523 750 Z" fill="black" /></g></svg>