<?xml version='1.0' encoding='utf-8'?>
<svg xmlns="http://www.w3.org/2000/svg" version="1.1" viewBox="0 0 1024 1024"><g transform="scale(1, -1) translate(0, -900)"><path d="M 519 746 Q 503 747 507 736 Q 514 723 536 713 Q 548 704 611 718 Q 746 754 766 721 Q 799 648 789 224 Q 788 170 785 112 Q 784 70 768 59 Q 752 50 682 76 Q 666 80 666 71 Q 666 64 679 56 Q 740 5 773 -34 Q 794 -53 806 -52 Q 819 -49 830 -21 Q 846 24 847 89 Q 829 497 832 647 Q 833 687 845 710 Q 858 731 847 743 Q 837 759 790 783 Q 772 792 704 775 Q 602 754 519 746 Z" fill="black" /></g></svg>