<?xml version='1.0' encoding='utf-8'?>
<svg xmlns="http://www.w3.org/2000/svg" version="1.1" viewBox="0 0 1024 1024"><g transform="scale(1, -1) translate(0, -900)"><path d="M 431 362 Q 441 365 452 370 Q 479 380 508 388 Q 521 392 525 388 Q 516 223 519 209 Q 531 151 583 134 Q 619 124 667 125 Q 713 126 750 146 Q 769 158 758 180 Q 733 232 728 293 Q 724 300 719 301 Q 716 301 711 289 Q 695 199 673 185 Q 631 169 587 182 Q 583 185 579 188 Q 560 204 555 242 Q 548 282 566 334 Q 576 365 594 381 Q 624 402 557 427 Q 536 436 523 427 Q 495 409 423 389 C 394 381 403 351 431 362 Z" fill="black" /></g></svg>