<?xml version='1.0' encoding='utf-8'?>
<svg xmlns="http://www.w3.org/2000/svg" version="1.1" viewBox="0 0 1024 1024"><g transform="scale(1, -1) translate(0, -900)"><path d="M 486 79 Q 490 58 496 50 Q 500 44 506 47 Q 518 53 524 101 Q 524 110 529 327 L 530 362 Q 531 390 532 423 L 534 459 Q 535 463 536 468 Q 539 484 542 497 Q 543 510 533 519 Q 521 528 512 532 C 486 547 452 548 468 523 Q 474 514 478 507 Q 487 492 487 445 L 487 415 Q 487 387 486 352 L 486 321 Q 480 138 486 79 Z" fill="black" /></g></svg>