<?xml version='1.0' encoding='utf-8'?>
<svg xmlns="http://www.w3.org/2000/svg" version="1.1" viewBox="0 0 1024 1024"><g transform="scale(1, -1) translate(0, -900)"><path d="M 583 334 Q 598 310 613 302 Q 622 295 637 314 Q 652 336 684 467 Q 693 495 714 517 Q 727 527 716 541 Q 703 557 665 581 Q 647 590 586 574 Q 564 574 380 534 C 351 528 364 495 392 504 Q 392 505 394 505 Q 424 515 468 523 L 512 532 Q 615 553 629 541 Q 641 525 638 511 Q 610 376 595 361 C 581 336 581 336 583 334 Z" fill="black" /></g></svg>