<?xml version='1.0' encoding='utf-8'?>
<svg xmlns="http://www.w3.org/2000/svg" version="1.1" viewBox="0 0 1024 1024"><g transform="scale(1, -1) translate(0, -900)"><path d="M 507 742 Q 491 743 495 732 Q 502 719 524 709 Q 539 699 571 708 Q 739 754 761 724 Q 791 678 788 270 Q 787 200 784 124 Q 783 84 768 72 Q 752 60 673 75 Q 657 76 658 67 Q 659 60 673 55 Q 743 12 782 -22 Q 804 -41 817 -38 Q 829 -34 839 -6 Q 854 40 850 106 Q 819 661 841 710 Q 854 732 843 744 Q 833 759 785 782 Q 764 794 697 773 Q 594 752 507 742 Z" fill="black" /></g></svg>