<?xml version='1.0' encoding='utf-8'?>
<svg xmlns="http://www.w3.org/2000/svg" version="1.1" viewBox="0 0 1024 1024"><g transform="scale(1, -1) translate(0, -900)"><path d="M 572 124 Q 584 110 608 71 Q 617 55 623 55 Q 637 57 647 82 Q 660 113 655 206 Q 651 286 654 306 Q 655 318 661 325 Q 666 337 661 345 Q 651 354 606 378 Q 593 384 580 377 Q 566 368 461 335 C 424 323 422 293 451 302 Q 512 321 568 332 Q 594 337 599 335 Q 611 321 608 197 Q 608 160 601 143 C 593 114 554 147 572 124 Z" fill="black" /></g></svg>