<?xml version='1.0' encoding='utf-8'?>
<svg xmlns="http://www.w3.org/2000/svg" version="1.1" viewBox="0 0 1024 1024"><g transform="scale(1, -1) translate(0, -900)"><path d="M 585 269 Q 585 266 587 262 Q 591 249 603 249 Q 616 250 623 264 Q 633 277 654 349 Q 669 397 702 424 Q 718 439 704 453 Q 688 469 641 493 Q 629 499 564 486 Q 546 486 495 474 L 474 470 Q 447 467 425 461 Q 382 451 347 446 C 317 441 333 404 361 413 Q 403 428 450 434 L 478 439 Q 595 460 612 451 Q 621 447 616 418 Q 597 315 588 293 Q 587 293 587 292 C 582 277 582 277 585 269 Z" fill="black" /></g></svg>