<?xml version='1.0' encoding='utf-8'?>
<svg xmlns="http://www.w3.org/2000/svg" version="1.1" viewBox="0 0 1024 1024"><g transform="scale(1, -1) translate(0, -900)"><path d="M 455 250 Q 452 186 465 157 Q 477 132 502 119 Q 617 68 734 132 Q 755 142 741 177 Q 725 216 718 267 Q 717 283 712 285 Q 706 285 704 269 Q 691 187 661 172 Q 639 162 598 160 Q 552 159 529 167 Q 508 177 500 194 Q 494 207 494 256 L 494 287 Q 494 321 496 346 L 498 382 Q 499 413 490 426 Q 483 433 478 439 C 458 461 445 463 450 434 Q 456 409 456 375 Q 456 374 456 371 L 456 340 Q 456 315 456 297 Q 455 288 455 278 L 455 250 Z" fill="black" /></g></svg>