<?xml version='1.0' encoding='utf-8'?>
<svg xmlns="http://www.w3.org/2000/svg" version="1.1" viewBox="0 0 1024 1024"><g transform="scale(1, -1) translate(0, -900)"><path d="M 351 290 Q 445 353 499 405 L 524 430 Q 615 532 633 544 Q 646 553 642 562 Q 641 569 588 593 Q 572 602 555 591 Q 537 581 510 572 Q 476 562 442 555 C 413 549 396 540 425 533 Q 446 521 520 543 Q 533 546 538 540 Q 541 525 482 452 L 464 431 Q 394 355 270 268 Q 257 259 269 257 Q 278 257 319 274 Q 323 275 327 278 L 351 290 Z" fill="black" /></g></svg>