<?xml version='1.0' encoding='utf-8'?>
<svg xmlns="http://www.w3.org/2000/svg" version="1.1" viewBox="0 0 1024 1024"><g transform="scale(1, -1) translate(0, -900)"><path d="M 411 501 Q 398 508 368 517 Q 353 518 349 514 Q 343 510 353 494 Q 392 442 376 225 Q 372 195 365 171 Q 358 141 328 107 Q 318 97 324 79 Q 331 54 343 44 Q 353 35 364 48 Q 400 90 504 174 Q 517 183 520 190 Q 521 196 516 195 Q 509 195 427 156 Q 420 153 418 156 Q 412 159 413 174 Q 414 255 415 313 L 415 337 Q 416 367 417 390 L 418 417 Q 419 460 421 473 C 423 496 423 496 411 501 Z" fill="black" /></g></svg>