<?xml version='1.0' encoding='utf-8'?>
<svg xmlns="http://www.w3.org/2000/svg" version="1.1" viewBox="0 0 1024 1024"><g transform="scale(1, -1) translate(0, -900)"><path d="M 554 221 Q 564 208 573 203 Q 580 197 592 213 Q 602 228 624 314 Q 631 336 647 354 Q 657 363 649 373 Q 639 386 607 405 Q 595 411 535 397 Q 526 397 511 392 L 476 385 Q 460 384 445 379 Q 408 372 377 365 C 348 359 367 332 395 342 Q 395 343 396 343 Q 427 353 475 361 L 508 367 Q 568 382 580 371 Q 589 361 587 351 Q 568 255 556 247 C 545 231 545 231 554 221 Z" fill="black" /></g></svg>