<?xml version='1.0' encoding='utf-8'?>
<svg xmlns="http://www.w3.org/2000/svg" version="1.1" viewBox="0 0 1024 1024"><g transform="scale(1, -1) translate(0, -900)"><path d="M 531 737 Q 515 737 519 727 Q 526 715 548 705 Q 557 701 613 710 Q 763 750 781 724 Q 791 708 796 649 Q 814 405 800 128 Q 799 88 784 76 Q 763 63 665 87 Q 649 88 650 79 Q 651 72 665 67 Q 752 21 798 -18 Q 820 -37 832 -34 Q 845 -31 855 -2 Q 870 44 867 110 Q 837 665 861 709 Q 873 730 862 741 Q 852 756 806 779 Q 785 789 719 770 Q 596 745 531 737 Z" fill="black" /></g></svg>