<?xml version='1.0' encoding='utf-8'?>
<svg xmlns="http://www.w3.org/2000/svg" version="1.1" viewBox="0 0 1024 1024"><g transform="scale(1, -1) translate(0, -900)"><path d="M 510 757 Q 494 759 497 749 Q 500 739 520 725 Q 523 724 525 723 Q 539 713 563 717 Q 741 766 760 729 Q 788 686 788 374 Q 788 225 782 124 Q 782 82 766 73 Q 755 63 692 71 Q 676 73 676 63 Q 678 57 692 49 Q 749 6 778 -27 Q 809 -55 825 -37 Q 831 -29 838 -12 Q 854 35 853 106 Q 831 502 833 649 Q 833 682 849 717 Q 857 735 853 744 Q 851 747 849 749 Q 839 764 791 790 Q 772 800 708 785 Q 584 762 510 757 Z" fill="black" /></g></svg>