<?xml version='1.0' encoding='utf-8'?>
<svg xmlns="http://www.w3.org/2000/svg" version="1.1" viewBox="0 0 1024 1024"><g transform="scale(1, -1) translate(0, -900)"><path d="M 473 210 Q 474 156 498 133 Q 556 88 668 115 Q 669 116 672 116 Q 699 123 724 141 Q 739 153 729 172 Q 719 190 706 246 Q 706 258 700 261 Q 696 264 693 251 Q 672 190 659 171 Q 652 162 630 156 Q 579 144 537 158 Q 513 168 504 214 L 501 244 Q 501 248 501 251 Q 501 272 502 293 L 504 322 Q 505 344 508 367 L 511 392 Q 512 408 517 425 Q 521 438 512 445 Q 502 455 486 461 Q 476 464 470 460 Q 466 459 469 445 Q 479 417 477 389 Q 476 388 476 385 L 475 361 Q 474 337 473 314 L 472 289 Q 471 261 472 237 L 473 210 Z" fill="black" /></g></svg>