<?xml version='1.0' encoding='utf-8'?>
<svg xmlns="http://www.w3.org/2000/svg" version="1.1" viewBox="0 0 1024 1024"><g transform="scale(1, -1) translate(0, -900)"><path d="M 491 284 Q 491 215 475 156 Q 466 126 486 77 Q 492 64 498 61 Q 502 57 509 62 Q 530 80 529 126 Q 528 151 529 320 L 529 351 Q 529 402 530 463 L 530 490 Q 530 491 531 491 Q 531 521 533 545 L 539 587 Q 540 597 544 605 Q 551 617 548 628 Q 544 635 500 662 Q 481 675 465 663 Q 461 659 466 647 Q 490 614 490 575 L 491 537 Q 491 512 493 483 L 493 457 Q 492 402 491 344 L 491 284 Z" fill="black" /></g></svg>