<?xml version='1.0' encoding='utf-8'?>
<svg xmlns="http://www.w3.org/2000/svg" version="1.1" viewBox="0 0 1024 1024"><g transform="scale(1, -1) translate(0, -900)"><path d="M 755 176 Q 743 198 728 271 Q 727 286 721 290 Q 715 293 711 277 Q 687 199 671 175 Q 664 168 644 162 Q 596 153 559 165 Q 544 172 541 181 Q 526 218 546 333 Q 552 357 514 375 C 488 390 478 395 484 371 Q 484 367 487 358 Q 497 324 495 289 Q 488 162 516 134 Q 570 86 692 113 Q 693 114 696 114 Q 723 121 749 140 Q 765 153 755 176 Z" fill="black" /></g></svg>