<?xml version='1.0' encoding='utf-8'?>
<svg xmlns="http://www.w3.org/2000/svg" version="1.1" viewBox="0 0 1024 1024"><g transform="scale(1, -1) translate(0, -900)"><path d="M 462 553 Q 480 538 491 507 Q 494 498 498 489 L 513 458 Q 588 323 700 299 Q 700 300 703 299 Q 719 302 715 323 Q 711 345 718 447 Q 718 456 714 457 Q 711 457 708 449 Q 695 424 685 401 Q 669 370 658 371 Q 634 368 589 415 Q 555 452 549 468 L 534 500 Q 527 515 529 539 Q 530 554 500 564 Q 497 565 493 566 C 464 575 441 574 462 553 Z" fill="black" /></g></svg>