<?xml version='1.0' encoding='utf-8'?>
<svg xmlns="http://www.w3.org/2000/svg" version="1.1" viewBox="0 0 1024 1024"><g transform="scale(1, -1) translate(0, -900)"><path d="M 602 322 Q 606 313 615 313 Q 625 314 632 326 Q 641 336 658 387 Q 671 429 701 452 Q 716 465 703 477 Q 690 490 649 512 Q 639 519 577 506 Q 547 506 442 481 Q 384 468 347 465 Q 346 465 344 464 C 314 460 345 434 375 439 Q 379 439 385 440 Q 413 450 460 457 L 504 466 Q 604 487 623 477 Q 630 473 626 451 Q 607 355 600 348 C 592 329 592 329 602 322 Z" fill="black" /></g></svg>