<?xml version='1.0' encoding='utf-8'?>
<svg xmlns="http://www.w3.org/2000/svg" version="1.1" viewBox="0 0 1024 1024"><g transform="scale(1, -1) translate(0, -900)"><path d="M 612 330 L 613 329 Q 617 316 627 316 Q 645 319 671 379 Q 684 419 715 442 Q 731 455 718 467 Q 705 482 665 504 Q 655 510 591 499 Q 576 499 530 490 L 493 483 Q 469 482 448 476 Q 394 466 359 461 C 329 457 344 429 374 434 Q 378 434 385 435 Q 424 448 493 457 L 530 463 Q 623 481 639 470 Q 646 466 641 446 Q 623 371 616 356 Q 615 355 614 352 C 608 336 608 336 612 330 Z" fill="black" /></g></svg>