<?xml version='1.0' encoding='utf-8'?>
<svg xmlns="http://www.w3.org/2000/svg" version="1.1" viewBox="0 0 1024 1024"><g transform="scale(1, -1) translate(0, -900)"><path d="M 579 181 Q 586 162 603 125 Q 610 112 618 112 Q 631 113 639 134 Q 652 162 669 274 Q 673 313 693 337 Q 706 353 697 364 Q 679 382 641 399 Q 625 408 599 398 Q 512 368 352 354 C 322 351 345 318 375 322 Q 379 322 386 323 Q 602 365 617 350 Q 630 323 612 212 Q 611 202 606 200 Q 605 199 602 200 C 582 177 577 186 579 181 Z" fill="black" /></g></svg>