<?xml version='1.0' encoding='utf-8'?>
<svg xmlns="http://www.w3.org/2000/svg" version="1.1" viewBox="0 0 1024 1024"><g transform="scale(1, -1) translate(0, -900)"><path d="M 587 127 Q 600 109 616 74 Q 625 58 639 69 Q 661 82 682 218 Q 695 317 709 338 Q 719 356 706 366 Q 657 412 614 396 Q 521 381 515 380 Q 508 380 507 371 Q 507 364 520 356 Q 542 347 592 357 Q 632 367 639 363 Q 646 359 646 342 Q 645 311 641 278 L 638 248 Q 632 203 624 156 Q 621 147 609 148 C 581 137 580 137 587 127 Z" fill="black" /></g></svg>