<?xml version='1.0' encoding='utf-8'?>
<svg xmlns="http://www.w3.org/2000/svg" version="1.1" viewBox="0 0 1024 1024"><g transform="scale(1, -1) translate(0, -900)"><path d="M 378 340 Q 406 362 454 392 Q 470 401 473 407 Q 476 417 458 411 Q 380 389 373 393 Q 366 400 369 420 Q 373 492 379 510 Q 380 517 379 523 L 371 536 Q 352 557 338 558 Q 328 561 323 557 Q 314 551 323 541 Q 362 463 317 380 Q 314 380 314 377 Q 301 361 307 343 Q 313 318 325 306 Q 332 299 345 313 Q 352 320 364 329 L 378 340 Z" fill="black" /></g></svg>