<?xml version='1.0' encoding='utf-8'?>
<svg xmlns="http://www.w3.org/2000/svg" version="1.1" viewBox="0 0 1024 1024"><g transform="scale(1, -1) translate(0, -900)"><path d="M 507 750 Q 491 751 495 740 Q 502 727 524 717 Q 534 708 601 722 Q 742 758 758 727 Q 788 679 786 272 Q 783 200 781 125 Q 780 83 765 72 Q 750 62 678 81 Q 662 85 662 75 Q 663 68 676 60 Q 740 12 774 -25 Q 796 -46 809 -43 Q 822 -40 834 -10 Q 850 36 849 106 Q 828 500 830 647 Q 831 687 844 711 Q 857 733 846 745 Q 836 761 787 786 Q 766 798 705 780 Q 575 756 507 750 Z" fill="black" /></g></svg>