<?xml version='1.0' encoding='utf-8'?>
<svg xmlns="http://www.w3.org/2000/svg" version="1.1" viewBox="0 0 1024 1024"><g transform="scale(1, -1) translate(0, -900)"><path d="M 545 443 Q 557 425 569 419 Q 578 413 589 429 Q 599 445 619 534 Q 626 558 644 578 Q 654 587 645 598 Q 632 611 599 631 Q 584 637 527 623 Q 491 616 444 605 Q 413 598 389 593 C 360 587 374 559 403 567 Q 452 582 544 597 Q 563 600 570 593 Q 579 583 578 573 Q 565 488 558 476 Q 554 466 546 464 C 535 456 535 456 545 443 Z" fill="black" /></g></svg>