<?xml version='1.0' encoding='utf-8'?>
<svg xmlns="http://www.w3.org/2000/svg" version="1.1" viewBox="0 0 1024 1024"><g transform="scale(1, -1) translate(0, -900)"><path d="M 508 754 Q 492 755 495 744 Q 502 732 524 720 Q 537 711 561 715 Q 738 763 758 727 Q 789 678 784 271 Q 783 199 779 124 Q 779 82 763 72 Q 753 62 690 70 Q 672 73 674 63 Q 675 56 689 49 Q 746 6 775 -27 Q 797 -46 811 -44 Q 824 -40 835 -11 Q 851 37 849 106 Q 828 500 830 647 Q 831 687 844 711 Q 857 733 846 746 Q 836 762 788 787 Q 770 797 705 782 Q 579 760 508 754 Z" fill="black" /></g></svg>