<?xml version='1.0' encoding='utf-8'?>
<svg xmlns="http://www.w3.org/2000/svg" version="1.1" viewBox="0 0 1024 1024"><g transform="scale(1, -1) translate(0, -900)"><path d="M 495 746 Q 479 747 483 736 Q 490 723 512 713 Q 524 704 560 712 Q 741 758 758 727 Q 789 678 784 271 Q 783 199 779 124 Q 778 82 763 71 Q 748 61 674 74 Q 656 77 658 67 Q 659 60 673 53 Q 740 8 776 -27 Q 798 -46 811 -44 Q 824 -41 836 -11 Q 851 37 849 106 Q 819 661 841 708 Q 856 732 845 745 Q 835 761 786 786 Q 767 796 695 777 Q 584 756 495 746 Z" fill="black" /></g></svg>