<?xml version='1.0' encoding='utf-8'?>
<svg xmlns="http://www.w3.org/2000/svg" version="1.1" viewBox="0 0 1024 1024"><g transform="scale(1, -1) translate(0, -900)"><path d="M 480 396 Q 538 362 589 322 Q 604 307 618 321 Q 634 331 642 358 Q 657 415 597 501 Q 548 558 587 597 Q 627 657 651 671 Q 675 686 663 701 Q 647 723 604 746 Q 579 756 563 743 Q 506 700 428 685 C 399 679 417 643 446 649 Q 488 656 532 675 Q 550 685 560 674 Q 566 668 558 650 Q 542 613 530 575 Q 514 547 531 525 Q 588 434 571 411 Q 564 401 540 405 Q 510 411 477 411 Q 450 414 480 396 Z" fill="black" /></g></svg>