<?xml version='1.0' encoding='utf-8'?>
<svg xmlns="http://www.w3.org/2000/svg" version="1.1" viewBox="0 0 1024 1024"><g transform="scale(1, -1) translate(0, -900)"><path d="M 508 746 Q 492 747 495 736 Q 502 724 524 712 Q 537 703 561 707 Q 631 725 715 738 Q 739 739 748 726 Q 764 717 769 644 Q 787 401 773 124 Q 772 84 757 72 Q 742 62 670 81 Q 654 85 654 75 Q 655 68 668 60 Q 732 12 766 -25 Q 788 -46 801 -43 Q 814 -40 826 -10 Q 842 36 841 106 Q 823 494 826 638 Q 827 678 840 703 Q 853 725 842 737 Q 832 753 783 779 Q 762 791 708 775 Q 564 751 508 746 Z" fill="black" /></g></svg>