<?xml version='1.0' encoding='utf-8'?>
<svg xmlns="http://www.w3.org/2000/svg" version="1.1" viewBox="0 0 1024 1024"><g transform="scale(1, -1) translate(0, -900)"><path d="M 520 754 Q 504 755 507 744 Q 514 732 536 720 Q 549 711 573 715 Q 739 761 758 727 Q 791 673 784 236 Q 783 182 780 125 Q 780 83 764 72 Q 751 62 682 78 Q 666 81 666 71 Q 667 64 681 57 Q 742 11 774 -26 Q 796 -45 809 -43 Q 822 -40 834 -10 Q 850 36 849 106 Q 828 500 830 647 Q 831 687 844 711 Q 857 733 846 746 Q 836 762 787 787 Q 769 796 694 779 Q 559 758 520 754 Z" fill="black" /></g></svg>