<?xml version='1.0' encoding='utf-8'?>
<svg xmlns="http://www.w3.org/2000/svg" version="1.1" viewBox="0 0 1024 1024"><g transform="scale(1, -1) translate(0, -900)"><path d="M 237 663 Q 280 673 325 695 Q 347 707 359 694 Q 366 687 352 666 Q 327 623 305 579 Q 289 552 304 529 Q 373 421 355 397 Q 348 391 332 398 Q 313 407 289 413 Q 264 420 289 398 Q 335 358 375 312 Q 391 299 406 313 Q 422 325 430 353 Q 443 408 378 496 Q 330 551 338 569 Q 341 593 406 657 Q 427 681 442 690 Q 464 703 454 718 Q 441 740 399 762 Q 377 772 361 760 Q 301 712 218 694 C 189 687 208 655 237 663 Z" fill="black" /></g></svg>