<?xml version='1.0' encoding='utf-8'?>
<svg xmlns="http://www.w3.org/2000/svg" version="1.1" viewBox="0 0 1024 1024"><g transform="scale(1, -1) translate(0, -900)"><path d="M 250 649 Q 292 658 334 678 Q 353 688 365 677 Q 371 671 363 654 Q 347 617 335 580 Q 322 555 337 534 Q 398 444 383 423 Q 376 411 351 413 Q 318 417 284 416 Q 259 415 288 402 Q 349 377 404 342 Q 420 330 432 343 Q 447 353 453 380 Q 465 437 396 519 Q 357 558 381 595 Q 424 659 448 675 Q 469 688 458 703 Q 445 722 404 743 Q 382 752 366 739 Q 311 697 241 681 C 212 673 221 642 250 649 Z" fill="black" /></g></svg>