<?xml version='1.0' encoding='utf-8'?>
<svg xmlns="http://www.w3.org/2000/svg" version="1.1" viewBox="0 0 1024 1024"><g transform="scale(1, -1) translate(0, -900)"><path d="M 306 432 Q 299 422 278 426 Q 253 430 224 431 Q 202 432 226 418 Q 278 393 324 359 Q 339 347 351 360 Q 364 370 371 395 Q 383 447 321 523 Q 278 566 302 603 Q 342 667 368 683 Q 387 695 377 708 Q 364 726 328 744 Q 309 751 294 740 Q 239 698 183 687 C 154 680 171 652 200 660 Q 234 669 267 684 Q 283 694 294 684 Q 300 678 291 661 Q 275 624 260 586 Q 248 564 262 545 Q 322 452 306 432 Z" fill="black" /></g></svg>