<?xml version='1.0' encoding='utf-8'?>
<svg xmlns="http://www.w3.org/2000/svg" version="1.1" viewBox="0 0 1024 1024"><g transform="scale(1, -1) translate(0, -900)"><path d="M 238 662 Q 275 671 312 686 Q 330 696 341 685 Q 347 679 336 660 Q 317 620 300 581 Q 285 556 300 535 Q 352 442 337 424 Q 333 417 313 419 Q 291 423 265 423 Q 240 424 267 409 Q 313 378 353 343 Q 366 330 381 342 Q 396 351 403 376 Q 421 436 352 521 Q 312 561 347 596 Q 396 666 422 682 Q 444 695 433 709 Q 420 728 380 750 Q 358 760 342 747 Q 288 708 220 692 C 191 684 209 654 238 662 Z" fill="black" /></g></svg>