<?xml version='1.0' encoding='utf-8'?>
<svg xmlns="http://www.w3.org/2000/svg" version="1.1" viewBox="0 0 1024 1024"><g transform="scale(1, -1) translate(0, -900)"><path d="M 657 72 Q 645 30 672 -27 Q 679 -43 687 -47 Q 693 -54 700 -46 Q 727 -24 725 34 Q 724 73 724 336 L 724 383 Q 724 450 724 528 L 725 582 Q 726 663 742 719 Q 751 734 748 747 Q 741 756 687 789 Q 663 805 643 790 Q 639 786 645 770 Q 678 721 679 673 Q 680 624 682 569 L 684 520 Q 683 520 684 519 Q 683 449 682 376 L 681 333 Q 680 279 680 221 Q 676 143 657 72 Z" fill="black" /></g></svg>