<?xml version='1.0' encoding='utf-8'?>
<svg xmlns="http://www.w3.org/2000/svg" version="1.1" viewBox="0 0 1024 1024"><g transform="scale(1, -1) translate(0, -900)"><path d="M 684 235 Q 727 305 753 418 Q 759 451 777 468 Q 790 483 773 497 Q 754 510 721 522 Q 700 528 680 516 Q 619 482 532 467 Q 513 466 505 460 C 476 452 476 452 502 444 Q 503 444 506 442 Q 531 430 567 444 Q 621 459 675 473 Q 694 480 696 457 Q 696 376 649 272 L 627 234 Q 564 149 407 94 Q 394 90 403 82 Q 410 78 437 82 Q 530 95 584 126 Q 623 150 656 192 L 684 235 Z" fill="black" /></g></svg>