<?xml version='1.0' encoding='utf-8'?>
<svg xmlns="http://www.w3.org/2000/svg" version="1.1" viewBox="0 0 1024 1024"><g transform="scale(1, -1) translate(0, -900)"><path d="M 664 405 Q 665 454 671 477 Q 672 490 666 495 Q 644 514 625 524 Q 613 528 604 521 Q 598 517 605 507 Q 614 492 620 398 L 620 356 Q 619 316 618 267 Q 617 251 616 236 L 614 198 Q 605 78 597 50 Q 588 16 621 -36 Q 631 -54 640 -58 Q 650 -59 656 -47 Q 668 -16 665 14 Q 662 114 661 203 L 661 243 Q 661 301 662 360 L 664 405 Z" fill="black" /></g></svg>