<?xml version='1.0' encoding='utf-8'?>
<svg xmlns="http://www.w3.org/2000/svg" version="1.1" viewBox="0 0 1024 1024"><g transform="scale(1, -1) translate(0, -900)"><path d="M 241 678 Q 278 685 316 705 Q 331 714 341 705 Q 347 699 339 682 Q 323 645 311 607 Q 299 582 314 563 Q 363 491 352 473 Q 346 463 323 464 Q 295 467 264 464 Q 239 463 268 451 Q 323 427 373 397 Q 386 385 397 397 Q 410 407 416 429 Q 425 483 363 555 Q 326 592 372 650 Q 400 695 419 706 Q 438 719 428 733 Q 415 751 375 769 Q 354 776 340 765 Q 295 726 223 707 C 194 699 212 671 241 678 Z" fill="black" /></g></svg>