<?xml version='1.0' encoding='utf-8'?>
<svg xmlns="http://www.w3.org/2000/svg" version="1.1" viewBox="0 0 1024 1024"><g transform="scale(1, -1) translate(0, -900)"><path d="M 228 665 Q 271 675 315 696 Q 334 708 346 696 Q 352 689 340 670 Q 318 630 297 589 Q 282 564 298 542 Q 361 454 346 434 Q 340 421 314 423 Q 283 424 248 420 Q 223 419 253 407 Q 314 385 370 354 Q 385 342 397 356 Q 410 366 416 393 Q 422 417 403 457 Q 384 502 347 535 Q 331 554 328 563 Q 324 579 337 595 Q 395 674 425 693 Q 446 706 436 720 Q 423 739 383 761 Q 361 771 346 758 Q 292 716 217 697 C 188 689 199 657 228 665 Z" fill="black" /></g></svg>