<?xml version='1.0' encoding='utf-8'?>
<svg xmlns="http://www.w3.org/2000/svg" version="1.1" viewBox="0 0 1024 1024"><g transform="scale(1, -1) translate(0, -900)"><path d="M 662 360 Q 680 366 789 370 Q 829 371 831 383 Q 832 396 805 415 Q 781 430 664 405 L 620 398 Q 578 394 530 387 Q 508 384 507 389 Q 506 393 514 411 Q 539 474 577 579 L 594 627 Q 639 757 663 778 Q 679 793 669 804 Q 614 849 590 846 Q 581 845 588 824 Q 600 776 549 619 L 533 570 Q 485 435 440 395 Q 418 377 434 329 Q 440 313 457 320 Q 523 344 620 356 L 662 360 Z" fill="black" /></g></svg>