<?xml version='1.0' encoding='utf-8'?>
<svg xmlns="http://www.w3.org/2000/svg" version="1.1" viewBox="0 0 1024 1024"><g transform="scale(1, -1) translate(0, -900)"><path d="M 623 414 Q 644 404 715 394 Q 742 390 751 375 Q 767 345 706 183 Q 675 105 642 95 Q 627 92 588 114 Q 551 136 546 130 Q 539 121 556 107 Q 598 59 603 22 Q 607 4 619 -3 Q 632 -10 669 10 Q 717 43 755 146 Q 815 332 831 347 Q 843 351 845 363 Q 846 373 822 399 Q 777 441 740 428 Q 712 428 638 445 C 609 452 595 424 623 414 Z" fill="black" /></g></svg>