<?xml version='1.0' encoding='utf-8'?>
<svg xmlns="http://www.w3.org/2000/svg" version="1.1" viewBox="0 0 1024 1024"><g transform="scale(1, -1) translate(0, -900)"><path d="M 360 453 Q 354 443 332 445 Q 305 449 276 447 Q 252 448 279 434 Q 331 409 381 377 Q 396 364 408 378 Q 423 388 428 414 Q 440 472 371 551 Q 326 596 364 642 Q 404 708 430 725 Q 449 738 440 751 Q 427 770 388 789 Q 367 798 352 785 Q 297 742 225 725 C 196 717 214 688 243 697 Q 280 707 321 726 Q 340 738 352 726 Q 359 719 348 698 Q 329 655 312 611 Q 299 587 314 567 Q 377 474 360 453 Z" fill="black" /></g></svg>