<?xml version='1.0' encoding='utf-8'?>
<svg xmlns="http://www.w3.org/2000/svg" version="1.1" viewBox="0 0 1024 1024"><g transform="scale(1, -1) translate(0, -900)"><path d="M 555 306 Q 573 417 575 436 L 577 465 Q 580 501 580 535 Q 583 625 587 639 C 590 662 590 662 571 673 Q 556 683 536 690 Q 517 699 504 693 Q 494 686 500 672 Q 521 648 525 563 Q 524 562 525 558 Q 531 390 499 270 Q 469 165 404 43 Q 400 36 399 30 Q 398 20 407 22 Q 422 25 455 75 Q 515 153 548 279 L 555 306 Z" fill="black" /></g></svg>