<?xml version='1.0' encoding='utf-8'?>
<svg xmlns="http://www.w3.org/2000/svg" version="1.1" viewBox="0 0 1024 1024"><g transform="scale(1, -1) translate(0, -900)"><path d="M 587 639 Q 594 640 604 643 Q 659 656 713 668 Q 735 674 741 662 Q 756 617 764 336 Q 765 101 752 77 Q 746 70 724 75 Q 696 79 669 83 Q 647 89 648 79 Q 709 30 745 -8 Q 761 -27 778 -33 Q 788 -37 797 -26 Q 842 29 837 90 Q 822 268 814 558 Q 813 622 827 650 Q 840 672 827 683 Q 802 704 762 720 Q 741 727 725 719 Q 662 686 571 673 C 541 668 558 632 587 639 Z" fill="black" /></g></svg>