<?xml version='1.0' encoding='utf-8'?>
<svg xmlns="http://www.w3.org/2000/svg" version="1.1" viewBox="0 0 1024 1024"><g transform="scale(1, -1) translate(0, -900)"><path d="M 214 720 Q 250 727 291 744 Q 310 754 320 742 Q 326 736 317 718 Q 301 679 287 641 Q 274 616 289 594 Q 352 501 335 479 Q 328 467 303 471 Q 270 475 236 475 Q 211 476 240 462 Q 301 434 356 398 Q 372 385 384 399 Q 400 409 406 436 Q 418 490 357 567 Q 312 618 321 636 Q 327 666 383 721 Q 393 734 404 739 Q 425 752 414 766 Q 401 785 361 807 Q 339 817 323 804 Q 266 764 202 752 C 173 745 185 713 214 720 Z" fill="black" /></g></svg>