<?xml version='1.0' encoding='utf-8'?>
<svg xmlns="http://www.w3.org/2000/svg" version="1.1" viewBox="0 0 1024 1024"><g transform="scale(1, -1) translate(0, -900)"><path d="M 936 93 Q 918 139 907 221 Q 906 237 898 242 Q 889 246 886 227 Q 870 127 856 110 Q 826 74 696 76 Q 626 79 596 91 Q 571 104 565 122 Q 555 155 556 239 Q 556 248 557 256 L 560 278 Q 567 339 583 373 Q 596 403 578 421 Q 529 461 513 457 Q 497 451 504 434 Q 523 395 517 340 Q 505 133 526 94 Q 547 49 639 33 Q 700 23 796 25 Q 883 28 917 46 Q 948 61 936 93 Z" fill="black" /></g></svg>