<?xml version='1.0' encoding='utf-8'?>
<svg xmlns="http://www.w3.org/2000/svg" version="1.1" viewBox="0 0 1024 1024"><g transform="scale(1, -1) translate(0, -900)"><path d="M 207 649 Q 246 659 287 679 Q 303 689 314 679 Q 321 673 312 653 Q 273 548 279 531 Q 328 432 329 414 Q 328 410 325 404 Q 319 394 299 396 Q 272 397 244 396 Q 219 396 248 382 Q 297 355 342 323 Q 357 310 370 322 Q 386 332 394 359 Q 409 410 351 493 Q 309 550 317 568 Q 327 602 377 661 Q 387 674 397 681 Q 418 694 407 708 Q 391 727 351 747 Q 329 754 314 742 Q 269 703 193 682 C 164 673 178 641 207 649 Z" fill="black" /></g></svg>