<?xml version='1.0' encoding='utf-8'?>
<svg xmlns="http://www.w3.org/2000/svg" version="1.1" viewBox="0 0 1024 1024"><g transform="scale(1, -1) translate(0, -900)"><path d="M 233 688 Q 266 695 303 710 Q 321 719 330 708 Q 334 704 325 691 Q 309 664 294 637 Q 279 613 292 592 Q 335 517 323 499 Q 319 492 301 493 Q 279 496 256 495 Q 232 496 258 481 Q 300 454 337 421 Q 349 409 361 420 Q 374 427 382 450 Q 400 501 341 579 Q 295 625 391 692 Q 398 699 405 702 Q 426 712 417 727 Q 405 746 369 768 Q 348 778 333 767 Q 278 728 210 718 C 180 713 204 681 233 688 Z" fill="black" /></g></svg>