<?xml version='1.0' encoding='utf-8'?>
<svg xmlns="http://www.w3.org/2000/svg" version="1.1" viewBox="0 0 1024 1024"><g transform="scale(1, -1) translate(0, -900)"><path d="M 679 122 Q 691 98 719 51 Q 729 35 739 37 Q 754 41 760 66 Q 790 142 786 239 Q 787 300 787 371 Q 788 417 809 446 Q 824 465 812 477 Q 790 496 745 514 Q 727 523 697 509 Q 628 481 517 459 L 488 454 Q 478 454 469 451 C 439 446 459 414 488 420 Q 597 441 708 461 Q 711 461 715 457 Q 749 402 723 166 Q 722 144 714 140 C 702 112 665 149 679 122 Z" fill="black" /></g></svg>