<?xml version='1.0' encoding='utf-8'?>
<svg xmlns="http://www.w3.org/2000/svg" version="1.1" viewBox="0 0 1024 1024"><g transform="scale(1, -1) translate(0, -900)"><path d="M 210 686 Q 255 692 300 711 Q 318 721 328 710 Q 334 703 323 683 Q 301 643 281 601 Q 265 576 279 555 Q 336 450 318 429 Q 311 419 287 426 Q 259 435 229 438 Q 204 442 230 424 Q 284 390 332 347 Q 347 332 361 346 Q 377 356 386 382 Q 404 439 342 526 Q 305 580 315 598 Q 318 616 375 675 Q 394 697 409 705 Q 431 717 420 732 Q 407 751 368 774 Q 347 784 332 773 Q 272 728 195 718 C 165 713 180 681 210 686 Z" fill="black" /></g></svg>