<?xml version='1.0' encoding='utf-8'?>
<svg xmlns="http://www.w3.org/2000/svg" version="1.1" viewBox="0 0 1024 1024"><g transform="scale(1, -1) translate(0, -900)"><path d="M 688 504 Q 800 529 821 516 Q 837 509 839 483 Q 840 419 824 303 Q 824 281 803 282 Q 767 289 738 296 Q 723 297 727 289 Q 728 279 755 260 Q 797 229 823 193 Q 835 183 846 189 Q 856 193 869 226 Q 888 269 890 358 Q 890 497 900 513 Q 910 523 903 534 Q 893 544 855 563 Q 837 570 823 563 Q 804 556 750 548 Q 719 544 695 537 L 645 527 Q 629 524 616 521 Q 562 511 522 504 C 492 499 518 464 547 473 Q 581 485 640 495 L 688 504 Z" fill="black" /></g></svg>