<?xml version='1.0' encoding='utf-8'?>
<svg xmlns="http://www.w3.org/2000/svg" version="1.1" viewBox="0 0 1024 1024"><g transform="scale(1, -1) translate(0, -900)"><path d="M 813 171 Q 726 162 651 147 L 604 137 Q 541 127 487 109 Q 465 103 471 129 Q 475 166 482 204 Q 486 229 476 245 Q 460 263 435 278 Q 422 285 412 282 Q 400 278 408 257 Q 430 208 421 158 Q 414 112 395 91 Q 376 72 383 57 Q 395 41 413 29 Q 428 20 438 30 Q 477 69 693 116 Q 789 134 813 128 C 843 126 843 174 813 171 Z" fill="black" /></g></svg>