<?xml version='1.0' encoding='utf-8'?>
<svg xmlns="http://www.w3.org/2000/svg" version="1.1" viewBox="0 0 1024 1024"><g transform="scale(1, -1) translate(0, -900)"><path d="M 230 690 Q 270 696 313 713 Q 329 722 340 711 Q 343 708 309 618 Q 296 596 310 576 Q 344 525 355 497 Q 359 481 353 472 Q 347 465 330 468 Q 308 472 284 474 Q 262 477 286 462 Q 332 434 373 399 Q 386 387 399 400 Q 412 410 417 434 Q 423 456 406 494 Q 388 537 355 570 Q 340 586 338 596 Q 334 609 345 623 Q 391 690 415 706 Q 434 718 426 731 Q 413 749 378 769 Q 359 778 343 766 Q 294 730 215 719 C 185 714 200 685 230 690 Z" fill="black" /></g></svg>