<?xml version='1.0' encoding='utf-8'?>
<svg xmlns="http://www.w3.org/2000/svg" version="1.1" viewBox="0 0 1024 1024"><g transform="scale(1, -1) translate(0, -900)"><path d="M 624 548 Q 667 594 715 649 Q 734 674 769 698 Q 784 708 780 717 Q 779 726 723 752 Q 707 762 687 751 Q 666 741 636 735 Q 593 728 553 722 C 523 717 509 712 537 703 Q 558 687 646 703 Q 664 706 669 699 Q 672 692 659 675 Q 628 626 585 575 L 564 552 Q 467 456 322 357 Q 309 347 321 345 Q 399 345 592 516 Q 595 520 599 523 L 624 548 Z" fill="black" /></g></svg>