<?xml version='1.0' encoding='utf-8'?>
<svg xmlns="http://www.w3.org/2000/svg" version="1.1" viewBox="0 0 1024 1024"><g transform="scale(1, -1) translate(0, -900)"><path d="M 229 654 Q 263 661 301 679 Q 317 689 328 678 Q 331 675 294 585 Q 273 564 294 535 Q 331 483 341 452 Q 347 434 340 425 Q 333 415 311 418 Q 283 424 252 423 Q 228 424 255 410 Q 310 383 361 349 Q 376 337 388 350 Q 401 360 408 386 Q 418 447 347 524 Q 308 563 343 604 Q 382 662 405 677 Q 424 689 415 703 Q 402 722 364 741 Q 343 750 328 737 Q 276 697 221 685 C 192 677 200 647 229 654 Z" fill="black" /></g></svg>