<?xml version='1.0' encoding='utf-8'?>
<svg xmlns="http://www.w3.org/2000/svg" version="1.1" viewBox="0 0 1024 1024"><g transform="scale(1, -1) translate(0, -900)"><path d="M 353 442 Q 346 432 324 433 Q 296 437 264 435 Q 240 436 267 422 Q 322 397 371 365 Q 384 353 398 365 Q 411 375 418 399 Q 433 457 360 538 Q 329 575 372 630 Q 400 675 419 686 Q 438 699 428 713 Q 415 731 375 749 Q 354 756 340 745 Q 295 706 221 685 C 192 676 202 646 231 654 Q 271 664 313 684 Q 329 694 341 685 Q 347 679 339 662 Q 323 625 311 587 Q 298 562 313 544 Q 368 460 353 442 Z" fill="black" /></g></svg>