<?xml version='1.0' encoding='utf-8'?>
<svg xmlns="http://www.w3.org/2000/svg" version="1.1" viewBox="0 0 1024 1024"><g transform="scale(1, -1) translate(0, -900)"><path d="M 673 453 Q 679 471 688 504 L 695 537 Q 696 547 699 556 Q 699 568 707 603 Q 714 615 709 626 Q 696 639 670 652 Q 669 653 666 653 C 638 664 631 667 637 648 Q 647 618 648 586 Q 648 555 645 527 L 640 495 Q 625 411 578 338 Q 574 332 572 328 Q 571 318 578 320 Q 605 326 652 402 Q 652 405 654 407 Q 661 420 667 436 L 673 453 Z" fill="black" /></g></svg>