<?xml version='1.0' encoding='utf-8'?>
<svg xmlns="http://www.w3.org/2000/svg" version="1.1" viewBox="0 0 1024 1024"><g transform="scale(1, -1) translate(0, -900)"><path d="M 236 687 Q 270 694 307 713 Q 323 723 333 713 Q 337 707 330 690 Q 314 653 300 615 Q 287 591 301 571 Q 335 520 346 491 Q 352 475 344 466 Q 338 454 314 457 Q 284 461 252 460 Q 228 460 255 446 Q 312 421 364 389 Q 379 376 391 390 Q 404 400 411 424 Q 423 475 358 556 Q 315 589 343 631 Q 386 698 410 713 Q 429 726 419 740 Q 406 758 367 777 Q 346 784 332 773 Q 284 734 212 715 C 183 707 207 680 236 687 Z" fill="black" /></g></svg>