<?xml version='1.0' encoding='utf-8'?>
<svg xmlns="http://www.w3.org/2000/svg" version="1.1" viewBox="0 0 1024 1024"><g transform="scale(1, -1) translate(0, -900)"><path d="M 569 456 Q 570 460 574 465 Q 605 526 629 593 L 643 639 Q 664 717 690 757 Q 697 767 691 777 Q 676 798 644 820 Q 625 835 607 832 Q 585 829 598 808 Q 619 774 612 743 Q 599 679 583 627 L 569 581 Q 496 392 386 277 Q 374 267 361 253 Q 348 246 346 242 Q 342 235 358 235 Q 395 235 495 341 Q 502 353 512 364 Q 525 382 539 404 L 569 456 Z" fill="black" /></g></svg>