<?xml version='1.0' encoding='utf-8'?>
<svg xmlns="http://www.w3.org/2000/svg" version="1.1" viewBox="0 0 1024 1024"><g transform="scale(1, -1) translate(0, -900)"><path d="M 500 451 L 501 452 L 501 487 Q 500 536 499 581 L 498 610 Q 497 667 506 713 Q 506 716 507 717 C 510 733 510 733 491 746 Q 470 762 452 771 Q 433 778 424 772 Q 414 765 423 749 Q 490 616 439 141 Q 430 104 403 64 Q 391 48 400 25 Q 412 -2 426 -13 Q 439 -20 451 -3 Q 464 27 598 157 Q 617 172 621 182 Q 624 192 614 192 Q 601 191 499 125 Q 492 119 490 127 Q 499 284 500 417 L 500 451 Z" fill="black" /></g></svg>