<?xml version='1.0' encoding='utf-8'?>
<svg xmlns="http://www.w3.org/2000/svg" version="1.1" viewBox="0 0 1024 1024"><g transform="scale(1, -1) translate(0, -900)"><path d="M 206 698 Q 239 698 286 719 Q 301 726 309 718 Q 315 711 305 694 Q 289 657 273 619 Q 260 595 273 577 Q 336 477 318 457 Q 312 447 291 450 Q 264 454 236 455 Q 214 456 238 442 Q 289 417 335 383 Q 350 370 363 384 Q 378 394 384 420 Q 396 474 329 558 Q 289 598 309 624 Q 358 697 383 714 Q 402 726 393 739 Q 381 757 345 776 Q 326 785 311 773 Q 259 737 192 727 C 162 722 176 695 206 698 Z" fill="black" /></g></svg>