<?xml version='1.0' encoding='utf-8'?>
<svg xmlns="http://www.w3.org/2000/svg" version="1.1" viewBox="0 0 1024 1024"><g transform="scale(1, -1) translate(0, -900)"><path d="M 201 665 Q 238 674 279 692 Q 295 702 306 692 Q 312 685 302 668 Q 254 578 260 561 Q 299 482 293 472 Q 292 472 292 470 Q 288 461 269 464 Q 247 467 224 467 Q 202 468 226 454 Q 268 427 305 396 Q 315 384 328 394 Q 340 401 347 422 Q 354 441 344 476 Q 332 515 307 547 Q 285 578 301 600 Q 353 673 379 690 Q 398 702 388 714 Q 376 732 340 751 Q 321 760 307 749 Q 252 704 187 694 C 158 688 172 657 201 665 Z" fill="black" /></g></svg>