<?xml version='1.0' encoding='utf-8'?>
<svg xmlns="http://www.w3.org/2000/svg" version="1.1" viewBox="0 0 1024 1024"><g transform="scale(1, -1) translate(0, -900)"><path d="M 575 339 Q 554 191 466 121 Q 412 79 319 38 Q 306 31 305 27 Q 306 23 318 22 Q 337 18 386 33 Q 468 54 525 108 Q 597 174 620 309 L 626 383 Q 626 387 627 390 Q 631 508 637 618 L 640 664 Q 640 706 666 775 Q 673 790 662 801 Q 640 820 600 831 Q 575 838 565 831 Q 556 824 564 811 Q 586 774 590 726 Q 591 689 592 652 L 592 608 Q 591 490 579 376 L 575 339 Z" fill="black" /></g></svg>