<?xml version='1.0' encoding='utf-8'?>
<svg xmlns="http://www.w3.org/2000/svg" version="1.1" viewBox="0 0 1024 1024"><g transform="scale(1, -1) translate(0, -900)"><path d="M 238 680 Q 272 686 309 703 Q 322 710 332 702 Q 338 698 331 680 Q 297 586 306 568 Q 345 529 359 476 Q 358 470 355 465 Q 348 455 325 458 Q 295 462 264 463 Q 240 464 267 450 Q 325 423 378 389 Q 393 377 404 390 Q 417 400 422 425 Q 431 479 370 546 Q 322 594 350 623 Q 387 687 412 703 Q 431 716 421 729 Q 406 748 368 766 Q 346 773 332 761 Q 284 724 218 710 C 189 703 209 674 238 680 Z" fill="black" /></g></svg>