<?xml version='1.0' encoding='utf-8'?>
<svg xmlns="http://www.w3.org/2000/svg" version="1.1" viewBox="0 0 1024 1024"><g transform="scale(1, -1) translate(0, -900)"><path d="M 222 673 Q 253 677 286 692 Q 299 699 306 692 Q 312 688 306 670 Q 279 577 284 566 Q 284 563 289 557 Q 329 493 319 477 Q 313 470 299 474 Q 280 480 260 482 Q 238 486 261 469 Q 300 438 335 403 Q 345 393 357 403 Q 370 410 376 431 Q 391 482 331 554 Q 307 588 337 631 Q 364 679 383 694 Q 402 707 391 719 Q 378 737 340 753 Q 321 760 307 749 Q 267 713 202 700 C 173 693 192 668 222 673 Z" fill="black" /></g></svg>