<?xml version='1.0' encoding='utf-8'?>
<svg xmlns="http://www.w3.org/2000/svg" version="1.1" viewBox="0 0 1024 1024"><g transform="scale(1, -1) translate(0, -900)"><path d="M 200 634 Q 234 644 270 662 Q 288 674 299 663 Q 305 657 298 639 Q 261 543 270 526 Q 270 525 273 521 Q 325 434 311 417 Q 304 407 283 412 Q 256 418 228 419 Q 206 420 230 406 Q 281 378 327 343 Q 340 331 352 343 Q 365 353 373 376 Q 386 433 322 509 Q 285 546 324 598 Q 354 650 374 665 Q 393 678 382 690 Q 369 706 331 724 Q 312 731 299 720 Q 259 686 190 662 C 162 652 171 625 200 634 Z" fill="black" /></g></svg>