<?xml version='1.0' encoding='utf-8'?>
<svg xmlns="http://www.w3.org/2000/svg" version="1.1" viewBox="0 0 1024 1024"><g transform="scale(1, -1) translate(0, -900)"><path d="M 206 641 Q 207 642 211 643 Q 250 653 288 675 Q 303 685 313 677 Q 320 670 311 651 Q 293 611 279 570 Q 269 546 282 529 Q 337 445 322 428 Q 316 418 294 419 Q 266 422 235 420 Q 213 419 239 407 Q 291 385 340 355 Q 353 343 365 356 Q 378 365 384 389 Q 396 440 339 510 Q 303 555 312 574 Q 312 593 363 655 Q 375 673 386 681 Q 404 694 393 706 Q 380 722 342 739 Q 323 745 310 734 Q 265 691 203 673 C 175 664 177 632 206 641 Z" fill="black" /></g></svg>