<?xml version='1.0' encoding='utf-8'?>
<svg xmlns="http://www.w3.org/2000/svg" version="1.1" viewBox="0 0 1024 1024"><g transform="scale(1, -1) translate(0, -900)"><path d="M 232 656 Q 262 663 297 680 Q 313 690 322 680 Q 329 674 322 656 Q 289 557 298 539 Q 347 452 332 434 Q 328 425 310 425 Q 288 426 263 423 Q 241 423 267 411 Q 307 389 344 360 Q 357 347 370 358 Q 383 367 392 390 Q 404 432 362 506 Q 323 563 331 580 Q 331 599 378 657 Q 388 675 399 682 Q 417 695 407 707 Q 394 723 356 741 Q 337 748 323 737 Q 281 701 219 684 C 190 675 203 648 232 656 Z" fill="black" /></g></svg>