<?xml version='1.0' encoding='utf-8'?>
<svg xmlns="http://www.w3.org/2000/svg" version="1.1" viewBox="0 0 1024 1024"><g transform="scale(1, -1) translate(0, -900)"><path d="M 230 628 Q 261 637 297 654 Q 313 664 323 655 Q 330 648 320 628 Q 278 526 285 508 Q 285 505 289 501 Q 331 429 319 413 Q 315 407 299 411 Q 280 415 260 418 Q 238 422 261 405 Q 300 374 334 340 Q 346 328 357 338 Q 370 345 377 368 Q 384 387 372 423 Q 359 463 332 496 Q 307 526 323 552 Q 371 636 397 656 Q 416 669 406 681 Q 393 699 355 716 Q 336 723 323 712 Q 278 673 218 657 C 189 648 201 619 230 628 Z" fill="black" /></g></svg>