<?xml version='1.0' encoding='utf-8'?>
<svg xmlns="http://www.w3.org/2000/svg" version="1.1" viewBox="0 0 1024 1024"><g transform="scale(1, -1) translate(0, -900)"><path d="M 700 393 Q 713 368 727 357 Q 737 347 757 367 Q 776 389 827 518 Q 840 549 867 573 Q 882 585 871 600 Q 858 619 815 651 Q 794 666 734 647 Q 709 646 631 628 L 582 619 Q 569 618 560 615 Q 493 600 435 591 C 405 586 439 552 468 559 Q 471 559 476 560 Q 519 575 582 588 L 631 598 Q 751 628 775 611 Q 787 598 780 579 Q 731 435 711 427 C 692 406 692 406 700 393 Z" fill="black" /></g></svg>