<?xml version='1.0' encoding='utf-8'?>
<svg xmlns="http://www.w3.org/2000/svg" version="1.1" viewBox="0 0 1024 1024"><g transform="scale(1, -1) translate(0, -900)"><path d="M 574 254 Q 574 -40 583 -62 Q 586 -68 589 -73 Q 595 -80 603 -78 Q 612 -74 617 -57 Q 648 21 631 261 L 630 296 Q 629 333 629 384 L 629 417 Q 629 451 630 492 L 631 531 Q 631 564 631 598 L 631 628 Q 631 661 633 703 L 634 747 Q 635 757 637 764 Q 643 798 648 826 Q 651 845 636 855 Q 600 879 583 882 Q 570 886 552 877 Q 542 868 551 857 Q 584 788 585 734 L 584 692 Q 583 658 582 619 L 582 588 Q 581 555 581 518 L 581 483 Q 580 447 578 407 L 578 377 Q 577 335 575 288 L 574 254 Z" fill="black" /></g></svg>