<?xml version='1.0' encoding='utf-8'?>
<svg xmlns="http://www.w3.org/2000/svg" version="1.1" viewBox="0 0 1024 1024"><g transform="scale(1, -1) translate(0, -900)"><path d="M 611 351 Q 614 385 629 583 L 632 632 Q 641 711 660 751 Q 667 766 656 778 Q 632 799 590 811 Q 563 818 554 811 Q 544 804 552 790 Q 582 742 578 618 L 578 572 Q 571 302 511 203 Q 495 179 474 157 Q 419 102 300 51 Q 285 44 285 39 Q 286 35 298 34 Q 317 30 366 44 Q 448 63 507 119 Q 579 186 605 317 L 611 351 Z" fill="black" /></g></svg>