<?xml version='1.0' encoding='utf-8'?>
<svg xmlns="http://www.w3.org/2000/svg" version="1.1" viewBox="0 0 1024 1024"><g transform="scale(1, -1) translate(0, -900)"><path d="M 920 426 Q 907 457 897 510 Q 896 525 889 530 Q 882 534 878 516 Q 859 455 847 444 Q 840 435 820 430 Q 751 415 705 431 Q 690 438 687 448 Q 674 482 672 567 L 673 594 Q 679 672 694 712 Q 704 740 688 755 Q 642 789 627 785 Q 614 781 621 764 Q 639 730 635 680 Q 629 437 662 409 Q 680 393 721 384 Q 848 362 903 385 Q 931 398 920 426 Z" fill="black" /></g></svg>