<?xml version='1.0' encoding='utf-8'?>
<svg xmlns="http://www.w3.org/2000/svg" version="1.1" viewBox="0 0 1024 1024"><g transform="scale(1, -1) translate(0, -900)"><path d="M 207 640 Q 238 647 274 666 Q 290 676 299 667 Q 305 661 297 645 Q 281 609 268 574 Q 255 552 269 533 Q 317 452 303 437 Q 299 427 277 428 Q 252 429 223 427 Q 201 427 227 415 Q 275 393 318 363 Q 331 351 343 363 Q 356 370 363 394 Q 378 449 317 522 Q 281 558 321 606 Q 352 654 373 667 Q 391 680 381 692 Q 368 710 331 727 Q 312 734 298 724 Q 256 687 198 670 C 169 661 178 632 207 640 Z" fill="black" /></g></svg>