<?xml version='1.0' encoding='utf-8'?>
<svg xmlns="http://www.w3.org/2000/svg" version="1.1" viewBox="0 0 1024 1024"><g transform="scale(1, -1) translate(0, -900)"><path d="M 166 676 Q 199 686 234 703 Q 247 713 258 704 Q 264 698 254 680 Q 236 643 221 605 Q 209 583 222 566 Q 279 473 263 455 Q 259 445 237 446 Q 212 447 183 444 Q 161 443 187 432 Q 235 413 280 386 Q 293 374 305 386 Q 318 396 325 420 Q 338 474 278 543 Q 241 591 252 609 Q 283 673 323 703 Q 344 716 334 729 Q 322 745 287 761 Q 268 768 256 758 Q 219 724 156 703 C 128 693 138 667 166 676 Z" fill="black" /></g></svg>