<?xml version='1.0' encoding='utf-8'?>
<svg xmlns="http://www.w3.org/2000/svg" version="1.1" viewBox="0 0 1024 1024"><g transform="scale(1, -1) translate(0, -900)"><path d="M 224 652 Q 251 652 306 680 Q 319 689 329 680 Q 335 674 326 657 Q 310 620 296 583 Q 283 558 298 539 Q 364 452 347 433 Q 341 423 318 425 Q 290 429 260 427 Q 236 428 263 414 Q 318 389 370 357 Q 386 345 397 359 Q 410 369 415 395 Q 425 453 355 525 Q 316 564 339 599 Q 382 666 406 681 Q 425 694 415 708 Q 402 726 363 744 Q 339 751 301 718 Q 265 696 213 683 C 184 675 194 648 224 652 Z" fill="black" /></g></svg>