<?xml version='1.0' encoding='utf-8'?>
<svg xmlns="http://www.w3.org/2000/svg" version="1.1" viewBox="0 0 1024 1024"><g transform="scale(1, -1) translate(0, -900)"><path d="M 329 408 Q 323 398 301 399 Q 273 402 243 400 Q 221 399 247 387 Q 299 365 349 335 Q 365 323 377 337 Q 392 347 397 375 Q 406 432 340 507 Q 292 555 317 591 Q 357 663 382 681 Q 400 694 390 706 Q 377 722 339 739 Q 320 746 306 735 Q 260 695 194 676 C 165 667 181 639 210 648 Q 244 658 282 677 Q 298 687 308 678 Q 314 672 306 652 Q 264 553 275 533 Q 275 532 278 528 Q 345 431 329 408 Z" fill="black" /></g></svg>