<?xml version='1.0' encoding='utf-8'?>
<svg xmlns="http://www.w3.org/2000/svg" version="1.1" viewBox="0 0 1024 1024"><g transform="scale(1, -1) translate(0, -900)"><path d="M 478 290 Q 479 293 482 294 Q 536 345 573 435 L 584 465 Q 597 505 607 546 L 614 582 Q 620 618 627 632 Q 634 642 630 653 Q 623 662 612 670 C 589 689 565 692 569 662 Q 569 661 571 656 Q 572 650 565 568 L 560 539 Q 545 473 540 456 L 529 428 Q 526 424 525 416 Q 504 370 447 287 C 430 262 457 269 478 290 Z" fill="black" /></g></svg>