<?xml version='1.0' encoding='utf-8'?>
<svg xmlns="http://www.w3.org/2000/svg" version="1.1" viewBox="0 0 1024 1024"><g transform="scale(1, -1) translate(0, -900)"><path d="M 193 668 Q 230 678 271 698 Q 287 708 299 699 Q 305 693 297 676 Q 281 639 268 602 Q 255 580 269 561 Q 329 465 311 445 Q 304 435 282 438 Q 254 442 224 443 Q 202 444 226 430 Q 278 405 327 371 Q 340 358 354 371 Q 369 381 375 406 Q 382 430 366 471 Q 350 517 315 552 Q 288 586 304 609 Q 349 682 373 700 Q 392 713 381 725 Q 368 741 331 759 Q 312 766 298 756 Q 253 716 183 696 C 154 687 164 659 193 668 Z" fill="black" /></g></svg>