<?xml version='1.0' encoding='utf-8'?>
<svg xmlns="http://www.w3.org/2000/svg" version="1.1" viewBox="0 0 1024 1024"><g transform="scale(1, -1) translate(0, -900)"><path d="M 184 659 Q 224 663 267 681 Q 286 691 296 679 Q 300 673 291 656 Q 272 619 254 583 Q 241 561 253 541 Q 310 445 291 425 Q 284 418 265 425 Q 243 435 216 441 Q 194 447 216 428 Q 264 394 306 352 Q 319 339 333 351 Q 346 361 354 385 Q 361 407 347 449 Q 331 495 298 530 Q 271 563 290 587 Q 342 657 369 673 Q 388 683 380 697 Q 368 715 334 736 Q 315 746 301 736 Q 250 700 175 688 C 146 683 154 655 184 659 Z" fill="black" /></g></svg>