<?xml version='1.0' encoding='utf-8'?>
<svg xmlns="http://www.w3.org/2000/svg" version="1.1" viewBox="0 0 1024 1024"><g transform="scale(1, -1) translate(0, -900)"><path d="M 689 452 Q 705 428 721 421 Q 731 414 746 435 Q 761 460 789 603 Q 798 634 820 658 Q 833 671 821 684 Q 805 700 763 726 Q 745 733 662 713 Q 659 713 657 712 Q 518 685 509 681 L 478 675 Q 456 672 438 668 C 409 662 428 626 457 635 Q 493 647 569 662 L 612 670 Q 711 694 727 678 Q 740 662 738 646 Q 714 496 697 482 C 684 459 684 459 689 452 Z" fill="black" /></g></svg>