<?xml version='1.0' encoding='utf-8'?>
<svg xmlns="http://www.w3.org/2000/svg" version="1.1" viewBox="0 0 1024 1024"><g transform="scale(1, -1) translate(0, -900)"><path d="M 221 675 Q 255 681 290 694 Q 306 701 315 692 Q 321 688 314 671 Q 283 586 288 573 Q 288 570 292 566 Q 337 484 321 466 Q 315 457 295 458 Q 270 461 243 459 Q 221 460 246 447 Q 291 422 332 392 Q 344 379 356 390 Q 371 397 378 420 Q 396 471 342 548 Q 302 588 339 625 Q 373 676 393 687 Q 412 699 403 712 Q 390 730 354 750 Q 335 759 320 747 Q 278 719 215 705 C 186 698 192 669 221 675 Z" fill="black" /></g></svg>