<?xml version='1.0' encoding='utf-8'?>
<svg xmlns="http://www.w3.org/2000/svg" version="1.1" viewBox="0 0 1024 1024"><g transform="scale(1, -1) translate(0, -900)"><path d="M 655 122 Q 688 171 718 246 Q 731 271 750 288 Q 769 303 757 316 Q 745 328 717 340 Q 695 349 669 337 Q 647 330 616 322 Q 595 318 567 314 C 537 310 516 290 546 285 Q 574 278 610 286 Q 641 299 648 299 Q 672 295 664 270 Q 648 203 619 154 L 597 122 Q 531 43 400 7 Q 387 3 398 -5 Q 404 -9 444 -7 Q 546 2 627 86 L 655 122 Z" fill="black" /></g></svg>