<?xml version='1.0' encoding='utf-8'?>
<svg xmlns="http://www.w3.org/2000/svg" version="1.1" viewBox="0 0 1024 1024"><g transform="scale(1, -1) translate(0, -900)"><path d="M 697 66 Q 678 65 589 110 Q 579 114 579 108 Q 578 104 589 94 Q 644 39 671 -1 Q 684 -26 701 -25 Q 725 -25 746 1 Q 822 68 838 244 Q 848 361 847 538 Q 846 578 869 610 Q 882 623 881 632 Q 880 639 859 653 Q 832 672 796 682 Q 775 689 718 670 Q 703 667 683 661 Q 635 649 510 625 C 481 619 462 606 492 605 Q 517 598 655 617 Q 763 633 773 625 Q 792 589 789 368 Q 780 197 738 110 Q 722 70 697 66 Z" fill="black" /></g></svg>