<?xml version='1.0' encoding='utf-8'?>
<svg xmlns="http://www.w3.org/2000/svg" version="1.1" viewBox="0 0 1024 1024"><g transform="scale(1, -1) translate(0, -900)"><path d="M 700 389 Q 700 385 702 381 Q 706 365 720 364 Q 735 365 744 381 Q 757 394 784 468 Q 803 520 843 550 Q 864 566 847 583 Q 829 601 779 631 Q 764 641 687 624 Q 644 618 614 609 L 570 601 Q 540 597 515 589 Q 460 576 418 568 C 389 562 408 522 435 534 Q 444 544 571 569 L 615 578 Q 726 600 744 592 Q 754 585 746 555 Q 718 446 707 420 L 700 389 Z" fill="black" /></g></svg>