<?xml version='1.0' encoding='utf-8'?>
<svg xmlns="http://www.w3.org/2000/svg" version="1.1" viewBox="0 0 1024 1024"><g transform="scale(1, -1) translate(0, -900)"><path d="M 207 666 Q 243 673 281 690 Q 299 700 309 689 Q 313 683 303 666 Q 281 632 263 595 Q 248 573 261 553 Q 313 466 296 446 Q 290 439 273 441 Q 251 445 228 446 Q 206 449 230 434 Q 272 406 309 372 Q 322 359 335 371 Q 348 380 356 403 Q 363 425 350 464 Q 337 507 305 543 Q 281 579 299 599 Q 354 669 381 684 Q 400 694 391 708 Q 379 727 345 747 Q 326 756 312 746 Q 261 709 192 693 C 163 686 178 659 207 666 Z" fill="black" /></g></svg>