<?xml version='1.0' encoding='utf-8'?>
<svg xmlns="http://www.w3.org/2000/svg" version="1.1" viewBox="0 0 1024 1024"><g transform="scale(1, -1) translate(0, -900)"><path d="M 216 649 Q 253 658 294 676 Q 312 686 322 676 Q 323 673 295 613 Q 265 559 276 539 Q 313 485 323 454 Q 329 436 322 428 Q 315 419 296 422 Q 271 426 244 427 Q 220 428 246 414 Q 295 389 340 355 Q 355 343 367 356 Q 380 366 386 390 Q 396 447 333 519 Q 290 562 321 594 Q 367 658 394 673 Q 413 685 404 697 Q 391 716 356 735 Q 337 744 322 732 Q 274 693 203 678 C 174 671 187 641 216 649 Z" fill="black" /></g></svg>