<?xml version='1.0' encoding='utf-8'?>
<svg xmlns="http://www.w3.org/2000/svg" version="1.1" viewBox="0 0 1024 1024"><g transform="scale(1, -1) translate(0, -900)"><path d="M 217 638 Q 257 645 299 662 Q 317 671 326 660 Q 332 654 323 637 Q 307 600 292 564 Q 279 539 293 520 Q 347 436 330 418 Q 323 409 303 412 Q 276 416 248 415 Q 224 416 251 402 Q 300 374 346 341 Q 359 328 372 341 Q 385 350 393 373 Q 400 395 385 434 Q 370 479 339 512 Q 312 545 330 568 Q 379 640 405 656 Q 426 669 416 682 Q 403 701 365 722 Q 344 731 329 719 Q 274 680 206 670 C 176 665 188 632 217 638 Z" fill="black" /></g></svg>