<?xml version='1.0' encoding='utf-8'?>
<svg xmlns="http://www.w3.org/2000/svg" version="1.1" viewBox="0 0 1024 1024"><g transform="scale(1, -1) translate(0, -900)"><path d="M 223 694 Q 253 703 283 718 Q 298 727 308 719 Q 292 664 274 606 Q 275 600 280 593 Q 308 542 316 514 Q 320 498 312 490 Q 306 480 285 483 Q 260 487 232 487 Q 208 488 234 474 Q 282 449 324 416 Q 337 403 350 414 Q 363 423 372 446 Q 379 467 367 506 Q 354 549 324 585 Q 300 618 316 638 Q 359 704 381 720 Q 399 732 389 745 Q 376 761 339 779 Q 320 786 306 775 Q 267 739 208 721 C 180 711 195 685 223 694 Z" fill="black" /></g></svg>