<?xml version='1.0' encoding='utf-8'?>
<svg xmlns="http://www.w3.org/2000/svg" version="1.1" viewBox="0 0 1024 1024"><g transform="scale(1, -1) translate(0, -900)"><path d="M 638 354 Q 812 384 833 362 Q 840 355 838 340 Q 828 139 813 112 Q 809 102 797 105 Q 772 109 743 114 Q 716 118 735 100 Q 795 51 819 15 Q 831 -1 845 11 Q 861 27 872 55 Q 884 85 889 247 Q 890 308 909 338 Q 925 357 918 366 Q 911 379 860 411 Q 841 426 826 419 Q 798 409 745 400 Q 685 394 639 386 L 598 380 Q 531 373 496 363 Q 444 351 405 347 Q 401 347 400 345 C 370 340 394 303 424 306 Q 440 305 456 310 Q 505 329 594 348 Q 595 349 598 348 L 638 354 Z" fill="black" /></g></svg>