<?xml version='1.0' encoding='utf-8'?>
<svg xmlns="http://www.w3.org/2000/svg" version="1.1" viewBox="0 0 1024 1024"><g transform="scale(1, -1) translate(0, -900)"><path d="M 309 591 Q 358 661 383 678 Q 402 690 393 703 Q 380 721 344 740 Q 325 747 311 737 Q 275 709 244 696 Q 220 689 194 683 C 165 676 180 648 209 655 Q 243 662 281 681 Q 299 691 310 681 Q 314 674 306 658 Q 288 622 273 587 Q 260 565 272 546 Q 294 503 300 478 Q 303 465 297 458 Q 293 451 275 454 Q 254 458 232 458 Q 210 461 233 445 Q 273 417 307 384 Q 317 372 330 381 Q 343 388 351 409 Q 358 428 350 464 Q 340 504 314 538 Q 304 556 302 564 Q 298 577 309 591 Z" fill="black" /></g></svg>