<?xml version='1.0' encoding='utf-8'?>
<svg xmlns="http://www.w3.org/2000/svg" version="1.1" viewBox="0 0 1024 1024"><g transform="scale(1, -1) translate(0, -900)"><path d="M 207 691 Q 243 700 279 718 Q 294 727 304 719 Q 308 713 301 698 Q 256 616 276 586 Q 300 541 308 514 Q 312 498 304 490 Q 298 480 277 483 Q 252 487 224 487 Q 200 488 226 474 Q 274 449 316 416 Q 329 403 342 414 Q 355 423 364 445 Q 382 499 320 580 Q 284 616 325 662 Q 356 708 376 719 Q 395 731 385 744 Q 372 760 335 779 Q 316 786 302 775 Q 257 733 192 719 C 163 712 178 683 207 691 Z" fill="black" /></g></svg>