<?xml version='1.0' encoding='utf-8'?>
<svg xmlns="http://www.w3.org/2000/svg" version="1.1" viewBox="0 0 1024 1024"><g transform="scale(1, -1) translate(0, -900)"><path d="M 563 331 Q 573 332 587 337 Q 692 362 709 355 Q 719 351 721 326 Q 734 172 726 51 Q 725 26 710 22 Q 698 19 637 37 Q 627 40 626 32 Q 627 25 641 15 Q 678 -16 707 -51 Q 723 -67 740 -66 Q 755 -63 774 -19 Q 796 24 793 70 Q 786 178 778 277 Q 774 317 791 348 Q 803 363 788 377 Q 770 392 733 404 Q 712 414 695 402 Q 680 395 651 384 Q 588 368 554 358 C 525 350 534 324 563 331 Z" fill="black" /></g></svg>