<?xml version='1.0' encoding='utf-8'?>
<svg xmlns="http://www.w3.org/2000/svg" version="1.1" viewBox="0 0 1024 1024"><g transform="scale(1, -1) translate(0, -900)"><path d="M 695 483 Q 694 476 698 466 Q 704 451 716 453 Q 729 454 735 469 Q 750 490 770 587 Q 785 638 819 668 Q 837 684 821 699 Q 803 715 753 739 Q 741 746 678 732 Q 648 732 536 706 Q 476 693 439 689 Q 438 689 436 688 C 406 683 439 652 469 657 Q 476 657 485 659 Q 513 669 562 676 L 600 683 Q 702 704 723 694 Q 733 687 729 653 Q 708 527 697 497 L 695 483 Z" fill="black" /></g></svg>