<?xml version='1.0' encoding='utf-8'?>
<svg xmlns="http://www.w3.org/2000/svg" version="1.1" viewBox="0 0 1024 1024"><g transform="scale(1, -1) translate(0, -900)"><path d="M 711 482 Q 727 460 741 453 Q 751 446 766 467 Q 779 491 808 623 Q 817 654 840 678 Q 853 690 842 704 Q 826 720 784 746 Q 769 753 709 741 Q 694 740 680 736 Q 511 708 473 700 C 444 694 459 658 488 667 Q 503 674 582 686 L 623 693 Q 660 700 707 705 Q 737 709 746 698 Q 759 683 757 669 Q 735 525 714 512 C 701 494 701 494 711 482 Z" fill="black" /></g></svg>