<?xml version='1.0' encoding='utf-8'?>
<svg xmlns="http://www.w3.org/2000/svg" version="1.1" viewBox="0 0 1024 1024"><g transform="scale(1, -1) translate(0, -900)"><path d="M 210 665 Q 243 672 279 687 Q 295 696 305 686 Q 309 682 303 665 Q 269 578 279 559 Q 339 468 322 449 Q 318 439 296 441 Q 271 445 243 443 Q 221 444 247 431 Q 295 406 339 375 Q 354 363 366 376 Q 379 385 386 409 Q 398 458 343 531 Q 336 541 327 549 Q 297 588 338 634 Q 363 673 381 684 Q 400 696 390 709 Q 377 727 341 745 Q 322 752 307 741 Q 256 705 191 693 C 162 687 181 658 210 665 Z" fill="black" /></g></svg>