<?xml version='1.0' encoding='utf-8'?>
<svg xmlns="http://www.w3.org/2000/svg" version="1.1" viewBox="0 0 1024 1024"><g transform="scale(1, -1) translate(0, -900)"><path d="M 214 665 Q 245 672 278 686 Q 293 693 301 685 Q 308 679 300 661 Q 267 562 272 548 Q 272 545 276 541 Q 318 465 305 446 Q 301 439 286 442 Q 267 446 248 446 Q 226 450 249 433 Q 285 405 316 372 Q 328 359 340 370 Q 353 377 362 400 Q 369 419 359 458 Q 347 500 319 534 Q 297 570 311 590 Q 354 666 378 685 Q 397 698 387 710 Q 374 728 337 745 Q 316 752 304 742 Q 262 709 197 693 C 168 685 185 658 214 665 Z" fill="black" /></g></svg>