<?xml version='1.0' encoding='utf-8'?>
<svg xmlns="http://www.w3.org/2000/svg" version="1.1" viewBox="0 0 1024 1024"><g transform="scale(1, -1) translate(0, -900)"><path d="M 221 684 Q 257 691 294 708 Q 310 717 319 707 Q 325 701 316 685 Q 300 649 285 613 Q 273 591 286 574 Q 340 493 327 475 Q 321 465 298 466 Q 270 469 239 467 Q 217 467 242 456 Q 296 434 345 406 Q 358 394 369 406 Q 382 416 387 438 Q 397 498 329 567 Q 301 603 337 645 Q 370 693 390 704 Q 408 716 399 728 Q 387 744 353 763 Q 334 770 321 760 Q 279 729 212 712 C 183 704 192 677 221 684 Z" fill="black" /></g></svg>