<?xml version='1.0' encoding='utf-8'?>
<svg xmlns="http://www.w3.org/2000/svg" version="1.1" viewBox="0 0 1024 1024"><g transform="scale(1, -1) translate(0, -900)"><path d="M 449 318 Q 464 317 479 322 Q 593 367 803 383 Q 824 383 835 372 Q 844 363 839 347 Q 849 124 836 92 Q 832 82 819 84 Q 797 84 772 84 Q 744 85 765 68 Q 826 25 852 -9 Q 867 -24 880 -10 Q 898 9 905 41 Q 915 75 903 252 Q 897 318 915 352 Q 930 374 923 382 Q 914 395 860 428 Q 841 443 824 436 Q 794 423 739 412 Q 571 393 509 376 Q 461 364 426 360 C 396 356 419 314 449 318 Z" fill="black" /></g></svg>