<?xml version='1.0' encoding='utf-8'?>
<svg xmlns="http://www.w3.org/2000/svg" version="1.1" viewBox="0 0 1024 1024"><g transform="scale(1, -1) translate(0, -900)"><path d="M 478 632 Q 482 672 486 689 Q 490 707 478 717 Q 456 741 439 744 Q 429 745 423 742 Q 413 736 423 724 Q 439 691 439 663 Q 440 533 430 490 Q 426 463 413 449 Q 401 430 409 410 Q 419 380 434 370 Q 444 363 455 380 Q 486 417 589 514 Q 605 527 606 535 Q 607 547 589 536 Q 549 512 502 486 Q 486 476 478 479 Q 471 483 471 500 Q 472 563 476 605 L 478 632 Z" fill="black" /></g></svg>