<?xml version='1.0' encoding='utf-8'?>
<svg xmlns="http://www.w3.org/2000/svg" version="1.1" viewBox="0 0 1024 1024"><g transform="scale(1, -1) translate(0, -900)"><path d="M 225 665 Q 256 674 291 690 Q 309 700 320 690 Q 326 684 319 666 Q 286 567 292 551 Q 293 548 297 544 Q 348 463 333 446 Q 329 439 310 440 Q 288 444 264 443 Q 240 444 267 429 Q 310 402 351 369 Q 364 357 376 369 Q 389 378 397 401 Q 409 449 355 524 Q 310 578 338 605 Q 375 675 400 691 Q 419 704 409 718 Q 396 736 356 754 Q 334 761 321 750 Q 270 708 204 693 C 175 685 196 656 225 665 Z" fill="black" /></g></svg>