<?xml version='1.0' encoding='utf-8'?>
<svg xmlns="http://www.w3.org/2000/svg" version="1.1" viewBox="0 0 1024 1024"><g transform="scale(1, -1) translate(0, -900)"><path d="M 706 435 Q 724 410 741 401 Q 751 394 767 415 Q 780 437 810 562 Q 819 593 844 620 Q 857 633 845 647 Q 829 665 785 693 Q 769 702 697 686 Q 645 686 557 664 L 521 658 Q 494 655 472 651 C 442 646 477 609 506 617 Q 506 618 508 618 Q 580 636 707 649 Q 735 652 744 642 Q 756 629 754 614 Q 735 496 726 477 Q 722 468 713 464 C 696 447 696 447 706 435 Z" fill="black" /></g></svg>