<?xml version='1.0' encoding='utf-8'?>
<svg xmlns="http://www.w3.org/2000/svg" version="1.1" viewBox="0 0 1024 1024"><g transform="scale(1, -1) translate(0, -900)"><path d="M 636 434 Q 658 438 722 455 Q 738 459 744 451 Q 748 439 757 290 Q 757 166 748 152 Q 745 151 685 162 Q 669 169 669 160 Q 714 118 740 86 Q 750 70 764 66 Q 771 63 779 71 Q 815 113 813 158 Q 789 407 809 441 Q 819 457 809 467 Q 790 483 759 495 Q 743 501 730 494 Q 693 473 626 459 C 597 452 607 428 636 434 Z" fill="black" /></g></svg>