<?xml version='1.0' encoding='utf-8'?>
<svg xmlns="http://www.w3.org/2000/svg" version="1.1" viewBox="0 0 1024 1024"><g transform="scale(1, -1) translate(0, -900)"><path d="M 703 44 Q 728 10 748 -23 Q 758 -42 769 -41 Q 785 -40 801 -6 Q 819 33 810 130 Q 797 262 818 288 Q 827 301 818 310 Q 800 329 750 353 Q 732 362 718 353 Q 676 335 534 300 L 514 297 Q 505 297 499 295 C 469 291 480 261 510 266 Q 531 269 695 305 Q 722 311 735 302 Q 750 290 747 136 Q 748 94 744 82 Q 740 69 730 69 C 708 49 703 44 703 44 Z" fill="black" /></g></svg>