<?xml version='1.0' encoding='utf-8'?>
<svg xmlns="http://www.w3.org/2000/svg" version="1.1" viewBox="0 0 1024 1024"><g transform="scale(1, -1) translate(0, -900)"><path d="M 222 667 Q 256 676 296 695 Q 312 705 323 695 Q 330 691 322 670 Q 288 568 299 551 Q 363 446 343 425 Q 337 415 314 417 Q 286 421 255 419 Q 233 420 259 407 Q 311 382 358 351 Q 373 338 386 351 Q 402 361 409 388 Q 424 440 361 525 Q 318 577 339 609 Q 375 679 399 698 Q 418 711 407 723 Q 394 739 356 757 Q 335 764 323 752 Q 271 710 198 693 C 169 685 193 658 222 667 Z" fill="black" /></g></svg>