<?xml version='1.0' encoding='utf-8'?>
<svg xmlns="http://www.w3.org/2000/svg" version="1.1" viewBox="0 0 1024 1024"><g transform="scale(1, -1) translate(0, -900)"><path d="M 233 689 Q 269 696 307 713 Q 323 723 335 712 Q 339 705 330 689 Q 311 655 294 620 Q 279 596 293 575 Q 332 518 342 486 Q 349 467 341 458 Q 335 448 314 449 Q 289 450 260 448 Q 236 447 264 435 Q 313 411 360 381 Q 376 368 388 382 Q 403 392 409 419 Q 421 473 351 557 Q 306 602 345 640 Q 387 694 411 707 Q 432 717 422 732 Q 409 751 372 773 Q 353 782 337 770 Q 288 736 219 719 C 190 711 204 682 233 689 Z" fill="black" /></g></svg>