<?xml version='1.0' encoding='utf-8'?>
<svg xmlns="http://www.w3.org/2000/svg" version="1.1" viewBox="0 0 1024 1024"><g transform="scale(1, -1) translate(0, -900)"><path d="M 689 297 Q 704 279 717 274 Q 727 267 740 287 Q 750 305 771 401 Q 778 429 799 453 Q 811 465 800 477 Q 785 492 746 515 Q 731 522 662 507 Q 647 507 627 500 L 599 496 Q 575 493 552 488 Q 507 479 469 473 C 439 468 461 432 489 444 Q 499 456 675 476 Q 700 480 709 471 Q 719 461 718 449 Q 708 356 701 341 Q 698 332 683 326 C 669 318 669 318 689 297 Z" fill="black" /></g></svg>