<?xml version='1.0' encoding='utf-8'?>
<svg xmlns="http://www.w3.org/2000/svg" version="1.1" viewBox="0 0 1024 1024"><g transform="scale(1, -1) translate(0, -900)"><path d="M 221 674 Q 261 681 302 699 Q 321 709 332 698 Q 339 692 329 673 Q 284 577 295 557 Q 295 556 298 552 Q 361 462 345 444 Q 339 432 316 435 Q 286 438 255 436 Q 233 435 259 423 Q 314 401 365 371 Q 380 359 392 373 Q 405 383 410 408 Q 420 465 349 541 Q 309 581 346 620 Q 385 680 408 695 Q 427 705 418 719 Q 405 738 369 757 Q 350 764 335 754 Q 277 714 209 702 C 180 696 192 668 221 674 Z" fill="black" /></g></svg>