<?xml version='1.0' encoding='utf-8'?>
<svg xmlns="http://www.w3.org/2000/svg" version="1.1" viewBox="0 0 1024 1024"><g transform="scale(1, -1) translate(0, -900)"><path d="M 529 397 Q 478 177 306 65 Q 293 53 279 42 Q 267 33 278 31 Q 383 44 486 182 Q 504 206 516 232 Q 526 257 538 281 Q 563 339 574 405 L 579 439 Q 583 473 590 505 L 595 541 Q 599 566 611 588 Q 618 606 603 613 Q 587 625 573 630 C 546 643 514 646 527 619 L 528 617 Q 549 581 543 526 L 541 496 Q 540 465 535 428 L 529 397 Z" fill="black" /></g></svg>