<?xml version='1.0' encoding='utf-8'?>
<svg xmlns="http://www.w3.org/2000/svg" version="1.1" viewBox="0 0 1024 1024"><g transform="scale(1, -1) translate(0, -900)"><path d="M 201 693 Q 235 700 272 716 Q 290 725 300 714 Q 304 708 296 693 Q 278 660 262 627 Q 249 605 261 585 Q 303 513 291 497 Q 287 490 272 491 Q 253 492 232 491 Q 210 492 234 478 Q 271 453 306 424 Q 318 412 329 422 Q 342 429 348 451 Q 355 470 343 506 Q 331 546 304 578 Q 280 606 298 629 Q 349 695 373 709 Q 392 719 384 733 Q 372 751 337 772 Q 318 781 304 771 Q 256 735 192 722 C 163 715 172 686 201 693 Z" fill="black" /></g></svg>