<?xml version='1.0' encoding='utf-8'?>
<svg xmlns="http://www.w3.org/2000/svg" version="1.1" viewBox="0 0 1024 1024"><g transform="scale(1, -1) translate(0, -900)"><path d="M 655 417 Q 673 390 689 381 Q 699 374 714 394 Q 730 421 763 566 Q 772 596 794 620 Q 807 632 795 645 Q 782 661 740 687 Q 722 696 644 675 L 524 650 Q 515 649 509 645 L 484 640 Q 459 636 437 631 C 408 625 422 591 451 600 Q 481 610 527 619 L 573 630 Q 613 639 665 648 Q 693 652 703 643 Q 716 627 714 610 Q 684 462 668 444 C 654 418 654 418 655 417 Z" fill="black" /></g></svg>