<?xml version='1.0' encoding='utf-8'?>
<svg xmlns="http://www.w3.org/2000/svg" version="1.1" viewBox="0 0 1024 1024"><g transform="scale(1, -1) translate(0, -900)"><path d="M 428 137 Q 446 146 452 164 Q 459 182 454 200 Q 450 215 430 241 Q 403 280 450 342 Q 453 348 458 352 Q 480 376 413 401 Q 398 410 367 386 Q 310 353 288 354 Q 282 355 281 350 Q 280 346 286 343 Q 317 330 374 353 Q 383 354 390 344 Q 406 331 393 311 Q 365 275 407 215 Q 420 181 420 169 Q 420 154 414 142 C 407 124 407 124 428 137 Z" fill="black" /></g></svg>