<?xml version='1.0' encoding='utf-8'?>
<svg xmlns="http://www.w3.org/2000/svg" version="1.1" viewBox="0 0 1024 1024"><g transform="scale(1, -1) translate(0, -900)"><path d="M 196 679 Q 233 686 272 703 Q 288 710 297 702 Q 300 698 280 656 Q 238 587 262 562 Q 292 522 302 495 Q 306 479 301 472 Q 295 460 273 462 Q 245 463 215 460 Q 193 459 219 448 Q 273 427 322 399 Q 335 389 346 400 Q 359 410 364 433 Q 374 490 307 558 Q 271 594 307 631 Q 347 683 370 697 Q 389 707 380 721 Q 368 740 333 760 Q 314 769 299 757 Q 248 720 185 709 C 156 703 167 673 196 679 Z" fill="black" /></g></svg>