<?xml version='1.0' encoding='utf-8'?>
<svg xmlns="http://www.w3.org/2000/svg" version="1.1" viewBox="0 0 1024 1024"><g transform="scale(1, -1) translate(0, -900)"><path d="M 182 688 Q 213 695 249 712 Q 265 722 274 712 Q 280 706 271 689 Q 255 655 241 618 Q 228 596 242 576 Q 287 516 277 500 Q 273 491 254 492 Q 232 493 207 491 Q 185 491 211 479 Q 256 457 298 427 Q 310 417 320 428 Q 330 435 336 457 Q 345 503 289 569 Q 256 602 288 642 Q 327 697 348 711 Q 367 723 357 736 Q 344 752 308 772 Q 289 779 275 769 Q 236 736 167 715 C 138 706 153 680 182 688 Z" fill="black" /></g></svg>