<?xml version='1.0' encoding='utf-8'?>
<svg xmlns="http://www.w3.org/2000/svg" version="1.1" viewBox="0 0 1024 1024"><g transform="scale(1, -1) translate(0, -900)"><path d="M 675 564 Q 681 552 691 553 Q 703 554 709 568 Q 719 584 737 661 Q 750 706 780 733 Q 796 748 781 760 Q 765 775 721 796 Q 711 802 649 788 Q 592 779 544 768 Q 498 758 467 754 Q 463 754 456 752 C 426 747 458 725 488 726 Q 498 725 508 727 Q 557 743 667 757 Q 686 758 694 755 Q 703 751 699 722 Q 684 616 675 594 C 668 571 668 571 675 564 Z" fill="black" /></g></svg>