<?xml version='1.0' encoding='utf-8'?>
<svg xmlns="http://www.w3.org/2000/svg" version="1.1" viewBox="0 0 1024 1024"><g transform="scale(1, -1) translate(0, -900)"><path d="M 221 683 Q 255 690 293 706 Q 308 715 317 705 Q 323 701 315 684 Q 300 650 288 614 Q 276 592 308 548 Q 335 505 329 491 Q 322 481 299 482 Q 271 486 239 484 Q 217 483 243 471 Q 298 449 350 419 Q 363 409 373 420 Q 385 429 389 450 Q 401 501 334 569 Q 306 602 341 644 Q 372 692 392 703 Q 411 715 402 728 Q 389 746 353 765 Q 334 772 319 761 Q 268 722 201 712 C 171 707 192 676 221 683 Z" fill="black" /></g></svg>