<?xml version='1.0' encoding='utf-8'?>
<svg xmlns="http://www.w3.org/2000/svg" version="1.1" viewBox="0 0 1024 1024"><g transform="scale(1, -1) translate(0, -900)"><path d="M 403 577 Q 387 611 359 635 Q 346 648 344 657 Q 341 667 350 678 Q 389 733 408 747 Q 426 757 417 769 Q 405 785 373 802 Q 355 809 343 798 Q 301 767 250 755 C 221 747 229 722 258 729 Q 289 735 321 749 Q 334 756 342 749 Q 346 745 340 731 Q 328 703 318 676 Q 308 654 320 638 Q 368 577 358 560 Q 354 551 333 553 Q 309 556 283 555 Q 262 555 286 544 Q 335 523 379 496 Q 392 487 400 498 Q 410 505 415 526 Q 416 544 406 569 L 403 577 Z" fill="black" /></g></svg>