<?xml version='1.0' encoding='utf-8'?>
<svg xmlns="http://www.w3.org/2000/svg" version="1.1" viewBox="0 0 1024 1024"><g transform="scale(1, -1) translate(0, -900)"><path d="M 186 665 Q 220 675 259 694 Q 275 704 287 695 Q 291 688 282 672 Q 263 638 246 603 Q 233 579 246 560 Q 268 529 274 512 Q 278 502 274 496 Q 271 486 253 484 Q 231 480 207 473 Q 185 469 212 461 Q 254 445 292 423 Q 302 413 313 423 Q 323 430 329 449 Q 341 494 289 554 Q 288 557 286 558 Q 261 591 295 625 Q 335 680 358 693 Q 377 705 368 718 Q 355 736 319 754 Q 300 761 286 752 Q 238 710 174 693 C 145 684 157 656 186 665 Z" fill="black" /></g></svg>