<?xml version='1.0' encoding='utf-8'?>
<svg xmlns="http://www.w3.org/2000/svg" version="1.1" viewBox="0 0 1024 1024"><g transform="scale(1, -1) translate(0, -900)"><path d="M 222 685 Q 259 692 298 710 Q 314 720 325 709 Q 331 702 321 683 Q 302 643 285 603 Q 272 579 286 560 Q 349 470 333 452 Q 329 445 312 448 Q 293 452 272 454 Q 250 457 273 441 Q 316 413 353 379 Q 368 367 380 381 Q 393 391 398 416 Q 408 473 337 549 Q 298 588 341 639 Q 377 693 399 706 Q 418 718 409 731 Q 396 749 361 768 Q 342 777 328 766 Q 274 724 200 713 C 170 708 193 678 222 685 Z" fill="black" /></g></svg>