<?xml version='1.0' encoding='utf-8'?>
<svg xmlns="http://www.w3.org/2000/svg" version="1.1" viewBox="0 0 1024 1024"><g transform="scale(1, -1) translate(0, -900)"><path d="M 661 313 Q 661 352 661 390 L 661 424 Q 661 461 662 498 L 663 527 Q 663 573 666 616 L 668 649 Q 672 710 683 745 Q 699 773 648 793 Q 617 809 599 804 Q 583 798 598 777 Q 617 752 619 721 Q 620 709 620 637 L 620 605 Q 620 568 620 519 L 620 490 Q 619 456 619 414 L 619 383 Q 616 256 616 77 Q 616 52 602 41 Q 599 40 547 43 Q 516 55 519 45 Q 520 38 538 25 Q 589 -18 602 -43 Q 615 -71 629 -73 Q 642 -74 656 -42 Q 672 0 670 68 Q 664 171 662 273 L 661 313 Z" fill="black" /></g></svg>