<?xml version='1.0' encoding='utf-8'?>
<svg xmlns="http://www.w3.org/2000/svg" version="1.1" viewBox="0 0 1024 1024"><g transform="scale(1, -1) translate(0, -900)"><path d="M 182 660 Q 218 664 256 681 Q 271 688 279 680 Q 283 673 275 657 Q 257 621 242 586 Q 229 564 241 546 Q 269 495 276 468 Q 280 452 273 444 Q 269 437 252 439 Q 233 443 211 442 Q 189 445 213 430 Q 250 405 285 374 Q 298 362 310 373 Q 323 380 330 403 Q 337 424 325 461 Q 312 504 283 537 Q 259 570 276 591 Q 324 660 349 676 Q 367 686 359 699 Q 347 715 313 735 Q 295 742 282 733 Q 234 697 173 687 C 144 681 152 655 182 660 Z" fill="black" /></g></svg>