<?xml version='1.0' encoding='utf-8'?>
<svg xmlns="http://www.w3.org/2000/svg" version="1.1" viewBox="0 0 1024 1024"><g transform="scale(1, -1) translate(0, -900)"><path d="M 808 466 Q 842 536 844 537 Q 850 544 860 549 Q 872 556 870 565 Q 869 572 828 601 Q 810 611 794 604 Q 767 594 725 580 Q 700 576 705 600 Q 709 643 715 673 L 719 698 Q 723 729 730 744 Q 739 766 714 778 Q 672 794 659 789 Q 649 783 659 769 Q 680 742 669 612 Q 665 593 656 575 Q 647 560 667 543 Q 682 528 693 539 Q 711 552 755 562 Q 780 569 788 558 Q 791 552 768 482 Q 764 475 761 467 C 748 440 795 439 808 466 Z" fill="black" /></g></svg>