<?xml version='1.0' encoding='utf-8'?>
<svg xmlns="http://www.w3.org/2000/svg" version="1.1" viewBox="0 0 1024 1024"><g transform="scale(1, -1) translate(0, -900)"><path d="M 794 439 Q 804 487 813 518 L 829 561 Q 838 591 865 615 Q 881 634 866 651 Q 850 664 797 686 Q 779 693 758 684 Q 709 662 668 649 L 620 637 Q 572 627 523 619 Q 507 618 509 608 Q 513 601 530 595 Q 555 585 587 598 Q 603 602 620 605 L 666 616 Q 703 626 743 635 Q 762 641 771 633 Q 784 620 781 593 Q 777 571 772 549 L 765 513 Q 756 479 747 447 C 739 418 788 410 794 439 Z" fill="black" /></g></svg>