<?xml version='1.0' encoding='utf-8'?>
<svg xmlns="http://www.w3.org/2000/svg" version="1.1" viewBox="0 0 1024 1024"><g transform="scale(1, -1) translate(0, -900)"><path d="M 403 406 Q 421 409 470 424 Q 483 428 490 421 Q 497 414 496 392 Q 503 217 497 111 Q 496 90 490 82 Q 486 79 432 90 Q 416 96 417 88 Q 459 48 482 20 Q 492 4 504 0 Q 511 -3 518 5 Q 548 38 550 100 Q 529 374 551 411 Q 560 426 551 434 Q 533 450 504 461 Q 491 467 478 462 Q 445 441 389 430 C 360 424 374 399 403 406 Z" fill="black" /></g></svg>