<?xml version='1.0' encoding='utf-8'?>
<svg xmlns="http://www.w3.org/2000/svg" version="1.1" viewBox="0 0 1024 1024"><g transform="scale(1, -1) translate(0, -900)"><path d="M 643 178 Q 643 226 644 245 L 644 267 Q 645 297 649 328 L 652 355 Q 655 383 659 410 Q 659 413 659 414 C 661 432 661 432 646 440 Q 636 449 619 454 Q 607 458 600 453 Q 594 449 599 433 Q 612 399 610 365 Q 601 137 621 75 Q 627 50 649 30 Q 727 -31 881 -6 L 905 0 Q 942 12 979 40 Q 995 55 983 77 Q 970 102 948 181 Q 947 194 941 198 Q 935 199 933 185 Q 918 100 905 73 Q 875 33 774 41 Q 734 44 702 59 Q 654 87 645 157 L 643 178 Z" fill="black" /></g></svg>