<?xml version='1.0' encoding='utf-8'?>
<svg xmlns="http://www.w3.org/2000/svg" version="1.1" viewBox="0 0 1024 1024"><g transform="scale(1, -1) translate(0, -900)"><path d="M 669 455 Q 681 501 693 531 L 717 582 Q 733 610 752 626 Q 771 645 756 665 Q 738 680 682 708 Q 663 717 639 708 Q 584 689 533 675 L 475 664 Q 390 651 304 643 Q 286 642 288 632 Q 289 623 310 616 Q 337 603 375 614 Q 424 623 475 631 L 531 641 Q 568 648 609 655 Q 639 661 650 649 Q 663 636 649 570 L 639 528 Q 629 494 618 461 C 609 432 661 426 669 455 Z" fill="black" /></g></svg>