<?xml version='1.0' encoding='utf-8'?>
<svg xmlns="http://www.w3.org/2000/svg" version="1.1" viewBox="0 0 1024 1024"><g transform="scale(1, -1) translate(0, -900)"><path d="M 427 277 Q 515 302 584 314 Q 600 318 606 312 Q 610 305 604 291 Q 579 231 554 208 Q 544 201 546 187 Q 550 165 561 158 Q 573 151 586 160 Q 632 187 677 190 Q 699 193 706 184 Q 713 171 710 149 Q 703 91 678 44 Q 671 28 657 23 Q 642 20 564 42 Q 536 54 559 26 Q 595 -17 620 -55 Q 633 -76 654 -68 Q 708 -47 737 28 Q 768 131 791 157 Q 809 173 798 185 Q 785 198 745 222 Q 723 232 700 225 Q 646 210 632 212 Q 613 215 626 238 Q 660 290 686 307 Q 713 320 707 333 Q 703 345 651 369 Q 633 378 616 369 Q 540 327 288 292 Q 278 292 276 286 Q 273 279 301 261 Q 328 242 356 256 Q 369 260 388 265 L 427 277 Z" fill="black" /></g></svg>