<?xml version='1.0' encoding='utf-8'?>
<svg xmlns="http://www.w3.org/2000/svg" version="1.1" viewBox="0 0 1024 1024"><g transform="scale(1, -1) translate(0, -900)"><path d="M 499 94 Q 405 25 235 -8 Q 219 -11 230 -21 Q 237 -25 294 -23 Q 366 -19 447 13 Q 498 32 538 62 L 573 91 Q 624 143 669 222 Q 685 250 708 266 Q 730 279 718 295 Q 706 310 676 326 Q 652 336 564 307 Q 489 288 388 278 Q 373 278 368 270 Q 364 263 383 255 Q 420 240 471 254 Q 583 285 603 283 Q 619 277 611 260 Q 586 184 539 130 Q 533 126 529 119 L 499 94 Z" fill="black" /></g></svg>