<?xml version='1.0' encoding='utf-8'?>
<svg xmlns="http://www.w3.org/2000/svg" version="1.1" viewBox="0 0 1024 1024"><g transform="scale(1, -1) translate(0, -900)"><path d="M 575 183 L 471 157 Q 455 153 450 161 Q 438 176 455 230 Q 458 243 463 249 Q 476 268 457 278 Q 438 290 419 297 Q 398 307 386 294 Q 352 266 247 234 C 218 225 240 186 267 199 Q 330 230 373 244 Q 386 247 395 240 Q 402 236 402 214 Q 396 156 391 143 Q 390 127 405 107 Q 415 91 425 90 Q 434 89 445 102 Q 484 145 616 153 Q 634 153 635 157 Q 636 167 618 180 C 606 191 604 190 575 183 Z" fill="black" /></g></svg>