<?xml version='1.0' encoding='utf-8'?>
<svg xmlns="http://www.w3.org/2000/svg" version="1.1" viewBox="0 0 1024 1024"><g transform="scale(1, -1) translate(0, -900)"><path d="M 640 270 Q 703 283 761 288 Q 768 288 770 284 Q 777 274 778 243 Q 782 134 768 75 Q 762 38 751 25 Q 739 12 712 17 Q 675 24 640 34 Q 615 40 634 18 Q 688 -31 718 -70 Q 730 -92 752 -84 Q 767 -81 784 -60 Q 835 -3 844 208 Q 847 254 863 283 Q 879 305 869 314 Q 853 332 818 346 Q 793 358 728 330 Q 701 324 627 305 C 598 298 611 264 640 270 Z" fill="black" /></g></svg>