<?xml version='1.0' encoding='utf-8'?>
<svg xmlns="http://www.w3.org/2000/svg" version="1.1" viewBox="0 0 1024 1024"><g transform="scale(1, -1) translate(0, -900)"><path d="M 403 552 Q 406 675 416 719 Q 420 740 406 752 Q 379 777 360 781 Q 347 784 341 779 Q 331 772 342 757 Q 361 720 361 687 Q 376 323 337 262 Q 324 240 333 217 Q 346 183 365 171 Q 377 164 389 184 Q 414 224 501 325 Q 519 341 519 350 Q 520 363 499 350 Q 468 331 434 311 Q 418 298 409 302 Q 402 306 401 323 Q 401 441 402 526 L 403 552 Z" fill="black" /></g></svg>