<?xml version='1.0' encoding='utf-8'?>
<svg xmlns="http://www.w3.org/2000/svg" version="1.1" viewBox="0 0 1024 1024"><g transform="scale(1, -1) translate(0, -900)"><path d="M 268 205 Q 272 208 280 209 Q 316 222 332 222 C 362 225 369 256 340 250 Q 304 243 273 233 L 230 219 Q 202 212 177 200 Q 173 201 175 205 Q 188 253 186 260 Q 179 273 164 286 Q 158 290 151 291 Q 144 290 146 276 Q 158 216 124 190 Q 111 178 116 169 Q 123 159 135 151 Q 144 147 150 151 Q 159 163 226 189 L 268 205 Z" fill="black" /></g></svg>