<?xml version='1.0' encoding='utf-8'?>
<svg xmlns="http://www.w3.org/2000/svg" version="1.1" viewBox="0 0 1024 1024"><g transform="scale(1, -1) translate(0, -900)"><path d="M 313 360 Q 356 379 402 394 Q 403 395 407 395 C 436 403 427 416 398 409 Q 331 394 254 367 Q 253 366 253 368 Q 370 476 416 503 Q 426 509 424 518 Q 418 534 394 555 Q 382 564 375 563 Q 366 562 366 549 Q 363 528 328 483 L 313 465 Q 309 462 306 457 Q 210 363 190 355 Q 180 349 180 338 Q 180 328 199 311 Q 206 301 219 309 Q 250 331 283 347 L 313 360 Z" fill="black" /></g></svg>