<?xml version='1.0' encoding='utf-8'?>
<svg xmlns="http://www.w3.org/2000/svg" version="1.1" viewBox="0 0 1024 1024"><g transform="scale(1, -1) translate(0, -900)"><path d="M 190 316 Q 180 326 161 333 Q 151 337 143 333 Q 139 330 142 315 Q 143 312 144 307 Q 143 306 144 303 Q 144 302 146 300 Q 150 278 151 253 Q 145 129 156 94 Q 160 73 180 55 Q 258 -3 420 30 L 426 32 Q 462 44 498 69 Q 513 82 501 103 Q 491 119 472 174 Q 471 187 464 190 Q 460 191 457 178 Q 439 117 427 99 Q 415 84 380 74 Q 292 53 229 81 Q 202 94 194 111 Q 184 132 184 173 L 185 204 Q 186 243 195 287 C 199 310 199 310 190 316 Z" fill="black" /></g></svg>