<?xml version='1.0' encoding='utf-8'?>
<svg xmlns="http://www.w3.org/2000/svg" version="1.1" viewBox="0 0 1024 1024"><g transform="scale(1, -1) translate(0, -900)"><path d="M 532 658 Q 703 692 743 683 Q 756 673 754 665 Q 754 664 725 591 Q 718 578 725 573 Q 732 569 750 581 Q 805 618 852 631 Q 889 643 889 651 Q 888 661 813 714 Q 786 733 688 712 Q 633 706 532 688 L 481 680 Q 435 674 383 665 Q 329 655 275 650 Q 268 650 264 648 C 236 644 239 643 265 628 Q 298 604 336 616 Q 426 643 482 650 L 532 658 Z" fill="black" /></g></svg>