<?xml version='1.0' encoding='utf-8'?>
<svg xmlns="http://www.w3.org/2000/svg" version="1.1" viewBox="0 0 1024 1024"><g transform="scale(1, -1) translate(0, -900)"><path d="M 514 675 Q 709 705 751 696 Q 766 689 764 682 Q 746 640 728 598 L 729 597 Q 736 593 753 602 Q 808 633 853 642 Q 890 649 890 658 Q 889 668 820 724 Q 796 743 710 728 Q 658 722 515 703 L 465 696 Q 407 690 341 680 Q 283 673 225 666 C 195 662 200 639 229 632 Q 250 623 271 628 Q 365 658 466 669 L 514 675 Z" fill="black" /></g></svg>