<?xml version='1.0' encoding='utf-8'?>
<svg xmlns="http://www.w3.org/2000/svg" version="1.1" viewBox="0 0 1024 1024"><g transform="scale(1, -1) translate(0, -900)"><path d="M 532 593 Q 706 626 761 617 Q 777 608 776 601 Q 754 556 731 508 Q 731 507 733 505 Q 740 501 757 511 Q 815 548 863 559 Q 903 571 902 580 Q 901 590 831 646 Q 809 665 723 650 Q 611 638 534 624 L 487 618 Q 432 612 371 601 Q 313 592 257 587 C 227 584 232 562 261 554 Q 286 542 318 551 Q 420 582 489 587 L 532 593 Z" fill="black" /></g></svg>