<?xml version='1.0' encoding='utf-8'?>
<svg xmlns="http://www.w3.org/2000/svg" version="1.1" viewBox="0 0 1024 1024"><g transform="scale(1, -1) translate(0, -900)"><path d="M 358 128 Q 416 165 534 185 Q 568 194 588 189 Q 609 182 611 148 Q 602 85 569 38 Q 553 16 539 12 Q 521 9 460 35 Q 445 45 443 38 Q 442 32 451 19 Q 482 -26 501 -64 Q 508 -77 520 -78 Q 536 -82 557 -71 Q 623 -20 663 123 Q 666 153 677 170 Q 690 182 679 194 Q 663 210 626 227 Q 610 234 546 217 Q 441 201 421 197 Q 414 196 418 202 Q 455 245 467 255 Q 482 265 474 282 Q 467 292 454 301 C 432 321 412 325 409 295 Q 415 267 371 216 Q 361 204 333 191 Q 314 176 316 160 Q 317 145 332 129 Q 342 117 358 128 Z" fill="black" /></g></svg>