<?xml version='1.0' encoding='utf-8'?>
<svg xmlns="http://www.w3.org/2000/svg" version="1.1" viewBox="0 0 1024 1024"><g transform="scale(1, -1) translate(0, -900)"><path d="M 529 507 Q 559 514 789 532 Q 808 533 814 524 Q 824 517 822 466 Q 816 258 783 141 Q 773 105 742 111 Q 703 120 668 127 Q 655 131 654 125 Q 653 118 664 107 Q 740 49 761 17 Q 771 -1 784 2 Q 800 3 815 33 Q 843 76 852 129 Q 868 199 882 446 Q 885 491 899 515 Q 917 537 903 542 Q 887 558 849 576 Q 825 592 799 581 Q 763 571 672 560 Q 596 553 530 543 L 485 536 Q 430 529 386 519 Q 301 501 219 488 C 189 483 206 440 234 450 Q 255 468 486 500 L 529 507 Z" fill="black" /></g></svg>