<?xml version='1.0' encoding='utf-8'?>
<svg xmlns="http://www.w3.org/2000/svg" version="1.1" viewBox="0 0 1024 1024"><g transform="scale(1, -1) translate(0, -900)"><path d="M 543 630 Q 756 664 799 656 Q 812 649 809 640 Q 809 637 766 555 Q 756 540 763 536 Q 772 532 790 544 Q 851 584 903 597 Q 943 607 943 619 Q 940 629 869 685 Q 842 709 733 687 Q 670 681 545 660 L 489 652 Q 441 648 389 638 Q 328 628 267 622 Q 263 622 261 620 C 231 615 235 605 263 595 Q 293 579 340 591 Q 412 612 490 623 L 543 630 Z" fill="black" /></g></svg>