<?xml version='1.0' encoding='utf-8'?>
<svg xmlns="http://www.w3.org/2000/svg" version="1.1" viewBox="0 0 1024 1024"><g transform="scale(1, -1) translate(0, -900)"><path d="M 523 685 Q 698 715 741 705 Q 759 695 757 686 Q 758 683 753 671 Q 726 611 733 605 Q 740 601 756 612 Q 808 645 850 654 Q 884 664 884 672 Q 883 682 811 735 Q 789 753 716 741 Q 580 726 525 716 L 473 709 Q 424 705 367 695 Q 312 688 256 683 Q 253 683 252 681 C 222 676 230 660 259 651 Q 281 639 318 647 Q 405 672 475 679 L 523 685 Z" fill="black" /></g></svg>