<?xml version='1.0' encoding='utf-8'?>
<svg xmlns="http://www.w3.org/2000/svg" version="1.1" viewBox="0 0 1024 1024"><g transform="scale(1, -1) translate(0, -900)"><path d="M 536 636 Q 734 669 781 660 Q 796 650 794 642 Q 794 639 762 567 Q 755 554 761 549 Q 768 545 786 556 Q 844 593 890 605 Q 929 617 928 625 Q 927 635 853 691 Q 826 710 727 692 Q 627 680 538 666 L 491 659 Q 433 653 363 642 Q 302 632 240 627 C 210 624 213 603 242 596 Q 269 583 323 597 Q 428 627 492 630 L 536 636 Z" fill="black" /></g></svg>