<?xml version='1.0' encoding='utf-8'?>
<svg xmlns="http://www.w3.org/2000/svg" version="1.1" viewBox="0 0 1024 1024"><g transform="scale(1, -1) translate(0, -900)"><path d="M 633 42 Q 643 17 664 -31 Q 673 -49 683 -48 Q 699 -45 709 -20 Q 737 32 743 103 Q 750 148 757 199 Q 763 248 787 277 Q 805 296 792 311 Q 771 333 724 355 Q 706 365 672 355 Q 525 307 287 298 C 257 297 298 254 328 259 Q 391 269 469 282 L 509 287 Q 570 297 643 307 Q 677 313 691 297 Q 712 258 677 82 Q 676 66 669 64 Q 665 61 647 71 C 618 79 622 70 633 42 Z" fill="black" /></g></svg>