<?xml version='1.0' encoding='utf-8'?>
<svg xmlns="http://www.w3.org/2000/svg" version="1.1" viewBox="0 0 1024 1024"><g transform="scale(1, -1) translate(0, -900)"><path d="M 404 384 Q 425 368 444 374 Q 609 408 620 393 Q 627 381 624 352 Q 620 268 600 232 Q 582 199 554 204 Q 533 208 515 213 Q 490 220 508 197 Q 545 157 563 128 Q 579 109 595 123 Q 647 159 672 273 Q 687 372 706 393 Q 718 405 712 415 Q 705 427 655 449 Q 636 459 617 446 Q 598 436 530 425 Q 466 413 414 411 C 384 409 378 399 404 384 Z" fill="black" /></g></svg>