<?xml version='1.0' encoding='utf-8'?>
<svg xmlns="http://www.w3.org/2000/svg" version="1.1" viewBox="0 0 1024 1024"><g transform="scale(1, -1) translate(0, -900)"><path d="M 528 680 Q 702 710 746 700 Q 761 690 758 683 Q 758 680 730 614 Q 723 601 729 597 Q 736 593 752 604 Q 804 638 847 649 Q 881 659 881 668 Q 880 678 812 728 Q 791 746 719 733 Q 634 724 529 708 L 483 702 Q 428 696 365 686 Q 311 679 258 673 C 228 670 231 648 260 641 Q 276 632 311 640 Q 410 670 484 674 L 528 680 Z" fill="black" /></g></svg>