<?xml version='1.0' encoding='utf-8'?>
<svg xmlns="http://www.w3.org/2000/svg" version="1.1" viewBox="0 0 1024 1024"><g transform="scale(1, -1) translate(0, -900)"><path d="M 534 674 Q 708 699 744 692 Q 759 682 756 675 Q 757 672 733 613 Q 727 600 733 597 Q 740 593 755 604 Q 804 635 843 645 Q 874 654 875 662 Q 874 671 808 719 Q 787 735 697 721 Q 616 714 536 700 L 488 693 Q 436 689 377 680 Q 322 673 268 668 C 238 665 238 652 266 642 Q 288 629 325 636 Q 415 663 488 668 L 534 674 Z" fill="black" /></g></svg>