<?xml version='1.0' encoding='utf-8'?>
<svg xmlns="http://www.w3.org/2000/svg" version="1.1" viewBox="0 0 1024 1024"><g transform="scale(1, -1) translate(0, -900)"><path d="M 532 353 Q 608 450 629 462 Q 644 472 637 483 Q 630 493 588 514 Q 575 520 519 499 Q 495 495 455 488 C 425 483 417 450 447 455 Q 468 455 527 477 Q 546 484 553 481 Q 563 477 553 460 Q 528 415 492 376 L 473 356 Q 359 248 151 184 Q 127 177 106 170 Q 96 167 107 161 Q 117 154 166 160 Q 266 173 333 202 Q 430 247 511 330 L 532 353 Z" fill="black" /></g></svg>