<?xml version='1.0' encoding='utf-8'?>
<svg xmlns="http://www.w3.org/2000/svg" version="1.1" viewBox="0 0 1024 1024"><g transform="scale(1, -1) translate(0, -900)"><path d="M 466 163 Q 463 54 504 20 Q 582 -40 757 -13 Q 773 -10 791 -5 Q 834 8 876 37 Q 895 49 886 74 Q 876 99 866 170 Q 867 188 861 194 Q 855 198 848 180 Q 791 86 757 67 Q 700 46 636 44 Q 593 44 559 55 Q 531 67 523 84 Q 508 112 509 167 L 511 207 Q 512 234 517 262 L 522 302 Q 523 309 525 318 Q 529 336 518 345 Q 512 351 504 356 C 481 375 449 378 458 349 Q 459 348 460 344 Q 469 316 470 287 L 469 253 Q 468 225 466 199 L 466 163 Z" fill="black" /></g></svg>