<?xml version='1.0' encoding='utf-8'?>
<svg xmlns="http://www.w3.org/2000/svg" version="1.1" viewBox="0 0 1024 1024"><g transform="scale(1, -1) translate(0, -900)"><path d="M 565 239 Q 634 246 716 249 Q 735 248 742 236 Q 749 229 744 216 Q 728 72 715 53 Q 711 44 698 49 Q 674 53 649 61 Q 621 67 638 46 Q 693 -14 713 -53 Q 722 -68 734 -59 Q 762 -38 781 43 Q 802 187 822 207 Q 838 226 832 236 Q 825 249 775 284 Q 757 300 741 294 Q 711 284 658 278 Q 513 266 431 253 L 399 248 Q 380 247 365 242 Q 310 232 269 226 C 239 221 262 177 291 185 Q 298 186 308 189 Q 335 199 374 208 L 409 216 Q 460 231 520 234 L 565 239 Z" fill="black" /></g></svg>