<?xml version='1.0' encoding='utf-8'?>
<svg xmlns="http://www.w3.org/2000/svg" version="1.1" viewBox="0 0 1024 1024"><g transform="scale(1, -1) translate(0, -900)"><path d="M 506 157 Q 545 166 580 169 Q 601 170 604 165 Q 610 158 607 136 Q 603 78 588 51 Q 569 23 544 30 Q 519 40 498 51 Q 476 61 490 37 Q 529 -9 545 -45 Q 557 -61 571 -51 Q 619 -26 651 74 Q 666 140 685 159 Q 698 171 693 181 Q 684 193 636 217 Q 617 227 597 215 Q 578 205 522 192 L 459 180 Q 383 167 319 164 Q 303 164 299 156 Q 298 149 320 136 Q 342 120 362 127 Q 404 137 446 146 L 506 157 Z" fill="black" /></g></svg>