<?xml version='1.0' encoding='utf-8'?>
<svg xmlns="http://www.w3.org/2000/svg" version="1.1" viewBox="0 0 1024 1024"><g transform="scale(1, -1) translate(0, -900)"><path d="M 538 652 Q 749 688 791 680 Q 803 673 799 665 Q 799 662 760 585 Q 747 569 755 564 Q 765 560 786 571 Q 852 608 904 617 Q 947 624 947 636 Q 944 648 867 710 Q 845 729 816 727 Q 734 714 633 698 Q 590 694 539 684 L 487 676 Q 370 658 254 640 C 224 635 222 608 252 604 Q 273 595 340 613 Q 439 640 488 644 L 538 652 Z" fill="black" /></g></svg>