<?xml version='1.0' encoding='utf-8'?>
<svg xmlns="http://www.w3.org/2000/svg" version="1.1" viewBox="0 0 1024 1024"><g transform="scale(1, -1) translate(0, -900)"><path d="M 530 701 Q 695 732 729 723 Q 744 714 742 708 Q 742 705 718 646 Q 711 633 717 629 Q 724 625 740 635 Q 791 666 831 675 Q 865 682 865 691 Q 864 701 795 752 Q 773 770 695 754 Q 607 744 531 730 L 482 723 Q 431 717 376 707 Q 325 700 275 693 C 245 689 246 672 275 663 Q 299 651 330 660 Q 421 690 484 694 L 530 701 Z" fill="black" /></g></svg>