<?xml version='1.0' encoding='utf-8'?>
<svg xmlns="http://www.w3.org/2000/svg" version="1.1" viewBox="0 0 1024 1024"><g transform="scale(1, -1) translate(0, -900)"><path d="M 363 135 Q 402 217 418 230 Q 425 236 419 250 Q 412 259 378 276 Q 371 283 299 270 Q 292 270 289 275 Q 286 285 357 356 Q 378 378 396 385 Q 415 394 404 410 Q 382 434 359 442 Q 346 449 327 436 Q 305 421 252 409 Q 195 396 173 402 Q 163 405 158 398 Q 154 392 163 385 Q 194 363 220 369 Q 260 373 312 390 Q 321 391 322 389 Q 322 380 264 300 Q 257 282 238 269 Q 217 259 234 234 Q 243 222 260 230 Q 351 269 346 224 Q 340 193 324 153 L 307 121 Q 271 61 171 3 Q 159 -4 168 -10 Q 178 -11 205 0 Q 275 28 316 66 Q 329 81 344 102 L 363 135 Z" fill="black" /></g></svg>