<?xml version='1.0' encoding='utf-8'?>
<svg xmlns="http://www.w3.org/2000/svg" version="1.1" viewBox="0 0 1024 1024"><g transform="scale(1, -1) translate(0, -900)"><path d="M 528 684 Q 708 715 745 707 Q 761 697 759 688 Q 747 648 735 606 L 737 605 Q 744 601 759 613 Q 808 649 849 661 Q 883 671 882 680 Q 881 690 811 738 Q 787 754 663 731 Q 603 725 529 711 L 483 705 Q 428 698 364 687 Q 312 680 258 673 C 228 669 231 648 260 641 Q 276 632 311 640 Q 395 667 484 678 L 528 684 Z" fill="black" /></g></svg>