<?xml version='1.0' encoding='utf-8'?>
<svg xmlns="http://www.w3.org/2000/svg" version="1.1" viewBox="0 0 1024 1024"><g transform="scale(1, -1) translate(0, -900)"><path d="M 532 685 Q 733 718 779 708 Q 795 698 793 689 Q 793 688 769 622 Q 762 609 769 605 Q 776 601 792 613 Q 844 647 886 659 Q 920 669 920 677 Q 919 687 848 738 Q 827 754 750 742 Q 573 720 533 713 L 486 707 Q 434 701 378 692 Q 320 683 260 678 Q 256 678 255 677 C 225 674 233 657 262 648 Q 284 636 321 644 Q 423 672 488 678 L 532 685 Z" fill="black" /></g></svg>