<?xml version='1.0' encoding='utf-8'?>
<svg xmlns="http://www.w3.org/2000/svg" version="1.1" viewBox="0 0 1024 1024"><g transform="scale(1, -1) translate(0, -900)"><path d="M 403 297 Q 415 297 431 301 Q 588 331 612 320 Q 625 314 627 285 Q 643 153 641 50 Q 641 29 629 25 Q 619 21 561 30 Q 549 31 550 24 Q 551 17 567 9 Q 603 -19 631 -49 Q 647 -64 662 -62 Q 675 -58 691 -19 Q 710 21 706 61 Q 696 158 687 246 Q 683 282 697 310 Q 709 325 694 338 Q 678 354 640 367 Q 624 376 562 352 Q 543 349 519 342 L 484 335 Q 426 326 395 321 C 365 316 373 293 403 297 Z" fill="black" /></g></svg>