<?xml version='1.0' encoding='utf-8'?>
<svg xmlns="http://www.w3.org/2000/svg" version="1.1" viewBox="0 0 1024 1024"><g transform="scale(1, -1) translate(0, -900)"><path d="M 661 271 Q 665 311 682 327 Q 701 349 689 361 Q 668 383 633 399 Q 617 408 519 385 Q 459 376 399 372 C 369 370 387 340 417 342 Q 426 342 455 345 L 472 348 Q 578 372 597 358 Q 607 351 604 320 Q 601 292 600 265 L 596 226 Q 592 178 585 142 L 575 99 Q 565 56 556 39 Q 544 20 518 27 Q 457 34 460 39 Q 429 45 454 20 Q 487 -11 512 -46 Q 525 -68 540 -61 Q 585 -37 612 34 Q 612 37 627 91 L 637 139 Q 644 182 652 227 L 661 271 Z" fill="black" /></g></svg>