<?xml version='1.0' encoding='utf-8'?>
<svg xmlns="http://www.w3.org/2000/svg" version="1.1" viewBox="0 0 1024 1024"><g transform="scale(1, -1) translate(0, -900)"><path d="M 454 203 Q 464 221 475 231 Q 484 237 482 246 Q 479 256 461 274 C 441 296 430 298 424 269 Q 424 254 402 197 L 385 165 Q 351 110 352 100 Q 353 90 370 87 Q 415 78 470 54 L 517 33 Q 581 0 678 -65 Q 702 -81 718 -80 Q 737 -79 736 -61 Q 735 -43 706 -4 Q 690 23 551 66 L 505 81 Q 448 100 409 107 Q 394 111 402 124 Q 421 152 433 171 L 454 203 Z" fill="black" /></g></svg>