<?xml version='1.0' encoding='utf-8'?>
<svg xmlns="http://www.w3.org/2000/svg" version="1.1" viewBox="0 0 1024 1024"><g transform="scale(1, -1) translate(0, -900)"><path d="M 523 665 Q 742 701 774 694 Q 784 685 779 679 Q 779 678 750 607 Q 740 591 747 588 Q 756 584 773 596 Q 828 632 873 643 Q 910 652 910 662 Q 907 672 838 721 Q 816 740 753 727 Q 674 715 525 691 L 475 683 Q 432 677 382 668 Q 324 658 267 650 Q 266 650 265 649 C 235 644 236 633 265 626 Q 289 614 342 628 Q 441 656 476 657 L 523 665 Z" fill="black" /></g></svg>