<?xml version='1.0' encoding='utf-8'?>
<svg xmlns="http://www.w3.org/2000/svg" version="1.1" viewBox="0 0 1024 1024"><g transform="scale(1, -1) translate(0, -900)"><path d="M 462 272 Q 455 273 453 270 L 449 265 Q 448 257 468 247 Q 500 231 519 235 L 525 237 L 551 247 Q 557 244 553 236 L 547 225 Q 525 186 435 145 Q 431 143 429 141 Q 421 135 429 133 Q 434 131 439 131 L 457 136 Q 518 147 555 167 Q 586 182 608 212 Q 622 233 629 239 Q 639 246 639 253 Q 639 266 599 284 Q 586 293 559 286 L 531 278 L 527 276 L 462 272 Z" fill="black" /></g></svg>