<?xml version='1.0' encoding='utf-8'?>
<svg xmlns="http://www.w3.org/2000/svg" version="1.1" viewBox="0 0 1024 1024"><g transform="scale(1, -1) translate(0, -900)"><path d="M 537 664 Q 726 691 751 684 Q 769 672 766 664 Q 757 625 747 586 L 749 585 Q 756 581 772 594 Q 821 627 861 638 Q 894 648 893 656 Q 892 666 820 715 Q 799 730 726 718 Q 609 706 538 692 L 492 686 Q 440 680 382 671 Q 328 664 277 658 C 247 654 247 633 276 627 Q 294 618 350 628 Q 435 652 493 657 L 537 664 Z" fill="black" /></g></svg>