<?xml version='1.0' encoding='utf-8'?>
<svg xmlns="http://www.w3.org/2000/svg" version="1.1" viewBox="0 0 1024 1024"><g transform="scale(1, -1) translate(0, -900)"><path d="M 531 681 Q 705 709 729 703 Q 745 697 742 688 Q 742 685 714 622 Q 705 607 711 604 Q 718 600 736 611 Q 788 644 830 653 Q 864 660 864 671 Q 863 681 795 732 Q 771 754 676 733 Q 591 724 534 711 L 484 704 Q 436 698 383 688 Q 331 678 279 673 Q 276 673 275 672 C 245 668 249 657 277 646 Q 304 630 338 640 Q 431 670 486 674 L 531 681 Z" fill="black" /></g></svg>