<?xml version='1.0' encoding='utf-8'?>
<svg xmlns="http://www.w3.org/2000/svg" version="1.1" viewBox="0 0 1024 1024"><g transform="scale(1, -1) translate(0, -900)"><path d="M 527 677 Q 692 702 732 696 Q 745 686 742 680 Q 742 677 718 618 Q 711 605 717 601 Q 724 597 740 607 Q 791 638 831 647 Q 865 654 865 663 Q 864 673 797 723 Q 776 739 705 727 Q 585 714 528 703 L 485 697 Q 430 691 364 681 Q 310 672 252 667 C 222 664 232 641 262 637 Q 275 631 321 638 Q 396 660 486 671 L 527 677 Z" fill="black" /></g></svg>