<?xml version='1.0' encoding='utf-8'?>
<svg xmlns="http://www.w3.org/2000/svg" version="1.1" viewBox="0 0 1024 1024"><g transform="scale(1, -1) translate(0, -900)"><path d="M 641 323 Q 641 327 641 330 C 642 339 642 339 627 346 Q 615 353 588 361 Q 575 364 569 359 Q 563 355 572 338 Q 608 290 591 137 Q 588 116 582 100 Q 576 69 545 34 Q 535 24 542 6 Q 549 -18 561 -29 Q 571 -36 583 -25 Q 617 21 725 113 Q 738 123 740 130 Q 741 136 736 135 Q 729 134 643 85 Q 636 82 633 84 Q 626 88 638 294 L 641 323 Z" fill="black" /></g></svg>