<?xml version='1.0' encoding='utf-8'?>
<svg xmlns="http://www.w3.org/2000/svg" version="1.1" viewBox="0 0 1024 1024"><g transform="scale(1, -1) translate(0, -900)"><path d="M 605 164 Q 642 174 676 179 Q 694 182 697 177 Q 704 165 699 134 Q 689 47 667 10 Q 651 -18 625 -14 Q 606 -11 589 -6 Q 567 0 584 -20 Q 618 -53 633 -78 Q 649 -96 664 -82 Q 713 -49 739 61 Q 754 154 771 175 Q 781 185 776 195 Q 769 205 725 223 Q 707 230 691 219 Q 675 209 613 191 L 564 178 Q 506 165 454 159 Q 439 158 438 151 Q 437 145 456 136 Q 475 124 492 131 Q 523 141 556 150 L 605 164 Z" fill="black" /></g></svg>