<?xml version='1.0' encoding='utf-8'?>
<svg xmlns="http://www.w3.org/2000/svg" version="1.1" viewBox="0 0 1024 1024"><g transform="scale(1, -1) translate(0, -900)"><path d="M 598 304 Q 520 222 414 179 Q 407 176 406 172 Q 407 168 413 168 Q 518 164 631 278 L 653 303 Q 684 343 719 399 Q 734 421 756 434 Q 769 440 770 447 Q 770 457 747 473 Q 719 494 708 495 Q 698 495 688 488 Q 640 476 600 466 C 571 459 549 434 579 436 Q 612 436 653 451 Q 672 455 679 450 Q 683 446 665 404 Q 643 353 616 326 L 598 304 Z" fill="black" /></g></svg>