<?xml version='1.0' encoding='utf-8'?>
<svg xmlns="http://www.w3.org/2000/svg" version="1.1" viewBox="0 0 1024 1024"><g transform="scale(1, -1) translate(0, -900)"><path d="M 276 228 Q 297 235 370 254 Q 385 260 390 253 Q 393 246 394 232 Q 401 108 398 31 Q 397 10 390 1 Q 386 -3 371 0 Q 353 3 336 7 Q 320 11 321 4 Q 360 -33 382 -61 Q 392 -76 405 -80 Q 412 -83 419 -75 Q 455 -38 449 33 Q 431 208 449 242 Q 459 258 449 265 Q 433 280 403 292 Q 387 298 335 269 Q 308 262 266 252 C 237 245 247 219 276 228 Z" fill="black" /></g></svg>