<?xml version='1.0' encoding='utf-8'?>
<svg xmlns="http://www.w3.org/2000/svg" version="1.1" viewBox="0 0 1024 1024"><g transform="scale(1, -1) translate(0, -900)"><path d="M 511 245 Q 512 245 516 244 Q 534 241 597 247 L 615 250 Q 700 271 764 275 Q 777 275 781 269 Q 785 262 786 237 Q 787 137 776 80 Q 766 44 757 25 Q 748 6 736 5 Q 727 4 676 22 Q 667 25 667 20 Q 666 16 676 8 Q 707 -32 720 -59 Q 727 -75 737 -76 Q 750 -77 763 -65 Q 805 -34 829 77 Q 839 134 849 216 Q 850 237 865 253 Q 875 265 875 272 Q 874 279 857 290 Q 835 308 803 317 Q 785 323 709 299 Q 703 299 697 296 Q 693 296 528 262 C 499 256 481 248 511 245 Z" fill="black" /></g></svg>