<?xml version='1.0' encoding='utf-8'?>
<svg xmlns="http://www.w3.org/2000/svg" version="1.1" viewBox="0 0 1024 1024"><g transform="scale(1, -1) translate(0, -900)"><path d="M 510 694 Q 694 724 727 716 Q 743 713 743 707 Q 743 703 704 645 Q 695 633 701 628 Q 707 624 724 632 Q 779 657 822 661 Q 858 665 858 674 Q 857 684 794 742 Q 770 761 703 750 Q 604 740 512 723 L 467 717 Q 421 713 367 703 Q 313 694 259 690 Q 255 690 253 689 C 223 686 228 678 255 665 Q 279 647 320 656 Q 419 687 469 687 L 510 694 Z" fill="black" /></g></svg>