<?xml version='1.0' encoding='utf-8'?>
<svg xmlns="http://www.w3.org/2000/svg" version="1.1" viewBox="0 0 1024 1024"><g transform="scale(1, -1) translate(0, -900)"><path d="M 210 320 Q 164 310 140 309 Q 127 310 125 303 Q 121 296 130 289 Q 161 265 189 273 Q 217 286 243 299 Q 268 311 277 303 Q 287 296 279 272 Q 278 244 276 215 Q 272 134 247 60 Q 234 33 270 -13 Q 280 -23 288 -18 Q 295 -12 305 9 Q 342 57 418 137 Q 428 147 426 154 Q 425 161 415 153 Q 376 128 339 98 Q 302 67 308 113 Q 308 156 327 264 Q 331 286 352 306 Q 362 313 355 326 Q 346 341 312 357 Q 302 363 286 354 Q 237 329 210 320 Z" fill="black" /></g></svg>