<?xml version='1.0' encoding='utf-8'?>
<svg xmlns="http://www.w3.org/2000/svg" version="1.1" viewBox="0 0 1024 1024"><g transform="scale(1, -1) translate(0, -900)"><path d="M 276 360 Q 307 369 336 371 Q 346 372 349 369 Q 353 362 352 344 Q 349 293 339 270 Q 327 251 309 253 Q 293 257 278 264 Q 262 271 273 254 Q 301 224 314 201 Q 324 189 334 199 Q 368 221 388 310 Q 388 346 406 369 Q 415 378 411 385 Q 404 392 369 408 Q 356 415 342 406 Q 294 381 183 372 Q 170 372 169 366 Q 168 360 184 352 Q 197 343 251 355 L 276 360 Z" fill="black" /></g></svg>