<?xml version='1.0' encoding='utf-8'?>
<svg xmlns="http://www.w3.org/2000/svg" version="1.1" viewBox="0 0 1024 1024"><g transform="scale(1, -1) translate(0, -900)"><path d="M 623 200 Q 623 201 624 204 Q 628 237 630 277 L 632 305 Q 633 339 633 377 Q 634 389 636 397 C 640 420 640 420 627 426 Q 585 445 571 443 Q 555 440 569 422 Q 605 365 583 195 Q 576 153 557 103 Q 542 61 469 -22 Q 459 -32 455 -38 Q 454 -44 464 -43 Q 477 -43 493 -30 Q 530 -5 551 21 Q 602 84 620 176 L 623 200 Z" fill="black" /></g></svg>