<?xml version='1.0' encoding='utf-8'?>
<svg xmlns="http://www.w3.org/2000/svg" version="1.1" viewBox="0 0 1024 1024"><g transform="scale(1, -1) translate(0, -900)"><path d="M 525 680 Q 717 710 754 701 Q 767 695 767 689 Q 748 650 727 611 Q 727 610 729 608 Q 735 604 752 613 Q 806 641 848 647 Q 882 653 883 661 Q 883 671 819 726 Q 797 747 727 734 Q 607 722 526 708 L 481 702 Q 433 698 379 689 Q 324 682 268 677 Q 267 677 266 676 C 236 672 239 659 267 649 Q 291 636 327 643 Q 406 667 482 674 L 525 680 Z" fill="black" /></g></svg>