<?xml version='1.0' encoding='utf-8'?>
<svg xmlns="http://www.w3.org/2000/svg" version="1.1" viewBox="0 0 1024 1024"><g transform="scale(1, -1) translate(0, -900)"><path d="M 722 248 Q 740 218 757 210 Q 767 203 781 222 Q 794 243 822 355 Q 829 382 851 403 Q 863 413 853 426 Q 840 442 803 466 Q 788 475 726 459 Q 719 459 599 438 Q 554 431 517 424 C 487 419 501 389 530 398 Q 561 408 604 415 L 641 421 Q 753 442 766 429 Q 776 416 774 403 Q 752 280 735 267 C 722 247 722 249 722 248 Z" fill="black" /></g></svg>