<?xml version='1.0' encoding='utf-8'?>
<svg xmlns="http://www.w3.org/2000/svg" version="1.1" viewBox="0 0 1024 1024"><g transform="scale(1, -1) translate(0, -900)"><path d="M 523 688 Q 712 722 756 712 Q 769 705 766 696 Q 766 693 734 626 Q 725 611 731 608 Q 738 604 756 615 Q 810 649 853 660 Q 889 669 888 678 Q 887 688 820 739 Q 799 758 715 743 Q 595 730 524 717 L 482 711 Q 428 705 367 695 Q 309 685 251 680 Q 250 680 249 679 C 219 675 223 661 252 652 Q 277 639 309 648 Q 406 678 482 683 L 523 688 Z" fill="black" /></g></svg>