<?xml version='1.0' encoding='utf-8'?>
<svg xmlns="http://www.w3.org/2000/svg" version="1.1" viewBox="0 0 1024 1024"><g transform="scale(1, -1) translate(0, -900)"><path d="M 393 109 Q 393 134 394 157 L 394 185 Q 394 189 395 194 Q 395 225 397 246 L 399 273 Q 402 297 398 301 Q 385 313 374 319 C 349 335 335 342 348 315 Q 357 306 358 264 L 358 239 Q 358 212 357 178 L 356 152 Q 355 124 351 101 L 348 68 Q 347 64 347 60 Q 346 41 342 31 Q 336 -2 360 -36 Q 369 -51 375 -54 Q 384 -55 387 -45 Q 396 -21 393 75 L 393 109 Z" fill="black" /></g></svg>