<?xml version='1.0' encoding='utf-8'?>
<svg xmlns="http://www.w3.org/2000/svg" version="1.1" viewBox="0 0 1024 1024"><g transform="scale(1, -1) translate(0, -900)"><path d="M 530 655 Q 741 682 774 676 Q 789 669 785 659 Q 786 652 781 643 Q 748 576 755 572 Q 764 569 780 580 Q 834 614 877 625 Q 911 634 911 643 Q 910 653 841 705 Q 819 724 730 709 Q 604 696 530 683 L 484 676 Q 426 670 359 660 Q 298 650 238 645 C 208 642 210 620 239 614 Q 261 605 296 612 Q 410 645 485 649 L 530 655 Z" fill="black" /></g></svg>