<?xml version='1.0' encoding='utf-8'?>
<svg xmlns="http://www.w3.org/2000/svg" version="1.1" viewBox="0 0 1024 1024"><g transform="scale(1, -1) translate(0, -900)"><path d="M 519 706 Q 717 745 768 738 Q 780 734 778 726 Q 763 689 746 649 L 747 648 Q 754 644 772 654 Q 824 682 865 689 Q 899 693 899 703 Q 898 713 831 765 Q 809 786 736 770 Q 577 746 521 733 L 473 724 Q 424 718 368 707 Q 310 695 253 688 C 223 684 225 662 255 658 Q 274 649 328 664 Q 430 694 474 698 L 519 706 Z" fill="black" /></g></svg>