<?xml version='1.0' encoding='utf-8'?>
<svg xmlns="http://www.w3.org/2000/svg" version="1.1" viewBox="0 0 1024 1024"><g transform="scale(1, -1) translate(0, -900)"><path d="M 986 68 Q 970 104 952 208 Q 951 221 945 226 Q 939 229 936 213 Q 920 102 903 67 Q 878 43 806 48 Q 778 51 755 62 Q 736 72 730 86 Q 712 125 739 259 Q 745 286 699 307 Q 687 311 679 307 Q 672 303 677 286 Q 689 249 685 214 Q 676 100 685 69 Q 689 50 706 32 Q 769 -25 908 -2 Q 912 -1 918 0 Q 949 9 981 30 Q 997 45 986 68 Z" fill="black" /></g></svg>