<?xml version='1.0' encoding='utf-8'?>
<svg xmlns="http://www.w3.org/2000/svg" version="1.1" viewBox="0 0 1024 1024"><g transform="scale(1, -1) translate(0, -900)"><path d="M 425 355 L 429 355 L 500 370 L 549 378 Q 594 386 606 382 Q 618 379 625 367 Q 635 345 639 242 L 641 196 Q 642 134 641 94 L 639 55 Q 639 37 632 29 Q 623 19 589 23 L 555 25 Q 547 27 545 24 Q 543 14 563 4 Q 579 -10 594 -24 L 627 -57 Q 641 -71 655 -69 Q 669 -65 687 -29 Q 715 27 710 77 L 692 300 Q 688 339 704 373 Q 711 390 710 396 Q 700 417 641 437 Q 622 446 568 422 L 418 385 C 389 378 395 350 425 355 Z" fill="black" /></g></svg>