<?xml version='1.0' encoding='utf-8'?>
<svg xmlns="http://www.w3.org/2000/svg" version="1.1" viewBox="0 0 1024 1024"><g transform="scale(1, -1) translate(0, -900)"><path d="M 490 504 Q 377 490 300 474 Q 254 466 214 462 L 125 455 Q 116 453 116 443 L 116 439 Q 121 421 151 409 Q 186 394 208 402 Q 334 454 666 492 Q 779 506 919 494 Q 927 494 932 494 Q 956 498 949 517 Q 946 521 939 527 Q 911 551 870 568 Q 861 570 847 568 L 832 564 Q 792 549 702 536 Q 547 514 531 511 L 490 504 Z" fill="black" /></g></svg>