<?xml version='1.0' encoding='utf-8'?>
<svg xmlns="http://www.w3.org/2000/svg" version="1.1" viewBox="0 0 1024 1024"><g transform="scale(1, -1) translate(0, -900)"><path d="M 563 685 Q 554 694 534 701 Q 525 705 514 701 Q 507 697 513 685 Q 514 678 518 669 Q 539 627 526 438 Q 507 348 527 314 Q 531 305 538 297 Q 548 284 558 296 Q 565 305 568 315 L 572 351 Q 572 361 573 436 L 573 467 Q 574 510 575 541 L 576 571 Q 577 634 579 641 Q 580 651 580 657 C 581 672 581 672 563 685 Z" fill="black" /></g></svg>