<?xml version='1.0' encoding='utf-8'?>
<svg xmlns="http://www.w3.org/2000/svg" version="1.1" viewBox="0 0 1024 1024"><g transform="scale(1, -1) translate(0, -900)"><path d="M 550 360 Q 592 366 687 387 Q 706 391 712 381 Q 716 371 718 352 Q 730 178 726 72 Q 726 53 720 44 Q 717 40 702 42 Q 674 55 646 68 Q 628 78 628 68 Q 679 10 705 -31 Q 717 -50 731 -55 Q 738 -59 748 -51 Q 790 -3 790 44 Q 759 324 785 371 Q 797 389 785 399 Q 764 417 730 431 Q 714 438 650 409 Q 593 394 545 389 C 515 385 520 355 550 360 Z" fill="black" /></g></svg>