<?xml version='1.0' encoding='utf-8'?>
<svg xmlns="http://www.w3.org/2000/svg" version="1.1" viewBox="0 0 1024 1024"><g transform="scale(1, -1) translate(0, -900)"><path d="M 802 340 Q 809 385 818 412 L 837 461 Q 847 482 861 495 Q 877 513 862 529 Q 846 541 795 563 Q 779 569 758 560 Q 706 539 659 527 L 632 521 Q 577 509 520 502 Q 505 501 507 492 Q 510 485 526 479 Q 548 469 580 480 Q 586 481 596 483 L 631 491 Q 685 504 740 514 Q 761 520 769 511 Q 781 501 776 448 L 770 408 Q 763 374 756 341 C 750 312 797 310 802 340 Z" fill="black" /></g></svg>