<?xml version='1.0' encoding='utf-8'?>
<svg xmlns="http://www.w3.org/2000/svg" version="1.1" viewBox="0 0 1024 1024"><g transform="scale(1, -1) translate(0, -900)"><path d="M 261 365 Q 273 366 286 372 Q 364 394 377 389 Q 384 383 382 365 Q 389 238 379 140 Q 378 121 366 117 Q 362 114 332 113 Q 322 114 322 108 Q 323 102 336 95 Q 355 74 371 53 Q 378 43 389 42 Q 401 43 418 79 Q 437 115 436 152 Q 433 242 430 324 Q 429 355 442 382 Q 452 394 440 405 Q 427 418 395 428 Q 380 434 334 412 Q 274 393 248 384 C 220 374 232 359 261 365 Z" fill="black" /></g></svg>