<?xml version='1.0' encoding='utf-8'?>
<svg xmlns="http://www.w3.org/2000/svg" version="1.1" viewBox="0 0 1024 1024"><g transform="scale(1, -1) translate(0, -900)"><path d="M 601 493 Q 616 472 627 412 L 631 383 Q 635 347 638 307 L 640 273 Q 639 273 640 272 Q 643 100 613 51 Q 610 44 604 42 Q 595 39 524 55 Q 517 56 514 53 Q 513 49 520 41 Q 571 -10 597 -46 Q 606 -58 612 -57 Q 624 -56 645 -36 Q 691 9 693 142 Q 692 190 688 264 Q 687 271 687 279 L 684 316 Q 680 368 677 391 L 674 420 Q 671 445 671 464 Q 671 482 660 489 Q 650 496 639 501 C 613 516 587 520 601 493 Z" fill="black" /></g></svg>