<?xml version='1.0' encoding='utf-8'?>
<svg xmlns="http://www.w3.org/2000/svg" version="1.1" viewBox="0 0 1024 1024"><g transform="scale(1, -1) translate(0, -900)"><path d="M 264 347 Q 348 375 365 369 Q 374 365 372 344 Q 384 214 377 113 Q 376 92 365 89 Q 355 85 304 93 Q 294 94 294 88 Q 295 82 309 75 Q 340 51 364 25 Q 377 12 390 14 Q 403 17 419 54 Q 438 91 435 129 Q 428 220 421 303 Q 418 337 432 363 Q 441 376 429 387 Q 414 399 383 408 Q 365 415 352 406 Q 342 399 320 391 Q 283 378 259 370 C 231 360 235 338 264 347 Z" fill="black" /></g></svg>