<?xml version='1.0' encoding='utf-8'?>
<svg xmlns="http://www.w3.org/2000/svg" version="1.1" viewBox="0 0 1024 1024"><g transform="scale(1, -1) translate(0, -900)"><path d="M 643 126 Q 643 166 643 217 L 643 242 Q 643 300 644 314 L 647 338 Q 648 351 653 362 Q 660 374 657 384 Q 651 391 608 417 Q 589 430 573 418 Q 569 414 574 402 Q 595 374 595 336 Q 595 302 599 261 Q 602 62 589 8 Q 582 -20 602 -71 Q 608 -84 614 -87 Q 618 -93 625 -86 Q 643 -71 643 15 Q 643 48 643 104 L 643 126 Z" fill="black" /></g></svg>