<?xml version='1.0' encoding='utf-8'?>
<svg xmlns="http://www.w3.org/2000/svg" version="1.1" viewBox="0 0 1024 1024"><g transform="scale(1, -1) translate(0, -900)"><path d="M 294 199 Q 282 76 289 51 Q 295 35 305 19 Q 315 1 323 -2 Q 333 -3 339 9 Q 351 39 347 67 Q 344 142 342 210 L 342 251 Q 342 285 342 317 L 342 349 Q 342 353 343 357 Q 343 408 345 443 L 346 473 Q 349 513 345 517 Q 327 532 313 540 C 288 556 272 563 283 535 Q 283 534 287 528 Q 290 522 300 461 L 301 433 Q 301 393 301 339 L 300 309 Q 300 300 297 240 L 294 199 Z" fill="black" /></g></svg>