<?xml version='1.0' encoding='utf-8'?>
<svg xmlns="http://www.w3.org/2000/svg" version="1.1" viewBox="0 0 1024 1024"><g transform="scale(1, -1) translate(0, -900)"><path d="M 976 112 Q 960 158 950 237 Q 949 253 942 258 Q 933 262 929 243 Q 910 147 896 130 Q 878 111 794 106 Q 748 107 729 115 Q 713 122 709 134 Q 685 194 680 339 L 681 388 Q 688 554 719 634 Q 732 664 714 681 Q 665 720 648 716 Q 633 710 640 693 Q 659 656 654 600 Q 647 456 646 354 L 646 315 Q 646 123 685 89 Q 725 56 867 54 Q 931 54 958 66 Q 988 81 976 112 Z" fill="black" /></g></svg>