<?xml version='1.0' encoding='utf-8'?>
<svg xmlns="http://www.w3.org/2000/svg" version="1.1" viewBox="0 0 1024 1024"><g transform="scale(1, -1) translate(0, -900)"><path d="M 316 221 Q 316 258 317 291 L 318 326 Q 318 384 321 420 L 323 450 Q 324 454 325 459 Q 328 471 321 476 Q 305 489 292 498 C 268 516 252 516 263 488 Q 273 470 275 436 L 276 409 Q 276 367 275 313 L 274 282 Q 274 264 271 209 L 267 166 Q 260 79 255 66 Q 246 30 278 -17 Q 288 -33 295 -38 Q 305 -39 311 -27 Q 323 3 319 31 Q 318 109 316 179 L 316 221 Z" fill="black" /></g></svg>