<?xml version='1.0' encoding='utf-8'?>
<svg xmlns="http://www.w3.org/2000/svg" version="1.1" viewBox="0 0 1024 1024"><g transform="scale(1, -1) translate(0, -900)"><path d="M 299 193 Q 293 96 286 77 Q 277 43 309 -5 Q 319 -23 327 -26 Q 337 -27 343 -15 Q 355 15 351 43 Q 348 128 346 204 L 346 247 Q 346 280 346 311 L 347 347 Q 347 398 349 432 L 351 463 Q 354 496 349 501 Q 333 514 321 522 C 297 539 279 538 291 511 Q 303 493 304 450 L 306 422 Q 306 385 306 336 L 305 302 Q 305 281 302 236 L 299 193 Z" fill="black" /></g></svg>