<?xml version='1.0' encoding='utf-8'?>
<svg xmlns="http://www.w3.org/2000/svg" version="1.1" viewBox="0 0 1024 1024"><g transform="scale(1, -1) translate(0, -900)"><path d="M 685 316 Q 686 325 688 334 L 691 371 Q 692 393 694 418 Q 695 472 698 523 L 699 557 Q 700 671 723 736 Q 730 751 719 762 Q 695 780 656 790 Q 631 797 621 789 Q 612 782 620 770 Q 644 733 648 685 Q 652 616 652 549 L 652 515 Q 651 454 647 395 Q 646 382 644 365 L 639 329 Q 617 217 553 145 Q 511 106 445 67 Q 432 60 432 55 Q 433 51 445 51 Q 461 47 500 63 Q 633 108 675 269 Q 675 273 678 279 L 685 316 Z" fill="black" /></g></svg>