<?xml version='1.0' encoding='utf-8'?>
<svg xmlns="http://www.w3.org/2000/svg" version="1.1" viewBox="0 0 1024 1024"><g transform="scale(1, -1) translate(0, -900)"><path d="M 489 140 Q 489 -61 501 -79 Q 501 -80 503 -82 Q 507 -88 514 -86 Q 529 -77 533 -26 Q 540 32 538 89 Q 537 108 537 144 L 537 179 Q 537 204 538 235 L 538 264 Q 539 292 540 326 Q 540 335 540 341 L 544 365 Q 545 378 548 389 Q 551 405 539 413 Q 535 416 531 418 C 507 436 458 435 472 409 Q 487 385 489 357 L 489 334 Q 489 300 490 257 L 490 231 Q 489 204 489 174 L 489 140 Z" fill="black" /></g></svg>