<?xml version='1.0' encoding='utf-8'?>
<svg xmlns="http://www.w3.org/2000/svg" version="1.1" viewBox="0 0 1024 1024"><g transform="scale(1, -1) translate(0, -900)"><path d="M 335 219 Q 335 255 336 289 L 336 321 Q 336 330 337 338 Q 337 387 339 423 L 341 454 Q 344 505 343 507 Q 328 520 316 528 C 292 546 275 549 283 520 Q 289 508 297 441 L 298 414 Q 298 369 297 311 L 296 281 Q 296 242 292 210 L 289 173 Q 274 37 281 15 Q 287 -4 298 -21 Q 308 -39 315 -42 Q 325 -43 331 -31 Q 343 -1 339 27 Q 336 109 335 183 L 335 219 Z" fill="black" /></g></svg>