<?xml version='1.0' encoding='utf-8'?>
<svg xmlns="http://www.w3.org/2000/svg" version="1.1" viewBox="0 0 1024 1024"><g transform="scale(1, -1) translate(0, -900)"><path d="M 594 795 Q 634 807 671 819 Q 689 823 694 818 Q 698 812 695 790 Q 674 655 703 626 Q 748 581 833 586 Q 863 587 884 600 Q 899 609 892 625 Q 873 668 861 718 Q 852 745 845 718 Q 841 649 828 636 Q 819 629 787 633 Q 753 637 733 657 Q 720 670 724 729 Q 727 772 769 817 Q 781 829 766 841 Q 745 854 718 863 Q 700 869 689 857 Q 655 835 588 818 C 559 810 565 786 594 795 Z" fill="black" /></g></svg>