<?xml version='1.0' encoding='utf-8'?>
<svg xmlns="http://www.w3.org/2000/svg" version="1.1" viewBox="0 0 1024 1024"><g transform="scale(1, -1) translate(0, -900)"><path d="M 330 253 Q 330 290 331 326 L 332 359 Q 333 408 335 440 L 338 468 Q 339 477 341 483 Q 344 495 337 500 Q 321 515 307 523 C 282 540 263 545 276 518 Q 276 517 279 513 Q 288 497 290 455 L 291 431 Q 291 395 291 350 L 290 320 Q 289 307 289 290 Q 288 265 286 242 L 283 203 Q 265 65 273 44 Q 279 25 290 7 Q 300 -11 307 -14 Q 317 -15 323 -3 Q 335 27 332 55 Q 331 139 330 214 L 330 253 Z" fill="black" /></g></svg>