<?xml version='1.0' encoding='utf-8'?>
<svg xmlns="http://www.w3.org/2000/svg" version="1.1" viewBox="0 0 1024 1024"><g transform="scale(1, -1) translate(0, -900)"><path d="M 290 459 Q 291 469 293 478 Q 294 488 289 494 Q 276 504 264 512 C 239 529 222 533 233 505 Q 243 487 245 446 L 246 421 Q 247 382 247 331 L 246 304 Q 246 262 244 234 L 242 195 Q 236 96 228 73 Q 219 42 250 -6 Q 260 -22 267 -26 Q 277 -27 282 -15 Q 292 13 290 40 Q 287 128 285 207 L 285 245 Q 285 279 285 311 L 286 341 Q 286 395 288 431 L 290 459 Z" fill="black" /></g></svg>