<?xml version='1.0' encoding='utf-8'?>
<svg xmlns="http://www.w3.org/2000/svg" version="1.1" viewBox="0 0 1024 1024"><g transform="scale(1, -1) translate(0, -900)"><path d="M 605 433 Q 606 433 748 465 Q 767 471 772 460 Q 784 424 791 243 Q 795 84 783 60 Q 779 53 758 58 Q 728 62 699 68 Q 680 72 681 63 Q 744 20 780 -13 Q 793 -29 808 -34 Q 817 -37 825 -27 Q 861 21 857 73 Q 821 409 845 451 Q 857 470 845 479 Q 824 497 789 510 Q 771 517 756 509 Q 716 487 689 479 L 650 469 Q 625 466 592 461 C 562 457 576 427 605 433 Z" fill="black" /></g></svg>