<?xml version='1.0' encoding='utf-8'?>
<svg xmlns="http://www.w3.org/2000/svg" version="1.1" viewBox="0 0 1024 1024"><g transform="scale(1, -1) translate(0, -900)"><path d="M 313 240 Q 313 274 314 307 L 314 338 Q 314 342 315 344 Q 315 398 317 433 L 319 462 Q 320 475 322 485 Q 325 498 318 503 Q 305 513 295 521 C 271 540 242 545 255 518 Q 256 518 257 516 Q 267 498 269 450 L 270 424 Q 270 382 270 328 L 269 298 Q 269 297 269 294 Q 268 260 265 230 L 261 186 Q 248 63 257 42 Q 261 24 273 8 Q 283 -10 292 -14 Q 302 -15 308 -3 Q 320 28 317 58 Q 314 131 314 199 L 313 240 Z" fill="black" /></g></svg>