<?xml version='1.0' encoding='utf-8'?>
<svg xmlns="http://www.w3.org/2000/svg" version="1.1" viewBox="0 0 1024 1024"><g transform="scale(1, -1) translate(0, -900)"><path d="M 524 170 Q 540 180 547 197 Q 559 231 522 289 Q 498 338 560 408 Q 576 424 561 436 Q 545 448 516 459 Q 498 469 483 454 Q 443 415 416 414 Q 412 414 412 413 C 401 411 401 411 408 407 Q 421 394 455 400 Q 465 403 478 410 Q 485 414 492 406 Q 508 390 493 367 Q 459 334 483 288 Q 514 231 513 204 Q 512 186 507 176 Q 506 176 506 175 C 495 147 500 152 524 170 Z" fill="black" /></g></svg>