<?xml version='1.0' encoding='utf-8'?>
<svg xmlns="http://www.w3.org/2000/svg" version="1.1" viewBox="0 0 1024 1024"><g transform="scale(1, -1) translate(0, -900)"><path d="M 969 85 Q 956 113 940 198 Q 940 214 933 218 Q 927 221 923 204 Q 898 113 880 85 Q 858 60 784 62 Q 756 63 735 72 Q 716 79 712 91 Q 694 130 720 253 Q 726 283 678 303 Q 665 307 657 303 Q 650 299 655 281 Q 667 242 663 206 Q 656 103 664 73 Q 667 55 684 40 Q 745 -9 888 14 Q 892 17 898 17 Q 931 26 963 47 Q 981 60 969 85 Z" fill="black" /></g></svg>