<?xml version='1.0' encoding='utf-8'?>
<svg xmlns="http://www.w3.org/2000/svg" version="1.1" viewBox="0 0 1024 1024"><g transform="scale(1, -1) translate(0, -900)"><path d="M 412 413 Q 416 423 425 426 Q 437 441 425 454 Q 412 464 372 481 Q 359 487 342 480 Q 315 468 290 459 L 245 446 Q 202 436 159 428 C 130 422 145 397 174 404 Q 181 405 192 409 Q 219 416 246 421 L 288 431 Q 345 444 352 438 Q 359 432 358 420 Q 354 386 346 357 C 338 328 375 328 385 356 Q 397 393 407 405 Q 407 406 408 407 L 412 413 Z" fill="black" /></g></svg>