<?xml version='1.0' encoding='utf-8'?>
<svg xmlns="http://www.w3.org/2000/svg" version="1.1" viewBox="0 0 1024 1024"><g transform="scale(1, -1) translate(0, -900)"><path d="M 571 573 Q 602 558 646 568 Q 778 605 808 596 Q 812 595 816 590 Q 835 568 836 518 Q 840 358 827 255 Q 802 93 770 75 Q 766 72 679 83 Q 669 84 666 81 Q 663 74 680 62 Q 720 28 741 -5 Q 760 -35 778 -29 Q 827 -16 864 113 Q 886 198 896 477 Q 897 549 916 573 Q 932 592 911 609 Q 838 657 783 632 Q 686 607 584 590 C 554 585 542 581 571 573 Z" fill="black" /></g></svg>