<?xml version='1.0' encoding='utf-8'?>
<svg xmlns="http://www.w3.org/2000/svg" version="1.1" viewBox="0 0 1024 1024"><g transform="scale(1, -1) translate(0, -900)"><path d="M 330 252 Q 330 292 331 328 L 332 362 Q 332 410 334 444 L 336 474 Q 337 493 340 505 Q 343 517 336 522 Q 326 529 318 536 C 295 555 272 561 281 532 Q 287 523 294 461 L 294 434 Q 294 398 294 352 L 293 320 Q 293 316 289 243 L 286 201 Q 270 69 278 49 Q 282 30 294 14 Q 304 -2 311 -6 Q 321 -7 326 4 Q 336 32 334 60 Q 331 139 331 212 L 330 252 Z" fill="black" /></g></svg>