<?xml version='1.0' encoding='utf-8'?>
<svg xmlns="http://www.w3.org/2000/svg" version="1.1" viewBox="0 0 1024 1024"><g transform="scale(1, -1) translate(0, -900)"><path d="M 329 275 Q 329 305 330 332 L 331 367 Q 331 415 334 448 L 336 478 Q 339 514 336 518 Q 320 531 307 539 C 282 556 265 561 278 534 Q 278 533 281 529 Q 290 513 292 465 L 293 438 Q 293 402 292 357 L 291 324 Q 291 303 288 265 L 285 225 Q 276 117 269 98 Q 260 64 290 18 Q 300 2 307 -2 Q 317 -3 322 8 Q 334 36 331 64 Q 330 155 329 236 L 329 275 Z" fill="black" /></g></svg>