<?xml version='1.0' encoding='utf-8'?>
<svg xmlns="http://www.w3.org/2000/svg" version="1.1" viewBox="0 0 1024 1024"><g transform="scale(1, -1) translate(0, -900)"><path d="M 270 241 Q 270 272 272 303 L 273 334 Q 274 383 277 416 L 280 442 Q 283 475 279 479 Q 260 497 244 504 C 218 519 213 520 225 493 Q 237 475 238 429 L 238 406 Q 238 369 237 323 L 235 295 Q 234 282 234 266 Q 233 247 231 227 L 228 189 Q 219 84 212 65 Q 203 37 231 -10 Q 241 -26 247 -30 Q 257 -31 261 -20 Q 271 7 270 32 Q 269 122 270 202 L 270 241 Z" fill="black" /></g></svg>