<?xml version='1.0' encoding='utf-8'?>
<svg xmlns="http://www.w3.org/2000/svg" version="1.1" viewBox="0 0 1024 1024"><g transform="scale(1, -1) translate(0, -900)"><path d="M 273 175 Q 260 52 266 37 Q 270 18 282 2 Q 292 -14 299 -18 Q 309 -19 314 -7 Q 324 21 322 48 Q 321 121 319 188 L 319 228 Q 319 264 320 297 L 321 330 Q 321 379 323 413 L 325 441 Q 326 453 328 461 Q 331 473 324 478 Q 308 491 295 499 C 270 516 253 521 266 494 Q 266 493 269 489 Q 278 474 280 429 L 281 403 Q 281 366 281 319 L 280 289 Q 280 282 280 274 Q 279 244 276 217 L 273 175 Z" fill="black" /></g></svg>