<?xml version='1.0' encoding='utf-8'?>
<svg xmlns="http://www.w3.org/2000/svg" version="1.1" viewBox="0 0 1024 1024"><g transform="scale(1, -1) translate(0, -900)"><path d="M 695 368 Q 731 377 772 383 Q 794 389 805 377 Q 812 373 815 336 Q 824 212 817 72 Q 816 51 809 46 Q 797 39 743 52 Q 730 56 730 47 Q 730 41 741 35 Q 790 -4 815 -34 Q 831 -50 843 -49 Q 853 -46 864 -22 Q 877 15 878 72 Q 863 327 877 359 Q 887 378 879 388 Q 869 401 829 422 Q 808 431 750 412 Q 639 388 558 377 C 528 373 549 336 578 342 Q 582 342 589 343 Q 616 352 647 357 L 695 368 Z" fill="black" /></g></svg>