<?xml version='1.0' encoding='utf-8'?>
<svg xmlns="http://www.w3.org/2000/svg" version="1.1" viewBox="0 0 1024 1024"><g transform="scale(1, -1) translate(0, -900)"><path d="M 761 477 Q 771 458 785 450 Q 794 443 808 461 Q 818 476 848 563 Q 857 590 877 611 Q 889 621 880 634 Q 867 649 831 673 Q 816 680 746 664 Q 740 664 736 662 Q 682 650 543 622 C 514 616 536 581 564 592 Q 564 593 566 594 Q 603 606 656 617 L 692 624 Q 780 645 798 634 Q 808 627 804 613 Q 785 528 777 516 Q 774 507 758 503 C 747 498 747 498 761 477 Z" fill="black" /></g></svg>