<?xml version='1.0' encoding='utf-8'?>
<svg xmlns="http://www.w3.org/2000/svg" version="1.1" viewBox="0 0 1024 1024"><g transform="scale(1, -1) translate(0, -900)"><path d="M 753 154 Q 768 133 781 126 Q 790 120 802 138 Q 812 154 833 249 Q 840 276 859 297 Q 869 307 860 320 Q 847 333 810 354 Q 797 360 723 343 Q 720 343 718 342 Q 610 318 532 302 C 503 296 525 264 554 273 Q 590 285 643 296 L 676 303 Q 761 324 780 312 Q 790 305 788 290 Q 773 190 764 180 C 753 154 753 154 753 154 Z" fill="black" /></g></svg>