<?xml version='1.0' encoding='utf-8'?>
<svg xmlns="http://www.w3.org/2000/svg" version="1.1" viewBox="0 0 1024 1024"><g transform="scale(1, -1) translate(0, -900)"><path d="M 326 269 Q 326 296 327 320 L 328 353 Q 329 402 332 433 L 335 459 Q 336 466 337 471 Q 340 483 333 488 Q 318 501 306 508 C 281 525 265 529 275 501 Q 284 485 286 443 L 287 420 Q 287 386 286 341 L 285 310 Q 284 297 284 280 L 282 256 L 280 217 Q 271 103 264 82 Q 255 46 286 -1 Q 296 -19 303 -22 Q 313 -23 319 -11 Q 331 19 328 47 Q 327 144 326 231 L 326 269 Z" fill="black" /></g></svg>