<?xml version='1.0' encoding='utf-8'?>
<svg xmlns="http://www.w3.org/2000/svg" version="1.1" viewBox="0 0 1024 1024"><g transform="scale(1, -1) translate(0, -900)"><path d="M 491 115 Q 494 116 498 123 Q 508 127 511 141 Q 512 165 486 197 Q 461 230 521 300 Q 542 328 543 331 Q 542 335 537 340 Q 521 353 493 366 Q 475 376 461 363 Q 425 327 400 326 Q 394 326 393 322 Q 392 318 398 315 Q 425 303 454 319 Q 460 323 466 317 Q 482 298 464 273 Q 449 257 439 232 Q 433 213 467 164 Q 480 140 485 127 Q 482 120 486 116 C 487 110 487 110 491 115 Z" fill="black" /></g></svg>