<?xml version='1.0' encoding='utf-8'?>
<svg xmlns="http://www.w3.org/2000/svg" version="1.1" viewBox="0 0 1024 1024"><g transform="scale(1, -1) translate(0, -900)"><path d="M 265 212 Q 250 62 256 43 Q 260 28 271 14 Q 281 -2 287 -6 Q 297 -7 301 4 Q 311 31 309 57 Q 306 145 306 225 L 306 262 Q 306 296 307 328 L 308 359 Q 308 404 310 435 L 312 463 Q 313 473 315 480 Q 318 490 312 495 Q 294 510 281 517 C 256 533 255 527 263 498 Q 269 483 270 449 L 271 425 Q 272 391 271 346 L 271 318 Q 270 303 270 286 Q 269 267 267 249 L 265 212 Z" fill="black" /></g></svg>