<?xml version='1.0' encoding='utf-8'?>
<svg xmlns="http://www.w3.org/2000/svg" version="1.1" viewBox="0 0 1024 1024"><g transform="scale(1, -1) translate(0, -900)"><path d="M 525 114 Q 541 124 548 143 Q 554 162 548 180 Q 544 193 522 217 Q 506 241 529 296 Q 544 323 557 338 Q 573 354 556 365 Q 540 377 510 386 Q 492 395 460 362 Q 414 335 411 334 Q 404 333 404 329 Q 403 325 410 322 Q 443 313 476 336 Q 482 339 489 333 Q 507 317 492 292 Q 480 274 474 249 Q 471 233 484 214 Q 527 157 511 120 Q 510 120 510 119 C 501 95 501 95 525 114 Z" fill="black" /></g></svg>