<?xml version='1.0' encoding='utf-8'?>
<svg xmlns="http://www.w3.org/2000/svg" version="1.1" viewBox="0 0 1024 1024"><g transform="scale(1, -1) translate(0, -900)"><path d="M 803 473 Q 812 458 821 451 Q 828 445 840 459 Q 847 468 870 517 Q 877 539 895 558 Q 905 567 897 577 Q 885 590 854 610 Q 841 617 829 613 Q 804 606 767 596 L 728 586 Q 700 580 673 572 L 640 564 Q 601 554 572 547 C 543 540 561 511 589 522 Q 611 532 644 540 L 676 550 Q 698 557 727 563 L 763 572 Q 808 587 832 575 Q 836 571 835 563 Q 820 506 808 497 C 797 482 797 482 803 473 Z" fill="black" /></g></svg>