<?xml version='1.0' encoding='utf-8'?>
<svg xmlns="http://www.w3.org/2000/svg" version="1.1" viewBox="0 0 1024 1024"><g transform="scale(1, -1) translate(0, -900)"><path d="M 542 151 Q 648 161 782 146 Q 806 142 815 148 Q 822 154 817 167 Q 813 180 773 204 Q 751 217 668 205 Q 563 196 542 192 L 485 185 Q 415 178 346 162 Q 330 156 326 162 Q 322 166 326 174 Q 339 226 347 241 Q 354 254 343 266 Q 327 288 298 303 Q 285 309 277 302 Q 271 296 279 280 Q 292 252 287 213 Q 275 173 255 156 Q 242 143 246 131 Q 253 110 269 93 Q 279 81 298 93 Q 364 132 484 144 L 542 151 Z" fill="black" /></g></svg>