<?xml version='1.0' encoding='utf-8'?>
<svg xmlns="http://www.w3.org/2000/svg" version="1.1" viewBox="0 0 1024 1024"><g transform="scale(1, -1) translate(0, -900)"><path d="M 305 261 Q 305 295 306 327 L 307 358 Q 308 410 311 443 L 313 470 Q 314 479 316 485 Q 319 495 312 502 Q 297 515 285 521 C 260 537 247 541 257 513 Q 266 497 268 456 L 269 432 Q 269 395 269 348 L 268 320 Q 267 304 267 286 Q 266 268 264 250 L 261 209 Q 252 101 245 82 Q 236 48 266 2 Q 276 -14 283 -18 Q 293 -19 298 -8 Q 310 20 307 48 Q 306 139 305 221 L 305 261 Z" fill="black" /></g></svg>