<?xml version='1.0' encoding='utf-8'?>
<svg xmlns="http://www.w3.org/2000/svg" version="1.1" viewBox="0 0 1024 1024"><g transform="scale(1, -1) translate(0, -900)"><path d="M 475 643 Q 491 689 516 706 Q 531 724 517 739 Q 501 751 453 771 Q 437 778 416 769 Q 388 756 362 745 L 303 726 Q 257 714 211 706 Q 196 703 198 695 Q 201 688 218 683 Q 242 674 272 687 Q 285 691 301 694 L 355 708 Q 380 715 406 722 Q 422 728 430 721 Q 437 714 436 701 Q 430 662 421 629 C 413 600 464 615 475 643 Z" fill="black" /></g></svg>