<?xml version='1.0' encoding='utf-8'?>
<svg xmlns="http://www.w3.org/2000/svg" version="1.1" viewBox="0 0 1024 1024"><g transform="scale(1, -1) translate(0, -900)"><path d="M 359 342 Q 372 321 385 314 Q 394 307 408 325 Q 421 347 454 467 Q 461 494 482 516 Q 494 526 484 539 Q 471 554 434 577 Q 421 583 352 566 Q 346 566 313 557 L 274 548 Q 262 547 253 543 Q 217 534 186 527 C 157 520 170 488 199 497 Q 262 518 371 540 Q 393 544 403 537 Q 415 527 411 509 Q 381 382 366 369 C 354 349 354 349 359 342 Z" fill="black" /></g></svg>