<?xml version='1.0' encoding='utf-8'?>
<svg xmlns="http://www.w3.org/2000/svg" version="1.1" viewBox="0 0 1024 1024"><g transform="scale(1, -1) translate(0, -900)"><path d="M 357 175 Q 376 184 498 192 Q 519 193 525 204 Q 529 214 511 223 Q 451 256 392 227 Q 380 226 370 221 Q 363 220 357 217 L 311 204 Q 254 188 202 169 Q 177 159 182 183 Q 189 223 198 238 Q 205 248 200 257 Q 193 266 161 279 Q 145 286 135 279 Q 126 270 135 259 Q 162 219 132 164 Q 113 139 115 127 Q 119 117 135 106 Q 148 100 159 112 Q 211 145 308 165 L 357 175 Z" fill="black" /></g></svg>