<?xml version='1.0' encoding='utf-8'?>
<svg xmlns="http://www.w3.org/2000/svg" version="1.1" viewBox="0 0 1024 1024"><g transform="scale(1, -1) translate(0, -900)"><path d="M 690 526 Q 750 544 809 553 Q 822 554 826 548 Q 835 530 833 482 Q 826 308 795 215 Q 779 157 761 139 Q 751 129 727 135 Q 702 141 680 148 Q 658 155 672 133 Q 711 87 731 50 Q 738 31 758 34 Q 779 38 803 68 Q 875 149 888 439 Q 892 505 914 543 Q 930 565 921 574 Q 905 592 871 606 Q 846 618 821 605 Q 698 547 561 536 Q 545 537 545 528 Q 544 519 564 508 Q 588 495 609 503 Q 633 512 658 517 L 690 526 Z" fill="black" /></g></svg>