<?xml version='1.0' encoding='utf-8'?>
<svg xmlns="http://www.w3.org/2000/svg" version="1.1" viewBox="0 0 1024 1024"><g transform="scale(1, -1) translate(0, -900)"><path d="M 755 81 Q 755 80 757 77 Q 772 55 789 13 Q 799 -6 816 5 Q 849 23 866 136 Q 894 307 910 333 Q 923 354 906 367 Q 882 389 849 405 Q 836 414 818 408 Q 809 404 766 392 Q 718 379 664 373 Q 655 372 655 361 Q 656 351 672 344 Q 693 337 734 344 Q 815 374 829 366 Q 838 360 837 339 Q 834 297 828 254 L 823 223 Q 814 168 802 111 Q 799 99 782 101 C 753 93 748 92 755 81 Z" fill="black" /></g></svg>