<?xml version='1.0' encoding='utf-8'?>
<svg xmlns="http://www.w3.org/2000/svg" version="1.1" viewBox="0 0 1024 1024"><g transform="scale(1, -1) translate(0, -900)"><path d="M 323 136 Q 368 143 423 143 Q 439 142 447 147 Q 451 151 447 161 Q 441 170 412 184 Q 396 191 377 186 Q 358 180 330 175 Q 326 175 323 173 L 278 163 Q 227 151 180 135 Q 171 131 170 133 Q 167 136 169 141 Q 176 175 182 184 Q 188 194 179 203 Q 166 219 144 230 Q 134 234 128 228 Q 124 224 130 212 Q 158 161 117 127 Q 108 117 112 108 Q 118 93 131 81 Q 140 74 153 83 Q 183 110 276 128 L 323 136 Z" fill="black" /></g></svg>