<?xml version='1.0' encoding='utf-8'?>
<svg xmlns="http://www.w3.org/2000/svg" version="1.1" viewBox="0 0 1024 1024"><g transform="scale(1, -1) translate(0, -900)"><path d="M 672 350 Q 811 378 830 364 Q 837 358 836 345 Q 823 251 815 239 Q 808 227 795 232 Q 765 239 734 246 Q 709 250 727 232 Q 785 183 809 147 Q 815 137 825 141 Q 852 159 880 282 Q 887 319 903 335 Q 918 354 912 363 Q 905 376 855 407 Q 837 420 823 414 Q 795 404 744 396 Q 704 390 672 383 L 623 374 Q 575 367 551 358 Q 511 348 480 343 Q 458 339 455 330 Q 454 323 470 314 Q 501 295 532 308 Q 563 323 622 337 L 672 350 Z" fill="black" /></g></svg>