<?xml version='1.0' encoding='utf-8'?>
<svg xmlns="http://www.w3.org/2000/svg" version="1.1" viewBox="0 0 1024 1024"><g transform="scale(1, -1) translate(0, -900)"><path d="M 535 357 Q 535 400 536 454 L 536 501 Q 536 547 538 598 L 538 648 Q 538 703 553 784 Q 556 803 540 814 Q 503 839 486 842 Q 473 846 454 837 Q 444 827 453 816 Q 459 803 467 791 Q 483 760 484 716 Q 484 679 484 637 L 484 591 Q 483 545 482 490 L 481 445 Q 480 400 478 351 L 477 313 Q 465 1 493 -41 Q 499 -48 507 -46 Q 525 -37 531 30 Q 540 135 536 321 L 535 357 Z" fill="black" /></g></svg>