<?xml version='1.0' encoding='utf-8'?>
<svg xmlns="http://www.w3.org/2000/svg" version="1.1" viewBox="0 0 1024 1024"><g transform="scale(1, -1) translate(0, -900)"><path d="M 252 97 Q 239 55 265 -2 Q 271 -20 279 -23 Q 285 -29 292 -21 Q 299 -17 310 3 Q 320 28 319 58 Q 319 100 326 414 L 327 444 Q 327 484 329 526 L 330 569 Q 330 585 333 636 L 339 685 Q 343 719 353 746 Q 362 761 359 774 Q 352 784 298 817 Q 276 835 255 819 Q 251 815 256 799 Q 289 751 289 670 L 289 626 Q 289 593 289 555 L 287 516 Q 286 476 284 434 L 283 405 Q 280 329 279 246 Q 273 168 252 97 Z" fill="black" /></g></svg>