<?xml version='1.0' encoding='utf-8'?>
<svg xmlns="http://www.w3.org/2000/svg" version="1.1" viewBox="0 0 1024 1024"><g transform="scale(1, -1) translate(0, -900)"><path d="M 603 96 Q 615 139 616 212 Q 616 227 616 245 L 616 276 Q 617 333 618 414 L 619 439 Q 619 496 621 562 L 622 590 Q 623 654 637 697 Q 644 710 642 724 Q 636 733 583 765 Q 561 781 542 766 Q 538 762 543 747 Q 568 710 570 670 Q 571 613 573 549 Q 572 437 570 314 Q 567 253 551 196 Q 542 169 568 93 C 577 64 596 67 603 96 Z" fill="black" /></g></svg>