<?xml version='1.0' encoding='utf-8'?>
<svg xmlns="http://www.w3.org/2000/svg" version="1.1" viewBox="0 0 1024 1024"><g transform="scale(1, -1) translate(0, -900)"><path d="M 695 419 Q 695 453 695 497 L 696 540 Q 696 574 697 612 L 698 660 Q 698 720 711 777 Q 714 793 700 803 Q 669 824 655 826 Q 643 830 628 822 Q 619 815 626 805 Q 650 760 652 689 Q 651 670 651 647 L 651 602 Q 650 566 649 526 L 649 486 Q 648 450 646 410 L 646 376 Q 631 142 658 99 Q 664 92 671 94 Q 684 103 691 159 Q 700 252 695 388 L 695 419 Z" fill="black" /></g></svg>