<?xml version='1.0' encoding='utf-8'?>
<svg xmlns="http://www.w3.org/2000/svg" version="1.1" viewBox="0 0 1024 1024"><g transform="scale(1, -1) translate(0, -900)"><path d="M 302 245 L 303 245 Q 348 203 366 173 Q 372 163 382 168 Q 406 184 429 278 Q 441 353 462 373 Q 475 392 469 399 Q 462 411 414 439 Q 396 451 354 435 Q 312 426 299 421 L 251 411 Q 184 398 155 385 Q 124 375 99 370 Q 78 366 75 356 Q 74 349 90 342 Q 121 326 150 339 Q 205 369 250 376 L 299 388 Q 330 397 367 402 Q 383 405 391 399 Q 398 395 397 383 Q 381 275 371 261 Q 364 249 351 254 Q 332 255 310 258 Q 306 259 302 258 C 286 259 286 259 302 245 Z" fill="black" /></g></svg>