<?xml version='1.0' encoding='utf-8'?>
<svg xmlns="http://www.w3.org/2000/svg" version="1.1" viewBox="0 0 1024 1024"><g transform="scale(1, -1) translate(0, -900)"><path d="M 710 121 Q 747 46 813 -17 Q 868 -69 898 -71 Q 919 -68 914 -39 Q 910 6 918 137 Q 919 162 911 163 Q 905 163 869 81 Q 851 42 820 66 Q 814 72 808 77 Q 774 117 745 165 L 720 212 Q 689 287 655 477 L 648 530 Q 633 663 650 747 Q 665 786 612 809 Q 579 825 559 819 Q 540 815 548 794 Q 591 752 589 720 Q 596 611 607 521 L 613 474 Q 635 299 690 167 L 710 121 Z" fill="black" /></g></svg>