<?xml version='1.0' encoding='utf-8'?>
<svg xmlns="http://www.w3.org/2000/svg" version="1.1" viewBox="0 0 1024 1024"><g transform="scale(1, -1) translate(0, -900)"><path d="M 563 16 Q 591 -21 612 -55 Q 622 -74 632 -73 Q 648 -72 665 -38 Q 683 -1 680 46 Q 673 122 667 261 Q 666 292 682 314 Q 692 327 682 337 Q 664 356 612 380 Q 594 389 579 380 Q 513 350 385 329 C 355 324 370 290 399 296 Q 582 332 592 329 Q 595 328 599 325 Q 626 298 608 50 Q 604 37 594 37 C 573 16 559 22 563 16 Z" fill="black" /></g></svg>