<?xml version='1.0' encoding='utf-8'?>
<svg xmlns="http://www.w3.org/2000/svg" version="1.1" viewBox="0 0 1024 1024"><g transform="scale(1, -1) translate(0, -900)"><path d="M 637 561 Q 582 510 477 483 Q 464 479 474 471 Q 478 467 517 469 Q 607 478 676 537 L 712 575 Q 740 614 768 670 Q 781 698 800 715 Q 819 730 806 743 Q 794 755 764 766 Q 742 775 715 762 Q 688 749 653 737 Q 619 724 558 714 Q 545 713 540 705 Q 536 698 555 691 Q 592 679 639 696 Q 688 718 698 719 Q 717 718 712 698 Q 696 637 667 594 Q 666 594 667 593 L 637 561 Z" fill="black" /></g></svg>