<?xml version='1.0' encoding='utf-8'?>
<svg xmlns="http://www.w3.org/2000/svg" version="1.1" viewBox="0 0 1024 1024"><g transform="scale(1, -1) translate(0, -900)"><path d="M 695 388 Q 803 413 820 400 Q 826 396 824 384 Q 806 287 797 273 Q 790 263 777 267 Q 750 274 722 282 Q 697 286 714 269 Q 766 220 788 186 Q 792 176 803 180 Q 830 195 863 319 Q 872 356 888 372 Q 901 390 896 397 Q 889 409 845 437 Q 830 449 788 436 Q 740 430 695 419 L 646 410 Q 603 403 580 394 Q 546 384 520 380 Q 501 376 497 368 Q 496 362 510 354 Q 540 338 567 349 Q 594 362 646 376 L 695 388 Z" fill="black" /></g></svg>