<?xml version='1.0' encoding='utf-8'?>
<svg xmlns="http://www.w3.org/2000/svg" version="1.1" viewBox="0 0 1024 1024"><g transform="scale(1, -1) translate(0, -900)"><path d="M 814 195 Q 815 186 823 176 Q 836 149 846 150 Q 859 151 874 184 Q 887 209 886 229 Q 873 308 871 434 Q 870 471 889 502 Q 899 518 891 527 Q 864 549 818 568 Q 802 572 780 564 Q 699 528 571 515 C 541 512 563 483 593 487 Q 599 487 606 488 Q 700 513 768 525 Q 792 529 800 517 Q 815 499 816 435 Q 823 263 816 223 L 814 195 Z" fill="black" /></g></svg>