<?xml version='1.0' encoding='utf-8'?>
<svg xmlns="http://www.w3.org/2000/svg" version="1.1" viewBox="0 0 1024 1024"><g transform="scale(1, -1) translate(0, -900)"><path d="M 264 558 Q 265 640 269 655 Q 273 674 260 683 Q 248 695 202 707 Q 186 710 179 704 Q 172 697 183 678 Q 213 636 216 531 Q 216 351 162 279 Q 156 275 152 268 Q 139 255 147 233 Q 156 203 171 189 Q 184 179 198 194 Q 250 254 409 374 Q 425 384 428 394 Q 431 400 424 400 Q 412 399 279 329 Q 269 325 264 328 Q 258 331 259 347 Q 260 458 263 529 L 264 558 Z" fill="black" /></g></svg>