<?xml version='1.0' encoding='utf-8'?>
<svg xmlns="http://www.w3.org/2000/svg" version="1.1" viewBox="0 0 1024 1024"><g transform="scale(1, -1) translate(0, -900)"><path d="M 253 685 Q 254 681 259 674 Q 284 634 283 589 Q 293 352 283 229 Q 282 208 271 200 Q 262 193 248 197 Q 209 206 171 215 Q 158 218 159 210 Q 160 203 171 195 Q 253 128 280 88 Q 296 70 312 85 Q 348 122 347 196 Q 343 242 338 548 Q 337 599 349 633 Q 358 652 340 666 Q 318 685 291 695 C 264 707 238 711 253 685 Z" fill="black" /></g></svg>