<?xml version='1.0' encoding='utf-8'?>
<svg xmlns="http://www.w3.org/2000/svg" version="1.1" viewBox="0 0 1024 1024"><g transform="scale(1, -1) translate(0, -900)"><path d="M 759 248 Q 760 241 767 231 Q 780 201 790 202 Q 805 203 821 236 Q 836 263 834 284 Q 824 366 826 494 Q 826 531 846 563 Q 856 579 849 588 Q 822 612 775 632 Q 759 636 737 629 Q 710 619 589 589 L 560 584 Q 542 583 526 580 C 496 576 510 546 540 551 Q 544 551 550 552 Q 649 577 720 590 Q 745 594 753 582 Q 769 563 768 497 Q 769 319 760 279 L 759 248 Z" fill="black" /></g></svg>