<?xml version='1.0' encoding='utf-8'?>
<svg xmlns="http://www.w3.org/2000/svg" version="1.1" viewBox="0 0 1024 1024"><g transform="scale(1, -1) translate(0, -900)"><path d="M 787 245 Q 788 236 795 227 Q 808 197 818 198 Q 833 199 849 232 Q 864 259 862 280 Q 834 517 874 579 Q 884 595 877 604 Q 849 628 802 647 Q 787 653 764 644 Q 721 623 661 611 Q 642 607 627 603 L 595 597 Q 582 596 569 593 C 539 588 552 556 581 564 Q 580 565 583 565 Q 679 590 749 605 Q 773 611 782 598 Q 798 577 797 508 Q 798 322 789 277 L 787 245 Z" fill="black" /></g></svg>