<?xml version='1.0' encoding='utf-8'?>
<svg xmlns="http://www.w3.org/2000/svg" version="1.1" viewBox="0 0 1024 1024"><g transform="scale(1, -1) translate(0, -900)"><path d="M 729 753 Q 751 757 788 769 Q 801 772 806 767 Q 810 760 792 735 Q 774 701 757 676 Q 747 658 761 645 Q 831 572 837 542 Q 844 520 816 525 Q 794 528 775 531 Q 762 534 760 530 Q 759 526 772 520 Q 832 475 845 461 Q 858 451 874 456 Q 890 463 898 486 Q 907 514 899 542 Q 890 570 803 639 Q 784 651 782 662 Q 781 674 799 691 Q 844 734 882 761 Q 897 770 894 782 Q 890 792 839 818 Q 824 825 809 815 Q 764 791 721 775 C 693 764 700 747 729 753 Z" fill="black" /></g></svg>