<?xml version='1.0' encoding='utf-8'?>
<svg xmlns="http://www.w3.org/2000/svg" version="1.1" viewBox="0 0 1024 1024"><g transform="scale(1, -1) translate(0, -900)"><path d="M 526 580 Q 517 589 495 596 Q 486 600 476 596 Q 469 592 475 581 Q 476 574 480 566 Q 492 541 493 340 Q 480 246 494 223 Q 500 213 507 205 Q 517 192 526 204 Q 532 214 535 223 L 538 254 Q 539 272 539 296 Q 538 324 538 347 L 538 373 Q 538 416 538 446 L 538 474 Q 538 544 540 551 C 542 569 542 569 526 580 Z" fill="black" /></g></svg>