<?xml version='1.0' encoding='utf-8'?>
<svg xmlns="http://www.w3.org/2000/svg" version="1.1" viewBox="0 0 1024 1024"><g transform="scale(1, -1) translate(0, -900)"><path d="M 578 -12 Q 606 -49 626 -84 Q 633 -100 645 -101 Q 660 -100 676 -69 Q 694 -32 685 69 Q 676 162 696 185 Q 705 197 697 206 Q 681 225 633 248 Q 617 257 602 249 Q 539 222 385 201 C 355 197 369 170 399 174 Q 466 183 576 205 Q 604 209 617 199 Q 629 187 626 61 Q 626 27 623 16 Q 619 0 608 4 C 583 -12 576 -10 578 -12 Z" fill="black" /></g></svg>