<?xml version='1.0' encoding='utf-8'?>
<svg xmlns="http://www.w3.org/2000/svg" version="1.1" viewBox="0 0 1024 1024"><g transform="scale(1, -1) translate(0, -900)"><path d="M 751 241 Q 752 232 759 223 Q 772 193 782 194 Q 797 195 813 228 Q 828 255 826 276 Q 799 487 838 551 Q 848 567 841 576 Q 813 600 766 619 Q 750 623 728 615 Q 689 597 578 570 L 548 565 Q 527 564 512 560 C 483 555 509 524 538 532 Q 539 533 543 533 Q 640 561 712 576 Q 737 583 746 570 Q 761 551 760 486 Q 761 308 753 270 L 751 241 Z" fill="black" /></g></svg>