<?xml version='1.0' encoding='utf-8'?>
<svg xmlns="http://www.w3.org/2000/svg" version="1.1" viewBox="0 0 1024 1024"><g transform="scale(1, -1) translate(0, -900)"><path d="M 765 243 Q 766 231 774 218 Q 789 190 798 190 Q 813 191 828 225 Q 844 250 841 272 Q 810 510 851 575 Q 861 591 853 601 Q 825 623 777 642 Q 762 646 739 638 Q 688 613 572 587 L 554 584 Q 544 583 534 581 C 504 577 521 546 550 553 Q 554 553 559 554 Q 655 584 724 599 Q 749 606 758 593 Q 774 572 774 502 Q 777 312 768 268 L 765 243 Z" fill="black" /></g></svg>