<?xml version='1.0' encoding='utf-8'?>
<svg xmlns="http://www.w3.org/2000/svg" version="1.1" viewBox="0 0 1024 1024"><g transform="scale(1, -1) translate(0, -900)"><path d="M 562 591 Q 559 592 557 594 Q 530 612 516 605 Q 509 601 514 589 Q 529 547 533 440 Q 526 319 522 303 Q 509 252 543 213 Q 553 200 562 212 Q 569 222 572 234 L 574 268 Q 575 284 575 304 Q 575 326 575 347 L 575 375 Q 575 420 576 452 L 576 477 Q 577 541 579 548 Q 580 558 580 564 C 581 579 581 579 562 591 Z" fill="black" /></g></svg>