<?xml version='1.0' encoding='utf-8'?>
<svg xmlns="http://www.w3.org/2000/svg" version="1.1" viewBox="0 0 1024 1024"><g transform="scale(1, -1) translate(0, -900)"><path d="M 782 255 Q 782 240 792 225 Q 805 197 814 198 Q 827 199 843 231 Q 856 256 855 276 Q 843 361 844 493 Q 843 532 864 565 Q 874 581 867 590 Q 839 614 792 633 Q 776 637 753 629 Q 732 620 627 590 L 600 585 Q 584 584 570 580 C 541 574 553 549 583 551 Q 592 550 601 552 Q 763 598 775 582 Q 791 563 791 495 Q 795 330 787 280 L 782 255 Z" fill="black" /></g></svg>