<?xml version='1.0' encoding='utf-8'?>
<svg xmlns="http://www.w3.org/2000/svg" version="1.1" viewBox="0 0 1024 1024"><g transform="scale(1, -1) translate(0, -900)"><path d="M 398 350 Q 317 320 233 280 Q 226 274 221 277 Q 218 281 225 294 Q 340 481 366 513 Q 379 525 371 539 Q 364 552 309 574 Q 290 581 279 576 Q 266 569 274 546 Q 295 488 200 336 Q 179 296 129 254 Q 116 239 121 228 Q 128 210 158 191 Q 171 181 184 194 Q 223 237 399 319 Q 406 323 411 326 C 437 340 426 361 398 350 Z" fill="black" /></g></svg>