<?xml version='1.0' encoding='utf-8'?>
<svg xmlns="http://www.w3.org/2000/svg" version="1.1" viewBox="0 0 1024 1024"><g transform="scale(1, -1) translate(0, -900)"><path d="M 239 419 Q 254 425 296 449 Q 323 461 332 453 Q 342 446 335 420 Q 335 386 333 352 Q 332 255 305 165 Q 289 135 330 89 Q 340 77 349 84 Q 356 91 367 113 Q 403 161 477 244 Q 489 254 486 262 Q 485 269 474 261 Q 437 236 401 206 Q 361 172 367 223 Q 366 278 385 413 Q 389 435 411 458 Q 423 467 413 479 Q 403 495 367 511 Q 357 517 340 507 Q 283 477 216 460 C 187 452 212 406 239 419 Z" fill="black" /></g></svg>