<?xml version='1.0' encoding='utf-8'?>
<svg xmlns="http://www.w3.org/2000/svg" version="1.1" viewBox="0 0 1024 1024"><g transform="scale(1, -1) translate(0, -900)"><path d="M 557 575 Q 550 582 532 589 Q 523 593 513 590 Q 507 586 512 574 Q 513 567 517 560 Q 541 515 525 338 Q 513 248 513 247 Q 513 226 535 201 Q 545 189 554 200 Q 560 209 563 218 L 566 251 Q 567 272 568 342 L 568 369 Q 569 418 570 451 L 570 473 Q 571 528 573 535 Q 574 542 574 547 C 575 562 575 562 557 575 Z" fill="black" /></g></svg>