<?xml version='1.0' encoding='utf-8'?>
<svg xmlns="http://www.w3.org/2000/svg" version="1.1" viewBox="0 0 1024 1024"><g transform="scale(1, -1) translate(0, -900)"><path d="M 556 581 Q 549 588 527 596 Q 518 600 508 596 Q 501 592 507 581 Q 507 578 508 575 L 508 574 Q 507 571 512 566 Q 536 524 524 338 Q 512 265 517 247 Q 526 223 539 209 Q 549 196 558 208 Q 562 215 565 222 L 570 258 Q 571 274 570 299 Q 570 324 570 346 L 570 372 Q 570 424 570 458 L 570 482 Q 570 518 572 553 C 573 570 573 570 556 581 Z" fill="black" /></g></svg>