<?xml version='1.0' encoding='utf-8'?>
<svg xmlns="http://www.w3.org/2000/svg" version="1.1" viewBox="0 0 1024 1024"><g transform="scale(1, -1) translate(0, -900)"><path d="M 785 235 Q 786 228 793 219 Q 808 188 818 190 Q 833 191 849 227 Q 865 255 863 276 Q 850 360 850 488 Q 849 525 869 558 Q 879 574 872 584 Q 844 608 796 628 Q 780 632 756 624 Q 714 605 658 593 Q 640 590 626 586 L 592 580 Q 573 579 557 575 C 527 570 544 542 574 547 Q 580 547 586 548 Q 760 594 772 577 Q 788 558 788 491 Q 794 313 785 271 L 785 235 Z" fill="black" /></g></svg>