<?xml version='1.0' encoding='utf-8'?>
<svg xmlns="http://www.w3.org/2000/svg" version="1.1" viewBox="0 0 1024 1024"><g transform="scale(1, -1) translate(0, -900)"><path d="M 549 565 Q 549 566 548 566 Q 541 573 528 577 Q 519 581 509 578 Q 503 574 508 562 Q 509 555 513 549 Q 532 509 520 341 Q 508 263 510 253 Q 517 229 531 213 Q 541 201 550 212 Q 554 219 557 225 L 562 260 Q 562 270 563 338 L 563 357 Q 564 403 565 436 L 566 455 Q 567 516 569 523 Q 570 530 570 534 C 571 548 571 548 549 565 Z" fill="black" /></g></svg>