<?xml version='1.0' encoding='utf-8'?>
<svg xmlns="http://www.w3.org/2000/svg" version="1.1" viewBox="0 0 1024 1024"><g transform="scale(1, -1) translate(0, -900)"><path d="M 275 410 Q 327 429 379 441 Q 388 442 391 438 Q 395 428 393 396 Q 383 282 360 223 Q 348 186 336 174 Q 324 161 297 167 Q 275 170 254 174 Q 232 178 249 160 Q 283 121 302 91 Q 309 75 326 79 Q 341 80 360 100 Q 415 152 445 357 Q 452 403 471 429 Q 486 447 477 456 Q 464 472 434 485 Q 410 495 353 469 Q 257 432 196 425 Q 181 425 182 417 Q 182 410 200 401 Q 219 389 238 396 L 275 410 Z" fill="black" /></g></svg>