<?xml version='1.0' encoding='utf-8'?>
<svg xmlns="http://www.w3.org/2000/svg" version="1.1" viewBox="0 0 1024 1024"><g transform="scale(1, -1) translate(0, -900)"><path d="M 791 249 Q 792 239 801 227 Q 816 196 826 198 Q 841 199 857 235 Q 873 263 870 285 Q 857 369 855 500 Q 854 537 874 571 Q 884 587 876 597 Q 848 619 799 639 Q 783 645 760 635 Q 714 613 653 600 Q 638 597 625 593 L 597 588 Q 575 585 556 581 C 527 575 543 545 572 553 Q 669 581 742 595 Q 767 602 776 588 Q 792 569 794 502 Q 801 318 793 277 L 791 249 Z" fill="black" /></g></svg>