<?xml version='1.0' encoding='utf-8'?>
<svg xmlns="http://www.w3.org/2000/svg" version="1.1" viewBox="0 0 1024 1024"><g transform="scale(1, -1) translate(0, -900)"><path d="M 389 265 Q 410 304 424 353 Q 433 389 458 413 Q 474 429 459 440 Q 440 452 414 457 Q 390 464 344 439 L 305 425 Q 221 407 221 405 Q 218 396 238 385 Q 260 372 311 392 Q 362 417 369 417 Q 376 417 376 400 Q 367 337 346 291 L 328 253 Q 283 181 189 124 Q 176 117 184 112 Q 190 109 210 118 Q 315 157 361 221 L 389 265 Z" fill="black" /></g></svg>