<?xml version='1.0' encoding='utf-8'?>
<svg xmlns="http://www.w3.org/2000/svg" version="1.1" viewBox="0 0 1024 1024"><g transform="scale(1, -1) translate(0, -900)"><path d="M 786 267 Q 787 254 796 241 Q 809 213 818 214 Q 831 215 847 247 Q 860 272 859 292 Q 849 365 851 476 Q 850 509 868 537 Q 878 552 871 562 Q 795 625 744 595 Q 710 583 668 574 Q 658 573 647 569 L 612 564 Q 596 563 580 559 C 551 553 559 526 589 530 Q 595 530 602 531 Q 687 552 750 562 Q 772 566 779 554 Q 792 538 793 480 Q 797 330 790 290 L 786 267 Z" fill="black" /></g></svg>