<?xml version='1.0' encoding='utf-8'?>
<svg xmlns="http://www.w3.org/2000/svg" version="1.1" viewBox="0 0 1024 1024"><g transform="scale(1, -1) translate(0, -900)"><path d="M 555 528 Q 543 540 520 549 Q 511 553 501 550 Q 495 546 500 534 Q 501 528 504 522 Q 503 519 508 514 Q 526 453 510 295 Q 491 219 523 181 Q 533 169 542 180 Q 549 190 551 202 L 554 234 Q 554 243 555 311 L 555 333 Q 556 373 557 402 L 558 426 Q 559 489 561 495 Q 561 498 561 499 C 563 521 563 521 555 528 Z" fill="black" /></g></svg>