<?xml version='1.0' encoding='utf-8'?>
<svg xmlns="http://www.w3.org/2000/svg" version="1.1" viewBox="0 0 1024 1024"><g transform="scale(1, -1) translate(0, -900)"><path d="M 176 732 Q 166 739 144 751 Q 125 761 117 754 Q 110 747 118 733 Q 160 652 132 289 Q 132 252 112 218 Q 103 203 112 184 Q 121 165 131 157 Q 141 150 156 163 Q 229 226 465 254 Q 487 255 488 267 Q 487 280 457 297 Q 441 307 411 297 Q 374 287 342 278 L 302 268 Q 253 259 199 241 Q 190 238 185 241 Q 181 242 179 256 Q 183 422 183 633 Q 183 675 188 707 C 190 724 190 724 176 732 Z" fill="black" /></g></svg>