<?xml version='1.0' encoding='utf-8'?>
<svg xmlns="http://www.w3.org/2000/svg" version="1.1" viewBox="0 0 1024 1024"><g transform="scale(1, -1) translate(0, -900)"><path d="M 428 620 Q 421 580 399 542 Q 392 529 396 518 Q 399 508 415 499 Q 445 477 471 451 Q 487 436 501 437 Q 513 440 514 461 Q 514 483 501 497 Q 494 506 459 510 Q 440 513 432 524 Q 425 533 436 547 Q 448 560 467 591 Q 483 616 496 628 Q 509 638 501 654 Q 485 685 460 696 Q 447 703 435 699 Q 425 696 432 679 Q 442 657 428 620 Z" fill="black" /></g></svg>