<?xml version='1.0' encoding='utf-8'?>
<svg xmlns="http://www.w3.org/2000/svg" version="1.1" viewBox="0 0 1024 1024"><g transform="scale(1, -1) translate(0, -900)"><path d="M 304 626 Q 300 572 269 525 Q 262 516 261 508 Q 261 498 283 483 Q 302 470 328 440 Q 341 422 351 426 Q 364 427 369 444 Q 373 466 367 480 Q 358 498 305 507 Q 290 510 298 524 Q 302 534 328 569 Q 352 603 362 612 Q 372 616 373 623 Q 376 639 353 657 Q 334 675 317 678 Q 301 679 295 672 Q 294 668 298 660 Q 308 648 304 626 Z" fill="black" /></g></svg>