<?xml version='1.0' encoding='utf-8'?>
<svg xmlns="http://www.w3.org/2000/svg" version="1.1" viewBox="0 0 1024 1024"><g transform="scale(1, -1) translate(0, -900)"><path d="M 576 586 Q 569 593 556 597 Q 547 601 537 597 Q 531 593 536 582 Q 537 575 542 567 Q 566 522 552 336 Q 549 312 543 283 Q 531 235 563 197 Q 573 185 582 196 Q 586 203 589 211 L 593 243 Q 594 268 595 346 L 595 370 Q 595 418 595 451 L 596 476 Q 596 537 598 543 Q 599 555 598 561 C 598 571 598 571 576 586 Z" fill="black" /></g></svg>