<?xml version='1.0' encoding='utf-8'?>
<svg xmlns="http://www.w3.org/2000/svg" version="1.1" viewBox="0 0 1024 1024"><g transform="scale(1, -1) translate(0, -900)"><path d="M 785 233 Q 786 220 795 207 Q 808 177 818 178 Q 833 179 849 212 Q 864 239 862 260 Q 850 351 852 491 Q 852 531 874 567 Q 884 582 877 591 Q 805 654 753 623 Q 696 605 652 597 L 617 591 Q 596 590 576 586 C 546 581 569 554 598 561 Q 686 583 752 594 Q 774 598 782 587 Q 798 565 798 494 Q 799 299 788 255 L 785 233 Z" fill="black" /></g></svg>