<?xml version='1.0' encoding='utf-8'?>
<svg xmlns="http://www.w3.org/2000/svg" version="1.1" viewBox="0 0 1024 1024"><g transform="scale(1, -1) translate(0, -900)"><path d="M 378 321 Q 382 339 370 349 Q 348 373 331 376 Q 321 379 315 374 Q 305 368 315 356 Q 331 323 330 295 Q 330 195 322 163 Q 321 135 310 119 Q 300 100 310 80 Q 323 52 339 43 Q 349 36 359 55 Q 383 103 468 228 Q 480 244 480 251 Q 479 264 462 249 Q 423 212 380 169 Q 373 162 370 163 Q 366 164 364 171 Q 371 291 378 321 Z" fill="black" /></g></svg>