<?xml version='1.0' encoding='utf-8'?>
<svg xmlns="http://www.w3.org/2000/svg" version="1.1" viewBox="0 0 1024 1024"><g transform="scale(1, -1) translate(0, -900)"><path d="M 314 297 Q 323 345 337 631 L 338 677 Q 338 678 339 680 Q 339 719 362 784 Q 369 797 359 808 Q 338 824 302 835 Q 278 841 271 834 Q 262 828 269 817 Q 291 783 293 739 L 295 661 L 295 619 Q 295 279 203 163 Q 163 115 87 66 Q 77 59 76 54 Q 77 50 88 51 Q 104 47 141 63 Q 267 111 307 267 Q 307 270 308 271 L 314 297 Z" fill="black" /></g></svg>