<?xml version='1.0' encoding='utf-8'?>
<svg xmlns="http://www.w3.org/2000/svg" version="1.1" viewBox="0 0 1024 1024"><g transform="scale(1, -1) translate(0, -900)"><path d="M 191 616 Q 176 544 142 502 Q 133 493 133 485 Q 133 475 155 459 Q 174 443 204 409 Q 216 391 226 394 Q 239 395 245 412 Q 251 434 244 448 Q 234 469 177 480 Q 165 484 171 501 Q 175 513 206 551 Q 236 588 248 599 Q 258 603 259 610 Q 263 625 241 645 Q 222 664 206 667 Q 190 668 184 663 Q 181 659 187 651 Q 194 638 191 616 Z" fill="black" /></g></svg>