<?xml version='1.0' encoding='utf-8'?>
<svg xmlns="http://www.w3.org/2000/svg" version="1.1" viewBox="0 0 1024 1024"><g transform="scale(1, -1) translate(0, -900)"><path d="M 768 253 Q 769 240 778 226 Q 793 198 802 198 Q 817 199 832 233 Q 847 260 845 280 Q 832 365 831 497 Q 830 534 851 568 Q 861 583 853 592 Q 828 614 782 632 Q 767 636 746 629 Q 728 620 622 591 L 585 585 Q 573 584 564 582 C 534 578 558 547 586 557 Q 592 563 731 592 Q 752 596 759 586 Q 775 567 775 499 Q 779 321 772 276 L 768 253 Z" fill="black" /></g></svg>