<?xml version='1.0' encoding='utf-8'?>
<svg xmlns="http://www.w3.org/2000/svg" version="1.1" viewBox="0 0 1024 1024"><g transform="scale(1, -1) translate(0, -900)"><path d="M 778 228 Q 777 213 787 199 Q 800 169 810 170 Q 825 171 841 204 Q 856 231 854 252 Q 844 330 847 450 Q 847 484 866 515 Q 876 531 869 540 Q 842 564 795 584 Q 779 590 757 581 Q 732 569 620 543 L 585 537 Q 576 537 568 535 C 538 531 549 504 579 507 Q 586 507 594 508 Q 762 551 773 534 Q 788 516 787 454 Q 788 286 781 247 L 778 228 Z" fill="black" /></g></svg>