<?xml version='1.0' encoding='utf-8'?>
<svg xmlns="http://www.w3.org/2000/svg" version="1.1" viewBox="0 0 1024 1024"><g transform="scale(1, -1) translate(0, -900)"><path d="M 787 232 Q 788 225 794 218 Q 809 190 818 190 Q 833 191 848 225 Q 864 250 861 272 Q 833 494 871 551 Q 881 566 873 575 Q 807 632 751 609 Q 741 606 640 580 L 615 576 Q 599 576 585 573 C 555 569 569 544 599 547 Q 606 547 614 548 Q 693 567 752 577 Q 771 581 778 570 Q 794 551 794 486 Q 798 299 788 264 Q 787 264 787 263 L 787 232 Z" fill="black" /></g></svg>