<?xml version='1.0' encoding='utf-8'?>
<svg xmlns="http://www.w3.org/2000/svg" version="1.1" viewBox="0 0 1024 1024"><g transform="scale(1, -1) translate(0, -900)"><path d="M 781 266 Q 782 262 787 255 Q 800 225 810 226 Q 825 227 841 260 Q 856 287 854 308 Q 830 510 866 563 Q 876 579 869 589 Q 841 613 792 633 Q 776 637 753 629 Q 716 611 665 599 Q 664 599 662 598 L 628 589 Q 603 586 581 582 C 551 577 563 547 593 551 Q 600 551 609 553 Q 762 596 773 582 Q 786 564 787 504 Q 788 345 782 305 L 781 266 Z" fill="black" /></g></svg>