<?xml version='1.0' encoding='utf-8'?>
<svg xmlns="http://www.w3.org/2000/svg" version="1.1" viewBox="0 0 1024 1024"><g transform="scale(1, -1) translate(0, -900)"><path d="M 815 245 Q 816 235 824 225 Q 837 197 846 198 Q 859 199 875 231 Q 888 256 887 276 Q 877 352 878 472 Q 877 506 896 537 Q 906 552 899 561 Q 872 583 828 602 Q 813 608 792 599 Q 762 587 670 565 L 644 560 Q 626 559 609 556 C 579 552 598 517 626 527 Q 648 539 779 561 Q 801 565 808 554 Q 821 536 822 475 Q 826 301 817 268 L 815 245 Z" fill="black" /></g></svg>