<?xml version='1.0' encoding='utf-8'?>
<svg xmlns="http://www.w3.org/2000/svg" version="1.1" viewBox="0 0 1024 1024"><g transform="scale(1, -1) translate(0, -900)"><path d="M 352 325 Q 433 349 449 335 Q 462 331 465 310 Q 469 261 459 169 Q 460 145 438 146 Q 416 145 397 145 Q 384 145 387 138 Q 390 129 416 116 Q 444 94 461 71 Q 471 62 481 68 Q 488 72 499 99 Q 514 130 514 216 Q 507 319 520 337 Q 527 347 521 357 Q 511 366 475 379 Q 466 382 403 364 Q 384 363 289 337 L 258 328 Q 255 329 254 328 Q 199 315 161 306 C 132 299 143 270 172 277 Q 182 276 193 283 Q 205 287 223 293 L 248 300 Q 278 310 320 318 L 352 325 Z" fill="black" /></g></svg>