<?xml version='1.0' encoding='utf-8'?>
<svg xmlns="http://www.w3.org/2000/svg" version="1.1" viewBox="0 0 1024 1024"><g transform="scale(1, -1) translate(0, -900)"><path d="M 799 267 Q 800 258 807 249 Q 820 221 830 222 Q 843 223 858 255 Q 873 280 871 300 Q 859 376 859 497 Q 858 531 877 561 Q 887 577 879 586 Q 852 610 807 629 Q 791 633 769 626 Q 729 608 674 598 Q 670 598 668 596 L 633 590 Q 608 589 585 584 C 555 579 573 547 602 554 Q 603 555 606 555 Q 694 576 758 585 Q 780 589 787 578 Q 802 560 803 499 Q 809 325 801 292 Q 800 292 800 291 L 799 267 Z" fill="black" /></g></svg>