<?xml version='1.0' encoding='utf-8'?>
<svg xmlns="http://www.w3.org/2000/svg" version="1.1" viewBox="0 0 1024 1024"><g transform="scale(1, -1) translate(0, -900)"><path d="M 773 214 Q 774 210 779 203 Q 792 173 802 174 Q 817 175 833 208 Q 848 235 846 256 Q 819 467 858 531 Q 868 547 861 557 Q 833 581 785 602 Q 769 606 746 598 Q 706 580 652 569 Q 645 568 639 566 L 600 558 Q 578 557 559 553 C 529 548 547 518 577 523 Q 581 523 588 524 Q 751 567 765 550 Q 780 531 780 466 Q 781 295 774 253 L 773 214 Z" fill="black" /></g></svg>