<?xml version='1.0' encoding='utf-8'?>
<svg xmlns="http://www.w3.org/2000/svg" version="1.1" viewBox="0 0 1024 1024"><g transform="scale(1, -1) translate(0, -900)"><path d="M 264 391 Q 273 364 238 309 Q 228 296 203 278 Q 187 266 189 253 Q 190 240 205 225 Q 215 215 230 221 Q 261 246 318 270 Q 351 283 370 275 Q 389 262 385 230 Q 373 148 331 86 Q 316 67 303 62 Q 288 61 227 87 Q 214 97 211 90 Q 210 84 219 72 Q 249 27 267 -10 Q 274 -23 285 -24 Q 301 -27 321 -17 Q 394 44 435 207 Q 439 240 453 256 Q 463 266 454 280 Q 441 293 402 312 Q 384 321 363 315 Q 336 303 290 287 Q 274 284 282 300 Q 312 352 324 363 Q 337 376 327 390 Q 320 397 309 402 C 285 420 263 421 264 391 Z" fill="black" /></g></svg>