<?xml version='1.0' encoding='utf-8'?>
<svg xmlns="http://www.w3.org/2000/svg" version="1.1" viewBox="0 0 1024 1024"><g transform="scale(1, -1) translate(0, -900)"><path d="M 812 235 Q 813 225 820 213 Q 833 185 842 186 Q 855 187 871 219 Q 886 244 884 264 Q 857 474 896 536 Q 906 552 899 562 Q 872 587 824 609 Q 808 615 785 607 Q 743 591 688 581 Q 669 578 650 574 L 614 570 Q 607 570 602 568 C 572 564 586 527 615 536 Q 636 546 776 563 Q 798 567 806 555 Q 821 536 821 472 Q 822 313 816 267 L 812 235 Z" fill="black" /></g></svg>