<?xml version='1.0' encoding='utf-8'?>
<svg xmlns="http://www.w3.org/2000/svg" version="1.1" viewBox="0 0 1024 1024"><g transform="scale(1, -1) translate(0, -900)"><path d="M 252 697 Q 252 731 258 775 Q 261 790 251 797 Q 239 807 220 813 Q 210 816 203 811 Q 199 808 203 794 Q 215 763 215 732 Q 215 657 223 637 Q 227 621 245 607 Q 315 562 440 599 Q 468 609 495 632 Q 508 642 499 658 Q 490 671 478 715 Q 477 725 472 729 Q 468 732 465 720 Q 446 671 434 657 Q 425 647 399 638 Q 339 620 287 636 Q 266 643 261 656 Q 255 666 254 680 L 252 697 Z" fill="black" /></g></svg>