<?xml version='1.0' encoding='utf-8'?>
<svg xmlns="http://www.w3.org/2000/svg" version="1.1" viewBox="0 0 1024 1024"><g transform="scale(1, -1) translate(0, -900)"><path d="M 179 387 Q 185 402 171 413 Q 150 434 118 443 Q 103 447 96 438 Q 92 432 102 416 Q 121 389 122 348 Q 131 231 95 170 Q 88 157 93 147 Q 103 131 120 121 Q 132 114 144 127 Q 246 199 498 192 Q 514 189 521 194 Q 527 198 522 208 Q 518 217 488 232 Q 476 238 399 227 Q 344 227 182 189 Q 169 185 168 188 Q 158 195 161 217 Q 167 349 179 387 Z" fill="black" /></g></svg>