<?xml version='1.0' encoding='utf-8'?>
<svg xmlns="http://www.w3.org/2000/svg" version="1.1" viewBox="0 0 1024 1024"><g transform="scale(1, -1) translate(0, -900)"><path d="M 807 217 Q 808 207 815 197 Q 828 169 838 170 Q 851 171 866 203 Q 881 228 879 248 Q 866 329 866 454 Q 865 490 885 521 Q 895 537 887 546 Q 859 568 813 587 Q 798 593 776 584 Q 761 578 666 549 L 640 543 Q 619 542 602 537 C 573 531 583 504 613 508 Q 620 508 627 509 Q 784 552 796 538 Q 811 519 812 456 Q 818 275 809 240 Q 808 240 808 239 L 807 217 Z" fill="black" /></g></svg>