<?xml version='1.0' encoding='utf-8'?>
<svg xmlns="http://www.w3.org/2000/svg" version="1.1" viewBox="0 0 1024 1024"><g transform="scale(1, -1) translate(0, -900)"><path d="M 794 238 Q 795 228 803 216 Q 816 189 826 190 Q 839 191 854 224 Q 867 249 866 269 Q 835 468 869 526 Q 879 542 871 551 Q 843 573 797 591 Q 782 595 760 587 Q 742 580 639 549 L 608 543 Q 583 539 563 536 C 533 531 556 502 585 508 Q 589 508 595 509 Q 767 560 780 541 Q 793 525 796 464 Q 803 292 796 260 Q 795 259 795 257 L 794 238 Z" fill="black" /></g></svg>