<?xml version='1.0' encoding='utf-8'?>
<svg xmlns="http://www.w3.org/2000/svg" version="1.1" viewBox="0 0 1024 1024"><g transform="scale(1, -1) translate(0, -900)"><path d="M 799 259 Q 800 252 807 243 Q 820 213 830 214 Q 845 215 861 248 Q 876 275 874 296 Q 864 374 867 494 Q 867 528 886 559 Q 896 575 888 584 Q 860 606 813 626 Q 798 630 775 622 Q 754 612 654 581 L 620 573 Q 607 572 594 569 C 564 564 586 534 615 541 Q 619 541 623 542 Q 782 594 794 578 Q 807 559 808 498 Q 809 342 802 297 L 799 259 Z" fill="black" /></g></svg>