<?xml version='1.0' encoding='utf-8'?>
<svg xmlns="http://www.w3.org/2000/svg" version="1.1" viewBox="0 0 1024 1024"><g transform="scale(1, -1) translate(0, -900)"><path d="M 607 542 Q 606 543 603 542 Q 602 543 600 544 Q 593 550 582 554 Q 575 558 565 554 Q 559 550 564 540 Q 565 533 568 527 Q 589 481 578 320 Q 563 236 580 212 Q 583 206 588 200 Q 597 190 605 200 Q 611 209 613 219 L 616 247 Q 616 256 617 324 L 617 347 Q 617 384 617 412 L 618 435 Q 618 475 620 517 C 621 536 621 536 607 542 Z" fill="black" /></g></svg>