<?xml version='1.0' encoding='utf-8'?>
<svg xmlns="http://www.w3.org/2000/svg" version="1.1" viewBox="0 0 1024 1024"><g transform="scale(1, -1) translate(0, -900)"><path d="M 799 233 Q 800 223 807 213 Q 820 185 830 186 Q 843 187 858 219 Q 873 244 871 264 Q 859 343 859 464 Q 858 498 877 529 Q 886 544 879 553 Q 854 575 809 592 Q 794 596 774 588 Q 737 572 635 547 C 596 537 581 510 620 517 Q 624 517 630 518 Q 706 540 762 551 Q 781 555 788 546 Q 803 528 804 466 Q 808 304 802 262 L 799 233 Z" fill="black" /></g></svg>