<?xml version='1.0' encoding='utf-8'?>
<svg xmlns="http://www.w3.org/2000/svg" version="1.1" viewBox="0 0 1024 1024"><g transform="scale(1, -1) translate(0, -900)"><path d="M 806 222 Q 807 212 815 200 Q 828 173 838 174 Q 851 175 866 208 Q 879 233 878 253 Q 865 329 864 449 Q 863 483 881 514 Q 891 529 883 537 Q 858 559 814 577 Q 799 581 778 574 Q 766 570 655 538 L 628 533 Q 609 532 594 530 C 564 527 584 500 614 504 Q 620 504 626 505 Q 707 526 765 536 Q 786 540 792 530 Q 807 512 809 451 Q 815 288 808 248 L 806 222 Z" fill="black" /></g></svg>