<?xml version='1.0' encoding='utf-8'?>
<svg xmlns="http://www.w3.org/2000/svg" version="1.1" viewBox="0 0 1024 1024"><g transform="scale(1, -1) translate(0, -900)"><path d="M 817 235 Q 818 228 824 221 Q 837 193 846 194 Q 859 195 875 227 Q 890 252 888 272 Q 878 351 880 474 Q 880 510 900 540 Q 909 555 902 564 Q 877 586 832 603 Q 819 607 797 600 Q 760 581 711 569 Q 693 565 679 561 L 644 554 Q 628 553 614 550 C 584 545 602 523 632 525 Q 641 524 651 526 Q 799 575 812 559 Q 827 540 826 477 Q 827 299 818 265 L 817 235 Z" fill="black" /></g></svg>