<?xml version='1.0' encoding='utf-8'?>
<svg xmlns="http://www.w3.org/2000/svg" version="1.1" viewBox="0 0 1024 1024"><g transform="scale(1, -1) translate(0, -900)"><path d="M 616 276 Q 609 252 623 231 Q 636 201 646 202 Q 661 203 677 236 Q 690 263 690 284 Q 680 366 682 494 Q 682 531 702 563 Q 714 579 705 590 Q 677 615 626 637 Q 610 643 585 634 Q 519 606 450 591 L 421 586 Q 390 585 365 581 C 335 577 354 544 383 550 Q 384 551 388 551 Q 448 563 493 572 Q 587 594 608 581 Q 618 559 623 497 Q 626 311 616 276 Z" fill="black" /></g></svg>