<?xml version='1.0' encoding='utf-8'?>
<svg xmlns="http://www.w3.org/2000/svg" version="1.1" viewBox="0 0 1024 1024"><g transform="scale(1, -1) translate(0, -900)"><path d="M 795 219 Q 796 213 802 206 Q 817 178 826 178 Q 841 179 856 213 Q 872 238 869 260 Q 842 470 879 527 Q 889 543 881 552 Q 854 574 808 594 Q 793 598 771 590 Q 741 577 641 551 L 616 547 Q 600 546 585 543 C 555 538 575 507 604 516 Q 647 531 757 552 Q 779 556 786 546 Q 801 527 801 465 Q 804 290 796 253 L 795 219 Z" fill="black" /></g></svg>