<?xml version='1.0' encoding='utf-8'?>
<svg xmlns="http://www.w3.org/2000/svg" version="1.1" viewBox="0 0 1024 1024"><g transform="scale(1, -1) translate(0, -900)"><path d="M 653 241 Q 657 228 667 228 Q 679 229 686 241 Q 693 245 711 275 Q 727 320 760 343 Q 778 356 764 370 Q 749 386 707 411 Q 695 420 634 406 Q 546 393 457 378 Q 447 377 437 373 L 410 367 Q 373 363 348 360 Q 347 360 347 359 C 317 354 342 326 372 329 Q 382 329 390 331 Q 429 344 496 355 L 543 363 Q 664 384 681 373 Q 687 369 682 351 Q 666 290 654 266 C 647 249 647 249 653 241 Z" fill="black" /></g></svg>