<?xml version='1.0' encoding='utf-8'?>
<svg xmlns="http://www.w3.org/2000/svg" version="1.1" viewBox="0 0 1024 1024"><g transform="scale(1, -1) translate(0, -900)"><path d="M 594 530 Q 587 536 573 541 Q 564 545 555 541 Q 549 537 554 527 Q 555 520 559 513 Q 580 471 570 294 Q 555 221 578 188 Q 579 185 584 180 Q 593 170 601 180 Q 608 190 610 200 L 612 229 Q 613 244 613 264 Q 612 286 612 306 L 612 330 Q 612 373 612 404 L 612 429 Q 612 466 614 504 C 615 517 615 517 594 530 Z" fill="black" /></g></svg>