<?xml version='1.0' encoding='utf-8'?>
<svg xmlns="http://www.w3.org/2000/svg" version="1.1" viewBox="0 0 1024 1024"><g transform="scale(1, -1) translate(0, -900)"><path d="M 770 524 Q 771 520 774 515 Q 784 494 790 495 Q 800 496 812 518 Q 821 534 821 563 Q 814 675 832 701 Q 839 713 834 720 Q 813 739 778 754 Q 766 758 748 752 Q 727 743 648 725 L 621 721 Q 614 721 606 719 C 576 715 586 694 616 696 Q 623 696 630 697 Q 696 712 744 720 Q 760 723 766 714 Q 773 704 774 668 Q 775 577 771 552 L 770 524 Z" fill="black" /></g></svg>