<?xml version='1.0' encoding='utf-8'?>
<svg xmlns="http://www.w3.org/2000/svg" version="1.1" viewBox="0 0 1024 1024"><g transform="scale(1, -1) translate(0, -900)"><path d="M 802 195 Q 803 188 810 178 Q 825 150 834 150 Q 849 151 864 185 Q 880 210 877 232 Q 850 446 887 507 Q 897 523 889 531 Q 864 553 818 572 Q 803 576 782 569 Q 757 557 650 530 L 617 525 Q 602 524 589 522 C 559 518 591 489 620 497 Q 702 521 765 532 Q 787 538 795 526 Q 810 507 810 443 Q 813 265 804 226 L 802 195 Z" fill="black" /></g></svg>