<?xml version='1.0' encoding='utf-8'?>
<svg xmlns="http://www.w3.org/2000/svg" version="1.1" viewBox="0 0 1024 1024"><g transform="scale(1, -1) translate(0, -900)"><path d="M 753 267 Q 746 242 761 219 Q 776 188 786 190 Q 801 191 817 227 Q 833 255 830 277 Q 797 493 829 558 Q 838 588 838 590 Q 808 614 758 635 Q 742 639 719 630 Q 677 609 624 593 Q 609 590 597 586 L 579 582 Q 554 579 534 576 C 504 572 518 543 547 549 Q 634 567 723 587 Q 730 587 736 584 Q 748 560 754 497 Q 761 304 753 267 Z" fill="black" /></g></svg>