<?xml version='1.0' encoding='utf-8'?>
<svg xmlns="http://www.w3.org/2000/svg" version="1.1" viewBox="0 0 1024 1024"><g transform="scale(1, -1) translate(0, -900)"><path d="M 255 348 Q 245 212 217 177 Q 204 158 214 136 Q 227 115 246 107 Q 256 100 270 117 Q 292 148 401 245 Q 429 264 432 275 Q 435 282 429 284 Q 426 284 314 223 Q 293 207 292 233 Q 295 299 299 365 L 300 400 Q 304 493 309 588 L 312 643 Q 312 742 322 774 Q 329 793 314 808 Q 290 827 264 834 Q 233 841 223 828 Q 216 816 229 803 Q 257 778 261 624 L 261 576 Q 261 503 257 386 L 255 348 Z" fill="black" /></g></svg>