<?xml version='1.0' encoding='utf-8'?>
<svg xmlns="http://www.w3.org/2000/svg" version="1.1" viewBox="0 0 1024 1024"><g transform="scale(1, -1) translate(0, -900)"><path d="M 253 525 Q 256 625 259 641 Q 263 659 251 667 Q 239 679 195 691 Q 179 692 173 688 Q 166 681 178 663 Q 224 603 205 401 Q 195 305 147 252 Q 135 240 142 218 Q 151 190 165 177 Q 177 167 190 182 Q 244 240 402 359 Q 418 369 420 378 Q 423 384 416 384 Q 404 383 269 310 Q 257 306 254 309 Q 247 312 249 328 Q 250 430 252 499 L 253 525 Z" fill="black" /></g></svg>