<?xml version='1.0' encoding='utf-8'?>
<svg xmlns="http://www.w3.org/2000/svg" version="1.1" viewBox="0 0 1024 1024"><g transform="scale(1, -1) translate(0, -900)"><path d="M 745 272 Q 738 250 751 229 Q 764 201 774 202 Q 787 203 802 235 Q 815 260 815 280 Q 802 365 801 495 Q 800 532 821 565 Q 830 581 822 590 Q 795 612 749 631 Q 733 635 712 626 Q 664 602 575 579 L 542 574 Q 527 573 514 571 C 484 567 502 540 532 545 Q 541 545 634 569 Q 713 591 732 581 Q 742 559 748 496 Q 754 309 745 272 Z" fill="black" /></g></svg>