<?xml version='1.0' encoding='utf-8'?>
<svg xmlns="http://www.w3.org/2000/svg" version="1.1" viewBox="0 0 1024 1024"><g transform="scale(1, -1) translate(0, -900)"><path d="M 754 257 Q 747 235 760 213 Q 773 185 782 186 Q 795 187 811 219 Q 826 244 824 264 Q 797 487 836 548 Q 846 564 839 574 Q 811 598 765 618 Q 749 624 726 615 Q 686 596 635 584 Q 622 583 608 578 L 581 574 Q 556 573 535 571 C 505 569 535 538 565 542 Q 569 542 576 543 Q 727 577 747 566 Q 757 544 762 481 Q 763 292 754 257 Z" fill="black" /></g></svg>