<?xml version='1.0' encoding='utf-8'?>
<svg xmlns="http://www.w3.org/2000/svg" version="1.1" viewBox="0 0 1024 1024"><g transform="scale(1, -1) translate(0, -900)"><path d="M 239 419 Q 254 425 296 449 Q 324 462 334 454 Q 341 448 338 355 Q 341 264 319 180 Q 304 149 348 104 Q 358 94 367 100 Q 374 107 383 130 Q 416 179 486 264 Q 496 274 494 282 Q 493 289 482 280 Q 448 255 413 225 Q 374 188 379 240 Q 376 289 388 414 Q 392 436 412 460 Q 424 470 414 481 Q 404 496 367 512 Q 357 518 340 507 Q 283 477 216 460 C 187 452 212 406 239 419 Z" fill="black" /></g></svg>