<?xml version='1.0' encoding='utf-8'?>
<svg xmlns="http://www.w3.org/2000/svg" version="1.1" viewBox="0 0 1024 1024"><g transform="scale(1, -1) translate(0, -900)"><path d="M 735 265 Q 728 243 740 222 Q 753 194 762 194 Q 775 195 792 226 Q 807 251 806 271 Q 797 353 802 480 Q 802 517 823 548 Q 833 563 826 572 Q 799 596 753 614 Q 738 620 716 611 Q 707 608 601 571 L 577 566 Q 567 566 558 564 C 528 561 543 531 573 536 Q 577 536 583 537 Q 724 573 735 567 Q 745 545 748 483 Q 747 300 735 265 Z" fill="black" /></g></svg>