<?xml version='1.0' encoding='utf-8'?>
<svg xmlns="http://www.w3.org/2000/svg" version="1.1" viewBox="0 0 1024 1024"><g transform="scale(1, -1) translate(0, -900)"><path d="M 765 256 Q 758 234 771 213 Q 784 185 794 186 Q 807 187 822 219 Q 835 244 835 264 Q 808 456 841 509 Q 856 533 804 561 Q 789 570 771 577 Q 755 581 733 574 Q 684 552 588 533 L 561 531 Q 549 531 539 530 C 509 528 540 496 569 502 Q 570 503 574 503 Q 622 513 658 520 Q 734 538 751 526 Q 761 507 766 452 Q 773 287 765 256 Z" fill="black" /></g></svg>