<?xml version='1.0' encoding='utf-8'?>
<svg xmlns="http://www.w3.org/2000/svg" version="1.1" viewBox="0 0 1024 1024"><g transform="scale(1, -1) translate(0, -900)"><path d="M 403 276 Q 422 319 438 376 Q 442 404 458 420 Q 470 432 455 444 Q 437 456 410 465 Q 389 471 364 454 L 325 436 Q 253 418 250 415 Q 243 409 258 402 Q 280 392 310 404 Q 341 414 371 423 Q 387 430 389 410 Q 389 373 366 302 L 346 261 Q 334 242 320 223 Q 280 180 175 144 Q 163 140 171 134 Q 178 130 200 134 Q 326 152 377 230 L 403 276 Z" fill="black" /></g></svg>