<?xml version='1.0' encoding='utf-8'?>
<svg xmlns="http://www.w3.org/2000/svg" version="1.1" viewBox="0 0 1024 1024"><g transform="scale(1, -1) translate(0, -900)"><path d="M 257 629 Q 257 686 270 721 Q 279 745 264 757 Q 224 785 213 782 Q 201 778 207 764 Q 223 736 221 693 Q 220 579 228 556 Q 234 534 250 522 Q 266 510 304 504 Q 421 491 473 515 Q 495 528 485 551 Q 472 581 461 634 Q 460 646 453 650 Q 446 654 444 638 Q 434 574 423 562 Q 407 543 338 539 Q 301 538 283 544 Q 259 557 257 611 L 257 629 Z" fill="black" /></g></svg>