<?xml version='1.0' encoding='utf-8'?>
<svg xmlns="http://www.w3.org/2000/svg" version="1.1" viewBox="0 0 1024 1024"><g transform="scale(1, -1) translate(0, -900)"><path d="M 323 296 Q 329 327 332 362 L 335 403 Q 342 511 348 610 L 353 661 Q 357 688 374 723 Q 381 736 370 748 Q 348 767 308 779 Q 283 786 273 779 Q 264 772 272 759 Q 296 719 297 642 L 298 598 Q 298 493 288 392 L 284 351 Q 266 203 177 128 Q 141 100 89 71 Q 77 64 77 59 Q 78 55 89 54 Q 105 51 142 64 Q 205 83 251 134 Q 300 188 318 272 L 323 296 Z" fill="black" /></g></svg>