<?xml version='1.0' encoding='utf-8'?>
<svg xmlns="http://www.w3.org/2000/svg" version="1.1" viewBox="0 0 1024 1024"><g transform="scale(1, -1) translate(0, -900)"><path d="M 763 275 Q 756 253 770 230 Q 785 202 794 202 Q 809 203 824 237 Q 839 264 837 284 Q 824 369 823 504 Q 822 543 843 576 Q 853 592 845 601 Q 818 625 771 644 Q 755 650 733 641 Q 694 625 602 600 L 573 596 Q 557 595 544 594 C 514 592 535 562 565 567 Q 572 567 660 585 Q 733 604 750 593 Q 760 569 767 506 Q 773 313 763 275 Z" fill="black" /></g></svg>