<?xml version='1.0' encoding='utf-8'?>
<svg xmlns="http://www.w3.org/2000/svg" version="1.1" viewBox="0 0 1024 1024"><g transform="scale(1, -1) translate(0, -900)"><path d="M 781 260 Q 774 238 787 217 Q 800 189 810 190 Q 823 191 838 223 Q 851 248 851 268 Q 838 353 837 486 Q 836 523 857 557 Q 866 572 859 581 Q 834 603 789 621 Q 776 625 754 617 Q 742 611 635 579 L 605 574 Q 595 574 586 573 C 556 571 572 543 602 548 Q 611 548 687 566 Q 753 584 768 574 Q 780 552 785 487 Q 791 297 781 260 Z" fill="black" /></g></svg>