<?xml version='1.0' encoding='utf-8'?>
<svg xmlns="http://www.w3.org/2000/svg" version="1.1" viewBox="0 0 1024 1024"><g transform="scale(1, -1) translate(0, -900)"><path d="M 251 308 Q 257 308 310 334 Q 332 344 340 337 Q 349 331 343 309 Q 336 189 315 125 Q 300 101 335 62 L 337 60 Q 346 51 353 56 Q 360 62 368 81 Q 402 133 476 226 Q 485 236 482 242 Q 481 248 472 240 Q 430 203 390 163 Q 366 141 369 172 Q 369 209 386 302 Q 389 321 408 340 Q 418 347 411 358 Q 402 371 372 386 Q 362 392 348 383 Q 297 358 246 345 C 217 337 223 298 251 308 Z" fill="black" /></g></svg>