<?xml version='1.0' encoding='utf-8'?>
<svg xmlns="http://www.w3.org/2000/svg" version="1.1" viewBox="0 0 1024 1024"><g transform="scale(1, -1) translate(0, -900)"><path d="M 766 253 Q 759 231 772 209 Q 785 181 794 182 Q 807 183 823 215 Q 838 240 836 260 Q 826 339 828 462 Q 828 498 848 528 Q 858 544 851 553 Q 824 577 778 596 Q 765 602 670 567 Q 637 560 622 556 L 593 552 Q 581 552 572 550 C 542 547 554 519 584 523 Q 590 523 679 539 Q 745 555 759 547 Q 769 525 773 465 Q 776 287 766 253 Z" fill="black" /></g></svg>