<?xml version='1.0' encoding='utf-8'?>
<svg xmlns="http://www.w3.org/2000/svg" version="1.1" viewBox="0 0 1024 1024"><g transform="scale(1, -1) translate(0, -900)"><path d="M 247 225 Q 269 250 324 271 Q 357 281 376 276 Q 395 270 399 237 Q 392 165 356 110 Q 343 92 331 89 Q 315 85 255 118 Q 242 128 239 122 Q 238 116 246 103 Q 276 57 294 16 Q 301 3 313 1 Q 329 -3 350 7 Q 416 64 449 216 Q 450 244 461 261 Q 473 273 462 284 Q 447 299 411 314 Q 395 320 328 300 Q 322 300 305 293 Q 289 289 296 305 Q 323 353 333 363 Q 345 376 336 390 Q 332 394 326 397 C 307 420 277 414 274 384 Q 277 360 250 311 Q 243 298 218 281 Q 203 265 206 251 Q 207 238 223 224 Q 235 214 247 225 Z" fill="black" /></g></svg>