<?xml version='1.0' encoding='utf-8'?>
<svg xmlns="http://www.w3.org/2000/svg" version="1.1" viewBox="0 0 1024 1024"><g transform="scale(1, -1) translate(0, -900)"><path d="M 235 245 Q 298 299 357 368 L 384 400 Q 444 481 469 499 Q 481 509 477 516 Q 476 523 424 544 Q 409 553 393 541 Q 377 531 350 523 Q 319 514 293 508 C 264 501 245 482 275 482 Q 296 478 361 496 Q 374 499 380 493 Q 383 487 373 472 Q 357 442 335 410 L 316 384 Q 229 279 93 172 Q 81 162 93 162 Q 126 162 212 227 L 235 245 Z" fill="black" /></g></svg>