<?xml version='1.0' encoding='utf-8'?>
<svg xmlns="http://www.w3.org/2000/svg" version="1.1" viewBox="0 0 1024 1024"><g transform="scale(1, -1) translate(0, -900)"><path d="M 261 693 Q 262 729 271 770 Q 275 786 264 795 Q 252 807 231 814 Q 219 818 212 813 Q 206 810 211 794 Q 223 758 221 725 Q 215 602 253 573 Q 266 567 289 560 Q 400 536 489 595 Q 502 604 494 621 Q 487 637 477 690 Q 478 702 473 705 Q 469 708 464 696 Q 439 641 425 625 Q 416 615 392 608 Q 335 593 290 608 Q 272 615 268 625 Q 259 643 260 674 L 261 693 Z" fill="black" /></g></svg>