<?xml version='1.0' encoding='utf-8'?>
<svg xmlns="http://www.w3.org/2000/svg" version="1.1" viewBox="0 0 1024 1024"><g transform="scale(1, -1) translate(0, -900)"><path d="M 430 515 Q 443 496 457 490 Q 467 483 479 502 Q 492 526 516 653 Q 523 681 543 703 Q 553 713 544 726 Q 529 741 492 763 Q 479 769 411 753 Q 381 753 219 716 C 190 709 210 681 239 689 Q 273 699 323 708 L 353 713 Q 383 719 422 724 Q 450 728 459 719 Q 471 706 469 691 Q 453 573 443 554 Q 439 545 432 542 C 419 528 419 528 430 515 Z" fill="black" /></g></svg>