<?xml version='1.0' encoding='utf-8'?>
<svg xmlns="http://www.w3.org/2000/svg" version="1.1" viewBox="0 0 1024 1024"><g transform="scale(1, -1) translate(0, -900)"><path d="M 778 281 Q 771 259 784 237 Q 797 209 806 210 Q 819 211 835 243 Q 850 268 848 288 Q 821 493 860 552 Q 879 585 794 618 Q 791 621 788 621 Q 772 625 749 617 Q 710 598 660 583 Q 657 583 658 582 L 626 575 Q 596 571 573 568 C 543 564 560 534 590 539 Q 597 539 605 541 Q 758 578 771 570 Q 781 548 785 490 Q 788 315 778 281 Z" fill="black" /></g></svg>