<?xml version='1.0' encoding='utf-8'?>
<svg xmlns="http://www.w3.org/2000/svg" version="1.1" viewBox="0 0 1024 1024"><g transform="scale(1, -1) translate(0, -900)"><path d="M 772 284 Q 765 262 779 240 Q 792 213 802 214 Q 815 215 830 248 Q 843 273 842 293 Q 811 479 845 538 Q 861 565 797 594 Q 785 600 774 605 Q 759 609 737 602 Q 697 583 648 571 Q 635 570 622 565 L 590 560 Q 580 560 570 558 C 540 555 552 526 582 531 Q 586 531 590 532 Q 741 562 755 554 Q 765 533 771 479 Q 780 316 772 284 Z" fill="black" /></g></svg>