<?xml version='1.0' encoding='utf-8'?>
<svg xmlns="http://www.w3.org/2000/svg" version="1.1" viewBox="0 0 1024 1024"><g transform="scale(1, -1) translate(0, -900)"><path d="M 224 176 Q 243 212 260 261 Q 270 285 285 300 Q 300 313 289 324 Q 279 334 252 342 Q 233 348 211 335 Q 192 328 164 319 Q 136 312 91 306 Q 79 305 75 300 Q 72 294 87 287 Q 117 275 158 287 Q 189 300 195 301 Q 217 300 214 276 Q 204 230 189 196 L 169 161 Q 129 109 58 86 Q 48 82 58 76 Q 61 72 87 74 Q 142 81 196 134 L 224 176 Z" fill="black" /></g></svg>