<?xml version='1.0' encoding='utf-8'?>
<svg xmlns="http://www.w3.org/2000/svg" version="1.1" viewBox="0 0 1024 1024"><g transform="scale(1, -1) translate(0, -900)"><path d="M 273 435 Q 292 462 316 499 Q 325 515 333 523 Q 343 530 338 538 Q 331 548 304 558 Q 289 567 242 547 Q 161 532 142 529 Q 132 529 132 522 Q 131 518 142 512 Q 176 494 197 502 Q 260 524 266 523 Q 273 520 265 505 Q 249 474 235 451 L 214 422 Q 163 373 137 354 Q 125 347 133 344 Q 166 338 237 397 Q 238 398 242 401 L 273 435 Z" fill="black" /></g></svg>