<?xml version='1.0' encoding='utf-8'?>
<svg xmlns="http://www.w3.org/2000/svg" version="1.1" viewBox="0 0 1024 1024"><g transform="scale(1, -1) translate(0, -900)"><path d="M 785 252 Q 778 230 791 209 Q 804 181 814 182 Q 827 183 842 215 Q 855 240 855 260 Q 825 458 858 513 Q 867 534 862 541 Q 837 562 792 579 Q 779 583 757 575 Q 723 556 677 542 Q 662 539 651 535 L 629 530 Q 613 529 600 526 C 570 521 582 496 612 501 Q 619 501 627 503 Q 762 539 773 534 Q 783 513 788 456 Q 792 285 785 252 Z" fill="black" /></g></svg>