<?xml version='1.0' encoding='utf-8'?>
<svg xmlns="http://www.w3.org/2000/svg" version="1.1" viewBox="0 0 1024 1024"><g transform="scale(1, -1) translate(0, -900)"><path d="M 787 265 Q 780 243 793 224 Q 806 197 814 198 Q 827 199 841 229 Q 854 253 853 272 Q 826 479 862 535 Q 880 562 799 597 Q 795 598 793 599 Q 778 605 756 596 Q 720 578 675 565 Q 647 558 624 554 L 610 552 Q 604 552 598 550 C 568 545 584 519 614 524 Q 621 524 698 542 Q 762 560 777 550 Q 787 529 792 472 Q 796 298 787 265 Z" fill="black" /></g></svg>