<?xml version='1.0' encoding='utf-8'?>
<svg xmlns="http://www.w3.org/2000/svg" version="1.1" viewBox="0 0 1024 1024"><g transform="scale(1, -1) translate(0, -900)"><path d="M 459 454 Q 480 479 506 526 Q 513 542 521 549 Q 531 556 525 564 Q 518 573 492 582 Q 476 589 463 582 Q 450 575 426 567 Q 399 561 359 556 Q 349 555 349 549 Q 348 545 359 539 Q 392 523 410 531 Q 453 547 457 548 Q 464 547 457 529 Q 441 492 427 469 L 407 442 Q 389 423 364 402 Q 354 393 361 392 Q 379 389 429 425 L 459 454 Z" fill="black" /></g></svg>