<?xml version='1.0' encoding='utf-8'?>
<svg xmlns="http://www.w3.org/2000/svg" version="1.1" viewBox="0 0 1024 1024"><g transform="scale(1, -1) translate(0, -900)"><path d="M 468 650 Q 739 704 745 702 Q 749 701 754 696 Q 761 684 760 666 Q 714 119 921 6 Q 924 6 927 3 Q 967 -13 986 -1 Q 998 6 992 27 Q 974 96 966 170 Q 966 182 961 189 Q 954 196 951 179 Q 938 130 928 109 Q 915 84 897 103 Q 869 125 843 187 Q 777 320 806 604 Q 810 647 853 690 Q 868 705 850 718 Q 837 733 782 759 Q 766 769 719 740 Q 622 709 462 681 C 432 676 439 644 468 650 Z" fill="black" /></g></svg>