<?xml version='1.0' encoding='utf-8'?>
<svg xmlns="http://www.w3.org/2000/svg" version="1.1" viewBox="0 0 1024 1024"><g transform="scale(1, -1) translate(0, -900)"><path d="M 209 668 Q 276 677 435 729 Q 481 745 498 731 Q 508 721 504 687 Q 462 297 553 155 Q 664 -20 919 7 Q 934 10 953 13 Q 981 17 989 32 Q 993 42 984 63 Q 966 90 958 141 Q 954 184 949 192 Q 945 201 940 186 Q 918 89 896 74 Q 883 65 833 67 Q 760 71 693 102 Q 590 156 547 291 Q 522 390 540 533 Q 552 668 590 715 Q 602 736 572 753 Q 512 790 457 763 Q 328 715 202 693 C 173 687 180 662 209 668 Z" fill="black" /></g></svg>