<?xml version='1.0' encoding='utf-8'?>
<svg xmlns="http://www.w3.org/2000/svg" version="1.1" viewBox="0 0 1024 1024"><g transform="scale(1, -1) translate(0, -900)"><path d="M 193 417 Q 202 498 204 630 Q 205 648 208 664 Q 209 667 209 668 C 212 686 212 686 202 693 Q 186 706 161 714 Q 142 721 131 717 Q 121 710 128 697 Q 144 681 151 618 Q 151 416 131 322 Q 130 319 129 314 Q 102 218 40 97 Q 36 90 35 85 Q 34 75 43 78 Q 56 81 88 128 Q 158 221 191 399 Q 191 405 192 409 L 193 417 Z" fill="black" /></g></svg>