<?xml version='1.0' encoding='utf-8'?>
<svg xmlns="http://www.w3.org/2000/svg" version="1.1" viewBox="0 0 1024 1024"><g transform="scale(1, -1) translate(0, -900)"><path d="M 577 155 L 578 155 Q 582 152 613 154 Q 686 160 748 212 L 779 246 Q 801 279 823 325 Q 836 349 853 363 Q 869 376 860 388 Q 850 398 823 410 Q 804 417 779 407 Q 758 400 734 393 L 700 384 Q 603 372 599 368 Q 596 362 611 355 Q 641 343 682 354 Q 751 373 763 373 Q 781 369 773 349 Q 760 300 739 266 L 716 236 Q 662 188 580 166 Q 570 165 573 159 C 568 156 568 156 577 155 Z" fill="black" /></g></svg>