<?xml version='1.0' encoding='utf-8'?>
<svg xmlns="http://www.w3.org/2000/svg" version="1.1" viewBox="0 0 1024 1024"><g transform="scale(1, -1) translate(0, -900)"><path d="M 184 676 Q 218 673 390 722 Q 430 734 443 722 Q 456 712 452 677 Q 433 275 526 140 Q 608 11 789 -8 Q 876 -8 939 6 Q 967 13 975 27 Q 979 34 971 53 Q 953 80 948 130 Q 945 173 941 180 Q 938 189 932 175 Q 907 76 885 63 Q 870 53 820 52 Q 745 52 674 81 Q 622 106 577 155 L 573 159 Q 504 228 492 410 Q 480 470 500 616 Q 512 680 533 711 Q 540 723 537 729 Q 533 738 516 747 Q 453 784 406 756 Q 279 714 181 699 C 151 694 154 673 184 676 Z" fill="black" /></g></svg>