<?xml version='1.0' encoding='utf-8'?>
<svg xmlns="http://www.w3.org/2000/svg" version="1.1" viewBox="0 0 1024 1024"><g transform="scale(1, -1) translate(0, -900)"><path d="M 527 627 Q 617 645 763 679 Q 776 683 785 674 Q 792 664 790 648 Q 739 153 904 29 Q 917 19 936 9 Q 970 -7 988 2 Q 998 8 995 27 Q 986 103 988 183 Q 989 193 985 201 Q 978 208 975 192 Q 957 132 944 106 Q 928 79 910 101 Q 841 162 823 335 Q 813 440 831 591 Q 835 628 872 667 Q 885 680 870 692 Q 858 705 810 729 Q 795 736 756 714 Q 675 684 519 655 C 490 649 498 621 527 627 Z" fill="black" /></g></svg>