<?xml version='1.0' encoding='utf-8'?>
<svg xmlns="http://www.w3.org/2000/svg" version="1.1" viewBox="0 0 1024 1024"><g transform="scale(1, -1) translate(0, -900)"><path d="M 341 485 Q 354 466 365 459 Q 372 452 385 468 Q 397 484 423 573 Q 429 598 447 618 Q 457 628 448 639 Q 435 652 401 672 Q 385 679 374 674 Q 353 667 328 658 L 285 646 Q 252 639 220 627 L 188 618 Q 152 608 125 598 C 97 588 106 558 134 569 Q 159 579 192 590 L 222 600 Q 249 610 285 619 L 324 630 Q 355 646 378 633 Q 388 626 384 612 Q 363 522 354 512 C 341 485 341 485 341 485 Z" fill="black" /></g></svg>