<?xml version='1.0' encoding='utf-8'?>
<svg xmlns="http://www.w3.org/2000/svg" version="1.1" viewBox="0 0 1024 1024"><g transform="scale(1, -1) translate(0, -900)"><path d="M 956 10 Q 949 89 947 222 Q 948 235 941 241 Q 934 245 930 230 Q 900 119 884 102 Q 878 93 854 104 Q 802 128 764 209 Q 731 282 721 375 Q 711 472 732 597 Q 736 640 766 674 Q 785 687 772 700 Q 760 719 725 745 Q 704 760 653 738 Q 611 732 312 661 C 283 654 294 617 323 625 Q 333 626 345 631 Q 478 668 645 692 Q 664 695 673 688 Q 676 685 677 654 Q 623 239 781 75 Q 835 9 923 -19 Q 942 -26 952 -16 Q 959 -9 956 10 Z" fill="black" /></g></svg>