<?xml version='1.0' encoding='utf-8'?>
<svg xmlns="http://www.w3.org/2000/svg" version="1.1" viewBox="0 0 1024 1024"><g transform="scale(1, -1) translate(0, -900)"><path d="M 542 618 Q 549 621 558 623 Q 670 645 785 671 Q 798 674 806 665 Q 813 655 811 638 Q 748 128 939 21 Q 976 2 994 13 Q 1006 19 1002 39 Q 992 117 993 198 Q 994 210 989 216 Q 982 225 979 208 Q 960 148 947 122 Q 931 97 914 117 Q 860 168 843 289 Q 825 397 853 577 Q 857 617 897 656 Q 912 669 896 682 Q 883 695 833 722 Q 814 732 796 718 Q 756 688 528 648 C 498 643 513 611 542 618 Z" fill="black" /></g></svg>