<?xml version='1.0' encoding='utf-8'?>
<svg xmlns="http://www.w3.org/2000/svg" version="1.1" viewBox="0 0 1024 1024"><g transform="scale(1, -1) translate(0, -900)"><path d="M 562 607 Q 565 608 568 609 Q 662 631 755 655 Q 767 658 775 650 Q 781 640 780 626 Q 734 128 918 20 Q 922 17 929 14 Q 963 -1 979 10 Q 989 16 985 33 Q 973 111 973 192 Q 973 202 969 209 Q 962 216 960 200 Q 945 136 932 106 Q 919 82 903 101 Q 849 146 823 275 Q 801 386 820 572 Q 823 608 858 645 Q 870 658 855 669 Q 843 681 797 702 Q 785 709 744 686 Q 684 662 552 633 C 523 626 533 600 562 607 Z" fill="black" /></g></svg>