<?xml version='1.0' encoding='utf-8'?>
<svg xmlns="http://www.w3.org/2000/svg" version="1.1" viewBox="0 0 1024 1024"><g transform="scale(1, -1) translate(0, -900)"><path d="M 494 642 L 709 687 Q 724 691 735 681 Q 742 668 740 650 Q 700 107 912 7 Q 949 -12 968 -1 Q 980 5 976 25 Q 966 104 968 186 Q 969 196 965 204 Q 958 213 954 196 Q 935 139 921 114 Q 902 81 880 106 Q 754 211 788 589 Q 792 631 834 675 Q 849 690 831 703 Q 818 718 762 744 Q 743 756 722 738 Q 683 710 488 674 C 459 668 465 636 494 642 Z" fill="black" /></g></svg>