<?xml version='1.0' encoding='utf-8'?>
<svg xmlns="http://www.w3.org/2000/svg" version="1.1" viewBox="0 0 1024 1024"><g transform="scale(1, -1) translate(0, -900)"><path d="M 562 606 Q 564 610 570 612 Q 633 625 758 657 Q 774 662 780 647 Q 784 639 782 628 Q 737 127 921 20 Q 945 4 968 6 Q 976 6 982 10 Q 991 16 990 30 L 980 98 Q 976 141 976 192 Q 976 202 972 210 Q 966 217 963 201 Q 950 141 935 106 Q 922 82 906 102 Q 852 147 826 276 Q 804 387 823 574 Q 825 610 860 647 Q 873 661 858 671 Q 846 683 800 705 Q 788 711 747 688 Q 688 664 554 635 C 525 628 534 596 562 606 Z" fill="black" /></g></svg>