<?xml version='1.0' encoding='utf-8'?>
<svg xmlns="http://www.w3.org/2000/svg" version="1.1" viewBox="0 0 1024 1024"><g transform="scale(1, -1) translate(0, -900)"><path d="M 893 246 Q 883 268 867 332 Q 867 345 861 350 Q 855 353 852 338 Q 830 268 814 247 Q 802 234 770 226 Q 692 210 633 235 Q 609 247 603 262 Q 590 292 596 336 L 599 363 Q 603 397 611 436 Q 612 443 611 449 C 612 459 612 459 595 468 Q 588 474 577 478 Q 567 482 559 478 Q 555 475 558 460 Q 568 429 564 398 Q 555 280 564 247 Q 568 226 586 209 Q 653 154 807 176 Q 811 179 818 179 Q 852 189 887 211 Q 903 224 893 246 Z" fill="black" /></g></svg>