<?xml version='1.0' encoding='utf-8'?>
<svg xmlns="http://www.w3.org/2000/svg" version="1.1" viewBox="0 0 1024 1024"><g transform="scale(1, -1) translate(0, -900)"><path d="M 593 549 Q 617 536 634 542 Q 793 593 804 580 Q 813 567 809 534 Q 802 441 779 400 Q 766 376 746 379 Q 730 383 716 388 Q 697 395 710 375 Q 738 341 752 315 Q 768 297 784 313 Q 841 356 856 521 Q 859 561 873 583 Q 883 593 878 603 Q 871 612 826 629 Q 808 636 793 625 Q 748 598 609 574 C 579 569 565 560 593 549 Z" fill="black" /></g></svg>