<?xml version='1.0' encoding='utf-8'?>
<svg xmlns="http://www.w3.org/2000/svg" version="1.1" viewBox="0 0 1024 1024"><g transform="scale(1, -1) translate(0, -900)"><path d="M 757 230 Q 787 267 814 321 Q 827 346 845 363 Q 864 376 852 389 Q 840 401 812 413 Q 791 420 766 409 Q 747 402 723 393 L 685 381 Q 639 369 566 360 Q 553 359 549 353 Q 546 346 563 339 Q 597 327 643 341 Q 733 371 749 369 Q 767 368 762 348 Q 744 281 716 252 L 691 225 Q 631 176 541 155 Q 528 151 538 143 Q 542 140 578 142 Q 623 145 674 169 Q 702 182 726 200 L 757 230 Z" fill="black" /></g></svg>