<?xml version='1.0' encoding='utf-8'?>
<svg xmlns="http://www.w3.org/2000/svg" version="1.1" viewBox="0 0 1024 1024"><g transform="scale(1, -1) translate(0, -900)"><path d="M 376 481 Q 389 462 401 455 Q 410 449 421 465 Q 431 481 454 570 Q 461 594 478 614 Q 488 624 479 635 Q 467 648 433 668 Q 420 674 360 657 L 316 647 Q 289 643 260 634 L 218 625 Q 181 616 148 609 C 119 603 137 571 165 581 Q 192 591 224 600 L 260 609 Q 282 616 316 622 L 355 629 Q 361 632 368 632 Q 396 638 406 629 Q 415 619 413 609 Q 398 525 389 509 C 378 481 375 483 376 481 Z" fill="black" /></g></svg>