<?xml version='1.0' encoding='utf-8'?>
<svg xmlns="http://www.w3.org/2000/svg" version="1.1" viewBox="0 0 1024 1024"><g transform="scale(1, -1) translate(0, -900)"><path d="M 373 489 Q 357 502 341 510 Q 326 516 321 513 C 300 517 300 517 308 500 Q 309 496 313 490 Q 361 400 338 119 Q 335 71 295 24 Q 273 -6 311 -50 L 313 -51 Q 326 -58 338 -43 Q 354 -16 503 90 Q 522 102 528 110 Q 532 120 522 120 Q 510 120 402 72 Q 384 65 384 81 Q 390 178 390 260 L 390 284 Q 389 326 389 364 L 388 387 Q 385 453 394 461 C 397 472 397 472 373 489 Z" fill="black" /></g></svg>