<?xml version='1.0' encoding='utf-8'?>
<svg xmlns="http://www.w3.org/2000/svg" version="1.1" viewBox="0 0 1024 1024"><g transform="scale(1, -1) translate(0, -900)"><path d="M 385 463 Q 414 424 417 314 L 417 276 Q 417 138 364 74 Q 345 55 374 16 Q 380 9 382 8 Q 392 0 404 12 Q 447 65 576 164 C 600 182 591 194 564 180 Q 541 169 485 136 Q 466 125 459 128 Q 453 130 454 143 Q 454 145 455 147 L 455 267 L 455 294 Q 455 331 455 353 L 457 384 Q 457 416 459 447 C 460 465 460 465 437 474 Q 427 480 406 484 C 377 491 370 489 385 463 Z" fill="black" /></g></svg>