<?xml version='1.0' encoding='utf-8'?>
<svg xmlns="http://www.w3.org/2000/svg" version="1.1" viewBox="0 0 1024 1024"><g transform="scale(1, -1) translate(0, -900)"><path d="M 377 189 Q 346 173 283 131 Q 274 125 270 129 Q 264 132 265 147 Q 265 213 266 264 L 266 293 Q 266 330 268 357 L 268 384 Q 268 438 272 451 C 274 467 274 467 258 476 Q 248 485 214 493 Q 211 494 210 493 C 181 499 179 498 195 473 Q 225 443 231 294 Q 230 288 231 280 Q 230 280 231 279 Q 228 141 186 83 Q 153 55 195 7 L 197 6 Q 207 -1 220 12 Q 262 67 388 176 C 411 196 403 203 377 189 Z" fill="black" /></g></svg>