<?xml version='1.0' encoding='utf-8'?>
<svg xmlns="http://www.w3.org/2000/svg" version="1.1" viewBox="0 0 1024 1024"><g transform="scale(1, -1) translate(0, -900)"><path d="M 453 221 Q 426 278 425 412 Q 425 509 443 606 Q 456 670 480 701 Q 487 713 484 719 Q 480 728 463 737 Q 402 773 343 741 Q 262 711 186 692 C 157 684 171 661 200 668 Q 249 678 351 713 Q 381 723 392 715 Q 402 703 399 670 Q 359 271 449 125 Q 533 -7 742 -28 Q 751 -28 762 -29 Q 825 -30 924 -4 Q 957 5 963 22 Q 967 31 956 50 Q 937 74 923 121 Q 914 161 909 169 Q 905 176 901 162 Q 889 68 871 52 Q 855 39 797 35 Q 709 29 623 58 Q 512 101 461 204 L 453 221 Z" fill="black" /></g></svg>