<?xml version='1.0' encoding='utf-8'?>
<svg xmlns="http://www.w3.org/2000/svg" version="1.1" viewBox="0 0 1024 1024"><g transform="scale(1, -1) translate(0, -900)"><path d="M 592 394 Q 583 580 664 643 Q 680 653 677 668 Q 673 681 606 709 Q 584 719 563 704 Q 487 659 369 628 Q 236 594 131 583 Q 106 582 121 564 Q 134 549 162 539 Q 189 529 220 545 Q 302 579 538 643 Q 562 650 559 626 Q 513 337 596 169 Q 612 136 635 111 Q 681 56 756 21 Q 814 -7 872 -5 Q 921 -4 948 14 Q 961 20 955 41 Q 931 102 914 187 Q 908 214 900 189 Q 875 86 864 75 Q 849 60 826 69 Q 688 96 629 227 Q 604 284 595 364 L 592 394 Z" fill="black" /></g></svg>