<?xml version='1.0' encoding='utf-8'?>
<svg xmlns="http://www.w3.org/2000/svg" version="1.1" viewBox="0 0 1024 1024"><g transform="scale(1, -1) translate(0, -900)"><path d="M 364 760 Q 345 761 352 750 Q 359 737 389 723 Q 413 713 437 722 Q 540 759 581 770 Q 603 774 613 764 Q 620 754 619 734 Q 619 466 838 405 Q 851 402 866 402 Q 888 405 881 429 Q 871 480 866 555 Q 865 562 860 566 Q 856 569 852 557 Q 845 529 835 500 Q 826 478 809 480 Q 796 477 754 501 Q 703 534 684 579 Q 662 628 673 707 Q 676 744 700 768 Q 713 778 704 790 Q 694 803 668 817 Q 641 832 596 812 Q 488 778 364 760 Z" fill="black" /></g></svg>