<?xml version='1.0' encoding='utf-8'?>
<svg xmlns="http://www.w3.org/2000/svg" version="1.1" viewBox="0 0 1024 1024"><g transform="scale(1, -1) translate(0, -900)"><path d="M 352 193 Q 319 175 254 133 Q 245 129 241 131 Q 235 137 238 273 L 238 298 Q 239 341 241 374 L 242 405 Q 243 457 246 467 Q 246 470 246 471 C 248 490 248 490 229 498 Q 219 504 202 508 C 173 517 158 501 174 475 Q 208 441 198 233 Q 189 128 144 74 Q 120 52 158 8 Q 159 7 163 3 Q 175 -6 187 9 Q 230 66 363 179 C 386 198 378 208 352 193 Z" fill="black" /></g></svg>