<?xml version='1.0' encoding='utf-8'?>
<svg xmlns="http://www.w3.org/2000/svg" version="1.1" viewBox="0 0 1024 1024"><g transform="scale(1, -1) translate(0, -900)"><path d="M 673 392 Q 722 405 771 414 Q 784 415 789 409 Q 795 394 790 355 Q 774 214 744 140 Q 728 94 713 80 Q 701 70 631 92 Q 609 99 623 78 Q 659 32 676 -4 Q 683 -23 701 -19 Q 719 -18 742 5 Q 806 65 842 312 Q 849 367 873 398 Q 889 419 880 429 Q 865 447 831 462 Q 806 475 780 463 Q 738 445 681 428 L 632 415 Q 553 397 506 395 Q 487 396 487 386 Q 486 377 508 365 Q 535 349 558 357 Q 591 369 624 378 L 673 392 Z" fill="black" /></g></svg>