<?xml version='1.0' encoding='utf-8'?>
<svg xmlns="http://www.w3.org/2000/svg" version="1.1" viewBox="0 0 1024 1024"><g transform="scale(1, -1) translate(0, -900)"><path d="M 364 171 Q 333 153 272 114 Q 262 110 259 112 Q 252 116 253 131 Q 253 191 253 238 L 254 260 Q 254 303 255 335 L 256 363 Q 256 423 260 438 C 263 458 263 458 245 466 Q 236 472 218 476 C 189 485 182 472 194 445 Q 230 378 215 182 Q 209 151 203 127 Q 199 96 166 57 Q 156 47 163 27 Q 170 2 184 -9 Q 196 -18 207 -4 Q 249 48 374 155 C 397 175 390 186 364 171 Z" fill="black" /></g></svg>