<?xml version='1.0' encoding='utf-8'?>
<svg xmlns="http://www.w3.org/2000/svg" version="1.1" viewBox="0 0 1024 1024"><g transform="scale(1, -1) translate(0, -900)"><path d="M 331 343 Q 353 307 353 202 L 353 199 Q 353 131 336 84 Q 329 52 294 16 Q 286 8 288 -8 Q 288 -11 289 -16 Q 292 -27 296 -37 Q 310 -71 330 -51 Q 368 -8 488 79 Q 504 87 506 96 Q 508 100 504 102 Q 502 102 494 100 Q 444 83 403 65 Q 400 64 398 63 Q 388 61 388 80 Q 391 147 392 180 L 394 206 Q 394 239 396 263 L 398 286 Q 398 296 398 304 L 403 335 C 405 347 405 347 382 360 Q 372 367 357 372 C 329 383 318 370 331 343 Z" fill="black" /></g></svg>