<?xml version='1.0' encoding='utf-8'?>
<svg xmlns="http://www.w3.org/2000/svg" version="1.1" viewBox="0 0 1024 1024"><g transform="scale(1, -1) translate(0, -900)"><path d="M 362 191 Q 331 173 271 131 Q 262 125 259 128 Q 252 132 254 148 Q 255 217 257 270 L 258 296 Q 259 333 261 362 L 262 390 Q 263 445 266 461 C 269 485 269 485 257 491 Q 247 500 215 508 C 186 516 180 510 195 484 Q 237 427 219 220 Q 215 177 204 144 Q 200 111 167 73 Q 157 63 164 43 Q 173 18 186 7 Q 196 -2 209 12 Q 249 67 372 176 C 394 196 388 207 362 191 Z" fill="black" /></g></svg>