<?xml version='1.0' encoding='utf-8'?>
<svg xmlns="http://www.w3.org/2000/svg" version="1.1" viewBox="0 0 1024 1024"><g transform="scale(1, -1) translate(0, -900)"><path d="M 511 472 Q 480 500 462 497 C 440 502 440 502 447 485 Q 447 481 451 475 Q 493 388 465 147 Q 462 101 424 55 Q 400 25 439 -15 L 441 -16 Q 454 -23 465 -8 Q 480 17 613 122 Q 632 134 636 142 Q 640 152 631 152 Q 616 151 521 103 Q 508 97 508 109 Q 514 185 517 252 L 518 277 Q 519 316 520 350 L 520 370 Q 523 409 527 447 C 528 458 528 458 511 472 Z" fill="black" /></g></svg>