<?xml version='1.0' encoding='utf-8'?>
<svg xmlns="http://www.w3.org/2000/svg" version="1.1" viewBox="0 0 1024 1024"><g transform="scale(1, -1) translate(0, -900)"><path d="M 549 200 Q 568 167 590 194 Q 604 210 612 265 Q 617 306 637 341 Q 646 358 643 365 Q 641 373 625 388 Q 594 415 574 412 L 564 408 Q 479 378 382 360 C 353 354 375 323 403 335 Q 404 336 417 341 Q 520 376 552 370 Q 555 370 556 370 Q 568 368 568 351 Q 568 349 568 346 Q 564 259 559 243 Q 555 229 541 225 C 534 221 534 221 549 200 Z" fill="black" /></g></svg>