<?xml version='1.0' encoding='utf-8'?>
<svg xmlns="http://www.w3.org/2000/svg" version="1.1" viewBox="0 0 1024 1024"><g transform="scale(1, -1) translate(0, -900)"><path d="M 653 302 Q 665 308 680 312 Q 744 334 758 330 C 788 330 785 372 756 365 Q 701 352 652 337 L 604 321 Q 568 311 538 296 Q 528 293 530 306 Q 542 378 536 391 Q 523 407 503 419 Q 493 425 484 423 Q 475 420 481 403 Q 496 366 488 328 Q 482 292 467 277 Q 451 261 459 249 Q 469 236 484 228 Q 496 222 504 229 Q 516 247 605 284 L 653 302 Z" fill="black" /></g></svg>