<?xml version='1.0' encoding='utf-8'?>
<svg xmlns="http://www.w3.org/2000/svg" version="1.1" viewBox="0 0 1024 1024"><g transform="scale(1, -1) translate(0, -900)"><path d="M 219 483 Q 274 553 312 617 L 321 633 Q 340 669 365 712 L 376 733 Q 379 743 396 764 Q 403 770 401 780 Q 398 790 384 801 Q 368 814 348 818 Q 326 824 315 820 Q 306 817 310 805 Q 335 718 197 526 Q 194 523 192 519 Q 153 467 52 364 Q 45 358 55 356 Q 65 357 91 376 Q 134 401 173 436 Q 185 448 198 461 L 219 483 Z" fill="black" /></g></svg>