<?xml version='1.0' encoding='utf-8'?>
<svg xmlns="http://www.w3.org/2000/svg" version="1.1" viewBox="0 0 1024 1024"><g transform="scale(1, -1) translate(0, -900)"><path d="M 376 179 Q 345 163 285 129 Q 275 125 272 128 Q 265 131 267 146 Q 267 213 267 265 L 267 293 Q 267 327 268 352 L 269 383 Q 269 414 272 446 C 273 464 273 464 250 473 Q 240 479 219 483 C 190 490 183 487 198 461 Q 226 422 230 313 Q 230 297 230 275 Q 230 139 177 74 Q 158 56 187 15 Q 190 12 194 8 Q 204 -1 217 12 Q 260 64 388 163 C 412 181 403 193 376 179 Z" fill="black" /></g></svg>