<?xml version='1.0' encoding='utf-8'?>
<svg xmlns="http://www.w3.org/2000/svg" version="1.1" viewBox="0 0 1024 1024"><g transform="scale(1, -1) translate(0, -900)"><path d="M 359 171 Q 329 155 263 111 Q 254 105 250 109 Q 244 112 245 127 Q 245 200 246 255 L 246 284 Q 246 323 248 351 L 249 382 Q 249 418 252 431 C 254 451 254 451 235 459 Q 225 465 205 470 C 176 479 168 470 182 444 Q 195 423 203 394 Q 210 366 211 259 Q 210 172 195 123 Q 191 92 158 53 Q 148 43 155 23 Q 164 -2 177 -14 Q 187 -21 200 -8 Q 242 47 370 158 C 393 178 385 186 359 171 Z" fill="black" /></g></svg>