<?xml version='1.0' encoding='utf-8'?>
<svg xmlns="http://www.w3.org/2000/svg" version="1.1" viewBox="0 0 1024 1024"><g transform="scale(1, -1) translate(0, -900)"><path d="M 739 220 Q 770 287 801 390 Q 810 418 828 439 Q 844 455 831 468 Q 816 478 785 486 Q 761 492 736 475 Q 712 463 681 451 Q 648 439 594 428 Q 590 428 587 427 C 558 421 557 414 586 408 Q 589 408 591 407 Q 625 397 671 413 Q 714 434 722 435 Q 747 432 740 405 Q 727 320 700 258 L 679 216 Q 622 126 510 80 Q 497 73 510 68 Q 516 62 553 65 Q 641 77 712 175 L 739 220 Z" fill="black" /></g></svg>