<?xml version='1.0' encoding='utf-8'?>
<svg xmlns="http://www.w3.org/2000/svg" version="1.1" viewBox="0 0 1024 1024"><g transform="scale(1, -1) translate(0, -900)"><path d="M 385 221 Q 351 202 284 158 Q 274 152 269 155 Q 262 161 265 292 L 266 324 Q 266 358 268 383 L 269 410 Q 269 464 274 476 C 277 495 277 495 262 503 Q 255 509 239 514 C 211 526 197 503 208 475 Q 245 391 220 207 Q 216 188 211 171 Q 205 137 172 98 Q 160 86 168 66 Q 177 39 191 27 Q 203 18 215 33 Q 260 91 395 204 C 418 223 411 236 385 221 Z" fill="black" /></g></svg>