<?xml version='1.0' encoding='utf-8'?>
<svg xmlns="http://www.w3.org/2000/svg" version="1.1" viewBox="0 0 1024 1024"><g transform="scale(1, -1) translate(0, -900)"><path d="M 521 421 Q 511 428 495 434 Q 483 438 476 433 Q 470 429 475 413 Q 488 379 486 344 Q 480 155 497 103 Q 504 72 532 47 Q 622 -28 816 2 Q 838 6 863 13 Q 912 29 958 65 Q 979 81 965 108 Q 952 135 933 216 Q 932 232 925 238 Q 919 242 914 223 Q 886 135 867 108 Q 851 86 802 72 Q 691 42 590 79 Q 551 98 540 122 Q 519 161 523 267 L 525 298 Q 528 341 535 390 Q 535 394 536 397 C 538 412 538 412 521 421 Z" fill="black" /></g></svg>