<?xml version='1.0' encoding='utf-8'?>
<svg xmlns="http://www.w3.org/2000/svg" version="1.1" viewBox="0 0 1024 1024"><g transform="scale(1, -1) translate(0, -900)"><path d="M 578 727 Q 554 726 554 712 Q 557 702 581 686 Q 612 668 650 679 Q 687 703 765 720 Q 789 732 810 713 Q 814 706 809 561 Q 805 338 810 198 Q 813 95 804 83 Q 803 77 796 76 Q 784 75 732 81 Q 717 88 715 81 Q 711 74 741 50 Q 778 19 804 -12 Q 826 -39 836 -37 Q 848 -38 854 -20 Q 885 38 882 82 Q 855 418 872 606 Q 875 675 895 697 Q 904 709 902 714 Q 902 727 869 749 Q 812 786 764 766 Q 619 730 578 727 Z" fill="black" /></g></svg>