<?xml version='1.0' encoding='utf-8'?>
<svg xmlns="http://www.w3.org/2000/svg" version="1.1" viewBox="0 0 1024 1024"><g transform="scale(1, -1) translate(0, -900)"><path d="M 710 432 Q 798 454 820 446 Q 830 442 833 419 Q 837 337 831 271 Q 830 258 822 256 Q 813 252 761 254 Q 749 255 750 248 Q 751 241 768 232 Q 799 204 823 176 Q 836 161 851 163 Q 861 164 876 192 Q 894 220 894 281 Q 894 419 908 440 Q 920 456 905 471 Q 886 487 845 501 Q 824 510 772 485 Q 736 476 710 465 L 656 450 Q 590 434 555 426 C 526 419 538 393 568 398 Q 583 399 604 406 Q 631 413 656 419 L 710 432 Z" fill="black" /></g></svg>