<?xml version='1.0' encoding='utf-8'?>
<svg xmlns="http://www.w3.org/2000/svg" version="1.1" viewBox="0 0 1024 1024"><g transform="scale(1, -1) translate(0, -900)"><path d="M 404 224 Q 373 205 308 160 Q 299 154 295 157 Q 289 160 290 175 Q 289 244 288 296 L 288 326 Q 288 357 288 382 L 288 417 Q 288 447 291 477 C 293 496 293 496 271 504 Q 259 510 237 515 C 208 523 197 513 214 488 Q 232 466 239 434 Q 246 406 249 303 Q 250 219 237 171 Q 233 137 200 96 Q 190 84 198 64 Q 207 37 222 26 Q 234 17 246 32 Q 288 90 415 209 C 437 230 429 240 404 224 Z" fill="black" /></g></svg>