<?xml version='1.0' encoding='utf-8'?>
<svg xmlns="http://www.w3.org/2000/svg" version="1.1" viewBox="0 0 1024 1024"><g transform="scale(1, -1) translate(0, -900)"><path d="M 380 362 Q 370 372 357 378 C 331 394 319 375 329 347 Q 363 265 347 87 Q 343 41 305 -4 Q 295 -17 301 -39 Q 310 -64 321 -75 Q 333 -82 345 -67 Q 363 -42 516 60 Q 534 70 539 78 Q 543 87 535 88 Q 526 88 408 40 Q 390 33 391 50 Q 395 123 396 186 L 396 212 Q 396 240 396 265 L 395 287 Q 396 312 400 338 C 401 346 401 346 380 362 Z" fill="black" /></g></svg>