<?xml version='1.0' encoding='utf-8'?>
<svg xmlns="http://www.w3.org/2000/svg" version="1.1" viewBox="0 0 1024 1024"><g transform="scale(1, -1) translate(0, -900)"><path d="M 366 213 Q 341 198 290 163 Q 283 159 280 160 Q 273 166 276 292 L 276 325 Q 276 359 278 385 L 279 422 Q 280 462 282 471 Q 282 474 282 475 C 284 495 284 495 266 502 Q 253 509 222 517 C 193 525 185 518 202 493 Q 203 493 204 491 Q 234 455 237 331 Q 237 223 222 175 Q 218 141 185 100 Q 175 88 182 68 Q 192 41 206 30 Q 218 21 230 36 Q 266 88 375 196 C 396 217 391 229 366 213 Z" fill="black" /></g></svg>