<?xml version='1.0' encoding='utf-8'?>
<svg xmlns="http://www.w3.org/2000/svg" version="1.1" viewBox="0 0 1024 1024"><g transform="scale(1, -1) translate(0, -900)"><path d="M 370 196 Q 343 180 283 139 Q 274 135 271 137 Q 265 140 266 155 Q 265 224 264 276 L 264 309 Q 264 345 264 371 L 265 400 Q 265 427 267 455 C 268 472 268 472 245 481 Q 232 488 209 492 C 180 499 173 494 188 468 Q 218 429 225 294 Q 224 288 225 281 Q 226 199 213 151 Q 209 117 176 76 Q 166 64 174 44 Q 183 17 198 6 Q 210 -3 222 12 Q 259 67 381 182 C 403 203 396 212 370 196 Z" fill="black" /></g></svg>