<?xml version='1.0' encoding='utf-8'?>
<svg xmlns="http://www.w3.org/2000/svg" version="1.1" viewBox="0 0 1024 1024"><g transform="scale(1, -1) translate(0, -900)"><path d="M 555 518 Q 548 518 542 517 C 512 514 527 485 557 487 Q 576 486 610 493 Q 830 541 866 525 Q 879 519 882 489 Q 894 314 882 177 Q 879 149 863 145 Q 856 142 808 150 Q 793 154 794 145 Q 795 135 812 123 Q 843 90 868 56 Q 881 38 897 38 Q 915 42 937 91 Q 965 142 962 194 Q 956 318 950 433 Q 949 478 967 514 Q 982 532 965 549 Q 944 568 899 585 Q 878 597 820 572 Q 706 542 579 521 L 555 518 Z" fill="black" /></g></svg>