<?xml version='1.0' encoding='utf-8'?>
<svg xmlns="http://www.w3.org/2000/svg" version="1.1" viewBox="0 0 1024 1024"><g transform="scale(1, -1) translate(0, -900)"><path d="M 355 180 Q 327 167 259 120 Q 252 116 247 117 Q 244 119 245 187 Q 245 201 246 257 L 247 284 Q 248 318 250 341 L 251 372 Q 251 416 254 431 C 257 459 257 459 246 465 Q 236 473 203 482 C 174 491 168 484 182 458 Q 208 421 212 308 Q 212 190 192 132 Q 188 100 157 61 Q 147 51 153 31 Q 162 6 175 -6 Q 184 -14 198 0 Q 239 54 359 165 Q 360 169 363 169 C 385 190 382 194 355 180 Z" fill="black" /></g></svg>