<?xml version='1.0' encoding='utf-8'?>
<svg xmlns="http://www.w3.org/2000/svg" version="1.1" viewBox="0 0 1024 1024"><g transform="scale(1, -1) translate(0, -900)"><path d="M 225 495 Q 252 531 296 610 L 299 615 L 351 716 L 359 735 Q 359 737 361 737 Q 378 774 378 776 Q 374 788 357 801 Q 327 820 302 815 L 294 813 Q 285 809 289 798 Q 308 745 257 639 L 233 591 L 192 523 Q 185 516 182 509 Q 143 454 48 349 Q 46 347 47 347 Q 43 343 51 341 Q 91 353 152 415 L 206 472 L 225 495 Z" fill="black" /></g></svg>