<?xml version='1.0' encoding='utf-8'?>
<svg xmlns="http://www.w3.org/2000/svg" version="1.1" viewBox="0 0 1024 1024"><g transform="scale(1, -1) translate(0, -900)"><path d="M 718 443 Q 768 508 801 555 Q 813 572 827 588 L 855 612 Q 867 623 862 633 Q 862 639 835 651 Q 790 672 774 667 Q 767 665 759 659 Q 727 639 628 617 C 599 610 594 609 615 600 Q 631 587 666 592 Q 675 593 683 594 Q 688 596 722 606 Q 739 612 748 602 Q 751 597 741 577 Q 723 537 680 476 L 659 445 Q 582 359 484 270 Q 470 259 484 258 Q 496 259 538 283 Q 578 306 625 347 L 690 412 L 718 443 Z" fill="black" /></g></svg>