<?xml version='1.0' encoding='utf-8'?>
<svg xmlns="http://www.w3.org/2000/svg" version="1.1" viewBox="0 0 1024 1024"><g transform="scale(1, -1) translate(0, -900)"><path d="M 355 276 Q 355 275 356 274 Q 363 259 376 261 Q 389 264 396 280 Q 406 296 422 373 Q 435 424 467 454 Q 485 470 468 484 Q 450 499 401 521 Q 385 530 341 511 Q 317 511 246 476 C 219 463 228 434 254 448 Q 253 449 255 449 Q 283 464 351 485 Q 363 488 368 487 Q 378 481 375 450 Q 363 336 352 301 C 348 286 348 286 355 276 Z" fill="black" /></g></svg>