<?xml version='1.0' encoding='utf-8'?>
<svg xmlns="http://www.w3.org/2000/svg" version="1.1" viewBox="0 0 1024 1024"><g transform="scale(1, -1) translate(0, -900)"><path d="M 385 338 Q 369 351 355 357 C 329 371 318 364 330 336 Q 367 263 355 70 Q 351 27 316 -16 Q 292 -44 331 -84 Q 343 -91 354 -77 Q 370 -52 509 41 Q 527 51 531 59 Q 535 66 527 68 Q 521 68 414 26 Q 396 19 397 35 Q 400 108 400 170 L 400 196 Q 399 218 399 240 L 398 263 Q 398 306 403 312 C 405 323 405 323 385 338 Z" fill="black" /></g></svg>