<?xml version='1.0' encoding='utf-8'?>
<svg xmlns="http://www.w3.org/2000/svg" version="1.1" viewBox="0 0 1024 1024"><g transform="scale(1, -1) translate(0, -900)"><path d="M 516 310 Q 520 346 511 354 Q 489 376 471 379 Q 459 382 454 377 Q 445 371 456 359 Q 472 328 472 298 Q 476 199 468 166 Q 464 139 453 124 Q 441 105 449 85 Q 459 57 475 45 Q 485 38 496 56 Q 524 93 621 186 Q 637 199 638 207 Q 639 219 621 208 Q 584 186 541 162 Q 525 152 517 155 Q 510 159 510 176 Q 511 240 514 278 L 516 310 Z" fill="black" /></g></svg>