<?xml version='1.0' encoding='utf-8'?>
<svg xmlns="http://www.w3.org/2000/svg" version="1.1" viewBox="0 0 1024 1024"><g transform="scale(1, -1) translate(0, -900)"><path d="M 627 360 Q 643 360 666 369 Q 760 394 775 389 Q 785 383 783 358 Q 796 202 789 81 Q 788 56 773 51 Q 761 47 698 62 Q 685 65 686 56 Q 687 49 703 39 Q 742 8 771 -26 Q 787 -42 805 -41 Q 820 -38 839 7 Q 863 52 859 98 Q 852 209 844 310 Q 840 350 857 382 Q 869 398 854 411 Q 836 426 797 438 Q 779 447 735 424 Q 681 403 623 385 C 594 376 597 356 627 360 Z" fill="black" /></g></svg>