<?xml version='1.0' encoding='utf-8'?>
<svg xmlns="http://www.w3.org/2000/svg" version="1.1" viewBox="0 0 1024 1024"><g transform="scale(1, -1) translate(0, -900)"><path d="M 358 158 Q 324 139 262 98 Q 252 92 247 96 Q 241 99 243 115 Q 244 191 248 249 L 249 276 Q 250 307 252 332 L 254 367 Q 254 412 259 428 C 262 444 262 444 245 453 Q 236 462 201 470 C 172 478 167 474 183 449 Q 214 418 213 265 Q 213 259 213 251 Q 209 107 155 42 Q 133 21 169 -22 L 172 -25 Q 182 -34 195 -20 Q 240 35 369 143 C 392 162 384 173 358 158 Z" fill="black" /></g></svg>