<?xml version='1.0' encoding='utf-8'?>
<svg xmlns="http://www.w3.org/2000/svg" version="1.1" viewBox="0 0 1024 1024"><g transform="scale(1, -1) translate(0, -900)"><path d="M 707 276 Q 710 325 718 382 Q 722 400 710 410 Q 697 423 674 430 Q 661 434 653 429 Q 646 425 652 408 Q 665 369 664 332 Q 660 157 675 108 Q 679 86 699 68 Q 763 8 902 34 Q 908 37 917 38 Q 948 48 978 73 Q 997 86 987 112 Q 977 137 963 212 Q 964 228 957 234 Q 951 238 945 220 Q 909 141 889 119 Q 882 107 856 100 Q 802 85 748 106 Q 708 127 705 205 Q 705 227 706 250 L 707 276 Z" fill="black" /></g></svg>