<?xml version='1.0' encoding='utf-8'?>
<svg xmlns="http://www.w3.org/2000/svg" version="1.1" viewBox="0 0 1024 1024"><g transform="scale(1, -1) translate(0, -900)"><path d="M 686 487 Q 734 436 782 407 Q 861 364 888 367 Q 904 371 892 411 Q 885 433 879 494 Q 878 522 867 533 Q 860 540 857 527 Q 847 446 831 440 Q 810 433 757 469 Q 732 488 711 509 L 689 535 Q 686 539 684 542 Q 659 572 635 612 L 614 653 Q 572 737 574 790 Q 577 818 538 830 Q 496 845 474 837 Q 468 834 467 826 Q 467 820 475 811 Q 505 799 544 705 Q 560 668 581 632 L 603 595 Q 612 582 665 510 L 686 487 Z" fill="black" /></g></svg>