<?xml version='1.0' encoding='utf-8'?>
<svg xmlns="http://www.w3.org/2000/svg" version="1.1" viewBox="0 0 1024 1024"><g transform="scale(1, -1) translate(0, -900)"><path d="M 650 155 Q 740 32 854 -15 Q 927 -40 943 -23 Q 959 -11 946 20 Q 936 47 920 144 Q 919 163 914 166 Q 910 167 907 149 Q 880 56 856 55 Q 768 80 683 184 L 655 224 Q 639 240 605 316 L 590 358 Q 580 394 580 414 Q 581 439 539 449 Q 505 458 490 450 Q 474 443 490 423 Q 521 395 536 358 Q 540 345 548 332 L 566 297 Q 591 243 625 192 L 650 155 Z" fill="black" /></g></svg>