<?xml version='1.0' encoding='utf-8'?>
<svg xmlns="http://www.w3.org/2000/svg" version="1.1" viewBox="0 0 1024 1024"><g transform="scale(1, -1) translate(0, -900)"><path d="M 379 169 Q 348 151 280 107 Q 270 101 267 104 Q 260 108 261 124 Q 261 200 262 256 L 262 282 Q 263 316 264 342 L 264 371 Q 264 422 268 434 C 271 452 271 452 257 459 Q 245 469 210 477 Q 207 478 205 477 C 176 483 174 482 191 457 Q 224 424 227 273 Q 226 267 227 259 Q 227 114 174 49 Q 153 28 188 -12 Q 189 -13 193 -17 Q 203 -26 216 -12 Q 259 43 390 154 C 413 173 405 184 379 169 Z" fill="black" /></g></svg>