<?xml version='1.0' encoding='utf-8'?>
<svg xmlns="http://www.w3.org/2000/svg" version="1.1" viewBox="0 0 1024 1024"><g transform="scale(1, -1) translate(0, -900)"><path d="M 349 149 Q 319 133 259 91 Q 250 85 246 89 Q 240 92 241 107 Q 242 180 243 235 L 244 264 Q 245 298 246 325 L 248 362 Q 249 402 252 413 Q 252 416 252 417 C 254 433 254 433 237 441 Q 225 450 194 457 Q 191 458 190 457 C 164 462 164 462 174 440 Q 201 385 207 342 Q 213 171 192 103 Q 186 72 155 33 Q 145 23 152 3 Q 161 -22 174 -34 Q 184 -41 197 -28 Q 237 27 360 136 C 382 156 375 164 349 149 Z" fill="black" /></g></svg>