<?xml version='1.0' encoding='utf-8'?>
<svg xmlns="http://www.w3.org/2000/svg" version="1.1" viewBox="0 0 1024 1024"><g transform="scale(1, -1) translate(0, -900)"><path d="M 338 277 Q 351 264 362 258 Q 371 252 382 271 Q 392 293 407 407 Q 411 432 427 453 Q 437 463 427 474 Q 414 486 378 503 Q 363 509 320 490 Q 274 475 235 458 C 207 446 212 416 239 430 Q 238 431 240 431 Q 273 447 333 466 Q 345 470 351 467 Q 364 460 362 442 Q 352 334 345 318 Q 342 308 331 304 C 318 295 318 295 338 277 Z" fill="black" /></g></svg>