<?xml version='1.0' encoding='utf-8'?>
<svg xmlns="http://www.w3.org/2000/svg" version="1.1" viewBox="0 0 1024 1024"><g transform="scale(1, -1) translate(0, -900)"><path d="M 748 606 Q 761 609 812 625 Q 827 629 836 621 Q 846 611 846 575 Q 856 292 846 120 Q 845 99 839 90 Q 835 86 820 88 Q 793 98 766 109 Q 748 116 748 108 Q 800 53 826 15 Q 838 -4 852 -9 Q 861 -13 869 -4 Q 909 42 910 92 Q 900 258 897 531 Q 896 586 908 610 Q 920 629 908 638 Q 887 656 852 669 Q 836 676 821 670 Q 797 654 781 648 Q 765 642 735 635 C 706 628 719 598 748 606 Z" fill="black" /></g></svg>