<?xml version='1.0' encoding='utf-8'?>
<svg xmlns="http://www.w3.org/2000/svg" version="1.1" viewBox="0 0 1024 1024"><g transform="scale(1, -1) translate(0, -900)"><path d="M 327 190 Q 302 180 252 151 Q 245 147 242 150 Q 236 153 237 252 L 237 279 Q 237 316 237 343 L 238 365 Q 238 413 239 430 C 240 455 240 455 235 458 Q 226 465 195 474 C 166 483 162 476 177 450 Q 190 431 197 406 Q 204 381 205 285 Q 205 207 192 163 Q 188 135 159 102 Q 149 92 156 75 Q 163 53 174 43 Q 184 36 195 47 Q 229 90 336 177 C 359 196 354 202 327 190 Z" fill="black" /></g></svg>