<?xml version='1.0' encoding='utf-8'?>
<svg xmlns="http://www.w3.org/2000/svg" version="1.1" viewBox="0 0 1024 1024"><g transform="scale(1, -1) translate(0, -900)"><path d="M 364 333 Q 349 345 335 352 C 309 367 301 361 312 333 Q 346 260 329 78 Q 325 38 290 -3 Q 268 -30 304 -68 Q 314 -75 325 -61 Q 341 -39 482 51 Q 498 60 503 67 Q 507 74 499 76 Q 493 76 385 35 Q 367 28 368 44 Q 372 107 374 161 L 375 185 Q 376 215 376 241 L 375 259 Q 375 304 380 308 Q 380 309 382 309 C 385 318 385 318 364 333 Z" fill="black" /></g></svg>