<?xml version='1.0' encoding='utf-8'?>
<svg xmlns="http://www.w3.org/2000/svg" version="1.1" viewBox="0 0 1024 1024"><g transform="scale(1, -1) translate(0, -900)"><path d="M 496 461 Q 486 460 482 452 Q 481 446 491 443 Q 527 431 551 445 Q 623 475 722 502 Q 731 503 738 500 Q 745 496 743 482 Q 706 176 797 62 Q 807 47 823 31 Q 865 -12 917 -28 Q 933 -35 942 -26 Q 948 -19 946 -3 Q 939 52 934 149 Q 935 161 928 165 Q 924 169 919 156 Q 900 90 887 75 Q 877 71 865 78 Q 787 118 777 277 Q 770 389 795 452 Q 801 474 818 491 Q 839 509 781 548 Q 762 560 741 548 Q 723 538 692 529 Q 538 474 496 461 Z" fill="black" /></g></svg>