<?xml version='1.0' encoding='utf-8'?>
<svg xmlns="http://www.w3.org/2000/svg" version="1.1" viewBox="0 0 1024 1024"><g transform="scale(1, -1) translate(0, -900)"><path d="M 335 203 Q 307 188 248 151 Q 239 147 236 149 Q 232 152 231 269 L 231 299 Q 231 336 231 366 L 232 391 Q 232 443 234 457 C 236 478 236 478 224 484 Q 214 491 191 497 C 162 506 155 499 169 472 Q 209 411 194 216 Q 190 186 183 163 Q 179 133 149 97 Q 139 87 146 69 Q 153 45 166 34 Q 176 27 188 39 Q 227 90 344 189 C 367 208 361 218 335 203 Z" fill="black" /></g></svg>