<?xml version='1.0' encoding='utf-8'?>
<svg xmlns="http://www.w3.org/2000/svg" version="1.1" viewBox="0 0 1024 1024"><g transform="scale(1, -1) translate(0, -900)"><path d="M 736 541 Q 752 513 769 506 Q 779 499 793 518 Q 808 543 838 679 Q 845 707 867 731 Q 880 743 869 756 Q 854 772 815 795 Q 799 802 729 785 Q 726 785 597 758 Q 545 746 504 739 C 474 734 501 701 530 710 Q 567 722 624 733 L 660 740 Q 760 764 781 751 Q 794 741 791 721 Q 769 601 752 568 C 740 540 733 545 736 541 Z" fill="black" /></g></svg>