<?xml version='1.0' encoding='utf-8'?>
<svg xmlns="http://www.w3.org/2000/svg" version="1.1" viewBox="0 0 1024 1024"><g transform="scale(1, -1) translate(0, -900)"><path d="M 318 224 Q 288 209 233 175 Q 224 171 221 173 Q 214 176 216 191 Q 216 258 216 309 L 216 334 Q 217 368 218 395 L 218 417 Q 218 469 221 484 C 223 504 223 504 214 510 Q 207 519 174 527 C 145 535 141 528 155 501 Q 179 465 183 360 Q 183 237 168 187 Q 162 157 133 122 Q 123 112 129 93 Q 136 69 149 59 Q 159 52 171 64 Q 210 113 329 210 C 352 229 345 238 318 224 Z" fill="black" /></g></svg>