<?xml version='1.0' encoding='utf-8'?>
<svg xmlns="http://www.w3.org/2000/svg" version="1.1" viewBox="0 0 1024 1024"><g transform="scale(1, -1) translate(0, -900)"><path d="M 736 335 Q 736 329 739 322 Q 743 309 755 309 Q 768 310 775 324 Q 787 340 809 417 Q 824 463 857 488 Q 873 503 860 516 Q 844 532 800 556 Q 787 565 732 551 Q 704 551 603 528 Q 564 521 534 515 C 505 509 517 480 546 487 Q 549 487 553 488 Q 610 506 738 523 Q 760 526 769 521 Q 778 515 773 486 Q 752 386 742 358 L 736 335 Z" fill="black" /></g></svg>