<?xml version='1.0' encoding='utf-8'?>
<svg xmlns="http://www.w3.org/2000/svg" version="1.1" viewBox="0 0 1024 1024"><g transform="scale(1, -1) translate(0, -900)"><path d="M 332 156 Q 301 140 242 106 Q 232 102 229 104 Q 223 110 226 245 L 226 267 Q 227 301 229 326 L 230 353 Q 231 408 234 419 C 236 439 236 439 222 445 Q 210 452 180 461 Q 165 462 161 458 Q 155 454 165 438 Q 210 378 187 164 Q 183 140 177 119 Q 171 89 140 54 Q 130 44 137 26 Q 144 2 156 -9 Q 166 -16 178 -4 Q 220 45 341 141 C 364 160 359 170 332 156 Z" fill="black" /></g></svg>