<?xml version='1.0' encoding='utf-8'?>
<svg xmlns="http://www.w3.org/2000/svg" version="1.1" viewBox="0 0 1024 1024"><g transform="scale(1, -1) translate(0, -900)"><path d="M 730 636 Q 785 652 831 659 Q 844 660 847 657 Q 856 645 851 615 Q 841 530 821 491 Q 806 466 783 469 Q 761 473 740 481 Q 721 487 735 468 Q 772 434 791 408 Q 807 390 821 405 Q 866 435 887 533 Q 902 635 917 657 Q 927 669 922 677 Q 915 687 871 705 Q 853 712 837 702 Q 822 692 762 677 Q 701 661 650 657 Q 635 656 633 649 Q 632 642 652 632 Q 671 620 700 628 L 730 636 Z" fill="black" /></g></svg>