<?xml version='1.0' encoding='utf-8'?>
<svg xmlns="http://www.w3.org/2000/svg" version="1.1" viewBox="0 0 1024 1024"><g transform="scale(1, -1) translate(0, -900)"><path d="M 355 166 Q 325 151 255 110 Q 246 106 243 108 Q 236 112 237 128 Q 237 198 237 254 L 237 277 Q 237 322 238 354 L 238 380 Q 239 434 241 446 Q 241 449 241 450 C 242 465 242 465 227 473 Q 217 482 186 488 C 157 495 151 491 166 465 Q 194 429 200 296 Q 200 283 201 267 Q 202 120 149 54 Q 128 33 162 -8 Q 163 -9 167 -13 Q 179 -20 190 -8 Q 233 44 364 152 C 387 171 382 180 355 166 Z" fill="black" /></g></svg>