<?xml version='1.0' encoding='utf-8'?>
<svg xmlns="http://www.w3.org/2000/svg" version="1.1" viewBox="0 0 1024 1024"><g transform="scale(1, -1) translate(0, -900)"><path d="M 755 56 Q 765 34 786 -9 Q 793 -25 803 -24 Q 816 -21 825 2 Q 850 53 866 223 Q 870 266 891 293 Q 907 312 896 323 Q 877 342 834 362 Q 818 372 787 361 Q 672 322 498 312 C 468 310 486 273 516 277 Q 520 277 525 278 Q 565 285 619 294 L 653 299 Q 788 323 804 308 Q 813 304 812 283 Q 813 187 795 94 Q 794 78 787 76 Q 783 75 770 80 Q 766 84 759 88 Q 750 92 747 88 C 739 90 742 83 755 56 Z" fill="black" /></g></svg>