<?xml version='1.0' encoding='utf-8'?>
<svg xmlns="http://www.w3.org/2000/svg" version="1.1" viewBox="0 0 1024 1024"><g transform="scale(1, -1) translate(0, -900)"><path d="M 689 112 Q 726 158 761 229 Q 773 254 792 270 Q 810 283 799 296 Q 787 308 759 320 Q 738 327 713 316 Q 685 303 648 291 Q 609 278 546 268 Q 533 267 529 260 Q 525 253 543 247 Q 577 235 623 251 Q 686 276 697 276 Q 713 275 709 257 Q 690 187 654 140 Q 653 140 653 139 L 629 113 Q 559 47 421 15 Q 408 11 418 3 Q 424 -1 468 1 Q 579 10 660 82 L 689 112 Z" fill="black" /></g></svg>