<?xml version='1.0' encoding='utf-8'?>
<svg xmlns="http://www.w3.org/2000/svg" version="1.1" viewBox="0 0 1024 1024"><g transform="scale(1, -1) translate(0, -900)"><path d="M 786 371 Q 799 349 813 343 Q 822 336 834 353 Q 843 363 863 425 Q 870 450 889 472 Q 899 482 890 494 Q 877 507 841 529 Q 828 535 758 518 Q 737 517 602 485 Q 539 470 488 461 C 458 456 476 428 505 433 Q 511 433 518 435 Q 542 442 573 451 L 591 455 Q 631 467 685 476 L 717 483 Q 790 504 812 488 Q 819 484 817 474 Q 805 401 793 393 C 783 376 783 376 786 371 Z" fill="black" /></g></svg>