<?xml version='1.0' encoding='utf-8'?>
<svg xmlns="http://www.w3.org/2000/svg" version="1.1" viewBox="0 0 1024 1024"><g transform="scale(1, -1) translate(0, -900)"><path d="M 365 164 Q 331 148 256 107 Q 246 103 243 106 Q 236 110 237 126 Q 237 210 238 271 L 239 295 Q 239 326 241 351 L 241 375 Q 241 435 246 449 C 249 468 249 468 234 475 Q 222 484 190 492 C 161 500 153 496 167 470 Q 195 427 199 333 Q 199 174 183 123 Q 176 89 142 51 Q 130 41 138 19 Q 145 -8 159 -20 Q 171 -29 184 -15 Q 232 40 374 148 C 398 166 392 177 365 164 Z" fill="black" /></g></svg>