<?xml version='1.0' encoding='utf-8'?>
<svg xmlns="http://www.w3.org/2000/svg" version="1.1" viewBox="0 0 1024 1024"><g transform="scale(1, -1) translate(0, -900)"><path d="M 339 278 Q 354 265 360 261 Q 368 255 376 262 Q 382 269 388 288 Q 396 316 409 409 Q 412 431 425 451 Q 435 464 433 468 Q 425 482 379 505 Q 369 509 347 502 L 321 492 Q 275 476 235 460 C 207 449 212 423 240 433 L 241 433 Q 247 435 263 442 Q 335 472 349 470 Q 359 466 363 459 Q 363 456 363 443 Q 355 341 347 321 Q 343 310 332 306 C 318 296 318 296 339 278 Z" fill="black" /></g></svg>