<?xml version='1.0' encoding='utf-8'?>
<svg xmlns="http://www.w3.org/2000/svg" version="1.1" viewBox="0 0 1024 1024"><g transform="scale(1, -1) translate(0, -900)"><path d="M 235 460 Q 228 466 196 476 C 168 485 161 478 177 452 Q 186 439 190 429 Q 204 396 206 286 Q 206 208 192 164 Q 188 135 160 102 Q 149 92 157 71 Q 165 52 174 43 Q 184 36 196 47 Q 231 91 337 177 C 360 196 355 202 328 190 Q 291 174 263 157 Q 249 149 245 149 Q 243 150 243 152 Q 237 161 237 243 L 237 253 L 237 280 L 237 344 L 239 367 Q 239 428 240 433 C 241 457 241 457 235 460 Z" fill="black" /></g></svg>