<?xml version='1.0' encoding='utf-8'?>
<svg xmlns="http://www.w3.org/2000/svg" version="1.1" viewBox="0 0 1024 1024"><g transform="scale(1, -1) translate(0, -900)"><path d="M 493 716 Q 484 723 470 729 Q 460 732 454 728 Q 450 725 453 712 Q 463 684 463 657 Q 460 519 483 501 Q 532 468 617 493 Q 636 499 656 513 Q 666 522 659 536 Q 652 549 641 589 Q 641 599 636 601 Q 633 602 630 593 Q 608 533 583 524 Q 546 515 519 524 Q 507 528 504 536 Q 494 554 494 598 L 495 625 Q 496 658 502 694 L 502 696 C 504 709 504 709 493 716 Z" fill="black" /></g></svg>