<?xml version='1.0' encoding='utf-8'?>
<svg xmlns="http://www.w3.org/2000/svg" version="1.1" viewBox="0 0 1024 1024"><g transform="scale(1, -1) translate(0, -900)"><path d="M 715 759 Q 703 771 686 777 Q 676 778 670 775 Q 666 772 670 759 Q 680 731 680 704 Q 679 571 707 541 Q 761 499 862 526 Q 884 533 905 551 Q 917 561 909 577 Q 902 590 889 632 Q 889 642 884 645 Q 880 648 878 636 Q 851 570 825 563 Q 777 553 743 567 Q 728 574 723 585 Q 714 601 712 631 L 712 660 Q 712 694 718 735 C 721 754 721 754 715 759 Z" fill="black" /></g></svg>