<?xml version='1.0' encoding='utf-8'?>
<svg xmlns="http://www.w3.org/2000/svg" version="1.1" viewBox="0 0 1024 1024"><g transform="scale(1, -1) translate(0, -900)"><path d="M 353 195 Q 322 182 263 152 Q 254 148 251 151 Q 245 154 247 169 Q 248 230 250 279 L 251 308 Q 252 341 254 366 L 255 398 Q 256 447 260 462 C 263 484 263 484 253 490 Q 243 500 208 509 Q 195 512 189 507 Q 183 503 192 486 Q 208 464 214 434 Q 220 406 217 301 Q 216 216 198 168 Q 191 137 160 104 Q 150 94 155 76 Q 162 51 173 40 Q 183 33 195 44 Q 238 90 361 178 C 385 196 380 207 353 195 Z" fill="black" /></g></svg>