<?xml version='1.0' encoding='utf-8'?>
<svg xmlns="http://www.w3.org/2000/svg" version="1.1" viewBox="0 0 1024 1024"><g transform="scale(1, -1) translate(0, -900)"><path d="M 310 158 Q 286 145 233 108 Q 226 104 223 106 Q 217 109 218 124 Q 219 197 220 252 L 220 275 Q 221 308 222 331 L 222 352 Q 222 403 226 416 C 228 432 228 432 216 439 Q 209 446 185 452 C 156 461 147 450 162 424 Q 174 406 180 382 Q 186 354 187 251 Q 187 167 172 119 Q 168 88 138 53 Q 128 43 135 24 Q 144 0 156 -10 Q 166 -17 178 -5 Q 212 44 318 145 C 340 166 336 173 310 158 Z" fill="black" /></g></svg>