<?xml version='1.0' encoding='utf-8'?>
<svg xmlns="http://www.w3.org/2000/svg" version="1.1" viewBox="0 0 1024 1024"><g transform="scale(1, -1) translate(0, -900)"><path d="M 831 493 Q 801 489 769 479 Q 750 472 762 488 Q 837 587 873 621 Q 882 628 877 635 Q 870 648 845 663 Q 835 669 827 667 Q 820 666 821 653 Q 821 641 800 591 L 789 572 Q 788 571 787 568 Q 730 484 706 468 Q 696 461 698 451 Q 699 441 719 427 Q 726 420 737 428 Q 770 455 834 481 L 836 481 C 864 491 861 497 831 493 Z" fill="black" /></g></svg>