<?xml version='1.0' encoding='utf-8'?>
<svg xmlns="http://www.w3.org/2000/svg" version="1.1" viewBox="0 0 1024 1024"><g transform="scale(1, -1) translate(0, -900)"><path d="M 341 196 Q 314 183 245 139 Q 238 135 234 137 Q 228 140 229 156 Q 229 223 229 274 L 229 296 Q 229 335 229 363 L 229 390 Q 229 442 231 458 C 232 480 232 480 226 485 Q 205 506 167 506 C 142 508 142 508 154 489 Q 155 485 159 480 Q 186 446 192 316 Q 192 153 150 91 Q 116 61 158 17 Q 158 16 161 14 Q 173 7 184 20 Q 224 72 345 180 Q 346 181 349 183 C 372 203 368 210 341 196 Z" fill="black" /></g></svg>