<?xml version='1.0' encoding='utf-8'?>
<svg xmlns="http://www.w3.org/2000/svg" version="1.1" viewBox="0 0 1024 1024"><g transform="scale(1, -1) translate(0, -900)"><path d="M 333 179 Q 311 169 245 133 Q 238 129 235 132 Q 229 135 230 151 Q 230 227 231 285 L 231 306 Q 231 343 232 371 L 232 389 Q 233 441 235 455 C 237 476 237 476 228 481 Q 219 490 192 497 C 163 506 153 496 167 469 Q 191 435 194 325 Q 194 193 179 147 Q 173 116 142 78 Q 132 68 138 48 Q 145 23 159 11 Q 169 4 182 16 Q 219 64 332 160 Q 335 163 338 165 C 361 184 360 192 333 179 Z" fill="black" /></g></svg>