<?xml version='1.0' encoding='utf-8'?>
<svg xmlns="http://www.w3.org/2000/svg" version="1.1" viewBox="0 0 1024 1024"><g transform="scale(1, -1) translate(0, -900)"><path d="M 548 566 Q 518 553 488 539 Q 478 535 472 538 Q 465 539 465 558 Q 466 586 468 609 L 469 631 Q 470 658 471 675 L 471 699 Q 471 720 475 742 C 477 754 477 754 463 763 Q 450 773 437 777 Q 424 781 417 778 Q 410 774 419 759 Q 449 717 432 552 Q 428 528 410 501 Q 401 486 408 477 Q 414 467 433 460 Q 445 454 455 467 Q 468 495 543 539 Q 553 545 561 551 C 586 568 575 578 548 566 Z" fill="black" /></g></svg>