<?xml version='1.0' encoding='utf-8'?>
<svg xmlns="http://www.w3.org/2000/svg" version="1.1" viewBox="0 0 1024 1024"><g transform="scale(1, -1) translate(0, -900)"><path d="M 386 273 Q 374 280 354 286 Q 350 287 348 286 C 327 290 327 290 333 276 Q 334 272 338 264 Q 380 204 344 52 Q 341 49 341 44 Q 334 16 302 -14 Q 292 -23 296 -40 Q 300 -62 311 -74 Q 321 -81 332 -71 Q 369 -34 480 37 Q 493 43 496 50 Q 497 54 493 55 Q 486 56 400 25 Q 393 24 391 26 Q 387 27 388 39 Q 389 79 391 111 L 393 132 Q 394 160 396 181 L 398 202 Q 398 245 403 249 C 407 263 407 263 386 273 Z" fill="black" /></g></svg>