<?xml version='1.0' encoding='utf-8'?>
<svg xmlns="http://www.w3.org/2000/svg" version="1.1" viewBox="0 0 1024 1024"><g transform="scale(1, -1) translate(0, -900)"><path d="M 398 277 Q 391 281 377 285 C 349 295 337 291 350 264 Q 371 231 370 131 Q 370 71 355 28 Q 348 -2 315 -35 Q 305 -44 310 -63 Q 316 -87 327 -98 Q 337 -107 349 -95 Q 386 -55 499 23 Q 514 30 516 38 Q 517 42 513 43 Q 506 44 418 10 Q 411 7 408 10 Q 404 11 405 24 Q 406 75 408 114 L 409 137 Q 410 168 412 189 L 413 210 Q 414 240 417 246 Q 418 250 418 255 C 420 268 420 268 398 277 Z" fill="black" /></g></svg>