<?xml version='1.0' encoding='utf-8'?>
<svg xmlns="http://www.w3.org/2000/svg" version="1.1" viewBox="0 0 1024 1024"><g transform="scale(1, -1) translate(0, -900)"><path d="M 383 270 Q 361 289 349 290 C 321 300 312 300 330 276 Q 369 237 353 77 Q 350 38 318 -1 Q 308 -13 314 -31 Q 321 -53 332 -62 Q 342 -69 352 -55 Q 365 -34 484 51 Q 500 60 504 67 Q 507 74 499 76 Q 487 76 404 38 Q 391 32 391 45 Q 392 79 394 111 L 394 131 Q 395 158 395 181 L 395 202 Q 395 244 399 247 C 401 256 401 256 383 270 Z" fill="black" /></g></svg>