<?xml version='1.0' encoding='utf-8'?>
<svg xmlns="http://www.w3.org/2000/svg" version="1.1" viewBox="0 0 1024 1024"><g transform="scale(1, -1) translate(0, -900)"><path d="M 698 351 Q 700 352 705 353 Q 767 367 774 373 Q 781 379 776 385 Q 774 389 766 393 Q 740 408 710 394 Q 709 394 708 392 C 700 387 690 384 661 376 L 610 361 Q 602 361 598 359 L 559 351 Q 517 345 482 339 L 478 339 Q 465 335 469 328 Q 470 327 472 326 Q 498 305 563 319 L 564 319 L 595 327 Q 625 336 662 342 L 698 351 Z" fill="black" /></g></svg>