<?xml version='1.0' encoding='utf-8'?>
<svg xmlns="http://www.w3.org/2000/svg" version="1.1" viewBox="0 0 1024 1024"><g transform="scale(1, -1) translate(0, -900)"><path d="M 480 601 Q 487 592 494 588 Q 500 584 510 596 Q 517 606 534 664 Q 538 683 553 699 Q 562 706 554 716 Q 544 726 517 743 Q 505 749 462 736 Q 432 730 398 720 Q 376 716 356 710 C 327 702 343 679 371 688 Q 408 701 476 713 Q 489 716 496 711 Q 502 707 501 698 Q 491 643 486 634 Q 483 627 474 625 Q 470 625 468 622 C 463 620 463 620 480 601 Z" fill="black" /></g></svg>