<?xml version='1.0' encoding='utf-8'?>
<svg xmlns="http://www.w3.org/2000/svg" version="1.1" viewBox="0 0 1024 1024"><g transform="scale(1, -1) translate(0, -900)"><path d="M 319 187 Q 291 168 239 129 Q 230 123 227 126 Q 221 129 222 143 Q 222 207 223 256 L 224 281 Q 224 315 226 339 L 226 368 Q 227 413 230 423 Q 231 430 230 436 C 231 446 231 446 205 455 Q 195 459 176 465 Q 161 466 157 462 Q 151 456 161 441 Q 188 405 191 278 Q 190 272 191 265 Q 188 130 143 72 Q 133 62 140 43 Q 149 19 162 9 Q 172 2 183 15 Q 219 67 330 172 C 352 193 344 204 319 187 Z" fill="black" /></g></svg>