<?xml version='1.0' encoding='utf-8'?>
<svg xmlns="http://www.w3.org/2000/svg" version="1.1" viewBox="0 0 1024 1024"><g transform="scale(1, -1) translate(0, -900)"><path d="M 323 270 Q 335 259 342 254 Q 355 246 367 263 Q 376 285 392 392 Q 396 416 412 433 Q 419 443 417 450 Q 416 461 368 486 Q 355 488 295 468 L 227 445 Q 222 445 217 441 C 189 430 198 410 227 417 Q 232 417 237 419 Q 318 454 339 451 Q 341 451 343 449 Q 353 443 351 427 L 351 425 Q 338 312 326 298 C 316 277 316 277 323 270 Z" fill="black" /></g></svg>