<?xml version='1.0' encoding='utf-8'?>
<svg xmlns="http://www.w3.org/2000/svg" version="1.1" viewBox="0 0 1024 1024"><g transform="scale(1, -1) translate(0, -900)"><path d="M 217 441 Q 210 448 186 454 C 157 463 149 451 163 425 Q 172 410 177 396 Q 186 366 188 252 Q 188 166 172 120 Q 169 88 139 53 Q 127 43 137 20 Q 145 0 157 -10 Q 167 -18 178 -5 Q 212 42 319 145 C 341 166 338 174 312 159 Q 291 148 263 127 Q 233 106 226 106 Q 218 106 219 124 L 221 253 L 221 276 Q 221 293 223 332 L 223 353 Q 223 405 227 417 C 230 434 230 434 217 441 Z" fill="black" /></g></svg>