<?xml version='1.0' encoding='utf-8'?>
<svg xmlns="http://www.w3.org/2000/svg" version="1.1" viewBox="0 0 1024 1024"><g transform="scale(1, -1) translate(0, -900)"><path d="M 461 233 Q 454 239 435 244 C 406 253 397 252 411 226 Q 445 172 424 52 Q 421 42 419 32 Q 412 7 382 -21 Q 373 -28 377 -46 Q 381 -67 391 -77 Q 398 -84 410 -75 Q 450 -41 568 23 Q 581 27 584 34 Q 585 38 581 39 Q 574 40 478 13 Q 471 12 469 14 Q 466 17 465 96 L 465 115 Q 465 134 466 149 L 467 172 Q 467 197 469 206 C 471 227 471 227 461 233 Z" fill="black" /></g></svg>