<?xml version='1.0' encoding='utf-8'?>
<svg xmlns="http://www.w3.org/2000/svg" version="1.1" viewBox="0 0 1024 1024"><g transform="scale(1, -1) translate(0, -900)"><path d="M 355 515 Q 358 515 364 517 Q 389 527 459 544 Q 465 545 469 542 Q 478 539 479 526 Q 483 493 478 432 Q 478 416 463 416 Q 447 416 434 415 Q 424 416 427 411 Q 430 405 447 396 Q 466 381 479 365 Q 486 361 492 363 Q 511 376 516 432 Q 516 535 518 539 Q 518 540 519 540 Q 525 547 521 554 Q 515 561 491 573 Q 484 577 346 540 C 317 532 326 508 355 515 Z" fill="black" /></g></svg>