<?xml version='1.0' encoding='utf-8'?>
<svg xmlns="http://www.w3.org/2000/svg" version="1.1" viewBox="0 0 1024 1024"><g transform="scale(1, -1) translate(0, -900)"><path d="M 978 99 Q 997 109 989 131 Q 973 173 961 231 Q 955 262 948 268 Q 941 272 938 261 Q 920 165 887 135 Q 874 128 845 125 Q 808 124 786 130 Q 764 137 755 148 Q 722 196 758 438 Q 764 487 775 527 Q 782 563 814 590 Q 827 606 812 620 Q 791 636 745 652 Q 726 656 708 645 Q 666 614 600 596 C 571 587 580 557 609 564 Q 633 567 692 591 Q 704 595 710 592 Q 714 588 709 486 Q 687 161 718 121 Q 763 58 892 74 Q 935 78 978 99 Z" fill="black" /></g></svg>