<?xml version='1.0' encoding='utf-8'?>
<svg xmlns="http://www.w3.org/2000/svg" version="1.1" viewBox="0 0 1024 1024"><g transform="scale(1, -1) translate(0, -900)"><path d="M 186 454 Q 255 553 321 694 L 330 713 Q 331 717 333 721 Q 334 723 347 743 Q 353 753 345 762 Q 343 766 337 770 Q 305 796 277 790 Q 275 790 274 790 Q 264 787 265 777 Q 267 772 269 766 Q 280 715 235 617 Q 220 583 198 545 L 161 484 Q 122 428 27 324 Q 22 318 31 318 Q 46 321 137 398 Q 138 402 163 425 L 186 454 Z" fill="black" /></g></svg>