<?xml version='1.0' encoding='utf-8'?>
<svg xmlns="http://www.w3.org/2000/svg" version="1.1" viewBox="0 0 1024 1024"><g transform="scale(1, -1) translate(0, -900)"><path d="M 447 401 Q 434 400 439 385 Q 443 373 466 365 Q 482 359 523 367 Q 712 427 720 423 Q 727 419 723 401 Q 641 82 844 5 Q 929 -20 970 -10 Q 992 0 983 31 Q 964 89 955 154 Q 951 185 945 192 Q 938 199 932 183 Q 913 83 893 61 Q 874 52 852 63 Q 770 93 754 174 Q 730 270 769 361 Q 785 395 811 417 Q 826 429 820 439 Q 813 452 759 476 Q 744 483 730 473 Q 687 448 578 421 Q 506 403 447 401 Z" fill="black" /></g></svg>