<?xml version='1.0' encoding='utf-8'?>
<svg xmlns="http://www.w3.org/2000/svg" version="1.1" viewBox="0 0 1024 1024"><g transform="scale(1, -1) translate(0, -900)"><path d="M 974 61 Q 990 76 973 104 Q 954 155 947 220 Q 946 230 938 240 Q 928 246 925 222 Q 892 114 885 106 Q 881 94 858 90 Q 824 80 776 82 Q 742 82 718 92 Q 688 101 674 141 Q 662 183 660 300 L 660 333 Q 660 367 666 545 L 671 595 Q 681 715 699 741 Q 706 763 688 777 Q 660 802 621 812 Q 602 816 594 806 Q 585 797 593 788 Q 608 775 615 753 Q 619 728 615 576 L 613 531 Q 609 417 611 319 L 613 284 Q 616 107 663 67 Q 667 63 676 57 Q 748 9 894 28 Q 906 31 917 33 Q 957 45 974 61 Z" fill="black" /></g></svg>