<?xml version='1.0' encoding='utf-8'?>
<svg xmlns="http://www.w3.org/2000/svg" version="1.1" viewBox="0 0 1024 1024"><g transform="scale(1, -1) translate(0, -900)"><path d="M 625 385 Q 549 369 486 365 Q 467 364 463 354 Q 462 345 488 332 Q 516 314 538 323 Q 577 335 615 344 L 677 359 Q 725 371 769 377 Q 791 380 796 373 Q 806 354 798 307 Q 779 177 745 120 Q 727 89 700 93 Q 666 106 635 121 Q 610 130 627 105 Q 682 54 707 16 Q 729 -9 750 12 Q 784 36 807 80 Q 835 131 855 289 Q 862 344 881 372 Q 894 387 888 398 Q 878 410 823 435 Q 801 445 780 430 Q 758 418 689 400 L 625 385 Z" fill="black" /></g></svg>