<?xml version='1.0' encoding='utf-8'?>
<svg xmlns="http://www.w3.org/2000/svg" version="1.1" viewBox="0 0 1024 1024"><g transform="scale(1, -1) translate(0, -900)"><path d="M 736 193 Q 773 244 818 385 Q 828 413 847 433 Q 865 451 851 463 Q 838 475 805 484 Q 787 488 717 458 Q 633 434 582 426 Q 578 426 575 424 C 546 418 543 413 572 405 Q 576 405 579 403 Q 616 390 663 407 Q 727 432 738 432 Q 763 431 758 403 Q 743 319 699 230 L 676 196 Q 610 118 503 80 Q 490 74 502 68 Q 508 62 548 65 Q 629 74 707 156 L 736 193 Z" fill="black" /></g></svg>