<?xml version='1.0' encoding='utf-8'?>
<svg xmlns="http://www.w3.org/2000/svg" version="1.1" viewBox="0 0 1024 1024"><g transform="scale(1, -1) translate(0, -900)"><path d="M 519 720 Q 497 720 497 708 Q 498 698 521 682 Q 545 666 558 667 Q 567 667 579 673 Q 640 701 752 719 Q 797 731 817 715 Q 821 708 817 564 Q 811 344 817 207 Q 821 107 812 94 Q 808 85 795 84 Q 782 83 706 95 Q 693 96 691 91 Q 690 84 717 67 Q 768 39 803 8 Q 834 -20 845 -15 Q 855 -12 863 4 Q 885 53 882 92 Q 837 632 894 698 Q 901 710 900 716 Q 901 726 870 748 Q 822 781 793 772 Q 658 724 519 720 Z" fill="black" /></g></svg>