<?xml version='1.0' encoding='utf-8'?>
<svg xmlns="http://www.w3.org/2000/svg" version="1.1" viewBox="0 0 1024 1024"><g transform="scale(1, -1) translate(0, -900)"><path d="M 509 501 Q 508 501 506 501 C 477 494 502 460 530 470 Q 596 500 821 523 Q 831 524 835 519 Q 845 512 846 466 Q 858 270 836 158 Q 832 127 804 129 Q 764 139 727 147 Q 714 151 714 145 Q 713 139 724 128 Q 803 70 826 38 Q 838 22 848 26 Q 864 30 876 58 Q 910 127 907 365 Q 903 489 915 516 Q 931 537 917 542 Q 901 555 865 570 Q 847 580 789 563 Q 633 539 535 508 C 509 500 509 502 509 501 Z" fill="black" /></g></svg>