<?xml version='1.0' encoding='utf-8'?>
<svg xmlns="http://www.w3.org/2000/svg" version="1.1" viewBox="0 0 1024 1024"><g transform="scale(1, -1) translate(0, -900)"><path d="M 699 439 Q 739 448 782 452 Q 810 456 814 437 Q 826 278 806 252 Q 800 248 747 251 Q 731 254 729 249 Q 726 243 737 235 Q 788 201 818 173 Q 833 161 844 175 Q 869 208 870 282 Q 864 385 874 444 Q 878 463 867 473 Q 840 497 822 506 Q 809 512 801 502 Q 794 495 700 471 L 651 461 Q 611 457 543 445 C 513 440 521 405 551 409 Q 558 409 567 411 Q 607 421 651 430 L 699 439 Z" fill="black" /></g></svg>