<?xml version='1.0' encoding='utf-8'?>
<svg xmlns="http://www.w3.org/2000/svg" version="1.1" viewBox="0 0 1024 1024"><g transform="scale(1, -1) translate(0, -900)"><path d="M 965 108 Q 952 135 933 216 Q 932 232 925 238 Q 919 242 914 223 Q 886 135 867 108 Q 851 86 800 72 Q 680 39 582 79 Q 543 98 532 122 Q 513 158 517 268 L 520 297 Q 523 342 531 390 Q 531 394 531 396 C 533 410 533 410 518 419 Q 508 429 491 434 Q 479 438 472 433 Q 466 429 471 414 Q 484 378 481 345 Q 474 155 489 103 Q 496 73 524 48 Q 614 -27 812 3 Q 836 7 860 14 Q 909 30 958 65 Q 979 81 965 108 Z" fill="black" /></g></svg>