<?xml version='1.0' encoding='utf-8'?>
<svg xmlns="http://www.w3.org/2000/svg" version="1.1" viewBox="0 0 1024 1024"><g transform="scale(1, -1) translate(0, -900)"><path d="M 686 484 Q 788 382 858 378 Q 879 381 873 407 Q 866 432 867 546 Q 867 556 862 557 Q 858 557 855 547 Q 845 520 834 495 Q 821 461 808 462 Q 784 461 725 508 L 694 539 Q 673 560 639 610 L 618 646 Q 579 721 588 777 Q 589 793 556 808 Q 522 823 513 818 Q 503 814 509 799 Q 531 780 542 741 Q 560 680 585 630 L 604 594 Q 629 554 661 513 L 686 484 Z" fill="black" /></g></svg>