<?xml version='1.0' encoding='utf-8'?>
<svg xmlns="http://www.w3.org/2000/svg" version="1.1" viewBox="0 0 1024 1024"><g transform="scale(1, -1) translate(0, -900)"><path d="M 576 444 Q 576 466 579 488 Q 583 510 579 519 Q 572 531 543 545 C 517 559 510 554 518 525 Q 517 525 518 524 Q 527 506 527 431 L 528 392 Q 528 358 528 312 L 528 273 Q 531 116 520 100 Q 513 96 447 115 Q 437 118 437 112 Q 437 105 446 97 Q 495 51 528 14 Q 538 7 549 20 Q 579 62 580 153 Q 574 271 573 303 L 573 333 Q 572 370 574 405 L 576 444 Z" fill="black" /></g></svg>