<?xml version='1.0' encoding='utf-8'?>
<svg xmlns="http://www.w3.org/2000/svg" version="1.1" viewBox="0 0 1024 1024"><g transform="scale(1, -1) translate(0, -900)"><path d="M 740 230 L 741 229 Q 792 76 887 -19 Q 914 -43 928 -44 Q 941 -45 950 -35 Q 957 -26 952 16 Q 946 55 952 142 Q 956 169 947 171 Q 940 172 930 148 Q 906 64 888 75 Q 840 108 776 264 L 762 307 Q 738 395 729 449 L 722 497 Q 695 699 705 764 Q 718 795 694 816 Q 690 820 686 822 Q 667 837 653 839 Q 641 839 641 838 Q 619 834 636 811 Q 645 807 659 707 Q 663 595 681 480 L 688 437 Q 706 335 729 264 L 740 230 Z" fill="black" /></g></svg>