<?xml version='1.0' encoding='utf-8'?>
<svg xmlns="http://www.w3.org/2000/svg" version="1.1" viewBox="0 0 1024 1024"><g transform="scale(1, -1) translate(0, -900)"><path d="M 610 351 Q 619 375 630 389 Q 639 396 636 406 Q 630 419 593 447 Q 583 456 571 452 Q 558 448 566 433 Q 576 411 568 387 Q 561 365 555 344 L 544 311 Q 523 256 503 224 Q 493 208 497 194 Q 498 184 516 181 Q 579 162 615 138 L 659 111 Q 714 75 790 11 Q 815 -10 833 -9 Q 854 -9 854 11 Q 855 30 827 77 Q 815 99 786 112 Q 737 134 696 151 L 647 171 Q 598 192 561 201 Q 539 205 551 226 Q 578 286 595 320 L 610 351 Z" fill="black" /></g></svg>