<?xml version='1.0' encoding='utf-8'?>
<svg xmlns="http://www.w3.org/2000/svg" version="1.1" viewBox="0 0 1024 1024"><g transform="scale(1, -1) translate(0, -900)"><path d="M 683 127 Q 720 173 754 242 Q 769 270 790 287 Q 811 302 798 317 Q 786 330 755 344 Q 734 353 661 327 L 619 315 Q 574 305 504 298 Q 489 298 484 290 Q 480 283 499 275 Q 536 260 587 275 Q 668 300 683 298 Q 702 295 696 274 Q 677 207 643 158 L 619 129 Q 541 56 393 20 Q 378 16 390 7 Q 397 3 443 5 Q 501 9 570 41 Q 615 62 652 93 L 683 127 Z" fill="black" /></g></svg>