<?xml version='1.0' encoding='utf-8'?>
<svg xmlns="http://www.w3.org/2000/svg" version="1.1" viewBox="0 0 1024 1024"><g transform="scale(1, -1) translate(0, -900)"><path d="M 713 354 Q 726 333 741 326 Q 751 319 764 338 Q 776 357 801 468 Q 808 495 829 516 Q 839 526 830 539 Q 817 554 781 576 Q 763 583 749 578 Q 724 572 694 566 Q 651 559 598 547 Q 556 538 521 532 C 491 527 509 493 537 504 Q 565 519 715 541 Q 739 545 747 537 Q 757 524 755 511 Q 736 397 723 383 C 710 358 710 358 713 354 Z" fill="black" /></g></svg>