<?xml version='1.0' encoding='utf-8'?>
<svg xmlns="http://www.w3.org/2000/svg" version="1.1" viewBox="0 0 1024 1024"><g transform="scale(1, -1) translate(0, -900)"><path d="M 378 195 Q 368 191 355 181 Q 322 162 285 139 Q 281 135 278 139 Q 290 248 290 331 Q 290 356 295 378 Q 299 391 291 402 Q 267 424 246 435 Q 227 442 219 437 Q 209 431 217 415 Q 253 334 234 180 Q 233 131 194 81 Q 184 66 191 44 Q 201 17 215 6 Q 228 -1 240 16 Q 252 44 375 167 Q 393 180 397 190 Q 398 199 393 199 C 393 203 393 203 378 195 Z" fill="black" /></g></svg>