<?xml version='1.0' encoding='utf-8'?>
<svg xmlns="http://www.w3.org/2000/svg" version="1.1" viewBox="0 0 1024 1024"><g transform="scale(1, -1) translate(0, -900)"><path d="M 426 375 Q 433 376 441 380 Q 511 399 524 395 Q 531 391 531 372 Q 540 222 529 105 Q 528 81 513 77 Q 506 74 460 84 Q 450 87 450 81 Q 451 74 464 66 Q 492 41 512 14 Q 524 1 537 2 Q 550 5 570 45 Q 592 87 589 129 Q 583 231 578 324 Q 575 361 591 390 Q 600 403 588 414 Q 573 426 541 436 Q 528 442 481 420 Q 433 405 412 396 C 384 385 397 366 426 375 Z" fill="black" /></g></svg>