<?xml version='1.0' encoding='utf-8'?>
<svg xmlns="http://www.w3.org/2000/svg" version="1.1" viewBox="0 0 1024 1024"><g transform="scale(1, -1) translate(0, -900)"><path d="M 744 88 Q 754 66 774 23 Q 781 7 791 8 Q 804 11 813 34 Q 841 91 857 262 Q 861 305 882 333 Q 898 351 887 363 Q 868 382 825 401 Q 809 411 779 400 Q 674 363 493 347 C 463 344 478 310 508 314 Q 511 314 613 330 L 647 336 Q 698 346 761 356 Q 785 360 796 349 Q 820 306 785 127 Q 784 111 776 108 Q 775 108 768 108 C 744 90 743 90 744 88 Z" fill="black" /></g></svg>