<?xml version='1.0' encoding='utf-8'?>
<svg xmlns="http://www.w3.org/2000/svg" version="1.1" viewBox="0 0 1024 1024"><g transform="scale(1, -1) translate(0, -900)"><path d="M 319 546 Q 323 577 327 608 Q 336 702 345 727 Q 354 742 347 755 Q 331 773 299 787 Q 280 799 267 794 Q 254 787 261 773 Q 282 737 278 676 Q 271 574 264 533 L 258 494 Q 222 343 215 318 Q 211 309 208 299 Q 156 170 67 43 Q 63 36 60 30 Q 57 20 68 21 Q 98 27 177 139 Q 204 179 228 227 Q 285 351 313 510 L 319 546 Z" fill="black" /></g></svg>