<?xml version='1.0' encoding='utf-8'?>
<svg xmlns="http://www.w3.org/2000/svg" version="1.1" viewBox="0 0 1024 1024"><g transform="scale(1, -1) translate(0, -900)"><path d="M 674 46 Q 674 77 674 107 L 674 145 Q 674 173 675 199 L 676 243 Q 676 277 677 309 L 678 343 Q 678 388 679 427 L 681 456 Q 681 498 680 499 Q 664 514 649 524 C 625 542 597 545 608 517 Q 627 472 630 446 L 631 419 Q 632 395 633 335 L 633 303 Q 633 272 632 233 L 632 192 Q 632 167 632 137 L 632 101 Q 632 74 632 42 C 632 12 674 16 674 46 Z" fill="black" /></g></svg>