<?xml version='1.0' encoding='utf-8'?>
<svg xmlns="http://www.w3.org/2000/svg" version="1.1" viewBox="0 0 1024 1024"><g transform="scale(1, -1) translate(0, -900)"><path d="M 752 177 Q 753 168 760 159 Q 773 134 782 134 Q 795 135 809 166 Q 822 190 820 209 Q 790 389 823 448 Q 838 470 784 498 Q 771 504 757 510 Q 744 514 723 507 Q 683 489 614 474 L 589 470 Q 580 470 572 469 C 542 467 554 440 584 443 Q 591 443 598 444 Q 727 469 738 463 Q 748 444 753 390 Q 760 245 754 206 L 752 177 Z" fill="black" /></g></svg>