<?xml version='1.0' encoding='utf-8'?>
<svg xmlns="http://www.w3.org/2000/svg" version="1.1" viewBox="0 0 1024 1024"><g transform="scale(1, -1) translate(0, -900)"><path d="M 720 665 Q 777 681 823 686 Q 836 687 838 683 Q 845 670 839 639 Q 823 551 800 515 Q 785 491 764 496 Q 745 503 728 511 Q 709 520 721 499 Q 752 462 765 433 Q 780 414 796 428 Q 853 462 884 621 Q 891 661 908 679 Q 918 689 914 699 Q 907 709 864 729 Q 848 738 830 727 Q 815 718 756 706 Q 698 693 647 689 Q 632 689 629 681 Q 628 674 648 664 Q 657 658 692 657 L 720 665 Z" fill="black" /></g></svg>