<?xml version='1.0' encoding='utf-8'?>
<svg xmlns="http://www.w3.org/2000/svg" version="1.1" viewBox="0 0 1024 1024"><g transform="scale(1, -1) translate(0, -900)"><path d="M 598 71 Q 629 31 651 -6 Q 661 -25 672 -25 Q 690 -24 706 11 Q 725 51 722 100 Q 715 191 708 361 Q 708 392 725 415 Q 735 428 726 439 Q 707 458 654 484 Q 635 494 620 485 Q 566 463 434 437 L 399 432 Q 386 432 376 431 C 346 430 371 396 401 400 Q 429 403 595 434 Q 623 440 637 429 Q 655 414 653 195 Q 652 192 646 104 Q 642 86 626 91 C 600 77 595 75 598 71 Z" fill="black" /></g></svg>