<?xml version='1.0' encoding='utf-8'?>
<svg xmlns="http://www.w3.org/2000/svg" version="1.1" viewBox="0 0 1024 1024"><g transform="scale(1, -1) translate(0, -900)"><path d="M 559 316 Q 575 350 588 382 L 601 416 Q 608 437 615 456 Q 619 474 627 491 L 642 533 Q 645 542 650 549 Q 660 559 657 573 Q 647 589 627 606 C 605 627 583 629 586 599 Q 592 560 582 526 Q 581 525 581 522 L 570 481 Q 558 444 546 408 L 533 372 Q 460 206 365 107 Q 337 76 307 46 Q 301 42 298 37 Q 294 27 304 27 Q 329 26 428 118 Q 449 140 470 166 Q 512 223 548 292 L 559 316 Z" fill="black" /></g></svg>