<?xml version='1.0' encoding='utf-8'?>
<svg xmlns="http://www.w3.org/2000/svg" version="1.1" viewBox="0 0 1024 1024"><g transform="scale(1, -1) translate(0, -900)"><path d="M 905 561 Q 898 574 885 616 Q 885 626 880 629 Q 876 632 874 620 Q 855 574 845 560 Q 838 553 820 546 Q 775 534 738 546 Q 725 552 719 560 Q 707 582 707 622 L 708 648 Q 708 681 714 719 C 717 738 717 738 711 743 Q 699 755 681 761 Q 672 762 666 759 Q 662 756 666 744 Q 676 716 676 688 Q 675 543 702 520 Q 753 483 850 510 Q 853 511 857 512 Q 879 519 901 536 Q 913 546 905 561 Z" fill="black" /></g></svg>