<?xml version='1.0' encoding='utf-8'?>
<svg xmlns="http://www.w3.org/2000/svg" version="1.1" viewBox="0 0 1024 1024"><g transform="scale(1, -1) translate(0, -900)"><path d="M 203 439 Q 196 446 178 454 Q 171 458 161 455 Q 155 451 159 441 Q 160 434 164 427 Q 182 388 169 211 Q 151 130 169 98 Q 172 94 176 88 Q 185 78 193 88 Q 194 91 205 129 L 206 156 Q 207 163 207 172 Q 207 200 208 225 L 208 249 Q 209 283 210 310 L 211 335 Q 212 398 214 404 Q 215 408 215 412 C 217 428 217 428 203 439 Z" fill="black" /></g></svg>