<?xml version='1.0' encoding='utf-8'?>
<svg xmlns="http://www.w3.org/2000/svg" version="1.1" viewBox="0 0 1024 1024"><g transform="scale(1, -1) translate(0, -900)"><path d="M 335 137 Q 351 112 366 83 Q 376 65 384 64 Q 393 64 401 84 Q 414 121 412 168 Q 402 411 407 431 Q 414 449 404 457 Q 397 466 366 479 Q 354 485 278 457 Q 274 457 224 441 C 195 432 175 403 215 412 Q 224 413 235 417 Q 274 433 327 443 Q 343 446 348 440 Q 357 428 359 241 Q 359 175 351 158 C 343 129 328 149 335 137 Z" fill="black" /></g></svg>