<?xml version='1.0' encoding='utf-8'?>
<svg xmlns="http://www.w3.org/2000/svg" version="1.1" viewBox="0 0 1024 1024"><g transform="scale(1, -1) translate(0, -900)"><path d="M 371 105 Q 387 78 399 48 Q 408 30 416 28 Q 425 27 434 47 Q 449 83 450 211 Q 450 284 458 305 Q 465 323 455 331 Q 449 340 419 355 Q 406 362 373 352 Q 339 339 299 330 Q 268 323 227 316 C 197 311 206 286 235 291 Q 242 292 251 294 Q 303 313 371 322 Q 392 325 399 318 Q 405 309 398 181 Q 397 135 391 126 Q 387 119 376 121 Q 375 122 373 121 C 363 120 363 120 371 105 Z" fill="black" /></g></svg>