<?xml version='1.0' encoding='utf-8'?>
<svg xmlns="http://www.w3.org/2000/svg" version="1.1" viewBox="0 0 1024 1024"><g transform="scale(1, -1) translate(0, -900)"><path d="M 701 115 Q 738 161 772 237 Q 785 262 804 277 Q 822 289 811 302 Q 801 314 773 326 Q 754 335 728 324 Q 706 317 675 309 Q 651 303 615 298 C 585 294 568 281 598 276 Q 626 269 662 276 Q 702 291 711 290 Q 730 283 719 263 Q 704 205 665 144 L 642 118 Q 576 58 468 31 Q 455 27 466 19 Q 470 15 510 17 Q 595 24 671 86 L 701 115 Z" fill="black" /></g></svg>