<?xml version='1.0' encoding='utf-8'?>
<svg xmlns="http://www.w3.org/2000/svg" version="1.1" viewBox="0 0 1024 1024"><g transform="scale(1, -1) translate(0, -900)"><path d="M 221 324 Q 251 348 357 365 Q 372 366 389 359 Q 402 350 403 332 Q 406 319 400 205 Q 394 138 381 111 Q 372 98 357 101 Q 335 105 312 111 Q 296 118 292 113 Q 289 109 303 96 Q 355 32 357 11 Q 361 4 371 3 Q 386 0 414 31 Q 439 62 446 98 Q 461 338 481 353 Q 488 360 488 368 Q 488 375 455 395 Q 412 417 385 406 Q 370 403 356 399 L 319 392 Q 280 386 258 375 Q 227 366 222 389 C 202 412 195 309 221 324 Z" fill="black" /></g></svg>