<?xml version='1.0' encoding='utf-8'?>
<svg xmlns="http://www.w3.org/2000/svg" version="1.1" viewBox="0 0 1024 1024"><g transform="scale(1, -1) translate(0, -900)"><path d="M 233 324 Q 237 328 273 341 Q 312 356 355 365 Q 371 366 389 358 Q 402 351 403 332 Q 406 319 400 205 Q 394 138 381 111 Q 374 101 360 104 Q 301 117 300 117 Q 297 113 310 100 Q 353 33 355 14 Q 359 7 368 5 Q 384 2 412 32 Q 439 62 446 98 Q 461 338 481 353 Q 488 360 487 368 Q 487 375 454 395 Q 423 411 416 412 Q 404 413 382 405 Q 369 401 354 398 L 312 388 Q 285 382 270 376 Q 239 366 233 389 C 213 412 206 311 233 324 Z" fill="black" /></g></svg>