<?xml version='1.0' encoding='utf-8'?>
<svg xmlns="http://www.w3.org/2000/svg" version="1.1" viewBox="0 0 1024 1024"><g transform="scale(1, -1) translate(0, -900)"><path d="M 566 406 Q 588 422 648 455 L 691 479 Q 731 504 786 534 Q 802 541 808 532 Q 814 522 776 380 Q 767 340 739 352 Q 724 356 709 361 Q 696 362 699 356 Q 703 346 753 291 Q 772 266 790 285 Q 823 321 844 414 Q 865 517 898 552 Q 910 567 894 578 Q 876 588 828 597 Q 810 601 772 567 Q 729 540 695 520 L 650 496 Q 608 478 571 457 L 526 437 Q 499 427 481 419 Q 468 416 468 407 Q 468 400 509 390 Q 516 389 524 388 C 536 386 541 389 566 406 Z" fill="black" /></g></svg>