<?xml version='1.0' encoding='utf-8'?>
<svg xmlns="http://www.w3.org/2000/svg" version="1.1" viewBox="0 0 1024 1024"><g transform="scale(1, -1) translate(0, -900)"><path d="M 221 316 Q 249 340 375 364 Q 391 365 407 358 Q 420 351 420 333 Q 423 321 412 206 Q 402 139 389 112 Q 379 99 363 102 Q 344 106 324 110 Q 308 117 304 113 Q 301 109 315 96 Q 358 32 360 13 Q 364 4 373 3 Q 388 2 417 30 Q 445 60 453 96 Q 478 336 498 351 Q 505 358 504 365 Q 505 372 472 392 Q 441 408 434 410 Q 424 411 401 403 Q 385 397 363 396 Q 360 396 358 395 L 316 385 Q 279 376 258 368 Q 228 359 223 380 C 202 401 195 300 221 316 Z" fill="black" /></g></svg>