<?xml version='1.0' encoding='utf-8'?>
<svg xmlns="http://www.w3.org/2000/svg" version="1.1" viewBox="0 0 1024 1024"><g transform="scale(1, -1) translate(0, -900)"><path d="M 671 350 Q 674 375 678 400 L 683 452 L 685 518 Q 689 641 703 685 Q 709 698 699 705 Q 680 721 641 736 Q 619 746 601 739 Q 580 730 598 712 Q 629 682 629 651 Q 633 530 626 435 L 622 385 Q 592 214 544 145 Q 540 141 537 135 Q 510 98 452 47 Q 440 40 437 35 Q 433 28 450 28 Q 489 28 569 102 Q 638 171 664 307 Q 664 311 666 315 L 671 350 Z" fill="black" /></g></svg>