<?xml version='1.0' encoding='utf-8'?>
<svg xmlns="http://www.w3.org/2000/svg" version="1.1" viewBox="0 0 1024 1024"><g transform="scale(1, -1) translate(0, -900)"><path d="M 213 309 Q 255 342 399 365 Q 421 368 434 359 Q 444 352 438 314 Q 414 128 383 87 Q 373 78 352 85 Q 324 92 301 97 Q 286 101 287 95 Q 286 91 295 82 Q 340 34 354 3 Q 363 -16 379 -6 Q 439 27 452 94 Q 471 187 486 290 Q 490 323 506 351 Q 516 366 506 376 Q 490 392 457 410 Q 438 420 415 409 Q 388 396 364 389 L 325 381 Q 291 374 242 360 Q 220 357 221 376 C 203 400 187 293 213 309 Z" fill="black" /></g></svg>