<?xml version='1.0' encoding='utf-8'?>
<svg xmlns="http://www.w3.org/2000/svg" version="1.1" viewBox="0 0 1024 1024"><g transform="scale(1, -1) translate(0, -900)"><path d="M 319 340 Q 496 406 765 418 Q 780 417 797 408 Q 810 398 808 379 Q 809 361 782 205 Q 761 112 739 78 Q 729 56 703 58 Q 675 67 647 74 Q 628 81 624 77 Q 620 71 637 58 Q 698 -21 702 -45 Q 706 -55 717 -57 Q 735 -61 771 -26 Q 805 8 817 52 Q 881 374 904 390 Q 914 397 913 405 Q 914 414 879 441 Q 831 471 800 461 Q 776 458 750 455 Q 669 455 559 433 L 514 427 Q 441 418 392 405 Q 355 401 353 428 C 332 450 291 330 319 340 Z" fill="black" /></g></svg>