<?xml version='1.0' encoding='utf-8'?>
<svg xmlns="http://www.w3.org/2000/svg" version="1.1" viewBox="0 0 1024 1024"><g transform="scale(1, -1) translate(0, -900)"><path d="M 222 348 Q 253 376 380 392 Q 410 395 422 383 Q 434 373 422 332 Q 415 271 404 209 Q 397 160 374 128 Q 368 119 319 124 Q 298 130 299 123 Q 298 119 306 111 Q 337 68 348 42 Q 355 23 372 31 Q 394 41 414 57 Q 438 87 444 124 Q 462 209 475 306 Q 482 342 500 371 Q 512 387 501 399 Q 485 418 449 438 Q 428 450 402 437 Q 383 428 366 424 L 324 416 Q 296 410 254 399 Q 229 395 229 416 C 212 441 197 332 222 348 Z" fill="black" /></g></svg>