<?xml version='1.0' encoding='utf-8'?>
<svg xmlns="http://www.w3.org/2000/svg" version="1.1" viewBox="0 0 1024 1024"><g transform="scale(1, -1) translate(0, -900)"><path d="M 211 329 Q 256 360 392 378 Q 420 382 433 372 Q 445 363 436 323 Q 417 146 383 98 Q 374 88 355 92 Q 327 101 300 109 Q 287 113 287 107 Q 286 103 294 95 Q 340 46 356 14 Q 363 -5 380 3 Q 438 30 453 102 Q 472 195 487 298 Q 493 332 509 362 Q 521 377 509 389 Q 493 407 458 425 Q 439 437 413 424 Q 386 412 361 406 L 320 398 Q 286 392 242 380 Q 218 373 215 394 C 195 416 185 314 211 329 Z" fill="black" /></g></svg>