<?xml version='1.0' encoding='utf-8'?>
<svg xmlns="http://www.w3.org/2000/svg" version="1.1" viewBox="0 0 1024 1024"><g transform="scale(1, -1) translate(0, -900)"><path d="M 206 328 Q 237 356 380 369 Q 411 373 424 363 Q 437 353 427 309 Q 423 251 414 188 Q 408 140 388 109 Q 378 102 358 108 Q 330 115 306 121 Q 290 125 291 119 Q 290 113 299 105 Q 345 56 360 22 Q 369 3 386 12 Q 411 25 429 43 Q 451 71 455 109 Q 470 194 478 287 Q 485 321 501 352 Q 513 368 501 379 Q 485 398 449 416 Q 428 426 403 415 Q 378 405 357 400 L 315 393 Q 281 389 239 378 Q 212 374 212 397 C 197 423 180 313 206 328 Z" fill="black" /></g></svg>