<?xml version='1.0' encoding='utf-8'?>
<svg xmlns="http://www.w3.org/2000/svg" version="1.1" viewBox="0 0 1024 1024"><g transform="scale(1, -1) translate(0, -900)"><path d="M 382 177 Q 430 208 594 231 Q 744 252 766 231 Q 779 219 765 175 Q 750 67 729 41 Q 719 28 693 29 Q 662 36 634 42 Q 618 46 619 39 Q 619 33 628 25 Q 680 -27 699 -61 Q 709 -83 727 -72 Q 788 -39 797 9 Q 813 73 824 145 Q 833 185 852 218 Q 865 234 854 249 Q 835 270 796 293 Q 774 306 744 293 Q 689 271 638 266 Q 604 263 554 255 L 511 249 Q 468 243 419 234 Q 394 221 386 244 C 362 262 355 163 382 177 Z" fill="black" /></g></svg>