<?xml version='1.0' encoding='utf-8'?>
<svg xmlns="http://www.w3.org/2000/svg" version="1.1" viewBox="0 0 1024 1024"><g transform="scale(1, -1) translate(0, -900)"><path d="M 704 637 Q 704 638 705 638 Q 733 668 764 725 Q 786 764 805 780 Q 820 793 810 805 Q 803 815 753 829 Q 744 832 673 804 Q 636 797 562 784 Q 549 785 545 778 Q 544 774 556 768 Q 586 750 642 768 Q 717 792 722 789 Q 732 783 722 762 Q 701 704 667 664 L 643 639 Q 598 600 537 571 Q 528 565 540 562 Q 544 558 568 561 Q 626 573 673 608 L 704 637 Z" fill="black" /></g></svg>