<?xml version='1.0' encoding='utf-8'?>
<svg xmlns="http://www.w3.org/2000/svg" version="1.1" viewBox="0 0 1024 1024"><g transform="scale(1, -1) translate(0, -900)"><path d="M 575 533 Q 602 530 746 550 Q 783 556 805 555 Q 818 555 820 550 Q 841 516 823 292 Q 805 175 777 120 Q 764 89 741 81 Q 731 77 673 90 Q 663 94 663 88 Q 662 84 674 74 Q 708 32 724 3 Q 731 -15 743 -15 Q 794 -8 837 81 Q 864 139 875 217 Q 888 317 898 471 Q 899 505 919 529 Q 932 542 931 551 Q 930 560 911 573 Q 884 594 848 604 Q 821 614 804 604 Q 785 597 739 586 Q 675 571 630 564 Q 609 561 592 557 C 563 551 545 533 575 533 Z" fill="black" /></g></svg>