<?xml version='1.0' encoding='utf-8'?>
<svg xmlns="http://www.w3.org/2000/svg" version="1.1" viewBox="0 0 1024 1024"><g transform="scale(1, -1) translate(0, -900)"><path d="M 212 295 Q 245 319 360 329 Q 393 333 407 321 Q 420 311 409 264 Q 408 212 402 158 Q 398 116 382 88 Q 375 78 354 79 Q 326 86 300 90 Q 287 94 287 87 Q 287 83 295 75 Q 344 32 363 2 Q 372 -16 387 -6 Q 441 27 447 84 Q 457 160 462 244 Q 468 280 484 310 Q 496 326 485 337 Q 467 356 431 375 Q 412 385 384 373 Q 366 366 353 362 L 313 355 Q 286 352 247 344 Q 220 338 219 363 C 206 390 186 281 212 295 Z" fill="black" /></g></svg>