<?xml version='1.0' encoding='utf-8'?>
<svg xmlns="http://www.w3.org/2000/svg" version="1.1" viewBox="0 0 1024 1024"><g transform="scale(1, -1) translate(0, -900)"><path d="M 381 735 Q 412 744 441 747 Q 459 750 463 744 Q 469 737 466 715 Q 462 655 449 629 Q 431 598 404 604 Q 385 608 366 614 Q 344 620 360 599 Q 394 563 411 536 Q 423 520 437 531 Q 482 558 510 658 Q 520 721 540 741 Q 552 753 546 763 Q 539 773 491 795 Q 472 802 455 791 Q 439 782 391 769 L 335 755 Q 265 740 206 735 Q 190 734 188 726 Q 187 719 208 708 Q 230 695 248 701 Q 288 714 326 723 L 381 735 Z" fill="black" /></g></svg>