<?xml version='1.0' encoding='utf-8'?>
<svg xmlns="http://www.w3.org/2000/svg" version="1.1" viewBox="0 0 1024 1024"><g transform="scale(1, -1) translate(0, -900)"><path d="M 817 229 Q 827 204 852 156 Q 861 140 871 140 Q 886 143 894 168 Q 925 232 927 318 Q 931 372 936 433 Q 940 479 962 509 Q 978 528 966 541 Q 945 560 900 580 Q 882 590 851 578 Q 731 535 537 516 C 507 513 534 477 564 482 Q 568 482 572 483 Q 594 487 623 493 L 651 498 Q 679 505 716 511 L 750 517 Q 852 539 870 523 Q 880 517 880 493 Q 881 379 862 267 Q 861 248 852 246 Q 849 245 839 248 C 812 241 812 241 817 229 Z" fill="black" /></g></svg>