<?xml version='1.0' encoding='utf-8'?>
<svg xmlns="http://www.w3.org/2000/svg" version="1.1" viewBox="0 0 1024 1024"><g transform="scale(1, -1) translate(0, -900)"><path d="M 223 320 Q 257 351 380 366 Q 408 372 423 361 Q 435 352 412 184 Q 406 133 384 101 Q 377 94 360 96 Q 332 105 308 113 Q 295 117 295 111 Q 294 107 302 99 Q 345 50 359 18 Q 366 -1 384 8 Q 444 36 453 103 Q 468 190 478 287 Q 482 321 499 352 Q 511 367 499 378 Q 483 397 447 415 Q 428 425 401 413 Q 385 406 372 400 L 334 392 Q 303 386 254 372 Q 229 368 228 389 C 211 414 198 303 223 320 Z" fill="black" /></g></svg>