<?xml version='1.0' encoding='utf-8'?>
<svg xmlns="http://www.w3.org/2000/svg" version="1.1" viewBox="0 0 1024 1024"><g transform="scale(1, -1) translate(0, -900)"><path d="M 220 294 Q 262 321 384 330 Q 399 331 416 325 Q 429 318 430 299 Q 431 287 418 183 Q 406 122 393 98 Q 383 80 362 84 Q 332 93 302 100 Q 287 104 284 101 Q 281 97 295 87 Q 362 26 368 4 Q 372 -3 380 -4 Q 393 -5 420 21 Q 444 48 450 81 Q 483 300 502 315 Q 509 322 508 328 Q 509 335 478 356 Q 441 377 413 369 Q 395 365 372 363 Q 366 363 361 362 L 320 355 Q 283 351 260 343 Q 226 336 222 361 C 205 386 193 280 220 294 Z" fill="black" /></g></svg>