<?xml version='1.0' encoding='utf-8'?>
<svg xmlns="http://www.w3.org/2000/svg" version="1.1" viewBox="0 0 1024 1024"><g transform="scale(1, -1) translate(0, -900)"><path d="M 623 496 Q 545 388 449 294 Q 436 281 450 282 Q 460 283 502 311 Q 542 336 588 382 Q 621 416 654 459 L 678 492 Q 718 549 760 617 Q 779 647 813 677 Q 829 689 822 699 Q 821 708 756 730 Q 743 737 693 715 Q 662 706 617 697 C 588 691 571 675 600 668 Q 630 656 674 673 Q 699 680 709 670 Q 715 655 642 526 L 623 496 Z" fill="black" /></g></svg>