<?xml version='1.0' encoding='utf-8'?>
<svg xmlns="http://www.w3.org/2000/svg" version="1.1" viewBox="0 0 1024 1024"><g transform="scale(1, -1) translate(0, -900)"><path d="M 227 329 Q 266 359 395 374 Q 417 377 427 367 Q 437 358 428 323 Q 401 149 365 99 Q 359 95 292 108 Q 279 114 279 107 Q 278 103 286 95 Q 323 49 335 19 Q 342 0 358 8 Q 421 38 434 104 Q 456 195 475 298 Q 481 329 497 356 Q 507 369 498 380 Q 483 398 452 416 Q 434 426 410 416 Q 386 406 367 400 L 331 392 Q 300 386 253 374 Q 231 371 231 390 C 213 414 201 314 227 329 Z" fill="black" /></g></svg>