<?xml version='1.0' encoding='utf-8'?>
<svg xmlns="http://www.w3.org/2000/svg" version="1.1" viewBox="0 0 1024 1024"><g transform="scale(1, -1) translate(0, -900)"><path d="M 207 348 Q 220 358 247 366 Q 304 382 364 389 Q 392 393 405 383 Q 417 373 391 201 Q 384 149 362 114 Q 353 104 332 109 Q 307 113 284 118 Q 271 122 271 115 Q 271 111 279 103 Q 322 60 338 31 Q 345 13 362 23 Q 417 56 429 121 Q 445 211 456 311 Q 462 344 478 372 Q 488 387 478 398 Q 462 416 429 434 Q 411 443 360 422 L 322 415 Q 289 411 240 397 Q 216 396 217 416 C 202 442 181 333 207 348 Z" fill="black" /></g></svg>