<?xml version='1.0' encoding='utf-8'?>
<svg xmlns="http://www.w3.org/2000/svg" version="1.1" viewBox="0 0 1024 1024"><g transform="scale(1, -1) translate(0, -900)"><path d="M 597 333 Q 598 332 599 330 Q 608 306 576 257 Q 569 247 547 234 Q 531 222 533 209 Q 534 196 549 181 Q 559 171 574 177 Q 614 208 689 233 Q 731 248 754 235 Q 775 223 771 189 Q 761 107 721 42 Q 705 18 691 12 Q 678 9 607 26 Q 591 33 590 26 Q 590 20 602 9 Q 639 -28 663 -62 Q 672 -72 682 -72 Q 697 -73 714 -61 Q 777 -4 810 121 Q 825 202 838 217 Q 848 227 839 241 Q 787 289 729 270 Q 690 258 634 243 Q 619 240 627 255 Q 651 291 659 299 Q 672 311 663 326 Q 654 335 640 342 C 615 359 593 363 597 333 Z" fill="black" /></g></svg>