<?xml version='1.0' encoding='utf-8'?>
<svg xmlns="http://www.w3.org/2000/svg" version="1.1" viewBox="0 0 1024 1024"><g transform="scale(1, -1) translate(0, -900)"><path d="M 683 153 Q 671 141 660 129 Q 606 83 469 44 Q 456 41 463 34 Q 470 28 495 31 Q 585 41 637 64 Q 677 83 711 119 L 741 158 Q 775 209 800 283 Q 809 314 827 329 Q 842 341 826 356 Q 808 372 779 384 Q 760 391 741 383 Q 704 364 652 356 Q 643 356 637 354 C 607 350 595 341 624 335 Q 640 326 700 335 Q 715 339 732 342 Q 751 348 750 327 Q 750 263 707 188 L 683 153 Z" fill="black" /></g></svg>