<?xml version='1.0' encoding='utf-8'?>
<svg xmlns="http://www.w3.org/2000/svg" version="1.1" viewBox="0 0 1024 1024"><g transform="scale(1, -1) translate(0, -900)"><path d="M 205 346 Q 364 403 406 385 Q 419 376 418 359 Q 421 346 410 227 Q 400 157 386 129 Q 379 113 360 114 Q 332 123 302 132 Q 287 136 284 133 Q 281 129 295 118 Q 358 54 363 33 Q 367 26 375 25 Q 388 24 416 51 Q 441 79 446 114 Q 473 358 493 377 Q 500 384 500 390 Q 500 397 469 417 Q 430 439 371 422 Q 370 423 369 422 L 327 415 Q 323 415 320 414 Q 284 407 264 400 Q 233 393 228 415 C 208 438 177 336 205 346 Z" fill="black" /></g></svg>