<?xml version='1.0' encoding='utf-8'?>
<svg xmlns="http://www.w3.org/2000/svg" version="1.1" viewBox="0 0 1024 1024"><g transform="scale(1, -1) translate(0, -900)"><path d="M 409 166 Q 418 230 425 295 Q 429 325 444 351 Q 454 364 444 374 Q 429 390 399 406 Q 383 415 360 404 Q 341 397 326 391 L 291 384 Q 263 380 224 368 Q 205 369 208 386 C 195 413 178 316 203 329 Q 239 353 346 367 Q 368 368 379 359 Q 389 350 378 315 Q 374 254 365 188 Q 359 137 337 103 Q 333 100 268 109 Q 255 113 255 107 Q 255 103 262 95 Q 301 52 313 24 Q 320 6 336 16 Q 393 46 405 141 L 409 166 Z" fill="black" /></g></svg>