<?xml version='1.0' encoding='utf-8'?>
<svg xmlns="http://www.w3.org/2000/svg" version="1.1" viewBox="0 0 1024 1024"><g transform="scale(1, -1) translate(0, -900)"><path d="M 491 201 Q 448 197 407 188 Q 377 178 380 199 C 359 220 341 124 369 135 Q 456 174 668 184 Q 710 187 709 142 Q 706 24 682 3 Q 673 -1 594 12 Q 579 16 579 9 Q 579 2 596 -9 Q 635 -40 654 -68 Q 664 -89 681 -77 Q 720 -53 737 -11 Q 773 148 781 156 Q 782 160 786 162 Q 799 177 794 186 Q 784 198 739 220 Q 720 230 631 217 Q 601 217 526 206 L 491 201 Z" fill="black" /></g></svg>