<?xml version='1.0' encoding='utf-8'?>
<svg xmlns="http://www.w3.org/2000/svg" version="1.1" viewBox="0 0 1024 1024"><g transform="scale(1, -1) translate(0, -900)"><path d="M 185 331 Q 204 346 295 365 Q 349 378 373 368 Q 383 361 382 347 Q 385 334 369 215 Q 356 145 341 118 Q 329 103 311 110 Q 287 117 263 123 Q 247 129 244 125 Q 241 121 255 109 Q 307 45 312 25 Q 316 18 324 16 Q 337 15 365 41 Q 390 68 398 102 Q 437 348 452 359 Q 459 365 458 371 Q 459 377 431 395 Q 401 414 341 402 Q 340 402 320 399 L 282 391 Q 242 384 217 375 Q 192 371 190 390 C 170 413 158 317 185 331 Z" fill="black" /></g></svg>