<?xml version='1.0' encoding='utf-8'?>
<svg xmlns="http://www.w3.org/2000/svg" version="1.1" viewBox="0 0 1024 1024"><g transform="scale(1, -1) translate(0, -900)"><path d="M 462 392 Q 481 420 530 516 L 543 547 Q 552 575 563 608 L 574 647 Q 580 695 608 764 Q 612 780 620 790 Q 632 808 605 830 Q 586 840 566 844 Q 553 848 539 840 Q 532 833 539 823 Q 564 799 554 732 Q 542 686 531 637 L 520 599 Q 510 568 497 537 L 483 504 Q 435 410 352 307 Q 345 294 353 292 Q 357 291 368 299 Q 408 327 442 367 L 462 392 Z" fill="black" /></g></svg>