<?xml version='1.0' encoding='utf-8'?>
<svg xmlns="http://www.w3.org/2000/svg" version="1.1" viewBox="0 0 1024 1024"><g transform="scale(1, -1) translate(0, -900)"><path d="M 613 328 Q 760 355 780 354 Q 793 355 796 350 Q 800 343 800 314 Q 799 196 782 132 Q 760 54 733 44 Q 721 41 656 62 Q 647 65 647 60 Q 646 56 657 47 Q 694 7 711 -23 Q 720 -42 731 -41 Q 746 -41 761 -27 Q 813 12 841 143 Q 853 204 865 289 Q 866 313 883 328 Q 895 341 894 348 Q 893 355 876 367 Q 852 386 820 396 Q 798 403 781 396 Q 762 389 717 378 Q 654 362 610 354 Q 580 350 559 345 C 530 339 513 332 543 329 Q 561 328 579 324 L 613 328 Z" fill="black" /></g></svg>