<?xml version='1.0' encoding='utf-8'?>
<svg xmlns="http://www.w3.org/2000/svg" version="1.1" viewBox="0 0 1024 1024"><g transform="scale(1, -1) translate(0, -900)"><path d="M 688 568 Q 733 613 763 687 Q 776 723 806 743 Q 824 756 811 769 Q 793 785 769 793 Q 748 805 686 782 Q 578 761 552 758 Q 537 759 534 754 Q 531 744 549 732 Q 571 717 623 734 Q 710 762 720 760 Q 721 760 721 746 Q 702 668 652 595 L 630 571 Q 557 505 431 451 Q 418 447 424 440 Q 428 436 452 441 Q 599 478 662 540 L 688 568 Z" fill="black" /></g></svg>