<?xml version='1.0' encoding='utf-8'?>
<svg xmlns="http://www.w3.org/2000/svg" version="1.1" viewBox="0 0 1024 1024"><g transform="scale(1, -1) translate(0, -900)"><path d="M 760 78 Q 769 56 786 19 Q 793 3 803 4 Q 816 5 826 29 Q 851 77 867 222 Q 873 265 894 290 Q 909 306 899 319 Q 880 338 840 358 Q 827 367 735 340 Q 647 319 517 311 C 487 309 505 272 534 278 Q 540 281 630 294 L 668 300 Q 791 327 809 309 Q 816 305 815 287 Q 814 202 797 120 Q 796 105 789 104 Q 786 103 773 109 C 745 113 748 106 760 78 Z" fill="black" /></g></svg>