<?xml version='1.0' encoding='utf-8'?>
<svg xmlns="http://www.w3.org/2000/svg" version="1.1" viewBox="0 0 1024 1024"><g transform="scale(1, -1) translate(0, -900)"><path d="M 476 155 Q 436 151 394 143 Q 370 133 365 154 C 343 174 333 77 360 91 Q 457 148 695 149 Q 713 150 724 141 Q 734 131 725 93 Q 713 29 697 6 Q 688 -6 664 -3 Q 639 1 616 6 Q 603 10 603 3 Q 603 -1 611 -9 Q 654 -52 670 -81 Q 677 -99 693 -90 Q 741 -68 750 -29 Q 763 16 774 65 Q 781 99 799 128 Q 811 143 800 154 Q 784 173 751 193 Q 732 205 706 193 Q 654 174 604 170 Q 567 169 508 159 L 476 155 Z" fill="black" /></g></svg>