<?xml version='1.0' encoding='utf-8'?>
<svg xmlns="http://www.w3.org/2000/svg" version="1.1" viewBox="0 0 1024 1024"><g transform="scale(1, -1) translate(0, -900)"><path d="M 186 330 Q 226 357 344 369 Q 372 373 384 361 Q 396 351 385 312 Q 381 254 373 193 Q 369 145 348 114 Q 345 111 280 124 Q 267 130 267 123 Q 266 119 274 111 Q 311 65 323 35 Q 330 16 347 25 Q 369 35 388 51 Q 409 81 413 117 Q 426 199 434 291 Q 440 324 455 352 Q 465 365 455 377 Q 439 393 407 412 Q 392 421 335 399 L 299 393 Q 268 389 217 376 Q 195 375 195 394 C 180 420 160 316 186 330 Z" fill="black" /></g></svg>