<?xml version='1.0' encoding='utf-8'?>
<svg xmlns="http://www.w3.org/2000/svg" version="1.1" viewBox="0 0 1024 1024"><g transform="scale(1, -1) translate(0, -900)"><path d="M 191 324 Q 204 334 232 342 Q 290 358 352 365 Q 379 371 392 361 Q 404 352 397 312 Q 382 156 355 116 Q 346 107 328 112 Q 298 122 272 129 Q 259 133 259 127 Q 259 123 266 116 Q 314 70 331 38 Q 338 20 353 29 Q 407 56 417 119 Q 433 201 443 291 Q 449 322 463 351 Q 473 364 464 376 Q 448 392 416 410 Q 397 420 373 408 Q 351 399 332 395 L 293 387 Q 265 383 224 373 Q 199 372 201 392 C 187 419 165 310 191 324 Z" fill="black" /></g></svg>