<?xml version='1.0' encoding='utf-8'?>
<svg xmlns="http://www.w3.org/2000/svg" version="1.1" viewBox="0 0 1024 1024"><g transform="scale(1, -1) translate(0, -900)"><path d="M 690 429 Q 721 435 765 438 L 809 442 Q 855 446 912 447 Q 933 447 951 448 Q 967 448 971 456 Q 975 466 962 476 Q 913 510 860 493 Q 844 490 827 485 L 772 474 Q 735 468 694 460 Q 693 460 693 459 L 642 451 Q 602 447 563 438 L 521 432 Q 490 429 458 423 Q 440 420 454 407 Q 481 383 519 395 Q 523 396 529 397 L 566 406 Q 602 416 642 421 L 690 429 Z" fill="black" /></g></svg>