<?xml version='1.0' encoding='utf-8'?>
<svg xmlns="http://www.w3.org/2000/svg" version="1.1" viewBox="0 0 1024 1024"><g transform="scale(1, -1) translate(0, -900)"><path d="M 535 720 Q 525 729 503 739 Q 484 749 475 743 Q 468 736 476 721 Q 494 687 495 626 Q 505 374 484 142 Q 481 103 459 68 Q 449 53 458 33 Q 465 12 476 4 Q 486 -3 503 8 Q 561 48 649 66 Q 749 85 945 86 Q 970 85 970 97 Q 970 112 941 131 Q 928 143 800 121 Q 625 102 562 87 Q 534 83 533 109 Q 540 325 542 597 Q 542 654 549 692 C 551 710 551 710 535 720 Z" fill="black" /></g></svg>