<?xml version='1.0' encoding='utf-8'?>
<svg xmlns="http://www.w3.org/2000/svg" version="1.1" viewBox="0 0 1024 1024"><g transform="scale(1, -1) translate(0, -900)"><path d="M 496 270 Q 586 300 765 325 Q 778 326 790 318 Q 806 312 810 287 Q 816 223 805 107 Q 806 85 785 84 Q 757 85 734 88 Q 718 89 723 81 Q 726 72 753 54 Q 787 27 810 -3 Q 822 -13 833 -6 Q 858 12 871 102 L 871 128 Q 856 297 869 319 Q 879 331 871 341 Q 861 351 822 367 Q 804 374 790 365 Q 771 358 716 350 Q 638 335 578 322 Q 521 310 481 304 C 451 299 467 261 496 270 Z" fill="black" /></g></svg>