<?xml version='1.0' encoding='utf-8'?>
<svg xmlns="http://www.w3.org/2000/svg" version="1.1" viewBox="0 0 1024 1024"><g transform="scale(1, -1) translate(0, -900)"><path d="M 207 334 Q 226 355 335 376 Q 348 377 364 373 Q 376 367 377 352 Q 380 339 368 225 Q 358 156 344 131 Q 337 119 322 122 Q 300 131 277 138 Q 264 145 260 141 Q 257 137 269 126 Q 317 65 319 46 Q 323 39 330 38 Q 343 37 368 61 Q 392 85 398 116 Q 425 351 443 368 Q 450 375 448 380 Q 449 387 420 404 Q 392 417 386 419 Q 377 420 357 412 Q 345 409 332 406 L 293 398 Q 287 398 239 382 Q 212 378 210 397 C 191 420 182 317 207 334 Z" fill="black" /></g></svg>