<?xml version='1.0' encoding='utf-8'?>
<svg xmlns="http://www.w3.org/2000/svg" version="1.1" viewBox="0 0 1024 1024"><g transform="scale(1, -1) translate(0, -900)"><path d="M 757 202 Q 750 -41 763 -65 Q 767 -72 774 -69 Q 781 -66 785 -54 Q 800 -18 801 99 Q 801 159 802 209 L 803 245 Q 804 288 807 342 L 811 383 Q 811 386 812 387 Q 815 405 818 418 Q 821 434 810 442 Q 782 461 770 463 Q 760 467 746 460 Q 739 453 744 444 Q 765 408 761 367 L 761 331 Q 760 288 758 235 L 757 202 Z" fill="black" /></g></svg>