<?xml version='1.0' encoding='utf-8'?>
<svg xmlns="http://www.w3.org/2000/svg" version="1.1" viewBox="0 0 1024 1024"><g transform="scale(1, -1) translate(0, -900)"><path d="M 186 344 Q 228 374 338 387 Q 360 390 372 380 Q 384 371 358 208 Q 352 157 330 124 Q 323 117 308 123 Q 284 130 264 136 Q 251 142 251 135 Q 250 131 257 123 Q 294 78 305 49 Q 312 30 327 39 Q 385 66 394 132 Q 410 219 420 315 Q 424 346 439 372 Q 449 385 439 395 Q 424 411 393 428 Q 381 435 328 415 L 290 407 Q 259 401 214 389 Q 193 386 194 405 C 178 430 160 329 186 344 Z" fill="black" /></g></svg>