<?xml version='1.0' encoding='utf-8'?>
<svg xmlns="http://www.w3.org/2000/svg" version="1.1" viewBox="0 0 1024 1024"><g transform="scale(1, -1) translate(0, -900)"><path d="M 787 572 Q 794 609 804 632 L 822 671 Q 829 684 840 694 Q 853 710 840 725 Q 825 737 779 756 Q 763 762 744 754 Q 710 739 679 728 L 636 715 Q 578 702 516 693 Q 503 692 504 682 Q 505 675 522 671 Q 544 662 574 673 L 636 687 L 678 698 Q 702 705 728 710 Q 747 716 756 707 Q 765 698 761 658 L 756 627 Q 750 600 744 575 C 737 546 781 543 787 572 Z" fill="black" /></g></svg>