<?xml version='1.0' encoding='utf-8'?>
<svg xmlns="http://www.w3.org/2000/svg" version="1.1" viewBox="0 0 1024 1024"><g transform="scale(1, -1) translate(0, -900)"><path d="M 179 323 Q 236 356 323 356 Q 342 357 354 348 Q 366 338 356 297 Q 350 243 342 187 Q 336 144 317 114 Q 310 108 248 121 Q 235 125 235 119 Q 234 115 242 107 Q 279 62 292 34 Q 299 15 316 24 Q 371 51 381 111 Q 394 189 404 275 Q 411 308 427 336 Q 437 351 428 362 Q 412 380 378 399 Q 360 408 312 388 L 274 381 Q 249 378 209 368 Q 182 364 183 387 C 171 415 153 310 179 323 Z" fill="black" /></g></svg>