<?xml version='1.0' encoding='utf-8'?>
<svg xmlns="http://www.w3.org/2000/svg" version="1.1" viewBox="0 0 1024 1024"><g transform="scale(1, -1) translate(0, -900)"><path d="M 538 221 Q 483 212 431 200 Q 400 188 402 210 C 380 230 364 127 391 140 Q 487 191 735 210 Q 763 213 774 202 Q 787 190 784 166 Q 777 37 750 16 Q 740 10 668 23 Q 652 30 651 22 Q 650 12 669 0 Q 703 -34 718 -63 Q 730 -85 748 -73 Q 796 -45 814 9 Q 818 25 823 44 Q 853 176 869 189 Q 884 205 877 215 Q 865 228 816 252 Q 791 265 712 247 Q 618 235 576 227 L 538 221 Z" fill="black" /></g></svg>