<?xml version='1.0' encoding='utf-8'?>
<svg xmlns="http://www.w3.org/2000/svg" version="1.1" viewBox="0 0 1024 1024"><g transform="scale(1, -1) translate(0, -900)"><path d="M 187 341 Q 223 368 352 380 Q 379 383 390 372 Q 400 363 374 210 Q 367 164 347 135 Q 340 125 319 127 Q 292 134 268 141 Q 255 145 255 139 Q 255 135 262 128 Q 308 83 323 54 Q 330 36 346 45 Q 400 72 411 133 Q 427 214 439 302 Q 445 335 460 362 Q 472 375 461 387 Q 446 403 414 422 Q 395 432 371 422 Q 346 409 320 406 Q 319 406 319 405 L 283 399 Q 253 395 213 385 Q 191 382 191 402 C 175 427 161 326 187 341 Z" fill="black" /></g></svg>