<?xml version='1.0' encoding='utf-8'?>
<svg xmlns="http://www.w3.org/2000/svg" version="1.1" viewBox="0 0 1024 1024"><g transform="scale(1, -1) translate(0, -900)"><path d="M 733 555 Q 708 528 668 492 Q 658 482 669 482 Q 703 489 754 532 Q 757 536 762 539 L 791 569 Q 809 587 839 629 Q 852 651 878 675 Q 890 684 885 691 Q 884 698 835 714 Q 823 720 783 696 Q 714 672 666 659 Q 650 656 662 646 Q 681 633 712 643 Q 790 668 796 663 Q 799 659 791 644 Q 776 613 753 581 L 733 555 Z" fill="black" /></g></svg>