<?xml version='1.0' encoding='utf-8'?>
<svg xmlns="http://www.w3.org/2000/svg" version="1.1" viewBox="0 0 1024 1024"><g transform="scale(1, -1) translate(0, -900)"><path d="M 196 342 Q 220 363 327 383 Q 349 386 363 378 Q 373 369 355 203 Q 351 154 329 119 Q 323 115 269 128 Q 251 137 251 127 Q 250 123 257 115 Q 294 72 305 44 Q 312 26 328 35 Q 385 62 393 128 Q 406 216 413 311 Q 417 342 432 370 Q 442 385 431 395 Q 415 411 383 427 Q 365 436 323 415 L 287 405 Q 260 399 221 386 Q 199 382 197 401 C 179 425 170 326 196 342 Z" fill="black" /></g></svg>