<?xml version='1.0' encoding='utf-8'?>
<svg xmlns="http://www.w3.org/2000/svg" version="1.1" viewBox="0 0 1024 1024"><g transform="scale(1, -1) translate(0, -900)"><path d="M 766 385 Q 767 384 768 380 Q 772 368 783 369 Q 793 370 800 382 Q 809 392 825 447 Q 837 489 866 513 Q 881 526 868 539 Q 853 552 813 573 Q 800 579 738 564 Q 711 564 608 539 Q 571 530 541 524 C 512 518 526 488 555 497 Q 583 507 638 518 L 673 524 Q 764 548 788 537 Q 795 533 791 510 Q 776 425 769 408 C 763 390 763 390 766 385 Z" fill="black" /></g></svg>