<?xml version='1.0' encoding='utf-8'?>
<svg xmlns="http://www.w3.org/2000/svg" version="1.1" viewBox="0 0 1024 1024"><g transform="scale(1, -1) translate(0, -900)"><path d="M 772 272 Q 776 262 787 261 Q 797 262 802 274 Q 811 286 826 346 Q 836 385 863 407 Q 876 419 865 430 Q 852 443 814 461 Q 807 465 746 453 Q 689 443 643 430 Q 613 423 591 418 C 562 411 578 386 606 396 Q 631 406 674 414 L 706 421 Q 776 437 790 430 Q 797 426 794 402 Q 781 323 774 301 C 767 277 767 277 772 272 Z" fill="black" /></g></svg>