<?xml version='1.0' encoding='utf-8'?>
<svg xmlns="http://www.w3.org/2000/svg" version="1.1" viewBox="0 0 1024 1024"><g transform="scale(1, -1) translate(0, -900)"><path d="M 690 623 Q 808 651 844 648 Q 859 644 857 635 Q 858 631 854 623 Q 832 566 835 564 Q 842 561 856 571 Q 899 599 935 609 Q 965 616 964 625 Q 961 634 901 676 Q 877 697 793 672 Q 757 666 691 651 L 652 644 Q 612 637 566 626 Q 526 617 488 609 C 459 603 458 587 488 583 Q 504 577 547 587 Q 616 611 654 615 L 690 623 Z" fill="black" /></g></svg>