<?xml version='1.0' encoding='utf-8'?>
<svg xmlns="http://www.w3.org/2000/svg" version="1.1" viewBox="0 0 1024 1024"><g transform="scale(1, -1) translate(0, -900)"><path d="M 820 43 Q 832 24 844 6 Q 859 -15 865 -12 Q 874 -11 884 14 Q 894 39 891 74 Q 876 309 897 349 Q 906 365 899 375 Q 892 384 848 396 Q 826 403 811 394 Q 753 367 705 357 C 676 350 693 325 722 334 Q 726 335 731 337 Q 758 344 791 355 Q 819 365 830 356 Q 854 335 841 81 Q 841 77 840 71 C 838 41 804 68 820 43 Z" fill="black" /></g></svg>