<?xml version='1.0' encoding='utf-8'?>
<svg xmlns="http://www.w3.org/2000/svg" version="1.1" viewBox="0 0 1024 1024"><g transform="scale(1, -1) translate(0, -900)"><path d="M 641 543 Q 642 507 661 491 Q 685 470 739 472 Q 784 475 816 501 Q 826 508 820 522 Q 813 532 804 565 Q 804 574 800 577 Q 797 580 794 569 Q 766 521 747 515 Q 719 506 691 516 Q 681 520 678 527 Q 675 536 673 554 L 674 587 Q 677 620 672 627 Q 663 634 650 638 C 626 647 626 647 629 633 L 641 573 L 641 543 Z" fill="black" /></g></svg>