<?xml version='1.0' encoding='utf-8'?>
<svg xmlns="http://www.w3.org/2000/svg" version="1.1" viewBox="0 0 1024 1024"><g transform="scale(1, -1) translate(0, -900)"><path d="M 383 81 Q 396 172 405 271 Q 409 305 423 333 Q 433 349 422 359 Q 406 375 371 391 Q 353 400 308 377 L 270 366 Q 240 360 197 345 Q 175 341 173 360 C 153 382 140 276 165 292 Q 196 319 308 341 Q 336 348 350 340 Q 363 333 359 291 Q 347 110 317 59 Q 311 56 244 73 Q 231 77 231 71 Q 230 67 238 59 Q 278 13 292 -18 Q 299 -37 315 -27 Q 337 -17 355 0 Q 376 31 382 69 L 383 81 Z" fill="black" /></g></svg>