<?xml version='1.0' encoding='utf-8'?>
<svg xmlns="http://www.w3.org/2000/svg" version="1.1" viewBox="0 0 1024 1024"><g transform="scale(1, -1) translate(0, -900)"><path d="M 188 281 Q 210 305 312 323 Q 366 338 362 277 Q 361 276 361 272 Q 346 98 314 48 Q 307 42 244 46 Q 231 50 231 43 Q 231 39 239 31 Q 278 -8 291 -34 Q 300 -52 314 -41 Q 368 -10 380 59 Q 396 150 407 251 Q 411 284 427 312 Q 437 327 426 338 Q 410 354 376 371 Q 357 381 333 369 Q 330 368 328 366 L 289 352 Q 262 346 218 332 Q 193 326 192 349 C 177 375 164 264 188 281 Z" fill="black" /></g></svg>