<?xml version='1.0' encoding='utf-8'?>
<svg xmlns="http://www.w3.org/2000/svg" version="1.1" viewBox="0 0 1024 1024"><g transform="scale(1, -1) translate(0, -900)"><path d="M 808 302 Q 827 344 849 355 Q 862 368 851 382 Q 790 430 743 400 Q 736 399 730 395 L 689 382 Q 680 382 625 365 L 589 358 Q 562 354 537 350 Q 524 349 526 341 Q 527 335 542 331 Q 561 324 588 333 Q 589 334 593 334 L 625 341 Q 655 350 687 356 L 725 366 Q 738 370 751 372 Q 772 379 780 370 Q 784 366 783 354 Q 776 327 768 305 C 758 277 795 275 808 302 Z" fill="black" /></g></svg>