<?xml version='1.0' encoding='utf-8'?>
<svg xmlns="http://www.w3.org/2000/svg" version="1.1" viewBox="0 0 1024 1024"><g transform="scale(1, -1) translate(0, -900)"><path d="M 389 434 Q 389 435 390 435 Q 408 466 422 612 Q 432 664 465 698 Q 481 716 464 729 Q 445 744 393 764 Q 377 771 325 753 Q 313 753 237 726 Q 198 713 173 707 Q 157 706 154 699 Q 151 695 169 684 Q 203 669 224 679 Q 261 695 347 714 Q 362 718 368 715 Q 383 708 379 663 Q 363 497 351 462 Q 345 435 358 421 C 371 395 376 407 389 434 Z" fill="black" /></g></svg>