<?xml version='1.0' encoding='utf-8'?>
<svg xmlns="http://www.w3.org/2000/svg" version="1.1" viewBox="0 0 1024 1024"><g transform="scale(1, -1) translate(0, -900)"><path d="M 182 719 Q 166 718 163 712 Q 159 706 177 696 Q 211 681 232 689 Q 272 705 368 724 Q 384 727 391 724 Q 404 717 399 675 Q 377 518 365 487 Q 359 469 366 454 Q 372 439 384 441 Q 397 444 403 458 Q 421 486 441 619 Q 454 671 487 703 Q 505 719 488 734 Q 469 750 418 772 Q 406 778 345 762 Q 294 750 251 737 Q 209 724 182 719 Z" fill="black" /></g></svg>