<?xml version='1.0' encoding='utf-8'?>
<svg xmlns="http://www.w3.org/2000/svg" version="1.1" viewBox="0 0 1024 1024"><g transform="scale(1, -1) translate(0, -900)"><path d="M 704 291 Q 764 393 790 492 Q 800 532 828 560 Q 846 576 829 589 Q 807 602 779 608 Q 761 614 687 588 Q 600 567 533 561 Q 517 562 513 557 Q 509 547 530 532 Q 555 516 614 534 Q 714 565 726 563 Q 738 563 738 542 Q 717 415 671 330 L 646 290 Q 576 203 469 137 Q 456 128 464 124 Q 470 121 491 131 Q 614 179 674 249 L 704 291 Z" fill="black" /></g></svg>