<?xml version='1.0' encoding='utf-8'?>
<svg xmlns="http://www.w3.org/2000/svg" version="1.1" viewBox="0 0 1024 1024"><g transform="scale(1, -1) translate(0, -900)"><path d="M 358 421 Q 348 418 337 416 Q 309 410 249 394 Q 227 388 223 408 Q 226 555 239 588 Q 245 603 238 613 Q 223 629 200 638 Q 184 645 176 637 Q 170 633 177 622 Q 195 577 178 407 Q 175 395 172 381 Q 166 362 179 347 Q 200 329 219 346 Q 249 370 356 384 Q 386 388 399 376 Q 411 366 399 323 Q 392 256 381 186 Q 374 131 349 96 Q 342 86 322 87 Q 288 99 256 109 Q 243 113 243 107 Q 242 103 250 95 Q 305 43 324 9 Q 331 -10 349 -1 Q 407 26 422 99 Q 440 193 453 298 Q 460 334 477 364 Q 489 380 478 392 Q 462 411 425 431 Q 409 441 389 434 L 358 421 Z" fill="black" /></g></svg>