<?xml version='1.0' encoding='utf-8'?>
<svg xmlns="http://www.w3.org/2000/svg" version="1.1" viewBox="0 0 1024 1024"><g transform="scale(1, -1) translate(0, -900)"><path d="M 303 726 Q 284 725 282 719 Q 278 713 296 701 Q 333 682 357 690 Q 418 709 554 728 Q 579 731 587 726 Q 602 719 598 674 Q 582 509 570 476 Q 564 457 571 439 Q 578 423 592 425 Q 605 429 613 445 Q 629 475 648 610 Q 661 670 699 705 Q 718 724 699 741 Q 677 757 620 782 Q 605 789 533 771 Q 515 771 399 744 Q 341 731 303 726 Z" fill="black" /></g></svg>