<?xml version='1.0' encoding='utf-8'?>
<svg xmlns="http://www.w3.org/2000/svg" version="1.1" viewBox="0 0 1024 1024"><g transform="scale(1, -1) translate(0, -900)"><path d="M 560 667 Q 550 676 527 687 Q 508 699 499 691 Q 492 684 500 670 Q 516 636 518 574 Q 524 360 505 162 Q 501 123 478 88 Q 468 72 477 52 Q 484 30 494 22 Q 504 15 522 26 Q 618 90 892 88 Q 917 87 918 100 Q 918 115 889 136 Q 873 149 765 131 Q 626 118 578 108 Q 556 102 555 127 Q 562 317 566 556 Q 566 607 573 639 C 576 657 576 657 560 667 Z" fill="black" /></g></svg>