<?xml version='1.0' encoding='utf-8'?>
<svg xmlns="http://www.w3.org/2000/svg" version="1.1" viewBox="0 0 1024 1024"><g transform="scale(1, -1) translate(0, -900)"><path d="M 370 419 Q 386 453 400 601 Q 410 653 442 685 Q 458 703 441 716 Q 422 731 370 751 Q 355 757 302 738 Q 257 726 219 712 Q 182 699 157 693 Q 141 692 139 686 Q 136 682 153 672 Q 187 659 205 667 Q 241 683 324 703 Q 339 706 344 703 Q 359 696 356 651 Q 341 482 331 446 Q 325 431 337 406 C 348 378 360 391 370 419 Z" fill="black" /></g></svg>