<?xml version='1.0' encoding='utf-8'?>
<svg xmlns="http://www.w3.org/2000/svg" version="1.1" viewBox="0 0 1024 1024"><g transform="scale(1, -1) translate(0, -900)"><path d="M 337 406 Q 334 407 333 406 Q 306 400 249 383 Q 227 377 223 396 Q 226 543 239 576 Q 245 591 238 601 Q 223 617 200 626 Q 184 633 176 625 Q 170 621 177 610 Q 195 565 178 395 Q 175 383 172 369 Q 166 350 180 335 Q 195 323 220 334 Q 241 356 352 375 Q 382 379 395 367 Q 407 357 395 315 Q 388 248 377 178 Q 370 123 345 88 Q 338 78 317 78 Q 280 91 248 101 Q 235 105 235 99 Q 235 95 242 87 Q 300 35 321 0 Q 328 -19 345 -10 Q 396 17 413 70 Q 425 118 449 290 Q 455 326 472 356 Q 485 372 473 384 Q 457 403 420 422 Q 401 434 373 421 Q 372 420 370 419 L 337 406 Z" fill="black" /></g></svg>