<?xml version='1.0' encoding='utf-8'?>
<svg xmlns="http://www.w3.org/2000/svg" version="1.1" viewBox="0 0 1024 1024"><g transform="scale(1, -1) translate(0, -900)"><path d="M 195 330 Q 225 357 319 372 Q 341 375 353 366 Q 363 357 341 209 Q 334 164 315 136 Q 308 129 292 135 Q 273 139 256 144 Q 243 150 243 143 Q 242 139 249 131 Q 280 88 288 61 Q 295 43 311 51 Q 368 78 376 135 Q 392 213 402 299 Q 408 330 422 357 Q 432 370 423 381 Q 407 397 376 414 Q 358 424 335 413 Q 325 409 318 404 L 283 394 Q 261 390 225 378 Q 203 374 201 393 C 184 418 170 313 195 330 Z" fill="black" /></g></svg>