<?xml version='1.0' encoding='utf-8'?>
<svg xmlns="http://www.w3.org/2000/svg" version="1.1" viewBox="0 0 1024 1024"><g transform="scale(1, -1) translate(0, -900)"><path d="M 570 369 Q 589 382 648 415 L 694 441 Q 739 468 802 502 Q 818 509 823 501 Q 830 488 819 455 Q 806 407 788 348 Q 779 306 751 320 Q 736 324 721 329 Q 708 330 711 324 Q 715 314 765 259 Q 784 234 802 253 Q 839 293 852 354 Q 864 403 876 456 Q 885 490 913 519 Q 925 534 910 545 Q 892 555 844 565 Q 829 568 787 535 Q 766 522 698 481 L 652 457 Q 631 450 575 421 L 530 402 Q 508 395 493 387 Q 480 384 480 375 Q 480 368 521 358 Q 524 358 528 356 C 543 352 545 353 570 369 Z" fill="black" /></g></svg>