<?xml version='1.0' encoding='utf-8'?>
<svg xmlns="http://www.w3.org/2000/svg" version="1.1" viewBox="0 0 1024 1024"><g transform="scale(1, -1) translate(0, -900)"><path d="M 564 257 Q 500 247 457 234 Q 430 224 423 241 Q 423 286 436 300 Q 448 321 422 340 Q 398 361 384 364 Q 374 364 370 356 Q 367 349 374 341 Q 396 295 370 223 Q 367 216 368 209 Q 369 202 380 191 Q 395 178 438 192 Q 486 211 601 230 Q 724 251 734 220 Q 734 217 734 212 Q 735 202 717 117 Q 704 68 692 49 Q 679 22 650 26 Q 619 33 588 37 Q 572 41 568 37 Q 567 33 581 22 Q 654 -41 662 -62 Q 666 -71 675 -72 Q 691 -75 721 -44 Q 749 -13 756 25 Q 798 208 814 219 Q 821 226 822 233 Q 822 240 792 262 Q 753 287 725 279 Q 707 275 683 274 Q 649 273 600 263 L 564 257 Z" fill="black" /></g></svg>