<?xml version='1.0' encoding='utf-8'?>
<svg xmlns="http://www.w3.org/2000/svg" version="1.1" viewBox="0 0 1024 1024"><g transform="scale(1, -1) translate(0, -900)"><path d="M 600 263 Q 607 279 623 324 Q 635 370 666 397 Q 682 412 667 425 Q 651 438 606 460 Q 594 466 540 453 Q 489 443 449 431 Q 409 421 383 416 Q 368 415 366 410 Q 362 406 378 396 Q 408 381 427 389 Q 467 404 559 420 Q 575 421 582 419 Q 589 415 586 391 Q 571 304 564 286 Q 558 271 564 257 C 570 228 589 235 600 263 Z" fill="black" /></g></svg>