<?xml version='1.0' encoding='utf-8'?>
<svg xmlns="http://www.w3.org/2000/svg" version="1.1" viewBox="0 0 1024 1024"><g transform="scale(1, -1) translate(0, -900)"><path d="M 350 393 Q 317 386 259 367 Q 240 366 239 382 Q 252 545 264 570 Q 271 586 264 598 Q 248 617 223 628 Q 204 635 196 627 Q 189 623 197 611 Q 212 572 190 394 Q 186 375 181 355 Q 175 336 190 320 Q 208 305 231 319 Q 255 343 360 362 Q 388 363 400 353 Q 409 344 382 180 Q 375 131 353 100 Q 346 90 325 94 Q 297 103 273 109 Q 260 113 259 107 Q 258 103 266 94 Q 311 45 326 12 Q 333 -7 351 2 Q 411 29 423 97 Q 439 182 452 278 Q 459 312 476 342 Q 488 358 476 369 Q 460 388 425 407 Q 406 417 384 408 L 350 393 Z" fill="black" /></g></svg>