<?xml version='1.0' encoding='utf-8'?>
<svg xmlns="http://www.w3.org/2000/svg" version="1.1" viewBox="0 0 1024 1024"><g transform="scale(1, -1) translate(0, -900)"><path d="M 388 421 Q 404 458 423 596 Q 435 648 468 680 Q 484 698 468 712 Q 449 727 397 748 Q 382 755 329 738 Q 314 738 239 712 Q 199 700 174 695 Q 158 694 155 687 Q 151 683 169 672 Q 203 657 224 666 Q 261 681 350 700 Q 366 701 371 700 Q 386 693 381 648 Q 360 480 348 447 Q 342 426 351 409 C 360 380 378 393 388 421 Z" fill="black" /></g></svg>