<?xml version='1.0' encoding='utf-8'?>
<svg xmlns="http://www.w3.org/2000/svg" version="1.1" viewBox="0 0 1024 1024"><g transform="scale(1, -1) translate(0, -900)"><path d="M 338 394 Q 325 393 247 367 Q 228 366 227 382 Q 240 545 252 570 Q 259 586 252 598 Q 236 617 211 628 Q 192 635 184 627 Q 177 623 185 611 Q 200 572 178 394 Q 174 375 169 355 Q 163 336 178 320 Q 196 305 219 319 Q 238 340 344 362 Q 372 363 385 353 Q 394 344 368 180 Q 361 131 340 100 Q 333 90 312 94 Q 284 101 257 109 Q 242 113 243 107 Q 242 103 251 94 Q 297 45 314 12 Q 321 -9 340 1 Q 401 32 410 97 Q 426 182 438 278 Q 444 314 460 343 Q 472 358 461 370 Q 445 388 409 407 Q 391 417 371 409 L 338 394 Z" fill="black" /></g></svg>