<?xml version='1.0' encoding='utf-8'?>
<svg xmlns="http://www.w3.org/2000/svg" version="1.1" viewBox="0 0 1024 1024"><g transform="scale(1, -1) translate(0, -900)"><path d="M 240 355 Q 268 380 372 396 Q 400 400 414 390 Q 427 378 397 210 Q 390 158 366 126 Q 357 119 278 141 Q 262 145 263 139 Q 262 133 271 125 Q 320 73 336 38 Q 343 19 362 28 Q 425 64 435 127 Q 454 215 467 314 Q 474 348 490 378 Q 502 394 491 405 Q 475 424 440 443 Q 419 455 387 438 L 353 427 Q 323 421 274 407 Q 255 403 254 421 Q 272 554 285 581 Q 292 597 287 609 Q 272 628 247 641 Q 231 650 221 642 Q 214 638 221 625 Q 228 603 222 557 Q 218 521 212 476 Q 208 433 194 397 Q 187 376 201 361 Q 220 343 240 355 Z" fill="black" /></g></svg>