<?xml version='1.0' encoding='utf-8'?>
<svg xmlns="http://www.w3.org/2000/svg" version="1.1" viewBox="0 0 1024 1024"><g transform="scale(1, -1) translate(0, -900)"><path d="M 352 417 Q 342 413 331 411 Q 306 407 254 392 Q 230 388 228 407 Q 231 539 247 579 Q 253 594 246 605 Q 231 621 208 631 Q 192 637 184 630 Q 178 626 185 614 Q 195 590 188 469 Q 188 424 176 381 Q 169 362 183 348 Q 198 335 224 346 Q 245 364 344 379 Q 374 383 387 371 Q 400 361 389 319 Q 368 142 338 97 Q 331 88 312 92 Q 281 104 252 113 Q 239 117 239 111 Q 238 107 246 99 Q 295 48 311 14 Q 318 -5 336 4 Q 396 32 408 101 Q 426 192 439 294 Q 446 328 463 359 Q 476 374 465 385 Q 449 404 414 424 Q 398 434 380 428 L 352 417 Z" fill="black" /></g></svg>