<?xml version='1.0' encoding='utf-8'?>
<svg xmlns="http://www.w3.org/2000/svg" version="1.1" viewBox="0 0 1024 1024"><g transform="scale(1, -1) translate(0, -900)"><path d="M 350 687 Q 383 765 393 774 Q 406 792 401 804 Q 391 820 352 849 Q 336 861 321 855 Q 309 851 316 835 Q 334 805 299 679 L 286 636 Q 282 629 280 619 Q 273 597 259 579 Q 252 557 271 542 Q 313 529 347 506 L 383 486 Q 453 444 457 443 Q 464 444 468 455 Q 472 465 463 491 Q 448 524 416 528 L 373 542 Q 348 549 314 558 Q 299 562 297 575 Q 316 611 333 648 L 350 687 Z" fill="black" /></g></svg>