<?xml version='1.0' encoding='utf-8'?>
<svg xmlns="http://www.w3.org/2000/svg" version="1.1" viewBox="0 0 1024 1024"><g transform="scale(1, -1) translate(0, -900)"><path d="M 335 441 Q 332 441 330 440 Q 302 434 245 418 Q 221 412 219 432 Q 222 579 232 600 Q 236 615 230 625 Q 215 641 192 650 Q 176 656 167 648 Q 163 644 169 633 Q 190 591 173 430 Q 170 418 167 405 Q 163 386 176 371 Q 194 355 212 367 Q 240 392 348 408 Q 378 412 391 400 Q 403 390 391 348 Q 384 279 371 208 Q 362 153 337 116 Q 330 106 309 106 Q 279 115 252 121 Q 239 125 239 119 Q 239 115 247 107 Q 296 61 313 28 Q 320 9 337 18 Q 359 30 378 45 Q 403 78 411 120 Q 430 216 444 322 Q 451 358 468 388 Q 481 404 469 415 Q 453 434 417 455 Q 398 465 370 454 Q 366 453 364 451 L 335 441 Z" fill="black" /></g></svg>