<?xml version='1.0' encoding='utf-8'?>
<svg xmlns="http://www.w3.org/2000/svg" version="1.1" viewBox="0 0 1024 1024"><g transform="scale(1, -1) translate(0, -900)"><path d="M 932 113 Q 916 135 888 206 Q 885 222 877 226 Q 870 229 868 210 Q 850 128 836 103 Q 803 67 702 70 Q 663 71 633 83 Q 606 95 599 112 Q 578 154 588 257 L 590 279 Q 596 337 608 401 Q 612 419 602 429 Q 589 442 566 451 Q 553 455 545 451 Q 538 447 543 429 Q 556 390 552 353 Q 536 151 552 93 Q 555 71 577 53 Q 643 -4 822 23 Q 834 26 848 29 Q 888 39 930 66 Q 951 85 932 113 Z" fill="black" /></g></svg>