<?xml version='1.0' encoding='utf-8'?>
<svg xmlns="http://www.w3.org/2000/svg" version="1.1" viewBox="0 0 1024 1024"><g transform="scale(1, -1) translate(0, -900)"><path d="M 351 409 Q 323 406 267 392 Q 242 388 241 409 Q 250 541 260 565 Q 266 581 259 592 Q 243 608 219 619 Q 203 626 194 618 Q 187 614 195 602 Q 207 569 195 421 Q 191 402 186 382 Q 180 363 193 348 Q 209 335 239 348 Q 285 378 376 377 Q 397 378 407 368 Q 420 358 408 315 Q 389 141 355 94 Q 348 85 328 88 Q 294 101 264 113 Q 251 117 251 111 Q 250 107 258 99 Q 310 45 327 10 Q 334 -9 351 0 Q 411 27 425 97 Q 444 188 458 290 Q 465 324 484 354 Q 496 369 485 381 Q 469 400 434 421 Q 415 433 388 421 L 351 409 Z" fill="black" /></g></svg>