<?xml version='1.0' encoding='utf-8'?>
<svg xmlns="http://www.w3.org/2000/svg" version="1.1" viewBox="0 0 1024 1024"><g transform="scale(1, -1) translate(0, -900)"><path d="M 744 73 Q 731 70 657 98 Q 647 102 647 96 Q 646 92 658 82 Q 703 33 723 -2 Q 733 -24 748 -23 Q 770 -24 790 -1 Q 865 62 881 222 Q 894 328 898 493 Q 898 530 920 559 Q 933 572 931 581 Q 930 588 910 602 Q 882 621 846 631 Q 824 637 747 610 Q 743 610 741 608 Q 704 598 595 569 C 566 561 551 546 581 547 Q 618 543 751 572 Q 811 585 821 577 Q 843 535 829 298 Q 817 184 782 113 Q 766 76 744 73 Z" fill="black" /></g></svg>