<?xml version='1.0' encoding='utf-8'?>
<svg xmlns="http://www.w3.org/2000/svg" version="1.1" viewBox="0 0 1024 1024"><g transform="scale(1, -1) translate(0, -900)"><path d="M 379 437 Q 395 471 410 604 Q 420 656 453 690 Q 469 708 453 721 Q 434 736 381 757 Q 366 764 314 745 Q 295 745 225 720 Q 186 708 162 703 Q 146 702 143 695 Q 139 691 157 680 Q 191 665 212 674 Q 249 689 335 707 Q 350 710 356 707 Q 369 700 366 657 Q 350 495 339 462 Q 333 443 346 422 C 358 395 369 409 379 437 Z" fill="black" /></g></svg>