<?xml version='1.0' encoding='utf-8'?>
<svg xmlns="http://www.w3.org/2000/svg" version="1.1" viewBox="0 0 1024 1024"><g transform="scale(1, -1) translate(0, -900)"><path d="M 342 390 Q 329 389 251 363 Q 232 362 231 378 Q 244 541 256 566 Q 263 582 256 594 Q 240 613 215 624 Q 196 631 188 623 Q 181 619 189 607 Q 204 568 182 390 Q 178 371 173 351 Q 167 332 182 316 Q 200 301 223 315 Q 242 336 348 358 Q 376 359 389 349 Q 398 340 372 176 Q 365 127 344 96 Q 337 87 318 91 Q 287 101 261 109 Q 248 113 247 107 Q 246 103 254 94 Q 302 42 317 9 Q 324 -12 343 -2 Q 404 25 414 93 Q 430 178 442 274 Q 448 310 464 339 Q 476 354 465 366 Q 449 384 413 403 Q 395 413 375 405 L 342 390 Z" fill="black" /></g></svg>