<?xml version='1.0' encoding='utf-8'?>
<svg xmlns="http://www.w3.org/2000/svg" version="1.1" viewBox="0 0 1024 1024"><g transform="scale(1, -1) translate(0, -900)"><path d="M 776 446 Q 777 323 781 128 Q 781 106 770 98 Q 764 95 705 103 Q 672 115 675 105 Q 676 98 696 83 Q 754 34 769 7 Q 787 -24 801 -27 Q 816 -28 830 8 Q 846 54 844 127 Q 828 290 826 455 L 825 501 Q 825 636 840 694 Q 856 725 800 745 Q 766 763 747 756 Q 729 749 746 726 Q 768 699 770 666 Q 771 648 775 489 L 776 446 Z" fill="black" /></g></svg>