<?xml version='1.0' encoding='utf-8'?>
<svg xmlns="http://www.w3.org/2000/svg" version="1.1" viewBox="0 0 1024 1024"><g transform="scale(1, -1) translate(0, -900)"><path d="M 641 330 Q 641 327 643 321 Q 656 282 652 246 Q 642 114 652 77 Q 655 58 672 42 Q 735 -9 876 14 Q 880 17 886 17 Q 919 26 951 47 Q 967 62 956 85 Q 943 115 924 202 Q 924 218 917 222 Q 911 225 907 208 Q 885 114 868 84 Q 847 60 773 63 Q 745 64 723 74 Q 704 84 699 95 Q 678 143 708 293 Q 714 320 677 338 C 652 354 633 359 641 330 Z" fill="black" /></g></svg>