<?xml version='1.0' encoding='utf-8'?>
<svg xmlns="http://www.w3.org/2000/svg" version="1.1" viewBox="0 0 1024 1024"><g transform="scale(1, -1) translate(0, -900)"><path d="M 378 704 Q 403 710 428 713 Q 446 714 449 709 Q 455 702 452 679 Q 446 618 432 590 Q 416 563 392 568 Q 370 575 349 584 Q 328 591 342 571 Q 379 532 396 502 Q 409 486 422 498 Q 473 525 501 658 Q 508 691 522 707 Q 534 717 528 727 Q 521 737 475 759 Q 456 768 439 756 Q 426 749 389 738 L 334 726 Q 264 710 206 707 Q 190 706 188 698 Q 187 691 208 680 Q 230 665 248 672 Q 287 684 323 691 L 378 704 Z" fill="black" /></g></svg>