<?xml version='1.0' encoding='utf-8'?>
<svg xmlns="http://www.w3.org/2000/svg" version="1.1" viewBox="0 0 1024 1024"><g transform="scale(1, -1) translate(0, -900)"><path d="M 359 408 Q 319 399 255 379 Q 236 378 236 394 Q 248 535 263 566 Q 270 582 264 594 Q 248 613 223 625 Q 205 632 196 624 Q 189 620 197 607 Q 209 574 187 405 Q 183 386 177 368 Q 171 347 186 333 Q 205 317 224 329 Q 254 356 360 374 Q 388 377 401 365 Q 410 356 384 190 Q 378 141 356 108 Q 349 98 326 100 Q 292 110 261 118 Q 246 122 247 115 Q 247 111 255 102 Q 312 53 331 18 Q 340 -1 357 9 Q 415 40 427 106 Q 443 194 454 290 Q 460 326 476 355 Q 488 371 477 382 Q 461 401 425 419 Q 409 428 391 422 L 359 408 Z" fill="black" /></g></svg>