<?xml version='1.0' encoding='utf-8'?>
<svg xmlns="http://www.w3.org/2000/svg" version="1.1" viewBox="0 0 1024 1024"><g transform="scale(1, -1) translate(0, -900)"><path d="M 564 307 Q 480 298 426 285 Q 393 279 390 301 Q 384 338 402 408 Q 403 417 405 418 Q 420 439 388 463 Q 358 487 342 489 Q 329 489 326 480 Q 323 470 331 462 Q 344 438 345 421 Q 346 388 339 328 Q 332 282 328 274 Q 324 267 326 261 Q 327 252 340 242 Q 353 229 360 228 Q 370 229 385 234 Q 401 244 500 263 Q 723 305 765 278 Q 777 268 775 251 Q 776 241 757 143 Q 744 85 729 64 Q 716 42 691 46 Q 661 55 630 63 Q 612 70 608 65 Q 605 59 621 47 Q 688 -29 693 -53 Q 697 -63 707 -64 Q 725 -67 758 -35 Q 789 -2 806 67 Q 843 245 864 260 Q 873 267 873 274 Q 874 281 841 307 Q 805 334 750 323 Q 684 323 594 311 L 564 307 Z" fill="black" /></g></svg>