<?xml version='1.0' encoding='utf-8'?>
<svg xmlns="http://www.w3.org/2000/svg" version="1.1" viewBox="0 0 1024 1024"><g transform="scale(1, -1) translate(0, -900)"><path d="M 342 430 Q 264 412 251 407 Q 232 404 232 422 Q 245 566 256 586 Q 263 602 256 614 Q 240 633 215 644 Q 197 651 188 644 Q 181 640 189 627 Q 202 591 182 431 Q 179 413 173 395 Q 167 376 182 361 Q 201 345 220 357 Q 230 366 253 373 Q 301 391 352 399 Q 380 400 393 389 Q 402 380 372 207 Q 365 155 341 120 Q 334 110 313 114 Q 282 124 253 133 Q 240 137 239 131 Q 238 127 246 118 Q 297 66 314 32 Q 321 13 339 22 Q 402 49 413 121 Q 432 212 444 314 Q 451 348 468 378 Q 480 394 469 405 Q 453 424 418 443 Q 397 455 365 439 L 342 430 Z" fill="black" /></g></svg>