<?xml version='1.0' encoding='utf-8'?>
<svg xmlns="http://www.w3.org/2000/svg" version="1.1" viewBox="0 0 1024 1024"><g transform="scale(1, -1) translate(0, -900)"><path d="M 356 434 Q 377 479 394 613 Q 407 668 441 702 Q 459 720 441 734 Q 422 750 367 773 Q 355 779 297 763 Q 254 753 217 739 Q 181 727 158 723 Q 142 722 139 716 Q 135 710 153 700 Q 187 685 208 694 Q 242 707 319 723 Q 332 726 338 723 Q 353 716 349 671 Q 330 503 319 469 Q 313 450 320 434 Q 324 425 330 422 C 344 404 345 406 356 434 Z" fill="black" /></g></svg>