<?xml version='1.0' encoding='utf-8'?>
<svg xmlns="http://www.w3.org/2000/svg" version="1.1" viewBox="0 0 1024 1024"><g transform="scale(1, -1) translate(0, -900)"><path d="M 677 488 Q 717 545 759 613 Q 777 643 809 673 Q 824 686 817 695 Q 816 704 752 723 Q 737 730 688 703 Q 643 690 599 675 C 571 665 549 651 579 647 Q 606 638 676 661 Q 697 668 705 660 Q 709 653 697 629 Q 675 577 641 522 L 621 492 Q 579 425 461 310 Q 448 297 462 298 Q 472 299 515 326 Q 552 350 596 393 Q 624 421 652 456 L 677 488 Z" fill="black" /></g></svg>