<?xml version='1.0' encoding='utf-8'?>
<svg xmlns="http://www.w3.org/2000/svg" version="1.1" viewBox="0 0 1024 1024"><g transform="scale(1, -1) translate(0, -900)"><path d="M 594 311 Q 610 338 627 429 Q 640 484 675 518 Q 694 536 675 551 Q 656 567 602 590 Q 589 597 518 580 Q 490 580 391 556 Q 334 543 299 539 Q 283 538 280 533 Q 276 529 293 517 Q 327 499 348 507 Q 406 525 537 542 Q 561 543 569 539 Q 581 535 578 500 Q 568 376 559 349 Q 550 322 564 307 C 577 280 581 284 594 311 Z" fill="black" /></g></svg>