<?xml version='1.0' encoding='utf-8'?>
<svg xmlns="http://www.w3.org/2000/svg" version="1.1" viewBox="0 0 1024 1024"><g transform="scale(1, -1) translate(0, -900)"><path d="M 329 419 Q 317 419 234 396 Q 209 392 207 412 Q 210 553 223 584 Q 229 599 222 609 Q 207 625 184 635 Q 168 641 160 633 Q 154 629 161 618 Q 173 593 163 421 Q 160 403 156 385 Q 149 366 163 352 Q 178 339 204 350 Q 225 368 324 383 Q 355 386 368 373 Q 380 363 367 320 Q 360 257 348 192 Q 341 141 317 108 Q 310 98 289 98 Q 250 111 216 121 Q 203 125 203 119 Q 203 115 211 107 Q 271 55 293 20 Q 300 1 317 10 Q 377 43 388 106 Q 407 196 420 294 Q 427 330 445 360 Q 458 376 447 387 Q 431 406 395 428 Q 377 438 356 431 L 329 419 Z" fill="black" /></g></svg>