<?xml version='1.0' encoding='utf-8'?>
<svg xmlns="http://www.w3.org/2000/svg" version="1.1" viewBox="0 0 1024 1024"><g transform="scale(1, -1) translate(0, -900)"><path d="M 356 431 Q 372 449 392 596 Q 404 648 437 681 Q 453 699 437 712 Q 418 728 366 749 Q 354 755 298 739 Q 286 739 210 715 Q 170 703 146 699 Q 130 698 127 692 Q 123 686 141 676 Q 175 661 196 669 Q 233 684 318 700 Q 334 701 339 700 Q 352 693 349 651 Q 331 494 320 463 Q 311 438 329 419 C 341 401 343 404 356 431 Z" fill="black" /></g></svg>