<?xml version='1.0' encoding='utf-8'?>
<svg xmlns="http://www.w3.org/2000/svg" version="1.1" viewBox="0 0 1024 1024"><g transform="scale(1, -1) translate(0, -900)"><path d="M 574 282 Q 593 324 605 362 Q 618 411 651 440 Q 667 456 652 469 Q 634 484 587 507 Q 575 513 515 499 Q 461 489 418 477 Q 375 465 347 461 Q 331 461 329 455 Q 325 451 341 440 Q 374 424 393 432 Q 436 447 536 463 Q 554 464 560 462 Q 569 458 565 432 Q 552 336 543 317 Q 536 296 547 278 C 558 250 562 255 574 282 Z" fill="black" /></g></svg>