<?xml version='1.0' encoding='utf-8'?>
<svg xmlns="http://www.w3.org/2000/svg" version="1.1" viewBox="0 0 1024 1024"><g transform="scale(1, -1) translate(0, -900)"><path d="M 689 555 Q 729 604 771 683 Q 787 711 812 728 Q 827 735 827 745 Q 827 758 798 774 Q 764 796 749 797 Q 739 796 727 788 Q 613 746 538 740 Q 501 739 498 730 Q 497 726 504 722 Q 549 686 689 739 Q 710 745 718 739 Q 724 735 705 685 Q 693 655 648 586 L 625 557 Q 553 479 447 429 Q 437 425 438 420 Q 439 416 446 416 Q 534 413 655 519 Q 656 522 659 523 L 689 555 Z" fill="black" /></g></svg>