<?xml version='1.0' encoding='utf-8'?>
<svg xmlns="http://www.w3.org/2000/svg" version="1.1" viewBox="0 0 1024 1024"><g transform="scale(1, -1) translate(0, -900)"><path d="M 365 439 Q 387 473 402 624 Q 412 676 445 710 Q 461 728 444 741 Q 425 756 373 777 Q 352 784 308 765 Q 289 765 225 740 Q 188 728 165 723 Q 149 722 146 715 Q 143 711 161 700 Q 195 685 216 695 Q 316 734 348 727 Q 363 720 359 675 Q 343 509 331 474 Q 327 456 333 441 Q 337 434 342 430 C 353 414 353 414 365 439 Z" fill="black" /></g></svg>