<?xml version='1.0' encoding='utf-8'?>
<svg xmlns="http://www.w3.org/2000/svg" version="1.1" viewBox="0 0 1024 1024"><g transform="scale(1, -1) translate(0, -900)"><path d="M 742 531 Q 748 532 757 535 Q 778 544 800 552 Q 816 558 822 550 Q 844 487 842 182 Q 836 116 834 111 Q 830 105 813 109 Q 791 113 770 118 Q 751 125 753 116 Q 799 73 826 40 Q 839 24 852 19 Q 861 16 868 25 Q 904 73 903 118 Q 881 334 881 491 Q 881 524 890 540 Q 900 558 890 567 Q 871 583 837 595 Q 819 601 772 573 Q 753 566 725 558 C 696 549 713 522 742 531 Z" fill="black" /></g></svg>