<?xml version='1.0' encoding='utf-8'?>
<svg xmlns="http://www.w3.org/2000/svg" version="1.1" viewBox="0 0 1024 1024"><g transform="scale(1, -1) translate(0, -900)"><path d="M 347 408 Q 269 387 247 379 Q 228 378 228 394 Q 235 529 252 566 Q 259 582 252 594 Q 236 613 211 624 Q 193 631 184 624 Q 177 620 185 607 Q 191 592 186 475 Q 171 376 169 367 Q 163 348 178 333 Q 196 318 219 331 Q 243 355 348 374 Q 378 377 390 365 Q 399 358 379 199 Q 375 153 355 123 Q 348 116 330 119 Q 297 131 269 141 Q 256 145 255 139 Q 254 135 262 126 Q 313 72 329 37 Q 336 16 355 26 Q 415 56 423 119 Q 436 201 444 291 Q 450 325 466 356 Q 478 372 466 383 Q 450 402 413 420 Q 397 429 377 422 L 347 408 Z" fill="black" /></g></svg>