<?xml version='1.0' encoding='utf-8'?>
<svg xmlns="http://www.w3.org/2000/svg" version="1.1" viewBox="0 0 1024 1024"><g transform="scale(1, -1) translate(0, -900)"><path d="M 350 422 Q 332 413 317 410 Q 293 404 246 389 Q 221 385 219 404 Q 222 545 235 576 Q 241 591 234 601 Q 219 617 196 627 Q 180 633 172 625 Q 166 621 173 610 Q 185 585 175 413 Q 172 395 168 377 Q 161 358 175 343 Q 193 328 215 341 Q 234 362 328 377 Q 359 381 374 369 Q 387 359 375 313 Q 372 252 366 189 Q 362 140 342 107 Q 335 98 318 98 Q 285 108 256 117 Q 243 121 243 115 Q 243 111 250 103 Q 302 54 321 20 Q 328 1 346 11 Q 403 41 412 108 Q 424 195 430 291 Q 436 328 452 359 Q 465 375 453 387 Q 435 406 398 425 Q 385 432 371 428 L 350 422 Z" fill="black" /></g></svg>