<?xml version='1.0' encoding='utf-8'?>
<svg xmlns="http://www.w3.org/2000/svg" version="1.1" viewBox="0 0 1024 1024"><g transform="scale(1, -1) translate(0, -900)"><path d="M 346 426 Q 283 408 253 398 Q 231 394 228 411 Q 237 567 250 599 Q 256 614 250 624 Q 235 640 212 651 Q 196 658 188 650 Q 182 646 189 635 Q 205 596 185 424 Q 182 405 176 386 Q 170 367 183 352 Q 202 336 220 347 Q 245 369 340 388 Q 368 394 382 384 Q 395 374 387 333 Q 372 164 342 118 Q 330 108 268 129 Q 238 139 239 131 Q 239 127 246 119 Q 298 70 317 36 Q 324 18 341 27 Q 398 57 409 124 Q 425 212 436 311 Q 442 345 457 374 Q 469 389 457 400 Q 441 418 406 436 Q 393 443 378 439 L 346 426 Z" fill="black" /></g></svg>