<?xml version='1.0' encoding='utf-8'?>
<svg xmlns="http://www.w3.org/2000/svg" version="1.1" viewBox="0 0 1024 1024"><g transform="scale(1, -1) translate(0, -900)"><path d="M 646 676 Q 624 673 606 668 Q 563 659 531 654 C 501 649 515 609 543 621 Q 552 630 646 644 L 693 652 Q 777 667 795 659 Q 805 653 799 622 Q 778 508 766 481 C 759 462 759 462 764 455 Q 765 454 766 451 Q 772 436 784 437 Q 797 438 804 453 Q 817 469 839 550 Q 854 599 889 628 Q 907 644 892 659 Q 874 675 827 700 Q 815 707 748 694 Q 735 694 695 685 L 646 676 Z" fill="black" /></g></svg>