<?xml version='1.0' encoding='utf-8'?>
<svg xmlns="http://www.w3.org/2000/svg" version="1.1" viewBox="0 0 1024 1024"><g transform="scale(1, -1) translate(0, -900)"><path d="M 773 636 Q 682 621 584 595 Q 574 591 571 594 Q 568 598 574 607 Q 671 743 692 765 Q 704 775 698 787 Q 691 800 644 822 Q 628 829 618 825 Q 606 819 612 799 Q 633 736 533 621 Q 512 602 484 580 Q 471 568 475 558 Q 479 542 505 522 Q 517 512 529 522 Q 572 558 774 609 Q 783 612 791 615 C 819 625 803 641 773 636 Z" fill="black" /></g></svg>