<?xml version='1.0' encoding='utf-8'?>
<svg xmlns="http://www.w3.org/2000/svg" version="1.1" viewBox="0 0 1024 1024"><g transform="scale(1, -1) translate(0, -900)"><path d="M 322 403 Q 313 403 227 375 Q 208 374 208 390 Q 215 525 232 562 Q 239 578 232 590 Q 216 609 191 620 Q 173 627 164 620 Q 157 616 165 603 Q 171 588 166 471 Q 151 372 149 363 Q 143 344 158 329 Q 176 314 199 327 Q 223 351 328 370 Q 355 373 367 362 Q 377 353 368 315 Q 359 252 347 186 Q 338 134 315 102 Q 306 93 253 108 Q 220 117 219 111 Q 218 107 226 98 Q 271 49 286 16 Q 293 -3 311 6 Q 369 33 384 102 Q 403 192 418 290 Q 424 324 440 352 Q 452 367 441 378 Q 425 396 392 415 Q 376 424 360 418 L 322 403 Z" fill="black" /></g></svg>