<?xml version='1.0' encoding='utf-8'?>
<svg xmlns="http://www.w3.org/2000/svg" version="1.1" viewBox="0 0 1024 1024"><g transform="scale(1, -1) translate(0, -900)"><path d="M 660 150 Q 647 134 632 116 Q 581 68 452 29 Q 439 25 447 18 Q 454 12 481 16 Q 566 26 617 50 Q 657 72 691 112 L 718 150 Q 751 201 772 276 Q 779 309 799 325 Q 814 338 797 354 Q 778 370 746 382 Q 727 389 706 379 Q 670 360 621 349 Q 620 349 619 348 C 590 340 571 322 601 322 Q 622 318 698 336 Q 717 342 717 320 Q 717 254 680 184 L 660 150 Z" fill="black" /></g></svg>