<?xml version='1.0' encoding='utf-8'?>
<svg xmlns="http://www.w3.org/2000/svg" version="1.1" viewBox="0 0 1024 1024"><g transform="scale(1, -1) translate(0, -900)"><path d="M 225 312 Q 255 339 364 360 Q 392 364 405 353 Q 417 343 406 304 Q 399 240 386 173 Q 377 121 354 88 Q 347 81 330 82 Q 297 95 268 108 Q 255 114 255 107 Q 254 103 261 94 Q 310 39 326 4 Q 333 -15 350 -8 Q 375 2 394 17 Q 419 48 425 87 Q 444 178 459 278 Q 466 314 482 343 Q 494 359 483 370 Q 467 389 430 408 Q 412 418 362 397 Q 242 364 241 364 Q 234 367 232 375 Q 241 532 254 567 Q 260 582 254 592 Q 239 608 216 619 Q 200 626 192 618 Q 186 614 193 603 Q 202 579 197 488 Q 190 383 180 350 Q 174 331 188 316 Q 207 300 225 312 Z" fill="black" /></g></svg>