<?xml version='1.0' encoding='utf-8'?>
<svg xmlns="http://www.w3.org/2000/svg" version="1.1" viewBox="0 0 1024 1024"><g transform="scale(1, -1) translate(0, -900)"><path d="M 141 683 Q 125 682 122 675 Q 119 671 137 660 Q 171 645 192 654 Q 231 670 321 691 Q 337 694 344 691 Q 357 684 353 644 Q 335 490 324 459 Q 318 441 325 426 Q 332 411 344 413 Q 356 416 363 430 Q 379 458 396 588 Q 406 640 440 673 Q 456 689 440 704 Q 421 719 369 740 Q 354 747 298 728 Q 250 716 208 702 Q 168 689 141 683 Z" fill="black" /></g></svg>