<?xml version='1.0' encoding='utf-8'?>
<svg xmlns="http://www.w3.org/2000/svg" version="1.1" viewBox="0 0 1024 1024"><g transform="scale(1, -1) translate(0, -900)"><path d="M 360 422 Q 378 462 396 612 Q 406 664 439 695 Q 455 711 439 726 Q 420 741 370 761 Q 355 768 302 750 Q 295 750 211 721 Q 171 708 145 701 Q 129 700 127 694 Q 124 690 141 680 Q 175 667 193 675 Q 232 693 322 715 Q 338 719 344 716 Q 360 709 354 661 Q 333 483 320 447 Q 314 429 324 408 C 333 379 350 394 360 422 Z" fill="black" /></g></svg>