<?xml version='1.0' encoding='utf-8'?>
<svg xmlns="http://www.w3.org/2000/svg" version="1.1" viewBox="0 0 1024 1024"><g transform="scale(1, -1) translate(0, -900)"><path d="M 324 408 Q 290 402 230 385 Q 205 381 203 400 Q 206 541 219 572 Q 225 587 218 597 Q 203 613 180 623 Q 164 629 156 621 Q 150 617 157 606 Q 169 581 159 409 Q 156 391 152 373 Q 145 354 159 339 Q 177 324 199 337 Q 220 358 328 374 Q 359 377 372 365 Q 384 355 372 311 Q 365 245 355 176 Q 348 122 324 88 Q 317 78 297 78 Q 267 87 240 93 Q 227 97 227 91 Q 227 87 235 79 Q 284 33 301 0 Q 308 -19 325 -10 Q 386 23 397 90 Q 413 184 426 286 Q 433 323 450 353 Q 462 368 451 380 Q 435 399 398 420 Q 380 430 360 422 L 324 408 Z" fill="black" /></g></svg>