<?xml version='1.0' encoding='utf-8'?>
<svg xmlns="http://www.w3.org/2000/svg" version="1.1" viewBox="0 0 1024 1024"><g transform="scale(1, -1) translate(0, -900)"><path d="M 358 420 Q 377 457 393 612 Q 403 664 437 698 Q 453 716 437 729 Q 418 744 366 765 Q 354 771 297 755 Q 254 745 217 731 Q 181 719 158 715 Q 142 714 139 708 Q 135 702 153 692 Q 187 677 208 686 Q 242 699 320 715 Q 333 718 339 715 Q 355 708 351 660 Q 332 482 320 447 Q 314 429 321 414 Q 322 410 325 408 C 337 381 347 392 358 420 Z" fill="black" /></g></svg>