<?xml version='1.0' encoding='utf-8'?>
<svg xmlns="http://www.w3.org/2000/svg" version="1.1" viewBox="0 0 1024 1024"><g transform="scale(1, -1) translate(0, -900)"><path d="M 677 376 Q 678 424 678 472 L 678 506 Q 679 539 679 571 Q 679 578 679 583 L 679 619 Q 679 661 682 668 Q 685 678 676 686 Q 667 693 653 701 C 628 717 618 723 623 696 L 624 694 Q 627 688 633 607 L 633 576 Q 633 537 634 496 L 634 466 Q 634 420 633 370 L 631 269 Q 631 122 619 41 Q 616 2 640 -30 Q 650 -43 661 -27 Q 679 6 679 71 Q 676 119 676 293 L 677 376 Z" fill="black" /></g></svg>