<?xml version='1.0' encoding='utf-8'?>
<svg xmlns="http://www.w3.org/2000/svg" version="1.1" viewBox="0 0 1024 1024"><g transform="scale(1, -1) translate(0, -900)"><path d="M 432 179 Q 459 195 512 205 Q 624 227 740 229 Q 768 230 779 219 Q 789 209 777 171 Q 768 131 757 87 Q 748 53 731 33 Q 721 20 693 23 Q 665 29 641 34 Q 626 38 627 31 Q 627 27 635 19 Q 683 -27 700 -59 Q 707 -78 724 -68 Q 778 -43 792 7 Q 811 70 828 141 Q 837 175 855 204 Q 868 219 858 231 Q 842 250 809 272 Q 790 285 762 274 Q 713 256 666 254 Q 644 253 614 248 L 585 245 Q 533 241 465 229 Q 446 223 442 239 Q 445 269 454 279 Q 461 292 455 304 Q 443 320 422 332 Q 407 339 399 333 Q 393 329 399 318 Q 405 281 390 219 Q 383 201 396 186 Q 412 168 432 179 Z" fill="black" /></g></svg>