<?xml version='1.0' encoding='utf-8'?>
<svg xmlns="http://www.w3.org/2000/svg" version="1.1" viewBox="0 0 1024 1024"><g transform="scale(1, -1) translate(0, -900)"><path d="M 614 248 Q 621 257 636 285 Q 649 331 680 360 Q 696 375 681 388 Q 665 403 618 424 Q 606 431 549 417 Q 498 410 456 398 Q 414 388 388 385 Q 372 385 369 380 Q 365 376 382 364 Q 413 348 433 355 Q 475 368 570 380 Q 586 381 593 378 Q 599 375 597 357 Q 590 291 584 278 Q 575 256 585 245 C 595 220 597 223 614 248 Z" fill="black" /></g></svg>