<?xml version='1.0' encoding='utf-8'?>
<svg xmlns="http://www.w3.org/2000/svg" version="1.1" viewBox="0 0 1024 1024"><g transform="scale(1, -1) translate(0, -900)"><path d="M 678 551 Q 717 609 753 697 Q 763 722 782 738 Q 798 751 787 763 Q 777 773 749 785 Q 734 791 651 761 Q 555 743 531 739 Q 518 738 514 732 Q 511 726 527 719 Q 558 707 602 720 Q 675 744 688 743 Q 707 740 702 720 Q 677 612 643 578 L 622 551 Q 552 475 412 434 Q 399 430 410 423 Q 416 419 460 421 Q 565 430 654 521 L 678 551 Z" fill="black" /></g></svg>