<?xml version='1.0' encoding='utf-8'?>
<svg xmlns="http://www.w3.org/2000/svg" version="1.1" viewBox="0 0 1024 1024"><g transform="scale(1, -1) translate(0, -900)"><path d="M 504 649 Q 464 671 403 650 Q 402 650 400 649 L 369 639 Q 327 632 325 628 Q 324 629 322 628 Q 258 615 167 600 Q 145 597 162 580 Q 175 565 211 576 Q 263 591 317 602 L 374 614 Q 396 623 423 626 Q 448 630 450 619 Q 451 609 432 568 Q 425 556 431 553 Q 437 550 446 559 Q 501 599 525 608 Q 541 612 541 622 Q 540 629 516 642 L 504 649 Z" fill="black" /></g></svg>