<?xml version='1.0' encoding='utf-8'?>
<svg xmlns="http://www.w3.org/2000/svg" version="1.1" viewBox="0 0 1024 1024"><g transform="scale(1, -1) translate(0, -900)"><path d="M 409 156 Q 434 172 484 184 Q 589 211 700 218 Q 728 219 739 208 Q 749 198 737 159 Q 718 62 697 36 Q 690 26 669 29 Q 641 39 617 48 Q 604 54 602 47 Q 602 43 609 34 Q 651 -18 664 -53 Q 670 -74 688 -66 Q 745 -42 759 4 Q 775 62 790 129 Q 799 165 817 194 Q 830 209 819 222 Q 803 241 768 263 Q 749 275 721 264 Q 673 245 630 240 Q 611 239 591 234 L 553 228 Q 502 221 441 207 Q 425 200 419 214 Q 426 262 436 275 Q 443 288 439 299 Q 427 315 406 328 Q 391 335 383 330 Q 377 326 383 315 Q 392 291 369 201 Q 368 200 367 196 Q 360 177 373 162 Q 389 146 409 156 Z" fill="black" /></g></svg>