<?xml version='1.0' encoding='utf-8'?>
<svg xmlns="http://www.w3.org/2000/svg" version="1.1" viewBox="0 0 1024 1024"><g transform="scale(1, -1) translate(0, -900)"><path d="M 349 448 Q 365 487 381 618 Q 391 667 423 698 Q 439 714 423 728 Q 405 741 357 762 Q 345 766 292 751 Q 250 741 214 727 Q 180 714 157 709 Q 141 708 139 702 Q 136 698 153 688 Q 187 675 205 683 Q 238 698 314 716 Q 327 719 333 717 Q 348 710 342 665 Q 321 502 309 468 Q 303 444 312 433 C 322 405 339 420 349 448 Z" fill="black" /></g></svg>