<?xml version='1.0' encoding='utf-8'?>
<svg xmlns="http://www.w3.org/2000/svg" version="1.1" viewBox="0 0 1024 1024"><g transform="scale(1, -1) translate(0, -900)"><path d="M 351 394 Q 314 386 260 368 Q 241 367 239 383 Q 253 547 265 572 Q 271 588 265 600 Q 247 621 221 631 Q 204 637 196 629 Q 190 625 198 613 Q 212 578 198 453 Q 190 390 182 357 Q 175 337 190 321 Q 210 306 231 319 Q 256 344 361 363 Q 390 365 402 355 Q 410 345 383 180 Q 376 131 355 100 Q 348 91 333 94 L 274 110 Q 261 114 260 108 Q 259 104 267 94 Q 312 45 327 12 Q 334 -7 353 2 Q 413 29 424 98 Q 441 183 454 278 Q 460 311 478 343 Q 486 358 482 365 Q 481 367 478 370 Q 462 390 426 409 Q 407 418 385 410 L 351 394 Z" fill="black" /></g></svg>