<?xml version='1.0' encoding='utf-8'?>
<svg xmlns="http://www.w3.org/2000/svg" version="1.1" viewBox="0 0 1024 1024"><g transform="scale(1, -1) translate(0, -900)"><path d="M 325 408 Q 321 407 315 406 Q 287 402 228 386 Q 207 385 208 402 Q 220 543 235 574 Q 242 590 236 602 Q 220 621 195 633 Q 177 640 168 632 Q 161 628 169 615 Q 181 582 159 413 Q 155 394 149 376 Q 143 357 157 341 Q 173 328 199 339 Q 229 363 336 377 Q 364 378 376 366 Q 385 357 354 190 Q 345 141 322 108 Q 315 99 294 103 Q 261 115 233 125 Q 220 129 219 123 Q 218 119 226 110 Q 277 56 293 21 Q 300 2 318 10 Q 378 35 393 105 Q 412 193 427 290 Q 434 324 452 353 Q 464 369 453 380 Q 437 399 403 420 Q 384 432 358 420 L 325 408 Z" fill="black" /></g></svg>