<?xml version='1.0' encoding='utf-8'?>
<svg xmlns="http://www.w3.org/2000/svg" version="1.1" viewBox="0 0 1024 1024"><g transform="scale(1, -1) translate(0, -900)"><path d="M 696 14 Q 704 -25 717 -26 Q 718 -26 720 -25 Q 737 -16 741 41 Q 751 152 749 237 Q 745 384 746 476 L 746 514 L 746 577 L 747 606 Q 748 638 748 676 L 748 684 L 750 717 Q 750 731 759 772 Q 765 802 757 811 Q 755 815 751 817 Q 711 845 690 842 Q 680 841 675 837 Q 666 831 672 819 L 688 794 Q 705 765 705 720 L 705 705 L 705 674 Q 704 652 704 600 L 704 568 L 702 503 L 700 467 Q 688 49 696 14 Z" fill="black" /></g></svg>