<?xml version='1.0' encoding='utf-8'?>
<svg xmlns="http://www.w3.org/2000/svg" version="1.1" viewBox="0 0 1024 1024"><g transform="scale(1, -1) translate(0, -900)"><path d="M 365 425 Q 365 426 366 427 Q 382 458 398 596 Q 408 648 442 682 Q 460 700 442 713 Q 423 729 371 750 Q 359 756 303 740 Q 296 740 217 718 Q 178 708 154 703 Q 138 702 135 696 Q 131 692 149 680 Q 179 665 220 678 Q 326 709 343 699 Q 358 692 354 649 Q 338 487 327 454 Q 320 430 335 413 C 350 387 354 397 365 425 Z" fill="black" /></g></svg>