<?xml version='1.0' encoding='utf-8'?>
<svg xmlns="http://www.w3.org/2000/svg" version="1.1" viewBox="0 0 1024 1024"><g transform="scale(1, -1) translate(0, -900)"><path d="M 853 534 Q 857 564 864 587 L 882 632 Q 890 655 907 672 Q 927 692 908 708 Q 896 719 839 742 Q 823 749 806 741 L 764 722 Q 762 721 750 717 L 705 705 Q 597 683 584 682 Q 568 680 569 670 Q 574 661 594 656 Q 621 649 647 660 Q 668 668 705 674 L 748 684 Q 794 700 808 691 Q 811 690 813 688 Q 823 678 819 619 L 814 583 Q 809 551 804 529 C 798 500 849 504 853 534 Z" fill="black" /></g></svg>