<?xml version='1.0' encoding='utf-8'?>
<svg xmlns="http://www.w3.org/2000/svg" version="1.1" viewBox="0 0 1024 1024"><g transform="scale(1, -1) translate(0, -900)"><path d="M 321 398 Q 318 399 317 398 Q 287 392 227 375 Q 208 374 208 390 Q 215 525 232 562 Q 239 578 232 590 Q 216 609 191 620 Q 173 627 164 620 Q 157 616 165 603 Q 171 588 166 471 Q 151 372 149 363 Q 143 344 158 329 Q 176 314 199 327 Q 232 352 340 370 Q 368 371 379 361 Q 389 351 377 313 Q 368 252 355 189 Q 346 140 323 109 Q 314 99 293 102 Q 262 112 233 121 Q 220 125 219 119 Q 218 115 226 106 Q 277 54 294 20 Q 301 1 319 9 Q 379 39 393 103 Q 414 190 429 286 Q 436 320 454 349 Q 466 364 455 375 Q 439 394 405 414 Q 384 426 354 411 L 321 398 Z" fill="black" /></g></svg>