<?xml version='1.0' encoding='utf-8'?>
<svg xmlns="http://www.w3.org/2000/svg" version="1.1" viewBox="0 0 1024 1024"><g transform="scale(1, -1) translate(0, -900)"><path d="M 354 411 Q 373 447 387 604 Q 397 656 429 690 Q 445 709 428 722 Q 409 737 357 757 Q 336 764 292 745 Q 274 745 211 720 Q 175 708 153 703 Q 137 702 134 695 Q 131 691 149 680 Q 183 665 204 675 Q 237 688 313 706 Q 326 709 332 707 Q 348 700 344 652 Q 328 474 315 438 Q 311 420 321 398 C 331 370 343 383 354 411 Z" fill="black" /></g></svg>