<?xml version='1.0' encoding='utf-8'?>
<svg xmlns="http://www.w3.org/2000/svg" version="1.1" viewBox="0 0 1024 1024"><g transform="scale(1, -1) translate(0, -900)"><path d="M 335 409 Q 332 409 331 408 Q 307 402 257 386 Q 235 382 232 399 Q 235 540 251 575 Q 257 590 250 601 Q 235 617 212 627 Q 196 633 188 625 Q 182 621 189 610 Q 199 586 192 462 Q 192 417 180 373 Q 174 354 188 340 Q 206 324 224 335 Q 249 357 344 376 Q 374 380 387 368 Q 397 359 368 185 Q 361 133 337 100 Q 330 90 310 90 Q 277 100 248 109 Q 235 113 235 107 Q 235 103 242 95 Q 294 46 313 12 Q 320 -7 337 3 Q 395 30 409 100 Q 427 190 440 290 Q 447 326 464 356 Q 477 372 465 383 Q 449 402 413 422 Q 392 434 367 422 L 335 409 Z" fill="black" /></g></svg>