<?xml version='1.0' encoding='utf-8'?>
<svg xmlns="http://www.w3.org/2000/svg" version="1.1" viewBox="0 0 1024 1024"><g transform="scale(1, -1) translate(0, -900)"><path d="M 352 416 Q 368 456 383 601 Q 393 653 425 686 Q 441 705 424 718 Q 405 731 352 752 Q 337 759 287 740 Q 277 740 204 713 Q 168 700 145 695 Q 129 694 126 687 Q 123 681 141 672 Q 175 659 196 667 Q 230 683 308 702 Q 323 705 328 703 Q 344 696 339 649 Q 323 474 311 438 Q 307 420 316 400 C 325 371 343 387 352 416 Z" fill="black" /></g></svg>