<?xml version='1.0' encoding='utf-8'?>
<svg xmlns="http://www.w3.org/2000/svg" version="1.1" viewBox="0 0 1024 1024"><g transform="scale(1, -1) translate(0, -900)"><path d="M 570 218 Q 570 219 571 219 Q 578 231 591 284 Q 601 327 630 355 Q 645 368 630 381 Q 614 394 572 412 Q 557 418 513 405 Q 474 399 441 390 Q 408 381 387 378 Q 383 378 381 377 C 366 375 366 375 373 368 Q 374 365 382 360 Q 406 348 437 355 Q 519 379 547 371 Q 554 367 553 345 Q 546 260 539 243 Q 535 228 540 216 Q 540 215 541 213 C 549 184 557 191 570 218 Z" fill="black" /></g></svg>