<?xml version='1.0' encoding='utf-8'?>
<svg xmlns="http://www.w3.org/2000/svg" version="1.1" viewBox="0 0 1024 1024"><g transform="scale(1, -1) translate(0, -900)"><path d="M 400 155 Q 469 200 676 208 Q 707 209 719 198 Q 731 186 717 145 Q 713 112 706 78 Q 702 53 689 35 Q 682 26 664 29 Q 639 36 617 44 Q 604 50 602 43 Q 602 39 609 30 Q 649 -21 660 -53 Q 667 -74 685 -65 Q 742 -41 754 18 Q 778 154 793 177 Q 794 181 798 185 Q 811 201 799 213 Q 783 232 746 254 Q 725 266 698 254 Q 653 236 612 233 Q 591 232 565 227 L 538 223 Q 490 217 433 206 Q 417 196 410 212 Q 425 264 425 267 Q 415 283 395 296 Q 382 303 374 298 Q 368 295 373 284 Q 380 260 362 200 Q 361 199 360 196 Q 353 178 365 163 Q 381 145 400 155 Z" fill="black" /></g></svg>