<?xml version='1.0' encoding='utf-8'?>
<svg xmlns="http://www.w3.org/2000/svg" version="1.1" viewBox="0 0 1024 1024"><g transform="scale(1, -1) translate(0, -900)"><path d="M 367 422 Q 385 450 405 583 Q 418 635 451 667 Q 469 683 452 698 Q 433 714 382 736 Q 361 748 317 728 Q 307 728 234 706 Q 197 696 174 691 Q 158 690 155 684 Q 151 680 169 668 Q 203 652 224 661 Q 258 674 336 689 Q 349 690 355 688 Q 368 681 363 639 Q 341 482 329 451 Q 322 430 335 409 C 347 382 354 395 367 422 Z" fill="black" /></g></svg>