<?xml version='1.0' encoding='utf-8'?>
<svg xmlns="http://www.w3.org/2000/svg" version="1.1" viewBox="0 0 1024 1024"><g transform="scale(1, -1) translate(0, -900)"><path d="M 333 401 Q 291 392 239 375 Q 220 374 220 390 Q 232 531 247 562 Q 254 578 248 590 Q 232 609 207 621 Q 189 628 180 620 Q 173 616 181 603 Q 193 570 171 401 Q 167 382 161 364 Q 155 343 170 329 Q 189 313 208 325 Q 238 352 344 370 Q 371 373 383 363 Q 393 353 384 315 Q 375 251 363 183 Q 356 131 331 98 Q 321 89 263 108 Q 232 117 231 111 Q 230 107 238 98 Q 286 46 301 13 Q 308 -6 326 2 Q 350 14 368 29 Q 393 60 400 100 Q 419 190 434 290 Q 441 324 457 352 Q 467 367 457 378 Q 441 396 408 415 Q 392 424 374 418 L 333 401 Z" fill="black" /></g></svg>