<?xml version='1.0' encoding='utf-8'?>
<svg xmlns="http://www.w3.org/2000/svg" version="1.1" viewBox="0 0 1024 1024"><g transform="scale(1, -1) translate(0, -900)"><path d="M 784 491 Q 797 470 809 462 Q 816 455 832 472 Q 842 485 871 563 Q 880 590 901 611 Q 914 621 904 634 Q 891 650 854 675 Q 836 684 822 678 Q 788 671 742 662 Q 741 662 741 661 L 694 653 Q 666 649 635 643 L 595 635 Q 549 628 509 620 C 480 614 494 580 523 589 Q 554 599 597 608 L 635 616 Q 662 623 694 627 L 737 634 Q 753 638 774 640 Q 810 646 822 634 Q 829 624 827 615 Q 808 533 795 519 C 781 495 781 495 784 491 Z" fill="black" /></g></svg>