<?xml version='1.0' encoding='utf-8'?>
<svg xmlns="http://www.w3.org/2000/svg" version="1.1" viewBox="0 0 1024 1024"><g transform="scale(1, -1) translate(0, -900)"><path d="M 417 143 Q 498 182 667 192 Q 686 193 695 186 Q 713 168 682 34 Q 678 19 667 11 Q 655 8 590 37 Q 577 44 575 38 Q 574 29 588 16 Q 622 -26 636 -58 Q 646 -80 664 -69 Q 718 -39 735 39 Q 769 165 778 171 Q 778 172 780 172 Q 795 187 788 196 Q 778 208 734 231 Q 712 243 627 226 Q 609 226 570 218 L 541 213 Q 495 206 454 196 Q 429 187 430 205 Q 440 262 450 286 Q 456 299 448 308 Q 435 320 421 326 Q 402 333 396 329 Q 389 325 394 313 Q 409 286 395 222 Q 389 210 368 186 Q 359 173 366 163 Q 375 153 393 140 Q 403 133 417 143 Z" fill="black" /></g></svg>