<?xml version='1.0' encoding='utf-8'?>
<svg xmlns="http://www.w3.org/2000/svg" version="1.1" viewBox="0 0 1024 1024"><g transform="scale(1, -1) translate(0, -900)"><path d="M 728 649 Q 780 667 825 674 Q 838 675 841 672 Q 850 659 844 625 Q 834 531 810 490 Q 795 465 772 468 Q 750 475 729 484 Q 708 491 722 471 Q 761 431 778 402 Q 794 383 811 398 Q 860 437 885 551 Q 894 647 915 672 Q 925 684 920 692 Q 913 702 867 721 Q 849 728 833 716 Q 817 706 756 689 Q 695 671 641 665 Q 626 664 624 656 Q 623 649 644 640 Q 665 627 682 635 Q 689 638 700 640 L 728 649 Z" fill="black" /></g></svg>