<?xml version='1.0' encoding='utf-8'?>
<svg xmlns="http://www.w3.org/2000/svg" version="1.1" viewBox="0 0 1024 1024"><g transform="scale(1, -1) translate(0, -900)"><path d="M 588 391 Q 597 391 669 420 Q 685 426 691 420 Q 697 416 695 396 Q 668 249 681 178 Q 681 114 748 45 Q 791 2 903 9 Q 930 12 958 22 Q 983 35 972 64 Q 947 119 941 182 Q 937 192 931 192 Q 927 192 921 178 Q 897 93 873 81 Q 789 81 773 99 Q 740 124 727 185 Q 708 269 742 362 Q 754 395 775 415 Q 808 440 727 469 Q 702 479 686 468 Q 656 446 575 419 C 547 409 559 383 588 391 Z" fill="black" /></g></svg>