<?xml version='1.0' encoding='utf-8'?>
<svg xmlns="http://www.w3.org/2000/svg" version="1.1" viewBox="0 0 1024 1024"><g transform="scale(1, -1) translate(0, -900)"><path d="M 226 362 Q 265 372 304 385 Q 317 389 325 383 Q 332 377 332 356 Q 341 190 335 88 Q 334 64 327 54 Q 323 50 306 53 Q 260 59 261 52 Q 298 12 318 -15 Q 330 -33 344 -37 Q 351 -41 360 -32 Q 397 17 396 61 Q 372 334 393 371 Q 403 389 393 398 Q 374 414 341 427 Q 323 433 270 404 Q 231 392 208 386 C 179 378 197 354 226 362 Z" fill="black" /></g></svg>