<?xml version='1.0' encoding='utf-8'?>
<svg xmlns="http://www.w3.org/2000/svg" version="1.1" viewBox="0 0 1024 1024"><g transform="scale(1, -1) translate(0, -900)"><path d="M 220 456 Q 239 447 263 453 Q 393 492 672 528 Q 763 540 786 536 Q 805 526 803 518 Q 803 515 769 439 Q 762 426 769 421 Q 776 417 793 429 Q 850 469 897 482 Q 934 495 934 503 Q 933 513 858 568 Q 837 584 813 580 Q 746 571 669 558 L 618 550 Q 579 546 534 539 L 496 533 Q 454 529 407 519 L 369 513 Q 354 513 339 509 Q 279 500 220 492 C 190 488 191 462 220 456 Z" fill="black" /></g></svg>