<?xml version='1.0' encoding='utf-8'?>
<svg xmlns="http://www.w3.org/2000/svg" version="1.1" viewBox="0 0 1024 1024"><g transform="scale(1, -1) translate(0, -900)"><path d="M 170 468 Q 182 465 195 469 Q 273 502 421 527 Q 452 533 463 531 Q 475 528 475 523 Q 475 522 449 469 Q 445 460 449 457 Q 453 453 466 461 Q 506 486 539 495 Q 566 502 565 509 Q 564 516 512 555 Q 491 570 451 556 L 401 545 Q 388 544 376 540 Q 366 539 356 536 L 322 529 Q 297 525 270 517 L 235 509 Q 229 510 165 495 C 136 488 140 470 170 468 Z" fill="black" /></g></svg>