<?xml version='1.0' encoding='utf-8'?>
<svg xmlns="http://www.w3.org/2000/svg" version="1.1" viewBox="0 0 1024 1024"><g transform="scale(1, -1) translate(0, -900)"><path d="M 558 621 Q 548 627 531 630 Q 515 633 509 627 Q 502 620 514 602 Q 544 563 549 439 Q 549 241 496 171 Q 486 158 494 137 Q 504 109 520 97 Q 533 90 546 105 Q 577 159 681 276 Q 696 289 697 298 Q 698 305 691 303 Q 684 302 602 239 Q 595 235 592 237 Q 585 240 587 257 Q 588 354 589 422 L 590 449 Q 591 564 596 582 Q 600 600 587 608 Q 586 609 584 609 L 558 621 Z" fill="black" /></g></svg>