<?xml version='1.0' encoding='utf-8'?>
<svg xmlns="http://www.w3.org/2000/svg" version="1.1" viewBox="0 0 1024 1024"><g transform="scale(1, -1) translate(0, -900)"><path d="M 702 431 Q 723 278 795 156 Q 822 108 862 67 Q 917 24 955 15 Q 983 15 981 51 Q 968 84 957 239 Q 956 252 950 253 Q 944 253 941 239 Q 935 205 930 171 Q 923 128 908 125 Q 889 129 855 174 Q 818 217 792 283 Q 762 350 744 443 L 739 490 Q 739 571 760 612 Q 773 639 720 672 C 696 689 677 682 685 653 Q 695 626 694 589 Q 693 529 698 474 L 702 431 Z" fill="black" /></g></svg>