<?xml version='1.0' encoding='utf-8'?>
<svg xmlns="http://www.w3.org/2000/svg" version="1.1" viewBox="0 0 1024 1024"><g transform="scale(1, -1) translate(0, -900)"><path d="M 128 451 Q 141 450 164 457 Q 285 491 396 515 Q 423 522 426 510 Q 425 497 400 449 Q 393 436 399 433 Q 405 429 416 440 Q 480 486 507 495 Q 526 499 526 512 Q 525 522 462 553 Q 440 563 403 549 L 355 535 Q 327 528 305 521 L 270 512 Q 245 508 221 502 L 188 495 Q 160 492 130 484 C 101 477 98 449 128 451 Z" fill="black" /></g></svg>