<?xml version='1.0' encoding='utf-8'?>
<svg xmlns="http://www.w3.org/2000/svg" version="1.1" viewBox="0 0 1024 1024"><g transform="scale(1, -1) translate(0, -900)"><path d="M 270 395 Q 282 396 355 421 Q 370 427 376 420 Q 380 408 382 389 Q 391 211 384 104 Q 384 85 378 75 Q 374 71 360 74 Q 338 81 317 89 Q 301 96 300 88 Q 343 42 366 9 Q 376 -7 390 -12 Q 397 -16 405 -8 Q 441 34 441 91 Q 420 367 439 409 Q 449 425 439 434 Q 420 449 390 461 Q 374 467 361 460 Q 334 444 318 436 Q 297 429 261 420 C 232 413 241 388 270 395 Z" fill="black" /></g></svg>