<?xml version='1.0' encoding='utf-8'?>
<svg xmlns="http://www.w3.org/2000/svg" version="1.1" viewBox="0 0 1024 1024"><g transform="scale(1, -1) translate(0, -900)"><path d="M 227 375 Q 234 376 245 380 Q 281 392 316 403 Q 332 410 337 403 Q 358 355 348 121 Q 345 99 339 88 Q 335 82 316 87 Q 294 91 270 95 Q 251 101 253 92 Q 302 50 332 19 Q 344 3 358 -2 Q 365 -6 373 3 Q 409 51 408 96 Q 384 355 404 391 Q 414 407 404 417 Q 385 433 352 446 Q 337 452 283 422 Q 240 409 218 403 C 189 395 198 367 227 375 Z" fill="black" /></g></svg>