<?xml version='1.0' encoding='utf-8'?>
<svg xmlns="http://www.w3.org/2000/svg" version="1.1" viewBox="0 0 1024 1024"><g transform="scale(1, -1) translate(0, -900)"><path d="M 710 177 Q 749 237 784 330 Q 796 358 813 375 Q 831 390 818 402 Q 806 414 776 423 Q 754 430 729 417 Q 707 407 676 396 Q 646 386 594 376 Q 581 375 577 368 Q 574 361 591 355 Q 625 343 671 359 Q 707 375 713 377 Q 735 376 729 352 Q 711 262 675 209 L 645 171 Q 581 108 476 75 Q 463 71 474 63 Q 480 59 519 61 Q 594 67 674 136 L 710 177 Z" fill="black" /></g></svg>