<?xml version='1.0' encoding='utf-8'?>
<svg xmlns="http://www.w3.org/2000/svg" version="1.1" viewBox="0 0 1024 1024"><g transform="scale(1, -1) translate(0, -900)"><path d="M 232 369 Q 238 369 318 388 Q 336 392 340 383 Q 344 374 345 358 Q 355 210 352 120 Q 351 95 344 85 Q 340 79 322 84 Q 300 88 277 91 Q 259 95 261 88 Q 310 49 338 20 Q 350 4 363 0 Q 370 -3 377 6 Q 410 45 409 94 Q 385 340 405 373 Q 415 389 405 399 Q 387 415 356 427 Q 338 436 292 410 Q 244 398 226 395 C 197 389 203 364 232 369 Z" fill="black" /></g></svg>