<?xml version='1.0' encoding='utf-8'?>
<svg xmlns="http://www.w3.org/2000/svg" version="1.1" viewBox="0 0 1024 1024"><g transform="scale(1, -1) translate(0, -900)"><path d="M 133 466 Q 151 457 185 465 Q 224 481 369 512 Q 412 521 423 519 Q 435 512 434 507 Q 435 504 412 450 Q 408 440 413 437 Q 417 434 430 443 Q 470 473 503 484 Q 530 494 529 501 Q 528 508 473 544 Q 452 557 409 544 L 363 534 Q 353 533 342 530 Q 330 529 318 525 L 283 517 Q 261 514 238 507 L 202 499 Q 169 493 134 486 Q 133 486 132 485 C 103 478 104 475 133 466 Z" fill="black" /></g></svg>