<?xml version='1.0' encoding='utf-8'?>
<svg xmlns="http://www.w3.org/2000/svg" version="1.1" viewBox="0 0 1024 1024"><g transform="scale(1, -1) translate(0, -900)"><path d="M 241 393 Q 256 393 307 411 Q 325 415 330 406 Q 334 396 337 377 Q 350 205 346 100 Q 345 75 338 64 Q 337 64 278 67 Q 259 73 261 64 Q 306 24 332 -5 Q 344 -21 358 -26 Q 367 -29 374 -20 Q 408 25 407 74 Q 377 353 399 396 Q 409 414 399 423 Q 380 439 346 453 Q 330 459 316 452 Q 294 439 278 433 Q 260 427 222 419 C 193 413 211 388 241 393 Z" fill="black" /></g></svg>