<?xml version='1.0' encoding='utf-8'?>
<svg xmlns="http://www.w3.org/2000/svg" version="1.1" viewBox="0 0 1024 1024"><g transform="scale(1, -1) translate(0, -900)"><path d="M 150 455 Q 165 452 189 458 Q 313 486 427 504 Q 455 505 457 493 Q 457 483 439 440 Q 433 428 439 425 Q 445 422 455 432 Q 512 475 535 484 Q 553 488 552 499 Q 551 509 491 539 Q 467 549 424 533 L 376 522 Q 351 518 330 512 L 294 505 Q 270 502 245 497 L 210 493 Q 183 492 155 486 C 126 480 120 457 150 455 Z" fill="black" /></g></svg>