<?xml version='1.0' encoding='utf-8'?>
<svg xmlns="http://www.w3.org/2000/svg" version="1.1" viewBox="0 0 1024 1024"><g transform="scale(1, -1) translate(0, -900)"><path d="M 247 367 Q 260 367 343 390 Q 359 396 364 387 Q 368 377 370 360 Q 380 198 376 99 Q 375 77 368 67 Q 364 64 305 75 Q 289 81 289 72 Q 335 32 361 1 Q 371 -15 385 -19 Q 392 -22 400 -14 Q 434 31 433 74 Q 411 341 428 377 Q 438 393 428 402 Q 409 418 379 430 Q 364 436 312 409 Q 285 400 245 392 C 216 386 217 362 247 367 Z" fill="black" /></g></svg>