<?xml version='1.0' encoding='utf-8'?>
<svg xmlns="http://www.w3.org/2000/svg" version="1.1" viewBox="0 0 1024 1024"><g transform="scale(1, -1) translate(0, -900)"><path d="M 137 477 Q 150 474 191 486 Q 272 517 387 530 Q 400 533 407 532 Q 423 522 421 515 Q 415 481 409 445 Q 413 444 424 453 Q 458 487 489 501 Q 514 514 512 520 Q 511 527 456 559 Q 438 568 402 558 L 352 548 Q 342 549 329 543 Q 319 542 308 538 L 276 532 Q 252 529 228 522 L 195 515 Q 192 516 191 515 Q 166 509 139 503 C 110 496 107 477 137 477 Z" fill="black" /></g></svg>