<?xml version='1.0' encoding='utf-8'?>
<svg xmlns="http://www.w3.org/2000/svg" version="1.1" viewBox="0 0 1024 1024"><g transform="scale(1, -1) translate(0, -900)"><path d="M 241 392 Q 256 392 310 406 Q 329 409 334 398 Q 338 388 340 370 Q 350 202 347 100 Q 346 75 338 64 Q 337 64 278 67 Q 259 73 261 64 Q 306 24 332 -5 Q 344 -21 358 -26 Q 365 -30 374 -21 Q 410 25 408 73 Q 381 349 404 388 Q 416 406 405 416 Q 386 432 352 447 Q 336 454 291 432 Q 254 423 222 419 C 192 415 211 388 241 392 Z" fill="black" /></g></svg>