<?xml version='1.0' encoding='utf-8'?>
<svg xmlns="http://www.w3.org/2000/svg" version="1.1" viewBox="0 0 1024 1024"><g transform="scale(1, -1) translate(0, -900)"><path d="M 137 459 Q 149 455 181 461 Q 221 480 377 511 Q 405 515 415 515 Q 428 508 426 503 Q 417 472 408 438 L 409 437 Q 413 434 426 443 Q 463 471 496 482 Q 521 491 521 497 Q 520 504 465 540 Q 446 552 409 542 L 363 532 Q 350 531 336 526 Q 326 525 318 522 L 282 514 Q 258 510 233 504 L 198 496 Q 167 490 136 482 C 107 475 107 462 137 459 Z" fill="black" /></g></svg>