<?xml version='1.0' encoding='utf-8'?>
<svg xmlns="http://www.w3.org/2000/svg" version="1.1" viewBox="0 0 1024 1024"><g transform="scale(1, -1) translate(0, -900)"><path d="M 756 600 Q 769 578 781 571 Q 788 564 803 580 Q 813 593 842 675 Q 851 700 871 721 Q 881 731 873 743 Q 861 758 826 781 Q 811 790 732 772 Q 729 772 610 750 Q 558 740 516 733 C 486 728 505 694 533 704 Q 536 708 593 719 L 610 722 Q 641 731 682 736 L 715 742 Q 778 758 796 742 Q 803 732 801 723 Q 780 638 769 626 C 755 601 755 601 756 600 Z" fill="black" /></g></svg>