<?xml version='1.0' encoding='utf-8'?>
<svg xmlns="http://www.w3.org/2000/svg" version="1.1" viewBox="0 0 1024 1024"><g transform="scale(1, -1) translate(0, -900)"><path d="M 745 473 Q 758 449 773 442 Q 782 435 797 453 Q 812 474 845 590 Q 855 618 877 641 Q 890 651 879 665 Q 866 681 827 707 Q 809 716 795 711 Q 767 704 730 696 L 689 690 Q 656 686 621 677 L 583 669 Q 546 662 516 657 C 486 652 495 616 524 625 Q 551 634 586 640 L 621 648 Q 651 655 687 660 L 727 667 Q 772 680 792 665 Q 804 655 800 638 Q 770 508 751 499 C 738 483 738 483 745 473 Z" fill="black" /></g></svg>