<?xml version='1.0' encoding='utf-8'?>
<svg xmlns="http://www.w3.org/2000/svg" version="1.1" viewBox="0 0 1024 1024"><g transform="scale(1, -1) translate(0, -900)"><path d="M 212 370 Q 233 373 291 391 Q 304 395 311 389 Q 318 382 317 361 Q 320 190 311 88 Q 310 66 302 57 Q 299 54 253 62 Q 237 69 237 60 Q 273 20 291 -8 Q 301 -24 314 -30 Q 321 -33 329 -25 Q 366 18 367 60 Q 354 340 374 376 Q 384 392 375 401 Q 357 417 327 430 Q 311 436 299 431 Q 263 409 208 397 C 179 390 183 364 212 370 Z" fill="black" /></g></svg>