<?xml version='1.0' encoding='utf-8'?>
<svg xmlns="http://www.w3.org/2000/svg" version="1.1" viewBox="0 0 1024 1024"><g transform="scale(1, -1) translate(0, -900)"><path d="M 634 217 Q 634 213 636 207 Q 646 173 644 141 Q 638 33 647 3 Q 651 -18 670 -35 Q 731 -92 885 -67 Q 892 -64 901 -63 Q 935 -53 969 -29 Q 987 -14 973 10 Q 961 29 941 92 Q 940 105 933 110 Q 927 113 924 97 Q 905 27 890 6 Q 868 -22 777 -20 Q 743 -19 717 -7 Q 695 5 688 20 Q 670 59 693 183 Q 699 208 667 221 C 641 236 628 244 634 217 Z" fill="black" /></g></svg>