<?xml version='1.0' encoding='utf-8'?>
<svg xmlns="http://www.w3.org/2000/svg" version="1.1" viewBox="0 0 1024 1024"><g transform="scale(1, -1) translate(0, -900)"><path d="M 108 466 Q 123 462 171 475 Q 246 505 348 517 Q 367 521 375 520 Q 390 516 388 506 Q 388 503 372 453 Q 366 443 371 440 Q 378 439 389 448 Q 425 476 455 488 Q 480 497 479 504 Q 478 511 424 545 Q 403 560 367 547 L 324 538 Q 311 537 299 533 Q 283 530 265 525 L 241 520 Q 219 517 195 510 L 164 503 Q 133 497 106 490 C 77 483 78 468 108 466 Z" fill="black" /></g></svg>