<?xml version='1.0' encoding='utf-8'?>
<svg xmlns="http://www.w3.org/2000/svg" version="1.1" viewBox="0 0 1024 1024"><g transform="scale(1, -1) translate(0, -900)"><path d="M 507 118 Q 520 125 524 142 Q 531 175 498 229 Q 473 280 534 349 Q 535 353 540 356 Q 556 371 541 383 Q 525 396 496 407 Q 480 416 444 387 Q 393 359 384 358 Q 377 358 376 354 Q 375 350 382 347 Q 413 335 459 358 Q 465 362 472 355 Q 490 336 471 312 Q 434 272 469 212 Q 490 173 492 148 Q 493 132 490 123 C 486 101 486 101 507 118 Z" fill="black" /></g></svg>