<?xml version='1.0' encoding='utf-8'?>
<svg xmlns="http://www.w3.org/2000/svg" version="1.1" viewBox="0 0 1024 1024"><g transform="scale(1, -1) translate(0, -900)"><path d="M 245 373 Q 245 374 247 374 Q 281 383 314 392 Q 327 396 334 388 Q 341 382 341 360 Q 350 185 345 79 Q 344 57 337 46 Q 333 40 316 45 Q 294 48 272 52 Q 256 56 257 48 Q 306 11 332 -15 Q 342 -30 355 -34 Q 362 -35 369 -28 Q 396 6 398 68 Q 373 338 395 379 Q 405 395 395 403 Q 377 418 348 429 Q 330 436 293 414 Q 247 399 236 396 C 207 387 216 365 245 373 Z" fill="black" /></g></svg>