<?xml version='1.0' encoding='utf-8'?>
<svg xmlns="http://www.w3.org/2000/svg" version="1.1" viewBox="0 0 1024 1024"><g transform="scale(1, -1) translate(0, -900)"><path d="M 148 460 Q 167 451 187 457 Q 293 497 390 508 Q 394 508 399 508 Q 414 505 413 497 Q 413 496 389 441 Q 382 431 387 428 Q 393 427 404 434 Q 443 462 475 473 Q 500 480 500 489 Q 499 496 447 532 Q 432 545 402 538 L 356 527 Q 343 526 330 522 Q 317 521 301 515 L 277 510 Q 256 507 237 502 L 204 494 Q 174 487 146 482 C 117 477 120 470 148 460 Z" fill="black" /></g></svg>