<?xml version='1.0' encoding='utf-8'?>
<svg xmlns="http://www.w3.org/2000/svg" version="1.1" viewBox="0 0 1024 1024"><g transform="scale(1, -1) translate(0, -900)"><path d="M 726 473 Q 727 498 734 529 Q 737 542 728 549 Q 718 559 702 565 Q 692 568 686 564 Q 682 561 685 548 Q 695 520 694 493 Q 690 391 714 372 Q 772 330 871 359 Q 893 366 917 383 Q 930 392 922 409 Q 915 422 905 462 Q 906 474 901 477 Q 897 480 892 468 Q 852 402 803 395 Q 794 395 785 394 Q 764 394 749 399 Q 736 403 732 412 Q 726 424 725 453 L 726 473 Z" fill="black" /></g></svg>