<?xml version='1.0' encoding='utf-8'?>
<svg xmlns="http://www.w3.org/2000/svg" version="1.1" viewBox="0 0 1024 1024"><g transform="scale(1, -1) translate(0, -900)"><path d="M 135 463 Q 150 457 188 469 Q 276 505 368 517 Q 380 518 387 519 Q 400 515 399 509 Q 389 476 377 441 Q 381 438 393 446 Q 432 474 465 484 Q 490 494 490 500 Q 489 507 436 543 Q 417 558 373 543 L 327 532 Q 321 531 316 529 Q 303 528 289 523 L 254 515 Q 235 512 215 505 L 184 497 Q 157 493 134 486 C 105 478 105 468 135 463 Z" fill="black" /></g></svg>