<?xml version='1.0' encoding='utf-8'?>
<svg xmlns="http://www.w3.org/2000/svg" version="1.1" viewBox="0 0 1024 1024"><g transform="scale(1, -1) translate(0, -900)"><path d="M 542 470 Q 539 471 536 474 Q 514 487 504 482 Q 500 479 503 470 Q 503 467 507 460 Q 526 418 512 279 Q 487 242 523 199 L 524 197 C 539 177 539 177 545 204 Q 545 205 546 205 C 550 207 550 207 550 233 Q 550 242 551 296 L 551 317 Q 551 345 552 365 L 552 386 Q 553 434 554 438 Q 554 442 554 444 C 555 462 555 462 542 470 Z" fill="black" /></g></svg>