<?xml version='1.0' encoding='utf-8'?>
<svg xmlns="http://www.w3.org/2000/svg" version="1.1" viewBox="0 0 1024 1024"><g transform="scale(1, -1) translate(0, -900)"><path d="M 141 463 Q 156 457 199 470 Q 280 501 395 514 Q 408 517 415 516 Q 430 509 428 502 Q 428 499 412 449 Q 408 439 413 437 Q 417 434 429 444 Q 465 472 495 484 Q 520 494 519 500 Q 518 507 464 541 Q 448 553 409 542 L 363 532 Q 350 531 337 527 Q 327 526 318 523 L 282 515 Q 258 512 233 505 L 198 498 Q 168 492 138 486 C 109 480 111 467 141 463 Z" fill="black" /></g></svg>