<?xml version='1.0' encoding='utf-8'?>
<svg xmlns="http://www.w3.org/2000/svg" version="1.1" viewBox="0 0 1024 1024"><g transform="scale(1, -1) translate(0, -900)"><path d="M 233 378 Q 233 379 235 379 Q 317 403 326 397 Q 332 391 332 371 Q 339 211 333 115 Q 332 93 326 84 Q 325 84 272 87 Q 256 91 257 84 Q 297 48 319 22 Q 329 7 342 3 Q 349 0 356 8 Q 389 47 387 91 Q 365 346 386 386 Q 395 402 386 410 Q 368 425 340 436 Q 322 443 284 420 Q 269 414 220 400 C 191 392 204 369 233 378 Z" fill="black" /></g></svg>