<?xml version='1.0' encoding='utf-8'?>
<svg xmlns="http://www.w3.org/2000/svg" version="1.1" viewBox="0 0 1024 1024"><g transform="scale(1, -1) translate(0, -900)"><path d="M 468 197 Q 365 173 262 147 Q 253 144 251 146 Q 250 149 255 155 Q 321 257 347 284 Q 362 300 351 310 Q 341 320 314 324 C 285 330 260 336 260 310 Q 260 259 259 255 Q 214 162 159 129 Q 120 107 145 69 Q 145 68 147 66 Q 160 47 174 44 Q 181 41 192 48 Q 274 111 478 178 Q 478 179 480 179 C 508 189 497 204 468 197 Z" fill="black" /></g></svg>