<?xml version='1.0' encoding='utf-8'?>
<svg xmlns="http://www.w3.org/2000/svg" version="1.1" viewBox="0 0 1024 1024"><g transform="scale(1, -1) translate(0, -900)"><path d="M 952 33 Q 934 76 923 149 Q 922 165 914 170 Q 905 174 902 155 Q 886 65 872 50 Q 830 5 656 4 Q 562 8 522 24 Q 486 43 479 67 Q 473 83 472 115 L 472 153 Q 475 202 483 231 L 494 274 Q 491 298 445 322 C 419 338 393 341 406 314 Q 418 302 424 256 L 425 218 Q 425 176 424 144 L 425 105 Q 428 30 477 -7 Q 549 -58 783 -45 Q 891 -38 933 -14 Q 964 1 952 33 Z" fill="black" /></g></svg>