<?xml version='1.0' encoding='utf-8'?>
<svg xmlns="http://www.w3.org/2000/svg" version="1.1" viewBox="0 0 1024 1024"><g transform="scale(1, -1) translate(0, -900)"><path d="M 451 476 Q 372 452 291 426 Q 285 425 283 426 Q 282 427 286 431 Q 335 495 356 512 Q 366 522 360 530 Q 356 534 348 537 C 322 552 301 555 300 525 Q 303 488 258 440 Q 245 425 220 413 Q 201 403 200 394 Q 200 381 209 366 Q 218 351 228 348 Q 235 347 243 351 Q 300 402 455 460 Q 458 461 461 462 C 489 472 480 485 451 476 Z" fill="black" /></g></svg>