<?xml version='1.0' encoding='utf-8'?>
<svg xmlns="http://www.w3.org/2000/svg" version="1.1" viewBox="0 0 1024 1024"><g transform="scale(1, -1) translate(0, -900)"><path d="M 369 146 Q 463 167 679 169 L 735 171 Q 798 172 870 170 Q 907 169 939 169 Q 961 168 966 177 Q 973 190 955 205 Q 892 251 837 236 Q 789 230 732 219 L 679 212 Q 607 205 527 193 L 490 189 Q 432 185 371 177 L 325 173 Q 213 163 90 151 Q 68 150 84 131 Q 99 115 117 109 Q 139 103 157 107 Q 236 126 320 140 L 369 146 Z" fill="black" /></g></svg>