<?xml version='1.0' encoding='utf-8'?>
<svg xmlns="http://www.w3.org/2000/svg" version="1.1" viewBox="0 0 1024 1024"><g transform="scale(1, -1) translate(0, -900)"><path d="M 439 461 Q 286 425 285 425 Q 284 426 287 430 Q 333 482 349 497 Q 362 509 354 516 Q 351 520 346 522 L 346 524 Q 346 525 346 526 C 327 549 282 544 286 514 L 287 513 Q 291 497 278 470 Q 251 425 214 412 Q 190 400 191 391 Q 190 376 200 360 Q 209 344 221 339 Q 228 336 237 342 Q 312 399 452 445 C 480 454 468 468 439 461 Z" fill="black" /></g></svg>