<?xml version='1.0' encoding='utf-8'?>
<svg xmlns="http://www.w3.org/2000/svg" version="1.1" viewBox="0 0 1024 1024"><g transform="scale(1, -1) translate(0, -900)"><path d="M 679 169 Q 679 36 668 27 Q 658 18 599 26 Q 584 27 586 19 Q 587 12 599 8 Q 651 -29 680 -58 Q 699 -74 711 -73 Q 721 -70 732 -44 Q 745 -2 743 57 Q 739 121 735 171 L 732 219 Q 729 339 740 359 Q 750 378 742 389 Q 733 402 692 423 Q 676 432 658 428 Q 621 416 545 399 L 486 388 Q 431 381 373 373 C 343 369 352 331 381 339 Q 381 340 382 340 Q 431 353 487 362 L 541 372 Q 586 381 636 387 Q 654 390 663 380 Q 672 376 674 336 Q 678 276 679 212 L 679 169 Z" fill="black" /></g></svg>