<?xml version='1.0' encoding='utf-8'?>
<svg xmlns="http://www.w3.org/2000/svg" version="1.1" viewBox="0 0 1024 1024"><g transform="scale(1, -1) translate(0, -900)"><path d="M 457 478 Q 451 478 448 476 Q 294 436 292 436 Q 291 437 294 440 Q 342 492 360 506 Q 370 516 364 524 Q 357 533 334 539 C 305 548 301 549 300 531 Q 300 482 258 444 Q 246 432 224 423 Q 202 413 201 404 Q 200 389 209 372 Q 218 356 229 351 Q 236 348 245 354 Q 290 390 419 446 Q 455 459 465 466 C 491 480 486 485 457 478 Z" fill="black" /></g></svg>