<?xml version='1.0' encoding='utf-8'?>
<svg xmlns="http://www.w3.org/2000/svg" version="1.1" viewBox="0 0 1024 1024"><g transform="scale(1, -1) translate(0, -900)"><path d="M 479 482 Q 478 482 474 480 Q 401 464 325 445 Q 319 444 318 444 Q 317 445 320 449 Q 356 498 370 511 Q 380 523 373 530 Q 367 537 353 540 C 324 549 302 557 309 529 Q 310 528 311 523 Q 315 508 304 482 Q 285 445 250 429 Q 220 416 238 380 Q 248 365 258 361 Q 265 360 273 364 Q 321 403 444 451 Q 474 461 487 469 C 514 483 508 491 479 482 Z" fill="black" /></g></svg>