<?xml version='1.0' encoding='utf-8'?>
<svg xmlns="http://www.w3.org/2000/svg" version="1.1" viewBox="0 0 1024 1024"><g transform="scale(1, -1) translate(0, -900)"><path d="M 435 171 Q 498 190 543 199 Q 553 200 555 197 Q 559 193 560 179 Q 563 142 557 123 Q 544 99 522 103 Q 497 113 476 124 Q 457 131 469 111 Q 509 71 527 40 Q 536 27 547 36 Q 586 61 609 160 Q 613 185 625 197 Q 634 207 629 215 Q 622 224 583 240 Q 567 247 553 236 Q 540 229 492 215 Q 458 206 430 200 C 401 194 406 162 435 171 Z" fill="black" /></g></svg>