<?xml version='1.0' encoding='utf-8'?>
<svg xmlns="http://www.w3.org/2000/svg" version="1.1" viewBox="0 0 1024 1024"><g transform="scale(1, -1) translate(0, -900)"><path d="M 300 556 Q 303 525 262 489 Q 252 480 234 474 Q 212 464 213 456 Q 212 443 221 427 Q 230 412 240 408 Q 246 407 255 411 Q 280 433 318 451 L 336 460 Q 352 469 462 518 C 489 530 484 541 455 532 Q 382 510 303 485 Q 297 484 296 484 Q 295 485 298 488 Q 338 530 354 539 Q 366 549 359 557 Q 355 563 343 567 C 316 580 301 586 300 556 Z" fill="black" /></g></svg>