<?xml version='1.0' encoding='utf-8'?>
<svg xmlns="http://www.w3.org/2000/svg" version="1.1" viewBox="0 0 1024 1024"><g transform="scale(1, -1) translate(0, -900)"><path d="M 461 522 Q 389 506 317 487 Q 311 486 310 486 Q 309 487 312 490 Q 346 527 358 538 Q 368 548 362 554 Q 356 560 344 563 C 316 573 304 577 306 555 Q 306 554 307 552 Q 310 525 275 489 Q 266 482 250 476 Q 231 466 231 459 Q 230 447 238 433 Q 245 420 255 416 Q 261 413 269 418 Q 326 460 470 508 C 498 518 490 529 461 522 Z" fill="black" /></g></svg>