<?xml version='1.0' encoding='utf-8'?>
<svg xmlns="http://www.w3.org/2000/svg" version="1.1" viewBox="0 0 1024 1024"><g transform="scale(1, -1) translate(0, -900)"><path d="M 734 25 Q 724 47 707 109 Q 706 122 701 126 Q 697 127 693 114 Q 674 45 660 24 Q 626 -9 528 -4 Q 491 -3 461 10 Q 434 23 428 39 Q 413 70 435 171 C 440 193 440 193 430 200 Q 420 210 405 215 C 378 228 379 216 383 186 Q 387 161 387 134 Q 377 14 410 -15 Q 491 -75 650 -43 Q 653 -42 656 -42 Q 693 -32 730 -7 Q 743 6 734 25 Z" fill="black" /></g></svg>