<?xml version='1.0' encoding='utf-8'?>
<svg xmlns="http://www.w3.org/2000/svg" version="1.1" viewBox="0 0 1024 1024"><g transform="scale(1, -1) translate(0, -900)"><path d="M 641 137 Q 478 131 321 104 Q 300 98 297 105 Q 290 109 293 124 Q 299 209 307 235 Q 313 248 301 258 Q 282 277 253 286 Q 240 290 233 282 Q 229 276 238 262 Q 256 237 256 200 Q 257 127 232 90 Q 222 77 226 67 Q 233 51 248 37 Q 258 28 273 40 Q 375 103 634 103 Q 721 103 822 89 Q 841 85 851 90 Q 857 94 853 106 Q 849 118 815 139 Q 797 151 774 147 Q 729 140 666 139 Q 663 139 661 138 L 641 137 Z" fill="black" /></g></svg>