<?xml version='1.0' encoding='utf-8'?>
<svg xmlns="http://www.w3.org/2000/svg" version="1.1" viewBox="0 0 1024 1024"><g transform="scale(1, -1) translate(0, -900)"><path d="M 661 138 Q 682 165 682 210 Q 679 282 691 299 Q 698 312 693 319 Q 672 338 635 355 Q 623 359 605 353 Q 539 329 425 319 C 395 316 403 293 433 295 Q 439 295 446 296 Q 531 314 592 321 Q 614 325 620 314 Q 627 307 628 278 Q 632 202 628 186 Q 627 185 626 182 C 623 171 623 171 629 158 Q 635 143 641 137 C 651 123 651 123 661 138 Z" fill="black" /></g></svg>