<?xml version='1.0' encoding='utf-8'?>
<svg xmlns="http://www.w3.org/2000/svg" version="1.1" viewBox="0 0 1024 1024"><g transform="scale(1, -1) translate(0, -900)"><path d="M 469 494 Q 393 478 314 458 Q 307 457 306 458 Q 305 459 308 463 Q 350 517 366 530 Q 376 540 370 546 Q 366 552 355 555 C 328 567 310 574 314 544 L 315 543 Q 321 515 277 469 Q 267 457 246 448 Q 227 439 227 431 Q 226 419 234 405 Q 241 392 251 388 Q 257 385 264 390 Q 312 426 480 481 C 508 490 498 500 469 494 Z" fill="black" /></g></svg>