<?xml version='1.0' encoding='utf-8'?>
<svg xmlns="http://www.w3.org/2000/svg" version="1.1" viewBox="0 0 1024 1024"><g transform="scale(1, -1) translate(0, -900)"><path d="M 423 268 Q 417 269 411 268 Q 402 274 391 278 Q 384 282 376 278 Q 372 275 375 266 Q 376 262 378 259 Q 379 255 382 245 L 384 215 Q 387 160 381 123 Q 371 84 397 52 Q 404 42 413 51 Q 414 55 417 59 L 422 87 Q 422 93 423 128 L 423 146 Q 423 171 424 190 L 424 199 Q 425 230 426 234 Q 426 235 426 237 C 428 267 428 268 423 268 Z" fill="black" /></g></svg>