<?xml version='1.0' encoding='utf-8'?>
<svg xmlns="http://www.w3.org/2000/svg" version="1.1" viewBox="0 0 1024 1024"><g transform="scale(1, -1) translate(0, -900)"><path d="M 648 83 Q 649 82 652 77 Q 662 55 670 55 Q 682 56 695 82 Q 702 95 703 154 Q 700 229 713 250 Q 722 263 715 271 Q 693 290 654 308 Q 641 312 622 306 Q 582 290 526 281 Q 513 280 500 276 C 471 269 411 243 441 244 Q 445 244 452 244 Q 542 263 608 273 Q 630 277 638 265 Q 656 241 648 117 Q 645 108 644 98 C 643 92 643 92 648 83 Z" fill="black" /></g></svg>