<?xml version='1.0' encoding='utf-8'?>
<svg xmlns="http://www.w3.org/2000/svg" version="1.1" viewBox="0 0 1024 1024"><g transform="scale(1, -1) translate(0, -900)"><path d="M 654 422 Q 654 421 655 420 Q 658 408 666 408 Q 676 409 682 419 Q 686 422 700 440 Q 712 477 739 499 Q 752 511 741 522 Q 728 535 692 554 Q 682 560 611 545 Q 581 545 455 517 Q 383 502 334 501 C 304 500 347 460 375 470 Q 408 482 450 489 L 470 493 Q 504 500 553 508 L 588 513 Q 654 528 674 518 Q 678 515 675 502 Q 662 456 658 444 C 652 425 652 425 654 422 Z" fill="black" /></g></svg>