<?xml version='1.0' encoding='utf-8'?>
<svg xmlns="http://www.w3.org/2000/svg" version="1.1" viewBox="0 0 1024 1024"><g transform="scale(1, -1) translate(0, -900)"><path d="M 455 598 Q 397 582 335 564 Q 331 563 329 563 Q 328 564 331 566 Q 362 602 375 610 Q 385 620 378 626 Q 374 630 367 633 C 341 648 323 652 323 622 Q 326 592 293 564 Q 284 557 270 552 Q 251 542 251 534 Q 251 522 259 508 Q 266 495 277 491 Q 283 490 290 494 Q 326 524 451 578 Q 458 582 468 584 C 497 592 484 606 455 598 Z" fill="black" /></g></svg>