<?xml version='1.0' encoding='utf-8'?>
<svg xmlns="http://www.w3.org/2000/svg" version="1.1" viewBox="0 0 1024 1024"><g transform="scale(1, -1) translate(0, -900)"><path d="M 632 245 Q 619 241 628 216 Q 637 195 637 172 Q 638 19 751 -38 Q 848 -86 911 -57 Q 927 -53 916 -26 Q 894 28 882 103 Q 882 115 874 121 Q 867 125 864 117 Q 854 81 843 43 Q 833 7 817 1 Q 808 -2 782 5 Q 749 14 731 28 Q 683 61 681 104 Q 678 155 695 173 Q 705 189 679 216 Q 663 235 649 241 C 635 250 635 250 632 245 Z" fill="black" /></g></svg>