<?xml version='1.0' encoding='utf-8'?>
<svg xmlns="http://www.w3.org/2000/svg" version="1.1" viewBox="0 0 1024 1024"><g transform="scale(1, -1) translate(0, -900)"><path d="M 781 56 Q 769 93 764 160 Q 764 176 758 182 Q 751 188 744 168 Q 716 92 700 80 Q 688 64 652 52 Q 607 39 545 35 Q 475 32 445 42 Q 418 54 411 71 Q 405 89 405 159 L 408 183 Q 411 223 422 243 Q 434 274 414 290 Q 363 327 348 323 Q 332 316 341 299 Q 360 262 358 207 Q 355 66 379 34 Q 403 -3 489 -13 Q 550 -20 645 -12 Q 730 -5 763 15 Q 791 28 781 56 Z" fill="black" /></g></svg>