<?xml version='1.0' encoding='utf-8'?>
<svg xmlns="http://www.w3.org/2000/svg" version="1.1" viewBox="0 0 1024 1024"><g transform="scale(1, -1) translate(0, -900)"><path d="M 426 457 Q 436 460 487 466 L 523 470 Q 563 476 619 480 Q 632 481 637 474 Q 643 462 618 394 C 608 366 643 363 656 390 Q 680 441 701 455 Q 717 471 697 485 Q 649 525 620 511 Q 595 505 561 499 Q 542 498 526 494 L 487 488 Q 442 484 396 474 Q 350 467 316 463 Q 309 467 281 471 Q 272 472 270 469 Q 266 465 272 453 Q 291 417 306 358 Q 309 339 320 328 Q 333 312 337 324 Q 338 330 339 337 L 337 358 Q 331 368 323 435 Q 332 445 409 455 L 426 457 Z" fill="black" /></g></svg>