<?xml version='1.0' encoding='utf-8'?>
<svg xmlns="http://www.w3.org/2000/svg" version="1.1" viewBox="0 0 1024 1024"><g transform="scale(1, -1) translate(0, -900)"><path d="M 270 426 Q 252 437 243 435 Q 235 435 241 421 Q 257 388 256 368 L 256 365 Q 255 358 255 351 Q 251 329 239 312 Q 232 304 236 294 Q 241 288 245 285 Q 257 274 269 281 L 306 310 Q 316 314 321 312 L 327 315 C 354 328 356 348 327 339 L 294 329 Q 285 327 283 332 Q 282 336 282 340 L 285 406 C 286 417 286 417 270 426 Z" fill="black" /></g></svg>