<?xml version='1.0' encoding='utf-8'?>
<svg xmlns="http://www.w3.org/2000/svg" version="1.1" viewBox="0 0 1024 1024"><g transform="scale(1, -1) translate(0, -900)"><path d="M 526 266 Q 522 263 525 249 Q 534 218 530 186 Q 521 110 545 88 Q 602 42 727 69 Q 755 76 784 93 Q 799 103 791 123 Q 782 142 773 204 Q 774 217 769 221 Q 765 225 759 211 Q 728 147 712 129 Q 702 122 679 116 Q 628 104 586 115 Q 570 121 568 129 Q 559 154 578 224 Q 585 248 545 266 L 539 268 C 527 273 527 273 526 266 Z" fill="black" /></g></svg>