<?xml version='1.0' encoding='utf-8'?>
<svg xmlns="http://www.w3.org/2000/svg" version="1.1" viewBox="0 0 1024 1024"><g transform="scale(1, -1) translate(0, -900)"><path d="M 610 276 Q 610 272 612 266 Q 616 253 627 253 Q 639 254 646 266 Q 656 279 677 344 Q 693 384 724 408 Q 740 420 728 433 Q 715 448 674 472 Q 661 481 565 458 Q 564 459 564 458 Q 554 458 551 454 Q 548 451 559 443 Q 577 434 605 439 Q 636 448 642 443 Q 651 439 645 412 Q 641 399 638 385 L 633 362 Q 620 310 614 295 Q 613 294 613 293 L 610 276 Z" fill="black" /></g></svg>