<?xml version='1.0' encoding='utf-8'?>
<svg xmlns="http://www.w3.org/2000/svg" version="1.1" viewBox="0 0 1024 1024"><g transform="scale(1, -1) translate(0, -900)"><path d="M 515 185 L 515 186 Q 521 218 545 231 Q 553 239 553 246 Q 553 263 503 278 Q 488 283 477 278 Q 476 278 457 266 Q 445 263 445 268 Q 443 274 443 275 Q 439 294 442 319 L 443 339 Q 446 386 451 402 Q 456 416 457 417 C 458 420 458 420 438 435 Q 417 451 409 450 Q 401 447 404 437 Q 420 406 417 331 L 417 312 Q 417 292 414 277 L 405 253 Q 402 244 415 231 Q 425 223 433 229 Q 449 241 453 243 Q 474 259 487 246 Q 492 238 488 214 L 482 186 C 476 157 508 156 515 185 Z" fill="black" /></g></svg>