<?xml version='1.0' encoding='utf-8'?>
<svg xmlns="http://www.w3.org/2000/svg" version="1.1" viewBox="0 0 1024 1024"><g transform="scale(1, -1) translate(0, -900)"><path d="M 401 263 Q 335 254 280 237 Q 262 230 265 253 Q 265 305 258 312 Q 246 322 229 330 Q 222 333 214 330 Q 207 326 214 314 Q 230 289 229 261 Q 230 234 221 222 Q 209 209 215 200 Q 222 190 234 184 Q 244 180 250 185 Q 274 215 420 242 Q 484 255 500 250 Q 501 251 504 251 C 534 250 537 280 507 277 Q 459 273 416 265 L 401 263 Z" fill="black" /></g></svg>