<?xml version='1.0' encoding='utf-8'?>
<svg xmlns="http://www.w3.org/2000/svg" version="1.1" viewBox="0 0 1024 1024"><g transform="scale(1, -1) translate(0, -900)"><path d="M 363 200 Q 367 216 371 230 L 382 256 Q 386 268 393 273 Q 406 289 392 298 Q 380 305 363 316 Q 354 322 313 304 Q 292 297 263 291 Q 256 292 256 287 Q 257 283 266 278 Q 270 275 332 281 Q 342 282 344 279 Q 348 275 344 249 Q 343 249 343 248 C 335 219 346 253 338 224 Q 334 211 331 196 C 325 167 356 171 363 200 Z" fill="black" /></g></svg>