<?xml version='1.0' encoding='utf-8'?>
<svg xmlns="http://www.w3.org/2000/svg" version="1.1" viewBox="0 0 1024 1024"><g transform="scale(1, -1) translate(0, -900)"><path d="M 458 530 Q 458 494 479 474 Q 536 431 648 459 Q 649 460 652 460 Q 677 469 703 487 Q 716 497 706 516 Q 697 529 682 575 Q 681 587 676 589 Q 672 592 670 579 Q 652 528 641 513 Q 634 504 610 499 Q 555 487 517 501 Q 501 508 498 517 Q 494 524 495 538 L 499 574 Q 500 581 502 587 Q 506 600 497 608 Q 487 618 469 625 Q 459 629 453 625 Q 447 622 451 608 Q 458 586 459 563 L 458 530 Z" fill="black" /></g></svg>