<?xml version='1.0' encoding='utf-8'?>
<svg xmlns="http://www.w3.org/2000/svg" version="1.1" viewBox="0 0 1024 1024"><g transform="scale(1, -1) translate(0, -900)"><path d="M 462 168 Q 546 195 742 197 Q 761 196 767 185 Q 773 178 768 165 Q 761 41 750 24 Q 746 15 734 19 Q 710 23 683 30 Q 656 34 675 15 Q 730 -37 753 -73 Q 760 -85 772 -78 Q 802 -51 819 95 Q 823 140 840 160 Q 855 179 849 186 Q 842 199 797 230 Q 781 245 766 239 Q 739 230 690 224 Q 497 209 423 193 Q 371 184 332 180 C 302 177 316 138 346 142 Q 356 141 370 145 Q 401 157 452 166 L 462 168 Z" fill="black" /></g></svg>