<?xml version='1.0' encoding='utf-8'?>
<svg xmlns="http://www.w3.org/2000/svg" version="1.1" viewBox="0 0 1024 1024"><g transform="scale(1, -1) translate(0, -900)"><path d="M 436 408 Q 436 405 438 402 Q 444 387 456 389 Q 469 390 476 405 Q 489 424 510 519 Q 523 568 558 598 Q 576 614 560 628 Q 542 644 493 668 Q 480 675 406 656 Q 379 656 267 625 Q 264 625 263 624 L 234 616 Q 210 612 194 608 C 165 602 183 562 210 575 Q 219 584 295 600 L 326 607 Q 443 635 463 626 Q 473 620 469 587 Q 451 461 437 432 L 436 408 Z" fill="black" /></g></svg>