<?xml version='1.0' encoding='utf-8'?>
<svg xmlns="http://www.w3.org/2000/svg" version="1.1" viewBox="0 0 1024 1024"><g transform="scale(1, -1) translate(0, -900)"><path d="M 429 388 Q 366 178 169 59 Q 153 49 136 37 Q 123 27 135 24 Q 150 23 186 37 Q 259 68 314 117 Q 378 169 410 227 Q 423 254 438 279 Q 466 334 482 397 L 490 434 Q 490 435 491 437 Q 510 522 511 528 L 522 570 Q 528 591 539 609 Q 549 628 532 637 Q 516 650 501 656 C 475 671 438 675 448 647 Q 464 613 461 575 Q 460 563 459 550 L 455 516 Q 451 473 439 423 L 429 388 Z" fill="black" /></g></svg>