<?xml version='1.0' encoding='utf-8'?>
<svg xmlns="http://www.w3.org/2000/svg" version="1.1" viewBox="0 0 1024 1024"><g transform="scale(1, -1) translate(0, -900)"><path d="M 603 372 Q 606 384 608 395 L 613 428 Q 619 462 626 493 Q 626 497 626 500 L 636 542 Q 640 557 647 570 Q 656 588 640 596 Q 619 611 600 618 C 573 631 548 637 559 609 Q 559 606 562 601 Q 574 577 576 521 L 574 488 Q 574 455 566 417 L 560 387 Q 509 174 334 60 Q 321 50 307 39 Q 294 30 307 28 Q 320 28 353 41 Q 417 72 466 119 Q 521 168 547 221 Q 595 339 598 348 L 603 372 Z" fill="black" /></g></svg>