<?xml version='1.0' encoding='utf-8'?>
<svg xmlns="http://www.w3.org/2000/svg" version="1.1" viewBox="0 0 1024 1024"><g transform="scale(1, -1) translate(0, -900)"><path d="M 291 383 Q 267 206 139 98 Q 135 95 131 91 Q 112 75 93 62 Q 80 52 76 47 Q 75 41 84 41 Q 121 38 198 105 Q 294 190 336 391 L 342 423 Q 349 459 355 499 L 360 538 Q 364 553 368 562 Q 375 578 358 589 Q 339 601 326 607 C 299 621 282 627 295 600 Q 296 597 300 591 Q 313 560 311 520 L 308 488 Q 304 457 296 411 L 291 383 Z" fill="black" /></g></svg>