<?xml version='1.0' encoding='utf-8'?>
<svg xmlns="http://www.w3.org/2000/svg" version="1.1" viewBox="0 0 1024 1024"><g transform="scale(1, -1) translate(0, -900)"><path d="M 288 381 Q 289 388 292 396 L 300 428 Q 304 447 308 468 Q 311 484 314 500 L 321 537 Q 331 582 332 583 Q 319 599 295 612 C 270 628 251 635 260 606 Q 260 605 261 603 Q 273 573 269 527 Q 268 524 268 520 L 264 489 Q 258 453 251 418 L 245 390 Q 200 216 118 107 Q 96 73 72 42 Q 68 38 65 32 Q 62 23 71 24 Q 110 34 187 142 Q 196 158 208 176 Q 256 263 284 368 L 288 381 Z" fill="black" /></g></svg>