<?xml version='1.0' encoding='utf-8'?>
<svg xmlns="http://www.w3.org/2000/svg" version="1.1" viewBox="0 0 1024 1024"><g transform="scale(1, -1) translate(0, -900)"><path d="M 918 77 Q 900 126 890 210 Q 889 226 881 230 Q 874 234 870 215 Q 857 112 842 92 Q 784 35 564 37 Q 443 44 391 66 Q 346 90 337 121 Q 330 145 335 206 Q 344 273 360 303 Q 373 331 356 349 Q 310 388 295 385 Q 291 384 288 381 C 279 382 279 382 284 368 Q 284 367 286 363 Q 304 326 296 274 Q 284 147 291 120 Q 306 65 347 36 Q 435 -27 718 -7 Q 848 2 900 31 Q 930 46 918 77 Z" fill="black" /></g></svg>