<?xml version='1.0' encoding='utf-8'?>
<svg xmlns="http://www.w3.org/2000/svg" version="1.1" viewBox="0 0 1024 1024"><g transform="scale(1, -1) translate(0, -900)"><path d="M 258 196 Q 273 172 285 145 Q 295 126 304 124 Q 314 124 323 145 Q 338 185 336 234 Q 330 471 337 496 Q 344 515 333 523 Q 326 533 293 548 Q 280 554 198 524 Q 195 524 179 518 L 152 511 Q 146 511 142 509 C 113 502 132 477 161 484 Q 168 485 178 488 Q 259 521 274 508 Q 283 498 283 446 Q 282 376 280 308 Q 281 241 274 227 Q 273 227 273 226 C 265 197 254 203 258 196 Z" fill="black" /></g></svg>