<?xml version='1.0' encoding='utf-8'?>
<svg xmlns="http://www.w3.org/2000/svg" version="1.1" viewBox="0 0 1024 1024"><g transform="scale(1, -1) translate(0, -900)"><path d="M 638 421 Q 639 420 640 417 Q 646 399 660 401 Q 676 402 684 419 Q 700 441 728 546 Q 747 603 787 635 Q 808 653 790 670 Q 771 689 716 719 Q 698 729 628 712 Q 409 675 377 664 L 339 657 Q 311 653 289 649 C 259 644 285 603 313 613 Q 340 626 448 647 L 501 656 Q 654 686 678 673 Q 691 666 683 628 Q 650 463 640 452 C 632 430 632 430 638 421 Z" fill="black" /></g></svg>