<?xml version='1.0' encoding='utf-8'?>
<svg xmlns="http://www.w3.org/2000/svg" version="1.1" viewBox="0 0 1024 1024"><g transform="scale(1, -1) translate(0, -900)"><path d="M 380 408 Q 381 407 382 403 Q 388 387 400 389 Q 413 390 420 405 Q 433 424 454 515 Q 469 564 502 592 Q 520 608 504 622 Q 488 638 440 662 Q 427 671 359 654 Q 337 654 227 628 L 199 621 Q 171 617 153 613 C 124 607 143 572 171 583 Q 170 584 172 584 Q 203 596 260 606 L 295 612 Q 388 633 407 623 Q 417 617 413 584 Q 394 460 383 435 C 376 415 376 415 380 408 Z" fill="black" /></g></svg>