<?xml version='1.0' encoding='utf-8'?>
<svg xmlns="http://www.w3.org/2000/svg" version="1.1" viewBox="0 0 1024 1024"><g transform="scale(1, -1) translate(0, -900)"><path d="M 371 416 Q 371 412 374 405 Q 380 392 391 393 Q 404 396 409 409 Q 422 430 438 527 Q 450 575 481 603 Q 497 619 482 632 Q 464 645 418 667 Q 403 674 345 657 Q 321 657 241 635 L 211 627 Q 175 620 152 614 C 123 607 146 581 175 587 Q 182 587 188 589 Q 210 599 249 606 L 281 612 Q 371 636 389 626 Q 399 620 397 587 Q 384 476 375 443 L 371 416 Z" fill="black" /></g></svg>