<?xml version='1.0' encoding='utf-8'?>
<svg xmlns="http://www.w3.org/2000/svg" version="1.1" viewBox="0 0 1024 1024"><g transform="scale(1, -1) translate(0, -900)"><path d="M 457 225 Q 412 80 248 -12 Q 238 -19 247 -21 Q 295 -27 377 38 Q 462 101 502 232 L 510 263 Q 516 285 522 307 Q 523 314 525 320 L 539 357 Q 540 361 543 363 Q 552 378 539 386 Q 527 398 507 407 C 480 421 462 429 472 401 Q 472 400 474 396 Q 484 372 481 347 Q 480 346 480 341 L 476 312 Q 476 297 465 254 L 457 225 Z" fill="black" /></g></svg>