<?xml version='1.0' encoding='utf-8'?>
<svg xmlns="http://www.w3.org/2000/svg" version="1.1" viewBox="0 0 1024 1024"><g transform="scale(1, -1) translate(0, -900)"><path d="M 368 414 Q 369 410 371 406 Q 375 391 387 393 Q 400 394 406 408 Q 419 429 441 526 Q 454 572 486 600 Q 502 615 488 629 Q 472 644 426 666 Q 413 673 347 657 Q 323 657 219 629 Q 215 628 213 627 L 186 621 Q 165 618 150 614 C 121 607 135 572 163 583 Q 169 589 248 606 L 277 612 Q 377 636 397 627 Q 407 621 402 588 Q 383 470 372 440 L 368 414 Z" fill="black" /></g></svg>