<?xml version='1.0' encoding='utf-8'?>
<svg xmlns="http://www.w3.org/2000/svg" version="1.1" viewBox="0 0 1024 1024"><g transform="scale(1, -1) translate(0, -900)"><path d="M 778 512 Q 796 516 819 518 Q 828 519 831 514 Q 838 510 840 477 Q 853 341 840 262 Q 836 237 813 238 Q 786 245 762 250 Q 752 254 750 249 Q 749 243 758 233 Q 816 182 831 156 Q 840 143 848 146 Q 860 149 869 170 Q 899 227 895 463 Q 894 494 903 512 Q 916 530 904 534 Q 891 546 859 558 Q 840 568 820 559 Q 807 555 781 548 L 737 540 Q 691 533 656 523 L 615 513 Q 572 503 533 492 C 504 484 522 456 551 465 Q 581 474 613 483 L 653 491 Q 714 506 736 506 L 778 512 Z" fill="black" /></g></svg>