<?xml version='1.0' encoding='utf-8'?>
<svg xmlns="http://www.w3.org/2000/svg" version="1.1" viewBox="0 0 1024 1024"><g transform="scale(1, -1) translate(0, -900)"><path d="M 626 249 Q 626 248 627 246 Q 631 233 643 233 Q 656 234 662 248 Q 672 260 691 317 Q 704 365 738 391 Q 754 406 740 420 Q 724 435 679 459 Q 666 466 608 453 Q 508 440 457 427 L 429 421 Q 393 417 367 411 C 338 405 351 377 381 382 Q 385 382 392 383 Q 422 393 472 401 L 507 407 Q 627 431 648 420 Q 657 416 652 390 Q 637 297 627 275 C 621 257 621 257 626 249 Z" fill="black" /></g></svg>