<?xml version='1.0' encoding='utf-8'?>
<svg xmlns="http://www.w3.org/2000/svg" version="1.1" viewBox="0 0 1024 1024"><g transform="scale(1, -1) translate(0, -900)"><path d="M 634 485 Q 659 491 746 509 Q 764 513 768 503 Q 772 491 781 335 Q 781 206 772 192 Q 769 191 709 202 Q 693 209 693 200 Q 738 158 764 126 Q 774 110 788 106 Q 795 103 803 111 Q 839 153 837 198 Q 815 459 833 494 Q 843 510 833 519 Q 815 535 784 548 Q 769 554 710 526 L 676 517 Q 655 516 627 511 C 597 506 605 478 634 485 Z" fill="black" /></g></svg>