<?xml version='1.0' encoding='utf-8'?>
<svg xmlns="http://www.w3.org/2000/svg" version="1.1" viewBox="0 0 1024 1024"><g transform="scale(1, -1) translate(0, -900)"><path d="M 230 392 Q 181 224 102 126 Q 80 95 56 65 Q 52 61 49 55 Q 46 48 55 48 Q 88 48 174 166 Q 181 178 190 191 Q 247 285 276 401 L 282 427 Q 286 448 292 469 Q 296 488 299 504 L 308 538 Q 318 577 318 579 Q 306 595 282 609 Q 279 610 277 612 C 252 628 238 634 248 606 Q 248 605 250 600 Q 262 573 257 531 Q 256 528 256 523 L 251 495 Q 244 455 235 417 L 230 392 Z" fill="black" /></g></svg>