<?xml version='1.0' encoding='utf-8'?>
<svg xmlns="http://www.w3.org/2000/svg" version="1.1" viewBox="0 0 1024 1024"><g transform="scale(1, -1) translate(0, -900)"><path d="M 331 42 Q 415 -27 685 -20 Q 844 -16 932 15 Q 954 19 961 32 Q 965 39 957 57 Q 941 91 929 168 Q 928 180 920 185 Q 916 186 912 176 Q 900 134 890 98 Q 880 68 862 57 Q 837 44 707 32 Q 574 23 471 36 Q 392 48 363 69 Q 347 79 342 101 Q 338 129 340 182 L 342 202 Q 348 269 362 299 Q 369 314 362 325 Q 352 337 321 351 Q 296 361 287 355 Q 280 348 289 330 Q 305 305 302 267 Q 301 204 300 133 Q 297 70 331 42 Z" fill="black" /></g></svg>