<?xml version='1.0' encoding='utf-8'?>
<svg xmlns="http://www.w3.org/2000/svg" version="1.1" viewBox="0 0 1024 1024"><g transform="scale(1, -1) translate(0, -900)"><path d="M 390 445 Q 390 441 392 437 Q 396 424 407 425 Q 419 426 425 439 Q 440 458 461 556 Q 474 601 505 627 Q 521 640 507 654 Q 491 667 448 690 Q 438 696 377 682 Q 245 658 228 649 L 201 642 Q 176 638 158 633 C 129 626 148 590 175 603 Q 182 612 273 630 L 306 637 Q 402 661 422 652 Q 432 645 427 613 Q 405 501 394 471 L 390 445 Z" fill="black" /></g></svg>