<?xml version='1.0' encoding='utf-8'?>
<svg xmlns="http://www.w3.org/2000/svg" version="1.1" viewBox="0 0 1024 1024"><g transform="scale(1, -1) translate(0, -900)"><path d="M 395 409 Q 395 403 398 397 Q 404 384 415 385 Q 428 388 434 401 Q 447 423 464 522 Q 477 570 508 598 Q 524 614 510 627 Q 492 642 446 663 Q 434 669 370 653 Q 346 653 248 628 L 213 619 Q 189 615 173 611 C 144 604 157 579 187 583 Q 194 582 200 584 Q 225 594 269 602 L 295 608 Q 404 630 417 623 Q 427 616 424 582 Q 408 465 399 433 L 395 409 Z" fill="black" /></g></svg>