<?xml version='1.0' encoding='utf-8'?>
<svg xmlns="http://www.w3.org/2000/svg" version="1.1" viewBox="0 0 1024 1024"><g transform="scale(1, -1) translate(0, -900)"><path d="M 382 394 Q 383 390 385 386 Q 392 371 404 373 Q 417 376 423 390 Q 436 412 454 515 Q 467 564 500 595 Q 516 611 501 625 Q 483 640 434 662 Q 422 668 357 651 Q 342 651 234 620 L 203 611 Q 184 607 167 602 C 138 594 152 563 180 572 Q 234 590 260 596 L 293 604 Q 386 632 404 622 Q 416 616 412 580 Q 394 447 385 419 L 382 394 Z" fill="black" /></g></svg>