<?xml version='1.0' encoding='utf-8'?>
<svg xmlns="http://www.w3.org/2000/svg" version="1.1" viewBox="0 0 1024 1024"><g transform="scale(1, -1) translate(0, -900)"><path d="M 731 396 Q 732 392 734 386 Q 740 371 752 373 Q 765 374 771 389 Q 784 405 803 487 Q 816 536 851 565 Q 867 581 853 595 Q 835 611 788 634 Q 776 641 720 628 Q 633 621 558 594 L 531 588 Q 506 584 485 580 C 455 575 486 543 515 552 Q 543 562 590 572 L 621 579 Q 729 607 755 595 Q 765 589 761 558 Q 745 453 735 424 L 731 396 Z" fill="black" /></g></svg>