<?xml version='1.0' encoding='utf-8'?>
<svg xmlns="http://www.w3.org/2000/svg" version="1.1" viewBox="0 0 1024 1024"><g transform="scale(1, -1) translate(0, -900)"><path d="M 956 79 Q 940 125 933 207 Q 932 220 925 226 Q 918 230 914 212 Q 898 113 883 96 Q 826 32 586 30 Q 456 34 399 57 Q 350 82 340 116 Q 333 135 334 178 L 334 197 Q 334 200 335 201 Q 342 268 356 299 Q 368 327 351 342 Q 306 378 292 375 Q 279 369 285 354 Q 301 320 296 269 Q 289 140 296 114 Q 314 56 357 27 Q 450 -36 749 -8 Q 887 5 939 37 Q 967 50 956 79 Z" fill="black" /></g></svg>