<?xml version='1.0' encoding='utf-8'?>
<svg xmlns="http://www.w3.org/2000/svg" version="1.1" viewBox="0 0 1024 1024"><g transform="scale(1, -1) translate(0, -900)"><path d="M 298 314 Q 299 317 300 318 Q 306 339 314 353 Q 321 360 318 368 Q 312 378 279 399 Q 269 406 260 402 Q 250 398 257 386 Q 266 368 253 306 L 242 267 Q 233 242 224 224 Q 217 209 218 199 Q 219 192 234 189 Q 271 170 300 141 L 330 112 Q 355 87 386 48 Q 405 26 419 25 Q 437 22 440 39 Q 443 55 426 98 Q 417 122 361 153 L 323 175 Q 295 191 274 199 Q 249 206 264 229 Q 274 259 283 279 L 298 314 Z" fill="black" /></g></svg>