<?xml version='1.0' encoding='utf-8'?>
<svg xmlns="http://www.w3.org/2000/svg" version="1.1" viewBox="0 0 1024 1024"><g transform="scale(1, -1) translate(0, -900)"><path d="M 463 225 Q 421 78 268 -8 Q 258 -15 267 -18 Q 348 -18 437 83 Q 444 95 453 106 Q 462 122 472 138 Q 496 180 507 231 L 515 260 Q 519 276 524 291 Q 525 301 529 310 L 545 349 Q 549 359 539 366 Q 520 384 505 388 C 478 400 462 407 472 381 Q 472 380 474 375 Q 484 354 481 330 Q 480 330 480 329 L 477 299 Q 477 289 470 253 L 463 225 Z" fill="black" /></g></svg>