<?xml version='1.0' encoding='utf-8'?>
<svg xmlns="http://www.w3.org/2000/svg" version="1.1" viewBox="0 0 1024 1024"><g transform="scale(1, -1) translate(0, -900)"><path d="M 318 397 Q 331 378 345 370 Q 354 364 366 382 Q 381 407 405 545 Q 412 570 431 592 Q 441 602 432 614 Q 419 627 383 648 Q 370 654 301 638 Q 300 638 205 618 L 184 613 Q 150 606 123 601 C 94 595 115 565 144 574 Q 174 584 219 593 L 248 599 Q 335 620 353 608 Q 366 598 363 578 Q 341 431 322 419 C 312 405 312 405 318 397 Z" fill="black" /></g></svg>