<?xml version='1.0' encoding='utf-8'?>
<svg xmlns="http://www.w3.org/2000/svg" version="1.1" viewBox="0 0 1024 1024"><g transform="scale(1, -1) translate(0, -900)"><path d="M 522 163 Q 521 159 523 150 Q 532 119 528 90 Q 521 17 525 -5 Q 528 -27 550 -44 Q 631 -104 825 -70 Q 828 -69 832 -68 Q 875 -58 920 -32 Q 936 -19 924 3 Q 912 24 896 88 Q 895 101 889 106 Q 883 107 880 93 Q 859 23 845 1 Q 806 -38 681 -35 Q 635 -34 599 -22 Q 568 -9 563 8 Q 551 32 573 126 Q 579 148 543 165 C 520 179 520 179 522 163 Z" fill="black" /></g></svg>