<?xml version='1.0' encoding='utf-8'?>
<svg xmlns="http://www.w3.org/2000/svg" version="1.1" viewBox="0 0 1024 1024"><g transform="scale(1, -1) translate(0, -900)"><path d="M 339 517 Q 348 518 361 522 Q 433 540 445 536 Q 452 532 452 514 Q 456 450 454 400 Q 453 390 447 388 Q 440 384 394 385 Q 385 386 386 380 Q 387 376 399 371 Q 426 353 446 334 Q 458 324 468 326 Q 475 327 486 349 Q 499 374 493 482 Q 493 515 500 530 Q 507 540 499 549 Q 487 559 461 568 Q 451 571 334 533 C 305 524 310 511 339 517 Z" fill="black" /></g></svg>