<?xml version='1.0' encoding='utf-8'?>
<svg xmlns="http://www.w3.org/2000/svg" version="1.1" viewBox="0 0 1024 1024"><g transform="scale(1, -1) translate(0, -900)"><path d="M 645 494 Q 642 449 662 429 Q 707 389 796 411 Q 815 417 835 432 Q 847 442 838 457 Q 831 472 817 517 Q 817 527 812 529 Q 809 530 807 521 Q 794 470 783 455 Q 771 440 724 443 Q 708 444 694 451 Q 682 457 679 465 Q 676 474 675 503 L 678 529 Q 679 539 682 548 Q 686 560 678 566 Q 669 575 655 581 Q 646 584 641 580 Q 637 579 640 566 Q 647 544 646 519 L 645 494 Z" fill="black" /></g></svg>