<?xml version='1.0' encoding='utf-8'?>
<svg xmlns="http://www.w3.org/2000/svg" version="1.1" viewBox="0 0 1024 1024"><g transform="scale(1, -1) translate(0, -900)"><path d="M 577 342 Q 574 168 593 109 Q 600 82 623 58 Q 714 -18 871 10 Q 880 13 890 15 Q 929 27 966 57 Q 985 73 971 99 Q 956 132 937 231 Q 936 246 929 250 Q 923 253 920 236 Q 901 130 884 97 Q 874 81 839 72 Q 755 57 683 93 Q 623 132 620 246 Q 620 298 624 358 L 627 405 Q 631 456 640 510 Q 644 529 632 540 Q 622 550 605 557 C 579 573 563 566 569 537 Q 581 497 578 389 L 577 342 Z" fill="black" /></g></svg>