<?xml version='1.0' encoding='utf-8'?>
<svg xmlns="http://www.w3.org/2000/svg" version="1.1" viewBox="0 0 1024 1024"><g transform="scale(1, -1) translate(0, -900)"><path d="M 339 278 Q 357 250 373 242 Q 383 235 397 254 Q 410 278 438 403 Q 447 431 468 454 Q 480 466 469 478 Q 456 494 416 517 Q 401 524 328 507 Q 318 507 305 502 L 271 494 Q 246 490 220 484 Q 177 474 141 466 C 112 459 137 429 165 438 Q 199 450 250 461 L 284 467 Q 363 488 381 476 Q 394 466 391 447 Q 367 317 352 300 C 340 277 338 279 339 278 Z" fill="black" /></g></svg>