<?xml version='1.0' encoding='utf-8'?>
<svg xmlns="http://www.w3.org/2000/svg" version="1.1" viewBox="0 0 1024 1024"><g transform="scale(1, -1) translate(0, -900)"><path d="M 627 279 Q 646 246 664 236 Q 676 226 695 250 Q 716 280 762 446 Q 774 480 802 508 Q 818 521 805 538 Q 789 559 741 591 Q 720 603 661 586 Q 598 577 528 560 L 485 552 Q 463 549 442 544 Q 378 531 323 521 C 293 516 321 479 350 487 Q 402 503 477 519 L 525 529 Q 667 562 695 543 Q 711 528 705 504 Q 663 329 642 312 C 626 287 624 283 627 279 Z" fill="black" /></g></svg>