<?xml version='1.0' encoding='utf-8'?>
<svg xmlns="http://www.w3.org/2000/svg" version="1.1" viewBox="0 0 1024 1024"><g transform="scale(1, -1) translate(0, -900)"><path d="M 580 -4 Q 605 -38 622 -71 Q 629 -89 641 -88 Q 656 -88 672 -57 Q 691 -21 689 23 Q 685 77 683 176 Q 682 207 699 227 Q 709 240 700 249 Q 682 268 633 294 Q 617 303 601 295 Q 502 258 379 251 C 349 249 370 216 400 219 Q 433 222 581 246 Q 606 250 619 239 Q 635 226 626 80 Q 625 40 621 28 Q 617 13 604 17 C 577 4 575 3 580 -4 Z" fill="black" /></g></svg>