<?xml version='1.0' encoding='utf-8'?>
<svg xmlns="http://www.w3.org/2000/svg" version="1.1" viewBox="0 0 1024 1024"><g transform="scale(1, -1) translate(0, -900)"><path d="M 635 460 Q 639 444 652 444 Q 676 447 716 530 Q 737 581 776 606 Q 795 621 781 637 Q 765 656 718 687 Q 703 697 627 682 Q 608 682 543 669 L 506 663 Q 467 659 432 650 Q 368 637 320 631 C 290 627 319 589 348 598 Q 396 614 478 629 L 514 635 Q 658 663 685 649 Q 692 643 685 616 Q 654 516 641 496 Q 638 492 637 488 C 628 470 628 470 635 460 Z" fill="black" /></g></svg>