<?xml version='1.0' encoding='utf-8'?>
<svg xmlns="http://www.w3.org/2000/svg" version="1.1" viewBox="0 0 1024 1024"><g transform="scale(1, -1) translate(0, -900)"><path d="M 384 282 Q 402 257 417 250 Q 427 243 439 263 Q 452 287 473 417 Q 480 445 499 468 Q 509 478 499 491 Q 484 504 446 526 Q 434 532 365 513 Q 353 513 334 505 L 307 498 Q 292 497 192 469 C 163 461 172 427 200 438 Q 200 439 202 439 Q 236 452 287 464 L 320 472 Q 398 493 415 482 Q 428 473 426 454 Q 410 319 396 305 C 384 281 384 283 384 282 Z" fill="black" /></g></svg>