<?xml version='1.0' encoding='utf-8'?>
<svg xmlns="http://www.w3.org/2000/svg" version="1.1" viewBox="0 0 1024 1024"><g transform="scale(1, -1) translate(0, -900)"><path d="M 738 53 Q 768 16 789 -20 Q 798 -38 809 -37 Q 824 -36 839 -4 Q 855 33 852 77 Q 828 287 852 315 Q 859 328 851 337 Q 833 355 784 376 Q 768 383 753 375 Q 680 339 576 320 C 547 314 564 283 593 290 Q 614 294 742 328 Q 763 332 773 325 Q 789 312 787 140 Q 788 94 784 79 Q 780 63 769 67 C 744 50 734 58 738 53 Z" fill="black" /></g></svg>