<?xml version='1.0' encoding='utf-8'?>
<svg xmlns="http://www.w3.org/2000/svg" version="1.1" viewBox="0 0 1024 1024"><g transform="scale(1, -1) translate(0, -900)"><path d="M 358 295 Q 371 276 385 270 Q 395 263 408 282 Q 421 304 446 424 Q 453 452 473 474 Q 483 484 474 497 Q 459 512 422 533 Q 406 540 335 520 Q 332 520 319 516 L 283 507 Q 256 503 228 494 Q 182 481 147 474 C 118 468 138 437 167 446 Q 200 456 246 469 L 279 476 Q 372 504 391 491 Q 404 482 400 464 Q 381 352 372 335 Q 368 326 360 322 C 347 309 347 309 358 295 Z" fill="black" /></g></svg>