<?xml version='1.0' encoding='utf-8'?>
<svg xmlns="http://www.w3.org/2000/svg" version="1.1" viewBox="0 0 1024 1024"><g transform="scale(1, -1) translate(0, -900)"><path d="M 623 435 Q 752 468 766 462 Q 776 456 776 430 Q 794 240 784 91 Q 783 61 765 55 Q 755 52 698 65 Q 685 69 686 60 Q 687 53 702 43 Q 739 12 766 -22 Q 781 -38 797 -37 Q 815 -33 836 19 Q 863 71 857 125 Q 847 252 835 370 Q 831 416 850 454 Q 860 470 847 483 Q 828 499 790 511 Q 768 521 751 509 Q 736 502 709 491 Q 640 469 607 460 C 578 452 594 428 623 435 Z" fill="black" /></g></svg>