<?xml version='1.0' encoding='utf-8'?>
<svg xmlns="http://www.w3.org/2000/svg" version="1.1" viewBox="0 0 1024 1024"><g transform="scale(1, -1) translate(0, -900)"><path d="M 386 277 Q 402 253 417 246 Q 427 239 439 259 Q 452 283 476 413 Q 483 441 502 463 Q 512 475 503 486 Q 488 501 450 522 Q 431 531 380 512 Q 356 509 329 500 L 300 492 Q 285 491 190 465 C 161 457 171 426 199 436 Q 230 448 279 459 L 307 466 Q 400 491 419 479 Q 432 469 430 450 Q 409 315 396 300 C 385 278 385 278 386 277 Z" fill="black" /></g></svg>