<?xml version='1.0' encoding='utf-8'?>
<svg xmlns="http://www.w3.org/2000/svg" version="1.1" viewBox="0 0 1024 1024"><g transform="scale(1, -1) translate(0, -900)"><path d="M 369 295 Q 385 270 401 262 Q 411 255 424 274 Q 437 298 462 424 Q 469 452 490 474 Q 500 484 491 497 Q 478 512 439 534 Q 424 540 353 524 L 306 514 L 280 509 Q 249 505 174 486 C 145 479 157 446 185 456 Q 188 460 264 476 L 300 483 Q 388 504 407 492 Q 420 482 417 463 Q 396 333 381 317 C 369 295 369 295 369 295 Z" fill="black" /></g></svg>