<?xml version='1.0' encoding='utf-8'?>
<svg xmlns="http://www.w3.org/2000/svg" version="1.1" viewBox="0 0 1024 1024"><g transform="scale(1, -1) translate(0, -900)"><path d="M 685 327 Q 685 324 687 318 Q 699 278 695 242 Q 674 37 711 -1 Q 780 -58 912 -31 Q 913 -30 917 -30 Q 948 -23 979 -2 Q 997 13 985 37 Q 972 62 956 138 Q 956 154 949 158 Q 943 161 939 144 Q 914 62 897 37 Q 879 16 808 19 Q 783 20 762 30 Q 744 40 740 51 Q 713 106 752 289 Q 758 313 723 333 C 699 350 678 356 685 327 Z" fill="black" /></g></svg>