<?xml version='1.0' encoding='utf-8'?>
<svg xmlns="http://www.w3.org/2000/svg" version="1.1" viewBox="0 0 1024 1024"><g transform="scale(1, -1) translate(0, -900)"><path d="M 354 281 Q 370 254 385 246 Q 394 240 406 258 Q 421 283 448 417 Q 455 442 474 465 Q 484 475 474 487 Q 461 500 425 521 Q 407 528 344 509 Q 335 509 314 501 L 291 496 Q 269 492 247 485 Q 208 475 177 466 C 148 458 158 430 187 437 Q 193 438 198 439 Q 223 449 264 458 L 293 466 Q 386 488 396 480 Q 411 470 406 450 Q 381 309 368 299 C 356 277 352 285 354 281 Z" fill="black" /></g></svg>