<?xml version='1.0' encoding='utf-8'?>
<svg xmlns="http://www.w3.org/2000/svg" version="1.1" viewBox="0 0 1024 1024"><g transform="scale(1, -1) translate(0, -900)"><path d="M 609 131 Q 622 109 636 101 Q 646 94 662 113 Q 675 132 708 242 Q 717 270 740 294 Q 753 306 743 319 Q 728 335 689 363 Q 673 372 607 357 Q 574 354 531 343 L 496 337 Q 472 334 449 329 Q 400 319 363 313 C 333 308 341 273 370 281 Q 413 294 478 305 L 510 311 Q 628 336 651 320 Q 661 311 658 295 Q 631 169 614 162 C 600 144 600 144 609 131 Z" fill="black" /></g></svg>