<?xml version='1.0' encoding='utf-8'?>
<svg xmlns="http://www.w3.org/2000/svg" version="1.1" viewBox="0 0 1024 1024"><g transform="scale(1, -1) translate(0, -900)"><path d="M 776 369 Q 795 341 813 333 Q 823 326 838 347 Q 853 375 879 523 Q 886 554 909 578 Q 921 591 910 604 Q 894 620 853 644 Q 837 651 755 632 Q 743 632 633 609 Q 579 597 536 589 C 507 583 526 554 555 560 Q 559 560 564 561 Q 595 571 639 579 L 687 588 Q 798 609 815 598 Q 831 588 827 565 Q 808 426 797 405 Q 793 395 782 390 C 769 378 769 378 776 369 Z" fill="black" /></g></svg>