<?xml version='1.0' encoding='utf-8'?>
<svg xmlns="http://www.w3.org/2000/svg" version="1.1" viewBox="0 0 1024 1024"><g transform="scale(1, -1) translate(0, -900)"><path d="M 366 300 Q 379 281 393 274 Q 403 268 414 286 Q 427 311 447 438 Q 454 463 472 485 Q 482 495 472 507 Q 459 520 422 540 Q 407 546 344 529 Q 341 529 296 517 L 268 510 Q 258 509 249 506 Q 209 496 175 488 C 146 481 160 454 189 461 Q 193 461 200 463 Q 228 473 267 482 L 300 489 Q 378 510 393 499 Q 406 490 404 471 Q 388 353 379 335 Q 376 326 369 323 C 358 310 358 310 366 300 Z" fill="black" /></g></svg>