<?xml version='1.0' encoding='utf-8'?>
<svg xmlns="http://www.w3.org/2000/svg" version="1.1" viewBox="0 0 1024 1024"><g transform="scale(1, -1) translate(0, -900)"><path d="M 812 684 Q 799 623 766 563 Q 756 551 759 538 Q 760 526 778 514 Q 812 480 842 440 Q 858 421 873 419 Q 888 420 892 444 Q 896 469 885 487 Q 878 500 830 518 Q 806 525 798 542 Q 791 554 808 570 Q 826 595 857 650 Q 875 678 890 692 Q 906 704 896 722 Q 877 758 849 770 Q 833 777 821 774 Q 808 770 817 750 Q 827 725 812 684 Z" fill="black" /></g></svg>