<?xml version='1.0' encoding='utf-8'?>
<svg xmlns="http://www.w3.org/2000/svg" version="1.1" viewBox="0 0 1024 1024"><g transform="scale(1, -1) translate(0, -900)"><path d="M 342 293 Q 343 292 345 290 Q 364 262 381 254 Q 391 247 405 267 Q 418 292 442 428 Q 449 458 470 481 Q 482 494 471 506 Q 456 522 416 545 Q 403 551 335 536 Q 329 536 290 526 L 260 520 Q 245 519 230 514 Q 199 507 170 501 C 141 495 151 460 180 469 Q 207 478 247 485 L 281 491 Q 362 512 381 498 Q 396 488 392 468 Q 373 321 355 309 C 343 291 341 295 342 293 Z" fill="black" /></g></svg>