<?xml version='1.0' encoding='utf-8'?>
<svg xmlns="http://www.w3.org/2000/svg" version="1.1" viewBox="0 0 1024 1024"><g transform="scale(1, -1) translate(0, -900)"><path d="M 592 361 Q 736 382 746 377 Q 758 371 758 345 Q 773 192 766 73 Q 765 48 751 44 Q 744 40 697 45 Q 685 48 686 40 Q 687 33 702 25 Q 732 0 754 -27 Q 767 -40 780 -39 Q 795 -36 812 7 Q 834 50 830 95 Q 821 201 813 297 Q 809 336 825 367 Q 835 380 823 394 Q 807 407 772 421 Q 753 431 736 420 Q 720 414 691 406 Q 616 390 584 385 C 554 380 562 357 592 361 Z" fill="black" /></g></svg>