<?xml version='1.0' encoding='utf-8'?>
<svg xmlns="http://www.w3.org/2000/svg" version="1.1" viewBox="0 0 1024 1024"><g transform="scale(1, -1) translate(0, -900)"><path d="M 662 679 Q 728 692 804 703 Q 820 704 827 694 Q 842 687 847 618 Q 865 389 853 130 Q 852 91 838 81 Q 828 72 769 82 Q 753 85 754 75 Q 755 68 768 62 Q 820 19 848 -12 Q 869 -31 882 -29 Q 894 -26 905 3 Q 920 48 919 114 Q 900 478 901 612 Q 902 648 913 670 Q 925 689 915 701 Q 905 716 862 739 Q 844 748 772 729 Q 633 702 555 692 C 525 688 539 650 568 658 Q 567 659 570 659 Q 604 668 642 675 L 662 679 Z" fill="black" /></g></svg>