<?xml version='1.0' encoding='utf-8'?>
<svg xmlns="http://www.w3.org/2000/svg" version="1.1" viewBox="0 0 1024 1024"><g transform="scale(1, -1) translate(0, -900)"><path d="M 332 311 Q 348 286 365 278 Q 375 271 389 291 Q 402 315 425 444 Q 432 472 454 496 Q 466 508 455 520 Q 440 536 401 558 Q 385 565 330 551 Q 312 551 285 542 L 250 535 Q 234 534 217 529 Q 177 520 145 514 C 116 508 139 478 168 486 Q 193 493 233 501 L 266 507 Q 347 528 365 515 Q 378 505 376 486 Q 360 365 350 346 Q 346 334 335 331 C 324 322 324 322 332 311 Z" fill="black" /></g></svg>