<?xml version='1.0' encoding='utf-8'?>
<svg xmlns="http://www.w3.org/2000/svg" version="1.1" viewBox="0 0 1024 1024"><g transform="scale(1, -1) translate(0, -900)"><path d="M 765 392 Q 759 376 765 359 Q 771 343 784 345 Q 797 346 805 362 Q 821 387 843 500 Q 859 552 895 581 Q 914 597 897 612 Q 879 628 830 655 Q 809 667 772 651 Q 724 642 676 630 Q 661 630 659 626 Q 656 622 670 612 Q 692 600 736 609 Q 781 621 794 615 Q 806 608 801 569 Q 797 547 793 527 L 788 497 Q 778 445 771 416 L 765 392 Z" fill="black" /></g></svg>