<?xml version='1.0' encoding='utf-8'?>
<svg xmlns="http://www.w3.org/2000/svg" version="1.1" viewBox="0 0 1024 1024"><g transform="scale(1, -1) translate(0, -900)"><path d="M 340 297 Q 355 267 381 254 Q 391 247 405 267 Q 418 292 442 428 Q 449 456 470 480 Q 482 492 471 505 Q 456 520 417 543 Q 402 549 336 534 Q 327 534 285 523 L 256 517 Q 241 517 172 500 C 143 493 151 462 180 470 Q 208 479 250 486 L 289 493 Q 364 511 381 499 Q 396 489 392 469 Q 374 328 359 312 C 346 286 334 308 340 297 Z" fill="black" /></g></svg>