<?xml version='1.0' encoding='utf-8'?>
<svg xmlns="http://www.w3.org/2000/svg" version="1.1" viewBox="0 0 1024 1024"><g transform="scale(1, -1) translate(0, -900)"><path d="M 588 246 Q 573 114 477 21 Q 450 0 452 -6 Q 453 -10 464 -8 Q 476 -11 504 5 Q 612 59 636 271 L 637 290 Q 644 599 650 612 Q 651 616 653 618 Q 662 657 657 664 L 656 665 Q 634 681 598 690 Q 574 694 567 688 Q 558 681 566 671 Q 593 629 598 506 L 599 469 Q 599 427 598 384 L 597 351 Q 597 324 592 278 L 588 246 Z" fill="black" /></g></svg>