<?xml version='1.0' encoding='utf-8'?>
<svg xmlns="http://www.w3.org/2000/svg" version="1.1" viewBox="0 0 1024 1024"><g transform="scale(1, -1) translate(0, -900)"><path d="M 513 295 Q 516 337 521 352 Q 525 371 512 384 Q 488 409 469 413 Q 456 416 451 411 Q 441 404 452 391 Q 470 355 469 323 Q 470 205 460 165 Q 454 135 442 119 Q 429 97 437 76 Q 447 43 464 31 Q 474 24 488 42 Q 516 79 616 175 Q 632 191 634 198 Q 635 211 615 200 Q 581 181 540 159 Q 521 147 513 151 Q 506 155 506 175 Q 507 227 511 266 L 513 295 Z" fill="black" /></g></svg>