<?xml version='1.0' encoding='utf-8'?>
<svg xmlns="http://www.w3.org/2000/svg" version="1.1" viewBox="0 0 1024 1024"><g transform="scale(1, -1) translate(0, -900)"><path d="M 858 266 Q 883 332 907 430 Q 914 458 930 478 Q 946 496 932 506 Q 919 516 887 522 Q 865 526 841 509 Q 822 499 795 490 Q 768 480 722 472 Q 709 471 705 464 Q 702 457 719 451 Q 753 439 799 454 Q 821 467 825 469 Q 855 470 852 439 Q 842 360 823 301 L 806 260 Q 764 166 669 119 Q 668 119 668 118 C 655 111 655 111 668 108 L 670 108 Q 674 102 704 105 Q 773 115 836 218 L 858 266 Z" fill="black" /></g></svg>