<?xml version='1.0' encoding='utf-8'?>
<svg xmlns="http://www.w3.org/2000/svg" version="1.1" viewBox="0 0 1024 1024"><g transform="scale(1, -1) translate(0, -900)"><path d="M 320 262 Q 338 237 353 230 Q 363 223 377 242 Q 390 266 416 392 Q 423 420 445 443 Q 457 455 446 467 Q 433 483 393 506 Q 377 513 322 499 Q 307 499 270 489 L 239 482 Q 212 481 143 462 C 114 454 129 426 158 434 Q 183 441 222 449 L 254 455 Q 338 476 357 463 Q 370 454 367 435 Q 343 293 325 284 C 314 269 314 269 320 262 Z" fill="black" /></g></svg>