<?xml version='1.0' encoding='utf-8'?>
<svg xmlns="http://www.w3.org/2000/svg" version="1.1" viewBox="0 0 1024 1024"><g transform="scale(1, -1) translate(0, -900)"><path d="M 360 308 Q 375 286 389 278 Q 398 271 412 289 Q 427 314 459 452 Q 466 477 487 498 Q 497 508 488 520 Q 475 533 440 556 Q 425 563 365 546 Q 350 546 336 539 L 305 532 Q 277 528 250 519 Q 211 509 180 502 C 151 495 161 464 189 475 Q 188 476 190 476 Q 221 488 267 498 L 294 505 Q 388 535 408 521 Q 421 511 417 490 Q 384 340 367 331 C 355 314 355 314 360 308 Z" fill="black" /></g></svg>