<?xml version='1.0' encoding='utf-8'?>
<svg xmlns="http://www.w3.org/2000/svg" version="1.1" viewBox="0 0 1024 1024"><g transform="scale(1, -1) translate(0, -900)"><path d="M 314 296 Q 329 266 353 254 Q 363 247 375 267 Q 390 294 412 437 Q 419 465 439 489 Q 449 499 439 512 Q 426 527 385 548 Q 373 554 311 538 Q 298 538 279 530 L 249 523 Q 231 520 167 503 C 138 495 145 458 173 468 Q 200 478 240 487 L 274 494 Q 335 515 355 502 Q 370 492 366 471 Q 348 341 335 313 C 325 285 305 312 314 296 Z" fill="black" /></g></svg>