<?xml version='1.0' encoding='utf-8'?>
<svg xmlns="http://www.w3.org/2000/svg" version="1.1" viewBox="0 0 1024 1024"><g transform="scale(1, -1) translate(0, -900)"><path d="M 769 546 Q 829 571 871 582 Q 881 583 883 581 Q 893 568 890 531 Q 886 429 865 384 Q 853 357 830 359 Q 815 362 801 365 Q 779 372 795 351 Q 826 318 841 292 Q 860 274 875 292 Q 924 337 938 458 Q 942 566 957 588 Q 966 598 960 607 Q 951 614 908 629 Q 892 635 876 622 Q 855 604 760 576 C 731 567 741 535 769 546 Z" fill="black" /></g></svg>