<?xml version='1.0' encoding='utf-8'?>
<svg xmlns="http://www.w3.org/2000/svg" version="1.1" viewBox="0 0 1024 1024"><g transform="scale(1, -1) translate(0, -900)"><path d="M 590 326 Q 600 311 606 300 Q 625 270 633 272 Q 637 273 641 279 Q 662 304 661 352 L 661 357 Q 654 510 661 578 Q 662 610 670 627 Q 675 637 674 643 Q 672 653 643 664 Q 610 676 594 673 L 582 669 Q 523 641 472 630 C 443 623 450 602 479 608 Q 488 608 533 623 Q 590 641 602 630 Q 613 618 615 539 Q 615 500 610 368 Q 612 351 604 349 C 592 322 588 330 590 326 Z" fill="black" /></g></svg>