<?xml version='1.0' encoding='utf-8'?>
<svg xmlns="http://www.w3.org/2000/svg" version="1.1" viewBox="0 0 1024 1024"><g transform="scale(1, -1) translate(0, -900)"><path d="M 594 327 Q 587 324 498 263 Q 494 259 491 264 Q 495 355 497 435 L 497 461 Q 496 498 496 531 L 496 555 Q 496 628 501 633 C 503 644 503 644 487 656 Q 471 669 456 676 Q 440 682 432 677 Q 423 671 431 659 Q 476 574 452 298 Q 452 256 420 212 Q 411 199 419 180 Q 429 158 440 148 Q 452 142 461 157 Q 470 179 603 311 C 624 332 619 343 594 327 Z" fill="black" /></g></svg>