<?xml version='1.0' encoding='utf-8'?>
<svg xmlns="http://www.w3.org/2000/svg" version="1.1" viewBox="0 0 1024 1024"><g transform="scale(1, -1) translate(0, -900)"><path d="M 319 296 Q 325 289 329 284 Q 349 263 359 273 Q 368 282 375 302 Q 384 328 404 431 Q 410 457 425 474 Q 433 484 431 492 Q 429 504 379 531 Q 369 536 341 527 L 310 517 Q 309 517 263 503 L 231 494 Q 218 492 139 464 C 111 454 122 429 149 441 Q 176 454 225 468 L 255 476 Q 302 496 327 498 Q 365 500 362 468 Q 362 461 356 429 Q 337 335 326 321 C 316 300 316 300 319 296 Z" fill="black" /></g></svg>