<?xml version='1.0' encoding='utf-8'?>
<svg xmlns="http://www.w3.org/2000/svg" version="1.1" viewBox="0 0 1024 1024"><g transform="scale(1, -1) translate(0, -900)"><path d="M 524 616 Q 554 622 590 627 L 625 633 Q 662 640 705 646 L 749 653 Q 824 663 886 669 Q 896 668 904 679 Q 905 689 884 700 Q 851 725 762 696 Q 759 696 757 695 L 708 684 Q 695 683 624 668 L 587 662 Q 557 659 524 654 L 487 650 Q 450 649 413 643 Q 385 640 406 623 Q 433 599 475 607 Q 481 608 489 609 L 524 616 Z" fill="black" /></g></svg>