<?xml version='1.0' encoding='utf-8'?>
<svg xmlns="http://www.w3.org/2000/svg" version="1.1" viewBox="0 0 1024 1024"><g transform="scale(1, -1) translate(0, -900)"><path d="M 364 282 Q 382 257 397 250 Q 407 243 419 263 Q 434 290 456 433 Q 463 461 482 484 Q 492 494 482 507 Q 467 520 429 541 Q 411 548 361 530 Q 339 527 318 518 L 295 512 Q 249 503 170 476 C 142 466 157 436 185 447 Q 184 448 186 448 Q 220 461 268 475 L 299 483 Q 380 511 399 498 Q 415 488 411 467 Q 390 317 374 303 C 363 283 363 283 364 282 Z" fill="black" /></g></svg>