<?xml version='1.0' encoding='utf-8'?>
<svg xmlns="http://www.w3.org/2000/svg" version="1.1" viewBox="0 0 1024 1024"><g transform="scale(1, -1) translate(0, -900)"><path d="M 659 255 L 661 254 Q 672 249 711 243 Q 743 239 753 225 Q 753 223 754 221 Q 761 188 717 100 Q 710 82 703 73 Q 682 41 649 53 L 627 63 Q 603 75 590 75 Q 580 67 598 55 Q 632 20 640 -16 L 642 -24 Q 653 -55 699 -27 Q 729 -6 751 36 Q 764 61 788 128 Q 808 183 824 199 Q 851 210 817 245 Q 801 262 770 269 L 700 278 L 676 283 C 647 289 631 265 659 255 Z" fill="black" /></g></svg>