<?xml version='1.0' encoding='utf-8'?>
<svg xmlns="http://www.w3.org/2000/svg" version="1.1" viewBox="0 0 1024 1024"><g transform="scale(1, -1) translate(0, -900)"><path d="M 781 546 Q 793 527 804 518 Q 813 511 828 528 Q 841 544 874 638 Q 883 665 905 685 Q 917 695 907 708 Q 895 724 859 749 Q 844 758 783 743 Q 762 742 629 718 Q 575 708 529 701 C 499 696 521 665 550 673 Q 574 680 606 686 L 627 690 Q 660 699 708 704 L 747 711 Q 804 726 826 711 Q 836 702 832 688 Q 802 580 787 573 C 774 556 774 556 781 546 Z" fill="black" /></g></svg>