<?xml version='1.0' encoding='utf-8'?>
<svg xmlns="http://www.w3.org/2000/svg" version="1.1" viewBox="0 0 1024 1024"><g transform="scale(1, -1) translate(0, -900)"><path d="M 526 210 Q 538 191 549 174 Q 562 155 569 156 Q 579 157 592 188 Q 604 219 600 262 Q 594 332 591 474 L 591 493 Q 591 577 603 598 Q 612 613 605 622 Q 599 631 557 644 Q 538 651 523 642 Q 487 624 458 616 C 429 607 443 586 472 593 Q 535 608 540 605 Q 552 595 553 434 L 553 422 Q 550 239 545 230 C 541 200 513 231 526 210 Z" fill="black" /></g></svg>