<?xml version='1.0' encoding='utf-8'?>
<svg xmlns="http://www.w3.org/2000/svg" version="1.1" viewBox="0 0 1024 1024"><g transform="scale(1, -1) translate(0, -900)"><path d="M 346 315 Q 359 293 373 286 Q 382 280 394 297 Q 410 324 439 465 Q 446 490 465 511 Q 475 521 466 533 Q 453 546 418 568 Q 400 577 302 548 L 268 541 Q 252 538 235 534 Q 190 524 155 515 C 126 508 139 483 168 489 Q 172 489 180 491 Q 208 501 253 510 L 287 518 Q 372 539 389 529 Q 402 517 399 497 Q 371 353 357 339 C 345 316 345 316 346 315 Z" fill="black" /></g></svg>