<?xml version='1.0' encoding='utf-8'?>
<svg xmlns="http://www.w3.org/2000/svg" version="1.1" viewBox="0 0 1024 1024"><g transform="scale(1, -1) translate(0, -900)"><path d="M 732 -15 Q 760 -49 779 -81 Q 786 -97 797 -96 Q 812 -95 825 -65 Q 841 -31 838 11 Q 832 69 825 178 Q 824 206 838 225 Q 845 237 837 245 Q 821 263 774 283 Q 758 290 744 282 Q 687 255 560 228 C 531 222 538 192 567 199 Q 745 241 756 238 Q 759 238 763 235 Q 778 223 776 67 Q 777 27 773 13 Q 769 -5 753 4 C 723 2 719 2 732 -15 Z" fill="black" /></g></svg>