<?xml version='1.0' encoding='utf-8'?>
<svg xmlns="http://www.w3.org/2000/svg" version="1.1" viewBox="0 0 1024 1024"><g transform="scale(1, -1) translate(0, -900)"><path d="M 595 421 Q 631 457 703 542 L 732 578 Q 772 633 804 681 Q 837 733 858 759 Q 865 769 859 784 Q 844 812 828 826 Q 815 839 799 839 Q 783 840 787 820 Q 793 790 779 748 Q 778 747 777 743 Q 740 655 670 566 L 642 531 Q 627 513 610 494 L 586 468 L 562 443 Q 496 377 420 312 Q 413 308 412 300 Q 412 296 418 295 Q 457 301 552 382 Q 561 391 563 392 L 595 421 Z" fill="black" /></g></svg>