<?xml version='1.0' encoding='utf-8'?>
<svg xmlns="http://www.w3.org/2000/svg" version="1.1" viewBox="0 0 1024 1024"><g transform="scale(1, -1) translate(0, -900)"><path d="M 594 111 Q 609 83 625 74 Q 634 67 649 85 Q 664 106 697 222 Q 707 250 729 274 Q 742 286 731 299 Q 718 315 678 341 Q 662 348 576 329 Q 563 329 537 322 L 509 316 Q 478 312 445 304 Q 393 292 350 285 C 320 280 339 243 368 252 Q 368 253 370 253 Q 410 266 468 276 L 502 284 Q 622 312 644 296 Q 656 286 651 269 Q 621 145 610 136 C 596 109 592 114 594 111 Z" fill="black" /></g></svg>