<?xml version='1.0' encoding='utf-8'?>
<svg xmlns="http://www.w3.org/2000/svg" version="1.1" viewBox="0 0 1024 1024"><g transform="scale(1, -1) translate(0, -900)"><path d="M 306 256 Q 318 240 329 235 Q 338 229 349 246 Q 362 268 384 390 Q 390 415 407 434 Q 417 444 408 455 Q 395 467 362 486 Q 347 492 288 473 Q 282 473 257 465 L 226 456 Q 214 456 140 434 C 111 426 122 393 149 406 Q 153 412 221 429 L 248 436 Q 320 458 335 449 Q 348 439 344 422 Q 326 314 313 285 C 303 259 303 259 306 256 Z" fill="black" /></g></svg>