<?xml version='1.0' encoding='utf-8'?>
<svg xmlns="http://www.w3.org/2000/svg" version="1.1" viewBox="0 0 1024 1024"><g transform="scale(1, -1) translate(0, -900)"><path d="M 795 317 Q 808 298 821 290 Q 830 284 842 301 Q 854 320 879 425 Q 886 450 905 472 Q 915 482 906 494 Q 893 507 857 530 Q 842 536 773 517 Q 763 517 741 510 L 694 499 Q 691 499 596 476 C 567 469 582 437 610 447 Q 643 459 694 470 L 741 481 Q 811 499 828 488 Q 840 481 836 465 Q 815 354 805 343 C 794 319 794 319 795 317 Z" fill="black" /></g></svg>