<?xml version='1.0' encoding='utf-8'?>
<svg xmlns="http://www.w3.org/2000/svg" version="1.1" viewBox="0 0 1024 1024"><g transform="scale(1, -1) translate(0, -900)"><path d="M 344 484 Q 374 484 381 473 Q 384 469 380 447 Q 361 396 339 388 Q 333 388 316 391 Q 294 404 291 402 Q 287 396 296 387 Q 312 366 313 344 Q 314 334 322 328 Q 329 324 353 335 Q 387 356 409 418 Q 419 448 431 456 Q 438 460 439 465 Q 440 471 425 487 Q 407 505 360 506 Q 354 506 350 507 C 320 510 314 485 344 484 Z" fill="black" /></g></svg>