<?xml version='1.0' encoding='utf-8'?>
<svg xmlns="http://www.w3.org/2000/svg" version="1.1" viewBox="0 0 1024 1024"><g transform="scale(1, -1) translate(0, -900)"><path d="M 678 121 Q 709 166 740 230 Q 753 255 772 272 Q 790 285 779 298 Q 767 311 739 323 Q 717 330 692 319 Q 667 309 635 298 Q 601 288 546 279 Q 534 278 530 272 Q 527 265 543 259 Q 576 249 618 262 Q 667 281 676 282 Q 692 275 684 258 Q 668 194 638 149 L 614 118 Q 550 52 417 15 Q 404 12 414 3 Q 420 -1 461 1 Q 567 10 648 86 L 678 121 Z" fill="black" /></g></svg>