<?xml version='1.0' encoding='utf-8'?>
<svg xmlns="http://www.w3.org/2000/svg" version="1.1" viewBox="0 0 1024 1024"><g transform="scale(1, -1) translate(0, -900)"><path d="M 728 600 Q 728 596 731 590 Q 735 575 747 577 Q 760 578 766 592 Q 776 605 793 666 Q 806 712 839 740 Q 855 756 841 769 Q 825 784 778 807 Q 766 813 708 800 Q 657 793 613 780 Q 582 773 557 768 C 528 762 541 736 571 739 Q 578 738 584 740 Q 627 753 725 769 Q 741 770 749 767 Q 756 763 753 737 Q 740 643 731 622 L 728 600 Z" fill="black" /></g></svg>