<?xml version='1.0' encoding='utf-8'?>
<svg xmlns="http://www.w3.org/2000/svg" version="1.1" viewBox="0 0 1024 1024"><g transform="scale(1, -1) translate(0, -900)"><path d="M 760 483 Q 773 462 785 454 Q 792 447 808 464 Q 817 474 843 539 Q 852 566 873 587 Q 886 597 876 610 Q 863 626 826 651 Q 808 660 795 655 Q 770 649 735 642 L 685 633 Q 654 629 622 621 L 581 613 Q 536 604 500 598 C 470 593 491 559 520 568 Q 523 571 585 584 L 622 592 Q 649 599 684 604 L 730 611 Q 772 623 794 610 Q 801 604 798 594 Q 780 515 764 508 C 752 495 752 495 760 483 Z" fill="black" /></g></svg>