<?xml version='1.0' encoding='utf-8'?>
<svg xmlns="http://www.w3.org/2000/svg" version="1.1" viewBox="0 0 1024 1024"><g transform="scale(1, -1) translate(0, -900)"><path d="M 338 317 Q 354 293 369 286 Q 379 279 391 298 Q 404 322 428 449 Q 435 476 454 498 Q 464 508 455 520 Q 442 535 404 556 Q 389 562 322 545 Q 310 545 303 540 L 274 534 Q 247 531 158 507 C 129 499 142 471 171 480 Q 199 490 243 499 L 277 507 Q 352 528 371 516 Q 384 506 382 487 Q 364 369 355 350 Q 351 340 341 337 C 330 328 330 328 338 317 Z" fill="black" /></g></svg>