<?xml version='1.0' encoding='utf-8'?>
<svg xmlns="http://www.w3.org/2000/svg" version="1.1" viewBox="0 0 1024 1024"><g transform="scale(1, -1) translate(0, -900)"><path d="M 470 682 Q 463 686 451 692 Q 436 699 430 695 Q 426 689 431 678 Q 461 621 445 373 Q 444 345 429 319 Q 422 309 430 293 Q 436 278 444 273 Q 451 267 463 277 Q 502 311 630 324 Q 646 325 647 333 Q 646 343 625 355 Q 613 364 573 351 L 542 343 Q 520 342 493 333 Q 489 332 487 333 Q 483 334 482 344 Q 483 387 483 435 L 483 457 Q 483 493 483 530 L 483 551 Q 483 630 485 654 C 486 673 486 673 470 682 Z" fill="black" /></g></svg>