<?xml version='1.0' encoding='utf-8'?>
<svg xmlns="http://www.w3.org/2000/svg" version="1.1" viewBox="0 0 1024 1024"><g transform="scale(1, -1) translate(0, -900)"><path d="M 260 480 Q 239 476 178 453 C 150 443 160 404 186 420 Q 186 421 187 421 Q 198 431 260 449 L 293 460 Q 354 483 376 478 L 378 478 Q 394 471 391 453 Q 369 322 353 306 C 340 284 340 284 345 278 Q 373 239 390 253 Q 396 259 402 272 Q 415 302 435 410 L 437 417 Q 445 440 461 459 Q 468 466 466 474 Q 463 488 410 517 Q 390 527 344 507 Q 321 504 290 488 L 260 480 Z" fill="black" /></g></svg>