<?xml version='1.0' encoding='utf-8'?>
<svg xmlns="http://www.w3.org/2000/svg" version="1.1" viewBox="0 0 1024 1024"><g transform="scale(1, -1) translate(0, -900)"><path d="M 759 612 Q 760 622 762 631 Q 762 641 759 649 Q 752 659 725 670 C 698 683 668 688 681 661 Q 683 658 686 651 Q 702 617 708 596 L 708 566 L 708 504 L 708 472 Q 708 427 708 420 L 708 385 Q 707 355 704 319 L 704 290 Q 704 263 704 225 L 702 190 Q 702 165 702 134 L 702 100 Q 702 7 715 -14 Q 721 -21 727 -18 Q 733 -15 737 -7 Q 745 10 751 112 L 753 151 L 753 203 L 751 243 Q 749 285 749 300 L 749 331 L 749 394 L 749 431 Q 749 437 751 482 L 751 514 Q 751 527 751 542 Q 751 554 753 578 L 759 612 Z" fill="black" /></g></svg>