<?xml version='1.0' encoding='utf-8'?>
<svg xmlns="http://www.w3.org/2000/svg" version="1.1" viewBox="0 0 1024 1024"><g transform="scale(1, -1) translate(0, -900)"><path d="M 350 341 Q 366 316 381 310 Q 391 304 402 322 Q 415 347 435 478 Q 441 503 459 526 Q 469 536 459 547 Q 446 560 410 580 Q 397 586 330 566 Q 321 566 304 559 L 276 552 Q 269 552 173 524 C 144 516 160 486 188 497 Q 218 509 263 520 L 292 527 Q 364 549 381 539 Q 394 530 392 511 Q 374 382 362 363 C 352 338 348 344 350 341 Z" fill="black" /></g></svg>