<?xml version='1.0' encoding='utf-8'?>
<svg xmlns="http://www.w3.org/2000/svg" version="1.1" viewBox="0 0 1024 1024"><g transform="scale(1, -1) translate(0, -900)"><path d="M 616 145 Q 628 126 640 118 Q 650 111 665 129 Q 678 145 708 238 Q 718 266 741 288 Q 754 298 743 312 Q 730 328 692 355 Q 676 364 610 349 Q 589 348 533 337 L 505 333 Q 493 333 354 307 C 325 301 338 268 367 276 Q 410 289 476 300 L 506 305 Q 629 333 656 313 Q 666 306 662 291 Q 638 183 621 176 C 606 158 606 158 616 145 Z" fill="black" /></g></svg>