<?xml version='1.0' encoding='utf-8'?>
<svg xmlns="http://www.w3.org/2000/svg" version="1.1" viewBox="0 0 1024 1024"><g transform="scale(1, -1) translate(0, -900)"><path d="M 634 145 L 636 139 Q 640 124 651 124 Q 670 127 704 197 Q 722 243 756 267 Q 775 280 761 296 Q 745 312 702 339 Q 686 349 631 336 Q 609 335 528 323 L 507 320 Q 467 316 433 309 Q 357 294 286 294 C 256 294 311 255 340 261 Q 344 261 350 262 Q 393 275 466 285 L 500 290 Q 644 318 672 301 Q 679 297 673 273 Q 649 188 640 170 Q 639 170 639 169 C 631 151 631 151 634 145 Z" fill="black" /></g></svg>