<?xml version='1.0' encoding='utf-8'?>
<svg xmlns="http://www.w3.org/2000/svg" version="1.1" viewBox="0 0 1024 1024"><g transform="scale(1, -1) translate(0, -900)"><path d="M 881 549 Q 882 553 885 556 L 903 581 Q 913 598 902 612 Q 843 649 804 638 L 788 633 Q 783 629 776 625 Q 760 617 759 612 C 759 612 737 605 708 596 Q 686 589 667 584 L 619 574 Q 610 571 610 564 Q 611 562 614 559 Q 633 546 661 552 Q 662 553 665 553 Q 704 563 708 566 L 753 578 Q 800 598 809 596 Q 813 595 815 592 Q 823 585 821 547 L 821 533 L 815 497 Q 808 463 806 453 C 800 424 842 420 849 449 Q 857 482 862 503 L 881 549 Z" fill="black" /></g></svg>