<?xml version='1.0' encoding='utf-8'?>
<svg xmlns="http://www.w3.org/2000/svg" version="1.1" viewBox="0 0 1024 1024"><g transform="scale(1, -1) translate(0, -900)"><path d="M 278 625 Q 287 626 337 643 L 347 643 Q 349 639 347 635 Q 303 546 272 505 Q 263 490 260 480 C 249 452 269 466 290 488 Q 308 506 357 561 Q 386 596 415 618 L 449 643 Q 458 651 455 659 Q 453 669 396 700 Q 384 704 373 700 Q 371 699 367 697 Q 298 661 249 651 C 236 648 236 648 242 641 L 243 639 Q 253 625 278 625 Z" fill="black" /></g></svg>