<?xml version='1.0' encoding='utf-8'?>
<svg xmlns="http://www.w3.org/2000/svg" version="1.1" viewBox="0 0 1024 1024"><g transform="scale(1, -1) translate(0, -900)"><path d="M 817 424 Q 835 443 861 517 Q 877 563 910 588 Q 928 603 914 617 Q 898 633 854 657 Q 839 666 774 650 Q 756 650 710 639 L 667 630 Q 657 630 555 607 C 526 600 540 571 569 578 Q 575 578 580 580 Q 611 592 667 602 L 709 610 Q 802 631 825 621 Q 832 615 827 588 Q 809 509 799 478 L 790 454 Q 789 444 792 434 Q 795 422 802 421 C 809 412 809 412 817 424 Z" fill="black" /></g></svg>