<?xml version='1.0' encoding='utf-8'?>
<svg xmlns="http://www.w3.org/2000/svg" version="1.1" viewBox="0 0 1024 1024"><g transform="scale(1, -1) translate(0, -900)"><path d="M 708 504 Q 659 491 571 472 Q 559 470 563 463 Q 564 461 567 457 Q 587 439 617 443 Q 625 443 633 447 Q 664 463 708 472 L 751 482 Q 770 488 815 497 L 862 503 L 956 517 Q 972 517 976 525 Q 979 532 974 539 L 965 546 Q 942 567 919 561 Q 904 556 902 556 Q 892 556 881 549 L 821 533 Q 782 523 751 514 L 708 504 Z" fill="black" /></g></svg>