<?xml version='1.0' encoding='utf-8'?>
<svg xmlns="http://www.w3.org/2000/svg" version="1.1" viewBox="0 0 1024 1024"><g transform="scale(1, -1) translate(0, -900)"><path d="M 635 618 Q 689 630 798 630 Q 816 629 821 639 Q 825 646 810 655 Q 765 685 701 663 Q 689 663 644 651 L 598 641 Q 570 635 544 627 Q 523 620 529 639 Q 539 673 548 686 Q 555 693 551 702 Q 547 709 519 723 Q 506 730 498 725 Q 489 718 497 708 Q 518 666 478 617 Q 469 608 470 597 Q 471 588 485 578 Q 495 572 505 581 Q 553 608 587 608 L 635 618 Z" fill="black" /></g></svg>