<?xml version='1.0' encoding='utf-8'?>
<svg xmlns="http://www.w3.org/2000/svg" version="1.1" viewBox="0 0 1024 1024"><g transform="scale(1, -1) translate(0, -900)"><path d="M 363 513 Q 362 513 361 512 Q 324 496 283 475 Q 270 469 270 481 Q 273 527 274 570 L 274 597 Q 275 622 275 645 L 275 669 Q 275 708 277 722 C 279 742 279 742 270 749 Q 252 765 236 772 Q 221 778 214 772 Q 207 768 213 755 Q 249 683 233 513 Q 232 474 199 435 Q 177 408 214 374 Q 224 367 234 381 Q 247 403 375 497 C 399 515 390 525 363 513 Z" fill="black" /></g></svg>