<?xml version='1.0' encoding='utf-8'?>
<svg xmlns="http://www.w3.org/2000/svg" version="1.1" viewBox="0 0 1024 1024"><g transform="scale(1, -1) translate(0, -900)"><path d="M 273 507 Q 292 526 339 582 Q 378 630 416 656 Q 432 666 421 677 Q 409 687 377 707 Q 362 711 350 703 Q 343 700 287 682 Q 271 678 249 674 C 230 670 230 670 241 662 Q 248 653 268 651 Q 275 651 323 661 Q 330 662 331 661 Q 335 657 330 647 Q 290 565 265 526 Q 256 511 255 504 Q 254 503 254 502 C 246 479 252 485 273 507 Z" fill="black" /></g></svg>