<?xml version='1.0' encoding='utf-8'?>
<svg xmlns="http://www.w3.org/2000/svg" version="1.1" viewBox="0 0 1024 1024"><g transform="scale(1, -1) translate(0, -900)"><path d="M 704 319 L 620 301 C 591 295 598 268 627 274 L 704 290 L 749 300 Q 824 318 843 310 Q 856 306 860 286 Q 866 202 865 109 Q 864 73 864 68 Q 862 41 851 36 Q 841 34 815 42 L 780 53 Q 777 55 776 55 Q 772 55 768 49 Q 770 42 782 32 Q 797 21 809 8 L 847 -31 Q 863 -48 878 -48 Q 892 -45 907 -8 Q 925 25 925 65 L 925 69 Q 921 171 915 247 Q 913 278 927 306 Q 934 321 931 327 Q 921 347 868 365 Q 853 370 800 349 L 749 331 L 704 319 Z" fill="black" /></g></svg>