<?xml version='1.0' encoding='utf-8'?>
<svg xmlns="http://www.w3.org/2000/svg" version="1.1" viewBox="0 0 1024 1024"><g transform="scale(1, -1) translate(0, -900)"><path d="M 772 380 Q 796 356 814 350 Q 824 346 834 366 Q 843 394 842 535 Q 845 563 862 587 Q 872 600 860 610 Q 844 623 804 640 Q 786 644 774 638 Q 749 631 714 623 L 682 617 Q 657 613 631 604 L 596 596 Q 557 589 527 581 C 498 574 512 543 540 553 Q 544 557 595 568 L 628 575 Q 650 581 683 586 L 711 590 Q 748 606 772 591 Q 788 584 789 563 Q 795 413 783 399 C 776 376 768 384 772 380 Z" fill="black" /></g></svg>