<?xml version='1.0' encoding='utf-8'?>
<svg xmlns="http://www.w3.org/2000/svg" version="1.1" viewBox="0 0 1024 1024"><g transform="scale(1, -1) translate(0, -900)"><path d="M 707 260 Q 708 193 708 69 Q 707 38 697 26 Q 687 19 659 27 Q 635 36 604 44 Q 592 47 593 40 Q 594 33 603 24 Q 667 -28 708 -68 Q 718 -77 732 -62 Q 771 -2 765 104 Q 761 183 763 262 L 765 298 Q 765 305 766 310 Q 772 335 766 345 Q 757 357 725 374 C 699 389 683 398 691 371 Q 690 364 698 351 Q 707 329 707 291 L 707 260 Z" fill="black" /></g></svg>