<?xml version='1.0' encoding='utf-8'?>
<svg xmlns="http://www.w3.org/2000/svg" version="1.1" viewBox="0 0 1024 1024"><g transform="scale(1, -1) translate(0, -900)"><path d="M 340 294 Q 340 293 342 291 Q 358 266 373 258 Q 382 252 394 270 Q 407 295 433 429 Q 440 454 458 476 Q 468 486 458 498 Q 445 511 409 531 Q 393 538 334 519 Q 325 519 313 513 L 287 506 Q 262 503 178 477 C 149 468 159 439 187 449 Q 215 459 256 470 L 285 478 Q 360 503 381 492 Q 394 482 391 462 Q 373 345 357 313 C 346 285 334 303 340 294 Z" fill="black" /></g></svg>