<?xml version='1.0' encoding='utf-8'?>
<svg xmlns="http://www.w3.org/2000/svg" version="1.1" viewBox="0 0 1024 1024"><g transform="scale(1, -1) translate(0, -900)"><path d="M 583 232 Q 582 233 585 233 Q 621 242 631 240 C 661 240 663 272 633 268 Q 608 265 588 260 L 549 251 Q 527 247 507 239 Q 497 236 499 249 Q 509 316 504 326 Q 494 338 479 348 Q 472 352 464 351 Q 457 348 462 335 Q 475 302 468 270 Q 464 239 450 226 Q 438 214 443 205 Q 450 195 462 188 Q 472 182 478 188 Q 490 203 544 220 L 583 232 Z" fill="black" /></g></svg>