<?xml version='1.0' encoding='utf-8'?>
<svg xmlns="http://www.w3.org/2000/svg" version="1.1" viewBox="0 0 1024 1024"><g transform="scale(1, -1) translate(0, -900)"><path d="M 339 307 Q 358 280 373 274 Q 383 267 395 287 Q 407 309 426 430 Q 432 457 451 479 Q 461 491 451 502 Q 438 515 399 536 Q 384 542 318 522 Q 311 522 300 517 L 269 509 Q 251 506 161 479 C 132 470 147 443 175 453 Q 203 463 245 475 L 276 483 Q 349 504 368 495 Q 381 486 378 468 Q 363 348 352 329 C 342 303 336 311 339 307 Z" fill="black" /></g></svg>