<?xml version='1.0' encoding='utf-8'?>
<svg xmlns="http://www.w3.org/2000/svg" version="1.1" viewBox="0 0 1024 1024"><g transform="scale(1, -1) translate(0, -900)"><path d="M 681 20 Q 703 -11 720 -41 Q 727 -57 737 -56 Q 750 -56 765 -28 Q 781 3 780 43 Q 776 92 773 181 Q 772 208 786 227 Q 793 237 786 246 Q 770 262 726 284 Q 710 291 697 284 Q 646 260 530 238 C 501 232 510 206 540 210 Q 553 210 687 239 Q 706 243 716 236 Q 729 227 723 94 Q 722 58 719 48 Q 716 39 708 37 C 687 15 676 27 681 20 Z" fill="black" /></g></svg>