<?xml version='1.0' encoding='utf-8'?>
<svg xmlns="http://www.w3.org/2000/svg" version="1.1" viewBox="0 0 1024 1024"><g transform="scale(1, -1) translate(0, -900)"><path d="M 769 494 Q 785 466 801 458 Q 810 451 824 469 Q 837 491 867 612 Q 874 640 896 661 Q 908 673 898 685 Q 885 700 846 724 Q 831 730 758 713 L 711 705 Q 677 701 641 691 L 599 684 Q 554 677 519 668 C 490 661 506 630 535 639 Q 563 648 603 656 L 641 663 Q 672 670 710 677 L 755 684 Q 794 694 814 680 Q 827 670 822 653 Q 801 545 787 518 C 776 490 764 502 769 494 Z" fill="black" /></g></svg>