<?xml version='1.0' encoding='utf-8'?>
<svg xmlns="http://www.w3.org/2000/svg" version="1.1" viewBox="0 0 1024 1024"><g transform="scale(1, -1) translate(0, -900)"><path d="M 340 278 Q 340 277 342 275 Q 358 250 373 242 Q 382 236 394 254 Q 407 279 433 413 Q 440 438 458 460 Q 468 470 458 482 Q 445 495 409 515 Q 393 522 334 503 Q 333 503 292 492 L 269 486 Q 256 485 178 461 C 149 452 159 423 187 433 Q 215 443 256 454 L 285 462 Q 360 487 381 476 Q 394 466 391 446 Q 373 329 357 297 C 346 269 334 287 340 278 Z" fill="black" /></g></svg>