<?xml version='1.0' encoding='utf-8'?>
<svg xmlns="http://www.w3.org/2000/svg" version="1.1" viewBox="0 0 1024 1024"><g transform="scale(1, -1) translate(0, -900)"><path d="M 347 274 Q 348 273 350 271 Q 366 246 381 238 Q 391 232 402 250 Q 415 275 438 410 Q 445 435 463 457 Q 473 467 463 479 Q 450 492 414 512 Q 401 518 334 498 Q 333 498 296 488 L 273 482 Q 245 479 184 457 C 156 447 166 420 194 430 Q 221 440 260 451 L 289 458 Q 365 482 385 472 Q 400 462 396 442 Q 378 322 365 294 C 355 266 340 284 347 274 Z" fill="black" /></g></svg>