<?xml version='1.0' encoding='utf-8'?>
<svg xmlns="http://www.w3.org/2000/svg" version="1.1" viewBox="0 0 1024 1024"><g transform="scale(1, -1) translate(0, -900)"><path d="M 767 253 L 768 252 Q 772 239 783 241 Q 793 242 799 255 Q 808 267 821 324 Q 831 366 860 392 Q 875 405 861 417 Q 845 430 804 449 Q 792 455 736 439 Q 715 439 628 414 Q 594 405 570 400 C 541 394 554 361 582 372 Q 595 379 654 392 L 684 399 Q 762 418 780 412 Q 787 408 785 384 Q 775 297 768 279 Q 767 279 767 278 C 761 261 761 261 767 253 Z" fill="black" /></g></svg>