<?xml version='1.0' encoding='utf-8'?>
<svg xmlns="http://www.w3.org/2000/svg" version="1.1" viewBox="0 0 1024 1024"><g transform="scale(1, -1) translate(0, -900)"><path d="M 338 280 Q 338 279 340 275 Q 344 263 355 265 Q 365 268 371 280 Q 383 301 396 400 Q 406 442 432 468 Q 445 481 432 493 Q 417 505 376 522 Q 367 526 307 509 Q 295 506 285 502 L 254 493 Q 226 486 205 478 Q 166 465 140 457 C 111 448 128 425 157 434 Q 161 434 166 436 Q 191 449 238 461 L 270 471 Q 339 493 353 488 Q 363 482 361 450 Q 348 330 338 304 C 333 288 333 288 338 280 Z" fill="black" /></g></svg>