<?xml version='1.0' encoding='utf-8'?>
<svg xmlns="http://www.w3.org/2000/svg" version="1.1" viewBox="0 0 1024 1024"><g transform="scale(1, -1) translate(0, -900)"><path d="M 624 523 Q 625 478 643 466 Q 688 436 765 462 Q 783 468 800 482 Q 810 491 802 505 Q 795 515 781 545 Q 781 555 776 557 Q 773 558 771 549 Q 750 501 730 492 Q 703 485 676 491 Q 666 495 663 501 Q 657 511 658 534 L 660 569 Q 664 599 657 606 Q 647 615 630 621 Q 620 622 614 619 Q 610 616 614 603 Q 623 579 624 555 L 624 523 Z" fill="black" /></g></svg>