<?xml version='1.0' encoding='utf-8'?>
<svg xmlns="http://www.w3.org/2000/svg" version="1.1" viewBox="0 0 1024 1024"><g transform="scale(1, -1) translate(0, -900)"><path d="M 698 245 Q 692 245 684 243 Q 640 229 612 223 C 583 216 598 191 627 199 L 704 220 L 733 225 Q 800 247 819 237 Q 835 227 828 196 Q 820 162 797 136 C 783 118 779 122 781 120 Q 792 105 798 98 Q 817 76 829 84 Q 842 98 851 116 Q 864 142 874 200 Q 877 220 898 220 Q 905 227 903 235 Q 900 248 850 274 Q 837 280 809 274 L 780 265 Q 768 265 729 253 L 698 245 Z" fill="black" /></g></svg>