<?xml version='1.0' encoding='utf-8'?>
<svg xmlns="http://www.w3.org/2000/svg" version="1.1" viewBox="0 0 1024 1024"><g transform="scale(1, -1) translate(0, -900)"><path d="M 314 245 Q 308 245 300 243 Q 256 229 228 223 C 199 216 214 191 243 199 L 319 220 L 349 225 Q 416 247 435 237 Q 451 227 444 196 Q 436 162 413 136 C 399 118 395 122 397 120 Q 408 105 414 98 Q 433 76 445 84 Q 458 98 466 116 Q 480 142 490 200 Q 493 220 514 220 Q 520 227 518 235 Q 515 248 466 274 Q 453 280 425 274 L 396 265 Q 384 265 345 253 L 314 245 Z" fill="black" /></g></svg>