<?xml version='1.0' encoding='utf-8'?>
<svg xmlns="http://www.w3.org/2000/svg" version="1.1" viewBox="0 0 1024 1024"><g transform="scale(1, -1) translate(0, -900)"><path d="M 506 703 Q 471 703 321 672 C 292 666 306 620 333 633 Q 344 645 472 666 L 505 670 Q 510 672 515 672 Q 655 698 681 685 Q 687 680 687 672 L 684 653 Q 668 602 646 564 C 639 551 639 551 643 542 Q 643 541 645 536 Q 650 521 662 521 Q 684 523 717 592 Q 728 610 745 626 L 770 649 Q 786 662 782 673 Q 778 687 711 726 Q 704 732 659 725 Q 602 717 598 717 Q 593 717 542 710 L 506 703 Z" fill="black" /></g></svg>