<?xml version='1.0' encoding='utf-8'?>
<svg xmlns="http://www.w3.org/2000/svg" version="1.1" viewBox="0 0 1024 1024"><g transform="scale(1, -1) translate(0, -900)"><path d="M 340 292 Q 344 280 355 281 Q 365 282 371 294 Q 384 313 403 403 Q 415 445 443 469 Q 456 482 444 494 Q 429 507 390 526 Q 378 533 327 519 Q 312 519 263 506 L 232 498 Q 219 497 208 493 Q 171 484 143 478 C 114 472 134 445 162 454 Q 190 464 238 475 L 265 480 Q 350 501 364 493 Q 374 487 369 457 Q 351 352 338 312 C 334 298 334 298 340 292 Z" fill="black" /></g></svg>