<?xml version='1.0' encoding='utf-8'?>
<svg xmlns="http://www.w3.org/2000/svg" version="1.1" viewBox="0 0 1024 1024"><g transform="scale(1, -1) translate(0, -900)"><path d="M 319 295 Q 332 276 345 270 Q 354 264 366 282 Q 379 304 402 429 Q 408 454 425 475 Q 435 485 426 497 Q 413 510 378 529 Q 363 536 309 515 Q 306 515 261 501 L 231 492 Q 222 491 138 462 C 110 452 120 429 148 440 Q 179 453 225 467 L 254 475 Q 327 505 350 492 Q 363 482 360 464 Q 339 335 325 321 C 314 301 314 301 319 295 Z" fill="black" /></g></svg>