<?xml version='1.0' encoding='utf-8'?>
<svg xmlns="http://www.w3.org/2000/svg" version="1.1" viewBox="0 0 1024 1024"><g transform="scale(1, -1) translate(0, -900)"><path d="M 587 401 Q 605 458 620 530 L 629 576 Q 647 705 672 754 Q 682 772 674 782 Q 662 807 604 815 Q 588 819 572 808 Q 563 798 574 787 Q 607 762 602 695 Q 596 635 582 567 L 573 520 Q 551 417 514 334 Q 475 246 379 109 Q 370 93 382 92 Q 388 92 399 102 Q 450 145 491 202 Q 522 248 550 305 L 558 323 Q 573 369 577 373 L 587 401 Z" fill="black" /></g></svg>