<?xml version='1.0' encoding='utf-8'?>
<svg xmlns="http://www.w3.org/2000/svg" version="1.1" viewBox="0 0 1024 1024"><g transform="scale(1, -1) translate(0, -900)"><path d="M 713 184 Q 753 242 778 337 Q 785 370 803 386 Q 819 399 801 415 Q 782 430 750 442 Q 729 449 709 438 Q 660 413 593 402 Q 589 402 587 401 C 557 396 547 372 577 373 Q 595 370 702 395 Q 723 402 722 379 Q 722 301 676 219 L 654 185 Q 645 175 635 162 Q 584 110 452 69 Q 439 65 447 58 Q 454 52 481 57 Q 620 73 683 145 L 713 184 Z" fill="black" /></g></svg>