<?xml version='1.0' encoding='utf-8'?>
<svg xmlns="http://www.w3.org/2000/svg" version="1.1" viewBox="0 0 1024 1024"><g transform="scale(1, -1) translate(0, -900)"><path d="M 656 430 Q 677 426 719 419 Q 747 415 758 399 Q 773 371 720 208 Q 693 132 663 120 Q 645 116 593 139 Q 554 157 550 150 Q 544 140 562 128 Q 613 89 630 43 Q 634 25 647 19 Q 660 13 696 37 Q 741 73 772 175 Q 817 361 839 373 Q 851 379 852 388 Q 853 398 828 424 Q 782 466 745 453 Q 733 453 672 463 C 642 468 626 435 656 430 Z" fill="black" /></g></svg>