<?xml version='1.0' encoding='utf-8'?>
<svg xmlns="http://www.w3.org/2000/svg" version="1.1" viewBox="0 0 1024 1024"><g transform="scale(1, -1) translate(0, -900)"><path d="M 363 289 Q 376 271 389 266 Q 399 259 411 279 Q 424 303 445 433 Q 452 461 470 483 Q 480 493 471 505 Q 458 518 419 540 Q 404 546 339 527 L 312 520 Q 254 508 181 487 C 152 479 168 450 196 460 Q 224 470 266 480 L 296 487 Q 323 494 357 501 Q 379 505 388 499 Q 401 486 399 470 Q 380 329 364 318 C 353 301 353 301 363 289 Z" fill="black" /></g></svg>