<?xml version='1.0' encoding='utf-8'?>
<svg xmlns="http://www.w3.org/2000/svg" version="1.1" viewBox="0 0 1024 1024"><g transform="scale(1, -1) translate(0, -900)"><path d="M 388 273 Q 401 257 413 250 Q 423 243 435 262 Q 450 287 475 421 Q 482 448 502 470 Q 512 482 503 494 Q 490 507 451 530 Q 439 536 365 518 Q 353 518 332 511 L 310 506 Q 298 506 185 479 C 156 472 173 442 202 450 Q 235 460 282 471 L 315 477 Q 346 486 384 491 Q 409 495 419 487 Q 432 472 429 458 Q 410 334 400 314 Q 396 305 387 301 C 374 289 374 289 388 273 Z" fill="black" /></g></svg>