<?xml version='1.0' encoding='utf-8'?>
<svg xmlns="http://www.w3.org/2000/svg" version="1.1" viewBox="0 0 1024 1024"><g transform="scale(1, -1) translate(0, -900)"><path d="M 623 440 Q 633 441 651 448 Q 742 472 758 466 Q 770 460 768 434 Q 786 244 776 95 Q 775 65 757 59 Q 747 56 694 69 Q 681 73 682 65 Q 683 56 698 46 Q 732 15 759 -17 Q 772 -33 789 -33 Q 807 -29 828 23 Q 855 75 849 129 Q 839 256 827 374 Q 823 420 842 458 Q 852 474 838 487 Q 820 503 781 515 Q 760 525 743 512 Q 730 505 703 494 Q 636 472 607 464 C 578 456 594 432 623 440 Z" fill="black" /></g></svg>