<?xml version='1.0' encoding='utf-8'?>
<svg xmlns="http://www.w3.org/2000/svg" version="1.1" viewBox="0 0 1024 1024"><g transform="scale(1, -1) translate(0, -900)"><path d="M 728 400 Q 767 407 814 410 Q 833 410 842 400 Q 849 393 845 379 Q 848 177 835 149 Q 832 142 821 143 Q 797 147 770 151 Q 745 152 763 136 Q 821 90 847 57 Q 860 42 872 55 Q 888 73 896 101 Q 906 131 900 291 Q 897 352 914 382 Q 927 401 921 408 Q 914 420 866 448 Q 850 461 835 455 Q 810 445 761 435 Q 661 422 610 409 L 580 402 Q 549 396 523 389 C 494 382 516 343 545 352 Q 552 353 559 356 Q 569 360 587 366 L 609 373 Q 651 389 689 393 L 728 400 Z" fill="black" /></g></svg>