<?xml version='1.0' encoding='utf-8'?>
<svg xmlns="http://www.w3.org/2000/svg" version="1.1" viewBox="0 0 1024 1024"><g transform="scale(1, -1) translate(0, -900)"><path d="M 384 286 Q 399 265 413 258 Q 423 251 435 270 Q 450 297 475 437 Q 482 464 502 487 Q 512 497 502 510 Q 489 523 450 546 Q 438 552 365 533 Q 361 533 339 527 L 312 521 Q 285 517 258 509 Q 212 497 178 490 C 149 484 173 452 201 462 Q 200 463 202 463 Q 233 473 280 484 L 309 490 Q 342 500 384 507 Q 409 511 419 503 Q 432 488 430 472 Q 409 330 392 312 C 380 290 380 290 384 286 Z" fill="black" /></g></svg>