<?xml version='1.0' encoding='utf-8'?>
<svg xmlns="http://www.w3.org/2000/svg" version="1.1" viewBox="0 0 1024 1024"><g transform="scale(1, -1) translate(0, -900)"><path d="M 384 286 Q 399 265 413 258 Q 423 251 435 270 Q 450 297 475 437 Q 482 464 501 487 Q 511 497 502 510 Q 487 523 449 545 Q 431 552 377 534 Q 350 531 335 523 L 311 517 Q 284 511 258 503 Q 221 493 190 485 C 161 477 173 444 201 455 Q 200 456 202 456 Q 233 468 282 480 L 312 488 Q 405 515 419 503 Q 432 487 430 472 Q 409 330 392 312 C 380 290 380 290 384 286 Z" fill="black" /></g></svg>