<?xml version='1.0' encoding='utf-8'?>
<svg xmlns="http://www.w3.org/2000/svg" version="1.1" viewBox="0 0 1024 1024"><g transform="scale(1, -1) translate(0, -900)"><path d="M 386 310 Q 399 291 413 286 Q 423 279 435 299 Q 448 323 469 453 Q 476 481 495 503 Q 505 513 495 525 Q 482 540 444 560 Q 431 566 361 548 Q 358 548 338 543 L 311 537 Q 265 530 180 508 C 151 501 169 473 197 482 Q 231 494 280 504 L 312 510 Q 340 517 376 523 Q 403 527 411 519 Q 424 506 422 491 Q 404 352 389 339 C 378 319 378 319 386 310 Z" fill="black" /></g></svg>