<?xml version='1.0' encoding='utf-8'?>
<svg xmlns="http://www.w3.org/2000/svg" version="1.1" viewBox="0 0 1024 1024"><g transform="scale(1, -1) translate(0, -900)"><path d="M 456 572 Q 468 602 478 633 Q 478 636 479 638 L 493 680 Q 509 743 538 784 Q 550 800 535 810 Q 522 825 508 832 Q 489 847 471 843 Q 458 842 462 827 Q 474 790 447 673 L 434 632 Q 421 601 405 566 L 386 531 Q 304 399 118 306 Q 105 299 116 295 Q 183 289 287 362 Q 353 407 408 487 Q 420 506 439 538 L 456 572 Z" fill="black" /></g></svg>