<?xml version='1.0' encoding='utf-8'?>
<svg xmlns="http://www.w3.org/2000/svg" version="1.1" viewBox="0 0 1024 1024"><g transform="scale(1, -1) translate(0, -900)"><path d="M 386 283 Q 399 264 413 258 Q 423 251 435 271 Q 442 287 456 346 L 459 359 Q 463 390 472 429 Q 479 457 498 479 Q 508 491 499 502 Q 484 517 446 538 Q 433 544 365 526 Q 353 526 331 518 L 310 513 Q 289 510 192 484 C 163 476 173 444 201 454 Q 200 455 202 455 Q 235 465 284 477 L 317 485 Q 401 507 415 495 Q 428 480 426 465 Q 405 321 387 309 C 377 294 377 294 386 283 Z" fill="black" /></g></svg>