<?xml version='1.0' encoding='utf-8'?>
<svg xmlns="http://www.w3.org/2000/svg" version="1.1" viewBox="0 0 1024 1024"><g transform="scale(1, -1) translate(0, -900)"><path d="M 656 202 Q 683 250 684 367 L 685 400 Q 686 436 688 469 L 690 509 Q 690 537 692 567 L 695 599 Q 695 603 711 649 Q 718 662 707 672 Q 688 688 657 696 C 629 706 597 711 614 686 Q 642 658 643 588 L 645 557 Q 646 526 646 495 L 646 460 Q 645 426 644 391 L 643 361 Q 637 268 624 232 Q 623 232 623 231 L 607 197 Q 562 130 403 75 Q 391 71 390 67 Q 391 63 401 61 Q 420 58 465 69 Q 541 85 594 127 Q 616 145 634 166 L 656 202 Z" fill="black" /></g></svg>