<?xml version='1.0' encoding='utf-8'?>
<svg xmlns="http://www.w3.org/2000/svg" version="1.1" viewBox="0 0 1024 1024"><g transform="scale(1, -1) translate(0, -900)"><path d="M 383 427 Q 383 428 384 430 Q 391 457 409 478 Q 419 488 409 500 Q 396 513 359 533 Q 350 537 283 522 L 256 516 Q 228 512 200 503 Q 166 494 135 488 C 106 482 120 455 149 461 Q 153 461 160 463 Q 182 470 215 477 L 240 482 Q 267 489 302 494 Q 321 498 329 491 Q 341 478 339 465 Q 326 336 309 322 C 299 305 299 305 306 298 Q 321 280 334 274 Q 343 268 354 287 Q 364 308 380 406 L 383 427 Z" fill="black" /></g></svg>