<?xml version='1.0' encoding='utf-8'?>
<svg xmlns="http://www.w3.org/2000/svg" version="1.1" viewBox="0 0 1024 1024"><g transform="scale(1, -1) translate(0, -900)"><path d="M 785 479 Q 821 542 843 606 Q 852 631 868 649 Q 884 664 872 675 Q 860 685 832 693 Q 811 697 789 684 Q 767 675 736 666 Q 705 657 655 651 Q 642 650 638 644 Q 635 638 651 631 Q 682 619 726 632 Q 765 647 772 647 Q 796 647 793 621 Q 781 554 753 506 L 728 472 Q 674 430 634 414 Q 624 410 634 404 Q 638 400 664 402 Q 698 406 737 433 Q 744 437 751 443 L 785 479 Z" fill="black" /></g></svg>