<?xml version='1.0' encoding='utf-8'?>
<svg xmlns="http://www.w3.org/2000/svg" version="1.1" viewBox="0 0 1024 1024"><g transform="scale(1, -1) translate(0, -900)"><path d="M 349 283 Q 362 267 374 262 Q 383 256 394 274 Q 407 299 428 434 Q 434 459 452 482 Q 462 492 453 503 Q 440 516 403 537 Q 387 544 373 538 Q 349 531 320 525 Q 316 525 313 523 L 289 518 Q 256 512 159 489 C 130 482 151 453 180 462 Q 208 472 253 481 L 281 487 Q 306 494 342 499 Q 364 503 373 495 Q 386 482 384 466 Q 365 324 350 311 C 340 293 340 293 349 283 Z" fill="black" /></g></svg>