<?xml version='1.0' encoding='utf-8'?>
<svg xmlns="http://www.w3.org/2000/svg" version="1.1" viewBox="0 0 1024 1024"><g transform="scale(1, -1) translate(0, -900)"><path d="M 586 126 Q 599 105 613 98 Q 622 91 637 109 Q 650 128 682 234 Q 691 262 713 285 Q 726 295 716 309 Q 703 325 663 351 Q 648 358 568 341 Q 552 341 522 333 L 490 327 Q 489 327 344 300 C 315 295 333 262 362 270 Q 404 283 464 293 L 494 300 Q 611 325 628 309 Q 638 296 635 284 Q 608 163 591 155 C 578 137 578 137 586 126 Z" fill="black" /></g></svg>