<?xml version='1.0' encoding='utf-8'?>
<svg xmlns="http://www.w3.org/2000/svg" version="1.1" viewBox="0 0 1024 1024"><g transform="scale(1, -1) translate(0, -900)"><path d="M 750 412 Q 799 424 840 427 Q 865 428 858 441 Q 851 453 835 459 Q 829 462 752 443 L 707 433 Q 682 429 654 423 Q 638 420 635 423 Q 629 435 683 589 L 701 639 Q 729 727 747 746 Q 757 758 741 774 Q 716 796 698 806 Q 685 812 677 809 Q 670 805 677 786 Q 689 753 658 627 L 646 581 Q 603 452 575 421 Q 562 406 568 393 Q 575 375 585 367 Q 594 360 603 364 Q 634 382 707 402 L 750 412 Z" fill="black" /></g></svg>