<?xml version='1.0' encoding='utf-8'?>
<svg xmlns="http://www.w3.org/2000/svg" version="1.1" viewBox="0 0 1024 1024"><g transform="scale(1, -1) translate(0, -900)"><path d="M 835 102 Q 814 105 794 107 Q 775 113 777 104 Q 825 64 852 35 Q 865 17 878 14 Q 887 10 894 19 Q 930 67 927 113 Q 900 474 919 534 Q 920 540 923 544 Q 933 562 923 571 Q 904 587 870 601 Q 854 607 840 600 Q 818 587 802 581 Q 783 575 748 568 C 719 562 737 535 766 541 Q 787 544 831 559 Q 849 563 854 554 Q 875 500 869 200 Q 865 113 858 103 Q 854 99 835 102 Z" fill="black" /></g></svg>