<?xml version='1.0' encoding='utf-8'?>
<svg xmlns="http://www.w3.org/2000/svg" version="1.1" viewBox="0 0 1024 1024"><g transform="scale(1, -1) translate(0, -900)"><path d="M 387 310 Q 400 292 413 286 Q 423 279 436 298 Q 449 320 474 444 Q 481 472 501 494 Q 513 504 502 517 Q 489 532 450 554 Q 435 560 368 542 Q 358 542 342 536 L 313 529 Q 292 526 188 501 C 159 494 178 466 207 474 Q 240 484 286 495 L 321 502 Q 405 524 419 511 Q 431 498 428 484 Q 409 369 400 351 Q 396 342 388 338 C 375 324 375 324 387 310 Z" fill="black" /></g></svg>