<?xml version='1.0' encoding='utf-8'?>
<svg xmlns="http://www.w3.org/2000/svg" version="1.1" viewBox="0 0 1024 1024"><g transform="scale(1, -1) translate(0, -900)"><path d="M 342 306 Q 357 288 370 282 Q 379 276 390 295 Q 402 317 420 442 Q 426 469 444 490 Q 454 500 444 512 Q 431 525 393 544 Q 377 551 364 544 Q 342 537 313 529 Q 307 528 305 526 L 280 519 Q 255 516 172 489 C 143 480 152 447 179 459 Q 178 460 180 460 Q 208 472 252 482 L 278 489 Q 303 496 336 504 Q 358 510 365 503 Q 378 490 376 476 Q 361 347 346 331 C 336 312 336 312 342 306 Z" fill="black" /></g></svg>