<?xml version='1.0' encoding='utf-8'?>
<svg xmlns="http://www.w3.org/2000/svg" version="1.1" viewBox="0 0 1024 1024"><g transform="scale(1, -1) translate(0, -900)"><path d="M 636 532 Q 636 607 649 629 Q 658 645 650 654 Q 644 664 600 676 Q 578 683 563 674 Q 524 653 492 644 C 463 635 480 616 509 622 Q 579 637 581 637 L 582 636 Q 594 624 594 579 Q 598 392 589 289 Q 592 274 582 271 C 570 249 566 255 568 252 Q 580 233 592 215 Q 605 193 613 196 Q 623 197 635 227 Q 648 258 644 299 Q 640 369 636 512 L 636 532 Z" fill="black" /></g></svg>