<?xml version='1.0' encoding='utf-8'?>
<svg xmlns="http://www.w3.org/2000/svg" version="1.1" viewBox="0 0 1024 1024"><g transform="scale(1, -1) translate(0, -900)"><path d="M 583 328 Q 577 327 486 263 Q 482 259 479 264 Q 483 357 485 436 L 485 462 Q 484 498 484 531 L 484 556 Q 485 595 489 636 C 490 647 490 647 473 658 Q 457 670 444 676 Q 428 682 420 677 Q 411 671 419 659 Q 464 574 440 298 Q 440 256 408 212 Q 399 199 407 180 Q 417 158 428 148 Q 440 142 449 157 Q 458 179 592 312 C 613 333 609 343 583 328 Z" fill="black" /></g></svg>