<?xml version='1.0' encoding='utf-8'?>
<svg xmlns="http://www.w3.org/2000/svg" version="1.1" viewBox="0 0 1024 1024"><g transform="scale(1, -1) translate(0, -900)"><path d="M 369 276 Q 385 252 402 246 Q 411 239 423 259 Q 436 284 455 422 Q 461 450 479 473 Q 489 485 479 496 Q 464 509 426 530 Q 413 536 344 516 Q 341 516 329 512 L 306 505 Q 278 501 247 490 Q 207 480 175 471 C 146 463 158 435 187 442 Q 191 442 198 444 Q 228 454 272 466 L 302 473 Q 384 495 395 486 Q 408 471 407 456 Q 392 321 380 301 C 370 274 368 278 369 276 Z" fill="black" /></g></svg>