<?xml version='1.0' encoding='utf-8'?>
<svg xmlns="http://www.w3.org/2000/svg" version="1.1" viewBox="0 0 1024 1024"><g transform="scale(1, -1) translate(0, -900)"><path d="M 689 359 Q 740 375 794 382 C 824 386 813 401 783 399 Q 711 395 627 378 Q 605 374 620 390 Q 662 430 755 510 Q 788 541 814 557 Q 827 564 823 575 Q 816 594 788 617 Q 775 627 765 626 Q 755 625 755 610 Q 752 577 694 509 L 672 486 Q 569 384 545 376 Q 532 369 532 356 Q 531 343 553 322 Q 560 309 576 318 Q 616 337 658 350 L 689 359 Z" fill="black" /></g></svg>