<?xml version='1.0' encoding='utf-8'?>
<svg xmlns="http://www.w3.org/2000/svg" version="1.1" viewBox="0 0 1024 1024"><g transform="scale(1, -1) translate(0, -900)"><path d="M 616 151 Q 629 126 644 118 Q 654 111 669 128 Q 684 149 720 262 Q 730 290 752 313 Q 765 323 755 338 Q 742 354 702 381 Q 684 391 600 371 Q 588 371 546 362 L 513 356 Q 483 353 452 347 Q 394 335 346 328 C 316 323 334 287 363 295 Q 363 296 366 296 Q 412 309 483 322 L 518 328 Q 650 353 668 337 Q 678 324 674 310 Q 643 187 628 177 C 614 155 614 155 616 151 Z" fill="black" /></g></svg>