<?xml version='1.0' encoding='utf-8'?>
<svg xmlns="http://www.w3.org/2000/svg" version="1.1" viewBox="0 0 1024 1024"><g transform="scale(1, -1) translate(0, -900)"><path d="M 371 286 Q 384 268 397 262 Q 407 255 419 275 Q 432 300 456 433 Q 463 461 482 483 Q 492 495 482 506 Q 469 521 430 542 Q 411 549 399 542 Q 374 535 343 527 Q 339 527 337 525 L 311 518 Q 280 511 248 502 Q 214 493 186 485 C 157 477 169 445 197 455 Q 196 456 198 456 Q 228 466 273 478 L 305 486 Q 333 495 367 501 Q 391 505 399 499 Q 412 484 410 469 Q 389 322 372 314 C 361 298 361 298 371 286 Z" fill="black" /></g></svg>