<?xml version='1.0' encoding='utf-8'?>
<svg xmlns="http://www.w3.org/2000/svg" version="1.1" viewBox="0 0 1024 1024"><g transform="scale(1, -1) translate(0, -900)"><path d="M 690 535 Q 723 581 756 647 Q 769 672 791 688 Q 804 695 804 704 Q 803 714 777 728 Q 746 747 733 747 Q 723 746 714 738 Q 698 731 660 714 Q 629 704 614 697 C 586 686 565 670 595 670 Q 631 666 682 693 Q 700 699 707 694 Q 713 690 698 648 Q 686 609 656 566 L 637 539 Q 568 451 458 396 Q 449 392 450 388 Q 451 384 458 384 Q 564 391 666 505 L 690 535 Z" fill="black" /></g></svg>