<?xml version='1.0' encoding='utf-8'?>
<svg xmlns="http://www.w3.org/2000/svg" version="1.1" viewBox="0 0 1024 1024"><g transform="scale(1, -1) translate(0, -900)"><path d="M 755 545 Q 755 546 757 546 Q 817 571 859 582 Q 869 583 871 581 Q 881 568 878 531 Q 874 429 853 384 Q 841 357 818 359 Q 803 362 789 365 Q 767 372 783 351 Q 814 318 829 292 Q 848 274 863 292 Q 912 337 926 458 Q 930 566 945 588 Q 954 598 948 607 Q 939 614 896 629 Q 880 635 864 622 Q 846 607 752 577 C 723 568 727 533 755 545 Z" fill="black" /></g></svg>