<?xml version='1.0' encoding='utf-8'?>
<svg xmlns="http://www.w3.org/2000/svg" version="1.1" viewBox="0 0 1024 1024"><g transform="scale(1, -1) translate(0, -900)"><path d="M 694 113 Q 694 179 695 239 L 696 282 Q 697 346 699 403 L 700 437 Q 701 476 702 511 L 703 550 Q 706 607 704 611 Q 692 623 680 631 C 656 649 621 650 635 623 Q 642 610 649 596 Q 656 574 656 536 L 657 503 Q 657 476 656 427 L 656 396 Q 655 345 654 273 L 653 232 Q 652 177 652 107 C 652 77 694 83 694 113 Z" fill="black" /></g></svg>