<?xml version='1.0' encoding='utf-8'?>
<svg xmlns="http://www.w3.org/2000/svg" version="1.1" viewBox="0 0 1024 1024"><g transform="scale(1, -1) translate(0, -900)"><path d="M 325 292 Q 339 271 351 267 Q 363 263 374 280 Q 388 306 412 435 Q 416 449 421 462 L 438 486 Q 446 498 437 508 Q 425 521 385 544 Q 368 551 355 545 L 300 529 Q 296 529 294 527 L 270 521 Q 258 521 145 490 C 116 482 132 452 161 461 Q 188 470 231 482 L 263 488 L 292 496 Q 341 509 355 501 Q 367 485 365 472 Q 353 388 349 367 Q 340 325 325 318 C 314 307 314 307 325 292 Z" fill="black" /></g></svg>