<?xml version='1.0' encoding='utf-8'?>
<svg xmlns="http://www.w3.org/2000/svg" version="1.1" viewBox="0 0 1024 1024"><g transform="scale(1, -1) translate(0, -900)"><path d="M 768 314 Q 767 362 767 418 L 766 452 Q 766 503 766 560 L 765 594 Q 766 673 780 729 Q 789 744 786 758 Q 779 767 722 800 Q 698 816 677 801 Q 673 795 679 780 Q 712 735 713 689 Q 719 566 720 292 Q 720 192 701 119 Q 694 85 701 64 Q 720 3 734 -3 Q 741 -10 748 -2 Q 775 20 773 81 Q 770 112 768 279 L 768 314 Z" fill="black" /></g></svg>