<?xml version='1.0' encoding='utf-8'?>
<svg xmlns="http://www.w3.org/2000/svg" version="1.1" viewBox="0 0 1024 1024"><g transform="scale(1, -1) translate(0, -900)"><path d="M 360 297 Q 373 281 385 274 Q 394 268 406 286 Q 419 310 442 438 Q 449 463 467 485 Q 477 495 468 506 Q 455 519 419 540 Q 404 547 318 526 Q 312 525 306 522 L 286 517 Q 261 513 235 506 Q 196 497 163 489 C 134 482 156 455 185 464 Q 215 474 259 484 L 286 489 Q 377 510 389 500 Q 401 487 399 472 Q 378 334 361 322 C 351 307 351 307 360 297 Z" fill="black" /></g></svg>