<?xml version='1.0' encoding='utf-8'?>
<svg xmlns="http://www.w3.org/2000/svg" version="1.1" viewBox="0 0 1024 1024"><g transform="scale(1, -1) translate(0, -900)"><path d="M 657 679 Q 718 695 792 706 Q 810 709 818 698 Q 834 691 839 622 Q 855 393 843 131 Q 842 92 828 82 Q 815 73 750 93 Q 734 97 734 87 Q 735 80 747 73 Q 805 25 834 -11 Q 855 -30 867 -28 Q 880 -25 891 3 Q 907 48 907 113 Q 891 480 892 615 Q 893 652 904 675 Q 916 696 906 707 Q 896 720 851 744 Q 833 754 771 736 Q 648 708 548 693 C 518 688 530 652 559 658 Q 565 658 573 659 Q 604 668 643 676 L 657 679 Z" fill="black" /></g></svg>