<?xml version='1.0' encoding='utf-8'?>
<svg xmlns="http://www.w3.org/2000/svg" version="1.1" viewBox="0 0 1024 1024"><g transform="scale(1, -1) translate(0, -900)"><path d="M 515 296 Q 515 335 521 359 Q 525 372 517 382 Q 495 404 475 415 Q 457 422 449 417 Q 439 411 447 397 Q 478 319 461 192 Q 454 146 414 103 Q 401 90 407 68 Q 414 43 425 31 Q 437 24 449 38 Q 467 60 606 145 Q 625 155 631 162 Q 635 171 627 172 Q 611 175 519 141 Q 500 135 502 152 Q 509 213 513 266 L 515 296 Z" fill="black" /></g></svg>