<?xml version='1.0' encoding='utf-8'?>
<svg xmlns="http://www.w3.org/2000/svg" version="1.1" viewBox="0 0 1024 1024"><g transform="scale(1, -1) translate(0, -900)"><path d="M 735 495 Q 753 470 769 462 Q 779 455 793 475 Q 806 500 830 636 Q 837 664 858 688 Q 870 700 859 713 Q 844 728 805 751 Q 786 758 772 752 Q 747 746 717 740 Q 677 733 624 721 Q 591 714 562 707 C 533 700 546 670 575 678 Q 633 694 738 711 Q 762 715 769 707 Q 782 692 780 677 Q 762 536 746 519 C 734 496 734 496 735 495 Z" fill="black" /></g></svg>