<?xml version='1.0' encoding='utf-8'?>
<svg xmlns="http://www.w3.org/2000/svg" version="1.1" viewBox="0 0 1024 1024"><g transform="scale(1, -1) translate(0, -900)"><path d="M 315 289 Q 328 271 341 266 Q 351 259 363 279 Q 376 301 397 425 Q 404 452 423 474 Q 433 486 423 497 Q 410 510 372 532 Q 357 538 297 523 Q 290 523 281 519 L 251 512 Q 236 511 141 487 C 112 480 127 451 156 460 Q 181 469 221 477 L 253 484 Q 325 503 339 491 Q 352 478 350 464 Q 332 329 316 318 C 305 301 305 301 315 289 Z" fill="black" /></g></svg>