<?xml version='1.0' encoding='utf-8'?>
<svg xmlns="http://www.w3.org/2000/svg" version="1.1" viewBox="0 0 1024 1024"><g transform="scale(1, -1) translate(0, -900)"><path d="M 358 291 Q 371 272 385 266 Q 395 259 407 279 Q 420 303 444 433 Q 451 461 470 483 Q 480 495 470 506 Q 457 521 418 542 Q 400 549 387 543 Q 363 536 333 528 Q 329 528 327 526 L 303 520 Q 291 519 178 488 C 149 480 166 449 194 459 Q 222 469 264 480 L 296 487 Q 323 494 356 501 Q 378 505 387 499 Q 400 484 398 470 Q 380 349 371 330 Q 367 321 359 317 C 347 305 347 305 358 291 Z" fill="black" /></g></svg>