<?xml version='1.0' encoding='utf-8'?>
<svg xmlns="http://www.w3.org/2000/svg" version="1.1" viewBox="0 0 1024 1024"><g transform="scale(1, -1) translate(0, -900)"><path d="M 366 294 Q 378 279 389 274 Q 399 267 411 286 Q 424 310 447 433 Q 454 460 474 481 Q 484 493 475 504 Q 462 519 424 540 Q 412 546 344 531 Q 338 531 323 526 L 294 520 Q 266 516 239 509 Q 196 499 162 493 C 132 488 152 456 181 465 Q 181 466 184 466 Q 215 476 261 486 L 295 492 Q 376 513 391 500 Q 403 487 401 472 Q 385 357 375 338 Q 371 328 359 325 Q 356 325 357 324 C 344 317 346 316 366 294 Z" fill="black" /></g></svg>