<?xml version='1.0' encoding='utf-8'?>
<svg xmlns="http://www.w3.org/2000/svg" version="1.1" viewBox="0 0 1024 1024"><g transform="scale(1, -1) translate(0, -900)"><path d="M 533 597 Q 564 604 600 609 L 635 616 Q 668 623 706 628 L 747 634 Q 805 643 858 648 Q 868 647 877 659 Q 878 669 856 680 Q 829 701 756 680 Q 755 680 753 679 L 708 668 Q 672 664 634 652 L 597 645 Q 563 641 535 636 L 490 631 Q 456 628 420 623 Q 393 620 414 603 Q 435 587 477 586 Q 483 589 492 589 L 533 597 Z" fill="black" /></g></svg>