<?xml version='1.0' encoding='utf-8'?>
<svg xmlns="http://www.w3.org/2000/svg" version="1.1" viewBox="0 0 1024 1024"><g transform="scale(1, -1) translate(0, -900)"><path d="M 770 102 Q 780 77 801 32 Q 808 16 819 16 Q 834 19 843 43 Q 868 91 889 265 Q 893 311 915 339 Q 931 358 920 370 Q 899 391 855 411 Q 837 421 806 410 Q 697 368 510 349 C 480 346 505 310 535 314 Q 541 314 548 315 Q 588 325 639 333 L 675 341 Q 727 351 788 363 Q 813 369 826 356 Q 848 316 813 140 Q 812 124 804 122 L 802 122 C 786 96 762 121 770 102 Z" fill="black" /></g></svg>