<?xml version='1.0' encoding='utf-8'?>
<svg xmlns="http://www.w3.org/2000/svg" version="1.1" viewBox="0 0 1024 1024"><g transform="scale(1, -1) translate(0, -900)"><path d="M 338 296 Q 351 277 365 270 Q 375 264 386 282 Q 399 307 422 442 Q 429 467 447 489 Q 457 499 447 511 Q 434 524 398 544 Q 382 551 369 544 Q 344 537 313 529 Q 309 529 306 527 L 280 520 Q 250 514 219 505 Q 185 495 157 487 C 128 479 145 452 173 462 Q 204 474 247 484 L 279 492 Q 304 499 337 506 Q 361 510 369 504 Q 382 489 380 474 Q 362 347 346 322 C 336 299 336 299 338 296 Z" fill="black" /></g></svg>