<?xml version='1.0' encoding='utf-8'?>
<svg xmlns="http://www.w3.org/2000/svg" version="1.1" viewBox="0 0 1024 1024"><g transform="scale(1, -1) translate(0, -900)"><path d="M 358 274 Q 374 252 389 246 Q 399 239 411 259 Q 424 284 445 421 Q 451 449 470 471 Q 480 481 470 494 Q 457 507 418 527 Q 400 534 348 516 Q 324 513 317 507 L 289 499 Q 259 492 231 483 Q 198 473 171 465 C 142 456 151 427 179 438 Q 212 451 259 464 L 288 472 Q 378 494 388 487 Q 401 472 399 457 Q 381 316 366 300 C 355 278 355 278 358 274 Z" fill="black" /></g></svg>