<?xml version='1.0' encoding='utf-8'?>
<svg xmlns="http://www.w3.org/2000/svg" version="1.1" viewBox="0 0 1024 1024"><g transform="scale(1, -1) translate(0, -900)"><path d="M 451 700 Q 436 697 444 688 Q 451 681 465 677 Q 489 670 516 679 Q 619 701 722 726 Q 737 730 747 720 Q 754 708 753 689 Q 726 173 902 58 Q 917 48 936 39 Q 976 23 995 36 Q 1007 43 1000 65 Q 979 144 971 230 Q 971 242 965 249 Q 958 256 955 238 Q 945 174 933 144 Q 921 119 903 137 Q 849 179 820 293 Q 784 419 801 629 Q 805 671 846 715 Q 859 731 842 744 Q 829 757 773 783 Q 754 795 733 777 Q 681 738 451 700 Z" fill="black" /></g></svg>