<?xml version='1.0' encoding='utf-8'?>
<svg xmlns="http://www.w3.org/2000/svg" version="1.1" viewBox="0 0 1024 1024"><g transform="scale(1, -1) translate(0, -900)"><path d="M 328 308 Q 344 289 357 282 Q 367 275 379 295 Q 392 319 410 446 Q 417 473 436 495 Q 446 507 436 518 Q 423 531 384 553 Q 374 557 305 542 Q 304 542 291 538 L 265 533 Q 241 530 146 505 C 117 497 128 467 156 477 Q 168 483 227 495 L 256 501 Q 338 522 351 511 Q 364 498 363 483 Q 347 342 329 333 C 319 318 319 318 328 308 Z" fill="black" /></g></svg>