<?xml version='1.0' encoding='utf-8'?>
<svg xmlns="http://www.w3.org/2000/svg" version="1.1" viewBox="0 0 1024 1024"><g transform="scale(1, -1) translate(0, -900)"><path d="M 631 112 Q 565 40 424 3 Q 411 -1 422 -9 Q 428 -13 470 -11 Q 578 -2 659 78 L 687 110 Q 721 156 751 225 Q 764 250 783 267 Q 801 280 790 294 Q 778 306 750 318 Q 728 325 702 314 Q 680 305 651 296 Q 621 287 572 280 C 542 275 533 274 560 263 Q 561 262 567 259 Q 601 246 647 259 Q 678 275 685 275 Q 704 272 698 252 Q 682 188 652 141 L 631 112 Z" fill="black" /></g></svg>