<?xml version='1.0' encoding='utf-8'?>
<svg xmlns="http://www.w3.org/2000/svg" version="1.1" viewBox="0 0 1024 1024"><g transform="scale(1, -1) translate(0, -900)"><path d="M 735 359 Q 816 378 835 361 Q 842 354 840 340 Q 847 144 835 114 Q 832 105 821 108 Q 799 109 773 111 Q 749 112 767 98 Q 824 58 848 27 Q 861 14 873 26 Q 889 44 895 71 Q 904 99 894 256 Q 890 314 905 344 Q 917 363 911 370 Q 904 382 856 409 Q 840 422 825 415 Q 800 403 752 393 Q 632 374 588 361 Q 560 354 538 349 C 509 342 535 301 563 312 Q 567 313 575 316 Q 588 323 612 330 L 636 338 Q 673 350 701 353 L 735 359 Z" fill="black" /></g></svg>