<?xml version='1.0' encoding='utf-8'?>
<svg xmlns="http://www.w3.org/2000/svg" version="1.1" viewBox="0 0 1024 1024"><g transform="scale(1, -1) translate(0, -900)"><path d="M 582 208 Q 619 238 702 257 Q 738 267 759 261 Q 781 254 783 218 Q 777 142 743 83 Q 727 59 714 53 Q 698 47 612 77 Q 596 86 594 78 Q 594 72 606 60 Q 652 15 684 -26 Q 694 -39 704 -38 Q 720 -39 739 -26 Q 799 28 830 162 Q 840 231 850 245 Q 863 258 852 270 Q 836 286 796 302 Q 780 309 701 287 Q 674 283 645 276 Q 623 272 633 294 Q 655 337 664 346 Q 676 361 665 375 Q 658 379 650 384 C 627 403 594 403 598 373 Q 605 360 599 333 Q 584 291 552 265 Q 536 249 539 234 Q 542 221 557 206 Q 569 196 582 208 Z" fill="black" /></g></svg>