<?xml version='1.0' encoding='utf-8'?>
<svg xmlns="http://www.w3.org/2000/svg" version="1.1" viewBox="0 0 1024 1024"><g transform="scale(1, -1) translate(0, -900)"><path d="M 774 384 Q 780 372 791 373 Q 804 374 810 389 Q 826 414 847 538 Q 860 586 891 613 Q 907 629 893 642 Q 877 657 830 679 Q 817 686 756 669 Q 741 669 548 623 C 519 616 533 590 562 595 Q 569 595 576 597 Q 604 607 651 617 L 685 625 Q 787 646 801 639 Q 814 632 808 593 Q 786 446 774 417 Q 773 417 773 416 C 764 392 764 392 774 384 Z" fill="black" /></g></svg>