<?xml version='1.0' encoding='utf-8'?>
<svg xmlns="http://www.w3.org/2000/svg" version="1.1" viewBox="0 0 1024 1024"><g transform="scale(1, -1) translate(0, -900)"><path d="M 672 546 Q 730 645 739 662 Q 766 731 787 750 Q 803 763 793 776 Q 781 786 754 798 Q 739 804 670 779 Q 564 758 535 755 Q 522 754 519 748 Q 515 742 531 735 Q 562 722 606 735 Q 679 757 692 756 Q 713 753 707 731 Q 686 638 637 572 L 614 547 Q 545 484 442 455 C 413 446 413 446 438 443 Q 444 439 484 441 Q 565 448 646 518 L 672 546 Z" fill="black" /></g></svg>