<?xml version='1.0' encoding='utf-8'?>
<svg xmlns="http://www.w3.org/2000/svg" version="1.1" viewBox="0 0 1024 1024"><g transform="scale(1, -1) translate(0, -900)"><path d="M 725 418 Q 744 390 761 381 Q 771 374 786 395 Q 799 417 825 543 Q 834 574 857 599 Q 870 611 858 625 Q 842 641 800 666 Q 785 675 714 659 Q 711 659 606 639 Q 597 638 588 635 L 562 629 Q 546 628 530 624 C 501 618 521 579 549 591 Q 559 603 730 623 Q 755 627 762 618 Q 775 605 773 590 Q 752 454 737 441 C 725 418 725 418 725 418 Z" fill="black" /></g></svg>