<?xml version='1.0' encoding='utf-8'?>
<svg xmlns="http://www.w3.org/2000/svg" version="1.1" viewBox="0 0 1024 1024"><g transform="scale(1, -1) translate(0, -900)"><path d="M 811 460 Q 842 467 872 471 Q 879 471 881 468 Q 888 452 887 411 Q 880 260 854 180 Q 841 129 824 114 Q 817 107 800 113 Q 778 122 757 131 Q 738 138 749 119 Q 782 76 798 43 Q 804 25 821 28 Q 839 31 860 57 Q 918 123 932 375 Q 935 430 954 464 Q 967 482 960 490 Q 947 505 917 517 Q 895 527 874 516 Q 850 506 816 496 L 768 484 Q 735 478 714 477 Q 699 478 699 470 Q 698 463 716 453 Q 737 440 756 447 Q 759 448 764 449 L 811 460 Z" fill="black" /></g></svg>