<?xml version='1.0' encoding='utf-8'?>
<svg xmlns="http://www.w3.org/2000/svg" version="1.1" viewBox="0 0 1024 1024"><g transform="scale(1, -1) translate(0, -900)"><path d="M 766 483 Q 781 461 793 454 Q 802 447 816 465 Q 826 478 850 551 Q 859 579 881 601 Q 893 611 883 624 Q 870 640 832 665 Q 814 674 800 668 Q 772 664 734 658 L 688 653 Q 654 649 618 644 L 577 638 Q 526 634 484 629 C 454 626 489 591 518 598 Q 518 599 519 599 Q 546 605 581 609 L 618 615 Q 649 619 687 623 L 729 627 Q 741 630 755 630 Q 788 633 797 621 Q 804 612 803 603 Q 790 530 783 519 Q 779 509 766 507 C 753 500 753 500 766 483 Z" fill="black" /></g></svg>