<?xml version='1.0' encoding='utf-8'?>
<svg xmlns="http://www.w3.org/2000/svg" version="1.1" viewBox="0 0 1024 1024"><g transform="scale(1, -1) translate(0, -900)"><path d="M 572 97 Q 553 100 532 104 Q 516 108 517 100 Q 562 64 588 37 Q 598 22 611 18 Q 618 15 625 23 Q 658 68 656 106 Q 643 386 662 418 Q 672 433 662 441 Q 646 457 616 469 Q 603 475 589 469 Q 567 456 551 450 Q 530 443 483 436 Q 470 435 478 428 Q 484 419 496 415 Q 508 412 582 432 Q 597 436 601 429 Q 605 419 607 401 Q 611 233 603 131 Q 602 109 594 98 Q 590 94 572 97 Z" fill="black" /></g></svg>