<?xml version='1.0' encoding='utf-8'?>
<svg xmlns="http://www.w3.org/2000/svg" version="1.1" viewBox="0 0 1024 1024"><g transform="scale(1, -1) translate(0, -900)"><path d="M 354 269 Q 370 244 385 238 Q 395 232 406 250 Q 419 275 439 406 Q 446 431 464 453 Q 474 463 464 475 Q 451 488 414 508 Q 402 514 328 496 Q 325 496 323 494 L 306 489 Q 303 489 171 457 C 142 450 162 423 191 432 Q 221 442 265 452 L 291 458 Q 318 465 354 470 Q 376 474 385 467 Q 398 454 396 439 Q 378 310 366 291 C 356 266 352 272 354 269 Z" fill="black" /></g></svg>