<?xml version='1.0' encoding='utf-8'?>
<svg xmlns="http://www.w3.org/2000/svg" version="1.1" viewBox="0 0 1024 1024"><g transform="scale(1, -1) translate(0, -900)"><path d="M 354 287 Q 367 265 381 258 Q 390 252 402 269 Q 418 296 447 437 Q 454 462 473 483 Q 483 493 474 505 Q 461 518 426 540 Q 408 549 310 520 L 276 513 Q 260 510 243 506 Q 198 496 163 487 C 134 480 147 455 176 461 Q 180 461 188 463 Q 216 473 261 482 L 295 490 Q 382 512 397 501 Q 410 485 407 469 Q 379 325 365 311 C 353 288 353 288 354 287 Z" fill="black" /></g></svg>