<?xml version='1.0' encoding='utf-8'?>
<svg xmlns="http://www.w3.org/2000/svg" version="1.1" viewBox="0 0 1024 1024"><g transform="scale(1, -1) translate(0, -900)"><path d="M 390 573 Q 391 598 395 620 L 399 658 Q 400 679 404 699 L 408 745 Q 408 748 409 750 Q 412 771 415 786 Q 419 798 422 807 Q 425 816 409 828 Q 381 844 362 848 Q 349 851 342 844 Q 335 838 342 826 Q 358 804 357 788 Q 358 761 359 731 L 359 691 Q 359 669 358 646 L 357 612 Q 356 590 356 563 C 356 533 388 543 390 573 Z" fill="black" /></g></svg>