<?xml version='1.0' encoding='utf-8'?>
<svg xmlns="http://www.w3.org/2000/svg" version="1.1" viewBox="0 0 1024 1024"><g transform="scale(1, -1) translate(0, -900)"><path d="M 600 438 Q 666 505 702 548 L 737 590 Q 761 623 782 652 Q 813 698 831 720 Q 838 729 833 743 Q 821 770 807 782 Q 795 794 780 795 Q 765 796 769 777 Q 781 719 703 613 Q 690 597 676 576 L 643 537 Q 598 494 586 475 L 563 453 Q 502 395 432 338 Q 425 334 425 328 Q 424 324 429 323 Q 459 323 551 396 Q 551 399 565 407 L 600 438 Z" fill="black" /></g></svg>