<?xml version='1.0' encoding='utf-8'?>
<svg xmlns="http://www.w3.org/2000/svg" version="1.1" viewBox="0 0 1024 1024"><g transform="scale(1, -1) translate(0, -900)"><path d="M 835 267 Q 835 99 823 81 Q 820 80 762 87 Q 743 93 745 84 Q 788 42 815 12 Q 827 -4 840 -10 Q 849 -13 856 -4 Q 895 47 893 88 Q 871 397 893 435 Q 903 451 893 461 Q 874 477 841 491 Q 825 498 811 491 Q 786 475 768 468 Q 743 458 690 450 Q 677 449 685 441 Q 692 431 706 427 Q 715 426 788 444 Q 818 459 825 447 Q 834 422 835 283 L 835 267 Z" fill="black" /></g></svg>