<?xml version='1.0' encoding='utf-8'?>
<svg xmlns="http://www.w3.org/2000/svg" version="1.1" viewBox="0 0 1024 1024"><g transform="scale(1, -1) translate(0, -900)"><path d="M 517 203 Q 507 98 502 84 Q 493 54 523 10 Q 533 -6 539 -10 Q 549 -11 553 0 Q 563 27 561 53 Q 558 138 557 217 L 557 253 Q 557 284 558 314 L 558 347 Q 558 351 559 355 Q 559 404 561 439 L 563 466 Q 566 517 564 519 Q 552 529 543 534 C 518 551 502 559 511 530 Q 517 521 524 453 L 525 429 Q 525 389 524 338 L 523 309 Q 523 294 520 243 L 517 203 Z" fill="black" /></g></svg>