<?xml version='1.0' encoding='utf-8'?>
<svg xmlns="http://www.w3.org/2000/svg" version="1.1" viewBox="0 0 1024 1024"><g transform="scale(1, -1) translate(0, -900)"><path d="M 705 9 Q 730 -24 748 -54 Q 755 -69 765 -68 Q 778 -67 792 -40 Q 808 -7 805 32 Q 801 84 795 182 Q 794 207 808 226 Q 815 236 808 246 Q 792 262 749 282 Q 734 289 721 283 Q 679 265 562 241 C 533 235 540 210 570 214 Q 606 218 708 240 Q 727 244 737 236 Q 744 230 745 41 Q 744 38 744 35 Q 740 19 724 26 C 694 25 693 25 705 9 Z" fill="black" /></g></svg>