<?xml version='1.0' encoding='utf-8'?>
<svg xmlns="http://www.w3.org/2000/svg" version="1.1" viewBox="0 0 1024 1024"><g transform="scale(1, -1) translate(0, -900)"><path d="M 777 558 Q 789 539 800 530 Q 809 523 824 540 Q 837 556 872 654 Q 882 681 904 701 Q 917 711 908 723 Q 895 739 860 765 Q 847 774 772 759 Q 757 759 630 740 Q 566 728 515 724 Q 508 724 505 721 C 476 715 515 687 544 695 Q 547 698 610 709 L 631 712 Q 665 719 711 725 L 753 730 Q 766 733 783 734 Q 816 738 826 727 Q 835 714 831 703 Q 800 594 784 586 C 770 568 770 568 777 558 Z" fill="black" /></g></svg>