<?xml version='1.0' encoding='utf-8'?>
<svg xmlns="http://www.w3.org/2000/svg" version="1.1" viewBox="0 0 1024 1024"><g transform="scale(1, -1) translate(0, -900)"><path d="M 596 95 Q 609 70 624 62 Q 634 55 649 72 Q 662 90 696 190 Q 705 218 728 241 Q 741 251 731 266 Q 718 282 678 308 Q 660 317 591 300 Q 576 300 542 291 L 513 285 Q 486 281 458 275 Q 406 263 365 255 C 336 249 365 217 394 226 Q 431 238 486 248 L 518 255 Q 632 276 644 265 Q 653 252 650 241 Q 623 133 610 123 C 594 98 594 98 596 95 Z" fill="black" /></g></svg>