<?xml version='1.0' encoding='utf-8'?>
<svg xmlns="http://www.w3.org/2000/svg" version="1.1" viewBox="0 0 1024 1024"><g transform="scale(1, -1) translate(0, -900)"><path d="M 360 273 Q 373 255 385 250 Q 395 244 406 262 Q 419 287 439 414 Q 446 439 464 461 Q 474 471 464 483 Q 451 496 415 517 Q 405 521 335 506 Q 329 506 323 503 L 297 497 Q 272 494 178 471 C 149 464 163 435 192 444 Q 219 453 261 461 L 293 468 Q 372 486 385 475 Q 398 462 396 448 Q 378 316 363 300 C 353 281 353 281 360 273 Z" fill="black" /></g></svg>