<?xml version='1.0' encoding='utf-8'?>
<svg xmlns="http://www.w3.org/2000/svg" version="1.1" viewBox="0 0 1024 1024"><g transform="scale(1, -1) translate(0, -900)"><path d="M 339 301 Q 352 283 366 278 Q 375 272 386 291 Q 399 316 417 446 Q 423 473 441 494 Q 451 504 441 516 Q 428 529 391 549 Q 379 555 306 536 Q 303 536 304 535 L 276 528 Q 245 524 212 514 Q 178 505 150 499 C 121 492 134 463 163 472 Q 194 482 240 492 L 272 499 Q 350 517 361 507 Q 374 494 372 479 Q 357 343 343 328 C 333 308 333 308 339 301 Z" fill="black" /></g></svg>