<?xml version='1.0' encoding='utf-8'?>
<svg xmlns="http://www.w3.org/2000/svg" version="1.1" viewBox="0 0 1024 1024"><g transform="scale(1, -1) translate(0, -900)"><path d="M 621 111 Q 634 89 649 82 Q 658 75 673 93 Q 686 112 718 222 Q 728 252 750 274 Q 763 286 752 299 Q 739 315 699 341 Q 684 350 605 334 Q 569 328 566 327 L 533 321 Q 496 317 458 309 Q 404 299 359 292 C 329 287 346 251 375 259 Q 375 260 378 260 Q 423 272 487 282 L 522 288 Q 565 297 619 303 Q 653 307 664 296 Q 674 283 671 271 Q 649 166 639 151 Q 636 142 620 137 C 608 130 608 130 621 111 Z" fill="black" /></g></svg>