<?xml version='1.0' encoding='utf-8'?>
<svg xmlns="http://www.w3.org/2000/svg" version="1.1" viewBox="0 0 1024 1024"><g transform="scale(1, -1) translate(0, -900)"><path d="M 789 371 Q 790 367 794 362 Q 806 337 814 338 Q 827 339 840 368 Q 852 390 850 408 Q 831 535 856 577 Q 874 604 796 636 Q 792 637 790 638 Q 775 644 713 617 L 681 607 Q 636 597 629 593 L 596 588 Q 560 584 530 581 C 500 578 513 551 543 556 L 594 564 L 626 571 Q 651 580 682 584 L 710 591 Q 759 601 776 591 Q 779 584 788 509 L 788 505 Q 791 420 788 401 Q 784 391 786 380 L 789 371 Z" fill="black" /></g></svg>