<?xml version='1.0' encoding='utf-8'?>
<svg xmlns="http://www.w3.org/2000/svg" version="1.1" viewBox="0 0 1024 1024"><g transform="scale(1, -1) translate(0, -900)"><path d="M 678 49 Q 648 56 618 63 Q 606 66 607 58 Q 608 52 618 44 Q 682 -14 705 -50 Q 718 -66 734 -53 Q 768 -22 767 47 Q 758 123 758 251 Q 758 254 759 256 L 764 296 Q 765 306 769 313 Q 778 331 762 344 Q 750 354 738 360 C 712 375 667 379 685 355 Q 704 336 708 287 L 709 251 Q 713 139 710 77 Q 709 58 699 52 Q 692 45 678 49 Z" fill="black" /></g></svg>