<?xml version='1.0' encoding='utf-8'?>
<svg xmlns="http://www.w3.org/2000/svg" version="1.1" viewBox="0 0 1024 1024"><g transform="scale(1, -1) translate(0, -900)"><path d="M 694 308 Q 722 315 756 320 Q 778 326 791 313 Q 798 309 801 278 Q 811 175 808 57 Q 808 39 801 34 Q 791 27 738 40 Q 725 43 726 35 Q 726 29 737 24 Q 783 -13 809 -41 Q 825 -57 836 -54 Q 846 -53 855 -29 Q 867 8 866 61 Q 845 269 861 299 Q 871 318 861 327 Q 852 340 812 359 Q 796 366 780 362 Q 750 353 694 340 L 651 331 Q 599 324 546 315 C 516 310 539 275 568 281 Q 572 281 577 282 Q 611 292 650 299 L 694 308 Z" fill="black" /></g></svg>