<?xml version='1.0' encoding='utf-8'?>
<svg xmlns="http://www.w3.org/2000/svg" version="1.1" viewBox="0 0 1024 1024"><g transform="scale(1, -1) translate(0, -900)"><path d="M 352 303 Q 367 281 381 274 Q 390 268 402 286 Q 415 311 438 450 Q 445 475 463 497 Q 473 507 463 519 Q 450 532 414 552 Q 398 559 385 554 Q 361 545 327 537 Q 324 537 322 535 L 294 529 Q 263 523 230 513 Q 185 500 149 491 C 120 484 148 458 176 468 Q 207 480 255 491 L 282 498 Q 312 507 352 514 Q 377 520 385 512 Q 398 496 396 481 Q 378 349 363 327 C 352 303 352 303 352 303 Z" fill="black" /></g></svg>