<?xml version='1.0' encoding='utf-8'?>
<svg xmlns="http://www.w3.org/2000/svg" version="1.1" viewBox="0 0 1024 1024"><g transform="scale(1, -1) translate(0, -900)"><path d="M 648 -3 Q 652 -25 659 -34 Q 663 -40 671 -38 Q 689 -23 695 127 L 696 164 Q 696 191 694 214 L 693 251 Q 693 276 694 308 L 694 340 Q 694 365 694 393 L 694 429 Q 694 457 696 489 L 697 520 Q 698 548 701 566 Q 702 573 703 579 L 708 614 Q 709 627 699 633 Q 671 652 657 654 Q 647 658 632 651 Q 625 644 630 634 Q 634 624 641 615 Q 644 608 647 600 L 654 571 Q 654 565 655 557 Q 655 536 654 513 L 654 482 Q 653 454 653 420 L 652 388 Q 651 361 651 331 L 650 299 Q 649 271 648 239 L 647 207 Q 647 180 646 152 L 645 122 Q 644 34 648 -3 Z" fill="black" /></g></svg>