<?xml version='1.0' encoding='utf-8'?>
<svg xmlns="http://www.w3.org/2000/svg" version="1.1" viewBox="0 0 1024 1024"><g transform="scale(1, -1) translate(0, -900)"><path d="M 683 122 Q 717 168 747 234 Q 760 261 780 277 Q 799 290 788 304 Q 776 317 747 329 Q 725 338 698 326 Q 668 314 629 303 Q 589 291 523 284 Q 510 283 506 277 Q 502 270 519 263 Q 553 250 599 264 Q 668 286 681 286 Q 700 282 692 262 Q 674 198 644 151 L 619 119 Q 553 50 417 15 Q 404 12 414 3 Q 420 -1 462 1 Q 567 10 650 84 L 683 122 Z" fill="black" /></g></svg>