<?xml version='1.0' encoding='utf-8'?>
<svg xmlns="http://www.w3.org/2000/svg" version="1.1" viewBox="0 0 1024 1024"><g transform="scale(1, -1) translate(0, -900)"><path d="M 795 437 Q 801 477 808 501 L 826 545 Q 833 560 843 569 Q 856 585 844 600 Q 777 646 721 619 Q 714 618 708 614 L 647 600 Q 607 593 565 589 Q 552 588 552 580 Q 555 573 570 567 Q 592 557 622 566 Q 635 569 654 571 L 703 579 Q 719 583 738 585 Q 753 588 758 582 Q 768 575 768 554 Q 767 544 766 533 L 763 498 Q 759 470 754 442 C 749 412 790 407 795 437 Z" fill="black" /></g></svg>