<?xml version='1.0' encoding='utf-8'?>
<svg xmlns="http://www.w3.org/2000/svg" version="1.1" viewBox="0 0 1024 1024"><g transform="scale(1, -1) translate(0, -900)"><path d="M 353 625 Q 423 640 442 627 Q 454 603 447 514 Q 441 498 448 482 Q 455 463 462 463 Q 472 464 483 484 Q 493 500 494 514 Q 490 595 505 613 Q 514 626 507 634 Q 486 653 448 671 Q 435 675 355 649 L 322 640 Q 315 640 309 638 Q 248 629 198 630 C 168 630 187 599 217 602 Q 221 602 228 603 Q 280 613 322 619 L 353 625 Z" fill="black" /></g></svg>