<?xml version='1.0' encoding='utf-8'?>
<svg xmlns="http://www.w3.org/2000/svg" version="1.1" viewBox="0 0 1024 1024"><g transform="scale(1, -1) translate(0, -900)"><path d="M 772 378 Q 785 357 797 350 Q 806 343 820 360 Q 830 373 856 443 Q 865 470 886 491 Q 899 501 889 515 Q 876 531 839 555 Q 826 564 754 548 Q 748 548 606 524 Q 516 508 480 507 C 450 505 497 466 526 475 Q 526 476 528 476 Q 553 483 588 490 L 607 494 Q 643 503 688 509 L 728 514 Q 744 518 762 520 Q 795 524 806 513 Q 813 504 811 496 Q 790 412 778 405 C 766 387 766 387 772 378 Z" fill="black" /></g></svg>