<?xml version='1.0' encoding='utf-8'?>
<svg xmlns="http://www.w3.org/2000/svg" version="1.1" viewBox="0 0 1024 1024"><g transform="scale(1, -1) translate(0, -900)"><path d="M 582 101 Q 582 100 583 98 Q 587 85 599 85 Q 612 86 619 99 Q 629 112 651 177 Q 667 223 700 251 Q 718 266 703 280 Q 687 296 641 320 Q 629 329 555 312 Q 536 312 510 305 L 484 301 Q 441 295 404 286 Q 356 276 320 270 C 290 265 302 226 330 237 Q 354 249 446 263 L 485 270 Q 591 291 612 280 Q 621 274 615 248 Q 594 149 585 129 Q 584 129 584 128 C 577 109 577 109 582 101 Z" fill="black" /></g></svg>