<?xml version='1.0' encoding='utf-8'?>
<svg xmlns="http://www.w3.org/2000/svg" version="1.1" viewBox="0 0 1024 1024"><g transform="scale(1, -1) translate(0, -900)"><path d="M 351 308 Q 367 284 382 278 Q 391 272 402 290 Q 415 315 436 450 Q 442 475 460 498 Q 470 508 461 519 Q 448 532 411 553 Q 401 557 332 542 Q 329 542 317 538 L 289 532 Q 262 528 237 521 Q 204 514 177 507 C 148 500 162 471 191 480 Q 219 490 261 497 L 295 504 Q 320 511 350 515 Q 372 519 381 511 Q 394 498 392 482 Q 376 356 363 331 C 353 305 349 311 351 308 Z" fill="black" /></g></svg>