<?xml version='1.0' encoding='utf-8'?>
<svg xmlns="http://www.w3.org/2000/svg" version="1.1" viewBox="0 0 1024 1024"><g transform="scale(1, -1) translate(0, -900)"><path d="M 447 513 Q 454 546 463 591 L 473 626 Q 483 653 505 670 Q 518 682 507 693 Q 494 705 457 724 Q 448 730 339 701 Q 321 698 310 693 C 282 683 291 664 320 669 Q 324 669 328 670 Q 329 671 332 671 L 350 677 Q 413 701 434 694 Q 446 687 439 649 Q 436 636 433 622 L 426 588 Q 416 539 408 510 L 396 472 Q 393 462 397 452 Q 401 440 411 441 Q 421 442 434 470 L 447 513 Z" fill="black" /></g></svg>