<?xml version='1.0' encoding='utf-8'?>
<svg xmlns="http://www.w3.org/2000/svg" version="1.1" viewBox="0 0 1024 1024"><g transform="scale(1, -1) translate(0, -900)"><path d="M 580 265 Q 592 277 629 278 C 659 280 659 310 629 305 Q 604 301 585 294 L 546 282 Q 524 278 505 268 Q 498 267 501 275 Q 516 342 511 353 Q 502 366 487 377 Q 480 381 473 381 Q 466 378 470 365 Q 480 331 472 299 Q 465 268 451 256 Q 438 244 444 235 Q 451 225 463 217 Q 472 213 479 218 Q 491 233 541 250 L 580 265 Z" fill="black" /></g></svg>