<?xml version='1.0' encoding='utf-8'?>
<svg xmlns="http://www.w3.org/2000/svg" version="1.1" viewBox="0 0 1024 1024"><g transform="scale(1, -1) translate(0, -900)"><path d="M 301 292 Q 314 276 325 270 Q 334 264 346 282 Q 359 306 382 434 Q 389 459 407 481 Q 417 491 408 502 Q 395 515 359 536 Q 346 542 285 527 Q 284 527 268 522 L 245 517 Q 236 517 132 491 C 103 484 114 449 142 461 Q 142 462 144 463 Q 172 473 215 482 L 242 487 Q 267 494 299 499 Q 321 503 329 496 Q 341 483 339 468 Q 321 350 312 331 Q 309 322 296 317 C 285 310 285 310 301 292 Z" fill="black" /></g></svg>