<?xml version='1.0' encoding='utf-8'?>
<svg xmlns="http://www.w3.org/2000/svg" version="1.1" viewBox="0 0 1024 1024"><g transform="scale(1, -1) translate(0, -900)"><path d="M 785 177 Q 809 184 901 179 Q 920 178 926 188 Q 932 195 915 206 Q 867 242 805 219 Q 802 219 785 215 L 737 206 Q 701 200 671 191 Q 652 184 657 202 Q 672 241 682 255 Q 691 262 687 271 Q 683 280 655 296 Q 642 305 633 301 Q 623 294 630 283 Q 637 261 624 216 Q 620 200 599 182 Q 590 175 591 163 Q 592 153 606 142 Q 616 135 628 143 Q 665 164 737 172 L 785 177 Z" fill="black" /></g></svg>