<?xml version='1.0' encoding='utf-8'?>
<svg xmlns="http://www.w3.org/2000/svg" version="1.1" viewBox="0 0 1024 1024"><g transform="scale(1, -1) translate(0, -900)"><path d="M 547 410 Q 547 440 547 468 L 547 493 Q 547 497 547 502 Q 546 527 546 549 L 548 572 Q 548 605 560 633 C 574 671 565 659 539 674 Q 529 681 514 687 Q 495 693 487 684 Q 481 678 489 667 Q 504 637 505 454 Q 505 364 492 309 Q 486 287 502 272 Q 523 257 545 270 C 550 272 549 310 548 340 Q 547 364 547 387 L 547 410 Z" fill="black" /></g></svg>