<?xml version='1.0' encoding='utf-8'?>
<svg xmlns="http://www.w3.org/2000/svg" version="1.1" viewBox="0 0 1024 1024"><g transform="scale(1, -1) translate(0, -900)"><path d="M 770 488 Q 786 461 801 454 Q 810 447 824 466 Q 837 488 865 608 Q 872 636 893 658 Q 905 670 894 682 Q 881 697 842 720 Q 824 729 810 722 Q 780 715 744 708 L 698 699 Q 664 695 625 685 L 585 678 Q 543 671 509 663 C 480 656 495 622 523 632 Q 523 633 524 633 Q 552 642 588 649 L 625 656 Q 656 663 697 670 L 741 678 Q 751 681 765 682 Q 799 686 810 676 Q 822 663 819 649 Q 798 526 784 512 C 771 487 769 489 770 488 Z" fill="black" /></g></svg>