<?xml version='1.0' encoding='utf-8'?>
<svg xmlns="http://www.w3.org/2000/svg" version="1.1" viewBox="0 0 1024 1024"><g transform="scale(1, -1) translate(0, -900)"><path d="M 401 739 Q 388 738 379 734 C 350 726 361 699 391 703 Q 398 703 407 705 Q 459 726 583 749 Q 605 753 613 749 Q 620 745 614 722 Q 592 641 584 623 C 576 603 576 603 578 598 Q 579 595 580 591 Q 584 576 595 576 Q 608 577 616 590 Q 625 599 645 645 Q 661 691 695 716 Q 713 729 699 745 Q 683 761 639 786 Q 624 795 565 778 Q 550 778 447 751 Q 443 750 441 749 L 401 739 Z" fill="black" /></g></svg>