<?xml version='1.0' encoding='utf-8'?>
<svg xmlns="http://www.w3.org/2000/svg" version="1.1" viewBox="0 0 1024 1024"><g transform="scale(1, -1) translate(0, -900)"><path d="M 379 734 Q 367 743 356 746 Q 334 750 327 746 Q 320 742 327 729 Q 351 696 331 469 Q 328 454 304 421 Q 295 408 304 397 Q 314 387 335 374 Q 345 367 360 380 C 370 387 370 416 370 446 Q 370 467 370 485 L 370 501 Q 370 529 372 554 L 374 584 Q 375 611 379 633 L 382 657 Q 386 684 391 703 C 396 723 396 723 379 734 Z" fill="black" /></g></svg>