<?xml version='1.0' encoding='utf-8'?>
<svg xmlns="http://www.w3.org/2000/svg" version="1.1" viewBox="0 0 1024 1024"><g transform="scale(1, -1) translate(0, -900)"><path d="M 361 402 Q 361 427 362 459 L 362 483 Q 362 493 363 502 Q 364 536 366 560 L 368 587 Q 371 627 380 643 C 388 663 388 663 362 676 Q 311 701 308 702 Q 296 701 293 692 Q 292 682 300 675 Q 319 645 323 543 Q 327 336 306 295 Q 303 288 306 282 Q 307 272 321 262 Q 336 249 343 248 C 365 236 363 340 362 370 Q 362 373 362 375 L 361 402 Z" fill="black" /></g></svg>