<?xml version='1.0' encoding='utf-8'?>
<svg xmlns="http://www.w3.org/2000/svg" version="1.1" viewBox="0 0 1024 1024"><g transform="scale(1, -1) translate(0, -900)"><path d="M 216 515 Q 192 401 163 320 Q 124 239 82 173 Q 78 167 76 161 Q 73 151 83 153 Q 108 157 181 265 Q 194 290 208 318 Q 245 402 271 538 L 276 580 Q 277 598 280 615 Q 286 684 293 708 Q 300 721 294 734 Q 278 750 248 763 Q 230 773 218 768 Q 206 761 213 748 Q 228 730 229 662 Q 228 653 228 642 Q 227 599 221 558 L 216 515 Z" fill="black" /></g></svg>