<?xml version='1.0' encoding='utf-8'?>
<svg xmlns="http://www.w3.org/2000/svg" version="1.1" viewBox="0 0 1024 1024"><g transform="scale(1, -1) translate(0, -900)"><path d="M 360 380 Q 457 438 705 475 Q 756 484 753 441 Q 741 342 723 328 Q 714 325 664 347 Q 651 357 647 350 Q 644 341 659 324 Q 683 282 689 250 Q 698 231 714 239 Q 757 260 787 345 Q 817 445 831 456 Q 846 472 839 481 Q 827 493 782 514 Q 755 527 681 505 Q 525 477 393 437 Q 368 430 370 446 C 345 462 334 366 360 380 Z" fill="black" /></g></svg>