<?xml version='1.0' encoding='utf-8'?>
<svg xmlns="http://www.w3.org/2000/svg" version="1.1" viewBox="0 0 1024 1024"><g transform="scale(1, -1) translate(0, -900)"><path d="M 343 248 Q 460 300 684 325 Q 765 335 791 322 Q 804 312 803 291 Q 804 278 787 159 Q 772 87 756 61 Q 747 36 721 37 Q 690 47 659 55 Q 640 62 636 57 Q 633 51 649 38 Q 718 -41 723 -66 Q 727 -76 738 -78 Q 757 -81 793 -45 Q 827 -9 837 35 Q 882 290 903 306 Q 913 313 912 322 Q 913 331 875 358 Q 827 388 800 379 Q 794 379 789 376 Q 768 372 741 370 Q 588 363 415 316 Q 363 295 362 370 C 358 400 315 237 343 248 Z" fill="black" /></g></svg>