<?xml version='1.0' encoding='utf-8'?>
<svg xmlns="http://www.w3.org/2000/svg" version="1.1" viewBox="0 0 1024 1024"><g transform="scale(1, -1) translate(0, -900)"><path d="M 594 504 Q 598 497 608 496 Q 629 499 669 569 Q 690 623 731 652 Q 753 668 736 686 Q 718 705 667 737 Q 651 749 576 729 Q 539 729 421 690 Q 418 690 416 688 L 386 681 Q 371 680 362 676 C 333 669 351 637 380 643 Q 387 643 393 645 Q 454 670 596 700 Q 621 704 631 700 Q 638 694 632 669 Q 605 572 595 553 Q 592 549 590 542 C 577 515 577 513 594 504 Z" fill="black" /></g></svg>