<?xml version='1.0' encoding='utf-8'?>
<svg xmlns="http://www.w3.org/2000/svg" version="1.1" viewBox="0 0 1024 1024"><g transform="scale(1, -1) translate(0, -900)"><path d="M 758 377 Q 784 347 798 351 Q 803 353 811 365 Q 823 390 843 527 Q 847 545 857 561 L 874 586 Q 881 596 871 606 Q 855 622 815 643 Q 802 649 737 634 Q 730 634 523 593 C 494 587 507 560 537 563 Q 543 563 553 564 Q 627 584 743 602 Q 759 604 770 600 Q 796 592 792 566 Q 776 418 760 406 C 749 386 749 386 758 377 Z" fill="black" /></g></svg>