<?xml version='1.0' encoding='utf-8'?>
<svg xmlns="http://www.w3.org/2000/svg" version="1.1" viewBox="0 0 1024 1024"><g transform="scale(1, -1) translate(0, -900)"><path d="M 271 538 Q 284 545 301 551 Q 325 563 334 556 Q 343 550 332 452 Q 328 346 294 251 Q 281 221 321 176 Q 331 166 340 172 Q 347 179 357 201 Q 391 261 468 367 Q 478 380 474 386 Q 471 393 462 383 Q 419 343 378 298 Q 357 277 358 306 Q 359 367 387 517 Q 391 539 413 560 Q 425 570 416 582 Q 406 597 370 614 Q 360 620 343 610 Q 307 594 276 580 L 221 558 Q 140 530 99 526 Q 86 527 83 519 Q 79 512 89 504 Q 128 482 152 491 Q 183 503 216 515 L 271 538 Z" fill="black" /></g></svg>