<?xml version='1.0' encoding='utf-8'?>
<svg xmlns="http://www.w3.org/2000/svg" version="1.1" viewBox="0 0 1024 1024"><g transform="scale(1, -1) translate(0, -900)"><path d="M 545 270 Q 584 298 711 313 Q 838 332 858 316 Q 871 306 860 261 Q 841 102 810 59 Q 803 47 782 46 Q 749 56 720 65 Q 707 69 707 63 Q 707 59 714 51 Q 766 2 785 -32 Q 792 -51 809 -42 Q 867 -15 882 51 Q 901 138 915 234 Q 922 271 941 304 Q 954 320 942 333 Q 924 352 886 374 Q 865 387 836 374 Q 793 356 752 352 Q 695 346 579 325 Q 552 316 548 340 C 527 361 519 256 545 270 Z" fill="black" /></g></svg>