<?xml version='1.0' encoding='utf-8'?>
<svg xmlns="http://www.w3.org/2000/svg" version="1.1" viewBox="0 0 1024 1024"><g transform="scale(1, -1) translate(0, -900)"><path d="M 284 706 Q 297 707 316 714 Q 470 754 674 780 Q 686 781 693 774 Q 703 764 697 739 Q 643 253 782 71 Q 860 -34 959 -43 Q 984 -44 988 -35 Q 995 -22 986 5 Q 970 77 961 150 Q 958 178 956 185 Q 955 200 947 191 Q 943 187 940 172 Q 913 64 899 62 Q 880 62 839 98 Q 746 188 734 387 Q 724 481 749 620 Q 767 740 803 761 Q 822 771 799 795 Q 771 817 731 839 Q 712 852 695 837 Q 682 833 482 788 Q 421 778 351 762 Q 285 752 255 751 C 225 748 255 699 284 706 Z" fill="black" /></g></svg>