<?xml version='1.0' encoding='utf-8'?>
<svg xmlns="http://www.w3.org/2000/svg" version="1.1" viewBox="0 0 1024 1024"><g transform="scale(1, -1) translate(0, -900)"><path d="M 361 545 Q 349 552 335 558 Q 319 564 311 556 Q 307 552 313 541 Q 332 496 321 301 Q 318 270 311 240 Q 307 221 320 207 Q 338 192 358 205 C 362 207 362 238 362 268 Q 362 284 362 298 L 362 314 Q 362 341 363 367 L 363 392 Q 363 396 364 401 Q 363 420 364 437 L 366 461 Q 366 494 378 515 C 386 531 386 531 361 545 Z" fill="black" /></g></svg>