<?xml version='1.0' encoding='utf-8'?>
<svg xmlns="http://www.w3.org/2000/svg" version="1.1" viewBox="0 0 1024 1024"><g transform="scale(1, -1) translate(0, -900)"><path d="M 380 549 Q 370 548 361 545 C 332 538 349 508 378 515 Q 384 516 388 517 Q 430 533 525 553 Q 543 556 549 553 Q 556 549 550 525 Q 523 426 517 418 C 510 403 510 403 515 393 L 516 391 Q 520 376 531 377 Q 544 378 552 390 Q 561 400 582 449 Q 598 494 632 519 Q 648 532 635 547 Q 620 563 577 588 Q 565 597 508 582 Q 424 566 406 556 L 380 549 Z" fill="black" /></g></svg>