<?xml version='1.0' encoding='utf-8'?>
<svg xmlns="http://www.w3.org/2000/svg" version="1.1" viewBox="0 0 1024 1024"><g transform="scale(1, -1) translate(0, -900)"><path d="M 324 158 Q 385 200 602 221 Q 702 234 720 218 Q 733 208 722 161 Q 706 70 687 45 Q 678 32 653 32 Q 628 36 606 41 Q 590 45 591 39 Q 590 33 599 25 Q 642 -23 656 -54 Q 663 -76 683 -66 Q 740 -39 752 7 Q 768 64 781 129 Q 790 169 810 204 Q 823 222 811 235 Q 792 257 752 281 Q 730 294 698 281 Q 641 259 589 253 Q 514 246 364 220 Q 327 201 326 260 C 322 290 310 150 324 158 Z" fill="black" /></g></svg>