<?xml version='1.0' encoding='utf-8'?>
<svg xmlns="http://www.w3.org/2000/svg" version="1.1" viewBox="0 0 1024 1024"><g transform="scale(1, -1) translate(0, -900)"><path d="M 501 359 Q 502 358 503 354 Q 507 341 519 341 Q 532 342 539 355 Q 548 365 567 417 Q 582 463 614 491 Q 630 506 616 520 Q 600 535 555 558 Q 543 565 480 548 Q 381 527 364 517 L 339 510 Q 326 509 316 505 C 287 497 308 462 336 473 Q 387 494 501 519 Q 520 523 529 519 Q 536 515 532 491 Q 514 410 506 388 C 498 364 498 364 501 359 Z" fill="black" /></g></svg>