<?xml version='1.0' encoding='utf-8'?>
<svg xmlns="http://www.w3.org/2000/svg" version="1.1" viewBox="0 0 1024 1024"><g transform="scale(1, -1) translate(0, -900)"><path d="M 466 693 Q 619 518 801 481 Q 864 474 896 484 Q 917 497 899 524 Q 880 548 828 675 Q 824 685 818 684 Q 814 683 816 672 Q 816 638 818 606 Q 819 563 806 558 Q 788 551 740 566 Q 691 579 636 614 Q 570 653 515 709 L 482 747 Q 445 795 438 843 Q 435 864 388 869 Q 342 873 333 864 Q 323 854 335 840 Q 369 824 396 783 Q 415 755 436 729 L 466 693 Z" fill="black" /></g></svg>