<?xml version='1.0' encoding='utf-8'?>
<svg xmlns="http://www.w3.org/2000/svg" version="1.1" viewBox="0 0 1024 1024"><g transform="scale(1, -1) translate(0, -900)"><path d="M 575 276 Q 620 309 734 329 Q 852 359 877 341 Q 890 331 883 288 Q 862 104 835 63 Q 829 59 774 73 Q 747 79 746 75 Q 746 69 754 60 Q 793 6 803 -27 Q 812 -49 831 -40 Q 898 -10 910 63 Q 926 157 939 262 Q 943 301 961 333 Q 973 349 961 362 Q 942 381 903 401 Q 881 411 853 397 Q 813 378 773 371 Q 718 361 605 333 Q 581 324 578 346 C 556 366 549 261 575 276 Z" fill="black" /></g></svg>