<?xml version='1.0' encoding='utf-8'?>
<svg xmlns="http://www.w3.org/2000/svg" version="1.1" viewBox="0 0 1024 1024"><g transform="scale(1, -1) translate(0, -900)"><path d="M 252 625 Q 255 543 293 512 Q 338 478 429 489 Q 433 490 439 492 Q 463 499 472 512 Q 482 521 469 538 Q 456 569 449 609 Q 448 618 442 624 Q 435 628 431 610 Q 413 556 405 548 Q 402 542 390 540 Q 372 536 341 540 Q 322 541 314 548 Q 301 554 296 575 Q 290 591 293 636 L 296 675 Q 296 747 314 775 Q 320 791 305 802 Q 283 821 253 828 Q 238 829 232 823 Q 225 816 231 809 Q 252 791 252 729 Q 252 696 251 661 L 252 625 Z" fill="black" /></g></svg>