<?xml version='1.0' encoding='utf-8'?>
<svg xmlns="http://www.w3.org/2000/svg" version="1.1" viewBox="0 0 1024 1024"><g transform="scale(1, -1) translate(0, -900)"><path d="M 568 248 Q 607 278 727 299 Q 848 326 869 310 Q 882 299 872 254 Q 857 80 826 33 Q 819 29 776 39 Q 735 49 733 43 Q 733 36 749 14 Q 782 -31 793 -63 Q 802 -84 821 -74 Q 891 -41 902 29 Q 906 52 909 73 L 931 223 Q 939 269 955 299 Q 966 318 955 329 Q 935 349 896 370 Q 892 372 887 374 Q 870 378 841 366 Q 794 347 764 341 Q 717 333 600 306 Q 573 299 570 321 C 548 342 542 233 568 248 Z" fill="black" /></g></svg>