<?xml version='1.0' encoding='utf-8'?>
<svg xmlns="http://www.w3.org/2000/svg" version="1.1" viewBox="0 0 1024 1024"><g transform="scale(1, -1) translate(0, -900)"><path d="M 298 573 Q 377 598 394 595 Q 412 592 410 582 Q 410 576 380 510 Q 374 498 379 496 Q 386 495 398 504 Q 440 541 477 557 Q 508 570 506 578 Q 503 585 447 624 Q 425 640 340 614 Q 337 614 300 605 L 248 591 Q 235 590 220 585 Q 193 578 166 572 Q 165 572 165 571 C 136 563 136 561 164 550 Q 188 538 210 545 Q 226 552 246 559 L 298 573 Z" fill="black" /></g></svg>