<?xml version='1.0' encoding='utf-8'?>
<svg xmlns="http://www.w3.org/2000/svg" version="1.1" viewBox="0 0 1024 1024"><g transform="scale(1, -1) translate(0, -900)"><path d="M 29 108 Q 29 107 31 106 Q 47 96 97 111 Q 120 116 132 122 Q 163 132 191 162 Q 208 177 214 192 L 227 239 Q 247 308 247 348 L 253 389 L 265 564 L 269 600 Q 272 689 300 760 Q 306 774 296 786 Q 285 796 261 808 Q 211 832 194 821 Q 190 818 189 815 Q 186 809 195 795 Q 216 755 218 708 Q 220 647 218 586 L 218 553 Q 213 467 204 382 L 199 343 Q 191 273 180 242 Q 163 194 116 158 Q 94 143 53 124 Q 29 114 29 108 Z" fill="black" /></g></svg>