<?xml version='1.0' encoding='utf-8'?>
<svg xmlns="http://www.w3.org/2000/svg" version="1.1" viewBox="0 0 1024 1024"><g transform="scale(1, -1) translate(0, -900)"><path d="M 366 455 Q 396 459 437 460 Q 458 460 464 472 Q 470 481 450 490 Q 402 523 370 510 L 319 494 Q 255 478 194 457 Q 170 447 175 470 Q 188 539 200 565 Q 209 575 204 584 Q 197 594 165 607 Q 149 614 139 609 Q 129 600 139 588 Q 155 555 137 480 Q 134 461 113 439 Q 106 429 107 417 Q 110 407 126 395 Q 139 388 150 400 Q 207 433 291 443 L 366 455 Z" fill="black" /></g></svg>