<?xml version='1.0' encoding='utf-8'?>
<svg xmlns="http://www.w3.org/2000/svg" version="1.1" viewBox="0 0 1024 1024"><g transform="scale(1, -1) translate(0, -900)"><path d="M 568 269 Q 607 297 732 312 Q 852 334 877 314 Q 889 302 876 259 Q 872 198 864 133 Q 860 84 838 50 Q 831 46 775 60 Q 744 70 742 63 Q 742 57 750 48 Q 795 -6 808 -41 Q 817 -63 836 -53 Q 863 -40 883 -22 Q 905 9 911 48 Q 924 136 933 235 Q 940 272 956 303 Q 969 319 957 332 Q 939 351 902 371 Q 880 381 853 369 Q 810 351 770 347 Q 713 341 598 320 Q 573 314 572 336 C 552 358 542 255 568 269 Z" fill="black" /></g></svg>