<?xml version='1.0' encoding='utf-8'?>
<svg xmlns="http://www.w3.org/2000/svg" version="1.1" viewBox="0 0 1024 1024"><g transform="scale(1, -1) translate(0, -900)"><path d="M 719 472 Q 723 462 735 461 Q 748 462 755 475 Q 767 491 788 565 Q 803 611 835 638 Q 851 651 837 666 Q 821 681 777 704 Q 759 716 710 697 Q 689 697 615 672 L 591 666 Q 578 663 568 659 C 540 649 556 620 584 630 Q 627 646 725 668 Q 743 671 749 668 Q 758 662 753 634 Q 735 550 718 497 C 712 479 712 479 719 472 Z" fill="black" /></g></svg>