<?xml version='1.0' encoding='utf-8'?>
<svg xmlns="http://www.w3.org/2000/svg" version="1.1" viewBox="0 0 1024 1024"><g transform="scale(1, -1) translate(0, -900)"><path d="M 604 622 Q 760 670 780 654 Q 790 644 787 628 Q 759 526 749 511 Q 746 502 729 498 C 717 493 717 493 730 473 Q 743 451 756 442 Q 766 435 781 452 Q 794 471 831 578 Q 841 606 863 628 Q 876 638 866 652 Q 853 668 814 694 Q 796 704 782 699 Q 763 692 731 686 Q 694 677 645 666 Q 614 659 586 652 C 557 645 556 618 586 620 Q 593 619 604 622 Z" fill="black" /></g></svg>