<?xml version='1.0' encoding='utf-8'?>
<svg xmlns="http://www.w3.org/2000/svg" version="1.1" viewBox="0 0 1024 1024"><g transform="scale(1, -1) translate(0, -900)"><path d="M 571 253 Q 637 292 824 300 Q 854 301 867 290 Q 877 278 864 237 Q 857 176 845 112 Q 836 63 814 31 Q 801 16 741 26 Q 723 29 723 23 Q 723 17 732 10 Q 772 -35 786 -64 Q 795 -85 812 -74 Q 860 -47 879 0 Q 892 39 920 210 Q 927 246 946 277 Q 959 293 947 305 Q 931 324 894 346 Q 873 358 846 346 Q 806 330 766 326 Q 712 322 602 303 Q 577 294 573 317 C 552 338 544 240 571 253 Z" fill="black" /></g></svg>