<?xml version='1.0' encoding='utf-8'?>
<svg xmlns="http://www.w3.org/2000/svg" version="1.1" viewBox="0 0 1024 1024"><g transform="scale(1, -1) translate(0, -900)"><path d="M 608 806 L 606 808 Q 596 818 576 826 Q 566 829 559 825 Q 553 821 558 807 Q 568 776 567 745 Q 561 621 595 591 Q 659 543 802 569 Q 812 572 824 575 Q 858 585 892 609 Q 908 622 896 644 Q 886 660 868 717 Q 867 730 861 734 Q 855 735 852 721 Q 831 660 817 641 Q 807 628 774 619 Q 702 598 640 619 Q 616 629 610 643 Q 594 679 611 779 C 614 801 614 801 608 806 Z" fill="black" /></g></svg>