<?xml version='1.0' encoding='utf-8'?>
<svg xmlns="http://www.w3.org/2000/svg" version="1.1" viewBox="0 0 1024 1024"><g transform="scale(1, -1) translate(0, -900)"><path d="M 570 663 Q 558 673 541 680 Q 522 687 513 679 Q 506 673 515 661 Q 531 625 526 553 Q 523 495 519 423 Q 516 353 499 295 Q 493 273 509 258 Q 530 240 553 256 C 560 259 560 295 560 325 Q 560 341 560 358 L 561 383 Q 561 417 564 452 L 566 482 Q 566 486 567 489 Q 567 511 569 532 L 572 557 Q 575 596 586 620 C 602 662 594 646 570 663 Z" fill="black" /></g></svg>