<?xml version='1.0' encoding='utf-8'?>
<svg xmlns="http://www.w3.org/2000/svg" version="1.1" viewBox="0 0 1024 1024"><g transform="scale(1, -1) translate(0, -900)"><path d="M 223 415 Q 223 449 223 482 L 223 510 Q 223 514 224 518 Q 223 548 224 573 L 226 596 Q 227 636 238 663 C 246 686 246 686 230 698 Q 215 711 194 719 Q 175 725 167 716 Q 161 712 169 699 Q 188 662 185 584 Q 185 523 184 444 Q 184 368 168 305 Q 164 284 178 270 Q 193 258 221 271 C 227 273 226 306 225 336 Q 224 364 223 391 L 223 415 Z" fill="black" /></g></svg>