<?xml version='1.0' encoding='utf-8'?>
<svg xmlns="http://www.w3.org/2000/svg" version="1.1" viewBox="0 0 1024 1024"><g transform="scale(1, -1) translate(0, -900)"><path d="M 608 270 Q 611 325 623 388 Q 627 406 615 416 Q 602 429 578 439 Q 565 443 556 438 Q 549 434 554 416 Q 567 376 565 337 Q 555 165 570 117 Q 574 92 598 72 Q 671 8 842 35 Q 854 38 867 41 Q 907 53 946 81 Q 967 97 952 125 Q 939 147 917 217 Q 916 233 909 238 Q 902 241 898 223 Q 871 147 854 123 Q 842 107 807 98 Q 723 79 654 107 Q 627 120 620 137 Q 601 174 606 252 L 608 270 Z" fill="black" /></g></svg>