<?xml version='1.0' encoding='utf-8'?>
<svg xmlns="http://www.w3.org/2000/svg" version="1.1" viewBox="0 0 1024 1024"><g transform="scale(1, -1) translate(0, -900)"><path d="M 221 271 Q 257 299 383 317 Q 414 327 437 309 Q 447 300 427 148 Q 423 106 405 78 Q 398 69 379 73 Q 351 82 326 89 Q 311 93 311 87 Q 310 81 318 73 Q 364 21 379 -13 Q 388 -34 406 -24 Q 455 3 472 50 Q 484 128 494 231 Q 500 268 516 300 Q 529 316 517 328 Q 498 347 461 366 Q 440 378 413 364 Q 410 364 250 320 Q 225 316 225 336 C 206 360 195 256 221 271 Z" fill="black" /></g></svg>