<?xml version='1.0' encoding='utf-8'?>
<svg xmlns="http://www.w3.org/2000/svg" version="1.1" viewBox="0 0 1024 1024"><g transform="scale(1, -1) translate(0, -900)"><path d="M 611 779 Q 620 788 719 812 Q 729 813 731 810 Q 735 804 734 787 Q 733 741 723 719 Q 708 695 688 700 Q 669 707 652 715 Q 633 724 645 703 Q 676 666 690 636 Q 700 623 711 632 Q 753 654 781 767 Q 788 795 800 808 Q 809 818 804 825 Q 797 832 760 849 Q 745 856 731 845 Q 700 827 608 806 C 579 799 584 765 611 779 Z" fill="black" /></g></svg>