<?xml version='1.0' encoding='utf-8'?>
<svg xmlns="http://www.w3.org/2000/svg" version="1.1" viewBox="0 0 1024 1024"><g transform="scale(1, -1) translate(0, -900)"><path d="M 571 377 Q 572 374 573 370 Q 577 357 587 356 Q 605 359 634 419 Q 649 462 680 487 Q 696 500 683 514 Q 668 529 627 552 Q 612 561 557 544 Q 524 544 434 514 Q 428 513 424 510 L 398 504 Q 391 503 385 501 C 356 494 376 457 402 472 Q 415 487 574 517 Q 595 521 602 517 Q 609 513 604 492 Q 585 414 576 399 Q 575 399 575 398 C 568 385 568 385 571 377 Z" fill="black" /></g></svg>