<?xml version='1.0' encoding='utf-8'?>
<svg xmlns="http://www.w3.org/2000/svg" version="1.1" viewBox="0 0 1024 1024"><g transform="scale(1, -1) translate(0, -900)"><path d="M 553 256 Q 598 286 731 307 Q 858 331 881 313 Q 893 303 882 263 Q 854 95 820 52 Q 810 40 787 45 Q 760 52 738 57 Q 722 61 723 55 Q 722 49 731 41 Q 774 -8 787 -41 Q 794 -62 813 -53 Q 879 -22 893 44 Q 917 134 936 233 Q 943 270 961 300 Q 974 316 963 328 Q 947 349 910 369 Q 889 382 861 369 Q 815 350 771 344 Q 710 337 584 310 Q 560 306 560 325 C 537 345 527 242 553 256 Z" fill="black" /></g></svg>