<?xml version='1.0' encoding='utf-8'?>
<svg xmlns="http://www.w3.org/2000/svg" version="1.1" viewBox="0 0 1024 1024"><g transform="scale(1, -1) translate(0, -900)"><path d="M 389 298 Q 389 325 389 350 L 389 373 Q 389 392 390 409 L 393 430 Q 394 449 401 465 Q 402 469 402 472 C 406 489 406 489 385 501 Q 373 508 359 514 Q 343 520 335 511 Q 331 507 337 496 Q 349 472 350 312 Q 350 249 339 200 Q 335 179 349 165 Q 368 149 387 161 C 392 163 391 199 390 229 Q 389 253 389 276 L 389 298 Z" fill="black" /></g></svg>