<?xml version='1.0' encoding='utf-8'?>
<svg xmlns="http://www.w3.org/2000/svg" version="1.1" viewBox="0 0 1024 1024"><g transform="scale(1, -1) translate(0, -900)"><path d="M 547 277 Q 589 304 716 319 Q 842 337 861 315 Q 871 303 856 264 Q 846 200 831 134 Q 821 82 795 50 Q 788 40 767 44 Q 742 53 718 60 Q 703 66 702 59 Q 702 53 710 45 Q 750 -9 762 -42 Q 769 -64 788 -55 Q 854 -28 871 41 Q 893 132 913 233 Q 922 270 941 300 Q 954 316 943 329 Q 927 350 891 372 Q 870 385 842 374 Q 797 356 756 353 Q 698 347 578 327 Q 554 320 552 342 C 530 363 520 264 547 277 Z" fill="black" /></g></svg>