<?xml version='1.0' encoding='utf-8'?>
<svg xmlns="http://www.w3.org/2000/svg" version="1.1" viewBox="0 0 1024 1024"><g transform="scale(1, -1) translate(0, -900)"><path d="M 553 697 Q 540 709 522 715 Q 504 722 495 713 Q 489 709 497 696 Q 513 662 510 590 Q 509 533 505 461 Q 504 391 488 333 Q 484 312 498 298 Q 519 283 541 296 C 545 298 545 334 545 364 Q 545 386 545 409 L 545 430 Q 545 464 547 497 L 548 525 Q 548 526 549 527 Q 549 560 551 586 L 553 606 Q 556 636 568 668 C 573 682 573 682 553 697 Z" fill="black" /></g></svg>