<?xml version='1.0' encoding='utf-8'?>
<svg xmlns="http://www.w3.org/2000/svg" version="1.1" viewBox="0 0 1024 1024"><g transform="scale(1, -1) translate(0, -900)"><path d="M 702 498 Q 718 474 733 466 Q 743 459 757 478 Q 770 500 801 619 Q 808 647 829 669 Q 841 681 831 693 Q 818 709 778 732 Q 763 739 705 722 Q 701 722 614 697 Q 605 696 600 692 C 547 673 527 633 570 650 Q 570 651 574 652 Q 626 671 718 693 Q 737 697 745 692 Q 758 682 754 664 Q 729 538 712 524 C 698 503 698 503 702 498 Z" fill="black" /></g></svg>