<?xml version='1.0' encoding='utf-8'?>
<svg xmlns="http://www.w3.org/2000/svg" version="1.1" viewBox="0 0 1024 1024"><g transform="scale(1, -1) translate(0, -900)"><path d="M 568 282 Q 604 309 737 331 Q 863 355 883 336 Q 893 327 868 145 Q 862 90 839 54 Q 832 47 815 48 Q 778 64 745 76 Q 732 82 730 75 Q 730 71 738 62 Q 793 4 813 -34 Q 820 -55 839 -46 Q 864 -36 883 -18 Q 908 15 913 57 Q 929 153 940 259 Q 946 296 963 327 Q 975 343 963 355 Q 945 374 908 393 Q 887 405 860 391 Q 817 372 775 366 Q 717 359 597 333 Q 575 329 573 348 C 550 368 542 268 568 282 Z" fill="black" /></g></svg>