<?xml version='1.0' encoding='utf-8'?>
<svg xmlns="http://www.w3.org/2000/svg" version="1.1" viewBox="0 0 1024 1024"><g transform="scale(1, -1) translate(0, -900)"><path d="M 740 490 Q 740 489 741 487 Q 747 471 760 473 Q 773 474 781 490 Q 791 503 811 568 Q 826 619 861 649 Q 879 665 863 679 Q 845 695 795 720 Q 780 730 725 712 Q 713 712 623 685 Q 614 684 610 680 L 585 673 Q 582 673 583 672 C 554 663 565 625 591 640 Q 603 653 738 682 Q 756 686 763 683 Q 772 677 767 649 Q 748 526 740 518 C 734 502 734 502 740 490 Z" fill="black" /></g></svg>