<?xml version='1.0' encoding='utf-8'?>
<svg xmlns="http://www.w3.org/2000/svg" version="1.1" viewBox="0 0 1024 1024"><g transform="scale(1, -1) translate(0, -900)"><path d="M 541 296 Q 601 338 816 354 Q 844 357 857 345 Q 869 335 857 295 Q 830 138 797 96 Q 787 87 726 98 Q 693 108 695 99 Q 694 93 703 85 Q 748 33 762 1 Q 771 -21 789 -11 Q 855 25 868 84 Q 892 169 911 265 Q 918 302 937 332 Q 950 348 939 360 Q 923 381 887 402 Q 866 414 838 402 Q 793 383 751 379 Q 693 372 572 349 Q 548 342 545 364 C 523 385 515 282 541 296 Z" fill="black" /></g></svg>