<?xml version='1.0' encoding='utf-8'?>
<svg xmlns="http://www.w3.org/2000/svg" version="1.1" viewBox="0 0 1024 1024"><g transform="scale(1, -1) translate(0, -900)"><path d="M 552 403 Q 552 439 553 474 L 553 501 Q 553 507 554 512 Q 553 536 554 557 L 555 579 Q 558 621 570 650 C 577 669 577 669 561 682 Q 548 695 527 703 Q 509 709 501 700 Q 495 696 503 684 Q 515 657 516 534 Q 510 359 498 313 Q 492 294 507 279 Q 525 264 547 277 C 552 279 552 312 552 342 Q 552 364 552 387 L 552 403 Z" fill="black" /></g></svg>