<?xml version='1.0' encoding='utf-8'?>
<svg xmlns="http://www.w3.org/2000/svg" version="1.1" viewBox="0 0 1024 1024"><g transform="scale(1, -1) translate(0, -900)"><path d="M 305 479 Q 324 301 422 203 Q 446 182 458 181 Q 470 180 477 189 Q 484 196 480 234 Q 474 264 479 325 Q 483 349 475 351 Q 468 352 459 332 Q 435 278 422 289 Q 404 307 384 346 Q 357 401 343 490 L 339 526 Q 330 589 335 615 Q 347 645 322 664 Q 319 665 317 667 Q 305 676 297 679 C 271 694 251 692 266 666 Q 267 662 272 657 Q 278 654 298 523 Q 298 519 300 512 L 305 479 Z" fill="black" /></g></svg>