<?xml version='1.0' encoding='utf-8'?>
<svg xmlns="http://www.w3.org/2000/svg" version="1.1" viewBox="0 0 1024 1024"><g transform="scale(1, -1) translate(0, -900)"><path d="M 560 340 Q 573 321 585 315 Q 594 308 606 325 Q 616 338 638 412 Q 645 437 665 457 Q 675 467 666 478 Q 654 491 620 513 Q 604 520 553 506 Q 544 506 481 491 L 451 484 Q 420 478 395 472 C 366 465 371 438 400 445 Q 404 445 410 447 Q 464 463 561 481 Q 580 484 589 478 Q 596 471 595 460 Q 579 373 566 366 C 553 349 553 349 560 340 Z" fill="black" /></g></svg>