<?xml version='1.0' encoding='utf-8'?>
<svg xmlns="http://www.w3.org/2000/svg" version="1.1" viewBox="0 0 1024 1024"><g transform="scale(1, -1) translate(0, -900)"><path d="M 708 491 Q 723 469 737 462 Q 747 455 761 474 Q 773 493 798 599 Q 805 627 827 649 Q 839 661 828 673 Q 815 688 776 711 Q 761 717 699 700 Q 677 700 601 675 L 574 667 Q 568 666 565 665 C 536 658 546 628 574 638 Q 718 687 742 672 Q 752 663 750 648 Q 732 545 724 530 Q 721 521 705 515 C 694 509 694 509 708 491 Z" fill="black" /></g></svg>