<?xml version='1.0' encoding='utf-8'?>
<svg xmlns="http://www.w3.org/2000/svg" version="1.1" viewBox="0 0 1024 1024"><g transform="scale(1, -1) translate(0, -900)"><path d="M 375 486 Q 444 567 474 622 L 489 652 Q 508 694 522 740 Q 523 744 524 749 L 534 778 Q 540 797 553 817 Q 560 827 553 836 Q 540 855 509 875 Q 491 888 474 886 Q 455 883 466 863 Q 485 830 480 802 Q 477 784 474 767 L 468 739 Q 464 718 457 700 Q 447 672 436 645 L 423 616 Q 357 496 216 427 Q 129 393 127 389 Q 121 385 136 381 Q 193 365 343 459 L 375 486 Z" fill="black" /></g></svg>