<?xml version='1.0' encoding='utf-8'?>
<svg xmlns="http://www.w3.org/2000/svg" version="1.1" viewBox="0 0 1024 1024"><g transform="scale(1, -1) translate(0, -900)"><path d="M 312 426 Q 402 444 411 436 Q 418 432 418 399 Q 421 263 403 186 Q 397 158 372 161 Q 344 165 318 171 Q 306 175 306 169 Q 306 163 315 154 Q 373 105 388 80 Q 397 68 405 70 Q 415 71 426 92 Q 459 146 470 381 Q 471 412 481 429 Q 494 447 483 451 Q 470 464 439 476 Q 424 485 359 467 Q 293 458 237 442 L 207 435 Q 206 435 126 413 C 97 405 109 373 137 384 Q 143 391 185 398 L 220 407 Q 248 414 275 419 L 312 426 Z" fill="black" /></g></svg>