<?xml version='1.0' encoding='utf-8'?>
<svg xmlns="http://www.w3.org/2000/svg" version="1.1" viewBox="0 0 1024 1024"><g transform="scale(1, -1) translate(0, -900)"><path d="M 568 277 Q 607 305 729 320 Q 849 342 871 321 Q 883 311 870 268 Q 863 210 853 149 Q 846 101 824 71 Q 815 59 791 62 Q 764 66 742 70 Q 726 74 727 67 Q 727 61 736 54 Q 782 8 798 -24 Q 807 -45 824 -34 Q 884 -1 896 63 Q 912 148 925 242 Q 932 279 950 309 Q 963 325 951 337 Q 935 356 897 378 Q 878 390 849 377 Q 807 359 767 355 Q 712 349 598 328 Q 571 322 571 345 C 552 368 542 263 568 277 Z" fill="black" /></g></svg>