<?xml version='1.0' encoding='utf-8'?>
<svg xmlns="http://www.w3.org/2000/svg" version="1.1" viewBox="0 0 1024 1024"><g transform="scale(1, -1) translate(0, -900)"><path d="M 581 383 Q 581 413 582 442 L 582 471 Q 582 478 583 484 Q 582 509 583 530 L 585 550 Q 589 589 599 616 C 614 663 603 640 579 657 Q 569 666 554 671 Q 535 678 527 669 Q 521 663 529 652 Q 541 625 542 506 Q 536 335 524 289 Q 520 268 535 253 Q 556 238 577 253 C 581 255 581 290 581 320 Q 581 339 581 360 L 581 383 Z" fill="black" /></g></svg>