<?xml version='1.0' encoding='utf-8'?>
<svg xmlns="http://www.w3.org/2000/svg" version="1.1" viewBox="0 0 1024 1024"><g transform="scale(1, -1) translate(0, -900)"><path d="M 348 389 Q 364 370 377 362 Q 387 355 399 375 Q 415 405 440 565 Q 447 593 466 615 Q 478 627 467 638 Q 454 653 414 674 Q 396 681 332 662 Q 326 662 220 637 Q 180 627 147 619 C 118 612 132 582 161 591 Q 160 591 162 591 Q 190 601 232 610 L 279 620 Q 367 641 383 631 Q 399 619 396 596 Q 372 434 358 419 C 345 392 345 392 348 389 Z" fill="black" /></g></svg>