<?xml version='1.0' encoding='utf-8'?>
<svg xmlns="http://www.w3.org/2000/svg" version="1.1" viewBox="0 0 1024 1024"><g transform="scale(1, -1) translate(0, -900)"><path d="M 567 405 Q 566 438 565 470 L 565 498 L 565 504 Q 564 529 563 552 L 563 575 Q 564 629 574 638 C 582 653 582 653 565 665 Q 549 678 525 686 Q 506 692 499 682 Q 493 678 502 666 Q 517 638 523 474 Q 523 351 516 311 Q 512 292 526 277 Q 547 262 568 277 C 575 280 573 315 571 345 Q 570 363 569 379 L 567 405 Z" fill="black" /></g></svg>