<?xml version='1.0' encoding='utf-8'?>
<svg xmlns="http://www.w3.org/2000/svg" version="1.1" viewBox="0 0 1024 1024"><g transform="scale(1, -1) translate(0, -900)"><path d="M 565 379 Q 565 409 566 438 L 566 467 Q 566 473 567 477 Q 566 504 568 526 L 569 546 Q 573 583 583 608 C 599 655 587 632 563 649 Q 553 658 538 663 Q 519 670 511 661 Q 505 655 513 644 Q 525 617 526 499 Q 520 331 508 285 Q 504 264 519 249 Q 540 234 562 249 C 565 250 565 286 565 316 Q 565 335 565 355 L 565 379 Z" fill="black" /></g></svg>