<?xml version='1.0' encoding='utf-8'?>
<svg xmlns="http://www.w3.org/2000/svg" version="1.1" viewBox="0 0 1024 1024"><g transform="scale(1, -1) translate(0, -900)"><path d="M 562 249 Q 596 276 717 299 Q 831 324 852 307 Q 862 298 853 259 Q 826 102 793 60 Q 783 47 756 51 Q 725 58 698 66 Q 682 70 683 63 Q 683 57 691 50 Q 743 -1 761 -35 Q 768 -56 787 -46 Q 850 -13 864 48 Q 888 133 907 229 Q 914 266 932 296 Q 945 312 933 324 Q 917 343 880 364 Q 861 376 833 364 Q 793 345 754 339 Q 700 330 591 303 Q 569 296 565 316 C 542 335 536 234 562 249 Z" fill="black" /></g></svg>