<?xml version='1.0' encoding='utf-8'?>
<svg xmlns="http://www.w3.org/2000/svg" version="1.1" viewBox="0 0 1024 1024"><g transform="scale(1, -1) translate(0, -900)"><path d="M 584 396 Q 583 433 583 470 L 582 498 Q 581 526 582 549 L 584 575 Q 585 602 593 621 Q 594 625 594 630 C 598 649 595 650 569 664 Q 559 671 545 674 Q 527 680 519 671 Q 513 665 522 654 Q 549 599 540 359 Q 537 332 532 304 Q 528 283 543 270 Q 564 255 585 270 C 591 273 589 307 587 337 Q 586 355 585 372 L 584 396 Z" fill="black" /></g></svg>