<?xml version='1.0' encoding='utf-8'?>
<svg xmlns="http://www.w3.org/2000/svg" version="1.1" viewBox="0 0 1024 1024"><g transform="scale(1, -1) translate(0, -900)"><path d="M 576 267 Q 615 294 748 309 Q 871 327 894 306 Q 904 294 891 254 Q 881 194 868 131 Q 858 82 835 51 Q 828 44 811 47 Q 784 57 761 67 Q 748 74 746 67 Q 745 63 753 53 Q 792 -1 803 -35 Q 809 -57 828 -48 Q 892 -24 907 43 Q 929 128 945 225 Q 954 262 972 291 Q 985 307 974 319 Q 958 340 922 361 Q 903 374 874 362 Q 829 346 788 342 Q 730 338 610 318 Q 585 314 584 337 C 566 361 549 253 576 267 Z" fill="black" /></g></svg>