<?xml version='1.0' encoding='utf-8'?>
<svg xmlns="http://www.w3.org/2000/svg" version="1.1" viewBox="0 0 1024 1024"><g transform="scale(1, -1) translate(0, -900)"><path d="M 390 410 Q 391 450 392 493 L 393 538 Q 393 620 409 676 Q 416 689 415 700 Q 409 709 362 738 Q 343 751 325 739 Q 321 735 326 722 Q 354 679 355 636 Q 355 582 356 523 L 353 400 Q 346 198 344 186 Q 338 147 328 108 Q 319 72 341 23 Q 345 8 353 5 Q 357 -1 364 6 Q 371 10 380 28 Q 387 49 387 75 Q 386 112 390 384 L 390 410 Z" fill="black" /></g></svg>