<?xml version='1.0' encoding='utf-8'?>
<svg xmlns="http://www.w3.org/2000/svg" version="1.1" viewBox="0 0 1024 1024"><g transform="scale(1, -1) translate(0, -900)"><path d="M 565 256 Q 605 286 737 305 Q 861 327 880 312 Q 892 302 884 263 Q 875 202 863 136 Q 854 87 831 54 Q 819 45 746 58 Q 730 62 731 55 Q 731 49 740 42 Q 786 -4 802 -36 Q 811 -55 828 -45 Q 886 -9 900 53 Q 919 141 934 238 Q 940 272 956 302 Q 968 317 957 328 Q 941 347 906 365 Q 887 375 861 364 Q 816 345 775 340 Q 717 333 597 309 Q 575 303 573 324 C 552 346 539 241 565 256 Z" fill="black" /></g></svg>