<?xml version='1.0' encoding='utf-8'?>
<svg xmlns="http://www.w3.org/2000/svg" version="1.1" viewBox="0 0 1024 1024"><g transform="scale(1, -1) translate(0, -900)"><path d="M 582 398 Q 582 435 582 470 L 582 499 Q 582 532 581 564 L 582 590 Q 585 633 595 663 C 602 686 602 686 590 695 Q 586 699 582 702 L 566 711 Q 559 715 550 719 Q 531 725 523 716 Q 517 710 525 699 Q 544 662 543 584 Q 543 521 542 443 Q 543 367 528 304 Q 524 285 538 270 Q 557 254 576 267 C 587 272 585 307 584 337 L 582 379 L 582 398 Z" fill="black" /></g></svg>