<?xml version='1.0' encoding='utf-8'?>
<svg xmlns="http://www.w3.org/2000/svg" version="1.1" viewBox="0 0 1024 1024"><g transform="scale(1, -1) translate(0, -900)"><path d="M 585 270 Q 627 300 745 318 Q 863 345 886 323 Q 898 313 886 272 Q 879 205 868 136 Q 861 82 836 47 Q 829 38 810 43 Q 776 56 746 68 Q 731 74 730 67 Q 730 61 738 53 Q 790 -5 806 -43 Q 813 -65 833 -55 Q 899 -28 911 47 Q 929 141 942 246 Q 948 283 965 313 Q 978 329 966 341 Q 948 360 912 380 Q 891 392 864 379 Q 822 360 782 355 Q 727 346 613 321 Q 589 315 587 337 C 566 359 559 255 585 270 Z" fill="black" /></g></svg>