<?xml version='1.0' encoding='utf-8'?>
<svg xmlns="http://www.w3.org/2000/svg" version="1.1" viewBox="0 0 1024 1024"><g transform="scale(1, -1) translate(0, -900)"><path d="M 594 400 Q 594 434 594 467 L 594 496 L 594 504 Q 593 535 594 562 L 596 583 Q 596 613 608 644 C 612 657 612 657 592 670 Q 579 680 562 686 Q 546 692 537 683 Q 531 679 539 668 Q 563 614 552 375 Q 548 342 542 312 Q 538 293 552 278 Q 570 263 592 278 C 598 281 596 313 595 343 Q 594 361 594 378 L 594 400 Z" fill="black" /></g></svg>