<?xml version='1.0' encoding='utf-8'?>
<svg xmlns="http://www.w3.org/2000/svg" version="1.1" viewBox="0 0 1024 1024"><g transform="scale(1, -1) translate(0, -900)"><path d="M 310 324 Q 306 328 299 330 Q 280 337 271 331 Q 259 327 272 314 Q 303 290 310 250 Q 310 249 311 245 L 317 204 Q 321 105 300 61 Q 287 36 255 41 Q 230 42 207 46 Q 197 47 202 39 Q 206 32 221 23 Q 255 -4 268 -25 Q 277 -40 291 -38 Q 303 -37 326 -13 Q 384 48 363 221 L 356 257 Q 346 300 325 315 L 310 324 Z" fill="black" /></g></svg>