<?xml version='1.0' encoding='utf-8'?>
<svg xmlns="http://www.w3.org/2000/svg" version="1.1" viewBox="0 0 1024 1024"><g transform="scale(1, -1) translate(0, -900)"><path d="M 592 278 Q 652 318 828 333 Q 859 337 872 325 Q 879 319 860 147 Q 854 98 834 66 Q 825 56 772 60 Q 738 64 739 59 Q 739 53 748 46 Q 794 1 811 -29 Q 821 -50 838 -38 Q 896 -5 906 63 Q 921 150 929 247 Q 935 284 952 315 Q 964 331 952 343 Q 934 362 897 382 Q 875 392 849 380 Q 810 364 775 358 Q 724 351 621 329 Q 597 322 595 343 C 574 364 566 264 592 278 Z" fill="black" /></g></svg>