<?xml version='1.0' encoding='utf-8'?>
<svg xmlns="http://www.w3.org/2000/svg" version="1.1" viewBox="0 0 1024 1024"><g transform="scale(1, -1) translate(0, -900)"><path d="M 592 250 Q 652 290 828 305 Q 859 309 872 297 Q 885 287 873 243 Q 869 185 862 124 Q 858 78 838 46 Q 829 34 768 32 Q 743 32 743 27 Q 744 21 753 15 Q 801 -25 818 -53 Q 828 -72 845 -60 Q 899 -24 912 64 Q 922 139 930 219 Q 936 256 952 287 Q 965 303 952 316 Q 934 335 897 354 Q 875 366 849 352 Q 810 336 775 330 Q 724 323 621 301 Q 597 294 595 315 C 575 337 566 236 592 250 Z" fill="black" /></g></svg>