<?xml version='1.0' encoding='utf-8'?>
<svg xmlns="http://www.w3.org/2000/svg" version="1.1" viewBox="0 0 1024 1024"><g transform="scale(1, -1) translate(0, -900)"><path d="M 579 265 Q 640 304 828 312 Q 856 315 869 304 Q 881 294 869 253 Q 850 108 819 65 Q 812 53 790 55 Q 759 65 732 73 Q 719 77 719 71 Q 718 67 726 59 Q 775 10 792 -23 Q 799 -42 816 -33 Q 876 -6 887 55 Q 906 136 921 226 Q 928 260 947 291 Q 959 306 948 318 Q 932 337 897 358 Q 878 370 850 358 Q 810 342 772 339 Q 718 333 610 315 Q 585 308 583 331 C 564 354 552 251 579 265 Z" fill="black" /></g></svg>