<?xml version='1.0' encoding='utf-8'?>
<svg xmlns="http://www.w3.org/2000/svg" version="1.1" viewBox="0 0 1024 1024"><g transform="scale(1, -1) translate(0, -900)"><path d="M 581 397 Q 581 431 581 466 L 581 491 L 581 499 Q 580 527 581 552 L 582 576 Q 583 609 596 643 C 603 663 603 663 582 672 Q 579 672 578 671 Q 566 681 550 686 Q 534 692 525 683 Q 519 679 527 668 Q 542 638 543 449 Q 543 358 530 300 Q 524 281 539 266 Q 557 251 579 265 C 586 268 584 301 583 331 Q 582 353 581 374 L 581 397 Z" fill="black" /></g></svg>