<?xml version='1.0' encoding='utf-8'?>
<svg xmlns="http://www.w3.org/2000/svg" version="1.1" viewBox="0 0 1024 1024"><g transform="scale(1, -1) translate(0, -900)"><path d="M 592 266 Q 652 306 828 321 Q 859 325 873 313 Q 882 304 863 147 Q 859 104 841 74 Q 834 64 812 66 Q 787 70 766 74 Q 750 78 751 71 Q 751 65 759 58 Q 802 12 817 -20 Q 827 -39 844 -29 Q 901 2 915 88 Q 936 266 940 273 Q 944 289 953 304 Q 965 320 953 332 Q 934 351 897 370 Q 875 382 849 368 Q 810 352 775 346 Q 724 339 621 317 Q 597 310 595 331 C 574 353 566 252 592 266 Z" fill="black" /></g></svg>