<?xml version='1.0' encoding='utf-8'?>
<svg xmlns="http://www.w3.org/2000/svg" version="1.1" viewBox="0 0 1024 1024"><g transform="scale(1, -1) translate(0, -900)"><path d="M 734 483 L 735 482 Q 739 469 751 469 Q 764 470 771 483 Q 783 498 804 569 Q 819 615 852 642 Q 868 655 855 670 Q 839 686 794 709 Q 781 718 726 704 Q 638 689 607 677 C 573 666 551 637 596 643 Q 602 643 608 644 Q 648 659 742 673 Q 758 674 765 672 Q 774 668 768 639 Q 744 528 734 507 C 728 491 728 491 734 483 Z" fill="black" /></g></svg>