<?xml version='1.0' encoding='utf-8'?>
<svg xmlns="http://www.w3.org/2000/svg" version="1.1" viewBox="0 0 1024 1024"><g transform="scale(1, -1) translate(0, -900)"><path d="M 396 293 Q 453 155 497 147 Q 507 144 515 153 Q 522 159 519 193 Q 516 227 526 296 Q 530 318 523 319 Q 517 320 509 302 Q 485 224 469 248 Q 439 291 425 328 L 411 366 Q 386 448 382 527 L 379 565 Q 372 724 386 780 Q 399 807 375 827 Q 362 840 351 842 Q 342 843 341 843 Q 325 842 335 822 Q 341 816 346 739 Q 340 648 346 553 L 349 519 Q 361 396 385 323 L 396 293 Z" fill="black" /></g></svg>