<?xml version='1.0' encoding='utf-8'?>
<svg xmlns="http://www.w3.org/2000/svg" version="1.1" viewBox="0 0 1024 1024"><g transform="scale(1, -1) translate(0, -900)"><path d="M 611 426 Q 611 457 611 489 L 611 516 Q 611 519 612 521 Q 611 551 612 576 L 614 599 Q 614 641 628 666 C 637 685 637 685 617 694 Q 614 694 613 694 Q 600 704 583 710 Q 565 717 557 708 Q 551 704 559 692 Q 572 667 573 525 Q 573 386 558 320 Q 552 301 567 287 Q 585 272 607 285 C 611 287 611 320 611 350 Q 611 375 611 402 L 611 426 Z" fill="black" /></g></svg>