<?xml version='1.0' encoding='utf-8'?>
<svg xmlns="http://www.w3.org/2000/svg" version="1.1" viewBox="0 0 1024 1024"><g transform="scale(1, -1) translate(0, -900)"><path d="M 567 285 Q 654 336 831 336 Q 849 336 860 326 Q 873 314 860 271 Q 854 211 846 148 Q 839 99 819 66 Q 815 59 799 58 Q 771 70 744 80 Q 731 86 731 79 Q 730 75 737 66 Q 780 14 794 -20 Q 801 -39 819 -32 Q 844 -22 863 -6 Q 885 24 891 62 Q 906 150 916 247 Q 923 284 940 315 Q 953 331 941 343 Q 923 362 886 383 Q 865 393 838 381 Q 798 365 759 361 Q 707 355 598 335 Q 573 328 570 349 C 548 369 540 271 567 285 Z" fill="black" /></g></svg>