<?xml version='1.0' encoding='utf-8'?>
<svg xmlns="http://www.w3.org/2000/svg" version="1.1" viewBox="0 0 1024 1024"><g transform="scale(1, -1) translate(0, -900)"><path d="M 284 247 Q 278 133 261 107 Q 251 88 258 70 Q 268 42 284 33 Q 293 26 303 43 Q 330 83 420 183 Q 433 196 435 203 Q 435 215 418 203 Q 328 140 320 140 Q 313 146 316 254 L 317 282 Q 318 310 320 333 L 321 362 Q 322 393 325 416 L 328 443 Q 329 458 333 467 Q 337 483 325 494 Q 304 516 288 519 Q 278 522 273 518 Q 264 511 273 500 Q 286 473 288 432 L 288 405 Q 288 377 288 350 L 288 325 Q 287 297 286 272 L 284 247 Z" fill="black" /></g></svg>