<?xml version='1.0' encoding='utf-8'?>
<svg xmlns="http://www.w3.org/2000/svg" version="1.1" viewBox="0 0 1024 1024"><g transform="scale(1, -1) translate(0, -900)"><path d="M 568 418 Q 568 455 568 491 L 567 514 Q 567 545 568 570 L 570 590 Q 573 621 581 645 Q 582 652 583 657 C 586 671 586 671 560 684 Q 550 690 539 694 Q 523 698 515 691 Q 511 687 517 676 Q 541 622 530 383 Q 526 350 519 320 Q 515 301 528 287 Q 546 272 567 285 C 573 287 571 319 570 349 L 568 397 L 568 418 Z" fill="black" /></g></svg>