<?xml version='1.0' encoding='utf-8'?>
<svg xmlns="http://www.w3.org/2000/svg" version="1.1" viewBox="0 0 1024 1024"><g transform="scale(1, -1) translate(0, -900)"><path d="M 172 410 Q 247 503 301 641 L 316 684 Q 347 774 369 801 Q 379 814 374 824 Q 365 849 317 863 Q 304 869 288 862 Q 278 855 287 844 Q 302 826 303 807 Q 306 780 269 677 Q 268 673 265 666 L 249 625 Q 216 547 179 486 Q 137 422 41 323 Q 31 310 42 308 Q 46 307 58 314 Q 104 341 146 382 Q 150 388 157 393 L 172 410 Z" fill="black" /></g></svg>