<?xml version='1.0' encoding='utf-8'?>
<svg xmlns="http://www.w3.org/2000/svg" version="1.1" viewBox="0 0 1024 1024"><g transform="scale(1, -1) translate(0, -900)"><path d="M 220 666 Q 409 714 421 709 Q 422 708 427 704 Q 439 697 442 643 Q 454 459 442 251 Q 441 220 430 212 Q 417 203 356 217 Q 340 220 342 211 Q 343 204 354 199 Q 409 159 438 127 Q 457 109 469 112 Q 479 115 490 140 Q 505 180 504 241 Q 485 649 503 685 Q 513 704 504 714 Q 495 727 453 749 Q 431 758 376 739 Q 282 717 207 702 C 178 696 191 659 220 666 Z" fill="black" /></g></svg>