<?xml version='1.0' encoding='utf-8'?>
<svg xmlns="http://www.w3.org/2000/svg" version="1.1" viewBox="0 0 1024 1024"><g transform="scale(1, -1) translate(0, -900)"><path d="M 380 449 Q 379 439 383 430 Q 387 415 399 417 Q 412 418 418 433 Q 431 452 450 542 Q 463 588 495 617 Q 511 632 497 645 Q 481 661 435 683 Q 419 692 359 675 Q 299 666 251 654 Q 250 654 250 653 L 213 645 Q 195 644 184 640 C 155 633 171 603 200 610 Q 206 610 212 612 Q 234 621 274 627 L 306 633 Q 387 652 405 643 Q 415 637 411 605 Q 395 503 385 470 L 380 449 Z" fill="black" /></g></svg>