<?xml version='1.0' encoding='utf-8'?>
<svg xmlns="http://www.w3.org/2000/svg" version="1.1" viewBox="0 0 1024 1024"><g transform="scale(1, -1) translate(0, -900)"><path d="M 339 119 Q 379 46 384 44 Q 393 44 402 63 Q 414 96 415 215 Q 415 326 422 346 Q 429 362 419 371 Q 412 380 382 395 Q 369 402 336 391 Q 312 381 284 373 Q 262 366 231 360 C 202 354 212 330 242 335 Q 251 336 263 339 Q 297 352 344 360 Q 359 363 363 357 Q 372 348 364 204 Q 363 147 353 137 C 342 113 336 125 339 119 Z" fill="black" /></g></svg>