<?xml version='1.0' encoding='utf-8'?>
<svg xmlns="http://www.w3.org/2000/svg" version="1.1" viewBox="0 0 1024 1024"><g transform="scale(1, -1) translate(0, -900)"><path d="M 595 275 Q 631 299 749 317 Q 867 336 885 315 Q 897 305 882 264 Q 876 207 867 147 Q 860 101 840 71 Q 831 61 811 65 Q 783 74 758 81 Q 743 85 743 79 Q 742 73 750 65 Q 796 13 811 -21 Q 820 -42 838 -32 Q 902 -2 911 62 Q 927 146 938 238 Q 945 274 963 304 Q 975 320 964 332 Q 948 351 911 371 Q 892 383 864 371 Q 824 355 785 350 Q 733 343 623 323 Q 601 320 601 340 C 582 363 568 261 595 275 Z" fill="black" /></g></svg>