<?xml version='1.0' encoding='utf-8'?>
<svg xmlns="http://www.w3.org/2000/svg" version="1.1" viewBox="0 0 1024 1024"><g transform="scale(1, -1) translate(0, -900)"><path d="M 623 434 Q 623 462 624 491 L 624 514 Q 624 518 625 522 Q 624 547 625 569 L 627 594 Q 630 630 640 657 C 647 678 647 678 626 692 Q 614 701 600 706 Q 584 712 575 704 Q 571 700 577 689 Q 595 652 587 464 Q 587 389 571 328 Q 567 309 580 295 Q 598 280 620 293 C 623 294 623 326 623 356 Q 623 384 623 413 L 623 434 Z" fill="black" /></g></svg>