<?xml version='1.0' encoding='utf-8'?>
<svg xmlns="http://www.w3.org/2000/svg" version="1.1" viewBox="0 0 1024 1024"><g transform="scale(1, -1) translate(0, -900)"><path d="M 579 273 Q 624 300 741 310 Q 862 325 882 302 Q 892 289 874 249 Q 864 194 851 135 Q 841 89 819 61 Q 812 48 786 48 Q 755 58 726 65 Q 710 69 711 63 Q 710 57 719 49 Q 771 -3 788 -38 Q 795 -60 815 -50 Q 879 -20 893 42 Q 915 124 933 217 Q 943 254 963 285 Q 978 301 966 315 Q 950 337 913 360 Q 892 373 863 363 Q 820 347 780 344 Q 725 340 611 322 Q 586 318 585 340 C 566 363 552 260 579 273 Z" fill="black" /></g></svg>