<?xml version='1.0' encoding='utf-8'?>
<svg xmlns="http://www.w3.org/2000/svg" version="1.1" viewBox="0 0 1024 1024"><g transform="scale(1, -1) translate(0, -900)"><path d="M 620 293 Q 668 326 821 341 Q 872 348 888 333 Q 898 324 872 146 Q 865 94 843 58 Q 837 48 818 47 Q 787 57 760 65 Q 747 69 747 63 Q 746 59 754 51 Q 803 2 820 -31 Q 827 -50 845 -41 Q 869 -31 887 -14 Q 912 17 917 58 Q 933 152 944 254 Q 950 291 968 322 Q 980 338 968 351 Q 950 370 914 390 Q 893 402 865 389 Q 829 373 795 369 Q 747 363 650 344 Q 626 335 623 356 C 601 376 594 279 620 293 Z" fill="black" /></g></svg>