<?xml version='1.0' encoding='utf-8'?>
<svg xmlns="http://www.w3.org/2000/svg" version="1.1" viewBox="0 0 1024 1024"><g transform="scale(1, -1) translate(0, -900)"><path d="M 306 274 Q 306 298 310 318 L 320 374 Q 323 398 312 413 Q 268 455 254 450 Q 251 448 249 445 Q 244 439 251 416 Q 265 363 263 318 Q 262 111 279 67 Q 288 43 298 28 Q 327 -24 384 -21 Q 421 -19 461 8 Q 488 22 479 59 Q 476 73 474 84 Q 465 133 463 194 Q 461 216 455 221 Q 447 227 443 206 Q 423 100 412 84 Q 406 63 384 59 Q 353 53 337 65 Q 325 74 319 82 Q 304 110 302 218 Q 302 228 303 249 L 306 274 Z" fill="black" /></g></svg>