<?xml version='1.0' encoding='utf-8'?>
<svg xmlns="http://www.w3.org/2000/svg" version="1.1" viewBox="0 0 1024 1024"><g transform="scale(1, -1) translate(0, -900)"><path d="M 582 665 Q 580 668 574 670 Q 549 683 537 671 Q 531 667 539 655 Q 553 626 555 564 L 553 421 Q 553 381 548 348 L 537 288 Q 535 271 549 260 Q 568 245 590 260 C 602 266 599 296 596 326 Q 594 339 594 365 L 594 390 L 594 458 L 594 482 Q 594 488 596 488 Q 594 523 596 553 L 598 572 Q 602 598 608 617 Q 612 629 610 639 C 610 649 608 650 582 665 Z" fill="black" /></g></svg>