<?xml version='1.0' encoding='utf-8'?>
<svg xmlns="http://www.w3.org/2000/svg" version="1.1" viewBox="0 0 1024 1024"><g transform="scale(1, -1) translate(0, -900)"><path d="M 580 401 Q 580 432 580 462 L 580 491 Q 580 495 580 500 Q 579 524 580 545 L 581 568 Q 584 604 593 635 C 598 654 598 654 582 665 Q 569 675 551 682 Q 535 686 527 679 Q 523 675 529 664 Q 553 610 542 371 Q 538 338 531 308 Q 525 289 539 275 Q 557 260 578 273 C 585 276 583 307 582 337 Q 581 359 580 380 L 580 401 Z" fill="black" /></g></svg>