<?xml version='1.0' encoding='utf-8'?>
<svg xmlns="http://www.w3.org/2000/svg" version="1.1" viewBox="0 0 1024 1024"><g transform="scale(1, -1) translate(0, -900)"><path d="M 367 373 Q 380 354 393 346 Q 402 339 416 357 Q 429 376 458 487 Q 467 515 487 536 Q 499 546 489 559 Q 476 574 439 597 Q 424 604 356 588 Q 347 588 323 581 L 281 572 Q 262 569 242 564 Q 203 554 170 548 C 141 542 158 510 187 519 Q 224 532 281 543 L 323 552 Q 392 567 407 557 Q 417 548 414 531 Q 392 428 383 411 Q 379 401 368 399 C 354 390 354 390 367 373 Z" fill="black" /></g></svg>