<?xml version='1.0' encoding='utf-8'?>
<svg xmlns="http://www.w3.org/2000/svg" version="1.1" viewBox="0 0 1024 1024"><g transform="scale(1, -1) translate(0, -900)"><path d="M 585 398 Q 585 429 586 460 L 587 492 Q 587 495 588 497 Q 587 522 588 543 L 591 571 Q 594 602 603 624 Q 604 628 604 630 C 610 650 610 650 585 665 Q 572 674 558 679 Q 539 686 531 677 Q 525 671 533 660 Q 549 627 546 557 Q 545 502 543 433 Q 543 364 528 309 Q 524 290 537 274 Q 555 259 579 273 C 585 276 585 310 585 340 Q 585 356 585 374 L 585 398 Z" fill="black" /></g></svg>