<?xml version='1.0' encoding='utf-8'?>
<svg xmlns="http://www.w3.org/2000/svg" version="1.1" viewBox="0 0 1024 1024"><g transform="scale(1, -1) translate(0, -900)"><path d="M 578 273 Q 626 303 795 313 Q 849 319 866 301 Q 878 289 862 244 Q 858 189 850 131 Q 844 86 826 57 Q 819 45 799 44 Q 766 54 737 61 Q 722 65 723 59 Q 723 55 731 46 Q 785 -3 803 -38 Q 812 -57 829 -48 Q 889 -20 898 46 Q 913 128 921 218 Q 928 257 947 288 Q 960 304 949 318 Q 931 339 893 360 Q 871 372 843 359 Q 803 344 767 342 Q 715 338 611 322 Q 586 313 582 337 C 562 360 551 260 578 273 Z" fill="black" /></g></svg>