<?xml version='1.0' encoding='utf-8'?>
<svg xmlns="http://www.w3.org/2000/svg" version="1.1" viewBox="0 0 1024 1024"><g transform="scale(1, -1) translate(0, -900)"><path d="M 431 360 Q 438 393 446 415 L 466 455 Q 475 471 487 480 Q 500 496 489 511 Q 474 523 430 544 Q 414 551 396 544 Q 368 532 342 525 L 293 514 Q 265 511 238 508 Q 225 507 225 499 Q 228 492 242 487 Q 263 478 293 486 L 340 494 Q 397 506 405 499 Q 415 490 412 470 Q 409 457 407 444 L 400 411 Q 394 389 388 366 C 380 337 425 331 431 360 Z" fill="black" /></g></svg>