<?xml version='1.0' encoding='utf-8'?>
<svg xmlns="http://www.w3.org/2000/svg" version="1.1" viewBox="0 0 1024 1024"><g transform="scale(1, -1) translate(0, -900)"><path d="M 287 399 Q 286 390 286 379 Q 285 363 281 346 L 274 316 Q 240 190 141 101 Q 126 89 123 83 Q 122 76 132 77 Q 168 77 231 143 Q 295 213 318 321 L 324 353 Q 327 378 331 404 L 335 434 Q 338 462 340 494 L 342 525 Q 342 531 343 537 Q 346 553 348 564 Q 352 582 336 590 Q 324 596 315 600 C 288 613 258 618 274 593 Q 292 575 293 514 L 293 486 Q 292 462 290 429 L 287 399 Z" fill="black" /></g></svg>