<?xml version='1.0' encoding='utf-8'?>
<svg xmlns="http://www.w3.org/2000/svg" version="1.1" viewBox="0 0 1024 1024"><g transform="scale(1, -1) translate(0, -900)"><path d="M 742 508 Q 755 486 769 478 Q 778 471 792 489 Q 805 507 836 611 Q 845 638 865 659 Q 877 669 867 682 Q 854 697 818 720 Q 793 732 614 678 Q 610 678 608 676 L 606 678 C 576 675 585 632 612 645 Q 621 654 760 684 Q 778 687 787 681 Q 797 672 793 657 Q 769 558 760 544 Q 757 535 742 531 C 730 526 730 526 742 508 Z" fill="black" /></g></svg>