<?xml version='1.0' encoding='utf-8'?>
<svg xmlns="http://www.w3.org/2000/svg" version="1.1" viewBox="0 0 1024 1024"><g transform="scale(1, -1) translate(0, -900)"><path d="M 236 391 Q 245 369 215 319 Q 208 307 186 291 Q 171 281 173 269 Q 174 256 187 244 Q 197 235 210 241 Q 238 263 289 284 Q 317 296 335 288 Q 354 278 352 246 Q 348 165 311 103 Q 301 85 289 82 Q 277 79 225 99 Q 213 108 211 102 Q 210 98 218 85 Q 243 48 260 15 Q 267 3 277 3 Q 292 0 310 10 Q 373 71 398 229 Q 401 259 412 273 Q 421 283 413 295 Q 400 308 364 323 Q 349 330 264 299 Q 248 296 256 312 Q 281 358 291 367 Q 301 379 293 391 Q 286 398 275 403 C 250 420 235 421 236 391 Z" fill="black" /></g></svg>