<?xml version='1.0' encoding='utf-8'?>
<svg xmlns="http://www.w3.org/2000/svg" version="1.1" viewBox="0 0 1024 1024"><g transform="scale(1, -1) translate(0, -900)"><path d="M 605 284 Q 617 262 629 255 Q 636 248 651 264 Q 661 276 689 347 Q 696 372 717 391 Q 727 401 719 413 Q 709 426 674 450 Q 659 459 594 442 Q 576 442 467 415 Q 460 414 455 411 L 424 404 Q 417 404 409 401 C 380 395 392 360 419 373 Q 431 385 609 419 Q 634 423 644 415 Q 651 408 649 397 Q 625 313 611 306 C 600 293 600 293 605 284 Z" fill="black" /></g></svg>