<?xml version='1.0' encoding='utf-8'?>
<svg xmlns="http://www.w3.org/2000/svg" version="1.1" viewBox="0 0 1024 1024"><g transform="scale(1, -1) translate(0, -900)"><path d="M 619 424 Q 619 458 621 492 L 622 517 Q 622 518 623 520 Q 622 548 624 573 L 627 599 Q 630 633 640 656 Q 641 660 641 663 C 646 680 646 680 621 695 Q 612 702 600 706 Q 584 712 576 704 Q 570 700 577 689 Q 592 656 587 526 Q 581 372 567 325 Q 563 306 576 292 Q 594 277 615 291 C 619 293 619 322 619 352 Q 619 377 619 401 L 619 424 Z" fill="black" /></g></svg>