<?xml version='1.0' encoding='utf-8'?>
<svg xmlns="http://www.w3.org/2000/svg" version="1.1" viewBox="0 0 1024 1024"><g transform="scale(1, -1) translate(0, -900)"><path d="M 374 248 Q 374 267 376 286 C 379 316 374 282 377 312 Q 377 313 378 313 Q 378 329 379 344 L 381 368 Q 384 386 391 405 C 396 419 396 419 381 432 Q 371 442 353 450 Q 337 456 330 448 Q 324 444 331 434 Q 338 418 339 318 Q 332 201 325 176 Q 318 157 332 143 Q 350 127 368 137 C 374 139 374 172 374 202 L 374 234 L 374 248 Z" fill="black" /></g></svg>