<?xml version='1.0' encoding='utf-8'?>
<svg xmlns="http://www.w3.org/2000/svg" version="1.1" viewBox="0 0 1024 1024"><g transform="scale(1, -1) translate(0, -900)"><path d="M 567 351 L 568 350 Q 572 337 583 337 Q 598 340 625 388 Q 638 431 670 455 Q 686 468 673 481 Q 658 496 617 518 Q 605 525 555 512 Q 491 500 445 485 L 413 476 Q 395 473 384 469 C 355 461 371 430 399 441 Q 399 442 401 442 Q 450 461 563 485 Q 582 489 591 485 Q 597 481 593 463 Q 581 414 567 370 C 563 357 563 357 567 351 Z" fill="black" /></g></svg>