<?xml version='1.0' encoding='utf-8'?>
<svg xmlns="http://www.w3.org/2000/svg" version="1.1" viewBox="0 0 1024 1024"><g transform="scale(1, -1) translate(0, -900)"><path d="M 368 137 Q 455 186 711 187 Q 730 188 741 180 Q 753 170 743 130 Q 725 28 699 -2 Q 687 -9 621 12 Q 608 18 606 11 Q 606 7 613 -2 Q 653 -53 664 -85 Q 671 -104 688 -97 Q 742 -73 757 -27 Q 776 34 792 101 Q 799 135 818 165 Q 831 180 820 192 Q 804 211 770 232 Q 751 244 724 233 Q 669 214 620 212 Q 550 209 405 191 Q 380 179 374 202 C 351 221 341 124 368 137 Z" fill="black" /></g></svg>