<?xml version='1.0' encoding='utf-8'?>
<svg xmlns="http://www.w3.org/2000/svg" version="1.1" viewBox="0 0 1024 1024"><g transform="scale(1, -1) translate(0, -900)"><path d="M 576 395 Q 576 432 576 468 L 576 489 Q 576 493 577 497 Q 576 528 578 553 L 580 575 Q 581 612 592 639 C 600 662 600 662 589 671 Q 573 686 551 695 Q 533 701 525 692 Q 519 688 527 676 Q 545 639 542 563 Q 541 502 539 425 Q 538 350 522 289 Q 518 268 532 255 Q 550 240 573 254 C 576 255 576 288 576 318 Q 576 346 576 375 L 576 395 Z" fill="black" /></g></svg>