<?xml version='1.0' encoding='utf-8'?>
<svg xmlns="http://www.w3.org/2000/svg" version="1.1" viewBox="0 0 1024 1024"><g transform="scale(1, -1) translate(0, -900)"><path d="M 724 490 Q 725 489 727 487 Q 745 457 761 450 Q 771 443 785 462 Q 798 484 826 607 Q 833 635 855 658 Q 867 670 856 682 Q 841 698 803 720 Q 785 729 728 710 Q 725 710 633 685 C 571 668 550 623 592 639 Q 592 640 594 640 Q 646 659 741 681 Q 760 685 769 679 Q 782 669 779 651 Q 755 521 739 507 C 726 487 722 493 724 490 Z" fill="black" /></g></svg>