<?xml version='1.0' encoding='utf-8'?>
<svg xmlns="http://www.w3.org/2000/svg" version="1.1" viewBox="0 0 1024 1024"><g transform="scale(1, -1) translate(0, -900)"><path d="M 276 391 Q 358 403 367 399 Q 376 395 375 372 Q 384 222 373 105 Q 372 81 357 77 Q 350 76 312 88 Q 302 91 302 85 Q 302 78 314 69 Q 339 42 358 16 Q 368 3 381 2 Q 394 5 414 45 Q 436 87 433 129 Q 427 231 422 324 Q 419 361 435 390 Q 445 402 433 414 Q 420 427 388 438 Q 373 445 275 413 Q 271 413 269 412 C 240 404 246 387 276 391 Z" fill="black" /></g></svg>