<?xml version='1.0' encoding='utf-8'?>
<svg xmlns="http://www.w3.org/2000/svg" version="1.1" viewBox="0 0 1024 1024"><g transform="scale(1, -1) translate(0, -900)"><path d="M 533 481 Q 533 328 522 280 Q 516 261 530 246 Q 548 231 570 244 C 596 255 592 267 582 295 Q 576 299 573 355 L 572 379 Q 571 410 571 443 L 571 465 Q 571 475 571 483 Q 570 510 570 532 L 571 557 Q 572 617 584 628 C 605 668 588 647 562 662 Q 552 669 538 674 Q 522 680 513 671 Q 507 667 516 655 Q 532 624 533 489 L 533 481 Z" fill="black" /></g></svg>