<?xml version='1.0' encoding='utf-8'?>
<svg xmlns="http://www.w3.org/2000/svg" version="1.1" viewBox="0 0 1024 1024"><g transform="scale(1, -1) translate(0, -900)"><path d="M 607 412 Q 606 448 606 482 L 605 505 Q 604 530 606 553 L 607 576 Q 610 607 617 629 Q 618 633 618 637 C 621 653 621 653 597 667 Q 587 674 575 678 Q 559 682 551 675 Q 547 671 554 660 Q 569 629 570 485 Q 570 353 559 307 Q 553 288 567 273 Q 586 255 605 268 C 611 271 610 307 609 337 L 607 391 L 607 412 Z" fill="black" /></g></svg>