<?xml version='1.0' encoding='utf-8'?>
<svg xmlns="http://www.w3.org/2000/svg" version="1.1" viewBox="0 0 1024 1024"><g transform="scale(1, -1) translate(0, -900)"><path d="M 340 669 Q 418 693 439 690 Q 452 689 452 680 Q 452 679 424 617 Q 418 607 423 604 Q 430 603 441 611 Q 481 642 516 655 Q 544 665 543 673 Q 540 680 488 716 Q 470 728 400 711 Q 382 708 349 698 L 291 683 Q 269 679 248 672 L 192 658 C 163 651 163 648 191 637 Q 210 627 231 634 Q 255 644 284 653 L 340 669 Z" fill="black" /></g></svg>