<?xml version='1.0' encoding='utf-8'?>
<svg xmlns="http://www.w3.org/2000/svg" version="1.1" viewBox="0 0 1024 1024"><g transform="scale(1, -1) translate(0, -900)"><path d="M 570 244 Q 649 284 851 284 Q 870 285 882 275 Q 894 265 882 224 Q 858 67 828 26 Q 821 16 800 20 Q 769 32 740 41 Q 727 45 727 39 Q 726 35 734 27 Q 783 -24 799 -58 Q 806 -77 823 -68 Q 883 -40 896 21 Q 915 105 932 198 Q 939 232 957 261 Q 970 276 959 288 Q 943 307 909 327 Q 890 339 864 328 Q 837 319 722 307 Q 583 295 582 295 C 552 292 542 232 570 244 Z" fill="black" /></g></svg>