<?xml version='1.0' encoding='utf-8'?>
<svg xmlns="http://www.w3.org/2000/svg" version="1.1" viewBox="0 0 1024 1024"><g transform="scale(1, -1) translate(0, -900)"><path d="M 356 94 Q 365 72 383 34 Q 390 19 398 20 Q 411 23 420 44 Q 444 89 459 244 Q 463 284 481 310 Q 494 326 485 338 Q 466 356 427 372 Q 409 381 334 350 Q 228 320 147 308 C 117 303 130 272 160 276 Q 170 276 178 278 Q 205 287 242 295 L 277 304 Q 388 337 403 325 Q 410 321 410 302 Q 409 215 393 130 Q 392 117 385 114 L 384 114 C 369 88 349 111 356 94 Z" fill="black" /></g></svg>