<?xml version='1.0' encoding='utf-8'?>
<svg xmlns="http://www.w3.org/2000/svg" version="1.1" viewBox="0 0 1024 1024"><g transform="scale(1, -1) translate(0, -900)"><path d="M 573 254 Q 604 281 723 304 Q 835 331 857 313 Q 869 304 842 135 Q 835 86 813 52 Q 806 45 788 48 Q 758 58 733 68 Q 720 74 719 67 Q 718 63 726 54 Q 771 0 784 -34 Q 791 -53 810 -45 Q 873 -18 884 51 Q 900 139 913 238 Q 919 274 935 304 Q 947 320 935 331 Q 917 350 882 368 Q 861 378 835 366 Q 796 347 759 341 Q 707 332 601 306 Q 579 299 576 318 C 552 336 548 238 573 254 Z" fill="black" /></g></svg>