<?xml version='1.0' encoding='utf-8'?>
<svg xmlns="http://www.w3.org/2000/svg" version="1.1" viewBox="0 0 1024 1024"><g transform="scale(1, -1) translate(0, -900)"><path d="M 316 351 Q 313 152 298 108 Q 292 72 322 30 Q 332 14 339 10 Q 349 9 354 21 Q 364 49 361 76 Q 354 227 351 358 L 351 396 Q 351 412 351 429 Q 351 439 351 450 L 351 479 Q 351 515 352 542 L 354 578 Q 355 591 357 602 Q 360 612 353 618 Q 338 630 327 637 C 302 654 284 655 297 628 Q 312 606 313 564 L 315 534 Q 316 506 317 472 L 317 443 Q 317 418 317 387 L 316 351 Z" fill="black" /></g></svg>