<?xml version='1.0' encoding='utf-8'?>
<svg xmlns="http://www.w3.org/2000/svg" version="1.1" viewBox="0 0 1024 1024"><g transform="scale(1, -1) translate(0, -900)"><path d="M 582 277 Q 615 302 743 321 Q 867 346 891 321 Q 904 309 888 263 Q 886 85 856 57 Q 847 49 827 52 Q 797 53 782 54 Q 765 58 765 49 Q 765 42 776 35 Q 821 -10 838 -43 Q 850 -65 868 -51 Q 892 -37 913 -15 Q 933 16 937 55 Q 948 151 951 239 Q 956 278 974 313 Q 988 331 974 343 Q 953 363 915 382 Q 909 386 904 387 Q 890 390 863 380 Q 817 362 782 358 Q 733 352 612 327 Q 587 323 587 344 C 568 367 556 263 582 277 Z" fill="black" /></g></svg>