<?xml version='1.0' encoding='utf-8'?>
<svg xmlns="http://www.w3.org/2000/svg" version="1.1" viewBox="0 0 1024 1024"><g transform="scale(1, -1) translate(0, -900)"><path d="M 435 134 Q 390 127 363 116 Q 355 112 351 112 Q 339 112 353 129 Q 364 143 386 172 Q 480 293 510 318 Q 533 339 474 373 Q 458 380 449 378 Q 440 375 443 361 Q 443 333 414 274 L 400 252 Q 308 116 280 102 Q 275 100 272 96 Q 259 77 296 50 Q 301 44 308 45 Q 315 45 339 63 Q 391 100 444 116 C 472 125 465 139 435 134 Z" fill="black" /></g></svg>