<?xml version='1.0' encoding='utf-8'?>
<svg xmlns="http://www.w3.org/2000/svg" version="1.1" viewBox="0 0 1024 1024"><g transform="scale(1, -1) translate(0, -900)"><path d="M 446 466 Q 480 473 519 477 Q 532 478 533 484 Q 534 494 520 502 Q 499 511 463 504 L 412 492 Q 378 486 351 479 L 317 472 Q 280 465 254 459 L 223 453 Q 198 450 186 448 Q 135 439 92 435 Q 82 434 79 428 Q 76 419 88 410 Q 118 386 153 398 Q 190 410 223 419 L 253 427 Q 286 437 317 443 L 351 450 Q 376 456 406 460 L 446 466 Z" fill="black" /></g></svg>