<?xml version='1.0' encoding='utf-8'?>
<svg xmlns="http://www.w3.org/2000/svg" version="1.1" viewBox="0 0 1024 1024"><g transform="scale(1, -1) translate(0, -900)"><path d="M 751 504 L 751 500 Q 757 480 770 481 Q 778 482 786 490 Q 803 508 825 580 Q 842 630 878 659 Q 898 674 881 690 Q 863 706 815 733 Q 797 743 743 726 Q 733 726 702 718 Q 633 702 628 696 L 608 690 Q 590 688 574 683 C 545 675 573 650 602 657 Q 608 657 615 660 Q 674 678 757 697 Q 774 701 780 697 Q 790 691 784 662 Q 768 580 751 521 L 751 504 Z" fill="black" /></g></svg>