<?xml version='1.0' encoding='utf-8'?>
<svg xmlns="http://www.w3.org/2000/svg" version="1.1" viewBox="0 0 1024 1024"><g transform="scale(1, -1) translate(0, -900)"><path d="M 598 659 L 597 660 L 587 667 Q 580 671 571 675 Q 553 681 545 672 Q 539 668 547 656 Q 559 629 560 509 Q 554 335 542 289 Q 536 268 551 254 Q 572 239 593 252 C 596 253 596 288 596 318 Q 596 337 596 355 L 596 379 Q 596 413 597 448 L 597 469 Q 597 515 598 529 L 600 553 Q 603 593 614 622 Q 615 626 615 630 C 618 644 618 644 598 659 Z" fill="black" /></g></svg>