<?xml version='1.0' encoding='utf-8'?>
<svg xmlns="http://www.w3.org/2000/svg" version="1.1" viewBox="0 0 1024 1024"><g transform="scale(1, -1) translate(0, -900)"><path d="M 430 409 Q 437 443 446 466 L 463 504 Q 473 526 488 538 Q 501 554 489 568 Q 426 613 373 586 Q 363 583 354 578 L 313 564 Q 295 563 260 552 L 220 543 Q 189 539 156 534 Q 141 533 143 523 Q 146 516 162 511 Q 184 501 216 513 Q 217 514 222 514 L 257 522 Q 285 529 315 534 L 352 542 Q 365 546 380 549 Q 401 555 409 547 Q 419 537 417 516 Q 414 504 412 492 L 406 460 Q 399 435 393 409 C 386 380 424 380 430 409 Z" fill="black" /></g></svg>