<?xml version='1.0' encoding='utf-8'?>
<svg xmlns="http://www.w3.org/2000/svg" version="1.1" viewBox="0 0 1024 1024"><g transform="scale(1, -1) translate(0, -900)"><path d="M 156 266 Q 210 299 347 314 Q 369 317 380 309 Q 390 300 382 265 Q 358 102 329 60 Q 325 57 264 68 Q 251 74 251 67 Q 250 63 257 55 Q 290 10 299 -17 Q 306 -36 322 -27 Q 379 0 393 64 Q 412 148 427 242 Q 433 273 448 299 Q 458 312 449 323 Q 433 339 403 357 Q 385 367 362 356 Q 332 341 303 337 Q 263 330 180 311 Q 161 307 160 323 C 138 343 129 252 156 266 Z" fill="black" /></g></svg>