<?xml version='1.0' encoding='utf-8'?>
<svg xmlns="http://www.w3.org/2000/svg" version="1.1" viewBox="0 0 1024 1024"><g transform="scale(1, -1) translate(0, -900)"><path d="M 627 268 Q 678 302 819 318 Q 893 331 909 312 Q 918 300 884 145 Q 877 99 855 71 Q 849 62 830 63 Q 782 82 771 83 Q 767 84 766 80 Q 766 75 780 57 Q 813 11 823 -20 Q 831 -41 849 -32 Q 872 -24 896 -8 Q 920 20 927 56 Q 947 137 962 230 Q 968 251 975 269 L 992 304 Q 1000 318 992 327 Q 976 347 937 368 Q 933 372 928 373 Q 913 378 880 367 Q 837 351 813 348 Q 758 340 657 318 Q 635 311 631 329 C 607 347 601 254 627 268 Z" fill="black" /></g></svg>