<?xml version='1.0' encoding='utf-8'?>
<svg xmlns="http://www.w3.org/2000/svg" version="1.1" viewBox="0 0 1024 1024"><g transform="scale(1, -1) translate(0, -900)"><path d="M 334 351 Q 335 300 357 281 Q 410 242 491 267 Q 510 273 527 290 L 529 292 Q 535 298 531 312 Q 519 357 515 371 Q 515 380 512 383 Q 508 384 506 375 Q 478 312 457 304 Q 437 298 415 301 Q 380 305 373 321 Q 365 337 365 361 L 366 394 Q 368 448 364 454 Q 360 457 354 461 Q 331 472 322 466 Q 319 464 322 452 Q 331 407 333 382 L 334 351 Z" fill="black" /></g></svg>