<?xml version='1.0' encoding='utf-8'?>
<svg xmlns="http://www.w3.org/2000/svg" version="1.1" viewBox="0 0 1024 1024"><g transform="scale(1, -1) translate(0, -900)"><path d="M 157 719 Q 145 728 123 739 Q 104 749 95 743 Q 88 736 96 721 Q 114 687 116 626 Q 123 421 108 230 Q 108 193 88 158 Q 81 143 90 124 Q 99 105 109 97 Q 119 90 134 103 Q 201 166 411 201 Q 432 204 431 214 Q 430 227 402 240 Q 387 247 284 212 Q 245 206 173 177 Q 157 168 154 193 Q 161 377 163 611 Q 163 660 169 690 C 172 710 172 710 157 719 Z" fill="black" /></g></svg>