<?xml version='1.0' encoding='utf-8'?>
<svg xmlns="http://www.w3.org/2000/svg" version="1.1" viewBox="0 0 1024 1024"><g transform="scale(1, -1) translate(0, -900)"><path d="M 390 93 Q 432 121 592 145 Q 739 166 757 153 Q 769 144 761 105 Q 746 15 725 -14 Q 716 -24 695 -21 Q 668 -14 644 -7 Q 631 -3 631 -9 Q 630 -13 638 -21 Q 681 -67 696 -99 Q 703 -118 720 -109 Q 772 -84 782 -41 Q 798 14 810 78 Q 817 112 834 142 Q 846 157 835 169 Q 819 188 784 207 Q 765 217 738 206 Q 684 184 634 179 Q 564 172 420 145 Q 396 132 389 155 C 366 174 363 79 390 93 Z" fill="black" /></g></svg>