<?xml version='1.0' encoding='utf-8'?>
<svg xmlns="http://www.w3.org/2000/svg" version="1.1" viewBox="0 0 1024 1024"><g transform="scale(1, -1) translate(0, -900)"><path d="M 587 416 Q 586 452 586 486 L 586 513 Q 586 517 586 519 Q 585 547 585 572 L 586 596 Q 587 632 597 657 Q 598 661 598 664 C 601 677 601 677 582 691 Q 570 701 555 706 Q 539 710 531 703 Q 527 699 534 688 Q 549 654 551 459 Q 551 372 539 319 Q 535 300 548 287 Q 566 272 587 285 C 592 287 590 319 589 349 L 587 397 L 587 416 Z" fill="black" /></g></svg>