<?xml version='1.0' encoding='utf-8'?>
<svg xmlns="http://www.w3.org/2000/svg" version="1.1" viewBox="0 0 1024 1024"><g transform="scale(1, -1) translate(0, -900)"><path d="M 745 479 Q 745 478 746 475 Q 752 460 764 461 Q 777 462 784 476 Q 796 489 817 558 Q 833 607 866 634 Q 884 649 869 663 Q 853 679 806 704 Q 790 714 740 696 Q 701 696 626 664 C 598 652 566 618 614 628 Q 620 628 628 631 Q 665 647 754 667 Q 770 671 776 668 Q 785 662 779 634 Q 758 529 748 508 Q 747 508 747 507 C 740 490 740 490 745 479 Z" fill="black" /></g></svg>