<?xml version='1.0' encoding='utf-8'?>
<svg xmlns="http://www.w3.org/2000/svg" version="1.1" viewBox="0 0 1024 1024"><g transform="scale(1, -1) translate(0, -900)"><path d="M 647 697 Q 704 719 718 711 Q 730 704 722 683 Q 695 533 749 482 Q 771 458 846 426 Q 889 407 914 409 Q 939 410 941 422 Q 948 432 937 473 Q 931 498 921 575 Q 920 588 909 594 Q 905 598 901 585 Q 885 512 875 495 Q 868 480 839 485 Q 812 491 783 515 Q 758 537 752 565 Q 736 634 801 700 Q 825 721 773 754 Q 748 773 730 760 Q 714 748 667 731 Q 658 730 651 726 L 606 714 Q 536 704 532 698 Q 529 694 536 686 Q 548 676 603 684 L 647 697 Z" fill="black" /></g></svg>