<?xml version='1.0' encoding='utf-8'?>
<svg xmlns="http://www.w3.org/2000/svg" version="1.1" viewBox="0 0 1024 1024"><g transform="scale(1, -1) translate(0, -900)"><path d="M 596 414 Q 595 445 595 476 L 595 500 Q 595 504 595 509 Q 594 540 594 565 L 596 590 Q 597 624 607 651 Q 608 657 608 662 C 615 705 604 682 577 695 Q 570 699 562 702 Q 546 708 537 699 Q 531 695 540 683 Q 567 629 556 372 Q 552 338 546 304 Q 540 283 555 268 Q 573 253 596 266 C 602 268 600 305 599 335 Q 598 363 596 390 L 596 414 Z" fill="black" /></g></svg>