<?xml version='1.0' encoding='utf-8'?>
<svg xmlns="http://www.w3.org/2000/svg" version="1.1" viewBox="0 0 1024 1024"><g transform="scale(1, -1) translate(0, -900)"><path d="M 627 646 Q 623 650 617 654 L 600 664 Q 594 668 587 670 Q 571 674 563 667 Q 559 663 566 652 Q 579 622 581 432 Q 581 345 567 284 Q 563 265 575 251 Q 593 236 614 249 C 621 252 619 283 618 313 Q 617 329 617 347 L 616 367 Q 616 401 616 436 L 616 458 Q 616 491 615 523 L 616 542 Q 617 585 626 613 C 634 641 634 641 627 646 Z" fill="black" /></g></svg>