<?xml version='1.0' encoding='utf-8'?>
<svg xmlns="http://www.w3.org/2000/svg" version="1.1" viewBox="0 0 1024 1024"><g transform="scale(1, -1) translate(0, -900)"><path d="M 596 266 Q 650 302 805 314 Q 883 341 869 255 Q 863 191 853 125 Q 846 73 824 40 Q 818 33 803 34 Q 775 46 748 56 Q 735 62 735 55 Q 734 51 741 42 Q 784 -10 798 -44 Q 805 -63 822 -55 Q 847 -45 866 -30 Q 890 1 895 41 Q 911 131 922 231 Q 928 268 945 300 Q 958 316 945 329 Q 927 348 889 368 Q 868 378 840 366 Q 806 350 772 346 Q 726 340 631 321 Q 604 311 599 335 C 579 357 570 252 596 266 Z" fill="black" /></g></svg>