<?xml version='1.0' encoding='utf-8'?>
<svg xmlns="http://www.w3.org/2000/svg" version="1.1" viewBox="0 0 1024 1024"><g transform="scale(1, -1) translate(0, -900)"><path d="M 586 388 Q 587 431 591 472 L 592 495 Q 592 525 595 549 L 598 572 Q 604 617 614 637 C 620 652 620 652 600 666 Q 587 676 571 683 Q 555 690 546 682 Q 539 678 547 666 Q 563 629 558 554 Q 555 494 551 419 Q 548 346 530 286 Q 524 265 539 250 Q 557 235 581 248 C 585 249 585 283 585 313 Q 585 338 586 363 L 586 388 Z" fill="black" /></g></svg>