<?xml version='1.0' encoding='utf-8'?>
<svg xmlns="http://www.w3.org/2000/svg" version="1.1" viewBox="0 0 1024 1024"><g transform="scale(1, -1) translate(0, -900)"><path d="M 581 325 Q 593 303 604 295 Q 611 288 627 303 Q 637 315 666 383 Q 675 408 695 426 Q 707 436 698 448 Q 686 461 653 485 Q 640 494 587 479 Q 581 479 576 477 Q 483 455 481 453 L 456 447 Q 440 444 426 441 C 397 435 420 398 446 413 Q 456 425 597 454 Q 616 457 625 452 Q 632 445 628 434 Q 604 355 591 347 C 578 331 578 331 581 325 Z" fill="black" /></g></svg>