<?xml version='1.0' encoding='utf-8'?>
<svg xmlns="http://www.w3.org/2000/svg" version="1.1" viewBox="0 0 1024 1024"><g transform="scale(1, -1) translate(0, -900)"><path d="M 445 154 Q 500 178 647 197 Q 782 216 797 189 Q 800 177 785 83 Q 775 34 763 14 Q 756 -1 740 0 Q 721 7 701 14 Q 688 21 684 17 Q 681 13 692 2 Q 732 -59 734 -76 Q 737 -83 745 -85 Q 758 -89 787 -63 Q 811 -38 827 20 Q 855 177 873 189 Q 880 196 880 202 Q 880 209 851 229 Q 814 253 763 239 Q 645 239 484 200 Q 441 194 436 197 C 406 197 417 144 445 154 Z" fill="black" /></g></svg>