<?xml version='1.0' encoding='utf-8'?>
<svg xmlns="http://www.w3.org/2000/svg" version="1.1" viewBox="0 0 1024 1024"><g transform="scale(1, -1) translate(0, -900)"><path d="M 387 264 Q 388 260 390 256 Q 393 244 403 245 Q 413 246 419 257 Q 428 267 445 322 Q 457 361 485 384 Q 498 396 487 408 Q 474 421 435 440 Q 417 452 284 416 Q 281 416 279 415 Q 242 406 218 401 C 189 395 202 375 232 375 Q 241 374 249 376 Q 292 391 389 407 Q 407 408 413 405 Q 420 401 416 379 Q 400 306 392 285 C 386 267 386 267 387 264 Z" fill="black" /></g></svg>