<?xml version='1.0' encoding='utf-8'?>
<svg xmlns="http://www.w3.org/2000/svg" version="1.1" viewBox="0 0 1024 1024"><g transform="scale(1, -1) translate(0, -900)"><path d="M 581 248 Q 614 273 734 293 Q 851 315 873 300 Q 886 290 877 247 Q 861 88 836 48 Q 829 39 813 41 Q 782 51 756 60 Q 743 66 743 59 Q 742 55 750 47 Q 796 -4 811 -37 Q 818 -56 836 -48 Q 896 -21 905 44 Q 921 129 930 223 Q 936 259 953 290 Q 965 306 953 318 Q 934 337 898 356 Q 877 368 850 354 Q 810 336 772 332 Q 720 325 612 301 Q 590 294 585 313 C 561 331 555 233 581 248 Z" fill="black" /></g></svg>