<?xml version='1.0' encoding='utf-8'?>
<svg xmlns="http://www.w3.org/2000/svg" version="1.1" viewBox="0 0 1024 1024"><g transform="scale(1, -1) translate(0, -900)"><path d="M 638 270 Q 638 267 640 264 Q 644 252 655 253 Q 665 254 671 267 Q 678 271 691 303 Q 701 346 731 372 Q 746 385 732 398 Q 716 411 675 431 Q 660 438 605 421 Q 571 421 457 387 L 434 381 Q 431 381 429 380 C 400 373 412 345 441 351 Q 447 351 452 353 Q 504 372 623 392 Q 644 395 652 391 Q 656 388 655 371 Q 646 305 641 292 L 638 270 Z" fill="black" /></g></svg>