<?xml version='1.0' encoding='utf-8'?>
<svg xmlns="http://www.w3.org/2000/svg" version="1.1" viewBox="0 0 1024 1024"><g transform="scale(1, -1) translate(0, -900)"><path d="M 591 279 Q 604 258 617 251 Q 626 244 639 261 Q 646 273 669 340 Q 676 367 696 387 Q 706 397 697 409 Q 690 418 675 428 L 655 441 Q 652 444 649 445 Q 633 452 565 433 Q 556 433 463 409 L 439 403 Q 411 397 387 391 C 358 384 372 349 399 361 Q 432 379 586 408 Q 610 412 620 405 Q 627 399 625 389 Q 612 316 600 303 C 589 283 589 283 591 279 Z" fill="black" /></g></svg>