<?xml version='1.0' encoding='utf-8'?>
<svg xmlns="http://www.w3.org/2000/svg" version="1.1" viewBox="0 0 1024 1024"><g transform="scale(1, -1) translate(0, -900)"><path d="M 175 359 Q 176 360 181 361 Q 275 386 388 403 Q 403 407 411 398 Q 418 394 420 360 Q 424 245 415 116 Q 414 97 407 92 Q 397 85 350 96 Q 337 99 338 91 Q 338 85 348 80 Q 391 43 412 16 Q 428 0 438 1 Q 448 4 458 26 Q 471 62 473 115 Q 464 352 479 378 Q 489 394 481 403 Q 474 415 437 435 Q 419 444 359 425 Q 244 398 161 389 C 131 385 146 351 175 359 Z" fill="black" /></g></svg>