<?xml version='1.0' encoding='utf-8'?>
<svg xmlns="http://www.w3.org/2000/svg" version="1.1" viewBox="0 0 1024 1024"><g transform="scale(1, -1) translate(0, -900)"><path d="M 606 648 L 594 656 L 582 662 Q 578 665 574 666 Q 558 672 549 663 Q 543 659 552 647 Q 568 616 569 445 Q 569 325 558 276 Q 552 257 567 242 Q 585 227 607 241 C 631 251 627 263 618 292 Q 614 295 609 343 L 608 366 Q 607 406 607 443 L 607 468 Q 607 472 607 477 Q 606 505 606 529 L 608 555 Q 609 610 620 620 C 627 634 627 634 606 648 Z" fill="black" /></g></svg>