<?xml version='1.0' encoding='utf-8'?>
<svg xmlns="http://www.w3.org/2000/svg" version="1.1" viewBox="0 0 1024 1024"><g transform="scale(1, -1) translate(0, -900)"><path d="M 249 596 Q 255 627 261 656 L 264 680 Q 265 686 266 690 Q 273 759 281 767 C 287 782 287 782 273 792 Q 261 802 242 812 Q 227 821 216 817 Q 206 813 211 800 Q 221 782 222 728 Q 221 722 221 715 Q 212 591 180 506 Q 155 440 94 346 Q 90 340 88 336 Q 87 327 94 328 Q 130 335 192 442 Q 195 449 200 456 Q 222 504 240 559 L 249 596 Z" fill="black" /></g></svg>