<?xml version='1.0' encoding='utf-8'?>
<svg xmlns="http://www.w3.org/2000/svg" version="1.1" viewBox="0 0 1024 1024"><g transform="scale(1, -1) translate(0, -900)"><path d="M 614 249 Q 662 280 824 296 Q 854 300 867 290 Q 880 280 870 238 Q 866 184 857 129 Q 851 86 833 57 Q 826 47 805 49 Q 781 53 760 57 Q 747 61 747 55 Q 747 51 755 43 Q 795 0 809 -28 Q 818 -47 833 -37 Q 888 -10 898 51 Q 911 129 921 215 Q 928 249 944 279 Q 954 295 944 306 Q 928 325 892 343 Q 871 353 846 341 Q 840 340 711 311 Q 626 299 624 300 C 594 297 587 235 614 249 Z" fill="black" /></g></svg>