<?xml version='1.0' encoding='utf-8'?>
<svg xmlns="http://www.w3.org/2000/svg" version="1.1" viewBox="0 0 1024 1024"><g transform="scale(1, -1) translate(0, -900)"><path d="M 384 319 Q 411 332 490 349 C 519 355 512 369 482 365 Q 424 358 357 342 Q 341 338 352 349 Q 389 389 476 466 Q 503 493 525 507 Q 537 514 532 523 Q 526 539 502 558 Q 490 568 482 566 Q 473 565 473 552 Q 473 522 412 450 Q 409 449 406 444 L 386 424 Q 304 343 287 336 Q 275 329 277 318 Q 277 308 296 290 Q 303 280 316 288 Q 335 300 357 308 L 384 319 Z" fill="black" /></g></svg>