<?xml version='1.0' encoding='utf-8'?>
<svg xmlns="http://www.w3.org/2000/svg" version="1.1" viewBox="0 0 1024 1024"><g transform="scale(1, -1) translate(0, -900)"><path d="M 639 275 Q 688 308 864 318 Q 898 330 918 315 Q 930 304 922 265 Q 909 174 900 135 Q 889 87 868 61 Q 859 51 836 59 Q 782 68 784 61 Q 784 57 796 41 Q 829 2 840 -24 Q 847 -43 864 -33 Q 921 -2 935 61 Q 941 86 945 110 L 968 229 Q 976 274 992 302 Q 1004 318 994 328 Q 977 347 945 366 Q 941 368 937 368 Q 923 373 897 364 Q 855 349 825 347 Q 772 343 670 324 Q 645 318 643 341 C 625 365 612 261 639 275 Z" fill="black" /></g></svg>