<?xml version='1.0' encoding='utf-8'?>
<svg xmlns="http://www.w3.org/2000/svg" version="1.1" viewBox="0 0 1024 1024"><g transform="scale(1, -1) translate(0, -900)"><path d="M 621 651 Q 620 652 617 654 L 600 664 Q 594 668 587 670 Q 571 674 563 667 Q 559 663 566 652 Q 579 622 581 432 Q 581 345 567 284 Q 563 265 576 251 Q 594 236 614 249 C 636 258 632 271 624 300 Q 620 303 616 354 L 616 379 Q 616 413 616 448 L 616 470 Q 616 497 615 525 L 616 549 Q 619 591 629 622 C 635 642 635 642 621 651 Z" fill="black" /></g></svg>