<?xml version='1.0' encoding='utf-8'?>
<svg xmlns="http://www.w3.org/2000/svg" version="1.1" viewBox="0 0 1024 1024"><g transform="scale(1, -1) translate(0, -900)"><path d="M 616 254 Q 676 294 852 309 Q 880 315 893 304 Q 906 292 877 123 Q 870 71 846 37 Q 836 28 767 41 Q 745 53 747 39 Q 747 35 755 27 Q 803 -19 820 -51 Q 829 -70 845 -59 Q 902 -29 916 40 Q 934 130 947 230 Q 953 264 969 294 Q 981 310 969 321 Q 953 339 918 357 Q 899 367 873 356 Q 834 340 799 334 Q 748 327 645 305 Q 621 298 619 319 C 597 340 590 240 616 254 Z" fill="black" /></g></svg>