<?xml version='1.0' encoding='utf-8'?>
<svg xmlns="http://www.w3.org/2000/svg" version="1.1" viewBox="0 0 1024 1024"><g transform="scale(1, -1) translate(0, -900)"><path d="M 747 361 Q 765 360 782 350 Q 795 340 794 320 Q 795 307 773 183 Q 757 110 740 83 Q 728 58 702 61 Q 668 71 634 80 Q 615 86 612 81 Q 609 75 625 63 Q 700 -13 706 -38 Q 710 -48 721 -49 Q 737 -52 773 -18 Q 804 15 814 57 Q 863 318 887 333 Q 897 340 896 348 Q 897 357 862 383 Q 817 413 784 404 Q 760 401 735 398 Q 641 398 485 373 Q 379 361 376 360 Q 357 369 363 487 Q 363 509 365 535 Q 375 644 382 654 C 388 683 388 683 371 695 Q 370 696 368 698 L 352 709 Q 325 728 309 729 Q 296 729 293 718 Q 289 708 299 699 Q 318 666 319 572 Q 313 379 296 346 Q 293 339 295 332 Q 296 322 310 311 Q 325 298 332 297 Q 537 354 747 361 Z" fill="black" /></g></svg>