<?xml version='1.0' encoding='utf-8'?>
<svg xmlns="http://www.w3.org/2000/svg" version="1.1" viewBox="0 0 1024 1024"><g transform="scale(1, -1) translate(0, -900)"><path d="M 382 654 Q 389 654 397 658 Q 454 679 600 706 Q 613 707 622 701 Q 635 694 633 673 Q 629 622 602 531 Q 598 506 573 510 Q 543 517 519 523 Q 503 527 506 517 Q 507 507 534 484 Q 565 451 582 417 Q 589 405 602 409 Q 611 412 629 438 Q 657 474 664 519 Q 688 672 705 688 Q 717 698 711 711 Q 701 724 662 748 Q 649 757 592 742 Q 556 741 371 695 C 342 688 353 646 382 654 Z" fill="black" /></g></svg>