<?xml version='1.0' encoding='utf-8'?>
<svg xmlns="http://www.w3.org/2000/svg" version="1.1" viewBox="0 0 1024 1024"><g transform="scale(1, -1) translate(0, -900)"><path d="M 489 297 Q 508 336 530 348 Q 543 361 533 374 Q 523 384 486 404 Q 468 413 421 391 L 380 379 Q 356 378 325 368 L 283 361 Q 247 357 213 353 C 183 350 183 341 212 334 Q 230 327 254 334 Q 269 338 287 340 L 323 347 Q 350 354 379 358 L 414 365 Q 423 368 434 369 Q 456 375 466 365 Q 470 361 468 350 Q 461 325 454 303 C 445 274 475 270 489 297 Z" fill="black" /></g></svg>