<?xml version='1.0' encoding='utf-8'?>
<svg xmlns="http://www.w3.org/2000/svg" version="1.1" viewBox="0 0 1024 1024"><g transform="scale(1, -1) translate(0, -900)"><path d="M 608 668 Q 605 674 602 674 L 589 684 Q 584 688 576 692 Q 551 706 539 694 Q 533 690 542 677 Q 569 623 559 365 L 547 298 Q 545 276 559 263 Q 576 248 600 263 C 618 271 613 289 606 318 Q 602 323 600 361 L 598 385 Q 598 408 598 454 L 598 480 L 598 503 Q 596 519 596 551 L 598 577 Q 598 612 606 635 C 614 663 614 663 608 668 Z" fill="black" /></g></svg>