<?xml version='1.0' encoding='utf-8'?>
<svg xmlns="http://www.w3.org/2000/svg" version="1.1" viewBox="0 0 1024 1024"><g transform="scale(1, -1) translate(0, -900)"><path d="M 396 126 Q 498 171 725 174 Q 753 175 762 164 Q 772 154 768 135 Q 750 32 730 17 Q 724 14 655 26 Q 640 33 639 26 Q 638 17 655 4 Q 682 -27 692 -54 Q 699 -75 717 -66 Q 762 -48 787 11 Q 830 134 847 144 Q 862 157 856 168 Q 846 181 803 206 Q 778 221 706 208 Q 561 199 436 179 Q 405 172 408 193 C 389 216 368 115 396 126 Z" fill="black" /></g></svg>