<?xml version='1.0' encoding='utf-8'?>
<svg xmlns="http://www.w3.org/2000/svg" version="1.1" viewBox="0 0 1024 1024"><g transform="scale(1, -1) translate(0, -900)"><path d="M 389 166 Q 390 185 395 203 Q 398 216 389 225 Q 379 235 361 241 Q 351 245 345 240 Q 339 237 344 224 Q 354 194 352 165 Q 346 38 385 10 Q 392 6 403 1 Q 482 -23 538 17 Q 551 29 542 48 Q 533 61 518 103 Q 517 115 512 117 Q 508 120 506 107 Q 488 61 478 46 Q 474 40 462 38 Q 434 32 407 47 Q 382 65 387 149 L 389 166 Z" fill="black" /></g></svg>