<?xml version='1.0' encoding='utf-8'?>
<svg xmlns="http://www.w3.org/2000/svg" version="1.1" viewBox="0 0 1024 1024"><g transform="scale(1, -1) translate(0, -900)"><path d="M 615 394 L 615 468 L 615 490 Q 615 494 616 500 Q 615 528 616 553 L 618 577 Q 621 629 631 638 C 640 655 634 658 609 674 Q 600 681 587 686 Q 569 693 561 684 Q 555 680 563 668 Q 579 634 578 562 Q 577 504 576 432 Q 576 362 562 304 Q 556 285 571 271 Q 589 256 611 269 C 615 271 615 304 615 334 L 615 372 L 615 394 Z" fill="black" /></g></svg>