<?xml version='1.0' encoding='utf-8'?>
<svg xmlns="http://www.w3.org/2000/svg" version="1.1" viewBox="0 0 1024 1024"><g transform="scale(1, -1) translate(0, -900)"><path d="M 400 25 L 414 6 L 448 -44 Q 455 -53 462 -53 Q 470 -53 481 -37 Q 504 -3 500 49 Q 494 137 488 282 Q 486 296 489 306 Q 491 316 501 330 Q 507 339 500 349 Q 483 365 437 384 Q 423 390 378 368 Q 367 365 361 361 Q 349 354 326 349 C 297 341 309 312 338 319 Q 347 320 372 329 Q 416 343 429 335 Q 451 315 443 121 Q 445 67 439 51 Q 438 47 436 44 Q 428 33 414 45 C 386 55 382 49 400 25 Z" fill="black" /></g></svg>