<?xml version='1.0' encoding='utf-8'?>
<svg xmlns="http://www.w3.org/2000/svg" version="1.1" viewBox="0 0 1024 1024"><g transform="scale(1, -1) translate(0, -900)"><path d="M 600 263 Q 627 287 753 312 Q 868 335 888 316 Q 901 306 888 267 Q 882 208 868 133 Q 860 82 836 47 Q 828 39 812 43 L 757 61 Q 742 67 741 59 Q 741 55 757 34 Q 792 -11 805 -43 Q 811 -65 831 -55 Q 895 -30 910 44 Q 930 141 943 239 Q 949 265 956 285 L 973 316 Q 978 325 968 334 Q 951 353 914 373 Q 909 376 905 377 Q 890 381 859 368 Q 816 351 789 349 Q 723 337 627 316 Q 612 310 606 318 C 576 320 574 248 600 263 Z" fill="black" /></g></svg>