<?xml version='1.0' encoding='utf-8'?>
<svg xmlns="http://www.w3.org/2000/svg" version="1.1" viewBox="0 0 1024 1024"><g transform="scale(1, -1) translate(0, -900)"><path d="M 408 227 Q 408 249 410 266 L 411 285 Q 412 307 415 324 L 417 346 Q 418 362 423 375 Q 424 379 424 381 C 434 421 422 402 394 411 Q 370 420 361 414 Q 354 408 361 397 Q 382 367 371 213 Q 368 201 343 169 Q 334 156 342 145 Q 352 135 371 122 Q 381 115 396 126 C 408 133 408 163 408 193 Q 408 200 408 206 L 408 227 Z" fill="black" /></g></svg>