<?xml version='1.0' encoding='utf-8'?>
<svg xmlns="http://www.w3.org/2000/svg" version="1.1" viewBox="0 0 1024 1024"><g transform="scale(1, -1) translate(0, -900)"><path d="M 491 505 Q 492 501 496 494 Q 503 475 510 475 Q 520 476 531 496 Q 541 512 541 527 Q 522 695 557 750 Q 564 760 558 767 Q 506 809 463 780 Q 453 777 443 772 Q 425 766 409 761 C 380 752 390 732 419 740 Q 423 741 428 742 Q 461 755 485 764 Q 494 767 497 763 Q 509 747 506 696 Q 502 551 493 523 Q 492 523 492 522 C 489 510 489 510 491 505 Z" fill="black" /></g></svg>