<?xml version='1.0' encoding='utf-8'?>
<svg xmlns="http://www.w3.org/2000/svg" version="1.1" viewBox="0 0 1024 1024"><g transform="scale(1, -1) translate(0, -900)"><path d="M 278 542 Q 290 548 304 553 Q 329 565 339 557 Q 349 550 342 525 Q 341 492 338 459 Q 334 365 306 278 Q 291 251 332 203 Q 342 191 351 198 Q 358 205 368 227 Q 396 273 459 356 Q 469 368 466 374 Q 463 381 454 372 Q 424 348 395 323 Q 365 296 369 334 Q 370 386 392 517 Q 396 539 418 561 Q 430 570 421 582 Q 411 598 375 615 Q 365 621 283 582 L 232 563 Q 136 539 119 538 Q 106 539 103 532 Q 99 525 109 517 Q 142 493 180 505 Q 202 514 227 522 L 278 542 Z" fill="black" /></g></svg>