<?xml version='1.0' encoding='utf-8'?>
<svg xmlns="http://www.w3.org/2000/svg" version="1.1" viewBox="0 0 1024 1024"><g transform="scale(1, -1) translate(0, -900)"><path d="M 367 446 Q 407 453 456 453 Q 475 452 484 458 Q 490 464 484 474 Q 477 484 442 501 Q 418 511 370 494 L 317 483 Q 257 470 199 448 Q 190 444 189 447 Q 182 451 185 466 Q 195 554 204 580 Q 210 592 199 602 Q 181 621 155 630 Q 143 634 136 627 Q 132 623 140 608 Q 156 584 154 549 Q 153 473 126 435 Q 116 422 121 411 Q 128 395 145 381 Q 155 372 170 384 Q 206 414 286 431 L 367 446 Z" fill="black" /></g></svg>