<?xml version='1.0' encoding='utf-8'?>
<svg xmlns="http://www.w3.org/2000/svg" version="1.1" viewBox="0 0 1024 1024"><g transform="scale(1, -1) translate(0, -900)"><path d="M 549 621 Q 555 620 566 623 Q 605 639 704 661 Q 713 662 719 658 Q 731 654 730 635 Q 729 589 711 509 Q 708 488 688 491 Q 660 497 637 503 Q 624 506 627 498 Q 628 489 651 471 Q 681 443 699 412 Q 706 403 716 407 Q 723 410 737 432 Q 755 459 769 545 Q 781 635 792 647 Q 802 657 797 667 Q 790 677 756 699 Q 741 708 685 693 Q 670 693 597 672 Q 566 665 544 660 C 515 653 519 617 549 621 Z" fill="black" /></g></svg>