<?xml version='1.0' encoding='utf-8'?>
<svg xmlns="http://www.w3.org/2000/svg" version="1.1" viewBox="0 0 1024 1024"><g transform="scale(1, -1) translate(0, -900)"><path d="M 210 417 Q 302 455 339 455 L 351 455 Q 359 455 359 425 Q 359 422 358 416 Q 350 323 341 290 Q 333 263 302 263 Q 280 264 254 272 Q 231 280 247 258 Q 306 223 312 196 Q 314 194 315 192 Q 323 182 339 191 Q 398 228 416 400 Q 417 408 417 414 Q 421 433 437 455 Q 445 466 441 473 Q 441 474 382 502 Q 372 506 353 498 L 327 486 Q 276 463 193 449 C 163 444 182 406 210 417 Z" fill="black" /></g></svg>