<?xml version='1.0' encoding='utf-8'?>
<svg xmlns="http://www.w3.org/2000/svg" version="1.1" viewBox="0 0 1024 1024"><g transform="scale(1, -1) translate(0, -900)"><path d="M 559 616 Q 563 616 568 618 Q 608 633 708 653 Q 717 654 723 651 Q 733 645 733 628 Q 732 585 715 509 Q 712 490 695 493 Q 670 500 649 506 Q 636 510 638 502 Q 639 493 660 473 Q 688 443 703 412 Q 710 403 720 407 Q 727 410 741 431 Q 757 456 771 540 Q 778 625 792 640 Q 802 649 797 658 Q 790 668 758 688 Q 743 695 689 681 Q 688 681 557 651 C 528 644 530 608 559 616 Z" fill="black" /></g></svg>