<?xml version='1.0' encoding='utf-8'?>
<svg xmlns="http://www.w3.org/2000/svg" version="1.1" viewBox="0 0 1024 1024"><g transform="scale(1, -1) translate(0, -900)"><path d="M 516 639 Q 526 651 682 677 Q 692 678 699 673 Q 711 667 710 649 Q 709 604 688 525 Q 684 501 662 506 Q 632 510 609 515 Q 596 518 599 510 Q 600 501 624 484 Q 655 457 674 429 Q 681 419 691 423 Q 698 424 713 448 Q 731 475 746 553 Q 756 649 771 663 Q 781 672 776 682 Q 769 694 734 714 Q 721 723 659 708 Q 656 708 506 678 C 477 672 489 626 516 639 Z" fill="black" /></g></svg>