<?xml version='1.0' encoding='utf-8'?>
<svg xmlns="http://www.w3.org/2000/svg" version="1.1" viewBox="0 0 1024 1024"><g transform="scale(1, -1) translate(0, -900)"><path d="M 596 604 Q 603 603 612 606 Q 649 622 748 648 Q 757 649 763 646 Q 773 642 773 624 Q 772 581 755 505 Q 752 484 733 487 Q 706 494 685 499 Q 672 502 675 494 Q 676 485 698 466 Q 726 438 743 408 Q 750 399 760 403 Q 767 406 781 427 Q 797 452 811 536 Q 818 621 832 636 Q 842 645 837 654 Q 830 664 797 684 Q 784 691 730 675 Q 724 675 594 638 C 565 630 566 600 596 604 Z" fill="black" /></g></svg>