<?xml version='1.0' encoding='utf-8'?>
<svg xmlns="http://www.w3.org/2000/svg" version="1.1" viewBox="0 0 1024 1024"><g transform="scale(1, -1) translate(0, -900)"><path d="M 532 301 Q 592 340 776 343 Q 810 344 824 329 Q 836 316 819 270 Q 813 216 804 160 Q 798 117 778 88 Q 768 78 743 84 Q 706 96 672 105 Q 654 111 654 103 Q 654 96 664 87 Q 725 26 746 -15 Q 756 -37 776 -26 Q 840 5 853 71 Q 869 152 880 242 Q 889 282 908 314 Q 923 330 910 345 Q 892 367 853 389 Q 831 402 801 390 Q 761 375 725 373 Q 674 369 569 353 Q 541 349 540 372 Q 536 570 549 621 C 554 651 554 653 544 660 Q 543 661 541 663 C 540 669 540 669 525 674 Q 515 680 506 683 Q 487 689 479 680 Q 473 674 481 663 Q 505 621 493 399 Q 490 369 484 341 Q 478 320 493 305 Q 512 289 532 301 Z" fill="black" /></g></svg>