<?xml version='1.0' encoding='utf-8'?>
<svg xmlns="http://www.w3.org/2000/svg" version="1.1" viewBox="0 0 1024 1024"><g transform="scale(1, -1) translate(0, -900)"><path d="M 585 281 Q 630 318 792 328 Q 823 332 837 320 Q 850 308 822 154 Q 816 111 796 83 Q 787 71 763 74 Q 726 84 694 94 Q 678 98 679 91 Q 679 85 688 78 Q 748 26 769 -12 Q 779 -31 796 -22 Q 857 11 866 71 Q 882 150 893 238 Q 900 275 919 307 Q 932 323 920 336 Q 902 355 865 377 Q 843 389 815 376 Q 784 363 752 359 Q 709 353 620 335 Q 595 329 592 350 Q 588 554 604 604 C 610 633 610 633 600 640 Q 599 641 596 643 L 582 652 Q 573 659 563 663 Q 545 669 537 660 Q 531 656 539 644 Q 560 595 549 386 Q 545 353 538 321 Q 532 300 547 286 Q 566 270 585 281 Z" fill="black" /></g></svg>