<?xml version='1.0' encoding='utf-8'?>
<svg xmlns="http://www.w3.org/2000/svg" version="1.1" viewBox="0 0 1024 1024"><g transform="scale(1, -1) translate(0, -900)"><path d="M 537 302 Q 591 339 772 355 Q 803 359 816 346 Q 828 336 816 293 Q 807 229 795 161 Q 786 109 762 75 Q 753 65 732 70 Q 699 83 670 92 Q 655 98 654 91 Q 654 85 662 77 Q 714 22 731 -16 Q 738 -38 757 -28 Q 823 3 836 72 Q 855 163 871 266 Q 878 303 897 334 Q 910 350 898 362 Q 880 383 844 404 Q 822 416 795 403 Q 758 387 722 383 Q 673 377 571 355 Q 547 351 544 370 Q 547 580 559 616 C 564 646 564 646 557 651 Q 554 654 552 655 L 538 664 Q 531 671 519 675 Q 501 681 493 673 Q 487 667 495 657 Q 507 630 504 460 Q 504 394 490 341 Q 484 320 499 306 Q 518 290 537 302 Z" fill="black" /></g></svg>