<?xml version='1.0' encoding='utf-8'?>
<svg xmlns="http://www.w3.org/2000/svg" version="1.1" viewBox="0 0 1024 1024"><g transform="scale(1, -1) translate(0, -900)"><path d="M 241 600 Q 241 661 258 700 Q 268 728 252 743 Q 206 777 192 773 Q 179 769 185 752 Q 203 718 199 668 Q 196 539 219 509 Q 231 491 291 479 Q 334 472 402 475 Q 463 476 489 490 Q 514 503 504 532 Q 489 565 478 623 Q 477 638 469 642 Q 462 646 459 628 Q 443 558 430 547 Q 423 537 400 529 Q 322 510 268 525 Q 252 532 247 544 Q 243 556 241 577 L 241 600 Z" fill="black" /></g></svg>