<?xml version='1.0' encoding='utf-8'?>
<svg xmlns="http://www.w3.org/2000/svg" version="1.1" viewBox="0 0 1024 1024"><g transform="scale(1, -1) translate(0, -900)"><path d="M 582 262 Q 642 304 812 318 Q 843 322 856 310 Q 869 300 858 256 Q 837 84 808 39 Q 799 26 775 29 Q 736 41 702 50 Q 686 54 687 47 Q 687 41 696 34 Q 759 -18 782 -56 Q 791 -77 808 -66 Q 871 -33 882 36 Q 901 129 913 230 Q 920 267 938 299 Q 950 315 938 328 Q 920 347 883 368 Q 862 380 834 366 Q 797 350 763 345 Q 714 338 615 316 Q 590 312 589 332 Q 592 572 607 611 C 617 659 611 643 583 653 Q 573 659 562 663 Q 543 670 535 661 Q 529 655 537 644 Q 547 622 549 514 Q 543 346 532 301 Q 528 280 542 265 Q 563 249 582 262 Z" fill="black" /></g></svg>