<?xml version='1.0' encoding='utf-8'?>
<svg xmlns="http://www.w3.org/2000/svg" version="1.1" viewBox="0 0 1024 1024"><g transform="scale(1, -1) translate(0, -900)"><path d="M 187 637 Q 166 656 146 666 Q 128 673 120 667 Q 110 661 119 646 Q 161 556 140 315 Q 137 269 100 223 Q 88 208 96 187 Q 105 162 117 151 Q 130 144 141 160 Q 156 185 289 290 Q 308 302 312 310 Q 316 320 307 320 Q 292 319 197 271 Q 184 264 183 278 Q 195 429 190 547 Q 189 584 195 613 Q 196 617 196 621 C 197 629 197 629 187 637 Z" fill="black" /></g></svg>