<?xml version='1.0' encoding='utf-8'?>
<svg xmlns="http://www.w3.org/2000/svg" version="1.1" viewBox="0 0 1024 1024"><g transform="scale(1, -1) translate(0, -900)"><path d="M 569 277 Q 615 313 784 325 Q 815 328 829 316 Q 841 304 829 261 Q 822 209 812 153 Q 805 110 785 83 Q 775 70 751 73 Q 712 85 678 94 Q 662 98 663 91 Q 663 85 672 78 Q 735 26 758 -12 Q 767 -33 784 -22 Q 844 11 855 69 Q 871 147 884 234 Q 891 271 910 302 Q 923 318 911 331 Q 895 352 857 373 Q 836 385 808 372 Q 774 359 742 354 Q 696 350 603 329 Q 578 325 575 347 Q 571 551 582 595 C 586 625 587 633 575 640 Q 562 652 542 658 Q 526 664 517 656 Q 511 650 519 640 Q 531 615 533 495 Q 533 363 522 316 Q 516 297 531 281 Q 550 265 569 277 Z" fill="black" /></g></svg>