<?xml version='1.0' encoding='utf-8'?>
<svg xmlns="http://www.w3.org/2000/svg" version="1.1" viewBox="0 0 1024 1024"><g transform="scale(1, -1) translate(0, -900)"><path d="M 599 742 Q 600 743 603 744 Q 664 763 707 772 Q 717 773 720 771 Q 724 765 724 749 Q 723 703 715 682 Q 702 658 683 662 Q 659 669 639 677 Q 621 683 634 665 Q 671 634 689 607 Q 699 595 710 604 Q 743 625 764 723 Q 764 753 781 772 Q 788 782 785 789 Q 778 796 741 812 Q 726 818 713 808 Q 683 790 590 771 C 561 765 571 732 599 742 Z" fill="black" /></g></svg>