<?xml version='1.0' encoding='utf-8'?>
<svg xmlns="http://www.w3.org/2000/svg" version="1.1" viewBox="0 0 1024 1024"><g transform="scale(1, -1) translate(0, -900)"><path d="M 574 615 Q 578 615 583 617 Q 619 633 712 656 Q 719 657 726 654 Q 736 650 737 632 Q 738 589 725 513 Q 724 492 703 494 Q 678 498 657 503 Q 644 506 647 498 Q 648 489 671 471 Q 699 444 717 416 Q 724 407 734 411 Q 741 414 753 436 Q 769 463 778 533 Q 784 632 797 645 Q 807 654 801 664 Q 794 674 760 694 Q 748 700 693 686 Q 663 686 575 654 C 547 644 545 606 574 615 Z" fill="black" /></g></svg>