<?xml version='1.0' encoding='utf-8'?>
<svg xmlns="http://www.w3.org/2000/svg" version="1.1" viewBox="0 0 1024 1024"><g transform="scale(1, -1) translate(0, -900)"><path d="M 884 604 Q 874 620 856 677 Q 855 690 849 694 Q 843 695 840 681 Q 819 620 805 601 Q 795 588 762 579 Q 690 558 628 579 Q 604 589 598 603 Q 582 639 599 742 C 602 763 602 763 590 771 Q 580 780 564 786 Q 554 789 547 785 Q 541 781 546 767 Q 556 736 555 705 Q 549 581 583 551 Q 647 503 790 529 Q 800 532 812 535 Q 846 545 880 569 Q 896 582 884 604 Z" fill="black" /></g></svg>