<?xml version='1.0' encoding='utf-8'?>
<svg xmlns="http://www.w3.org/2000/svg" version="1.1" viewBox="0 0 1024 1024"><g transform="scale(1, -1) translate(0, -900)"><path d="M 301 633 Q 346 741 366 760 Q 379 772 363 792 Q 338 817 317 830 Q 304 837 294 835 Q 287 831 292 810 Q 301 765 254 621 L 237 573 Q 180 441 148 410 Q 133 394 137 379 Q 144 360 155 349 Q 164 340 174 345 Q 214 364 316 385 Q 319 386 322 385 L 368 393 Q 414 400 454 401 Q 482 401 475 415 Q 468 428 451 437 Q 439 440 369 426 L 322 419 Q 282 415 234 407 Q 218 406 215 408 Q 209 420 280 583 L 301 633 Z" fill="black" /></g></svg>