<?xml version='1.0' encoding='utf-8'?>
<svg xmlns="http://www.w3.org/2000/svg" version="1.1" viewBox="0 0 1024 1024"><g transform="scale(1, -1) translate(0, -900)"><path d="M 585 239 Q 604 266 611 297 Q 627 405 644 419 Q 654 428 648 438 Q 641 448 608 468 Q 596 475 537 461 Q 527 461 484 449 L 451 442 Q 448 442 447 441 Q 413 434 387 428 C 358 421 381 382 409 393 Q 413 394 419 397 Q 459 412 561 432 Q 570 433 576 429 Q 585 425 584 410 Q 583 376 566 314 Q 562 295 544 298 Q 525 302 509 306 Q 496 310 498 302 Q 499 295 519 275 Q 534 256 544 235 C 558 208 569 214 585 239 Z" fill="black" /></g></svg>