<?xml version='1.0' encoding='utf-8'?>
<svg xmlns="http://www.w3.org/2000/svg" version="1.1" viewBox="0 0 1024 1024"><g transform="scale(1, -1) translate(0, -900)"><path d="M 553 287 Q 572 302 616 312 Q 706 336 800 342 Q 831 346 844 333 Q 856 323 843 279 Q 839 221 829 158 Q 823 110 803 78 Q 793 65 766 70 Q 730 77 698 83 Q 682 86 683 79 Q 683 73 693 66 Q 754 15 777 -20 Q 787 -39 805 -28 Q 866 8 875 73 Q 890 158 900 255 Q 906 292 923 322 Q 936 338 924 351 Q 906 370 869 390 Q 848 402 821 389 Q 781 371 744 367 Q 692 361 586 340 Q 561 336 560 356 Q 556 561 572 612 C 581 662 573 648 545 658 Q 536 664 526 667 Q 507 673 499 664 Q 493 658 501 647 Q 525 605 513 383 Q 510 353 504 325 Q 500 304 514 290 Q 535 274 553 287 Z" fill="black" /></g></svg>