<?xml version='1.0' encoding='utf-8'?>
<svg xmlns="http://www.w3.org/2000/svg" version="1.1" viewBox="0 0 1024 1024"><g transform="scale(1, -1) translate(0, -900)"><path d="M 390 177 Q 418 196 476 208 Q 594 236 720 242 Q 750 246 763 235 Q 776 225 765 183 Q 744 74 724 48 Q 714 35 688 39 Q 661 45 638 49 Q 622 53 623 47 Q 623 41 631 34 Q 677 -15 693 -47 Q 700 -68 719 -57 Q 774 -29 788 20 Q 804 83 819 153 Q 826 190 846 222 Q 859 238 847 251 Q 831 270 793 292 Q 772 305 744 292 Q 690 271 640 266 Q 570 259 426 233 Q 401 223 394 244 Q 394 295 395 346 Q 394 395 403 424 C 412 472 409 457 385 467 Q 375 474 363 478 Q 347 484 339 475 Q 335 471 341 460 Q 360 423 350 260 Q 347 238 343 216 Q 337 197 352 181 Q 371 165 390 177 Z" fill="black" /></g></svg>