<?xml version='1.0' encoding='utf-8'?>
<svg xmlns="http://www.w3.org/2000/svg" version="1.1" viewBox="0 0 1024 1024"><g transform="scale(1, -1) translate(0, -900)"><path d="M 572 612 Q 615 630 728 655 Q 738 656 745 652 Q 755 648 755 630 Q 754 587 735 513 Q 732 489 710 493 Q 685 496 666 499 Q 651 502 655 493 Q 656 484 681 465 Q 706 438 722 410 Q 729 400 739 404 Q 746 405 760 428 Q 778 455 793 533 Q 805 629 818 641 Q 828 651 823 661 Q 814 671 780 692 Q 768 699 719 686 Q 713 686 609 658 Q 581 651 561 647 C 532 641 544 601 572 612 Z" fill="black" /></g></svg>