<?xml version='1.0' encoding='utf-8'?>
<svg xmlns="http://www.w3.org/2000/svg" version="1.1" viewBox="0 0 1024 1024"><g transform="scale(1, -1) translate(0, -900)"><path d="M 203 540 L 204 540 Q 226 527 246 534 Q 355 564 363 551 Q 370 535 370 492 Q 366 333 341 249 Q 328 195 312 178 Q 302 165 275 169 Q 245 173 218 179 Q 196 182 214 164 Q 257 125 282 94 Q 292 76 311 83 Q 329 87 351 114 Q 412 192 421 453 Q 422 513 443 549 Q 458 568 449 577 Q 434 593 402 606 Q 380 616 355 605 Q 328 592 221 568 C 192 561 175 550 203 540 Z" fill="black" /></g></svg>