<?xml version='1.0' encoding='utf-8'?>
<svg xmlns="http://www.w3.org/2000/svg" version="1.1" viewBox="0 0 1024 1024"><g transform="scale(1, -1) translate(0, -900)"><path d="M 520 752 Q 520 753 521 754 Q 525 778 538 805 Q 544 814 537 821 Q 522 837 493 853 Q 477 863 461 859 Q 443 855 456 838 Q 477 811 474 785 Q 473 763 470 743 L 466 714 Q 462 686 456 663 Q 450 638 441 613 L 426 580 Q 369 475 175 414 Q 151 411 147 405 Q 141 401 155 396 Q 225 384 368 454 Q 396 472 418 495 Q 452 531 475 586 L 488 619 Q 506 668 515 721 L 520 752 Z" fill="black" /></g></svg>