<?xml version='1.0' encoding='utf-8'?>
<svg xmlns="http://www.w3.org/2000/svg" version="1.1" viewBox="0 0 1024 1024"><g transform="scale(1, -1) translate(0, -900)"><path d="M 387 428 Q 378 434 368 438 Q 352 444 344 436 Q 338 432 345 421 Q 361 391 350 244 Q 347 225 343 205 Q 339 186 352 171 Q 370 155 388 167 Q 436 198 583 213 Q 724 228 743 212 Q 752 203 730 80 Q 724 49 710 28 Q 701 18 681 22 Q 650 32 621 41 Q 608 45 607 39 Q 606 35 614 26 Q 665 -26 682 -60 Q 689 -79 707 -71 Q 764 -43 772 5 Q 785 66 796 134 Q 803 170 820 200 Q 833 215 821 227 Q 805 246 769 266 Q 750 278 722 266 Q 671 247 624 244 Q 606 243 585 239 L 544 235 Q 492 231 421 218 Q 397 212 395 232 Q 398 382 409 393 C 415 416 415 416 387 428 Z" fill="black" /></g></svg>