<?xml version='1.0' encoding='utf-8'?>
<svg xmlns="http://www.w3.org/2000/svg" version="1.1" viewBox="0 0 1024 1024"><g transform="scale(1, -1) translate(0, -900)"><path d="M 302 475 Q 326 322 407 249 Q 455 209 478 210 Q 494 214 488 236 Q 481 273 475 383 Q 474 402 467 402 Q 461 401 457 384 Q 450 356 444 332 Q 438 307 429 306 Q 423 306 412 316 Q 361 370 338 488 L 331 528 Q 325 585 331 616 Q 340 646 300 661 Q 297 662 293 663 C 265 674 234 667 255 646 Q 286 618 286 594 Q 290 551 296 513 L 302 475 Z" fill="black" /></g></svg>