<?xml version='1.0' encoding='utf-8'?>
<svg xmlns="http://www.w3.org/2000/svg" version="1.1" viewBox="0 0 1024 1024"><g transform="scale(1, -1) translate(0, -900)"><path d="M 561 310 Q 612 346 776 360 Q 806 363 818 350 Q 830 340 818 299 Q 790 131 756 88 Q 746 75 719 78 Q 685 87 654 94 Q 638 98 639 91 Q 639 85 648 78 Q 705 27 726 -8 Q 735 -29 752 -18 Q 815 15 829 80 Q 853 170 872 269 Q 879 306 899 336 Q 912 352 901 365 Q 883 384 848 407 Q 827 420 799 408 Q 765 393 733 389 Q 688 383 596 363 Q 571 357 567 378 Q 566 445 567 516 Q 566 577 574 615 C 578 645 579 651 575 654 Q 571 657 570 657 L 556 668 Q 546 675 535 678 Q 517 684 509 676 Q 503 670 511 660 Q 523 633 525 490 Q 525 400 514 348 Q 508 329 523 313 Q 542 297 561 310 Z" fill="black" /></g></svg>