<?xml version='1.0' encoding='utf-8'?>
<svg xmlns="http://www.w3.org/2000/svg" version="1.1" viewBox="0 0 1024 1024"><g transform="scale(1, -1) translate(0, -900)"><path d="M 590 619 Q 618 634 735 664 Q 744 665 750 661 Q 760 657 761 639 Q 761 596 745 517 Q 744 495 723 498 Q 695 502 673 507 Q 660 510 663 502 Q 664 493 688 476 Q 719 449 736 420 Q 743 411 753 415 Q 760 418 774 440 Q 792 468 803 565 Q 806 638 821 652 Q 831 662 825 672 Q 818 682 784 702 Q 772 708 715 693 Q 694 693 586 657 C 558 648 563 607 590 619 Z" fill="black" /></g></svg>