<?xml version='1.0' encoding='utf-8'?>
<svg xmlns="http://www.w3.org/2000/svg" version="1.1" viewBox="0 0 1024 1024"><g transform="scale(1, -1) translate(0, -900)"><path d="M 177 443 Q 190 414 171 370 Q 161 348 145 334 Q 127 318 143 298 L 151 290 Q 161 282 176 294 L 202 314 Q 229 336 306 333 Q 325 333 330 326 Q 341 312 331 251 Q 318 172 288 135 Q 280 125 276 122 Q 269 114 199 137 Q 180 143 180 134 Q 181 122 196 110 Q 228 78 246 49 Q 259 27 278 40 Q 339 77 353 132 Q 394 298 402 310 Q 412 324 404 336 Q 388 359 365 367 Q 316 381 249 357 Q 216 345 213 349 Q 212 349 223 379 Q 236 412 231 423 Q 226 437 202 453 C 179 472 170 472 177 443 Z" fill="black" /></g></svg>