<?xml version='1.0' encoding='utf-8'?>
<svg xmlns="http://www.w3.org/2000/svg" version="1.1" viewBox="0 0 1024 1024"><g transform="scale(1, -1) translate(0, -900)"><path d="M 554 286 Q 610 325 786 334 Q 816 337 831 325 Q 843 314 831 270 Q 813 138 798 98 Q 792 82 782 71 Q 772 59 747 65 L 683 82 Q 667 86 668 79 Q 668 74 676 67 Q 734 14 755 -24 Q 763 -44 782 -33 Q 840 -3 855 63 Q 872 145 886 243 Q 893 280 911 312 Q 925 327 913 340 Q 895 363 858 382 Q 841 392 815 384 L 773 369 Q 756 365 737 363 Q 688 359 588 339 Q 564 335 561 355 Q 561 568 574 617 C 579 647 579 650 572 655 Q 570 657 568 657 L 555 666 Q 529 686 514 678 Q 512 677 510 675 Q 504 669 512 660 Q 523 632 520 460 Q 520 380 507 326 Q 500 308 514 291 Q 533 275 554 286 Z" fill="black" /></g></svg>