<?xml version='1.0' encoding='utf-8'?>
<svg xmlns="http://www.w3.org/2000/svg" version="1.1" viewBox="0 0 1024 1024"><g transform="scale(1, -1) translate(0, -900)"><path d="M 257 378 Q 257 204 235 122 Q 226 86 258 39 Q 268 21 275 18 Q 285 17 291 29 Q 303 59 299 87 Q 295 249 296 386 L 296 420 Q 296 424 297 428 Q 297 467 298 498 L 299 534 Q 300 574 306 595 Q 307 607 301 612 Q 291 621 281 627 C 257 645 234 647 245 619 Q 255 601 257 569 Q 258 547 259 519 L 259 489 Q 259 453 258 409 L 257 378 Z" fill="black" /></g></svg>