<?xml version='1.0' encoding='utf-8'?>
<svg xmlns="http://www.w3.org/2000/svg" version="1.1" viewBox="0 0 1024 1024"><g transform="scale(1, -1) translate(0, -900)"><path d="M 568 305 Q 619 341 788 350 Q 819 353 833 340 Q 845 328 832 285 Q 825 227 812 168 Q 805 122 782 91 Q 772 79 748 83 Q 717 90 690 98 Q 674 102 675 95 Q 675 89 683 82 Q 735 31 753 -3 Q 762 -24 779 -13 Q 839 15 853 81 Q 872 165 887 258 Q 894 295 914 326 Q 927 342 915 355 Q 899 374 861 397 Q 840 410 812 397 Q 778 384 745 380 Q 699 376 604 358 Q 579 352 576 374 Q 577 443 579 513 Q 579 580 590 619 C 596 648 596 650 586 657 Q 585 658 584 659 C 583 662 583 662 570 668 Q 563 675 551 679 Q 533 685 525 677 Q 519 671 527 661 Q 539 634 536 464 Q 536 398 522 345 Q 516 326 530 310 Q 549 294 568 305 Z" fill="black" /></g></svg>