<?xml version='1.0' encoding='utf-8'?>
<svg xmlns="http://www.w3.org/2000/svg" version="1.1" viewBox="0 0 1024 1024"><g transform="scale(1, -1) translate(0, -900)"><path d="M 582 595 Q 586 595 595 598 Q 635 613 738 633 Q 747 634 753 630 Q 763 626 763 608 Q 762 568 744 493 Q 741 474 722 476 Q 700 482 681 486 Q 668 490 670 482 Q 671 473 693 453 Q 717 425 730 397 Q 737 388 747 391 Q 754 392 768 415 Q 786 443 800 522 Q 812 609 823 619 Q 833 628 828 638 Q 821 648 788 669 Q 776 676 722 664 Q 695 664 595 634 C 566 625 520 579 582 595 Z" fill="black" /></g></svg>