<?xml version='1.0' encoding='utf-8'?>
<svg xmlns="http://www.w3.org/2000/svg" version="1.1" viewBox="0 0 1024 1024"><g transform="scale(1, -1) translate(0, -900)"><path d="M 537 285 Q 592 324 768 333 Q 799 336 813 324 Q 825 312 813 269 Q 806 211 794 149 Q 787 101 765 71 Q 756 59 732 63 Q 698 73 666 82 Q 650 86 651 79 Q 651 73 659 66 Q 717 14 737 -23 Q 746 -44 764 -33 Q 822 -3 837 63 Q 855 148 868 242 Q 875 279 894 310 Q 907 326 896 339 Q 878 360 841 381 Q 820 393 792 380 Q 755 365 720 362 Q 672 358 572 338 Q 547 334 544 354 Q 544 567 558 615 C 563 645 564 647 556 652 Q 555 653 552 655 L 538 664 Q 529 671 519 675 Q 501 681 493 673 Q 487 667 495 657 Q 507 630 504 458 Q 504 380 490 325 Q 484 306 498 290 Q 517 274 537 285 Z" fill="black" /></g></svg>