<?xml version='1.0' encoding='utf-8'?>
<svg xmlns="http://www.w3.org/2000/svg" version="1.1" viewBox="0 0 1024 1024"><g transform="scale(1, -1) translate(0, -900)"><path d="M 403 424 Q 407 424 414 425 Q 597 476 607 462 Q 613 455 611 436 Q 610 384 598 359 Q 582 331 557 334 Q 539 335 524 339 Q 503 343 520 325 Q 551 297 566 276 Q 576 263 589 272 Q 634 300 658 417 Q 665 447 676 461 Q 686 471 682 480 Q 675 490 631 509 Q 615 516 598 506 Q 544 478 399 459 C 369 455 373 420 403 424 Z" fill="black" /></g></svg>