<?xml version='1.0' encoding='utf-8'?>
<svg xmlns="http://www.w3.org/2000/svg" version="1.1" viewBox="0 0 1024 1024"><g transform="scale(1, -1) translate(0, -900)"><path d="M 589 599 Q 596 598 607 602 Q 644 615 739 636 Q 748 637 754 633 Q 764 629 765 612 Q 766 572 753 497 Q 752 478 733 479 Q 706 486 685 491 Q 672 494 675 486 Q 676 477 698 458 Q 728 430 745 400 Q 752 391 761 395 Q 768 398 781 420 Q 794 444 806 507 Q 812 612 825 625 Q 835 634 829 644 Q 822 654 788 674 Q 778 680 720 667 Q 714 667 594 637 C 565 630 559 595 589 599 Z" fill="black" /></g></svg>