<?xml version='1.0' encoding='utf-8'?>
<svg xmlns="http://www.w3.org/2000/svg" version="1.1" viewBox="0 0 1024 1024"><g transform="scale(1, -1) translate(0, -900)"><path d="M 555 647 Q 546 653 537 656 Q 518 662 509 653 Q 502 647 511 635 Q 521 614 523 461 Q 523 380 511 329 Q 507 308 521 294 Q 542 279 564 293 Q 594 320 715 335 Q 829 357 852 335 Q 858 326 832 158 Q 825 109 803 77 Q 793 65 731 75 Q 697 87 699 75 Q 699 69 708 61 Q 759 12 776 -22 Q 786 -43 804 -32 Q 867 1 878 69 Q 894 157 907 254 Q 914 291 932 323 Q 945 339 934 352 Q 915 371 878 393 Q 857 406 829 393 Q 789 375 752 371 Q 700 365 594 344 Q 569 341 570 362 Q 570 588 585 603 C 598 656 583 637 555 647 Z" fill="black" /></g></svg>