<?xml version='1.0' encoding='utf-8'?>
<svg xmlns="http://www.w3.org/2000/svg" version="1.1" viewBox="0 0 1024 1024"><g transform="scale(1, -1) translate(0, -900)"><path d="M 372 167 Q 402 186 459 196 Q 580 221 708 224 Q 736 227 748 215 Q 758 205 747 166 Q 740 130 731 92 Q 724 64 709 45 Q 697 30 668 35 Q 640 39 613 43 Q 598 46 599 39 Q 599 33 608 26 Q 660 -19 680 -51 Q 689 -70 705 -59 Q 754 -29 769 16 Q 785 73 798 137 Q 807 171 825 201 Q 837 216 827 228 Q 811 247 776 269 Q 757 281 730 270 Q 675 249 624 246 Q 605 245 581 241 L 552 238 Q 491 232 404 217 Q 382 210 377 230 Q 377 356 387 388 C 391 413 391 413 367 423 Q 360 430 348 434 Q 332 438 326 431 Q 320 427 327 417 Q 348 372 333 222 Q 330 213 329 204 Q 323 185 337 171 Q 355 155 372 167 Z" fill="black" /></g></svg>