<?xml version='1.0' encoding='utf-8'?>
<svg xmlns="http://www.w3.org/2000/svg" version="1.1" viewBox="0 0 1024 1024"><g transform="scale(1, -1) translate(0, -900)"><path d="M 518 314 Q 533 302 547 306 L 584 323 Q 598 329 613 332 Q 692 353 780 359 Q 829 363 832 333 Q 833 319 825 293 Q 809 157 796 120 Q 790 100 778 83 Q 762 71 706 87 Q 666 96 666 91 Q 666 85 675 78 Q 730 26 749 -12 Q 759 -31 776 -22 Q 836 12 851 78 Q 868 164 882 267 Q 889 305 909 337 Q 917 351 914 358 Q 913 361 909 365 Q 890 384 854 406 Q 837 416 813 409 L 769 394 Q 753 390 735 388 Q 684 382 592 363 Q 564 360 563 379 Q 559 570 572 617 C 577 647 577 648 566 655 Q 565 657 564 657 C 563 661 563 661 550 666 Q 539 676 523 678 Q 511 680 505 674 Q 498 668 507 659 Q 519 632 520 490 Q 520 402 510 349 Q 504 330 518 314 Z" fill="black" /></g></svg>