<?xml version='1.0' encoding='utf-8'?>
<svg xmlns="http://www.w3.org/2000/svg" version="1.1" viewBox="0 0 1024 1024"><g transform="scale(1, -1) translate(0, -900)"><path d="M 572 617 Q 636 638 711 655 Q 733 658 736 633 Q 737 632 737 630 Q 737 588 722 511 Q 721 492 702 493 L 653 505 Q 643 508 643 504 L 643 500 Q 644 492 664 473 Q 698 441 712 414 Q 719 404 729 409 Q 745 416 760 461 Q 770 488 776 523 Q 782 629 798 643 Q 808 653 802 662 Q 794 673 761 692 Q 747 700 694 686 Q 666 686 566 655 C 537 646 543 608 572 617 Z" fill="black" /></g></svg>