<?xml version='1.0' encoding='utf-8'?>
<svg xmlns="http://www.w3.org/2000/svg" version="1.1" viewBox="0 0 1024 1024"><g transform="scale(1, -1) translate(0, -900)"><path d="M 541 309 Q 596 348 772 357 Q 803 361 817 348 Q 830 336 818 292 Q 811 228 799 161 Q 792 109 768 75 Q 759 65 739 69 Q 702 82 670 93 Q 654 97 655 91 Q 654 85 663 77 Q 720 20 740 -17 Q 747 -39 766 -28 Q 830 2 842 72 Q 861 165 873 266 Q 880 303 899 335 Q 912 351 900 364 Q 882 383 845 405 Q 824 417 796 404 Q 759 389 724 386 Q 676 382 576 362 Q 551 358 548 378 Q 548 579 560 618 C 569 671 566 653 538 664 Q 531 671 519 675 Q 501 681 493 672 Q 487 668 495 656 Q 510 628 508 566 Q 507 518 506 457 Q 506 397 494 349 Q 488 328 502 314 Q 521 298 541 309 Z" fill="black" /></g></svg>