<?xml version='1.0' encoding='utf-8'?>
<svg xmlns="http://www.w3.org/2000/svg" version="1.1" viewBox="0 0 1024 1024"><g transform="scale(1, -1) translate(0, -900)"><path d="M 589 694 Q 632 713 649 706 Q 661 699 654 678 Q 629 551 669 500 Q 670 497 675 493 Q 694 471 763 439 Q 800 420 825 422 Q 849 423 851 435 Q 858 445 848 483 Q 841 508 832 580 Q 831 593 821 598 Q 817 602 813 590 Q 798 521 788 504 Q 781 491 756 497 Q 731 503 706 526 Q 684 547 680 573 Q 670 625 711 674 Q 718 684 730 693 Q 754 712 704 746 Q 679 764 663 753 Q 647 741 600 724 Q 596 723 595 722 L 542 709 Q 467 699 465 694 Q 461 690 468 683 Q 483 668 537 680 L 589 694 Z" fill="black" /></g></svg>