<?xml version='1.0' encoding='utf-8'?>
<svg xmlns="http://www.w3.org/2000/svg" version="1.1" viewBox="0 0 1024 1024"><g transform="scale(1, -1) translate(0, -900)"><path d="M 560 618 Q 581 628 699 653 Q 708 654 713 650 Q 723 646 724 628 Q 724 585 710 509 Q 709 490 689 491 Q 662 498 641 503 Q 628 506 631 498 Q 632 489 654 470 Q 684 442 700 412 Q 707 403 717 407 Q 724 410 737 432 Q 752 457 763 521 Q 769 626 785 640 Q 795 649 789 660 Q 782 670 749 690 Q 737 697 685 685 Q 619 672 553 656 C 524 649 532 608 560 618 Z" fill="black" /></g></svg>