<?xml version='1.0' encoding='utf-8'?>
<svg xmlns="http://www.w3.org/2000/svg" version="1.1" viewBox="0 0 1024 1024"><g transform="scale(1, -1) translate(0, -900)"><path d="M 226 318 Q 259 343 380 353 Q 413 356 426 343 Q 439 331 426 286 Q 422 231 414 174 Q 410 129 391 99 Q 381 90 362 96 Q 331 106 302 113 Q 286 117 287 111 Q 286 105 295 97 Q 347 45 364 10 Q 373 -11 391 0 Q 449 31 459 94 Q 472 173 480 263 Q 487 300 505 330 Q 517 346 506 358 Q 488 377 452 398 Q 431 410 404 397 Q 403 397 262 367 Q 237 363 236 386 Q 232 587 247 638 C 253 667 253 671 242 678 Q 238 682 233 685 L 218 693 Q 214 697 207 699 Q 189 705 181 696 Q 175 692 183 680 Q 204 631 193 422 Q 189 389 182 357 Q 176 338 190 323 Q 208 307 226 318 Z" fill="black" /></g></svg>