<?xml version='1.0' encoding='utf-8'?>
<svg xmlns="http://www.w3.org/2000/svg" version="1.1" viewBox="0 0 1024 1024"><g transform="scale(1, -1) translate(0, -900)"><path d="M 598 692 Q 543 638 530 632 Q 518 626 519 615 Q 519 603 538 586 Q 545 576 559 583 Q 622 616 708 633 Q 724 634 727 642 Q 730 649 714 649 Q 663 646 602 635 Q 580 631 595 646 Q 706 742 714 747 Q 724 754 721 763 Q 714 779 690 798 Q 677 807 670 806 Q 661 805 661 791 Q 661 776 648 757 Q 638 735 619 714 Q 618 714 617 712 L 598 692 Z" fill="black" /></g></svg>