<?xml version='1.0' encoding='utf-8'?>
<svg xmlns="http://www.w3.org/2000/svg" version="1.1" viewBox="0 0 1024 1024"><g transform="scale(1, -1) translate(0, -900)"><path d="M 939 121 Q 927 146 912 225 Q 912 241 905 246 Q 899 249 894 232 Q 864 150 847 124 Q 834 109 799 101 Q 715 82 652 110 Q 627 123 619 140 Q 603 174 609 252 L 610 272 Q 616 326 628 389 Q 632 407 622 417 Q 609 430 586 439 Q 573 443 565 439 Q 558 435 563 417 Q 576 378 572 341 Q 559 169 572 121 Q 576 99 597 78 Q 667 18 830 39 Q 842 42 855 45 Q 894 55 932 81 Q 951 96 939 121 Z" fill="black" /></g></svg>