<?xml version='1.0' encoding='utf-8'?>
<svg xmlns="http://www.w3.org/2000/svg" version="1.1" viewBox="0 0 1024 1024"><g transform="scale(1, -1) translate(0, -900)"><path d="M 585 603 Q 585 604 587 604 Q 627 620 733 642 Q 742 643 749 639 Q 759 635 760 618 Q 761 576 749 501 Q 748 480 727 482 Q 703 485 685 487 Q 672 490 675 482 Q 676 473 700 456 Q 725 431 741 404 Q 748 395 758 399 Q 765 402 777 424 Q 793 451 802 521 Q 808 620 821 633 Q 831 643 825 653 Q 816 663 781 682 Q 769 689 714 674 Q 704 674 618 650 Q 590 644 570 639 C 541 632 557 592 585 603 Z" fill="black" /></g></svg>