<?xml version='1.0' encoding='utf-8'?>
<svg xmlns="http://www.w3.org/2000/svg" version="1.1" viewBox="0 0 1024 1024"><g transform="scale(1, -1) translate(0, -900)"><path d="M 459 500 Q 481 500 529 560 L 552 597 Q 570 633 589 694 L 595 722 Q 595 723 596 724 Q 600 740 603 754 Q 604 761 608 769 Q 615 781 611 792 Q 598 807 574 821 Q 559 831 548 827 Q 538 823 543 811 Q 558 792 542 709 L 537 680 Q 534 665 516 612 L 502 582 Q 493 567 485 552 Q 475 534 463 517 Q 459 513 457 507 Q 456 506 456 503 C 454 499 454 499 459 500 Z" fill="black" /></g></svg>