<?xml version='1.0' encoding='utf-8'?>
<svg xmlns="http://www.w3.org/2000/svg" version="1.1" viewBox="0 0 1024 1024"><g transform="scale(1, -1) translate(0, -900)"><path d="M 299 199 Q 359 139 372 109 Q 381 97 389 99 Q 401 100 411 122 Q 427 150 433 182 L 437 202 Q 447 259 453 415 Q 454 446 464 464 Q 477 483 466 487 Q 451 500 419 513 Q 401 525 355 509 Q 265 494 214 478 L 183 470 Q 180 470 179 469 Q 143 459 110 449 C 81 440 93 405 120 417 Q 133 426 169 433 L 187 438 Q 224 448 258 454 L 298 461 Q 328 467 377 473 Q 386 474 389 470 Q 396 466 397 433 Q 403 300 387 222 Q 381 195 359 198 Q 305 216 302 215 C 277 221 278 220 299 199 Z" fill="black" /></g></svg>