<?xml version='1.0' encoding='utf-8'?>
<svg xmlns="http://www.w3.org/2000/svg" version="1.1" viewBox="0 0 1024 1024"><g transform="scale(1, -1) translate(0, -900)"><path d="M 540 277 Q 600 316 780 322 Q 811 325 826 312 Q 839 302 826 256 Q 805 109 785 79 Q 775 66 751 69 Q 712 81 678 90 Q 662 94 663 87 Q 663 81 672 74 Q 735 22 758 -16 Q 767 -37 784 -26 Q 842 5 854 66 Q 870 144 881 230 Q 888 267 907 299 Q 920 315 909 328 Q 891 347 854 369 Q 832 382 804 369 Q 767 354 730 352 Q 681 348 576 330 Q 549 324 548 346 Q 544 550 558 608 C 567 663 564 648 543 658 Q 533 665 519 671 Q 501 677 493 668 Q 487 664 495 652 Q 511 621 509 554 Q 508 502 507 435 Q 507 369 494 317 Q 488 296 502 282 Q 521 266 540 277 Z" fill="black" /></g></svg>