<?xml version='1.0' encoding='utf-8'?>
<svg xmlns="http://www.w3.org/2000/svg" version="1.1" viewBox="0 0 1024 1024"><g transform="scale(1, -1) translate(0, -900)"><path d="M 574 612 Q 573 613 575 613 Q 612 628 711 648 Q 720 649 725 646 Q 735 642 737 624 Q 736 581 722 505 Q 721 486 701 488 Q 673 495 649 503 Q 636 506 639 498 Q 640 489 661 470 Q 694 439 712 408 Q 719 399 729 403 Q 736 406 749 428 Q 764 453 775 517 Q 781 622 797 636 Q 807 646 801 656 Q 794 666 760 686 Q 747 693 692 679 Q 658 679 573 651 C 544 642 546 601 574 612 Z" fill="black" /></g></svg>