<?xml version='1.0' encoding='utf-8'?>
<svg xmlns="http://www.w3.org/2000/svg" version="1.1" viewBox="0 0 1024 1024"><g transform="scale(1, -1) translate(0, -900)"><path d="M 383 179 Q 413 195 470 205 Q 591 227 716 226 Q 744 229 757 216 Q 769 206 756 165 Q 740 80 724 61 Q 712 48 659 53 Q 617 57 619 51 Q 619 45 629 38 Q 678 -5 696 -35 Q 706 -54 722 -43 Q 773 -12 782 28 Q 821 181 829 194 Q 830 198 834 202 Q 847 217 836 229 Q 820 248 786 270 Q 767 283 739 271 Q 684 252 634 251 Q 618 251 599 248 L 556 244 Q 498 240 418 228 Q 393 222 389 242 Q 389 371 396 401 C 400 431 400 431 398 432 Q 398 433 397 434 C 397 439 397 439 384 445 Q 374 452 360 457 Q 344 463 338 455 Q 332 451 339 441 Q 357 402 347 251 Q 344 233 341 216 Q 335 197 348 183 Q 366 167 383 179 Z" fill="black" /></g></svg>