<?xml version='1.0' encoding='utf-8'?>
<svg xmlns="http://www.w3.org/2000/svg" version="1.1" viewBox="0 0 1024 1024"><g transform="scale(1, -1) translate(0, -900)"><path d="M 374 236 Q 375 235 376 231 Q 413 81 508 -14 Q 518 -21 527 -23 Q 539 -26 547 -16 Q 554 -9 552 29 Q 549 62 554 125 Q 558 149 551 151 Q 544 152 535 132 Q 511 74 496 88 Q 466 118 429 202 Q 416 236 405 275 L 393 328 Q 381 361 373 486 L 370 528 Q 363 657 374 709 Q 389 739 365 758 Q 362 761 360 762 Q 344 777 333 779 Q 321 780 321 779 Q 302 778 315 756 Q 328 743 329 593 Q 329 556 332 515 L 335 477 Q 339 387 364 277 L 374 236 Z" fill="black" /></g></svg>