<?xml version='1.0' encoding='utf-8'?>
<svg xmlns="http://www.w3.org/2000/svg" version="1.1" viewBox="0 0 1024 1024"><g transform="scale(1, -1) translate(0, -900)"><path d="M 577 669 Q 576 670 574 671 L 560 680 Q 554 684 546 687 Q 527 693 519 684 Q 513 678 521 667 Q 534 640 536 468 Q 536 381 524 333 Q 520 312 534 297 Q 553 281 573 294 Q 627 331 784 343 Q 815 347 830 335 Q 843 325 831 280 Q 815 115 787 75 Q 780 63 759 64 Q 726 74 697 81 Q 682 85 683 79 Q 683 75 691 66 Q 745 17 763 -18 Q 772 -37 789 -28 Q 849 6 860 70 Q 876 158 887 254 Q 894 291 911 324 Q 924 340 912 352 Q 894 373 856 393 Q 835 405 807 391 Q 803 391 608 347 Q 581 343 580 364 Q 577 583 592 633 C 596 658 596 658 577 669 Z" fill="black" /></g></svg>