<?xml version='1.0' encoding='utf-8'?>
<svg xmlns="http://www.w3.org/2000/svg" version="1.1" viewBox="0 0 1024 1024"><g transform="scale(1, -1) translate(0, -900)"><path d="M 560 615 Q 623 636 703 652 Q 712 653 717 650 Q 727 646 729 628 Q 728 585 714 509 Q 711 488 692 491 Q 664 497 641 503 Q 628 506 631 498 Q 632 489 655 471 Q 686 443 704 412 Q 711 403 721 407 Q 728 410 741 432 Q 756 457 767 521 Q 773 626 789 640 Q 799 650 793 660 Q 786 670 752 690 Q 739 697 684 683 Q 650 683 556 652 C 527 643 531 606 560 615 Z" fill="black" /></g></svg>