<?xml version='1.0' encoding='utf-8'?>
<svg xmlns="http://www.w3.org/2000/svg" version="1.1" viewBox="0 0 1024 1024"><g transform="scale(1, -1) translate(0, -900)"><path d="M 590 615 Q 594 615 603 618 Q 640 634 739 656 Q 748 657 753 653 Q 763 649 764 631 Q 764 589 750 513 Q 749 495 731 497 Q 706 504 685 510 Q 672 514 674 506 Q 675 497 696 477 Q 724 447 740 416 Q 747 407 757 411 Q 764 414 777 436 Q 792 461 803 525 Q 809 630 825 644 Q 835 654 829 664 Q 822 674 788 694 Q 776 700 719 686 Q 692 686 592 653 C 563 644 561 607 590 615 Z" fill="black" /></g></svg>