<?xml version='1.0' encoding='utf-8'?>
<svg xmlns="http://www.w3.org/2000/svg" version="1.1" viewBox="0 0 1024 1024"><g transform="scale(1, -1) translate(0, -900)"><path d="M 592 633 Q 626 648 717 669 Q 724 670 731 666 Q 741 662 743 644 Q 744 601 732 522 Q 731 500 709 501 Q 688 500 672 500 Q 659 501 663 494 Q 666 487 689 472 Q 713 453 726 430 Q 733 423 743 426 Q 750 429 762 452 Q 774 471 784 541 Q 784 641 799 659 Q 809 668 803 678 Q 796 688 764 707 Q 752 713 699 699 Q 687 699 577 669 C 548 661 564 622 592 633 Z" fill="black" /></g></svg>