<?xml version='1.0' encoding='utf-8'?>
<svg xmlns="http://www.w3.org/2000/svg" version="1.1" viewBox="0 0 1024 1024"><g transform="scale(1, -1) translate(0, -900)"><path d="M 251 466 Q 300 479 351 493 Q 367 500 373 491 Q 391 443 381 183 Q 371 134 370 131 Q 366 125 347 130 Q 322 134 298 139 Q 279 145 281 136 Q 333 94 364 63 Q 376 45 390 41 Q 397 38 406 47 Q 439 92 440 154 Q 419 436 441 479 Q 451 495 441 505 Q 422 521 389 535 Q 373 542 359 535 Q 326 516 306 509 Q 282 502 239 493 C 210 487 222 458 251 466 Z" fill="black" /></g></svg>