<?xml version='1.0' encoding='utf-8'?>
<svg xmlns="http://www.w3.org/2000/svg" version="1.1" viewBox="0 0 1024 1024"><g transform="scale(1, -1) translate(0, -900)"><path d="M 552 297 Q 603 333 784 342 Q 817 346 830 332 Q 843 322 830 276 Q 814 126 788 87 Q 778 74 753 76 Q 717 83 685 90 Q 670 94 671 87 Q 671 81 680 74 Q 741 25 763 -10 Q 773 -29 790 -19 Q 847 14 859 77 Q 875 159 886 250 Q 893 287 912 319 Q 925 335 913 348 Q 895 369 858 390 Q 836 402 808 389 Q 771 374 737 372 Q 688 368 588 350 Q 563 344 560 366 Q 563 576 574 612 C 579 642 580 647 573 651 Q 569 655 565 657 L 549 667 Q 543 671 535 675 Q 517 681 509 673 Q 503 667 511 657 Q 523 630 520 466 Q 520 390 506 337 Q 500 318 514 302 Q 533 286 552 297 Z" fill="black" /></g></svg>