<?xml version='1.0' encoding='utf-8'?>
<svg xmlns="http://www.w3.org/2000/svg" version="1.1" viewBox="0 0 1024 1024"><g transform="scale(1, -1) translate(0, -900)"><path d="M 603 605 Q 639 623 730 647 Q 737 648 744 646 Q 756 642 756 623 Q 757 578 744 497 Q 743 479 727 481 Q 702 488 681 494 Q 668 498 670 490 Q 671 481 692 461 Q 720 431 737 400 Q 744 391 755 395 Q 762 398 774 421 Q 796 460 798 499 Q 798 616 817 637 Q 827 647 822 657 Q 815 667 780 688 Q 765 697 716 681 Q 707 681 631 658 Q 612 654 595 648 C 566 639 576 593 603 605 Z" fill="black" /></g></svg>