<?xml version='1.0' encoding='utf-8'?>
<svg xmlns="http://www.w3.org/2000/svg" version="1.1" viewBox="0 0 1024 1024"><g transform="scale(1, -1) translate(0, -900)"><path d="M 164 513 Q 185 504 229 519 Q 286 547 392 563 L 394 563 Q 407 556 407 550 Q 408 547 404 537 Q 383 485 389 481 Q 395 478 407 488 Q 449 516 483 527 Q 511 537 510 543 Q 509 552 448 591 Q 432 603 412 598 Q 376 589 333 578 L 295 568 Q 261 561 216 549 Q 189 542 162 536 Q 159 536 158 534 C 129 525 135 520 164 513 Z" fill="black" /></g></svg>