<?xml version='1.0' encoding='utf-8'?>
<svg xmlns="http://www.w3.org/2000/svg" version="1.1" viewBox="0 0 1024 1024"><g transform="scale(1, -1) translate(0, -900)"><path d="M 574 654 Q 573 655 572 656 C 571 661 571 661 556 666 Q 549 672 538 675 Q 519 681 511 672 Q 505 668 513 656 Q 529 625 527 558 Q 526 506 525 439 Q 525 375 512 321 Q 508 300 522 285 Q 543 270 565 284 Q 599 314 740 334 Q 827 347 845 332 Q 858 320 845 277 Q 839 219 830 159 Q 823 113 803 81 Q 796 69 774 68 Q 740 78 709 86 Q 694 90 695 83 Q 695 79 703 70 Q 760 21 779 -14 Q 788 -35 805 -24 Q 865 4 877 71 Q 893 156 903 250 Q 910 289 928 321 Q 941 337 929 350 Q 910 371 872 391 Q 850 403 822 390 Q 785 372 748 368 Q 699 361 595 337 Q 570 333 569 352 Q 565 562 581 614 C 586 643 587 646 574 654 Z" fill="black" /></g></svg>