<?xml version='1.0' encoding='utf-8'?>
<svg xmlns="http://www.w3.org/2000/svg" version="1.1" viewBox="0 0 1024 1024"><g transform="scale(1, -1) translate(0, -900)"><path d="M 463 204 Q 442 519 456 548 Q 463 563 455 570 Q 439 583 411 592 Q 396 598 361 574 Q 349 568 330 560 C 302 548 313 526 341 537 Q 353 540 383 556 Q 395 563 400 557 Q 409 536 417 330 Q 418 170 410 151 Q 407 148 359 152 Q 344 156 345 148 Q 384 118 406 94 Q 416 81 428 77 Q 435 76 441 82 Q 471 124 465 186 L 463 204 Z" fill="black" /></g></svg>