<?xml version='1.0' encoding='utf-8'?>
<svg xmlns="http://www.w3.org/2000/svg" version="1.1" viewBox="0 0 1024 1024"><g transform="scale(1, -1) translate(0, -900)"><path d="M 599 652 L 598 653 C 597 657 597 657 585 661 Q 576 667 566 670 Q 550 676 541 667 Q 535 663 543 651 Q 558 624 558 490 Q 558 393 550 356 Q 544 337 559 322 Q 577 307 598 320 Q 637 348 776 361 Q 822 368 839 351 Q 851 339 837 297 Q 830 237 819 175 Q 812 126 789 95 Q 779 82 752 83 Q 719 90 689 95 Q 674 98 675 91 Q 675 85 684 78 Q 742 32 763 -2 Q 773 -21 790 -11 Q 850 23 861 88 Q 879 173 892 270 Q 899 307 919 337 Q 932 353 920 365 Q 904 386 867 407 Q 846 419 819 407 Q 813 406 630 369 Q 603 365 603 387 Q 599 576 610 616 C 614 643 614 643 599 652 Z" fill="black" /></g></svg>