<?xml version='1.0' encoding='utf-8'?>
<svg xmlns="http://www.w3.org/2000/svg" version="1.1" viewBox="0 0 1024 1024"><g transform="scale(1, -1) translate(0, -900)"><path d="M 336 365 Q 402 383 436 379 Q 446 379 451 370 Q 454 361 436 301 Q 433 291 421 292 Q 402 296 377 301 Q 355 307 370 287 Q 407 250 414 231 Q 420 221 430 222 Q 440 221 453 231 Q 466 244 487 298 Q 487 322 515 353 Q 528 369 519 379 Q 500 398 470 414 Q 461 423 392 404 Q 380 404 337 393 L 302 385 Q 250 376 219 365 Q 197 361 186 361 Q 182 362 182 373 Q 192 430 202 445 C 210 465 210 465 198 475 Q 188 485 171 494 Q 162 500 155 494 Q 148 490 155 476 Q 162 457 155 428 Q 142 376 126 356 Q 117 343 125 330 Q 132 311 143 305 Q 150 301 169 314 Q 197 341 278 353 L 336 365 Z" fill="black" /></g></svg>