<?xml version='1.0' encoding='utf-8'?>
<svg xmlns="http://www.w3.org/2000/svg" version="1.1" viewBox="0 0 1024 1024"><g transform="scale(1, -1) translate(0, -900)"><path d="M 384 259 Q 394 244 405 239 Q 414 233 425 249 Q 435 267 459 366 Q 465 391 483 410 Q 493 420 484 431 Q 471 444 437 464 Q 422 470 361 454 Q 351 454 340 448 L 295 439 Q 291 439 196 416 C 167 409 185 377 213 389 Q 228 398 295 410 L 336 419 Q 400 434 410 425 Q 420 415 418 403 Q 400 300 387 286 C 377 268 377 268 384 259 Z" fill="black" /></g></svg>