<?xml version='1.0' encoding='utf-8'?>
<svg xmlns="http://www.w3.org/2000/svg" version="1.1" viewBox="0 0 1024 1024"><g transform="scale(1, -1) translate(0, -900)"><path d="M 389 444 Q 389 441 391 438 Q 395 423 407 425 Q 420 426 426 440 Q 439 458 459 541 Q 472 589 505 615 Q 521 630 507 644 Q 491 659 446 682 Q 431 691 371 673 Q 350 673 249 648 Q 240 647 232 643 L 206 637 Q 199 636 194 635 C 164 630 173 593 201 603 Q 213 609 274 623 L 304 629 Q 400 653 417 644 Q 427 638 422 607 Q 403 499 393 472 L 389 444 Z" fill="black" /></g></svg>