<?xml version='1.0' encoding='utf-8'?>
<svg xmlns="http://www.w3.org/2000/svg" version="1.1" viewBox="0 0 1024 1024"><g transform="scale(1, -1) translate(0, -900)"><path d="M 593 631 Q 589 635 583 639 L 570 647 Q 563 651 555 655 Q 537 661 529 653 Q 523 647 531 637 Q 543 610 540 444 Q 540 366 526 313 Q 520 294 535 279 Q 553 264 575 277 Q 632 316 808 327 Q 838 328 850 317 Q 862 307 848 265 Q 841 210 830 152 Q 823 107 802 79 Q 793 70 773 75 Q 742 87 714 96 Q 699 102 698 95 Q 698 89 706 81 Q 755 26 770 -11 Q 777 -33 797 -23 Q 822 -13 843 4 Q 865 32 872 67 Q 890 148 903 238 Q 910 274 929 304 Q 942 320 931 332 Q 913 353 877 373 Q 858 385 829 373 Q 792 357 757 353 Q 708 347 605 326 Q 581 322 580 342 Q 581 412 583 486 Q 582 550 593 592 C 599 621 600 627 593 631 Z" fill="black" /></g></svg>