<?xml version='1.0' encoding='utf-8'?>
<svg xmlns="http://www.w3.org/2000/svg" version="1.1" viewBox="0 0 1024 1024"><g transform="scale(1, -1) translate(0, -900)"><path d="M 610 616 Q 609 617 611 617 Q 648 630 747 650 Q 756 651 762 647 Q 772 643 772 625 Q 771 582 755 506 Q 754 488 736 490 Q 711 497 693 502 Q 680 506 683 498 Q 683 491 703 471 Q 730 443 744 415 Q 751 406 760 410 Q 767 413 780 434 Q 801 465 805 500 Q 809 552 818 597 Q 819 625 830 637 Q 840 646 834 656 Q 827 666 795 686 Q 780 693 599 652 C 570 645 582 606 610 616 Z" fill="black" /></g></svg>