<?xml version='1.0' encoding='utf-8'?>
<svg xmlns="http://www.w3.org/2000/svg" version="1.1" viewBox="0 0 1024 1024"><g transform="scale(1, -1) translate(0, -900)"><path d="M 306 274 Q 307 310 318 364 Q 323 392 318 404 Q 314 410 312 413 Q 268 457 254 450 Q 243 445 247 427 L 259 382 Q 263 365 263 318 Q 261 114 279 67 Q 300 14 325 -4 Q 349 -23 384 -21 Q 418 -19 461 8 Q 502 31 479 59 Q 448 96 447 108 Q 447 129 439 139 Q 434 145 429 126 Q 423 96 412 84 Q 402 63 384 59 Q 365 57 362 57 Q 347 57 337 65 Q 321 77 317 90 Q 302 123 302 218 Q 302 228 303 249 L 306 274 Z" fill="black" /></g></svg>