<?xml version='1.0' encoding='utf-8'?>
<svg xmlns="http://www.w3.org/2000/svg" version="1.1" viewBox="0 0 1024 1024"><g transform="scale(1, -1) translate(0, -900)"><path d="M 573 630 Q 564 636 555 639 Q 537 645 529 637 Q 523 631 531 621 Q 543 594 540 424 Q 540 358 526 305 Q 520 286 535 271 Q 553 256 575 269 Q 629 305 784 314 Q 835 320 850 310 Q 862 300 835 144 Q 828 98 807 70 Q 795 60 730 77 Q 694 86 695 79 Q 695 75 703 66 Q 760 17 779 -18 Q 788 -37 804 -27 Q 861 4 873 64 Q 889 145 903 234 Q 909 268 926 298 Q 938 313 927 325 Q 911 344 876 363 Q 857 373 830 362 Q 793 346 757 343 Q 708 337 605 318 Q 581 314 580 334 Q 583 550 596 584 C 606 637 601 620 573 630 Z" fill="black" /></g></svg>