<?xml version='1.0' encoding='utf-8'?>
<svg xmlns="http://www.w3.org/2000/svg" version="1.1" viewBox="0 0 1024 1024"><g transform="scale(1, -1) translate(0, -900)"><path d="M 519 218 Q 519 224 520 229 Q 523 254 515 255 Q 508 256 501 235 Q 486 153 467 174 Q 443 198 415 269 Q 384 350 372 479 L 369 523 Q 362 652 374 701 Q 389 729 362 752 Q 361 753 360 754 Q 344 769 333 771 L 321 772 Q 302 769 315 748 Q 324 739 329 653 Q 326 584 331 512 L 334 472 Q 370 253 392 206 Q 416 137 464 85 Q 488 64 500 62 Q 513 61 520 70 Q 527 77 523 116 Q 520 141 519 194 L 519 218 Z" fill="black" /></g></svg>