<?xml version='1.0' encoding='utf-8'?>
<svg xmlns="http://www.w3.org/2000/svg" version="1.1" viewBox="0 0 1024 1024"><g transform="scale(1, -1) translate(0, -900)"><path d="M 599 678 Q 592 682 583 686 Q 567 692 559 684 Q 555 680 561 668 Q 577 637 575 569 Q 574 515 573 448 Q 573 382 559 328 Q 555 309 568 295 Q 586 280 606 293 Q 643 323 796 339 Q 824 343 838 333 Q 851 323 841 282 Q 826 111 793 61 Q 786 51 763 52 Q 732 59 704 66 Q 691 70 691 63 Q 691 59 699 51 Q 751 6 770 -26 Q 779 -44 794 -34 Q 851 -3 863 66 Q 881 157 892 258 Q 899 294 915 323 Q 925 338 915 350 Q 899 368 863 387 Q 844 397 817 385 Q 814 385 637 342 Q 613 338 610 356 Q 610 624 625 640 C 636 686 628 669 599 678 Z" fill="black" /></g></svg>