<?xml version='1.0' encoding='utf-8'?>
<svg xmlns="http://www.w3.org/2000/svg" version="1.1" viewBox="0 0 1024 1024"><g transform="scale(1, -1) translate(0, -900)"><path d="M 369 111 Q 414 42 416 40 Q 425 40 433 60 Q 445 96 441 210 Q 437 318 444 339 Q 451 357 441 365 Q 434 374 403 388 Q 388 395 356 383 Q 331 373 302 365 Q 278 358 247 351 C 218 344 229 322 259 327 Q 268 328 279 331 Q 367 364 383 349 Q 393 339 390 198 Q 391 147 386 137 Q 385 137 385 136 C 377 107 362 121 369 111 Z" fill="black" /></g></svg>