<?xml version='1.0' encoding='utf-8'?>
<svg xmlns="http://www.w3.org/2000/svg" version="1.1" viewBox="0 0 1024 1024"><g transform="scale(1, -1) translate(0, -900)"><path d="M 125 309 L 128 381 Q 127 388 122 394 Q 115 404 92 414 Q 71 423 63 416 Q 59 410 65 396 Q 80 358 84 321 Q 90 269 84 194 Q 75 133 42 88 Q 31 75 41 41 Q 45 24 54 13 Q 61 2 73 17 Q 143 107 204 159 Q 217 171 220 176 Q 221 183 216 183 Q 212 183 182 167 L 137 141 Q 123 134 123 149 L 123 154 Q 124 232 125 282 L 125 309 Z" fill="black" /></g></svg>