<?xml version='1.0' encoding='utf-8'?>
<svg xmlns="http://www.w3.org/2000/svg" version="1.1" viewBox="0 0 1024 1024"><g transform="scale(1, -1) translate(0, -900)"><path d="M 294 246 Q 291 135 271 104 Q 249 64 292 28 Q 293 27 296 25 Q 306 19 316 37 Q 344 79 440 185 Q 455 200 455 207 Q 455 219 437 207 Q 397 179 353 147 Q 340 137 333 139 Q 327 142 327 156 Q 327 208 328 251 L 329 284 Q 330 312 332 337 L 333 370 Q 334 398 336 419 L 340 448 Q 341 455 343 461 Q 347 479 335 490 Q 313 512 295 515 Q 285 518 279 514 Q 269 507 279 495 Q 295 467 295 439 L 295 410 Q 296 385 296 360 L 297 331 Q 296 303 295 276 L 294 246 Z" fill="black" /></g></svg>