<?xml version='1.0' encoding='utf-8'?>
<svg xmlns="http://www.w3.org/2000/svg" version="1.1" viewBox="0 0 1024 1024"><g transform="scale(1, -1) translate(0, -900)"><path d="M 481 392 Q 481 197 470 180 Q 467 177 407 188 Q 392 192 393 184 Q 439 150 465 123 Q 475 110 487 105 Q 494 104 500 110 Q 530 146 528 188 Q 518 348 517 606 Q 516 649 526 669 Q 535 684 525 691 Q 509 704 482 716 Q 466 722 430 701 Q 418 697 397 690 C 369 681 382 658 411 667 Q 430 671 449 681 Q 464 685 468 677 Q 474 661 480 541 L 480 521 Q 481 466 481 415 L 481 392 Z" fill="black" /></g></svg>