<?xml version='1.0' encoding='utf-8'?>
<svg xmlns="http://www.w3.org/2000/svg" version="1.1" viewBox="0 0 1024 1024"><g transform="scale(1, -1) translate(0, -900)"><path d="M 587 620 Q 596 630 722 669 Q 731 670 737 668 Q 750 662 749 641 Q 748 592 727 501 Q 726 483 708 485 Q 684 492 665 498 Q 652 502 654 494 Q 655 485 675 464 Q 702 434 715 404 Q 724 395 734 399 Q 741 402 756 426 Q 774 456 785 524 Q 791 635 808 656 Q 818 663 814 675 Q 807 685 774 707 Q 761 716 708 699 Q 645 681 582 661 C 553 652 561 606 587 620 Z" fill="black" /></g></svg>