<?xml version='1.0' encoding='utf-8'?>
<svg xmlns="http://www.w3.org/2000/svg" version="1.1" viewBox="0 0 1024 1024"><g transform="scale(1, -1) translate(0, -900)"><path d="M 259 388 Q 256 183 246 169 Q 243 168 179 179 Q 164 183 165 177 Q 213 140 241 111 Q 251 98 263 94 Q 270 91 276 98 Q 306 134 304 176 Q 283 623 305 660 Q 314 675 305 683 Q 289 696 261 707 Q 246 713 210 693 Q 200 689 182 683 C 154 673 164 649 192 659 Q 219 668 229 673 Q 244 677 248 669 Q 254 651 259 527 L 259 508 Q 259 456 259 407 L 259 388 Z" fill="black" /></g></svg>