<?xml version='1.0' encoding='utf-8'?>
<svg xmlns="http://www.w3.org/2000/svg" version="1.1" viewBox="0 0 1024 1024"><g transform="scale(1, -1) translate(0, -900)"><path d="M 588 602 Q 630 618 730 638 Q 739 639 745 635 Q 755 629 755 612 Q 754 569 736 493 Q 732 471 711 474 Q 687 477 669 479 Q 656 482 659 474 Q 660 465 684 448 Q 709 423 722 396 Q 729 387 739 391 Q 746 392 760 415 Q 778 442 792 524 Q 804 614 815 623 Q 825 632 821 642 Q 814 652 781 674 Q 760 684 579 640 C 550 633 560 592 588 602 Z" fill="black" /></g></svg>