<?xml version='1.0' encoding='utf-8'?>
<svg xmlns="http://www.w3.org/2000/svg" version="1.1" viewBox="0 0 1024 1024"><g transform="scale(1, -1) translate(0, -900)"><path d="M 579 640 L 578 641 C 577 646 577 646 565 650 Q 556 656 547 659 Q 529 665 521 656 Q 515 652 523 640 Q 538 610 536 548 Q 535 499 534 436 Q 534 375 522 325 Q 516 306 531 291 Q 549 276 571 289 Q 620 322 788 332 Q 824 341 843 322 Q 855 312 841 269 Q 834 217 824 161 Q 817 118 797 91 Q 788 79 764 82 Q 730 91 702 98 Q 686 102 687 95 Q 687 89 696 82 Q 750 31 769 -4 Q 779 -23 796 -14 Q 856 20 867 77 Q 883 155 896 242 Q 903 279 922 309 Q 935 325 924 337 Q 908 356 871 378 Q 850 391 822 378 Q 785 363 751 360 Q 702 356 601 337 Q 576 333 576 354 Q 575 423 577 494 Q 576 561 588 602 C 594 631 594 631 579 640 Z" fill="black" /></g></svg>