<?xml version='1.0' encoding='utf-8'?>
<svg xmlns="http://www.w3.org/2000/svg" version="1.1" viewBox="0 0 1024 1024"><g transform="scale(1, -1) translate(0, -900)"><path d="M 611 594 Q 615 594 623 596 Q 660 612 759 634 Q 768 635 774 631 Q 786 627 786 607 Q 786 559 769 474 Q 768 456 752 458 Q 727 465 709 470 Q 696 474 699 466 Q 699 459 719 439 Q 746 411 761 383 Q 768 374 779 378 Q 786 381 799 404 Q 820 441 822 483 Q 828 607 842 622 Q 852 631 847 641 Q 840 651 808 671 Q 796 677 740 664 Q 736 664 655 643 Q 628 637 607 632 C 578 625 582 587 611 594 Z" fill="black" /></g></svg>