<?xml version='1.0' encoding='utf-8'?>
<svg xmlns="http://www.w3.org/2000/svg" version="1.1" viewBox="0 0 1024 1024"><g transform="scale(1, -1) translate(0, -900)"><path d="M 593 592 Q 752 646 762 638 Q 774 632 774 614 Q 774 568 758 486 Q 757 468 739 470 Q 714 477 693 482 Q 680 486 683 478 Q 684 471 704 452 Q 732 424 749 395 Q 756 386 766 390 Q 773 393 786 416 Q 804 446 812 521 Q 815 614 830 630 Q 840 639 834 649 Q 827 659 794 677 Q 782 683 730 668 Q 726 668 636 643 Q 612 636 593 631 C 564 623 565 582 593 592 Z" fill="black" /></g></svg>