<?xml version='1.0' encoding='utf-8'?>
<svg xmlns="http://www.w3.org/2000/svg" version="1.1" viewBox="0 0 1024 1024"><g transform="scale(1, -1) translate(0, -900)"><path d="M 368 138 Q 378 116 397 79 Q 404 63 414 64 Q 429 67 437 90 Q 464 145 466 219 Q 470 265 475 319 Q 479 362 500 390 Q 515 408 504 420 Q 485 439 441 458 Q 425 467 395 456 Q 296 423 141 407 C 111 404 146 367 175 374 Q 184 378 259 389 L 293 395 Q 401 416 413 404 Q 435 362 406 182 Q 405 166 398 164 Q 395 163 392 164 C 370 143 367 140 368 138 Z" fill="black" /></g></svg>