<?xml version='1.0' encoding='utf-8'?>
<svg xmlns="http://www.w3.org/2000/svg" version="1.1" viewBox="0 0 1024 1024"><g transform="scale(1, -1) translate(0, -900)"><path d="M 625 640 Q 659 653 751 672 Q 760 673 765 669 Q 777 665 777 645 Q 776 597 758 514 Q 757 498 740 498 Q 721 502 705 506 Q 692 510 694 502 Q 695 495 715 475 Q 737 450 749 423 Q 756 414 766 418 Q 773 421 786 444 Q 804 474 812 549 Q 815 642 830 658 Q 840 665 835 675 Q 828 685 799 704 Q 793 708 737 699 Q 713 699 617 673 C 588 665 597 630 625 640 Z" fill="black" /></g></svg>