<?xml version='1.0' encoding='utf-8'?>
<svg xmlns="http://www.w3.org/2000/svg" version="1.1" viewBox="0 0 1024 1024"><g transform="scale(1, -1) translate(0, -900)"><path d="M 368 405 Q 357 417 339 417 Q 333 417 327 414 Q 323 410 328 399 Q 354 348 334 204 Q 329 164 334 157 Q 335 155 338 152 Q 357 136 373 148 Q 409 172 539 192 Q 667 212 725 204 Q 745 202 751 196 Q 759 190 755 169 Q 743 131 733 92 Q 727 65 711 45 Q 702 32 672 35 Q 668 35 615 43 Q 601 45 602 39 Q 602 32 619 17 Q 657 -14 674 -39 Q 682 -49 682 -51 Q 692 -69 708 -59 Q 742 -38 762 -5 Q 782 27 797 98 Q 798 108 801 118 Q 808 144 829 182 Q 837 198 833 206 Q 831 208 830 210 Q 813 228 778 251 Q 760 263 733 251 Q 687 233 630 227 Q 597 224 583 222 L 554 220 Q 503 214 417 200 Q 391 194 384 200 Q 378 204 378 212 Q 376 332 388 370 C 396 411 393 395 368 405 Z" fill="black" /></g></svg>