<?xml version='1.0' encoding='utf-8'?>
<svg xmlns="http://www.w3.org/2000/svg" version="1.1" viewBox="0 0 1024 1024"><g transform="scale(1, -1) translate(0, -900)"><path d="M 388 662 Q 389 663 393 664 Q 414 670 434 677 Q 452 681 456 672 Q 477 600 465 248 Q 458 151 452 142 Q 449 139 385 151 Q 367 155 369 148 Q 417 108 445 77 Q 457 61 469 57 Q 476 53 484 62 Q 520 104 518 150 Q 509 318 510 590 Q 509 639 521 661 Q 531 677 521 687 Q 503 703 472 716 Q 456 722 410 699 Q 398 695 380 689 C 352 680 359 653 388 662 Z" fill="black" /></g></svg>