<?xml version='1.0' encoding='utf-8'?>
<svg xmlns="http://www.w3.org/2000/svg" version="1.1" viewBox="0 0 1024 1024"><g transform="scale(1, -1) translate(0, -900)"><path d="M 288 400 L 287 380 Q 286 365 282 347 L 274 318 Q 241 189 141 102 Q 125 87 123 83 Q 122 76 132 77 Q 171 78 231 143 Q 296 212 319 321 L 325 355 Q 329 389 332 406 L 336 435 Q 340 472 341 496 L 343 527 Q 343 533 349 561 Q 353 582 341 590 L 337 592 L 316 602 C 289 615 258 620 274 595 Q 293 577 294 515 L 294 488 Q 293 464 291 431 L 288 400 Z" fill="black" /></g></svg>