<?xml version='1.0' encoding='utf-8'?>
<svg xmlns="http://www.w3.org/2000/svg" version="1.1" viewBox="0 0 1024 1024"><g transform="scale(1, -1) translate(0, -900)"><path d="M 599 601 Q 641 617 746 637 Q 756 638 762 634 Q 772 628 773 611 Q 772 568 755 490 Q 752 471 734 473 Q 712 477 693 482 Q 680 486 683 478 Q 684 471 704 452 Q 729 427 744 399 Q 751 390 761 394 Q 768 397 781 418 Q 799 445 808 507 Q 814 610 830 625 Q 839 635 834 644 Q 827 654 794 673 Q 782 679 723 665 Q 711 665 587 634 C 558 627 571 591 599 601 Z" fill="black" /></g></svg>