<?xml version='1.0' encoding='utf-8'?>
<svg xmlns="http://www.w3.org/2000/svg" version="1.1" viewBox="0 0 1024 1024"><g transform="scale(1, -1) translate(0, -900)"><path d="M 614 618 Q 623 627 748 658 Q 755 659 762 655 Q 774 651 774 632 Q 773 587 758 506 Q 755 485 736 488 Q 712 492 692 495 Q 679 496 683 490 Q 684 483 706 465 Q 733 441 749 415 Q 756 406 766 410 Q 773 413 786 435 Q 802 465 811 532 Q 818 634 830 646 Q 840 655 835 665 Q 828 675 796 694 Q 784 703 730 688 Q 729 688 648 667 Q 620 661 601 656 C 572 649 587 605 614 618 Z" fill="black" /></g></svg>