<?xml version='1.0' encoding='utf-8'?>
<svg xmlns="http://www.w3.org/2000/svg" version="1.1" viewBox="0 0 1024 1024"><g transform="scale(1, -1) translate(0, -900)"><path d="M 252 366 Q 261 366 343 387 Q 359 391 364 384 Q 368 374 369 357 Q 378 197 373 100 Q 372 78 365 67 Q 361 64 305 75 Q 289 81 289 72 Q 332 32 356 2 Q 368 -14 380 -19 Q 387 -22 395 -14 Q 431 34 430 74 Q 408 336 428 373 Q 438 389 428 398 Q 410 414 379 426 Q 363 433 350 426 Q 314 405 249 391 C 220 384 222 361 252 366 Z" fill="black" /></g></svg>