<?xml version='1.0' encoding='utf-8'?>
<svg xmlns="http://www.w3.org/2000/svg" version="1.1" viewBox="0 0 1024 1024"><g transform="scale(1, -1) translate(0, -900)"><path d="M 433 361 Q 439 395 447 416 L 467 457 Q 473 466 488 482 Q 505 498 490 514 Q 480 523 431 546 Q 416 553 396 545 Q 370 535 343 527 L 294 515 Q 235 510 229 508 Q 225 506 225 501 Q 231 487 261 484 Q 278 483 294 488 L 341 496 Q 400 508 406 501 Q 417 492 412 466 Q 410 449 409 445 L 402 413 L 390 368 C 382 339 427 332 433 361 Z" fill="black" /></g></svg>