<?xml version='1.0' encoding='utf-8'?>
<svg xmlns="http://www.w3.org/2000/svg" version="1.1" viewBox="0 0 1024 1024"><g transform="scale(1, -1) translate(0, -900)"><path d="M 583 222 Q 612 245 629 312 L 646 372 Q 651 388 660 399 Q 670 410 664 417 Q 657 427 617 445 Q 603 452 586 442 Q 561 427 432 406 Q 402 402 385 400 C 355 396 358 365 388 370 Q 396 370 446 382 Q 510 398 570 403 Q 587 404 590 396 Q 593 390 593 376 Q 593 290 559 283 Q 547 280 517 290 Q 507 294 507 289 Q 507 283 512 277 Q 543 240 553 221 L 554 220 C 564 204 564 204 583 222 Z" fill="black" /></g></svg>