<?xml version='1.0' encoding='utf-8'?>
<svg xmlns="http://www.w3.org/2000/svg" version="1.1" viewBox="0 0 1024 1024"><g transform="scale(1, -1) translate(0, -900)"><path d="M 587 662 Q 580 666 571 670 Q 553 676 545 668 Q 539 662 547 652 Q 559 625 561 482 Q 561 392 550 340 Q 544 321 558 306 Q 577 290 595 303 Q 649 337 820 346 Q 851 347 864 335 Q 874 325 846 170 Q 840 127 820 99 Q 811 86 786 89 Q 755 96 726 102 Q 710 106 711 99 Q 711 93 720 86 Q 775 37 794 3 Q 804 -16 821 -6 Q 881 28 890 87 Q 906 166 917 254 Q 924 291 943 321 Q 956 337 945 350 Q 927 369 891 391 Q 870 403 843 391 Q 807 378 774 374 Q 726 370 630 353 Q 603 349 603 370 Q 599 571 614 618 C 624 673 616 653 587 662 Z" fill="black" /></g></svg>