<?xml version='1.0' encoding='utf-8'?>
<svg xmlns="http://www.w3.org/2000/svg" version="1.1" viewBox="0 0 1024 1024"><g transform="scale(1, -1) translate(0, -900)"><path d="M 625 591 Q 655 606 765 632 Q 772 633 778 630 Q 788 626 789 607 Q 790 564 777 485 Q 776 466 757 468 Q 732 474 713 478 Q 700 482 703 474 Q 704 465 725 446 Q 753 418 769 388 Q 776 379 786 383 Q 793 386 806 409 Q 824 439 831 513 Q 834 604 849 621 Q 859 631 854 640 Q 845 650 812 670 Q 800 676 745 662 Q 739 662 618 629 C 589 621 597 579 625 591 Z" fill="black" /></g></svg>