<?xml version='1.0' encoding='utf-8'?>
<svg xmlns="http://www.w3.org/2000/svg" version="1.1" viewBox="0 0 1024 1024"><g transform="scale(1, -1) translate(0, -900)"><path d="M 584 617 Q 592 617 610 623 Q 649 638 737 655 Q 755 659 760 642 Q 762 637 762 630 Q 760 590 743 515 Q 741 500 729 497 Q 715 494 668 505 Q 655 508 657 500 Q 661 490 682 474 Q 710 449 729 418 Q 743 400 762 429 L 767 437 Q 786 465 800 544 Q 811 631 822 641 Q 833 651 827 661 Q 820 670 787 692 Q 774 700 717 686 Q 707 686 582 655 C 553 648 554 612 584 617 Z" fill="black" /></g></svg>