<?xml version='1.0' encoding='utf-8'?>
<svg xmlns="http://www.w3.org/2000/svg" version="1.1" viewBox="0 0 1024 1024"><g transform="scale(1, -1) translate(0, -900)"><path d="M 280 490 Q 272 188 276 31 Q 277 22 284 14 Q 298 2 302 20 Q 318 74 318 498 L 318 535 Q 318 557 318 590 L 318 617 Q 318 645 320 684 L 322 714 Q 322 745 337 776 Q 345 792 340 800 Q 337 805 331 809 Q 318 823 289 831 Q 265 839 253 828 Q 247 822 257 811 Q 272 792 277 782 Q 284 767 284 754 Q 285 739 283 703 L 283 675 Q 282 635 282 610 L 282 582 Q 281 543 280 523 L 280 490 Z" fill="black" /></g></svg>