<?xml version='1.0' encoding='utf-8'?>
<svg xmlns="http://www.w3.org/2000/svg" version="1.1" viewBox="0 0 1024 1024"><g transform="scale(1, -1) translate(0, -900)"><path d="M 564 286 Q 619 325 796 334 Q 826 337 841 325 Q 853 314 841 270 Q 823 138 808 98 Q 802 82 792 71 Q 782 59 757 65 L 693 82 Q 677 86 678 79 Q 678 74 686 67 Q 744 14 764 -24 Q 773 -44 792 -33 Q 850 -3 864 63 Q 882 145 896 243 Q 903 280 921 312 Q 935 327 923 340 Q 905 363 868 382 Q 851 392 825 384 L 783 369 Q 765 365 747 363 Q 698 359 598 339 Q 573 335 570 355 Q 570 568 584 617 C 589 647 590 650 582 655 Q 580 657 578 657 C 577 660 577 660 564 666 Q 539 686 523 678 Q 521 677 519 675 Q 514 669 521 660 Q 533 632 530 460 Q 530 380 516 326 Q 510 308 524 291 Q 543 275 564 286 Z" fill="black" /></g></svg>