<?xml version='1.0' encoding='utf-8'?>
<svg xmlns="http://www.w3.org/2000/svg" version="1.1" viewBox="0 0 1024 1024"><g transform="scale(1, -1) translate(0, -900)"><path d="M 593 628 Q 592 629 591 630 L 579 637 Q 573 641 567 643 Q 549 649 541 640 Q 535 636 543 624 Q 564 584 552 376 Q 549 343 542 313 Q 536 294 551 279 Q 569 264 591 277 Q 645 313 793 322 Q 842 329 859 314 Q 869 304 842 150 Q 836 107 816 79 Q 807 69 785 72 Q 755 79 730 85 Q 714 89 715 83 Q 714 77 723 70 Q 772 19 788 -15 Q 797 -34 815 -25 Q 878 8 886 67 Q 902 146 913 234 Q 920 271 939 301 Q 952 317 940 330 Q 922 349 886 370 Q 865 382 838 370 Q 801 354 768 351 Q 719 345 621 326 Q 596 322 596 342 Q 596 579 611 594 C 616 616 616 616 593 628 Z" fill="black" /></g></svg>