<?xml version='1.0' encoding='utf-8'?>
<svg xmlns="http://www.w3.org/2000/svg" version="1.1" viewBox="0 0 1024 1024"><g transform="scale(1, -1) translate(0, -900)"><path d="M 357 94 Q 362 82 384 34 Q 396 8 413 29 Q 417 35 421 44 Q 446 90 461 245 Q 464 278 482 312 Q 492 327 490 335 L 486 339 Q 467 357 428 373 Q 411 382 335 351 Q 226 320 147 310 C 117 306 131 271 161 276 Q 171 276 200 285 Q 220 291 243 296 L 278 306 Q 390 338 404 326 Q 412 321 412 303 Q 410 213 394 130 Q 393 118 386 114 L 385 114 C 370 88 350 111 357 94 Z" fill="black" /></g></svg>