<?xml version='1.0' encoding='utf-8'?>
<svg xmlns="http://www.w3.org/2000/svg" version="1.1" viewBox="0 0 1024 1024"><g transform="scale(1, -1) translate(0, -900)"><path d="M 454 361 Q 461 401 470 427 L 486 468 Q 495 490 510 503 Q 523 519 511 534 Q 447 579 399 556 Q 384 552 372 546 L 332 536 Q 308 533 280 525 L 239 520 Q 208 517 177 514 Q 162 513 164 505 Q 165 498 182 491 Q 204 481 237 490 Q 240 491 243 490 L 278 496 Q 303 502 333 506 L 372 512 Q 385 516 399 517 Q 420 521 428 513 Q 440 504 435 459 L 429 423 Q 423 393 418 365 C 413 335 449 332 454 361 Z" fill="black" /></g></svg>