<?xml version='1.0' encoding='utf-8'?>
<svg xmlns="http://www.w3.org/2000/svg" version="1.1" viewBox="0 0 1024 1024"><g transform="scale(1, -1) translate(0, -900)"><path d="M 590 631 Q 580 638 567 643 Q 549 649 541 640 Q 535 636 543 624 Q 558 594 556 532 Q 555 483 554 420 Q 554 359 542 309 Q 536 290 551 275 Q 569 260 591 273 Q 639 306 786 318 Q 837 325 853 310 Q 866 300 853 255 Q 846 117 821 78 Q 814 68 792 70 Q 758 79 730 86 Q 714 90 715 83 Q 715 77 724 70 Q 778 19 797 -16 Q 807 -35 824 -25 Q 881 8 894 88 Q 915 263 921 274 Q 925 287 933 300 Q 946 316 934 328 Q 915 347 878 367 Q 857 379 830 365 Q 796 350 762 347 Q 716 341 621 322 Q 596 318 596 338 Q 592 536 610 590 C 616 619 616 619 590 631 Z" fill="black" /></g></svg>