<?xml version='1.0' encoding='utf-8'?>
<svg xmlns="http://www.w3.org/2000/svg" version="1.1" viewBox="0 0 1024 1024"><g transform="scale(1, -1) translate(0, -900)"><path d="M 586 630 Q 582 634 578 636 L 565 643 Q 559 647 551 650 Q 533 656 525 648 Q 519 642 527 632 Q 539 605 541 462 Q 541 372 530 320 Q 524 301 538 287 Q 556 272 577 284 Q 628 314 773 320 Q 818 320 830 308 Q 842 296 827 251 Q 823 200 814 147 Q 810 105 791 79 Q 782 67 760 70 Q 726 79 698 86 Q 682 90 683 83 Q 683 77 692 70 Q 746 19 765 -16 Q 775 -35 792 -25 Q 852 6 860 65 Q 873 141 883 226 Q 890 263 909 294 Q 922 310 911 323 Q 893 344 857 364 Q 836 377 808 364 Q 705 349 601 331 Q 579 332 583 377 Q 582 432 583 488 Q 582 552 591 590 C 596 620 596 624 586 630 Z" fill="black" /></g></svg>