<?xml version='1.0' encoding='utf-8'?>
<svg xmlns="http://www.w3.org/2000/svg" version="1.1" viewBox="0 0 1024 1024"><g transform="scale(1, -1) translate(0, -900)"><path d="M 225 527 Q 152 478 145 478 Q 139 482 139 495 Q 139 597 145 625 L 145 633 C 146 643 146 643 139 649 Q 104 680 86 670 Q 80 666 88 653 Q 102 626 104 607 L 104 600 Q 108 496 98 465 Q 94 455 89 447 Q 76 421 100 390 Q 107 380 112 377 Q 122 371 131 388 Q 153 421 229 510 Q 229 512 231 512 C 251 534 250 544 225 527 Z" fill="black" /></g></svg>