<?xml version='1.0' encoding='utf-8'?>
<svg xmlns="http://www.w3.org/2000/svg" version="1.1" viewBox="0 0 1024 1024"><g transform="scale(1, -1) translate(0, -900)"><path d="M 605 600 Q 609 601 613 602 Q 647 618 734 645 Q 741 646 747 643 Q 759 639 758 619 Q 757 574 739 493 Q 736 472 717 475 Q 695 479 677 483 Q 664 486 667 478 Q 668 469 690 450 Q 714 423 727 396 Q 734 387 744 391 Q 751 394 765 416 Q 783 443 797 529 Q 809 619 820 631 Q 830 640 825 651 Q 818 661 785 684 Q 772 693 719 677 Q 695 677 601 643 C 573 633 577 590 605 600 Z" fill="black" /></g></svg>