<?xml version='1.0' encoding='utf-8'?>
<svg xmlns="http://www.w3.org/2000/svg" version="1.1" viewBox="0 0 1024 1024"><g transform="scale(1, -1) translate(0, -900)"><path d="M 610 590 Q 664 608 741 625 Q 748 626 754 623 Q 764 619 766 601 Q 766 558 753 482 Q 752 460 731 463 Q 707 464 688 467 Q 675 468 679 462 Q 680 455 703 438 Q 730 416 745 391 Q 752 382 762 386 Q 769 389 781 411 Q 796 438 805 511 Q 808 598 823 615 Q 833 624 827 633 Q 820 643 788 663 Q 775 670 760 666 Q 750 662 720 656 Q 678 646 645 638 Q 623 634 605 628 C 576 619 549 570 610 590 Z" fill="black" /></g></svg>