<?xml version='1.0' encoding='utf-8'?>
<svg xmlns="http://www.w3.org/2000/svg" version="1.1" viewBox="0 0 1024 1024"><g transform="scale(1, -1) translate(0, -900)"><path d="M 596 240 Q 620 271 635 367 Q 639 397 650 411 Q 659 421 654 430 Q 647 439 606 455 Q 590 462 575 451 Q 535 427 387 407 C 357 403 364 373 394 377 Q 398 376 405 378 Q 573 426 580 408 Q 586 401 586 383 Q 587 332 578 308 Q 566 283 544 286 Q 525 290 508 297 Q 489 304 502 284 Q 529 257 545 234 C 563 210 580 215 596 240 Z" fill="black" /></g></svg>