<?xml version='1.0' encoding='utf-8'?>
<svg xmlns="http://www.w3.org/2000/svg" version="1.1" viewBox="0 0 1024 1024"><g transform="scale(1, -1) translate(0, -900)"><path d="M 303 322 Q 306 331 311 335 Q 318 342 316 350 Q 312 362 280 385 Q 270 392 261 389 Q 251 386 257 373 Q 264 354 258 333 Q 255 324 252 314 L 239 273 Q 223 228 206 201 Q 197 186 200 175 Q 201 168 216 164 Q 255 152 298 123 L 335 97 Q 371 72 417 29 Q 439 11 453 11 Q 471 11 472 27 Q 473 45 450 84 Q 440 103 415 115 Q 390 127 366 137 L 324 155 Q 282 171 255 180 Q 236 184 246 203 Q 270 254 283 281 L 303 322 Z" fill="black" /></g></svg>