<?xml version='1.0' encoding='utf-8'?>
<svg xmlns="http://www.w3.org/2000/svg" version="1.1" viewBox="0 0 1024 1024"><g transform="scale(1, -1) translate(0, -900)"><path d="M 581 638 Q 572 644 563 647 Q 545 653 537 644 Q 531 640 539 628 Q 554 598 552 536 Q 551 487 550 424 Q 550 363 538 313 Q 532 294 547 279 Q 566 263 584 275 Q 603 288 642 297 Q 723 318 808 324 Q 839 325 851 314 Q 861 304 834 150 Q 828 107 808 79 Q 799 69 778 72 Q 747 82 718 89 Q 702 93 703 87 Q 702 81 711 73 Q 763 21 780 -14 Q 789 -35 807 -25 Q 870 8 878 67 Q 894 146 905 234 Q 912 271 931 301 Q 944 317 932 330 Q 914 349 878 370 Q 857 382 830 370 Q 794 354 761 351 Q 715 345 617 326 Q 592 322 592 342 Q 588 540 606 594 Q 606 597 607 599 C 613 627 609 628 581 638 Z" fill="black" /></g></svg>