<?xml version='1.0' encoding='utf-8'?>
<svg xmlns="http://www.w3.org/2000/svg" version="1.1" viewBox="0 0 1024 1024"><g transform="scale(1, -1) translate(0, -900)"><path d="M 633 607 Q 670 623 768 648 Q 777 649 783 645 Q 793 641 794 624 Q 794 581 781 506 Q 780 488 763 490 Q 741 494 725 498 Q 712 502 715 494 Q 716 487 736 468 Q 760 441 773 415 Q 780 406 790 410 Q 797 413 809 435 Q 824 462 833 535 Q 836 622 851 639 Q 860 648 855 657 Q 846 667 814 685 Q 802 691 751 677 Q 748 677 624 643 C 595 635 605 596 633 607 Z" fill="black" /></g></svg>