<?xml version='1.0' encoding='utf-8'?>
<svg xmlns="http://www.w3.org/2000/svg" version="1.1" viewBox="0 0 1024 1024"><g transform="scale(1, -1) translate(0, -900)"><path d="M 392 422 Q 380 432 364 438 Q 354 442 350 439 C 336 443 336 443 342 422 Q 364 379 349 226 Q 337 190 352 175 Q 371 159 388 171 Q 440 204 598 218 Q 745 236 764 215 Q 774 205 763 166 Q 756 130 747 92 Q 740 64 725 45 Q 713 33 662 40 Q 613 53 615 43 Q 615 37 624 30 Q 676 -16 695 -49 Q 704 -68 720 -58 Q 771 -28 791 39 Q 824 177 841 201 Q 854 216 843 228 Q 827 247 793 269 Q 774 281 746 270 Q 691 251 640 248 Q 622 247 601 244 L 567 240 Q 507 236 420 220 Q 398 213 393 234 Q 393 360 403 392 C 407 414 407 414 392 422 Z" fill="black" /></g></svg>