<?xml version='1.0' encoding='utf-8'?>
<svg xmlns="http://www.w3.org/2000/svg" version="1.1" viewBox="0 0 1024 1024"><g transform="scale(1, -1) translate(0, -900)"><path d="M 609 650 Q 600 656 591 659 Q 573 665 565 657 Q 559 651 567 641 Q 579 614 576 448 Q 576 370 562 317 Q 558 298 571 283 Q 589 268 612 282 Q 672 322 840 337 Q 871 341 884 328 Q 896 318 884 275 Q 880 221 871 164 Q 865 119 847 90 Q 838 80 817 83 Q 783 93 754 101 Q 738 105 739 99 Q 738 93 747 86 Q 802 34 821 -3 Q 830 -24 847 -13 Q 908 20 917 81 Q 930 162 940 251 Q 946 288 963 319 Q 975 335 963 347 Q 945 366 909 385 Q 887 397 860 384 Q 824 368 789 362 Q 740 355 640 332 Q 618 328 616 346 Q 619 571 633 607 C 643 658 637 640 609 650 Z" fill="black" /></g></svg>