<?xml version='1.0' encoding='utf-8'?>
<svg xmlns="http://www.w3.org/2000/svg" version="1.1" viewBox="0 0 1024 1024"><g transform="scale(1, -1) translate(0, -900)"><path d="M 380 163 Q 408 181 461 191 Q 573 216 692 220 Q 722 223 735 211 Q 744 204 725 92 Q 721 65 709 48 Q 699 36 645 41 Q 602 45 603 39 Q 603 33 613 27 Q 665 -16 684 -48 Q 694 -67 711 -55 Q 759 -25 769 20 Q 797 173 807 188 Q 808 195 813 200 Q 825 216 814 228 Q 796 247 761 266 Q 740 278 714 265 Q 690 256 596 240 L 545 234 Q 490 228 412 213 Q 390 206 385 226 Q 385 350 394 377 C 398 400 398 400 387 407 L 386 408 C 385 412 385 412 377 415 Q 367 422 356 426 Q 340 430 334 423 Q 328 419 335 409 Q 351 382 342 227 Q 339 214 337 200 Q 331 181 345 167 Q 363 151 380 163 Z" fill="black" /></g></svg>