<?xml version='1.0' encoding='utf-8'?>
<svg xmlns="http://www.w3.org/2000/svg" version="1.1" viewBox="0 0 1024 1024"><g transform="scale(1, -1) translate(0, -900)"><path d="M 602 610 Q 606 610 623 617 Q 664 632 755 655 Q 776 658 779 635 Q 780 633 780 630 Q 778 586 761 511 Q 759 490 739 493 L 692 505 Q 679 508 682 500 Q 682 493 700 476 Q 733 445 750 414 Q 757 404 766 409 Q 774 412 788 433 Q 804 457 817 542 Q 825 627 839 643 Q 849 651 844 661 Q 837 671 804 690 Q 792 698 735 682 Q 725 682 649 659 L 602 647 C 573 640 573 601 602 610 Z" fill="black" /></g></svg>