<?xml version='1.0' encoding='utf-8'?>
<svg xmlns="http://www.w3.org/2000/svg" version="1.1" viewBox="0 0 1024 1024"><g transform="scale(1, -1) translate(0, -900)"><path d="M 465 184 Q 458 358 470 381 Q 479 397 471 406 Q 464 418 428 435 Q 410 444 353 425 Q 277 407 161 389 C 131 384 147 350 175 360 Q 202 373 380 403 Q 396 407 405 398 Q 412 394 415 360 Q 430 108 408 88 Q 398 82 349 96 Q 336 99 337 91 Q 338 85 347 81 Q 390 45 413 18 Q 429 2 438 4 Q 448 7 457 28 Q 472 71 466 162 L 465 184 Z" fill="black" /></g></svg>