<?xml version='1.0' encoding='utf-8'?>
<svg xmlns="http://www.w3.org/2000/svg" version="1.1" viewBox="0 0 1024 1024"><g transform="scale(1, -1) translate(0, -900)"><path d="M 605 633 Q 592 642 579 647 Q 561 653 553 644 Q 547 640 555 628 Q 570 598 568 536 Q 567 487 566 424 Q 566 363 554 313 Q 548 294 563 279 Q 581 264 603 277 Q 652 310 824 320 Q 860 329 879 310 Q 891 300 877 257 Q 870 205 860 149 Q 853 106 833 79 Q 824 67 800 70 Q 766 79 738 86 Q 722 90 723 83 Q 723 77 732 70 Q 786 19 805 -16 Q 815 -35 832 -26 Q 892 8 903 65 Q 919 143 932 230 Q 939 267 958 297 Q 971 313 960 325 Q 944 344 907 366 Q 886 379 858 366 Q 821 351 785 348 Q 736 344 633 325 Q 608 321 608 342 Q 607 411 609 482 Q 609 551 622 595 C 628 622 628 622 605 633 Z" fill="black" /></g></svg>