<?xml version='1.0' encoding='utf-8'?>
<svg xmlns="http://www.w3.org/2000/svg" version="1.1" viewBox="0 0 1024 1024"><g transform="scale(1, -1) translate(0, -900)"><path d="M 654 46 Q 691 0 717 -45 Q 727 -66 740 -65 Q 759 -64 777 -25 Q 799 18 795 72 Q 786 216 783 480 Q 782 517 801 543 Q 811 558 801 570 Q 779 592 718 621 Q 697 631 679 621 Q 609 593 515 574 L 470 566 Q 356 548 274 543 C 244 541 261 501 291 505 Q 324 508 625 565 Q 677 575 704 554 Q 738 520 721 193 Q 720 103 712 76 Q 706 54 685 64 Q 682 65 680 67 C 650 64 641 63 654 46 Z" fill="black" /></g></svg>