<?xml version='1.0' encoding='utf-8'?>
<svg xmlns="http://www.w3.org/2000/svg" version="1.1" viewBox="0 0 1024 1024"><g transform="scale(1, -1) translate(0, -900)"><path d="M 235 638 L 118 613 C 89 607 84 582 114 579 Q 129 574 166 584 L 172 586 L 206 598 Q 218 602 237 606 L 274 613 Q 388 639 414 639 Q 421 640 427 639 Q 443 639 443 629 Q 445 624 421 584 Q 402 553 406 549 Q 412 545 429 555 Q 443 561 465 578 Q 476 588 492 590 Q 525 596 525 606 Q 523 617 475 659 L 463 668 Q 451 680 440 680 Q 429 680 390 670 Q 361 666 297 651 Q 286 647 274 645 L 235 638 Z" fill="black" /></g></svg>