<?xml version='1.0' encoding='utf-8'?>
<svg xmlns="http://www.w3.org/2000/svg" version="1.1" viewBox="0 0 1024 1024"><g transform="scale(1, -1) translate(0, -900)"><path d="M 211 621 Q 247 637 336 662 Q 343 663 350 660 Q 360 656 361 636 Q 360 591 342 510 Q 341 492 324 494 Q 299 501 281 506 Q 268 510 271 502 Q 271 495 291 475 Q 318 447 332 419 Q 339 410 349 414 Q 356 417 369 439 Q 385 463 396 529 Q 402 634 418 650 Q 428 657 423 668 Q 416 678 385 699 Q 369 708 203 662 Q 202 662 201 661 L 200 662 C 171 656 183 610 211 621 Z" fill="black" /></g></svg>