<?xml version='1.0' encoding='utf-8'?>
<svg xmlns="http://www.w3.org/2000/svg" version="1.1" viewBox="0 0 1024 1024"><g transform="scale(1, -1) translate(0, -900)"><path d="M 400 25 Q 414 6 445 -41 Q 454 -53 460 -53 L 462 -53 Q 474 -53 486 -28 Q 504 4 500 49 Q 494 137 488 282 Q 486 310 500 328 Q 506 337 502 343 Q 502 345 500 349 Q 483 365 437 384 Q 423 390 378 368 Q 369 366 355 358 Q 347 353 326 349 C 297 342 309 312 338 319 Q 342 319 382 331 Q 416 342 429 335 Q 451 315 443 121 Q 445 67 439 51 Q 435 36 422 39 C 397 29 397 29 400 25 Z" fill="black" /></g></svg>