<?xml version='1.0' encoding='utf-8'?>
<svg xmlns="http://www.w3.org/2000/svg" version="1.1" viewBox="0 0 1024 1024"><g transform="scale(1, -1) translate(0, -900)"><path d="M 615 604 Q 655 620 758 641 Q 767 642 773 638 Q 785 634 785 614 Q 784 568 766 485 Q 765 464 744 467 Q 711 476 685 483 Q 672 486 675 478 Q 676 469 699 451 Q 735 420 756 388 Q 763 379 773 383 Q 780 386 794 409 Q 812 436 822 503 Q 828 611 844 628 Q 854 637 849 647 Q 842 657 809 678 Q 797 685 738 671 Q 717 671 611 642 C 582 634 557 583 615 604 Z" fill="black" /></g></svg>