<?xml version='1.0' encoding='utf-8'?>
<svg xmlns="http://www.w3.org/2000/svg" version="1.1" viewBox="0 0 1024 1024"><g transform="scale(1, -1) translate(0, -900)"><path d="M 696 99 Q 729 139 760 197 Q 773 222 793 237 Q 811 250 800 263 Q 790 276 761 288 Q 740 297 715 286 Q 687 276 650 265 Q 613 255 551 248 Q 538 247 534 241 Q 530 234 547 227 Q 581 214 627 227 Q 685 248 697 247 Q 713 244 709 226 Q 691 166 659 125 L 631 95 Q 562 40 449 15 Q 436 12 446 3 Q 452 -1 491 1 Q 581 8 660 65 L 696 99 Z" fill="black" /></g></svg>