<?xml version='1.0' encoding='utf-8'?>
<svg xmlns="http://www.w3.org/2000/svg" version="1.1" viewBox="0 0 1024 1024"><g transform="scale(1, -1) translate(0, -900)"><path d="M 549 306 Q 564 294 577 298 L 617 316 Q 630 321 645 324 Q 741 349 809 351 Q 845 351 857 343 Q 869 333 858 289 Q 839 118 808 73 Q 796 61 757 73 L 709 86 Q 693 90 694 83 Q 694 76 715 57 Q 757 18 774 -10 Q 777 -14 780 -20 Q 789 -39 806 -29 Q 866 4 880 73 Q 898 159 911 263 Q 918 300 937 332 Q 945 345 942 351 Q 941 355 937 359 Q 919 378 883 398 Q 866 408 845 401 L 800 386 Q 783 382 766 379 Q 723 376 622 355 Q 595 351 593 371 Q 589 568 602 610 C 607 640 608 643 602 647 Q 599 651 596 651 L 585 661 Q 550 684 535 670 Q 529 664 537 655 Q 549 625 551 484 Q 551 392 540 341 Q 534 321 549 306 Z" fill="black" /></g></svg>