<?xml version='1.0' encoding='utf-8'?>
<svg xmlns="http://www.w3.org/2000/svg" version="1.1" viewBox="0 0 1024 1024"><g transform="scale(1, -1) translate(0, -900)"><path d="M 647 228 Q 668 258 685 337 Q 689 362 700 375 Q 710 385 705 393 Q 698 402 659 420 Q 644 427 629 417 Q 611 407 544 394 Q 487 381 438 376 C 408 373 410 342 440 344 Q 446 343 455 345 Q 629 390 639 376 Q 643 370 643 353 Q 642 307 632 285 Q 619 263 599 266 Q 583 270 567 277 Q 549 283 561 265 Q 583 243 597 223 C 615 199 632 202 647 228 Z" fill="black" /></g></svg>