<?xml version='1.0' encoding='utf-8'?>
<svg xmlns="http://www.w3.org/2000/svg" version="1.1" viewBox="0 0 1024 1024"><g transform="scale(1, -1) translate(0, -900)"><path d="M 571 611 Q 529 604 476 585 L 435 574 Q 366 559 366 556 Q 363 552 378 544 Q 399 535 441 545 L 477 557 Q 513 570 568 583 L 608 592 Q 675 611 696 603 Q 700 600 699 585 Q 695 546 690 527 L 685 498 Q 686 494 688 488 Q 692 475 703 477 Q 713 478 736 516 Q 746 559 775 585 Q 788 598 775 611 Q 759 624 717 642 Q 704 648 631 626 Q 628 626 616 622 L 571 611 Z" fill="black" /></g></svg>