<?xml version='1.0' encoding='utf-8'?>
<svg xmlns="http://www.w3.org/2000/svg" version="1.1" viewBox="0 0 1024 1024"><g transform="scale(1, -1) translate(0, -900)"><path d="M 357 104 Q 375 76 389 45 Q 399 26 408 24 Q 418 24 427 45 Q 437 78 439 174 Q 433 459 442 489 Q 451 508 439 517 Q 432 527 400 543 Q 388 549 299 523 L 262 514 Q 256 515 252 513 Q 209 503 155 496 C 125 492 133 461 162 470 Q 238 495 340 507 Q 368 511 377 500 Q 393 484 386 234 Q 386 137 374 122 C 365 93 350 116 357 104 Z" fill="black" /></g></svg>