<?xml version='1.0' encoding='utf-8'?>
<svg xmlns="http://www.w3.org/2000/svg" version="1.1" viewBox="0 0 1024 1024"><g transform="scale(1, -1) translate(0, -900)"><path d="M 615 375 Q 616 397 619 423 Q 620 438 611 445 Q 599 455 580 461 Q 570 462 563 459 Q 559 455 563 441 Q 576 410 576 380 Q 579 277 611 250 Q 650 220 738 221 Q 807 224 860 269 Q 876 282 864 304 Q 854 319 836 369 Q 835 382 829 386 Q 823 389 820 373 Q 798 318 785 301 Q 778 291 754 282 Q 699 267 650 283 Q 631 292 624 304 Q 615 322 614 357 L 615 375 Z" fill="black" /></g></svg>