<?xml version='1.0' encoding='utf-8'?>
<svg xmlns="http://www.w3.org/2000/svg" version="1.1" viewBox="0 0 1024 1024"><g transform="scale(1, -1) translate(0, -900)"><path d="M 699 373 Q 699 372 700 371 Q 704 356 715 356 Q 736 359 765 420 Q 781 468 815 493 Q 833 508 819 522 Q 803 538 758 564 Q 743 573 673 554 Q 649 553 635 547 L 581 536 Q 530 527 486 515 L 437 503 Q 367 487 322 481 Q 315 481 310 479 C 291 476 291 476 309 466 Q 310 465 317 460 Q 350 445 369 453 Q 397 463 441 475 L 484 486 Q 526 496 579 507 L 628 516 Q 709 537 732 524 Q 739 520 733 498 Q 712 417 704 402 C 695 379 695 379 699 373 Z" fill="black" /></g></svg>