<?xml version='1.0' encoding='utf-8'?>
<svg xmlns="http://www.w3.org/2000/svg" version="1.1" viewBox="0 0 1024 1024"><g transform="scale(1, -1) translate(0, -900)"><path d="M 389 404 Q 390 426 392 429 Q 396 439 388 447 Q 382 454 354 465 Q 344 466 340 464 Q 336 460 341 448 Q 366 402 346 336 Q 345 335 344 332 Q 337 310 310 287 Q 303 280 305 266 Q 308 247 316 238 Q 323 231 333 239 Q 375 273 494 336 Q 506 340 508 347 Q 509 350 505 351 Q 498 352 395 315 Q 386 312 384 316 Q 383 317 387 386 L 389 404 Z" fill="black" /></g></svg>