<?xml version='1.0' encoding='utf-8'?>
<svg xmlns="http://www.w3.org/2000/svg" version="1.1" viewBox="0 0 1024 1024"><g transform="scale(1, -1) translate(0, -900)"><path d="M 623 212 Q 624 251 632 294 Q 636 310 624 319 Q 612 331 591 338 Q 579 341 572 336 Q 566 333 571 317 Q 584 283 583 248 Q 580 71 612 28 Q 642 -2 689 -20 Q 786 -53 888 -24 Q 925 -11 961 20 Q 982 33 971 59 Q 961 90 951 180 Q 952 196 945 202 Q 939 206 933 188 Q 896 95 874 68 Q 864 52 827 42 Q 745 20 673 53 Q 645 68 636 86 Q 617 119 622 191 L 623 212 Z" fill="black" /></g></svg>