<?xml version='1.0' encoding='utf-8'?>
<svg xmlns="http://www.w3.org/2000/svg" version="1.1" viewBox="0 0 1024 1024"><g transform="scale(1, -1) translate(0, -900)"><path d="M 876 354 Q 866 375 848 436 Q 847 449 841 454 Q 835 455 832 441 Q 811 374 797 353 Q 787 341 754 333 Q 685 315 624 336 Q 596 349 591 378 L 590 389 Q 590 417 601 471 Q 605 487 595 495 Q 588 502 577 508 C 552 525 535 533 542 504 Q 542 501 544 495 Q 554 461 553 429 Q 547 336 577 307 Q 655 250 804 287 Q 838 297 872 321 Q 887 334 876 354 Z" fill="black" /></g></svg>