<?xml version='1.0' encoding='utf-8'?>
<svg xmlns="http://www.w3.org/2000/svg" version="1.1" viewBox="0 0 1024 1024"><g transform="scale(1, -1) translate(0, -900)"><path d="M 767 317 Q 768 310 774 302 Q 786 277 794 279 Q 807 280 820 308 Q 833 330 831 348 Q 807 537 840 584 Q 847 597 842 605 Q 820 624 780 642 Q 767 646 748 639 Q 706 623 654 612 L 628 606 Q 582 599 543 595 C 513 592 514 570 544 572 Q 553 572 562 573 Q 622 589 672 597 L 695 602 Q 711 606 728 608 Q 753 612 761 600 Q 774 584 774 529 Q 775 379 769 344 L 767 317 Z" fill="black" /></g></svg>