<?xml version='1.0' encoding='utf-8'?>
<svg xmlns="http://www.w3.org/2000/svg" version="1.1" viewBox="0 0 1024 1024"><g transform="scale(1, -1) translate(0, -900)"><path d="M 661 539 Q 661 538 662 536 Q 665 524 675 524 Q 690 527 711 561 Q 724 601 753 624 Q 769 637 756 649 Q 743 662 703 683 Q 690 692 674 686 Q 646 679 610 672 Q 604 672 601 670 L 549 660 Q 503 653 461 642 L 415 631 Q 375 624 347 620 Q 332 619 330 614 Q 326 610 342 600 Q 372 585 391 592 Q 404 596 422 602 L 460 612 Q 497 622 548 631 L 592 638 Q 662 656 684 645 Q 688 642 685 627 Q 673 573 663 559 C 657 546 657 546 661 539 Z" fill="black" /></g></svg>