<?xml version='1.0' encoding='utf-8'?>
<svg xmlns="http://www.w3.org/2000/svg" version="1.1" viewBox="0 0 1024 1024"><g transform="scale(1, -1) translate(0, -900)"><path d="M 860 376 Q 850 391 835 434 Q 834 446 828 449 Q 824 452 821 439 Q 802 390 791 375 Q 781 365 754 357 Q 694 342 641 362 Q 622 372 617 384 Q 613 394 613 410 L 613 423 Q 614 444 621 469 Q 625 482 616 489 Q 609 496 599 500 C 573 515 565 519 571 497 Q 571 494 573 489 Q 582 461 580 433 Q 576 361 602 337 Q 660 289 790 313 Q 793 316 799 316 Q 827 325 856 346 Q 869 358 860 376 Z" fill="black" /></g></svg>