<?xml version='1.0' encoding='utf-8'?>
<svg xmlns="http://www.w3.org/2000/svg" version="1.1" viewBox="0 0 1024 1024"><g transform="scale(1, -1) translate(0, -900)"><path d="M 370 428 Q 371 435 373 439 Q 376 452 367 461 Q 349 479 336 481 Q 326 482 322 480 Q 315 476 323 465 Q 359 393 319 336 Q 318 336 318 335 Q 308 322 312 305 Q 318 281 329 272 Q 336 266 346 279 Q 374 304 469 362 Q 482 371 485 376 Q 488 385 472 379 Q 436 367 397 354 Q 378 344 369 349 Q 363 355 368 409 L 370 428 Z" fill="black" /></g></svg>