<?xml version='1.0' encoding='utf-8'?>
<svg xmlns="http://www.w3.org/2000/svg" version="1.1" viewBox="0 0 1024 1024"><g transform="scale(1, -1) translate(0, -900)"><path d="M 850 372 Q 841 385 826 431 Q 825 443 820 445 Q 816 448 814 435 Q 796 386 785 369 Q 775 359 748 352 Q 685 337 632 357 Q 613 366 608 378 Q 604 388 603 402 L 604 414 Q 605 436 612 463 Q 615 475 607 482 Q 600 489 591 493 C 566 509 559 513 565 489 Q 565 488 567 482 Q 574 455 573 429 Q 570 354 595 333 Q 655 282 784 312 Q 785 313 789 313 Q 817 322 846 342 Q 859 354 850 372 Z" fill="black" /></g></svg>