<?xml version='1.0' encoding='utf-8'?>
<svg xmlns="http://www.w3.org/2000/svg" version="1.1" viewBox="0 0 1024 1024"><g transform="scale(1, -1) translate(0, -900)"><path d="M 615 148 Q 616 185 626 227 Q 630 243 619 251 Q 609 263 588 270 Q 578 274 570 269 Q 564 266 569 250 Q 579 217 578 185 Q 572 41 602 13 Q 620 -5 665 -18 Q 818 -54 925 24 Q 943 39 929 62 Q 916 84 897 152 Q 896 165 889 170 Q 883 173 880 157 Q 861 81 846 58 Q 816 22 721 25 Q 684 26 656 37 Q 631 49 623 64 Q 614 83 614 131 L 615 148 Z" fill="black" /></g></svg>