<?xml version='1.0' encoding='utf-8'?>
<svg xmlns="http://www.w3.org/2000/svg" version="1.1" viewBox="0 0 1024 1024"><g transform="scale(1, -1) translate(0, -900)"><path d="M 651 310 Q 664 283 676 275 Q 683 268 699 283 Q 706 290 733 343 Q 742 368 763 387 Q 773 397 766 409 Q 754 424 720 447 Q 705 456 643 439 Q 621 436 609 432 L 565 422 Q 508 415 487 405 L 447 396 Q 420 392 398 388 Q 383 387 389 377 Q 393 367 409 362 Q 412 362 450 367 L 485 377 Q 518 387 562 397 L 602 405 Q 671 423 692 412 Q 698 406 695 398 Q 676 335 662 328 C 649 313 649 313 651 310 Z" fill="black" /></g></svg>