<?xml version='1.0' encoding='utf-8'?>
<svg xmlns="http://www.w3.org/2000/svg" version="1.1" viewBox="0 0 1024 1024"><g transform="scale(1, -1) translate(0, -900)"><path d="M 434 399 Q 437 389 447 388 Q 462 391 488 441 Q 501 480 529 501 Q 542 513 531 525 Q 518 538 481 558 Q 468 567 454 561 Q 435 554 410 549 Q 406 549 404 547 L 360 537 Q 306 527 303 522 L 269 513 Q 245 509 230 505 Q 217 504 215 499 Q 214 495 226 487 Q 253 475 272 483 L 303 493 Q 327 502 360 509 L 400 519 Q 445 534 461 526 Q 467 522 462 505 Q 441 430 435 422 C 428 406 428 406 434 399 Z" fill="black" /></g></svg>