<?xml version='1.0' encoding='utf-8'?>
<svg xmlns="http://www.w3.org/2000/svg" version="1.1" viewBox="0 0 1024 1024"><g transform="scale(1, -1) translate(0, -900)"><path d="M 628 288 Q 641 266 653 259 Q 660 252 675 268 Q 682 275 702 320 Q 711 345 731 365 Q 743 375 733 387 Q 721 402 686 425 Q 670 434 656 428 Q 625 422 586 414 L 541 406 Q 454 394 453 391 L 412 382 Q 375 376 343 372 Q 328 371 333 361 Q 337 351 353 346 Q 360 343 415 355 L 452 363 Q 489 372 538 380 L 580 387 Q 641 399 656 386 Q 660 380 659 375 Q 649 320 639 312 C 627 290 627 290 628 288 Z" fill="black" /></g></svg>