<?xml version='1.0' encoding='utf-8'?>
<svg xmlns="http://www.w3.org/2000/svg" version="1.1" viewBox="0 0 1024 1024"><g transform="scale(1, -1) translate(0, -900)"><path d="M 915 67 Q 902 86 878 148 Q 875 163 869 166 Q 863 167 861 152 Q 845 82 833 60 Q 805 26 707 28 Q 670 29 640 40 Q 615 52 607 68 Q 598 86 599 123 L 600 139 Q 601 175 610 215 Q 614 231 603 239 Q 593 251 572 258 Q 562 262 554 257 Q 548 254 553 238 Q 563 205 562 173 Q 556 44 589 13 Q 610 -3 651 -15 Q 801 -52 913 28 Q 929 44 915 67 Z" fill="black" /></g></svg>