<?xml version='1.0' encoding='utf-8'?>
<svg xmlns="http://www.w3.org/2000/svg" version="1.1" viewBox="0 0 1024 1024"><g transform="scale(1, -1) translate(0, -900)"><path d="M 514 103 Q 511 16 504 8 Q 470 8 434 9 Q 476 -21 500 -45 Q 510 -58 520 -61 Q 527 -64 533 -57 Q 560 -18 559 16 Q 546 265 563 294 Q 572 307 563 314 Q 548 327 523 339 Q 511 343 501 340 Q 470 324 449 318 Q 440 317 430 312 L 410 309 Q 394 309 374 307 C 344 305 358 282 388 287 Q 394 288 401 289 Q 447 298 492 307 Q 505 311 510 303 Q 516 282 516 162 L 514 103 Z" fill="black" /></g></svg>