<?xml version='1.0' encoding='utf-8'?>
<svg xmlns="http://www.w3.org/2000/svg" version="1.1" viewBox="0 0 1024 1024"><g transform="scale(1, -1) translate(0, -900)"><path d="M 589 550 Q 589 547 591 542 Q 598 515 597 489 Q 594 419 619 398 Q 682 355 813 380 Q 820 383 828 384 Q 859 394 891 415 Q 904 427 893 445 Q 883 460 867 508 Q 866 518 860 521 Q 856 524 854 511 Q 839 457 829 440 Q 802 413 716 412 Q 683 412 658 421 Q 634 430 628 454 L 628 469 Q 629 493 636 523 Q 639 535 631 542 Q 624 549 613 553 C 586 567 585 568 589 550 Z" fill="black" /></g></svg>