<?xml version='1.0' encoding='utf-8'?>
<svg xmlns="http://www.w3.org/2000/svg" version="1.1" viewBox="0 0 1024 1024"><g transform="scale(1, -1) translate(0, -900)"><path d="M 773 -28 Q 777 -50 783 -58 Q 787 -64 794 -61 Q 801 -58 805 -46 Q 815 -10 816 181 Q 816 185 816 188 L 816 223 Q 816 269 818 329 L 822 368 Q 825 383 827 395 Q 830 410 818 418 Q 790 436 778 438 Q 768 442 754 435 Q 747 428 752 419 Q 770 389 770 352 L 771 318 Q 771 272 770 212 L 770 181 Q 770 -5 773 -28 Z" fill="black" /></g></svg>