<?xml version='1.0' encoding='utf-8'?>
<svg xmlns="http://www.w3.org/2000/svg" version="1.1" viewBox="0 0 1024 1024"><g transform="scale(1, -1) translate(0, -900)"><path d="M 816 188 Q 852 197 934 194 Q 950 193 957 203 Q 961 210 946 219 Q 900 249 839 228 Q 827 227 816 223 L 770 212 Q 742 208 717 199 Q 695 192 700 211 Q 709 245 717 258 Q 724 267 719 274 Q 715 283 687 294 Q 674 301 666 296 Q 657 289 665 279 Q 689 239 649 189 Q 640 179 641 169 Q 644 160 657 150 Q 667 143 677 153 Q 720 177 770 181 L 816 188 Z" fill="black" /></g></svg>