<?xml version='1.0' encoding='utf-8'?>
<svg xmlns="http://www.w3.org/2000/svg" version="1.1" viewBox="0 0 1024 1024"><g transform="scale(1, -1) translate(0, -900)"><path d="M 270 279 Q 273 298 276 307 Q 280 322 271 331 Q 253 352 239 354 Q 229 357 225 354 Q 218 350 225 338 Q 247 290 227 197 Q 224 173 214 158 Q 204 142 211 125 Q 221 101 234 92 Q 241 86 251 101 Q 269 132 330 209 Q 342 222 342 228 Q 342 238 328 227 Q 274 188 267 189 Q 263 190 262 200 Q 265 237 268 261 L 270 279 Z" fill="black" /></g></svg>