<?xml version='1.0' encoding='utf-8'?>
<svg xmlns="http://www.w3.org/2000/svg" version="1.1" viewBox="0 0 1024 1024"><g transform="scale(1, -1) translate(0, -900)"><path d="M 443 424 Q 453 412 461 407 Q 468 401 480 417 Q 487 424 504 474 Q 510 496 526 514 Q 536 523 527 533 Q 517 545 486 563 Q 471 570 420 553 L 381 544 Q 353 538 325 529 L 287 519 Q 259 513 238 508 Q 226 507 231 499 Q 235 492 248 488 Q 257 485 291 496 L 324 506 Q 348 515 380 521 L 416 530 Q 452 539 461 530 Q 465 524 465 518 Q 456 469 452 461 Q 449 452 441 450 C 428 440 428 440 443 424 Z" fill="black" /></g></svg>