<?xml version='1.0' encoding='utf-8'?>
<svg xmlns="http://www.w3.org/2000/svg" version="1.1" viewBox="0 0 1024 1024"><g transform="scale(1, -1) translate(0, -900)"><path d="M 661 441 Q 664 472 667 507 Q 668 523 669 537 L 671 575 Q 680 725 700 770 Q 707 785 695 796 Q 673 815 631 827 Q 606 833 596 826 Q 586 819 594 806 Q 619 767 622 719 Q 626 640 623 562 L 621 524 Q 617 464 611 429 L 605 395 Q 580 269 445 184 Q 432 175 432 171 Q 433 167 446 167 Q 459 163 492 177 Q 607 217 646 367 Q 646 371 649 377 L 661 441 Z" fill="black" /></g></svg>