<?xml version='1.0' encoding='utf-8'?>
<svg xmlns="http://www.w3.org/2000/svg" version="1.1" viewBox="0 0 1024 1024"><g transform="scale(1, -1) translate(0, -900)"><path d="M 460 435 Q 479 439 503 441 Q 560 445 613 453 Q 749 469 907 457 Q 931 456 937 464 Q 944 477 932 489 Q 902 516 858 535 Q 845 541 818 532 Q 725 513 526 485 L 482 480 Q 352 465 286 455 Q 214 442 105 440 Q 92 440 90 428 Q 90 416 109 402 Q 125 389 157 378 Q 167 374 186 382 Q 202 389 280 403 Q 338 418 405 427 L 460 435 Z" fill="black" /></g></svg>