<?xml version='1.0' encoding='utf-8'?>
<svg xmlns="http://www.w3.org/2000/svg" version="1.1" viewBox="0 0 1024 1024"><g transform="scale(1, -1) translate(0, -900)"><path d="M 580 151 Q 614 200 640 267 Q 653 304 676 320 Q 695 333 677 352 Q 658 371 624 390 Q 602 400 577 392 Q 531 371 467 366 Q 461 366 456 365 C 426 362 407 350 435 340 Q 462 325 503 334 Q 534 338 564 344 Q 586 348 584 325 Q 584 259 539 188 L 513 152 Q 494 128 468 107 Q 399 56 223 14 Q 207 13 215 2 Q 222 -5 253 -5 Q 367 5 433 31 Q 499 58 548 112 L 580 151 Z" fill="black" /></g></svg>