<?xml version='1.0' encoding='utf-8'?>
<svg xmlns="http://www.w3.org/2000/svg" version="1.1" viewBox="0 0 1024 1024"><g transform="scale(1, -1) translate(0, -900)"><path d="M 739 47 Q 727 46 668 73 Q 659 77 659 72 Q 658 68 668 59 Q 705 13 720 -18 Q 729 -37 741 -38 Q 765 -39 785 -14 Q 860 55 880 250 Q 889 355 891 502 Q 890 541 913 571 Q 925 584 923 591 Q 922 598 904 610 Q 880 628 848 637 Q 824 644 809 635 Q 790 628 746 616 Q 685 600 640 591 Q 618 587 601 583 C 572 577 555 561 585 562 Q 618 558 750 585 Q 814 598 825 588 Q 844 548 834 339 Q 825 180 780 90 Q 762 50 739 47 Z" fill="black" /></g></svg>