<?xml version='1.0' encoding='utf-8'?>
<svg xmlns="http://www.w3.org/2000/svg" version="1.1" viewBox="0 0 1024 1024"><g transform="scale(1, -1) translate(0, -900)"><path d="M 301 170 Q 256 76 90 7 Q 74 7 74 -4 Q 74 -8 81 -8 Q 184 -12 295 93 Q 303 104 312 112 L 340 145 L 361 172 Q 421 263 441 272 Q 455 280 457 288 Q 457 299 430 319 Q 402 338 390 339 Q 382 339 377 337 Q 339 323 318 318 Q 297 316 280 310 C 251 302 229 291 258 283 Q 267 281 276 278 Q 290 278 322 290 Q 349 300 359 292 Q 361 291 359 284 Q 355 257 319 196 L 301 170 Z" fill="black" /></g></svg>