<?xml version='1.0' encoding='utf-8'?>
<svg xmlns="http://www.w3.org/2000/svg" version="1.1" viewBox="0 0 1024 1024"><g transform="scale(1, -1) translate(0, -900)"><path d="M 709 416 Q 709 440 710 464 L 711 506 Q 715 549 724 580 Q 731 593 729 606 Q 723 615 672 645 Q 651 661 632 646 Q 628 642 633 627 Q 661 588 662 492 L 663 352 Q 660 163 655 133 Q 639 40 650 8 Q 653 -1 658 -12 Q 665 -28 672 -31 Q 678 -37 684 -30 Q 691 -26 700 -6 Q 709 16 708 45 Q 707 79 709 356 L 709 416 Z" fill="black" /></g></svg>