<?xml version='1.0' encoding='utf-8'?>
<svg xmlns="http://www.w3.org/2000/svg" version="1.1" viewBox="0 0 1024 1024"><g transform="scale(1, -1) translate(0, -900)"><path d="M 447 355 Q 448 383 449 413 L 451 454 Q 454 500 464 535 Q 471 547 469 558 Q 463 565 419 594 Q 400 607 383 595 Q 379 591 384 579 Q 406 545 407 511 Q 407 478 408 441 L 405 319 Q 402 166 397 140 Q 382 53 389 33 Q 392 23 398 10 Q 402 -3 409 -7 Q 415 -13 420 -6 Q 441 7 443 60 Q 442 91 447 332 L 447 355 Z" fill="black" /></g></svg>