<?xml version='1.0' encoding='utf-8'?>
<svg xmlns="http://www.w3.org/2000/svg" version="1.1" viewBox="0 0 1024 1024"><g transform="scale(1, -1) translate(0, -900)"><path d="M 295 684 Q 292 686 290 688 Q 244 717 223 710 Q 219 708 217 706 Q 214 701 220 688 Q 237 649 237 600 Q 237 574 237 561 Q 232 409 202 294 Q 163 153 63 -5 L 55 -18 L 55 -20 Q 55 -27 65 -25 Q 92 -20 172 98 Q 189 129 210 172 Q 235 237 253 302 Q 278 399 290 533 Q 298 620 306 649 C 311 674 311 674 295 684 Z" fill="black" /></g></svg>