<?xml version='1.0' encoding='utf-8'?>
<svg xmlns="http://www.w3.org/2000/svg" version="1.1" viewBox="0 0 1024 1024"><g transform="scale(1, -1) translate(0, -900)"><path d="M 615 159 Q 631 134 645 126 Q 654 119 669 137 Q 681 153 710 242 Q 719 270 742 293 Q 755 303 744 317 Q 731 333 692 359 Q 677 368 605 353 Q 587 353 536 343 L 485 335 Q 469 334 451 330 Q 400 321 356 315 C 326 311 342 276 371 284 Q 417 297 486 307 L 535 315 Q 640 333 656 317 Q 665 307 662 296 Q 640 197 625 184 C 612 163 612 163 615 159 Z" fill="black" /></g></svg>