<?xml version='1.0' encoding='utf-8'?>
<svg xmlns="http://www.w3.org/2000/svg" version="1.1" viewBox="0 0 1024 1024"><g transform="scale(1, -1) translate(0, -900)"><path d="M 630 163 Q 631 159 633 152 Q 639 136 652 137 Q 667 138 675 154 Q 688 172 712 257 Q 730 312 769 344 Q 790 360 772 377 Q 753 396 700 424 Q 687 433 614 419 Q 548 413 531 409 L 477 401 Q 449 398 423 392 Q 368 383 327 377 C 297 373 309 332 338 340 Q 378 353 478 366 L 529 373 Q 650 386 663 378 Q 673 371 668 338 Q 646 221 635 192 L 630 163 Z" fill="black" /></g></svg>