<?xml version='1.0' encoding='utf-8'?>
<svg xmlns="http://www.w3.org/2000/svg" version="1.1" viewBox="0 0 1024 1024"><g transform="scale(1, -1) translate(0, -900)"><path d="M 654 392 Q 655 396 656 400 L 661 446 Q 664 485 671 628 Q 672 682 691 745 Q 695 755 687 763 Q 669 779 635 792 Q 614 801 599 795 Q 580 788 595 771 Q 623 743 623 714 Q 624 554 610 433 L 604 387 Q 579 215 500 128 Q 466 91 392 40 Q 380 34 378 30 Q 374 23 389 23 Q 401 23 448 44 Q 482 59 531 98 Q 615 170 648 349 L 654 392 Z" fill="black" /></g></svg>