<?xml version='1.0' encoding='utf-8'?>
<svg xmlns="http://www.w3.org/2000/svg" version="1.1" viewBox="0 0 1024 1024"><g transform="scale(1, -1) translate(0, -900)"><path d="M 523 278 Q 492 278 493 271 Q 487 255 514 242 Q 542 221 559 224 Q 572 225 592 237 Q 721 297 737 279 Q 744 264 730 244 Q 720 229 698 179 Q 659 103 643 89 Q 610 61 624 13 Q 627 -6 636 -12 Q 645 -16 658 -6 Q 688 13 764 196 Q 785 248 818 270 Q 828 277 828 288 Q 829 301 796 321 Q 762 342 745 344 Q 738 343 729 337 Q 653 300 523 278 Z" fill="black" /></g></svg>