<?xml version='1.0' encoding='utf-8'?>
<svg xmlns="http://www.w3.org/2000/svg" version="1.1" viewBox="0 0 1024 1024"><g transform="scale(1, -1) translate(0, -900)"><path d="M 362 543 Q 362 539 364 534 Q 368 521 379 521 Q 391 522 398 534 Q 413 555 438 656 Q 453 701 484 727 Q 500 740 487 754 Q 471 769 428 792 Q 416 799 356 786 Q 326 786 210 760 Q 164 751 132 746 C 102 741 113 706 142 713 Q 148 713 154 715 Q 185 727 245 736 L 285 743 Q 378 764 401 752 Q 411 745 405 712 Q 380 598 368 568 L 362 543 Z" fill="black" /></g></svg>