<?xml version='1.0' encoding='utf-8'?>
<svg xmlns="http://www.w3.org/2000/svg" version="1.1" viewBox="0 0 1024 1024"><g transform="scale(1, -1) translate(0, -900)"><path d="M 735 382 Q 804 404 846 399 Q 847 399 850 398 C 880 395 883 437 853 433 Q 792 426 736 415 L 689 405 Q 637 395 593 379 Q 578 376 582 394 Q 600 478 592 495 Q 579 511 559 524 Q 549 528 541 528 Q 531 524 537 508 Q 553 465 544 422 Q 537 382 519 365 Q 503 350 509 338 Q 519 325 533 315 Q 545 308 553 315 Q 571 337 688 369 L 735 382 Z" fill="black" /></g></svg>