<?xml version='1.0' encoding='utf-8'?>
<svg xmlns="http://www.w3.org/2000/svg" version="1.1" viewBox="0 0 1024 1024"><g transform="scale(1, -1) translate(0, -900)"><path d="M 428 513 Q 444 485 461 478 Q 471 471 485 490 Q 498 515 527 648 Q 534 676 556 699 Q 568 709 557 723 Q 542 738 504 761 Q 483 770 403 747 Q 399 747 272 720 Q 223 708 183 700 C 154 694 170 663 199 672 Q 239 685 296 698 L 332 705 Q 452 735 469 719 Q 482 704 479 690 Q 458 566 448 546 Q 444 536 430 532 C 420 526 420 526 428 513 Z" fill="black" /></g></svg>