<?xml version='1.0' encoding='utf-8'?>
<svg xmlns="http://www.w3.org/2000/svg" version="1.1" viewBox="0 0 1024 1024"><g transform="scale(1, -1) translate(0, -900)"><path d="M 659 690 Q 720 708 768 714 Q 780 715 782 712 Q 786 705 783 683 Q 776 623 761 598 Q 743 570 717 575 Q 693 579 672 586 Q 651 590 668 573 Q 705 542 724 517 Q 734 501 748 512 Q 790 531 823 639 Q 829 684 851 706 Q 861 716 857 724 Q 850 733 812 751 Q 797 758 782 749 Q 733 725 623 712 C 593 708 583 707 608 694 Q 609 694 612 692 Q 625 683 636 685 L 659 690 Z" fill="black" /></g></svg>