<?xml version='1.0' encoding='utf-8'?>
<svg xmlns="http://www.w3.org/2000/svg" version="1.1" viewBox="0 0 1024 1024"><g transform="scale(1, -1) translate(0, -900)"><path d="M 420 476 Q 438 454 453 445 Q 463 438 478 459 Q 493 487 519 635 Q 526 666 549 691 Q 562 704 550 718 Q 534 734 491 758 Q 473 767 408 748 Q 402 748 269 720 Q 220 708 177 700 C 148 694 169 657 197 667 Q 203 673 294 691 L 334 699 Q 439 720 455 709 Q 471 699 467 677 Q 445 518 427 504 C 414 482 414 482 420 476 Z" fill="black" /></g></svg>