<?xml version='1.0' encoding='utf-8'?>
<svg xmlns="http://www.w3.org/2000/svg" version="1.1" viewBox="0 0 1024 1024"><g transform="scale(1, -1) translate(0, -900)"><path d="M 401 481 Q 401 478 403 474 Q 407 461 419 461 Q 432 462 439 476 Q 452 495 474 589 Q 489 635 521 663 Q 537 678 524 691 Q 508 707 462 730 Q 450 736 387 723 Q 365 723 253 696 Q 204 686 170 679 C 141 673 153 649 183 651 Q 192 650 200 652 Q 225 662 272 671 L 306 678 Q 412 702 433 692 Q 443 685 437 653 Q 413 524 402 500 L 401 481 Z" fill="black" /></g></svg>