<?xml version='1.0' encoding='utf-8'?>
<svg xmlns="http://www.w3.org/2000/svg" version="1.1" viewBox="0 0 1024 1024"><g transform="scale(1, -1) translate(0, -900)"><path d="M 719 380 Q 750 356 807 377 Q 832 383 841 375 Q 848 368 820 314 Q 711 82 431 -20 Q 421 -23 422 -28 Q 422 -32 430 -33 Q 572 -37 732 111 Q 741 120 750 128 Q 816 195 886 307 Q 905 332 933 348 Q 949 354 950 363 Q 951 376 925 396 Q 892 423 878 425 Q 866 425 854 418 Q 782 400 736 399 C 706 397 692 393 719 380 Z" fill="black" /></g></svg>