<?xml version='1.0' encoding='utf-8'?>
<svg xmlns="http://www.w3.org/2000/svg" version="1.1" viewBox="0 0 1024 1024"><g transform="scale(1, -1) translate(0, -900)"><path d="M 403 476 Q 403 475 404 473 Q 408 460 419 461 Q 431 462 437 475 Q 452 494 473 592 Q 486 637 518 663 Q 534 676 520 690 Q 504 705 461 726 Q 446 735 382 718 Q 361 718 248 692 Q 205 682 175 677 C 145 672 154 641 183 647 Q 187 647 192 648 Q 222 658 273 668 L 310 675 Q 418 696 434 688 Q 444 681 439 649 Q 415 526 404 500 C 398 483 398 483 403 476 Z" fill="black" /></g></svg>