<?xml version='1.0' encoding='utf-8'?>
<svg xmlns="http://www.w3.org/2000/svg" version="1.1" viewBox="0 0 1024 1024"><g transform="scale(1, -1) translate(0, -900)"><path d="M 632 311 Q 644 290 656 282 Q 665 273 681 292 Q 693 305 725 389 Q 735 417 759 439 Q 772 449 762 463 Q 749 479 712 506 Q 694 516 629 502 Q 613 502 440 476 Q 373 464 318 458 C 288 455 309 419 338 427 Q 337 428 340 428 Q 392 441 468 453 L 507 459 Q 658 486 676 466 Q 683 456 681 446 Q 654 347 635 340 C 622 326 622 326 632 311 Z" fill="black" /></g></svg>