<?xml version='1.0' encoding='utf-8'?>
<svg xmlns="http://www.w3.org/2000/svg" version="1.1" viewBox="0 0 1024 1024"><g transform="scale(1, -1) translate(0, -900)"><path d="M 771 641 Q 696 632 616 614 Q 607 611 605 613 Q 602 617 608 625 Q 696 749 716 771 Q 726 781 721 792 Q 714 804 669 825 Q 653 832 644 828 Q 632 822 638 803 Q 659 742 563 634 Q 545 618 521 600 Q 508 588 512 578 Q 518 562 542 543 Q 552 533 564 544 Q 606 575 781 619 Q 782 620 787 620 C 816 626 801 645 771 641 Z" fill="black" /></g></svg>