<?xml version='1.0' encoding='utf-8'?>
<svg xmlns="http://www.w3.org/2000/svg" version="1.1" viewBox="0 0 1024 1024"><g transform="scale(1, -1) translate(0, -900)"><path d="M 364 502 Q 377 484 389 478 Q 398 471 412 490 Q 427 515 456 652 Q 463 679 485 701 Q 495 711 486 724 Q 473 739 435 762 Q 422 768 356 753 Q 350 753 238 730 Q 184 718 143 712 Q 136 712 135 709 C 106 701 145 671 172 684 Q 179 693 257 705 L 290 711 Q 324 718 367 725 Q 394 729 402 720 Q 415 704 412 689 Q 385 550 370 533 C 358 509 358 509 364 502 Z" fill="black" /></g></svg>