<?xml version='1.0' encoding='utf-8'?>
<svg xmlns="http://www.w3.org/2000/svg" version="1.1" viewBox="0 0 1024 1024"><g transform="scale(1, -1) translate(0, -900)"><path d="M 739 53 Q 767 17 787 -17 Q 794 -33 805 -32 Q 820 -31 834 -2 Q 850 32 847 74 Q 841 132 836 241 Q 835 269 850 287 Q 857 299 850 307 Q 834 323 789 345 Q 774 354 760 346 Q 697 319 577 298 C 547 293 565 265 594 272 Q 601 273 614 277 Q 683 290 741 303 Q 763 307 775 300 Q 799 269 783 77 Q 779 64 765 66 C 738 55 738 55 739 53 Z" fill="black" /></g></svg>