<?xml version='1.0' encoding='utf-8'?>
<svg xmlns="http://www.w3.org/2000/svg" version="1.1" viewBox="0 0 1024 1024"><g transform="scale(1, -1) translate(0, -900)"><path d="M 397 478 Q 401 469 411 469 Q 423 470 429 483 Q 442 502 465 596 Q 478 641 509 667 Q 525 680 511 694 Q 495 707 452 730 Q 442 736 380 723 Q 362 723 250 696 Q 204 686 169 679 C 140 673 151 650 181 651 Q 191 650 200 652 Q 225 662 272 671 L 306 678 Q 405 702 426 692 Q 436 686 430 654 Q 411 552 394 501 C 389 484 389 484 397 478 Z" fill="black" /></g></svg>