<?xml version='1.0' encoding='utf-8'?>
<svg xmlns="http://www.w3.org/2000/svg" version="1.1" viewBox="0 0 1024 1024"><g transform="scale(1, -1) translate(0, -900)"><path d="M 551 350 Q 551 346 554 340 Q 557 328 567 329 Q 577 330 583 341 Q 592 351 609 406 Q 621 445 648 468 Q 663 480 650 492 Q 637 505 598 524 Q 589 530 534 517 Q 450 502 328 470 C 299 462 321 435 349 445 Q 379 457 431 467 L 459 474 Q 496 483 544 490 Q 568 494 577 489 Q 584 485 580 463 Q 564 390 557 369 L 551 350 Z" fill="black" /></g></svg>