<?xml version='1.0' encoding='utf-8'?>
<svg xmlns="http://www.w3.org/2000/svg" version="1.1" viewBox="0 0 1024 1024"><g transform="scale(1, -1) translate(0, -900)"><path d="M 651 426 Q 652 432 655 437 Q 665 473 675 518 L 683 566 Q 710 740 716 753 Q 723 769 716 777 Q 697 801 644 805 Q 628 808 612 796 Q 603 784 615 775 Q 645 756 643 684 Q 639 603 631 554 L 623 507 Q 599 384 502 217 Q 495 199 506 201 Q 512 200 522 211 Q 570 256 607 322 L 617 343 Q 630 371 643 402 L 651 426 Z" fill="black" /></g></svg>