<?xml version='1.0' encoding='utf-8'?>
<svg xmlns="http://www.w3.org/2000/svg" version="1.1" viewBox="0 0 1024 1024"><g transform="scale(1, -1) translate(0, -900)"><path d="M 694 205 Q 687 198 682 188 Q 642 140 535 101 Q 522 97 531 90 Q 538 86 562 91 Q 667 106 720 166 L 751 213 Q 751 214 752 214 Q 785 271 806 361 Q 810 392 828 408 Q 841 421 825 434 Q 806 447 776 458 Q 757 464 739 453 Q 705 435 659 427 Q 655 427 651 426 C 621 421 613 403 643 402 Q 665 398 731 415 Q 753 421 752 396 Q 752 330 718 249 L 694 205 Z" fill="black" /></g></svg>