<?xml version='1.0' encoding='utf-8'?>
<svg xmlns="http://www.w3.org/2000/svg" version="1.1" viewBox="0 0 1024 1024"><g transform="scale(1, -1) translate(0, -900)"><path d="M 811 476 Q 811 473 813 469 Q 817 456 827 457 Q 842 460 866 498 Q 879 540 910 563 Q 925 576 912 589 Q 899 602 858 625 Q 848 632 767 613 Q 742 613 608 579 Q 550 564 511 557 C 482 551 497 517 525 527 Q 538 533 591 547 L 611 553 Q 648 563 697 572 L 732 579 Q 816 598 836 589 Q 840 586 837 570 Q 824 518 817 500 L 811 476 Z" fill="black" /></g></svg>