<?xml version='1.0' encoding='utf-8'?>
<svg xmlns="http://www.w3.org/2000/svg" version="1.1" viewBox="0 0 1024 1024"><g transform="scale(1, -1) translate(0, -900)"><path d="M 645 228 Q 661 201 676 193 Q 686 184 703 206 Q 722 234 764 392 Q 774 425 800 450 Q 813 463 803 478 Q 787 496 743 525 Q 727 534 648 518 Q 621 518 526 501 L 469 492 Q 447 491 425 487 Q 344 474 278 465 C 248 461 259 424 289 429 Q 295 428 306 431 Q 370 447 468 462 L 523 470 Q 683 497 704 475 Q 717 456 714 439 Q 675 274 656 259 C 641 234 641 234 645 228 Z" fill="black" /></g></svg>