<?xml version='1.0' encoding='utf-8'?>
<svg xmlns="http://www.w3.org/2000/svg" version="1.1" viewBox="0 0 1024 1024"><g transform="scale(1, -1) translate(0, -900)"><path d="M 586 617 Q 610 576 627 577 Q 635 578 647 591 Q 659 609 696 714 Q 708 745 733 768 Q 746 780 735 796 Q 721 813 679 843 Q 665 851 651 850 L 568 835 L 441 815 Q 384 804 353 800 C 323 796 344 760 373 768 Q 453 790 596 808 Q 621 809 635 803 Q 652 794 645 774 Q 623 682 613 662 Q 606 647 595 645 C 577 632 577 632 586 617 Z" fill="black" /></g></svg>