<?xml version='1.0' encoding='utf-8'?>
<svg xmlns="http://www.w3.org/2000/svg" version="1.1" viewBox="0 0 1024 1024"><g transform="scale(1, -1) translate(0, -900)"><path d="M 707 452 Q 800 473 813 461 Q 822 457 824 417 Q 834 285 826 136 Q 826 114 818 108 Q 808 99 750 106 Q 737 107 738 99 Q 739 93 750 89 Q 802 55 830 28 Q 848 12 859 14 Q 869 17 879 41 Q 891 80 889 137 Q 870 410 886 444 Q 896 463 887 473 Q 877 486 836 506 Q 820 513 803 509 Q 772 499 707 482 L 662 473 Q 613 466 566 458 C 536 453 551 416 580 422 Q 584 422 589 423 Q 623 433 662 442 L 707 452 Z" fill="black" /></g></svg>