<?xml version='1.0' encoding='utf-8'?>
<svg xmlns="http://www.w3.org/2000/svg" version="1.1" viewBox="0 0 1024 1024"><g transform="scale(1, -1) translate(0, -900)"><path d="M 439 57 Q 453 -20 529 -48 Q 572 -61 661 -62 Q 790 -64 872 -41 Q 915 -31 921 -20 Q 926 -12 921 6 Q 902 61 894 117 Q 888 137 882 137 Q 876 138 872 122 Q 863 98 858 85 Q 841 33 827 20 Q 815 10 785 4 Q 629 -29 553 -10 Q 512 2 486 35 Q 459 79 470 270 Q 476 353 474 357 Q 465 373 429 385 C 401 397 400 398 406 381 Q 404 377 408 371 Q 423 349 424 299 L 425 274 Q 425 258 426 218 L 426 198 Q 427 186 428 161 Q 428 125 433 84 L 439 57 Z" fill="black" /></g></svg>