<?xml version='1.0' encoding='utf-8'?>
<svg xmlns="http://www.w3.org/2000/svg" version="1.1" viewBox="0 0 1024 1024"><g transform="scale(1, -1) translate(0, -900)"><path d="M 209 325 Q 213 331 292 350 L 329 359 Q 395 380 409 370 Q 416 366 418 335 Q 425 230 419 111 Q 419 93 412 88 Q 405 82 361 92 Q 348 95 349 87 Q 350 81 359 77 Q 398 43 417 18 Q 433 2 442 4 Q 452 7 461 28 Q 473 62 474 112 Q 459 325 473 353 Q 482 369 474 378 Q 465 388 430 406 Q 417 413 402 409 Q 377 400 329 385 L 292 375 Q 247 365 202 356 C 173 350 181 313 209 325 Z" fill="black" /></g></svg>