<?xml version='1.0' encoding='utf-8'?>
<svg xmlns="http://www.w3.org/2000/svg" version="1.1" viewBox="0 0 1024 1024"><g transform="scale(1, -1) translate(0, -900)"><path d="M 462 206 Q 462 134 477 102 Q 496 59 538 39 Q 592 14 676 11 Q 773 10 834 26 Q 900 47 922 61 Q 946 73 930 112 Q 911 160 903 221 Q 902 240 896 241 Q 889 241 887 223 Q 880 166 867 132 Q 857 108 822 92 Q 780 73 704 74 Q 617 75 575 91 Q 536 110 523 143 Q 516 161 514 213 L 513 251 Q 513 263 514 275 Q 514 309 516 340 L 517 381 Q 518 433 523 470 L 526 501 Q 527 541 515 556 Q 503 569 493 581 C 473 604 453 605 459 576 Q 465 570 469 492 L 468 462 Q 467 407 467 370 L 465 332 Q 464 284 462 243 L 462 206 Z" fill="black" /></g></svg>