<?xml version='1.0' encoding='utf-8'?>
<svg xmlns="http://www.w3.org/2000/svg" version="1.1" viewBox="0 0 1024 1024"><g transform="scale(1, -1) translate(0, -900)"><path d="M 425 436 Q 455 443 494 451 L 535 458 Q 643 480 663 470 Q 667 467 663 454 Q 648 409 643 398 L 637 378 Q 637 374 638 370 Q 641 357 651 356 Q 661 357 669 367 Q 673 368 687 378 Q 703 420 734 442 Q 750 454 738 467 Q 725 482 685 506 Q 673 515 592 496 Q 556 496 409 460 Q 345 445 301 438 C 271 433 280 400 309 406 Q 316 406 322 408 Q 347 417 382 426 L 425 436 Z" fill="black" /></g></svg>