<?xml version='1.0' encoding='utf-8'?>
<svg xmlns="http://www.w3.org/2000/svg" version="1.1" viewBox="0 0 1024 1024"><g transform="scale(1, -1) translate(0, -900)"><path d="M 608 118 Q 623 96 637 90 Q 647 83 661 102 Q 671 120 695 216 Q 704 244 726 269 Q 738 281 727 294 Q 712 310 671 335 Q 656 342 584 327 Q 539 324 499 314 L 447 306 Q 429 305 412 301 Q 351 291 299 283 C 269 278 285 245 314 251 Q 317 251 322 252 Q 373 265 448 276 L 500 284 Q 620 302 636 287 Q 646 277 644 265 Q 628 156 612 145 C 601 127 601 127 608 118 Z" fill="black" /></g></svg>