<?xml version='1.0' encoding='utf-8'?>
<svg xmlns="http://www.w3.org/2000/svg" version="1.1" viewBox="0 0 1024 1024"><g transform="scale(1, -1) translate(0, -900)"><path d="M 652 80 Q 656 70 667 69 Q 683 72 713 136 Q 728 182 760 208 Q 776 221 763 236 Q 747 251 703 275 Q 688 282 614 267 Q 608 267 525 255 L 461 245 Q 436 242 415 237 Q 351 225 304 218 C 274 213 284 180 314 185 Q 318 185 325 186 Q 377 202 466 215 L 523 223 Q 653 244 677 232 Q 684 228 679 206 Q 664 128 653 108 C 644 86 644 86 652 80 Z" fill="black" /></g></svg>