<?xml version='1.0' encoding='utf-8'?>
<svg xmlns="http://www.w3.org/2000/svg" version="1.1" viewBox="0 0 1024 1024"><g transform="scale(1, -1) translate(0, -900)"><path d="M 612 517 Q 625 498 637 490 Q 646 483 660 501 Q 669 511 693 575 Q 702 602 723 623 Q 735 633 725 646 Q 712 661 676 685 Q 663 694 591 678 Q 585 678 440 654 Q 388 644 342 638 C 312 634 336 602 365 610 Q 411 623 479 633 L 510 639 Q 627 660 642 646 Q 649 637 647 630 Q 634 566 628 555 Q 624 545 611 543 C 598 536 598 536 612 517 Z" fill="black" /></g></svg>