<?xml version='1.0' encoding='utf-8'?>
<svg xmlns="http://www.w3.org/2000/svg" version="1.1" viewBox="0 0 1024 1024"><g transform="scale(1, -1) translate(0, -900)"><path d="M 409 268 Q 409 247 408 224 L 408 194 Q 408 106 411 80 L 415 54 Q 428 -21 502 -49 Q 559 -68 684 -69 Q 787 -68 847 -53 Q 892 -44 898 -33 Q 905 -23 897 -6 Q 879 46 871 124 Q 867 140 860 144 Q 853 148 849 130 Q 821 21 806 10 Q 797 0 761 -7 Q 649 -26 578 -22 Q 496 -15 462 35 Q 441 68 452 234 Q 455 294 463 327 Q 469 352 432 368 C 407 385 386 390 395 362 Q 396 361 397 359 Q 407 335 409 293 L 409 268 Z" fill="black" /></g></svg>