<?xml version='1.0' encoding='utf-8'?>
<svg xmlns="http://www.w3.org/2000/svg" version="1.1" viewBox="0 0 1024 1024"><g transform="scale(1, -1) translate(0, -900)"><path d="M 611 518 Q 612 517 613 513 Q 617 500 627 501 Q 637 502 644 514 Q 653 524 670 575 Q 683 617 713 640 Q 728 653 715 665 Q 702 678 661 700 Q 649 707 579 692 Q 549 692 430 667 Q 382 657 346 651 C 316 646 329 615 358 623 Q 400 636 472 649 L 511 656 Q 613 677 635 665 Q 642 661 638 639 Q 622 557 614 540 C 608 523 608 523 611 518 Z" fill="black" /></g></svg>