<?xml version='1.0' encoding='utf-8'?>
<svg xmlns="http://www.w3.org/2000/svg" version="1.1" viewBox="0 0 1024 1024"><g transform="scale(1, -1) translate(0, -900)"><path d="M 449 99 Q 449 63 460 38 Q 479 -5 520 -23 Q 574 -48 656 -49 Q 750 -50 811 -33 Q 875 -11 896 2 Q 918 12 905 49 Q 889 97 885 158 Q 885 176 880 177 Q 874 178 871 161 Q 861 103 844 69 Q 834 45 800 29 Q 757 10 682 10 Q 595 10 554 26 Q 500 53 496 105 L 495 140 Q 495 147 495 154 Q 495 178 495 197 L 496 231 Q 496 261 500 284 L 499 314 Q 498 332 471 359 C 451 382 433 383 439 354 Q 443 350 447 306 L 448 276 Q 448 243 448 220 L 448 190 Q 447 159 448 131 L 449 99 Z" fill="black" /></g></svg>