<?xml version='1.0' encoding='utf-8'?>
<svg xmlns="http://www.w3.org/2000/svg" version="1.1" viewBox="0 0 1024 1024"><g transform="scale(1, -1) translate(0, -900)"><path d="M 417 745 Q 514 767 587 774 Q 605 778 609 771 Q 613 764 606 749 Q 587 701 566 683 Q 556 676 559 663 Q 563 644 573 637 Q 583 631 595 640 Q 647 670 698 675 Q 723 678 731 667 Q 737 657 734 638 Q 730 587 709 548 Q 705 535 692 530 Q 683 527 622 538 Q 597 548 618 524 Q 643 490 662 461 Q 672 443 691 450 Q 737 472 761 535 Q 785 623 806 647 Q 822 662 811 672 Q 799 684 763 703 Q 742 712 723 704 Q 653 686 635 689 Q 620 690 629 708 Q 657 751 678 764 Q 702 776 696 787 Q 693 797 648 819 Q 633 826 618 819 Q 537 785 294 765 Q 287 765 284 760 Q 281 754 304 737 Q 326 721 352 730 Q 371 734 390 739 L 417 745 Z" fill="black" /></g></svg>