<?xml version='1.0' encoding='utf-8'?>
<svg xmlns="http://www.w3.org/2000/svg" version="1.1" viewBox="0 0 1024 1024"><g transform="scale(1, -1) translate(0, -900)"><path d="M 878 503 Q 890 516 874 537 Q 856 574 846 625 Q 845 634 838 640 Q 829 644 828 625 Q 807 544 806 541 Q 788 517 681 522 Q 608 525 589 552 Q 561 592 587 710 Q 590 732 596 748 Q 600 763 603 767 Q 610 785 594 796 Q 570 818 539 825 Q 523 828 517 821 Q 510 814 516 805 Q 531 792 535 744 Q 511 558 580 502 Q 692 447 817 475 Q 818 476 822 476 Q 862 488 878 503 Z" fill="black" /></g></svg>