<?xml version='1.0' encoding='utf-8'?>
<svg xmlns="http://www.w3.org/2000/svg" version="1.1" viewBox="0 0 1024 1024"><g transform="scale(1, -1) translate(0, -900)"><path d="M 665 67 Q 699 107 721 167 Q 731 198 750 214 Q 766 226 749 241 Q 731 257 701 272 Q 677 281 632 257 L 596 246 Q 568 239 537 234 Q 512 231 501 225 Q 494 219 510 210 Q 535 197 571 209 Q 613 218 654 228 Q 670 234 671 215 Q 671 160 627 96 L 600 66 Q 596 63 593 59 Q 547 22 429 -7 Q 414 -10 423 -18 Q 430 -24 457 -23 Q 535 -16 580 2 Q 607 12 631 32 L 665 67 Z" fill="black" /></g></svg>