<?xml version='1.0' encoding='utf-8'?>
<svg xmlns="http://www.w3.org/2000/svg" version="1.1" viewBox="0 0 1024 1024"><g transform="scale(1, -1) translate(0, -900)"><path d="M 389 191 Q 389 137 374 78 Q 368 62 377 42 Q 390 2 404 -3 Q 416 -7 423 14 Q 426 26 431 154 Q 431 257 450 281 Q 466 300 459 311 Q 449 323 415 337 Q 396 344 386 336 Q 361 323 317 313 Q 287 310 290 326 Q 291 377 301 404 Q 307 423 297 431 Q 275 447 257 451 Q 241 454 231 447 Q 224 440 237 424 Q 264 397 240 304 Q 237 303 236 298 Q 230 285 237 274 Q 246 261 258 256 Q 268 252 282 266 Q 313 287 367 297 Q 383 300 391 293 Q 394 289 391 222 L 389 191 Z" fill="black" /></g></svg>