<?xml version='1.0' encoding='utf-8'?>
<svg xmlns="http://www.w3.org/2000/svg" version="1.1" viewBox="0 0 1024 1024"><g transform="scale(1, -1) translate(0, -900)"><path d="M 501 380 Q 505 395 495 403 Q 474 419 453 428 Q 437 434 428 429 Q 418 422 431 405 Q 476 338 441 121 Q 432 99 416 74 Q 403 55 412 45 Q 419 32 443 22 Q 458 15 470 30 Q 488 61 573 108 Q 601 121 613 138 Q 620 148 613 148 Q 603 149 587 143 Q 502 113 495 119 Q 485 122 486 145 Q 493 251 497 307 Q 496 347 501 380 Z" fill="black" /></g></svg>