<?xml version='1.0' encoding='utf-8'?>
<svg xmlns="http://www.w3.org/2000/svg" version="1.1" viewBox="0 0 1024 1024"><g transform="scale(1, -1) translate(0, -900)"><path d="M 625 507 Q 625 504 627 500 Q 631 484 644 484 Q 657 485 665 499 Q 681 520 712 622 Q 731 671 767 697 Q 786 710 772 727 Q 756 743 710 773 Q 688 786 543 760 Q 540 761 538 760 Q 523 761 520 756 Q 516 752 530 741 Q 546 729 585 729 Q 651 741 674 733 Q 684 726 676 690 Q 672 671 666 654 L 659 626 Q 641 562 632 537 L 625 507 Z" fill="black" /></g></svg>