<?xml version='1.0' encoding='utf-8'?>
<svg xmlns="http://www.w3.org/2000/svg" version="1.1" viewBox="0 0 1024 1024"><g transform="scale(1, -1) translate(0, -900)"><path d="M 384 414 Q 403 377 406 337 Q 419 184 467 118 Q 516 49 640 13 Q 728 -9 834 -4 Q 910 0 960 27 Q 976 31 965 58 Q 944 113 933 189 Q 934 202 926 210 Q 919 214 915 206 Q 875 71 849 63 Q 830 50 762 51 Q 680 51 628 69 Q 499 111 467 203 Q 454 251 453 328 Q 452 362 459 379 Q 469 395 438 421 Q 404 451 387 446 Q 371 440 384 414 Z" fill="black" /></g></svg>