<?xml version='1.0' encoding='utf-8'?>
<svg xmlns="http://www.w3.org/2000/svg" version="1.1" viewBox="0 0 1024 1024"><g transform="scale(1, -1) translate(0, -900)"><path d="M 577 561 Q 581 561 584 560 Q 605 554 686 565 Q 761 577 785 576 Q 795 576 797 572 Q 809 551 806 390 Q 800 273 769 206 Q 757 178 739 172 Q 729 171 676 186 Q 667 189 667 184 Q 666 180 676 172 Q 710 135 724 108 Q 731 92 742 92 Q 781 95 821 175 Q 855 259 865 508 Q 865 538 882 558 Q 894 571 892 578 Q 891 585 873 597 Q 849 613 817 623 Q 799 629 735 609 Q 729 609 725 607 Q 658 594 590 578 C 561 571 547 565 577 561 Z" fill="black" /></g></svg>