<?xml version='1.0' encoding='utf-8'?>
<svg xmlns="http://www.w3.org/2000/svg" version="1.1" viewBox="0 0 1024 1024"><g transform="scale(1, -1) translate(0, -900)"><path d="M 313 284 Q 314 333 319 360 L 322 377 Q 322 380 323 381 Q 327 399 315 410 Q 293 432 275 435 Q 265 438 259 434 Q 249 427 260 415 Q 276 384 276 354 Q 282 170 254 128 Q 242 109 250 89 Q 260 61 276 49 Q 286 42 297 60 Q 313 87 370 158 Q 386 171 387 179 Q 387 191 369 180 Q 321 159 317 160 Q 308 166 312 260 L 313 284 Z" fill="black" /></g></svg>