<?xml version='1.0' encoding='utf-8'?>
<svg xmlns="http://www.w3.org/2000/svg" version="1.1" viewBox="0 0 1024 1024"><g transform="scale(1, -1) translate(0, -900)"><path d="M 388 476 Q 388 472 391 465 Q 397 452 407 453 Q 419 454 424 468 Q 436 486 451 569 Q 464 612 493 639 Q 508 652 494 665 Q 478 678 436 699 Q 421 708 389 695 Q 365 692 344 684 Q 323 678 311 675 Q 299 675 297 671 Q 294 667 307 659 Q 331 647 348 654 Q 390 672 407 664 Q 417 660 413 629 Q 410 611 408 594 L 405 569 Q 396 511 391 494 Q 390 493 389 489 L 388 476 Z" fill="black" /></g></svg>