<?xml version='1.0' encoding='utf-8'?>
<svg xmlns="http://www.w3.org/2000/svg" version="1.1" viewBox="0 0 1024 1024"><g transform="scale(1, -1) translate(0, -900)"><path d="M 166 273 Q 167 282 168 289 Q 168 317 172 341 L 175 357 Q 175 366 169 371 Q 150 387 131 396 Q 115 402 107 398 Q 97 392 109 375 Q 145 311 107 131 Q 100 115 87 94 Q 77 76 84 66 Q 91 54 114 45 Q 129 38 140 54 Q 147 78 202 124 Q 226 140 236 158 Q 240 168 233 168 Q 232 168 169 137 Q 163 133 159 135 Q 150 138 153 157 Q 160 212 164 251 L 166 273 Z" fill="black" /></g></svg>