<?xml version='1.0' encoding='utf-8'?>
<svg xmlns="http://www.w3.org/2000/svg" version="1.1" viewBox="0 0 1024 1024"><g transform="scale(1, -1) translate(0, -900)"><path d="M 292 277 Q 292 322 295 349 L 296 360 Q 297 376 300 386 Q 304 402 293 411 Q 272 432 257 434 Q 247 435 242 432 Q 235 426 243 416 Q 259 388 259 362 Q 268 148 241 110 Q 231 92 239 75 Q 249 50 263 40 Q 272 34 281 50 Q 300 80 368 156 Q 381 169 382 175 Q 383 185 367 176 Q 301 140 297 140 Q 291 143 291 259 L 292 277 Z" fill="black" /></g></svg>