<?xml version='1.0' encoding='utf-8'?>
<svg xmlns="http://www.w3.org/2000/svg" version="1.1" viewBox="0 0 1024 1024"><g transform="scale(1, -1) translate(0, -900)"><path d="M 782 175 Q 792 153 813 111 Q 820 95 830 96 Q 845 99 853 122 Q 887 194 889 288 Q 893 346 899 415 Q 902 460 922 488 Q 938 507 926 519 Q 905 538 861 556 Q 845 565 814 553 Q 771 537 724 523 L 680 512 Q 625 502 555 493 C 525 489 549 453 578 459 Q 581 459 681 480 L 723 489 Q 760 496 803 505 Q 825 509 836 499 Q 864 447 824 219 Q 823 198 814 196 Q 810 193 791 203 C 765 212 769 202 782 175 Z" fill="black" /></g></svg>