<?xml version='1.0' encoding='utf-8'?>
<svg xmlns="http://www.w3.org/2000/svg" version="1.1" viewBox="0 0 1024 1024"><g transform="scale(1, -1) translate(0, -900)"><path d="M 676 328 Q 695 338 785 357 C 814 363 806 376 776 372 Q 703 362 621 342 Q 612 339 618 346 Q 726 440 782 470 Q 794 476 791 485 Q 787 503 763 523 Q 751 533 744 533 Q 735 532 734 519 Q 731 498 687 445 L 671 430 Q 578 346 554 336 Q 542 332 543 319 Q 542 309 560 291 Q 567 281 580 288 Q 613 306 646 318 L 676 328 Z" fill="black" /></g></svg>