<?xml version='1.0' encoding='utf-8'?>
<svg xmlns="http://www.w3.org/2000/svg" version="1.1" viewBox="0 0 1024 1024"><g transform="scale(1, -1) translate(0, -900)"><path d="M 356 383 Q 375 343 376 299 Q 386 118 444 57 Q 495 2 615 -25 Q 835 -64 973 -1 Q 986 3 975 26 Q 953 72 938 138 Q 938 150 930 158 Q 923 162 919 153 Q 906 114 891 72 Q 878 33 860 28 Q 838 15 760 14 Q 667 11 610 26 Q 537 45 499 69 Q 453 102 436 151 Q 421 203 422 290 Q 421 329 430 346 Q 440 362 409 388 Q 376 419 359 415 Q 343 409 356 383 Z" fill="black" /></g></svg>