<?xml version='1.0' encoding='utf-8'?>
<svg xmlns="http://www.w3.org/2000/svg" version="1.1" viewBox="0 0 1024 1024"><g transform="scale(1, -1) translate(0, -900)"><path d="M 138 265 Q 138 319 139 334 L 141 344 Q 142 356 136 361 Q 117 374 100 381 Q 87 385 78 382 Q 71 376 81 362 Q 120 310 95 122 Q 89 104 77 84 Q 67 68 75 59 Q 82 49 102 41 Q 115 35 125 49 Q 135 74 196 119 Q 218 132 227 148 Q 231 157 225 157 Q 219 157 153 126 Q 146 122 141 125 Q 132 126 133 146 Q 136 210 137 251 L 138 265 Z" fill="black" /></g></svg>