<?xml version='1.0' encoding='utf-8'?>
<svg xmlns="http://www.w3.org/2000/svg" version="1.1" viewBox="0 0 1024 1024"><g transform="scale(1, -1) translate(0, -900)"><path d="M 625 406 Q 631 409 726 431 Q 739 435 748 428 Q 752 424 753 404 Q 760 259 757 172 Q 756 150 749 141 Q 746 138 697 146 Q 681 153 681 144 Q 718 104 739 75 Q 749 59 763 54 Q 770 51 778 59 Q 815 102 814 145 Q 790 380 812 417 Q 822 433 812 442 Q 794 458 763 470 Q 747 477 735 471 Q 690 444 617 432 C 587 427 596 398 625 406 Z" fill="black" /></g></svg>