<?xml version='1.0' encoding='utf-8'?>
<svg xmlns="http://www.w3.org/2000/svg" version="1.1" viewBox="0 0 1024 1024"><g transform="scale(1, -1) translate(0, -900)"><path d="M 366 458 Q 366 455 368 452 Q 372 439 383 441 Q 393 442 399 455 Q 412 474 429 568 Q 439 608 468 634 Q 483 647 470 659 Q 455 672 414 691 Q 402 697 366 687 Q 341 684 318 676 Q 297 670 283 667 Q 271 667 269 663 Q 266 659 279 651 Q 303 639 321 646 Q 373 664 388 657 Q 398 651 394 620 Q 390 601 388 581 L 383 552 Q 373 497 368 479 Q 367 479 367 478 C 363 466 363 466 366 458 Z" fill="black" /></g></svg>