<?xml version='1.0' encoding='utf-8'?>
<svg xmlns="http://www.w3.org/2000/svg" version="1.1" viewBox="0 0 1024 1024"><g transform="scale(1, -1) translate(0, -900)"><path d="M 366 471 Q 366 467 368 460 Q 372 448 383 449 Q 393 450 400 462 Q 413 481 433 571 Q 446 611 474 636 Q 489 649 476 661 Q 463 674 422 694 Q 407 703 377 691 Q 350 688 329 680 Q 308 674 295 671 Q 283 671 281 667 Q 280 663 291 655 Q 315 643 332 650 Q 380 668 396 661 Q 406 655 400 625 Q 396 603 392 584 L 387 559 Q 377 508 370 491 L 366 471 Z" fill="black" /></g></svg>