<?xml version='1.0' encoding='utf-8'?>
<svg xmlns="http://www.w3.org/2000/svg" version="1.1" viewBox="0 0 1024 1024"><g transform="scale(1, -1) translate(0, -900)"><path d="M 286 272 Q 286 311 289 336 L 290 353 Q 293 387 285 396 Q 264 415 249 418 Q 239 419 234 416 Q 227 410 236 399 Q 252 371 251 345 Q 263 134 236 98 Q 226 82 232 64 Q 241 37 254 28 Q 263 22 273 37 Q 292 64 358 129 Q 373 141 374 147 Q 375 157 358 149 Q 298 122 293 124 Q 286 128 286 145 Q 285 206 286 250 L 286 272 Z" fill="black" /></g></svg>