<?xml version='1.0' encoding='utf-8'?>
<svg xmlns="http://www.w3.org/2000/svg" version="1.1" viewBox="0 0 1024 1024"><g transform="scale(1, -1) translate(0, -900)"><path d="M 564 684 L 564 685 Q 554 692 529 706 Q 510 716 503 709 Q 497 703 504 690 Q 541 618 520 242 Q 513 179 496 154 Q 489 141 496 123 Q 503 105 511 98 Q 520 91 535 102 Q 622 159 866 152 Q 885 151 887 161 Q 887 173 864 189 Q 852 201 734 183 Q 617 174 584 167 Q 557 166 563 209 Q 566 378 566 586 Q 566 631 570 663 C 571 679 571 679 564 684 Z" fill="black" /></g></svg>