<?xml version='1.0' encoding='utf-8'?>
<svg xmlns="http://www.w3.org/2000/svg" version="1.1" viewBox="0 0 1024 1024"><g transform="scale(1, -1) translate(0, -900)"><path d="M 289 276 Q 290 322 294 351 L 295 360 Q 296 373 299 382 Q 303 398 292 407 Q 273 428 258 430 Q 248 433 243 429 Q 234 423 243 413 Q 258 383 257 358 Q 260 139 234 103 Q 224 85 231 67 Q 241 42 255 32 Q 264 26 274 42 Q 295 73 368 156 Q 381 169 382 175 Q 383 185 367 176 Q 339 158 309 139 Q 296 130 291 133 Q 285 136 285 148 Q 286 215 288 263 L 289 276 Z" fill="black" /></g></svg>