<?xml version='1.0' encoding='utf-8'?>
<svg xmlns="http://www.w3.org/2000/svg" version="1.1" viewBox="0 0 1024 1024"><g transform="scale(1, -1) translate(0, -900)"><path d="M 393 546 Q 405 528 417 522 Q 426 516 438 533 Q 451 555 479 673 Q 486 697 505 716 Q 515 726 506 737 Q 494 750 461 772 Q 452 776 387 764 Q 383 764 298 745 L 260 736 Q 245 735 233 731 C 204 724 217 694 244 706 Q 253 716 401 741 Q 422 745 429 738 Q 439 725 438 711 Q 416 600 406 584 Q 403 575 390 570 C 380 563 380 563 393 546 Z" fill="black" /></g></svg>