<?xml version='1.0' encoding='utf-8'?>
<svg xmlns="http://www.w3.org/2000/svg" version="1.1" viewBox="0 0 1024 1024"><g transform="scale(1, -1) translate(0, -900)"><path d="M 296 277 Q 297 320 300 345 L 301 361 Q 302 371 304 378 Q 308 394 297 403 Q 276 424 261 426 Q 251 427 246 424 Q 239 418 248 408 Q 263 380 263 354 Q 270 153 245 118 Q 235 102 242 83 Q 251 58 265 48 Q 274 42 284 57 Q 303 85 367 157 Q 382 169 382 175 Q 383 185 367 176 Q 304 146 301 146 Q 295 150 295 256 L 296 277 Z" fill="black" /></g></svg>