<?xml version='1.0' encoding='utf-8'?>
<svg xmlns="http://www.w3.org/2000/svg" version="1.1" viewBox="0 0 1024 1024"><g transform="scale(1, -1) translate(0, -900)"><path d="M 668 529 Q 701 541 733 549 Q 742 552 746 545 Q 753 538 750 511 Q 716 142 747 75 Q 769 20 875 21 Q 921 22 956 36 Q 978 46 970 67 Q 952 104 946 193 Q 945 212 940 221 Q 933 227 929 210 Q 920 168 907 120 Q 900 83 863 75 Q 845 71 821 74 Q 803 75 799 84 Q 756 132 795 448 Q 801 494 831 533 Q 856 557 836 572 Q 823 587 790 602 Q 766 612 754 601 Q 738 591 673 569 L 618 553 Q 501 529 500 527 Q 494 520 507 513 Q 544 485 574 497 Q 593 504 614 511 L 668 529 Z" fill="black" /></g></svg>