<?xml version='1.0' encoding='utf-8'?>
<svg xmlns="http://www.w3.org/2000/svg" version="1.1" viewBox="0 0 1024 1024"><g transform="scale(1, -1) translate(0, -900)"><path d="M 414 317 Q 426 301 437 294 Q 446 288 458 305 Q 468 321 491 405 Q 498 430 518 451 Q 528 461 519 473 Q 507 486 472 508 Q 457 514 389 500 Q 386 500 275 480 Q 235 471 197 465 C 167 460 186 430 215 438 Q 251 448 302 458 L 331 463 Q 362 470 404 474 Q 432 478 440 469 Q 449 459 447 449 Q 431 353 415 343 C 404 329 404 329 414 317 Z" fill="black" /></g></svg>