<?xml version='1.0' encoding='utf-8'?>
<svg xmlns="http://www.w3.org/2000/svg" version="1.1" viewBox="0 0 1024 1024"><g transform="scale(1, -1) translate(0, -900)"><path d="M 385 522 Q 397 504 409 498 Q 418 492 430 509 Q 443 531 471 649 Q 478 673 497 692 Q 507 702 498 713 Q 486 726 453 748 Q 444 752 379 740 Q 375 740 290 721 L 252 712 Q 234 709 220 706 C 191 700 211 674 240 683 Q 295 701 393 717 Q 414 721 421 714 Q 431 701 430 687 Q 408 576 398 560 Q 395 551 382 546 C 372 539 372 539 385 522 Z" fill="black" /></g></svg>