<?xml version='1.0' encoding='utf-8'?>
<svg xmlns="http://www.w3.org/2000/svg" version="1.1" viewBox="0 0 1024 1024"><g transform="scale(1, -1) translate(0, -900)"><path d="M 268 524 Q 305 536 336 541 Q 349 544 352 540 Q 359 531 357 508 Q 356 442 343 412 Q 330 387 308 389 L 276 397 Q 257 404 271 384 Q 302 351 316 327 Q 329 312 342 325 Q 381 350 401 457 Q 405 521 422 543 Q 432 555 426 563 Q 419 572 374 589 Q 356 596 340 584 Q 325 574 267 557 Q 209 539 157 533 Q 142 532 140 524 Q 139 517 160 508 Q 182 496 198 503 Q 213 509 229 513 L 268 524 Z" fill="black" /></g></svg>