<?xml version='1.0' encoding='utf-8'?>
<svg xmlns="http://www.w3.org/2000/svg" version="1.1" viewBox="0 0 1024 1024"><g transform="scale(1, -1) translate(0, -900)"><path d="M 463 83 Q 463 84 465 87 Q 468 99 473 321 Q 473 358 480 383 Q 486 393 484 402 Q 480 408 443 430 Q 427 440 414 431 Q 411 427 415 417 Q 422 407 430 359 L 431 331 Q 431 304 432 275 L 432 250 Q 432 229 433 206 Q 432 205 432 201 L 430 179 Q 424 107 434 84 L 435 82 Q 435 81 436 79 C 446 51 456 54 463 83 Z" fill="black" /></g></svg>