<?xml version='1.0' encoding='utf-8'?>
<svg xmlns="http://www.w3.org/2000/svg" version="1.1" viewBox="0 0 1024 1024"><g transform="scale(1, -1) translate(0, -900)"><path d="M 303 581 Q 339 594 370 599 Q 383 600 385 597 Q 389 590 388 571 Q 384 517 371 494 Q 361 478 346 480 Q 336 484 326 490 Q 311 500 319 481 Q 338 448 345 426 Q 355 413 366 423 Q 405 447 426 556 Q 430 583 442 596 Q 451 606 446 613 Q 439 620 402 637 Q 389 643 374 633 Q 361 624 308 610 Q 256 595 210 590 Q 197 589 195 582 Q 194 576 212 568 Q 231 558 245 563 Q 260 569 275 573 L 303 581 Z" fill="black" /></g></svg>