<?xml version='1.0' encoding='utf-8'?>
<svg xmlns="http://www.w3.org/2000/svg" version="1.1" viewBox="0 0 1024 1024"><g transform="scale(1, -1) translate(0, -900)"><path d="M 595 368 Q 596 387 596 403 L 596 434 Q 596 480 595 523 L 594 554 Q 594 605 603 652 C 606 669 606 669 587 681 Q 569 694 554 702 Q 536 709 528 703 Q 518 697 527 682 Q 585 559 540 103 Q 540 57 506 8 Q 485 -25 528 -63 Q 541 -70 551 -53 Q 564 -19 710 131 Q 726 146 729 154 Q 730 164 722 163 Q 707 160 588 67 Q 587 63 583 65 Q 593 216 595 346 L 595 368 Z" fill="black" /></g></svg>