<?xml version='1.0' encoding='utf-8'?>
<svg xmlns="http://www.w3.org/2000/svg" version="1.1" viewBox="0 0 1024 1024"><g transform="scale(1, -1) translate(0, -900)"><path d="M 634 706 Q 689 724 736 732 Q 752 735 755 730 Q 762 720 757 692 Q 750 616 730 583 Q 715 556 691 561 Q 672 564 656 569 Q 637 575 651 556 Q 682 525 698 500 Q 711 484 726 496 Q 780 530 804 675 Q 811 711 824 728 Q 834 738 829 748 Q 822 757 780 775 Q 764 782 747 771 Q 731 759 661 741 Q 592 722 533 715 Q 520 714 517 707 Q 516 701 536 692 Q 555 680 571 687 Q 587 693 607 698 L 634 706 Z" fill="black" /></g></svg>