<?xml version='1.0' encoding='utf-8'?>
<svg xmlns="http://www.w3.org/2000/svg" version="1.1" viewBox="0 0 1024 1024"><g transform="scale(1, -1) translate(0, -900)"><path d="M 688 166 Q 739 159 797 207 Q 819 226 839 255 L 861 294 Q 888 352 911 440 Q 918 465 934 483 Q 947 499 936 509 Q 923 518 896 524 Q 875 528 854 514 Q 833 504 807 495 Q 779 486 734 478 Q 722 477 719 471 Q 716 465 731 459 Q 762 449 802 462 Q 833 478 839 478 Q 864 477 860 451 Q 848 375 827 323 L 811 288 Q 772 218 688 180 C 661 167 661 167 688 166 Z" fill="black" /></g></svg>