<?xml version='1.0' encoding='utf-8'?>
<svg xmlns="http://www.w3.org/2000/svg" version="1.1" viewBox="0 0 1024 1024"><g transform="scale(1, -1) translate(0, -900)"><path d="M 706 303 Q 832 324 852 312 Q 867 306 869 283 Q 873 225 863 120 Q 863 98 841 97 Q 813 98 789 101 Q 774 101 779 93 Q 782 84 808 69 Q 844 44 865 16 Q 875 7 887 13 Q 894 17 907 47 Q 922 83 923 152 Q 916 296 926 312 Q 935 322 928 332 Q 918 342 882 357 Q 866 363 852 355 Q 833 349 779 342 Q 739 336 706 329 L 666 321 Q 606 312 544 302 C 514 297 527 262 556 271 Q 563 271 572 276 Q 606 286 665 296 L 706 303 Z" fill="black" /></g></svg>