<?xml version='1.0' encoding='utf-8'?>
<svg xmlns="http://www.w3.org/2000/svg" version="1.1" viewBox="0 0 1024 1024"><g transform="scale(1, -1) translate(0, -900)"><path d="M 723 355 Q 844 382 864 368 Q 880 361 883 335 Q 887 271 872 156 Q 872 137 854 137 Q 827 141 806 147 Q 791 150 795 141 Q 796 132 820 113 Q 853 83 872 52 Q 884 42 895 49 Q 904 53 917 85 Q 935 124 935 206 Q 928 347 942 367 Q 952 377 944 388 Q 934 398 896 416 Q 880 423 864 416 Q 845 409 791 401 Q 755 395 723 388 L 684 380 Q 675 380 565 357 C 536 351 540 314 569 321 Q 579 320 590 326 Q 624 338 684 348 L 723 355 Z" fill="black" /></g></svg>