<?xml version='1.0' encoding='utf-8'?>
<svg xmlns="http://www.w3.org/2000/svg" version="1.1" viewBox="0 0 1024 1024"><g transform="scale(1, -1) translate(0, -900)"><path d="M 960 138 Q 947 162 929 235 Q 928 250 921 254 Q 915 257 911 240 Q 889 161 872 137 Q 839 89 717 98 Q 671 101 632 118 Q 598 136 588 158 Q 567 195 571 296 L 573 320 Q 574 366 583 416 C 586 435 586 435 576 442 L 576 443 Q 564 455 543 462 Q 531 465 524 461 Q 518 457 523 441 Q 536 407 534 372 Q 528 189 545 139 Q 552 111 577 87 Q 676 8 857 48 Q 863 51 871 52 Q 914 65 954 98 Q 973 113 960 138 Z" fill="black" /></g></svg>