<?xml version='1.0' encoding='utf-8'?>
<svg xmlns="http://www.w3.org/2000/svg" version="1.1" viewBox="0 0 1024 1024"><g transform="scale(1, -1) translate(0, -900)"><path d="M 575 547 Q 606 526 628 535 Q 809 595 825 581 Q 835 568 831 534 Q 825 437 804 394 Q 791 366 766 370 Q 747 374 730 381 Q 708 388 723 366 Q 759 329 775 299 Q 793 280 809 297 Q 864 340 883 503 Q 883 554 902 585 Q 912 598 907 607 Q 898 617 850 635 Q 831 642 814 629 Q 795 617 722 596 Q 650 575 590 567 C 560 563 550 561 575 547 Z" fill="black" /></g></svg>