<?xml version='1.0' encoding='utf-8'?>
<svg xmlns="http://www.w3.org/2000/svg" version="1.1" viewBox="0 0 1024 1024"><g transform="scale(1, -1) translate(0, -900)"><path d="M 496 189 Q 327 165 201 123 Q 182 119 187 141 Q 193 208 200 278 Q 204 300 194 314 Q 179 330 156 344 Q 146 350 135 347 Q 125 343 133 325 Q 161 259 151 194 Q 144 133 118 104 Q 102 88 109 74 Q 119 59 136 49 Q 149 42 159 50 Q 186 86 395 138 Q 470 156 489 150 Q 490 151 492 151 C 522 150 526 193 496 189 Z" fill="black" /></g></svg>