<?xml version='1.0' encoding='utf-8'?>
<svg xmlns="http://www.w3.org/2000/svg" version="1.1" viewBox="0 0 1024 1024"><g transform="scale(1, -1) translate(0, -900)"><path d="M 756 389 Q 756 575 784 669 Q 791 702 791 707 Q 787 714 781 719 Q 756 741 720 750 Q 704 754 695 745 Q 688 738 694 728 Q 713 710 717 656 Q 699 127 744 90 Q 781 42 922 65 Q 925 66 930 67 Q 958 76 972 86 Q 988 99 973 130 Q 957 182 953 250 Q 953 260 946 268 Q 937 274 933 252 Q 891 119 877 112 Q 874 112 872 110 Q 830 98 793 109 Q 777 113 769 133 Q 754 179 756 372 L 756 389 Z" fill="black" /></g></svg>