<?xml version='1.0' encoding='utf-8'?>
<svg xmlns="http://www.w3.org/2000/svg" version="1.1" viewBox="0 0 1024 1024"><g transform="scale(1, -1) translate(0, -900)"><path d="M 682 663 Q 743 678 795 685 Q 814 686 818 681 Q 828 665 818 625 Q 797 516 766 468 Q 748 441 724 447 Q 706 453 690 460 Q 668 469 682 446 Q 713 406 727 377 Q 745 355 764 371 Q 827 410 862 571 Q 874 652 896 677 Q 908 689 903 699 Q 894 709 846 733 Q 827 742 809 730 Q 787 717 701 700 Q 616 681 543 676 Q 525 676 523 667 Q 522 660 544 648 Q 566 632 586 639 Q 614 648 645 654 L 682 663 Z" fill="black" /></g></svg>