<?xml version='1.0' encoding='utf-8'?>
<svg xmlns="http://www.w3.org/2000/svg" version="1.1" viewBox="0 0 1024 1024"><g transform="scale(1, -1) translate(0, -900)"><path d="M 725 295 Q 759 308 821 323 Q 825 324 829 326 C 857 336 846 347 816 342 Q 753 332 688 314 Q 681 311 679 313 Q 678 314 681 321 Q 738 397 750 410 Q 757 417 753 426 Q 749 433 729 443 C 703 457 682 463 691 434 L 692 433 Q 704 403 667 352 Q 651 327 617 302 Q 608 295 611 286 Q 615 274 633 260 Q 640 253 650 261 Q 662 270 699 286 L 725 295 Z" fill="black" /></g></svg>