<?xml version='1.0' encoding='utf-8'?>
<svg xmlns="http://www.w3.org/2000/svg" version="1.1" viewBox="0 0 1024 1024"><g transform="scale(1, -1) translate(0, -900)"><path d="M 778 422 Q 779 426 782 429 Q 806 486 827 497 Q 837 504 836 512 Q 835 519 797 545 Q 781 555 765 548 Q 728 535 669 517 Q 650 513 653 533 Q 660 567 665 591 L 670 608 Q 674 627 679 636 Q 688 658 665 670 Q 626 686 614 682 Q 604 678 613 664 Q 622 652 623 573 Q 623 539 608 511 Q 599 498 617 481 Q 630 468 641 477 Q 668 496 731 507 Q 750 514 759 505 Q 763 499 757 482 Q 748 458 738 434 Q 735 431 733 427 C 718 401 765 395 778 422 Z" fill="black" /></g></svg>