<?xml version='1.0' encoding='utf-8'?>
<svg xmlns="http://www.w3.org/2000/svg" version="1.1" viewBox="0 0 1024 1024"><g transform="scale(1, -1) translate(0, -900)"><path d="M 371 351 Q 375 352 383 354 Q 425 364 466 375 Q 479 379 486 372 Q 492 368 492 347 Q 501 193 497 99 Q 496 77 489 66 Q 485 60 468 65 Q 446 68 424 72 Q 408 76 409 68 Q 458 31 484 5 Q 494 -10 507 -14 Q 514 -17 521 -8 Q 552 29 551 75 Q 529 328 547 363 Q 556 379 546 386 Q 530 401 500 413 Q 485 417 474 413 Q 431 389 362 375 C 333 369 342 344 371 351 Z" fill="black" /></g></svg>