<?xml version='1.0' encoding='utf-8'?>
<svg xmlns="http://www.w3.org/2000/svg" version="1.1" viewBox="0 0 1024 1024"><g transform="scale(1, -1) translate(0, -900)"><path d="M 623 676 Q 610 686 590 695 Q 574 704 562 700 Q 552 693 558 682 Q 576 658 576 596 Q 558 398 545 337 Q 535 295 521 256 Q 485 157 401 23 Q 397 17 396 12 Q 393 2 402 5 Q 435 11 513 141 Q 526 166 539 193 Q 602 343 617 540 L 618 554 Q 619 582 623 608 Q 624 627 630 646 Q 630 647 631 648 C 636 668 636 668 623 676 Z" fill="black" /></g></svg>