<?xml version='1.0' encoding='utf-8'?>
<svg xmlns="http://www.w3.org/2000/svg" version="1.1" viewBox="0 0 1024 1024"><g transform="scale(1, -1) translate(0, -900)"><path d="M 782 508 Q 800 548 818 590 Q 824 599 834 605 Q 847 614 845 623 Q 842 632 796 659 Q 775 669 758 659 Q 716 640 651 616 Q 632 612 633 631 Q 642 686 649 726 L 654 751 Q 661 788 668 803 Q 678 828 651 842 Q 605 861 591 855 Q 579 851 591 834 Q 607 810 597 678 Q 598 638 581 605 Q 571 590 593 571 Q 609 555 621 567 Q 657 597 735 613 Q 762 620 755 581 Q 749 559 735 516 C 726 487 770 481 782 508 Z" fill="black" /></g></svg>