<?xml version='1.0' encoding='utf-8'?>
<svg xmlns="http://www.w3.org/2000/svg" version="1.1" viewBox="0 0 1024 1024"><g transform="scale(1, -1) translate(0, -900)"><path d="M 593 190 Q 593 244 594 266 L 595 288 Q 596 322 601 357 L 603 380 Q 604 428 611 438 C 616 458 615 458 587 469 Q 578 475 566 478 Q 553 482 545 477 Q 538 473 544 456 Q 557 417 556 380 Q 546 151 567 88 Q 574 60 599 35 Q 683 -37 849 -15 Q 868 -11 890 -6 Q 933 7 974 40 Q 993 53 983 79 Q 973 109 963 195 Q 964 211 957 218 Q 951 222 945 204 Q 908 114 886 88 Q 873 69 832 58 Q 736 36 656 71 Q 605 98 596 169 L 593 190 Z" fill="black" /></g></svg>