<?xml version='1.0' encoding='utf-8'?>
<svg xmlns="http://www.w3.org/2000/svg" version="1.1" viewBox="0 0 1024 1024"><g transform="scale(1, -1) translate(0, -900)"><path d="M 597 435 Q 597 451 597 467 L 597 499 Q 596 545 594 587 L 593 617 Q 593 668 600 716 C 602 732 602 732 582 745 Q 566 758 550 765 Q 532 772 524 766 Q 514 760 523 746 Q 583 628 544 143 Q 538 113 517 78 Q 498 48 541 9 L 543 8 Q 556 2 566 19 Q 573 50 685 197 Q 700 213 701 223 Q 702 233 694 230 Q 682 227 590 142 Q 593 141 590 138 Q 597 283 597 408 L 597 435 Z" fill="black" /></g></svg>