<?xml version='1.0' encoding='utf-8'?>
<svg xmlns="http://www.w3.org/2000/svg" version="1.1" viewBox="0 0 1024 1024"><g transform="scale(1, -1) translate(0, -900)"><path d="M 704 200 Q 704 263 705 319 L 705 342 Q 705 381 706 417 L 707 449 Q 707 498 708 544 L 708 574 Q 708 578 709 580 Q 712 640 708 645 Q 692 660 678 667 C 652 683 636 685 647 657 Q 668 606 668 563 L 668 535 Q 668 501 668 439 L 668 410 Q 667 377 667 336 L 667 311 Q 666 257 666 190 C 666 160 704 170 704 200 Z" fill="black" /></g></svg>