<?xml version='1.0' encoding='utf-8'?>
<svg xmlns="http://www.w3.org/2000/svg" version="1.1" viewBox="0 0 1024 1024"><g transform="scale(1, -1) translate(0, -900)"><path d="M 431 235 Q 430 235 430 234 Q 306 212 213 176 Q 198 172 202 190 Q 209 262 218 336 Q 222 358 213 371 Q 200 387 177 399 Q 167 405 158 403 Q 148 399 155 381 Q 183 314 172 248 Q 163 184 136 156 Q 120 140 128 127 Q 138 114 155 104 Q 168 97 176 106 Q 206 148 377 190 Q 419 202 434 198 C 464 197 460 242 431 235 Z" fill="black" /></g></svg>