<?xml version='1.0' encoding='utf-8'?>
<svg xmlns="http://www.w3.org/2000/svg" version="1.1" viewBox="0 0 1024 1024"><g transform="scale(1, -1) translate(0, -900)"><path d="M 576 458 Q 575 473 574 491 L 574 509 Q 574 527 576 544 L 578 562 Q 579 575 582 590 Q 582 593 582 595 C 584 610 584 610 565 618 Q 558 622 550 625 Q 540 628 534 624 Q 530 621 533 608 Q 543 580 543 553 Q 540 450 550 421 Q 554 400 575 385 Q 659 331 829 377 Q 830 378 835 379 Q 874 392 912 418 Q 928 431 916 452 Q 906 465 888 513 Q 887 526 881 530 Q 875 531 872 517 Q 850 465 837 448 Q 824 432 784 419 Q 691 389 620 411 Q 592 421 584 436 Q 583 437 583 438 L 576 458 Z" fill="black" /></g></svg>