<?xml version='1.0' encoding='utf-8'?>
<svg xmlns="http://www.w3.org/2000/svg" version="1.1" viewBox="0 0 1024 1024"><g transform="scale(1, -1) translate(0, -900)"><path d="M 741 647 L 743 653 Q 752 681 776 696 Q 786 703 785 711 Q 784 718 746 741 Q 730 751 715 743 Q 675 730 611 715 Q 592 712 596 731 Q 600 750 603 765 L 608 786 Q 612 807 617 815 Q 626 834 604 846 Q 567 862 556 857 Q 546 853 555 840 Q 558 834 567 768 Q 567 737 552 710 Q 545 697 561 682 Q 574 669 584 678 Q 614 696 682 705 Q 704 712 712 702 Q 716 696 710 678 Q 704 663 699 647 C 690 619 731 619 741 647 Z" fill="black" /></g></svg>