<?xml version='1.0' encoding='utf-8'?>
<svg xmlns="http://www.w3.org/2000/svg" version="1.1" viewBox="0 0 1024 1024"><g transform="scale(1, -1) translate(0, -900)"><path d="M 516 65 Q 519 11 553 -12 Q 608 -48 774 -34 Q 850 -27 881 -10 Q 906 5 896 32 Q 881 66 870 127 Q 869 142 861 146 Q 854 150 851 132 Q 835 59 822 47 Q 812 32 779 22 Q 739 10 683 7 Q 620 6 593 14 Q 569 24 563 40 Q 559 53 558 81 L 560 125 Q 566 173 577 196 Q 589 223 571 239 Q 552 255 537 262 C 511 277 493 285 502 256 Q 520 217 515 98 L 516 65 Z" fill="black" /></g></svg>