<?xml version='1.0' encoding='utf-8'?>
<svg xmlns="http://www.w3.org/2000/svg" version="1.1" viewBox="0 0 1024 1024"><g transform="scale(1, -1) translate(0, -900)"><path d="M 718 314 Q 743 357 753 363 Q 763 370 761 378 Q 760 385 723 408 Q 707 417 693 409 Q 656 393 598 374 Q 582 370 584 387 Q 591 424 597 445 L 603 467 Q 604 470 605 471 Q 614 490 592 502 Q 573 511 560 512 C 534 517 534 517 538 508 Q 537 504 543 496 Q 558 463 553 395 Q 549 382 541 366 Q 534 354 550 338 Q 563 325 574 335 Q 599 354 662 368 Q 681 375 688 368 Q 692 364 688 347 Q 682 334 676 317 C 666 289 703 288 718 314 Z" fill="black" /></g></svg>