<?xml version='1.0' encoding='utf-8'?>
<svg xmlns="http://www.w3.org/2000/svg" version="1.1" viewBox="0 0 1024 1024"><g transform="scale(1, -1) translate(0, -900)"><path d="M 560 74 Q 560 80 559 120 L 559 141 Q 560 160 562 180 L 565 203 Q 566 227 571 251 C 575 275 575 275 569 280 Q 563 292 537 301 Q 527 305 519 300 Q 515 297 518 283 Q 530 252 528 221 Q 521 52 536 6 Q 540 -19 564 -40 Q 645 -103 809 -76 Q 825 -72 842 -68 Q 882 -55 923 -26 Q 941 -11 929 13 Q 916 37 900 110 Q 900 126 893 130 Q 887 133 883 116 Q 858 37 841 13 Q 828 -5 787 -16 Q 694 -40 614 -11 Q 572 8 564 51 L 560 74 Z" fill="black" /></g></svg>