<?xml version='1.0' encoding='utf-8'?>
<svg xmlns="http://www.w3.org/2000/svg" version="1.1" viewBox="0 0 1024 1024"><g transform="scale(1, -1) translate(0, -900)"><path d="M 270 207 Q 276 208 283 210 Q 365 231 373 226 Q 377 222 378 206 Q 382 88 379 16 Q 378 -5 371 -14 Q 367 -17 316 -6 Q 300 0 301 -8 Q 341 -48 361 -76 Q 371 -91 383 -95 Q 390 -99 398 -91 Q 431 -58 431 -2 Q 413 178 433 214 Q 443 229 434 237 Q 418 253 388 265 Q 375 271 362 266 Q 334 250 316 243 Q 297 237 262 231 C 232 226 241 200 270 207 Z" fill="black" /></g></svg>