<?xml version='1.0' encoding='utf-8'?>
<svg xmlns="http://www.w3.org/2000/svg" version="1.1" viewBox="0 0 1024 1024"><g transform="scale(1, -1) translate(0, -900)"><path d="M 532 286 Q 589 296 659 299 Q 678 298 687 286 Q 694 279 690 265 Q 690 90 678 65 Q 674 55 662 58 Q 634 62 604 67 Q 576 70 596 51 Q 662 2 689 -36 Q 701 -49 713 -39 Q 743 -8 748 126 Q 742 226 765 266 Q 780 285 773 294 Q 766 307 715 337 Q 697 352 682 345 Q 654 335 603 325 Q 414 301 343 283 Q 289 270 249 265 Q 248 265 248 264 C 218 259 247 220 276 227 Q 286 227 297 231 Q 325 243 369 254 L 395 260 Q 434 273 493 280 L 532 286 Z" fill="black" /></g></svg>