<?xml version='1.0' encoding='utf-8'?>
<svg xmlns="http://www.w3.org/2000/svg" version="1.1" viewBox="0 0 1024 1024"><g transform="scale(1, -1) translate(0, -900)"><path d="M 809 223 Q 809 216 817 201 Q 831 173 841 174 Q 855 176 869 209 Q 874 219 876 225 Q 882 242 878 272 Q 868 363 866 451 Q 866 463 868 472 Q 871 489 885 517 Q 892 533 886 539 Q 861 561 817 579 Q 802 583 780 576 Q 774 574 657 540 L 630 535 Q 608 533 596 531 C 566 527 585 503 615 506 Q 627 506 642 510 Q 710 527 768 538 Q 789 542 795 531 Q 809 514 811 453 Q 817 290 811 249 L 809 223 Z" fill="black" /></g></svg>