<?xml version='1.0' encoding='utf-8'?>
<svg xmlns="http://www.w3.org/2000/svg" version="1.1" viewBox="0 0 1024 1024"><g transform="scale(1, -1) translate(0, -900)"><path d="M 361 343 Q 380 314 393 314 Q 400 314 410 326 Q 423 350 456 468 Q 461 490 472 506 L 488 521 Q 494 529 486 541 Q 472 556 435 579 Q 423 585 353 568 Q 347 568 314 559 L 274 550 Q 263 549 254 545 L 186 529 C 157 522 171 490 200 499 Q 262 519 372 542 Q 378 543 384 543 Q 419 544 413 511 Q 382 383 368 370 C 356 350 356 350 361 343 Z" fill="black" /></g></svg>