<?xml version="1.0" ?>
<svg height="1024" version="1.1" width="1024" xmlns="http://www.w3.org/2000/svg">
  <defs/>
  <g>
    <path d="M 830.3316650390625 816.8154907226562 Q 857.3064575195312 819.082763671875 858.7832641601562 841.6427612304688 Q 851.3616943359375 863.6651000976562 847.4693603515625 866.3056030273438 Q 863.5549926757812 850.5972290039062 887.4990844726562 695.5466918945312 Q 902.7678833007812 580.4872436523438 902.8233032226562 555.5051879882812 Q 916.0916748046875 569.5897827148438 910.9723510742188 564.1799926757812 Q 870.1666870117188 518.831787109375 855.2335815429688 526.88623046875 Q 661.11328125 560.8605346679688 656.4063110351562 563.7210083007812 C 632.7523193359375 568.5658569335938 643.990478515625 570.4577026367188 640.7962646484375 568.89697265625 Q 641.2620239257812 565.4716186523438 708.802490234375 552.9337158203125 L 745.236328125 546.47900390625 Q 855.7538452148438 526.3193969726562 865.6486206054688 525.2781372070312 Q 907.439208984375 551.847412109375 902.7979125976562 562.6341552734375 Q 890.0487670898438 704.5471801757812 866.1358032226562 812.9765625 Q 857.6588745117188 851.7152709960938 857.8531494140625 834.35546875 C 847.6399536132812 809.250244140625 815.1836547851562 819.8641967773438 830.3316650390625 816.8154907226562" fill="rgb(71, 71, 71)" opacity="0.713048" stroke-width="1.0"/>
  </g>
</svg>
