<?xml version="1.0" ?>
<svg height="1024" version="1.1" width="1024" xmlns="http://www.w3.org/2000/svg">
  <defs/>
  <g>
    <path d="M 463.80657958984375 316.5693664550781 Q 447.7519226074219 355.7782287597656 324.9941711425781 223.16958618164062 Q 341.3244323730469 802.109130859375 281.21392822265625 850.4234008789062 Q 164.95626831054688 833.5313110351562 122.41372680664062 870.4041137695312 Q 107.57378387451172 884.3333740234375 111.49609375 884.3248901367188 Q 110.52013397216797 882.6345825195312 104.56805419921875 894.9157104492188 Q 137.01861572265625 816.8701782226562 342.86181640625 861.5169067382812 Q 383.4655456542969 827.4202270507812 386.6905822753906 756.6094970703125 Q 373.8679504394531 537.1080322265625 375.97711181640625 275.3091125488281 Q 470.69927978515625 366.330322265625 468.638671875 291.18060302734375 L 473.9384460449219 211.3448944091797 Q 474.98370361328125 144.04763793945312 472.973388671875 157.52432250976562 Q 483.8832092285156 120.37273406982422 473.79327392578125 154.402099609375 Q 472.080322265625 101.23161315917969 444.72381591796875 105.42414855957031 Q 460.0251770019531 102.97325897216797 467.2956848144531 119.05655670166016 Q 481.5478820800781 142.31773376464844 466.8276062011719 313.1104736328125 L 463.80657958984375 316.5693664550781" fill="rgb(0, 0, 0)" opacity="0.99037486" stroke-width="1.0"/>
  </g>
</svg>
