<?xml version="1.0" ?>
<svg height="1024" version="1.1" width="1024" xmlns="http://www.w3.org/2000/svg">
  <defs/>
  <g>
    <path d="M 539.5838623046875 354.7367858886719 Q 562.9427490234375 322.68359375 593.1860961914062 275.8468017578125 Q 629.2666015625 211.83456420898438 648.9071655273438 167.5642852783203 Q 675.5466918945312 129.11061096191406 652.4661254882812 154.9839324951172 Q 699.5906982421875 124.37005615234375 628.2092895507812 85.55622100830078 Q 558.0087890625 58.66454315185547 589.824462890625 115.79064178466797 Q 489.47442626953125 179.91744995117188 466.81365966796875 174.881103515625 C 452.3947448730469 170.90069580078125 442.2690734863281 169.01576232910156 464.08953857421875 174.02040100097656 Q 474.903564453125 179.8375701904297 516.7604370117188 158.82183837890625 Q 547.0128173828125 143.19789123535156 588.667236328125 116.57872772216797 Q 594.7342529296875 145.8262939453125 570.02734375 210.53076171875 Q 539.7998046875 282.5968017578125 504.601318359375 342.1880798339844 Q 501.59246826171875 349.7942199707031 456.2055358886719 424.3916015625 C 462.3392333984375 444.3211364746094 496.1092529296875 416.7545166015625 539.5838623046875 354.7367858886719" fill="rgb(0, 0, 0)" opacity="0.9982744" stroke-width="1.0"/>
  </g>
</svg>
