<?xml version="1.0" ?>
<svg height="1024" version="1.1" width="1024" xmlns="http://www.w3.org/2000/svg">
  <defs/>
  <g>
    <path d="M 466.55511474609375 763.56689453125 Q 540.1451416015625 792.5234375 580.65869140625 470.1341857910156 Q 543.458251953125 443.15130615234375 564.8345947265625 458.6246032714844 C 634.67138671875 502.2705383300781 600.570068359375 481.3612365722656 535.0704345703125 439.71990966796875 Q 521.2929077148438 427.0912170410156 391.36773681640625 463.7703552246094 Q 448.23486328125 451.46649169921875 415.5167236328125 455.7554626464844 Q 334.2598876953125 472.2812194824219 368.1963806152344 466.7833557128906 Q 457.4508056640625 339.0827941894531 471.2301330566406 318.0122985839844 Q 478.947509765625 313.3738098144531 486.3840026855469 312.46063232421875 Q 481.3616943359375 312.5831298828125 471.5285949707031 317.76690673828125 C 448.0792541503906 300.7922058105469 446.8751220703125 300.0285949707031 471.42364501953125 317.76202392578125 Q 440.9473876953125 363.02337646484375 369.0350036621094 465.45806884765625 Q 360.3252258300781 467.385986328125 294.72064208984375 482.1389465332031 Q 233.12168884277344 493.82293701171875 180.17227172851562 508.90570068359375 Q 168.49024963378906 554.843505859375 245.64642333984375 524.940185546875 Q 289.9990234375 513.302734375 281.8802185058594 529.2471313476562 Q 288.3320007324219 517.2984619140625 263.3773193359375 520.8461303710938 Q 285.8063049316406 514.806396484375 347.142822265625 501.0077209472656 L 427.546630859375 485.86041259765625 Q 508.5697021484375 461.8822021484375 507.61297607421875 528.9996337890625 L 466.55511474609375 763.56689453125" fill="rgb(2, 2, 2)" opacity="0.9877031" stroke-width="1.0"/>
  </g>
</svg>
