<?xml version="1.0" ?>
<svg height="1024" version="1.1" width="1024" xmlns="http://www.w3.org/2000/svg">
  <defs/>
  <g>
    <path d="M 698.2349853515625 495.939208984375 Q 680.6466064453125 444.3396911621094 598.0474853515625 469.5602722167969 L 613.2656860351562 421.4938659667969 Q 657.3125 374.921630859375 729.0477905273438 342.2056884765625 Q 809.098876953125 306.118408203125 816.8268432617188 399.8293151855469 Q 886.2290649414062 479.3263244628906 821.341552734375 436.230712890625 Q 506.5818786621094 476.97705078125 728.131103515625 498.6237487792969 Q 696.4813842773438 576.00390625 733.3134765625 591.7665405273438 Q 667.7061767578125 551.921142578125 652.7744140625 548.1528930664062 Q 675.784423828125 550.96435546875 650.0701293945312 547.8761596679688 Q 656.7291870117188 545.8817138671875 722.5068359375 585.3762817382812 Q 742.2589111328125 615.1197509765625 715.2626342773438 574.1758422851562 Q 704.5607299804688 462.982666015625 807.0555419921875 502.44366455078125 Q 822.1922607421875 867.7434692382812 889.5252075195312 481.19000244140625 Q 780.1194458007812 382.1839599609375 824.00439453125 337.6120300292969 Q 818.8292846679688 338.70880126953125 810.0532836914062 365.3724060058594 Q 806.178466796875 345.3421630859375 770.2176513671875 324.7374267578125 Q 799.0260620117188 342.2864990234375 781.3583374023438 333.9811706542969 Q 751.5453491210938 323.6496276855469 677.1790161132812 370.0570373535156 Q 657.2156982421875 381.7066650390625 632.1141967773438 403.157958984375 L 613.7477416992188 420.5791015625 Q 591.4885864257812 486.1408996582031 602.7567749023438 465.7132873535156 L 423.8827819824219 494.44921875 Q 390.0052185058594 504.7112121582031 347.3544616699219 510.1257629394531 Q 288.3805847167969 519.5612182617188 174.9290771484375 538.3382568359375 Q 155.55572509765625 596.5211181640625 240.7988739013672 563.0357666015625 Q 345.8894348144531 543.4326171875 434.290771484375 533.6255493164062 L 698.2349853515625 495.939208984375" fill="rgb(1, 1, 1)" opacity="0.982261" stroke-width="1.0"/>
  </g>
</svg>
