<?xml version="1.0" ?>
<svg height="1024" version="1.1" width="1024" xmlns="http://www.w3.org/2000/svg">
  <defs/>
  <g>
    <path d="M 320.2972106933594 460.2659912109375 Q 278.77557373046875 459.2189636230469 194.7357177734375 464.0464172363281 Q 170.2627410888672 460.6119079589844 207.8567352294922 442.18084716796875 Q 245.70724487304688 413.924560546875 353.48065185546875 373.74444580078125 Q 512.89208984375 312.179443359375 466.2086181640625 305.0831604003906 Q 289.05767822265625 359.2711181640625 238.71896362304688 370.69683837890625 Q 281.1811218261719 350.59332275390625 290.3316955566406 335.0577697753906 Q 283.4749450683594 344.0648498535156 278.8748779296875 347.27288818359375 Q 222.8956298828125 389.2314147949219 142.84376525878906 388.1544494628906 Q 107.15890502929688 406.16925048828125 192.67337036132812 450.5240783691406 Q 183.0413055419922 458.47918701171875 187.2247314453125 455.0673828125 Q 180.58807373046875 462.7732849121094 196.6071319580078 464.164306640625 Q 183.04107666015625 464.9286193847656 173.92808532714844 466.5866394042969 Q 199.8516845703125 461.9159851074219 306.6831359863281 459.90142822265625 C 337.51239013671875 460.81915283203125 346.5359191894531 461.05181884765625 320.2972106933594 460.2659912109375" fill="rgb(0, 0, 0)" opacity="0.99536204" stroke-width="1.0"/>
  </g>
</svg>
