<?xml version="1.0" ?>
<svg height="1024" version="1.1" width="1024" xmlns="http://www.w3.org/2000/svg">
  <defs/>
  <g>
    <path d="M 619.1499633789062 589.782958984375 Q 547.4025268554688 572.7792358398438 500.7156677246094 546.847412109375 Q 447.75836181640625 538.1447143554688 447.9937438964844 563.74755859375 Q 458.1122131347656 354.87548828125 463.71124267578125 300.2472839355469 Q 655.7806396484375 274.7484130859375 528.9074096679688 282.18133544921875 Q 794.9774169921875 281.40142822265625 716.282470703125 208.1765899658203 Q 534.9205322265625 269.3203125 281.1268615722656 293.8877868652344 Q 242.82260131835938 341.56890869140625 465.2109680175781 299.4527893066406 Q 463.09393310546875 277.476318359375 452.70794677734375 468.41748046875 Q 449.84259033203125 524.5327758789062 448.5965576171875 550.1085205078125 Q 448.00152587890625 552.1179809570312 448.87286376953125 549.2515258789062 Q 446.419189453125 562.2384643554688 453.9162292480469 549.3648681640625 Q 515.8973999023438 525.7022705078125 578.4469604492188 615.4148559570312 Q 639.4144897460938 752.5760498046875 705.9830322265625 626.4290771484375 Q 843.731689453125 478.9664306640625 820.3294067382812 596.818359375 Q 807.4072875976562 683.8512573242188 790.0845336914062 760.2852172851562 Q 779.4072265625 819.2440795898438 750.208251953125 855.29248046875 Q 729.7794189453125 879.1512451171875 729.8032836914062 874.8629760742188 Q 648.7395629882812 828.7698364257812 622.6224365234375 814.7031860351562 Q 638.8433227539062 823.7393188476562 642.7811279296875 824.99609375 Q 637.570068359375 823.6094970703125 627.2626342773438 817.38037109375 Q 701.0745849609375 858.3872680664062 731.1912231445312 875.8945922851562 Q 708.817138671875 894.0591430664062 698.8473510742188 899.1207275390625 Q 762.4718017578125 861.9579467773438 783.2835693359375 789.7863159179688 Q 805.456298828125 700.0265502929688 824.4699096679688 569.7050170898438 Q 819.0424194335938 547.7108154296875 827.7365112304688 525.4595947265625 Q 823.635009765625 534.7142333984375 821.7422485351562 554.3185424804688 Q 810.6197509765625 517.2684936523438 713.0493774414062 618.5093994140625 Q 755.0774536132812 558.78564453125 763.8440551757812 291.0838928222656 Q 841.1812744140625 242.18235778808594 694.436767578125 205.83155822753906 Q 707.4387817382812 470.6449279785156 642.8382568359375 577.8978271484375 L 619.1499633789062 589.782958984375" fill="rgb(0, 0, 0)" opacity="0.9905711" stroke-width="1.0"/>
  </g>
</svg>
