<?xml version="1.0" ?>
<svg height="1024" version="1.1" width="1024" xmlns="http://www.w3.org/2000/svg">
  <defs/>
  <g>
    <path d="M 495.3194274902344 379.27392578125 Q 496.23944091796875 348.64581298828125 479.4359130859375 339.1800231933594 Q 474.6703796386719 335.39031982421875 488.6068420410156 347.18402099609375 Q 481.2689514160156 340.9217529296875 478.6278991699219 338.6007385253906 Q 504.5386657714844 352.33099365234375 490.4274597167969 413.7916259765625 Q 476.34161376953125 485.17889404296875 460.26483154296875 543.7550048828125 L 449.42529296875 582.3627319335938 Q 423.7245178222656 674.3040161132812 410.7284851074219 720.1358642578125 Q 374.21649169921875 705.4956665039062 366.1910400390625 729.9866333007812 Q 371.23089599609375 714.1548461914062 388.6551513671875 714.5744018554688 Q 380.1757507324219 740.7979125976562 386.9691467285156 720.2030029296875 Q 384.4375915527344 695.1187133789062 527.2390747070312 789.6018676757812 Q 696.93505859375 783.9607543945312 782.105224609375 510.127197265625 L 825.0512084960938 708.8108520507812 Q 804.6144409179688 725.5084838867188 844.9083862304688 740.6530151367188 Q 842.814697265625 742.503662109375 845.3978881835938 740.6666259765625 Q 845.3053588867188 741.6747436523438 851.962890625 741.4844360351562 Q 844.3327026367188 742.8328857421875 824.3519287109375 729.9949340820312 Q 811.5498657226562 719.2974243164062 824.773681640625 709.3555908203125 Q 825.2023315429688 708.1921997070312 817.65087890625 674.8697509765625 L 755.2288208007812 384.5013427734375 Q 696.6810302734375 709.1943359375 502.77557373046875 773.535400390625 Q 404.6588439941406 711.5501098632812 409.90411376953125 723.1449584960938 Q 441.91558837890625 609.0462646484375 460.3580322265625 543.5280151367188 L 470.0511169433594 506.5431823730469 Q 499.8865051269531 379.5245666503906 496.8382263183594 363.2192687988281 C 497.6745910644531 375.7260437011719 493.4705505371094 397.7494201660156 495.3194274902344 379.27392578125" fill="rgb(0, 0, 0)" opacity="0.99121493" stroke-width="1.0"/>
  </g>
</svg>
