<?xml version="1.0" ?>
<svg height="1024" version="1.1" width="1024" xmlns="http://www.w3.org/2000/svg">
  <defs/>
  <g>
    <path d="M 433.3370056152344 459.10418701171875 Q 428.3216857910156 460.24114990234375 425.1541748046875 459.6426696777344 Q 430.0281677246094 460.5081787109375 445.11212158203125 456.43792724609375 Q 509.5225830078125 439.9563293457031 553.4939575195312 450.36669921875 Q 502.3317565917969 509.4698181152344 643.9989624023438 598.1842651367188 Q 608.8883666992188 629.4364013671875 391.2395935058594 669.91796875 Q 394.5754089355469 728.9739379882812 304.86480712890625 819.3079833984375 Q 319.16876220703125 807.9214477539062 290.5575256347656 821.385009765625 Q 332.012939453125 810.5485229492188 389.6854553222656 702.9631958007812 Q 341.1269226074219 707.3544311523438 739.6614379882812 652.226318359375 Q 541.535400390625 551.6943359375 539.904052734375 485.8331298828125 Q 543.8613891601562 444.64422607421875 564.7818603515625 451.8011474609375 Q 559.0783081054688 450.7557373046875 564.600830078125 452.00634765625 Q 568.4769897460938 452.7655334472656 527.0448608398438 445.77032470703125 Q 539.8956298828125 447.755859375 530.9258422851562 446.97216796875 Q 492.69879150390625 443.4256896972656 434.1981201171875 459.14080810546875 C 422.3475341796875 458.3221740722656 431.0494384765625 458.62286376953125 433.3370056152344 459.10418701171875" fill="rgb(3, 3, 3)" opacity="0.97012544" stroke-width="1.0"/>
  </g>
</svg>
