<?xml version="1.0" ?>
<svg height="1024" version="1.1" width="1024" xmlns="http://www.w3.org/2000/svg">
  <defs/>
  <g>
    <path d="M 674.8600463867188 812.5111083984375 Q 808.6288452148438 805.7077026367188 770.2615356445312 829.8427734375 Q 658.9432983398438 885.5087890625 647.4326171875 894.6290283203125 Q 657.1828002929688 886.3487548828125 784.7015991210938 822.5140991210938 Q 962.6729125976562 748.008544921875 687.3494873046875 777.0398559570312 Q 656.6419067382812 438.3617248535156 656.572998046875 460.67608642578125 Q 680.5120239257812 456.94525146484375 665.6217041015625 459.2823181152344 Q 653.4115600585938 463.4376220703125 629.62548828125 453.1383361816406 Q 641.6859741210938 459.81097412109375 601.5042114257812 438.2064514160156 Q 539.4804077148438 401.142822265625 447.2157287597656 330.7749938964844 C 427.9016418457031 192.7085723876953 383.19732666015625 282.5706481933594 407.7714538574219 425.4918212890625 Q 364.6933898925781 816.671142578125 433.1063537597656 802.4758911132812 Q 444.1390686035156 402.55645751953125 442.5384521484375 327.7075500488281 Q 627.39453125 466.8786926269531 656.4856567382812 459.7699890136719 Q 657.0158081054688 446.2054138183594 676.9421997070312 663.3141479492188 Q 687.8532104492188 781.6314697265625 687.0181274414062 774.0353393554688 Q 532.52587890625 786.1229248046875 358.6858215332031 785.6337280273438 C 355.3226623535156 980.8938598632812 366.47967529296875 805.7582397460938 674.8600463867188 812.5111083984375" fill="rgb(3, 3, 3)" opacity="0.98131126" stroke-width="1.0"/>
  </g>
</svg>
