<?xml version="1.0" ?>
<svg height="1024" version="1.1" width="1024" xmlns="http://www.w3.org/2000/svg">
  <defs/>
  <g>
    <path d="M 752.3416137695312 569.755859375 Q 767.5126342773438 531.546875 771.9373168945312 520.9345703125 Q 785.1836547851562 530.0407104492188 786.4681396484375 531.466552734375 Q 744.4750366210938 498.2554626464844 715.1140747070312 505.07293701171875 Q 724.955078125 502.2745361328125 690.4898681640625 511.27105712890625 L 651.9310913085938 519.0169067382812 Q 648.8587036132812 519.6980590820312 581.21142578125 532.5956420898438 L 546.2767333984375 538.3472290039062 Q 520.3536376953125 543.243408203125 506.4956970214844 542.5655517578125 Q 487.7203369140625 539.98046875 484.67236328125 541.5360107421875 Q 484.30206298828125 540.6857299804688 495.6376647949219 541.2476196289062 Q 514.0775756835938 543.7646484375 515.2636108398438 542.048828125 Q 512.3004760742188 543.2059326171875 526.3025512695312 541.6096801757812 L 559.1809692382812 536.3070678710938 Q 594.0177001953125 530.4422607421875 628.76220703125 523.5675659179688 L 661.72216796875 516.9678344726562 Q 681.2924194335938 513.6307983398438 706.2264404296875 507.3190002441406 Q 735.5021362304688 496.8072204589844 769.839111328125 519.6981811523438 Q 774.0209350585938 518.6049194335938 766.8137817382812 533.0665283203125 L 747.5509643554688 582.2545776367188 C 748.0817260742188 580.947509765625 743.1287231445312 593.8455200195312 752.3416137695312 569.755859375" fill="rgb(64, 64, 64)" opacity="0.7361173" stroke-width="1.0"/>
  </g>
</svg>
