<?xml version="1.0" ?>
<svg height="1024" version="1.1" width="1024" xmlns="http://www.w3.org/2000/svg">
  <defs/>
  <g>
    <path d="M 438.3586730957031 447.24322509765625 Q 466.0921630859375 455.6948547363281 457.3996276855469 453.20263671875 Q 569.15869140625 417.0657958984375 705.9645385742188 390.0789489746094 Q 713.2837524414062 400.8782958984375 555.65771484375 378.6825256347656 Q 829.2142333984375 310.19256591796875 790.8887329101562 351.6162109375 Q 819.2179565429688 326.237060546875 793.9111938476562 459.1127624511719 Q 785.4610595703125 524.137939453125 761.66259765625 550.5404663085938 Q 811.388427734375 626.7520141601562 828.8434448242188 542.5029296875 Q 854.0878295898438 415.3523864746094 852.3529052734375 404.1827392578125 Q 883.6088256835938 334.02984619140625 884.1094360351562 367.8362121582031 Q 897.6370849609375 440.3960876464844 875.7021484375 322.7131652832031 Q 829.3585205078125 269.3302917480469 492.90765380859375 369.840576171875 Q 721.5708618164062 403.115478515625 704.7963256835938 390.06964111328125 L 639.9262084960938 403.8538818359375 Q 586.956787109375 415.71466064453125 520.9228515625 433.936767578125 Q 479.42181396484375 445.8631896972656 457.3787841796875 453.0977478027344 Q 447.9044189453125 450.13311767578125 438.44232177734375 447.2252502441406 C 416.1480712890625 444.90155029296875 417.0248718261719 444.926513671875 438.3586730957031 447.24322509765625" fill="rgb(1, 1, 1)" opacity="0.9823559" stroke-width="1.0"/>
  </g>
</svg>
