<?xml version="1.0" ?>
<svg height="1024" version="1.1" width="1024" xmlns="http://www.w3.org/2000/svg">
  <defs/>
  <g>
    <path d="M 320.5848693847656 459.0298767089844 Q 278.5322265625 458.7872619628906 214.34365844726562 464.9229431152344 Q 224.3556671142578 462.12982177734375 127.36602783203125 377.5041809082031 Q 174.34413146972656 398.5058288574219 239.44329833984375 374.6976623535156 Q 290.35498046875 363.31689453125 413.9295654296875 324.031494140625 Q 433.36614990234375 289.8100891113281 358.5998229980469 287.4344482421875 Q 337.5416564941406 289.57891845703125 288.3254699707031 312.9510192871094 Q 266.0663757324219 324.0419616699219 107.83648681640625 360.1853332519531 Q 183.74632263183594 426.8886413574219 201.49778747558594 445.48876953125 Q 218.7310333251953 463.52593994140625 214.3845672607422 464.90972900390625 Q 185.9457550048828 469.3081359863281 186.6831817626953 469.40301513671875 Q 192.56088256835938 467.98089599609375 190.1124725341797 468.90765380859375 Q 185.884521484375 469.7118225097656 178.8943634033203 472.14276123046875 Q 202.1532745361328 462.79217529296875 307.295166015625 458.90118408203125 C 337.37640380859375 459.13568115234375 347.05963134765625 459.4483337402344 320.5848693847656 459.0298767089844" fill="rgb(0, 0, 0)" opacity="0.993347" stroke-width="1.0"/>
  </g>
</svg>
