<?xml version="1.0" ?>
<svg height="1024" version="1.1" width="1024" xmlns="http://www.w3.org/2000/svg">
  <defs/>
  <g>
    <path d="M 143.5692901611328 739.8024291992188 Q 228.96603393554688 817.0206298828125 267.6827392578125 898.8992919921875 Q 325.1459045410156 913.347900390625 315.04608154296875 889.357666015625 Q 323.70947265625 909.7113647460938 284.4109802246094 902.510986328125 Q 308.89068603515625 879.6692504882812 314.3450622558594 859.4979858398438 Q 329.8223876953125 815.957763671875 332.14727783203125 744.74853515625 Q 319.7619934082031 551.8283081054688 324.4442138671875 363.5400085449219 Q 330.2118835449219 207.890869140625 348.70208740234375 124.20518493652344 Q 352.3769226074219 128.15872192382812 349.4873046875 160.97926330566406 Q 351.1187744140625 152.5142059326172 350.3945007324219 103.82062530517578 Q 250.09228515625 39.35855484008789 245.4319610595703 84.68701171875 Q 264.9938049316406 107.80900573730469 275.4246520996094 141.78237915039062 Q 276.4068603515625 199.84190368652344 275.89593505859375 305.7340087890625 Q 268.8011779785156 619.1346435546875 268.57257080078125 758.3030395507812 Q 268.8003845214844 794.7349243164062 143.5692901611328 739.8024291992188" fill="rgb(0, 0, 0)" opacity="0.99706554" stroke-width="1.0"/>
  </g>
</svg>
