<?xml version="1.0" ?>
<svg height="1024" version="1.1" width="1024" xmlns="http://www.w3.org/2000/svg">
  <defs/>
  <g>
    <path d="M 478.795166015625 173.48512268066406 Q 501.5648193359375 550.0559692382812 469.4368591308594 793.1395874023438 Q 421.8194274902344 924.7359619140625 416.6718444824219 898.2599487304688 Q 356.9382019042969 848.9149169921875 420.4952697753906 901.6929321289062 Q 377.6298828125 895.801513671875 337.8044128417969 886.8950805664062 Q 371.15869140625 893.0779418945312 407.4757080078125 900.9185791015625 Q 698.7833251953125 892.1841430664062 526.3529052734375 808.3036499023438 Q 533.329345703125 536.27587890625 539.9945678710938 212.9993438720703 L 601.577392578125 252.34979248046875 Q 598.6456298828125 292.1156311035156 603.5817260742188 283.9002685546875 Q 629.8680419921875 183.2184600830078 627.4144897460938 130.84161376953125 Q 628.044921875 157.60414123535156 624.8160400390625 177.98228454589844 Q 625.08740234375 143.19725036621094 600.7207641601562 119.8833236694336 Q 583.6697998046875 105.48660278320312 589.3939208984375 110.59712219238281 Q 578.94091796875 100.82232666015625 588.473388671875 109.96886444091797 Q 633.2042236328125 141.5332794189453 622.73388671875 196.21121215820312 Q 595.8501586914062 338.9039611816406 601.48876953125 252.2736358642578 L 478.795166015625 173.48512268066406" fill="rgb(2, 2, 2)" opacity="0.9834176" stroke-width="1.0"/>
  </g>
</svg>
