<?xml version="1.0" ?>
<svg height="1024" version="1.1" width="1024" xmlns="http://www.w3.org/2000/svg">
  <defs/>
  <g>
    <path d="M 304.8482971191406 226.1800537109375 Q 319.1605224609375 219.9570770263672 305.302978515625 226.0496826171875 Q 308.88140869140625 222.7949676513672 359.1576232910156 212.74024963378906 Q 503.2148132324219 185.06092834472656 659.5562133789062 163.74383544921875 Q 735.334228515625 152.0745391845703 748.57763671875 157.85345458984375 Q 781.23291015625 165.63340759277344 799.1381225585938 187.93954467773438 Q 774.142578125 214.97216796875 728.1912841796875 277.30865478515625 Q 727.255615234375 278.3361511230469 742.4138793945312 258.1474914550781 L 728.8564453125 276.28436279296875 Q 724.628662109375 282.0097351074219 742.060546875 258.5660400390625 Q 776.6302490234375 212.94589233398438 799.5635375976562 187.2978973388672 Q 820.2196044921875 205.9371337890625 831.4263305664062 215.43701171875 Q 843.7532958984375 226.9124755859375 856.6734008789062 236.30982971191406 Q 850.2696533203125 233.08419799804688 784.3626098632812 173.5985565185547 Q 752.915283203125 151.7373809814453 714.093017578125 156.68260192871094 Q 636.2364501953125 165.9882354736328 532.8007202148438 182.38616943359375 Q 319.7155456542969 217.1061248779297 304.794677734375 226.2895050048828 C 279.47369384765625 221.50326538085938 276.4665832519531 221.16383361816406 304.8482971191406 226.1800537109375" fill="rgb(70, 70, 70)" opacity="0.716782" stroke-width="1.0"/>
  </g>
</svg>
