<?xml version="1.0" ?>
<svg height="1024" version="1.1" width="1024" xmlns="http://www.w3.org/2000/svg">
  <defs/>
  <g>
    <path d="M 797.6401977539062 748.1759643554688 Q 758.7197265625 752.0101928710938 696.8638305664062 764.3176879882812 L 659.7383422851562 772.02685546875 Q 592.0222778320312 784.932373046875 525.1141967773438 804.1945190429688 Q 488.9066467285156 817.2926025390625 492.75531005859375 822.2432250976562 Q 558.5062866210938 709.9134521484375 548.067138671875 441.8940734863281 Q 441.4461975097656 393.3039855957031 489.08673095703125 459.2018127441406 Q 508.0053405761719 515.761962890625 502.5828857421875 619.515380859375 Q 502.53753662109375 681.4380493164062 483.780517578125 743.8148803710938 Q 474.4173583984375 778.99609375 462.7140808105469 799.65234375 Q 436.9871520996094 847.625244140625 382.7521057128906 907.6315307617188 Q 359.3853454589844 933.3955078125 406.15252685546875 916.4871215820312 Q 462.314697265625 878.4282836914062 494.3746643066406 820.5945434570312 Q 496.83197021484375 804.0261840820312 691.0964965820312 765.5926513671875 Q 771.5641479492188 749.193603515625 807.0569458007812 747.62158203125 Q 784.0321655273438 749.4932250976562 791.004150390625 748.931640625 C 819.1408081054688 746.6203002929688 817.5874633789062 746.8536987304688 797.6401977539062 748.1759643554688" fill="rgb(0, 0, 0)" opacity="0.9959717" stroke-width="1.0"/>
  </g>
</svg>
