<?xml version="1.0" ?>
<svg height="1024" version="1.1" width="1024" xmlns="http://www.w3.org/2000/svg">
  <defs/>
  <g>
    <path d="M 667.8903198242188 398.1894836425781 Q 662.45849609375 384.00238037109375 663.03759765625 385.69476318359375 Q 661.5005493164062 388.37139892578125 663.0161743164062 385.806396484375 Q 666.8953857421875 394.28521728515625 659.939697265625 379.1092529296875 Q 686.6165161132812 431.9292297363281 668.8595581054688 529.5794677734375 Q 672.1317138671875 510.16021728515625 671.5123901367188 512.976318359375 Q 661.3618774414062 526.309814453125 664.0314331054688 523.30322265625 Q 659.9151611328125 537.543212890625 660.9474487304688 534.4231567382812 Q 661.1580200195312 533.7133178710938 663.0377807617188 526.7518310546875 Q 666.6593017578125 507.9627990722656 733.802490234375 471.36285400390625 Q 750.7166748046875 473.1673278808594 735.623046875 471.45709228515625 Q 731.3448486328125 472.31097412109375 742.001953125 467.1807556152344 Q 694.5455322265625 491.3516540527344 671.535400390625 513.0806274414062 Q 679.3446044921875 466.2040100097656 673.0906372070312 415.03350830078125 Q 677.299072265625 452.9158020019531 672.4615478515625 416.69976806640625 L 667.8903198242188 398.1894836425781" fill="rgb(64, 64, 64)" opacity="0.73390555" stroke-width="1.0"/>
  </g>
</svg>
