<?xml version="1.0" ?>
<svg height="1024" version="1.1" width="1024" xmlns="http://www.w3.org/2000/svg">
  <defs/>
  <g>
    <path d="M 624.2125854492188 934.6008911132812 Q 626.5408325195312 642.2149047851562 629.3726196289062 612.564697265625 L 632.1910400390625 555.8271484375 Q 635.5054931640625 515.5161743164062 634.0557250976562 535.1751708984375 Q 636.7258911132812 494.1911926269531 641.6354370117188 476.298583984375 Q 647.9630737304688 456.5318908691406 598.6046752929688 427.2014465332031 C 557.916259765625 412.79925537109375 592.7110595703125 467.29193115234375 574.2354736328125 435.20196533203125 Q 597.0427856445312 474.3938903808594 597.2194213867188 507.94805908203125 L 597.5702514648438 595.7314453125 Q 599.7523193359375 817.436767578125 557.9754028320312 853.8466796875 L 511.5096435546875 796.7767944335938 Q 532.0283203125 808.0936279296875 450.6307678222656 863.1248779296875 Q 413.0476379394531 888.2310180664062 378.4453430175781 898.3535766601562 Q 371.5799865722656 900.1427612304688 360.0014343261719 901.7133178710938 Q 404.9378967285156 897.23876953125 471.19091796875 848.7008056640625 Q 532.7423706054688 804.6975708007812 508.93817138671875 793.967041015625 L 624.2125854492188 934.6008911132812" fill="rgb(5, 5, 5)" opacity="0.9778324" stroke-width="1.0"/>
  </g>
</svg>
