<?xml version="1.0" ?>
<svg height="1024" version="1.1" width="1024" xmlns="http://www.w3.org/2000/svg">
  <defs/>
  <g>
    <path d="M 643.7119750976562 626.9869384765625 Q 676.00146484375 610.2023315429688 705.5322875976562 557.5113525390625 L 720.7708129882812 525.813232421875 Q 732.4537963867188 499.734130859375 738.9656982421875 467.5314025878906 Q 754.5330810546875 444.8150329589844 754.7141723632812 438.7626037597656 Q 738.4624633789062 410.9903869628906 677.8330688476562 394.1536865234375 Q 696.86767578125 393.4679870605469 540.085693359375 443.74908447265625 Q 627.7926025390625 349.7030944824219 546.0521850585938 341.057861328125 L 474.1642761230469 480.5394592285156 Q 464.447021484375 478.2361145019531 405.54986572265625 483.6274108886719 Q 333.95318603515625 493.3946838378906 310.03619384765625 499.81256103515625 Q 279.3124084472656 490.3296203613281 283.5126037597656 491.5975646972656 Q 283.8249816894531 491.6398620605469 296.1761474609375 495.60833740234375 Q 316.39434814453125 501.6910400390625 309.5572509765625 499.59625244140625 Q 407.9150085449219 479.2690124511719 472.7695007324219 479.8899841308594 L 499.7348327636719 506.80206298828125 Q 561.58251953125 459.476806640625 635.9400024414062 434.6185302734375 Q 693.8480834960938 420.28179931640625 691.1659545898438 465.1011962890625 Q 677.6461791992188 537.7318115234375 630.5814819335938 558.8096313476562 L 541.7965087890625 534.2989501953125 Q 538.55029296875 530.4962768554688 614.8010864257812 630.1762084960938 C 654.5465087890625 631.8572387695312 612.58544921875 634.7758178710938 643.7119750976562 626.9869384765625" fill="rgb(2, 2, 2)" opacity="0.9863678" stroke-width="1.0"/>
  </g>
</svg>
