<?xml version="1.0" ?>
<svg height="1024" version="1.1" width="1024" xmlns="http://www.w3.org/2000/svg">
  <defs/>
  <g>
    <path d="M 776.7059326171875 231.86866760253906 Q 724.5469970703125 236.6080322265625 664.3407592773438 247.69775390625 L 628.14111328125 254.65419006347656 Q 568.14501953125 265.7412109375 500.351318359375 283.736083984375 Q 460.60211181640625 297.2479248046875 474.2359313964844 290.28753662109375 Q 482.3874816894531 210.4121551513672 476.5519714355469 192.01458740234375 Q 478.4441833496094 199.14712524414062 477.8985290527344 198.67347717285156 Q 476.6520080566406 175.19105529785156 466.9300842285156 158.0092010498047 Q 470.35888671875 164.48216247558594 468.69537353515625 161.48666381835938 Q 470.5886535644531 164.36009216308594 466.2702941894531 157.69992065429688 Q 484.5427551269531 183.18919372558594 476.4187927246094 265.28045654296875 Q 475.6961364746094 297.11224365234375 467.0233154296875 294.9839172363281 Q 441.6114807128906 306.6806335449219 448.5240478515625 306.82684326171875 Q 445.5063171386719 305.8548278808594 454.0063171386719 311.1980285644531 Q 459.22906494140625 315.1519470214844 446.7898864746094 306.19024658203125 Q 472.84552001953125 283.082763671875 668.32177734375 246.94981384277344 Q 732.8951416015625 235.85919189453125 756.020263671875 234.0467071533203 C 784.221435546875 231.0352325439453 791.0530395507812 230.057861328125 776.7059326171875 231.86866760253906" fill="rgb(65, 65, 65)" opacity="0.73526555" stroke-width="1.0"/>
  </g>
</svg>
