<?xml version="1.0" ?>
<svg height="1024" version="1.1" width="1024" xmlns="http://www.w3.org/2000/svg">
  <defs/>
  <g>
    <path d="M 449.91925048828125 259.5356140136719 Q 474.57177734375 248.96983337402344 503.92401123046875 242.8521270751953 Q 614.1188354492188 213.28390502929688 718.5869140625 196.3515167236328 Q 792.208984375 184.21315002441406 787.2889404296875 204.0862579345703 Q 781.7843017578125 231.45269775390625 756.4989624023438 298.3327331542969 Q 736.6633911132812 346.6571350097656 767.4728393554688 281.9324951171875 Q 721.7445068359375 348.42169189453125 771.3164672851562 351.7071838378906 Q 819.73583984375 297.08154296875 817.1160278320312 286.1010437011719 Q 839.168212890625 246.11181640625 868.68408203125 226.023193359375 Q 895.45068359375 207.12210083007812 814.3512573242188 160.24783325195312 Q 804.7236938476562 148.7737579345703 759.9854736328125 157.52780151367188 Q 680.6490478515625 173.6023406982422 609.9549560546875 186.6017303466797 Q 547.0697021484375 201.6531524658203 456.9962463378906 220.81224060058594 Q 467.42431640625 218.18231201171875 442.9947204589844 223.6895294189453 C 414.3552551269531 227.35313415527344 422.2345275878906 264.24432373046875 449.91925048828125 259.5356140136719" fill="rgb(0, 0, 0)" opacity="0.99748063" stroke-width="1.0"/>
  </g>
</svg>
