<?xml version="1.0" ?>
<svg height="1024" version="1.1" width="1024" xmlns="http://www.w3.org/2000/svg">
  <defs/>
  <g>
    <path d="M 847.6100463867188 508.4751892089844 Q 886.1917114257812 516.5394287109375 884.0192260742188 564.8753051757812 Q 885.8956909179688 655.0552368164062 880.4996337890625 646.7659912109375 Q 812.6651000976562 621.256103515625 789.3604736328125 620.54296875 Q 801.3797607421875 621.65234375 800.5068359375 621.540771484375 Q 801.7039794921875 620.7228393554688 783.8897094726562 617.86669921875 Q 789.43017578125 617.4878540039062 832.0790405273438 630.0800170898438 Q 897.5597534179688 649.4215698242188 879.678955078125 654.7223510742188 Q 889.5372924804688 797.6139526367188 809.1515502929688 782.7262573242188 Q 905.46142578125 936.5164794921875 929.9007568359375 819.2039794921875 Q 949.531494140625 757.5593872070312 942.9502563476562 697.2045288085938 Q 928.4570922851562 526.0646362304688 949.20947265625 503.38739013671875 Q 964.7167358398438 426.5257263183594 571.3901977539062 519.596435546875 Q 656.7249145507812 437.54327392578125 800.0234375 443.6909484863281 Q 808.9876098632812 404.88751220703125 814.3829345703125 382.8263244628906 Q 828.9971313476562 342.2904357910156 853.6251220703125 280.773681640625 Q 872.5816040039062 236.4749755859375 870.6123657226562 246.4015655517578 Q 913.9659423828125 227.31321716308594 871.780517578125 245.9532470703125 Q 834.3668823242188 226.38673400878906 822.3811645507812 221.45147705078125 Q 845.1441040039062 231.68350219726562 853.4229736328125 236.60047912597656 Q 825.402099609375 226.99005126953125 794.7090454101562 237.98236083984375 L 718.5581665039062 271.438232421875 C 703.1798706054688 261.89569091796875 726.3164672851562 276.2843017578125 712.7786254882812 267.7359619140625 L 718.5794677734375 271.3460388183594 Q 754.669921875 255.50120544433594 797.140625 237.04457092285156 Q 839.4472045898438 223.99807739257812 869.759521484375 245.496826171875 Q 854.9620971679688 273.0456237792969 814.3087768554688 382.6645812988281 Q 798.899658203125 447.26483154296875 800.1039428710938 444.08599853515625 Q 779.0029296875 444.3454895019531 800.1800537109375 443.9897766113281 Q 624.1864624023438 435.76055908203125 530.6954956054688 564.4773559570312 Q 870.6231079101562 492.7451477050781 847.6100463867188 508.4751892089844" fill="rgb(0, 0, 0)" opacity="0.9864737" stroke-width="1.0"/>
  </g>
</svg>
