<?xml version="1.0" ?>
<svg height="1024" version="1.1" width="1024" xmlns="http://www.w3.org/2000/svg">
  <defs/>
  <g>
    <path d="M 354.07373046875 578.9749755859375 Q 281.9209899902344 610.8056030273438 278.6126708984375 589.9491577148438 Q 275.60064697265625 612.8599243164062 285.7726135253906 618.7905883789062 Q 304.75860595703125 624.49267578125 315.2012634277344 600.1624145507812 Q 317.7802429199219 562.8681640625 321.2077941894531 501.0814514160156 Q 310.8067626953125 524.3125 302.1132507324219 533.0242919921875 Q 328.9924011230469 516.3416748046875 321.3382568359375 450.15411376953125 C 289.1202697753906 423.0603942871094 255.2857666015625 400.8946533203125 266.3975830078125 434.4267883300781 Q 281.1963195800781 479.4302673339844 277.5721740722656 592.2865600585938 Q 297.2243347167969 604.6060791015625 261.750244140625 616.5880126953125 Q 247.71351623535156 617.0201416015625 246.88165283203125 612.1806030273438 Q 247.98329162597656 617.31201171875 262.7098388671875 616.4268188476562 Q 248.552490234375 623.27392578125 247.01605224609375 624.288330078125 Q 268.85687255859375 611.9306030273438 356.3385925292969 578.547607421875 C 384.3271484375 574.9545288085938 365.316650390625 576.968994140625 354.07373046875 578.9749755859375" fill="rgb(0, 0, 0)" opacity="0.99791646" stroke-width="1.0"/>
  </g>
</svg>
