<?xml version="1.0" ?>
<svg height="1024" version="1.1" width="1024" xmlns="http://www.w3.org/2000/svg">
  <defs/>
  <g>
    <path d="M 539.1965942382812 517.0526733398438 Q 726.1669311523438 500.7126159667969 837.3505249023438 511.5364685058594 Q 843.160400390625 503.45904541015625 827.6904907226562 564.9024658203125 Q 779.9568481445312 733.7420043945312 761.7723388671875 767.6500854492188 Q 752.8787841796875 787.1844482421875 752.2670288085938 782.8700561523438 Q 678.0780639648438 745.613037109375 657.0626831054688 735.7254638671875 Q 643.1177978515625 750.8115234375 657.1363525390625 735.6888427734375 Q 728.4229125976562 770.8245849609375 753.5653686523438 783.611328125 Q 739.144775390625 807.692138671875 727.2265014648438 811.861572265625 Q 752.6170654296875 802.0233154296875 780.777099609375 720.1902465820312 Q 832.7047119140625 559.0560913085938 839.368408203125 511.2637634277344 Q 852.2283325195312 512.4556884765625 920.9190063476562 518.8081665039062 Q 975.5860595703125 496.7387390136719 863.7166137695312 433.9665222167969 Q 832.5421752929688 414.4437255859375 801.2335205078125 426.6485595703125 Q 723.698486328125 438.60308837890625 661.8395385742188 445.5238952636719 Q 663.057861328125 445.21356201171875 653.2943725585938 446.6386413574219 L 603.1444091796875 452.4949645996094 Q 552.218994140625 458.0282897949219 502.00518798828125 463.8030700683594 L 451.23004150390625 468.4719543457031 Q 345.67919921875 477.1041259765625 286.04364013671875 481.7070007324219 Q 201.5634307861328 488.6219787597656 133.790283203125 492.3270568847656 Q 105.84719848632812 489.0128479003906 105.73591613769531 507.9444274902344 Q 111.40680694580078 538.4719848632812 182.42022705078125 565.7888793945312 Q 194.87403869628906 570.774169921875 223.35745239257812 559.2739868164062 Q 309.8974609375 544.2037353515625 437.7547607421875 524.4034423828125 Q 374.3291931152344 533.0001220703125 485.3260498046875 520.4292602539062 L 539.1965942382812 517.0526733398438" fill="rgb(0, 0, 0)" opacity="0.9986568" stroke-width="1.0"/>
  </g>
</svg>
