<?xml version="1.0" ?>
<svg height="1024" version="1.1" width="1024" xmlns="http://www.w3.org/2000/svg">
  <defs/>
  <g>
    <path d="M 691.0116577148438 836.3922729492188 Q 728.83544921875 861.8041381835938 740.3677978515625 873.3038940429688 Q 741.952880859375 894.5715942382812 743.1968994140625 910.3212890625 Q 743.0331420898438 911.0963134765625 740.3057250976562 872.0391235351562 Q 755.876220703125 833.5184326171875 748.7657470703125 850.7794799804688 Q 748.0425415039062 781.418701171875 742.5592651367188 639.6775512695312 Q 738.409912109375 554.5486450195312 734.0391845703125 562.5836181640625 Q 743.5311889648438 572.714111328125 745.2760009765625 583.3951416015625 Q 738.8472900390625 551.9172973632812 688.6537475585938 544.5294189453125 Q 710.33251953125 538.5338745117188 703.1643676757812 540.6685180664062 Q 634.719970703125 558.5127563476562 516.9169921875 582.7904663085938 C 493.0840759277344 585.9398193359375 505.1176452636719 584.1121215820312 506.73150634765625 584.0390625 Q 516.029541015625 584.4220581054688 668.751953125 549.48486328125 Q 698.4213256835938 536.9786376953125 734.3103637695312 562.3035888671875 Q 741.2009887695312 552.3043823242188 747.3106079101562 781.0984497070312 Q 749.271240234375 856.187255859375 748.4555053710938 851.9338989257812 Q 745.4507446289062 858.444091796875 739.6634521484375 874.0576782226562 C 746.6331176757812 874.3694458007812 687.6311645507812 833.6904907226562 691.0116577148438 836.3922729492188" fill="rgb(73, 73, 73)" opacity="0.70404994" stroke-width="1.0"/>
  </g>
</svg>
