<?xml version="1.0" ?>
<svg height="1024" version="1.1" width="1024" xmlns="http://www.w3.org/2000/svg">
  <defs/>
  <g>
    <path d="M 706.0890502929688 426.61285400390625 Q 539.2705078125 545.61279296875 487.8399963378906 542.0513305664062 Q 487.20770263671875 570.332275390625 484.2506408691406 647.8389892578125 Q 412.2001953125 576.987548828125 541.5798950195312 739.6396484375 Q 544.8060913085938 167.89610290527344 548.1890258789062 128.30108642578125 Q 572.78271484375 155.0271453857422 608.611572265625 160.20199584960938 Q 584.221435546875 156.62725830078125 564.1868896484375 142.35800170898438 Q 546.244384765625 128.50669860839844 548.1181030273438 125.97174835205078 Q 548.0802612304688 115.28899383544922 545.146240234375 238.69248962402344 Q 466.53277587890625 111.90511322021484 492.77801513671875 395.5818786621094 Q 486.7097473144531 510.570068359375 488.8471374511719 551.8300170898438 Q 389.70257568359375 494.11395263671875 375.1360168457031 512.0565185546875 Q 388.462890625 498.7331237792969 441.084716796875 526.7837524414062 Q 521.8580322265625 558.51025390625 461.400146484375 576.7474365234375 Q 531.8108520507812 538.1100463867188 731.1076049804688 417.6220703125 Q 593.3869018554688 502.3733215332031 706.80615234375 426.694091796875 C 783.7308959960938 422.4026794433594 759.484130859375 423.65008544921875 706.0890502929688 426.61285400390625" fill="rgb(2, 2, 2)" opacity="0.9747851" stroke-width="1.0"/>
  </g>
</svg>
