<?xml version="1.0" ?>
<svg height="1024" version="1.1" width="1024" xmlns="http://www.w3.org/2000/svg">
  <defs/>
  <g>
    <path d="M 547.4046020507812 434.787841796875 Q 573.9669189453125 428.8776550292969 562.9773559570312 440.83453369140625 L 563.096923828125 443.4588928222656 Q 539.1764526367188 470.6148986816406 551.1517333984375 395.7135314941406 L 559.025634765625 264.9595031738281 Q 568.4503173828125 174.2297821044922 601.5181274414062 118.92709350585938 Q 589.2645874023438 142.0511016845703 592.3025512695312 131.4799041748047 Q 596.9971313476562 111.81703186035156 553.2871704101562 90.87454223632812 Q 512.064453125 71.59423065185547 487.7117004394531 73.48973846435547 Q 459.64617919921875 75.79679107666016 483.8915710449219 112.3387222290039 Q 506.10479736328125 161.92904663085938 502.9172668457031 219.33900451660156 Q 504.8670654296875 343.064208984375 495.3718566894531 448.4111022949219 L 547.0023803710938 443.93927001953125 Q 556.74072265625 461.1307373046875 567.104248046875 432.61181640625 L 494.7856140136719 438.84735107421875 Q 484.15325927734375 680.3419189453125 390.17987060546875 750.45263671875 Q 325.1980895996094 813.151611328125 135.46331787109375 872.1181030273438 Q 193.18215942382812 912.4403686523438 291.63714599609375 824.2171020507812 Q 148.2861785888672 905.1749267578125 137.35475158691406 874.3238525390625 Q 179.55435180664062 900.0886840820312 322.00286865234375 850.0370483398438 Q 516.3316040039062 769.3102416992188 537.75634765625 548.0525512695312 L 547.4046020507812 434.787841796875" fill="rgb(0, 0, 0)" opacity="0.99905694" stroke-width="1.0"/>
  </g>
</svg>
