<?xml version="1.0" ?>
<svg height="1024" version="1.1" width="1024" xmlns="http://www.w3.org/2000/svg">
  <defs/>
  <g>
    <path d="M 443.1998596191406 422.7770080566406 Q 422.2850036621094 413.033447265625 415.2002868652344 402.5943298339844 Q 407.0634460449219 393.8213806152344 416.2725830078125 403.9454040527344 Q 416.4511413574219 406.0221862792969 428.96685791015625 415.4288635253906 Q 485.64312744140625 445.2867736816406 501.0965881347656 457.515869140625 Q 327.831787109375 503.51934814453125 82.07569122314453 554.0855712890625 Q 133.75340270996094 635.882080078125 231.8206329345703 583.29296875 Q 397.08673095703125 528.8652954101562 408.8991394042969 534.7479248046875 Q 348.0287170410156 545.1724853515625 371.2701416015625 541.605224609375 Q 397.9459533691406 535.6109008789062 476.0683288574219 526.8656005859375 L 532.279296875 520.5571899414062 Q 581.09228515625 517.671630859375 611.9825439453125 498.0016784667969 L 631.6256713867188 480.6116943359375 Q 732.6380615234375 461.7837829589844 890.8313598632812 455.44189453125 Q 864.6904296875 531.112548828125 825.7771606445312 649.2429809570312 Q 810.8312377929688 686.8369750976562 793.53125 709.236572265625 Q 775.1439208984375 701.612548828125 715.864013671875 660.5047607421875 Q 729.9933471679688 670.1263427734375 727.7863159179688 668.5376586914062 Q 711.401123046875 663.56640625 727.612548828125 668.3573608398438 Q 773.0343017578125 699.7080078125 793.44677734375 709.2896728515625 Q 778.9397583007812 727.2965698242188 765.3994140625 735.6705932617188 Q 810.16455078125 706.686767578125 836.4362182617188 616.279296875 Q 875.7623901367188 498.95458984375 879.92919921875 486.68524169921875 Q 875.1470947265625 501.2152404785156 878.5075073242188 497.5281066894531 Q 871.885498046875 503.69384765625 897.4698486328125 439.931396484375 Q 891.4114990234375 400.50286865234375 782.28125 381.3660583496094 Q 564.3592529296875 441.8272399902344 508.87542724609375 455.30426025390625 Q 619.643798828125 515.1224975585938 664.5205078125 453.0975341796875 L 621.6753540039062 488.99957275390625 Q 604.396240234375 509.2307434082031 554.8651733398438 518.3244018554688 L 509.5648193359375 523.1415405273438 Q 479.1934814453125 526.1697387695312 423.9330749511719 533.2506103515625 Q 338.0523376464844 543.8751831054688 602.426025390625 484.320556640625 Q 640.6980590820312 398.80316162109375 406.4433288574219 491.23126220703125 L 488.9190979003906 472.9366149902344 C 529.5101318359375 466.79833984375 486.91351318359375 447.9229736328125 443.1998596191406 422.7770080566406" fill="rgb(0, 0, 0)" opacity="0.9918268" stroke-width="1.0"/>
  </g>
</svg>
