<?xml version="1.0" ?>
<svg height="1024" version="1.1" width="1024" xmlns="http://www.w3.org/2000/svg">
  <defs/>
  <g>
    <path d="M 459.8042297363281 222.1164093017578 Q 486.0738525390625 186.71192932128906 448.1237487792969 163.2000732421875 Q 364.8064270019531 107.57905578613281 349.06829833984375 152.0131072998047 Q 380.664794921875 181.94461059570312 386.4436950683594 227.85568237304688 Q 390.1000671386719 271.8318176269531 388.7850646972656 416.3380432128906 Q 377.755615234375 753.466552734375 415.0910949707031 791.368408203125 Q 374.5776062011719 763.2410278320312 443.0017395019531 811.0084838867188 Q 508.0207214355469 833.0098266601562 426.31805419921875 812.2461547851562 Q 400.0281982421875 861.1683349609375 427.1180419921875 810.5367431640625 Q 420.5721435546875 814.7056884765625 542.0818481445312 834.81005859375 Q 769.7356567382812 845.9226684570312 809.0186157226562 788.3036499023438 Q 881.8671875 805.8793334960938 895.72021484375 796.3086547851562 Q 880.881591796875 806.7119750976562 796.0776977539062 784.9620361328125 Q 820.2081298828125 773.885498046875 745.9378662109375 744.02392578125 Q 554.1727905273438 805.567626953125 470.2351379394531 768.076171875 Q 439.7428894042969 753.4816284179688 435.5390930175781 691.1284790039062 Q 426.4566650390625 631.3432006835938 438.5701904296875 345.7073669433594 Q 447.55230712890625 246.73681640625 460.203369140625 223.58428955078125 C 461.9271240234375 241.4042205810547 462.5528259277344 241.16944885253906 459.8042297363281 222.1164093017578" fill="rgb(0, 0, 0)" opacity="0.996662" stroke-width="1.0"/>
  </g>
</svg>
