<?xml version="1.0" ?>
<svg height="1024" version="1.1" width="1024" xmlns="http://www.w3.org/2000/svg">
  <defs/>
  <g>
    <path d="M 507.111328125 553.0401000976562 Q 633.9203491210938 517.2434692382812 669.4136962890625 522.7689208984375 Q 687.2791748046875 556.5103149414062 701.1171875 616.9970703125 Q 741.1492309570312 864.0204467773438 588.1424560546875 739.458740234375 Q 439.8914489746094 593.245361328125 357.53045654296875 561.4136962890625 Q 550.759765625 798.8046264648438 634.2965087890625 869.3463745117188 Q 618.9207153320312 843.388916015625 599.0391235351562 833.3403930664062 Q 570.34228515625 812.5322875976562 620.016357421875 855.19921875 Q 675.0670776367188 908.8193969726562 711.7565307617188 909.5942993164062 Q 720.133544921875 892.330810546875 654.7180786132812 884.0482788085938 Q 699.4866943359375 932.011962890625 969.8484497070312 888.8123168945312 Q 892.7709350585938 865.2662353515625 674.8263549804688 794.7615966796875 Q 668.4573974609375 790.4915771484375 704.5475463867188 758.3112182617188 Q 721.8319091796875 632.9482421875 669.3875732421875 522.2379150390625 Q 721.1381225585938 552.1721801757812 708.1688232421875 544.677978515625 Q 684.3370971679688 530.9203491210938 671.80810546875 523.5271606445312 Q 674.3817749023438 508.3504943847656 671.7679443359375 523.335693359375 Q 659.6925659179688 519.5845336914062 616.9044189453125 526.3736572265625 Q 557.8892822265625 538.172119140625 521.3466186523438 549.2291259765625 C 499.2550048828125 554.52587890625 512.4076538085938 552.5158081054688 507.111328125 553.0401000976562" fill="rgb(1, 1, 1)" opacity="0.9843839" stroke-width="1.0"/>
  </g>
</svg>
