<?xml version="1.0" ?>
<svg height="1024" version="1.1" width="1024" xmlns="http://www.w3.org/2000/svg">
  <defs/>
  <g>
    <path d="M 756.4127807617188 243.98878479003906 Q 761.3180541992188 364.16998291015625 576.1676025390625 395.6656799316406 Q 741.467041015625 423.2760314941406 653.111083984375 605.021240234375 Q 629.3684692382812 700.5980224609375 586.4779663085938 756.3944091796875 Q 563.178955078125 784.2491455078125 536.2630615234375 773.9014282226562 Q 510.3330993652344 760.169189453125 469.8086853027344 729.5037841796875 Q 421.2354431152344 696.6796264648438 466.076171875 767.2075805664062 Q 500.8133544921875 830.2831420898438 513.1610717773438 871.7938232421875 Q 528.2476196289062 902.1132202148438 580.1722412109375 875.6893920898438 Q 618.0227661132812 853.1533203125 658.0062255859375 778.4908447265625 Q 688.9459228515625 706.9722900390625 797.8358764648438 401.18408203125 Q 670.16064453125 366.5312194824219 762.1714477539062 282.5466003417969 Q 797.9948120117188 258.89031982421875 750.2247314453125 290.66998291015625 Q 772.0441284179688 234.9575958251953 712.7069091796875 203.6614227294922 Q 666.3512573242188 183.85791015625 698.1139526367188 198.0045166015625 Q 624.8417358398438 165.71127319335938 428.6281433105469 456.7706604003906 Q 425.35748291015625 225.64642333984375 547.929931640625 238.6832275390625 Q 245.9796600341797 256.59881591796875 261.4969177246094 246.71444702148438 Q 256.018798828125 250.8134307861328 296.9469909667969 250.31103515625 Q 399.5312805175781 247.93142700195312 308.34869384765625 250.1356658935547 Q 576.3466796875 243.1522979736328 634.7286376953125 214.2097930908203 Q 696.8267822265625 164.60533142089844 756.4127807617188 243.98878479003906" fill="rgb(6, 6, 6)" opacity="0.9570011" stroke-width="1.0"/>
  </g>
</svg>
