<?xml version="1.0" ?>
<svg height="1024" version="1.1" width="1024" xmlns="http://www.w3.org/2000/svg">
  <defs/>
  <g>
    <path d="M 879.1361083984375 864.2937622070312 Q 874.1701049804688 835.9143676757812 874.4860229492188 737.25 Q 873.012939453125 714.384033203125 874.2591552734375 732.4592895507812 Q 875.1715087890625 718.3956909179688 874.36474609375 729.99267578125 Q 874.5679931640625 849.0377807617188 879.3555297851562 864.1551513671875 Q 838.1803588867188 893.0933227539062 720.0458984375 894.6339721679688 Q 631.2662353515625 894.4684448242188 590.11962890625 874.9596557617188 Q 563.1107177734375 864.18994140625 557.873779296875 842.47412109375 Q 537.1688232421875 777.07568359375 556.4385375976562 626.35595703125 Q 552.6635131835938 582.0953369140625 553.097412109375 593.91552734375 Q 570.5302734375 630.7296142578125 545.81396484375 578.1571655273438 C 522.0149536132812 558.5186767578125 529.329345703125 563.8150634765625 537.6840209960938 571.659423828125 Q 563.6910400390625 587.2249755859375 552.20849609375 661.8109130859375 Q 538.8251342773438 799.2945556640625 561.4857177734375 852.368896484375 Q 567.3078002929688 861.6244506835938 576.486572265625 867.9629516601562 Q 629.906982421875 900.6307983398438 762.2109985351562 893.157958984375 Q 841.0430908203125 887.3167724609375 872.2391967773438 868.5435180664062 Q 891.7105712890625 856.9283447265625 879.1361083984375 864.2937622070312" fill="rgb(73, 73, 73)" opacity="0.7066594" stroke-width="1.0"/>
  </g>
</svg>
