<?xml version="1.0" ?>
<svg height="1024" version="1.1" width="1024" xmlns="http://www.w3.org/2000/svg">
  <defs/>
  <g>
    <path d="M 265.64215087890625 215.20095825195312 Q 262.5368957519531 199.50059509277344 257.1924743652344 184.07321166992188 Q 244.66033935546875 159.76058959960938 248.69021606445312 167.81028747558594 Q 238.78831481933594 179.0025634765625 248.37759399414062 168.01397705078125 Q 285.7245788574219 215.79673767089844 267.4038391113281 479.30792236328125 Q 257.23126220703125 575.0310668945312 294.8727111816406 780.4905395507812 Q 269.8905334472656 789.2675170898438 61.646236419677734 797.6273803710938 Q 64.26265716552734 881.9010620117188 63.09693908691406 844.7313232421875 Q 61.08721923828125 775.8837280273438 61.623695373535156 796.693359375 Q 28.4512939453125 767.5460815429688 135.88966369628906 863.8102416992188 Q 426.7673645019531 827.740478515625 295.3190002441406 775.0484008789062 Q 270.1805114746094 665.3128662109375 264.3616638183594 519.3840942382812 Q 281.6913757324219 306.8067626953125 265.7407531738281 215.13754272460938 Q 273.9354553222656 202.80276489257812 274.1267395019531 202.39886474609375 C 276.1944580078125 199.53733825683594 278.18353271484375 196.54312133789062 265.64215087890625 215.20095825195312" fill="rgb(3, 3, 3)" opacity="0.97889435" stroke-width="1.0"/>
  </g>
</svg>
