<?xml version="1.0" ?>
<svg height="1024" version="1.1" width="1024" xmlns="http://www.w3.org/2000/svg">
  <defs/>
  <g>
    <path d="M 725.8916625976562 406.90557861328125 Q 730.3309326171875 420.02740478515625 732.1096801757812 420.8034362792969 Q 729.970703125 419.5149841308594 726.0372924804688 407.0652160644531 Q 740.5140380859375 383.31268310546875 761.8402709960938 221.98211669921875 Q 753.6724853515625 222.4157257080078 876.8313598632812 221.71754455566406 Q 909.4090576171875 208.46481323242188 876.9073486328125 182.33120727539062 Q 820.8997802734375 142.0621337890625 768.804443359375 150.6897735595703 Q 752.7943725585938 155.76773071289062 675.109375 168.13072204589844 Q 672.5706176757812 169.51870727539062 549.1907348632812 187.2314453125 Q 487.7360534667969 197.2994384765625 183.83255004882812 234.3057098388672 C 124.39574432373047 218.2686309814453 160.43368530273438 310.3468933105469 267.9830017089844 272.00274658203125 Q 427.3856201171875 235.2562713623047 611.865234375 225.5184783935547 L 622.0466918945312 225.150146484375 Q 752.5357055664062 221.1990203857422 678.5640869140625 223.62393188476562 Q 713.1665649414062 222.5523681640625 761.8963012695312 222.1642608642578 Q 740.099365234375 384.4312744140625 726.2537231445312 406.8112487792969 C 713.6988525390625 412.3072204589844 728.0714721679688 405.9843444824219 725.8916625976562 406.90557861328125" fill="rgb(0, 0, 0)" opacity="0.9983619" stroke-width="1.0"/>
  </g>
</svg>
