<?xml version="1.0" ?>
<svg height="1024" version="1.1" width="1024" xmlns="http://www.w3.org/2000/svg">
  <defs/>
  <g>
    <path d="M 386.85736083984375 670.9395141601562 Q 484.27850341796875 616.821533203125 589.1376342773438 606.55712890625 Q 576.3606567382812 576.88232421875 453.0118103027344 639.9058837890625 Q 535.2618408203125 614.970703125 645.3904418945312 614.8759155273438 Q 607.113037109375 699.0286254882812 566.5308837890625 788.033935546875 Q 538.362060546875 844.0283813476562 566.0035400390625 834.7584228515625 Q 551.341796875 868.4257202148438 485.15142822265625 841.09375 Q 451.6347351074219 822.826904296875 436.6844787597656 808.3759765625 Q 440.82830810546875 810.7860717773438 429.4631652832031 808.8208618164062 Q 428.4289245605469 809.107666015625 437.6717224121094 809.5908203125 Q 502.7147521972656 863.0586547851562 553.31591796875 850.54296875 Q 519.1079711914062 886.997314453125 515.381103515625 896.1509399414062 Q 517.9667358398438 890.0917358398438 535.6634521484375 869.5662841796875 Q 595.9656982421875 806.7174072265625 676.638671875 696.2446899414062 Q 711.4146728515625 652.7736206054688 740.78076171875 640.3621826171875 Q 782.3636474609375 619.449462890625 701.3555908203125 572.58984375 Q 672.02978515625 552.677001953125 627.9873046875 576.111083984375 Q 623.47802734375 555.5546264648438 627.8208618164062 575.7481689453125 Q 559.2510986328125 592.14697265625 546.24365234375 593.6304321289062 Q 418.2239685058594 616.4447631835938 448.42791748046875 583.2245483398438 Q 396.2168273925781 557.7755737304688 448.4887390136719 607.0431518554688 Q 460.3916931152344 525.1024780273438 471.001953125 493.7261657714844 Q 480.5306091308594 433.77874755859375 561.652099609375 92.9931640625 Q 458.66802978515625 56.025062561035156 466.2663269042969 349.0043029785156 C 385.7175598144531 447.3426513671875 393.2010498046875 437.0790710449219 455.145751953125 363.4722595214844 Q 442.8521728515625 440.7347717285156 416.5508117675781 518.7145385742188 Q 395.36065673828125 587.3765869140625 374.77557373046875 598.696044921875 Q 335.4329833984375 605.6547241210938 337.6405029296875 601.5369873046875 Q 336.0050354003906 605.96484375 376.6046447753906 598.2630004882812 Q 351.07757568359375 635.61669921875 386.85736083984375 670.9395141601562" fill="rgb(0, 0, 0)" opacity="0.99278" stroke-width="1.0"/>
  </g>
</svg>
