<?xml version="1.0" ?>
<svg height="1024" version="1.1" width="1024" xmlns="http://www.w3.org/2000/svg">
  <defs/>
  <g>
    <path d="M 717.6215209960938 476.71392822265625 Q 737.1095581054688 479.40692138671875 744.5557250976562 510.8985900878906 Q 745.927978515625 572.2195434570312 752.6400146484375 471.1456298828125 Q 736.6318969726562 634.3172607421875 667.4649658203125 822.745361328125 Q 717.362060546875 743.466552734375 658.1640625 810.5336303710938 Q 652.226806640625 817.26611328125 568.1402587890625 795.1348876953125 Q 520.0659790039062 779.6995239257812 544.9004516601562 787.6395874023438 Q 547.7349853515625 770.9137573242188 542.3760375976562 800.7610473632812 Q 581.6493530273438 841.4171752929688 605.8421630859375 887.7855224609375 Q 617.2613525390625 915.4247436523438 625.0140991210938 919.1896362304688 Q 641.5457763671875 937.2041625976562 669.3818969726562 915.2072143554688 Q 726.3662719726562 876.6150512695312 748.0775756835938 821.241455078125 Q 768.3206787109375 740.8450317382812 808.74462890625 536.0372314453125 Q 840.2098388671875 487.0141906738281 841.3475952148438 494.6032409667969 Q 842.6461181640625 449.5770263671875 841.6992797851562 477.86370849609375 Q 828.9865112304688 463.0080871582031 774.1738891601562 434.0738525390625 Q 758.5391235351562 428.5538024902344 767.865966796875 431.71624755859375 Q 734.8742065429688 422.5646057128906 669.8761596679688 438.870361328125 Q 611.4465942382812 446.7287292480469 583.7964477539062 451.6034240722656 Q 610.09912109375 416.2994384765625 636.8895263671875 368.0145263671875 Q 685.611328125 277.37066650390625 715.338623046875 205.16989135742188 Q 730.6456298828125 163.4358367919922 715.2418212890625 170.4198760986328 Q 768.2007446289062 182.12522888183594 779.3594360351562 185.30836486816406 Q 774.1846313476562 183.7450408935547 714.9176025390625 170.2882080078125 Q 762.8161010742188 157.5609130859375 711.7316284179688 170.96957397460938 Q 656.5413208007812 175.37794494628906 594.6119995117188 160.24720764160156 Q 490.49072265625 134.34266662597656 378.06610107421875 78.0188217163086 Q 362.3731689453125 334.2725830078125 360.89569091796875 279.5843200683594 Q 241.4049072265625 217.1416778564453 228.3914031982422 243.1623077392578 Q 231.96878051757812 238.718994140625 230.9549560546875 240.1394500732422 Q 247.73240661621094 222.52818298339844 350.2554016113281 273.79205322265625 Q 377.33709716796875 298.8522644042969 418.1603088378906 261.52410888671875 Q 315.5810546875 259.6412048339844 358.9977722167969 539.6375122070312 L 442.2305603027344 107.96604919433594 Q 623.96826171875 185.4205322265625 720.2765502929688 169.32012939453125 Q 729.3682250976562 174.55860900878906 707.0778198242188 225.0008544921875 Q 636.3391723632812 383.22430419921875 582.8428955078125 452.622314453125 Q 356.32940673828125 485.80267333984375 581.2911987304688 496.7793273925781 Q 261.789794921875 432.8179626464844 304.285400390625 562.929931640625 Q 510.4910888671875 492.590087890625 643.7451171875 482.12109375 Q 702.9478759765625 472.6542053222656 717.6215209960938 476.71392822265625" fill="rgb(1, 1, 1)" opacity="0.98442703" stroke-width="1.0"/>
  </g>
</svg>
