<?xml version="1.0" ?>
<svg height="1024" version="1.1" width="1024" xmlns="http://www.w3.org/2000/svg">
  <defs/>
  <g>
    <path d="M 445.3546447753906 536.83203125 Q 441.9671936035156 570.1293334960938 480.68206787109375 557.350341796875 L 496.2187194824219 542.797119140625 Q 501.0059509277344 480.9726867675781 504.801025390625 433.7126770019531 Q 503.00738525390625 467.9787292480469 503.6274719238281 452.55059814453125 C 506.89227294921875 402.2314453125 508.8428955078125 386.28912353515625 510.8479919433594 354.4651794433594 Q 524.8012084960938 205.63536071777344 514.8389282226562 258.69805908203125 Q 554.1311645507812 192.77108764648438 442.0658874511719 157.37176513671875 Q 460.3649597167969 383.849609375 450.22784423828125 362.76373291015625 Q 444.4267272949219 569.4095458984375 439.541748046875 748.2959594726562 Q 436.0368957519531 805.8814086914062 431.3747863769531 828.910888671875 Q 410.234375 791.5924072265625 431.4119873046875 829.1432495117188 L 428.33349609375 841.41455078125 Q 424.3039855957031 854.431884765625 420.0377197265625 856.7176513671875 Q 439.6774597167969 844.2057495117188 441.67779541015625 665.3736572265625 L 445.3546447753906 536.83203125" fill="rgb(0, 0, 0)" opacity="0.9931111" stroke-width="1.0"/>
  </g>
</svg>
