<?xml version="1.0" ?>
<svg height="1024" version="1.1" width="1024" xmlns="http://www.w3.org/2000/svg">
  <defs/>
  <g>
    <path d="M 397.0177917480469 240.0697021484375 Q 397.3162536621094 369.5831604003906 389.380126953125 252.81112670898438 Q 435.9249572753906 161.59814453125 289.8427429199219 148.83274841308594 Q 358.28192138671875 142.7128143310547 344.1383972167969 506.9470520019531 Q 417.5791015625 495.9877624511719 388.28973388671875 249.60897827148438 Q 450.39801025390625 186.0408172607422 420.0890197753906 582.3468627929688 Q 400.1676940917969 394.1862487792969 346.05712890625 466.912353515625 Q 344.6506652832031 856.0050659179688 345.0599365234375 784.8981323242188 Q 403.5014953613281 812.4407348632812 343.91217041015625 784.5300903320312 Q 365.72711181640625 813.7630004882812 393.9732360839844 784.0486450195312 L 394.0010986328125 500.234130859375 Q 393.9913024902344 414.8632507324219 420.5791320800781 576.1939086914062 Q 443.6233215332031 272.0579528808594 410.462646484375 242.774658203125 Q 446.25958251953125 249.70570373535156 444.8507385253906 247.61680603027344 C 444.6834411621094 248.6331329345703 442.91290283203125 249.05795288085938 397.0177917480469 240.0697021484375" fill="rgb(0, 0, 0)" opacity="0.99190176" stroke-width="1.0"/>
  </g>
</svg>
