<?xml version="1.0" ?>
<svg height="1024" version="1.1" width="1024" xmlns="http://www.w3.org/2000/svg">
  <defs/>
  <g>
    <path d="M 517.7911987304688 547.0455932617188 Q 563.889404296875 473.2698669433594 672.986572265625 301.6062927246094 Q 703.5060424804688 189.34991455078125 613.3679809570312 675.2889404296875 Q 698.260498046875 678.2977905273438 764.5308227539062 207.60092163085938 Q 489.7519836425781 158.32740783691406 692.4249267578125 276.8666076660156 Q 590.1976928710938 330.4419250488281 580.4308471679688 278.3953552246094 Q 585.5142822265625 307.69256591796875 622.1200561523438 303.67742919921875 Q 530.43994140625 329.27264404296875 467.2369384765625 334.39117431640625 Q 441.2446594238281 336.87530517578125 429.4671325683594 335.21575927734375 C 406.17449951171875 333.909423828125 413.07818603515625 321.9566955566406 411.7686767578125 325.69256591796875 Q 410.77264404296875 343.14007568359375 500.4715270996094 330.4936828613281 Q 572.1633911132812 320.6698913574219 681.6879272460938 285.9673767089844 Q 634.744140625 363.1409606933594 590.445556640625 431.4376525878906 Q 553.690185546875 490.009521484375 506.54742431640625 564.8690795898438 Q 436.83282470703125 675.665283203125 338.8393249511719 758.318359375 Q 248.12620544433594 838.4974975585938 143.2672576904297 871.89990234375 Q 169.14756774902344 863.4581298828125 183.23867797851562 856.85986328125 Q 142.3935089111328 872.2344360351562 107.61021423339844 876.3800048828125 Q 245.3398895263672 859.8645629882812 403.16064453125 697.9066162109375 Q 452.0789794921875 647.576904296875 500.670166015625 574.4186401367188 L 517.7911987304688 547.0455932617188" fill="rgb(6, 6, 6)" opacity="0.9651722" stroke-width="1.0"/>
  </g>
</svg>
