<?xml version="1.0" ?>
<svg height="1024" version="1.1" width="1024" xmlns="http://www.w3.org/2000/svg">
  <defs/>
  <g>
    <path d="M 479.6533508300781 184.59373474121094 Q 547.6063232421875 175.49493408203125 644.6229248046875 171.49050903320312 Q 721.0305786132812 169.15106201171875 667.1178588867188 169.2532958984375 Q 682.4332275390625 170.0359344482422 697.1864624023438 170.07960510253906 Q 761.3095703125 166.856201171875 737.2278442382812 172.5624542236328 Q 677.9705810546875 243.0565948486328 717.9696655273438 195.59103393554688 Q 696.9952392578125 231.3187713623047 697.7892456054688 231.2886199951172 Q 730.5763549804688 167.21438598632812 751.1130981445312 168.3918914794922 Q 840.5787963867188 169.0757293701172 843.3589477539062 164.61660766601562 Q 870.7589111328125 135.87332153320312 772.0654296875 98.83282470703125 Q 757.9915771484375 93.5958480834961 677.9505615234375 110.95113372802734 Q 576.081787109375 129.38870239257812 382.4568786621094 156.47622680664062 Q 337.3441162109375 162.6873016357422 222.60479736328125 177.840087890625 C 190.932373046875 179.97967529296875 177.5956573486328 185.65554809570312 215.35618591308594 213.32997131347656 Q 250.7738037109375 232.95054626464844 293.8376770019531 216.31961059570312 Q 381.3442687988281 195.44601440429688 441.7767333984375 188.8750762939453 L 479.6533508300781 184.59373474121094" fill="rgb(0, 0, 0)" opacity="0.99818337" stroke-width="1.0"/>
  </g>
</svg>
