<?xml version="1.0" ?>
<svg height="1024" version="1.1" width="1024" xmlns="http://www.w3.org/2000/svg">
  <defs/>
  <g>
    <path d="M 340.62579345703125 563.9619750976562 Q 456.8144836425781 525.8624877929688 644.02490234375 509.1436462402344 Q 718.0106201171875 502.2497253417969 691.0791015625 598.0374755859375 Q 698.0684204101562 603.646240234375 698.9157104492188 571.0936279296875 Q 658.3295288085938 747.378662109375 631.7299194335938 805.3522338867188 Q 606.0089111328125 842.134033203125 590.2010498046875 824.7730102539062 Q 609.5762939453125 837.3131103515625 498.3145446777344 798.2587890625 Q 471.7231750488281 794.427734375 536.4597778320312 862.8638305664062 Q 573.2398681640625 926.6736450195312 578.1404418945312 933.1997680664062 Q 595.37060546875 955.6265258789062 645.8845825195312 909.1567993164062 Q 685.1253662109375 874.6688842773438 698.0811157226562 835.951416015625 Q 712.2018432617188 793.1282348632812 752.4923706054688 593.1420288085938 Q 762.601806640625 552.4261474609375 790.3974609375 529.4879150390625 Q 791.822998046875 503.81768798828125 801.3405151367188 529.38427734375 Q 797.0960083007812 508.45965576171875 731.5582275390625 474.0191650390625 Q 705.2914428710938 455.9204406738281 626.3803100585938 475.9708557128906 Q 552.7974853515625 484.85107421875 404.2580871582031 512.040771484375 Q 419.1532897949219 508.81170654296875 357.2184143066406 522.1151733398438 Q 392.66021728515625 437.49249267578125 406.00830078125 369.7695007324219 L 411.2091979980469 338.9873962402344 Q 413.0463562011719 290.5792236328125 412.2880554199219 306.70660400390625 Q 426.344970703125 302.17144775390625 411.5091552734375 307.0833435058594 Q 412.7652282714844 304.9438781738281 408.04364013671875 279.9302062988281 Q 397.24053955078125 271.88031005859375 407.9814147949219 279.8344421386719 Q 409.9053649902344 288.61761474609375 406.90618896484375 277.9837646484375 Q 428.10491943359375 341.9569091796875 362.1569519042969 511.1551513671875 Q 256.1163635253906 599.443603515625 335.15625 369.3299865722656 Q 276.3040771484375 225.1431884765625 234.960693359375 596.6728515625 Q 331.44049072265625 590.410400390625 330.67535400390625 524.8760375976562 Q 236.26611328125 606.4234619140625 340.62579345703125 563.9619750976562" fill="rgb(1, 1, 1)" opacity="0.9914117" stroke-width="1.0"/>
  </g>
</svg>
