<?xml version="1.0" ?>
<svg height="1024" version="1.1" width="1024" xmlns="http://www.w3.org/2000/svg">
  <defs/>
  <g>
    <path d="M 495.3017578125 378.490234375 Q 484.951171875 351.2365417480469 476.9991149902344 341.1059265136719 Q 471.4659118652344 336.3636474609375 487.076171875 349.69451904296875 Q 480.7953796386719 344.327392578125 476.86102294921875 340.9515380859375 Q 490.44586181640625 357.66363525390625 510.9998474121094 425.1759338378906 Q 501.8096618652344 417.81329345703125 613.7893676757812 510.0332336425781 L 155.8017120361328 600.98193359375 Q 369.6455078125 776.0445556640625 399.6109924316406 710.8243408203125 Q 371.72222900390625 713.7069091796875 366.1061096191406 719.1737670898438 Q 369.9859924316406 715.5416870117188 386.35491943359375 712.604248046875 Q 318.7971496582031 726.9308471679688 368.13568115234375 716.5321044921875 Q 425.3405456542969 700.180419921875 655.0048217773438 707.5879516601562 Q 668.421875 708.5162353515625 701.626953125 709.625244140625 L 768.4249877929688 716.913818359375 Q 810.638427734375 722.94873046875 844.0831909179688 741.005859375 Q 842.1455688476562 742.1741943359375 843.888671875 741.020751953125 Q 846.0223388671875 741.8219604492188 850.8656616210938 746.027099609375 Q 845.9418334960938 740.547607421875 822.292236328125 730.8641967773438 Q 803.1737670898438 723.1887817382812 780.5121459960938 718.9559936523438 Q 774.0357055664062 717.2183227539062 735.4144287109375 713.3567504882812 L 704.4292602539062 709.877197265625 Q 502.110595703125 700.2261962890625 399.4187316894531 710.4511108398438 Q 376.7419128417969 763.4845581054688 232.6482391357422 660.4266357421875 Q 388.966796875 564.3479614257812 698.0938720703125 579.2006225585938 L 511.1886901855469 425.4822692871094 Q 494.8165283203125 375.2560119628906 491.4329528808594 365.01959228515625 C 502.7916259765625 400.4617919921875 501.0938720703125 393.8231506347656 495.3017578125 378.490234375" fill="rgb(6, 6, 6)" opacity="0.96519357" stroke-width="1.0"/>
  </g>
</svg>
