<?xml version="1.0" ?>
<svg height="1024" version="1.1" width="1024" xmlns="http://www.w3.org/2000/svg">
  <defs/>
  <g>
    <path d="M 924.4921264648438 817.6109619140625 Q 868.4513549804688 759.5352783203125 819.5927734375 757.6663818359375 Q 924.9693603515625 731.5587768554688 901.0401611328125 718.9497680664062 Q 896.1739501953125 715.2428588867188 904.9742431640625 721.826904296875 Q 913.7052001953125 738.0279541015625 771.881103515625 768.3563232421875 Q 716.0809326171875 769.4761352539062 644.673828125 807.114013671875 Q 780.6705932617188 849.4244995117188 729.1553344726562 772.6195678710938 Q 605.7525634765625 790.1937255859375 476.57269287109375 796.9913330078125 Q 541.407470703125 853.428466796875 543.42041015625 595.4801025390625 Q 542.7940063476562 600.9230346679688 540.5849609375 534.8133544921875 C 519.924560546875 512.676513671875 520.3889770507812 512.9299926757812 540.1527709960938 534.3814086914062 Q 541.6160888671875 550.3590698242188 536.6771850585938 486.1795349121094 Q 555.4405517578125 701.8782958984375 518.1886596679688 796.3269653320312 Q 525.2176513671875 790.952880859375 182.9698944091797 819.8785400390625 Q 147.364013671875 906.0906372070312 445.59942626953125 845.616943359375 Q 653.0556640625 838.5304565429688 627.9971923828125 836.8670043945312 Q 725.1123046875 832.5248413085938 789.453369140625 837.2487182617188 Q 848.8570556640625 841.3370361328125 911.6890869140625 850.1744995117188 Q 939.78515625 841.8872680664062 924.4921264648438 817.6109619140625" fill="rgb(0, 0, 0)" opacity="0.9903789" stroke-width="1.0"/>
  </g>
</svg>
