<?xml version="1.0" ?>
<svg height="1024" version="1.1" width="1024" xmlns="http://www.w3.org/2000/svg">
  <defs/>
  <g>
    <path d="M 528.4086303710938 433.70697021484375 Q 577.5773315429688 425.6605224609375 794.9368896484375 416.8233947753906 Q 754.483642578125 409.33306884765625 768.1974487304688 418.5024719238281 Q 798.39013671875 415.6280212402344 799.4649658203125 455.1865234375 Q 804.5794677734375 649.9334106445312 778.8243408203125 760.615478515625 Q 769.7318725585938 796.9927978515625 737.8818359375 792.9244384765625 Q 694.7891235351562 783.2542114257812 669.7672729492188 774.8322143554688 Q 658.9474487304688 774.0392456054688 665.1602172851562 774.5565185546875 Q 654.8917846679688 777.0030517578125 669.5733642578125 801.2510986328125 Q 733.4976806640625 874.0643310546875 751.0758666992188 910.7109985351562 Q 761.9842529296875 935.147216796875 778.7496948242188 931.3209838867188 Q 795.1690673828125 926.181640625 813.0119018554688 891.1658935546875 Q 836.7350463867188 844.7708740234375 852.5009765625 750.5280151367188 Q 858.1470336914062 731.7230834960938 878.2012939453125 524.072021484375 Q 887.7250366210938 433.6864318847656 908.6587524414062 421.0108337402344 Q 897.0159912109375 404.877197265625 874.9898071289062 390.90631103515625 Q 858.9666748046875 381.2439270019531 819.63037109375 361.7743835449219 Q 771.31396484375 359.4700622558594 797.2517700195312 360.82794189453125 Q 764.1567993164062 373.45697021484375 674.7547607421875 380.9779968261719 Q 595.3359985351562 386.94866943359375 527.7759399414062 394.9754638671875 L 463.74725341796875 403.88165283203125 Q 414.8418273925781 408.5477600097656 380.7889709472656 416.22857666015625 Q 291.9792175292969 432.6236877441406 216.58688354492188 441.84027099609375 C 197.94728088378906 461.1910400390625 210.32293701171875 455.8119812011719 207.84115600585938 445.5432434082031 Q 209.34693908691406 483.69512939453125 242.31369018554688 480.14471435546875 Q 256.5261535644531 460.5504150390625 464.5719909667969 441.5200500488281 L 528.4086303710938 433.70697021484375" fill="rgb(0, 0, 0)" opacity="0.99909097" stroke-width="1.0"/>
  </g>
</svg>
