<?xml version="1.0" ?>
<svg height="1024" version="1.1" width="1024" xmlns="http://www.w3.org/2000/svg">
  <defs/>
  <g>
    <path d="M 431.71636962890625 302.67645263671875 Q 425.8943176269531 218.1161651611328 425.0127258300781 221.5115509033203 Q 436.0672302246094 213.61325073242188 425.2920227050781 221.56643676757812 Q 421.8552551269531 186.8968505859375 417.0630798339844 183.76416015625 Q 413.233154296875 193.5716094970703 416.78594970703125 183.99415588378906 Q 411.7042541503906 179.87838745117188 418.2568359375 185.05722045898438 Q 429.20953369140625 202.33953857421875 437.23797607421875 434.2442626953125 Q 440.6565856933594 522.8339233398438 454.49530029296875 620.5869140625 Q 405.43511962890625 582.0498657226562 421.2750549316406 437.1692199707031 Q 416.211181640625 497.9181213378906 409.7403564453125 500.03973388671875 Q 415.3014221191406 497.9411926269531 418.5694885253906 462.53436279296875 Q 405.8248291015625 674.3898315429688 536.8544311523438 618.2979125976562 Q 527.9470825195312 366.7855224609375 528.0266723632812 363.1923828125 Q 527.9844360351562 387.2679443359375 523.4092407226562 203.37152099609375 Q 450.6232604980469 98.57466125488281 490.1283264160156 494.1190490722656 Q 455.7445373535156 789.715576171875 437.0014953613281 427.6308898925781 L 431.71636962890625 302.67645263671875" fill="rgb(1, 1, 1)" opacity="0.9795693" stroke-width="1.0"/>
  </g>
</svg>
