<?xml version="1.0" ?>
<svg height="1024" version="1.1" width="1024" xmlns="http://www.w3.org/2000/svg">
  <defs/>
  <g>
    <path d="M 477.4989318847656 427.89794921875 Q 393.3132019042969 587.1795654296875 367.7625427246094 604.6014404296875 Q 389.54229736328125 582.4210815429688 366.9227600097656 612.1589965820312 Q 283.4715881347656 731.2982788085938 129.0682830810547 852.5697631835938 Q 120.2743911743164 843.0695190429688 127.07552337646484 850.2205810546875 Q 132.70652770996094 852.8251342773438 108.52344512939453 863.7591552734375 Q 133.4286651611328 855.96875 248.04188537597656 749.7301635742188 Q 290.5126037597656 708.0355224609375 330.7342834472656 660.1397094726562 Q 426.5060119628906 540.5657958984375 501.7701721191406 376.3234558105469 L 509.6842956542969 407.69415283203125 Q 504.0322265625 399.70574951171875 564.3382568359375 585.9680786132812 Q 662.01953125 348.4638671875 653.3598022460938 251.61605834960938 Q 683.2754516601562 161.83453369140625 687.5968627929688 147.11813354492188 Q 612.9158325195312 83.33162689208984 574.5607299804688 92.14976501464844 Q 556.9357299804688 102.4808120727539 573.3153076171875 92.6327896118164 Q 554.04296875 99.85672760009766 566.0772094726562 116.96272277832031 Q 594.7108154296875 152.8802032470703 595.6979370117188 179.88470458984375 Q 592.9097900390625 349.84527587890625 537.6630249023438 501.5129699707031 Q 491.7000732421875 359.0223693847656 505.1035461425781 369.2578125 L 477.4989318847656 427.89794921875" fill="rgb(0, 0, 0)" opacity="0.9915538" stroke-width="1.0"/>
  </g>
</svg>
