<?xml version="1.0" ?>
<svg height="1024" version="1.1" width="1024" xmlns="http://www.w3.org/2000/svg">
  <defs/>
  <g>
    <path d="M 459.67449951171875 222.33998107910156 Q 482.475830078125 231.0936737060547 466.676513671875 217.84381103515625 Q 456.2823791503906 211.4445037841797 469.71246337890625 219.26063537597656 Q 470.0401306152344 220.1029815673828 461.4031677246094 214.1297607421875 Q 492.6632080078125 237.19363403320312 442.848388671875 215.27542114257812 Q 292.1856384277344 192.83628845214844 362.35009765625 314.8488464355469 Q 387.3282165527344 376.8555603027344 383.73333740234375 618.4662475585938 Q 383.87164306640625 765.088134765625 382.7917175292969 811.5264892578125 Q 338.99127197265625 763.5473022460938 394.0652160644531 824.0824584960938 Q 326.3319396972656 831.0009765625 289.1383972167969 822.779296875 Q 332.1820068359375 832.6952514648438 429.4780578613281 820.0104370117188 Q 426.0423278808594 683.4017333984375 425.950927734375 554.5177612304688 Q 423.83050537109375 410.00128173828125 437.6235656738281 268.577880859375 L 353.97601318359375 219.35025024414062 Q 437.5823669433594 199.07015991210938 472.94757080078125 232.62686157226562 Q 486.80853271484375 243.25828552246094 495.649658203125 243.99990844726562 C 488.1370849609375 242.96835327148438 484.3420715332031 241.51502990722656 459.67449951171875 222.33998107910156" fill="rgb(0, 0, 0)" opacity="0.9884522" stroke-width="1.0"/>
  </g>
</svg>
