<?xml version="1.0" ?>
<svg height="1024" version="1.1" width="1024" xmlns="http://www.w3.org/2000/svg">
  <defs/>
  <g>
    <path d="M 758.2464599609375 635.296630859375 Q 525.2700805664062 421.06280517578125 536.7495727539062 473.9673156738281 Q 774.3466186523438 766.6163330078125 810.4620361328125 746.1135864257812 Q 945.7555541992188 723.7744140625 976.5460815429688 709.099609375 Q 832.8452758789062 658.5144653320312 763.3438720703125 627.1846313476562 Q 817.050537109375 368.2883605957031 809.0574340820312 317.5569763183594 Q 812.0453491210938 332.2000427246094 807.791748046875 372.1441345214844 Q 809.70751953125 314.9479675292969 783.5529174804688 314.641845703125 Q 794.394775390625 314.4853515625 769.8125610351562 316.9039001464844 Q 698.5050048828125 329.27911376953125 614.5520629882812 349.59600830078125 C 594.71044921875 353.94403076171875 577.0219116210938 358.5915832519531 607.66064453125 350.787109375 Q 596.2301635742188 353.7314758300781 592.3916625976562 354.6726989746094 Q 751.0885620117188 317.139892578125 787.9178466796875 315.111572265625 Q 815.3562622070312 322.3037414550781 804.9910888671875 399.6734313964844 Q 772.0300903320312 607.2009887695312 758.2464599609375 635.296630859375" fill="rgb(0, 0, 0)" opacity="0.9902397" stroke-width="1.0"/>
  </g>
</svg>
