<?xml version="1.0" ?>
<svg height="1024" version="1.1" width="1024" xmlns="http://www.w3.org/2000/svg">
  <defs/>
  <g>
    <path d="M 667.3607788085938 481.4449157714844 Q 814.8395385742188 465.4579162597656 917.3140869140625 486.8511657714844 Q 852.9378662109375 474.47747802734375 908.3161010742188 488.35821533203125 Q 920.437255859375 492.2033996582031 927.6165771484375 493.855712890625 Q 833.4807739257812 467.71112060546875 877.263427734375 480.0397644042969 Q 801.0490112304688 470.6307678222656 703.9370727539062 477.7529296875 L 653.169677734375 483.65045166015625 Q 533.45263671875 513.62939453125 567.9176025390625 481.92523193359375 L 725.6357421875 391.2719421386719 Q 505.97479248046875 422.540771484375 302.9848937988281 452.2518005371094 Q 182.69264221191406 473.2514953613281 89.41372680664062 474.8797607421875 Q 63.862850189208984 489.4996643066406 106.24482727050781 518.43359375 Q 94.47358703613281 512.80322265625 131.42262268066406 531.1878051757812 Q 186.1055908203125 549.2736206054688 160.03347778320312 540.5015258789062 Q 198.44618225097656 524.0423583984375 306.0567626953125 498.2297058105469 L 612.0266723632812 450.87786865234375 Q 508.5976867675781 515.2809448242188 612.9450073242188 492.57366943359375 Q 647.8662719726562 485.6619873046875 614.1414184570312 492.5772399902344 L 667.3607788085938 481.4449157714844" fill="rgb(2, 2, 2)" opacity="0.9872226" stroke-width="1.0"/>
  </g>
</svg>
