<?xml version="1.0" ?>
<svg height="1024" version="1.1" width="1024" xmlns="http://www.w3.org/2000/svg">
  <defs/>
  <g>
    <path d="M 470.84649658203125 581.0216064453125 Q 465.61602783203125 652.8948364257812 366.6457824707031 750.24658203125 Q 335.2275085449219 779.4064331054688 282.0803527832031 804.3531494140625 Q 249.49789428710938 816.611328125 250.0385284423828 828.2705078125 Q 246.83534240722656 847.1494750976562 258.4837646484375 871.1277465820312 Q 269.0662536621094 895.713623046875 283.61907958984375 900.4854736328125 Q 289.40301513671875 902.8896484375 300.58782958984375 899.8792724609375 Q 402.0464782714844 842.5507202148438 644.992919921875 796.677734375 Q 680.0552978515625 789.7425537109375 697.5455932617188 787.9664916992188 C 727.93701171875 783.2127075195312 710.6409912109375 759.679931640625 678.9593505859375 764.4213256835938 Q 539.799560546875 780.4163208007812 396.0309143066406 800.1400756835938 Q 384.2987365722656 800.6090087890625 383.51495361328125 799.3534545898438 Q 379.2825012207031 796.1438598632812 389.0006408691406 786.06396484375 Q 503.6400146484375 652.6671752929688 550.4625854492188 614.3096313476562 Q 576.5986328125 595.5560302734375 564.77978515625 583.8444213867188 Q 558.2212524414062 573.9252319335938 537.6106567382812 564.262451171875 C 515.6720581054688 550.08984375 468.667724609375 541.0584716796875 470.84649658203125 581.0216064453125" fill="rgb(0, 0, 0)" opacity="0.9999128" stroke-width="1.0"/>
  </g>
</svg>
