<?xml version="1.0" ?>
<svg height="1024" version="1.1" width="1024" xmlns="http://www.w3.org/2000/svg">
  <defs/>
  <g>
    <path d="M 492.31414794921875 462.5885314941406 L 551.1146850585938 495.5716857910156 Q 635.3765869140625 554.2197875976562 617.5364990234375 468.3910217285156 Q 569.514892578125 394.2553405761719 581.8639526367188 414.1534423828125 Q 610.796630859375 423.57269287109375 618.9033813476562 399.1634521484375 Q 607.633544921875 433.0851745605469 556.020263671875 401.5318298339844 Q 619.3672485351562 352.63079833984375 555.2565307617188 402.1346130371094 Q 467.0921630859375 366.9566345214844 315.79052734375 344.9872131347656 Q 305.10528564453125 356.4198913574219 321.24005126953125 375.1485595703125 Q 361.46429443359375 395.24041748046875 382.77288818359375 405.3209533691406 Q 415.90234375 421.020751953125 493.2731018066406 462.90838623046875 Q 591.0614624023438 406.6105651855469 482.5908508300781 378.3446350097656 Q 590.6866455078125 408.3093566894531 589.8740844726562 427.5599670410156 Q 542.688720703125 391.4525146484375 483.55975341796875 380.9478454589844 Q 496.6062316894531 497.8897705078125 499.74810791015625 539.79931640625 Q 496.3039245605469 501.2112121582031 496.48699951171875 501.6421813964844 C 498.4835510253906 527.1217041015625 499.3365783691406 526.6102905273438 492.31414794921875 462.5885314941406" fill="rgb(0, 0, 0)" opacity="0.9968415" stroke-width="1.0"/>
  </g>
</svg>
