<?xml version="1.0" ?>
<svg height="1024" version="1.1" width="1024" xmlns="http://www.w3.org/2000/svg">
  <defs/>
  <g>
    <path d="M 456.21990966796875 613.8212280273438 Q 420.51458740234375 816.0354614257812 453.1997375488281 925.1694946289062 Q 470.0069274902344 960.2994384765625 480.918701171875 967.77001953125 Q 518.5269165039062 1008.449462890625 518.9793701171875 834.484619140625 Q 514.02880859375 757.1353759765625 525.7859497070312 570.8814086914062 L 529.0836181640625 495.6458435058594 Q 532.059814453125 377.86578369140625 538.2542114257812 304.6478271484375 L 540.6865844726562 270.69354248046875 Q 549.5265502929688 160.9942169189453 558.0979614257812 125.60835266113281 Q 564.5940551757812 108.6294937133789 541.4291381835938 93.72180938720703 Q 511.5169982910156 72.47139739990234 468.2949523925781 63.88922882080078 Q 443.72735595703125 57.770668029785156 431.75347900390625 71.5882339477539 Q 424.1092224121094 79.89449310302734 437.4322509765625 101.58541870117188 Q 459.7428283691406 133.12301635742188 465.1226806640625 158.44825744628906 Q 468.4545593261719 196.07325744628906 469.9879150390625 281.5830078125 L 469.67840576171875 315.0792541503906 Q 467.7541809082031 386.7415466308594 465.06817626953125 501.5337829589844 Q 463.982421875 513.51123046875 462.0816955566406 529.436279296875 L 456.21990966796875 613.8212280273438" fill="rgb(0, 0, 0)" opacity="0.99812585" stroke-width="1.0"/>
  </g>
</svg>
