<?xml version="1.0" ?>
<svg height="1024" version="1.1" width="1024" xmlns="http://www.w3.org/2000/svg">
  <defs/>
  <g>
    <path d="M 449.234375 542.6906127929688 Q 461.87933349609375 572.4390258789062 462.473388671875 590.40869140625 Q 465.31878662109375 662.147216796875 463.79791259765625 743.9057006835938 Q 461.4083251953125 798.1296997070312 455.75262451171875 814.6919555664062 Q 452.1933898925781 828.5458984375 444.25762939453125 826.8670654296875 Q 420.6781921386719 825.2069702148438 366.318115234375 814.1148071289062 Q 341.33013916015625 807.37890625 354.2228088378906 825.5089721679688 Q 364.65582275390625 833.9039916992188 375.88232421875 843.7479858398438 Q 436.44744873046875 895.740234375 458.890380859375 928.1619873046875 Q 469.3316650390625 940.03125 481.44097900390625 933.4190063476562 Q 496.6318664550781 923.0816650390625 507.97589111328125 898.5631103515625 Q 523.6284790039062 857.6610717773438 516.8685302734375 808.7395629882812 Q 512.3406372070312 724.4802856445312 512.146728515625 638.9876098632812 Q 511.1700439453125 602.2791137695312 523.3031616210938 572.419677734375 Q 532.2709350585938 555.0751953125 520.3328857421875 543.8442993164062 C 473.30120849609375 502.56475830078125 410.41070556640625 488.66241455078125 449.234375 542.6906127929688" fill="rgb(0, 0, 0)" opacity="1.0" stroke-width="1.0"/>
  </g>
</svg>
