<?xml version="1.0" ?>
<svg height="1024" version="1.1" width="1024" xmlns="http://www.w3.org/2000/svg">
  <defs/>
  <g>
    <path d="M 607.9624633789062 255.58937072753906 Q 625.1768798828125 228.09832763671875 600.0247192382812 210.64712524414062 Q 554.365234375 179.9469757080078 539.8584594726562 194.55560302734375 Q 538.1212768554688 215.23887634277344 550.0455932617188 203.15701293945312 Q 532.8594970703125 211.9404754638672 540.5045166015625 207.79615783691406 Q 552.3214721679688 215.04405212402344 553.8180541992188 299.1990966796875 Q 553.6840209960938 333.68328857421875 555.6284790039062 341.92364501953125 Q 562.7521362304688 383.89874267578125 605.4094848632812 402.61920166015625 Q 648.2046508789062 421.2361755371094 726.082275390625 415.49517822265625 Q 766.2214965820312 412.91650390625 782.0342407226562 405.6050720214844 Q 807.3583984375 392.0184631347656 783.8310546875 374.5760192871094 Q 735.8729248046875 335.8971252441406 711.0489501953125 363.9549560546875 Q 738.6011962890625 352.6217956542969 687.8736572265625 371.49822998046875 Q 609.9486694335938 378.4652099609375 603.5392456054688 346.29736328125 Q 592.1437377929688 321.11407470703125 602.4061889648438 272.2494812011719 Q 589.203369140625 319.9814453125 607.9624633789062 255.58937072753906" fill="rgb(0, 0, 0)" opacity="0.9994373" stroke-width="1.0"/>
  </g>
</svg>
