<?xml version="1.0" ?>
<svg height="1024" version="1.1" width="1024" xmlns="http://www.w3.org/2000/svg">
  <defs/>
  <g>
    <path d="M 967.0010986328125 780.2493286132812 Q 955.1898193359375 688.4964599609375 957.6044311523438 659.5097045898438 Q 947.14599609375 622.8689575195312 935.8982543945312 659.0819091796875 Q 939.2733764648438 650.0206298828125 939.6019897460938 647.2553100585938 Q 915.2723999023438 770.2582397460938 898.6056518554688 781.1192626953125 Q 857.6449584960938 815.7372436523438 709.3504028320312 811.0218505859375 Q 632.0991821289062 804.3239135742188 596.5140380859375 789.2071533203125 Q 570.001953125 775.6431884765625 559.6802368164062 757.491455078125 Q 527.907958984375 688.7681884765625 566.2578735351562 532.4781494140625 Q 581.0324096679688 507.1340026855469 575.1823120117188 487.9447937011719 Q 546.9700927734375 453.5388488769531 498.8951416015625 441.1240539550781 C 497.1778259277344 406.4061279296875 498.0496520996094 413.20318603515625 498.32000732421875 420.4370422363281 Q 496.5395812988281 449.03741455078125 514.4330444335938 513.0733642578125 Q 496.44720458984375 736.5215454101562 519.6717529296875 772.888671875 Q 530.0225219726562 799.8721923828125 553.8399047851562 817.5545043945312 Q 619.6248779296875 861.8272705078125 819.2045288085938 860.9898681640625 Q 922.4205322265625 859.8652954101562 958.8397216796875 836.6699829101562 Q 983.9832763671875 825.2349243164062 967.0010986328125 780.2493286132812" fill="rgb(0, 0, 0)" opacity="0.99834704" stroke-width="1.0"/>
  </g>
</svg>
