<?xml version="1.0" ?>
<svg height="1024" version="1.1" width="1024" xmlns="http://www.w3.org/2000/svg">
  <defs/>
  <g>
    <path d="M 690.2044677734375 623.9163208007812 Q 676.0635986328125 845.775390625 716.0131225585938 872.39306640625 Q 738.9758911132812 892.4446411132812 773.7432861328125 901.030029296875 Q 829.7041625976562 914.0166015625 908.06494140625 895.3450317382812 Q 931.26611328125 886.1771850585938 908.171630859375 895.8898315429688 Q 955.8873291015625 876.0035400390625 964.8567504882812 858.9071044921875 Q 968.5584716796875 825.5358276367188 966.3303833007812 844.5458374023438 Q 952.1419677734375 815.4253540039062 933.2324829101562 728.1064453125 Q 928.9035034179688 710.4966430664062 926.7273559570312 695.4484252929688 Q 919.0704345703125 676.7816162109375 913.0232543945312 693.7214965820312 Q 896.6177978515625 784.8931884765625 884.614501953125 816.4082641601562 Q 882.2083129882812 824.4097900390625 877.2696533203125 834.0386962890625 Q 864.5502319335938 849.3436279296875 815.3639526367188 850.1268920898438 Q 812.58349609375 852.1475219726562 827.5322265625 850.9356689453125 Q 759.901123046875 848.8864135742188 740.9344482421875 823.1035766601562 Q 709.3952026367188 770.7959594726562 742.9705200195312 581.1690673828125 Q 747.9561767578125 558.69580078125 717.197021484375 540.4139404296875 Q 691.39794921875 524.1405639648438 680.5099487304688 536.4531860351562 Q 675.9827270507812 541.5228271484375 685.0202026367188 568.62841796875 Q 691.9788818359375 598.0996704101562 690.2044677734375 623.9163208007812" fill="rgb(0, 0, 0)" opacity="0.99978155" stroke-width="1.0"/>
  </g>
</svg>
