<?xml version="1.0" ?>
<svg height="1024" version="1.1" width="1024" xmlns="http://www.w3.org/2000/svg">
  <defs/>
  <g>
    <path d="M 182.05740356445312 507.0888977050781 Q 165.01788330078125 555.7853393554688 247.9078826904297 524.3076171875 Q 388.0972900390625 490.15655517578125 464.3395080566406 479.7300720214844 Q 540.19677734375 483.9810485839844 477.1747131347656 480.57562255859375 Q 497.8268127441406 481.8662414550781 507.091552734375 512.944091796875 Q 494.413330078125 661.2174682617188 459.8267822265625 733.30908203125 Q 417.9665832519531 767.2478637695312 306.0476379394531 818.4677124023438 Q 323.0841369628906 811.901123046875 302.88970947265625 819.38427734375 Q 316.17193603515625 815.4142456054688 411.3592529296875 766.4768676757812 Q 450.4588928222656 723.7366333007812 503.32513427734375 786.025634765625 Q 537.9388427734375 739.4517211914062 562.4490356445312 550.540283203125 Q 608.9193725585938 479.6485290527344 600.126220703125 496.0406799316406 Q 585.303466796875 459.8177185058594 594.2923583984375 481.888916015625 Q 569.147216796875 458.73822021484375 529.4664916992188 436.8812561035156 Q 545.445068359375 438.6971130371094 521.7533569335938 436.4054260253906 Q 498.7185363769531 435.7835388183594 431.6523132324219 452.7777404785156 C 378.0137634277344 463.3483581542969 327.0324401855469 474.249267578125 182.05740356445312 507.0888977050781" fill="rgb(0, 0, 0)" opacity="0.9870122" stroke-width="1.0"/>
  </g>
</svg>
