<?xml version="1.0" ?>
<svg height="1024" version="1.1" width="1024" xmlns="http://www.w3.org/2000/svg">
  <defs/>
  <g>
    <path d="M 669.1846313476562 342.60845947265625 Q 710.8856201171875 395.28070068359375 719.126953125 418.9816589355469 Q 733.8760375976562 436.529296875 748.4716796875 427.6069641113281 Q 800.6572265625 397.19427490234375 828.3377685546875 291.4678649902344 Q 835.9188842773438 258.0882568359375 842.8245239257812 217.92308044433594 Q 854.23583984375 155.59170532226562 879.8281860351562 126.29263305664062 Q 856.2964477539062 100.80558013916016 798.7626953125 83.05355072021484 Q 753.97607421875 109.59937286376953 680.3709106445312 127.2361068725586 Q 631.2803344726562 144.99130249023438 489.51544189453125 166.06898498535156 C 459.7596130371094 170.27650451660156 473.2716979980469 168.51878356933594 524.35205078125 160.68714904785156 Q 560.5726318359375 204.1850128173828 603.7379760742188 187.36573791503906 Q 758.8260498046875 134.91302490234375 783.06201171875 137.15821838378906 Q 809.2926025390625 131.99392700195312 780.6593017578125 255.65872192382812 Q 753.0610961914062 398.0312805175781 672.4216918945312 321.31158447265625 C 637.712158203125 356.4407043457031 738.3941650390625 344.8681335449219 669.1846313476562 342.60845947265625" fill="rgb(0, 0, 0)" opacity="0.9970598" stroke-width="1.0"/>
  </g>
</svg>
