<?xml version="1.0" ?>
<svg height="1024" version="1.1" width="1024" xmlns="http://www.w3.org/2000/svg">
  <defs/>
  <g>
    <path d="M 711.7758178710938 364.0080261230469 Q 717.2155151367188 347.8297119140625 729.1593017578125 360.3212890625 Q 742.2178344726562 364.91357421875 717.7742309570312 359.8048095703125 Q 704.0530395507812 357.5740051269531 736.4034423828125 363.1124267578125 Q 759.3992309570312 371.0068054199219 780.11376953125 275.1771240234375 Q 799.2933349609375 186.29808044433594 805.20703125 177.9741973876953 Q 833.2478637695312 141.05441284179688 831.1793823242188 140.57086181640625 Q 831.0369262695312 124.06043243408203 769.9083251953125 89.05220031738281 Q 756.0275268554688 84.79910278320312 667.1683349609375 104.03113555908203 Q 639.6543579101562 108.75836181640625 507.4917297363281 140.7724609375 Q 510.6751708984375 181.06655883789062 469.7637939453125 174.15084838867188 Q 458.2063293457031 171.79359436035156 450.4203796386719 168.4639892578125 C 424.83001708984375 155.39132690429688 492.9276428222656 196.3241424560547 506.0642395019531 159.33395385742188 Q 502.4820251464844 154.5226593017578 497.4527282714844 146.50135803222656 Q 517.2603759765625 181.06813049316406 538.5396118164062 165.5774688720703 L 592.9693603515625 151.01522827148438 Q 706.8153076171875 126.6615982055664 723.8731689453125 127.52653503417969 Q 756.0717163085938 134.44705200195312 743.1610717773438 180.5487060546875 Q 725.325439453125 296.2635498046875 704.0994262695312 315.70697021484375 Q 691.5325317382812 328.42755126953125 722.7258911132812 354.43548583984375 C 710.1103515625 352.4422912597656 710.9866943359375 373.966064453125 711.7758178710938 364.0080261230469" fill="rgb(0, 0, 0)" opacity="0.99704576" stroke-width="1.0"/>
  </g>
</svg>
