<?xml version="1.0" ?>
<svg height="1024" version="1.1" width="1024" xmlns="http://www.w3.org/2000/svg">
  <defs/>
  <g>
    <path d="M 451.83563232421875 164.19229125976562 Q 453.4969482421875 144.45616149902344 426.524658203125 131.62408447265625 Q 378.1759033203125 100.18477630615234 377.8567810058594 128.48292541503906 Q 392.40093994140625 159.53514099121094 394.4232482910156 179.43946838378906 Q 401.0380554199219 187.632568359375 402.8675231933594 368.94573974609375 Q 397.9451599121094 769.379150390625 367.9872131347656 794.8192138671875 Q 337.0262756347656 825.2528076171875 366.4101867675781 869.3521118164062 Q 375.673095703125 884.4962768554688 391.7919616699219 875.6434936523438 Q 381.3672180175781 882.3952026367188 377.9565734863281 884.609619140625 Q 441.9346923828125 841.3011474609375 535.2791748046875 823.497314453125 Q 642.2819213867188 801.6998901367188 902.937255859375 819.08837890625 Q 902.603271484375 819.5824584960938 941.509521484375 821.35791015625 Q 981.3427734375 811.55908203125 921.0631713867188 764.7218627929688 Q 908.1094970703125 755.4396362304688 830.6712646484375 765.7421264648438 Q 695.7417602539062 778.1448974609375 623.4608764648438 777.3265991210938 Q 538.3656616210938 780.6026611328125 439.3919677734375 794.4401245117188 Q 478.88507080078125 810.14111328125 433.66937255859375 779.6080932617188 Q 440.007080078125 592.4238891601562 443.3921203613281 317.09149169921875 Q 445.9366760253906 222.1326141357422 448.7271728515625 184.8469696044922 Q 445.35186767578125 186.91905212402344 445.37921142578125 177.33590698242188 C 447.369140625 208.9647674560547 444.65960693359375 205.90846252441406 451.83563232421875 164.19229125976562" fill="rgb(0, 0, 0)" opacity="0.9990764" stroke-width="1.0"/>
  </g>
</svg>
