<?xml version="1.0" ?>
<svg height="1024" version="1.1" width="1024" xmlns="http://www.w3.org/2000/svg">
  <defs/>
  <g>
    <path d="M 596.8176879882812 373.4293212890625 Q 572.7109375 379.4819030761719 570.107666015625 378.71807861328125 Q 540.6114501953125 383.7104797363281 569.7601928710938 374.5201416015625 Q 738.2805786132812 335.9290771484375 760.9286499023438 336.5954284667969 Q 820.0211181640625 328.31842041015625 802.7373046875 399.06988525390625 Q 802.4437255859375 426.7928161621094 778.2582397460938 533.9484252929688 Q 764.370849609375 573.8427734375 825.4987182617188 491.012939453125 Q 711.0076904296875 557.0533447265625 815.2648315429688 591.0096435546875 Q 845.1726684570312 481.1701354980469 851.7503662109375 409.9154357910156 Q 861.3035888671875 377.6818542480469 875.8164672851562 361.0722351074219 Q 855.5272827148438 389.4388427734375 882.8854370117188 351.2396545410156 Q 894.8009033203125 334.8021240234375 828.8886108398438 299.8638916015625 Q 827.2578125 293.1276550292969 735.3626098632812 310.51361083984375 Q 614.9271240234375 337.578125 517.8306884765625 355.8838195800781 C 512.0122680664062 396.5555725097656 592.5150146484375 374.802978515625 596.8176879882812 373.4293212890625" fill="rgb(0, 0, 0)" opacity="0.9942274" stroke-width="1.0"/>
  </g>
</svg>
