<?xml version="1.0" ?>
<svg height="1024" version="1.1" width="1024" xmlns="http://www.w3.org/2000/svg">
  <defs/>
  <g>
    <path d="M 268.0677185058594 658.802490234375 Q 231.44064331054688 665.4440307617188 195.5017547607422 701.2887573242188 Q 172.68597412109375 723.6334838867188 168.6730499267578 729.405517578125 Q 121.1467514038086 717.0525512695312 118.85041809082031 715.33837890625 Q 117.2504653930664 715.868896484375 157.417724609375 726.4845581054688 Q 183.3306427001953 732.8998413085938 168.75880432128906 729.2387084960938 Q 249.6291961669922 635.634033203125 302.2919921875 666.9215087890625 Q 430.28741455078125 763.1229858398438 631.3216552734375 869.08154296875 Q 650.4517211914062 878.7018432617188 673.129150390625 890.2953491210938 Q 695.3818359375 905.248046875 727.5447387695312 901.4716186523438 Q 764.4645385742188 899.0830078125 804.5369262695312 889.2841186523438 Q 990.7428588867188 849.2869262695312 941.9630737304688 828.8991088867188 Q 939.4664916992188 829.3602294921875 953.703857421875 831.492431640625 Q 871.8176879882812 820.7907104492188 737.193603515625 813.4309692382812 Q 588.7626953125 796.02734375 410.4394226074219 695.8792114257812 Q 358.4341125488281 644.482666015625 141.82989501953125 564.6857299804688 L 268.0677185058594 658.802490234375" fill="rgb(1, 1, 1)" opacity="0.99115944" stroke-width="1.0"/>
  </g>
</svg>
