<?xml version="1.0" ?>
<svg height="1024" version="1.1" width="1024" xmlns="http://www.w3.org/2000/svg">
  <defs/>
  <g>
    <path d="M 774.55322265625 368.80126953125 Q 786.3191528320312 348.6903076171875 797.83984375 317.66632080078125 L 808.7071533203125 289.2543029785156 Q 817.9283447265625 270.70831298828125 813.60009765625 279.41680908203125 Q 826.091552734375 255.00006103515625 847.5625610351562 236.94776916503906 Q 872.6834716796875 218.6577606201172 841.7635498046875 197.84591674804688 Q 813.3428344726562 177.99317932128906 787.893310546875 165.65628051757812 Q 768.8413696289062 162.07998657226562 714.5160522460938 176.0159454345703 Q 692.765869140625 175.87042236328125 640.6878662109375 189.02279663085938 L 590.0116577148438 203.11553955078125 Q 529.0966796875 220.41465759277344 469.2985534667969 221.3062286376953 Q 457.5169982910156 226.13134765625 479.6247863769531 241.05458068847656 Q 469.0984191894531 235.24127197265625 487.4772644042969 245.38294982910156 Q 513.7317504882812 257.5332336425781 530.7643432617188 249.2887420654297 Q 557.853271484375 240.27696228027344 590.8956298828125 231.85069274902344 L 640.030517578125 220.1735076904297 Q 670.0054931640625 213.7779083251953 703.1322021484375 207.1887664794922 Q 770.724853515625 192.50404357910156 768.1567993164062 210.51815795898438 Q 773.2000122070312 211.89459228515625 754.2612915039062 290.6676025390625 L 745.988037109375 321.0796203613281 Q 738.9304809570312 339.9284973144531 730.233154296875 358.13739013671875 C 737.2683715820312 388.1693420410156 752.8342895507812 400.5480651855469 774.55322265625 368.80126953125" fill="rgb(0, 0, 0)" opacity="0.99885994" stroke-width="1.0"/>
  </g>
</svg>
