<?xml version="1.0" ?>
<svg height="1024" version="1.1" width="1024" xmlns="http://www.w3.org/2000/svg">
  <defs/>
  <g>
    <path d="M 488.8515625 444.76007080078125 Q 485.7138977050781 677.2929077148438 470.0611877441406 796.8345336914062 Q 484.37921142578125 768.22216796875 438.3121032714844 861.1453857421875 Q 433.3276062011719 843.0647583007812 352.4474182128906 808.1041870117188 Q 370.77874755859375 815.5792236328125 403.7911376953125 832.5884399414062 Q 381.5288391113281 822.08447265625 359.9608459472656 814.6717529296875 Q 446.5363464355469 844.9891357421875 440.42803955078125 873.965087890625 Q 457.3663024902344 929.1036376953125 483.2640686035156 915.5308227539062 Q 585.9393920898438 839.9402465820312 860.525634765625 851.2179565429688 Q 872.460693359375 777.0379028320312 525.2617797851562 831.9598999023438 Q 529.4287109375 710.9666137695312 534.8540649414062 454.3224182128906 L 535.7623901367188 403.5639953613281 Q 537.1525268554688 196.1978759765625 553.2634887695312 224.75169372558594 Q 527.055419921875 199.67636108398438 493.9750061035156 184.97848510742188 C 472.73944091796875 172.20169067382812 450.6912536621094 176.6876983642578 473.9375 221.1860809326172 Q 488.288330078125 246.7816162109375 487.94573974609375 401.53460693359375 L 488.8515625 444.76007080078125" fill="rgb(0, 0, 0)" opacity="0.99753314" stroke-width="1.0"/>
  </g>
</svg>
