<?xml version="1.0" ?>
<svg height="1024" version="1.1" width="1024" xmlns="http://www.w3.org/2000/svg">
  <defs/>
  <g>
    <path d="M 351.4779968261719 211.51324462890625 Q 454.2470703125 185.30923461914062 538.0936889648438 172.69049072265625 Q 605.2997436523438 157.5410614013672 604.615234375 191.89865112304688 Q 600.4017944335938 223.04185485839844 594.9141845703125 245.85118103027344 Q 582.6468505859375 336.979736328125 552.9977416992188 333.2054748535156 Q 516.1213989257812 339.11895751953125 556.1351928710938 332.73406982421875 Q 554.5900268554688 350.1938171386719 543.4910278320312 323.158935546875 C 551.03564453125 320.2190856933594 512.0783081054688 337.51470947265625 543.0692138671875 323.5475769042969 Q 590.0271606445312 413.27655029296875 617.1302490234375 373.1319580078125 Q 663.6807250976562 220.60809326171875 652.4776000976562 241.2708282470703 Q 682.1381225585938 188.83135986328125 688.8068237304688 188.4058074951172 Q 694.1804809570312 168.61074829101562 636.2817993164062 135.54129028320312 Q 621.4600830078125 121.67546081542969 569.6292114257812 135.98117065429688 Q 586.5418701171875 134.17031860351562 505.7552185058594 148.4462127685547 Q 482.55706787109375 153.18397521972656 434.8033752441406 162.23831176757812 C 364.94244384765625 177.85385131835938 321.917236328125 175.44557189941406 351.4779968261719 211.51324462890625" fill="rgb(0, 0, 0)" opacity="0.9954846" stroke-width="1.0"/>
  </g>
</svg>
