<?xml version="1.0" ?>
<svg height="1024" version="1.1" width="1024" xmlns="http://www.w3.org/2000/svg">
  <defs/>
  <g>
    <path d="M 767.5242309570312 595.05029296875 Q 804.4490966796875 568.1944580078125 835.592041015625 552.1423950195312 Q 861.4859619140625 545.814453125 841.8550415039062 525.253173828125 Q 752.0186157226562 476.3545837402344 738.1436767578125 486.062744140625 Q 700.902587890625 502.1043701171875 683.9288940429688 507.9224853515625 L 650.0025024414062 519.4771118164062 Q 645.4056396484375 521.5226440429688 586.0900268554688 538.3143310546875 L 546.8792724609375 548.3659057617188 Q 508.1890563964844 556.92919921875 495.4594421386719 561.5681762695312 Q 479.38043212890625 543.1527709960938 484.6224670410156 548.7562866210938 Q 491.9013977050781 543.7164916992188 484.5289306640625 548.716064453125 Q 517.0991821289062 589.4423828125 541.3462524414062 587.8163452148438 Q 550.8071899414062 587.7386474609375 563.0782470703125 581.4702758789062 L 590.408935546875 570.7283935546875 Q 620.2405395507812 559.732177734375 652.9760131835938 550.0775756835938 L 683.47509765625 541.735107421875 Q 714.2772216796875 533.5148315429688 720.5427856445312 535.6026611328125 Q 727.702392578125 535.266845703125 734.0453491210938 549.038330078125 Q 729.7865600585938 584.5944213867188 740.5521850585938 538.47705078125 L 720.4292602539062 595.21728515625 C 688.3245849609375 667.0931396484375 718.0545043945312 628.4209594726562 767.5242309570312 595.05029296875" fill="rgb(0, 0, 0)" opacity="0.9996363" stroke-width="1.0"/>
  </g>
</svg>
