<?xml version="1.0" ?>
<svg height="1024" version="1.1" width="1024" xmlns="http://www.w3.org/2000/svg">
  <defs/>
  <g>
    <path d="M 537.6109008789062 684.1681518554688 Q 545.0460815429688 639.5664672851562 547.8745727539062 584.742431640625 L 549.010986328125 556.4396362304688 Q 546.0481567382812 491.003173828125 550.8717651367188 463.63421630859375 Q 550.7547607421875 471.85162353515625 551.0134887695312 454.575927734375 C 547.4002075195312 477.3959655761719 550.6050415039062 468.335205078125 551.4676513671875 446.70172119140625 Q 547.3328247070312 437.1188049316406 489.43994140625 420.32183837890625 C 455.36029052734375 428.310302734375 483.3315734863281 431.5752868652344 496.74658203125 484.78289794921875 Q 517.7509765625 649.4496459960938 476.6439514160156 767.2470703125 Q 459.7104187011719 823.2740478515625 372.0256042480469 920.1288452148438 Q 399.9905700683594 934.5810546875 459.4452819824219 869.8312377929688 Q 452.8410339355469 874.3220825195312 455.6582946777344 873.3594360351562 Q 502.7685241699219 826.3513793945312 526.6878662109375 735.73046875 Q 524.6786499023438 744.4783935546875 532.6663208007812 710.8107299804688 L 537.6109008789062 684.1681518554688" fill="rgb(0, 0, 0)" opacity="0.9978579" stroke-width="1.0"/>
  </g>
</svg>
