<?xml version="1.0" ?>
<svg height="1024" version="1.1" width="1024" xmlns="http://www.w3.org/2000/svg">
  <defs/>
  <g>
    <path d="M 581.5154418945312 585.2450561523438 Q 612.2276611328125 630.0009765625 615.5287475585938 629.528564453125 Q 657.4456176757812 640.6472778320312 705.649658203125 557.6288452148438 Q 695.0701904296875 580.77880859375 725.7547607421875 514.473388671875 Q 720.9298706054688 532.1154174804688 742.7559204101562 458.3953857421875 Q 781.3363037109375 429.5581970214844 682.2163696289062 394.44305419921875 Q 644.9775390625 411.3062744140625 540.2029418945312 443.03045654296875 Q 638.7677612304688 342.2727966308594 518.4209594726562 333.5016784667969 Q 551.6961669921875 397.9024353027344 480.0535888671875 454.1218566894531 Q 463.3121032714844 473.31573486328125 489.4852600097656 497.738525390625 C 425.6822814941406 471.39312744140625 430.7594909667969 473.6396484375 504.64892578125 504.0038146972656 Q 562.2607421875 457.96356201171875 646.0414428710938 431.5061950683594 Q 484.8630065917969 417.9427185058594 691.1026611328125 435.2066650390625 Q 685.99462890625 608.1591186523438 541.19970703125 528.6581420898438 C 586.9326782226562 612.8655395507812 624.0003662109375 601.5281372070312 581.5154418945312 585.2450561523438" fill="rgb(1, 1, 1)" opacity="0.99095297" stroke-width="1.0"/>
  </g>
</svg>
