<?xml version="1.0" ?>
<svg height="1024" version="1.1" width="1024" xmlns="http://www.w3.org/2000/svg">
  <defs/>
  <g>
    <path d="M 449.91339111328125 259.52764892578125 Q 474.5773010253906 248.9495849609375 503.9144287109375 242.84812927246094 Q 614.10546875 213.2816619873047 718.5885009765625 196.35560607910156 Q 792.2872314453125 184.20521545410156 787.2862548828125 204.04647827148438 Q 781.7938842773438 231.46006774902344 756.5166015625 298.23931884765625 Q 737.1558227539062 345.8374938964844 766.9462280273438 283.1570739746094 Q 721.931884765625 348.2528381347656 771.1976318359375 351.7791442871094 Q 819.6177368164062 297.27569580078125 817.4881591796875 285.56121826171875 Q 839.4467163085938 245.8539276123047 868.6921997070312 225.95059204101562 Q 895.41015625 207.1442108154297 814.36767578125 160.23367309570312 Q 804.74755859375 148.76954650878906 759.9911499023438 157.5305938720703 Q 680.6558837890625 173.58718872070312 609.9671020507812 186.60159301757812 Q 547.080322265625 201.65603637695312 456.95538330078125 220.80413818359375 Q 467.8149719238281 218.08932495117188 443.0365295410156 223.6680450439453 C 414.3767395019531 227.3524932861328 422.2415771484375 264.239013671875 449.91339111328125 259.52764892578125" fill="rgb(0, 0, 0)" opacity="0.99753505" stroke-width="1.0"/>
  </g>
</svg>
