<?xml version="1.0" ?>
<svg height="1024" version="1.1" width="1024" xmlns="http://www.w3.org/2000/svg">
  <defs/>
  <g>
    <path d="M 822.4540405273438 809.1986083984375 Q 847.3201293945312 827.53955078125 866.7841186523438 852.9284057617188 Q 877.8807373046875 869.9154052734375 877.976806640625 868.5496826171875 Q 927.7823486328125 896.5192260742188 945.7568969726562 733.4171142578125 Q 935.4837646484375 618.6207885742188 937.3607177734375 556.2529296875 Q 934.18017578125 543.82568359375 949.8224487304688 495.178955078125 Q 930.4261474609375 433.7825622558594 630.9332885742188 508.6581115722656 Q 476.2109375 521.607421875 513.6848754882812 566.1710815429688 C 617.3456420898438 553.4446411132812 624.9362182617188 571.7806396484375 663.5631103515625 568.1160278320312 Q 621.9000244140625 566.4148559570312 561.2001342773438 558.2096557617188 L 700.6493530273438 529.017578125 Q 806.631591796875 510.077392578125 837.1941528320312 505.0779113769531 Q 884.19775390625 513.5092163085938 883.7106323242188 556.1099853515625 Q 887.5465698242188 653.9846801757812 870.485595703125 773.4154052734375 Q 867.3952026367188 782.0556640625 800.01708984375 771.1084594726562 C 780.6107177734375 774.21923828125 809.1455688476562 799.220458984375 822.4540405273438 809.1986083984375" fill="rgb(0, 0, 0)" opacity="0.9951579" stroke-width="1.0"/>
  </g>
</svg>
