<?xml version="1.0" ?>
<svg height="1024" version="1.1" width="1024" xmlns="http://www.w3.org/2000/svg">
  <defs/>
  <g>
    <path d="M 432.6241149902344 306.02801513671875 Q 506.0082092285156 305.5233154296875 527.3567504882812 303.5432434082031 Q 548.6535034179688 308.1814270019531 550.0631103515625 308.83251953125 Q 555.287109375 309.72686767578125 525.3905639648438 303.012451171875 Q 533.0045166015625 303.8357238769531 501.08538818359375 304.9656066894531 Q 495.03582763671875 304.9872131347656 488.4212646484375 305.37261962890625 L 434.12945556640625 306.0052795410156 Q 431.6568908691406 308.24639892578125 413.00927734375 276.47393798828125 Q 362.69189453125 299.09344482421875 392.250732421875 297.27789306640625 Q 382.7724609375 292.749267578125 387.2586669921875 330.5828857421875 Q 405.0705871582031 307.9794006347656 473.9505310058594 260.98876953125 Q 490.44415283203125 245.1541290283203 414.7044372558594 203.53321838378906 Q 303.8669738769531 238.4975128173828 254.52960205078125 243.6284942626953 Q 214.8480682373047 192.62376403808594 268.2763977050781 261.4789733886719 Q 403.9134216308594 263.0677490234375 389.8480529785156 231.7901611328125 Q 347.7518005371094 304.9224853515625 336.65802001953125 317.3520202636719 Q 327.4555358886719 332.0536804199219 281.95269775390625 399.5521240234375 Q 256.497314453125 437.311279296875 304.8902893066406 406.466552734375 Q 340.6709289550781 372.9962463378906 367.7635803222656 347.8157653808594 Q 388.854736328125 328.1244812011719 425.31524658203125 296.7715759277344 L 432.6241149902344 306.02801513671875" fill="rgb(0, 0, 0)" opacity="0.9931715" stroke-width="1.0"/>
  </g>
</svg>
