<?xml version="1.0" ?>
<svg height="1024" version="1.1" width="1024" xmlns="http://www.w3.org/2000/svg">
  <defs/>
  <g>
    <path d="M 585.8941650390625 513.9297485351562 Q 742.8209838867188 499.28125 896.2487182617188 516.6578979492188 Q 925.8632202148438 520.8668212890625 933.6070556640625 511.75079345703125 Q 946.9935913085938 494.0270080566406 924.5946655273438 476.19036865234375 Q 932.2492065429688 492.9156799316406 926.3753662109375 476.931884765625 Q 843.0823974609375 408.58111572265625 809.3958740234375 424.8042297363281 Q 758.6648559570312 434.1307373046875 670.8349609375 444.46356201171875 Q 605.784912109375 452.38055419921875 556.8533325195312 457.60504150390625 L 502.95404052734375 463.5634460449219 Q 500.33489990234375 464.83831787109375 294.7038269042969 481.0313415527344 Q 209.60284423828125 488.052978515625 134.0292510986328 492.3487243652344 Q 107.33438873291016 489.14044189453125 105.81681823730469 506.01123046875 Q 105.939208984375 520.6209716796875 127.06568908691406 537.1094360351562 Q 148.35562133789062 553.0485229492188 180.1283721923828 564.8167114257812 Q 191.57418823242188 570.666259765625 213.93836975097656 562.7252197265625 Q 228.8792266845703 556.4998779296875 306.5209045410156 545.9657592773438 Q 401.6381530761719 526.7625732421875 521.6781005859375 517.7316284179688 L 585.8941650390625 513.9297485351562" fill="rgb(0, 0, 0)" opacity="0.9991571" stroke-width="1.0"/>
  </g>
</svg>
