<?xml version="1.0" ?>
<svg height="1024" version="1.1" width="1024" xmlns="http://www.w3.org/2000/svg">
  <defs/>
  <g>
    <path d="M 486.7344055175781 440.2438049316406 Q 489.1501770019531 730.33984375 486.7248229980469 811.7576293945312 Q 498.47369384765625 734.0423583984375 479.3672790527344 798.4177856445312 Q 473.8084411621094 814.5885009765625 370.7396240234375 782.7152099609375 Q 338.8234558105469 784.4915771484375 361.8700866699219 783.2713623046875 Q 358.6797180175781 791.99658203125 367.6656799316406 801.7522583007812 Q 434.2001953125 852.697509765625 477.13433837890625 892.06591796875 Q 504.4093933105469 917.8331909179688 488.8313903808594 900.2990112304688 Q 498.32696533203125 917.4295654296875 516.5820922851562 899.6723022460938 Q 557.6470336914062 845.2152099609375 553.7034912109375 766.9226684570312 Q 548.2017822265625 673.1832275390625 544.848388671875 435.3040771484375 L 548.9407348632812 304.205810546875 Q 567.7459106445312 255.93359375 502.9678649902344 235.64968872070312 Q 463.5990905761719 231.05831909179688 468.4620361328125 254.16653442382812 C 423.3020324707031 215.1518096923828 433.8244323730469 223.23895263671875 464.7737121582031 251.46873474121094 Q 487.06201171875 260.9329528808594 485.4303283691406 353.4052429199219 L 486.7344055175781 440.2438049316406" fill="rgb(0, 0, 0)" opacity="0.998611" stroke-width="1.0"/>
  </g>
</svg>
