<?xml version="1.0" ?>
<svg height="1024" version="1.1" width="1024" xmlns="http://www.w3.org/2000/svg">
  <defs/>
  <g>
    <path d="M 633.5435180664062 834.7811889648438 Q 743.3823852539062 574.3892822265625 761.4833374023438 481.58892822265625 Q 841.6220703125 424.0514221191406 772.6859130859375 395.4765319824219 Q 785.5686645507812 390.81060791015625 773.82421875 394.61700439453125 Q 729.5123901367188 360.1425476074219 628.101318359375 328.9735107421875 Q 779.980712890625 331.06219482421875 553.5861206054688 327.70013427734375 Q 472.5068664550781 375.0970458984375 572.2787475585938 268.98040771484375 Q 463.8641357421875 107.12104034423828 475.5577392578125 295.7197570800781 Q 329.10809326171875 461.7548828125 432.5199890136719 473.5216369628906 Q 679.5277099609375 433.715576171875 472.3782958984375 392.90130615234375 Q 540.56005859375 280.5870056152344 711.5471801757812 359.42529296875 Q 460.6150817871094 413.38629150390625 567.6196899414062 453.27508544921875 Q 757.8729858398438 351.4297790527344 654.4015502929688 606.8329467773438 L 593.8258666992188 763.5391845703125 Q 545.3292846679688 752.8829956054688 354.97344970703125 798.2474365234375 Q 358.6457824707031 796.7999877929688 477.0384216308594 771.1397705078125 Q 440.7577819824219 844.5687255859375 474.0195617675781 777.4381713867188 Q 506.49053955078125 863.4581909179688 537.6989135742188 900.0563354492188 L 633.5435180664062 834.7811889648438" fill="rgb(3, 3, 3)" opacity="0.973989" stroke-width="1.0"/>
  </g>
</svg>
