<?xml version="1.0" ?>
<svg height="1024" version="1.1" width="1024" xmlns="http://www.w3.org/2000/svg">
  <defs/>
  <g>
    <path d="M 503.1825866699219 283.16888427734375 Q 501.69415283203125 368.6992492675781 498.9244384765625 402.3233947753906 L 497.86590576171875 416.3515319824219 Q 496.32574462890625 437.4707336425781 493.95391845703125 462.4154052734375 Q 492.4187316894531 481.8404235839844 486.5829162597656 528.9669799804688 L 484.0229187011719 542.3899536132812 Q 467.84710693359375 710.5855102539062 349.4713134765625 782.0965576171875 Q 239.59909057617188 845.5302734375 111.83805847167969 877.959228515625 Q 272.5370178222656 900.9276123046875 424.2073059082031 791.1453857421875 Q 305.7314758300781 866.907958984375 388.1496887207031 814.4862670898438 Q 509.9244079589844 736.1508178710938 532.864990234375 579.3685913085938 Q 533.4552612304688 584.2139892578125 539.1874389648438 538.1842651367188 L 541.7793579101562 508.0411682128906 Q 543.790283203125 474.61175537109375 545.5606079101562 453.64788818359375 Q 547.5708618164062 423.6550598144531 550.7251586914062 393.826171875 L 552.9312744140625 366.4172058105469 Q 556.2818603515625 330.2533264160156 557.2073364257812 285.48406982421875 L 560.3228149414062 254.1714630126953 Q 565.7178955078125 203.7480010986328 583.91845703125 154.24923706054688 Q 599.1018676757812 127.69160461425781 587.7056884765625 114.36946868896484 Q 569.5921630859375 94.20951080322266 519.158203125 77.42613983154297 Q 452.6837158203125 61.45078659057617 481.2783508300781 107.66781616210938 Q 493.7161560058594 133.24371337890625 484.4193115234375 114.38751220703125 Q 504.03289794921875 156.24563598632812 503.1719665527344 209.30966186523438 L 503.1825866699219 283.16888427734375" fill="rgb(1, 1, 1)" opacity="1.0" stroke-width="1.0"/>
  </g>
</svg>
