<?xml version="1.0" ?>
<svg height="1024" version="1.1" width="1024" xmlns="http://www.w3.org/2000/svg">
  <defs/>
  <g>
    <path d="M 520.057861328125 764.067626953125 Q 522.5493774414062 624.2144165039062 524.2327880859375 509.61981201171875 L 525.1021728515625 447.9329833984375 Q 524.4647216796875 374.28973388671875 527.4270629882812 305.7461853027344 L 529.6815185546875 270.458740234375 Q 535.92333984375 193.12698364257812 546.272216796875 170.5102996826172 Q 555.9254150390625 146.47769165039062 529.6392822265625 131.67922973632812 Q 485.84930419921875 101.2476806640625 456.02764892578125 96.21520233154297 Q 468.9220886230469 100.252685546875 456.8426513671875 97.24140930175781 Q 419.86773681640625 105.85874938964844 431.1265563964844 128.66331481933594 Q 457.89996337890625 165.7353973388672 461.5627136230469 246.88446044921875 Q 462.0711975097656 259.15032958984375 462.086669921875 320.2464599609375 L 462.1451416015625 372.4632873535156 Q 462.6580505371094 460.97467041015625 462.3951110839844 420.1822204589844 L 462.8598937988281 490.3489074707031 Q 463.7259521484375 613.486572265625 465.9819641113281 770.47216796875 C 464.5647888183594 803.1923828125 521.9324340820312 797.0849609375 520.057861328125 764.067626953125" fill="rgb(0, 0, 0)" opacity="0.9995532" stroke-width="1.0"/>
  </g>
</svg>
