<?xml version="1.0" ?>
<svg height="1024" version="1.1" width="1024" xmlns="http://www.w3.org/2000/svg">
  <defs/>
  <g>
    <path d="M 478.2142639160156 790.5799560546875 Q 477.4079895019531 786.9928588867188 477.6803283691406 863.3523559570312 Q 477.7656555175781 883.4154052734375 497.1432800292969 906.8668212890625 Q 509.8366394042969 923.521728515625 521.5546875 907.2110595703125 Q 527.8257446289062 897.0570678710938 536.101806640625 875.2308349609375 Q 549.32666015625 839.1810302734375 546.9786987304688 803.5567626953125 Q 539.6192626953125 764.81396484375 544.1537475585938 393.2440185546875 Q 543.224365234375 259.4798889160156 548.2083129882812 237.8253631591797 Q 543.75439453125 218.5220184326172 546.6912841796875 231.73858642578125 Q 539.5421752929688 217.55702209472656 485.397705078125 196.01747131347656 Q 460.3184814453125 212.8231964111328 475.1478271484375 203.00604248046875 Q 467.6586608886719 179.31246948242188 467.65447998046875 180.1327362060547 Q 486.15966796875 234.4682159423828 486.5127258300781 259.3113098144531 Q 489.460205078125 286.90142822265625 490.32586669921875 343.1544494628906 L 490.6636047363281 378.7537536621094 Q 490.1822814941406 451.49395751953125 489.3677062988281 485.7134094238281 L 488.62103271484375 518.7083129882812 Q 487.650634765625 555.2183837890625 486.0555114746094 602.98681640625 L 485.2012634277344 628.111328125 Q 480.8372497558594 707.5773315429688 478.2142639160156 790.5799560546875" fill="rgb(0, 0, 0)" opacity="0.9990391" stroke-width="1.0"/>
  </g>
</svg>
