<?xml version="1.0" ?>
<svg height="1024" version="1.1" width="1024" xmlns="http://www.w3.org/2000/svg">
  <defs/>
  <g>
    <path d="M 329.1374206542969 716.76904296875 Q 283.4573974609375 720.9768676757812 260.92779541015625 723.3274536132812 Q 103.62883758544922 736.6937255859375 111.27604675292969 738.8673706054688 Q 65.79022979736328 766.3779296875 64.71107482910156 769.1553955078125 Q 64.25421905517578 767.0733642578125 112.56694030761719 737.7261352539062 Q 117.96540069580078 781.5055541992188 193.7007598876953 793.7050170898438 Q 110.49445343017578 813.7838134765625 129.63421630859375 809.3839721679688 Q 325.2843017578125 758.7954711914062 522.4263305664062 745.2799072265625 Q 707.06298828125 730.9081420898438 957.1929931640625 743.986328125 Q 937.2979125976562 774.14111328125 950.7363891601562 776.2780151367188 Q 944.9268798828125 774.8366088867188 949.5328979492188 775.8167724609375 Q 935.013916015625 772.080078125 971.3637084960938 724.067626953125 Q 952.9334106445312 685.2267456054688 876.884033203125 656.2756958007812 Q 850.9253540039062 648.9134521484375 811.0632934570312 658.348876953125 Q 754.0103149414062 668.6869506835938 617.9931640625 685.8067626953125 L 569.7142333984375 691.400634765625 Q 504.9407653808594 699.137451171875 385.2012634277344 711.2131958007812 L 329.1374206542969 716.76904296875" fill="rgb(0, 0, 0)" opacity="0.9983354" stroke-width="1.0"/>
  </g>
</svg>
