<?xml version="1.0" ?>
<svg height="1024" version="1.1" width="1024" xmlns="http://www.w3.org/2000/svg">
  <defs/>
  <g>
    <path d="M 449.516845703125 164.32899475097656 Q 437.6311340332031 155.6928253173828 411.983154296875 141.5479736328125 Q 351.5347900390625 117.22024536132812 349.8052978515625 158.23898315429688 Q 349.36248779296875 142.73052978515625 378.1749267578125 192.93441772460938 Q 392.3054504394531 209.58822631835938 388.5272216796875 426.88671875 Q 376.0009460449219 803.5197143554688 429.6930847167969 800.1522216796875 Q 374.8038635253906 803.3970336914062 377.3034362792969 855.1458129882812 Q 377.6084289550781 877.3599853515625 377.1268310546875 852.9639282226562 Q 375.3028259277344 878.8792724609375 378.0001525878906 837.2052001953125 Q 396.6859436035156 775.2196044921875 476.47161865234375 826.04736328125 Q 719.045166015625 858.1410522460938 810.6140747070312 794.8756713867188 Q 855.3335571289062 796.74609375 887.1934204101562 796.6018676757812 Q 894.2269897460938 797.065673828125 792.57373046875 794.7342529296875 Q 831.5431518554688 772.8642578125 733.747802734375 741.3958740234375 Q 672.7239379882812 772.34716796875 643.7550659179688 772.094970703125 Q 471.9875183105469 800.6947021484375 446.9011535644531 743.7994995117188 Q 419.7048034667969 853.285888671875 447.5567932128906 742.3182373046875 Q 420.6069030761719 712.7029418945312 439.33099365234375 337.4283142089844 Q 448.3061218261719 238.7909393310547 463.9554748535156 216.13861083984375 Q 470.4182434082031 202.99453735351562 469.1262512207031 204.02108764648438 C 473.9366455078125 189.14251708984375 466.9053649902344 175.15127563476562 449.516845703125 164.32899475097656" fill="rgb(0, 0, 0)" opacity="0.99460655" stroke-width="1.0"/>
  </g>
</svg>
