<?xml version="1.0" ?>
<svg height="1024" version="1.1" width="1024" xmlns="http://www.w3.org/2000/svg">
  <defs/>
  <g>
    <path d="M 469.0495300292969 515.0353393554688 Q 448.62811279296875 520.4461669921875 482.01397705078125 511.9560852050781 Q 644.0383911132812 470.5343933105469 810.3134765625 459.546142578125 Q 833.1160888671875 458.55279541015625 885.077392578125 455.6339416503906 Q 912.8402709960938 435.6062316894531 877.634521484375 413.70050048828125 Q 829.8541259765625 384.4309387207031 790.1156616210938 384.02703857421875 Q 771.36572265625 382.24517822265625 734.4539794921875 394.73480224609375 Q 662.0816650390625 414.9424133300781 598.0618286132812 431.8695373535156 Q 521.4397583007812 452.3858642578125 472.13238525390625 465.0450134277344 L 424.08160400390625 478.1355895996094 Q 330.85906982421875 497.81536865234375 276.1977233886719 512.3145141601562 Q 214.19346618652344 530.5966796875 117.01972961425781 545.0741577148438 Q 72.98064422607422 548.7955322265625 99.34809875488281 566.0497436523438 Q 96.85263061523438 536.256591796875 87.77880096435547 559.676513671875 Q 89.71897888183594 585.1149291992188 153.93405151367188 603.252197265625 Q 175.14047241210938 612.9141845703125 193.10855102539062 600.468994140625 Q 225.21255493164062 584.752197265625 287.1883544921875 565.1737060546875 Q 350.7705078125 545.4216918945312 424.84490966796875 527.1968994140625 L 469.0495300292969 515.0353393554688" fill="rgb(0, 0, 0)" opacity="0.9990466" stroke-width="1.0"/>
  </g>
</svg>
