<?xml version="1.0" ?>
<svg height="1024" version="1.1" width="1024" xmlns="http://www.w3.org/2000/svg">
  <defs/>
  <g>
    <path d="M 515.7904663085938 818.5764770507812 Q 575.99267578125 816.8618774414062 617.031494140625 813.454833984375 Q 770.5006103515625 799.107177734375 908.3228149414062 818.5541381835938 Q 934.3018798828125 822.479736328125 943.8590698242188 813.2774658203125 Q 955.8173828125 797.5494995117188 937.285400390625 781.0731201171875 Q 857.7113647460938 715.4512939453125 830.1244506835938 727.440673828125 Q 737.7223510742188 746.0620727539062 566.79052734375 762.5223999023438 L 491.9231872558594 769.7311401367188 Q 467.87213134765625 771.3709716796875 332.84283447265625 782.7847900390625 Q 244.08761596679688 796.7708129882812 133.63754272460938 793.8427734375 Q 109.80602264404297 801.0394287109375 126.25653839111328 796.1499633789062 Q 114.05461883544922 804.9893798828125 125.08202362060547 822.3685913085938 Q 141.3820037841797 844.5093994140625 176.37327575683594 856.4990234375 Q 199.67807006835938 864.119873046875 225.14122009277344 860.6177978515625 Q 214.08335876464844 863.2178955078125 280.04241943359375 848.5565795898438 Q 394.79901123046875 829.0305786132812 515.7904663085938 818.5764770507812" fill="rgb(0, 0, 0)" opacity="1.0" stroke-width="1.0"/>
  </g>
</svg>
