<?xml version="1.0" ?>
<svg height="1024" version="1.1" width="1024" xmlns="http://www.w3.org/2000/svg">
  <defs/>
  <g>
    <path d="M 503.9879455566406 815.515869140625 Q 576.1403198242188 813.5806274414062 610.2798461914062 810.961669921875 Q 760.6834106445312 801.93408203125 906.5021362304688 821.6463623046875 Q 930.7911376953125 826.0319213867188 939.0708618164062 818.12158203125 Q 951.0811157226562 803.5859375 931.6791381835938 786.47021484375 Q 864.0120849609375 728.1516723632812 838.3350219726562 735.1019287109375 Q 727.3611450195312 758.358642578125 583.1277465820312 765.6638793945312 L 506.05499267578125 769.7462158203125 Q 484.715087890625 771.86328125 290.2776794433594 786.057373046875 Q 227.0523223876953 791.8986206054688 120.7656021118164 789.8903198242188 Q 104.67598724365234 795.4249267578125 114.92100524902344 815.0845947265625 Q 108.12396240234375 806.8648071289062 122.61636352539062 824.4385375976562 Q 148.74813842773438 846.8580932617188 177.3622283935547 852.1544189453125 Q 187.6722869873047 854.775634765625 207.98739624023438 852.9227905273438 Q 227.8279266357422 847.1807250976562 277.0754699707031 839.4805297851562 Q 395.8824462890625 822.5213012695312 503.9879455566406 815.515869140625" fill="rgb(0, 0, 0)" opacity="0.999399" stroke-width="1.0"/>
  </g>
</svg>
