<?xml version="1.0" ?>
<svg height="1024" version="1.1" width="1024" xmlns="http://www.w3.org/2000/svg">
  <defs/>
  <g>
    <path d="M 797.9564208984375 497.3193664550781 Q 800.4191284179688 406.5670471191406 817.896484375 371.2715759277344 Q 839.6155395507812 347.2255554199219 828.459228515625 331.4316711425781 Q 797.225830078125 300.6843566894531 728.1932983398438 281.53045654296875 Q 727.0386962890625 278.8698425292969 628.3320922851562 306.25225830078125 Q 553.1275634765625 323.6962890625 504.3744812011719 331.58343505859375 C 477.85113525390625 347.3500671386719 480.5941467285156 376.3444519042969 546.3629150390625 366.0555725097656 Q 556.2775268554688 355.3348388671875 537.5120239257812 371.0808410644531 Q 540.762939453125 362.3155822753906 665.4147338867188 341.03125 Q 705.7439575195312 332.340087890625 712.2551879882812 340.32867431640625 Q 735.6340942382812 362.22686767578125 733.961181640625 426.1430969238281 Q 734.211181640625 483.5259094238281 732.7064208984375 528.7553100585938 L 731.5409545898438 559.9556274414062 Q 726.920654296875 660.7039184570312 716.2496948242188 714.56005859375 L 708.2542724609375 755.1184692382812 Q 689.5632934570312 839.0323486328125 666.10546875 858.3749389648438 Q 661.5673828125 866.9536743164062 619.2467041015625 848.921630859375 Q 564.2476196289062 823.587890625 565.7288818359375 824.8176879882812 Q 522.9685668945312 806.7911376953125 553.6723022460938 842.8186645507812 Q 592.5494995117188 884.9630126953125 623.0076904296875 935.47216796875 Q 649.6257934570312 991.818603515625 684.140380859375 964.4813842773438 Q 737.1507568359375 920.5728149414062 769.9625244140625 784.9762573242188 Q 761.0244750976562 822.5180053710938 771.9434204101562 764.3377685546875 L 777.6397705078125 722.5306396484375 Q 783.550537109375 681.4151000976562 792.9117431640625 565.89794921875 L 797.9564208984375 497.3193664550781" fill="rgb(0, 0, 0)" opacity="0.9987475" stroke-width="1.0"/>
  </g>
</svg>
