<?xml version="1.0" ?>
<svg height="1024" version="1.1" width="1024" xmlns="http://www.w3.org/2000/svg">
  <defs/>
  <g>
    <path d="M 694.83642578125 594.30029296875 Q 696.42041015625 480.07861328125 699.9321899414062 400.3450927734375 L 701.9107055664062 368.677734375 Q 707.41552734375 233.89805603027344 731.6117553710938 193.41488647460938 Q 738.8450317382812 175.18653869628906 733.2908935546875 172.7376251220703 Q 705.5597534179688 140.25930786132812 639.4529418945312 109.46768188476562 Q 677.4847412109375 122.41521453857422 354.3054504394531 186.19715881347656 Q 381.2212219238281 230.6522216796875 527.7327270507812 182.7762908935547 Q 645.6552124023438 159.43910217285156 645.2470092773438 178.9868927001953 Q 646.264892578125 268.667236328125 644.0720825195312 396.3004455566406 L 638.412109375 672.0748291015625 Q 644.15380859375 780.4559936523438 599.7984619140625 800.6409912109375 Q 553.9601440429688 843.0267333984375 501.64813232421875 845.650634765625 Q 496.357666015625 846.0186767578125 494.23651123046875 845.8536376953125 Q 512.7430419921875 847.4246215820312 480.10919189453125 844.4326171875 Q 554.94970703125 855.64453125 631.0720825195312 770.7055053710938 Q 593.6573486328125 767.7035522460938 692.3817749023438 772.9039306640625 Q 695.1979370117188 703.2689819335938 694.5607299804688 550.635986328125 L 694.83642578125 594.30029296875" fill="rgb(0, 0, 0)" opacity="0.9856406" stroke-width="1.0"/>
  </g>
</svg>
