<?xml version="1.0" ?>
<svg height="1024" version="1.1" width="1024" xmlns="http://www.w3.org/2000/svg">
  <defs/>
  <g>
    <path d="M 479.6561279296875 184.59707641601562 Q 547.64599609375 175.49012756347656 644.5803833007812 171.49111938476562 Q 721.215087890625 169.1061553955078 667.1646728515625 169.37640380859375 Q 682.5101318359375 170.28311157226562 697.8778076171875 169.9226837158203 Q 761.3068237304688 166.7946014404297 737.31201171875 172.54624938964844 Q 678.0303955078125 243.45040893554688 718.1547241210938 195.81387329101562 Q 697.2235107421875 231.47303771972656 697.8413696289062 231.5050048828125 Q 730.538330078125 167.15255737304688 751.0643310546875 168.4210662841797 Q 840.6173706054688 169.1258544921875 843.3265380859375 164.61099243164062 Q 870.7457275390625 135.9191436767578 772.0416870117188 98.82523345947266 Q 758.0787353515625 93.62974548339844 677.9269409179688 110.94769287109375 Q 576.0914306640625 129.3878173828125 382.4600524902344 156.47987365722656 Q 337.3051452636719 162.68043518066406 223.153564453125 177.7643585205078 C 191.01991271972656 180.01304626464844 177.47860717773438 185.42539978027344 215.21580505371094 213.25665283203125 Q 250.76573181152344 232.96661376953125 293.7536315917969 216.34886169433594 Q 381.336181640625 195.44248962402344 441.7586669921875 188.88070678710938 L 479.6561279296875 184.59707641601562" fill="rgb(0, 0, 0)" opacity="0.9981107" stroke-width="1.0"/>
  </g>
</svg>
