<?xml version="1.0" ?>
<svg height="1024" version="1.1" width="1024" xmlns="http://www.w3.org/2000/svg">
  <defs/>
  <g>
    <path d="M 310.3399963378906 568.1417236328125 Q 670.1793212890625 482.6961975097656 690.746337890625 522.6283569335938 Q 703.9456176757812 575.95068359375 733.9252319335938 525.7896118164062 Q 747.3574829101562 502.0968933105469 731.7968139648438 504.5705261230469 Q 733.936279296875 463.7119140625 706.1253662109375 510.0428466796875 Q 674.5556640625 747.60302734375 572.0332641601562 932.5631103515625 Q 518.7681274414062 766.8780517578125 391.6824035644531 918.54931640625 Q 413.92889404296875 888.7998046875 462.5887756347656 853.5103759765625 Q 332.50445556640625 894.2823486328125 299.3691101074219 915.78466796875 Q 404.62811279296875 859.0477294921875 630.218017578125 815.1399536132812 Q 510.7660827636719 1037.77978515625 686.8277587890625 872.0144653320312 Q 726.49853515625 741.2789306640625 755.0787963867188 575.0631713867188 Q 808.33447265625 502.3907470703125 790.9619140625 510.9840087890625 Q 846.5968627929688 491.0218200683594 863.7545776367188 485.7358703613281 Q 860.6792602539062 486.3128967285156 794.6028442382812 509.52838134765625 Q 778.3238525390625 464.8700866699219 752.712890625 456.5879821777344 Q 779.3115234375 465.51800537109375 795.44677734375 512.1282348632812 L 709.2002563476562 460.7708740234375 C 395.0874328613281 516.6371459960938 304.4743347167969 512.0238037109375 310.3399963378906 568.1417236328125" fill="rgb(1, 1, 1)" opacity="0.9885359" stroke-width="1.0"/>
  </g>
</svg>
