<?xml version="1.0" ?>
<svg height="1024" version="1.1" width="1024" xmlns="http://www.w3.org/2000/svg">
  <defs/>
  <g>
    <path d="M 640.5478515625 527.2208251953125 L 631.6760864257812 576.2984008789062 Q 620.5343627929688 636.189697265625 592.2931518554688 786.4619750976562 Q 552.469970703125 792.2351684570312 515.6665649414062 820.6837158203125 Q 467.81951904296875 869.5294189453125 444.96710205078125 896.4968872070312 Q 452.01458740234375 887.5565185546875 443.4429626464844 898.788818359375 Q 457.36322021484375 880.0697021484375 440.2248840332031 903.2431640625 Q 449.6600341796875 888.6715087890625 497.8770446777344 839.2649536132812 Q 547.8367919921875 778.51953125 654.2398681640625 781.558837890625 Q 670.3629150390625 685.9326171875 702.507080078125 520.8876953125 L 712.2520751953125 476.0041809082031 Q 717.1868286132812 450.9036865234375 728.4899291992188 403.19207763671875 Q 745.7504272460938 315.78326416015625 767.7273559570312 292.59405517578125 Q 785.9239501953125 273.5383605957031 782.7739868164062 262.6170959472656 Q 783.0516967773438 249.69439697265625 765.0333251953125 234.12155151367188 Q 751.924072265625 221.82920837402344 710.4412231445312 190.8582305908203 C 664.5540161132812 171.66949462890625 616.5885009765625 224.7551727294922 375.3866271972656 243.68270874023438 Q 327.9635925292969 310.5951843261719 435.5334167480469 278.3360595703125 Q 691.773681640625 222.6890106201172 687.4891357421875 255.0096435546875 Q 659.6223754882812 424.1023864746094 646.0540161132812 495.1124267578125 L 640.5478515625 527.2208251953125" fill="rgb(0, 0, 0)" opacity="0.99504864" stroke-width="1.0"/>
  </g>
</svg>
