<?xml version="1.0" ?>
<svg height="1024" version="1.1" width="1024" xmlns="http://www.w3.org/2000/svg">
  <defs/>
  <g>
    <path d="M 925.2140502929688 483.2474670410156 Q 931.0499877929688 473.1748046875 929.97509765625 410.17791748046875 Q 937.0753173828125 394.1034240722656 932.644287109375 403.9736328125 Q 925.9155883789062 419.8140869140625 929.8068237304688 410.4324645996094 Q 932.19287109375 486.5197448730469 919.9629516601562 490.52642822265625 Q 893.5641479492188 506.4673156738281 692.1099853515625 573.1656494140625 Q 761.8963012695312 511.71624755859375 881.3721313476562 431.6763610839844 Q 868.499267578125 392.2160949707031 832.0340576171875 384.1134948730469 Q 831.3177490234375 508.08416748046875 861.5784301757812 398.2956237792969 Q 812.2542114257812 339.65264892578125 755.04833984375 369.11700439453125 Q 779.6053466796875 357.7368469238281 765.0869140625 364.7275695800781 Q 795.6441650390625 354.12738037109375 776.6415405273438 366.93865966796875 Q 777.8807373046875 341.94561767578125 774.8041381835938 414.08721923828125 Q 707.9271850585938 514.1990356445312 649.7976684570312 586.7359008789062 Q 842.8185424804688 524.4671020507812 908.8234252929688 496.21099853515625 Q 928.916259765625 488.1400451660156 924.0368041992188 480.41741943359375 Q 932.1284790039062 499.43060302734375 925.2140502929688 483.2474670410156" fill="rgb(0, 0, 0)" opacity="0.9906829" stroke-width="1.0"/>
  </g>
</svg>
