<?xml version="1.0" ?>
<svg height="1024" version="1.1" width="1024" xmlns="http://www.w3.org/2000/svg">
  <defs/>
  <g>
    <path d="M 528.4197998046875 433.7100524902344 Q 577.5729370117188 425.6585388183594 794.935546875 416.8263244628906 Q 754.4539794921875 409.3323059082031 768.2057495117188 418.49273681640625 Q 798.3622436523438 415.63031005859375 799.4188842773438 455.1745910644531 Q 804.5557250976562 649.909912109375 778.7649536132812 760.5768432617188 Q 769.7445678710938 797.0222778320312 737.973388671875 792.9207153320312 Q 694.814453125 783.2836303710938 669.7625122070312 774.7865600585938 Q 657.5928344726562 774.0262451171875 665.1378784179688 774.6616821289062 Q 654.8040161132812 776.8536987304688 669.5617065429688 801.28369140625 Q 733.4983520507812 874.0680541992188 751.0848388671875 910.7035522460938 Q 761.9966430664062 935.122314453125 778.7293090820312 931.318115234375 Q 795.2064819335938 926.2234497070312 813.0191040039062 891.1536865234375 Q 836.734619140625 844.8172607421875 852.48828125 750.6661987304688 Q 858.15966796875 731.707763671875 878.1857299804688 524.247314453125 Q 887.777099609375 433.6618957519531 908.6280517578125 421.0250549316406 Q 897.1572875976562 404.8927001953125 874.9479370117188 390.900390625 Q 858.9603271484375 381.2362365722656 819.6085205078125 361.7701416015625 Q 771.4251708984375 359.4965515136719 797.2396850585938 360.8253173828125 Q 764.1583251953125 373.47161865234375 674.7556762695312 380.9726257324219 Q 595.3425903320312 386.95928955078125 527.7759399414062 394.9736022949219 L 463.6949462890625 403.89044189453125 Q 414.8388671875 408.5495910644531 380.7979431152344 416.2216796875 Q 291.97412109375 432.61981201171875 216.58409118652344 441.8351135253906 C 197.6395263671875 461.8948059082031 210.5811309814453 455.9346008300781 207.77769470214844 445.75067138671875 Q 209.5200653076172 483.9660339355469 242.4172821044922 480.1239013671875 Q 256.3810119628906 460.57098388671875 464.52972412109375 441.5240173339844 L 528.4197998046875 433.7100524902344" fill="rgb(0, 0, 0)" opacity="0.99908304" stroke-width="1.0"/>
  </g>
</svg>
