<?xml version="1.0" ?>
<svg height="1024" version="1.1" width="1024" xmlns="http://www.w3.org/2000/svg">
  <defs/>
  <g>
    <path d="M 487.97393798828125 434.7113342285156 Q 513.6435546875 473.3323974609375 503.2917175292969 744.2711181640625 Q 503.1710510253906 738.9491577148438 502.74688720703125 751.47412109375 Q 499.48834228515625 803.5534057617188 492.8967590332031 820.0259399414062 Q 488.77545166015625 830.17822265625 476.0395202636719 830.40478515625 Q 475.0312805175781 833.154052734375 374.23077392578125 799.570068359375 Q 371.1698913574219 825.2659301757812 374.6260681152344 799.290771484375 Q 355.5365295410156 802.5263671875 382.41949462890625 826.0092163085938 Q 448.29962158203125 882.3526000976562 485.1845397949219 926.8554077148438 Q 498.3038024902344 948.2340698242188 510.7869873046875 949.4080200195312 Q 536.3915405273438 945.4535522460938 558.2366943359375 884.6656494140625 Q 566.9100341796875 851.009033203125 562.163330078125 799.0822143554688 Q 558.4785766601562 518.6819458007812 560.866943359375 513.3027954101562 Q 563.4404296875 483.9352111816406 573.6009521484375 463.768310546875 Q 581.681396484375 444.25341796875 556.6153564453125 428.42333984375 Q 551.233642578125 424.1229248046875 544.994873046875 420.32672119140625 C 505.1522216796875 394.20953369140625 452.7287292480469 381.7124938964844 487.97393798828125 434.7113342285156" fill="rgb(0, 0, 0)" opacity="0.998767" stroke-width="1.0"/>
  </g>
</svg>
