<?xml version="1.0" ?>
<svg height="1024" version="1.1" width="1024" xmlns="http://www.w3.org/2000/svg">
  <defs/>
  <g>
    <path d="M 258.34722900390625 246.24635314941406 Q 320.6910705566406 553.021240234375 297.231201171875 737.9318237304688 Q 300.97747802734375 705.3855590820312 294.6059875488281 754.3218994140625 Q 289.6963806152344 793.1334838867188 274.8509216308594 806.1793212890625 Q 248.78146362304688 834.37548828125 290.9957275390625 863.7828369140625 Q 309.4873962402344 879.8131713867188 325.8562316894531 863.677001953125 Q 333.5923156738281 868.5333251953125 326.2557678222656 863.96826171875 Q 382.40576171875 788.93115234375 817.3355102539062 798.1483764648438 Q 858.6434936523438 728.12109375 733.0004272460938 734.0265502929688 Q 483.8182678222656 773.0697021484375 554.8770141601562 760.5516357421875 Q 387.9545593261719 790.9532470703125 371.4970703125 787.0867309570312 Q 349.45074462890625 792.0130615234375 354.76776123046875 710.95361328125 Q 348.172119140625 587.1719970703125 347.63336181640625 555.45556640625 Q 347.80682373046875 582.533935546875 343.35150146484375 359.05499267578125 C 331.35528564453125 288.1689147949219 389.02099609375 263.9081115722656 258.34722900390625 246.24635314941406" fill="rgb(0, 0, 0)" opacity="0.998688" stroke-width="1.0"/>
  </g>
</svg>
