<?xml version="1.0" ?>
<svg height="1024" version="1.1" width="1024" xmlns="http://www.w3.org/2000/svg">
  <defs/>
  <g>
    <path d="M 391.83209228515625 227.38780212402344 Q 371.21746826171875 231.6331787109375 380.7059326171875 229.7249755859375 Q 441.1679992675781 216.98458862304688 579.1035766601562 187.0647430419922 Q 590.8981323242188 177.84788513183594 628.957763671875 136.10084533691406 Q 644.8392333984375 160.33604431152344 623.392822265625 219.33045959472656 Q 604.9893798828125 270.38836669921875 573.80810546875 329.2798156738281 Q 546.6038818359375 387.66619873046875 516.1207885742188 415.435546875 Q 504.01861572265625 431.81341552734375 528.3151245117188 378.39453125 Q 515.6764526367188 406.63140869140625 530.54443359375 371.90850830078125 Q 534.60888671875 361.15960693359375 508.2484436035156 426.1008605957031 Q 453.799072265625 452.94708251953125 510.587890625 506.5133056640625 Q 487.92681884765625 502.7980041503906 731.4293823242188 450.6107177734375 Q 513.2314453125 428.8242492675781 546.5347900390625 453.5532531738281 Q 592.8870239257812 370.94775390625 625.58056640625 321.63995361328125 Q 672.1582641601562 250.99752807617188 696.2196044921875 220.46710205078125 Q 720.4013061523438 191.66845703125 718.0679931640625 181.9206085205078 Q 677.7793579101562 126.39984893798828 639.7463989257812 124.3381118774414 Q 597.0346069335938 171.60296630859375 579.7288818359375 186.83706665039062 Q 563.990478515625 190.6378631591797 392.50390625 227.1783447265625 C 370.410888671875 238.68858337402344 373.851318359375 237.11497497558594 391.83209228515625 227.38780212402344" fill="rgb(0, 0, 0)" opacity="0.9894403" stroke-width="1.0"/>
  </g>
</svg>
