<?xml version="1.0" ?>
<svg height="1024" version="1.1" width="1024" xmlns="http://www.w3.org/2000/svg">
  <defs/>
  <g>
    <path d="M 521.1732177734375 842.891357421875 Q 570.5322875976562 841.8026733398438 619.7699584960938 838.0238037109375 Q 746.6426391601562 828.3214721679688 884.8807983398438 846.6968994140625 Q 921.904296875 853.3286743164062 926.2649536132812 841.8757934570312 Q 936.50927734375 826.3478393554688 916.8477783203125 810.1719970703125 Q 844.4116821289062 739.587158203125 791.4172973632812 765.2179565429688 Q 731.2327270507812 772.9757690429688 667.5142211914062 780.4453125 Q 640.5486450195312 783.5734252929688 610.2713623046875 787.2622680664062 L 557.5947265625 792.051025390625 Q 514.0066528320312 793.0296020507812 484.4665222167969 797.262451171875 Q 469.2429504394531 797.3067626953125 434.0974426269531 799.5960083007812 L 381.5882873535156 804.1331787109375 Q 338.7431335449219 804.9391479492188 311.1916809082031 808.823486328125 Q 243.2120361328125 818.9360961914062 139.10488891601562 816.1298828125 Q 123.14510345458984 814.9348754882812 120.26783752441406 820.51806640625 Q 110.03266143798828 833.4507446289062 131.34580993652344 853.0665283203125 Q 177.49598693847656 890.6023559570312 214.97274780273438 882.4659423828125 Q 269.730224609375 866.8599853515625 413.73504638671875 851.3133544921875 Q 466.61224365234375 845.326904296875 521.1732177734375 842.891357421875" fill="rgb(0, 0, 0)" opacity="1.0" stroke-width="1.0"/>
  </g>
</svg>
