<?xml version="1.0" ?>
<svg height="1024" version="1.1" width="1024" xmlns="http://www.w3.org/2000/svg">
  <defs/>
  <g>
    <path d="M 623.3883666992188 450.9441223144531 Q 687.3748779296875 444.762939453125 750.4654541015625 437.8256530761719 L 782.1259155273438 436.325439453125 Q 851.696533203125 434.7799987792969 927.3211059570312 440.91644287109375 Q 968.1300659179688 443.4593505859375 961.375244140625 417.8921813964844 Q 971.9020385742188 446.0846862792969 961.5114135742188 417.97235107421875 Q 954.3497314453125 400.165771484375 898.2788696289062 370.76885986328125 Q 868.28466796875 354.9070739746094 851.6329345703125 359.5027160644531 Q 812.8131713867188 369.86065673828125 770.9105224609375 379.44439697265625 L 726.2223510742188 389.15350341796875 Q 677.9656982421875 398.8282775878906 614.1121826171875 406.5035095214844 L 563.6416015625 414.0184631347656 Q 502.8822326660156 425.2677307128906 455.07415771484375 430.57659912109375 L 416.9430236816406 435.45098876953125 Q 369.47344970703125 442.0364685058594 321.7164611816406 449.580322265625 L 276.0367431640625 456.4280700683594 Q 199.2799072265625 470.7319641113281 90.41997528076172 475.22943115234375 Q 86.32952880859375 476.72137451171875 84.27941131591797 478.23187255859375 Q 71.20147705078125 491.36083984375 98.25057983398438 513.1928100585938 Q 148.76783752441406 544.2499389648438 169.4852294921875 537.8506469726562 Q 216.7559051513672 516.0184326171875 289.8662414550781 506.04345703125 L 322.6299743652344 498.8790588378906 Q 362.15155029296875 488.21343994140625 420.8727722167969 477.8460388183594 L 465.7082214355469 470.5816955566406 Q 512.2913818359375 465.2809143066406 571.0606079101562 457.9173583984375 L 623.3883666992188 450.9441223144531" fill="rgb(0, 0, 0)" opacity="0.998922" stroke-width="1.0"/>
  </g>
</svg>
