<?xml version="1.0" ?>
<svg height="1024" version="1.1" width="1024" xmlns="http://www.w3.org/2000/svg">
  <defs/>
  <g>
    <path d="M 542.8639526367188 618.1564331054688 Q 603.4700927734375 515.6763305664062 630.652099609375 401.088134765625 L 638.7562255859375 365.94195556640625 Q 645.7423095703125 330.5412292480469 654.75732421875 268.7745361328125 Q 663.2713012695312 217.1215362548828 677.0664672851562 177.95944213867188 Q 688.88720703125 155.36871337890625 685.3184204101562 148.60977172851562 Q 677.57080078125 133.6571807861328 637.5410766601562 110.36743927001953 Q 601.3585815429688 88.87394714355469 582.1560668945312 91.02445983886719 Q 546.7926025390625 96.16950988769531 571.9189453125 124.71015930175781 Q 598.9449462890625 160.34909057617188 595.9393920898438 193.2357635498047 Q 590.8270874023438 296.0081481933594 573.798583984375 377.1193542480469 L 565.2933349609375 411.779541015625 Q 542.8145751953125 510.87481689453125 485.08416748046875 601.34326171875 L 435.6543884277344 665.6534423828125 Q 366.4994812011719 728.7633056640625 300.2593994140625 784.6795043945312 Q 304.7652587890625 781.02978515625 340.7576599121094 750.0430908203125 Q 287.3918151855469 761.4187622070312 248.06417846679688 760.1582641601562 Q 304.5100402832031 763.3560791015625 444.9524841308594 725.4048461914062 Q 395.8294372558594 745.633056640625 481.5464172363281 684.298828125 L 542.8639526367188 618.1564331054688" fill="rgb(0, 0, 0)" opacity="0.9947151" stroke-width="1.0"/>
  </g>
</svg>
