<?xml version="1.0" ?>
<svg height="1024" version="1.1" width="1024" xmlns="http://www.w3.org/2000/svg">
  <defs/>
  <g>
    <path d="M 488.6961364746094 531.500244140625 Q 544.8468017578125 522.8906860351562 490.0592041015625 530.69091796875 Q 369.072265625 546.090087890625 293.82568359375 559.2469482421875 Q 207.32888793945312 575.5426635742188 126.35964965820312 581.533203125 Q 81.65381622314453 582.9551391601562 80.99613952636719 585.2390747070312 Q 63.74205780029297 602.4395141601562 106.72522735595703 629.4727172851562 Q 138.77516174316406 650.0549926757812 168.71229553222656 643.5952758789062 Q 177.02674865722656 641.0851440429688 199.5931854248047 632.38427734375 Q 229.77195739746094 620.853515625 290.28973388671875 605.7835693359375 Q 365.1653137207031 588.3783569335938 454.222900390625 576.2313232421875 L 532.720458984375 565.9650268554688 Q 729.5801391601562 533.4188232421875 912.7066650390625 547.4252319335938 Q 915.932861328125 547.7460327148438 916.0474853515625 547.556640625 Q 955.1773071289062 552.1277465820312 963.6207885742188 542.4735717773438 Q 972.7564086914062 525.94677734375 952.388916015625 511.166748046875 Q 914.4076538085938 480.03997802734375 868.9365844726562 465.63482666015625 Q 860.9385375976562 465.0726623535156 783.8078002929688 488.2276916503906 Q 757.9091186523438 493.59942626953125 554.4462890625 520.669921875 L 488.6961364746094 531.500244140625" fill="rgb(0, 0, 0)" opacity="0.9987867" stroke-width="1.0"/>
  </g>
</svg>
