<?xml version="1.0" ?>
<svg height="1024" version="1.1" width="1024" xmlns="http://www.w3.org/2000/svg">
  <defs/>
  <g>
    <path d="M 349.42120361328125 378.642822265625 Q 482.8040466308594 307.8121337890625 546.5413818359375 256.7072448730469 Q 601.3204956054688 214.36514282226562 655.3244018554688 188.5507049560547 Q 685.61083984375 179.61907958984375 671.7950439453125 159.9666748046875 Q 665.41357421875 146.0099639892578 615.4636840820312 136.4575958251953 Q 537.39111328125 118.5230712890625 533.4832153320312 136.1001739501953 Q 537.5191650390625 124.50178527832031 525.8259887695312 192.54554748535156 Q 493.76513671875 178.10499572753906 484.6212158203125 178.5263671875 C 442.8800964355469 173.46688842773438 440.5348815917969 175.35182189941406 450.62451171875 175.13314819335938 Q 459.9327392578125 175.65895080566406 491.2748107910156 179.23484802246094 Q 546.7667236328125 196.81324768066406 540.4509887695312 210.94058227539062 Q 552.927734375 156.0833282470703 525.776123046875 180.37911987304688 Q 470.27838134765625 257.58428955078125 321.1462097167969 375.4959716796875 Q 441.5758056640625 392.2364196777344 461.9250793457031 348.9386291503906 C 458.9728698730469 350.381103515625 453.7834777832031 387.8137512207031 349.42120361328125 378.642822265625" fill="rgb(0, 0, 0)" opacity="0.99501276" stroke-width="1.0"/>
  </g>
</svg>
