<?xml version="1.0" ?>
<svg height="1024" version="1.1" width="1024" xmlns="http://www.w3.org/2000/svg">
  <defs/>
  <g>
    <path d="M 455.2103271484375 586.6559448242188 Q 479.38818359375 544.6204223632812 493.9765625 495.7695617675781 L 502.0122375488281 469.71002197265625 Q 503.37451171875 462.2540588378906 502.38543701171875 467.7040710449219 Q 517.502197265625 415.3251037597656 525.1126098632812 364.4388732910156 L 533.6489868164062 324.6357116699219 Q 548.49169921875 270.9261169433594 533.3419799804688 309.92913818359375 Q 554.7546997070312 275.2253723144531 538.2216796875 259.2687683105469 Q 488.7629089355469 222.0491485595703 464.5952453613281 226.1031494140625 C 497.2383117675781 245.4776611328125 505.2779235839844 227.4087677001953 453.04473876953125 217.36587524414062 Q 430.88262939453125 250.39320373535156 443.8644714355469 231.052978515625 Q 440.2593688964844 224.5639190673828 429.755859375 216.05935668945312 Q 492.58758544921875 261.9041748046875 438.87860107421875 486.3193359375 Q 427.0828857421875 519.1336059570312 422.8775329589844 527.4615478515625 Q 382.0555725097656 618.205078125 288.77838134765625 685.5128173828125 Q 271.2093200683594 702.1834716796875 296.4669494628906 701.9853515625 Q 313.2227783203125 701.8821411132812 291.1678771972656 702.8198852539062 Q 347.4610900878906 703.87255859375 432.191162109375 617.5354614257812 Q 421.9123840332031 628.1806640625 440.1358337402344 607.504638671875 L 455.2103271484375 586.6559448242188" fill="rgb(0, 0, 0)" opacity="0.99687326" stroke-width="1.0"/>
  </g>
</svg>
