<?xml version='1.0' encoding='utf-8'?>
<svg xmlns="http://www.w3.org/2000/svg" version="1.1" viewBox="0 0 1024 1024"><g transform="scale(1, -1) translate(0, -900)"><path d="M 542 691 Q 554 678 554 577 Q 554 474 720 484 Q 735 485 743 486 Q 776 489 788 498 Q 798 506 794 514 Q 794 516 792 518 Q 782 530 752 545 Q 739 550 729 547 L 719 543 Q 698 527 666 527 Q 646 527 629 531 Q 621 533 613 538 Q 602 548 598 575 Q 596 606 604 631 Q 607 643 613 654 Q 619 670 607 684 L 596 692 L 588 697 C 563 713 530 718 542 691 Z" fill="black" /></g></svg>