<?xml version='1.0' encoding='utf-8'?>
<svg xmlns="http://www.w3.org/2000/svg" version="1.1" viewBox="0 0 1024 1024"><g transform="scale(1, -1) translate(0, -900)"><path d="M 217 705 L 289 727 Q 298 729 304 727 Q 326 723 325 672 Q 334 360 319 177 Q 318 149 310 137 Q 306 137 244 139 Q 243 140 242 140 Q 224 145 225 135 Q 242 122 255 108 Q 277 88 306 54 Q 318 40 330 36 Q 343 33 361 58 Q 387 96 386 147 Q 363 657 390 710 Q 402 729 390 741 Q 367 760 332 774 Q 312 782 269 757 Q 239 745 196 735 C 167 728 188 696 217 705 Z" fill="black" /></g></svg>