<?xml version='1.0' encoding='utf-8'?>
<svg xmlns="http://www.w3.org/2000/svg" version="1.1" viewBox="0 0 1024 1024"><g transform="scale(1, -1) translate(0, -900)"><path d="M 365 647 Q 358 678 361 711 L 361 725 Q 365 737 360 744 Q 358 747 353 751 Q 342 759 314 768 Q 294 771 274 760 Q 269 755 273 748 Q 277 743 280 741 Q 301 720 318 639 L 325 602 Q 336 518 343 495 Q 347 470 357 456 Q 361 450 367 451 Q 368 452 370 454 Q 376 460 376 480 L 376 514 Q 376 515 374 547 Q 372 588 368 612 L 365 647 Z" fill="black" /></g></svg>