<?xml version='1.0' encoding='utf-8'?>
<svg xmlns="http://www.w3.org/2000/svg" version="1.1" viewBox="0 0 1024 1024"><g transform="scale(1, -1) translate(0, -900)"><path d="M 355 583 L 569 615 Q 682 632 688 622 Q 702 604 696 550 Q 686 406 653 340 Q 641 319 628 314 Q 609 306 563 329 Q 557 331 552 331 Q 541 332 553 312 Q 598 261 618 223 Q 643 199 665 223 Q 717 264 739 349 Q 753 407 760 535 Q 762 596 782 628 Q 796 641 789 653 Q 779 665 723 688 Q 702 698 680 682 Q 674 678 661 674 Q 651 670 551 647 Q 488 631 321 610 L 291 607 C 261 604 278 578 308 580 L 355 583 Z" fill="black" /></g></svg>