<?xml version='1.0' encoding='utf-8'?>
<svg xmlns="http://www.w3.org/2000/svg" version="1.1" viewBox="0 0 1024 1024"><g transform="scale(1, -1) translate(0, -900)"><path d="M 598 517 Q 576 516 548 510 Q 521 501 539 523 Q 564 562 626 642 Q 645 667 661 683 Q 668 690 665 697 Q 658 710 634 722 Q 624 728 617 726 Q 610 723 612 712 Q 613 691 587 638 L 575 619 L 575 618 Q 506 513 485 503 Q 476 496 478 487 Q 479 477 497 464 Q 504 457 515 464 Q 548 488 603 505 C 632 514 628 519 598 517 Z" fill="black" /></g></svg>