<?xml version='1.0' encoding='utf-8'?>
<svg xmlns="http://www.w3.org/2000/svg" version="1.1" viewBox="0 0 1024 1024"><g transform="scale(1, -1) translate(0, -900)"><path d="M 614 319 Q 574 313 537 304 Q 527 300 525 304 Q 516 310 518 327 Q 519 438 527 470 Q 531 485 519 495 Q 497 514 467 521 Q 454 524 446 516 Q 442 509 453 494 Q 472 469 475 431 Q 485 335 457 284 Q 447 269 453 260 Q 460 242 478 230 Q 488 221 503 234 Q 578 285 756 285 Q 787 286 824 283 Q 846 279 854 285 Q 861 291 855 302 Q 851 314 814 334 Q 796 344 719 333 Q 713 336 659 326 L 614 319 Z" fill="black" /></g></svg>