<?xml version='1.0' encoding='utf-8'?>
<svg xmlns="http://www.w3.org/2000/svg" version="1.1" viewBox="0 0 1024 1024"><g transform="scale(1, -1) translate(0, -900)"><path d="M 360 337 L 288 341 Q 269 342 272 351 Q 274 355 277 357 Q 313 400 355 441 Q 367 453 367 460 Q 365 472 336 499 Q 325 512 312 510 L 310 510 Q 302 510 304 500 Q 312 474 287 433 Q 278 416 257 385 Q 246 367 223 353 Q 208 343 209 332 Q 210 316 221 301 Q 226 292 235 295 Q 276 318 345 318 C 375 318 390 335 360 337 Z" fill="black" /></g></svg>