<?xml version='1.0' encoding='utf-8'?>
<svg xmlns="http://www.w3.org/2000/svg" version="1.1" viewBox="0 0 1024 1024"><g transform="scale(1, -1) translate(0, -900)"><path d="M 409 241 Q 353 231 321 223 Q 307 219 308 225 Q 309 229 314 235 Q 405 347 455 385 Q 463 392 461 398 L 460 402 Q 453 417 425 435 Q 414 441 406 441 Q 398 440 398 425 Q 400 412 381 376 L 360 337 L 345 318 Q 266 221 250 216 Q 239 209 240 196 Q 241 186 261 170 Q 267 163 274 165 Q 277 165 282 169 Q 337 204 417 225 C 446 233 439 246 409 241 Z" fill="black" /></g></svg>