<?xml version='1.0' encoding='utf-8'?>
<svg xmlns="http://www.w3.org/2000/svg" version="1.1" viewBox="0 0 1024 1024"><g transform="scale(1, -1) translate(0, -900)"><path d="M 564 542 Q 578 522 592 515 Q 598 511 606 517 Q 610 520 615 527 Q 627 548 653 653 Q 662 682 682 705 Q 691 713 688 721 Q 687 725 684 729 Q 670 745 631 768 Q 619 774 592 769 Q 581 768 561 761 Q 551 761 361 723 C 332 717 338 684 367 692 L 368 692 Q 434 711 559 731 Q 574 733 586 731 Q 592 729 596 727 Q 607 717 604 706 L 604 702 Q 587 601 578 584 Q 574 575 563 570 C 550 560 550 560 564 542 Z" fill="black" /></g></svg>