<?xml version='1.0' encoding='utf-8'?>
<svg xmlns="http://www.w3.org/2000/svg" version="1.1" viewBox="0 0 1024 1024"><g transform="scale(1, -1) translate(0, -900)"><path d="M 589 199 Q 593 247 600 287 Q 602 300 599 306 Q 597 311 592 314 Q 581 326 557 335 Q 544 339 535 334 Q 529 331 531 322 Q 546 253 546 237 Q 544 126 547 99 Q 548 82 553 61 Q 558 38 580 20 Q 637 -27 757 -18 Q 780 -16 800 -12 Q 823 -7 836 -3 Q 872 9 911 37 Q 923 47 919 61 Q 919 63 916 69 Q 907 87 894 165 Q 894 177 888 182 Q 885 184 883 179 Q 882 179 879 171 Q 848 99 838 71 Q 823 55 790 45 Q 741 30 684 38 Q 652 43 635 50 Q 609 61 600 80 Q 583 115 587 166 L 588 180 L 589 199 Z" fill="black" /></g></svg>