<?xml version='1.0' encoding='utf-8'?>
<svg xmlns="http://www.w3.org/2000/svg" version="1.1" viewBox="0 0 1024 1024"><g transform="scale(1, -1) translate(0, -900)"><path d="M 515 369 Q 534 397 552 426 L 573 463 Q 588 490 595 498 Q 605 505 604 517 Q 600 527 592 536 C 574 560 559 556 550 528 Q 549 525 548 521 Q 547 517 516 451 L 496 413 Q 495 413 495 411 Q 438 320 348 257 Q 342 253 339 250 Q 335 243 343 242 Q 374 239 451 300 Q 452 303 456 304 Q 474 322 491 340 L 515 369 Z" fill="black" /></g></svg>