<?xml version='1.0' encoding='utf-8'?>
<svg xmlns="http://www.w3.org/2000/svg" version="1.1" viewBox="0 0 1024 1024"><g transform="scale(1, -1) translate(0, -900)"><path d="M 515 329 Q 523 329 533 334 Q 631 360 831 394 Q 851 396 860 386 Q 881 379 883 351 Q 889 276 873 143 Q 874 122 855 122 Q 827 125 805 128 Q 790 129 794 122 Q 795 112 821 92 Q 857 65 876 33 Q 889 24 902 29 Q 930 49 943 141 Q 945 172 945 176 Q 929 363 945 388 Q 955 400 947 411 Q 937 420 894 439 Q 876 447 860 437 Q 843 431 776 421 Q 732 415 694 406 L 655 398 Q 637 397 622 392 Q 549 380 502 368 C 473 361 486 321 515 329 Z" fill="black" /></g></svg>