<?xml version='1.0' encoding='utf-8'?>
<svg xmlns="http://www.w3.org/2000/svg" version="1.1" viewBox="0 0 1024 1024"><g transform="scale(1, -1) translate(0, -900)"><path d="M 378 274 Q 398 241 412 238 Q 422 235 433 250 Q 450 274 480 417 Q 486 437 496 451 L 512 469 Q 519 478 511 488 Q 498 504 460 527 Q 442 533 383 517 Q 343 513 314 502 L 278 494 Q 274 494 175 469 C 146 462 154 429 182 439 Q 182 441 267 463 L 297 469 Q 406 501 428 486 Q 441 476 437 455 Q 413 334 402 311 Q 396 294 384 291 C 373 282 373 282 378 274 Z" fill="black" /></g></svg>