<?xml version='1.0' encoding='utf-8'?>
<svg xmlns="http://www.w3.org/2000/svg" version="1.1" viewBox="0 0 1024 1024"><g transform="scale(1, -1) translate(0, -900)"><path d="M 464 633 Q 464 632 465 630 Q 467 610 479 610 Q 497 613 523 668 Q 539 711 569 733 Q 585 746 572 759 Q 561 771 519 796 Q 508 803 440 788 Q 432 788 195 739 C 166 733 179 704 208 710 Q 212 710 217 711 Q 250 722 274 727 L 275 727 L 291 731 Q 329 742 384 751 L 411 755 Q 477 770 495 760 Q 503 757 491 712 Q 477 663 466 647 C 462 640 462 640 464 633 Z" fill="black" /></g></svg>