<?xml version='1.0' encoding='utf-8'?>
<svg xmlns="http://www.w3.org/2000/svg" version="1.1" viewBox="0 0 1024 1024"><g transform="scale(1, -1) translate(0, -900)"><path d="M 509 230 Q 536 300 542 396 Q 546 460 552 521 L 556 574 Q 557 688 590 759 Q 597 775 586 788 Q 561 810 517 823 Q 489 830 478 824 Q 468 817 476 802 Q 501 759 503 706 Q 504 633 502 560 L 500 511 Q 488 340 467 270 L 450 228 Q 425 174 376 137 Q 306 82 154 34 Q 139 30 138 24 Q 138 20 151 17 Q 176 11 235 25 Q 337 44 409 100 Q 457 137 487 185 L 509 230 Z" fill="black" /></g></svg>