<?xml version='1.0' encoding='utf-8'?>
<svg xmlns="http://www.w3.org/2000/svg" version="1.1" viewBox="0 0 1024 1024"><g transform="scale(1, -1) translate(0, -900)"><path d="M 706 457 Q 787 470 929 459 Q 954 458 960 467 Q 967 480 954 493 Q 923 520 876 539 Q 861 545 835 536 Q 772 520 712 508 L 664 500 Q 583 490 530 480 L 485 473 Q 400 463 345 454 L 292 446 Q 288 446 284 445 Q 208 430 96 425 Q 81 425 80 413 Q 80 400 100 386 Q 118 373 151 362 Q 161 358 181 367 Q 223 385 296 395 L 346 407 Q 410 422 486 432 L 531 437 Q 645 452 661 453 L 706 457 Z" fill="black" /></g></svg>