<?xml version='1.0' encoding='utf-8'?>
<svg xmlns="http://www.w3.org/2000/svg" version="1.1" viewBox="0 0 1024 1024"><g transform="scale(1, -1) translate(0, -900)"><path d="M 345 454 Q 345 464 345 473 Q 341 582 344 604 Q 354 623 335 633 Q 292 652 272 652 Q 260 653 252 645 Q 243 638 258 623 Q 276 604 292 446 L 296 395 Q 314 260 292 129 Q 286 105 277 96 Q 246 66 294 34 Q 310 21 327 37 Q 378 103 731 103 Q 779 104 804 101 Q 849 97 850 118 Q 849 133 815 152 Q 781 171 762 169 Q 728 166 469 125 Q 370 106 362 116 Q 353 123 354 169 Q 355 193 352 249 Q 349 276 346 407 L 345 454 Z" fill="black" /></g></svg>