<?xml version='1.0' encoding='utf-8'?>
<svg xmlns="http://www.w3.org/2000/svg" version="1.1" viewBox="0 0 1024 1024"><g transform="scale(1, -1) translate(0, -900)"><path d="M 411 439 Q 411 438 414 435 Q 424 425 454 432 Q 509 448 514 441 Q 518 428 503 378 Q 490 323 438 247 Q 389 165 300 84 Q 279 69 298 72 Q 323 75 367 106 Q 413 137 460 201 Q 518 279 560 378 Q 579 426 594 441 Q 604 451 598 461 Q 594 471 542 488 Q 530 492 511 480 Q 483 465 418 449 C 401 445 401 445 411 439 Z" fill="black" /></g></svg>