<?xml version='1.0' encoding='utf-8'?>
<svg xmlns="http://www.w3.org/2000/svg" version="1.1" viewBox="0 0 1024 1024"><g transform="scale(1, -1) translate(0, -900)"><path d="M 634 344 Q 625 360 610 370 L 596 379 Q 589 383 579 387 Q 558 394 548 388 Q 535 381 549 368 Q 567 355 579 336 L 592 303 Q 593 302 594 297 Q 612 233 610 170 Q 610 106 593 68 Q 580 44 546 50 Q 507 60 472 70 Q 460 73 465 62 Q 471 53 492 40 Q 540 4 556 -25 Q 566 -43 582 -40 Q 595 -39 622 -13 Q 679 44 666 203 Q 660 267 647 309 L 634 344 Z" fill="black" /></g></svg>