<?xml version='1.0' encoding='utf-8'?>
<svg xmlns="http://www.w3.org/2000/svg" version="1.1" viewBox="0 0 1024 1024"><g transform="scale(1, -1) translate(0, -900)"><path d="M 415 353 Q 511 389 806 421 Q 819 422 825 416 Q 834 409 834 367 Q 841 190 819 90 Q 812 56 782 59 Q 743 68 708 75 Q 695 79 694 73 Q 693 66 704 55 Q 782 -5 803 -36 Q 813 -52 824 -49 Q 839 -46 851 -19 Q 887 44 894 242 Q 894 380 908 409 Q 924 431 911 435 Q 895 450 859 465 Q 837 478 812 468 Q 785 459 718 449 Q 663 442 618 433 L 574 424 Q 537 418 506 410 Q 454 397 401 385 C 372 378 386 344 415 353 Z" fill="black" /></g></svg>