<?xml version='1.0' encoding='utf-8'?>
<svg xmlns="http://www.w3.org/2000/svg" version="1.1" viewBox="0 0 1024 1024"><g transform="scale(1, -1) translate(0, -900)"><path d="M 276 371 Q 271 349 259 319 Q 206 197 71 50 Q 55 41 57 32 Q 57 28 61 27 Q 147 43 283 257 Q 286 267 312 303 L 324 329 L 325 333 Q 336 360 336 385 L 341 426 Q 347 453 368 590 Q 372 618 381 636 Q 384 641 380 651 Q 368 662 330 676 C 302 687 271 696 281 668 Q 282 663 286 659 Q 294 627 287 528 L 277 414 L 276 371 Z" fill="black" /></g></svg>