<?xml version='1.0' encoding='utf-8'?>
<svg xmlns="http://www.w3.org/2000/svg" version="1.1" viewBox="0 0 1024 1024"><g transform="scale(1, -1) translate(0, -900)"><path d="M 918 50 Q 899 101 888 188 Q 885 204 878 210 Q 869 216 865 194 Q 849 86 833 67 Q 809 36 694 31 Q 633 32 606 41 Q 582 53 577 68 Q 556 131 583 234 Q 587 259 596 275 Q 612 317 561 346 C 537 363 503 368 513 340 Q 532 298 527 240 Q 517 65 542 31 Q 549 22 560 13 Q 609 -26 787 -19 Q 868 -16 900 1 Q 931 17 918 50 Z" fill="black" /></g></svg>