<?xml version='1.0' encoding='utf-8'?>
<svg xmlns="http://www.w3.org/2000/svg" version="1.1" viewBox="0 0 1024 1024"><g transform="scale(1, -1) translate(0, -900)"><path d="M 767 411 Q 770 492 790 515 Q 809 537 796 550 Q 774 571 738 584 Q 722 591 638 568 Q 572 555 515 549 C 485 545 495 517 525 519 Q 526 520 530 519 Q 552 518 672 546 Q 694 550 708 541 Q 723 531 719 484 Q 716 442 713 403 L 710 364 Q 701 273 689 211 L 680 170 Q 664 95 650 69 Q 640 51 617 58 Q 560 67 563 70 Q 533 77 557 52 Q 588 21 611 -14 Q 633 -42 651 -31 Q 718 9 742 144 Q 742 153 745 160 L 751 207 Q 754 240 763 366 L 767 411 Z" fill="black" /></g></svg>