<?xml version='1.0' encoding='utf-8'?>
<svg xmlns="http://www.w3.org/2000/svg" version="1.1" viewBox="0 0 1024 1024"><g transform="scale(1, -1) translate(0, -900)"><path d="M 452 521 Q 506 630 525 656 Q 535 668 528 679 Q 522 686 495 698 C 468 711 430 720 437 691 Q 449 651 441 618 Q 413 507 348 390 Q 329 354 282 318 Q 269 305 273 295 Q 280 279 306 261 Q 318 251 330 263 Q 376 294 575 327 C 605 332 611 354 581 353 Q 580 354 578 353 Q 485 350 383 338 Q 373 335 370 339 Q 366 343 373 361 Q 410 439 440 496 L 452 521 Z" fill="black" /></g></svg>