<?xml version='1.0' encoding='utf-8'?>
<svg xmlns="http://www.w3.org/2000/svg" version="1.1" viewBox="0 0 1024 1024"><g transform="scale(1, -1) translate(0, -900)"><path d="M 459 317 Q 459 245 365 151 Q 337 120 282 95 Q 251 83 250 72 Q 247 53 258 29 Q 268 7 282 0 Q 291 -4 304 2 Q 391 50 649 105 Q 671 109 691 111 C 721 115 705 139 675 135 Q 539 119 397 101 Q 385 98 383 102 Q 380 106 389 114 Q 503 249 545 282 Q 563 297 553 309 Q 546 318 528 325 C 502 339 462 347 459 317 Z" fill="black" /></g></svg>