<?xml version='1.0' encoding='utf-8'?>
<svg xmlns="http://www.w3.org/2000/svg" version="1.1" viewBox="0 0 1024 1024"><g transform="scale(1, -1) translate(0, -900)"><path d="M 380 651 Q 387 651 395 656 Q 449 675 584 698 Q 596 699 604 693 Q 614 689 613 672 Q 610 633 593 565 Q 589 538 563 543 Q 535 544 513 548 Q 500 549 503 541 Q 504 532 531 515 Q 559 490 576 462 Q 583 453 593 456 Q 600 457 615 479 Q 630 500 646 560 Q 659 668 677 684 Q 687 694 681 705 Q 672 715 636 735 Q 623 741 564 726 Q 548 726 378 686 C 349 679 352 641 380 651 Z" fill="black" /></g></svg>