<?xml version="1.0" standalone="no"?>
<!DOCTYPE svg PUBLIC "-//W3C//DTD SVG 20010904//EN"
 "http://www.w3.org/TR/2001/REC-SVG-20010904/DTD/svg10.dtd">
<svg version="1.0" xmlns="http://www.w3.org/2000/svg"
 width="73728.000000pt" height="73728.000000pt" viewBox="0 0 73728.000000 73728.000000"
 preserveAspectRatio="xMidYMid meet">
<metadata>
Created by potrace 1.14, written by Peter Selinger 2001-2017
</metadata>
<g transform="translate(0.000000,73728.000000) scale(7.200000,-7.200000)"
fill="#000000" stroke="none">
<path d="M3250 8390 c-29 -29 -26 -92 8 -165 24 -49 40 -68 91 -103 34 -24
312 -169 619 -322 702 -351 1154 -593 1715 -917 108 -63 233 -130 276 -149 95
-41 195 -68 225 -60 43 11 79 50 114 125 62 134 45 247 -69 471 -82 161 -147
256 -227 332 -342 323 -1176 589 -2419 772 -283 42 -306 43 -333 16z"/>
</g>
</svg>
