<?xml version="1.0" standalone="no"?>
<!DOCTYPE svg PUBLIC "-//W3C//DTD SVG 20010904//EN"
 "http://www.w3.org/TR/2001/REC-SVG-20010904/DTD/svg10.dtd">
<svg version="1.0" xmlns="http://www.w3.org/2000/svg"
 width="73728.000000pt" height="73728.000000pt" viewBox="0 0 73728.000000 73728.000000"
 preserveAspectRatio="xMidYMid meet">
<metadata>
Created by potrace 1.14, written by Peter Selinger 2001-2017
</metadata>
<g transform="translate(0.000000,73728.000000) scale(7.200000,-7.200000)"
fill="#000000" stroke="none">
<path d="M7300 6074 c-229 -29 -588 -114 -945 -224 -55 -17 -325 -76 -599
-130 -539 -107 -579 -119 -636 -188 -75 -91 -55 -199 47 -254 147 -80 628 -69
1253 28 351 54 1227 249 1415 314 68 23 99 49 127 104 56 110 -63 222 -337
317 -73 25 -109 32 -190 34 -55 2 -116 1 -135 -1z"/>
</g>
</svg>
