<?xml version="1.0" standalone="no"?>
<!DOCTYPE svg PUBLIC "-//W3C//DTD SVG 20010904//EN"
 "http://www.w3.org/TR/2001/REC-SVG-20010904/DTD/svg10.dtd">
<svg version="1.0" xmlns="http://www.w3.org/2000/svg"
 width="1024.000000pt" height="1024.000000pt" viewBox="0 0 1024.000000 1024.000000"
 preserveAspectRatio="xMidYMid meet">
<metadata>
Created by potrace 1.14, written by Peter Selinger 2001-2017
</metadata>
<g transform="translate(0.000000,1024.000000) scale(0.100000,-0.100000)"
fill="#000000" stroke="none">
<path d="M6841 9503 c-70 -37 -76 -55 -76 -241 0 -149 -3 -174 -23 -227 -59
-158 -411 -681 -766 -1140 -71 -92 -118 -162 -122 -182 -9 -48 22 -97 64 -101
68 -7 128 25 265 142 588 498 1192 962 1372 1054 46 23 90 67 99 99 28 93
-201 384 -391 497 -156 92 -350 138 -422 99z"/>
</g>
</svg>
