<?xml version="1.0" standalone="no"?>
<!DOCTYPE svg PUBLIC "-//W3C//DTD SVG 20010904//EN"
 "http://www.w3.org/TR/2001/REC-SVG-20010904/DTD/svg10.dtd">
<svg version="1.0" xmlns="http://www.w3.org/2000/svg"
 width="73728.000000pt" height="73728.000000pt" viewBox="0 0 73728.000000 73728.000000"
 preserveAspectRatio="xMidYMid meet">
<metadata>
Created by potrace 1.14, written by Peter Selinger 2001-2017
</metadata>
<g transform="translate(0.000000,73728.000000) scale(7.200000,-7.200000)"
fill="#000000" stroke="none">
<path d="M4431 9149 c-10 -17 -24 -50 -31 -74 -10 -37 -9 -48 7 -86 26 -58
596 -924 636 -967 76 -81 171 -95 253 -39 38 26 54 46 71 88 44 111 58 329 26
411 -43 114 -169 256 -333 379 -176 132 -396 261 -507 298 -84 28 -100 27
-122 -10z"/>
</g>
</svg>
