<?xml version="1.0" standalone="no"?>
<!DOCTYPE svg PUBLIC "-//W3C//DTD SVG 20010904//EN"
 "http://www.w3.org/TR/2001/REC-SVG-20010904/DTD/svg10.dtd">
<svg version="1.0" xmlns="http://www.w3.org/2000/svg"
 width="1024.000000pt" height="1024.000000pt" viewBox="0 0 1024.000000 1024.000000"
 preserveAspectRatio="xMidYMid meet">
<metadata>
Created by potrace 1.14, written by Peter Selinger 2001-2017
</metadata>
<g transform="translate(0.000000,1024.000000) scale(0.100000,-0.100000)"
fill="#000000" stroke="none">
<path d="M4440 9604 c-25 -9 -60 -27 -78 -41 -109 -82 -95 -169 69 -424 123
-191 197 -358 218 -490 16 -95 29 -387 42 -887 11 -409 10 -537 -15 -1511 -15
-585 -31 -1098 -36 -1140 -13 -108 -36 -398 -60 -744 -27 -393 -47 -536 -120
-844 -49 -206 -70 -571 -70 -1228 0 -648 18 -873 90 -1117 71 -243 147 -403
257 -541 196 -245 324 -181 387 193 54 328 71 749 57 1434 l-12 531 60 1220
c33 671 62 1310 66 1420 47 1538 165 3007 285 3543 26 121 12 168 -77 254
-130 125 -409 265 -666 333 -211 56 -317 66 -397 39z"/>
</g>
</svg>
