<?xml version="1.0" standalone="no"?>
<!DOCTYPE svg PUBLIC "-//W3C//DTD SVG 20010904//EN"
 "http://www.w3.org/TR/2001/REC-SVG-20010904/DTD/svg10.dtd">
<svg version="1.0" xmlns="http://www.w3.org/2000/svg"
 width="73728.000000pt" height="73728.000000pt" viewBox="0 0 73728.000000 73728.000000"
 preserveAspectRatio="xMidYMid meet">
<metadata>
Created by potrace 1.14, written by Peter Selinger 2001-2017
</metadata>
<g transform="translate(0.000000,73728.000000) scale(7.200000,-7.200000)"
fill="#000000" stroke="none">
<path d="M7772 8255 c-42 -35 -59 -85 -77 -227 -29 -220 -39 -249 -143 -395
-228 -321 -600 -764 -974 -1159 -60 -63 -100 -114 -108 -138 -13 -39 -8 -90
11 -113 14 -17 92 -16 140 1 19 7 121 75 225 152 291 216 332 246 538 392 502
356 896 613 1081 705 139 68 159 102 125 202 -42 122 -128 243 -264 372 -121
115 -230 180 -364 214 -105 27 -153 25 -190 -6z"/>
</g>
</svg>
