<?xml version="1.0" standalone="no"?>
<!DOCTYPE svg PUBLIC "-//W3C//DTD SVG 20010904//EN"
 "http://www.w3.org/TR/2001/REC-SVG-20010904/DTD/svg10.dtd">
<svg version="1.0" xmlns="http://www.w3.org/2000/svg"
 width="1024.000000pt" height="1024.000000pt" viewBox="0 0 1024.000000 1024.000000"
 preserveAspectRatio="xMidYMid meet">
<metadata>
Created by potrace 1.14, written by Peter Selinger 2001-2017
</metadata>
<g transform="translate(0.000000,1024.000000) scale(0.100000,-0.100000)"
fill="#000000" stroke="none">
<path d="M6365 8368 c-27 -5 -275 -65 -550 -133 -643 -159 -1159 -283 -1405
-335 -212 -46 -260 -61 -260 -84 0 -22 140 -113 207 -133 48 -15 92 -18 248
-17 249 1 390 17 1015 119 94 16 210 28 270 29 103 1 105 1 117 -25 30 -61
-11 -144 -392 -809 -175 -305 -606 -1042 -643 -1098 -15 -23 -15 -23 19 -18
19 3 87 15 152 25 64 11 121 23 127 26 14 8 748 839 848 959 284 342 610 657
904 875 54 40 105 85 113 101 19 37 19 83 1 119 -37 71 -215 203 -457 340
-124 70 -128 71 -195 70 -38 -1 -91 -5 -119 -11z"/>
</g>
</svg>
