<?xml version="1.0" standalone="no"?>
<!DOCTYPE svg PUBLIC "-//W3C//DTD SVG 20010904//EN"
 "http://www.w3.org/TR/2001/REC-SVG-20010904/DTD/svg10.dtd">
<svg version="1.0" xmlns="http://www.w3.org/2000/svg"
 width="1024.000000pt" height="1024.000000pt" viewBox="0 0 1024.000000 1024.000000"
 preserveAspectRatio="xMidYMid meet">
<metadata>
Created by potrace 1.14, written by Peter Selinger 2001-2017
</metadata>
<g transform="translate(0.000000,1024.000000) scale(0.100000,-0.100000)"
fill="#000000" stroke="none">
<path d="M6350 3968 c-37 -60 -18 -188 37 -261 16 -20 84 -104 153 -188 236
-286 496 -638 769 -1039 117 -172 176 -241 250 -292 55 -39 100 -35 176 15 65
44 91 93 107 205 13 90 -1 314 -26 408 -83 317 -484 667 -1255 1098 -85 47
-162 86 -173 86 -10 0 -27 -15 -38 -32z"/>
</g>
</svg>
