<?xml version="1.0" standalone="no"?>
<!DOCTYPE svg PUBLIC "-//W3C//DTD SVG 20010904//EN"
 "http://www.w3.org/TR/2001/REC-SVG-20010904/DTD/svg10.dtd">
<svg version="1.0" xmlns="http://www.w3.org/2000/svg"
 width="73728.000000pt" height="73728.000000pt" viewBox="0 0 73728.000000 73728.000000"
 preserveAspectRatio="xMidYMid meet">
<metadata>
Created by potrace 1.14, written by Peter Selinger 2001-2017
</metadata>
<g transform="translate(0.000000,73728.000000) scale(7.200000,-7.200000)"
fill="#000000" stroke="none">
<path d="M4100 8005 c-8 -10 -16 -65 -21 -153 -17 -273 -84 -517 -219 -790
-204 -416 -492 -800 -942 -1258 -192 -195 -218 -229 -218 -280 0 -32 24 -32
121 1 171 58 371 175 569 333 137 108 494 470 649 657 137 165 355 451 431
565 24 36 71 100 104 143 113 144 126 166 126 210 0 74 -133 291 -250 407 -65
65 -89 81 -180 122 -132 59 -153 64 -170 43z"/>
</g>
</svg>
