<?xml version="1.0" standalone="no"?>
<!DOCTYPE svg PUBLIC "-//W3C//DTD SVG 20010904//EN"
 "http://www.w3.org/TR/2001/REC-SVG-20010904/DTD/svg10.dtd">
<svg version="1.0" xmlns="http://www.w3.org/2000/svg"
 width="1024.000000pt" height="1024.000000pt" viewBox="0 0 1024.000000 1024.000000"
 preserveAspectRatio="xMidYMid meet">
<metadata>
Created by potrace 1.14, written by Peter Selinger 2001-2017
</metadata>
<g transform="translate(0.000000,1024.000000) scale(0.100000,-0.100000)"
fill="#000000" stroke="none">
<path d="M7665 8803 c-22 -2 -303 -44 -625 -93 -322 -49 -1134 -173 -1805
-275 -1129 -172 -2057 -321 -2165 -347 -70 -17 -133 -52 -173 -97 -31 -35 -37
-48 -37 -87 0 -40 5 -51 38 -84 30 -30 58 -44 149 -74 176 -56 293 -51 547 28
172 53 409 111 576 141 80 15 188 40 240 56 210 64 476 111 1085 189 215 28
480 68 590 90 603 118 1128 180 1405 166 161 -8 195 -18 247 -71 71 -70 67
-89 -75 -368 -119 -233 -316 -602 -357 -667 -56 -90 -53 -141 10 -159 63 -17
152 24 369 171 356 242 693 407 1031 508 170 50 291 106 334 155 35 40 37 54
17 93 -52 100 -680 612 -826 673 -94 40 -228 59 -395 57 -77 -1 -158 -3 -180
-5z"/>
</g>
</svg>
