<?xml version="1.0" standalone="no"?>
<!DOCTYPE svg PUBLIC "-//W3C//DTD SVG 20010904//EN"
 "http://www.w3.org/TR/2001/REC-SVG-20010904/DTD/svg10.dtd">
<svg version="1.0" xmlns="http://www.w3.org/2000/svg"
 width="73728.000000pt" height="73728.000000pt" viewBox="0 0 73728.000000 73728.000000"
 preserveAspectRatio="xMidYMid meet">
<metadata>
Created by potrace 1.14, written by Peter Selinger 2001-2017
</metadata>
<g transform="translate(0.000000,73728.000000) scale(7.200000,-7.200000)"
fill="#000000" stroke="none">
<path d="M8010 8424 c-152 -28 -215 -45 -405 -109 -382 -128 -672 -197 -1100
-264 -104 -17 -215 -37 -244 -47 -69 -20 -126 -73 -116 -106 10 -37 74 -87
170 -133 276 -133 590 -166 920 -95 170 36 890 198 1040 235 381 91 432 118
443 226 12 124 -118 214 -389 269 -100 21 -269 33 -319 24z"/>
</g>
</svg>
