<?xml version="1.0" standalone="no"?>
<!DOCTYPE svg PUBLIC "-//W3C//DTD SVG 20010904//EN"
 "http://www.w3.org/TR/2001/REC-SVG-20010904/DTD/svg10.dtd">
<svg version="1.0" xmlns="http://www.w3.org/2000/svg"
 width="73728.000000pt" height="73728.000000pt" viewBox="0 0 73728.000000 73728.000000"
 preserveAspectRatio="xMidYMid meet">
<metadata>
Created by potrace 1.14, written by Peter Selinger 2001-2017
</metadata>
<g transform="translate(0.000000,73728.000000) scale(7.200000,-7.200000)"
fill="#000000" stroke="none">
<path d="M2709 8567 c-13 -7 -35 -34 -49 -62 -21 -43 -25 -65 -26 -170 -3
-173 -30 -276 -115 -447 -76 -152 -180 -297 -358 -498 -48 -55 -96 -121 -112
-156 -70 -146 -41 -357 88 -649 68 -154 152 -228 234 -205 51 15 114 57 143
95 61 80 199 405 421 995 134 356 195 535 195 575 -1 80 -98 275 -188 376 -57
64 -132 126 -174 143 -27 12 -39 12 -59 3z"/>
</g>
</svg>
