<?xml version="1.0" standalone="no"?>
<!DOCTYPE svg PUBLIC "-//W3C//DTD SVG 20010904//EN"
 "http://www.w3.org/TR/2001/REC-SVG-20010904/DTD/svg10.dtd">
<svg version="1.0" xmlns="http://www.w3.org/2000/svg"
 width="1024.000000pt" height="1024.000000pt" viewBox="0 0 1024.000000 1024.000000"
 preserveAspectRatio="xMidYMid meet">
<metadata>
Created by potrace 1.14, written by Peter Selinger 2001-2017
</metadata>
<g transform="translate(0.000000,1024.000000) scale(0.100000,-0.100000)"
fill="#000000" stroke="none">
<path d="M2435 5154 c-90 -10 -264 -47 -372 -80 -174 -53 -268 -106 -313 -179
-55 -89 -43 -152 37 -187 42 -19 59 -20 163 -15 128 7 292 23 670 67 344 40
391 52 427 106 16 25 16 28 -7 71 -43 82 -167 164 -297 198 -59 16 -236 26
-308 19z"/>
</g>
</svg>
