<?xml version="1.0" standalone="no"?>
<!DOCTYPE svg PUBLIC "-//W3C//DTD SVG 20010904//EN"
 "http://www.w3.org/TR/2001/REC-SVG-20010904/DTD/svg10.dtd">
<svg version="1.0" xmlns="http://www.w3.org/2000/svg"
 width="73728.000000pt" height="73728.000000pt" viewBox="0 0 73728.000000 73728.000000"
 preserveAspectRatio="xMidYMid meet">
<metadata>
Created by potrace 1.14, written by Peter Selinger 2001-2017
</metadata>
<g transform="translate(0.000000,73728.000000) scale(7.200000,-7.200000)"
fill="#000000" stroke="none">
<path d="M1858 7930 c-53 -41 -62 -133 -19 -191 39 -53 89 -163 115 -254 62
-218 81 -452 72 -910 -17 -969 -104 -1749 -267 -2389 -111 -434 -406 -1124
-836 -1957 -95 -185 -173 -346 -173 -358 0 -69 57 -80 151 -30 121 65 272 232
458 509 346 513 544 913 720 1458 55 169 118 372 140 452 45 164 212 994 235
1170 28 207 60 631 101 1330 21 345 33 490 50 585 29 163 36 252 23 284 -33
76 -327 239 -548 302 -89 26 -189 25 -222 -1z"/>
</g>
</svg>
