<?xml version="1.0" standalone="no"?>
<!DOCTYPE svg PUBLIC "-//W3C//DTD SVG 20010904//EN"
 "http://www.w3.org/TR/2001/REC-SVG-20010904/DTD/svg10.dtd">
<svg version="1.0" xmlns="http://www.w3.org/2000/svg"
 width="73728.000000pt" height="73728.000000pt" viewBox="0 0 73728.000000 73728.000000"
 preserveAspectRatio="xMidYMid meet">
<metadata>
Created by potrace 1.14, written by Peter Selinger 2001-2017
</metadata>
<g transform="translate(0.000000,73728.000000) scale(7.200000,-7.200000)"
fill="#000000" stroke="none">
<path d="M4315 8119 c-344 -62 -1416 -309 -1581 -364 -118 -40 -235 -97 -272
-134 -65 -66 -90 -160 -60 -226 25 -56 113 -72 185 -32 23 12 64 34 90 49 108
59 494 164 963 262 431 90 455 91 522 16 100 -111 107 -188 49 -510 -114 -634
-218 -1064 -308 -1270 -11 -25 -36 -66 -55 -91 -57 -74 -118 -181 -118 -206 0
-32 96 -161 184 -248 90 -88 163 -130 213 -120 48 9 136 97 168 168 78 177
198 648 359 1407 74 352 133 497 264 656 113 138 121 162 76 252 -41 82 -186
198 -434 345 -104 62 -130 67 -245 46z"/>
</g>
</svg>
