<?xml version="1.0" standalone="no"?>
<!DOCTYPE svg PUBLIC "-//W3C//DTD SVG 20010904//EN"
 "http://www.w3.org/TR/2001/REC-SVG-20010904/DTD/svg10.dtd">
<svg version="1.0" xmlns="http://www.w3.org/2000/svg"
 width="73728.000000pt" height="73728.000000pt" viewBox="0 0 73728.000000 73728.000000"
 preserveAspectRatio="xMidYMid meet">
<metadata>
Created by potrace 1.14, written by Peter Selinger 2001-2017
</metadata>
<g transform="translate(0.000000,73728.000000) scale(7.200000,-7.200000)"
fill="#000000" stroke="none">
<path d="M7850 5861 c-50 -16 -95 -45 -183 -116 -152 -122 -382 -256 -645
-375 -63 -28 -131 -62 -152 -75 -45 -28 -442 -192 -705 -290 -99 -38 -261
-101 -360 -143 -99 -41 -308 -118 -465 -172 -295 -101 -975 -313 -1045 -326
-45 -8 -95 -52 -95 -83 0 -27 48 -62 151 -110 276 -130 446 -140 636 -39 42
22 148 74 237 115 88 41 276 130 416 198 140 68 365 171 500 228 135 58 394
171 575 252 718 320 856 377 920 382 114 10 175 -41 175 -146 0 -73 -24 -232
-67 -436 -56 -273 -191 -832 -209 -868 -44 -86 -100 -127 -172 -127 -23 0
-141 34 -278 80 -296 99 -363 104 -329 24 19 -45 172 -202 379 -387 99 -89
218 -197 263 -239 96 -89 145 -118 204 -118 82 0 140 53 261 240 108 166 187
349 242 562 19 73 65 295 101 493 90 496 90 494 131 593 61 147 147 282 288
446 67 79 75 142 28 206 -43 58 -190 118 -442 182 -195 49 -313 65 -360 49z"/>
</g>
</svg>
