<?xml version="1.0" standalone="no"?>
<!DOCTYPE svg PUBLIC "-//W3C//DTD SVG 20010904//EN"
 "http://www.w3.org/TR/2001/REC-SVG-20010904/DTD/svg10.dtd">
<svg version="1.0" xmlns="http://www.w3.org/2000/svg"
 width="1024.000000pt" height="1024.000000pt" viewBox="0 0 1024.000000 1024.000000"
 preserveAspectRatio="xMidYMid meet">
<metadata>
Created by potrace 1.14, written by Peter Selinger 2001-2017
</metadata>
<g transform="translate(0.000000,1024.000000) scale(0.100000,-0.100000)"
fill="#000000" stroke="none">
<path d="M5047 5770 c-40 -31 -60 -76 -54 -120 2 -20 21 -77 41 -126 102 -256
114 -452 65 -1064 -20 -249 -23 -358 -23 -855 -1 -622 4 -704 54 -899 70 -276
225 -518 410 -641 89 -59 269 -145 398 -189 455 -157 1227 -246 2132 -246 691
0 1148 64 1436 199 219 104 266 203 210 437 -75 316 -116 655 -136 1127 -12
282 -26 360 -70 407 -34 36 -50 37 -78 7 -29 -31 -46 -82 -77 -238 -66 -331
-165 -716 -226 -881 -76 -207 -135 -276 -303 -358 -249 -121 -589 -181 -1135
-200 -547 -19 -1033 25 -1446 130 -272 70 -402 136 -546 279 -89 88 -116 137
-163 293 -127 420 -110 952 55 1768 36 174 60 269 85 330 92 221 107 285 84
378 -19 81 -56 127 -180 221 -288 220 -461 298 -533 241z"/>
</g>
</svg>
