<?xml version="1.0" standalone="no"?>
<!DOCTYPE svg PUBLIC "-//W3C//DTD SVG 20010904//EN"
 "http://www.w3.org/TR/2001/REC-SVG-20010904/DTD/svg10.dtd">
<svg version="1.0" xmlns="http://www.w3.org/2000/svg"
 width="1024.000000pt" height="1024.000000pt" viewBox="0 0 1024.000000 1024.000000"
 preserveAspectRatio="xMidYMid meet">
<metadata>
Created by potrace 1.14, written by Peter Selinger 2001-2017
</metadata>
<g transform="translate(0.000000,1024.000000) scale(0.100000,-0.100000)"
fill="#000000" stroke="none">
<path d="M5090 5869 c-147 -14 -325 -49 -665 -129 -115 -27 -304 -68 -420 -90
-115 -22 -379 -79 -585 -125 -206 -46 -517 -114 -690 -150 -424 -89 -834 -190
-877 -216 -151 -94 -47 -292 152 -291 41 1 102 14 190 41 471 145 1244 321
2140 488 241 44 422 51 512 20 104 -36 211 -200 220 -335 5 -69 -17 -252 -83
-697 -93 -629 -191 -1063 -269 -1190 -48 -78 -147 -291 -152 -325 -4 -32 2
-44 76 -132 94 -113 191 -197 278 -240 57 -28 64 -29 100 -18 24 8 63 38 104
80 56 56 72 81 98 150 93 240 197 719 336 1545 36 215 74 410 88 450 50 146
136 294 252 435 34 41 67 85 74 97 15 30 14 108 -3 142 -22 41 -141 149 -252
229 -114 80 -361 238 -396 251 -39 15 -139 19 -228 10z"/>
</g>
</svg>
