<?xml version="1.0" standalone="no"?>
<!DOCTYPE svg PUBLIC "-//W3C//DTD SVG 20010904//EN"
 "http://www.w3.org/TR/2001/REC-SVG-20010904/DTD/svg10.dtd">
<svg version="1.0" xmlns="http://www.w3.org/2000/svg"
 width="1024.000000pt" height="1024.000000pt" viewBox="0 0 1024.000000 1024.000000"
 preserveAspectRatio="xMidYMid meet">
<metadata>
Created by potrace 1.14, written by Peter Selinger 2001-2017
</metadata>
<g transform="translate(0.000000,1024.000000) scale(0.100000,-0.100000)"
fill="#000000" stroke="none">
<path d="M4485 3143 c-82 -10 -202 -33 -695 -133 -1071 -218 -1443 -299 -1513
-329 -84 -37 -120 -97 -79 -134 39 -36 96 -50 217 -54 112 -4 146 0 510 61
522 87 832 136 1310 206 432 63 490 77 557 138 92 83 91 164 -2 212 -61 31
-199 46 -305 33z"/>
</g>
</svg>
