<?xml version="1.0" standalone="no"?>
<!DOCTYPE svg PUBLIC "-//W3C//DTD SVG 20010904//EN"
 "http://www.w3.org/TR/2001/REC-SVG-20010904/DTD/svg10.dtd">
<svg version="1.0" xmlns="http://www.w3.org/2000/svg"
 width="1024.000000pt" height="1024.000000pt" viewBox="0 0 1024.000000 1024.000000"
 preserveAspectRatio="xMidYMid meet">
<metadata>
Created by potrace 1.14, written by Peter Selinger 2001-2017
</metadata>
<g transform="translate(0.000000,1024.000000) scale(0.100000,-0.100000)"
fill="#000000" stroke="none">
<path d="M5685 4403 c-87 -31 -105 -102 -60 -240 63 -191 88 -340 106 -618 17
-273 -4 -744 -51 -1165 -31 -277 -26 -338 46 -490 38 -80 134 -214 166 -231
71 -38 163 58 233 245 59 156 59 153 60 761 2 616 15 845 70 1219 34 226 19
263 -147 368 -253 160 -325 185 -423 151z"/>
</g>
</svg>
