<?xml version="1.0" standalone="no"?>
<!DOCTYPE svg PUBLIC "-//W3C//DTD SVG 20010904//EN"
 "http://www.w3.org/TR/2001/REC-SVG-20010904/DTD/svg10.dtd">
<svg version="1.0" xmlns="http://www.w3.org/2000/svg"
 width="1024.000000pt" height="1024.000000pt" viewBox="0 0 1024.000000 1024.000000"
 preserveAspectRatio="xMidYMid meet">
<metadata>
Created by potrace 1.14, written by Peter Selinger 2001-2017
</metadata>
<g transform="translate(0.000000,1024.000000) scale(0.100000,-0.100000)"
fill="#000000" stroke="none">
<path d="M1437 5302 c-28 -12 -57 -64 -57 -105 0 -22 22 -94 54 -175 188 -477
326 -1045 425 -1743 17 -118 35 -271 41 -340 25 -284 86 -450 238 -641 94
-118 165 -138 204 -58 33 69 58 229 58 377 0 182 -15 306 -110 927 -96 634
-141 942 -180 1253 -17 131 -35 254 -40 274 -23 84 -157 147 -445 209 -147 31
-159 33 -188 22z"/>
</g>
</svg>
