<?xml version="1.0" standalone="no"?>
<!DOCTYPE svg PUBLIC "-//W3C//DTD SVG 20010904//EN"
 "http://www.w3.org/TR/2001/REC-SVG-20010904/DTD/svg10.dtd">
<svg version="1.0" xmlns="http://www.w3.org/2000/svg"
 width="1024.000000pt" height="1024.000000pt" viewBox="0 0 1024.000000 1024.000000"
 preserveAspectRatio="xMidYMid meet">
<metadata>
Created by potrace 1.14, written by Peter Selinger 2001-2017
</metadata>
<g transform="translate(0.000000,1024.000000) scale(0.100000,-0.100000)"
fill="#000000" stroke="none">
<path d="M5425 9281 c-43 -19 -60 -66 -49 -139 5 -37 17 -57 55 -97 55 -58 88
-82 414 -298 127 -84 313 -213 415 -288 198 -146 234 -168 319 -193 125 -37
198 -13 246 79 25 49 29 68 28 129 -2 126 -77 345 -148 432 -126 153 -419 269
-900 354 -130 24 -348 35 -380 21z"/>
</g>
</svg>
