<?xml version="1.0" standalone="no"?>
<!DOCTYPE svg PUBLIC "-//W3C//DTD SVG 20010904//EN"
 "http://www.w3.org/TR/2001/REC-SVG-20010904/DTD/svg10.dtd">
<svg version="1.0" xmlns="http://www.w3.org/2000/svg"
 width="73728.000000pt" height="73728.000000pt" viewBox="0 0 73728.000000 73728.000000"
 preserveAspectRatio="xMidYMid meet">
<metadata>
Created by potrace 1.14, written by Peter Selinger 2001-2017
</metadata>
<g transform="translate(0.000000,73728.000000) scale(7.200000,-7.200000)"
fill="#000000" stroke="none">
<path d="M6413 5680 c-43 -18 -55 -53 -65 -193 -10 -156 -35 -279 -83 -425
-90 -271 -304 -617 -564 -912 -193 -220 -523 -532 -693 -656 -118 -86 -413
-329 -438 -361 -13 -17 -20 -38 -18 -57 3 -28 7 -31 42 -34 137 -11 418 87
651 228 112 68 290 198 434 318 156 130 573 542 624 617 84 123 284 360 616
730 182 203 189 216 150 322 -18 49 -38 74 -123 158 -107 105 -223 191 -303
227 -97 43 -183 57 -230 38z"/>
</g>
</svg>
