<?xml version="1.0" standalone="no"?>
<!DOCTYPE svg PUBLIC "-//W3C//DTD SVG 20010904//EN"
 "http://www.w3.org/TR/2001/REC-SVG-20010904/DTD/svg10.dtd">
<svg version="1.0" xmlns="http://www.w3.org/2000/svg"
 width="1024.000000pt" height="1024.000000pt" viewBox="0 0 1024.000000 1024.000000"
 preserveAspectRatio="xMidYMid meet">
<metadata>
Created by potrace 1.14, written by Peter Selinger 2001-2017
</metadata>
<g transform="translate(0.000000,1024.000000) scale(0.100000,-0.100000)"
fill="#000000" stroke="none">
<path d="M6949 7985 c-42 -8 -164 -44 -270 -80 -808 -274 -1450 -419 -2249
-505 -260 -28 -313 -41 -357 -82 -31 -29 -29 -51 8 -93 70 -79 292 -156 502
-175 162 -14 408 9 587 55 30 8 101 21 158 30 288 43 2147 473 2241 518 42 20
74 76 68 121 -7 50 -42 86 -128 131 -143 75 -190 88 -344 91 -93 2 -166 -1
-216 -11z"/>
</g>
</svg>
