<?xml version="1.0" standalone="no"?>
<!DOCTYPE svg PUBLIC "-//W3C//DTD SVG 20010904//EN"
 "http://www.w3.org/TR/2001/REC-SVG-20010904/DTD/svg10.dtd">
<svg version="1.0" xmlns="http://www.w3.org/2000/svg"
 width="73728.000000pt" height="73728.000000pt" viewBox="0 0 73728.000000 73728.000000"
 preserveAspectRatio="xMidYMid meet">
<metadata>
Created by potrace 1.14, written by Peter Selinger 2001-2017
</metadata>
<g transform="translate(0.000000,73728.000000) scale(7.200000,-7.200000)"
fill="#000000" stroke="none">
<path d="M7055 9780 c-35 -7 -57 -17 -74 -36 -22 -26 -23 -33 -15 -88 16 -113
10 -215 -18 -293 -43 -122 -257 -455 -607 -946 -205 -288 -220 -318 -180 -358
44 -44 63 -34 642 358 298 201 567 388 597 415 75 67 196 146 310 203 121 61
168 98 192 153 23 51 19 95 -15 155 -46 83 -294 266 -482 357 -144 70 -257 95
-350 80z"/>
</g>
</svg>
