<?xml version="1.0" standalone="no"?>
<!DOCTYPE svg PUBLIC "-//W3C//DTD SVG 20010904//EN"
 "http://www.w3.org/TR/2001/REC-SVG-20010904/DTD/svg10.dtd">
<svg version="1.0" xmlns="http://www.w3.org/2000/svg"
 width="73728.000000pt" height="73728.000000pt" viewBox="0 0 73728.000000 73728.000000"
 preserveAspectRatio="xMidYMid meet">
<metadata>
Created by potrace 1.14, written by Peter Selinger 2001-2017
</metadata>
<g transform="translate(0.000000,73728.000000) scale(7.200000,-7.200000)"
fill="#000000" stroke="none">
<path d="M5539 7367 c-64 -39 -115 -115 -169 -252 -191 -485 -688 -1026 -1480
-1615 -127 -94 -154 -124 -148 -163 3 -21 8 -22 88 -21 112 1 225 38 436 143
502 250 865 530 1517 1170 141 138 157 162 157 237 0 70 -73 257 -145 370 -91
145 -170 185 -256 131z"/>
</g>
</svg>
