<?xml version="1.0" standalone="no"?>
<!DOCTYPE svg PUBLIC "-//W3C//DTD SVG 20010904//EN"
 "http://www.w3.org/TR/2001/REC-SVG-20010904/DTD/svg10.dtd">
<svg version="1.0" xmlns="http://www.w3.org/2000/svg"
 width="1024.000000pt" height="1024.000000pt" viewBox="0 0 1024.000000 1024.000000"
 preserveAspectRatio="xMidYMid meet">
<metadata>
Created by potrace 1.14, written by Peter Selinger 2001-2017
</metadata>
<g transform="translate(0.000000,1024.000000) scale(0.100000,-0.100000)"
fill="#000000" stroke="none">
<path d="M4453 9030 c-29 -12 -41 -37 -49 -102 -10 -84 12 -116 240 -348 111
-113 243 -252 293 -310 50 -58 106 -119 124 -137 77 -73 221 -113 285 -80 41
21 80 65 100 112 36 84 10 384 -41 486 -31 60 -115 136 -202 182 -85 44 -427
159 -538 181 -112 21 -186 27 -212 16z"/>
</g>
</svg>
