<?xml version="1.0" standalone="no"?>
<!DOCTYPE svg PUBLIC "-//W3C//DTD SVG 20010904//EN"
 "http://www.w3.org/TR/2001/REC-SVG-20010904/DTD/svg10.dtd">
<svg version="1.0" xmlns="http://www.w3.org/2000/svg"
 width="1024.000000pt" height="1024.000000pt" viewBox="0 0 1024.000000 1024.000000"
 preserveAspectRatio="xMidYMid meet">
<metadata>
Created by potrace 1.14, written by Peter Selinger 2001-2017
</metadata>
<g transform="translate(0.000000,1024.000000) scale(0.100000,-0.100000)"
fill="#000000" stroke="none">
<path d="M1318 5005 c-31 -18 -48 -44 -48 -75 0 -12 31 -86 70 -163 178 -361
260 -772 260 -1301 0 -367 -33 -682 -120 -1161 -56 -306 -58 -340 -19 -454 27
-78 116 -212 201 -303 59 -62 67 -68 105 -68 49 0 76 19 139 103 87 115 150
288 174 477 13 106 14 421 1 537 -5 49 -12 324 -15 613 -6 523 -17 832 -37
1050 -10 114 -105 530 -135 595 -18 39 -35 49 -146 85 -214 68 -380 93 -430
65z"/>
</g>
</svg>
