<?xml version="1.0" standalone="no"?>
<!DOCTYPE svg PUBLIC "-//W3C//DTD SVG 20010904//EN"
 "http://www.w3.org/TR/2001/REC-SVG-20010904/DTD/svg10.dtd">
<svg version="1.0" xmlns="http://www.w3.org/2000/svg"
 width="1024.000000pt" height="1024.000000pt" viewBox="0 0 1024.000000 1024.000000"
 preserveAspectRatio="xMidYMid meet">
<metadata>
Created by potrace 1.14, written by Peter Selinger 2001-2017
</metadata>
<g transform="translate(0.000000,1024.000000) scale(0.100000,-0.100000)"
fill="#000000" stroke="none">
<path d="M7944 5870 c-34 -5 -78 -16 -99 -24 -154 -65 -655 -139 -1780 -266
-326 -37 -545 -70 -765 -116 -91 -19 -295 -52 -455 -74 -159 -22 -348 -49
-420 -61 -120 -19 -353 -73 -419 -99 -16 -6 -502 -87 -1080 -180 -578 -94
-1067 -175 -1086 -181 -84 -27 -130 -90 -130 -178 0 -112 96 -211 204 -211 48
0 160 24 296 65 417 123 1035 226 2185 364 138 17 414 58 615 91 634 104 1180
177 1760 234 536 54 1075 92 1143 82 49 -8 106 -46 132 -88 35 -59 45 -158 60
-563 37 -1029 4 -1847 -100 -2465 -40 -236 -47 -265 -78 -311 -57 -84 -131
-98 -297 -54 -120 33 -363 115 -503 171 -59 24 -114 41 -122 38 -39 -15 -26
-94 28 -174 17 -25 95 -112 173 -195 302 -320 510 -578 604 -750 37 -67 101
-139 142 -161 38 -20 102 -17 146 5 68 35 160 148 225 277 14 27 42 97 62 155
180 517 284 1463 315 2888 17 750 47 1006 140 1161 90 150 90 169 3 250 -116
109 -277 203 -529 309 -158 66 -232 78 -370 61z"/>
</g>
</svg>
