<?xml version="1.0" standalone="no"?>
<!DOCTYPE svg PUBLIC "-//W3C//DTD SVG 20010904//EN"
 "http://www.w3.org/TR/2001/REC-SVG-20010904/DTD/svg10.dtd">
<svg version="1.0" xmlns="http://www.w3.org/2000/svg"
 width="73728.000000pt" height="73728.000000pt" viewBox="0 0 73728.000000 73728.000000"
 preserveAspectRatio="xMidYMid meet">
<metadata>
Created by potrace 1.14, written by Peter Selinger 2001-2017
</metadata>
<g transform="translate(0.000000,73728.000000) scale(7.200000,-7.200000)"
fill="#000000" stroke="none">
<path d="M7630 8410 c-36 -4 -247 -44 -470 -89 -223 -44 -487 -94 -588 -111
-101 -17 -308 -58 -459 -91 -199 -43 -594 -110 -1402 -240 -619 -99 -1216
-195 -1326 -214 -110 -19 -573 -93 -1030 -165 -456 -71 -844 -132 -860 -135
-46 -8 -75 -32 -75 -63 0 -20 19 -45 78 -102 127 -124 247 -173 422 -173 116
0 261 26 357 64 199 79 477 131 838 159 104 8 195 23 351 60 183 42 351 69
1220 190 555 77 1131 156 1280 175 253 31 1837 161 2269 185 271 15 367 45
381 117 11 59 -12 111 -79 178 -100 99 -326 201 -532 241 -97 18 -287 26 -375
14z"/>
</g>
</svg>
