<?xml version="1.0" standalone="no"?>
<!DOCTYPE svg PUBLIC "-//W3C//DTD SVG 20010904//EN"
 "http://www.w3.org/TR/2001/REC-SVG-20010904/DTD/svg10.dtd">
<svg version="1.0" xmlns="http://www.w3.org/2000/svg"
 width="73728.000000pt" height="73728.000000pt" viewBox="0 0 73728.000000 73728.000000"
 preserveAspectRatio="xMidYMid meet">
<metadata>
Created by potrace 1.14, written by Peter Selinger 2001-2017
</metadata>
<g transform="translate(0.000000,73728.000000) scale(7.200000,-7.200000)"
fill="#000000" stroke="none">
<path d="M2990 9656 c-76 -22 -150 -58 -165 -80 -20 -28 -19 -76 2 -106 10
-14 45 -59 79 -101 102 -126 176 -276 235 -473 49 -165 123 -596 179 -1036 11
-91 31 -244 45 -340 13 -96 29 -247 35 -335 6 -88 17 -205 25 -260 7 -55 19
-183 25 -285 8 -127 21 -230 41 -330 64 -308 98 -419 140 -455 38 -32 60 -32
98 0 39 33 68 113 88 239 21 135 20 473 0 671 -9 83 -21 267 -27 410 -6 143
-17 350 -25 460 -8 110 -19 292 -25 405 -6 113 -15 248 -21 300 -7 52 -12 250
-13 440 -1 296 1 356 16 420 10 41 18 89 18 105 -1 46 -33 108 -76 144 -49 40
-251 140 -369 181 -105 37 -231 48 -305 26z"/>
</g>
</svg>
