<?xml version="1.0" standalone="no"?>
<!DOCTYPE svg PUBLIC "-//W3C//DTD SVG 20010904//EN"
 "http://www.w3.org/TR/2001/REC-SVG-20010904/DTD/svg10.dtd">
<svg version="1.0" xmlns="http://www.w3.org/2000/svg"
 width="1024.000000pt" height="1024.000000pt" viewBox="0 0 1024.000000 1024.000000"
 preserveAspectRatio="xMidYMid meet">
<metadata>
Created by potrace 1.14, written by Peter Selinger 2001-2017
</metadata>
<g transform="translate(0.000000,1024.000000) scale(0.100000,-0.100000)"
fill="#000000" stroke="none">
<path d="M2453 7480 c-68 -28 -74 -135 -20 -365 75 -320 83 -427 57 -769 -90
-1215 -118 -3156 -55 -3831 18 -187 65 -426 107 -541 88 -245 319 -478 649
-657 373 -202 944 -351 1619 -421 542 -57 1276 -70 1710 -31 287 26 691 85
940 136 631 132 1239 362 1805 684 166 94 213 137 245 223 30 78 25 134 -21
279 -52 165 -90 327 -139 589 -44 238 -105 631 -120 776 -5 53 -15 109 -22
125 -15 35 -58 83 -74 83 -23 0 -53 -51 -68 -119 -35 -155 -270 -812 -390
-1091 -106 -247 -157 -331 -246 -407 -403 -347 -1239 -612 -2275 -720 -245
-26 -910 -25 -1145 0 -438 48 -961 167 -1265 287 -263 104 -532 288 -666 457
-249 313 -316 857 -235 1903 14 179 44 602 66 940 78 1193 128 1828 150 1937
21 100 32 189 26 222 -7 45 -29 67 -106 106 -36 18 -93 51 -127 74 -105 69
-162 100 -223 121 -62 21 -139 25 -177 10z"/>
</g>
</svg>
