<?xml version="1.0" standalone="no"?>
<!DOCTYPE svg PUBLIC "-//W3C//DTD SVG 20010904//EN"
 "http://www.w3.org/TR/2001/REC-SVG-20010904/DTD/svg10.dtd">
<svg version="1.0" xmlns="http://www.w3.org/2000/svg"
 width="73728.000000pt" height="73728.000000pt" viewBox="0 0 73728.000000 73728.000000"
 preserveAspectRatio="xMidYMid meet">
<metadata>
Created by potrace 1.14, written by Peter Selinger 2001-2017
</metadata>
<g transform="translate(0.000000,73728.000000) scale(7.200000,-7.200000)"
fill="#000000" stroke="none">
<path d="M2105 5810 c-12 -13 -20 -45 -25 -97 -10 -98 -58 -194 -201 -400 -81
-116 -136 -181 -254 -299 -82 -83 -201 -195 -263 -249 -62 -53 -117 -106 -123
-116 -42 -79 123 -36 394 103 277 142 690 438 932 668 44 42 100 93 125 115
51 44 90 100 90 131 0 22 -54 65 -129 104 -64 32 -251 60 -402 60 -113 0 -128
-2 -144 -20z"/>
</g>
</svg>
