<?xml version="1.0" standalone="no"?>
<!DOCTYPE svg PUBLIC "-//W3C//DTD SVG 20010904//EN"
 "http://www.w3.org/TR/2001/REC-SVG-20010904/DTD/svg10.dtd">
<svg version="1.0" xmlns="http://www.w3.org/2000/svg"
 width="73728.000000pt" height="73728.000000pt" viewBox="0 0 73728.000000 73728.000000"
 preserveAspectRatio="xMidYMid meet">
<metadata>
Created by potrace 1.14, written by Peter Selinger 2001-2017
</metadata>
<g transform="translate(0.000000,73728.000000) scale(7.200000,-7.200000)"
fill="#000000" stroke="none">
<path d="M3755 1899 c-318 -29 -1036 -152 -1150 -197 -63 -24 -121 -68 -135
-101 -11 -26 -10 -35 5 -57 33 -51 71 -59 285 -58 107 1 312 8 455 17 143 9
429 23 635 32 460 18 488 21 542 48 37 19 43 27 46 58 3 32 -3 42 -43 82 -57
57 -175 131 -250 158 -69 24 -240 32 -390 18z"/>
</g>
</svg>
