<?xml version="1.0" standalone="no"?>
<!DOCTYPE svg PUBLIC "-//W3C//DTD SVG 20010904//EN"
 "http://www.w3.org/TR/2001/REC-SVG-20010904/DTD/svg10.dtd">
<svg version="1.0" xmlns="http://www.w3.org/2000/svg"
 width="73728.000000pt" height="73728.000000pt" viewBox="0 0 73728.000000 73728.000000"
 preserveAspectRatio="xMidYMid meet">
<metadata>
Created by potrace 1.14, written by Peter Selinger 2001-2017
</metadata>
<g transform="translate(0.000000,73728.000000) scale(7.200000,-7.200000)"
fill="#000000" stroke="none">
<path d="M5025 8020 c-140 -14 -279 -38 -415 -70 -69 -16 -179 -36 -245 -45
-154 -20 -303 -48 -490 -91 -280 -65 -499 -112 -715 -154 -118 -23 -316 -66
-440 -96 -124 -30 -315 -75 -425 -100 -517 -117 -635 -159 -635 -229 0 -42 53
-72 190 -105 184 -45 393 -25 630 62 352 129 846 257 1395 363 298 57 911 155
969 155 62 0 65 -1 100 -40 28 -31 36 -48 36 -78 0 -20 -50 -199 -110 -397
-79 -262 -106 -362 -97 -367 29 -19 177 42 281 116 267 190 537 317 861 406
93 25 162 62 177 95 9 19 6 29 -12 55 -36 51 -216 188 -456 349 -171 115 -232
151 -272 160 -75 16 -225 21 -327 11z"/>
</g>
</svg>
