<?xml version="1.0" standalone="no"?>
<!DOCTYPE svg PUBLIC "-//W3C//DTD SVG 20010904//EN"
 "http://www.w3.org/TR/2001/REC-SVG-20010904/DTD/svg10.dtd">
<svg version="1.0" xmlns="http://www.w3.org/2000/svg"
 width="73728.000000pt" height="73728.000000pt" viewBox="0 0 73728.000000 73728.000000"
 preserveAspectRatio="xMidYMid meet">
<metadata>
Created by potrace 1.14, written by Peter Selinger 2001-2017
</metadata>
<g transform="translate(0.000000,73728.000000) scale(7.200000,-7.200000)"
fill="#000000" stroke="none">
<path d="M5528 5791 c-42 -9 -87 -36 -95 -57 -13 -33 21 -76 116 -146 124 -92
285 -249 371 -363 37 -49 109 -162 160 -250 307 -531 750 -1205 1412 -2152
481 -687 512 -725 631 -782 92 -43 141 -49 487 -61 735 -24 1216 -4 1329 54
31 17 51 43 51 69 0 31 -64 74 -192 131 -584 259 -1142 581 -1586 915 -601
452 -937 813 -1703 1829 -250 331 -473 629 -496 661 -47 66 -105 111 -178 136
-56 19 -247 29 -307 16z"/>
</g>
</svg>
