<?xml version="1.0" standalone="no"?>
<!DOCTYPE svg PUBLIC "-//W3C//DTD SVG 20010904//EN"
 "http://www.w3.org/TR/2001/REC-SVG-20010904/DTD/svg10.dtd">
<svg version="1.0" xmlns="http://www.w3.org/2000/svg"
 width="73728.000000pt" height="73728.000000pt" viewBox="0 0 73728.000000 73728.000000"
 preserveAspectRatio="xMidYMid meet">
<metadata>
Created by potrace 1.14, written by Peter Selinger 2001-2017
</metadata>
<g transform="translate(0.000000,73728.000000) scale(7.200000,-7.200000)"
fill="#000000" stroke="none">
<path d="M3151 5444 c-23 -29 -28 -62 -35 -224 -25 -550 -485 -1227 -1396
-2056 -173 -157 -607 -475 -1140 -832 -140 -94 -261 -177 -269 -183 -12 -11
-10 -16 10 -32 21 -17 34 -18 95 -13 301 27 735 229 1284 597 330 221 404 278
619 487 113 109 240 227 281 262 409 348 721 731 935 1150 60 117 71 132 175
234 61 61 113 121 117 134 16 66 -21 170 -89 246 -108 124 -371 256 -507 256
-52 0 -62 -3 -80 -26z"/>
</g>
</svg>
