<?xml version="1.0" standalone="no"?>
<!DOCTYPE svg PUBLIC "-//W3C//DTD SVG 20010904//EN"
 "http://www.w3.org/TR/2001/REC-SVG-20010904/DTD/svg10.dtd">
<svg version="1.0" xmlns="http://www.w3.org/2000/svg"
 width="1024.000000pt" height="1024.000000pt" viewBox="0 0 1024.000000 1024.000000"
 preserveAspectRatio="xMidYMid meet">
<metadata>
Created by potrace 1.14, written by Peter Selinger 2001-2017
</metadata>
<g transform="translate(0.000000,1024.000000) scale(0.100000,-0.100000)"
fill="#000000" stroke="none">
<path d="M7525 9354 c-218 -21 -773 -130 -1405 -274 -701 -161 -943 -220 -976
-241 -113 -70 -102 -220 21 -279 39 -19 58 -22 111 -17 38 3 72 11 82 20 49
44 735 211 1277 311 497 91 571 100 658 75 86 -24 166 -135 174 -243 6 -70
-34 -317 -122 -751 -87 -435 -151 -644 -231 -761 -55 -80 -114 -197 -114 -225
0 -29 113 -171 198 -250 90 -83 162 -123 206 -115 71 14 157 105 204 219 69
166 177 572 296 1117 62 282 94 397 138 485 35 68 122 197 186 272 69 82 85
125 70 180 -23 84 -223 250 -509 421 -76 46 -93 52 -155 56 -38 2 -87 2 -109
0z"/>
</g>
</svg>
