<?xml version="1.0" standalone="no"?>
<!DOCTYPE svg PUBLIC "-//W3C//DTD SVG 20010904//EN"
 "http://www.w3.org/TR/2001/REC-SVG-20010904/DTD/svg10.dtd">
<svg version="1.0" xmlns="http://www.w3.org/2000/svg"
 width="1024.000000pt" height="1024.000000pt" viewBox="0 0 1024.000000 1024.000000"
 preserveAspectRatio="xMidYMid meet">
<metadata>
Created by potrace 1.14, written by Peter Selinger 2001-2017
</metadata>
<g transform="translate(0.000000,1024.000000) scale(0.100000,-0.100000)"
fill="#000000" stroke="none">
<path d="M7240 6320 c-174 -31 -528 -124 -870 -230 -222 -69 -688 -169 -1075
-230 -217 -35 -294 -58 -324 -96 -36 -46 -1 -90 130 -162 237 -130 530 -156
835 -72 39 10 261 62 495 115 233 53 552 125 709 161 587 134 700 183 700 304
0 63 -27 95 -117 143 -165 86 -283 102 -483 67z"/>
</g>
</svg>
