<?xml version="1.0" standalone="no"?>
<!DOCTYPE svg PUBLIC "-//W3C//DTD SVG 20010904//EN"
 "http://www.w3.org/TR/2001/REC-SVG-20010904/DTD/svg10.dtd">
<svg version="1.0" xmlns="http://www.w3.org/2000/svg"
 width="1024.000000pt" height="1024.000000pt" viewBox="0 0 1024.000000 1024.000000"
 preserveAspectRatio="xMidYMid meet">
<metadata>
Created by potrace 1.14, written by Peter Selinger 2001-2017
</metadata>
<g transform="translate(0.000000,1024.000000) scale(0.100000,-0.100000)"
fill="#000000" stroke="none">
<path d="M5083 3785 c-24 -17 -43 -71 -43 -120 0 -59 59 -135 279 -359 119
-122 252 -263 296 -314 112 -130 184 -172 297 -172 59 0 108 39 135 108 32 83
17 345 -25 427 -51 101 -159 183 -368 277 -151 69 -464 168 -529 168 -11 0
-30 -7 -42 -15z"/>
</g>
</svg>
