<?xml version="1.0" standalone="no"?>
<!DOCTYPE svg PUBLIC "-//W3C//DTD SVG 20010904//EN"
 "http://www.w3.org/TR/2001/REC-SVG-20010904/DTD/svg10.dtd">
<svg version="1.0" xmlns="http://www.w3.org/2000/svg"
 width="1024.000000pt" height="1024.000000pt" viewBox="0 0 1024.000000 1024.000000"
 preserveAspectRatio="xMidYMid meet">
<metadata>
Created by potrace 1.14, written by Peter Selinger 2001-2017
</metadata>
<g transform="translate(0.000000,1024.000000) scale(0.100000,-0.100000)"
fill="#000000" stroke="none">
<path d="M5935 6910 c-27 -4 -97 -29 -155 -55 -339 -150 -858 -304 -1562 -464
-192 -44 -241 -63 -281 -111 -59 -70 -54 -153 12 -213 55 -49 109 -56 226 -29
49 11 423 98 830 193 783 182 878 199 941 166 62 -33 94 -94 94 -184 0 -85
-117 -508 -211 -759 -52 -140 -60 -194 -34 -244 33 -64 144 -106 250 -94 151
16 241 83 300 221 168 394 325 621 538 780 94 71 133 173 103 275 -21 75 -42
97 -176 198 -193 143 -359 236 -523 292 -76 26 -111 32 -197 34 -58 1 -127 -1
-155 -6z"/>
</g>
</svg>
