<?xml version="1.0" standalone="no"?>
<!DOCTYPE svg PUBLIC "-//W3C//DTD SVG 20010904//EN"
 "http://www.w3.org/TR/2001/REC-SVG-20010904/DTD/svg10.dtd">
<svg version="1.0" xmlns="http://www.w3.org/2000/svg"
 width="1024.000000pt" height="1024.000000pt" viewBox="0 0 1024.000000 1024.000000"
 preserveAspectRatio="xMidYMid meet">
<metadata>
Created by potrace 1.14, written by Peter Selinger 2001-2017
</metadata>
<g transform="translate(0.000000,1024.000000) scale(0.100000,-0.100000)"
fill="#000000" stroke="none">
<path d="M5955 5391 c-44 -10 -213 -52 -375 -94 -493 -128 -930 -225 -1353
-302 -103 -19 -209 -44 -235 -55 -81 -36 -122 -88 -122 -155 0 -52 26 -90 84
-121 44 -24 64 -28 156 -32 95 -3 122 0 280 36 471 108 1127 207 1912 288 186
19 217 30 245 89 16 34 16 38 -2 72 -36 66 -291 249 -388 278 -64 19 -101 18
-202 -4z"/>
</g>
</svg>
