<?xml version="1.0" standalone="no"?>
<!DOCTYPE svg PUBLIC "-//W3C//DTD SVG 20010904//EN"
 "http://www.w3.org/TR/2001/REC-SVG-20010904/DTD/svg10.dtd">
<svg version="1.0" xmlns="http://www.w3.org/2000/svg"
 width="73728.000000pt" height="73728.000000pt" viewBox="0 0 73728.000000 73728.000000"
 preserveAspectRatio="xMidYMid meet">
<metadata>
Created by potrace 1.14, written by Peter Selinger 2001-2017
</metadata>
<g transform="translate(0.000000,73728.000000) scale(7.200000,-7.200000)"
fill="#000000" stroke="none">
<path d="M6281 4128 c-50 -5 -119 -21 -170 -39 -588 -214 -1055 -336 -1746
-459 -393 -69 -411 -75 -472 -133 -66 -62 -33 -147 72 -186 156 -59 392 -65
580 -17 55 15 249 53 430 87 348 63 619 114 952 179 297 59 362 54 426 -32 65
-88 67 -196 8 -453 -52 -223 -128 -520 -188 -728 -50 -175 -50 -205 -6 -257
50 -60 95 -75 223 -75 108 0 119 2 180 31 123 58 137 78 241 346 81 211 190
427 288 573 87 130 147 198 258 294 129 111 167 239 107 359 -31 62 -69 96
-221 197 -353 237 -677 342 -962 313z"/>
</g>
</svg>
