<?xml version="1.0" standalone="no"?>
<!DOCTYPE svg PUBLIC "-//W3C//DTD SVG 20010904//EN"
 "http://www.w3.org/TR/2001/REC-SVG-20010904/DTD/svg10.dtd">
<svg version="1.0" xmlns="http://www.w3.org/2000/svg"
 width="1024.000000pt" height="1024.000000pt" viewBox="0 0 1024.000000 1024.000000"
 preserveAspectRatio="xMidYMid meet">
<metadata>
Created by potrace 1.14, written by Peter Selinger 2001-2017
</metadata>
<g transform="translate(0.000000,1024.000000) scale(0.100000,-0.100000)"
fill="#000000" stroke="none">
<path d="M3845 9081 c-74 -31 -78 -101 -12 -252 103 -241 147 -475 168 -901
16 -338 23 -2053 10 -2513 -30 -1052 -115 -2372 -171 -2676 -36 -190 -103
-350 -223 -533 -88 -132 -97 -156 -97 -253 0 -87 37 -209 101 -333 66 -128
131 -178 214 -166 22 4 81 29 130 57 484 273 1016 446 1655 538 711 102 1894
102 3390 0 337 -23 428 -21 494 11 132 64 59 243 -182 444 -91 75 -139 101
-224 121 -92 21 -196 19 -527 -15 -370 -37 -932 -84 -1246 -104 -132 -9 -267
-18 -300 -21 -33 -3 -262 -10 -510 -15 -653 -13 -1106 -46 -1694 -121 -263
-34 -367 -19 -434 61 -50 59 -68 167 -47 278 5 27 18 432 29 899 11 466 23
922 26 1013 3 91 12 629 20 1195 25 1756 50 2486 91 2720 18 103 17 131 -2
187 -31 91 -105 153 -339 282 -163 90 -262 120 -320 97z"/>
</g>
</svg>
