<?xml version="1.0" standalone="no"?>
<!DOCTYPE svg PUBLIC "-//W3C//DTD SVG 20010904//EN"
 "http://www.w3.org/TR/2001/REC-SVG-20010904/DTD/svg10.dtd">
<svg version="1.0" xmlns="http://www.w3.org/2000/svg"
 width="1024.000000pt" height="1024.000000pt" viewBox="0 0 1024.000000 1024.000000"
 preserveAspectRatio="xMidYMid meet">
<metadata>
Created by potrace 1.14, written by Peter Selinger 2001-2017
</metadata>
<g transform="translate(0.000000,1024.000000) scale(0.100000,-0.100000)"
fill="#000000" stroke="none">
<path d="M7961 5064 c-21 -26 -26 -47 -35 -140 -8 -85 -63 -233 -161 -431
-115 -236 -186 -344 -363 -556 -312 -374 -491 -563 -597 -632 -84 -55 -115
-100 -115 -168 1 -67 49 -136 177 -251 53 -47 69 -56 100 -56 21 0 52 9 69 19
276 169 663 328 1033 426 157 41 215 65 230 94 16 30 -15 58 -75 67 -114 17
-433 -17 -765 -82 -76 -15 -144 -24 -153 -21 -24 9 -19 46 11 86 69 91 321
367 558 611 83 85 190 200 238 256 97 113 204 218 300 293 36 28 70 65 78 82
12 29 10 37 -17 88 -57 110 -207 240 -356 311 -80 38 -129 39 -157 4z"/>
</g>
</svg>
