<?xml version="1.0" standalone="no"?>
<!DOCTYPE svg PUBLIC "-//W3C//DTD SVG 20010904//EN"
 "http://www.w3.org/TR/2001/REC-SVG-20010904/DTD/svg10.dtd">
<svg version="1.0" xmlns="http://www.w3.org/2000/svg"
 width="73728.000000pt" height="73728.000000pt" viewBox="0 0 73728.000000 73728.000000"
 preserveAspectRatio="xMidYMid meet">
<metadata>
Created by potrace 1.14, written by Peter Selinger 2001-2017
</metadata>
<g transform="translate(0.000000,73728.000000) scale(7.200000,-7.200000)"
fill="#000000" stroke="none">
<path d="M7195 4994 c-62 -10 -133 -34 -169 -59 -37 -25 -220 -70 -646 -159
-269 -57 -568 -134 -624 -162 -176 -88 -157 -194 34 -194 103 0 988 130 1320
194 153 30 289 49 529 76 174 20 251 37 251 58 0 20 -44 63 -127 122 -101 73
-151 96 -236 110 -71 12 -288 21 -332 14z"/>
</g>
</svg>
