<?xml version="1.0" standalone="no"?>
<!DOCTYPE svg PUBLIC "-//W3C//DTD SVG 20010904//EN"
 "http://www.w3.org/TR/2001/REC-SVG-20010904/DTD/svg10.dtd">
<svg version="1.0" xmlns="http://www.w3.org/2000/svg"
 width="73728.000000pt" height="73728.000000pt" viewBox="0 0 73728.000000 73728.000000"
 preserveAspectRatio="xMidYMid meet">
<metadata>
Created by potrace 1.14, written by Peter Selinger 2001-2017
</metadata>
<g transform="translate(0.000000,73728.000000) scale(7.200000,-7.200000)"
fill="#000000" stroke="none">
<path d="M8300 2510 c-36 -5 -110 -18 -165 -29 -55 -11 -190 -34 -300 -51
-226 -35 -456 -75 -720 -125 -275 -53 -537 -89 -1165 -160 -1510 -171 -1529
-174 -1547 -221 -24 -63 135 -217 310 -300 155 -73 284 -81 510 -30 667 151
1356 227 2507 277 140 6 553 12 918 14 l663 3 55 27 c63 31 79 58 69 120 -14
93 -98 183 -258 279 -213 128 -432 193 -672 201 -77 2 -169 0 -205 -5z"/>
</g>
</svg>
