<?xml version="1.0" standalone="no"?>
<!DOCTYPE svg PUBLIC "-//W3C//DTD SVG 20010904//EN"
 "http://www.w3.org/TR/2001/REC-SVG-20010904/DTD/svg10.dtd">
<svg version="1.0" xmlns="http://www.w3.org/2000/svg"
 width="1024.000000pt" height="1024.000000pt" viewBox="0 0 1024.000000 1024.000000"
 preserveAspectRatio="xMidYMid meet">
<metadata>
Created by potrace 1.14, written by Peter Selinger 2001-2017
</metadata>
<g transform="translate(0.000000,1024.000000) scale(0.100000,-0.100000)"
fill="#000000" stroke="none">
<path d="M7625 3899 c-132 -23 -309 -70 -540 -144 -378 -120 -771 -195 -1445
-274 -245 -29 -329 -49 -371 -87 -29 -27 -23 -54 24 -98 126 -121 396 -180
719 -156 262 18 762 98 1063 169 168 39 395 84 615 121 206 35 404 82 469 111
123 54 156 157 73 230 -45 40 -196 112 -277 134 -78 20 -194 18 -330 -6z"/>
</g>
</svg>
