<?xml version="1.0" standalone="no"?>
<!DOCTYPE svg PUBLIC "-//W3C//DTD SVG 20010904//EN"
 "http://www.w3.org/TR/2001/REC-SVG-20010904/DTD/svg10.dtd">
<svg version="1.0" xmlns="http://www.w3.org/2000/svg"
 width="73728.000000pt" height="73728.000000pt" viewBox="0 0 73728.000000 73728.000000"
 preserveAspectRatio="xMidYMid meet">
<metadata>
Created by potrace 1.14, written by Peter Selinger 2001-2017
</metadata>
<g transform="translate(0.000000,73728.000000) scale(7.200000,-7.200000)"
fill="#000000" stroke="none">
<path d="M5875 9701 c-30 -34 -34 -139 -6 -185 27 -43 113 -123 216 -201 44
-33 215 -172 379 -309 326 -271 365 -296 475 -303 57 -4 71 -2 101 19 43 29
76 78 91 132 25 90 -19 343 -76 442 -51 87 -174 173 -350 243 -220 87 -549
170 -710 178 -93 5 -101 4 -120 -16z"/>
</g>
</svg>
