<?xml version="1.0" standalone="no"?>
<!DOCTYPE svg PUBLIC "-//W3C//DTD SVG 20010904//EN"
 "http://www.w3.org/TR/2001/REC-SVG-20010904/DTD/svg10.dtd">
<svg version="1.0" xmlns="http://www.w3.org/2000/svg"
 width="73728.000000pt" height="73728.000000pt" viewBox="0 0 73728.000000 73728.000000"
 preserveAspectRatio="xMidYMid meet">
<metadata>
Created by potrace 1.14, written by Peter Selinger 2001-2017
</metadata>
<g transform="translate(0.000000,73728.000000) scale(7.200000,-7.200000)"
fill="#000000" stroke="none">
<path d="M8015 8513 c-170 -22 -467 -98 -776 -199 -526 -172 -1520 -374 -2189
-444 -103 -11 -274 -61 -328 -96 -26 -17 -29 -45 -4 -67 52 -47 374 -160 522
-183 77 -12 140 -14 235 -10 147 7 131 4 700 121 231 47 720 146 1086 220 805
161 1158 255 1248 331 67 56 66 132 -3 189 -52 42 -191 109 -271 130 -55 14
-148 17 -220 8z"/>
</g>
</svg>
