<?xml version="1.0" standalone="no"?>
<!DOCTYPE svg PUBLIC "-//W3C//DTD SVG 20010904//EN"
 "http://www.w3.org/TR/2001/REC-SVG-20010904/DTD/svg10.dtd">
<svg version="1.0" xmlns="http://www.w3.org/2000/svg"
 width="1024.000000pt" height="1024.000000pt" viewBox="0 0 1024.000000 1024.000000"
 preserveAspectRatio="xMidYMid meet">
<metadata>
Created by potrace 1.14, written by Peter Selinger 2001-2017
</metadata>
<g transform="translate(0.000000,1024.000000) scale(0.100000,-0.100000)"
fill="#000000" stroke="none">
<path d="M4984 6749 c-31 -35 -21 -90 50 -275 153 -399 269 -868 360 -1454 19
-124 37 -263 41 -309 9 -119 38 -222 90 -326 48 -98 162 -249 200 -267 38 -17
74 -2 91 38 29 70 46 230 39 374 -9 195 -17 254 -105 770 -86 501 -148 897
-175 1105 -25 198 -27 201 -239 291 -169 71 -316 93 -352 53z"/>
</g>
</svg>
