<?xml version="1.0" standalone="no"?>
<!DOCTYPE svg PUBLIC "-//W3C//DTD SVG 20010904//EN"
 "http://www.w3.org/TR/2001/REC-SVG-20010904/DTD/svg10.dtd">
<svg version="1.0" xmlns="http://www.w3.org/2000/svg"
 width="1024.000000pt" height="1024.000000pt" viewBox="0 0 1024.000000 1024.000000"
 preserveAspectRatio="xMidYMid meet">
<metadata>
Created by potrace 1.14, written by Peter Selinger 2001-2017
</metadata>
<g transform="translate(0.000000,1024.000000) scale(0.100000,-0.100000)"
fill="#000000" stroke="none">
<path d="M4209 8129 c-20 -6 -51 -26 -69 -44 -46 -47 -45 -100 3 -187 70 -125
115 -277 141 -478 27 -211 28 -283 6 -525 -104 -1141 -215 -2002 -320 -2484
-38 -171 -147 -529 -230 -748 -185 -494 -552 -1214 -1023 -2008 -148 -249
-174 -306 -157 -343 10 -22 15 -24 60 -20 160 16 444 317 837 888 228 330 366
571 516 895 382 829 654 1977 811 3420 14 127 32 318 41 425 27 341 59 510
122 654 44 98 50 143 26 172 -24 28 -172 141 -259 197 -78 50 -291 158 -344
175 -55 17 -122 22 -161 11z"/>
</g>
</svg>
