<?xml version="1.0" standalone="no"?>
<!DOCTYPE svg PUBLIC "-//W3C//DTD SVG 20010904//EN"
 "http://www.w3.org/TR/2001/REC-SVG-20010904/DTD/svg10.dtd">
<svg version="1.0" xmlns="http://www.w3.org/2000/svg"
 width="73728.000000pt" height="73728.000000pt" viewBox="0 0 73728.000000 73728.000000"
 preserveAspectRatio="xMidYMid meet">
<metadata>
Created by potrace 1.14, written by Peter Selinger 2001-2017
</metadata>
<g transform="translate(0.000000,73728.000000) scale(7.200000,-7.200000)"
fill="#000000" stroke="none">
<path d="M8035 7249 c-313 -40 -829 -142 -1645 -324 -350 -78 -659 -141 -939
-190 -207 -36 -250 -51 -271 -91 -39 -72 74 -178 218 -204 72 -13 128 -5 255
35 139 44 379 101 692 165 165 34 379 79 475 100 388 87 633 127 826 137 172
8 252 -6 306 -55 50 -45 107 -162 115 -233 8 -83 -82 -732 -153 -1094 -68
-344 -110 -478 -188 -595 -50 -75 -96 -163 -96 -184 0 -22 107 -152 188 -228
40 -37 100 -82 134 -99 56 -28 65 -30 99 -20 40 12 93 64 132 132 74 127 187
652 311 1444 20 127 48 266 62 310 37 114 112 256 193 361 38 50 74 101 80
112 15 28 14 86 -3 125 -29 66 -162 170 -406 316 l-145 86 -85 2 c-47 1 -116
-3 -155 -8z"/>
</g>
</svg>
