<?xml version="1.0" standalone="no"?>
<!DOCTYPE svg PUBLIC "-//W3C//DTD SVG 20010904//EN"
 "http://www.w3.org/TR/2001/REC-SVG-20010904/DTD/svg10.dtd">
<svg version="1.0" xmlns="http://www.w3.org/2000/svg"
 width="73728.000000pt" height="73728.000000pt" viewBox="0 0 73728.000000 73728.000000"
 preserveAspectRatio="xMidYMid meet">
<metadata>
Created by potrace 1.14, written by Peter Selinger 2001-2017
</metadata>
<g transform="translate(0.000000,73728.000000) scale(7.200000,-7.200000)"
fill="#000000" stroke="none">
<path d="M3060 8266 c-66 -19 -118 -48 -211 -119 -156 -119 -338 -209 -613
-303 -304 -104 -497 -144 -734 -153 l-184 -6 -29 -33 c-62 -70 -21 -130 149
-216 97 -49 229 -87 322 -93 74 -5 107 -1 207 21 271 63 454 124 708 236 176
78 205 77 205 -6 0 -168 -132 -527 -500 -1359 -34 -77 -69 -158 -78 -180 -33
-78 -114 -189 -203 -276 -123 -121 -138 -162 -100 -271 51 -149 153 -231 263
-213 22 4 68 22 102 40 82 43 273 119 371 147 116 32 271 32 338 -1 26 -12 60
-39 75 -59 25 -33 27 -42 25 -116 -1 -48 -12 -118 -26 -171 -13 -49 -50 -186
-81 -303 -66 -249 -130 -457 -192 -629 -51 -140 -218 -484 -288 -594 -264
-409 -666 -819 -1195 -1217 -144 -108 -491 -345 -643 -439 -95 -59 -130 -120
-90 -156 58 -52 258 13 669 217 512 256 894 516 1224 837 242 236 519 677 764
1219 125 276 326 710 403 870 65 134 126 213 222 286 81 61 97 113 65 205 -20
56 -50 87 -155 158 -158 109 -347 209 -405 216 -72 9 -261 -10 -480 -48 -210
-36 -238 -37 -272 -5 -24 22 -25 27 -20 108 8 139 76 326 228 630 321 642 577
1012 812 1177 104 74 132 111 132 179 0 92 -63 158 -254 266 -127 72 -247 123
-351 148 -96 23 -117 23 -180 6z"/>
</g>
</svg>
