<?xml version="1.0" standalone="no"?>
<!DOCTYPE svg PUBLIC "-//W3C//DTD SVG 20010904//EN"
 "http://www.w3.org/TR/2001/REC-SVG-20010904/DTD/svg10.dtd">
<svg version="1.0" xmlns="http://www.w3.org/2000/svg"
 width="73728.000000pt" height="73728.000000pt" viewBox="0 0 73728.000000 73728.000000"
 preserveAspectRatio="xMidYMid meet">
<metadata>
Created by potrace 1.14, written by Peter Selinger 2001-2017
</metadata>
<g transform="translate(0.000000,73728.000000) scale(7.200000,-7.200000)"
fill="#000000" stroke="none">
<path d="M7755 6723 c-66 -9 -195 -48 -290 -88 -217 -92 -435 -150 -715 -190
-207 -30 -286 -60 -315 -121 -14 -31 -15 -37 0 -67 74 -157 516 -189 1105 -81
269 49 735 165 801 200 44 22 79 72 79 110 0 98 -96 171 -286 220 -80 20 -119
24 -223 23 -69 -1 -139 -4 -156 -6z"/>
</g>
</svg>
