<?xml version="1.0" standalone="no"?>
<!DOCTYPE svg PUBLIC "-//W3C//DTD SVG 20010904//EN"
 "http://www.w3.org/TR/2001/REC-SVG-20010904/DTD/svg10.dtd">
<svg version="1.0" xmlns="http://www.w3.org/2000/svg"
 width="1024.000000pt" height="1024.000000pt" viewBox="0 0 1024.000000 1024.000000"
 preserveAspectRatio="xMidYMid meet">
<metadata>
Created by potrace 1.14, written by Peter Selinger 2001-2017
</metadata>
<g transform="translate(0.000000,1024.000000) scale(0.100000,-0.100000)"
fill="#000000" stroke="none">
<path d="M4537 6446 c-116 -43 -115 -108 6 -285 91 -132 149 -270 181 -431 39
-197 61 -589 46 -832 -20 -334 -73 -558 -190 -793 -85 -171 -87 -191 -31 -303
48 -96 97 -156 186 -227 120 -96 149 -95 303 9 406 271 1000 426 1877 488 279
19 1161 17 1345 -4 200 -23 270 -8 308 63 27 52 -18 160 -98 232 -104 93 -331
228 -415 245 -135 28 -397 23 -675 -14 -63 -9 -171 -17 -240 -19 -69 -3 -192
-15 -275 -29 -82 -13 -336 -54 -563 -90 -440 -71 -689 -117 -895 -168 l-127
-32 -28 20 c-15 11 -37 40 -49 64 -21 41 -23 58 -23 215 0 463 35 1078 72
1285 34 185 34 207 1 270 -53 100 -258 236 -464 304 -126 43 -199 52 -252 32z"/>
</g>
</svg>
