<?xml version="1.0" standalone="no"?>
<!DOCTYPE svg PUBLIC "-//W3C//DTD SVG 20010904//EN"
 "http://www.w3.org/TR/2001/REC-SVG-20010904/DTD/svg10.dtd">
<svg version="1.0" xmlns="http://www.w3.org/2000/svg"
 width="73728.000000pt" height="73728.000000pt" viewBox="0 0 73728.000000 73728.000000"
 preserveAspectRatio="xMidYMid meet">
<metadata>
Created by potrace 1.14, written by Peter Selinger 2001-2017
</metadata>
<g transform="translate(0.000000,73728.000000) scale(7.200000,-7.200000)"
fill="#000000" stroke="none">
<path d="M6093 9711 c-49 -13 -97 -44 -111 -73 -11 -23 -9 -39 9 -108 19 -74
20 -90 9 -168 -29 -224 -125 -480 -350 -937 -169 -343 -192 -403 -174 -449 10
-26 70 -19 135 15 90 49 164 122 387 388 374 447 587 680 784 857 72 65 89
112 64 179 -22 55 -74 101 -175 153 -197 102 -473 170 -578 143z"/>
</g>
</svg>
