<?xml version="1.0" standalone="no"?>
<!DOCTYPE svg PUBLIC "-//W3C//DTD SVG 20010904//EN"
 "http://www.w3.org/TR/2001/REC-SVG-20010904/DTD/svg10.dtd">
<svg version="1.0" xmlns="http://www.w3.org/2000/svg"
 width="73728.000000pt" height="73728.000000pt" viewBox="0 0 73728.000000 73728.000000"
 preserveAspectRatio="xMidYMid meet">
<metadata>
Created by potrace 1.14, written by Peter Selinger 2001-2017
</metadata>
<g transform="translate(0.000000,73728.000000) scale(7.200000,-7.200000)"
fill="#000000" stroke="none">
<path d="M6970 5790 c-20 -20 -21 -24 -39 -130 -47 -282 -522 -826 -1031
-1181 -281 -196 -695 -433 -1160 -664 -118 -58 -217 -111 -218 -116 -2 -5 2
-16 8 -24 17 -21 216 -20 333 1 217 37 509 143 813 293 198 97 428 223 459
251 11 10 36 26 55 35 145 73 596 414 972 736 84 72 190 155 236 186 49 33 89
68 99 86 23 45 11 113 -36 205 -91 173 -222 285 -386 328 -67 18 -82 17 -105
-6z"/>
</g>
</svg>
