<?xml version="1.0" standalone="no"?>
<!DOCTYPE svg PUBLIC "-//W3C//DTD SVG 20010904//EN"
 "http://www.w3.org/TR/2001/REC-SVG-20010904/DTD/svg10.dtd">
<svg version="1.0" xmlns="http://www.w3.org/2000/svg"
 width="73728.000000pt" height="73728.000000pt" viewBox="0 0 73728.000000 73728.000000"
 preserveAspectRatio="xMidYMid meet">
<metadata>
Created by potrace 1.14, written by Peter Selinger 2001-2017
</metadata>
<g transform="translate(0.000000,73728.000000) scale(7.200000,-7.200000)"
fill="#000000" stroke="none">
<path d="M7045 6813 c-298 -39 -1385 -260 -1570 -319 -66 -22 -132 -60 -146
-85 -32 -60 30 -99 167 -107 136 -7 249 6 984 117 255 39 524 74 810 105 169
19 231 37 264 77 31 36 31 36 7 74 -22 37 -107 84 -216 119 -65 21 -97 26
-175 25 -52 -1 -108 -4 -125 -6z"/>
</g>
</svg>
