<?xml version="1.0" standalone="no"?>
<!DOCTYPE svg PUBLIC "-//W3C//DTD SVG 20010904//EN"
 "http://www.w3.org/TR/2001/REC-SVG-20010904/DTD/svg10.dtd">
<svg version="1.0" xmlns="http://www.w3.org/2000/svg"
 width="73728.000000pt" height="73728.000000pt" viewBox="0 0 73728.000000 73728.000000"
 preserveAspectRatio="xMidYMid meet">
<metadata>
Created by potrace 1.14, written by Peter Selinger 2001-2017
</metadata>
<g transform="translate(0.000000,73728.000000) scale(7.200000,-7.200000)"
fill="#000000" stroke="none">
<path d="M7615 8579 c-101 -16 -316 -59 -397 -80 -42 -10 -93 -19 -113 -19
-151 0 -608 -100 -1075 -235 -448 -129 -824 -197 -1192 -214 -182 -8 -201 -15
-178 -71 43 -105 311 -240 478 -243 65 -1 97 6 202 40 395 130 816 233 1610
395 300 61 363 70 485 75 170 6 211 -4 237 -57 26 -51 22 -128 -13 -308 -95
-488 -193 -844 -286 -1047 -31 -66 -58 -139 -61 -162 -5 -43 -3 -46 81 -222
36 -75 162 -80 242 -9 46 40 133 165 179 256 47 94 150 342 211 507 116 316
234 492 481 715 122 111 109 207 -47 330 -83 65 -316 213 -466 296 l-108 59
-105 2 c-58 1 -132 -3 -165 -8z"/>
</g>
</svg>
