<?xml version="1.0" standalone="no"?>
<!DOCTYPE svg PUBLIC "-//W3C//DTD SVG 20010904//EN"
 "http://www.w3.org/TR/2001/REC-SVG-20010904/DTD/svg10.dtd">
<svg version="1.0" xmlns="http://www.w3.org/2000/svg"
 width="73728.000000pt" height="73728.000000pt" viewBox="0 0 73728.000000 73728.000000"
 preserveAspectRatio="xMidYMid meet">
<metadata>
Created by potrace 1.14, written by Peter Selinger 2001-2017
</metadata>
<g transform="translate(0.000000,73728.000000) scale(7.200000,-7.200000)"
fill="#000000" stroke="none">
<path d="M7542 3654 c-33 -23 -40 -43 -62 -166 -55 -324 -238 -618 -617 -988
-289 -283 -649 -561 -1130 -871 -308 -199 -930 -523 -1635 -852 -56 -26 -98
-52 -98 -60 0 -8 9 -22 21 -33 42 -38 382 -18 619 37 450 104 1023 373 1627
763 447 288 995 697 1503 1121 177 147 243 198 339 260 91 59 117 105 108 194
-12 127 -80 246 -227 391 -107 107 -187 158 -303 195 -91 29 -115 31 -145 9z"/>
</g>
</svg>
