<?xml version="1.0" standalone="no"?>
<!DOCTYPE svg PUBLIC "-//W3C//DTD SVG 20010904//EN"
 "http://www.w3.org/TR/2001/REC-SVG-20010904/DTD/svg10.dtd">
<svg version="1.0" xmlns="http://www.w3.org/2000/svg"
 width="1024.000000pt" height="1024.000000pt" viewBox="0 0 1024.000000 1024.000000"
 preserveAspectRatio="xMidYMid meet">
<metadata>
Created by potrace 1.14, written by Peter Selinger 2001-2017
</metadata>
<g transform="translate(0.000000,1024.000000) scale(0.100000,-0.100000)"
fill="#000000" stroke="none">
<path d="M7321 4797 c-14 -16 -25 -46 -32 -88 -53 -341 -366 -730 -961 -1193
-139 -108 -386 -286 -439 -316 -15 -8 -51 -31 -80 -51 -146 -97 -609 -336
-1009 -521 -113 -52 -213 -98 -222 -101 -21 -7 -23 -27 -5 -50 29 -40 290 -30
517 19 627 135 1476 650 2442 1481 58 51 151 122 205 158 54 37 106 79 115 93
55 84 -22 281 -167 427 -74 74 -153 122 -244 149 -73 21 -94 20 -120 -7z"/>
</g>
</svg>
