<?xml version="1.0" standalone="no"?>
<!DOCTYPE svg PUBLIC "-//W3C//DTD SVG 20010904//EN"
 "http://www.w3.org/TR/2001/REC-SVG-20010904/DTD/svg10.dtd">
<svg version="1.0" xmlns="http://www.w3.org/2000/svg"
 width="1024.000000pt" height="1024.000000pt" viewBox="0 0 1024.000000 1024.000000"
 preserveAspectRatio="xMidYMid meet">
<metadata>
Created by potrace 1.14, written by Peter Selinger 2001-2017
</metadata>
<g transform="translate(0.000000,1024.000000) scale(0.100000,-0.100000)"
fill="#000000" stroke="none">
<path d="M6747 9571 c-14 -17 -29 -48 -32 -69 -18 -108 -40 -143 -135 -223
-289 -242 -769 -493 -1550 -810 -231 -94 -250 -107 -236 -164 l7 -28 92 7
c199 15 492 77 852 182 321 93 834 269 926 318 150 79 366 137 653 177 234 32
252 36 281 70 27 32 32 78 15 123 -18 49 -84 107 -230 205 -233 155 -399 229
-541 238 -75 6 -75 5 -102 -26z"/>
</g>
</svg>
