<?xml version="1.0" standalone="no"?>
<!DOCTYPE svg PUBLIC "-//W3C//DTD SVG 20010904//EN"
 "http://www.w3.org/TR/2001/REC-SVG-20010904/DTD/svg10.dtd">
<svg version="1.0" xmlns="http://www.w3.org/2000/svg"
 width="73728.000000pt" height="73728.000000pt" viewBox="0 0 73728.000000 73728.000000"
 preserveAspectRatio="xMidYMid meet">
<metadata>
Created by potrace 1.14, written by Peter Selinger 2001-2017
</metadata>
<g transform="translate(0.000000,73728.000000) scale(7.200000,-7.200000)"
fill="#000000" stroke="none">
<path d="M4654 2856 c-29 -22 -22 -115 21 -271 156 -567 494 -1015 962 -1275
195 -109 465 -211 723 -275 308 -75 569 -104 941 -105 371 0 637 24 1034 96
174 31 222 44 369 100 207 79 257 105 321 169 53 53 75 102 75 169 0 32 -8 46
-57 95 -32 31 -98 83 -148 116 -237 156 -623 506 -919 833 -70 78 -137 147
-147 153 -17 9 -59 -2 -59 -16 0 -2 18 -141 39 -307 44 -335 81 -660 81 -708
0 -28 -5 -33 -52 -54 -133 -58 -292 -84 -556 -92 -701 -22 -1319 104 -1682
343 -270 178 -425 379 -545 708 -26 72 -54 143 -62 158 -60 119 -264 217 -339
163z"/>
</g>
</svg>
