<?xml version="1.0" standalone="no"?>
<!DOCTYPE svg PUBLIC "-//W3C//DTD SVG 20010904//EN"
 "http://www.w3.org/TR/2001/REC-SVG-20010904/DTD/svg10.dtd">
<svg version="1.0" xmlns="http://www.w3.org/2000/svg"
 width="1024.000000pt" height="1024.000000pt" viewBox="0 0 1024.000000 1024.000000"
 preserveAspectRatio="xMidYMid meet">
<metadata>
Created by potrace 1.14, written by Peter Selinger 2001-2017
</metadata>
<g transform="translate(0.000000,1024.000000) scale(0.100000,-0.100000)"
fill="#000000" stroke="none">
<path d="M7230 5851 c-30 -10 -102 -37 -160 -61 -590 -239 -1334 -419 -2175
-525 -215 -27 -247 -38 -253 -88 -2 -14 4 -38 14 -52 22 -33 158 -99 249 -121
92 -21 260 -14 363 15 65 19 432 99 1437 312 153 32 295 64 315 69 65 18 171
12 210 -11 58 -36 95 -98 105 -175 11 -82 -99 -581 -206 -939 -22 -73 -39
-150 -39 -178 0 -179 224 -263 355 -133 38 38 48 59 95 202 164 497 308 777
503 981 108 113 134 163 123 241 -13 97 -80 156 -342 297 -77 41 -192 99 -255
127 -104 48 -121 52 -199 55 -63 2 -99 -2 -140 -16z"/>
</g>
</svg>
