<?xml version="1.0" standalone="no"?>
<!DOCTYPE svg PUBLIC "-//W3C//DTD SVG 20010904//EN"
 "http://www.w3.org/TR/2001/REC-SVG-20010904/DTD/svg10.dtd">
<svg version="1.0" xmlns="http://www.w3.org/2000/svg"
 width="73728.000000pt" height="73728.000000pt" viewBox="0 0 73728.000000 73728.000000"
 preserveAspectRatio="xMidYMid meet">
<metadata>
Created by potrace 1.14, written by Peter Selinger 2001-2017
</metadata>
<g transform="translate(0.000000,73728.000000) scale(7.200000,-7.200000)"
fill="#000000" stroke="none">
<path d="M8114 3619 c-13 -15 -20 -40 -22 -89 -4 -58 -1 -75 17 -104 35 -56
173 -179 340 -304 192 -143 359 -277 516 -416 151 -134 199 -159 314 -164 78
-3 89 -2 121 20 66 45 100 118 100 214 0 103 -47 291 -98 389 -62 122 -210
224 -457 317 -184 69 -599 158 -735 158 -65 0 -80 -3 -96 -21z"/>
</g>
</svg>
