<?xml version="1.0" standalone="no"?>
<!DOCTYPE svg PUBLIC "-//W3C//DTD SVG 20010904//EN"
 "http://www.w3.org/TR/2001/REC-SVG-20010904/DTD/svg10.dtd">
<svg version="1.0" xmlns="http://www.w3.org/2000/svg"
 width="1024.000000pt" height="1024.000000pt" viewBox="0 0 1024.000000 1024.000000"
 preserveAspectRatio="xMidYMid meet">
<metadata>
Created by potrace 1.14, written by Peter Selinger 2001-2017
</metadata>
<g transform="translate(0.000000,1024.000000) scale(0.100000,-0.100000)"
fill="#000000" stroke="none">
<path d="M7684 8799 c-35 -17 -55 -65 -64 -153 -6 -61 -17 -100 -39 -144 -50
-99 -216 -294 -478 -563 -84 -86 -155 -167 -158 -181 -4 -14 -5 -39 -3 -54 3
-26 7 -29 45 -32 34 -3 60 7 150 53 600 313 941 478 1012 490 53 9 91 43 91
83 0 38 -67 173 -124 250 -103 139 -182 203 -294 241 -67 23 -105 25 -138 10z"/>
</g>
</svg>
