<?xml version="1.0" standalone="no"?>
<!DOCTYPE svg PUBLIC "-//W3C//DTD SVG 20010904//EN"
 "http://www.w3.org/TR/2001/REC-SVG-20010904/DTD/svg10.dtd">
<svg version="1.0" xmlns="http://www.w3.org/2000/svg"
 width="1024.000000pt" height="1024.000000pt" viewBox="0 0 1024.000000 1024.000000"
 preserveAspectRatio="xMidYMid meet">
<metadata>
Created by potrace 1.14, written by Peter Selinger 2001-2017
</metadata>
<g transform="translate(0.000000,1024.000000) scale(0.100000,-0.100000)"
fill="#000000" stroke="none">
<path d="M5750 3295 c-15 -18 -25 -103 -16 -139 9 -36 97 -128 195 -204 108
-83 303 -248 445 -375 169 -151 308 -207 396 -160 54 30 90 108 90 197 0 75
-25 195 -60 288 -55 148 -280 268 -696 373 -115 28 -160 35 -242 35 -77 0
-102 -3 -112 -15z"/>
</g>
</svg>
