<?xml version="1.0" standalone="no"?>
<!DOCTYPE svg PUBLIC "-//W3C//DTD SVG 20010904//EN"
 "http://www.w3.org/TR/2001/REC-SVG-20010904/DTD/svg10.dtd">
<svg version="1.0" xmlns="http://www.w3.org/2000/svg"
 width="1024.000000pt" height="1024.000000pt" viewBox="0 0 1024.000000 1024.000000"
 preserveAspectRatio="xMidYMid meet">
<metadata>
Created by potrace 1.14, written by Peter Selinger 2001-2017
</metadata>
<g transform="translate(0.000000,1024.000000) scale(0.100000,-0.100000)"
fill="#000000" stroke="none">
<path d="M8310 6697 c-19 -8 -82 -37 -140 -65 -164 -78 -384 -146 -660 -202
-58 -12 -114 -26 -125 -31 -34 -16 -401 -86 -854 -164 -469 -81 -494 -88 -539
-155 -35 -51 -27 -118 19 -166 63 -65 133 -68 334 -16 66 17 253 58 415 91
364 75 600 128 795 181 318 87 572 129 698 116 112 -12 148 -61 177 -236 21
-129 29 -501 20 -885 -9 -412 -17 -473 -67 -575 l-28 -55 -310 0 -310 0 2 -28
c2 -22 35 -63 145 -176 162 -166 287 -308 407 -464 93 -121 129 -152 197 -173
52 -16 142 -10 185 12 65 33 124 131 212 354 104 261 140 509 118 800 -6 80
-16 287 -22 461 -17 478 5 830 60 949 31 68 28 110 -11 147 -59 54 -235 149
-443 238 -124 53 -213 66 -275 42z"/>
</g>
</svg>
