<?xml version="1.0" standalone="no"?>
<!DOCTYPE svg PUBLIC "-//W3C//DTD SVG 20010904//EN"
 "http://www.w3.org/TR/2001/REC-SVG-20010904/DTD/svg10.dtd">
<svg version="1.0" xmlns="http://www.w3.org/2000/svg"
 width="1024.000000pt" height="1024.000000pt" viewBox="0 0 1024.000000 1024.000000"
 preserveAspectRatio="xMidYMid meet">
<metadata>
Created by potrace 1.14, written by Peter Selinger 2001-2017
</metadata>
<g transform="translate(0.000000,1024.000000) scale(0.100000,-0.100000)"
fill="#000000" stroke="none">
<path d="M2603 9570 c-96 -20 -133 -58 -133 -134 0 -54 14 -82 106 -217 94
-139 152 -283 174 -435 21 -151 -1 -2728 -30 -3519 -6 -143 -14 -750 -20
-1350 -5 -611 -14 -1121 -20 -1162 -13 -95 -42 -170 -86 -221 -32 -38 -40 -42
-82 -42 -26 0 -87 9 -137 20 -105 23 -439 133 -505 165 -90 45 -167 68 -205
61 -30 -6 -35 -11 -35 -35 0 -44 54 -115 211 -276 256 -263 400 -431 518 -605
65 -96 86 -134 170 -310 33 -69 77 -147 98 -175 47 -61 124 -115 165 -115 37
0 96 30 129 67 75 81 172 223 198 293 100 257 164 593 191 1000 9 132 8 223
-4 455 -65 1230 -88 2316 -67 3210 21 918 28 1047 96 1715 56 547 108 891 150
990 76 181 -15 318 -297 441 -40 17 -109 51 -153 75 -155 83 -330 126 -432
104z"/>
</g>
</svg>
