<?xml version="1.0" standalone="no"?>
<!DOCTYPE svg PUBLIC "-//W3C//DTD SVG 20010904//EN"
 "http://www.w3.org/TR/2001/REC-SVG-20010904/DTD/svg10.dtd">
<svg version="1.0" xmlns="http://www.w3.org/2000/svg"
 width="1024.000000pt" height="1024.000000pt" viewBox="0 0 1024.000000 1024.000000"
 preserveAspectRatio="xMidYMid meet">
<metadata>
Created by potrace 1.14, written by Peter Selinger 2001-2017
</metadata>
<g transform="translate(0.000000,1024.000000) scale(0.100000,-0.100000)"
fill="#000000" stroke="none">
<path d="M6790 7797 c-68 -24 -110 -66 -110 -110 0 -11 22 -64 49 -116 56
-112 83 -186 116 -325 66 -279 75 -442 75 -1441 0 -1717 29 -2937 76 -3260 17
-116 57 -212 97 -234 24 -13 31 -12 63 5 49 26 78 63 103 130 84 223 111 942
111 2952 0 1342 5 1464 76 1852 34 182 20 266 -52 329 -41 36 -238 155 -314
189 -126 56 -192 63 -290 29z"/>
</g>
</svg>
