<?xml version="1.0" standalone="no"?>
<!DOCTYPE svg PUBLIC "-//W3C//DTD SVG 20010904//EN"
 "http://www.w3.org/TR/2001/REC-SVG-20010904/DTD/svg10.dtd">
<svg version="1.0" xmlns="http://www.w3.org/2000/svg"
 width="1024.000000pt" height="1024.000000pt" viewBox="0 0 1024.000000 1024.000000"
 preserveAspectRatio="xMidYMid meet">
<metadata>
Created by potrace 1.14, written by Peter Selinger 2001-2017
</metadata>
<g transform="translate(0.000000,1024.000000) scale(0.100000,-0.100000)"
fill="#000000" stroke="none">
<path d="M3505 7349 c-90 -14 -164 -40 -480 -175 -249 -105 -323 -132 -525
-188 -330 -91 -719 -187 -979 -240 -233 -48 -275 -61 -328 -102 -76 -58 -15
-146 141 -202 162 -59 267 -75 471 -69 201 5 143 -7 705 145 554 150 758 208
898 257 74 25 193 61 265 79 266 69 432 131 477 181 21 22 25 36 25 90 0 49
-4 68 -20 85 -36 41 -108 80 -205 112 -86 28 -108 32 -240 34 -80 1 -172 -2
-205 -7z"/>
</g>
</svg>
