<?xml version="1.0" standalone="no"?>
<!DOCTYPE svg PUBLIC "-//W3C//DTD SVG 20010904//EN"
 "http://www.w3.org/TR/2001/REC-SVG-20010904/DTD/svg10.dtd">
<svg version="1.0" xmlns="http://www.w3.org/2000/svg"
 width="1024.000000pt" height="1024.000000pt" viewBox="0 0 1024.000000 1024.000000"
 preserveAspectRatio="xMidYMid meet">
<metadata>
Created by potrace 1.14, written by Peter Selinger 2001-2017
</metadata>
<g transform="translate(0.000000,1024.000000) scale(0.100000,-0.100000)"
fill="#000000" stroke="none">
<path d="M5726 6290 c-72 -22 -84 -71 -36 -148 73 -119 137 -325 160 -517 15
-122 16 -446 1 -575 -17 -148 -62 -401 -78 -445 -65 -171 -74 -207 -74 -293
-1 -160 44 -272 170 -424 69 -84 86 -98 111 -98 87 0 185 183 236 440 15 75
18 189 21 969 l4 885 -71 68 c-79 76 -140 111 -232 133 -69 16 -166 18 -212 5z"/>
</g>
</svg>
