<?xml version="1.0" standalone="no"?>
<!DOCTYPE svg PUBLIC "-//W3C//DTD SVG 20010904//EN"
 "http://www.w3.org/TR/2001/REC-SVG-20010904/DTD/svg10.dtd">
<svg version="1.0" xmlns="http://www.w3.org/2000/svg"
 width="1024.000000pt" height="1024.000000pt" viewBox="0 0 1024.000000 1024.000000"
 preserveAspectRatio="xMidYMid meet">
<metadata>
Created by potrace 1.14, written by Peter Selinger 2001-2017
</metadata>
<g transform="translate(0.000000,1024.000000) scale(0.100000,-0.100000)"
fill="#000000" stroke="none">
<path d="M2604 2541 c-43 -26 -65 -60 -120 -186 -75 -171 -203 -417 -301 -581
-151 -249 -175 -313 -176 -464 -1 -99 15 -154 80 -283 53 -103 80 -123 151
-113 70 9 135 52 230 150 225 233 309 448 333 857 13 226 7 362 -21 474 -17
71 -25 85 -66 123 -52 47 -66 50 -110 23z"/>
</g>
</svg>
