<?xml version="1.0" standalone="no"?>
<!DOCTYPE svg PUBLIC "-//W3C//DTD SVG 20010904//EN"
 "http://www.w3.org/TR/2001/REC-SVG-20010904/DTD/svg10.dtd">
<svg version="1.0" xmlns="http://www.w3.org/2000/svg"
 width="73728.000000pt" height="73728.000000pt" viewBox="0 0 73728.000000 73728.000000"
 preserveAspectRatio="xMidYMid meet">
<metadata>
Created by potrace 1.14, written by Peter Selinger 2001-2017
</metadata>
<g transform="translate(0.000000,73728.000000) scale(7.200000,-7.200000)"
fill="#000000" stroke="none">
<path d="M3056 6324 c-19 -19 -20 -51 -4 -144 19 -113 -10 -264 -83 -425 -40
-90 -209 -377 -326 -555 -136 -206 -221 -299 -370 -401 -142 -98 -183 -151
-183 -235 0 -131 122 -362 200 -379 24 -5 53 4 137 43 266 123 510 172 943
191 229 10 283 20 351 65 68 46 48 92 -51 115 -25 6 -214 20 -420 31 -437 23
-457 25 -499 51 -48 29 -43 65 22 136 29 32 82 92 117 133 128 148 267 299
504 545 221 229 276 296 276 338 0 27 -28 83 -76 147 -74 101 -291 315 -344
339 -57 26 -171 29 -194 5z"/>
</g>
</svg>
