<?xml version="1.0" standalone="no"?>
<!DOCTYPE svg PUBLIC "-//W3C//DTD SVG 20010904//EN"
 "http://www.w3.org/TR/2001/REC-SVG-20010904/DTD/svg10.dtd">
<svg version="1.0" xmlns="http://www.w3.org/2000/svg"
 width="1024.000000pt" height="1024.000000pt" viewBox="0 0 1024.000000 1024.000000"
 preserveAspectRatio="xMidYMid meet">
<metadata>
Created by potrace 1.14, written by Peter Selinger 2001-2017
</metadata>
<g transform="translate(0.000000,1024.000000) scale(0.100000,-0.100000)"
fill="#000000" stroke="none">
<path d="M3748 2530 c-39 -30 -59 -82 -52 -132 8 -59 94 -339 161 -528 132
-372 230 -548 332 -593 57 -25 101 -16 152 30 55 50 87 108 104 189 37 174 -6
344 -120 484 -25 30 -96 123 -159 205 -182 241 -307 365 -366 365 -15 0 -39
-9 -52 -20z"/>
</g>
</svg>
