<?xml version="1.0" standalone="no"?>
<!DOCTYPE svg PUBLIC "-//W3C//DTD SVG 20010904//EN"
 "http://www.w3.org/TR/2001/REC-SVG-20010904/DTD/svg10.dtd">
<svg version="1.0" xmlns="http://www.w3.org/2000/svg"
 width="1024.000000pt" height="1024.000000pt" viewBox="0 0 1024.000000 1024.000000"
 preserveAspectRatio="xMidYMid meet">
<metadata>
Created by potrace 1.14, written by Peter Selinger 2001-2017
</metadata>
<g transform="translate(0.000000,1024.000000) scale(0.100000,-0.100000)"
fill="#000000" stroke="none">
<path d="M6191 2824 c-71 -90 -23 -222 160 -444 194 -235 583 -766 728 -993
119 -187 210 -286 278 -303 41 -11 126 22 170 64 64 62 77 126 75 357 -2 198
-10 255 -48 342 -73 168 -276 374 -539 550 -259 173 -745 453 -786 453 -10 0
-27 -12 -38 -26z"/>
</g>
</svg>
