<?xml version="1.0" standalone="no"?>
<!DOCTYPE svg PUBLIC "-//W3C//DTD SVG 20010904//EN"
 "http://www.w3.org/TR/2001/REC-SVG-20010904/DTD/svg10.dtd">
<svg version="1.0" xmlns="http://www.w3.org/2000/svg"
 width="73728.000000pt" height="73728.000000pt" viewBox="0 0 73728.000000 73728.000000"
 preserveAspectRatio="xMidYMid meet">
<metadata>
Created by potrace 1.14, written by Peter Selinger 2001-2017
</metadata>
<g transform="translate(0.000000,73728.000000) scale(7.200000,-7.200000)"
fill="#000000" stroke="none">
<path d="M5380 6949 c-358 -48 -1447 -253 -1544 -290 -76 -29 -118 -69 -114
-106 2 -22 13 -33 53 -53 44 -22 66 -25 185 -28 121 -3 172 1 485 47 387 55
751 100 1070 130 227 22 269 30 309 62 64 51 10 131 -138 203 -87 43 -99 46
-167 45 -41 -1 -103 -5 -139 -10z"/>
</g>
</svg>
