<?xml version="1.0" standalone="no"?>
<!DOCTYPE svg PUBLIC "-//W3C//DTD SVG 20010904//EN"
 "http://www.w3.org/TR/2001/REC-SVG-20010904/DTD/svg10.dtd">
<svg version="1.0" xmlns="http://www.w3.org/2000/svg"
 width="73728.000000pt" height="73728.000000pt" viewBox="0 0 73728.000000 73728.000000"
 preserveAspectRatio="xMidYMid meet">
<metadata>
Created by potrace 1.14, written by Peter Selinger 2001-2017
</metadata>
<g transform="translate(0.000000,73728.000000) scale(7.200000,-7.200000)"
fill="#000000" stroke="none">
<path d="M6000 8944 c-14 -3 -64 -11 -112 -19 -47 -8 -122 -26 -165 -40 -43
-14 -168 -41 -278 -60 -486 -83 -1862 -358 -1910 -381 -74 -35 -127 -124 -111
-187 23 -93 129 -129 271 -92 33 9 119 31 190 50 345 90 816 185 1465 296 383
66 555 59 633 -25 48 -52 60 -85 59 -157 -1 -96 -107 -679 -172 -954 -63 -264
-102 -348 -186 -403 -131 -84 -162 -119 -145 -165 18 -46 188 -263 256 -324
37 -35 91 -74 119 -88 45 -22 56 -23 90 -14 57 16 131 94 171 182 67 145 166
470 292 957 36 140 77 286 90 325 53 146 154 319 252 430 88 99 96 142 46 231
-49 84 -334 300 -539 408 -56 29 -67 31 -175 33 -64 1 -127 -1 -141 -3z"/>
</g>
</svg>
