<?xml version="1.0" standalone="no"?>
<!DOCTYPE svg PUBLIC "-//W3C//DTD SVG 20010904//EN"
 "http://www.w3.org/TR/2001/REC-SVG-20010904/DTD/svg10.dtd">
<svg version="1.0" xmlns="http://www.w3.org/2000/svg"
 width="1024.000000pt" height="1024.000000pt" viewBox="0 0 1024.000000 1024.000000"
 preserveAspectRatio="xMidYMid meet">
<metadata>
Created by potrace 1.14, written by Peter Selinger 2001-2017
</metadata>
<g transform="translate(0.000000,1024.000000) scale(0.100000,-0.100000)"
fill="#000000" stroke="none">
<path d="M6055 5369 c-774 -157 -1414 -259 -2125 -339 -245 -27 -465 -55 -490
-61 -69 -16 -110 -47 -132 -97 -36 -81 2 -161 99 -208 50 -25 72 -29 163 -32
87 -3 153 4 390 42 308 49 1736 218 1990 235 85 6 371 25 634 42 506 32 514
33 555 85 47 59 34 97 -67 197 l-67 66 -286 66 c-158 36 -306 65 -330 64 -24
-1 -174 -28 -334 -60z"/>
</g>
</svg>
