<?xml version="1.0" standalone="no"?>
<!DOCTYPE svg PUBLIC "-//W3C//DTD SVG 20010904//EN"
 "http://www.w3.org/TR/2001/REC-SVG-20010904/DTD/svg10.dtd">
<svg version="1.0" xmlns="http://www.w3.org/2000/svg"
 width="73728.000000pt" height="73728.000000pt" viewBox="0 0 73728.000000 73728.000000"
 preserveAspectRatio="xMidYMid meet">
<metadata>
Created by potrace 1.14, written by Peter Selinger 2001-2017
</metadata>
<g transform="translate(0.000000,73728.000000) scale(7.200000,-7.200000)"
fill="#000000" stroke="none">
<path d="M6715 7243 c-11 -3 -159 -51 -330 -108 -473 -158 -790 -245 -1203
-329 -557 -114 -1248 -217 -1847 -276 -115 -12 -226 -26 -245 -32 -91 -28
-137 -103 -127 -205 11 -104 92 -182 189 -183 26 0 99 16 162 35 67 20 207 50
338 71 308 49 446 72 953 153 242 39 492 83 555 97 194 43 540 111 850 166
260 46 311 52 435 53 139 0 141 0 208 -33 85 -42 107 -74 107 -153 0 -76 -24
-198 -66 -337 -40 -131 -221 -642 -254 -716 -17 -37 -21 -62 -18 -102 6 -72
40 -114 125 -156 63 -31 75 -33 168 -33 83 0 108 4 150 23 80 37 110 75 195
243 212 417 442 716 630 819 171 93 238 248 167 386 -54 106 -274 271 -672
503 -172 100 -235 121 -359 120 -50 -1 -100 -3 -111 -6z"/>
</g>
</svg>
