<?xml version="1.0" standalone="no"?>
<!DOCTYPE svg PUBLIC "-//W3C//DTD SVG 20010904//EN"
 "http://www.w3.org/TR/2001/REC-SVG-20010904/DTD/svg10.dtd">
<svg version="1.0" xmlns="http://www.w3.org/2000/svg"
 width="1024.000000pt" height="1024.000000pt" viewBox="0 0 1024.000000 1024.000000"
 preserveAspectRatio="xMidYMid meet">
<metadata>
Created by potrace 1.14, written by Peter Selinger 2001-2017
</metadata>
<g transform="translate(0.000000,1024.000000) scale(0.100000,-0.100000)"
fill="#000000" stroke="none">
<path d="M4189 9811 l-29 -29 0 -197 c0 -369 -61 -622 -236 -984 -199 -412
-516 -839 -797 -1074 -114 -96 -208 -194 -355 -369 -83 -100 -115 -165 -94
-198 15 -25 87 -23 186 5 378 108 822 473 1300 1070 124 155 255 334 282 386
42 83 255 387 489 699 122 162 125 167 125 221 0 95 -69 174 -264 304 -195
130 -365 195 -508 195 -63 0 -72 -3 -99 -29z"/>
</g>
</svg>
