<?xml version="1.0" standalone="no"?>
<!DOCTYPE svg PUBLIC "-//W3C//DTD SVG 20010904//EN"
 "http://www.w3.org/TR/2001/REC-SVG-20010904/DTD/svg10.dtd">
<svg version="1.0" xmlns="http://www.w3.org/2000/svg"
 width="73728.000000pt" height="73728.000000pt" viewBox="0 0 73728.000000 73728.000000"
 preserveAspectRatio="xMidYMid meet">
<metadata>
Created by potrace 1.14, written by Peter Selinger 2001-2017
</metadata>
<g transform="translate(0.000000,73728.000000) scale(7.200000,-7.200000)"
fill="#000000" stroke="none">
<path d="M3341 3195 c-36 -16 -334 -312 -871 -865 -184 -190 -361 -366 -393
-392 -74 -60 -179 -123 -248 -148 -94 -34 -115 -85 -105 -250 25 -399 113
-661 279 -837 62 -66 93 -83 147 -83 72 0 106 55 154 245 18 72 75 219 146
375 125 277 626 1251 833 1620 144 255 159 297 121 334 -19 19 -20 19 -63 1z"/>
</g>
</svg>
