<?xml version="1.0" standalone="no"?>
<!DOCTYPE svg PUBLIC "-//W3C//DTD SVG 20010904//EN"
 "http://www.w3.org/TR/2001/REC-SVG-20010904/DTD/svg10.dtd">
<svg version="1.0" xmlns="http://www.w3.org/2000/svg"
 width="1024.000000pt" height="1024.000000pt" viewBox="0 0 1024.000000 1024.000000"
 preserveAspectRatio="xMidYMid meet">
<metadata>
Created by potrace 1.14, written by Peter Selinger 2001-2017
</metadata>
<g transform="translate(0.000000,1024.000000) scale(0.100000,-0.100000)"
fill="#000000" stroke="none">
<path d="M2770 5603 c-77 -31 -64 -116 39 -237 58 -69 102 -153 131 -256 20
-67 23 -114 32 -435 5 -198 7 -589 4 -870 -7 -641 -21 -883 -71 -1180 -30
-177 -64 -286 -125 -400 -58 -109 -72 -157 -71 -246 1 -172 142 -433 280 -521
87 -55 118 -37 224 125 129 197 429 583 836 1077 153 185 232 305 216 329 -10
17 -55 13 -102 -8 -23 -11 -135 -75 -250 -144 -250 -149 -474 -279 -526 -303
-36 -17 -37 -17 -51 2 -8 10 -22 46 -31 80 -16 56 -16 101 -6 530 23 954 55
1531 98 1804 22 135 22 236 1 275 -36 68 -202 212 -336 292 -110 65 -245 105
-292 86z"/>
</g>
</svg>
