<?xml version="1.0" standalone="no"?>
<!DOCTYPE svg PUBLIC "-//W3C//DTD SVG 20010904//EN"
 "http://www.w3.org/TR/2001/REC-SVG-20010904/DTD/svg10.dtd">
<svg version="1.0" xmlns="http://www.w3.org/2000/svg"
 width="73728.000000pt" height="73728.000000pt" viewBox="0 0 73728.000000 73728.000000"
 preserveAspectRatio="xMidYMid meet">
<metadata>
Created by potrace 1.14, written by Peter Selinger 2001-2017
</metadata>
<g transform="translate(0.000000,73728.000000) scale(7.200000,-7.200000)"
fill="#000000" stroke="none">
<path d="M6542 6748 c-23 -26 -42 -69 -42 -100 0 -136 -373 -413 -1035 -769
-326 -175 -269 -281 95 -176 69 20 229 63 355 96 139 36 303 87 415 129 369
139 732 248 904 271 256 36 205 186 -136 404 -168 108 -331 167 -459 167 -65
0 -78 -3 -97 -22z"/>
</g>
</svg>
