<?xml version="1.0" standalone="no"?>
<!DOCTYPE svg PUBLIC "-//W3C//DTD SVG 20010904//EN"
 "http://www.w3.org/TR/2001/REC-SVG-20010904/DTD/svg10.dtd">
<svg version="1.0" xmlns="http://www.w3.org/2000/svg"
 width="1024.000000pt" height="1024.000000pt" viewBox="0 0 1024.000000 1024.000000"
 preserveAspectRatio="xMidYMid meet">
<metadata>
Created by potrace 1.14, written by Peter Selinger 2001-2017
</metadata>
<g transform="translate(0.000000,1024.000000) scale(0.100000,-0.100000)"
fill="#000000" stroke="none">
<path d="M8555 2349 c-44 -4 -114 -14 -155 -23 -41 -8 -95 -17 -120 -21 -25
-3 -90 -15 -145 -25 -183 -35 -608 -99 -770 -115 -167 -17 -323 -37 -610 -80
-93 -14 -240 -30 -325 -35 -158 -11 -363 -34 -435 -50 -22 -4 -98 -14 -170
-20 -191 -17 -461 -48 -615 -70 -74 -11 -263 -31 -420 -45 -390 -35 -773 -72
-967 -94 -216 -25 -239 -40 -194 -130 25 -48 124 -140 195 -180 121 -69 298
-109 411 -92 33 5 137 27 230 49 1139 269 2634 388 4425 353 487 -10 562 -9
606 4 60 17 83 40 91 87 13 82 -74 194 -221 285 -139 86 -277 144 -423 178
-58 14 -260 37 -293 34 -8 -1 -51 -5 -95 -10z"/>
</g>
</svg>
