<?xml version="1.0" standalone="no"?>
<!DOCTYPE svg PUBLIC "-//W3C//DTD SVG 20010904//EN"
 "http://www.w3.org/TR/2001/REC-SVG-20010904/DTD/svg10.dtd">
<svg version="1.0" xmlns="http://www.w3.org/2000/svg"
 width="73728.000000pt" height="73728.000000pt" viewBox="0 0 73728.000000 73728.000000"
 preserveAspectRatio="xMidYMid meet">
<metadata>
Created by potrace 1.14, written by Peter Selinger 2001-2017
</metadata>
<g transform="translate(0.000000,73728.000000) scale(7.200000,-7.200000)"
fill="#000000" stroke="none">
<path d="M4338 3742 c-9 -4 -26 -20 -38 -35 -31 -40 -22 -106 30 -225 135
-309 253 -781 330 -1318 28 -197 78 -334 157 -432 63 -77 137 -95 186 -44 93
97 90 256 -28 1447 -34 334 -44 406 -61 432 -31 49 -156 96 -402 152 -141 33
-147 34 -174 23z"/>
</g>
</svg>
