<?xml version="1.0" standalone="no"?>
<!DOCTYPE svg PUBLIC "-//W3C//DTD SVG 20010904//EN"
 "http://www.w3.org/TR/2001/REC-SVG-20010904/DTD/svg10.dtd">
<svg version="1.0" xmlns="http://www.w3.org/2000/svg"
 width="1024.000000pt" height="1024.000000pt" viewBox="0 0 1024.000000 1024.000000"
 preserveAspectRatio="xMidYMid meet">
<metadata>
Created by potrace 1.14, written by Peter Selinger 2001-2017
</metadata>
<g transform="translate(0.000000,1024.000000) scale(0.100000,-0.100000)"
fill="#000000" stroke="none">
<path d="M5489 3598 c-2 -43 2 -83 16 -158 7 -42 16 -183 19 -322 10 -396 41
-686 97 -908 43 -169 180 -440 224 -440 20 0 47 56 80 165 27 87 27 95 22 265
-5 183 -31 396 -92 760 -19 113 -37 230 -40 261 -9 87 -52 162 -149 266 -115
122 -175 159 -177 111z"/>
</g>
</svg>
