<?xml version="1.0" standalone="no"?>
<!DOCTYPE svg PUBLIC "-//W3C//DTD SVG 20010904//EN"
 "http://www.w3.org/TR/2001/REC-SVG-20010904/DTD/svg10.dtd">
<svg version="1.0" xmlns="http://www.w3.org/2000/svg"
 width="1024.000000pt" height="1024.000000pt" viewBox="0 0 1024.000000 1024.000000"
 preserveAspectRatio="xMidYMid meet">
<metadata>
Created by potrace 1.14, written by Peter Selinger 2001-2017
</metadata>
<g transform="translate(0.000000,1024.000000) scale(0.100000,-0.100000)"
fill="#000000" stroke="none">
<path d="M6220 9424 c-59 -12 -119 -36 -140 -59 -38 -41 -17 -71 113 -156 171
-111 292 -239 520 -549 222 -303 476 -635 712 -930 529 -663 889 -1031 1058
-1082 100 -30 729 35 1132 117 95 20 197 72 209 107 13 38 -9 60 -92 93 -701
280 -1312 616 -1736 955 -299 239 -718 653 -1218 1206 -265 293 -272 298 -428
300 -58 1 -116 0 -130 -2z"/>
</g>
</svg>
