<?xml version="1.0" standalone="no"?>
<!DOCTYPE svg PUBLIC "-//W3C//DTD SVG 20010904//EN"
 "http://www.w3.org/TR/2001/REC-SVG-20010904/DTD/svg10.dtd">
<svg version="1.0" xmlns="http://www.w3.org/2000/svg"
 width="73728.000000pt" height="73728.000000pt" viewBox="0 0 73728.000000 73728.000000"
 preserveAspectRatio="xMidYMid meet">
<metadata>
Created by potrace 1.14, written by Peter Selinger 2001-2017
</metadata>
<g transform="translate(0.000000,73728.000000) scale(7.200000,-7.200000)"
fill="#000000" stroke="none">
<path d="M6760 9205 c-8 -2 -32 -6 -53 -10 -54 -9 -71 -40 -77 -145 -8 -127
-27 -159 -199 -330 -80 -80 -191 -183 -246 -229 -235 -195 -571 -435 -885
-631 -91 -57 -173 -110 -182 -118 -21 -18 -23 -61 -4 -87 13 -18 18 -18 82 -6
160 29 410 131 804 327 349 175 593 306 710 384 176 116 572 296 748 340 117
29 152 66 138 143 -13 69 -60 115 -186 178 -223 112 -408 173 -560 183 -41 2
-82 3 -90 1z"/>
</g>
</svg>
