<?xml version="1.0" standalone="no"?>
<!DOCTYPE svg PUBLIC "-//W3C//DTD SVG 20010904//EN"
 "http://www.w3.org/TR/2001/REC-SVG-20010904/DTD/svg10.dtd">
<svg version="1.0" xmlns="http://www.w3.org/2000/svg"
 width="1024.000000pt" height="1024.000000pt" viewBox="0 0 1024.000000 1024.000000"
 preserveAspectRatio="xMidYMid meet">
<metadata>
Created by potrace 1.14, written by Peter Selinger 2001-2017
</metadata>
<g transform="translate(0.000000,1024.000000) scale(0.100000,-0.100000)"
fill="#000000" stroke="none">
<path d="M4875 3344 c-34 -37 -33 -97 5 -210 93 -273 94 -555 4 -831 -36 -110
-85 -199 -161 -290 -82 -99 -106 -145 -107 -205 0 -60 31 -108 139 -214 101
-99 165 -134 246 -134 54 0 61 3 116 49 116 96 247 167 482 261 370 147 1012
329 1781 505 310 71 421 92 562 104 98 8 240 2 266 -12 4 -2 42 -1 85 4 97 9
145 37 177 104 64 131 -13 265 -152 265 -126 0 -833 -109 -1228 -189 -752
-153 -1192 -257 -1471 -347 -131 -42 -192 -45 -215 -9 -20 31 -17 67 25 263
55 261 61 464 17 551 -19 35 -184 194 -271 259 -102 76 -158 102 -222 102 -45
0 -58 -4 -78 -26z"/>
</g>
</svg>
