<?xml version="1.0" standalone="no"?>
<!DOCTYPE svg PUBLIC "-//W3C//DTD SVG 20010904//EN"
 "http://www.w3.org/TR/2001/REC-SVG-20010904/DTD/svg10.dtd">
<svg version="1.0" xmlns="http://www.w3.org/2000/svg"
 width="1024.000000pt" height="1024.000000pt" viewBox="0 0 1024.000000 1024.000000"
 preserveAspectRatio="xMidYMid meet">
<metadata>
Created by potrace 1.14, written by Peter Selinger 2001-2017
</metadata>
<g transform="translate(0.000000,1024.000000) scale(0.100000,-0.100000)"
fill="#000000" stroke="none">
<path d="M8175 3811 c-83 -21 -123 -68 -112 -134 3 -17 20 -55 39 -83 62 -92
108 -267 149 -570 25 -178 28 -445 9 -614 -19 -159 -23 -355 -11 -423 18 -96
49 -184 99 -281 73 -142 130 -189 192 -156 31 17 92 109 117 177 46 126 54
224 52 611 -3 437 23 785 71 974 36 139 18 220 -60 277 -89 64 -408 215 -475
224 -22 3 -53 2 -70 -2z"/>
</g>
</svg>
