<?xml version="1.0" standalone="no"?>
<!DOCTYPE svg PUBLIC "-//W3C//DTD SVG 20010904//EN"
 "http://www.w3.org/TR/2001/REC-SVG-20010904/DTD/svg10.dtd">
<svg version="1.0" xmlns="http://www.w3.org/2000/svg"
 width="73728.000000pt" height="73728.000000pt" viewBox="0 0 73728.000000 73728.000000"
 preserveAspectRatio="xMidYMid meet">
<metadata>
Created by potrace 1.14, written by Peter Selinger 2001-2017
</metadata>
<g transform="translate(0.000000,73728.000000) scale(7.200000,-7.200000)"
fill="#000000" stroke="none">
<path d="M6353 5358 c-53 -26 -54 -103 -2 -220 57 -131 88 -300 110 -598 6
-89 14 -592 18 -1175 6 -956 7 -1022 24 -1053 26 -48 72 -72 135 -72 29 0 67
6 86 14 75 31 146 124 160 207 3 18 10 129 16 244 18 344 59 1037 65 1078 3
20 12 209 20 420 15 383 30 666 41 744 5 41 4 43 -61 105 -233 220 -506 357
-612 306z"/>
</g>
</svg>
