<?xml version="1.0" standalone="no"?>
<!DOCTYPE svg PUBLIC "-//W3C//DTD SVG 20010904//EN"
 "http://www.w3.org/TR/2001/REC-SVG-20010904/DTD/svg10.dtd">
<svg version="1.0" xmlns="http://www.w3.org/2000/svg"
 width="1024.000000pt" height="1024.000000pt" viewBox="0 0 1024.000000 1024.000000"
 preserveAspectRatio="xMidYMid meet">
<metadata>
Created by potrace 1.14, written by Peter Selinger 2001-2017
</metadata>
<g transform="translate(0.000000,1024.000000) scale(0.100000,-0.100000)"
fill="#000000" stroke="none">
<path d="M7912 8134 c-56 -29 -62 -53 -60 -236 3 -148 1 -169 -19 -222 -51
-134 -370 -634 -688 -1077 -93 -129 -173 -249 -178 -267 -8 -25 -7 -40 6 -67
14 -30 22 -35 49 -35 58 1 116 37 251 158 584 523 1204 1029 1355 1106 60 30
92 68 92 108 0 76 -143 259 -289 368 -177 133 -426 212 -519 164z"/>
</g>
</svg>
