<?xml version="1.0" standalone="no"?>
<!DOCTYPE svg PUBLIC "-//W3C//DTD SVG 20010904//EN"
 "http://www.w3.org/TR/2001/REC-SVG-20010904/DTD/svg10.dtd">
<svg version="1.0" xmlns="http://www.w3.org/2000/svg"
 width="1024.000000pt" height="1024.000000pt" viewBox="0 0 1024.000000 1024.000000"
 preserveAspectRatio="xMidYMid meet">
<metadata>
Created by potrace 1.14, written by Peter Selinger 2001-2017
</metadata>
<g transform="translate(0.000000,1024.000000) scale(0.100000,-0.100000)"
fill="#000000" stroke="none">
<path d="M5310 6105 c-25 -26 -25 -28 -25 -218 -1 -199 -3 -218 -52 -372 -51
-160 -153 -349 -282 -522 -58 -78 -299 -372 -352 -428 -36 -39 -59 -84 -52
-102 10 -26 117 -11 191 25 149 74 394 265 557 433 109 113 258 300 276 345 9
26 219 308 292 393 26 30 49 69 53 86 14 76 -50 154 -215 262 -118 78 -209
115 -296 121 -66 4 -71 2 -95 -23z"/>
</g>
</svg>
