<?xml version="1.0" standalone="no"?>
<!DOCTYPE svg PUBLIC "-//W3C//DTD SVG 20010904//EN"
 "http://www.w3.org/TR/2001/REC-SVG-20010904/DTD/svg10.dtd">
<svg version="1.0" xmlns="http://www.w3.org/2000/svg"
 width="73728.000000pt" height="73728.000000pt" viewBox="0 0 73728.000000 73728.000000"
 preserveAspectRatio="xMidYMid meet">
<metadata>
Created by potrace 1.14, written by Peter Selinger 2001-2017
</metadata>
<g transform="translate(0.000000,73728.000000) scale(7.200000,-7.200000)"
fill="#000000" stroke="none">
<path d="M4000 6470 c-25 -6 -182 -50 -350 -100 -320 -94 -607 -155 -1235
-264 -294 -51 -357 -67 -391 -101 -20 -20 -22 -28 -13 -48 38 -83 366 -177
619 -177 138 0 404 46 997 171 333 70 830 198 966 249 70 26 91 58 76 113 -8
31 -19 41 -72 67 -105 51 -282 91 -427 95 -69 2 -145 0 -170 -5z"/>
</g>
</svg>
