<?xml version="1.0" standalone="no"?>
<!DOCTYPE svg PUBLIC "-//W3C//DTD SVG 20010904//EN"
 "http://www.w3.org/TR/2001/REC-SVG-20010904/DTD/svg10.dtd">
<svg version="1.0" xmlns="http://www.w3.org/2000/svg"
 width="1024.000000pt" height="1024.000000pt" viewBox="0 0 1024.000000 1024.000000"
 preserveAspectRatio="xMidYMid meet">
<metadata>
Created by potrace 1.14, written by Peter Selinger 2001-2017
</metadata>
<g transform="translate(0.000000,1024.000000) scale(0.100000,-0.100000)"
fill="#000000" stroke="none">
<path d="M7300 8984 c-87 -8 -256 -36 -360 -59 -58 -13 -161 -29 -230 -35 -69
-6 -165 -20 -215 -31 -99 -21 -579 -94 -690 -104 -115 -10 -306 -45 -336 -61
-58 -30 -34 -80 74 -153 94 -63 129 -80 273 -135 216 -82 219 -82 388 -4 191
87 366 120 734 139 224 11 562 3 914 -22 189 -14 228 -9 259 29 18 23 20 36
16 93 -6 94 -35 143 -117 197 -81 53 -198 99 -315 123 -88 19 -305 31 -395 23z"/>
</g>
</svg>
