<?xml version="1.0" standalone="no"?>
<!DOCTYPE svg PUBLIC "-//W3C//DTD SVG 20010904//EN"
 "http://www.w3.org/TR/2001/REC-SVG-20010904/DTD/svg10.dtd">
<svg version="1.0" xmlns="http://www.w3.org/2000/svg"
 width="1024.000000pt" height="1024.000000pt" viewBox="0 0 1024.000000 1024.000000"
 preserveAspectRatio="xMidYMid meet">
<metadata>
Created by potrace 1.14, written by Peter Selinger 2001-2017
</metadata>
<g transform="translate(0.000000,1024.000000) scale(0.100000,-0.100000)"
fill="#000000" stroke="none">
<path d="M5248 6200 c-14 -9 -18 -25 -18 -74 0 -35 5 -78 12 -97 24 -72 333
-416 478 -532 101 -81 165 -109 246 -110 76 -1 108 18 139 79 24 47 27 169 6
252 -15 58 -81 140 -155 191 -60 42 -440 236 -518 265 -79 30 -165 41 -190 26z"/>
</g>
</svg>
