<?xml version="1.0" standalone="no"?>
<!DOCTYPE svg PUBLIC "-//W3C//DTD SVG 20010904//EN"
 "http://www.w3.org/TR/2001/REC-SVG-20010904/DTD/svg10.dtd">
<svg version="1.0" xmlns="http://www.w3.org/2000/svg"
 width="73728.000000pt" height="73728.000000pt" viewBox="0 0 73728.000000 73728.000000"
 preserveAspectRatio="xMidYMid meet">
<metadata>
Created by potrace 1.14, written by Peter Selinger 2001-2017
</metadata>
<g transform="translate(0.000000,73728.000000) scale(7.200000,-7.200000)"
fill="#000000" stroke="none">
<path d="M6470 4299 c-59 -20 -90 -49 -90 -82 0 -11 16 -50 36 -85 91 -167
119 -318 111 -606 -7 -247 -32 -414 -108 -721 -71 -285 -240 -606 -457 -869
-150 -181 -381 -391 -582 -528 -290 -198 -470 -332 -470 -349 0 -31 45 -42
139 -35 373 28 746 223 1202 629 184 163 390 430 496 641 25 50 79 165 120
256 l74 165 100 431 c100 437 167 670 215 752 35 59 37 112 5 145 -32 35 -261
169 -362 212 -46 20 -111 43 -144 51 -86 20 -218 17 -285 -7z"/>
</g>
</svg>
