<?xml version="1.0" standalone="no"?>
<!DOCTYPE svg PUBLIC "-//W3C//DTD SVG 20010904//EN"
 "http://www.w3.org/TR/2001/REC-SVG-20010904/DTD/svg10.dtd">
<svg version="1.0" xmlns="http://www.w3.org/2000/svg"
 width="1024.000000pt" height="1024.000000pt" viewBox="0 0 1024.000000 1024.000000"
 preserveAspectRatio="xMidYMid meet">
<metadata>
Created by potrace 1.14, written by Peter Selinger 2001-2017
</metadata>
<g transform="translate(0.000000,1024.000000) scale(0.100000,-0.100000)"
fill="#000000" stroke="none">
<path d="M2244 4349 c-42 -12 -58 -39 -77 -129 -28 -140 -86 -258 -216 -441
-143 -201 -461 -538 -768 -813 -73 -65 -133 -123 -133 -129 0 -17 151 1 247
29 219 63 478 221 803 490 224 185 762 693 785 741 21 44 13 82 -28 120 -66
63 -177 99 -400 128 -131 17 -167 17 -213 4z"/>
</g>
</svg>
