<?xml version="1.0" standalone="no"?>
<!DOCTYPE svg PUBLIC "-//W3C//DTD SVG 20010904//EN"
 "http://www.w3.org/TR/2001/REC-SVG-20010904/DTD/svg10.dtd">
<svg version="1.0" xmlns="http://www.w3.org/2000/svg"
 width="73728.000000pt" height="73728.000000pt" viewBox="0 0 73728.000000 73728.000000"
 preserveAspectRatio="xMidYMid meet">
<metadata>
Created by potrace 1.14, written by Peter Selinger 2001-2017
</metadata>
<g transform="translate(0.000000,73728.000000) scale(7.200000,-7.200000)"
fill="#000000" stroke="none">
<path d="M3653 9370 c-57 -12 -120 -46 -134 -72 -28 -53 -9 -101 92 -230 85
-108 180 -252 224 -338 33 -65 115 -313 175 -530 62 -223 132 -365 218 -442
54 -48 102 -52 129 -11 16 24 18 50 17 198 -2 202 -17 418 -44 610 -11 77 -24
205 -30 285 -25 327 -33 364 -94 403 -32 21 -206 86 -290 108 -83 23 -206 31
-263 19z"/>
</g>
</svg>
