<?xml version="1.0" standalone="no"?>
<!DOCTYPE svg PUBLIC "-//W3C//DTD SVG 20010904//EN"
 "http://www.w3.org/TR/2001/REC-SVG-20010904/DTD/svg10.dtd">
<svg version="1.0" xmlns="http://www.w3.org/2000/svg"
 width="73728.000000pt" height="73728.000000pt" viewBox="0 0 73728.000000 73728.000000"
 preserveAspectRatio="xMidYMid meet">
<metadata>
Created by potrace 1.14, written by Peter Selinger 2001-2017
</metadata>
<g transform="translate(0.000000,73728.000000) scale(7.200000,-7.200000)"
fill="#000000" stroke="none">
<path d="M7710 8684 c-52 -8 -167 -30 -255 -49 -88 -19 -218 -43 -290 -55 -71
-11 -152 -27 -180 -35 -27 -7 -171 -37 -320 -65 -531 -100 -674 -130 -990
-204 -176 -41 -511 -116 -745 -166 -234 -50 -457 -97 -497 -106 -111 -24 -169
-73 -180 -152 -11 -84 48 -174 133 -202 50 -17 114 -7 201 30 91 39 321 104
578 165 110 26 301 74 425 106 366 95 580 140 1295 273 463 86 753 115 887 87
93 -20 109 -50 89 -166 -23 -133 -237 -753 -350 -1013 -65 -149 -73 -194 -42
-233 10 -13 24 -42 31 -64 24 -75 67 -115 121 -115 120 0 417 336 536 607 107
242 257 437 467 605 97 77 117 103 123 160 7 60 -19 108 -97 184 -116 112
-497 377 -590 411 -47 16 -231 15 -350 -3z"/>
</g>
</svg>
