<?xml version="1.0" standalone="no"?>
<!DOCTYPE svg PUBLIC "-//W3C//DTD SVG 20010904//EN"
 "http://www.w3.org/TR/2001/REC-SVG-20010904/DTD/svg10.dtd">
<svg version="1.0" xmlns="http://www.w3.org/2000/svg"
 width="73728.000000pt" height="73728.000000pt" viewBox="0 0 73728.000000 73728.000000"
 preserveAspectRatio="xMidYMid meet">
<metadata>
Created by potrace 1.14, written by Peter Selinger 2001-2017
</metadata>
<g transform="translate(0.000000,73728.000000) scale(7.200000,-7.200000)"
fill="#000000" stroke="none">
<path d="M7175 9709 c-126 -9 -318 -48 -471 -95 -412 -125 -998 -242 -1787
-354 -191 -28 -358 -55 -370 -61 -36 -19 -57 -41 -57 -61 0 -61 214 -205 380
-256 143 -43 173 -41 555 49 429 101 542 125 865 183 225 41 459 88 545 110
77 20 345 57 650 92 132 14 253 31 269 37 37 13 96 75 96 99 0 103 -231 238
-433 253 -40 3 -88 7 -107 9 -19 1 -80 -1 -135 -5z"/>
</g>
</svg>
