<?xml version="1.0" standalone="no"?>
<!DOCTYPE svg PUBLIC "-//W3C//DTD SVG 20010904//EN"
 "http://www.w3.org/TR/2001/REC-SVG-20010904/DTD/svg10.dtd">
<svg version="1.0" xmlns="http://www.w3.org/2000/svg"
 width="1024.000000pt" height="1024.000000pt" viewBox="0 0 1024.000000 1024.000000"
 preserveAspectRatio="xMidYMid meet">
<metadata>
Created by potrace 1.14, written by Peter Selinger 2001-2017
</metadata>
<g transform="translate(0.000000,1024.000000) scale(0.100000,-0.100000)"
fill="#000000" stroke="none">
<path d="M4928 4970 c-58 -45 -60 -161 -8 -364 50 -194 60 -281 70 -621 21
-706 43 -916 115 -1087 129 -305 383 -519 760 -641 219 -71 437 -104 745 -113
412 -13 812 33 1135 131 144 44 222 79 337 151 118 75 151 121 156 219 3 60
-2 88 -37 198 -81 254 -138 515 -196 905 -16 109 -42 174 -76 192 -52 28 -67
-7 -114 -261 -114 -607 -193 -817 -345 -906 -125 -74 -598 -145 -970 -145
-547 -1 -937 129 -1038 345 -99 211 -146 510 -123 782 13 151 53 370 95 508
13 45 29 116 36 157 6 41 18 100 26 131 16 66 18 133 4 159 -13 24 -246 169
-364 226 -116 56 -169 65 -208 34z"/>
</g>
</svg>
