<?xml version="1.0" standalone="no"?>
<!DOCTYPE svg PUBLIC "-//W3C//DTD SVG 20010904//EN"
 "http://www.w3.org/TR/2001/REC-SVG-20010904/DTD/svg10.dtd">
<svg version="1.0" xmlns="http://www.w3.org/2000/svg"
 width="73728.000000pt" height="73728.000000pt" viewBox="0 0 73728.000000 73728.000000"
 preserveAspectRatio="xMidYMid meet">
<metadata>
Created by potrace 1.14, written by Peter Selinger 2001-2017
</metadata>
<g transform="translate(0.000000,73728.000000) scale(7.200000,-7.200000)"
fill="#000000" stroke="none">
<path d="M6963 5629 c-37 -38 6 -145 79 -201 42 -32 20 -22 308 -137 352 -139
685 -288 1155 -514 242 -117 326 -147 407 -147 56 0 85 21 114 84 44 95 26
187 -67 341 -68 113 -117 174 -174 217 -219 166 -683 279 -1410 342 -294 26
-398 30 -412 15z"/>
</g>
</svg>
