<?xml version="1.0" standalone="no"?>
<!DOCTYPE svg PUBLIC "-//W3C//DTD SVG 20010904//EN"
 "http://www.w3.org/TR/2001/REC-SVG-20010904/DTD/svg10.dtd">
<svg version="1.0" xmlns="http://www.w3.org/2000/svg"
 width="1024.000000pt" height="1024.000000pt" viewBox="0 0 1024.000000 1024.000000"
 preserveAspectRatio="xMidYMid meet">
<metadata>
Created by potrace 1.14, written by Peter Selinger 2001-2017
</metadata>
<g transform="translate(0.000000,1024.000000) scale(0.100000,-0.100000)"
fill="#000000" stroke="none">
<path d="M6713 5186 c-23 -8 -56 -23 -75 -34 -67 -41 -415 -133 -1025 -270
-171 -39 -329 -80 -352 -91 -147 -75 -53 -231 140 -231 33 0 134 19 240 44
451 109 913 177 988 147 66 -28 86 -134 78 -416 -8 -304 -36 -422 -123 -523
-93 -109 -173 -121 -431 -68 -94 20 -183 36 -198 36 -67 0 -30 -74 119 -229
130 -137 225 -253 300 -366 54 -80 108 -125 154 -125 28 0 131 71 183 127 148
158 278 450 389 873 22 85 45 200 51 255 19 190 57 298 155 438 40 57 58 92
61 122 5 37 2 44 -31 73 -43 37 -394 215 -469 237 -61 18 -98 18 -154 1z"/>
</g>
</svg>
