<?xml version="1.0" standalone="no"?>
<!DOCTYPE svg PUBLIC "-//W3C//DTD SVG 20010904//EN"
 "http://www.w3.org/TR/2001/REC-SVG-20010904/DTD/svg10.dtd">
<svg version="1.0" xmlns="http://www.w3.org/2000/svg"
 width="73728.000000pt" height="73728.000000pt" viewBox="0 0 73728.000000 73728.000000"
 preserveAspectRatio="xMidYMid meet">
<metadata>
Created by potrace 1.14, written by Peter Selinger 2001-2017
</metadata>
<g transform="translate(0.000000,73728.000000) scale(7.200000,-7.200000)"
fill="#000000" stroke="none">
<path d="M3767 5806 c-34 -34 -16 -122 43 -206 92 -132 209 -394 307 -690 41
-124 87 -247 101 -274 29 -54 140 -169 185 -192 32 -17 63 -11 77 16 6 11 13
61 16 112 6 86 2 117 -54 408 -75 385 -88 464 -107 607 -7 62 -19 121 -24 132
-24 44 -207 89 -400 98 -111 5 -129 4 -144 -11z"/>
</g>
</svg>
