<?xml version="1.0" standalone="no"?>
<!DOCTYPE svg PUBLIC "-//W3C//DTD SVG 20010904//EN"
 "http://www.w3.org/TR/2001/REC-SVG-20010904/DTD/svg10.dtd">
<svg version="1.0" xmlns="http://www.w3.org/2000/svg"
 width="1024.000000pt" height="1024.000000pt" viewBox="0 0 1024.000000 1024.000000"
 preserveAspectRatio="xMidYMid meet">
<metadata>
Created by potrace 1.14, written by Peter Selinger 2001-2017
</metadata>
<g transform="translate(0.000000,1024.000000) scale(0.100000,-0.100000)"
fill="#000000" stroke="none">
<path d="M5130 6856 c-63 -14 -88 -22 -290 -101 -128 -50 -294 -97 -495 -140
-213 -46 -276 -76 -260 -125 4 -11 23 -32 44 -46 133 -87 512 -67 969 53 97
25 222 58 277 72 136 36 195 66 218 112 23 47 11 75 -46 113 -98 63 -282 90
-417 62z"/>
</g>
</svg>
