<?xml version="1.0" standalone="no"?>
<!DOCTYPE svg PUBLIC "-//W3C//DTD SVG 20010904//EN"
 "http://www.w3.org/TR/2001/REC-SVG-20010904/DTD/svg10.dtd">
<svg version="1.0" xmlns="http://www.w3.org/2000/svg"
 width="1024.000000pt" height="1024.000000pt" viewBox="0 0 1024.000000 1024.000000"
 preserveAspectRatio="xMidYMid meet">
<metadata>
Created by potrace 1.14, written by Peter Selinger 2001-2017
</metadata>
<g transform="translate(0.000000,1024.000000) scale(0.100000,-0.100000)"
fill="#000000" stroke="none">
<path d="M7845 7406 c-13 -13 -27 -40 -30 -60 -11 -55 18 -202 76 -392 29 -93
66 -216 84 -274 54 -179 125 -290 221 -346 59 -35 119 -30 172 13 50 41 70 78
88 164 23 109 15 215 -25 310 -38 92 -229 336 -391 502 -91 93 -110 107 -138
107 -21 0 -41 -8 -57 -24z"/>
</g>
</svg>
