<?xml version="1.0" standalone="no"?>
<!DOCTYPE svg PUBLIC "-//W3C//DTD SVG 20010904//EN"
 "http://www.w3.org/TR/2001/REC-SVG-20010904/DTD/svg10.dtd">
<svg version="1.0" xmlns="http://www.w3.org/2000/svg"
 width="73728.000000pt" height="73728.000000pt" viewBox="0 0 73728.000000 73728.000000"
 preserveAspectRatio="xMidYMid meet">
<metadata>
Created by potrace 1.14, written by Peter Selinger 2001-2017
</metadata>
<g transform="translate(0.000000,73728.000000) scale(7.200000,-7.200000)"
fill="#000000" stroke="none">
<path d="M4479 9901 c-20 -16 -24 -28 -23 -78 0 -35 8 -72 19 -93 23 -45 104
-124 191 -185 78 -55 328 -258 479 -389 123 -107 199 -147 292 -153 59 -4 72
-2 103 19 79 53 99 174 56 341 -47 184 -96 258 -226 341 -91 59 -141 78 -340
130 -314 82 -504 105 -551 67z"/>
</g>
</svg>
