<?xml version="1.0" standalone="no"?>
<!DOCTYPE svg PUBLIC "-//W3C//DTD SVG 20010904//EN"
 "http://www.w3.org/TR/2001/REC-SVG-20010904/DTD/svg10.dtd">
<svg version="1.0" xmlns="http://www.w3.org/2000/svg"
 width="1024.000000pt" height="1024.000000pt" viewBox="0 0 1024.000000 1024.000000"
 preserveAspectRatio="xMidYMid meet">
<metadata>
Created by potrace 1.14, written by Peter Selinger 2001-2017
</metadata>
<g transform="translate(0.000000,1024.000000) scale(0.100000,-0.100000)"
fill="#000000" stroke="none">
<path d="M6877 5959 c-26 -15 -57 -83 -57 -125 0 -42 62 -233 120 -366 100
-233 219 -367 326 -368 19 0 51 13 80 33 66 43 77 78 78 232 1 117 0 122 -33
189 -36 75 -156 208 -241 271 -81 59 -222 145 -239 145 -9 0 -24 -5 -34 -11z"/>
</g>
</svg>
