<?xml version="1.0" standalone="no"?>
<!DOCTYPE svg PUBLIC "-//W3C//DTD SVG 20010904//EN"
 "http://www.w3.org/TR/2001/REC-SVG-20010904/DTD/svg10.dtd">
<svg version="1.0" xmlns="http://www.w3.org/2000/svg"
 width="1024.000000pt" height="1024.000000pt" viewBox="0 0 1024.000000 1024.000000"
 preserveAspectRatio="xMidYMid meet">
<metadata>
Created by potrace 1.14, written by Peter Selinger 2001-2017
</metadata>
<g transform="translate(0.000000,1024.000000) scale(0.100000,-0.100000)"
fill="#000000" stroke="none">
<path d="M7649 8774 c-28 -33 -31 -44 -39 -147 -6 -65 -19 -131 -36 -182 -82
-246 -294 -601 -536 -903 -380 -471 -632 -739 -798 -847 -99 -65 -130 -111
-130 -192 1 -89 60 -175 204 -296 56 -46 62 -49 106 -45 32 3 72 20 134 57
322 190 739 349 1276 488 118 30 234 64 257 75 124 58 75 108 -108 108 -187 0
-569 -50 -884 -115 -300 -63 -284 -61 -302 -42 -13 13 -14 21 -6 40 29 64 369
446 724 813 112 117 269 280 348 363 79 84 192 193 252 242 138 115 145 132
98 227 -55 112 -234 274 -373 338 -77 35 -165 43 -187 18z"/>
</g>
</svg>
