<?xml version="1.0" standalone="no"?>
<!DOCTYPE svg PUBLIC "-//W3C//DTD SVG 20010904//EN"
 "http://www.w3.org/TR/2001/REC-SVG-20010904/DTD/svg10.dtd">
<svg version="1.0" xmlns="http://www.w3.org/2000/svg"
 width="73728.000000pt" height="73728.000000pt" viewBox="0 0 73728.000000 73728.000000"
 preserveAspectRatio="xMidYMid meet">
<metadata>
Created by potrace 1.14, written by Peter Selinger 2001-2017
</metadata>
<g transform="translate(0.000000,73728.000000) scale(7.200000,-7.200000)"
fill="#000000" stroke="none">
<path d="M1389 5139 c-22 -24 -41 -57 -45 -76 -8 -43 10 -161 42 -265 28 -96
94 -391 129 -588 30 -160 45 -197 102 -253 64 -61 121 -66 200 -17 64 39 139
174 178 321 44 162 -20 314 -269 648 -121 162 -235 271 -284 271 -9 0 -32 -19
-53 -41z"/>
</g>
</svg>
