<?xml version="1.0" standalone="no"?>
<!DOCTYPE svg PUBLIC "-//W3C//DTD SVG 20010904//EN"
 "http://www.w3.org/TR/2001/REC-SVG-20010904/DTD/svg10.dtd">
<svg version="1.0" xmlns="http://www.w3.org/2000/svg"
 width="73728.000000pt" height="73728.000000pt" viewBox="0 0 73728.000000 73728.000000"
 preserveAspectRatio="xMidYMid meet">
<metadata>
Created by potrace 1.14, written by Peter Selinger 2001-2017
</metadata>
<g transform="translate(0.000000,73728.000000) scale(7.200000,-7.200000)"
fill="#000000" stroke="none">
<path d="M8723 5658 c-22 -3 -60 -16 -82 -28 -90 -45 -330 -95 -851 -175 -346
-53 -586 -96 -760 -135 -196 -44 -476 -98 -575 -110 -49 -6 -122 -19 -161 -30
-40 -11 -177 -38 -305 -60 -528 -91 -990 -195 -1051 -235 -132 -88 -85 -313
74 -356 60 -16 166 -3 269 32 327 111 1506 355 2797 579 310 53 395 52 473 -5
19 -14 53 -34 76 -44 96 -45 167 -141 192 -259 6 -29 16 -160 21 -290 16 -365
-7 -883 -65 -1457 -14 -132 -30 -292 -36 -355 -15 -158 -25 -195 -65 -229 -49
-44 -91 -46 -334 -16 -290 35 -362 40 -388 26 -28 -15 -27 -24 2 -86 34 -73
91 -132 255 -263 239 -191 388 -345 505 -521 54 -81 86 -105 162 -122 109 -25
189 23 279 164 135 215 257 694 285 1127 10 155 9 205 -9 435 -84 1048 -79
1694 12 1858 12 21 30 53 39 70 21 37 23 111 5 147 -22 43 -107 98 -292 190
-294 145 -364 167 -472 148z"/>
</g>
</svg>
