<?xml version="1.0" standalone="no"?>
<!DOCTYPE svg PUBLIC "-//W3C//DTD SVG 20010904//EN"
 "http://www.w3.org/TR/2001/REC-SVG-20010904/DTD/svg10.dtd">
<svg version="1.0" xmlns="http://www.w3.org/2000/svg"
 width="1024.000000pt" height="1024.000000pt" viewBox="0 0 1024.000000 1024.000000"
 preserveAspectRatio="xMidYMid meet">
<metadata>
Created by potrace 1.14, written by Peter Selinger 2001-2017
</metadata>
<g transform="translate(0.000000,1024.000000) scale(0.100000,-0.100000)"
fill="#000000" stroke="none">
<path d="M2421 6524 c-20 -15 -23 -23 -19 -68 3 -28 20 -85 38 -126 56 -127
90 -340 122 -760 9 -116 13 -461 13 -1170 0 -944 1 -1007 18 -1033 28 -43 64
-61 122 -61 96 2 195 75 246 183 24 52 27 85 54 646 9 182 24 476 35 655 10
179 21 386 25 460 3 74 15 270 27 435 11 165 18 342 16 394 l-4 94 -66 62
c-86 82 -157 129 -303 203 -118 59 -236 102 -279 102 -12 0 -32 -7 -45 -16z"/>
</g>
</svg>
