<?xml version="1.0" standalone="no"?>
<!DOCTYPE svg PUBLIC "-//W3C//DTD SVG 20010904//EN"
 "http://www.w3.org/TR/2001/REC-SVG-20010904/DTD/svg10.dtd">
<svg version="1.0" xmlns="http://www.w3.org/2000/svg"
 width="73728.000000pt" height="73728.000000pt" viewBox="0 0 73728.000000 73728.000000"
 preserveAspectRatio="xMidYMid meet">
<metadata>
Created by potrace 1.14, written by Peter Selinger 2001-2017
</metadata>
<g transform="translate(0.000000,73728.000000) scale(7.200000,-7.200000)"
fill="#000000" stroke="none">
<path d="M1144 5346 c-104 -47 -98 -145 19 -319 70 -104 158 -270 201 -378 15
-40 83 -342 171 -760 80 -382 153 -714 162 -739 9 -25 31 -59 50 -77 113 -108
293 9 293 190 0 31 -20 218 -45 415 -60 484 -92 792 -105 1007 -23 384 -43
426 -263 534 -227 112 -411 160 -483 127z"/>
</g>
</svg>
