<?xml version="1.0" standalone="no"?>
<!DOCTYPE svg PUBLIC "-//W3C//DTD SVG 20010904//EN"
 "http://www.w3.org/TR/2001/REC-SVG-20010904/DTD/svg10.dtd">
<svg version="1.0" xmlns="http://www.w3.org/2000/svg"
 width="73728.000000pt" height="73728.000000pt" viewBox="0 0 73728.000000 73728.000000"
 preserveAspectRatio="xMidYMid meet">
<metadata>
Created by potrace 1.14, written by Peter Selinger 2001-2017
</metadata>
<g transform="translate(0.000000,73728.000000) scale(7.200000,-7.200000)"
fill="#000000" stroke="none">
<path d="M7295 3133 c-11 -3 -218 -47 -460 -100 -356 -77 -451 -101 -498 -125
-141 -75 -126 -198 30 -241 78 -22 149 -21 258 3 188 40 559 86 910 111 97 7
172 17 192 26 38 18 58 59 44 95 -19 50 -155 149 -294 213 -50 24 -126 31
-182 18z"/>
</g>
</svg>
