<?xml version="1.0" standalone="no"?>
<!DOCTYPE svg PUBLIC "-//W3C//DTD SVG 20010904//EN"
 "http://www.w3.org/TR/2001/REC-SVG-20010904/DTD/svg10.dtd">
<svg version="1.0" xmlns="http://www.w3.org/2000/svg"
 width="1024.000000pt" height="1024.000000pt" viewBox="0 0 1024.000000 1024.000000"
 preserveAspectRatio="xMidYMid meet">
<metadata>
Created by potrace 1.14, written by Peter Selinger 2001-2017
</metadata>
<g transform="translate(0.000000,1024.000000) scale(0.100000,-0.100000)"
fill="#000000" stroke="none">
<path d="M1225 8181 c-19 -8 -36 -34 -49 -73 -9 -31 21 -120 94 -270 182 -379
377 -975 460 -1403 32 -166 91 -289 188 -389 107 -110 184 -142 218 -91 70
107 54 346 -61 900 -31 149 -94 459 -141 690 -46 231 -91 441 -100 468 -13 38
-23 51 -54 67 -97 50 -502 123 -555 101z"/>
</g>
</svg>
