<?xml version="1.0" standalone="no"?>
<!DOCTYPE svg PUBLIC "-//W3C//DTD SVG 20010904//EN"
 "http://www.w3.org/TR/2001/REC-SVG-20010904/DTD/svg10.dtd">
<svg version="1.0" xmlns="http://www.w3.org/2000/svg"
 width="73728.000000pt" height="73728.000000pt" viewBox="0 0 73728.000000 73728.000000"
 preserveAspectRatio="xMidYMid meet">
<metadata>
Created by potrace 1.14, written by Peter Selinger 2001-2017
</metadata>
<g transform="translate(0.000000,73728.000000) scale(7.200000,-7.200000)"
fill="#000000" stroke="none">
<path d="M7508 7950 c-122 -26 -271 -72 -428 -130 -74 -28 -163 -55 -199 -61
-36 -5 -97 -21 -136 -34 -93 -31 -370 -86 -630 -125 -115 -17 -226 -39 -245
-48 -97 -47 1 -144 201 -199 50 -14 101 -18 239 -17 166 0 185 2 375 42 188
40 630 152 1095 279 224 60 253 76 253 133 0 61 -67 115 -197 160 -77 26 -208
26 -328 0z"/>
</g>
</svg>
