<?xml version="1.0" standalone="no"?>
<!DOCTYPE svg PUBLIC "-//W3C//DTD SVG 20010904//EN"
 "http://www.w3.org/TR/2001/REC-SVG-20010904/DTD/svg10.dtd">
<svg version="1.0" xmlns="http://www.w3.org/2000/svg"
 width="1024.000000pt" height="1024.000000pt" viewBox="0 0 1024.000000 1024.000000"
 preserveAspectRatio="xMidYMid meet">
<metadata>
Created by potrace 1.14, written by Peter Selinger 2001-2017
</metadata>
<g transform="translate(0.000000,1024.000000) scale(0.100000,-0.100000)"
fill="#000000" stroke="none">
<path d="M5255 8245 c-30 -29 -31 -58 -5 -132 57 -162 -6 -396 -221 -824 -150
-298 -415 -725 -607 -976 -98 -129 -103 -136 -100 -163 3 -21 9 -25 40 -28
108 -9 326 173 596 498 195 234 492 643 640 880 50 80 122 182 161 228 77 91
91 129 72 191 -36 120 -257 290 -436 336 -83 21 -112 19 -140 -10z"/>
</g>
</svg>
