<?xml version="1.0" standalone="no"?>
<!DOCTYPE svg PUBLIC "-//W3C//DTD SVG 20010904//EN"
 "http://www.w3.org/TR/2001/REC-SVG-20010904/DTD/svg10.dtd">
<svg version="1.0" xmlns="http://www.w3.org/2000/svg"
 width="73728.000000pt" height="73728.000000pt" viewBox="0 0 73728.000000 73728.000000"
 preserveAspectRatio="xMidYMid meet">
<metadata>
Created by potrace 1.14, written by Peter Selinger 2001-2017
</metadata>
<g transform="translate(0.000000,73728.000000) scale(7.200000,-7.200000)"
fill="#000000" stroke="none">
<path d="M7735 5695 c-38 -6 -117 -22 -175 -33 -617 -124 -672 -133 -1195
-206 -785 -110 -974 -144 -1005 -180 -31 -39 5 -70 164 -139 169 -74 246 -91
416 -91 125 0 166 4 296 32 411 87 925 126 1839 138 488 6 541 11 581 55 29
32 25 96 -8 147 -72 108 -328 240 -538 278 -92 16 -281 16 -375 -1z"/>
</g>
</svg>
