<?xml version="1.0" standalone="no"?>
<!DOCTYPE svg PUBLIC "-//W3C//DTD SVG 20010904//EN"
 "http://www.w3.org/TR/2001/REC-SVG-20010904/DTD/svg10.dtd">
<svg version="1.0" xmlns="http://www.w3.org/2000/svg"
 width="73728.000000pt" height="73728.000000pt" viewBox="0 0 73728.000000 73728.000000"
 preserveAspectRatio="xMidYMid meet">
<metadata>
Created by potrace 1.14, written by Peter Selinger 2001-2017
</metadata>
<g transform="translate(0.000000,73728.000000) scale(7.200000,-7.200000)"
fill="#000000" stroke="none">
<path d="M3995 7909 c-54 -31 -57 -70 -15 -176 40 -99 39 -152 -4 -279 -105
-310 -326 -732 -622 -1182 -64 -97 -131 -194 -150 -216 -39 -46 -59 -103 -42
-123 18 -23 80 -15 129 15 92 59 241 192 457 409 201 201 240 246 395 456 180
242 204 275 282 395 26 41 79 107 116 148 67 72 69 75 69 126 0 74 -39 136
-143 234 -93 86 -162 132 -259 172 -71 28 -181 39 -213 21z"/>
</g>
</svg>
