<?xml version="1.0" standalone="no"?>
<!DOCTYPE svg PUBLIC "-//W3C//DTD SVG 20010904//EN"
 "http://www.w3.org/TR/2001/REC-SVG-20010904/DTD/svg10.dtd">
<svg version="1.0" xmlns="http://www.w3.org/2000/svg"
 width="73728.000000pt" height="73728.000000pt" viewBox="0 0 73728.000000 73728.000000"
 preserveAspectRatio="xMidYMid meet">
<metadata>
Created by potrace 1.14, written by Peter Selinger 2001-2017
</metadata>
<g transform="translate(0.000000,73728.000000) scale(7.200000,-7.200000)"
fill="#000000" stroke="none">
<path d="M7215 6384 c-120 -18 -259 -57 -970 -270 -179 -54 -202 -62 -208 -77
-9 -24 13 -56 63 -96 l52 -41 126 0 c255 0 548 33 927 104 72 13 198 32 280
40 83 9 172 21 198 27 55 13 107 52 107 80 0 76 -125 173 -277 215 -57 16
-239 27 -298 18z"/>
</g>
</svg>
