<?xml version="1.0" standalone="no"?>
<!DOCTYPE svg PUBLIC "-//W3C//DTD SVG 20010904//EN"
 "http://www.w3.org/TR/2001/REC-SVG-20010904/DTD/svg10.dtd">
<svg version="1.0" xmlns="http://www.w3.org/2000/svg"
 width="73728.000000pt" height="73728.000000pt" viewBox="0 0 73728.000000 73728.000000"
 preserveAspectRatio="xMidYMid meet">
<metadata>
Created by potrace 1.14, written by Peter Selinger 2001-2017
</metadata>
<g transform="translate(0.000000,73728.000000) scale(7.200000,-7.200000)"
fill="#000000" stroke="none">
<path d="M3775 6686 c-50 -50 -46 -156 11 -321 l39 -110 0 -210 c-1 -236 -12
-329 -77 -650 -64 -316 -62 -301 -49 -388 22 -162 143 -387 228 -428 38 -18
48 -19 74 -9 38 16 73 75 105 177 54 175 64 257 74 603 11 373 27 663 41 735
36 189 31 239 -34 325 -64 84 -217 240 -266 272 -58 36 -112 38 -146 4z"/>
</g>
</svg>
