<?xml version="1.0" standalone="no"?>
<!DOCTYPE svg PUBLIC "-//W3C//DTD SVG 20010904//EN"
 "http://www.w3.org/TR/2001/REC-SVG-20010904/DTD/svg10.dtd">
<svg version="1.0" xmlns="http://www.w3.org/2000/svg"
 width="73728.000000pt" height="73728.000000pt" viewBox="0 0 73728.000000 73728.000000"
 preserveAspectRatio="xMidYMid meet">
<metadata>
Created by potrace 1.14, written by Peter Selinger 2001-2017
</metadata>
<g transform="translate(0.000000,73728.000000) scale(7.200000,-7.200000)"
fill="#000000" stroke="none">
<path d="M5141 7179 c-41 -67 -35 -172 19 -349 58 -189 65 -250 65 -550 -1
-338 -22 -530 -107 -950 -29 -145 -30 -161 -20 -238 22 -164 142 -391 229
-433 38 -18 48 -19 74 -9 55 23 105 147 144 360 17 95 19 159 39 1650 1 91 -1
99 -37 175 -42 87 -83 146 -177 251 -110 125 -190 157 -229 93z"/>
</g>
</svg>
