<?xml version="1.0" standalone="no"?>
<!DOCTYPE svg PUBLIC "-//W3C//DTD SVG 20010904//EN"
 "http://www.w3.org/TR/2001/REC-SVG-20010904/DTD/svg10.dtd">
<svg version="1.0" xmlns="http://www.w3.org/2000/svg"
 width="1024.000000pt" height="1024.000000pt" viewBox="0 0 1024.000000 1024.000000"
 preserveAspectRatio="xMidYMid meet">
<metadata>
Created by potrace 1.14, written by Peter Selinger 2001-2017
</metadata>
<g transform="translate(0.000000,1024.000000) scale(0.100000,-0.100000)"
fill="#000000" stroke="none">
<path d="M2830 9352 c-21 -10 -42 -32 -53 -54 -18 -36 -17 -39 2 -123 36 -148
25 -266 -40 -465 -166 -501 -599 -1154 -1289 -1940 -229 -262 -272 -327 -240
-365 19 -22 95 -18 173 9 158 56 336 194 628 485 225 226 346 358 572 631 67
80 157 186 202 235 45 50 146 179 226 289 196 270 336 444 445 552 99 98 120
137 111 206 -16 121 -280 406 -461 497 -116 59 -214 75 -276 43z"/>
</g>
</svg>
