<?xml version="1.0" standalone="no"?>
<!DOCTYPE svg PUBLIC "-//W3C//DTD SVG 20010904//EN"
 "http://www.w3.org/TR/2001/REC-SVG-20010904/DTD/svg10.dtd">
<svg version="1.0" xmlns="http://www.w3.org/2000/svg"
 width="73728.000000pt" height="73728.000000pt" viewBox="0 0 73728.000000 73728.000000"
 preserveAspectRatio="xMidYMid meet">
<metadata>
Created by potrace 1.14, written by Peter Selinger 2001-2017
</metadata>
<g transform="translate(0.000000,73728.000000) scale(7.200000,-7.200000)"
fill="#000000" stroke="none">
<path d="M4040 8165 c-78 -15 -224 -56 -515 -145 -251 -76 -492 -136 -650
-160 -214 -32 -296 -56 -319 -92 -8 -13 -7 -21 5 -33 27 -27 202 -92 282 -105
134 -22 378 -5 737 51 118 18 154 -5 131 -82 -7 -22 -227 -363 -490 -757 -263
-395 -481 -730 -485 -746 -8 -32 7 -56 35 -56 38 0 134 44 217 100 52 35 178
144 312 271 677 638 1129 1026 1338 1148 110 64 145 117 122 185 -21 65 -203
215 -451 372 -106 66 -142 73 -269 49z"/>
</g>
</svg>
