<?xml version="1.0" standalone="no"?>
<!DOCTYPE svg PUBLIC "-//W3C//DTD SVG 20010904//EN"
 "http://www.w3.org/TR/2001/REC-SVG-20010904/DTD/svg10.dtd">
<svg version="1.0" xmlns="http://www.w3.org/2000/svg"
 width="1024.000000pt" height="1024.000000pt" viewBox="0 0 1024.000000 1024.000000"
 preserveAspectRatio="xMidYMid meet">
<metadata>
Created by potrace 1.14, written by Peter Selinger 2001-2017
</metadata>
<g transform="translate(0.000000,1024.000000) scale(0.100000,-0.100000)"
fill="#000000" stroke="none">
<path d="M8015 8223 c-71 -9 -142 -38 -306 -122 -470 -242 -996 -428 -1686
-597 -296 -73 -358 -106 -358 -196 0 -51 30 -87 100 -123 59 -29 63 -30 210
-29 l150 0 465 142 c256 78 629 194 830 258 471 151 502 153 579 38 40 -61 55
-130 48 -223 -10 -142 -173 -869 -261 -1166 -38 -125 -43 -175 -25 -222 45
-121 226 -155 347 -66 45 34 74 97 111 248 95 388 226 752 349 970 61 108 96
159 160 228 70 76 105 152 110 237 8 143 -53 221 -303 389 -231 155 -344 219
-409 230 -33 6 -64 10 -70 10 -6 -1 -24 -4 -41 -6z"/>
</g>
</svg>
