<?xml version="1.0" standalone="no"?>
<!DOCTYPE svg PUBLIC "-//W3C//DTD SVG 20010904//EN"
 "http://www.w3.org/TR/2001/REC-SVG-20010904/DTD/svg10.dtd">
<svg version="1.0" xmlns="http://www.w3.org/2000/svg"
 width="1024.000000pt" height="1024.000000pt" viewBox="0 0 1024.000000 1024.000000"
 preserveAspectRatio="xMidYMid meet">
<metadata>
Created by potrace 1.14, written by Peter Selinger 2001-2017
</metadata>
<g transform="translate(0.000000,1024.000000) scale(0.100000,-0.100000)"
fill="#000000" stroke="none">
<path d="M1185 6028 c-25 -20 -27 -25 -20 -72 3 -27 40 -130 81 -229 201 -485
356 -997 469 -1562 55 -267 102 -382 225 -535 64 -80 97 -102 146 -98 51 4 71
40 86 152 10 72 9 116 -6 259 -23 218 -44 331 -167 872 -55 242 -132 588 -170
770 -50 238 -74 334 -87 348 -10 10 -65 32 -123 48 -250 73 -383 88 -434 47z"/>
</g>
</svg>
