<?xml version="1.0" standalone="no"?>
<!DOCTYPE svg PUBLIC "-//W3C//DTD SVG 20010904//EN"
 "http://www.w3.org/TR/2001/REC-SVG-20010904/DTD/svg10.dtd">
<svg version="1.0" xmlns="http://www.w3.org/2000/svg"
 width="1024.000000pt" height="1024.000000pt" viewBox="0 0 1024.000000 1024.000000"
 preserveAspectRatio="xMidYMid meet">
<metadata>
Created by potrace 1.14, written by Peter Selinger 2001-2017
</metadata>
<g transform="translate(0.000000,1024.000000) scale(0.100000,-0.100000)"
fill="#000000" stroke="none">
<path d="M6684 7548 c-49 -23 -58 -114 -21 -224 21 -67 22 -79 21 -504 0 -239
-6 -589 -13 -777 -14 -376 -13 -393 40 -438 82 -68 231 7 294 147 26 58 32
102 87 593 68 612 70 674 21 816 -16 47 -46 110 -67 142 -59 88 -166 190 -237
226 -65 33 -90 36 -125 19z"/>
</g>
</svg>
