<?xml version="1.0" standalone="no"?>
<!DOCTYPE svg PUBLIC "-//W3C//DTD SVG 20010904//EN"
 "http://www.w3.org/TR/2001/REC-SVG-20010904/DTD/svg10.dtd">
<svg version="1.0" xmlns="http://www.w3.org/2000/svg"
 width="1024.000000pt" height="1024.000000pt" viewBox="0 0 1024.000000 1024.000000"
 preserveAspectRatio="xMidYMid meet">
<metadata>
Created by potrace 1.14, written by Peter Selinger 2001-2017
</metadata>
<g transform="translate(0.000000,1024.000000) scale(0.100000,-0.100000)"
fill="#000000" stroke="none">
<path d="M3265 4346 c-33 -7 -148 -36 -255 -65 -107 -29 -296 -73 -420 -97
-301 -60 -474 -100 -524 -123 -138 -61 -162 -172 -48 -224 41 -19 64 -22 182
-21 93 0 171 7 250 22 325 61 748 107 1244 137 149 9 254 19 262 26 10 8 11
16 4 30 -20 36 -250 236 -308 267 -109 58 -251 76 -387 48z"/>
</g>
</svg>
