<?xml version="1.0" standalone="no"?>
<!DOCTYPE svg PUBLIC "-//W3C//DTD SVG 20010904//EN"
 "http://www.w3.org/TR/2001/REC-SVG-20010904/DTD/svg10.dtd">
<svg version="1.0" xmlns="http://www.w3.org/2000/svg"
 width="1024.000000pt" height="1024.000000pt" viewBox="0 0 1024.000000 1024.000000"
 preserveAspectRatio="xMidYMid meet">
<metadata>
Created by potrace 1.14, written by Peter Selinger 2001-2017
</metadata>
<g transform="translate(0.000000,1024.000000) scale(0.100000,-0.100000)"
fill="#000000" stroke="none">
<path d="M6185 3317 c-19 -19 -37 -47 -41 -63 -10 -37 10 -230 37 -369 44
-230 102 -368 194 -462 98 -98 164 -107 241 -30 57 58 86 139 88 242 1 72 -3
87 -35 156 -45 94 -88 158 -230 341 -132 170 -177 218 -202 218 -10 0 -34 -15
-52 -33z"/>
</g>
</svg>
