<?xml version="1.0" standalone="no"?>
<!DOCTYPE svg PUBLIC "-//W3C//DTD SVG 20010904//EN"
 "http://www.w3.org/TR/2001/REC-SVG-20010904/DTD/svg10.dtd">
<svg version="1.0" xmlns="http://www.w3.org/2000/svg"
 width="73728.000000pt" height="73728.000000pt" viewBox="0 0 73728.000000 73728.000000"
 preserveAspectRatio="xMidYMid meet">
<metadata>
Created by potrace 1.14, written by Peter Selinger 2001-2017
</metadata>
<g transform="translate(0.000000,73728.000000) scale(7.200000,-7.200000)"
fill="#000000" stroke="none">
<path d="M5500 8065 c-90 -41 -101 -74 -55 -175 67 -149 102 -353 126 -735 17
-260 17 -994 1 -1300 -51 -990 -87 -1377 -153 -1675 -34 -150 -33 -192 5 -275
29 -63 82 -118 149 -152 44 -23 64 -28 132 -28 67 0 90 5 142 29 51 23 64 34
73 61 22 67 30 273 30 820 1 829 18 2030 29 2110 5 39 17 154 26 255 27 318
58 467 111 546 43 62 105 199 111 242 7 49 -2 55 -107 72 -100 16 -138 32
-246 102 -161 103 -293 139 -374 103z"/>
</g>
</svg>
