<?xml version="1.0" standalone="no"?>
<!DOCTYPE svg PUBLIC "-//W3C//DTD SVG 20010904//EN"
 "http://www.w3.org/TR/2001/REC-SVG-20010904/DTD/svg10.dtd">
<svg version="1.0" xmlns="http://www.w3.org/2000/svg"
 width="1024.000000pt" height="1024.000000pt" viewBox="0 0 1024.000000 1024.000000"
 preserveAspectRatio="xMidYMid meet">
<metadata>
Created by potrace 1.14, written by Peter Selinger 2001-2017
</metadata>
<g transform="translate(0.000000,1024.000000) scale(0.100000,-0.100000)"
fill="#000000" stroke="none">
<path d="M1504 8676 c-65 -29 -60 -69 31 -234 167 -308 368 -809 450 -1127 35
-133 84 -225 163 -308 101 -104 157 -132 191 -98 42 42 22 348 -34 536 -25 81
-112 427 -205 810 -70 289 -87 342 -113 359 -28 19 -280 67 -377 72 -52 3 -85
0 -106 -10z"/>
</g>
</svg>
