<?xml version="1.0" standalone="no"?>
<!DOCTYPE svg PUBLIC "-//W3C//DTD SVG 20010904//EN"
 "http://www.w3.org/TR/2001/REC-SVG-20010904/DTD/svg10.dtd">
<svg version="1.0" xmlns="http://www.w3.org/2000/svg"
 width="73728.000000pt" height="73728.000000pt" viewBox="0 0 73728.000000 73728.000000"
 preserveAspectRatio="xMidYMid meet">
<metadata>
Created by potrace 1.14, written by Peter Selinger 2001-2017
</metadata>
<g transform="translate(0.000000,73728.000000) scale(7.200000,-7.200000)"
fill="#000000" stroke="none">
<path d="M5628 3384 c-34 -18 -37 -24 -83 -159 -62 -186 -143 -381 -236 -575
-87 -182 -119 -277 -119 -360 0 -95 62 -273 113 -328 69 -74 173 -68 260 16
129 123 229 337 262 556 23 158 21 460 -5 587 -27 132 -56 207 -96 247 -35 35
-55 39 -96 16z"/>
</g>
</svg>
