<?xml version="1.0" standalone="no"?>
<!DOCTYPE svg PUBLIC "-//W3C//DTD SVG 20010904//EN"
 "http://www.w3.org/TR/2001/REC-SVG-20010904/DTD/svg10.dtd">
<svg version="1.0" xmlns="http://www.w3.org/2000/svg"
 width="1024.000000pt" height="1024.000000pt" viewBox="0 0 1024.000000 1024.000000"
 preserveAspectRatio="xMidYMid meet">
<metadata>
Created by potrace 1.14, written by Peter Selinger 2001-2017
</metadata>
<g transform="translate(0.000000,1024.000000) scale(0.100000,-0.100000)"
fill="#000000" stroke="none">
<path d="M2740 8633 c0 -72 42 -367 76 -533 45 -218 119 -418 191 -513 29 -39
151 -147 165 -147 14 0 26 36 37 114 10 69 9 89 -9 165 -26 108 -71 262 -162
553 l-71 227 -104 95 c-57 53 -108 96 -113 96 -6 0 -10 -26 -10 -57z"/>
</g>
</svg>
