<?xml version="1.0" standalone="no"?>
<!DOCTYPE svg PUBLIC "-//W3C//DTD SVG 20010904//EN"
 "http://www.w3.org/TR/2001/REC-SVG-20010904/DTD/svg10.dtd">
<svg version="1.0" xmlns="http://www.w3.org/2000/svg"
 width="73728.000000pt" height="73728.000000pt" viewBox="0 0 73728.000000 73728.000000"
 preserveAspectRatio="xMidYMid meet">
<metadata>
Created by potrace 1.14, written by Peter Selinger 2001-2017
</metadata>
<g transform="translate(0.000000,73728.000000) scale(7.200000,-7.200000)"
fill="#000000" stroke="none">
<path d="M4822 9200 c-67 -10 -191 -32 -275 -49 -84 -17 -206 -40 -272 -51
-279 -50 -2294 -460 -2369 -482 -22 -7 -57 -29 -78 -49 -31 -30 -38 -43 -38
-75 0 -76 57 -133 155 -155 70 -16 200 2 333 45 134 43 318 92 737 195 354 86
587 134 865 176 96 15 254 42 350 60 272 52 325 59 480 59 229 1 270 -19 270
-130 0 -190 -148 -694 -282 -962 l-71 -143 13 -67 c21 -107 39 -159 66 -191
53 -64 128 -46 224 51 100 101 173 228 378 658 92 194 204 337 363 466 80 64
115 124 104 182 -13 77 -206 233 -520 423 l-90 54 -110 2 c-68 1 -157 -5 -233
-17z"/>
</g>
</svg>
