<?xml version="1.0" standalone="no"?>
<!DOCTYPE svg PUBLIC "-//W3C//DTD SVG 20010904//EN"
 "http://www.w3.org/TR/2001/REC-SVG-20010904/DTD/svg10.dtd">
<svg version="1.0" xmlns="http://www.w3.org/2000/svg"
 width="1024.000000pt" height="1024.000000pt" viewBox="0 0 1024.000000 1024.000000"
 preserveAspectRatio="xMidYMid meet">
<metadata>
Created by potrace 1.14, written by Peter Selinger 2001-2017
</metadata>
<g transform="translate(0.000000,1024.000000) scale(0.100000,-0.100000)"
fill="#000000" stroke="none">
<path d="M4675 7043 c-16 -2 -176 -33 -355 -68 -1601 -316 -2923 -532 -3553
-581 -144 -11 -208 -58 -192 -141 19 -101 249 -252 441 -289 144 -27 222 -18
504 59 1063 291 2214 517 3265 642 171 20 328 42 349 48 22 7 48 24 59 39 18
24 19 32 8 68 -6 22 -26 56 -43 76 -53 61 -205 124 -343 144 -71 10 -87 10
-140 3z"/>
</g>
</svg>
