<?xml version="1.0" standalone="no"?>
<!DOCTYPE svg PUBLIC "-//W3C//DTD SVG 20010904//EN"
 "http://www.w3.org/TR/2001/REC-SVG-20010904/DTD/svg10.dtd">
<svg version="1.0" xmlns="http://www.w3.org/2000/svg"
 width="73728.000000pt" height="73728.000000pt" viewBox="0 0 73728.000000 73728.000000"
 preserveAspectRatio="xMidYMid meet">
<metadata>
Created by potrace 1.14, written by Peter Selinger 2001-2017
</metadata>
<g transform="translate(0.000000,73728.000000) scale(7.200000,-7.200000)"
fill="#000000" stroke="none">
<path d="M3980 5110 c-19 -5 -109 -31 -200 -58 -302 -92 -708 -186 -1050 -246
-155 -27 -235 -53 -287 -92 -85 -65 1 -150 189 -188 145 -29 141 -29 406 24
417 83 912 163 1379 224 164 22 190 28 205 47 37 45 14 98 -69 161 -99 75
-104 77 -300 108 -199 32 -217 33 -273 20z"/>
</g>
</svg>
