<?xml version="1.0" standalone="no"?>
<!DOCTYPE svg PUBLIC "-//W3C//DTD SVG 20010904//EN"
 "http://www.w3.org/TR/2001/REC-SVG-20010904/DTD/svg10.dtd">
<svg version="1.0" xmlns="http://www.w3.org/2000/svg"
 width="73728.000000pt" height="73728.000000pt" viewBox="0 0 73728.000000 73728.000000"
 preserveAspectRatio="xMidYMid meet">
<metadata>
Created by potrace 1.14, written by Peter Selinger 2001-2017
</metadata>
<g transform="translate(0.000000,73728.000000) scale(7.200000,-7.200000)"
fill="#000000" stroke="none">
<path d="M3477 3762 c-26 -29 -21 -89 12 -147 36 -63 92 -115 376 -350 417
-345 629 -535 822 -737 116 -122 211 -156 283 -103 48 35 63 68 68 150 5 86
-26 245 -63 320 -61 125 -328 316 -714 509 -51 26 -123 67 -160 91 -64 43
-530 267 -582 280 -17 4 -30 1 -42 -13z"/>
</g>
</svg>
