<?xml version="1.0" standalone="no"?>
<!DOCTYPE svg PUBLIC "-//W3C//DTD SVG 20010904//EN"
 "http://www.w3.org/TR/2001/REC-SVG-20010904/DTD/svg10.dtd">
<svg version="1.0" xmlns="http://www.w3.org/2000/svg"
 width="1024.000000pt" height="1024.000000pt" viewBox="0 0 1024.000000 1024.000000"
 preserveAspectRatio="xMidYMid meet">
<metadata>
Created by potrace 1.14, written by Peter Selinger 2001-2017
</metadata>
<g transform="translate(0.000000,1024.000000) scale(0.100000,-0.100000)"
fill="#000000" stroke="none">
<path d="M7650 8241 c-52 -9 -160 -31 -240 -49 -80 -17 -197 -36 -260 -42
-213 -20 -586 -109 -946 -224 -156 -51 -213 -83 -255 -146 -38 -56 -46 -103
-26 -146 38 -79 117 -87 297 -29 258 83 649 170 1076 241 244 40 313 41 388 4
108 -52 118 -126 56 -395 -127 -553 -235 -927 -310 -1076 -32 -62 -82 -109
-168 -154 -70 -38 -132 -92 -132 -116 0 -33 25 -72 129 -201 143 -180 232
-258 293 -258 55 0 141 88 198 199 73 147 196 486 356 986 146 455 189 544
347 714 39 41 78 89 88 106 24 38 24 106 2 153 -36 76 -228 243 -447 388 l-89
59 -131 2 c-90 1 -161 -3 -226 -16z"/>
</g>
</svg>
