<?xml version="1.0" standalone="no"?>
<!DOCTYPE svg PUBLIC "-//W3C//DTD SVG 20010904//EN"
 "http://www.w3.org/TR/2001/REC-SVG-20010904/DTD/svg10.dtd">
<svg version="1.0" xmlns="http://www.w3.org/2000/svg"
 width="1024.000000pt" height="1024.000000pt" viewBox="0 0 1024.000000 1024.000000"
 preserveAspectRatio="xMidYMid meet">
<metadata>
Created by potrace 1.14, written by Peter Selinger 2001-2017
</metadata>
<g transform="translate(0.000000,1024.000000) scale(0.100000,-0.100000)"
fill="#000000" stroke="none">
<path d="M7895 8685 c-33 -9 -87 -24 -120 -35 -289 -95 -2196 -384 -3555 -540
-1057 -121 -1813 -209 -2150 -251 -179 -22 -384 -44 -455 -48 -140 -8 -172
-19 -193 -67 -46 -100 37 -232 217 -349 154 -100 458 -225 544 -225 46 0 105
15 212 54 135 48 669 177 1040 251 548 109 928 166 1655 250 984 112 1444 150
2135 176 325 12 946 6 1180 -11 268 -20 399 -23 454 -11 117 25 152 61 152
156 0 67 -24 115 -88 176 -155 147 -377 291 -650 421 -125 60 -130 61 -223 64
-61 2 -116 -2 -155 -11z"/>
</g>
</svg>
