<?xml version="1.0" standalone="no"?>
<!DOCTYPE svg PUBLIC "-//W3C//DTD SVG 20010904//EN"
 "http://www.w3.org/TR/2001/REC-SVG-20010904/DTD/svg10.dtd">
<svg version="1.0" xmlns="http://www.w3.org/2000/svg"
 width="73728.000000pt" height="73728.000000pt" viewBox="0 0 73728.000000 73728.000000"
 preserveAspectRatio="xMidYMid meet">
<metadata>
Created by potrace 1.14, written by Peter Selinger 2001-2017
</metadata>
<g transform="translate(0.000000,73728.000000) scale(7.200000,-7.200000)"
fill="#000000" stroke="none">
<path d="M4800 7881 c-89 -29 -126 -75 -117 -144 3 -22 15 -52 27 -66 67 -83
112 -238 129 -451 18 -218 33 -1553 34 -3140 l2 -1535 -22 -99 c-27 -123 -67
-206 -108 -226 -17 -8 -67 -16 -115 -18 -106 -4 -183 11 -610 123 -329 86
-376 95 -398 73 -18 -18 -15 -64 8 -108 23 -45 66 -84 302 -268 352 -275 672
-545 900 -759 56 -53 111 -96 132 -103 109 -36 230 80 364 346 96 192 147 347
184 564 28 162 29 402 6 980 -41 997 -59 1788 -60 2630 -1 814 20 1437 54
1580 6 25 11 92 11 150 1 87 -2 113 -20 152 -31 68 -102 132 -267 240 -74 49
-189 80 -306 84 -58 2 -116 0 -130 -5z"/>
</g>
</svg>
