<?xml version="1.0" standalone="no"?>
<!DOCTYPE svg PUBLIC "-//W3C//DTD SVG 20010904//EN"
 "http://www.w3.org/TR/2001/REC-SVG-20010904/DTD/svg10.dtd">
<svg version="1.0" xmlns="http://www.w3.org/2000/svg"
 width="1024.000000pt" height="1024.000000pt" viewBox="0 0 1024.000000 1024.000000"
 preserveAspectRatio="xMidYMid meet">
<metadata>
Created by potrace 1.14, written by Peter Selinger 2001-2017
</metadata>
<g transform="translate(0.000000,1024.000000) scale(0.100000,-0.100000)"
fill="#000000" stroke="none">
<path d="M8110 6000 c-458 -105 -2626 -364 -3970 -474 -1727 -142 -2522 -199
-2870 -209 -121 -3 -163 -20 -193 -77 -90 -172 192 -436 667 -625 117 -47 121
-47 205 -42 57 3 118 15 181 36 163 52 332 85 720 141 118 16 271 41 340 55
627 124 1444 221 2315 275 182 11 447 29 590 40 503 37 683 44 1190 44 616 0
999 -20 1575 -80 280 -30 367 -28 432 8 83 45 116 165 70 254 -23 45 -143 164
-256 253 -163 129 -436 293 -626 377 -76 33 -95 38 -185 40 -73 3 -123 -2
-185 -16z"/>
</g>
</svg>
