<?xml version="1.0" standalone="no"?>
<!DOCTYPE svg PUBLIC "-//W3C//DTD SVG 20010904//EN"
 "http://www.w3.org/TR/2001/REC-SVG-20010904/DTD/svg10.dtd">
<svg version="1.0" xmlns="http://www.w3.org/2000/svg"
 width="1024.000000pt" height="1024.000000pt" viewBox="0 0 1024.000000 1024.000000"
 preserveAspectRatio="xMidYMid meet">
<metadata>
Created by potrace 1.14, written by Peter Selinger 2001-2017
</metadata>
<g transform="translate(0.000000,1024.000000) scale(0.100000,-0.100000)"
fill="#000000" stroke="none">
<path d="M7060 6480 c-104 -13 -188 -36 -331 -88 -448 -165 -879 -274 -1366
-346 -187 -28 -212 -35 -261 -73 -74 -56 -94 -147 -49 -214 59 -89 186 -115
512 -106 351 10 746 68 1380 203 507 108 765 181 817 231 142 135 18 281 -308
364 -124 31 -286 43 -394 29z"/>
</g>
</svg>
