<?xml version="1.0" standalone="no"?>
<!DOCTYPE svg PUBLIC "-//W3C//DTD SVG 20010904//EN"
 "http://www.w3.org/TR/2001/REC-SVG-20010904/DTD/svg10.dtd">
<svg version="1.0" xmlns="http://www.w3.org/2000/svg"
 width="1024.000000pt" height="1024.000000pt" viewBox="0 0 1024.000000 1024.000000"
 preserveAspectRatio="xMidYMid meet">
<metadata>
Created by potrace 1.14, written by Peter Selinger 2001-2017
</metadata>
<g transform="translate(0.000000,1024.000000) scale(0.100000,-0.100000)"
fill="#000000" stroke="none">
<path d="M8315 2973 c-16 -2 -64 -13 -105 -23 -208 -52 -970 -163 -1680 -244
-579 -67 -1669 -172 -2085 -201 -513 -37 -1041 -86 -1395 -130 -449 -55 -624
-66 -1235 -74 -578 -7 -566 -5 -599 -75 -37 -79 -7 -168 94 -279 106 -115 325
-239 508 -287 198 -52 361 -49 622 14 388 94 825 164 1637 265 621 78 1017
114 1373 126 250 8 478 22 765 45 395 32 513 39 882 50 612 20 1307 -14 1868
-90 270 -37 350 -35 434 8 72 37 104 155 65 238 -19 39 -136 154 -250 243
-192 152 -570 380 -677 408 -48 12 -155 15 -222 6z"/>
</g>
</svg>
