<?xml version="1.0" standalone="no"?>
<!DOCTYPE svg PUBLIC "-//W3C//DTD SVG 20010904//EN"
 "http://www.w3.org/TR/2001/REC-SVG-20010904/DTD/svg10.dtd">
<svg version="1.0" xmlns="http://www.w3.org/2000/svg"
 width="73728.000000pt" height="73728.000000pt" viewBox="0 0 73728.000000 73728.000000"
 preserveAspectRatio="xMidYMid meet">
<metadata>
Created by potrace 1.14, written by Peter Selinger 2001-2017
</metadata>
<g transform="translate(0.000000,73728.000000) scale(7.200000,-7.200000)"
fill="#000000" stroke="none">
<path d="M2787 5360 c-108 -34 -66 -115 136 -260 410 -294 975 -872 1812
-1854 293 -345 479 -558 625 -720 657 -726 1188 -1193 1510 -1326 128 -53 140
-54 602 -47 761 12 1388 53 1718 113 140 25 220 71 220 124 0 37 -24 55 -127
100 -106 45 -212 78 -668 209 -833 237 -1453 447 -1828 616 -437 198 -1028
622 -1662 1194 -219 199 -930 911 -1243 1247 -273 293 -333 351 -452 438 -77
57 -222 128 -305 151 -69 19 -296 29 -338 15z"/>
</g>
</svg>
