<?xml version="1.0" standalone="no"?>
<!DOCTYPE svg PUBLIC "-//W3C//DTD SVG 20010904//EN"
 "http://www.w3.org/TR/2001/REC-SVG-20010904/DTD/svg10.dtd">
<svg version="1.0" xmlns="http://www.w3.org/2000/svg"
 width="1024.000000pt" height="1024.000000pt" viewBox="0 0 1024.000000 1024.000000"
 preserveAspectRatio="xMidYMid meet">
<metadata>
Created by potrace 1.14, written by Peter Selinger 2001-2017
</metadata>
<g transform="translate(0.000000,1024.000000) scale(0.100000,-0.100000)"
fill="#000000" stroke="none">
<path d="M4907 8286 c-51 -19 -76 -42 -100 -96 -18 -40 -21 -67 -22 -235 -2
-243 -33 -429 -111 -668 -42 -127 -218 -400 -359 -557 -37 -41 -78 -96 -91
-122 -64 -126 -197 -330 -299 -458 -111 -139 -125 -187 -78 -280 47 -95 301
-335 396 -375 76 -32 260 -9 372 46 32 17 64 34 70 39 6 5 65 18 130 30 113
20 527 107 1460 306 220 47 427 88 461 91 81 7 159 -16 202 -60 61 -63 64
-203 7 -387 -13 -41 -47 -165 -75 -275 -371 -1441 -722 -2324 -1059 -2663
-156 -157 -310 -188 -487 -99 -102 51 -393 247 -645 432 -121 89 -197 116
-219 76 -26 -50 2 -138 88 -272 186 -294 437 -808 543 -1115 48 -140 57 -159
101 -203 56 -58 109 -76 218 -75 110 1 217 32 367 108 142 72 318 240 485 464
306 412 573 1051 1109 2652 263 786 294 849 539 1115 137 149 161 200 138 293
-26 106 -249 282 -636 502 -238 135 -263 144 -397 145 l-110 0 -110 -51 c-369
-173 -843 -292 -1360 -344 -170 -17 -522 -43 -598 -44 -62 -1 -71 1 -89 24
-15 19 -19 35 -15 66 4 35 52 101 377 520 205 263 403 511 440 549 78 82 94
120 88 215 -7 138 -117 302 -346 520 -174 166 -288 221 -385 186z"/>
</g>
</svg>
