<?xml version="1.0" standalone="no"?>
<!DOCTYPE svg PUBLIC "-//W3C//DTD SVG 20010904//EN"
 "http://www.w3.org/TR/2001/REC-SVG-20010904/DTD/svg10.dtd">
<svg version="1.0" xmlns="http://www.w3.org/2000/svg"
 width="1024.000000pt" height="1024.000000pt" viewBox="0 0 1024.000000 1024.000000"
 preserveAspectRatio="xMidYMid meet">
<metadata>
Created by potrace 1.14, written by Peter Selinger 2001-2017
</metadata>
<g transform="translate(0.000000,1024.000000) scale(0.100000,-0.100000)"
fill="#000000" stroke="none">
<path d="M3645 8899 c-48 -18 -94 -57 -115 -99 -36 -70 -26 -95 75 -210 143
-163 233 -393 264 -680 23 -199 25 -1454 6 -2363 -16 -742 -17 -920 -7 -1324
21 -815 64 -1289 147 -1607 36 -140 72 -211 141 -280 256 -256 692 -392 1424
-448 252 -19 932 -16 1160 5 450 42 750 105 1045 220 102 39 139 59 176 94 82
76 95 129 58 229 -28 75 -119 167 -214 216 -189 98 -321 132 -493 126 -129 -4
-157 -13 -290 -97 -190 -119 -657 -201 -1432 -252 -365 -24 -668 20 -873 128
-103 54 -206 156 -246 241 -120 262 -173 899 -151 1817 5 220 14 621 20 890
32 1537 113 2226 305 2591 54 102 71 176 55 246 -13 63 -56 133 -112 184 -121
109 -497 323 -633 360 -74 20 -268 28 -310 13z"/>
</g>
</svg>
