<?xml version="1.0" standalone="no"?>
<!DOCTYPE svg PUBLIC "-//W3C//DTD SVG 20010904//EN"
 "http://www.w3.org/TR/2001/REC-SVG-20010904/DTD/svg10.dtd">
<svg version="1.0" xmlns="http://www.w3.org/2000/svg"
 width="1024.000000pt" height="1024.000000pt" viewBox="0 0 1024.000000 1024.000000"
 preserveAspectRatio="xMidYMid meet">
<metadata>
Created by potrace 1.14, written by Peter Selinger 2001-2017
</metadata>
<g transform="translate(0.000000,1024.000000) scale(0.100000,-0.100000)"
fill="#000000" stroke="none">
<path d="M4419 9258 c-88 -31 -146 -71 -166 -114 -21 -44 -10 -105 40 -227 19
-45 57 -136 85 -203 104 -251 167 -540 192 -889 6 -89 10 -1089 10 -2723 0
-2800 -4 -2616 54 -2674 50 -49 92 -63 196 -63 88 0 101 3 162 33 78 38 131
94 147 155 7 25 35 701 71 1677 33 899 67 1763 75 1920 60 1162 123 1905 181
2159 8 36 31 101 51 145 32 71 37 91 37 156 0 127 -44 188 -237 330 -202 148
-400 261 -547 310 -46 16 -97 24 -175 27 -96 3 -118 1 -176 -19z"/>
</g>
</svg>
