<?xml version="1.0" standalone="no"?>
<!DOCTYPE svg PUBLIC "-//W3C//DTD SVG 20010904//EN"
 "http://www.w3.org/TR/2001/REC-SVG-20010904/DTD/svg10.dtd">
<svg version="1.0" xmlns="http://www.w3.org/2000/svg"
 width="73728.000000pt" height="73728.000000pt" viewBox="0 0 73728.000000 73728.000000"
 preserveAspectRatio="xMidYMid meet">
<metadata>
Created by potrace 1.14, written by Peter Selinger 2001-2017
</metadata>
<g transform="translate(0.000000,73728.000000) scale(7.200000,-7.200000)"
fill="#000000" stroke="none">
<path d="M4780 8069 c-33 -13 -59 -38 -78 -74 -13 -24 -16 -67 -17 -230 -1
-169 -4 -216 -24 -305 -26 -120 -138 -465 -174 -537 -14 -26 -36 -79 -50 -118
-112 -312 -484 -1105 -712 -1520 -269 -489 -556 -913 -845 -1250 -427 -496
-990 -1033 -1555 -1483 -77 -62 -162 -130 -188 -153 -79 -68 -98 -130 -47
-156 39 -20 148 -16 221 8 88 28 271 121 409 208 63 40 162 100 220 133 228
132 511 336 750 542 233 201 578 565 816 861 475 590 1034 1508 1364 2240 88
194 311 637 418 828 36 64 87 143 114 174 54 64 78 125 78 198 0 92 -109 257
-289 434 -58 58 -133 122 -165 143 -92 60 -185 81 -246 57z"/>
</g>
</svg>
