<?xml version="1.0" standalone="no"?>
<!DOCTYPE svg PUBLIC "-//W3C//DTD SVG 20010904//EN"
 "http://www.w3.org/TR/2001/REC-SVG-20010904/DTD/svg10.dtd">
<svg version="1.0" xmlns="http://www.w3.org/2000/svg"
 width="1024.000000pt" height="1024.000000pt" viewBox="0 0 1024.000000 1024.000000"
 preserveAspectRatio="xMidYMid meet">
<metadata>
Created by potrace 1.14, written by Peter Selinger 2001-2017
</metadata>
<g transform="translate(0.000000,1024.000000) scale(0.100000,-0.100000)"
fill="#000000" stroke="none">
<path d="M6448 8089 c-32 -4 -167 -37 -300 -73 -1112 -297 -1379 -351 -2078
-426 -231 -24 -641 -56 -910 -70 -290 -16 -392 -37 -420 -89 -49 -93 213 -261
534 -342 59 -15 126 -22 251 -26 160 -5 183 -3 385 30 118 20 298 47 400 61
585 80 745 103 1135 161 237 35 588 87 780 115 856 124 1083 205 1050 376 -19
104 -258 237 -500 279 -93 16 -234 18 -327 4z"/>
</g>
</svg>
