<?xml version="1.0" standalone="no"?>
<!DOCTYPE svg PUBLIC "-//W3C//DTD SVG 20010904//EN"
 "http://www.w3.org/TR/2001/REC-SVG-20010904/DTD/svg10.dtd">
<svg version="1.0" xmlns="http://www.w3.org/2000/svg"
 width="73728.000000pt" height="73728.000000pt" viewBox="0 0 73728.000000 73728.000000"
 preserveAspectRatio="xMidYMid meet">
<metadata>
Created by potrace 1.14, written by Peter Selinger 2001-2017
</metadata>
<g transform="translate(0.000000,73728.000000) scale(7.200000,-7.200000)"
fill="#000000" stroke="none">
<path d="M4704 9580 c-50 -11 -100 -47 -114 -80 -17 -41 -7 -93 32 -165 107
-201 119 -240 139 -458 32 -337 -31 -1201 -126 -1752 -14 -77 -29 -183 -35
-235 -26 -223 -152 -845 -240 -1180 -93 -355 -224 -764 -329 -1028 -70 -174
-114 -253 -200 -352 -203 -233 -223 -439 -66 -681 78 -121 111 -122 315 -9
416 231 942 361 1712 426 231 19 622 24 638 8 8 -8 -106 -269 -426 -970 -240
-527 -445 -984 -456 -1014 -27 -76 -28 -162 -4 -189 27 -29 73 -27 127 7 83
53 425 476 961 1187 321 427 490 593 724 714 232 120 253 238 73 405 -160 148
-415 317 -554 368 -47 16 -82 21 -160 21 -117 -1 -207 -22 -346 -81 -154 -65
-746 -199 -1134 -256 -271 -40 -639 -72 -670 -58 -33 15 -55 68 -55 131 0 81
97 565 201 1006 27 116 81 361 119 545 88 430 155 733 241 1095 38 160 106
457 150 660 153 709 245 1001 375 1196 73 108 84 132 84 174 0 82 -53 151
-183 236 -170 112 -587 307 -702 328 -32 6 -59 11 -59 10 -1 -1 -15 -4 -32 -9z"/>
</g>
</svg>
