<?xml version="1.0" standalone="no"?>
<!DOCTYPE svg PUBLIC "-//W3C//DTD SVG 20010904//EN"
 "http://www.w3.org/TR/2001/REC-SVG-20010904/DTD/svg10.dtd">
<svg version="1.0" xmlns="http://www.w3.org/2000/svg"
 width="1024.000000pt" height="1024.000000pt" viewBox="0 0 1024.000000 1024.000000"
 preserveAspectRatio="xMidYMid meet">
<metadata>
Created by potrace 1.14, written by Peter Selinger 2001-2017
</metadata>
<g transform="translate(0.000000,1024.000000) scale(0.100000,-0.100000)"
fill="#000000" stroke="none">
<path d="M4398 8603 c-49 -31 -61 -93 -32 -168 71 -183 103 -318 128 -535 25
-210 39 -543 32 -735 -4 -99 -11 -295 -16 -435 -23 -610 -61 -1938 -56 -1968
22 -139 225 -176 383 -69 54 37 108 110 122 165 6 21 42 444 81 942 132 1692
158 1976 192 2085 29 91 30 205 4 255 -10 19 -71 87 -135 151 -164 165 -333
273 -489 314 -80 20 -179 19 -214 -2z"/>
</g>
</svg>
