<?xml version="1.0" standalone="no"?>
<!DOCTYPE svg PUBLIC "-//W3C//DTD SVG 20010904//EN"
 "http://www.w3.org/TR/2001/REC-SVG-20010904/DTD/svg10.dtd">
<svg version="1.0" xmlns="http://www.w3.org/2000/svg"
 width="73728.000000pt" height="73728.000000pt" viewBox="0 0 73728.000000 73728.000000"
 preserveAspectRatio="xMidYMid meet">
<metadata>
Created by potrace 1.14, written by Peter Selinger 2001-2017
</metadata>
<g transform="translate(0.000000,73728.000000) scale(7.200000,-7.200000)"
fill="#000000" stroke="none">
<path d="M5986 5864 c-53 -52 -16 -192 73 -277 20 -19 117 -85 216 -147 550
-344 1351 -914 1916 -1364 66 -53 156 -100 222 -117 92 -23 152 16 205 130 22
48 24 63 20 145 -9 159 -114 418 -222 547 -270 322 -1020 679 -2174 1033 -118
37 -220 66 -227 66 -8 0 -21 -7 -29 -16z"/>
</g>
</svg>
