<?xml version="1.0" standalone="no"?>
<!DOCTYPE svg PUBLIC "-//W3C//DTD SVG 20010904//EN"
 "http://www.w3.org/TR/2001/REC-SVG-20010904/DTD/svg10.dtd">
<svg version="1.0" xmlns="http://www.w3.org/2000/svg"
 width="73728.000000pt" height="73728.000000pt" viewBox="0 0 73728.000000 73728.000000"
 preserveAspectRatio="xMidYMid meet">
<metadata>
Created by potrace 1.14, written by Peter Selinger 2001-2017
</metadata>
<g transform="translate(0.000000,73728.000000) scale(7.200000,-7.200000)"
fill="#000000" stroke="none">
<path d="M6880 7339 c-501 -142 -1071 -276 -1555 -364 -136 -25 -267 -54 -289
-64 -160 -71 -196 -245 -66 -311 76 -39 315 -52 452 -26 40 8 112 26 159 40
177 51 596 135 1134 227 329 56 381 48 465 -72 67 -96 103 -191 136 -359 34
-179 28 -1292 -11 -1980 -33 -565 -71 -934 -131 -1270 -146 -821 -300 -1288
-485 -1472 -55 -55 -60 -58 -108 -58 -92 0 -311 81 -671 250 -275 129 -459
192 -488 168 -20 -17 -9 -71 24 -121 14 -22 93 -117 173 -211 270 -314 463
-578 614 -843 101 -177 124 -208 201 -281 114 -106 189 -114 339 -35 268 141
549 608 777 1291 176 530 315 1658 435 3547 29 447 45 605 81 778 43 202 97
336 185 452 96 127 93 234 -8 346 -73 80 -481 301 -690 373 -138 47 -235 66
-340 65 -78 0 -117 -8 -333 -70z"/>
</g>
</svg>
