<?xml version="1.0" standalone="no"?>
<!DOCTYPE svg PUBLIC "-//W3C//DTD SVG 20010904//EN"
 "http://www.w3.org/TR/2001/REC-SVG-20010904/DTD/svg10.dtd">
<svg version="1.0" xmlns="http://www.w3.org/2000/svg"
 width="73728.000000pt" height="73728.000000pt" viewBox="0 0 73728.000000 73728.000000"
 preserveAspectRatio="xMidYMid meet">
<metadata>
Created by potrace 1.14, written by Peter Selinger 2001-2017
</metadata>
<g transform="translate(0.000000,73728.000000) scale(7.200000,-7.200000)"
fill="#000000" stroke="none">
<path d="M4463 7250 c-37 -22 -53 -67 -53 -153 0 -87 15 -137 95 -307 68 -145
99 -227 124 -325 18 -70 44 -763 37 -970 -15 -428 -56 -798 -137 -1229 -46
-248 -50 -350 -18 -537 24 -143 67 -269 144 -425 61 -123 117 -194 176 -224
145 -74 252 83 333 490 47 234 50 326 36 1004 -7 342 -11 938 -9 1326 l4 705
-23 56 c-38 95 -94 169 -228 301 -227 222 -340 308 -409 308 -22 0 -54 -9 -72
-20z"/>
</g>
</svg>
