<?xml version="1.0" standalone="no"?>
<!DOCTYPE svg PUBLIC "-//W3C//DTD SVG 20010904//EN"
 "http://www.w3.org/TR/2001/REC-SVG-20010904/DTD/svg10.dtd">
<svg version="1.0" xmlns="http://www.w3.org/2000/svg"
 width="73728.000000pt" height="73728.000000pt" viewBox="0 0 73728.000000 73728.000000"
 preserveAspectRatio="xMidYMid meet">
<metadata>
Created by potrace 1.14, written by Peter Selinger 2001-2017
</metadata>
<g transform="translate(0.000000,73728.000000) scale(7.200000,-7.200000)"
fill="#000000" stroke="none">
<path d="M8345 2883 c-11 -2 -58 -13 -105 -23 -237 -53 -806 -137 -1218 -180
-163 -17 -334 -35 -380 -41 -80 -9 -552 -42 -782 -54 -746 -38 -1820 -114
-2120 -150 -25 -3 -151 -10 -280 -15 -129 -5 -329 -19 -445 -30 -385 -37 -506
-41 -1150 -46 -394 -3 -655 -8 -678 -15 -74 -20 -98 -109 -53 -204 69 -149
331 -328 575 -392 119 -31 304 -36 416 -10 336 77 635 126 1165 191 914 113
1506 164 2070 181 199 6 592 25 910 45 284 17 912 23 1250 11 530 -19 934 -51
1420 -112 358 -45 429 -35 476 65 27 58 28 66 13 120 -13 48 -136 178 -274
289 -177 142 -482 333 -581 363 -44 13 -182 17 -229 7z"/>
</g>
</svg>
