<?xml version="1.0" standalone="no"?>
<!DOCTYPE svg PUBLIC "-//W3C//DTD SVG 20010904//EN"
 "http://www.w3.org/TR/2001/REC-SVG-20010904/DTD/svg10.dtd">
<svg version="1.0" xmlns="http://www.w3.org/2000/svg"
 width="73728.000000pt" height="73728.000000pt" viewBox="0 0 73728.000000 73728.000000"
 preserveAspectRatio="xMidYMid meet">
<metadata>
Created by potrace 1.14, written by Peter Selinger 2001-2017
</metadata>
<g transform="translate(0.000000,73728.000000) scale(7.200000,-7.200000)"
fill="#000000" stroke="none">
<path d="M3713 9410 c-83 -26 -94 -103 -33 -232 45 -95 70 -206 70 -308 0 -96
-35 -557 -65 -870 -70 -710 -156 -1299 -286 -1960 -50 -254 -65 -317 -94 -375
-41 -85 -133 -208 -246 -331 -181 -196 -183 -292 -10 -457 98 -92 253 -205
308 -225 48 -16 107 -7 170 26 268 143 391 198 639 282 559 191 1282 339 2236
460 620 78 719 82 837 34 85 -34 168 -159 198 -297 32 -151 -6 -439 -132
-1015 -128 -584 -406 -1550 -496 -1722 -49 -95 -122 -186 -202 -250 -56 -45
-67 -50 -112 -50 -66 0 -195 22 -390 65 -257 58 -465 113 -530 140 -70 29
-107 31 -129 9 -42 -42 2 -137 123 -266 193 -206 421 -548 533 -800 49 -112
81 -159 143 -217 67 -62 123 -84 199 -79 71 4 104 20 244 113 264 175 470 381
636 636 95 148 141 256 190 450 90 354 254 1116 432 2009 58 289 116 562 130
607 50 169 110 275 231 410 84 95 112 148 113 211 0 36 -6 49 -42 88 -49 53
-236 180 -418 283 -276 158 -328 174 -565 174 -165 0 -305 -17 -520 -63 -77
-16 -291 -52 -476 -79 -731 -108 -1425 -243 -2192 -426 -263 -64 -354 -71
-402 -33 -24 19 -27 26 -22 62 3 23 15 122 26 221 114 969 218 1645 346 2240
73 340 174 719 246 920 44 123 46 208 6 280 -39 69 -204 198 -342 267 -106 54
-285 88 -352 68z"/>
</g>
</svg>
