<?xml version="1.0" standalone="no"?>
<!DOCTYPE svg PUBLIC "-//W3C//DTD SVG 20010904//EN"
 "http://www.w3.org/TR/2001/REC-SVG-20010904/DTD/svg10.dtd">
<svg version="1.0" xmlns="http://www.w3.org/2000/svg"
 width="1024.000000pt" height="1024.000000pt" viewBox="0 0 1024.000000 1024.000000"
 preserveAspectRatio="xMidYMid meet">
<metadata>
Created by potrace 1.14, written by Peter Selinger 2001-2017
</metadata>
<g transform="translate(0.000000,1024.000000) scale(0.100000,-0.100000)"
fill="#000000" stroke="none">
<path d="M5230 6775 c-41 -8 -133 -35 -205 -60 -232 -83 -493 -142 -849 -195
-187 -28 -373 -78 -422 -115 -19 -14 -19 -14 1 -34 25 -24 215 -103 316 -130
274 -74 657 -48 1224 84 507 118 528 124 558 156 37 40 38 104 2 147 -32 38
-158 104 -255 132 -96 29 -263 36 -370 15z"/>
</g>
</svg>
