<?xml version="1.0" standalone="no"?>
<!DOCTYPE svg PUBLIC "-//W3C//DTD SVG 20010904//EN"
 "http://www.w3.org/TR/2001/REC-SVG-20010904/DTD/svg10.dtd">
<svg version="1.0" xmlns="http://www.w3.org/2000/svg"
 width="1024.000000pt" height="1024.000000pt" viewBox="0 0 1024.000000 1024.000000"
 preserveAspectRatio="xMidYMid meet">
<metadata>
Created by potrace 1.14, written by Peter Selinger 2001-2017
</metadata>
<g transform="translate(0.000000,1024.000000) scale(0.100000,-0.100000)"
fill="#000000" stroke="none">
<path d="M6775 8363 c-88 -12 -242 -49 -416 -98 -591 -170 -1224 -303 -1789
-379 -392 -52 -685 -75 -1096 -84 -276 -7 -294 -8 -321 -28 -72 -53 -16 -159
150 -282 117 -86 129 -94 202 -122 53 -21 77 -24 200 -24 126 -1 153 2 265 31
69 18 172 39 230 47 58 8 184 34 280 56 821 192 1986 369 2196 333 92 -16 137
-48 155 -110 25 -85 16 -234 -29 -483 -23 -124 -91 -511 -151 -860 -214 -1234
-417 -2348 -588 -3230 -53 -272 -98 -524 -100 -561 -5 -60 -3 -68 22 -97 42
-50 99 -75 185 -80 91 -5 166 9 246 47 67 32 136 100 152 152 6 19 48 241 92
494 235 1337 493 2604 715 3511 99 402 177 575 357 786 80 93 102 145 96 225
-6 88 -45 161 -130 246 -154 153 -581 481 -656 503 -42 13 -195 17 -267 7z"/>
</g>
</svg>
