<?xml version="1.0" standalone="no"?>
<!DOCTYPE svg PUBLIC "-//W3C//DTD SVG 20010904//EN"
 "http://www.w3.org/TR/2001/REC-SVG-20010904/DTD/svg10.dtd">
<svg version="1.0" xmlns="http://www.w3.org/2000/svg"
 width="73728.000000pt" height="73728.000000pt" viewBox="0 0 73728.000000 73728.000000"
 preserveAspectRatio="xMidYMid meet">
<metadata>
Created by potrace 1.14, written by Peter Selinger 2001-2017
</metadata>
<g transform="translate(0.000000,73728.000000) scale(7.200000,-7.200000)"
fill="#000000" stroke="none">
<path d="M3476 7485 c-70 -37 -74 -98 -17 -224 111 -240 158 -552 168 -1096 9
-493 -22 -1104 -73 -1435 -99 -651 -329 -1239 -699 -1790 -208 -310 -411 -547
-734 -861 -122 -118 -231 -229 -242 -247 -27 -42 -19 -79 17 -88 41 -11 163 3
234 26 139 46 327 161 510 314 774 647 1188 1391 1380 2476 120 678 172 1154
210 1910 9 186 18 261 66 546 8 50 12 104 8 120 -11 50 -51 109 -91 136 -110
74 -333 171 -480 209 -93 23 -216 25 -257 4z"/>
</g>
</svg>
