<?xml version="1.0" standalone="no"?>
<!DOCTYPE svg PUBLIC "-//W3C//DTD SVG 20010904//EN"
 "http://www.w3.org/TR/2001/REC-SVG-20010904/DTD/svg10.dtd">
<svg version="1.0" xmlns="http://www.w3.org/2000/svg"
 width="73728.000000pt" height="73728.000000pt" viewBox="0 0 73728.000000 73728.000000"
 preserveAspectRatio="xMidYMid meet">
<metadata>
Created by potrace 1.14, written by Peter Selinger 2001-2017
</metadata>
<g transform="translate(0.000000,73728.000000) scale(7.200000,-7.200000)"
fill="#000000" stroke="none">
<path d="M4901 4709 c-66 -13 -127 -53 -157 -104 -21 -36 -27 -65 -35 -152
-18 -214 -64 -372 -170 -588 -164 -335 -407 -654 -778 -1025 -217 -217 -319
-298 -546 -435 -113 -68 -368 -198 -488 -249 -92 -39 -183 -99 -206 -136 -97
-160 79 -653 272 -764 89 -51 164 -40 330 48 503 268 1374 549 2437 786 446
100 1150 237 1330 260 127 16 178 30 211 57 92 77 -39 193 -218 193 -116 0
-1724 -197 -2693 -330 -315 -44 -384 -40 -365 21 10 32 423 507 814 939 259
285 717 744 864 865 65 53 132 115 148 138 79 109 2 217 -253 353 -213 115
-358 151 -497 123z"/>
</g>
</svg>
