<?xml version="1.0" standalone="no"?>
<!DOCTYPE svg PUBLIC "-//W3C//DTD SVG 20010904//EN"
 "http://www.w3.org/TR/2001/REC-SVG-20010904/DTD/svg10.dtd">
<svg version="1.0" xmlns="http://www.w3.org/2000/svg"
 width="73728.000000pt" height="73728.000000pt" viewBox="0 0 73728.000000 73728.000000"
 preserveAspectRatio="xMidYMid meet">
<metadata>
Created by potrace 1.14, written by Peter Selinger 2001-2017
</metadata>
<g transform="translate(0.000000,73728.000000) scale(7.200000,-7.200000)"
fill="#000000" stroke="none">
<path d="M3064 3455 c-43 -21 -64 -44 -149 -162 -215 -299 -445 -571 -740
-873 -244 -250 -286 -314 -320 -474 -19 -95 -19 -160 0 -272 19 -108 49 -171
95 -202 31 -21 44 -23 108 -19 175 10 413 190 628 472 228 300 351 529 463
860 60 180 91 323 98 465 6 115 -2 146 -55 203 -32 34 -63 34 -128 2z"/>
</g>
</svg>
