<?xml version="1.0" standalone="no"?>
<!DOCTYPE svg PUBLIC "-//W3C//DTD SVG 20010904//EN"
 "http://www.w3.org/TR/2001/REC-SVG-20010904/DTD/svg10.dtd">
<svg version="1.0" xmlns="http://www.w3.org/2000/svg"
 width="1024.000000pt" height="1024.000000pt" viewBox="0 0 1024.000000 1024.000000"
 preserveAspectRatio="xMidYMid meet">
<metadata>
Created by potrace 1.14, written by Peter Selinger 2001-2017
</metadata>
<g transform="translate(0.000000,1024.000000) scale(0.100000,-0.100000)"
fill="#000000" stroke="none">
<path d="M7965 6625 c-5 -2 -71 -19 -145 -39 -279 -74 -624 -120 -1320 -176
-644 -52 -1039 -94 -1625 -175 -176 -24 -349 -47 -385 -50 -177 -17 -399 -51
-628 -95 -429 -84 -1098 -192 -1517 -245 -159 -20 -184 -28 -220 -65 -63 -66
-35 -194 62 -280 52 -46 137 -76 187 -66 17 3 72 26 121 51 207 105 751 198
1745 300 474 49 770 82 930 105 280 40 753 81 1345 115 526 30 1172 57 1224
51 94 -11 171 -58 207 -127 41 -80 46 -152 51 -704 9 -1012 -44 -1768 -167
-2396 -56 -286 -110 -407 -207 -469 -112 -71 -176 -69 -525 19 -150 38 -300
79 -332 90 -70 25 -129 27 -146 6 -19 -23 -6 -89 34 -170 23 -47 74 -115 147
-201 343 -395 574 -711 696 -948 130 -254 254 -299 414 -150 94 88 222 305
307 519 131 330 247 810 336 1390 54 349 73 512 116 975 90 958 160 1524 221
1788 24 105 40 143 83 195 52 64 81 126 81 176 0 38 -4 47 -34 70 -18 14 -61
50 -95 80 -118 104 -236 175 -634 376 -35 18 -88 38 -119 44 -52 10 -184 14
-208 6z"/>
</g>
</svg>
