<?xml version="1.0" standalone="no"?>
<!DOCTYPE svg PUBLIC "-//W3C//DTD SVG 20010904//EN"
 "http://www.w3.org/TR/2001/REC-SVG-20010904/DTD/svg10.dtd">
<svg version="1.0" xmlns="http://www.w3.org/2000/svg"
 width="73728.000000pt" height="73728.000000pt" viewBox="0 0 73728.000000 73728.000000"
 preserveAspectRatio="xMidYMid meet">
<metadata>
Created by potrace 1.14, written by Peter Selinger 2001-2017
</metadata>
<g transform="translate(0.000000,73728.000000) scale(7.200000,-7.200000)"
fill="#000000" stroke="none">
<path d="M5726 9189 c-21 -5 -226 -72 -455 -149 -620 -208 -1376 -435 -1541
-464 -149 -26 -410 -39 -631 -31 -226 7 -270 2 -313 -41 -21 -22 -26 -36 -26
-76 0 -72 22 -113 103 -192 239 -236 475 -304 742 -215 50 17 108 41 130 53
84 50 696 288 1010 394 373 126 585 176 750 177 127 0 147 -8 193 -77 22 -33
27 -53 27 -98 l-1 -57 -240 -359 c-298 -444 -604 -915 -637 -980 -60 -118 -58
-183 6 -170 53 11 122 65 337 262 481 442 864 759 1140 944 152 102 232 146
367 204 120 52 143 70 168 131 15 34 15 47 4 98 -15 71 -61 136 -146 208 -166
142 -602 400 -729 433 -67 17 -195 20 -258 5z"/>
</g>
</svg>
