<?xml version="1.0" standalone="no"?>
<!DOCTYPE svg PUBLIC "-//W3C//DTD SVG 20010904//EN"
 "http://www.w3.org/TR/2001/REC-SVG-20010904/DTD/svg10.dtd">
<svg version="1.0" xmlns="http://www.w3.org/2000/svg"
 width="1024.000000pt" height="1024.000000pt" viewBox="0 0 1024.000000 1024.000000"
 preserveAspectRatio="xMidYMid meet">
<metadata>
Created by potrace 1.14, written by Peter Selinger 2001-2017
</metadata>
<g transform="translate(0.000000,1024.000000) scale(0.100000,-0.100000)"
fill="#000000" stroke="none">
<path d="M6378 8969 c-20 -6 -44 -19 -54 -30 -24 -26 -21 -92 7 -159 20 -47
23 -72 23 -175 0 -133 -16 -222 -71 -405 -84 -278 -232 -629 -453 -1070 -278
-557 -354 -687 -508 -870 -80 -95 -285 -299 -399 -397 -66 -57 -113 -135 -113
-188 0 -97 117 -332 206 -417 59 -55 131 -62 227 -22 175 75 429 144 777 213
321 63 492 91 557 91 75 0 199 31 264 67 27 14 68 46 89 70 49 53 54 94 13
120 -25 17 -75 18 -633 23 -562 5 -608 6 -648 24 -67 29 -81 79 -39 148 12 21
84 142 161 270 435 729 818 1301 1251 1868 120 157 139 195 133 261 -10 96
-141 248 -377 438 -152 123 -194 144 -296 147 -44 2 -97 -2 -117 -7z"/>
</g>
</svg>
