<?xml version="1.0" standalone="no"?>
<!DOCTYPE svg PUBLIC "-//W3C//DTD SVG 20010904//EN"
 "http://www.w3.org/TR/2001/REC-SVG-20010904/DTD/svg10.dtd">
<svg version="1.0" xmlns="http://www.w3.org/2000/svg"
 width="73728.000000pt" height="73728.000000pt" viewBox="0 0 73728.000000 73728.000000"
 preserveAspectRatio="xMidYMid meet">
<metadata>
Created by potrace 1.14, written by Peter Selinger 2001-2017
</metadata>
<g transform="translate(0.000000,73728.000000) scale(7.200000,-7.200000)"
fill="#000000" stroke="none">
<path d="M7843 6629 c-31 -15 -48 -33 -64 -66 -20 -42 -21 -54 -15 -173 11
-220 -13 -286 -232 -613 -202 -302 -444 -633 -817 -1120 -66 -86 -75 -103 -75
-140 0 -63 21 -87 75 -87 81 0 134 30 321 182 723 585 1398 1081 1639 1203 86
43 125 86 125 135 0 66 -122 246 -272 401 -161 166 -324 258 -509 288 -93 16
-129 13 -176 -10z"/>
</g>
</svg>
