<?xml version="1.0" standalone="no"?>
<!DOCTYPE svg PUBLIC "-//W3C//DTD SVG 20010904//EN"
 "http://www.w3.org/TR/2001/REC-SVG-20010904/DTD/svg10.dtd">
<svg version="1.0" xmlns="http://www.w3.org/2000/svg"
 width="1024.000000pt" height="1024.000000pt" viewBox="0 0 1024.000000 1024.000000"
 preserveAspectRatio="xMidYMid meet">
<metadata>
Created by potrace 1.14, written by Peter Selinger 2001-2017
</metadata>
<g transform="translate(0.000000,1024.000000) scale(0.100000,-0.100000)"
fill="#000000" stroke="none">
<path d="M4334 7341 c-41 -10 -100 -47 -108 -67 -3 -9 -6 -29 -6 -46 0 -26 21
-51 139 -167 185 -182 253 -289 315 -491 224 -741 296 -1227 283 -1900 -9
-454 -50 -739 -148 -1047 -36 -110 -89 -177 -177 -220 -53 -26 -66 -28 -172
-28 -104 1 -141 7 -385 62 -148 34 -282 64 -296 68 -36 9 -63 -18 -55 -57 9
-45 43 -84 166 -186 233 -195 412 -399 496 -565 64 -126 155 -197 254 -197 96
0 257 106 425 281 150 156 235 304 313 551 111 345 148 695 139 1288 -7 420
-18 555 -81 990 -68 463 -120 717 -196 955 -79 244 -152 369 -308 525 -95 94
-118 112 -202 153 -172 83 -316 118 -396 98z"/>
</g>
</svg>
