<?xml version="1.0" standalone="no"?>
<!DOCTYPE svg PUBLIC "-//W3C//DTD SVG 20010904//EN"
 "http://www.w3.org/TR/2001/REC-SVG-20010904/DTD/svg10.dtd">
<svg version="1.0" xmlns="http://www.w3.org/2000/svg"
 width="73728.000000pt" height="73728.000000pt" viewBox="0 0 73728.000000 73728.000000"
 preserveAspectRatio="xMidYMid meet">
<metadata>
Created by potrace 1.14, written by Peter Selinger 2001-2017
</metadata>
<g transform="translate(0.000000,73728.000000) scale(7.200000,-7.200000)"
fill="#000000" stroke="none">
<path d="M8495 5550 c-38 -10 -134 -39 -212 -64 -342 -110 -707 -184 -1243
-251 -480 -60 -1268 -170 -1856 -259 -164 -25 -441 -64 -614 -86 -636 -82
-1191 -166 -1780 -269 -724 -126 -1123 -173 -1795 -210 -83 -4 -161 -13 -173
-20 -31 -17 -62 -69 -62 -107 0 -85 100 -200 277 -318 110 -73 191 -112 303
-147 62 -20 96 -24 200 -24 118 0 130 2 225 36 447 162 593 209 895 288 627
165 1211 270 2280 411 212 28 486 66 611 85 1178 180 2389 236 3442 160 341
-25 457 -29 516 -16 119 25 151 60 151 164 0 43 -6 63 -28 96 -38 56 -167 163
-316 262 -129 86 -411 232 -516 267 -81 28 -206 29 -305 2z"/>
</g>
</svg>
