<?xml version="1.0" standalone="no"?>
<!DOCTYPE svg PUBLIC "-//W3C//DTD SVG 20010904//EN"
 "http://www.w3.org/TR/2001/REC-SVG-20010904/DTD/svg10.dtd">
<svg version="1.0" xmlns="http://www.w3.org/2000/svg"
 width="1024.000000pt" height="1024.000000pt" viewBox="0 0 1024.000000 1024.000000"
 preserveAspectRatio="xMidYMid meet">
<metadata>
Created by potrace 1.14, written by Peter Selinger 2001-2017
</metadata>
<g transform="translate(0.000000,1024.000000) scale(0.100000,-0.100000)"
fill="#000000" stroke="none">
<path d="M6655 4458 c-127 -6 -206 -17 -380 -53 -121 -25 -355 -70 -520 -100
-165 -29 -412 -79 -550 -110 -137 -30 -311 -69 -385 -85 -124 -27 -137 -32
-162 -62 -69 -82 -77 -202 -21 -313 64 -126 199 -275 266 -293 59 -17 132 8
212 72 124 99 317 201 512 270 304 106 768 203 1233 257 249 28 285 36 321 67
28 23 31 30 26 68 -8 78 -110 188 -243 265 -57 32 -45 32 -309 17z"/>
</g>
</svg>
