<?xml version="1.0" standalone="no"?>
<!DOCTYPE svg PUBLIC "-//W3C//DTD SVG 20010904//EN"
 "http://www.w3.org/TR/2001/REC-SVG-20010904/DTD/svg10.dtd">
<svg version="1.0" xmlns="http://www.w3.org/2000/svg"
 width="1024.000000pt" height="1024.000000pt" viewBox="0 0 1024.000000 1024.000000"
 preserveAspectRatio="xMidYMid meet">
<metadata>
Created by potrace 1.14, written by Peter Selinger 2001-2017
</metadata>
<g transform="translate(0.000000,1024.000000) scale(0.100000,-0.100000)"
fill="#000000" stroke="none">
<path d="M8115 2649 c-33 -5 -100 -22 -150 -39 -95 -31 -241 -51 -1375 -185
-613 -72 -829 -93 -1165 -110 -154 -8 -347 -21 -430 -30 -82 -8 -249 -19 -370
-25 -121 -6 -321 -20 -445 -31 -124 -10 -358 -26 -520 -34 -322 -16 -320 -16
-595 -50 -438 -55 -672 -68 -1285 -69 -492 -1 -528 -2 -554 -19 -31 -21 -56
-72 -56 -117 0 -86 113 -221 277 -331 179 -119 331 -182 485 -202 102 -13 152
-7 375 46 368 88 914 171 1673 257 567 63 856 85 1388 105 374 14 603 28 992
57 226 17 1234 17 1480 0 325 -23 627 -52 915 -88 302 -39 395 -41 458 -10 72
35 103 154 63 238 -20 41 -159 181 -286 288 -313 263 -625 388 -875 349z"/>
</g>
</svg>
