<?xml version="1.0" standalone="no"?>
<!DOCTYPE svg PUBLIC "-//W3C//DTD SVG 20010904//EN"
 "http://www.w3.org/TR/2001/REC-SVG-20010904/DTD/svg10.dtd">
<svg version="1.0" xmlns="http://www.w3.org/2000/svg"
 width="1024.000000pt" height="1024.000000pt" viewBox="0 0 1024.000000 1024.000000"
 preserveAspectRatio="xMidYMid meet">
<metadata>
Created by potrace 1.14, written by Peter Selinger 2001-2017
</metadata>
<g transform="translate(0.000000,1024.000000) scale(0.100000,-0.100000)"
fill="#000000" stroke="none">
<path d="M2607 7745 c-36 -12 -75 -40 -104 -74 -31 -36 -8 -104 60 -181 74
-83 129 -242 186 -534 73 -372 150 -980 191 -1508 11 -142 29 -333 40 -425 45
-384 54 -562 54 -1028 1 -537 -17 -798 -85 -1267 -43 -304 -81 -410 -189 -538
-88 -104 -114 -164 -108 -245 7 -83 45 -152 129 -235 76 -75 197 -162 253
-180 43 -14 103 -7 149 17 17 9 68 51 113 94 44 42 114 98 153 124 523 338
1809 505 3901 505 319 0 511 -5 643 -15 276 -23 405 -2 469 74 58 68 46 140
-39 232 -140 151 -524 348 -713 365 -72 7 -165 -2 -480 -46 -572 -81 -2363
-359 -2734 -425 -374 -66 -478 -79 -669 -79 l-178 -1 -34 36 c-61 67 -66 111
-75 664 -5 270 -16 589 -24 710 -35 504 -81 2231 -81 3065 0 372 2 419 18 458
21 53 22 124 1 167 -24 51 -75 84 -217 142 -307 125 -518 168 -630 128z"/>
</g>
</svg>
