<?xml version="1.0" standalone="no"?>
<!DOCTYPE svg PUBLIC "-//W3C//DTD SVG 20010904//EN"
 "http://www.w3.org/TR/2001/REC-SVG-20010904/DTD/svg10.dtd">
<svg version="1.0" xmlns="http://www.w3.org/2000/svg"
 width="1024.000000pt" height="1024.000000pt" viewBox="0 0 1024.000000 1024.000000"
 preserveAspectRatio="xMidYMid meet">
<metadata>
Created by potrace 1.14, written by Peter Selinger 2001-2017
</metadata>
<g transform="translate(0.000000,1024.000000) scale(0.100000,-0.100000)"
fill="#000000" stroke="none">
<path d="M6555 8966 c-43 -19 -92 -71 -100 -105 -9 -44 11 -106 65 -201 78
-138 109 -205 147 -318 29 -87 37 -127 41 -212 9 -194 -25 -1177 -63 -1805
-27 -447 -35 -541 -96 -1215 -33 -366 -59 -688 -57 -717 8 -93 75 -154 172
-155 91 -1 174 51 218 135 21 41 26 79 78 567 17 157 60 530 95 830 35 300 69
604 75 675 56 698 161 1316 317 1877 l46 167 -26 53 c-45 92 -112 156 -237
227 -288 163 -566 245 -675 197z"/>
</g>
</svg>
