<?xml version="1.0" standalone="no"?>
<!DOCTYPE svg PUBLIC "-//W3C//DTD SVG 20010904//EN"
 "http://www.w3.org/TR/2001/REC-SVG-20010904/DTD/svg10.dtd">
<svg version="1.0" xmlns="http://www.w3.org/2000/svg"
 width="73728.000000pt" height="73728.000000pt" viewBox="0 0 73728.000000 73728.000000"
 preserveAspectRatio="xMidYMid meet">
<metadata>
Created by potrace 1.14, written by Peter Selinger 2001-2017
</metadata>
<g transform="translate(0.000000,73728.000000) scale(7.200000,-7.200000)"
fill="#000000" stroke="none">
<path d="M5765 9321 c-95 -25 -145 -71 -145 -132 0 -56 14 -84 93 -188 169
-225 247 -423 247 -631 0 -290 -76 -1063 -146 -1490 -80 -484 -239 -1110 -378
-1482 -272 -733 -632 -1315 -1162 -1882 -105 -111 -213 -211 -439 -400 -193
-161 -301 -259 -303 -272 -5 -34 47 -49 163 -49 261 2 566 155 960 482 151
126 525 489 600 583 216 271 314 426 465 735 374 767 621 1590 765 2550 116
772 198 1119 335 1424 61 135 53 187 -42 279 -163 157 -525 378 -732 447 -84
28 -225 41 -281 26z"/>
</g>
</svg>
