<?xml version="1.0" standalone="no"?>
<!DOCTYPE svg PUBLIC "-//W3C//DTD SVG 20010904//EN"
 "http://www.w3.org/TR/2001/REC-SVG-20010904/DTD/svg10.dtd">
<svg version="1.0" xmlns="http://www.w3.org/2000/svg"
 width="73728.000000pt" height="73728.000000pt" viewBox="0 0 73728.000000 73728.000000"
 preserveAspectRatio="xMidYMid meet">
<metadata>
Created by potrace 1.14, written by Peter Selinger 2001-2017
</metadata>
<g transform="translate(0.000000,73728.000000) scale(7.200000,-7.200000)"
fill="#000000" stroke="none">
<path d="M4824 6246 c-40 -18 -64 -52 -64 -92 0 -18 31 -91 78 -185 106 -208
160 -411 192 -714 31 -299 37 -1730 10 -2290 -25 -525 -64 -823 -121 -942 -26
-54 -82 -83 -161 -83 -62 0 -288 65 -745 214 -145 47 -274 86 -287 86 -62 0
-71 -66 -19 -140 15 -22 108 -110 205 -195 455 -399 790 -739 995 -1010 133
-177 240 -191 372 -49 151 161 267 391 319 635 40 180 46 295 33 617 -14 358
-31 1638 -31 2399 0 438 3 576 15 670 19 144 53 274 101 390 45 109 48 170 12
240 -82 160 -622 464 -821 463 -28 -1 -66 -7 -83 -14z"/>
</g>
</svg>
