<?xml version="1.0" standalone="no"?>
<!DOCTYPE svg PUBLIC "-//W3C//DTD SVG 20010904//EN"
 "http://www.w3.org/TR/2001/REC-SVG-20010904/DTD/svg10.dtd">
<svg version="1.0" xmlns="http://www.w3.org/2000/svg"
 width="1024.000000pt" height="1024.000000pt" viewBox="0 0 1024.000000 1024.000000"
 preserveAspectRatio="xMidYMid meet">
<metadata>
Created by potrace 1.14, written by Peter Selinger 2001-2017
</metadata>
<g transform="translate(0.000000,1024.000000) scale(0.100000,-0.100000)"
fill="#000000" stroke="none">
<path d="M6955 8904 c-269 -39 -602 -114 -930 -210 -88 -25 -277 -72 -420
-104 -832 -187 -1643 -312 -2350 -365 -255 -19 -336 -30 -392 -55 -157 -69 13
-231 333 -316 165 -44 253 -56 464 -61 215 -6 355 3 565 37 66 10 154 21 195
25 103 9 456 66 740 120 454 86 949 170 1462 250 472 73 863 170 967 241 73
50 110 139 80 197 -39 76 -150 152 -304 208 -84 30 -100 32 -235 35 -80 1
-158 0 -175 -2z"/>
</g>
</svg>
