<?xml version="1.0" standalone="no"?>
<!DOCTYPE svg PUBLIC "-//W3C//DTD SVG 20010904//EN"
 "http://www.w3.org/TR/2001/REC-SVG-20010904/DTD/svg10.dtd">
<svg version="1.0" xmlns="http://www.w3.org/2000/svg"
 width="1024.000000pt" height="1024.000000pt" viewBox="0 0 1024.000000 1024.000000"
 preserveAspectRatio="xMidYMid meet">
<metadata>
Created by potrace 1.14, written by Peter Selinger 2001-2017
</metadata>
<g transform="translate(0.000000,1024.000000) scale(0.100000,-0.100000)"
fill="#000000" stroke="none">
<path d="M6603 3735 c-51 -36 -56 -164 -9 -260 21 -42 81 -106 291 -310 287
-279 671 -677 1028 -1066 124 -135 254 -269 290 -297 80 -64 170 -112 208
-112 65 0 151 70 202 165 20 36 22 55 22 185 0 138 -2 154 -43 314 -46 182
-81 263 -156 363 -218 290 -779 624 -1589 947 -119 47 -217 86 -219 86 -2 0
-13 -7 -25 -15z"/>
</g>
</svg>
