<?xml version='1.0' encoding='utf-8'?>
<svg xmlns="http://www.w3.org/2000/svg" version="1.1" viewBox="0 0 1024 1024"><g transform="scale(1, -1) translate(0, -900)"><path d="M 470 431 Q 471 431 472 429 Q 482 408 484 388 Q 487 349 484 330 Q 484 290 484 267 L 482 233 Q 482 218 480 182 Q 474 80 466 55 Q 459 31 478 -12 Q 494 -49 510 -59 Q 521 -60 527 -46 Q 538 -20 536 18 Q 533 69 533 238 L 535 274 L 536 339 L 541 396 Q 542 411 537 416 Q 529 423 507 437 C 482 453 456 458 470 431 Z" fill="black" /></g></svg>