<?xml version='1.0' encoding='utf-8'?>
<svg xmlns="http://www.w3.org/2000/svg" version="1.1" viewBox="0 0 1024 1024"><g transform="scale(1, -1) translate(0, -900)"><path d="M 363 145 Q 373 161 383 183 Q 392 210 412 227 Q 425 237 414 247 Q 401 257 382 262 Q 366 269 348 261 Q 332 254 302 245 Q 268 238 234 234 Q 222 234 220 231 Q 217 224 232 213 Q 250 203 291 215 Q 340 234 346 234 Q 352 234 352 223 Q 343 183 328 159 L 309 132 Q 303 128 298 121 Q 276 99 228 76 Q 218 72 224 68 Q 243 62 308 93 Q 321 100 337 114 L 363 145 Z" fill="black" /></g></svg>