<?xml version='1.0' encoding='utf-8'?>
<svg xmlns="http://www.w3.org/2000/svg" version="1.1" viewBox="0 0 1024 1024"><g transform="scale(1, -1) translate(0, -900)"><path d="M 543 415 Q 562 419 584 424 Q 611 428 632 433 C 661 439 647 455 617 452 Q 503 439 385 424 Q 375 423 373 425 Q 372 428 379 435 Q 476 541 511 568 Q 529 581 520 593 Q 510 606 480 616 C 452 627 432 635 430 609 Q 430 540 348 463 Q 324 441 280 422 Q 252 412 251 401 Q 250 383 259 362 Q 269 341 282 335 Q 289 331 301 337 Q 335 356 375 369 L 406 378 Q 413 387 503 405 L 543 415 Z" fill="black" /></g></svg>