<?xml version='1.0' encoding='utf-8'?>
<svg xmlns="http://www.w3.org/2000/svg" version="1.1" viewBox="0 0 1024 1024"><g transform="scale(1, -1) translate(0, -900)"><path d="M 627 372 Q 558 441 523 451 C 495 463 478 451 503 434 Q 504 433 507 431 Q 514 427 522 421 L 563 385 Q 573 373 584 358 L 608 303 Q 629 219 605 106 Q 595 61 582 56 Q 573 52 512 65 Q 478 74 476 68 Q 475 61 486 49 Q 543 0 566 -32 Q 579 -51 595 -48 Q 616 -41 635 -10 Q 683 89 668 234 Q 664 273 651 308 L 627 372 Z" fill="black" /></g></svg>