<?xml version='1.0' encoding='utf-8'?>
<svg xmlns="http://www.w3.org/2000/svg" version="1.1" viewBox="0 0 1024 1024"><g transform="scale(1, -1) translate(0, -900)"><path d="M 638 400 Q 584 393 502 377 Q 477 371 475 391 Q 478 520 493 555 Q 500 571 492 583 Q 476 601 450 612 Q 432 619 423 610 Q 417 606 425 594 Q 435 570 428 449 Q 428 403 417 362 Q 410 341 426 325 Q 444 307 469 322 Q 512 349 640 368 Q 769 387 790 370 Q 802 358 790 314 Q 780 244 766 171 Q 756 114 730 78 Q 720 66 695 70 Q 656 83 622 93 Q 606 99 607 91 Q 606 85 615 77 Q 676 19 698 -20 Q 707 -42 726 -31 Q 795 6 808 76 Q 830 176 847 285 Q 854 324 874 357 Q 887 373 876 386 Q 857 408 819 429 Q 797 442 768 429 Q 723 410 681 406 Q 678 406 675 405 L 638 400 Z" fill="black" /></g></svg>