<?xml version='1.0' encoding='utf-8'?>
<svg xmlns="http://www.w3.org/2000/svg" version="1.1" viewBox="0 0 1024 1024"><g transform="scale(1, -1) translate(0, -900)"><path d="M 598 76 Q 619 43 636 6 Q 649 -18 661 -20 Q 673 -20 684 7 Q 703 58 699 121 Q 689 376 701 413 Q 711 438 698 449 Q 688 462 646 482 Q 627 492 582 477 Q 492 450 355 433 C 325 429 339 396 369 400 Q 379 401 392 403 Q 471 427 575 435 Q 606 438 616 426 Q 629 413 626 202 Q 627 126 620 112 Q 617 106 613 104 C 600 77 597 77 598 76 Z" fill="black" /></g></svg>