<?xml version='1.0' encoding='utf-8'?>
<svg xmlns="http://www.w3.org/2000/svg" version="1.1" viewBox="0 0 1024 1024"><g transform="scale(1, -1) translate(0, -900)"><path d="M 421 439 Q 446 423 474 431 Q 580 473 744 496 Q 780 502 793 501 Q 806 492 805 486 Q 806 483 801 471 Q 774 411 781 405 Q 788 401 804 412 Q 856 445 898 454 Q 932 464 932 472 Q 931 482 859 531 Q 835 550 752 528 Q 719 525 665 511 L 631 505 Q 576 496 508 480 Q 465 471 422 465 Q 418 465 419 464 C 389 459 394 452 421 439 Z" fill="black" /></g></svg>