<?xml version='1.0' encoding='utf-8'?>
<svg xmlns="http://www.w3.org/2000/svg" version="1.1" viewBox="0 0 1024 1024"><g transform="scale(1, -1) translate(0, -900)"><path d="M 748 350 Q 758 399 770 431 L 792 484 Q 807 511 824 526 Q 842 547 825 565 Q 807 578 750 604 Q 729 613 655 582 L 608 566 Q 385 523 374 520 Q 355 519 358 507 Q 361 498 382 492 Q 410 479 450 494 Q 492 503 536 512 L 575 521 Q 627 534 680 545 Q 708 552 721 541 Q 736 526 726 469 L 717 426 Q 708 389 700 355 C 693 326 742 321 748 350 Z" fill="black" /></g></svg>