<?xml version='1.0' encoding='utf-8'?>
<svg xmlns="http://www.w3.org/2000/svg" version="1.1" viewBox="0 0 1024 1024"><g transform="scale(1, -1) translate(0, -900)"><path d="M 588 425 Q 606 429 625 430 Q 647 437 653 422 Q 662 293 645 274 Q 639 267 602 271 Q 590 272 588 269 Q 587 265 595 259 Q 632 234 655 216 Q 665 207 674 217 Q 692 241 693 311 Q 687 381 697 427 Q 698 442 692 449 Q 671 467 657 474 Q 647 478 641 471 Q 637 467 589 453 L 545 444 Q 517 440 465 431 C 435 426 451 393 479 403 Q 489 409 545 417 L 588 425 Z" fill="black" /></g></svg>