<?xml version='1.0' encoding='utf-8'?>
<svg xmlns="http://www.w3.org/2000/svg" version="1.1" viewBox="0 0 1024 1024"><g transform="scale(1, -1) translate(0, -900)"><path d="M 701 356 Q 710 399 719 428 L 734 467 Q 747 498 767 516 Q 783 535 768 554 Q 750 567 695 592 Q 676 599 654 590 Q 617 577 584 566 L 535 554 Q 516 550 497 546 Q 470 542 443 535 L 402 529 Q 345 523 288 518 Q 272 517 272 507 Q 275 498 294 491 Q 319 479 357 491 Q 379 495 404 499 L 442 506 Q 488 516 536 523 L 580 532 Q 647 550 665 533 Q 678 521 677 493 Q 674 475 672 457 L 667 422 Q 660 386 653 353 C 647 324 695 327 701 356 Z" fill="black" /></g></svg>