<?xml version='1.0' encoding='utf-8'?>
<svg xmlns="http://www.w3.org/2000/svg" version="1.1" viewBox="0 0 1024 1024"><g transform="scale(1, -1) translate(0, -900)"><path d="M 691 255 Q 698 289 707 323 L 728 376 Q 738 392 751 407 Q 770 429 743 445 Q 718 464 693 478 Q 680 487 601 464 Q 574 461 525 452 L 479 445 Q 437 441 394 431 Q 321 418 275 416 Q 262 417 260 409 Q 259 402 279 390 Q 298 375 328 384 Q 419 408 479 413 L 525 419 Q 577 426 643 431 Q 658 432 662 425 Q 671 413 666 366 L 658 322 Q 652 297 645 267 C 638 238 685 226 691 255 Z" fill="black" /></g></svg>