<?xml version='1.0' encoding='utf-8'?>
<svg xmlns="http://www.w3.org/2000/svg" version="1.1" viewBox="0 0 1024 1024"><g transform="scale(1, -1) translate(0, -900)"><path d="M 883 326 Q 883 318 882 313 Q 876 282 839 286 Q 803 289 772 289 Q 763 290 766 282 Q 766 280 767 280 Q 772 272 808 252 Q 853 224 864 205 Q 872 192 885 190 Q 898 190 911 203 Q 943 251 945 308 Q 947 341 925 376 Q 897 423 842 458 Q 821 468 821 482 Q 820 488 827 504 Q 845 540 872 580 Q 892 617 919 632 Q 949 651 921 670 Q 870 708 847 711 Q 831 713 814 700 Q 793 682 782 677 L 706 643 C 679 631 700 599 727 612 L 731 613 Q 766 633 805 649 Q 809 653 821 647 Q 837 631 798 532 Q 775 475 776 470 Q 776 457 797 447 Q 821 434 843 412 Q 881 370 883 326 Z" fill="black" /></g></svg>