<?xml version='1.0' encoding='utf-8'?>
<svg xmlns="http://www.w3.org/2000/svg" version="1.1" viewBox="0 0 1024 1024"><g transform="scale(1, -1) translate(0, -900)"><path d="M 960 171 Q 944 223 938 313 Q 937 329 930 334 Q 921 340 917 319 Q 898 210 880 191 Q 838 143 661 143 Q 564 147 523 164 Q 487 183 480 207 Q 453 273 468 401 L 475 448 Q 479 479 489 498 Q 501 529 482 546 Q 431 583 416 579 Q 401 573 408 556 Q 427 519 424 463 Q 423 444 423 426 L 422 376 Q 421 240 432 203 Q 444 157 478 133 Q 548 82 789 95 Q 898 102 941 126 Q 972 139 960 171 Z" fill="black" /></g></svg>