<?xml version='1.0' encoding='utf-8'?>
<svg xmlns="http://www.w3.org/2000/svg" version="1.1" viewBox="0 0 1024 1024"><g transform="scale(1, -1) translate(0, -900)"><path d="M 404 308 Q 413 287 386 207 L 373 172 Q 346 111 289 31 Q 280 18 284 16 Q 288 13 296 21 Q 368 73 407 154 L 422 189 Q 467 315 470 317 Q 479 329 471 338 Q 440 365 402 354 Q 387 347 383 350 Q 377 353 383 367 Q 405 422 427 484 Q 446 524 462 544 Q 478 563 464 575 Q 452 585 417 594 Q 390 604 374 588 Q 340 554 312 539 Q 297 532 307 526 Q 326 516 373 537 Q 382 540 387 535 Q 394 522 380 471 Q 362 386 339 358 Q 327 342 333 329 Q 339 319 359 322 Q 396 328 404 308 Z" fill="black" /></g></svg>