<?xml version='1.0' encoding='utf-8'?>
<svg xmlns="http://www.w3.org/2000/svg" version="1.1" viewBox="0 0 1024 1024"><g transform="scale(1, -1) translate(0, -900)"><path d="M 539 331 Q 585 406 631 503 Q 650 537 679 558 Q 697 568 697 579 Q 696 594 662 612 Q 619 637 603 638 Q 590 637 577 627 Q 507 596 439 581 Q 418 581 407 578 C 377 575 371 575 397 562 Q 442 528 518 564 Q 554 582 568 572 Q 577 566 555 503 Q 533 430 485 356 Q 418 244 320 159 Q 235 86 127 31 Q 117 25 118 20 Q 119 14 128 15 Q 261 21 424 183 Q 467 231 523 306 L 539 331 Z" fill="black" /></g></svg>