<?xml version="1.0" encoding="utf-8"?>
<svg xmlns="http://www.w3.org/2000/svg" version="1.1" viewBox="0 0 1024 1024">
<g transform="scale(1, -1) translate(0, -1024)" fill="black" stroke="none">
<path d="M 443.4,515.6 Q 440.34694557539797,510.10168339722395 437.293891150796,504.6033667944479 Q 449.917331214035,465.57398405426306 462.54077127727396,426.5446013140783 Q 459.1337967173542,317.8215717940654 455.7268221574344,209.09854227405248 Q 450.21180758017493,203.21530612244896 444.69679300291546,197.33206997084548 Q 397.9855353636665,204.002059091025 351.2742777244176,210.6720482112045 Q 353.78877636019007,203.88745080706167 356.30327499596257,197.10285340291884 Q 408.7023591360743,145.5597212895987 461.10144327618593,94.01658917627859 Q 473.9444534165186,94.49196805752705 486.7874635568513,94.9673469387755 Q 498.8335179219543,114.37739972290457 510.8795722870573,133.78745250703363 Q 514.6185755935027,163.6868179925031 518.3575788999481,193.5861834779726 Q 517.102232488164,309.9892770019295 515.8468860763797,426.39237052588635 Q 517.444409642241,453.77202993650604 519.0419332081021,481.15168934712574 Q 490.7922141284669,497.6792433424848 462.5424950488317,514.2067973378439 L 443.4,515.6"/>
</g>
</svg>