<?xml version="1.0" encoding="utf-8"?>
<svg xmlns="http://www.w3.org/2000/svg" version="1.1" viewBox="0 0 1024 1024">
<g transform="scale(1, -1) translate(0, -1024)" fill="black" stroke="none">
<path d="M 543.9,832.5 Q 547.1741136771243,808.4031185985432 550.4482273542487,784.3062371970863 Q 557.9359063825448,719.7958448435601 565.4235854108407,655.2854524900339 Q 593.2475150660014,635.5803491742386 621.071444721162,615.8752458584433 Q 688.6349063740447,613.7897678688302 756.1983680269275,611.704289879217 Q 773.7835795459375,618.4869637650979 791.3687910649475,625.2696376509788 Q 789.8361881528955,635.5441117221566 788.3035852408435,645.8185857933344 Q 765.8816887521357,658.561974177426 743.4597922634277,671.3053625615178 Q 721.631230184702,663.9682844733062 699.8026681059762,656.6312063850946 Q 669.0440879225492,654.8877597769637 638.2855077391223,653.1443131688327 Q 620.2496723304066,667.02923696759 602.2138369216908,680.9141607663473 Q 601.8231115436595,713.0601105831754 601.4323861656283,745.2060604000034 Q 607.0675985346242,771.9104450526565 612.70281090362,798.6148297053098 Q 595.4532180469022,812.3920194816785 578.2036251901843,826.1692092580472 Q 561.0518125950921,829.3346046290236 543.9,832.5"/>
</g>
</svg>