<?xml version="1.0" encoding="utf-8"?>
<svg xmlns="http://www.w3.org/2000/svg" version="1.1" viewBox="0 0 1024 1024">
<g transform="scale(1, -1) translate(0, -1024)" fill="black" stroke="none">
<path d="M 504.7,577.0 Q 507.186032180469,554.7012851787946 509.672064360938,532.4025703575892 Q 508.7445018657192,468.1469583251877 507.8169393705004,403.8913462927862 Q 515.1007322629176,324.41904478576106 522.3845251553349,244.9467432787359 Q 535.4104072282807,227.78736920840805 548.4362893012265,210.62799513808022 Q 586.9489421924538,194.74162296322112 625.4615950836811,178.85525078836199 L 685.754457751447,169.15857678348306 L 758.5927309199399,163.88773725233534 L 839.0019651675748,163.51483310525379 Q 891.1037543880526,171.62513536026657 943.2055436085304,179.73543761527935 Q 958.4030310499877,197.36055810079134 973.600518491445,214.98567858630332 L 962.3388163095309,280.48806024700593 Q 957.8408248263904,328.5380615219849 953.3428333432499,376.5880627969638 Q 946.2758306487945,374.6971138726211 939.2088279543389,372.80616494827837 L 921.2960203656639,296.3198080731668 Q 908.3108500709739,268.459060850496 895.3256797762837,240.59831362782515 Q 868.9214362213023,230.404152181489 842.517192666321,220.20999073515287 Q 773.8839645895843,217.00927419697575 705.2507365128475,213.80855765879863 Q 651.2404372327857,224.36543022040138 597.2301379527238,234.9223027820041 Q 580.0547288969732,248.35176797082846 562.8793198412226,261.78123315965286 Q 555.4706159848363,284.6820980203827 548.0619121284499,307.58296288111245 Q 550.4977199126215,367.1500820236466 552.933527696793,426.7172011661807 Q 564.4842310601875,471.53845846543527 576.0349344235821,516.3597157646899 Q 572.260124607944,530.2161408086766 568.485314792306,544.0725658526634 Q 543.0990862650767,560.7865149725029 517.7128577378473,577.5004640923424 L 504.7,577.0"/>
</g>
</svg>