<?xml version="1.0" encoding="utf-8"?>
<svg xmlns="http://www.w3.org/2000/svg" version="1.1" viewBox="0 0 1024 1024">
<g transform="scale(1, -1) translate(0, -1024)" fill="black" stroke="none">
<path d="M 785.0,586.1 Q 730.9465150575015,555.4384219160384 676.8930301150032,524.7768438320768 L 545.1763661399588,472.9177162576818 Q 482.69678067811884,449.9944882659436 420.2171952162789,427.07126027420543 Q 438.3361486285476,417.97309369395407 456.4551020408163,408.87492711370265 Q 471.83262331171534,408.6429128169385 487.21014458261436,408.4108985201744 L 735.8381924198251,520.8119533527697 Q 754.1473131943324,525.3677455821979 772.4564339688395,529.9235378116261 Q 776.0251459850913,515.6805642206904 779.5938580013429,501.4375906297546 Q 761.9188586388325,438.25696818502496 744.2438592763219,375.0763457402953 Q 714.785174969613,381.51183775467706 685.326490662904,387.9473297690588 Q 687.4172746899676,377.556073999779 689.5080587170312,367.16481823049924 Q 722.6847848260504,338.3660664349038 755.8615109350696,309.56731463930845 Q 768.9420109818188,318.14290219211387 782.022511028568,326.7184897449192 Q 796.6956578466455,359.9544343768328 811.368804664723,393.1903790087464 Q 826.9458342187354,454.3347121522495 842.5228637727478,515.4790452957526 Q 853.2309173898631,539.9517802956251 863.9389710069784,564.4245152954976 Q 835.9945252403336,574.3161157340903 808.0500794736887,584.2077161726831 L 785.0,586.1"/>
</g>
</svg>