<?xml version="1.0" encoding="utf-8"?>
<svg xmlns="http://www.w3.org/2000/svg" version="1.1" viewBox="0 0 1024 1024">
<g transform="scale(1, -1) translate(0, -1024)" fill="black" stroke="none">
<path d="M 685.2,491.1 Q 687.7290916199884,454.40158352387186 690.2581832399766,417.7031670477437 Q 692.7270299790055,304.9681773750733 695.1958767180342,192.23318770240292 Q 711.2929238667562,167.63544186520923 727.3899710154782,143.03769602801555 Q 753.9618343547331,132.3127527645794 780.5336976939881,121.58780950114324 Q 819.7110591675237,120.76257724247552 858.8884206410594,119.93734498380778 Q 892.839840542631,128.25296602606056 926.7912604442026,136.56858706831338 Q 945.2979625836174,150.62408945252403 963.8046647230321,164.6795918367347 Q 955.4520408163265,201.30422740524781 947.0994169096209,237.92886297376094 Q 933.7232186418923,287.91082117145066 920.3470203741639,337.8927793691404 Q 917.0890997798537,334.4250116873071 913.8311791855434,330.9572440054739 Q 896.588811634608,262.49600676588835 879.3464440836726,194.0347695263028 Q 860.7186380674718,184.9301957517701 842.0908320512711,175.82562197723738 Q 802.7737498831269,180.0359059575517 763.4566677149827,184.24618993786603 Q 746.5362952511284,209.00158904878072 729.615922787274,233.75698815969537 Q 729.5758408486261,292.0143919625326 729.535758909978,350.27179576536986 Q 732.6538997356544,409.45378668751965 735.7720405613308,468.63577760966945 Q 717.1569792348425,480.24033990939154 698.5419179083544,491.84490220911357 L 685.2,491.1"/>
</g>
</svg>