<?xml version="1.0" encoding="utf-8"?>
<svg xmlns="http://www.w3.org/2000/svg" version="1.1" viewBox="0 0 1024 1024">
<g transform="scale(1, -1) translate(0, -1024)" fill="black" stroke="none">
<path d="M 509.0,586.9 Q 346.2886896616206,550.7995308077416 183.57737932324116,514.6990616154833 Q 181.02214553459868,507.9756946510382 178.4669117459562,501.25232768659316 Q 190.86648080306674,494.13259483718514 203.2660498601773,487.01286198777717 L 308.3398201429676,513.9671845914543 Q 390.257961393637,528.7628564628684 472.1761026443064,543.5585283342825 Q 486.557001759471,534.7388851583949 500.9379008746356,525.9192419825073 Q 501.9785714285714,498.24548104956267 503.01924198250725,470.57172011661805 Q 479.6142657396153,378.0612640141438 456.20928949672333,285.5508079116695 Q 478.35139100204844,266.6017288714736 500.4934925073736,247.65264983127776 Q 512.0572882047446,261.66602733554896 523.6210839021156,275.67940483982017 L 538.6769534802676,334.25014322263684 Q 556.1676138343717,412.6742229003222 573.6582741884758,491.0983025780075 Q 585.802606481993,510.2880725718026 597.9469387755101,529.4778425655977 Q 594.1123043969774,537.3077454971993 590.2776700184447,545.137648428801 Q 560.7850606464993,565.6079052945627 531.292451274554,586.0781621603244 L 509.0,586.9"/>
</g>
</svg>