<?xml version="1.0" encoding="utf-8"?>
<svg xmlns="http://www.w3.org/2000/svg" version="1.1" viewBox="0 0 1024 1024">
<g transform="scale(1, -1) translate(0, -1024)" fill="black" stroke="none">
<path d="M 794.4,587.0 L 737.013794422392,574.3970233491148 L 572.7742692245578,553.7772322756675 L 441.7514250014875,532.7793538406615 L 395.1958231689177,521.9493663354555 Q 284.45262943161435,500.6455001742471 173.70943569431103,479.34163401303874 Q 176.7885846883526,465.652881877449 179.86773368239423,451.9641297418592 Q 242.39343513332028,462.2296339110404 304.91913658424636,472.49513808022164 L 589.2593477207627,513.2268153575467 L 745.0873343589831,529.4162517318464 Q 771.5590787002014,529.179886781868 798.0308230414198,528.9435218318897 Q 803.2706346845277,516.9483629270117 808.5104463276356,504.95320402213366 L 811.9271604518525,377.9003476442639 Q 803.8055861078292,286.55326479613086 795.684011763806,195.20618194799786 Q 786.1317890504806,188.14649168288724 776.5795663371554,181.0868014177766 Q 737.4140872425605,190.43989621671244 698.2486081479656,199.79299101564825 Q 728.1119665275523,162.50836428698926 757.975324907139,125.22373755833027 Q 776.8266564101692,100.69515380496222 795.6779879131994,76.16657005159415 Q 807.0867040943824,80.14740966774048 818.4954202755655,84.12824928388682 Q 834.861360912545,127.2647251570349 851.2273015495244,170.401201030183 L 864.6177936064056,284.4557021309148 Q 871.6252199338712,398.5226623260716 878.6326462613367,512.5896225212284 Q 878.0284354308154,534.2303317495262 877.4242246002941,555.8710409778239 Q 847.0394546489983,570.9911745956192 816.6546846977025,586.1113082134145 L 794.4,587.0"/>
</g>
</svg>