<?xml version="1.0" encoding="utf-8"?>
<svg xmlns="http://www.w3.org/2000/svg" version="1.1" viewBox="0 0 1024 1024">
<g transform="scale(1, -1) translate(0, -1024)" fill="black" stroke="none">
<path d="M 795.5,937.9 Q 708.858921452796,909.5393675254359 622.2178429055921,881.1787350508718 Q 576.1235888107847,869.2978117111068 530.0293347159771,857.4168883713419 Q 542.9411363462502,847.8513523276866 555.8529379765234,838.2858162840314 Q 647.3236993089614,858.6122958971177 738.7944606413994,878.9387755102041 Q 764.8454249504883,881.1653690214112 790.8963892595773,883.3919625326182 Q 793.1011100816836,868.9284885549389 795.30583090379,854.4650145772596 L 785.0596146163588,787.3998019532678 Q 769.2713027735042,740.668735390866 753.4829909306496,693.9376688284643 Q 738.5445137655229,684.8725752025091 723.606036600396,675.807481576554 Q 693.9771689517122,685.5438605513009 664.3483013030285,695.2802395260478 Q 681.5261391937033,668.4578704451376 698.7039770843782,641.6355013642275 Q 716.6245832943757,617.8314533060204 734.5451895043732,594.0274052478134 Q 752.6554322603677,604.131264184141 770.7656750163623,614.2351231204685 Q 787.5756946510382,639.4674157876395 804.3857142857144,664.6997084548104 Q 828.7856462868363,756.0488928932673 853.1855782879582,847.398077331724 Q 862.9481512805039,876.2688072146809 872.7107242730495,905.1395370976379 Q 843.2445902642608,920.7307176431589 813.7784562554718,936.3218981886799 L 795.5,937.9"/>
</g>
</svg>