<?xml version="1.0" encoding="utf-8"?>
<svg xmlns="http://www.w3.org/2000/svg" version="1.1" viewBox="0 0 1024 1024">
<g transform="scale(1, -1) translate(0, -1024)" fill="black" stroke="none">
<path d="M 245.3,748.0 Q 247.8202883152428,705.790459332421 250.3405766304856,663.580918664842 L 240.8894576239492,445.07112852637937 Q 244.36098946867378,333.7095865668217 247.83252131339833,222.348044607264 Q 258.65072758799477,196.72102057816048 269.46893386259126,171.09399654905695 Q 292.28894805735706,152.50626822157435 315.1089622521228,133.91853989409174 Q 368.65630307099934,116.04673732883407 422.2036438898758,98.1749347635764 Q 526.9551747146172,91.65977058878528 631.7067055393586,85.14460641399417 Q 717.4772870997629,100.05247260920194 803.2478686601671,114.96033880440973 Q 866.7904657073158,142.83276780933113 930.3330627544644,170.70519681425256 Q 941.2599779853631,182.59899234162634 952.1868932162619,194.49278786900015 Q 944.3275943696929,232.18690299110062 936.468295523124,269.8810181132011 Q 924.9341477615619,322.94050905660055 913.4,376.0 Q 891.6630868090676,318.2646835077221 869.9261736181354,260.5293670154443 Q 839.7512800788788,226.39228127735896 809.5763865396221,192.25519553927361 Q 745.780237401083,172.05872553102876 681.9840882625438,151.86225552278387 Q 593.8822280682369,146.86506472643202 505.7803678739301,141.86787393008015 L 447.9872884597404,150.67811031117986 Q 402.4219245382451,164.89210575525505 356.8565606167498,179.10610119933023 Q 331.6273912230448,198.87576052495132 306.39822182933983,218.64541985057244 Q 295.72906909535993,246.9635045771745 285.05991636138003,275.2815893037765 Q 284.27114000119,334.8612393645505 283.48236364099995,394.4408894253245 Q 293.70260775697204,559.2624964938079 303.9228518729441,724.0841035622913 Q 280.4810924869739,736.2645058606533 257.0393331010038,748.4449081590153 L 245.3,748.0"/>
</g>
</svg>