<?xml version="1.0" encoding="utf-8"?>
<svg xmlns="http://www.w3.org/2000/svg" version="1.1" viewBox="0 0 1024 1024">
<g transform="scale(1, -1) translate(0, -1024)" fill="black" stroke="none">
<path d="M 773.0,733.5 L 683.6526557811796,695.8980671318924 Q 620.6290971448971,672.610709823288 557.6055385086146,649.3233525146835 Q 564.6346934525579,643.6011806305196 571.6638483965014,637.8790087463557 Q 610.360909994985,640.9587697302994 649.0579715934687,644.0385307142432 Q 688.4028576528488,660.4193924300248 727.7477437122287,676.8002541458065 Q 736.7834533230201,672.6694829535313 745.8191629338115,668.538711761256 Q 740.2919429829408,617.3368485919982 734.76472303207,566.1349854227406 L 717.2125976421389,494.3466999294512 Q 695.2685942931942,444.86146036090406 673.3245909442494,395.37622079235695 Q 638.4535278667902,353.1344754311554 603.582464789331,310.89273006995387 Q 556.8801536774644,280.13718136150754 510.1778425655977,249.38163265306122 Q 514.7499392260028,244.29239942540949 519.3220358864079,239.20316619775772 Q 547.0910470977228,240.15683091228993 574.8600583090379,241.11049562682214 Q 604.0122448979591,255.59795918367348 633.1644314868805,270.0854227405248 Q 664.3822157434403,300.5927113702624 695.6,331.1 Q 735.0420543311036,412.39585249343384 774.4841086622071,493.6917049868677 Q 810.9685802684255,599.0781536604646 847.453051874644,704.4646023340615 Q 835.9645249853377,715.5972388205595 824.4759980960314,726.7298753070575 Q 798.7379990480157,730.1149376535287 773.0,733.5"/>
</g>
</svg>