<?xml version="1.0" encoding="utf-8"?>
<svg xmlns="http://www.w3.org/2000/svg" version="1.1" viewBox="0 0 1024 1024">
<g transform="scale(1, -1) translate(0, -1024)" fill="black" stroke="none">
<path d="M 384.5,908.1 Q 381.63994169096213,902.5782828583328 378.7798833819242,897.0565657166657 Q 389.4399416909621,844.9282828583328 400.1,792.8 L 401.24926263716645,547.7419944070923 L 394.4933242101505,395.21582928881674 Q 385.35697668488467,321.3669006961385 376.22062915961885,247.5179721034603 Q 365.8292650171272,212.5454292004182 355.4379008746356,177.5728862973761 Q 365.43488044947264,162.0147697812986 375.43186002430963,146.45665326522112 Q 405.7890322059686,158.60454275004463 436.14620438762756,170.7524322348681 Q 485.6991954882744,185.60405868303172 535.2521865889213,200.45568513119534 Q 620.4133375549304,206.5012494793836 705.5744885209394,212.54681382757184 Q 829.3996625555678,210.16950292820167 953.2248365901962,207.7921920288315 Q 948.4906051050158,223.6984827750342 943.7563736198354,239.6047735212369 Q 922.4376620285766,251.66025848073508 901.1189504373178,263.71574344023327 L 701.6775314707307,248.44053753113076 L 566.0066630400598,243.3918911337963 Q 507.0964904079083,239.06382714685208 448.1863177757567,234.73576315990786 Q 440.66744341218373,247.75110115683094 433.14856904861074,260.766439153754 L 445.1858766330355,764.4386191127846 Q 445.9960224906289,820.7241893258761 446.80616834822223,877.0097595389676 Q 424.2779258642232,891.319870547136 401.7496833802242,905.6299815553044 L 384.5,908.1"/>
</g>
</svg>