<?xml version="1.0" encoding="utf-8"?>
<svg xmlns="http://www.w3.org/2000/svg" version="1.1" viewBox="0 0 1024 1024">
<g transform="scale(1, -1) translate(0, -1024)" fill="black" stroke="none">
<path d="M 453.7,644.6 Q 449.4659325621127,639.2910985218743 445.23186512422546,633.9821970437488 Q 458.16905923552264,606.3980735067871 471.1062533468198,578.8139499698256 Q 471.214105517259,513.0156626915656 471.32195768769816,447.21737541330566 Q 466.5503569941096,408.1192377325774 461.778756300521,369.02110005184915 Q 476.86968142525643,360.2535414665658 491.9606065499919,351.48598288128244 Q 526.0114998852519,368.1561220239866 560.0623932205119,384.82626116669076 Q 634.7417521610894,396.3949068840364 709.4211111016668,407.96355260138205 Q 782.9921882038946,410.3179202543158 856.5632653061224,412.6722879072496 Q 848.8007794371392,426.896809577642 841.0382935681561,441.1213312480344 Q 815.4441865209224,451.7839450399068 789.8500794736887,462.44655883177927 Q 658.9250397368444,444.02327941588965 528.0,425.6 Q 523.0060587000314,437.96614038368364 518.012117400063,450.3322807673673 L 520.2949621331247,530.8000237996073 Q 518.8409212997985,575.5052597132147 517.3868804664723,620.2104956268222 Q 493.3539358600583,632.2376093294461 469.3209912536443,644.26472303207 L 453.7,644.6"/>
</g>
</svg>