<?xml version="1.0" encoding="utf-8"?>
<svg xmlns="http://www.w3.org/2000/svg" version="1.1" viewBox="0 0 1024 1024">
<g transform="scale(1, -1) translate(0, -1024)" fill="black" stroke="none">
<path d="M 761.5,857.9 L 667.4226470263241,841.0540208586559 Q 568.8302093515457,821.5743393484008 470.23777167676735,802.0946578381456 Q 470.7023289615721,795.7144701612424 471.1668862463769,789.334282484339 Q 494.65216703924386,780.5663299305561 518.1374478321108,771.7983773767733 L 601.0981053812612,794.6316313780823 L 703.4748064156942,816.9100145347602 Q 733.6255858528334,818.9102130064855 763.7763652899728,820.9104114782107 Q 763.3798404576326,796.2930976888881 762.9833156252922,771.6757838995657 Q 747.0224494045849,717.7685054696598 731.0615831838775,663.8612270397539 Q 742.5709640540931,650.695365876463 754.0803449243087,637.5295047131723 Q 765.1692220078369,648.1789428724426 776.258099091365,658.828381031713 Q 803.7183571471071,714.5668331222535 831.1786152028492,770.305285212794 Q 844.9812901087132,787.0403977084379 858.7839650145772,803.7755102040817 Q 853.2613766372854,812.6412982685786 847.7387882599936,821.5070863330754 L 800.2285399790903,852.0838409166248 Q 780.8642699895452,854.9919204583124 761.5,857.9"/>
</g>
</svg>