<?xml version="1.0" encoding="utf-8"?>
<svg xmlns="http://www.w3.org/2000/svg" version="1.1" viewBox="0 0 1024 1024">
<g transform="scale(1, -1) translate(0, -1024)" fill="black" stroke="none">
<path d="M 260.3,957.0 Q 253.74067395387976,948.902609031951 247.18134790775952,940.8052180639019 Q 261.41428911422963,899.554358303088 275.6472303206997,858.303498542274 Q 268.89129189368373,557.6482579537437 262.1353534666678,256.99301736521346 Q 243.68535389166078,255.67630749092638 225.23535431665377,254.3595976166393 Q 195.09699487458457,263.79387287609757 164.95863543251536,273.2281481355558 Q 167.57781834099737,265.38222721825093 170.19700124947937,257.536306300946 Q 216.5942243452983,195.33187574905014 262.9914474411172,133.12744519715426 Q 277.77665046026743,131.1654361703032 292.5618534794176,129.20342714345213 Q 307.66372557352804,162.26818587493307 322.7655976676385,195.332944606414 Q 327.13558891278296,238.57204736121855 331.5055801579274,281.8111501160231 L 323.3570578585453,518.4427313449328 L 325.4158581883399,683.38455575483 L 336.2082593137213,821.1502350211222 Q 340.82923059269524,871.282360666049 345.4502018716691,921.4144863109759 Q 316.24185798434326,937.552232063171 287.0335140970174,953.689977815366 L 260.3,957.0"/>
</g>
</svg>