<?xml version="1.0" encoding="utf-8"?>
<svg xmlns="http://www.w3.org/2000/svg" version="1.1" viewBox="0 0 1024 1024">
<g transform="scale(1, -1) translate(0, -1024)" fill="black" stroke="none">
<path d="M 487.5,334.4 Q 491.1482354291154,307.01180715518194 494.7964708582308,279.6236143103639 Q 489.8798680821766,250.4778421406047 484.9632653061224,221.33206997084548 Q 473.2895358226589,200.70144880109478 461.6158063391954,180.0708276313441 Q 478.2283151577999,163.31639537947626 494.8408239764044,146.5619631276084 Q 520.1929748659147,158.762388545589 545.545125755425,170.9628139635696 L 614.3643464882829,195.43968499519758 Q 724.7467585784834,216.72784469056262 835.129170668684,238.01600438592763 Q 841.9302297512091,245.15829543812526 848.7312888337343,252.3005864903229 Q 845.6634718527145,261.46320920704807 842.5956548716946,270.62583192377326 Q 831.0629805608207,271.8040884325409 819.5303062499468,272.9823449413085 L 709.0,255.1 Q 624.1046698229479,239.84989842667596 539.2093396458959,224.59979685335193 Q 542.0362404270329,262.47634956523217 544.8631412081701,300.35290227711243 Q 520.858716181183,318.64980917814853 496.85429115419595,336.9467160791847 L 487.5,334.4"/>
</g>
</svg>