<?xml version="1.0" encoding="utf-8"?>
<svg xmlns="http://www.w3.org/2000/svg" version="1.1" viewBox="0 0 1024 1024">
<g transform="scale(1, -1) translate(0, -1024)" fill="black" stroke="none">
<path d="M 492.8,497.0 Q 495.04551759895963,464.6270138292718 497.29103519791926,432.2540276585436 Q 508.08152852977923,353.08475805149214 518.8720218616393,273.9154884444407 Q 544.9842616596826,252.70351681697252 571.0965014577259,231.49154518950436 Q 605.4767983578271,223.50257630749093 639.8570952579282,215.5136074254775 Q 684.5486642470398,216.6670077943714 729.2402332361515,217.8204081632653 Q 763.4999175513603,227.19535142670145 797.7596018665693,236.5702946901376 Q 810.4793789152479,254.99056388069596 823.1991559639266,273.41083307125433 L 810.0216720924105,321.7917262365171 Q 800.3202908652008,358.2957373203342 790.618909637991,394.79974840415133 Q 777.9844074322774,348.5643639129954 765.3499052265638,302.32897942183956 Q 755.3242093005465,289.36240937024536 745.2985133745293,276.3958393186512 Q 691.1118224549296,269.71539622096236 636.9251315353297,263.03495312327345 Q 597.7757473501688,273.0395077731217 558.6263631650078,283.04406242297 Q 550.4535605912503,294.9460836896191 542.2807580174928,306.84810495626823 Q 538.8694519290432,347.76206427593945 535.4581458405936,388.6760235956107 Q 523.8344456816462,441.46914763406403 512.2107455226989,494.2622716725174 Q 502.50537276134946,495.6311358362587 492.8,497.0"/>
</g>
</svg>