<?xml version="1.0" encoding="utf-8"?>
<svg xmlns="http://www.w3.org/2000/svg" version="1.1" viewBox="0 0 1024 1024">
<g transform="scale(1, -1) translate(0, -1024)" fill="black" stroke="none">
<path d="M 671.3,518.6 Q 599.776493637855,499.2323746908176 528.25298727571,479.8647493816352 Q 526.5539622096236,470.0147723312565 524.8549371435372,460.16479528087785 Q 579.9602674055878,467.085313092334 635.0655976676385,474.00583090379007 Q 650.5739649295787,473.3564139941691 666.0823321915188,472.7069970845481 Q 668.0574671267924,445.6168615967837 670.032602062066,418.5267261090192 Q 664.9825544628513,400.8024118352047 659.9325068636367,383.0780975613902 Q 650.8865255973276,377.32105202764154 641.8405443310186,371.56400649389286 Q 617.0671072427306,373.7317712007752 592.2936701544425,375.89953590765754 Q 622.2632304566974,340.96097926884204 652.2327907589524,306.0224226300266 Q 671.486755518534,327.89871822114935 690.7407202781154,349.7750138122721 Q 705.0980475822148,401.89454351503196 719.4553748863143,454.01407321779186 Q 725.4194991032648,475.1778060162007 731.3836233202153,496.3415388146095 Q 706.6712577242477,507.972955996226 681.9588921282799,519.6043731778425 L 671.3,518.6"/>
</g>
</svg>