<?xml version="1.0" encoding="utf-8"?>
<svg xmlns="http://www.w3.org/2000/svg" version="1.1" viewBox="0 0 1024 1024">
<g transform="scale(1, -1) translate(0, -1024)" fill="black" stroke="none">
<path d="M 541.3,766.6 Q 543.8535724910539,724.4355434385333 546.4071449821079,682.2710868770665 L 545.8113243631481,490.76188152895486 Q 554.7706640090439,408.1094216695425 563.7300036549398,325.4569618101301 Q 576.0497348043757,303.4849446234137 588.3694659538118,281.5129274366973 Q 625.386101879319,257.8115096600906 662.4027378048262,234.11009188348393 Q 714.2464487585955,226.22600192096832 766.0901597123648,218.3419119584527 Q 828.2672338906408,229.9062703465393 890.4443080689168,241.47062873462588 Q 929.1902659606117,265.18603048049704 967.9362238523065,288.90143222636823 Q 977.377213575976,305.3799981300308 986.8182032996456,321.8585640336934 Q 965.1609278446906,395.3730698943467 943.5036523897355,468.88757575500006 Q 933.0000637489482,427.2126945405401 922.4964751081607,385.53781332608014 Q 904.7167502486209,351.31338600413096 886.9370253890811,317.0889586821817 Q 857.2797316594276,303.5830398048432 827.6224379297743,290.0771209275047 Q 773.3263368154426,288.7494547339969 719.0302357011109,287.42178854048905 Q 676.8412842438099,303.16593468707765 634.6523327865091,318.91008083366626 Q 619.3886331375533,335.8752739079805 604.1249334885974,352.84046698229474 Q 592.7808073166793,401.6514594259194 581.4366811447611,450.4624518695441 L 580.6003629440114,536.4518610442927 Q 584.4198735220868,639.6342982090796 588.2393841001624,742.8167353738663 Q 570.042138054722,754.8852901427126 551.8448920092818,766.9538449115589 L 541.3,766.6"/>
</g>
</svg>