<?xml version="1.0" encoding="utf-8"?>
<svg xmlns="http://www.w3.org/2000/svg" version="1.1" viewBox="0 0 1024 1024">
<g transform="scale(1, -1) translate(0, -1024)" fill="black" stroke="none">
<path d="M 364.5,889.9 Q 357.88017492711367,881.1584548104956 351.2603498542274,872.4169096209913 Q 369.21574344023327,830.2309641390917 387.1711370262391,788.0450186571921 L 388.01233159652867,385.0279857882345 Q 395.1978797099848,321.6668560718748 402.3834278234409,258.3057263555151 Q 416.99158471385226,239.4946561381737 431.59974160426356,220.68358592083231 Q 468.68614607858973,207.85236083604622 505.7725505529159,195.02113575126012 Q 575.6063918945338,191.48564076192744 645.4402332361516,187.95014577259477 Q 697.1887585104846,194.770109393195 748.9372837848175,201.59007301379526 Q 776.273060544501,216.7455481984547 803.6088373041845,231.90102338311416 Q 792.3449600081599,248.3978508104616 781.0810827121352,264.89467823780905 Q 750.0661420836557,270.739497148297 719.051201455176,276.584316058785 Q 683.5732160919345,264.3885103145798 648.095230728693,252.1927045703746 Q 578.2738667561985,248.33819921971286 508.45250278370406,244.48369386905114 Q 486.03609550442417,252.68692424075002 463.6196882251443,260.8901546124489 Q 450.8029099269862,287.51210167532236 437.9861316288281,314.1340487381958 Q 436.9861486285476,466.68127395897966 435.9861656282671,619.2284991797635 Q 453.1862272522503,725.6352986425724 470.38628887623355,832.0420981053812 Q 446.34999575007015,854.1758595483175 422.31370262390675,876.3096209912537 Q 393.40685131195335,883.1048104956269 364.5,889.9"/>
</g>
</svg>