<?xml version="1.0" encoding="utf-8"?>
<svg xmlns="http://www.w3.org/2000/svg" version="1.1" viewBox="0 0 1024 1024">
<g transform="scale(1, -1) translate(0, -1024)" fill="black" stroke="none">
<path d="M 688.0,733.9 Q 590.7810733622896,708.7840181387007 493.56214672457907,683.6680362774015 Q 492.52645326352115,674.1335357716598 491.49075980246323,664.5990352659181 Q 512.6368324422647,660.4765187124412 533.7829050820661,656.3540021589644 L 631.4221123851456,676.9931661127591 Q 673.7060667748982,678.30532303717 715.9900211646508,679.6174799615807 Q 724.469253457318,652.4863360504552 732.9484857499851,625.3551921393297 L 733.6940381983698,549.071344422817 Q 722.3906051050158,416.0161386837117 711.0871720116618,282.96093294460644 Q 692.2285306292447,228.41834099737355 673.3698892468275,173.87574905014068 Q 665.7349446234138,168.43787452507036 658.1,163.0 Q 607.4822816173534,182.6559469268757 556.8645632347067,202.31189385375143 Q 549.0552609881938,202.52704867869681 541.2459587416809,202.7422035036422 Q 569.4621029503014,164.75413475677652 597.6782471589219,126.76606600991083 Q 623.1998312777839,90.7765578117961 648.721415396646,54.78704961368137 Q 667.129546362485,57.905007267380086 685.5376773283241,61.0229649210788 Q 711.4649967275541,99.84565954661748 737.392316126784,138.66835417215617 Q 754.2561466735799,197.54112147149573 771.1199772203759,256.4138887708353 L 781.8827988338193,337.27813411078716 Q 797.3992711370263,488.59810495626823 812.9157434402332,639.9180758017493 Q 820.8942965941062,665.4408800754788 828.8728497479791,690.9636843492083 Q 793.4139304201481,712.2047773461738 757.955011092317,733.4458703431394 Q 722.9775055461585,733.6729351715696 688.0,733.9"/>
</g>
</svg>