<?xml version="1.0" encoding="utf-8"?>
<svg xmlns="http://www.w3.org/2000/svg" version="1.1" viewBox="0 0 1024 1024">
<g transform="scale(1, -1) translate(0, -1024)" fill="black" stroke="none">
<path d="M 265.2,700.9 Q 261.7479179593537,695.5711553009376 258.2958359187073,690.242310601875 Q 262.87371460870895,653.0260656699164 267.4515932987106,615.8098207379578 Q 258.49254094807435,568.3667544985508 249.53348859743815,520.9236882591438 Q 232.78900585640338,495.84337818426 216.0445231153686,470.7630681093762 Q 235.46813317580262,449.12584382357693 254.8917432362366,427.4886195377776 Q 285.29425069486354,439.0289522222883 315.69675815349046,450.569284906799 Q 410.6526064819931,474.26394274494464 505.60845481049563,497.95860058309034 Q 591.6875519553928,504.2973034194936 677.7666491002899,510.6360062558968 Q 687.3691846084539,496.691180970514 696.971720116618,482.7463556851312 Q 691.7493293610655,441.8806054450102 686.526938605513,401.01485520488916 L 656.3661178590553,288.9118777040179 Q 642.1736372599852,251.32074730766942 627.9811566609151,213.72961691132096 Q 615.3093230711693,203.8779075895248 602.6374894814236,194.0261982677286 Q 548.233289275727,209.81890751302603 493.82908907003036,225.6116167583235 Q 494.8688879633486,217.10429582911883 495.9086868566668,208.59697489991413 Q 536.2453701263928,150.8385795884368 576.5820533961189,93.08018427695944 Q 592.4050552915876,90.13526251816845 608.2280571870564,87.19034075937746 Q 634.1559635016022,107.94582274392471 660.0838698161481,128.70130472847197 Q 676.9800389293578,152.99298336577445 693.8762080425673,177.28466200307693 L 714.5843262586167,252.267639333951 Q 740.6852391435541,359.56678382306694 766.7861520284915,466.86592831218286 Q 778.9931189385375,488.1571394571989 791.2000858485835,509.44835060221504 Q 758.0562048976192,531.3503710188781 724.9123239466549,553.2523914355413 Q 592.7328919072835,537.6209436544298 460.5534598679122,521.9894958733181 Q 380.7998848269003,507.4844121072002 301.0463097858885,492.97932834108235 Q 304.3053226121769,525.097769636801 307.56433543846526,557.2162109325196 Q 317.3620336764443,615.3204251629847 327.1597319144234,673.42463939345 Q 305.3460467152292,686.3570718833139 283.532361516035,699.2895043731778 L 265.2,700.9"/>
</g>
</svg>