<?xml version="1.0" encoding="utf-8"?>
<svg xmlns="http://www.w3.org/2000/svg" version="1.1" viewBox="0 0 1024 1024">
<g transform="scale(1, -1) translate(0, -1024)" fill="black" stroke="none">
<path d="M 677.5,836.3 L 499.57212895987215,795.1798706321346 L 412.47236270601536,783.5800508291613 Q 362.37958461185394,778.092723270066 312.28680651769247,772.6053957109708 Q 327.08616307830926,756.8154008958852 341.885519638926,741.0254060807996 Q 358.3012792288928,737.8053515117 374.7170388188595,734.5852969426004 Q 519.638571088577,758.1105020017169 664.5601033582946,781.6357070608335 Q 673.1913063434454,777.5285425290483 681.8225093285961,773.4213779972631 Q 681.6439098504875,751.3676410339231 681.4653103723788,729.3139040705829 Q 640.5123154467951,487.66956072724804 599.5593205212115,246.02521738391314 Q 620.5796602606058,244.96260869195658 641.6,243.9 Q 670.8009566592152,366.5227451997042 700.0019133184303,489.1454903994084 Q 726.6624382697686,598.6918469345255 753.3229632211069,708.2382034696427 Q 767.3034556179823,738.3377959013676 781.2839480148577,768.4373883330925 Q 757.2469608751455,792.2168802964751 733.2099737354333,815.9963722598577 Q 705.3549868677167,826.1481861299288 677.5,836.3"/>
</g>
</svg>