<?xml version="1.0" encoding="utf-8"?>
<svg xmlns="http://www.w3.org/2000/svg" version="1.1" viewBox="0 0 1024 1024">
<g transform="scale(1, -1) translate(0, -1024)" fill="black" stroke="none">
<path d="M 371.3,941.0 Q 367.71455643481886,936.0019005686406 364.12911286963765,931.0038011372811 Q 368.9552439884742,897.5954338753411 373.78137510731074,864.1870666134009 L 353.2010174332123,678.76939030506 Q 323.04830300300046,596.4473658934628 292.89558857278854,514.1253414818655 Q 296.52337121437495,503.3393913250431 300.15115385596135,492.55344116822073 Q 320.945092605972,478.5070208841554 341.7390313559826,464.4606006000901 Q 397.33480820066467,485.8154008958852 452.93058504534673,507.17020119168035 L 520.4368383921665,523.0111246164438 L 606.1818680991763,537.430715093201 Q 668.1079367440436,539.4050013174783 730.034005388911,541.3792875417555 Q 736.7135768259823,512.5995308077416 743.3931482630536,483.8197740737278 L 727.988056847062,403.0708871303624 Q 701.8810529626261,318.2624153201473 675.7740490781902,233.45394350993212 Q 663.0320793206911,222.73018470195245 650.2901095631921,212.00642589397276 Q 600.515408120766,223.33975894397742 550.7407066783398,234.6730919939821 Q 549.3595015682241,226.15483684519205 547.9782964581084,217.63658169640203 Q 583.6003973684434,164.16547909459496 619.2224982787784,110.69437649278787 Q 635.1228165985261,104.50773062244474 651.0231349182739,98.3210847521016 Q 678.6087871550119,118.78277248425401 706.1944393917499,139.24446021640642 Q 724.8190515856488,165.84656223172317 743.4436637795477,192.44866424703991 L 761.5735671361423,260.28579418439597 Q 789.6014938503515,381.3616150583515 817.6294205645606,502.4374359323071 Q 829.6094310193882,523.3367104692773 841.5894414742157,544.2359850062473 Q 809.2320385213644,566.2475843398583 776.8746355685131,588.2591836734694 Q 756.1891792535423,591.7622725225033 735.5037229385715,595.2653613715373 L 560.293409208748,568.0008151365503 Q 470.12346471283223,551.8221808090167 379.95352021691644,535.6435464814831 L 385.7344023323615,603.296501457726 L 404.32208093566453,729.9718017152717 L 419.77051143656126,806.4949425834474 Q 428.8096558406786,858.9010556825813 437.848800244796,911.3071687817152 Q 415.314482911032,925.2399922651277 392.78016557726795,939.1728157485402 L 371.3,941.0"/>
</g>
</svg>