<?xml version="1.0" encoding="utf-8"?>
<svg xmlns="http://www.w3.org/2000/svg" version="1.1" viewBox="0 0 1024 1024">
<g transform="scale(1, -1) translate(0, -1024)" fill="black" stroke="none">
<path d="M 238.8,696.9 Q 242.41946722879072,672.9275080961164 246.03893445758143,648.9550161922328 Q 243.49964088092548,597.8059265272123 240.9603473042695,546.6568368621918 Q 213.6013833521747,480.356897636189 186.24241940007988,414.0569584101862 Q 202.89575559503265,388.9845289802718 219.54909178998545,363.9120995503574 Q 246.8491219644876,375.1804027233551 274.14915213898973,386.4487058963527 Q 342.07457606949487,407.2243529481764 410.0,428.0 Q 534.7920020569661,437.2226967505036 659.5840041139321,446.44539350100723 Q 666.7193235811609,453.8790155462435 673.8546430483897,461.31263759147976 Q 661.7892238778061,474.66908771005274 649.7238047072224,488.0255378286258 Q 619.9615445095156,497.6531840474631 590.1992843118089,507.28083026630054 L 513.1512771039278,495.3597642138905 L 403.28994041598315,472.54074917763853 Q 335.9001538474615,460.7008708106316 268.5103672789399,448.8609924436247 Q 280.4517798706321,506.5223287065764 292.39319246232435,564.1836649695281 Q 304.31860831796274,604.5664366037961 316.24402417360113,644.9492082380641 Q 297.71805327712093,664.8458873428589 279.1920823806407,684.7425664476536 Q 258.9960411903204,690.8212832238269 238.8,696.9"/>
</g>
</svg>