<?xml version="1.0" encoding="utf-8"?>
<svg xmlns="http://www.w3.org/2000/svg" version="1.1" viewBox="0 0 1024 1024">
<g transform="scale(1, -1) translate(0, -1024)" fill="black" stroke="none">
<path d="M 470.4,958.0 Q 464.30696648505295,951.6489298676572 458.213932970106,945.2978597353143 Q 467.0592928966672,887.461046842727 475.9046528232284,829.6242339501398 L 468.86294401142385,749.4315761289939 L 455.19679725284533,659.2711370262391 L 437.65589167778734,577.460058309038 L 416.8214085967582,506.42033336449947 Q 393.4945235403616,459.9815952536783 370.16763848396505,413.54285714285714 Q 372.86426743958725,389.96002260962695 375.56089639520945,366.37718807639675 Q 381.9516034985422,361.03105211264017 388.34231060187506,355.68491614888353 Q 444.0977845115556,375.7909531742726 499.85325842123603,395.8969901996617 Q 571.426629210618,401.6484950998308 643.0,407.4 Q 598.0813861571285,300.06615440845223 553.1627723142568,192.73230881690452 Q 561.404836845192,192.78274953463267 569.6469013761273,192.83319025236082 L 588.0586558321787,213.17653783712566 Q 652.3436136303751,291.0496391809535 716.6285714285714,368.9227405247813 Q 735.7277873165092,385.98797312344345 754.8270032044471,403.0532057221056 Q 740.4838298668071,419.1183358974577 726.1406565291672,435.18346607280984 Q 702.048765395371,447.65132172819153 677.9568742615746,460.1191773835732 Q 641.668151875494,451.54315761289934 605.3794294894135,442.96713784222555 L 528.3486123978954,427.33545036506894 Q 492.4243061989477,424.06772518253445 456.5,420.8 Q 453.8445116405579,428.73253788812485 451.1890232811159,436.6650757762497 L 458.82274052478135,478.94139941690963 L 531.5938427015955,806.3065074926265 Q 549.790151212505,853.5264898129182 567.9864597234146,900.7464721332099 Q 555.8845774294724,914.753502367211 543.7826951355303,928.760532601212 Q 507.0913475677651,943.3802663006061 470.4,958.0"/>
</g>
</svg>