<?xml version="1.0" encoding="utf-8"?>
<svg xmlns="http://www.w3.org/2000/svg" version="1.1" viewBox="0 0 1024 1024">
<g transform="scale(1, -1) translate(0, -1024)" fill="black" stroke="none">
<path d="M 260.7,774.5 Q 254.86257426752456,768.2256032775459 249.02514853504917,761.9512065550919 Q 263.5332739759794,720.1277898664672 278.0413994169096,678.3043731778425 L 290.05124820440466,587.9236814592559 L 302.9018096201413,441.6447764111892 Q 298.3773321490196,353.69187285909777 293.8528546778978,265.7389693070064 Q 279.5323483412524,232.26498737770825 265.2118420046069,198.7910054484101 Q 272.6285225543778,183.96734353883159 280.04520310414875,169.1436816292531 Q 296.43136108254214,160.95341269369055 312.8175190609355,152.763143758128 Q 347.1423441763211,173.0797291094697 381.4671692917067,193.3963144608114 Q 441.52054501100724,205.13040994823587 501.57392073030786,216.8645054356603 L 650.2650145772594,225.97638483965017 Q 743.5571063077459,226.45314622308734 836.8491980382323,226.92990760652452 Q 843.1995962566617,233.11657897644693 849.5499944750911,239.3032503463693 Q 841.6163571301073,251.5343309335396 833.6827197851235,263.7654115207099 Q 800.4503926935205,278.2860266555602 767.2180656019175,292.8066417904105 Q 566.0590328009587,265.15332089520524 364.9,237.5 Q 359.82195343776823,255.37019694175046 354.74390687553654,273.24039388350093 L 344.36490237911073,603.715099150864 Q 345.4574310023885,673.8098445375651 346.5499596256662,743.9045899242662 Q 327.99110532176223,755.5354384652653 309.4322510178582,767.1662870062644 Q 285.0661255089291,770.8331435031322 260.7,774.5"/>
</g>
</svg>