<?xml version="1.0" encoding="utf-8"?>
<svg xmlns="http://www.w3.org/2000/svg" version="1.1" viewBox="0 0 1024 1024">
<g transform="scale(1, -1) translate(0, -1024)" fill="black" stroke="none">
<path d="M 310.4,873.1 Q 309.89763618900287,856.1724642793395 309.39527237800576,839.2449285586788 Q 300.8848736495848,806.0349441984208 292.3744749211638,772.8249598381627 L 269.59403819836973,723.8027786041531 Q 214.90674463871346,648.5649827027855 160.2194510790572,573.3271868014178 Q 163.43040739827794,559.2798200579691 166.64136371749868,545.2324533145204 Q 175.69577641968908,534.6140111688158 184.7501891218795,523.9955690231111 Q 223.84433654344704,533.9154229955207 262.9384839650146,543.8352769679301 Q 320.1265306122449,554.6620991253644 377.3145772594752,565.4889212827989 Q 380.5434168586218,571.9609257197257 383.77225645776844,578.4329301566524 Q 317.582465214324,580.6824902889102 251.3926739708795,582.932050421168 Q 243.8601407576775,585.9745174204625 236.32760754447548,589.016984419757 Q 263.4198322977671,633.6212114000118 290.51205705105866,678.2254383802667 Q 336.17190116363076,753.52824120902 381.8317452762029,828.8310440377734 Q 356.4144149121539,850.4010905320063 330.99708454810497,871.971137026239 L 310.4,873.1"/>
</g>
</svg>