<?xml version="1.0" encoding="utf-8"?>
<svg xmlns="http://www.w3.org/2000/svg" version="1.1" viewBox="0 0 1024 1024">
<g transform="scale(1, -1) translate(0, -1024)" fill="black" stroke="none">
<path d="M 438.3,747.5 Q 434.30588020297665,727.5999269012061 430.3117604059533,707.6998538024122 Q 405.194957033209,652.8560013259781 380.07815366046464,598.012148849544 L 273.3840185636937,450.59369480403575 Q 241.14016013735773,417.0830784792051 208.89630171102175,383.5724621543744 Q 209.44923968754514,373.1485792484424 210.00217766406854,362.72469634251036 Q 230.71194400292396,348.06574004028937 251.42171034177937,333.4067837380683 Q 343.176389939566,370.7817903254596 434.9310695373526,408.15679691285095 Q 439.89220987853696,415.7623328715076 444.8533502197214,423.3678688301643 Q 369.1873666584502,411.82639546447484 293.5213830971789,400.2849220987854 Q 289.7629499613256,402.39195870768134 286.00451682547236,404.4989953165773 L 330.94164846280034,472.8705352361686 L 409.33948269853545,580.1058538534114 L 457.990425757975,639.7560472252208 Q 481.7374869314656,674.2842918341847 505.4845481049562,708.8125364431487 Q 480.9339650145772,727.1285714285714 456.38338192419826,745.4446064139942 L 438.3,747.5"/>
</g>
</svg>