<?xml version="1.0" encoding="utf-8"?>
<svg xmlns="http://www.w3.org/2000/svg" version="1.1" viewBox="0 0 1024 1024">
<g transform="scale(1, -1) translate(0, -1024)" fill="black" stroke="none">
<path d="M 637.8,896.9 Q 636.5989906416544,878.2955473484687 635.3979812833088,859.6910946969376 Q 614.3213155232938,796.789396424959 593.2446497632789,733.8876981529804 Q 537.5245858443336,652.831912298447 481.80452192538826,571.7761264439137 Q 485.5179083545122,557.7448694846535 489.2312947836361,543.7136125253934 Q 498.53250516366484,532.8288680736769 507.83371554369353,521.9441236219602 Q 549.7363441253219,532.3656206172598 591.6389727069503,542.7871176125593 Q 639.356655815179,552.6718930887639 687.0743389234078,562.5566685649686 Q 691.5077629219118,570.4322773674235 695.9411869204158,578.3078861698782 Q 634.660189631871,580.6541632313067 573.3791923433263,583.0004402927351 Q 566.7176695084531,586.8803245246453 560.0561466735799,590.7602087565555 Q 591.1399446659129,643.9006026400564 622.2237426582461,697.0409965235574 Q 669.1706763338404,769.6263933395098 716.1176100094349,842.2117901554624 Q 697.6088050047174,862.5558950777312 679.1,882.9 Q 658.45,889.9 637.8,896.9"/>
</g>
</svg>